<svg fill="none" height="70" viewBox="0 0 151 70" width="151" xmlns="http://www.w3.org/2000/svg" xmlns:xlink="http://www.w3.org/1999/xlink"><linearGradient id="a"><stop offset="0" stop-color="#cf5c2b"/><stop offset="1" stop-color="#59173e"/></linearGradient><linearGradient id="b" gradientUnits="userSpaceOnUse" x1="115.784" x2="76.2005" xlink:href="#a" y1="-103.532" y2="-19.861"/><linearGradient id="c" gradientUnits="userSpaceOnUse" x1="85.9261" x2="47.9365" xlink:href="#a" y1="-30.9254" y2="126.451"/><linearGradient id="d" gradientUnits="userSpaceOnUse" x1="85.5384" x2="36.8899" xlink:href="#a" y1="-25.9304" y2="169.21"/><linearGradient id="e" gradientUnits="userSpaceOnUse" x1="79.4131" x2="76.1189" xlink:href="#a" y1="88.1012" y2="44.2774"/><linearGradient id="f" gradientUnits="userSpaceOnUse" x1="127.903" x2="115.272" xlink:href="#a" y1="16.5635" y2="43.0865"/><linearGradient id="g" gradientUnits="userSpaceOnUse" x1="156.032" x2="49.1213" xlink:href="#a" y1="-64.9342" y2="129.92"/><linearGradient id="h" gradientUnits="userSpaceOnUse" x1="114.685" x2="106.718" xlink:href="#a" y1="14.3183" y2="31.0475"/><linearGradient id="i" gradientUnits="userSpaceOnUse" x1="132.429" x2="64.9952" xlink:href="#a" y1="-37.0857" y2="85.8175"/><linearGradient id="j" gradientUnits="userSpaceOnUse" x1="28.9875" x2="21.0203" xlink:href="#a" y1="28.6854" y2="45.4146"/><linearGradient id="k" gradientUnits="userSpaceOnUse" x1="46.7316" x2="-20.7023" xlink:href="#a" y1="-22.7174" y2="100.186"/><path d="m150.891 55.7615c-.078-1.446-.155-2.892-.222-4.338-.067-1.5169-.145-3.048-.212-4.5649-.044-1.0349-.111-2.1406-.133-3.218-.023-.8932.267-2.3675-.112-3.1756-.223-.482-.712-.6237-1.147-.723-.568-.1276-1.135-.2551-1.703-.3827.768-.2269 1.514-.5104 2.249-.8648.167-.0851.334-.1701.445-.3402.101-.156.134-.3686.156-.5529.256-1.9847.089-4.0828.089-6.0959-.011-2.0414-.011-4.097-.022-6.1384-.011-1.9422-.011-3.8985-.022-5.8407 0-.638.211-2.0414-.045-2.6085-.2-.4678-.679-.4395-1.046-.4962-.379-.0567-.758-.0567-1.136-.0283-.568.0425-1.125.1559-1.682.2693.735-.2552 1.492-.3827 2.227-.6096.479-.1417.947-.3402 1.392-.6379.267-.1843.557-.3402.713-.6947.067-.1417.089-.326.122-.4961.067-.3544.078-.723.101-1.0916.044-1.0065.078-2.0131.089-3.0338.011-.51034.011-1.02069 0-1.53105 0-.32606-.101-.63794-.123-.97817-.1-1.37512-.534-2.69353-1.225-3.75677-.69-1.04906-1.637-1.81459-2.683-2.169-.39-.12759-.78-.19847-1.181-.22683-47.0781-1.885467-93.2214-1.95635-138.36259.02836-.17816.01417-.36745-.01418-.54561.04253-.17816.07088-.35632.15594-.54562.241-.36745.17012-.73491.34023-1.09122.56706-.69037.42529-1.3362.99235-1.7816 1.78623-.2561.46783-.43426.99236-.6681 1.46018-.12248.241-.27837.42529-.37858.68047-.47881 1.21918-.95761 2.45253-1.62571 3.52994-.645828 1.04905-.8351221 2.72185-.7683124 4.01195.1002144 1.7579.1336194 3.5299.2561044 5.2878.200429 2.7928.011135 5.5856.256104 8.4067.033405.3969.08908.8506.322914 1.1057.16702.1843.38972.2552.60129.3119.69037.1985 1.39187.3828 2.08224.5813-.8574.7088-2.13792.7655-2.59445 1.928-.144755.3827-.167025.808-.189295 1.2333-.077944 1.5027-.189294 2.9913-.267239 4.4798-.033405.6663-.06681 1.3468-.077945 2.013-.02227.638-.055674 1.2618-.111349 1.8997-.11135 1.4885-.411994 3.4165-.055675 4.8767.345184 1.4035 1.725923 1.4602 2.672393 1.8004-.50108.0709-.87966.5954-1.18031 1.12-.14475.2693-.2561.5387-.38972.808-.12249.241-.23384.482-.33405.7372-.20043.5103-.367454 1.0349-.489939 1.5878-.077945.3686-.122485.6521-.13362 1.0348-.011134.3403-.022269.6805-.033404 1.0207-.02227.6805-.033405 1.361-.04454 2.0415-.02227 1.3609-.033405 2.7218-.02227 4.0828.011135 1.3184-.2338344 2.5943.200429 3.8843.434264 1.2901 1.180304 2.3959 2.115644 3.1189.75718.5954 1.61457.9073 2.50537.964 45.39726 2.5376 91.55166 2.5092 138.41866-.0142 1.236-.0709 2.428-.6947 3.341-1.7721.434-.5103.824-.964 1.146-1.6161.401-.7797.769-1.5878 1.114-2.41.846-1.9989 1.904-4.2246 1.77-6.5353z" fill="url(#b)"/><path d="m145.747 63.0065c-46.8784 2.5092-93.0217 2.5517-138.41895.0141-2.01543 0-3.89724-1.8429-4.65442-4.1537-.33405-1.0349-.40086-2.1548-.35632-3.2606.01114-.1984.02227-.3827.06681-.5812.06681-.2977.17816-.5529.20043-.8648.01114-.1701.03341-.3119.04454-.482.07795-.8789.10022-1.772.15589-2.651.03341-.4961.07795-1.0065.1893-1.4885.12248-.5529.32291-1.0491.66809-1.3893 1.49209-1.4318 4.42058-1.4035 6.59193-1.4602.4231-.0142.8128-.0283 1.1691-.0567.9465-.0709 1.893-.0992 2.8395-.0992-2.2493-.0142-4.48743-.2552-6.70329-.7514-1.04669-.2268-2.09337-.5103-3.12892-.8506-.24497-.0708-.51221-.1843-.74605-.326-.32291-.1843-.60129-.4537-.74604-.8506-.12248-.3402-.11135-.7372-.11135-1.0916.01114-.3544-.0334-.723-.01113-1.0774.02227-.7655.10021-1.5027.15589-2.2541.05567-.6096.11134-1.2192.14475-1.8429.07794-1.6303.15589-3.2606.2561-4.8909.03341-.4962.07795-1.0349.34519-1.3751.16702-.2127.37859-.3119.59015-.4111.57902-.2694 1.16917-.4679 1.77046-.5955.31178-.0708.62356-.0708.8908-.1559.32291-.1276.56788-.2126.91306-.2552 3.30708-.4961 6.61418-.9781 9.93238-1.4743.3897-.0567.7906-.1134 1.1915-.1701-4.9885-.7656-9.98811-1.5595-14.97657-2.325-.2227-.0425-.43427-.0709-.65697-.0992-.20043-.0284-.41199-.0709-.54561-.2552-.01113-.0142-.02227-.0284-.0334-.0425-.10022-.1701-.11135-.3686-.13362-.5813-.2227-3.4307.0334-6.9748-.12249-10.448-.01113-.1985-.05567-1.1625-.10021-2.2683-.05568-1.6019-.14476-3.43068-.17816-3.43068-.21157-3.81347 2.08224-7.10242 5.08868-7.23001 45.13005-1.998879 91.27335-1.927997 138.31895 0 3.017.12759 5.333 3.43071 5.099 7.27254-.078 1.30425.123 2.56595-.133 3.88435-.056.3119-.134.6238-.323.8364-.167.1843-.39.2552-.601.3119-.568.1701-1.136.3544-1.704.5245-.757.2269-1.503.4395-2.272.5529-4.543.6096-9.063 1.2334-13.595 1.8571-.123.0142-.245.0284-.368.0426-.145.0141-.289.0425-.434.0567.367-.0142.724-.0142 1.08-.0142 5.679-.1276 11.369-.241 17.059-.3686.156 0 .334 0 .456.1276.145.1418.178.3828.201.6096.033.3119.033.6096.033.8931-.011.9215-.134 1.8004-.134 2.7361 0 .8222.156 1.6303.156 2.4808-.011 1.2192-.044 2.4384-.078 3.6718-.089 2.7785-.245 5.5997-.478 8.3924-.034.4112-.078.8364-.29 1.1342-.167.2268-.412.3544-.646.4536-.144.0709-.289.1276-.445.1701-3.341 1.2192-6.993.2552-10.422 1.0065-.223.0426-.457.0993-.669.1702-.077.0141-.155.0425-.222.0708.278.0284.557.0426.835.0851 3.752.3402 7.494.8222 11.224 1.4318.434.0709.924.1701 1.18.6238.201.3402.201.8081.201 1.2334v1.4034c0 1.4177 0 2.8353.055 4.253.067 1.8713.156 3.7426.256 5.628.045.9215.09 1.843.145 2.7503.201 3.7993-2.082 7.074-5.066 7.2442z" fill="url(#c)"/><path d="m150.168 23.2958c-.011 1.2192-.045 2.4384-.078 3.6717-1.926.2269-3.808.4112-5.657.6805-.434.0567-.857.1134-1.291.1843-1.593.2127-3.185.4111-4.777.5812-.791.0851-1.592.1702-2.394.2552-.512.0567-.969.3119-1.459.3828-.69.0992-1.447-.1276-2.149-.1843-.779-.0567-1.559-.0851-2.338-.0709-1.559.0284-3.129.1701-4.677.397-3.118.4536-6.191 1.205-9.287 1.8571-4.955 1.049-9.932 1.8571-14.943 2.3816 2.728.3403 5.434.9073 8.095 1.687-1.002.0993-2.004.1985-3.006.2694-3.185.2552-6.3692.3827-9.5538.4536s-6.3803.0709-9.5649.0567c-3.1846 0-6.3803-.0141-9.5649.0142-3.1846.0425-6.3692.1276-9.5538.3119-1.5923.0992-3.1846.2126-4.7658.3686-.4009.0425-.7906.085-1.1914.1276-.4788.0567-.9465.2268-1.4364.2977-3.7971.567-7.5941 1.2759-11.3466 2.2115-5.8347 1.4602-11.7028 2.892-17.6378 3.4024-1.0689.085-2.149.1701-3.218.2551-5.1109 1.3043-10.6339 1.5736-15.6446 2.3533-1.7036.2694-3.4407.4112-5.17776.4962-1.04669-.2268-2.09337-.5103-3.12892-.8506-.24497-.0709-.51221-.1843-.74605-.326-.32291-.1843-.60129-.4537-.74604-.8506-.12248-.3403-.11135-.7372-.11135-1.0916.01114-.3544-.0334-.723-.01113-1.0774.02227-.7656.10021-1.5027.15589-2.2541 4.5876-.482 9.29766-2.169 13.70716-2.9912 5.6677-1.0349 11.4467-1.6445 17.159-2.0556 6.4694-.4537 12.9277.5245 19.3748.5245 5.9795 0 11.9367-.6663 17.8828-1.2759 11.5915-1.1908 23.1607-2.4241 34.7296-3.7-2.516-.0567-5.033-.1418-7.5492-.2552-3.2069-.1418-6.4137-.3261-9.6206-.5387-.746-.0425-1.5144-.1701-2.2493-.0709-.7683.1134-1.5477.1418-2.316.1276-1.5255-.0284-3.051-.2694-4.532-.7372-.8685-.2693-1.737-.6238-2.6167-.8222-1.4921-.3261-3.0176-.2268-4.543-.2552-5.6677-.0992-11.2464-1.9989-16.9141-1.928-1.492.0142-2.973.1701-4.454.3402-1.57.1843-3.1511.3686-4.7323.4253-.7015.0284-1.4253.0851-2.1045-.1134-.5234-.1559-1.1247-.085-1.6591-.0992-.9576-.0284-1.9152-.0567-2.8728-.0851-1.9153-.0567-3.8305-.085-5.7568-.0992-7.2712-.0425-14.52.4678-21.7912.3969-3.09548-.0283-6.25781-.1134-9.31992-.6804-.01114-.0142-.02227-.0284-.03341-.0426-.10021-.1701-.11135-.3686-.13362-.5812-.2227-3.4307.03341-6.9748-.12248-10.4481-.01114-.1984-.05568-1.1624-.10022-2.2682 3.70795-.4111 7.43816-.5104 11.14615-.8506 7.26-.6805 14.5199-.9782 21.8134-.9357 14.442.0851 28.8506 1.2618 43.2482 2.6511 14.4086 1.3892 28.7835 3.1046 43.1925 4.4088 7.282.6522 14.576 1.0633 21.869 1.0633 2.138 0 4.298-.1701 6.458-.3686-.011.9215-.133 1.8004-.133 2.736.033.8932.189 1.7012.178 2.5376zm.234 24.0859c-.056-1.4177-.056-2.8353-.056-4.253-4.599-.6379-9.209-1.29-13.83-1.7011-7.928-.6947-15.9-.5813-23.84-.1702-1.648.0851-3.273.1418-4.91.397-.791.1276-1.581.2552-2.372.3686-3.173.482-6.3467.8647-9.5313 1.1766-1.236.1134-2.4831.2268-3.7303.3261 3.218-.0284 6.4361-.0567 9.6536-.0851 3.218-.0283 6.436-.0567 9.654-.085 1.604-.0142 3.218-.0284 4.822-.0426.802-.0141 1.603-.0141 2.416-.0283.334 0 .691.0283 1.025-.0709.2-.0567.4-.1559.601-.1985.724-.1417 1.525.0426 2.249.0993.802.0567 1.592.1134 2.394.1701 1.592.1276 3.196.2693 4.788.4111 2.517.241 5.022.5104 7.527.7939 2.74.3119 5.457.723 8.185 1.1483-6.191.7513-12.371 1.531-18.573 1.9705-14.275 1.0065-28.5505 2.2682-42.8478 1.8997-14.0969-.3403-28.1603-1.3752-42.2683-1.3043-7.4382.0284-14.8652.1843-22.2811.4678-5.4784.1985-11.02363.1702-16.49089.879-.11135.4678-.15589.9923-.1893 1.4885-.05567.879-.07794 1.7721-.15589 2.651 6.09083.3119 12.24848-.2126 18.32818-.2268 7.427-.0142 14.854.0709 22.281.2977 14.0746.4253 28.1381 1.4177 42.2016 1.7295 14.3195.3261 28.6055-.9781 42.8915-1.8996 7.372-.4678 14.788-.482 22.159-.5812h.156c-.1-1.8855-.189-3.7426-.256-5.6281z" fill="url(#d)"/><g fill="#eb924d"><path d="m3.53034 42.5207c-.01113.7089-.01113 1.4319.16703 2.0982-.32292-.1843-.60129-.4537-.74605-.8506-.12248-.3403-.11135-.7372-.11135-1.0916.01114-.3544-.0334-.723-.01113-1.0774.04454-1.3752.24497-2.7219.30064-4.097.07795-1.6303.15589-3.2606.25611-4.8909.0334-.4962.07794-1.0349.34518-1.3751.16702-.2127.37859-.3119.59015-.4112.57902-.2693 1.16917-.4678 1.77046-.5954.27838-.085.59016-.085.8574-.1701.32291-.1276.56788-.2126.91306-.2552 3.30706-.4961 6.61416-.9781 9.93236-1.4743-3.552.9214-7.1041 1.8146-10.66726 2.736-.69037.1702-1.61458.1702-2.19359.7514-.12249.1134-.2227.2552-.32292.3969-.08908.1276-.16702.2694-.26724.397-.18929.2126-.2561.5529-.34518.8506-.23383.8647-.36745 1.772-.40086 2.6793-.01113.3403-.01113.6947-.04454 1.0349-.01113.0851-.02227.1701-.0334.2552-.01114.0992-.05568.1701-.07795.2693-.17816.6947-.15589 1.4602-.07794 2.169.0334.2552.10021.5104.14475.7656.11135.6096.03341 1.2617.02227 1.8854z"/><path d="m131.762 16.7769c-.201-.0142-.401-.0283-.602-.0425h.958c-.111 0-.234.0283-.356.0425z"/><path d="m135.038 37.8008c.924.1134 1.848.2268 2.772.3119-.222.0425-.456.0992-.668.1701-.712-.1701-1.425-.3403-2.104-.482z"/><path d="m148.644 36.0563c.144-.7372.111-1.5027.055-2.2541-.078-1.3893-.167-2.7927-.245-4.182-.011-.2694-.044-.5671-.211-.7372-.134-.1418-.323-.1418-.49-.1276-1.381.0567-2.751.1134-4.109.1701 1.481-.1701 2.951-.6663 4.287-1.4885.39-.241.791-.5387.935-1.0349.078-.2552.078-.5387.078-.8222-.022-2.1974-.323-4.6499-.534-6.8331-.646-.7797-1.615-.8789-2.506-.9498-3.585-.2835-7.182-.5529-10.756-.8364-.857-.0709-1.815-.1134-2.728-.1701 5.679-.1276 11.369-.241 17.059-.3686.156 0 .334 0 .456.1276.145.1417.178.3827.201.6096.122 1.2475-.112 2.3958-.112 3.6291 0 .8223.156 1.6303.156 2.4809-.056 3.9411-.223 8.0523-.568 12.0642-.033.4111-.078.8364-.289 1.1341-.167.2268-.412.3544-.646.4537-.145.0709-.29.1276-.445.1701.189-.2835.334-.6521.412-1.0349z"/><path d="m2.52888 14.3953c-.02227-.4678-.2227-5.68478-.28951-5.68478-.21157-3.81347 2.08223-7.10242 5.08867-7.23001 45.12996-1.998879 91.27326-1.927997 138.31896 0 3.017.12759 5.333 3.43071 5.099 7.27254-.078 1.30425.123 2.56595-.133 3.88435-.056.3119-.134.6238-.323.8364-.167.1843-.39.2552-.601.3119-.568.1701-1.125.3686-1.693.5245.49-.567 1.058-1.2333 1.281-2.0556.155-.5528.033-1.0348-.112-1.5594-.222-.82221-.267-1.60191-.289-2.46668-.034-1.06324.111-2.58012-.546-3.43071-.501-.63794-1.158-1.19082-1.782-1.58776-1.547-.96401-3.34-1.17665-5.044-1.26171-.089 0-.167-.01418-.256-.01418-3.14-.12759-6.291-.14176-9.431.26936-.379.04252-.713.18429-1.08.26935-.457.11341-1.002-.02835-1.47-.05671-1.069-.07088-2.127-.12759-3.196-.18429-2.126-.09924-4.264-.17012-6.402-.21265-1.604-.02835-3.196-.02835-4.799-.02835-.502 0-1.014 0-1.515 0-.969 0-1.937 0-2.917 0-1.348 0-2.695 0-4.042-.01418-.067 0-.134 0-.189 0-2.138 0-4.265-.01418-6.4031-.01418-1.0689 0-2.1379 0-3.1957-.01417-.49 0-1.0356.08506-1.5144-.02835-.4899-.11342-.8796-.49618-1.3918-.55289-.4677-.0567-.9465.04253-1.403.09924-1.1692.11341-2.3273.25517-3.4853.42529-.5233.07088-1.1024.1843-1.4475.68047-.1225.17012-.2116.38277-.3564.52453-.3229.29771-.7794.09924-1.158-.07088-.746-.32606-1.5366-.51035-2.3383-.55288-.7238-.04253-1.4365.12759-2.1602.07088-.4566-.02835-.8908-.17012-1.3362-.28353-1.7593-.43947-3.5966-.46782-5.3671-.63794-1.3139-.12759-2.639-.21265-3.964-.26935-4.2647-.19847-8.5405-.08506-12.7941.14176-2.1379.11341-4.2647.25518-6.4026.4253-.9799.07088-2.06.34023-3.0287.17011-.2784-.04253-.5456-.18429-.824-.25517-.2895-.07089-.579-.05671-.8796-.05671-1.1804.01418-2.3718.02835-3.5521.02835-1.3807.01418-2.7726 0-4.1645 0-.4676 0-.9242.11342-1.3807.11342-.4231 0-.8351-.11342-1.2583-.11342-.8796.01418-1.7482.22683-2.561.65212-.3118.17012-.6347.35441-.9799.34024-.6235-.04253-1.0467-.79389-1.6146-1.13412-1.3362-.808061-2.7169.73718-4.0865.11341-.6792-.31188-1.3696-.26935-2.0934-.26935-.913-.01418-1.8261-.01418-2.7392-.01418-3.0955.01418-6.191.15594-9.2642.55288-1.5367.19847-3.0622.46783-4.58765.80806-.73491.17012-1.48095.43947-2.227.55289-.21156.02835-.37858.02835-.57901.21264-.91307.80806-3.41844 5.33036-1.62571 6.91814.11135.0992.23384.1843.36746.2552.18929.0992.38972.1417.59015.2268.20043.0992.45653.0283.6681.0283.5122 0 1.02441 0 1.52549-.0141.54561 0 1.09122-.0142 1.60343.1843-1.15804.3118-2.31607.6095-3.47411.9073-.37859.0992-.75718.1984-1.11349.3969-.05568.0425-.12249.0567-.1893.0851-.24497.1134-.42313.4961-.51221.7938-.23383.7797-.08908 1.6303-.18929 2.4384-.17816 1.446.04454 3.0054.15589 4.4372.14475 1.843.32291 3.7001.53448 5.543-.2227-.0425-.43427-.0708-.65697-.0992-.21156-.0284-.43426-.0709-.57901-.2835-.10022-.1701-.11135-.3686-.13362-.5813-.2227-3.459.0334-7.0031-.11135-10.4622z"/><path d="m150.801 55.7612c-.156-2.7928-.289-5.5856-.401-8.3783-.067-1.8855-.055-3.771-.055-5.6565 0-.4253-.012-.8789-.201-1.2333-.256-.4537-.746-.5529-1.18-.6238-3.73-.6096-7.472-1.0916-11.224-1.4318 3.34.8222 6.792 1.8713 9.966 2.9912.623.2269.668.8364.924 1.5878.245.7514.267 1.6019.289 2.41.011.3402.011.6805-.078 1.0065-.189.723-.79 1.12-1.325 1.4602.401.1418.802.2835 1.214.4395.1.0425.2.0709.267.1701.078.0992.112.2694.123.4253.156 1.3468.033 2.7644.044 4.1254.011.8789.011 1.7578.022 2.6368.012.241.078.4678.123.723.067.5103.022 1.0349-.1 1.531-.245 1.0207-.791 1.928-1.492 2.5093-1.214 1.0065-2.728 1.2192-4.176 1.3467-2.416.2269-4.844.1985-7.249.4962-.802.0851-1.592.1843-2.394.2694-1.592.1701-3.196.3119-4.788.4536-3.017.2552-6.046.4537-9.064.5813-7.148.3118-14.308.2835-21.4679.2268-.8574-.0284-1.726-.0284-2.5833-.0284-.7015 0-1.3696.1134-2.06.0284-1.6814-.2127-3.3516.1701-5.0219.4111-1.9486.2694-4.042.2977-5.7234-.9782-.5344-.4111-1.0578-.9498-1.6813-.9782-.5123-.0141-.991.3545-1.4587.638-.8908.5387-1.8707.8364-2.8506.9923-.0222 0-.0334 0-.0556.0142-2.0823.3403-4.0866.156-6.1688-.0283-1.5255-.1276-3.1289.1984-4.5876-.4962-1.1247-.5245-2.305-1.2759-3.463-.879-.412.1418-.7794.4253-1.1692.6238-.7572.3828-1.5923.4537-2.4051.5104-.5122.0283-1.0244.0567-1.5367.085-2.1267.0851-4.2646.0709-6.3914-.0425-.8908-.0567-1.8039-.0425-2.6724-.3686-.6013-.2268-1.1915-.0851-1.815-.0283-2.5833.2126-5.1778.2693-7.7722.1559-1.0578-.0425-2.1157-.1134-3.1624-.2127-.5122-.0425-1.0466-.1701-1.5588-.1701-.3564 0-.6793.1418-1.0356.1418-2.149-.0142-4.287-.0567-6.436-.0851-3.6634-.0425-7.338-.0992-11.0014-.1417-2.5053.4394-4.6098-.1134-7.09293-.6947-2.0377-.482-4.25356-1.531-5.09981-3.941-.35632-1.0066-.412-2.1265-.37859-3.2039.01113-.3261.0334-.638 0-.964-.03341-.2977-.11135-.5671-.14476-.8648-.11135-.9782.12249-2.1123.31178-3.0621.10022-.482.2227-.9924.50108-1.361.24497-.3402.59015-.5387.93533-.6804.91307-.3686 1.88181-.4537 2.83942-.5246 1.38074-.0992 2.76148-.2126 4.14218-.3118.2784-.0142.5568-.0426.8352-.0567-.0335-.1702-.0557-.3403-.0557-.5246l.0111-.0709c-.8462-.0283-1.6925-.0283-2.5388-.0425-2.18242.0567-5.09978.0425-6.59186 1.4602-.6681.6379-.79059 1.8146-.8574 2.8636-.0668 1.0349-.08907 2.0982-.20042 3.133-.03341.3119-.13362.5671-.20043.8648-.04454.1985-.05568.3828-.06681.5812-.04454 1.12.02227 2.2399.35632 3.2606.74604 2.325 2.62785 4.1537 4.65441 4.1537 45.39729 2.5376 91.54059 2.5093 138.41899-.0141 2.984-.156 5.267-3.4307 5.055-7.23z"/><path d="m10.6138 35.1626c0 .7655.0222 1.5452.0556 2.3108.0112.3827.0334.7655.0557 1.1483.0112.2835 0 .5954.0446.8647.0445.2268.089.4253.089.6663.0223.6521.0446 1.3184.078 1.9705.0445 1.3185.1002 2.6227.1447 3.9411.0668 1.687.1225 3.3598.1893 5.0468.0334.9357.1559 1.7437.5456 2.5376.078.156.1448.3119.2339.4537.1447.241.3229.4111.5456.5387.8128.4536 1.737.6946 2.6167.8648 1.3585.2693 2.7281.3402 4.0977.3969 18.0498.808 36.1218 1.6303 54.1827 1.0632 2.2047-.0709 4.4874-.1417 6.5363.9073-.9354-2.1265-3.1958-2.4383-5.111-2.495-20.0652-.5813-40.1416-1.2334-60.14-3.3599-.5456-.0567-1.1469-.1417-1.5366-.6521-.2784-.3544-.3897-.8647-.4788-1.3468-1.0244-5.2594-1.2248-10.7741-.6013-16.1328.0334-.326.1114-.6805.1002-1.0065-.0111-.3403-.0445-.6805-.0445-1.0349-.0111-.7088.0111-1.4318.0668-2.1407-.0779-.1701-.2672-.1701-.412-.1417-.3786.0567-.7572.0992-1.1469.1559.0223.4678 0 .9073-.0445 1.3751-.0112.156.0111.2694.0222.4253.0223.3119-.0222.638-.0334.9357-.0222.4536-.0334.9215-.0445 1.3751 0 .4395-.0111.8931-.0111 1.3326z"/><path d="m80.8202 58.1299c.2227-.723.9687-.8506 1.5811-.8648 4.866-.1276 9.7208-.241 14.5868-.3686 4.5879-.1134 9.1859-.2268 13.7739-.3544 1.481-.0425 3.062-.0425 4.287 1.0207-.022-.2268-.056-.4537-.078-.6805.523-.1134 1.025-.2552 1.559-.1984.29.0283.59-.0993.88-.1418.679-.1134 1.369-.1559 2.048-.1985 3.775-.2126 7.561-.2835 11.347-.5245.958-.0567 1.904-.1418 2.862-.2268.946-.0851 1.904-.156 2.839-.3261.134-.0283.256-.0851.39-.0992.178-.0142.356-.0284.534-.0426.958-.0992 1.927-.326 2.817-.8505 1.114-.6522 2.094-1.8146 2.45-3.3032.156-.6663.189-1.3609.223-2.0556.111-3.1755.078-6.3652-.111-9.5266-.123-.1559-.435.1276-.479.3545-.457 2.3107-.802 4.6498-1.025 7.0031-.133 1.4035-.245 2.892-.924 3.9978-.746 1.205-1.993 1.687-3.173 2.0272-6.269 1.843-12.75 2.0273-19.175 2.1974-5.99.1559-11.981.3261-17.96.482-4.9889-.2126-10.0999.7939-15.055.1134-1.3918-.1985-2.7948-.5103-4.1867-.2552-.1002.0142-.2116.0426-.2895.1418-.0557.0709-.0668.1701-.0891.2694-.167.7371.1002 1.6728.3675 2.41z"/></g><path d="m142.72 44.6755c-.011-2.6936-.034-5.3871-.056-8.0948-.011-2.5943-.033-5.1744-.045-7.7687-.022-3.1189.078-6.266-.211-9.3565-.056-.6096-.178-1.2334-.167-1.8429.011-.9215-.134-1.6303-.457-2.5093-.412-1.1908-1.002-2.2824-1.67-3.2748-1.447-2.18313-3.53-2.28237-5.701-2.39578-2.283-.12759-4.554-.01417-6.826-.02835-2.539-.01418-5.088-.02835-7.627-.05671-3.096-.02835-6.18-.07088-9.276-.11341-3.095-.04253-6.191-.08506-9.286-.12759-1.548-.01417-3.0957-.04253-4.6435-.0567-.3229 0-.657-.04253-.9687.0567-.2005.05671-.3786.15594-.579.1843-.6904.08506-1.481-.14177-2.1602-.31189.0891-2.02723.3674-4.04029.8351-5.99665-.6347 2.01306-1.3585 3.98359-2.1825 5.88324-.0556.12759-.1113.25518-.2115.31189-.1002.0567-.2227.04252-.3229.02835-.2339-.04253-.4788-.07088-.7127-.14177-.5344-.17011-1.1023-.09923-1.6591-.09923-2.394-.02835-4.7769-.04253-7.1709-.05671-4.699-.02835-9.3979-.01417-14.0857.02836-5.033.04252-10.066-.04253-15.1102-.07089-1.3696-.01417-2.7392-.02835-4.0977-.02835-.5901 0-1.158-.02835-1.7259.12759-.5901.17012-1.3139.02835-1.9152-.01418-.334-.02835-.6904-.07088-.9576-.34023-.2672-.25518-.3897-.6663-.5122-1.06324-.245-.82224-.4899-1.64447-.7349-2.46671.0334.964.1113 1.91383.2338 2.86365.0334.31188.0557.70883-.167.86477-.0668.04253-.1559.0567-.2338.07088-.2673.02835-.5456.11341-.8129.04253-.5122-.12759-1.0244-.08506-1.5477-.08506-5.7234 0-11.4245-.02835-17.1256-.05671-3.1958-.01417-10.8789-2.08394-11.9256 3.4449-.1447.7655-.1336 1.5594-.1781 2.3533-.1114 2.3816-.0446 4.7775-.0112 7.1733.0891 7.8963.2673 15.7926.5122 23.6747.0334 1.205.078 2.4242.2005 3.6292.1002.9498.0445 2.1973.6347 2.9345.2004.2552.3451.4962.5233.7939.3563.5812.8463 1.0207 1.3807 1.3326 1.1469.6805 2.472.8648 3.7414.9357 4.1422.2551 8.2733.4678 12.4043.6237 4.1645.1701 8.3179.3261 12.4823.4253 4.1645.0992 8.3179.1701 12.4823.1985 3.7748.0283 7.5495.0425 11.3243.0567h5.779c2.0823 0 4.5988-.8223 6.514.4395.9576.6237 1.7593 1.6303 2.2159 2.8778-.078-1.0066-.0557-2.0273.0668-3.0338 1.5143-.2693 3.0287-.4395 4.5542-.4678.6569-.0142 1.2916.1134 1.9486.0992.7683 0 1.5477-.0142 2.3161-.0142 3.0955-.0283 6.191-.0567 9.2865-.0992 1.9153-.0283 3.8303-.0567 5.7573-.085 4.164-.0568 8.317-.1843 12.482-.3828.746-.0425 1.503-.0709 2.249-.1134 5.735-.2836 11.469-.7088 17.192-1.2901.49-.0567.958-.1134 1.415-.2268.734-.1843 1.425-.5104 2.026-1.1625.735-.7939 1.448-1.6445 1.938-2.6935.79-1.687.59-3.615.579-5.5288zm-3.107 3.6575c-.301.6379-.857 1.2759-1.314 1.7579-.111.1134-.278.2552-.713.3544-.322.085-.701.1276-1.08.1701-5.489.5529-11.235.9782-17.07 1.2901-.746.0425-1.481.0708-2.227.0992-4.364.1985-8.418.3261-12.404.3828-11.8364.1843-23.4947.2835-34.6742.2835-5.0107 0-10.0215-.0142-15.0433-.0567-4.12-.0425-8.3179-.0992-12.4378-.1985-4.1199-.0992-8.3067-.241-12.4377-.4111-4.1311-.1701-8.2956-.3828-12.371-.6379-.9019-.0426-1.9263-.156-2.6501-.5813-.1782-.1134-.2673-.1984-.2895-.2268-.1336-.2268-.3007-.4962-.49-.7797-.0111-.1418-.0222-.2977-.0334-.4253-.0222-.2552-.0334-.4962-.0556-.7372-.1003-1.0207-.1337-2.0697-.1782-3.3315-.2561-7.797-.4343-15.7358-.5122-23.5754l-.0111-1.3326c-.0335-1.9422-.0557-3.771.0334-5.5714.0111-.1985.0111-.4111.0222-.6379.0112-.4395.0223-.8364.0668-1.0633.1003-.482 1.1692-.9781 3.3851-.9781 1.0912 0 2.2604.1134 3.2848.2126.8796.0992 1.7148.1701 2.4274.1701 5.0887.0284 10.1885.0425 15.2883.0425h2.8617c3.8082 0 7.6163.0142 11.4356.0426l3.6746.0283c2.6835.0284 5.3781.0426 8.0617.0426 1.1246 0 2.2604 0 3.4073-.0142 2.8394-.0284 5.6677-.0425 8.5071-.0425 9.6095 0 19.4082.1417 28.8731.2693 7.427.0992 15.121.1985 22.648.241l.368.0142c.668 0 1.314-.0142 1.982-.0142.646-.0142 1.292-.0142 1.926-.0142.936 0 1.715.0142 2.416.0567h.078c2.038.1276 2.985.2552 3.541 1.0916.568.8506.958 1.6303 1.225 2.3817.201.5812.201.7372.201.964-.012.7372.078 1.3751.133 1.8854.011.1418.034.3119.056.4537.2 2.1548.189 4.3664.189 6.7196-.011.7372-.011 1.4744 0 2.2116l.1 15.8209c.012.3544.012.6805.023 1.0066.011 1.1199.033 2.1123-.223 2.6368z" fill="url(#e)"/><g fill="#eb924d"><path d="m10.6676 30.1587 3.4073-.8648-.1447-.4111-3.5298.5387z"/><path d="m138.9 17.2147 3.953.4253v-1.1341l-4.276.241z"/><path d="m139.18 38.8915 4.376 1.0633-.089-.8932-4.699-.5245z"/><path d="m126.382 34.1279c-3.329-2.3674-8.863-1.6444-11.502 1.5453-1.659 2.013-1.748 5.7698 0 7.7687 3.842 4.4089 10.589 2.5234 13.028-2.9204.044-.0567.089-.1134.145-.1559 1.859-2.1407.534-5.699-1.671-6.2377z"/></g><path d="m127.174 32.044c-3.329-2.3675-8.863-1.6445-11.502 1.5452-1.659 2.0131-1.748 5.7698 0 7.7687 3.841 4.4089 10.589 2.5234 13.028-2.9204.044-.0567.089-.1134.144-.1559 1.86-2.1406.535-5.6989-1.67-6.2376z" fill="url(#f)"/><path d="m126.382 33.3897c-3.329-2.3675-8.863-1.6445-11.502 1.5452-1.659 2.0131-1.748 5.7698 0 7.7687 3.842 4.4089 10.589 2.5234 13.028-2.9204.044-.0567.089-.1134.145-.1559 1.859-2.1406.534-5.6989-1.671-6.2376z" fill="url(#g)"/><path d="m113.724 25.3963c-2.105-1.5027-5.59-1.0348-7.249.9782-1.047 1.2617-1.103 3.6434 0 4.9051 2.427 2.7786 6.681 1.5878 8.217-1.843.034-.0283.056-.0708.089-.0992 1.17-1.3609.334-3.6008-1.057-3.9411z" fill="#eb924d"/><path d="m114.224 24.0917c-2.104-1.5028-5.59-1.0349-7.249.9781-1.046 1.2617-1.102 3.6434 0 4.9051 2.428 2.7786 6.681 1.5878 8.218-1.8429.033-.0284.055-.0709.089-.0993 1.169-1.3751.334-3.615-1.058-3.941z" fill="url(#h)"/><path d="m113.724 24.9276c-2.105-1.5027-5.59-1.0349-7.249.9782-1.047 1.2759-1.103 3.6433 0 4.905 2.427 2.7786 6.681 1.5878 8.217-1.8429.034-.0284.056-.0709.089-.0992 1.17-1.361.334-3.6009-1.057-3.9411z" fill="url(#i)"/><path d="m28.0297 39.7694c-2.1045-1.5027-5.5897-1.0349-7.2488.9782-1.0467 1.2617-1.1024 3.6433 0 4.905 2.4274 2.7786 6.681 1.5878 8.2176-1.8429.0334-.0284.0557-.0709.0891-.0992 1.1691-1.361.334-3.6009-1.0579-3.9411z" fill="#eb924d"/><path d="m28.5297 38.451c-2.1045-1.5027-5.5897-1.0349-7.2488.9782-1.0467 1.2759-1.1024 3.6434 0 4.9051 2.4274 2.7786 6.681 1.5877 8.2176-1.843.0334-.0283.0557-.0709.0891-.0992 1.1691-1.3609.334-3.6008-1.0579-3.9411z" fill="url(#j)"/><path d="m28.0297 39.3026c-2.1045-1.5027-5.5897-1.0349-7.2488.9782-1.0467 1.2759-1.1024 3.6433 0 4.905 2.4274 2.7786 6.681 1.5878 8.2176-1.8429.0334-.0284.0557-.0709.0891-.0992 1.1691-1.361.334-3.6009-1.0579-3.9411z" fill="url(#k)"/><path d="m10.5808 17c0-3.3137 2.6863-6 6-6h112.8792c5.523 0 10 4.4772 10 10v23c0 5.5228-4.477 10-10 10h-110.8792c-4.4183 0-8-3.5817-8-8z" fill="#eb924d" opacity=".9"/><path d="m53.9879 19.2344c.1094 0 .2031-.0078.2813-.0235.0937-.0156.2031-.0156.3281 0 .1406-.0781.2344-.1015.2812-.0703.1094.0156.1797.0235.211.0235.0469-.0157.0859-.0235.1172-.0235.1718.0625.2812.0938.3281.0938.0469-.0156.0859-.0156.1172 0 .1562.0468.2656.0703.3281.0703.0781 0 .1484.0078.2109.0234.2188.0781.3672.1407.4454.1875.1093.0156.1875.0313.2343.0469.0469.0156.0938.0313.1407.0469.1562.0312.2343.0468.2343.0468.0157 0 .0313.0079.0469.0235.0625.0312.1406.0625.2344.0937.0937.0157.1719.0469.2344.0938.0781 0 .1484.0078.2109.0234s.1328.0391.2109.0703c.2188.0938.3594.1485.4219.1641s.1094.0469.1406.0938c.0782 0 .1563.039.2344.1171.0781.0625.1719.0938.2813.0938.0781.0937.1796.1562.3046.1875.1407.0937.211.1484.211.164.0312.0313.0703.0547.1172.0704.0468.0156.0859.039.1172.0703.1406.0781.2421.1484.3046.2109.1719.1094.2813.1875.3282.2344.0468.0312.0937.0625.1406.0937.0469.0625.0937.1172.1406.1641.0469.0312.0938.0625.1406.0938.1563.1093.2266.1718.211.1874 0 0 .0078.0079.0234.0235.1406.125.2188.1875.2344.1875.1406.125.2187.2031.2344.2344.1093.1406.1718.2187.1875.2343.0156 0 .0312.0157.0468.0469.0625.0938.1172.1641.1641.211.125.1562.2188.25.2813.2812.0937.1406.164.25.2109.3281s.1094.1485.1875.211c.0781.1562.1172.2343.1172.2343l.1875.211c.0312.0312.0547.0781.0703.1406.0156.0469.0391.0859.0703.1172.0313.0625.0547.1094.0703.1406l.0938.0938c.0625.1406.0937.2109.0937.2109.0156 0 .0235.0078.0235.0234.0781.1407.1328.2422.164.3047.0156.0782.0391.1406.0703.1875.0313.0469.0469.1094.0469.1875.0469.0782.0781.1563.0938.2344.0156.0781.039.1562.0703.2344.0781.1562.1172.2422.1172.2578.0156.0156.0234.0312.0234.0469.0625.1406.0859.2421.0703.3047v.1874c.0625.1719.0859.2657.0703.2813v.0469c.0469.2031.0625.3437.0469.4218 0 .0626.0078.1329.0234.211.0469.4844.0547.8984.0235 1.2422v.1875c0 .0469-.0078.1093-.0235.1875-.0312.1875-.0468.2968-.0468.3281.0156.0156.0156.0391 0 .0703-.0625.3125-.1094.5547-.1407.7266-.0312.1562-.0625.3125-.0937.4687-.0469.1563-.0938.3125-.1406.4688-.0469.1406-.086.2812-.1172.4219-.0938.25-.1563.414-.1875.4921-.0782.1875-.125.2969-.1407.3282-.0156.0312-.0312.0625-.0468.0937l-.1641.2344c-.0781.1562-.1172.2422-.1172.2578.0156 0 .0156.0078 0 .0234-.1094.1563-.1797.2657-.2109.3282-.0938.1562-.1406.2343-.1406.2343-.2032.2344-.3516.3985-.4454.4922-.0781.0938-.164.1953-.2578.3047-.1406.1563-.2422.2578-.3047.3047s-.1171.0937-.164.1406c-.0625.0313-.1563.0938-.2813.1875-.0937.1094-.2109.2032-.3515.2813-.1563.1406-.2657.2187-.3282.2343-.0468.0157-.0937.0391-.1406.0704-.1406.1093-.2344.1796-.2812.2109-.0313.0156-.0625.0469-.0938.0937-.0469-.0156-.0937-.0078-.1406.0235-.0469.0312-.0859.0547-.1172.0703-.1719.1094-.2734.1641-.3047.1641-.0156 0-.039.0156-.0703.0468-.0937.0782-.1641.1172-.2109.1172-.0313 0-.0625.0157-.0938.0469-.0625.0312-.125.0703-.1875.1172-.0625.0312-.125.0625-.1875.0937-.0625.0469-.1172.0782-.164.0938-.0469 0-.1016.0156-.1641.0469-.1094.0625-.1719.1015-.1875.1172 0 .0156-.0156.0234-.0469.0234-.1562.0312-.2422.0469-.2578.0469 0 .0156-.0078.0234-.0234.0234-.1719.0781-.2578.1172-.2578.1172-.1094.0312-.2032.0625-.2813.0937-.1719.0782-.2578.1172-.2578.1172-.0938.0469-.1719.0703-.2344.0703-.0469 0-.0859.0079-.1172.0235-.1718.0312-.289.0468-.3515.0468-.0469.0157-.0938.0235-.1407.0235-.1875.0156-.3125.0234-.375.0234-.0468.0157-.0937.0313-.1406.0469-.1562.0156-.2422.0391-.2578.0703-.0781-.0156-.1797-.0234-.3047-.0234-.2031-.0157-.3281-.0157-.375 0-.0469.0156-.0937.0234-.1406.0234-.125 0-.2656-.0156-.4219-.0469-.1094.0157-.1953.0157-.2578 0-.0469-.0156-.1094-.0078-.1875.0235-.0625-.0313-.125-.0469-.1875-.0469-.0469 0-.1094-.0078-.1875-.0234l-.2578-.0235c-.2344-.0156-.4063-.0469-.5156-.0937-.0313-.0156-.0703-.0235-.1172-.0235-.0469.0157-.1094.0157-.1875 0-.2344-.0468-.3906-.0859-.4688-.1171-.0625-.0313-.1328-.0626-.2109-.0938-.125-.0469-.2578-.0781-.3984-.0938-.1094-.0468-.1719-.0703-.1875-.0703-.0157.0157-.0391.0157-.0704 0-.1406-.0781-.2187-.1171-.2343-.1171-.0157.0156-.0391.0156-.0703 0-.1407-.0469-.2188-.0782-.2344-.0938-.0156-.0312-.0391-.0547-.0703-.0703-.1407-.0313-.2344-.0547-.2813-.0703s-.0859-.0313-.1172-.0469c-.1406-.0625-.2265-.1016-.2578-.1172-.0156-.0156-.0469-.0312-.0937-.0469-.1407-.0625-.2266-.1015-.2578-.1172-.0313-.0312-.0547-.0546-.0704-.0703-.1718-.0625-.2734-.1015-.3046-.1171-.0313-.0157-.0625-.0235-.0938-.0235-.0312-.0469-.0703-.0781-.1172-.0937-.0469-.0313-.0859-.0625-.1172-.0938-.0468-.0312-.0937-.0625-.1406-.0937-.0312-.0313-.0625-.0625-.0937-.0938-.0938-.0469-.1485-.0703-.1641-.0703-.0156-.0156-.0391-.0391-.0703-.0703-.1563-.1094-.2422-.1641-.2578-.1641-.0157-.0156-.0391-.0312-.0703-.0468-.1407-.0938-.211-.1719-.211-.2344-.1562-.0938-.25-.1406-.2812-.1406-.0313-.0157-.0547-.0313-.0703-.0469-.1094-.125-.1719-.1797-.1875-.1641-.0157 0-.0235-.0078-.0235-.0234-.1094-.0938-.1797-.1485-.2109-.1641-.0313-.0156-.0625-.0391-.0938-.0703-.0937-.125-.1718-.2031-.2343-.2344-.0313-.0312-.0625-.0625-.0938-.0937-.0156-.0469-.0391-.086-.0703-.1172-.0938-.0781-.1641-.1406-.2109-.1875-.0313-.0625-.0625-.1328-.0938-.211-.1094-.0937-.1641-.1484-.1641-.164 0-.0313-.0156-.0625-.0468-.0938-.0782-.1093-.1328-.1796-.1641-.2109-.0156-.0469-.0312-.0859-.0469-.1172-.0625-.125-.1015-.1953-.1172-.2109-.0156-.0156-.039-.0391-.0703-.0703-.0781-.1719-.1328-.2735-.164-.3047-.0313-.0313-.0625-.0625-.0938-.0938-.0781-.1875-.125-.2968-.1406-.3281s-.0391-.0625-.0703-.0937c-.0313-.0782-.0547-.1485-.0703-.211-.0157-.0781-.0469-.1484-.0938-.2109-.0312-.1094-.0469-.1797-.0469-.211 0-.0468-.0078-.0859-.0234-.1171-.0312-.0782-.0625-.1641-.0937-.2579-.0313-.1093-.0547-.2187-.0704-.3281-.0468-.25-.0781-.414-.0937-.4922-.0156-.0937-.0313-.2031-.0469-.3281-.0312-.1563-.0469-.25-.0469-.2813 0-.1562-.0078-.2578-.0234-.3046 0-.0469 0-.086 0-.1172-.0156-.2344-.0312-.3828-.0469-.4453-.0156-.0625-.0234-.1407-.0234-.2344 0-.1563.0078-.2344.0234-.2344.0313-.0156.0391-.0312.0235-.0469-.0313-.0781-.0391-.1484-.0235-.2109.0313-.0781.0469-.1563.0469-.2344-.0156-.125-.0234-.2109-.0234-.2578.0156-.0469.0234-.0937.0234-.1406v-.3047c.0625-.2344.0938-.375.0938-.4219.0156-.0625.0312-.1328.0468-.2109l.0469-.2578c.0469-.2032.0781-.3203.0938-.3516.0781-.1875.1171-.289.1171-.3047 0-.0312.0079-.0625.0235-.0937.0625-.125.1015-.1953.1172-.211.0156-.0156.0234-.039.0234-.0703.0156-.0469.0156-.0937 0-.1406 0-.0469.0156-.0937.0469-.1406.0937-.1563.1562-.25.1875-.2813.0625-.125.0937-.2031.0937-.2344 0-.0312.0078-.0624.0235-.0937.0312-.0313.0625-.0703.0937-.1172.0313-.0469.0625-.0859.0938-.1172.0781-.1562.1328-.2812.164-.375.0469-.0937.0938-.1797.1407-.2578.0781-.1094.1093-.1719.0937-.1875 0-.0156.0078-.0312.0234-.0469.1094-.1406.1719-.2187.1875-.2343.0157-.0313.0313-.0625.0469-.0938.1094-.125.211-.2187.3047-.2812.1094-.1719.1797-.2735.2109-.3047.0313-.0313.0625-.0625.0938-.0938.0469-.0469.0781-.1093.0937-.1875.1407-.1406.2266-.2422.2579-.3047.0468-.0625.0937-.125.1406-.1875.1094-.125.1875-.1953.2344-.2109.0468-.0156.0781-.0547.0937-.1172l.2344-.1172c.1094-.0625.1953-.125.2578-.1875s.1484-.1094.2578-.1406c.1719-.1094.2578-.1562.2578-.1406.0781-.0625.125-.0938.1406-.0938.0313-.0156.0625-.0312.0938-.0468.0937-.0938.1797-.1563.2578-.1876.1406-.0937.2188-.1406.2344-.1406s.039-.0078.0703-.0234c.1094-.0625.1797-.0938.2109-.0938.0313-.0156.0625-.039.0938-.0703.1719-.0781.289-.1406.3515-.1875.0625-.0468.1329-.0859.211-.1172.1406-.0312.2187-.0546.2344-.0703.0156-.0312.039-.0312.0703 0 .0312-.0625.0781-.0937.1406-.0937.0625-.0156.1328-.0391.2109-.0703.0782-.0469.1328-.0703.1641-.0703.0312 0 .0625-.0079.0937-.0235.125-.0469.2266-.0625.3047-.0469.0782 0 .1563-.0078.2344-.0234.1406-.0312.2266-.0547.2578-.0703.0313-.0156.0625-.0235.0938-.0235.1562 0 .2578-.0078.3047-.0234.0468-.0156.0859-.0234.1171-.0234.1719-.0156.2657-.0235.2813-.0235.0312-.0156.0625-.0234.0937-.0234.2032 0 .3438-.0078.4219-.0234.2344-.0313.4219-.0079.5625.0703zm.4453 3.8672c-.1562.0312-.25.0312-.2812 0-.1406.0156-.2344.039-.2813.0703-.0468.0312-.0859.0625-.1172.0937-.125.0625-.2265.1016-.3046.1172-.0469.0313-.1016.0547-.1641.0703-.0469.0157-.0781.0625-.0938.1407-.1562.0624-.2578.1171-.3046.164-.1407.0938-.2188.1406-.2344.1406 0 0-.0078.0078-.0235.0235-.0937.0781-.1562.1328-.1875.164-.0312.0313-.0625.0547-.0937.0703-.1094.0626-.1719.1094-.1875.1407 0 .0156-.0078.0312-.0234.0469-.0782.0781-.125.1328-.1407.164-.0156.0156-.039.0391-.0703.0703l-.1875.2344c-.0469.0469-.0937.0937-.1406.1406s-.1016.0938-.1641.1407l-.2578.2812c-.0781.1406-.1172.2188-.1172.2344-.1093.1718-.1718.2578-.1875.2578 0 0-.0078.0078-.0234.0234-.0938.1563-.1563.2813-.1875.375-.0781.1094-.1406.1953-.1875.2578-.0313.0625-.0625.125-.0938.1875-.0468.1407-.0703.2188-.0703.2344s-.0078.0313-.0234.0469c-.0781.1562-.1172.25-.1172.2812.0156.0157.0156.0391 0 .0704-.0781.1562-.125.2421-.1406.2578-.0313.2031-.0547.3281-.0703.375v.1172c-.0625.2343-.0938.3906-.0938.4687-.0156.0781-.0078.1953.0235.3516 0 .0625-.0079.125-.0235.1875 0 .0468.0078.1015.0235.164 0 .0625.0078.1172.0234.1641s.0312.1015.0469.1641l.0468.2578c.0625.1718.1016.2968.1172.375.0313.0625.0625.125.0938.1875.0781.1875.1172.289.1172.3047 0 .0156.0078.039.0234.0703.0313.0781.0859.1562.1641.2343.0312.0625.0547.1172.0703.1641.0312.0469.0625.1016.0937.1641.1094.1562.1641.2422.1641.2578.0156.0156.0312.0312.0469.0468.125.1563.1953.2422.2109.2579.0156 0 .0313.0156.0469.0468.0312.0469.0703.0938.1172.1407.0468.0468.0781.1015.0937.164l.2344.1875c.1094.1094.1641.1875.1641.2344.1406.1094.2187.1641.2343.1641.1407.0937.2266.1406.2578.1406.125.0937.1954.1562.211.1875.0156.0156.039.0312.0703.0469.0937.0625.1484.1093.1641.1406.0156.0312.0546.0469.1171.0469.0782.0781.1329.1328.1641.164.0313.0157.0625.0313.0938.0469.1875.125.3125.2031.375.2344.0781.0156.1328.0468.164.0937.0625.0157.1172.0313.1641.0469s.1015.0391.164.0703c.0938.0313.1641.0547.211.0703.0625.0156.1094.0313.1406.0469h.2578l.3047-.0937c.1406-.0782.2188-.1094.2344-.0938.0312 0 .0547-.0078.0703-.0234.0937-.0313.1562-.0469.1875-.0469.0312-.0156.0703-.0313.1172-.0469.125-.0625.1953-.1016.2109-.1172.0156-.0312.0391-.0547.0703-.0703.125-.0937.1875-.1406.1875-.1406 0-.0156.0078-.0235.0235-.0235.0468-.0624.0859-.1093.1172-.1406l.1406-.1406c.1094-.0938.164-.1406.164-.1406.0157 0 .0313-.0078.0469-.0235.1406-.1093.2266-.1875.2578-.2343.0469-.0469.1016-.0938.1641-.1407.0937-.0937.1719-.1562.2344-.1875l.1875-.1875c.0312-.0312.0625-.0703.0937-.1171.0469-.0626.086-.1172.1172-.1641.0625-.0469.1172-.0938.1641-.1406.0468-.0469.0859-.086.1172-.1172.0625-.1094.1015-.1875.1171-.2344.0313-.0469.0547-.1016.0704-.1641.0468-.0156.0859-.039.1171-.0703.0313-.0312.0625-.0625.0938-.0937.0156-.0469.0312-.086.0469-.1172.0156-.0469.0312-.0938.0468-.1406.0625-.125.1016-.2188.1172-.2813.0469-.1406.0703-.2578.0703-.3515l.0469-.3282c.0313-.0468.0547-.0859.0703-.1172.0313-.0468.0469-.0937.0469-.1406.0156-.0625.0156-.125 0-.1875 0-.0781.0078-.1562.0234-.2344.0469-.2031.0704-.3281.0704-.375 0-.0625 0-.1171 0-.164-.0313-.2344-.0469-.3985-.0469-.4922.0156-.0938.0156-.1797 0-.2578-.0156-.1719-.0391-.2813-.0703-.3281-.0157-.0626-.0313-.1172-.0469-.1641-.0469-.1875-.0703-.3203-.0703-.3985-.0625-.1562-.1094-.25-.1406-.2812.0156-.0781 0-.1484-.0469-.2109-.0469-.0782-.086-.1563-.1172-.2344-.0313-.1094-.0547-.1719-.0703-.1875 0-.0313 0-.0547 0-.0703-.0781-.0938-.125-.1485-.1406-.1641 0-.0312-.0157-.0703-.0469-.1172l-.1406-.2812c-.0938-.1719-.1407-.2735-.1407-.3047.0157-.0313.0078-.0625-.0234-.0938-.1094-.125-.1797-.1875-.2109-.1875l-.2344-.2812c-.1094-.1719-.1875-.2734-.2344-.3047-.0312-.0469-.0625-.0859-.0937-.1172-.1407-.1406-.2266-.2265-.2579-.2578-.0468-.0313-.0937-.0625-.1406-.0937-.0312-.0313-.0625-.0626-.0937-.0938-.1563-.125-.2578-.1953-.3047-.2109-.0469-.0157-.086-.0391-.1172-.0703-.1094-.1094-.1719-.1563-.1875-.1407-.0156 0-.0391-.0078-.0703-.0234-.1094-.0625-.211-.1094-.3047-.1406-.25-.0313-.4375-.0703-.5625-.1172-.1094-.0469-.2266-.0703-.3516-.0703zm16.336 1.7109c.1718 0 .289-.0313.3515-.0937.125-.0938.2032-.1485.2344-.1641.0313-.0156.0625-.0391.0938-.0703.1562-.1406.2656-.2578.3281-.3516.125-.125.1875-.1953.1875-.2109.1094-.1094.1797-.1797.2109-.211.0313-.0312.0625-.0625.0938-.0937.1093-.0469.1875-.0938.2343-.1406.0625-.0625.125-.1094.1875-.1407.1094-.0468.1875-.0859.2344-.1171.1719-.0626.2578-.0938.2578-.0938.0157-.0156.0313-.0234.0469-.0234.0313-.0313.0625-.0547.0938-.0704.0312-.0312.0703-.0624.1171-.0937.0938-.0156.1797-.0469.2579-.0937.1718-.0626.3046-.0938.3984-.0938.1875-.0781.2891-.1172.3047-.1172.0625-.0312.1172-.039.164-.0234.0469 0 .086-.0078.1172-.0235.1563.0157.25.0235.2813.0235h.3984c.0781-.0156.1406-.0156.1875 0 .0938.0156.1719.0547.2344.1172s.1406.0937.2344.0937c.0312.0469.0625.0859.0937.1172.0313.0313.0547.0781.0703.1406.125.1094.1797.1641.1641.1641 0 0 .0078.0078.0234.0234.0625.1719.0938.2656.0938.2813.0312.1719.0312.3359 0 .4922-.0156.0937-.0235.25-.0235.4687.0157.2188-.0156.3672-.0937.4453.0312.1563.0312.3203 0 .4922 0 .0781-.0078.1563-.0234.2344-.0157.0625-.0235.1328-.0235.2109v.2813c.0156.0937.0235.1875.0235.2812 0 .0625-.0079.125-.0235.1875s-.0312.1172-.0469.1641c-.0312.1562-.0546.2656-.0703.3281 0 .0469-.0078.0938-.0234.1406-.0781.2188-.1328.3516-.1641.3985-.0468.0469-.0937.0703-.1406.0703-.0312 0-.0703.0078-.1172.0234-.1719.0625-.2734.086-.3047.0703-.0156-.0156-.0468-.039-.0937-.0703-.0469.0156-.0938.0156-.1406 0-.0469-.0312-.0938-.0468-.1407-.0468-.2812.0156-.4531.0312-.5156.0468h-.2578c-.1406.0469-.2344.086-.2813.1172-.0468.0156-.0859.0391-.1171.0703-.1719.0313-.2735.0625-.3047.0938-.1094.0156-.1875.0312-.2344.0469-.0313.0156-.0625.0312-.0938.0468-.1718.0313-.2812.0469-.3281.0469-.1094.0469-.1953.1016-.2578.1641-.1719.0625-.2734.1093-.3047.1406-.0312.0312-.0703.0547-.1172.0703-.0312.0469-.0703.0859-.1172.1172-.0312.0156-.0625.0391-.0937.0703-.0938.0625-.1641.1172-.2109.1641-.1094.0781-.1875.1484-.2344.2109-.0469.0469-.0938.0859-.1406.1172-.0313.0312-.0704.0625-.1172.0937-.0313.0313-.0625.0625-.0938.0938-.0156.0625-.039.1094-.0703.1406-.0312.0313-.0625.0625-.0937.0938-.0782.1875-.1329.3125-.1641.375-.0313.0468-.0469.1093-.0469.1875-.0625.0625-.1094.1406-.1406.2343-.0156.0782-.0391.1719-.0703.2813-.0156.0781-.0313.164-.0469.2578-.0156.0781-.0234.1562-.0234.2344.0312.2031.0312.3359 0 .3984-.0157.1563-.0235.25-.0235.2813.0157.0312.0235.0625.0235.0937-.0157.1719-.0235.2891-.0235.3516.0157.0468.0235.1015.0235.164-.0313.2188-.0547.3594-.0703.4219 0 .0469-.0079.0938-.0235.1406v.1172c.0156.2344.0156.3985 0 .4922-.0156.0781-.0234.1641-.0234.2578v.211c.0156.0625.0234.1328.0234.2109 0 .375.0313.6641.0938.8672.0156.125.0312.2109.0468.2578.0157.0469.0235.0938.0235.1406.0312.125.0469.2344.0469.3282 0 .0937-.0079.1562-.0235.1874-.0156.1094-.0234.1954-.0234.2579-.0781.1406-.1172.2265-.1172.2578 0 .0312-.0078.0625-.0234.0937-.0313.0469-.0782.0938-.1407.1406-.0625.0313-.1093.0704-.1406.1172-.1094-.0156-.2344 0-.375.0469-.1094.0313-.1875.0391-.2344.0235-.0468 0-.0937.0078-.1406.0234-.0469 0-.0937 0-.1406 0-.0469.0156-.086.0234-.1172.0234-.1875.0156-.2891.0156-.3047 0 0 0-.0078 0-.0234 0-.1719 0-.2735-.0078-.3047-.0234-.0156 0-.0313 0-.0469 0l-.6328.0937c-.2344.0157-.3984.0235-.4922.0235-.0781.0156-.1562.0078-.2344-.0235-.2187-.0312-.375-.0625-.4687-.0937-.0781-.0313-.1563-.0469-.2344-.0469-.1094-.0937-.1953-.1641-.2578-.2109-.0625-.0625-.125-.1172-.1875-.1641-.0469-.1562-.0781-.25-.0938-.2812 0-.0313-.0078-.0625-.0234-.0938-.0625-.2187-.0937-.3359-.0937-.3515 0-.2032 0-.3672 0-.4922.0156-.1407.0312-.2578.0468-.3516.0157-.0625.0235-.1797.0235-.3516.0312-.1718.0468-.2656.0468-.2812 0-.0781 0-.1484 0-.211 0-.0624.0079-.1093.0235-.1406.0312-.2187.0469-.3437.0469-.375-.0157-.125-.0235-.1953-.0235-.2109.0156-.0313.0235-.0625.0235-.0938 0-.0781-.0079-.1718-.0235-.2812 0-.1094 0-.2188 0-.3281.0313-.1875.0391-.2891.0235-.3047 0-.0157.0078-.0391.0234-.0703 0-.0782.0078-.1485.0234-.211.0157-.0625.0078-.125-.0234-.1875 0-.1719 0-.2656 0-.2812.0156-.0313.0234-.0625.0234-.0938 0-.125 0-.2343 0-.3281.0157-.1094.0157-.2266 0-.3516 0-.0468-.0078-.0937-.0234-.1406 0-.0625 0-.125 0-.1875 0-.1406.0078-.2656.0234-.375.0157-.125.0157-.25 0-.375-.0156-.2031-.0312-.3672-.0468-.4922 0-.125.0078-.25.0234-.375-.0156-.1562-.0234-.2422-.0234-.2578-.0313-.1094-.0469-.1875-.0469-.2344.0156-.0625.0156-.1328 0-.2109 0-.1406-.0156-.2188-.0469-.2344-.0156-.0312-.0234-.0625-.0234-.0937.0156-.1407.0156-.2422 0-.3047-.0157-.0625-.0235-.125-.0235-.1875.0157-.0625.0235-.1094.0235-.1406.0156-.0469.0234-.0938.0234-.1407-.0156-.1406-.0234-.2187-.0234-.2343.0156-.0157.0234-.0313.0234-.0469l-.0234-.586c0-.1093 0-.1953 0-.2578 0-.0781-.0157-.1562-.0469-.2343-.0156-.0782-.0156-.1719 0-.2813.0156-.125.0156-.2031 0-.2344-.0156-.0468-.0234-.1015-.0234-.164.0156-.0782.0156-.1563 0-.2344-.0157-.0781-.0235-.1484-.0235-.2109 0-.0469 0-.0938 0-.1407.0156-.0625.0235-.1172.0235-.164 0-.0782-.0157-.1563-.0469-.2344-.0156-.0781-.0235-.1562-.0235-.2344.0625-.2344.1016-.375.1172-.4218.0157-.0626.0469-.125.0938-.1876.1406-.125.2109-.1953.2109-.2109s.0078-.0234.0235-.0234c.125-.0157.2109-.0157.2578 0 .0468 0 .0781-.0157.0937-.0469.0469.0312.0938.0391.1406.0234.0625-.0156.1172-.0234.1641-.0234.25-.0469.5313-.0469.8438 0 .1718.0312.2656.0469.2812.0469.0156-.0157.0313-.0235.0469-.0235h.2812c.0469-.0156.0938-.0234.1407-.0234.1093-.0156.1796-.0156.2109 0 .0469 0 .1016-.0078.1641-.0234.1875-.0313.2968-.0391.3281-.0235.0312 0 .0703-.0078.1172-.0234.0312 0 .0781.0078.1406.0234.0625 0 .1172-.0156.1641-.0469.125.0157.2343.0313.3281.0469.0937 0 .2109.0078.3515.0235.1094.1093.1875.164.2344.164.0469.0469.0781.1328.0938.2578.0468.1407.0625.2266.0468.2578 0 .0313.0079.0626.0235.0938 0 .0781.0156.1719.0469.2812.0312.1094.0468.2188.0468.3282v.2578zm14.039 12.2578c-.0781-.1875-.1328-.2969-.164-.3281-.0157-.0469-.0313-.1094-.0469-.1875l.0234-.3047c0-.0625-.0078-.1172-.0234-.1641-.0156-.0625-.0234-.1171-.0234-.164-.0313-.1719-.0625-.2891-.0938-.3516.0156-.0937.0234-.1562.0234-.1875 0-.0469-.0078-.0859-.0234-.1172l-.1406-.2344c-.125.1563-.1797.2344-.1641.2344-.125.0782-.1953.1328-.2109.1641-.0938.0937-.1485.1406-.1641.1406s-.039.0156-.0703.0469c-.1094.1562-.1953.2656-.2578.3281-.125.1406-.1875.2109-.1875.2109-.0781.0938-.1484.1563-.2109.1876-.0938.0937-.1485.1562-.1641.1874-.0156.0157-.0469.0391-.0938.0704-.1093.125-.1953.2031-.2578.2343-.1406.1563-.2265.2344-.2578.2344-.0312.0313-.0703.0547-.1172.0703-.0468.0313-.0859.0625-.1172.0938-.0468.0156-.1328.0234-.2578.0234-.1562 0-.2656 0-.3281 0-.1875-.0625-.2969-.1094-.3281-.1406-.1406-.0313-.2344-.0547-.2813-.0703-.0468-.0157-.0937-.0235-.1406-.0235-.1406-.1093-.2109-.164-.2109-.164-.125-.0313-.1953-.0469-.211-.0469-.0156-.0156-.0312-.0234-.0468-.0234-.1563-.0625-.2579-.1016-.3047-.1172-.0313-.0313-.086-.0469-.1641-.0469-.0937-.0625-.1484-.1016-.1641-.1172 0-.0312-.0078-.0547-.0234-.0703-.0937-.0625-.1719-.1016-.2344-.1172-.0312-.0781-.0781-.125-.1406-.1406-.0625-.0313-.125-.0703-.1875-.1172-.1094-.1094-.1719-.1641-.1875-.1641 0-.0156-.0156-.039-.0469-.0703l-.2109-.2109-.1875-.211c-.125-.1718-.2188-.3046-.2813-.3984-.1562-.1875-.2343-.2969-.2343-.3281-.2032-.1875-.3125-.2891-.3282-.3047-.0781-.0781-.1328-.1562-.164-.2344-.0781-.1094-.1328-.1953-.1641-.2578-.0625-.0469-.1015-.1172-.1172-.2109 0-.0938 0-.1875 0-.2813-.0312-.125-.0703-.2422-.1172-.3515-.0468-.1094-.0625-.1875-.0468-.2344.0156-.0469.0156-.1094 0-.1875.0468-.0781.0781-.1484.0937-.211.0313-.0624.086-.1093.1641-.1406.0625-.1562.1015-.2344.1172-.2344.0781-.1093.1328-.1874.164-.2343.0625-.1094.1016-.1719.1172-.1875.0313-.0313.0625-.0625.0938-.0938.0312-.0625.0937-.1406.1875-.2344.0625-.0468.1172-.1015.164-.164.0625-.0625.125-.125.1875-.1875.125-.1406.2422-.2656.3516-.375.125-.1406.1875-.2109.1875-.2109.0156 0 .0312-.0079.0469-.0235.1562-.125.2422-.2031.2578-.2344l.0937-.0937c.1407-.0938.2188-.1406.2344-.1406s.0391-.0078.0703-.0235c.1563-.0937.2422-.1484.2578-.164.125-.0782.1953-.1329.211-.1641.0312-.0312.0625-.0547.0937-.0703.1563-.0938.2656-.1563.3281-.1875.1407-.1094.211-.1641.211-.1641.0156 0 .0312-.0078.0469-.0234.1718-.0625.2734-.125.3046-.1875.1563-.0625.2813-.1172.375-.1641.0938-.0625.1954-.1093.3047-.1406.1719-.0781.2813-.1406.3282-.1875.1562-.125.2343-.2031.2343-.2344-.0625-.0468-.1328-.0625-.2109-.0468-.0625 0-.1406 0-.2344 0-.1406 0-.2422 0-.3047 0s-.125 0-.1875 0c-.0468 0-.1015.0078-.164.0234-.0469 0-.1016-.0078-.1641-.0234-.2031-.0313-.3359-.0391-.3984-.0235-.0469 0-.0938 0-.1407 0l-.3984.0235c-.0937-.0313-.1875-.0469-.2812-.0469-.0469.0156-.1016.0234-.1641.0234-.0625-.0156-.1172-.0234-.1641-.0234-.0937 0-.1953.0156-.3047.0469-.1093.0156-.2265.0234-.3515.0234-.0469.0156-.1016.0234-.1641.0234-.0469-.0156-.1015-.0234-.164-.0234-.2344 0-.4219 0-.5625 0-.125-.0156-.25-.0156-.375 0-.1875-.0156-.2891-.0313-.3047-.0469-.0157-.0312-.0391-.0625-.0703-.0937-.0782-.1719-.1172-.2657-.1172-.2813.0156-.0312.0234-.0625.0234-.0937.0313-.1563.0469-.25.0469-.2813.0156-.0312.0234-.0625.0234-.0937.0313-.1563.0547-.2344.0703-.2344.0157-.0156.0313-.0391.0469-.0703.0313-.1875.0625-.3203.0938-.3985.0312-.0937.0625-.1796.0937-.2578.0156-.0468.0234-.0859.0234-.1172 0-.0468.0157-.0937.0469-.1406.0625-.1562.0938-.3359.0938-.539.0312-.2032.0703-.3594.1172-.4688.0468-.125.0781-.2344.0937-.3281.0469-.1563.0703-.2657.0703-.3281l.0938-.2813c.1406-.1563.2265-.2734.2578-.3516.0469-.0312.0859-.0547.1172-.0703.0468-.0312.0937-.0625.1406-.0937.125-.0469.2344-.0781.3281-.0938.0938 0 .1485-.0078.1641-.0234.0312-.0156.0625-.0313.0937-.0469.1719.0156.2813.0156.3282 0 .0625-.0156.1328 0 .2109.0469.1094-.0313.1797-.0391.2109-.0235h.1407c.0937.0157.1953.0235.3046.0235h.3516.2578c.1875-.0313.2891-.0391.3047-.0235h.0938c.0312.0157.0937.0235.1875.0235.0937-.0156.1484-.0235.164-.0235h.3047c.1406 0 .2734-.0078.3984-.0234.1094-.0156.1797-.0156.211 0 .0312.0156.0625.0234.0937.0234h.3047c.1719-.0156.2656-.0156.2813 0h.0703l.2578-.0234c.1094 0 .1797.0078.2109.0234.0469.0157.086.0235.1172.0235.1094-.0156.1719-.0156.1875 0 .0313.0156.0625.0234.0938.0234.3281 0 .5547.0313.6797.0938.25.0781.4062.125.4687.1406.125.0937.1875.1406.1875.1406.0156-.0156.0313-.0156.0469 0 .0937.0938.164.1485.2109.1641.0469 0 .086.0156.1172.0469.0938.0937.1641.164.2109.2109.1407.1094.2266.1719.2579.1875.1093.125.1953.2187.2578.2813.0781.0624.1328.1093.164.1406.0313.0156.0625.039.0938.0703.1562.0937.2422.1641.2578.2109.0156.0469.0547.0782.1172.0938.0469.125.0703.2109.0703.2578.0156.0469.0547.0781.1172.0937.0156.0469.0312.0938.0469.1407.0156.0468.039.1015.0703.164.0468.0782.0625.1406.0468.1875 0 .0313.0079.0625.0235.0938.0156.0781.0312.1406.0469.1875.0312.0312.0546.0625.0703.0937.0625.2344.1093.3985.1406.4922.0312.0781.0625.1563.0937.2344.0313.0625.0469.125.0469.1875.0156.0469.0391.1094.0703.1875.0938.25.1563.4453.1875.5859.0469.125.086.2656.1172.4219.0313.0937.0547.1953.0703.3047.0313.1094.0547.2031.0703.2812.0157.1719.0391.3047.0704.3985l.0703.4219c.0312.125.0547.2421.0703.3515.0312.1094.0469.2266.0469.3516.0625.2187.1171.3672.164.4453.0156.1406.0313.2266.0469.2578.0312.0781.0469.1406.0469.1875 0 .0313.0078.0625.0234.0937.0625.2032.0859.3282.0703.375 0 .0469.0078.0938.0235.1407.0312.1093.039.1797.0234.2109v.0469c.0156.0625.0312.1172.0469.1641.0312.0312.0468.0781.0468.1406-.0156.1094-.0156.1875 0 .2344.0313.0468.0547.0937.0704.1406 0 .0937.0078.1562.0234.1875.0156.0156.0312.0469.0469.0937l.0234.3985c.0313.0781.0469.1718.0469.2812 0 .0938.0078.1875.0234.2813.0313.1718.0547.3125.0703.4218.0157.1094.0391.211.0703.3047.0157.0625.0235.1172.0235.1641 0 .0312.0156.0625.0469.0937.0625.1407.0937.2344.0937.2813v.1172c0 .0937-.0078.1875-.0234.2812-.0157.0938-.0391.1797-.0703.2578-.0469.1719-.0704.2813-.0704.3282-.1406.1093-.2187.1718-.2343.1875-.0157 0-.0547.0078-.1172.0234s-.1719.0391-.3281.0703c-.2032.0313-.3204.0547-.3516.0703-.0313 0-.0625.0078-.0938.0235-.1562 0-.2343 0-.2343 0 0-.0157-.0078-.0235-.0235-.0235-.125.0157-.1953.0235-.2109.0235-.0156-.0157-.0391-.0235-.0703-.0235-.2188 0-.3516.0078-.3985.0235-.1093 0-.2031.0078-.2812.0234-.0781 0-.1563 0-.2344 0-.1562.0156-.2656.0391-.3281.0703-.1563.0313-.25.0469-.2813.0469-.1875.0312-.3281.039-.4218.0234-.0938 0-.1953.0078-.3047.0235-.1719.0156-.2656.0234-.2813.0234-.0781.0156-.1718.0078-.2812-.0234-.0938-.0313-.1875-.0625-.2813-.0938zm-.3984-3.3281c-.0156-.2188-.0313-.375-.0469-.4688-.0156-.1093-.0312-.1875-.0469-.2343-.0312-.1407-.0468-.2344-.0468-.2813.0156-.0469.0156-.0859 0-.1172-.0469-.2656-.0703-.4453-.0703-.539 0-.0938-.0157-.1875-.0469-.2813-.0313-.125-.0547-.2031-.0703-.2344-.0157-.0468-.0313-.0859-.0469-.1171-.1094-.0938-.1797-.1329-.2109-.1172-.0313.0156-.0547.039-.0704.0703-.1406.0937-.2187.1484-.2343.164-.1407.0782-.2266.1329-.2578.1641-.0782.0625-.125.1016-.1407.1172-.0156.0156-.039.039-.0703.0703-.1562.125-.2344.1875-.2344.1875 0-.0156-.0078-.0156-.0234 0-.1562.1094-.25.1875-.2812.2344-.0313.0312-.0704.0625-.1172.0937-.0313.0781-.0703.1407-.1172.1875-.0313.0469-.0625.0938-.0938.1406.0313.0626.0469.1172.0469.1641 0 .0313-.0156.0859-.0469.1641.1094.125.1875.1875.2344.1875.0781.0469.1328.0703.1641.0703.0312 0 .0625.0078.0937.0234.0938.0625.1485.1094.1641.1406.0156.0157.0312.0235.0469.0235.1406.0625.2265.0937.2578.0937.0468 0 .1015.0078.164.0235.1094.0312.1875.0547.2344.0703.0625 0 .1094.0078.1406.0234.1719.0938.3125.1563.4219.1875.125.0157.2266.0078.3047-.0234zm11.0859-8.2734c.1407-.1094.2188-.1563.2344-.1407.0156 0 .0234-.0078.0234-.0234.125-.1094.2032-.1797.2344-.2109.0938-.0469.1485-.0782.1641-.0938.0312-.0156.0625-.0312.0937-.0469l.3282-.2343c.0625-.0313.1093-.0704.1406-.1172.0469-.0625.0937-.125.1406-.1875.1719-.0938.2656-.1485.2813-.1641.0625-.0625.1171-.1016.164-.1172s.086-.039.1172-.0703c.2031-.1719.3672-.2813.4922-.3281.0625-.0782.1328-.1328.2109-.1641.0782-.0469.1485-.1094.211-.1875.1093-.0312.1875-.0703.2343-.1172.0782-.0625.1329-.1015.1641-.1172.0469-.0312.0938-.0546.1406-.0703.1875-.0156.2891-.0234.3047-.0234.125.0156.211.0234.2578.0234.1094.0938.1719.1407.1875.1407.0313 0 .0625.0156.0938.0468.0312.0313.0703.0625.1172.0938.0468.0156.0859.039.1172.0703l.2111.1641c.14.0781.211.125.211.1406 0 0 .008.0078.023.0234.094.0781.164.1328.211.1641.047.0312.078.0703.094.1172.109.0468.195.1093.258.1875.078.0625.156.1328.234.2109.172.1094.281.1797.328.2109.047.0313.086.0625.117.0938.125.0469.219.125.282.2344.062.1093.156.1953.281.2578.125.125.187.1875.187.1875.032.0469.063.1015.094.164.047.0625.086.1172.117.1641.125.1406.196.2266.211.2578.016.0156.039.0391.071.0703.078.0938.148.1875.21.2813.063.125.118.2578.165.3984.062.1406.132.2734.21.3984-.031.125-.023.2579.024.3985l.023.2578c0 .1094.008.1875.024.2344.015.0469.023.0859.023.1172.031.0468.031.0937 0 .1406-.015.0469-.023.1015-.023.1641.015.1874.015.3124 0 .375v.1406.1172c.015.0468.015.1015 0 .164-.031.2032-.055.3438-.071.4219 0 .0625.008.1484.024.2578 0 .1719-.016.2969-.047.375-.016.0625-.023.1328-.023.2109.015.1876.023.3047.023.3516.016.0313.023.0625.023.0938l-.023.5625c.016.1562.016.2343 0 .2343v.0235c.016.125.016.1953 0 .2109v.0469.1406c.016.0469.023.0938.023.1406v.211c.016.0156.024.0312.024.0469-.047.1406-.07.2187-.07.2343.015.0157.023.0391.023.0703v.1875c.016.0469.023.1016.023.1641 0 .0781-.007.1562-.023.2344v.2344.2578c.047.2343.07.4296.07.5859s.008.3125.024.4687v.2344c.015.0156.023.0391.023.0703.016.1719.024.3438.024.5157v.4922c0 .0468.007.0937.023.1406.016.0468.016.0937 0 .1406s-.031.0859-.047.1172c-.015.0156-.039.0547-.07.1172-.313.125-.508.1953-.586.2109-.078.0313-.172.0313-.281 0-.078 0-.18-.0078-.305-.0234-.109 0-.203.0078-.281.0234-.172-.0156-.289-.0234-.352-.0234-.047.0156-.101.0234-.164.0234h-.398c-.078 0-.157 0-.235 0-.062.0156-.125.0156-.187 0-.156-.0469-.242-.0703-.258-.0703-.031 0-.07 0-.117 0-.047.0156-.11.0234-.188.0234-.1871-.0156-.2965-.0156-.3278 0-.0156.0157-.039.0157-.0703 0-.0312.0313-.0781.0469-.1406.0469s-.1328 0-.2109 0c-.1407.0313-.25.0235-.3282-.0234-.1406-.125-.2422-.211-.3047-.2578 0-.0782-.0078-.1563-.0234-.2344s-.0234-.1641-.0234-.2578l.0468-.3047.0235-.2578c.0156-.0313.0234-.0703.0234-.1172.0156-.0469.0391-.1094.0703-.1875.0157-.0469.0235-.0859.0235-.1172.0156-.0469.0312-.1094.0468-.1875 0-.1875.0079-.3203.0235-.3984.0156-.0938.0234-.1797.0234-.2578-.0156-.2032-.0078-.336.0235-.3985 0-.1719.0078-.2656.0234-.2812-.0156-.1563-.0156-.25 0-.2813.0156-.0312.0234-.0625.0234-.0937 0-.1875 0-.2891 0-.3047.0157-.0156.0235-.0313.0235-.0469-.0313-.1719-.0469-.2656-.0469-.2813.0156-.0156.0234-.0312.0234-.0468 0-.0469-.0078-.0938-.0234-.1406 0-.0626 0-.1329 0-.211v-.3047c-.0156-.1719-.0234-.3047-.0234-.3984-.0313-.1875-.0469-.3125-.0469-.375.0156-.0625.0234-.1172.0234-.1641 0-.2187 0-.3828 0-.4922 0-.125-.0156-.2265-.0469-.3046.0313-.0313.0391-.0782.0235-.1407 0-.0625 0-.1172 0-.164.0156-.1563.0078-.2735-.0235-.3516-.0156-.0937-.0078-.1719.0235-.2344-.0156-.1406-.0313-.2422-.0469-.3047 0-.0625-.0312-.1093-.0937-.1406-.1407-.125-.211-.2031-.211-.2344-.2031-.0156-.375.0157-.5156.0938-.1094.1406-.1719.2109-.1875.2109-.1094.1563-.1953.2578-.2578.3047-.0469.0469-.0938.1016-.1406.1641-.125.1562-.2032.25-.2344.2812-.1719.0938-.2969.1719-.375.2344-.0625.0625-.1406.0859-.2344.0703-.0781 0-.1484-.0234-.2109-.0703-.0469-.0625-.1094-.1094-.1875-.1406-.0313-.0781-.0703-.1407-.1172-.1875-.0469-.0469-.086-.1094-.1172-.1875-.1094-.1563-.1641-.2344-.1641-.2344.0157 0 .0157-.0078 0-.0234-.0781-.1407-.164-.2735-.2578-.3985-.0312.0313-.0469.0703-.0469.1172v.1406.2813.5156c0 .0781-.0078.1641-.0234.2578v.2813.5859c.0156.1875.0234.3828.0234.5859.0313.0782.0469.1641.0469.2579v.2578l.0235.2578v.1641c.0156.0312.0234.0624.0234.0937.0156.1719.0156.2734 0 .3047-.0156.0312-.0234.0625-.0234.0937 0 .0938.0156.2188.0468.375-.0156.0625-.0234.1329-.0234.211.0156.0781.0234.1484.0234.2109.0157.0469.0157.0938 0 .1406v.1407c.0157.1562.0313.2656.0469.3281.0156.0469.0234.0859.0234.1172.0313.2812.0469.4609.0469.539.0156.0469.0156.1016 0 .1641 0 .0469.0078.0937.0235.1406.0312.1563.039.2422.0234.2578v.0703l.0703.3516c-.0156.1563-.0234.2422-.0234.2578.0156.0156.0234.0391.0234.0703-.0469.1719-.0703.2969-.0703.375 0 .0782-.0234.1329-.0703.1641-.1563.0156-.2735.0234-.3516.0234-.0781.0157-.1484.0391-.2109.0704-.2656.0312-.4766.0234-.6328-.0235-.1563-.0312-.2422-.0469-.2578-.0469-.0157.0157-.0391.0235-.0704.0235-.0625 0-.1093-.0078-.1406-.0235-.0312 0-.0781 0-.1406 0-.1875-.0156-.3047-.0234-.3516-.0234-.0312 0-.0703-.0078-.1172-.0234-.0781 0-.164 0-.2578 0-.0781-.0157-.1562-.0313-.2343-.0469-.1875-.0469-.3594-.0547-.5157-.0235-.1406.0313-.25.0547-.3281.0704-.1094 0-.1797 0-.2109 0-.0157-.0157-.0391-.0157-.0703 0-.0469 0-.0938.0078-.1407.0234-.0312 0-.0781-.0078-.1406-.0234-.125 0-.2266.0156-.3047.0468-.1719-.0625-.2656-.0937-.2812-.0937 0 0-.0078-.0156-.0235-.0469-.0468-.0781-.0859-.1328-.1172-.164-.0156-.0313-.0234-.0704-.0234-.1172.0156-.25.0156-.4297 0-.5391 0-.125.0078-.2422.0234-.3516 0-.1875 0-.3047 0-.3515.0157-.0625.0313-.1172.0469-.1641.0313-.2812.0625-.4609.0938-.5391.0156-.2031.0156-.3359 0-.3984-.0157-.0625-.0157-.125 0-.1875 0-.1719.0078-.2656.0234-.2812.0156-.0313.0234-.0625.0234-.0938l-.0234-.3047c0-.0937 0-.1797 0-.2578s-.0156-.1484-.0469-.2109c.0157-.1719.0078-.2891-.0234-.3516-.0156-.0781-.0078-.125.0234-.1406.0157-.1406.0235-.2188.0235-.2344s-.0078-.0391-.0235-.0703c0-.0469 0-.0938 0-.1406.0157-.0469.0235-.086.0235-.1172 0-.0625-.0078-.1094-.0235-.1406-.0156-.0469-.0078-.0938.0235-.1407 0-.1562 0-.2734 0-.3515 0-.0938 0-.1797 0-.2578 0-.0782-.0078-.1485-.0235-.211-.0156-.0625-.0234-.1172-.0234-.164.0156-.2032.0078-.336-.0234-.3985.0156-.0625.0234-.1172.0234-.164 0-.0625.0078-.125.0234-.1875v-.2813-.4922c0-.125-.0078-.2109-.0234-.2578 0-.0625 0-.1172 0-.1641-.0313-.1562-.0469-.2812-.0469-.375 0-.1093 0-.2031 0-.2812.0156-.125.0156-.2031 0-.2344-.0156-.0468 0-.0625.0469-.0468-.0156-.25-.0391-.4219-.0703-.5157-.0156-.0937-.0078-.1797.0234-.2578-.0156-.0312-.0312-.0703-.0469-.1172-.0156-.0469-.0234-.1015-.0234-.164.0156-.1407.0156-.2266 0-.2579-.0156-.0312-.0234-.0624-.0234-.0937 0-.2031 0-.3594 0-.4687-.0157-.1719-.0235-.2813-.0235-.3282.0157-.0625.0235-.125.0235-.1875v-.3515c-.0157-.125-.0235-.2188-.0235-.2813-.0312-.1875-.0468-.3047-.0468-.3515 0-.0469-.0079-.0938-.0235-.1407l-.0234-.3281c-.0156-.1406-.0156-.2969 0-.4688.1406-.1718.2031-.2578.1875-.2578.1875-.0781.3047-.1172.3515-.1172.1875.0157.3047.0157.3516 0 .0469-.0156.1016-.0312.1641-.0468.125 0 .2031-.0078.2343-.0235.0313-.0156.0625-.0234.0938-.0234.0469-.0156.0937-.0156.1406 0 .0625.0156.1094.0078.1406-.0234.2188.0156.375.0234.4688.0234.0937 0 .1797-.0156.2578-.0469.0469-.0156.1094-.0156.1875 0s.1406.0469.1875.0938c.0781-.0313.1484-.0391.2109-.0235h.1875c.1719.0313.3125.0469.4219.0469.125-.0156.2344-.0078.3281.0234.0782-.0312.1719-.039.2813-.0234s.2031 0 .2812-.0469l.2813.0703c.1562.1563.2656.2969.3281.4219.0625.1094.0469.2188-.0469.3281-.0312.1407-.0546.2813-.0703.4219-.0156.125-.039.2657-.0703.4219-.0156.1875-.0312.2969-.0469.3281 0 .0313-.0078.0625-.0234.0938-.0156.0781-.0234.1484-.0234.2109.0156.0625.0078.1328-.0235.211z" fill="#693821"/></svg>