<svg fill="none" height="70" viewBox="0 0 144 70" width="144" xmlns="http://www.w3.org/2000/svg" xmlns:xlink="http://www.w3.org/1999/xlink"><linearGradient id="a"><stop offset="0" stop-color="#cf5c2b"/><stop offset="1" stop-color="#59173e"/></linearGradient><linearGradient id="b" gradientUnits="userSpaceOnUse" x1="110.416" x2="69.6512" xlink:href="#a" y1="-103.532" y2="-21.3576"/><linearGradient id="c" gradientUnits="userSpaceOnUse" x1="81.9427" x2="42.3236" xlink:href="#a" y1="-30.9254" y2="125.593"/><linearGradient id="d" gradientUnits="userSpaceOnUse" x1="81.5731" x2="30.8552" xlink:href="#a" y1="-25.9304" y2="168.08"/><linearGradient id="e" gradientUnits="userSpaceOnUse" x1="75.7317" x2="72.2793" xlink:href="#a" y1="88.1012" y2="44.3019"/><linearGradient id="f" gradientUnits="userSpaceOnUse" x1="121.974" x2="108.968" xlink:href="#a" y1="16.5635" y2="42.6071"/><linearGradient id="g" gradientUnits="userSpaceOnUse" x1="148.799" x2="39.2162" xlink:href="#a" y1="-64.9342" y2="125.531"/><linearGradient id="h" gradientUnits="userSpaceOnUse" x1="109.369" x2="101.165" xlink:href="#a" y1="14.3183" y2="30.745"/><linearGradient id="i" gradientUnits="userSpaceOnUse" x1="126.29" x2="57.1709" xlink:href="#a" y1="-37.0857" y2="83.0493"/><linearGradient id="j" gradientUnits="userSpaceOnUse" x1="27.6434" x2="19.44" xlink:href="#a" y1="28.6854" y2="45.1122"/><linearGradient id="k" gradientUnits="userSpaceOnUse" x1="44.5652" x2="-24.554" xlink:href="#a" y1="-22.7174" y2="97.4182"/><path d="m143.896 55.7615c-.074-1.446-.148-2.892-.212-4.338-.064-1.5169-.138-3.048-.202-4.5649-.042-1.0349-.106-2.1406-.127-3.218-.021-.8932.255-2.3675-.106-3.1756-.213-.482-.68-.6237-1.094-.723-.542-.1276-1.083-.2551-1.625-.3827.733-.2269 1.444-.5104 2.145-.8648.16-.0851.319-.1701.425-.3402.096-.156.127-.3686.149-.5529.244-1.9847.085-4.0828.085-6.0959-.011-2.0414-.011-4.097-.022-6.1384-.01-1.9422-.01-3.8985-.021-5.8407 0-.638.202-2.0414-.042-2.6085-.191-.4678-.648-.4395-.998-.4962-.361-.0567-.723-.0567-1.084-.0283-.541.0425-1.072.1559-1.603.2693.701-.2552 1.423-.3827 2.124-.6096.456-.1417.902-.3402 1.327-.6379.255-.1843.531-.3402.68-.6947.063-.1417.085-.326.117-.4961.063-.3544.074-.723.095-1.0916.043-1.0065.074-2.0131.085-3.0338.011-.51034.011-1.02069 0-1.53105 0-.32606-.096-.63794-.117-.97817-.095-1.37512-.509-2.69353-1.168-3.75677-.658-1.04906-1.561-1.81459-2.559-2.169-.372-.12759-.743-.19847-1.126-.22683-44.8957-1.885467-88.8999-1.95635-131.94844.02836-.1699.01417-.35042-.01418-.52032.04253-.1699.07088-.3398.15594-.52032.241-.35042.17012-.70084.34023-1.04064.56706-.65837.42529-1.27426.99235-1.69901 1.78623-.24423.46783-.41413.99236-.63712 1.46018-.11681.241-.26547.42529-.36104.68047-.45661 1.21918-.91322 2.45253-1.550344 3.52994-.615889 1.04905-.7964078 2.72185-.7326951 4.01195.0955691 1.7579.1274251 3.5299.2442321 5.2878.191138 2.7928.010618 5.5856.244232 8.4067.031856.3969.08495.8506.307944 1.1057.159282.1843.371661.2552.573411.3119.65837.1985 1.32735.3828 1.98571.5813-.81764.7088-2.0388.7655-2.474171 1.928-.138044.3827-.159281.808-.180519 1.2333-.074331 1.5027-.180519 2.9913-.254851 4.4798-.031856.6663-.063712 1.3468-.074331 2.013-.021238.638-.053094 1.2618-.106188 1.8997-.106188 1.4885-.392894 3.4165-.053094 4.8767.329182 1.4035 1.645914 1.4602 2.548504 1.8004-.47784.0709-.83888.5954-1.12559 1.12-.13804.2693-.24423.5387-.37165.808-.11681.241-.223.482-.318568.7372-.191138.5103-.35042 1.0349-.467226 1.5878-.074332.3686-.116807.6521-.127426 1.0348-.010618.3403-.021237.6805-.031856 1.0207-.021237.6805-.031856 1.361-.042475 2.0415-.021238 1.3609-.031856 2.7218-.021238 4.0828.010619 1.3184-.2229938 2.5943.191138 3.8843.414133 1.2901 1.125591 2.3959 2.017571 3.1189.72207.5954 1.53972.9073 2.38922.964 43.29275 2.5376 87.30755 2.5092 132.00215-.0142 1.179-.0709 2.315-.6947 3.185-1.7721.415-.5103.786-.964 1.094-1.6161.382-.7797.733-1.5878 1.062-2.41.807-1.9989 1.816-4.2246 1.688-6.5353z" fill="url(#b)"/><path d="m138.99 63.0065c-44.7048 2.5092-88.709 2.5517-132.00175.0141-1.922 0-3.71657-1.8429-4.43865-4.1537-.31856-1.0349-.38228-2.1548-.3398-3.2606.01062-.1984.02124-.3827.06371-.5812.06372-.2977.1699-.5529.19114-.8648.01062-.1701.03186-.3119.04248-.482.07433-.8789.09556-1.772.14866-2.651.03185-.4961.07433-1.0065.18052-1.4885.1168-.5529.30794-1.0491.63712-1.3893 1.42292-1.4318 4.21566-1.4035 6.28632-1.4602.40355-.0142.77515-.0283 1.11495-.0567.9026-.0709 1.8052-.0992 2.7078-.0992-2.145-.0142-4.27936-.2552-6.3925-.7514-.99816-.2268-1.99632-.5103-2.98387-.8506-.23361-.0708-.48846-.1843-.71146-.326-.30794-.1843-.57341-.4537-.71146-.8506-.1168-.3402-.10618-.7372-.10618-1.0916.01061-.3544-.03186-.723-.01062-1.0774.02123-.7655.09557-1.5027.14866-2.2541.05309-.6096.10619-1.2192.13804-1.8429.07434-1.6303.14867-3.2606.24424-4.8909.03185-.4962.07433-1.0349.32918-1.3751.15928-.2127.36104-.3119.56279-.4111.55218-.2694 1.11497-.4679 1.68839-.5955.29732-.0708.59465-.0708.8495-.1559.30794-.1276.54156-.2126.87074-.2552 3.15375-.4961 6.30755-.9781 9.47195-1.4743.3717-.0567.7539-.1134 1.1362-.1701-4.7572-.7656-9.52504-1.5595-14.28225-2.325-.21237-.0425-.41413-.0709-.6265-.0992-.19114-.0284-.3929-.0709-.52032-.2552-.01062-.0142-.02124-.0284-.03186-.0425-.09557-.1701-.10619-.3686-.12743-.5813-.21237-3.4307.03186-6.9748-.1168-10.448-.01062-.1985-.0531-1.1625-.09557-2.2683-.0531-1.6019-.13805-3.43068-.1699-3.43068-.20176-3.81347 1.98571-7.10242 4.85278-7.23001 43.03785-1.998879 87.04205-1.927997 131.90675 0 2.877.12759 5.086 3.43071 4.863 7.27254-.074 1.30425.117 2.56595-.127 3.88435-.053.3119-.128.6238-.308.8364-.16.1843-.372.2552-.574.3119-.541.1701-1.083.3544-1.624.5245-.722.2269-1.434.4395-2.167.5529-4.332.6096-8.643 1.2334-12.965 1.8571-.117.0142-.234.0284-.351.0426-.138.0141-.276.0425-.414.0567.351-.0142.691-.0142 1.03-.0142 5.416-.1276 10.842-.241 16.268-.3686.149 0 .319 0 .436.1276.138.1418.17.3828.191.6096.032.3119.032.6096.032.8931-.011.9215-.128 1.8004-.128 2.7361 0 .8222.149 1.6303.149 2.4808-.011 1.2192-.043 2.4384-.074 3.6718-.085 2.7785-.234 5.5997-.457 8.3924-.032.4112-.074.8364-.276 1.1342-.159.2268-.393.3544-.616.4536-.138.0709-.276.1276-.425.1701-3.185 1.2192-6.668.2552-9.939 1.0065-.212.0426-.435.0993-.637.1702-.074.0141-.149.0425-.212.0708.265.0284.53.0426.796.0851 3.578.3402 7.146.8222 10.704 1.4318.414.0709.881.1701 1.125.6238.191.3402.191.8081.191 1.2334v1.4034c0 1.4177 0 2.8353.053 4.253.064 1.8713.149 3.7426.245 5.628.042.9215.085 1.843.138 2.7503.191 3.7993-1.986 7.074-4.832 7.2442z" fill="url(#c)"/><path d="m143.206 23.2958c-.01 1.2192-.042 2.4384-.074 3.6717-1.837.2269-3.631.4112-5.394.6805-.414.0567-.818.1134-1.232.1843-1.518.2127-3.037.4111-4.555.5812-.754.0851-1.519.1702-2.283.2552-.489.0567-.924.3119-1.392.3828-.658.0992-1.38-.1276-2.049-.1843-.743-.0567-1.487-.0851-2.23-.0709-1.487.0284-2.984.1701-4.46.397-2.973.4536-5.904 1.205-8.856 1.8571-4.725 1.049-9.472 1.8571-14.2503 2.3816 2.6016.3403 5.1823.9073 7.7203 1.687-.956.0993-1.912.1985-2.867.2694-3.0375.2552-6.0744.3827-9.1114.4536s-6.0846.0709-9.1215.0567c-3.037 0-6.0846-.0141-9.1215.0142-3.037.0425-6.074.1276-9.111.3119-1.5184.0992-3.0369.2126-4.5448.3686-.3823.0425-.7539.085-1.1362.1276-.4566.0567-.9026.2268-1.3698.2977-3.621.567-7.242 1.2759-10.8206 2.2115-5.5642 1.4602-11.1603 2.892-16.8201 3.4024-1.0194.085-2.0494.1701-3.0688.2551-4.874 1.3043-10.141 1.5736-14.9194 2.3533-1.6247.2694-3.28121.4112-4.93774.4962-.99816-.2268-1.99633-.5103-2.98387-.8506-.23362-.0709-.48847-.1843-.71146-.326-.30795-.1843-.57342-.4537-.71146-.8506-.11681-.3403-.10619-.7372-.10619-1.0916.01062-.3544-.03185-.723-.01062-1.0774.02124-.7656.09557-1.5027.14867-2.2541 4.37493-.482 8.86667-2.169 13.07167-2.9912 5.405-1.0349 10.9161-1.6445 16.3636-2.0556 6.1695-.4537 12.3284.5245 18.4766.5245 5.7023 0 11.3834-.6663 17.0538-1.2759 11.0541-1.1908 22.0871-2.4241 33.1201-3.7-2.4-.0567-4.7998-.1418-7.1997-.2552-3.0582-.1418-6.1164-.3261-9.1746-.5387-.7115-.0425-1.4441-.1701-2.145-.0709-.7327.1134-1.476.1418-2.2087.1276-1.4548-.0284-2.9095-.2694-4.3218-.7372-.8283-.2693-1.6566-.6238-2.4954-.8222-1.423-.3261-2.8777-.2268-4.3325-.2552-5.405-.0992-10.725-1.9989-16.1299-1.928-1.4229.0142-2.8352.1701-4.2475.3402-1.4973.1843-3.0052.3686-4.513.4253-.669.0284-1.3592.0851-2.007-.1134-.499-.1559-1.0725-.085-1.5822-.0992-.9132-.0284-1.8264-.0567-2.7396-.0851-1.8264-.0567-3.6529-.085-5.4899-.0992-6.9341-.0425-13.8469.4678-20.781.3969-2.95198-.0283-5.96771-.1134-8.88787-.6804-.01062-.0142-.02124-.0284-.03186-.0426-.09557-.1701-.10619-.3686-.12743-.5812-.21237-3.4307.03186-6.9748-.1168-10.4481-.01062-.1984-.0531-1.1624-.09557-2.2682 3.53605-.4111 7.09334-.5104 10.62943-.8506 6.9234-.6805 13.8468-.9782 20.8021-.9357 13.7726.0851 27.5133 1.2618 41.2434 2.6511 13.7407 1.3892 27.4494 3.1046 41.1904 4.4088 6.944.6522 13.9 1.0633 20.855 1.0633 2.039 0 4.099-.1701 6.159-.3686-.011.9215-.127 1.8004-.127 2.736.031.8932.18 1.7012.169 2.5376zm.223 24.0859c-.053-1.4177-.053-2.8353-.053-4.253-4.385-.6379-8.781-1.29-13.188-1.7011-7.561-.6947-15.164-.5813-22.735-.1702-1.572.0851-3.122.1418-4.683.397-.754.1276-1.508.2552-2.262.3686-3.026.482-6.0524.8647-9.0893 1.1766-1.1787.1134-2.368.2268-3.5573.3261 3.0688-.0284 6.1376-.0567 9.2065-.0851 3.0691-.0283 6.1381-.0567 9.2061-.085 1.529-.0142 3.069-.0284 4.598-.0426.765-.0141 1.529-.0141 2.305-.0283.318 0 .658.0283.976-.0709.192-.0567.383-.1559.574-.1985.69-.1417 1.455.0426 2.145.0993.764.0567 1.518.1134 2.283.1701 1.518.1276 3.048.2693 4.566.4111 2.4.241 4.789.5104 7.178.7939 2.613.3119 5.203.723 7.805 1.1483-5.904.7513-11.797 1.531-17.712 1.9705-13.613 1.0065-27.2266 2.2682-40.8611 1.8997-13.4434-.3403-26.8549-1.3752-40.3089-1.3043-7.0933.0284-14.176.1843-21.2481.4678-5.2245.1985-10.51262.1702-15.72644.879-.10618.4678-.14866.9923-.18052 1.4885-.05309.879-.07433 1.7721-.14866 2.651 5.80847.3119 11.68062-.2126 17.47852-.2268 7.0827-.0142 14.1654.0709 21.2482.2977 13.4221.4253 26.8336 1.4177 40.2451 1.7295 13.6558.3261 27.2799-.9781 40.9039-1.8996 7.029-.4678 14.101-.482 21.131-.5812h.149c-.096-1.8855-.181-3.7426-.245-5.6281z" fill="url(#d)"/><g fill="#eb924d"><path d="m3.36667 42.5207c-.01062.7089-.01062 1.4319.15928 2.0982-.30794-.1843-.57341-.4537-.71146-.8506-.1168-.3403-.10619-.7372-.10619-1.0916.01062-.3544-.03185-.723-.01061-1.0774.04247-1.3752.23361-2.7219.2867-4.097.07433-1.6303.14867-3.2606.24423-4.8909.03186-.4962.07434-1.0349.32919-1.3751.15928-.2127.36103-.3119.56279-.4112.55218-.2693 1.11497-.4678 1.68839-.5954.26547-.085.56279-.085.81764-.1701.30795-.1276.54156-.2126.87074-.2552 3.15373-.4961 6.30753-.9781 9.47193-1.4743-3.3874.9214-6.7748 1.8146-10.17277 2.736-.65836.1702-1.53972.1702-2.0919.7514-.1168.1134-.21237.2552-.30794.3969-.08495.1276-.15928.2694-.25485.397-.18052.2126-.24423.5529-.32918.8506-.223.8647-.35042 1.772-.38228 2.6793-.01062.3403-.01062.6947-.04247 1.0349-.01062.0851-.02124.1701-.03186.2552-.01062.0992-.05309.1701-.07433.2693-.1699.6947-.14866 1.4602-.07433 2.169.03185.2552.09557.5104.13804.7656.10619.6096.03186 1.2617.02124 1.8854z"/><path d="m125.653 16.7769c-.191-.0142-.382-.0283-.573-.0425h.913c-.106 0-.223.0283-.34.0425z"/><path d="m128.778 37.8008c.881.1134 1.763.2268 2.644.3119-.212.0425-.435.0992-.637.1701-.68-.1701-1.359-.3403-2.007-.482z"/><path d="m141.753 36.0563c.138-.7372.106-1.5027.053-2.2541-.074-1.3893-.159-2.7927-.234-4.182-.01-.2694-.042-.5671-.201-.7372-.128-.1418-.308-.1418-.468-.1276-1.316.0567-2.623.1134-3.918.1701 1.412-.1701 2.814-.6663 4.088-1.4885.372-.241.754-.5387.892-1.0349.075-.2552.074-.5387.074-.8222-.021-2.1974-.307-4.6499-.509-6.8331-.616-.7797-1.54-.8789-2.389-.9498-3.42-.2835-6.85-.5529-10.258-.8364-.818-.0709-1.731-.1134-2.602-.1701 5.416-.1276 10.842-.241 16.268-.3686.149 0 .319 0 .436.1276.138.1417.169.3827.191.6096.117 1.2475-.106 2.3958-.106 3.6291 0 .8223.148 1.6303.148 2.4809-.053 3.9411-.212 8.0523-.541 12.0642-.032.4111-.075.8364-.276 1.1341-.16.2268-.393.3544-.616.4537-.138.0709-.276.1276-.425.1701.18-.2835.318-.6521.393-1.0349z"/><path d="m2.41156 14.3953c-.02124-.4678-.21238-5.68478-.27609-5.68478-.20176-3.81347 1.98571-7.10242 4.85278-7.23001 43.03785-1.998879 87.04205-1.927997 131.90675 0 2.877.12759 5.086 3.43071 4.863 7.27254-.074 1.30425.117 2.56595-.127 3.88435-.054.3119-.128.6238-.308.8364-.16.1843-.372.2552-.574.3119-.541.1701-1.072.3686-1.614.5245.467-.567 1.009-1.2333 1.221-2.0556.149-.5528.032-1.0348-.106-1.5594-.212-.82221-.255-1.60191-.276-2.46668-.032-1.06324.106-2.58012-.52-3.43071-.478-.63794-1.105-1.19082-1.699-1.58776-1.476-.96401-3.186-1.17665-4.811-1.26171-.084 0-.159-.01418-.244-.01418-2.994-.12759-5.999-.14176-8.994.26936-.361.04252-.679.18429-1.03.26935-.435.11341-.956-.02835-1.402-.05671-1.019-.07088-2.028-.12759-3.047-.18429-2.028-.09924-4.067-.17012-6.106-.21265-1.529-.02835-3.048-.02835-4.577-.02835-.477 0-.966 0-1.444 0-.924 0-1.847 0-2.782 0-1.285 0-2.57 0-3.855-.01418-.063 0-.127 0-.18 0-2.0389 0-4.067-.01418-6.1058-.01418-1.0194 0-2.0388 0-3.0476-.01417-.4673 0-.9876.08506-1.4442-.02835-.4672-.11342-.8389-.49618-1.3273-.55289-.446-.0567-.9026.04253-1.338.09924-1.115.11341-2.2193.25517-3.3237.42529-.4991.07088-1.0512.1843-1.3804.68047-.1168.17012-.2018.38277-.3398.52453-.308.29771-.7433.09924-1.1044-.07088-.7114-.32606-1.4654-.51035-2.2299-.55288-.6902-.04253-1.3698.12759-2.0601.07088-.4353-.02835-.8495-.17012-1.2742-.28353-1.6778-.43947-3.4299-.46782-5.1183-.63794-1.253-.12759-2.5166-.21265-3.7802-.26935-4.067-.19847-8.1446-.08506-12.201.14176-2.0388.11341-4.067.25518-6.1058.4253-.9344.07088-1.9645.34023-2.8883.17011-.2655-.04253-.5203-.18429-.7858-.25517-.2761-.07089-.5522-.05671-.8389-.05671-1.1256.01418-2.2618.02835-3.3874.02835-1.3167.01418-2.644 0-3.9714 0-.446 0-.8813.11342-1.3167.11342-.4035 0-.7964-.11342-1.1999-.11342-.8389.01418-1.6672.22683-2.4424.65212-.2973.17012-.6052.35441-.9344.34024-.5947-.04253-.9982-.79389-1.5397-1.13412-1.2743-.808061-2.591.73718-3.8971.11341-.6478-.31188-1.3061-.26935-1.9963-.26935-.8708-.01418-1.7415-.01418-2.6123-.01418-2.952.01418-5.904.15594-8.8348.55288-1.4654.19847-2.92015.46783-4.37492.80806-.70084.17012-1.4123.43947-2.12375.55289-.20176.02835-.36104.02835-.55218.21264-.87074.80806-3.25996 5.33036-1.55034 6.91814.10619.0992.22299.1843.35042.2552.18052.0992.37166.1417.56279.2268.19114.0992.43537.0283.63713.0283.48846 0 .97693 0 1.45477-.0141.52032 0 1.04064-.0142 1.52911.1843-1.10436.3118-2.20871.6095-3.31306.9073-.36104.0992-.72208.1984-1.06188.3969-.05309.0425-.11681.0567-.18052.0851-.23361.1134-.40351.4961-.48846.7938-.223.7797-.08495 1.6303-.18052 2.4384-.1699 1.446.04247 3.0054.14866 4.4372.13805 1.843.30795 3.7001.5097 5.543-.21237-.0425-.41413-.0708-.6265-.0992-.20176-.0284-.41414-.0709-.55218-.2835-.09557-.1701-.10619-.3686-.12743-.5813-.21237-3.459.03186-7.0031-.10618-10.4622z"/><path d="m143.81 55.7612c-.149-2.7928-.276-5.5856-.382-8.3783-.064-1.8855-.053-3.771-.053-5.6565 0-.4253-.011-.8789-.191-1.2333-.245-.4537-.712-.5529-1.126-.6238-3.557-.6096-7.125-1.0916-10.704-1.4318 3.186.8222 6.478 1.8713 9.504 2.9912.595.2269.637.8364.881 1.5878.234.7514.255 1.6019.277 2.41.01.3402.01.6805-.075 1.0065-.18.723-.754 1.12-1.263 1.4602.382.1418.764.2835 1.157.4395.096.0425.191.0709.255.1701.074.0992.106.2694.117.4253.148 1.3468.032 2.7644.042 4.1254.011.8789.011 1.7578.021 2.6368.011.241.075.4678.117.723.064.5103.021 1.0349-.095 1.531-.234 1.0207-.754 1.928-1.423 2.5093-1.158 1.0065-2.602 1.2192-3.982 1.3467-2.305.2269-4.619.1985-6.913.4962-.765.0851-1.519.1843-2.283.2694-1.519.1701-3.048.3119-4.566.4536-2.878.2552-5.766.4537-8.644.5813-6.817.3118-13.645.2835-20.4729.2268-.8177-.0284-1.6459-.0284-2.4636-.0284-.6689 0-1.3061.1134-1.9644.0284-1.6035-.2127-3.1963.1701-4.7891.4111-1.8583.2694-3.8546.2977-5.4581-.9782-.5097-.4111-1.0087-.9498-1.6034-.9782-.4885-.0141-.9451.3545-1.3911.638-.8495.5387-1.7839.8364-2.7184.9923-.0212 0-.0318 0-.0531.0142-1.9857.3403-3.897.156-5.8828-.0283-1.4547-.1276-2.9838.1984-4.3749-.4962-1.0725-.5245-2.1981-1.2759-3.3024-.879-.3929.1418-.7433.4253-1.115.6238-.7221.3828-1.5185.4537-2.2937.5104-.4884.0283-.9769.0567-1.4654.085-2.0281.0851-4.0669.0709-6.0951-.0425-.8495-.0567-1.7203-.0425-2.5485-.3686-.5734-.2268-1.1362-.0851-1.7309-.0283-2.4635.2126-4.9377.2693-7.4119.1559-1.0088-.0425-2.0176-.1134-3.0157-.2127-.4885-.0425-.9982-.1701-1.4867-.1701-.3398 0-.6477.1418-.9875.1418-2.0494-.0142-4.0882-.0567-6.1377-.0851-3.4935-.0425-6.9977-.0992-10.4913-.1417-2.3892.4394-4.3962-.1134-6.76417-.6947-1.94324-.482-4.05637-1.531-4.8634-3.941-.3398-1.0066-.39289-2.1265-.36104-3.2039.01062-.3261.03186-.638 0-.964-.03185-.2977-.10618-.5671-.13804-.8648-.10619-.9782.11681-2.1123.29732-3.0621.09557-.482.21238-.9924.47785-1.361.23361-.3402.56279-.5387.89198-.6804.87074-.3686 1.79457-.4537 2.70778-.5246 1.31673-.0992 2.63342-.2126 3.95022-.3118.2654-.0142.5309-.0426.7964-.0567-.0319-.1702-.0531-.3403-.0531-.5246l.0106-.0709c-.807-.0283-1.6141-.0283-2.42108-.0425-2.08128.0567-4.8634.0425-6.28631 1.4602-.63713.6379-.75394 1.8146-.81765 2.8636-.06371 1.0349-.08495 2.0982-.19114 3.133-.03185.3119-.12742.5671-.19114.8648-.04247.1985-.05309.3828-.06371.5812-.04247 1.12.02124 2.2399.3398 3.2606.71146 2.325 2.50603 4.1537 4.43865 4.1537 43.29278 2.5376 87.29698 2.5093 132.00178-.0141 2.846-.156 5.023-3.4307 4.821-7.23z"/><path d="m10.1216 35.1626c0 .7655.0212 1.5452.0531 2.3108.0106.3827.0318.7655.0531 1.1483.0106.2835 0 .5954.0424.8647.0425.2268.085.4253.085.6663.0212.6521.0425 1.3184.0743 1.9705.0425 1.3185.0956 2.6227.1381 3.9411.0637 1.687.1168 3.3598.1805 5.0468.0318.9357.1487 1.7437.5203 2.5376.0743.156.1381.3119.223.4537.138.241.3079.4111.5203.5387.7752.4536 1.6566.6946 2.4954.8648 1.2955.2693 2.6016.3402 3.9077.3969 17.2131.808 34.4474 1.6303 51.671 1.0632 2.1025-.0709 4.2794-.1417 6.2332.9073-.8919-2.1265-3.0476-2.4383-4.874-2.495-19.135-.5813-38.2807-1.2334-57.352-3.3599-.5203-.0567-1.0937-.1417-1.4654-.6521-.2655-.3544-.3716-.8647-.4566-1.3468-.9769-5.2594-1.1681-10.7741-.5734-16.1328.0318-.326.1062-.6805.0956-1.0065-.0107-.3403-.0425-.6805-.0425-1.0349-.0106-.7088.0106-1.4318.0637-2.1407-.0743-.1701-.2549-.1701-.3929-.1417-.361.0567-.7221.0992-1.0937.1559.0212.4678 0 .9073-.0425 1.3751-.0106.156.0106.2694.0212.4253.0213.3119-.0212.638-.0318.9357-.0213.4536-.0319.9215-.0425 1.3751 0 .4395-.0106.8931-.0106 1.3326z"/><path d="m77.0737 58.1299c.2123-.723.9238-.8506 1.5078-.8648 4.6404-.1276 9.2702-.241 13.9106-.3686 4.375-.1134 8.7609-.2268 13.1359-.3544 1.412-.0425 2.92-.0425 4.088 1.0207-.021-.2268-.053-.4537-.075-.6805.5-.1134.977-.2552 1.487-.1984.276.0283.563-.0993.839-.1418.648-.1134 1.306-.1559 1.954-.1985 3.6-.2126 7.21-.2835 10.82-.5245.914-.0567 1.816-.1418 2.729-.2268.903-.0851 1.816-.156 2.708-.3261.128-.0283.244-.0851.372-.0992l.51-.0426c.913-.0992 1.837-.326 2.686-.8505 1.062-.6522 1.996-1.8146 2.336-3.3032.149-.6663.181-1.3609.213-2.0556.106-3.1755.074-6.3652-.107-9.5266-.116-.1559-.414.1276-.456.3545-.436 2.3107-.765 4.6498-.977 7.0031-.128 1.4035-.234 2.892-.881 3.9978-.712 1.205-1.901 1.687-3.027 2.0272-5.978 1.843-12.158 2.0273-18.285 2.1974-5.713.1559-11.426.3261-17.1285.482-4.7572-.2126-9.6312.7939-14.3566.1134-1.3273-.1985-2.6653-.5103-3.9926-.2552-.0956.0142-.2018.0426-.2761.1418-.0531.0709-.0637.1701-.0849.2694-.1593.7371.0955 1.6728.3504 2.41z"/></g><path d="m136.103 44.6755c-.01-2.6936-.031-5.3871-.053-8.0948-.01-2.5943-.031-5.1744-.042-7.7687-.021-3.1189.074-6.266-.202-9.3565-.053-.6096-.17-1.2334-.159-1.8429.01-.9215-.128-1.6303-.435-2.5093-.393-1.1908-.956-2.2824-1.593-3.2748-1.381-2.18313-3.366-2.28237-5.437-2.39578-2.177-.12759-4.343-.01417-6.509-.02835-2.422-.01418-4.853-.02835-7.274-.05671-2.952-.02835-5.894-.07088-8.846-.11341s-5.9038-.08506-8.8558-.12759c-1.476-.01417-2.952-.04253-4.428-.0567-.308 0-.6265-.04253-.9239.0567-.1911.05671-.361.15594-.5521.1843-.6584.08506-1.4123-.14177-2.0601-.31189.085-2.02723.3504-4.04029.7964-5.99665-.6052 2.01306-1.2955 3.98359-2.0813 5.88324-.053.12759-.1061.25518-.2017.31189-.0956.0567-.2124.04252-.3079.02835-.223-.04253-.4567-.07088-.6796-.14177-.5097-.17011-1.0513-.09923-1.5822-.09923-2.2831-.02835-4.5555-.04253-6.8385-.05671-4.4812-.02835-8.9623-.01417-13.4328.02836-4.7997.04252-9.5994-.04253-14.4097-.07089-1.3061-.01417-2.6122-.02835-3.9077-.02835-.5628 0-1.1043-.02835-1.6459.12759-.5628.17012-1.253.02835-1.8264-.01418-.3186-.02835-.6584-.07088-.9132-.34023-.2549-.25518-.3717-.6663-.4885-1.06324-.2336-.82224-.4672-1.64447-.7008-2.46671.0318.964.1062 1.91383.223 2.86365.0318.31188.0531.70883-.1593.86477-.0637.04253-.1487.0567-.223.07088-.2549.02835-.5203.11341-.7752.04253-.4885-.12759-.9769-.08506-1.476-.08506-5.458 0-10.8949-.02835-16.3317-.05671-3.0476-.01417-10.3745-2.08394-11.3727 3.4449-.138.7655-.1274 1.5594-.1699 2.3533-.1062 2.3816-.0425 4.7775-.0106 7.1733.0849 7.8963.2549 15.7926.4885 23.6747.0318 1.205.0743 2.4242.1911 3.6292.0956.9498.0425 2.1973.6053 2.9345.1911.2552.3292.4962.4991.7939.3398.5812.807 1.0207 1.3167 1.3326 1.0937.6805 2.3573.8648 3.5679.9357 3.9502.2551 7.8897.4678 11.8293.6237 3.9714.1701 7.9322.3261 11.9037.4253 3.9714.0992 7.9322.1701 11.9036.1985 3.5998.0283 7.1995.0425 10.7993.0567h5.5111c1.9857 0 4.3856-.8223 6.212.4395.9132.6237 1.6778 1.6303 2.1132 2.8778-.0744-1.0066-.0531-2.0273.0637-3.0338 1.4441-.2693 2.8883-.4395 4.3431-.4678.6265-.0142 1.2317.1134 1.8582.0992.7327 0 1.476-.0142 2.2087-.0142 2.9521-.0283 5.9041-.0567 8.8561-.0992 1.8264-.0283 3.6529-.0567 5.4899-.085 3.9716-.0568 7.9326-.1843 11.9036-.3828.712-.0425 1.434-.0709 2.145-.1134 5.469-.2836 10.937-.7088 16.395-1.2901.468-.0567.914-.1134 1.349-.2268.701-.1843 1.359-.5104 1.933-1.1625.7-.7939 1.38-1.6445 1.847-2.6935.754-1.687.563-3.615.552-5.5288zm-2.962 3.6575c-.287.6379-.818 1.2759-1.253 1.7579-.106.1134-.266.2552-.68.3544-.308.085-.669.1276-1.03.1701-5.235.5529-10.714.9782-16.278 1.2901-.712.0425-1.413.0708-2.124.0992-4.163.1985-8.028.3261-11.8294.3828-11.2878.1843-22.4057.2835-33.0669.2835-4.7785 0-9.5569-.0142-14.346-.0567-3.9289-.0425-7.9322-.0992-11.8612-.1985-3.9289-.0992-7.9216-.241-11.8611-.4111-3.9396-.1701-7.911-.3828-11.7975-.6379-.8601-.0426-1.837-.156-2.5273-.5813-.1699-.1134-.2548-.1984-.276-.2268-.1275-.2268-.2867-.4962-.4673-.7797-.0106-.1418-.0212-.2977-.0318-.4253-.0213-.2552-.0319-.4962-.0531-.7372-.0956-1.0207-.1274-2.0697-.1699-3.3315-.2442-7.797-.4142-15.7358-.4885-23.5754l-.0106-1.3326c-.0319-1.9422-.0531-3.771.0319-5.5714.0106-.1985.0106-.4111.0212-.6379.0106-.4395.0212-.8364.0637-1.0633.0956-.482 1.115-.9781 3.2281-.9781 1.0407 0 2.1556.1134 3.1326.2126.8388.0992 1.6352.1701 2.3148.1701 4.8528.0284 9.7162.0425 14.5796.0425h2.729c3.6317 0 7.2633.0142 10.9055.0426l3.5042.0283c2.5592.0284 5.1289.0426 7.688.0426 1.0725 0 2.1556 0 3.2494-.0142 2.7078-.0284 5.4049-.0425 8.1127-.0425 9.164 0 18.5085.1417 27.5349.2693 7.082.0992 14.42.1985 21.598.241l.351.0142c.637 0 1.253-.0142 1.89-.0142.616-.0142 1.232-.0142 1.837-.0142.892 0 1.635.0142 2.304.0567h.074c1.944.1276 2.846.2552 3.377 1.0916.542.8506.913 1.6303 1.168 2.3817.191.5812.191.7372.191.964-.01.7372.075 1.3751.128 1.8854.01.1418.032.3119.053.4537.191 2.1548.18 4.3664.18 6.7196-.01.7372-.01 1.4744 0 2.2116l.096 15.8209c.011.3544.011.6805.021 1.0066.011 1.1199.032 2.1123-.212 2.6368z" fill="url(#e)"/><g fill="#eb924d"><path d="m10.1731 30.1587 3.2493-.8648-.138-.4111-3.36619.5387z"/><path d="m132.461 17.2147 3.769.4253v-1.1341l-4.077.241z"/><path d="m132.728 38.8915 4.173 1.0633-.085-.8932-4.481-.5245z"/><path d="m120.524 34.1279c-3.175-2.3674-8.453-1.6444-10.969 1.5453-1.583 2.013-1.667 5.7698 0 7.7687 3.663 4.4089 10.098 2.5234 12.424-2.9204.042-.0567.085-.1134.138-.1559 1.773-2.1407.509-5.699-1.593-6.2377z"/></g><path d="m121.278 32.044c-3.175-2.3675-8.452-1.6445-10.969 1.5452-1.582 2.0131-1.667 5.7698 0 7.7687 3.664 4.4089 10.099 2.5234 12.424-2.9204.042-.0567.085-.1134.138-.1559 1.773-2.1406.51-5.6989-1.593-6.2376z" fill="url(#f)"/><path d="m120.524 33.3897c-3.175-2.3675-8.453-1.6445-10.969 1.5452-1.583 2.0131-1.667 5.7698 0 7.7687 3.663 4.4089 10.098 2.5234 12.424-2.9204.042-.0567.085-.1134.138-.1559 1.773-2.1406.509-5.6989-1.593-6.2376z" fill="url(#g)"/><path d="m108.452 25.3963c-2.007-1.5027-5.331-1.0348-6.913.9782-.998 1.2617-1.051 3.6434 0 4.9051 2.315 2.7786 6.371 1.5878 7.837-1.843.031-.0283.053-.0708.085-.0992 1.115-1.3609.318-3.6008-1.009-3.9411z" fill="#eb924d"/><path d="m108.929 24.0917c-2.007-1.5028-5.331-1.0349-6.913.9781-.998 1.2617-1.051 3.6434 0 4.9051 2.315 2.7786 6.371 1.5878 7.837-1.8429.031-.0284.053-.0709.085-.0993 1.115-1.3751.318-3.615-1.009-3.941z" fill="url(#h)"/><path d="m108.452 24.9276c-2.007-1.5027-5.331-1.0349-6.913.9782-.998 1.2759-1.051 3.6433 0 4.905 2.315 2.7786 6.371 1.5878 7.837-1.8429.031-.0284.053-.0709.085-.0992 1.115-1.361.318-3.6009-1.009-3.9411z" fill="url(#i)"/><path d="m26.7303 39.7694c-2.0069-1.5027-5.3306-1.0349-6.9128.9782-.9982 1.2617-1.0513 3.6433 0 4.905 2.3149 2.7786 6.3713 1.5878 7.8367-1.8429.0318-.0284.053-.0709.0849-.0992 1.115-1.361.3186-3.6009-1.0088-3.9411z" fill="#eb924d"/><path d="m27.2069 38.451c-2.007-1.5027-5.3306-1.0349-6.9128.9782-.9982 1.2759-1.0513 3.6434 0 4.9051 2.3148 2.7786 6.3712 1.5877 7.8366-1.843.0319-.0283.0531-.0709.085-.0992 1.1149-1.3609.3185-3.6008-1.0088-3.9411z" fill="url(#j)"/><path d="m26.7303 39.3026c-2.0069-1.5027-5.3306-1.0349-6.9128.9782-.9982 1.2759-1.0513 3.6433 0 4.905 2.3149 2.7786 6.3713 1.5878 7.8367-1.8429.0318-.0284.053-.0709.0849-.0992 1.115-1.361.3186-3.6009-1.0088-3.9411z" fill="url(#k)"/><path d="m10.0903 17c0-3.3137 2.6863-6 6-6h106.9047c5.523 0 10 4.4772 10 10v23c0 5.5228-4.477 10-10 10h-104.9047c-4.4182 0-8-3.5817-8-8z" fill="#eb924d" opacity=".9"/><path d="m53.7137 39.8125c-.0937.0469-.1875.0781-.2812.0937-.0938.0157-.1953.0313-.3047.0469-.0469-.0312-.0938-.039-.1406-.0234-.0313 0-.086-.0078-.1641-.0235-.1406 0-.2188.0079-.2344.0235 0 0-.0078 0-.0234 0-.0625.0156-.1719.0391-.3281.0703-.0782.0156-.1485.0312-.211.0469-.0625.0156-.1328.0312-.2109.0469-.125.0156-.25.0156-.375 0-.125 0-.25 0-.375 0-.1094.0156-.2656.0156-.4688 0-.2031-.0157-.3672-.0079-.4922.0234-.125-.0313-.2109-.0469-.2578-.0469-.0312.0156-.0625.0235-.0937.0235h-.3516c-.1562-.0157-.2578-.0235-.3047-.0235-.0468.0156-.0937.0235-.1406.0235-.2812.0312-.4453.0546-.4922.0703-.25 0-.414-.0079-.4922-.0235-.1406-.0312-.2265-.0547-.2578-.0703-.0312-.0156-.0625-.0391-.0937-.0703-.125-.0625-.1875-.1094-.1875-.1406 0-.0313-.0157-.0469-.0469-.0469-.0313-.0937-.0547-.1953-.0703-.3047 0-.125-.0078-.25-.0235-.375-.0156-.0625-.039-.1719-.0703-.3281 0-.0625 0-.125 0-.1875.0157-.0625.0157-.1328 0-.211-.0468-.1406-.0859-.289-.1172-.4453-.0468-.1562-.0703-.2421-.0703-.2578 0-.0312-.0078-.0547-.0234-.0703-.1719.0313-.2578.0469-.2578.0469-.1094.0781-.1875.1328-.2344.1641-.0312.0156-.0391.0546-.0234.1171-.1094 0-.1875.0547-.2344.1641-.125.1562-.1875.2422-.1875.2578s-.0156.0391-.0469.0703c-.0312.0625-.0781.125-.1406.1875-.0469.0469-.0859.0938-.1172.1406-.0781.0626-.1562.1485-.2344.2579-.0312.0468-.0703.1015-.1172.164-.0312.0469-.0703.1016-.1171.1641-.0938.125-.1485.2031-.1641.2344 0 .0156-.0078.0312-.0234.0468-.1094.125-.1719.1954-.1875.211-.0157 0-.0313.0078-.0469.0234-.0625.0625-.125.1094-.1875.1406-.0469.0313-.086.0547-.1172.0704-.25 0-.4297-.0313-.5391-.0938-.0468-.0312-.0937-.0625-.1406-.0938-.0312-.0312-.0781-.0624-.1406-.0937-.1563-.1719-.2422-.2656-.2578-.2813-.0782-.1093-.1172-.1718-.1172-.1874 0-.0157-.0078-.0313-.0235-.0469-.0937-.125-.1406-.1953-.1406-.211 0-.0156-.0078-.0312-.0234-.0468-.1406-.2188-.2891-.4063-.4453-.5625l-.1875-.211c-.0625-.125-.1016-.1953-.1172-.2109 0-.0313-.0078-.0547-.0235-.0703-.1406-.1406-.2421-.2344-.3046-.2813-.1875-.0625-.2969-.0937-.3282-.0937-.0312.0625-.0625.125-.0937.1875-.0313.0469-.0625.1015-.0938.164l-.1172.3047c-.0781.125-.1171.2032-.1171.2344s-.0079.0625-.0235.0938c-.0781.1874-.1172.3359-.1172.4453-.0937.2343-.1797.4218-.2578.5625-.0625.1406-.1484.2656-.2578.375-.125.0781-.2734.1328-.4453.164-.1719.0469-.3281.0313-.4688-.0468h-.6562c-.1094 0-.1797-.0079-.2109-.0235-.0157 0-.0391 0-.0704 0-.1875.0313-.3046.0391-.3515.0235-.0313 0-.0703 0-.1172 0-.0313.0156-.0781.0156-.1406 0-.0469 0-.086 0-.1172 0h-.5391c-.0625 0-.125 0-.1875 0-.0469.0156-.1015.0156-.164 0-.1563 0-.2422 0-.2579 0-.0156.0156-.039.0234-.0703.0234-.1718.0156-.2734.0234-.3047.0234-.0937.0156-.164.0235-.2109.0235-.0312.0156-.0859.0234-.1641.0234-.0781.0156-.1718.0078-.2812-.0234-.0938-.0157-.1641-.0079-.2109.0234-.0469-.0313-.0938-.0547-.1407-.0703-.0312 0-.0625-.0156-.0937-.0469-.125-.1094-.1953-.1641-.211-.1641-.1718-.1874-.2734-.3046-.3046-.3515.0156-.0625.0156-.1172 0-.1641-.0313-.0468-.0469-.0859-.0469-.1172l.0469-.2578c.0156-.0625.039-.1094.0703-.1406.0156-.0312.0156-.0781 0-.1406.0468-.0625.0859-.125.1172-.1875.0312-.0625.0625-.125.0937-.1875.0313-.0625.0469-.1094.0469-.1406.0156-.0469.039-.1016.0703-.1641l.1172-.2344c.0781-.1406.1172-.2344.1172-.2812.0781-.1719.125-.2657.1406-.2813.0312-.0156.0312-.039 0-.0703.1094-.1406.1719-.2422.1875-.3047.0156-.0781.0312-.1406.0469-.1875.0468-.1719.0781-.2734.0937-.3047.0781-.1718.1172-.2578.1172-.2578.0313-.0937.0547-.1484.0703-.164.0156-.0157.0313-.0391.0469-.0704.0781-.1718.1172-.2656.1172-.2812.0156-.1406.0469-.2344.0937-.2813.0625-.0625.0782-.125.0469-.1875.0313-.0312.0469-.0703.0469-.1172.0156-.0468.039-.0937.0703-.1406.0312-.0625.0547-.125.0703-.1875s.0391-.125.0703-.1875c.0625-.125.0938-.2265.0938-.3047l.1172-.2343c.0312-.125.0468-.1875.0468-.1875.0157-.0157.0313-.0391.0469-.0703.0156-.0469.0234-.086.0234-.1172.0157-.0469.0313-.1016.0469-.1641.0781-.1719.1172-.2734.1172-.3047 0-.0312.0156-.0547.0469-.0703.0781-.2031.1172-.3203.1172-.3516 0-.0468.0078-.0859.0234-.1171.0313-.0782.0625-.1641.0938-.2579.125-.2343.1953-.3984.2109-.4921.0156-.0938.0391-.1954.0703-.3047.0469-.1719.0859-.2735.1172-.3047.0625-.1875.0937-.2969.0937-.3282 0-.0312.0079-.0624.0235-.0937.0156-.0625.0234-.1172.0234-.1641.0156-.0625.0313-.1328.0469-.2109.0469-.1406.0781-.2266.0937-.2578l.0938-.2578c.0469-.0469.0703-.086.0703-.1172.0156-.0469.0313-.0859.0469-.1172.0781-.2344.1406-.3828.1875-.4453.0469-.0781.0859-.1641.1172-.2578.0156-.0469.0312-.0938.0468-.1406.0157-.0626.0469-.1094.0938-.1407.0312-.2031.0469-.3047.0469-.3047.0625-.125.0937-.1953.0937-.2109s.0078-.0313.0235-.0469c.0468-.0937.0703-.1484.0703-.164 0-.0313.0156-.0625.0468-.0938.0469-.125.0704-.1953.0704-.2109.0156-.0157.0234-.0391.0234-.0703.0312-.0625.0547-.1172.0703-.1641s.0391-.0859.0703-.1172c.0313-.1562.0469-.2344.0469-.2344.0156 0 .0234-.0078.0234-.0234.0469-.1563.086-.2656.1172-.3281.0781-.1719.125-.2735.1406-.3047.1094-.3125.1719-.5078.1875-.5859.0313-.2032.0547-.336.0704-.3985.0625-.125.0937-.2031.0937-.2344 0-.0312.0078-.0625.0234-.0937.0625-.1406.1016-.2188.1172-.2344.0157-.0312.0313-.0625.0469-.0937.0938-.25.1406-.375.1406-.375.0938-.1875.1485-.2969.1641-.3282.0156-.0468.0391-.0859.0703-.1171.0938-.1563.1563-.25.1875-.2813.0938-.1094.1563-.1953.1875-.2578l.3281-.3281.2344-.1407c.125-.0625.2109-.1015.2578-.1171.0469-.0157.0938-.0235.1406-.0235.1875-.0312.3047-.0469.3516-.0469.0469-.0156.0938-.0234.1406-.0234.1563.0469.2578.0703.3047.0703h.1172c.1094.0625.2109.0938.3047.0938.1719.0781.2656.1171.2812.1171.1563.0157.25.0235.2813.0235.0312 0 .0625.0156.0937.0469.1875.0468.3125.0546.375.0234.1719.0781.2657.1172.2813.1172s.0391.0078.0703.0234c.1094.0469.1797.0703.2109.0703.0469-.0156.0938-.0234.1407-.0234.0781-.0156.1484-.0234.2109-.0234.0625-.0157.1328-.0313.2109-.0469.1719-.0313.2735-.0547.3047-.0703.0469-.0313.0938-.0547.1407-.0703.1562-.0469.2343-.0704.2343-.0704.0157-.0156.0313-.0234.0469-.0234.0469-.0156.0938-.0234.1406-.0234h.1641c.1562-.0156.25-.0391.2812-.0703.1875-.0313.3829-.0313.586 0 .2656.0468.4687.0703.6094.0703.1406-.0156.2421.0234.3046.1172.1094.0937.1875.164.2344.2109.0781.0469.1328.1328.1641.2578.0312.1094.0703.2031.1172.2813.0625.1093.0937.1875.0937.2343.0156.0469.0313.086.0469.1172.0156.1094.0312.1719.0469.1875.0156.0156.0234.0391.0234.0703.0469.2032.0781.3282.0938.375.0156.0469.0234.0938.0234.1407.0156.0312.0312.0703.0469.1172.0468.2187.0781.3593.0937.4218.0313.0625.0547.1328.0703.211.0157.0781.0313.1484.0469.2109s.0156.125 0 .1875c.0625.2344.1016.3828.1172.4453s.0391.1328.0703.2109c.0469.2032.0703.336.0703.3985.0156.0625.0313.1328.0469.2109.0781.1875.1172.3047.1172.3516 0 .0312.0078.0703.0234.1172l.1406.3984c.0469.1563.0625.2734.0469.3516 0 .0625.0156.1094.0469.1406 0 .0781.0312.1953.0937.3516.0938.2031.1329.3437.1172.4218 0 .0782.0157.1485.0469.211.0156.0937.0469.1797.0938.2578.0625.125.0937.2109.0937.2578s.0078.0938.0234.1406c.0625.125.0938.211.0938.2578.0469.1094.1016.211.1641.3047.0312.0313.0468.0781.0468.1407 0 .0468.0078.0937.0235.1406.0625.2031.0937.3359.0937.3984.0156.0625.0391.125.0703.1875.0157.0625.0313.125.0469.1875.0156.0469.0391.1094.0703.1875.0469.125.0703.1953.0703.2109.0157 0 .0235.0157.0235.0469.0781.1719.1328.2891.164.3516.0157.0312.0235.0781.0235.1406 0 .0469.0156.0859.0468.1172.0157.0469.0313.1094.0469.1875.0156.0625.0235.1094.0235.1406.0625.1406.0937.2422.0937.3047.0156.0469.0391.1016.0703.1641.0313.0468.0469.1015.0469.164.0156.0625.0391.125.0703.1875.0625.1094.0938.1797.0938.211 0 .0312.0078.0625.0234.0937.0781.125.1172.2032.1172.2344 0 .0156.0156.0391.0469.0703.0625.1406.0937.2266.0937.2578 0 .0157.0156.0391.0469.0703.0312.0469.0469.0938.0469.1407.0156.0468.039.0937.0703.1406.0625.1719.1015.2734.1172.3047.0937.2031.1562.3515.1875.4453.0312.0937.0781.1875.1406.2812.0781.1563.1094.2579.0937.3047 0 .0469.0078.086.0235.1172.0625.1406.0937.2266.0937.2578.0156.0313.0313.0625.0469.0938.0156.0781.0469.1718.0937.2812.0469.0625.0782.125.0938.1875.0156.0469.0312.086.0469.1172.0781.2031.1953.375.3515.5156 0 .0782.0157.1485.0469.211.0469.0469.0859.1093.1172.1875.0781.1875.1172.3047.1172.3515 0 .0313.0078.0782.0234.1407 0 .0937-.0156.164-.0469.2109-.0156.0313-.0312.0703-.0468.1172-.0313.0469-.0469.0937-.0469.1406 0 .0313-.0156.0703-.0469.1172zm-7.6875-6.3281c-.0312-.1406-.0469-.2422-.0469-.3047-.0312-.0781-.0625-.1485-.0937-.2109-.0156-.0626-.0313-.1329-.0469-.211-.0312-.0781-.0625-.1719-.0937-.2812-.0157-.1094-.0313-.2032-.0469-.2813-.0938-.2031-.1406-.3203-.1406-.3515 0-.0469-.0157-.086-.0469-.1172-.0469-.0938-.0703-.1563-.0703-.1875 0-.0469-.0078-.086-.0235-.1172-.0781-.1719-.125-.2891-.1406-.3516s-.039-.1094-.0703-.1406c-.0937-.1875-.1406-.2813-.1406-.2813-.0469-.2031-.0781-.3203-.0938-.3515-.0156-.0469-.0312-.0938-.0468-.1407 0-.1093-.0079-.1718-.0235-.1874-.0156-.0157-.0234-.0391-.0234-.0704-.0313-.0625-.0547-.125-.0703-.1875 0-.0625-.0157-.1171-.0469-.164 0-.1407-.0078-.211-.0234-.211-.0157-.0156-.0235-.0312-.0235-.0468-.0156-.0782-.0312-.1563-.0469-.2344 0-.0781-.0156-.1328-.0468-.1641-.125.0469-.1953.086-.211.1172 0 .0156-.0078.0391-.0234.0703-.0938.1719-.1406.2813-.1406.3281.0156.0469.0078.0938-.0235.1407-.0156.0625-.039.1172-.0703.164-.0312.0313-.0625.0782-.0937.1407-.1094.2187-.1719.3672-.1875.4453l-.0703.2578c-.0157.125-.0625.25-.1407.375-.0156.0469-.0312.1015-.0468.1641 0 .0468-.0079.0859-.0235.1171-.0312.0469-.0625.0938-.0937.1407-.0157.0468-.0391.1015-.0703.164-.0157.0625-.0235.125-.0235.1875s-.0156.1094-.0469.1407c-.0468.1093-.0703.1718-.0703.1874 0 .0157-.0078.0391-.0234.0704-.0938.1875-.1484.3046-.1641.3515-.0156.0313-.0234.086-.0234.1641-.0938.1562-.1563.2969-.1875.4219-.0625.1875-.0781.3203-.0469.3984.1719.2031.3047.3047.3985.3047.1093 0 .2265-.0078.3515-.0234.125-.0157.2344-.0235.3281-.0235.1094-.0156.2032-.0234.2813-.0234.1562 0 .2734-.0078.3516-.0235.0937-.0156.1796-.0234.2578-.0234.1718.0156.2812.0234.3281.0234.0469-.0156.0859-.0156.1172 0l.4922.0938c.1875-.0938.2812-.1797.2812-.2578zm17.7891 4.8984c-.125.0469-.211.1406-.2578.2813-.0782.0312-.1407.0859-.1875.164-.0313.0625-.086.1094-.1641.1407-.1406.1562-.2344.2421-.2812.2578-.0313 0-.0469.0234-.0469.0703-.125.1093-.1953.164-.211.164-.1093.0782-.1718.1329-.1875.1641-.0156.0156-.039.0312-.0703.0469-.0625.0469-.125.0781-.1875.0937-.0468.0156-.1015.0391-.164.0703-.1563.0782-.2344.1172-.2344.1172 0-.0156-.0078-.0234-.0234-.0234-.125.0781-.1954.1172-.211.1172s-.0234.0156-.0234.0469c-.1719.0312-.2656.0546-.2813.0703 0 .0156-.0156.0312-.0468.0468-.1563.0313-.3047.0547-.4454.0703-.125.0157-.2578.0235-.3984.0235-.2187-.0469-.3672-.0703-.4453-.0703-.1563 0-.2344-.0078-.2344-.0235 0 0-.0078 0-.0234 0-.0781.0157-.1406.0157-.1875 0-.0469 0-.0938 0-.1406 0l-.2579-.0703c-.1718-.0312-.289-.0468-.3515-.0468-.0469 0-.0938-.0079-.1406-.0235-.0313-.0156-.0704-.0312-.1172-.0469-.0469-.0156-.0938-.0312-.1407-.0468l-.3046-.0469c-.1563-.0781-.2422-.1172-.2579-.1172-.1718-.0781-.2734-.125-.3046-.1406-.0157-.0157-.0391-.0313-.0704-.0469-.125-.0938-.2031-.1484-.2343-.1641-.0313-.0312-.0625-.0625-.0938-.0937-.1406-.1094-.2187-.1641-.2344-.1641l-.2109-.2109c-.1406-.125-.2109-.1875-.2109-.1875-.1094-.0781-.1797-.125-.211-.1406-.0312-.0157-.0625-.0391-.0937-.0703-.1094-.1094-.1797-.1876-.211-.2344-.0156-.0625-.039-.1172-.0703-.1641-.0781-.0781-.1328-.1406-.164-.1875-.0313-.0625-.0625-.1172-.0938-.164-.1094-.1719-.1953-.2813-.2578-.3282-.0625-.1406-.1328-.2734-.2109-.3984-.0625-.125-.1328-.2578-.211-.3984-.0781-.1563-.1172-.25-.1172-.2813-.0312-.1719-.0546-.2734-.0703-.3047-.0156-.0312-.0312-.0703-.0468-.1172-.0469-.1718-.0704-.2656-.0704-.2812.0157-.0313.0079-.0469-.0234-.0469-.0156-.1719-.0312-.2656-.0469-.2813-.0156-.0312-.0234-.0624-.0234-.0937-.0156-.1719-.0391-.2813-.0703-.3281-.0156-.0469-.0235-.0938-.0235-.1406 0-.125-.0078-.1954-.0234-.211 0-.0156 0-.039 0-.0703.0156-.1719.0156-.2578 0-.2578 0 0 0-.0078 0-.0235 0-.0624-.0078-.1406-.0234-.2343-.0157-.0938-.0235-.1797-.0235-.2578 0-.2188-.0078-.3516-.0234-.3985-.0156-.0468-.0234-.0937-.0234-.1406 0-.0781.0156-.1562.0468-.2344.0313-.0937.0313-.1797 0-.2578.0469-.2031.0703-.414.0703-.6328.0313-.1719.0625-.3047.0938-.3984 0-.1094.0078-.1954.0234-.2578.0313-.0626.0469-.125.0469-.1876.0156-.1406.0313-.2343.0469-.2812.0312-.0469.0625-.0938.0937-.1406.0313-.0782.0547-.1563.0703-.2344.0157-.0781.0391-.1641.0704-.2578.0781-.1563.125-.2344.1406-.2344.0625-.1875.0937-.289.0937-.3047.0157-.0156.0313-.039.0469-.0703.0781-.125.125-.2031.1406-.2344.0157-.0312.0391-.0546.0703-.0703 0-.0937.0235-.1875.0704-.2812.0937-.1407.1484-.211.164-.211.0781-.1718.1328-.2812.1641-.3281.0312-.0312.0547-.0703.0703-.1172.0156-.0468.0391-.0859.0703-.1172.0469-.0781.0703-.125.0703-.1406.0156-.0312.0313-.0625.0469-.0937.1094-.1094.1875-.1875.2344-.2344.0937-.1875.164-.2969.2109-.3281.0625-.0313.1094-.0782.1406-.1407.1094-.1718.1719-.2578.1875-.2578.0313 0 .0625-.0078.0938-.0234.0937-.1094.1406-.1563.1406-.1406.0156 0 .0391-.0157.0703-.0469.1406-.0938.2266-.1563.2578-.1875l.1875-.1875c.0469-.0313.086-.0625.1172-.0938.1406-.0937.2188-.1484.2344-.164.0312-.0313.0625-.0547.0937-.0703.1719-.0782.2657-.1094.2813-.0938.0312 0 .0625-.0078.0937-.0234.1407-.0938.2344-.1407.2813-.1407.0625 0 .1094-.0078.1406-.0234.1563-.0625.2656-.0937.3281-.0937.0625-.0313.1172-.0547.1641-.0703.0469-.0313.1016-.0313.1641 0 .1093-.0626.25-.0938.4218-.0938.1407-.0312.3047-.0391.4922-.0234.1875 0 .3672.0078.5391.0234.125-.0156.1953-.0156.2109 0h.1172c.125.0312.2344.0625.3281.0938.125.0468.2422.0703.3516.0703.1719 0 .2578.0078.2578.0234h.0703c.1094.0313.1797.0547.211.0703.0312 0 .0625.0078.0937.0234.1719.0626.2735.1094.3047.1407.0938.0469.1563.0859.1875.1172.0469.0156.0938.039.1406.0703.1563.125.2735.1953.3516.2109.1562.1094.2422.1875.2578.2344.0313.0469.0781.0859.1406.1172.0313-.0625.0391-.125.0235-.1875-.0157-.0625-.0235-.1328-.0235-.211 0-.0625.0078-.125.0235-.1875.0156-.0625.0234-.125.0234-.1875-.0156-.1875-.0234-.3046-.0234-.3515s.0156-.086.0468-.1172c-.0156-.0469-.0234-.1485-.0234-.3047-.0156-.1406-.0234-.25-.0234-.3281.0156-.0938 0-.1797-.0469-.2578.0156-.0469.0156-.0938 0-.1407-.0156-.0625-.0234-.125-.0234-.1875-.0157-.0625-.0313-.1171-.0469-.164-.0156-.0625-.0235-.125-.0235-.1875-.0156-.0625-.0234-.125-.0234-.1875s0-.1328 0-.211l-.0469-.4921c-.0312-.1719-.0468-.2579-.0468-.2579.0156-.0156.0234-.0312.0234-.0468-.0625-.1563-.1016-.2579-.1172-.3047 0-.0469-.0078-.1094-.0234-.1875 0-.1407 0-.2266 0-.2578.0156-.0313.0234-.0625.0234-.0938.0156-.1719.0313-.2812.0469-.3281s.0234-.1094.0234-.1875c.1406-.1406.2344-.2109.2813-.2109.0625-.0157.1093-.0313.1406-.0469h.2578c.0156-.0157.0391-.0157.0703 0l.5156.0937h.1407c.0468-.0156.1015-.0156.164 0s.1172.0235.1641.0235c.0469-.0157.0859-.0235.1172-.0235.0469.0156.0937.0313.1406.0469.0625.0156.1172.0078.1641-.0234.0312-.0157.0703-.0235.1172-.0235h.1875c.1093.0469.1875.0703.2343.0703h.1172.1875c.0469-.0156.1016-.0234.1641-.0234.1562 0 .2422.0078.2578.0234h.0703c.0781 0 .1484.0079.2109.0235.0625 0 .125.0156.1875.0468.0469 0 .0938-.0078.1407-.0234.0468-.0312.0937-.039.1406-.0234.125.0312.1953.039.2109.0234.0157-.0156.0391-.0234.0703-.0234.0938 0 .1875.0078.2813.0234.0937.0156.1875.0078.2812-.0234.0625.0937.1641.1406.3047.1406.0938.1406.1328.2266.1172.2578 0 .0313.0078.0625.0235.0938.0625.125.0859.2031.0703.2343-.0157.0157-.0235.0391-.0235.0703.0313.1407.0313.2344 0 .2813-.0312.0313-.0468.0625-.0468.0937v.1407c.0156.0312.0234.0703.0234.1172-.0156.1875-.0313.3047-.0469.3515-.0156.0469-.0234.0938-.0234.1406-.0156.1719-.0235.2657-.0235.2813 0 0-.0078.0156-.0234.0469-.0156.125-.0312.2109-.0469.2578-.0156.0312-.0234.0625-.0234.0937.0156.1563.0078.3125-.0234.4688-.0313.1562-.0079.2734.0703.3515-.0313.0938-.0469.1876-.0469.2813 0 .0781-.0156.1641-.0469.2578 0 .0625-.0078.125-.0234.1875-.0156.0469-.0313.0938-.0469.1406 0 .1407-.0078.2188-.0234.2344v.0703c-.0157.1094-.0235.2266-.0235.3516.0157.1094.0078.2187-.0234.3281-.0469.2031-.0703.3516-.0703.4453.0156.0938.0156.1797 0 .2578-.0313.1875-.0469.3047-.0469.3516.0156.0313.0234.0703.0234.1172-.0156.1562-.0234.2422-.0234.2578.0156.0156.0234.0313.0234.0469-.0156.1718-.0234.2656-.0234.2812-.0312.125-.0312.2656 0 .4219v.3281c.0156.0938.0078.1953-.0234.3047.0156.125.039.2344.0703.3281.0312.1407.039.2188.0234.2344v.0469c.0156.1094.0156.1875 0 .2344-.0156.0468-.0156.1015 0 .164.0313.25.0313.4297 0 .5391-.0156.0937-.0234.1953-.0234.3047 0 .0781.0078.1484.0234.2109.0156.0469.0235.1016.0235.1641.0156.0625.0234.125.0234.1875v.1406c.0312.1562.0391.2422.0234.2578v.0469.2812c.0157.0469.0313.1094.0469.1875v.4454c.0156.0781.0156.164 0 .2578v.2109c0 .2031-.0078.3359-.0234.3984 0 .0469.0078.1016.0234.1641.0156.0938.0234.1797.0234.2578s-.0078.1406-.0234.1875c-.0156.0313-.0234.0859-.0234.1641.0156.0625.0234.1328.0234.2109.0156.1563.0156.2422 0 .2578v.0235c.0156.125.0156.2343 0 .3281v.2812c.0156.2032.0234.336.0234.3985s-.0078.1172-.0234.164v.2813c0 .0625-.0078.1484-.0234.2578v.3281.3282c0 .0468.0078.1093.0234.1874.0156.0782.0234.1563.0234.2344.0157.0782.0313.1719.0469.2813.0156.0781.0235.1562.0235.2343.0156.0782.0312.1641.0468.2579.0313.2187.0469.3359.0469.3515.0156.1406.0313.2344.0469.2813.0156.0312.0156.0625 0 .0937-.0469.1875-.0781.2891-.0938.3047-.125.0781-.2187.1328-.2812.1641-.0781-.0313-.1563-.0469-.2344-.0469-.0781.0156-.1797.0234-.3047.0234-.1562.0157-.2812.0235-.375.0235-.0781.0156-.1719.0078-.2812-.0235-.1875.0625-.375.0703-.5625.0235-.1875-.0313-.3438-.0391-.4688-.0235-.0781-.0312-.1406-.0547-.1875-.0703-.0469 0-.125 0-.2344 0l-.2812.0235c-.0781 0-.1484 0-.2109 0-.0469.0156-.1016.0078-.1641-.0235-.1563.0156-.25.0313-.2813.0469-.0156.0156-.039.0234-.0703.0234-.1093-.0156-.1797-.0234-.2109-.0234-.0313.0156-.0781.0234-.1406.0234-.0938-.0312-.211-.0468-.3516-.0468s-.2422-.0079-.3047-.0235c-.0781 0-.1562-.039-.2344-.1172-.125-.0625-.1953-.125-.2109-.1875.0156-.125.0156-.2265 0-.3047 0-.0781.0156-.1562.0469-.2343.0312-.1094.0469-.1953.0469-.2578 0-.0782.0156-.1329.0468-.1641.0625-.1875.086-.3047.0703-.3516 0-.0625.0079-.1093.0235-.1406zm.2344-6.0469c-.1407-.1718-.2344-.289-.2813-.3515-.0312-.0782-.0937-.1328-.1875-.1641-.1406-.1562-.2187-.2344-.2344-.2344-.0625-.125-.1093-.1875-.1406-.1875-.0312-.0156-.0312-.039 0-.0703-.1406-.0469-.2266-.1015-.2578-.164-.1094-.0938-.1797-.1563-.2109-.1875-.0313-.0469-.0625-.086-.0938-.1172-.1406-.0625-.2109-.0938-.2109-.0938 0-.0156-.0078-.0234-.0235-.0234-.0781-.0469-.1484-.0781-.2109-.0938-.0469-.0156-.0859-.039-.1172-.0703-.1719-.1093-.2578-.164-.2578-.164-.1875-.0469-.2969-.0782-.3281-.0938-.0313-.0312-.0625-.0469-.0938-.0469-.1875-.0156-.3047-.0156-.3515 0-.0469-.0156-.0938-.0078-.1407.0235-.0312.0312-.0781.039-.1406.0234-.1562.1094-.2422.1719-.2578.1875 0 .0156-.0156.0391-.0469.0703-.1094.0625-.1953.1094-.2578.1407-.0312.0468-.0625.0859-.0937.1171-.0313.0157-.0547.0469-.0704.0938-.1093.125-.1796.1953-.2109.2109-.0156 0-.0312.0156-.0469.0469-.0937.1563-.1562.2656-.1875.3281 0 .0782-.0234.1485-.0703.211-.0312.0625-.0547.1328-.0703.2109.0156.0937.0156.1641 0 .2109v.1407.1171c.0156.0469.0156.1016 0 .1641-.0312.1406-.0391.2422-.0234.3047.0156.0625.0234.125.0234.1875-.0156.1094-.0156.1875 0 .2344.0156.0312.0234.0703.0234.1172.0157.0781.0235.1953.0235.3515 0 .0625-.0078.125-.0235.1875-.0156.0469-.0156.0938 0 .1407.0625.1874.0938.289.0938.3046.0156.0157.0312.0391.0469.0704.0312.0624.0547.1171.0703.164s.039.0938.0703.1406c.0781.0313.1406.086.1875.1641.0625.0625.1484.1172.2578.1641.0156.0625.1016.1093.2578.1406.2031.0469.3672.0547.4922.0234.125-.0468.2422-.0703.3516-.0703.1562-.0625.2422-.0937.2578-.0937.1875-.1094.2969-.1719.3281-.1875.0469-.0157.0859-.0313.1172-.0469.1094-.0313.1875-.0703.2344-.1172.1406-.0938.2265-.1562.2578-.1875l.2578-.2344c.1094-.1093.1719-.164.1875-.164.0312-.0157.0625-.0391.0937-.0703.0313-.0313.0547-.0626.0704-.0938.0156-.0469.0468-.0859.0937-.1172.0781-.0781.1328-.125.1641-.1406.0312-.0156.0468-.0391.0468-.0703.1094-.125.1875-.2031.2344-.2344.0469-.0469.0938-.0859.1406-.1172.0313-.0312.0469-.0625.0469-.0937.0156-.0313.0391-.0782.0703-.1407.125-.2343.1719-.3828.1407-.4453-.0157-.0625-.0157-.164 0-.3047zm11.8359-4.5234c.1719 0 .2891-.0313.3516-.0937.125-.0938.2031-.1485.2343-.1641.0313-.0156.0625-.0391.0938-.0703.1562-.1406.2656-.2578.3281-.3516.125-.125.1875-.1953.1875-.2109.1094-.1094.1797-.1797.2109-.211.0313-.0312.0625-.0625.0938-.0937.1094-.0469.1875-.0938.2344-.1406.0625-.0625.125-.1094.1875-.1407.1093-.0468.1875-.0859.2343-.1171.1719-.0626.2579-.0938.2579-.0938.0156-.0156.0312-.0234.0468-.0234.0313-.0313.0625-.0547.0938-.0704.0312-.0312.0703-.0624.1172-.0937.0937-.0156.1797-.0469.2578-.0937.1719-.0626.3047-.0938.3984-.0938.1875-.0781.2891-.1172.3047-.1172.0625-.0312.1172-.039.1641-.0234.0468 0 .0859-.0078.1172-.0235.1562.0157.25.0235.2812.0235h.3984c.0782-.0156.1407-.0156.1875 0 .0938.0156.1719.0547.2344.1172s.1406.0937.2344.0937c.0312.0469.0625.0859.0937.1172.0313.0313.0547.0781.0704.1406.125.1094.1796.1641.164.1641 0 0 .0078.0078.0235.0234.0625.1719.0937.2656.0937.2813.0313.1719.0313.3359 0 .4922-.0156.0937-.0234.25-.0234.4687.0156.2188-.0157.3672-.0938.4453.0313.1563.0313.3203 0 .4922 0 .0781-.0078.1563-.0234.2344-.0156.0625-.0235.1328-.0235.2109v.2813c.0157.0937.0235.1875.0235.2812 0 .0625-.0078.125-.0235.1875-.0156.0625-.0312.1172-.0468.1641-.0313.1562-.0547.2656-.0703.3281 0 .0469-.0079.0938-.0235.1406-.0781.2188-.1328.3516-.164.3985-.0469.0469-.0938.0703-.1407.0703-.0312 0-.0703.0078-.1172.0234-.1718.0625-.2734.086-.3046.0703-.0157-.0156-.0469-.039-.0938-.0703-.0469.0156-.0937.0156-.1406 0-.0469-.0312-.0938-.0468-.1406-.0468-.2813.0156-.4532.0312-.5157.0468h-.2578c-.1406.0469-.2344.086-.2812.1172-.0469.0156-.086.0391-.1172.0703-.1719.0313-.2735.0625-.3047.0938-.1094.0156-.1875.0312-.2344.0469-.0312.0156-.0625.0312-.0937.0468-.1719.0313-.2813.0469-.3282.0469-.1093.0469-.1953.1016-.2578.1641-.1718.0625-.2734.1093-.3047.1406-.0312.0312-.0703.0547-.1171.0703-.0313.0469-.0704.0859-.1172.1172-.0313.0156-.0625.0391-.0938.0703-.0937.0625-.164.1172-.2109.1641-.1094.0781-.1875.1484-.2344.2109-.0469.0469-.0937.0859-.1406.1172-.0313.0312-.0703.0625-.1172.0937-.0313.0313-.0625.0625-.0938.0938-.0156.0625-.039.1094-.0703.1406-.0312.0313-.0625.0625-.0937.0938-.0781.1875-.1328.3125-.1641.375-.0312.0468-.0469.1093-.0469.1875-.0625.0625-.1093.1406-.1406.2343-.0156.0782-.039.1719-.0703.2813-.0156.0781-.0312.164-.0469.2578-.0156.0781-.0234.1562-.0234.2344.0312.2031.0312.3359 0 .3984-.0156.1563-.0234.25-.0234.2813.0156.0312.0234.0625.0234.0937-.0156.1719-.0234.2891-.0234.3516.0156.0468.0234.1015.0234.164-.0313.2188-.0547.3594-.0703.4219 0 .0469-.0078.0938-.0235.1406v.1172c.0157.2344.0157.3985 0 .4922-.0156.0781-.0234.1641-.0234.2578v.211c.0156.0625.0234.1328.0234.2109 0 .375.0313.6641.0938.8672.0156.125.0312.2109.0469.2578.0156.0469.0234.0938.0234.1406.0313.125.0469.2344.0469.3282 0 .0937-.0078.1562-.0235.1874-.0156.1094-.0234.1954-.0234.2579-.0781.1406-.1172.2265-.1172.2578 0 .0312-.0078.0625-.0234.0937-.0313.0469-.0781.0938-.1406.1406-.0625.0313-.1094.0704-.1407.1172-.1093-.0156-.2343 0-.375.0469-.1093.0313-.1875.0391-.2343.0235-.0469 0-.0938.0078-.1407.0234-.0468 0-.0937 0-.1406 0-.0469.0156-.0859.0234-.1172.0234-.1875.0156-.289.0156-.3047 0 0 0-.0078 0-.0234 0-.1719 0-.2734-.0078-.3047-.0234-.0156 0-.0312 0-.0469 0l-.6328.0937c-.2344.0157-.3984.0235-.4922.0235-.0781.0156-.1562.0078-.2343-.0235-.2188-.0312-.375-.0625-.4688-.0937-.0781-.0313-.1562-.0469-.2344-.0469-.1093-.0937-.1953-.1641-.2578-.2109-.0625-.0625-.125-.1172-.1875-.1641-.0469-.1562-.0781-.25-.0937-.2812 0-.0313-.0078-.0625-.0235-.0938-.0625-.2187-.0937-.3359-.0937-.3515 0-.2032 0-.3672 0-.4922.0156-.1407.0312-.2578.0469-.3516.0156-.0625.0234-.1797.0234-.3516.0312-.1718.0469-.2656.0469-.2812 0-.0781 0-.1484 0-.211 0-.0624.0078-.1093.0234-.1406.0313-.2187.0469-.3437.0469-.375-.0156-.125-.0235-.1953-.0235-.2109.0157-.0313.0235-.0625.0235-.0938 0-.0781-.0078-.1718-.0235-.2812 0-.1094 0-.2188 0-.3281.0313-.1875.0391-.2891.0235-.3047 0-.0157.0078-.0391.0234-.0703 0-.0782.0078-.1485.0235-.211.0156-.0625.0078-.125-.0235-.1875 0-.1719 0-.2656 0-.2812.0156-.0313.0235-.0625.0235-.0938 0-.125 0-.2343 0-.3281.0156-.1094.0156-.2266 0-.3516 0-.0468-.0079-.0937-.0235-.1406 0-.0625 0-.125 0-.1875 0-.1406.0078-.2656.0235-.375.0156-.125.0156-.25 0-.375-.0157-.2031-.0313-.3672-.0469-.4922 0-.125.0078-.25.0234-.375-.0156-.1562-.0234-.2422-.0234-.2578-.0313-.1094-.0469-.1875-.0469-.2344.0156-.0625.0156-.1328 0-.2109 0-.1406-.0156-.2188-.0469-.2344-.0156-.0312-.0234-.0625-.0234-.0937.0156-.1407.0156-.2422 0-.3047s-.0234-.125-.0234-.1875c.0156-.0625.0234-.1094.0234-.1406.0156-.0469.0234-.0938.0234-.1407-.0156-.1406-.0234-.2187-.0234-.2343.0156-.0157.0234-.0313.0234-.0469l-.0234-.586c0-.1093 0-.1953 0-.2578 0-.0781-.0156-.1562-.0469-.2343-.0156-.0782-.0156-.1719 0-.2813.0156-.125.0156-.2031 0-.2344-.0156-.0468-.0234-.1015-.0234-.164.0156-.0782.0156-.1563 0-.2344s-.0235-.1484-.0235-.2109c0-.0469 0-.0938 0-.1407.0157-.0625.0235-.1172.0235-.164 0-.0782-.0156-.1563-.0469-.2344-.0156-.0781-.0234-.1562-.0234-.2344.0625-.2344.1015-.375.1172-.4218.0156-.0626.0468-.125.0937-.1876.1406-.125.2109-.1953.2109-.2109s.0079-.0234.0235-.0234c.125-.0157.2109-.0157.2578 0 .0469 0 .0781-.0157.0937-.0469.0469.0312.0938.0391.1407.0234.0625-.0156.1172-.0234.164-.0234.25-.0469.5313-.0469.8438 0 .1719.0312.2656.0469.2812.0469.0157-.0157.0313-.0235.0469-.0235h.2813c.0468-.0156.0937-.0234.1406-.0234.1094-.0156.1797-.0156.2109 0 .0469 0 .1016-.0078.1641-.0234.1875-.0313.2969-.0391.3281-.0235.0313 0 .0703-.0078.1172-.0234.0312 0 .0781.0078.1406.0234.0625 0 .1172-.0156.1641-.0469.125.0157.2344.0313.3281.0469.0938 0 .2109.0078.3516.0235.1093.1093.1875.164.2343.164.0469.0469.0782.1328.0938.2578.0469.1407.0625.2266.0469.2578 0 .0313.0078.0626.0234.0938 0 .0781.0156.1719.0469.2812.0312.1094.0469.2188.0469.3282v.2578zm14.0391 12.2578c-.0782-.1875-.1329-.2969-.1641-.3281-.0156-.0469-.0313-.1094-.0469-.1875l.0235-.3047c0-.0625-.0079-.1172-.0235-.1641-.0156-.0625-.0234-.1171-.0234-.164-.0313-.1719-.0625-.2891-.0938-.3516.0157-.0937.0235-.1562.0235-.1875 0-.0469-.0078-.0859-.0235-.1172l-.1406-.2344c-.125.1563-.1797.2344-.1641.2344-.125.0782-.1953.1328-.2109.1641-.0937.0937-.1484.1406-.1641.1406-.0156 0-.039.0156-.0703.0469-.1093.1562-.1953.2656-.2578.3281-.125.1406-.1875.2109-.1875.2109-.0781.0938-.1484.1563-.2109.1876-.0938.0937-.1485.1562-.1641.1874-.0156.0157-.0469.0391-.0937.0704-.1094.125-.1953.2031-.2578.2343-.1407.1563-.2266.2344-.2579.2344-.0312.0313-.0703.0547-.1171.0703-.0469.0313-.086.0625-.1172.0938-.0469.0156-.1328.0234-.2578.0234-.1563 0-.2657 0-.3282 0-.1875-.0625-.2968-.1094-.3281-.1406-.1406-.0313-.2344-.0547-.2812-.0703-.0469-.0157-.0938-.0235-.1407-.0235-.1406-.1093-.2109-.164-.2109-.164-.125-.0313-.1953-.0469-.2109-.0469-.0157-.0156-.0313-.0234-.0469-.0234-.1563-.0625-.2578-.1016-.3047-.1172-.0313-.0313-.0859-.0469-.1641-.0469-.0937-.0625-.1484-.1016-.164-.1172 0-.0312-.0078-.0547-.0235-.0703-.0937-.0625-.1718-.1016-.2343-.1172-.0313-.0781-.0782-.125-.1407-.1406-.0625-.0313-.125-.0703-.1875-.1172-.1093-.1094-.1718-.1641-.1875-.1641 0-.0156-.0156-.039-.0468-.0703l-.211-.2109-.1875-.211c-.125-.1718-.2187-.3046-.2812-.3984-.1563-.1875-.2344-.2969-.2344-.3281-.2031-.1875-.3125-.2891-.3281-.3047-.0782-.0781-.1328-.1562-.1641-.2344-.0781-.1094-.1328-.1953-.1641-.2578-.0625-.0469-.1015-.1172-.1171-.2109 0-.0938 0-.1875 0-.2813-.0313-.125-.0704-.2422-.1172-.3515-.0469-.1094-.0625-.1875-.0469-.2344s.0156-.1094 0-.1875c.0469-.0781.0781-.1484.0937-.211.0313-.0624.086-.1093.1641-.1406.0625-.1562.1016-.2344.1172-.2344.0781-.1093.1328-.1874.1641-.2343.0625-.1094.1015-.1719.1171-.1875.0313-.0313.0625-.0625.0938-.0938.0312-.0625.0937-.1406.1875-.2344.0625-.0468.1172-.1015.1641-.164l.1875-.1875c.125-.1406.2421-.2656.3515-.375.125-.1406.1875-.2109.1875-.2109.0156 0 .0313-.0079.0469-.0235.1562-.125.2422-.2031.2578-.2344.0313-.0312.0625-.0625.0938-.0937.1406-.0938.2187-.1406.2343-.1406.0157 0 .0391-.0078.0703-.0235.1563-.0937.2422-.1484.2579-.164.125-.0782.1953-.1329.2109-.1641.0312-.0312.0625-.0547.0937-.0703.1563-.0938.2657-.1563.3282-.1875.1406-.1094.2109-.1641.2109-.1641.0156 0 .0313-.0078.0469-.0234.1719-.0625.2734-.125.3047-.1875.1562-.0625.2812-.1172.375-.1641.0937-.0625.1953-.1093.3047-.1406.1718-.0781.2812-.1406.3281-.1875.1562-.125.2344-.2031.2344-.2344-.0625-.0468-.1329-.0625-.211-.0468-.0625 0-.1406 0-.2344 0-.1406 0-.2421 0-.3046 0s-.125 0-.1875 0c-.0469 0-.1016.0078-.1641.0234-.0469 0-.1016-.0078-.1641-.0234-.2031-.0313-.3359-.0391-.3984-.0235-.0469 0-.0938 0-.1406 0l-.3985.0235c-.0937-.0313-.1875-.0469-.2812-.0469-.0469.0156-.1016.0234-.1641.0234-.0625-.0156-.1172-.0234-.164-.0234-.0938 0-.1954.0156-.3047.0469-.1094.0156-.2266.0234-.3516.0234-.0469.0156-.1016.0234-.1641.0234-.0468-.0156-.1015-.0234-.164-.0234-.2344 0-.4219 0-.5625 0-.125-.0156-.25-.0156-.375 0-.1875-.0156-.2891-.0313-.3047-.0469-.0156-.0312-.0391-.0625-.0703-.0937-.0781-.1719-.1172-.2657-.1172-.2813.0156-.0312.0234-.0625.0234-.0937.0313-.1563.0469-.25.0469-.2813.0156-.0312.0234-.0625.0234-.0937.0313-.1563.0547-.2344.0704-.2344.0156-.0156.0312-.0391.0468-.0703.0313-.1875.0625-.3203.0938-.3985.0312-.0937.0625-.1796.0937-.2578.0157-.0468.0235-.0859.0235-.1172 0-.0468.0156-.0937.0468-.1406.0625-.1562.0938-.3359.0938-.539.0312-.2032.0703-.3594.1172-.4688.0469-.125.0781-.2344.0937-.3281.0469-.1563.0703-.2657.0703-.3281l.0938-.2813c.1406-.1563.2266-.2734.2578-.3516.0469-.0312.0859-.0547.1172-.0703.0469-.0312.0937-.0625.1406-.0937.125-.0469.2344-.0781.3281-.0938.0938 0 .1485-.0078.1641-.0234.0313-.0156.0625-.0313.0938-.0469.1718.0156.2812.0156.3281 0 .0625-.0156.1328 0 .2109.0469.1094-.0313.1797-.0391.211-.0235h.1406c.0937.0157.1953.0235.3047.0235h.3515.2578c.1875-.0313.2891-.0391.3047-.0235h.0938c.0312.0157.0937.0235.1875.0235.0937-.0156.1484-.0235.164-.0235h.3047c.1407 0 .2735-.0078.3985-.0234.1093-.0156.1797-.0156.2109 0 .0313.0156.0625.0234.0938.0234h.3046c.1719-.0156.2657-.0156.2813 0h.0703l.2578-.0234c.1094 0 .1797.0078.211.0234.0468.0157.0859.0235.1171.0235.1094-.0156.1719-.0156.1875 0 .0313.0156.0625.0234.0938.0234.3281 0 .5547.0313.6797.0938.25.0781.4062.125.4687.1406.125.0937.1875.1406.1875.1406.0157-.0156.0313-.0156.0469 0 .0938.0938.1641.1485.2109.1641.0469 0 .086.0156.1172.0469.0938.0937.1641.164.211.2109.1406.1094.2265.1719.2578.1875.1094.125.1953.2187.2578.2813.0781.0624.1328.1093.1641.1406.0312.0156.0625.039.0937.0703.1563.0937.2422.1641.2578.2109.0156.0469.0547.0782.1172.0938.0469.125.0703.2109.0703.2578.0156.0469.0547.0781.1172.0937.0156.0469.0313.0938.0469.1407.0156.0468.039.1015.0703.164.0469.0782.0625.1406.0469.1875 0 .0313.0078.0625.0234.0938.0156.0781.0313.1406.0469.1875.0312.0312.0547.0625.0703.0937.0625.2344.1094.3985.1406.4922.0313.0781.0625.1563.0938.2344.0312.0625.0468.125.0468.1875.0157.0469.0391.1094.0704.1875.0937.25.1562.4453.1875.5859.0468.125.0859.2656.1171.4219.0313.0937.0547.1953.0704.3047.0312.1094.0546.2031.0703.2812.0156.1719.039.3047.0703.3985l.0703.4219c.0312.125.0547.2421.0703.3515.0313.1094.0469.2266.0469.3516.0625.2187.1172.3672.164.4453.0157.1406.0313.2266.0469.2578.0313.0781.0469.1406.0469.1875 0 .0313.0078.0625.0234.0937.0625.2032.086.3282.0703.375 0 .0469.0079.0938.0235.1407.0312.1093.039.1797.0234.2109v.0469c.0156.0625.0313.1172.0469.1641.0312.0312.0469.0781.0469.1406-.0157.1094-.0157.1875 0 .2344.0312.0468.0547.0937.0703.1406 0 .0937.0078.1562.0234.1875.0156.0156.0313.0469.0469.0937l.0234.3985c.0313.0781.0469.1718.0469.2812 0 .0938.0078.1875.0234.2813.0313.1718.0547.3125.0704.4218.0156.1094.039.211.0703.3047.0156.0625.0234.1172.0234.1641 0 .0312.0156.0625.0469.0937.0625.1407.0937.2344.0937.2813v.1172c0 .0937-.0078.1875-.0234.2812-.0156.0938-.0391.1797-.0703.2578-.0469.1719-.0703.2813-.0703.3282-.1407.1093-.2188.1718-.2344.1875-.0156 0-.0547.0078-.1172.0234s-.1719.0391-.3281.0703c-.2031.0313-.3203.0547-.3516.0703-.0312 0-.0625.0078-.0937.0235-.1563 0-.2344 0-.2344 0 0-.0157-.0078-.0235-.0234-.0235-.125.0157-.1954.0235-.211.0235-.0156-.0157-.039-.0235-.0703-.0235-.2187 0-.3516.0078-.3984.0235-.1094 0-.2032.0078-.2813.0234-.0781 0-.1562 0-.2344 0-.1562.0156-.2656.0391-.3281.0703-.1562.0313-.25.0469-.2812.0469-.1875.0312-.3282.039-.4219.0234-.0938 0-.1953.0078-.3047.0235-.1719.0156-.2656.0234-.2812.0234-.0782.0156-.1719.0078-.2813-.0234-.0937-.0313-.1875-.0625-.2812-.0938zm-.3985-3.3281c-.0156-.2188-.0312-.375-.0469-.4688-.0156-.1093-.0312-.1875-.0468-.2343-.0313-.1407-.0469-.2344-.0469-.2813.0156-.0469.0156-.0859 0-.1172-.0469-.2656-.0703-.4453-.0703-.539 0-.0938-.0156-.1875-.0469-.2813-.0312-.125-.0547-.2031-.0703-.2344-.0156-.0468-.0313-.0859-.0469-.1171-.1094-.0938-.1797-.1329-.2109-.1172-.0313.0156-.0547.039-.0703.0703-.1407.0937-.2188.1484-.2344.164-.1406.0782-.2266.1329-.2578.1641-.0781.0625-.125.1016-.1406.1172-.0157.0156-.0391.039-.0704.0703-.1562.125-.2343.1875-.2343.1875 0-.0156-.0078-.0156-.0235 0-.1562.1094-.25.1875-.2812.2344-.0313.0312-.0703.0625-.1172.0937-.0313.0781-.0703.1407-.1172.1875-.0312.0469-.0625.0938-.0937.1406.0312.0626.0468.1172.0468.1641 0 .0313-.0156.0859-.0468.1641.1093.125.1875.1875.2343.1875.0782.0469.1328.0703.1641.0703.0312 0 .0625.0078.0937.0234.0938.0625.1485.1094.1641.1406.0156.0157.0313.0235.0469.0235.1406.0625.2265.0937.2578.0937.0469 0 .1016.0078.1641.0235.1093.0312.1875.0547.2343.0703.0625 0 .1094.0078.1407.0234.1718.0938.3125.1563.4218.1875.125.0157.2266.0078.3047-.0234zm11.1798-8.9297c.172 0 .289-.0313.351-.0937.125-.0938.204-.1485.235-.1641s.062-.0391.094-.0703c.156-.1406.265-.2578.328-.3516.125-.125.187-.1953.187-.2109.11-.1094.18-.1797.211-.211.031-.0312.063-.0625.094-.0937.109-.0469.187-.0938.234-.1406.063-.0625.125-.1094.188-.1407.109-.0468.187-.0859.234-.1171.172-.0626.258-.0938.258-.0938.016-.0156.031-.0234.047-.0234.031-.0313.062-.0547.094-.0704.031-.0312.07-.0624.117-.0937.094-.0156.179-.0469.258-.0937.171-.0626.304-.0938.398-.0938.188-.0781.289-.1172.305-.1172.062-.0312.117-.039.164-.0234.047 0 .086-.0078.117-.0235.156.0157.25.0235.281.0235h.399c.078-.0156.14-.0156.187 0 .094.0156.172.0547.235.1172.062.0625.14.0937.234.0937.031.0469.062.0859.094.1172.031.0313.054.0781.07.1406.125.1094.18.1641.164.1641 0 0 .008.0078.023.0234.063.1719.094.2656.094.2813.031.1719.031.3359 0 .4922-.015.0937-.023.25-.023.4687.015.2188-.016.3672-.094.4453.031.1563.031.3203 0 .4922 0 .0781-.008.1563-.023.2344-.016.0625-.024.1328-.024.2109v.2813c.016.0937.024.1875.024.2812 0 .0625-.008.125-.024.1875-.015.0625-.031.1172-.047.1641-.031.1562-.054.2656-.07.3281 0 .0469-.008.0938-.023.1406-.079.2188-.133.3516-.165.3985-.046.0469-.093.0703-.14.0703-.031 0-.07.0078-.117.0234-.172.0625-.274.086-.305.0703-.016-.0156-.047-.039-.094-.0703-.047.0156-.094.0156-.14 0-.047-.0312-.094-.0468-.141-.0468-.281.0156-.453.0312-.516.0468h-.257c-.141.0469-.235.086-.282.1172-.047.0156-.086.0391-.117.0703-.172.0313-.273.0625-.305.0938-.109.0156-.187.0312-.234.0469-.031.0156-.062.0312-.094.0468-.172.0313-.281.0469-.328.0469-.109.0469-.195.1016-.258.1641-.172.0625-.273.1093-.304.1406-.032.0312-.071.0547-.118.0703-.031.0469-.07.0859-.117.1172-.031.0156-.062.0391-.093.0703-.094.0625-.165.1172-.211.1641-.11.0781-.188.1484-.235.2109-.047.0469-.094.0859-.14.1172-.032.0312-.071.0625-.118.0937-.031.0313-.062.0625-.093.0938-.016.0625-.039.1094-.071.1406-.031.0313-.062.0625-.093.0938-.079.1875-.133.3125-.164.375-.032.0468-.047.1093-.047.1875-.063.0625-.11.1406-.141.2343-.016.0782-.039.1719-.07.2813-.016.0781-.032.164-.047.2578-.016.0781-.024.1562-.024.2344.032.2031.032.3359 0 .3984-.015.1563-.023.25-.023.2813.016.0312.023.0625.023.0937-.015.1719-.023.2891-.023.3516.016.0468.023.1015.023.164-.031.2188-.054.3594-.07.4219 0 .0469-.008.0938-.023.1406v.1172c.015.2344.015.3985 0 .4922-.016.0781-.024.1641-.024.2578v.211c.016.0625.024.1328.024.2109 0 .375.031.6641.093.8672.016.125.032.2109.047.2578.016.0469.024.0938.024.1406.031.125.047.2344.047.3282 0 .0937-.008.1562-.024.1874-.015.1094-.023.1954-.023.2579-.078.1406-.117.2265-.117.2578 0 .0312-.008.0625-.024.0937-.031.0469-.078.0938-.141.1406-.062.0313-.109.0704-.14.1172-.11-.0156-.2345 0-.3752.0469-.1093.0313-.1875.0391-.2343.0235-.0469 0-.0938.0078-.1407.0234-.0468 0-.0937 0-.1406 0-.0469.0156-.0859.0234-.1172.0234-.1875.0156-.289.0156-.3047 0 0 0-.0078 0-.0234 0-.1719 0-.2734-.0078-.3047-.0234-.0156 0-.0312 0-.0469 0l-.6328.0937c-.2343.0157-.3984.0235-.4922.0235-.0781.0156-.1562.0078-.2343-.0235-.2188-.0312-.375-.0625-.4688-.0937-.0781-.0313-.1562-.0469-.2344-.0469-.1093-.0937-.1953-.1641-.2578-.2109-.0625-.0625-.125-.1172-.1875-.1641-.0468-.1562-.0781-.25-.0937-.2812 0-.0313-.0078-.0625-.0235-.0938-.0625-.2187-.0937-.3359-.0937-.3515 0-.2032 0-.3672 0-.4922.0156-.1407.0312-.2578.0469-.3516.0156-.0625.0234-.1797.0234-.3516.0313-.1718.0469-.2656.0469-.2812 0-.0781 0-.1484 0-.211 0-.0624.0078-.1093.0234-.1406.0313-.2187.0469-.3437.0469-.375-.0156-.125-.0234-.1953-.0234-.2109.0156-.0313.0234-.0625.0234-.0938 0-.0781-.0078-.1718-.0234-.2812 0-.1094 0-.2188 0-.3281.0312-.1875.039-.2891.0234-.3047 0-.0157.0078-.0391.0234-.0703 0-.0782.0078-.1485.0235-.211.0156-.0625.0078-.125-.0235-.1875 0-.1719 0-.2656 0-.2812.0157-.0313.0235-.0625.0235-.0938 0-.125 0-.2343 0-.3281.0156-.1094.0156-.2266 0-.3516 0-.0468-.0078-.0937-.0235-.1406 0-.0625 0-.125 0-.1875 0-.1406.0078-.2656.0235-.375.0156-.125.0156-.25 0-.375-.0157-.2031-.0313-.3672-.0469-.4922 0-.125.0078-.25.0234-.375-.0156-.1562-.0234-.2422-.0234-.2578-.0313-.1094-.0469-.1875-.0469-.2344.0156-.0625.0156-.1328 0-.2109 0-.1406-.0156-.2188-.0469-.2344-.0156-.0312-.0234-.0625-.0234-.0937.0156-.1407.0156-.2422 0-.3047s-.0234-.125-.0234-.1875c.0156-.0625.0234-.1094.0234-.1406.0156-.0469.0234-.0938.0234-.1407-.0156-.1406-.0234-.2187-.0234-.2343.0156-.0157.0234-.0313.0234-.0469l-.0234-.586c0-.1093 0-.1953 0-.2578 0-.0781-.0156-.1562-.0469-.2343-.0156-.0782-.0156-.1719 0-.2813.0157-.125.0157-.2031 0-.2344-.0156-.0468-.0234-.1015-.0234-.164.0156-.0782.0156-.1563 0-.2344s-.0234-.1484-.0234-.2109c0-.0469 0-.0938 0-.1407.0156-.0625.0234-.1172.0234-.164 0-.0782-.0156-.1563-.0469-.2344-.0156-.0781-.0234-.1562-.0234-.2344.0625-.2344.1015-.375.1172-.4218.0156-.0626.0468-.125.0937-.1876.1406-.125.211-.1953.211-.2109s.0078-.0234.0234-.0234c.125-.0157.2109-.0157.2578 0 .0469 0 .0781-.0157.0938-.0469.0468.0312.0937.0391.1406.0234.0625-.0156.1172-.0234.164-.0234.25-.0469.5313-.0469.8438 0 .1719.0312.2656.0469.2812.0469.0157-.0157.0313-.0235.0469-.0235h.2813c.0468-.0156.0937-.0234.1406-.0234.1094-.0156.1797-.0156.2109 0 .0469 0 .1016-.0078.1641-.0234.1875-.0313.2969-.0391.3281-.0235.0313 0 .0703-.0078.1172-.0234.0313 0 .0781.0078.1406.0234.0625 0 .1172-.0156.1641-.0469.125.0157.2344.0313.3281.0469.0938 0 .2113.0078.3513.0235.11.1093.188.164.235.164.047.0469.078.1328.093.2578.047.1407.063.2266.047.2578 0 .0313.008.0626.024.0938 0 .0781.015.1719.047.2812.031.1094.046.2188.046.3282v.2578z" fill="#693821"/></svg>