<svg fill="none" height="70" viewBox="0 0 196 70" width="196" xmlns="http://www.w3.org/2000/svg" xmlns:xlink="http://www.w3.org/1999/xlink"><linearGradient id="a"><stop offset="0" stop-color="#cf5c2b"/><stop offset="1" stop-color="#59173e"/></linearGradient><linearGradient id="b" gradientUnits="userSpaceOnUse" x1="150.289" x2="117.345" xlink:href="#a" y1="-103.532" y2="-13.1419"/><linearGradient id="c" gradientUnits="userSpaceOnUse" x1="111.533" x2="81.5952" xlink:href="#a" y1="-30.9254" y2="130.054"/><linearGradient id="d" gradientUnits="userSpaceOnUse" x1="111.03" x2="72.6373" xlink:href="#a" y1="-25.9304" y2="173.965"/><linearGradient id="e" gradientUnits="userSpaceOnUse" x1="103.079" x2="100.535" xlink:href="#a" y1="88.1012" y2="44.177"/><linearGradient id="f" gradientUnits="userSpaceOnUse" x1="166.016" x2="155.494" xlink:href="#a" y1="16.5635" y2="45.2416"/><linearGradient id="g" gradientUnits="userSpaceOnUse" x1="202.528" x2="111.612" xlink:href="#a" y1="-64.9342" y2="150.149"/><linearGradient id="h" gradientUnits="userSpaceOnUse" x1="148.859" x2="142.222" xlink:href="#a" y1="14.3183" y2="32.4068"/><linearGradient id="i" gradientUnits="userSpaceOnUse" x1="171.891" x2="114.546" xlink:href="#a" y1="-37.0857" y2="98.5767"/><linearGradient id="j" gradientUnits="userSpaceOnUse" x1="37.6238" x2="30.987" xlink:href="#a" y1="28.6854" y2="46.7739"/><linearGradient id="k" gradientUnits="userSpaceOnUse" x1="60.6564" x2="3.31143" xlink:href="#a" y1="-22.7174" y2="112.946"/><path d="m195.859 55.7615c-.101-1.446-.202-2.892-.289-4.338-.087-1.5169-.188-3.048-.275-4.5649-.057-1.0349-.144-2.1406-.173-3.218-.029-.8932.347-2.3675-.145-3.1756-.289-.482-.925-.6237-1.488-.723-.737-.1276-1.475-.2551-2.212-.3827.998-.2269 1.966-.5104 2.92-.8648.217-.0851.434-.1701.578-.3402.13-.156.174-.3686.202-.5529.333-1.9847.116-4.0828.116-6.0959-.014-2.0414-.014-4.097-.029-6.1384-.014-1.9422-.014-3.8985-.029-5.8407 0-.638.275-2.0414-.058-2.6085-.26-.4678-.881-.4395-1.358-.4962-.492-.0567-.983-.0567-1.474-.0283-.738.0425-1.46.1559-2.183.2693.954-.2552 1.937-.3827 2.891-.6096.621-.1417 1.228-.3402 1.806-.6379.347-.1843.723-.3402.925-.6947.087-.1417.116-.326.159-.4961.087-.3544.102-.723.131-1.0916.057-1.0065.101-2.0131.115-3.0338.015-.51034.015-1.02069 0-1.53105 0-.32606-.13-.63794-.159-.97817-.13-1.37512-.694-2.69353-1.59-3.75677-.896-1.04906-2.124-1.81459-3.483-2.169-.506-.12759-1.012-.19847-1.532-.22683-61.109-1.885467-121.0033-1.95635-179.5971.02836-.23126.01417-.47696-.01418-.70822.04253-.23125.07088-.4625.15594-.70821.241-.47696.17012-.95392.34023-1.41643.56706-.8961.42529-1.7344.99235-2.31253 1.78623-.33243.46783-.56368.99236-.8672 1.46018-.15899.241-.36133.42529-.49141.68047-.6215 1.21918-1.24299 2.45253-2.11019 3.52994-.838294 1.04905-1.0840002 2.72185-.9972802 4.01195.1300802 1.7579.1734402 3.5299.3324262 5.2878.26016 2.7928.014454 5.5856.332427 8.4067.04336.3969.115627.8506.419147 1.1057.2168.1843.50587.2552.78048.3119.89611.1985 1.80667.3828 2.70277.5813-1.1129.7088-2.77504.7655-3.36762 1.928-.1879.3827-.216804.808-.24571 1.2333-.101174 1.5027-.245707 2.9913-.34688 4.4798-.04336.6663-.08672 1.3468-.101174 2.013-.028906.638-.072266 1.2618-.144533 1.8997-.144533 1.4885-.534773 3.4165-.072267 4.8767.448054 1.4035 2.240264 1.4602 3.468804 1.8004-.6504.0709-1.14182.5954-1.53206 1.12-.18789.2693-.33242.5387-.50586.808-.15899.241-.30352.482-.4336.7372-.26016.5103-.476964 1.0349-.63595 1.5878-.101174.3686-.158987.6521-.17344 1.0348-.014454.3403-.028907.6805-.04336 1.0207-.028907.6805-.04336 1.361-.057814 2.0415-.028906 1.3609-.04336 2.7218-.028906 4.0828.014453 1.3184-.3035202 2.5943.26016 3.8843.56368 1.2901 1.53205 2.3959 2.74613 3.1189.98283.5954 2.09574.9073 3.252.964 58.9262 2.5376 118.8354 2.5092 179.6694-.0142 1.604-.0709 3.151-.6947 4.336-1.7721.564-.5103 1.07-.964 1.489-1.6161.52-.7797.997-1.5878 1.445-2.41 1.098-1.9989 2.472-4.2246 2.298-6.5353z" fill="url(#b)"/><path d="m189.181 63.0065c-60.849 2.5092-120.7434 2.5517-179.66958.0141-2.61606 0-5.05867-1.8429-6.0415-4.1537-.4336-1.0349-.52032-2.1548-.4625-3.2606.01445-.1984.0289-.3827.08672-.5812.08672-.2977.23125-.5529.26016-.8648.01445-.1701.04336-.3119.05781-.482.10117-.8789.13008-1.772.20235-2.651.04336-.4961.10117-1.0065.2457-1.4885.15899-.5529.41915-1.0491.8672-1.3893 1.93675-1.4318 5.73794-1.4035 8.55634-1.4602.5493-.0142 1.0551-.0283 1.5176-.0567 1.2286-.0709 2.4571-.0992 3.6856-.0992-2.9195-.0142-5.8247-.2552-8.70087-.7514-1.35861-.2268-2.71723-.5103-4.06139-.8506-.31797-.0708-.66485-.1843-.96837-.326-.41915-.1843-.78048-.4537-.96837-.8506-.15899-.3402-.14454-.7372-.14454-1.0916.01446-.3544-.04336-.723-.01445-1.0774.02891-.7655.13008-1.5027.20235-2.2541.07226-.6096.14453-1.2192.18789-1.8429.10117-1.6303.20235-3.2606.33243-4.8909.04336-.4962.10117-1.0349.44805-1.3751.2168-.2127.49141-.3119.76603-.4111.75157-.2694 1.5176-.4679 2.29808-.5955.40469-.0708.80938-.0708 1.15626-.1559.41915-.1276.73712-.2126 1.1852-.2552 4.2926-.4961 8.5853-.9781 12.8923-1.4743.5059-.0567 1.0262-.1134 1.5466-.1701-6.4751-.7656-12.9647-1.5595-19.43978-2.325-.28906-.0425-.56368-.0709-.85274-.0992-.26016-.0284-.53478-.0709-.70822-.2552-.01445-.0142-.0289-.0284-.04336-.0425-.13008-.1701-.14453-.3686-.17344-.5813-.28906-3.4307.04336-6.9748-.15898-10.448-.01446-.1985-.07227-1.1625-.13008-2.2683-.07227-1.6019-.1879-3.43068-.23126-3.43068-.27461-3.81347 2.70278-7.10242 6.60518-7.23001 58.57938-1.998879 118.47358-1.927997 179.53958 0 3.917.12759 6.923 3.43071 6.619 7.27254-.101 1.30425.159 2.56595-.173 3.88435-.072.3119-.174.6238-.419.8364-.217.1843-.506.2552-.781.3119-.737.1701-1.474.3544-2.211.5245-.983.2269-1.951.4395-2.949.5529-5.897.6096-11.765 1.2334-17.647 1.8571-.159.0142-.318.0284-.477.0426-.188.0141-.376.0425-.564.0567.477-.0142.94-.0142 1.402-.0142 7.371-.1276 14.757-.241 22.143-.3686.202 0 .433 0 .592.1276.188.1418.232.3828.26.6096.044.3119.044.6096.044.8931-.015.9215-.174 1.8004-.174 2.7361 0 .8222.203 1.6303.203 2.4808-.015 1.2192-.058 2.4384-.101 3.6718-.116 2.7785-.318 5.5997-.622 8.3924-.043.4112-.101.8364-.376 1.1342-.216.2268-.534.3544-.838.4536-.188.0709-.376.1276-.578.1701-4.336 1.2192-9.077.2552-13.528 1.0065-.29.0426-.593.0993-.868.1702-.101.0141-.202.0425-.289.0708.362.0284.723.0426 1.084.0851 4.871.3402 9.727.8222 14.569 1.4318.564.0709 1.2.1701 1.532.6238.26.3402.26.8081.26 1.2334v1.4034c0 1.4177 0 2.8353.073 4.253.086 1.8713.202 3.7426.332 5.628.058.9215.116 1.843.188 2.7503.26 3.7993-2.703 7.074-6.576 7.2442z" fill="url(#c)"/><path d="m194.92 23.2958c-.015 1.2192-.058 2.4384-.102 3.6717-2.5.2269-4.943.4112-7.342.6805-.564.0567-1.113.1134-1.677.1843-2.066.2127-4.133.4111-6.2.5812-1.026.0851-2.067.1702-3.107.2552-.665.0567-1.258.3119-1.894.3828-.896.0992-1.879-.1276-2.789-.1843-1.012-.0567-2.024-.0851-3.036-.0709-2.023.0284-4.061.1701-6.07.397-4.047.4536-8.036 1.205-12.054 1.8571-6.432 1.049-12.892 1.8571-19.396 2.3816 3.541.3403 7.053.9073 10.507 1.687-1.301.0993-2.601.1985-3.902.2694-4.134.2552-8.268.3827-12.401.4536-4.134.0709-8.282.0709-12.416.0567-4.133 0-8.281-.0141-12.415.0142-4.1336.0425-8.2673.1276-12.4009.3119-2.0669.0992-4.1337.2126-6.1861.3686-.5203.0425-1.0262.085-1.5465.1276-.6215.0567-1.2285.2268-1.8645.2977-4.9286.567-9.8571 1.2759-14.7279 2.2115-7.5736 1.4602-15.1905 2.892-22.8941 3.4024-1.3875.085-2.7895.1701-4.177.2551-6.6341 1.3043-13.8029 1.5736-20.3069 2.3533-2.2114.2694-4.4661.4112-6.72083.4962-1.35862-.2268-2.71723-.5103-4.06139-.8506-.31797-.0709-.66485-.1843-.96837-.326-.41915-.1843-.78048-.4537-.96838-.8506-.15898-.3403-.14453-.7372-.14453-1.0916.01445-.3544-.04336-.723-.01445-1.0774.0289-.7656.13008-1.5027.20234-2.2541 5.95478-.482 12.06851-2.169 17.79201-2.9912 7.3568-1.0349 14.8581-1.6445 22.2726-2.0556 8.3974-.4537 16.7803.5245 25.1488.5245 7.7615 0 15.494-.6663 23.2121-1.2759 15.046-1.1908 30.063-2.4241 45.08-3.7-3.267-.0567-6.533-.1418-9.799-.2552-4.163-.1418-8.326-.3261-12.488-.5387-.968-.0425-1.966-.1701-2.92-.0709-.997.1134-2.009.1418-3.006.1276-1.98-.0284-3.96-.2694-5.882-.7372-1.128-.2693-2.255-.6238-3.397-.8222-1.9368-.3261-3.9169-.2268-5.897-.2552-7.3567-.0992-14.5978-1.9989-21.9546-1.928-1.9367.0142-3.859.1701-5.7813.3402-2.0379.1843-4.0903.3686-6.1427.4253-.9106.0284-1.85.0851-2.7317-.1134-.6793-.1559-1.4598-.085-2.1535-.0992-1.243-.0284-2.486-.0567-3.729-.0851-2.486-.0567-4.9719-.085-7.4723-.0992-9.4381-.0425-18.8472.4678-28.2852.3969-4.018-.0283-8.12279-.1134-12.09746-.6804-.01445-.0142-.02891-.0284-.04336-.0426-.13008-.1701-.14453-.3686-.17344-.5812-.28907-3.4307.04336-6.9748-.15899-10.4481-.01445-.1984-.07226-1.1624-.13007-2.2682 4.81295-.4111 9.65482-.5104 14.46782-.8506 9.4235-.6805 18.8471-.9782 28.314-.9357 18.746.0851 37.4486 1.2618 56.1368 2.6511 18.703 1.3892 37.362 3.1046 56.064 4.4088 9.453.6522 18.92 1.0633 28.387 1.0633 2.775 0 5.579-.1701 8.383-.3686-.015.9215-.174 1.8004-.174 2.736.044.8932.246 1.7012.232 2.5376zm.303 24.0859c-.072-1.4177-.072-2.8353-.072-4.253-5.969-.6379-11.953-1.29-17.951-1.7011-10.291-.6947-20.64-.5813-30.945-.1702-2.139.0851-4.249.1418-6.374.397-1.026.1276-2.052.2552-3.078.3686-4.119.482-8.239.8647-12.372 1.1766-1.605.1134-3.223.2268-4.842.3261 4.177-.0284 8.354-.0567 12.531-.0851 4.177-.0283 8.354-.0567 12.531-.085 2.081-.0142 4.177-.0284 6.258-.0426 1.041-.0141 2.081-.0141 3.137-.0283.433 0 .896.0283 1.329-.0709.26-.0567.521-.1559.781-.1985.939-.1417 1.98.0426 2.919.0993 1.041.0567 2.067.1134 3.108.1701 2.067.1276 4.148.2693 6.215.4111 3.266.241 6.518.5104 9.77.7939 3.556.3119 7.082.723 10.623 1.1483-8.036.7513-16.057 1.531-24.108 1.9705-18.529 1.0065-37.058 2.2682-55.616 1.8997-18.2982-.3403-36.5527-1.3752-54.8651-1.3043-9.6548.0284-19.2952.1843-28.9211.4678-7.1111.1985-14.3088.1702-21.4054.879-.14453.4678-.20235.9923-.24571 1.4885-.07226.879-.10117 1.7721-.20234 2.651 7.90595.3119 15.89865-.2126 23.79015-.2268 9.6404-.0142 19.2808.0709 28.9211.2977 18.2691.4253 36.5236 1.4177 54.7784 1.7295 18.587.3261 37.13-.9781 55.674-1.8996 9.568-.4678 19.194-.482 28.762-.5812h.203c-.131-1.8855-.246-3.7426-.333-5.6281z" fill="url(#d)"/><g fill="#eb924d"><path d="m4.58088 42.5207c-.01445.7089-.01445 1.4319.2168 2.0982-.41914-.1843-.78048-.4537-.96837-.8506-.15899-.3403-.14453-.7372-.14453-1.0916.01445-.3544-.04336-.723-.01446-1.0774.05782-1.3752.31798-2.7219.39024-4.097.10118-1.6303.20235-3.2606.33243-4.8909.04336-.4962.10117-1.0349.44805-1.3751.2168-.2127.49142-.3119.76603-.4112.75157-.2693 1.5176-.4678 2.29808-.5954.36133-.085.76603-.085 1.11291-.1701.41914-.1276.73712-.2126 1.18514-.2552 4.2927-.4961 8.5853-.9781 12.8924-1.4743-4.6106.9214-9.2212 1.8146-13.84629 2.736-.89611.1702-2.09573.1702-2.84731.7514-.15898.1134-.28906.2552-.41914.3969-.11563.1276-.2168.2694-.34688.397-.24571.2126-.33243.5529-.44806.8506-.30352.8647-.47696 1.772-.52032 2.6793-.01445.3403-.01445.6947-.05781 1.0349-.01445.0851-.02891.1701-.04336.2552-.01445.0992-.07227.1701-.10117.2693-.23126.6947-.20235 1.4602-.10118 2.169.04336.2552.13008.5104.1879.7656.14453.6096.04336 1.2617.0289 1.8854z"/><path d="m171.027 16.7769c-.26-.0142-.521-.0283-.781-.0425h1.244c-.145 0-.304.0283-.463.0425z"/><path d="m175.281 37.8008c1.2.1134 2.4.2268 3.599.3119-.289.0425-.592.0992-.867.1701-.925-.1701-1.85-.3403-2.732-.482z"/><path d="m192.941 36.0563c.188-.7372.145-1.5027.073-2.2541-.102-1.3893-.217-2.7927-.318-4.182-.015-.2694-.058-.5671-.275-.7372-.173-.1418-.419-.1418-.636-.1276-1.792.0567-3.57.1134-5.333.1701 1.922-.1701 3.83-.6663 5.564-1.4885.506-.241 1.026-.5387 1.214-1.0349.102-.2552.102-.5387.102-.8222-.029-2.1974-.42-4.6499-.694-6.8331-.839-.7797-2.096-.8789-3.252-.9498-4.654-.2835-9.323-.5529-13.962-.8364-1.113-.0709-2.356-.1134-3.541-.1701 7.371-.1276 14.757-.241 22.142-.3686.203 0 .434 0 .593.1276.188.1417.231.3827.26.6096.159 1.2475-.144 2.3958-.144 3.6291 0 .8223.202 1.6303.202 2.4809-.072 3.9411-.289 8.0523-.737 12.0642-.044.4111-.101.8364-.376 1.1341-.217.2268-.535.3544-.838.4537-.188.0709-.376.1276-.578.1701.245-.2835.433-.6521.534-1.0349z"/><path d="m3.28203 14.3953c-.02891-.4678-.28907-5.68478-.37579-5.68478-.27461-3.81347 2.70278-7.10242 6.60517-7.23001 58.57939-1.998879 118.47359-1.927997 179.53959 0 3.917.12759 6.923 3.43071 6.619 7.27254-.101 1.30425.159 2.56595-.173 3.88435-.072.3119-.174.6238-.419.8364-.217.1843-.506.2552-.781.3119-.737.1701-1.46.3686-2.197.5245.636-.567 1.373-1.2333 1.662-2.0556.203-.5528.044-1.0348-.144-1.5594-.289-.82221-.347-1.60191-.376-2.46668-.043-1.06324.145-2.58012-.708-3.43071-.65-.63794-1.503-1.19082-2.313-1.58776-2.009-.96401-4.336-1.17665-6.547-1.26171-.116 0-.217-.01418-.332-.01418-4.076-.12759-8.167-.14176-12.242.26936-.492.04252-.925.18429-1.402.26935-.593.11341-1.301-.02835-1.908-.05671-1.388-.07088-2.761-.12759-4.148-.18429-2.761-.09924-5.536-.17012-8.311-.21265-2.081-.02835-4.148-.02835-6.229-.02835-.651 0-1.316 0-1.966 0-1.257 0-2.515 0-3.787 0-1.749 0-3.497 0-5.246-.01418-.087 0-.174 0-.246 0-2.775 0-5.536-.01418-8.311-.01418-1.387 0-2.775 0-4.148-.01417-.636 0-1.344.08506-1.965-.02835-.636-.11342-1.142-.49618-1.807-.55289-.607-.0567-1.229.04253-1.821.09924-1.518.11341-3.021.25517-4.524.42529-.679.07088-1.431.1843-1.879.68047-.159.17012-.275.38277-.463.52453-.419.29771-1.011.09924-1.503-.07088-.968-.32606-1.994-.51035-3.035-.55288-.939-.04253-1.864.12759-2.804.07088-.592-.02835-1.156-.17012-1.734-.28353-2.284-.43947-4.6687-.46782-6.9668-.63794-1.7054-.12759-3.4254-.21265-5.1453-.26935-5.5357-.19847-11.0857-.08506-16.6069.14176-2.7751.11341-5.5356.25518-8.3107.4253-1.2719.07088-2.6738.34023-3.9313.17011-.3613-.04253-.7082-.18429-1.0695-.25517-.3758-.07089-.7516-.05671-1.1418-.05671-1.5321.01418-3.0786.02835-4.6107.02835-1.7922.01418-3.5988 0-5.4055 0-.607 0-1.1996.11342-1.7922.11342-.5492 0-1.084-.11342-1.6332-.11342-1.1419.01418-2.2692.22683-3.3243.65212-.4047.17012-.8238.35441-1.2719.34024-.8094-.04253-1.3586-.79389-2.0957-1.13412-1.7344-.808061-3.5266.73718-5.3044.11341-.8817-.31188-1.7778-.26935-2.7172-.26935-1.1852-.01418-2.3704-.01418-3.5556-.01418-4.018.01418-8.036.15594-12.0251.55288-1.9946.19847-3.9747.46783-5.9548.80806-.9539.17012-1.92228.43947-2.89066.55289-.27461.02835-.49141.02835-.75157.21264-1.18517.80806-4.43717 5.33036-2.11019 6.91814.14454.0992.30352.1843.47696.2552.24571.0992.50587.1417.76603.2268.26016.0992.59259.0283.8672.0283.66485 0 1.3297 0 1.9801-.0141.70823 0 1.41643-.0142 2.08133.1843-1.50319.3118-3.00634.6095-4.50948.9073-.49142.0992-.98283.1984-1.44534.3969-.07226.0425-.15898.0567-.2457.0851-.31798.1134-.54923.4961-.66486.7938-.30352.7797-.11562 1.6303-.2457 2.4384-.23126 1.446.05781 3.0054.20234 4.4372.1879 1.843.41915 3.7001.69376 5.543-.28906-.0425-.56368-.0708-.85274-.0992-.27462-.0284-.56368-.0709-.75158-.2835-.13008-.1701-.14453-.3686-.17344-.5813-.28906-3.459.04336-7.0031-.14453-10.4622z"/><path d="m195.741 55.7612c-.202-2.7928-.375-5.5856-.52-8.3783-.087-1.8855-.072-3.771-.072-5.6565 0-.4253-.015-.8789-.26-1.2333-.333-.4537-.969-.5529-1.532-.6238-4.842-.6096-9.699-1.0916-14.569-1.4318 4.336.8222 8.816 1.8713 12.935 2.9912.81.2269.868.8364 1.2 1.5878.318.7514.347 1.6019.376 2.41.014.3402.014.6805-.101 1.0065-.246.723-1.027 1.12-1.72 1.4602.52.1418 1.04.2835 1.575.4395.13.0425.26.0709.347.1701.101.0992.145.2694.159.4253.202 1.3468.043 2.7644.058 4.1254.014.8789.014 1.7578.029 2.6368.014.241.101.4678.159.723.086.5103.029 1.0349-.13 1.531-.318 1.0207-1.027 1.928-1.937 2.5093-1.576 1.0065-3.541 1.2192-5.42 1.3467-3.137.2269-6.287.1985-9.409.4962-1.041.0851-2.067.1843-3.108.2694-2.067.1701-4.148.3119-6.215.4536-3.917.2552-7.848.4537-11.765.5813-9.279.3118-18.572.2835-27.866.2268-1.113-.0284-2.24-.0284-3.353-.0284-.91 0-1.778.1134-2.674.0284-2.182-.2127-4.35.1701-6.518.4111-2.53.2694-5.247.2977-7.429-.9782-.694-.4111-1.373-.9498-2.183-.9782-.665-.0141-1.286.3545-1.893.638-1.156.5387-2.428.8364-3.7.9923-.029 0-.043 0-.072.0142-2.7031.3403-5.3047.156-8.0075-.0283-1.9801-.1276-4.0614.1984-5.9548-.4962-1.4598-.5245-2.9918-1.2759-4.495-.879-.5348.1418-1.0117.4253-1.5176.6238-.9828.3828-2.0668.4537-3.1219.5104-.6649.0283-1.3297.0567-1.9946.085-2.7605.0851-5.5356.0709-8.2962-.0425-1.1562-.0567-2.3414-.0425-3.4688-.3686-.7805-.2268-1.5465-.0851-2.3559-.0283-3.3531.2126-6.7208.2693-10.0884.1559-1.3731-.0425-2.7461-.1134-4.1047-.2127-.6649-.0425-1.3587-.1701-2.0235-.1701-.4625 0-.8817.1418-1.3442.1418-2.7895-.0142-5.5645-.0567-8.354-.0851-4.7551-.0425-9.5247-.0992-14.2799-.1417-3.252.4394-5.9837-.1134-9.2068-.6947-2.64492-.482-5.52113-1.531-6.61959-3.941-.4625-1.0066-.53477-2.1265-.49141-3.2039.01445-.3261.04336-.638 0-.964-.04336-.2977-.14453-.5671-.18789-.8648-.14454-.9782.15898-2.1123.40469-3.0621.13008-.482.28907-.9924.6504-1.361.31797-.3402.76603-.5387 1.21408-.6804 1.18517-.3686 2.44261-.4537 3.68562-.5246 1.7922-.0992 3.5844-.2126 5.3766-.3118.3614-.0142.7227-.0426 1.084-.0567-.0433-.1702-.0722-.3403-.0722-.5246l.0144-.0709c-1.0984-.0283-2.1969-.0283-3.2954-.0425-2.8328.0567-6.61958.0425-8.55633 1.4602-.8672.6379-1.02618 1.8146-1.1129 2.8636-.08672 1.0349-.11563 2.0982-.26016 3.133-.04336.3119-.17344.5671-.26016.8648-.05782.1985-.07227.3828-.08672.5812-.05782 1.12.0289 2.2399.4625 3.2606.96838 2.325 3.41099 4.1537 6.0415 4.1537 58.92627 2.5376 118.82077 2.5093 179.66977-.0141 3.873-.156 6.836-3.4307 6.561-7.23z"/><path d="m13.7754 35.1626c0 .7655.0289 1.5452.0723 2.3108.0144.3827.0433.7655.0722 1.1483.0145.2835 0 .5954.0578.8647.0579.2268.1157.4253.1157.6663.0289.6521.0578 1.3184.1011 1.9705.0579 1.3185.1301 2.6227.1879 3.9411.0868 1.687.159 3.3598.2457 5.0468.0434.9357.2024 1.7437.7083 2.5376.1011.156.1878.3119.3035.4537.1879.241.4191.4111.7082.5387 1.0551.4536 2.2547.6946 3.3965.8648 1.7633.2693 3.5411.3402 5.3188.3969 23.4289.808 46.8867 1.6303 70.33 1.0632 2.8617-.0709 5.8246-.1417 8.4836.9073-1.214-2.1265-4.1476-2.4383-6.6336-2.495-26.0449-.5813-52.1043-1.2334-78.0625-3.3599-.7082-.0567-1.4887-.1417-1.9945-.6521-.3614-.3544-.5059-.8647-.6215-1.3468-1.3297-5.2594-1.5899-10.7741-.7805-16.1328.0434-.326.1445-.6805.1301-1.0065-.0145-.3403-.0578-.6805-.0578-1.0349-.0145-.7088.0144-1.4318.0867-2.1407-.1012-.1701-.3469-.1701-.5348-.1417-.4914.0567-.9828.0992-1.4887.1559.0289.4678 0 .9073-.0578 1.3751-.0144.156.0145.2694.0289.4253.0289.3119-.0289.638-.0433.9357-.0289.4536-.0434.9215-.0579 1.3751 0 .4395-.0144.8931-.0144 1.3326z"/><path d="m104.904 58.1299c.289-.723 1.257-.8506 2.052-.8648 6.316-.1276 12.618-.241 18.934-.3686 5.955-.1134 11.924-.2268 17.879-.3544 1.922-.0425 3.974-.0425 5.564 1.0207-.029-.2268-.072-.4537-.101-.6805.679-.1134 1.33-.2552 2.023-.1984.376.0283.766-.0993 1.142-.1418.882-.1134 1.778-.1559 2.66-.1985 4.899-.2126 9.813-.2835 14.728-.5245 1.243-.0567 2.471-.1418 3.714-.2268 1.229-.0851 2.472-.156 3.686-.3261.173-.0283.332-.0851.506-.0992.231-.0142.462-.0284.693-.0426 1.243-.0992 2.501-.326 3.657-.8505 1.445-.6522 2.717-1.8146 3.18-3.3032.202-.6663.245-1.3609.289-2.0556.144-3.1755.101-6.3652-.145-9.5266-.159-.1559-.563.1276-.621.3545-.593 2.3107-1.041 4.6498-1.33 7.0031-.173 1.4035-.318 2.892-1.2 3.9978-.968 1.205-2.587 1.687-4.119 2.0272-8.137 1.843-16.549 2.0273-24.888 2.1974-7.776.1559-15.552.3261-23.314.482-6.475-.2126-13.109.7939-19.54.1134-1.807-.1985-3.628-.5103-5.435-.2552-.13.0142-.275.0426-.376.1418-.072.0709-.086.1701-.115.2694-.217.7371.13 1.6728.477 2.41z"/></g><path d="m185.252 44.6755c-.015-2.6936-.044-5.3871-.073-8.0948-.014-2.5943-.043-5.1744-.057-7.7687-.029-3.1189.101-6.266-.275-9.3565-.072-.6096-.231-1.2334-.217-1.8429.015-.9215-.173-1.6303-.592-2.5093-.535-1.1908-1.301-2.2824-2.168-3.2748-1.879-2.18313-4.582-2.28237-7.4-2.39578-2.963-.12759-5.912-.01417-8.86-.02835-3.296-.01418-6.606-.02835-9.901-.05671-4.018-.02835-8.021-.07088-12.04-.11341-4.018-.04253-8.036-.08506-12.054-.12759-2.009-.01417-4.018-.04253-6.027-.0567-.419 0-.852-.04253-1.257.0567-.26.05671-.492.15594-.752.1843-.896.08506-1.922-.14177-2.804-.31189.116-2.02723.477-4.04029 1.084-5.99665-.823 2.01306-1.763 3.98359-2.832 5.88324-.073.12759-.145.25518-.275.31189-.13.0567-.289.04252-.419.02835-.304-.04253-.622-.07088-.925-.14177-.694-.17011-1.431-.09923-2.154-.09923-3.107-.02835-6.2-.04253-9.308-.05671-6.099-.02835-12.1983-.01417-18.2832.02836-6.5329.04252-13.0658-.04253-19.6132-.07089-1.7777-.01417-3.5555-.02835-5.3188-.02835-.766 0-1.5032-.02835-2.2403.12759-.766.17012-1.7055.02835-2.4859-.01418-.4336-.02835-.8962-.07088-1.243-.34023-.3469-.25518-.5059-.6663-.6649-1.06324-.318-.82224-.6359-1.64447-.9539-2.46671.0434.964.1445 1.91383.3035 2.86365.0434.31188.0723.70883-.2168.86477-.0867.04253-.2023.0567-.3035.07088-.3469.02835-.7082.11341-1.0551.04253-.6649-.12759-1.3297-.08506-2.009-.08506-7.429 0-14.8291-.02835-22.2292-.05671-4.1481-.01417-14.1209-2.08394-15.4796 3.4449-.1879.7655-.1734 1.5594-.2312 2.3533-.1445 2.3816-.0578 4.7775-.0145 7.1733.1157 7.8963.3469 15.7926.6649 23.6747.0433 1.205.1012 2.4242.2601 3.6292.1301.9498.0579 2.1973.8239 2.9345.2601.2552.448.4962.6793.7939.4625.5812 1.0984 1.0207 1.7922 1.3326 1.4887.6805 3.2086.8648 4.8563.9357 5.3767.2551 10.7389.4678 16.101.6237 5.4056.1701 10.7967.3261 16.2022.4253 5.4056.0992 10.7967.1701 16.2022.1985 4.8997.0283 9.7994.0425 14.6991.0567h7.5012c2.7028 0 5.9693-.8223 8.4552.4395 1.243.6237 2.284 1.6303 2.876 2.8778-.101-1.0066-.072-2.0273.087-3.0338 1.966-.2693 3.931-.4395 5.911-.4678.853-.0142 1.677.1134 2.53.0992.997 0 2.009-.0142 3.006-.0142 4.018-.0283 8.036-.0567 12.054-.0992 2.486-.0283 4.972-.0567 7.472-.085 5.406-.0568 10.797-.1843 16.203-.3828.968-.0425 1.951-.0709 2.919-.1134 7.444-.2836 14.887-.7088 22.316-1.2901.636-.0567 1.243-.1134 1.836-.2268.954-.1843 1.85-.5104 2.63-1.1625.954-.7939 1.879-1.6445 2.515-2.6935 1.026-1.687.766-3.615.752-5.5288zm-4.033 3.6575c-.39.6379-1.113 1.2759-1.705 1.7579-.145.1134-.362.2552-.925.3544-.419.085-.911.1276-1.402.1701-7.126.5529-14.584.9782-22.157 1.2901-.969.0425-1.923.0708-2.891.0992-5.666.1985-10.927.3261-16.101.3828-15.364.1843-30.496.2835-45.0076.2835-6.504 0-13.008-.0142-19.5264-.0567-5.3478-.0425-10.7967-.0992-16.1444-.1985-5.3477-.0992-10.7822-.241-16.1444-.4111s-10.7677-.3828-16.0576-.6379c-1.1708-.0426-2.5005-.156-3.4399-.5813-.2313-.1134-.3469-.1984-.3758-.2268-.1735-.2268-.3903-.4962-.636-.7797-.0144-.1418-.0289-.2977-.0433-.4253-.0289-.2552-.0434-.4962-.0723-.7372-.1301-1.0207-.1734-2.0697-.2312-3.3315-.3325-7.797-.5637-15.7358-.6649-23.5754l-.0144-1.3326c-.0434-1.9422-.0723-3.771.0433-5.5714.0145-.1985.0145-.4111.0289-.6379.0145-.4395.0289-.8364.0867-1.0633.1301-.482 1.5176-.9781 4.3939-.9781 1.4164 0 2.934.1134 4.2637.2126 1.1418.0992 2.2258.1701 3.1508.1701 6.6052.0284 13.2248.0425 19.8444.0425h3.7145c4.9431 0 9.8861.0142 14.8436.0426l4.7696.0283c3.4833.0284 6.981.0426 10.4642.0426 1.4598 0 2.9341 0 4.4228-.0142 3.6856-.0284 7.3567-.0425 11.0423-.0425 12.4735 0 25.1925.1417 37.4775.2693 9.64.0992 19.628.1985 29.398.241l.477.0142c.867 0 1.706-.0142 2.573-.0142.838-.0142 1.676-.0142 2.5-.0142 1.214 0 2.226.0142 3.137.0567h.101c2.645.1276 3.873.2552 4.596 1.0916.737.8506 1.243 1.6303 1.59 2.3817.26.5812.26.7372.26.964-.015.7372.101 1.3751.173 1.8854.015.1418.044.3119.073.4537.26 2.1548.245 4.3664.245 6.7196-.014.7372-.014 1.4744 0 2.2116l.13 15.8209c.015.3544.015.6805.029 1.0066.015 1.1199.044 2.1123-.289 2.6368z" fill="url(#e)"/><g fill="#eb924d"><path d="m13.8449 30.1587 4.4227-.8648-.1878-.4111-4.5818.5387z"/><path d="m180.294 17.2147 5.131.4253v-1.1341l-5.55.241z"/><path d="m180.656 38.8915 5.68 1.0633-.116-.8932-6.099-.5245z"/><path d="m164.042 34.1279c-4.321-2.3674-11.505-1.6444-14.93 1.5453-2.154 2.013-2.269 5.7698 0 7.7687 4.986 4.4089 13.745 2.5234 16.91-2.9204.058-.0567.116-.1134.188-.1559 2.414-2.1407.694-5.699-2.168-6.2377z"/></g><path d="m165.07 32.044c-4.322-2.3675-11.505-1.6445-14.931 1.5452-2.153 2.0131-2.269 5.7698 0 7.7687 4.987 4.4089 13.745 2.5234 16.911-2.9204.057-.0567.115-.1134.188-.1559 2.413-2.1406.693-5.6989-2.168-6.2376z" fill="url(#f)"/><path d="m164.042 33.3897c-4.321-2.3675-11.505-1.6445-14.93 1.5452-2.154 2.0131-2.269 5.7698 0 7.7687 4.986 4.4089 13.745 2.5234 16.91-2.9204.058-.0567.116-.1134.188-.1559 2.414-2.1406.694-5.6989-2.168-6.2376z" fill="url(#g)"/><path d="m147.612 25.3963c-2.732-1.5027-7.256-1.0348-9.41.9782-1.358 1.2617-1.43 3.6434 0 4.9051 3.151 2.7786 8.672 1.5878 10.667-1.843.043-.0283.072-.0708.116-.0992 1.517-1.3609.433-3.6008-1.373-3.9411z" fill="#eb924d"/><path d="m148.26 24.0917c-2.732-1.5028-7.256-1.0349-9.409.9781-1.359 1.2617-1.431 3.6434 0 4.9051 3.151 2.7786 8.672 1.5878 10.666-1.8429.044-.0284.073-.0709.116-.0993 1.518-1.3751.434-3.615-1.373-3.941z" fill="url(#h)"/><path d="m147.612 24.9276c-2.732-1.5027-7.256-1.0349-9.41.9782-1.358 1.2759-1.43 3.6433 0 4.905 3.151 2.7786 8.672 1.5878 10.667-1.8429.043-.0284.072-.0709.116-.0992 1.517-1.361.433-3.6009-1.373-3.9411z" fill="url(#i)"/><path d="m36.3811 39.7694c-2.7316-1.5027-7.2555-1.0349-9.4091.9782-1.3586 1.2617-1.4309 3.6433 0 4.905 3.1508 2.7786 8.672 1.5878 10.6666-1.8429.0433-.0284.0722-.0709.1156-.0992 1.5176-1.361.4336-3.6009-1.3731-3.9411z" fill="#eb924d"/><path d="m37.0296 38.451c-2.7317-1.5027-7.2556-1.0349-9.4091.9782-1.3587 1.2759-1.4309 3.6434 0 4.9051 3.1508 2.7786 8.672 1.5877 10.6665-1.843.0434-.0283.0723-.0709.1156-.0992 1.5176-1.3609.4336-3.6008-1.373-3.9411z" fill="url(#j)"/><path d="m36.3811 39.3026c-2.7316-1.5027-7.2555-1.0349-9.4091.9782-1.3586 1.2759-1.4309 3.6433 0 4.905 3.1508 2.7786 8.672 1.5878 10.6666-1.8429.0433-.0284.0722-.0709.1156-.0992 1.5176-1.361.4336-3.6009-1.3731-3.9411z" fill="url(#k)"/><path d="m13.7324 17c0-3.3137 2.6863-6 6-6h151.2866c5.523 0 10 4.4772 10 10v23c0 5.5228-4.477 10-10 10h-149.2866c-4.4183 0-8-3.5817-8-8z" fill="#eb924d" opacity=".9"/><path d="m66.7168 39.8438c-.0781.039-.1563.0651-.2344.0781s-.1627.026-.2539.039c-.039-.026-.0781-.0325-.1172-.0195-.026 0-.0716-.0065-.1367-.0195-.1172 0-.1823.0065-.1953.0195 0 0-.0065 0-.0195 0-.0521.013-.1433.0326-.2735.0586-.0651.013-.1237.026-.1758.0391-.052.013-.1106.026-.1757.039-.1042.013-.2084.013-.3125 0-.1042 0-.2084 0-.3125 0-.0912.013-.2214.013-.3907 0-.1692-.013-.3059-.0065-.4101.0196-.1042-.0261-.1758-.0391-.2149-.0391-.026.013-.052.0195-.0781.0195h-.293c-.1302-.013-.2148-.0195-.2539-.0195-.039.013-.0781.0195-.1171.0195-.2344.0261-.3711.0456-.4102.0586-.2083 0-.3451-.0065-.4102-.0195-.1171-.0261-.1888-.0456-.2148-.0586s-.0521-.0326-.0781-.0586c-.1042-.0521-.1563-.0911-.1563-.1172 0-.026-.013-.039-.039-.039-.0261-.0782-.0456-.1628-.0586-.254 0-.1041-.0065-.2083-.0196-.3125-.013-.052-.0325-.1432-.0586-.2734 0-.0521 0-.1042 0-.1562.0131-.0521.0131-.1107 0-.1758-.039-.1172-.0716-.2409-.0976-.3711-.0391-.1302-.0586-.2018-.0586-.2149 0-.026-.0065-.0455-.0195-.0586-.1433.0261-.2149.0391-.2149.0391-.0911.0651-.1562.1107-.1953.1367-.026.013-.0325.0456-.0195.0977-.0912 0-.1563.0456-.1953.1367-.1042.1302-.1563.2018-.1563.2148 0 .0131-.013.0326-.0391.0586-.026.0521-.0651.1042-.1171.1563-.0391.039-.0717.0781-.0977.1172-.0651.0521-.1302.1237-.1953.2148-.0261.0391-.0586.0847-.0977.1367-.026.0391-.0586.0847-.0976.1368-.0781.1041-.1237.1692-.1367.1953 0 .013-.0066.026-.0196.039-.0911.1042-.1432.1628-.1562.1758-.013 0-.0261.0065-.0391.0195-.0521.0521-.1042.0912-.1562.1172-.0391.0261-.0716.0456-.0977.0586-.2083 0-.3581-.026-.4492-.0781-.0391-.026-.0781-.0521-.1172-.0781-.026-.0261-.0651-.0521-.1172-.0781-.1302-.1433-.2018-.2214-.2148-.2344-.0651-.0912-.0977-.1433-.0977-.1563s-.0065-.026-.0195-.039c-.0781-.1042-.1172-.1628-.1172-.1758s-.0065-.0261-.0195-.0391c-.1172-.1823-.2409-.3385-.3711-.4687l-.1563-.1758c-.0521-.1042-.0846-.1628-.0976-.1758 0-.026-.0065-.0456-.0196-.0586-.1172-.1172-.2018-.1953-.2539-.2344-.1562-.052-.2474-.0781-.2734-.0781-.0261.0521-.0521.1042-.0781.1563-.0261.039-.0521.0846-.0782.1367l-.0976.2539c-.0651.1042-.0977.1693-.0977.1953s-.0065.0521-.0195.0781c-.0651.1563-.0977.28-.0977.3711-.0781.1953-.1497.3516-.2148.4688-.0521.1172-.1237.2213-.2148.3125-.1042.0651-.2279.1106-.3711.1367-.1433.039-.2735.026-.3907-.0391h-.5468c-.0912 0-.1498-.0065-.1758-.0195-.013 0-.0326 0-.0586 0-.1563.026-.2539.0325-.293.0195-.026 0-.0586 0-.0976 0-.0261.013-.0651.013-.1172 0-.0391 0-.0716 0-.0977 0h-.4492c-.0521 0-.1042 0-.1563 0-.039.013-.0846.013-.1367 0-.1302 0-.2018 0-.2148 0-.013.013-.0326.0196-.0586.0196-.1432.013-.2279.0195-.2539.0195-.0781.013-.1367.0195-.1758.0195-.026.013-.0716.0195-.1367.0195-.0651.0131-.1432.0066-.2344-.0195-.0781-.013-.1367-.0065-.1758.0195-.039-.026-.0781-.0455-.1172-.0585-.026 0-.052-.0131-.0781-.0391-.1042-.0912-.1627-.1367-.1758-.1367-.1432-.1563-.2278-.2539-.2539-.293.013-.0521.013-.0977 0-.1367-.026-.0391-.039-.0716-.039-.0977l.039-.2148c.013-.0521.0326-.0912.0586-.1172.013-.026.013-.0651 0-.1172.0391-.0521.0716-.1042.0977-.1562.026-.0521.0521-.1042.0781-.1563s.0391-.0911.0391-.1172c.013-.039.0325-.0846.0586-.1367l.0976-.1953c.0651-.1172.0977-.1953.0977-.2344.0651-.1432.1041-.2213.1172-.2344.026-.013.026-.0325 0-.0586.0911-.1171.1432-.2018.1562-.2539.013-.0651.0261-.1171.0391-.1562.039-.1432.0651-.2279.0781-.2539.0651-.1432.0977-.2149.0977-.2149.026-.0781.0455-.1237.0585-.1367.0131-.013.0261-.0325.0391-.0586.0651-.1432.0977-.2213.0977-.2343.013-.1172.039-.1954.0781-.2344.0521-.0521.0651-.1042.0391-.1563.026-.026.039-.0586.039-.0976.013-.0391.0326-.0782.0586-.1172.0261-.0521.0456-.1042.0586-.1563.013-.052.0326-.1041.0586-.1562.0521-.1042.0781-.1888.0781-.2539l.0977-.1953c.026-.1042.039-.1563.039-.1563.0131-.013.0261-.0325.0391-.0586.013-.039.0195-.0716.0195-.0976.0131-.0391.0261-.0847.0391-.1368.0651-.1432.0977-.2278.0977-.2539 0-.026.013-.0455.039-.0585.0651-.1693.0977-.267.0977-.293 0-.0391.0065-.0716.0195-.0977.026-.0651.0521-.1367.0781-.2148.1042-.1953.1628-.3321.1758-.4102s.0326-.1627.0586-.2539c.0391-.1432.0716-.2278.0977-.2539.052-.1562.0781-.2474.0781-.2734 0-.0261.0065-.0521.0195-.0781.013-.0521.0195-.0977.0195-.1368.0131-.0521.0261-.1106.0391-.1758.0391-.1171.0651-.1888.0781-.2148l.0782-.2148c.039-.0391.0586-.0717.0586-.0977.013-.0391.026-.0716.039-.0977.0651-.1953.1172-.319.1563-.371.039-.0651.0716-.1368.0976-.2149.013-.0391.0261-.0781.0391-.1172.013-.0521.039-.0911.0781-.1172.0261-.1692.0391-.2539.0391-.2539.0521-.1041.0781-.1627.0781-.1758 0-.013.0065-.026.0195-.039.0391-.0781.0586-.1237.0586-.1367 0-.0261.013-.0521.0391-.0782.039-.1041.0586-.1627.0586-.1757.013-.0131.0195-.0326.0195-.0586.0261-.0521.0456-.0977.0586-.1368.013-.039.0326-.0716.0586-.0976.026-.1302.0391-.1953.0391-.1953.013 0 .0195-.0065.0195-.0195.0391-.1303.0716-.2214.0976-.2735.0652-.1432.1042-.2279.1172-.2539.0912-.2604.1433-.4232.1563-.4883.026-.1692.0456-.2799.0586-.332.0521-.1042.0781-.1693.0781-.1953 0-.0261.0065-.0521.0195-.0781.0521-.1172.0847-.1823.0977-.1954.013-.026.026-.052.0391-.0781.0781-.2083.1171-.3125.1171-.3125.0782-.1562.1237-.2474.1368-.2734.013-.0391.0325-.0716.0586-.0977.0781-.1302.1302-.2083.1562-.2344.0781-.0911.1302-.1627.1563-.2148l.2734-.2734.1953-.1172c.1042-.0521.1758-.0847.2148-.0977.0391-.013.0782-.0195.1172-.0195.1563-.026.2539-.0391.293-.0391.0391-.013.0781-.0195.1172-.0195.1302.0391.2148.0586.2539.0586h.0977c.0911.0521.1757.0781.2539.0781.1432.0651.2213.0977.2343.0977.1302.013.2084.0195.2344.0195.0261 0 .0521.013.0781.0391.1563.039.2605.0455.3125.0195.1433.0651.2214.0977.2344.0977s.0326.0065.0586.0195c.0911.0391.1497.0586.1758.0586.039-.013.0781-.0195.1172-.0195.0651-.0131.1237-.0196.1758-.0196.052-.013.1106-.026.1757-.039.1433-.0261.2279-.0456.2539-.0586.0391-.0261.0782-.0456.1172-.0586.1302-.0391.1953-.0586.1953-.0586.0131-.013.0261-.0196.0391-.0196.0391-.013.0781-.0195.1172-.0195h.1367c.1302-.013.2083-.0325.2344-.0586.1562-.026.319-.026.4883 0 .2213.0391.3906.0586.5078.0586.1172-.013.2018.0195.2539.0977.0911.0781.1562.1367.1953.1758.0651.039.1107.1106.1367.2148.0261.0911.0586.1693.0977.2344.0521.0911.0781.1562.0781.1953.013.039.026.0716.0391.0976.013.0912.026.1433.039.1563s.0196.0325.0196.0586c.039.1693.0651.2734.0781.3125.013.039.0195.0781.0195.1172.013.026.0261.0586.0391.0976.039.1823.0651.2995.0781.3516.026.0521.0456.1107.0586.1758s.026.1237.0391.1757c.013.0521.013.1042 0 .1563.052.1953.0846.319.0976.3711s.0326.1107.0586.1758c.0391.1692.0586.2799.0586.332.013.0521.026.1107.0391.1758.0651.1562.0976.2539.0976.293 0 .026.0065.0586.0195.0976l.1172.332c.0391.1303.0521.2279.0391.293 0 .0521.013.0912.0391.1172 0 .0651.026.1628.0781.293.0781.1692.1107.2864.0976.3515 0 .0651.0131.1237.0391.1758.013.0781.0391.1498.0781.2149.0521.1041.0782.1757.0782.2148s.0065.0781.0195.1172c.0521.1042.0781.1758.0781.2148.0391.0912.0846.1758.1367.2539.0261.0261.0391.0651.0391.1172 0 .0391.0065.0781.0195.1172.0521.1693.0781.28.0781.332.0131.0521.0326.1042.0586.1563.0131.0521.0261.1042.0391.1562.013.0391.0326.0912.0586.1563.0391.1042.0586.1628.0586.1758.013 0 .0195.013.0195.039.0651.1433.1107.2409.1367.293.0131.026.0196.0651.0196.1172 0 .0391.013.0716.039.0977.0131.039.0261.0911.0391.1562.013.0521.0195.0911.0195.1172.0521.1172.0782.2018.0782.2539.013.0391.0325.0846.0585.1367.0261.0391.0391.0846.0391.1367.013.0521.0326.1042.0586.1563.0521.0911.0781.1497.0781.1758 0 .026.0065.052.0196.0781.0651.1042.0976.1693.0976.1953 0 .013.013.0326.0391.0586.0521.1172.0781.1888.0781.2148 0 .0131.013.0326.0391.0586.026.0391.039.0782.039.1172.013.0391.0326.0781.0586.1172.0521.1432.0847.2279.0977.2539.0781.1693.1302.293.1562.3711.0261.0781.0651.1563.1172.2344.0651.1302.0912.2148.0781.2539 0 .0391.0066.0716.0196.0976.0521.1172.0781.1888.0781.2149.013.026.026.0521.0391.0781.013.0651.039.1432.0781.2344.039.0521.0651.1042.0781.1562.013.0391.0261.0717.0391.0977.0651.1693.1627.3125.2929.4297 0 .0651.0131.1237.0391.1758.0391.039.0716.0911.0977.1562.0651.1563.0976.2539.0976.293 0 .026.0065.0651.0195.1172 0 .0781-.013.1367-.039.1757-.013.0261-.0261.0586-.0391.0977-.026.0391-.039.0781-.039.1172 0 .026-.0131.0586-.0391.0977zm-6.4063-5.2735c-.026-.1172-.039-.2018-.039-.2539-.0261-.0651-.0521-.1237-.0781-.1758-.0131-.0521-.0261-.1107-.0391-.1758-.026-.0651-.0521-.1432-.0781-.2343-.013-.0912-.0261-.1693-.0391-.2344-.0781-.1693-.1172-.2669-.1172-.293 0-.039-.013-.0716-.039-.0976-.0391-.0782-.0586-.1302-.0586-.1563 0-.039-.0065-.0716-.0196-.0976-.0651-.1433-.1041-.2409-.1172-.293-.013-.0521-.0325-.0912-.0585-.1172-.0782-.1562-.1172-.2344-.1172-.2344-.0391-.1692-.0651-.2669-.0782-.2929-.013-.0391-.026-.0782-.039-.1172 0-.0912-.0065-.1433-.0196-.1563-.013-.013-.0195-.0325-.0195-.0586-.026-.0521-.0456-.1041-.0586-.1562 0-.0521-.013-.0977-.039-.1367 0-.1172-.0066-.1758-.0196-.1758-.013-.013-.0195-.0261-.0195-.0391-.013-.0651-.026-.1302-.0391-.1953 0-.0651-.013-.1107-.039-.1367-.1042.039-.1628.0716-.1758.0976 0 .0131-.0065.0326-.0195.0586-.0782.1433-.1172.2344-.1172.2735.013.039.0065.0781-.0196.1172-.013.052-.0325.0976-.0586.1367-.026.026-.052.0651-.0781.1172-.0911.1823-.1432.306-.1562.3711l-.0586.2148c-.013.1042-.0521.2083-.1172.3125-.013.0391-.0261.0846-.0391.1367 0 .0391-.0065.0716-.0195.0977-.026.039-.0521.0781-.0781.1172-.013.039-.0326.0846-.0586.1367-.013.0521-.0196.1042-.0196.1562 0 .0521-.013.0912-.039.1172-.0391.0912-.0586.1433-.0586.1563s-.0065.0325-.0195.0586c-.0782.1562-.1237.2539-.1368.2929-.013.0261-.0195.0717-.0195.1368-.0781.1302-.1302.2474-.1562.3515-.0521.1563-.0651.2669-.0391.332.1432.1693.2539.254.332.254.0912 0 .1888-.0066.293-.0196s.1953-.0195.2734-.0195c.0912-.013.1693-.0195.2344-.0195.1302 0 .2279-.0065.293-.0196.0781-.013.1497-.0195.2148-.0195.1433.013.2344.0195.2735.0195.039-.013.0716-.013.0976 0l.4102.0782c.1562-.0782.2343-.1498.2343-.2149zm11.2696 5.5859c-.0781-.013-.1628-.026-.2539-.039-.0912 0-.1693.0195-.2344.0586-.0781-.0261-.1563-.0326-.2344-.0196-.0651.0261-.1302.0456-.1953.0586-.1823.0131-.293.0131-.332 0-.0391 0-.0781 0-.1172 0l-.3125.0196c-.0521.013-.0977.0195-.1367.0195-.0261.013-.0716.013-.1367 0l-.2149-.0195c-.1042 0-.1628-.0065-.1758-.0196-.013 0-.0325 0-.0586 0-.0911.0131-.1757.0131-.2539 0-.0651 0-.1302 0-.1953 0h-.332c-.0651-.013-.1107-.0195-.1367-.0195-.0261.013-.0586.013-.0977 0-.0911-.026-.1628-.0586-.2148-.0976-.0391-.0261-.0782-.0521-.1172-.0782-.0781-.039-.1172-.0716-.1172-.0976.013-.0391-.0065-.0521-.0586-.0391.026-.0521.0391-.1172.0391-.1953s-.0066-.1563-.0196-.2344c.0261-.2474.0261-.4883 0-.7226v-.5469c.0391-.2083.0586-.3385.0586-.3906.0261-.1563.0391-.2474.0391-.2735 0-.1302 0-.2018 0-.2148.013-.1563.026-.2604.039-.3125v-.586c.0261-.1041.0391-.1953.0391-.2734-.013-.0781-.013-.1432 0-.1953s.0195-.1107.0195-.1758c-.026-.0911-.039-.1758-.039-.2539.013-.0781.0195-.1627.0195-.2539v-.2344c0-.1172.0065-.2278.0195-.332.0131-.1042.0131-.2279 0-.3711-.026-.0781-.0325-.1497-.0195-.2148.013-.0782.0195-.1693.0195-.2735 0-.0651-.0065-.1302-.0195-.1953 0-.0781 0-.1562 0-.2344 0-.1432-.0065-.2474-.0195-.3125-.0261-.2213-.0391-.3906-.0391-.5078.013-.1302.0195-.2539.0195-.3711l-.0195-.332c-.013-.0521-.026-.0911-.039-.1172-.0131-.039-.0196-.0846-.0196-.1367.0521-.1693.0716-.2865.0586-.3516 0-.0651 0-.1302 0-.1953v-.3906c0-.0781 0-.1563 0-.2344.013-.0911.0195-.1758.0195-.2539-.013-.1562-.026-.319-.039-.4883 0-.1692.0065-.3255.0195-.4687-.039-.0521-.0586-.1042-.0586-.1563.013-.0651.0196-.1302.0196-.1953 0-.1432-.0066-.2148-.0196-.2148 0-.013 0-.0261 0-.0391-.013-.0911-.0195-.1758-.0195-.2539-.013-.1432-.013-.2279 0-.2539s.0195-.0521.0195-.0781c0-.0521-.0065-.1042-.0195-.1563s-.0195-.1107-.0195-.1758c.013-.0911.0065-.2018-.0196-.332 0-.039 0-.0781 0-.1172.013-.039.013-.0846 0-.1367 0-.1302-.013-.2148-.039-.2539-.0131-.0391-.0196-.0716-.0196-.0977 0-.0911-.0065-.1757-.0195-.2539 0-.0781 0-.1497 0-.2148l-.0195-.2539c-.0261-.1172-.0391-.1823-.0391-.1953.013-.013.0195-.0326.0195-.0586-.013-.0651-.026-.1172-.039-.1563-.013-.0521-.0196-.0976-.0196-.1367.0131-.1432.0131-.2213 0-.2344 0-.013 0-.0325 0-.0586l.0391-.2539c.0261-.026.0521-.052.0781-.0781.0261-.026.0521-.0521.0782-.0781.0651-.0261.1302-.0391.1953-.0391.0781-.013.1432-.0325.1953-.0586.1172-.013.2148-.0195.293-.0195.0911 0 .1692.013.2343.0391.1302.026.2084.039.2344.039.026-.013.0521-.0195.0781-.0195.1172.013.2019.0195.2539.0195.0521 0 .1107.0065.1758.0196.1432.013.2409.0195.293.0195.0651 0 .1302.0065.1953.0195l.2344.0391h.1953c.0521 0 .0976-.0065.1367-.0195l.3125-.0391h.2344c.039-.013.0846-.013.1367 0h.1172c.039 0 .0911-.013.1562-.0391.1172.0521.1823.0782.1953.0782.0131 0 .0196.013.0196.039l.1367.1953c0 .0521-.0065.0977-.0195.1367v.0782.2539c.013.0781.0195.1497.0195.2148l-.0195.2344c-.0131.0521-.0196.1042-.0196.1562 0 .0391-.0065.0847-.0195.1368-.026.2343-.0521.3841-.0781.4492.026.0651.0325.1367.0195.2148s-.0195.1498-.0195.2149c-.013.1432-.0196.2213-.0196.2343.0131.0131.0196.0326.0196.0586l-.0196.3125c-.013.1693 0 .306.0391.4102-.013.1562-.013.2604 0 .3125.013.0391.0065.0651-.0195.0781v.293c0 .1823.0065.293.0195.332.013.0261.0065.0586-.0195.0977v.5859c.026.0781.039.1563.039.2344 0 .0521-.0065.1042-.0195.1562-.013.0521 0 .1107.0391.1758-.0261.2214-.0456.4557-.0586.7031 0 .2344.013.4558.039.6641 0 .0391.0066.0781.0196.1172s.0195.0716.0195.0976c-.013.0521-.026.0977-.0391.1368 0 .026-.0065.0586-.0195.0976v.2735c.013.026.0195.052.0195.0781v.3711c.0131.0911.0131.1953 0 .3125v.332c0 .0521-.0065.1042-.0195.1563v.1171c-.013.0782-.0195.1433-.0195.1954.013.039.0195.0716.0195.0976.013.0912.013.1758 0 .2539s-.0195.1433-.0195.1953c-.013.0651-.0196.1368-.0196.2149.0131.0781.0131.1497 0 .2148 0 .0261-.0065.0651-.0195.1172v.1172.3516c.013.1171.013.2343 0 .3515.013.1693.0195.28.0195.3321-.026.1432-.0325.2343-.0195.2734s.0195.0846.0195.1367c-.013.1172-.0195.1888-.0195.2149.013.013.0065.0325-.0195.0585.026.1172.039.1823.039.1954.0131 0 .0196.0065.0196.0195.013.1562.0195.2669.0195.332v.2149c.0391.0911.0521.1497.0391.1758-.013.026-.0065.0455.0195.0585-.013.0651-.013.1303 0 .1954.026.0651.0456.1302.0586.1953 0 .1562.0065.2604.0195.3125.013.039.0261.0911.0391.1562.013.0391.0195.0912.0195.1563v.1758l-.0195.2734c0 .0651.0065.1107.0195.1367s.013.0716 0 .1367c-.026.1172-.0456.1823-.0586.1953-.013.0131-.0195.0261-.0195.0391zm12.0898 1.3672c-.013.0912-.026.1758-.039.2539-.0131.0912-.0456.1693-.0977.2344 0 .1953-.0325.3516-.0977.4688.0261.0521.0196.0976-.0195.1367-.039.0521-.0651.1237-.0781.2148-.0651.1302-.1042.2214-.1172.2735 0 .0521-.013.1041-.0391.1562-.039.1432-.0716.2279-.0976.2539-.013.0261-.0261.0521-.0391.0782-.026.026-.0456.0585-.0586.0976s-.0325.0781-.0586.1172c-.0911.1042-.1432.1693-.1562.1953s-.0261.0586-.0391.0977c-.039.013-.0716.0325-.0976.0586-.0261.039-.0586.0651-.0977.0781-.026.039-.0586.0781-.0976.1172-.0261.0521-.0586.0911-.0977.1172-.0651.1041-.1172.1822-.1563.2343-.026.0521-.052.0912-.0781.1172-.1172.1432-.1953.2214-.2344.2344-.026.013-.0455.0521-.0585.1172-.1303.0781-.1954.1172-.1954.1172 0 .013-.0065.0195-.0195.0195-.0391.0391-.0716.0846-.0976.1367-.0261.0521-.0521.0912-.0782.1172-.1432.1042-.2409.1758-.2929.2148-.0521.0521-.0977.0912-.1368.1172-.1171.0521-.1757.0847-.1757.0977s-.0131.026-.0391.0391c-.0521.039-.1042.0716-.1563.0976-.039.0261-.0716.0716-.0976.1367-.0912 0-.1497.0456-.1758.1367-.1302.0782-.1953.1107-.1953.0977 0 0-.0065.0065-.0195.0195-.1823.0651-.2995.1172-.3516.1563-.0521.0521-.1107.0976-.1758.1367-.026.013-.0586.0195-.0976.0195-.0391.0131-.0782.0326-.1172.0586-.0912.0391-.1563.0716-.1953.0977-.0391.026-.0847.039-.1368.039-.026.0521-.0651.0782-.1171.0782-.0521 0-.0912.0325-.1172.0976-.1563.0391-.2344.0586-.2344.0586-.1432.0912-.2344.1302-.2734.1172-.0261 0-.0456.0195-.0586.0586-.1433-.026-.2474-.0521-.3125-.0781-.0651-.013-.1302-.0456-.1953-.0977-.0521-.039-.1107-.0911-.1758-.1562-.0651-.0521-.1367-.0977-.2149-.1367-.0911-.1172-.1432-.1758-.1562-.1758s-.0326-.013-.0586-.0391c-.0521-.1432-.0912-.2409-.1172-.293-.013-.039-.0326-.0781-.0586-.1171-.013-.0782-.0325-.1433-.0586-.1954-.013-.052-.026-.0976-.0391-.1367-.026-.2083-.0651-.332-.1171-.3711.026-.0781.026-.1432 0-.1953-.0261-.039-.0456-.0911-.0586-.1562-.0521-.1172-.0912-.2019-.1172-.2539-.013-.0391 0-.1042.039-.1953-.0651-.1172-.0976-.1954-.0976-.2344 0-.0391-.013-.0651-.0391-.0782.0391-.0781.0391-.1692 0-.2734-.026-.1042-.013-.2083.0391-.3125.013-.1432.0325-.2344.0586-.2734.026-.0261.0456-.0586.0586-.0977.1432-.0651.2213-.1107.2343-.1367.0261-.013.0521-.026.0782-.0391.1953-.026.306-.0455.332-.0586.1302-.0781.2018-.1106.2148-.0976.1042-.0521.1758-.0977.2149-.1367.0651 0 .1497-.0261.2539-.0782.1172-.0781.2018-.1302.2539-.1562.0651-.026.1302-.0586.1953-.0977.0651-.0911.1237-.1627.1758-.2148.0391-.0651.1042-.1302.1953-.1953.1042-.0912.1758-.1563.2149-.1953.0911-.1302.1497-.2279.1757-.293.1042-.1302.1693-.2409.1953-.332.0391-.0782.0847-.1628.1368-.2539 0-.1172.0065-.2019.0195-.2539.013-.0391.026-.0717.0391-.0977.026-.0651.039-.1107.039-.1367 0-.0261.013-.0716.0391-.1367.013-.0391.0195-.0847.0195-.1368.013-.039.0326-.0911.0586-.1562.013-.0651.0195-.1237.0195-.1758.0131-.0391.0066-.0846-.0195-.1367.0261-.0912.0261-.1823 0-.2734-.013-.0912-.0065-.1888.0195-.293-.1041.0651-.1823.1107-.2343.1367-.0391.026-.0782.0586-.1172.0977-.1302.0651-.2018.1041-.2149.1172-.013 0-.0325.0065-.0586.0195l-.1953.1172c-.1562.0781-.2604.1172-.3125.1172-.039.013-.0846.0325-.1367.0585-.0521.0261-.1042.0456-.1562.0586-.0391.0131-.0782.0326-.1172.0586-.1563 0-.2539.0065-.293.0196-.0391.013-.0846.0065-.1367-.0196-.1563.0261-.2539.0326-.293.0196-.026 0-.0586 0-.0976 0-.0521.013-.1042.0195-.1563.0195-.0391.013-.0911.0065-.1562-.0195-.1302 0-.2214-.0065-.2735-.0196-.039-.013-.0716-.0195-.0976-.0195-.0912-.013-.1628-.026-.2149-.0391-.039-.013-.0911-.026-.1562-.039-.1302-.013-.2019-.0326-.2149-.0586-.013-.013-.0325-.0261-.0586-.0391-.1302-.0651-.2213-.1041-.2734-.1172-.0391-.013-.0781-.0325-.1172-.0586-.0391-.026-.0846-.0455-.1367-.0585-.0521-.0261-.0977-.0521-.1367-.0782-.1172-.0521-.1823-.0846-.1953-.0976-.0131-.0131-.0326-.0261-.0586-.0391-.0261-.026-.0586-.0391-.0977-.0391s-.0716-.026-.0976-.0781c-.0652-.039-.1172-.0651-.1563-.0781s-.0846-.0326-.1367-.0586c-.1042-.1042-.1628-.1562-.1758-.1562-.013-.0131-.026-.0261-.0391-.0391l-.1757-.1563c-.0651-.052-.1107-.0846-.1368-.0976-.026-.0261-.0586-.0521-.0976-.0781-.0391-.0261-.0716-.0521-.0977-.0782-.026-.026-.0651-.0521-.1172-.0781-.0651-.1432-.1171-.2539-.1562-.332-.0391-.0912-.0651-.1367-.0781-.1367 0-.0131-.0065-.0326-.0196-.0586-.026-.0912-.052-.1628-.0781-.2149-.026-.0521-.0456-.0911-.0586-.1172-.013-.039-.026-.0781-.039-.1172-.0521-.1302-.0847-.2083-.0977-.2343 0-.0261-.013-.0521-.0391-.0782-.026-.052-.0455-.0976-.0586-.1367-.013-.0521-.0325-.1172-.0586-.1953-.013-.0651-.0195-.1302-.0195-.1953s-.013-.1367-.039-.2148c-.0131-.0521-.0196-.1433-.0196-.2735-.013-.1823-.026-.2995-.039-.3515-.0131-.0521-.0196-.1107-.0196-.1758 0-.0391.0065-.0782.0196-.1172.013-.0391.026-.0781.039-.1172.013-.1562.013-.2344 0-.2344 0-.013 0-.0325 0-.0586.013-.0781.0196-.1562.0196-.2343 0-.0912 0-.1888 0-.293.026-.1172.0325-.1758.0195-.1758s-.0195-.0195-.0195-.0586c0-.0651.0065-.1302.0195-.1953.013-.0781.0195-.1497.0195-.2148 0-.0521-.0065-.0977-.0195-.1368 0-.052.013-.1041.039-.1562-.013-.2083-.0195-.3581-.0195-.4492.013-.1042.0521-.1888.1172-.2539.0521-.1302.0781-.2149.0781-.2539.013-.0391.0326-.0717.0586-.0977 0-.1042.013-.1823.0391-.2344.039-.0781.0586-.1367.0586-.1758 0-.052.0065-.1041.0195-.1562.0521-.1302.0912-.2083.1172-.2344.026-.039.026-.0846 0-.1367.0651-.1302.1042-.1953.1172-.1953.013-.013.0195-.0326.0195-.0586.0651-.1563.1042-.2344.1172-.2344.013-.013.026-.026.0391-.039.0781-.1303.1172-.1954.1172-.1954.013 0 .0195-.0065.0195-.0195.0651-.1302.1237-.1953.1758-.1953.039-.1172.0651-.1823.0781-.1953s.0195-.0326.0195-.0586c.0912-.1042.1433-.1628.1563-.1758.026-.026.0521-.0521.0781-.0781.0911-.1042.1367-.1628.1367-.1758.0651-.1042.1302-.1758.1953-.2148l.0977-.0977c.013-.026.026-.0521.039-.0781.0782-.0651.1303-.0977.1563-.0977.026-.013.0391-.0325.0391-.0586.1302-.0651.1953-.0976.1953-.0976.0651-.0521.1041-.0847.1172-.0977.013-.026.0325-.0521.0586-.0781.1041-.0781.1692-.1237.1953-.1367.026-.013.0455-.0326.0586-.0586.0651-.013.1302-.0391.1953-.0781.0651-.0391.1302-.0717.1953-.0977.1042-.0781.1693-.1107.1953-.0977.026 0 .0586-.0065.0977-.0195.0651-.0391.1367-.0716.2148-.0976.1172-.0782.1823-.1107.1953-.0977.0261.013.0521.0065.0781-.0195.0782-.0391.1368-.0586.1758-.0586.0521-.013.0977-.0326.1367-.0586.0651 0 .1237-.0065.1758-.0195.0651-.0131.1302-.0261.1953-.0391h.2149c.0651.013.1237.013.1758 0 .0651-.013.1171-.013.1562 0 .1953-.0521.3125-.0716.3516-.0586h.1757c.1172-.013.1758-.013.1758 0 .013 0 .0326-.0065.0586-.0195.0651 0 .1172-.0065.1563-.0196.0521-.013.1041-.0195.1562-.0195.0651 0 .1172.0065.1563.0195h.0976c.0391-.013.0782-.0195.1172-.0195.0391-.013.0912-.0195.1563-.0195h.2148.332.3516c.1042 0 .1758.0065.2148.0195.1433.026.2344.0326.2735.0195.039-.026.0911-.039.1562-.039.0912.013.1498.026.1758.039h.1172c.0781 0 .1888.0065.332.0196h.3907c.1041.013.1888.013.2539 0 .0781-.0131.1367-.0196.1757-.0196.1693.0261.2865.0391.3516.0391.1172.0781.1888.1237.2149.1367.1432.1172.2213.1888.2343.2149v.2343c.013.0261.0326.0391.0586.0391-.0911.0911-.1302.1628-.1172.2148.0261.0391.0391.0782.0391.1172-.013.0912-.0195.1433-.0195.1563.013.013.0195.0325.0195.0586 0 .039-.0065.0781-.0195.1172v.1367.2734c-.0261.1563-.0391.293-.0391.4102.026.1432.0391.2343.0391.2734.013.026.0195.0521.0195.0781.013.1302.013.2084 0 .2344v.0977.1953c.013.0651.0195.1302.0195.1953-.013.0911-.0065.1888.0196.293 0 .1041-.0066.2018-.0196.2929-.013.0912-.013.1953 0 .3125-.026.1693-.0325.2735-.0195.3125.013.0391.0065.0716-.0195.0977.013.1041.013.1693 0 .1953v.0586c0 .1302-.0065.2148-.0196.2539v.1367.3906c0 .1302.0065.2344.0196.3125v.5079.1171c.013.0391.0195.0782.0195.1172-.013.0651-.013.1172 0 .1563.013.039.0065.0716-.0195.0976.013.1823.0195.306.0195.3711.013.0521.026.1107.0391.1758v.1953c.013.0651.026.1367.039.2149l.0391.5078c.026.1302.039.2083.039.2343v.293.2344c.0131.1562.0131.2539 0 .293v.1562c0 .1302-.013.2604-.039.3906.013.1172.013.2084 0 .2735v.1953c.013.0651.0195.1367.0195.2148v.2539c-.013.0521-.013.0977 0 .1368.013.026.0195.0585.0195.0976-.013.1172-.0195.2214-.0195.3125v.3711c.013.0391.0195.0977.0195.1758s-.0065.1497-.0195.2148c-.026.1172-.039.2149-.039.293.013.0781.0195.1563.0195.2344zm-4.1015-5.3125c.039-.026.0781-.052.1171-.0781.0521-.039.0912-.0781.1172-.1172.0131-.1562.0196-.2539.0196-.2929.013-.0521.0195-.1042.0195-.1563s-.0065-.1042-.0195-.1562c0-.0521.0065-.1042.0195-.1563.026-.0911.0325-.1432.0195-.1562 0-.0261 0-.0521 0-.0782-.013-.1302-.0195-.2083-.0195-.2343.013-.0261.0195-.0456.0195-.0586 0-.0261-.0065-.0521-.0195-.0782-.013-.039-.0195-.0846-.0195-.1367-.0131-.1823-.0196-.306-.0196-.3711 0-.0781.0065-.1497.0196-.2148 0-.0521-.0065-.1107-.0196-.1758 0-.0651.0131-.1107.0391-.1367-.013-.1302-.026-.2084-.0391-.2344 0-.0391 0-.0716 0-.0977l.0196-.2539c0-.1171 0-.1953 0-.2343.013-.0521.013-.0912 0-.1172.013-.1172.013-.1758 0-.1758 0 0 0-.013 0-.0391.026-.1171.0325-.1823.0195-.1953-.013-.026-.0195-.0521-.0195-.0781-.0521-.1432-.1107-.2214-.1758-.2344-.0651-.026-.1302-.039-.1953-.039-.0521 0-.1107 0-.1758 0-.0521 0-.0912.0065-.1172.0195-.0651 0-.1367.013-.2148.0391-.0651-.0131-.1107-.0066-.1368.0195-.026.026-.052.026-.0781 0-.0911.039-.1497.0716-.1758.0976-.013.0131-.0325.0196-.0586.0196-.1171.0651-.1823.1041-.1953.1172 0 .013-.0065.026-.0195.039-.1432.0782-.2409.1302-.293.1563-.0781.0781-.1302.1302-.1562.1562-.0261.013-.0521.0326-.0781.0586-.0912.1042-.1498.1628-.1758.1758-.1172.1563-.1888.2604-.2149.3125l-.0976.2148c-.0912.1172-.1367.1888-.1367.2149 0 .013-.0066.0325-.0196.0586-.0521.1823-.0846.2864-.0976.3125-.0261.1432-.0391.2213-.0391.2344.013.013.0195.026.0195.039-.039.1693-.0586.293-.0586.3711v.2149c.0131.0651.0261.1302.0391.1953.013.0521.0195.1106.0195.1757 0 .0521-.0065.0912-.0195.1172 0 .0261.013.0586.0391.0977.039.1172.0586.2018.0586.2539.013.0391.0325.0716.0586.0977.1041.1171.1562.1822.1562.1953 0 .013.0065.026.0195.039.0391.0651.0847.1237.1368.1758.0651.0521.1237.1042.1757.1563.0261.026.0586.052.0977.0781.0391.026.0716.0586.0976.0976.0652 0 .1172.0131.1563.0391.0521.026.0977.0521.1367.0781.1302.0391.2083.0586.2344.0586.0391-.013.0716-.0195.0976-.0195l.254.0195c.1302-.013.2018-.026.2148-.039.1302-.0651.2083-.1042.2344-.1172.1041-.0651.1692-.1042.1953-.1172.039-.0261.0716-.0456.0976-.0586zm12.9492.5274c.026.039.0586.0521.0976.039.0391-.013.0782-.026.1172-.039.1823-.0391.2995-.0586.3516-.0586.0521-.013.1107-.0261.1758-.0391.1041-.026.2083-.0586.3125-.0976.1172-.0521.2343-.0912.3515-.1172.0261-.013.0586-.0196.0977-.0196.0521-.013.0911-.026.1172-.039.0781-.0521.1367-.0846.1758-.0977.052-.026.0911-.0521.1171-.0781.1302-.1042.2149-.1628.2539-.1758.0391-.013.0717-.0325.0977-.0586.1823-.0521.2865-.0716.3125-.0586.1042.0261.1563.1107.1563.2539-.0131.1823-.0196.2995-.0196.3516.013.0391.0196.0912.0196.1563.013.1041.0195.2018.0195.2929v.2735.1172c.013.039.0195.0716.0195.0976 0 .0651-.013.1367-.039.2148-.0131.0782-.0196.1498-.0196.2149.013.2083.013.4036 0 .5859-.039.1693-.0521.28-.039.3321.013.052.0195.0976.0195.1367-.013.0911-.0261.1693-.0391.2344-.1302.1302-.2278.2018-.2929.2148-.0651 0-.1107.0326-.1368.0977-.0781.013-.1302.026-.1562.039-.013.013-.0326.0261-.0586.0391-.0911.0781-.1628.1172-.2148.1172-.0391 0-.0782.0065-.1172.0195l-.2344.0977c-.1432.052-.2409.0781-.293.0781s-.1041.026-.1562.0781c-.0521 0-.1042.013-.1563.0391-.039.013-.0911.026-.1562.039-.1302.0261-.2214.0456-.2735.0586-.0911.0391-.1562.0586-.1953.0586-.039 0-.0846.0065-.1367.0195-.0651.0131-.1367.0196-.2148.0196-.0651.013-.1368.026-.2149.039-.1953.0391-.332.0521-.4101.0391-.0782 0-.1563.013-.2344.0391-.1042 0-.1888.0065-.2539.0195s-.1302.0195-.1953.0195c-.0782 0-.1563-.0065-.2344-.0195-.0651-.013-.1367-.026-.2149-.0391-.052.0261-.1171.0326-.1953.0196-.0651-.0131-.1497-.0326-.2539-.0586-.1041-.013-.1758-.0261-.2148-.0391-.1563 0-.2604-.0065-.3125-.0195-.0391-.013-.0847-.0261-.1367-.0391-.0521-.013-.0977-.0195-.1368-.0195-.039 0-.0846-.0065-.1367-.0195-.0911-.0131-.1562-.0261-.1953-.0391-.039-.013-.0781-.026-.1172-.0391-.1562-.039-.2474-.0651-.2734-.0781l-.1758-.1367c-.1042-.0261-.2083-.0651-.3125-.1172-.0391-.026-.0781-.0456-.1172-.0586-.026-.013-.0586-.0391-.0976-.0781-.0261-.0391-.0651-.0651-.1172-.0781-.0391-.0131-.0781-.0326-.1172-.0586-.1432-.0912-.2214-.1433-.2344-.1563 0-.013-.0065-.026-.0195-.039-.0912-.0391-.1432-.0652-.1563-.0782 0-.013-.013-.026-.039-.039l-.1953-.1172c-.0782-.0782-.1498-.1302-.2149-.1563-.026-.0651-.0651-.1107-.1172-.1367-.039-.0391-.0716-.0911-.0976-.1562-.0912-.0782-.1563-.1303-.1953-.1563-.0391-.026-.0717-.0651-.0977-.1172-.0391-.026-.0716-.0521-.0977-.0781-.013-.0391-.0325-.0716-.0585-.0977-.0521-.039-.0847-.1106-.0977-.2148-.0781-.0781-.1172-.1302-.1172-.1563 0-.026-.0065-.052-.0195-.0781-.0781-.1041-.1302-.1693-.1563-.1953-.0781-.0911-.1172-.1432-.1172-.1562 0-.0131-.0065-.0326-.0195-.0586-.0911-.1823-.1562-.293-.1953-.3321 0-.0651-.0065-.1106-.0195-.1367-.0131-.026-.0196-.0586-.0196-.0976-.0651-.1303-.0976-.2084-.0976-.2344 0-.0391 0-.0716 0-.0977-.0391-.1302-.0651-.1953-.0781-.1953 0 0 0-.0065 0-.0195-.0652-.1953-.1042-.319-.1172-.3711-.0131-.0651-.0326-.1237-.0586-.1758-.0261-.1302-.0456-.2148-.0586-.2539 0-.0391-.0065-.0911-.0196-.1563 0-.0781-.0065-.1562-.0195-.2343-.013-.0912-.0195-.1433-.0195-.1563 0-.026 0-.0651 0-.1172.013-.0651.013-.1172 0-.1562-.013-.0391-.0326-.0716-.0586-.0977-.0261-.039-.0391-.0781-.0391-.1172.0651-.1953.0977-.319.0977-.3711 0-.0651 0-.1432 0-.2343.026-.1172.0325-.2084.0195-.2735s-.013-.1302 0-.1953c0-.039 0-.0781 0-.1172 0-.052.013-.0911.0391-.1171-.0261-.0521-.0326-.0912-.0196-.1172.0261-.0391.0456-.0782.0586-.1172 0-.1433 0-.2149 0-.2149.0131-.013.0196-.0325.0196-.0586.026-.1171.0455-.2148.0586-.2929.026-.0912.052-.1693.0781-.2344.0391-.1042.0586-.1628.0586-.1758 0-.026.0065-.0521.0195-.0781.0521-.0781.0847-.1302.0977-.1563.013-.026.026-.052.039-.0781.0521-.1953.1107-.345.1758-.4492s.1107-.1823.1367-.2344c.0261-.0521.0521-.0911.0782-.1172 0-.0521.013-.0911.039-.1172.0391-.026.0716-.052.0977-.0781.0651-.1172.1107-.1823.1367-.1953.0651-.1172.0977-.1823.0977-.1953.1171-.1302.1888-.2018.2148-.2148.026-.0131.0521-.0326.0781-.0586.0912-.1042.1302-.1628.1172-.1758 0-.0261.0065-.0391.0195-.0391.0391-.013.0651-.0325.0782-.0586.026-.039.052-.0716.0781-.0976.1172-.1042.1823-.1628.1953-.1758s.0326-.0261.0586-.0391c.0521-.0911.0846-.1367.0977-.1367.026 0 .039-.013.039-.0391.1302-.0911.2018-.1432.2149-.1562.026-.013.052-.0326.0781-.0586.1042-.0781.1627-.1172.1758-.1172.026-.013.0455-.026.0586-.0391.1302-.0781.2018-.1302.2148-.1562.1172-.0912.1823-.1367.1953-.1367.0261-.013.0391-.0326.0391-.0586.1562-.0781.2474-.1172.2734-.1172.0261 0 .0521-.0065.0781-.0195.1954-.0782.3191-.1302.3711-.1563.0261-.013.0521-.0195.0782-.0195.039-.013.0911-.0261.1562-.0391.0261-.013.0521-.026.0781-.039.0391-.0131.0847-.0261.1368-.0391.1302-.0391.1953-.0586.1953-.0586 0-.013.013-.0195.039-.0195.0912-.0261.1498-.0456.1758-.0586.0261-.013.0716-.0196.1367-.0196.1693-.013.3255-.013.4688 0 .1302.0131.2213.0131.2734 0 .0521-.013.1107-.0195.1758-.0195.0521 0 .1302.013.2344.0391h.2148c.1302.039.1953.0586.1953.0586 0-.0131.013-.0196.0391-.0196.1042.0261.1628.0391.1758.0391.026-.013.0521-.013.0781 0 .0521 0 .0977.013.1367.0391.0521.026.1107.026.1758 0 .1432.0651.2344.1041.2734.1172.0521.013.1107.026.1758.039.1302.0521.2214.0912.2735.1172.0651.013.1237.0391.1757.0781.0782-.026.1498.0065.2149.0977.1302.0781.2018.1172.2148.1172s.0261.0065.0391.0195c.0651.0651.1172.1107.1562.1367.0391.0261.0716.0586.0977.0977.0651.0911.1042.1432.1172.1562.013 0 .026.0065.039.0196.0391.039.0782.0781.1172.1171.0521.0391.0912.0847.1172.1368.1042.1041.1563.1562.1563.1562.052.0521.0911.0977.1172.1367.039.0261.0716.0586.0976.0977.1042.1042.1563.1693.1563.1953 0 .013.0065.0326.0195.0586.1042.1693.1628.2604.1758.2734.0521.0912.0976.1563.1367.1953.026.0391.0456.0782.0586.1172.013.0391.0325.0782.0586.1172-.013.0391-.013.0781 0 .1172.026.0391.0521.0716.0781.0977.026.052.0456.1237.0586.2148.013.0781.0325.1497.0586.2149.026.039.0456.0781.0586.1171.013.0261.0325.0651.0586.1172.026.1563.039.2344.039.2344 0 .0391.0066.0781.0196.1172.013.026.026.0586.039.0976.0131.1172.0131.1758 0 .1758 0 0 .0065.013.0196.0391l.0586.2148c.026.1042.039.1953.039.2735 0 .039.0065.0781.0196.1172.013.026.0195.0585.0195.0976-.0261.1563-.0391.2604-.0391.3125.013.0391.013.0716 0 .0977-.1172.1172-.1888.1888-.2148.2148-.013.0261-.0326.0456-.0586.0586-.1042.0521-.1628.0846-.1758.0977 0 .013-.0065.026-.0195.039-.1433.0651-.2344.0977-.2735.0977-.026 0-.052.013-.0781.039-.1042.0391-.1758.0717-.2148.0977-.0261.026-.0521.0521-.0782.0781-.1302.0391-.1953.0716-.1953.0977-.0781.039-.1432.0716-.1953.0976-.0521.0131-.0976.0326-.1367.0586-.1432.0782-.2669.1433-.3711.1953-.1302.0782-.2214.1237-.2734.1368-.0521.013-.0912.0325-.1172.0586-.1042.052-.1693.0846-.1953.0976-.0261.013-.0521.0326-.0782.0586-.1302.0912-.2148.1432-.2539.1563-.026.013-.052.039-.0781.0781-.026-.013-.0651-.0065-.1172.0195-.0521.0261-.0976.0521-.1367.0781-.1562.0651-.2604.1042-.3125.1172-.0391 0-.0716.0196-.0977.0586-.039 0-.0781.013-.1171.0391-.0261.013-.0586.026-.0977.039-.0391.0131-.0846.0196-.1367.0196-.0391-.013-.0781-.0065-.1172.0195-.1172.0781-.1888.1172-.2148.1172-.0261.026-.0652.0456-.1172.0586-.0391.013-.0782.026-.1172.0391-.1172.0651-.2018.0976-.2539.0976-.0391 0-.0716.013-.0977.0391-.1172.0521-.1823.0846-.1953.0976-.1042.0651-.1758.0977-.2148.0977-.0391 0-.0782.013-.1172.039-.2084.0782-.319.1368-.3321.1758 0 .1693.0131.2604.0391.2735.0911.0781.1497.1237.1758.1367.039.013.0781.0325.1172.0586.026.039.0521.0586.0781.0586.0391 0 .0781.013.1172.039.026.0131.0521.0326.0781.0586.0391.013.0781.0261.1172.0391.0521.0391.1237.0586.2148.0586.0651.013.1172.026.1563.039.0391 0 .0846.0066.1367.0196.1042.026.1823.039.2344.039.1562-.013.2604-.013.3125 0 .0651.0131.1172.0196.1562.0196.0651 0 .1302-.0065.1953-.0196.0652-.026.1303-.039.1954-.039.1562.013.2539.013.2929 0 .0521-.013.1042-.0196.1563-.0196zm-.7813-4.961c-.026-.052-.0455-.0976-.0586-.1367 0-.039-.0195-.0651-.0586-.0781-.0651-.1302-.1041-.2018-.1171-.2148 0-.0131-.0131-.0261-.0391-.0391-.1172-.1042-.1888-.1693-.2149-.1953-.1302-.1042-.2083-.1628-.2343-.1758-.1823-.0911-.306-.1367-.3711-.1367-.0521 0-.1237 0-.2149 0-.1432.0651-.2213.0976-.2343.0976-.0131 0-.0261.0065-.0391.0196-.1432.0781-.2279.1237-.2539.1367-.0261 0-.0391.0195-.0391.0586-.1041.0521-.1627.0846-.1758.0976-.013 0-.026 0-.039 0-.0781.1042-.1302.1758-.1563.2149-.013.026-.026.0521-.039.0781-.1042.1302-.1628.2083-.1758.2344-.013.026-.0261.0521-.0391.0781-.039.1693-.0846.2669-.1367.293-.0391.026-.0651.0716-.0781.1367-.0781.1042-.1172.1693-.1172.1953.013.013.013.026 0 .0391-.0391.1302-.0716.1953-.0977.1953-.052.2083-.0781.3255-.0781.3515.0261.1042.0261.1693 0 .1954-.013.026-.0065.0455.0195.0585.1693-.0781.2865-.1106.3516-.0976.1302-.0651.2149-.1042.2539-.1172.0391-.013.0716-.0325.0977-.0586.1432-.0781.2213-.1237.2343-.1367.1042-.0391.1758-.0651.2149-.0781.0391-.0131.0716-.0261.0976-.0391.1563-.0651.254-.1042.293-.1172.0521-.026.0912-.0521.1172-.0781.1042-.0651.1758-.0977.2148-.0977.0391-.013.0782-.0325.1172-.0586.0782-.039.1237-.0585.1368-.0585.026-.0131.052-.0261.0781-.0391.0521-.0261.0976-.0391.1367-.0391.0391-.013.0716-.0325.0977-.0586.1432-.0651.2148-.1041.2148-.1172.013-.026.026-.039.0391-.039.0781-.0912.1497-.1367.2148-.1367.0651-.0131.1107-.0456.1367-.0977zm1.4649-7.3437c.026.1302.0065.2279-.0586.293-.0651.052-.1237.1106-.1758.1757-.1042 0-.1953.0261-.2734.0782-.0651.0521-.1368.1041-.2149.1562-.1172.0781-.1758.1302-.1758.1563-.0911.0521-.1627.0911-.2148.1172-.0391.026-.0846.052-.1367.0781-.1302.0781-.2214.1237-.2735.1367-.039 0-.0781.013-.1172.0391-.1562.1041-.2604.1757-.3125.2148-.039.026-.0911.0586-.1562.0977-.0911.052-.1823.1041-.2734.1562-.0782.0391-.1563.0912-.2344.1563-.1302.1041-.2214.1692-.2735.1953-.052.013-.1106.0325-.1757.0586-.0912.039-.1888.0716-.293.0976-.0911-.039-.1497-.0651-.1758-.0781-.013-.013-.0325-.026-.0586-.0391-.0781-.1172-.1432-.1757-.1953-.1757-.0391-.0131-.0651-.0326-.0781-.0586-.0261-.0521-.0716-.1042-.1367-.1563-.0521-.0521-.0912-.1172-.1172-.1953-.0261-.026-.0586-.0456-.0977-.0586-.039-.013-.0716-.0325-.0976-.0586-.0651-.0651-.1107-.1237-.1368-.1758 0-.0521.0196-.0846.0586-.0976.0391-.0261.0782-.0521.1172-.0781.0391-.0391.0847-.0847.1367-.1368.0521-.0651.1042-.1172.1563-.1562.0391-.0391.0846-.0716.1367-.0977.0521-.026.1042-.0586.1563-.0976.1172-.1302.1823-.2084.1953-.2344.0911-.026.1497-.0586.1758-.0977.039-.052.1041-.0846.1953-.0976.0521-.0651.1041-.1172.1562-.1563.0651-.039.1237-.0846.1758-.1367s.0977-.1042.1367-.1562c.0391-.0521.0912-.0977.1563-.1368.1302-.1041.2343-.1953.3125-.2734.0651-.0521.1302-.0976.1953-.1367s.1107-.0912.1367-.1563c.0651-.026.1172-.052.1563-.0781.039-.0391.0781-.0781.1171-.1172.0912-.0911.1563-.1367.1954-.1367.052-.013.0846-.0195.0976-.0195.0391.0651.0716.1041.0977.1172.026 0 .052.013.0781.039.0911.0781.1497.1302.1758.1563.0911.0781.1497.1497.1758.2148.026.0521.052.0977.0781.1367.1041.1302.1692.1953.1953.1953.0781.0782.1302.1368.1562.1758.0391.0391.0717.0716.0977.0977.026.026.0456.0586.0586.0976.026.0261.0586.0521.0976.0782zm7.7738 5.4102c.143 0 .24-.0261.293-.0782.104-.0781.169-.1237.195-.1367s.052-.0325.078-.0586c.13-.1172.221-.2148.273-.293.105-.1041.157-.1627.157-.1757.091-.0912.149-.1498.175-.1758.027-.0261.053-.0521.079-.0781.091-.0391.156-.0782.195-.1172.052-.0521.104-.0912.156-.1172.091-.0391.156-.0716.195-.0977.144-.0521.215-.0781.215-.0781.013-.013.026-.0195.039-.0195.026-.0261.052-.0456.079-.0586.026-.0261.058-.0521.097-.0782.078-.013.15-.039.215-.0781.143-.0521.254-.0781.332-.0781.156-.0651.241-.0977.254-.0977.052-.026.098-.0325.137-.0195.039 0 .071-.0065.097-.0195.131.013.209.0195.235.0195h.332c.065-.013.117-.013.156 0 .078.013.143.0456.195.0977s.117.0781.196.0781c.026.0391.052.0716.078.0976.026.0261.045.0652.058.1172.104.0912.15.1368.137.1368 0 0 .007.0065.02.0195.052.1432.078.2213.078.2344.026.1432.026.2799 0 .4101-.013.0781-.02.2084-.02.3906.013.1823-.013.306-.078.3711.026.1302.026.267 0 .4102 0 .0651-.006.1302-.019.1953-.014.0521-.02.1107-.02.1758v.2344c.013.0781.02.1562.02.2343 0 .0521-.007.1042-.02.1563s-.026.0976-.039.1367c-.026.1302-.046.2214-.059.2734 0 .0391-.006.0782-.019.1172-.065.1823-.111.293-.137.3321-.039.039-.078.0586-.117.0586-.026 0-.059.0065-.098.0195-.143.0521-.228.0716-.254.0586-.013-.013-.039-.0326-.078-.0586-.039.013-.078.013-.117 0-.039-.0261-.078-.0391-.117-.0391-.235.013-.378.0261-.43.0391h-.215c-.117.0391-.195.0716-.234.0976-.039.0131-.072.0326-.098.0586-.143.0261-.228.0521-.254.0782-.091.013-.156.026-.195.039-.026.013-.052.0261-.078.0391-.143.026-.234.039-.274.039-.091.0391-.162.0847-.214.1368-.144.0521-.228.0911-.254.1172-.026.026-.059.0455-.098.0586-.026.039-.059.0716-.098.0976-.026.013-.052.0326-.078.0586-.078.0521-.136.0977-.175.1367-.092.0651-.157.1237-.196.1758-.039.0391-.078.0716-.117.0977-.026.026-.059.052-.098.0781-.026.026-.052.0521-.078.0781-.013.0521-.032.0912-.058.1172s-.052.0521-.078.0781c-.066.1563-.111.2604-.137.3125-.026.0391-.039.0912-.039.1563-.052.0521-.091.1172-.117.1953-.013.0651-.033.1432-.059.2344-.013.0651-.026.1367-.039.2148-.013.0651-.02.1302-.02.1953.026.1693.026.28 0 .332-.013.1303-.019.2084-.019.2344.013.0261.019.0521.019.0781-.013.1433-.019.2409-.019.293.013.0391.019.0846.019.1367-.026.1823-.045.2995-.058.3516 0 .0391-.007.0781-.02.1172v.0976c.013.1953.013.3321 0 .4102-.013.0651-.019.1367-.019.2148v.1758c.013.0521.019.1107.019.1758 0 .3125.026.5534.078.7227.013.1041.026.1757.039.2148s.02.0781.02.1172c.026.1042.039.1953.039.2734 0 .0782-.006.1302-.02.1563-.013.0911-.019.1627-.019.2148-.065.1172-.098.1888-.098.2149 0 .026-.006.052-.019.0781-.026.0391-.065.0781-.117.1172-.053.026-.092.0586-.118.0976-.091-.013-.195 0-.312.0391-.091.026-.156.0325-.195.0195-.0395 0-.0785.0065-.1176.0196-.0391 0-.0781 0-.1172 0-.0391.013-.0716.0195-.0977.0195-.1562.013-.2408.013-.2539 0 0 0-.0065 0-.0195 0-.1432 0-.2279-.0065-.2539-.0195-.013 0-.026 0-.0391 0l-.5273.0781c-.1953.013-.332.0195-.4102.0195-.0651.013-.1302.0065-.1953-.0195-.1823-.0261-.3125-.0521-.3906-.0781-.0651-.0261-.1302-.0391-.1953-.0391-.0912-.0781-.1628-.1367-.2149-.1758-.052-.0521-.1041-.0976-.1562-.1367-.0391-.1302-.0651-.2083-.0781-.2344 0-.026-.0065-.0521-.0196-.0781-.052-.1823-.0781-.28-.0781-.293 0-.1692 0-.306 0-.4101.013-.1172.0261-.2149.0391-.293.013-.0521.0195-.1497.0195-.293.0261-.1432.0391-.2213.0391-.2343 0-.0651 0-.1237 0-.1758s.0065-.0912.0195-.1172c.026-.1823.0391-.2865.0391-.3125-.0131-.1042-.0196-.1628-.0196-.1758.0131-.026.0196-.0521.0196-.0781 0-.0651-.0065-.1432-.0196-.2344 0-.0911 0-.1823 0-.2734.0261-.1563.0326-.2409.0196-.2539 0-.0131.0065-.0326.0195-.0586 0-.0651.0065-.1237.0195-.1758s.0065-.1042-.0195-.1563c0-.1432 0-.2213 0-.2343.013-.0261.0195-.0521.0195-.0782 0-.1041 0-.1953 0-.2734.013-.0911.013-.1888 0-.293 0-.039-.0065-.0781-.0195-.1172 0-.052 0-.1041 0-.1562 0-.1172.0065-.2214.0195-.3125.013-.1042.013-.2083 0-.3125-.013-.1693-.026-.306-.039-.4102 0-.1041.0065-.2083.0195-.3125-.013-.1302-.0195-.2018-.0195-.2148-.0261-.0912-.0391-.1563-.0391-.1953.013-.0521.013-.1107 0-.1758 0-.1172-.013-.1823-.0391-.1953-.013-.0261-.0195-.0521-.0195-.0781.013-.1172.013-.2019 0-.2539-.013-.0521-.0195-.1042-.0195-.1563.013-.0521.0195-.0911.0195-.1172.013-.039.0195-.0781.0195-.1172-.013-.1172-.0195-.1823-.0195-.1953.013-.013.0195-.026.0195-.039l-.0195-.4883c0-.0912 0-.1628 0-.2149 0-.0651-.013-.1302-.0391-.1953-.013-.0651-.013-.1432 0-.2344.0131-.1041.0131-.1692 0-.1953-.013-.039-.0195-.0846-.0195-.1367.013-.0651.013-.1302 0-.1953s-.0195-.1237-.0195-.1758c0-.039 0-.0781 0-.1172.013-.0521.0195-.0976.0195-.1367 0-.0651-.013-.1302-.039-.1953-.0131-.0651-.0196-.1302-.0196-.1953.0521-.1953.0847-.3125.0977-.3516.013-.0521.039-.1041.0781-.1562.1172-.1042.1758-.1628.1758-.1758s.0065-.0195.0195-.0195c.1042-.0131.1758-.0131.2149 0 .039 0 .0651-.0131.0781-.0391.039.026.0781.0326.1172.0195.0521-.013.0976-.0195.1367-.0195.2083-.0391.4427-.0391.7031 0 .1432.026.2214.0391.2344.0391.013-.0131.026-.0196.0391-.0196h.2343c.0391-.013.0782-.0195.1172-.0195.0912-.013.1498-.013.1758 0 .0391 0 .0846-.0065.1367-.0195.1563-.0261.2474-.0326.2735-.0196.026 0 .0585-.0065.0976-.0195.0261 0 .0651.0065.1172.0195.0521 0 .0977-.013.1367-.039.1045.013.1955.026.2735.039.078 0 .176.0065.293.0196.091.0911.156.1367.195.1367.039.0391.065.1107.078.2148.039.1172.052.1888.039.2149 0 .026.007.0521.02.0781 0 .0651.013.1432.039.2344.026.0911.039.1823.039.2734v.2149zm9.316-5.1563c.065.013.111.0391.137.0781.039.0391.078.0782.117.1172.065.2344.098.3776.098.4297v.3516c.013.039.019.0976.019.1757 0 .0651-.006.1107-.019.1368v.0976c-.013.0391-.02.0781-.02.1172.013.0391.02.0846.02.1367.013.1172.013.2279 0 .3321-.039.1302-.066.2018-.079.2148l-.136.1953c-.052.0521-.085.0912-.098.1172s-.032.0456-.059.0586c-.169.0651-.292.1107-.371.1367-.065.013-.13.0261-.195.0391-.039 0-.111.013-.215.039-.026 0-.065.0065-.117.0196-.039 0-.072 0-.098 0-.156.013-.234.0195-.234.0195-.104-.013-.163-.0195-.176-.0195-.013-.0131-.026-.0196-.039-.0196-.143.0261-.241.0391-.293.0391-.052-.013-.11-.026-.176-.0391-.156 0-.253 0-.293 0-.026-.013-.065-.013-.117 0-.182-.013-.293-.013-.332 0h-.39c-.118-.1171-.183-.1757-.196-.1757 0 0-.006-.0131-.019-.0391l-.176-.1758c0-.1432-.02-.293-.059-.4492l-.039-.3906v-.2539c0-.1823.013-.3125.039-.3907 0-.1562.013-.2474.039-.2734.026-.0391.04-.0781.04-.1172.078-.1172.123-.1888.136-.2148.013-.0261.033-.0521.059-.0782l.351-.1562c.157-.0521.254-.0846.293-.0977.039-.013.072-.026.098-.039h.293l.273-.0586c.053-.013.105-.0261.157-.0391.065-.013.123-.0195.175-.0195.04 0 .079.0065.118.0195h.117.117c.039-.013.085-.0195.137-.0195.104 0 .195.0065.273.0195.091.013.182.0065.274-.0195.039-.013.11-.0065.214.0195.105.013.189.0326.254.0586zm.293 14.9219c.013.0651 0 .1172-.039.1562-.039.0261-.052.0586-.039.0977-.182.039-.274.0586-.274.0586-.104.0521-.221.0911-.351.1172-.104.026-.215.0325-.332.0195-.104 0-.228-.0065-.371-.0195-.143.013-.248.0195-.313.0195-.052 0-.104 0-.156 0h-.293c-.13.013-.202.0195-.215.0195-.117 0-.215.0065-.293.0196-.065.026-.11.039-.137.039h-.273l-.273-.0586c-.052 0-.105 0-.157 0-.052.013-.11.013-.175 0-.066-.026-.118-.0521-.157-.0781-.039-.013-.084-.0195-.136-.0195-.065-.1433-.098-.2214-.098-.2344 0-.026-.007-.0456-.02-.0586-.039-.0651-.058-.1237-.058-.1758.013-.0651.019-.1237.019-.1758 0-.039-.006-.0781-.019-.1171 0-.0391 0-.0717 0-.0977 0-.0391.006-.0781.019-.1172s.02-.0846.02-.1367c.013-.0521.019-.1107.019-.1758.013-.0651.026-.1302.039-.1953.014-.1042.02-.1823.02-.2344 0-.0651 0-.1107 0-.1367.013-.0391.02-.0781.02-.1172 0-.0521.006-.1042.019-.1562.013-.0782.013-.1368 0-.1758-.013-.0521-.019-.0977-.019-.1367 0-.0261 0-.0651 0-.1172.013-.0521.019-.1107.019-.1758 0-.0912-.006-.1758-.019-.2539 0-.0781 0-.1563 0-.2344 0-.0651.013-.1627.039-.293v-.2539c.013-.1171.019-.2604.019-.4297 0-.1692-.006-.3255-.019-.4687v-.2148c.013-.1563.019-.2735.019-.3516.013-.0912.013-.1823 0-.2734 0-.0391-.006-.0717-.019-.0977 0-.0391 0-.0781 0-.1172-.013-.0651-.02-.1237-.02-.1758s0-.1106 0-.1758c0-.0781-.006-.1236-.019-.1367 0-.026 0-.0521 0-.0781v-.3516c-.013-.1432-.013-.2213 0-.2343.013-.0261.019-.0521.019-.0782 0-.1562 0-.2539 0-.2929.013-.0521.02-.1042.02-.1563 0-.1302 0-.2018 0-.2148 0-.2214-.007-.3581-.02-.4102-.039-.1302-.059-.2083-.059-.2343v-.293c0-.1172-.006-.1888-.019-.2149 0-.039.006-.0846.019-.1367 0-.0911-.006-.1823-.019-.2734 0-.0912 0-.1888 0-.293-.013-.0911-.013-.1562 0-.1953s.019-.0781.019-.1172v-.5469c-.026-.1562-.026-.3255 0-.5078.027-.1302.053-.2083.079-.2344.039-.1302.065-.2018.078-.2148.117-.1562.234-.2604.351-.3125.065-.026.117-.0521.157-.0781.052-.0391.091-.0586.117-.0586.117-.0261.195-.0391.234-.0391.143-.013.287-.013.43 0s.286.0065.429-.0195c.118-.013.196-.0065.235.0195.039.013.084.0065.137-.0195.169-.013.273-.013.312 0h.117c.104-.026.176-.0326.215-.0195h.352c.039 0 .084.0065.136.0195.052 0 .092.013.118.0391.026-.0261.097-.0391.214-.0391.039.026.066.0521.079.0781.026.0261.065.0391.117.0391.052.1172.097.1953.136.2344.04.1171.085.2408.137.371.026.0652.039.1433.039.2344 0 .0912.007.1888.02.293v.1562c.013.0521.019.0977.019.1368 0 .0651-.006.1302-.019.1953 0 .0651-.007.1302-.02.1953-.013.1953-.019.3581-.019.4883 0 .1172-.007.2343-.02.3515-.013.0651-.026.1302-.039.1953v.1954c0 .052.007.1041.02.1562.013.0391.019.0846.019.1367 0 .1042-.006.2149-.019.3321-.013.1041-.026.2148-.039.332-.013.1042-.026.2083-.039.3125-.014.0911-.02.1953-.02.3125v.0976c.013.0391.02.0782.02.1172 0 .0651-.007.1237-.02.1758v.1563.1953c.013.0651.013.1302 0 .1953 0 .0651-.007.1302-.02.1953-.013.0521-.019.1107-.019.1758-.013.1041-.013.2083 0 .3125.013.1041.019.2083.019.3125 0 .0651-.006.1302-.019.1953s-.013.1302 0 .1953c.039.2214.052.3711.039.4492s-.013.1628 0 .2539c.013.1433.013.2409 0 .293v.0977.5078c0 .0911-.007.1627-.02.2148.053.0912.066.2018.04.332-.027.1172-.014.2149.039.293-.026.0912-.039.1888-.039.293.013.1041.032.1953.058.2734l.02.5274c.013.0781.019.1627.019.2539.013.0781.02.1497.02.2148l-.02.2149zm9.043-2.8711c.026.039.059.0521.098.039l.117-.039c.182-.0391.299-.0586.351-.0586.052-.013.111-.0261.176-.0391.104-.026.208-.0586.313-.0976.117-.0521.234-.0912.351-.1172.026-.013.059-.0196.098-.0196.052-.013.091-.026.117-.039.078-.0521.137-.0846.176-.0977.052-.026.091-.0521.117-.0781.13-.1042.215-.1628.254-.1758s.072-.0325.098-.0586c.182-.0521.286-.0716.312-.0586.104.0261.156.1107.156.2539-.013.1823-.019.2995-.019.3516.013.0391.019.0912.019.1563.013.1041.02.2018.02.2929v.2735.1172c.013.039.019.0716.019.0976 0 .0651-.013.1367-.039.2148-.013.0782-.019.1498-.019.2149.013.2083.013.4036 0 .5859-.039.1693-.052.28-.039.3321.013.052.019.0976.019.1367-.013.0911-.026.1693-.039.2344-.13.1302-.228.2018-.293.2148-.065 0-.11.0326-.136.0977-.079.013-.131.026-.157.039-.013.013-.032.0261-.058.0391-.091.0781-.163.1172-.215.1172-.039 0-.078.0065-.117.0195l-.235.0977c-.143.052-.241.0781-.293.0781s-.104.026-.156.0781c-.052 0-.104.013-.156.0391-.039.013-.091.026-.156.039-.131.0261-.222.0456-.274.0586-.091.0391-.156.0586-.195.0586s-.085.0065-.137.0195c-.065.0131-.137.0196-.215.0196-.065.013-.136.026-.215.039-.195.0391-.332.0521-.41.0391-.078 0-.156.013-.234.0391-.104 0-.189.0065-.254.0195s-.13.0195-.195.0195c-.078 0-.157-.0065-.235-.0195-.065-.013-.136-.026-.215-.0391-.052.0261-.117.0326-.195.0196-.065-.0131-.15-.0326-.254-.0586-.104-.013-.176-.0261-.215-.0391-.156 0-.26-.0065-.312-.0195-.039-.013-.085-.0261-.137-.0391s-.098-.0195-.137-.0195-.084-.0065-.136-.0195c-.091-.0131-.157-.0261-.196-.0391s-.078-.026-.117-.0391c-.156-.039-.247-.0651-.273-.0781l-.176-.1367c-.104-.0261-.208-.0651-.313-.1172-.039-.026-.078-.0456-.117-.0586-.026-.013-.058-.0391-.097-.0781-.026-.0391-.065-.0651-.118-.0781-.039-.0131-.078-.0326-.117-.0586-.143-.0912-.221-.1433-.234-.1563 0-.013-.007-.026-.02-.039-.091-.0391-.143-.0652-.156-.0782 0-.013-.013-.026-.039-.039l-.195-.1172c-.078-.0782-.15-.1302-.215-.1563-.026-.0651-.065-.1107-.117-.1367-.039-.0391-.072-.0911-.098-.1562-.091-.0782-.156-.1303-.195-.1563s-.072-.0651-.098-.1172c-.039-.026-.072-.0521-.098-.0781-.013-.0391-.032-.0716-.058-.0977-.052-.039-.085-.1106-.098-.2148-.078-.0781-.117-.1302-.117-.1563 0-.026-.007-.052-.02-.0781-.078-.1041-.13-.1693-.156-.1953-.078-.0911-.117-.1432-.117-.1562 0-.0131-.006-.0326-.02-.0586-.091-.1823-.156-.293-.195-.3321 0-.0651-.006-.1106-.019-.1367-.013-.026-.02-.0586-.02-.0976-.065-.1303-.098-.2084-.098-.2344 0-.0391 0-.0716 0-.0977-.039-.1302-.065-.1953-.078-.1953 0 0 0-.0065 0-.0195-.065-.1953-.104-.319-.117-.3711-.013-.0651-.032-.1237-.058-.1758-.026-.1302-.046-.2148-.059-.2539 0-.0391-.007-.0911-.02-.1563 0-.0781-.006-.1562-.019-.2343-.013-.0912-.02-.1433-.02-.1563 0-.026 0-.0651 0-.1172.013-.0651.013-.1172 0-.1562-.013-.0391-.032-.0716-.058-.0977-.026-.039-.039-.0781-.039-.1172.065-.1953.097-.319.097-.3711 0-.0651 0-.1432 0-.2343.026-.1172.033-.2084.02-.2735s-.013-.1302 0-.1953c0-.039 0-.0781 0-.1172 0-.052.013-.0911.039-.1171-.026-.0521-.033-.0912-.02-.1172.026-.0391.046-.0782.059-.1172 0-.1433 0-.2149 0-.2149.013-.013.02-.0325.02-.0586.026-.1171.045-.2148.058-.2929.026-.0912.052-.1693.078-.2344.039-.1042.059-.1628.059-.1758 0-.026.006-.0521.019-.0781.052-.0781.085-.1302.098-.1563.013-.026.026-.052.039-.0781.052-.1953.111-.345.176-.4492s.111-.1823.137-.2344.052-.0911.078-.1172c0-.0521.013-.0911.039-.1172.039-.026.071-.052.097-.0781.066-.1172.111-.1823.137-.1953.065-.1172.098-.1823.098-.1953.117-.1302.189-.2018.215-.2148.026-.0131.052-.0326.078-.0586.091-.1042.13-.1628.117-.1758 0-.0261.006-.0391.02-.0391.039-.013.065-.0325.078-.0586.026-.039.052-.0716.078-.0976.117-.1042.182-.1628.195-.1758s.033-.0261.059-.0391c.052-.0911.084-.1367.097-.1367.026 0 .039-.013.039-.0391.131-.0911.202-.1432.215-.1562.026-.013.052-.0326.078-.0586.105-.0781.163-.1172.176-.1172.026-.013.046-.026.059-.0391.13-.0781.202-.1302.215-.1562.117-.0912.182-.1367.195-.1367.026-.013.039-.0326.039-.0586.156-.0781.247-.1172.273-.1172s.052-.0065.079-.0195c.195-.0782.319-.1302.371-.1563.026-.013.052-.0195.078-.0195.039-.013.091-.0261.156-.0391.026-.013.052-.026.078-.039.039-.0131.085-.0261.137-.0391.13-.0391.195-.0586.195-.0586 0-.013.013-.0195.039-.0195.091-.0261.15-.0456.176-.0586s.072-.0196.137-.0196c.169-.013.325-.013.468 0 .131.0131.222.0131.274 0 .052-.013.111-.0195.176-.0195.052 0 .13.013.234.0391h.215c.13.039.195.0586.195.0586 0-.0131.013-.0196.039-.0196.104.0261.163.0391.176.0391.026-.013.052-.013.078 0 .052 0 .098.013.137.0391.052.026.111.026.176 0 .143.0651.234.1041.273.1172.052.013.111.026.176.039.13.0521.221.0912.273.1172.065.013.124.0391.176.0781.078-.026.15.0065.215.0977.13.0781.202.1172.215.1172s.026.0065.039.0195c.065.0651.117.1107.156.1367.039.0261.072.0586.098.0977.065.0911.104.1432.117.1562.013 0 .026.0065.039.0196.039.039.078.0781.117.1171.052.0391.091.0847.117.1368.105.1041.157.1562.157.1562.052.0521.091.0977.117.1367.039.0261.071.0586.097.0977.105.1042.157.1693.157.1953 0 .013.006.0326.019.0586.104.1693.163.2604.176.2734.052.0912.098.1563.137.1953.026.0391.045.0782.058.1172.013.0391.033.0782.059.1172-.013.0391-.013.0781 0 .1172.026.0391.052.0716.078.0977.026.052.046.1237.059.2148.013.0781.032.1497.058.2149.026.039.046.0781.059.1171.013.0261.032.0651.058.1172.026.1563.04.2344.04.2344 0 .0391.006.0781.019.1172.013.026.026.0586.039.0976.013.1172.013.1758 0 .1758 0 0 .007.013.02.0391l.058.2148c.026.1042.039.1953.039.2735 0 .039.007.0781.02.1172.013.026.019.0585.019.0976-.026.1563-.039.2604-.039.3125.013.0391.013.0716 0 .0977-.117.1172-.189.1888-.215.2148-.013.0261-.032.0456-.058.0586-.104.0521-.163.0846-.176.0977 0 .013-.006.026-.019.039-.144.0651-.235.0977-.274.0977-.026 0-.052.013-.078.039-.104.0391-.176.0717-.215.0977-.026.026-.052.0521-.078.0781-.13.0391-.195.0716-.195.0977-.078.039-.144.0716-.196.0976-.052.0131-.097.0326-.136.0586-.144.0782-.267.1433-.371.1953-.131.0782-.222.1237-.274.1368-.052.013-.091.0325-.117.0586-.104.052-.169.0846-.195.0976s-.052.0326-.078.0586c-.131.0912-.215.1432-.254.1563-.026.013-.052.039-.079.0781-.026-.013-.065-.0065-.117.0195-.052.0261-.097.0521-.136.0781-.157.0651-.261.1042-.313.1172-.039 0-.072.0196-.098.0586-.039 0-.078.013-.117.0391-.026.013-.058.026-.097.039-.039.0131-.085.0196-.137.0196-.039-.013-.078-.0065-.117.0195-.118.0781-.189.1172-.215.1172-.026.026-.065.0456-.117.0586-.039.013-.078.026-.118.0391-.117.0651-.201.0976-.253.0976-.04 0-.072.013-.098.0391-.117.0521-.182.0846-.195.0976-.105.0651-.176.0977-.215.0977s-.078.013-.117.039c-.209.0782-.319.1368-.332.1758 0 .1693.013.2604.039.2735.091.0781.149.1237.175.1367.039.013.078.0325.118.0586.026.039.052.0586.078.0586.039 0 .078.013.117.039.026.0131.052.0326.078.0586.039.013.078.0261.117.0391.052.0391.124.0586.215.0586.065.013.117.026.156.039.039 0 .085.0066.137.0196.104.026.182.039.234.039.157-.013.261-.013.313 0 .065.0131.117.0196.156.0196.065 0 .13-.0065.195-.0196.066-.026.131-.039.196-.039.156.013.254.013.293 0 .052-.013.104-.0196.156-.0196zm-.781-4.961c-.026-.052-.046-.0976-.059-.1367 0-.039-.019-.0651-.058-.0781-.066-.1302-.105-.2018-.118-.2148 0-.0131-.013-.0261-.039-.0391-.117-.1042-.189-.1693-.215-.1953-.13-.1042-.208-.1628-.234-.1758-.182-.0911-.306-.1367-.371-.1367-.052 0-.124 0-.215 0-.143.0651-.221.0976-.234.0976s-.026.0065-.039.0196c-.144.0781-.228.1237-.254.1367-.026 0-.039.0195-.039.0586-.104.0521-.163.0846-.176.0976-.013 0-.026 0-.039 0-.078.1042-.13.1758-.156.2149-.013.026-.026.0521-.039.0781-.105.1302-.163.2083-.176.2344-.013.026-.026.0521-.039.0781-.039.1693-.085.2669-.137.293-.039.026-.065.0716-.078.1367-.078.1042-.117.1693-.117.1953.013.013.013.026 0 .0391-.039.1302-.072.1953-.098.1953-.052.2083-.078.3255-.078.3515.026.1042.026.1693 0 .1954-.013.026-.007.0455.019.0585.17-.0781.287-.1106.352-.0976.13-.0651.215-.1042.254-.1172s.072-.0325.098-.0586c.143-.0781.221-.1237.234-.1367.104-.0391.176-.0651.215-.0781.039-.0131.071-.0261.097-.0391.157-.0651.254-.1042.293-.1172.052-.026.092-.0521.118-.0781.104-.0651.175-.0977.214-.0977.039-.013.079-.0325.118-.0586.078-.039.123-.0585.136-.0585.026-.0131.052-.0261.078-.0391.053-.0261.098-.0391.137-.0391.039-.013.072-.0325.098-.0586.143-.0651.215-.1041.215-.1172.013-.026.026-.039.039-.039.078-.0912.149-.1367.215-.1367.065-.0131.11-.0456.136-.0977zm9.16-1.3867c.117-.0911.182-.1302.195-.1172.013 0 .02-.0065.02-.0195.104-.0911.169-.1497.195-.1758.078-.039.124-.0651.137-.0781.026-.013.052-.026.078-.0391l.273-.1953c.052-.026.091-.0586.117-.0976.04-.0521.079-.1042.118-.1563.143-.0781.221-.1237.234-.1367.052-.0521.098-.0846.137-.0977.039-.013.071-.0325.097-.0585.17-.1433.306-.2344.411-.2735.052-.0651.11-.1107.175-.1367.065-.0391.124-.0912.176-.1563.091-.026.156-.0585.195-.0976.066-.0521.111-.0846.137-.0977.039-.026.078-.0455.117-.0586.157-.013.241-.0195.254-.0195.104.013.176.0195.215.0195.091.0782.143.1172.156.1172.026 0 .052.013.078.0391.027.026.059.0521.098.0781.039.013.072.0326.098.0586l.176.1367c.117.0651.175.1042.175.1172 0 0 .007.0065.02.0195.078.0651.137.1107.176.1368.039.026.065.0586.078.0976.091.0391.163.0912.215.1563.065.0521.13.1106.195.1757.143.0912.234.1498.273.1758.039.0261.072.0521.098.0782.104.039.182.1041.234.1953.053.0911.131.1627.235.2148.104.1042.156.1563.156.1563.026.039.052.0846.078.1367.039.0521.072.0976.098.1367.104.1172.163.1888.176.2148.013.0131.032.0326.058.0586.065.0782.124.1563.176.2344.052.1042.098.2149.137.332.052.1172.11.2279.175.3321-.026.1041-.019.2148.02.332l.02.2149c0 .0911.006.1562.019.1953.013.039.02.0716.02.0976.026.0391.026.0781 0 .1172-.013.0391-.02.0846-.02.1367.013.1563.013.2604 0 .3125v.1172.0977c.013.039.013.0846 0 .1367-.026.1693-.045.2864-.059.3515 0 .0521.007.1237.02.2149 0 .1432-.013.2474-.039.3125-.013.0521-.02.1107-.02.1758.013.1562.02.2539.02.2929.013.0261.019.0521.019.0782l-.019.4687c.013.1302.013.1953 0 .1953v.0196c.013.1041.013.1627 0 .1757v.0391.1172c.013.0391.019.0781.019.1172v.1758c.014.013.02.026.02.039-.039.1172-.059.1823-.059.1953.013.0131.02.0326.02.0586v.1563c.013.039.019.0846.019.1367 0 .0651-.006.1302-.019.1953v.1953.2149c.039.1953.059.358.059.4883 0 .1302.006.2604.019.3906v.1953c.013.013.02.0325.02.0586.013.1432.019.2864.019.4297v.4101c0 .0391.007.0781.02.1172s.013.0781 0 .1172-.026.0716-.039.0977c-.013.013-.033.0455-.059.0976-.26.1042-.423.1628-.488.1758-.065.026-.143.026-.235 0-.065 0-.149-.0065-.254-.0195-.091 0-.169.0065-.234.0195-.143-.013-.241-.0195-.293-.0195-.039.013-.085.0195-.137.0195h-.332c-.065 0-.13 0-.195 0-.052.013-.104.013-.156 0-.13-.0391-.202-.0586-.215-.0586-.026 0-.059 0-.098 0-.039.013-.091.0195-.156.0195-.156-.013-.247-.013-.273 0-.013.0131-.033.0131-.059 0-.026.0261-.065.0391-.117.0391s-.111 0-.176 0c-.117.026-.208.0195-.273-.0195-.118-.1042-.202-.1758-.254-.2149 0-.0651-.007-.1302-.02-.1953s-.019-.1367-.019-.2148l.039-.2539.019-.2149c.013-.026.02-.0586.02-.0976.013-.0391.032-.0912.058-.1563.013-.0391.02-.0716.02-.0976.013-.0391.026-.0912.039-.1563 0-.1563.006-.2669.019-.332.014-.0782.02-.1498.02-.2149-.013-.1692-.006-.2799.02-.332 0-.1432.006-.2214.019-.2344-.013-.1302-.013-.2083 0-.2344.013-.026.02-.052.02-.0781 0-.1562 0-.2409 0-.2539.013-.013.019-.026.019-.039-.026-.1433-.039-.2214-.039-.2344.013-.013.02-.0261.02-.0391 0-.0391-.007-.0781-.02-.1172 0-.0521 0-.1107 0-.1758v-.2539c-.013-.1432-.019-.2539-.019-.332-.026-.1562-.04-.2604-.04-.3125.014-.0521.02-.0977.02-.1367 0-.1823 0-.319 0-.4102 0-.1041-.013-.1888-.039-.2539.026-.026.033-.0651.019-.1172 0-.052 0-.0976 0-.1367.014-.1302.007-.2278-.019-.293-.013-.0781-.007-.1432.019-.1953-.013-.1171-.026-.2018-.039-.2539 0-.0521-.026-.0911-.078-.1172-.117-.1041-.175-.1692-.175-.1953-.17-.013-.313.0131-.43.0782-.091.1171-.143.1757-.156.1757-.092.1302-.163.2149-.215.2539-.039.0391-.078.0847-.117.1368-.105.1302-.17.2083-.196.2343-.143.0782-.247.1433-.312.1954-.052.052-.117.0716-.196.0585-.065 0-.123-.0195-.175-.0585-.039-.0521-.092-.0912-.157-.1172-.026-.0651-.058-.1172-.097-.1563s-.072-.0911-.098-.1562c-.091-.1302-.137-.1953-.137-.1953.013 0 .013-.0066 0-.0196-.065-.1172-.136-.2278-.214-.332-.027.026-.04.0586-.04.0976v.1172.2344.4297c0 .0651-.006.1367-.019.2148v.2344.4883c.013.1562.019.319.019.4883.026.0651.04.1367.04.2148v.2149l.019.2148v.1367c.013.0261.02.0521.02.0781.013.1433.013.2279 0 .254-.013.026-.02.052-.02.0781 0 .0781.013.1823.039.3125-.013.0521-.019.1107-.019.1758.013.0651.019.1237.019.1757.013.0391.013.0782 0 .1172v.1172c.013.1302.026.2214.039.2735.013.039.02.0716.02.0976.026.2344.039.3841.039.4492.013.0391.013.0847 0 .1368 0 .039.006.0781.019.1171.026.1302.033.2019.02.2149v.0586l.058.2929c-.013.1303-.019.2019-.019.2149.013.013.019.0325.019.0586-.039.1432-.058.2474-.058.3125s-.02.1107-.059.1367c-.13.013-.228.0195-.293.0195-.065.0131-.123.0326-.176.0586-.221.0261-.397.0196-.527-.0195-.13-.026-.202-.0391-.215-.0391-.013.0131-.032.0196-.058.0196-.052 0-.091-.0065-.117-.0196-.027 0-.066 0-.118 0-.156-.013-.254-.0195-.293-.0195-.026 0-.058-.0065-.097-.0195-.065 0-.137 0-.215 0-.065-.0131-.13-.0261-.195-.0391-.157-.0391-.3-.0456-.43-.0195-.117.026-.208.0455-.274.0586-.091 0-.149 0-.175 0-.013-.0131-.033-.0131-.059 0-.039 0-.078.0065-.117.0195-.026 0-.065-.0065-.117-.0195-.104 0-.189.013-.254.039-.143-.0521-.222-.0781-.235-.0781 0 0-.006-.013-.019-.0391-.039-.0651-.072-.1106-.098-.1367-.013-.026-.019-.0586-.019-.0976.013-.2084.013-.3581 0-.4492 0-.1042.006-.2019.019-.293 0-.1563 0-.2539 0-.293.013-.0521.026-.0976.039-.1367.026-.2344.052-.3841.078-.4492.013-.1693.013-.28 0-.3321-.013-.052-.013-.1041 0-.1562 0-.1432.007-.2214.02-.2344.013-.026.019-.0521.019-.0781l-.019-.2539c0-.0781 0-.1498 0-.2149s-.013-.1237-.039-.1757c.013-.1433.006-.2409-.02-.293-.013-.0651-.006-.1042.02-.1172.013-.1172.019-.1823.019-.1953s-.006-.0326-.019-.0586c0-.0391 0-.0781 0-.1172.013-.0391.019-.0716.019-.0976 0-.0521-.006-.0912-.019-.1172-.013-.0391-.007-.0782.019-.1172 0-.1302 0-.2279 0-.293 0-.0781 0-.1497 0-.2148s-.006-.1237-.019-.1758-.02-.0977-.02-.1367c.013-.1693.007-.28-.019-.3321.013-.052.019-.0976.019-.1367 0-.0521.007-.1041.02-.1562v-.2344-.4102c0-.1041-.007-.1757-.02-.2148 0-.0521 0-.0977 0-.1367-.026-.1302-.039-.2344-.039-.3125 0-.0912 0-.1693 0-.2344.013-.1042.013-.1693 0-.1953-.013-.0391 0-.0521.039-.0391-.013-.2083-.032-.3515-.058-.4297-.013-.0781-.007-.1497.019-.2148-.013-.026-.026-.0586-.039-.0977-.013-.039-.019-.0846-.019-.1367.013-.1172.013-.1888 0-.2148-.013-.0261-.02-.0521-.02-.0781 0-.1693 0-.2995 0-.3907-.013-.1432-.019-.2343-.019-.2734.013-.0521.019-.1042.019-.1563v-.2929c-.013-.1042-.019-.1823-.019-.2344-.026-.1563-.039-.2539-.039-.293 0-.039-.007-.0781-.02-.1172l-.02-.2734c-.013-.1172-.013-.2474 0-.3906.118-.1433.17-.2149.157-.2149.156-.0651.254-.0976.293-.0976.156.013.254.013.293 0s.084-.0261.136-.0391c.105 0 .17-.0065.196-.0195s.052-.0196.078-.0196c.039-.013.078-.013.117 0 .052.0131.091.0066.117-.0195.182.013.313.0195.391.0195s.15-.013.215-.039c.039-.013.091-.013.156 0s.117.039.156.0781c.065-.026.124-.0325.176-.0195h.156c.143.026.261.039.352.039.104-.013.195-.0065.273.0196.065-.0261.143-.0326.235-.0196.091.0131.169 0 .234-.039l.234.0586c.131.1302.222.2474.274.3515.052.0912.039.1823-.039.2735-.026.1172-.046.2344-.059.3515-.013.1042-.032.2214-.058.3516-.014.1563-.027.2474-.04.2734 0 .0261-.006.0521-.019.0782-.013.0651-.02.1237-.02.1757.013.0521.007.1107-.019.1758zm14.238.5664c-.117.0651-.182.1042-.195.1172v.0196c-.209.0781-.358.1236-.449.1367-.092.013-.176.039-.254.0781-.17.0911-.28.1628-.332.2148-.118.1042-.215.1823-.293.2344-.117.2083-.215.3516-.293.4297s-.117.1758-.117.293c.039.0651.058.1172.058.1562 0 .0261.007.0521.02.0781 0 .0261.006.0586.019.0977s.013.0911 0 .1563c.026.026.046.0585.059.0976.026.026.052.0521.078.0781.039.0521.072.1172.098.1953.026.0782.052.1498.078.2149.065.026.117.0716.156.1367s.085.1172.137.1563c.065.1171.11.1888.136.2148.079.1172.124.1758.137.1758.117.1172.189.2213.215.3125.026.039.052.0716.078.0976.039.0261.072.0521.098.0782l.156.2343.215.2735c.026.0651.045.1107.058.1367.013.013.026.0325.039.0586.04.1172.066.1823.079.1953.026.013.039.0326.039.0586l.058.2539c.065.1563.091.2604.078.3125 0 .0391.007.0781.02.1172.039.1042.065.1758.078.2148l.039.2149c-.078.2083-.143.4166-.195.625-.078.1432-.137.2278-.176.2539-.026.013-.039.0456-.039.0976-.104.0782-.163.1302-.176.1563 0 .026-.013.0325-.039.0195-.078.1172-.117.1823-.117.1953 0 .0131-.013.0326-.039.0586-.026.0391-.065.0716-.117.0977-.039.026-.072.0651-.098.1172-.13.039-.228.1237-.293.2539-.091.0781-.156.1302-.195.1562-.039.013-.072.0456-.098.0977-.117.026-.208.0846-.273.1758-.052.0781-.131.1367-.235.1757-.039.0391-.078.0782-.117.1172-.039.0261-.078.0586-.117.0977-.078.039-.124.0716-.137.0976 0 .0261-.006.0456-.019.0586-.078.0261-.131.0456-.157.0586-.013 0-.032.0131-.058.0391-.143.0781-.222.1432-.235.1953-.091.013-.162.0391-.214.0781-.053.0521-.111.0912-.176.1172-.104.0912-.182.1498-.235.1758-.039.026-.071.0391-.097.0391-.143.026-.228.052-.254.0781-.026.026-.052.0521-.078.0781-.078.0261-.13.0456-.157.0586-.026.013-.052.026-.078.0391-.078.026-.136.0455-.175.0586-.026.026-.053.039-.079.039-.091 0-.156-.013-.195-.039-.026-.0261-.071-.0456-.137-.0586-.026-.0521-.058-.1042-.097-.1563-.026-.0521-.065-.0911-.117-.1172-.039-.0651-.072-.1302-.098-.1953-.052-.0651-.091-.1107-.117-.1367-.013-.026-.033-.0391-.059-.0391-.065-.1302-.111-.2213-.137-.2734-.078-.1693-.149-.2865-.214-.3516-.066-.1171-.098-.1823-.098-.1953s-.007-.026-.02-.039c-.026-.0391-.052-.0717-.078-.0977-.013-.026-.026-.0586-.039-.0977-.078-.0651-.137-.1432-.176-.2343-.039-.1042-.091-.1888-.156-.2539l-.137-.2149c-.078-.1172-.123-.1823-.136-.1953s-.013-.0325 0-.0586c-.065-.1172-.104-.1953-.117-.2344-.066-.1302-.098-.2148-.098-.2539-.026-.1041-.033-.1627-.02-.1757.013-.0131.026-.0326.039-.0586.026-.0912.039-.1433.039-.1563 0-.026.007-.0521.02-.0781.052-.0651.111-.1107.176-.1367.156-.0651.26-.1042.312-.1172s.098-.0326.137-.0586c.143-.0391.228-.0716.254-.0977.039-.026.091-.0455.156-.0586.143-.0781.228-.1237.254-.1367.026-.026.059-.0456.098-.0586.026-.026.052-.039.078-.039.039-.0131.078-.0326.117-.0586.039-.0261.072-.0521.098-.0782.026-.039.052-.0781.078-.1171.078-.0782.117-.1303.117-.1563.013-.026.033-.0325.059-.0195.065-.1823.11-.2995.136-.3516.039-.0521.052-.1237.039-.2148 0-.0521-.013-.1302-.039-.2344-.026-.0521-.058-.0977-.097-.1367-.039-.0391-.052-.0912-.039-.1563-.105-.1432-.17-.2278-.196-.2539-.026-.039-.065-.0716-.117-.0976-.104-.1042-.169-.1888-.195-.2539-.078-.0912-.13-.1433-.156-.1563s-.046-.0325-.059-.0586c-.026-.0391-.052-.0716-.078-.0976-.026-.0261-.052-.0521-.078-.0782-.065-.1302-.104-.1953-.117-.1953 0 0 0-.0065 0-.0195-.118-.0912-.183-.1498-.196-.1758 0-.026-.006-.0521-.019-.0781-.091-.1172-.15-.1888-.176-.2149-.026-.026-.052-.0586-.078-.0976-.065-.0651-.124-.1367-.176-.2149-.039-.0781-.091-.1497-.156-.2148-.013-.1823-.085-.3255-.215-.4297-.078-.1302-.117-.2018-.117-.2148.013-.0131.013-.0326 0-.0586-.039-.1302-.059-.2279-.059-.293.013-.0781.02-.1628.02-.2539-.013-.1432-.007-.2409.019-.293.013-.0651.026-.1367.039-.2148s.033-.1563.059-.2344c.065-.1823.124-.2995.176-.3516.065-.1041.104-.1692.117-.1953.026-.026.052-.0586.078-.0976.052-.0521.085-.0847.098-.0977.026-.026.052-.0521.078-.0781.104-.1302.175-.2149.215-.2539.065-.0391.11-.0781.136-.1172.026-.0521.065-.0781.117-.0781l.235-.2735c.078-.0651.124-.0976.137-.0976.013-.013.026-.0326.039-.0586.065-.0912.136-.1628.214-.2149.105-.0651.163-.1041.176-.1171.013-.0131.033-.0261.059-.0391.117-.0781.182-.1172.195-.1172.091-.0781.15-.1237.176-.1367.026-.0261.052-.0456.078-.0586.143-.0521.228-.0781.254-.0781.117-.0782.228-.1367.332-.1758.065-.0781.111-.1172.137-.1172.039 0 .071-.013.097-.0391.105-.039.163-.0586.176-.0586.026-.013.046-.0195.059-.0195.117-.0391.202-.0846.254-.1367.169-.0521.273-.0912.312-.1172.052-.026.104-.0456.156-.0586.157.013.241.013.254 0s.033-.0195.059-.0195c.078.013.15.026.215.039.065.0131.11.0326.136.0586.04.0131.092.0391.157.0782.052.026.091.0586.117.0976.026.0261.058.0521.098.0781.052.1303.084.2214.097.2735.026.0521.052.0976.078.1367.065.1042.098.1758.098.2148l.137.293.195.332c.052.1433.098.2409.137.293s.071.1107.097.1758c.065.1562.098.2409.098.2539s.007.0326.02.0586c.039.0781.058.1302.058.1562 0 .0261.007.0521.02.0782.078.1692.123.2734.136.3125.013.039.033.0911.059.1562.026.0912.039.1432.039.1563 0 .013.007.0325.02.0586.013.0781.019.1432.019.1953.013.039.013.0716 0 .0976z" fill="#693821"/></svg>