<svg fill="none" height="95" viewBox="0 0 94 95" width="94" xmlns="http://www.w3.org/2000/svg"><path d="m53.6733 92.3157c-.0751 0-.1501-.025-.2251-.0751-.075-.075-.1251-.1751-.1251-.2751v-3.1264l-4.8272-2.0259c-.025-.0251-.075-.025-.1-.05l-5.0523-4.402-23.5356-17.8331-.9504-.5502-16.58244-9.9295c-.10004-.075-.17509-.1751-.17509-.3001l-.10007-7.6034c0-.1251.07505-.2502.1751-.3002l6.72803-3.9768c.05003-.025.12503-.05.20006-.05l6.57801.4002 5.7776-5.5775c.075-.075.1751-.1001.2751-.1001l2.6011.2001.1501-2.1509-1.8758-.7504c-.1251-.05-.2251-.175-.2251-.3251v-4.0018c0-.1751.15-.3502.3251-.3502l11.4302-.6002v-.5003c0-.125.05-.2251.15-.2751l1.1256-.7753-3.2265-2.8763c-.075-.0751-.1251-.1751-.1251-.2752l.4002-7.8535c-.3752-.3752-1.7508-1.7508-3.2014-2.7762-.1251-.0751-.1751-.2251-.1501-.3502.025-.125.1251-.2501.2752-.2751 2.4761-.5503 5.1523-1.6007 8.2536-2.80126 4.7772-1.87585 10.1797-3.97682 16.6076-4.95226 9.054-1.40063 18.4583-2.42609 23.7607-2.85128.15 0 .275.05004.325.1751.0751.12505.0751.27511-.0249.37515l-2.051 2.97635-.2 4.8772c.1751.5752 1.0504 3.5766.125 4.8522-.3501.5752-1.0754 1.2005-1.7758 1.8258-.7753.6753-1.7257 1.5257-1.7257 1.9759 0 1.0755 1.3005 6.3529 2.376 7.0782 1.2505.8254 4.327 2.276 4.352 2.301.1.05.175.1501.2.2501l2.051 10.0795c.025.1251-.025.2251-.1001.3252-.3501.3501-.7253.7253-.8253.8504.05.4502 1.0254 2.251 1.9258 3.7517.025.05.05.125.05.175l.1251 12.7558c0 .1-.05.2251-.15.2751l-1.6008 1.2256 2.5011 6.778c.9004.3502 5.3775 2.0509 5.7527 2.201.6002.2001 2.5511 4.0768 2.6261 4.2269s.0251.3501-.125.4502c-5.8777 3.6516-15.2819 9.3792-16.8326 10.2046-2.251 1.2506-9.9295 8.2787-10.0296 8.3538-.05.05-.0999.075-.175.075l-11.13 1.9258c.025-.025 0-.0249 0-.0249zm-4.8772-6.1278 5.0022 2.1009c.1251.05.2252.1751.2252.3252v2.9513l10.6298-1.8258c.8503-.7753 7.8535-7.1532 10.0795-8.3788 1.5257-.8253 10.6297-6.3778 16.5324-10.0045-.6503-1.2755-1.8508-3.4015-2.1509-3.6266-.3752-.1501-5.8027-2.201-5.8527-2.226-.1001-.025-.1751-.1001-.2001-.2001l-2.6512-7.1532c-.05-.1501 0-.3002.1251-.4002l1.6757-1.2756-.1251-12.4806c-2.276-3.7767-2.0008-4.1769-1.9008-4.377.0501-.125.3001-.3751.8254-.9004l-1.9759-9.7293c-.6503-.3252-3.1514-1.5257-4.3019-2.2761-1.4006-.9504-2.6762-6.5779-2.6762-7.6534 0-.7503.9004-1.5757 1.9759-2.5011.6503-.5753 1.3255-1.1756 1.6507-1.6758.6503-.9254.05-3.4266-.2501-4.327-.025-.05-.025-.075-.025-.125l.2-5.05227c0-.07503.025-.12507.0751-.17509l1.7008-2.45109c-5.4025.47521-14.3565 1.45064-22.9854 2.80124-6.3528.97544-11.7053 3.07639-16.4574 4.92721-2.8263 1.1005-5.3024 2.076-7.6284 2.6762 1.5006 1.1506 2.7512 2.4511 2.8012 2.5262.0751.075.1001.1751.1001.2501l-.4002 7.8285 3.4516 3.0514c.075.075.125.175.125.2751 0 .1-.05.2001-.1501.2751l-1.3256.9504v.6503c0 .1751-.15.3502-.3251.3502l-11.4302.6003v3.4265l1.9009.7503c.1501.0501.2251.2001.2251.3502l-.2001 2.7512c0 .1001-.05.1751-.1251.2501-.075.0751-.15.0751-.25.0751l-2.8014-.2251-5.7776 5.5775c-.075.075-.15.1-.275.1l-6.62801-.4001-6.45295 3.8017.10007 7.2032 17.38289 10.4047 23.5856 17.883z" stroke="#693821" stroke-miterlimit="10" stroke-width="3"/></svg>