<svg fill="none" height="70" viewBox="0 0 210 70" width="210" xmlns="http://www.w3.org/2000/svg" xmlns:xlink="http://www.w3.org/1999/xlink"><linearGradient id="a"><stop offset="0" stop-color="#cf5c2b"/><stop offset="1" stop-color="#59173e"/></linearGradient><linearGradient id="b" gradientUnits="userSpaceOnUse" x1="161.024" x2="129.804" xlink:href="#a" y1="-103.532" y2="-11.7548"/><linearGradient id="c" gradientUnits="userSpaceOnUse" x1="119.502" x2="91.4394" xlink:href="#a" y1="-30.9254" y2="130.751"/><linearGradient id="d" gradientUnits="userSpaceOnUse" x1="118.961" x2="82.963" xlink:href="#a" y1="-25.9304" y2="174.886"/><linearGradient id="e" gradientUnits="userSpaceOnUse" x1="110.443" x2="108.068" xlink:href="#a" y1="88.1012" y2="44.1581"/><linearGradient id="f" gradientUnits="userSpaceOnUse" x1="177.878" x2="167.905" xlink:href="#a" y1="16.5635" y2="45.6869"/><linearGradient id="g" gradientUnits="userSpaceOnUse" x1="216.997" x2="130.451" xlink:href="#a" y1="-64.9342" y2="154.435"/><linearGradient id="h" gradientUnits="userSpaceOnUse" x1="159.492" x2="153.202" xlink:href="#a" y1="14.3183" y2="32.6877"/><linearGradient id="i" gradientUnits="userSpaceOnUse" x1="184.169" x2="129.581" xlink:href="#a" y1="-37.0857" y2="101.28"/><linearGradient id="j" gradientUnits="userSpaceOnUse" x1="40.3114" x2="34.021" xlink:href="#a" y1="28.6854" y2="47.0549"/><linearGradient id="k" gradientUnits="userSpaceOnUse" x1="64.9887" x2="10.4002" xlink:href="#a" y1="-22.7174" y2="115.649"/><path d="m209.849 55.7615c-.108-1.446-.217-2.892-.31-4.338-.093-1.5169-.201-3.048-.294-4.5649-.062-1.0349-.155-2.1406-.186-3.218-.031-.8932.372-2.3675-.155-3.1756-.309-.482-.991-.6237-1.595-.723-.789-.1276-1.579-.2551-2.369-.3827 1.069-.2269 2.106-.5104 3.128-.8648.232-.0851.465-.1701.62-.3402.139-.156.185-.3686.216-.5529.357-1.9847.124-4.0828.124-6.0959-.015-2.0414-.015-4.097-.031-6.1384-.015-1.9422-.015-3.8985-.031-5.8407 0-.638.295-2.0414-.062-2.6085-.278-.4678-.944-.4395-1.455-.4962-.527-.0567-1.053-.0567-1.58-.0283-.79.0425-1.564.1559-2.338.2693 1.022-.2552 2.075-.3827 3.097-.6096.666-.1417 1.316-.3402 1.936-.6379.371-.1843.774-.3402.991-.6947.093-.1417.124-.326.17-.4961.093-.3544.109-.723.14-1.0916.061-1.0065.108-2.0131.123-3.0338.016-.51034.016-1.02069 0-1.53105 0-.32606-.139-.63794-.17-.97817-.139-1.37512-.743-2.69353-1.703-3.75677-.961-1.04906-2.277-1.81459-3.732-2.169-.542-.12759-1.084-.19847-1.642-.22683-65.474-1.885467-129.6463-1.95635-192.4254.02836-.2478.01417-.51103-.01418-.7588.04253-.24777.07088-.49554.15594-.7588.241-.51103.17012-1.02205.34023-1.5176.56706-.96011.42529-1.85828.99235-2.47771 1.78623-.35617.46783-.60394.99236-.92914 1.46018-.17035.241-.38715.42529-.52652.68047-.66588 1.21918-1.33177 2.45253-2.26091 3.52994-.898174 1.04905-1.1614309 2.72185-1.0685167 4.01195.1393717 1.7579.1858287 3.5299.3561717 5.2878.278743 2.7928.015485 5.5856.356171 8.4067.046457.3969.123886.8506.449084 1.1057.23229.1843.542.2552.83623.3119.96011.1985 1.93571.3828 2.89583.5813-1.1924.7088-2.97326.7655-3.60817 1.928-.20132.3827-.23229.808-.26326 1.2333-.1084 1.5027-.263257 2.9913-.371657 4.4798-.046457.6663-.092914 1.3468-.1084 2.013-.030971.638-.077428 1.2618-.154857 1.8997-.154857 1.4885-.572971 3.4165-.077428 4.8767.480057 1.4035 2.400282 1.4602 3.716572 1.8004-.69686.0709-1.22337.5954-1.64149 1.12-.20131.2693-.35617.5387-.542.808-.17034.241-.3252.482-.46457.7372-.27874.5103-.511027 1.0349-.68137 1.5878-.1084.3686-.170342.6521-.185828 1.0348-.015486.3403-.030972.6805-.046457 1.0207-.030972.6805-.046457 1.361-.061943 2.0415-.030972 1.3609-.046457 2.7218-.030972 4.0828.015486 1.3184-.3251995 2.5943.278743 3.8843.603947 1.2901 1.641487 2.3959 2.942287 3.1189 1.05303.5954 2.24543.9073 3.48428.964 63.13523 2.5376 127.32343 2.5092 192.50243-.0142 1.719-.0709 3.376-.6947 4.646-1.7721.604-.5103 1.146-.964 1.595-1.6161.558-.7797 1.069-1.5878 1.549-2.41 1.177-1.9989 2.648-4.2246 2.462-6.5353z" fill="url(#b)"/><path d="m202.696 63.0065c-65.195 2.5092-129.3673 2.5517-192.5025.0141-2.80296 0-5.42005-1.8429-6.47307-4.1537-.46458-1.0349-.55749-2.1548-.49555-3.2606.01549-.1984.03097-.3827.09292-.5812.09291-.2977.24777-.5529.27874-.8648.01549-.1701.04646-.3119.06194-.482.1084-.8789.13937-1.772.2168-2.651.04646-.4961.1084-1.0065.26326-1.4885.17034-.5529.44909-1.0491.92914-1.3893 2.07509-1.4318 6.14782-1.4035 9.16752-1.4602.5885-.0142 1.1305-.0283 1.626-.0567 1.3163-.0709 2.6326-.0992 3.9489-.0992-3.1281-.0142-6.2408-.2552-9.3224-.7514-1.45568-.2268-2.91133-.5103-4.3515-.8506-.34069-.0708-.71235-.1843-1.03755-.326-.44908-.1843-.83622-.4537-1.03754-.8506-.17034-.3402-.15486-.7372-.15486-1.0916.01549-.3544-.04645-.723-.01548-1.0774.03097-.7655.13937-1.5027.2168-2.2541.07743-.6096.15486-1.2192.20131-1.8429.1084-1.6303.2168-3.2606.35617-4.8909.04646-.4962.1084-1.0349.48006-1.3751.23229-.2127.52652-.3119.82074-.4111.80526-.2694 1.626-.4679 2.46223-.5955.4336-.0708.8672-.0708 1.23886-.1559.44906-.1276.78976-.2126 1.26986-.2552 4.5992-.4961 9.1985-.9781 13.8132-1.4743.542-.0567 1.0995-.1134 1.657-.1701-6.9376-.7656-13.8907-1.5595-20.82829-2.325-.30971-.0425-.60394-.0709-.91366-.0992-.27874-.0284-.57297-.0709-.7588-.2552-.01548-.0142-.03097-.0284-.04645-.0425-.13937-.1701-.15486-.3686-.18583-.5813-.30972-3.4307.04646-6.9748-.17034-10.448-.01549-.1985-.07743-1.1625-.13938-2.2683-.07742-1.6019-.20131-3.43068-.24777-3.43068-.29423-3.81347 2.89583-7.10242 7.07702-7.23001 62.7635-1.998879 126.9365-1.927997 192.3635 0 4.197.12759 7.418 3.43071 7.092 7.27254-.108 1.30425.171 2.56595-.185 3.88435-.078.3119-.186.6238-.449.8364-.233.1843-.543.2552-.837.3119-.79.1701-1.579.3544-2.369.5245-1.053.2269-2.091.4395-3.159.5529-6.318.6096-12.605 1.2334-18.908 1.8571-.171.0142-.341.0284-.511.0426-.202.0141-.403.0425-.604.0567.511-.0142 1.006-.0142 1.502-.0142 7.898-.1276 15.811-.241 23.724-.3686.217 0 .465 0 .635.1276.201.1418.248.3828.279.6096.046.3119.046.6096.046.8931-.015.9215-.186 1.8004-.186 2.7361 0 .8222.217 1.6303.217 2.4808-.015 1.2192-.062 2.4384-.108 3.6718-.124 2.7785-.341 5.5997-.666 8.3924-.047.4112-.109.8364-.403 1.1342-.232.2268-.573.3544-.898.4536-.201.0709-.403.1276-.619.1701-4.646 1.2192-9.725.2552-14.495 1.0065-.31.0426-.635.0993-.929.1702-.109.0141-.217.0425-.31.0708.387.0284.774.0426 1.162.0851 5.218.3402 10.421.8222 15.609 1.4318.604.0709 1.286.1701 1.642.6238.278.3402.278.8081.278 1.2334v1.4034c0 1.4177 0 2.8353.078 4.253.093 1.8713.217 3.7426.356 5.628.062.9215.124 1.843.201 2.7503.279 3.7993-2.896 7.074-7.046 7.2442z" fill="url(#c)"/><path d="m208.843 23.2958c-.016 1.2192-.062 2.4384-.108 3.6717-2.679.2269-5.297.4112-7.867.6805-.604.0567-1.193.1134-1.797.1843-2.214.2127-4.428.4111-6.643.5812-1.099.0851-2.214.1702-3.329.2552-.713.0567-1.348.3119-2.029.3828-.96.0992-2.013-.1276-2.989-.1843-1.084-.0567-2.168-.0851-3.252-.0709-2.168.0284-4.351.1701-6.504.397-4.336.4536-8.61 1.205-12.915 1.8571-6.891 1.049-13.813 1.8571-20.782 2.3816 3.794.3403 7.557.9073 11.258 1.687-1.393.0993-2.787.1985-4.181.2694-4.429.2552-8.857.3827-13.286.4536s-8.874.0709-13.303.0567c-4.429 0-8.873-.0141-13.302.0142-4.429.0425-8.8577.1276-13.2866.3119-2.2145.0992-4.4289.2126-6.6279.3686-.5575.0425-1.0995.085-1.657.1276-.6658.0567-1.3162.2268-1.9976.2977-5.2806.567-10.5613 1.2759-15.78 2.2115-8.1145 1.4602-16.2754 2.892-24.5293 3.4024-1.4867.085-2.9888.1701-4.4754.2551-7.1079 1.3043-14.7889 1.5736-21.7574 2.3533-2.3693.2694-4.7851.4112-7.2009.4962-1.45564-.2268-2.9113-.5103-4.35147-.8506-.34068-.0709-.71234-.1843-1.03754-.326-.44909-.1843-.83623-.4537-1.03754-.8506-.17035-.3403-.15486-.7372-.15486-1.0916.01548-.3544-.04646-.723-.01549-1.0774.03097-.7656.13937-1.5027.2168-2.2541 6.3801-.482 12.9306-2.169 19.0629-2.9912 7.8822-1.0349 15.9193-1.6445 23.8635-2.0556 8.9972-.4537 17.9789.5245 26.9451.5245 8.3159 0 16.6007-.6663 24.8701-1.2759 16.1206-1.1908 32.2106-2.4241 48.2996-3.7-3.499-.0567-6.999-.1418-10.499-.2552-4.46-.1418-8.92-.3261-13.38-.5387-1.037-.0425-2.106-.1701-3.128-.0709-1.068.1134-2.152.1418-3.221.1276-2.121-.0284-4.243-.2694-6.302-.7372-1.208-.2693-2.416-.6238-3.64-.8222-2.075-.3261-4.196-.2268-6.318-.2552-7.882-.0992-15.6403-1.9989-23.5226-1.928-2.0751.0142-4.1347.1701-6.1943.3402-2.1834.1843-4.3824.3686-6.5814.4253-.9756.0284-1.9822.0851-2.9268-.1134-.7278-.1559-1.564-.085-2.3074-.0992-1.3317-.0284-2.6635-.0567-3.9953-.0851-2.6635-.0567-5.3271-.085-8.0061-.0992-10.1122-.0425-20.1934.4678-30.3055.3969-4.3051-.0283-8.703-.1134-12.96157-.6804-.01548-.0142-.03097-.0284-.04646-.0426-.13937-.1701-.15485-.3686-.18582-.5812-.30972-3.4307.04645-6.9748-.17035-10.4481-.01548-.1984-.07743-1.1624-.13937-2.2682 5.15674-.4111 10.34447-.5104 15.50117-.8506 10.0967-.6805 20.1934-.9782 30.3365-.9357 20.085.0851 40.1235 1.2618 60.1463 2.6511 20.039 1.3892 40.031 3.1046 60.069 4.4088 10.128.6522 20.271 1.0633 30.414 1.0633 2.974 0 5.978-.1701 8.982-.3686-.015.9215-.186 1.8004-.186 2.736.047.8932.263 1.7012.248 2.5376zm.325 24.0859c-.077-1.4177-.077-2.8353-.077-4.253-6.396-.6379-12.807-1.29-19.234-1.7011-11.025-.6947-22.113-.5813-33.154-.1702-2.292.0851-4.553.1418-6.83.397-1.099.1276-2.199.2552-3.298.3686-4.414.482-8.827.8647-13.256 1.1766-1.719.1134-3.453.2268-5.188.3261 4.476-.0284 8.951-.0567 13.427-.0851 4.475-.0283 8.95-.0567 13.426-.085 2.23-.0142 4.475-.0284 6.705-.0426 1.115-.0141 2.23-.0141 3.36-.0283.465 0 .96.0283 1.425-.0709.279-.0567.558-.1559.836-.1985 1.007-.1417 2.122.0426 3.128.0993 1.115.0567 2.215.1134 3.33.1701 2.214.1276 4.444.2693 6.659.4111 3.499.241 6.984.5104 10.468.7939 3.809.3119 7.588.723 11.382 1.1483-8.61.7513-17.205 1.531-25.83 1.9705-19.853 1.0065-39.706 2.2682-59.589 1.8997-19.6051-.3403-39.1636-1.3752-58.784-1.3043-10.3444.0284-20.6734.1843-30.9869.4678-7.619.1985-15.3308.1702-22.93433.879-.15485.4678-.2168.9923-.26325 1.4885-.07743.879-.1084 1.7721-.2168 2.651 8.47068.3119 17.03428-.2126 25.48948-.2268 10.329-.0142 20.6579.0709 30.9869.2977 19.574.4253 39.1324 1.4177 58.6909 1.7295 19.915.3261 39.783-.9781 59.651-1.8996 10.251-.4678 20.565-.482 30.817-.5812h.216c-.139-1.8855-.263-3.7426-.356-5.6281z" fill="url(#d)"/><g fill="#eb924d"><path d="m4.91018 42.5207c-.01548.7089-.01548 1.4319.23229 2.0982-.44909-.1843-.83623-.4537-1.03754-.8506-.17035-.3403-.15486-.7372-.15486-1.0916.01548-.3544-.04646-.723-.01549-1.0774.06194-1.3752.34069-2.7219.41812-4.097.1084-1.6303.2168-3.2606.35617-4.8909.04646-.4962.1084-1.0349.48005-1.3751.23229-.2127.52652-.3119.82075-.4112.80526-.2693 1.626-.4678 2.46223-.5954.38714-.085.82074-.085 1.1924-.1701.4491-.1276.7898-.2126 1.2698-.2552 4.5993-.4961 9.1985-.9781 13.8133-1.4743-4.94.9214-9.8799 1.8146-14.83533 2.736-.96012.1702-2.24543.1702-3.05069.7514-.17034.1134-.30971.2552-.44908.3969-.12389.1276-.23229.2694-.37166.397-.26326.2126-.35617.5529-.48006.8506-.3252.8647-.51103 1.772-.55748 2.6793-.01549.3403-.01549.6947-.06195 1.0349-.01548.0851-.03097.1701-.04645.2552-.01549.0992-.07743.1701-.1084.2693-.24778.6947-.2168 1.4602-.1084 2.169.04645.2552.13937.5104.20131.7656.15486.6096.04646 1.2617.03097 1.8854z"/><path d="m183.243 16.7769c-.279-.0142-.558-.0283-.837-.0425h1.333c-.155 0-.326.0283-.496.0425z"/><path d="m187.801 37.8008c1.285.1134 2.57.2268 3.856.3119-.31.0425-.635.0992-.929.1701-.991-.1701-1.983-.3403-2.927-.482z"/><path d="m206.723 36.0563c.201-.7372.155-1.5027.077-2.2541-.108-1.3893-.232-2.7927-.34-4.182-.016-.2694-.062-.5671-.295-.7372-.185-.1418-.449-.1418-.681-.1276-1.92.0567-3.825.1134-5.714.1701 2.059-.1701 4.103-.6663 5.962-1.4885.542-.241 1.099-.5387 1.301-1.0349.108-.2552.108-.5387.108-.8222-.031-2.1974-.449-4.6499-.743-6.8331-.899-.7797-2.246-.8789-3.485-.9498-4.986-.2835-9.988-.5529-14.959-.8364-1.192-.0709-2.524-.1134-3.794-.1701 7.898-.1276 15.811-.241 23.724-.3686.217 0 .465 0 .635.1276.201.1417.248.3827.279.6096.17 1.2475-.155 2.3958-.155 3.6291 0 .8223.217 1.6303.217 2.4809-.078 3.9411-.31 8.0523-.79 12.0642-.046.4111-.108.8364-.403 1.1341-.232.2268-.573.3544-.898.4537-.201.0709-.402.1276-.619.1701.263-.2835.464-.6521.573-1.0349z"/><path d="m3.51911 14.3953c-.03097-.4678-.30971-5.68478-.40263-5.68478-.29423-3.81347 2.89583-7.10242 7.07702-7.23001 62.7635-1.998879 126.9365-1.927997 192.3635 0 4.197.12759 7.418 3.43071 7.092 7.27254-.108 1.30425.171 2.56595-.185 3.88435-.078.3119-.186.6238-.45.8364-.232.1843-.542.2552-.836.3119-.79.1701-1.564.3686-2.354.5245.682-.567 1.472-1.2333 1.781-2.0556.217-.5528.047-1.0348-.155-1.5594-.309-.82221-.371-1.60191-.402-2.46668-.047-1.06324.155-2.58012-.759-3.43071-.697-.63794-1.611-1.19082-2.478-1.58776-2.152-.96401-4.645-1.17665-7.015-1.26171-.124 0-.232-.01418-.356-.01418-4.367-.12759-8.749-.14176-13.116.26936-.527.04252-.991.18429-1.502.26935-.635.11341-1.394-.02835-2.045-.05671-1.486-.07088-2.957-.12759-4.444-.18429-2.958-.09924-5.931-.17012-8.904-.21265-2.23-.02835-4.445-.02835-6.675-.02835-.696 0-1.409 0-2.106 0-1.347 0-2.694 0-4.057 0-1.874 0-3.747 0-5.621-.01418-.093 0-.186 0-.263 0-2.974 0-5.931-.01418-8.905-.01418-1.486 0-2.973 0-4.444-.01417-.681 0-1.44.08506-2.106-.02835-.682-.11342-1.224-.49618-1.936-.55289-.65-.0567-1.316.04253-1.951.09924-1.626.11341-3.237.25517-4.847.42529-.728.07088-1.533.1843-2.013.68047-.171.17012-.294.38277-.496.52453-.449.29771-1.084.09924-1.61-.07088-1.038-.32606-2.137-.51035-3.252-.55288-1.007-.04253-1.998.12759-3.005.07088-.634-.02835-1.238-.17012-1.858-.28353-2.447-.43947-5.002-.46782-7.464-.63794-1.827-.12759-3.67-.21265-5.5129-.26935-5.931-.19847-11.8775-.08506-17.793.14176-2.9733.11341-5.9311.25518-8.9043.4253-1.3628.07088-2.8649.34023-4.2121.17011-.3872-.04253-.7588-.18429-1.146-.25517-.4026-.07089-.8052-.05671-1.2233-.05671-1.6415.01418-3.2985.02835-4.94.02835-1.9202.01418-3.8559 0-5.7916 0-.6504 0-1.2854.11342-1.9203.11342-.5884 0-1.1614-.11342-1.7499-.11342-1.2233.01418-2.4312.22683-3.5617.65212-.4336.17012-.8827.35441-1.3627.34024-.8672-.04253-1.4557-.79389-2.2454-1.13412-1.8583-.808061-3.7786.73718-5.6833.11341-.9446-.31188-1.9047-.26935-2.9113-.26935-1.2698-.01418-2.5397-.01418-3.8095-.01418-4.305.01418-8.6101.15594-12.8841.55288-2.137.19847-4.2586.46783-6.3801.80806-1.0221.17012-2.05962.43947-3.09716.55289-.29423.02835-.52652.02835-.80526.21264-1.26983.80806-4.75411 5.33036-2.26091 6.91814.15486.0992.3252.1843.51103.2552.26325.0992.542.1417.82074.2268.27874.0992.63491.0283.92914.0283.71234 0 1.42469 0 2.12152-.0141.7588 0 1.5176-.0142 2.23.1843-1.6105.3118-3.22106.6095-4.83158.9073-.52651.0992-1.05302.1984-1.54857.3969-.07743.0425-.17034.0567-.26325.0851-.34069.1134-.58846.4961-.71235.7938-.3252.7797-.12388 1.6303-.26325 2.4384-.24777 1.446.06194 3.0054.2168 4.4372.20131 1.843.44908 3.7001.74331 5.543-.30971-.0425-.60394-.0708-.91366-.0992-.29422-.0284-.60394-.0709-.80525-.2835-.13937-.1701-.15486-.3686-.18583-.5813-.30972-3.459.04646-7.0031-.15486-10.4622z"/><path d="m209.726 55.7612c-.217-2.7928-.402-5.5856-.557-8.3783-.093-1.8855-.078-3.771-.078-5.6565 0-.4253-.015-.8789-.279-1.2333-.356-.4537-1.037-.5529-1.641-.6238-5.188-.6096-10.391-1.0916-15.61-1.4318 4.646.8222 9.447 1.8713 13.86 2.9912.867.2269.929.8364 1.285 1.5878.341.7514.372 1.6019.403 2.41.016.3402.016.6805-.108 1.0065-.264.723-1.1 1.12-1.843 1.4602.557.1418 1.115.2835 1.688.4395.139.0425.279.0709.371.1701.109.0992.155.2694.171.4253.217 1.3468.046 2.7644.062 4.1254.015.8789.015 1.7578.031 2.6368.015.241.108.4678.17.723.093.5103.031 1.0349-.139 1.531-.341 1.0207-1.1 1.928-2.075 2.5093-1.688 1.0065-3.794 1.2192-5.807 1.3467-3.361.2269-6.737.1985-10.082.4962-1.115.0851-2.214.1843-3.329.2694-2.215.1701-4.445.3119-6.659.4536-4.197.2552-8.409.4537-12.605.5813-9.942.3118-19.9.2835-29.857.2268-1.192-.0284-2.4-.0284-3.593-.0284-.975 0-1.904.1134-2.864.0284-2.339-.2127-4.662.1701-6.984.4111-2.71.2694-5.622.2977-7.96-.9782-.743-.4111-1.471-.9498-2.338-.9782-.713-.0141-1.379.3545-2.029.638-1.239.5387-2.602.8364-3.964.9923-.031 0-.047 0-.078.0142-2.896.3403-5.683.156-8.5789-.0283-2.1216-.1276-4.3515.1984-6.3801-.4962-1.5641-.5245-3.2056-1.2759-4.8161-.879-.573.1418-1.084.4253-1.626.6238-1.053.3828-2.2144.4537-3.3449.5104-.7123.0283-1.4247.0567-2.137.085-2.9578.0851-5.9311.0709-8.8888-.0425-1.2389-.0567-2.5087-.0425-3.7166-.3686-.8362-.2268-1.657-.0851-2.5242-.0283-3.5927.2126-7.2008.2693-10.809.1559-1.4711-.0425-2.9423-.1134-4.3979-.2127-.7124-.0425-1.4557-.1701-2.168-.1701-.4956 0-.9447.1418-1.4402.1418-2.9888-.0142-5.962-.0567-8.9508-.0851-5.0948-.0425-10.205-.0992-15.2998-.1417-3.4843.4394-6.4111-.1134-9.8644-.6947-2.83393-.482-5.91559-1.531-7.0925-3.941-.49555-1.0066-.57298-2.1265-.52652-3.2039.01549-.3261.04646-.638 0-.964-.04646-.2977-.15486-.5671-.20131-.8648-.15486-.9782.17034-2.1123.4336-3.0621.13937-.482.30971-.9924.69685-1.361.34069-.3402.82075-.5387 1.3008-.6804 1.26983-.3686 2.61709-.4537 3.94888-.5246 1.9202-.0992 3.8404-.2126 5.7607-.3118.3871-.0142.7743-.0426 1.1614-.0567-.0465-.1702-.0774-.3403-.0774-.5246l.0155-.0709c-1.177-.0283-2.3539-.0283-3.5308-.0425-3.0352.0567-7.09245.0425-9.16753 1.4602-.92915.6379-1.09949 1.8146-1.1924 2.8636-.09292 1.0349-.12389 2.0982-.27875 3.133-.04645.3119-.18582.5671-.27874.8648-.06194.1985-.07743.3828-.09291.5812-.06195 1.12.03097 2.2399.49554 3.2606 1.03754 2.325 3.65463 4.1537 6.47299 4.1537 63.1353 2.5376 127.3083 2.5093 192.5033-.0141 4.15-.156 7.324-3.4307 7.03-7.23z"/><path d="m14.7617 35.1626c0 .7655.031 1.5452.0774 2.3108.0155.3827.0465.7655.0775 1.1483.0155.2835 0 .5954.0619.8647.062.2268.1239.4253.1239.6663.031.6521.0619 1.3184.1084 1.9705.0619 1.3185.1394 2.6227.2013 3.9411.0929 1.687.1704 3.3598.2633 5.0468.0464.9357.2168 1.7437.7588 2.5376.1084.156.2013.3119.3252.4537.2013.241.4491.4111.7588.5387 1.1304.4536 2.4157.6946 3.6391.8648 1.8893.2693 3.794.3402 5.6988.3969 25.1023.808 50.2356 1.6303 75.3539 1.0632 3.066-.0709 6.24-.1417 9.09.9073-1.301-2.1265-4.445-2.4383-7.108-2.495-27.9055-.5813-55.8263-1.2334-83.6386-3.3599-.7588-.0567-1.5951-.1417-2.1371-.6521-.3871-.3544-.542-.8647-.6658-1.3468-1.4247-5.2594-1.7035-10.7741-.8363-16.1328.0465-.326.1549-.6805.1394-1.0065-.0155-.3403-.0619-.6805-.0619-1.0349-.0155-.7088.0154-1.4318.0929-2.1407-.1084-.1701-.3717-.1701-.573-.1417-.5265.0567-1.053.0992-1.595.1559.0309.4678 0 .9073-.062 1.3751-.0155.156.0155.2694.031.4253.031.3119-.031.638-.0465.9357-.0309.4536-.0464.9215-.0619 1.3751 0 .4395-.0155.8931-.0155 1.3326z"/><path d="m112.396 58.1299c.309-.723 1.347-.8506 2.199-.8648 6.767-.1276 13.519-.241 20.286-.3686 6.38-.1134 12.776-.2268 19.156-.3544 2.059-.0425 4.258-.0425 5.962 1.0207-.031-.2268-.078-.4537-.109-.6805.728-.1134 1.425-.2552 2.168-.1984.403.0283.821-.0993 1.224-.1418.944-.1134 1.904-.1559 2.849-.1985 5.25-.2126 10.515-.2835 15.78-.5245 1.332-.0567 2.648-.1418 3.98-.2268 1.316-.0851 2.648-.156 3.949-.3261.185-.0283.356-.0851.542-.0992.247-.0142.495-.0284.743-.0426 1.332-.0992 2.679-.326 3.918-.8505 1.548-.6522 2.911-1.8146 3.407-3.3032.217-.6663.263-1.3609.309-2.0556.155-3.1755.109-6.3652-.154-9.5266-.171-.1559-.604.1276-.666.3545-.635 2.3107-1.115 4.6498-1.425 7.0031-.186 1.4035-.341 2.892-1.285 3.9978-1.038 1.205-2.772 1.687-4.414 2.0272-8.718 1.843-17.731 2.0273-26.666 2.1974-8.331.1559-16.663.3261-24.979.482-6.937-.2126-14.045.7939-20.936.1134-1.936-.1985-3.887-.5103-5.823-.2552-.139.0142-.294.0426-.403.1418-.077.0709-.092.1701-.123.2694-.233.7371.139 1.6728.511 2.41z"/></g><path d="m198.486 44.6755c-.016-2.6936-.047-5.3871-.078-8.0948-.015-2.5943-.046-5.1744-.062-7.7687-.031-3.1189.109-6.266-.294-9.3565-.078-.6096-.248-1.2334-.232-1.8429.015-.9215-.186-1.6303-.635-2.5093-.573-1.1908-1.394-2.2824-2.323-3.2748-2.013-2.18313-4.909-2.28237-7.929-2.39578-3.174-.12759-6.333-.01417-9.493-.02835-3.53-.01418-7.077-.02835-10.607-.05671-4.305-.02835-8.595-.07088-12.9-.11341s-8.61-.08506-12.915-.12759c-2.152-.01417-4.305-.04253-6.458-.0567-.449 0-.913-.04253-1.347.0567-.279.05671-.526.15594-.805.1843-.96.08506-2.06-.14177-3.004-.31189.124-2.02723.511-4.04029 1.161-5.99665-.883 2.01306-1.889 3.98359-3.035 5.88324-.077.12759-.155.25518-.294.31189-.14.0567-.31.04252-.449.02835-.326-.04253-.666-.07088-.991-.14177-.744-.17011-1.534-.09923-2.308-.09923-3.329-.02835-6.643-.04253-9.973-.05671-6.535-.02835-13.07-.01417-19.589.02836-6.9996.04252-13.9991-.04253-21.0142-.07089-1.9047-.01417-3.8094-.02835-5.6987-.02835-.8207 0-1.6105-.02835-2.4003.12759-.8207.17012-1.8273.02835-2.6635-.01418-.4646-.02835-.9601-.07088-1.3318-.34023-.3717-.25518-.542-.6663-.7123-1.06324-.3407-.82224-.6814-1.64447-1.0221-2.46671.0465.964.1549 1.91383.3252 2.86365.0465.31188.0774.70883-.2323.86477-.0929.04253-.2168.0567-.3252.07088-.3716.02835-.7588.11341-1.1304.04253-.7124-.12759-1.4247-.08506-2.1526-.08506-7.9596 0-15.8883-.02835-23.817-.05671-4.4444-.01417-15.1295-2.08394-16.5852 3.4449-.2013.7655-.1858 1.5594-.2478 2.3533-.1548 2.3816-.0619 4.7775-.0154 7.1733.1238 7.8963.3716 15.7926.7123 23.6747.0465 1.205.1084 2.4242.2787 3.6292.1394.9498.062 2.1973.8827 2.9345.2788.2552.4801.4962.7279.7939.4955.5812 1.1769 1.0207 1.9202 1.3326 1.595.6805 3.4378.8648 5.2032.9357 5.7607.2551 11.5059.4678 17.2511.6237 5.7916.1701 11.5678.3261 17.3595.4253 5.7916.0992 11.5678.1701 17.3594.1985 5.2497.0283 10.4994.0425 15.749.0567h8.0366c2.896 0 6.396-.8223 9.06.4395 1.331.6237 2.446 1.6303 3.081 2.8778-.108-1.0066-.077-2.0273.093-3.0338 2.106-.2693 4.212-.4395 6.334-.4678.914-.0142 1.796.1134 2.71.0992 1.068 0 2.152-.0142 3.221-.0142 4.305-.0283 8.61-.0567 12.915-.0992 2.664-.0283 5.327-.0567 8.006-.085 5.792-.0568 11.568-.1843 17.36-.3828 1.037-.0425 2.09-.0709 3.128-.1134 7.975-.2836 15.95-.7088 23.91-1.2901.681-.0567 1.331-.1134 1.966-.2268 1.022-.1843 1.983-.5104 2.819-1.1625 1.022-.7939 2.013-1.6445 2.694-2.6935 1.1-1.687.821-3.615.806-5.5288zm-4.321 3.6575c-.418.6379-1.192 1.2759-1.827 1.7579-.155.1134-.387.2552-.991.3544-.449.085-.976.1276-1.503.1701-7.634.5529-15.625.9782-23.739 1.2901-1.038.0425-2.06.0708-3.097.0992-6.071.1985-11.707.3261-17.251.3828-16.462.1843-32.675.2835-48.2229.2835-6.9685 0-13.9371-.0142-20.9212-.0567-5.7297-.0425-11.5678-.0992-17.2975-.1985-5.7297-.0992-11.5524-.241-17.2976-.4111s-11.5368-.3828-17.2046-.6379c-1.2543-.0426-2.679-.156-3.6856-.5813-.2478-.1134-.3716-.1984-.4026-.2268-.1858-.2268-.4181-.4962-.6814-.7797-.0155-.1418-.031-.2977-.0464-.4253-.031-.2552-.0465-.4962-.0775-.7372-.1393-1.0207-.1858-2.0697-.2477-3.3315-.3562-7.797-.604-15.7358-.7124-23.5754l-.0155-1.3326c-.0464-1.9422-.0774-3.771.0465-5.5714.0155-.1985.0155-.4111.031-.6379.0154-.4395.0309-.8364.0929-1.0633.1393-.482 1.626-.9781 4.7076-.9781 1.5176 0 3.1436.1134 4.5683.2126 1.2234.0992 2.3848.1701 3.3759.1701 7.077.0284 14.1694.0425 21.2619.0425h3.9798c5.2961 0 10.5922.0142 15.9038.0426l5.1103.0283c3.7321.0284 7.4796.0426 11.2117.0426 1.564 0 3.1436 0 4.7386-.0142 3.9489-.0284 7.8826-.0425 11.8306-.0425 13.365 0 26.992.1417 40.155.2693 10.329.0992 21.03.1985 31.498.241l.511.0142c.929 0 1.827-.0142 2.756-.0142.899-.0142 1.797-.0142 2.679-.0142 1.301 0 2.385.0142 3.361.0567h.108c2.834.1276 4.15.2552 4.925 1.0916.789.8506 1.331 1.6303 1.703 2.3817.279.5812.279.7372.279.964-.016.7372.108 1.3751.186 1.8854.015.1418.046.3119.077.4537.279 2.1548.263 4.3664.263 6.7196-.015.7372-.015 1.4744 0 2.2116l.14 15.8209c.015.3544.015.6805.031 1.0066.015 1.1199.046 2.1123-.31 2.6368z" fill="url(#e)"/><path d="m14.8365 30.1587 4.7386-.8648-.2013-.4111-4.909.5387z" fill="#eb924d"/><path d="m193.172 17.2147 5.497.4253v-1.1341l-5.946.241z" fill="#eb924d"/><path d="m193.561 38.8915 6.086 1.0633-.124-.8932-6.535-.5245z" fill="#eb924d"/><path d="m175.762 34.1279c-4.63-2.3674-12.326-1.6444-15.996 1.5453-2.308 2.013-2.432 5.7698 0 7.7687 5.342 4.4089 14.726 2.5234 18.118-2.9204.062-.0567.124-.1134.201-.1559 2.586-2.1407.743-5.699-2.323-6.2377z" fill="#eb924d"/><path d="m176.864 32.044c-4.63-2.3675-12.327-1.6445-15.997 1.5452-2.307 2.0131-2.431 5.7698 0 7.7687 5.343 4.4089 14.727 2.5234 18.118-2.9204.062-.0567.124-.1134.202-.1559 2.586-2.1406.743-5.6989-2.323-6.2376z" fill="url(#f)"/><path d="m175.762 33.3897c-4.63-2.3675-12.326-1.6445-15.996 1.5452-2.308 2.0131-2.432 5.7698 0 7.7687 5.342 4.4089 14.726 2.5234 18.118-2.9204.062-.0567.124-.1134.201-.1559 2.586-2.1406.743-5.6989-2.323-6.2376z" fill="url(#g)"/><path d="m158.155 25.3963c-2.927-1.5027-7.774-1.0348-10.081.9782-1.456 1.2617-1.533 3.6434 0 4.9051 3.376 2.7786 9.292 1.5878 11.429-1.843.046-.0283.077-.0708.123-.0992 1.626-1.3609.465-3.6008-1.471-3.9411z" fill="#eb924d"/><path d="m158.851 24.0917c-2.927-1.5028-7.774-1.0349-10.082.9781-1.455 1.2617-1.533 3.6434 0 4.9051 3.376 2.7786 9.292 1.5878 11.429-1.8429.046-.0284.077-.0709.124-.0993 1.626-1.3751.464-3.615-1.471-3.941z" fill="url(#h)"/><path d="m158.155 24.9276c-2.927-1.5027-7.774-1.0349-10.081.9782-1.456 1.2759-1.533 3.6433 0 4.905 3.376 2.7786 9.292 1.5878 11.429-1.8429.046-.0284.077-.0709.123-.0992 1.626-1.361.465-3.6009-1.471-3.9411z" fill="url(#i)"/><path d="m38.9795 39.7694c-2.9268-1.5027-7.7738-1.0349-10.0812.9782-1.4556 1.2617-1.5331 3.6433 0 4.905 3.3759 2.7786 9.2914 1.5878 11.4285-1.8429.0464-.0284.0774-.0709.1239-.0992 1.626-1.361.4645-3.6009-1.4712-3.9411z" fill="#eb924d"/><path d="m39.6748 38.451c-2.9268-1.5027-7.7738-1.0349-10.0812.9782-1.4556 1.2759-1.5331 3.6434 0 4.9051 3.3759 2.7786 9.2914 1.5877 11.4285-1.843.0464-.0283.0774-.0709.1239-.0992 1.626-1.3609.4645-3.6008-1.4712-3.9411z" fill="url(#j)"/><path d="m38.9795 39.3026c-2.9268-1.5027-7.7738-1.0349-10.0812.9782-1.4556 1.2759-1.5331 3.6433 0 4.905 3.3759 2.7786 9.2914 1.5878 11.4285-1.8429.0464-.0284.0774-.0709.1239-.0992 1.626-1.361.4645-3.6009-1.4712-3.9411z" fill="url(#k)"/><path d="m14.7148 17c0-3.3137 2.6863-6 6-6h163.2352c5.523 0 10 4.4772 10 10v23c0 5.5228-4.477 10-10 10h-161.2352c-4.4182 0-8-3.5817-8-8z" fill="#eb924d" opacity=".9"/><path d="m92.1984 39.8438c-.0781.039-.1563.0651-.2344.0781s-.1628.026-.2539.039c-.0391-.026-.0781-.0325-.1172-.0195-.026 0-.0716-.0065-.1367-.0195-.1172 0-.1823.0065-.1953.0195 0 0-.0065 0-.0196 0-.052.013-.1432.0326-.2734.0586-.0651.013-.1237.026-.1758.0391-.0521.013-.1106.026-.1758.039-.1041.013-.2083.013-.3125 0-.1041 0-.2083 0-.3125 0-.0911.013-.2213.013-.3906 0-.1692-.013-.306-.0065-.4101.0196-.1042-.0261-.1758-.0391-.2149-.0391-.026.013-.0521.0195-.0781.0195h-.293c-.1302-.013-.2148-.0195-.2539-.0195-.039.013-.0781.0195-.1172.0195-.2343.0261-.3711.0456-.4101.0586-.2084 0-.3451-.0065-.4102-.0195-.1172-.0261-.1888-.0456-.2148-.0586-.0261-.013-.0521-.0326-.0781-.0586-.1042-.0521-.1563-.0911-.1563-.1172 0-.026-.013-.039-.0391-.039-.026-.0782-.0455-.1628-.0586-.254 0-.1041-.0065-.2083-.0195-.3125-.013-.052-.0325-.1432-.0586-.2734 0-.0521 0-.1042 0-.1562.013-.0521.013-.1107 0-.1758-.039-.1172-.0716-.2409-.0976-.3711-.0391-.1302-.0586-.2018-.0586-.2149 0-.026-.0065-.0455-.0196-.0586-.1432.0261-.2148.0391-.2148.0391-.0911.0651-.1563.1107-.1953.1367-.0261.013-.0326.0456-.0195.0977-.0912 0-.1563.0456-.1954.1367-.1041.1302-.1562.2018-.1562.2148 0 .0131-.013.0326-.0391.0586-.026.0521-.0651.1042-.1172.1563-.039.039-.0716.0781-.0976.1172-.0651.0521-.1302.1237-.1953.2148-.0261.0391-.0586.0847-.0977.1367-.026.0391-.0586.0847-.0976.1368-.0782.1041-.1237.1692-.1368.1953 0 .013-.0065.026-.0195.039-.0911.1042-.1432.1628-.1562.1758-.0131 0-.0261.0065-.0391.0195-.0521.0521-.1042.0912-.1563.1172-.039.0261-.0716.0456-.0976.0586-.2083 0-.3581-.026-.4492-.0781-.0391-.026-.0782-.0521-.1172-.0781-.0261-.0261-.0651-.0521-.1172-.0781-.1302-.1433-.2018-.2214-.2148-.2344-.0651-.0912-.0977-.1433-.0977-.1563s-.0065-.026-.0195-.039c-.0782-.1042-.1172-.1628-.1172-.1758s-.0065-.0261-.0196-.0391c-.1171-.1823-.2408-.3385-.371-.4687l-.1563-.1758c-.0521-.1042-.0846-.1628-.0977-.1758 0-.026-.0065-.0456-.0195-.0586-.1172-.1172-.2018-.1953-.2539-.2344-.1562-.052-.2474-.0781-.2734-.0781-.0261.0521-.0521.1042-.0782.1563-.026.039-.052.0846-.0781.1367l-.0976.2539c-.0651.1042-.0977.1693-.0977.1953s-.0065.0521-.0195.0781c-.0651.1563-.0977.28-.0977.3711-.0781.1953-.1497.3516-.2148.4688-.0521.1172-.1237.2213-.2149.3125-.1041.0651-.2278.1106-.3711.1367-.1432.039-.2734.026-.3906-.0391h-.5469c-.0911 0-.1497-.0065-.1757-.0195-.0131 0-.0326 0-.0586 0-.1563.026-.2539.0325-.293.0195-.026 0-.0586 0-.0977 0-.026.013-.0651.013-.1171 0-.0391 0-.0717 0-.0977 0h-.4492c-.0521 0-.1042 0-.1563 0-.039.013-.0846.013-.1367 0-.1302 0-.2018 0-.2148 0-.0131.013-.0326.0196-.0586.0196-.1433.013-.2279.0195-.2539.0195-.0782.013-.1368.0195-.1758.0195-.0261.013-.0716.0195-.1367.0195-.0651.0131-.1433.0066-.2344-.0195-.0781-.013-.1367-.0065-.1758.0195-.0391-.026-.0781-.0455-.1172-.0585-.026 0-.0521-.0131-.0781-.0391-.1042-.0912-.1628-.1367-.1758-.1367-.1432-.1563-.2278-.2539-.2539-.293.013-.0521.013-.0977 0-.1367-.026-.0391-.0391-.0716-.0391-.0977l.0391-.2148c.013-.0521.0326-.0912.0586-.1172.013-.026.013-.0651 0-.1172.0391-.0521.0716-.1042.0977-.1562.026-.0521.052-.1042.0781-.1563.026-.0521.039-.0911.039-.1172.0131-.039.0326-.0846.0586-.1367l.0977-.1953c.0651-.1172.0977-.1953.0977-.2344.0651-.1432.1041-.2213.1171-.2344.0261-.013.0261-.0325 0-.0586.0912-.1171.1433-.2018.1563-.2539.013-.0651.026-.1171.0391-.1562.039-.1432.0651-.2279.0781-.2539.0651-.1432.0976-.2149.0976-.2149.0261-.0781.0456-.1237.0586-.1367.0131-.013.0261-.0325.0391-.0586.0651-.1432.0976-.2213.0976-.2343.0131-.1172.0391-.1954.0782-.2344.0521-.0521.0651-.1042.039-.1563.0261-.026.0391-.0586.0391-.0976.013-.0391.0326-.0782.0586-.1172.026-.0521.0456-.1042.0586-.1563.013-.052.0325-.1041.0586-.1562.0521-.1042.0781-.1888.0781-.2539l.0977-.1953c.026-.1042.039-.1563.039-.1563.013-.013.0261-.0325.0391-.0586.013-.039.0195-.0716.0195-.0976.013-.0391.0261-.0847.0391-.1368.0651-.1432.0976-.2278.0976-.2539 0-.026.0131-.0455.0391-.0585.0651-.1693.0977-.267.0977-.293 0-.0391.0065-.0716.0195-.0977.026-.0651.0521-.1367.0781-.2148.1042-.1953.1628-.3321.1758-.4102s.0325-.1627.0586-.2539c.039-.1432.0716-.2278.0976-.2539.0521-.1562.0782-.2474.0782-.2734 0-.0261.0065-.0521.0195-.0781.013-.0521.0195-.0977.0195-.1368.0131-.0521.0261-.1106.0391-.1758.0391-.1171.0651-.1888.0781-.2148l.0781-.2148c.0391-.0391.0586-.0717.0586-.0977.0131-.0391.0261-.0716.0391-.0977.0651-.1953.1172-.319.1562-.371.0391-.0651.0717-.1368.0977-.2149.013-.0391.026-.0781.0391-.1172.013-.0521.039-.0911.0781-.1172.026-.1692.0391-.2539.0391-.2539.052-.1041.0781-.1627.0781-.1758 0-.013.0065-.026.0195-.039.0391-.0781.0586-.1237.0586-.1367 0-.0261.013-.0521.0391-.0782.039-.1041.0586-.1627.0586-.1757.013-.0131.0195-.0326.0195-.0586.026-.0521.0456-.0977.0586-.1368.013-.039.0325-.0716.0586-.0976.026-.1302.039-.1953.039-.1953.0131 0 .0196-.0065.0196-.0195.039-.1303.0716-.2214.0976-.2735.0651-.1432.1042-.2279.1172-.2539.0912-.2604.1432-.4232.1563-.4883.026-.1692.0455-.2799.0586-.332.052-.1042.0781-.1693.0781-.1953 0-.0261.0065-.0521.0195-.0781.0521-.1172.0847-.1823.0977-.1954.013-.026.026-.052.039-.0781.0782-.2083.1172-.3125.1172-.3125.0781-.1562.1237-.2474.1367-.2734.0131-.0391.0326-.0716.0586-.0977.0782-.1302.1302-.2083.1563-.2344.0781-.0911.1302-.1627.1562-.2148l.2735-.2734.1953-.1172c.1042-.0521.1758-.0847.2148-.0977.0391-.013.0782-.0195.1172-.0195.1563-.026.2539-.0391.293-.0391.039-.013.0781-.0195.1172-.0195.1302.0391.2148.0586.2539.0586h.0976c.0912.0521.1758.0781.2539.0781.1433.0651.2214.0977.2344.0977.1302.013.2084.0195.2344.0195s.0521.013.0781.0391c.1563.039.2604.0455.3125.0195.1432.0651.2214.0977.2344.0977s.0325.0065.0586.0195c.0911.0391.1497.0586.1758.0586.039-.013.0781-.0195.1172-.0195.0651-.0131.1237-.0196.1757-.0196.0521-.013.1107-.026.1758-.039.1432-.0261.2279-.0456.2539-.0586.0391-.0261.0781-.0456.1172-.0586.1302-.0391.1953-.0586.1953-.0586.013-.013.0261-.0196.0391-.0196.039-.013.0781-.0195.1172-.0195h.1367c.1302-.013.2083-.0325.2344-.0586.1562-.026.319-.026.4882 0 .2214.0391.3907.0586.5079.0586.1171-.013.2018.0195.2539.0977.0911.0781.1562.1367.1953.1758.0651.039.1107.1106.1367.2148.026.0911.0586.1693.0977.2344.052.0911.0781.1562.0781.1953.013.039.026.0716.039.0976.0131.0912.0261.1433.0391.1563s.0195.0325.0195.0586c.0391.1693.0651.2734.0782.3125.013.039.0195.0781.0195.1172.013.026.026.0586.0391.0976.039.1823.0651.2995.0781.3516.026.0521.0456.1107.0586.1758s.026.1237.039.1757c.0131.0521.0131.1042 0 .1563.0521.1953.0847.319.0977.3711s.0325.1107.0586.1758c.039.1692.0586.2799.0586.332.013.0521.026.1107.039.1758.0651.1562.0977.2539.0977.293 0 .026.0065.0586.0195.0976l.1172.332c.0391.1303.0521.2279.0391.293 0 .0521.013.0912.039.1172 0 .0651.0261.1628.0782.293.0781.1692.1106.2864.0976.3515 0 .0651.013.1237.0391.1758.013.0781.039.1498.0781.2149.0521.1041.0781.1757.0781.2148s.0065.0781.0196.1172c.0521.1042.0781.1758.0781.2148.0391.0912.0846.1758.1367.2539.0261.0261.0391.0651.0391.1172 0 .0391.0065.0781.0195.1172.0521.1693.0781.28.0781.332.0131.0521.0326.1042.0586.1563.013.0521.0261.1042.0391.1562.013.0391.0325.0912.0586.1563.039.1042.0586.1628.0586.1758.013 0 .0195.013.0195.039.0651.1433.1107.2409.1367.293.013.026.0196.0651.0196.1172 0 .0391.013.0716.039.0977.013.039.0261.0911.0391.1562.013.0521.0195.0911.0195.1172.0521.1172.0781.2018.0781.2539.0131.0391.0326.0846.0586.1367.0261.0391.0391.0846.0391.1367.013.0521.0325.1042.0586.1563.0521.0911.0781.1497.0781.1758 0 .026.0065.052.0195.0781.0651.1042.0977.1693.0977.1953 0 .013.013.0326.0391.0586.052.1172.0781.1888.0781.2148 0 .0131.013.0326.039.0586.0261.0391.0391.0782.0391.1172.013.0391.0326.0781.0586.1172.0521.1432.0846.2279.0977.2539.0781.1693.1302.293.1562.3711.0261.0781.0651.1563.1172.2344.0651.1302.0911.2148.0781.2539 0 .0391.0065.0716.0196.0976.052.1172.0781.1888.0781.2149.013.026.026.0521.039.0781.0131.0651.0391.1432.0782.2344.039.0521.0651.1042.0781.1562.013.0391.026.0717.0391.0977.0651.1693.1627.3125.2929.4297 0 .0651.013.1237.0391.1758.039.039.0716.0911.0976.1562.0651.1563.0977.2539.0977.293 0 .026.0065.0651.0195.1172 0 .0781-.013.1367-.039.1757-.0131.0261-.0261.0586-.0391.0977-.026.0391-.0391.0781-.0391.1172 0 .026-.013.0586-.039.0977zm-6.4063-5.2735c-.026-.1172-.039-.2018-.039-.2539-.0261-.0651-.0521-.1237-.0782-.1758-.013-.0521-.026-.1107-.039-.1758-.0261-.0651-.0521-.1432-.0781-.2343-.0131-.0912-.0261-.1693-.0391-.2344-.0781-.1693-.1172-.2669-.1172-.293 0-.039-.013-.0716-.0391-.0976-.039-.0782-.0586-.1302-.0586-.1563 0-.039-.0065-.0716-.0195-.0976-.0651-.1433-.1041-.2409-.1172-.293-.013-.0521-.0325-.0912-.0586-.1172-.0781-.1562-.1172-.2344-.1172-.2344-.039-.1692-.0651-.2669-.0781-.2929-.013-.0391-.026-.0782-.039-.1172 0-.0912-.0065-.1433-.0196-.1563-.013-.013-.0195-.0325-.0195-.0586-.026-.0521-.0456-.1041-.0586-.1562 0-.0521-.013-.0977-.0391-.1367 0-.1172-.0065-.1758-.0195-.1758-.013-.013-.0195-.0261-.0195-.0391-.013-.0651-.0261-.1302-.0391-.1953 0-.0651-.013-.1107-.039-.1367-.1042.039-.1628.0716-.1758.0976 0 .0131-.0065.0326-.0196.0586-.0781.1433-.1171.2344-.1171.2735.013.039.0065.0781-.0196.1172-.013.052-.0325.0976-.0586.1367-.026.026-.0521.0651-.0781.1172-.0911.1823-.1432.306-.1562.3711l-.0586.2148c-.0131.1042-.0521.2083-.1172.3125-.013.0391-.0261.0846-.0391.1367 0 .0391-.0065.0716-.0195.0977-.0261.039-.0521.0781-.0781.1172-.0131.039-.0326.0846-.0586.1367-.0131.0521-.0196.1042-.0196.1562 0 .0521-.013.0912-.039.1172-.0391.0912-.0586.1433-.0586.1563s-.0065.0325-.0196.0586c-.0781.1562-.1237.2539-.1367.2929-.013.0261-.0195.0717-.0195.1368-.0781.1302-.1302.2474-.1563.3515-.052.1563-.0651.2669-.039.332.1432.1693.2539.254.332.254.0912 0 .1888-.0066.293-.0196.1041-.013.1953-.0195.2734-.0195.0912-.013.1693-.0195.2344-.0195.1302 0 .2279-.0065.293-.0196.0781-.013.1497-.0195.2148-.0195.1432.013.2344.0195.2734.0195.0391-.013.0717-.013.0977 0l.4102.0782c.1562-.0782.2343-.1498.2343-.2149zm11.2696 5.5859c-.0782-.013-.1628-.026-.2539-.039-.0912 0-.1693.0195-.2344.0586-.0781-.0261-.1563-.0326-.2344-.0196-.0651.0261-.1302.0456-.1953.0586-.1823.0131-.293.0131-.332 0-.0391 0-.0782 0-.1172 0l-.3125.0196c-.0521.013-.0977.0195-.1367.0195-.0261.013-.0717.013-.1368 0l-.2148-.0195c-.1042 0-.1628-.0065-.1758-.0196-.013 0-.0325 0-.0586 0-.0911.0131-.1758.0131-.2539 0-.0651 0-.1302 0-.1953 0h-.332c-.0651-.013-.1107-.0195-.1368-.0195-.026.013-.0585.013-.0976 0-.0912-.026-.1628-.0586-.2149-.0976-.039-.0261-.0781-.0521-.1171-.0782-.0782-.039-.1172-.0716-.1172-.0976.013-.0391-.0065-.0521-.0586-.0391.026-.0521.039-.1172.039-.1953s-.0065-.1563-.0195-.2344c.0261-.2474.0261-.4883 0-.7226v-.5469c.0391-.2083.0586-.3385.0586-.3906.026-.1563.0391-.2474.0391-.2735 0-.1302 0-.2018 0-.2148.013-.1563.026-.2604.039-.3125v-.586c.0261-.1041.0391-.1953.0391-.2734-.013-.0781-.013-.1432 0-.1953s.0195-.1107.0195-.1758c-.026-.0911-.039-.1758-.039-.2539.013-.0781.0195-.1627.0195-.2539v-.2344c0-.1172.0065-.2278.0195-.332s.013-.2279 0-.3711c-.026-.0781-.0325-.1497-.0195-.2148.013-.0782.0195-.1693.0195-.2735 0-.0651-.0065-.1302-.0195-.1953 0-.0781 0-.1562 0-.2344 0-.1432-.0065-.2474-.0195-.3125-.0261-.2213-.0391-.3906-.0391-.5078.013-.1302.0195-.2539.0195-.3711l-.0195-.332c-.013-.0521-.026-.0911-.0391-.1172-.013-.039-.0195-.0846-.0195-.1367.0521-.1693.0716-.2865.0586-.3516 0-.0651 0-.1302 0-.1953v-.3906c0-.0781 0-.1563 0-.2344.013-.0911.0195-.1758.0195-.2539-.013-.1562-.026-.319-.039-.4883 0-.1692.0065-.3255.0195-.4687-.0391-.0521-.0586-.1042-.0586-.1563.013-.0651.0195-.1302.0195-.1953 0-.1432-.0065-.2148-.0195-.2148 0-.013 0-.0261 0-.0391-.013-.0911-.0195-.1758-.0195-.2539-.013-.1432-.013-.2279 0-.2539s.0195-.0521.0195-.0781c0-.0521-.0065-.1042-.0195-.1563s-.0196-.1107-.0196-.1758c.0131-.0911.0066-.2018-.0195-.332 0-.039 0-.0781 0-.1172.013-.039.013-.0846 0-.1367 0-.1302-.013-.2148-.0391-.2539-.013-.0391-.0195-.0716-.0195-.0977 0-.0911-.0065-.1757-.0195-.2539 0-.0781 0-.1497 0-.2148l-.0195-.2539c-.0261-.1172-.0391-.1823-.0391-.1953.013-.013.0195-.0326.0195-.0586-.013-.0651-.026-.1172-.039-.1563-.0131-.0521-.0196-.0976-.0196-.1367.0131-.1432.0131-.2213 0-.2344 0-.013 0-.0325 0-.0586l.0391-.2539c.026-.026.0521-.052.0781-.0781.0261-.026.0521-.0521.0781-.0781.0651-.0261.1303-.0391.1954-.0391.0781-.013.1432-.0325.1953-.0586.1172-.013.2148-.0195.2929-.0195.0912 0 .1693.013.2344.0391.1302.026.2083.039.2344.039.026-.013.0521-.0195.0781-.0195.1172.013.2018.0195.2539.0195s.1107.0065.1758.0196c.1432.013.2409.0195.293.0195.0651 0 .1302.0065.1953.0195l.2344.0391h.1953c.0521 0 .0976-.0065.1367-.0195l.3125-.0391h.2344c.039-.013.0846-.013.1367 0h.1172c.039 0 .0911-.013.1562-.0391.1172.0521.1823.0782.1953.0782.0131 0 .0196.013.0196.039l.1367.1953c0 .0521-.0065.0977-.0196.1367v.0782.2539c.0131.0781.0196.1497.0196.2148l-.0196.2344c-.013.0521-.0195.1042-.0195.1562 0 .0391-.0065.0847-.0195.1368-.0261.2343-.0521.3841-.0781.4492.026.0651.0325.1367.0195.2148s-.0195.1498-.0195.2149c-.0131.1432-.0196.2213-.0196.2343.0131.0131.0196.0326.0196.0586l-.0196.3125c-.013.1693 0 .306.0391.4102-.013.1562-.013.2604 0 .3125.013.0391.0065.0651-.0195.0781v.293c0 .1823.0065.293.0195.332.013.0261.0065.0586-.0195.0977v.5859c.026.0781.039.1563.039.2344 0 .0521-.0065.1042-.0195.1562-.013.0521 0 .1107.0391.1758-.0261.2214-.0456.4557-.0586.7031 0 .2344.013.4558.039.6641 0 .0391.0065.0781.0196.1172.013.0391.0195.0716.0195.0976-.013.0521-.0261.0977-.0391.1368 0 .026-.0065.0586-.0195.0976v.2735c.013.026.0195.052.0195.0781v.3711c.013.0911.013.1953 0 .3125v.332c0 .0521-.0065.1042-.0195.1563v.1171c-.013.0782-.0195.1433-.0195.1954.013.039.0195.0716.0195.0976.013.0912.013.1758 0 .2539s-.0195.1433-.0195.1953c-.0131.0651-.0196.1368-.0196.2149.0131.0781.0131.1497 0 .2148 0 .0261-.0065.0651-.0195.1172v.1172.3516c.013.1171.013.2343 0 .3515.013.1693.0195.28.0195.3321-.026.1432-.0325.2343-.0195.2734s.0195.0846.0195.1367c-.013.1172-.0195.1888-.0195.2149.013.013.0065.0325-.0195.0585.026.1172.039.1823.039.1954.0131 0 .0196.0065.0196.0195.013.1562.0195.2669.0195.332v.2149c.0391.0911.0521.1497.0391.1758-.0131.026-.0066.0455.0195.0585-.013.0651-.013.1303 0 .1954.026.0651.0456.1302.0586.1953 0 .1562.0065.2604.0195.3125.013.039.0261.0911.0391.1562.013.0391.0195.0912.0195.1563v.1758l-.0195.2734c0 .0651.0065.1107.0195.1367s.013.0716 0 .1367c-.026.1172-.0456.1823-.0586.1953-.013.0131-.0195.0261-.0195.0391zm12.0903 1.3672c-.014.0912-.027.1758-.04.2539-.013.0912-.045.1693-.097.2344 0 .1953-.033.3516-.098.4688.026.0521.02.0976-.019.1367-.039.0521-.066.1237-.079.2148-.065.1302-.104.2214-.117.2735 0 .0521-.013.1041-.039.1562-.039.1432-.071.2279-.097.2539-.013.0261-.026.0521-.039.0782-.027.026-.046.0585-.059.0976s-.033.0781-.059.1172c-.091.1042-.143.1693-.156.1953s-.026.0586-.039.0977c-.039.013-.072.0325-.098.0586-.026.039-.058.0651-.097.0781-.026.039-.059.0781-.098.1172-.026.0521-.059.0911-.098.1172-.065.1041-.117.1822-.156.2343-.026.0521-.052.0912-.078.1172-.117.1432-.195.2214-.234.2344-.026.013-.046.0521-.059.1172-.13.0781-.195.1172-.195.1172 0 .013-.007.0195-.02.0195-.039.0391-.071.0846-.097.1367-.027.0521-.053.0912-.079.1172-.143.1042-.24.1758-.293.2148-.052.0521-.097.0912-.136.1172-.117.0521-.176.0847-.176.0977s-.013.026-.039.0391c-.052.039-.104.0716-.156.0976-.039.0261-.072.0716-.098.1367-.091 0-.15.0456-.176.1367-.13.0782-.195.1107-.195.0977 0 0-.007.0065-.02.0195-.182.0651-.299.1172-.351.1563-.052.0521-.111.0976-.176.1367-.026.013-.059.0195-.098.0195-.039.0131-.078.0326-.117.0586-.091.0391-.156.0716-.195.0977-.039.026-.085.039-.137.039-.026.0521-.065.0782-.117.0782s-.091.0325-.117.0976c-.156.0391-.235.0586-.235.0586-.143.0912-.234.1302-.273.1172-.026 0-.046.0195-.059.0586-.143-.026-.247-.0521-.312-.0781-.065-.013-.13-.0456-.195-.0977-.053-.039-.111-.0911-.176-.1562-.065-.0521-.137-.0977-.215-.1367-.091-.1172-.143-.1758-.156-.1758s-.033-.013-.059-.0391c-.052-.1432-.091-.2409-.117-.293-.013-.039-.033-.0781-.059-.1171-.013-.0782-.032-.1433-.058-.1954-.013-.052-.026-.0976-.039-.1367-.026-.2083-.065-.332-.118-.3711.026-.0781.026-.1432 0-.1953-.026-.039-.045-.0911-.058-.1562-.052-.1172-.091-.2019-.117-.2539-.013-.0391 0-.1042.039-.1953-.065-.1172-.098-.1954-.098-.2344 0-.0391-.013-.0651-.039-.0782.039-.0781.039-.1692 0-.2734-.026-.1042-.013-.2083.039-.3125.013-.1432.033-.2344.059-.2734.026-.0261.045-.0586.058-.0977.143-.0651.222-.1107.235-.1367.026-.013.052-.026.078-.0391.195-.026.306-.0455.332-.0586.13-.0781.202-.1106.215-.0976.104-.0521.175-.0977.214-.1367.066 0 .15-.0261.254-.0782.118-.0781.202-.1302.254-.1562.065-.026.13-.0586.196-.0977.065-.0911.123-.1627.175-.2148.039-.0651.105-.1302.196-.1953.104-.0912.175-.1563.215-.1953.091-.1302.149-.2279.175-.293.104-.1302.17-.2409.196-.332.039-.0782.084-.1628.136-.2539 0-.1172.007-.2019.02-.2539.013-.0391.026-.0717.039-.0977.026-.0651.039-.1107.039-.1367 0-.0261.013-.0716.039-.1367.013-.0391.02-.0847.02-.1368.013-.039.032-.0911.058-.1562.013-.0651.02-.1237.02-.1758.013-.0391.006-.0846-.02-.1367.026-.0912.026-.1823 0-.2734-.013-.0912-.006-.1888.02-.293-.104.0651-.183.1107-.235.1367-.039.026-.078.0586-.117.0977-.13.0651-.202.1041-.215.1172-.013 0-.032.0065-.058.0195l-.196.1172c-.156.0781-.26.1172-.312.1172-.039.013-.085.0325-.137.0585-.052.0261-.104.0456-.156.0586-.039.0131-.078.0326-.117.0586-.156 0-.254.0065-.293.0196-.039.013-.085.0065-.137-.0196-.156.0261-.254.0326-.293.0196-.026 0-.058 0-.098 0-.052.013-.104.0195-.156.0195-.039.013-.091.0065-.156-.0195-.13 0-.221-.0065-.273-.0196-.04-.013-.072-.0195-.098-.0195-.091-.013-.163-.026-.215-.0391-.039-.013-.091-.026-.156-.039-.13-.013-.202-.0326-.215-.0586-.013-.013-.033-.0261-.059-.0391-.13-.0651-.221-.1041-.273-.1172-.039-.013-.078-.0325-.117-.0586-.039-.026-.085-.0455-.137-.0585-.052-.0261-.098-.0521-.137-.0782-.117-.0521-.182-.0846-.195-.0976-.013-.0131-.033-.0261-.059-.0391-.026-.026-.058-.0391-.097-.0391s-.072-.026-.098-.0781c-.065-.039-.117-.0651-.156-.0781s-.085-.0326-.137-.0586c-.104-.1042-.1627-.1562-.1757-.1562-.013-.0131-.0261-.0261-.0391-.0391l-.1758-.1563c-.0651-.052-.1106-.0846-.1367-.0976-.026-.0261-.0586-.0521-.0976-.0781-.0391-.0261-.0716-.0521-.0977-.0782-.026-.026-.0651-.0521-.1172-.0781-.0651-.1432-.1172-.2539-.1562-.332-.0391-.0912-.0651-.1367-.0782-.1367 0-.0131-.0065-.0326-.0195-.0586-.026-.0912-.0521-.1628-.0781-.2149s-.0456-.0911-.0586-.1172c-.013-.039-.026-.0781-.0391-.1172-.052-.1302-.0846-.2083-.0976-.2343 0-.0261-.013-.0521-.0391-.0782-.026-.052-.0456-.0976-.0586-.1367-.013-.0521-.0325-.1172-.0586-.1953-.013-.0651-.0195-.1302-.0195-.1953s-.013-.1367-.0391-.2148c-.013-.0521-.0195-.1433-.0195-.2735-.013-.1823-.026-.2995-.0391-.3515-.013-.0521-.0195-.1107-.0195-.1758 0-.0391.0065-.0782.0195-.1172.0131-.0391.0261-.0781.0391-.1172.013-.1562.013-.2344 0-.2344 0-.013 0-.0325 0-.0586.013-.0781.0195-.1562.0195-.2343 0-.0912 0-.1888 0-.293.0261-.1172.0326-.1758.0196-.1758-.0131 0-.0196-.0195-.0196-.0586 0-.0651.0065-.1302.0196-.1953.013-.0781.0195-.1497.0195-.2148 0-.0521-.0065-.0977-.0195-.1368 0-.052.013-.1041.039-.1562-.013-.2083-.0195-.3581-.0195-.4492.013-.1042.0521-.1888.1172-.2539.0521-.1302.0781-.2149.0781-.2539.013-.0391.0326-.0717.0586-.0977 0-.1042.013-.1823.0391-.2344.039-.0781.0586-.1367.0586-.1758 0-.052.0065-.1041.0195-.1562.0521-.1302.0911-.2083.1172-.2344.026-.039.026-.0846 0-.1367.0651-.1302.1041-.1953.1172-.1953.013-.013.0195-.0326.0195-.0586.0651-.1563.1042-.2344.1172-.2344.013-.013.026-.026.039-.039.0782-.1303.1172-.1954.1172-.1954.0131 0 .0196-.0065.0196-.0195.0651-.1302.1237-.1953.1757-.1953.0391-.1172.0652-.1823.0782-.1953s.0195-.0326.0195-.0586c.0912-.1042.1432-.1628.1563-.1758.026-.026.052-.0521.0782-.0781.091-.1042.137-.1628.137-.1758.065-.1042.13-.1758.195-.2148.052-.0521.085-.0847.098-.0977.013-.026.026-.0521.039-.0781.078-.0651.13-.0977.156-.0977.026-.013.039-.0325.039-.0586.13-.0651.195-.0976.195-.0976.065-.0521.104-.0847.117-.0977.013-.026.033-.0521.059-.0781.104-.0781.169-.1237.195-.1367s.046-.0326.059-.0586c.065-.013.13-.0391.195-.0781.065-.0391.13-.0717.196-.0977.104-.0781.169-.1107.195-.0977.026 0 .058-.0065.098-.0195.065-.0391.136-.0716.214-.0976.118-.0782.183-.1107.196-.0977.026.013.052.0065.078-.0195.078-.0391.137-.0586.176-.0586.052-.013.097-.0326.136-.0586.065 0 .124-.0065.176-.0195.065-.0131.13-.0261.195-.0391h.215c.065.013.124.013.176 0 .065-.013.117-.013.156 0 .196-.0521.313-.0716.352-.0586h.176c.117-.013.175-.013.175 0 .013 0 .033-.0065.059-.0195.065 0 .117-.0065.156-.0196.052-.013.104-.0195.157-.0195.065 0 .117.0065.156.0195h.097c.039-.013.079-.0195.118-.0195.039-.013.091-.0195.156-.0195h.215.332.351c.104 0 .176.0065.215.0195.143.026.235.0326.274.0195.039-.026.091-.039.156-.039.091.013.15.026.176.039h.117c.078 0 .189.0065.332.0196h.39c.105.013.189.013.254 0 .078-.0131.137-.0196.176-.0196.169.0261.287.0391.352.0391.117.0781.188.1237.215.1367.143.1172.221.1888.234.2149v.2343c.013.0261.032.0391.059.0391-.092.0911-.131.1628-.118.2148.026.0391.039.0782.039.1172-.013.0912-.019.1433-.019.1563.013.013.019.0325.019.0586 0 .039-.006.0781-.019.1172v.1367.2734c-.026.1563-.039.293-.039.4102.026.1432.039.2343.039.2734.013.026.019.0521.019.0781.013.1302.013.2084 0 .2344v.0977.1953c.013.0651.02.1302.02.1953-.013.0911-.007.1888.019.293 0 .1041-.006.2018-.019.2929-.013.0912-.013.1953 0 .3125-.026.1693-.033.2735-.02.3125.013.0391.007.0716-.019.0977.013.1041.013.1693 0 .1953v.0586c0 .1302-.007.2148-.02.2539v.1367.3906c0 .1302.007.2344.02.3125v.5079.1171c.013.0391.019.0782.019.1172-.013.0651-.013.1172 0 .1563.013.039.007.0716-.019.0976.013.1823.019.306.019.3711.013.0521.026.1107.039.1758v.1953c.013.0651.026.1367.04.2149l.039.5078c.026.1302.039.2083.039.2343v.293.2344c.013.1562.013.2539 0 .293v.1562c0 .1302-.013.2604-.039.3906.013.1172.013.2084 0 .2735v.1953c.013.0651.019.1367.019.2148v.2539c-.013.0521-.013.0977 0 .1368.013.026.02.0585.02.0976-.013.1172-.02.2214-.02.3125v.3711c.013.0391.02.0977.02.1758s-.007.1497-.02.2148c-.026.1172-.039.2149-.039.293.013.0781.02.1563.02.2344zm-4.102-5.3125c.039-.026.078-.052.117-.0781.052-.039.091-.0781.117-.1172.013-.1562.02-.2539.02-.2929.013-.0521.019-.1042.019-.1563s-.006-.1042-.019-.1562c0-.0521.006-.1042.019-.1563.026-.0911.033-.1432.02-.1562 0-.0261 0-.0521 0-.0782-.013-.1302-.02-.2083-.02-.2343.013-.0261.02-.0456.02-.0586 0-.0261-.007-.0521-.02-.0782-.013-.039-.019-.0846-.019-.1367-.013-.1823-.02-.306-.02-.3711 0-.0781.007-.1497.02-.2148 0-.0521-.007-.1107-.02-.1758 0-.0651.013-.1107.039-.1367-.013-.1302-.026-.2084-.039-.2344 0-.0391 0-.0716 0-.0977l.02-.2539c0-.1171 0-.1953 0-.2343.013-.0521.013-.0912 0-.1172.013-.1172.013-.1758 0-.1758 0 0 0-.013 0-.0391.026-.1171.032-.1823.019-.1953-.013-.026-.019-.0521-.019-.0781-.052-.1432-.111-.2214-.176-.2344-.065-.026-.13-.039-.195-.039-.052 0-.111 0-.176 0-.052 0-.091.0065-.117.0195-.065 0-.137.013-.215.0391-.065-.0131-.111-.0066-.137.0195-.026.026-.052.026-.078 0-.091.039-.15.0716-.176.0976-.013.0131-.032.0196-.058.0196-.117.0651-.183.1041-.196.1172 0 .013-.006.026-.019.039-.143.0782-.241.1302-.293.1563-.078.0781-.13.1302-.156.1562-.026.013-.052.0326-.078.0586-.092.1042-.15.1628-.176.1758-.117.1563-.189.2604-.215.3125l-.098.2148c-.091.1172-.136.1888-.136.2149 0 .013-.007.0325-.02.0586-.052.1823-.085.2864-.098.3125-.026.1432-.039.2213-.039.2344.013.013.02.026.02.039-.039.1693-.059.293-.059.3711v.2149c.013.0651.026.1302.039.1953.013.0521.02.1106.02.1757 0 .0521-.007.0912-.02.1172 0 .0261.013.0586.039.0977.039.1172.059.2018.059.2539.013.0391.032.0716.059.0977.104.1171.156.1822.156.1953 0 .013.006.026.019.039.039.0651.085.1237.137.1758.065.0521.124.1042.176.1563.026.026.058.052.097.0781.04.026.072.0586.098.0976.065 0 .117.0131.156.0391.052.026.098.0521.137.0781.13.0391.208.0586.234.0586.04-.013.072-.0195.098-.0195l.254.0195c.13-.013.202-.026.215-.039.13-.0651.208-.1042.234-.1172.104-.0651.17-.1042.196-.1172.039-.0261.071-.0456.097-.0586zm12.949.5274c.026.039.059.0521.098.039l.117-.039c.182-.0391.299-.0586.352-.0586.052-.013.11-.0261.175-.0391.105-.026.209-.0586.313-.0976.117-.0521.234-.0912.351-.1172.026-.013.059-.0196.098-.0196.052-.013.091-.026.117-.039.078-.0521.137-.0846.176-.0977.052-.026.091-.0521.117-.0781.13-.1042.215-.1628.254-.1758s.072-.0325.098-.0586c.182-.0521.286-.0716.312-.0586.104.0261.157.1107.157.2539-.013.1823-.02.2995-.02.3516.013.0391.02.0912.02.1563.013.1041.019.2018.019.2929v.2735.1172c.013.039.02.0716.02.0976 0 .0651-.013.1367-.039.2148-.013.0782-.02.1498-.02.2149.013.2083.013.4036 0 .5859-.039.1693-.052.28-.039.3321.013.052.019.0976.019.1367-.013.0911-.026.1693-.039.2344-.13.1302-.227.2018-.293.2148-.065 0-.11.0326-.136.0977-.078.013-.13.026-.157.039-.013.013-.032.0261-.058.0391-.091.0781-.163.1172-.215.1172-.039 0-.078.0065-.117.0195l-.235.0977c-.143.052-.24.0781-.292.0781-.053 0-.105.026-.157.0781-.052 0-.104.013-.156.0391-.039.013-.091.026-.156.039-.13.0261-.222.0456-.274.0586-.091.0391-.156.0586-.195.0586s-.085.0065-.137.0195c-.065.0131-.136.0196-.215.0196-.065.013-.136.026-.214.039-.196.0391-.332.0521-.411.0391-.078 0-.156.013-.234.0391-.104 0-.189.0065-.254.0195s-.13.0195-.195.0195c-.078 0-.156-.0065-.235-.0195-.065-.013-.136-.026-.214-.0391-.052.0261-.118.0326-.196.0196-.065-.0131-.149-.0326-.254-.0586-.104-.013-.175-.0261-.214-.0391-.157 0-.261-.0065-.313-.0195-.039-.013-.085-.0261-.137-.0391s-.097-.0195-.136-.0195-.085-.0065-.137-.0195c-.091-.0131-.156-.0261-.195-.0391s-.079-.026-.118-.0391c-.156-.039-.247-.0651-.273-.0781l-.176-.1367c-.104-.0261-.208-.0651-.312-.1172-.039-.026-.078-.0456-.117-.0586-.027-.013-.059-.0391-.098-.0781-.026-.0391-.065-.0651-.117-.0781-.039-.0131-.078-.0326-.118-.0586-.143-.0912-.221-.1433-.234-.1563 0-.013-.006-.026-.019-.039-.092-.0391-.144-.0652-.157-.0782 0-.013-.013-.026-.039-.039l-.195-.1172c-.078-.0782-.15-.1302-.215-.1563-.026-.0651-.065-.1107-.117-.1367-.039-.0391-.072-.0911-.098-.1562-.091-.0782-.156-.1303-.195-.1563s-.072-.0651-.098-.1172c-.039-.026-.071-.0521-.097-.0781-.013-.0391-.033-.0716-.059-.0977-.052-.039-.085-.1106-.098-.2148-.078-.0781-.117-.1302-.117-.1563 0-.026-.006-.052-.019-.0781-.078-.1041-.131-.1693-.157-.1953-.078-.0911-.117-.1432-.117-.1562 0-.0131-.006-.0326-.019-.0586-.091-.1823-.157-.293-.196-.3321 0-.0651-.006-.1106-.019-.1367-.013-.026-.02-.0586-.02-.0976-.065-.1303-.097-.2084-.097-.2344 0-.0391 0-.0716 0-.0977-.039-.1302-.065-.1953-.078-.1953 0 0 0-.0065 0-.0195-.066-.1953-.105-.319-.118-.3711-.013-.0651-.032-.1237-.058-.1758-.026-.1302-.046-.2148-.059-.2539 0-.0391-.006-.0911-.019-.1563 0-.0781-.007-.1562-.02-.2343-.013-.0912-.019-.1433-.019-.1563 0-.026 0-.0651 0-.1172.013-.0651.013-.1172 0-.1562-.013-.0391-.033-.0716-.059-.0977-.026-.039-.039-.0781-.039-.1172.065-.1953.098-.319.098-.3711 0-.0651 0-.1432 0-.2343.026-.1172.032-.2084.019-.2735s-.013-.1302 0-.1953c0-.039 0-.0781 0-.1172 0-.052.013-.0911.039-.1171-.026-.0521-.032-.0912-.019-.1172.026-.0391.045-.0782.058-.1172 0-.1433 0-.2149 0-.2149.013-.013.02-.0325.02-.0586.026-.1171.045-.2148.058-.2929.026-.0912.052-.1693.078-.2344.04-.1042.059-.1628.059-.1758 0-.026.007-.0521.02-.0781.052-.0781.084-.1302.097-.1563.013-.026.026-.052.039-.0781.052-.1953.111-.345.176-.4492s.111-.1823.137-.2344.052-.0911.078-.1172c0-.0521.013-.0911.039-.1172.039-.026.072-.052.098-.0781.065-.1172.11-.1823.136-.1953.065-.1172.098-.1823.098-.1953.117-.1302.189-.2018.215-.2148.026-.0131.052-.0326.078-.0586.091-.1042.13-.1628.117-.1758 0-.0261.007-.0391.02-.0391.039-.013.065-.0325.078-.0586.026-.039.052-.0716.078-.0976.117-.1042.182-.1628.195-.1758s.033-.0261.059-.0391c.052-.0911.085-.1367.098-.1367.026 0 .039-.013.039-.0391.13-.0911.201-.1432.214-.1562.026-.013.053-.0326.079-.0586.104-.0781.162-.1172.175-.1172.026-.013.046-.026.059-.0391.13-.0781.202-.1302.215-.1562.117-.0912.182-.1367.195-.1367.026-.013.039-.0326.039-.0586.156-.0781.248-.1172.274-.1172s.052-.0065.078-.0195c.195-.0782.319-.1302.371-.1563.026-.013.052-.0195.078-.0195.039-.013.091-.0261.156-.0391l.078-.039c.039-.0131.085-.0261.137-.0391.13-.0391.195-.0586.195-.0586 0-.013.013-.0195.039-.0195.092-.0261.15-.0456.176-.0586s.072-.0196.137-.0196c.169-.013.325-.013.469 0 .13.0131.221.0131.273 0 .052-.013.111-.0195.176-.0195.052 0 .13.013.234.0391h.215c.13.039.195.0586.195.0586 0-.0131.013-.0196.039-.0196.105.0261.163.0391.176.0391.026-.013.052-.013.078 0 .052 0 .098.013.137.0391.052.026.111.026.176 0 .143.0651.234.1041.273.1172.052.013.111.026.176.039.13.0521.221.0912.274.1172.065.013.123.0391.175.0781.078-.026.15.0065.215.0977.13.0781.202.1172.215.1172s.026.0065.039.0195c.065.0651.117.1107.156.1367.039.0261.072.0586.098.0977.065.0911.104.1432.117.1562.013 0 .026.0065.039.0196.039.039.078.0781.117.1171.052.0391.092.0847.118.1368.104.1041.156.1562.156.1562.052.0521.091.0977.117.1367.039.0261.072.0586.098.0977.104.1042.156.1693.156.1953 0 .013.006.0326.019.0586.105.1693.163.2604.176.2734.052.0912.098.1563.137.1953.026.0391.046.0782.059.1172.013.0391.032.0782.058.1172-.013.0391-.013.0781 0 .1172.026.0391.052.0716.078.0977.026.052.046.1237.059.2148.013.0781.032.1497.058.2149.027.039.046.0781.059.1171.013.0261.033.0651.059.1172.026.1563.039.2344.039.2344 0 .0391.006.0781.019.1172.013.026.026.0586.039.0976.013.1172.013.1758 0 .1758 0 0 .007.013.02.0391l.058.2148c.026.1042.04.1953.04.2735 0 .039.006.0781.019.1172.013.026.02.0585.02.0976-.026.1563-.039.2604-.039.3125.013.0391.013.0716 0 .0977-.118.1172-.189.1888-.215.2148-.013.0261-.033.0456-.059.0586-.104.0521-.163.0846-.176.0977 0 .013-.006.026-.019.039-.143.0651-.235.0977-.274.0977-.026 0-.052.013-.078.039-.104.0391-.176.0717-.215.0977-.026.026-.052.0521-.078.0781-.13.0391-.195.0716-.195.0977-.078.039-.143.0716-.195.0976-.052.0131-.098.0326-.137.0586-.143.0782-.267.1433-.371.1953-.13.0782-.222.1237-.274.1368-.052.013-.091.0325-.117.0586-.104.052-.169.0846-.195.0976s-.052.0326-.078.0586c-.13.0912-.215.1432-.254.1563-.026.013-.052.039-.078.0781-.026-.013-.065-.0065-.117.0195-.053.0261-.098.0521-.137.0781-.156.0651-.261.1042-.313.1172-.039 0-.071.0196-.097.0586-.039 0-.078.013-.118.0391-.026.013-.058.026-.097.039-.039.0131-.085.0196-.137.0196-.039-.013-.078-.0065-.117.0195-.117.0781-.189.1172-.215.1172-.026.026-.065.0456-.117.0586-.039.013-.078.026-.117.0391-.118.0651-.202.0976-.254.0976-.039 0-.072.013-.098.0391-.117.0521-.182.0846-.195.0976-.104.0651-.176.0977-.215.0977s-.078.013-.117.039c-.209.0782-.319.1368-.332.1758 0 .1693.013.2604.039.2735.091.0781.15.1237.176.1367.039.013.078.0325.117.0586.026.039.052.0586.078.0586.039 0 .078.013.117.039.026.0131.052.0326.078.0586.039.013.078.0261.117.0391.052.0391.124.0586.215.0586.065.013.117.026.156.039.04 0 .085.0066.137.0196.104.026.182.039.235.039.156-.013.26-.013.312 0 .065.0131.117.0196.156.0196.065 0 .131-.0065.196-.0196.065-.026.13-.039.195-.039.156.013.254.013.293 0 .052-.013.104-.0196.156-.0196zm-.781-4.961c-.026-.052-.046-.0976-.059-.1367 0-.039-.019-.0651-.058-.0781-.065-.1302-.104-.2018-.117-.2148 0-.0131-.013-.0261-.04-.0391-.117-.1042-.188-.1693-.214-.1953-.131-.1042-.209-.1628-.235-.1758-.182-.0911-.306-.1367-.371-.1367-.052 0-.124 0-.215 0-.143.0651-.221.0976-.234.0976s-.026.0065-.039.0196c-.143.0781-.228.1237-.254.1367-.026 0-.039.0195-.039.0586-.104.0521-.163.0846-.176.0976-.013 0-.026 0-.039 0-.078.1042-.13.1758-.156.2149-.013.026-.026.0521-.039.0781-.104.1302-.163.2083-.176.2344-.013.026-.026.0521-.039.0781-.039.1693-.085.2669-.137.293-.039.026-.065.0716-.078.1367-.078.1042-.117.1693-.117.1953.013.013.013.026 0 .0391-.039.1302-.072.1953-.098.1953-.052.2083-.078.3255-.078.3515.026.1042.026.1693 0 .1954-.013.026-.006.0455.02.0585.169-.0781.286-.1106.351-.0976.13-.0651.215-.1042.254-.1172s.072-.0325.098-.0586c.143-.0781.221-.1237.234-.1367.104-.0391.176-.0651.215-.0781.039-.0131.072-.0261.098-.0391.156-.0651.254-.1042.293-.1172.052-.026.091-.0521.117-.0781.104-.0651.176-.0977.215-.0977.039-.013.078-.0325.117-.0586.078-.039.124-.0585.137-.0585.026-.0131.052-.0261.078-.0391.052-.0261.097-.0391.136-.0391.039-.013.072-.0325.098-.0586.143-.0651.215-.1041.215-.1172.013-.026.026-.039.039-.039.078-.0912.15-.1367.215-.1367.065-.0131.11-.0456.137-.0977zm9.238-1.9335c.143 0 .241-.0261.293-.0782.104-.0781.169-.1237.195-.1367.027-.013.053-.0325.079-.0586.13-.1172.221-.2148.273-.293.104-.1041.156-.1627.156-.1757.091-.0912.15-.1498.176-.1758.026-.0261.052-.0521.078-.0781.091-.0391.156-.0782.196-.1172.052-.0521.104-.0912.156-.1172.091-.0391.156-.0716.195-.0977.143-.0521.215-.0781.215-.0781.013-.013.026-.0195.039-.0195.026-.0261.052-.0456.078-.0586.026-.0261.059-.0521.098-.0782.078-.013.149-.039.215-.0781.143-.0521.254-.0781.332-.0781.156-.0651.241-.0977.254-.0977.052-.026.097-.0325.136-.0195.039 0 .072-.0065.098-.0195.13.013.208.0195.234.0195h.332c.065-.013.118-.013.157 0 .078.013.143.0456.195.0977s.117.0781.195.0781c.026.0391.052.0716.078.0976.026.0261.046.0652.059.1172.104.0912.15.1368.137.1368 0 0 .006.0065.019.0195.052.1432.078.2213.078.2344.026.1432.026.2799 0 .4101-.013.0781-.019.2084-.019.3906.013.1823-.013.306-.078.3711.026.1302.026.267 0 .4102 0 .0651-.007.1302-.02.1953-.013.0521-.019.1107-.019.1758v.2344c.013.0781.019.1562.019.2343 0 .0521-.006.1042-.019.1563s-.026.0976-.039.1367c-.027.1302-.046.2214-.059.2734 0 .0391-.007.0782-.02.1172-.065.1823-.11.293-.136.3321-.039.039-.078.0586-.118.0586-.026 0-.058.0065-.097.0195-.143.0521-.228.0716-.254.0586-.013-.013-.039-.0326-.078-.0586-.039.013-.078.013-.117 0-.039-.0261-.079-.0391-.118-.0391-.234.013-.377.0261-.429.0391h-.215c-.117.0391-.195.0716-.234.0976-.04.0131-.072.0326-.098.0586-.143.0261-.228.0521-.254.0782-.091.013-.156.026-.195.039-.026.013-.052.0261-.078.0391-.144.026-.235.039-.274.039-.091.0391-.163.0847-.215.1368-.143.0521-.228.0911-.254.1172-.026.026-.058.0455-.097.0586-.026.039-.059.0716-.098.0976-.026.013-.052.0326-.078.0586-.078.0521-.137.0977-.176.1367-.091.0651-.156.1237-.195.1758-.039.0391-.078.0716-.117.0977-.026.026-.059.052-.098.0781-.026.026-.052.0521-.078.0781-.013.0521-.033.0912-.059.1172s-.052.0521-.078.0781c-.065.1563-.111.2604-.137.3125-.026.0391-.039.0912-.039.1563-.052.0521-.091.1172-.117.1953-.013.0651-.032.1432-.058.2344-.013.0651-.027.1367-.04.2148-.013.0651-.019.1302-.019.1953.026.1693.026.28 0 .332-.013.1303-.02.2084-.02.2344.013.0261.02.0521.02.0781-.013.1433-.02.2409-.02.293.013.0391.02.0846.02.1367-.026.1823-.046.2995-.059.3516 0 .0391-.006.0781-.019.1172v.0976c.013.1953.013.3321 0 .4102-.013.0651-.02.1367-.02.2148v.1758c.013.0521.02.1107.02.1758 0 .3125.026.5534.078.7227.013.1041.026.1757.039.2148s.02.0781.02.1172c.026.1042.039.1953.039.2734 0 .0782-.007.1302-.02.1563-.013.0911-.019.1627-.019.2148-.066.1172-.098.1888-.098.2149 0 .026-.007.052-.02.0781-.026.0391-.065.0781-.117.1172-.052.026-.091.0586-.117.0976-.091-.013-.195 0-.313.0391-.091.026-.156.0325-.195.0195-.039 0-.078.0065-.117.0196-.039 0-.078 0-.117 0-.039.013-.072.0195-.098.0195-.156.013-.241.013-.254 0 0 0-.006 0-.019 0-.144 0-.228-.0065-.254-.0195-.013 0-.026 0-.039 0l-.528.0781c-.195.013-.332.0195-.41.0195-.065.013-.13.0065-.195-.0195-.182-.0261-.313-.0521-.391-.0781-.065-.0261-.13-.0391-.195-.0391-.091-.0781-.163-.1367-.215-.1758-.052-.0521-.104-.0976-.156-.1367-.039-.1302-.065-.2083-.078-.2344 0-.026-.007-.0521-.02-.0781-.052-.1823-.078-.28-.078-.293 0-.1692 0-.306 0-.4101.013-.1172.026-.2149.039-.293.013-.0521.02-.1497.02-.293.026-.1432.039-.2213.039-.2343 0-.0651 0-.1237 0-.1758s.006-.0912.019-.1172c.026-.1823.039-.2865.039-.3125-.013-.1042-.019-.1628-.019-.1758.013-.026.019-.0521.019-.0781 0-.0651-.006-.1432-.019-.2344 0-.0911 0-.1823 0-.2734.026-.1563.032-.2409.019-.2539 0-.0131.007-.0326.02-.0586 0-.0651.006-.1237.019-.1758s.007-.1042-.019-.1563c0-.1432 0-.2213 0-.2343.013-.0261.019-.0521.019-.0782 0-.1041 0-.1953 0-.2734.013-.0911.013-.1888 0-.293 0-.039-.006-.0781-.019-.1172 0-.052 0-.1041 0-.1562 0-.1172.006-.2214.019-.3125.013-.1042.013-.2083 0-.3125-.013-.1693-.026-.306-.039-.4102 0-.1041.007-.2083.02-.3125-.013-.1302-.02-.2018-.02-.2148-.026-.0912-.039-.1563-.039-.1953.013-.0521.013-.1107 0-.1758 0-.1172-.013-.1823-.039-.1953-.013-.0261-.019-.0521-.019-.0781.013-.1172.013-.2019 0-.2539-.013-.0521-.02-.1042-.02-.1563.013-.0521.02-.0911.02-.1172.013-.039.019-.0781.019-.1172-.013-.1172-.019-.1823-.019-.1953.013-.013.019-.026.019-.039l-.019-.4883c0-.0912 0-.1628 0-.2149 0-.0651-.013-.1302-.039-.1953-.013-.0651-.013-.1432 0-.2344.013-.1041.013-.1692 0-.1953-.013-.039-.02-.0846-.02-.1367.013-.0651.013-.1302 0-.1953s-.019-.1237-.019-.1758c0-.039 0-.0781 0-.1172.013-.0521.019-.0976.019-.1367 0-.0651-.013-.1302-.039-.1953-.013-.0651-.019-.1302-.019-.1953.052-.1953.084-.3125.097-.3516.013-.0521.039-.1041.078-.1562.117-.1042.176-.1628.176-.1758s.007-.0195.02-.0195c.104-.0131.175-.0131.214 0 .04 0 .066-.0131.079-.0391.039.026.078.0326.117.0195.052-.013.097-.0195.136-.0195.209-.0391.443-.0391.704 0 .143.026.221.0391.234.0391.013-.0131.026-.0196.039-.0196h.234c.039-.013.079-.0195.118-.0195.091-.013.149-.013.175 0 .039 0 .085-.0065.137-.0195.156-.0261.247-.0326.274-.0196.026 0 .058-.0065.097-.0195.026 0 .065.0065.117.0195.052 0 .098-.013.137-.039.104.013.195.026.274.039.078 0 .175.0065.293.0196.091.0911.156.1367.195.1367.039.0391.065.1107.078.2148.039.1172.052.1888.039.2149 0 .026.007.0521.02.0781 0 .0651.013.1432.039.2344.026.0911.039.1823.039.2734v.2149z" fill="#693821"/></svg>