<svg fill="none" height="38" viewBox="0 0 31 38" width="31" xmlns="http://www.w3.org/2000/svg"><path d="m25.7323 30.7466c-3.4325 4.3696-10.3545 9.4114-14.1639 5.6809-.7236-.7079-1.69197-1.0422-2.66163-.9178-5.10606.6546-8.042749-7.7885-8.496176-13.4988-1.461164-15.45176 7.281826-19.32511 16.732406-14.21556.8121.43878 1.6819.73877 2.5787.88969.1695.02871.3377.0588.5047.0915.0126.00277.0247.00476.0374.00753 2.4686.479 4.6146 1.35384 6.311 2.57084 1.9885 1.4249 3.3597 3.3191 3.9082 5.5962.8929 3.7082-.3955 8.4304-4.7507 13.7955z" fill="#ff002b"/><g fill="#000072"><path d="m14.8301 37.7657c-1.2919 0-2.3951-.4399-3.2842-1.3106-.7159-.7005-1.6766-1.0318-2.63532-.9087-1.31935.1695-2.56922-.2562-3.71508-1.2648-2.8395-2.4989-4.488089-8.1104-4.818035-12.2663-.3460025-3.6598-.132575-6.8073.634595-9.3548.7146-2.3731 1.89314-4.18516 3.5028-5.3862 3.13406-2.33808 7.74224-2.15937 12.64294.49021.8098.4374 1.6742.7357 2.569.88631.1881.03194.3535.06188.5055.09166l.038.00768c2.4849.48223 4.6124 1.34894 6.3226 2.57604 2.0313 1.4554 3.3875 3.3977 3.922 5.617.9681 4.0195-.6771 8.8011-4.7578 13.8279-2.498 3.18-6.8515 6.7207-10.5059 6.9792-.1426.0101-.2829.0154-.4211.0154zm-5.52563-2.3162c.84023 0 1.65583.3361 2.28593.9525.9703.9502 2.1999 1.3793 3.6564 1.2769 3.6351-.257 7.9702-3.7852 10.46-6.9545l.0005-.0004c4.0655-5.0083 5.7058-9.7673 4.7434-13.7627-.5303-2.2019-1.8769-4.1298-3.8944-5.5754-1.7027-1.2218-3.8218-2.08488-6.2985-2.56543l-.0381-.00767c-.1509-.02963-.3158-.05942-.5033-.0912-.9015-.15184-1.7724-.45229-2.5883-.89307-4.8786-2.6376-9.46213-2.81815-12.57558-.49528-2.34245 1.74745-4.956722 5.71215-4.109123 14.67505.328951 4.1421 1.969443 9.7319 4.794023 12.2176 1.1315.9958 2.36475 1.4165 3.66535 1.2493.134-.0172.26828-.0257.4017-.0257z"/><path d="m25.7318 30.7474c-3.4325 4.3696-10.3545 9.4114-14.1639 5.6809-.7236-.7079-1.69197-1.0422-2.66163-.9178-1.71211.2194-3.1801-.5836-4.3926-1.9633 1.29591.9158 2.7146 1.2944 4.19282.8057.91211-.3008 1.89631-.1612 2.70521.3841 4.2605 2.8722 10.1053-3.2706 12.7029-8.1144 1.4218-2.5538 2.3231-4.8902 2.776-6.993.0044-.0198.0082-.0396.0126-.0594.0133-.0608.026-.1216.0374-.1818.0006-.002.0013-.0042.0013-.0062.5395-2.7608-.3004-5.037-2.0455-6.995-.9557.4026-1.9967.5652-3.0391.4551.162.2556.2802.5207.3473.7913-3.676.7004-7.7089-1.1406-9.7151-3.352.8273-1.2574 4.0726-.86376 6.6006.3615.3037-.69697.6996-1.31614 1.1651-1.84843.0025-.00337.0056-.00614.0082-.00951.0847.01642.1695.03347.2536.05051.0633.01305.1259.02671.1885.04037.0815.01781.1625.03547.2435.05405.1386.03208.2764.06494.4131.09979.0114.00276.0227.00553.0341.0089.074.01843.1473.03762.2207.05742.0626.01643.1251.03347.1872.05128.0191.00476.0374.01029.0557.01505.0513.01428.1025.02932.1538.04437.0266.00752.0524.01504.0777.02257.1303.03822.2599.07783.3878.11883.0715.02318.1424.04651.2131.0697.069.02318.1373.04652.2057.07031.0689.02395.1378.04852.2061.07308.1265.04575.2524.09289.377.1414.0235.00952.0468.01842.0702.02794.0524.02058.105.04176.1575.06295.0639.02595.1271.05189.1904.07922.067.02794.1347.05742.2012.08674.1296.05666.2567.11486.3826.17426.062.0293.1234.0588.184.0881.0039.002.0076.0042.0114.0055.0513.0254.1019.0506.1525.0767.0158.0075.031.0156.0462.0231.0361.0185.0714.0363.1062.0555.1329.0683.2638.1394.3922.2118.038.0212.0759.0424.1133.0642.0663.0376.1328.0766.1979.1162.0418.0246.0823.0499.1234.0745.2644.1613.5192.3301.7646.5063.0392.0287.079.0574.1182.0862.0929.0683.184.1374.2745.2077.0354.0273.0702.0554.105.0827.0158.0123.031.0246.0457.0369.0385.0314.0771.0628.115.0942.0437.0363.0873.0731.1298.1094.043.0368.0859.0738.1277.1114.0847.0739.1677.1489.2485.2262.0361.0334.071.0669.1063.1011.0101.0089.0202.0185.0297.0287.0317.0307.0627.0616.0937.0923.0544.0533.1075.1079.16.164.0271.0279.0544.056.081.0847.0753.08.1486.1612.2206.2434.0013.0006.0019.0014.0026.0027.0354.0404.0708.082.1056.123.0328.0382.0645.0766.0962.1148.1075.1299.2106.2624.3099.3971.0322.0437.0645.0881.0955.1318.0265.0369.0524.0739.0784.1115.0973.1408.191.2843.2795.4299.0284.0457.0563.0923.0836.1388.0247.0423.0493.0847.0733.1271.0841.1469.1631.2966.2384.4483.0196.0404.0392.0806.0583.121.0051.0089.0088.0178.0132.0273.0152.0321.0304.0642.0443.0964.014.028.0266.0561.0387.0848.0121.0253.0234.0512.0348.0772.0158.0362.0317.0731.0462.1101.0361.0847.0707.1708.1037.257.0209.0533.0405.1079.0601.1619.0209.0561.0405.1127.0594.1695.0044.0123.0088.0246.0127.0369.0164.0485.0322.097.0467.1455.048.1497.0911.3008.1303.4539.0121.0443.0235.0889.0341.1338.0026.0089.0051.0178.0064.0274h.0006c.8926 3.707-.3958 8.4291-4.751 13.795z" opacity=".027"/><path d="m20.2266 8.77734c.0126.00277.0247.00476.0373.00753-.0025.00337-.0057.00614-.0082.00951-.0095-.00537-.0196-.01151-.0291-.01704z" opacity=".027"/><path d="m24.0996 9.96094c.1296.05666.2568.11486.3827.17426-.1259-.0602-.2537-.1182-.3827-.17426z" opacity=".027"/></g><path d="m26.089 11.0237c-1.5971-.8897-3.492-1.52804-5.6083-1.8833-.8969-.15031-1.7665-.45107-2.5786-.8897-9.45075-5.10909-18.1936-1.23574-16.73257 14.2154.34856 4.3886 2.16312 10.3908 5.30215 12.6377-3.60582-1.7562-5.685385-8.3625-6.061086-13.0929-1.461164-15.45176 7.281826-19.32512 16.732506-14.21556.812.43878 1.6818.73878 2.5786.88969 2.4623.41422 4.6247 1.21042 6.3673 2.33867z" fill="#fff" opacity=".216"/><path d="m14.8281 38.0002c-1.3464 0-2.4979-.4601-3.4281-1.371-.6692-.6553-1.56729-.9651-2.46419-.8501-1.37989.1773-2.68447-.2656-3.87765-1.3157-2.88851-2.5421-4.563106-8.2242-4.896604-12.4278-.348845-3.6883-.1321491-6.868.64426-9.4464.729514-2.4228 1.935904-4.27526 3.585354-5.50593 3.20084-2.38828 7.88923-2.21572 12.86293.47301.7897.42696 1.6326.71774 2.5054.86436 5.495.92347 9.4079 3.71876 10.7352 7.66906.684 2.0357.6735 4.3007-.0314 6.732-.7502 2.5869-2.2785 5.3131-4.543 8.1032-2.5267 3.2161-6.9383 6.7966-10.655 7.0596-.1481.0105-.2937.0157-.4372.0157zm-5.52384-2.7836c.89364 0 1.76084.3574 2.43064 1.0133.9255.9061 2.1026 1.3155 3.4977 1.2168 3.5726-.2527 7.8481-3.7396 10.3088-6.8723.0008-.0011.0017-.0022.0027-.0033 4.2965-5.2931 5.8463-10.2372 4.4819-14.2975-1.2633-3.7599-5.0333-6.42807-10.3429-7.32037-.9238-.15537-1.816-.46319-2.652-.91502-4.8061-2.598-9.30978-2.78438-12.35631-.5114-3.29022 2.45444-4.67905974 7.45419-4.016753 14.45849.325257 4.0982 1.939173 9.6172 4.715013 12.0603 1.08447.9544 2.26329 1.3575 3.50379 1.1985.14266-.0185.28547-.0275.42742-.0275z" fill="#000072"/><path d="m17.6191 13.5491c1.9142-4.44004 2.1089-8.75294 1.1528-12.742963-.0916-.382437-.4534-.611961-.8076-.51401l-1.6535.457051c-.3679.101635-.532.565442-.3212.906732 2.1489 3.48185 2.4358 7.27383.3916 11.45239" fill="#ef701b"/><path d="m17.6492 13.5647-.0601-.0303c1.7905-4.15335 2.1778-8.43247 1.1508-12.718657-.0868-.362325-.4311-.581409-.7673-.488372l-1.6533.457052c-.1646.045444-.2939.169955-.3548.341287-.0608.17165-.0416.35788.0529.51094 1.0938 1.77248 1.6906 3.61742 1.7738 5.48309.0861 1.93675-.3783 3.95736-1.3805 6.00586l-.0587-.0335c1.9528-3.9917 1.8217-7.8325-.3897-11.41583-.1066-.17272-.1282-.3826-.0596-.57619.0687-.193295.2144-.333773.4002-.385051l1.6532-.457052c.3715-.10271.752.139403.8479.539803 1.0311 4.30276.6424 8.59816-1.1548 12.76692z" fill="#000072"/><path d="m16.7864 13.0856.883.3438c-.0165.0396-.0336.0799-.0506.1196l-1.2378-.4402c2.0442-4.17888 1.7577-7.97085-.3915-11.45271-.2106-.34098-.0467-.804941.3213-.906884l1.6534-.457051c.1803-.049897.3625-.015046.5099.082751l-1.4453.354649c-.3706.090274-.5458.549475-.344.896605 2.0598 3.54387 2.2509 7.34276.1016 11.45944z" fill="#fff" opacity=".216"/><path d="m17.6194 13.8184c-.0352 0-.071-.0082-.1051-.0254-.1249-.0627-.1789-.223-.1208-.358 1.7688-4.10285 2.1516-8.32916 1.1375-12.561455-.057-.237814-.2832-.38167-.5043-.320565l-1.6533.45705c-.0958.02656-.1711.09887-.2065.19867-.0355.09994-.0243.20833.0309.29753 1.116 1.80825 1.7249 3.6928 1.8098 5.60146.0881 1.97912-.3848 4.04021-1.4053 6.12641-.0644.1314-.2153.1817-.337.1122-.1218-.0696-.1684-.2326-.1039-.3642 1.9397-3.96499 1.816-7.6211-.3786-11.17695-.1438-.23305-.1742-.52813-.0815-.78944.0926-.261149.2977-.458432.5485-.527826l1.6533-.457052c.4869-.134337.9851.182852 1.1107.707455 1.0439 4.356653.6508 8.705023-1.1682 12.924313-.0422.0982-.1321.1558-.2262.1558z" fill="#000072"/><path d="m28.5065 7.40575c-1.5213 3.58445-5.4444 5.15855-8.7626 3.51475-.3554-.1761-.6887-.3813-.9998-.6132.0849-.3019.19-.6011.3149-.89556 1.5213-3.58441 5.4447-5.15776 8.7623-3.51409.3554.17609.6893.38151 1.0001.61395-.0851.30107-.19.59968-.3149.89415z" fill="#73c612"/><path d="m22.4884 11.6067c-.9251 0-1.8642-.2098-2.7587-.6528-.3525-.1748-.6906-.382-1.0047-.6163l-.0199-.0149.0071-.025c.0852-.30355.1918-.6063.3164-.90016 1.5266-3.59684 5.477-5.1814 8.8063-3.53159.3541.17533.6921.38305 1.005.61718l.0199.01489-.0071.02503c-.0861.30414-.1926.60643-.3165.89844-1.1164 2.63071-3.5296 4.18521-6.0478 4.18521zm-3.7057-1.3132c.3053.2257.6331.4259.9747.5953 3.2961 1.6329 7.2073.0641 8.7186-3.49709.1194-.28111.2222-.57189.3062-.86452-.3041-.22568-.632-.42604-.9751-.59599-3.2961-1.63292-7.207-.06448-8.7182 3.49644-.12.28264-.223.57386-.3062.86586z" fill="#000072"/><path d="m28.8216 6.51202c-.0854.30137-.1905.59937-.3151.89384-1.5211 3.58504-5.4445 5.15884-8.7624 3.51534-.3556-.1763-.6888-.3814-1-.6137.0576-.2036.1241-.40651.2-.60748.1328.07861.2694.15245.4092.22139 3.3181 1.64349 7.2413.0697 8.7625-3.51533.0405-.09503.079-.19129.1145-.28694.2055.12083.4021.25209.5913.39288z" fill="#000072" opacity=".027"/><path d="m28.8214 6.51319c-.0215.07523-.0436.1503-.0677.22553-.1973-.12712-.4028-.24334-.6159-.34851-3.3181-1.64413-7.2413-.07031-8.7625 3.51394-.0936.22075-.1765.44415-.2479.66965-.1316-.0839-.2594-.1722-.3833-.2651.0847-.3014.1897-.60076.3151-.89522 1.5211-3.58426 5.4445-5.15746 8.7624-3.51394.3547.17563.6886.38121.9998.61365z" fill="#fff" opacity=".216"/><g fill="#000072"><path d="m22.4879 11.8395c-.9553 0-1.9249-.2165-2.8485-.6742-.3639-.1804-.713-.3944-1.0374-.6363-.0894-.0667-.1286-.1879-.0971-.3002.0881-.31348.1981-.62622.3268-.92959 1.5763-3.71383 5.6553-5.34967 9.0929-3.64658.3656.181.7147.39548 1.0381.63744.0893.06679.1282.18823.0965.3003-.0888.31412-.1988.62624-.3267.92746-1.1526 2.71657-3.6444 4.32167-6.2446 4.32167zm-3.4494-1.6434c.2565.1792.5279.3401.8089.4795 3.1877 1.5793 6.9703.062 8.432-3.38207.0929-.21893.1756-.444.2467-.67107-.2557-.17917-.5271-.34006-.8091-.47977-3.1876-1.57919-6.9701-.06234-8.4317 3.38144-.0935.22001-.1762.44523-.2468.67197zm9.4675-2.79034h.0008z"/><path d="m20.0467 14.1428c-2.8838 0-5.5406-1.296-7.9248-3.8723-.0975-.1052-.0974-.27576 0-.38108.0975-.10516.2553-.10516.3527 0 2.9169 3.15198 6.2527 4.30528 9.915 3.42768.1342-.0321.2677.0594.2975.2046.0299.1453-.055.2891-.1894.3214-.8337.1999-1.6513.2997-2.451.2997z"/><path d="m18.6561 10.0554 1.9678-.79561c.6569-.26238 1.3095-.53719 1.9626-.81047.6528-.27435 1.3176-.51355 1.9846-.74691.6677-.23106 1.3391-.45168 2.0218-.63975.0335-.00921.0677.01259.0763.04882.0074.03147-.0068.06325-.0326.07722-.6292.34222-1.2697.65188-1.9138.95126-.645.29692-1.2918.58817-1.951.8441-.6588.257-1.3181.51263-1.973.78053l-1.9677.79561c-.1291.0522-.2727-.0186-.321-.158-.0484-.1396.017-.2948.146-.3468z"/><path d="m23.9698 7.98651 1.8454.84884c.0318.01459.0466.05435.0331.08874-.0119.0304-.0422.04637-.071.03961l-1.9592-.4638c-.1352-.03193-.2207-.17625-.1912-.32225.0296-.14601.1632-.23843.2983-.2065.0152.00353.0308.00921.0446.01536z"/><path d="m22.8247 7.35404-1.2014 2.03348c-.0743.1259-.229.16274-.3456.08245-.1165-.0803-.1506-.24749-.0763-.37338.0074-.01259.0167-.02533.0255-.03608l1.4988-1.7883c.0231-.02763.0628-.02978.0884-.00476.0228.02257.0268.05926.0106.08659z"/></g><path d="m7.56772 28.428c.52628-.5686.52628-1.4905 0-2.0591s-1.37955-.5686-1.90582 0c-.52628.5686-.52628 1.4905 0 2.0591.52627.5686 1.37954.5686 1.90582 0z" fill="#fff" opacity=".006859"/><path d="m4.07866 15.4848c-1.332 2.6626-1.48049 5.3994-.44121 7.9923.31929.7965 1.1865 1.1496 1.91914.7938.70352-.3418 1.03474-1.2187.75581-1.9959-.7065-1.9684-.77499-3.9965-.20419-5.8431.20774-.672-.16611-1.3908-.8054-1.5483-.48653-.1199-.98685.1268-1.22415.6012z" fill="#fff" opacity=".006859"/><g fill="#000072"><path d="m25.9707 10.9492c.1992.1251.3935.2556.5819.3909-.1886-.1347-.3827-.2644-.5819-.3909z" opacity=".027"/><path d="m26.8906 19.6305c.0041-.0198.0083-.0404.0124-.0602-.0041.0198-.0077.0396-.0118.0594-.0006.0008-.0006.0008-.0006.0008z" opacity=".027"/><path d="m28.209 12.7812c.0753.08.1492.1613.2207.2434-.0721-.0821-.1454-.1635-.2207-.2434z" opacity=".027"/><path d="m30.4811 16.9538h-.0005c-.0012-.0097-.0036-.0189-.006-.028.0024.0091.0048.0189.0065.028z" opacity=".027"/><path d="m19.0312 10.3084c2.4101-2.91099 5.1958-4.31654 8.5228-3.55166z" opacity=".027"/></g><path d="m21.455 16.6902c-.3118 1.0956-2.8067 1.239-5.5727.3203s-4.7556-2.5516-4.4439-3.6472c.3118-1.0956 2.2423.7447 5.0083 1.6635 2.766.9187 5.3201.5679 5.0083 1.6634z" fill="#fff" opacity=".015625"/></svg>