<svg fill="none" height="79" viewBox="0 0 76 79" width="76" xmlns="http://www.w3.org/2000/svg" xmlns:xlink="http://www.w3.org/1999/xlink"><linearGradient id="a"><stop offset="0" stop-color="#cf5c2b"/><stop offset="1" stop-color="#59173e"/></linearGradient><linearGradient id="b" gradientUnits="userSpaceOnUse" x1="73.232" x2="51.6665" xlink:href="#a" y1="-38.6613" y2="9.28512"/><linearGradient id="c" gradientUnits="userSpaceOnUse" x1="64.1496" x2="-12.1639" xlink:href="#a" y1="-21.5993" y2="154.608"/><linearGradient id="d" gradientUnits="userSpaceOnUse" x1="55.7765" x2="-20.5364" xlink:href="#a" y1=".173435" y2="176.379"/><linearGradient id="e" gradientUnits="userSpaceOnUse" x1="41.3393" x2="38.9844" xlink:href="#a" y1="110.312" y2="36.6345"/><path d="m75.2268 11.2947c-.4341-5.90209-5.2634-10.518779-11.1598-10.75414-16.604-.651768-33.1537-.669872-49.613 0-1.1937.036209-2.3875.27157-3.5089.68798-.5607.19915-1.10329.43451-1.60973.72418-2.56837 1.41217-4.30474 3.83819-5.64319 6.37284-1.41079 2.64324-2.857762 5.57624-3.038634 8.61784-.144697 2.4622-.271307 4.9425-.361742 7.4048-.018087.2716-.018087.525.018087.7785.018087.1448.036174.2897.018087.4345-.054261.7966-.018087 1.5027.397917 2.2088.25322.4164.578785.7785.994795 1.0138-.03618-.0181-.37983.3078-.43409.344-.1447.1267-.27131.2716-.379834.4164-.235132.3078-.434091.6337-.560701.9958-.144697.3621-.235132.7423-.2532196 1.1225-.1266099 1.5389-.09043566 3.0778-.0723485 4.6166.0180871 1.3398-.1085228 2.752.1085231 4.0736.054261.3259 0 .6699.072348.9957.144697.7423.488353 1.4303.832012 2.1002-.578792.6155-.832012 1.4665-.868186 2.3174-.036174.9776.144697 1.9372.090436 2.9148-.1808717 2.6433-.018088 5.359.144697 7.9842.018087.3078.072348.6155.126609.9052.162785.7423.180872 1.5208.596874 2.1726.18087.2897.41601.5431.7054.7423-.27131-.0362-.48835.2534-.61496.4888-.813923 1.557-.813923 2.77-.488355 4.4356.325565 1.7381.235133 3.3856.868185 5.0874.52452 1.4122 1.32036 2.7157 2.31515 3.8201 2.06193 2.2993 4.99205 3.7115 8.06687 3.8925 17.4902.9958 34.3294 1.0863 50.3907.0725.0724 0 .1447-.0182.2171-.0182 1.9534-.1629 3.8525-.7966 5.4985-1.8647 1.6097-1.032 2.9482-2.4623 3.8887-4.1279 1.0852-1.9191 1.5917-4.1822 2.1524-6.3004.3436-1.3036.8681-2.9692.7235-4.3632-.0905-.7966.1446-1.5751.1085-2.3717-.0362-.9053-.2713-1.7924-.6873-2.589-.0543-.0905-.1086-.1992-.1086-.3078-.018-.2535.2533-.4345.4522-.5974.4703-.3621.7778-.9234.8682-1.5027.0181-.1449.0362-.2897.0181-.4345-.0543-.2535-.0362-.4527-.0181-.7242.0904-1.8286.1628-3.6572.2351-5.4857.0724-2.0097.1447-4.0193.1809-6.0108.0543-1.9734.0723-3.9649.0904-5.9383.0181-1.9553.0181-3.9106 0-5.8478 0-.9596-.018-1.9372-.0361-2.8968 0-.4888-.0181-.9595-.0362-1.4483-.0181-.4527-.0904-.9596-.0362-1.4122.0181-.1629.0724-.2897.0362-.4526-.0181-.1992-.0724-.3802-.1266-.5794-.1085-.3802-.2713-.7423-.4703-1.0862-.1989-.344-.4341-.6518-.7235-.9415-.0723-.0724-.832-.7785-.9043-.7061.2351-.2172.4341-.4526.6149-.706.4703-.6699.7416-1.4484.9225-2.245.0904-.3983.1447-.8147.1989-1.2311.0181-.0725.0543-.1449.0543-.2354.0543-.2897-.0181-.6337-.0362-.9233-.0542-1.1949-.1266-2.4261-.217-3.6391z" fill="url(#b)"/><path d="m75.9856 24.8554c0 2.064-.0362 4.1279-.0362 6.1918-.018.9777 0 1.9734-.018 2.9692 0 .5431-.0181 1.0682-.0181 1.5932-.0362 2.8062-.0724 5.6125-.1447 8.4187-.0362 1.394-.0724 2.7881-.1266 4.1822-.0362.8328-.0181 1.6113-.2894 2.3898-.3075.869-.2894 1.9372-.3799 2.8605-.0361.2897-.0904.5975-.3074.8147-.199.1992-.4884.2354-.7778.2535-.4522.0543-.9224.0905-1.3746.1448-2.6588.2716-5.3357.525-7.9945.5975-1.9715.0362-3.9611-.0181-5.9326-.2354 1.5012.2173 3.0025.4526 4.5037.6699.4341.0724.8501.1267 1.2842.1991 3.0567.4526 6.1134.9053 9.1702 1.3579.2713.0543.5787.0905.7777.2897.3075.2715.3256.7422.3075 1.1587-.0362.6155-.0904 1.2311-.199 1.8466-.1628 1.213-.3979 2.4261-.4521 3.6572-.0181.2534.0361.5069-.0181.7604-.1267.7785-.7054 1.5208-1.1395 2.1363-2.0258 2.8605-5.2996 4.6891-8.7904 4.9064-15.8081.9957-32.394.9052-49.613-.0724-2.4779-.1449-4.8835-1.1044-6.78265-2.7157-1.13949-.9596-2.18854-2.1907-2.83968-3.5486-.28939-.6155-.36174-1.3216-.65113-1.9553-.05426-.1448-.10853-.2715-.16279-.4164-.09043-.4164-.05426-.869.30748-1.1587.37983-.3077.92245-.3258 1.4108-.344 5.48037-.181 10.94267-.525 16.42307-.6879h.1628c1.664-.0543 3.3461-.0724 5.0102-.0724-.615-.0906-1.23-.1811-1.8449-.2354-2.8216-.344-5.6794-.4526-8.5191-.5613-.0361 0-.0723-.0181-.0904-.0181h-.0362c-3.4365-.1267-6.85499-.2715-10.23729-.7966-.65113-.1086-1.32036-.2353-1.89915-.5069-.43409-.1991-.81392-.4707-1.08522-.869-.01809-.0362-.03618-.0724-.05427-.0905-.39791-.6156-.54261-1.5389-.416-2.2269.16278-.7966.05426-1.5751.01809-2.426-.07235-1.4484-.16279-2.9149-.21705-4.3633-.05426-.7966-.09043-1.5932-.12661-2.3898-.01809-.4345-.03617-.9233.23513-1.2673.21705-.2716.59688-.3621.94054-.4526 1.06714-.2716 2.13428-.5432 3.23759-.7061.48835-.0905.97671-.1448 1.46506-.181-1.2661-.2716-2.51411-.5613-3.78021-.8329-.37983-.0905-.75966-.181-1.10332-.362-.07234-.0363-.16278-.0906-.23513-.1449-.61496-.4526-.77775-1.0682-.86818-1.7199-.03618-.2173-.05426-.4526-.09044-.6699-.09043-.525-.16278-1.032-.19896-1.557-.09043-.7966-.12661-1.5932-.16278-2.3898-.07235-1.7381-.16278-3.983.94053-5.4495.39792-.525 1.10332-.6518 1.75445-.7242 2.55029-.3078 5.10062-.5794 7.65082-.7966.5246-.0543 1.0672-.0905 1.5917-.1448 2.5865-.1992 5.1548-.3802 7.7594-.4889-3.111.1449-6.2401.1087-9.3511-.1086-1.9534-.1267-3.90678-.3259-5.86019-.5793-.81392-.1087-1.66402-.2354-2.3875-.6156-.01809-.0181-.03618-.0181-.05426-.0362-.19896-.0905-.37983-.1992-.5607-.344-.39792-.3078-.68732-.7242-.8501-1.1949-.18087-.4888-.09044-.9052-.01809-1.3941.01809-.181 0-.3621 0-.5431-.03617-1.1044.05426-2.2269.07235-3.3313.01809-.5612.03618-1.1225.07235-1.7018.07235-2.4622.19896-4.9245.34366-7.3867.36174-5.97453 5.191-10.699849 11.15978-10.93521 16.4593-.669872 32.9909-.669872 49.613-.018104 5.3357.217256 9.9841 4.182174 10.9969 9.450624.3075 1.61129.4161 3.36749.1086 4.99689-.0724.4164-.1809.8147-.3256 1.1949-.0904.2173-.2351.6699-.4341.8509-.0181.0181-.0362.0362-.0362.0362-.1447.0906-.3436.1087-.4883.1449-.9767.2353-1.9534.4345-2.9301.6155-1.9534.344-3.9249.5975-5.8964.7785-.0181 0-.0181 0-.0181 0-3.9792.344-7.9945.4164-11.9737.4889h-.1085c1.0852.0724 2.1885.1267 3.2737.1991 2.9663.1629 5.9326.344 8.8989.525 1.9715.1087 3.9611.2173 5.9326.344 1.1937.0724 2.4418.163 3.4727.7604.0181 0 .0181.0181.0181.0181 1.3385.8691 1.4108 2.4623 1.3927 3.9649z" fill="url(#c)"/><path d="m75.9833 24.854c0 2.0639-.0362 4.1279-.0362 6.1918-.0181.9776 0 1.9734-.0181 2.9692 0 .5431-.0181 1.0681-.0181 1.5932-7.6147.5069-15.2474 1.1587-22.8802 1.6294-8.8989.5431-17.7977 1.1406-26.6785 1.7199-4.7931.3078-9.55.6699-14.325 1.213-3.20146.3621-6.2401.8872-9.35109.7061-.03617-.2172-.05426-.4526-.09043-.6698-.09044-.5251-.16279-1.032-.19896-1.557 3.14716-.6699 6.31241-.5613 9.65848-.6699 4.4857-.1449 8.8989-.4707 13.3664-.869 8.8989-.8329 17.7978-1.7019 26.6966-2.7157 5.2996-.6156 10.5991-1.1587 15.9167-1.7562-.1989 0-.3617-.0181-.5426-.0181-8.6999-.4707-17.2551-2.082-25.9189-2.8605-8.6094-.7604-17.2189-1.4303-25.8465-1.9553-3.4908-.2173-7.48804-.1449-11.43103-.4345-.01809-.0181-.03618-.0181-.05426-.0363-.19896-.0905-.37983-.1991-.5607-.3439-.39792-.3078-.68732-.7242-.8501-1.195-.18087-.4888-.09044-.9052-.01809-1.394.01809-.1811 0-.3621 0-.5431-.03617-1.1044.05426-2.2269.07235-3.3313.01809-.5612.03618-1.1225.07235-1.7018 4.37709-.2535 8.89888.0362 12.78758.0905 8.6276.0724 17.2371.4888 25.8465.9957 8.6457.507 17.2732.2897 25.9189.7061 2.3332.1086 4.6846.1992 7.0178.2535 1.4108.8871 1.5012 2.4803 1.4651 3.983zm-28.5596 20.241c-14.7049.7061-30.1874.0543-44.51245 3.8563.07234 1.4484.14469 2.9148.21704 4.3632.03618.8328.1447 1.6113-.01809 2.426-.12661.688.03618 1.6114.41601 2.2269 4.34091 1.1406 8.77229 1.8467 13.27599 2.2812.0361 0 .0723.0181.1266.0181 2.8216.2897 5.6612.4526 8.519.5613 7.3615.2715 14.7772.1086 21.9759.1629 9.0074.0905 18.0148-.1086 27.0041-.4164.0904-.6156.1628-1.213.1989-1.8467.0181-.4164 0-.869-.3075-1.1587-.1989-.181-.5064-.2353-.7777-.2897-3.4908-.5069-6.9635-1.0319-10.4544-1.557-1.5012-.2172-3.0024-.4526-4.5037-.6698 4.6303.525 9.2968.1267 13.9452-.3621.4522-.0543.9225-.0905 1.3746-.1449.2714-.0181.5788-.0543.7778-.2534.217-.1992.2713-.5251.3075-.8147.1085-.9234.0723-1.9734.3798-2.8606.2713-.7966.2713-1.557.2894-2.3898.0543-1.394.0904-2.7881.1266-4.1822-9.4415.3078-18.9191.5975-28.3606 1.0501z" fill="url(#d)"/><g fill="#eb924d"><path d="m3.60031 58.0592c-.43409-.6156-.61496-1.5932-.47027-2.3174.16279-.7966.05426-1.5751.01809-2.426-.12661-2.245-.23513-4.5081-.36174-6.7531-.01809-.4345-.03618-.9233.23513-1.2673.21705-.2716.59688-.3621.94053-.4526 1.06714-.2716 2.13428-.5431 3.2376-.7061-.61496.4707-1.21184.8509-1.93533 1.213-.25321.1268-.52452.2535-.70539.4708-.19896.2172-.27131.5431-.34366.8328-.61496 2.8243-.27131 5.7754.05426 8.654.1447 1.1949.2894 2.4079.39792 3.6209-.416-.1991-.79583-.4888-1.06714-.869z"/><path d="m2.59051 40.2255c-.21705-1.3036-.30749-2.6433-.37983-3.9468-.07235-1.7381-.16279-3.9831.94053-5.4495.39791-.5251 1.10331-.6518 1.75445-.7242 3.07481-.3802 6.14964-.688 9.24254-.9234-2.9301.9777-6.27625.9958-9.11593 2.1907-.52453.2173-1.04906.4888-1.33845.9777-.19896.3258-.27131.706-.32557 1.0681-.18087 1.1587-.30748 2.2631-.23513 3.4399.05426.7423.10852 1.5027.18087 2.245.10852 1.2311.28939 2.4441.48835 3.6571-.07235-.0362-.16278-.0905-.23513-.1448-.83201-.5975-.81392-1.5027-.9767-2.3898z"/><path d="m62.582 55.4883c.1266.0543.2533.1086.3799.1629-.1266-.0181-.2533-.0724-.3799-.1629z"/><path d="m74.6292 58.7113c-.0724 1.8648-.5788 3.6572-.6331 5.5039-.0181.2534.0362.5069-.0181.7604-.1266.7785-.7054 1.5207-1.1395 2.1363-2.0257 2.8605-5.2995 4.6891-8.7903 4.9064-15.8082.9957-32.3941.9052-49.613-.0725-2.4779-.1448-4.88354-1.1043-6.78268-2.7156-1.13949-.9777-2.18855-2.2088-2.83968-3.5486-.2894-.6155-.36175-1.3216-.65114-1.9553-.05426-.1448-.10852-.2715-.16279-.4164-.09043-.4164-.05426-.869.30749-1.1587.37983-.3077.92244-.3259 1.41079-.344 5.48041-.181 10.94271-.525 16.42311-.6879-4.8112.2715-9.6043.9414-14.34309 1.7923-.65113.1087-1.35653.163-1.98958.344-.10853.0543-.21705.0543-.2894.1449-.12661.1267-.09043.3077-.07235.4707.07235.5612.37983 1.0319.72349 1.4846 1.10332 1.4483 2.27898 2.9691 3.88873 3.82 3.9068 2.064 7.886 1.7562 12.3173 1.6476.9044-.0182 1.7907 0 2.695-.163.4522-.0905.9948 0 1.447.0181 1.031.0362 2.0619.0543 3.111.0905 2.0619.0544 4.1419.1087 6.2039.1811 3.8706.1086 7.7413.2172 11.6119.3259 3.6898.1086 7.3796.181 11.0693-.1087 3.6355-.2896 7.2711-.9957 10.6353-2.4441.2713-.1267.5968-.2353.832-.4164.1808-.1267.3255-.2897.5064-.4164.5607-.3621 1.1033-.7242 1.5917-1.1768.3255-.3078.7958-.7061.9586-1.1406.0904-.2353.1447-.5069.2351-.7423.2352-.6699.3618-1.3759.416-2.082.0543-.7785.0181-1.5751-.0723-2.3536-.0362-.344.0181-.9958-.199-1.2854-.1085-.163-.3979-.3078-.5788-.3984-.4702-.2353-1.0128-.3439-1.5374-.4345-2.8035-.525-5.5708-1.3759-8.1753-2.5346 3.4908.525 6.9635 1.032 10.4543 1.557.2713.0543.5788.0905.7778.2897.2713.2353.2893.706.2713 1.1224z"/><path d="m2.88482 25.7969c-.14469-.5794-.14469-1.1768-.12661-1.7743.07235-2.8786.1447-5.7753.30749-8.654.14469-2.6433.09043-5.43138 1.17566-7.89362 1.77254-4.03733 5.80594-6.789243 10.20114-6.970289 16.4593-.669873 32.9909-.669873 49.613-.018105 5.3357.217256 9.9841 4.182174 10.997 9.450634.3075 1.61128.416 3.36748.1085 4.99688-.0723.4164-.1809.8147-.3256 1.1949-.0904.2173-.2351.6699-.434.8509-.3437-2.6433.3074-5.54-.6512-8.03844-.5607-1.50269-1.3746-2.98727-2.6588-3.98302-4.2505-3.24074-10.4905-3.02348-15.573-3.11401-14.0537-.25346-28.017-.68797-42.0164.57935-.6512.05432-1.2842-.18104-1.8992-.07241-1.3746.25346-2.73113 1.1949-3.74401 2.11824-1.39271 1.28543-2.45985 2.91485-3.11099 4.68911-.18087.52503-.34366 1.05008-.48835 1.57508-1.35654 5.2323-.77775 11.2611-.12661 16.5658-.59688-.1992-1.01288-.7604-1.21184-1.376-.01809-.0362-.01809-.0724-.03618-.1267z"/><path d="m75.9907 24.8552c0 2.0639-.0362 4.1278-.0362 6.1917-.0181.9777 0 1.9735-.0181 2.9692-.0362 4.7434-.0904 9.4687-.2713 14.2122-.0362.8328-.0181 1.6113-.2894 2.3898-.3075.869-.2894 1.9372-.3798 2.8605-.0362.2897-.0904.5975-.3075.8147-.1989.1992-.4883.2354-.7777.2535-.4522.0543-.9225.0905-1.3747.1448.2713-.181.4703-.4345.6331-.7423.217-.4526.2713-.9776.3075-1.4845.6692-8.3463.7054-16.7287.4702-25.0931-.0361-1.1044-.0723-2.2088-.1266-3.3131-.0181-.2535.0362-.4889.0181-.7423-.0362-.3259-.1989-.6337-.416-.9053-.4703-.5793-1.1937-.9414-1.881-1.1768-5.1006-1.7199-10.8162-.4707-15.971-2.0096h.615c4.9558.2897 9.8936.5794 14.8314.869 1.1938.0725 2.4418.163 3.4728.7604 1.4469.8872 1.5374 2.4985 1.5012 4.0012z"/></g><path d="m63.0932 55.7238c.4341.0724.8501.1267 1.2842.1991-.2352.8329-.5788 1.6114-1.0853 2.2631-2.0619 2.6614-5.9145 3.1502-8.9531 3.3132-5.1548.2896-10.3097.5974-15.4645.5793-5.5527-.0181-11.015-.5431-16.5497-.9414 1.664-.0543 3.3461-.0724 5.0101-.0724-.6149-.0906-1.2299-.1811-1.8449-.2354-2.8216-.344-5.6793-.4526-8.519-.5612-.0362 0-.0723-.0181-.0904-.0181h-.0724c-.217-.0544-.4522-.1268-.6873-.1992-.4703-.1448-.9586-.3078-1.3565-.5793-.9406-.6699-1.3204-1.9191-1.646-3.0597-.7234-2.6071-.4521-5.1961-.3074-7.8393.1627-2.8425.1627-5.6849.1085-8.5273-.0905-3.5667-.2532-7.1695-.3618-10.7361.5246-.0543 1.0672-.0905 1.5917-.1448 1.3204-.1087 2.6226-.1992 3.943-.2716.0362 4.6891.3075 9.3963.4884 14.0673.018.5069-.0543 1.0139 0 1.5027.0361.2897 0 .4707.1989.7061.2713.344 1.0672.688 1.5374.7785.5607.0905 1.1576.0362 1.7183.0362 1.2299 0 2.4779 0 3.7079.0181-1.2119.1991-2.4237.3259-3.6536.3802-.5246.0181-1.1576-.0724-1.646.0905-.4883.163-.9767.2354-1.465.3621-.1447.0362-.2894.0724-.3799.1811-.0904.0905-.1085.2172-.1447.3439-.0904.5251-.0361 1.0501.1086 1.557.1085.3983.2532.7423.217 1.1587-.0904.9777.0543 1.9734.199 2.9511.0542.3621.0723.688.2894.9958.4702.6517 1.3022 1.0138 2.0438 1.213 5.7336 1.5751 11.7386 1.6475 17.6892 1.7018 3.5089.0362 7.0178.0724 10.5267-.0362 2.3875-.0724 6.7465.3983 8.8085-1.0682.2894-.1991.5426-.4526.7415-.7423 1.3566.2354 2.6769.4345 4.0154.6337zm-44.9827-29.8546c.0181-.9957.1085-1.9915.1989-2.9872.0181-.163.0181-.3259 0-.4889-.0361-.3259-.0361-.5793.0362-.8871.1809-.688.5065-1.4122 1.1576-1.7743.4341-.2353.9586-.2534 1.4651-.2715 2.4598-.0724 4.9197-.0724 7.3795-.0181-1.9534-.1992-3.9068-.4164-5.8602-.6156-1.1033-.1086-2.2247-.2354-3.2919.0362.0362-.0181.1447-.2897.1809-.3259.0723-.1267.1628-.2534.2532-.3621.1628-.2172.3618-.4345.5788-.6155.3798-.3259.7235-.688 1.1214-.9958.8501-.6517 1.8268-1.1044 2.8216-1.4664.9405-.344 1.9172-.5794 2.8939-.8148.6693-.1629 1.3566-.1629 2.0439-.181 7.7051-.1267 15.4102-.1448 23.1153-.2173 1.2842-.0181 2.6046.4346 3.8526.7604.9224.2535 1.863.6518 2.4598 1.3941.5607.7061.8682 1.7199 1.031 2.8424 1.8268-.0543 3.6536-.1629 5.5166-.3259-.1628-2.1906-.5426-4.3089-2.08-5.9745-1.6821-1.8105-4.5399-2.1907-6.8551-2.3174-2.6045-.1448-5.2091-.2354-7.8136-.30777-2.0439-.03621-4.0696-.07242-6.0954-.07242-4.16 0-8.2477.14479-12.3716.36209-4.4494.2354-10.0926-1.26732-13.8909 1.7924-1.9172 1.5751-2.8397 3.4761-3.2014 5.9202-.2894 1.8648-.3075 3.7658-.3075 5.6486 0 1.6295.0362 3.277.0905 4.9607 1.8448.1267 3.6897.1992 5.5346.1992 0-.9596 0-1.9191.0362-2.8968zm47.6053 6.3004c-.0904-3.5666-.2713-7.1332-.5245-10.6998-.0362-.5613-.0724-1.1225-.1085-1.7018-1.8268-.1087-3.6717-.2173-5.5166-.3259.1809 1.9553.0181 4.1278.1085 5.5762.1447 2.245.3437 4.49.5245 6.7168.0905 1.0863.1809 2.1726.2352 3.2589.0181.344.0904.6336-.1086.9233-.3436.5069-1.0852.5975-1.6459.6337-3.0024.1991-6.0411.2715-8.9712.9776 3.726.1267 7.4519.0724 11.1598-.1991-.0724.3258-.1628.6698-.2352 1.0138-.0723.2897-.1808.5975-.1808.8872 0 .181.0723.362.0904.5431.0543.3078.0181.6518.0362.9595.0181 1.376 0 2.7519-.0181 4.1279-.0181 1.1587-.0543 2.3174-.0905 3.458-.018.1267-.018.2716-.018.3983-.0724 1.8829-.0905 4.671-1.3566 6.3547 1.8087.1811 3.6174.2354 5.4081.1992.3436-1.5027.4522-3.114.6149-4.5081.5969-4.8701.5246-9.8308.5607-14.7372.0181-1.2854.0181-2.5527.0181-3.8201.0362 0 .0181-.0181.0181-.0362z" fill="url(#e)"/><path d="m46.4133 61.6977c2.3694-.0362 4.7931-.0905 7.1444-.4345.4883-.0724 1.0129-.0543 1.5193-.0905 1.0672-.0724 2.1162-.181 3.1653-.3259.6873-.0905 1.3746-.1991 2.0438-.4345 2.0077-.688 3.5993-2.4984 4.0334-4.5805-1.1033-.0543-2.3513-.0543-3.4727-.1086.9224-.181 2.279.3078 2.695 1.1587-1.1938 1.0501-2.5322 1.9915-4.0515 2.4079-.814.2173-1.664.2897-2.4961.344-5.6974.4345-11.4129.8871-17.1104.7966-2.7492-.0362-5.4804-.2172-8.2296-.1086-.7959.0362-1.5917.0905-2.3694.1086-.4522.0181-.9044.0543-1.3566-.0181-.3075-.0362-.633-.0181-.9405-.0181-.6873 0-1.3565-.0181-2.0438-.0543-1.3566-.0543-2.7131-.1629-4.0697-.3078-1.465-.1629-2.9482-.3621-4.3951-.6155-.7054-.1268-1.447-.2716-1.9534-.7604-.3437-.3259-.5607-.7604-.7416-1.1768-.5969-1.376-.9948-2.8425-1.1938-4.3271-.5245 1.8286.0181 3.8382 1.23 5.3228 1.1395 1.3941 2.8939 2.1907 4.6484 2.5166 1.3203.2534 2.8035.3802 4.1238.2353.2894-.0362.5788 0 .8863.0181.6873.0362 1.3746.0724 2.0619.1087 1.3746.0724 2.7493.1267 4.1239.1629s2.7312.0543 4.1058.0724c.633 0 1.3203.0724 1.9534-.0181.6149-.0905 1.3023.0181 1.9353.0362 2.7492.0905 5.5166.163 8.2658.1268.1628-.0181.3256-.0181.4884-.0363z" fill="#eb924d"/><path d="m67.0507 20.3309s-2.2247-.0725-2.4237-.0725c-.832-.0362-1.6459-.0724-2.4779-.1267-.416-.0362-.832-.0543-1.2299-.0905-.199-.0181-.416-.0362-.615-.0543-.1266-.0181-.2532-.0362-.3617-.0362-.0543 0-.0905.0181-.1266.0181-.0724-.0181-.1628-.0362-.2352-.0543-.3255-.0906-.6511-.163-.9767-.2535 0-.0543-.0181-.0905-.0181-.1448 0-.0182.4522-.0182.4884-.0182.1266.0182.2713.0544.3979.0363.1085-.0181.199-.0363.3075-.0363h.5064c.6873 0 1.3747.0182 2.0439.0544.6873.0362 1.3746.0724 2.0438.1267.6873.0543 1.3747.1267 2.0439.1991.2351.0363.4883.0544.7235.0906.018.1629-.0905.1991-.0905.3621z" fill="#eb924d"/><path d="m18.8505 28.8027c-2.1704.2173-4.3409.5251-6.4933.9053-.1447-.1449-.1989-.3078-.1628-.4889 2.2609-.2715 4.359-.3077 6.6561-.4164z" fill="#eb924d"/><path d="m61.9033 33.283c.072 5.0713-.072 10.0694-.4138 15.0125-.072 1.1168-.144 2.2336-.2699 3.3503-.288 3.3687-3.113 6.0233-6.6038 6.2613-11.1563.7324-22.5464.6958-34.1525-.0183-3.5448-.2197-6.4059-2.9658-6.6218-6.3894 0-.0549-.018-.0916-.018-.1465-.4499-8.5864-.5218-17.3192-.2339-26.1803.018-.421.018-.8421.036-1.2632.0719-1.6843.1259-3.3687.2339-5.053.018-.4028.072-.7872.1619-1.1717 0-.0732.018-.1465.054-.2197.7378-2.8743 3.3649-4.998 6.5498-5.1628 11.1383-.5309 22.4025-.5309 33.8286.0183 3.5628.1648 6.4958 2.856 6.7658 6.2979.2699 3.2222.4498 6.4078.5578 9.5567.0899 1.721.1259 3.4053.1259 5.1079z" fill="#e58a4a"/><path d="m29.4784 40.7549c.0886.0221.1827.0277.2823.0166.1106-.0111.2213-.0222.332-.0332.0553 0 .1107.0055.166.0166.0553 0 .1107-.0056.166-.0166.1218-.0222.1826-.0277.1826-.0166h.0498c.0886-.0222.1384-.0388.1495-.0498.011-.0111.0276-.0166.0498-.0166.1328-.0111.1937-.0111.1826 0h.0332c.0885-.0111.1383-.0111.1494 0h.0498c.0443-.0111.0775-.0222.0996-.0332.0332-.0111.072-.0166.1162-.0166.1328.0221.2158.0276.249.0166.0333-.0111.0665-.0166.0997-.0166l.1826-.0332c.1549-.0111.2545-.0222.2988-.0332l.2324.0166c.1992.0221.3099.0387.3321.0498.0332.0221.0553.0553.0664.0996.0221.0332.0498.0609.083.083.0442.1549.0774.2877.0996.3984.0221.0886.0332.1826.0332.2823-.0222.177-.0332.2932-.0332.3486v.083c.011.0332.0166.0719.0166.1162-.0222.1439-.0332.2324-.0332.2656.011.0222.0166.0443.0166.0664-.0332.1107-.0443.1937-.0332.2491.011.0442.0166.083.0166.1162.011.0885.011.1715 0 .249-.0111.0664-.0166.1328-.0166.1992.011.1328.011.2158 0 .249v.083.1163c.011.0332.0055.0664-.0166.0996-.0775.1106-.1273.1715-.1494.1826-.0775.0332-.1273.0553-.1495.0664-.011.0111-.0276.0166-.0498.0166h-.2324c-.1328 0-.2158-.0055-.249-.0166-.0221 0-.0443 0-.0664 0-.0885-.0111-.1771-.0166-.2656-.0166-.0886 0-.1827 0-.2823 0-.0885-.0111-.1494-.0166-.1826-.0166-.0332.011-.0775.011-.1328 0-.0996-.0111-.1605-.0166-.1826-.0166-.0111.011-.0277.0166-.0498.0166-.1107 0-.2103-.0056-.2988-.0166-.0886 0-.1937-.0056-.3155-.0166-.0553-.0111-.1106-.0166-.166-.0166-.0553 0-.1107-.0056-.166-.0166-.0885 0-.1494 0-.1826 0-.0332-.0111-.0609-.0166-.083-.0166-.0554-.0222-.1328-.0277-.2324-.0166-.0886.011-.1716.011-.2491 0-.1771-.0111-.3486-.0111-.5146 0-.166 0-.3431-.0056-.5313-.0166-.0553.011-.094.0166-.1162.0166-.0221-.0111-.0498-.0111-.083 0-.0221-.0111-.0664-.0111-.1328 0-.0664.011-.1107.0221-.1328.0332-.0332 0-.0775 0-.1328 0-.0443.011-.0941.011-.1494 0-.0222 0-.0498 0-.083 0-.0222-.0111-.0554-.0111-.0997 0-.1328.011-.2268.0221-.2822.0332-.0443.011-.0941.011-.1494 0-.1328-.0111-.2214-.0111-.2656 0-.0332.011-.0664.0221-.0996.0332h-.2989l-.249.0166c-.0332 0-.0664 0-.0996 0-.0221.0111-.0498.0166-.083.0166-.0221 0-.0498-.0055-.083-.0166-.0332 0-.0664 0-.0996 0-.0443 0-.0775 0-.0996 0-.0222.0111-.0554.0111-.0996 0-.0443-.0111-.083-.0222-.1162-.0332-.0333-.0111-.072-.0222-.1163-.0332-.0664-.1107-.1051-.1882-.1162-.2324-.011-.0443-.0332-.0831-.0664-.1163l-.083-.1992c-.0885-.0996-.1439-.1826-.166-.249-.0553-.0996-.0885-.166-.0996-.1992-.0111-.0443-.0277-.083-.0498-.1162 0-.0554-.0111-.0941-.0332-.1162-.0222-.0332-.0443-.0664-.0664-.0996-.0111-.0997-.0166-.1495-.0166-.1495 0-.011-.0056-.0221-.0166-.0332l-.0996-.2656c-.0222-.0553-.0388-.0996-.0498-.1328-.0111-.0443-.0388-.0775-.083-.0996.011-.0775.0166-.1273.0166-.1494.011-.0222.0166-.0498.0166-.083.0221-.1107.0498-.1937.083-.2491.0442-.0553.083-.1051.1162-.1494.0996-.0774.1605-.1162.1826-.1162.0221-.0111.0443-.0221.0664-.0332.0553-.0443.0885-.0664.0996-.0664.0221-.0111.0443-.0277.0664-.0498.0775-.0664.1218-.0996.1328-.0996l.0498-.0498.2159-.1992c.0774-.0554.1217-.0886.1328-.0996.0221-.0222.0442-.0443.0664-.0664l.1992-.1661.1494-.1162c.0775-.0885.1217-.1328.1328-.1328.0996-.0996.1605-.1549.1826-.166.0886-.0775.1384-.1217.1494-.1328.0111-.0221.0277-.0387.0499-.0498.0885-.0664.1328-.0996.1328-.0996 0-.0111.0055-.0222.0166-.0332.1549-.1439.2601-.2435.3154-.2989.0553-.0664.1107-.1272.166-.1826l.1494-.1494c.0996-.0885.155-.1328.166-.1328.0111 0 .0222-.0111.0332-.0332.1107-.0885.1993-.166.2657-.2324.0442-.0443.0774-.0664.0996-.0664.0221-.0111.0442-.0222.0664-.0332l.1494-.1495c.0221-.0221.0443-.0442.0664-.0664.0221-.0221.0443-.0442.0664-.0664.0553-.0664.0996-.1106.1328-.1328l.0996-.0996c.0775-.0885.1273-.1383.1494-.1494.1107-.1328.1882-.2158.2325-.249.0442-.0443.0885-.0941.1328-.1494.0553-.0554.1051-.1162.1494-.1827.0553-.0664.1107-.1328.166-.1992.0664-.0553.1273-.1162.1826-.1826.0554-.0885.0941-.1383.1162-.1494.0222-.0111.0222-.0277 0-.0498.0554-.0221.0941-.0553.1162-.0996.0333-.0443.0665-.0886.0997-.1328.011-.0332.0276-.0664.0498-.0996.0221-.0332.0442-.0664.0664-.0996.0221-.0333.0387-.072.0498-.1163.011-.0442.0387-.0774.083-.0996 0-.0553.0055-.1051.0166-.1494.0221-.0443.0443-.0941.0664-.1494.0221-.0664.0332-.1162.0332-.1494 0-.0443 0-.0775 0-.0996 0-.1439-.0055-.2269-.0166-.249 0-.0332 0-.0664 0-.0997 0-.0996-.0055-.1494-.0166-.1494 0-.011 0-.0221 0-.0332-.0221-.0442-.0332-.083-.0332-.1162s-.0111-.0664-.0332-.0996c-.0222-.0221-.0609-.0553-.1162-.0996-.0443-.0553-.083-.0941-.1162-.1162-.0775-.0332-.1384-.0498-.1827-.0498-.0664-.0222-.1106-.0277-.1328-.0166-.0221 0-.0442 0-.0664 0-.0332 0-.0664 0-.0996 0-.0332-.0111-.0719-.0111-.1162 0-.0775.0221-.1328.0387-.166.0498s-.0609.0166-.083.0166c-.0554 0-.1218.0277-.1992.083-.1328.0885-.2103.1494-.2325.1826-.0221.0332-.0498.0554-.083.0664-.0442.0664-.083.1162-.1162.1494-.0332.0443-.0608.083-.083.1162-.0111.0222-.0221.0443-.0332.0665-.0553.1106-.0885.177-.0996.1992-.0111.011-.0221.0276-.0332.0498-.0332.1217-.0664.1992-.0996.2324-.0221.0332-.0387.0775-.0498.1328-.0111.0443-.0277.083-.0498.1162-.0332.0332-.0664.0775-.0996.1328-.0222.0554-.0443.1107-.0664.166-.0554.0997-.083.1605-.083.1827-.0997.0885-.1716.1494-.2159.1826-.177 0-.3043-.0111-.3818-.0332-.0664-.0222-.1107-.072-.1328-.1494-.0996-.0554-.1771-.0941-.2324-.1162-.1107-.0443-.1771-.072-.1993-.0831-.0221-.011-.0442-.0221-.0664-.0332-.0442-.0221-.0885-.0387-.1328-.0498-.0332-.0221-.0608-.0553-.083-.0996-.0553.0111-.0885.0056-.0996-.0166-.0111-.0332-.0387-.0553-.083-.0664-.0553-.0442-.1107-.0996-.166-.166-.0443-.0664-.1107-.1217-.1992-.166-.0554-.0443-.0886-.0664-.0996-.0664-.0111-.0111-.0277-.0277-.0498-.0498-.0443-.0332-.0775-.0554-.0997-.0664-.0221-.0222-.0442-.0443-.0664-.0664-.0996-.0554-.166-.0996-.1992-.1328-.0553-.0554-.1051-.0941-.1494-.1163-.1217-.1106-.1881-.1715-.1992-.1826-.0553-.0885-.0886-.1328-.0996-.1328-.0111-.0111-.0166-.0221-.0166-.0332-.0222-.0553-.0388-.0996-.0498-.1328 0-.0443.0055-.0775.0166-.0996.0553-.1328.0885-.2269.0996-.2822.0443-.1107.0664-.1716.0664-.1827 0-.0221.0055-.0387.0166-.0498.0553-.0774.083-.1217.083-.1328 0-.0221.0055-.0442.0166-.0664.0553-.0664.0885-.1107.0996-.1328.0221-.0332.0387-.0609.0498-.083.0664-.0996.0996-.1549.0996-.166.0111-.0221.0277-.0443.0498-.0664.0664-.1107.1107-.1716.1328-.1826.0332-.0775.0554-.1162.0664-.1162.0222-.0111.0277-.0277.0166-.0499.0665-.0774.1052-.1162.1163-.1162.0221-.011.0387-.0276.0498-.0498.0221-.0221.0442-.0442.0664-.0664.0332-.0332.0719-.0553.1162-.0664.0221-.0443.0498-.0719.083-.083s.0609-.0332.083-.0664c.0221-.0221.0443-.0443.0664-.0664.0332-.0221.0609-.0498.083-.083.0332-.0111.0609-.0221.083-.0332.0222-.0111.0498-.0277.083-.0498.0775-.0886.1494-.1439.2158-.166.0997-.0775.1605-.1218.1827-.1328.0221-.0111.0553-.0222.0996-.0332.1107-.0775.1771-.1163.1992-.1163.0332 0 .0609-.011.083-.0332.0775-.0442.1273-.0664.1494-.0664.0332 0 .0664-.011.0996-.0332.0996-.0442.1605-.0719.1826-.083.0222-.011.0443-.0221.0664-.0332.0333-.0111.0609-.0111.0831 0 .0332 0 .0664-.0055.0996-.0166.0221-.0111.0442-.0221.0664-.0332.0332-.0111.0719-.0166.1162-.0166.1107 0 .2047-.0166.2822-.0498s.1605-.0553.249-.0664c.0664.0111.1107.0111.1328 0 .0332-.0111.0609-.0166.0831-.0166h.2324c.0221-.0111.0442-.0277.0664-.0498.0775.0332.1605.0387.249.0166l.1992-.0166.1826.0332h.2325c.0442-.0111.083-.0111.1162 0 .0221 0 .0498.0111.083.0332.0332.0111.0664.0221.0996.0332.1107.0111.1771.0332.1992.0664.1328.0332.2158.0609.249.083.0332.0222.072.0222.1162 0 .0332.0443.072.072.1163.083.0442 0 .083.0111.1162.0332l.1826.1328c.1107.0332.166.0554.166.0664h.0166c.1107.0665.1771.0997.1992.0997.0996.0774.1605.1272.1826.1494.0664.0553.1162.094.1494.1162.0775.0443.1273.083.1495.1162l.0996.0996c.0221.0221.0498.0443.083.0664.0332.0111.0609.0277.083.0498.0443.0332.0775.0664.0996.0996.0221.0222.0443.0388.0664.0498.0443.0996.0996.1771.166.2324.0332.0665.0554.1052.0664.1163.0222 0 .0443.011.0664.0332.0111.0442.0498.1106.1162.1992.0443.0553.0831.1217.1163.1992.0332.0664.0664.1383.0996.2158.0442.0886.083.1494.1162.1826.0221.1107.0442.1937.0664.2491.0443.1438.0664.2379.0664.2822s.0055.0941.0166.1494c.0332.1439.0553.2324.0664.2656.0111.0222.0111.0498 0 .083.0553.0886.0719.1993.0498.3321s-.0166.2435.0166.332c-.0221.0885-.0387.1771-.0498.2656 0 .0775-.0166.1439-.0498.1992 0 .0996-.0055.1661-.0166.1993s-.0221.0664-.0332.0996c-.0221.1106-.0332.1771-.0332.1992-.0554.0885-.0886.1439-.0996.166 0 .0111-.0056.0221-.0166.0332l-.1162.166c0 .0664-.0111.1162-.0332.1494-.0222.0332-.0443.0775-.0664.1328-.0997.0554-.1495.0886-.1495.0997 0 0-.0055.0055-.0166.0166-.0442.0442-.0719.0774-.083.0996 0 .011-.011.0276-.0332.0498-.0664.0885-.1107.1383-.1328.1494-.0111 0-.0221.0111-.0332.0332-.0775.1107-.1273.1881-.1494.2324-.0885.0886-.1383.1384-.1494.1494 0 0-.0056 0-.0166 0-.0775.0886-.1439.1605-.1992.2158-.0886.0997-.1329.1495-.1329.1495.0111 0 .0111.0055 0 .0166-.0885.0774-.1494.1328-.1826.166-.0664.0664-.1106.1162-.1328.1494-.0221.0332-.0553.0609-.0996.083-.0996.0885-.1605.1439-.1826.166-.0111.0111-.0277.0277-.0498.0498-.0996.0886-.155.1439-.166.166-.0111.0222-.0277.0388-.0498.0498-.0664.1107-.1052.1661-.1162.1661-.0111 0-.0222.0055-.0332.0166-.0443.0664-.0997.1217-.1661.166-.0332.0332-.0608.0608-.083.083-.0221.0221-.0442.0443-.0664.0664-.0553.0553-.0996.0996-.1328.1328s-.0609.0719-.083.1162c-.0221.0221-.0443.0498-.0664.083-.0111.0222-.0332.0388-.0664.0498l-.1162.1494c-.0554.0332-.0941.0664-.1162.0996-.0222.0222-.0443.0443-.0664.0665-.0886.0885-.1384.1328-.1495.1328-.011.0332-.0332.0664-.0664.0996-.0221.0221-.0442.0498-.0664.083z" fill="#e58a4a"/><path d="m43.7154 49.3887c-.2812.1172-.5156.1758-.7031.1758-.1875.0234-.3984.0585-.6328.1054-.3281.0469-.5273.0586-.5977.0352-.0468-.0235-.0937-.0469-.1406-.0703-.3281.0468-.5976.0703-.8086.0703-.1875 0-.375 0-.5625 0-.3281-.0235-.539-.0352-.6328-.0352-.0703.0235-.1523.0352-.2461.0352-.0937 0-.1875-.0117-.2812-.0352-.0703-.0234-.1524-.0351-.2461-.0351-.1875.0468-.3282.0703-.4219.0703-.2109 0-.375-.0117-.4922-.0352-.375.0469-.6445.0352-.8086-.0351-.164-.0469-.3047-.0469-.4219 0-.0937-.0469-.2578-.0938-.4921-.1407-.0938-.2109-.1524-.3398-.1758-.3867-.1641-.2344-.2696-.375-.3164-.4219-.0469-.1171-.0703-.2109-.0703-.2812.0234-.0703.0234-.1289 0-.1758-.0938-.375-.1172-.6797-.0704-.914.0235-.2344.0586-.4454.1055-.6329.0234-.0937.0234-.164 0-.2109 0-.0469 0-.1289 0-.2461v-.4922c0-.164-.0117-.2578-.0351-.2812-.0235-.0469-.0352-.0938-.0352-.1407.0469-.375.0703-.6562.0703-.8437s.0117-.3633.0352-.5273c.0234-.0704.0234-.1407 0-.211 0-.0703 0-.1406 0-.2109.0234-.1172.0351-.2461.0351-.3867.0235-.1407.0235-.2813 0-.4219v-.8789c-.0234-.1406-.0351-.2227-.0351-.2461.0234-.0469.0351-.1055.0351-.1758 0-.0937-.0117-.1992-.0351-.3164 0-.1406 0-.2578 0-.3516v-.4922c0-.3281 0-.621 0-.8789.0234-.2578.0234-.5156 0-.7734 0-.1172 0-.2461 0-.3867s.0117-.2695.0351-.3867c.0235-.2344.0235-.4336 0-.5977 0-.2109 0-.4101 0-.5976 0-.211-.0117-.3868-.0351-.5274-.0703-.3281-.1055-.5156-.1055-.5625 0-.0937.0117-.1875.0352-.2812.0234-.0938.0351-.1875.0351-.2813v-.5625c-.0234-.1875-.0351-.3398-.0351-.457.0234-.1172.0117-.2344-.0352-.3516.0469-.0703.0703-.2344.0703-.4922 0-.3281 0-.6093 0-.8437 0-.2578.0117-.4688.0352-.6328-.0703-.0703-.1993-.1289-.3868-.1758-.3046-.1172-.5742-.1758-.8085-.1758-.211-.0234-.3985-.082-.5625-.1758-.1407-.0703-.2579-.164-.3516-.2812-.0938-.1172-.2227-.1875-.3867-.211-.0469-.0703-.1289-.1406-.2461-.2109-.0938-.0703-.1758-.1641-.2461-.2813-.0703-.1406-.1055-.2812-.1055-.4218-.0469-.0938-.082-.1758-.1055-.2461-.0234-.0938-.0234-.2227 0-.3867.0704-.211.1055-.3164.1055-.3164.0235 0 .0586-.0235.1055-.0704.0703-.1406.1172-.2226.1406-.2461.0469-.0468.0703-.0937.0703-.1406.1875-.1875.2813-.2812.2813-.2812 0-.0235.0117-.0469.0351-.0703l.3164-.3868c.0938-.164.1524-.2461.1758-.2461.0235-.0234.0352-.0585.0352-.1054.0937-.1172.1523-.211.1758-.2813.0468-.0703.0937-.1406.1406-.2109.0937-.1641.1406-.2695.1406-.3164.0234-.0469.0586-.1055.1055-.1758.1172-.1406.1758-.2227.1758-.2461 0-.0469.0117-.082.0351-.1055.1641-.3281.3047-.6328.4219-.914.0234-.0703.082-.1992.1758-.3867.1172-.1875.1992-.3282.2461-.4219.164-.1875.2461-.2813.2461-.2813 0-.0234.0117-.0468.0351-.0703.3281-.1172.5391-.1758.6328-.1758.1172-.0234.2461-.0468.3867-.0703.1875-.0468.3164-.0703.3868-.0703.1171-.0234.2109-.0234.2812 0h.1758c.2344 0 .3516.0117.3516.0352 0 .0234.0117.0351.0351.0351.0938-.0234.2344-.0117.4219.0352h.2461c.0937-.0235.1758-.0352.2461-.0352.0937 0 .164.0117.2109.0352h.2109c.211-.0235.3282-.0235.3516 0h.1055l.4219.0351c.2343.0235.4453.0118.6328-.0351.2343.0234.4101.0469.5273.0703.1172 0 .2227.0117.3164.0352.1641-.0235.2578-.0235.2813 0h.1054c.2578.0234.4571.0468.5977.0703.1406 0 .2344.0234.2812.0703.1641.2344.2579.3984.2813.4922.0234.0703.0586.1406.1055.2109.0468.1172.082.2109.1054.2813.0469.0703.0821.1289.1055.1757v.4922c-.0234.1172-.0469.2344-.0703.3516-.0235.0937-.0469.1992-.0703.3164 0 .2812-.0117.4336-.0352.457v.0703l.0352.3868c-.0703.3046-.1055.539-.1055.7031.0234.164.0234.3164 0 .457 0 .1172-.0117.2227-.0352.3164 0 .0938-.0117.1992-.0351.3164-.0703.4688-.1055.8789-.1055 1.2305-.0469.3281-.0703.5156-.0703.5625v.2461c.0234.0469.0469.1055.0703.1758-.0234.2812-.0351.4336-.0351.457.0234 0 .0351.0234.0351.0703-.0234.1172-.0351.2344-.0351.3516v.3515c.0234.1641.0234.293 0 .3868v.1757c0 .1875.0117.3282.0351.4219v.9844c.0235.164.0235.3281 0 .4922v.457.3164c.0235.0703.0235.1524 0 .2461v.4219c-.0234.2812-.0351.4219-.0351.4219 0 .164.0117.3164.0351.457.0235.1406.0352.293.0352.457 0 .1875-.0117.3867-.0352.5977-.0234.1875-.0234.375 0 .5625v.4922l.0352.4218c.0234.1875.0351.3985.0351.6328v.7032c0 .2109.0235.4336.0703.6679 0 .0938-.0117.1758-.0351.2461 0 .0703.0117.1407.0351.211v.3867c.0235.2812.0469.457.0704.5273.0234.0469.0468.0938.0703.1407.0234.1406.0234.2812 0 .4218-.0235.1407-.0235.2813 0 .4219l.0351.4922c0 .0703.0117.1523.0352.2461.0234.0703.0351.1289.0351.1758v.2461c0 .0703.0118.1523.0352.2461v.2109c.0234.0703.0352.1641.0352.2812v.3868c.0234.1875.0234.2929 0 .3164v.0703c.0937.3281.1289.5742.1054.7383 0 .1406.0117.2695.0352.3867.0234.0937.0351.1758.0351.2461.0235.0703.0469.1523.0703.2461 0 .1406-.0117.2929-.0351.457 0 .1406-.0234.2813-.0703.4219z" fill="#693821"/></svg>