<svg fill="none" height="76" viewBox="0 0 74 76" width="74" xmlns="http://www.w3.org/2000/svg" xmlns:xlink="http://www.w3.org/1999/xlink"><linearGradient id="a"><stop offset="0" stop-color="#cf5c2b"/><stop offset="1" stop-color="#59173e"/></linearGradient><linearGradient id="b" gradientUnits="userSpaceOnUse" x1="71.3048" x2="50.7246" xlink:href="#a" y1="-37.1931" y2="9.11782"/><linearGradient id="c" gradientUnits="userSpaceOnUse" x1="62.4643" x2="-10.3448" xlink:href="#a" y1="-20.7789" y2="149.376"/><linearGradient id="d" gradientUnits="userSpaceOnUse" x1="54.309" x2="-18.4996" xlink:href="#a" y1=".167049" y2="170.32"/><linearGradient id="e" gradientUnits="userSpaceOnUse" x1="40.2509" x2="38.0125" xlink:href="#a" y1="106.123" y2="35.2416"/><path d="m73.2471 10.8655c-.4226-5.67797-5.1248-10.119298-10.8661-10.345719-16.167-.627011-32.2812-.644428-48.3073 0-1.1624.034834-2.3247.261255-3.4166.661849-.546.19158-1.07429.418-1.5674.69668-2.50078 1.35852-4.19145 3.6924-5.49468 6.13078-1.37367 2.54291-2.782561 5.36441-2.958672 8.29051-.140889 2.3687-.264167 4.7548-.352223 7.1235-.017611.2613-.017611.5051.017611.749.017611.1393.035222.2786.017611.418-.052833.7663-.017611 1.4456.387445 2.1248.246557.4006.563558.749.968618.9754-.03523-.0174-.36984.2961-.42267.3309-.14089.1219-.264169.2613-.369836.4006-.228945.2961-.422668.6096-.545946.9579-.140889.3484-.228945.7141-.2465559 1.0799-.1232781 1.4804-.08805577 2.9609-.0704446 4.4413.0176111 1.2889-.1056669 2.6474.1056665 3.9188.052834.3135 0 .6445.070445.958.140889.7141.475501 1.3759.810111 2.0203-.563555.5922-.810111 1.4108-.845333 2.2294-.035223.9405.140889 1.8636.088055 2.8042-.1761111 2.5428-.017611 5.1554.14089 7.6808.017611.2961.070444.5922.123278.8709.1585.7141.176111 1.463.58117 2.09.17611.2787.40505.5225.68683.7141-.26416-.0348-.4755.2439-.59878.4703-.792498 1.4979-.792498 2.6648-.475498 4.2672.316998 1.672.228945 3.2569.845338 4.8941.51072 1.3585 1.28561 2.6126 2.25423 3.675 2.00767 2.212 4.86067 3.5705 7.85454 3.7447 17.03.9579 33.426 1.045 49.0647.0696.0704 0 .1409-.0174.2113-.0174 1.902-.1567 3.7512-.7663 5.3538-1.7939 1.5674-.9928 2.8706-2.3687 3.7864-3.9711 1.0567-1.8462 1.5498-4.0233 2.0957-6.0611.3347-1.254.8454-2.8564.7045-4.1975-.0881-.7664.1409-1.5153.1057-2.2816-.0353-.8709-.2642-1.7243-.6693-2.4907-.0528-.0871-.1056-.1916-.1056-.2961-.0176-.2438.2465-.418.4402-.5747.4579-.3484.7573-.8883.8454-1.4456.0176-.1394.0352-.2787.0176-.418-.0528-.2439-.0352-.4355-.0176-.6967.088-1.7591.1585-3.5182.2289-5.2774.0705-1.9333.1409-3.8665.1761-5.7824.0529-1.8985.0705-3.8143.0881-5.7128.0176-1.881.0176-3.762 0-5.6257 0-.9231-.0176-1.8636-.0352-2.7867 0-.4702-.0176-.9231-.0352-1.3933-.0177-.4355-.0881-.9231-.0353-1.3586.0176-.1567.0705-.2786.0353-.4354-.0177-.1916-.0705-.3658-.1233-.5573-.1057-.3658-.2642-.7141-.4579-1.0451-.1937-.3309-.4227-.627-.7045-.9056-.0704-.0697-.8101-.749-.8805-.6793.2289-.209.4227-.4354.5988-.6793.4578-.6444.722-1.3933.8981-2.1597.0881-.3831.1409-.7837.1937-1.1843.0177-.0697.0529-.1394.0529-.2264.0528-.2787-.0176-.6096-.0352-.8883-.0529-1.1495-.1233-2.3339-.2114-3.5008z" fill="url(#b)"/><path d="m73.9889 23.9114c0 1.9855-.0352 3.971-.0352 5.9566-.0177.9405 0 1.8984-.0177 2.8564 0 .5225-.0176 1.0276-.0176 1.5327-.0352 2.6996-.0704 5.3992-.1409 8.0989-.0352 1.3411-.0704 2.6822-.1232 4.0233-.0353.8012-.0176 1.5501-.2818 2.299-.2994.836-.2818 1.8636-.3698 2.7519-.0353.2787-.0881.5748-.2994.7838-.1938.1916-.4755.2264-.7573.2438-.4403.0523-.8982.0871-1.3385.1394-2.5888.2612-5.1953.505-7.7841.5747-1.9196.0348-3.8568-.0174-5.7765-.2264 1.4618.209 2.9235.4354 4.3852.6444.4227.0697.8277.1219 1.2504.1916 2.9763.4354 5.9526.8709 8.9289 1.3063.2641.0522.5635.0871.7573.2787.2993.2612.3169.7141.2993 1.1146-.0352.5922-.088 1.1844-.1937 1.7766-.1585 1.1669-.3874 2.3339-.4403 3.5182-.0176.2438.0353.4877-.0176.7315-.1232.7489-.6868 1.463-1.1095 2.0552-1.9724 2.7519-5.16 4.511-8.559 4.72-15.3921.958-31.5416.8709-48.3074-.0696-2.4127-.1394-4.755-1.0625-6.60417-2.6126-1.10951-.9231-2.13095-2.1074-2.76495-3.4137-.28178-.5922-.35223-1.2715-.63401-1.8811-.05283-.1393-.10566-.2612-.1585-.4005-.08805-.4006-.05283-.8361.29939-1.1147.36984-.2961.89817-.3135 1.37367-.331 5.33617-.1741 10.65477-.505 15.99097-.6618h.1585c1.6202-.0522 3.258-.0697 4.8783-.0697-.5988-.087-1.1976-.1741-1.7964-.2264-2.7473-.3309-5.5299-.4354-8.2948-.5399-.0353 0-.0705-.0174-.0881-.0174h-.0352c-3.3461-.1219-6.67464-.2613-9.96793-.7664-.634-.1045-1.28562-.2264-1.84917-.4877-.42267-.1915-.7925-.4528-1.05667-.836-.01761-.0348-.03522-.0696-.05283-.0871-.38745-.5921-.52834-1.4804-.40506-2.1422.1585-.7664.05283-1.5153.01761-2.3339-.07044-1.3934-.1585-2.8042-.21133-4.1975-.05284-.7664-.08806-1.5327-.12328-2.2991-.01761-.418-.03522-.8882.22894-1.2192.21134-.2612.58117-.3483.91578-.4354 1.03906-.2612 2.07812-.5225 3.1524-.6792.4755-.0871.951-.1394 1.4265-.1742-1.23278-.2613-2.44795-.5399-3.68073-.8012-.36983-.0871-.73967-.1742-1.07428-.3483-.07044-.0349-.1585-.0871-.22894-.1394-.59878-.4354-.75728-1.0276-.84534-1.6546-.03522-.209-.05283-.4354-.08805-.6444-.08806-.5051-.15851-.9928-.19373-1.4979-.08805-.7663-.12328-1.5327-.1585-2.299-.07044-1.672-.1585-3.8317.91578-5.2425.38745-.5051 1.07428-.627 1.70828-.6967 2.48318-.2961 4.96635-.5573 7.44955-.7664.5107-.0522 1.039-.087 1.5498-.1393 2.5183-.1916 5.0191-.3657 7.5551-.4702-3.0291.1393-6.0758.1045-9.1049-.1045-1.902-.122-3.80404-.3136-5.70604-.5574-.7925-.1045-1.62023-.2264-2.32467-.5922-.01762-.0174-.03523-.0174-.05284-.0348-.19372-.0871-.36983-.1916-.54594-.3309-.38745-.2961-.66923-.6967-.82773-1.1495-.17611-.4703-.08805-.8709-.01761-1.3412.01761-.1741 0-.3483 0-.5225-.03522-1.0624.05283-2.1423.07045-3.2047.01761-.5399.03522-1.0798.07044-1.6372.07045-2.3687.19372-4.7374.33461-7.1061.35223-5.74762 5.0544-10.293458 10.86613-10.519879 16.0261-.644429 32.1227-.644429 48.3073-.017417 5.1953.209004 9.7214 4.023326 10.7076 9.091666.2994 1.55013.4051 3.23953.1057 4.80713-.0704.4006-.1761.7837-.317 1.1495-.0881.209-.2289.6444-.4227.8186-.0176.0174-.0352.0348-.0352.0348-.1409.0871-.3346.1045-.4755.1393-.951.2265-1.902.4181-2.853.5922-1.902.331-3.8216.5748-5.7412.749-.0176 0-.0176 0-.0176 0-3.8745.3309-7.7842.4005-11.6586.4702h-.1057c1.0567.0697 2.131.1219 3.1876.1916 2.8883.1568 5.7765.3309 8.6647.5051 1.9196.1045 3.8569.209 5.7765.3309 1.1623.0697 2.3775.1568 3.3813.7315.0176 0 .0176.0174.0176.0174 1.3032.8361 1.3737 2.3688 1.3561 3.8144z" fill="url(#c)"/><path d="m73.984 23.9102c0 1.9855-.0352 3.9711-.0352 5.9566-.0176.9405 0 1.8984-.0176 2.8564 0 .5225-.0176 1.0276-.0176 1.5327-7.4143.4877-14.8462 1.1147-22.2781 1.5675-8.6647.5225-17.3294 1.0973-25.9765 1.6546-4.667.2961-9.2987.6444-13.948 1.167-3.11721.3483-6.07588.8534-9.105.6792-.03523-.209-.05284-.4354-.08806-.6444-.08805-.5051-.1585-.9928-.19372-1.4979 3.06434-.6444 6.14629-.5399 9.40438-.6444 4.3675-.1393 8.6647-.4528 13.0146-.836 8.6647-.8012 17.3294-1.6372 25.9941-2.6126 5.1601-.5921 10.3201-1.1147 15.4978-1.6894-.1937 0-.3522-.0174-.5283-.0174-8.471-.4529-16.8011-2.003-25.2368-2.7519-8.3829-.7315-16.7658-1.376-25.1664-1.881-3.3989-.209-7.29098-.1394-11.13021-.4181-.01761-.0174-.03522-.0174-.05283-.0348-.19373-.0871-.36984-.1916-.54595-.3309-.38744-.2961-.66922-.6967-.82772-1.1495-.17612-.4703-.08806-.8709-.01761-1.3411.01761-.1742 0-.3484 0-.5225-.03523-1.0625.05283-2.1423.07044-3.2048.01761-.5399.03522-1.0798.07044-1.6372 4.2619-.2438 8.66474.0349 12.45114.0871 8.4005.0697 16.7834.4703 25.1663.9579 8.4181.4877 16.8186.2787 25.2368.6793 2.2718.1045 4.5613.1916 6.8331.2438 1.3737.8535 1.4617 2.3862 1.4265 3.8318zm-27.808 19.4722c-14.3179.6792-29.393.0522-43.34106 3.7098.07045 1.3934.14089 2.8041.21134 4.1975.03522.8012.14089 1.5501-.01762 2.3339-.12327.6618.03523 1.5501.40506 2.1423 4.22668 1.0972 8.54138 1.7765 12.92658 2.1945.0352 0 .0705.0174.1233.0174 2.7473.2787 5.5123.4354 8.2948.5399 7.1678.2613 14.3884.1045 21.3976.1568 8.7704.0871 17.5407-.1045 26.2935-.4006.088-.5922.1585-1.1669.1937-1.7765.0176-.4006 0-.836-.2994-1.1147-.1937-.1742-.4931-.2264-.7573-.2787-3.3989-.4877-6.7803-.9928-10.1792-1.4979-1.4618-.209-2.9235-.4354-4.3852-.6444 4.5084.5051 9.0521.1219 13.5782-.3483.4403-.0523.8982-.0871 1.3384-.1394.2642-.0174.5636-.0522.7573-.2438.2113-.1916.2642-.5051.2994-.7838.1057-.8882.0704-1.8984.3698-2.7518.2642-.7664.2642-1.4979.2818-2.2991.0528-1.3411.0881-2.6822.1233-4.0233-9.193.2961-18.4213.5748-27.6143 1.0102z" fill="url(#d)"/><g fill="#eb924d"><path d="m3.50834 55.8546c-.42267-.5922-.59878-1.5327-.45789-2.2294.1585-.7663.05283-1.5153.01761-2.3338-.12328-2.1598-.22895-4.3369-.35222-6.4966-.01761-.418-.03523-.8883.22894-1.2192.21134-.2612.58117-.3483.91578-.4354 1.03906-.2613 2.07812-.5225 3.1524-.6793-.59878.4529-1.17995.8186-1.88439 1.167-.24656.1219-.51073.2438-.68684.4528-.19372.209-.26417.5225-.33461.8012-.59878 2.717-.26417 5.556.05283 8.3253.14089 1.1495.28178 2.3165.38745 3.4834-.40506-.1916-.77489-.4702-1.03906-.836z"/><path d="m2.52089 38.6966c-.21133-1.254-.29938-2.5428-.36983-3.7969-.07044-1.672-.1585-3.8317.91578-5.2425.38745-.5051 1.07428-.627 1.70828-.6967 2.9939-.3657 5.98778-.6618 8.99928-.8882-2.853.9405-6.11105.9579-8.876 2.1074-.51072.209-1.02145.4703-1.30322.9405-.19373.3135-.26417.6793-.31701 1.0276-.17611 1.1147-.29939 2.1772-.22894 3.3093.05283.7141.10567 1.4456.17611 2.1597.10567 1.1843.28178 2.3513.4755 3.5182-.07044-.0348-.1585-.0871-.22894-.1393-.81012-.5748-.7925-1.4456-.95101-2.2991z"/><path d="m60.9375 53.3809c.1233.0522.2466.1045.3698.1567-.1232-.0174-.2465-.0697-.3698-.1567z"/><path d="m72.6639 56.4814c-.0704 1.7939-.5636 3.5182-.6164 5.2947-.0176.2439.0352.4877-.0176.7316-.1233.7489-.6868 1.463-1.1095 2.0552-1.9724 2.7518-5.1601 4.511-8.559 4.72-15.3922.9579-31.5416.8708-48.3074-.0697-2.4127-.1393-4.75503-1.0624-6.6042-2.6126-1.10951-.9405-2.13095-2.1248-2.76495-3.4137-.28178-.5922-.35223-1.2714-.63401-1.881-.05283-.1393-.10566-.2613-.1585-.4006-.08805-.4006-.05283-.836.29939-1.1147.36984-.2961.89817-.3135 1.37367-.3309 5.3362-.1742 10.6548-.5051 15.9909-.6619-4.6845.2613-9.3515.9057-13.96561 1.7243-.63401.1045-1.32084.1568-1.93723.3309-.10567.0523-.21133.0523-.28178.1394-.12328.1219-.08806.2961-.07044.4528.07044.5399.36983.9928.70444 1.4282 1.07428 1.3934 2.21901 2.8564 3.7864 3.675 3.80402 1.9855 7.67842 1.6894 11.99322 1.5849.8805-.0174 1.7435 0 2.624-.1567.4403-.0871.9687 0 1.4089.0174 1.0039.0348 2.0077.0523 3.0291.0871 2.0077.0522 4.033.1045 6.0407.1742 3.7688.1045 7.5375.209 11.3063.3135 3.5927.1045 7.1854.1741 10.7781-.1045 3.5398-.2787 7.0796-.958 10.3553-2.3513.2642-.1219.5812-.2265.8101-.4006.1761-.1219.317-.2787.4932-.4006.5459-.3483 1.0742-.6967 1.5497-1.1321.317-.2961.7749-.6793.9334-1.0973.0881-.2264.1409-.4877.229-.7141.2289-.6444.3522-1.3237.405-2.0029.0529-.749.0176-1.5153-.0704-2.2642-.0352-.331.0176-.958-.1937-1.2366-.1057-.1568-.3875-.2961-.5636-.3832-.4579-.2264-.9862-.3309-1.497-.418-2.7297-.5051-5.4242-1.3237-7.9602-2.4384 3.399.5051 6.7803.9928 10.1793 1.4979.2641.0522.5635.087.7572.2786.2642.2265.2818.6793.2642 1.0799z"/><path d="m2.80706 24.8171c-.14089-.5574-.14089-1.1322-.12328-1.7069.07044-2.7693.14089-5.556.29939-8.3253.14089-2.5429.08806-5.22513 1.14472-7.59384 1.7259-3.88399 5.65319-6.531369 9.93271-6.705539 16.0261-.644429 32.1227-.644429 48.3074-.017417 5.1953.209004 9.7213 4.023326 10.7076 9.091666.2994 1.55013.405 3.23953.1056 4.80713-.0704.4005-.1761.7837-.317 1.1495-.088.209-.2289.6444-.4226.8186-.3346-2.5429.2994-5.3296-.634-7.73316-.546-1.44561-1.3385-2.87381-2.5889-3.83174-4.1386-3.11764-10.2144-2.90864-15.1632-2.99572-13.6838-.24384-27.2797-.66185-40.9107.55734-.634.05225-1.2504-.17417-1.8492-.06967-1.33841.24384-2.65925 1.14952-3.64547 2.03779-1.35606 1.23661-2.39512 2.80414-3.02912 4.511-.17611.50509-.33462 1.01019-.4755 1.51526-1.32084 5.0335-.75728 10.8334-.12328 15.9366-.58117-.1916-.98623-.7316-1.17995-1.3237-.01761-.0349-.01761-.0697-.03522-.1219z"/><path d="m73.9885 23.9108c0 1.9856-.0353 3.9711-.0353 5.9566-.0176.9405 0 1.8985-.0176 2.8564-.0352 4.5633-.088 9.1091-.2641 13.6724-.0353.8011-.0177 1.5501-.2818 2.299-.2994.836-.2818 1.8636-.3699 2.7519-.0352.2786-.088.5747-.2993.7837-.1938.1916-.4755.2265-.7573.2439-.4403.0522-.8982.0871-1.3385.1393.2642-.1742.4579-.418.6164-.7141.2114-.4354.2642-.9405.2994-1.4282.6516-8.0292.6869-16.0933.4579-24.1399-.0352-1.0625-.0704-2.1249-.1233-3.1873-.0176-.2439.0352-.4703.0176-.7141-.0352-.3135-.1937-.6096-.405-.8709-.4579-.5573-1.1624-.9057-1.8316-1.1321-4.9663-1.6546-10.5315-.4528-15.5506-1.9333h.5987c4.8255.2787 9.6333.5574 14.4412.8361 1.1623.0696 2.3775.1567 3.3813.7315 1.4089.8534 1.497 2.4035 1.4618 3.8491z"/></g><path d="m61.4323 53.6076c.4227.0697.8277.1219 1.2504.1916-.2289.8012-.5635 1.5501-1.0567 2.1771-2.0076 2.5603-5.7588 3.0306-8.7175 3.1873-5.0192.2787-10.0383.5748-15.0575.5574-5.4066-.0174-10.7252-.5225-16.1142-.9057 1.6202-.0522 3.258-.0697 4.8783-.0697-.5988-.0871-1.1976-.1741-1.7964-.2264-2.7473-.3309-5.5299-.4354-8.2948-.5399-.0352 0-.0705-.0174-.0881-.0174h-.0704c-.2114-.0523-.4403-.1219-.6692-.1916-.4579-.1394-.9334-.2961-1.3209-.5574-.9158-.6444-1.2856-1.8462-1.6026-2.9434-.7044-2.5081-.4403-4.9987-.2994-7.5416.1585-2.7345.1585-5.4689.1057-8.2034-.0881-3.4311-.2466-6.8971-.3522-10.3283.5107-.0522 1.039-.087 1.5497-.1393 1.2857-.1045 2.5537-.1916 3.8393-.2613.0352 4.511.2994 9.0395.4755 13.533.0176.4877-.0529.9754 0 1.4457.0352.2786 0 .4528.1937.6792.2642.3309 1.0391.6619 1.4969.7489.546.0871 1.1272.0349 1.6731.0349 1.1976 0 2.4127 0 3.6103.0174-1.18.1916-2.3599.3135-3.5575.3658-.5107.0174-1.1271-.0697-1.6026.087-.4755.1568-.951.2265-1.4265.3484-.1409.0348-.2818.0696-.3698.1742-.0881.087-.1057.209-.1409.3309-.0881.5051-.0352 1.0102.1057 1.4978.1056.3832.2465.7141.2113 1.1147-.0881.9405.0528 1.8985.1937 2.839.0529.3483.0705.6618.2818.9579.4579.627 1.268.9754 1.9901 1.167 5.5827 1.5152 11.4296 1.5849 17.2237 1.6372 3.4165.0348 6.8331.0696 10.2497-.0349 2.3246-.0696 6.5689.3832 8.5766-1.0276.2818-.1916.5283-.4354.722-.7141 1.3209.2264 2.6065.418 3.9097.6096zm-43.7989-28.7206c.0176-.9579.1057-1.9159.1937-2.8738.0176-.1567.0176-.3135 0-.4702-.0352-.3136-.0352-.5574.0352-.8535.1761-.6618.4931-1.3585 1.1271-1.7068.4227-.2265.9334-.2439 1.4265-.2613 2.3952-.0697 4.7903-.0697 7.1854-.0174-1.902-.1916-3.804-.4006-5.706-.5922-1.0743-.1045-2.1662-.2264-3.2052.0348.0352-.0174.1408-.2786.1761-.3135.0704-.1219.1585-.2438.2465-.3483.1585-.209.3522-.418.5636-.5922.3698-.3135.7044-.6618 1.0919-.9579.8277-.627 1.7787-1.0625 2.7473-1.4108.9158-.3309 1.8668-.5573 2.8178-.7838.6516-.1567 1.3208-.1567 1.9901-.1741 7.5023-.1219 15.0047-.1394 22.507-.209 1.2504-.0175 2.536.418 3.7512.7315.8982.2438 1.8139.627 2.3951 1.3411.5459.6793.8453 1.6546 1.0038 2.7345 1.7788-.0523 3.5575-.1568 5.3714-.3136-.1585-2.1074-.5283-4.1452-2.0253-5.7476-1.6378-1.7417-4.4203-2.10741-6.6746-2.22933-2.536-.13934-5.072-.22642-7.608-.29609-1.9901-.03483-3.9625-.06967-5.935-.06967-4.0505 0-8.0306.13934-12.046.34834-4.3323.22645-9.827-1.21919-13.5253 1.72425-1.8668 1.5153-2.765 3.3441-3.1172 5.6954-.2818 1.7939-.2994 3.6227-.2994 5.4341 0 1.5675.0352 3.1525.088 4.7722 1.7964.122 3.5927.1916 5.3891.1916 0-.9231 0-1.8462.0352-2.7867zm46.3525 6.0611c-.088-3.4311-.2641-6.8623-.5107-10.2934-.0352-.5399-.0704-1.0799-.1057-1.6372-1.7787-.1045-3.575-.209-5.3714-.3135.1762 1.881.0177 3.9711.1057 5.3644.1409 2.1597.3346 4.3194.5107 6.4617.0881 1.045.1761 2.0901.229 3.1351.0176.3309.088.6096-.1057.8882-.3346.4877-1.0567.5748-1.6026.6096-2.9235.1916-5.8821.2613-8.7351.9405 3.6279.122 7.2558.0697 10.866-.1915-.0704.3135-.1585.6444-.2289.9753-.0704.2787-.1761.5748-.1761.8534 0 .1742.0704.3484.088.5226.0529.296.0177.627.0353.9231.0176 1.3236 0 2.6473-.0176 3.971-.0177 1.1147-.0529 2.2294-.0881 3.3267-.0176.1219-.0176.2612-.0176.3831-.0705 1.8114-.0881 4.4936-1.3209 6.1134 1.7612.1742 3.5223.2264 5.2658.1916.3346-1.4456.4403-2.9957.5988-4.3368.5811-4.6852.5107-9.4575.5459-14.1775.0176-1.2366.0176-2.4558.0176-3.6749.0352 0 .0176-.0175.0176-.0349z" fill="url(#e)"/><path d="m45.1937 59.3536c2.3071-.0348 4.667-.0871 6.9564-.418.4755-.0696.9863-.0522 1.4794-.0871 1.039-.0696 2.0605-.1741 3.0819-.3135.6692-.0871 1.3385-.1916 1.9901-.418 1.9548-.6618 3.5046-2.4035 3.9273-4.4065-1.0743-.0522-2.2895-.0522-3.3814-.1045.8982-.1741 2.219.2961 2.6241 1.1147-1.1623 1.0102-2.4656 1.9159-3.9449 2.3165-.7925.209-1.6202.2786-2.4303.3309-5.5476.418-11.1127.8534-16.6602.7663-2.6769-.0348-5.3362-.209-8.0131-.1045-.7749.0349-1.5498.0871-2.307.1045-.4403.0175-.8806.0523-1.3209-.0174-.2994-.0348-.6164-.0174-.9158-.0174-.6692 0-1.3208-.0174-1.99-.0522-1.3209-.0523-2.6417-.1568-3.9625-.2961-1.4265-.1568-2.8706-.3484-4.2795-.5922-.6869-.1219-1.4089-.2613-1.902-.7315-.3347-.3135-.546-.7315-.7221-1.1321-.5812-1.3237-.9686-2.7345-1.1623-4.1627-.5108 1.7591.0176 3.6924 1.1975 5.1206 1.1095 1.3411 2.8178 2.1075 4.5261 2.421 1.2856.2438 2.7297.3657 4.0153.2264.2818-.0348.5636 0 .863.0174.6692.0348 1.3384.0697 2.0077.1045 1.3384.0697 2.6768.1219 4.0153.1568 1.3384.0348 2.6593.0522 3.9977.0696.6164 0 1.2856.0697 1.902-.0174.5988-.0871 1.268.0174 1.8844.0348 2.6769.0871 5.3714.1568 8.0483.122.1585-.0174.317-.0174.4755-.0349z" fill="#eb924d"/><path d="m65.285 19.559s-2.1662-.0697-2.3599-.0697c-.8101-.0348-1.6026-.0696-2.4127-.1219-.4051-.0348-.8101-.0522-1.1976-.0871-.1937-.0174-.405-.0348-.5988-.0522-.1232-.0174-.2465-.0349-.3522-.0349-.0528 0-.088.0175-.1233.0175-.0704-.0175-.1585-.0349-.2289-.0523-.317-.0871-.634-.1567-.951-.2438 0-.0523-.0176-.0871-.0176-.1394 0-.0174.4402-.0174.4755-.0174.1232.0174.2641.0523.3874.0348.1057-.0174.1937-.0348.2994-.0348h.4931c.6692 0 1.3385.0174 1.9901.0523.6692.0348 1.3384.0696 1.99.1219.6693.0522 1.3385.1219 1.9901.1916.229.0348.4755.0522.7045.0871.0176.1567-.0881.1915-.0881.3483z" fill="#eb924d"/><path d="m18.3548 27.709c-2.1134.209-4.2267.5051-6.3225.8708-.1408-.1393-.1937-.2961-.1585-.4702 2.2014-.2613 4.2443-.2961 6.481-.4006z" fill="#eb924d"/><path d="m60.2719 32.018c.0701 4.8786-.07 9.6868-.4029 14.4422-.0701 1.0744-.1402 2.1487-.2628 3.2231-.2804 3.2407-3.0311 5.7945-6.43 6.0235-10.8627.7045-21.9531.6693-33.2538-.0176-3.4515-.2114-6.2373-2.8533-6.4475-6.1468 0-.0528-.0175-.0881-.0175-.1409-.4381-8.2603-.5081-16.6614-.2278-25.1859.0175-.4051.0175-.8102.035-1.2152.0701-1.6204.1227-3.2407.2278-4.8611.0175-.3875.0701-.7573.1577-1.1272 0-.0704.0175-.1409.0525-.2113.7184-2.7652 3.2764-4.8083 6.3775-4.9668 10.8451-.5107 21.8129-.5107 32.9384.0176 3.469.1585 6.3248 2.7476 6.5877 6.0587.2628 3.0998.438 6.1644.5431 9.1938.0876 1.6555.1226 3.2759.1226 4.9139z" fill="#e58a4a"/><path d="m28.7169 39.7354c.0885.0221.1826.0276.2822.0166.1107-.0111.2214-.0222.332-.0332.0554 0 .1107.0055.166.0166.0554 0 .1107-.0056.1661-.0166.1217-.0222.1826-.0277.1826-.0167h.0498c.0885-.0221.1383-.0387.1494-.0498.0111-.011.0277-.0166.0498-.0166.1328-.011.1937-.011.1826 0h.0332c.0886-.011.1384-.011.1494 0h.0498c.0443-.011.0775-.0221.0997-.0332.0332-.011.0719-.0166.1162-.0166.1328.0222.2158.0277.249.0166.0332-.011.0664-.0166.0996-.0166l.1826-.0332c.155-.011.2546-.0221.2988-.0332l.2325.0166c.1992.0222.3099.0388.332.0498.0332.0222.0553.0554.0664.0996.0221.0333.0498.0609.083.0831.0443.1549.0775.2877.0996.3984.0222.0885.0332.1826.0332.2822-.0221.1771-.0332.2933-.0332.3487v.083c.0111.0332.0166.0719.0166.1162-.0221.1439-.0332.2324-.0332.2656.0111.0221.0166.0443.0166.0664-.0332.1107-.0443.1937-.0332.249.0111.0443.0166.083.0166.1162.0111.0886.0111.1716 0 .2491-.0111.0664-.0166.1328-.0166.1992.0111.1328.0111.2158 0 .249v.083.1162c.0111.0332.0055.0664-.0166.0996-.0775.1107-.1273.1716-.1494.1826-.0775.0332-.1273.0554-.1494.0665-.0111.011-.0277.0166-.0498.0166h-.2324c-.1329 0-.2159-.0056-.2491-.0166-.0221 0-.0442 0-.0664 0-.0885-.0111-.1771-.0166-.2656-.0166s-.1826 0-.2822 0c-.0886-.0111-.1494-.0167-.1826-.0167-.0332.0111-.0775.0111-.1329 0-.0996-.011-.1604-.0166-.1826-.0166-.011.0111-.0276.0166-.0498.0166-.1107 0-.2103-.0055-.2988-.0166-.0885 0-.1937-.0055-.3154-.0166-.0554-.011-.1107-.0166-.166-.0166-.0554 0-.1107-.0055-.1661-.0166-.0885 0-.1494 0-.1826 0-.0332-.011-.0609-.0166-.083-.0166-.0553-.0221-.1328-.0276-.2324-.0166-.0886.0111-.1716.0111-.249 0-.1771-.011-.3487-.011-.5147 0-.166 0-.3431-.0055-.5312-.0166-.0554.0111-.0941.0166-.1162.0166-.0222-.011-.0498-.011-.083 0-.0222-.011-.0665-.011-.1329 0-.0664.0111-.1106.0222-.1328.0332-.0332 0-.0774 0-.1328 0-.0443.0111-.0941.0111-.1494 0-.0221 0-.0498 0-.083 0-.0221-.011-.0553-.011-.0996 0-.1328.0111-.2269.0222-.2822.0332-.0443.0111-.0941.0111-.1495 0-.1328-.011-.2213-.011-.2656 0-.0332.0111-.0664.0222-.0996.0332h-.2988l-.249.0167c-.0332 0-.0665 0-.0997 0-.0221.011-.0498.0166-.083.0166-.0221 0-.0498-.0056-.083-.0166-.0332 0-.0664 0-.0996 0-.0443 0-.0775 0-.0996 0-.0221.011-.0553.011-.0996 0-.0443-.0111-.083-.0222-.1162-.0333-.0332-.011-.0719-.0221-.1162-.0332-.0664-.1106-.1052-.1881-.1162-.2324-.0111-.0442-.0332-.083-.0664-.1162l-.083-.1992c-.0886-.0996-.1439-.1826-.1661-.249-.0553-.0996-.0885-.166-.0996-.1992-.011-.0443-.0276-.0831-.0498-.1163 0-.0553-.011-.094-.0332-.1162-.0221-.0332-.0442-.0664-.0664-.0996-.0111-.0996-.0166-.1494-.0166-.1494 0-.0111-.0055-.0221-.0166-.0332l-.0996-.2656c-.0221-.0554-.0387-.0996-.0498-.1328-.0111-.0443-.0387-.0775-.083-.0996.0111-.0775.0166-.1273.0166-.1495.0111-.0221.0166-.0498.0166-.083.0221-.1106.0498-.1937.083-.249.0443-.0553.083-.1051.1162-.1494.0996-.0775.1605-.1162.1826-.1162.0222-.0111.0443-.0221.0664-.0332.0554-.0443.0886-.0664.0996-.0664.0222-.0111.0443-.0277.0665-.0498.0774-.0664.1217-.0996.1328-.0996.011-.0111.0276-.0277.0498-.0498l.2158-.1993c.0775-.0553.1217-.0885.1328-.0996.0221-.0221.0443-.0442.0664-.0664l.1992-.166.1494-.1162c.0775-.0885.1218-.1328.1329-.1328.0996-.0996.1604-.155.1826-.166.0885-.0775.1383-.1218.1494-.1328.0111-.0222.0277-.0388.0498-.0498.0885-.0665.1328-.0997.1328-.0997 0-.011.0055-.0221.0166-.0332.155-.1438.2601-.2435.3154-.2988.0554-.0664.1107-.1273.166-.1826.0665-.0664.1163-.1162.1495-.1494.0996-.0886.1549-.1328.166-.1328.011 0 .0221-.0111.0332-.0332.1107-.0886.1992-.1661.2656-.2325.0443-.0442.0775-.0664.0996-.0664.0222-.011.0443-.0221.0664-.0332l.1494-.1494c.0222-.0221.0443-.0443.0664-.0664.0222-.0221.0443-.0443.0664-.0664.0554-.0664.0997-.1107.1329-.1328l.0996-.0996c.0774-.0886.1272-.1384.1494-.1494.1107-.1328.1881-.2159.2324-.2491.0443-.0442.0885-.094.1328-.1494.0554-.0553.1052-.1162.1494-.1826.0554-.0664.1107-.1328.166-.1992.0665-.0553.1273-.1162.1827-.1826.0553-.0886.094-.1384.1162-.1494.0221-.0111.0221-.0277 0-.0498.0553-.0222.0941-.0554.1162-.0996.0332-.0443.0664-.0886.0996-.1329.0111-.0332.0277-.0664.0498-.0996s.0443-.0664.0664-.0996.0387-.0719.0498-.1162.0387-.0775.083-.0996c0-.0553.0056-.1051.0166-.1494.0222-.0443.0443-.0941.0664-.1494.0222-.0664.0332-.1162.0332-.1494 0-.0443 0-.0775 0-.0997 0-.1438-.0055-.2268-.0166-.249 0-.0332 0-.0664 0-.0996 0-.0996-.0055-.1494-.0166-.1494 0-.0111 0-.0221 0-.0332-.0221-.0443-.0332-.083-.0332-.1162s-.011-.0664-.0332-.0996c-.0221-.0222-.0609-.0554-.1162-.0996-.0443-.0554-.083-.0941-.1162-.1162-.0775-.0332-.1383-.0498-.1826-.0498-.0664-.0222-.1107-.0277-.1328-.0166-.0222 0-.0443 0-.0664 0-.0332 0-.0664 0-.0996 0-.0332-.0111-.072-.0111-.1163 0-.0774.0221-.1328.0387-.166.0498-.0332.011-.0608.0166-.083.0166-.0553 0-.1217.0276-.1992.083-.1328.0885-.2103.1494-.2324.1826-.0222.0332-.0498.0553-.083.0664-.0443.0664-.083.1162-.1162.1494-.0332.0443-.0609.083-.083.1162-.0111.0221-.0222.0443-.0332.0664-.0554.1107-.0886.1771-.0997.1992-.011.0111-.0221.0277-.0332.0498-.0332.1218-.0664.1993-.0996.2325-.0221.0332-.0387.0774-.0498.1328-.011.0442-.0276.083-.0498.1162-.0332.0332-.0664.0775-.0996.1328-.0221.0553-.0443.1107-.0664.166-.0553.0996-.083.1605-.083.1826-.0996.0886-.1716.1494-.2158.1827-.1771 0-.3044-.0111-.3819-.0333-.0664-.0221-.1106-.0719-.1328-.1494-.0996-.0553-.1771-.094-.2324-.1162-.1107-.0442-.1771-.0719-.1992-.083s-.0443-.0221-.0664-.0332c-.0443-.0221-.0886-.0387-.1328-.0498-.0332-.0221-.0609-.0553-.083-.0996-.0554.0111-.0886.0055-.0996-.0166-.0111-.0332-.0388-.0553-.0831-.0664-.0553-.0443-.1106-.0996-.166-.166-.0442-.0664-.1107-.1218-.1992-.166-.0553-.0443-.0885-.0664-.0996-.0664-.0111-.0111-.0277-.0277-.0498-.0499-.0443-.0332-.0775-.0553-.0996-.0664-.0222-.0221-.0443-.0442-.0664-.0664-.0996-.0553-.166-.0996-.1992-.1328-.0554-.0553-.1052-.0941-.1495-.1162-.1217-.1107-.1881-.1715-.1992-.1826-.0553-.0885-.0885-.1328-.0996-.1328-.0111-.0111-.0166-.0222-.0166-.0332-.0221-.0554-.0387-.0996-.0498-.1328 0-.0443.0055-.0775.0166-.0996.0554-.1329.0886-.2269.0996-.2823.0443-.1106.0664-.1715.0664-.1826 0-.0221.0056-.0387.0166-.0498.0554-.0775.083-.1217.083-.1328 0-.0221.0056-.0443.0166-.0664.0554-.0664.0886-.1107.0996-.1328.0222-.0332.0388-.0609.0499-.083.0664-.0996.0996-.155.0996-.166.011-.0222.0276-.0443.0498-.0665.0664-.1106.1106-.1715.1328-.1826.0332-.0774.0553-.1162.0664-.1162.0221-.011.0277-.0276.0166-.0498.0664-.0775.1051-.1162.1162-.1162.0221-.0111.0387-.0277.0498-.0498.0221-.0221.0443-.0443.0664-.0664.0332-.0332.0719-.0553.1162-.0664.0222-.0443.0498-.072.083-.083.0332-.0111.0609-.0332.083-.0664.0222-.0222.0443-.0443.0664-.0664.0332-.0222.0609-.0498.0831-.083.0332-.0111.0608-.0222.083-.0332.0221-.0111.0498-.0277.083-.0498.0774-.0886.1494-.1439.2158-.1661.0996-.0774.1605-.1217.1826-.1328.0221-.011.0553-.0221.0996-.0332.1107-.0775.1771-.1162.1992-.1162.0332 0 .0609-.0111.083-.0332.0775-.0443.1273-.0664.1495-.0664.0332 0 .0664-.0111.0996-.0332.0996-.0443.1604-.0719.1826-.083.0221-.0111.0443-.0221.0664-.0332.0332-.0111.0609-.0111.083 0 .0332 0 .0664-.0055.0996-.0166.0221-.0111.0443-.0222.0664-.0332.0332-.0111.0719-.0166.1162-.0166.1107 0 .2048-.0166.2822-.0498.0775-.0332.1605-.0554.2491-.0664.0664.011.1106.011.1328 0 .0332-.0111.0609-.0166.083-.0166h.2324c.0221-.0111.0443-.0277.0664-.0498.0775.0332.1605.0387.249.0166l.1993-.0166.1826.0332h.2324c.0443-.0111.083-.0111.1162 0 .0221 0 .0498.011.083.0332.0332.011.0664.0221.0996.0332.1107.011.1771.0332.1992.0664.1329.0332.2159.0609.2491.083s.0719.0221.1162 0c.0332.0443.0719.0719.1162.083.0443 0 .083.0111.1162.0332l.1826.1328c.1107.0332.166.0553.166.0664h.0166c.1107.0664.1771.0996.1993.0996.0996.0775.1604.1273.1826.1494.0664.0554.1162.0941.1494.1163.0775.0442.1273.083.1494.1162.0332.0332.0664.0664.0996.0996.0221.0221.0498.0442.083.0664.0332.011.0609.0276.083.0498.0443.0332.0775.0664.0996.0996.0222.0221.0443.0387.0664.0498.0443.0996.0997.1771.1661.2324.0332.0664.0553.1052.0664.1162.0221 0 .0442.0111.0664.0332.011.0443.0498.1107.1162.1992.0443.0554.083.1218.1162.1993.0332.0664.0664.1383.0996.2158.0443.0885.083.1494.1162.1826.0221.1107.0443.1937.0664.249.0443.1439.0664.238.0664.2823 0 .0442.0056.094.0166.1494.0332.1439.0554.2324.0664.2656.0111.0221.0111.0498 0 .083.0554.0885.072.1992.0498.332-.0221.1328-.0166.2435.0166.3321-.0221.0885-.0387.177-.0498.2656 0 .0775-.0166.1439-.0498.1992 0 .0996-.0055.166-.0166.1992-.011.0332-.0221.0664-.0332.0996-.0221.1107-.0332.1771-.0332.1993-.0553.0885-.0885.1438-.0996.166 0 .011-.0055.0221-.0166.0332l-.1162.166c0 .0664-.0111.1162-.0332.1494s-.0443.0775-.0664.1328c-.0996.0554-.1494.0886-.1494.0996 0 0-.0056.0056-.0166.0166-.0443.0443-.072.0775-.083.0996 0 .0111-.0111.0277-.0332.0498-.0664.0886-.1107.1384-.1328.1495-.0111 0-.0222.011-.0333.0332-.0774.1106-.1272.1881-.1494.2324-.0885.0885-.1383.1383-.1494.1494 0 0-.0055 0-.0166 0-.0775.0885-.1439.1605-.1992.2158-.0885.0996-.1328.1494-.1328.1494.0111 0 .0111.0056 0 .0166-.0886.0775-.1494.1328-.1826.166-.0664.0665-.1107.1163-.1328.1495-.0222.0332-.0554.0608-.0997.083-.0996.0885-.1604.1438-.1826.166-.011.0111-.0276.0277-.0498.0498-.0996.0885-.1549.1439-.166.166s-.0277.0387-.0498.0498c-.0664.1107-.1051.166-.1162.166s-.0221.0056-.0332.0166c-.0443.0664-.0996.1218-.166.166-.0332.0332-.0609.0609-.083.083-.0222.0222-.0443.0443-.0664.0665-.0554.0553-.0996.0996-.1328.1328-.0333.0332-.0609.0719-.0831.1162-.0221.0221-.0442.0498-.0664.083-.011.0221-.0332.0387-.0664.0498l-.1162.1494c-.0553.0332-.0941.0664-.1162.0996-.0221.0222-.0443.0443-.0664.0664-.0885.0886-.1383.1328-.1494.1328-.0111.0332-.0332.0664-.0664.0996-.0222.0222-.0443.0498-.0664.0831z" fill="#e58a4a"/><path d="m46.4573 28.7617c-.0468.0938-.0703.1758-.0703.2461.0235.0703.0235.1641 0 .2813-.0703.2812-.1172.4336-.1406.457v.0351c-.1172.1641-.1875.293-.2109.3868-.1172.1875-.211.3047-.2813.3515-.0469.0235-.082.0703-.1054.1407-.0704.0468-.1407.0937-.211.1406-.0469.0469-.1055.0937-.1758.1406-.164.1406-.2929.2461-.3867.3164-.0703.0469-.1523.1055-.2461.1758-.1406.1172-.2344.2226-.2812.3164-.2344.1172-.3516.1758-.3516.1758-.3281.2109-.5508.3633-.668.457-.1171.0938-.2461.1875-.3867.2813-.164.1406-.2929.2343-.3867.2812-.1406.1172-.2578.1992-.3516.2461-.1406.1406-.2812.2227-.4218.2461-.1875.1172-.3282.1992-.4219.2461-.0703.0469-.1406.1055-.2109.1758-.2344.1172-.3516.1875-.3516.2109.0234 0 .0234 0 0 0 .2578.0469.3984.082.4219.1055.2343.0234.3867.0469.457.0703.0703 0 .1289.0117.1758.0351.3047.1172.5039.1524.5976.1055.0938-.0469.1875-.0469.2813 0l.3867.1406c.0469.0235.0938.0586.1406.1055.0703.0234.1524.0234.2461 0l.4219.211c.0469.0468.0937.0937.1406.1406.0703.0468.1524.0703.2461.0703.1875.1641.3281.293.4219.3867.1172.0703.2344.1289.3516.1758.1875.2109.2929.3164.3164.3164.0234 0 .0468.0234.0703.0703.1172.1875.2109.293.2812.3164.0703.0235.1289.0586.1758.1055.1172.1875.1641.293.1406.3164 0 0 .0117.0117.0352.0351.1406.1172.2226.211.2461.2813.0234.0469.0586.0937.1054.1406.1172.211.1758.3399.1758.3867 0 .0469.0117.1055.0352.1758.1172.3281.1758.5977.1758.8086.0937.2344.1406.4102.1406.5274 0 .0937.0117.1992.0351.3164.0235.0937.0352.1875.0352.2812.0234.0938.0469.1992.0703.3164.0469.211.0586.375.0352.4922 0 .0938.0234.1992.0703.3164-.0469.1172-.082.2344-.1055.3516 0 .0937-.0117.2343-.0351.4219-.0235.0937-.0352.1874-.0352.2812s-.0117.1992-.0352.3164l-.0703.5625c-.0468.1875-.082.293-.1054.3164-.0235 0-.0352.0235-.0352.0703-.0703.2578-.1172.4219-.1406.4922-.0703.2344-.1055.3633-.1055.3867 0 0-.0117.0117-.0351.0352-.0704.1172-.1172.1992-.1407.2461 0 .0234-.0117.0586-.0351.1054-.1406.211-.2344.3633-.2813.4571-.0234.0703-.0586.1406-.1054.2109-.0469.1641-.0704.2578-.0704.2813 0 .0234-.0234.0586-.0703.1054-.1406.1641-.2226.2696-.2461.3164-.0234.0469-.0468.1055-.0703.1758-.0937.0703-.1758.1524-.2461.2461-.0703.0703-.1172.1641-.1406.2813-.1172.0703-.2109.1757-.2812.3164-.0469.1172-.1407.1992-.2813.2461-.0469.0937-.1055.1758-.1758.2461-.0468.0703-.0937.1289-.1406.1757-.2109.1641-.3281.2579-.3516.2813 0 .0234-.0234.0469-.0703.0703-.2578.1406-.4218.2344-.4922.2813-.0703.0468-.164.1054-.2812.1757-.2109.1407-.3399.2344-.3867.2813-.0235.0234-.0586.0469-.1055.0703-.3516.1875-.5625.293-.6328.3164-.1172.0469-.2344.082-.3516.1055-.1172.0234-.2343.0703-.3515.1406-.4688.0703-.7852.1289-.9493.1758-.0937.0469-.1757.082-.246.1055-.0704.0234-.1407.0468-.211.0703-.375.0937-.7734.1406-1.1953.1406-.0703 0-.1406-.0117-.2109-.0352-.0703 0-.1407.0352-.211.1055-.2578-.0703-.4218-.1055-.4922-.1055-.0703.0235-.1523.0352-.2461.0352-.2578-.0469-.3984-.0586-.4218-.0352 0 .0235-.0117.0235-.0352 0-.2578-.0703-.3984-.1054-.4219-.1054-.0937-.0235-.1875-.0352-.2812-.0352-.0703 0-.1524-.0117-.2461-.0351-.1875-.0469-.3398-.0821-.457-.1055-.1172-.0235-.2227-.0586-.3164-.1055-.211.0234-.4571-.0234-.7383-.1406-.211-.0469-.3516-.082-.4219-.1055-.0469-.0234-.0937-.0469-.1406-.0703-.2578-.1172-.4336-.1758-.5274-.1758-.0937-.0234-.164-.0586-.2109-.1054-.2813-.0704-.4688-.1172-.5625-.1407-.0703-.0234-.1406-.0586-.2109-.1054-.1875-.0938-.3399-.1641-.4571-.211-.0703-.0469-.1406-.082-.2109-.1054-.0703-.0235-.1406-.0586-.2109-.1055-.2344-.1172-.375-.1758-.4219-.1758-.0469-.0234-.0938-.0586-.1406-.1055-.3047-.2109-.5157-.3515-.6329-.4218-.0937-.0938-.1992-.1875-.3164-.2813-.1406-.1172-.2343-.1875-.2812-.2109-.0469-.0235-.082-.0821-.1055-.1758-.2344-.1406-.3633-.2227-.3867-.2461-.1406-.1641-.2227-.2461-.2461-.2461-.0234-.0234-.0586-.0586-.1055-.1055-.1172-.1875-.1875-.2812-.2109-.2812-.0234-.0234-.0469-.0586-.0703-.1055-.1875-.1875-.375-.4336-.5625-.7383-.1406-.2812-.1992-.4804-.1758-.5976s.0234-.2344 0-.3516c.1406-.0937.2344-.1289.2813-.1054.0703 0 .1406-.0235.2109-.0704.1641-.1172.2695-.1992.3164-.2461.0469-.0703.1172-.1054.2109-.1054.0938-.0938.211-.1758.3516-.2461l.3164-.2461c.1172-.0703.2227-.1289.3164-.1758.0938-.0703.1992-.1289.3164-.1758.1641-.0937.2578-.1406.2813-.1406.0234-.0234.0468-.0469.0703-.0703l.5976-.3164c.0469-.0235.1055-.0469.1758-.0703.0703-.0469.1289-.0938.1758-.1407.1641-.0468.2812-.082.3516-.1054.0703-.0235.1406-.0586.2109-.1055.2578-.1172.4922-.1992.7031-.2461.2813-.0703.4453-.1172.4922-.1406.0469-.0469.1289-.0586.2461-.0352.3047.0235.4922.0586.5625.1055.1406.1875.2344.293.2813.3164.0468 0 .082.0234.1054.0703.0469.1641.0821.2813.1055.3516s.0703.1406.1406.2109c.211.1406.3281.2344.3516.2813.1406.1172.2226.1992.2461.2461.0468.0468.0937.082.1406.1054.2578.0938.3984.1407.4219.1407.0468 0 .0937.0117.1406.0351.3516.1641.6094.2344.7734.2109.1875-.0468.3868-.0468.5977 0 .1641.0469.293.0469.3867 0 .1875-.0234.293-.0468.3164-.0703.0469-.0234.0938-.0468.1406-.0703.2344-.0703.3985-.1289.4922-.1758.1407-.0937.2344-.1406.2813-.1406.0469-.0234.0937-.0586.1406-.1054.0938-.0938.1758-.1876.2461-.2813.0703-.1172.1641-.2109.2812-.2813 0-.1171.0235-.2109.0704-.2812.0703-.0938.1289-.1992.1757-.3164.0938-.375.1407-.6094.1407-.7031.0703-.3516.1054-.5625.1054-.6328.0235-.0704.0235-.1524 0-.2461-.0468-.211-.082-.3282-.1054-.3516-.0235-.0234-.0352-.0586-.0352-.1055-.0469-.0703-.082-.1289-.1055-.1757 0-.0704-.0234-.1524-.0703-.2461-.1406-.1641-.2109-.2579-.2109-.2813s-.0117-.0469-.0352-.0703c-.2109-.1406-.3164-.2109-.3164-.2109 0-.0235-.0117-.0469-.0351-.0704-.1172-.0468-.211-.0937-.2813-.1406s-.1406-.0937-.2109-.1406c-.1172-.0234-.2227-.0469-.3164-.0703-.0703-.0469-.1524-.0938-.2461-.1406-.3047-.0938-.5039-.1524-.5977-.1758-.0703-.0235-.1992-.0586-.3867-.1055-.3281-.0469-.5391-.0703-.6328-.0703-.0703-.0234-.1641-.0352-.2813-.0352-.1875.0235-.3398.0352-.457.0352-.0937 0-.2109.0117-.3515.0351-.1875.0704-.3165.0938-.3868.0704-.0468-.0235-.0937-.0118-.1406.0351-.1875.0703-.3164.1055-.3867.1055-.0469 0-.0938.0117-.1406.0351-.1875.1172-.293.1758-.3164.1758-.0235 0-.0586.0117-.1055.0352-.1172.0469-.2578.0937-.4219.1406-.1406.0469-.3047.082-.4922.1055h-.6679c-.2344-.0703-.375-.1055-.4219-.1055-.0469-.0234-.0938-.0469-.1406-.0703-.1172-.0469-.2227-.1641-.3164-.3516-.1172-.2578-.1758-.4804-.1758-.6679-.0235-.2813-.0469-.4688-.0703-.5625-.0235-.0938-.0469-.1758-.0704-.2461.0235-.211.0352-.3516.0352-.4219-.0234-.1875-.0352-.3047-.0352-.3516.0235-.0703.0235-.1406 0-.2109-.164-.4453-.2226-.8789-.1757-1.3008 0-.2578.082-.4453.2461-.5625.0703-.2109.1054-.3281.1054-.3516 0-.0234.0235-.0351.0703-.0351.0469-.0469.1055-.082.1758-.1055.0703-.0234.1289-.0703.1758-.1406.0703.0469.1289.0469.1758 0 .0703-.0469.1406-.082.2109-.1055.2578-.0468.4219-.0703.4922-.0703.0703-.0234.1406-.0351.2109-.0351.0704 0 .1407-.0118.211-.0352.0937 0 .1758-.0117.2461-.0351.0937-.0235.1875-.0469.2812-.0704.1641-.0937.2813-.1523.3516-.1757.0703-.0235.1641-.0586.2812-.1055.2813-.0938.4571-.1524.5274-.1758.0703-.0469.1523-.0937.2461-.1406.2578-.1172.4219-.1875.4922-.211.0937-.0234.164-.0468.2109-.0703.2109-.1406.3281-.2109.3516-.2109.0234 0 .0468-.0117.0703-.0352.2578-.164.4336-.2695.5273-.3164.0938-.0703.1992-.1406.3164-.2109l.3867-.2109c.1641-.1172.2579-.1758.2813-.1758s.0586-.0117.1055-.0352c.0703-.0937.1523-.1758.2461-.2461l.2812-.2812c.0938-.1172.1641-.1758.2109-.1758.0704-.0234.1055-.0586.1055-.1055-.3047-.0234-.4922-.0468-.5625-.0703-.0469-.0234-.1055-.0351-.1758-.0351-.1875 0-.375.0234-.5625.0703-.1875.0234-.375.0351-.5625.0351-.0937.0235-.1875.0352-.2812.0352-.0938-.0235-.1875-.0352-.2813-.0352-.2343.0469-.4218.0703-.5625.0703-.3047-.0468-.4922-.0586-.5625-.0351-.0703 0-.1523.0117-.2461.0351-.1406.0469-.2695.0703-.3867.0703-.0703.0235-.164.0352-.2812.0352-.0938 0-.1758 0-.2461 0-.1875.0234-.293.0352-.3164.0352-.0235-.0235-.0586-.0352-.1055-.0352-.0703 0-.1406.0117-.2109.0352-.0703.0234-.1524.0468-.2461.0703-.1172 0-.2461 0-.3867 0-.1407-.0235-.2813-.0235-.4219 0-.2344.0234-.4102.0469-.5274.0703-.1172 0-.2226.0117-.3164.0351-.1172 0-.2695.0235-.457.0704-.0703.0234-.1406.0351-.2109.0351-.0704 0-.1289.0117-.1758.0352-.0703 0-.1406.0234-.211.0703-.0468.0234-.1054.0469-.1757.0703-.1172.0234-.2461.0469-.3868.0703-.1406 0-.3046.0234-.4921.0703-.211.0235-.3868.0235-.5274 0-.2344-.0937-.3633-.1406-.3867-.1406-.0469-.0703-.0938-.1289-.1406-.1758-.0235-.0469-.0469-.1172-.0703-.2109l-.0352-.5274c0-.2578-.0234-.457-.0703-.5976-.0235-.1407-.0235-.293 0-.4571v-.4921c.0703-.2344.0937-.3633.0703-.3868v-.3867c.0703-.3984.1055-.668.1055-.8086 0-.164 0-.3515 0-.5625 0-.2812 0-.457 0-.5273.0234-.0938.0351-.1524.0351-.1758-.0937-.2812-.1523-.4453-.1758-.4922-.0234-.0703-.0117-.1406.0352-.2109.0703-.2813.0937-.4453.0703-.4922 0-.0469 0-.0938 0-.1406 0-.2579.0586-.4688.1758-.6329.1641-.1406.293-.2343.3867-.2812.0938-.0703.2227-.1055.3867-.1055.1407-.0234.2696-.0351.3867-.0351.1407 0 .2579.0234.3516.0703.1172-.0469.2695-.0703.457-.0703.1875-.0235.3516 0 .4922.0703.1875-.0469.4102-.0469.668 0s.5039.082.7383.1055c.0937.0468.1875.0703.2812.0703h.3164c.211 0 .3516.0117.4219.0351.0938.0235.1875.0352.2813.0352.0703.0234.1992.0351.3867.0351.375.0235.5742.0352.5976.0352.1172.0234.2344.0351.3516.0351.1406-.0234.2695-.0234.3867 0 .1172 0 .2461.0118.3867.0352.1641.0234.3047.0352.4219.0352.0938 0 .1875.0117.2813.0351h.2812c.2813.0235.4219.0352.4219.0352.2109 0 .3164.0117.3164.0351h.0703c.1875-.0234.3164-.0468.3867-.0703.0703-.0234.1289-.0117.1758.0352.1406-.0235.293-.0235.457 0 .1641 0 .3164.0117.4571.0351.164-.0468.3281-.0586.4922-.0351h.5273c.2344.0234.3867.0234.457 0 .0938-.0235.1875-.0352.2813-.0352.2109.0235.3633.0235.457 0 .0938-.0234.1992-.0351.3164-.0351h.5625c.1406-.0235.2344-.0352.2813-.0352.2343 0 .3515-.0117.3515-.0352.0235-.0234.0469-.0117.0703.0352.1172.0469.2461.0469.3868 0 .164-.0469.3281-.082.4921-.1055.0938 0 .1875.0118.2813.0352h.2812c.1172 0 .293-.0234.5274-.0703.0703 0 .1406.0117.2109.0351.0938 0 .1641-.0234.211-.0703.1875.0469.3632.0586.5273.0352.1875-.0235.3047.0586.3516.2461.0937.2109.1289.3398.1054.3867-.0234.0469-.0117.0937.0352.1406.0234.0938.0352.1992.0352.3164.0234.1172.0234.2696 0 .4571 0 .2109-.0118.375-.0352.4921v.3164c.0234.3047.0234.4805 0 .5274 0 .0234.0117.0586.0352.1055v.4218c.0234.1172.0468.2461.0703.3868.0234.1171.0351.2461.0351.3867v.3867c.0703.2812.0938.4805.0703.5977 0 .0937.0118.1874.0352.2812 0 .0469-.0117.1055-.0352.1758 0 .0469.0235.1172.0703.2109z" fill="#693821"/></svg>