<svg fill="none" height="74" viewBox="0 0 225 74" width="225" xmlns="http://www.w3.org/2000/svg" xmlns:xlink="http://www.w3.org/1999/xlink"><linearGradient id="a"><stop offset="0" stop-color="#cf5c2b"/><stop offset="1" stop-color="#59173e"/></linearGradient><linearGradient id="b" gradientUnits="userSpaceOnUse" x1="172.526" x2="142.992" xlink:href="#a" y1="-103.532" y2="-10.5114"/><linearGradient id="c" gradientUnits="userSpaceOnUse" x1="128.034" x2="101.744" xlink:href="#a" y1="-30.9263" y2="131.362"/><linearGradient id="d" gradientUnits="userSpaceOnUse" x1="127.459" x2="93.7252" xlink:href="#a" y1="-25.9295" y2="175.696"/><linearGradient id="e" gradientUnits="userSpaceOnUse" x1="118.33" x2="116.112" xlink:href="#a" y1="88.1012" y2="44.1416"/><linearGradient id="f" gradientUnits="userSpaceOnUse" x1="190.583" x2="181.148" xlink:href="#a" y1="16.5635" y2="46.0863"/><linearGradient id="g" gradientUnits="userSpaceOnUse" x1="232.5" x2="150.297" xlink:href="#a" y1="-64.9332" y2="158.311"/><linearGradient id="h" gradientUnits="userSpaceOnUse" x1="170.889" x2="164.938" xlink:href="#a" y1="14.3173" y2="32.9386"/><linearGradient id="i" gradientUnits="userSpaceOnUse" x1="197.328" x2="145.479" xlink:href="#a" y1="-37.0863" y2="103.724"/><linearGradient id="j" gradientUnits="userSpaceOnUse" x1="43.1925" x2="37.2409" xlink:href="#a" y1="28.6864" y2="47.3077"/><linearGradient id="k" gradientUnits="userSpaceOnUse" x1="69.6305" x2="17.7811" xlink:href="#a" y1="-22.7175" y2="118.093"/><path d="m224.838 55.7615c-.116-1.446-.232-2.892-.332-4.338-.099-1.5169-.215-3.048-.315-4.5649-.066-1.0349-.166-2.1406-.199-3.218-.033-.8932.398-2.3675-.166-3.1756-.332-.482-1.062-.6237-1.709-.723-.846-.1276-1.692-.2551-2.538-.3827 1.144-.2269 2.256-.5104 3.351-.8648.249-.0851.498-.1701.664-.3402.149-.156.199-.3686.232-.5529.382-1.9847.133-4.0828.133-6.0959-.017-2.0414-.017-4.097-.033-6.1384-.017-1.9422-.017-3.8985-.033-5.8407 0-.638.315-2.0414-.067-2.6085-.299-.4678-1.012-.4395-1.559-.4962-.565-.0567-1.129-.0567-1.693-.0283-.846.0425-1.676.1559-2.505.2693 1.095-.2552 2.223-.3827 3.318-.6096.714-.1417 1.41-.3402 2.074-.6379.398-.1843.83-.3402 1.062-.6947.1-.1417.133-.326.182-.4961.1-.3544.117-.723.15-1.0916.066-1.0065.116-2.0131.133-3.0338.016-.51034.016-1.02069 0-1.53105 0-.32605-.15-.63794-.183-.97817-.149-1.37512-.796-2.69353-1.825-3.75677-1.029-1.04906-2.439-1.81459-3.999-2.169-.58-.12759-1.161-.19847-1.758-.22683-70.151-1.885467-138.9073-1.95635-206.1706.02836-.2654.01417-.5475-.01418-.813.04253-.26544.07088-.53091.15594-.81297.241-.54753.17011-1.09506.34023-1.626.56706-1.02869.42529-1.99102.99235-2.65469 1.78623-.38161.46783-.64708.99236-.99551 1.46018-.18251.241-.4148.42529-.56412.68047-.71345 1.21918-1.4269 2.45253-2.42241 3.52994-.962329 1.04905-1.2443903 2.72185-1.1448393 4.01195.1493263 1.7579.1991023 3.5299.3816123 5.2878.298653 2.7928.016592 5.5856.381612 8.4067.049776.3969.132735.8506.481165 1.1057.24888.1843.58071.2552.89596.3119 1.02869.1985 2.07398.3828 3.10267.5813-1.27757.7088-3.18563.7655-3.8659 1.928-.21569.3827-.24887.808-.28206 1.2333-.116141 1.5027-.282059 2.9913-.398202 4.4798-.049776.6663-.099551 1.3468-.116143 2.013-.033184.638-.082959 1.2618-.165918 1.8997-.165919 1.4885-.613898 3.4165-.08296 4.8767.514347 1.4035 2.571733 1.4602 3.982043 1.8004-.74663.0709-1.31076.5954-1.75874 1.12-.21569.2693-.38161.5387-.58071.808-.18251.241-.34843.482-.49776.7372-.29865.5103-.547526 1.0349-.730037 1.5878-.116143.3686-.18251.6521-.199102 1.0348-.016592.3403-.033183.6805-.049775 1.0207-.033184.6805-.049776 1.361-.066368 2.0415-.033183 1.3609-.049775 2.7218-.033183 4.0828.016592 1.3184-.3484287 2.5943.298653 3.8843.647082 1.2901 1.758732 2.3959 3.152452 3.1189 1.12824.5954 2.40581.9073 3.73316.964 67.64487 2.5376 136.41767 2.5092 206.25267-.0142 1.842-.0709 3.617-.6947 4.978-1.7721.647-.5103 1.228-.964 1.709-1.6161.597-.7797 1.145-1.5878 1.659-2.41 1.261-1.9989 2.837-4.2246 2.638-6.5353z" fill="url(#b)"/><path d="m217.171 63.0055c-69.851 2.5092-138.6079 2.5517-206.2528.0142-3.00316 0-5.80718-1.843-6.93543-4.1538-.49775-1.0348-.5973-2.1548-.53093-3.2605.01659-.1985.03318-.3828.09955-.5813.09955-.2977.26547-.5529.29865-.8647.01659-.1702.04977-.3119.06637-.482.11614-.879.14932-1.7721.23228-2.651.04978-.4962.11615-1.0066.28206-1.4886.18251-.5529.48117-1.049.99551-1.3893 2.22331-1.4318 6.58694-1.4034 9.82234-1.4602.6305-.0141 1.2112-.0283 1.7422-.0567 1.4103-.0708 2.8206-.0992 4.2309-.0992-3.3516-.0142-6.6865-.2552-9.9883-.7513-1.55963-.2269-3.11926-.5104-4.6623-.8506-.36502-.0709-.76322-.1843-1.11165-.3261-.48117-.1843-.89596-.4536-1.11166-.8506-.18251-.3402-.16591-.7372-.16591-1.0916.01659-.3544-.04978-.723-.0166-1.0774.03319-.7655.14933-1.5027.23229-2.2541.08296-.6095.16592-1.2191.21569-1.8429.11615-1.6303.23229-3.2606.38162-4.8909.04977-.4962.11614-1.0349.51434-1.3751.24888-.2126.56413-.3119.87937-.4111.86278-.2694 1.74214-.4678 2.6381-.5954.46457-.0709.92914-.0709 1.32731-.156.4812-.1276.8462-.2126 1.3606-.2551 4.9277-.4962 9.8555-.9782 14.7999-1.4744.5807-.0567 1.178-.1134 1.7753-.1701-7.4331-.7655-14.8829-1.5594-22.31601-2.325-.33183-.0425-.64708-.0708-.97891-.0992-.29866-.0284-.6139-.0709-.813-.2552-.0166-.0142-.03319-.0283-.04978-.0425-.14933-.1701-.16592-.3686-.1991-.5812-.33184-3.4307.04977-6.9749-.18251-10.4481-.01659-.1985-.08296-1.1625-.14933-2.2682-.08296-1.602-.21569-3.43076-.26547-3.43076-.31524-3.81347 3.10268-7.10241 7.58251-7.23 67.2467-1.998886 136.0028-1.928004 206.1038 0 4.496.12759 7.947 3.43071 7.599 7.27253-.116 1.30423.182 2.56593-.199 3.88433-.083.3119-.199.6238-.481.8364-.249.1843-.581.2552-.896.3119-.846.1701-1.693.3544-2.539.5246-1.128.2268-2.24.4394-3.385.5528-6.769.6096-13.505 1.2334-20.258 1.8572-.183.0141-.365.0283-.548.0425-.215.0142-.431.0425-.647.0567.548-.0142 1.079-.0142 1.61-.0142 8.461-.1276 16.94-.241 25.418-.3686.233 0 .498 0 .681.1276.215.1418.265.3828.298.6096.05.3119.05.6096.05.8931-.017.9215-.199 1.8004-.199 2.7361 0 .8222.232 1.6303.232 2.4809-.016 1.2191-.066 2.4383-.116 3.6717-.133 2.7786-.365 5.5997-.713 8.3925-.05.4111-.117.8364-.432 1.1341-.249.2268-.614.3544-.962.4536-.216.0709-.431.1276-.664.1701-4.977 1.2192-10.419.2552-15.53 1.0066-.332.0425-.68.0992-.995.1701-.116.0142-.233.0425-.332.0709.415.0283.83.0425 1.244.085 5.592.3403 11.167.8223 16.725 1.4319.647.0708 1.377.1701 1.759.6237.298.3403.298.8081.298 1.2334v1.4034c0 1.4177 0 2.8353.083 4.253.1 1.8713.233 3.7426.382 5.6281.066.9214.133 1.8429.216 2.7502.298 3.7993-3.103 7.0741-7.55 7.2442z" fill="url(#c)"/><path d="m223.761 23.2968c-.017 1.2192-.067 2.4384-.116 3.6717-2.871.2268-5.675.4111-8.429.6805-.647.0567-1.278.1134-1.925.1843-2.372.2126-4.745.4111-7.118.5812-1.178.0851-2.372.1701-3.567.2552-.763.0567-1.443.3119-2.173.3828-1.029.0992-2.157-.1276-3.203-.1843-1.161-.0567-2.322-.0851-3.484-.0709-2.323.0283-4.662.1701-6.968.3969-4.646.4537-9.225 1.205-13.838 1.8571-7.383 1.0491-14.8 1.8572-22.266 2.3817 4.065.3402 8.097.9073 12.062 1.687-1.493.0992-2.987.1985-4.48.2694-4.745.2551-9.49.3827-14.236.4536-4.745.0709-9.507.0709-14.252.0567-4.745 0-9.507-.0142-14.252.0142-4.746.0425-9.491.1276-14.236.3119-2.3728.0992-4.7454.2126-7.1014.3686-.5973.0425-1.1781.085-1.7754.1275-.7134.0568-1.4103.2269-2.1403.2978-5.6578.567-11.3156 1.2758-16.9071 2.2115-8.6941 1.4602-17.438 2.892-26.2814 3.4023-1.5929.0851-3.2023.1702-4.7951.2552-7.6156 1.3043-15.8452 1.5736-23.3115 2.3533-2.5386.2694-5.1269.4111-7.7152.4962-1.55966-.2268-3.11929-.5104-4.66233-.8506-.36502-.0709-.76322-.1843-1.11165-.3261-.48117-.1843-.89596-.4536-1.11166-.8505-.18251-.3403-.16591-.7372-.16591-1.0916.01659-.3545-.04978-.723-.0166-1.0774.03319-.7656.14933-1.5028.23229-2.2541 6.83586-.482 13.85416-2.169 20.42456-2.9912 8.4452-1.0349 17.0564-1.6445 25.568-2.0556 9.6399-.4537 19.2631.5245 28.8698.5245 8.9098 0 17.7865-.6663 26.6469-1.2759 17.272-1.1908 34.511-2.4242 51.75-3.7001-3.75-.0567-7.5-.1417-11.25-.2551-4.778-.1418-9.557-.3261-14.335-.5387-1.112-.0426-2.257-.1702-3.352-.0709-1.144.1134-2.306.1417-3.451.1276-2.273-.0284-4.546-.2694-6.753-.7372-1.294-.2694-2.588-.6238-3.899-.8222-2.223-.3261-4.496-.2269-6.769-.2552-8.4454-.0993-16.7579-1.9989-25.2032-1.928-2.2233.0142-4.43.1701-6.6367.3402-2.3394.1843-4.6955.3686-7.0515.4253-1.0453.0284-2.1238.0851-3.1359-.1134-.7798-.1559-1.6758-.0851-2.4722-.0992-1.4269-.0284-2.8538-.0567-4.2807-.0851-2.8538-.0567-5.7076-.0851-8.5779-.0992-10.8345-.0426-21.6358.4678-32.4703.3969-4.6125-.0283-9.32457-.1134-13.88733-.6805-.01659-.0141-.03318-.0283-.04977-.0425-.14933-.1701-.16592-.3686-.19911-.5812-.33183-3.4307.04978-6.9749-.18251-10.4481-.01659-.1985-.08296-1.1625-.14932-2.2682 5.52508-.4112 11.08334-.5104 16.60844-.8506 10.8179-.6805 21.6357-.9782 32.5034-.9357 21.5196.0851 42.9894 1.2617 64.4426 2.651 21.47 1.3893 42.89 3.1047 64.36 4.4089 10.851.6521 21.719 1.0633 32.586 1.0633 3.186 0 6.405-.1702 9.623-.3686-.016.9214-.199 1.8004-.199 2.736.05.8931.282 1.7012.266 2.5376zm.348 24.0859c-.083-1.4177-.083-2.8353-.083-4.253-6.852-.6379-13.721-1.29-20.607-1.7012-11.813-.6946-23.693-.5812-35.523-.1701-2.455.0851-4.878.1418-7.317.397-1.178.1275-2.356.2551-3.534.3686-4.729.482-9.457.8647-14.203 1.1766-1.841.1134-3.7.2268-5.558.3261 4.795-.0284 9.59-.0567 14.385-.0851s9.59-.0567 14.385-.0851c2.39-.0141 4.795-.0283 7.185-.0425 1.194-.0142 2.389-.0142 3.6-.0283.498 0 1.029.0283 1.527-.0709.298-.0567.597-.156.896-.1985 1.078-.1418 2.273.0425 3.351.0992 1.195.0567 2.373.1135 3.567.1702 2.373.1275 4.762.2693 7.135.4111 3.75.241 7.483.5103 11.216.7939 4.081.3118 8.13.723 12.195 1.1483-9.225.7513-18.434 1.531-27.675 1.9705-21.271 1.0065-42.542 2.2682-63.846 1.8996-21.005-.3402-41.9604-1.3751-62.9823-1.3042-11.0834.0283-22.1501.1843-33.2003.4678-8.1631.1985-16.4259.1701-24.57248.879-.16591.4678-.23228.9923-.28206 1.4885-.08296.8789-.11614 1.7721-.23228 2.651 9.07572.3119 18.25102-.2127 27.31012-.2268 11.0668-.0142 22.1335.0709 33.2003.2977 20.9721.4253 41.928 1.4176 62.883 1.7295 21.337.3261 42.624-.9782 63.912-1.8996 10.984-.4679 22.034-.482 33.018-.5813h.232c-.149-1.8854-.282-3.7426-.382-5.628z" fill="url(#d)"/><g fill="#eb924d"><path d="m5.26092 42.5207c-.01659.7089-.01659 1.4319.24888 2.0982-.48116-.1843-.89596-.4537-1.11165-.8506-.18251-.3403-.16592-.7372-.16592-1.0916.01659-.3544-.04978-.723-.01659-1.0774.06636-1.3752.36502-2.7219.44798-4.097.11614-1.6303.23228-3.2606.38161-4.8909.04977-.4962.11614-1.0349.51435-1.3751.24887-.2127.56412-.3119.87936-.4112.86278-.2693 1.74214-.4678 2.6381-.5954.4148-.085.87937-.085 1.27756-.1701.4812-.1276.8462-.2126 1.3605-.2552 4.9278-.4961 9.8556-.9781 14.8-1.4743-5.2928.9214-10.5856 1.8146-15.895 2.736-1.02871.1702-2.40583.1702-3.26861.7514-.18251.1134-.33183.2552-.48116.3969-.13273.1276-.24888.2694-.3982.397-.28206.2126-.38162.5529-.51435.8506-.34843.8647-.54753 1.772-.59731 2.6793-.01659.3403-.01659.6947-.06636 1.0349-.0166.0851-.03319.1701-.04978.2552-.01659.0992-.08296.1701-.11614.2693-.26547.6947-.23229 1.4602-.11615 2.169.04978.2552.14933.5104.2157.7656.16592.6096.04977 1.2617.03318 1.8854z"/><path d="m196.333 16.7759c-.299-.0141-.597-.0283-.896-.0425h1.427c-.166 0-.349.0284-.531.0425z"/><path d="m201.211 37.7998c1.377.1134 2.754.2268 4.131.3119-.332.0425-.68.0992-.995.1701-1.062-.1701-2.124-.3402-3.136-.482z"/><path d="m221.487 36.0563c.215-.7372.166-1.5027.083-2.2541-.116-1.3893-.249-2.7927-.365-4.182-.017-.2694-.067-.5671-.316-.7372-.199-.1418-.481-.1418-.73-.1276-2.057.0567-4.098.1134-6.122.1701 2.207-.1701 4.397-.6663 6.388-1.4885.581-.241 1.178-.5387 1.394-1.0349.116-.2552.116-.5387.116-.8222-.033-2.1974-.481-4.6499-.797-6.8331-.962-.7797-2.405-.8789-3.733-.9498-5.342-.2835-10.702-.5529-16.028-.8364-1.277-.0709-2.704-.1134-4.065-.1701 8.462-.1276 16.941-.241 25.419-.3686.232 0 .498 0 .68.1276.216.1417.266.3827.299.6096.183 1.2475-.166 2.3958-.166 3.6291 0 .8223.232 1.6303.232 2.4809-.083 3.9411-.331 8.0523-.846 12.0642-.05.4111-.116.8364-.431 1.1341-.249.2268-.614.3544-.962.4537-.216.0709-.432.1276-.664.1701.282-.2835.498-.6521.614-1.0349z"/><path d="m3.76708 14.3943c-.03318-.4678-.33184-5.68476-.43139-5.68476-.31524-3.81347 3.10268-7.10241 7.58251-7.23 67.2467-1.998886 136.0028-1.928004 206.1038 0 4.496.12759 7.947 3.43071 7.599 7.27253-.116 1.30423.182 2.56593-.199 3.88433-.083.3119-.199.6238-.481.8364-.249.1843-.581.2552-.896.3119-.846.1701-1.676.3686-2.522.5246.73-.5671 1.576-1.2334 1.908-2.0556.232-.5529.05-1.0349-.166-1.5594-.332-.82228-.398-1.60199-.431-2.46676-.05-1.06323.165-2.58012-.813-3.43071-.747-.63794-1.726-1.19082-2.655-1.58776-2.306-.964-4.978-1.17665-7.516-1.26171-.133 0-.249-.01417-.382-.01417-4.679-.12759-9.374-.14177-14.053.26935-.564.04253-1.062.18429-1.61.26935-.68.11341-1.493-.02835-2.19-.0567-1.592-.07089-3.169-.12759-4.762-.1843-3.169-.09923-6.354-.17012-9.54-.21265-2.389-.02835-4.762-.02835-7.151-.02835-.747 0-1.51 0-2.256 0-1.444 0-2.887 0-4.347 0-2.008 0-4.016 0-6.023-.01418-.1 0-.199 0-.282 0-3.186 0-6.355-.01417-9.541-.01417-1.592 0-3.185 0-4.762-.01418-.73 0-1.543.08506-2.256-.02835-.73-.11341-1.311-.49618-2.074-.55288-.697-.05671-1.41.04253-2.091.09923-1.742.11341-3.467.25518-5.193.4253-.78.07088-1.642.18429-2.157.68047-.182.17011-.315.38276-.531.52453-.481.2977-1.161.09923-1.725-.07089-1.112-.32605-2.29-.51035-3.485-.55288-1.078-.04253-2.14.12759-3.218.07088-.681-.02835-1.328-.17011-1.991-.28353-2.622-.43947-5.36-.46782-7.998-.63794-1.957-.12759-3.932-.21264-5.906-.26935-6.355-.19847-12.7262-.08506-19.0643.14176-3.1856.11342-6.3547.25518-9.5403.4253-1.4601.07088-3.0695.34023-4.513.17012-.4148-.04253-.813-.1843-1.2278-.25518-.4314-.07088-.8628-.05671-1.3108-.05671-1.7587.01418-3.534.02836-5.2927.02836-2.0574.01417-4.1314 0-6.2054 0-.6968 0-1.3771.11341-2.0574.11341-.6305 0-1.2444-.11341-1.8749-.11341-1.3107.01417-2.6049.22682-3.8161.65212-.4646.17011-.9457.35441-1.4601.34023-.9291-.04253-1.5596-.79388-2.4058-1.13412-1.991-.808057-4.0484.73718-6.0892.11341-1.0121-.31188-2.0408-.26935-3.1192-.26935-1.3606-.01418-2.7211-.01418-4.0816-.01418-4.6126.01418-9.2251.15595-13.8044.55289-2.2897.19847-4.5628.46782-6.8359.80806-1.095.17011-2.2067.43947-3.31835.55288-.31524.02835-.56412.02835-.86277.21265-1.36053.80806-5.0937 5.33035-2.42241 6.91811.16592.0992.34843.1843.54753.2552.28206.0992.58071.1418.87937.2268.29865.0992.68026.0284.99551.0284.76322 0 1.52645 0 2.27312-.0142.813 0 1.626-.0142 2.3892.1843-1.7256.3119-3.45112.6096-5.17667.9073-.56412.0992-1.12824.1984-1.65918.3969-.08296.0425-.18251.0567-.28206.0851-.36502.1134-.63049.4962-.76323.7939-.34843.7797-.13273 1.6303-.28206 2.4383-.26547 1.446.06637 3.0054.23229 4.4373.21569 1.8429.48116 3.7.7964 5.543-.33183-.0426-.64708-.0709-.97891-.0993-.31525-.0283-.64709-.0709-.86278-.2835-.14933-.1701-.16592-.3686-.1991-.5812-.33184-3.4591.04977-7.0032-.16592-10.4623z"/><path d="m224.706 55.7612c-.233-2.7928-.432-5.5856-.598-8.3783-.099-1.8855-.083-3.771-.083-5.6565 0-.4253-.016-.8789-.298-1.2333-.382-.4537-1.112-.5529-1.759-.6238-5.558-.6096-11.133-1.0916-16.725-1.4318 4.978.8222 10.121 1.8713 14.85 2.9912.929.2269.996.8364 1.377 1.5878.365.7514.398 1.6019.432 2.41.016.3402.016.6805-.116 1.0065-.283.723-1.178 1.12-1.975 1.4602.597.1418 1.195.2835 1.809.4395.149.0425.298.0709.398.1701.116.0992.166.2694.182.4253.233 1.3468.05 2.7644.067 4.1254.016.8789.016 1.7578.033 2.6368.016.241.116.4678.182.723.1.5103.034 1.0349-.149 1.531-.365 1.0207-1.178 1.928-2.223 2.5093-1.809 1.0065-4.065 1.2192-6.222 1.3467-3.601.2269-7.218.1985-10.801.4962-1.195.0851-2.373.1843-3.568.2694-2.372.1701-4.762.3119-7.134.4536-4.497.2552-9.01.4537-13.506.5813-10.652.3118-21.32.2835-31.989.2268-1.278-.0284-2.572-.0284-3.849-.0284-1.046 0-2.041.1134-3.07.0284-2.505-.2127-4.994.1701-7.483.4111-2.903.2694-6.023.2977-8.528-.9782-.796-.4111-1.576-.9498-2.505-.9782-.764-.0141-1.477.3545-2.174.638-1.327.5387-2.787.8364-4.247.9923-.034 0-.05 0-.083.0142-3.103.3403-6.09.156-9.192-.0283-2.273-.1276-4.662.1984-6.836-.4962-1.6758-.5245-3.4345-1.2759-5.1601-.879-.6139.1418-1.1614.4253-1.7421.6238-1.1283.3828-2.3727.4537-3.5839.5104-.7632.0283-1.5264.0567-2.2896.085-3.1691.0851-6.3547.0709-9.5237-.0425-1.3274-.0567-2.6879-.0425-3.9821-.3686-.896-.2268-1.7753-.0851-2.7045-.0283-3.8493.2126-7.7152.2693-11.5811.1559-1.5762-.0425-3.1524-.1134-4.712-.2127-.7633-.0425-1.5597-.1701-2.3229-.1701-.5309 0-1.0121.1418-1.543.1418-3.2023-.0142-6.3879-.0567-9.5901-.0851-5.4587-.0425-10.9341-.0992-16.3928-.1417-3.7331.4394-6.869-.1134-10.569-.6947-3.0363-.482-6.33805-1.531-7.59903-3.941-.53094-1.0066-.6139-2.1265-.56412-3.2039.01659-.3261.04977-.638 0-.964-.04978-.2977-.16592-.5671-.2157-.8648-.16591-.9782.18251-2.1123.46458-3.0621.14932-.482.33183-.9924.74663-1.361.36502-.3402.87937-.5387 1.39371-.6804 1.36053-.3686 2.80403-.4537 4.23093-.5246 2.0574-.0992 4.1148-.2126 6.1722-.3118.4148-.0142.8295-.0426 1.2443-.0567-.0497-.1702-.0829-.3403-.0829-.5246l.0166-.0709c-1.261-.0283-2.522-.0283-3.783-.0425-3.252.0567-7.59902.0425-9.82233 1.4602-.99551.6379-1.17802 1.8146-1.27757 2.8636-.09955 1.0349-.13274 2.0982-.29866 3.133-.04977.3119-.1991.5671-.29865.8648-.06637.1985-.08296.3828-.09955.5812-.06637 1.12.03318 2.2399.53094 3.2606 1.11165 2.325 3.91567 4.1537 6.93542 4.1537 67.6449 2.5376 136.4011 2.5093 206.2531-.0141 4.447-.156 7.848-3.4307 7.533-7.23z"/><path d="m15.8144 35.1626c0 .7655.0332 1.5452.083 2.3108.0166.3827.0498.7655.0829 1.1483.0166.2835 0 .5954.0664.8647.0664.2268.1327.4253.1327.6663.0332.6521.0664 1.3184.1162 1.9705.0664 1.3185.1493 2.6227.2157 3.9411.0995 1.687.1825 3.3598.282 5.0468.0498.9357.2323 1.7437.813 2.5376.1162.156.2157.3119.3485.4537.2157.241.4811.4111.813.5387 1.2112.4536 2.5883.6946 3.8991.8648 2.0242.2693 4.065.3402 6.1057.3969 26.8954.8081 53.824 1.6303 80.7364 1.0632 3.285-.0709 6.686-.1417 9.739.9073-1.394-2.1265-4.762-2.4383-7.616-2.495-29.8982-.5813-59.8133-1.2334-89.6122-3.3599-.813-.0567-1.709-.1417-2.2897-.6521-.4148-.3544-.5807-.8648-.7135-1.3468-1.5264-5.2594-1.8251-10.7741-.8959-16.1328.0498-.326.1659-.6805.1493-1.0065-.0166-.3403-.0664-.6805-.0664-1.0349-.0165-.7088.0166-1.4318.0996-2.1407-.1161-.1701-.3982-.1701-.6139-.1417-.5641.0567-1.1282.0992-1.709.1559.0332.4678 0 .9073-.0663 1.3751-.0166.156.0166.2694.0332.4253.0331.3119-.0332.638-.0498.9357-.0332.4536-.0498.9215-.0664 1.3751 0 .4395-.0166.8931-.0166 1.3326z"/><path d="m120.427 58.1289c.332-.723 1.443-.8506 2.356-.8648 7.25-.1276 14.484-.241 21.735-.3686 6.836-.1134 13.688-.2268 20.524-.3544 2.207-.0425 4.563-.0425 6.388 1.0207-.033-.2268-.083-.4536-.116-.6805.78-.1134 1.526-.2551 2.323-.1984.431.0283.879-.0993 1.311-.1418 1.012-.1134 2.04-.1559 3.052-.1985 5.625-.2126 11.266-.2835 16.908-.5245 1.426-.0567 2.837-.1418 4.264-.2268 1.41-.0851 2.837-.156 4.231-.3261.199-.0283.381-.085.58-.0992.266-.0142.531-.0284.797-.0425 1.427-.0993 2.87-.3261 4.197-.8506 1.66-.6521 3.12-1.8146 3.651-3.3031.232-.6663.282-1.361.331-2.0556.166-3.1756.117-6.3653-.165-9.5266-.183-.156-.648.1276-.714.3544-.68 2.3107-1.195 4.6499-1.526 7.0032-.199 1.4034-.365 2.892-1.378 3.9977-1.111 1.205-2.969 1.687-4.728 2.0273-9.341 1.8429-18.998 2.0272-28.571 2.1973-8.927.156-17.853.3261-26.763.482-7.433-.2126-15.049.7939-22.432.1134-2.074-.1984-4.165-.5103-6.239-.2551-.149.0141-.315.0425-.431.1417-.083.0709-.1.1701-.133.2694-.249.7372.15 1.6728.548 2.41z"/></g><path d="m212.661 44.6755c-.017-2.6936-.05-5.3871-.083-8.0948-.017-2.5943-.05-5.1744-.067-7.7687-.033-3.1189.116-6.266-.315-9.3565-.083-.6096-.265-1.2334-.249-1.8429.017-.9215-.199-1.6303-.68-2.5093-.614-1.1908-1.493-2.2824-2.489-3.2748-2.157-2.18313-5.26-2.28237-8.495-2.39578-3.401-.12759-6.786-.01417-10.171-.02835-3.783-.01418-7.582-.02835-11.365-.05671-4.613-.02835-9.209-.07088-13.821-.11341-4.613-.04253-9.225-.08506-13.838-.12759-2.306-.01417-4.612-.04253-6.919-.0567-.481 0-.978-.04253-1.443.0567-.299.05671-.564.15594-.863.1843-1.029.08506-2.207-.14177-3.219-.31189.133-2.02723.548-4.04029 1.245-5.99665-.946 2.01306-2.024 3.98359-3.252 5.88324-.083.12759-.166.25518-.315.31189-.15.0567-.332.04252-.482.02835-.348-.04253-.713-.07088-1.062-.14177-.796-.17011-1.642-.09923-2.472-.09923-3.567-.02835-7.118-.04253-10.685-.05671-7.002-.02835-14.003-.01417-20.989.02836-7.499.04253-14.9986-.04253-22.5147-.07089-2.0408-.01417-4.0815-.02835-6.1058-.02835-.8793 0-1.7255-.02835-2.5717.12759-.8794.17012-1.9578.02835-2.8538-.01418-.4977-.02835-1.0287-.07088-1.4269-.34023-.3982-.25518-.5807-.6663-.7632-1.06324-.365-.82224-.73-1.64447-1.0951-2.46671.0498.964.166 1.91383.3485 2.86365.0497.31188.0829.70883-.2489.86477-.0996.04253-.2323.0567-.3484.07088-.3983.02835-.813.11341-1.2112.04253-.7633-.12759-1.5265-.08506-2.3063-.08506-8.5282 0-17.0232-.02835-25.5183-.05671-4.7618-.01417-16.2102-2.08394-17.7698 3.4449-.2157.7655-.1991 1.5594-.2655 2.3533-.1659 2.3816-.0664 4.7775-.0166 7.1733.1328 7.8963.3982 15.7926.7632 23.6747.0498 1.205.1162 2.4242.2987 3.6292.1493.9498.0664 2.1974.9457 2.9345.2987.2552.5144.4962.7799.7939.5309.5812 1.2609 1.0207 2.0573 1.3326 1.709.6805 3.6834.8648 5.5749.9357 6.1722.2551 12.3277.4678 18.4833.6237 6.2053.1701 12.3941.3261 18.5994.4253 6.2054.0992 12.3941.1701 18.5995.1985 5.6246.0283 11.2493.0425 16.8739.0567h8.6109c3.103 0 6.853-.8222 9.706.4395 1.427.6237 2.622 1.6303 3.302 2.8778-.116-1.0065-.083-2.0273.1-3.0338 2.256-.2693 4.513-.4395 6.786-.4678.979-.0142 1.925.1134 2.903.0992 1.145 0 2.307-.0141 3.452-.0141 4.612-.0284 9.225-.0568 13.837-.0993 2.854-.0283 5.708-.0567 8.578-.085 6.205-.0567 12.394-.1843 18.6-.3828 1.111-.0425 2.239-.0709 3.351-.1134 8.545-.2835 17.09-.7088 25.618-1.2901.73-.0567 1.427-.1134 2.107-.2268 1.095-.1843 2.124-.5104 3.02-1.1625 1.095-.7939 2.157-1.6444 2.887-2.6935 1.178-1.687.879-3.615.863-5.5288zm-4.63 3.6575c-.448.6379-1.277 1.2759-1.957 1.7579-.166.1134-.415.2552-1.062.3544-.481.0851-1.046.1276-1.61.1701-8.179.5529-16.741.9782-25.435 1.2901-1.112.0425-2.207.0709-3.318.0992-6.504.1985-12.544.3261-18.484.3828-17.637.1843-35.008.2835-51.667.2835-7.466 0-14.9323-.0142-22.4152-.0567-6.139-.0425-12.3941-.0992-18.5331-.1985-6.139-.0992-12.3775-.241-18.5331-.4111-6.1555-.1701-12.3609-.3828-18.4335-.6379-1.3439-.0426-2.8704-.156-3.9489-.5813-.2654-.1134-.3982-.1984-.4313-.2268-.1991-.2268-.448-.4962-.7301-.7797-.0166-.1418-.0332-.2977-.0498-.4253-.0331-.2552-.0497-.4962-.0829-.7372-.1493-1.0207-.1991-2.0697-.2655-3.3314-.3816-7.7971-.6471-15.7359-.7632-23.5755l-.0166-1.3326c-.0498-1.9422-.083-3.771.0498-5.5714.0166-.1985.0166-.4111.0332-.6379.0165-.4395.0331-.8364.0995-1.0633.1493-.482 1.7421-.9781 5.0439-.9781 1.626 0 3.3682.1134 4.8946.2126 1.3108.0992 2.5552.1701 3.617.1701 7.5825.0284 15.1816.0425 22.7806.0425h4.2641c5.6744 0 11.3488.0142 17.0398.0426l5.4753.0283c3.9987.0284 8.0139.0426 12.0125.0426 1.6758 0 3.3682 0 5.0769-.0142 4.231-.0284 8.445-.0425 12.676-.0425 14.319 0 28.92.1417 43.023.2693 11.067.0992 22.532.1985 33.748.241l.547.0142c.996 0 1.958-.0142 2.954-.0142.962-.0142 1.924-.0142 2.87-.0142 1.394 0 2.555.0142 3.601.0567h.116c3.036.1276 4.446.2552 5.276 1.0916.846.8506 1.427 1.6303 1.825 2.3817.299.5812.299.7372.299.964-.017.7372.116 1.3751.199 1.8854.016.1418.05.3119.083.4537.298 2.1548.282 4.3664.282 6.7196-.017.7372-.017 1.4744 0 2.2116l.149 15.8209c.017.3545.017.6805.033 1.0066.017 1.1199.05 2.1123-.332 2.6368z" fill="url(#e)"/><g fill="#eb924d"><path d="m15.8968 30.1587 5.0771-.8648-.2157-.4111-5.2596.5387z"/><path d="m206.969 17.2157 5.89.4253v-1.1342l-6.371.241z"/><path d="m207.382 38.8915 6.521 1.0633-.133-.8932-7.001-.5245z"/><path d="m188.319 34.1278c-4.961-2.3674-13.207-1.6444-17.139 1.5453-2.472 2.013-2.605 5.7698 0 7.7687 5.724 4.4089 15.779 2.5234 19.412-2.9204.067-.0567.133-.1134.216-.1559 2.771-2.1407.797-5.699-2.489-6.2377z"/></g><path d="m189.497 32.044c-4.961-2.3675-13.207-1.6445-17.14 1.5452-2.472 2.0131-2.604 5.7698 0 7.7687 5.725 4.4089 15.779 2.5234 19.413-2.9204.066-.0567.133-.1134.216-.1559 2.77-2.1406.796-5.6989-2.489-6.2376z" fill="url(#f)"/><path d="m188.319 33.3907c-4.961-2.3675-13.207-1.6445-17.139 1.5452-2.472 2.0131-2.605 5.7698 0 7.7687 5.724 4.4089 15.779 2.5234 19.412-2.9204.067-.0567.133-.1134.216-.1559 2.771-2.1406.797-5.6989-2.489-6.2376z" fill="url(#g)"/><path d="m169.456 25.3949c-3.136-1.5027-8.329-1.0349-10.801.9782-1.56 1.2617-1.643 3.6433 0 4.905 3.617 2.7786 9.955 1.5878 12.245-1.8429.049-.0284.082-.0709.132-.0993 1.742-1.3609.498-3.6008-1.576-3.941z" fill="#eb924d"/><path d="m170.202 24.0907c-3.136-1.5027-8.329-1.0349-10.801.9782-1.56 1.2617-1.643 3.6433 0 4.905 3.617 2.7786 9.955 1.5878 12.245-1.8429.049-.0284.083-.0709.132-.0993 1.742-1.3751.498-3.615-1.576-3.941z" fill="url(#h)"/><path d="m169.456 24.9271c-3.136-1.5028-8.329-1.0349-10.801.9781-1.56 1.2759-1.643 3.6434 0 4.9051 3.617 2.7786 9.955 1.5878 12.245-1.8429.049-.0284.082-.0709.132-.0993 1.742-1.3609.498-3.6008-1.576-3.941z" fill="url(#i)"/><path d="m41.7635 39.7705c-3.1359-1.5027-8.3291-1.0349-10.8013.9782-1.5596 1.2617-1.6426 3.6433 0 4.905 3.617 2.7786 9.9551 1.5878 12.2448-1.8429.0498-.0284.0829-.0709.1327-.0992 1.7422-1.361.4978-3.6009-1.5762-3.9411z" fill="#eb924d"/><path d="m42.5104 38.452c-3.1358-1.5027-8.3291-1.0349-10.8013.9782-1.5596 1.2759-1.6426 3.6433 0 4.9051 3.617 2.7785 9.9551 1.5877 12.2448-1.843.0498-.0283.083-.0709.1327-.0992 1.7422-1.361.4978-3.6009-1.5762-3.9411z" fill="url(#j)"/><path d="m41.7635 39.3026c-3.1359-1.5028-8.3291-1.0349-10.8013.9781-1.5596 1.2759-1.6426 3.6434 0 4.9051 3.617 2.7786 9.9551 1.5878 12.2448-1.8429.0498-.0284.0829-.0709.1327-.0993 1.7422-1.3609.4978-3.6008-1.5762-3.941z" fill="url(#k)"/><path d="m17.9999 17c0-3.3137 2.6863-6 6-6h176.0001c5.523 0 10 4.4772 10 10v23c0 5.5228-4.477 10-10 10h-174.0001c-4.4183 0-8-3.5817-8-8z" fill="#eb924d" opacity=".9"/><path d="m75.3521 40.8125c-.0937.0469-.1875.0781-.2812.0937-.0938.0157-.1954.0313-.3047.0469-.0469-.0312-.0938-.039-.1407-.0234-.0312 0-.0859-.0078-.164-.0235-.1406 0-.2188.0079-.2344.0235 0 0-.0078 0-.0234 0-.0625.0156-.1719.0391-.3282.0703-.0781.0156-.1484.0312-.2109.0469-.0625.0156-.1328.0312-.2109.0469-.125.0156-.25.0156-.375 0-.125 0-.25 0-.375 0-.1094.0156-.2657.0156-.4688 0-.2031-.0157-.3672-.0079-.4922.0234-.125-.0313-.2109-.0469-.2578-.0469-.0312.0156-.0625.0235-.0937.0235h-.3516c-.1562-.0157-.2578-.0235-.3047-.0235-.0469.0156-.0937.0235-.1406.0235-.2813.0312-.4453.0546-.4922.0703-.25 0-.4141-.0079-.4922-.0235-.1406-.0312-.2265-.0547-.2578-.0703-.0312-.0156-.0625-.0391-.0937-.0703-.125-.0625-.1875-.1094-.1875-.1406 0-.0313-.0157-.0469-.0469-.0469-.0313-.0937-.0547-.1953-.0703-.3047 0-.125-.0078-.25-.0235-.375-.0156-.0625-.039-.1719-.0703-.3281 0-.0625 0-.125 0-.1875.0156-.0625.0156-.1328 0-.211-.0469-.1406-.0859-.289-.1172-.4453-.0468-.1562-.0703-.2421-.0703-.2578 0-.0312-.0078-.0547-.0234-.0703-.1719.0313-.2578.0469-.2578.0469-.1094.0781-.1875.1328-.2344.1641-.0313.0156-.0391.0546-.0234.1171-.1094 0-.1875.0547-.2344.1641-.125.1562-.1875.2422-.1875.2578s-.0156.0391-.0469.0703c-.0312.0625-.0781.125-.1406.1875-.0469.0469-.086.0938-.1172.1406-.0781.0626-.1563.1485-.2344.2579-.0312.0468-.0703.1015-.1172.164-.0312.0469-.0703.1016-.1172.1641-.0937.125-.1484.2031-.164.2344 0 .0156-.0078.0312-.0235.0468-.1093.125-.1718.1954-.1875.211-.0156 0-.0312.0078-.0468.0234-.0625.0625-.125.1094-.1875.1406-.0469.0313-.086.0547-.1172.0704-.25 0-.4297-.0313-.5391-.0938-.0469-.0312-.0937-.0625-.1406-.0938-.0313-.0312-.0781-.0624-.1406-.0937-.1563-.1719-.2422-.2656-.2578-.2813-.0782-.1093-.1172-.1718-.1172-.1874 0-.0157-.0078-.0313-.0235-.0469-.0937-.125-.1406-.1953-.1406-.211 0-.0156-.0078-.0312-.0234-.0468-.1407-.2188-.2891-.4063-.4453-.5625l-.1875-.211c-.0625-.125-.1016-.1953-.1172-.2109 0-.0313-.0078-.0547-.0235-.0703-.1406-.1406-.2422-.2344-.3047-.2813-.1875-.0625-.2968-.0937-.3281-.0937-.0312.0625-.0625.125-.0937.1875-.0313.0469-.0625.1015-.0938.164l-.1172.3047c-.0781.125-.1172.2032-.1172.2344s-.0078.0625-.0234.0938c-.0781.1874-.1172.3359-.1172.4453-.0937.2343-.1797.4218-.2578.5625-.0625.1406-.1484.2656-.2578.375-.125.0781-.2734.1328-.4453.164-.1719.0469-.3281.0313-.4688-.0468h-.6562c-.1094 0-.1797-.0079-.211-.0235-.0156 0-.039 0-.0703 0-.1875.0313-.3047.0391-.3515.0235-.0313 0-.0703 0-.1172 0-.0313.0156-.0781.0156-.1406 0-.0469 0-.086 0-.1172 0h-.5391c-.0625 0-.125 0-.1875 0-.0469.0156-.1016.0156-.1641 0-.1562 0-.2421 0-.2578 0-.0156.0156-.039.0234-.0703.0234-.1719.0156-.2734.0234-.3047.0234-.0937.0156-.164.0235-.2109.0235-.0313.0156-.0859.0234-.1641.0234-.0781.0156-.1718.0078-.2812-.0234-.0938-.0157-.1641-.0079-.211.0234-.0468-.0313-.0937-.0547-.1406-.0703-.0312 0-.0625-.0156-.0937-.0469-.125-.1094-.1953-.1641-.211-.1641-.1718-.1874-.2734-.3046-.3047-.3515.0157-.0625.0157-.1172 0-.1641-.0312-.0468-.0468-.0859-.0468-.1172l.0468-.2578c.0157-.0625.0391-.1094.0704-.1406.0156-.0312.0156-.0781 0-.1406.0468-.0625.0859-.125.1171-.1875.0313-.0625.0625-.125.0938-.1875.0312-.0625.0469-.1094.0469-.1406.0156-.0469.039-.1016.0703-.1641l.1172-.2344c.0781-.1406.1172-.2344.1172-.2812.0781-.1719.125-.2657.1406-.2813.0312-.0156.0312-.039 0-.0703.1094-.1406.1719-.2422.1875-.3047.0156-.0781.0312-.1406.0469-.1875.0468-.1719.0781-.2734.0937-.3047.0781-.1718.1172-.2578.1172-.2578.0312-.0937.0547-.1484.0703-.164.0156-.0157.0313-.0391.0469-.0704.0781-.1718.1172-.2656.1172-.2812.0156-.1406.0468-.2344.0937-.2813.0625-.0625.0781-.125.0469-.1875.0312-.0312.0469-.0703.0469-.1172.0156-.0468.039-.0937.0703-.1406.0312-.0625.0547-.125.0703-.1875s.0391-.125.0703-.1875c.0625-.125.0938-.2265.0938-.3047l.1171-.2343c.0313-.125.0469-.1875.0469-.1875.0156-.0157.0313-.0391.0469-.0703.0156-.0469.0234-.086.0234-.1172.0157-.0469.0313-.1016.0469-.1641.0781-.1719.1172-.2734.1172-.3047 0-.0312.0156-.0547.0469-.0703.0781-.2031.1172-.3203.1172-.3516 0-.0468.0078-.0859.0234-.1171.0312-.0782.0625-.1641.0937-.2579.125-.2343.1954-.3984.211-.4921.0156-.0938.039-.1954.0703-.3047.0469-.1719.0859-.2735.1172-.3047.0625-.1875.0937-.2969.0937-.3282 0-.0312.0078-.0624.0235-.0937.0156-.0625.0234-.1172.0234-.1641.0156-.0625.0313-.1328.0469-.2109.0469-.1406.0781-.2266.0937-.2578l.0938-.2578c.0469-.0469.0703-.086.0703-.1172.0156-.0469.0312-.0859.0469-.1172.0781-.2344.1406-.3828.1875-.4453.0468-.0781.0859-.1641.1172-.2578.0156-.0469.0312-.0938.0468-.1406.0157-.0626.0469-.1094.0938-.1407.0312-.2031.0469-.3047.0469-.3047.0625-.125.0937-.1953.0937-.2109s.0078-.0313.0234-.0469c.0469-.0937.0704-.1484.0704-.164 0-.0313.0156-.0625.0468-.0938.0469-.125.0703-.1953.0703-.2109.0157-.0157.0235-.0391.0235-.0703.0312-.0625.0547-.1172.0703-.1641s.0391-.0859.0703-.1172c.0313-.1562.0469-.2344.0469-.2344.0156 0 .0234-.0078.0234-.0234.0469-.1563.086-.2656.1172-.3281.0781-.1719.125-.2735.1406-.3047.1094-.3125.1719-.5078.1875-.5859.0313-.2032.0547-.336.0703-.3985.0625-.125.0938-.2031.0938-.2344 0-.0312.0078-.0625.0234-.0937.0625-.1406.1016-.2188.1172-.2344.0156-.0312.0313-.0625.0469-.0937.0937-.25.1406-.375.1406-.375.0938-.1875.1485-.2969.1641-.3282.0156-.0468.039-.0859.0703-.1171.0937-.1563.1562-.25.1875-.2813.0937-.1094.1562-.1953.1875-.2578l.3281-.3281.2344-.1407c.125-.0625.2109-.1015.2578-.1171.0469-.0157.0938-.0235.1406-.0235.1875-.0312.3047-.0469.3516-.0469.0469-.0156.0937-.0234.1406-.0234.1563.0469.2578.0703.3047.0703h.1172c.1094.0625.2109.0938.3047.0938.1719.0781.2656.1171.2812.1171.1563.0157.25.0235.2813.0235.0312 0 .0625.0156.0937.0469.1875.0468.3125.0546.375.0234.1719.0781.2657.1172.2813.1172s.039.0078.0703.0234c.1094.0469.1797.0703.2109.0703.0469-.0156.0938-.0234.1407-.0234.0781-.0156.1484-.0234.2109-.0234.0625-.0157.1328-.0313.2109-.0469.1719-.0313.2735-.0547.3047-.0703.0469-.0313.0938-.0547.1406-.0703.1563-.0469.2344-.0704.2344-.0704.0156-.0156.0313-.0234.0469-.0234.0469-.0156.0937-.0234.1406-.0234h.1641c.1562-.0156.25-.0391.2812-.0703.1875-.0313.3828-.0313.586 0 .2656.0468.4687.0703.6093.0703.1407-.0156.2422.0234.3047.1172.1094.0937.1875.164.2344.2109.0781.0469.1328.1328.1641.2578.0312.1094.0703.2031.1172.2813.0625.1093.0937.1875.0937.2343.0156.0469.0313.086.0469.1172.0156.1094.0312.1719.0469.1875.0156.0156.0234.0391.0234.0703.0469.2032.0781.3282.0937.375.0157.0469.0235.0938.0235.1407.0156.0312.0312.0703.0469.1172.0468.2187.0781.3593.0937.4218.0313.0625.0547.1328.0703.211.0156.0781.0313.1484.0469.2109s.0156.125 0 .1875c.0625.2344.1016.3828.1172.4453s.039.1328.0703.2109c.0469.2032.0703.336.0703.3985.0156.0625.0313.1328.0469.2109.0781.1875.1172.3047.1172.3516 0 .0312.0078.0703.0234.1172l.1406.3984c.0469.1563.0625.2734.0469.3516 0 .0625.0156.1094.0469.1406 0 .0781.0312.1953.0937.3516.0938.2031.1328.3437.1172.4218 0 .0782.0156.1485.0469.211.0156.0937.0469.1797.0937.2578.0625.125.0938.2109.0938.2578s.0078.0938.0234.1406c.0625.125.0938.211.0938.2578.0469.1094.1015.211.164.3047.0313.0313.0469.0781.0469.1407 0 .0468.0078.0937.0235.1406.0625.2031.0937.3359.0937.3984.0156.0625.0391.125.0703.1875.0156.0625.0313.125.0469.1875.0156.0469.0391.1094.0703.1875.0469.125.0703.1953.0703.2109.0156 0 .0235.0157.0235.0469.0781.1719.1328.2891.164.3516.0156.0312.0235.0781.0235.1406 0 .0469.0156.0859.0468.1172.0157.0469.0313.1094.0469.1875.0156.0625.0234.1094.0234.1406.0625.1406.0938.2422.0938.3047.0156.0469.0391.1016.0703.1641.0313.0468.0469.1015.0469.164.0156.0625.039.125.0703.1875.0625.1094.0937.1797.0937.211 0 .0312.0079.0625.0235.0937.0781.125.1172.2032.1172.2344 0 .0156.0156.0391.0468.0703.0625.1406.0938.2266.0938.2578 0 .0157.0156.0391.0469.0703.0312.0469.0468.0938.0468.1407.0157.0468.0391.0937.0704.1406.0625.1719.1015.2734.1171.3047.0938.2031.1563.3515.1875.4453.0313.0937.0782.1875.1407.2812.0781.1563.1093.2579.0937.3047 0 .0469.0078.086.0235.1172.0625.1406.0937.2266.0937.2578.0156.0313.0313.0625.0469.0938.0156.0781.0469.1718.0937.2812.0469.0625.0782.125.0938.1875.0156.0469.0312.086.0469.1172.0781.2031.1953.375.3515.5156 0 .0782.0156.1485.0469.211.0469.0469.0859.1093.1172.1875.0781.1875.1172.3047.1172.3515 0 .0313.0078.0782.0234.1407 0 .0937-.0156.164-.0469.2109-.0156.0313-.0312.0703-.0468.1172-.0313.0469-.0469.0937-.0469.1406 0 .0313-.0156.0703-.0469.1172zm-7.6875-6.3281c-.0312-.1406-.0469-.2422-.0469-.3047-.0312-.0781-.0625-.1485-.0937-.2109-.0156-.0626-.0313-.1329-.0469-.211-.0312-.0781-.0625-.1719-.0937-.2812-.0157-.1094-.0313-.2032-.0469-.2813-.0938-.2031-.1406-.3203-.1406-.3515 0-.0469-.0157-.086-.0469-.1172-.0469-.0938-.0703-.1563-.0703-.1875 0-.0469-.0078-.086-.0235-.1172-.0781-.1719-.125-.2891-.1406-.3516s-.0391-.1094-.0703-.1406c-.0938-.1875-.1406-.2813-.1406-.2813-.0469-.2031-.0782-.3203-.0938-.3515-.0156-.0469-.0312-.0938-.0469-.1407 0-.1093-.0078-.1718-.0234-.1874-.0156-.0157-.0234-.0391-.0234-.0704-.0313-.0625-.0547-.125-.0703-.1875 0-.0625-.0157-.1171-.0469-.164 0-.1407-.0078-.211-.0235-.211-.0156-.0156-.0234-.0312-.0234-.0468-.0156-.0782-.0312-.1563-.0469-.2344 0-.0781-.0156-.1328-.0468-.1641-.125.0469-.1954.086-.211.1172 0 .0156-.0078.0391-.0234.0703-.0938.1719-.1406.2813-.1406.3281.0156.0469.0078.0938-.0235.1407-.0156.0625-.039.1172-.0703.164-.0312.0313-.0625.0782-.0937.1407-.1094.2187-.1719.3672-.1875.4453l-.0704.2578c-.0156.125-.0625.25-.1406.375-.0156.0469-.0312.1015-.0469.1641 0 .0468-.0078.0859-.0234.1171-.0312.0469-.0625.0938-.0937.1407-.0157.0468-.0391.1015-.0704.164-.0156.0625-.0234.125-.0234.1875s-.0156.1094-.0469.1407c-.0468.1093-.0703.1718-.0703.1874 0 .0157-.0078.0391-.0234.0704-.0938.1875-.1485.3046-.1641.3515-.0156.0313-.0234.086-.0234.1641-.0938.1562-.1563.2969-.1875.4219-.0625.1875-.0781.3203-.0469.3984.1719.2031.3047.3047.3984.3047.1094 0 .2266-.0078.3516-.0234.125-.0157.2344-.0235.3281-.0235.1094-.0156.2032-.0234.2813-.0234.1562 0 .2734-.0078.3515-.0235.0938-.0156.1797-.0234.2579-.0234.1718.0156.2812.0234.3281.0234.0469-.0156.0859-.0156.1172 0l.4922.0938c.1875-.0938.2812-.1797.2812-.2578zm16.3359.8203c.0313-.0313.0469-.0703.0469-.1172.0156-.0469.0391-.0937.0703-.1406.0625-.1563.0938-.2344.0938-.2344.0156 0 .0234-.0156.0234-.0469.0313-.0625.0547-.125.0703-.1875.0157-.0625.0391-.1328.0703-.2109.0625-.0781.0938-.1406.0938-.1875.0156-.0469.0391-.0859.0703-.1172.0625-.1719.1016-.2734.1172-.3047.0469-.1094.0703-.1875.0703-.2344 0-.0625.0078-.1172.0234-.164.0782-.1875.1172-.2891.1172-.3047s.0078-.0391.0235-.0703c.0468-.125.0859-.211.1172-.2578.0312-.0469.0546-.1016.0703-.1641l.1172-.3516c.0468-.1718.0781-.2578.0937-.2578.0313-.0156.0313-.039 0-.0703.0625-.1406.1016-.2187.1172-.2344.0156-.0156.0312-.039.0469-.0703.0312-.1093.0468-.1719.0468-.1875 0-.0312.0079-.0547.0235-.0703.0469-.125.0703-.1953.0703-.2109.0156-.0156.0234-.0313.0234-.0469.0782-.1719.1016-.2734.0703-.3047-.0156-.0469-.0156-.0937 0-.1406 0-.0469.0157-.0938.0469-.1406.0313-.0625.0547-.1172.0703-.1641.0469-.2187.0703-.3594.0703-.4219.0157-.0625.0391-.1328.0704-.2109.0156-.0625.0234-.125.0234-.1875.0156-.0625.0391-.1172.0703-.1641.0625-.1719.1016-.2812.1172-.3281.0312-.0469.0547-.0938.0703-.1406.0156-.1563.0313-.25.0469-.2813.0156-.0469.0312-.1093.0469-.1875.0156-.125.0312-.1953.0468-.2109.0157-.0156.0235-.0313.0235-.0469.0312-.0625.0625-.1797.0937-.3516.0625-.1718.0938-.2968.0938-.375.0468-.2187.0781-.3437.0937-.375.0781-.1718.1172-.2734.1172-.3046 0-.0469.0078-.0938.0234-.1407.0625-.0937.0938-.1484.0938-.164 0-.0157.0078-.0391.0234-.0703.0157-.0313.0157-.0704 0-.1172 0-.0469.0078-.0938.0235-.1406.0468-.1094.0703-.1719.0703-.1876 0-.0156.0078-.039.0234-.0703.0781-.1406.1172-.2187.1172-.2343l.0938-.3047c.0156-.0469.0234-.086.0234-.1172.0156-.0469.0234-.1016.0234-.1641.0469-.1406.086-.2422.1172-.3047.0469-.0781.086-.1562.1172-.2343.0625-.1719.0938-.2578.0938-.2578.0312-.0626.0546-.1329.0703-.211.0156-.0781.039-.1484.0703-.2109.1719-.2657.4609-.3828.8672-.3516.1718 0 .3125.0235.4218.0703.125.0469.2657.086.4219.1172.0938.0313.1953.0469.3047.0469.125 0 .2344.0078.3281.0234.0625.0157.1172.0313.1641.0469.0625.0156.1172.0312.1641.0469.0781.0156.1562.0234.2343.0234h.2578.2344c.0781-.0156.1563-.0156.2344 0 .0625 0 .1172.0078.1641.0235.0625.0156.1171.0234.164.0234.0781.0156.1485.0234.211.0234h.1875c.125.0156.2343.0235.3281.0235.1094-.0157.2187-.0235.3281-.0235.1406.0625.2188.1094.2344.1406.0312.0157.0625.0391.0937.0704.1094.0312.1875.0937.2344.1875.0469.0937.1094.1797.1875.2578-.0156.0469-.0156.0937 0 .1406.0313.0313.0469.0703.0469.1172-.0313.1719-.0469.2578-.0469.2578-.0156.0625-.0391.1094-.0703.1406-.0156.0313-.0234.0781-.0234.1407-.0313.0468-.0625.1093-.0938.1874-.0312.0626-.0625.1329-.0937.211-.0625.1094-.1094.2031-.1407.2812-.0312.0625-.0625.1328-.0937.211-.0938.2031-.1485.3281-.1641.375 0 .0312-.0156.0625-.0469.0937-.0625.1719-.1015.2657-.1171.2813-.0157.0156-.0313.039-.0469.0703-.0469.0625-.0703.1172-.0703.1641 0 .0312-.0078.0624-.0235.0937-.0781.1563-.1172.2578-.1172.3047 0 .0312-.0078.0625-.0234.0937-.0781.1563-.1172.2344-.1172.2344-.0781.1719-.125.2813-.1406.3281 0 .0469-.0156.0938-.0469.1407-.0469.1718-.0937.289-.1406.3515-.0469.0469-.0547.1016-.0234.1641-.0313.0312-.0547.0703-.0704.1172-.0156.0469-.039.0859-.0703.1172-.0312.1406-.0781.2812-.1406.4218-.0469.1094-.0703.1953-.0703.2579-.0625.1406-.1016.2187-.1172.2343v.0235c-.0312.1093-.0625.1953-.0937.2578-.0313.125-.0625.2187-.0938.2812-.0625.1719-.1016.2735-.1172.3047 0 .0313-.0156.0469-.0469.0469.0157.0625.0079.1172-.0234.164-.0156.0313-.0312.0704-.0469.1172-.0625.1719-.0937.2813-.0937.3282-.0625.1875-.1172.289-.1641.3046-.0312.125-.0547.211-.0703.2579-.0156.0468-.0391.1171-.0703.2109-.0313.1562-.0703.3125-.1172.4688-.0312.0781-.0547.1328-.0703.164-.0156.0156-.0313.0391-.0469.0703-.0156.0313-.0234.0703-.0234.1172s-.0078.0938-.0235.1406c-.0156.0625-.0468.125-.0937.1875-.0313.0469-.0625.1016-.0938.1641l-.1406.3281c-.0312.0469-.0547.0938-.0703.1406 0 .0469-.0156.0938-.0469.1407-.0312.1093-.0781.2031-.1406.2812-.0625.1563-.0937.25-.0937.2813 0 .0312-.0079.0625-.0235.0937-.0625.1407-.0937.2344-.0937.2813 0 .0312-.0078.0625-.0235.0937-.0312.0469-.0547.1016-.0703.1641s-.039.125-.0703.1875c-.0781.1406-.1172.2265-.1172.2578s-.0078.0625-.0234.0937c-.0625.0938-.1016.1641-.1172.211 0 .0312-.0156.0703-.0469.1172-.0781.1406-.1172.2344-.1172.2812 0 .0469-.0078.086-.0234.1172-.0469.0625-.0781.1094-.0938.1406-.0156.0313-.0234.0625-.0234.0938-.125.1875-.1953.3125-.2109.375-.0157.0625-.0391.1328-.0703.2109-.0938.1719-.1563.3047-.1875.3985-.0313.0781-.0704.164-.1172.2578-.0782.125-.1172.2109-.1172.2578s-.0078.0937-.0235.1406c-.0781.1406-.1171.2344-.1171.2813 0 .0312-.0079.0625-.0235.0937-.0937.1406-.1406.2344-.1406.2813 0 .0312-.0156.0625-.0469.0937-.0625.0938-.0937.1563-.0937.1875 0 .0313-.0078.0703-.0235.1172-.0156.0313-.039.0703-.0703.1172-.0312.0312-.0547.0703-.0703.1172-.0469.1719-.0781.2656-.0937.2812-.0157.0157-.0313.0391-.0469.0703-.0156.0469-.0235.1016-.0235.1641 0 .0469-.0156.0937-.0468.1406-.0625.1094-.1016.1797-.1172.211 0 .0312-.0078.0625-.0235.0937-.0156.0313-.0312.0703-.0468.1172-.0157.0625-.0313.125-.0469.1875-.125.1563-.2344.2344-.3281.2344-.0313.0156-.0703.0156-.1172 0-.0469 0-.0938 0-.1406 0-.2344 0-.3985-.0078-.4922-.0235-.0938 0-.1953.0078-.3047.0235-.0781 0-.1563.0078-.2344.0234-.0625.0156-.1406.0156-.2344 0-.0625 0-.1172-.0078-.164-.0234-.0469 0-.0938 0-.1407 0-.0781-.0157-.1484-.0157-.2109 0-.0469.0156-.0937.0234-.1406.0234-.1719.0313-.3438.0313-.5156 0-.0469 0-.0938-.0078-.1407-.0234-.0468 0-.1015 0-.164 0-.0469-.0157-.0938-.0235-.1407-.0235-.0312.0157-.0703.0235-.1171.0235-.0625.0156-.1563.0234-.2813.0234-.0781.0156-.1641.0391-.2578.0703-.0781.0313-.1563.0469-.2344.0469-.0937.0156-.1875.0156-.2812 0-.0938-.0156-.1797-.0234-.2578-.0234-.0625.0156-.125.0312-.1875.0468-.0625.0313-.1329.0469-.211.0469-.0312 0-.0781-.0078-.1406-.0234-.0469-.0156-.0859-.0313-.1172-.0469-.2031-.125-.3047-.2422-.3047-.3516-.0781-.1093-.1328-.1797-.164-.2109-.0469-.0781-.0704-.1328-.0704-.1641 0-.0312-.0078-.0625-.0234-.0937-.0625-.2031-.1172-.3281-.1641-.375-.0312-.0781-.0625-.1406-.0937-.1875-.0156-.0469-.0391-.1016-.0703-.1641-.0781-.2031-.1328-.3281-.1641-.375-.0156-.0468-.039-.1094-.0703-.1875-.0781-.1719-.1328-.2812-.1641-.3281-.0156-.0469-.039-.0938-.0703-.1406-.0312-.0469-.0547-.086-.0703-.1172-.0156-.0469-.039-.0938-.0703-.1406-.0312-.0469-.0781-.1485-.1406-.3047-.0313-.1094-.0625-.1719-.0938-.1875-.0156-.0313-.0312-.0625-.0468-.0938-.0313-.1562-.0625-.25-.0938-.2812l-.0703-.2813c-.0625-.1562-.0938-.2422-.0938-.2578.0157-.0156.0157-.0312 0-.0469-.0625-.1562-.1015-.2578-.1171-.3046 0-.0469-.0157-.0938-.0469-.1407-.0156-.0469-.0391-.0859-.0703-.1172-.0157-.0468-.0391-.0937-.0703-.1406-.0157-.0625-.0235-.1172-.0235-.1641 0-.0468-.0156-.0937-.0469-.1406-.0156-.0468-.039-.0859-.0703-.1172-.0156-.0468-.0312-.0937-.0468-.1406-.0313-.1094-.0547-.1719-.0704-.1875-.0156-.0312-.0312-.0625-.0468-.0937-.0625-.1875-.1016-.2969-.1172-.3282-.0156-.0312-.0391-.0625-.0703-.0937-.0782-.2188-.1328-.3594-.1641-.4219-.0156-.0625-.0391-.1328-.0703-.2109-.0625-.0625-.1094-.125-.1406-.1875-.0157-.0782-.0391-.1485-.0703-.211-.0782-.1718-.125-.2656-.1407-.2812-.0156-.0313-.0312-.0625-.0468-.0938-.0313-.1406-.0547-.2343-.0704-.2812-.0156-.0625-.0312-.125-.0468-.1875-.0313-.0313-.0547-.0703-.0703-.1172-.0157-.0469-.0391-.0859-.0704-.1172-.0625-.125-.0937-.1953-.0937-.2109.0156-.0156.0156-.0391 0-.0703-.0313-.1407-.0625-.2579-.0938-.3516-.0312-.1563-.0625-.2734-.0937-.3516-.0156-.0781-.0391-.1562-.0703-.2343-.0469-.1094-.0781-.1797-.0938-.211-.0156-.0468-.0312-.0859-.0468-.1172-.0469-.1718-.0782-.2656-.0938-.2812 0-.0156-.0078-.0469-.0234-.0938-.0469-.1718-.0782-.2578-.0938-.2578 0 0 0-.0078 0-.0234-.0156-.0313-.0312-.0781-.0469-.1406-.0156-.0782-.0312-.1328-.0468-.1641-.0469-.1406-.0782-.2344-.0938-.2813 0-.0624-.0156-.125-.0469-.1874-.0156-.0469-.039-.1016-.0703-.1641-.0156-.0781-.0312-.1406-.0468-.1875-.0625-.1094-.0938-.1719-.0938-.1875 0-.0313-.0078-.0625-.0234-.0938-.0782-.1406-.125-.2187-.1407-.2343 0-.0313-.0078-.0625-.0234-.0938-.0781-.1406-.1172-.2187-.1172-.2344 0-.0312-.0156-.0625-.0469-.0937-.0312-.125-.0625-.2188-.0937-.2813-.0781-.1562-.1172-.2343-.1172-.2343.0156-.0157.0156-.0391 0-.0703-.0937-.2032-.1562-.3516-.1875-.4454-.0312-.0937-.0781-.1875-.1406-.2812-.0781-.1719-.1172-.2734-.1172-.3047.0156-.0469.0156-.0859 0-.1172-.0938-.1719-.1406-.2891-.1406-.3515l-.1172-.2813c-.0938-.25-.1641-.4297-.211-.5391-.0625-.1093-.1484-.2031-.2578-.2812 0-.0781-.0234-.1406-.0703-.1875-.0469-.0625-.0859-.1328-.1172-.2109-.0468-.1563-.0703-.2422-.0703-.2579-.0312-.0781-.0547-.1562-.0703-.2343-.0156-.0782-.0156-.1641 0-.2578.0313-.2813.2109-.4688.5391-.5626.0468-.0156.1484-.0234.3047-.0234.0781-.0156.1406-.0234.1875-.0234.0625-.0156.1328-.0313.2109-.0469s.1406-.0234.1875-.0234c.0625-.0157.125-.0313.1875-.0469.0781-.0156.1406-.0234.1875-.0234.0625-.0157.1328-.0313.2109-.0469.0625-.0157.125-.0157.1875 0 .0782 0 .1563-.0078.2344-.0235h.2109c.0782-.0156.1563-.0312.2344-.0468.1875-.0313.3672-.0625.5391-.0938.1719-.0469.3437-.0781.5156-.0937.2031 0 .3438-.0235.4219-.0703.0625-.0157.125-.0235.1875-.0235.0781-.0156.1562-.0312.2344-.0469.1093-.0156.2265-.0312.3515-.0468.125-.0157.2422-.0235.3516-.0235s.2422.0157.3984.0469c.125.0469.2031.0938.2344.1406.0312.0469.0781.0938.1406.1406.1094.1094.1719.1876.1875.2344.0313.0469.0469.1016.0469.1641v.1172c.0625.1406.0937.25.0937.3281v.1875c.0313.0781.0469.1797.0469.3047.0156.1094.0313.2187.0469.3281.0156.0625.0156.125 0 .1875 0 .0625.0078.1172.0234.1641.0157.0625.0313.125.0469.1875.0313.0468.0547.1015.0703.164.0313.1407.0469.2344.0469.2813s.0078.0937.0234.1406c.0313.2344.0703.4531.1172.6563.0625.1875.086.3046.0703.3515v.0938c.0625.2031.0938.3359.0938.3984.0156.0469.039.1016.0703.1641.0625.1562.1016.2578.1172.3047.0156.0468.0312.1093.0469.1875.0156.0468.0156.1015 0 .164 0 .0469.0078.0938.0234.1406.0625.1876.0937.336.0937.4454.0782.2031.1172.3359.1172.3984s.0157.125.0469.1875c.0625.0625.1016.1172.1172.1641.0156.0312.0234.0625.0234.0937.0469.1406.0625.2344.0469.2813 0 .0468.0078.0937.0234.1406 0 .0937.0313.2187.0938.375.0156.0781.0312.1562.0469.2344.0312.0625.0625.1328.0937.2109.0313.125.0625.2734.0938.4453.0468.1719.1015.3281.164.4688.0469.0625.0703.125.0703.1875.0157.0468.0313.0859.0469.1171.0781.1719.1172.2735.1172.3047.0156.0313.0313.0625.0469.0938.0312.0625.0547.125.0703.1875.0312.0469.0625.1016.0937.164.0313.1094.0625.211.0938.3047.0312.1719.0547.2813.0703.3282.0469.1406.0781.2578.0938.3515.0312.0938.0468.1953.0468.3047.0625.0625.0938.1406.0938.2344 0 .0937.0234.1797.0703.2578zm27.7735 5.5078c-.094.0469-.188.0781-.281.0937-.094.0157-.196.0313-.305.0469-.047-.0312-.094-.039-.141-.0234-.031 0-.086-.0078-.164-.0235-.14 0-.218.0079-.234.0235 0 0-.008 0-.023 0-.063.0156-.172.0391-.329.0703-.078.0156-.148.0312-.211.0469-.062.0156-.132.0312-.21.0469-.125.0156-.25.0156-.375 0-.125 0-.25 0-.375 0-.11.0156-.266.0156-.469 0-.203-.0157-.367-.0079-.492.0234-.125-.0313-.211-.0469-.258-.0469-.031.0156-.063.0235-.094.0235h-.352c-.156-.0157-.257-.0235-.304-.0235-.047.0156-.094.0235-.141.0235-.281.0312-.445.0546-.492.0703-.25 0-.414-.0079-.492-.0235-.141-.0312-.227-.0547-.258-.0703s-.063-.0391-.094-.0703c-.125-.0625-.187-.1094-.187-.1406 0-.0313-.016-.0469-.047-.0469-.031-.0937-.055-.1953-.07-.3047 0-.125-.008-.25-.024-.375-.016-.0625-.039-.1719-.07-.3281 0-.0625 0-.125 0-.1875.015-.0625.015-.1328 0-.211-.047-.1406-.086-.289-.117-.4453-.047-.1562-.071-.2421-.071-.2578 0-.0312-.008-.0547-.023-.0703-.172.0313-.258.0469-.258.0469-.109.0781-.187.1328-.234.1641-.032.0156-.039.0546-.024.1171-.109 0-.187.0547-.234.1641-.125.1562-.188.2422-.188.2578s-.015.0391-.047.0703c-.031.0625-.078.125-.14.1875-.047.0469-.086.0938-.117.1406-.078.0626-.157.1485-.235.2579-.031.0468-.07.1015-.117.164-.031.0469-.07.1016-.117.1641-.094.125-.149.2031-.164.2344 0 .0156-.008.0312-.024.0468-.109.125-.171.1954-.187.211-.016 0-.031.0078-.047.0234-.062.0625-.125.1094-.187.1406-.047.0313-.086.0547-.118.0704-.25 0-.429-.0313-.539-.0938-.047-.0312-.093-.0625-.14-.0938-.032-.0312-.078-.0624-.141-.0937-.156-.1719-.242-.2656-.258-.2813-.078-.1093-.117-.1718-.117-.1874 0-.0157-.008-.0313-.023-.0469-.094-.125-.141-.1953-.141-.211 0-.0156-.008-.0312-.023-.0468-.141-.2188-.29-.4063-.446-.5625l-.187-.211c-.063-.125-.102-.1953-.117-.2109 0-.0313-.008-.0547-.024-.0703-.141-.1406-.242-.2344-.305-.2813-.1871-.0625-.2965-.0937-.3277-.0937-.0313.0625-.0625.125-.0938.1875-.0312.0469-.0625.1015-.0937.164l-.1172.3047c-.0781.125-.1172.2032-.1172.2344s-.0078.0625-.0234.0938c-.0781.1874-.1172.3359-.1172.4453-.0938.2343-.1797.4218-.2578.5625-.0625.1406-.1485.2656-.2578.375-.125.0781-.2735.1328-.4453.164-.1719.0469-.3282.0313-.4688-.0468h-.6562c-.1094 0-.1797-.0079-.211-.0235-.0156 0-.039 0-.0703 0-.1875.0313-.3047.0391-.3516.0235-.0312 0-.0703 0-.1171 0-.0313.0156-.0782.0156-.1407 0-.0468 0-.0859 0-.1172 0h-.539c-.0625 0-.125 0-.1875 0-.0469.0156-.1016.0156-.1641 0-.1562 0-.2422 0-.2578 0-.0156.0156-.0391.0234-.0703.0234-.1719.0156-.2734.0234-.3047.0234-.0937.0156-.1641.0235-.2109.0235-.0313.0156-.086.0234-.1641.0234-.0781.0156-.1719.0078-.2812-.0234-.0938-.0157-.1641-.0079-.211.0234-.0469-.0313-.0937-.0547-.1406-.0703-.0313 0-.0625-.0156-.0938-.0469-.125-.1094-.1953-.1641-.2109-.1641-.1719-.1874-.2734-.3046-.3047-.3515.0156-.0625.0156-.1172 0-.1641-.0312-.0468-.0469-.0859-.0469-.1172l.0469-.2578c.0156-.0625.0391-.1094.0703-.1406.0157-.0312.0157-.0781 0-.1406.0469-.0625.086-.125.1172-.1875.0313-.0625.0625-.125.0938-.1875.0312-.0625.0468-.1094.0468-.1406.0157-.0469.0391-.1016.0704-.1641l.1171-.2344c.0782-.1406.1172-.2344.1172-.2812.0782-.1719.125-.2657.1407-.2813.0312-.0156.0312-.039 0-.0703.1093-.1406.1718-.2422.1875-.3047.0156-.0781.0312-.1406.0468-.1875.0469-.1719.0782-.2734.0938-.3047.0781-.1718.1172-.2578.1172-.2578.0312-.0937.0547-.1484.0703-.164.0156-.0157.0312-.0391.0469-.0704.0781-.1718.1171-.2656.1171-.2812.0157-.1406.0469-.2344.0938-.2813.0625-.0625.0781-.125.0469-.1875.0312-.0312.0468-.0703.0468-.1172.0157-.0468.0391-.0937.0704-.1406.0312-.0625.0546-.125.0703-.1875.0156-.0625.039-.125.0703-.1875.0625-.125.0937-.2265.0937-.3047l.1172-.2343c.0313-.125.0469-.1875.0469-.1875.0156-.0157.0312-.0391.0469-.0703.0156-.0469.0234-.086.0234-.1172.0156-.0469.0313-.1016.0469-.1641.0781-.1719.1172-.2734.1172-.3047 0-.0312.0156-.0547.0468-.0703.0782-.2031.1172-.3203.1172-.3516 0-.0468.0078-.0859.0235-.1171.0312-.0782.0625-.1641.0937-.2579.125-.2343.1953-.3984.211-.4921.0156-.0938.039-.1954.0703-.3047.0468-.1719.0859-.2735.1172-.3047.0625-.1875.0937-.2969.0937-.3282 0-.0312.0078-.0624.0234-.0937.0157-.0625.0235-.1172.0235-.1641.0156-.0625.0312-.1328.0469-.2109.0468-.1406.0781-.2266.0937-.2578l.0938-.2578c.0468-.0469.0703-.086.0703-.1172.0156-.0469.0312-.0859.0468-.1172.0782-.2344.1407-.3828.1875-.4453.0469-.0781.086-.1641.1172-.2578.0157-.0469.0313-.0938.0469-.1406.0156-.0626.0469-.1094.0938-.1407.0312-.2031.0468-.3047.0468-.3047.0625-.125.0938-.1953.0938-.2109s.0078-.0313.0234-.0469c.0469-.0937.0703-.1484.0703-.164 0-.0313.0157-.0625.0469-.0938.0469-.125.0703-.1953.0703-.2109.0156-.0157.0235-.0391.0235-.0703.0312-.0625.0546-.1172.0703-.1641.0156-.0469.039-.0859.0703-.1172.0312-.1562.0469-.2344.0469-.2344.0156 0 .0234-.0078.0234-.0234.0469-.1563.0859-.2656.1172-.3281.0781-.1719.125-.2735.1406-.3047.1094-.3125.1719-.5078.1875-.5859.0313-.2032.0547-.336.0703-.3985.0625-.125.0938-.2031.0938-.2344 0-.0312.0078-.0625.0234-.0937.0625-.1406.1016-.2188.1172-.2344.0156-.0312.0312-.0625.0469-.0937.0937-.25.1406-.375.1406-.375.0937-.1875.1484-.2969.1641-.3282.0156-.0468.039-.0859.0703-.1171.0937-.1563.1562-.25.1875-.2813.0937-.1094.1562-.1953.1875-.2578l.3281-.3281.2344-.1407c.125-.0625.2109-.1015.2578-.1171.0465-.0157.0935-.0235.1405-.0235.188-.0312.305-.0469.352-.0469.047-.0156.093-.0234.14-.0234.157.0469.258.0703.305.0703h.117c.11.0625.211.0938.305.0938.172.0781.265.1171.281.1171.156.0157.25.0235.281.0235.032 0 .063.0156.094.0469.188.0468.313.0546.375.0234.172.0781.266.1172.281.1172.016 0 .039.0078.071.0234.109.0469.179.0703.211.0703.046-.0156.093-.0234.14-.0234.078-.0156.149-.0234.211-.0234.063-.0157.133-.0313.211-.0469.172-.0313.274-.0547.305-.0703.047-.0313.094-.0547.14-.0703.157-.0469.235-.0704.235-.0704.015-.0156.031-.0234.047-.0234.047-.0156.093-.0234.14-.0234h.164c.157-.0156.25-.0391.282-.0703.187-.0313.382-.0313.586 0 .265.0468.468.0703.609.0703.141-.0156.242.0234.305.1172.109.0937.187.164.234.2109.078.0469.133.1328.164.2578.031.1094.07.2031.117.2813.063.1093.094.1875.094.2343.016.0469.031.086.047.1172.015.1094.031.1719.047.1875.015.0156.023.0391.023.0703.047.2032.078.3282.094.375.016.0469.023.0938.023.1407.016.0312.032.0703.047.1172.047.2187.078.3593.094.4218.031.0625.055.1328.07.211.016.0781.032.1484.047.2109.016.0625.016.125 0 .1875.063.2344.102.3828.117.4453.016.0625.039.1328.071.2109.047.2032.07.336.07.3985.016.0625.031.1328.047.2109.078.1875.117.3047.117.3516 0 .0312.008.0703.023.1172l.141.3984c.047.1563.063.2734.047.3516 0 .0625.016.1094.047.1406 0 .0781.031.1953.094.3516.093.2031.132.3437.117.4218 0 .0782.015.1485.047.211.015.0937.047.1797.093.2578.063.125.094.2109.094.2578s.008.0938.024.1406c.062.125.093.211.093.2578.047.1094.102.211.164.3047.032.0313.047.0781.047.1407 0 .0468.008.0937.024.1406.062.2031.093.3359.093.3984.016.0625.04.125.071.1875.015.0625.031.125.047.1875.015.0469.039.1094.07.1875.047.125.07.1953.07.2109.016 0 .024.0157.024.0469.078.1719.133.2891.164.3516.015.0312.023.0781.023.1406 0 .0469.016.0859.047.1172.016.0469.031.1094.047.1875.016.0625.023.1094.023.1406.063.1406.094.2422.094.3047.016.0469.039.1016.07.1641.032.0468.047.1015.047.164.016.0625.039.125.071.1875.062.1094.093.1797.093.211 0 .0312.008.0625.024.0937.078.125.117.2032.117.2344 0 .0156.016.0391.047.0703.062.1406.094.2266.094.2578 0 .0157.015.0391.047.0703.031.0469.046.0938.046.1407.016.0468.039.0937.071.1406.062.1719.101.2734.117.3047.094.2031.156.3515.187.4453.032.0937.079.1875.141.2812.078.1563.109.2579.094.3047 0 .0469.008.086.023.1172.063.1406.094.2266.094.2578.016.0313.031.0625.047.0938.015.0781.047.1718.094.2812.046.0625.078.125.093.1875.016.0469.032.086.047.1172.078.2031.196.375.352.5156 0 .0782.015.1485.047.211.047.0469.086.1093.117.1875.078.1875.117.3047.117.3515 0 .0313.008.0782.023.1407 0 .0937-.015.164-.046.2109-.016.0313-.032.0703-.047.1172-.032.0469-.047.0937-.047.1406 0 .0313-.016.0703-.047.1172zm-7.688-6.3281c-.031-.1406-.046-.2422-.046-.3047-.032-.0781-.063-.1485-.094-.2109-.016-.0626-.031-.1329-.047-.211-.031-.0781-.063-.1719-.094-.2812-.015-.1094-.031-.2032-.047-.2813-.093-.2031-.14-.3203-.14-.3515 0-.0469-.016-.086-.047-.1172-.047-.0938-.07-.1563-.07-.1875 0-.0469-.008-.086-.024-.1172-.078-.1719-.125-.2891-.141-.3516-.015-.0625-.039-.1094-.07-.1406-.094-.1875-.14-.2813-.14-.2813-.047-.2031-.079-.3203-.094-.3515-.016-.0469-.031-.0938-.047-.1407 0-.1093-.008-.1718-.024-.1874-.015-.0157-.023-.0391-.023-.0704-.031-.0625-.055-.125-.07-.1875 0-.0625-.016-.1171-.047-.164 0-.1407-.008-.211-.024-.211-.015-.0156-.023-.0312-.023-.0468-.016-.0782-.031-.1563-.047-.2344 0-.0781-.016-.1328-.047-.1641-.125.0469-.195.086-.211.1172 0 .0156-.008.0391-.023.0703-.094.1719-.141.2813-.141.3281.016.0469.008.0938-.023.1407-.016.0625-.039.1172-.071.164-.031.0313-.062.0782-.093.1407-.11.2187-.172.3672-.188.4453l-.07.2578c-.016.125-.063.25-.141.375-.015.0469-.031.1015-.047.1641 0 .0468-.007.0859-.023.1171-.031.0469-.063.0938-.094.1407-.015.0468-.039.1015-.07.164-.016.0625-.024.125-.024.1875s-.015.1094-.046.1407c-.047.1093-.071.1718-.071.1874 0 .0157-.008.0391-.023.0704-.094.1875-.149.3046-.164.3515-.016.0313-.024.086-.024.1641-.093.1562-.156.2969-.187.4219-.063.1875-.078.3203-.047.3984.172.2031.305.3047.398.3047.11 0 .227-.0078.352-.0234.125-.0157.234-.0235.328-.0235.109-.0156.203-.0234.281-.0234.157 0 .274-.0078.352-.0235.094-.0156.18-.0234.258-.0234.172.0156.281.0234.328.0234.047-.0156.086-.0156.117 0l.492.0938c.188-.0938.281-.1797.281-.2578zm18.071-4.4063c.015.1094.015.2344 0 .375-.031.125-.047.211-.047.2578.016.0313.023.0625.023.0938v.3047c.016.0937.032.1875.047.2812 0 .125-.008.25-.023.375-.016.1094-.031.2266-.047.3516.016.1562.016.25 0 .2812v.1172c.031.2032.039.3672.023.4922v.375c0 .1563.008.25.024.2813.015.0312.023.0625.023.0937v.5156.1875c.016.0157.024.0391.024.0703 0 .125-.008.2422-.024.3516 0 .1094.016.1875.047.2344.031.0625.039.164.024.3047-.016.1406-.032.2578-.047.3515-.016.1719-.016.336 0 .4922.015.1406.039.2891.07.4453.031.2344.047.375.047.4219-.016.0625-.024.1172-.024.1641.016.0469.024.0937.024.1406v.1875c.015.0469.031.1016.047.1641.031.125.054.2265.07.3047 0 .0781-.008.1484-.023.2109v.2109c0 .0782.007.1485.023.211.016.0468.031.1015.047.164.016.0938.016.1953 0 .3047 0 .0938.008.2031.023.3281.016.0469.024.1016.024.1641s.015.1328.047.2109c.031.0938.047.1641.047.211 0 .0468.007.0937.023.1406.062.2812.078.5.047.6562-.094.1719-.141.2969-.141.375-.125.0626-.219.0938-.281.0938-.063 0-.117 0-.164 0-.078.0156-.149.0156-.211 0-.063-.0156-.133-.0234-.211-.0234-.109-.0157-.227-.0235-.352-.0235-.109 0-.218 0-.328 0-.031-.0156-.078-.0234-.14-.0234-.063 0-.102 0-.117 0-.125.0156-.196.0156-.211 0-.016 0-.039 0-.071 0-.093 0-.195.0078-.304.0234-.11.0157-.211.0313-.305.0469-.094 0-.188-.0078-.281-.0234-.094 0-.188.0078-.282.0234-.093 0-.187.0078-.281.0234-.078.0157-.148.0235-.211.0235-.109 0-.219 0-.328 0-.094 0-.203.0156-.328.0469-.047 0-.094.0078-.141.0234s-.093.0234-.14.0234c-.063 0-.125 0-.188 0-.062 0-.133.0156-.211.0469l-.258.0234c-.187 0-.289-.0078-.304-.0234-.016-.0156-.039-.0234-.071-.0234l-.257-.0703c-.157-.1094-.235-.1797-.235-.211 0-.0156-.008-.0312-.023-.0469-.031-.0937-.039-.164-.024-.2109.016-.0312.032-.0625.047-.0938 0-.1406 0-.2109 0-.2109.016-.0156.024-.0391.024-.0703-.016-.0781-.024-.1328-.024-.1641.016-.0312.024-.0625.024-.0937l.023-.375c.016-.0469.024-.1094.024-.1875s.007-.1406.023-.1875c.031-.1563.039-.2422.023-.2578 0-.0156 0-.0391 0-.0703.016-.1563.016-.2344 0-.2344 0-.0156 0-.0391 0-.0703.032-.1094.055-.1875.071-.2344.015-.0625.023-.1172.023-.1641 0-.1718.016-.289.047-.3515-.016-.0469-.016-.1016 0-.1641s.024-.1094.024-.1406c0-.1875 0-.3125 0-.375s0-.1094 0-.1406c.015-.0782.023-.1719.023-.2813s0-.2031 0-.2812c0-.2969.008-.5391.023-.7266.016-.1875.024-.3672.024-.5391 0-.0781 0-.1406 0-.1875 0-.0625-.008-.1328-.024-.2109v-.6563c.016-.0468.016-.0937 0-.1406 0-.0468.016-.0859.047-.1172l-.023-.8437c.015-.0781.015-.1485 0-.2109 0-.0782.008-.1485.023-.211 0-.1562.008-.2578.024-.3047.015-.0625.023-.125.023-.1875s-.008-.1172-.023-.164c-.016-.0469-.024-.0938-.024-.1407l.047-.5156c-.031-.2187-.039-.3515-.023-.3984.015-.0625.023-.125.023-.1875-.015-.2813-.023-.5-.023-.6563.015-.1719.015-.3359 0-.4922-.032-.25-.055-.3984-.071-.4453-.031-.2344-.046-.3672-.046-.3984.015-.0469.007-.1094-.024-.1875-.047-.0938-.086-.1563-.117-.1875-.016-.0313-.031-.0625-.047-.0938-.078.0313-.164.0469-.258.0469-.078-.0156-.156-.0156-.234 0-.094 0-.195.0078-.305.0235-.094 0-.18 0-.258 0-.109 0-.211 0-.304 0-.078-.0157-.164-.0079-.258.0234-.047 0-.133.0156-.258.0469-.156.0468-.289.0703-.398.0703-.063 0-.125.0078-.188.0234-.047.0156-.086.0313-.117.0469-.156.0312-.25.0469-.281.0469l-.352.0468c-.219.0625-.359.1016-.422.1172-.062.0156-.117.0313-.164.0469-.031.0156-.078.0234-.14.0234-.141-.0312-.235-.0468-.282-.0468-.047-.0157-.086-.0313-.117-.0469-.031-.0313-.07-.0547-.117-.0703-.031-.0313-.063-.0625-.094-.0938-.078-.1719-.125-.2656-.14-.2812 0-.0313 0-.0547 0-.0703.046-.1719.07-.2891.07-.3516.015-.0625.031-.1328.047-.2109 0-.1407.023-.2579.07-.3516.047-.1563.07-.2813.07-.375.032-.0781.055-.1563.071-.2344.015-.0937.031-.1875.047-.2812.015-.0781.023-.1485.023-.211s.008-.1328.023-.2109c.079-.1562.118-.2734.118-.3516.031-.0937.039-.1562.023-.1875 0-.0312.008-.0703.023-.1171.016-.0938.032-.1641.047-.211.016-.0625.024-.1094.024-.1406l.023-.4219.047-.375c.031-.0469.039-.0859.024-.1172 0-.0312 0-.0859 0-.164.093-.1407.14-.211.14-.211.016-.0156.024-.0312.024-.0469.125-.1406.218-.2109.281-.2109.078-.0156.148-.0391.211-.0703.031-.0156.078-.0156.14 0 .063 0 .125-.0078.188-.0234.109-.0313.187-.0391.234-.0235.047.0157.11.0235.188.0235.078.0156.148.0312.211.0468h.234c.188-.0156.297-.0156.328 0 .047.0157.094.0235.141.0235.219 0 .351.0078.398.0234.063.0156.117.0313.164.0469.063 0 .125.0078.188.0234.062 0 .125-.0078.187-.0234.078-.0313.149-.0391.211-.0234.078.0156.149.0234.211.0234h.164c.047-.0156.094-.0234.141-.0234l.351.0468c.172-.0156.274-.0234.305-.0234.125.0156.195.0234.211.0234.031-.0156.063-.0234.094-.0234.172.0156.281.0312.328.0469.031-.0157.078-.0235.141-.0235.078 0 .148.0078.211.0235h.562c.141.0156.219.0234.234.0234.016-.0156.039-.0234.071-.0234h.351.258c.141 0 .227-.0079.258-.0235s.062-.0234.094-.0234c.062-.0156.117-.0234.164-.0234s.101-.0079.164-.0235c.14-.0156.219-.0234.234-.0234.016-.0157.031-.0235.047-.0235.125-.0156.195-.0156.211 0 .031 0 .062-.0078.094-.0234h.258c0-.0156.007-.0234.023-.0234.125-.0157.195-.0157.211 0h.07c.172 0 .266.0078.281.0234h.071c.062 0 .117-.0078.164-.0234.062-.0157.125-.0235.187-.0235.047-.0156.102-.0156.164 0 .079.0157.125.0157.141 0 .172-.0156.266-.0156.281 0h.047c.235-.0312.383-.0312.445 0 .079-.0312.157-.0469.235-.0469.094 0 .18-.0078.258-.0234h.281c.031-.0156.07-.0234.117-.0234.25-.0469.43-.0625.539-.0469.11 0 .219-.0078.328-.0234.235-.0625.383-.086.446-.0703h.211c.156-.0313.25-.0391.281-.0235s.062.0235.094.0235c.14-.0157.234-.0235.281-.0235.047-.0156.086-.0234.117-.0234.047-.0157.094-.0235.141-.0235.046 0 .093-.0156.14-.0468.063.0312.11.0625.141.0937.047.0156.086.0625.117.1406.109.1563.172.2735.188.3516.015.0781.015.1875 0 .3281-.016.0782-.032.1719-.047.2813 0 .1093-.016.2187-.047.3281s-.047.1797-.047.2109c.016.0157.016.0391 0 .0703-.047.2344-.078.4063-.094.5157-.015.0937-.031.1953-.047.3047-.062.1875-.101.3203-.117.3984 0 .0781-.008.1562-.023.2344-.016.1875-.039.3125-.071.375-.015.0781-.023.1484-.023.2109.016.0625.016.1328 0 .2109-.031.1563-.055.2579-.07.3047-.047.0938-.071.1641-.071.211.016.0469.016.0937 0 .1406-.047.1406-.078.2422-.093.3047-.016.0625-.04.1328-.071.2109.016.0938 0 .1641-.047.211-.047.0468-.086.1093-.117.1875-.047.0156-.094.039-.14.0703-.032.0156-.063.039-.094.0703-.094.0469-.18.0469-.258 0-.141-.0469-.234-.0781-.281-.0938-.047-.0312-.102-.0546-.164-.0703-.125 0-.196-.0078-.211-.0234 0-.0156-.016-.0235-.047-.0235-.047-.0156-.133-.0234-.258-.0234-.187-.0312-.297-.039-.328-.0234-.031 0-.063 0-.094 0-.172-.0313-.273-.0391-.305-.0235-.015.0157-.039.0157-.07 0-.125-.0312-.226-.0468-.305-.0468-.078-.0157-.156-.0313-.234-.0469h-.422c-.125-.0156-.242-.0156-.351 0-.125.0156-.203.0625-.235.1406-.047.125-.07.25-.07.375l-.07.5625c0 .125-.016.2109-.047.2578zm23.508 10.7344c-.094.0469-.188.0781-.282.0937-.093.0157-.195.0313-.304.0469-.047-.0312-.094-.039-.141-.0234-.031 0-.086-.0078-.164-.0235-.141 0-.219.0079-.234.0235 0 0-.008 0-.024 0-.062.0156-.172.0391-.328.0703-.078.0156-.148.0312-.211.0469-.062.0156-.133.0312-.211.0469-.125.0156-.25.0156-.375 0-.125 0-.25 0-.375 0-.109.0156-.265.0156-.469 0-.203-.0157-.367-.0079-.492.0234-.125-.0313-.211-.0469-.258-.0469-.031.0156-.062.0235-.093.0235h-.352c-.156-.0157-.258-.0235-.305-.0235-.046.0156-.093.0235-.14.0235-.281.0312-.446.0546-.492.0703-.25 0-.414-.0079-.493-.0235-.14-.0312-.226-.0547-.257-.0703-.032-.0156-.063-.0391-.094-.0703-.125-.0625-.188-.1094-.188-.1406 0-.0313-.015-.0469-.047-.0469-.031-.0937-.054-.1953-.07-.3047 0-.125-.008-.25-.023-.375-.016-.0625-.039-.1719-.071-.3281 0-.0625 0-.125 0-.1875.016-.0625.016-.1328 0-.211-.046-.1406-.086-.289-.117-.4453-.047-.1562-.07-.2421-.07-.2578 0-.0312-.008-.0547-.024-.0703-.171.0313-.257.0469-.257.0469-.11.0781-.188.1328-.235.1641-.031.0156-.039.0546-.023.1171-.11 0-.188.0547-.235.1641-.125.1562-.187.2422-.187.2578s-.016.0391-.047.0703c-.031.0625-.078.125-.141.1875-.046.0469-.085.0938-.117.1406-.078.0626-.156.1485-.234.2579-.031.0468-.07.1015-.117.164-.032.0469-.071.1016-.117.1641-.094.125-.149.2031-.165.2344 0 .0156-.007.0312-.023.0468-.109.125-.172.1954-.187.211-.016 0-.032.0078-.047.0234-.063.0625-.125.1094-.188.1406-.047.0313-.086.0547-.117.0704-.25 0-.43-.0313-.539-.0938-.047-.0312-.094-.0625-.141-.0938-.031-.0312-.078-.0624-.14-.0937-.157-.1719-.243-.2656-.258-.2813-.078-.1093-.117-.1718-.117-.1874 0-.0157-.008-.0313-.024-.0469-.094-.125-.14-.1953-.14-.211 0-.0156-.008-.0312-.024-.0468-.14-.2188-.289-.4063-.445-.5625l-.188-.211c-.062-.125-.101-.1953-.117-.2109 0-.0313-.008-.0547-.023-.0703-.141-.1406-.242-.2344-.305-.2813-.187-.0625-.297-.0937-.328-.0937-.031.0625-.063.125-.094.1875-.031.0469-.062.1015-.094.164l-.117.3047c-.078.125-.117.2032-.117.2344s-.008.0625-.023.0938c-.079.1874-.118.3359-.118.4453-.093.2343-.179.4218-.257.5625-.063.1406-.149.2656-.258.375-.125.0781-.274.1328-.446.164-.171.0469-.328.0313-.468-.0468h-.657c-.109 0-.179-.0079-.21-.0235-.016 0-.04 0-.071 0-.187.0313-.304.0391-.351.0235-.032 0-.071 0-.118 0-.031.0156-.078.0156-.14 0-.047 0-.086 0-.117 0h-.539c-.063 0-.125 0-.188 0-.047.0156-.101.0156-.164 0-.156 0-.242 0-.258 0-.015.0156-.039.0234-.07.0234-.172.0156-.274.0234-.305.0234-.094.0156-.164.0235-.211.0235-.031.0156-.086.0234-.164.0234-.078.0156-.172.0078-.281-.0234-.094-.0157-.164-.0079-.211.0234-.047-.0313-.094-.0547-.141-.0703-.031 0-.062-.0156-.093-.0469-.125-.1094-.196-.1641-.211-.1641-.172-.1874-.274-.3046-.305-.3515.016-.0625.016-.1172 0-.1641-.031-.0468-.047-.0859-.047-.1172l.047-.2578c.016-.0625.039-.1094.07-.1406.016-.0312.016-.0781 0-.1406.047-.0625.086-.125.118-.1875.031-.0625.062-.125.093-.1875.032-.0625.047-.1094.047-.1406.016-.0469.039-.1016.07-.1641l.118-.2344c.078-.1406.117-.2344.117-.2812.078-.1719.125-.2657.14-.2813.032-.0156.032-.039 0-.0703.11-.1406.172-.2422.188-.3047.016-.0781.031-.1406.047-.1875.047-.1719.078-.2734.094-.3047.078-.1718.117-.2578.117-.2578.031-.0937.054-.1484.07-.164.016-.0157.031-.0391.047-.0704.078-.1718.117-.2656.117-.2812.016-.1406.047-.2344.094-.2813.062-.0625.078-.125.047-.1875.031-.0312.047-.0703.047-.1172.015-.0468.039-.0937.07-.1406.031-.0625.055-.125.07-.1875.016-.0625.039-.125.071-.1875.062-.125.093-.2265.093-.3047l.118-.2343c.031-.125.046-.1875.046-.1875.016-.0157.032-.0391.047-.0703.016-.0469.024-.086.024-.1172.015-.0469.031-.1016.047-.1641.078-.1719.117-.2734.117-.3047 0-.0312.015-.0547.047-.0703.078-.2031.117-.3203.117-.3516 0-.0468.008-.0859.023-.1171.032-.0782.063-.1641.094-.2579.125-.2343.195-.3984.211-.4921.016-.0938.039-.1954.07-.3047.047-.1719.086-.2735.117-.3047.063-.1875.094-.2969.094-.3282 0-.0312.008-.0624.024-.0937.015-.0625.023-.1172.023-.1641.016-.0625.031-.1328.047-.2109.047-.1406.078-.2266.094-.2578l.093-.2578c.047-.0469.071-.086.071-.1172.015-.0469.031-.0859.047-.1172.078-.2344.14-.3828.187-.4453.047-.0781.086-.1641.117-.2578.016-.0469.032-.0938.047-.1406.016-.0626.047-.1094.094-.1407.031-.2031.047-.3047.047-.3047.062-.125.094-.1953.094-.2109s.007-.0313.023-.0469c.047-.0937.07-.1484.07-.164 0-.0313.016-.0625.047-.0938.047-.125.071-.1953.071-.2109.015-.0157.023-.0391.023-.0703.031-.0625.055-.1172.07-.1641.016-.0469.039-.0859.071-.1172.031-.1562.046-.2344.046-.2344.016 0 .024-.0078.024-.0234.047-.1563.086-.2656.117-.3281.078-.1719.125-.2735.141-.3047.109-.3125.172-.5078.187-.5859.031-.2032.055-.336.071-.3985.062-.125.093-.2031.093-.2344 0-.0312.008-.0625.024-.0937.062-.1406.101-.2188.117-.2344.016-.0312.031-.0625.047-.0937.094-.25.14-.375.14-.375.094-.1875.149-.2969.164-.3282.016-.0468.04-.0859.071-.1171.094-.1563.156-.25.187-.2813.094-.1094.157-.1953.188-.2578l.328-.3281.234-.1407c.125-.0625.211-.1015.258-.1171.047-.0157.094-.0235.141-.0235.187-.0312.304-.0469.351-.0469.047-.0156.094-.0234.141-.0234.156.0469.258.0703.305.0703h.117c.109.0625.211.0938.304.0938.172.0781.266.1171.282.1171.156.0157.25.0235.281.0235s.062.0156.094.0469c.187.0468.312.0546.375.0234.172.0781.265.1172.281.1172s.039.0078.07.0234c.11.0469.18.0703.211.0703.047-.0156.094-.0234.141-.0234.078-.0156.148-.0234.211-.0234.062-.0157.133-.0313.211-.0469.172-.0313.273-.0547.304-.0703.047-.0313.094-.0547.141-.0703.156-.0469.234-.0704.234-.0704.016-.0156.032-.0234.047-.0234.047-.0156.094-.0234.141-.0234h.164c.156-.0156.25-.0391.281-.0703.188-.0313.383-.0313.586 0 .266.0468.469.0703.61.0703.14-.0156.242.0234.304.1172.11.0937.188.164.235.2109.078.0469.132.1328.164.2578.031.1094.07.2031.117.2813.062.1093.094.1875.094.2343.015.0469.031.086.046.1172.016.1094.032.1719.047.1875.016.0156.024.0391.024.0703.047.2032.078.3282.094.375.015.0469.023.0938.023.1407.016.0312.031.0703.047.1172.047.2187.078.3593.094.4218.031.0625.054.1328.07.211.016.0781.031.1484.047.2109.015.0625.015.125 0 .1875.062.2344.101.3828.117.4453s.039.1328.07.2109c.047.2032.071.336.071.3985.015.0625.031.1328.046.2109.079.1875.118.3047.118.3516 0 .0312.007.0703.023.1172l.141.3984c.047.1563.062.2734.047.3516 0 .0625.015.1094.046.1406 0 .0781.032.1953.094.3516.094.2031.133.3437.117.4218 0 .0782.016.1485.047.211.016.0937.047.1797.094.2578.063.125.094.2109.094.2578s.008.0938.023.1406c.063.125.094.211.094.2578.047.1094.102.211.164.3047.031.0313.047.0781.047.1407 0 .0468.008.0937.023.1406.063.2031.094.3359.094.3984.016.0625.039.125.07.1875.016.0625.032.125.047.1875.016.0469.039.1094.071.1875.046.125.07.1953.07.2109.016 0 .023.0157.023.0469.078.1719.133.2891.164.3516.016.0312.024.0781.024.1406 0 .0469.015.0859.047.1172.015.0469.031.1094.047.1875.015.0625.023.1094.023.1406.063.1406.094.2422.094.3047.015.0469.039.1016.07.1641.031.0468.047.1015.047.164.016.0625.039.125.07.1875.063.1094.094.1797.094.211 0 .0312.008.0625.023.0937.079.125.118.2032.118.2344 0 .0156.015.0391.047.0703.062.1406.093.2266.093.2578 0 .0157.016.0391.047.0703.031.0469.047.0938.047.1407.016.0468.039.0937.07.1406.063.1719.102.2734.118.3047.093.2031.156.3515.187.4453.031.0937.078.1875.141.2812.078.1563.109.2579.093.3047 0 .0469.008.086.024.1172.062.1406.094.2266.094.2578.015.0313.031.0625.046.0938.016.0781.047.1718.094.2812.047.0625.078.125.094.1875.016.0469.031.086.047.1172.078.2031.195.375.351.5156 0 .0782.016.1485.047.211.047.0469.086.1093.117.1875.079.1875.118.3047.118.3515 0 .0313.007.0782.023.1407 0 .0937-.016.164-.047.2109-.015.0313-.031.0703-.047.1172-.031.0469-.047.0937-.047.1406 0 .0313-.015.0703-.046.1172zm-7.688-6.3281c-.031-.1406-.047-.2422-.047-.3047-.031-.0781-.062-.1485-.094-.2109-.015-.0626-.031-.1329-.046-.211-.032-.0781-.063-.1719-.094-.2812-.016-.1094-.031-.2032-.047-.2813-.094-.2031-.141-.3203-.141-.3515 0-.0469-.015-.086-.047-.1172-.046-.0938-.07-.1563-.07-.1875 0-.0469-.008-.086-.023-.1172-.078-.1719-.125-.2891-.141-.3516s-.039-.1094-.07-.1406c-.094-.1875-.141-.2813-.141-.2813-.047-.2031-.078-.3203-.094-.3515-.015-.0469-.031-.0938-.046-.1407 0-.1093-.008-.1718-.024-.1874-.016-.0157-.023-.0391-.023-.0704-.032-.0625-.055-.125-.071-.1875 0-.0625-.015-.1171-.047-.164 0-.1407-.007-.211-.023-.211-.016-.0156-.023-.0312-.023-.0468-.016-.0782-.032-.1563-.047-.2344 0-.0781-.016-.1328-.047-.1641-.125.0469-.195.086-.211.1172 0 .0156-.008.0391-.024.0703-.093.1719-.14.2813-.14.3281.015.0469.008.0938-.024.1407-.015.0625-.039.1172-.07.164-.031.0313-.062.0782-.094.1407-.109.2187-.172.3672-.187.4453l-.07.2578c-.016.125-.063.25-.141.375-.016.0469-.031.1015-.047.1641 0 .0468-.008.0859-.023.1171-.032.0469-.063.0938-.094.1407-.016.0468-.039.1015-.07.164-.016.0625-.024.125-.024.1875s-.016.1094-.047.1407c-.047.1093-.07.1718-.07.1874 0 .0157-.008.0391-.024.0704-.093.1875-.148.3046-.164.3515-.015.0313-.023.086-.023.1641-.094.1562-.156.2969-.188.4219-.062.1875-.078.3203-.046.3984.171.2031.304.3047.398.3047.109 0 .227-.0078.352-.0234.125-.0157.234-.0235.328-.0235.109-.0156.203-.0234.281-.0234.156 0 .273-.0078.352-.0235.093-.0156.179-.0234.257-.0234.172.0156.282.0234.328.0234.047-.0156.086-.0156.118 0l.492.0938c.187-.0938.281-.1797.281-.2578zm19.664.9609c.016.0781.039.1328.07.1641.047.0312.086.0703.118.1172.031.0312.047.0781.047.1406.015.0469.031.0859.046.1172.094.125.149.2031.164.2344.016.0156.04.039.071.0703.14.25.226.3984.258.4453l.14.2578c.063.1719.117.289.164.3516.078.1874.125.2812.141.2812.109.1094.164.1797.164.2109 0 .0157.016.0313.047.0469.047.0313.086.0781.117.1406.031.0469.063.086.094.1172.094.0938.148.1563.164.1875.015.0313.031.0703.047.1172.125.1719.203.2891.234.3516.047.0469.086.0937.117.1406.11.125.164.1953.164.2109.11.0938.18.1563.211.1875.047.0157.086.0391.117.0703.047.1563.086.25.118.2813.078.0781.132.1484.164.2109.047.0625.093.125.14.1875s.094.1172.141.1641.086.1094.117.1875c.016.0781.016.1563 0 .2344 0 .0781-.008.1562-.023.2343-.141.1094-.219.1719-.235.1876-.187.0624-.281.0937-.281.0937-.219.0469-.359.0625-.422.0469-.062 0-.125.0078-.187.0234-.078 0-.157 0-.235 0-.062 0-.117.0078-.164.0234-.156-.0156-.258-.0234-.304-.0234-.047.0156-.102.0234-.164.0234-.282-.0468-.469-.0703-.563-.0703-.094.0157-.211.0235-.352.0235-.171.0156-.257.0234-.257.0234 0 .0156-.016.0234-.047.0234-.063-.0156-.117-.0234-.164-.0234-.047.0156-.086.0234-.117.0234-.25-.0156-.446-.0156-.586 0h-.352c-.125-.0312-.219-.0468-.281-.0468-.078-.0156-.156-.0235-.235-.0235-.062.0157-.132.0157-.211 0-.14-.0781-.242-.1171-.304-.1171-.078-.125-.164-.2344-.258-.3282-.094-.1094-.172-.2422-.234-.3984-.11-.0625-.18-.1797-.211-.3516-.032-.0937-.071-.1797-.118-.2578-.031-.0937-.062-.1953-.093-.3047-.047-.1719-.078-.2734-.094-.3047-.047-.0781-.07-.1328-.07-.164 0-.0313-.008-.0625-.024-.0938-.031-.0468-.054-.0859-.07-.1172 0-.0468-.016-.1015-.047-.164-.031-.0938-.055-.1563-.07-.1875-.016-.0313-.039-.0625-.071-.0938-.062-.1093-.101-.1719-.117-.1875-.015-.0156-.031-.039-.047-.0703-.062-.125-.101-.2109-.117-.2578-.078-.1563-.125-.2422-.14-.2578-.063-.1094-.102-.1953-.118-.2578-.015-.0781-.054-.1328-.117-.1641-.015-.0781-.07-.1797-.164-.3047-.062-.1406-.109-.2265-.141-.2578-.031-.0312-.078-.0391-.14-.0234-.031-.125-.094-.1641-.188-.1172-.093.0469-.117.1328-.07.2578-.031.0781-.039.1719-.023.2813.015.0937.023.1874.023.2812-.016.0938-.031.1953-.047.3047 0 .0937-.008.1875-.023.2812v.3282l-.047.4218c0 .1407-.008.2344-.024.2813-.015.0469-.015.1094 0 .1875.016.1875.024.2812.024.2812l.047.4453c.015.0469.031.0938.047.1407.015.0469.023.0859.023.1172.016.0781.031.1562.047.2343.016.0625.008.1328-.024.211-.062.1094-.093.1718-.093.1875 0 .0156-.008.0312-.024.0469-.125.1562-.187.2265-.187.2109s-.008-.0235-.024-.0235c-.14.0469-.218.0782-.234.0938-.016.0312-.039.0547-.07.0703-.125.0469-.219.0625-.282.0469-.046 0-.109 0-.187 0-.219 0-.367-.0078-.445-.0234-.063-.0157-.133-.0079-.211.0234-.125-.0313-.25-.0391-.375-.0234-.125.0156-.258.0312-.399.0468-.156.0156-.312.0156-.469 0-.14 0-.273.0156-.398.0469-.172.0469-.258.0625-.258.0469 0 0-.008 0-.023 0-.125.0312-.203.039-.235.0234-.015 0-.039.0078-.07.0234-.125.0157-.211.0235-.258.0235s-.086 0-.117 0c-.141.0156-.266.0234-.375.0234-.109.0157-.187.0235-.234.0235-.172-.0625-.266-.0938-.282-.0938-.015.0156-.031.0078-.046-.0234-.079-.0156-.141-.0391-.188-.0703-.031-.0313-.086-.0625-.164-.0938l-.141-.2344c-.109-.1093-.164-.1797-.164-.2109s-.015-.0625-.047-.0938c-.015-.0624-.031-.1093-.046-.1406 0-.0468-.008-.0937-.024-.1406-.015-.0938-.023-.1562-.023-.1875 0-.0469 0-.0859 0-.1172-.016-.0469-.024-.1094-.024-.1875 0-.0937 0-.1562 0-.1875 0-.0625 0-.1094 0-.1406.016-.0469.024-.0938.024-.1406 0-.0313 0-.0703 0-.1172 0-.0625.008-.1094.023-.1407.063-.1874.094-.2968.094-.3281 0-.0312.008-.0703.023-.1172 0-.0312 0-.0859 0-.164s.008-.1407.024-.1875c.031-.1563.039-.2578.023-.3047 0-.0469.008-.0859.024-.1172.015-.0937.023-.1719.023-.2344.016-.0781.039-.1328.07-.164-.031-.0782-.046-.1641-.046-.2579.015-.0937.023-.1796.023-.2578 0-.1718 0-.3359 0-.4922.016-.1562.023-.2968.023-.4218 0-.1094 0-.1953 0-.2578s0-.125 0-.1875c.016-.0625.024-.125.024-.1875.015-.1094.015-.211 0-.3047 0-.0938.008-.2031.023-.3281 0-.0782.016-.1485.047-.211.031-.0781.047-.1562.047-.2344l-.023-.75v-.4922-.3281-.375-.375c-.032-.0937-.047-.1719-.047-.2343.015-.0782.008-.1407-.024-.1876.047-.0781.055-.1562.024-.2343-.016-.0781-.024-.1563-.024-.2344v-.5859c-.015-.125-.023-.211-.023-.2578-.047-.125-.07-.1954-.07-.211.015-.0156.023-.0312.023-.0469 0-.1718 0-.2656 0-.2812l-.023-.2813c0-.0781 0-.1484 0-.2109.015-.0781.023-.1641.023-.2578.016-.125.016-.1953 0-.2109-.016-.0157-.023-.0391-.023-.0704.015-.2031.015-.3281 0-.375 0-.0625 0-.1172 0-.164 0-.0469 0-.1094 0-.1875.015-.0781.015-.1563 0-.2344.015-.1094.007-.2109-.024-.3047-.016-.0937-.039-.1875-.07-.2812 0-.1094-.008-.1719-.024-.1875-.015-.0313-.023-.0547-.023-.0703-.031-.0938-.047-.1797-.047-.2579 0-.0937 0-.2109 0-.3515 0-.0625 0-.1328 0-.211 0-.0781-.016-.1406-.047-.1875.016-.0468.016-.0937 0-.1406-.015-.0469-.015-.0859 0-.1172 0-.0469 0-.0937 0-.1406.016-.0469.024-.0937.024-.1406 0-.125.007-.2188.023-.2813.047-.2968.094-.5078.141-.6328.047-.0469.086-.0937.117-.1406s.062-.0938.094-.1406c.156-.125.242-.1954.257-.211.032-.0156.063-.039.094-.0703.125-.0312.195-.0547.211-.0703.031-.0312.07-.0469.117-.0469.032 0 .071.0078.117.0235h.141c.078-.0157.149-.0235.211-.0235.063-.0156.133-.0234.211-.0234s.148.0078.211.0234c.062.0157.133.0235.211.0235.078.0156.148.0156.211 0 .078-.0157.156-.0157.234 0 .125.0156.211.0234.258.0234.062-.0156.117-.0234.164-.0234.063.0156.117.0312.164.0468.063.0157.133.0313.211.0469h.117c.047-.0156.094-.0234.141-.0234.109-.0157.172-.0157.187 0h.071c.187-.0313.297-.0391.328-.0235h.14.188c.016-.0156.039-.0234.07-.0234.141.0312.227.0547.258.0703h.094c.062-.0156.125-.0312.187-.0469.063-.0156.141-.0156.235 0 .093.0157.156.0157.187 0 .047-.0156.086-.0312.117-.0468.11.0156.203.0234.282.0234.093-.0156.171-.0234.234-.0234.219.0312.359.0468.422.0468.062 0 .172-.0156.328-.0468h.305l.445-.0704h.281c.047-.0156.102-.0234.164-.0234.032 0 .071.0078.117.0234h.141c.234-.0312.383-.039.445-.0234.079.0156.164.0156.258 0 .047 0 .094-.0078.141-.0234s.101-.0078.164.0234h.117c.031-.0156.078-.0234.141-.0234h.211c.062 0 .132.0078.211.0234.25.0156.461.0625.632.1406.063.0313.118.0469.164.0469.063 0 .11.0078.141.0235l.539.2578c.031.0781.086.164.164.2578.031.0312.063.0703.094.1172.031.0468.07.0859.117.1172.094.1562.156.2421.188.2578.078.0781.148.1718.211.2812.078.0938.156.1797.234.2578 0 .0469.008.0938.023.1406.016.0469.032.086.047.1172.032.0625.063.1172.094.1641.047.0469.07.1094.07.1875.078.0781.141.1641.188.2578.047.0938.109.1797.187.2578 0 .0469.016.0938.047.1406.031.0313.055.0704.071.1172.093.125.14.211.14.2578.063.0938.102.1563.117.1876.032.0312.063.0703.094.1171.078.125.117.1953.117.211 0 .0156.008.0312.024.0469.109.1874.179.3046.211.3515.047.0313.086.0781.117.1406l.094.2579c.078.0624.125.125.14.1874.031.0469.063.0938.094.1407.031.0625.055.125.07.1875.032.0468.063.1094.094.1875.078.1719.109.2734.094.3047 0 .0312.008.0625.023.0937.016.0781.024.1406.024.1875s.007.1094.023.1875l.024.2813c.015.0937.031.1562.046.1875.016.0312.024.0625.024.0937l-.024.2578c.016.1719.008.2891-.023.3516-.031.0469-.055.0859-.07.1172-.047.1875-.078.2968-.094.3281-.016.0156-.031.0469-.047.0937l-.117.2344c-.063.1563-.102.2422-.117.2578v.0235c-.094.125-.164.2109-.211.2578-.032.0469-.055.0937-.071.1406 0 .0313-.015.0781-.046.1406-.063.0469-.102.0938-.118.1407-.015.0468-.039.0859-.07.1172-.047.1093-.109.2031-.187.2812-.079.0781-.141.1797-.188.3047-.125.1094-.211.1953-.258.2578-.031.0469-.07.1016-.117.1641-.031.0312-.062.0625-.094.0937-.031.0313-.062.0625-.093.0938-.11.1562-.172.2343-.188.2343s-.031.0078-.047.0235c-.094.1093-.14.1875-.14.2343-.157.0782-.243.125-.258.1407 0 0-.008 0-.024 0-.031.0312-.062.0625-.093.0937-.032.0156-.071.0391-.118.0703-.14.0938-.226.1485-.257.1641-.032.0156-.063.0391-.094.0703-.125 0-.219.0313-.281.0938-.047.0625-.125.1171-.235.164-.047.0313-.101.0547-.164.0703-.062 0-.133.0157-.211.0469zm-4.687-2.5312c.156.0312.257.0312.304 0 .047-.0469.102-.086.164-.1172.047-.0313.094-.0625.141-.0938.047-.0469.094-.0781.141-.0937.125-.0469.187-.086.187-.1172.016-.0313.039-.0625.07-.0938.141-.0781.204-.125.188-.1406s-.008-.0312.023-.0469c.094-.0468.149-.0859.164-.1171.016-.0313.04-.0469.071-.0469.078-.1407.172-.2266.281-.2578.047-.0782.102-.1407.164-.1875.063-.0469.133-.0938.211-.1407.141-.0781.227-.1328.258-.164.156-.1094.234-.1563.234-.1407.016 0 .031-.0078.047-.0234.031-.0937.078-.1719.141-.2344.062-.0781.109-.1718.14-.2812.047-.0938.063-.1875.047-.2813 0-.0937-.008-.164-.023-.2109-.063-.0781-.094-.125-.094-.1406 0-.0313-.008-.0625-.023-.0938-.063-.1718-.102-.2656-.118-.2812 0-.0156 0-.0313 0-.0469-.14-.25-.234-.4063-.281-.4687-.109-.1719-.164-.2735-.164-.3047 0-.0469-.008-.086-.023-.1172-.094-.125-.141-.211-.141-.2578-.094-.0938-.156-.1875-.187-.2813-.016-.0937-.055-.1797-.118-.2578-.047-.1719-.07-.2578-.07-.2578-.031-.0781-.062-.1563-.094-.2344-.031-.0781-.054-.1562-.07-.2344-.063-.0312-.102-.0703-.117-.1172-.016-.0468-.039-.0859-.071-.1171-.109-.1094-.195-.1875-.257-.2344-.047-.0625-.102-.1172-.164-.1641-.11-.1094-.164-.164-.164-.164 0-.0157-.008-.0313-.024-.0469-.25-.125-.43-.1563-.539-.0938l-.258.1172c-.062.1094-.101.2031-.117.2813-.047.1406-.07.25-.07.3281.015.0625.015.1328 0 .2109 0 .0625-.008.1328-.024.211 0 .0625.008.1172.024.164.015.2032.015.336 0 .3985-.016.0469-.032.1093-.047.1875 0 .125-.008.1953-.024.2109v.0703.2578c0 .0782-.007.1563-.023.2344-.047.1719-.07.2969-.07.375.015.0781.015.1641 0 .2578-.047.2656-.071.4453-.071.5391v.2578c.016.1406.016.2266 0 .2578v.0469.2812c.016 0 .024.0078.024.0235v.4453.164c.015.0313.023.0626.023.0938-.047.1875-.07.3359-.07.4453.016.0938.008.1797-.024.2578.047.1563.071.2578.071.3047.094.0938.148.1641.164.211.031.0312.062.0624.094.0937z" fill="#693821"/></svg>