<svg fill="none" height="70" viewBox="0 0 196 70" width="196" xmlns="http://www.w3.org/2000/svg" xmlns:xlink="http://www.w3.org/1999/xlink"><linearGradient id="a"><stop offset="0" stop-color="#cf5c2b"/><stop offset="1" stop-color="#59173e"/></linearGradient><linearGradient id="b" gradientUnits="userSpaceOnUse" x1="150.289" x2="117.345" xlink:href="#a" y1="-103.532" y2="-13.1419"/><linearGradient id="c" gradientUnits="userSpaceOnUse" x1="111.533" x2="81.5952" xlink:href="#a" y1="-30.9254" y2="130.054"/><linearGradient id="d" gradientUnits="userSpaceOnUse" x1="111.03" x2="72.6373" xlink:href="#a" y1="-25.9304" y2="173.965"/><linearGradient id="e" gradientUnits="userSpaceOnUse" x1="103.079" x2="100.535" xlink:href="#a" y1="88.1012" y2="44.177"/><linearGradient id="f" gradientUnits="userSpaceOnUse" x1="166.018" x2="155.496" xlink:href="#a" y1="16.5635" y2="45.2416"/><linearGradient id="g" gradientUnits="userSpaceOnUse" x1="202.53" x2="111.614" xlink:href="#a" y1="-64.9342" y2="150.149"/><linearGradient id="h" gradientUnits="userSpaceOnUse" x1="148.863" x2="142.226" xlink:href="#a" y1="14.3183" y2="32.4068"/><linearGradient id="i" gradientUnits="userSpaceOnUse" x1="171.893" x2="114.548" xlink:href="#a" y1="-37.0857" y2="98.5767"/><linearGradient id="j" gradientUnits="userSpaceOnUse" x1="37.6257" x2="30.989" xlink:href="#a" y1="28.6854" y2="46.7739"/><linearGradient id="k" gradientUnits="userSpaceOnUse" x1="60.6583" x2="3.31338" xlink:href="#a" y1="-22.7174" y2="112.946"/><path d="m195.859 55.7615c-.101-1.446-.202-2.892-.289-4.338-.087-1.5169-.188-3.048-.275-4.5649-.057-1.0349-.144-2.1406-.173-3.218-.029-.8932.347-2.3675-.145-3.1756-.289-.482-.925-.6237-1.488-.723-.737-.1276-1.475-.2551-2.212-.3827.998-.2269 1.966-.5104 2.92-.8648.217-.0851.434-.1701.578-.3402.13-.156.174-.3686.202-.5529.333-1.9847.116-4.0828.116-6.0959-.014-2.0414-.014-4.097-.029-6.1384-.014-1.9422-.014-3.8985-.029-5.8407 0-.638.275-2.0414-.058-2.6085-.26-.4678-.881-.4395-1.358-.4962-.492-.0567-.983-.0567-1.474-.0283-.738.0425-1.46.1559-2.183.2693.954-.2552 1.937-.3827 2.891-.6096.621-.1417 1.228-.3402 1.806-.6379.347-.1843.723-.3402.925-.6947.087-.1417.116-.326.159-.4961.087-.3544.102-.723.131-1.0916.057-1.0065.101-2.0131.115-3.0338.015-.51034.015-1.02069 0-1.53105 0-.32606-.13-.63794-.159-.97817-.13-1.37512-.694-2.69353-1.59-3.75677-.896-1.04906-2.124-1.81459-3.483-2.169-.506-.12759-1.012-.19847-1.532-.22683-61.109-1.885467-121.0033-1.95635-179.5971.02836-.23126.01417-.47696-.01418-.70822.04253-.23125.07088-.4625.15594-.70821.241-.47696.17012-.95392.34023-1.41643.56706-.8961.42529-1.7344.99235-2.31253 1.78623-.33243.46783-.56368.99236-.8672 1.46018-.15899.241-.36133.42529-.49141.68047-.6215 1.21918-1.24299 2.45253-2.11019 3.52994-.838294 1.04905-1.0840002 2.72185-.9972802 4.01195.1300802 1.7579.1734402 3.5299.3324262 5.2878.26016 2.7928.014454 5.5856.332427 8.4067.04336.3969.115627.8506.419147 1.1057.2168.1843.50587.2552.78048.3119.89611.1985 1.80667.3828 2.70277.5813-1.1129.7088-2.77504.7655-3.36762 1.928-.1879.3827-.216804.808-.24571 1.2333-.101174 1.5027-.245707 2.9913-.34688 4.4798-.04336.6663-.08672 1.3468-.101174 2.013-.028906.638-.072266 1.2618-.144533 1.8997-.144533 1.4885-.534773 3.4165-.072267 4.8767.448054 1.4035 2.240264 1.4602 3.468804 1.8004-.6504.0709-1.14182.5954-1.53206 1.12-.18789.2693-.33242.5387-.50586.808-.15899.241-.30352.482-.4336.7372-.26016.5103-.476964 1.0349-.63595 1.5878-.101174.3686-.158987.6521-.17344 1.0348-.014454.3403-.028907.6805-.04336 1.0207-.028907.6805-.04336 1.361-.057814 2.0415-.028906 1.3609-.04336 2.7218-.028906 4.0828.014453 1.3184-.3035202 2.5943.26016 3.8843.56368 1.2901 1.53205 2.3959 2.74613 3.1189.98283.5954 2.09574.9073 3.252.964 58.9262 2.5376 118.8354 2.5092 179.6694-.0142 1.604-.0709 3.151-.6947 4.336-1.7721.564-.5103 1.07-.964 1.489-1.6161.52-.7797.997-1.5878 1.445-2.41 1.098-1.9989 2.472-4.2246 2.298-6.5353z" fill="url(#b)"/><path d="m189.181 63.0065c-60.849 2.5092-120.7434 2.5517-179.66958.0141-2.61606 0-5.05867-1.8429-6.0415-4.1537-.4336-1.0349-.52032-2.1548-.4625-3.2606.01445-.1984.0289-.3827.08672-.5812.08672-.2977.23125-.5529.26016-.8648.01445-.1701.04336-.3119.05781-.482.10117-.8789.13008-1.772.20235-2.651.04336-.4961.10117-1.0065.2457-1.4885.15899-.5529.41915-1.0491.8672-1.3893 1.93675-1.4318 5.73794-1.4035 8.55634-1.4602.5493-.0142 1.0551-.0283 1.5176-.0567 1.2286-.0709 2.4571-.0992 3.6856-.0992-2.9195-.0142-5.8247-.2552-8.70087-.7514-1.35861-.2268-2.71723-.5103-4.06139-.8506-.31797-.0708-.66485-.1843-.96837-.326-.41915-.1843-.78048-.4537-.96837-.8506-.15899-.3402-.14454-.7372-.14454-1.0916.01446-.3544-.04336-.723-.01445-1.0774.02891-.7655.13008-1.5027.20235-2.2541.07226-.6096.14453-1.2192.18789-1.8429.10117-1.6303.20235-3.2606.33243-4.8909.04336-.4962.10117-1.0349.44805-1.3751.2168-.2127.49141-.3119.76603-.4111.75157-.2694 1.5176-.4679 2.29808-.5955.40469-.0708.80938-.0708 1.15626-.1559.41915-.1276.73712-.2126 1.1852-.2552 4.2926-.4961 8.5853-.9781 12.8923-1.4743.5059-.0567 1.0262-.1134 1.5466-.1701-6.4751-.7656-12.9647-1.5595-19.43978-2.325-.28906-.0425-.56368-.0709-.85274-.0992-.26016-.0284-.53478-.0709-.70822-.2552-.01445-.0142-.0289-.0284-.04336-.0425-.13008-.1701-.14453-.3686-.17344-.5813-.28906-3.4307.04336-6.9748-.15898-10.448-.01446-.1985-.07227-1.1625-.13008-2.2683-.07227-1.6019-.1879-3.43068-.23126-3.43068-.27461-3.81347 2.70278-7.10242 6.60518-7.23001 58.57938-1.998879 118.47358-1.927997 179.53958 0 3.917.12759 6.923 3.43071 6.619 7.27254-.101 1.30425.159 2.56595-.173 3.88435-.072.3119-.174.6238-.419.8364-.217.1843-.506.2552-.781.3119-.737.1701-1.474.3544-2.211.5245-.983.2269-1.951.4395-2.949.5529-5.897.6096-11.765 1.2334-17.647 1.8571-.159.0142-.318.0284-.477.0426-.188.0141-.376.0425-.564.0567.477-.0142.94-.0142 1.402-.0142 7.371-.1276 14.757-.241 22.143-.3686.202 0 .433 0 .592.1276.188.1418.232.3828.26.6096.044.3119.044.6096.044.8931-.015.9215-.174 1.8004-.174 2.7361 0 .8222.203 1.6303.203 2.4808-.015 1.2192-.058 2.4384-.101 3.6718-.116 2.7785-.318 5.5997-.622 8.3924-.043.4112-.101.8364-.376 1.1342-.216.2268-.534.3544-.838.4536-.188.0709-.376.1276-.578.1701-4.336 1.2192-9.077.2552-13.528 1.0065-.29.0426-.593.0993-.868.1702-.101.0141-.202.0425-.289.0708.362.0284.723.0426 1.084.0851 4.871.3402 9.727.8222 14.569 1.4318.564.0709 1.2.1701 1.532.6238.26.3402.26.8081.26 1.2334v1.4034c0 1.4177 0 2.8353.073 4.253.086 1.8713.202 3.7426.332 5.628.058.9215.116 1.843.188 2.7503.26 3.7993-2.703 7.074-6.576 7.2442z" fill="url(#c)"/><path d="m194.92 23.2958c-.015 1.2192-.058 2.4384-.102 3.6717-2.5.2269-4.943.4112-7.342.6805-.564.0567-1.113.1134-1.677.1843-2.066.2127-4.133.4111-6.2.5812-1.026.0851-2.067.1702-3.107.2552-.665.0567-1.258.3119-1.894.3828-.896.0992-1.879-.1276-2.789-.1843-1.012-.0567-2.024-.0851-3.036-.0709-2.023.0284-4.061.1701-6.07.397-4.047.4536-8.036 1.205-12.054 1.8571-6.432 1.049-12.892 1.8571-19.396 2.3816 3.541.3403 7.053.9073 10.507 1.687-1.301.0993-2.601.1985-3.902.2694-4.134.2552-8.268.3827-12.401.4536-4.134.0709-8.282.0709-12.416.0567-4.133 0-8.281-.0141-12.415.0142-4.1336.0425-8.2673.1276-12.4009.3119-2.0669.0992-4.1337.2126-6.1861.3686-.5203.0425-1.0262.085-1.5465.1276-.6215.0567-1.2285.2268-1.8645.2977-4.9286.567-9.8571 1.2759-14.7279 2.2115-7.5736 1.4602-15.1905 2.892-22.8941 3.4024-1.3875.085-2.7895.1701-4.177.2551-6.6341 1.3043-13.8029 1.5736-20.3069 2.3533-2.2114.2694-4.4661.4112-6.72083.4962-1.35862-.2268-2.71723-.5103-4.06139-.8506-.31797-.0709-.66485-.1843-.96837-.326-.41915-.1843-.78048-.4537-.96838-.8506-.15898-.3403-.14453-.7372-.14453-1.0916.01445-.3544-.04336-.723-.01445-1.0774.0289-.7656.13008-1.5027.20234-2.2541 5.95478-.482 12.06851-2.169 17.79201-2.9912 7.3568-1.0349 14.8581-1.6445 22.2726-2.0556 8.3974-.4537 16.7803.5245 25.1488.5245 7.7615 0 15.494-.6663 23.2121-1.2759 15.046-1.1908 30.063-2.4241 45.08-3.7-3.267-.0567-6.533-.1418-9.799-.2552-4.163-.1418-8.326-.3261-12.488-.5387-.968-.0425-1.966-.1701-2.92-.0709-.997.1134-2.009.1418-3.006.1276-1.98-.0284-3.96-.2694-5.882-.7372-1.128-.2693-2.255-.6238-3.397-.8222-1.9368-.3261-3.9169-.2268-5.897-.2552-7.3567-.0992-14.5978-1.9989-21.9546-1.928-1.9367.0142-3.859.1701-5.7813.3402-2.0379.1843-4.0903.3686-6.1427.4253-.9106.0284-1.85.0851-2.7317-.1134-.6793-.1559-1.4598-.085-2.1535-.0992-1.243-.0284-2.486-.0567-3.729-.0851-2.486-.0567-4.9719-.085-7.4723-.0992-9.4381-.0425-18.8472.4678-28.2852.3969-4.018-.0283-8.12279-.1134-12.09746-.6804-.01445-.0142-.02891-.0284-.04336-.0426-.13008-.1701-.14453-.3686-.17344-.5812-.28907-3.4307.04336-6.9748-.15899-10.4481-.01445-.1984-.07226-1.1624-.13007-2.2682 4.81295-.4111 9.65482-.5104 14.46782-.8506 9.4235-.6805 18.8471-.9782 28.314-.9357 18.746.0851 37.4486 1.2618 56.1368 2.6511 18.703 1.3892 37.362 3.1046 56.064 4.4088 9.453.6522 18.92 1.0633 28.387 1.0633 2.775 0 5.579-.1701 8.383-.3686-.015.9215-.174 1.8004-.174 2.736.044.8932.246 1.7012.232 2.5376zm.303 24.0859c-.072-1.4177-.072-2.8353-.072-4.253-5.969-.6379-11.953-1.29-17.951-1.7011-10.291-.6947-20.64-.5813-30.945-.1702-2.139.0851-4.249.1418-6.374.397-1.026.1276-2.052.2552-3.078.3686-4.119.482-8.239.8647-12.372 1.1766-1.605.1134-3.223.2268-4.842.3261 4.177-.0284 8.354-.0567 12.531-.0851 4.177-.0283 8.354-.0567 12.531-.085 2.081-.0142 4.177-.0284 6.258-.0426 1.041-.0141 2.081-.0141 3.137-.0283.433 0 .896.0283 1.329-.0709.26-.0567.521-.1559.781-.1985.939-.1417 1.98.0426 2.919.0993 1.041.0567 2.067.1134 3.108.1701 2.067.1276 4.148.2693 6.215.4111 3.266.241 6.518.5104 9.77.7939 3.556.3119 7.082.723 10.623 1.1483-8.036.7513-16.057 1.531-24.108 1.9705-18.529 1.0065-37.058 2.2682-55.616 1.8997-18.2982-.3403-36.5527-1.3752-54.8651-1.3043-9.6548.0284-19.2952.1843-28.9211.4678-7.1111.1985-14.3088.1702-21.4054.879-.14453.4678-.20235.9923-.24571 1.4885-.07226.879-.10117 1.7721-.20234 2.651 7.90595.3119 15.89865-.2126 23.79015-.2268 9.6404-.0142 19.2808.0709 28.9211.2977 18.2691.4253 36.5236 1.4177 54.7784 1.7295 18.587.3261 37.13-.9781 55.674-1.8996 9.568-.4678 19.194-.482 28.762-.5812h.203c-.131-1.8855-.246-3.7426-.333-5.6281z" fill="url(#d)"/><g fill="#eb924d"><path d="m4.58088 42.5207c-.01445.7089-.01445 1.4319.2168 2.0982-.41914-.1843-.78048-.4537-.96837-.8506-.15899-.3403-.14453-.7372-.14453-1.0916.01445-.3544-.04336-.723-.01446-1.0774.05782-1.3752.31798-2.7219.39024-4.097.10118-1.6303.20235-3.2606.33243-4.8909.04336-.4962.10117-1.0349.44805-1.3751.2168-.2127.49142-.3119.76603-.4112.75157-.2693 1.5176-.4678 2.29808-.5954.36133-.085.76603-.085 1.11291-.1701.41914-.1276.73712-.2126 1.18514-.2552 4.2927-.4961 8.5853-.9781 12.8924-1.4743-4.6106.9214-9.2212 1.8146-13.84629 2.736-.89611.1702-2.09573.1702-2.84731.7514-.15898.1134-.28906.2552-.41914.3969-.11563.1276-.2168.2694-.34688.397-.24571.2126-.33243.5529-.44806.8506-.30352.8647-.47696 1.772-.52032 2.6793-.01445.3403-.01445.6947-.05781 1.0349-.01445.0851-.02891.1701-.04336.2552-.01445.0992-.07227.1701-.10117.2693-.23126.6947-.20235 1.4602-.10118 2.169.04336.2552.13008.5104.1879.7656.14453.6096.04336 1.2617.0289 1.8854z"/><path d="m171.029 16.7769c-.26-.0142-.521-.0283-.781-.0425h1.244c-.145 0-.304.0283-.463.0425z"/><path d="m175.279 37.8008c1.2.1134 2.4.2268 3.599.3119-.289.0425-.592.0992-.867.1701-.925-.1701-1.85-.3403-2.732-.482z"/><path d="m192.939 36.0563c.188-.7372.145-1.5027.073-2.2541-.102-1.3893-.217-2.7927-.318-4.182-.015-.2694-.058-.5671-.275-.7372-.173-.1418-.419-.1418-.636-.1276-1.792.0567-3.57.1134-5.333.1701 1.922-.1701 3.83-.6663 5.564-1.4885.506-.241 1.027-.5387 1.214-1.0349.102-.2552.102-.5387.102-.8222-.029-2.1974-.42-4.6499-.694-6.8331-.838-.7797-2.096-.8789-3.252-.9498-4.654-.2835-9.323-.5529-13.962-.8364-1.113-.0709-2.356-.1134-3.541-.1701 7.371-.1276 14.757-.241 22.142-.3686.203 0 .434 0 .593.1276.188.1417.231.3827.26.6096.159 1.2475-.144 2.3958-.144 3.6291 0 .8223.202 1.6303.202 2.4809-.072 3.9411-.289 8.0523-.737 12.0642-.044.4111-.101.8364-.376 1.1341-.217.2268-.535.3544-.838.4537-.188.0709-.376.1276-.578.1701.245-.2835.433-.6521.534-1.0349z"/><path d="m3.28203 14.3953c-.02891-.4678-.28907-5.68478-.37579-5.68478-.27461-3.81347 2.70278-7.10242 6.60517-7.23001 58.57939-1.998879 118.47359-1.927997 179.53959 0 3.917.12759 6.923 3.43071 6.619 7.27254-.101 1.30425.159 2.56595-.173 3.88435-.072.3119-.174.6238-.419.8364-.217.1843-.506.2552-.781.3119-.737.1701-1.46.3686-2.197.5245.636-.567 1.373-1.2333 1.662-2.0556.203-.5528.044-1.0348-.144-1.5594-.289-.82221-.347-1.60191-.376-2.46668-.043-1.06324.145-2.58012-.708-3.43071-.65-.63794-1.503-1.19082-2.313-1.58776-2.009-.96401-4.336-1.17665-6.547-1.26171-.116 0-.217-.01418-.332-.01418-4.076-.12759-8.167-.14176-12.242.26936-.492.04252-.925.18429-1.402.26935-.593.11341-1.301-.02835-1.908-.05671-1.388-.07088-2.761-.12759-4.148-.18429-2.761-.09924-5.536-.17012-8.311-.21265-2.081-.02835-4.148-.02835-6.229-.02835-.651 0-1.316 0-1.966 0-1.257 0-2.515 0-3.787 0-1.749 0-3.497 0-5.246-.01418-.087 0-.174 0-.246 0-2.775 0-5.536-.01418-8.311-.01418-1.387 0-2.775 0-4.148-.01417-.636 0-1.344.08506-1.965-.02835-.636-.11342-1.142-.49618-1.807-.55289-.607-.0567-1.229.04253-1.821.09924-1.518.11341-3.021.25517-4.524.42529-.679.07088-1.431.1843-1.879.68047-.159.17012-.275.38277-.463.52453-.419.29771-1.011.09924-1.503-.07088-.968-.32606-1.994-.51035-3.035-.55288-.939-.04253-1.864.12759-2.804.07088-.592-.02835-1.156-.17012-1.734-.28353-2.284-.43947-4.6687-.46782-6.9668-.63794-1.7054-.12759-3.4254-.21265-5.1453-.26935-5.5357-.19847-11.0857-.08506-16.6069.14176-2.7751.11341-5.5356.25518-8.3107.4253-1.2719.07088-2.6738.34023-3.9313.17011-.3613-.04253-.7082-.18429-1.0695-.25517-.3758-.07089-.7516-.05671-1.1418-.05671-1.5321.01418-3.0786.02835-4.6107.02835-1.7922.01418-3.5988 0-5.4055 0-.607 0-1.1996.11342-1.7922.11342-.5492 0-1.084-.11342-1.6332-.11342-1.1419.01418-2.2692.22683-3.3243.65212-.4047.17012-.8238.35441-1.2719.34024-.8094-.04253-1.3586-.79389-2.0957-1.13412-1.7344-.808061-3.5266.73718-5.3044.11341-.8817-.31188-1.7778-.26935-2.7172-.26935-1.1852-.01418-2.3704-.01418-3.5556-.01418-4.018.01418-8.036.15594-12.0251.55288-1.9946.19847-3.9747.46783-5.9548.80806-.9539.17012-1.92228.43947-2.89066.55289-.27461.02835-.49141.02835-.75157.21264-1.18517.80806-4.43717 5.33036-2.11019 6.91814.14454.0992.30352.1843.47696.2552.24571.0992.50587.1417.76603.2268.26016.0992.59259.0283.8672.0283.66485 0 1.3297 0 1.9801-.0141.70823 0 1.41643-.0142 2.08133.1843-1.50319.3118-3.00634.6095-4.50948.9073-.49142.0992-.98283.1984-1.44534.3969-.07226.0425-.15898.0567-.2457.0851-.31798.1134-.54923.4961-.66486.7938-.30352.7797-.11562 1.6303-.2457 2.4384-.23126 1.446.05781 3.0054.20234 4.4372.1879 1.843.41915 3.7001.69376 5.543-.28906-.0425-.56368-.0708-.85274-.0992-.27462-.0284-.56368-.0709-.75158-.2835-.13008-.1701-.14453-.3686-.17344-.5813-.28906-3.459.04336-7.0031-.14453-10.4622z"/><path d="m195.741 55.7612c-.202-2.7928-.375-5.5856-.52-8.3783-.087-1.8855-.072-3.771-.072-5.6565 0-.4253-.015-.8789-.26-1.2333-.333-.4537-.969-.5529-1.532-.6238-4.842-.6096-9.699-1.0916-14.569-1.4318 4.336.8222 8.816 1.8713 12.935 2.9912.81.2269.868.8364 1.2 1.5878.318.7514.347 1.6019.376 2.41.014.3402.014.6805-.101 1.0065-.246.723-1.027 1.12-1.72 1.4602.52.1418 1.04.2835 1.575.4395.13.0425.26.0709.347.1701.101.0992.145.2694.159.4253.202 1.3468.043 2.7644.058 4.1254.014.8789.014 1.7578.029 2.6368.014.241.101.4678.159.723.086.5103.029 1.0349-.13 1.531-.318 1.0207-1.027 1.928-1.937 2.5093-1.576 1.0065-3.541 1.2192-5.42 1.3467-3.137.2269-6.287.1985-9.409.4962-1.041.0851-2.067.1843-3.108.2694-2.067.1701-4.148.3119-6.215.4536-3.917.2552-7.848.4537-11.765.5813-9.279.3118-18.572.2835-27.866.2268-1.113-.0284-2.24-.0284-3.353-.0284-.91 0-1.778.1134-2.674.0284-2.182-.2127-4.35.1701-6.518.4111-2.53.2694-5.247.2977-7.429-.9782-.694-.4111-1.373-.9498-2.183-.9782-.665-.0141-1.286.3545-1.893.638-1.156.5387-2.428.8364-3.7.9923-.029 0-.043 0-.072.0142-2.7031.3403-5.3047.156-8.0075-.0283-1.9801-.1276-4.0614.1984-5.9548-.4962-1.4598-.5245-2.9918-1.2759-4.495-.879-.5348.1418-1.0117.4253-1.5176.6238-.9828.3828-2.0668.4537-3.1219.5104-.6649.0283-1.3297.0567-1.9946.085-2.7605.0851-5.5356.0709-8.2962-.0425-1.1562-.0567-2.3414-.0425-3.4688-.3686-.7805-.2268-1.5465-.0851-2.3559-.0283-3.3531.2126-6.7208.2693-10.0884.1559-1.3731-.0425-2.7461-.1134-4.1047-.2127-.6649-.0425-1.3587-.1701-2.0235-.1701-.4625 0-.8817.1418-1.3442.1418-2.7895-.0142-5.5645-.0567-8.354-.0851-4.7551-.0425-9.5247-.0992-14.2799-.1417-3.252.4394-5.9837-.1134-9.2068-.6947-2.64492-.482-5.52113-1.531-6.61959-3.941-.4625-1.0066-.53477-2.1265-.49141-3.2039.01445-.3261.04336-.638 0-.964-.04336-.2977-.14453-.5671-.18789-.8648-.14454-.9782.15898-2.1123.40469-3.0621.13008-.482.28907-.9924.6504-1.361.31797-.3402.76603-.5387 1.21408-.6804 1.18517-.3686 2.44261-.4537 3.68562-.5246 1.7922-.0992 3.5844-.2126 5.3766-.3118.3614-.0142.7227-.0426 1.084-.0567-.0433-.1702-.0722-.3403-.0722-.5246l.0144-.0709c-1.0984-.0283-2.1969-.0283-3.2954-.0425-2.8328.0567-6.61958.0425-8.55633 1.4602-.8672.6379-1.02618 1.8146-1.1129 2.8636-.08672 1.0349-.11563 2.0982-.26016 3.133-.04336.3119-.17344.5671-.26016.8648-.05782.1985-.07227.3828-.08672.5812-.05782 1.12.0289 2.2399.4625 3.2606.96838 2.325 3.41099 4.1537 6.0415 4.1537 58.92627 2.5376 118.82077 2.5093 179.66977-.0141 3.873-.156 6.836-3.4307 6.561-7.23z"/><path d="m13.7754 35.1626c0 .7655.0289 1.5452.0723 2.3108.0144.3827.0433.7655.0722 1.1483.0145.2835 0 .5954.0578.8647.0579.2268.1157.4253.1157.6663.0289.6521.0578 1.3184.1011 1.9705.0579 1.3185.1301 2.6227.1879 3.9411.0868 1.687.159 3.3598.2457 5.0468.0434.9357.2024 1.7437.7083 2.5376.1011.156.1878.3119.3035.4537.1879.241.4191.4111.7082.5387 1.0551.4536 2.2547.6946 3.3965.8648 1.7633.2693 3.5411.3402 5.3188.3969 23.4289.808 46.8867 1.6303 70.33 1.0632 2.8617-.0709 5.8246-.1417 8.4836.9073-1.214-2.1265-4.1476-2.4383-6.6336-2.495-26.0449-.5813-52.1043-1.2334-78.0625-3.3599-.7082-.0567-1.4887-.1417-1.9945-.6521-.3614-.3544-.5059-.8647-.6215-1.3468-1.3297-5.2594-1.5899-10.7741-.7805-16.1328.0434-.326.1445-.6805.1301-1.0065-.0145-.3403-.0578-.6805-.0578-1.0349-.0145-.7088.0144-1.4318.0867-2.1407-.1012-.1701-.3469-.1701-.5348-.1417-.4914.0567-.9828.0992-1.4887.1559.0289.4678 0 .9073-.0578 1.3751-.0144.156.0145.2694.0289.4253.0289.3119-.0289.638-.0433.9357-.0289.4536-.0434.9215-.0579 1.3751 0 .4395-.0144.8931-.0144 1.3326z"/><path d="m104.906 58.1299c.289-.723 1.257-.8506 2.052-.8648 6.316-.1276 12.618-.241 18.934-.3686 5.955-.1134 11.924-.2268 17.879-.3544 1.922-.0425 3.974-.0425 5.564 1.0207-.029-.2268-.072-.4537-.101-.6805.679-.1134 1.33-.2552 2.023-.1984.376.0283.766-.0993 1.142-.1418.882-.1134 1.778-.1559 2.66-.1985 4.899-.2126 9.813-.2835 14.728-.5245 1.243-.0567 2.471-.1418 3.714-.2268 1.229-.0851 2.472-.156 3.686-.3261.173-.0283.332-.0851.506-.0992l.693-.0426c1.243-.0992 2.501-.326 3.657-.8505 1.445-.6522 2.717-1.8146 3.18-3.3032.202-.6663.245-1.3609.289-2.0556.144-3.1755.101-6.3652-.145-9.5266-.159-.1559-.563.1276-.621.3545-.593 2.3107-1.041 4.6498-1.33 7.0031-.173 1.4035-.318 2.892-1.2 3.9978-.968 1.205-2.587 1.687-4.119 2.0272-8.137 1.843-16.549 2.0273-24.888 2.1974-7.776.1559-15.552.3261-23.314.482-6.475-.2126-13.109.7939-19.541.1134-1.806-.1985-3.627-.5103-5.434-.2552-.13.0142-.275.0426-.376.1418-.072.0709-.086.1701-.115.2694-.217.7371.13 1.6728.477 2.41z"/></g><path d="m185.252 44.6755c-.015-2.6936-.044-5.3871-.073-8.0948-.014-2.5943-.043-5.1744-.057-7.7687-.029-3.1189.101-6.266-.275-9.3565-.072-.6096-.231-1.2334-.217-1.8429.015-.9215-.173-1.6303-.592-2.5093-.535-1.1908-1.301-2.2824-2.168-3.2748-1.879-2.18313-4.582-2.28237-7.4-2.39578-2.963-.12759-5.912-.01417-8.86-.02835-3.296-.01418-6.606-.02835-9.901-.05671-4.018-.02835-8.021-.07088-12.04-.11341-4.018-.04253-8.036-.08506-12.054-.12759-2.009-.01417-4.018-.04253-6.027-.0567-.419 0-.852-.04253-1.257.0567-.26.05671-.492.15594-.752.1843-.896.08506-1.922-.14177-2.804-.31189.116-2.02723.477-4.04029 1.084-5.99665-.823 2.01306-1.763 3.98359-2.832 5.88324-.073.12759-.145.25518-.275.31189-.13.0567-.289.04252-.419.02835-.304-.04253-.622-.07088-.925-.14177-.694-.17011-1.431-.09923-2.154-.09923-3.107-.02835-6.2-.04253-9.308-.05671-6.099-.02835-12.1983-.01417-18.2832.02836-6.5329.04252-13.0658-.04253-19.6132-.07089-1.7777-.01417-3.5555-.02835-5.3188-.02835-.766 0-1.5032-.02835-2.2403.12759-.766.17012-1.7055.02835-2.4859-.01418-.4336-.02835-.8962-.07088-1.243-.34023-.3469-.25518-.5059-.6663-.6649-1.06324-.318-.82224-.6359-1.64447-.9539-2.46671.0434.964.1445 1.91383.3035 2.86365.0434.31188.0723.70883-.2168.86477-.0867.04253-.2023.0567-.3035.07088-.3469.02835-.7082.11341-1.0551.04253-.6649-.12759-1.3297-.08506-2.009-.08506-7.429 0-14.8291-.02835-22.2292-.05671-4.1481-.01417-14.1209-2.08394-15.4796 3.4449-.1879.7655-.1734 1.5594-.2312 2.3533-.1445 2.3816-.0578 4.7775-.0145 7.1733.1157 7.8963.3469 15.7926.6649 23.6747.0433 1.205.1012 2.4242.2601 3.6292.1301.9498.0579 2.1973.8239 2.9345.2601.2552.448.4962.6793.7939.4625.5812 1.0984 1.0207 1.7922 1.3326 1.4887.6805 3.2086.8648 4.8563.9357 5.3767.2551 10.7389.4678 16.101.6237 5.4056.1701 10.7967.3261 16.2022.4253 5.4056.0992 10.7967.1701 16.2022.1985 4.8997.0283 9.7994.0425 14.6991.0567h7.5012c2.7028 0 5.9693-.8223 8.4552.4395 1.243.6237 2.284 1.6303 2.876 2.8778-.101-1.0066-.072-2.0273.087-3.0338 1.966-.2693 3.931-.4395 5.911-.4678.853-.0142 1.677.1134 2.53.0992.997 0 2.009-.0142 3.006-.0142 4.018-.0283 8.036-.0567 12.054-.0992 2.486-.0283 4.972-.0567 7.472-.085 5.406-.0568 10.797-.1843 16.203-.3828.968-.0425 1.951-.0709 2.919-.1134 7.444-.2836 14.887-.7088 22.316-1.2901.636-.0567 1.243-.1134 1.836-.2268.954-.1843 1.85-.5104 2.63-1.1625.954-.7939 1.879-1.6445 2.515-2.6935 1.026-1.687.766-3.615.752-5.5288zm-4.033 3.6575c-.39.6379-1.113 1.2759-1.705 1.7579-.145.1134-.362.2552-.925.3544-.419.085-.911.1276-1.402.1701-7.126.5529-14.584.9782-22.157 1.2901-.969.0425-1.923.0708-2.891.0992-5.666.1985-10.927.3261-16.101.3828-15.364.1843-30.496.2835-45.0076.2835-6.504 0-13.008-.0142-19.5264-.0567-5.3478-.0425-10.7967-.0992-16.1444-.1985-5.3477-.0992-10.7822-.241-16.1444-.4111s-10.7677-.3828-16.0576-.6379c-1.1708-.0426-2.5005-.156-3.4399-.5813-.2313-.1134-.3469-.1984-.3758-.2268-.1735-.2268-.3903-.4962-.636-.7797-.0144-.1418-.0289-.2977-.0433-.4253-.0289-.2552-.0434-.4962-.0723-.7372-.1301-1.0207-.1734-2.0697-.2312-3.3315-.3325-7.797-.5637-15.7358-.6649-23.5754l-.0144-1.3326c-.0434-1.9422-.0723-3.771.0433-5.5714.0145-.1985.0145-.4111.0289-.6379.0145-.4395.0289-.8364.0867-1.0633.1301-.482 1.5176-.9781 4.3939-.9781 1.4164 0 2.934.1134 4.2637.2126 1.1418.0992 2.2258.1701 3.1508.1701 6.6052.0284 13.2248.0425 19.8444.0425h3.7145c4.9431 0 9.8861.0142 14.8436.0426l4.7696.0283c3.4833.0284 6.981.0426 10.4642.0426 1.4598 0 2.9341 0 4.4228-.0142 3.6856-.0284 7.3567-.0425 11.0423-.0425 12.4735 0 25.1925.1417 37.4775.2693 9.64.0992 19.628.1985 29.398.241l.477.0142c.867 0 1.706-.0142 2.573-.0142.838-.0142 1.676-.0142 2.5-.0142 1.214 0 2.226.0142 3.137.0567h.101c2.645.1276 3.873.2552 4.596 1.0916.737.8506 1.243 1.6303 1.59 2.3817.26.5812.26.7372.26.964-.015.7372.101 1.3751.173 1.8854.015.1418.044.3119.073.4537.26 2.1548.245 4.3664.245 6.7196-.014.7372-.014 1.4744 0 2.2116l.13 15.8209c.015.3544.015.6805.029 1.0066.015 1.1199.044 2.1123-.289 2.6368z" fill="url(#e)"/><path d="m13.8449 30.1587 4.4227-.8648-.1878-.4111-4.5818.5387z" fill="#eb924d"/><path d="m180.292 17.2147 5.131.4253v-1.1341l-5.55.241z" fill="#eb924d"/><path d="m180.656 38.8915 5.68 1.0633-.116-.8932-6.099-.5245z" fill="#eb924d"/><path d="m164.044 34.1279c-4.321-2.3674-11.505-1.6444-14.93 1.5453-2.154 2.013-2.269 5.7698 0 7.7687 4.986 4.4089 13.745 2.5234 16.91-2.9204.058-.0567.116-.1134.188-.1559 2.414-2.1407.694-5.699-2.168-6.2377z" fill="#eb924d"/><path d="m165.072 32.044c-4.322-2.3675-11.505-1.6445-14.931 1.5452-2.153 2.0131-2.269 5.7698 0 7.7687 4.987 4.4089 13.745 2.5234 16.911-2.9204.057-.0567.115-.1134.188-.1559 2.413-2.1406.693-5.6989-2.168-6.2376z" fill="url(#f)"/><path d="m164.044 33.3897c-4.321-2.3675-11.505-1.6445-14.93 1.5452-2.154 2.0131-2.269 5.7698 0 7.7687 4.986 4.4089 13.745 2.5234 16.91-2.9204.058-.0567.116-.1134.188-.1559 2.414-2.1406.694-5.6989-2.168-6.2376z" fill="url(#g)"/><path d="m147.614 25.3963c-2.732-1.5027-7.256-1.0348-9.41.9782-1.358 1.2617-1.43 3.6434 0 4.9051 3.151 2.7786 8.672 1.5878 10.667-1.843.043-.0283.072-.0708.116-.0992 1.517-1.3609.433-3.6008-1.373-3.9411z" fill="#eb924d"/><path d="m148.264 24.0917c-2.732-1.5028-7.256-1.0349-9.409.9781-1.359 1.2617-1.431 3.6434 0 4.9051 3.151 2.7786 8.672 1.5878 10.666-1.8429.044-.0284.073-.0709.116-.0993 1.518-1.3751.434-3.615-1.373-3.941z" fill="url(#h)"/><path d="m147.614 24.9276c-2.732-1.5027-7.256-1.0349-9.41.9782-1.358 1.2759-1.43 3.6433 0 4.905 3.151 2.7786 8.672 1.5878 10.667-1.8429.043-.0284.072-.0709.116-.0992 1.517-1.361.433-3.6009-1.373-3.9411z" fill="url(#i)"/><path d="m36.3831 39.7694c-2.7317-1.5027-7.2556-1.0349-9.4091.9782-1.3586 1.2617-1.4309 3.6433 0 4.905 3.1508 2.7786 8.672 1.5878 10.6665-1.8429.0434-.0284.0723-.0709.1157-.0992 1.5176-1.361.4336-3.6009-1.3731-3.9411z" fill="#eb924d"/><path d="m37.0315 38.451c-2.7317-1.5027-7.2555-1.0349-9.4091.9782-1.3586 1.2759-1.4309 3.6434 0 4.9051 3.1508 2.7786 8.672 1.5877 10.6666-1.843.0433-.0283.0722-.0709.1156-.0992 1.5176-1.3609.4336-3.6008-1.3731-3.9411z" fill="url(#j)"/><path d="m36.3831 39.3026c-2.7317-1.5027-7.2556-1.0349-9.4091.9782-1.3586 1.2759-1.4309 3.6433 0 4.905 3.1508 2.7786 8.672 1.5878 10.6665-1.8429.0434-.0284.0723-.0709.1157-.0992 1.5176-1.361.4336-3.6009-1.3731-3.9411z" fill="url(#k)"/><path d="m13.7324 17c0-3.3137 2.6863-6 6-6h151.2866c5.523 0 10 4.4772 10 10v23c0 5.5228-4.477 10-10 10h-149.2866c-4.4183 0-8-3.5817-8-8z" fill="#eb924d" opacity=".9"/><path d="m61.9316 29.4336c-.1171.0651-.2148.1042-.2929.1172-.0912 0-.1563-.0065-.1953-.0196-.0261-.026-.0586-.039-.0977-.039-.0521-.013-.1107-.0261-.1758-.0391-.0521-.013-.0911-.0325-.1172-.0586-.0781 0-.1627-.0195-.2539-.0586-.1302-.013-.1953-.0195-.1953-.0195 0-.013-.0065-.0195-.0195-.0195-.0521-.013-.1172-.013-.1953 0-.0782.013-.1498.0195-.2149.0195-.026 0-.0586-.0065-.0976-.0195-.0391-.013-.0912-.0196-.1563-.0196-.1041.0131-.1823.0196-.2344.0196-.052-.013-.1041-.0196-.1562-.0196-.1432.0261-.2409.0326-.293.0196-.039-.0261-.0716-.0391-.0976-.0391-.1042.013-.1953.0195-.2735.0195-.0781-.013-.1497-.0195-.2148-.0195h-.3711c-.0651.013-.1302.0261-.1953.0391-.0521 0-.1107-.0065-.1758-.0196-.1302-.013-.2539-.026-.3711-.039s-.2344-.0195-.3516-.0195c-.0781 0-.1562.0065-.2343.0195-.0782 0-.1628.0065-.2539.0195-.0391 0-.0847 0-.1368 0-.052 0-.0976.0065-.1367.0195-.1432.0651-.2409.1042-.2929.1172-.0391 0-.0782.0065-.1172.0196-.0651.039-.1042.1302-.1172.2734s-.0261.2865-.0391.4297v.3906c.013.1432.0326.2865.0586.4297.0521.1172.0912.1758.1172.1758.0391-.013.0716-.0195.0977-.0195.0781 0 .1237.0065.1367.0195h.0781c.026.013.0586.0195.0977.0195.039 0 .0781.0065.1171.0195h.293c.0521-.013.1042-.0065.1563.0196.0651.013.1172.0195.1562.0195.0391 0 .0716-.0065.0977-.0195.0521 0 .1041-.0065.1562-.0196.0651-.013.1237-.0195.1758-.0195.0651 0 .1237.0065.1758.0195.0521 0 .1172.0066.1953.0196.0651 0 .1107.0065.1367.0195.0391 0 .0716-.0065.0977-.0195h.1172c.039-.013.0781-.0196.1171-.0196.1823-.013.3256-.0325.4297-.0585.1693.013.267.0195.293.0195.0391-.013.0911-.0195.1563-.0195.1562-.0261.2799-.0326.371-.0196.0912 0 .1628-.013.2149-.039.0391.013.0781.026.1172.039.039.013.0716.0196.0976.0196.0261 0 .0586-.0066.0977-.0196.0391-.026.0781-.039.1172-.039.039 0 .0781.013.1172.039.039.013.0846.0065.1367-.0195.1172.026.1888.0456.2148.0586.0261 0 .0521-.0065.0782-.0195.013.039.0325.0716.0585.0976.0261.013.0521.0391.0782.0781.0521.2084.0781.3581.0781.4493 0 .0781-.013.1692-.0391.2734-.013.1823-.026.293-.039.332-.013.0391-.0326.0847-.0586.1367-.0391.1042-.0586.1758-.0586.2149.013.026.013.0521 0 .0781-.0521.1042-.0781.1758-.0781.2149-.0131.1562-.0391.2604-.0782.3124 0 .0391-.0065.0847-.0195.1368-.013.039-.013.0846 0 .1367-.0521.1562-.0781.2604-.0781.3125.013.039.013.0846 0 .1367-.0521.1042-.0847.1758-.0977.2149-.013.026-.026.052-.039.0781-.0391.1041-.0912.2083-.1563.3125-.1172.0651-.1888.0976-.2148.0976-.0391 0-.0847 0-.1368 0-.039-.013-.0911-.0195-.1562-.0195-.1823-.013-.293-.026-.332-.0391-.0391-.026-.0847-.039-.1368-.039-.1562.026-.2539.0325-.2929.0195-.0391-.013-.0716-.0195-.0977-.0195-.1172 0-.1953-.0065-.2344-.0196-.026-.013-.052-.026-.0781-.039-.1432 0-.2474.0065-.3125.0195-.0651 0-.1302-.013-.1953-.0391-.1562.0131-.2734-.0065-.3516-.0585-.0651.026-.1302.0325-.1953.0195-.052-.0261-.0976-.0521-.1367-.0781-.1042 0-.2083 0-.3125 0-.0911-.0131-.1823-.0196-.2734-.0196-.1563-.026-.2604-.0325-.3125-.0195-.0391.013-.0716.0195-.0977.0195-.039.0131-.0781.0196-.1172.0196-.039-.0131-.0781-.0196-.1172-.0196-.039.0131-.0781.0261-.1171.0391-.0261 0-.0586-.0065-.0977-.0195 0 .052-.0065.1041-.0195.1562 0 .0521.0065.1042.0195.1563.0651.1562.0911.2669.0781.332-.013.0521-.0195.1042-.0195.1562.013.0521.0195.1303.0195.2344v.2149.1171c.013.0261.0196.0586.0196.0977s-.0066.0781-.0196.1172v.0977c.0521.026.0912.039.1172.039.0391-.013.0912-.013.1563 0h.1172c.052-.013.1106-.026.1757-.039h.1172c.0391-.0131.0716-.0196.0977-.0196.0651 0 .1172.0065.1562.0196.0521.013.0977.0195.1367.0195h.0977c.0391-.013.0781-.0261.1172-.0391.0911-.013.1497-.013.1758 0 .039 0 .0781.0065.1172.0196.1302-.0131.2018-.0196.2148-.0196h.1563c.0781 0 .1497.0065.2148.0196.1302.026.2018.039.2148.039.1433-.026.2214-.0325.2344-.0195h.0586c.1563-.0261.2539-.0326.293-.0195h.0976.5469c.1042-.0131.2018-.0196.293-.0196.1041-.013.1953-.0325.2734-.0586l.3125-.039c.0391.013.0847.013.1367 0 .0651-.0131.1107-.0261.1368-.0391.1562-.013.2539-.0326.2929-.0586.0521-.026.0977-.0391.1367-.0391.0391-.013.0717-.0195.0977-.0195.0391 0 .0846-.0065.1367-.0195.1172-.0261.1953-.0586.2344-.0977.0521-.039.1107-.026.1758.0391.1041.0521.1497.1042.1367.1562-.013.0391-.013.0651 0 .0782l.0976.2148c.0261.0912.0391.1497.0391.1758.013.013.0261.0456.0391.0976v.7618l-.0391.3515c.0261.1172.0326.2344.0195.3516v.3125c.0131.1953.0326.345.0586.4492-.013.1432-.0195.2669-.0195.3711.013.0911.026.1693.0391.2344.013.0781.0195.1432.0195.1953.013.039.0065.1107-.0195.2148-.0391.0912-.0651.1563-.0782.1953-.013.0391-.039.0717-.0781.0977-.026.1042-.0781.1693-.1562.1953-.0782.0261-.1888.0456-.3321.0586-.0781 0-.1562.0065-.2343.0195-.0651.0131-.1302.0131-.1954 0-.052 0-.1041-.0065-.1562-.0195s-.1107-.0195-.1758-.0195h-.293c-.0911-.0261-.1562-.0391-.1953-.0391-.026.013-.052.013-.0781 0-.1562-.013-.2539-.026-.293-.0391-.039-.013-.0716-.026-.0976-.039-.0912-.013-.1758-.013-.2539 0s-.1563.0195-.2344.0195c-.1432 0-.2148 0-.2148 0 0 .013-.0066.0195-.0196.0195-.1302.0131-.2148.0131-.2539 0-.039-.013-.0781-.0195-.1172-.0195-.039 0-.0846 0-.1367 0-.039.013-.0781.0195-.1172.0195-.039 0-.0781-.0065-.1172-.0195-.039-.013-.0781-.0195-.1171-.0195-.0391-.013-.0847-.0195-.1368-.0195-.039.013-.0846.0195-.1367.0195-.1172-.013-.1823-.0195-.1953-.0195-.013.013-.0325.0195-.0586.0195-.1953.013-.332.0195-.4101.0195-.0652.013-.1368.013-.2149 0-.1042 0-.1693 0-.1953 0-.013.013-.0326.0261-.0586.0391-.1172.013-.1953.013-.2344 0-.026-.013-.0521-.0196-.0781-.0196-.1432-.013-.2214-.013-.2344 0 0 .0131-.0195.0196-.0586.0196-.1692 0-.2799-.0065-.332-.0196-.0391 0-.0911.0066-.1562.0196h-.5665c-.0781-.013-.1562-.0261-.2343-.0391-.0782 0-.1628-.0065-.2539-.0195h-.7422c-.1563 0-.2409 0-.2539 0-.013.013-.0326.0195-.0586.0195h-.3711c-.1432.0261-.2214.0326-.2344.0195-.013 0-.026 0-.0391 0-.0651 0-.1237 0-.1757 0-.0391.0131-.0912.0196-.1563.0196-.1302 0-.2539 0-.3711 0-.1041 0-.2213-.0065-.3515-.0196-.0521 0-.1042-.0065-.1563-.0195-.0391 0-.0846.0065-.1367.0195-.2344.0131-.3776-.026-.4297-.1171-.0651-.1563-.0977-.2605-.0977-.3125-.039-.2084-.0716-.3125-.0976-.3125l.0195-.3125.0196-.2539c0-.1172 0-.1823 0-.1954.013-.013.0195-.0325.0195-.0585 0-.1172.0065-.1954.0195-.2344.013-.0391.0195-.0782.0195-.1172 0-.1172.0066-.1953.0196-.2344.013-.0521.0195-.1107.0195-.1758 0-.1562.0065-.2474.0195-.2734.0131-.0391.0131-.0912 0-.1563.0261-.1171.0391-.1953.0391-.2343 0-.0521.0065-.1042.0195-.1563.0391-.1432.0651-.2213.0782-.2344.013-.1041.013-.2083 0-.3125 0-.1041 0-.2083 0-.3125 0-.039.0065-.0781.0195-.1171.013-.0391.0195-.0782.0195-.1172 0-.0521-.0065-.0977-.0195-.1368 0-.052.0065-.0976.0195-.1367.0261-.1562.0326-.2474.0196-.2734 0-.026 0-.0521 0-.0781.013-.0912.0195-.1563.0195-.1953.013-.0521.0195-.0912.0195-.1172.013-.1433.0195-.2149.0195-.2149.0131 0 .0196-.0065.0196-.0195-.013-.1563-.0196-.2669-.0196-.332.0131-.0651.0196-.1302.0196-.1953 0-.0391 0-.0782 0-.1172 0-.0521-.0065-.0912-.0196-.1172 0-.0782-.0065-.1433-.0195-.1953 0-.0521 0-.1042 0-.1563-.013-.1302-.0195-.2213-.0195-.2734s0-.0977 0-.1367c.013-.0521.0065-.0977-.0195-.1368.026-.0651.039-.1302.039-.1953 0-.0781 0-.1497 0-.2148s-.0065-.1237-.0195-.1758c-.013-.0651-.0195-.1367-.0195-.2148 0-.0912-.0066-.1498-.0196-.1758 0-.0261 0-.0521 0-.0782-.026-.1953-.026-.3971 0-.6054 0-.0651-.0065-.1237-.0195-.1758 0-.0651 0-.1302 0-.1953 0-.1042-.0065-.2018-.0195-.293 0-.1041 0-.2018 0-.2929 0-.1954 0-.3191 0-.3711.013-.0521.0065-.1042-.0196-.1563.0261-.0781.0326-.1562.0196-.2344-.0131-.0781-.0196-.1497-.0196-.2148-.013-.1693-.013-.2995 0-.3906-.013-.0391-.0195-.0782-.0195-.1172.013-.0391.0195-.0716.0195-.0977 0-.0521-.0065-.1041-.0195-.1562 0-.0521.013-.0977.0391-.1367-.0261-.1693-.0456-.2865-.0586-.3516 0-.0781-.0065-.1498-.0196-.2149-.013-.1302-.0325-.2278-.0586-.2929-.026-.0651-.026-.1433 0-.2344l-.0586-.2734c.0131-.1693.0131-.267 0-.293-.026-.1823-.039-.2995-.039-.3516.026-.1953.0325-.319.0195-.3711 0-.052.0261-.0976.0781-.1367.0261-.0781.0456-.1237.0586-.1367.0261-.026.0521-.0521.0782-.0781.052-.0651.0976-.1172.1367-.1563.0521-.039.0911-.0651.1172-.0781.1041-.0391.2018-.0586.2929-.0586.1302-.026.2279-.0391.293-.0391h.332c.1433-.013.2344-.013.2735 0 .039.0131.0716.0261.0976.0391h.4688c.2213-.026.4101-.0325.5664-.0195.1562 0 .3125.0065.4687.0195.0391 0 .0782.0065.1172.0195h.1172.1953c.013-.013.0261-.0195.0391-.0195.1562.0391.2669.0586.332.0586.0781-.013.1498-.013.2149 0 .0651 0 .1302.0065.1953.0195h.2148c.0651.0131.1563.0196.2735.0196.1171 0 .2083-.0065.2734-.0196.1172 0 .1823.0065.1953.0196h.0391.1367c.039-.0131.0781-.0196.1172-.0196.1172-.013.2474-.013.3906 0h.5078l.4492-.0195c.0651-.026.1172-.0326.1563-.0195h.1367.4492c.1172-.0131.2279-.0196.332-.0196h.1758c.013-.013.0261-.0195.0391-.0195l.2148.0391c.1433.013.2344.013.2735 0 .0521-.0131.0911 0 .1172.039.039-.026.0976-.039.1757-.039.0912 0 .1498.013.1758.039l.293-.0195c.1172-.013.1953-.026.2344-.0391l.2343-.0195c.1042-.013.1758-.013.2149 0 .039.013.0846.026.1367.0391.0521.013.0977.013.1367 0 .0521-.0131.0977-.0131.1367 0 .1693.0781.267.1237.293.1367.1172.1042.1953.1823.2344.2344.039.052.0521.1302.039.2343-.026.1172-.0325.2019-.0195.2539.013.0391.0195.0782.0195.1172-.052.1823-.0846.293-.0976.3321-.0521.1302-.0846.2148-.0977.2539 0 .026.0065.0521.0196.0781-.0521.1432-.0782.2344-.0782.2734.0131.0391.0131.0782 0 .1172 0 .0391-.0065.0781-.0195.1172 0 .026-.0065.0586-.0195.0977l-.0391.2148-.1172.8203c-.013.0651-.0195.1302-.0195.1953 0 .0521-.013.1107-.0391.1758zm6.0547 10.7226c-.0781-.013-.1627-.026-.2539-.039-.0911 0-.1692.0195-.2344.0586-.0781-.0261-.1562-.0326-.2343-.0196-.0651.0261-.1302.0456-.1953.0586-.1823.0131-.293.0131-.3321 0-.039 0-.0781 0-.1172 0l-.3125.0196c-.052.013-.0976.0195-.1367.0195-.026.013-.0716.013-.1367 0l-.2148-.0195c-.1042 0-.1628-.0065-.1758-.0196-.013 0-.0326 0-.0586 0-.0912.0131-.1758.0131-.2539 0-.0651 0-.1302 0-.1953 0h-.3321c-.0651-.013-.1106-.0195-.1367-.0195-.026.013-.0586.013-.0976 0-.0912-.026-.1628-.0586-.2149-.0976-.039-.0261-.0781-.0521-.1172-.0782-.0781-.039-.1172-.0716-.1172-.0976.0131-.0391-.0065-.0521-.0586-.0391.0261-.0521.0391-.1172.0391-.1953s-.0065-.1563-.0195-.2344c.026-.2474.026-.4883 0-.7226v-.5469c.039-.2083.0586-.3385.0586-.3906.026-.1563.039-.2474.039-.2735 0-.1302 0-.2018 0-.2148.0131-.1563.0261-.2604.0391-.3125v-.586c.026-.1041.0391-.1953.0391-.2734-.0131-.0781-.0131-.1432 0-.1953.013-.0521.0195-.1107.0195-.1758-.0261-.0911-.0391-.1758-.0391-.2539.013-.0781.0196-.1627.0196-.2539v-.2344c0-.1172.0065-.2278.0195-.332s.013-.2279 0-.3711c-.0261-.0781-.0326-.1497-.0195-.2148.013-.0782.0195-.1693.0195-.2735 0-.0651-.0065-.1302-.0195-.1953 0-.0781 0-.1562 0-.2344 0-.1432-.0066-.2474-.0196-.3125-.026-.2213-.039-.3906-.039-.5078.013-.1302.0195-.2539.0195-.3711l-.0195-.332c-.0131-.0521-.0261-.0911-.0391-.1172-.013-.039-.0195-.0846-.0195-.1367.0521-.1693.0716-.2865.0586-.3516 0-.0651 0-.1302 0-.1953v-.3906c0-.0781 0-.1563 0-.2344.013-.0911.0195-.1758.0195-.2539-.013-.1562-.026-.319-.0391-.4883 0-.1692.0065-.3255.0196-.4687-.0391-.0521-.0586-.1042-.0586-.1563.013-.0651.0195-.1302.0195-.1953 0-.1432-.0065-.2148-.0195-.2148 0-.013 0-.0261 0-.0391-.013-.0911-.0196-.1758-.0196-.2539-.013-.1432-.013-.2279 0-.2539.0131-.026.0196-.0521.0196-.0781 0-.0521-.0065-.1042-.0196-.1563-.013-.0521-.0195-.1107-.0195-.1758.013-.0911.0065-.2018-.0195-.332 0-.039 0-.0781 0-.1172.013-.039.013-.0846 0-.1367 0-.1302-.013-.2148-.0391-.2539-.013-.0391-.0195-.0716-.0195-.0977 0-.0911-.0065-.1757-.0195-.2539 0-.0781 0-.1497 0-.2148l-.0196-.2539c-.026-.1172-.039-.1823-.039-.1953.013-.013.0195-.0326.0195-.0586-.013-.0651-.0261-.1172-.0391-.1563-.013-.0521-.0195-.0976-.0195-.1367.013-.1432.013-.2213 0-.2344 0-.013 0-.0325 0-.0586l.0391-.2539c.026-.026.052-.052.0781-.0781.026-.026.0521-.0521.0781-.0781.0651-.0261.1302-.0391.1953-.0391.0781-.013.1433-.0325.1953-.0586.1172-.013.2149-.0195.293-.0195.0911 0 .1693.013.2344.0391.1302.026.2083.039.2344.039.026-.013.052-.0195.0781-.0195.1172.013.2018.0195.2539.0195s.1107.0065.1758.0196c.1432.013.2409.0195.2929.0195.0651 0 .1302.0065.1953.0195l.2344.0391h.1953c.0521 0 .0977-.0065.1368-.0195l.3125-.0391h.2343c.0391-.013.0847-.013.1367 0h.1172c.0391 0 .0912-.013.1563-.0391.1172.0521.1823.0782.1953.0782s.0195.013.0195.039l.1367.1953c0 .0521-.0065.0977-.0195.1367v.0782.2539c.013.0781.0195.1497.0195.2148l-.0195.2344c-.013.0521-.0195.1042-.0195.1562 0 .0391-.0065.0847-.0195.1368-.0261.2343-.0521.3841-.0782.4492.0261.0651.0326.1367.0196.2148-.0131.0781-.0196.1498-.0196.2149-.013.1432-.0195.2213-.0195.2343.013.0131.0195.0326.0195.0586l-.0195.3125c-.013.1693 0 .306.0391.4102-.0131.1562-.0131.2604 0 .3125.013.0391.0065.0651-.0196.0781v.293c0 .1823.0065.293.0196.332.013.0261.0065.0586-.0196.0977v.5859c.0261.0781.0391.1563.0391.2344 0 .0521-.0065.1042-.0195.1562-.0131.0521 0 .1107.039.1758-.026.2214-.0456.4557-.0586.7031 0 .2344.013.4558.0391.6641 0 .0391.0065.0781.0195.1172s.0196.0716.0196.0976c-.0131.0521-.0261.0977-.0391.1368 0 .026-.0065.0586-.0195.0976v.2735c.013.026.0195.052.0195.0781v.3711c.013.0911.013.1953 0 .3125v.332c0 .0521-.0065.1042-.0195.1563v.1171c-.0131.0782-.0196.1433-.0196.1954.013.039.0196.0716.0196.0976.013.0912.013.1758 0 .2539-.0131.0781-.0196.1433-.0196.1953-.013.0651-.0195.1368-.0195.2149.013.0781.013.1497 0 .2148 0 .0261-.0065.0651-.0195.1172v.1172.3516c.013.1171.013.2343 0 .3515.013.1693.0195.28.0195.3321-.026.1432-.0326.2343-.0195.2734.013.0391.0195.0846.0195.1367-.013.1172-.0195.1888-.0195.2149.013.013.0065.0325-.0196.0585.0261.1172.0391.1823.0391.1954.013 0 .0195.0065.0195.0195.013.1562.0196.2669.0196.332v.2149c.039.0911.052.1497.039.1758-.013.026-.0065.0455.0196.0585-.0131.0651-.0131.1303 0 .1954.026.0651.0455.1302.0585.1953 0 .1562.0066.2604.0196.3125.013.039.026.0911.039.1562.0131.0391.0196.0912.0196.1563v.1758l-.0196.2734c0 .0651.0066.1107.0196.1367s.013.0716 0 .1367c-.0261.1172-.0456.1823-.0586.1953-.013.0131-.0196.0261-.0196.0391zm19.336-6.0351c.1172.0911.2018.1562.2539.1953.1041.1042.1562.1628.1562.1758.013.013.0326.026.0586.039.0261.0521.0716.1107.1367.1758.0912.1172.1368.1823.1368.1953.013.0131.026.0261.039.0391.0391.0521.0977.1172.1758.1953.026.0261.0521.0586.0781.0977.0261.039.0586.0651.0977.0781.1041.1953.1627.3125.1758.3516.0781.1041.1497.2278.2148.3711.0521.0781.0846.1367.0977.1757.013.0261.0325.0651.0586.1172.052.1302.0716.2084.0585.2344-.013.026-.0195.0586-.0195.0977-.013.1822-.0325.2994-.0586.3515-.013.0391-.026.0912-.039.1563-.0131.039-.0326.0716-.0586.0976-.0261.0261-.0391.0586-.0391.0977-.0391.039-.0781.0846-.1172.1367-.026.0521-.0586.1107-.0976.1758-.0261.0521-.0586.1107-.0977.1758-.0391.052-.0846.0911-.1367.1172-.0521.1041-.0847.1692-.0977.1953 0 .013-.0065.026-.0195.039l-.1563.1563-.1367.1758c-.0911.052-.1432.0846-.1562.0976 0 .013-.013.0261-.0391.0391-.026.0521-.0846.1041-.1758.1562-.0911.0912-.1432.1433-.1562.1563-.1172.0911-.2018.1562-.2539.1953-.0391.026-.0781.0521-.1172.0781-.1042.0912-.1628.1367-.1758.1367 0 0-.0065.0065-.0195.0196-.1302.0781-.2084.1432-.2344.1953-.1172.0651-.2018.1172-.2539.1562-.0391.0391-.0846.0716-.1367.0977-.1172.039-.1888.0586-.2149.0586-.013 0-.0325.013-.0586.039-.1302.0261-.2278.0456-.2929.0586-.0651.0261-.1172.0456-.1563.0586-.1041.0261-.1888.0521-.2539.0781-.1172.0391-.1888.0521-.2148.0391-.0261 0-.0521.0065-.0782.0195-.1432.0261-.2539.0391-.332.0391-.0781.013-.1302.0195-.1562.0195-.0782-.013-.1433-.0195-.1953-.0195-.0521.013-.0847.0195-.0977.0195-.1693.0261-.2865.0326-.3516.0196-.0651 0-.1237-.0065-.1757-.0196-.1303 0-.2214-.0065-.2735-.0195l-.2344-.0195c-.1432-.0391-.2474-.0651-.3125-.0782-.0651 0-.1302.0131-.1953.0391-.1692-.026-.2799-.0456-.332-.0586-.0521 0-.1042.013-.1563.0391-.1432 0-.2213 0-.2343 0-.013.013-.0326.0195-.0586.0195-.1563 0-.2409 0-.2539 0-.013.013-.0326.0195-.0586.0195-.0651 0-.1302-.013-.1953-.039-.0651-.013-.1302-.0196-.1953-.0196-.1042-.013-.1693-.0195-.1954-.0195-.013.013-.0325.0195-.0586.0195-.1302-.026-.2083-.0455-.2343-.0585-.0261 0-.0521 0-.0782 0-.1171 0-.1888 0-.2148 0-.026.013-.0521.013-.0781 0-.1433-.0261-.2279-.0391-.2539-.0391-.013.013-.0326.0195-.0586.0195-.1563 0-.2669.0065-.3321.0196-.052.026-.1106.026-.1757 0-.0261.013-.0586.0195-.0977.0195-.026 0-.0651.013-.1172.039-.0781.0261-.1432.0391-.1953.0391-.0391 0-.0781 0-.1172 0-.039 0-.0846 0-.1367 0-.0391.013-.0716.013-.0977 0-.1041.0391-.1822.0521-.2343.0391-.0391 0-.0782.0065-.1172.0195-.0651 0-.1302.0065-.1953.0195-.0521.0131-.1107.0065-.1758-.0195-.0651-.013-.1172-.026-.1563-.0391-.026-.013-.0586-.026-.0976-.039-.1042.013-.1888.0195-.2539.0195-.0521 0-.0977-.0065-.1367-.0195-.1172-.0521-.2019-.1042-.2539-.1563-.0521-.039-.0912-.0716-.1172-.0976-.0261-.0261-.0521-.0716-.0782-.1367l-.0586-.2344c-.026-.1042-.039-.1823-.039-.2344s.013-.1042.039-.1562c.0261-.1172.0326-.1823.0196-.1954 0-.013 0-.0325 0-.0586.013-.1822.0195-.3059.0195-.371 0-.0782 0-.1498 0-.2149.0391-.3385.0456-.5924.0195-.7617.0261-.1302.0391-.2214.0391-.2734 0-.0651.0065-.1237.0195-.1758 0-.1953-.0065-.3646-.0195-.5078 0-.1433.0065-.2995.0195-.4688.0391-.2083.0521-.3516.0391-.4297 0-.0911.0065-.1758.0195-.2539 0-.1693-.0065-.2799-.0195-.332 0-.0521-.0065-.1107-.0195-.1758 0-.1172 0-.2409 0-.3711.013-.1302.013-.2474 0-.3515-.0261-.1954-.0326-.3191-.0196-.3711.0131-.0651.0196-.1433.0196-.2344-.0131-.1172-.0196-.1953-.0196-.2344.0131-.0391.0131-.0781 0-.1172 0-.0521-.0065-.0911-.0195-.1172 0-.039 0-.0781 0-.1172 0-.039 0-.0781 0-.1171.013-.0391.0195-.0782.0195-.1172 0-.0521-.0065-.1042-.0195-.1563s-.026-.1041-.0391-.1562v-.2539c-.013-.0521-.0195-.0977-.0195-.1368 0-.052 0-.0976 0-.1367 0-.0521 0-.0976 0-.1367.013-.0391.0195-.0846.0195-.1367-.013-.0521-.0325-.1432-.0586-.2735-.026-.1041-.0455-.1953-.0585-.2734 0-.0911-.0066-.1823-.0196-.2734-.026-.1172-.0456-.1758-.0586-.1758 0-.013-.0065-.0326-.0195-.0586 0-.0521 0-.1042 0-.1562.013-.0652.0195-.1107.0195-.1368 0-.039-.0065-.0781-.0195-.1172 0-.039 0-.0781 0-.1171 0-.0782 0-.1563 0-.2344.013-.0781.013-.1498 0-.2149 0-.0781-.0065-.1497-.0195-.2148 0-.0651-.0065-.1302-.0196-.1953-.039-.2214-.0651-.4102-.0781-.5664-.013-.1563-.0195-.2474-.0195-.2735.013-.026.0195-.052.0195-.0781-.026-.1302-.0391-.2279-.0391-.293-.013-.1822-.026-.3711-.039-.5664 0-.1953 0-.3906 0-.5859v-.2148c-.013-.0651-.0195-.1498-.0195-.254.013-.1041.013-.2148 0-.332.039-.0651.0716-.1302.0976-.1953.0261-.0781.0716-.1432.1367-.1953.0391 0 .0847-.013.1367-.0391.0521-.026.0912-.0325.1172-.0195.0651.026.1107.0326.1368.0195.039-.026.0716-.0455.0976-.0586.2083-.039.319-.0586.332-.0586.0521 0 .0977.0066.1368.0196h.1367c.1432.026.2344.039.2734.039.0391-.013.0847-.0195.1367-.0195.1302-.013.2084-.013.2344 0h.0977.1172c.039-.013.0781-.0195.1171-.0195.0782 0 .1823.013.3125.039h.1563c.0521 0 .1107.0065.1758.0196.1562 0 .2539.0065.2929.0195.0521.013.0977.026.1368.0391l.332.0195h.2539c.1172.013.1823.0195.1953.0195.013-.013.0261-.0195.0391-.0195.1692-.013.2734-.026.3125-.0391.0521-.013.1041-.0195.1562-.0195.0391 0 .0716.0065.0977.0195h.1172.5468.1172c.0391-.013.0716-.0065.0977.0196.0911-.0261.1823-.0391.2734-.0391h.3321c.0651-.013.1302-.0195.1953-.0195.0651-.0131.1237-.0196.1757-.0196.1563-.013.254-.0195.293-.0195.0391-.013.0847-.0195.1367-.0195.1433 0 .2409.0065.293.0195.0651.013.1302.0195.1953.0195h.0977c.0521 0 .0911.0131.1172.0391.0781-.0521.1562-.0651.2343-.0391.0782.0131.1628.0131.2539 0 .0521-.013.0977-.026.1368-.039.039-.0261.0846-.0456.1367-.0586h.1758c.0651 0 .1171.0065.1562.0195.0521.013.0977.0261.1367.0391h.1172c.1693.026.293.0521.3711.0781.1693.026.2734.0521.3125.0781.0391.013.0846.0326.1367.0586l.1953.0977c.1042.1432.1628.2278.1758.2539.0261.013.0586.0325.0977.0586.1041.1432.1627.2278.1758.2539.013.026.0325.0586.0586.0976.026.0521.0455.1042.0585.1563.0131.0391.0326.0846.0586.1367.0912.1172.1368.1823.1368.1953.013 0 .0195.0065.0195.0195.0521.0912.0846.1433.0976.1563.0131 0 .0261.013.0391.0391.0781.1302.1172.1953.1172.1953.0651.1172.1237.2083.1758.2734.0911.1042.1367.1758.1367.2149.013.039.0325.0781.0586.1171.0781.1172.1302.2019.1562.2539.0782.1172.1237.1889.1368.2149.052.1172.0846.1823.0976.1953.0651.1042.0977.1823.0977.2344.013.039.0325.0781.0586.1172l.1172.2343c.1041.1563.1627.28.1757.3711.0391.1042.0651.1758.0782.2149.026.026.052.0586.0781.0976.039.1563.0586.2474.0586.2735v.4101c0 .1172-.0261.2019-.0781.2539-.0912.0912-.1433.1368-.1563.1368s-.026.013-.0391.039c-.026.0261-.0455.0586-.0586.0977-.013.026-.0325.0586-.0585.0976-.0782.0651-.1303.0977-.1563.0977s-.0456.013-.0586.039c-.0781.0652-.1237.1042-.1367.1172 0 0-.013.0065-.0391.0196-.1302.1172-.1953.1758-.1953.1758-.1042.1041-.1758.1692-.2148.1953-.0391.013-.0716.039-.0977.0781-.1042.0781-.1693.1302-.1953.1562-.1302.0782-.1953.1302-.1953.1563-.0912.0781-.1497.1302-.1758.1562-.026.0131-.0521.0326-.0781.0586-.0912.0782-.1563.1172-.1953.1172-.0651.0651-.1107.1042-.1367.1172-.0131 0-.0326.0065-.0586.0195-.1433.1433-.2409.2279-.293.2539-.0521.0131-.0846.0456-.0977.0977 0 .0391.0456.1042.1368.1953.1171.1302.1888.2083.2148.2344.0391.013.0716.0325.0977.0586.026.026.052.0521.0781.0781.039.026.0781.0521.1172.0781.0651.0521.1237.1042.1757.1563.0521.0521.0977.1172.1368.1953zm-3.5352-3.8477c-.0651-.1562-.0976-.2408-.0976-.2539 0-.013-.0131-.0325-.0391-.0586-.0781-.1432-.1172-.2213-.1172-.2343-.0781-.0782-.1172-.1433-.1172-.1954-.0911-.1171-.1432-.1888-.1562-.2148 0-.026-.0131-.0521-.0391-.0781-.0521-.1042-.1042-.1823-.1562-.2344-.1303-.1562-.2019-.2474-.2149-.2734-.0781-.1042-.1497-.1823-.2148-.2344-.0521-.0521-.1042-.1042-.1563-.1563-.1172-.1041-.1823-.1562-.1953-.1562 0 0-.013-.0065-.0391-.0195l-.2148-.1368c-.1302-.026-.2083-.052-.2344-.0781-.0651.013-.1107.0261-.1367.0391s-.0521.026-.0781.039c-.0912.0651-.1498.1693-.1758.3125-.026.1042-.0391.1888-.0391.254-.013.052-.0195.1041-.0195.1562.013.0521.0195.0911.0195.1172-.026.1042-.039.1953-.039.2734.013.0521.0195.0977.0195.1367v.0782c.0391.2604.0521.4948.0391.7031-.0131.2083-.0131.4036 0 .5859.026.1953.0325.3386.0195.4297-.013.0912-.0195.1693-.0195.2344-.0261.2083-.0391.3646-.0391.4687.013.0912.026.1758.0391.2539.013.1433.052.2735.1172.3907.1432 0 .2083 0 .1953 0 0-.013.0065-.0261.0195-.0391.1042-.039.1758-.0716.2148-.0976.0521-.0391.1107-.0651.1758-.0782.1042-.1172.1693-.1823.1953-.1953.0391-.013.0716-.0325.0977-.0586.0781-.0911.1432-.1497.1953-.1758.0651-.039.1172-.0846.1563-.1367.039-.0521.0976-.0846.1757-.0976.1042-.1172.1693-.1953.1953-.2344.0391-.0391.0847-.0716.1368-.0977.026-.039.0455-.0716.0586-.0976.026-.0391.052-.0716.0781-.0977.1302-.0651.2018-.1107.2148-.1367.0261-.026.0521-.0521.0782-.0781.052-.0781.1041-.1302.1562-.1563.026-.1823.026-.2799 0-.2929-.026-.0261-.0456-.0521-.0586-.0782zm-1.875 7.7735c.0651 0 .1367-.013.2149-.0391.0651-.013.1106-.026.1367-.039.039-.0131.0716-.0261.0976-.0391.1302-.0651.1953-.0977.1953-.0977 0-.013.0066-.0195.0196-.0195.1432-.0781.2278-.1237.2539-.1367.026-.0261.0521-.0521.0781-.0781.1042-.0651.1628-.1172.1758-.1563.1172-.0911.1888-.1432.2148-.1562.0261-.0261.0521-.0521.0782-.0782.0781-.1302.1237-.1953.1367-.1953.0521-.1172.0846-.1888.0976-.2148.013-.0261.0261-.0521.0391-.0781.0521-.1433.0911-.2474.1172-.3126.039-.0651.0521-.1367.039-.2148-.0781-.1172-.1171-.1823-.1171-.1953s-.0066-.026-.0196-.0391c-.0521-.0781-.0976-.1367-.1367-.1758-.0911-.1041-.1367-.1627-.1367-.1757l-.1953-.1563-.1563-.1953c-.0911-.1172-.1432-.1758-.1562-.1758 0 0-.0065-.0065-.0196-.0195-.0781-.0651-.1237-.1042-.1367-.1172s-.0325-.026-.0586-.0391c-.1302-.0651-.2213-.1302-.2734-.1953-.0391-.039-.0781-.0781-.1172-.1172-.0391-.052-.0781-.0911-.1172-.1171-.1693-.1303-.3125-.2214-.4297-.2735-.1041-.0521-.2018-.1041-.2929-.1562 0 .039-.0131.0716-.0391.0976-.026.0261-.0456.0586-.0586.0977-.013.1432-.0195.2213-.0195.2344.013 0 .0195.0065.0195.0195 0 .0651-.0065.1237-.0195.1758-.013.039-.0196.0781-.0196.1172v.1171c.0131.0391.0196.0717.0196.0977.013.0521.013.1042 0 .1562v.0977c.013.2344.013.4427 0 .625 0 .1693.013.319.039.4492l.0196.2539v.2149.1562c0 .0521-.0065.1107-.0196.1758.0261.026.0326.0781.0196.1563v.1757c.052.1302.0716.2214.0586.2735 0 .039.0065.0846.0195.1367.1042.0911.1888.1432.2539.1562.0651.0131.1302.0196.1953.0196zm14.7266 2.0117c-.0651-.1563-.1107-.2474-.1367-.2734-.0131-.0391-.0261-.0912-.0391-.1563l.0195-.2539c0-.0521-.0065-.0977-.0195-.1367-.013-.0521-.0195-.0977-.0195-.1367-.0261-.1433-.0521-.2409-.0782-.293.0131-.0781.0196-.1302.0196-.1563 0-.039-.0065-.0716-.0196-.0976l-.1172-.1953c-.1041.1302-.1497.1953-.1367.1953-.1041.0651-.1627.1107-.1758.1367-.0781.0781-.1237.1172-.1367.1172s-.0325.013-.0586.0391c-.0911.1302-.1627.2213-.2148.2734-.1042.1172-.1563.1758-.1563.1758-.0651.0781-.1237.1302-.1757.1562-.0782.0781-.1237.1302-.1368.1563-.013.013-.039.0325-.0781.0586-.0911.1041-.1627.1692-.2148.1953-.1172.1302-.1888.1953-.2149.1953-.026.026-.0586.0456-.0976.0586-.0391.026-.0716.0521-.0977.0781-.039.013-.1107.0195-.2148.0195-.1302 0-.2214 0-.2735 0-.1562-.052-.2474-.0911-.2734-.1171-.1172-.0261-.1953-.0456-.2344-.0586-.039-.0131-.0781-.0196-.1172-.0196-.1172-.0911-.1757-.1367-.1757-.1367-.1042-.026-.1628-.039-.1758-.039-.013-.0131-.0261-.0196-.0391-.0196-.1302-.0521-.2148-.0846-.2539-.0976-.026-.0261-.0716-.0391-.1367-.0391-.0781-.0521-.1237-.0846-.1367-.0977 0-.026-.0065-.0455-.0196-.0586-.0781-.052-.1432-.0846-.1953-.0976-.026-.0651-.0651-.1042-.1172-.1172-.052-.026-.1041-.0586-.1562-.0976-.0912-.0912-.1432-.1368-.1563-.1368 0-.013-.013-.0325-.039-.0586l-.1758-.1757-.1563-.1758c-.1041-.1433-.1823-.2539-.2343-.3321-.1302-.1562-.1953-.2474-.1953-.2734-.1693-.1562-.2605-.2409-.2735-.2539-.0651-.0651-.1107-.1302-.1367-.1953-.0651-.0912-.1107-.1628-.1367-.2149-.0521-.039-.0847-.0976-.0977-.1757 0-.0782 0-.1563 0-.2344-.026-.1042-.0586-.2018-.0976-.293-.0391-.0911-.0521-.1562-.0391-.1953s.013-.0911 0-.1562c.0391-.0651.0651-.1237.0781-.1758.0261-.0521.0716-.0912.1367-.1172.0521-.1302.0847-.1953.0977-.1953.0651-.0912.1107-.1563.1367-.1953.0521-.0912.0847-.1433.0977-.1563.026-.026.0521-.0521.0781-.0781.026-.0521.0781-.1172.1563-.1953.052-.0391.0976-.0847.1367-.1367.0521-.0521.1041-.1042.1562-.1563.1042-.1172.2018-.2213.293-.3125.1042-.1172.1562-.1758.1562-.1758.0131 0 .0261-.0065.0391-.0195.1302-.1042.2018-.1693.2148-.1953.0261-.0261.0521-.0521.0782-.0781.1172-.0782.1823-.1172.1953-.1172s.0325-.0065.0586-.0196c.1302-.0781.2018-.1237.2148-.1367.1042-.0651.1628-.1107.1758-.1367.026-.026.0521-.0456.0781-.0586.1302-.0781.2214-.1302.2735-.1562.1172-.0912.1757-.1368.1757-.1368.0131 0 .0261-.0065.0391-.0195.1432-.0521.2279-.1042.2539-.1562.1302-.0521.2344-.0977.3125-.1368.0781-.052.1628-.0911.2539-.1171.1433-.0652.2344-.1172.2735-.1563.1302-.1042.1953-.1693.1953-.1953-.0521-.0391-.1107-.0521-.1758-.0391-.0521 0-.1172 0-.1953 0-.1172 0-.2018 0-.2539 0s-.1042 0-.1563 0c-.039 0-.0846.0065-.1367.0196-.0391 0-.0846-.0066-.1367-.0196-.1693-.026-.28-.0325-.332-.0195-.0391 0-.0782 0-.1172 0l-.3321.0195c-.0781-.026-.1562-.039-.2343-.039-.0391.013-.0847.0195-.1368.0195-.052-.013-.0976-.0195-.1367-.0195-.0781 0-.1627.013-.2539.039-.0911.013-.1888.0196-.293.0196-.039.013-.0846.0195-.1367.0195-.039-.013-.0846-.0195-.1367-.0195-.1953 0-.3516 0-.4687 0-.1042-.0131-.2084-.0131-.3125 0-.1563-.0131-.2409-.0261-.2539-.0391-.0131-.026-.0326-.0521-.0586-.0781-.0651-.1433-.0977-.2214-.0977-.2344.013-.026.0195-.0521.0195-.0781.0261-.1302.0391-.2084.0391-.2344.013-.026.0195-.0521.0195-.0781.0261-.1302.0456-.1953.0586-.1953.013-.0131.0261-.0326.0391-.0586.026-.1563.0521-.267.0781-.3321.0261-.0781.0521-.1497.0781-.2148.0131-.0391.0196-.0716.0196-.0977 0-.039.013-.0781.039-.1172.0521-.1302.0782-.2799.0782-.4492.026-.1692.0585-.2995.0976-.3906.0391-.1042.0651-.1953.0781-.2734.0391-.1302.0586-.2214.0586-.2735l.0782-.2343c.1171-.1303.1888-.2279.2148-.293.0391-.0261.0716-.0456.0977-.0586.039-.0261.0781-.0521.1171-.0781.1042-.0391.1954-.0651.2735-.0782.0781 0 .1237-.0065.1367-.0195.026-.013.0521-.026.0781-.0391.1433.0131.2344.0131.2735 0 .052-.013.1106 0 .1757.0391.0912-.026.1498-.0325.1758-.0195h.1172c.0781.013.1628.0195.2539.0195h.293.2148c.1563-.026.2409-.0325.2539-.0195h.0782c.026.013.0781.0195.1562.0195.0781-.013.1237-.0195.1367-.0195h.2539c.1172 0 .2279-.0065.3321-.0196.0911-.013.1497-.013.1757 0 .0261.0131.0521.0196.0782.0196h.2539c.1432-.013.2213-.013.2344 0h.0585l.2149-.0196c.0911 0 .1497.0066.1758.0196.039.013.0716.0195.0976.0195.0912-.013.1433-.013.1563 0 .026.013.0521.0195.0781.0195.2734 0 .4622.0261.5664.0782.2083.0651.3386.1041.3906.1171.1042.0782.1563.1172.1563.1172.013-.013.026-.013.039 0 .0782.0782.1368.1237.1758.1368.0391 0 .0716.013.0977.039.0781.0781.1367.1367.1758.1758.1172.0911.1888.1432.2148.1562.0912.1042.1628.1823.2149.2344.0651.0521.1106.0912.1367.1172.026.013.0521.0326.0781.0586.1302.0781.2018.1367.2148.1758.0131.039.0456.0651.0977.0781.0391.1042.0586.1758.0586.2149.013.039.0456.0651.0976.0781.0131.039.0261.0781.0391.1172.013.039.0326.0846.0586.1367.0391.0651.0521.1172.0391.1562 0 .0261.0065.0521.0195.0782.013.0651.026.1172.0391.1562.026.0261.0455.0521.0586.0781.052.1953.0911.3321.1171.4102.0261.0651.0521.1302.0782.1953.026.0521.039.1042.039.1563.013.039.0326.0911.0586.1562.0781.2083.1302.3711.1563.4883.039.1042.0716.2213.0976.3516.0261.0781.0456.1627.0586.2539.0261.0911.0456.1692.0586.2343.013.1433.0326.2539.0586.3321l.0586.3515c.026.1042.0456.2018.0586.293.026.0911.0391.1888.0391.293.052.1823.0976.306.1371.3711.013.1171.026.1888.039.2148.026.0651.039.1172.039.1563 0 .026.006.052.019.0781.052.1692.072.2734.059.3125 0 .039.006.0781.019.1172.026.0911.033.1497.02.1757v.0391c.013.0521.026.0977.039.1367.026.0261.039.0651.039.1172-.013.0912-.013.1563 0 .1953.026.0391.046.0782.059.1172 0 .0781.006.1302.019.1563.013.013.026.039.039.0781l.02.332c.026.0651.039.1432.039.2344 0 .0781.006.1562.019.2344.026.1432.046.2604.059.3515.013.0912.032.1758.059.2539.013.0521.019.0977.019.1368 0 .026.013.052.039.0781.052.1172.078.1953.078.2344v.0976c0 .0781-.006.1563-.019.2344s-.033.1497-.059.2148c-.039.1433-.058.2344-.058.2735-.118.0911-.183.1432-.196.1562-.013 0-.045.0065-.097.0196-.053.013-.144.0325-.274.0585-.1692.0261-.2668.0456-.2929.0586-.026 0-.052.0065-.0781.0196-.1302 0-.1953 0-.1953 0 0-.0131-.0065-.0196-.0195-.0196-.1042.0131-.1628.0196-.1758.0196-.013-.0131-.0326-.0196-.0586-.0196-.1823 0-.293.0065-.332.0196-.0912 0-.1693.0065-.2344.0195-.0651 0-.1302 0-.1953 0-.1302.013-.2214.0326-.2735.0586-.1302.026-.2083.0391-.2343.0391-.1563.026-.2735.0325-.3516.0195-.0781 0-.1628.0065-.2539.0195-.1432.013-.2214.0195-.2344.0195-.0651.0131-.1432.0066-.2344-.0195-.0781-.026-.1562-.0521-.2343-.0781zm-.3321-2.7734c-.013-.1823-.026-.3125-.039-.3907-.013-.0911-.0261-.1562-.0391-.1953-.026-.1172-.039-.1953-.039-.2344.013-.039.013-.0716 0-.0976-.0391-.2214-.0586-.3711-.0586-.4492 0-.0782-.0131-.1563-.0391-.2344-.026-.1042-.0456-.1693-.0586-.1953-.013-.0391-.026-.0716-.0391-.0977-.0911-.0781-.1497-.1107-.1757-.0976-.0261.013-.0456.0325-.0586.0586-.1172.0781-.1823.1237-.1953.1367-.1172.0651-.1888.1107-.2149.1367-.0651.0521-.1042.0846-.1172.0977-.013.013-.0325.0325-.0586.0585-.1302.1042-.1953.1563-.1953.1563 0-.013-.0065-.013-.0195 0-.1302.0911-.2083.1563-.2344.1953-.026.0261-.0586.0521-.0976.0781-.0261.0651-.0586.1172-.0977.1563-.026.039-.0521.0781-.0781.1172.026.0521.039.0976.039.1367 0 .026-.013.0716-.039.1367.0911.1042.1562.1563.1953.1563.0651.039.1107.0586.1367.0586s.0521.0065.0781.0195c.0782.0521.1237.0911.1367.1172.0131.013.0261.0195.0391.0195.1172.0521.1888.0781.2149.0781.039 0 .0846.0065.1367.0196.0911.026.1562.0455.1953.0586.0521 0 .0911.0065.1172.0195.1432.0781.2604.1302.3515.1562.1042.0131.1888.0065.2539-.0195zm9.3754-12.3047c-.026.0521-.039.1172-.039.1953s.006.1497.019.2148c-.013.1823-.019.3255-.019.4297.013.0912.019.1888.019.293v.5664c-.013.1562-.026.2539-.039.293-.013.026-.019.052-.019.0781-.027.1693-.04.2669-.04.293.013.1432.013.2278 0 .2539v.0585c-.013.1303-.026.1954-.039.1954v.039.1563c.013.013.02.0325.02.0586-.013.1041-.026.2083-.039.3125 0 .0911-.007.1888-.02.2929.013.0912.013.1628 0 .2149s-.019.1107-.019.1758c.026.0911.032.1757.019.2539v.2539.2344c0 .1171-.006.2343-.019.3515-.013.1042-.013.2344 0 .3906.117-.1041.182-.1627.195-.1757.026-.0131.052-.0326.078-.0586.091-.0782.163-.1302.215-.1563.039-.0781.078-.1172.117-.1172.039-.013.059-.0521.059-.1172l.254-.1171c.052-.0261.091-.0586.117-.0977.039-.0521.085-.0977.137-.1367.13-.0912.201-.1433.215-.1563.052-.0521.097-.0846.136-.0976.039-.0131.072-.0326.098-.0586.13-.1042.221-.1693.273-.1953.052-.0261.098-.0521.137-.0782.052-.0651.111-.1106.176-.1367.065-.039.124-.0911.176-.1562.078-.0131.143-.0456.195-.0977.143-.1042.306-.1562.488-.1562.078-.0131.15-.0131.215 0l.234.1367c.118.0911.189.1497.215.1758.117.0781.228.1432.332.1953.104.1041.176.1692.215.1953.039.026.065.0586.078.0976.117.0521.196.0977.235.1368.026.026.052.0586.078.0976.039.0391.071.0716.097.0977.118.0781.183.1172.196.1172.091.052.149.0976.176.1367.117.039.201.1041.253.1953.053.0911.131.1628.235.2148.091.1172.137.1758.137.1758 0-.013.006-.013.019 0 .026.0261.052.0651.078.1172s.052.0977.078.1367c.065.0651.111.1172.137.1563.026.026.052.0586.078.0976.156.1953.261.3646.313.5078.052.1433.117.28.195.4102-.013.0391-.02.0781-.02.1172.013.026.026.0651.039.1172l.02.2734c.013.1432.033.2539.059.332.013.0391.013.0782 0 .1172-.013.0391-.026.0912-.039.1563.013.1432.013.2409 0 .2929v.1172.0977c.013.0391.013.0846 0 .1367-.026.1693-.046.2865-.059.3516 0 .0521.006.1237.019.2148 0 .1432-.006.2474-.019.3125-.013.0521-.02.1107-.02.1758-.013.026-.019.0586-.019.0977.013.039.019.0846.019.1367.026.1692.026.3711 0 .6054.013.1303.013.1954 0 .1954v.0195c.013.1042.013.1627 0 .1758v.039.1172c.013.0391.02.0781.02.1172v.1758c.013.013.019.026.019.039-.039.1172-.058.1823-.058.1954.013.013.019.0325.019.0586v.1562c.013.0391.02.0846.02.1367 0 .1172-.007.2344-.02.3516-.013.1042-.006.2018.02.293.026.1171.039.2408.039.3711 0 .1302.007.2669.02.4101 0 .1432.006.2279.019.2539.013.0261.02.0521.02.0781v.4297c0 .1302.006.2604.019.3906v.1368c.013.039.013.0716 0 .0976-.13.1302-.208.2149-.234.2539-.104.0391-.196.0716-.274.0977-.117.026-.195.039-.234.039-.026 0-.052-.0065-.078-.0195-.065 0-.143-.0065-.235-.0195-.091 0-.175.0065-.253.0195-.157-.013-.261-.013-.313 0s-.117.013-.195 0h-.313c-.052 0-.104 0-.156 0-.039.013-.085.013-.137 0-.143-.026-.215-.0456-.215-.0586-.013-.026-.052-.0325-.117-.0195-.052.026-.091.0391-.117.0391-.039 0-.078-.0066-.117-.0196-.039 0-.072 0-.098 0-.117.0391-.202.0586-.254.0586-.039 0-.091 0-.156 0-.13.0261-.228.0195-.293-.0195-.091-.0912-.176-.1628-.254-.2149 0-.0651-.006-.1237-.019-.1757-.013-.0651-.013-.1368 0-.2149l.019-.2734c.026-.1432.039-.2149.039-.2149.013-.026.033-.1041.059-.2343.013-.0521.019-.0912.019-.1172.013-.0391.026-.0912.039-.1563 0-.1562.007-.2669.02-.332.013-.0781.019-.1432.019-.1953 0-.0261-.006-.0586-.019-.0977 0-.0521.006-.0911.019-.1172.014-.1172.014-.1757 0-.1757 0-.0131 0-.0261 0-.0391.014-.1302.02-.2018.02-.2148.013-.0131.02-.0261.02-.0391.013-.1172.013-.1758 0-.1758 0-.013.006-.0325.019-.0586 0-.1432 0-.2213 0-.2344.013-.013.02-.026.02-.039l-.02-.2735c0-.052-.006-.1041-.019-.1562 0-.0521 0-.1107 0-.1758 0-.026 0-.0521 0-.0781.013-.0391.019-.0847.019-.1367-.026-.1563-.039-.2605-.039-.3125.013-.0651.013-.1107 0-.1368-.026-.052-.033-.1367-.02-.2539.014-.1172.007-.2083-.019-.2734.026-.0521.039-.1237.039-.2148 0-.1042-.013-.1888-.039-.254.026-.026.033-.0651.019-.1171-.013-.0521-.013-.0977 0-.1368 0-.1302-.006-.2278-.019-.2929-.013-.0782-.007-.1367.019-.1758-.026-.1302-.045-.2214-.058-.2734 0-.0521-.026-.0912-.078-.1172-.117-.1042-.176-.1693-.176-.1953-.195-.0131-.332.013-.41.0781-.091.1041-.143.1627-.156.1758 0 0-.007 0-.02 0-.091.1302-.163.2213-.215.2734-.039.0391-.078.0781-.117.1172-.078.1042-.143.1823-.195.2344-.144.0781-.248.1432-.313.1953-.052.0521-.117.0716-.195.0586-.065 0-.117-.0196-.156-.0586-.039-.0521-.098-.0912-.176-.1172-.026-.0651-.059-.1172-.098-.1563-.039-.039-.065-.0911-.078-.1562-.026-.0261-.052-.0521-.078-.0781-.013-.0391-.033-.0717-.059-.0977-.078-.1302-.13-.2148-.156-.2539-.013-.0391-.032-.0781-.058-.1172-.04.0261-.059.0586-.059.0977v.1172.2539.4101c0 .0651-.007.1367-.02.2149 0 .0781.007.1627.02.2539v.4687c.013.1563.013.319 0 .4883.039.0651.052.1367.039.2148 0 .0651.006.1368.02.2149v.2344c.013.1562.019.2539.019.2929.013.0261.02.0521.02.0782-.026.1562-.033.2604-.02.3125.013.052.02.1106.02.1757-.013.0391-.013.0912 0 .1563s.019.1237.019.1758c0 .039-.006.0781-.019.1172 0 .039.006.0781.019.1171.013.1433.026.2344.039.2735.013.039.02.0716.02.0976v.3125c.013.0391.019.0847.019.1368.013.052.02.1432.02.2734.026.1172.032.1823.019.1953v.0586c.013.0781.026.1367.039.1758.013.039.02.0781.02.1172-.013.1302-.02.2083-.02.2343.013.0131.02.0326.02.0586-.039.1302-.059.2279-.059.293s-.013.1107-.039.1367c-.143.013-.247.0196-.312.0196-.052.013-.111.0325-.176.0585-.221.0261-.397.0196-.527-.0195-.131-.026-.209-.039-.235-.039-.026.013-.052.0195-.078.0195-.117-.013-.202-.0195-.254-.0195s-.11-.0066-.176-.0196c-.156.013-.24.0065-.253-.0195-.079 0-.157-.0065-.235-.0195-.065-.0131-.13-.0261-.195-.0391h-.215c-.13.026-.215.0391-.254.0391-.026 0-.059.0065-.098.0195-.104 0-.169-.0065-.195-.0195-.013 0-.032.0065-.058.0195-.053 0-.105.0065-.157.0195s-.11.0065-.176-.0195c-.143 0-.26 0-.351 0-.039-.0912-.072-.1367-.098-.1367-.013-.013-.026-.0261-.039-.0391-.026-.1172-.039-.1888-.039-.2148.013-.0391.02-.0782.02-.1172 0-.0781-.007-.1563-.02-.2344 0-.0781 0-.1497 0-.2148l.02-.2344c.013-.0521.019-.1042.019-.1563 0-.052.013-.0976.039-.1367.026-.1562.033-.2539.02-.293 0-.052.013-.1041.039-.1562.013-.1562.013-.2604 0-.3125-.013-.0651-.013-.1237 0-.1758.026-.1693.039-.2734.039-.3125l-.02-.2539c0-.0781 0-.1497 0-.2148s-.013-.1237-.039-.1758c.026-.1563.026-.2539 0-.293-.013-.0521-.006-.0846.02-.0976 0-.1302 0-.2279 0-.293 0-.1693-.007-.2734-.02-.3125s-.006-.0781.02-.1172v-.5078c0-.0521-.007-.1042-.02-.1563-.013-.052-.019-.0976-.019-.1367 0-.0651.006-.1237.019-.1758.013-.0651 0-.1237-.039-.1757.026-.2214.039-.4493.039-.6836.013-.2474.007-.4753-.019-.6836 0-.0391-.007-.0781-.02-.1172-.013-.0521-.013-.0912 0-.1172 0-.0391.007-.0716.02-.0977.013-.039.019-.0781.019-.1171 0-.1433-.006-.2279-.019-.2539 0-.0391 0-.0717 0-.0977v-.3711-.6641c0-.052 0-.0976 0-.1367.013-.039.019-.0781.019-.1172 0-.1172 0-.1823 0-.1953.013-.013.02-.026.02-.039-.026-.1303-.033-.2344-.02-.3125.013-.0912.02-.1563.02-.1954.013-.0651.013-.1367 0-.2148 0-.0781.006-.1497.019-.2148.013-.0131.02-.0456.02-.0977s0-.1042 0-.1563c0-.1041-.007-.2148-.02-.332 0-.1172.007-.2344.02-.3515.013-.1303.013-.2084 0-.2344-.013-.0391-.02-.0716-.02-.0977.026-.1432.033-.2344.02-.2734-.013-.0391-.02-.0846-.02-.1367.013-.1172.013-.1888 0-.2149 0-.026.013-.0455.039-.0586-.026-.1172-.045-.1758-.058-.1758 0-.013 0-.0325 0-.0585-.013-.1433-.02-.2474-.02-.3125l-.019-.2149c-.026-.1042-.033-.1627-.02-.1758.013-.026.007-.0455-.019-.0586.013-.0651.006-.1302-.02-.1953-.013-.0651-.026-.1302-.039-.1953 0-.1432-.006-.2213-.019-.2344 0-.026 0-.052 0-.0781-.026-.0781-.046-.1562-.059-.2344-.013-.0781-.006-.1627.02-.2539.013-.0651.013-.1172 0-.1562 0-.0521 0-.0912 0-.1172 0-.0781-.007-.1497-.02-.2149 0-.0651.02-.1302.059-.1953.039-.0911.078-.1367.117-.1367s.078-.0065.117-.0195c.169-.0521.267-.0846.293-.0977.091-.013.143-.013.156 0h.078c.104-.013.163-.0195.176-.0195.026 0 .052-.013.078-.0391.052.0261.098.0326.137.0196.039-.0261.085-.0391.137-.0391.039 0 .078.0065.117.0195h.098.097c.052-.013.098-.0195.137-.0195.039-.013.072-.0195.098-.0195.039 0 .078-.013.117-.0391.026-.013.065-.0065.117.0195.065.0131.124.0261.176.0391.156 0 .241.0065.254.0195h.058.254.215.312c.066.0131.111.0196.137.0196.026-.0131.059-.0131.098 0 .117.026.189.0586.215.0976.039.0261.078.0521.117.0782.078.039.111.0781.098.1171 0 .0391.026.0456.078.0196zm15.703 13.6718c-.104.0391-.176.1172-.215.2344-.065.0261-.117.0716-.156.1367-.026.0521-.072.0912-.137.1172-.117.1302-.195.2018-.234.2149-.026 0-.039.0195-.039.0586-.105.0911-.163.1367-.176.1367-.091.0651-.143.1107-.157.1367-.013.013-.032.026-.058.0391-.052.039-.104.0651-.156.0781-.039.013-.085.0325-.137.0586-.13.0651-.195.0976-.195.0976 0-.013-.007-.0195-.02-.0195-.104.0651-.163.0977-.176.0977s-.019.013-.019.039c-.143.0261-.222.0456-.235.0586 0 .013-.013.0261-.039.0391-.13.026-.254.0456-.371.0586-.104.013-.215.0195-.332.0195-.182-.0391-.306-.0586-.371-.0586-.13 0-.195-.0065-.195-.0195 0 0-.007 0-.02 0-.065.013-.117.013-.156 0-.039 0-.078 0-.117 0l-.215-.0586c-.143-.0261-.241-.0391-.293-.0391-.039 0-.078-.0065-.117-.0195-.026-.013-.059-.026-.098-.0391-.039-.013-.078-.026-.117-.039l-.254-.0391c-.13-.0651-.202-.0976-.215-.0976-.143-.0652-.228-.1042-.254-.1172-.013-.0131-.032-.0261-.058-.0391-.104-.0781-.17-.1237-.196-.1367-.026-.0261-.052-.0521-.078-.0781-.117-.0912-.182-.1368-.195-.1368l-.176-.1757c-.117-.1042-.176-.1563-.176-.1563-.091-.0651-.149-.1042-.175-.1172s-.052-.0325-.078-.0586c-.092-.0911-.15-.1562-.176-.1953-.013-.0521-.033-.0976-.059-.1367-.065-.0651-.111-.1172-.137-.1563-.026-.052-.052-.0976-.078-.1367-.091-.1432-.162-.2343-.215-.2734-.052-.1172-.11-.2279-.175-.332-.052-.1042-.111-.2149-.176-.3321-.065-.1302-.098-.2083-.098-.2344-.026-.1432-.045-.2278-.058-.2539-.013-.026-.026-.0585-.039-.0976-.039-.1432-.059-.2214-.059-.2344.013-.026.006-.0391-.02-.0391-.013-.1432-.026-.2213-.039-.2343-.013-.0261-.019-.0521-.019-.0781-.013-.1433-.033-.2344-.059-.2735-.013-.0391-.019-.0781-.019-.1172 0-.1041-.007-.1627-.02-.1758 0-.013 0-.0325 0-.0585.013-.1433.013-.2149 0-.2149 0 0 0-.0065 0-.0195 0-.0521-.006-.1172-.019-.1953-.013-.0782-.02-.1498-.02-.2149 0-.1823-.006-.293-.019-.332-.013-.0391-.02-.0781-.02-.1172 0-.0651.013-.1302.039-.1953.026-.0781.026-.1498 0-.2149.039-.1692.059-.345.059-.5273.026-.1432.052-.2539.078-.332 0-.0912.006-.1628.019-.2149.026-.0521.039-.1041.039-.1562.013-.1172.026-.1953.04-.2344.026-.0391.052-.0781.078-.1172.026-.0651.045-.1302.058-.1953s.033-.1367.059-.2148c.065-.1303.104-.1954.117-.1954.052-.1562.078-.2408.078-.2539.013-.013.026-.0325.039-.0586.065-.1041.104-.1692.117-.1953.013-.026.033-.0455.059-.0586 0-.0781.02-.1562.059-.2343.078-.1172.123-.1758.136-.1758.065-.1432.111-.2344.137-.2735.026-.026.046-.0585.059-.0976s.032-.0716.058-.0977c.039-.0651.059-.1041.059-.1172.013-.026.026-.052.039-.0781.091-.0911.156-.1562.195-.1953.078-.1562.137-.2474.176-.2734.052-.0261.091-.0651.117-.1172.091-.1432.143-.2149.156-.2149.026 0 .052-.0065.079-.0195.078-.0911.117-.1302.117-.1172.013 0 .032-.013.058-.039.117-.0782.189-.1303.215-.1563.078-.0781.13-.1302.156-.1562.039-.0261.072-.0521.098-.0782.117-.0781.182-.1237.195-.1367.026-.026.052-.0456.078-.0586.144-.0651.222-.0911.235-.0781.026 0 .052-.0065.078-.0195.117-.0782.195-.1172.234-.1172.052 0 .092-.0065.118-.0196.13-.052.221-.0781.273-.0781.052-.026.098-.0456.137-.0586.039-.026.084-.026.136 0 .092-.0521.209-.0781.352-.0781.117-.026.254-.0326.41-.0195.156 0 .306.0065.449.0195.105-.013.163-.013.176 0h.098c.104.026.195.0521.273.0781.104.0391.202.0586.293.0586.143 0 .215.0065.215.0195h.059c.091.0261.149.0456.175.0586.026 0 .053.0066.079.0196.143.0521.227.0911.253.1172.079.039.131.0716.157.0976.039.013.078.0326.117.0586.13.1042.228.1628.293.1758.13.0911.202.1562.215.1953.026.0391.065.0716.117.0977.026-.0521.032-.1042.019-.1563s-.019-.1107-.019-.1758c0-.0521.006-.1041.019-.1562s.02-.1042.02-.1563c-.013-.1562-.02-.2539-.02-.2929 0-.0391.013-.0717.039-.0977-.013-.0391-.019-.1237-.019-.2539-.013-.1172-.02-.2083-.02-.2734.013-.0782 0-.1498-.039-.2149.013-.039.013-.0781 0-.1172-.013-.0521-.019-.1041-.019-.1562-.013-.0521-.026-.0977-.039-.1367-.013-.0521-.02-.1042-.02-.1563-.013-.0521-.019-.1042-.019-.1562 0-.0521 0-.1107 0-.1758l-.039-.4102c-.026-.1432-.039-.2148-.039-.2148.013-.013.019-.0261.019-.0391-.052-.1302-.085-.2148-.098-.2539 0-.039-.006-.0911-.019-.1562 0-.1172 0-.1888 0-.2149.013-.026.019-.0521.019-.0781.013-.1432.026-.2344.04-.2734.013-.0391.019-.0912.019-.1563.117-.1172.195-.1758.234-.1758.053-.013.092-.026.118-.039h.214c.013-.0131.033-.0131.059 0l.43.0781h.117c.039-.013.085-.013.137 0s.097.0195.136.0195c.039-.013.072-.0195.098-.0195.039.013.078.026.117.039.052.0131.098.0066.137-.0195.026-.013.059-.0195.098-.0195h.156c.091.039.156.0586.195.0586h.098.156c.039-.013.085-.0196.137-.0196.13 0 .202.0066.215.0196h.058c.065 0 .124.0065.176.0195.052 0 .104.013.156.0391.039 0 .078-.0065.117-.0196.039-.026.079-.0325.118-.0195.104.0261.162.0326.175.0195.013-.013.033-.0195.059-.0195.078 0 .156.0065.234.0195.078.0131.157.0066.235-.0195.052.0781.136.1172.254.1172.078.1172.11.1888.097.2148 0 .0261.007.0521.02.0782.052.1041.071.1692.058.1953-.013.013-.019.0325-.019.0586.026.1172.026.1953 0 .2344-.026.026-.039.052-.039.0781v.1172c.013.026.019.0586.019.0976-.013.1563-.026.2539-.039.293s-.019.0781-.019.1172c-.013.1432-.02.2213-.02.2343 0 0-.006.0131-.019.0391-.013.1042-.026.1758-.039.2149-.013.026-.02.052-.02.0781.013.1302.007.2604-.019.3906s-.007.2279.058.293c-.026.0781-.039.1562-.039.2343 0 .0652-.013.1368-.039.2149 0 .0521-.006.1042-.019.1562-.014.0391-.027.0782-.04.1172 0 .1172-.006.1823-.019.1953v.0586c-.013.0912-.02.1888-.02.293.013.0912.007.1823-.019.2734-.039.1693-.059.293-.059.3711.013.0782.013.1498 0 .2149-.026.1562-.039.2539-.039.293.013.026.02.0585.02.0976-.013.1302-.02.2018-.02.2148.013.0131.02.0261.02.0391-.013.1432-.02.2214-.02.2344-.026.1042-.026.2213 0 .3515v.2735c.013.0781.007.1627-.019.2539.013.1042.032.1953.058.2734.026.1172.033.1823.02.1953v.0391c.013.0912.013.1563 0 .1953-.013.0391-.013.0847 0 .1367.026.2084.026.3581 0 .4493-.013.0781-.02.1627-.02.2539 0 .0651.007.1237.02.1757.013.0391.019.0847.019.1368.013.052.02.1041.02.1562v.1172c.026.1302.032.2018.019.2148v.0391.2344c.013.039.026.0911.039.1562v.3711c.013.0651.013.1367 0 .2149v.1758c0 .1692-.006.2799-.019.332 0 .039.006.0846.019.1367.013.0781.02.1497.02.2148s-.007.1172-.02.1563c-.013.026-.019.0716-.019.1367.013.0521.019.1107.019.1758.013.1302.013.2018 0 .2148v.0196c.013.1041.013.1953 0 .2734v.2344c.013.1693.02.2799.02.332s-.007.0977-.02.1367v.2344c0 .0521-.006.1237-.019.2148v.2735.2734c0 .0391.006.0912.019.1563s.02.1302.02.1953c.013.0651.026.1432.039.2344.013.0651.02.1302.02.1953.013.0651.026.1367.039.2148.026.1823.039.28.039.293.013.1172.026.1953.039.2344.013.026.013.052 0 .0781-.039.1562-.065.2409-.078.2539-.105.0651-.183.1107-.235.1367-.065-.026-.13-.0391-.195-.0391-.065.0131-.15.0196-.254.0196-.13.013-.234.0195-.312.0195-.066.013-.144.0065-.235-.0195-.156.0521-.312.0586-.469.0195-.156-.026-.286-.0325-.39-.0195-.065-.0261-.117-.0456-.156-.0586-.04 0-.105 0-.196 0l-.234.0195c-.065 0-.124 0-.176 0-.039.013-.085.0065-.137-.0195-.13.013-.208.026-.234.039-.013.0131-.033.0196-.059.0196-.091-.013-.149-.0196-.175-.0196-.026.0131-.065.0196-.118.0196-.078-.0261-.175-.0391-.293-.0391-.117 0-.201-.0065-.253-.0195-.066 0-.131-.0326-.196-.0977-.104-.0521-.163-.1041-.176-.1562.013-.1042.013-.1888 0-.2539 0-.0651.013-.1302.04-.1953.026-.0912.039-.1628.039-.2149 0-.0651.013-.1107.039-.1367.052-.1563.071-.2539.058-.293 0-.0521.007-.0911.02-.1172zm.195-5.039c-.117-.1432-.195-.2409-.234-.293-.026-.0651-.078-.1107-.157-.1367-.117-.1302-.182-.1953-.195-.1953-.052-.1042-.091-.1563-.117-.1563-.026-.013-.026-.0325 0-.0586-.117-.039-.189-.0846-.215-.1367-.091-.0781-.15-.1302-.176-.1562-.026-.0391-.052-.0716-.078-.0977-.117-.0521-.176-.0781-.176-.0781 0-.013-.006-.0195-.019-.0195-.065-.0391-.124-.0651-.176-.0782-.039-.013-.072-.0325-.098-.0586-.143-.0911-.214-.1367-.214-.1367-.157-.039-.248-.0651-.274-.0781-.026-.026-.052-.0391-.078-.0391-.156-.013-.254-.013-.293 0-.039-.013-.078-.0065-.117.0196-.026.026-.065.0325-.117.0195-.131.0911-.202.1432-.215.1562 0 .0131-.013.0326-.039.0586-.091.0521-.163.0912-.215.1172-.026.0391-.052.0716-.078.0977-.026.013-.046.039-.059.0781-.091.1042-.15.1628-.176.1758-.013 0-.026.013-.039.039-.078.1303-.13.2214-.156.2735 0 .0651-.019.1237-.058.1758-.026.0521-.046.1106-.059.1757.013.0782.013.1368 0 .1758v.1172.0977c.013.039.013.0846 0 .1367-.026.1172-.033.2018-.02.2539s.02.1042.02.1563c-.013.0911-.013.1562 0 .1953.013.026.019.0586.019.0976.014.0651.02.1628.02.293 0 .0521-.006.1042-.02.1562-.013.0391-.013.0782 0 .1172.053.1563.079.2409.079.2539.013.0131.026.0326.039.0586.026.0521.045.0977.058.1367.013.0391.033.0782.059.1172.065.0261.117.0716.156.1367.052.0521.124.0977.215.1368.013.0521.085.0911.215.1172.169.039.306.0455.41.0195.104-.0391.202-.0586.293-.0586.13-.0521.202-.0781.215-.0781.156-.0912.247-.1433.273-.1563.039-.013.072-.026.098-.039.091-.0261.156-.0586.195-.0977.117-.0781.189-.1302.215-.1562l.215-.1954c.091-.0911.143-.1367.156-.1367.026-.013.052-.0325.078-.0586.026-.026.046-.0521.059-.0781.013-.0391.039-.0716.078-.0977.065-.0651.111-.1041.137-.1171.026-.0131.039-.0326.039-.0586.091-.1042.156-.1693.195-.1954.039-.039.078-.0716.117-.0976.026-.026.039-.0521.039-.0781.013-.0261.033-.0651.059-.1172.104-.1953.143-.319.117-.3711-.013-.0521-.013-.1367 0-.2539zm6.133-6.7578c-.013-.0261-.033-.0716-.059-.1367-.026-.0652-.039-.1303-.039-.1954-.013-.0651-.019-.1237-.019-.1757.013-.0651.019-.1303.019-.1954 0-.0911 0-.1497 0-.1757.013-.0261.02-.0521.02-.0782v-.332c.013-.0651.019-.1237.019-.1758s0-.1041 0-.1562c.039-.0912.052-.1498.039-.1758 0-.026.013-.0521.039-.0781.105-.1172.163-.1758.176-.1758.013-.013.026-.0261.039-.0391.065-.0651.117-.0976.157-.0976.039-.0131.071-.0261.097-.0391.104-.0521.176-.0781.215-.0781.078.013.143.013.195 0s.098-.0196.137-.0196c.182-.026.28-.039.293-.039.091 0 .169.0065.234.0195.079.013.163.0261.254.0391.026.013.059.0195.098.0195.052 0 .098.013.137.0391.039 0 .071.0065.097.0195.039.013.078.0195.118.0195.169 0 .299-.0065.39-.0195.091-.026.169-.026.235 0 .156.026.286.0521.39.0781.065.0261.124.0456.176.0586.065.013.124.0456.176.0977.091.1302.149.2409.175.332.04.1693.059.306.059.4102v.2148.2735c.013.0781.007.1562-.019.2343v.2149c.013.013.019.013.019 0-.026.0651-.039.1237-.039.1758v.0976.1367c0 .0391-.006.0716-.02.0977-.065.1041-.097.1823-.097.2344-.065.052-.124.1041-.176.1562-.169.0651-.286.1107-.352.1367-.052.013-.13.0196-.234.0196-.169-.0261-.26-.0456-.273-.0586-.131-.0261-.274-.0456-.43-.0586-.052-.0131-.104-.0196-.156-.0196-.039 0-.085-.0065-.137-.0195-.052.013-.111.0195-.176.0195-.052 0-.091-.0065-.117-.0195-.078 0-.137.0065-.176.0195-.026.0131-.052.0196-.078.0196-.169-.0131-.28-.0131-.332 0-.052.013-.104.0195-.156.0195-.039-.013-.078-.0195-.117-.0195-.026 0-.059-.0131-.098-.0391-.169-.013-.28-.0325-.332-.0586-.052-.039-.111-.0716-.176-.0976-.065-.1042-.11-.1693-.137-.1954-.013-.026-.026-.052-.039-.0781zm4.062 2.9492c.013.1172.013.1823 0 .1953v.0586c.013.0911.007.1758-.019.2539v.293c-.013.0911-.026.1823-.039.2734 0 .0781-.007.1693-.02.2734v.2344c-.013.0651-.019.1498-.019.2539-.026.1042-.039.1758-.039.2149 0 .1041.006.2018.019.2929.026.0782.033.1628.02.2539v.1758c.013.0261.019.0521.019.0781.013.1042.013.2279 0 .3711-.013.1433-.019.2605-.019.3516-.026.1563-.039.2474-.039.2734.013.0261.013.0717 0 .1368-.013.1432-.02.2474-.02.3125.013.052.013.0846 0 .0976-.013.0261-.019.0651-.019.1172v.1172c.013.1432.013.2213 0 .2344-.013.013-.02.0325-.02.0586 0 .039-.006.0911-.019.1562v.1953.1563c.013.039.019.0911.019.1562 0 .0782-.006.1563-.019.2344v.2148.4297.1758c.013.0261.013.0521 0 .0781 0 .0651-.007.1302-.02.1954-.013.0651-.013.1432 0 .2343.026.1823.033.306.02.3711v.1758c.013.1562.013.2539 0 .293v.0976l.019.2539c.013.0391.013.0912 0 .1563 0 .0651-.006.1237-.019.1758.026.0651.032.1302.019.1953 0 .0521-.013.1172-.039.1953.013.1302.013.1953 0 .1953v.0391c.013.1172.013.1888 0 .2148-.013.013-.02.0326-.02.0586l.02.4102c.013.1171.013.1953 0 .2343v.0977c.013.039.013.0716 0 .0976 0 .0391.007.0782.02.1172v.4492c-.066.0912-.085.2214-.059.3907.026.1692-.007.306-.098.4101 0 .1302-.045.2735-.136.4297.026.0651.006.1172-.059.1563-.052.0521-.085.1237-.098.2148-.078.1563-.13.293-.156.4102-.052.1562-.085.2474-.098.2734s-.032.0521-.058.0781c-.065.1433-.104.2149-.117.2149s-.026.0065-.039.0195c-.053.0781-.085.1302-.098.1563-.013.026-.02.0586-.02.0976-.052.013-.091.0391-.117.0781-.026.0391-.065.0651-.117.0782-.026.039-.059.0781-.098.1171-.026.0521-.058.0977-.097.1368-.078.0911-.124.1562-.137.1953-.013.0521-.033.0976-.059.1367-.117.1302-.195.2018-.234.2148-.026.0261-.046.0717-.059.1368-.039 0-.071.013-.097.039-.026.0261-.059.0521-.098.0782-.065.052-.111.1041-.137.1562s-.058.0911-.097.1172c-.13.0911-.202.1627-.215.2148 0 .0521-.02.0912-.059.1172-.13.0521-.195.0847-.195.0977s-.013.026-.039.039c-.065.0391-.124.0717-.176.0977-.039.026-.071.0651-.098.1172-.078 0-.13.0521-.156.1562-.143.0651-.215.0912-.215.0782 0 0-.006.0065-.019.0195-.182.0651-.3.1237-.352.1758s-.11.0976-.175.1367c-.027.013-.066.0195-.118.0195-.039.013-.071.0326-.097.0586-.104.0521-.176.0846-.215.0977-.039.026-.091.0455-.156.0586-.026.026-.066.039-.118.039-.039 0-.071.0326-.097.0977-.157.039-.235.0586-.235.0586-.143.0911-.234.1302-.273.1172-.052 0-.085.0195-.098.0586-.234.013-.403-.0456-.508-.1758-.104-.1172-.24-.2084-.41-.2735-.091-.1172-.136-.1757-.136-.1757-.013 0-.033-.0131-.059-.0391-.052-.1563-.085-.2539-.098-.293-.026-.039-.052-.0846-.078-.1367-.026-.0651-.045-.1237-.058-.1758-.026-.0521-.039-.0976-.039-.1367-.026-.2213-.066-.3516-.118-.3906.026-.0781.026-.1367 0-.1758-.039-.0391-.058-.0846-.058-.1367-.065-.1302-.104-.2214-.117-.2735-.026-.052-.026-.1237 0-.2148-.066-.1172-.098-.1888-.098-.2148 0-.0261-.013-.0456-.039-.0586.039-.0912.045-.1954.019-.3125-.039-.1042-.032-.2019.02-.293.013-.1432.032-.2279.059-.2539.026-.0261.052-.0651.078-.1172.156-.0651.247-.1107.273-.1367.013-.013.033-.0261.059-.0391.13-.039.208-.0586.234-.0586s.052-.0065.078-.0195c.13-.0521.195-.0846.195-.0977-.013-.013-.013-.0195 0-.0195.066-.013.118-.0325.157-.0586.039-.013.071-.0325.097-.0586.079 0 .17-.026.274-.0781.104-.0651.189-.1107.254-.1367.065-.0261.13-.0586.195-.0977.078-.0911.124-.1432.137-.1562.013-.0131.026-.0326.039-.0586.065-.0782.137-.1498.215-.2149.104-.1041.169-.1627.195-.1757.039-.0912.065-.1498.078-.1758.026-.0261.059-.0586.098-.0977.091-.1562.156-.2799.195-.3711.039-.0781.085-.1627.137-.2539.052-.1042.084-.1693.097-.1953.026-.0651.046-.1367.059-.2148.013-.0651.033-.1303.059-.1954.026-.052.039-.0976.039-.1367 0-.039.013-.0911.039-.1562-.013-.1302-.02-.2084-.02-.2344.013-.0391.02-.0781.02-.1172 0-.0521 0-.0976 0-.1367.013-.0521.013-.0977 0-.1367-.026-.2735-.033-.4688-.02-.586.013-.1171.02-.2474.02-.3906 0-.1042 0-.2018 0-.293 0-.1041 0-.2083 0-.3125 0-.052-.007-.0976-.02-.1367-.013-.0521-.019-.1041-.019-.1562.026-.1433.032-.2344.019-.2735 0-.039 0-.0781 0-.1172.013-.1432.013-.2343 0-.2734 0-.0521 0-.1042 0-.1562 0-.0782.007-.1563.02-.2344s.013-.1628 0-.2539c0-.0651 0-.1302 0-.1953s.013-.1302.039-.1953c0-.1042-.007-.1628-.02-.1758 0-.013 0-.0326 0-.0586.026-.1302.039-.2018.039-.2149.026-.1823.033-.2929.02-.332-.013-.0521-.026-.1042-.039-.1562.026-.0521.032-.1107.019-.1758-.013-.0782-.006-.1433.02-.1953-.026-.0391-.039-.0717-.039-.0977.013-.0391.019-.0911.019-.1562-.013-.1042-.026-.1758-.039-.2149 0-.0521-.006-.1042-.019-.1562 0-.0521 0-.0977 0-.1368.013-.039.019-.0781.019-.1171-.013-.1303-.019-.2019-.019-.2149.013-.013.019-.0325.019-.0586 0-.1172 0-.2083 0-.2734s-.006-.1237-.019-.1758c0-.0651 0-.1302 0-.1953-.013-.0781-.02-.1693-.02-.2734 0-.1042 0-.2084 0-.3126 0-.052 0-.0976 0-.1367.013-.0521.02-.1106.02-.1757.013-.1042.019-.1823.019-.2344-.039-.1042-.058-.1953-.058-.2735 0-.039 0-.0781 0-.1171 0-.0521-.007-.0912-.02-.1172-.026-.1433-.039-.2409-.039-.293 0-.0651 0-.1302 0-.1953.013-.1042.013-.1563 0-.1563-.013-.013-.019-.0325-.019-.0586 0-.039 0-.0781 0-.1172 0-.052-.007-.1041-.02-.1562 0-.0521-.006-.0977-.019-.1367 0-.0521 0-.0977 0-.1367 0-.0261.006-.0586.019-.0977.013-.0521.013-.0911 0-.1172v-.2344c0-.1041 0-.1627 0-.1757.013-.0131.02-.0326.02-.0586.065-.1953.097-.2995.097-.3125.013-.0261.039-.0586.078-.0977.131-.0521.202-.0781.215-.0781.026-.013.046-.013.059 0 .169-.0391.273-.0651.312-.0781.131-.0521.215-.0717.254-.0586.052 0 .111-.0065.176-.0196.13-.026.234-.0325.312-.0195.079.013.163.0065.254-.0195.092.039.202.0521.332.039.092-.013.144-.013.157 0h.058c.065 0 .117-.0065.157-.0195.039-.013.091-.0195.156-.0195.091.013.143.026.156.039h.078c.195-.026.313-.0325.352-.0195.052.013.104.0195.156.0195.039.0131.072.0196.098.0196.039-.0131.078-.0196.117-.0196.065.0131.11.0391.137.0782.039.026.091.052.156.0781.026.0651.065.1302.117.1953.065.0651.085.1432.059.2344.026.039.045.0781.058.1172.026.026.052.0586.078.0976.026.0651.039.1302.039.1953s.007.1367.02.2149zm7.774 10.2539c-.065-.1563-.111-.2474-.137-.2734-.013-.0391-.026-.0912-.039-.1563l.02-.2539c0-.0521-.007-.0977-.02-.1367-.013-.0521-.019-.0977-.019-.1367-.027-.1433-.053-.2409-.079-.293.013-.0781.02-.1302.02-.1563 0-.039-.007-.0716-.02-.0976l-.117-.1953c-.104.1302-.15.1953-.137.1953-.104.0651-.162.1107-.175.1367-.078.0781-.124.1172-.137.1172s-.033.013-.059.0391c-.091.1302-.162.2213-.214.2734-.105.1172-.157.1758-.157.1758-.065.0781-.123.1302-.175.1562-.079.0781-.124.1302-.137.1563-.013.013-.039.0325-.078.0586-.091.1041-.163.1692-.215.1953-.117.1302-.189.1953-.215.1953-.026.026-.059.0456-.098.0586-.039.026-.071.0521-.097.0781-.039.013-.111.0195-.215.0195-.13 0-.222 0-.274 0-.156-.052-.247-.0911-.273-.1171-.117-.0261-.195-.0456-.234-.0586-.039-.0131-.079-.0196-.118-.0196-.117-.0911-.175-.1367-.175-.1367-.105-.026-.163-.039-.176-.039-.013-.0131-.026-.0196-.039-.0196-.13-.0521-.215-.0846-.254-.0976-.026-.0261-.072-.0391-.137-.0391-.078-.0521-.124-.0846-.137-.0977 0-.026-.006-.0455-.019-.0586-.078-.052-.143-.0846-.195-.0976-.026-.0651-.066-.1042-.118-.1172-.052-.026-.104-.0586-.156-.0976-.091-.0912-.143-.1368-.156-.1368 0-.013-.013-.0325-.039-.0586l-.176-.1757-.156-.1758c-.104-.1433-.182-.2539-.235-.3321-.13-.1562-.195-.2474-.195-.2734-.169-.1562-.26-.2409-.273-.2539-.065-.0651-.111-.1302-.137-.1953-.065-.0912-.111-.1628-.137-.2149-.052-.039-.084-.0976-.097-.1757 0-.0782 0-.1563 0-.2344-.026-.1042-.059-.2018-.098-.293-.039-.0911-.052-.1562-.039-.1953s.013-.0911 0-.1562c.039-.0651.065-.1237.078-.1758.026-.0521.072-.0912.137-.1172.052-.1302.084-.1953.097-.1953.065-.0912.111-.1563.137-.1953.052-.0912.085-.1433.098-.1563.026-.026.052-.0521.078-.0781.026-.0521.078-.1172.156-.1953.052-.0391.098-.0847.137-.1367.052-.0521.104-.1042.156-.1563.104-.1172.202-.2213.293-.3125.104-.1172.156-.1758.156-.1758.013 0 .026-.0065.039-.0195.131-.1042.202-.1693.215-.1953.026-.0261.052-.0521.078-.0781.118-.0782.183-.1172.196-.1172s.032-.0065.058-.0196c.13-.0781.202-.1237.215-.1367.104-.0651.163-.1107.176-.1367.026-.026.052-.0456.078-.0586.13-.0781.221-.1302.273-.1562.118-.0912.176-.1368.176-.1368.013 0 .026-.0065.039-.0195.143-.0521.228-.1042.254-.1562.13-.0521.235-.0977.313-.1368.078-.052.162-.0911.254-.1171.143-.0652.234-.1172.273-.1563.13-.1042.195-.1693.195-.1953-.052-.0391-.11-.0521-.175-.0391-.053 0-.118 0-.196 0-.117 0-.202 0-.254 0s-.104 0-.156 0c-.039 0-.085.0065-.137.0196-.039 0-.084-.0066-.136-.0196-.17-.026-.28-.0325-.332-.0195-.039 0-.079 0-.118 0l-.332.0195c-.078-.026-.156-.039-.234-.039-.039.013-.085.0195-.137.0195-.052-.013-.097-.0195-.136-.0195-.079 0-.163.013-.254.039-.091.013-.189.0196-.293.0196-.039.013-.085.0195-.137.0195-.039-.013-.085-.0195-.137-.0195-.195 0-.351 0-.468 0-.105-.0131-.209-.0131-.313 0-.156-.0131-.241-.0261-.254-.0391-.013-.026-.032-.0521-.058-.0781-.066-.1433-.098-.2214-.098-.2344.013-.026.019-.0521.019-.0781.026-.1302.039-.2084.039-.2344.013-.026.02-.0521.02-.0781.026-.1302.046-.1953.059-.1953.013-.0131.026-.0326.039-.0586.026-.1563.052-.267.078-.3321.026-.0781.052-.1497.078-.2148.013-.0391.019-.0716.019-.0977 0-.039.013-.0781.039-.1172.053-.1302.079-.2799.079-.4492.026-.1692.058-.2995.097-.3906.039-.1042.065-.1953.078-.2734.039-.1302.059-.2214.059-.2735l.078-.2343c.117-.1303.189-.2279.215-.293.039-.0261.072-.0456.098-.0586.039-.0261.078-.0521.117-.0781.104-.0391.195-.0651.273-.0782.078 0 .124-.0065.137-.0195.026-.013.052-.026.078-.0391.143.0131.234.0131.274 0 .052-.013.11 0 .175.0391.091-.026.15-.0325.176-.0195h.117c.078.013.163.0195.254.0195h.293.215c.156-.026.241-.0325.254-.0195h.078c.026.013.078.0195.156.0195.078-.013.124-.0195.137-.0195h.254c.117 0 .228-.0065.332-.0196.091-.013.15-.013.176 0 .026.0131.052.0196.078.0196h.254c.143-.013.221-.013.234 0h.059l.215-.0196c.091 0 .149.0066.175.0196.039.013.072.0195.098.0195.091-.013.143-.013.156 0 .026.013.052.0195.078.0195.274 0 .463.0261.567.0782.208.0651.338.1041.39.1171.105.0782.157.1172.157.1172.013-.013.026-.013.039 0 .078.0782.136.1237.175.1368.04 0 .072.013.098.039.078.0781.137.1367.176.1758.117.0911.189.1432.215.1562.091.1042.163.1823.215.2344.065.0521.11.0912.136.1172.026.013.052.0326.078.0586.131.0781.202.1367.215.1758.013.039.046.0651.098.0781.039.1042.059.1758.059.2149.013.039.045.0651.097.0781.013.039.026.0781.039.1172.013.039.033.0846.059.1367.039.0651.052.1172.039.1562 0 .0261.006.0521.019.0782.013.0651.026.1172.04.1562.026.0261.045.0521.058.0781.052.1953.091.3321.117.4102.026.0651.052.1302.078.1953.026.0521.039.1042.039.1563.014.039.033.0911.059.1562.078.2083.13.3711.156.4883.039.1042.072.2213.098.3516.026.0781.046.1627.059.2539.026.0911.045.1692.058.2343.013.1433.033.2539.059.3321l.058.3515c.026.1042.046.2018.059.293.026.0911.039.1888.039.293.052.1823.098.306.137.3711.013.1171.026.1888.039.2148.026.0651.039.1172.039.1563 0 .026.006.052.019.0781.052.1692.072.2734.059.3125 0 .039.006.0781.02.1172.026.0911.032.1497.019.1757v.0391c.013.0521.026.0977.039.1367.026.0261.039.0651.039.1172-.013.0912-.013.1563 0 .1953.026.0391.046.0782.059.1172 0 .0781.006.1302.019.1563.013.013.026.039.039.0781l.02.332c.026.0651.039.1432.039.2344 0 .0781.006.1562.019.2344.027.1432.046.2604.059.3515.013.0912.033.1758.059.2539.013.0521.019.0977.019.1368 0 .026.013.052.039.0781.052.1172.078.1953.078.2344v.0976c0 .0781-.006.1563-.019.2344s-.033.1497-.059.2148c-.039.1433-.058.2344-.058.2735-.118.0911-.183.1432-.196.1562-.013 0-.045.0065-.097.0196-.052.013-.144.0325-.274.0585-.169.0261-.267.0456-.293.0586-.026 0-.052.0065-.078.0196-.13 0-.195 0-.195 0 0-.0131-.007-.0196-.02-.0196-.104.0131-.162.0196-.175.0196-.013-.0131-.033-.0196-.059-.0196-.182 0-.293.0065-.332.0196-.091 0-.169.0065-.234.0195-.066 0-.131 0-.196 0-.13.013-.221.0326-.273.0586-.13.026-.209.0391-.235.0391-.156.026-.273.0325-.351.0195-.078 0-.163.0065-.254.0195-.143.013-.221.0195-.234.0195-.066.0131-.144.0066-.235-.0195-.078-.026-.156-.0521-.234-.0781zm-.332-2.7734c-.013-.1823-.026-.3125-.039-.3907-.013-.0911-.026-.1562-.039-.1953-.026-.1172-.039-.1953-.039-.2344.013-.039.013-.0716 0-.0976-.039-.2214-.059-.3711-.059-.4492 0-.0782-.013-.1563-.039-.2344-.026-.1042-.046-.1693-.059-.1953-.013-.0391-.026-.0716-.039-.0977-.091-.0781-.149-.1107-.175-.0976-.027.013-.046.0325-.059.0586-.117.0781-.182.1237-.195.1367-.118.0651-.189.1107-.215.1367-.065.0521-.104.0846-.117.0977-.013.013-.033.0325-.059.0585-.13.1042-.195.1563-.195.1563 0-.013-.007-.013-.02 0-.13.0911-.208.1563-.234.1953-.026.0261-.059.0521-.098.0781-.026.0651-.058.1172-.098.1563-.026.039-.052.0781-.078.1172.026.0521.039.0976.039.1367 0 .026-.013.0716-.039.1367.091.1042.157.1563.196.1563.065.039.11.0586.136.0586s.052.0065.078.0195c.079.0521.124.0911.137.1172.013.013.026.0195.039.0195.117.0521.189.0781.215.0781.039 0 .085.0065.137.0196.091.026.156.0455.195.0586.052 0 .091.0065.117.0195.144.0781.261.1302.352.1562.104.0131.189.0065.254-.0195z" fill="#693821"/></svg>