<svg fill="none" height="70" viewBox="0 0 148 70" width="148" xmlns="http://www.w3.org/2000/svg" xmlns:xlink="http://www.w3.org/1999/xlink"><linearGradient id="a"><stop offset="0" stop-color="#cf5c2b"/><stop offset="1" stop-color="#59173e"/></linearGradient><linearGradient id="b" gradientUnits="userSpaceOnUse" x1="113.483" x2="73.398" xlink:href="#a" y1="-103.532" y2="-20.483"/><linearGradient id="c" gradientUnits="userSpaceOnUse" x1="84.217" x2="45.5446" xlink:href="#a" y1="-30.9254" y2="126.097"/><linearGradient id="d" gradientUnits="userSpaceOnUse" x1="83.8385" x2="34.3225" xlink:href="#a" y1="-25.9304" y2="168.744"/><linearGradient id="e" gradientUnits="userSpaceOnUse" x1="77.8363" x2="74.4761" xlink:href="#a" y1="88.1012" y2="44.2874"/><linearGradient id="f" gradientUnits="userSpaceOnUse" x1="125.358" x2="112.568" xlink:href="#a" y1="16.5635" y2="42.8872"/><linearGradient id="g" gradientUnits="userSpaceOnUse" x1="152.931" x2="44.8767" xlink:href="#a" y1="-64.9342" y2="128.091"/><linearGradient id="h" gradientUnits="userSpaceOnUse" x1="112.406" x2="104.338" xlink:href="#a" y1="14.3183" y2="30.9218"/><linearGradient id="i" gradientUnits="userSpaceOnUse" x1="129.799" x2="61.6441" xlink:href="#a" y1="-37.0857" y2="84.6639"/><linearGradient id="j" gradientUnits="userSpaceOnUse" x1="28.4099" x2="20.3423" xlink:href="#a" y1="28.6854" y2="45.2889"/><linearGradient id="k" gradientUnits="userSpaceOnUse" x1="45.8033" x2="-22.3517" xlink:href="#a" y1="-22.7184" y2="99.0318"/><path d="m147.894 55.7615c-.077-1.446-.153-2.892-.219-4.338-.065-1.5169-.142-3.048-.207-4.5649-.044-1.0349-.109-2.1406-.131-3.218-.022-.8932.262-2.3675-.109-3.1756-.218-.482-.699-.6237-1.124-.723-.557-.1276-1.113-.2551-1.67-.3827.753-.2269 1.484-.5104 2.205-.8648.163-.0851.327-.1701.436-.3402.098-.156.131-.3686.153-.5529.251-1.9847.087-4.0828.087-6.0959-.011-2.0414-.011-4.097-.022-6.1384-.011-1.9422-.011-3.8985-.021-5.8407 0-.638.207-2.0414-.044-2.6085-.197-.4678-.666-.4395-1.026-.4962-.371-.0567-.742-.0567-1.113-.0283-.557.0425-1.103.1559-1.648.2693.72-.2552 1.462-.3827 2.183-.6096.469-.1417.927-.3402 1.364-.6379.262-.1843.545-.3402.698-.6947.066-.1417.088-.326.12-.4961.066-.3544.077-.723.099-1.0916.043-1.0065.076-2.0131.087-3.0338.011-.51034.011-1.02069 0-1.53105 0-.32606-.098-.63794-.12-.97817-.098-1.37512-.524-2.69353-1.201-3.75677-.676-1.04906-1.604-1.81459-2.63-2.169-.382-.12759-.764-.19847-1.157-.22683-46.1431-1.885467-91.3697-1.95635-135.61396.02836-.17462.01417-.36015-.01418-.53477.04253-.17462.07088-.34924.15594-.53477.241-.36016.17012-.72031.34023-1.06955.56706-.67665.42529-1.30965.99235-1.7462 1.78623-.25101.46783-.42563.99236-.65482 1.46018-.12005.241-.27285.42529-.37107.68047-.46929 1.21918-.93858 2.45253-1.593406 3.52994-.632997 1.04905-.8185303 2.72185-.7530478 4.01195.0982238 1.7579.1309648 3.5299.2510158 5.2878.196448 2.7928.010914 5.5856.251016 8.4067.032741.3969.08731.8506.316499 1.1057.163706.1843.381983.2552.589343.3119.67665.1985 1.36422.3828 2.04087.5813-.84036.7088-2.09544.7655-2.542903 1.928-.141879.3827-.163706.808-.185534 1.2333-.076396 1.5027-.185534 2.9913-.26193 4.4798-.032741.6663-.065482 1.3468-.076396 2.013-.021827.638-.054569 1.2618-.109137 1.8997-.109138 1.4885-.403809 3.4165-.054569 4.8767.338326 1.4035 1.691629 1.4602 2.619299 1.8004-.49112.0709-.86219.5954-1.15686 1.12-.14188.2693-.25101.5387-.38198.808-.12005.241-.22919.482-.327411.7372-.196447.5103-.360153 1.0349-.480205 1.5878-.076396.3686-.120051.6521-.130964 1.0348-.010914.3403-.021828.6805-.032742 1.0207-.021827.6805-.032741 1.361-.043655 2.0415-.021827 1.3609-.032741 2.7218-.021827 4.0828.010914 1.3184-.2291886 2.5943.196447 3.8843.425636 1.2901 1.156857 2.3959 2.073607 3.1189.74214.5954 1.5825.9073 2.4556.964 44.49531 2.5376 89.73281 2.5092 135.66901-.0142 1.211-.0709 2.379-.6947 3.274-1.7721.425-.5103.807-.964 1.124-1.6161.393-.7797.753-1.5878 1.091-2.41.83-1.9989 1.867-4.2246 1.736-6.5353z" fill="url(#b)"/><path d="m142.849 63.0065c-45.9466 2.5092-91.1731 2.5517-135.66847.0141-1.97538 0-3.8198-1.8429-4.56194-4.1537-.32741-1.0349-.39289-2.1548-.34924-3.2606.01092-.1984.02183-.3827.06548-.5812.06549-.2977.17462-.5529.19645-.8648.01092-.1701.03274-.3119.04366-.482.07639-.8789.09822-1.772.15279-2.651.03274-.4961.0764-1.0065.18553-1.4885.12005-.5529.3165-1.0491.65483-1.3893 1.46244-1.4318 4.33275-1.4035 6.46091-1.4602.4147-.0142.7967-.0283 1.146-.0567.9276-.0709 1.8553-.0992 2.783-.0992-2.2046-.0142-4.39827-.2552-6.5701-.7514-1.0259-.2268-2.05179-.5103-3.06676-.8506-.24011-.0708-.50204-.1843-.73123-.326-.31649-.1843-.58934-.4537-.73122-.8506-.12005-.3402-.10913-.7372-.10913-1.0916.01091-.3544-.03274-.723-.01092-1.0774.02183-.7655.09823-1.5027.1528-2.2541.05456-.6096.10913-1.2192.14187-1.8429.0764-1.6303.1528-3.2606.25102-4.8909.03274-.4962.0764-1.0349.33833-1.3751.1637-.2127.37106-.3119.57842-.4111.56752-.2694 1.14595-.4679 1.73529-.5955.30558-.0708.61117-.0708.8731-.1559.3165-.1276.5566-.2126.89492-.2552 3.24141-.4961 6.48281-.9781 9.73511-1.4743.3819-.0567.7748-.1134 1.1677-.1701-4.8893-.7656-9.7896-1.5595-14.67896-2.325-.21827-.0425-.42564-.0709-.64391-.0992-.19645-.0284-.40381-.0709-.53477-.2552-.01092-.0142-.02183-.0284-.03274-.0425-.09823-.1701-.10914-.3686-.13097-.5813-.21827-3.4307.03274-6.9748-.12005-10.448-.01091-.1985-.05457-1.1625-.09822-2.2683-.05457-1.6019-.14188-3.43068-.17462-3.43068-.20737-3.81347 2.04086-7.10242 4.98757-7.23001 44.23337-1.998879 89.45997-1.927997 135.57047 0 2.958.12759 5.228 3.43071 4.999 7.27254-.077 1.30425.12 2.56595-.131 3.88435-.055.3119-.131.6238-.317.8364-.164.1843-.382.2552-.589.3119-.557.1701-1.114.3544-1.67.5245-.742.2269-1.473.4395-2.227.5529-4.452.6096-8.883 1.2334-13.325 1.8571-.12.0142-.24.0284-.36.0426-.142.0141-.284.0425-.426.0567.36-.0142.709-.0142 1.059-.0142 5.566-.1276 11.143-.241 16.72-.3686.152 0 .327 0 .447.1276.142.1418.175.3828.196.6096.033.3119.033.6096.033.8931-.011.9215-.131 1.8004-.131 2.7361 0 .8222.153 1.6303.153 2.4808-.011 1.2192-.044 2.4384-.076 3.6718-.088 2.7785-.241 5.5997-.47 8.3924-.032.4112-.076.8364-.283 1.1342-.164.2268-.404.3544-.633.4536-.142.0709-.284.1276-.437.1701-3.274 1.2192-6.854.2552-10.215 1.0065-.219.0426-.448.0993-.655.1702-.076.0141-.153.0425-.218.0708.272.0284.545.0426.818.0851 3.678.3402 7.345.8222 11.001 1.4318.426.0709.906.1701 1.157.6238.197.3402.197.8081.197 1.2334v1.4034c0 1.4177 0 2.8353.054 4.253.066 1.8713.153 3.7426.251 5.628.044.9215.087 1.843.142 2.7503.196 3.7993-2.041 7.074-4.966 7.2442z" fill="url(#c)"/><path d="m147.184 23.2958c-.011 1.2192-.044 2.4384-.076 3.6717-1.889.2269-3.733.4112-5.545.6805-.425.0567-.84.1134-1.266.1843-1.56.2127-3.121.4111-4.682.5812-.775.0851-1.56.1702-2.346.2552-.502.0567-.95.3119-1.43.3828-.676.0992-1.419-.1276-2.106-.1843-.764-.0567-1.528-.0851-2.292-.0709-1.528.0284-3.067.1701-4.584.397-3.056.4536-6.068 1.205-9.102 1.8571-4.856 1.049-9.735 1.8571-14.6461 2.3816 2.6741.3403 5.3261.9073 7.9341 1.687-.982.0993-1.964.1985-2.947.2694-3.121.2552-6.2422.3827-9.3635.4536-3.1214.0709-6.2536.0709-9.3749.0567-3.1214 0-6.2536-.0141-9.3749.0142-3.1214.0425-6.2427.1276-9.364.3119-1.5607.0992-3.1214.2126-4.6711.3686-.3929.0425-.7749.085-1.1678.1276-.4693.0567-.9276.2268-1.4079.2977-3.7215.567-7.4431 1.2759-11.1211 2.2115-5.7188 1.4602-11.4703 2.892-17.2873 3.4024-1.0477.085-2.1064.1701-3.1541.2551-5.0094 1.3043-10.4226 1.5736-15.3338 2.3533-1.6698.2694-3.37234.4112-5.07488.4962-1.02589-.2268-2.05179-.5103-3.06676-.8506-.24011-.0709-.50204-.1843-.73122-.326-.3165-.1843-.58935-.4537-.73122-.8506-.12006-.3403-.10914-.7372-.10914-1.0916.01091-.3544-.03274-.723-.01092-1.0774.02183-.7656.09823-1.5027.1528-2.2541 4.49646-.482 9.11294-2.169 13.43484-2.9912 5.5551-1.0349 11.2193-1.6445 16.818-2.0556 6.3409-.4537 12.6709.5245 18.9899.5245 5.8607 0 11.6996-.6663 17.5275-1.2759 11.3612-1.1908 22.7006-2.4241 34.0395-3.7-2.466-.0567-4.9325-.1418-7.399-.2552-3.1432-.1418-6.2864-.3261-9.4295-.5387-.7312-.0425-1.4843-.1701-2.2046-.0709-.753.1134-1.517.1418-2.27.1276-1.4952-.0284-2.9904-.2694-4.4419-.7372-.8513-.2693-1.7026-.6238-2.5648-.8222-1.4624-.3261-2.9576-.2268-4.4528-.2552-5.5551-.0992-11.0229-1.9989-16.5779-1.928-1.4625.0142-2.914.1701-4.3655.3402-1.5389.1843-3.0886.3686-4.6384.4253-.6875.0284-1.3969.0851-2.0627-.1134-.5129-.1559-1.1023-.085-1.6261-.0992-.9386-.0284-1.8772-.0567-2.8158-.0851-1.8771-.0567-3.7543-.085-5.6424-.0992-7.1266-.0425-14.2315.4678-21.3582.3969-3.03398-.0283-6.13348-.1134-9.13476-.6804-.01092-.0142-.02183-.0284-.03274-.0426-.09823-.1701-.10914-.3686-.13097-.5812-.21827-3.4307.03274-6.9748-.12005-10.4481-.01091-.1984-.05457-1.1624-.09822-2.2682 3.63427-.4111 7.29038-.5104 10.92464-.8506 7.1158-.6805 14.2315-.9782 21.38-.9357 14.1551.0851 28.2775 1.2618 42.389 2.6511 14.1224 1.3892 28.2117 3.1046 42.3347 4.4088 7.137.6522 14.286 1.0633 21.434 1.0633 2.096 0 4.213-.1701 6.33-.3686-.011.9215-.131 1.8004-.131 2.736.033.8932.186 1.7012.175 2.5376zm.229 24.0859c-.054-1.4177-.054-2.8353-.054-4.253-4.508-.6379-9.026-1.29-13.555-1.7011-7.771-.6947-15.585-.5813-23.367-.1702-1.615.0851-3.208.1418-4.813.397-.774.1276-1.549.2552-2.324.3686-3.111.482-6.2211.8647-9.3424 1.1766-1.2114.1134-2.4338.2268-3.6561.3261 3.1541-.0284 6.3081-.0567 9.4622-.0851 3.1543-.0283 6.3083-.0567 9.4623-.085 1.571-.0142 3.154-.0284 4.726-.0426.785-.0141 1.571-.0141 2.368-.0283.327 0 .676.0283 1.004-.0709.196-.0567.393-.1559.589-.1985.71-.1417 1.495.0426 2.205.0993.786.0567 1.56.1134 2.346.1701 1.561.1276 3.133.2693 4.693.4111 2.467.241 4.922.5104 7.378.7939 2.685.3119 5.348.723 8.021 1.1483-6.068.7513-12.125 1.531-18.204 1.9705-13.991 1.0065-27.9825 2.2682-41.9957 1.8997-13.8168-.3403-27.6009-1.3752-41.4286-1.3043-7.2904.0284-14.5698.1843-21.8384.4678-5.3695.1985-10.80457.1702-16.16322.879-.10913.4678-.15279.9923-.18553 1.4885-.05457.879-.0764 1.7721-.15279 2.651 5.96981.3119 12.00514-.2126 17.96404-.2268 7.2794-.0142 14.5589.0709 21.8384.2977 13.7949.4253 27.579 1.4177 41.363 1.7295 14.0351.3261 28.0378-.9781 42.0398-1.8996 7.225-.4678 14.493-.482 21.718-.5812h.153c-.098-1.8855-.185-3.7426-.251-5.6281z" fill="url(#d)"/><g fill="#eb924d"><path d="m3.45939 42.5207c-.01091.7089-.01091 1.4319.16371 2.0982-.3165-.1843-.58934-.4537-.73122-.8506-.12005-.3403-.10914-.7372-.10914-1.0916.01091-.3544-.03274-.723-.01091-1.0774.04365-1.3752.2401-2.7219.29467-4.097.07639-1.6303.15279-3.2606.25101-4.8909.03275-.4962.0764-1.0349.33833-1.3751.16371-.2127.37107-.3119.57843-.4112.56751-.2693 1.14594-.4678 1.73528-.5954.27285-.085.57843-.085.84036-.1701.3165-.1276.5566-.2126.89493-.2552 3.24136-.4961 6.48276-.9781 9.73506-1.4743-3.4815.9214-6.963 1.8146-10.45537 2.736-.67665.1702-1.58249.1702-2.15001.7514-.12005.1134-.21827.2552-.31649.3969-.08731.1276-.16371.2694-.26193.397-.18554.2126-.25102.5529-.33833.8506-.22919.8647-.36015 1.772-.39289 2.6793-.01092.3403-.01092.6947-.04366 1.0349-.01091.0851-.02183.1701-.03274.2552-.01091.0992-.05457.1701-.0764.2693-.17462.6947-.15279 1.4602-.07639 2.169.03274.2552.09822.5104.14188.7656.10913.6096.03274 1.2617.02182 1.8854z"/><path d="m129.144 16.7769c-.196-.0142-.393-.0283-.589-.0425h.938c-.109 0-.229.0283-.349.0425z"/><path d="m132.355 37.8008c.906.1134 1.812.2268 2.718.3119-.218.0425-.447.0992-.655.1701-.698-.1701-1.397-.3403-2.063-.482z"/><path d="m145.69 36.0563c.142-.7372.109-1.5027.055-2.2541-.076-1.3893-.164-2.7927-.24-4.182-.011-.2694-.044-.5671-.208-.7372-.13-.1418-.316-.1418-.48-.1276-1.353.0567-2.695.1134-4.027.1701 1.452-.1701 2.892-.6663 4.202-1.4885.382-.241.775-.5387.917-1.0349.076-.2552.076-.5387.076-.8222-.022-2.1974-.316-4.6499-.524-6.8331-.633-.7797-1.582-.8789-2.455-.9498-3.515-.2835-7.04-.5529-10.543-.8364-.84-.0709-1.779-.1134-2.674-.1701 5.566-.1276 11.143-.241 16.72-.3686.153 0 .327 0 .447.1276.142.1417.175.3827.197.6096.12 1.2475-.109 2.3958-.109 3.6291 0 .8223.152 1.6303.152 2.4809-.054 3.9411-.218 8.0523-.556 12.0642-.033.4111-.077.8364-.284 1.1341-.164.2268-.404.3544-.633.4537-.142.0709-.284.1276-.436.1701.185-.2835.327-.6521.403-1.0349z"/><path d="m2.47671 14.3953c-.02182-.4678-.21827-5.68478-.28375-5.68478-.20737-3.81347 2.04086-7.10242 4.98757-7.23001 44.23337-1.998879 89.45987-1.927997 135.57047 0 2.958.12759 5.228 3.43071 4.998 7.27254-.076 1.30425.121 2.56595-.13 3.88435-.055.3119-.131.6238-.317.8364-.164.1843-.382.2552-.589.3119-.557.1701-1.103.3686-1.659.5245.48-.567 1.037-1.2333 1.255-2.0556.153-.5528.033-1.0348-.109-1.5594-.219-.82221-.262-1.60191-.284-2.46668-.033-1.06324.109-2.58012-.535-3.43071-.491-.63794-1.135-1.19082-1.746-1.58776-1.517-.96401-3.274-1.17665-4.944-1.26171-.087 0-.164-.01418-.251-.01418-3.078-.12759-6.166-.14176-9.244.26936-.371.04252-.698.18429-1.058.26935-.448.11341-.983-.02835-1.441-.05671-1.048-.07088-2.085-.12759-3.132-.18429-2.085-.09924-4.18-.17012-6.276-.21265-1.571-.02835-3.132-.02835-4.704-.02835-.491 0-.993 0-1.484 0-.949 0-1.899 0-2.859 0-1.321 0-2.641 0-3.962-.01418-.065 0-.131 0-.185 0-2.096 0-4.1804-.01418-6.2759-.01418-1.0477 0-2.0954 0-3.1322-.01417-.4802 0-1.015.08506-1.4843-.02835-.4802-.11342-.8622-.49618-1.3642-.55289-.4584-.0567-.9277.04253-1.3751.09924-1.146.11341-2.281.25517-3.416.42529-.513.07088-1.0805.1843-1.4188.68047-.1201.17012-.2074.38277-.3492.52453-.3165.29771-.764.09924-1.1351-.07088-.7312-.32606-1.5061-.51035-2.2919-.55288-.7094-.04253-1.4078.12759-2.1172.07088-.4475-.02835-.8731-.17012-1.3097-.28353-1.7243-.43947-3.5251-.46782-5.2604-.63794-1.2878-.12759-2.5866-.21265-3.8853-.26935-4.1799-.19847-8.3708-.08506-12.5399.14176-2.0954.11341-4.1799.25518-6.2754.4253-.9604.07088-2.019.34023-2.9685.17011-.2729-.04253-.5348-.18429-.8076-.25517-.2838-.07089-.5675-.05671-.8622-.05671-1.1569.01418-2.3246.02835-3.4815.02835-1.3533.01418-2.7175 0-4.0817 0-.4584 0-.9059.11342-1.3533.11342-.4148 0-.8186-.11342-1.2333-.11342-.8622.01418-1.7134.22683-2.5102.65212-.3055.17012-.622.35441-.9604.34024-.6111-.04253-1.0259-.79389-1.5825-1.13412-1.3096-.808061-2.6629.73718-4.0053.11341-.6657-.31188-1.3424-.26935-2.0518-.26935-.8949-.01418-1.7898-.01418-2.6848-.01418-3.034.01418-6.068.15594-9.0802.55288-1.5061.19847-3.00127.46783-4.49645.80806-.72031.17012-1.45153.43947-2.18275.55289-.20736.02835-.37107.02835-.56751.21264-.89493.80806-3.35052 5.33036-1.59341 6.91814.10914.0992.22919.1843.36015.2552.18554.0992.38199.1417.57843.2268.19645.0992.44747.0283.65483.0283.50203 0 1.00406 0 1.49518-.0141.53477 0 1.06955-.0142 1.57158.1843-1.13503.3118-2.27006.6095-3.40509.9073-.37107.0992-.74213.1984-1.09137.3969-.05457.0425-.12005.0567-.18554.0851-.2401.1134-.41472.4961-.50203.7938-.22919.7797-.08731 1.6303-.18553 2.4384-.17462 1.446.04365 3.0054.15279 4.4372.14188 1.843.3165 3.7001.52386 5.543-.21827-.0425-.42564-.0708-.64391-.0992-.20736-.0284-.42564-.0709-.56751-.2835-.09823-.1701-.10914-.3686-.13097-.5813-.21827-3.459.03274-7.0031-.10914-10.4622z"/><path d="m147.805 55.7612c-.153-2.7928-.284-5.5856-.393-8.3783-.066-1.8855-.055-3.771-.055-5.6565 0-.4253-.011-.8789-.196-1.2333-.251-.4537-.731-.5529-1.157-.6238-3.656-.6096-7.323-1.0916-11.001-1.4318 3.274.8222 6.657 1.8713 9.768 2.9912.611.2269.654.8364.905 1.5878.241.7514.262 1.6019.284 2.41.011.3402.011.6805-.076 1.0065-.186.723-.775 1.12-1.299 1.4602.393.1418.786.2835 1.19.4395.098.0425.196.0709.262.1701.076.0992.109.2694.12.4253.152 1.3468.032 2.7644.043 4.1254.011.8789.011 1.7578.022 2.6368.011.241.077.4678.12.723.066.5103.022 1.0349-.098 1.531-.24 1.0207-.775 1.928-1.462 2.5093-1.19 1.0065-2.674 1.2192-4.093 1.3467-2.368.2269-4.748.1985-7.105.4962-.786.0851-1.561.1843-2.346.2694-1.561.1701-3.133.3119-4.693.4536-2.958.2552-5.926.4537-8.884.5813-7.007.3118-14.024.2835-21.0418.2268-.8404-.0284-1.6916-.0284-2.532-.0284-.6876 0-1.3424.1134-2.019.0284-1.648-.2127-3.2851.1701-4.9221.4111-1.9099.2694-3.9617.2977-5.6097-.9782-.5239-.4111-1.0368-.9498-1.648-.9782-.502-.0141-.9713.3545-1.4297.638-.8731.5387-1.8335.8364-2.7939.9923-.0218 0-.0327 0-.0546.0142-2.0408.3403-4.0053.156-6.0462-.0283-1.4952-.1276-3.0667.1984-4.4964-.4962-1.1023-.5245-2.2592-1.2759-3.3942-.879-.4038.1418-.764.4253-1.146.6238-.7421.3828-1.5606.4537-2.3573.5104-.5021.0283-1.0041.0567-1.5061.085-2.0845.0851-4.18.0709-6.2645-.0425-.8731-.0567-1.768-.0425-2.6193-.3686-.5893-.2268-1.1678-.0851-1.7789-.0283-2.532.2126-5.0749.2693-7.6178.1559-1.0368-.0425-2.0736-.1134-3.0995-.2127-.5021-.0425-1.0259-.1701-1.528-.1701-.3492 0-.6657.1418-1.0149.1418-2.1064-.0142-4.2018-.0567-6.3082-.0851-3.5906-.0425-7.1921-.0992-10.7828-.1417-2.4556.4394-4.5183-.1134-6.95202-.6947-1.99721-.482-4.16905-1.531-4.99849-3.941-.34924-1.0066-.40381-2.1265-.37107-3.2039.01092-.3261.03274-.638 0-.964-.03274-.2977-.10914-.5671-.14188-.8648-.10913-.9782.12005-2.1123.30559-3.0621.09822-.482.21827-.9924.49112-1.361.2401-.3402.57842-.5387.91675-.6804.89493-.3686 1.84442-.4537 2.783-.5246 1.35331-.0992 2.7066-.2126 4.0599-.3118.2729-.0142.5457-.0426.8185-.0567-.0327-.1702-.0545-.3403-.0545-.5246l.0109-.0709c-.8295-.0283-1.6589-.0283-2.4883-.0425-2.13913.0567-4.99853.0425-6.46098 1.4602-.65482.6379-.77487 1.8146-.84035 2.8636-.06549 1.0349-.08731 2.0982-.19645 3.133-.03274.3119-.13097.5671-.19645.8648-.04365.1985-.05457.3828-.06548.5812-.04366 1.12.02183 2.2399.34924 3.2606.73122 2.325 2.57564 4.1537 4.56194 4.1537 44.49533 2.5376 89.72183 2.5093 135.66893-.0141 2.925-.156 5.162-3.4307 4.955-7.23z"/><path d="m10.4023 35.1626c0 .7655.0219 1.5452.0546 2.3108.0109.3827.0328.7655.0546 1.1483.0109.2835 0 .5954.0436.8647.0437.2268.0873.4253.0873.6663.0219.6521.0437 1.3184.0764 1.9705.0437 1.3185.0983 2.6227.1419 3.9411.0655 1.687.1201 3.3598.1856 5.0468.0327.9357.1527 1.7437.5347 2.5376.0764.156.1419.3119.2292.4537.1419.241.3165.4111.5348.5387.7967.4536 1.7025.6946 2.5647.8648 1.3315.2693 2.6739.3402 4.0163.3969 17.6911.808 35.4042 1.6303 53.1062 1.0632 2.161-.0709 4.3983-.1417 6.4064.9073-.9167-2.1265-3.1322-2.4383-5.0094-2.495-19.6666-.5813-39.344-1.2334-58.9451-3.3599-.5348-.0567-1.1241-.1417-1.5061-.6521-.2729-.3544-.382-.8647-.4693-1.3468-1.0041-5.2594-1.2005-10.7741-.5893-16.1328.0327-.326.1091-.6805.0982-1.0065-.0109-.3403-.0437-.6805-.0437-1.0349-.0109-.7088.0109-1.4318.0655-2.1407-.0764-.1701-.2619-.1701-.4038-.1417-.3711.0567-.7421.0992-1.1241.1559.0218.4678 0 .9073-.0437 1.3751-.0109.156.0109.2694.0219.4253.0218.3119-.0219.638-.0328.9357-.0218.4536-.0327.9215-.0436 1.3751 0 .4395-.011.8931-.011 1.3326z"/><path d="m79.2156 58.1299c.2183-.723.9495-.8506 1.5498-.8648 4.7693-.1276 9.5277-.241 14.297-.3686 4.4964-.1134 9.0036-.2268 13.5006-.3544 1.451-.0425 3.001-.0425 4.201 1.0207-.021-.2268-.054-.4537-.076-.6805.513-.1134 1.004-.2552 1.528-.1984.284.0283.578-.0993.862-.1418.666-.1134 1.343-.1559 2.008-.1985 3.7-.2126 7.411-.2835 11.121-.5245.939-.0567 1.867-.1418 2.805-.2268.928-.0851 1.867-.156 2.783-.3261.131-.0283.251-.0851.382-.0992.175-.0142.349-.0284.524-.0426.939-.0992 1.888-.326 2.761-.8505 1.092-.6522 2.052-1.8146 2.401-3.3032.153-.6663.186-1.3609.219-2.0556.109-3.1755.076-6.3652-.11-9.5266-.12-.1559-.425.1276-.469.3545-.447 2.3107-.786 4.6498-1.004 7.0031-.131 1.4035-.24 2.892-.906 3.9978-.731 1.205-1.953 1.687-3.11 2.0272-6.145 1.843-12.496 2.0273-18.794 2.1974-5.871.1559-11.743.3261-17.6035.482-4.8894-.2126-9.8988.7939-14.7554.1134-1.3642-.1985-2.7393-.5103-4.1036-.2552-.0982.0142-.2073.0426-.2837.1418-.0546.0709-.0655.1701-.0873.2694-.1637.7371.0982 1.6728.3601 2.41z"/></g><path d="m139.885 44.6755c-.011-2.6936-.033-5.3871-.054-8.0948-.011-2.5943-.033-5.1744-.044-7.7687-.022-3.1189.076-6.266-.207-9.3565-.055-.6096-.175-1.2334-.164-1.8429.011-.9215-.131-1.6303-.448-2.5093-.403-1.1908-.982-2.2824-1.637-3.2748-1.419-2.18313-3.459-2.28237-5.588-2.39578-2.237-.12759-4.463-.01417-6.69-.02835-2.488-.01418-4.987-.02835-7.476-.05671-3.034-.02835-6.057-.07088-9.091-.11341s-6.068-.08506-9.1018-.12759c-1.517-.01417-3.034-.04253-4.551-.0567-.3165 0-.6439-.04253-.9495.0567-.1965.05671-.3711.15594-.5675.1843-.6767.08506-1.4516-.14177-2.1173-.31189.0873-2.02723.3601-4.04029.8185-5.99665-.6221 2.01306-1.3314 3.98359-2.1391 5.88324-.0545.12759-.1091.25518-.2073.31189-.0982.0567-.2183.04252-.3165.02835-.2292-.04253-.4693-.07088-.6985-.14177-.5239-.17011-1.0805-.09923-1.6262-.09923-2.3464-.02835-4.682-.04253-7.0284-.05671-4.6056-.02835-9.2112-.01417-13.8059.02836-4.933.04252-9.866-.04253-14.8099-.07089-1.3424-.01417-2.6848-.02835-4.0163-.02835-.5784 0-1.135-.02835-1.6916.12759-.5785.17012-1.2878.02835-1.8772-.01418-.3274-.02835-.6766-.07088-.9386-.34023-.2619-.25518-.382-.6663-.502-1.06324-.2401-.82224-.4802-1.64447-.7203-2.46671.0327.964.1091 1.91383.2292 2.86365.0327.31188.0545.70883-.1637.86477-.0655.04253-.1528.0567-.2292.07088-.2619.02835-.5348.11341-.7967.04253-.5021-.12759-1.0041-.08506-1.517-.08506-5.6097 0-11.1975-.02835-16.7854-.05671-3.1322-.01417-10.6627-2.08394-11.6886 3.4449-.1419.7655-.1309 1.5594-.1746 2.3533-.1091 2.3816-.0437 4.7775-.0109 7.1733.0873 7.8963.2619 15.7926.502 23.6747.0328 1.205.0764 2.4242.1965 3.6292.0982.9498.0436 2.1973.622 2.9345.1965.2552.3384.4962.513.7939.3492.5812.8294 1.0207 1.3533 1.3326 1.1241.6805 2.4228.8648 3.667.9357 4.0599.2551 8.1089.4678 12.1579.6237 4.0818.1701 8.1526.3261 12.2343.4253 4.0818.0992 8.1526.1701 12.2343.1985 3.6998.0283 7.3995.0425 11.0993.0567h5.6642c2.0409 0 4.5074-.8223 6.3846.4395.9386.6237 1.7244 1.6303 2.1718 2.8778-.0764-1.0066-.0546-2.0273.0655-3.0338 1.4843-.2693 2.9685-.4395 4.4637-.4678.6439-.0142 1.266.1134 1.9099.0992.7531 0 1.517-.0142 2.2701-.0142 3.034-.0283 6.068-.0567 9.102-.0992 1.8772-.0283 3.7539-.0567 5.6429-.085 4.081-.0568 8.152-.1843 12.234-.3828.731-.0425 1.473-.0709 2.204-.1134 5.621-.2836 11.242-.7088 16.851-1.2901.48-.0567.939-.1134 1.386-.2268.721-.1843 1.397-.5104 1.987-1.1625.72-.7939 1.418-1.6445 1.899-2.6935.774-1.687.578-3.615.567-5.5288zm-3.045 3.6575c-.295.6379-.84 1.2759-1.288 1.7579-.109.1134-.273.2552-.698.3544-.317.085-.688.1276-1.059.1701-5.38.5529-11.012.9782-16.731 1.2901-.731.0425-1.451.0708-2.182.0992-4.278.1985-8.251.3261-12.158.3828-11.6015.1843-23.0282.2835-33.9856.2835-4.9112 0-9.8224-.0142-14.7445-.0567-4.038-.0425-8.1525-.0992-12.1906-.1985-4.0381-.0992-8.1417-.241-12.1907-.4111s-8.1307-.3828-12.1251-.6379c-.884-.0426-1.8881-.156-2.5975-.5813-.1746-.1134-.2619-.1984-.2837-.2268-.131-.2268-.2947-.4962-.4803-.7797-.0109-.1418-.0218-.2977-.0327-.4253-.0218-.2552-.0327-.4962-.0546-.7372-.0982-1.0207-.1309-2.0697-.1746-3.3315-.251-7.797-.4256-15.7358-.502-23.5754l-.0109-1.3326c-.0328-1.9422-.0546-3.771.0327-5.5714.0109-.1985.0109-.4111.0218-.6379.011-.4395.0219-.8364.0655-1.0633.0982-.482 1.146-.9781 3.3178-.9781 1.0695 0 2.2155.1134 3.2196.2126.8621.0992 1.6807.1701 2.3792.1701 4.9875.0284 9.986.0425 14.9845.0425h2.8049c3.7324 0 7.465.0142 11.2084.0426l3.6015.0283c2.6302.0284 5.2713.0426 7.9015.0426 1.1023 0 2.2155 0 3.3397-.0142 2.783-.0284 5.555-.0425 8.338-.0425 9.4186 0 19.0227.1417 28.2997.2693 7.279.0992 14.821.1985 22.198.241l.36.0142c.655 0 1.288-.0142 1.943-.0142.633-.0142 1.266-.0142 1.888-.0142.917 0 1.681.0142 2.368.0567h.077c1.997.1276 2.925.2552 3.47 1.0916.557.8506.939 1.6303 1.201 2.3817.196.5812.196.7372.196.964-.011.7372.077 1.3751.131 1.8854.011.1418.033.3119.055.4537.196 2.1548.185 4.3664.185 6.7196-.011.7372-.011 1.4744 0 2.2116l.099 15.8209c.011.3544.011.6805.021 1.0066.011 1.1199.033 2.1123-.218 2.6368z" fill="url(#e)"/><g fill="#eb924d"><path d="m10.4572 30.1587 3.3396-.8648-.1418-.4111-3.4597.5387z"/><path d="m136.141 17.2147 3.874.4253v-1.1341l-4.191.241z"/><path d="m136.416 38.8915 4.289 1.0633-.088-.8932-4.605-.5245z"/><path d="m123.87 34.1279c-3.263-2.3674-8.687-1.6444-11.274 1.5453-1.626 2.013-1.713 5.7698 0 7.7687 3.766 4.4089 10.379 2.5234 12.769-2.9204.044-.0567.088-.1134.142-.1559 1.823-2.1407.524-5.699-1.637-6.2377z"/></g><path d="m124.644 32.044c-3.264-2.3675-8.688-1.6445-11.274 1.5452-1.626 2.0131-1.714 5.7698 0 7.7687 3.765 4.4089 10.379 2.5234 12.769-2.9204.043-.0567.087-.1134.142-.1559 1.822-2.1406.524-5.6989-1.637-6.2376z" fill="url(#f)"/><path d="m123.87 33.3897c-3.263-2.3675-8.687-1.6445-11.274 1.5452-1.626 2.0131-1.713 5.7698 0 7.7687 3.766 4.4089 10.379 2.5234 12.769-2.9204.044-.0567.088-.1134.142-.1559 1.823-2.1406.524-5.6989-1.637-6.2376z" fill="url(#g)"/><path d="m111.465 25.3954c-2.063-1.5027-5.479-1.0349-7.105.9781-1.026 1.2618-1.08 3.6434 0 4.9051 2.38 2.7786 6.549 1.5878 8.055-1.8429.032-.0284.054-.0709.087-.0993 1.146-1.3609.327-3.6008-1.037-3.941z" fill="#eb924d"/><path d="m111.953 24.0917c-2.062-1.5028-5.478-1.0349-7.104.9781-1.026 1.2617-1.081 3.6434 0 4.9051 2.379 2.7786 6.548 1.5878 8.054-1.8429.033-.0284.055-.0709.087-.0993 1.146-1.3751.328-3.615-1.037-3.941z" fill="url(#h)"/><path d="m111.465 24.9276c-2.063-1.5027-5.479-1.0349-7.105.9782-1.026 1.2759-1.08 3.6433 0 4.905 2.38 2.7786 6.549 1.5878 8.055-1.8429.032-.0284.054-.0709.087-.0992 1.146-1.361.327-3.6009-1.037-3.9411z" fill="url(#i)"/><path d="m27.473 39.7694c-2.0627-1.5027-5.4787-1.0349-7.1049.9782-1.0259 1.2617-1.0804 3.6433 0 4.905 2.3792 2.7786 6.5483 1.5878 8.0544-1.8429.0327-.0284.0546-.0709.0873-.0992 1.1459-1.361.3274-3.6009-1.0368-3.9411z" fill="#eb924d"/><path d="m27.9613 38.451c-2.0627-1.5027-5.4787-1.0349-7.1049.9782-1.0259 1.2759-1.0804 3.6434 0 4.9051 2.3792 2.7786 6.5483 1.5877 8.0544-1.843.0327-.0283.0545-.0709.0873-.0992 1.1459-1.3609.3274-3.6008-1.0368-3.9411z" fill="url(#j)"/><path d="m27.473 39.3016c-2.0627-1.5027-5.4787-1.0349-7.1049.9782-1.0259 1.2759-1.0804 3.6434 0 4.9051 2.3792 2.7786 6.5483 1.5877 8.0544-1.843.0327-.0283.0546-.0709.0873-.0992 1.1459-1.361.3274-3.6008-1.0368-3.9411z" fill="url(#k)"/><path d="m10.3711 17c0-3.3137 2.6863-6 6-6h110.3189c5.522 0 10 4.4772 10 10v23c0 5.5228-4.478 10-10 10h-108.3189c-4.4183 0-8-3.5817-8-8z" fill="#eb924d" opacity=".9"/><path d="m40.1705 28.3516c.1562-.1563.25-.25.2812-.2813.0469-.0469.0859-.1094.1172-.1875l.2109-.164c.1407-.1407.2188-.2188.2344-.2344.0313-.0156.0625-.0391.0938-.0703.125-.125.2187-.2032.2812-.2344.1094-.1094.1797-.1641.2109-.1641.0469 0 .086-.0078.1172-.0234.1094-.0781.1953-.1328.2578-.1641.0625-.0312.125-.0625.1875-.0937.0938-.0469.1875-.0938.2813-.1406.0781-.0626.1406-.1016.1875-.1172.0625-.0157.1094-.0469.1406-.0938.2031-.0312.3672-.0781.4922-.1406.1406-.0469.2266-.0625.2578-.0469.0469 0 .1094-.0078.1875-.0234.1094-.0157.1719-.0235.1875-.0235.0156-.0156.0391-.0234.0703-.0234.1563.0469.25.0703.2813.0703.0469-.0156.0937-.0156.1406 0 .1406.0313.2344.0469.2813.0469.0625-.0156.1093-.0156.1406 0 .0469 0 .0859.0156.1172.0469.0468.0156.0937.0312.1406.0468l.375.1172c.1562.0938.2344.1407.2344.1407.125.0781.1875.125.1875.1406l.0468.0468c.1407.1094.2344.1719.2813.1876.0625 0 .1172.0156.1641.0468.1718.125.2734.1875.3046.1875.1875.0938.3125.1875.375.2813.0625.0937.1329.1718.211.2344.1094.0937.164.1484.164.164s.0079.0313.0235.0469c.0469.0625.0781.1172.0937.1641.0157.0468.0391.0859.0703.1171.1719.1719.2657.3203.2813.4453.1094.1563.1797.25.2109.2813.0938.1719.1407.2656.1407.2813 0 0 .0078.0156.0234.0468.0937.1719.1406.2735.1406.3047 0 .0156.0078.0391.0235.0703.0625.125.0937.1953.0937.211 0 .0156.0078.039.0234.0703.0625.1093.0938.1797.0938.2109 0 .0156.0156.0391.0469.0703.0156.0469.0547.1328.1172.2578.0468.1094.0859.211.1171.3047.0469.1719.0704.2813.0704.3282 0 .0312.0078.0624.0234.0937.0469.1719.0703.2578.0703.2578.0313.1406.0469.2266.0469.2578.0156.1875.0234.2891.0234.3047.0156 0 .0078.0078-.0234.0234.0312.0626.039.1407.0234.2344v.2578c.0313.1407.0391.2344.0235.2813-.0157.0312-.0079.0625.0234.0937-.0156.125-.0313.211-.0469.2578v.0938c.0156.1094.0156.1953 0 .2578v.1406c-.0156.1563-.0234.2422-.0234.2578.0156 0 .0234.0079.0234.0235-.0312.1875-.0469.2891-.0469.3047.0157 0 .0235.0156.0235.0468-.0313.125-.0469.2032-.0469.2344.0156.0156.0156.0391 0 .0703-.0469.1407-.0703.25-.0703.3282 0 .0625-.0078.1328-.0234.2109l-.0704.2812c0 .1407-.0078.2422-.0234.3047-.0625.1407-.1016.2188-.1172.2344l-.0937.3047c-.0469.0469-.0703.0938-.0703.1406 0 .0469-.0079.0938-.0235.1406-.0937.1563-.1406.25-.1406.2813s-.0078.0625-.0234.0937c-.0782.2032-.125.3126-.1407.3282-.0781.1562-.125.2656-.1406.3281-.0156.0469-.0469.0781-.0937.0937-.0313.1407-.086.25-.1641.3282-.0781.0781-.1328.1875-.1641.3281-.1406.1406-.2187.2422-.2343.3047-.0938.0937-.1485.1484-.1641.164 0 .0157-.0078.0313-.0234.0469-.0938.125-.1485.2031-.1641.2344-.0625.125-.1172.1797-.1641.1641-.0312-.0157-.039-.0078-.0234.0234-.0469.0781-.1094.1406-.1875.1875-.0625.0469-.125.1172-.1875.2109-.0938.0313-.1875.086-.2813.1641-.0937.0625-.1796.1094-.2578.1406-.1406.0625-.2422.1016-.3047.1172-.0468.0313-.1015.0547-.164.0703-.0313.0156-.0781.0235-.1406.0235-.0625.0156-.1094.0312-.1407.0468-.1406.0313-.2343.0469-.2812.0469-.0313.0156-.0625.0313-.0938.0469l-.2812.0703c-.1094.0469-.2031.0859-.2813.1172-.0625.0312-.125.0469-.1875.0469l-.4922-.1172c-.0468-.0157-.1015-.0235-.164-.0235-.0469 0-.086 0-.1172 0-.1719-.0312-.2734-.0546-.3047-.0703-.0469 0-.0937-.0156-.1406-.0469-.0313-.0156-.0703-.0156-.1172 0-.2031-.0781-.3672-.1562-.4922-.2343-.1094-.0625-.2266-.1172-.3516-.1641-.0312-.0625-.0703-.1016-.1171-.1172-.0469-.0312-.0938-.0625-.1407-.0937-.1562-.0781-.2422-.125-.2578-.1407 0-.0312-.0078-.0546-.0234-.0703-.1406-.1093-.2188-.1875-.2344-.2343-.125-.1563-.2031-.2344-.2344-.2344-.0312-.0313-.0703-.0625-.1172-.0938-.0312-.0312-.0546-.0625-.0703-.0937l-.2109-.1875c-.0938-.1094-.1641-.1797-.2109-.211-.1094-.1406-.1954-.2421-.2579-.3046-.1093.1718-.1484.3672-.1171.5859.0468.1875.0625.3203.0468.3984 0 .0625.0078.1329.0235.211.0312.1093.039.1797.0234.2109v.0703c-.0469.1094-.0703.1875-.0703.2344s-.0156.0859-.0469.1172c-.1719.2031-.3281.2578-.4687.1641-.0782.0312-.1719.039-.2813.0234s-.2187-.0234-.3281-.0234c-.1563-.0157-.2656-.0235-.3281-.0235-.0469 0-.086-.0078-.1172-.0234-.0625.0156-.1172.0234-.1641.0234s-.1015-.0078-.164-.0234l-.3047-.0235c-.1563-.0156-.3282-.0156-.5157 0-.1875.0157-.3671.0235-.539.0235h-.3281c-.1407.0312-.2891.0312-.4454 0-.1406-.0157-.2812-.0078-.4218.0234-.0782-.0312-.1485-.0703-.211-.1172-.0468-.0625-.1015-.125-.164-.1875-.0313-.0781-.0469-.1484-.0469-.2109.0156-.0781.0234-.1563.0234-.2344.0157-.2187.0235-.3437.0235-.375.0156-.0469.0234-.1094.0234-.1875.0156-.125.0391-.25.0703-.375.0313-.1719.0391-.2656.0235-.2812 0-.0157 0-.0391 0-.0704 0-.0468.0078-.0937.0234-.1406.0156-.0625.0234-.1172.0234-.164.0313-.25.0235-.4454-.0234-.586.0312-.125.0312-.2578 0-.3984-.0313-.1406-.0078-.2656.0703-.375-.0312-.0781-.0391-.1563-.0234-.2344.0156-.0781.0234-.1562.0234-.2344 0-.125-.0078-.25-.0234-.375-.0157-.125-.0078-.2422.0234-.3515l.0469-.2578c-.0313-.1407-.0313-.3282 0-.5625 0-.0469 0-.0938 0-.1407.0156-.0625.0234-.1093.0234-.1406 0-.0781-.0078-.1484-.0234-.2109 0-.0625.0156-.1172.0469-.1641.0156-.125.0156-.2109 0-.2578 0-.0469 0-.1016 0-.1641-.0157-.1093-.0079-.2265.0234-.3515.0156-.1719.0156-.2735 0-.3047 0-.0469 0-.0938 0-.1406 0-.0625.0078-.1172.0234-.1641.0157-.0625.0235-.125.0235-.1875 0-.0781-.0078-.1406-.0235-.1875 0-.0625 0-.125 0-.1875 0-.2188.0235-.4219.0703-.6094-.0312-.0781-.0468-.1484-.0468-.2109 0-.0781 0-.1563 0-.2344 0-.1562 0-.2969 0-.4219s-.0078-.2656-.0235-.4218c0-.1563-.0078-.2813-.0234-.375 0-.1094 0-.2032 0-.2813 0-.1406 0-.2422 0-.3047.0156-.0781.0156-.1562 0-.2344 0-.125 0-.2031 0-.2343.0156-.0469.0234-.0938.0234-.1407l-.0234-.8437c-.0156-.1094-.0234-.2109-.0234-.3047.0156-.1094.0234-.2109.0234-.3047.0156-.0625.0234-.1562.0234-.2812s0-.1953 0-.211c.0157-.0312.0078-.0781-.0234-.1406-.0156-.1406-.0234-.2265-.0234-.2578.0156-.0313.0234-.0625.0234-.0937-.0156-.0469-.0313-.086-.0469-.1172 0-.0469-.0078-.0938-.0234-.1407-.0156-.0937-.0235-.1875-.0235-.2812.0157-.0938.0235-.1875.0235-.2813 0-.125-.0078-.2109-.0235-.2578-.0156-.0625-.0234-.125-.0234-.1875-.0156-.1562-.0312-.2656-.0469-.3281 0-.0625-.0078-.1328-.0234-.2109-.0469-.1875-.0703-.2891-.0703-.3047.0156-.0313.0234-.0625.0234-.0938-.0312-.2031-.0547-.3359-.0703-.3984s-.0078-.125.0234-.1875c-.0781-.1406-.1015-.2188-.0703-.2344.0313-.0312.0313-.0469 0-.0469 0-.1875 0-.3203 0-.3984.0157-.0938.0391-.1641.0703-.2109-.0156-.0782.0079-.125.0704-.1407.0781-.0156.1171-.0625.1171-.1406.0313-.0312.086-.0547.1641-.0703.0938-.0156.1563-.0313.1875-.0469.2031.0313.3594.0469.4688.0469.125-.0156.2812-.0234.4687-.0234.0625 0 .1172.0078.1641.0234h.164l.586-.0234c.125-.0157.1953-.0157.2109 0 .0156.0156.0313.0234.0469.0234.0469 0 .0937-.0078.1406-.0234.0625-.0157.1172-.0235.1641-.0235h.4218.8438c.1875.0156.2812.0156.2812 0 .0157-.0156.0469-.0156.0938 0 .1406.0625.2266.1094.2578.1406.1094.0938.1641.1485.1641.1641 0 0 .0156.0156.0468.0469.0625.2344.086.414.0704.539-.0157.1094-.0235.2188-.0235.3282-.0156.2031-.0234.4297-.0234.6797.0156.25.0078.4765-.0235.6797 0 .0312-.0078.0781-.0234.1406-.0156.0468-.0234.0859-.0234.1172v.3281c.0156.0781.0078.1562-.0235.2344-.0156.125-.0312.2343-.0468.3281v.1875c-.0157.1562-.0235.2344-.0235.2344.0156 0 .0156.0156 0 .0468-.0156.1563-.0312.2579-.0469.3047 0 .0313.0157.0625.0469.0938-.0312.125-.0469.2344-.0469.3281s.0079.1953.0235.3047c-.0156.1406-.0235.2187-.0235.2344.0157 0 .0235.0156.0235.0468v.3047.375c0 .125.0156.2578.0469.3985zm3.9609 3.1875c-.0938-.125-.1563-.1953-.1875-.211-.0156-.0312-.0313-.0625-.0469-.0937-.0781-.125-.125-.1875-.1406-.1875-.0156-.0157-.0313-.0313-.0469-.0469-.2187-.0781-.3359-.1172-.3515-.1172-.0782-.0312-.1563-.0547-.2344-.0703-.0781-.0313-.1797-.0391-.3047-.0234-.125.0625-.2266.0937-.3047.0937-.0625 0-.1094.0078-.1406.0234-.1563.1094-.2422.1641-.2578.1641-.1407.125-.2266.1953-.2578.2109-.0313.0157-.0547.0313-.0704.0469l-.3046.3047c-.1563.1094-.25.1797-.2813.211-.1406.1406-.2266.2265-.2578.2578-.0156.0312-.0313.0625-.0469.0937-.1406.1094-.2187.1719-.2344.1875l-.164.211c-.0625.0468-.125.1093-.1875.1874-.0156.0313-.0391.0704-.0703.1172-.0313.0469-.0547.086-.0703.1172-.0157.0782-.0235.1485-.0235.211.0156.0625.0235.125.0235.1875-.0469.1875-.0625.3203-.0469.3984s.0156.1563 0 .2344c.125.1093.1875.1797.1875.2109l.2344.1875.2578.1875c.1406.0781.2265.1328.2578.1641.1406.0312.2265.0625.2578.0937.1719.125.2734.1953.3047.211.0312 0 .0625.0078.0937.0234l.2578.1172c.1407.0781.2188.1172.2344.1172l.2813.0468c.1406.0313.2578.0469.3515.0469h.4688c.0937-.0156.164-.039.2109-.0703.0469-.0312.1016-.0469.1641-.0469.1562-.1406.25-.2109.2812-.2109l.1875-.2109c.0469-.0625.1016-.1563.1641-.2813.1094-.2031.1641-.3906.1641-.5625.0312-.0781.0625-.1797.0937-.3047.0625-.1562.0859-.2812.0703-.375-.0156-.0937-.0078-.1797.0235-.2578.0156-.2187.0156-.3437 0-.375 0-.0312-.0157-.0781-.0469-.1406-.0313-.1719-.0547-.2656-.0703-.2813-.0157-.0156-.0235-.0312-.0235-.0468l-.164-.3516c-.0313-.0469-.0547-.0859-.0703-.1172-.0157-.0469-.0313-.1015-.0469-.1641zm14.0156 8.5312c-.0781-.1875-.1328-.2969-.164-.3281-.0157-.0469-.0313-.1094-.0469-.1875l.0234-.3047c0-.0625-.0078-.1172-.0234-.1641-.0156-.0625-.0235-.1171-.0235-.164-.0312-.1719-.0625-.2891-.0937-.3516.0156-.0937.0234-.1562.0234-.1875 0-.0469-.0078-.0859-.0234-.1172l-.1406-.2344c-.125.1563-.1797.2344-.1641.2344-.125.0782-.1953.1328-.2109.1641-.0938.0937-.1485.1406-.1641.1406s-.0391.0156-.0703.0469c-.1094.1562-.1953.2656-.2578.3281-.125.1406-.1875.2109-.1875.2109-.0781.0938-.1485.1563-.211.1876-.0937.0937-.1484.1562-.164.1874-.0156.0157-.0469.0391-.0938.0704-.1093.125-.1953.2031-.2578.2343-.1406.1563-.2265.2344-.2578.2344-.0312.0313-.0703.0547-.1172.0703-.0469.0313-.0859.0625-.1172.0938-.0468.0156-.1328.0234-.2578.0234-.1562 0-.2656 0-.3281 0-.1875-.0625-.2969-.1094-.3281-.1406-.1407-.0313-.2344-.0547-.2813-.0703-.0469-.0157-.0937-.0235-.1406-.0235-.1406-.1093-.2109-.164-.2109-.164-.125-.0313-.1954-.0469-.211-.0469-.0156-.0156-.0312-.0234-.0469-.0234-.1562-.0625-.2578-.1016-.3046-.1172-.0313-.0313-.086-.0469-.1641-.0469-.0938-.0625-.1484-.1016-.1641-.1172 0-.0312-.0078-.0547-.0234-.0703-.0938-.0625-.1719-.1016-.2344-.1172-.0312-.0781-.0781-.125-.1406-.1406-.0625-.0313-.125-.0703-.1875-.1172-.1094-.1094-.1719-.1641-.1875-.1641 0-.0156-.0156-.039-.0469-.0703l-.2109-.2109-.1875-.211c-.125-.1718-.2188-.3046-.2813-.3984-.1562-.1875-.2343-.2969-.2343-.3281-.2032-.1875-.3125-.2891-.3282-.3047-.0781-.0781-.1328-.1562-.164-.2344-.0782-.1094-.1328-.1953-.1641-.2578-.0625-.0469-.1016-.1172-.1172-.2109 0-.0938 0-.1875 0-.2813-.0312-.125-.0703-.2422-.1172-.3515-.0468-.1094-.0625-.1875-.0468-.2344.0156-.0469.0156-.1094 0-.1875.0468-.0781.0781-.1484.0937-.211.0313-.0624.0859-.1093.1641-.1406.0625-.1562.1015-.2344.1172-.2344.0781-.1093.1328-.1874.164-.2343.0625-.1094.1016-.1719.1172-.1875.0313-.0313.0625-.0625.0938-.0938.0312-.0625.0937-.1406.1875-.2344.0625-.0468.1171-.1015.164-.164l.1875-.1875c.125-.1406.2422-.2656.3516-.375.125-.1406.1875-.2109.1875-.2109.0156 0 .0312-.0079.0469-.0235.1562-.125.2421-.2031.2578-.2344l.0937-.0937c.1406-.0938.2188-.1406.2344-.1406s.0391-.0078.0703-.0235c.1563-.0937.2422-.1484.2578-.164.125-.0782.1953-.1329.211-.1641.0312-.0312.0625-.0547.0937-.0703.1563-.0938.2656-.1563.3281-.1875.1407-.1094.211-.1641.211-.1641.0156 0 .0312-.0078.0468-.0234.1719-.0625.2735-.125.3047-.1875.1563-.0625.2813-.1172.375-.1641.0938-.0625.1953-.1093.3047-.1406.1719-.0781.2813-.1406.3281-.1875.1563-.125.2344-.2031.2344-.2344-.0625-.0468-.1328-.0625-.2109-.0468-.0625 0-.1406 0-.2344 0-.1406 0-.2422 0-.3047 0s-.125 0-.1875 0c-.0469 0-.1015.0078-.164.0234-.0469 0-.1016-.0078-.1641-.0234-.2031-.0313-.3359-.0391-.3984-.0235-.0469 0-.0938 0-.1407 0l-.3984.0235c-.0938-.0313-.1875-.0469-.2813-.0469-.0468.0156-.1015.0234-.164.0234-.0625-.0156-.1172-.0234-.1641-.0234-.0937 0-.1953.0156-.3047.0469-.1093.0156-.2265.0234-.3515.0234-.0469.0156-.1016.0234-.1641.0234-.0469-.0156-.1016-.0234-.1641-.0234-.2343 0-.4218 0-.5625 0-.125-.0156-.25-.0156-.375 0-.1875-.0156-.289-.0313-.3046-.0469-.0157-.0312-.0391-.0625-.0704-.0937-.0781-.1719-.1171-.2657-.1171-.2813.0156-.0312.0234-.0625.0234-.0937.0312-.1563.0469-.25.0469-.2813.0156-.0312.0234-.0625.0234-.0937.0313-.1563.0547-.2344.0703-.2344.0156-.0156.0313-.0391.0469-.0703.0312-.1875.0625-.3203.0937-.3985.0313-.0937.0625-.1796.0938-.2578.0156-.0468.0234-.0859.0234-.1172 0-.0468.0157-.0937.0469-.1406.0625-.1562.0938-.3359.0938-.539.0312-.2032.0703-.3594.1171-.4688.0469-.125.0782-.2344.0938-.3281.0469-.1563.0703-.2657.0703-.3281l.0938-.2813c.1406-.1563.2265-.2734.2578-.3516.0468-.0312.0859-.0547.1172-.0703.0468-.0312.0937-.0625.1406-.0937.125-.0469.2344-.0781.3281-.0938.0938 0 .1484-.0078.1641-.0234.0312-.0156.0625-.0313.0937-.0469.1719.0156.2813.0156.3281 0 .0625-.0156.1329 0 .211.0469.1094-.0313.1797-.0391.2109-.0235h.1406c.0938.0157.1954.0235.3047.0235h.3516.2578c.1875-.0313.2891-.0391.3047-.0235h.0937c.0313.0157.0938.0235.1875.0235.0938-.0156.1485-.0235.1641-.0235h.3047c.1406 0 .2734-.0078.3984-.0234.1094-.0156.1797-.0156.211 0 .0312.0156.0625.0234.0937.0234h.3047c.1719-.0156.2656-.0156.2813 0h.0703l.2578-.0234c.1094 0 .1797.0078.2109.0234.0469.0157.086.0235.1172.0235.1094-.0156.1719-.0156.1875 0 .0313.0156.0625.0234.0938.0234.3281 0 .5546.0313.6796.0938.25.0781.4063.125.4688.1406.125.0937.1875.1406.1875.1406.0156-.0156.0312-.0156.0469 0 .0937.0938.164.1485.2109.1641.0469 0 .0859.0156.1172.0469.0937.0937.1641.164.2109.2109.1407.1094.2266.1719.2578.1875.1094.125.1954.2187.2579.2813.0781.0624.1328.1093.164.1406.0313.0156.0625.039.0938.0703.1562.0937.2422.1641.2578.2109.0156.0469.0547.0782.1172.0938.0468.125.0703.2109.0703.2578.0156.0469.0547.0781.1172.0937.0156.0469.0312.0938.0468.1407.0157.0468.0391.1015.0704.164.0468.0782.0625.1406.0468.1875 0 .0313.0078.0625.0235.0938.0156.0781.0312.1406.0468.1875.0313.0312.0547.0625.0704.0937.0625.2344.1093.3985.1406.4922.0312.0781.0625.1563.0937.2344.0313.0625.0469.125.0469.1875.0156.0469.0391.1094.0703.1875.0938.25.1563.4453.1875.5859.0469.125.086.2656.1172.4219.0313.0937.0547.1953.0703.3047.0313.1094.0547.2031.0703.2812.0157.1719.0391.3047.0703.3985l.0704.4219c.0312.125.0546.2421.0703.3515.0312.1094.0468.2266.0468.3516.0625.2187.1172.3672.1641.4453.0156.1406.0313.2266.0469.2578.0312.0781.0469.1406.0469.1875 0 .0313.0078.0625.0234.0937.0625.2032.0859.3282.0703.375 0 .0469.0078.0938.0234.1407.0313.1093.0391.1797.0235.2109v.0469c.0156.0625.0312.1172.0469.1641.0312.0312.0468.0781.0468.1406-.0156.1094-.0156.1875 0 .2344.0313.0468.0547.0937.0703.1406 0 .0937.0079.1562.0235.1875.0156.0156.0312.0469.0469.0937l.0234.3985c.0312.0781.0469.1718.0469.2812 0 .0938.0078.1875.0234.2813.0313.1718.0547.3125.0703.4218.0156.1094.0391.211.0703.3047.0157.0625.0235.1172.0235.1641 0 .0312.0156.0625.0468.0937.0625.1407.0938.2344.0938.2813v.1172c0 .0937-.0078.1875-.0234.2812-.0157.0938-.0391.1797-.0704.2578-.0468.1719-.0703.2813-.0703.3282-.1406.1093-.2187.1718-.2343.1875-.0157 0-.0547.0078-.1172.0234s-.1719.0391-.3282.0703c-.2031.0313-.3203.0547-.3515.0703-.0313 0-.0625.0078-.0938.0235-.1562 0-.2343 0-.2343 0 0-.0157-.0079-.0235-.0235-.0235-.125.0157-.1953.0235-.2109.0235-.0156-.0157-.0391-.0235-.0703-.0235-.2188 0-.3516.0078-.3985.0235-.1093 0-.2031.0078-.2812.0234-.0781 0-.1563 0-.2344 0-.1562.0156-.2656.0391-.3281.0703-.1563.0313-.25.0469-.2813.0469-.1875.0312-.3281.039-.4218.0234-.0938 0-.1954.0078-.3047.0235-.1719.0156-.2657.0234-.2813.0234-.0781.0156-.1719.0078-.2812-.0234-.0938-.0313-.1875-.0625-.2813-.0938zm-.3984-3.3281c-.0156-.2188-.0313-.375-.0469-.4688-.0156-.1093-.0312-.1875-.0469-.2343-.0312-.1407-.0468-.2344-.0468-.2813.0156-.0469.0156-.0859 0-.1172-.0469-.2656-.0704-.4453-.0704-.539 0-.0938-.0156-.1875-.0468-.2813-.0313-.125-.0547-.2031-.0703-.2344-.0157-.0468-.0313-.0859-.0469-.1171-.1094-.0938-.1797-.1329-.211-.1172-.0312.0156-.0546.039-.0703.0703-.1406.0937-.2187.1484-.2343.164-.1407.0782-.2266.1329-.2579.1641-.0781.0625-.125.1016-.1406.1172s-.039.039-.0703.0703c-.1562.125-.2344.1875-.2344.1875 0-.0156-.0078-.0156-.0234 0-.1563.1094-.25.1875-.2813.2344-.0312.0312-.0703.0625-.1171.0937-.0313.0781-.0704.1407-.1172.1875-.0313.0469-.0625.0938-.0938.1406.0313.0626.0469.1172.0469.1641 0 .0313-.0156.0859-.0469.1641.1094.125.1875.1875.2344.1875.0781.0469.1328.0703.1641.0703.0312 0 .0625.0078.0937.0234.0938.0625.1484.1094.1641.1406.0156.0157.0312.0235.0468.0235.1407.0625.2266.0937.2579.0937.0468 0 .1015.0078.164.0235.1094.0312.1875.0547.2344.0703.0625 0 .1094.0078.1406.0234.1719.0938.3125.1563.4219.1875.125.0157.2266.0078.3047-.0234zm12.4453-14.8594c.0312.0313.0469.0703.0469.1172 0 .0312.0078.0781.0234.1406.0313.1875.0313.3438 0 .4688v.2812c-.0156.2344-.0312.4141-.0469.5391-.0156.125-.0156.2344 0 .3281.0157.0781.0157.1484 0 .211-.0156.0468-.0234.0937-.0234.1406v.1406c.0156.0469.0234.0859.0234.1172 0 .0781-.0078.1562-.0234.2344-.0156.0625-.0234.1328-.0234.2109-.0313.3437-.0313.6797 0 1.0078-.0782.0938-.1016.1875-.0704.2813.0313.0312.0704.039.1172.0234.0625-.0156.1094-.0234.1407-.0234.0781 0 .1328-.0078.164-.0235.0313-.0156.0703-.0234.1172-.0234.1719-.0313.3281-.0313.4688 0 .1562.0156.2968 0 .4218-.0469.0782.0313.1563.0547.2344.0703.0781 0 .1406.0391.1875.1172.1094.1719.1641.3047.1641.3985.0937.1562.1328.2421.1172.2578-.0157.0156-.0235.039-.0235.0703.0313.1093.0391.1875.0235.2343v.1641c-.0157.125-.0313.2031-.0469.2344v.0703c-.0156.0781-.0235.1641-.0235.2578.0157.0781.0079.1484-.0234.211.0313.125.0469.2265.0469.3046-.0469.3125-.0625.5625-.0469.75.0313.1875.0313.3594 0 .5157-.0156.0625-.0312.125-.0469.1875 0 .0468.0078.1093.0235.1875-.0625.1093-.0938.1797-.0938.2109.0156.0156.0078.0312-.0234.0469 0 .0625-.0235.1093-.0703.1406-.0313.0313-.0391.0781-.0235.1406-.0625.0157-.1093.0391-.1406.0703-.0312.0157-.0781.0078-.1406-.0234-.1563.0469-.3438.0547-.5625.0234h-.586c-.2187-.0625-.3593-.0859-.4218-.0703-.0625.0157-.1328.0235-.211.0235-.0312.0625-.0468.125-.0468.1875.0156.0625.0234.1328.0234.2109v.4219c0 .1406-.0078.2734-.0234.3984 0 .1094-.0079.2422-.0235.3985v.375c.0156.0468.0235.0937.0235.1406.0156.1562.0078.3125-.0235.4687-.0156.1407.0078.2891.0703.4453.0157.1875.0157.3047 0 .3516-.0156.0312-.0234.0625-.0234.0938.0156.2031.0312.3359.0469.3984.0156.0469.0312.0937.0468.1406v.2344c.0157.0156.0235.039.0235.0703.0156.0469.0312.0937.0469.1406.0156.0469.0234.0938.0234.1407.1094.0468.1719.0859.1875.1171.0312.0313.0547.0625.0703.0938.2188.0625.3594.1328.4219.2109.0781 0 .1406.0078.1875.0235.0469.0156.1172.039.2109.0703.125.0156.2735.0156.4453 0 .0782-.0156.1797-.0235.3047-.0235l.3047-.0468c.125-.0157.1953-.0313.2109-.0469.0157-.0156.0391-.0234.0704-.0234.1718-.0157.2812-.0391.3281-.0704.0625-.0312.125-.0546.1875-.0703h.1875c.0156-.0156.039-.0234.0703-.0234.1719.0937.2656.1406.2812.1406.0313 0 .0469.0156.0469.0469.0313.0781.0391.1328.0235.164-.0157.0313-.0391.0704-.0704.1172v.3047c0 .0625-.0156.1328-.0468.211-.0313.0937-.0703.1875-.1172.2812-.0156.0313-.0313.0703-.0469.1172 0 .0469-.0078.0937-.0234.1406-.0782.1719-.125.3047-.1407.3985-.0156.0781-.039.164-.0703.2578-.0312.0781-.0547.1484-.0703.2109s-.0469.125-.0937.1875c-.0625.2188-.1016.375-.1172.4688-.0469.1406-.0703.2187-.0703.2343.0156 0 .0156.0079 0 .0235-.0469.1718-.0782.289-.0938.3515 0 .0625-.0156.1329-.0469.211l-.0937.3281c-.0938.1719-.1484.2656-.1641.2812-.1406.125-.2187.1876-.2343.1876-.0157.0156-.0391.039-.0704.0703-.1093.0156-.1875.0312-.2343.0468-.0469.0157-.086.0391-.1172.0703-.1406 0-.2422.0313-.3047.0938-.0938-.0156-.1875-.0234-.2813-.0234-.0937.0156-.2187.0234-.375.0234-.125 0-.1953 0-.2109 0-.0156.0156-.0312.0234-.0469.0234-.1093-.0312-.2187-.0468-.3281-.0468-.125-.0157-.2109-.0235-.2578-.0235-.1719 0-.2891-.0156-.3516-.0469-.0781-.0156-.1875-.0312-.3281-.0468-.125 0-.2266-.0078-.3047-.0235-.0937-.0156-.1953-.0312-.3047-.0468-.0937 0-.1953-.0079-.3047-.0235-.1562-.0781-.2421-.125-.2578-.1406 0 0-.0078 0-.0234 0-.125-.0625-.2188-.1094-.2813-.1406-.1875-.0313-.289-.0547-.3046-.0703 0-.0157-.0157-.0313-.0469-.0469-.25-.1094-.3906-.2188-.4219-.3281-.1562-.0625-.2344-.1016-.2344-.1172 0-.0157-.0156-.0313-.0468-.0469-.125-.1094-.1875-.1797-.1875-.2109-.1094-.125-.1797-.1953-.211-.211-.0312-.0312-.0547-.0781-.0703-.1406-.125-.1719-.1953-.2656-.2109-.2813 0-.0156-.0157-.039-.0469-.0703-.0313-.0312-.0547-.0703-.0703-.1171-.0156-.0626-.0391-.1172-.0703-.1641-.0938-.2344-.1563-.3985-.1875-.4922-.0157-.1094-.0391-.2031-.0703-.2813-.0157-.0781-.0313-.1406-.0469-.1874 0-.0626-.0078-.1329-.0235-.211-.0156-.0625-.0312-.1328-.0468-.2109 0-.0781-.0157-.1641-.0469-.2578l-.0234-.2579c-.0625-.1406-.0938-.2265-.0938-.2578.0156-.0312.0234-.0625.0234-.0937-.0312-.1094-.0312-.2266 0-.3516-.0468-.0781-.0625-.1562-.0468-.2343.0312-.0938.0547-.1797.0703-.2579 0-.0781-.0078-.1406-.0235-.1875 0-.0625 0-.125 0-.1875 0-.0781.0079-.1484.0235-.2109s.0234-.1328.0234-.2109c.0156-.0782.0156-.1485 0-.211 0-.0781 0-.1562 0-.2343v-.7266c.0156-.125.0235-.211.0235-.2578v-.3985c0-.0625 0-.1171 0-.164.0156-.0625.0234-.125.0234-.1875-.0156-.1406-.0234-.2344-.0234-.2813.0156-.0625.0234-.125.0234-.1875v-.3281c-.0313-.2187-.0469-.3672-.0469-.4453 0-.0938-.0078-.1875-.0234-.2813-.125.0313-.2656.0625-.4219.0938-.1562.0312-.3203.0547-.4922.0703-.0781 0-.1484 0-.2109 0-.0469-.0156-.086-.0234-.1172-.0234-.0938 0-.1719-.0078-.2344-.0235-.0469-.0156-.0937-.0312-.1406-.0469-.1406-.0937-.2422-.1562-.3047-.1874-.0312-.0782-.0703-.1329-.1172-.1641-.0469-.0469-.0859-.1094-.1172-.1875-.0312-.0781-.039-.1563-.0234-.2344.0312-.0937.0469-.1953.0469-.3047 0-.0781 0-.1484 0-.2109s-.0078-.1328-.0235-.211c.0157-.0624.0235-.125.0235-.1874 0-.0782-.0078-.1329-.0235-.1641-.0468-.1563-.0625-.2422-.0468-.2578 0-.0157 0-.0469 0-.0938-.0157-.125-.0235-.2109-.0235-.2578s0-.0859 0-.1172c-.0156-.125-.0234-.2422-.0234-.3515-.0156-.125-.0235-.2422-.0235-.3516-.0156-.1562-.0156-.2422 0-.2578.0157-.0156.0235-.0391.0235-.0703-.0156-.1563-.0156-.25 0-.2813 0-.0312-.0078-.0859-.0235-.164.0313-.1407.0547-.211.0704-.211.0156 0 .0312-.0156.0468-.0468l.3047-.3282c.0781.0313.1563.0313.2344 0 .0937-.0312.1875-.0468.2812-.0468l.3047.0234c.1719 0 .3203.0312.4453.0937.1875 0 .2969.0079.3282.0235.0312.0156.0625.0234.0937.0234.0313.0156.0703.0156.1172 0s.1016-.0156.1641 0c.0156-.0781.0078-.164-.0235-.2578-.0156-.125-.0234-.2656-.0234-.4219.0156-.1719.0156-.3125 0-.4219v-.375c0-.1718 0-.2656 0-.2812.0156-.0312.0156-.0625 0-.0938-.0313-.1562-.0469-.2421-.0469-.2578.0156-.1093.0078-.2109-.0234-.3046.0156-.0626.0078-.1172-.0235-.1641-.0156-.0469-.0312-.1016-.0468-.1641-.0157-.0625-.0235-.1172-.0235-.164.0157-.0625.0157-.125 0-.1875-.0156-.0625-.0312-.1094-.0468-.1407-.0157-.0468-.0235-.0937-.0235-.1406 0-.0312-.0078-.0859-.0234-.164-.0156-.0782-.0235-.125-.0235-.1407.0157-.125.0157-.2031 0-.2343 0-.0313.0079-.0626.0235-.0938.0156-.0625.0547-.1172.1172-.1641.0625-.0468.1093-.1015.1406-.164.1094.0312.2422.0469.3984.0469.1563-.0157.2813-.0313.375-.0469.0313-.0157.0703-.0157.1172 0h.1406c.0782.0156.1485.0234.211.0234.0781-.0156.1484-.0234.2109-.0234.0469.0156.0938.0312.1406.0469.0469.0156.1016.0312.1641.0468.1563-.0156.2656-.0234.3281-.0234.1094.0156.1719.0234.1875.0234.0157-.0156.0391-.0156.0703 0h.1875c.0313-.0156.0625-.0156.0938 0 .1406.0156.2422.0235.3047.0235.0781 0 .1406-.0079.1875-.0235h.2344c.1093 0 .1796-.0156.2109-.0468.125.0156.1953.0312.2109.0468.0313 0 .0625-.0156.0938-.0468.0312.0312.0703.0468.1172.0468.0468-.0156.1015-.0234.164-.0234.0313 0 .0703.0078.1172.0234h.1406c.0782.0156.1407.0235.1875.0235.0625-.0157.1094.0078.1407.0703zm12.8906 14.2031c.0313.0469.0703.0625.1172.0469s.0938-.0312.1406-.0469c.2188-.0468.3594-.0703.4219-.0703.0625-.0156.1328-.0312.2109-.0468.125-.0313.25-.0704.375-.1172.1407-.0625.2813-.1094.4219-.1407.0313-.0156.0703-.0234.1172-.0234.0625-.0156.1094-.0313.1406-.0469.0938-.0625.1641-.1015.211-.1172.0625-.0312.1093-.0625.1406-.0937.1562-.125.2578-.1953.3047-.2109.0469-.0157.0859-.0391.1172-.0704.2187-.0625.3437-.0859.375-.0703.125.0313.1875.1328.1875.3047-.0157.2188-.0235.3594-.0235.4219.0157.0469.0235.1094.0235.1875.0156.125.0234.2422.0234.3516v.3281.1406c.0156.0469.0234.0859.0234.1172 0 .0781-.0156.1641-.0468.2578-.0157.0937-.0235.1797-.0235.2578.0157.25.0157.4844 0 .7031-.0468.2032-.0625.336-.0468.3985.0156.0625.0234.1172.0234.164-.0156.1094-.0313.2032-.0469.2813-.1562.1562-.2734.2422-.3515.2578-.0782 0-.1329.0391-.1641.1172-.0938.0156-.1563.0312-.1875.0469-.0156.0156-.0391.0312-.0703.0468-.1094.0938-.1953.1407-.2578.1407-.0469 0-.0938.0078-.1407.0234l-.2812.1172c-.1719.0625-.2891.0937-.3516.0937s-.125.0313-.1875.0938c-.0625 0-.125.0156-.1875.0469-.0468.0156-.1093.0312-.1875.0468-.1562.0313-.2656.0547-.3281.0704-.1094.0468-.1875.0703-.2344.0703-.0468 0-.1015.0078-.164.0234-.0782.0156-.1641.0234-.2578.0234-.0782.0157-.1641.0313-.2579.0469-.2343.0469-.3984.0625-.4921.0469-.0938 0-.1875.0156-.2813.0469-.125 0-.2266.0078-.3047.0234s-.1562.0234-.2344.0234c-.0937 0-.1875-.0078-.2812-.0234-.0781-.0156-.1641-.0312-.2578-.0469-.0625.0313-.1406.0391-.2344.0235-.0781-.0157-.1797-.0391-.3047-.0704-.125-.0156-.2109-.0312-.2578-.0468-.1875 0-.3125-.0078-.375-.0235-.0469-.0156-.1016-.0312-.1641-.0468-.0625-.0157-.1171-.0235-.164-.0235s-.1016-.0078-.1641-.0234c-.1094-.0156-.1875-.0313-.2344-.0469-.0468-.0156-.0937-.0312-.1406-.0469-.1875-.0468-.2969-.0781-.3281-.0937l-.2109-.1641c-.125-.0312-.25-.0781-.375-.1406-.0469-.0312-.0938-.0547-.1407-.0703-.0312-.0156-.0703-.0469-.1172-.0938-.0312-.0468-.0781-.0781-.1406-.0937-.0469-.0156-.0937-.0391-.1406-.0703-.1719-.1094-.2656-.1719-.2813-.1875 0-.0156-.0078-.0313-.0234-.0469-.1094-.0469-.1719-.0781-.1875-.0937 0-.0157-.0156-.0313-.0469-.0469l-.2343-.1407c-.0938-.0937-.1797-.1562-.2579-.1874-.0312-.0782-.0781-.1329-.1406-.1641-.0469-.0469-.0859-.1094-.1172-.1875-.1093-.0938-.1875-.1563-.2343-.1875-.0469-.0313-.086-.0781-.1172-.1406-.0469-.0313-.086-.0625-.1172-.0938-.0156-.0469-.0391-.0859-.0703-.1172-.0625-.0469-.1016-.1328-.1172-.2578-.0938-.0937-.1406-.1562-.1406-.1875 0-.0312-.0079-.0625-.0235-.0937-.0937-.125-.1562-.2032-.1875-.2344-.0937-.1094-.1406-.1719-.1406-.1875s-.0078-.0391-.0234-.0703c-.1094-.2188-.1875-.3516-.2344-.3985 0-.0781-.0078-.1328-.0235-.164-.0156-.0313-.0234-.0703-.0234-.1172-.0781-.1563-.1172-.25-.1172-.2813 0-.0468 0-.0859 0-.1171-.0469-.1563-.0781-.2344-.0937-.2344 0 0 0-.0078 0-.0235-.0782-.2343-.125-.3828-.1407-.4453-.0156-.0781-.039-.1484-.0703-.2109-.0312-.1563-.0547-.2578-.0703-.3047 0-.0469-.0078-.1094-.0234-.1875 0-.0937-.0078-.1875-.0235-.2813-.0156-.1093-.0234-.1718-.0234-.1874 0-.0313 0-.0782 0-.1407.0156-.0781.0156-.1406 0-.1875-.0156-.0468-.0391-.0859-.0703-.1172-.0313-.0468-.0469-.0937-.0469-.1406.0781-.2344.1172-.3828.1172-.4453 0-.0781 0-.1719 0-.2813.0313-.1406.0391-.25.0234-.3281-.0156-.0781-.0156-.1562 0-.2343 0-.0469 0-.0938 0-.1407 0-.0625.0157-.1093.0469-.1406-.0312-.0625-.039-.1094-.0234-.1406.0312-.0469.0547-.0938.0703-.1407 0-.1718 0-.2578 0-.2578.0156-.0156.0234-.039.0234-.0703.0313-.1406.0547-.2578.0703-.3515.0313-.1094.0625-.2032.0938-.2813.0469-.125.0703-.1953.0703-.2109 0-.0313.0078-.0625.0234-.0938.0625-.0937.1016-.1562.1172-.1875.0157-.0312.0313-.0625.0469-.0937.0625-.2344.1328-.4141.2109-.5391.0782-.125.1329-.2187.1641-.2812.0313-.0625.0625-.1094.0938-.1407 0-.0625.0156-.1093.0468-.1406.0469-.0312.086-.0625.1172-.0937.0781-.1407.1328-.2188.1641-.2344.0781-.1406.1172-.2188.1172-.2344.1406-.1562.2265-.2422.2578-.2578.0312-.0156.0625-.0391.0937-.0703.1094-.125.1563-.1953.1407-.211 0-.0312.0078-.0468.0234-.0468.0469-.0156.0781-.0391.0937-.0703.0313-.0469.0625-.086.0938-.1172.1406-.125.2187-.1953.2344-.211.0156-.0156.039-.0312.0703-.0468.0625-.1094.1015-.1641.1172-.1641.0312 0 .0468-.0156.0468-.0469.1563-.1093.2422-.1719.2579-.1875.0312-.0156.0625-.039.0937-.0703.125-.0937.1953-.1406.2109-.1406.0313-.0156.0547-.0313.0704-.0469.1562-.0937.2421-.1562.2578-.1875.1406-.1094.2187-.1641.2343-.1641.0313-.0156.0469-.039.0469-.0703.1875-.0937.2969-.1406.3281-.1406.0313 0 .0625-.0078.0938-.0234.2344-.0938.3828-.1563.4453-.1875.0313-.0156.0625-.0235.0938-.0235.0468-.0156.1093-.0312.1875-.0468.0312-.0157.0625-.0313.0937-.0469.0469-.0156.1016-.0313.1641-.0469.1562-.0469.2343-.0703.2343-.0703 0-.0156.0157-.0234.0469-.0234.1094-.0313.1797-.0547.211-.0704.0312-.0156.0859-.0234.164-.0234.2031-.0156.3906-.0156.5625 0 .1563.0156.2656.0156.3281 0s.1329-.0234.211-.0234c.0625 0 .1562.0156.2812.0468h.2578c.1563.0469.2344.0704.2344.0704 0-.0157.0156-.0235.0469-.0235.125.0313.1953.0469.2109.0469.0313-.0156.0625-.0156.0938 0 .0625 0 .1172.0156.164.0469.0625.0312.1329.0312.211 0 .1719.0781.2812.125.3281.1406.0625.0156.1328.0313.2109.0469.1563.0625.2657.1094.3282.1406.0781.0156.1484.0469.2109.0938.0938-.0313.1797.0078.2578.1171.1563.0938.2422.1407.2578.1407.0157 0 .0313.0078.0469.0234.0781.0781.1406.1328.1875.1641.0469.0312.0859.0703.1172.1171.0781.1094.125.1719.1406.1876.0156 0 .0313.0078.0469.0234.0469.0469.0937.0937.1406.1406.0625.0469.1094.1016.1406.1641.125.125.1875.1875.1875.1875.0625.0625.1094.1172.1407.164.0468.0313.0859.0704.1172.1172.125.125.1875.2032.1875.2344 0 .0156.0078.0391.0234.0703.125.2031.1953.3125.2109.3281.0625.1094.1172.1875.1641.2344.0312.0469.0547.0938.0703.1406.0156.0469.0391.0938.0703.1407-.0156.0468-.0156.0937 0 .1406.0313.0469.0625.0859.0938.1172.0312.0625.0547.1484.0703.2578.0156.0937.039.1797.0703.2578.0312.0469.0547.0937.0703.1406.0156.0313.0391.0781.0703.1407.0313.1874.0469.2812.0469.2812 0 .0469.0078.0938.0234.1406.0157.0313.0313.0703.0469.1172.0156.1406.0156.211 0 .211 0 0 .0078.0156.0234.0468l.0704.2578c.0312.125.0468.2344.0468.3282 0 .0468.0078.0937.0235.1406.0156.0312.0234.0703.0234.1172-.0312.1875-.0469.3125-.0469.375.0157.0468.0157.0859 0 .1172-.1406.1406-.2265.2265-.2578.2578-.0156.0312-.039.0547-.0703.0703-.125.0625-.1953.1015-.2109.1172 0 .0156-.0078.0312-.0235.0469-.1718.0781-.2812.1171-.3281.1171-.0312 0-.0625.0157-.0937.0469-.125.0469-.211.086-.2579.1172-.0312.0312-.0625.0625-.0937.0938-.1563.0468-.2344.0859-.2344.1171-.0937.0469-.1719.086-.2344.1172-.0625.0157-.1171.0391-.164.0703-.1719.0938-.3203.1719-.4453.2344-.1563.0938-.2657.1484-.3282.1641-.0625.0156-.1093.039-.1406.0703-.125.0625-.2031.1016-.2344.1172-.0312.0156-.0625.039-.0937.0703-.1563.1094-.2578.1719-.3047.1875-.0312.0156-.0625.0469-.0937.0937-.0313-.0156-.0782-.0078-.1407.0235-.0625.0312-.1172.0625-.164.0937-.1875.0781-.3125.125-.375.1407-.0469 0-.086.0234-.1172.0703-.0469 0-.0938.0156-.1406.0468-.0313.0157-.0704.0313-.1172.0469-.0469.0156-.1016.0234-.1641.0234-.0469-.0156-.0937-.0078-.1406.0235-.1406.0937-.2266.1406-.2578.1406-.0313.0313-.0782.0547-.1407.0703-.0468.0156-.0937.0313-.1406.0469-.1406.0781-.2422.1172-.3047.1172-.0468 0-.0859.0156-.1172.0469-.1406.0625-.2187.1015-.2343.1172-.125.0781-.211.1171-.2578.1171-.0469 0-.0938.0157-.1407.0469-.25.0938-.3828.1641-.3984.211 0 .2031.0156.3124.0469.3281.1093.0937.1797.1484.2109.164.0469.0157.0938.0391.1406.0703.0313.0469.0625.0704.0938.0704.0469 0 .0937.0156.1406.0468.0313.0157.0625.0391.0938.0704.0468.0156.0937.0312.1406.0468.0625.0469.1484.0703.2578.0703.0781.0157.1406.0313.1875.0469.0469 0 .1016.0078.1641.0234.125.0313.2187.0469.2812.0469.1875-.0156.3125-.0156.375 0 .0781.0157.1406.0235.1875.0235.0781 0 .1563-.0078.2344-.0235.0781-.0312.1562-.0469.2344-.0469.1875.0157.3046.0157.3515 0 .0625-.0156.125-.0234.1875-.0234zm-.9375-5.9531c-.0312-.0625-.0547-.1172-.0703-.164 0-.0469-.0234-.0782-.0703-.0938-.0781-.1562-.125-.2422-.1406-.2578 0-.0156-.0157-.0313-.0469-.0469-.1406-.125-.2266-.2031-.2578-.2344-.1563-.125-.25-.1953-.2813-.2109-.2187-.1094-.3672-.1641-.4453-.1641-.0625 0-.1484 0-.2578 0-.1719.0782-.2656.1172-.2812.1172-.0157 0-.0313.0078-.0469.0235-.1719.0937-.2735.1484-.3047.164-.0313 0-.0469.0235-.0469.0703-.125.0625-.1953.1016-.2109.1172-.0156 0-.0313 0-.0469 0-.0937.125-.1562.211-.1875.2578-.0156.0313-.0312.0625-.0469.0938-.125.1562-.1953.25-.2109.2812-.0156.0313-.0313.0625-.0469.0938-.0469.2031-.1015.3203-.164.3515-.0469.0313-.0782.086-.0938.1641-.0937.125-.1406.2031-.1406.2344.0156.0156.0156.0312 0 .0469-.0469.1562-.086.2343-.1172.2343-.0625.25-.0938.3907-.0938.4219.0313.125.0313.2031 0 .2344-.0156.0312-.0078.0547.0235.0703.2031-.0937.3437-.1328.4219-.1172.1562-.0781.2578-.125.3046-.1406.0469-.0156.086-.0391.1172-.0703.1719-.0938.2657-.1485.2813-.1641.125-.0469.2109-.0781.2578-.0937.0469-.0157.0859-.0313.1172-.0469.1875-.0781.3047-.125.3515-.1406.0625-.0313.1094-.0625.1407-.0938.125-.0781.2109-.1172.2578-.1172.0469-.0156.0937-.039.1406-.0703.0938-.0469.1484-.0703.1641-.0703.0312-.0156.0625-.0313.0937-.0469.0625-.0312.1172-.0468.1641-.0468.0469-.0157.0859-.0391.1172-.0704.1718-.0781.2578-.125.2578-.1406.0156-.0312.0312-.0469.0469-.0469.0937-.1093.1796-.164.2578-.164.0781-.0157.1328-.0547.164-.1172zm13.6875 9.9375c-.0781-.1875-.1328-.2969-.164-.3281-.0157-.0469-.0313-.1094-.0469-.1875l.0234-.3047c0-.0625-.0078-.1172-.0234-.1641-.0156-.0625-.0235-.1171-.0235-.164-.0312-.1719-.0625-.2891-.0937-.3516.0156-.0937.0234-.1562.0234-.1875 0-.0469-.0078-.0859-.0234-.1172l-.1406-.2344c-.125.1563-.1797.2344-.1641.2344-.125.0782-.1953.1328-.2109.1641-.0938.0937-.1485.1406-.1641.1406s-.0391.0156-.0703.0469c-.1094.1562-.1953.2656-.2578.3281-.125.1406-.1875.2109-.1875.2109-.0781.0938-.1485.1563-.211.1876-.0937.0937-.1484.1562-.164.1874-.0156.0157-.0469.0391-.0938.0704-.1093.125-.1953.2031-.2578.2343-.1406.1563-.2265.2344-.2578.2344-.0312.0313-.0703.0547-.1172.0703-.0469.0313-.0859.0625-.1172.0938-.0468.0156-.1328.0234-.2578.0234-.1562 0-.2656 0-.3281 0-.1875-.0625-.2969-.1094-.3281-.1406-.1407-.0313-.2344-.0547-.2813-.0703-.0469-.0157-.0937-.0235-.1406-.0235-.1406-.1093-.2109-.164-.2109-.164-.125-.0313-.1954-.0469-.211-.0469-.0156-.0156-.0312-.0234-.0469-.0234-.1562-.0625-.2578-.1016-.3046-.1172-.0313-.0313-.086-.0469-.1641-.0469-.0938-.0625-.1484-.1016-.1641-.1172 0-.0312-.0078-.0547-.0234-.0703-.0938-.0625-.1719-.1016-.2344-.1172-.0312-.0781-.0781-.125-.1406-.1406-.0625-.0313-.125-.0703-.1875-.1172-.1094-.1094-.1719-.1641-.1875-.1641 0-.0156-.0156-.039-.0469-.0703l-.2109-.2109-.1875-.211c-.125-.1718-.2188-.3046-.2813-.3984-.1562-.1875-.2343-.2969-.2343-.3281-.2032-.1875-.3125-.2891-.3282-.3047-.0781-.0781-.1328-.1562-.164-.2344-.0782-.1094-.1328-.1953-.1641-.2578-.0625-.0469-.1016-.1172-.1172-.2109 0-.0938 0-.1875 0-.2813-.0312-.125-.0703-.2422-.1172-.3515-.0468-.1094-.0625-.1875-.0468-.2344.0156-.0469.0156-.1094 0-.1875.0468-.0781.0781-.1484.0937-.211.0313-.0624.0859-.1093.1641-.1406.0625-.1562.1015-.2344.1172-.2344.0781-.1093.1328-.1874.164-.2343.0625-.1094.1016-.1719.1172-.1875.0313-.0313.0625-.0625.0938-.0938.0312-.0625.0937-.1406.1875-.2344.0625-.0468.1171-.1015.164-.164l.1875-.1875c.125-.1406.2422-.2656.3516-.375.125-.1406.1875-.2109.1875-.2109.0156 0 .0312-.0079.0469-.0235.1562-.125.2421-.2031.2578-.2344l.0937-.0937c.1406-.0938.2188-.1406.2344-.1406s.0391-.0078.0703-.0235c.1563-.0937.2422-.1484.2578-.164.125-.0782.1953-.1329.211-.1641.0312-.0312.0625-.0547.0937-.0703.1563-.0938.2656-.1563.3281-.1875.1407-.1094.211-.1641.211-.1641.0156 0 .0312-.0078.0468-.0234.1719-.0625.2735-.125.3047-.1875.1563-.0625.2813-.1172.375-.1641.0938-.0625.1953-.1093.3047-.1406.1719-.0781.2813-.1406.3281-.1875.1563-.125.2344-.2031.2344-.2344-.0625-.0468-.1328-.0625-.2109-.0468-.0625 0-.1406 0-.2344 0-.1406 0-.2422 0-.3047 0s-.125 0-.1875 0c-.0469 0-.1015.0078-.164.0234-.0469 0-.1016-.0078-.1641-.0234-.2031-.0313-.3359-.0391-.3984-.0235-.0469 0-.0938 0-.1407 0l-.3984.0235c-.0938-.0313-.1875-.0469-.2813-.0469-.0468.0156-.1015.0234-.164.0234-.0625-.0156-.1172-.0234-.1641-.0234-.0937 0-.1953.0156-.3047.0469-.1093.0156-.2265.0234-.3515.0234-.0469.0156-.1016.0234-.1641.0234-.0469-.0156-.1016-.0234-.1641-.0234-.2343 0-.4218 0-.5625 0-.125-.0156-.25-.0156-.375 0-.1875-.0156-.289-.0313-.3046-.0469-.0157-.0312-.0391-.0625-.0704-.0937-.0781-.1719-.1171-.2657-.1171-.2813.0156-.0312.0234-.0625.0234-.0937.0312-.1563.0469-.25.0469-.2813.0156-.0312.0234-.0625.0234-.0937.0313-.1563.0547-.2344.0703-.2344.0156-.0156.0313-.0391.0469-.0703.0312-.1875.0625-.3203.0937-.3985.0313-.0937.0625-.1796.0938-.2578.0156-.0468.0234-.0859.0234-.1172 0-.0468.0157-.0937.0469-.1406.0625-.1562.0938-.3359.0938-.539.0312-.2032.0703-.3594.1171-.4688.0469-.125.0782-.2344.0938-.3281.0469-.1563.0703-.2657.0703-.3281l.0938-.2813c.1406-.1563.2265-.2734.2578-.3516.0468-.0312.0859-.0547.1172-.0703.0468-.0312.0937-.0625.1406-.0937.125-.0469.2344-.0781.3281-.0938.0938 0 .1484-.0078.1641-.0234.0312-.0156.0625-.0313.0937-.0469.1719.0156.2813.0156.3281 0 .0625-.0156.1329 0 .211.0469.1094-.0313.1797-.0391.2109-.0235h.1406c.0938.0157.1954.0235.3047.0235h.3516.2578c.1875-.0313.2891-.0391.3047-.0235h.0937c.0313.0157.0938.0235.1875.0235.0938-.0156.1485-.0235.1641-.0235h.3047c.1406 0 .2734-.0078.3984-.0234.1094-.0156.1797-.0156.211 0 .0312.0156.0625.0234.0937.0234h.3047c.1719-.0156.2656-.0156.2813 0h.0703l.2578-.0234c.1094 0 .1797.0078.2109.0234.0469.0157.086.0235.1172.0235.1094-.0156.1719-.0156.1875 0 .0313.0156.0625.0234.0938.0234.3281 0 .5546.0313.6796.0938.25.0781.4063.125.4688.1406.125.0937.1875.1406.1875.1406.0156-.0156.0312-.0156.0469 0 .0937.0938.164.1485.2109.1641.0469 0 .0859.0156.1172.0469.0937.0937.1641.164.2109.2109.1407.1094.2266.1719.2578.1875.1094.125.1954.2187.2579.2813.0781.0624.1328.1093.164.1406.0313.0156.0625.039.0938.0703.1562.0937.2422.1641.2578.2109.0156.0469.0547.0782.1172.0938.0468.125.0703.2109.0703.2578.0156.0469.0547.0781.1172.0937.0156.0469.0312.0938.0468.1407.0157.0468.0391.1015.0704.164.0468.0782.0625.1406.0468.1875 0 .0313.0078.0625.0235.0938.0156.0781.0312.1406.0468.1875.0313.0312.0547.0625.0704.0937.0625.2344.1093.3985.1406.4922.0312.0781.0625.1563.0937.2344.0313.0625.0469.125.0469.1875.0156.0469.0391.1094.0703.1875.0938.25.1563.4453.1875.5859.0469.125.086.2656.1172.4219.0313.0937.0547.1953.0703.3047.0313.1094.0547.2031.0703.2812.0157.1719.0391.3047.0703.3985l.0704.4219c.0312.125.0546.2421.0703.3515.0312.1094.0468.2266.0468.3516.0625.2187.1172.3672.1641.4453.0156.1406.0313.2266.0469.2578.0312.0781.0469.1406.0469.1875 0 .0313.0078.0625.023.0937.063.2032.086.3282.071.375 0 .0469.008.0938.023.1407.031.1093.039.1797.024.2109v.0469c.015.0625.031.1172.046.1641.032.0312.047.0781.047.1406-.015.1094-.015.1875 0 .2344.032.0468.055.0937.071.1406 0 .0937.007.1562.023.1875.016.0156.031.0469.047.0937l.023.3985c.032.0781.047.1718.047.2812 0 .0938.008.1875.024.2813.031.1718.054.3125.07.4218.016.1094.039.211.07.3047.016.0625.024.1172.024.1641 0 .0312.015.0625.047.0937.062.1407.093.2344.093.2813v.1172c0 .0937-.007.1875-.023.2812-.016.0938-.039.1797-.07.2578-.047.1719-.071.2813-.071.3282-.14.1093-.218.1718-.234.1875-.016 0-.055.0078-.117.0234-.063.0156-.172.0391-.3284.0703-.2031.0313-.3203.0547-.3515.0703-.0313 0-.0625.0078-.0938.0235-.1562 0-.2343 0-.2343 0 0-.0157-.0079-.0235-.0235-.0235-.125.0157-.1953.0235-.2109.0235-.0156-.0157-.0391-.0235-.0703-.0235-.2188 0-.3516.0078-.3985.0235-.1093 0-.2031.0078-.2812.0234-.0781 0-.1563 0-.2344 0-.1562.0156-.2656.0391-.3281.0703-.1563.0313-.25.0469-.2813.0469-.1875.0312-.3281.039-.4218.0234-.0938 0-.1954.0078-.3047.0235-.1719.0156-.2657.0234-.2813.0234-.0781.0156-.1719.0078-.2812-.0234-.0938-.0313-.1875-.0625-.2813-.0938zm-.3984-3.3281c-.0156-.2188-.0313-.375-.0469-.4688-.0156-.1093-.0312-.1875-.0469-.2343-.0312-.1407-.0468-.2344-.0468-.2813.0156-.0469.0156-.0859 0-.1172-.0469-.2656-.0704-.4453-.0704-.539 0-.0938-.0156-.1875-.0468-.2813-.0313-.125-.0547-.2031-.0703-.2344-.0157-.0468-.0313-.0859-.0469-.1171-.1094-.0938-.1797-.1329-.211-.1172-.0312.0156-.0546.039-.0703.0703-.1406.0937-.2187.1484-.2343.164-.1407.0782-.2266.1329-.2579.1641-.0781.0625-.125.1016-.1406.1172s-.039.039-.0703.0703c-.1562.125-.2344.1875-.2344.1875 0-.0156-.0078-.0156-.0234 0-.1563.1094-.25.1875-.2813.2344-.0312.0312-.0703.0625-.1171.0937-.0313.0781-.0704.1407-.1172.1875-.0313.0469-.0625.0938-.0938.1406.0313.0626.0469.1172.0469.1641 0 .0313-.0156.0859-.0469.1641.1094.125.1875.1875.2344.1875.0781.0469.1328.0703.1641.0703.0312 0 .0625.0078.0937.0234.0938.0625.1484.1094.1641.1406.0156.0157.0312.0235.0468.0235.1407.0625.2266.0937.2579.0937.0468 0 .1015.0078.164.0235.1094.0312.1875.0547.2344.0703.0625 0 .1094.0078.1406.0234.1719.0938.3125.1563.4219.1875.125.0157.2266.0078.3047-.0234zm18.5159-10.4766c.062.25.078.461.047.6328-.032.1719-.047.3204-.047.4454-.032.0468-.047.0937-.047.1406.015.0468.015.0937 0 .1406 0 .0469-.008.1016-.024.1641v.1406.2109.1406c0 .125-.007.1954-.023.211v.0469c.031.1093.023.2109-.023.3047.031.0937.039.1953.023.3046-.016.1094-.023.2422-.023.3985l-.024.3984c0 .1719-.008.3047-.023.3985v.2578c-.016.1406-.032.2265-.047.2578.015.1718.023.2578.023.2578.016 0 .024.0156.024.0469.031.0781.031.1875 0 .3281-.016.1406-.016.2656 0 .375 0 .125-.008.2031-.024.2344 0 .0156.008.039.024.0703v.2109c.015.0156.023.0391.023.0703-.016.125-.023.2422-.023.3516 0 .0469-.008.0937-.024.1406v.1406.2344c.016 0 .024.0156.024.0469-.016.0937-.032.1562-.047.1875v.0937c.047.2657.054.4454.023.5391-.015.0469-.023.1328-.023.2578v.3047c.015.125.015.1953 0 .2109v.0469c.047.1875.062.3203.047.3984v.2344c-.016.125-.024.211-.024.2578.016.0313.008.0625-.023.0938.031.1094.039.2344.023.375v.4219.6328.4453c.016.125.031.2578.047.3984.016.0782.024.1641.024.2578 0 .0938.007.1797.023.2578.047.2188.07.3985.07.5391v.3985c0 .1874-.015.3046-.047.3515-.015.0469-.046.1094-.093.1875-.203.0469-.336.0703-.399.0703-.047.0157-.117.0235-.211.0235-.265-.0157-.508-.0157-.726 0-.188 0-.336 0-.446 0-.093.0156-.203.0156-.328 0-.125 0-.195 0-.211 0-.015.0156-.039.0234-.07.0234-.219-.0312-.352-.0469-.398-.0469-.032.0157-.071.0157-.118 0-.203-.0625-.328-.0937-.375-.0937-.046 0-.093-.0156-.14-.0469-.125-.0469-.203-.0859-.235-.1172-.031-.0156-.07-.0234-.117-.0234-.14-.1875-.211-.3438-.211-.4688 0-.0937.008-.1797.024-.2578.031-.0781.039-.1641.023-.2578.016-.125.016-.2187 0-.2813 0-.0624 0-.1093 0-.1406.016-.0468.016-.0937 0-.1406 0-.0625 0-.1172 0-.1641v-.3984c-.14.125-.242.2109-.305.2578-.046.0313-.101.0703-.164.1172-.156.0781-.25.1563-.281.2344-.156.0937-.242.1484-.258.164-.015.0157-.039.0313-.07.0469-.109.0938-.18.1484-.211.1641-.031 0-.062.0156-.094.0469-.125.0624-.211.1015-.257.1171-.11.0782-.211.1329-.305.1641-.063.0469-.11.0781-.141.0938-.015 0-.047.0078-.094.0234-.203.1094-.335.1797-.398.2109-.062.0313-.117.0625-.164.0938-.188.0781-.281.1172-.281.1172-.094.0312-.164.0547-.211.0703-.047 0-.086.0078-.117.0234-.079.0625-.149.1016-.211.1172-.047 0-.094.0078-.141.0234-.062.0313-.125.0469-.187.0469-.047.0156-.102.0391-.165.0703-.156.0469-.25.0703-.281.0703-.015.0157-.039.0235-.07.0235-.125-.0313-.203-.0469-.234-.0469-.032.0156-.063.0156-.094 0-.11-.0156-.211-.0469-.305-.0937-.094-.0313-.187-.0704-.281-.1172-.141-.0782-.227-.1172-.258-.1172-.109-.0938-.172-.1328-.187-.1172 0 0-.008-.0156-.024-.0469-.047-.0469-.101-.0781-.164-.0937-.047-.0313-.102-.0782-.164-.1407-.156-.125-.234-.1875-.234-.1875-.094-.125-.157-.2109-.188-.2578-.078-.0781-.133-.1406-.164-.1875-.016-.0469-.039-.0859-.07-.1172-.11-.1093-.164-.1718-.164-.1875 0-.0312-.008-.0468-.024-.0468-.109-.1094-.172-.1719-.187-.1875-.016-.0157-.039-.0391-.071-.0703-.078-.1094-.132-.1719-.164-.1876-.015-.0312-.039-.0624-.07-.0937-.031-.0625-.07-.125-.117-.1875s-.102-.1172-.164-.1641c0-.0781-.016-.1406-.047-.1875-.016-.0625-.008-.1172.023-.164l-.07-.2578c-.016-.0938-.039-.1563-.07-.1875-.016-.0313-.024-.0625-.024-.0938-.031-.0625-.047-.1406-.047-.2344.016-.0937.016-.1797 0-.2578-.015-.1719-.015-.2656 0-.2812-.046-.1875-.086-.3125-.117-.375-.015-.1719-.023-.2657-.023-.2813.015-.0156.023-.0312.023-.0468 0-.0313-.008-.0782-.023-.1407-.016-.0625-.024-.1172-.024-.164.032-.1407.032-.211 0-.211-.015 0-.015-.0156 0-.0469-.015-.1718-.023-.2734-.023-.3046.016-.0313.023-.0625.023-.0938.016-.0469.016-.0859 0-.1172 0-.0468 0-.0937 0-.1406v-.3047l-.023-.3984c-.016-.25-.016-.4297 0-.5391.016-.125.023-.25.023-.375-.015-.125-.023-.1953-.023-.2109.016-.0313.023-.0625.023-.0938-.015-.1719-.023-.2578-.023-.2578.016-.1562.016-.2734 0-.3515 0-.0782.008-.1719.023-.2813 0-.2187-.007-.3516-.023-.3984 0-.0625 0-.125 0-.1875 0-.0782 0-.1485 0-.211.016-.0625.023-.1328.023-.2109v-.5859c0-.1407-.007-.2422-.023-.3047-.016-.0782-.031-.1563-.047-.2344 0-.1406 0-.2188 0-.2344.016-.0312.023-.0547.023-.0703-.031-.1875-.046-.3125-.046-.375.015-.0625.023-.125.023-.1875-.031-.1406-.047-.2266-.047-.2578 0-.0313 0-.0625 0-.0938 0-.1875-.015-.289-.047-.3047-.015-.125-.031-.2187-.047-.2812 0-.0625-.007-.1328-.023-.2109.016-.0469.016-.1094 0-.1875-.016-.0782-.016-.1407 0-.1875l.258-.3516c.078.0156.14.0156.187 0 .047-.0313.11-.0547.188-.0703.219-.0156.359-.0391.422-.0703.062-.0313.14-.0391.234-.0235.188.0469.344.0547.469.0235h.187c.047 0 .086-.0078.117-.0235h.141c.063-.0156.125-.0156.188 0 .187.0313.304.0469.351.0469.063-.0156.125-.0156.188 0 .156.0313.265.0469.328.0469.187 0 .32.0156.398.0469.031.0156.086.0234.164.0234h.258c.094-.0156.188-.0234.281-.0234.094-.0157.188-.0235.282-.0235.062.0156.125.0313.187.0469.063 0 .125.0156.188.0469.046.1562.07.2344.07.2344.016 0 .023.0078.023.0234.094.2031.141.3672.141.4922 0 .1094-.008.2187-.023.3281 0 .0469-.008.0937-.024.1406s-.023.0938-.023.1407c0 .0468-.008.0937-.024.1406v.1406.2109c.016.0625.016.125 0 .1875-.015.1563-.023.2344-.023.2344.015 0 .023.0078.023.0234-.015.0469-.031.0938-.047.1407 0 .0312-.007.0703-.023.1172v.2343c.016.0625 0 .125-.047.1875.031.1563.039.3047.023.4453v.4219c-.015.1563-.023.2578-.023.3047.016.0313.023.0625.023.0938 0 .0937-.007.1796-.023.2578 0 .0781-.008.1562-.023.2344v.4453.7734c0 .0625-.008.1328-.024.2109 0 .0625.016.1328.047.211-.031.0468-.047.0937-.047.1406.016.0469.024.0938.024.1406 0 .0782-.008.1641-.024.2578-.015.0782-.023.1641-.023.2578 0 .2032.008.336.023.3985.031.0625.047.1328.047.2109.016.2188.031.3594.047.4219s.031.1328.047.2109c.015.0782.015.1485 0 .211 0 .0468.015.0937.047.1406.172.0625.273.1094.304.1406.032.0156.063.0391.094.0703.234.0782.383.1407.445.1875.032.0469.071.0704.118.0704.046-.0157.086 0 .117.0468.14-.0468.226-.0859.258-.1172.171-.1093.265-.164.281-.164.031-.0156.062-.0391.094-.0703.14-.1094.226-.1641.257-.1641.172-.1406.274-.2266.305-.2578.031-.0469.063-.086.094-.1172s.062-.0625.094-.0938c.046-.0312.086-.0624.117-.0937.031-.1406.031-.2578 0-.3516-.016-.0937-.016-.2031 0-.3281 0-.125.008-.2109.023-.2578.016-.0625 0-.1328-.047-.2109.016-.1875.032-.3047.047-.3516.016-.0469.024-.0937.024-.1406 0-.0781-.008-.1563-.024-.2344-.015-.0781-.008-.1719.024-.2813.031-.1406.039-.2343.023-.2812-.016-.0625-.023-.1172-.023-.1641 0-.0625-.008-.1171-.024-.164 0-.0469.016-.0938.047-.1407-.016-.0468-.031-.1015-.047-.164-.015-.0781-.008-.1484.024-.211.015-.1562 0-.3046-.047-.4453 0-.1875 0-.3203 0-.3984.015-.0781.008-.1563-.024-.2344 0-.1093 0-.1719 0-.1875.016-.0156.024-.039.024-.0703-.031-.125-.047-.1953-.047-.2109.016-.0313.023-.0625.023-.0938 0-.1406-.007-.2344-.023-.2812-.016-.0469-.024-.0938-.024-.1406 0-.1094-.015-.211-.046-.3047-.047-.2032-.071-.336-.071-.3985.016-.0625.024-.1328.024-.2109 0-.1094.008-.1719.023-.1875.016-.0313.024-.0703.024-.1172.015-.0625.015-.125 0-.1875 0-.0781 0-.1563 0-.2344-.016-.1406-.008-.2578.023-.3515.016-.125.031-.2578.047-.3985.016-.1406.07-.2343.164-.2812.094-.1094.148-.1719.164-.1875.031-.0313.07-.0547.117-.0703.031-.0157.071-.0313.117-.0469.047-.0156.094-.0391.141-.0703.125.0312.234.039.328.0234.11-.0156.211-.0078.305.0235.172-.0469.273-.0782.305-.0938.031-.0156.062-.0234.093-.0234.032 0 .071.0078.117.0234h.165c.062 0 .125.0078.187.0234h.164c.047 0 .094-.0078.141-.0234s.093-.0234.14-.0234c.078 0 .164.0156.258.0468.11 0 .172.0078.188.0235h.07.164c.031-.0157.063-.0235.094-.0235.156 0 .242.0078.258.0235h.093c.047.0156.094.0234.141.0234.047-.0156.109-.0234.187-.0234.063 0 .125.0078.188.0234.062 0 .109-.0156.141-.0469.156.0469.242.0782.257.0938.016.0156.039.0234.071.0234z" fill="#693821"/></svg>