<svg width="128" height="115" viewBox="0 0 128 115" fill="none" xmlns="http://www.w3.org/2000/svg">
<path d="M31.9331 91.9997L0 2.50586L5.88732 -0.00025396L37.8204 89.4936L31.9331 91.9997Z" fill="#6A290B"/>
<path d="M6.42251 4.73696L7.42394 4.31067L7.17023 3.59965L6.1688 4.02593C6.10367 4.05366 6.1074 4.23484 6.17752 4.43135C6.24764 4.62787 6.35738 4.76469 6.42251 4.73696Z" fill="#1D1D1B"/>
<path d="M8.17641 8.67251L8.87437 8.3754L8.62066 7.66438L7.92271 7.96148C7.85758 7.9892 7.8613 8.17039 7.93142 8.3669C8.00154 8.56341 8.11128 8.70023 8.17641 8.67251Z" fill="#1D1D1B"/>
<path d="M9.62954 12.737L10.3275 12.4399L10.0738 11.7288L9.37583 12.0259C9.3107 12.0537 9.31443 12.2348 9.38455 12.4314C9.45467 12.6279 9.56441 12.7647 9.62954 12.737Z" fill="#1D1D1B"/>
<path d="M11.0827 16.8034L11.7806 16.5063L11.5269 15.7952L10.829 16.0923C10.7638 16.1201 10.7678 16.3019 10.8377 16.4978C10.9078 16.6943 11.0175 16.8311 11.0827 16.8034Z" fill="#1D1D1B"/>
<path d="M12.528 20.8678L13.2259 20.5707L12.9722 19.8597L12.2743 20.1568C12.2091 20.1845 12.2131 20.3664 12.283 20.5622C12.3531 20.7587 12.4628 20.8955 12.528 20.8678Z" fill="#1D1D1B"/>
<path d="M13.6764 25.0612L14.6778 24.6349L14.4241 23.9239L13.4227 24.3502C13.3576 24.3779 13.3615 24.5597 13.4317 24.7562C13.5015 24.9521 13.6113 25.0889 13.6764 25.0612Z" fill="#1D1D1B"/>
<path d="M15.4264 28.9987L16.1244 28.7016L15.8707 27.9905L15.1727 28.2877C15.1076 28.3154 15.1115 28.4972 15.1814 28.6931C15.2515 28.8896 15.3613 29.0264 15.4264 28.9987Z" fill="#1D1D1B"/>
<path d="M16.8795 33.0631L17.5775 32.766L17.3238 32.055L16.6258 32.3521C16.5607 32.3798 16.5644 32.561 16.6345 32.7575C16.7047 32.954 16.8144 33.0908 16.8795 33.0631Z" fill="#1D1D1B"/>
<path d="M18.3288 37.1276L19.0267 36.8305L18.773 36.1195L18.0751 36.4166C18.0099 36.4443 18.0136 36.6255 18.0838 36.822C18.1539 37.0185 18.2636 37.1553 18.3288 37.1276Z" fill="#1D1D1B"/>
<path d="M19.7819 41.192L20.4798 40.8949L20.2261 40.1839L19.5282 40.481C19.463 40.5087 19.4668 40.6899 19.5369 40.8864C19.607 41.0829 19.7167 41.2198 19.7819 41.192Z" fill="#1D1D1B"/>
<path d="M20.9303 45.3873L21.9317 44.961L21.678 44.25L20.6766 44.6763C20.6115 44.704 20.6152 44.8852 20.6853 45.0817C20.7554 45.2782 20.8652 45.4151 20.9303 45.3873Z" fill="#1D1D1B"/>
<path d="M22.6803 49.3229L23.3783 49.0258L23.1246 48.3148L22.4266 48.6119C22.3615 48.6396 22.3652 48.8208 22.4353 49.0173C22.5054 49.2138 22.6152 49.3506 22.6803 49.3229Z" fill="#1D1D1B"/>
<path d="M24.1334 53.3873L24.8314 53.0902L24.5777 52.3792L23.8797 52.6763C23.8146 52.704 23.8183 52.8852 23.8885 53.0817C23.9586 53.2783 24.0683 53.4151 24.1334 53.3873Z" fill="#1D1D1B"/>
<path d="M25.5827 57.4537L26.2806 57.1566L26.0269 56.4456L25.329 56.7427C25.2638 56.7705 25.2676 56.9516 25.3377 57.1481C25.4078 57.3447 25.5175 57.4815 25.5827 57.4537Z" fill="#1D1D1B"/>
<path d="M27.0358 61.5182L27.7337 61.2211L27.48 60.5101L26.7821 60.8072C26.717 60.8349 26.7207 61.0161 26.7908 61.2126C26.8612 61.4098 26.9707 61.5459 27.0358 61.5182Z" fill="#1D1D1B"/>
<path d="M28.1842 65.7116L29.1857 65.2853L28.9319 64.5743L27.9305 65.0005C27.8654 65.0283 27.8694 65.2101 27.9392 65.406C28.0096 65.6031 28.1191 65.7393 28.1842 65.7116Z" fill="#1D1D1B"/>
<path d="M29.9342 69.6471L30.6322 69.35L30.3785 68.639L29.6805 68.9361C29.6154 68.9638 29.6194 69.1457 29.6892 69.3415C29.7596 69.5387 29.8691 69.6748 29.9342 69.6471Z" fill="#1D1D1B"/>
<path d="M31.3874 73.7135L32.0853 73.4164L31.8316 72.7054L31.1336 73.0025C31.0685 73.0302 31.0725 73.2121 31.1424 73.4079C31.2127 73.6051 31.3222 73.7412 31.3874 73.7135Z" fill="#1D1D1B"/>
<path d="M32.8366 77.778L33.5345 77.4809L33.2808 76.7698L32.5829 77.0669C32.5177 77.0947 32.5217 77.2765 32.5916 77.4724C32.6619 77.6695 32.7714 77.8057 32.8366 77.778Z" fill="#1D1D1B"/>
<path d="M34.2858 81.8424L34.9837 81.5453L34.73 80.8343L34.0321 81.1314C33.967 81.1591 33.9709 81.341 34.0408 81.5368C34.1109 81.7333 34.2207 81.8702 34.2858 81.8424Z" fill="#1D1D1B"/>
<path d="M35.4303 86.0377L36.4317 85.6115L36.178 84.9004L35.1766 85.3267C35.1115 85.3544 35.1152 85.5356 35.1853 85.7321C35.2552 85.928 35.3652 86.0655 35.4303 86.0377Z" fill="#1D1D1B"/>
<path d="M72.9138 46.1563C72.9138 46.1563 71.7246 34.6298 93.6145 24.1578C115.504 13.6858 115.504 2.29688 115.504 2.29688C115.504 2.29688 129.042 29.1679 72.9138 46.1563Z" fill="#4FA0CA"/>
<path d="M96.8019 26.5617C82.4479 33.4251 78.015 40.7405 76.6641 44.9712C110.544 33.8246 116.715 18.9843 116.933 10.0645C114.618 14.3476 109.256 20.602 96.8019 26.5617Z" fill="#1871B1"/>
<path d="M77.6945 44.6298C75.1614 45.4746 73.6908 45.9134 73.149 46.0706C72.6073 46.2278 72.9942 46.0968 74.1482 45.7301C76.435 44.9704 81.8248 43.2807 88.5233 40.2943C91.8655 38.7945 95.5174 36.9542 99.1411 34.6752C102.758 32.3961 106.339 29.652 109.33 26.3905C112.32 23.1422 114.67 19.3437 115.789 15.316C116.922 11.3079 116.865 7.09685 115.578 3.3704C115.458 3.04295 115.332 2.70894 115.184 2.40768L115.859 2.29635C115.712 4.32657 114.938 6.16687 114.002 7.90894C113.045 9.64445 111.842 11.249 110.512 12.716C107.845 15.6631 104.679 18.0863 101.456 20.1296C99.8447 21.1512 98.2123 22.0747 96.5869 22.926C94.9685 23.784 93.3221 24.5109 91.8022 25.2837C88.7485 26.8293 86.0536 28.4666 83.7738 30.1235C79.1791 33.4374 76.3576 36.8757 74.9222 39.4364C73.4727 42.0102 73.2264 43.6343 73.1842 43.6933C72.8395 45.2258 72.9169 46.0248 72.9098 46.1361C72.9169 46.254 72.8183 45.6973 72.9591 44.5905C73.1068 43.4903 73.5079 41.8268 74.5141 39.8686C75.5062 37.9104 77.1034 35.6575 79.3832 33.4177C81.6559 31.1714 84.59 28.9447 88.0237 26.8948C91.4293 24.786 95.5244 23.1553 99.2466 20.8827C103.004 18.6429 106.614 15.9971 109.541 12.8601C110.997 11.2948 112.285 9.6117 113.284 7.83035C114.262 6.06209 115.029 4.14975 115.163 2.28325V2.2636C115.177 2.10642 115.339 1.98199 115.529 1.99509C115.669 2.00164 115.782 2.07368 115.831 2.17846C116 2.52557 116.127 2.85957 116.246 3.20012C117.569 7.051 117.548 11.0329 116.64 14.6938C115.726 18.3613 113.882 21.6948 111.609 24.5568C109.337 27.4253 106.656 29.8354 103.94 31.8787C101.217 33.922 98.4585 35.6051 95.8481 37.0132C90.6201 39.8359 86.0325 41.6303 82.838 42.8288C79.6295 44.0207 77.7789 44.5971 77.6945 44.6298Z" fill="#110B79"/>
<path d="M80.616 48.5947C80.616 48.5947 81.6011 37.0551 59.5283 26.8451C37.4485 16.635 37.2514 5.24609 37.2514 5.24609C37.2514 5.24609 24.1991 32.2808 80.616 48.5947Z" fill="#4FA0CA"/>
<path d="M80.616 48.5947C80.616 48.5947 81.6011 37.0551 59.5283 26.8451C37.4485 16.635 37.2514 5.24609 37.2514 5.24609C37.2514 5.24609 24.1991 32.2808 80.616 48.5947Z" fill="#4FA0CA"/>
<path d="M36.0625 14.3145C36.9983 23.2474 44.2527 37.0071 76.1271 47.2238C74.5509 42.9603 69.8366 35.9462 55.8204 29.4626C44.309 24.1381 38.7504 18.4993 36.0625 14.3145Z" fill="#1871B1"/>
<path d="M75.8179 47.1257C78.3651 47.9443 79.8427 48.37 80.3774 48.5338C80.9122 48.6975 80.5111 48.5927 79.3431 48.2652C77.0141 47.5841 71.561 46.0254 64.7498 43.1766C61.3513 41.7423 57.6221 39.9741 53.914 37.7408C50.2129 35.5141 46.5118 32.8159 43.3947 29.561C40.2777 26.3257 37.7868 22.4945 36.5555 18.4013C35.3101 14.3212 35.2749 10.025 36.5344 6.16755C36.654 5.82045 36.7736 5.48644 36.9354 5.13934C37.0058 4.98871 37.2028 4.91667 37.3858 4.97561C37.5195 5.01491 37.5969 5.11314 37.6109 5.22448V5.24413C37.7728 7.09098 38.5538 8.93128 39.4966 10.6013C40.4536 12.2844 41.6498 13.8431 42.9726 15.2774C45.6323 18.1459 48.7775 20.5232 51.979 22.5272C53.5833 23.5292 55.2087 24.4396 56.827 25.2779C58.4383 26.1227 60.0778 26.8431 61.6187 27.6224C64.7006 29.168 67.4166 30.8119 69.7175 32.4819C74.3473 35.8154 77.183 39.2864 78.6113 41.8668C80.0538 44.4602 80.286 46.0844 80.3282 46.1433C80.7011 47.6758 80.6237 48.4683 80.6167 48.5796C80.5956 48.6975 80.6589 48.1408 80.4619 47.0471C80.2648 45.96 79.8004 44.3227 78.7309 42.4038C77.6755 40.4849 76.0149 38.2975 73.6859 36.1232C71.3639 33.9489 68.3876 31.8008 64.9187 29.836C61.4921 27.8189 57.3618 26.2668 53.52 24.0335C49.6641 21.8461 45.9419 19.2265 42.8881 16.0895C41.3683 14.5242 40.0173 12.8214 38.9549 11.0139C37.9135 9.19324 37.0832 7.30055 36.9003 5.25722L37.5757 5.36201C37.435 5.66327 37.3084 6.00382 37.2028 6.33128C35.9855 10.0774 36.0559 13.9872 36.9917 17.5565C37.9346 21.1388 39.7711 24.4003 42.0297 27.2033C44.2954 30.0129 46.9551 32.3902 49.657 34.4073C52.366 36.4244 55.1102 38.0945 57.7065 39.5025C62.9134 42.3121 67.487 44.1131 70.6744 45.3247C73.8759 46.5035 75.7264 47.093 75.8179 47.1257Z" fill="#110B79"/>
<path d="M60.3216 108.248C60.3216 108.248 47.9237 111.857 58.8721 111.424C58.8721 111.424 57.9715 116.926 61.0604 111.785C61.0604 111.785 69.3632 119.323 61.6866 108.471L60.3216 108.248Z" fill="#0C419A"/>
<path d="M61.3834 108.418C59.7581 108.149 60.1028 108.169 61.7493 108.392C62.1363 108.903 62.5303 109.433 63.0158 110.127C63.4943 110.808 64.0291 111.581 64.5357 112.452C64.782 112.898 65.0493 113.336 65.183 113.919C65.2182 114.076 65.1971 114.391 64.986 114.502C64.796 114.64 64.4512 114.548 64.3387 114.502C64.0361 114.391 63.7898 114.24 63.5436 114.09C63.051 113.782 62.6007 113.435 62.1504 113.081L61.489 112.537L61.1653 112.262C61.109 112.21 61.1442 112.243 61.1301 112.236C61.2146 112.105 60.912 112.596 60.722 112.871C60.5109 113.179 60.2928 113.48 60.0254 113.762C59.9058 113.88 59.7862 114.004 59.6173 114.109C59.4977 114.214 59.0896 114.358 58.8363 114.162C58.5689 113.945 58.5548 113.756 58.5056 113.592C58.4704 113.428 58.4563 113.271 58.4493 113.114C58.4352 112.806 58.4493 112.518 58.4775 112.223L58.5267 111.797C58.5408 111.699 58.5408 111.712 58.5408 111.706L58.5478 111.693H58.5267H58.5197H58.4563H58.3086L57.7386 111.699C57.3587 111.699 56.9928 111.693 56.6269 111.679C55.8951 111.634 55.2056 111.627 54.516 111.352C54.3542 111.293 54.0798 111.051 54.1642 110.802C54.2486 110.546 54.3894 110.461 54.516 110.35C54.7764 110.16 55.0437 110.023 55.3041 109.898C55.8248 109.656 56.3173 109.472 56.7676 109.309C58.576 108.687 59.6947 108.425 59.7229 108.405C61.0246 108.025 60.1028 108.313 58.0905 109.06C57.5909 109.25 57.0209 109.472 56.4088 109.741C56.1062 109.878 55.7896 110.023 55.48 110.186C55.1774 110.35 54.8397 110.54 54.6427 110.763C54.5512 110.874 54.5864 110.887 54.6427 110.933C54.7482 110.998 54.9382 111.044 55.1211 111.077C55.4941 111.142 55.9022 111.162 56.3173 111.175C56.7325 111.188 57.1546 111.182 57.5768 111.175L59.2163 111.116L59.1529 111.535L59.1107 111.856L59.0755 112.275C59.0544 112.557 59.0474 112.839 59.0685 113.107C59.0755 113.238 59.0966 113.369 59.1248 113.487C59.1389 113.539 59.16 113.592 59.1811 113.631C59.2022 113.67 59.1952 113.651 59.1952 113.657C59.1107 113.71 59.4133 113.553 59.5751 113.356C59.8143 113.101 60.0254 112.812 60.2295 112.518L60.525 112.072L60.9964 111.306L61.6719 111.915L62.066 112.262C62.3333 112.492 62.5937 112.708 62.854 112.917C63.3747 113.33 63.9024 113.742 64.4301 113.998C64.4935 114.024 64.5638 114.057 64.6131 114.07C64.6412 114.076 64.6483 114.083 64.6694 114.076C64.7116 114.057 64.7186 114.05 64.7116 113.952C64.6764 113.71 64.5709 113.441 64.4653 113.199C64.2472 112.701 63.9939 112.243 63.7547 111.817C62.7766 110.121 61.9886 108.935 61.686 108.451L61.3834 108.418Z" fill="#110B79"/>
<path d="M91.3565 108.107C91.3565 108.107 104.205 109.882 93.3196 111.035C93.3196 111.035 95.1279 116.34 91.2158 111.709C91.2158 111.709 84.2639 120.354 90.0407 108.527L91.3565 108.107Z" fill="#0C419A"/>
<path d="M90.3424 108.433C91.9396 107.922 91.5104 108.099 90.1172 108.596C89.7091 109.539 88.9422 111.157 88.3159 112.991C88.1682 113.449 88.0063 113.953 87.9993 114.399C88.0063 114.49 88.0063 114.477 88.0345 114.497C88.0767 114.497 88.0415 114.51 88.1752 114.438C88.3793 114.32 88.5833 114.143 88.7874 113.967C89.1814 113.606 89.5614 113.2 89.9202 112.788L90.462 112.166L91.2149 111.242C91.8059 111.93 91.9185 112.061 92.1929 112.349C92.4392 112.611 92.6995 112.86 92.9599 113.063C93.0725 113.148 93.1921 113.226 93.2906 113.272C93.4243 113.325 93.375 113.299 93.3821 113.305C93.375 113.338 93.4243 113.213 93.4243 113.096C93.4313 112.971 93.4243 112.84 93.4102 112.709C93.3821 112.441 93.3258 112.166 93.2624 111.904L93.1569 111.504L93.0654 111.19L92.9388 110.803L94.4094 110.646C94.7752 110.6 95.1411 110.554 95.4859 110.502C96.1684 110.391 96.8791 110.273 97.3646 110.017C97.5616 109.906 97.5053 109.841 97.245 109.664C97.0128 109.526 96.7384 109.415 96.478 109.323C95.9573 109.133 95.4507 108.996 94.9934 108.878C93.1428 108.413 92.01 108.216 91.9748 108.203C90.6238 108.013 91.5948 108.059 93.7479 108.393C94.2827 108.478 94.8949 108.59 95.5633 108.74C95.894 108.819 96.2388 108.904 96.5976 109.009C96.9495 109.127 97.3153 109.232 97.6812 109.5C97.7657 109.559 97.8923 109.697 97.9134 109.854C97.9416 110.004 97.8571 110.168 97.7375 110.273C97.5405 110.443 97.3364 110.522 97.1394 110.6C96.7384 110.744 96.3303 110.843 95.9081 110.928C95.4929 111.013 95.0637 111.085 94.6416 111.144L93.9942 111.236L93.7128 111.268L93.6916 111.275L93.6987 111.288L93.7057 111.301L93.7339 111.393L93.8535 111.825C93.9238 112.113 93.9872 112.408 94.0224 112.716C94.0364 112.873 94.0505 113.023 94.0364 113.2C94.0294 113.285 94.0153 113.377 93.9872 113.475C93.959 113.574 93.8746 113.724 93.755 113.803C93.6354 113.888 93.4806 113.921 93.3258 113.901C93.178 113.881 93.0865 113.842 93.0021 113.803C92.8262 113.718 92.6995 113.626 92.5658 113.528C92.2422 113.272 91.9678 113.004 91.7145 112.729L91.3345 112.316L91.243 112.211C91.2078 112.172 91.229 112.198 91.2219 112.185V112.179L91.2149 112.185C91.2078 112.192 91.229 112.172 91.1938 112.205L91.1093 112.303L90.7646 112.703C90.5324 112.965 90.3002 113.22 90.0609 113.469C89.5825 113.96 89.1251 114.425 88.5341 114.805C88.4567 114.851 88.3863 114.89 88.2808 114.936C88.1611 114.982 88.0134 115.021 87.8867 114.988C87.6053 114.949 87.5068 114.615 87.5208 114.432C87.5279 114.098 87.6123 113.822 87.6967 113.547C87.8656 113.01 88.0697 112.526 88.2667 112.074C89.0688 110.279 89.7584 109.061 90.0328 108.537L90.3424 108.433Z" fill="#110B79"/>
<path d="M75.0401 111.163C61.3827 111.163 50.9198 106.992 43.9398 98.7593C36.1506 89.5644 28.9947 70.3165 39.1481 30.7992C39.3381 30.0526 39.5069 29.4107 39.5562 29.175C39.8095 27.9306 40.7664 26.909 42.0611 26.5226C42.4411 26.4112 42.8281 26.3523 43.208 26.3523C44.1438 26.3523 45.0656 26.6798 45.7622 27.3019C45.8818 27.4067 58.519 38.2586 76.0041 38.2586C86.1645 38.2586 96.9652 31.5458 106.38 24.3679C107.055 23.8505 107.893 23.582 108.737 23.582C109.117 23.582 109.497 23.6344 109.87 23.7458C111.073 24.106 111.995 25.0032 112.325 26.1362C112.874 28.0223 124.688 75.582 106.042 98.2878C99.0198 106.828 88.592 111.163 75.0401 111.163Z" fill="#0D3795"/>
<path d="M85.8172 110.115C82.9886 110.698 80.7159 110.907 79.0131 111.025C77.3103 111.13 76.1775 111.143 75.5724 111.143C74.3551 111.13 75.2487 111.169 77.8662 111.051C79.1749 110.986 80.9129 110.855 83.0167 110.54C85.1206 110.233 87.5833 109.722 90.2711 108.831C92.952 107.94 95.865 106.65 98.6936 104.758C101.529 102.878 104.259 100.383 106.595 97.3309C108.931 94.279 110.831 90.6705 112.274 86.7345C113.716 82.7919 114.722 78.5153 115.363 74.0488C116.629 65.1158 116.488 55.4559 115.433 45.6781C114.898 40.7859 114.138 35.8544 113.132 30.9557C112.879 29.731 112.611 28.5063 112.316 27.2882C112.154 26.6791 112.055 26.0569 111.767 25.5592C111.478 25.0484 111.042 24.6096 110.507 24.3149C109.452 23.7058 108.031 23.6927 106.975 24.3018C106.708 24.4393 106.476 24.6358 106.208 24.8388L105.427 25.4282L103.851 26.594C99.6224 29.672 95.2247 32.5406 90.5104 34.7804C85.8242 37.0005 80.7159 38.6247 75.5512 38.533C70.4499 38.4806 65.4471 37.4982 60.8173 35.8741C56.1804 34.2499 51.8812 32.0232 48.0394 29.3642C47.0895 28.7093 46.1326 27.9758 45.2812 27.2685C44.4227 26.6464 43.2336 26.4564 42.2063 26.7511C41.172 27.0328 40.3136 27.8056 39.9688 28.7421C39.8773 28.9778 39.8351 29.2136 39.7647 29.4952L39.5677 30.2811L39.1666 31.8398C38.1182 35.9788 37.2176 40.0589 36.4929 44.067C35.0363 52.07 34.2553 59.7783 34.3538 66.9954C34.4453 74.1995 35.4374 80.9319 37.4568 86.7738C39.4481 92.6156 42.5511 97.5209 46.2029 101.031C49.8336 104.581 53.8373 106.749 57.2499 108.098C60.6836 109.447 63.5544 110.03 65.5175 110.383C67.4947 110.717 68.5924 110.816 68.6909 110.829C72.7227 111.235 74.7491 111.13 75.0095 111.169C75.2768 111.163 73.7851 111.235 70.8369 111.058C67.9098 110.855 63.4488 110.436 58.1927 108.589C55.5823 107.665 52.7889 106.349 50.087 104.489C47.385 102.642 44.7957 100.226 42.5933 97.2982C40.391 94.3707 38.5897 90.939 37.2528 87.1929C35.9018 83.4468 35.0012 79.3864 34.4734 75.1556C33.425 66.6811 33.8824 57.5516 35.2615 48.2912C35.9511 43.6544 36.8799 38.9849 37.9846 34.3088L38.85 30.805C38.9978 30.2222 39.1526 29.6393 39.2792 29.0564C39.4129 28.4212 39.7366 27.8252 40.1939 27.334C41.1087 26.3516 42.6074 25.8801 43.9795 26.1355C44.662 26.26 45.3164 26.5547 45.837 26.9869C46.3155 27.3995 46.808 27.7728 47.3076 28.1461C55.3993 34.0272 65.4683 37.8519 75.5512 37.9501C80.5751 38.0353 85.402 36.4897 89.7645 34.4856C94.1481 32.4554 98.1658 29.9144 101.951 27.2489C102.901 26.5809 103.83 25.9063 104.752 25.2187L106.124 24.1904C106.595 23.8171 107.179 23.5355 107.791 23.4045C109.016 23.1164 110.367 23.4307 111.31 24.1839C111.788 24.5572 112.161 25.0353 112.407 25.5658C112.647 26.1159 112.731 26.6333 112.872 27.1572C113.857 31.329 114.589 35.4484 115.18 39.4826C116.348 47.5511 116.868 55.2987 116.699 62.5355C116.531 69.7723 115.665 76.5113 113.99 82.4841C112.33 88.4503 109.818 93.6241 106.701 97.5863C103.591 101.568 100.009 104.319 96.8149 106.1C93.6063 107.888 90.827 108.798 88.9202 109.355C86.9993 109.899 85.9157 110.082 85.8172 110.115Z" fill="#110B79"/>
<path d="M74.2338 107C61.4668 107 51.6889 103.233 45.1679 95.8104C37.8856 87.5172 31.1954 70.1588 40.6913 34.5185C40.8676 33.8455 41.0227 33.2649 41.072 33.0538C41.3047 31.9322 42.207 31.0151 43.4196 30.6588C43.7721 30.5533 44.1316 30.5071 44.4911 30.5071C45.3653 30.5071 46.2254 30.804 46.881 31.3582C46.9867 31.4506 58.802 41.2348 75.1362 41.2348C84.6322 41.2348 94.7273 35.1782 103.518 28.7059C104.146 28.2441 104.928 28 105.725 28C106.077 28 106.437 28.0462 106.782 28.1517C107.903 28.475 108.77 29.2865 109.081 30.3092C109.595 32.0048 120.635 74.9091 103.208 95.3882C96.6449 103.094 86.8951 107 74.2338 107Z" fill="#45B9D5"/>
<path d="M44.7489 44.3672C43.9749 44.3672 43.208 44.1314 42.5677 43.673C41.463 42.874 40.9564 41.5511 41.28 40.2871L42.5395 35.3491C42.821 34.2423 43.6935 33.345 44.8474 32.9783C45.2274 32.8604 45.6214 32.7949 46.0084 32.7949C46.8035 32.7949 47.5916 33.0438 48.2319 33.5219L51.7219 36.1219C52.6577 36.8226 53.1573 37.9098 53.0447 39.0231C52.9321 40.1365 52.2214 41.1188 51.166 41.6428L46.4165 43.9808C45.8958 44.2362 45.3188 44.3672 44.7489 44.3672Z" fill="#C7EAF2"/>
<path d="M106.491 43.7144C107.265 43.7144 108.032 43.4786 108.672 43.0202C109.777 42.2212 110.284 40.8983 109.96 39.6343L109.51 33.1245C109.228 32.0177 108.356 31.1204 107.202 30.7537C106.822 30.6293 106.428 30.5703 106.041 30.5703C105.246 30.5703 104.458 30.8192 103.817 31.2973L99.5182 35.469C98.5824 36.1698 98.0828 37.257 98.1954 38.3703C98.3079 39.4836 99.0116 40.466 100.074 40.9899L104.824 43.328C105.351 43.5834 105.921 43.7144 106.491 43.7144Z" fill="#C7EAF2"/>
<path d="M91.9062 44.5762C84.8769 44.5762 78.8257 48.4532 76.0745 54.0331C73.3234 48.4532 67.2722 44.5762 60.2429 44.5762C50.6243 44.5762 42.8281 51.8326 42.8281 60.7852C42.8281 69.7379 50.6243 76.9943 60.2429 76.9943C67.2722 76.9943 73.3234 73.1172 76.0745 67.5374C78.8257 73.1172 84.8769 76.9943 91.9062 76.9943C101.525 76.9943 109.321 69.7379 109.321 60.7852C109.321 51.8326 101.525 44.5762 91.9062 44.5762Z" fill="#C7EAF2"/>
<path d="M92.2992 44.5176C85.0941 44.5176 78.8951 48.4078 76.0736 54.0138C73.252 48.4143 67.0531 44.5176 59.8479 44.5176C49.9901 44.5176 42.0039 51.8002 42.0039 60.7856C42.0039 69.771 49.9901 77.0536 59.8479 77.0536C67.0531 77.0536 73.252 73.1634 76.0736 67.5574C78.8951 73.1569 85.0941 77.0536 92.2992 77.0536C102.157 77.0536 110.143 69.771 110.143 60.7856C110.143 51.8002 102.157 44.5176 92.2992 44.5176ZM91.3141 76.0712C84.5452 76.0712 78.7192 72.4168 76.0736 67.1513C73.4279 72.4103 67.6019 76.0712 60.833 76.0712C51.5732 76.0712 44.0726 69.2274 44.0726 60.7856C44.0726 52.3438 51.5803 45.4999 60.833 45.4999C67.6019 45.4999 73.4279 49.1544 76.0736 54.4198C78.7262 49.1544 84.5523 45.4999 91.3141 45.4999C100.574 45.4999 108.075 52.3438 108.075 60.7856C108.082 69.2274 100.574 76.0712 91.3141 76.0712Z" fill="#76CCE0"/>
<path d="M72.2309 60.785C72.2309 66.0112 67.6785 70.242 62.0705 70.242C56.4556 70.242 51.9102 66.0112 51.9102 60.785C51.9102 55.5589 56.4626 51.3281 62.0705 51.3281C67.6785 51.3281 72.2309 55.5589 72.2309 60.785Z" fill="white"/>
<path d="M101.184 60.7862C101.184 66.7852 95.9629 71.6446 89.5177 71.6446C83.0725 71.6446 77.8516 66.7852 77.8516 60.7862C77.8516 54.7872 83.0795 49.9277 89.5177 49.9277C95.9629 49.9277 101.184 54.7872 101.184 60.7862Z" fill="white"/>
<path d="M61.8248 66.8431C65.3223 66.8431 68.1575 64.2042 68.1575 60.9489C68.1575 57.6936 65.3223 55.0547 61.8248 55.0547C58.3274 55.0547 55.4922 57.6936 55.4922 60.9489C55.4922 64.2042 58.3274 66.8431 61.8248 66.8431Z" fill="#26120B"/>
<path d="M63.2359 60.949C64.4017 60.949 65.3468 60.0694 65.3468 58.9843C65.3468 57.8992 64.4017 57.0195 63.2359 57.0195C62.0701 57.0195 61.125 57.8992 61.125 58.9843C61.125 60.0694 62.0701 60.949 63.2359 60.949Z" fill="white"/>
<path d="M90.3321 66.1895C93.441 66.1895 95.9612 63.8438 95.9612 60.9502C95.9612 58.0566 93.441 55.7109 90.3321 55.7109C87.2233 55.7109 84.7031 58.0566 84.7031 60.9502C84.7031 63.8438 87.2233 66.1895 90.3321 66.1895Z" fill="#26120B"/>
<path d="M93.1011 59.1998C93.1011 60.1625 92.2638 60.9484 91.2224 60.9484C90.1881 60.9484 89.3438 60.1691 89.3438 59.1998C89.3438 58.2371 90.1811 57.4512 91.2224 57.4512C92.2638 57.4512 93.1011 58.2371 93.1011 59.1998Z" fill="white"/>
<path d="M75.7607 74.2652C75.2119 74.2521 74.7123 73.9771 74.4449 73.5317L71.6093 67.3559C71.2856 66.8123 71.3701 66.1378 71.8204 65.6793C72.0174 65.4829 73.7976 63.7539 76.2533 63.7539C77.3228 63.7539 78.8989 64.0945 80.3835 65.7252C80.8128 66.1967 80.869 66.8713 80.5243 67.4018L77.1046 73.5776C76.8232 74.0033 76.3236 74.2652 75.7889 74.2652C75.7818 74.2652 75.7677 74.2652 75.7607 74.2652Z" fill="#0D3795"/>
<path d="M76.7872 73.917C76.4565 74.1789 76.1398 74.2248 75.971 74.2444C75.7951 74.251 75.7388 74.251 75.788 74.2379C75.8373 74.2248 75.985 74.2182 76.2102 74.1462C76.4283 74.0742 76.7238 73.9235 76.949 73.6288L80.2983 67.2893L80.3053 67.2827V67.2762C80.5516 66.8898 80.5375 66.3724 80.2631 66.0057C79.9465 65.6258 79.5032 65.2329 79.0669 64.9382C78.1663 64.316 77.0757 63.9951 76.0343 64.054C75.0703 64.0999 74.1486 64.4208 73.3605 64.8727C72.9665 65.1019 72.6006 65.3573 72.2699 65.6389C72.101 65.783 71.9532 65.914 71.8618 66.0581C71.7633 66.2087 71.6999 66.3724 71.6859 66.5427C71.6648 66.713 71.6859 66.8832 71.7422 67.047C71.7773 67.1387 71.7984 67.1714 71.8618 67.3089L71.9814 67.584L72.4387 68.6384L73.2479 70.5376L74.4019 73.3079C74.6552 73.9759 75.1688 74.1069 75.1547 74.1266C75.5347 74.2837 75.7528 74.2575 75.7739 74.2772C75.8021 74.2772 75.6473 74.3099 75.3447 74.2444C75.0562 74.1724 74.5778 73.9825 74.3104 73.4585L73.452 71.7427L72.3895 69.5618L71.7984 68.3437L71.4959 67.7084C71.4466 67.6102 71.3903 67.4792 71.3411 67.4006C71.2707 67.2762 71.2215 67.1518 71.1863 67.0142C71.0385 66.4706 71.2285 65.855 71.6577 65.4555C72.0377 65.0822 72.4599 64.7613 72.9172 64.4797C73.8249 63.9165 74.9014 63.5235 75.9991 63.4777C77.3501 63.4057 78.6377 63.8968 79.5735 64.6172C79.8128 64.7941 80.0309 64.9905 80.2349 65.187C80.432 65.39 80.636 65.5734 80.7978 65.855C81.1074 66.3921 81.0511 67.047 80.7275 67.5185L80.7345 67.5054C79.6157 69.4308 78.6588 71.0354 77.9763 72.1684L77.1742 73.4913C76.9842 73.7991 76.7942 73.9039 76.7872 73.917Z" fill="#110B79"/>
<path d="M45.5202 95.8482C52.084 103.245 61.9261 107 74.777 107C87.5215 107 97.3281 103.107 103.935 95.4208C105.077 94.0926 106.092 92.6723 107 91.1732C99.6343 93.6718 87.6918 94.6384 75.0112 83C75.0112 83 59.9676 95.0789 41 89.1151C42.3695 91.8438 43.9307 94.0597 45.5202 95.8482Z" fill="#C7EAF2"/>
<path d="M62.082 90.1133C62.082 90.1133 65.9942 93.5581 69.8993 90.1133C69.8993 90.1133 65.8394 96.8195 62.082 90.1133Z" fill="#6EC9DE"/>
<path d="M72.5742 87.0488C72.5742 87.0488 76.4864 90.4937 80.3915 87.0488C80.3915 87.0488 76.3316 93.7551 72.5742 87.0488Z" fill="#6EC9DE"/>
<path d="M82.6523 90.5C82.6523 90.5 86.5645 93.9448 90.4697 90.5C90.4697 90.5 86.4097 97.1997 82.6523 90.5Z" fill="#6EC9DE"/>
<path d="M76.4844 94.7129C76.4844 94.7129 80.3965 98.1577 84.3017 94.7129C84.3017 94.7129 80.2417 101.413 76.4844 94.7129Z" fill="#6EC9DE"/>
<path d="M65.7852 95.2871C65.7852 95.2871 69.6973 98.7319 73.6025 95.2871C73.6025 95.2871 69.5425 101.987 65.7852 95.2871Z" fill="#6EC9DE"/>
<path d="M71.543 100.453C71.543 100.453 75.4551 103.898 79.3603 100.453C79.3603 100.453 75.3003 107.159 71.543 100.453Z" fill="#6EC9DE"/>
<path d="M88.8281 96.2441C88.8281 96.2441 92.7403 99.689 96.6454 96.2441C96.6454 96.2441 92.5855 102.944 88.8281 96.2441Z" fill="#6EC9DE"/>
<path d="M54.6719 94.3262C54.6719 94.3262 58.584 97.771 62.4892 94.3262C62.4892 94.3262 58.4292 101.032 54.6719 94.3262Z" fill="#6EC9DE"/>
<path d="M81.2109 100.074C81.2109 100.074 85.1231 103.519 89.0282 100.074C89.0353 100.074 84.9753 106.774 81.2109 100.074Z" fill="#6EC9DE"/>
<path d="M60.8438 99.8789C60.8438 99.8789 64.7559 103.324 68.6611 99.8789C68.6611 99.8789 64.6082 106.585 60.8438 99.8789Z" fill="#6EC9DE"/>
<path d="M58.2189 41.6836H53.9121C44.2897 41.6836 36.4844 49.6104 36.4844 59.3974C36.4844 69.1778 44.2832 77.1112 53.9121 77.1112H58.2189C67.8414 77.1112 75.6467 69.1843 75.6467 59.3974C75.6467 49.617 67.8479 41.6836 58.2189 41.6836ZM57.8762 73.8773H54.2549C46.1715 73.8773 39.6207 67.3045 39.6207 59.2002C39.6207 51.0959 46.1715 44.5231 54.2549 44.5231H57.8762C65.9596 44.5231 72.5103 51.0959 72.5103 59.2002C72.5103 67.3045 65.9596 73.8773 57.8762 73.8773Z" fill="#26120B"/>
<path d="M96.9846 41.6836H92.6778C83.0553 41.6836 75.25 49.6104 75.25 59.3974C75.25 69.1778 83.0488 77.1112 92.6778 77.1112H96.9846C106.607 77.1112 114.412 69.1843 114.412 59.3974C114.412 49.617 106.607 41.6836 96.9846 41.6836ZM96.6418 73.8773H93.0205C84.9371 73.8773 78.3863 67.3045 78.3863 59.2002C78.3863 51.0959 84.9371 44.5231 93.0205 44.5231H96.6418C104.725 44.5231 111.276 51.0959 111.276 59.2002C111.276 67.3045 104.725 73.8773 96.6418 73.8773Z" fill="#26120B"/>
<path d="M114.02 41.4855C114.02 42.3071 113.367 42.9709 112.559 42.9709H38.3404C37.532 42.9709 36.8789 42.3071 36.8789 41.4855C36.8789 40.6639 37.532 40 38.3404 40H112.565C113.367 40.0066 114.02 40.6704 114.02 41.4855Z" fill="#26120B"/>
<path d="M94.0816 79.0177L81.7949 80.7924C81.3228 80.8581 80.896 81.1144 80.5792 81.4694C80.2623 81.1144 79.8355 80.8647 79.3634 80.7924L67.0767 79.0177C66.1067 78.8797 65.3242 79.5633 65.3242 80.5492V97.1522C65.3242 98.1381 66.1132 99.0517 67.0767 99.1898L79.3634 100.964C79.8355 101.03 80.2623 100.905 80.5792 100.642C80.896 100.905 81.3228 101.037 81.7949 100.964L94.0816 99.1898C95.0516 99.0517 95.8341 98.1381 95.8341 97.1522V80.5492C95.8406 79.5633 95.0516 78.8797 94.0816 79.0177Z" fill="#FEA621"/>
<path d="M95.2138 79.3855L81.9053 81.3048C81.3945 81.3771 80.9289 81.6531 80.5861 82.0343C80.2434 81.6531 79.7778 81.3771 79.2669 81.3048L65.952 79.3789C64.9044 79.2277 64.0508 79.9705 64.0508 81.0353V99.0251C64.0508 100.09 64.9044 101.082 65.952 101.234L79.2669 103.159C79.7778 103.232 80.2434 103.094 80.5861 102.811C80.9289 103.094 81.388 103.238 81.9053 103.159L95.2138 101.234C96.2679 101.082 97.115 100.09 97.115 99.0251V81.0418C97.115 79.9705 96.2614 79.2277 95.2138 79.3855Z" fill="#FF8000"/>
<path d="M96.5295 80.4099L82.0182 82.5066C81.4621 82.5921 80.9577 82.8878 80.5826 83.3019C80.2076 82.8878 79.7032 82.5855 79.147 82.5066L64.6358 80.4099C63.4911 80.2456 62.5664 81.054 62.5664 82.2174V101.831C62.5664 102.994 63.4911 104.072 64.6358 104.236L79.147 106.333C79.7032 106.412 80.2076 106.261 80.5826 105.952C80.9577 106.261 81.4621 106.412 82.0182 106.333L96.5295 104.236C97.6741 104.072 98.5988 102.994 98.5988 101.831V82.2174C98.5988 81.054 97.6741 80.2456 96.5295 80.4099Z" fill="#FEA621"/>
<path d="M98.6003 83.1974V82.4086C98.6068 82.1589 98.5939 81.9288 98.5357 81.7119C98.4258 81.2847 98.1865 80.9692 97.9343 80.7654C97.4169 80.3645 96.9384 80.3776 96.7185 80.3776C96.4922 80.3908 96.4599 80.4039 96.6086 80.3776C96.7573 80.3645 97.1065 80.3185 97.5721 80.5157C97.7985 80.6143 98.0507 80.7852 98.2576 81.0546C98.4581 81.3241 98.6068 81.6856 98.6327 82.1063L98.6521 84.9786L98.6844 92.9581L98.7038 97.8548L98.7103 100.484L98.7168 101.838C98.7168 102.318 98.5616 102.791 98.2964 103.199C98.0313 103.599 97.6627 103.935 97.2165 104.145C96.9966 104.25 96.7573 104.322 96.5181 104.355L95.8261 104.461L93.0067 104.875L87.1931 105.729L84.2249 106.163L82.7311 106.38L81.9809 106.492C81.7093 106.524 81.4377 106.505 81.1726 106.432C81.0433 106.393 80.9139 106.34 80.7911 106.275C80.7264 106.242 80.6682 106.209 80.6165 106.163C80.5777 106.137 80.5971 106.15 80.5841 106.15L80.5583 106.169C80.5324 106.189 80.5001 106.209 80.4742 106.229C80.416 106.261 80.3578 106.294 80.2931 106.327C80.1703 106.386 80.0409 106.432 79.9051 106.465C79.64 106.531 79.3555 106.531 79.0968 106.492L78.3467 106.386L75.3526 105.959L69.4161 105.105L66.5061 104.684L65.0705 104.48C64.8313 104.441 64.5985 104.428 64.3398 104.355C64.0941 104.29 63.8548 104.178 63.6414 104.04C63.2146 103.764 62.8654 103.363 62.652 102.903C62.542 102.673 62.4709 102.423 62.4321 102.167C62.3933 101.904 62.4127 101.66 62.4062 101.43V98.591L62.4127 93.0369L62.4321 82.5533C62.4386 82.3495 62.4256 82.1326 62.458 81.9091C62.4903 81.6922 62.555 81.4753 62.6585 81.2781C62.8589 80.8837 63.2081 80.5683 63.6091 80.4105C64.0035 80.2396 64.4627 80.2396 64.8507 80.3185L66.0147 80.4894L70.4896 81.1467L78.5277 82.3429C78.8381 82.3955 79.1356 82.4152 79.446 82.5007C79.7499 82.5861 80.028 82.7307 80.2737 82.9148C80.3319 82.9608 80.3901 83.0133 80.4483 83.0594L80.5324 83.1382L80.5777 83.1842L80.5971 83.2105C80.6035 83.2105 80.61 83.1974 80.6165 83.1908L80.6617 83.1448C80.707 83.0988 80.7717 83.0462 80.8234 83.0002C81.0562 82.8096 81.3084 82.6584 81.58 82.5664C81.8516 82.4612 82.1361 82.4415 82.4077 82.4021L83.2031 82.2903L84.7228 82.08L89.7604 81.3767L94.1771 80.7654C100.211 79.8913 94.106 80.818 82.7311 82.5072C82.3819 82.573 82.0068 82.5861 81.6705 82.6979C81.3278 82.8162 81.0303 83.0068 80.7523 83.2828L80.5906 83.434C80.5389 83.4077 80.4871 83.3288 80.4354 83.2828C80.3449 83.1908 80.2931 83.1514 80.2155 83.0856C80.0668 82.9673 79.9116 82.8687 79.7435 82.7899C79.4072 82.619 79.0257 82.5927 78.6247 82.5335L73.71 81.8368L68.4591 81.0941L65.7366 80.7063L65.0447 80.6077C64.8119 80.5814 64.5791 80.5288 64.3657 80.5288C63.9324 80.5222 63.4991 80.6866 63.1887 80.9955C62.8783 81.3044 62.7102 81.7448 62.7102 82.1983V83.6509L62.7167 86.5824L62.7231 92.5045L62.7296 98.4398V101.384C62.7361 101.628 62.7167 101.877 62.749 102.094C62.7749 102.318 62.8395 102.535 62.9365 102.738C63.1241 103.146 63.4345 103.501 63.8095 103.744C63.9971 103.862 64.1975 103.961 64.4109 104.014C64.6179 104.073 64.8571 104.092 65.0899 104.125L66.4867 104.329L69.2545 104.73L74.6606 105.519L77.2926 105.9L78.5859 106.091L79.2261 106.183C79.4266 106.209 79.6271 106.196 79.8211 106.15C80.0151 106.104 80.1961 106.025 80.3578 105.92L80.4483 105.854L80.5712 105.755C80.61 105.762 80.6553 105.815 80.6941 105.841L80.7911 105.913C80.8687 105.966 80.9527 106.018 81.0433 106.058C81.4054 106.222 81.7934 106.229 82.2073 106.15L84.6776 105.801L93.912 104.493L96.046 104.191C96.4017 104.138 96.7379 104.119 97.0419 103.981C97.3458 103.856 97.6239 103.659 97.8502 103.422C98.3029 102.942 98.5551 102.298 98.5163 101.654L98.5228 99.7149L98.6003 83.1974Z" fill="#4D1F03"/>
<path d="M83.6087 82.2773L82.0115 82.5074C81.4553 82.5928 80.9509 82.8886 80.5759 83.3027C80.2008 82.8886 79.6964 82.5863 79.1402 82.5074L77.543 82.2773V106.104L79.1402 106.334C79.6964 106.413 80.2008 106.262 80.5759 105.953C80.9509 106.262 81.4553 106.413 82.0115 106.334L83.6087 106.104V82.2773Z" fill="#FF8000"/>
<path d="M83.6063 84.4004C83.6063 80.5093 83.6387 82.33 83.671 86.9244L83.7615 106.242L82.0479 106.492C81.7698 106.531 81.4723 106.525 81.1943 106.452C81.0585 106.413 80.9227 106.367 80.7933 106.295C80.7287 106.262 80.6705 106.222 80.6058 106.183L80.5735 106.156C80.567 106.163 80.5864 106.15 80.5605 106.17C80.5282 106.189 80.5023 106.209 80.47 106.229C80.4053 106.268 80.3471 106.301 80.2825 106.334C80.1531 106.393 80.0173 106.439 79.8815 106.472C79.6035 106.538 79.3124 106.531 79.0473 106.485L77.3789 106.249V105.519L77.4177 92.2418L77.4888 82.2051L78.7175 82.3957C78.8986 82.4286 79.0732 82.4483 79.2542 82.4811C79.4288 82.5206 79.5905 82.5732 79.7392 82.6455C80.0432 82.7835 80.2954 82.9741 80.4829 83.1713L80.5411 83.237L80.5735 83.2699L80.6058 83.237C80.6446 83.1976 80.6834 83.1581 80.7351 83.1121C80.8321 83.0267 80.9291 82.9478 81.0197 82.8887C81.4077 82.6323 81.7633 82.5403 82.0026 82.5074L82.3906 82.4548C83.8844 82.2379 83.9232 82.2445 82.9144 82.4023C82.4359 82.5206 81.5629 82.4417 80.8192 83.1318C80.7739 83.1779 80.7351 83.2107 80.6705 83.2764L80.5799 83.3685C80.567 83.4013 80.5541 83.3619 80.5347 83.3488L80.4894 83.3027C80.4247 83.2304 80.373 83.1844 80.3277 83.145C80.276 83.099 80.2243 83.0595 80.1725 83.0201C79.9591 82.8558 79.7069 82.7243 79.4224 82.6389C79.1443 82.56 78.8274 82.5403 78.5106 82.4943L77.6117 82.3694L77.6699 93.07L77.6958 105.519V105.953L79.1443 106.163C79.39 106.196 79.6358 106.189 79.8686 106.124C79.985 106.091 80.0949 106.045 80.1984 105.992C80.2501 105.966 80.3019 105.933 80.3471 105.9L80.4118 105.854L80.4894 105.795C80.5153 105.782 80.5411 105.736 80.567 105.756L80.6446 105.815C80.7739 105.92 80.7933 105.926 80.8451 105.959C80.8968 105.992 80.9485 106.018 81.0003 106.045C81.1102 106.097 81.2201 106.13 81.3365 106.156C81.5693 106.209 81.8021 106.203 82.0479 106.163L83.4253 105.966L83.5158 90.6446L83.6063 84.4004Z" fill="#4D1F03"/>
<path d="M89.6412 102.941C89.6412 102.941 105.009 105.168 116 97.8914C126.991 90.6147 124.321 76.0017 113.092 75.6912C98.4543 75.2936 96.4113 94.7773 89.6412 102.941Z" fill="#1871B1"/>
<path d="M91.5588 100.155C90.6261 101.723 89.9721 102.515 89.7305 102.801C89.4865 103.08 89.6621 102.873 90.1426 102.217C90.6231 101.56 91.3704 100.421 92.2106 98.8184C93.0591 97.2204 93.992 95.1539 95.0351 92.7888C96.0865 90.4283 97.255 87.7509 98.7717 85.0748C100.287 82.4146 102.203 79.7127 104.838 77.8466C106.146 76.9169 107.622 76.2201 109.178 75.8284C110.74 75.4346 112.368 75.3275 113.99 75.472C115.614 75.6235 117.246 76.1229 118.694 77.0577C120.138 77.9786 121.363 79.3642 122.138 80.9582C122.927 82.5545 123.28 84.3387 123.263 86.0367C123.247 87.7417 122.886 89.3744 122.292 90.8218C121.113 93.7371 119.124 95.921 117.008 97.4902C114.867 99.0455 112.628 100.124 110.473 100.928C108.316 101.726 106.234 102.238 104.31 102.589C100.462 103.276 97.2685 103.342 95.0538 103.319C92.8342 103.283 91.5806 103.14 91.5202 103.139C90.3118 103.049 89.711 102.956 89.6375 102.937C89.5581 102.92 90.0036 102.971 90.8826 103.037C92.63 103.157 96.1434 103.337 100.62 102.826C102.855 102.561 105.33 102.119 107.897 101.346C110.457 100.575 113.114 99.4649 115.605 97.8399C118.086 96.2423 120.356 93.9446 121.659 90.9435C122.31 89.451 122.705 87.798 122.731 86.1046C122.76 84.4181 122.41 82.7026 121.673 81.2189C120.948 79.7308 119.846 78.5021 118.589 77.6585C117.328 76.8012 115.927 76.3316 114.541 76.1139C111.761 75.7356 109.031 76.1565 106.756 77.287C104.459 78.4104 102.641 80.2024 101.191 82.0896C99.7372 83.986 98.6192 85.9818 97.6604 87.8397C95.7668 91.5855 94.4286 94.7555 93.343 96.8639C92.2966 98.9887 91.5882 100.105 91.5588 100.155Z" fill="#110B79"/>
<path d="M121.871 83.7715C119.635 87.8022 114.175 90.6009 111.02 92.8348C106.248 96.2081 100.838 97.9202 95.5892 100.211C93.9861 100.909 92.506 101.537 91.0028 102.041C90.8791 102.205 90.7554 102.368 90.627 102.518C90.627 102.518 105.165 104.629 115.57 97.7444C121.174 94.0339 123.022 88.3102 121.871 83.7715Z" fill="#5F99C6"/>
<path d="M15.8471 75.7507C15.8471 75.7507 30.4592 70.3243 42.6397 75.1288C54.8202 79.9333 55.056 94.8072 44.1214 97.4831C29.8673 100.964 24.074 82.3165 15.8471 75.7507Z" fill="#1871B1"/>
<path d="M18.2724 78.0666C17.0535 76.7286 16.2587 76.091 15.9664 75.8621C15.6731 75.6403 15.8853 75.8055 16.4838 76.3469C17.0822 76.8884 18.0361 77.8461 19.1712 79.2381C20.3136 80.6239 21.63 82.4504 23.1125 84.5462C24.6022 86.6357 26.2684 89.0108 28.2753 91.3112C30.2779 93.5961 32.6805 95.8374 35.6238 97.1084C37.0862 97.7425 38.6675 98.1131 40.2672 98.1681C41.873 98.2239 43.4879 97.985 45.0477 97.5008C46.6086 97.0094 48.1088 96.1757 49.345 94.9544C50.5791 93.7476 51.5078 92.1321 51.956 90.4075C52.4176 88.6774 52.4155 86.8556 52.0669 85.1966C51.7193 83.5302 51.0469 82.0077 50.1838 80.7156C48.4606 78.1098 46.0874 76.3913 43.7098 75.3014C41.3105 74.2305 38.9072 73.6477 36.6409 73.315C34.3735 72.9896 32.2349 72.9278 30.2823 72.9902C26.3815 73.1304 23.2415 73.7403 21.0774 74.23C18.9112 74.7342 17.7117 75.1392 17.6527 75.1525C16.4871 75.4959 15.917 75.714 15.8487 75.7481C15.7743 75.7814 16.2007 75.6381 17.0484 75.3877C18.7358 74.9004 22.1407 73.9823 26.6238 73.537C28.8638 73.3253 31.3728 73.2353 34.0367 73.45C36.6943 73.6637 39.5119 74.1902 42.2678 75.2553C45.0079 76.2959 47.6789 78.0666 49.5402 80.7301C50.4688 82.0542 51.1775 83.5896 51.5333 85.2424C51.8901 86.8879 51.8826 88.6416 51.4505 90.2501C51.0308 91.8606 50.1905 93.2968 49.1247 94.3882C48.0569 95.4941 46.7772 96.2499 45.462 96.7559C42.8139 97.7135 40.0596 97.8777 37.6115 97.2512C35.1428 96.6364 33.0137 95.2655 31.2259 93.7236C29.4329 92.1736 27.949 90.4552 26.648 88.8383C24.0635 85.5701 22.1352 82.7484 20.6611 80.913C19.2212 79.0605 18.3099 78.1167 18.2724 78.0666Z" fill="#110B79"/>
<path d="M51.1413 87.7152C48.1661 84.2403 42.2745 82.6527 38.7495 81.1315C33.4196 78.8359 27.7887 78.3019 22.2029 77.1675C20.4972 76.8227 18.9255 76.5202 17.3554 76.3438C17.2024 76.2097 17.0494 76.0757 16.8944 75.9562C16.8944 75.9562 30.717 70.8186 42.2474 75.3626C48.4643 77.8135 51.3832 83.0274 51.1413 87.7152Z" fill="#5F99C6"/>
</svg>
