<svg fill="none" height="137" viewBox="0 0 128 137" width="128" xmlns="http://www.w3.org/2000/svg"><path d="m61.6714 53.6057s-1.3288-13.9039 24.7701-26.3694c26.0985-12.4654 26.1825-26.19487 26.1825-26.19487s15.896 32.49157-50.9526 52.56427z" fill="#4fa0ca"/><path d="m90.2103 30.1577c-17.114 8.1699-22.4374 16.9565-24.0745 22.047 40.3572-13.1917 47.8012-31.0371 48.1262-41.7886-2.783 5.1466-9.203 12.6475-24.0517 19.7416z" fill="#1871b1"/><path d="m67.3614 51.801c-3.0174 1.0001-4.7688 1.5184-5.414 1.7039-.6453.1856-.1843.0305 1.1902-.4033 2.7241-.8992 9.1437-2.897 17.1286-6.4486 3.9842-1.7837 8.3388-3.9757 12.6633-6.6969 4.3161-2.7213 8.5935-6.0033 12.1725-9.9134 3.579-3.8942 6.401-8.4563 7.76-13.3036 1.376-4.8236 1.34-9.90053-.163-14.40215-.14-.39562-.288-.79919-.461-1.16343l.804-.12932c-.191 2.4464-1.125 4.65929-2.25 6.75259-1.15 2.08525-2.592 4.01081-4.184 5.76961-3.192 3.5335-6.9736 6.4317-10.8196 8.8716-1.923 1.2199-3.8703 2.3213-5.8088 3.3358-1.9301 1.0225-3.8927 1.8869-5.7051 2.8075-3.6416 1.8411-6.8572 3.7953-9.5795 5.7763-5.4864 3.9615-8.8658 8.086-10.591 11.1625-1.742 3.0923-2.0467 5.0484-2.0973 5.1192-.4212 1.8449-.335 2.8087-.3442 2.9429.0075.1421-.1055-.5297.0699-1.8629.1838-1.3253.6728-3.3278 1.8833-5.6811 1.1938-2.3534 3.1091-5.0577 5.8356-7.7413 2.7183-2.6915 6.2227-5.3545 10.3196-7.8008 4.0639-2.5175 8.944-4.4537 13.3855-7.1662 4.4831-2.6729 8.7936-5.8363 12.2966-9.5968 1.743-1.8764 3.286-3.89605 4.487-6.03626 1.175-2.12457 2.101-4.42436 2.274-6.67348v-.023687c.018-.189379.211-.338211.437-.321043.167.008916.3.096578.358.223256.198.419664.346.823234.486 1.234644 1.544 4.65188 1.49 9.45187.384 13.85867-1.114 4.4146-3.33 8.4198-6.053 11.8535-2.723 3.4415-5.928 6.3274-9.1714 8.771-3.252 2.4435-6.5433 4.4525-9.6569 6.131-6.2355 3.3649-11.7023 5.4948-15.5086 6.9165-3.823 1.4136-6.0271 2.0949-6.1277 2.1338z" fill="#110b79"/><path d="m70.8094 56.599s1.2559-13.904-24.9083-26.3725c-26.1726-12.4685-26.323-26.19945-26.323-26.19945s-15.71497 32.49615 51.2313 52.57195z" fill="#4fa0ca"/><path d="m70.8094 56.599s1.2559-13.904-24.9083-26.3725c-26.1726-12.4685-26.323-26.19945-26.323-26.19945s-15.71497 32.49615 51.2313 52.57195z" fill="#4fa0ca"/><path d="m18.0977 14.9531c1.0467 10.7757 9.5693 27.4158 47.3851 39.9633-1.8422-5.1511-7.3948-13.6409-24.0092-21.5587-13.6451-6.5022-20.2115-13.3401-23.3759-18.4046z" fill="#1871b1"/><path d="m65.1159 54.795c3.0219 1.0054 4.7753 1.5293 5.4098 1.7305.6345.2013.1585.072-1.2276-.3312-2.7636-.838-9.2346-2.7565-17.3104-6.2403-4.0295-1.7537-8.4497-3.9124-12.8413-6.6315-4.3834-2.7111-8.7632-5.9908-12.4447-9.9372-3.6817-3.9228-6.6145-8.5594-8.0482-13.5028-1.4505-4.9276-1.4607-10.10704.0649-14.74809.1447-.41757.2894-.81935.4843-1.23662.0848-.18107.3195-.26649.5365-.19411.1587.04834.25.16733.2659.30165l-.0002.02368c.1788 2.22758 1.0938 4.45176 2.2023 6.47179 1.1252 2.036 2.5357 3.9237 4.0977 5.6623 3.1406 3.4773 6.8621 6.3661 10.6531 8.8052 1.8998 1.2196 3.8253 2.3288 5.7429 3.3511 1.9093 1.0301 3.8529 1.9105 5.679 2.8611 3.6522 1.8856 6.8688 3.887 9.5917 5.9169 5.4793 4.0522 8.8247 8.2571 10.5037 11.3781 1.6956 3.1369 1.9597 5.0966 2.0095 5.168.432 1.8501.3342 2.8049.325 2.939-.026.142.0534-.5286-.1728-1.8486-.2262-1.312-.7662-3.2891-2.0235-5.6101-1.2405-2.3209-3.1985-4.9699-5.9511-7.6079-2.7443-2.638-6.2666-5.2492-10.3759-7.6429-4.0586-2.4565-8.9571-4.3576-13.5077-7.0777-4.5677-2.6649-8.9732-5.8499-12.5803-9.6538-1.7952-1.8979-3.3887-3.9605-4.6384-6.1472-1.2245-2.20238-2.1976-4.49007-2.4001-6.95465l.8022.13122c-.1695.36215-.3225.77177-.4504 1.16576-1.4746 4.50714-1.4197 9.22097-.3335 13.53057 1.0945 4.3255 3.2536 8.2705 5.918 11.666 2.6727 3.4034 5.817 6.2886 9.0141 8.7399 3.2055 2.4513 6.4553 4.4844 9.5315 6.2007 6.169 3.4247 11.5926 5.6291 15.3728 7.1128 3.7972 1.4443 5.9927 2.1683 6.1012 2.2084z" fill="#110b79"/><path d="m46.2427 128.368s-14.7647 4.261-1.7464 3.819c0 0-1.1111 6.625 2.5987.45 0 0 9.8146 9.148.7688-3.99z" fill="#0c419a"/><path d="m47.5016 128.582c-1.9302-.335-1.5205-.309.4351-.029.4563.619.9208 1.261 1.4929 2.102.5637.824 1.1938 1.76 1.7896 2.814.2895.538.6041 1.069.7587 1.773.0407.189.0133.568-.2385.701-.2268.164-.636.051-.7695-.005-.3588-.136-.6505-.32-.9421-.503-.5833-.375-1.1161-.796-1.6488-1.226l-.7822-.66-.3828-.334c-.0665-.063-.0249-.024-.0416-.032.1013-.157-.262.433-.4898.763-.2532.37-.5147.731-.8347 1.069-.143.141-.2861.29-.4877.415-.1429.126-.6291.296-.9288.058-.3163-.263-.3316-.492-.3889-.689-.0407-.198-.0562-.388-.0634-.577-.0145-.371.0043-.719.04-1.074l.0617-.513c.0174-.118.0173-.102.0174-.11l.0084-.016h-.0251-.0083-.0753l-.1757-.001-.6775.003c-.4517-.002-.8866-.013-1.3215-.031-.8696-.061-1.6892-.074-2.5069-.411-.192-.072-.5164-.366-.4142-.665.1023-.308.2702-.409.4216-.542.3108-.228.6297-.391.9401-.54.6208-.288 1.2076-.505 1.7441-.699 2.1543-.737 3.4862-1.045 3.5198-1.069 1.5502-.448.4523-.107-1.9454.778-.5953.225-1.2744.49-2.0041.809-.3607.164-.7382.335-1.1074.53-.3609.195-.7638.422-.9996.689-.1096.133-.0678.149-.0013.205.125.08.3505.136.5678.177.4428.082.9278.109 1.4212.127.4934.019.9953.014 1.4972.01l1.9494-.06-.0784.505-.0525.387-.0449.505c-.0272.339-.0376.679-.0145 1.002.0074.158.0315.316.0641.459.0163.063.0411.126.0659.174.0248.047.0165.024.0165.031-.1008.063.2601-.124.4539-.36.2863-.306.5393-.652.7841-1.006l.3545-.534.5661-.921.7985.739.4659.422c.3161.278.624.54.932.795.6159.501 1.2402 1.002 1.8657 1.314.075.032.1584.072.2169.088.0334.008.0417.016.0669.008.0503-.023.0587-.031.0511-.149-.0401-.293-.1636-.617-.2872-.91-.2557-.602-.5534-1.156-.8347-1.671-1.1502-2.052-2.0783-3.487-2.4344-4.073z" fill="#110b79"/><path d="m83.1376 128.421s15.2605 2.232 2.3122 3.543c0 0 2.1106 6.408-2.506.798 0 0-8.3276 10.371-1.3734-3.846z" fill="#0c419a"/><path d="m81.9313 128.807c1.9025-.604 1.391-.394-.2688.196-.4921 1.134-1.4158 3.078-2.1737 5.284-.179.552-.3751 1.159-.3867 1.696.0077.11.0078.094.0411.118.0502.001.0082.016.1677-.07.2434-.14.4873-.352.7312-.564.471-.431.9257-.918 1.3553-1.413l.6487-.746.9017-1.107c.6976.833.8305.992 1.1546 1.341.2908.317.5985.619.9064.866.1333.103.2749.199.3916.255.1586.064.1002.032.1085.04-.0086.04.0509-.11.0518-.252.0092-.15.0018-.308-.0139-.466-.0315-.324-.0964-.656-.1698-.972l-.1225-.483-.1064-.379-.1477-.467 1.7493-.179c.4353-.052.8706-.105 1.2808-.166.8122-.129 1.6579-.266 2.2369-.57.235-.133.1686-.212-.1396-.427-.275-.168-.6004-.304-.9092-.417-.6176-.232-1.2188-.402-1.7616-.547-2.1965-.574-3.5417-.819-3.5834-.835-1.6046-.239-.4507-.177 2.1064.242.6351.106 1.362.245 2.1555.431.3925.097.8018.202 1.2276.331.4173.145.8515.274 1.2845.6.0999.072.2495.239.2734.428.0324.182-.0692.379-.2122.504-.2354.204-.4786.297-.7134.391-.4778.171-.9636.286-1.4661.386-.4942.099-1.0049.183-1.5072.251l-.7702.106-.3349.037-.0251.008.0083.016.0082.016.0328.11.139.522c.0816.348.1547.704.1942 1.075.0156.19.0312.372.0132.585-.009.102-.0264.213-.0606.331s-.1356.299-.2784.393c-.1428.102-.3271.14-.511.115-.1755-.025-.2839-.073-.384-.121-.2085-.103-.3584-.215-.5166-.334-.3829-.311-.7071-.636-1.0062-.97l-.4487-.5-.1079-.127c-.0416-.047-.0167-.016-.0249-.032v-.007l-.0084.007c-.0084.008.0168-.015-.0252.024l-.1011.118-.4128.479c-.278.314-.5559.62-.8421.918-.5724.589-1.1195 1.146-1.8249 1.6-.0924.055-.1763.102-.3021.156-.1425.054-.3185.101-.4688.06-.3343-.049-.4489-.452-.4309-.673.0109-.403.1133-.734.2157-1.065.2047-.646.4508-1.229.6883-1.772.9668-2.158 1.7954-3.621 2.1255-4.251z" fill="#110b79"/><path d="m63.7153 131.988c-16.2354-.099-28.6426-5.204-36.8796-15.179-9.1919-11.141-17.55695-34.3968-5.1964-81.9619.2314-.8987.4368-1.6712.4971-1.955.3103-1.4983 1.4554-2.7229 2.9973-3.1794.4525-.1314.913-.1997 1.3646-.1969 1.1125.0068 2.2059.4082 3.0294 1.1633.1414.1272 15.0841 13.3009 35.8698 13.4278 12.0783.0737 24.9671-7.9404 36.2115-16.5251.807-.6188 1.804-.9364 2.808-.9303.452.0027.903.0687 1.345.2056 1.428.4429 2.517 1.5312 2.902 2.8995.639 2.2777 14.333 59.6973-8 86.9344-8.4107 10.244-20.8387 15.395-36.9487 15.297z" fill="#0d3795"/><path d="m76.5394 130.802c-3.3668.682-6.07.918-8.0951 1.048-2.025.114-3.3717.122-4.0911.117-1.4469-.024-.3849.03 2.7275-.094 1.5563-.069 3.6233-.214 6.1266-.578 2.5032-.356 5.4345-.954 8.6363-2.008 3.1934-1.054 6.6658-2.589 10.0422-4.85 3.3847-2.245 6.6485-5.233 9.4482-8.895 2.799-3.662 5.084-7.999 6.828-12.733 1.744-4.7427 2.971-9.8909 3.765-15.2706 1.571-10.7597 1.475-22.4059.292-34.2009-.599-5.9015-1.466-11.852-2.626-17.7648-.293-1.4782-.601-2.9565-.944-4.4271-.188-.7354-.3-1.4862-.639-2.0883-.34-.6179-.855-1.15-1.489-1.5092-1.25-.7419-2.939-.768-4.198-.0414-.319.1639-.597.399-.916.6418l-.933.7049-1.8821 1.3939c-5.0497 3.68-10.2986 7.1061-15.9192 9.7721-5.5871 2.6424-11.6716 4.5633-17.8105 4.4153-6.0638-.1001-12.0037-1.3207-17.4956-3.3122-5.5002-1.9917-10.5946-4.7072-15.142-7.9404-1.1244-.7964-2.2565-1.6876-3.2634-2.5464-1.0159-.7563-2.4281-.9939-3.6515-.646-1.2317.3319-2.2578 1.2573-2.6746 2.3838-.1104.2836-.1624.5675-.2481.9065l-.24.9459-.4882 1.8762c-1.2767 4.982-2.3774 9.8941-3.2684 14.7206-1.7903 9.6372-2.7755 18.924-2.7115 27.6251.0558 8.6852 1.1856 16.8085 3.5433 23.8652 2.3241 7.057 5.9768 12.993 10.2921 17.251 4.29 4.306 9.0334 6.948 13.0803 8.599 4.0719 1.652 7.4803 2.375 9.8114 2.816 2.348.417 3.6521.543 3.7691.559 4.7898.519 7.1996.408 7.5088.457.3179-.006-1.4559.07-4.9593-.165-3.4782-.266-8.7781-.803-15.0128-3.068-3.0964-1.132-6.4074-2.739-9.6057-5.001-3.1984-2.246-6.2587-5.178-8.8553-8.723-2.5965-3.545-4.7126-7.695-6.2743-12.221-1.5784-4.5256-2.6192-9.4271-3.2154-14.5311-1.184-10.2238-.5731-21.2262 1.1344-32.3798.8538-5.5847 1.9923-11.2071 3.3399-16.8362l1.0546-4.2176c.18-.7015.3683-1.4031.5231-2.1048.1636-.7649.5528-1.481 1.1001-2.0698 1.0946-1.1776 2.8797-1.7352 4.5089-1.4173.8104.1549 1.5861.515 2.2019 1.0398.5658.5009 1.1485.9545 1.7397 1.4081 9.5758 7.1484 21.5173 11.8322 33.5028 12.0238 5.9716.139 11.721-1.6892 16.9217-4.0734 5.226-2.4157 10.0208-5.4498 14.5405-8.6357 1.1341-.7984 2.2432-1.6048 3.344-2.4271l1.6383-1.2296c.563-.4466 1.26-.7818 1.988-.9353 1.458-.3385 3.062.0503 4.177.965.566.4535 1.006 1.0326 1.295 1.6738.28.665.377 1.2893.54 1.9219 1.14 5.0363 1.98 10.0076 2.653 14.8752 1.329 9.7352 1.891 19.0788 1.637 27.8016-.254 8.7229-1.332 16.8406-3.367 24.0287-2.018 7.1808-5.042 13.3988-8.777 18.1528-3.726 4.778-8.0038 8.068-11.8144 10.192-3.8273 2.132-7.138 3.21-9.4088 3.867-2.2875.641-3.577.854-3.6944.893z" fill="#110b79"/><path d="m63.7759 126.463c-15.1481-.093-26.7221-4.672-34.405-13.601-8.58-9.977-16.3911-30.797-4.8639-73.3773.214-.8041.4022-1.4977.4623-1.75.2843-1.3405 1.3616-2.4313 2.8029-2.8489.419-.1238.8459-.1764 1.2725-.1738 1.0372.0063 2.0555.3678 2.8293 1.0357.1248.1113 14.0722 11.9052 33.4527 12.0235 11.2669.0687 23.2891-7.1058 33.7668-14.7872.7478-.5481 1.6785-.8346 2.6235-.8288.418.0025.844.0604 1.253.1892 1.328.395 2.351 1.3723 2.711 2.5983.599 2.0328 13.384 53.4542-7.4424 77.8343-7.8436 9.174-19.4402 13.777-34.4627 13.686z" fill="#45b9d5"/><path d="m120.787 128.822s8.712-17.174 5.447-33.1586c-3.266-15.9843-20.011-18.9367-24.967-5.837-6.4532 17.0776 13.566 27.6136 19.52 38.9956z" fill="#1871b1"/><path d="m118.591 125.398c1.294 1.753 1.873 2.854 2.08 3.258.198.404.049.111-.456-.729s-1.417-2.196-2.787-3.854c-1.361-1.667-3.19-3.628-5.292-5.844-2.095-2.223-4.48-4.717-6.721-7.62-2.224-2.896-4.328-6.28-5.241-10.162-.4569-1.9292-.5951-3.9591-.3738-5.9553.2218-2.0041.7768-3.9666 1.5998-5.817.831-1.8504 2.038-3.5642 3.635-4.8809 1.581-1.3167 3.568-2.181 5.594-2.4292 2.034-.2639 4.09.0645 5.901.794 1.819.7296 3.418 1.8368 4.723 3.1396 2.636 2.6057 4.155 5.86 4.964 9.0073.784 3.1708 1.016 6.2595.99 9.1335-.034 2.873-.343 5.54-.759 7.953-.85 4.819-2.094 8.609-3.03 11.209-.953 2.6-1.622 4.017-1.648 4.088-.594 1.386-.941 2.055-.991 2.133-.051.087.186-.417.619-1.425.849-2.008 2.488-6.072 3.785-11.559.635-2.744 1.181-5.844 1.411-9.19.229-3.338.134-6.9311-.58-10.5436-.689-3.5887-2.215-7.222-4.891-10.0096-1.33-1.3898-2.937-2.5444-4.739-3.2818-1.794-.7373-3.775-1.0415-5.667-.7925-1.892.2332-3.662 1.0198-5.082 2.1481-1.437 1.1282-2.517 2.5822-3.321 4.1248-1.55 3.1171-2.223 6.508-1.949 9.6599.256 3.1757 1.426 6.0647 2.85 8.5597 1.432 2.504 3.108 4.654 4.703 6.559 3.231 3.793 6.074 6.692 7.884 8.851 1.844 2.119 2.748 3.42 2.789 3.475z" fill="#110b79"/><path d="m113.531 82.8594c3.395 4.3158 4.143 11.9156 5.236 16.5648 1.647 7.0288 1.252 14.1168 1.543 21.2558.087 2.18.15 4.185.071 6.167.124.214.249.428.356.641 0 0 8.246-16.245 5.16-31.3758-1.665-8.1503-7.032-12.715-12.366-13.2528z" fill="#5f99c6"/><path d="m7.07779 123.922s-8.50192-17.279-5.042-33.2225c3.45992-15.9433 20.23971-18.6911 25.03611-5.5319 6.2441 17.1554-13.9024 27.4384-19.99411 38.7544z" fill="#1871b1"/><path d="m9.3085 120.525c-1.31551 1.737-1.90771 2.831-2.11928 3.232-.20321.401-.05086.11.46448-.724.51533-.833 1.44366-2.178 2.8339-3.819 1.3819-1.65 3.2339-3.589 5.3636-5.779 2.1213-2.197 4.537-4.662 6.8131-7.538 2.2592-2.868 4.4044-6.2258 5.3649-10.0966.4801-1.9235.6431-3.9516.4461-5.9503-.1968-2.0066-.7285-3.9758-1.5286-5.8361-.8084-1.8604-1.994-3.5888-3.5751-4.9248-1.5645-1.336-3.5415-2.2244-5.5641-2.4973-2.0309-.2888-4.0905.0145-5.9099.7219-1.8279.7073-3.44055 1.7949-4.76167 3.0817-2.66734 2.5734-4.2262 5.8088-5.07345 8.946-.82231 3.161-1.092075 6.2465-1.101245 9.1203-.000806 2.8742.275665 5.5442.662425 7.9622.79028 4.829 1.98832 8.634 2.89252 11.245.92092 2.611 1.57304 4.036 1.5977 4.108.57703 1.393.91588 2.066.96559 2.145.04965.087-.18147-.419-.60189-1.433-.82416-2.018-2.41365-6.102-3.64315-11.604-.60221-2.752-1.11024-5.857-1.29892-9.206-.18874-3.3412-.04972-6.9327.70837-10.5362.73285-3.5801 2.30239-7.1944 5.01265-9.9492 1.34675-1.3734 2.96807-2.5084 4.77927-3.2237 1.8028-.7154 3.7869-.9954 5.6757-.7233 1.8889.2563 3.6489 1.0644 5.0556 2.21 1.4233 1.1456 2.4851 2.6127 3.2703 4.165 1.5116 3.1357 2.1433 6.5346 1.8313 9.6829-.2954 3.1722-1.5007 6.0466-2.9546 8.5245-1.4622 2.486-3.1649 4.616-4.7825 6.501-3.2768 3.754-6.155 6.618-7.9915 8.754-1.8615 2.097-2.78108 3.386-2.8316 3.441z" fill="#110b79"/><path d="m14.8971 78.0502c-3.4473 4.274-4.2883 11.8642-5.43744 16.4996-1.73245 7.0082-1.4244 14.1002-1.80252 21.2352-.11367 2.179-.20119 4.184-.14637 6.166-.12676.212-.25353.424-.36357.637 0 0-8.047558-16.345-4.77686-31.4369 1.76443-8.1373 7.18711-12.6282 12.52676-13.1009z" fill="#5f99c6"/><g fill="#c7eaf2"><path d="m28.202 51.2469c-.9201-.0056-1.8301-.2954-2.5879-.8527-1.3073-.9712-1.8998-2.5697-1.5058-4.0911l1.5336-5.9437c.3427-1.3322 1.3865-2.4075 2.761-2.8413.4525-.1393.9214-.2154 1.3815-.2126.9452.0058 1.8801.3115 2.6378.8925l4.1296 3.1596c1.1074.8516 1.6932 2.1658 1.5512 3.5071-.142 1.3414-.994 2.5205-2.2526 3.1444l-5.6632 2.7841c-.6208.3041-1.3077.4579-1.9852.4537z"/><path d="m101.602 50.9056c.92.0057 1.834-.273 2.598-.821 1.319-.9552 1.931-2.5463 1.556-4.0724l-.488-7.8509c-.326-1.3364-1.357-2.4243-2.726-2.8748-.451-.1528-.919-.2267-1.379-.2295-.945-.0057-1.8835.2885-2.6481.8602l-5.1414 4.998c-1.1177.838-1.7195 2.1449-1.5939 3.4879.1257 1.343.9549 2.5324 2.2141 3.1717l5.6288 2.8529c.6255.3118 1.3015.4738 1.9795.4779z"/><path d="m84.2543 51.8413c-8.3561-.051-15.5781 4.579-18.8897 11.2857-3.2294-6.7466-10.3943-11.4643-18.7504-11.5153-11.4343-.0698-20.7555 8.6214-20.8213 19.4139-.0659 10.7925 9.1486 19.5968 20.5828 19.6666 8.3561.051 15.5781-4.579 18.8896-11.2856 3.2295 6.7465 10.3944 11.4643 18.7505 11.5152 11.4342.0698 20.7552-8.6214 20.8212-19.4139s-9.1485-19.5968-20.5827-19.6666z"/></g><path d="m84.7247 51.773c-8.5652-.0522-15.9629 4.5925-19.3583 11.3302-3.3129-6.7708-10.6534-11.5133-19.2186-11.5656-11.7186-.0715-21.2658 8.6499-21.3319 19.4819s9.374 19.6693 21.0926 19.7408c8.5652.0522 15.9629-4.5925 19.3583-11.3302 3.313 6.7708 10.6534 11.5133 19.2186 11.5655 11.7186.0716 21.2656-8.6498 21.3316-19.4818.066-10.8321-9.3737-19.6693-21.0923-19.7408zm-1.4031 38.0312c-8.0466-.0491-14.9455-4.4967-18.0518-10.8636-3.1837 6.3206-10.1364 10.6917-18.183 10.6426-11.0077-.0672-19.8739-8.3719-19.8118-18.5487.0621-10.1767 9.0374-18.3726 20.0366-18.3055 8.0466.0491 14.9455 4.4968 18.0518 10.8636 3.1922-6.3283 10.1448-10.6915 18.1831-10.6425 11.0076.0672 19.8735 8.3719 19.8115 18.5487-.054 10.1767-9.0288 18.3726-20.0364 18.3054z" fill="#76cce0"/><path d="m60.7472 71.2393c-.0385 6.3002-5.4814 11.3674-12.1479 11.3267-6.6748-.0407-12.0471-5.1739-12.0087-11.4741.0384-6.3003 5.4814-11.3675 12.1478-11.3268 6.6665.0407 12.0472 5.1739 12.0088 11.4742z" fill="#fff"/><path d="m95.1704 71.4497c-.0442 7.2318-6.2863 13.0521-13.9482 13.0053-7.6618-.0467-13.8325-5.9427-13.7884-13.1746.0441-7.2318 6.2947-13.0521 13.9481-13.0054 7.6619.0468 13.8326 5.9428 13.7885 13.1747z" fill="#fff"/><path d="m48.3339 78.466c4.1576.0254 7.5474-3.1353 7.5714-7.0596.0239-3.9243-3.3271-7.1261-7.4847-7.1515s-7.5474 3.1353-7.5714 7.0596c-.0239 3.9243 3.3271 7.1261 7.4847 7.1515z" fill="#26120b"/><path d="m50.0586 71.3705c1.3858.0085 2.5158-1.0451 2.5237-2.3532.008-1.3081-1.109-2.3754-2.4948-2.3838-1.3859-.0085-2.5158 1.0451-2.5238 2.3532s1.109 2.3754 2.4949 2.3838z" fill="#fff"/><path d="m82.2239 77.8839c3.6956.0225 6.7088-2.787 6.7301-6.2753.0213-3.4882-2.9574-6.3343-6.6531-6.3568-3.6956-.0226-6.7088 2.7869-6.7301 6.2752-.0212 3.4882 2.9574 6.3343 6.6531 6.3569z" fill="#26120b"/><path d="m85.571 69.479c-.0071 1.1606-1.0083 2.1019-2.2462 2.0943-1.2296-.0075-2.2276-.9531-2.2205-2.1216.0071-1.1605 1.0083-2.1019 2.2462-2.0943 1.2379.0075 2.2275.961 2.2205 2.1216z" fill="#fff"/><path d="m64.8418 87.5136c-.6524-.0198-1.2442-.355-1.5588-.8938l-3.3254-7.4656c-.3808-.6576-.2755-1.4702.2632-2.0196.2357-.2354 2.3646-2.3068 5.2838-2.289 1.2714.0078 3.1425.4298 4.8954 2.4064.5068.5716.5687 1.3852.155 2.0222l-4.1106 7.4202c-.3377.5111-.9335.8233-1.5692.8194-.0083 0-.0251-.0001-.0334-.0002z" fill="#0d3795"/><path d="m66.066 87.1019c-.3951.3134-.7718.3664-.9727.3888-.2092.0067-.2761.0062-.2174-.0092.0586-.0154.2343-.0222.5025-.1075.2598-.0852.6122-.2647.8821-.6183l4.0281-7.6181.0084-.0079v-.0079c.2956-.464.2827-1.0878-.0408-1.5319-.3736-.4602-.8977-.9371-1.4141-1.2956-1.0661-.7565-2.3602-1.1513-3.5986-1.0878-1.1462.0483-2.2443.4284-3.1845.9675-.4701.2735-.9069.5787-1.3021.9158-.2018.1725-.3784.3293-.4882.5023-.1182.1809-.1947.3778-.2127.583-.0264.2051-.0025.4105.0632.6083.0411.1108.066.1504.1403.3167l.1401.3324.536 1.2745.9479 2.2954 1.3514 3.348c.2962.8071.9059.9687.889.9923.4505.1922.71.1622.7349.1861.0335.0002-.1508.0385-.5099-.0426-.3425-.0889-.9098-.3214-1.2238-.9549l-1.0079-2.0747-1.247-2.6368-.6936-1.4728-.355-.768c-.0579-.1188-.1238-.2771-.1818-.3722-.0827-.1505-.1403-.3009-.1812-.4669-.1716-.6564.0588-1.3971.5719-1.8756.4545-.4473.9587-.8311 1.5044-1.1672 1.0832-.6724 2.3659-1.1383 3.671-1.1856 1.6066-.0771 3.1336.5244 4.2408 1.3996.2831.2149.5409.4534.7821.6917.2327.2462.4739.4687.6642.8094.3641.6496.2924 1.4387-.0959 2.0048l.0085-.0157c-1.3441 2.313-2.4935 4.2404-3.3132 5.6013l-.9632 1.5889c-.2282.3697-.4548.4947-.4632.5104z" fill="#110b79"/><path d="m29.3805 112.863c7.683 8.929 19.257 13.508 34.405 13.6 15.0226.092 26.6108-4.511 34.4544-13.693 1.3564-1.587 2.5631-3.285 3.6441-5.078-8.7001 2.947-22.7846 4.021-37.6466-10.0441 0 0-17.8212 14.3951-40.1357 7.0981 1.5943 3.286 3.4183 5.958 5.2788 8.117z" fill="#c7eaf2"/><g fill="#6ec9de"><path d="m46.3145 108.068s4.6253 4.182 9.2929.057c0 0-4.8757 8.055-9.2929-.057z"/><path d="m58.8086 104.45s4.6253 4.181 9.2929.057c0 0-4.8756 8.055-9.2929-.057z"/><path d="m70.7695 108.685s4.6253 4.181 9.2929.056c0 0-4.8755 8.047-9.2929-.056z"/><path d="m63.4023 113.716s4.6253 4.181 9.293.057c0 0-4.8756 8.047-9.293-.057z"/><path d="m50.6758 114.333s4.6253 4.181 9.2929.057c0 0-4.8756 8.047-9.2929-.057z"/><path d="m57.4863 120.604s4.6253 4.182 9.2929.057c0 0-4.8756 8.055-9.2929-.057z"/><path d="m78.0625 115.652s4.6253 4.182 9.2929.057c0 0-4.8756 8.047-9.2929-.057z"/><path d="m37.4746 113.092s4.6253 4.181 9.2929.056c0 0-4.8756 8.056-9.2929-.056z"/><path d="m68.9844 120.217s4.6253 4.181 9.2929.056c.0084.001-4.8672 8.048-9.2929-.056z"/><path d="m44.7695 119.831s4.6253 4.181 9.2929.057c0 0-4.8672 8.055-9.2929-.057z"/></g></svg>