<svg width="124" height="121" viewBox="0 0 124 121" fill="none" xmlns="http://www.w3.org/2000/svg">
<path d="M63.6035 113.43C63.6035 113.43 51.602 116.918 62.2003 116.5C62.2003 116.5 61.3285 121.818 64.3186 116.848C64.3186 116.848 72.3559 124.135 64.9248 113.645L63.6035 113.43Z" fill="#FF6400"/>
<path d="M64.6296 113.593C63.0562 113.334 63.39 113.352 64.9838 113.568C65.3584 114.062 65.7399 114.574 66.2098 115.245C66.673 115.904 67.1907 116.651 67.6811 117.493C67.9195 117.923 68.1783 118.347 68.3077 118.911C68.3418 119.063 68.3213 119.367 68.117 119.474C67.9331 119.607 67.5993 119.519 67.4904 119.474C67.1975 119.367 66.9591 119.221 66.7207 119.075C66.2439 118.778 65.808 118.442 65.372 118.101L64.7386 117.581L64.4253 117.316C64.3708 117.265 64.4048 117.297 64.3912 117.29C64.473 117.164 64.1801 117.638 63.9962 117.904C63.7918 118.202 63.5807 118.493 63.3219 118.765C63.2129 118.879 63.0903 118.999 62.9268 119.101C62.811 119.202 62.416 119.341 62.1708 119.151C61.9119 118.943 61.8983 118.759 61.8506 118.601C61.8166 118.442 61.8029 118.29 61.7961 118.139C61.7825 117.841 61.7961 117.556 61.8234 117.278L61.8711 116.866C61.8847 116.771 61.8847 116.784 61.8847 116.777L61.8915 116.765H61.8711H61.8642H61.8029H61.6599L61.1082 116.771C60.7404 116.771 60.3862 116.765 60.032 116.752C59.3237 116.708 58.6561 116.701 57.9886 116.436C57.832 116.379 57.5663 116.144 57.6481 115.904C57.7298 115.657 57.866 115.575 57.9886 115.467C58.2407 115.283 58.4995 115.15 58.7515 115.03C59.2555 114.796 59.7323 114.619 60.1682 114.46C61.9187 113.859 63.0017 113.606 63.029 113.587C64.2891 113.22 63.3968 113.498 61.4488 114.22C60.9652 114.403 60.4135 114.619 59.8209 114.878C59.528 115.011 59.2215 115.15 58.9218 115.309C58.6289 115.467 58.302 115.651 58.1112 115.866C58.0227 115.967 58.0568 115.986 58.1112 116.03C58.2134 116.094 58.3973 116.138 58.5744 116.17C58.9354 116.233 59.3305 116.252 59.7323 116.265C60.1342 116.277 60.5429 116.271 60.9515 116.265L62.5386 116.208L62.4773 116.613L62.4364 116.923L62.4023 117.328C62.3819 117.6 62.3751 117.873 62.3955 118.132C62.4023 118.259 62.4228 118.385 62.45 118.499C62.4636 118.55 62.4841 118.601 62.5045 118.639C62.5249 118.677 62.5181 118.658 62.5181 118.664C62.4364 118.715 62.7293 118.563 62.8859 118.373C63.1175 118.126 63.3219 117.841 63.5194 117.562L63.8055 117.132L64.2618 116.391L64.9157 116.98L65.2971 117.316C65.556 117.537 65.808 117.746 66.06 117.949C66.564 118.347 67.0749 118.746 67.5857 118.993C67.647 119.018 67.7151 119.05 67.7628 119.063C67.79 119.069 67.7969 119.075 67.8173 119.069C67.8582 119.05 67.865 119.044 67.8582 118.949C67.8241 118.715 67.7219 118.455 67.6198 118.221C67.4086 117.74 67.1634 117.297 66.9318 116.885C65.9851 115.245 65.2222 114.1 64.9293 113.631L64.6296 113.593Z" fill="#FE160B"/>
<path d="M93.6512 113.285C93.6512 113.285 106.089 115.001 95.5515 116.115C95.5515 116.115 97.302 121.243 93.515 116.767C93.515 116.767 86.7854 125.124 92.3775 113.69L93.6512 113.285Z" fill="#FF6400"/>
<path d="M92.6633 113.603C94.2094 113.109 93.7939 113.28 92.4453 113.761C92.0503 114.673 91.3078 116.236 90.7016 118.009C90.5586 118.452 90.4019 118.94 90.3951 119.37C90.4019 119.459 90.4019 119.446 90.4292 119.465C90.47 119.465 90.436 119.478 90.5654 119.408C90.7629 119.294 90.9605 119.123 91.158 118.952C91.5394 118.604 91.9072 118.212 92.2546 117.813L92.7791 117.211L93.5079 116.319C94.08 116.983 94.189 117.11 94.4546 117.389C94.693 117.642 94.945 117.882 95.1971 118.079C95.306 118.161 95.4218 118.237 95.5172 118.281C95.6466 118.332 95.5989 118.307 95.6057 118.313C95.5989 118.345 95.6466 118.224 95.6466 118.11C95.6534 117.99 95.6466 117.863 95.633 117.737C95.6057 117.477 95.5512 117.211 95.4899 116.958L95.3878 116.572L95.2992 116.268L95.1766 115.895L96.6002 115.743C96.9544 115.698 97.3085 115.654 97.6423 115.603C98.303 115.496 98.9909 115.382 99.4609 115.135C99.6516 115.027 99.5971 114.964 99.3451 114.793C99.1203 114.66 98.8547 114.552 98.6095 114.464C98.1055 114.28 97.615 114.147 97.1723 114.033C95.381 113.584 94.2843 113.394 94.2503 113.381C92.9425 113.198 93.8825 113.242 95.9667 113.565C96.4844 113.647 97.077 113.755 97.724 113.9C98.0442 113.976 98.3779 114.059 98.7253 114.16C99.0658 114.274 99.42 114.375 99.7742 114.635C99.856 114.692 99.9786 114.825 99.999 114.977C100.026 115.122 99.9445 115.28 99.8287 115.382C99.638 115.546 99.4405 115.622 99.2497 115.698C98.8615 115.838 98.4665 115.933 98.0578 116.015C97.6559 116.097 97.2404 116.167 96.8318 116.224L96.2051 116.312L95.9327 116.344L95.9122 116.35L95.919 116.363L95.9259 116.376L95.9531 116.464L96.0689 116.882C96.137 117.161 96.1983 117.446 96.2324 117.743C96.246 117.895 96.2596 118.041 96.246 118.212C96.2392 118.294 96.2256 118.383 96.1983 118.477C96.1711 118.572 96.0893 118.718 95.9735 118.794C95.8577 118.876 95.7079 118.908 95.558 118.889C95.415 118.87 95.3265 118.832 95.2447 118.794C95.0744 118.712 94.9518 118.623 94.8224 118.528C94.5091 118.281 94.2435 118.022 93.9983 117.756L93.6305 117.357L93.5419 117.256C93.5079 117.218 93.5283 117.243 93.5215 117.23V117.224L93.5147 117.23C93.5079 117.237 93.5283 117.218 93.4942 117.249L93.4125 117.344L93.0788 117.73C92.854 117.984 92.6292 118.231 92.3976 118.471C91.9345 118.946 91.4917 119.395 90.9196 119.763C90.8447 119.807 90.7765 119.845 90.6744 119.889C90.5586 119.934 90.4155 119.972 90.2929 119.94C90.0205 119.902 89.9251 119.579 89.9388 119.402C89.9456 119.079 90.0273 118.813 90.109 118.547C90.2725 118.028 90.47 117.56 90.6608 117.123C91.4372 115.388 92.1047 114.211 92.3704 113.704L92.6633 113.603Z" fill="#FE160B"/>
<path d="M79.8352 116.295C79.0724 116.295 78.2891 116.276 77.5058 116.244C63.4473 115.649 52.8967 110.641 46.1536 101.373C29.718 78.7536 43.0545 34.0333 43.2043 33.6282C43.8037 32.0455 45.2 30.8427 46.9437 30.4185C47.4 30.3046 47.8632 30.2539 48.3264 30.2539C49.6409 30.2539 50.9146 30.6971 51.9023 31.5011C52.1066 31.672 52.2973 31.8556 52.454 32.0645L58.3321 41.7252C62.5823 40.2881 69.8022 38.4142 78.5002 38.4142C85.3251 38.4142 91.8707 39.5791 97.994 41.8708L104.24 36.7429C105.234 35.9262 106.508 35.4768 107.836 35.4768C108.381 35.4768 108.926 35.5527 109.451 35.7047C111.249 36.2238 112.652 37.6039 113.108 39.3005C113.428 40.4907 116.255 51.3036 116.957 64.5031C117.91 82.3684 114.614 95.9225 107.155 104.798C100.753 112.427 91.5642 116.288 79.8352 116.295Z" fill="#FF1800"/>
<path d="M90.2655 115.118C87.8748 115.694 85.8791 115.947 84.3125 116.093C82.7459 116.239 81.6084 116.258 80.8728 116.277C79.4015 116.283 79.5378 116.277 81.0499 116.245C82.5483 116.182 85.4431 116.099 89.3392 115.257C93.1943 114.409 98.1325 112.681 102.676 109.022C104.937 107.205 107.076 104.938 108.908 102.279C110.747 99.6205 112.273 96.5754 113.465 93.2771C115.849 86.6615 116.857 79.0647 116.904 71.1449C116.945 63.2125 116.08 54.9256 114.486 46.626C114.084 44.5496 113.642 42.4731 113.124 40.4093C112.988 39.8965 112.879 39.3647 112.695 38.8962C112.511 38.4214 112.239 37.9719 111.905 37.5794C111.237 36.7818 110.284 36.1867 109.242 35.9208C108.193 35.6422 107.055 35.6992 106.034 36.0537C105.523 36.2373 105.046 36.4905 104.624 36.8071L103.343 37.8517L98.0712 42.1882L97.0359 41.8147L96.1641 41.5108C95.5783 41.3146 94.9925 41.131 94.4067 40.9537C93.2284 40.6055 92.0364 40.2953 90.8376 40.0294C88.4401 39.4976 86.0153 39.1241 83.5837 38.9152C78.7272 38.4974 73.8912 38.7063 69.2528 39.3963C67.3933 39.6749 65.5611 40.0358 63.7561 40.4662C62.857 40.6815 61.9579 40.9157 61.0725 41.169L59.7511 41.5615L58.2049 42.0616L54.7312 36.3449L53.076 33.6164L52.2519 32.2616C52.0067 31.9008 51.5776 31.5589 51.1485 31.293C49.3911 30.1915 46.9323 30.2801 45.2771 31.445C44.4462 32.0084 43.8059 32.8314 43.479 33.7114C43.1929 34.661 42.9273 35.6359 42.6821 36.5982C40.7068 44.328 39.4127 51.8995 38.7179 59.1292C38.0368 66.3589 37.9891 73.272 38.7383 79.6597C39.4808 86.0411 41.0542 91.9097 43.5675 96.835C46.0673 101.767 49.5478 105.628 53.1441 108.351C56.7541 111.092 60.4322 112.725 63.5177 113.763C66.6168 114.802 69.1506 115.276 70.8943 115.561C72.638 115.84 73.612 115.928 73.7005 115.941C77.4263 116.315 79.3811 116.258 79.7762 116.283C80.1712 116.283 79.0133 116.334 76.5476 116.213C74.0888 116.074 70.2881 115.783 65.6156 114.529C63.2861 113.896 60.7455 113.004 58.164 111.7C55.5826 110.402 52.9602 108.68 50.5491 106.47C48.1379 104.267 45.9242 101.583 44.1329 98.5C42.3415 95.4106 40.9656 91.9413 39.9712 88.2569C37.9823 80.8626 37.4714 72.6453 37.8733 64.2001C38.2956 55.7423 39.617 47.0185 41.6808 38.3518C41.9396 37.2692 42.2121 36.1867 42.505 35.1041C42.6548 34.5597 42.791 34.0406 42.9818 33.4708C43.1997 32.92 43.5062 32.4009 43.9081 31.9514C44.6982 31.0398 45.822 30.3814 47.0481 30.1155C48.2741 29.8433 49.6023 29.9699 50.7398 30.4574C51.3119 30.7043 51.8364 31.0271 52.2996 31.445C52.4153 31.5526 52.5243 31.6602 52.6197 31.7805L52.6946 31.8691C52.7355 31.9198 52.7559 31.9641 52.7695 31.9831L52.8785 32.1667L53.3212 32.8947L55.0785 35.8068L58.4706 41.3842L59.574 41.0297L60.9226 40.6245C61.8285 40.3649 62.7344 40.1307 63.6471 39.9091C65.4657 39.4723 67.3048 39.1178 69.1438 38.8392C74.1364 38.0922 79.17 37.9276 84.0673 38.3961C86.5125 38.6303 88.9237 39.0228 91.2736 39.5609C92.4451 39.8332 93.603 40.137 94.7473 40.4852C95.3195 40.6562 95.8848 40.8398 96.4433 41.0297L97.2811 41.3209L97.9486 41.5615L102.301 37.9973L103.411 37.0856C103.786 36.7881 104.133 36.4652 104.562 36.1867C105.4 35.6359 106.401 35.3067 107.423 35.2371C109.466 35.0725 111.517 36.0474 112.6 37.6111C112.872 37.9973 113.097 38.4151 113.253 38.8582C113.41 39.3077 113.499 39.7255 113.608 40.156C113.819 41.0107 114.016 41.8653 114.207 42.72C115.699 49.5318 116.618 56.1411 117.054 62.4275C117.483 68.7139 117.408 74.6901 116.761 80.2042C116.114 85.7182 114.875 90.7702 113.056 95.1384C111.251 99.5066 108.853 103.166 106.245 105.951C103.643 108.756 100.877 110.699 98.4663 112.003C96.0483 113.314 93.9981 114.042 92.5745 114.479C91.151 114.922 90.3472 115.093 90.2655 115.118Z" fill="#8A0101"/>
<path d="M80.7569 113C80.0374 113 79.2909 112.981 78.5511 112.956C65.3367 112.408 55.4411 107.871 49.1563 99.4642C33.4036 78.3895 46.3465 36.4479 46.4822 36.0326C46.8419 35.1075 47.731 34.365 48.8373 34.1007C49.1224 34.0315 49.421 34 49.7129 34C50.5477 34 51.3553 34.2769 51.9797 34.774C52.0544 34.8307 52.1223 34.8999 52.1833 34.9691L58.6989 45.3963L60.2124 44.8992C64.4747 43.4959 71.2686 41.8283 79.4334 41.8283C85.9015 41.8283 92.132 42.9043 97.9281 45.0187L99.0208 45.4152L106.059 39.7957C106.69 39.2923 107.505 39.0154 108.339 39.0154C108.686 39.0154 109.032 39.0657 109.364 39.1538C110.505 39.4747 111.394 40.3243 111.686 41.3752C111.998 42.5016 114.74 52.7274 115.418 65.1872C116.335 81.8757 113.219 94.4802 106.168 102.648C100.243 109.514 91.6908 113 80.7569 113Z" fill="#FF6600"/>
<path d="M93.7234 48.7148C86.9189 48.7148 81.0612 52.4626 78.398 57.8564C75.7348 52.4626 69.8771 48.7148 63.0727 48.7148C53.7617 48.7148 46.2148 55.7293 46.2148 64.3834C46.2148 73.0375 53.7617 80.0519 63.0727 80.0519C69.8771 80.0519 75.7348 76.3041 78.398 70.9104C81.0612 76.3041 86.9189 80.0519 93.7234 80.0519C103.034 80.0519 110.581 73.0375 110.581 64.3834C110.581 55.7293 103.034 48.7148 93.7234 48.7148Z" fill="#FED692"/>
<path d="M93.8875 48.8672C87.015 48.8672 81.0892 52.577 78.3987 57.9201C75.7083 52.5833 69.7893 48.8672 62.91 48.8672C53.5036 48.8672 45.875 55.812 45.875 64.3775C45.875 72.9429 53.5036 79.8877 62.91 79.8877C69.7893 79.8877 75.7083 76.1779 78.3987 70.8348C81.0892 76.1716 87.0082 79.8877 93.8875 79.8877C103.294 79.8877 110.922 72.9429 110.922 64.3775C110.922 55.8183 103.294 48.8672 93.8875 48.8672ZM92.9476 78.9508C86.4905 78.9508 80.9257 75.4626 78.3987 70.4486C75.8718 75.4626 70.307 78.9508 63.8499 78.9508C55.0089 78.9508 47.8435 72.4301 47.8435 64.3775C47.8435 56.3311 55.0089 49.8041 63.8499 49.8041C70.307 49.8041 75.8718 53.2924 78.3987 58.3063C80.9257 53.2924 86.4905 49.8041 92.9476 49.8041C101.789 49.8041 108.954 56.3248 108.954 64.3775C108.954 72.4301 101.789 78.9508 92.9476 78.9508Z" fill="#FFA100"/>
<path d="M71.7936 70.8449C75.6346 67.2749 75.6346 61.4868 71.7936 57.9169C67.9527 54.3469 61.7253 54.3469 57.8843 57.9169C54.0434 61.4868 54.0434 67.2749 57.8843 70.8449C61.7253 74.4148 67.9527 74.4148 71.7936 70.8449Z" fill="white"/>
<path d="M102.707 64.3831C102.707 70.182 97.6533 74.8794 91.4142 74.8794C85.175 74.8794 80.1211 70.182 80.1211 64.3831C80.1211 58.5841 85.175 53.8867 91.4142 53.8867C97.6533 53.8804 102.707 58.5841 102.707 64.3831Z" fill="white"/>
<path d="M63.927 70.239C67.3126 70.239 70.0571 67.6881 70.0571 64.5414C70.0571 61.3947 67.3126 58.8438 63.927 58.8438C60.5414 58.8438 57.7969 61.3947 57.7969 64.5414C57.7969 67.6881 60.5414 70.239 63.927 70.239Z" fill="#26110B"/>
<path d="M67.7387 65.9156C68.8672 65.9156 69.7821 65.0653 69.7821 64.0164C69.7821 62.9675 68.8672 62.1172 67.7387 62.1172C66.6102 62.1172 65.6953 62.9675 65.6953 64.0164C65.6953 65.0653 66.6102 65.9156 67.7387 65.9156Z" fill="white"/>
<path d="M92.1926 70.239C95.5782 70.239 98.3228 67.6881 98.3228 64.5414C98.3228 61.3947 95.5782 58.8438 92.1926 58.8438C88.8071 58.8438 86.0625 61.3947 86.0625 64.5414C86.0625 67.6881 88.8071 70.239 92.1926 70.239Z" fill="#26110B"/>
<path d="M88.3988 66.3336C89.5274 66.3336 90.4422 65.4833 90.4422 64.4344C90.4422 63.3855 89.5274 62.5352 88.3988 62.5352C87.2703 62.5352 86.3555 63.3855 86.3555 64.4344C86.3555 65.4833 87.2703 66.3336 88.3988 66.3336Z" fill="white"/>
<path d="M78.0944 80.6237C77.5631 80.611 77.0795 80.3452 76.8207 79.9147L74.0757 73.9448C73.7624 73.4193 73.8441 72.7673 74.2801 72.3241C74.4708 72.1342 76.194 70.4629 78.5711 70.4629C79.6065 70.4629 81.1322 70.7921 82.5694 72.3684C82.9848 72.8243 83.0393 73.4763 82.7056 73.9891L79.3953 79.959C79.1229 80.3705 78.6393 80.6237 78.1216 80.6237C78.108 80.6237 78.1012 80.6237 78.0944 80.6237Z" fill="#F6FB30"/>
<path d="M79.0918 80.2898C78.7717 80.5431 78.4652 80.5874 78.3017 80.6064C78.1314 80.6127 78.077 80.6127 78.1246 80.6C78.1723 80.5874 78.3154 80.581 78.5333 80.5114C78.7445 80.4418 79.0305 80.2962 79.2485 80.0113L82.4907 73.8831L82.4975 73.8768V73.8705C82.7359 73.497 82.7222 72.9968 82.4566 72.6423C82.1501 72.2751 81.721 71.8953 81.2987 71.6104C80.4268 71.009 79.3711 70.6988 78.363 70.7558C77.4299 70.8001 76.5376 71.1103 75.7748 71.5471C75.3933 71.7687 75.0391 72.0156 74.719 72.2878C74.5555 72.4271 74.4125 72.5537 74.324 72.693C74.2286 72.8386 74.1673 72.9968 74.1537 73.1614C74.1332 73.326 74.1537 73.4906 74.2082 73.6489C74.2422 73.7375 74.2627 73.7692 74.324 73.9021L74.4397 74.168L74.8825 75.1873L75.6658 77.0232L76.7828 79.7011C77.028 80.3468 77.5252 80.4734 77.5116 80.4924C77.8794 80.6443 78.0906 80.619 78.111 80.638C78.1383 80.638 77.9884 80.6697 77.6955 80.6064C77.4163 80.5367 76.9531 80.3531 76.6943 79.8467L75.8701 78.1817L74.8416 76.0736L74.2695 74.896L73.9766 74.282C73.9289 74.187 73.8744 74.0604 73.8267 73.9844C73.7586 73.8641 73.7109 73.7439 73.6769 73.6109C73.5339 73.0855 73.7178 72.4904 74.1332 72.1042C74.5011 71.7433 74.9097 71.4331 75.3525 71.1609C76.2311 70.6165 77.2732 70.2366 78.3358 70.1923C79.6436 70.1227 80.89 70.5975 81.7959 71.2939C82.0275 71.4648 82.2386 71.6547 82.4362 71.8446C82.6269 72.0409 82.8244 72.2181 82.9811 72.4904C83.2808 73.0095 83.2263 73.6426 82.913 74.0984L82.9198 74.0857C81.8368 75.9469 80.9104 77.498 80.2498 78.5932L79.4733 79.872C79.2826 80.1759 79.0986 80.2772 79.0918 80.2898Z" fill="#FF7D00"/>
<path d="M47.6794 45.6047C47.2912 45.5794 46.9166 45.4211 46.6373 45.1426C46.2218 44.7311 46.0992 44.136 46.3172 43.6105L48.0949 36.9253C48.2993 36.4315 48.7829 36.077 49.3482 36.0073C49.4572 35.9947 49.5593 35.9883 49.6683 35.9947C50.1247 36.0263 50.547 36.2352 50.8262 36.5771L54.3613 41.6987C54.6678 42.0785 54.7563 42.5723 54.5997 43.0218C54.443 43.4713 54.0616 43.8258 53.578 43.9714L48.2652 45.5351C48.0745 45.592 47.877 45.611 47.6794 45.6047Z" fill="#F6FB30"/>
<path d="M109.43 48.6195C109.764 48.6512 110.104 48.5626 110.384 48.3663C110.799 48.0688 110.99 47.5813 110.888 47.1065L109.791 42.2508C109.689 41.8014 109.335 41.4405 108.865 41.3076C108.776 41.2822 108.688 41.2632 108.592 41.2569C108.204 41.2253 107.809 41.3455 107.523 41.6051L104.349 44.4476C104.036 44.7325 103.886 45.1376 103.947 45.5428C104.008 45.948 104.281 46.2962 104.676 46.4798L108.947 48.4993C109.103 48.5626 109.267 48.6069 109.43 48.6195Z" fill="#F6FB30"/>
<path d="M78.9997 84C66.4084 84 56.1992 93.3448 56.1992 104.87C56.1992 105.238 56.2196 105.605 56.2401 105.966C62.1682 110.228 69.8387 112.576 79.1767 112.956C79.9254 112.988 80.6672 113 81.3887 113C89.4607 113 96.2328 111.125 101.616 107.424C101.732 106.583 101.793 105.73 101.793 104.858C101.8 93.3386 91.5911 84 78.9997 84Z" fill="#F6FB30"/>
<path d="M62.4102 93.7637C62.4102 93.7637 66.7217 97.5621 71.04 93.7637C71.04 93.7637 66.5582 101.152 62.4102 93.7637Z" fill="#FF6600"/>
<path d="M74.3281 95.0312C74.3281 95.0312 78.6396 98.8297 82.958 95.0312C82.958 95.0312 78.4762 102.419 74.3281 95.0312Z" fill="#FF6600"/>
<path d="M86.5898 95.7715C86.5898 95.7715 90.9014 99.5699 95.2197 95.7715C95.2197 95.7715 90.7379 103.159 86.5898 95.7715Z" fill="#FF6600"/>
<path d="M81.5312 101.785C81.5312 101.785 85.8428 105.584 90.1611 101.785C90.1611 101.785 85.6793 109.173 81.5312 101.785Z" fill="#FF6600"/>
<path d="M65.8125 100.994C65.8125 100.994 70.124 104.793 74.4424 100.994C74.4424 100.994 69.9606 108.382 65.8125 100.994Z" fill="#FF6600"/>
<path d="M69.2734 87.3828C69.2734 87.3828 73.585 91.1812 77.9033 87.3828C77.9033 87.3828 73.4215 94.7708 69.2734 87.3828Z" fill="#FF6600"/>
<path d="M90.5586 105.691C90.5586 105.691 94.8701 109.49 99.1885 105.691C99.1885 105.691 94.7066 113.073 90.5586 105.691Z" fill="#FF6600"/>
<path d="M73.1914 107.008C73.1914 107.008 77.5029 110.806 81.8213 107.008C81.8213 107.008 77.3395 114.396 73.1914 107.008Z" fill="#FF6600"/>
<path d="M58.0352 105.584C58.0352 105.584 62.3467 109.382 66.665 105.584C66.665 105.584 62.1832 112.972 58.0352 105.584Z" fill="#FF6600"/>
<path d="M81.5312 87.8574C81.5312 87.8574 85.8428 91.6559 90.1611 87.8574C90.1611 87.8574 85.6793 95.2454 81.5312 87.8574Z" fill="#FF6600"/>
<path d="M35.2671 98.5133L0 2.68359L6.50201 5.64433e-05L41.7692 95.8297L35.2671 98.5133Z" fill="#6A290B"/>
<path d="M7.09804 5.07281L8.20403 4.61634L7.92383 3.85497L6.81784 4.31144C6.74591 4.34113 6.75003 4.53514 6.82747 4.74556C6.90491 4.95599 7.02611 5.10249 7.09804 5.07281Z" fill="#1D1D1B"/>
<path d="M9.03554 9.28569L9.80636 8.96756L9.52617 8.20619L8.75534 8.52433C8.68341 8.55402 8.68753 8.74803 8.76497 8.95845C8.84241 9.16888 8.96361 9.31538 9.03554 9.28569Z" fill="#1D1D1B"/>
<path d="M10.641 13.6392L11.4118 13.3211L11.1316 12.5597L10.3608 12.8778C10.2889 12.9075 10.293 13.1015 10.3704 13.312C10.4479 13.5224 10.5691 13.6689 10.641 13.6392Z" fill="#1D1D1B"/>
<path d="M12.2426 17.9927L13.0134 17.6746L12.7332 16.9132L11.9624 17.2314C11.8904 17.261 11.8948 17.4558 11.972 17.6655C12.0494 17.8759 12.1706 18.0224 12.2426 17.9927Z" fill="#1D1D1B"/>
<path d="M13.8402 22.3443L14.611 22.0261L14.3309 21.2648L13.56 21.5829C13.4881 21.6126 13.4925 21.8073 13.5697 22.017C13.6471 22.2275 13.7683 22.374 13.8402 22.3443Z" fill="#1D1D1B"/>
<path d="M15.1098 26.8345L16.2157 26.3781L15.9355 25.6167L14.8296 26.0732C14.7576 26.1028 14.762 26.2976 14.8394 26.508C14.9166 26.7177 15.0378 26.8642 15.1098 26.8345Z" fill="#1D1D1B"/>
<path d="M17.0434 31.0513L17.8142 30.7332L17.534 29.9718L16.7632 30.29C16.6912 30.3196 16.6956 30.5144 16.7728 30.7241C16.8502 30.9345 16.9714 31.081 17.0434 31.0513Z" fill="#1D1D1B"/>
<path d="M18.6449 35.4029L19.4157 35.0847L19.1355 34.3234L18.3647 34.6415C18.2928 34.6712 18.2969 34.8652 18.3743 35.0756C18.4518 35.2861 18.573 35.4326 18.6449 35.4029Z" fill="#1D1D1B"/>
<path d="M20.2504 39.7564L21.0212 39.4383L20.741 38.6769L19.9702 38.995C19.8983 39.0247 19.9024 39.2187 19.9798 39.4292C20.0573 39.6396 20.1785 39.7861 20.2504 39.7564Z" fill="#1D1D1B"/>
<path d="M21.8519 44.1079L22.6228 43.7898L22.3426 43.0285L21.5717 43.3466C21.4998 43.3763 21.5039 43.5703 21.5814 43.7807C21.6588 43.9911 21.78 44.1376 21.8519 44.1079Z" fill="#1D1D1B"/>
<path d="M23.1215 48.6001L24.2275 48.1437L23.9473 47.3823L22.8413 47.8388C22.7693 47.8685 22.7735 48.0625 22.8509 48.2729C22.9283 48.4833 23.0495 48.6298 23.1215 48.6001Z" fill="#1D1D1B"/>
<path d="M25.0551 52.815L25.8259 52.4968L25.5457 51.7355L24.7749 52.0536C24.7029 52.0833 24.7071 52.2773 24.7845 52.4877C24.8619 52.6982 24.9831 52.8447 25.0551 52.815Z" fill="#1D1D1B"/>
<path d="M26.6566 57.1666L27.4275 56.8484L27.1473 56.0871L26.3764 56.4052C26.3045 56.4349 26.3086 56.6289 26.3861 56.8393C26.4635 57.0497 26.5847 57.1962 26.6566 57.1666Z" fill="#1D1D1B"/>
<path d="M28.2582 61.522L29.029 61.2039L28.7488 60.4425L27.978 60.7607C27.9061 60.7903 27.9102 60.9844 27.9876 61.1948C28.0651 61.4052 28.1863 61.5517 28.2582 61.522Z" fill="#1D1D1B"/>
<path d="M29.8637 65.8736L30.6345 65.5555L30.3543 64.7941L29.5835 65.1122C29.5115 65.1419 29.5157 65.3359 29.5931 65.5464C29.6708 65.7575 29.7917 65.9033 29.8637 65.8736Z" fill="#1D1D1B"/>
<path d="M31.1293 70.3638L32.2353 69.9073L31.9551 69.146L30.8491 69.6025C30.7772 69.6321 30.7815 69.8269 30.8587 70.0366C30.9364 70.2477 31.0574 70.3935 31.1293 70.3638Z" fill="#1D1D1B"/>
<path d="M33.0629 74.5767L33.8337 74.2586L33.5535 73.4972L32.7827 73.8153C32.7108 73.845 32.7151 74.0398 32.7923 74.2495C32.87 74.4606 32.991 74.6064 33.0629 74.5767Z" fill="#1D1D1B"/>
<path d="M34.6683 78.9322L35.4392 78.614L35.159 77.8527L34.3882 78.1708C34.3162 78.2005 34.3206 78.3952 34.3978 78.6049C34.4755 78.8161 34.5964 78.9619 34.6683 78.9322Z" fill="#1D1D1B"/>
<path d="M36.2699 83.2837L37.0407 82.9656L36.7605 82.2042L35.9897 82.5224C35.9178 82.5521 35.9222 82.7468 35.9993 82.9565C36.077 83.1676 36.198 83.3134 36.2699 83.2837Z" fill="#1D1D1B"/>
<path d="M37.8676 87.6373L38.6384 87.3191L38.3582 86.5578L37.5874 86.8759C37.5154 86.9056 37.5198 87.1003 37.597 87.31C37.6744 87.5205 37.7956 87.667 37.8676 87.6373Z" fill="#1D1D1B"/>
<path d="M39.1371 92.1295L40.2431 91.673L39.9629 90.9116L38.8569 91.3681C38.785 91.3978 38.7891 91.5918 38.8665 91.8022C38.9437 92.0119 39.0652 92.1591 39.1371 92.1295Z" fill="#1D1D1B"/>
<path d="M61.585 46.6934H57.3659C47.9394 46.6934 40.293 54.8167 40.293 64.8463C40.293 74.8691 47.933 82.9992 57.3659 82.9992H61.585C71.0116 82.9992 78.6579 74.8758 78.6579 64.8463C78.6579 54.8234 71.0179 46.6934 61.585 46.6934ZM61.2493 79.6852H57.7016C49.7829 79.6852 43.3655 72.9494 43.3655 64.6442C43.3655 56.339 49.7829 49.6032 57.7016 49.6032H61.2493C69.1681 49.6032 75.5854 56.339 75.5854 64.6442C75.5854 72.9494 69.1681 79.6852 61.2493 79.6852Z" fill="#321207"/>
<path d="M99.5655 46.6934H95.3464C85.9198 46.6934 78.2734 54.8167 78.2734 64.8463C78.2734 74.8691 85.9135 82.9992 95.3464 82.9992H99.5655C108.992 82.9992 116.638 74.8758 116.638 64.8463C116.638 54.8234 108.992 46.6934 99.5655 46.6934ZM99.2297 79.6852H95.6821C87.7633 79.6852 81.3459 72.9494 81.3459 64.6442C81.3459 56.339 87.7633 49.6032 95.6821 49.6032H99.2297C107.149 49.6032 113.566 56.339 113.566 64.6442C113.566 72.9494 107.149 79.6852 99.2297 79.6852Z" fill="#321207"/>
<path d="M116.254 46.4949C116.254 47.3369 115.614 48.0172 114.823 48.0172H42.1153C41.3234 48.0172 40.6836 47.3369 40.6836 46.4949C40.6836 45.653 41.3234 44.9727 42.1153 44.9727H114.829C115.614 44.9794 116.254 45.6597 116.254 46.4949Z" fill="#321207"/>
<path d="M95.0175 83.5418L80.3716 85.5802C79.8088 85.6557 79.3001 85.9502 78.9224 86.3579C78.5447 85.9502 78.0359 85.6633 77.4732 85.5802L62.8273 83.5418C61.671 83.3833 60.7383 84.1685 60.7383 85.3009V104.371C60.7383 105.504 61.6787 106.553 62.8273 106.712L77.4732 108.75C78.0359 108.826 78.5447 108.682 78.9224 108.38C79.3001 108.682 79.8088 108.833 80.3716 108.75L95.0175 106.712C96.1738 106.553 97.1065 105.504 97.1065 104.371V85.3009C97.1142 84.1685 96.1738 83.3833 95.0175 83.5418Z" fill="#5B2B08"/>
<path d="M96.3655 83.9636L80.5016 86.1681C79.8927 86.2511 79.3377 86.5682 78.9291 87.0061C78.5206 86.5682 77.9656 86.2511 77.3566 86.1681L61.485 83.956C60.2363 83.7824 59.2188 84.6355 59.2188 85.8585V106.522C59.2188 107.745 60.2363 108.885 61.485 109.059L77.3566 111.271C77.9656 111.354 78.5206 111.195 78.9291 110.871C79.3377 111.195 79.8849 111.361 80.5016 111.271L96.3655 109.059C97.622 108.885 98.6318 107.745 98.6318 106.522V85.8661C98.6318 84.6355 97.6142 83.7824 96.3655 83.9636Z" fill="#8D5822"/>
<path d="M97.9337 85.1396L80.6361 87.5479C79.9731 87.6461 79.3719 87.9858 78.9248 88.4614C78.4777 87.9858 77.8765 87.6385 77.2135 87.5479L59.9159 85.1396C58.5515 84.9509 57.4492 85.8795 57.4492 87.2157V109.744C57.4492 111.08 58.5515 112.318 59.9159 112.507L77.2135 114.915C77.8765 115.006 78.4777 114.832 78.9248 114.478C79.3719 114.832 79.9731 115.006 80.6361 114.915L97.9337 112.507C99.2981 112.318 100.4 111.08 100.4 109.744V87.2157C100.4 85.8795 99.2981 84.9509 97.9337 85.1396Z" fill="#5B2B08"/>
<path d="M100.402 88.3418V87.4358C100.409 87.1489 100.394 86.8847 100.325 86.6356C100.194 86.1448 99.9083 85.7825 99.6077 85.5484C98.991 85.0879 98.4206 85.103 98.1585 85.103C97.8887 85.1181 97.8502 85.1332 98.0275 85.103C98.2048 85.0879 98.621 85.035 99.176 85.2615C99.4458 85.3748 99.7465 85.5711 99.9931 85.8806C100.232 86.1901 100.409 86.6054 100.44 87.0885L100.463 90.3877L100.502 99.553L100.525 105.177L100.533 108.197L100.54 109.753C100.54 110.304 100.355 110.847 100.039 111.315C99.7233 111.776 99.284 112.161 98.7521 112.403C98.49 112.523 98.2048 112.606 97.9196 112.644L97.0948 112.765L93.7339 113.241L86.8041 114.222L83.2659 114.72L81.4853 114.969L80.5911 115.098C80.2674 115.135 79.9436 115.113 79.6276 115.03C79.4734 114.984 79.3192 114.924 79.1728 114.849C79.0957 114.811 79.0263 114.773 78.9646 114.72C78.9184 114.69 78.9415 114.705 78.9261 114.705L78.8953 114.728C78.8644 114.75 78.8259 114.773 78.7951 114.796C78.7257 114.833 78.6563 114.871 78.5792 114.909C78.4328 114.977 78.2786 115.03 78.1167 115.068C77.8007 115.143 77.4615 115.143 77.1532 115.098L76.259 114.977L72.69 114.486L65.6137 113.505L62.1449 113.022L60.4337 112.788C60.1485 112.742 59.871 112.727 59.5626 112.644C59.2697 112.569 58.9845 112.44 58.7301 112.282C58.2214 111.965 57.8051 111.504 57.5507 110.976C57.4197 110.711 57.3349 110.425 57.2886 110.13C57.2424 109.828 57.2655 109.549 57.2578 109.285V106.023L57.2655 99.6436L57.2886 87.6019C57.2964 87.3679 57.2809 87.1187 57.3195 86.862C57.358 86.6129 57.4351 86.3638 57.5584 86.1373C57.7974 85.6843 58.2137 85.3219 58.6916 85.1407C59.1618 84.9444 59.7091 84.9444 60.1716 85.035L61.5591 85.2313L66.8933 85.9863L76.4748 87.3603C76.8448 87.4207 77.1994 87.4434 77.5694 87.5415C77.9317 87.6397 78.2632 87.8058 78.5561 88.0171C78.6255 88.07 78.6948 88.1304 78.7642 88.1832L78.8644 88.2738L78.9184 88.3267L78.9415 88.3569C78.9492 88.3569 78.9569 88.3418 78.9646 88.3342L79.0186 88.2814C79.0726 88.2285 79.1496 88.1681 79.2113 88.1153C79.4888 87.8964 79.7894 87.7227 80.1132 87.617C80.4369 87.4962 80.7761 87.4736 81.0999 87.4283L82.048 87.2999L83.8595 87.0583L89.8643 86.2505L95.1291 85.5484C102.321 84.5443 95.0443 85.6088 81.4853 87.5491C81.069 87.6246 80.6219 87.6397 80.2211 87.768C79.8126 87.9039 79.458 88.1228 79.1265 88.4399L78.9338 88.6136C78.8721 88.5834 78.8105 88.4928 78.7488 88.4399C78.6409 88.3342 78.5792 88.2889 78.4867 88.2134C78.3094 88.0775 78.1244 87.9643 77.924 87.8737C77.5232 87.6774 77.0684 87.6472 76.5905 87.5793L70.7321 86.779L64.4729 85.9259L61.2276 85.4805L60.4028 85.3672C60.1253 85.337 59.8478 85.2766 59.5935 85.2766C59.077 85.2691 58.5605 85.4578 58.1905 85.8126C57.8205 86.1675 57.6201 86.6733 57.6201 87.1942V88.8627L57.6278 92.2298L57.6355 99.0321L57.6432 105.849V109.232C57.6509 109.511 57.6278 109.798 57.6664 110.047C57.6972 110.304 57.7743 110.553 57.8899 110.787C58.1134 111.255 58.4834 111.663 58.9305 111.942C59.1541 112.078 59.393 112.191 59.6474 112.252C59.8941 112.319 60.1793 112.342 60.4568 112.38L62.1218 112.614L65.421 113.074L71.8652 113.98L75.0025 114.418L76.5442 114.637L77.3073 114.743C77.5463 114.773 77.7853 114.758 78.0165 114.705C78.2478 114.652 78.4636 114.562 78.6563 114.441L78.7642 114.365L78.9107 114.252C78.9569 114.26 79.0109 114.32 79.0571 114.35L79.1728 114.433C79.2653 114.494 79.3655 114.554 79.4734 114.599C79.9051 114.788 80.3676 114.796 80.8609 114.705L83.8055 114.305L94.8131 112.803L97.3569 112.455C97.7808 112.395 98.1817 112.372 98.544 112.214C98.9063 112.07 99.2377 111.844 99.5075 111.572C100.047 111.021 100.348 110.281 100.301 109.541L100.309 107.314L100.402 88.3418Z" fill="#4D1F03"/>
<path d="M82.5313 87.2871L80.6273 87.5513C79.9644 87.6495 79.3631 87.9892 78.916 88.4649C78.4689 87.9892 77.8677 87.6419 77.2048 87.5513L75.3008 87.2871V114.655L77.2048 114.919C77.8677 115.009 78.4689 114.836 78.916 114.481C79.3631 114.836 79.9644 115.009 80.6273 114.919L82.5313 114.655V87.2871Z" fill="#8D5822"/>
<path d="M82.5287 89.7267C82.5287 85.2573 82.5672 87.3485 82.6057 92.6257L82.7137 114.814L80.6709 115.101C80.3395 115.146 79.9849 115.139 79.6534 115.056C79.4915 115.01 79.3297 114.958 79.1755 114.875C79.0984 114.837 79.029 114.792 78.952 114.746L78.9134 114.716C78.9057 114.724 78.9288 114.708 78.898 114.731C78.8595 114.754 78.8286 114.776 78.7901 114.799C78.713 114.844 78.6436 114.882 78.5665 114.92C78.4124 114.988 78.2505 115.041 78.0886 115.078C77.7572 115.154 77.4103 115.146 77.0942 115.093L75.1055 114.822V113.984L75.1517 98.7334L75.2365 87.2051L76.7011 87.424C76.9169 87.4618 77.1251 87.4844 77.3409 87.5222C77.549 87.5675 77.7417 87.6279 77.919 87.7109C78.2813 87.8694 78.582 88.0884 78.8055 88.3149L78.8749 88.3904L78.9134 88.4281L78.952 88.3904C78.9982 88.3451 79.0445 88.2998 79.1061 88.2469C79.2218 88.1488 79.3374 88.0582 79.4453 87.9902C79.9078 87.6958 80.3318 87.5901 80.617 87.5524L81.0795 87.492C82.8601 87.2428 82.9064 87.2504 81.7039 87.4316C81.1334 87.5675 80.0928 87.4769 79.2063 88.2696C79.1524 88.3224 79.1061 88.3602 79.029 88.4357L78.9211 88.5414C78.9057 88.5791 78.8903 88.5338 78.8672 88.5187L78.8132 88.4659C78.7361 88.3828 78.6745 88.33 78.6205 88.2847C78.5588 88.2318 78.4972 88.1865 78.4355 88.1412C78.1811 87.9525 77.8805 87.8015 77.5413 87.7034C77.2099 87.6128 76.8321 87.5901 76.4544 87.5373L75.383 87.3938L75.4523 99.6846L75.4832 113.984V114.482L77.2099 114.724C77.5028 114.761 77.7957 114.754 78.0732 114.678C78.212 114.64 78.343 114.588 78.4663 114.527C78.528 114.497 78.5897 114.459 78.6436 114.422L78.7207 114.369L78.8132 114.301C78.844 114.286 78.8749 114.233 78.9057 114.255L78.9982 114.323C79.1524 114.444 79.1755 114.452 79.2372 114.49C79.2988 114.527 79.3605 114.557 79.4222 114.588C79.5532 114.648 79.6843 114.686 79.823 114.716C80.1005 114.776 80.378 114.769 80.6709 114.724L82.3128 114.497L82.4207 96.8988L82.5287 89.7267Z" fill="#4D1F03"/>
<path d="M92.7622 113.297C92.3825 112.857 92.2639 112.247 92.4437 111.697L93.9134 107.229L89.5224 107.047C89.0815 107.029 88.6702 106.819 88.3799 106.487C88.3171 106.413 88.2595 106.336 88.2123 106.255C87.9312 105.785 87.8981 105.201 88.1338 104.709C88.4582 104.02 96.2146 87.877 113.287 88.6855C113.73 88.7089 114.134 88.9151 114.422 89.2418C114.567 89.4078 114.675 89.6027 114.744 89.8212C114.946 90.453 119.463 105.458 101.148 117.903C100.638 118.246 99.9815 118.259 99.4532 117.935C99.3094 117.845 99.182 117.735 99.0731 117.61C98.7879 117.276 98.6357 116.833 98.6779 116.381L99.0164 112.495L94.3899 113.804C93.8204 113.963 93.2134 113.788 92.8008 113.344C92.7864 113.324 92.7743 113.311 92.7622 113.297Z" fill="#F6B702"/>
<path d="M95.8391 113.389C95.133 113.576 94.5639 113.78 94.0932 113.851C93.6116 113.882 93.2679 113.701 93.0729 113.563C92.8732 113.414 92.7967 113.308 92.7823 113.288C92.7731 113.267 92.8209 113.335 92.9634 113.452C93.1036 113.562 93.3408 113.727 93.6953 113.789C93.8699 113.821 94.0742 113.821 94.2937 113.77L95.0086 113.56L99.1295 112.357L98.8025 116.429C98.7502 117.089 99.2064 117.794 99.8875 117.969C100.22 118.066 100.589 118.032 100.901 117.878C101.203 117.701 101.534 117.449 101.854 117.227C104.425 115.38 107.108 113.071 109.404 110.204C111.7 107.351 113.575 103.903 114.481 100.171C114.936 98.3107 115.163 96.3963 115.135 94.5044C115.122 93.5612 115.05 92.6245 114.905 91.7067C114.833 91.2478 114.745 90.7958 114.636 90.3528C114.531 89.8891 114.407 89.5288 114.106 89.2717C113.927 89.114 113.713 89.0035 113.483 88.9573C113.273 88.915 112.966 88.9213 112.701 88.9094C112.158 88.8978 111.614 88.8992 111.077 88.9167C109.999 88.9593 108.939 89.0709 107.902 89.2492C105.826 89.6059 103.855 90.2355 102.045 91.0688C98.4098 92.7421 95.4467 95.1924 93.1273 97.7443C91.965 99.0214 90.9542 100.334 90.0823 101.625C89.6476 102.273 89.2464 102.913 88.8811 103.55C88.6999 103.864 88.5262 104.182 88.3653 104.501C88.1916 104.818 88.0806 105.109 88.0949 105.446C88.1016 106.099 88.5589 106.677 89.1218 106.865C89.3951 106.969 89.7025 106.949 90.0028 106.972L90.8764 107.018L93.9892 107.177L92.5371 111.44C92.346 111.905 92.3409 112.328 92.4237 112.623C92.5013 112.92 92.6227 113.103 92.6947 113.199C92.8542 113.384 92.7347 113.322 92.5157 112.94C92.4204 112.746 92.3173 112.447 92.3408 112.067C92.3695 111.685 92.5573 111.285 92.6906 110.8L93.8041 107.309L90.2757 107.19C89.9372 107.166 89.6217 107.195 89.247 107.129C88.8804 107.053 88.538 106.846 88.2816 106.55C88.0252 106.254 87.8734 105.855 87.8599 105.447C87.8314 105.033 88.0095 104.624 88.1861 104.298C89.5901 101.559 91.5697 98.7479 94.0881 96.1984C96.6036 93.6565 99.7274 91.4228 103.264 90.0407C105.029 89.3481 106.884 88.8649 108.762 88.6131C109.703 88.4833 110.646 88.4164 111.584 88.3961C112.057 88.3875 112.522 88.3888 112.993 88.4062L113.348 88.4239C113.482 88.4352 113.614 88.4542 113.743 88.4938C113.999 88.573 114.241 88.7035 114.441 88.8835C114.704 89.1067 114.891 89.4138 115 89.742C115.09 90.0402 115.16 90.3345 115.225 90.631C115.352 91.2188 115.444 91.8095 115.512 92.4038C115.644 93.5819 115.672 94.761 115.608 95.9159C115.486 98.2236 115.011 100.443 114.285 102.479C112.828 106.572 110.418 109.883 107.929 112.458C106.682 113.753 105.399 114.879 104.154 115.861C103.53 116.356 102.913 116.81 102.31 117.238L101.417 117.856C101.142 118.066 100.78 118.248 100.427 118.262C99.7021 118.317 99.0245 117.861 98.7681 117.247C98.6322 116.943 98.5895 116.611 98.6323 116.306L98.7149 115.442L98.998 112.542L95.8391 113.389Z" fill="#FF7D00"/>
<path d="M114.207 90.756C114.145 90.5536 114.042 90.3694 113.906 90.2119C113.757 90.0351 113.571 89.9057 113.359 89.8136C114.472 99.2703 109.02 107.512 101.406 112.358C100.755 112.775 100.08 113.165 99.3961 113.533L99.2213 115.514C99.1855 115.937 99.3239 116.348 99.5872 116.66C99.6863 116.776 99.804 116.878 99.9379 116.959C100.434 117.266 101.047 117.253 101.522 116.931C118.607 105.341 114.398 91.3479 114.207 90.756Z" fill="#F8D13E"/>
<path d="M52.4303 97.8953C52.4388 97.7315 52.4531 97.5656 52.4616 97.4017C52.4399 97.3219 52.4182 97.2421 52.3907 97.1644C52.1323 96.5491 45.912 82.1188 25.1618 84.2588C24.5848 84.3216 24.1118 84.7339 23.9409 85.3219C23.8924 85.4855 23.8758 85.645 23.8755 85.8132C23.8772 85.8929 23.8871 85.977 23.9028 86.059C24.9266 86.1853 25.954 86.303 26.98 86.4358C35.1199 87.5303 46.251 91.0859 52.4303 97.8953Z" fill="#F8D13E"/>
<path d="M52.5032 98.1099C52.5071 98.0646 52.511 98.0193 52.5172 97.9806C52.4939 97.9525 52.4625 97.92 52.4392 97.8919C52.4352 97.9372 52.4336 97.9889 52.4297 98.0342L52.5032 98.1099Z" fill="#FAFD87"/>
<path d="M21.3773 93.2395C21.3874 93.8496 21.6979 94.4241 22.1905 94.7427L26.2147 97.3561L23.0869 100.439C22.7712 100.751 22.6016 101.192 22.6106 101.649C22.6133 101.75 22.6219 101.85 22.6386 101.953C22.7409 102.523 23.1014 103.013 23.5924 103.252C24.2838 103.586 40.6287 111.4 52.7212 99.3141C53.0369 99.0026 53.2006 98.5634 53.1916 98.1063C53.1889 97.8735 53.1402 97.6426 53.0503 97.4268C52.7828 96.7856 46.2752 81.6774 24.5558 83.9198C23.9529 83.9846 23.4586 84.412 23.2792 85.0322C23.233 85.2024 23.2068 85.3726 23.2089 85.5472C23.212 86.0064 23.3952 86.4662 23.7206 86.8015L26.5222 89.704L22.2407 91.7506C21.7162 91.9989 21.3797 92.5518 21.3708 93.1834C21.3753 93.1964 21.3763 93.2179 21.3773 93.2395Z" fill="#F6B702"/>
<path d="M23.5894 91.1031C22.9443 91.4244 22.3883 91.6402 21.9883 91.9019C21.6081 92.2003 21.4673 92.5728 21.4087 92.8205C21.3524 93.0747 21.363 93.217 21.3557 93.2342C21.3508 93.2579 21.3387 93.1673 21.3556 92.9712C21.3749 92.7816 21.4364 92.467 21.6661 92.1574C21.7769 92.0003 21.9358 91.8478 22.1345 91.7321L22.7951 91.398L26.3327 89.6572L23.6043 86.867C23.0456 86.2874 22.878 85.2521 23.3288 84.5335C23.5461 84.1699 23.8896 83.8994 24.2988 83.7952C24.7148 83.7104 25.0726 83.7051 25.4765 83.6612C28.6075 83.3828 32.1406 83.4119 35.7747 84.1571C39.3983 84.8914 43.1305 86.4195 46.3302 88.8491C47.9319 90.0595 49.3953 91.4808 50.6456 93.0523C51.2719 93.8413 51.8497 94.6624 52.3612 95.5221C52.6188 95.9477 52.8551 96.3883 53.0737 96.8353C53.1823 97.0663 53.2877 97.2693 53.377 97.5585C53.4558 97.8368 53.4769 98.1215 53.4475 98.3952C53.4093 98.7378 53.2865 99.0672 53.0866 99.3296C52.8713 99.6048 52.6841 99.7529 52.4776 99.9592C52.0732 100.339 51.6641 100.707 51.2423 101.057C50.3986 101.757 49.5237 102.387 48.6176 102.949C46.8114 104.071 44.8889 104.883 42.9559 105.422C39.0838 106.502 35.2202 106.461 31.795 105.911C30.0784 105.634 28.4558 105.227 26.9574 104.739C26.2041 104.493 25.4862 104.234 24.7932 103.951C24.4508 103.812 24.112 103.665 23.7851 103.513C23.465 103.38 23.0986 103.155 22.8801 102.839C22.3995 102.217 22.3705 101.328 22.7156 100.743C22.8853 100.433 23.1387 100.247 23.3428 100.034L23.9669 99.428L26.1118 97.3656L22.4041 94.8934C21.9567 94.6461 21.6772 94.3089 21.5456 94.0131C21.4081 93.7194 21.3877 93.493 21.3781 93.3723C21.3826 93.1222 21.3485 93.2514 21.4566 93.6873C21.5183 93.8987 21.6418 94.1902 21.9042 94.4606C22.1643 94.7244 22.5733 94.9198 22.9945 95.2058L26.3649 97.3471L23.6947 100.031C23.4715 100.265 23.1906 100.505 23.012 100.753C22.8262 101.017 22.7316 101.351 22.7416 101.698C22.7515 102.045 22.8756 102.395 23.0945 102.674C23.312 102.968 23.6131 103.122 23.9719 103.27C26.7854 104.48 30.0783 105.371 33.5689 105.693C37.0513 106.01 40.7627 105.697 44.2067 104.444C45.9322 103.826 47.5772 102.982 49.0992 101.942C49.8613 101.425 50.5851 100.856 51.2773 100.255C51.6234 99.9542 51.9591 99.6427 52.2901 99.3183L52.531 99.0776C52.5939 99.011 52.6523 98.9314 52.7024 98.8475C52.8027 98.6797 52.8678 98.4881 52.8907 98.2898C52.927 98.0355 52.881 97.7745 52.7818 97.5328C52.6653 97.2607 52.5324 96.98 52.3923 96.7166C52.1133 96.1745 51.8013 95.6518 51.4761 95.1484C50.8175 94.1372 50.0902 93.1949 49.3081 92.3234C47.7439 90.5806 45.9877 89.1411 44.1549 87.9924C40.4811 85.6906 36.5934 84.6061 33.0945 84.1481C31.3421 83.9202 29.6708 83.8456 28.1093 83.8554C27.3256 83.8614 26.5771 83.8912 25.8554 83.9405L24.791 84.0189C24.4356 84.0306 24.1409 84.1008 23.8839 84.2961C23.3712 84.6716 23.1767 85.3997 23.3564 85.9996C23.5147 86.6145 24.0539 86.9893 24.4325 87.4368L26.5852 89.7119L23.5894 91.1031Z" fill="#FF7D00"/>
</svg>
