<svg width="124" height="132" viewBox="0 0 124 132" fill="none" xmlns="http://www.w3.org/2000/svg">
<path d="M72.4744 63.2581C72.4744 63.2581 71.3938 53.2114 91.4088 44.1005C111.424 34.9896 111.43 25.0619 111.43 25.0619C111.43 25.0619 123.79 48.4836 72.4744 63.2581Z" fill="#F85978"/>
<path d="M94.3218 46.1898C81.2036 52.1642 77.1476 58.537 75.9103 62.2193C106.885 52.5295 112.534 39.6017 112.739 31.8242C110.614 35.5621 105.709 41.0058 94.3218 46.1898Z" fill="#F71951"/>
<path d="M76.8395 61.9276C74.5236 62.6615 73.1791 63.0408 72.6838 63.1776C72.1884 63.3143 72.5423 63.2024 73.5973 62.879C75.688 62.2197 80.6157 60.7521 86.7403 58.151C89.7962 56.8443 93.1353 55.2448 96.449 53.2588C99.7561 51.2729 103.031 48.8819 105.767 46.0419C108.502 43.2143 110.652 39.9064 111.677 36.3985C112.715 32.903 112.666 29.2385 111.491 25.9909C111.382 25.7041 111.266 25.4111 111.131 25.1493L111.749 25.05C111.613 26.8198 110.904 28.421 110.048 29.941C109.172 31.4549 108.071 32.8501 106.855 34.1269C104.416 36.693 101.52 38.8038 98.5731 40.578C97.0996 41.4683 95.607 42.2712 94.1207 43.0119C92.641 43.7588 91.1355 44.3935 89.7459 45.0657C86.9536 46.41 84.4894 47.8356 82.4045 49.2801C78.2028 52.1628 75.6218 55.1526 74.3083 57.389C72.9819 59.6317 72.7494 61.0462 72.7172 61.1023C72.4012 62.442 72.4715 63.1338 72.4651 63.2335C72.4714 63.3332 72.3817 62.8533 72.5109 61.8874C72.6466 60.9278 73.0141 59.4822 73.935 57.7752C74.8429 56.0682 76.3042 54.106 78.3893 52.1567C80.468 50.2012 83.1513 48.2647 86.2911 46.4782C89.4052 44.6417 93.1494 43.2232 96.5531 41.2436C99.9889 39.2951 103.29 36.9914 105.967 34.2635C107.299 32.8995 108.477 31.4357 109.392 29.8845C110.287 28.3458 110.989 26.6761 111.112 25.0558L111.112 25.0371C111.125 24.9 111.273 24.7942 111.447 24.8005C111.575 24.8068 111.678 24.8692 111.723 24.9565C111.877 25.262 111.993 25.5487 112.102 25.8479C113.309 29.2015 113.287 32.6727 112.456 35.863C111.618 39.0595 109.931 41.9625 107.852 44.454C105.773 46.9518 103.321 49.0504 100.837 50.8312C98.3467 52.6057 95.8246 54.0748 93.4376 55.301C88.6572 57.7596 84.4628 59.3212 81.5421 60.3663C78.615 61.399 76.9167 61.8965 76.8395 61.9276Z" fill="#740007"/>
<path d="M79.5118 65.3823C79.5118 65.3823 80.4187 55.3244 60.248 46.4184C40.0772 37.5125 39.897 27.5847 39.897 27.5847C39.897 27.5847 27.9512 51.1342 79.5118 65.3823Z" fill="#4FA0CA"/>
<path d="M79.5118 65.3823C79.5118 65.3823 80.4187 55.3244 60.248 46.4184C40.0772 37.5125 39.897 27.5847 39.897 27.5847C39.897 27.5847 27.9512 51.1342 79.5118 65.3823Z" fill="#F85978"/>
<path d="M38.8047 35.4941C39.6552 43.2785 46.2787 55.2731 75.4088 64.191C73.9704 60.4758 69.6651 54.3595 56.8566 48.7051C46.3372 44.0555 41.2593 39.1414 38.8047 35.4941Z" fill="#F71951"/>
<path d="M75.1287 64.1042C77.4565 64.8161 78.8069 65.1909 79.2957 65.3345C79.7844 65.4782 79.4178 65.3845 78.3503 65.0971C76.2218 64.4975 71.2381 63.1419 65.0137 60.6514C61.908 59.403 58.5001 57.8553 55.1119 55.9087C51.73 53.9684 48.3484 51.6106 45.5009 48.7732C42.6535 45.9483 40.3788 42.6127 39.2555 39.0472C38.1193 35.4942 38.0895 31.755 39.243 28.3905C39.3525 28.0914 39.462 27.7985 39.6101 27.4933C39.6745 27.3624 39.8547 27.3002 40.0219 27.3502C40.144 27.3877 40.2147 27.4687 40.2275 27.5685L40.2275 27.5871C40.3744 29.1951 41.0873 30.7972 41.9483 32.256C42.822 33.7211 43.9146 35.0804 45.1229 36.3338C47.5526 38.8344 50.4262 40.9053 53.3516 42.6583C54.8174 43.5317 56.3027 44.3304 57.7815 45.0543C59.2539 45.7906 60.7521 46.421 62.1602 47.1011C64.9765 48.4553 67.4582 49.884 69.5605 51.3436C73.7907 54.2505 76.3808 57.2747 77.685 59.5252C79.0021 61.7821 79.2134 63.1969 79.252 63.253C79.592 64.5869 79.5208 65.2786 79.5143 65.3783C79.4949 65.478 79.5531 64.9982 79.3737 64.0445C79.1942 63.0909 78.7706 61.6698 77.794 59.999C76.8303 58.3282 75.3137 56.414 73.1859 54.5243C71.0647 52.6284 68.3452 50.7571 65.1755 49.0412C62.0443 47.2818 58.2698 45.927 54.7593 43.9804C51.2423 42.0712 47.8414 39.7881 45.0582 37.0504C43.6698 35.6847 42.4358 34.2007 41.4656 32.6234C40.5148 31.0399 39.7569 29.3817 39.5908 27.6054L40.2082 27.6931C40.0794 27.961 39.9634 28.2538 39.8667 28.5342C38.752 31.7991 38.8141 35.2018 39.6676 38.3121C40.5274 41.4349 42.2043 44.2778 44.2673 46.7221C46.3368 49.1726 48.7667 51.2431 51.2354 53.0021C53.7105 54.7612 56.2179 56.2148 58.5905 57.444C63.3484 59.8963 67.528 61.4694 70.4409 62.5245C73.3539 63.5608 75.0515 64.0792 75.1287 64.1042Z" fill="#740007"/>
<path d="M66.3661 125.029C66.3661 125.029 54.845 127.807 64.8592 127.97C64.8592 127.97 63.7174 133.148 66.8398 128.426C66.8398 128.426 73.9807 136.021 67.6072 125.31L66.3661 125.029Z" fill="#F71951"/>
<path d="M67.3154 125.246C65.8492 124.908 66.1643 124.94 67.6499 125.24C67.9712 125.745 68.2988 126.269 68.71 126.954C69.1084 127.621 69.5453 128.388 69.9628 129.242C70.1619 129.679 70.3803 130.109 70.4635 130.67C70.4892 130.819 70.4504 131.118 70.251 131.212C70.0708 131.33 69.7621 131.224 69.6593 131.174C69.3892 131.049 69.1706 130.9 68.9585 130.737C68.5277 130.419 68.1356 130.07 67.75 129.708L67.1843 129.166L66.9079 128.891C66.8565 128.841 66.8886 128.873 66.8758 128.86C66.9595 128.742 66.6569 129.19 66.4702 129.44C66.2578 129.72 66.0389 129.994 65.7815 130.249C65.6721 130.355 65.5498 130.467 65.389 130.561C65.2731 130.654 64.8872 130.772 64.6686 130.573C64.4372 130.354 64.4373 130.174 64.3988 130.018C64.3732 129.856 64.3733 129.706 64.3734 129.563C64.38 129.27 64.4123 128.996 64.4511 128.722L64.5157 128.316C64.535 128.229 64.5286 128.235 64.535 128.229L64.5415 128.217L64.5222 128.211L64.5157 128.211L64.4579 128.211L64.3292 128.204L63.8083 128.179C63.461 128.16 63.1265 128.135 62.7921 128.104C62.1297 128.022 61.4994 127.978 60.8821 127.679C60.7343 127.616 60.5029 127.367 60.5931 127.142C60.6833 126.899 60.8184 126.831 60.9406 126.731C61.1916 126.563 61.4425 126.451 61.687 126.345C62.1759 126.14 62.6327 125.991 63.0572 125.866C64.7427 125.369 65.7783 125.183 65.8105 125.164C67.0198 124.872 66.1643 125.096 64.2794 125.699C63.8097 125.854 63.2758 126.035 62.7097 126.259C62.4266 126.371 62.1307 126.495 61.8347 126.632C61.5516 126.769 61.2299 126.937 61.0368 127.136C60.9467 127.236 60.9725 127.249 61.0239 127.298C61.1203 127.367 61.2875 127.423 61.4547 127.461C61.7955 127.542 62.1621 127.586 62.5416 127.617C62.921 127.649 63.3005 127.668 63.6928 127.68L65.1914 127.706L65.1075 128.105L65.0559 128.41L64.9977 128.809C64.9654 129.077 64.9395 129.339 64.9394 129.594C64.9393 129.719 64.9456 129.85 64.9649 129.956C64.9777 130.012 64.9905 130.062 65.0034 130.093C65.0226 130.13 65.0162 130.112 65.0162 130.118C64.939 130.161 65.2221 130.031 65.3766 129.85C65.6082 129.62 65.8207 129.352 66.0266 129.084L66.3228 128.673L66.7992 127.969L67.3776 128.58L67.7183 128.929C67.9433 129.16 68.1747 129.378 68.3996 129.597C68.856 130.014 69.3124 130.432 69.7753 130.707C69.8332 130.738 69.8911 130.769 69.9361 130.782C69.9554 130.788 69.9682 130.794 69.9875 130.794C70.0261 130.775 70.0325 130.775 70.0326 130.682C70.0135 130.451 69.93 130.19 69.853 129.953C69.6796 129.473 69.4805 129.018 69.2814 128.606C68.4914 126.942 67.8361 125.776 67.5855 125.302L67.3154 125.246Z" fill="#740007"/>
<path d="M93.9946 122.272C93.9946 122.272 105.625 119.936 96.6689 124.293C96.6689 124.293 100.017 128.477 95.0924 125.532C95.0924 125.532 92.0567 135.377 93.0101 123.05L93.9946 122.272Z" fill="#F71951"/>
<path d="M93.237 122.876C94.4339 121.935 94.1314 122.222 93.0953 123.094C93.069 124.06 92.9586 125.742 93.0346 127.574C93.0665 128.023 93.0919 128.528 93.2396 128.927C93.2781 129.008 93.2717 128.989 93.3038 129.008C93.336 128.989 93.3167 129.014 93.4068 128.914C93.542 128.746 93.6579 128.528 93.7674 128.304C93.9863 127.862 94.1667 127.382 94.3407 126.902L94.592 126.179L94.9271 125.126C95.6665 125.563 95.8079 125.638 96.1423 125.813C96.4444 125.969 96.7466 126.118 97.0424 126.218C97.171 126.262 97.2932 126.293 97.4026 126.306C97.5312 126.312 97.4797 126.306 97.4926 126.306C97.4926 126.337 97.4927 126.212 97.4541 126.106C97.4221 125.994 97.3707 125.882 97.3129 125.764C97.1972 125.533 97.0559 125.308 96.9145 125.09L96.6896 124.766L96.5097 124.51L96.2655 124.205L97.475 123.614C97.7774 123.464 98.0669 123.309 98.35 123.159C98.8969 122.848 99.4696 122.531 99.7978 122.151C99.9266 121.989 99.8558 121.951 99.5729 121.87C99.3221 121.814 99.0584 121.801 98.8011 121.795C98.2866 121.788 97.8106 121.819 97.3732 121.85C95.6301 121.998 94.5881 122.166 94.5559 122.166C93.3337 122.408 94.1829 122.153 96.1384 121.793C96.6272 121.706 97.1869 121.619 97.8108 121.545C98.1195 121.514 98.4476 121.483 98.7885 121.471C99.1358 121.471 99.4831 121.446 99.8882 121.577C99.9782 121.609 100.139 121.69 100.21 121.821C100.287 121.945 100.267 122.12 100.203 122.244C100.093 122.456 99.9455 122.587 99.7975 122.718C99.5014 122.973 99.1797 123.185 98.8516 123.384C98.5234 123.589 98.1824 123.782 97.835 123.969L97.3138 124.243L97.0822 124.361L97.0693 124.374L97.0822 124.386L97.0886 124.392L97.1465 124.467L97.3971 124.816C97.5577 125.053 97.7119 125.296 97.8468 125.558C97.9111 125.689 97.9753 125.826 98.0202 125.982C98.0459 126.063 98.0651 126.144 98.0715 126.244C98.0779 126.337 98.0585 126.499 97.9812 126.605C97.9104 126.717 97.7817 126.792 97.6466 126.823C97.5116 126.848 97.4215 126.842 97.3315 126.835C97.1578 126.817 97.0099 126.767 96.8685 126.723C96.5019 126.598 96.1804 126.436 95.8654 126.267L95.4025 126.012L95.2867 125.943C95.2417 125.918 95.2739 125.937 95.261 125.931L95.2546 125.924L95.2482 125.931C95.2417 125.943 95.2546 125.912 95.2417 125.955L95.203 126.074L95.042 126.535C94.9324 126.84 94.8165 127.139 94.6941 127.432C94.4493 128.018 94.211 128.578 93.8376 129.089C93.7861 129.152 93.7346 129.214 93.6638 129.282C93.5737 129.363 93.4579 129.438 93.3421 129.45C93.0913 129.5 92.892 129.232 92.8407 129.064C92.738 128.758 92.7124 128.49 92.6933 128.222C92.655 127.693 92.6682 127.194 92.6814 126.733C92.7662 124.882 92.9407 123.586 93.0053 123.037L93.237 122.876Z" fill="#740007"/>
<path d="M73.6691 126.844C74.3895 126.845 75.1291 126.826 75.8688 126.796C89.1443 126.218 99.1102 121.295 105.477 112.176C121.017 89.9247 108.186 50.2497 108.044 49.8507C107.479 48.2924 106.162 47.1075 104.515 46.6826C104.084 46.5702 103.647 46.52 103.21 46.5198C101.968 46.519 100.765 46.9544 99.8324 47.7453C99.6393 47.9135 99.4591 48.0941 99.311 48.2996L94.0209 53.4502C90.0084 52.0329 83.1919 50.1839 74.9785 50.1787C68.5339 50.1746 62.3523 51.3173 56.5687 53.5696L50.674 48.5179C49.7355 47.7134 48.5331 47.2701 47.2789 47.2693C46.7643 47.269 46.2497 47.3435 45.7544 47.4927C44.0561 48.0027 42.7303 49.3604 42.2983 51.0303C41.9953 52.2017 39.3193 62.8443 38.6486 75.8377C37.7369 93.4239 40.8414 106.769 47.8786 115.51C53.9197 123.024 62.6001 126.831 73.6691 126.844Z" fill="#C2000B"/>
<path d="M73.7332 124.033C63.5389 124.026 55.5657 120.543 50.0388 113.672C43.4643 105.504 40.5716 92.9011 41.4377 76.2185C42.0823 63.7548 44.6487 53.5422 44.9388 52.4144C45.2096 51.3676 46.0399 50.5143 47.1013 50.1971C47.4101 50.1039 47.7317 50.0604 48.0597 50.0607C48.8444 50.0612 49.5967 50.3358 50.1881 50.841L55.9221 55.7555C56.25 56.0362 56.6744 56.186 57.0989 56.1863C57.324 56.1864 57.5491 56.1429 57.7614 56.062C63.1719 53.9528 68.974 52.8784 75.007 52.8822C82.6221 52.8871 88.9563 54.5613 92.9303 55.9598C93.1296 56.0285 93.3354 56.066 93.5348 56.0662C93.9979 56.0665 94.4546 55.8922 94.7957 55.5622L99.9443 50.5487C100.009 50.4864 100.067 50.4179 100.125 50.3431C100.195 50.2497 100.273 50.1625 100.363 50.0878C100.948 49.5896 101.701 49.3158 102.479 49.3163C102.756 49.3165 103.032 49.3541 103.302 49.4228C104.331 49.6852 105.161 50.4274 105.514 51.406C105.636 51.7613 117.845 89.5664 103.219 110.509C97.3538 118.912 88.1278 123.443 75.8043 123.978C75.0967 124.015 74.4021 124.033 73.7332 124.033Z" fill="#F71951"/>
<path d="M64.1081 125.747C68.5968 126.803 71.4846 126.779 72.7967 126.843C74.1216 126.862 73.9158 126.875 72.4236 126.861C70.9379 126.817 68.1337 126.746 64.3846 125.89C60.674 125.04 55.9413 123.261 51.628 119.563C49.481 117.729 47.4628 115.447 45.7344 112.778C44.006 110.116 42.5736 107.074 41.463 103.795C39.2418 97.2191 38.314 89.7089 38.2868 81.9126C38.2596 74.1039 39.0752 65.9716 40.5725 57.8522C40.9533 55.8208 41.3662 53.7895 41.8563 51.7706C41.9853 51.2721 42.0821 50.7487 42.3075 50.2378C42.5265 49.7394 42.8162 49.2659 43.1895 48.8549C43.9168 48.0265 44.9206 47.4226 46.0141 47.1678C47.1077 46.9067 48.2847 46.9947 49.3199 47.4067C49.8407 47.6127 50.3294 47.8997 50.7536 48.2489L51.9622 49.278L56.6226 53.2695L57.1695 53.0642L57.8771 52.8091C58.3467 52.6411 58.8228 52.4794 59.2988 52.3239C60.2509 52.0191 61.2159 51.7393 62.1808 51.4907C64.1171 50.9933 66.0726 50.6206 68.028 50.3602C71.9452 49.8392 75.8686 49.7856 79.676 50.1121C82.1778 50.3193 84.641 50.6948 87.059 51.2136C88.268 51.4699 89.4577 51.7698 90.6345 52.1008C91.2261 52.2632 91.8113 52.4381 92.39 52.6254L93.2581 52.9002L93.9526 53.1375L98.0908 49.108L99.1205 48.1053C99.4423 47.6817 99.8606 47.3517 100.298 47.0778C101.18 46.5299 102.222 46.2377 103.257 46.2508C105.341 46.2521 107.328 47.5185 108.137 49.3387C108.349 49.7938 108.464 50.2551 108.606 50.7039L108.997 52.0502C109.247 52.9478 109.485 53.8454 109.709 54.7367C111.506 61.8922 112.64 68.904 113.124 75.6037C113.609 82.3034 113.418 88.6974 112.417 94.5673C111.43 100.425 109.587 105.746 106.973 110.1C104.372 114.461 101.051 117.812 97.7175 120.134C94.378 122.469 91.0776 123.844 88.3307 124.715C85.5709 125.586 83.3324 125.983 81.8015 126.219C80.2642 126.449 79.4087 126.523 79.3315 126.529C75.9868 126.87 74.1924 126.819 73.7808 126.825C73.3627 126.812 74.321 126.837 76.4307 126.72C78.534 126.585 81.8207 126.331 85.9056 125.293C89.9582 124.249 94.8862 122.326 99.4036 118.602C101.656 116.753 103.767 114.467 105.576 111.794C107.391 109.128 108.886 106.076 110.013 102.773C112.288 96.1564 113.122 88.6099 112.941 80.8135C112.759 73.0047 111.607 64.9086 109.708 56.8743C109.233 54.8672 108.707 52.8602 108.11 50.8718C107.956 50.3731 107.828 49.8745 107.603 49.4381C107.385 48.9955 107.089 48.584 106.742 48.2286C106.035 47.5177 105.103 47.0247 104.093 46.8496C103.09 46.6744 102.035 46.8109 101.115 47.2403C100.658 47.4581 100.227 47.7445 99.873 48.0808C99.7829 48.168 99.7057 48.2552 99.6284 48.3487L99.5705 48.4172C99.5641 48.4234 99.5448 48.4483 99.519 48.4795L99.4804 48.5231L99.3388 48.6601L98.7725 49.2144L94.113 53.7608L93.0713 53.4049L92.1967 53.1239C91.6116 52.9366 91.0199 52.7617 90.4283 52.5993C89.2451 52.2682 88.0554 51.9746 86.8593 51.7245C84.467 51.2182 82.0553 50.8552 79.6435 50.6542C75.6561 50.3152 71.6748 50.4061 67.8089 50.9396C65.8792 51.2063 63.9752 51.5853 62.1161 52.064C61.1898 52.3064 60.2699 52.5738 59.3628 52.8661C58.9125 53.0154 58.4622 53.1647 58.0119 53.3264L57.3428 53.5691L56.5258 53.8801L52.1803 50.1444L51.1389 49.2463C50.7854 48.9532 50.4511 48.6351 50.104 48.3919C49.3903 47.8991 48.5415 47.5994 47.6733 47.5365C45.9304 47.3796 44.1804 48.2385 43.2405 49.6277C43.0023 49.9703 42.8155 50.3441 42.6738 50.7366C42.5449 51.1167 42.4482 51.5529 42.345 51.9703C42.1386 52.8053 41.9516 53.6465 41.771 54.4815C40.3389 61.1613 39.4407 67.6545 38.9994 73.8364C38.5646 80.0183 38.5994 85.8951 39.1812 91.3236C39.7631 96.7458 40.9048 101.726 42.6 106.027C44.2824 110.335 46.5312 113.938 48.9928 116.694C51.4415 119.463 54.0645 121.378 56.3469 122.675C58.6358 123.973 60.5906 124.685 61.9346 125.122C63.2657 125.553 64.0309 125.728 64.1081 125.747Z" fill="#740007"/>
<path d="M47.0536 59.3786C46.7384 59.4096 46.4169 59.3221 46.1533 59.1288C45.7612 58.8418 45.5814 58.3556 45.6782 57.8883L46.7167 53.109C46.8135 52.6666 47.1482 52.3116 47.592 52.181C47.6757 52.1561 47.7593 52.1375 47.8493 52.1313C48.216 52.1004 48.5889 52.219 48.8589 52.4747L51.8543 55.2748C52.15 55.5554 52.2912 55.9543 52.2331 56.3532C52.175 56.752 51.9175 57.0946 51.5443 57.2751L47.5103 59.2605C47.3624 59.3165 47.208 59.36 47.0536 59.3786Z" fill="#FA94A9"/>
<path d="M103.365 59.4142C103.68 59.4456 104.002 59.3586 104.266 59.1655C104.658 58.8791 104.839 58.3931 104.743 57.9257L103.71 53.145C103.614 52.7025 103.28 52.3471 102.836 52.2159C102.753 52.1909 102.669 52.1722 102.579 52.1659C102.212 52.1345 101.839 52.2527 101.569 52.508L98.5699 55.3043C98.2739 55.5845 98.1321 55.9833 98.1897 56.3822C98.2474 56.7811 98.5044 57.124 98.8774 57.305L102.909 59.2955C103.05 59.3517 103.205 59.3954 103.365 59.4142Z" fill="#FA94A9"/>
<path d="M74.6303 94.4073C62.7505 95.079 53.6818 104.957 54.3756 116.468C54.4074 117.029 54.4778 117.584 54.5546 118.126C57.2482 120.209 60.328 121.738 63.7812 122.719C66.4821 123.406 69.3697 123.838 72.4311 124.002C72.8556 124.014 73.2865 124.027 73.7239 124.027C74.3928 124.028 75.0874 124.016 75.7821 123.979C84.6003 123.592 91.8247 121.154 97.3716 116.726C97.4365 115.841 97.45 114.938 97.3926 114.028C96.6989 102.523 86.5102 93.7355 74.6303 94.4073Z" fill="#FFFF00"/>
<path d="M60.0466 105.329C60.0466 105.329 64.3408 108.834 68.183 104.867C68.1766 104.867 64.39 112.367 60.0466 105.329Z" fill="#FF8200"/>
<path d="M71.3513 105.932C71.3513 105.932 75.639 109.437 79.4813 105.47C79.4877 105.476 75.7011 112.971 71.3513 105.932Z" fill="#FF8200"/>
<path d="M82.9528 106.008C82.9528 106.008 87.247 109.514 91.0828 105.546C91.0893 105.546 87.3026 113.041 82.9528 106.008Z" fill="#FF8200"/>
<path d="M78.5505 112.19C78.5505 112.19 82.8447 115.695 86.6869 111.728C86.6805 111.728 82.8939 119.229 78.5505 112.19Z" fill="#FF8200"/>
<path d="M63.6794 112.249C63.6794 112.249 67.9736 115.754 71.8158 111.786C71.8094 111.786 68.0292 119.287 63.6794 112.249Z" fill="#FF8200"/>
<path d="M66.1403 98.6881C66.1403 98.6881 70.4345 102.193 74.2768 98.2259C74.2703 98.2259 70.4837 105.727 66.1403 98.6881Z" fill="#FF8200"/>
<path d="M87.2888 115.542C87.2888 115.542 91.5765 119.047 95.4188 115.079C95.4188 115.086 91.6321 122.58 87.2888 115.542Z" fill="#FF8200"/>
<path d="M70.988 117.76C70.988 117.76 75.2757 121.266 79.118 117.298C79.1244 117.304 75.3378 124.799 70.988 117.76Z" fill="#FF8200"/>
<path d="M56.6208 117.172C56.6208 117.172 60.915 120.678 64.7572 116.71C64.7572 116.71 60.9706 124.211 56.6208 117.172Z" fill="#FF8200"/>
<path d="M77.7224 98.5026C77.7224 98.5026 82.0101 102.008 85.8524 98.0403C85.8588 98.0403 82.0722 105.535 77.7224 98.5026Z" fill="#FF8200"/>
<path d="M89.2767 63.9501C83.3723 63.9464 78.2826 67.464 75.9639 72.5367C73.6517 67.4675 68.5729 63.9369 62.6621 63.9332C54.5774 63.928 48.0192 70.519 48.0141 78.6546C48.0089 86.7902 54.5586 93.3895 62.6433 93.3947C68.5477 93.3985 73.6374 89.8808 75.9561 84.8081C78.2683 89.8773 83.3471 93.4079 89.2579 93.4117C97.3426 93.4168 103.901 86.8258 103.906 78.6902C103.911 70.5547 97.3614 63.9553 89.2767 63.9501Z" fill="white"/>
<path d="M89.6054 63.898C83.5531 63.8942 78.3347 67.4312 75.9646 72.5168C73.6009 67.4281 68.387 63.8845 62.3348 63.8807C54.0507 63.8754 47.3317 70.4922 47.3265 78.6536C47.3213 86.8216 54.0319 93.4405 62.3159 93.4458C68.3682 93.4496 73.5802 89.9126 75.9567 84.827C78.3204 89.9157 83.5343 93.4593 89.5865 93.4631C97.8706 93.4684 104.59 86.8516 104.595 78.6902C104.6 70.5287 97.8895 63.9033 89.6054 63.898ZM88.7639 92.5695C83.0782 92.5658 78.1857 89.2425 75.9634 84.4581C73.735 89.2396 68.8383 92.5567 63.1462 92.5531C55.3638 92.5482 49.0582 86.3243 49.0631 78.6548C49.068 70.9852 55.3815 64.7694 63.1639 64.7744C68.8496 64.778 73.742 68.1013 75.9708 72.8857C78.1992 68.1042 83.0959 64.7871 88.7815 64.7907C96.5639 64.7956 102.87 71.0195 102.865 78.6891C102.853 86.3586 96.5398 92.5744 88.7639 92.5695Z" fill="#F76C9E"/>
<path d="M58.4218 60.4884L54.1382 60.4857C44.5678 60.4796 36.7997 68.2801 36.7936 77.9172C36.7875 87.5479 44.5392 95.3648 54.116 95.3709L58.3996 95.3737C67.97 95.3798 75.7381 87.5792 75.7442 77.9421C75.7504 68.3049 67.9986 60.4945 58.4218 60.4884ZM58.0607 92.1891L54.4589 92.1868C46.4193 92.1817 39.908 85.7053 39.9131 77.7251C39.9182 69.7448 46.4377 63.2768 54.4773 63.2819L58.0791 63.2842C66.1188 63.2893 72.63 69.7657 72.625 77.7459C72.6199 85.7262 66.1004 92.1942 58.0607 92.1891Z" fill="black"/>
<path d="M96.9765 60.5157L92.6929 60.513C83.1225 60.5069 75.3544 68.3075 75.3483 77.9446C75.3421 87.5753 83.0939 95.3922 92.6707 95.3983L96.9543 95.401C106.525 95.4071 114.293 87.6066 114.299 77.9694C114.305 68.3323 106.547 60.5218 96.9765 60.5157ZM96.6154 92.2165L93.0136 92.2142C84.9739 92.209 78.4627 85.7327 78.4678 77.7524C78.4729 69.7722 84.9923 63.3041 93.032 63.3092L96.6338 63.3115C104.673 63.3166 111.185 69.793 111.18 77.7733C111.175 85.7535 104.655 92.2216 96.6154 92.2165Z" fill="black"/>
<path d="M113.923 60.328C113.922 61.1371 113.272 61.7904 112.468 61.7898L38.6509 61.7428C37.847 61.7423 37.1978 61.0882 37.1983 60.2791C37.1988 59.4701 37.8488 58.8168 38.6528 58.8173L112.47 58.8644C113.274 58.8649 113.923 59.519 113.923 60.328Z" fill="black"/>
<path d="M75.0055 92.159C74.4846 92.1457 74.0024 91.8088 73.7519 91.2779L71.0553 83.8914C70.747 83.244 70.8247 82.435 71.2624 81.8916C71.449 81.6588 73.1483 79.5952 75.4895 79.5967C76.5057 79.5973 78.0105 80.0061 79.4242 81.9551C79.8355 82.5184 79.8864 83.3275 79.558 83.9551L76.2924 91.3378C76.022 91.8489 75.5522 92.1593 75.0377 92.159C75.0248 92.159 75.012 92.159 75.0055 92.159Z" fill="#C2000B"/>
<path d="M75.0213 90.0506C74.5196 90.0373 74.0631 89.7652 73.819 89.3249L71.2309 83.22C70.9354 82.6826 71.013 82.016 71.4249 81.5632C71.6051 81.3692 73.2334 79.6615 75.4781 79.663C76.4557 79.6636 77.8962 80.0011 79.2523 81.6135C79.6443 82.0798 79.6954 82.7464 79.3799 83.2705L76.2502 89.3718C75.9926 89.7923 75.5358 90.0509 75.047 90.0506C75.0341 90.0506 75.0277 90.0506 75.0213 90.0506Z" fill="#F71951"/>
<path d="M75.9567 89.7064C75.6542 89.9651 75.3647 90.0103 75.2104 90.0296C75.0496 90.0359 74.9981 90.0359 75.0432 90.023C75.0882 90.0101 75.2233 90.0037 75.4291 89.9326C75.6285 89.8616 75.8988 89.7129 76.1048 89.4218L79.1703 83.1586L79.1767 83.1521L79.1767 83.1457C79.4021 82.7639 79.3895 82.2526 79.1389 81.89C78.8497 81.5145 78.4448 81.1259 78.0462 80.8344C77.2233 80.219 76.2266 79.9012 75.2747 79.9588C74.3935 80.0036 73.5507 80.3202 72.8301 80.7663C72.4698 80.9926 72.1352 81.2448 71.8327 81.5229C71.6782 81.6652 71.5431 81.7946 71.4594 81.9369C71.3692 82.0857 71.3113 82.2475 71.2983 82.4158C71.2789 82.584 71.2981 82.7523 71.3494 82.9141C71.3815 83.0048 71.4008 83.0372 71.4586 83.1731L71.5678 83.445L71.9852 84.4873L72.7236 86.3647L73.7767 89.1031C74.0078 89.7635 74.4772 89.8932 74.4644 89.9126C74.8116 90.0682 75.011 90.0424 75.0303 90.0618C75.056 90.0618 74.9145 90.0941 74.6379 90.0292C74.3743 89.9579 73.937 89.7699 73.693 89.2519L72.9158 87.5493L71.946 85.3934L71.4065 84.1892L71.1303 83.5612C71.0854 83.4641 71.034 83.3346 70.989 83.2569C70.9248 83.1339 70.8798 83.0109 70.8478 82.875C70.713 82.3377 70.8871 81.7294 71.2797 81.3349C71.6272 80.9662 72.0133 80.6493 72.4316 80.3713C73.2616 79.8152 74.2459 79.4275 75.2493 79.3828C76.4842 79.3124 77.6609 79.7986 78.5159 80.511C78.7345 80.6859 78.9337 80.8802 79.1201 81.0745C79.3001 81.2753 79.4865 81.4566 79.6343 81.735C79.9169 82.2659 79.8651 82.9131 79.5689 83.3789L79.5753 83.366C78.5515 85.2682 77.6757 86.8533 77.0512 87.9726L76.3171 89.2795C76.1368 89.5901 75.9567 89.6935 75.9567 89.7064Z" fill="#740007"/>
<path d="M34.3982 109.224L0 3.26758L6.98591 -0.000892154L41.3841 105.956L34.3982 109.224Z" fill="#6A290B"/>
<path d="M9.32103 10.8237L10.3437 10.3453L10.0846 9.54715L9.06193 10.0256C8.99542 10.0568 8.99923 10.2601 9.07083 10.4807C9.14244 10.7013 9.25452 10.8549 9.32103 10.8237Z" fill="#1D1D1B"/>
<path d="M11.114 15.2417L11.8268 14.9082L11.5677 14.1101L10.8549 14.4436C10.7884 14.4747 10.7922 14.6781 10.8638 14.8987C10.9354 15.1193 11.0475 15.2728 11.114 15.2417Z" fill="#1D1D1B"/>
<path d="M12.5984 19.8042L13.3112 19.4707L13.0521 18.6726L12.3393 19.0061C12.2728 19.0372 12.2766 19.2406 12.3482 19.4612C12.4198 19.6818 12.5319 19.8353 12.5984 19.8042Z" fill="#1D1D1B"/>
<path d="M14.0827 24.3687L14.7955 24.0352L14.5364 23.2371L13.8237 23.5706C13.7571 23.6017 13.7612 23.8058 13.8326 24.0256C13.9042 24.2462 14.0162 24.3998 14.0827 24.3687Z" fill="#1D1D1B"/>
<path d="M15.5593 28.9292L16.2721 28.5957L16.013 27.7976L15.3002 28.1311C15.2337 28.1622 15.2377 28.3663 15.3091 28.5862C15.3807 28.8068 15.4928 28.9603 15.5593 28.9292Z" fill="#1D1D1B"/>
<path d="M16.7312 33.6382L17.7539 33.1597L17.4948 32.3616L16.4721 32.8401C16.4056 32.8712 16.4096 33.0753 16.4812 33.2959C16.5526 33.5157 16.6647 33.6693 16.7312 33.6382Z" fill="#1D1D1B"/>
<path d="M18.5203 38.0562L19.233 37.7227L18.9739 36.9246L18.2612 37.2581C18.1946 37.2892 18.1987 37.4933 18.2701 37.7131C18.3417 37.9337 18.4537 38.0873 18.5203 38.0562Z" fill="#1D1D1B"/>
<path d="M20.0007 42.6186L20.7135 42.2852L20.4544 41.4871L19.7416 41.8206C19.6751 41.8517 19.6789 42.0551 19.7505 42.2756C19.8221 42.4962 19.9342 42.6498 20.0007 42.6186Z" fill="#1D1D1B"/>
<path d="M21.4812 47.1812L22.194 46.8477L21.9349 46.0496L21.2221 46.3831C21.1556 46.4142 21.1594 46.6176 21.231 46.8381C21.3026 47.0587 21.4147 47.2123 21.4812 47.1812Z" fill="#1D1D1B"/>
<path d="M22.9656 51.7417L23.6783 51.4082L23.4192 50.6101L22.7065 50.9436C22.64 50.9747 22.6438 51.1781 22.7154 51.3987C22.787 51.6192 22.899 51.7728 22.9656 51.7417Z" fill="#1D1D1B"/>
<path d="M24.1374 56.4507L25.1601 55.9722L24.901 55.1741L23.8783 55.6526C23.8118 55.6837 23.8156 55.8871 23.8872 56.1077C23.9588 56.3282 24.0709 56.4818 24.1374 56.4507Z" fill="#1D1D1B"/>
<path d="M25.9265 60.8686L26.6393 60.5352L26.3802 59.7371L25.6674 60.0706C25.6009 60.1017 25.6047 60.3051 25.6763 60.5256C25.7479 60.7462 25.86 60.8998 25.9265 60.8686Z" fill="#1D1D1B"/>
<path d="M27.407 65.4312L28.1198 65.0977L27.8607 64.2996L27.1479 64.6331C27.0814 64.6642 27.0852 64.8676 27.1568 65.0881C27.2284 65.3087 27.3405 65.4623 27.407 65.4312Z" fill="#1D1D1B"/>
<path d="M28.8874 69.9956L29.6002 69.6621L29.3411 68.864L28.6283 69.1975C28.5618 69.2286 28.5656 69.432 28.6372 69.6526C28.7088 69.8732 28.8209 70.0267 28.8874 69.9956Z" fill="#1D1D1B"/>
<path d="M30.3757 74.5581L31.0885 74.2246L30.8294 73.4265L30.1166 73.76C30.0501 73.7911 30.0539 73.9945 30.1255 74.2151C30.1974 74.4364 30.3092 74.5892 30.3757 74.5581Z" fill="#1D1D1B"/>
<path d="M31.5398 79.2651L32.5625 78.7866L32.3034 77.9886L31.2807 78.467C31.2142 78.4982 31.2182 78.7023 31.2896 78.9221C31.3614 79.1434 31.4733 79.2963 31.5398 79.2651Z" fill="#1D1D1B"/>
<path d="M33.3327 83.6831L34.0455 83.3496L33.7864 82.5515L33.0737 82.885C33.0071 82.9161 33.0112 83.1203 33.0826 83.3401C33.1544 83.5614 33.2662 83.7142 33.3327 83.6831Z" fill="#1D1D1B"/>
<path d="M34.8171 88.2476L35.5299 87.9141L35.2708 87.116L34.558 87.4495C34.4915 87.4806 34.4956 87.6847 34.5669 87.9045C34.6388 88.1259 34.7506 88.2787 34.8171 88.2476Z" fill="#1D1D1B"/>
<path d="M36.2976 92.8101L37.0104 92.4766L36.7513 91.6785L36.0385 92.012C35.972 92.0431 35.976 92.2472 36.0474 92.467C36.1192 92.6883 36.2311 92.8412 36.2976 92.8101Z" fill="#1D1D1B"/>
<path d="M37.7742 97.3706L38.4869 97.0371L38.2278 96.239L37.5151 96.5725C37.4485 96.6036 37.4526 96.8078 37.524 97.0276C37.5956 97.2482 37.7076 97.4017 37.7742 97.3706Z" fill="#1D1D1B"/>
<path d="M38.946 102.082L39.9687 101.603L39.7096 100.805L38.6869 101.283C38.6204 101.315 38.6242 101.518 38.6958 101.739C38.7672 101.958 38.8795 102.113 38.946 102.082Z" fill="#1D1D1B"/>
<path d="M90.6614 82.7026C94.2497 82.7026 97.1587 80.1008 97.1587 76.8913C97.1587 73.6819 94.2497 71.0801 90.6614 71.0801C87.073 71.0801 84.1641 73.6819 84.1641 76.8913C84.1641 80.1008 87.073 82.7026 90.6614 82.7026Z" fill="#26120B"/>
<path d="M61.8489 82.7026C65.4372 82.7026 68.3462 80.1008 68.3462 76.8913C68.3462 73.6819 65.4372 71.0801 61.8489 71.0801C58.2605 71.0801 55.3516 73.6819 55.3516 76.8913C55.3516 80.1008 58.2605 82.7026 61.8489 82.7026Z" fill="#26120B"/>
<path d="M94.044 75.2383C94.044 76.3062 93.0775 77.1779 91.8755 77.1779C90.6816 77.1779 89.707 76.3134 89.707 75.2383C89.707 74.1705 90.6735 73.2988 91.8755 73.2988C93.0775 73.2988 94.044 74.1705 94.044 75.2383Z" fill="white"/>
<path d="M65.2315 75.2383C65.2315 76.3062 64.265 77.1779 63.063 77.1779C61.8691 77.1779 60.8945 76.3134 60.8945 75.2383C60.8945 74.1705 61.861 73.2988 63.063 73.2988C64.265 73.2988 65.2315 74.1705 65.2315 75.2383Z" fill="white"/>
<path d="M91.9159 97.7208L77.7339 99.6892C77.189 99.7621 76.6964 100.046 76.3307 100.44C75.9649 100.046 75.4723 99.7694 74.9274 99.6892L60.7454 97.7208C59.6258 97.5677 58.7227 98.3259 58.7227 99.4195V117.835C58.7227 118.929 59.6333 119.942 60.7454 120.095L74.9274 122.063C75.4723 122.136 75.9649 121.998 76.3307 121.706C76.6964 121.998 77.189 122.144 77.7339 122.063L91.9159 120.095C93.0355 119.942 93.9387 118.929 93.9387 117.835V99.4195C93.9461 98.3259 93.0355 97.5677 91.9159 97.7208Z" fill="#FEA621"/>
<path d="M93.2199 98.1286L77.8586 100.257C77.2689 100.338 76.7315 100.644 76.3359 101.067C75.9403 100.644 75.4029 100.338 74.8132 100.257L59.4445 98.1213C58.2353 97.9536 57.25 98.7774 57.25 99.9585V119.912C57.25 121.093 58.2353 122.194 59.4445 122.362L74.8132 124.498C75.4029 124.578 75.9403 124.425 76.3359 124.112C76.7315 124.425 77.2615 124.585 77.8586 124.498L93.2199 122.362C94.4366 122.194 95.4144 121.093 95.4144 119.912V99.9657C95.4144 98.7774 94.4291 97.9536 93.2199 98.1286Z" fill="#FF8000"/>
<path d="M94.741 99.2657L77.9913 101.591C77.3494 101.686 76.7672 102.014 76.3343 102.473C75.9014 102.014 75.3191 101.679 74.6772 101.591L57.9276 99.2657C56.6064 99.0834 55.5391 99.9802 55.5391 101.271V123.025C55.5391 124.316 56.6064 125.511 57.9276 125.693L74.6772 128.019C75.3191 128.107 75.9014 127.939 76.3343 127.596C76.7672 127.939 77.3494 128.107 77.9913 128.019L94.741 125.693C96.0621 125.511 97.1295 124.316 97.1295 123.025V101.271C97.1295 99.9802 96.0621 99.0834 94.741 99.2657Z" fill="#FEA621"/>
<path d="M97.1325 102.359V101.484C97.14 101.207 97.125 100.952 97.0579 100.711C96.931 100.238 96.6548 99.8876 96.3637 99.6616C95.7666 99.2169 95.2142 99.2315 94.9604 99.2315C94.6992 99.246 94.6618 99.2606 94.8335 99.2315C95.0052 99.2169 95.4083 99.1658 95.9457 99.3846C96.2069 99.4939 96.498 99.6835 96.7369 99.9824C96.9683 100.281 97.14 100.682 97.1698 101.149L97.1922 104.335L97.2295 113.185L97.2519 118.617L97.2594 121.533L97.2668 123.035C97.2668 123.567 97.0877 124.092 96.7817 124.544C96.4756 124.988 96.0502 125.36 95.5352 125.594C95.2814 125.71 95.0052 125.79 94.729 125.827L93.9304 125.943L90.676 126.403L83.9657 127.351L80.5396 127.832L78.8154 128.072L77.9495 128.196C77.6361 128.233 77.3226 128.211 77.0165 128.131C76.8672 128.087 76.718 128.029 76.5761 127.956C76.5015 127.919 76.4343 127.883 76.3746 127.832C76.3298 127.803 76.3522 127.817 76.3373 127.817L76.3074 127.839C76.2776 127.861 76.2402 127.883 76.2104 127.905C76.1432 127.941 76.076 127.978 76.0014 128.014C75.8596 128.08 75.7103 128.131 75.5535 128.167C75.2475 128.24 74.9191 128.24 74.6205 128.196L73.7547 128.08L70.2988 127.606L63.4466 126.658L60.0878 126.191L58.4307 125.965C58.1545 125.922 57.8858 125.907 57.5873 125.827C57.3036 125.754 57.0274 125.63 56.7811 125.477C56.2885 125.171 55.8854 124.726 55.6391 124.216C55.5122 123.96 55.4301 123.683 55.3853 123.399C55.3405 123.108 55.3629 122.838 55.3555 122.583V119.433L55.3629 113.273L55.3853 101.645C55.3928 101.419 55.3779 101.178 55.4152 100.93C55.4525 100.69 55.5271 100.449 55.6466 100.23C55.878 99.7928 56.281 99.4429 56.7438 99.2679C57.1991 99.0784 57.7291 99.0784 58.1769 99.1658L59.5205 99.3554L64.6857 100.084L73.9637 101.411C74.322 101.47 74.6653 101.491 75.0236 101.586C75.3744 101.681 75.6954 101.841 75.979 102.046C76.0462 102.097 76.1134 102.155 76.1805 102.206L76.2776 102.293L76.3298 102.344L76.3522 102.374C76.3597 102.374 76.3671 102.359 76.3746 102.352L76.4269 102.301C76.4791 102.25 76.5537 102.191 76.6135 102.14C76.8822 101.929 77.1733 101.761 77.4868 101.659C77.8003 101.543 78.1287 101.521 78.4422 101.477L79.3603 101.353L81.1144 101.12L86.929 100.34L92.027 99.6616C98.9911 98.692 91.9449 99.7199 78.8154 101.594C78.4123 101.666 77.9794 101.681 77.5913 101.805C77.1957 101.936 76.8523 102.148 76.5314 102.454L76.3447 102.621C76.285 102.592 76.2253 102.505 76.1656 102.454C76.0611 102.352 76.0014 102.308 75.9118 102.235C75.7401 102.104 75.561 101.995 75.3669 101.907C74.9788 101.717 74.5384 101.688 74.0756 101.623L68.4029 100.85L62.3419 100.026L59.1995 99.596L58.4009 99.4866C58.1321 99.4575 57.8634 99.3991 57.6171 99.3991C57.117 99.3918 56.6169 99.5741 56.2586 99.9168C55.9004 100.259 55.7063 100.748 55.7063 101.251V102.862L55.7137 106.114L55.7212 112.682L55.7287 119.265V122.532C55.7361 122.801 55.7137 123.078 55.7511 123.319C55.7809 123.567 55.8556 123.807 55.9675 124.033C56.184 124.485 56.5423 124.879 56.9752 125.149C57.1917 125.28 57.423 125.389 57.6694 125.448C57.9082 125.513 58.1844 125.535 58.4531 125.572L60.0654 125.798L63.26 126.242L69.5001 127.117L72.538 127.54L74.0309 127.752L74.7698 127.854C75.0012 127.883 75.2326 127.868 75.4565 127.817C75.6804 127.766 75.8894 127.679 76.076 127.562L76.1805 127.489L76.3224 127.38C76.3671 127.387 76.4194 127.445 76.4642 127.474L76.5761 127.555C76.6657 127.613 76.7627 127.671 76.8672 127.715C77.2852 127.897 77.7331 127.905 78.2108 127.817L81.0621 127.431L91.721 125.98L94.1841 125.645C94.5947 125.586 94.9828 125.564 95.3336 125.411C95.6844 125.273 96.0054 125.054 96.2667 124.792C96.7891 124.259 97.0802 123.545 97.0355 122.83L97.0429 120.68L97.1325 102.359Z" fill="#4D1F03"/>
<path d="M79.8256 101.334L77.982 101.589C77.34 101.684 76.7578 102.012 76.3249 102.471C75.892 102.012 75.3098 101.677 74.6679 101.589L72.8242 101.334V127.762L74.6679 128.017C75.3098 128.104 75.892 127.937 76.3249 127.594C76.7578 127.937 77.34 128.104 77.982 128.017L79.8256 127.762V101.334Z" fill="#FF8000"/>
<path d="M79.8286 103.689C79.8286 99.373 79.866 101.392 79.9033 106.488L80.0078 127.915L78.0298 128.192C77.7088 128.236 77.3655 128.228 77.0445 128.148C76.8877 128.104 76.731 128.053 76.5817 127.973C76.5071 127.937 76.4399 127.893 76.3653 127.849L76.3279 127.82C76.3205 127.827 76.3429 127.813 76.313 127.835C76.2757 127.857 76.2458 127.878 76.2085 127.9C76.1339 127.944 76.0667 127.981 75.992 128.017C75.8428 128.083 75.686 128.134 75.5293 128.17C75.2083 128.243 74.8724 128.236 74.5664 128.185L72.6406 127.922V127.113L72.6854 112.386L72.7675 101.254L74.1857 101.465C74.3947 101.502 74.5962 101.524 74.8052 101.56C75.0068 101.604 75.1934 101.662 75.3651 101.742C75.7159 101.895 76.007 102.107 76.2234 102.326L76.2906 102.398L76.3279 102.435L76.3653 102.398C76.41 102.355 76.4548 102.311 76.5145 102.26C76.6265 102.165 76.7385 102.078 76.843 102.012C77.2908 101.728 77.7013 101.626 77.9775 101.589L78.4254 101.531C80.1496 101.29 80.1944 101.298 79.03 101.473C78.4776 101.604 77.47 101.516 76.6116 102.282C76.5593 102.333 76.5145 102.369 76.4399 102.442L76.3354 102.544C76.3205 102.581 76.3055 102.537 76.2831 102.522L76.2309 102.471C76.1563 102.391 76.0965 102.34 76.0443 102.296C75.9846 102.245 75.9249 102.202 75.8652 102.158C75.6188 101.976 75.3277 101.83 74.9993 101.735C74.6783 101.648 74.3126 101.626 73.9469 101.575L72.9093 101.436L72.9765 113.305L73.0064 127.113V127.594L74.6783 127.827C74.962 127.864 75.2456 127.857 75.5143 127.784C75.6487 127.747 75.7756 127.696 75.895 127.638C75.9547 127.609 76.0144 127.572 76.0667 127.536L76.1413 127.485L76.2309 127.419C76.2608 127.405 76.2906 127.354 76.3205 127.375L76.41 127.441C76.5593 127.558 76.5817 127.565 76.6414 127.601C76.7011 127.638 76.7609 127.667 76.8206 127.696C76.9475 127.755 77.0744 127.791 77.2087 127.82C77.4774 127.878 77.7461 127.871 78.0298 127.827L79.6196 127.609L79.7241 110.615L79.8286 103.689Z" fill="#4D1F03"/>
<path d="M16.0963 100.013C16.0519 100.649 16.3465 101.257 16.8679 101.595L21.0983 104.363L17.365 107.583C16.9869 107.908 16.763 108.372 16.7297 108.856C16.7214 108.959 16.7242 109.068 16.7355 109.174C16.8004 109.77 17.1594 110.287 17.6836 110.547C18.4236 110.905 35.8644 119.212 50.3213 106.6C50.6938 106.273 50.9148 105.815 50.9481 105.33C50.9676 105.089 50.9338 104.844 50.8524 104.612C50.6138 103.932 44.6992 88.0226 20.4194 90.2426C19.7469 90.3034 19.1615 90.7567 18.9126 91.4013C18.8426 91.5748 18.8035 91.7561 18.7924 91.9366C18.7591 92.421 18.9219 92.9001 19.2528 93.2603L22.1103 96.3226L17.1881 98.4391C16.5858 98.6983 16.1631 99.2731 16.0906 99.9388C16.1047 99.967 16.0991 99.9929 16.0963 100.013Z" fill="#F7386C"/>
<path d="M18.7422 97.7881C17.9999 98.1226 17.3667 98.3454 16.9017 98.621C16.4536 98.9333 16.2717 99.3243 16.1962 99.581C16.1179 99.8434 16.1236 99.9891 16.1236 100.018C16.1264 100.041 16.1292 99.9489 16.1739 99.7561C16.2186 99.5632 16.3249 99.2571 16.5937 98.9582C16.7281 98.8087 16.9073 98.6666 17.1286 98.552L17.8934 98.2284L22.3029 96.3716L19.3333 93.1407C18.8538 92.6156 18.7915 91.6989 19.2731 91.0739C19.4999 90.7617 19.8444 90.5351 20.2255 90.4477C20.6009 90.3862 21.0661 90.3681 21.4892 90.3369C24.9638 90.1013 28.8421 90.1897 32.749 91.0212C36.6474 91.8414 40.5603 93.4623 43.8125 96.0077C45.4358 97.2719 46.8967 98.7435 48.1196 100.365C48.731 101.175 49.2808 102.027 49.7577 102.901C49.9962 103.338 50.2178 103.782 50.4115 104.24C50.622 104.706 50.7511 105.098 50.6561 105.524C50.6058 105.785 50.4883 106.029 50.3175 106.225C50.1607 106.407 49.8862 106.617 49.6622 106.809C49.1944 107.205 48.7183 107.575 48.2253 107.937C47.2562 108.655 46.2451 109.303 45.2226 109.874C43.1665 111.024 41.0206 111.86 38.8772 112.417C34.5822 113.536 30.3648 113.519 26.6487 112.966C24.7823 112.692 23.0362 112.284 21.4218 111.789C20.6146 111.542 19.8354 111.279 19.101 110.996C18.7339 110.854 18.3695 110.706 18.0219 110.552C17.6631 110.407 17.3744 110.232 17.164 109.937C16.7433 109.376 16.7624 108.563 17.1292 108.018C17.3055 107.739 17.58 107.543 17.8349 107.316L18.5686 106.67L21.1956 104.366L17.1167 101.756C16.643 101.492 16.3569 101.139 16.2362 100.83C16.1071 100.525 16.0985 100.284 16.0929 100.153C16.1095 99.8894 16.0479 100.017 16.1071 100.496C16.1521 100.732 16.2588 101.055 16.528 101.357C16.8028 101.662 17.2317 101.876 17.6746 102.191L20.9518 104.384L17.9299 106.947C17.647 107.204 17.3529 107.397 17.0645 107.723C16.7929 108.042 16.6279 108.455 16.5973 108.891C16.5696 109.321 16.6931 109.767 16.9512 110.12C17.1952 110.488 17.6269 110.712 17.9941 110.868C21.0298 112.214 24.6229 113.223 28.5126 113.632C32.3939 114.029 36.6055 113.757 40.6286 112.456C42.6374 111.819 44.5816 110.929 46.3995 109.828C47.3071 109.281 48.1838 108.682 49.0212 108.036C49.4386 107.716 49.8475 107.385 50.248 107.042L50.5476 106.78C50.6597 106.677 50.7605 106.568 50.8473 106.446C51.0208 106.201 51.1439 105.917 51.2026 105.624C51.2864 105.249 51.2469 104.859 51.1262 104.507C51.0111 104.187 50.8764 103.893 50.7445 103.593C50.4695 103.003 50.1609 102.439 49.8327 101.887C49.1707 100.794 48.419 99.7729 47.6058 98.8362C45.9793 96.9628 44.1008 95.4107 42.1216 94.1817C38.1493 91.7242 33.8499 90.5885 29.9658 90.1398C28.0153 89.9113 26.149 89.8523 24.4116 89.8843C23.5401 89.8989 22.6967 89.9414 21.8869 90.0001L20.682 90.1037C20.3009 90.1196 19.8666 90.217 19.5445 90.4544C18.8667 90.913 18.573 91.7791 18.7528 92.481C18.8315 92.8336 19.0194 93.1462 19.2522 93.3803L19.8999 94.0582L22.0563 96.3238L18.7422 97.7881Z" fill="#F8013A"/>
<path d="M49.7748 104.191C49.8506 104.407 49.8844 104.638 49.8649 104.864C49.8483 105.114 49.77 105.362 49.644 105.58C44.3925 96.7621 34.1792 93.5667 24.3021 94.7594C23.4503 94.8622 22.6069 95.0048 21.7608 95.1675L20.3026 93.6043C19.9941 93.2692 19.8425 92.8241 19.8675 92.3714C19.8786 92.2052 19.9149 92.0297 19.9792 91.8678C20.2142 91.2665 20.7632 90.8456 21.3852 90.789C44.0343 88.7241 49.553 103.562 49.7748 104.191Z" fill="#FA94A9"/>
<path d="M89.4048 121.562C88.9999 121.067 88.8745 120.394 89.0868 119.795L90.7961 114.952L85.9683 114.594C85.4827 114.559 85.0323 114.319 84.7222 113.943C84.6533 113.862 84.5955 113.776 84.5404 113.681C84.2441 113.153 84.2203 112.515 84.4817 111.985C84.8509 111.241 93.7307 93.8274 112.491 95.3331C112.98 95.3733 113.425 95.6162 113.723 95.9841C113.876 96.1738 113.992 96.389 114.067 96.6326C114.277 97.3346 118.924 113.942 98.5159 126.911C97.9512 127.271 97.2251 127.258 96.6515 126.886C96.4954 126.785 96.3556 126.661 96.2406 126.517C95.9305 126.14 95.7778 125.648 95.8325 125.15L96.2922 120.901L91.1713 122.164C90.5437 122.318 89.8752 122.102 89.4337 121.605C89.4364 121.596 89.4221 121.582 89.4048 121.562Z" fill="#F7386C"/>
<path d="M92.7887 121.774C92.0075 121.955 91.3781 122.16 90.8551 122.217C90.3257 122.234 89.946 122.023 89.7382 121.861C89.5275 121.694 89.4437 121.571 89.4265 121.55C89.4148 121.528 89.4668 121.602 89.6179 121.735C89.7662 121.861 90.0306 122.052 90.4189 122.129C90.6131 122.167 90.8347 122.177 91.0776 122.133L91.8697 121.932L96.4234 120.761L95.9761 125.214C95.9091 125.935 96.3927 126.721 97.1342 126.943C97.5009 127.06 97.9012 127.037 98.2541 126.879C98.5897 126.7 98.9627 126.431 99.3141 126.202C102.182 124.272 105.184 121.834 107.772 118.775C110.36 115.731 112.49 112.018 113.573 107.963C114.116 105.939 114.402 103.85 114.412 101.78C114.417 100.745 114.354 99.7147 114.22 98.7072C114.151 98.2006 114.065 97.7024 113.952 97.2184C113.847 96.7087 113.721 96.3104 113.39 96.0166C113.201 95.8382 112.961 95.708 112.707 95.6492C112.476 95.5935 112.14 95.5914 111.848 95.5667C111.25 95.5316 110.656 95.5165 110.062 95.5156C108.876 95.5198 107.703 95.604 106.56 95.76C104.268 96.0747 102.089 96.6933 100.076 97.5446C96.043 99.2442 92.7307 101.826 90.1273 104.539C88.82 105.897 87.6818 107.3 86.6946 108.684C86.2009 109.376 85.7494 110.068 85.334 110.749C85.1305 111.091 84.9326 111.43 84.7488 111.769C84.5509 112.109 84.4254 112.425 84.4298 112.791C84.4244 113.509 84.9136 114.156 85.5264 114.385C85.8259 114.507 86.162 114.495 86.4963 114.534L87.4537 114.617L90.8759 114.904L89.1875 119.527C88.9676 120.029 88.9515 120.492 89.0337 120.819C89.1103 121.148 89.2459 121.346 89.3182 121.461C89.4878 121.671 89.3602 121.599 89.1275 121.168C89.0251 120.953 88.9176 120.618 88.9544 120.209C88.9938 119.792 89.2066 119.358 89.3643 118.83L90.66 115.043L86.7788 114.788C86.4053 114.754 86.0637 114.769 85.6471 114.678C85.25 114.584 84.8697 114.344 84.5995 114.005C84.3238 113.669 84.1638 113.23 84.1606 112.784C84.1349 112.335 84.3419 111.89 84.5396 111.536C86.1404 108.584 88.3764 105.574 91.2044 102.878C94.0268 100.184 97.5065 97.849 101.434 96.4633C103.39 95.7633 105.441 95.3041 107.514 95.0938C108.549 94.9858 109.591 94.9465 110.625 94.9614C111.147 94.9704 111.66 94.9907 112.174 95.0253L112.567 95.0564C112.716 95.0744 112.856 95.1039 113 95.1534C113.28 95.2495 113.546 95.4027 113.763 95.61C114.046 95.8634 114.243 96.2107 114.357 96.5717C114.45 96.9069 114.521 97.2248 114.589 97.5512C114.717 98.2012 114.805 98.8567 114.869 99.5034C114.99 100.8 114.99 102.092 114.903 103.35C114.72 105.877 114.148 108.284 113.306 110.49C111.617 114.918 108.898 118.462 106.104 121.199C104.699 122.571 103.268 123.755 101.873 124.79C101.18 125.309 100.486 125.786 99.8192 126.233L98.8258 126.876C98.5161 127.092 98.1163 127.281 97.7267 127.284C96.9287 127.322 96.1923 126.794 95.9209 126.109C95.7769 125.771 95.736 125.402 95.7911 125.07L95.9041 124.124L96.2788 120.958L92.7887 121.774Z" fill="#F8013A"/>
<path d="M113.484 97.638C113.418 97.4116 113.307 97.2079 113.164 97.0354C113.003 96.8428 112.798 96.6871 112.569 96.5799C113.596 106.985 107.422 115.812 98.9451 120.851C98.2166 121.286 97.4676 121.682 96.7073 122.069L96.4726 124.233C96.42 124.693 96.5637 125.154 96.8537 125.505C96.9628 125.637 97.0912 125.752 97.2389 125.851C97.7727 126.2 98.4569 126.213 98.9771 125.876C118.01 113.773 113.676 98.2912 113.484 97.638Z" fill="#FA94A9"/>
</svg>
