<svg viewBox="0 0 218.28 131.93" xmlns="http://www.w3.org/2000/svg" xmlns:xlink="http://www.w3.org/1999/xlink"><clipPath id="a" transform="translate(-21.1 -25.77)"><path d="m192.88 80.82c5.86 5.85-.57 15.68-1 22.81s5.2 11.94 4.18 18.85c-.06 0 26.72-23.75-3.18-41.66z"/></clipPath><clipPath id="b" transform="translate(-21.1 -25.77)"><path d="m168.84 91c8.19 1.21 8.88 12.93 12.77 18.92s11.29 6.49 14.59 12.65c0 0 7.32-35.01-27.36-31.57z"/></clipPath><clipPath id="c" transform="translate(-21.1 -25.77)"><path d="m46.18 100.26c5.85 5.85-.58 15.68-1 22.81s5.19 11.93 4.17 18.84c-.02 0 26.73-23.74-3.17-41.65z"/></clipPath><clipPath id="d" transform="translate(-21.1 -25.77)"><path d="m22.14 110.44c8.18 1.2 8.88 12.93 12.77 18.92s11.29 6.49 14.58 12.64c0 0 7.33-35-27.35-31.56z"/></clipPath><clipPath id="e" transform="translate(-21.1 -25.77)"><path d="m141.62 156.86c5.14-4.34.59-12.73.71-18.53s5-9.31 4.65-15c.02.02 20.02 21.05-5.36 33.53z"/></clipPath><clipPath id="f" transform="translate(-21.1 -25.77)"><path d="m122.84 147c6.71-.43 8.06-9.87 11.62-14.46s9.57-4.49 12.65-9.26c0 .01 3.58 28.85-24.27 23.72z"/></clipPath><clipPath id="g" transform="translate(-21.1 -25.77)"><path d="m203 26.81c5.86 5.85-.57 15.68-1 22.81s5.2 11.94 4.18 18.85c-.03 0 26.71-23.75-3.18-41.66z"/></clipPath><clipPath id="h" transform="translate(-21.1 -25.77)"><path d="m179 37c8.19 1.21 8.88 12.93 12.77 18.92s11.23 6.48 14.54 12.64c0 0 7.32-35.01-27.31-31.56z"/></clipPath><clipPath id="i" transform="translate(-21.1 -25.77)"><path d="m224.23 39.13c-6.45 2.27-5.16 11.89-7.37 17.36s-8.13 7-9.83 12.55c-.03-.04-11.47-27.22 17.2-29.91z"/></clipPath><clipPath id="j" transform="translate(-21.1 -25.77)"><path d="m238.52 55.29c-6.54-2-11.23 6.46-16.27 9.54s-10.72.81-15.37 4.22c0 0 7.02-28.69 31.64-13.76z"/></clipPath><g transform="translate(-21.1 -25.77)"><path d="m204.75 59.61-9.89 4.75c-12.49-5.3-9.9 4.75-9.9 4.75-9 21.58-69 52.63-69 52.63-14.84-1.57-44.3 16.26-44.3 16.26-6.1-4.84-14.12-7.89-22.68-9.81a44.77 44.77 0 0 1 .57 14.46c15.89 3.54 27.3 7.19 27.3 7.19 23.34-15.08 33.87-15.7 33.87-15.7l92.49-1.85c8.68-8.65-5.83-11.58-5.83-11.58a58.61 58.61 0 0 0 3.86-4.73 17 17 0 0 1 -1.65-2 7.55 7.55 0 0 1 -.69-.37 79.23 79.23 0 0 1 -14.5 12.54l-38.71-1.26c25.55-21 63.68-57.59 63.68-57.59z" fill="#6b1403"/><path d="m126.42 122.56-9.62.39.22-.13.3-.18.38-.23.67-.4a3 3 0 0 1 .35-.21c.38-.24.82-.51 1.3-.79.19-.13.41-.26.62-.39l.88-.54 1-.62.83-.5 1.24-.78.41-.18 3.36-2.08.47-.31c.56-.35 1.16-.72 1.76-1.11l.79-.49 1.87-1.19c.23-.14.48-.3.72-.47 2.19-1.39 4.53-2.89 7-4.48l.66-.43 2.37-1.64.59-.38c3.66-2.41 7.5-5 11.41-7.66l.5-.35c4-2.73 1 .18 5-2.69l.32-.23 2.84-2.08.31-.23c3-2.18-8.1 7.1-5.32 4.9h.08c.87-.68 1.73-1.38 2.57-2.05l.47-.38c.84-.68 1.67-1.36 2.48-2 1.78-1.46 3.49-2.92 5.11-4.36 7.55-6.69 13.21-12.9 15.23-17.74 0 0-2-7.84 6.28-5.93l.9 10.74s-36.1 35.91-66.35 47.2z" fill="#8d452f"/><path d="m192.88 80.82c5.86 5.85-.57 15.68-1 22.81s5.2 11.94 4.18 18.85c-.06 0 26.72-23.75-3.18-41.66z" fill="#40a629"/></g><g clip-path="url(#a)"><path d="m196.79 123.19a1 1 0 0 1 -1.66-1.23c6-10.5 7.27-20.49 3.89-29.7a28.08 28.08 0 0 0 -6.83-10.65 1 1 0 0 1 -.09-1.47 1 1 0 0 1 1.46-.1 30.06 30.06 0 0 1 7.44 11.51c2.48 6.74 3.79 17.67-4 31.44a1 1 0 0 1 -.21.2z" fill="#5cb323" transform="translate(-21.1 -25.77)"/></g><path d="m168.84 91c8.19 1.21 8.88 12.93 12.77 18.92s11.29 6.49 14.59 12.65c0 0 7.32-35.01-27.36-31.57z" fill="#117e2e" transform="translate(-21.1 -25.77)"/><g clip-path="url(#b)"><path d="m197.23 122.69a1 1 0 0 1 -2.06 0c-1.47-12-6.38-20.78-14.58-26.16a28.2 28.2 0 0 0 -11.83-4.53 1 1 0 1 1 .16-2.07 29.86 29.86 0 0 1 12.8 4.82c6 3.94 13.58 11.93 15.51 27.65a1 1 0 0 1 0 .29z" fill="#5cb323" transform="translate(-21.1 -25.77)"/></g><path d="m46.18 100.26c5.85 5.85-.58 15.68-1 22.81s5.19 11.93 4.17 18.84c-.02 0 26.73-23.74-3.17-41.65z" fill="#117e2e" transform="translate(-21.1 -25.77)"/><g clip-path="url(#c)"><path d="m50.09 142.62a1 1 0 0 1 -1.66-1.22c6-10.5 7.27-20.49 3.89-29.7a28.17 28.17 0 0 0 -6.83-10.7 1 1 0 0 1 1.37-1.56 30 30 0 0 1 7.41 11.56c2.47 6.74 3.79 17.68-4 31.45a.7.7 0 0 1 -.18.17z" fill="#5cb323" transform="translate(-21.1 -25.77)"/></g><path d="m22.14 110.44c8.18 1.2 8.88 12.93 12.77 18.92s11.29 6.49 14.58 12.64c0 0 7.33-35-27.35-31.56z" fill="#40a629" transform="translate(-21.1 -25.77)"/><g clip-path="url(#d)"><path d="m50.53 142.12a1 1 0 0 1 -.91.91 1 1 0 0 1 -1.15-.9c-1.48-12-6.38-20.79-14.59-26.17a28.28 28.28 0 0 0 -11.83-4.49 1 1 0 0 1 -.95-1.12 1 1 0 0 1 1.12-.95 30 30 0 0 1 12.78 4.83c6 3.93 13.58 11.93 15.51 27.65a1 1 0 0 1 .02.24z" fill="#5cb323" transform="translate(-21.1 -25.77)"/></g><path d="m141.62 156.86c5.14-4.34.59-12.73.71-18.53s5-9.31 4.65-15c.02.02 20.02 21.05-5.36 33.53z" fill="#40a629" transform="translate(-21.1 -25.77)"/><g clip-path="url(#e)"><path d="m147.64 122.83a.85.85 0 0 0 -1.43.88c4.13 8.9 4.51 17.08 1.15 24.31a22.92 22.92 0 0 1 -6.24 8.17.84.84 0 1 0 1 1.35 24.15 24.15 0 0 0 6.77-8.81c2.46-5.29 4.26-14-1.15-25.73a.59.59 0 0 0 -.1-.17z" fill="#5cb323" transform="translate(-21.1 -25.77)"/></g><path d="m122.84 147c6.71-.43 8.06-9.87 11.62-14.46s9.57-4.49 12.65-9.26c0 .01 3.58 28.85-24.27 23.72z" fill="#40a629" transform="translate(-21.1 -25.77)"/><g clip-path="url(#f)"><path d="m148 123.26a.84.84 0 0 0 -1.67-.14c-2 9.6-6.56 16.4-13.57 20.2a22.76 22.76 0 0 1 -9.87 2.84.85.85 0 0 0 -.85.85.84.84 0 0 0 .84.84 24.36 24.36 0 0 0 10.69-3c5.13-2.79 11.79-8.75 14.41-21.35a.65.65 0 0 0 .02-.24z" fill="#5cb323" transform="translate(-21.1 -25.77)"/></g><path d="m203 26.81c5.86 5.85-.57 15.68-1 22.81s5.2 11.94 4.18 18.85c-.03 0 26.71-23.75-3.18-41.66z" fill="#40a629" transform="translate(-21.1 -25.77)"/><g clip-path="url(#g)"><path d="m206.9 69.18a1 1 0 0 1 -1.26.19 1 1 0 0 1 -.4-1.42c6-10.5 7.27-20.49 3.89-29.7a28 28 0 0 0 -6.82-10.65 1 1 0 0 1 -.1-1.47 1 1 0 0 1 1.46-.1 30.07 30.07 0 0 1 7.41 11.5c2.48 6.75 3.79 17.68-4 31.45a1 1 0 0 1 -.18.2z" fill="#5cb323" transform="translate(-21.1 -25.77)"/></g><path d="m179 37c8.19 1.21 8.88 12.93 12.77 18.92s11.23 6.48 14.54 12.64c0 0 7.32-35.01-27.31-31.56z" fill="#40a629" transform="translate(-21.1 -25.77)"/><g clip-path="url(#h)"><path d="m207.34 68.68a1 1 0 0 1 -2.06 0c-1.47-12-6.38-20.78-14.59-26.16a28.11 28.11 0 0 0 -11.83-4.52 1 1 0 0 1 .14-2 30 30 0 0 1 12.81 4.83c6 3.94 13.57 11.93 15.5 27.65a1 1 0 0 1 .03.2z" fill="#5cb323" transform="translate(-21.1 -25.77)"/></g><path d="m224.23 39.13c-6.45 2.27-5.16 11.89-7.37 17.36s-8.13 7-9.83 12.55c-.03-.04-11.47-27.22 17.2-29.91z" fill="#40a629" transform="translate(-21.1 -25.77)"/><g clip-path="url(#i)"><path d="m206.21 69.3a.86.86 0 0 0 1.67-.32c-.69-10 1.89-17.86 7.7-23.51a23.2 23.2 0 0 1 8.88-5.47.86.86 0 1 0 -.46-1.65 24.62 24.62 0 0 0 -9.62 5.93c-4.25 4.14-9.13 11.81-8.21 24.86a1.18 1.18 0 0 0 .04.16z" fill="#5cb323" transform="translate(-21.1 -25.77)"/></g><path d="m238.52 55.29c-6.54-2-11.23 6.46-16.27 9.54s-10.72.81-15.37 4.22c0 0 7.02-28.69 31.64-13.76z" fill="#117e2e" transform="translate(-21.1 -25.77)"/><g clip-path="url(#j)"><path d="m206.07 68.78a.85.85 0 0 0 .34 1 .88.88 0 0 0 1.19-.26c5.37-8.41 12.16-13.22 20.19-14.3a23.14 23.14 0 0 1 10.42.87.87.87 0 0 0 1.11-.5.85.85 0 0 0 -.5-1.1 24.6 24.6 0 0 0 -11.26-1c-5.88.79-14.37 4-21.41 15.07a1.08 1.08 0 0 0 -.08.22z" fill="#5cb323" transform="translate(-21.1 -25.77)"/></g></svg>