<svg fill="none" height="92" viewBox="0 0 175 92" width="175" xmlns="http://www.w3.org/2000/svg"><path d="m.327331 76.1509c12.287269.0601 24.699969-2.211 36.691869-5.3749 2.0067-.5281 4.0094-1.0991 6.004-1.6872-1.7357-2.4299-3.1193-5.478-4.7417-7.8091-3.5725-5.1259-8.0675-8.6548-12.2347-12.9307-.4046-.4164-.7282-1.215-.5664-1.8933 1.1935-5.0357 6.8294.4723 8.2778 1.7173 2.7836 2.3869 5.2677 4.5978 7.9097 7.2166 1.2501 1.2407 2.6904 3.134 4.1348 4.7524 1.9703 1.7988 3.5604 4.2502 5.3931 6.255.0648.0473.1336.0773.2023.1245 14.8969-4.7266 29.6925-9.8311 45.1396-10.3205.3682-.0129.6635-.3392.615-.8157-1.0074-9.6937-5.0128-18.8079-8.9494-27.0592-3.2772-6.8646-9.1841-11.6556-11.7856-18.99249 1.2583-1.51975 2.7148-2.51574 4.4787-2.51574.7647.98312 1.5253 1.97052 2.2738 2.9751 2.557 4.04833 5.025 8.19973 7.4606 12.35113 1.0357-2.5758 1.5172-5.5595 2.1807-8.2513.9063-3.7006 2.2212-7.5214 2.4437-11.39375.1294-2.249565 1.2785-3.151109 2.7916-1.983395 1.6426 1.266455.4248 7.560085.2064 9.371765-.1619 1.35658-.3561 2.78188-.5786 4.22868-.6028 5.2418-1.9461 10.5867-2.9899 15.249 3.5199 6.959 6.3193 14.5234 10.6403 20.7784 3.909 5.6625 8.395 9.8783 14.011 12.613 6.971 3.3958 15.427 2.314 22.859 2.5415 6.372.1975 12.631.644 18.886 1.9791 3.083.6568 6.142 1.5026 9.192 2.3311.013 0 .029 0 .041.0043 1.452.6912 2.257 1.8074 2.775 3.3014.506 3.2627.818 6.5469.862 7.2553.093 1.4124.065 2.7991-.061 4.1557-.093.455-.202.9101-.331 1.3566-.943 3.2327-2.509 4.9799-4.451 5.9802-14.039 1.4897-27.953-2.1379-41.292-7.2939-7.853-3.0395-15.532-6.6886-23.393-9.6894-6.1658-2.3526-12.5016-3.2842-18.9547-2.8893-8.3871-.9058-16.5193.6139-25.1895 2.0864-10.7418 1.8203-21.4309 3.838-32.1565 5.83-5.5509 1.0304-11.0977 1.8332-16.6851 2.2882-3.11931.2533-7.42814-.352-10.689101.7427-.849629-1.919-.954821-4.3617-.420768-6.5855z" fill="#8f5237"/><g fill="#ba874a"><path d="m91.9213 26.1019c-.534-1.3694-.8982-2.799-1.1895-4.2587.9589-2.5114 1.4404-5.3663 2.0756-7.955.9062-3.7006 2.2211-7.52147 2.4437-11.39382.1132-1.970512 1.0074-2.9064 2.2495-2.322543-1.9501 8.629063-2.5975 17.661663-5.5793 25.930063z"/><path d="m83.296 14.9911c2.9899 4.3145 5.5024 8.8566 7.675 13.8795 2.0432 4.7309 3.5887 9.698 5.1625 14.6951 1.3756 4.3618 2.8362 8.891 2.9818 13.6563-.6878-.468-1.3918-.893-2.0998-1.3137.0931-.1374.1497-.3134.1295-.5324-1.0074-9.6937-5.0128-18.8079-8.9494-27.0592-3.2772-6.8646-9.1841-11.6556-11.7856-18.99247.4976-.60532 1.0276-1.12049 1.5981-1.52833 1.5374 2.6188 3.5644 4.7052 5.2879 7.1952z"/><path d="m46.1187 66.7955c.9184 2.5544-1.1086 2.7605-3.2084 2.3183.0364-.0086.0728-.0172.1093-.0301-1.7357-2.4298-3.1194-5.4779-4.7418-7.809-3.5725-5.126-8.0674-8.6548-12.2346-12.9307-.4046-.4165-.7283-1.215-.5665-1.8933.1902-.8114.4896-1.3094.8497-1.6099 5.5913 4.2201 10.8145 9.3074 15.3095 15.1459 1.5495 2.0221 3.5522 4.2244 4.4828 6.8088z"/><path d="m2.46397 78.4168c8.32633-.3349 16.72553-.2748 25.01953-1.6357 8.5085-1.3952 16.9279-3.662 25.3352-5.8686 3.9366-1.0346 7.9703-2.3698 11.9757-2.8206 2.2009-.249 4.3897-.3348 6.5462-.8586 20.3385-4.2844 40.0624 2.4385 58.9884 10.2004 13.408 5.4994 29.539 12.5829 43.651 5.2933-.02.5796-.073 1.1506-.126 1.7172-.085.4122-.182.8243-.299 1.2321-.943 3.2327-2.508 4.98-4.45 5.9803-14.04 1.4897-27.953-2.138-41.292-7.2939-7.853-3.0395-15.532-6.6886-23.394-9.6895-6.1654-2.3526-12.5012-3.2842-18.9544-2.8892-8.387-.9059-16.5192.6139-25.1894 2.0864-10.7418 1.8203-21.4309 3.838-32.1565 5.83-5.5509 1.0303-11.0978 1.8331-16.6851 2.2882-3.11933.2533-7.42816-.352-10.68912.7427-.554282-1.2536-.7848955-2.7304-.73634527-4.2244.82535427-.0257 1.64261527-.0558 2.45583527-.0901z"/></g><g fill="#d9b387"><path d="m96.6959 15.0684c.534-4.1901 1.4484-8.43162 1.675-12.64312.004-.03434.0364-.01288.0364.01288.1133 3.70062-.5583 7.32397-1.0115 10.99454-.5947 4.7653-1.4241 9.7281-2.8806 14.2358-.0405.1288-.1821-.0043-.1578-.1073.9831-4.0613 1.8044-8.3114 2.3385-12.4928z" opacity=".6"/><path d="m80.4437 7.52112c3.6453 4.85548 7.7518 9.81828 10.1268 15.86288.0404.0944-.0607.1502-.1012.0644-2.9009-5.6883-6.6271-10.6983-10.0458-15.90152-.0162-.01717.004-.04723.0202-.02576z" opacity=".6"/><path d="m107.446 54.5302c2.233 2.8119 3.952 5.8342 7.015 7.6373 2.982 1.7602 6.603 3.2284 9.985 3.6491 5.644.6955 11.191 1.5284 16.884 1.7173 5.66.1889 11.251.4293 16.875 1.1934 4.289.5839 9.795 1.0432 13.355 3.9582-.06-.0515-.036-.1889.053-.1331l.174.1031c.073.0429.101.2275-.016.1932-11.446-3.3873-23.07-3.6706-34.851-4.2373-5.559-.2704-11.199-1.0561-16.528-2.7948-2.334-.7598-5.025-1.8288-6.962-3.5031-2.468-2.1337-4.119-5.0358-6.085-7.6932-.073-.0987.032-.1803.101-.0901z" opacity=".6"/><path d="m53.2434 67.7485c6.7-3.3228 14.1403-5.4951 21.2044-7.0879 3.7019-.8371 7.3634-1.949 11.1058-2.4599 4.1268-.5581 8.0229-.0086 12.1133-.0644.0162 0 .0283.0344.0041.0387-3.6049.5237-7.2907.2919-10.9238.8071-4.0095.5709-8.0634 1.421-12.0284 2.3783-7.234 1.7473-14.3304 3.9196-21.3904 6.6028-.089.0386-.1821-.1632-.085-.2147z" opacity=".6"/><path d="m31.4403 47.3951c3.1396 2.4771 6.1942 4.9542 9.083 7.8606 3.2124 3.2327 6.8334 6.783 9.3702 10.8486.0849.1331-.0243.3219-.1376.1846-5.8139-6.8002-11.7775-13.1411-18.3277-18.8509-.0121-.0172-.0121-.0601.0121-.0429z" opacity=".6"/><path d="m9.30548 76.8412c5.51452-.7684 11.08162-1.4167 16.55972-2.5329 4.4706-.9101 9.2528-1.3007 13.5859-3.0523.0122-.0043.0324.03.0162.0429-4.5192 2.1122-9.6736 2.6531-14.3911 3.6749-5.1665 1.1205-10.499 1.7902-15.71813 2.1207-.10519.0086-.18206-.2318-.05259-.2533z" opacity=".6"/></g></svg>