<svg fill="none" height="182" viewBox="0 0 217 182" width="217" xmlns="http://www.w3.org/2000/svg"><g fill="#6a290b"><path d="m88.972 8.59506c-38.0268 13.26214-67.6156 41.38924-81.41921 75.86684-13.18025 32.8951-11.08746 76.6081 30.34571 91.2321 42.7245 15.086 90.7475-3.185 123.2085-28.828 32.439-25.603 58.866-65.1487 43.994-104.9152-7.236-19.3323-23.711-34.03688-45.731-39.42589-25.737-6.31055-52.075.70117-74.2497 12.84149-3.0279 1.6628-.2672 5.9499 2.783 4.2871 19.9707-10.81804 43.1027-17.58936 66.4797-13.06179 21.062 4.06679 37.471 17.18869 44.795 35.33909 14.606 36.1404-7.948 72.5612-36.668 97.1622-28.52 24.401-69.5083 42.952-109.7392 35.78-22.1303-3.947-39.6966-15.786-45.75236-35.84-4.89806-16.207-2.60487-33.636 2.89432-49.4826 12.31194-35.4793 42.27914-64.4678 79.43764-80.13397.5121-.22037.1559-1.02171-.3784-.82137z"/><path d="m199.567 131.445c-4.642 1.9-11.307 6.995-11.56 12.028-.275 5.596 7.125 6.431 11.399 4.761 5.125-2.005 10.779-6.933 11.537-12.174.368-2.443-1.08-4.573-3.562-5.533-3.079-1.212-6.182-.105-9.078 1.023-2.757 1.086-.367 4.823 2.367 3.696 1.264-.627 2.597-.982 4.022-1.086 1.402 1.399 1.632 2.694.644 3.925-.414 1.024-1.448 2.109-2.206 2.903-1.885 1.921-4.528 4.03-7.401 4.427-3.562.501-5.01-1.9-3.424-4.782.506-.919 1.103-1.817 1.77-2.673 1.723-2.213 3.93-3.905 6.251-5.596.62-.438-.161-1.169-.759-.919z"/><path d="m208.709 156.377c-3.307 1.521-7.205 4.522-5.126 8.316 2.173 3.944 8.197 2.122 10.961-.215 2.882-2.421 3.519-6.944.33-9.409-2.74-2.122-7.63-.964-8.315 2.401-.378 1.865 2.575 2.679 3.189.793.567-1.715 2.93-1.243 3.496.193.662 1.693-.59 3.322-2.078 4.244-1.465.9-4.63 1.95-4.843-.536-.165-1.929 1.937-3.494 3.307-4.694.662-.579-.165-1.436-.921-1.093z"/></g><path d="m74.3281 73.0781c.0157.1094.0157.2344 0 .375-.0312.125-.0469.211-.0469.2578.0157.0313.0235.0625.0235.0938v.3047c.0156.0937.0312.1875.0469.2812 0 .125-.0078.25-.0235.375-.0156.1094-.0312.2266-.0469.3516.0157.1562.0157.25 0 .2812v.1172c.0313.2032.0391.3672.0235.4922v.375c0 .1563.0078.25.0234.2813.0157.0312.0235.0625.0235.0937v.5156.1875c.0156.0157.0234.0391.0234.0703 0 .125-.0078.2422-.0234.3516 0 .1094.0156.1875.0468.2344.0313.0625.0391.164.0235.3047-.0157.1406-.0313.2578-.0469.3515-.0156.1719-.0156.336 0 .4922.0156.1406.0391.2891.0703.4453.0313.2344.0469.375.0469.4219-.0156.0625-.0234.1172-.0234.1641.0156.0469.0234.0937.0234.1406v.1875c.0156.0469.0312.1016.0469.1641.0312.125.0547.2265.0703.3047 0 .0781-.0078.1484-.0235.2109v.2109c0 .0782.0079.1485.0235.211.0156.0468.0312.1015.0468.164.0157.0938.0157.1953 0 .3047 0 .0938.0079.2031.0235.3281.0156.0469.0234.1016.0234.1641s.0157.1328.0469.2109c.0312.0938.0469.1641.0469.211 0 .0468.0078.0937.0234.1406.0625.2812.0781.5.0469.6562-.0938.1719-.1406.2969-.1406.375-.125.0626-.2188.0938-.2813.0938s-.1172 0-.1641 0c-.0781.0156-.1484.0156-.2109 0s-.1328-.0234-.2109-.0234c-.1094-.0157-.2266-.0235-.3516-.0235-.1094 0-.2187 0-.3281 0-.0313-.0156-.0781-.0234-.1406-.0234s-.1016 0-.1172 0c-.125.0156-.1953.0156-.211 0-.0156 0-.039 0-.0703 0-.0937 0-.1953.0078-.3047.0234-.1093.0157-.2109.0313-.3047.0469-.0937 0-.1874-.0078-.2812-.0234-.0938 0-.1875.0078-.2812.0234-.0938 0-.1876.0078-.2813.0234-.0781.0157-.1484.0235-.2109.0235-.1094 0-.2188 0-.3282 0-.0937 0-.2031.0156-.3281.0469-.0469 0-.0937.0078-.1406.0234s-.0938.0234-.1406.0234c-.0625 0-.125 0-.1875 0s-.1328.0156-.211.0469l-.2578.0234c-.1875 0-.289-.0078-.3047-.0234-.0156-.0156-.039-.0234-.0703-.0234l-.2578-.0703c-.1562-.1094-.2344-.1797-.2344-.211 0-.0156-.0078-.0312-.0234-.0469-.0313-.0937-.0391-.164-.0234-.2109.0156-.0312.0312-.0625.0468-.0938 0-.1406 0-.2109 0-.2109.0156-.0156.0235-.0391.0235-.0703-.0157-.0781-.0235-.1328-.0235-.1641.0156-.0312.0235-.0625.0235-.0937l.0234-.375c.0156-.0469.0234-.1094.0234-.1875s.0079-.1406.0235-.1875c.0312-.1563.039-.2422.0234-.2578 0-.0156 0-.0391 0-.0703.0156-.1563.0156-.2344 0-.2344 0-.0156 0-.0391 0-.0703.0313-.1094.0547-.1875.0703-.2344.0157-.0625.0235-.1172.0235-.1641 0-.1718.0156-.289.0468-.3515-.0156-.0469-.0156-.1016 0-.1641.0157-.0625.0235-.1094.0235-.1406 0-.1875 0-.3125 0-.375s0-.1094 0-.1406c.0156-.0782.0234-.1719.0234-.2813s0-.2031 0-.2812c0-.2969.0078-.5391.0235-.7266.0156-.1875.0234-.3672.0234-.5391 0-.0781 0-.1406 0-.1875 0-.0625-.0078-.1328-.0234-.2109v-.6563c.0156-.0468.0156-.0937 0-.1406 0-.0468.0156-.0859.0468-.1172l-.0234-.8437c.0156-.0781.0156-.1485 0-.2109 0-.0782.0078-.1485.0234-.211 0-.1562.0078-.2578.0235-.3047.0156-.0625.0234-.125.0234-.1875s-.0078-.1172-.0234-.164c-.0157-.0469-.0235-.0938-.0235-.1407l.0469-.5156c-.0313-.2187-.0391-.3515-.0234-.3984.0156-.0625.0234-.125.0234-.1875-.0156-.2813-.0234-.5-.0234-.6563.0156-.1719.0156-.3359 0-.4922-.0313-.25-.0547-.3984-.0703-.4453-.0313-.2344-.0469-.3672-.0469-.3984.0156-.0469.0078-.1094-.0235-.1875-.0468-.0938-.0859-.1563-.1172-.1875-.0156-.0313-.0312-.0625-.0468-.0938-.0782.0313-.1641.0469-.2578.0469-.0782-.0156-.1563-.0156-.2344 0-.0938 0-.1953.0078-.3047.0235-.0937 0-.1797 0-.2578 0-.1094 0-.2109 0-.3047 0-.0781-.0157-.1641-.0079-.2578.0234-.0469 0-.1328.0156-.2578.0469-.1563.0468-.2891.0703-.3985.0703-.0625 0-.125.0078-.1875.0234-.0468.0156-.0859.0313-.1172.0469-.1562.0312-.25.0469-.2812.0469l-.3516.0468c-.2187.0625-.3593.1016-.4218.1172s-.1172.0313-.1641.0469c-.0313.0156-.0781.0234-.1406.0234-.1407-.0312-.2344-.0468-.2813-.0468-.0468-.0157-.0859-.0313-.1172-.0469-.0312-.0313-.0703-.0547-.1172-.0703-.0312-.0313-.0624-.0625-.0937-.0938-.0781-.1719-.125-.2656-.1406-.2812 0-.0313 0-.0547 0-.0703.0469-.1719.0703-.2891.0703-.3516.0156-.0625.0312-.1328.0469-.2109 0-.1407.0234-.2579.0703-.3516.0468-.1563.0703-.2813.0703-.375.0312-.0781.0547-.1563.0703-.2344.0156-.0937.0312-.1875.0469-.2812.0156-.0781.0234-.1485.0234-.211s.0078-.1328.0235-.2109c.0781-.1562.1171-.2734.1171-.3516.0313-.0937.0391-.1562.0235-.1875 0-.0312.0078-.0703.0234-.1171.0156-.0938.0313-.1641.0469-.211.0156-.0625.0234-.1094.0234-.1406l.0235-.4219.0468-.375c.0313-.0469.0391-.0859.0235-.1172 0-.0312 0-.0859 0-.164.0937-.1407.1406-.211.1406-.211.0156-.0156.0234-.0312.0234-.0469.125-.1406.2188-.2109.2813-.2109.0781-.0156.1484-.0391.2109-.0703.0313-.0156.0781-.0156.1407 0 .0624 0 .125-.0078.1874-.0234.1094-.0313.1876-.0391.2344-.0235.0469.0157.1094.0235.1875.0235.0781.0156.1485.0312.211.0468h.2343c.1875-.0156.2969-.0156.3282 0 .0468.0157.0937.0235.1406.0235.2187 0 .3516.0078.3984.0234.0625.0156.1172.0313.1641.0469.0625 0 .125.0078.1875.0234.0625 0 .125-.0078.1875-.0234.0781-.0313.1484-.0391.2109-.0234.0782.0156.1485.0234.211.0234h.164c.0469-.0156.0938-.0234.1406-.0234l.3516.0468c.1719-.0156.2734-.0234.3047-.0234.125.0156.1953.0234.2109.0234.0313-.0156.0625-.0234.0938-.0234.1719.0156.2812.0312.3281.0469.0313-.0157.0781-.0235.1406-.0235.0782 0 .1485.0078.211.0235h.5625c.1406.0156.2187.0234.2344.0234.0156-.0156.039-.0234.0703-.0234h.3515.2578c.1407 0 .2266-.0079.2578-.0235.0313-.0156.0626-.0234.0938-.0234.0625-.0156.1172-.0234.1641-.0234.0468 0 .1015-.0079.164-.0235.1407-.0156.2188-.0234.2344-.0234.0156-.0157.0313-.0235.0469-.0235.125-.0156.1953-.0156.2109 0 .0313 0 .0625-.0078.0938-.0234h.2578c0-.0156.0078-.0234.0234-.0234.125-.0157.1953-.0157.2109 0h.0704c.1718 0 .2656.0078.2812.0234h.0703c.0625 0 .1172-.0078.1641-.0234.0625-.0157.125-.0235.1875-.0235.0469-.0156.1015-.0156.1641 0 .0781.0157.125.0157.1406 0 .1718-.0156.2656-.0156.2812 0h.0469c.2344-.0312.3828-.0312.4453 0 .0781-.0312.1563-.0469.2344-.0469.0937 0 .1797-.0078.2578-.0234h.2812c.0313-.0156.0704-.0234.1172-.0234.25-.0469.4297-.0625.5391-.0469.1094 0 .2187-.0078.3281-.0234.2344-.0625.3828-.086.4453-.0703h.211c.1562-.0313.25-.0391.2812-.0235.0313.0156.0625.0235.0938.0235.1406-.0157.2343-.0235.2812-.0235.0469-.0156.086-.0234.1172-.0234.0469-.0157.0938-.0235.1406-.0235.0469 0 .0938-.0156.1407-.0468.0625.0312.1093.0625.1406.0937.0469.0156.0859.0625.1172.1406.1094.1563.1718.2735.1875.3516.0156.0781.0156.1875 0 .3281-.0157.0782-.0313.1719-.0469.2813 0 .1093-.0156.2187-.0469.3281-.0312.1094-.0469.1797-.0469.2109.0157.0157.0157.0391 0 .0703-.0468.2344-.0781.4063-.0937.5157-.0156.0937-.0313.1953-.0469.3047-.0625.1875-.1015.3203-.1172.3984 0 .0781-.0078.1562-.0234.2344-.0156.1875-.0391.3125-.0703.375-.0156.0781-.0235.1484-.0235.2109.0157.0625.0157.1328 0 .2109-.0312.1563-.0546.2579-.0703.3047-.0468.0938-.0703.1641-.0703.211.0156.0469.0156.0937 0 .1406-.0468.1406-.0781.2422-.0937.3047-.0157.0625-.0391.1328-.0703.2109.0156.0938 0 .1641-.0469.211-.0469.0468-.0859.1093-.1172.1875-.0469.0156-.0937.039-.1406.0703-.0313.0156-.0625.039-.0938.0703-.0937.0469-.1797.0469-.2578 0-.1406-.0469-.2344-.0781-.2812-.0938-.0469-.0312-.1016-.0546-.1641-.0703-.125 0-.1953-.0078-.2109-.0234 0-.0156-.0157-.0235-.0469-.0235-.0469-.0156-.1328-.0234-.2578-.0234-.1875-.0312-.2969-.039-.3282-.0234-.0312 0-.0624 0-.0937 0-.1719-.0313-.2734-.0391-.3047-.0235-.0156.0157-.039.0157-.0703 0-.125-.0312-.2266-.0468-.3047-.0468-.0781-.0157-.1562-.0313-.2344-.0469h-.4218c-.125-.0156-.2422-.0156-.3516 0-.125.0156-.2031.0625-.2344.1406-.0468.125-.0703.25-.0703.375l-.0703.5625c0 .125-.0156.2109-.0469.2578zm10.8281-1.2656c.1719 0 .2891-.0313.3516-.0937.125-.0938.2031-.1485.2344-.1641.0312-.0156.0625-.0391.0937-.0703.1563-.1406.2657-.2578.3282-.3516.125-.125.1875-.1953.1875-.2109.1093-.1094.1796-.1797.2109-.211.0313-.0312.0625-.0625.0937-.0937.1094-.0469.1876-.0938.2344-.1406.0625-.0625.125-.1094.1875-.1407.1094-.0468.1875-.0859.2344-.1171.1719-.0626.2578-.0938.2578-.0938.0156-.0156.0313-.0234.0469-.0234.0312-.0313.0625-.0547.0937-.0704.0313-.0312.0703-.0624.1172-.0937.0938-.0156.1797-.0469.2578-.0937.1719-.0626.3047-.0938.3985-.0938.1875-.0781.289-.1172.3047-.1172.0625-.0312.1171-.039.164-.0234.0469 0 .086-.0078.1172-.0235.1563.0157.25.0235.2813.0235h.3984c.0781-.0156.1406-.0156.1875 0 .0937.0156.1719.0547.2344.1172s.1406.0937.2343.0937c.0313.0469.0626.0859.0938.1172s.0547.0781.0703.1406c.125.1094.1797.1641.1641.1641 0 0 .0078.0078.0234.0234.0625.1719.0938.2656.0938.2813.0312.1719.0312.3359 0 .4922-.0157.0937-.0235.25-.0235.4687.0157.2188-.0156.3672-.0937.4453.0312.1563.0312.3203 0 .4922 0 .0781-.0078.1563-.0235.2344-.0156.0625-.0234.1328-.0234.2109v.2813c.0156.0937.0234.1875.0234.2812 0 .0625-.0078.125-.0234.1875s-.0313.1172-.0469.1641c-.0312.1562-.0547.2656-.0703.3281 0 .0469-.0078.0938-.0234.1406-.0781.2188-.1328.3516-.1641.3985-.0469.0469-.0937.0703-.1406.0703-.0313 0-.0703.0078-.1172.0234-.1719.0625-.2734.086-.3047.0703-.0156-.0156-.0469-.039-.0937-.0703-.0469.0156-.0938.0156-.1407 0-.0468-.0312-.0937-.0468-.1406-.0468-.2812.0156-.4531.0312-.5156.0468h-.2578c-.1407.0469-.2344.086-.2813.1172-.0468.0156-.0859.0391-.1172.0703-.1718.0313-.2734.0625-.3046.0938-.1094.0156-.1876.0312-.2344.0469-.0313.0156-.0625.0312-.0938.0468-.1718.0313-.2812.0469-.3281.0469-.1094.0469-.1953.1016-.2578.1641-.1719.0625-.2735.1093-.3047.1406-.0312.0312-.0703.0547-.1172.0703-.0312.0469-.0703.0859-.1172.1172-.0312.0156-.0625.0391-.0937.0703-.0938.0625-.1641.1172-.211.1641-.1093.0781-.1875.1484-.2343.2109-.0469.0469-.0938.0859-.1407.1172-.0312.0312-.0703.0625-.1171.0937-.0313.0313-.0626.0625-.0938.0938-.0156.0625-.0391.1094-.0703.1406-.0313.0313-.0625.0625-.0938.0938-.0781.1875-.1328.3125-.164.375-.0313.0468-.0469.1093-.0469.1875-.0625.0625-.1094.1406-.1406.2343-.0156.0782-.0391.1719-.0703.2813-.0157.0781-.0313.164-.0469.2578-.0156.0781-.0234.1562-.0234.2344.0312.2031.0312.3359 0 .3984-.0157.1563-.0235.25-.0235.2813.0156.0312.0235.0625.0235.0937-.0157.1719-.0235.2891-.0235.3516.0156.0468.0235.1015.0235.164-.0313.2188-.0547.3594-.0704.4219 0 .0469-.0078.0938-.0234.1406v.1172c.0156.2344.0156.3985 0 .4922-.0156.0781-.0234.1641-.0234.2578v.211c.0156.0625.0234.1328.0234.2109 0 .375.0312.6641.0938.8672.0156.125.0312.2109.0468.2578s.0235.0938.0235.1406c.0312.125.0468.2344.0468.3282 0 .0937-.0078.1562-.0234.1874-.0156.1094-.0234.1954-.0234.2579-.0782.1406-.1172.2265-.1172.2578 0 .0312-.0078.0625-.0235.0937-.0312.0469-.0781.0938-.1406.1406-.0625.0313-.1094.0704-.1406.1172-.1094-.0156-.2344 0-.375.0469-.1094.0313-.1875.0391-.2344.0235-.0469 0-.0937.0078-.1406.0234-.0469 0-.0938 0-.1406 0-.0469.0156-.086.0234-.1172.0234-.1875.0156-.2891.0156-.3047 0 0 0-.0078 0-.0235 0-.1718 0-.2734-.0078-.3046-.0234-.0157 0-.0313 0-.0469 0l-.6328.0937c-.2344.0157-.3985.0235-.4922.0235-.0781.0156-.1563.0078-.2344-.0235-.2187-.0312-.375-.0625-.4687-.0937-.0782-.0313-.1563-.0469-.2344-.0469-.1094-.0937-.1953-.1641-.2578-.2109-.0625-.0625-.125-.1172-.1875-.1641-.0469-.1562-.0781-.25-.0938-.2812 0-.0313-.0078-.0625-.0234-.0938-.0625-.2187-.0938-.3359-.0938-.3515 0-.2032 0-.3672 0-.4922.0157-.1407.0313-.2578.0469-.3516.0156-.0625.0234-.1797.0234-.3516.0313-.1718.0469-.2656.0469-.2812 0-.0781 0-.1484 0-.211 0-.0624.0078-.1093.0235-.1406.0312-.2187.0468-.3437.0468-.375-.0156-.125-.0234-.1953-.0234-.2109.0156-.0313.0234-.0625.0234-.0938 0-.0781-.0078-.1718-.0234-.2812 0-.1094 0-.2188 0-.3281.0312-.1875.0391-.2891.0234-.3047 0-.0157.0078-.0391.0235-.0703 0-.0782.0078-.1485.0234-.211s.0078-.125-.0234-.1875c0-.1719 0-.2656 0-.2812.0156-.0313.0234-.0625.0234-.0938 0-.125 0-.2343 0-.3281.0156-.1094.0156-.2266 0-.3516 0-.0468-.0078-.0937-.0234-.1406 0-.0625 0-.125 0-.1875 0-.1406.0078-.2656.0234-.375.0156-.125.0156-.25 0-.375-.0156-.2031-.0312-.3672-.0469-.4922 0-.125.0078-.25.0235-.375-.0157-.1562-.0235-.2422-.0235-.2578-.0312-.1094-.0468-.1875-.0468-.2344.0156-.0625.0156-.1328 0-.2109 0-.1406-.0157-.2188-.0469-.2344-.0156-.0312-.0235-.0625-.0235-.0937.0157-.1407.0157-.2422 0-.3047-.0156-.0625-.0234-.125-.0234-.1875.0156-.0625.0234-.1094.0234-.1406.0157-.0469.0235-.0938.0235-.1407-.0156-.1406-.0235-.2187-.0235-.2343.0157-.0157.0235-.0313.0235-.0469l-.0235-.586c0-.1093 0-.1953 0-.2578 0-.0781-.0156-.1562-.0468-.2343-.0156-.0782-.0156-.1719 0-.2813.0156-.125.0156-.2031 0-.2344-.0156-.0468-.0235-.1015-.0235-.164.0157-.0782.0157-.1563 0-.2344-.0156-.0781-.0234-.1484-.0234-.2109 0-.0469 0-.0938 0-.1407.0156-.0625.0234-.1172.0234-.164 0-.0782-.0156-.1563-.0468-.2344-.0157-.0781-.0235-.1562-.0235-.2344.0625-.2344.1016-.375.1172-.4218.0156-.0626.0469-.125.0938-.1876.1406-.125.2109-.1953.2109-.2109s.0078-.0234.0234-.0234c.125-.0157.211-.0157.2579 0 .0468 0 .0781-.0157.0937-.0469.0469.0312.0937.0391.1406.0234.0625-.0156.1172-.0234.1641-.0234.25-.0469.5312-.0469.8437 0 .1719.0312.2657.0469.2813.0469.0156-.0157.0312-.0235.0469-.0235h.2812c.0469-.0156.0938-.0234.1406-.0234.1094-.0156.1797-.0156.211 0 .0469 0 .1015-.0078.164-.0234.1875-.0313.2969-.0391.3282-.0235.0312 0 .0703-.0078.1171-.0234.0313 0 .0782.0078.1407.0234.0625 0 .1172-.0156.164-.0469.125.0157.2344.0313.3282.0469.0937 0 .2109.0078.3515.0235.1094.1093.1875.164.2344.164.0469.0469.0781.1328.0938.2578.0468.1407.0624.2266.0468.2578 0 .0313.0078.0626.0235.0938 0 .0781.0156.1719.0468.2812.0313.1094.0469.2188.0469.3282v.2578zm17.7188-1.1953c.063.0156.172.0547.328.1172.141.0468.242.125.305.2344.078.0312.148.0703.211.1171.062.0313.125.0782.187.1407.156.1093.227.1718.211.1875v.0468c.141.1094.211.1719.211.1875.031.0313.07.0704.117.1172.047.0469.086.086.117.1172.079.1094.126.1797.141.211.031.0312.063.0624.094.0937.078.1406.125.2266.141.2578.031.0156.054.0391.07.0703.156.1875.25.3282.281.4219.047.0781.094.1641.141.2578.062.1406.101.2188.117.2344.015 0 .031.0078.047.0234.047.1407.086.2344.117.2813.047.0468.086.1094.117.1875.078.125.149.2656.211.4219.078.1562.149.3281.211.5156.109.2968.195.5859.258.8672 0 .1093.008.1953.023.2578.078.2031.117.3437.117.4218 0 .0782.008.1641.024.2579.031.0781.047.1562.047.2343 0 .0782.008.1563.023.2344.031.1094.063.2656.094.4688 0 .125-.008.25-.024.375v.3515c-.015.125-.023.2344-.023.3281.016.0938.008.1954-.023.3047-.032.1407-.047.2422-.047.3047s-.008.1328-.024.211c-.031.125-.047.2109-.047.2578-.031.0781-.062.1484-.093.2109-.016.0469-.039.1094-.071.1875-.031.125-.054.211-.07.2578-.031.125-.078.2266-.141.3047-.046.0781-.109.1641-.187.2578-.047.0938-.102.1719-.164.2344-.047.0625-.094.125-.141.1875-.109.1719-.195.2891-.258.3516-.046.0625-.093.1328-.14.2109-.125.1563-.195.2422-.211.2578-.016 0-.031.0156-.047.0469-.063.0781-.133.164-.211.2578-.078.0781-.164.1484-.258.2109-.078.1563-.148.25-.211.2813-.047.0312-.109.0703-.187.1172-.063.0468-.117.1015-.164.164-.25.0938-.399.1563-.446.1875l-.234.1172c-.234.0938-.383.1641-.445.211-.063.0312-.133.0703-.211.1171-.063.0313-.172.0782-.328.1407-.094.0469-.164.0703-.211.0703-.031 0-.063.0078-.094.0234-.125.0469-.203.0703-.234.0703-.016 0-.039.0079-.071.0235-.172.0468-.289.0703-.351.0703-.063 0-.125.0078-.188.0234-.203.0625-.359.0938-.469.0938-.187-.0157-.312-.0157-.374 0-.047.0156-.11.0312-.188.0469-.234.0468-.4688.0468-.7031 0-.1719.0312-.3125.0468-.4219.0468-.0469 0-.0938 0-.1406 0-.0469.0156-.086.0235-.1172.0235-.0625 0-.1172-.0157-.1641-.0469-.0312-.0156-.0781-.0234-.1406-.0234-.0625-.0157-.1797-.0235-.3516-.0235-.0937-.0156-.1875-.0312-.2812-.0469-.0938-.0156-.1875-.0312-.2813-.0468-.0468-.0157-.1015-.0235-.164-.0235-.0469 0-.0938-.0078-.1406-.0234-.1094-.0313-.1954-.0469-.2579-.0469-.2031-.0781-.2968-.1172-.2812-.1172-.2188-.0625-.3359-.1015-.3516-.1172-.1875-.0156-.3125-.039-.375-.0703-.1719-.0625-.2734-.0937-.3047-.0937l-.2578-.1172c-.1875-.0938-.3125-.1406-.375-.1406-.1562-.0469-.2578-.0938-.3047-.1407-.1718-.0625-.2734-.1015-.3047-.1171-.0312-.0157-.0624-.0313-.0937-.0469-.1563-.1563-.2656-.2422-.3281-.2578-.0625-.0313-.1094-.0782-.1406-.1407-.1719-.0781-.2657-.125-.2813-.1406 0-.0156-.0078-.0312-.0234-.0469-.0938-.0625-.1719-.1484-.2344-.2578-.125-.0937-.2188-.1953-.2813-.3047-.0937-.0781-.1562-.1484-.1875-.2109-.1093-.1563-.164-.2422-.164-.2578s-.0078-.0313-.0235-.0469c-.1093-.1875-.1796-.289-.2109-.3047-.0156-.0312-.0313-.0703-.0469-.1172-.0468-.0468-.1015-.0937-.164-.1406-.0469-.0625-.0704-.1406-.0704-.2344-.125-.0937-.2031-.1797-.2343-.2578-.0469-.1093-.0703-.1797-.0703-.2109.0156-.0313.0234-.0625.0234-.0938-.1094-.1875-.1875-.3281-.2344-.4218-.0625-.2032-.1015-.3282-.1172-.375-.0937-.1875-.1562-.336-.1875-.4454-.0312-.1093-.0625-.2343-.0937-.375-.0156-.125-.0234-.1953-.0234-.2109.0156-.0156.0156-.0391 0-.0703 0-.0469-.0079-.0859-.0235-.1172 0-.0469-.0078-.0937-.0234-.1406.0156-.2344.0078-.3672-.0235-.3984-.0156-.1563-.0312-.2344-.0468-.2344-.0157-.0156-.0235-.0391-.0235-.0703 0-.125.0078-.2188.0235-.2813.0312-.0625.0468-.125.0468-.1875 0-.125 0-.2187 0-.2812.0469-.125.0704-.2032.0704-.2344.0156-.0469.0156-.1016 0-.1641.0624-.1406.0937-.2422.0937-.3047s.0078-.1171.0234-.164c.0313-.0938.0547-.1563.0703-.1875.0157-.0313.0235-.0625.0235-.0938.0156-.0781.0234-.1328.0234-.164 0-.0313.0078-.0782.0235-.1407.0468-.1093.0937-.2031.1406-.2812.0469-.125.0703-.2109.0703-.2578s.0078-.0938.0234-.1407c.0313-.1406.0625-.2265.0938-.2578.0625-.1718.1015-.2578.1172-.2578.0156 0 .0234-.0078.0234-.0234.0781-.125.1328-.211.1641-.2578.0312-.0625.0625-.1172.0937-.1641.0313-.0781.0625-.1484.0938-.2109.0312-.0625.0625-.1328.0937-.211.0782-.0937.1172-.1484.1172-.164.0156-.0313.0313-.0625.0469-.0938.0781-.125.125-.1875.1406-.1875.0156-.0156.0391-.039.0703-.0703.0625-.0937.0938-.1484.0938-.164.0156-.0157.0312-.0391.0468-.0704.2344-.2812.3829-.4922.4454-.6328.125-.0625.2031-.125.2343-.1875.0625-.0156.1016-.0469.1172-.0937.0313-.0625.0625-.1094.0938-.1406l.2812-.0938c.1563-.1094.2735-.1797.3516-.2109.1094-.0625.1797-.086.2109-.0703.0469 0 .086-.0079.1172-.0235.125-.1094.1875-.1562.1875-.1406s.0156.0078.0469-.0235c.1562-.0624.2422-.0937.2578-.0937.0312 0 .0625-.0078.0938-.0234.125-.0782.2031-.1172.2343-.1172.0313-.0157.0703-.0313.1172-.0469s.0859-.0391.1172-.0703c.1563-.0781.2578-.1172.3047-.1172s.0937-.0078.1406-.0234c.1563-.0625.25-.0938.2813-.0938.0468-.0156.0859-.0234.1171-.0234.3282-.0781.5547-.1407.6797-.1875.0938.0156.1797.0156.2579 0 .0937-.0313.1796-.0547.2578-.0703.1875 0 .3046.0078.3515.0234s.0938.0234.1407.0234c.0468 0 .0937-.0078.1406-.0234.0625-.0156.125-.0234.1875-.0234h.375c.0469-.0157.0937-.0235.1406-.0235.0625-.0156.1172-.0156.1641 0 .0468.0156.1015.0235.164.0235.0469-.0157.0938-.0313.1406-.0469.0626-.0156.1329-.0156.211 0 .0938.0156.1798.0312.2578.0469.078.0156.125.0234.141.0234.187.0156.297.0313.328.0469.078.0156.164.0312.258.0468.109.0157.226.0313.351.0469.172.0157.258.0235.258.0235.016-.0157.039-.0157.07 0 .141.0625.227.1015.258.1172h.117c.063.0156.125.0312.188.0468.078 0 .14.0235.187.0703.219.0938.344.1563.375.1875zm-3.3281 3.5859c-.1563-.0312-.2344-.039-.2344-.0234s-.0078.0234-.0234.0234c-.1563.0157-.2422.0313-.2579.0469-.0156.0156-.039.0234-.0703.0234-.0625.0313-.1328.0547-.2109.0704-.0625 0-.1094.0156-.1406.0468-.1563.0938-.2422.1406-.2578.1406-.0157 0-.0391.0079-.0704.0235-.1406.0469-.2109.0781-.2109.0937 0 0-.0156.0078-.0469.0235-.0937.0625-.1796.1328-.2578.2109-.1094.0781-.1953.1484-.2578.211-.0469.0468-.0859.0859-.1172.1171-.125.1407-.1875.2188-.1875.2344-.0937.125-.1719.2188-.2343.2813-.1094.1562-.1641.2578-.1641.3046 0 .0469-.0156.0938-.0469.1407-.125.1406-.1953.2578-.2109.3515-.0469.0782-.0938.1485-.1407.211-.0312.0468-.0468.1015-.0468.164.0156.2032.0156.3282 0 .375v.1172c0 .2032.0234.3594.0703.4688.0312.125.0625.25.0937.375.0469.125.1016.25.1641.375.0937.1718.1328.2656.1172.2812 0 .0156.0078.0313.0234.0469.0781.125.125.1875.1407.1875.0156 0 .0312.0078.0468.0234.125.125.1953.1875.211.1875.0156 0 .039.0079.0703.0235.0781.0781.1562.164.2343.2578.0938.0781.2032.125.3282.1406l.3047.1641c.0468.0312.0937.0469.1406.0469s.0937.0078.1406.0234c.0938.0469.1563.0703.1875.0703.0313-.0156.0625-.0156.0938 0 .1406.0469.2343.0703.2812.0703.0469-.0156.086-.0234.1172-.0234.1562.0468.25.0703.2812.0703.0469-.0156.0938-.0235.1407-.0235h.2343c.1094-.0156.2032-.0234.2808-.0234l.422-.0703c.141-.0469.204-.0781.188-.0937 0-.0157.016-.0235.047-.0235.109-.0156.195-.0547.258-.1172.14-.1093.257-.164.351-.164.078-.1563.156-.2579.234-.3047.094-.1406.133-.211.118-.211 0-.0156.008-.0312.023-.0468.047-.1094.086-.1641.117-.1641.032-.0156.055-.0391.071-.0703.047-.0938.07-.1563.07-.1875.016-.0313.031-.0547.047-.0703l.164-.3282c.094-.1406.14-.2656.14-.375.063-.1874.086-.3203.071-.3984 0-.0781 0-.1562 0-.2344-.016-.0781-.031-.1484-.047-.2109s-.031-.1328-.047-.2109c-.016-.0625-.023-.1094-.023-.1407.015-.0468.015-.0859 0-.1171-.032-.0626-.063-.1094-.094-.1407-.016-.0469-.024-.0937-.024-.1406-.093-.125-.14-.1953-.14-.2109 0-.0157-.008-.0313-.024-.0469-.078-.1094-.117-.1641-.117-.1641 0-.0156-.008-.039-.023-.0703-.047-.0625-.094-.1172-.141-.1641-.031-.0624-.07-.125-.117-.1874-.109-.1094-.172-.1719-.188-.1876 0-.0156-.015-.0312-.046-.0468-.157-.125-.266-.2032-.329-.2344-.046-.0469-.085-.1016-.117-.1641-.172-.0781-.312-.1406-.422-.1875-.156-.0781-.234-.125-.234-.1406.016-.0312.016-.0469 0-.0469l-.3047-.0937c-.125-.0625-.2031-.1094-.2344-.1406zm20.9761-3.9375c.063.25.079.461.047.6328-.031.1719-.047.3204-.047.4454-.031.0468-.046.0937-.046.1406.015.0468.015.0937 0 .1406 0 .0469-.008.1016-.024.1641v.1406.2109.1406c0 .125-.008.1954-.023.211v.0469c.031.1093.023.2109-.024.3047.032.0937.039.1953.024.3046-.016.1094-.024.2422-.024.3985l-.023.3984c0 .1719-.008.3047-.024.3985v.2578c-.015.1406-.031.2265-.047.2578.016.1718.024.2578.024.2578.016 0 .023.0156.023.0469.032.0781.032.1875 0 .3281-.015.1406-.015.2656 0 .375 0 .125-.007.2031-.023.2344 0 .0156.008.039.023.0703v.2109c.016.0156.024.0391.024.0703-.016.125-.024.2422-.024.3516 0 .0469-.007.0937-.023.1406v.1406.2344c.016 0 .023.0156.023.0469-.015.0937-.031.1562-.047.1875v.0937c.047.2657.055.4454.024.5391-.016.0469-.024.1328-.024.2578v.3047c.016.125.016.1953 0 .2109v.0469c.047.1875.063.3203.047.3984v.2344c-.015.125-.023.211-.023.2578.016.0313.008.0625-.024.0938.032.1094.04.2344.024.375v.4219.6328.4453c.016.125.031.2578.047.3984.015.0782.023.1641.023.2578 0 .0938.008.1797.024.2578.047.2188.07.3985.07.5391v.3985c0 .1874-.016.3046-.047.3515-.015.0469-.047.1094-.094.1875-.203.0469-.336.0703-.398.0703-.047.0157-.117.0235-.211.0235-.266-.0157-.508-.0157-.727 0-.187 0-.335 0-.445 0-.094.0156-.203.0156-.328 0-.125 0-.195 0-.211 0-.016.0156-.039.0234-.07.0234-.219-.0312-.352-.0469-.399-.0469-.031.0157-.07.0157-.117 0-.203-.0625-.328-.0937-.375-.0937s-.094-.0156-.14-.0469c-.126-.0469-.204-.0859-.235-.1172-.031-.0156-.07-.0234-.117-.0234-.141-.1875-.211-.3438-.211-.4688 0-.0937.008-.1797.023-.2578.032-.0781.04-.1641.024-.2578.016-.125.016-.2187 0-.2813 0-.0624 0-.1093 0-.1406.016-.0468.016-.0937 0-.1406 0-.0625 0-.1172 0-.1641v-.3984c-.141.125-.242.2109-.305.2578-.047.0313-.101.0703-.164.1172-.156.0781-.25.1563-.281.2344-.156.0937-.242.1484-.258.164-.016.0157-.039.0313-.07.0469-.11.0938-.18.1484-.211.1641-.031 0-.063.0156-.094.0469-.125.0624-.211.1015-.258.1171-.109.0782-.211.1329-.304.1641-.063.0469-.11.0781-.141.0938-.016 0-.047.0078-.094.0234-.203.1094-.336.1797-.398.2109-.063.0313-.117.0625-.164.0938-.188.0781-.282.1172-.282.1172-.093.0312-.164.0547-.21.0703-.047 0-.086.0078-.118.0234-.078.0625-.148.1016-.211.1172-.047 0-.093.0078-.14.0234-.063.0313-.125.0469-.188.0469-.047.0156-.101.0391-.164.0703-.156.0469-.25.0703-.281.0703-.016.0157-.039.0235-.07.0235-.125-.0313-.204-.0469-.235-.0469-.031.0156-.062.0156-.093 0-.11-.0156-.211-.0469-.305-.0937-.094-.0313-.188-.0704-.281-.1172-.141-.0782-.227-.1172-.258-.1172-.11-.0938-.172-.1328-.188-.1172 0 0-.008-.0156-.023-.0469-.047-.0469-.102-.0781-.164-.0937-.047-.0313-.102-.0782-.164-.1407-.157-.125-.235-.1875-.235-.1875-.093-.125-.156-.2109-.187-.2578-.078-.0781-.133-.1406-.164-.1875-.016-.0469-.039-.0859-.071-.1172-.109-.1093-.164-.1718-.164-.1875 0-.0312-.007-.0468-.023-.0468-.109-.1094-.172-.1719-.188-.1875-.015-.0157-.039-.0391-.07-.0703-.078-.1094-.133-.1719-.164-.1876-.016-.0312-.039-.0624-.07-.0937-.031-.0625-.071-.125-.117-.1875-.047-.0625-.102-.1172-.164-.1641 0-.0781-.016-.1406-.047-.1875-.016-.0625-.008-.1172.023-.164l-.07-.2578c-.016-.0938-.039-.1563-.071-.1875-.015-.0313-.023-.0625-.023-.0938-.031-.0625-.047-.1406-.047-.2344.016-.0937.016-.1797 0-.2578-.015-.1719-.015-.2656 0-.2812-.047-.1875-.086-.3125-.117-.375-.016-.1719-.024-.2657-.024-.2813.016-.0156.024-.0312.024-.0468 0-.0313-.008-.0782-.024-.1407-.015-.0625-.023-.1172-.023-.164.031-.1407.031-.211 0-.211-.016 0-.016-.0156 0-.0469-.016-.1718-.023-.2734-.023-.3046.015-.0313.023-.0625.023-.0938.016-.0469.016-.0859 0-.1172 0-.0468 0-.0937 0-.1406v-.3047l-.023-.3984c-.016-.25-.016-.4297 0-.5391.015-.125.023-.25.023-.375-.016-.125-.023-.1953-.023-.2109.015-.0313.023-.0625.023-.0938-.016-.1719-.023-.2578-.023-.2578.015-.1562.015-.2734 0-.3515 0-.0782.007-.1719.023-.2813 0-.2187-.008-.3516-.023-.3984 0-.0625 0-.125 0-.1875 0-.0782 0-.1485 0-.211.015-.0625.023-.1328.023-.2109v-.5859c0-.1407-.008-.2422-.023-.3047-.016-.0782-.032-.1563-.047-.2344 0-.1406 0-.2188 0-.2344.015-.0312.023-.0547.023-.0703-.031-.1875-.047-.3125-.047-.375.016-.0625.024-.125.024-.1875-.031-.1406-.047-.2266-.047-.2578 0-.0313 0-.0625 0-.0938 0-.1875-.016-.289-.047-.3047-.016-.125-.031-.2187-.047-.2812 0-.0625-.008-.1328-.023-.2109.015-.0469.015-.1094 0-.1875-.016-.0782-.016-.1407 0-.1875l.257-.3516c.079.0156.141.0156.188 0 .047-.0313.109-.0547.188-.0703.218-.0156.359-.0391.421-.0703.063-.0313.141-.0391.235-.0235.187.0469.344.0547.468.0235h.188c.047 0 .086-.0078.117-.0235h.141c.062-.0156.125-.0156.187 0 .188.0313.305.0469.352.0469.062-.0156.125-.0156.187 0 .157.0313.266.0469.328.0469.188 0 .321.0156.399.0469.031.0156.086.0234.164.0234h.258c.094-.0156.187-.0234.281-.0234.094-.0157.188-.0235.281-.0235.063.0156.125.0313.188.0469.062 0 .125.0156.187.0469.047.1562.071.2344.071.2344.015 0 .023.0078.023.0234.094.2031.141.3672.141.4922 0 .1094-.008.2187-.024.3281 0 .0469-.008.0937-.023.1406-.016.0469-.024.0938-.024.1407 0 .0468-.007.0937-.023.1406v.1406.2109c.016.0625.016.125 0 .1875-.016.1563-.023.2344-.023.2344.015 0 .023.0078.023.0234-.016.0469-.031.0938-.047.1407 0 .0312-.008.0703-.023.1172v.2343c.015.0625 0 .125-.047.1875.031.1563.039.3047.023.4453v.4219c-.015.1563-.023.2578-.023.3047.015.0313.023.0625.023.0938 0 .0937-.008.1796-.023.2578 0 .0781-.008.1562-.024.2344v.4453.7734c0 .0625-.008.1328-.023.2109 0 .0625.015.1328.047.211-.032.0468-.047.0937-.047.1406.015.0469.023.0938.023.1406 0 .0782-.008.1641-.023.2578-.016.0782-.024.1641-.024.2578 0 .2032.008.336.024.3985.031.0625.047.1328.047.2109.015.2188.031.3594.047.4219.015.0625.031.1328.047.2109.015.0782.015.1485 0 .211 0 .0468.015.0937.046.1406.172.0625.274.1094.305.1406.031.0156.063.0391.094.0703.234.0782.383.1407.445.1875.031.0469.07.0704.117.0704.047-.0157.086 0 .117.0468.141-.0468.227-.0859.258-.1172.172-.1093.266-.164.282-.164.031-.0156.062-.0391.093-.0703.141-.1094.227-.1641.258-.1641.172-.1406.274-.2266.305-.2578.031-.0469.062-.086.094-.1172.031-.0312.062-.0625.093-.0938.047-.0312.086-.0624.117-.0937.032-.1406.032-.2578 0-.3516-.015-.0937-.015-.2031 0-.3281 0-.125.008-.2109.024-.2578.016-.0625 0-.1328-.047-.2109.016-.1875.031-.3047.047-.3516s.023-.0937.023-.1406c0-.0781-.007-.1563-.023-.2344s-.008-.1719.023-.2813c.032-.1406.039-.2343.024-.2812-.016-.0625-.024-.1172-.024-.1641 0-.0625-.007-.1171-.023-.164 0-.0469.016-.0938.047-.1407-.016-.0468-.031-.1015-.047-.164-.016-.0781-.008-.1484.023-.211.016-.1562 0-.3046-.047-.4453 0-.1875 0-.3203 0-.3984.016-.0781.008-.1563-.023-.2344 0-.1093 0-.1719 0-.1875.016-.0156.023-.039.023-.0703-.031-.125-.046-.1953-.046-.2109.015-.0313.023-.0625.023-.0938 0-.1406-.008-.2344-.023-.2812-.016-.0469-.024-.0938-.024-.1406 0-.1094-.015-.211-.047-.3047-.047-.2032-.07-.336-.07-.3985.016-.0625.023-.1328.023-.2109 0-.1094.008-.1719.024-.1875.016-.0313.023-.0703.023-.1172.016-.0625.016-.125 0-.1875 0-.0781 0-.1563 0-.2344-.015-.1406-.007-.2578.024-.3515.015-.125.031-.2578.047-.3985.015-.1406.07-.2343.164-.2812.093-.1094.148-.1719.164-.1875.031-.0313.07-.0547.117-.0703.031-.0157.07-.0313.117-.0469s.094-.0391.141-.0703c.125.0312.234.039.328.0234.109-.0156.211-.0078.305.0235.171-.0469.273-.0782.304-.0938.032-.0156.063-.0234.094-.0234s.07.0078.117.0234h.164c.063 0 .125.0078.188.0234h.164c.047 0 .094-.0078.14-.0234.047-.0156.094-.0234.141-.0234.078 0 .164.0156.258.0468.109 0 .172.0078.187.0235h.071.164c.031-.0157.062-.0235.094-.0235.156 0 .242.0078.257.0235h.094c.047.0156.094.0234.141.0234.047-.0156.109-.0234.187-.0234.063 0 .125.0078.188.0234.062 0 .109-.0156.14-.0469.157.0469.243.0782.258.0938.016.0156.039.0234.07.0234zm6.938 7.3828c.109-.3281.172-.5781.187-.75.016-.1718.04-.3437.071-.5156.015-.125.023-.1953.023-.2109.016-.0157.024-.0391.024-.0703.031-.0625.046-.1172.046-.1641 0-.0625 0-.1172 0-.1641.032-.1406.047-.2187.047-.2343.016-.0313.024-.0625.024-.0938 0-.1562.015-.25.047-.2812.047-.1875.062-.2735.047-.2579 0 0 0-.0078 0-.0234 0-.0312 0-.0781 0-.1406.015-.0781.031-.1406.046-.1875.016-.1406.016-.2188 0-.2344 0-.0156 0-.0312 0-.0469.047-.1875.071-.2812.071-.2812.015-.125.023-.2031.023-.2344.016-.0469.031-.0859.047-.1172.031-.1875.039-.2812.024-.2812 0-.0156 0-.0391 0-.0703 0-.0313.007-.0782.023-.1407s.031-.1172.047-.164c0-.1719.008-.2813.023-.3282.016-.0624.031-.1328.047-.2109 0-.0312 0-.0703 0-.1172.016-.0625.024-.1172.024-.164.031-.125.054-.2266.07-.3047l.07-.2813c0-.0625-.008-.1172-.023-.164 0-.0469.008-.0938.023-.1407 0-.0625.008-.1172.024-.164.031-.0469.054-.1016.07-.1641.016-.0781.023-.1484.023-.2109s.008-.1172.024-.1641c.125-.1719.203-.2656.234-.2812l.258-.0235c.219-.0468.367-.0625.445-.0468h.188c.125 0 .219-.0157.281-.0469.109-.0313.211-.0391.305-.0235.094.0157.179 0 .258-.0468.156.0312.242.0468.257.0468.016-.0156.032-.0234.047-.0234.078.0156.133.0234.164.0234.047-.0156.094-.0234.141-.0234s.094.0078.141.0234c.046.0157.109.0235.187.0235l.516.0469c.062 0 .117.0078.164.0234h.164c.14-.0156.297-.0234.469-.0234.187-.0157.359-.0235.515-.0235.141.125.211.2344.211.3281.016.1407.016.2266 0 .2578-.016.0157-.031.0391-.047.0704l-.047.3515c-.062.1563-.093.2657-.093.3281.015.0469.015.086 0 .1172-.094.2188-.141.3672-.141.4454 0 .0624-.031.1171-.094.164-.015.1563-.047.2891-.094.3984-.031.0938-.062.2032-.093.3282-.047.1718-.078.2656-.094.2812v.0469c-.078.125-.117.2031-.117.2344 0 .0312-.008.0547-.024.0703-.015.0312-.031.0781-.046.1406-.016.0625-.032.1172-.047.1641-.063.1719-.102.3281-.118.4687-.031.0782-.054.1485-.07.211 0 .0468-.015.1015-.047.164-.047.1406-.07.2266-.07.2578-.031.1719-.055.2657-.07.2813v.0234c-.016.1719-.039.2735-.071.3047 0 .0469-.015.1328-.047.2578-.015.0625-.031.125-.046.1875 0 .0625-.016.1172-.047.1641.015.0781.007.164-.024.2578-.015.0781-.039.1562-.07.2344-.016.0625-.023.1172-.023.164 0 .0313-.016.0782-.047.1407-.032.1875-.063.3047-.094.3515-.016.0313-.039.0625-.07.0938 0 .125-.016.2344-.047.3281-.032.0937-.063.1953-.094.3047-.031.1719-.055.2812-.07.3281v.1172l-.211.6563c-.032.1874-.055.3046-.071.3515-.015.0469-.023.0859-.023.1172-.078.2187-.117.3594-.117.4219.015.0468.015.1015 0 .164-.047.125-.078.2032-.094.2344v.0703c-.031.1407-.055.2188-.07.2344 0 0-.008.0156-.024.0469-.031.0781-.054.164-.07.2578-.016.0781-.039.164-.07.2578-.047.0938-.078.1641-.094.2109 0 .0313-.008.0703-.024.1172-.031.1563-.054.2657-.07.3281-.016.0626-.031.125-.047.1876-.015.0468-.031.0937-.047.1406-.031.0937-.054.1875-.07.2812-.016.0782-.039.1563-.07.2344-.032.125-.055.1953-.071.2109v.0469c-.046.2188-.093.3594-.14.4219-.031.0625-.039.1328-.024.2109-.125.1406-.195.211-.211.211-.015-.0157-.023-.0078-.023.0234-.141-.0156-.242-.0078-.305.0234-.25.0782-.429.1328-.539.1641-.203-.0156-.351-.0078-.445.0234-.172 0-.281-.0078-.328-.0234-.031 0-.063 0-.094 0-.219.0156-.383.0078-.492-.0234-.11-.0157-.219 0-.328.0468-.094-.0468-.203-.0547-.328-.0234-.11.0469-.227.0469-.352 0-.156.0313-.281.0469-.375.0469-.094.0156-.187.0156-.281 0-.078-.0156-.156-.0391-.235-.0703-.062-.0313-.125-.0391-.187-.0235-.172-.1094-.266-.1718-.281-.1875-.016-.0156-.039-.039-.071-.0703-.093-.1562-.148-.25-.164-.2812-.015-.0313-.039-.0469-.07-.0469-.031-.1563-.055-.2344-.07-.2344 0 0 0-.0156 0-.0469-.063-.125-.102-.2187-.118-.2812 0-.0625-.023-.1094-.07-.1406 0-.0782-.023-.1485-.07-.211-.031-.0625-.063-.1328-.094-.2109-.031-.0625-.055-.125-.07-.1875 0-.0625-.008-.1094-.024-.1406-.046-.1719-.086-.2657-.117-.2813-.015-.0312-.023-.0547-.023-.0703-.078-.2344-.149-.4531-.211-.6562-.016-.0313-.031-.0704-.047-.1172 0-.0625-.008-.1172-.024-.1641-.031-.0469-.062-.0937-.093-.1406-.016-.0625-.008-.125.023-.1875-.047-.0625-.078-.1172-.094-.1641 0-.0469-.007-.1015-.023-.1641-.109-.1874-.172-.3203-.187-.3984-.047-.2031-.086-.3359-.118-.3984-.031-.125-.07-.2422-.117-.3516-.031-.125-.078-.25-.141-.375-.031-.1406-.046-.2187-.046-.2344 0-.0156-.008-.039-.024-.0703l-.094-.2812-.14-.375-.094-.3516c-.047-.1719-.086-.2656-.117-.2812-.016-.0157-.024-.0391-.024-.0703-.015-.0469-.023-.0938-.023-.1407 0-.0625-.008-.1172-.023-.164-.032-.1094-.063-.2032-.094-.2813-.031-.0937-.039-.1875-.024-.2812-.062-.1563-.101-.2422-.117-.2578 0-.0157 0-.0391 0-.0704l-.094-.3281c-.062-.1562-.093-.2734-.093-.3515-.016-.0626-.039-.1172-.071-.1641-.015-.0625-.039-.1328-.07-.2109-.016-.0313-.031-.0704-.047-.1172 0-.0469-.015-.1016-.047-.1641-.031-.125-.054-.2031-.07-.2344-.016-.0312-.023-.0781-.023-.1406-.063-.2813-.149-.4766-.258-.5859-.031-.1875-.055-.2969-.071-.3282-.015-.0312-.031-.0625-.046-.0937-.032-.1875-.063-.3125-.094-.375-.047-.0781-.078-.1641-.094-.2578-.047-.125-.07-.211-.07-.2578 0-.0625-.008-.1016-.024-.1172-.047-.0938-.086-.2031-.117-.3281-.031-.0782-.055-.1485-.07-.211-.016-.0625-.039-.125-.071-.1875-.046-.125-.07-.2031-.07-.2344-.015-.0312-.023-.0625-.023-.0937.047-.1875.07-.3203.07-.3984 0-.0938.039-.1563.117-.1876.11-.0468.196-.0624.258-.0468.063 0 .117-.0078.164-.0235.11-.0468.18-.0703.211-.0703s.063-.0156.094-.0468l.281.0234c.141.0312.234.0547.281.0703h.188c.156.0313.242.0547.258.0703h.093.118c.046-.0156.093-.0234.14-.0234s.094.0078.141.0234.094.0234.14.0234c.079 0 .149-.0078.211-.0234.063-.0312.141-.039.235-.0234.125.0312.211.0312.258 0 .062-.0313.125-.0156.187.0468.063-.0468.172-.0624.328-.0468.172 0 .258-.0078.258-.0235 0-.0156.016-.0312.047-.0468.141-.0313.219-.0391.234-.0235h.071c.171.0313.273.0625.304.0938.032.0312.086.0547.164.0703.063.1719.102.2812.118.3281.031.0313.054.0703.07.1172 0 .2812.031.4531.094.5156v.2813c.015 0 .023.0156.023.0469.016.1718.031.2656.047.2812.047.2188.062.3594.047.4219 0 .0469.008.1093.023.1875 0 .0312.008.0781.024.1406.015.0469.023.0859.023.1172v.2109c.016.0157.023.0313.023.0469.016.0469.032.1094.047.1875.016.0781.008.1563-.023.2344.031.0469.047.0937.047.1406s.008.1016.023.1641c.047.125.063.1953.047.2109 0 .0156.008.0391.024.0703.031.125.046.2266.046.3047.016.0625.024.125.024.1875 0 .0469.008.0938.023.1406.032.125.047.2266.047.3047.063.1094.094.1875.094.2344s.016.0937.047.1406c.015.1406.039.2344.07.2813.016.1093.031.2265.047.3515.031.1094.063.211.094.3047.047.1563.07.2656.07.3281 0 .0469.016.1016.047.1641.016.0938.016.1641 0 .2109 0 .0313.008.0625.023.0938.016.0625.039.1172.071.1641.031.0312.047.0781.047.1406.031.0312.062.0703.093.1172.032.0312.078.0468.141.0468zm15.328 2.4375c.031.0469.07.0625.117.0469s.094-.0312.141-.0469c.219-.0468.359-.0703.422-.0703.062-.0156.133-.0312.211-.0468.125-.0313.25-.0704.375-.1172.14-.0625.281-.1094.422-.1407.031-.0156.07-.0234.117-.0234.062-.0156.109-.0313.14-.0469.094-.0625.164-.1015.211-.1172.063-.0312.11-.0625.141-.0937.156-.125.258-.1953.305-.2109.047-.0157.086-.0391.117-.0704.219-.0625.344-.0859.375-.0703.125.0313.187.1328.187.3047-.015.2188-.023.3594-.023.4219.015.0469.023.1094.023.1875.016.125.024.2422.024.3516v.3281.1406c.015.0469.023.0859.023.1172 0 .0781-.015.1641-.047.2578-.015.0937-.023.1797-.023.2578.015.25.015.4844 0 .7031-.047.2032-.063.336-.047.3985s.023.1172.023.164c-.015.1094-.031.2032-.046.2813-.157.1562-.274.2422-.352.2578-.078 0-.133.0391-.164.1172-.094.0156-.156.0312-.188.0469-.015.0156-.039.0312-.07.0468-.109.0938-.195.1407-.258.1407-.047 0-.093.0078-.14.0234l-.282.1172c-.171.0625-.289.0937-.351.0937-.063 0-.125.0313-.188.0938-.062 0-.125.0156-.187.0469-.047.0156-.109.0312-.188.0468-.156.0313-.265.0547-.328.0704-.109.0468-.187.0703-.234.0703s-.102.0078-.164.0234c-.078.0156-.164.0234-.258.0234-.078.0157-.164.0313-.258.0469-.234.0469-.398.0625-.492.0469-.094 0-.187.0156-.281.0469-.125 0-.227.0078-.305.0234s-.156.0234-.234.0234c-.094 0-.188-.0078-.282-.0234-.078-.0156-.164-.0312-.257-.0469-.063.0313-.141.0391-.235.0235-.078-.0157-.179-.0391-.304-.0704-.125-.0156-.211-.0312-.258-.0468-.188 0-.313-.0078-.375-.0235-.047-.0156-.102-.0312-.164-.0468-.063-.0157-.118-.0235-.164-.0235-.047 0-.102-.0078-.164-.0234-.11-.0156-.188-.0313-.235-.0469s-.094-.0312-.14-.0469c-.188-.0468-.297-.0781-.329-.0937l-.21-.1641c-.126-.0312-.25-.0781-.376-.1406-.046-.0312-.093-.0547-.14-.0703-.031-.0156-.07-.0469-.117-.0938-.032-.0468-.078-.0781-.141-.0937-.047-.0156-.094-.0391-.141-.0703-.171-.1094-.265-.1719-.281-.1875 0-.0156-.008-.0313-.023-.0469-.11-.0469-.172-.0781-.188-.0937 0-.0157-.015-.0313-.047-.0469l-.234-.1407c-.094-.0937-.18-.1562-.258-.1874-.031-.0782-.078-.1329-.14-.1641-.047-.0469-.086-.1094-.118-.1875-.109-.0938-.187-.1563-.234-.1875-.047-.0313-.086-.0781-.117-.1406-.047-.0313-.086-.0625-.117-.0938-.016-.0469-.039-.0859-.071-.1172-.062-.0469-.101-.1328-.117-.2578-.094-.0937-.14-.1562-.14-.1875 0-.0312-.008-.0625-.024-.0937-.094-.125-.156-.2032-.187-.2344-.094-.1094-.141-.1719-.141-.1875s-.008-.0391-.024-.0703c-.109-.2188-.187-.3516-.234-.3985 0-.0781-.008-.1328-.023-.164-.016-.0313-.024-.0703-.024-.1172-.078-.1563-.117-.25-.117-.2813 0-.0468 0-.0859 0-.1171-.047-.1563-.078-.2344-.094-.2344 0 0 0-.0078 0-.0235-.078-.2343-.125-.3828-.14-.4453-.016-.0781-.039-.1484-.071-.2109-.031-.1563-.054-.2578-.07-.3047 0-.0469-.008-.1094-.023-.1875 0-.0937-.008-.1875-.024-.2813-.015-.1093-.023-.1718-.023-.1874 0-.0313 0-.0782 0-.1407.015-.0781.015-.1406 0-.1875-.016-.0468-.039-.0859-.071-.1172-.031-.0468-.046-.0937-.046-.1406.078-.2344.117-.3828.117-.4453 0-.0781 0-.1719 0-.2813.031-.1406.039-.25.023-.3281-.015-.0781-.015-.1562 0-.2343 0-.0469 0-.0938 0-.1407 0-.0625.016-.1093.047-.1406-.031-.0625-.039-.1094-.023-.1406.031-.0469.054-.0938.07-.1407 0-.1718 0-.2578 0-.2578.016-.0156.023-.039.023-.0703.032-.1406.055-.2578.071-.3515.031-.1094.062-.2032.093-.2813.047-.125.071-.1953.071-.2109 0-.0313.008-.0625.023-.0938.063-.0937.102-.1562.117-.1875.016-.0312.032-.0625.047-.0937.063-.2344.133-.4141.211-.5391s.133-.2187.164-.2812c.032-.0625.063-.1094.094-.1407 0-.0625.016-.1093.047-.1406.047-.0312.086-.0625.117-.0937.078-.1407.133-.2188.164-.2344.078-.1406.117-.2188.117-.2344.141-.1562.227-.2422.258-.2578s.063-.0391.094-.0703c.109-.125.156-.1953.141-.211 0-.0312.007-.0468.023-.0468.047-.0156.078-.0391.094-.0703.031-.0469.062-.086.093-.1172.141-.125.219-.1953.235-.211.015-.0156.039-.0312.07-.0468.063-.1094.102-.1641.117-.1641.032 0 .047-.0156.047-.0469.156-.1093.242-.1719.258-.1875.031-.0156.063-.039.094-.0703.125-.0937.195-.1406.211-.1406.031-.0156.054-.0313.07-.0469.156-.0937.242-.1562.258-.1875.14-.1094.219-.1641.234-.1641.031-.0156.047-.039.047-.0703.188-.0937.297-.1406.328-.1406s.063-.0078.094-.0234c.234-.0938.383-.1563.445-.1875.032-.0156.063-.0235.094-.0235.047-.0156.109-.0312.188-.0468.031-.0157.062-.0313.093-.0469.047-.0156.102-.0313.164-.0469.157-.0469.235-.0703.235-.0703 0-.0156.015-.0234.047-.0234.109-.0313.179-.0547.211-.0704.031-.0156.085-.0234.164-.0234.203-.0156.39-.0156.562 0 .156.0156.266.0156.328 0 .063-.0156.133-.0234.211-.0234.063 0 .156.0156.281.0468h.258c.156.0469.235.0704.235.0704 0-.0157.015-.0235.046-.0235.125.0313.196.0469.211.0469.032-.0156.063-.0156.094 0 .063 0 .117.0156.164.0469.063.0312.133.0312.211 0 .172.0781.281.125.328.1406.063.0156.133.0313.211.0469.156.0625.266.1094.328.1406.078.0156.149.0469.211.0938.094-.0313.18.0078.258.1171.156.0938.242.1407.258.1407.015 0 .031.0078.047.0234.078.0781.14.1328.187.1641.047.0312.086.0703.117.1171.079.1094.125.1719.141.1876.016 0 .031.0078.047.0234.047.0469.094.0937.141.1406.062.0469.109.1016.14.1641.125.125.188.1875.188.1875.062.0625.109.1172.14.164.047.0313.086.0704.117.1172.126.125.188.2032.188.2344 0 .0156.008.0391.023.0703.125.2031.196.3125.211.3281.063.1094.118.1875.164.2344.032.0469.055.0938.071.1406.015.0469.039.0938.07.1407-.016.0468-.016.0937 0 .1406.031.0469.063.0859.094.1172.031.0625.055.1484.07.2578.016.0937.039.1797.07.2578.032.0469.055.0937.071.1406.015.0313.039.0781.07.1407.031.1874.047.2812.047.2812 0 .0469.008.0938.023.1406.016.0313.032.0703.047.1172.016.1406.016.211 0 .211 0 0 .008.0156.024.0468l.07.2578c.031.125.047.2344.047.3282 0 .0468.008.0937.023.1406.016.0312.024.0703.024.1172-.031.1875-.047.3125-.047.375.016.0468.016.0859 0 .1172-.141.1406-.227.2265-.258.2578-.016.0312-.039.0547-.07.0703-.125.0625-.196.1015-.211.1172 0 .0156-.008.0312-.024.0469-.171.0781-.281.1171-.328.1171-.031 0-.062.0157-.093.0469-.126.0469-.211.086-.258.1172-.032.0312-.063.0625-.094.0938-.156.0468-.234.0859-.234.1171-.094.0469-.172.086-.235.1172-.062.0157-.117.0391-.164.0703-.172.0938-.32.1719-.445.2344-.156.0938-.266.1484-.328.1641-.063.0156-.11.039-.141.0703-.125.0625-.203.1016-.234.1172-.032.0156-.063.039-.094.0703-.156.1094-.258.1719-.305.1875-.031.0156-.062.0469-.094.0937-.031-.0156-.078-.0078-.14.0235-.063.0312-.117.0625-.164.0937-.188.0781-.313.125-.375.1407-.047 0-.086.0234-.117.0703-.047 0-.094.0156-.141.0468-.031.0157-.07.0313-.117.0469s-.102.0234-.164.0234c-.047-.0156-.094-.0078-.141.0235-.141.0937-.226.1406-.258.1406-.031.0313-.078.0547-.14.0703-.047.0156-.094.0313-.141.0469-.141.0781-.242.1172-.305.1172-.047 0-.086.0156-.117.0469-.14.0625-.219.1015-.234.1172-.125.0781-.211.1171-.258.1171s-.094.0157-.141.0469c-.25.0938-.382.1641-.398.211 0 .2031.016.3124.047.3281.109.0937.18.1484.211.164.047.0157.093.0391.14.0703.032.0469.063.0704.094.0704.047 0 .094.0156.141.0468.031.0157.062.0391.094.0704.046.0156.093.0312.14.0468.063.0469.149.0703.258.0703.078.0157.141.0313.187.0469.047 0 .102.0078.165.0234.124.0313.218.0469.281.0469.187-.0156.312-.0156.375 0 .078.0157.14.0235.187.0235.078 0 .157-.0078.235-.0235.078-.0312.156-.0469.234-.0469.188.0157.305.0157.352 0 .062-.0156.125-.0234.187-.0234zm-.937-5.9531c-.032-.0625-.055-.1172-.071-.164 0-.0469-.023-.0782-.07-.0938-.078-.1562-.125-.2422-.141-.2578 0-.0156-.015-.0313-.047-.0469-.14-.125-.226-.2031-.257-.2344-.157-.125-.25-.1953-.282-.2109-.218-.1094-.367-.1641-.445-.1641-.062 0-.148 0-.258 0-.172.0782-.265.1172-.281.1172s-.031.0078-.047.0235c-.172.0937-.273.1484-.305.164-.031 0-.046.0235-.046.0703-.125.0625-.196.1016-.211.1172-.016 0-.032 0-.047 0-.094.125-.156.211-.188.2578-.015.0313-.031.0625-.047.0938-.125.1562-.195.25-.211.2812-.015.0313-.031.0625-.046.0938-.047.2031-.102.3203-.164.3515-.047.0313-.079.086-.094.1641-.094.125-.141.2031-.141.2344.016.0156.016.0312 0 .0469-.047.1562-.086.2343-.117.2343-.063.25-.094.3907-.094.4219.031.125.031.2031 0 .2344-.015.0312-.008.0547.024.0703.203-.0937.343-.1328.422-.1172.156-.0781.257-.125.304-.1406s.086-.0391.117-.0703c.172-.0938.266-.1485.282-.1641.125-.0469.211-.0781.257-.0937.047-.0157.086-.0313.118-.0469.187-.0781.304-.125.351-.1406.063-.0313.11-.0625.141-.0938.125-.0781.211-.1172.258-.1172.046-.0156.093-.039.14-.0703.094-.0469.149-.0703.164-.0703.032-.0156.063-.0313.094-.0469.063-.0312.117-.0468.164-.0468.047-.0157.086-.0391.117-.0704.172-.0781.258-.125.258-.1406.016-.0312.031-.0469.047-.0469.094-.1093.18-.164.258-.164.078-.0157.133-.0547.164-.1172zm-65.7309 43.0552c-.0938-.016-.1953-.032-.3047-.047-.1094 0-.2031.023-.2812.07-.0938-.031-.1875-.039-.2813-.023-.0781.031-.1562.054-.2344.07-.2187.015-.3515.015-.3984 0-.0469 0-.0938 0-.1406 0l-.375.023c-.0625.016-.1172.024-.1641.024-.0312.015-.0859.015-.1641 0l-.2578-.024c-.125 0-.1953-.008-.2109-.023-.0156 0-.0391 0-.0703 0-.1094.015-.211.015-.3047 0-.0781 0-.1563 0-.2344 0h-.3984c-.0781-.016-.1328-.024-.1641-.024-.0312.016-.0703.016-.1172 0-.1093-.031-.1953-.07-.2578-.117-.0469-.031-.0937-.062-.1406-.094-.0938-.046-.1406-.085-.1406-.117.0156-.047-.0078-.062-.0703-.047.0312-.062.0468-.14.0468-.234s-.0078-.187-.0234-.281c.0312-.297.0312-.586 0-.867v-.657c.0469-.25.0703-.406.0703-.468.0313-.188.0469-.297.0469-.329 0-.156 0-.242 0-.257.0156-.188.0312-.313.0469-.375v-.703c.0312-.126.0468-.235.0468-.329-.0156-.093-.0156-.171 0-.234.0157-.063.0235-.133.0235-.211-.0313-.109-.0469-.211-.0469-.305.0156-.093.0234-.195.0234-.304v-.282c0-.14.0078-.273.0235-.398.0156-.125.0156-.273 0-.445-.0313-.094-.0391-.18-.0235-.258.0157-.094.0235-.203.0235-.328 0-.078-.0078-.156-.0235-.235 0-.093 0-.187 0-.281 0-.172-.0078-.297-.0234-.375-.0313-.265-.0469-.469-.0469-.609.0156-.156.0235-.305.0235-.446l-.0235-.398c-.0156-.062-.0312-.109-.0469-.141-.0156-.047-.0234-.101-.0234-.164.0625-.203.0859-.343.0703-.422 0-.078 0-.156 0-.234v-.469c0-.093 0-.187 0-.281.0156-.109.0235-.211.0235-.305-.0157-.187-.0313-.382-.0469-.586 0-.203.0078-.39.0234-.562-.0469-.063-.0703-.125-.0703-.188.0156-.078.0234-.156.0234-.234 0-.172-.0078-.258-.0234-.258 0-.015 0-.031 0-.047-.0156-.109-.0234-.211-.0234-.304-.0157-.172-.0157-.274 0-.305.0156-.031.0234-.062.0234-.094 0-.062-.0078-.125-.0234-.187-.0157-.063-.0235-.133-.0235-.211.0157-.11.0078-.242-.0234-.399 0-.047 0-.093 0-.14.0156-.047.0156-.102 0-.164 0-.157-.0156-.258-.0469-.305-.0156-.047-.0234-.086-.0234-.117 0-.11-.0078-.211-.0235-.305 0-.094 0-.18 0-.258l-.0234-.304c-.0312-.141-.0469-.219-.0469-.235.0157-.015.0235-.0388.0235-.0701-.0157-.0781-.0313-.1406-.0469-.1875-.0156-.0625-.0234-.1172-.0234-.164.0156-.1719.0156-.2656 0-.2813 0-.0156 0-.039 0-.0703l.0468-.3047c.0313-.0312.0625-.0625.0938-.0937.0312-.0313.0625-.0625.0937-.0938.0782-.0312.1563-.0468.2344-.0468.0938-.0157.1719-.0391.2344-.0704.1406-.0156.2578-.0234.3515-.0234.1094 0 .2032.0156.2813.0469.1562.0312.25.0469.2812.0469.0313-.0157.0625-.0235.0938-.0235.1406.0156.2422.0235.3047.0235s.1328.0078.2109.0234c.1719.0156.2891.0234.3516.0234.0781 0 .1562.0078.2344.0235l.2812.0468h.2344c.0625 0 .1172-.0078.164-.0234l.375-.0469h.2813c.0469-.0156.1016-.0156.1641 0h.1406c.0469 0 .1094-.0156.1875-.0468.1406.0624.2187.0937.2344.0937.0156 0 .0234.0156.0234.0469l.1641.2344c0 .0624-.0079.1171-.0235.164v.0938.3046c.0156.0938.0235.1797.0235.2579l-.0235.2809c-.0156.063-.0234.125-.0234.188 0 .047-.0078.101-.0235.164-.0312.281-.0625.461-.0937.539.0312.078.0391.164.0234.258-.0156.094-.0234.179-.0234.258-.0156.171-.0234.265-.0234.281.0156.015.0234.039.0234.07l-.0234.375c-.0157.203 0 .367.0468.492-.0156.188-.0156.313 0 .375.0157.047.0078.078-.0234.094v.352c0 .218.0078.351.0234.398.0157.031.0078.07-.0234.117v.703c.0312.094.0469.188.0469.282 0 .062-.0078.125-.0235.187-.0156.063 0 .133.0469.211-.0312.266-.0547.547-.0703.844 0 .281.0156.547.0469.797 0 .047.0078.093.0234.14s.0234.086.0234.118c-.0156.062-.0312.117-.0468.164 0 .031-.0078.07-.0235.117v.328c.0157.031.0235.062.0235.094v.445c.0156.109.0156.234 0 .375v.398c0 .063-.0078.125-.0235.188v.141c-.0156.093-.0234.171-.0234.234.0156.047.0234.086.0234.117.0157.109.0157.211 0 .305-.0156.094-.0234.172-.0234.234-.0156.078-.0234.164-.0234.258.0156.094.0156.18 0 .258 0 .031-.0079.078-.0235.14v.141.422c.0156.141.0156.281 0 .422.0156.203.0235.336.0235.398-.0313.172-.0391.281-.0235.328s.0235.102.0235.164c-.0157.141-.0235.227-.0235.258.0156.016.0078.039-.0234.071.0312.14.0469.218.0469.234.0156 0 .0234.008.0234.023.0156.188.0234.321.0234.399v.258c.0469.109.0625.179.0469.21-.0156.032-.0078.055.0234.071-.0156.078-.0156.156 0 .234.0313.078.0547.156.0704.235 0 .187.0078.312.0234.375.0156.046.0312.109.0469.187.0156.047.0234.109.0234.188v.21l-.0234.329c0 .078.0078.132.0234.164.0156.031.0156.086 0 .164-.0312.14-.0547.219-.0703.234-.0156.016-.0234.031-.0234.047zm6.4453-17.086c.1563.14.2109.281.1641.421-.0313.141-.0547.282-.0703.422-.125.078-.211.188-.2579.328-.0468.125-.0937.258-.1406.399-.0312.047-.0625.094-.0937.14-.0157.032-.0313.079-.0469.141-.0781.172-.1406.297-.1875.375-.0313.078-.0703.156-.1172.234l-.1172.235c-.0312.047-.0703.094-.1172.141-.0468.046-.0859.109-.1172.187-.0312.047-.0625.133-.0937.258-.0938.219-.1719.406-.2344.562-.0781.125-.1562.258-.2344.399-.0781.125-.1484.273-.2109.445-.0156.031-.0234.078-.0234.141.0156.047.0078.086-.0235.117-.0312.078-.0781.148-.1406.211-.0469.062-.0937.133-.1406.211-.1094.187-.211.328-.3047.422-.1875 0-.3047 0-.3516 0-.0312 0-.0625.007-.0937.023-.0469-.031-.0938-.047-.1406-.047-.0469 0-.0938-.015-.1407-.047-.0312-.031-.0781-.031-.1406 0-.0625.016-.1172.008-.1641-.023-.0781-.031-.1796-.055-.3046-.07-.125-.032-.2422-.086-.3516-.165-.1719 0-.2969-.007-.375-.023-.1719-.047-.2734-.07-.3047-.07-.0156-.016-.0391-.039-.0703-.071-.0625-.078-.0781-.14-.0469-.187.0469-.063.086-.133.1172-.211.0313-.078.0469-.172.0469-.281.0156-.125.039-.235.0703-.328.0312-.094.0625-.18.0937-.258.0469-.078.086-.164.1172-.258.0313-.203.0547-.328.0703-.375.0157-.047.0157-.086 0-.117.1094-.094.1563-.188.1407-.281 0-.11.0547-.204.164-.282.0313-.125.0625-.234.0938-.328.0312-.109.0625-.226.0937-.351.0313-.11.0469-.211.0469-.305 0-.109.0156-.227.0469-.352.0625-.172.1094-.296.1406-.375.0313-.078.0625-.156.0938-.234.0312-.094.0703-.195.1171-.305.0469-.109.0547-.226.0235-.351.0625-.078.1015-.157.1172-.2346.0312-.0938.0625-.1797.0937-.2578 0-.0938.0078-.1563.0235-.1875.0312-.0313.0312-.0703 0-.1172.1562-.0469.25-.0703.2812-.0703h.1406c.0469-.0157.1016-.0235.1641-.0235l.2578.0938.3281-.0235c.0782.0313.1563.0782.2344.1407.0938.0468.1875.0859.2813.1171l.3046.0704c.0782.0625.1329.0937.1641.0937.0469 0 .0859.0078.1172.0235.0781.0156.1484.0312.2109.0468s.1407.0391.2344.0703c.0625.0313.1172.0551.1641.0701.0625.016.1328.031.2109.047zm6.2578-1.477c.0781.0156.1328.0469.1641.0938.0469.0468.0937.0937.1406.1406.0781.2812.1172.4531.1172.5156v.4219c.0156.0469.0234.1172.0234.2111 0 .078-.0078.133-.0234.164v.117c-.0156.047-.0234.094-.0234.141.0156.047.0234.101.0234.164.0156.14.0156.273 0 .398-.0469.156-.0781.242-.0938.258l-.164.234c-.0625.063-.1016.11-.1172.141s-.0391.055-.0703.07c-.2031.078-.3516.133-.4453.164-.0782.016-.1563.032-.2344.047-.0469 0-.1328.016-.2578.047-.0313 0-.0781.008-.1406.024-.0469 0-.086 0-.1172 0-.1875.015-.2813.023-.2813.023-.125-.016-.1953-.023-.2109-.023-.0156-.016-.0313-.024-.0469-.024-.1719.031-.2891.047-.3516.047-.0625-.016-.1328-.031-.2109-.047-.1875 0-.3047 0-.3516 0-.0312-.015-.0781-.015-.1406 0-.2187-.015-.3515-.015-.3984 0h-.4688c-.1406-.141-.2187-.211-.2343-.211 0 0-.0079-.015-.0235-.047l-.2109-.211c0-.172-.0235-.351-.0703-.539l-.0469-.468v-.305c0-.2189.0156-.3751.0469-.4689 0-.1875.0156-.2969.0468-.3281.0313-.0469.0469-.0938.0469-.1406.0938-.1406.1485-.2266.1641-.2578.0156-.0313.039-.0625.0703-.0938l.4219-.1875c.1875-.0625.3047-.1015.3515-.1172.0469-.0156.086-.0312.1172-.0469h.3516l.3281-.0703.1875-.0468c.0781-.0157.1484-.0235.2109-.0235.0469 0 .0938.0078.1407.0235h.1406.1406c.0469-.0157.1016-.0235.1641-.0235.125 0 .2344.0078.3281.0235.1094.0156.2188.0078.3281-.0235.0469-.0156.1328-.0078.2578.0235.125.0156.2266.039.3047.0703zm.3516 17.906c.0156.078 0 .141-.0469.188-.0469.031-.0625.07-.0469.117-.2187.047-.3281.07-.3281.07-.125.063-.2656.11-.4219.141-.125.031-.2578.039-.3984.023-.125 0-.2734-.008-.4453-.023-.1719.015-.2969.023-.375.023-.0625 0-.125 0-.1875 0h-.3516c-.1562.016-.2422.024-.2578.024-.1406 0-.2578.008-.3516.023-.0781.031-.1328.047-.164.047h-.3281l-.3282-.07c-.0625 0-.125 0-.1875 0-.0625.015-.1328.015-.2109 0-.0781-.032-.1406-.063-.1875-.094-.0469-.016-.1016-.023-.1641-.023-.0781-.172-.1172-.266-.1172-.282 0-.031-.0078-.054-.0234-.07-.0469-.078-.0703-.148-.0703-.211.0156-.078.0234-.148.0234-.211 0-.047-.0078-.094-.0234-.141 0-.046 0-.085 0-.117 0-.047.0078-.093.0234-.14.0157-.047.0235-.102.0235-.164.0156-.063.0234-.133.0234-.211.0156-.078.0313-.157.0469-.235.0156-.125.0234-.218.0234-.281 0-.078 0-.133 0-.164.0156-.047.0235-.094.0235-.141 0-.062.0078-.125.0234-.187.0156-.094.0156-.164 0-.211-.0156-.063-.0234-.117-.0234-.164 0-.031 0-.078 0-.141.0156-.062.0234-.133.0234-.211 0-.109-.0078-.211-.0234-.304 0-.094 0-.188 0-.282 0-.078.0156-.195.0468-.351v-.305c.0157-.141.0235-.312.0235-.515 0-.204-.0078-.391-.0235-.563v-.258c.0157-.187.0235-.328.0235-.422.0156-.109.0156-.218 0-.328 0-.047-.0078-.086-.0235-.117 0-.047 0-.094 0-.141-.0156-.078-.0234-.148-.0234-.211 0-.062 0-.132 0-.21 0-.094-.0078-.149-.0234-.165 0-.031 0-.062 0-.093v-.422c-.0157-.172-.0157-.266 0-.281.0156-.032.0234-.063.0234-.094 0-.188 0-.305 0-.352.0156-.062.0234-.125.0234-.187 0-.156 0-.242 0-.258 0-.266-.0078-.43-.0234-.492-.0469-.156-.0703-.25-.0703-.282v-.351c0-.141-.0078-.227-.0235-.258 0-.047.0079-.101.0235-.164 0-.109-.0078-.219-.0235-.328 0-.109 0-.227 0-.352-.0156-.109-.0156-.187 0-.234.0157-.047.0235-.094.0235-.141v-.656c-.0313-.187-.0313-.39 0-.609.0312-.157.0625-.25.0937-.281.0469-.157.0782-.243.0938-.258.1406-.188.2812-.313.4219-.375.0781-.032.1406-.063.1875-.094.0625-.047.1093-.07.1406-.07.1406-.032.2344-.047.2812-.047.1719-.016.3438-.016.5157 0 .1718.015.3437.008.5156-.024.1406-.015.2344-.008.2812.024.0469.015.1016.008.1641-.024.2031-.015.3281-.015.375 0h.1406c.125-.031.211-.039.2578-.023h.4219c.0469 0 .1016.008.1641.023.0625 0 .1093.016.1406.047.0312-.031.1172-.047.2578-.047.0469.032.0781.063.0938.094.0312.031.0781.047.1406.047.0625.141.1172.234.164.281.0469.141.1016.289.1641.446.0313.078.0469.171.0469.281 0 .109.0078.226.0234.351v.188c.0156.062.0235.117.0235.164 0 .078-.0079.156-.0235.234 0 .078-.0078.156-.0234.235-.0156.234-.0235.429-.0235.586 0 .14-.0078.281-.0234.421-.0156.079-.0312.157-.0469.235v.234c0 .063.0078.125.0235.188.0156.047.0234.101.0234.164 0 .125-.0078.258-.0234.398-.0157.125-.0313.258-.0469.399-.0156.125-.0313.25-.0469.375-.0156.109-.0234.234-.0234.375v.117c.0156.047.0234.094.0234.14 0 .079-.0078.149-.0234.211v.188.234c.0156.078.0156.156 0 .235 0 .078-.0078.156-.0235.234-.0156.063-.0234.133-.0234.211-.0156.125-.0156.25 0 .375s.0234.25.0234.375c0 .078-.0078.156-.0234.234s-.0156.157 0 .235c.0469.265.0625.445.0469.539s-.0156.195 0 .304c.0156.172.0156.29 0 .352v.117.61c0 .109-.0078.195-.0235.257.0625.11.0782.243.0469.399-.0312.14-.0156.258.0469.351-.0313.11-.0469.227-.0469.352.0156.125.0391.234.0703.328l.0235.633c.0156.094.0234.195.0234.305.0156.093.0234.179.0234.257l-.0234.258zm6.9609-11.062c.1406-.11.2188-.157.2344-.141.0156 0 .0234-.008.0234-.023.125-.11.2032-.18.2344-.211.0938-.047.1484-.078.1641-.094.0312-.016.0625-.031.0937-.047l.3281-.234c.0625-.031.1094-.071.1407-.117.0468-.063.0937-.125.1406-.188.1719-.094.2656-.148.2812-.164.0625-.062.1172-.102.1641-.117.0469-.016.0859-.039.1172-.071.2031-.171.3672-.281.4922-.328.0625-.078.1328-.132.2109-.164.0781-.047.1485-.109.211-.187.1093-.031.1875-.071.2343-.117.0782-.063.1328-.102.1641-.118.0469-.031.0937-.054.1406-.07.1875-.016.2891-.023.3047-.023.125.015.2106.023.2576.023.11.094.172.141.188.141.031 0 .062.015.093.047.032.031.071.062.118.093.047.016.086.039.117.071l.211.164c.14.078.211.125.211.14 0 0 .008.008.023.024.094.078.164.133.211.164s.078.07.094.117c.109.047.195.109.258.188.078.062.156.132.234.211.172.109.281.179.328.21.047.032.086.063.117.094.125.047.219.125.282.235.062.109.156.195.281.257.125.125.187.188.187.188.032.047.063.101.094.164.047.062.086.117.117.164.125.141.196.227.211.258.016.015.039.039.071.07.078.094.148.188.21.281.063.125.118.258.165.399.062.14.132.273.21.398-.031.125-.023.258.024.399l.023.257c0 .11.008.188.024.235.015.047.023.086.023.117.031.047.031.094 0 .141-.015.047-.023.101-.023.164.015.187.015.312 0 .375v.14.118c.015.046.015.101 0 .164-.031.203-.055.343-.071.422 0 .062.008.148.024.257 0 .172-.016.297-.047.375-.016.063-.023.133-.023.211.015.188.023.305.023.352.016.031.023.062.023.094l-.023.562c.016.156.016.234 0 .234v.024c.016.125.016.195 0 .211v.047.14c.016.047.023.094.023.141v.211c.016.015.024.031.024.047-.047.14-.07.218-.07.234.015.016.023.039.023.07v.188c.016.047.023.102.023.164 0 .078-.007.156-.023.234v.235.258c.047.234.07.429.07.585 0 .157.008.313.024.469v.235c.015.015.023.039.023.07.016.172.024.344.024.516v.492c0 .047.007.094.023.14.016.047.016.094 0 .141s-.031.086-.047.117c-.015.016-.039.055-.07.117-.313.125-.508.196-.586.211-.078.032-.172.032-.281 0-.078 0-.18-.008-.305-.023-.109 0-.203.008-.281.023-.172-.015-.289-.023-.352-.023-.047.015-.101.023-.164.023h-.398c-.078 0-.157 0-.235 0-.062.016-.125.016-.187 0-.156-.047-.242-.07-.258-.07-.031 0-.07 0-.117 0-.047.016-.11.023-.188.023-.187-.015-.297-.015-.328 0-.015.016-.039.016-.07 0-.031.032-.078.047-.141.047-.062 0-.133 0-.211 0-.1403.032-.2497.024-.3278-.023-.1406-.125-.2422-.211-.3047-.258 0-.078-.0078-.156-.0234-.234s-.0234-.164-.0234-.258l.0468-.305.0235-.258c.0156-.031.0234-.07.0234-.117.0156-.047.0391-.109.0703-.187.0156-.047.0235-.086.0235-.118.0156-.046.0312-.109.0468-.187 0-.187.0078-.32.0235-.398.0156-.094.0234-.18.0234-.258-.0156-.203-.0078-.336.0234-.399 0-.172.0079-.265.0235-.281-.0156-.156-.0156-.25 0-.281s.0234-.063.0234-.094c0-.187 0-.289 0-.305.0156-.015.0235-.031.0235-.047-.0313-.171-.0469-.265-.0469-.281.0156-.015.0234-.031.0234-.047 0-.046-.0078-.093-.0234-.14 0-.063 0-.133 0-.211v-.305c-.0156-.172-.0235-.305-.0235-.398-.0312-.188-.0468-.313-.0468-.375.0156-.063.0234-.117.0234-.164 0-.219 0-.383 0-.493 0-.125-.0156-.226-.0469-.304.0313-.032.0391-.078.0235-.141 0-.062 0-.117 0-.164.0156-.156.0078-.273-.0235-.351-.0156-.094-.0078-.172.0235-.235-.0157-.141-.0313-.242-.0469-.305 0-.062-.0313-.109-.0938-.14-.1406-.125-.2109-.203-.2109-.235-.2031-.015-.375.016-.5156.094-.1094.141-.1719.211-.1875.211-.1094.156-.1953.258-.2578.305-.0469.047-.0938.101-.1407.164-.125.156-.2031.25-.2343.281-.1719.094-.2969.172-.375.234-.0625.063-.1407.086-.2344.071-.0781 0-.1484-.024-.2109-.071-.0469-.062-.1094-.109-.1875-.14-.0313-.078-.0704-.141-.1172-.188-.0469-.046-.086-.109-.1172-.187-.1094-.156-.1641-.235-.1641-.235.0156 0 .0156-.007 0-.023-.0781-.141-.164-.273-.2578-.398-.0312.031-.0469.07-.0469.117v.14.282.515c0 .078-.0078.164-.0234.258v.281.586c.0156.188.0234.383.0234.586.0313.078.0469.164.0469.258v.258l.0234.258v.164c.0157.031.0235.062.0235.094.0156.171.0156.273 0 .304s-.0235.063-.0235.094c0 .094.0157.219.0469.375-.0156.062-.0234.133-.0234.211.0156.078.0234.148.0234.211.0156.047.0156.094 0 .14v.141c.0156.156.0313.266.0469.328.0156.047.0234.086.0234.117.0313.282.0469.461.0469.539.0156.047.0156.102 0 .164 0 .047.0078.094.0234.141.0313.156.0391.242.0235.258v.07l.0703.352c-.0156.156-.0234.242-.0234.258.0156.015.0234.039.0234.07-.0469.172-.0703.297-.0703.375s-.0235.133-.0703.164c-.1563.016-.2735.023-.3516.023-.0781.016-.1484.039-.2109.071-.2657.031-.4766.023-.6328-.024-.1563-.031-.2422-.047-.2579-.047-.0156.016-.039.024-.0703.024-.0625 0-.1093-.008-.1406-.024-.0312 0-.0781 0-.1406 0-.1875-.015-.3047-.023-.3516-.023-.0312 0-.0703-.008-.1172-.023-.0781 0-.164 0-.2578 0-.0781-.016-.1562-.032-.2344-.047-.1875-.047-.3593-.055-.5156-.024-.1406.032-.25.055-.3281.071-.1094 0-.1797 0-.2109 0-.0157-.016-.0391-.016-.0704 0-.0468 0-.0937.007-.1406.023-.0312 0-.0781-.008-.1406-.023-.125 0-.2266.015-.3047.046-.1719-.062-.2656-.093-.2812-.093 0 0-.0079-.016-.0235-.047-.0469-.078-.0859-.133-.1172-.164-.0156-.031-.0234-.071-.0234-.117.0156-.25.0156-.43 0-.54 0-.124.0078-.242.0234-.351 0-.188 0-.305 0-.352.0157-.062.0313-.117.0469-.164.0313-.281.0625-.461.0938-.539.0156-.203.0156-.336 0-.398-.0157-.063-.0157-.125 0-.188 0-.172.0078-.265.0234-.281.0156-.031.0234-.062.0234-.094l-.0234-.304c0-.094 0-.18 0-.258s-.0156-.149-.0469-.211c.0156-.172.0078-.289-.0234-.352-.0156-.078-.0078-.125.0234-.14.0156-.141.0235-.219.0235-.235 0-.015-.0079-.039-.0235-.07 0-.047 0-.094 0-.141.0156-.046.0235-.086.0235-.117 0-.062-.0079-.109-.0235-.14-.0156-.047-.0078-.094.0235-.141 0-.156 0-.274 0-.352 0-.093 0-.179 0-.257 0-.079-.0079-.149-.0235-.211-.0156-.063-.0234-.118-.0234-.164.0156-.204.0078-.336-.0235-.399.0157-.062.0235-.117.0235-.164 0-.062.0078-.125.0234-.187v-.282-.492c0-.125-.0078-.211-.0234-.258 0-.062 0-.117 0-.164-.0313-.156-.0469-.281-.0469-.375 0-.109 0-.203 0-.281.0156-.125.0156-.203 0-.234-.0156-.047 0-.063.0469-.047-.0156-.25-.0391-.422-.0703-.516-.0157-.094-.0078-.18.0234-.258-.0156-.031-.0312-.07-.0469-.117-.0156-.047-.0234-.101-.0234-.164.0156-.141.0156-.226 0-.258-.0156-.031-.0234-.062-.0234-.094 0-.203 0-.359 0-.468-.0157-.172-.0235-.282-.0235-.328.0156-.063.0235-.125.0235-.188v-.351c-.0157-.125-.0235-.219-.0235-.282-.0312-.187-.0469-.304-.0469-.351s-.0078-.094-.0234-.141l-.0234-.328c-.0157-.141-.0157-.297 0-.469.1406-.172.2031-.258.1875-.258.1875-.078.3047-.117.3515-.117.1875.016.3047.016.3516 0 .0469-.015.1016-.031.1641-.047.125 0 .2031-.007.2343-.023.0313-.016.0625-.023.0938-.023.0469-.016.0937-.016.1406 0 .0625.015.1094.007.1406-.024.2188.016.375.024.4688.024.0937 0 .1797-.016.2578-.047.0469-.016.1094-.016.1875 0 .0781.015.1406.047.1875.093.0781-.031.1484-.039.2109-.023h.1875c.1719.031.3125.047.4219.047.125-.016.2344-.008.3281.023.0782-.031.1719-.039.2813-.023.1094.015.2031 0 .2812-.047l.2813.07c.1562.157.2656.297.3281.422.0625.109.0469.219-.0469.328-.0312.141-.0547.281-.0703.422-.0156.125-.039.266-.0703.422-.0156.187-.0312.297-.0469.328 0 .031-.0078.063-.0234.094-.0156.078-.0234.148-.0234.211.0156.062.0078.133-.0235.211zm15.9613-6.5862c.031.0313.047.0703.047.1172 0 .0312.007.0781.023.1406.031.1875.031.3438 0 .4688v.2812c-.016.2344-.031.4144-.047.5394s-.016.234 0 .328c.016.078.016.148 0 .211-.016.047-.023.093-.023.14v.141c.015.047.023.086.023.117 0 .078-.008.156-.023.235-.016.062-.024.132-.024.21-.031.344-.031.68 0 1.008-.078.094-.101.188-.07.282.031.031.07.039.117.023.063-.016.109-.023.141-.023.078 0 .133-.008.164-.024s.07-.023.117-.023c.172-.032.328-.032.469 0 .156.015.297 0 .422-.047.078.031.156.054.234.07.078 0 .141.039.187.117.11.172.165.305.165.399.093.156.132.242.117.258-.016.015-.024.039-.024.07.032.109.039.187.024.234v.164c-.016.125-.032.203-.047.235v.07c-.016.078-.024.164-.024.258.016.078.008.148-.023.211.031.125.047.226.047.304-.047.313-.063.563-.047.75.031.188.031.36 0 .516-.016.063-.031.125-.047.188 0 .046.008.109.024.187-.063.109-.094.18-.094.211.015.016.008.031-.024.047 0 .062-.023.109-.07.141-.031.031-.039.078-.023.14-.063.016-.11.039-.141.07-.031.016-.078.008-.141-.023-.156.047-.343.055-.562.023h-.586c-.219-.062-.359-.086-.422-.07-.062.016-.133.024-.211.024-.031.062-.047.125-.047.187.016.063.024.133.024.211v.422c0 .14-.008.273-.024.398 0 .11-.008.242-.023.399v.375c.015.047.023.094.023.14.016.157.008.313-.023.469-.016.141.008.289.07.445.016.188.016.305 0 .352-.016.031-.023.062-.023.094.015.203.031.336.047.398.015.047.031.094.046.141v.234c.016.016.024.039.024.071.015.046.031.093.047.14.015.047.023.094.023.141.11.047.172.086.188.117.031.031.054.062.07.094.219.062.359.132.422.211.078 0 .14.007.187.023s.118.039.211.07c.125.016.274.016.446 0 .078-.015.179-.023.304-.023l.305-.047c.125-.016.195-.031.211-.047.016-.015.039-.023.07-.023.172-.016.281-.039.328-.071.063-.031.125-.054.188-.07h.187c.016-.015.039-.023.071-.023.172.093.265.14.281.14.031 0 .047.016.047.047.031.078.039.133.023.164-.015.031-.039.071-.07.117v.305c0 .063-.016.133-.047.211-.031.094-.07.188-.117.281-.016.032-.031.071-.047.117 0 .047-.008.094-.023.141-.079.172-.125.305-.141.399-.016.078-.039.164-.07.257-.032.079-.055.149-.071.211-.015.063-.047.125-.093.188-.063.219-.102.375-.118.469-.047.14-.07.218-.07.234.016 0 .016.008 0 .023-.047.172-.078.289-.094.352 0 .062-.015.133-.047.211l-.093.328c-.094.172-.149.266-.164.281-.141.125-.219.188-.235.188-.015.015-.039.039-.07.07-.109.016-.188.031-.234.047-.047.016-.086.039-.118.07-.14 0-.242.031-.304.094-.094-.016-.188-.023-.282-.023-.093.015-.218.023-.375.023-.125 0-.195 0-.211 0-.015.016-.031.023-.046.023-.11-.031-.219-.046-.329-.046-.125-.016-.21-.024-.257-.024-.172 0-.289-.016-.352-.047-.078-.015-.187-.031-.328-.047-.125 0-.227-.007-.305-.023-.093-.016-.195-.031-.304-.047-.094 0-.196-.008-.305-.023-.156-.079-.242-.125-.258-.141 0 0-.008 0-.023 0-.125-.062-.219-.109-.282-.141-.187-.031-.289-.054-.304-.07 0-.016-.016-.031-.047-.047-.25-.109-.391-.219-.422-.328-.156-.062-.234-.102-.234-.117 0-.016-.016-.031-.047-.047-.125-.109-.188-.18-.188-.211-.109-.125-.179-.195-.211-.211-.031-.031-.054-.078-.07-.14-.125-.172-.195-.266-.211-.282 0-.015-.016-.039-.047-.07s-.055-.07-.07-.117c-.016-.063-.039-.117-.07-.164-.094-.235-.157-.399-.188-.493-.016-.109-.039-.203-.07-.281-.016-.078-.032-.14-.047-.187 0-.063-.008-.133-.024-.211-.015-.063-.031-.133-.046-.211 0-.078-.016-.164-.047-.258l-.024-.258c-.062-.14-.094-.226-.094-.258.016-.031.024-.062.024-.093-.031-.11-.031-.227 0-.352-.047-.078-.063-.156-.047-.234.031-.094.055-.18.07-.258 0-.078-.007-.141-.023-.188 0-.062 0-.125 0-.187 0-.078.008-.148.023-.211.016-.063.024-.133.024-.211.015-.078.015-.148 0-.211 0-.078 0-.156 0-.234v-.727c.015-.125.023-.211.023-.258v-.398c0-.063 0-.117 0-.164.016-.063.024-.125.024-.188-.016-.14-.024-.234-.024-.281.016-.062.024-.125.024-.187v-.328c-.032-.219-.047-.368-.047-.446 0-.094-.008-.187-.024-.281-.125.031-.265.062-.422.094-.156.031-.32.054-.492.07-.078 0-.148 0-.211 0-.047-.016-.086-.023-.117-.023-.094 0-.172-.008-.234-.024-.047-.016-.094-.031-.141-.047-.14-.093-.242-.156-.305-.187-.031-.078-.07-.133-.117-.164-.047-.047-.086-.11-.117-.188s-.039-.156-.023-.234c.031-.094.047-.196.047-.305 0-.078 0-.148 0-.211 0-.062-.008-.133-.024-.211.016-.062.024-.125.024-.187 0-.078-.008-.133-.024-.164-.047-.157-.062-.242-.047-.258 0-.016 0-.047 0-.094-.015-.125-.023-.211-.023-.258s0-.086 0-.117c-.016-.125-.024-.242-.024-.351-.015-.125-.023-.243-.023-.352-.016-.156-.016-.242 0-.258.016-.015.023-.039.023-.07-.015-.156-.015-.25 0-.281 0-.032-.007-.086-.023-.164.031-.141.055-.211.07-.211.016 0 .031-.016.047-.047l.305-.328c.078.031.156.031.234 0 .094-.032.188-.047.281-.047l.305.023c.172 0 .32.031.445.094.188 0 .297.008.329.023.031.016.062.024.093.024.032.015.071.015.117 0 .047-.016.102-.016.165 0 .015-.078.007-.164-.024-.258-.016-.125-.023-.266-.023-.422.015-.172.015-.312 0-.422v-.375c0-.172 0-.265 0-.281.015-.031.015-.062 0-.094-.032-.156-.047-.242-.047-.258.015-.109.008-.21-.024-.304.016-.063.008-.117-.023-.164-.016-.047-.031-.102-.047-.164-.016-.063-.023-.118-.023-.164.015-.063.015-.1254 0-.1879-.016-.0625-.032-.1094-.047-.1407-.016-.0468-.024-.0937-.024-.1406 0-.0312-.008-.0859-.023-.164-.016-.0782-.024-.125-.024-.1407.016-.125.016-.2031 0-.2343 0-.0313.008-.0626.024-.0938.015-.0625.055-.1172.117-.1641.063-.0468.109-.1015.141-.164.109.0312.242.0469.398.0469.156-.0157.281-.0313.375-.0469.031-.0157.07-.0157.117 0h.141c.078.0156.148.0234.211.0234.078-.0156.148-.0234.211-.0234.047.0156.094.0312.14.0469.047.0156.102.0312.164.0468.157-.0156.266-.0234.329-.0234.109.0156.171.0234.187.0234.016-.0156.039-.0156.07 0h.188c.031-.0156.062-.0156.094 0 .14.0156.242.0235.304.0235.078 0 .141-.0079.188-.0235h.234c.11 0 .18-.0156.211-.0468.125.0156.195.0312.211.0468.031 0 .063-.0156.094-.0468.031.0312.07.0468.117.0468.047-.0156.102-.0234.164-.0234.031 0 .07.0078.117.0234h.141c.078.0156.141.0235.187.0235.063-.0157.11.0078.141.0703zm9.093 5.9292c.172 0 .289-.031.352-.093.125-.094.203-.149.234-.164.032-.016.063-.039.094-.071.156-.14.266-.257.328-.351.125-.125.188-.195.188-.211.109-.11.179-.18.211-.211.031-.031.062-.063.093-.094.11-.047.188-.094.235-.14.062-.063.125-.11.187-.141.11-.047.188-.086.235-.117.172-.063.257-.094.257-.094.016-.016.032-.023.047-.023.032-.032.063-.055.094-.071.031-.031.07-.062.117-.093.094-.016.18-.047.258-.094.172-.063.305-.094.399-.094.187-.078.289-.117.304-.117.063-.031.117-.039.164-.024.047 0 .086-.007.117-.023.157.016.25.023.282.023h.398c.078-.015.141-.015.188 0 .093.016.172.055.234.118.063.062.141.093.234.093.032.047.063.086.094.118.031.031.055.078.07.14.125.11.18.164.165.164 0 0 .007.008.023.024.062.172.094.265.094.281.031.172.031.336 0 .492-.016.094-.024.25-.024.469.016.219-.015.367-.093.445.031.156.031.32 0 .492 0 .078-.008.157-.024.235-.016.062-.023.132-.023.211v.281c.015.094.023.187.023.281 0 .063-.008.125-.023.188-.016.062-.032.117-.047.164-.031.156-.055.265-.071.328 0 .047-.007.094-.023.14-.078.219-.133.352-.164.399-.047.047-.094.07-.141.07-.031 0-.07.008-.117.024-.172.062-.273.086-.305.07-.015-.016-.046-.039-.093-.07-.047.015-.094.015-.141 0-.047-.032-.094-.047-.141-.047-.281.015-.453.031-.515.047h-.258c-.141.046-.234.086-.281.117-.047.015-.086.039-.117.07-.172.031-.274.063-.305.094-.109.015-.188.031-.234.047-.032.015-.063.031-.094.047-.172.031-.281.047-.328.047-.11.046-.196.101-.258.164-.172.062-.274.109-.305.14s-.07.055-.117.07c-.031.047-.07.086-.117.118-.031.015-.063.039-.094.07-.094.062-.164.117-.211.164-.109.078-.187.148-.234.211-.047.047-.094.086-.141.117-.031.031-.07.063-.117.094-.031.031-.063.062-.094.094-.015.062-.039.109-.07.14-.031.032-.063.063-.094.094-.078.188-.133.313-.164.375-.031.047-.047.109-.047.188-.062.062-.109.14-.14.234-.016.078-.04.172-.071.281-.015.078-.031.164-.047.258-.015.078-.023.156-.023.234.031.204.031.336 0 .399-.016.156-.024.25-.024.281.016.031.024.063.024.094-.016.172-.024.289-.024.351.016.047.024.102.024.164-.031.219-.055.36-.07.422 0 .047-.008.094-.024.141v.117c.016.235.016.399 0 .492-.015.078-.023.164-.023.258v.211c.015.063.023.133.023.211 0 .375.031.664.094.867.016.125.031.211.047.258.015.047.023.094.023.141.031.125.047.234.047.328 0 .093-.008.156-.023.187-.016.11-.024.196-.024.258-.078.141-.117.227-.117.258s-.008.062-.023.094c-.032.046-.079.093-.141.14-.063.032-.109.071-.141.117-.109-.015-.234 0-.375.047-.109.032-.187.039-.234.024-.047 0-.094.008-.141.023-.047 0-.093 0-.14 0-.047.016-.086.024-.117.024-.188.015-.29.015-.305 0 0 0-.008 0-.024 0-.171 0-.273-.008-.304-.024-.016 0-.032 0-.047 0l-.633.094c-.234.016-.398.023-.492.023-.078.016-.156.008-.235-.023-.218-.031-.375-.063-.468-.094-.078-.031-.157-.047-.235-.047-.109-.093-.195-.164-.257-.211-.063-.062-.125-.117-.188-.164-.047-.156-.078-.25-.094-.281 0-.031-.008-.062-.023-.094-.063-.218-.094-.336-.094-.351 0-.203 0-.367 0-.492.016-.141.031-.258.047-.352.016-.063.023-.18.023-.352.032-.171.047-.265.047-.281 0-.078 0-.148 0-.211 0-.062.008-.109.024-.14.031-.219.047-.344.047-.375-.016-.125-.024-.196-.024-.211.016-.032.024-.063.024-.094 0-.078-.008-.172-.024-.281 0-.11 0-.219 0-.328.031-.188.039-.29.024-.305 0-.016.007-.039.023-.07 0-.079.008-.149.023-.211.016-.063.008-.125-.023-.188 0-.172 0-.266 0-.281.016-.031.023-.063.023-.094 0-.125 0-.234 0-.328.016-.109.016-.227 0-.352 0-.046-.007-.093-.023-.14 0-.063 0-.125 0-.188 0-.14.008-.265.023-.375.016-.125.016-.25 0-.375-.015-.203-.031-.367-.046-.492 0-.125.007-.25.023-.375-.016-.156-.023-.242-.023-.258-.032-.109-.047-.187-.047-.234.015-.063.015-.133 0-.211 0-.141-.016-.219-.047-.234-.016-.032-.024-.063-.024-.094.016-.141.016-.242 0-.305-.015-.062-.023-.125-.023-.187.016-.063.023-.11.023-.141.016-.047.024-.094.024-.141-.016-.14-.024-.218-.024-.234.016-.016.024-.031.024-.047l-.024-.586c0-.109 0-.195 0-.258 0-.078-.015-.156-.046-.234-.016-.078-.016-.172 0-.281.015-.125.015-.203 0-.235-.016-.046-.024-.101-.024-.164.016-.078.016-.156 0-.234s-.023-.148-.023-.211c0-.047 0-.094 0-.141.015-.062.023-.117.023-.164 0-.078-.016-.156-.047-.234-.015-.078-.023-.156-.023-.234.062-.235.101-.375.117-.422.016-.063.047-.125.094-.188.14-.125.211-.195.211-.211 0-.015.007-.023.023-.023.125-.016.211-.016.258 0 .047 0 .078-.016.094-.047.047.031.093.039.14.023.063-.015.117-.023.164-.023.25-.047.532-.047.844 0 .172.031.266.047.281.047.016-.016.032-.024.047-.024h.281c.047-.015.094-.023.141-.023.109-.016.18-.016.211 0 .047 0 .102-.008.164-.023.188-.032.297-.04.328-.024.031 0 .071-.008.117-.023.032 0 .079.007.141.023.063 0 .117-.016.164-.047.125.016.234.031.328.047.094 0 .211.008.352.024.109.109.187.164.234.164.047.046.078.132.094.257.047.141.062.227.047.258 0 .031.008.063.023.094 0 .078.016.172.047.281.031.11.047.219.047.328v.258zm18.774-1.546c.062.25.078.461.047.632-.032.172-.047.321-.047.446-.031.047-.047.094-.047.14.016.047.016.094 0 .141 0 .047-.008.102-.023.164v.141.211.14c0 .125-.008.196-.024.211v.047c.031.109.024.211-.023.305.031.094.039.195.023.304-.016.11-.023.243-.023.399l-.024.398c0 .172-.008.305-.023.399v.258c-.016.14-.031.226-.047.257.016.172.023.258.023.258.016 0 .024.016.024.047.031.078.031.188 0 .328-.016.141-.016.266 0 .375 0 .125-.008.203-.024.235 0 .015.008.039.024.07v.211c.015.015.023.039.023.07-.015.125-.023.242-.023.352 0 .047-.008.093-.024.14v.141.234c.016 0 .024.016.024.047-.016.094-.031.156-.047.188v.093c.047.266.055.446.023.54-.015.046-.023.132-.023.257v.305c.016.125.016.195 0 .211v.047c.047.187.062.32.047.398v.235c-.016.125-.024.211-.024.257.016.032.008.063-.023.094.031.11.039.235.023.375v.422.633.445c.016.125.032.258.047.399.016.078.024.164.024.257 0 .094.007.18.023.258.047.219.07.399.07.539v.399c0 .187-.015.304-.046.351-.016.047-.047.11-.094.188-.203.047-.336.07-.399.07-.047.016-.117.024-.211.024-.265-.016-.507-.016-.726 0-.188 0-.336 0-.445 0-.094.015-.204.015-.329 0-.125 0-.195 0-.211 0-.015.015-.039.023-.07.023-.219-.031-.351-.047-.398-.047-.032.016-.071.016-.117 0-.204-.062-.329-.094-.375-.094-.047 0-.094-.015-.141-.046-.125-.047-.203-.086-.234-.118-.032-.015-.071-.023-.118-.023-.14-.188-.211-.344-.211-.469 0-.094.008-.18.024-.258.031-.078.039-.164.023-.258.016-.124.016-.218 0-.281 0-.062 0-.109 0-.14.016-.047.016-.094 0-.141 0-.062 0-.117 0-.164v-.398c-.14.124-.242.21-.304.257-.047.032-.102.071-.164.117-.157.079-.25.157-.282.235-.156.094-.242.148-.258.164-.015.016-.039.031-.07.047-.109.094-.18.148-.211.164-.031 0-.062.016-.094.047-.125.062-.21.101-.257.117-.11.078-.211.133-.305.164-.063.047-.109.078-.141.094-.015 0-.047.008-.093.023-.204.11-.336.18-.399.211-.062.031-.117.063-.164.094-.187.078-.281.117-.281.117-.094.031-.164.055-.211.07-.047 0-.086.008-.117.024-.078.062-.149.101-.211.117-.047 0-.094.008-.141.023-.062.032-.125.047-.187.047-.047.016-.102.039-.164.071-.157.047-.25.07-.282.07-.015.016-.039.023-.07.023-.125-.031-.203-.046-.234-.046-.032.015-.063.015-.094 0-.109-.016-.211-.047-.305-.094-.094-.032-.187-.071-.281-.117-.141-.079-.227-.118-.258-.118-.109-.093-.172-.132-.187-.117 0 0-.008-.015-.024-.047-.047-.047-.101-.078-.164-.093-.047-.032-.101-.079-.164-.141-.156-.125-.234-.188-.234-.188-.094-.125-.157-.211-.188-.257-.078-.078-.133-.141-.164-.188-.015-.047-.039-.086-.07-.117-.11-.109-.164-.172-.164-.188 0-.031-.008-.046-.024-.046-.109-.11-.172-.172-.187-.188-.016-.016-.039-.039-.07-.07-.079-.11-.133-.172-.165-.188-.015-.031-.039-.062-.07-.093-.031-.063-.07-.126-.117-.188s-.102-.117-.164-.164c0-.078-.016-.141-.047-.188-.016-.062-.008-.117.023-.164l-.07-.257c-.015-.094-.039-.157-.07-.188-.016-.031-.024-.062-.024-.094-.031-.062-.046-.14-.046-.234.015-.094.015-.18 0-.258-.016-.172-.016-.265 0-.281-.047-.188-.086-.313-.118-.375-.015-.172-.023-.266-.023-.281.016-.016.023-.032.023-.047 0-.031-.007-.078-.023-.141-.016-.062-.024-.117-.024-.164.032-.141.032-.211 0-.211-.015 0-.015-.015 0-.047-.015-.172-.023-.273-.023-.304.016-.032.023-.063.023-.094.016-.047.016-.086 0-.117 0-.047 0-.094 0-.141v-.305l-.023-.398c-.016-.25-.016-.43 0-.539.016-.125.023-.25.023-.375-.015-.125-.023-.195-.023-.211.016-.031.023-.063.023-.094-.015-.172-.023-.258-.023-.258.016-.156.016-.273 0-.351 0-.078.008-.172.023-.281 0-.219-.007-.352-.023-.399 0-.062 0-.125 0-.187 0-.079 0-.149 0-.211.016-.063.023-.133.023-.211v-.586c0-.141-.007-.242-.023-.305-.016-.078-.031-.156-.047-.234 0-.141 0-.219 0-.235.016-.031.024-.054.024-.07-.032-.188-.047-.312-.047-.375.015-.063.023-.125.023-.187-.031-.141-.047-.227-.047-.258 0-.032 0-.063 0-.094 0-.188-.015-.289-.047-.305-.015-.125-.031-.219-.046-.281 0-.062-.008-.133-.024-.211.016-.047.016-.109 0-.187-.016-.079-.016-.141 0-.188l.258-.352c.078.016.141.016.187 0 .047-.031.11-.054.188-.07.219-.015.359-.039.422-.07.062-.031.14-.039.234-.024.188.047.344.055.469.024h.187c.047 0 .086-.008.118-.024h.14c.063-.015.125-.015.188 0 .187.032.304.047.351.047.063-.015.125-.015.188 0 .156.032.265.047.328.047.187 0 .32.016.398.047.032.016.086.023.164.023h.258c.094-.015.188-.023.281-.023.094-.016.188-.023.282-.023.062.015.125.031.187.046.063 0 .125.016.188.047.047.157.07.235.07.235.016 0 .023.008.023.023.094.203.141.367.141.492 0 .11-.008.219-.023.329 0 .046-.008.093-.024.14-.015.047-.023.094-.023.141s-.008.093-.024.14v.141.211c.016.062.016.125 0 .187-.015.157-.023.235-.023.235.016 0 .023.008.023.023-.015.047-.031.094-.047.141 0 .031-.007.07-.023.117v.234c.016.063 0 .125-.047.188.031.156.039.305.024.445v.422c-.016.156-.024.258-.024.305.016.031.024.062.024.094 0 .093-.008.179-.024.257 0 .079-.008.157-.023.235v.445.773c0 .063-.008.133-.024.211 0 .063.016.133.047.211-.031.047-.047.094-.047.141.016.047.024.094.024.141 0 .078-.008.164-.024.257-.015.079-.023.165-.023.258 0 .203.008.336.023.399.032.062.047.132.047.211.016.218.031.359.047.421.016.063.031.133.047.211.016.079.016.149 0 .211 0 .047.016.094.047.141.172.063.273.109.304.141.032.015.063.039.094.07.235.078.383.141.446.187.031.047.07.071.117.071.047-.016.086 0 .117.047.141-.047.226-.086.258-.118.172-.109.265-.164.281-.164.031-.015.062-.039.094-.07.14-.109.226-.164.258-.164.171-.141.273-.227.304-.258.031-.047.063-.086.094-.117s.062-.062.094-.094c.047-.031.086-.062.117-.094.031-.14.031-.257 0-.351-.016-.094-.016-.203 0-.328 0-.125.008-.211.023-.258.016-.063 0-.133-.047-.211.016-.187.032-.305.047-.352.016-.046.024-.093.024-.14 0-.078-.008-.156-.024-.234-.015-.079-.007-.172.024-.282.031-.14.039-.234.023-.281-.015-.063-.023-.117-.023-.164 0-.063-.008-.117-.024-.164 0-.047.016-.094.047-.141-.015-.047-.031-.101-.047-.164-.015-.078-.007-.148.024-.211.015-.156 0-.304-.047-.445 0-.188 0-.32 0-.398.016-.079.008-.157-.024-.235 0-.109 0-.172 0-.187.016-.016.024-.039.024-.071-.031-.125-.047-.195-.047-.211.016-.031.023-.062.023-.093 0-.141-.007-.235-.023-.282s-.023-.093-.023-.14c0-.11-.016-.211-.047-.305-.047-.203-.071-.336-.071-.398.016-.063.024-.133.024-.211 0-.11.008-.172.023-.188.016-.031.024-.07.024-.117.015-.062.015-.125 0-.188 0-.078 0-.156 0-.234-.016-.14-.008-.258.023-.351.016-.125.031-.258.047-.399.016-.14.07-.234.164-.281.094-.109.149-.172.164-.188.031-.031.07-.054.117-.07.032-.016.071-.031.118-.047.046-.015.093-.039.14-.07.125.031.235.039.328.023.11-.015.211-.007.305.024.172-.047.273-.078.305-.094.031-.016.062-.023.093-.023.032 0 .071.007.118.023h.164c.062 0 .125.008.187.023h.164c.047 0 .094-.007.141-.023s.094-.023.14-.023c.079 0 .165.015.258.046.11 0 .172.008.188.024h.07.164c.031-.016.063-.024.094-.024.156 0 .242.008.258.024h.093c.047.016.094.023.141.023.047-.015.109-.023.188-.023.062 0 .125.008.187.023.063 0 .109-.015.141-.047.156.047.242.079.258.094.015.016.039.024.07.024z" fill="#693821"/></svg>