<svg fill="none" height="181" viewBox="0 0 230 181" width="230" xmlns="http://www.w3.org/2000/svg"><g fill="#6a290b"><path d="m97.5248 8.4349c-41.8476 13.2622-74.4094 41.3892-89.60001 75.8668-14.50457 32.8953-12.20151 76.6083 33.39481 91.2323 47.0174 15.085 99.8664-3.185 135.5884-28.828 35.698-25.603 64.781-65.1488 48.414-104.9153-7.963-19.3324-26.094-34.03694-50.325-39.42595-28.323-6.31055-57.308.70117-81.7108 12.84145-3.3322 1.6628-.294 5.95 3.0626 4.2872 21.9772-10.8181 47.4342-17.58942 73.1602-13.06185 23.178 4.06675 41.235 17.18875 49.296 35.33905 16.072 36.1405-8.747 72.5614-40.353 97.1624-31.386 24.401-76.492 42.952-120.7657 35.78-24.354-3.947-43.6853-15.786-50.34954-35.84-5.39022-16.207-2.86661-33.636 3.18514-49.4828 13.549-35.4793 46.5273-64.4677 87.4194-80.13393.5636-.22037.1716-1.0217-.4165-.82137z"/><path d="m196.567 142.445c-4.642 1.9-11.307 6.995-11.56 12.028-.275 5.596 7.125 6.431 11.399 4.761 5.125-2.005 10.779-6.933 11.537-12.174.368-2.443-1.08-4.573-3.562-5.533-3.079-1.212-6.182-.105-9.078 1.023-2.757 1.086-.367 4.823 2.367 3.696 1.264-.627 2.597-.982 4.022-1.086 1.402 1.399 1.632 2.694.644 3.925-.414 1.024-1.448 2.109-2.206 2.903-1.885 1.921-4.528 4.03-7.401 4.427-3.562.501-5.01-1.9-3.424-4.782.506-.919 1.103-1.817 1.77-2.673 1.723-2.213 3.93-3.905 6.251-5.596.62-.438-.161-1.169-.759-.919z"/><path d="m205.709 167.377c-3.307 1.521-7.205 4.522-5.126 8.316 2.173 3.944 8.197 2.122 10.961-.215 2.882-2.421 3.519-6.944.33-9.409-2.74-2.122-7.63-.964-8.315 2.401-.378 1.865 2.575 2.679 3.189.793.567-1.715 2.93-1.243 3.496.193.662 1.693-.59 3.322-2.078 4.244-1.465.9-4.63 1.95-4.843-.536-.165-1.929 1.937-3.494 3.307-4.694.662-.579-.165-1.436-.921-1.093z"/><path d="m48.2578 141.169c-2.2289 9.866-1.3981 19.895 1.7223 29.477.2026.628 1.1954.345.9928-.263-3.2014-9.603-3.708-19.105-2.2491-29.072.0405-.304-.4052-.446-.466-.142z"/><path d="m216.027 50.3131c3.272 5.8824 5.65 12.0017 7.242 18.4368.109.4342.829.2566.72-.1777-1.636-6.4548-4.188-12.5939-7.569-18.4565-.153-.2566-.523-.0395-.393.1974z"/><path d="m217.054 46.4374c7.271 10.1834 10.603 21.141 9.554 33.0713-.046.6551 1.142.6551 1.212 0 1.026-11.9104-2.33-23.4238-10.16-33.369-.257-.3177-.839-.0397-.606.2977z"/></g><path d="m76.8281 86.9062c-.1875.0782-.3437.1172-.4687.1172-.125.0157-.2656.0391-.4219.0704-.2187.0312-.3516.039-.3984.0234-.0313-.0156-.0625-.0313-.0938-.0469-.2187.0313-.3984.0469-.5391.0469-.125 0-.25 0-.375 0-.2187-.0156-.3593-.0234-.4218-.0234-.0469.0156-.1016.0234-.1641.0234s-.125-.0078-.1875-.0234c-.0469-.0157-.1016-.0235-.164-.0235-.125.0313-.2188.0469-.2813.0469-.1406 0-.25-.0078-.3281-.0234-.25.0312-.4297.0234-.5391-.0235-.1094-.0312-.2031-.0312-.2812 0-.0625-.0312-.1719-.0625-.3282-.0937-.0625-.1407-.1015-.2266-.1171-.2578-.1094-.1563-.1797-.25-.211-.2813-.0312-.0781-.0469-.1406-.0469-.1875.0157-.0469.0157-.0859 0-.1172-.0625-.25-.0781-.4531-.0468-.6094.0156-.1562.039-.2968.0703-.4218.0156-.0625.0156-.1094 0-.1407 0-.0312 0-.0859 0-.164v-.3281c0-.1094-.0078-.1719-.0235-.1876-.0156-.0312-.0234-.0624-.0234-.0937.0313-.25.0469-.4375.0469-.5625s.0078-.2422.0234-.3516c.0156-.0468.0156-.0937 0-.1406 0-.0469 0-.0937 0-.1406.0156-.0781.0234-.1641.0234-.2578.0157-.0938.0157-.1875 0-.2813v-.5859c-.0156-.0938-.0234-.1484-.0234-.1641.0156-.0312.0234-.0703.0234-.1172 0-.0625-.0078-.1328-.0234-.2109 0-.0938 0-.1719 0-.2344v-.3281c0-.2187 0-.4141 0-.5859.0156-.1719.0156-.3438 0-.5157 0-.0781 0-.164 0-.2578 0-.0937.0078-.1797.0234-.2578.0157-.1562.0157-.2891 0-.3984 0-.1407 0-.2735 0-.3985 0-.1406-.0078-.2578-.0234-.3515-.0469-.2188-.0703-.3438-.0703-.375 0-.0625.0078-.125.0234-.1875.0157-.0625.0235-.125.0235-.1875v-.375c-.0156-.125-.0235-.2266-.0235-.3047.0157-.0781.0079-.1563-.0234-.2344.0313-.0469.0469-.1562.0469-.3281 0-.2188 0-.4063 0-.5625 0-.1719.0078-.3125.0234-.4219-.0469-.0469-.1328-.0859-.2578-.1172-.2031-.0781-.3828-.1172-.5391-.1172-.1406-.0156-.2656-.0547-.375-.1171-.0937-.0469-.1718-.1094-.2343-.1876-.0625-.0781-.1485-.125-.2578-.1406-.0313-.0468-.086-.0937-.1641-.1406-.0625-.0469-.1172-.1094-.1641-.1875-.0468-.0937-.0703-.1875-.0703-.2813-.0312-.0624-.0547-.1171-.0703-.164-.0156-.0625-.0156-.1484 0-.2578.0469-.1406.0703-.211.0703-.211.0156 0 .0391-.0156.0703-.0468.0469-.0938.0782-.1485.0938-.1641.0312-.0313.0468-.0625.0468-.0937.125-.125.1876-.1876.1876-.1876 0-.0156.0078-.0312.0234-.0468l.2109-.2578c.0625-.1094.1016-.1641.1172-.1641.0156-.0156.0235-.0391.0235-.0703.0624-.0781.1015-.1406.1171-.1875.0313-.0469.0625-.0938.0938-.1406.0625-.1094.0937-.1797.0937-.211.0157-.0312.0391-.0703.0704-.1172.0781-.0937.1171-.1484.1171-.164 0-.0313.0079-.0547.0235-.0703.1094-.2188.2031-.4219.2812-.6094.0156-.0469.0547-.1328.1172-.2578.0781-.125.1328-.2188.1641-.2813.1093-.125.164-.1875.164-.1875 0-.0156.0079-.0312.0235-.0468.2187-.0782.3594-.1172.4218-.1172.0782-.0157.1641-.0313.2579-.0469.125-.0313.2109-.0469.2578-.0469.0781-.0156.1406-.0156.1875 0h.1172c.1562 0 .2343.0078.2343.0234 0 .0157.0079.0235.0235.0235.0625-.0156.1562-.0078.2812.0234h.1641c.0625-.0156.1172-.0234.1641-.0234.0624 0 .1093.0078.1406.0234h.1406c.1406-.0156.2188-.0156.2344 0h.0703l.2812.0235c.1563.0156.2969.0078.4219-.0235.1563.0157.2734.0313.3516.0469.0781 0 .1484.0078.2109.0234.1094-.0156.1719-.0156.1875 0h.0703c.1719.0157.3047.0313.3985.0469.0937 0 .1562.0156.1875.0469.1093.1562.1718.2656.1875.3281.0156.0469.039.0938.0703.1406.0312.0782.0547.1407.0703.1875.0312.0469.0547.086.0703.1172v.3282c-.0156.0781-.0313.1562-.0469.2343-.0156.0625-.0312.1328-.0468.211 0 .1875-.0079.289-.0235.3047v.0468l.0235.2578c-.0469.2032-.0704.3594-.0704.4688.0157.1094.0157.2109 0 .3047 0 .0781-.0078.1484-.0234.2109 0 .0625-.0078.1328-.0234.211-.0469.3124-.0704.5859-.0704.8203-.0312.2187-.0468.3437-.0468.375v.164c.0156.0313.0312.0703.0468.1172-.0156.1875-.0234.2891-.0234.3047.0156 0 .0234.0156.0234.0469-.0156.0781-.0234.1562-.0234.2343v.2344c.0156.1094.0156.1953 0 .2578v.1172c0 .125.0078.2188.0234.2813v.6562c.0157.1094.0157.2188 0 .3281v.3047.211c.0157.0469.0157.1015 0 .164v.2813c-.0156.1875-.0234.2812-.0234.2812 0 .1094.0078.211.0234.3047.0157.0938.0235.1953.0235.3047 0 .125-.0078.2578-.0235.3984-.0156.125-.0156.25 0 .375v.3282l.0235.2812c.0156.125.0234.2656.0234.4219v.4687c0 .1407.0157.2891.0469.4454 0 .0625-.0078.1172-.0234.164 0 .0469.0078.0938.0234.1406v.2579c.0156.1875.0312.3047.0469.3515.0156.0313.0312.0625.0469.0938.0156.0937.0156.1875 0 .2812-.0157.0938-.0157.1875 0 .2813l.0234.3281c0 .0469.0078.1016.0234.1641.0156.0468.0235.0859.0235.1171v.1641c0 .0469.0078.1016.0234.1641v.1406c.0156.0469.0234.1094.0234.1875v.2578c.0157.125.0157.1953 0 .2109v.0469c.0625.2188.086.3828.0703.4922 0 .0938.0079.1797.0235.2578.0156.0625.0234.1172.0234.1641.0157.0469.0313.1016.0469.164 0 .0938-.0078.1954-.0234.3047 0 .0938-.0157.1875-.0469.2813zm14.7188-12.0937c-.1563.3437-.3281.5937-.5157.75-.1093.1406-.164.2187-.164.2344-.1094.1562-.1797.25-.211.2812-.0156.0157-.039.0391-.0703.0703-.0625.0938-.125.1797-.1875.2578-.0468.0626-.1015.1329-.164.211-.0782.1719-.1406.2812-.1875.3281-.0469.0313-.0703.0859-.0703.1641-.0469.0312-.086.0781-.1172.1406-.0156.0469-.0391.0938-.0703.1406-.0938.1719-.1485.2735-.1641.3047l-.1875.1875c-.1094.125-.1719.2031-.1875.2344 0 .0312-.0156.0625-.0469.0937-.0469.0938-.0781.1485-.0937.1641s-.0313.0391-.0469.0703c-.0781.125-.1172.1953-.1172.2109 0 .0157-.0078.0313-.0234.0469-.0938.1563-.1563.2422-.1875.2578-.0156 0-.0313.0157-.0469.0469-.0625.125-.1016.1875-.1172.1875s-.0312.0156-.0469.0469c-.0781.0937-.1328.1953-.164.3047-.1094.1875-.1797.3125-.211.375-.0312.0625-.0781.1172-.1406.164-.1094.1719-.164.2579-.164.2579-.1094.1562-.1641.2421-.1641.2578 0 .0156-.0078.039-.0235.0703-.1093.1562-.1796.2656-.2109.3281-.0312.0625-.0781.125-.1406.1875-.0469.0469-.0938.1094-.1406.1875-.0625.1719-.1094.2734-.1407.3047-.0937.1094-.1406.1719-.1406.1875s-.0078.0312-.0234.0469c-.0938.1562-.1406.2421-.1406.2578-.0626.2343-.125.3828-.1876.4453-.0468.0469-.0859.1094-.1171.1875-.0938.1719-.1563.2656-.1875.2812-.0157.125-.0547.2579-.1172.3985-.0782.1562-.125.2578-.1406.3047-.0157.0312-.0391.0625-.0704.0937-.0156.1094-.0468.211-.0937.3047-.0313.0781-.0625.1563-.0938.2344-.0468.1406-.0859.2265-.1171.2578-.0626.125-.1329.2578-.211.3984-.0625.1407-.125.2735-.1875.3985-.0625.0937-.1015.1718-.1172.2343 0 .0469-.0156.1016-.0469.1641-.0312.0469-.0546.1016-.0703.1641-.0156.0625-.039.1328-.0703.2109-.0625.125-.0937.2266-.0937.3047-.125.125-.1875.1875-.1875.1875-.2344.1406-.375.2187-.4219.2344-.0313.0156-.125.0234-.2813.0234h-.4453c-.125-.0156-.1953-.0156-.2109 0-.0156 0-.0312 0-.0469 0-.1406 0-.289 0-.4453 0-.1406 0-.2734-.0078-.3984-.0234-.0469 0-.1016.0078-.1641.0234-.0469 0-.0937 0-.1406 0-.1875-.0312-.3203-.0391-.3985-.0234-.0624.0156-.1484.0156-.2578 0-.1718-.0157-.3437-.0157-.5156 0-.1562 0-.3203 0-.4922 0-.0937.0156-.1953.0156-.3047 0-.0781 0-.1484.0078-.2109.0234-.0469.0156-.1094.0234-.1875.0234-.1563-.0156-.25-.0234-.2813-.0234-.0312.0156-.0624.0156-.0937 0-.0625-.0156-.1172-.0312-.1641-.0469-.0468-.0156-.1015-.0312-.164-.0469.0156-.1406.0312-.2265.0468-.2578.0938-.1406.1485-.2343.1641-.2812s.0547-.0781.1172-.0938c.0937-.25.1875-.4218.2813-.5156.0781-.0937.1171-.1484.1171-.164.0157-.0157.0313-.0313.0469-.0469.0625-.125.0938-.1953.0938-.211 0-.0156.0078-.039.0234-.0703.125-.1406.1875-.2187.1875-.2344.0156-.0156.0391-.039.0703-.0703.125-.1718.1875-.2734.1875-.3047.0156-.0312.0391-.0624.0703-.0937.0313-.0781.0625-.1484.0938-.2109.0468-.0625.0937-.125.1406-.1875.0938-.1407.1641-.2735.2109-.3985.0313-.0312.0547-.0625.0703-.0937.0313-.0469.0626-.0938.0938-.1407.0781-.1562.1172-.2421.1172-.2578.0156-.0312.039-.0625.0703-.0937.0313-.1094.0625-.1875.0937-.2344.0313-.0469.0626-.1015.0938-.1641.0781-.1562.1172-.25.1172-.2812 0-.0469.0156-.0859.0469-.1172.0937-.0781.1328-.1328.1171-.164 0-.0313.0157-.0547.0469-.0704.0938-.1562.1563-.25.1875-.2812.0782-.1719.125-.2656.1406-.2813.125-.1875.1954-.2968.211-.3281.0156-.0312.039-.0625.0703-.0937.0937-.1563.1406-.2422.1406-.2579.0157-.0312.0313-.0624.0469-.0937.0312-.0313.0625-.0703.0938-.1172.0312-.0469.0624-.0859.0937-.1172.0156-.1093.0469-.1875.0937-.2343.0469-.0626.0782-.1407.0938-.2344.0781-.0625.1172-.1172.1172-.1641.0156-.0469.0312-.0859.0469-.1172.0625-.1093.1015-.164.1171-.164.0157-.0157.0313-.0391.0469-.0703.0157-.0313.0235-.0782.0235-.1407.0156-.0625.039-.1093.0703-.1406.0937-.1563.1406-.2422.1406-.2578l.0703-.0703c.0781-.1719.1406-.2969.1875-.375.0781-.1563.125-.2344.1406-.2344.0938-.1562.1485-.2422.1641-.2578.0156-.0313.0312-.0625.0469-.0938.0625-.0937.0937-.1562.0937-.1875.0156-.0312.0313-.0547.0469-.0703.0937-.1562.1484-.2344.1641-.2344.0625-.1093.0937-.1718.0937-.1874 0-.0157.0078-.0391.0235-.0704.1093-.1406.1718-.2422.1874-.3046.0626-.125.1016-.211.1172-.2579.0313-.0625.0704-.1171.1172-.164 0-.0625.0156-.1094.0469-.1407.0313-.0312.0547-.0624.0703-.0937.0625-.1094.1094-.1953.1406-.2578.1094-.125.1641-.1953.1641-.2109 0-.0157.0078-.0313.0234-.0469.125-.125.1875-.1875.1875-.1875.1094-.1719.1719-.2578.1875-.2578.0157-.0157.0235-.0391.0235-.0704.0468-.0312.0859-.0624.1172-.0937.0312-.0469.0625-.0859.0937-.1172.0156-.0781.0703-.1797.1641-.3047.0625-.1094.0859-.1718.0703-.1875 0-.0312.0156-.0625.0469-.0937-.1719.0468-.2657.0781-.2813.0937 0 0-.0156 0-.0469 0l-.7031.0235c-.1719-.0157-.3203-.0157-.4453 0-.125 0-.2344 0-.3281 0-.1563 0-.2813.0078-.375.0234-.0938.0156-.2188.0156-.375 0-.2031 0-.336.0078-.3985.0234-.0625 0-.125-.0078-.1875-.0234-.1875 0-.3906 0-.6093 0-.0625.0156-.1172.0312-.1641.0469-.0469 0-.1016 0-.1641 0-.0781.0156-.1562.0234-.2343.0234-.0625-.0156-.1329-.0078-.211.0235-.0937.0156-.1562.0234-.1875.0234-.0312-.0156-.0781-.0234-.1406-.0234-.2188.0312-.3516.0468-.3984.0468-.1875.0156-.2891.0313-.3047.0469-.0157 0-.0391 0-.0703 0-.0782.0313-.1563.0469-.2344.0469-.0625 0-.1328.0078-.211.0234-.1562.0625-.2656.0938-.3281.0938s-.1328.0078-.2109.0234c-.1563.0312-.2578.0547-.3047.0703-.0313 0-.0781.0156-.1406.0469-.0469.0156-.1016.0078-.1641-.0234-.0781-.0469-.1328-.086-.164-.1172-.0157-.0469-.0391-.086-.0704-.1172.0157-.0625.0078-.1172-.0234-.1641-.0156-.0625-.0234-.1328-.0234-.2109-.0157-.0469-.0157-.0938 0-.1406.0312-.0469.0234-.086-.0235-.1172-.0156-.1875-.0234-.3907-.0234-.6094.0156-.2344.0312-.4375.0469-.6094.0156-.2031.0234-.3437.0234-.4219.0156-.0781.0312-.1718.0469-.2812-.0157-.125-.0078-.2188.0234-.2813-.0156-.1093-.0078-.2109.0235-.3046.0156-.0626.0156-.1172 0-.1641-.0157-.0469 0-.0781.0468-.0938-.0312-.1406-.0468-.2343-.0468-.2812-.0157-.1406-.0235-.2266-.0235-.2578.0156-.0469.0235-.086.0235-.1172l.0468-.2813v-.375c.0156-.0781.0156-.1484 0-.2109 0-.0781.0078-.1406.0235-.1875l.1406-.2344c.0781-.0937.1406-.1484.1875-.164.0469-.0313.1016-.0469.164-.0469.1876.0469.2891.0781.3047.0937.0157.0157.0391.0235.0703.0235.2032 0 .3282.0156.375.0469.0626.0312.1172.0546.1641.0703.1094.0468.2266.0703.3516.0703l.2578.0703c.0937.0156.1797.0234.2578.0234.1563.0157.2344.0235.2344.0235 0-.0157.0078-.0235.0234-.0235.1406.0157.25.0235.3281.0235.0782 0 .1485.0156.211.0468.1406-.0312.2187-.0468.2344-.0468.0156-.0157.039-.0235.0703-.0235h.3515c.2032.0313.3125.0469.3282.0469.0781 0 .1484-.0078.2109-.0234.0625-.0157.1328-.0157.2109 0 .0469.0156.1328.039.2578.0703.125-.0313.2578-.0313.3985 0 .1562.0156.3047.0156.4453 0h.7266c.25-.0157.5-.0157.75 0 .1718.0156.2656.0312.2812.0469h.0469c.1562.0156.2343.0234.2343.0234.0157-.0156.0391-.0234.0704-.0234h.4687c.1406 0 .2813-.0079.4219-.0235h.3281c.0938 0 .2031-.0078.3281-.0234.0782.0156.1485.0312.211.0469h.2344.2343c.0781-.0157.1563-.0235.2344-.0235.1719 0 .3359.0078.4922.0235.1562 0 .3125-.0079.4687-.0235h.1172c.0625-.0156.1094-.0234.1406-.0234.2344-.0625.4141-.0781.5391-.0469l.2578.0469c.2031.1875.3047.3359.3047.4453.0313.125.0391.25.0234.375-.0156.125-.0234.25-.0234.375-.0156.1094-.0234.2578-.0234.4453s.0078.3516.0234.4922c0 .0781.0078.1484.0234.2109.0157.0469.0235.1016.0235.1641 0 .0469-.0078.1015-.0235.1641v.164c.0313.1719.0469.2891.0469.3516.0157.0468.0235.0859.0235.1172.0312.1718.039.289.0234.3515v.1875c0 .1719-.0078.2891-.0234.3516 0 .0625.0078.1172.0234.164v.375c0 .0938.0156.1876.0469.2813zm7.8984-1.3359c.0625.0781.0938.1718.0938.2812.0156.0938.0312.2031.0468.3281.0313.2032.0391.3203.0235.3516.0312.0781.0468.1406.0468.1875.0157.0312.0079.0625-.0234.0938.0156.1562.0234.2578.0234.3046.0157.0313.0157.0625 0 .0938-.0156.1406-.0156.25 0 .3281.0157.0781.0157.1563 0 .2344v.375c0 .0781-.0078.1406-.0234.1875v.0937l.0234.2813v.1406c.0157.0469.0157.0938 0 .1406l.4688.0469h.234c.094-.0156.172-.0078.235.0235.25-.0469.406-.0704.468-.0704.266.0157.438.0313.516.0469h.234.235c.047-.0156.094-.0078.141.0235.062-.0157.117-.0157.164 0 .046 0 .101.0078.164.0234.203.1094.304.2031.304.2812.016.0625.032.1563.047.2813.016.1094.016.2109 0 .3047v.3047c0 .0781.008.164.024.2578.015.0781.007.1562-.024.2343-.015.0469-.015.1172 0 .211.016.0781.024.1562.024.2344-.032.125-.047.2109-.047.2578 0 .125-.008.2109-.024.2578 0 .0469.008.1016.024.164-.047.0626-.11.125-.188.1876-.062.0624-.133.1015-.211.1171-.172-.0468-.289-.0625-.351-.0468-.047.0156-.102.0156-.164 0-.203-.0469-.36-.0625-.469-.0469-.109 0-.203-.0234-.281-.0703-.094.0156-.188.0078-.282-.0235-.078-.0312-.164-.0468-.257-.0468l-.282.0234c-.171-.0312-.273-.0391-.304-.0234-.016.0156-.039.0234-.0706.0234-.2032-.0156-.3203-.0156-.3516 0-.0469.0938-.0547.2031-.0234.3281-.0156.0938-.0235.1563-.0235.1875.0157.0156.0235.0391.0235.0703 0 .0938-.0078.1875-.0235.2813 0 .0937.0079.1875.0235.2812 0 .0625.0078.1172.0234.1641.0156.0313.0156.0859 0 .1641-.0312.0781-.0469.1406-.0469.1875.0157.0312.0235.0625.0235.0937 0 .1719.0078.2813.0234.3281.0156.0469.0156.086 0 .1172.0156.2344.0234.4063.0234.5157.0157.1093 0 .2031-.0468.2812 0 .1562-.0078.2578-.0235.3047-.0156.0469-.0312.0937-.0468.1406-.1875.0313-.3125.0547-.375.0703-.0469 0-.1094.0078-.1875.0235-.1719.0312-.3125.0468-.4219.0468-.1094-.0156-.2266-.0156-.3516 0-.1406.0469-.2187.0625-.2343.0469 0-.0156-.0079-.0234-.0235-.0234-.1719 0-.2812.0156-.3281.0468-.0313.0157-.0703.0235-.1172.0235-.1094 0-.1719.0078-.1875.0234-.0156 0-.0391 0-.0703 0-.1563.0157-.2578.0235-.3047.0235-.0469-.0157-.1016-.0078-.1641.0234-.0468-.0312-.1015-.0625-.164-.0938-.0469-.0468-.1016-.0859-.1641-.1171-.0312-.0782-.0469-.1407-.0469-.1875 0-.0625.0157-.1328.0469-.211.0313-.1406.0313-.289 0-.4453 0-.0781 0-.1406 0-.1875.0156-.0469.0156-.1094 0-.1875.0156-.0625.0078-.1172-.0234-.1641-.0157-.0624-.0235-.1328-.0235-.2109.0313-.1719.0391-.2812.0235-.3281-.0157-.0625-.0235-.125-.0235-.1875l.0469-.375-.0469-.5156c0-.0469 0-.0938 0-.1407 0-.0625.0157-.1093.0469-.1406-.0156-.0781-.0312-.1328-.0469-.164 0-.0469 0-.086 0-.1172-.1406 0-.2187.0078-.2343.0234-.0157.0156-.0391.0234-.0703.0234-.1719 0-.2813.0078-.3282.0235-.0468 0-.0937 0-.1406 0-.1094-.0157-.1797-.0157-.2109 0-.0157 0-.0313 0-.0469 0-.0625 0-.1172.0078-.1641.0234-.0312 0-.0781-.0078-.1406-.0234-.0937 0-.1641.0078-.2109.0234-.0313 0-.0704 0-.1172 0h-.375c-.1719 0-.2891.0156-.3516.0469-.0781 0-.1484 0-.2109 0-.0469-.0156-.1016-.0156-.1641 0-.1562.0156-.2422.0234-.2578.0234-.0156-.0156-.0391-.0234-.0703-.0234-.2188-.0781-.3359-.1563-.3516-.2344-.0625-.125-.1015-.1953-.1172-.2109-.0156-.0313-.039-.0781-.0703-.1407.0313-.125.0235-.25-.0234-.375-.0313-.1406-.0469-.2968-.0469-.4687-.0156-.1563-.0156-.2891 0-.3984.0156-.125 0-.25-.0469-.375-.0156-.1563-.0156-.2735 0-.3516.0157-.0937.0313-.1719.0469-.2344.0625-.1719.0938-.2578.0938-.2578.0156 0 .0234-.0078.0234-.0234.1719-.0469.2578-.0781.2578-.0938.0938 0 .1719-.0156.2344-.0469.0781-.0312.1484-.0546.2109-.0703.1406 0 .2422-.0156.3047-.0468.1875.0312.2891.0468.3047.0468.0312-.0156.0625-.0234.0938-.0234h.3984c.0625 0 .125.0078.1875.0234l.2812.0235c.0938.0312.1797.0468.2579.0468.0937.0157.1718.0235.2343.0235.0625-.0156.125-.0156.1875 0s.1172.0391.1641.0703c.0625.0156.125.0078.1875-.0234.1562-.125.2266-.2344.2109-.3282-.0156-.0937-.0312-.1796-.0469-.2578 0-.0781-.0078-.164-.0234-.2578 0-.1094 0-.2031 0-.2812v-.3516c.0156-.1719.0234-.2969.0234-.375-.0156-.125-.0312-.2188-.0468-.2812 0-.0626 0-.1407 0-.2344 0-.1563-.0078-.2813-.0235-.375-.0156-.0938-.0156-.2032 0-.3282.0313-.0312.0547-.0703.0703-.1171.0157-.0469.0469-.0782.0938-.0938.1562-.1094.2734-.1719.3516-.1875.0937-.0312.1796-.0547.2578-.0703h.2578c.0156-.0156.0312-.0234.0469-.0234.0625 0 .1171.0156.164.0468.0625.0157.1172.0235.1641.0235h.1406c.0469-.0156.086-.0235.1172-.0235h.3984c.0625 0 .1172.0079.1641.0235.0625.0156.1172.0078.1641-.0235.0625.0469.1562.0703.2812.0703.1719.0313.2891.0469.3516.0469s.1328.0078.2109.0235zm12.0467 9.1406c.125.0312.258.039.399.0234l.468-.0468c.079 0 .157.0078.235.0234.078 0 .156-.0078.234-.0234.172-.0313.258-.0391.258-.0235h.07c.125-.0312.196-.0547.211-.0703.016-.0156.039-.0234.071-.0234.187-.0157.273-.0157.257 0h.047c.125-.0157.196-.0157.211 0h.07c.063-.0157.11-.0313.141-.0469.047-.0156.102-.0235.164-.0235.188.0313.305.0391.352.0235s.093-.0235.14-.0235l.258-.0468c.219-.0156.36-.0313.422-.0469l.328.0234c.281.0313.438.0547.469.0703.047.0313.078.0782.094.1407.031.0469.07.0859.117.1172.062.2187.109.4062.14.5625.032.125.047.2578.047.3984-.031.25-.047.4141-.047.4922v.1172c.016.0468.024.1015.024.164-.031.2032-.047.3282-.047.375.016.0313.023.0625.023.0938-.046.1562-.062.2734-.046.3516.015.0624.023.1171.023.164.016.125.016.2422 0 .3516-.016.0937-.023.1875-.023.2812.015.1875.015.3047 0 .3516v.1172.164c.015.0469.007.0938-.024.1407-.109.1562-.18.2421-.211.2578-.109.0469-.179.0781-.211.0937-.015.0156-.039.0235-.07.0235h-.328c-.188 0-.305-.0079-.352-.0235-.031 0-.062 0-.094 0-.124-.0156-.25-.0234-.374-.0234-.126 0-.258 0-.399 0-.125-.0156-.211-.0234-.258-.0234-.047.0156-.109.0156-.187 0-.141-.0157-.227-.0235-.258-.0235-.016.0156-.039.0235-.07.0235-.157 0-.297-.0079-.422-.0235-.125 0-.274-.0078-.446-.0234-.078-.0157-.156-.0235-.234-.0235s-.156-.0078-.234-.0234c-.125 0-.211 0-.258 0-.047-.0156-.086-.0234-.117-.0234-.078-.0313-.188-.0391-.328-.0235-.125.0157-.243.0157-.352 0-.25-.0156-.492-.0156-.727 0-.234 0-.484-.0078-.75-.0234-.078.0156-.132.0234-.164.0234-.031-.0156-.07-.0156-.117 0-.031-.0156-.094-.0156-.187 0-.094.0157-.157.0313-.188.0469-.047 0-.109 0-.187 0-.063.0156-.133.0156-.211 0-.032 0-.071 0-.117 0-.032-.0156-.079-.0156-.141 0-.188.0156-.32.0312-.398.0469-.063.0156-.133.0156-.211 0-.188-.0157-.313-.0157-.375 0-.047.0156-.094.0312-.141.0469h-.422l-.351.0234c-.047 0-.094 0-.141 0-.031.0156-.07.0234-.117.0234-.032 0-.071-.0078-.118-.0234-.046 0-.093 0-.14 0-.063 0-.11 0-.141 0-.031.0156-.078.0156-.14 0-.063-.0156-.118-.0313-.164-.0469-.047-.0156-.102-.0312-.165-.0469-.093-.1562-.148-.2656-.164-.3281-.015-.0625-.046-.1172-.093-.1641l-.117-.2812c-.126-.1406-.204-.2578-.235-.3516-.078-.1406-.125-.2343-.141-.2812-.015-.0625-.039-.1172-.07-.1641 0-.0781-.015-.1328-.047-.164-.031-.0469-.062-.0938-.093-.1407-.016-.1406-.024-.2109-.024-.2109 0-.0156-.008-.0313-.023-.0469l-.141-.375c-.031-.0781-.055-.1406-.07-.1875-.016-.0625-.055-.1093-.117-.1406.015-.1094.023-.1797.023-.2109.016-.0313.023-.0704.023-.1172.032-.1563.071-.2735.118-.3516.062-.0781.117-.1484.164-.2109.14-.1094.226-.1641.257-.1641.032-.0156.063-.0312.094-.0469.078-.0625.125-.0937.141-.0937.031-.0156.062-.0391.094-.0703.109-.0938.171-.1407.187-.1407.016-.0156.039-.039.07-.0703l.305-.2812c.109-.0781.172-.125.188-.1406.031-.0313.062-.0625.093-.0938l.282-.2344.211-.164c.109-.125.171-.1875.187-.1875.141-.1406.227-.2188.258-.2344.125-.1094.195-.1719.211-.1875.015-.0313.039-.0547.07-.0703.125-.0938.188-.1406.188-.1406 0-.0157.007-.0313.023-.0469.219-.2031.367-.3438.445-.4219.079-.0937.157-.1797.235-.2578.094-.0938.164-.1641.211-.2109.14-.125.218-.1875.234-.1875s.031-.0157.047-.0469c.156-.125.281-.2344.375-.3281.062-.0625.109-.0938.141-.0938.031-.0156.062-.0312.093-.0469l.211-.2109c.032-.0312.063-.0625.094-.0938.031-.0312.062-.0624.094-.0937.078-.0937.14-.1563.187-.1875.047-.0469.094-.0938.141-.1406.109-.125.18-.1953.211-.211.156-.1875.265-.3046.328-.3515.062-.0625.125-.1328.187-.211.079-.0781.149-.164.211-.2578.079-.0937.157-.1875.235-.2812.094-.0781.179-.1641.258-.2578.078-.125.132-.1953.164-.211.031-.0156.031-.039 0-.0703.078-.0312.132-.0781.164-.1406.047-.0625.093-.125.14-.1875.016-.0469.039-.0938.071-.1406.031-.0469.062-.0938.093-.1407.032-.0468.055-.1015.071-.164.015-.0625.054-.1094.117-.1406 0-.0782.008-.1485.023-.211.032-.0625.063-.1328.094-.2109.031-.0938.047-.1641.047-.211 0-.0625 0-.1093 0-.1406 0-.2031-.008-.3203-.024-.3515 0-.0469 0-.0938 0-.1407 0-.1406-.007-.2109-.023-.2109 0-.0156 0-.0313 0-.0469-.031-.0625-.047-.1172-.047-.1641 0-.0468-.015-.0937-.047-.1406-.031-.0312-.086-.0781-.164-.1406-.062-.0781-.117-.1328-.164-.1641-.109-.0468-.195-.0703-.258-.0703-.093-.0312-.156-.039-.187-.0234-.031 0-.063 0-.094 0-.047 0-.094 0-.14 0-.047-.0156-.102-.0156-.165 0-.109.0312-.187.0547-.234.0703s-.086.0234-.117.0234c-.078 0-.172.0391-.281.1172-.188.125-.297.211-.329.2578-.031.0469-.07.0782-.117.0938-.062.0937-.117.1641-.164.2109-.047.0625-.086.1172-.117.1641-.016.0312-.031.0625-.047.0937-.078.1563-.125.25-.14.2813-.016.0156-.032.0391-.047.0703-.047.1719-.094.2812-.141.3281-.031.0469-.055.1094-.07.1875-.016.0625-.039.1172-.071.1641-.046.0469-.093.1094-.14.1875-.031.0781-.063.1562-.094.2344-.078.1406-.117.2265-.117.2578-.141.125-.242.2109-.305.2578-.25 0-.43-.0156-.539-.0469-.094-.0312-.156-.1015-.187-.2109-.141-.0782-.25-.1328-.328-.1641-.157-.0625-.25-.1015-.282-.1172-.031-.0156-.062-.0312-.094-.0469-.062-.0312-.124-.0546-.187-.0703-.047-.0312-.086-.0781-.117-.1406-.078.0156-.125.0078-.141-.0234-.015-.0469-.055-.0781-.117-.0938-.078-.0625-.156-.1406-.234-.2343-.063-.0938-.157-.1719-.282-.2344-.078-.0625-.125-.0938-.14-.0938-.016-.0156-.039-.039-.071-.0703-.062-.0469-.109-.0781-.14-.0937-.031-.0313-.063-.0625-.094-.0938-.141-.0781-.234-.1406-.281-.1875-.078-.0781-.149-.1328-.211-.1641-.172-.1562-.266-.2421-.281-.2578-.078-.125-.125-.1875-.141-.1875-.016-.0156-.023-.0312-.023-.0468-.032-.0782-.055-.1407-.071-.1875 0-.0625.008-.1094.024-.1407.078-.1875.125-.3203.14-.3984.063-.1563.094-.2422.094-.2578 0-.0313.008-.0547.023-.0703.079-.1094.118-.1719.118-.1875 0-.0313.008-.0625.023-.0938.078-.0937.125-.1562.141-.1875.031-.0468.054-.0859.07-.1172.094-.1406.141-.2187.141-.2343.015-.0313.039-.0625.07-.0938.094-.1562.156-.2422.187-.2578.047-.1094.079-.1641.094-.1641.032-.0156.039-.039.024-.0703.093-.1093.148-.164.164-.164.031-.0157.054-.0391.07-.0703.031-.0313.063-.0626.094-.0938.047-.0469.101-.0781.164-.0938.031-.0624.07-.1015.117-.1171.047-.0157.086-.0469.117-.0938.032-.0312.063-.0625.094-.0937.047-.0313.086-.0704.117-.1172.047-.0156.086-.0313.117-.0469.032-.0156.071-.0391.118-.0703.109-.125.21-.2031.304-.2344.141-.1094.227-.1719.258-.1875s.078-.0312.141-.0469c.156-.1093.25-.164.281-.164.047 0 .086-.0156.117-.0469.109-.0625.18-.0937.211-.0937.047 0 .094-.0157.141-.0469.14-.0625.226-.1016.257-.1172.032-.0156.063-.0313.094-.0469.047-.0156.086-.0156.117 0 .047 0 .094-.0078.141-.0234.031-.0156.063-.0313.094-.0469.047-.0156.101-.0234.164-.0234.156 0 .289-.0235.398-.0703.11-.0469.227-.0782.352-.0938.094.0156.156.0156.187 0 .047-.0156.086-.0234.118-.0234h.328c.031-.0157.062-.0391.093-.0704.11.0469.227.0547.352.0235l.281-.0235.258.0469h.328c.063-.0156.117-.0156.164 0 .031 0 .071.0157.117.0469.047.0156.094.0312.141.0469.156.0156.25.0469.281.0937.188.0469.305.086.352.1172.047.0313.101.0313.164 0 .047.0625.102.1016.164.1172.062 0 .117.0156.164.0469l.258.1875c.156.0468.234.0781.234.0937h.024c.156.0938.25.1407.281.1407.141.1093.227.1796.258.2109.093.0781.164.1328.211.1641.109.0624.179.1171.211.164.047.0469.093.0938.14.1406.031.0313.071.0625.117.0938.047.0156.086.039.118.0703.062.0469.109.0937.14.1406.032.0313.063.0547.094.0703.062.1407.141.25.234.3282.047.0937.078.1484.094.164.031 0 .063.0156.094.0469.016.0625.07.1563.164.2813.062.0781.117.1718.164.2812.047.0938.094.1953.141.3047.062.125.117.2109.164.2578.031.1563.062.2734.093.3516.063.2031.094.3359.094.3984s.008.1328.024.2109c.046.2032.078.3282.093.375.016.0313.016.0704 0 .1172.079.125.102.2813.071.4688-.032.1875-.024.3437.023.4687-.031.125-.055.25-.07.375 0 .1094-.024.2031-.071.2813 0 .1406-.007.2344-.023.2812-.016.0469-.031.0938-.047.1406-.031.1563-.047.25-.047.2813-.078.125-.125.2031-.14.2344 0 .0156-.008.0312-.024.0469l-.164.2343c0 .0938-.015.1641-.047.211-.031.0468-.062.1093-.093.1875-.141.0781-.211.125-.211.1406 0 0-.008.0078-.024.0234-.062.0625-.101.1094-.117.1406 0 .0157-.016.0391-.047.0704-.094.125-.156.1953-.187.2109-.016 0-.032.0156-.047.0469-.11.1562-.18.2656-.211.3281-.125.125-.195.1953-.211.2109 0 0-.008 0-.024 0-.109.125-.203.2266-.281.3047-.125.1407-.187.211-.187.211.015 0 .015.0078 0 .0234-.125.1094-.211.1875-.258.2344-.094.0937-.156.164-.188.2109-.031.0469-.078.086-.14.1172-.141.125-.227.2031-.258.2344-.016.0156-.039.039-.07.0703-.141.125-.219.2031-.235.2344-.015.0312-.039.0547-.07.0703-.094.1562-.149.2344-.164.2344-.016 0-.031.0078-.047.0234-.062.0937-.141.1719-.234.2344-.047.0468-.086.0859-.118.1172-.031.0312-.062.0624-.093.0937-.078.0781-.141.1406-.188.1875s-.086.1016-.117.1641c-.031.0312-.062.0703-.094.1171-.015.0313-.047.0547-.094.0704l-.164.2109c-.078.0469-.132.0937-.164.1406-.031.0313-.062.0625-.093.0938-.125.125-.196.1875-.211.1875-.016.0468-.047.0937-.094.1406-.031.0312-.063.0703-.094.1172zm17.016-4.5234c.187.1093.304.164.351.164.063-.0156.118-.0156.164 0 .188.0469.336.086.446.1172.031.0156.07.0391.117.0703.062.0313.125.0625.187.0938.172.125.313.2031.422.2343.032.0469.063.0782.094.0938.047.0156.086.039.117.0703.156.0937.242.1484.258.1641.016 0 .031.0078.047.0234.031.0312.062.0625.094.0938.047.0156.086.039.117.0703.078.0781.117.1328.117.164.016.0313.039.0625.07.0938.141.1406.235.2187.282.2343.109.2032.179.3516.211.4454.046.0781.086.164.117.2578.062.125.093.1953.093.2109s.008.0391.024.0703c.016.0469.031.0938.047.1406.031.0313.055.0704.07.1172 0 .125.008.2032.024.2344.015.0156.023.0391.023.0703.016.1094.016.211 0 .3047 0 .0938.008.1797.023.2578.016.0782.032.1485.047.211.016.0468.032.1172.047.2109-.015.125-.023.2109-.023.2578s-.016.0938-.047.1406c.031.0782.039.1797.023.3047l-.117.2813c-.078.1875-.109.2812-.094.2812.016 0 .016.0157 0 .0469-.031.0312-.047.0781-.047.1406 0 .0469-.023.0782-.07.0938 0 .0937-.023.164-.07.2109-.031.0469-.047.1172-.047.2109-.078.0626-.133.1407-.164.2344-.031.0938-.086.1719-.164.2344-.047.1094-.086.1797-.117.2109-.016.0157-.039.0391-.071.0703-.125.1407-.234.2422-.328.3047-.047.0469-.101.1016-.164.1641-.047.0625-.101.1172-.164.1641-.141.0781-.219.125-.234.1406-.016.0156-.039.0234-.071.0234-.093.1094-.164.1719-.21.1875-.032 0-.063.0156-.094.0469-.11.0625-.188.1328-.235.2109-.156.0938-.257.1407-.304.1407s-.102.0156-.164.0468c-.11.0782-.196.1172-.258.1172-.125.0938-.195.1407-.211.1407 0-.0157-.008-.0157-.024 0-.109.0624-.179.1015-.21.1171-.016 0-.047.0079-.094.0235-.156.0468-.242.0781-.258.0937 0 0-.008 0-.024 0-.14.0469-.234.0781-.281.0938-.047.0312-.101.0547-.164.0703-.062.0156-.125.0234-.187.0234-.047 0-.086.0156-.118.0469-.14.0156-.234.0234-.281.0234-.031 0-.078.0079-.14.0235-.203.0468-.344.0703-.422.0703s-.157.0234-.235.0703c-.078-.0156-.164-.0156-.257 0-.079.0156-.157.0234-.235.0234l-.445-.0234c-.047 0-.094 0-.141 0-.047.0156-.094.0234-.14.0234-.063 0-.125-.0078-.188-.0234-.062-.0156-.125-.0234-.187-.0234-.125-.0157-.196-.0235-.211-.0235 0 .0157-.016.0235-.047.0235-.203 0-.375-.0235-.516-.0704-.14-.0312-.258-.0312-.351 0-.157-.0624-.25-.0937-.282-.0937-.156-.0313-.242-.0547-.257-.0703 0-.0156-.016-.0234-.047-.0234l-.305-.0938c-.141-.0469-.234-.0781-.281-.0938-.047-.0312-.094-.039-.141-.0234-.031-.0469-.078-.0781-.141-.0937-.062-.0313-.124-.0625-.187-.0938-.172-.0781-.289-.125-.352-.1406-.046-.0313-.085-.0781-.117-.1406-.109-.0469-.179-.0703-.211-.0703-.031 0-.054-.0079-.07-.0235-.109-.0937-.18-.1484-.211-.1641-.172-.125-.273-.2031-.305-.2343-.031-.0469-.062-.086-.093-.1172-.063 0-.11-.0156-.141-.0469-.031-.0312-.063-.0625-.094-.0937-.093-.125-.156-.1875-.187-.1875-.11-.0782-.18-.1328-.211-.1641-.031-.0156-.063-.0391-.094-.0703-.031-.0469-.062-.086-.094-.1172-.125-.125-.187-.2031-.187-.2344 0-.0312-.016-.0625-.047-.0937-.172-.1407-.258-.2266-.258-.2578-.062-.0938-.109-.1485-.141-.1641-.015-.0312-.031-.0625-.046-.0938-.094-.1562-.149-.2578-.164-.3046 0-.0625-.016-.1172-.047-.1641-.016-.0313-.039-.0703-.071-.1172-.015-.0469-.031-.0937-.046-.1406-.016-.1563-.032-.25-.047-.2813-.016-.0312-.032-.0625-.047-.0937-.016-.2344-.032-.4063-.047-.5156-.016-.1094-.016-.2266 0-.3516.015-.1719.023-.2734.023-.3047.016-.0469.024-.0859.024-.1172 0-.1718.015-.2734.047-.3047.047-.2812.117-.4687.211-.5625.031-.1093.046-.1796.046-.2109.016-.0469.047-.0703.094-.0703.016-.0781.016-.1328 0-.1641 0-.0312.008-.0625.024-.0937.062-.0782.093-.1328.093-.1641.016-.0469.032-.0859.047-.1172.141-.1406.227-.2265.258-.2578.031-.0312.063-.0625.094-.0937l.187-.2344c.11-.1406.188-.2266.235-.2578.062-.0469.125-.1016.187-.1641.156-.1094.235-.1719.235-.1875.015-.0156.031-.0312.046-.0469.094-.0781.149-.125.164-.1406.032-.0312.071-.0547.118-.0703.109-.0938.187-.1641.234-.2109.125-.0938.203-.1485.234-.1641.047-.0312.086-.0547.118-.0703.046-.0781.109-.125.187-.1406.094-.0313.172-.0782.235-.1407-.032-.0312-.079-.039-.141-.0234-.047 0-.086-.0156-.117-.0469-.047-.0156-.094-.039-.141-.0703-.031-.0312-.062-.0625-.094-.0937-.187-.0782-.304-.1172-.351-.1172-.047-.0157-.094-.0391-.141-.0703-.109-.1094-.18-.1641-.211-.1641-.094-.0625-.156-.1016-.187-.1172-.016-.0156-.039-.0391-.071-.0703-.156-.125-.242-.1875-.257-.1875-.032-.0625-.094-.1406-.188-.2344-.031-.0469-.07-.0781-.117-.0937-.031-.0313-.063-.0625-.094-.0938-.125-.1562-.203-.2656-.234-.3281-.032-.0313-.063-.0781-.094-.1406-.016-.0625-.055-.1094-.117-.1407-.063-.1562-.094-.25-.094-.2812 0-.0469-.023-.0781-.07-.0938.031-.0468.015-.0937-.047-.1406-.047-.0468-.07-.1015-.07-.164-.11-.1719-.164-.2813-.164-.3282.015-.0625.023-.1172.023-.164-.016-.0782-.039-.1563-.07-.2344-.032-.0781-.055-.1641-.071-.2578-.015-.125-.031-.211-.047-.2578 0-.0469 0-.1094 0-.1875 0-.0625.008-.1172.024-.1641.031-.0469.039-.1094.023-.1875.047-.1094.078-.1875.094-.2344.016-.0468.031-.0937.047-.1406.016-.0625.023-.1172.023-.1641 0-.0468.008-.0937.024-.1406.062-.1718.101-.2812.117-.3281.031-.0469.055-.1094.07-.1875.078-.125.149-.2031.211-.2344.141-.2031.258-.3672.352-.4922.062-.1093.125-.1953.187-.2578.063-.0625.133-.1328.211-.2109.11-.0938.18-.1485.211-.1641s.063-.0312.094-.0468c.047-.0313.086-.0626.117-.0938.031-.0469.07-.0859.117-.1172.172-.0781.289-.1719.352-.2812.062 0 .101-.0157.117-.0469.031-.0469.063-.0859.094-.1172.156-.0781.242-.1172.258-.1172.109-.0625.179-.0937.211-.0937.031-.0157.046-.0391.046-.0704.141-.0468.227-.0703.258-.0703.031-.0312.071-.0547.117-.0703.063-.0312.11-.0625.141-.0937.156-.0313.273-.0469.352-.0469.312-.125.586-.1953.82-.2109.078-.0157.148-.0313.211-.0469.078-.0156.164-.0078.258.0234.078-.0781.14-.125.187-.1406.063-.0312.125-.0312.188 0l.422-.0469c.156-.0312.265-.039.328-.0234.062.0156.117.0234.164.0234.031 0 .062-.0078.093-.0234.047-.0156.102-.0235.165-.0235.062 0 .171.0157.328.0469.109 0 .203.0235.281.0703.094-.0312.203-.0312.328 0 .141.0157.274.0313.398.0469.079.0156.157.0235.235.0235.094 0 .18.0156.258.0468l.281.0938c.031.0156.062.0312.094.0468.047.0157.093.0391.14.0704.11.0625.188.0937.235.0937s.086.0156.117.0469c.14 0 .211.0156.211.0469.015.0156.039.0234.07.0234.078.0313.141.0625.188.0937.062.0157.125.0391.187.0704.172.0937.274.164.305.2109.047.0313.109.0313.187 0 .157.0937.242.1406.258.1406.031-.0156.063-.0156.094 0 .125.1407.187.2188.187.2344.188.0781.297.1172.329.1172.14.125.218.1953.234.2109.031.0156.062.0235.094.0235.015.0468.039.0859.07.1171.047.0157.086.0391.117.0704.109.0781.18.1328.211.164.031.0313.063.086.094.1641.062.0156.117.0547.164.1172s.101.125.164.1875c.109.0781.164.1328.164.164 0 .0157.016.0391.047.0704.062.0937.101.1718.117.2343.031.0469.055.086.07.1172.063.1719.094.2578.094.2578l.117.2344c.032.1406.047.2187.047.2344.016 0 .031.0156.047.0469.016.0624.023.1171.023.164s.016.0938.047.1406c0 .0625.008.1172.024.1641.015.0469.023.0937.023.1406-.031.1719-.047.2735-.047.3047.016.0156.024.0391.024.0703 0 .0781-.016.1641-.047.2578-.016.0782-.008.1563.023.2344-.031.1563-.062.2813-.093.375-.047.125-.086.2109-.118.2578-.015.0313-.031.0625-.046.0938-.032.0937-.055.1562-.071.1875-.015.0312-.023.0703-.023.1172-.11.1406-.172.2265-.188.2578 0 .0156-.008.039-.023.0703-.063.0937-.109.1484-.141.1641-.015.0156-.031.0312-.047.0468-.125.125-.218.2266-.281.3047-.062.0781-.125.1485-.187.2109-.079.0938-.133.1719-.164.2344-.032.0313-.079.0625-.141.0938-.047.0312-.086.0781-.117.1406-.063 0-.11.0234-.141.0703-.031.0313-.07.0625-.117.0938l-.328.2109c-.063.0312-.156.0938-.281.1875-.032.0156-.079.0234-.141.0234-.047 0-.086.0079-.117.0235-.063.0156-.117.039-.164.0703-.047.0156-.094.0391-.141.0703-.109.0625-.18.0938-.211.0938-.016-.0157-.039-.0157-.07 0zm-2.625-5.0626c-.125-.0312-.242-.0468-.352-.0468-.156.0312-.265.0468-.328.0468-.062-.0156-.117-.0234-.164-.0234-.078 0-.164.0078-.258.0234-.093 0-.187.0079-.281.0235-.172.0469-.289.0781-.352.0937-.046 0-.093.0157-.14.0469-.125.0625-.203.1094-.235.1406-.031.0157-.062.0313-.093.0469-.125.1406-.219.2422-.282.3047-.062.0625-.117.1172-.164.1641-.125.1718-.195.2734-.211.3046-.031.0938-.046.2032-.046.3282-.016.1562-.024.289-.024.3984 0 .0938.024.1875.07.2813.125.125.196.1953.211.2109.094.0938.164.1719.211.2344.063.0156.11.039.141.0703.047.0312.094.0625.141.0937.203.0938.335.1485.398.1641l.258.1172c.187.0469.305.0703.351.0703h.164c.079.0312.172.0469.282.0469.109 0 .195.0156.258.0469.062-.0313.109-.0469.14-.0469.047-.0157.11-.0391.188-.0703.156-.1094.25-.1719.281-.1875.125-.0313.211-.0703.258-.1172.14-.0938.226-.1407.257-.1407.126-.0937.188-.1484.188-.164s.016-.0234.047-.0234c.031-.0469.094-.1172.187-.211.157-.0937.227-.1406.211-.1406 0-.0156.008-.0234.024-.0234.062-.1876.093-.2813.093-.2813.016 0 .024-.0078.024-.0234.078-.1094.102-.2344.07-.375 0-.1719-.015-.2813-.047-.3282-.015-.0468-.023-.0937-.023-.1406-.047-.0469-.102-.0937-.164-.1406-.047-.0469-.086-.0859-.117-.1172-.125-.1094-.196-.1719-.211-.1875 0-.0312-.008-.0547-.024-.0703-.156-.0625-.25-.1094-.281-.1406-.062-.0313-.117-.0547-.164-.0703-.047-.0157-.094-.0391-.141-.0704-.062-.0156-.117-.0312-.164-.0468-.047-.0313-.109-.0547-.187-.0704zm-.68 6.5626-.328.0703c-.047.0312-.094.0625-.141.0937-.031.0313-.062.0547-.093.0703-.11.0625-.172.1016-.188.1172-.015 0-.031.0078-.047.0235-.094.0624-.156.1015-.187.1171-.016 0-.039.0079-.071.0235-.14.1562-.226.2422-.257.2578-.016 0-.032.0156-.047.0469-.047.1093-.11.2031-.188.2812-.125.125-.187.1953-.187.2109.015.0157.015.0313 0 .0469-.047.1407-.086.2344-.117.2813-.016.0312-.04.0625-.071.0937-.031.0938-.047.1953-.047.3047.016.0938.024.1797.024.2578-.016.1094-.024.1875-.024.2344.016.0312.024.0625.024.0938.078.1718.117.2734.117.3046 0 .0313.008.0625.023.0938.079.1406.125.2109.141.2109.031 0 .039.0157.023.0469l.282.2812c.062.0157.117.0391.164.0704.062.0156.133.039.211.0703.125.0312.265.0703.422.1172.171.0312.336.0547.492.0703.047 0 .094.0078.14.0234.063.0156.118.0234.165.0234.218-.0312.343-.0546.374-.0703.079-.0156.133-.0312.165-.0468.046-.0157.093-.0391.14-.0703.188-.0782.289-.1172.305-.1172.031 0 .062-.0078.094-.0235.172-.125.265-.1875.281-.1875.015-.0156.031-.039.047-.0703.125-.125.195-.1875.211-.1875l.187-.2109c.078-.0938.125-.1407.141-.1407.015-.0156.031-.039.047-.0703.093-.2343.164-.375.211-.4218-.016-.0625-.024-.1329-.024-.211.016-.0781.024-.164.024-.2578-.063-.125-.102-.2109-.118-.2578-.093-.2031-.164-.3125-.211-.3281-.14-.1719-.226-.2969-.257-.375-.125-.125-.203-.211-.235-.2578-.078-.0313-.164-.0704-.258-.1172-.078-.0469-.156-.0938-.234-.1406-.062-.0313-.125-.0626-.187-.0938-.047-.0469-.102-.0859-.164-.1172-.172-.0469-.274-.0781-.305-.0937-.125-.0469-.227-.0782-.305-.0938-.062-.0156-.109-.0078-.14.0235zm17.672-4.7344c.141.0937.211.1484.211.164.109.0625.172.1094.187.1407.032.0156.047.039.047.0703-.015.1406-.015.25 0 .3281.016.0625.008.1094-.023.1406-.047.1407-.07.2344-.07.2813.015.0312.015.0625 0 .0937 0 .0625-.008.1172-.024.1641v.164.2813.1406c.016.0313.024.0781.024.1407.031.1406.039.2343.023.2812 0 .0469.016.0938.047.1406-.031.0782-.047.1641-.047.2578 0 .0782-.023.1485-.07.211-.11.0625-.172.0781-.188.0468 0-.0312-.023-.039-.07-.0234-.11.0313-.219.0391-.328.0234-.094-.0156-.211-.0234-.352-.0234-.156 0-.273 0-.351 0-.063-.0156-.125-.0234-.188-.0234l-.75-.0235c-.172 0-.258 0-.258 0-.109 0-.226.0079-.351.0235-.11 0-.219 0-.328 0-.141-.0156-.235-.0156-.282 0-.031 0-.062 0-.093 0-.079 0-.149.0078-.211.0234-.063 0-.125 0-.188 0-.109-.0156-.211-.0156-.304 0-.079.0156-.149.0156-.211 0l-.399.0234c-.016.0157-.055.0235-.117.0235-.047 0-.102 0-.164 0-.094.0156-.195.0234-.305.0234-.203.0157-.344.0235-.422.0235-.062-.0157-.132-.0235-.211-.0235-.14 0-.226 0-.257 0-.032-.0156-.063-.0234-.094-.0234-.172-.0156-.274-.0235-.305-.0235-.031-.0156-.086-.0156-.164 0-.156-.0156-.281-.0234-.375-.0234s-.18 0-.258 0c-.062 0-.125.0078-.187.0234-.047 0-.11 0-.188 0-.109.0313-.211.0469-.304.0469-.079 0-.157 0-.235 0-.14 0-.226.0078-.258.0235-.015 0-.039-.0078-.07-.0235-.234-.0625-.367-.1015-.398-.1172-.094-.0937-.141-.1484-.141-.164 0-.0313-.008-.0625-.023-.0938-.063-.1719-.11-.2734-.141-.3047-.016-.0312-.023-.0625-.023-.0937-.032-.0781-.04-.1563-.024-.2344.016-.0937.024-.1875.024-.2812 0-.1719-.008-.336-.024-.4922 0-.1563.008-.3125.024-.4688.031-.0937.046-.1797.046-.2578-.015-.1406-.007-.2265.024-.2578.062-.1094.101-.1719.117-.1875.031-.0156.07-.0391.117-.0703.156-.0469.242-.0703.258-.0703.031-.0156.055-.0235.07-.0235.141-.0156.242 0 .305.0469.156 0 .305-.0078.445-.0234.157-.0313.313-.0391.469-.0235.047 0 .094.0079.141.0235h.187c.125.0156.211.0234.258.0234.047-.0156.086-.0234.117-.0234.172-.0156.258-.0156.258 0h.07c.282.0156.485.0156.61 0 .125-.0313.234-.0156.328.0468.187-.0156.297-.0234.328-.0234s.062.0156.094.0469c.156 0 .242.0078.258.0234h.046c.188.0157.297.0235.328.0235.047-.0157.102-.0157.165 0 .078 0 .132.0078.164.0234h.093.258.164c.047-.0156.086-.0234.117-.0234.188.0156.305.0234.352.0234.047-.0156.094-.0234.141-.0234h.468c.094-.0157.196-.0235.305-.0235h.188c.078-.0156.14-.0234.187-.0234.078-.0156.156-.0156.234 0 .079.0156.157.0156.235 0 .172-.0156.289-.0313.351-.0469.078-.0156.149-.0234.211-.0234.032.0156.071.0234.117.0234.063 0 .11.0078.141.0234.125 0 .195.0079.211.0235h.047zm.492 5.3203-.047.2812v.3282c0 .1093.008.1875.024.2343.031.0313.054.0625.07.0938-.016.0625-.023.1172-.023.164 0 .0313.007.0704.023.1172-.016.2032-.031.336-.047.3985 0 .0469-.015.1093-.047.1875-.078 0-.156.0078-.234.0234s-.156.0234-.234.0234c-.047 0-.094-.0078-.141-.0234s-.094-.0234-.141-.0234-.093 0-.14 0-.11-.0078-.188-.0235c-.047 0-.094 0-.14 0-.047-.0156-.094-.0234-.141-.0234-.078 0-.156.0156-.234.0469-.063.0156-.133.0234-.211.0234s-.18-.0156-.305-.0469c-.141-.0156-.281-.0156-.422 0-.125.0157-.25.0313-.375.0469-.156.0313-.336.0469-.539.0469-.203-.0156-.398-.0156-.586 0-.078 0-.148.0078-.211.0234-.062 0-.133.0078-.211.0235-.078 0-.156.0078-.234.0234-.063 0-.133 0-.211 0-.078-.0156-.149-.0312-.211-.0469-.063-.0156-.133-.0234-.211-.0234-.125-.0156-.242-.0156-.352 0-.078 0-.164.0078-.257.0234-.079.0157-.157.0157-.235 0-.156-.0469-.242-.0703-.258-.0703-.187.0625-.304.0938-.351.0938-.047-.0157-.086-.0235-.117-.0235-.078 0-.149.0078-.211.0235-.047.0156-.094.0234-.141.0234-.078.0156-.156.0156-.234 0-.063-.0156-.133-.0234-.211-.0234-.11 0-.203 0-.281 0-.063 0-.125 0-.188 0l-.492-.0469c-.141.0312-.242.0391-.305.0234l-.469-.1875c-.093-.125-.14-.2031-.14-.2344-.047-.0781-.07-.1406-.07-.1874.015-.0469.015-.086 0-.1172l-.024-.4219c-.016-.1094-.031-.2188-.047-.3281 0-.125 0-.2422 0-.3516-.015-.1719-.015-.2969 0-.375-.031-.125-.031-.2344 0-.3281l.071-.2578c.031-.0938.054-.1485.07-.1641.031-.0156.054-.0391.07-.0703.188-.0313.289-.0547.305-.0703.015-.0156.039-.0313.07-.0469.063-.0156.133-.0156.211 0s.133.0234.164.0234c.141-.0312.227-.039.258-.0234h.094c.234.0156.437.0234.609.0234.109.0157.211.0235.305.0235.109-.0156.211-.0156.304 0 .172.0312.266.039.282.0234.015-.0156.039-.0234.07-.0234.047 0 .102.0078.164.0234h.164.117c.047-.0156.094-.0234.141-.0234h.281c.11 0 .188.0078.235.0234h.187c.125-.0156.195-.0156.211 0 .031 0 .055-.0156.07-.0469.063.0313.125.0469.188.0469.062 0 .117.0078.164.0234h.375c.078 0 .156.0079.234.0235.078 0 .157.0078.235.0234h.492.703.562c.172-.0156.297-.0234.375-.0234.079-.0156.141-.0235.188-.0235.078-.0156.156-.0234.234-.0234h.258c.156-.0156.281-.0234.375-.0234h.305c.047 0 .094.0078.14.0234h.118c.172.0625.257.0938.257.0938.016 0 .032.0078.047.0234.078.1406.118.2188.118.2344.015.0156.023.0312.023.0468-.031.0938-.047.1563-.047.1876.016.0312.024.0624.024.0937-.047.1719-.079.2734-.094.3047-.016.0312-.024.0625-.024.0937zm9.961-9.8438c.063.1407.156.2344.281.2813.125.1406.203.2344.235.2812.047.0469.094.0938.14.1407.11.0781.164.125.164.1406.016.0156.024.0312.024.0469.125.125.203.2031.234.2343.078.1407.133.2266.164.2579.047.0312.071.0859.071.164.156.1719.242.2734.257.3047.11.1563.164.25.164.2813.016.0312.032.0624.047.0937.032.0469.047.1016.047.1641 0 .0468.016.1015.047.164.047.125.078.1953.094.211.015 0 .031.0156.047.0468.047.125.07.2032.07.2344.016.0156.039.0391.07.0703 0 .0781.016.1797.047.3047.016.1875.031.3047.047.3516.016.0312.024.0703.024.1172 0 .2187.031.3593.093.4218-.031.0782-.039.1563-.023.2344.016.0625.031.1406.047.2344.015.1406.008.2578-.024.3516-.031.0937-.047.1718-.047.2343s-.007.1172-.023.1641c-.016.0625-.031.1172-.047.164-.016.0469-.031.1016-.047.1641-.031.0625-.047.125-.047.1875 0 .0469-.007.1094-.023.1875l-.188.5156c-.031.0625-.062.125-.093.1875-.016.0625-.039.125-.071.1875-.093.1563-.156.2579-.187.3047-.031.0469-.063.0938-.094.1406-.125.1719-.203.2657-.234.2813-.016 0-.032.0156-.047.0469-.156.2187-.258.3437-.305.375l-.258.164c-.109.1094-.187.1875-.234.2344s-.102.1016-.164.1641c-.172.1093-.289.2343-.352.375-.062.0156-.156.0547-.281.1172-.109.0625-.172.1015-.187.1171-.016.0157-.039.0313-.071.0469-.093.0313-.156.0469-.187.0469-.016 0-.039.0078-.07.0234-.032.0157-.079.0391-.141.0704-.063.0312-.109.0703-.141.1171.016.1407.016.2188 0 .2344v.0703c.016.1563.024.2656.024.3282-.047.125-.071.2343-.071.3281.016.0937.032.1875.047.2812 0 .125-.008.2344-.023.3281 0 .0782.008.1876.023.3282.016.0312.024.0859.024.164v.1875c-.032.0313-.071.0703-.118.1172-.031.0469-.07.086-.117.1172-.156.0313-.25.0547-.281.0703-.016.0156-.039.0235-.07.0235-.188-.0157-.321-.0157-.399 0-.078 0-.156 0-.234 0l-.492-.0235c-.078 0-.141.0078-.188.0235-.047 0-.101-.0157-.164-.0469-.062.0312-.172.0312-.328 0-.031 0-.078.0078-.141.0234-.046 0-.086 0-.117 0-.093.0156-.211.0235-.351.0235-.141 0-.274.0078-.399.0234-.093 0-.195 0-.304 0-.094-.0156-.18-.0156-.258 0-.047 0-.094.0078-.141.0234-.047.0157-.109.0079-.187-.0234-.11-.0313-.196-.0469-.258-.0469-.047 0-.078 0-.094 0-.016-.0625-.031-.1094-.047-.1406-.015-.0312-.039-.0625-.07-.0938-.047-.1718-.07-.2578-.07-.2578 0-.1718-.008-.2812-.024-.3281 0-.0625 0-.1484 0-.2578.016-.25.008-.4141-.023-.4922v-.5156c-.016-.1406-.024-.2266-.024-.2578.016-.0313.024-.0625.024-.0938.015-.0625.023-.125.023-.1875s0-.125 0-.1875c-.031-.1562-.047-.25-.047-.2812.016-.0313.024-.0703.024-.1172 0-.0313 0-.0781 0-.1406.015-.0782.023-.1329.023-.1641 0-.1094 0-.1953 0-.2578.016-.0625.008-.125-.023-.1875.047-.1875.054-.3203.023-.3985-.016-.0937-.008-.1796.024-.2578.078-.1093.117-.1875.117-.2343.047-.1094.078-.1719.093-.1875.016-.0157.016-.0391 0-.0704.063-.0312.102-.0624.118-.0937.031-.0469.062-.0859.093-.1172.157-.0937.274-.1484.352-.1641.078-.0312.164-.0703.258-.1171.203-.0625.328-.1016.375-.1172.047-.0157.101-.0313.164-.0469.047-.0156.086-.0234.117-.0234.047 0 .094-.0078.141-.0235.156-.0625.234-.1015.234-.1172.078.0157.188 0 .328-.0468.094-.0625.149-.0938.164-.0938.016-.0156.039-.0234.071-.0234.125-.0781.203-.1328.234-.1641.031-.0312.062-.0547.094-.0703.047-.0313.086-.0625.117-.0937.172-.1563.305-.2813.398-.375.063-.1094.094-.1797.094-.211.016-.0312.031-.0625.047-.0937l.047-.2579c.047-.1562.054-.2968.023-.4218-.015-.1406-.039-.25-.07-.3282-.078-.1406-.117-.2109-.117-.2109 0-.0156-.008-.0234-.024-.0234-.078-.0938-.132-.1407-.164-.1407-.031 0-.054-.0156-.07-.0468-.063-.0156-.172-.0547-.328-.1172-.063-.0313-.149-.0469-.258-.0469-.125.0156-.203.0235-.234.0235-.032-.0157-.078-.0235-.141-.0235-.031.0156-.07.0313-.117.0469-.031.0156-.078.0312-.141.0469-.219.0937-.351.164-.398.2109-.047.0312-.102.0625-.164.0938-.078.1093-.133.1796-.164.2109-.032.0156-.055.0391-.071.0703-.047.0469-.086.0938-.117.1406-.031.0313-.062.0625-.094.0938-.015.0781-.047.1406-.093.1875-.047.0469-.071.1172-.071.2109l-.234.1406c-.109.0938-.203.1407-.281.1407-.078-.0157-.149-.0157-.211 0-.125-.0625-.188-.1016-.188-.1172 0-.0157-.015-.0235-.047-.0235-.109-.0937-.179-.1406-.211-.1406-.031 0-.062-.0156-.093-.0469-.11-.0312-.18-.0547-.211-.0703-.031-.0312-.071-.0625-.117-.0937-.172-.0313-.258-.0547-.258-.0703-.125-.0782-.203-.1328-.235-.1641-.156-.0625-.257-.1016-.304-.1172-.032-.0312-.063-.0547-.094-.0703-.172-.0625-.289-.1094-.352-.1406-.047-.0313-.101-.0625-.164-.0938-.156-.0781-.297-.164-.422-.2578-.031-.0156-.078-.0312-.14-.0469-.047-.0156-.086-.039-.117-.0703-.188-.0468-.344-.1328-.469-.2578.062-.1406.086-.2187.07-.2344-.015-.0156-.023-.039-.023-.0703l.07-.2812c.078-.1719.141-.2813.188-.3281.062-.0469.101-.1094.117-.1876.078-.0937.117-.1562.117-.1874 0-.0313.008-.0626.023-.0938.094-.1094.149-.1797.164-.2109.016-.0469.032-.0938.047-.1407.078-.0937.118-.1562.118-.1875 0-.0312.007-.0547.023-.0703.109-.125.172-.2031.187-.2344.032-.0468.063-.0859.094-.1171.047-.125.086-.2032.117-.2344.032-.0313.063-.0625.094-.0938.047-.0312.07-.0781.07-.1406.047-.0156.079-.0391.094-.0703.031-.0469.063-.0859.094-.1172.141-.1406.227-.2266.258-.2578s.062-.0625.093-.0938c.172-.1562.297-.25.376-.2812.093-.0938.218-.1719.374-.2344.157-.0625.243-.1015.258-.1172.032-.0312.063-.0546.094-.0703.141-.0312.258-.0469.352-.0469.203-.0468.398-.1171.586-.2109.234-.0781.437-.125.609-.1406.141.0156.219.0234.234.0234.032-.0156.063-.0234.094-.0234.172-.0469.289-.0625.352-.0469h.164c.078 0 .156.0078.234.0234h.211c.125 0 .195-.0078.211-.0234.031-.0156.062-.0234.094-.0234.125.0312.195.0468.211.0468.015-.0156.039-.0078.07.0235.078-.0156.172-.0078.281.0234.063.0157.117.0313.164.0469.047 0 .102.0078.164.0234.047.0313.094.0625.141.0938.047.0156.094.0312.141.0469.156.0625.25.0937.281.0937.047 0 .094.0156.14.0469.11.0625.172.0937.188.0937s.039.0078.07.0235c.063.0312.125.0547.188.0703.062 0 .117.0156.164.0469.156.0781.242.125.258.1406.031.0156.062.0312.093.0469.11.0781.18.1328.211.164.125.0938.188.125.188.0938.015-.0469.039-.0547.07-.0235zm-2.203 13.4766c.047.0313.086.0547.117.0703.047.0156.094.0234.141.0234.078.0782.187.1407.328.1876.109.0781.18.1328.211.164.109.1094.18.1953.211.2578.078.125.125.2032.14.2344.032.0312.055.0625.071.0938l.094.3515v.2578c-.016.0625-.024.1485-.024.2578-.031.1719-.055.2735-.07.3047v.0703c-.032.0313-.063.0625-.094.0938-.016.0312-.039.0703-.07.1172-.078.125-.172.25-.282.375-.109.1093-.242.2031-.398.2812-.125.0938-.234.1641-.328.211-.156.0312-.25.0547-.281.0703-.016.0156-.039.0312-.071.0468-.156.0157-.242.0157-.258 0 0 0-.015.0079-.046.0235-.063 0-.118.0078-.164.0234-.047.0157-.086.0235-.118.0235-.156-.0157-.242-.0235-.257-.0235-.079-.0156-.172-.0234-.282-.0234-.109.0156-.203.0078-.281-.0235-.125-.0468-.219-.0703-.281-.0703-.063.0157-.125.0079-.188-.0234-.062-.0156-.14-.0547-.234-.1172-.078-.0312-.149-.0547-.211-.0703-.047-.0312-.109-.0625-.188-.0938-.203-.1406-.335-.2421-.398-.3046-.062-.0782-.109-.1719-.141-.2813-.078-.0312-.117-.0703-.117-.1172 0-.0625-.031-.125-.094-.1875-.046-.1718-.07-.2656-.07-.2812.016-.0156.024-.0391.024-.0703 0-.1719-.008-.2657-.024-.2813 0-.0156.008-.039.024-.0703.062-.125.093-.2344.093-.3281.016-.0938.047-.1797.094-.2578.109-.1094.172-.1797.188-.211.015-.0312.039-.0625.07-.0937.078-.1094.141-.1797.187-.211.141-.125.227-.1953.258-.2109.047-.0156.086-.0391.117-.0703.125-.0313.235-.0703.329-.1172.203-.0937.39-.1563.562-.1875l.539-.0234c.235 0 .445.0234.633.0703.172.0312.258.0547.258.0703s.008.0234.023.0234c.047.0156.094.0235.141.0235s.086.0078.117.0234z" fill="#693821"/></svg>