<svg fill="none" height="181" viewBox="0 0 230 181" width="230" xmlns="http://www.w3.org/2000/svg"><g fill="#6a290b"><path d="m97.5248 8.4349c-41.8476 13.2622-74.4094 41.3892-89.60001 75.8668-14.50457 32.8953-12.20151 76.6083 33.39481 91.2323 47.0174 15.085 99.8664-3.185 135.5884-28.828 35.698-25.603 64.781-65.1488 48.414-104.9153-7.963-19.3324-26.094-34.03694-50.325-39.42595-28.323-6.31055-57.308.70117-81.7108 12.84145-3.3322 1.6628-.294 5.95 3.0626 4.2872 21.9772-10.8181 47.4342-17.58942 73.1602-13.06185 23.178 4.06675 41.235 17.18875 49.296 35.33905 16.072 36.1405-8.747 72.5614-40.353 97.1624-31.386 24.401-76.492 42.952-120.7657 35.78-24.354-3.947-43.6853-15.786-50.34954-35.84-5.39022-16.207-2.86661-33.636 3.18514-49.4828 13.549-35.4793 46.5273-64.4677 87.4194-80.13393.5636-.22037.1716-1.0217-.4165-.82137z"/><path d="m196.567 142.445c-4.642 1.9-11.307 6.995-11.56 12.028-.275 5.596 7.125 6.431 11.399 4.761 5.125-2.005 10.779-6.933 11.537-12.174.368-2.443-1.08-4.573-3.562-5.533-3.079-1.212-6.182-.105-9.078 1.023-2.757 1.086-.367 4.823 2.367 3.696 1.264-.627 2.597-.982 4.022-1.086 1.402 1.399 1.632 2.694.644 3.925-.414 1.024-1.448 2.109-2.206 2.903-1.885 1.921-4.528 4.03-7.401 4.427-3.562.501-5.01-1.9-3.424-4.782.506-.919 1.103-1.817 1.77-2.673 1.723-2.213 3.93-3.905 6.251-5.596.62-.438-.161-1.169-.759-.919z"/><path d="m205.709 167.377c-3.307 1.521-7.205 4.522-5.126 8.316 2.173 3.944 8.197 2.122 10.961-.215 2.882-2.421 3.519-6.944.33-9.409-2.74-2.122-7.63-.964-8.315 2.401-.378 1.865 2.575 2.679 3.189.793.567-1.715 2.93-1.243 3.496.193.662 1.693-.59 3.322-2.078 4.244-1.465.9-4.63 1.95-4.843-.536-.165-1.929 1.937-3.494 3.307-4.694.662-.579-.165-1.436-.921-1.093z"/><path d="m48.2578 141.169c-2.2289 9.866-1.3981 19.895 1.7223 29.477.2026.628 1.1954.345.9928-.263-3.2014-9.603-3.708-19.105-2.2491-29.072.0405-.304-.4052-.446-.466-.142z"/><path d="m216.027 50.3131c3.272 5.8824 5.65 12.0017 7.242 18.4368.109.4342.829.2566.72-.1777-1.636-6.4548-4.188-12.5939-7.569-18.4565-.153-.2566-.523-.0395-.393.1974z"/><path d="m217.054 46.4374c7.271 10.1834 10.603 21.141 9.554 33.0713-.046.6551 1.142.6551 1.212 0 1.026-11.9104-2.33-23.4238-10.16-33.369-.257-.3177-.839-.0397-.606.2977z"/></g><path d="m78.9258 73.5234c-.0313.0625-.0469.1172-.0469.1641.0156.0469.0156.1094 0 .1875-.0469.1875-.0781.2891-.0937.3047v.0234c-.0782.1094-.125.1953-.1407.2578-.0781.125-.1406.2032-.1875.2344-.0312.0156-.0547.0469-.0703.0938-.0469.0312-.0937.0625-.1406.0937-.0313.0313-.0703.0625-.1172.0938-.1094.0937-.1953.164-.2578.2109-.0469.0313-.1016.0703-.1641.1172-.0937.0781-.1562.1484-.1875.2109-.1562.0782-.2343.1172-.2343.1172-.2188.1406-.3672.2422-.4454.3047-.0781.0625-.164.125-.2578.1875-.1093.0938-.1953.1562-.2578.1875-.0937.0781-.1719.1328-.2344.1641-.0937.0937-.1875.1484-.2812.164-.125.0782-.2188.1328-.2813.1641-.0468.0312-.0937.0703-.1406.1172-.1562.0781-.2344.125-.2344.1406.0157 0 .0157 0 0 0 .1719.0313.2657.0547.2813.0703.1562.0156.2578.0313.3047.0469.0469 0 .0859.0078.1172.0234.2031.0781.3359.1016.3984.0703.0625-.0312.125-.0312.1875 0l.2578.0938c.0313.0156.0625.039.0938.0703.0468.0156.1015.0156.164 0l.2813.1406c.0312.0313.0625.0625.0937.0938.0469.0312.1016.0469.1641.0469.125.1093.2187.1953.2812.2578.0782.0468.1563.0859.2344.1172.125.1406.1953.2109.211.2109.0156 0 .0312.0156.0468.0469.0782.125.1407.1953.1875.2109.0469.0156.086.0391.1172.0703.0781.125.1094.1953.0938.211 0 0 .0078.0078.0234.0234.0938.0781.1484.1406.1641.1875.0156.0312.039.0625.0703.0937.0781.1407.1172.2266.1172.2578 0 .0313.0078.0704.0234.1172.0781.2188.1172.3985.1172.5391.0625.1563.0937.2734.0937.3516 0 .0625.0079.1328.0235.2109.0156.0625.0234.125.0234.1875.0156.0625.0313.1328.0469.2109.0312.1407.0391.25.0234.3282 0 .0625.0157.1328.0469.2109-.0312.0781-.0547.1563-.0703.2344 0 .0625-.0078.1562-.0234.2812-.0157.0625-.0235.125-.0235.1875s-.0078.1328-.0234.211l-.0469.375c-.0312.125-.0547.1953-.0703.2109-.0156 0-.0234.0156-.0234.0469-.0469.1718-.0782.2812-.0938.3281-.0469.1563-.0703.2422-.0703.2578 0 0-.0078.0078-.0234.0235-.0469.0781-.0782.1328-.0938.164 0 .0156-.0078.0391-.0234.0703-.0938.1407-.1563.2422-.1875.3047-.0157.0469-.0391.0938-.0703.1406-.0313.1094-.0469.1719-.0469.1875 0 .0157-.0156.0391-.0469.0703-.0937.1094-.1484.1797-.1641.211-.0156.0312-.0312.0703-.0468.1172-.0625.0468-.1172.1015-.1641.164-.0469.0469-.0781.1094-.0937.1875-.0782.0469-.1407.1172-.1875.211-.0313.0781-.0938.1328-.1875.164-.0313.0625-.0704.1172-.1172.1641-.0313.0469-.0625.0859-.0938.1172-.1406.1094-.2187.1719-.2344.1875 0 .0156-.0156.0312-.0468.0469-.1719.0937-.2813.1562-.3282.1875-.0468.0312-.1093.0703-.1875.1171-.1406.0938-.2265.1563-.2578.1876-.0156.0156-.039.0312-.0703.0468-.2344.125-.375.1953-.4219.211-.0781.0312-.1562.0546-.2343.0703-.0782.0156-.1563.0469-.2344.0937-.3125.0469-.5234.086-.6328.1172-.0625.0313-.1172.0547-.1641.0703-.0469.0157-.0937.0313-.1406.0469-.25.0625-.5156.0938-.7969.0938-.0469 0-.0937-.0079-.1406-.0235-.0469 0-.0938.0235-.1406.0703-.1719-.0468-.2813-.0703-.3282-.0703-.0468.0156-.1015.0235-.164.0235-.1719-.0313-.2656-.0391-.2813-.0235 0 .0156-.0078.0156-.0234 0-.1719-.0469-.2656-.0703-.2813-.0703-.0625-.0156-.125-.0234-.1875-.0234-.0468 0-.1015-.0078-.164-.0235-.125-.0312-.2266-.0547-.3047-.0703s-.1484-.039-.2109-.0703c-.1407.0156-.3047-.0156-.4922-.0937-.1407-.0313-.2344-.0547-.2813-.0704-.0312-.0156-.0625-.0312-.0937-.0468-.1719-.0782-.2891-.1172-.3516-.1172-.0625-.0156-.1094-.0391-.1406-.0703-.1875-.0469-.3125-.0782-.375-.0938-.0469-.0156-.0938-.0391-.1406-.0703-.125-.0625-.2266-.1094-.3047-.1406-.0469-.0313-.0938-.0547-.1407-.0703-.0468-.0157-.0937-.0391-.1406-.0703-.1562-.0782-.25-.1172-.2812-.1172-.0313-.0157-.0625-.0391-.0938-.0704-.2031-.1406-.3437-.2343-.4219-.2812-.0625-.0625-.1328-.125-.2109-.1875-.0937-.0781-.1562-.125-.1875-.1406-.0312-.0157-.0547-.0547-.0703-.1172-.1563-.0938-.2422-.1485-.2578-.1641-.0938-.1094-.1485-.164-.1641-.164-.0156-.0157-.039-.0391-.0703-.0704-.0781-.125-.125-.1874-.1406-.1874-.0156-.0157-.0313-.0391-.0469-.0704-.125-.125-.25-.289-.375-.4922-.0937-.1874-.1328-.3203-.1172-.3984s.0156-.1562 0-.2344c.0938-.0625.1563-.0859.1875-.0703.0469 0 .0938-.0156.1406-.0469.1094-.0781.1797-.1328.211-.164.0312-.0469.0781-.0703.1406-.0703.0625-.0625.1406-.1172.2344-.1641l.2109-.164c.0781-.0469.1485-.086.211-.1172.0625-.0469.1328-.086.2109-.1172.1094-.0625.1719-.0938.1875-.0938.0156-.0156.0312-.0312.0469-.0468l.3984-.211c.0313-.0156.0703-.0312.1172-.0469.0469-.0312.0859-.0625.1172-.0937.1094-.0313.1875-.0547.2344-.0703.0468-.0157.0937-.0391.1406-.0703.1719-.0782.3281-.1328.4687-.1641.1875-.0469.2969-.0781.3282-.0937.0312-.0313.0859-.0391.164-.0235.2031.0156.3281.0391.375.0703.0938.125.1563.1953.1875.211.0313 0 .0547.0156.0703.0468.0313.1094.0547.1875.0703.2344.0157.0469.0469.0938.0938.1406.1406.0938.2187.1563.2344.1875.0937.0782.1484.1329.164.1641.0313.0312.0625.0547.0938.0703.1719.0625.2656.0938.2812.0938.0313 0 .0625.0078.0938.0234.2344.1094.4062.1563.5156.1406.125-.0312.2578-.0312.3984 0 .1094.0313.1954.0313.2579 0 .125-.0156.1953-.0312.2109-.0469.0312-.0156.0625-.0312.0937-.0468.1563-.0469.2657-.086.3282-.1172.0937-.0625.1562-.0938.1875-.0938.0312-.0156.0625-.039.0937-.0703.0625-.0625.1172-.125.1641-.1875.0469-.0781.1094-.1406.1875-.1875 0-.0781.0156-.1406.0469-.1875.0468-.0625.0859-.1328.1171-.2109.0625-.25.0938-.4063.0938-.4688.0469-.2343.0703-.375.0703-.4218.0156-.0469.0156-.1016 0-.1641-.0312-.1406-.0547-.2188-.0703-.2344s-.0234-.039-.0234-.0703c-.0313-.0469-.0547-.0859-.0704-.1172 0-.0469-.0156-.1015-.0468-.164-.0938-.1094-.1407-.1719-.1407-.1875 0-.0157-.0078-.0313-.0234-.0469-.1406-.0938-.2109-.1406-.2109-.1406 0-.0157-.0078-.0313-.0235-.0469-.0781-.0313-.1406-.0625-.1875-.0938-.0468-.0312-.0937-.0625-.1406-.0937-.0781-.0156-.1484-.0313-.2109-.0469-.0469-.0312-.1016-.0625-.1641-.0937-.2031-.0625-.3359-.1016-.3984-.1172-.0469-.0157-.1328-.0391-.2578-.0703-.2188-.0313-.3594-.0469-.4219-.0469-.0469-.0156-.1094-.0235-.1875-.0235-.125.0157-.2266.0235-.3047.0235-.0625 0-.1406.0078-.2344.0234-.125.0469-.2109.0625-.2578.0469-.0312-.0156-.0625-.0078-.0937.0234-.125.0469-.211.0704-.2579.0704-.0312 0-.0625.0078-.0937.0234-.125.0781-.1953.1172-.2109.1172-.0157 0-.0391.0078-.0704.0234-.0781.0313-.1718.0625-.2812.0938-.0938.0312-.2031.0546-.3281.0703h-.4453c-.1563-.0469-.25-.0703-.2813-.0703-.0312-.0157-.0625-.0313-.0937-.0469-.0782-.0313-.1485-.1094-.211-.2344-.0781-.1719-.1172-.3203-.1172-.4453-.0156-.1875-.0312-.3125-.0468-.375-.0157-.0625-.0313-.1172-.0469-.1641.0156-.1406.0234-.2343.0234-.2812-.0156-.125-.0234-.2031-.0234-.2344.0156-.0469.0156-.0937 0-.1406-.1094-.2969-.1485-.5859-.1172-.8672 0-.1719.0547-.2969.1641-.375.0468-.1406.0703-.2187.0703-.2344 0-.0156.0156-.0234.0468-.0234.0313-.0313.0704-.0547.1172-.0703.0469-.0156.086-.0469.1172-.0938.0469.0313.086.0313.1172 0 .0469-.0312.0938-.0547.1406-.0703.1719-.0312.2813-.0469.3282-.0469.0468-.0156.0937-.0234.1406-.0234s.0937-.0078.1406-.0234c.0625 0 .1172-.0078.1641-.0235.0625-.0156.125-.0312.1875-.0469.1093-.0624.1875-.1015.2343-.1171.0469-.0157.1094-.0391.1875-.0703.1875-.0626.3047-.1016.3516-.1172.0469-.0313.1016-.0625.1641-.0938.1718-.0781.2812-.125.3281-.1406.0625-.0156.1094-.0313.1406-.0469.1406-.0937.2188-.1406.2344-.1406s.0312-.0078.0469-.0235c.1718-.1093.289-.1796.3515-.2109.0625-.0469.1328-.0937.211-.1406l.2578-.1406c.1094-.0782.1719-.1172.1875-.1172s.039-.0078.0703-.0235c.0469-.0625.1016-.1172.1641-.164l.1875-.1875c.0625-.0781.1093-.1172.1406-.1172.0469-.0156.0703-.0391.0703-.0703-.2031-.0156-.3281-.0313-.375-.0469-.0313-.0156-.0703-.0234-.1172-.0234-.125 0-.25.0156-.375.0468-.125.0157-.25.0235-.375.0235-.0625.0156-.125.0234-.1875.0234-.0625-.0156-.125-.0234-.1875-.0234-.1562.0312-.2812.0468-.375.0468-.2031-.0312-.3281-.039-.375-.0234-.0469 0-.1016.0078-.1641.0234-.0937.0313-.1796.0469-.2578.0469-.0468.0157-.1093.0235-.1875.0235-.0625 0-.1172 0-.164 0-.125.0156-.1953.0234-.211.0234-.0156-.0156-.039-.0234-.0703-.0234-.0469 0-.0937.0078-.1406.0234s-.1016.0312-.1641.0469c-.0781 0-.164 0-.2578 0-.0937-.0157-.1875-.0157-.2812 0-.1563.0156-.2735.0312-.3516.0469-.0781 0-.1484.0078-.2109.0234-.0782 0-.1797.0156-.3047.0469-.0469.0156-.0938.0234-.1406.0234-.0469 0-.086.0078-.1172.0234-.0469 0-.0938.0157-.1407.0469-.0312.0156-.0703.0313-.1171.0469-.0782.0156-.1641.0312-.2579.0469-.0937 0-.2031.0156-.3281.0468-.1406.0157-.2578.0157-.3515 0-.1563-.0625-.2422-.0937-.2579-.0937-.0312-.0469-.0625-.0859-.0937-.1172-.0156-.0313-.0313-.0781-.0469-.1406l-.0234-.3516c0-.1719-.0156-.3047-.0469-.3984-.0156-.0938-.0156-.1953 0-.3047v-.3281c.0469-.1563.0625-.2422.0469-.2579v-.2578c.0469-.2656.0703-.4453.0703-.539 0-.1094 0-.2344 0-.375 0-.1875 0-.3047 0-.3516.0156-.0625.0234-.1016.0234-.1172-.0625-.1875-.1015-.2968-.1172-.3281-.0156-.0469-.0078-.0937.0235-.1406.0469-.1875.0625-.2969.0469-.3281 0-.0313 0-.0626 0-.0938 0-.1719.039-.3125.1171-.4219.1094-.0937.1954-.1562.2579-.1875.0625-.0468.1484-.0703.2578-.0703.0937-.0156.1797-.0234.2578-.0234.0937 0 .1719.0156.2344.0469.0781-.0313.1796-.0469.3046-.0469.125-.0157.2344 0 .3282.0469.125-.0313.2734-.0313.4453 0 .1719.0312.3359.0546.4922.0703.0625.0312.125.0468.1875.0468h.2109c.1406 0 .2344.0079.2813.0235.0625.0156.125.0234.1875.0234.0468.0156.1328.0234.2578.0234.25.0157.3828.0235.3984.0235.0781.0156.1563.0234.2344.0234.0937-.0156.1797-.0156.2578 0 .0781 0 .1641.0078.2578.0235.1094.0156.2031.0234.2813.0234.0625 0 .125.0078.1875.0234h.1875c.1875.0157.2812.0235.2812.0235.1406 0 .2109.0078.2109.0234h.0469c.125-.0156.211-.0312.2578-.0469.0469-.0156.086-.0078.1172.0235.0938-.0157.1953-.0157.3047 0 .1094 0 .2109.0078.3047.0234.1094-.0312.2187-.0391.3281-.0234h.3516c.1562.0156.2578.0156.3047 0 .0625-.0157.125-.0235.1875-.0235.1406.0157.2422.0157.3047 0 .0625-.0156.1328-.0234.2109-.0234h.375c.0937-.0156.1562-.0234.1875-.0234.1562 0 .2344-.0078.2344-.0235.0156-.0156.0312-.0078.0468.0235.0782.0312.1641.0312.2579 0 .1093-.0313.2187-.0547.3281-.0704.0625 0 .125.0079.1875.0235h.1875c.0781 0 .1953-.0156.3515-.0469.0469 0 .0938.0078.1407.0234.0625 0 .1093-.0156.1406-.0468.125.0312.2422.039.3516.0234.125-.0156.2031.0391.2343.1641.0625.1406.086.2265.0703.2578-.0156.0312-.0078.0625.0235.0937.0156.0625.0234.1328.0234.211.0156.0781.0156.1797 0 .3047 0 .1406-.0078.25-.0234.3281v.2109c.0156.2031.0156.3203 0 .3516 0 .0156.0078.0391.0234.0703v.2812c.0156.0782.0313.1641.0469.2579.0156.0781.0234.164.0234.2578v.2578c.0469.1875.0625.3203.0469.3984 0 .0625.0078.125.0234.1875 0 .0313-.0078.0703-.0234.1172 0 .0313.0156.0781.0469.1406zm8.789 2.5313h.211c.0156-.0156.0312-.0235.0469-.0235.1718-.0624.2578-.0937.2578-.0937.0468-.0156.0859-.0156.1172 0 .0468.0156.1015.0234.164.0234h.2344c.0937 0 .1875.0079.2812.0235l.2579.0234c.0625-.0156.1171-.0156.164 0h.1406c.2032.0625.3438.0938.4219.0938.0938-.0157.1719-.0157.2344 0 .2187.125.375.2031.4687.2343.0938.0157.1797.0391.2579.0703.1093.0782.1796.125.2109.1407.0469.0156.1094.0234.1875.0234.0469.0313.1016.0625.1641.0938.0625.0156.125.039.1875.0703.0937.0781.2187.1484.375.2109.0468.0469.1015.0938.164.1406.0625.0313.1172.0703.1641.1172.0781.0625.1562.1328.2344.211.0781.0625.1562.1406.2343.2343l.211.211.2109.2344c.0625.0937.1016.1718.1172.2343.0156.0469.0391.0938.0703.1407.0625.125.0938.1874.0938.1874.0156 0 .0312.0157.0468.0469.0469.0938.0782.1563.0938.1875.0156.0313.0312.0625.0469.0938.0468.125.0781.1953.0937.2109.0156 0 .0313.0156.0469.0469.0469.1406.0703.2344.0703.2812.0469.1563.0781.25.0937.2813.0157.0312.0313.0625.0469.0937.0469.1563.0703.25.0703.2813 0 .0312.0078.0625.0235.0937 0 .0625.0078.1172.0234.1641.0156.0313.0234.0859.0234.1641.0469.2187.0704.375.0704.4687 0 .0781.0078.1719.0234.2813.0156.125.0234.2265.0234.3046.0157.0782.0235.1719.0235.2813-.0157.0625-.0235.1406-.0235.2344 0 .0937-.0156.1797-.0468.2578 0 .0937-.0079.1641-.0235.2109 0 .0313-.0078.0703-.0234.1172-.0156.1094-.0391.1953-.0703.2578-.0157.0313-.0235.0703-.0235.1172s-.0156.0938-.0468.1406c-.0938.1563-.1485.2422-.1641.2578-.0156.0157-.0313.0391-.0469.0704-.0469.125-.0937.2343-.1406.3281-.0469.0937-.1016.1797-.1641.2578-.0625.2031-.1093.3203-.1406.3516-.0312.0156-.0469.039-.0469.0703-.0468.0625-.0781.1172-.0937.164-.0156.0469-.0391.086-.0703.1172-.0782.1094-.125.1719-.1407.1875-.0156 0-.0312.0078-.0468.0235l-.2578.3046c-.1407.1407-.2344.211-.2813.211-.1406.1562-.2344.25-.2812.2812-.0469.0157-.086.0469-.1172.0938-.1407.0781-.2344.1406-.2813.1875s-.1015.0859-.164.1172c-.1407.0937-.2266.1484-.2579.164-.0312 0-.0468.0235-.0468.0703-.1719.0938-.2735.1407-.3047.1407-.0156 0-.0391.0078-.0703.0234-.0782.0313-.1328.0547-.1641.0703-.0156.0156-.0391.0391-.0703.0703-.1719.0782-.2813.1172-.3281.1172-.0469 0-.086.0078-.1172.0235-.125.0625-.211.0937-.2578.0937-.125.0625-.2266.1094-.3047.1406-.1875.0313-.3047.0547-.3516.0703-.0312.0157-.0625.0313-.0937.0469-.1875.0313-.2813.0469-.2813.0469 0 .0156-.0156.0234-.0469.0234-.1406.0157-.2343.0391-.2812.0704-.0469.0312-.1172.0468-.2109.0468-.0469 0-.0938-.0078-.1407-.0234-.0468-.0156-.1015-.0234-.164-.0234-.2032.0312-.3282.0312-.375 0-.1563 0-.2422.0078-.2578.0234 0 .0156-.0157.0078-.0469-.0234-.1406 0-.25.0078-.3281.0234-.0625.0156-.1407.0078-.2344-.0234-.1094-.0157-.1797-.0313-.211-.0469-.0312 0-.0546 0-.0703 0-.2187-.0313-.3828-.0625-.4922-.0938-.1875-.0469-.2812-.0781-.2812-.0937-.1719 0-.2656-.0078-.2813-.0235-.0156 0-.0312 0-.0468 0-.0469-.0312-.1016-.0468-.1641-.0468s-.1172-.0157-.1641-.0469c-.0625-.0156-.125-.0313-.1875-.0469s-.1171-.0312-.164-.0469c-.0625-.0312-.125-.0546-.1875-.0703-.0469-.0312-.1094-.0625-.1875-.0937-.1875-.0782-.2969-.1328-.3281-.1641-.1094-.0625-.2188-.1328-.3282-.2109-.25-.0938-.3906-.1953-.4218-.3047-.1407-.0781-.2188-.1172-.2344-.1172 0-.0156-.0078-.0234-.0235-.0234-.1562-.0782-.25-.1329-.2812-.1641-.0313-.0312-.0625-.0625-.0938-.0938-.0468-.0468-.1015-.1015-.164-.164-.0469-.0625-.0938-.125-.1406-.1875-.1094-.1094-.1797-.1719-.211-.1875-.0156-.0156-.039-.0391-.0703-.0703-.0625-.1094-.1094-.1797-.1406-.211-.0156-.0312-.0313-.0625-.0469-.0937-.1094-.1563-.1641-.2344-.1641-.2344.0157-.0156.0157-.039 0-.0703-.0468-.0781-.1015-.1797-.164-.3047l-.1641-.2109c-.0937-.1407-.1406-.2266-.1406-.2578.0156-.0313.0078-.0625-.0234-.0938-.0782-.1094-.1172-.1797-.1172-.2109 0-.0469-.0157-.0625-.0469-.0469-.0469-.1563-.0781-.2578-.0938-.3047-.0156-.0469-.0312-.0937-.0468-.1406-.0625-.1563-.1016-.2344-.1172-.2344.0312-.0469.0312-.0937 0-.1406-.0313-.0469-.0469-.0938-.0469-.1406.0156-.0625.0078-.1172-.0234-.1641-.0157-.0625-.0313-.1172-.0469-.1641-.0625-.2031-.0938-.3359-.0938-.3984.0157-.0781 0-.1562-.0468-.2344 0-.2031.0078-.3125.0234-.3281-.0312-.0313-.0469-.0625-.0469-.0937.0157-.0469.0157-.1016 0-.1641-.0468-.1563-.0703-.2969-.0703-.4219 0-.1406 0-.25 0-.3281 0-.1563.0078-.2422.0235-.2578.0312-.0157.0468-.0391.0468-.0703-.0156-.2344-.0234-.375-.0234-.4219.0156-.0625.0312-.125.0469-.1875.0156-.0469.0312-.0938.0468-.1406.0313-.0625.0391-.1172.0235-.1641.0625-.1094.0859-.1953.0703-.2578-.0156-.0781-.0156-.1563 0-.2344l.0703-.3515c.0156-.0626.0391-.1172.0703-.1641.0313-.0469.0391-.1016.0235-.1641.0781-.0312.1093-.0781.0937-.1406 0-.0625.0078-.1328.0234-.2109.0782-.1875.1172-.2969.1172-.3282 0-.0312.0078-.0625.0235-.0937.1093-.1875.1718-.2969.1875-.3281.0156-.0313.0312-.0625.0468-.0938.0313-.0469.0547-.1015.0704-.1641l.0937-.1874c.0313-.0782.0625-.1563.0938-.2344.0937-.1875.1562-.3125.1875-.375.0468-.0625.0859-.1328.1171-.211.0625-.1093.1016-.1718.1172-.1875.0157-.0156.0313-.039.0469-.0703.0469-.0468.0781-.1094.0938-.1875.0312-.0781.0625-.1484.0937-.2109.1094-.1406.1719-.2188.1875-.2344.0156-.0312.0391-.0547.0703-.0703.0625-.1094.0938-.1641.0938-.1641.0156-.0156.0312-.039.0468-.0703.0938-.0781.1407-.125.1407-.1406s.0156-.0313.0468-.0469c.125-.1562.211-.2578.2579-.3047.0312-.0468.0625-.0859.0937-.1171.0469-.0469.0938-.1016.1406-.1641.125-.1094.1875-.1719.1875-.1875.0157-.0156.0235-.0313.0235-.0469.1093-.1094.1718-.1719.1875-.1875.0156-.0156.0312-.039.0468-.0703.125-.125.1954-.1953.211-.2109.0312-.0313.0625-.0625.0937-.0938.0782-.0937.1407-.164.1875-.2109.0469-.0625.0938-.125.1407-.1875.0937-.0938.1875-.1641.2812-.211.0938-.0468.1641-.1093.2109-.1875.1407-.0781.2188-.1171.2344-.1171.0313-.0157.0625-.0313.0938-.0469.1406-.1094.2343-.1953.2812-.2578.1875-.0938.2969-.1563.3281-.1875.0313-.0469.086-.0704.1641-.0704l.2578-.1406c.125-.1094.2031-.164.2344-.164.0312 0 .0469-.0157.0469-.0469.1718-.0938.2578-.1406.2578-.1406.0156-.0157.039-.0313.0703-.0469.0625-.0781.1484-.1328.2578-.1641.1094-.0469.1875-.1093.2344-.1875.125-.0625.2109-.0937.2578-.0937s.0937-.0157.1406-.0469c.125-.0938.211-.1484.2578-.1641.0625-.0312.1094-.0468.1407-.0468.0468-.0157.0859-.0391.1171-.0703.2032-.0938.3204-.1563.3516-.1876.1875-.0468.2969-.0781.3281-.0937.0313-.0156.0625-.0313.0938-.0469.1094-.0312.1719-.0468.1875-.0468.0156-.0157.039-.0235.0703-.0235.2344-.0312.3828-.0703.4453-.1172s.1484-.0625.2578-.0469c.1406-.0624.2188-.0859.2344-.0703.0312 0 .0625-.0078.0937-.0234.0313.0313.0704.0625.1172.0937.0625.0313.1094.0626.1407.0938.0781.125.1171.1953.1171.2109 0 .0157.0157.0391.0469.0703.1406.1563.211.2735.211.3516.0937.1406.1484.211.164.211s.0235.0078.0235.0234c.1093.1562.1562.25.1406.2812 0 .0157.0078.0235.0234.0235.0469.125.1172.2343.211.3281.125.2344.1953.3828.2109.4453.1094.2188.1719.3594.1875.4219.0312.0625.0625.1328.0937.2109.0157.0938.0547.1797.1172.2578.0625.1094.1094.1953.1407.2579.0781.1562.1171.2968.1171.4218 0 .1094-.0156.1875-.0468.2344-.0313.0469-.086.0859-.1641.1172-.0781.0156-.1562.0312-.2344.0469-.125.0312-.2109.0547-.2578.0703-.0469 0-.1015.0078-.164.0234l-.3047.0703c-.1094.0781-.2266.1485-.3516.211-.1562.0625-.25.1015-.2812.1171-.0313 0-.0625.0079-.0938.0235-.0781.0625-.1641.1172-.2578.1641-.0938.0312-.1797.0781-.2578.1406-.1094.0625-.1719.1015-.1875.1172 0 .0156-.0078.0312-.0235.0468-.0468.0313-.0937.0547-.1406.0704-.0469 0-.0859.0156-.1172.0468-.0937.0313-.1875.086-.2812.1641-.0938.0469-.1719.1015-.2344.1641-.0312.0312-.0703.0624-.1172.0937-.0469.0156-.0859.0391-.1172.0703-.1718.1094-.2734.1797-.3047.211-.0312.0156-.0546.039-.0703.0703-.1406.125-.2187.1875-.2343.1875-.1563.1093-.2579.1953-.3047.2578-.0469.0625-.086.1172-.1172.164-.0313.0313-.0703.0704-.1172.1172-.0313.0469-.0625.1016-.0938.1641zm.4219 3.2109c-.1562-.0468-.2656-.0859-.3281-.1172-.0625-.0312-.1484-.0546-.2578-.0703-.1563-.0156-.2813-.0156-.375 0-.0781.0157-.1406.0235-.1875.0235-.1406.0156-.2266.0312-.2578.0468-.0157 0-.0313.0078-.0469.0235-.1563.0156-.25.0312-.2813.0469-.0312.0156-.0625.039-.0937.0703-.0625.0625-.1094.1093-.1406.1406-.0157.0156-.0313.0312-.0469.0469-.1094.1093-.1641.1718-.1641.1875 0 0-.0156.0156-.0468.0468-.0782.125-.1094.2188-.0938.2813-.1094.125-.1641.2109-.1641.2578.0157.0312.0079.0469-.0234.0469-.0312.1875-.0547.2969-.0703.3281-.0781.3125-.1016.5469-.0703.7031.0156.1563.0312.2422.0469.2578.0156 0 .0234.0079.0234.0235.0469.125.0859.2109.1172.2578.0312.0312.0547.0625.0703.0937.0781.1407.125.2266.1406.2579.1719.2031.2735.3203.3047.3515.0469.0313.0859.0781.1172.1406.0469.0469.0859.086.1172.1172.1875.1094.2812.1719.2812.1875.0625 0 .1172.0156.1641.0469.0469.0156.0937.0313.1406.0469.1563.0625.25.1015.2813.1172.0312.0156.0625.0234.0937.0234h.2578c.1563-.0156.2891-.0312.3985-.0469.125-.0312.25-.0547.375-.0703.2187-.125.375-.1953.4687-.2109.0938-.0157.1563-.0547.1875-.1172.1563-.2188.25-.3594.2813-.4219.0312-.0781.0625-.1562.0937-.2344.0781-.1875.1172-.2968.1172-.3281-.0156-.1094-.0156-.1875 0-.2344.0156-.0625.0234-.125.0234-.1875-.0156-.125-.0234-.2187-.0234-.2812-.0469-.1406-.0781-.2266-.0937-.2578-.0157-.0313-.0235-.0625-.0235-.0938-.0469-.1875-.0781-.2968-.0937-.3281-.0625-.1406-.1016-.2109-.1172-.2109 0-.0157 0-.0313 0-.0469-.0938-.125-.1563-.2031-.1875-.2344-.0313-.0469-.0781-.0781-.1406-.0937-.1094-.1094-.2032-.1875-.2813-.2344-.0625-.0469-.125-.1016-.1875-.1641-.1094-.0469-.1875-.0859-.2344-.1172-.0312-.0312-.0547-.0547-.0703-.0703zm14.2973-5.789c.062.0781.093.1718.093.2812.016.0938.032.2031.047.3281.031.2032.039.3203.024.3516.031.0781.047.1406.047.1875.015.0312.007.0625-.024.0938.016.1562.024.2578.024.3046.015.0313.015.0625 0 .0938-.016.1406-.016.25 0 .3281.015.0781.015.1563 0 .2344v.375c0 .0781-.008.1406-.024.1875v.0937l.024.2813v.1406c.015.0469.015.0938 0 .1406l.468.0469h.235c.093-.0156.172-.0078.234.0235.25-.0469.406-.0704.469-.0704.265.0157.437.0313.515.0469h.235.234c.047-.0156.094-.0078.141.0235.062-.0157.117-.0157.164 0 .047 0 .101.0078.164.0234.203.1094.305.2031.305.2812.015.0625.031.1563.046.2813.016.1094.016.2109 0 .3047v.3047c0 .0781.008.164.024.2578.016.0781.008.1562-.024.2343-.015.0469-.015.1172 0 .211.016.0781.024.1562.024.2344-.031.125-.047.2109-.047.2578 0 .125-.008.2109-.023.2578 0 .0469.007.1016.023.164-.047.0626-.109.125-.187.1876-.063.0624-.133.1015-.211.1171-.172-.0468-.289-.0625-.352-.0468-.047.0156-.102.0156-.164 0-.203-.0469-.359-.0625-.469-.0469-.109 0-.203-.0234-.281-.0703-.094.0156-.188.0078-.281-.0235-.078-.0312-.164-.0468-.258-.0468l-.281.0234c-.172-.0312-.274-.0391-.305-.0234-.016.0156-.039.0234-.07.0234-.203-.0156-.321-.0156-.352 0-.047.0938-.055.2031-.023.3281-.016.0938-.024.1563-.024.1875.016.0156.024.0391.024.0703 0 .0938-.008.1875-.024.2813 0 .0937.008.1875.024.2812 0 .0625.007.1172.023.1641.016.0313.016.0859 0 .1641-.031.0781-.047.1406-.047.1875.016.0312.024.0625.024.0937 0 .1719.007.2813.023.3281.016.0469.016.086 0 .1172.016.2344.024.4063.024.5157.015.1093 0 .2031-.047.2812 0 .1562-.008.2578-.024.3047-.015.0469-.031.0937-.047.1406-.187.0313-.312.0547-.375.0703-.047 0-.109.0078-.187.0235-.172.0312-.313.0468-.422.0468-.109-.0156-.227-.0156-.352 0-.14.0469-.218.0625-.234.0469 0-.0156-.008-.0234-.023-.0234-.172 0-.282.0156-.329.0468-.031.0157-.07.0235-.117.0235-.109 0-.172.0078-.187.0234-.016 0-.039 0-.071 0-.156.0157-.2573.0235-.3042.0235-.0469-.0157-.1016-.0078-.1641.0234-.0469-.0312-.1015-.0625-.164-.0938-.0469-.0468-.1016-.0859-.1641-.1171-.0313-.0782-.0469-.1407-.0469-.1875 0-.0625.0156-.1328.0469-.211.0312-.1406.0312-.289 0-.4453 0-.0781 0-.1406 0-.1875.0156-.0469.0156-.1094 0-.1875.0156-.0625.0078-.1172-.0234-.1641-.0157-.0624-.0235-.1328-.0235-.2109.0313-.1719.0391-.2812.0235-.3281-.0157-.0625-.0235-.125-.0235-.1875l.0469-.375-.0469-.5156c0-.0469 0-.0938 0-.1407 0-.0625.0156-.1093.0469-.1406-.0156-.0781-.0313-.1328-.0469-.164 0-.0469 0-.086 0-.1172-.1406 0-.2187.0078-.2344.0234-.0156.0156-.039.0234-.0703.0234-.1718 0-.2812.0078-.3281.0235-.0469 0-.0937 0-.1406 0-.1094-.0157-.1797-.0157-.211 0-.0156 0-.0312 0-.0468 0-.0625 0-.1172.0078-.1641.0234-.0312 0-.0781-.0078-.1406-.0234-.0938 0-.1641.0078-.211.0234-.0312 0-.0703 0-.1171 0h-.375c-.1719 0-.2891.0156-.3516.0469-.0781 0-.1484 0-.2109 0-.0469-.0156-.1016-.0156-.1641 0-.1563.0156-.2422.0234-.2578.0234-.0156-.0156-.0391-.0234-.0703-.0234-.2188-.0781-.336-.1563-.3516-.2344-.0625-.125-.1016-.1953-.1172-.2109-.0156-.0313-.039-.0781-.0703-.1407.0313-.125.0234-.25-.0234-.375-.0313-.1406-.0469-.2968-.0469-.4687-.0156-.1563-.0156-.2891 0-.3984.0156-.125 0-.25-.0469-.375-.0156-.1563-.0156-.2735 0-.3516.0156-.0937.0313-.1719.0469-.2344.0625-.1719.0937-.2578.0937-.2578.0157 0 .0235-.0078.0235-.0234.1719-.0469.2578-.0781.2578-.0938.0937 0 .1719-.0156.2344-.0469.0781-.0312.1484-.0546.2109-.0703.1406 0 .2422-.0156.3047-.0468.1875.0312.2891.0468.3047.0468.0312-.0156.0625-.0234.0937-.0234h.3985c.0625 0 .125.0078.1875.0234l.2812.0235c.0938.0312.1797.0468.2578.0468.0938.0157.1719.0235.2344.0235.0625-.0156.125-.0156.1875 0s.1172.0391.1641.0703c.0625.0156.125.0078.1875-.0234.1562-.125.2265-.2344.2109-.3282-.0156-.0937-.0312-.1796-.0469-.2578 0-.0781-.0078-.164-.0234-.2578 0-.1094 0-.2031 0-.2812v-.3516c.0156-.1719.0234-.2969.0234-.375-.0156-.125-.0312-.2188-.0468-.2812 0-.0626 0-.1407 0-.2344 0-.1563-.0079-.2813-.0235-.375-.0156-.0938-.0156-.2032 0-.3282.0313-.0312.0547-.0703.0703-.1171.0157-.0469.0469-.0782.0938-.0938.1562-.1094.2734-.1719.3515-.1875.0938-.0312.1797-.0547.2579-.0703h.2573c.016-.0156.032-.0234.047-.0234.063 0 .118.0156.164.0468.063.0157.118.0235.164.0235h.141c.047-.0156.086-.0235.117-.0235h.399c.062 0 .117.0079.164.0235.062.0156.117.0078.164-.0235.062.0469.156.0703.281.0703.172.0313.289.0469.352.0469.062 0 .132.0078.211.0235zm16.593 5.9062h.399l.328.0234c.078.0157.18.0235.305.0235.14 0 .25-.0156.328-.0469.187-.0312.304-.0547.351-.0703.063-.0313.125-.0547.188-.0703.109 0 .187.0078.234.0234.047 0 .078.0078.094.0235.062.0781.109.1406.141.1875.031.0468.054.0859.07.1172l.023.2812c.032.1406.039.2578.024.3516v.2578c.031.1562.039.2422.023.2578v.0703c.016.1406.016.2734 0 .3984 0 .125-.008.2579-.023.3985 0 .125.008.2187.023.2812.016.0469.024.1016.024.1641-.047.25-.071.4141-.071.4922v.2578c-.015.0781-.023.1484-.023.2109 0 .0469-.016.0938-.047.1406-.016.1719-.047.2813-.094.3282-.047.0312-.101.0547-.164.0703-.062.0156-.125.0312-.187.0469-.063 0-.133.0078-.211.0234-.219-.0156-.352-.0156-.399 0-.203-.0156-.336-.0312-.398-.0469-.047-.0156-.117-.0156-.211 0-.078.0157-.18.0235-.305.0235-.109-.0157-.195-.0078-.258.0234-.015.1875-.023.3359-.023.4453.016.0938.023.2031.023.3281 0 .0782-.007.1407-.023.1875-.016.0469-.023.1016-.023.1641.015.1719.031.2812.046.3281.016.0313.024.0625.024.0938 0 .0312-.008.0703-.024.1172v.164c0 .0938.016.1875.047.2813 0 .0781-.008.1484-.023.2109 0 .0625.008.1328.023.2109.063.1876.086.3047.071.3516-.016.0469-.032.086-.047.1172-.078.2031-.157.3125-.235.3281-.062 0-.125.0078-.187.0235-.063.0156-.125.0312-.188.0468h-.328c-.297-.0156-.594-.0156-.89 0-.297.0157-.579.0157-.844 0-.047-.0156-.094-.0234-.141-.0234-.031-.0156-.07-.0234-.117-.0234s-.109.0078-.187.0234c-.063.0312-.125.0469-.188.0469-.109.0156-.211.0234-.305.0234-.093.0156-.187.0156-.281 0l-.351-.0234c-.172 0-.282-.0078-.329-.0235-.046-.0156-.101-.0312-.164-.0468-.047-.0157-.101-.0313-.164-.0469-.047-.0156-.086-.0391-.117-.0703-.016-.0313-.016-.0782 0-.1406.016-.0626.024-.1094.024-.1407-.032-.1719-.047-.2656-.047-.2812.015-.0157.015-.0391 0-.0703 0-.0938 0-.1797 0-.2578 0-.0938.007-.1797.023-.2579.016-.0937.031-.1718.047-.2343.016-.0782.023-.1328.023-.1641 0-.1719 0-.3281 0-.4687.016-.1407.016-.3204 0-.5391 0-.1563 0-.25 0-.2813.016-.0312.024-.0625.024-.0937-.016-.1719-.024-.2813-.024-.3281.016-.0469.024-.1094.024-.1875-.078-.0313-.156-.0469-.235-.0469-.062 0-.132 0-.21 0-.157.0312-.274.0469-.352.0469-.078.0156-.156.0234-.234.0234-.079-.0156-.164-.0234-.258-.0234-.063 0-.125 0-.188 0-.062-.0157-.109-.0157-.14 0-.047 0-.118 0-.211 0-.094-.0157-.164-.0157-.211 0-.11 0-.203-.0079-.281-.0235-.079-.0156-.157-.0234-.235-.0234h-.633-.445l-.562-.0234c-.094.0156-.165.0156-.211 0-.047-.0313-.11-.0547-.188-.0704-.344-.0468-.609-.1093-.797-.1875-.078-.1093-.133-.1875-.164-.2343-.031-.0469-.062-.086-.094-.1172-.046-.125-.086-.2032-.117-.2344-.015-.0469-.031-.0859-.047-.1172-.078-.1406-.117-.2187-.117-.2344 0-.0312-.008-.0546-.023-.0703-.063-.0781-.102-.1328-.117-.164-.016-.0469-.032-.086-.047-.1172-.094-.1407-.149-.2344-.164-.2813-.016-.0468-.032-.0859-.047-.1172-.047-.0625-.086-.125-.117-.1875-.032-.0625-.063-.125-.094-.1875-.094-.1718-.149-.2656-.164-.2812-.094-.0938-.157-.1719-.188-.2344-.031-.0781-.078-.1406-.14-.1875 0-.0469-.016-.0859-.047-.1172-.016-.0469-.039-.0859-.071-.1172-.109-.1406-.179-.2265-.211-.2578-.015-.0469-.031-.0937-.046-.1406l-.164-.3047c-.016-.1406-.024-.2187-.024-.2344 0-.0156-.008-.0312-.023-.0468.062-.1563.109-.25.14-.2813.047-.0312.086-.0703.117-.1172.11-.1093.172-.1797.188-.2109.016-.0469.039-.0781.07-.0938.125-.0937.203-.1718.235-.2343.109-.125.179-.1875.211-.1875.14-.1563.257-.2891.351-.3985.11-.1093.203-.2109.281-.3047l.188-.1875c.078-.0937.117-.1484.117-.164.016-.0313.039-.0625.07-.0938.094-.1093.172-.1875.235-.2343.094-.1563.148-.2344.164-.2344l.211-.1875c.031-.0313.054-.0625.07-.0938.031-.0312.07-.0625.117-.0937.078-.0938.117-.1485.117-.1641s.008-.0391.024-.0703c.078-.0938.148-.1719.211-.2344.094-.1718.156-.2656.187-.2812.047-.0156.055-.0313.024-.0469.094-.0625.172-.1406.234-.2344.047-.0625.094-.1172.141-.164.047-.0625.086-.1329.117-.211.094-.1406.141-.2187.141-.2343.015-.0157.023-.0313.023-.0469.063-.0625.125-.1407.188-.2344.078-.0781.125-.125.14-.1406.016-.0313.031-.0625.047-.0938.141-.1406.234-.2734.281-.3984.078-.0938.117-.1485.117-.1641 0-.0312.016-.0547.047-.0703.11-.1562.164-.2344.164-.2344.11-.1406.164-.2265.164-.2578.016-.0312.04-.039.071-.0234.094-.1406.156-.2422.187-.3047.032-.0625.078-.1094.141-.1406.047-.1094.117-.2032.211-.2813 0-.0625.015-.1015.047-.1172.047-.0312.07-.0781.07-.1406.063-.0469.109-.1015.141-.1641.047-.0781.109-.1328.187-.164.11-.1563.18-.2422.211-.2578.047-.0313.07-.0703.07-.1172.141-.1406.227-.2266.258-.2578.047-.0469.086-.086.117-.1172.016-.0781.047-.125.094-.1406.047-.0313.078-.086.094-.1641.156-.1563.258-.2578.305-.3047.125-.0781.187-.1172.187-.1172.016 0 .031-.0078.047-.0234.156-.0781.258-.1094.305-.0938.062.0157.117 0 .164-.0468.125-.0157.195-.0313.211-.0469.031-.0156.062-.0235.093-.0235.063-.0156.118-.0234.164-.0234h.141c.078-.0156.156-.0156.234 0 .094.0156.18.0313.258.0469.125 0 .211.0078.258.0234.188-.0312.305-.039.352-.0234h.117.234c.078-.0156.156-.0078.235.0234.14-.0312.226-.039.257-.0234.047.0156.094.0234.141.0234.156.0313.242.0469.258.0469.015-.0156.031-.0234.047-.0234.156-.0313.234-.0391.234-.0235h.024.281c.125 0 .211.0078.258.0235.125.0937.218.1718.281.2343l.164.211c.031.1562.047.2969.047.4219.015.1562.015.2656 0 .3281-.016.0625-.024.1328-.024.2109v.1641c.016.0625.024.125.024.1875.015.125.015.2422 0 .3515-.016.0938-.024.1875-.024.2813v.2812c.016.0782.024.1641.024.2578-.016.1094-.024.1719-.024.1876.016.0156.024.039.024.0703-.016.1093-.024.1875-.024.2343.016.0469.016.086 0 .1172 0 .0469-.007.0938-.023.1406v.1407c-.016.0781-.024.1562-.024.2343.016.0626.016.1329 0 .211 0 .0781-.007.164-.023.2578v.2344c-.016.1718-.023.3359-.023.4922v.4687c-.016.2188-.024.3985-.024.5391.016.1406.024.2734.024.3984v.3516c0 .1094.007.2109.023.3047-.016.0781-.023.1328-.023.164.015.0313.023.0625.023.0938 0 .1719.008.289.023.3515.016.0469.024.1094.024.1875-.016.2344-.024.4219-.024.5625.016.125.024.25.024.375v.2813c.016.0156.023.0391.023.0703.016.0312.008.0703-.023.1172-.016.0469-.008.0937.023.1406zm-5.086-2.789c-.031.0781-.07.1328-.117.164-.031.0313-.062.0781-.094.1406-.109.0625-.171.1094-.187.1407 0 .0156-.016.039-.047.0703l-.187.1875c-.047.0781-.079.1328-.094.164 0 .0313-.016.0625-.047.0938-.078.0937-.133.1641-.164.2109-.016.0313-.039.0625-.07.0938-.032.0625-.079.1406-.141.2344-.031.0624-.07.1171-.117.164-.031.0313-.055.086-.071.1641-.109.1406-.187.2343-.234.2812-.031.0313-.062.086-.094.1641-.156.1406-.242.2266-.257.2578-.047.1875-.063.2734-.047.2578.031-.0156.047-.0156.047 0 .078.0469.148.0625.21.0469.079-.0156.157-.0235.235-.0235.156.0313.265.0547.328.0704.172-.0157.281-.0157.328 0h.141l.375-.0469c.062.0625.14.0859.234.0703.109-.0156.195 0 .258.0469.156-.125.226-.1875.211-.1875.015-.2656.039-.4532.07-.5625.031-.125.031-.2422 0-.3516 0-.1094 0-.2187 0-.3281.016-.1406.016-.2578 0-.3516 0-.0937.024-.1953.07-.3047-.031-.1875-.039-.289-.023-.3047.016-.0156.023-.039.023-.0703-.015-.0937-.023-.164-.023-.2109.016-.0469.023-.0938.023-.1406 0-.1719.008-.2735.024-.3047.016-.0469.016-.0859 0-.1172-.156-.0313-.266 0-.328.0937-.047.0938-.125.1563-.235.1876zm21.446-1.7813c-.157.3437-.328.5937-.516.75-.109.1406-.164.2187-.164.2344-.109.1562-.18.25-.211.2812-.016.0157-.039.0391-.07.0703-.063.0938-.125.1797-.188.2578-.047.0626-.101.1329-.164.211-.078.1719-.14.2812-.187.3281-.047.0313-.071.0859-.071.1641-.046.0312-.086.0781-.117.1406-.015.0469-.039.0938-.07.1406-.094.1719-.149.2735-.164.3047l-.188.1875c-.109.125-.172.2031-.187.2344 0 .0312-.016.0625-.047.0937-.047.0938-.078.1485-.094.1641-.015.0156-.031.0391-.047.0703-.078.125-.117.1953-.117.2109 0 .0157-.008.0313-.023.0469-.094.1563-.157.2422-.188.2578-.015 0-.031.0157-.047.0469-.062.125-.101.1875-.117.1875-.015 0-.031.0156-.047.0469-.078.0937-.133.1953-.164.3047-.109.1875-.179.3125-.211.375-.031.0625-.078.1172-.14.164-.11.1719-.164.2579-.164.2579-.11.1562-.164.2421-.164.2578 0 .0156-.008.039-.024.0703-.109.1562-.18.2656-.211.3281s-.078.125-.14.1875c-.047.0469-.094.1094-.141.1875-.063.1719-.109.2734-.141.3047-.093.1094-.14.1719-.14.1875s-.008.0312-.024.0469c-.094.1562-.14.2421-.14.2578-.063.2343-.125.3828-.188.4453-.047.0469-.086.1094-.117.1875-.094.1719-.156.2656-.188.2812-.015.125-.054.2579-.117.3985-.078.1562-.125.2578-.14.3047-.016.0312-.039.0625-.071.0937-.015.1094-.047.211-.093.3047-.032.0781-.063.1563-.094.2344-.047.1406-.086.2265-.117.2578-.063.125-.133.2578-.211.3984-.063.1407-.125.2735-.188.3985-.062.0937-.101.1718-.117.2343 0 .0469-.016.1016-.047.1641-.031.0469-.055.1016-.07.1641-.016.0625-.039.1328-.071.2109-.062.125-.093.2266-.093.3047-.125.125-.188.1875-.188.1875-.234.1406-.375.2187-.422.2344-.031.0156-.125.0234-.281.0234h-.445c-.125-.0156-.196-.0156-.211 0-.016 0-.031 0-.047 0-.141 0-.289 0-.445 0-.141 0-.274-.0078-.399-.0234-.047 0-.101.0078-.164.0234-.047 0-.094 0-.14 0-.188-.0312-.321-.0391-.399-.0234-.062.0156-.148.0156-.258 0-.172-.0157-.343-.0157-.515 0-.157 0-.321 0-.493 0-.093.0156-.195.0156-.304 0-.078 0-.149.0078-.211.0234-.047.0156-.11.0234-.188.0234-.156-.0156-.25-.0234-.281-.0234-.031.0156-.062.0156-.094 0-.062-.0156-.117-.0312-.164-.0469-.047-.0156-.101-.0312-.164-.0469.016-.1406.031-.2265.047-.2578.094-.1406.149-.2343.164-.2812.016-.0469.055-.0781.117-.0938.094-.25.188-.4218.282-.5156.078-.0937.117-.1484.117-.164.015-.0157.031-.0313.047-.0469.062-.125.093-.1953.093-.211 0-.0156.008-.039.024-.0703.125-.1406.187-.2187.187-.2344.016-.0156.039-.039.071-.0703.125-.1718.187-.2734.187-.3047.016-.0312.039-.0624.07-.0937.032-.0781.063-.1484.094-.2109l.141-.1875c.094-.1407.164-.2735.211-.3985.031-.0312.054-.0625.07-.0937.031-.0469.063-.0938.094-.1407.078-.1562.117-.2421.117-.2578.016-.0312.039-.0625.07-.0937.032-.1094.063-.1875.094-.2344s.063-.1015.094-.1641c.078-.1562.117-.25.117-.2812 0-.0469.016-.0859.047-.1172.094-.0781.133-.1328.117-.164 0-.0313.016-.0547.047-.0704.094-.1562.156-.25.187-.2812.079-.1719.125-.2656.141-.2813.125-.1875.195-.2968.211-.3281.016-.0312.039-.0625.07-.0937.094-.1563.141-.2422.141-.2579.016-.0312.031-.0624.047-.0937.031-.0313.062-.0703.094-.1172.031-.0469.062-.0859.093-.1172.016-.1093.047-.1875.094-.2343.047-.0626.078-.1407.094-.2344.078-.0625.117-.1172.117-.1641.016-.0469.031-.0859.047-.1172.062-.1093.101-.164.117-.164.016-.0157.031-.0391.047-.0703.016-.0313.023-.0782.023-.1407.016-.0625.039-.1093.071-.1406.093-.1563.14-.2422.14-.2578.016-.0156.039-.0391.071-.0703.078-.1719.14-.2969.187-.375.078-.1563.125-.2344.141-.2344.094-.1562.148-.2422.164-.2578.015-.0313.031-.0625.047-.0938.062-.0937.093-.1562.093-.1875.016-.0312.032-.0547.047-.0703.094-.1562.149-.2344.164-.2344.063-.1093.094-.1718.094-.1874 0-.0157.008-.0391.024-.0704.109-.1406.171-.2422.187-.3046.063-.125.102-.211.117-.2579.032-.0625.071-.1171.117-.164 0-.0625.016-.1094.047-.1407.032-.0312.055-.0624.071-.0937.062-.1094.109-.1953.14-.2578.11-.125.164-.1953.164-.2109 0-.0157.008-.0313.024-.0469.125-.125.187-.1875.187-.1875.11-.1719.172-.2578.188-.2578.015-.0157.023-.0391.023-.0704.047-.0312.086-.0624.117-.0937.032-.0469.063-.0859.094-.1172.016-.0781.07-.1797.164-.3047.063-.1094.086-.1718.071-.1875 0-.0312.015-.0625.046-.0937-.171.0468-.265.0781-.281.0937 0 0-.015 0-.047 0l-.703.0235c-.172-.0157-.32-.0157-.445 0-.125 0-.235 0-.328 0-.157 0-.282.0078-.375.0234-.094.0156-.219.0156-.375 0-.203 0-.336.0078-.399.0234-.062 0-.125-.0078-.187-.0234-.188 0-.391 0-.61 0-.062.0156-.117.0312-.164.0469-.047 0-.101 0-.164 0-.078.0156-.156.0234-.234.0234-.063-.0156-.133-.0078-.211.0235-.094.0156-.156.0234-.188.0234-.031-.0156-.078-.0234-.14-.0234-.219.0312-.352.0468-.399.0468-.187.0156-.289.0313-.304.0469-.016 0-.039 0-.071 0-.078.0313-.156.0469-.234.0469-.062 0-.133.0078-.211.0234-.156.0625-.266.0938-.328.0938-.063 0-.133.0078-.211.0234-.156.0312-.258.0547-.305.0703-.031 0-.078.0156-.14.0469-.047.0156-.102.0078-.164-.0234-.078-.0469-.133-.086-.164-.1172-.016-.0469-.039-.086-.071-.1172.016-.0625.008-.1172-.023-.1641-.016-.0625-.024-.1328-.024-.2109-.015-.0469-.015-.0938 0-.1406.032-.0469.024-.086-.023-.1172-.016-.1875-.023-.3907-.023-.6094.015-.2344.031-.4375.046-.6094.016-.2031.024-.3437.024-.4219.015-.0781.031-.1718.047-.2812-.016-.125-.008-.2188.023-.2813-.015-.1093-.008-.2109.024-.3046.015-.0626.015-.1172 0-.1641-.016-.0469 0-.0781.046-.0938-.031-.1406-.046-.2343-.046-.2812-.016-.1406-.024-.2266-.024-.2578.016-.0469.024-.086.024-.1172l.046-.2813v-.375c.016-.0781.016-.1484 0-.2109 0-.0781.008-.1406.024-.1875l.141-.2344c.078-.0937.14-.1484.187-.164.047-.0313.102-.0469.164-.0469.188.0469.289.0781.305.0937.015.0157.039.0235.07.0235.203 0 .328.0156.375.0469.063.0312.117.0546.164.0703.11.0468.227.0703.352.0703l.258.0703c.093.0156.179.0234.257.0234.157.0157.235.0235.235.0235 0-.0157.008-.0235.023-.0235.141.0157.25.0235.328.0235s.149.0156.211.0468c.141-.0312.219-.0468.235-.0468.015-.0157.039-.0235.07-.0235h.351c.204.0313.313.0469.329.0469.078 0 .148-.0078.211-.0234.062-.0157.132-.0157.21 0 .047.0156.133.039.258.0703.125-.0313.258-.0313.399 0 .156.0156.304.0156.445 0h.727c.25-.0157.5-.0157.75 0 .171.0156.265.0312.281.0469h.047c.156.0156.234.0234.234.0234.016-.0156.039-.0234.07-.0234h.469c.141 0 .281-.0079.422-.0235h.328c.094 0 .203-.0078.328-.0234.078.0156.149.0312.211.0469h.235.234c.078-.0157.156-.0235.234-.0235.172 0 .336.0078.493.0235.156 0 .312-.0079.468-.0235h.117c.063-.0156.11-.0234.141-.0234.234-.0625.414-.0781.539-.0469l.258.0469c.203.1875.305.3359.305.4453.031.125.039.25.023.375s-.023.25-.023.375c-.016.1094-.024.2578-.024.4453s.008.3516.024.4922c0 .0781.007.1484.023.2109.016.0469.024.1016.024.1641 0 .0469-.008.1015-.024.1641v.164c.031.1719.047.2891.047.3516.016.0468.023.0859.023.1172.032.1718.039.289.024.3515v.1875c0 .1719-.008.2891-.024.3516 0 .0625.008.1172.024.164v.375c0 .0938.015.1876.047.2813zm10.406.0469c.141.0937.211.1484.211.164.109.0625.172.1094.187.1407.032.0156.047.039.047.0703-.015.1406-.015.25 0 .3281.016.0625.008.1094-.023.1406-.047.1407-.07.2344-.07.2813.015.0312.015.0625 0 .0937 0 .0625-.008.1172-.024.1641v.164.2813.1406c.016.0313.024.0781.024.1407.031.1406.039.2343.023.2812 0 .0469.016.0938.047.1406-.031.0782-.047.1641-.047.2578 0 .0782-.023.1485-.07.211-.11.0625-.172.0781-.188.0468 0-.0312-.023-.039-.07-.0234-.11.0313-.219.0391-.328.0234-.094-.0156-.211-.0234-.352-.0234-.156 0-.273 0-.351 0-.063-.0156-.125-.0234-.188-.0234l-.75-.0235c-.172 0-.258 0-.258 0-.109 0-.226.0079-.351.0235-.11 0-.219 0-.328 0-.141-.0156-.235-.0156-.282 0-.031 0-.062 0-.093 0-.079 0-.149.0078-.211.0234-.063 0-.125 0-.188 0-.109-.0156-.211-.0156-.305 0-.078.0156-.148.0156-.21 0l-.399.0234c-.016.0157-.055.0235-.117.0235-.047 0-.102 0-.164 0-.094.0156-.195.0234-.305.0234-.203.0157-.344.0235-.422.0235-.062-.0157-.133-.0235-.211-.0235-.14 0-.226 0-.257 0-.032-.0156-.063-.0234-.094-.0234-.172-.0156-.274-.0235-.305-.0235-.031-.0156-.086-.0156-.164 0-.156-.0156-.281-.0234-.375-.0234s-.18 0-.258 0c-.062 0-.125.0078-.187.0234-.047 0-.11 0-.188 0-.109.0313-.211.0469-.304.0469-.079 0-.157 0-.235 0-.14 0-.226.0078-.258.0235-.015 0-.039-.0078-.07-.0235-.234-.0625-.367-.1015-.398-.1172-.094-.0937-.141-.1484-.141-.164 0-.0313-.008-.0625-.023-.0938-.063-.1719-.11-.2734-.141-.3047-.016-.0312-.024-.0625-.024-.0937-.031-.0781-.039-.1563-.023-.2344.016-.0937.023-.1875.023-.2812 0-.1719-.007-.336-.023-.4922 0-.1563.008-.3125.023-.4688.032-.0937.047-.1797.047-.2578-.015-.1406-.007-.2265.024-.2578.062-.1094.101-.1719.117-.1875.031-.0156.07-.0391.117-.0703.156-.0469.242-.0703.258-.0703.031-.0156.055-.0235.07-.0235.141-.0156.242 0 .305.0469.156 0 .305-.0078.445-.0234.157-.0313.313-.0391.469-.0235.047 0 .094.0079.141.0235h.187c.125.0156.211.0234.258.0234.047-.0156.086-.0234.117-.0234.172-.0156.258-.0156.258 0h.07c.282.0156.485.0156.61 0 .125-.0313.234-.0156.328.0468.187-.0156.297-.0234.328-.0234s.062.0156.094.0469c.156 0 .242.0078.257.0234h.047c.188.0157.297.0235.328.0235.047-.0157.102-.0157.165 0 .078 0 .132.0078.164.0234h.093.258.164c.047-.0156.086-.0234.117-.0234.188.0156.305.0234.352.0234.047-.0156.094-.0234.141-.0234h.468c.094-.0157.196-.0235.305-.0235h.188c.078-.0156.14-.0234.187-.0234.078-.0156.156-.0156.234 0 .079.0156.157.0156.235 0 .172-.0156.289-.0313.351-.0469.078-.0156.149-.0234.211-.0234.032.0156.071.0234.117.0234.063 0 .11.0078.141.0234.125 0 .195.0079.211.0235h.047zm.492 5.3203-.047.2812v.3282c0 .1093.008.1875.024.2343.031.0313.054.0625.07.0938-.016.0625-.023.1172-.023.164 0 .0313.007.0704.023.1172-.016.2032-.031.336-.047.3985 0 .0469-.015.1093-.047.1875-.078 0-.156.0078-.234.0234s-.156.0234-.234.0234c-.047 0-.094-.0078-.141-.0234s-.094-.0234-.141-.0234-.093 0-.14 0-.11-.0078-.188-.0235c-.047 0-.094 0-.14 0-.047-.0156-.094-.0234-.141-.0234-.078 0-.156.0156-.234.0469-.063.0156-.133.0234-.211.0234-.079 0-.18-.0156-.305-.0469-.141-.0156-.281-.0156-.422 0-.125.0157-.25.0313-.375.0469-.156.0313-.336.0469-.539.0469-.203-.0156-.398-.0156-.586 0-.078 0-.148.0078-.211.0234-.062 0-.133.0078-.211.0235-.078 0-.156.0078-.234.0234-.063 0-.133 0-.211 0-.078-.0156-.149-.0312-.211-.0469-.063-.0156-.133-.0234-.211-.0234-.125-.0156-.242-.0156-.352 0-.078 0-.164.0078-.257.0234-.079.0157-.157.0157-.235 0-.156-.0469-.242-.0703-.258-.0703-.187.0625-.304.0938-.351.0938-.047-.0157-.086-.0235-.117-.0235-.078 0-.149.0078-.211.0235-.047.0156-.094.0234-.141.0234-.078.0156-.156.0156-.234 0-.063-.0156-.133-.0234-.211-.0234-.11 0-.203 0-.281 0-.063 0-.125 0-.188 0l-.492-.0469c-.141.0312-.242.0391-.305.0234l-.469-.1875c-.093-.125-.14-.2031-.14-.2344-.047-.0781-.071-.1406-.071-.1874.016-.0469.016-.086 0-.1172l-.023-.4219c-.016-.1094-.031-.2188-.047-.3281 0-.125 0-.2422 0-.3516-.015-.1719-.015-.2969 0-.375-.031-.125-.031-.2344 0-.3281l.07-.2578c.032-.0938.055-.1485.071-.1641.031-.0156.054-.0391.07-.0703.188-.0313.289-.0547.305-.0703.015-.0156.039-.0313.07-.0469.063-.0156.133-.0156.211 0s.133.0234.164.0234c.141-.0312.227-.039.258-.0234h.094c.234.0156.437.0234.609.0234.109.0157.211.0235.305.0235.109-.0156.211-.0156.304 0 .172.0312.266.039.282.0234.015-.0156.039-.0234.07-.0234.047 0 .102.0078.164.0234h.164.117c.047-.0156.094-.0234.141-.0234h.281c.11 0 .188.0078.235.0234h.187c.125-.0156.195-.0156.211 0 .031 0 .055-.0156.07-.0469.063.0313.125.0469.188.0469.062 0 .117.0078.164.0234h.375c.078 0 .156.0079.234.0235.078 0 .156.0078.235.0234h.492.703.562c.172-.0156.297-.0234.375-.0234.079-.0156.141-.0235.188-.0235.078-.0156.156-.0234.234-.0234h.258c.156-.0156.281-.0234.375-.0234h.305c.047 0 .094.0078.14.0234h.118c.171.0625.257.0938.257.0938.016 0 .032.0078.047.0234.078.1406.117.2188.117.2344.016.0156.024.0312.024.0468-.031.0938-.047.1563-.047.1876.016.0312.023.0624.023.0937-.046.1719-.078.2734-.093.3047-.016.0312-.024.0625-.024.0937zm9.961-9.8438c.063.1407.156.2344.281.2813.125.1406.203.2344.235.2812.047.0469.093.0938.14.1407.11.0781.164.125.164.1406.016.0156.024.0312.024.0469.125.125.203.2031.234.2343.078.1407.133.2266.164.2579.047.0312.071.0859.071.164.156.1719.242.2734.257.3047.11.1563.164.25.164.2813.016.0312.032.0624.047.0937.032.0469.047.1016.047.1641 0 .0468.016.1015.047.164.047.125.078.1953.094.211.015 0 .031.0156.047.0468.047.125.07.2032.07.2344.016.0156.039.0391.07.0703 0 .0781.016.1797.047.3047.016.1875.031.3047.047.3516.016.0312.024.0703.024.1172 0 .2187.031.3593.093.4218-.031.0782-.039.1563-.023.2344.015.0625.031.1406.047.2344.015.1406.008.2578-.024.3516-.031.0937-.047.1718-.047.2343s-.007.1172-.023.1641c-.016.0625-.031.1172-.047.164-.016.0469-.031.1016-.047.1641-.031.0625-.047.125-.047.1875 0 .0469-.007.1094-.023.1875l-.188.5156c-.031.0625-.062.125-.093.1875-.016.0625-.039.125-.071.1875-.093.1563-.156.2579-.187.3047-.031.0469-.063.0938-.094.1406-.125.1719-.203.2657-.234.2813-.016 0-.032.0156-.047.0469-.156.2187-.258.3437-.305.375l-.258.164c-.109.1094-.187.1875-.234.2344s-.102.1016-.164.1641c-.172.1093-.289.2343-.352.375-.062.0156-.156.0547-.281.1172-.109.0625-.172.1015-.187.1171-.016.0157-.039.0313-.071.0469-.093.0313-.156.0469-.187.0469-.016 0-.039.0078-.071.0234-.031.0157-.078.0391-.14.0704-.063.0312-.11.0703-.141.1171.016.1407.016.2188 0 .2344v.0703c.016.1563.024.2656.024.3282-.047.125-.071.2343-.071.3281.016.0937.032.1875.047.2812 0 .125-.008.2344-.023.3281 0 .0782.008.1876.023.3282.016.0312.024.0859.024.164v.1875c-.032.0313-.071.0703-.118.1172-.031.0469-.07.086-.117.1172-.156.0313-.25.0547-.281.0703-.016.0156-.039.0235-.07.0235-.188-.0157-.321-.0157-.399 0-.078 0-.156 0-.234 0l-.492-.0235c-.078 0-.141.0078-.188.0235-.047 0-.101-.0157-.164-.0469-.062.0312-.172.0312-.328 0-.031 0-.078.0078-.141.0234-.046 0-.086 0-.117 0-.094.0156-.211.0235-.351.0235-.141 0-.274.0078-.399.0234-.094 0-.195 0-.304 0-.094-.0156-.18-.0156-.258 0-.047 0-.094.0078-.141.0234-.047.0157-.109.0079-.187-.0234-.11-.0313-.196-.0469-.258-.0469-.047 0-.078 0-.094 0-.016-.0625-.031-.1094-.047-.1406-.015-.0312-.039-.0625-.07-.0938-.047-.1718-.07-.2578-.07-.2578 0-.1718-.008-.2812-.024-.3281 0-.0625 0-.1484 0-.2578.016-.25.008-.4141-.023-.4922v-.5156c-.016-.1406-.024-.2266-.024-.2578.016-.0313.024-.0625.024-.0938.015-.0625.023-.125.023-.1875s0-.125 0-.1875c-.031-.1562-.047-.25-.047-.2812.016-.0313.024-.0703.024-.1172 0-.0313 0-.0781 0-.1406.015-.0782.023-.1329.023-.1641 0-.1094 0-.1953 0-.2578.016-.0625.008-.125-.023-.1875.047-.1875.054-.3203.023-.3985-.016-.0937-.008-.1796.024-.2578.078-.1093.117-.1875.117-.2343.047-.1094.078-.1719.093-.1875.016-.0157.016-.0391 0-.0704.063-.0312.102-.0624.118-.0937.031-.0469.062-.0859.093-.1172.157-.0937.274-.1484.352-.1641.078-.0312.164-.0703.258-.1171.203-.0625.328-.1016.375-.1172.047-.0157.101-.0313.164-.0469.047-.0156.086-.0234.117-.0234.047 0 .094-.0078.141-.0235.156-.0625.234-.1015.234-.1172.078.0157.188 0 .328-.0468.094-.0625.149-.0938.164-.0938.016-.0156.039-.0234.071-.0234.125-.0781.203-.1328.234-.1641.031-.0312.062-.0547.094-.0703.047-.0313.086-.0625.117-.0937.172-.1563.305-.2813.398-.375.063-.1094.094-.1797.094-.211.016-.0312.031-.0625.047-.0937l.047-.2579c.047-.1562.054-.2968.023-.4218-.015-.1406-.039-.25-.07-.3282-.078-.1406-.117-.2109-.117-.2109 0-.0156-.008-.0234-.024-.0234-.078-.0938-.133-.1407-.164-.1407s-.054-.0156-.07-.0468c-.063-.0156-.172-.0547-.328-.1172-.063-.0313-.149-.0469-.258-.0469-.125.0156-.203.0235-.234.0235-.032-.0157-.079-.0235-.141-.0235-.031.0156-.07.0313-.117.0469-.031.0156-.078.0312-.141.0469-.219.0937-.351.164-.398.2109-.047.0312-.102.0625-.164.0938-.078.1093-.133.1796-.164.2109-.032.0156-.055.0391-.071.0703-.047.0469-.086.0938-.117.1406-.031.0313-.062.0625-.094.0938-.015.0781-.047.1406-.093.1875-.047.0469-.071.1172-.071.2109l-.234.1406c-.109.0938-.203.1407-.281.1407-.078-.0157-.149-.0157-.211 0-.125-.0625-.188-.1016-.188-.1172 0-.0157-.015-.0235-.047-.0235-.109-.0937-.179-.1406-.211-.1406-.031 0-.062-.0156-.093-.0469-.11-.0312-.18-.0547-.211-.0703-.032-.0312-.071-.0625-.117-.0937-.172-.0313-.258-.0547-.258-.0703-.125-.0782-.203-.1328-.235-.1641-.156-.0625-.257-.1016-.304-.1172-.032-.0312-.063-.0547-.094-.0703-.172-.0625-.289-.1094-.352-.1406-.047-.0313-.101-.0625-.164-.0938-.156-.0781-.297-.164-.422-.2578-.031-.0156-.078-.0312-.14-.0469-.047-.0156-.086-.039-.117-.0703-.188-.0468-.344-.1328-.469-.2578.062-.1406.086-.2187.07-.2344-.015-.0156-.023-.039-.023-.0703l.07-.2812c.078-.1719.141-.2813.188-.3281.062-.0469.101-.1094.117-.1876.078-.0937.117-.1562.117-.1874 0-.0313.008-.0626.023-.0938.094-.1094.149-.1797.164-.2109.016-.0469.032-.0938.047-.1407.078-.0937.117-.1562.117-.1875 0-.0312.008-.0547.024-.0703.109-.125.172-.2031.187-.2344.032-.0468.063-.0859.094-.1171.047-.125.086-.2032.117-.2344.032-.0313.063-.0625.094-.0938.047-.0312.07-.0781.07-.1406.047-.0156.079-.0391.094-.0703.031-.0469.063-.0859.094-.1172.141-.1406.226-.2266.258-.2578.031-.0312.062-.0625.093-.0938.172-.1562.297-.25.375-.2812.094-.0938.219-.1719.375-.2344.157-.0625.243-.1015.258-.1172.032-.0312.063-.0546.094-.0703.141-.0312.258-.0469.352-.0469.203-.0468.398-.1171.586-.2109.234-.0781.437-.125.609-.1406.141.0156.219.0234.234.0234.032-.0156.063-.0234.094-.0234.172-.0469.289-.0625.352-.0469h.164c.078 0 .156.0078.234.0234h.211c.125 0 .195-.0078.211-.0234.031-.0156.062-.0234.094-.0234.125.0312.195.0468.211.0468.015-.0156.039-.0078.07.0235.078-.0156.172-.0078.281.0234.063.0157.117.0313.164.0469.047 0 .102.0078.164.0234.047.0313.094.0625.141.0938.047.0156.094.0312.141.0469.156.0625.25.0937.281.0937.047 0 .094.0156.14.0469.11.0625.172.0937.188.0937s.039.0078.07.0235c.063.0312.125.0547.188.0703.062 0 .117.0156.164.0469.156.0781.242.125.258.1406.031.0156.062.0312.093.0469.11.0781.18.1328.211.164.125.0938.188.125.188.0938.015-.0469.039-.0547.07-.0235zm-2.203 13.4766c.047.0313.086.0547.117.0703.047.0156.094.0234.141.0234.078.0782.187.1407.328.1876.109.0781.18.1328.211.164.109.1094.18.1953.211.2578.078.125.125.2032.14.2344.032.0312.055.0625.071.0938l.093.3515v.2578c-.015.0625-.023.1485-.023.2578-.031.1719-.055.2735-.07.3047v.0703c-.032.0313-.063.0625-.094.0938-.016.0312-.039.0703-.07.1172-.078.125-.172.25-.282.375-.109.1093-.242.2031-.398.2812-.125.0938-.234.1641-.328.211-.156.0312-.25.0547-.281.0703-.016.0156-.039.0312-.071.0468-.156.0157-.242.0157-.258 0 0 0-.015.0079-.046.0235-.063 0-.118.0078-.164.0234-.047.0157-.086.0235-.118.0235-.156-.0157-.242-.0235-.257-.0235-.079-.0156-.172-.0234-.282-.0234-.109.0156-.203.0078-.281-.0235-.125-.0468-.219-.0703-.281-.0703-.063.0157-.125.0079-.188-.0234-.062-.0156-.14-.0547-.234-.1172-.078-.0312-.149-.0547-.211-.0703-.047-.0312-.109-.0625-.188-.0938-.203-.1406-.335-.2421-.398-.3046-.062-.0782-.109-.1719-.141-.2813-.078-.0312-.117-.0703-.117-.1172 0-.0625-.031-.125-.094-.1875-.046-.1718-.07-.2656-.07-.2812.016-.0156.024-.0391.024-.0703 0-.1719-.008-.2657-.024-.2813 0-.0156.008-.039.024-.0703.062-.125.093-.2344.093-.3281.016-.0938.047-.1797.094-.2578.109-.1094.172-.1797.188-.211.015-.0312.039-.0625.07-.0937.078-.1094.141-.1797.187-.211.141-.125.227-.1953.258-.2109.047-.0156.086-.0391.117-.0703.125-.0313.235-.0703.329-.1172.203-.0937.39-.1563.562-.1875l.539-.0234c.234 0 .445.0234.633.0703.172.0312.258.0547.258.0703s.008.0234.023.0234c.047.0156.094.0235.141.0235s.086.0078.117.0234z" fill="#693821"/></svg>