<svg fill="none" height="181" viewBox="0 0 233 181" width="233" xmlns="http://www.w3.org/2000/svg"><g fill="#6a290b"><path d="m100.62 8.4349c-38.0264 13.2622-67.6151 41.3892-81.4188 75.8668-13.18022 32.8953-11.08743 76.6083 30.3457 91.2323 42.7245 15.085 90.7481-3.185 123.2091-28.828 32.438-25.603 58.865-65.1488 43.993-104.9153-7.236-19.3324-23.711-34.03694-45.73-39.42595-25.737-6.31055-52.075.70117-74.2503 12.84145-3.0279 1.6628-.2671 5.95 2.783 4.2872 19.9703-10.8181 43.1033-17.58942 66.4803-13.06185 21.061 4.06685 37.47 17.18875 44.795 35.33905 14.605 36.1405-7.948 72.5614-36.669 97.1624-28.52 24.401-69.508 42.952-109.7387 35.78-22.1304-3.947-39.6966-15.786-45.7524-35.84-4.8981-16.207-2.6049-33.636 2.8943-49.4828 12.3119-35.4793 42.2792-64.4677 79.4378-80.13393.512-.22037.156-1.0217-.379-.82137z"/><path d="m201.567 142.445c-4.642 1.9-11.307 6.995-11.56 12.028-.275 5.596 7.125 6.431 11.399 4.761 5.125-2.005 10.779-6.933 11.537-12.174.368-2.443-1.08-4.573-3.562-5.533-3.079-1.212-6.182-.105-9.078 1.023-2.757 1.086-.367 4.823 2.367 3.696 1.264-.627 2.597-.982 4.022-1.086 1.402 1.399 1.632 2.694.644 3.925-.414 1.024-1.448 2.109-2.206 2.903-1.885 1.921-4.528 4.03-7.401 4.427-3.562.501-5.01-1.9-3.424-4.782.506-.919 1.103-1.817 1.77-2.673 1.723-2.213 3.93-3.905 6.251-5.596.62-.438-.161-1.169-.759-.919z"/><path d="m201.567 142.445c-4.642 1.9-11.307 6.995-11.56 12.028-.275 5.596 7.125 6.431 11.399 4.761 5.125-2.005 10.779-6.933 11.537-12.174.368-2.443-1.08-4.573-3.562-5.533-3.079-1.212-6.182-.105-9.078 1.023-2.757 1.086-.367 4.823 2.367 3.696 1.264-.627 2.597-.982 4.022-1.086 1.402 1.399 1.632 2.694.644 3.925-.414 1.024-1.448 2.109-2.206 2.903-1.885 1.921-4.528 4.03-7.401 4.427-3.562.501-5.01-1.9-3.424-4.782.506-.919 1.103-1.817 1.77-2.673 1.723-2.213 3.93-3.905 6.251-5.596.62-.438-.161-1.169-.759-.919z"/><path d="m210.709 167.377c-3.307 1.521-7.205 4.522-5.126 8.316 2.173 3.944 8.197 2.122 10.961-.215 2.882-2.421 3.519-6.944.33-9.409-2.74-2.122-7.63-.964-8.315 2.401-.378 1.865 2.575 2.679 3.189.793.567-1.715 2.93-1.243 3.496.193.662 1.693-.59 3.322-2.078 4.244-1.465.9-4.63 1.95-4.843-.536-.165-1.929 1.937-3.494 3.307-4.694.662-.579-.165-1.436-.921-1.093z"/><path d="m210.709 167.377c-3.307 1.521-7.205 4.522-5.126 8.316 2.173 3.944 8.197 2.122 10.961-.215 2.882-2.421 3.519-6.944.33-9.409-2.74-2.122-7.63-.964-8.315 2.401-.378 1.865 2.575 2.679 3.189.793.567-1.715 2.93-1.243 3.496.193.662 1.693-.59 3.322-2.078 4.244-1.465.9-4.63 1.95-4.843-.536-.165-1.929 1.937-3.494 3.307-4.694.662-.579-.165-1.436-.921-1.093z"/><path d="m21.2578 103.169c-2.2289 9.866-1.3981 19.895 1.7223 29.477.2026.628 1.1954.345.9928-.263-3.2014-9.603-3.708-19.105-2.2491-29.072.0405-.304-.4052-.446-.466-.142z"/><path d="m21.2578 103.169c-2.2289 9.866-1.3981 19.895 1.7223 29.477.2026.628 1.1954.345.9928-.263-3.2014-9.603-3.708-19.105-2.2491-29.072.0405-.304-.4052-.446-.466-.142z"/><path d="m19.1827 136.172c-1.0863 13.673 2.6851 26.669 10.9246 37.632.3484.473 1.1683 0 .7993-.472-8.3215-10.84-12.2158-23.528-11.3754-37.18 0-.206-.3485-.206-.3485.02z"/><path d="m19.1827 136.172c-1.0863 13.673 2.6851 26.669 10.9246 37.632.3484.473 1.1683 0 .7993-.472-8.3215-10.84-12.2158-23.528-11.3754-37.18 0-.206-.3485-.206-.3485.02z"/><path d="m185.027 48.3131c3.272 5.8824 5.65 12.0017 7.242 18.4368.109.4342.829.2566.72-.1777-1.636-6.4548-4.188-12.5939-7.569-18.4565-.153-.2566-.523-.0395-.393.1974z"/><path d="m185.027 48.3131c3.272 5.8824 5.65 12.0017 7.242 18.4368.109.4342.829.2566.72-.1777-1.636-6.4548-4.188-12.5939-7.569-18.4565-.153-.2566-.523-.0395-.393.1974z"/><path d="m222.054 46.4374c7.271 10.1834 10.603 21.141 9.554 33.0713-.046.6551 1.142.6551 1.212 0 1.026-11.9104-2.33-23.4238-10.16-33.369-.257-.3177-.839-.0397-.606.2977z"/><path d="m222.054 46.4374c7.271 10.1834 10.603 21.141 9.554 33.0713-.046.6551 1.142.6551 1.212 0 1.026-11.9104-2.33-23.4238-10.16-33.369-.257-.3177-.839-.0397-.606.2977z"/></g><path d="m77.5273 79.7266c.1875 0 .3438.0078.4688.0234h.3984c.1094.0625.25.0938.4219.0938.1406.0156.2344.0312.2813.0468.0625.0156.125.0235.1875.0235.2187-.0469.3984-.0547.539-.0235.2344.0313.3985.0391.4922.0235.1094-.0313.2188-.0391.3281-.0235.1719.0313.2813.0391.3282.0235.0468-.0157.0937-.0157.1406 0 .1719.0312.2656.0468.2812.0468.0157-.0156.0391-.0234.0703-.0234.1094.0313.1954.0391.2579.0234.0312.0157.0937.0157.1875 0 .1093-.0156.1875-.0234.2343-.0234.1407.0156.2735.0313.3985.0469.1406 0 .2734-.0156.3984-.0469.1875 0 .2891.0078.3047.0234h.0937.1875c.0625-.0156.1172-.0234.1641-.0234.0469-.0156.0859-.0156.1172 0h.1406c.1875-.0156.2969-.0156.3281 0h.1641c.1406.0313.25.0391.3281.0234.0938-.0312.1797-.039.2578-.0234.2188.0625.3829.1094.4922.1406.125.0157.2266.0547.3047.1172.0781 0 .1406.0235.1875.0703.0625.0313.125.0625.1875.0938.1719.0781.2735.1328.3047.164.0313.0157.0625.0391.0938.0704.0625.0312.1171.0546.164.0703.0625.0156.1094.0547.1406.1171.1094.0626.1641.1094.1641.1407.0156.0156.0313.039.0469.0703.0781.1406.1484.2266.2109.2578s.1172.0703.1641.1172c.0312.0469.0625.1016.0937.164.0313.0469.0625.0938.0938.1407.0937.1562.1484.2422.164.2578.0938.125.1563.2109.1875.2578.0313.0313.0625.0703.0938.1172.0312.0469.0547.0937.0703.1406.0313.0313.0625.0781.0938.1406.1093.1407.1718.2188.1875.2344.0468.0781.1015.1641.164.2578l.1641.2813c.0469.1094.0781.1718.0937.1875.0157 0 .0313.0156.0469.0469.0781.1562.125.2421.1406.2578.0157 0 .0313.0078.0469.0234.0938.1719.1484.2734.1641.3047.1406.1562.2109.2656.2109.3281.0156.0625.0391.1172.0703.1641.0313.0625.0781.1406.1406.2343.0782.1563.125.2344.1407.2344.0312.0625.0625.1172.0937.1641.0469.0312.086.0703.1172.1172.0625.125.0938.2109.0938.2578.0156.0469.039.0859.0703.1172.0937.1875.1406.3047.1406.3515 0 .0469.0156.0938.0469.1407.1093.2187.1797.3593.2109.4218.0625.125.0938.1953.0938.211 0 .0156.0078.039.0234.0703.0469.0781.0781.1562.0937.2344.0157.0625.0235.1093.0235.1406.0469.1406.0625.2422.0469.3047 0 .0469.0156.1093.0468.1875.0157.0781.0313.1562.0469.2344.0313.0781.0313.164 0 .2578.0469.2031.0625.3359.0469.3984v.2109.1641c.0156.0469.0156.1016 0 .1641s-.0313.125-.0469.1875c-.0156.0468-.0312.1015-.0469.164l-.1172.3282c-.0156.0468-.0312.1015-.0468.164 0 .0469-.0157.0938-.0469.1406.0156.0469 0 .1094-.0469.1875-.0469.0782-.0781.1329-.0937.1641-.0313.1875-.0625.2969-.0938.3281-.0312.0625-.0625.125-.0937.1875-.0157.0625-.0469.1328-.0938.211-.0937.1875-.1406.2812-.1406.2812-.0313.0781-.0703.1484-.1172.211-.0469.0468-.0859.1015-.1172.164-.0625.0938-.1172.1641-.164.211-.0938.25-.1407.3828-.1407.3984-.0625.0781-.1015.1328-.1172.164 0 .0313-.0156.0626-.0468.0938-.1094.1562-.1719.25-.1875.2812-.0157.0157-.0391.0469-.0703.0938-.1094.1719-.1719.2734-.1875.3047-.0157.0312-.0313.0625-.0469.0937-.0938.1407-.1485.2188-.1641.2344-.0156 0-.0312.0156-.0469.0469-.0937.1406-.1484.2187-.164.2344-.0156.0156-.0391.0312-.0703.0468-.0938.1875-.1719.3047-.2344.3516-.1406.25-.2813.4531-.4219.6094-.1094.1093-.1719.1797-.1875.2109 0 .0156-.0156.0391-.0469.0703-.0937.1407-.1718.2266-.2343.2578-.1407.1407-.2266.2266-.2578.2579-.0157.0156-.0391.0312-.0704.0468-.0937.1094-.1718.1953-.2343.2578-.0469.0625-.1016.1172-.1641.1641-.0781.1406-.1328.2187-.1641.2344-.0156.0156-.039.0312-.0703.0469-.1406.0468-.2265.0781-.2578.0937-.1719.1094-.2969.1719-.375.1875-.0625 0-.1328.0078-.2109.0234-.1719.0469-.2735.0782-.3047.0938-.0313.0156-.0625.0234-.0938.0234-.1562 0-.2578 0-.3046 0-.0469.0156-.1016.0078-.1641-.0234-.0781.0312-.1641.039-.2578.0234-.0938-.0156-.1953-.0234-.3047-.0234-.0469 0-.1016.0078-.1641.0234s-.125.0078-.1875-.0234c-.125 0-.2031 0-.2343 0-.0313.0156-.0625.0156-.0938 0-.1562 0-.25-.0078-.2812-.0234-.0938 0-.1563-.0079-.1875-.0235-.0157 0-.0391 0-.0704 0-.2187.0313-.3593.0391-.4218.0235-.0625 0-.1328 0-.211 0-.2343 0-.3906-.0079-.4687-.0235-.0625 0-.1328 0-.211 0-.1406 0-.2265 0-.2578 0-.0312.0156-.0625.0235-.0937.0235-.0469 0-.0938-.0079-.1406-.0235-.0469 0-.0938 0-.1407 0-.125.0156-.1953.0156-.2109 0 0 0-.0156 0-.0469 0-.0937 0-.1953 0-.3047 0-.1093.0156-.2109.0313-.3047.0469-.125-.0156-.2109-.0234-.2578-.0234l-.2578.0234-.2812-.0234c-.1719.0312-.2969.0468-.375.0468-.125 0-.211.0078-.2578.0235-.1719.0156-.2891.0234-.3516.0234-.0469.0156-.0938.0234-.1406.0234-.2188 0-.3828 0-.4922 0s-.2188.0079-.3281.0235c-.1094-.0469-.1797-.0782-.211-.0938-.0156 0-.039-.0078-.0703-.0234-.1406.0156-.2187.0156-.2344 0-.0156 0-.039 0-.0703 0-.1719-.0469-.2812-.0781-.3281-.0938-.0313-.0156-.0547-.0468-.0703-.0937-.125-.0469-.1953-.0781-.211-.0938 0-.0312-.0156-.039-.0468-.0234-.0157-.0625-.0391-.1172-.0703-.1641-.0157-.0468-.0313-.1093-.0469-.1875 0-.0468 0-.0937 0-.1406.0156-.0625.0234-.1172.0234-.1641.0156-.1718.0156-.375 0-.6093 0-.2344.0156-.4297.0469-.586.0156-.1718.0234-.2578.0234-.2578.0313-.2031.0469-.3281.0469-.375.0156-.0469.0313-.1093.0469-.1875.0156-.1562.0234-.2812.0234-.375.0156-.1094.0235-.2031.0235-.2812-.0157-.0938-.0235-.1563-.0235-.1875.0156-.0469.0078-.086-.0234-.1172.0312-.0625.039-.1172.0234-.1641 0-.0625.0078-.125.0235-.1875 0-.1719 0-.2812 0-.3281.0156-.0469.0234-.0859.0234-.1172.0469-.1562.0625-.2422.0469-.2578-.0157-.0156-.0235-.0391-.0235-.0703-.0312-.0781-.0156-.1953.0469-.3516-.0312-.1875-.0391-.2969-.0234-.3281.0156-.0312.0234-.0625.0234-.0938-.0312-.1406-.0547-.2265-.0703-.2578 0-.0312-.0078-.0625-.0234-.0937.0156-.1406.0156-.2188 0-.2344 0-.0156 0-.0391 0-.0703.0312-.1875.0468-.2969.0468-.3281-.0156-.2031-.0156-.3281 0-.375.0313-.0469.0469-.0938.0469-.1407 0-.0312-.0156-.0703-.0469-.1171-.0156-.0469-.0312-.0938-.0468-.1407-.0313-.2187-.0391-.4296-.0235-.6328.0313-.2187.0391-.4297.0235-.6328-.0313-.1875-.0313-.3594 0-.5156 0-.1094-.0079-.2188-.0235-.3281 0-.125-.0078-.2422-.0234-.3516.0156-.1563.0234-.2422.0234-.2578l.0235-.7266c-.0157-.0781-.0313-.1484-.0469-.2109 0-.0625 0-.1328 0-.211 0-.0468 0-.0937 0-.1406.0156-.0625.0234-.125.0234-.1875s-.0078-.125-.0234-.1875-.0235-.125-.0235-.1875c.0157-.1875.0157-.289 0-.3047 0-.0156 0-.039 0-.0703 0-.0781 0-.1484 0-.2109.0157-.0625 0-.125-.0468-.1875v-.3281c-.0469-.1875-.0703-.336-.0703-.4454.0156-.1093.0156-.2265 0-.3515-.0157-.0781-.0235-.1485-.0235-.2109 0-.0782-.0078-.1797-.0234-.3047l-.0703-.3047c.0156-.0782.0156-.1875 0-.3282 0-.1406-.0078-.2812-.0235-.4218v-.3047c-.0156-.2031-.0078-.3516.0235-.4453.0312-.0938.0312-.2032 0-.3282.0468-.0312.0781-.0781.0937-.1406s.0391-.1172.0703-.164c.25-.1407.3907-.2344.4219-.2813.1719-.0312.2734-.0547.3047-.0703h.4453c.0781 0 .1484-.0078.2109-.0234zm4.5235 14.2031c.1875-.0469.2969-.0781.3281-.0938.0469-.0156.0859-.0234.1172-.0234.1406-.1406.2266-.2187.2578-.2344.1875-.2031.3203-.3125.3984-.3281.1094-.1094.1641-.1719.1641-.1875.0156-.0156.0391-.0313.0703-.0469.0781-.0937.125-.1562.1406-.1875.0313-.0312.0547-.0625.0704-.0937.0625-.0313.1015-.0703.1171-.1172.0313-.0625.0625-.1094.0938-.1406.1562-.2032.2578-.3282.3047-.375.0937-.1094.1406-.1641.1406-.1641 0-.0156.0078-.0313.0234-.0469.125-.1718.2032-.2656.2344-.2812.0781-.125.1172-.1875.1172-.1875.0156-.0157.0313-.0235.0469-.0235.0625-.1093.1015-.1718.1172-.1875.0156-.0312.0234-.0547.0234-.0703.0781-.0937.1094-.1484.0938-.164 0-.0157.0156-.0391.0468-.0704.0625-.1718.0938-.2578.0938-.2578.0156-.0312.039-.0703.0703-.1172.0312-.0468.0547-.0937.0703-.1406.0625-.1718.1094-.2812.1406-.3281.0313-.0469.0625-.1094.0938-.1875.0312-.1094.0547-.1875.0703-.2344.0156-.0468.0234-.1015.0234-.164.0313-.1719.0313-.2813 0-.3282.0157-.0781.0157-.1328 0-.164 0-.0469-.0078-.1016-.0234-.1641-.0469-.2656-.0781-.4375-.0938-.5156 0-.0938-.0312-.1797-.0937-.2578.0156-.0781.0078-.1485-.0234-.211-.0313-.0781-.0625-.1562-.0938-.2343-.0469-.1719-.0703-.2657-.0703-.2813-.1094-.2656-.1875-.4765-.2344-.6328-.0469-.0625-.0703-.1172-.0703-.1641 0-.0625-.0078-.1093-.0234-.1406-.1094-.2187-.1797-.3594-.211-.4219-.125-.1562-.1953-.2421-.2109-.2578 0-.0312-.0156-.0625-.0469-.0937-.0937-.1563-.1562-.25-.1875-.2813-.0156-.0312-.039-.0625-.0703-.0937-.0781-.1406-.1172-.2266-.1172-.2578l-.2812-.3516c-.0469-.125-.0703-.1875-.0703-.1875 0-.0156-.0079-.0391-.0235-.0703-.125-.1563-.2109-.25-.2578-.2813-.0312-.0312-.0547-.0625-.0703-.0937-.0938-.1563-.1719-.25-.2344-.2813-.0469-.0468-.0937-.0937-.1406-.1406-.1094-.1406-.1641-.2109-.1641-.2109 0-.0156-.0078-.0235-.0234-.0235-.125-.1093-.2109-.164-.2578-.164-.1406-.1094-.211-.1797-.211-.211-.1562-.1093-.2343-.164-.2343-.164-.1875.0937-.2813.2109-.2813.3515-.0156.2032-.0234.3438-.0234.4219v.1641c0 .0468-.0078.1015-.0235.164-.0312.1719-.0546.2813-.0703.3282v.1172.6093.4688.2578c.0157.0469.0157.1094 0 .1875v.2578c0 .0625-.0078.1328-.0234.2109v.2344c.0625.1406.0781.25.0469.3281-.0313.0625-.0469.1328-.0469.211-.0156.0781-.0234.1484-.0234.2109.0156.0625.0234.1328.0234.2109.0156.1876.0234.3282.0234.4219-.0468.2344-.0703.3985-.0703.4922.0156.0938.0313.1797.0469.2578v.2813c.0156.0937.0234.1953.0234.3047 0 .0937.0078.1875.0235.2812.0312.2031.039.3281.0234.375s-.0234.0938-.0234.1406c0 .1407-.0078.2422-.0235.3047v.211c.0313.1718.0391.2656.0235.2812v.0469c.0312.4687.039.8594.0234 1.1719-.0156.2968 0 .5859.0469.8672.0469.125.0703.2265.0703.3046.0312.1094.0547.2188.0703.3282.0156.1093.0391.2187.0703.3281zm15-15.3047c.0781.0156.1328.0469.164.0938.0469.0468.0938.0937.1407.1406.0781.2812.1172.4531.1172.5156v.4219c.0156.0469.0234.1172.0234.2109 0 .0781-.0078.1328-.0234.1641v.1172c-.0157.0468-.0235.0937-.0235.1406.0156.0469.0235.1015.0235.1641.0156.1406.0156.2734 0 .3984-.0469.1562-.0782.2422-.0938.2578l-.1641.2344c-.0625.0625-.1015.1094-.1171.1406-.0157.0312-.0391.0547-.0704.0703-.2031.0781-.3515.1328-.4453.1641-.0781.0156-.1562.0312-.2343.0468-.0469 0-.1329.0157-.2579.0469-.0312 0-.0781.0078-.1406.0235-.0469 0-.0859 0-.1172 0-.1875.0156-.2812.0234-.2812.0234-.125-.0156-.1953-.0234-.211-.0234-.0156-.0157-.0312-.0235-.0468-.0235-.1719.0313-.2891.0469-.3516.0469-.0625-.0156-.1328-.0312-.2109-.0469-.1875 0-.3047 0-.3516 0-.0312-.0156-.0781-.0156-.1406 0-.2188-.0156-.3516-.0156-.3985 0h-.4687c-.1406-.1406-.2188-.2109-.2344-.2109 0 0-.0078-.0156-.0234-.0469l-.211-.2109c0-.1719-.0234-.3516-.0703-.5391l-.0468-.4687v-.3047c0-.2188.0156-.375.0468-.4688 0-.1875.0157-.2969.0469-.3281.0313-.0469.0469-.0938.0469-.1406.0937-.1406.1484-.2266.164-.2578.0157-.0313.0391-.0625.0704-.0938l.4218-.1875c.1875-.0625.3047-.1015.3516-.1172.0469-.0156.0859-.0312.1172-.0469h.3515l.3282-.0703.1875-.0468c.0781-.0157.1484-.0235.2109-.0235.0469 0 .0938.0078.1406.0235h.1407.1406c.0469-.0157.1015-.0235.164-.0235.125 0 .2344.0078.3282.0235.1093.0156.2187.0078.3281-.0235.0469-.0156.1328-.0078.2578.0235.125.0156.2266.039.3047.0703zm.3515 17.9062c.0157.0782 0 .1407-.0468.1876-.0469.0312-.0625.0703-.0469.1171-.2188.0469-.3281.0703-.3281.0703-.125.0626-.2657.1094-.4219.1407-.125.0312-.2578.039-.3984.0234-.125 0-.2735-.0078-.4454-.0234-.1718.0156-.2968.0234-.375.0234-.0625 0-.125 0-.1875 0h-.3515c-.1563.0156-.2422.0235-.2578.0235-.1407 0-.2578.0078-.3516.0234-.0781.0312-.1328.0469-.1641.0469h-.3281l-.3281-.0703c-.0625 0-.125 0-.1875 0-.0625.0156-.1328.0156-.2109 0-.0782-.0313-.1407-.0626-.1875-.0938-.0469-.0156-.1016-.0234-.1641-.0234-.0781-.1719-.1172-.2657-.1172-.2813 0-.0312-.0078-.0547-.0234-.0703-.0469-.0781-.0703-.1484-.0703-.2109.0156-.0782.0234-.1485.0234-.211 0-.0469-.0078-.0937-.0234-.1406 0-.0469 0-.0859 0-.1172 0-.0469.0078-.0937.0234-.1406s.0234-.1016.0234-.1641c.0157-.0625.0235-.1328.0235-.2109.0156-.0781.0312-.1563.0468-.2344.0157-.125.0235-.2187.0235-.2812 0-.0782 0-.1329 0-.1641.0156-.0469.0234-.0938.0234-.1406 0-.0625.0078-.125.0235-.1875.0156-.0938.0156-.1641 0-.211-.0157-.0625-.0235-.1171-.0235-.164 0-.0313 0-.0781 0-.1407.0156-.0624.0235-.1328.0235-.2109 0-.1094-.0079-.2109-.0235-.3047 0-.0937 0-.1875 0-.2812 0-.0782.0156-.1953.0469-.3516v-.3047c.0156-.1406.0234-.3125.0234-.5156s-.0078-.3906-.0234-.5625v-.2578c.0156-.1875.0234-.3281.0234-.4219.0157-.1094.0157-.2187 0-.3281 0-.0469-.0078-.086-.0234-.1172 0-.0469 0-.0938 0-.1406-.0156-.0782-.0234-.1485-.0234-.211s0-.1328 0-.2109c0-.0937-.0079-.1484-.0235-.1641 0-.0312 0-.0625 0-.0937v-.4219c-.0156-.1719-.0156-.2656 0-.2812.0156-.0313.0235-.0625.0235-.0938 0-.1875 0-.3047 0-.3516.0156-.0624.0234-.125.0234-.1874 0-.1563 0-.2422 0-.2579 0-.2656-.0078-.4297-.0234-.4921-.0469-.1563-.0704-.25-.0704-.2813v-.3516c0-.1406-.0078-.2265-.0234-.2578 0-.0469.0078-.1015.0234-.164 0-.1094-.0078-.2188-.0234-.3282 0-.1093 0-.2265 0-.3515-.0156-.1094-.0156-.1875 0-.2344s.0234-.0938.0234-.1406v-.6563c-.0312-.1875-.0312-.3906 0-.6093.0313-.1563.0625-.25.0938-.2813.0469-.1563.0781-.2422.0937-.2578.1407-.1875.2813-.3125.4219-.375.0781-.0313.1406-.0625.1875-.0938.0625-.0468.1094-.0703.1406-.0703.1407-.0312.2344-.0468.2813-.0468.1719-.0157.3437-.0157.5156 0 .1719.0156.3438.0078.5156-.0235.1407-.0156.2344-.0078.2813.0235.0469.0156.1016.0078.1641-.0235.2031-.0156.3281-.0156.375 0h.1406c.125-.0312.2109-.0391.2578-.0234h.4219c.0468 0 .1015.0078.164.0234.0625 0 .1094.0156.1407.0469.0312-.0313.1171-.0469.2578-.0469.0468.0313.0781.0625.0937.0938.0313.0312.0781.0468.1406.0468.0625.1407.1172.2344.1641.2813.0469.1406.1016.289.1641.4453.0312.0781.0468.1719.0468.2813 0 .1093.0079.2265.0235.3515v.1875c.0156.0625.0234.1172.0234.1641 0 .0781-.0078.1562-.0234.2343 0 .0782-.0078.1563-.0235.2344-.0156.2344-.0234.4297-.0234.586 0 .1406-.0078.2812-.0234.4218-.0157.0782-.0313.1563-.0469.2344v.2344c0 .0625.0078.125.0234.1875.0157.0469.0235.1015.0235.1641 0 .125-.0078.2578-.0235.3984-.0156.125-.0312.2578-.0468.3984-.0157.125-.0313.25-.0469.375-.0156.1094-.0235.2344-.0235.375v.1172c.0157.0469.0235.0938.0235.1406 0 .0782-.0078.1485-.0235.211v.1875.2343c.0157.0782.0157.1563 0 .2344 0 .0782-.0078.1563-.0234.2344-.0156.0625-.0234.1328-.0234.2109-.0157.125-.0157.25 0 .375.0156.125.0234.25.0234.375 0 .0782-.0078.1563-.0234.2344-.0157.0781-.0157.1563 0 .2344.0468.2656.0625.4453.0468.5391-.0156.0937-.0156.1953 0 .3046.0157.1719.0157.2891 0 .3516v.1172.6094c0 .1093-.0078.1953-.0234.2578.0625.1094.0781.2422.0469.3984-.0313.1406-.0156.2578.0469.3516-.0313.1094-.0469.2265-.0469.3515.0156.125.039.2344.0703.3282l.0234.6328c.0157.0937.0235.1953.0235.3047.0156.0937.0234.1796.0234.2578l-.0234.2578zm10.6177-9.0703c-.172-.0468-.258-.0781-.258-.0937-.047.0312-.11.0312-.188 0-.062-.0313-.117-.0469-.164-.0469-.125-.0156-.234-.0234-.328-.0234-.078 0-.156 0-.234 0s-.157.0078-.235.0234-.148.0313-.211.0469c-.156.0625-.32.1172-.492.164-.172.0313-.305.0782-.398.1407-.157.1093-.25.1719-.282.1875-.015 0-.039.0156-.07.0468-.078.0469-.133.1016-.164.1641s-.086.1094-.164.1406c-.078.1719-.117.2579-.117.2579-.047.1406-.078.2421-.094.3046s-.047.1172-.094.1641c-.031.0781-.054.1641-.07.2578 0 .0938-.016.1875-.047.2813-.015.0781-.031.164-.047.2578v.3047c-.015.1875 0 .3671.047.539.031.0625.047.1172.047.1641 0 .0312.008.0703.023.1172.047.1406.086.2656.118.375.031.0937.062.1953.093.3047.125.1406.188.2187.188.2343 0 .0157.008.0313.023.0469.032.0313.063.0703.094.1172.047.0469.086.1016.117.1641.11.1093.18.1796.211.2109s.063.0625.094.0937c.047.0157.086.0547.117.1172.078.0157.149.0391.211.0704.063.0156.149.039.258.0703.078.0312.141.0468.187.0468.047-.0156.094-.0156.141 0 .047 0 .094.0157.141.0469.047.0156.109.0234.187.0234.141-.0156.235-.0312.281-.0468.047-.0156.086-.0235.118-.0235.078-.0312.164-.0547.257-.0703.094-.0156.18-.0312.258-.0468l.258-.0704c.109 0 .18-.0078.211-.0234s.062-.0312.094-.0469c.172-.0156.281-.039.328-.0703.062-.0312.117-.0547.164-.0703.062.0781.101.125.117.1406.031 0 .063.0078.094.0235.094.25.133.4296.117.539 0 .1094.008.2266.023.3516 0 .2187.008.3516.024.3984.031.0469.031.0938 0 .1406.031.0313.047.086.047.1641 0 .0625.008.1328.023.2109.078.2188.11.3594.094.4219 0 .0625.008.1328.023.211.016.1562.016.25 0 .2812v.0938c.016.1718.024.289.024.3515.015.0625.008.1172-.024.1641.032.1406.032.2734 0 .3984.047.0938.055.1953.024.3047-.031.0938-.063.1875-.094.2813-.125.1093-.187.1797-.187.2109 0 .0156-.016.0312-.047.0469-.157.0625-.235.1015-.235.1172-.093.0312-.164.0547-.211.0703-.046.0312-.101.0625-.164.0937-.203.0469-.328.0781-.375.0938-.062.0156-.132.0156-.211 0-.078 0-.171.0078-.281.0234-.156.0469-.25.0625-.281.0469-.016-.0156-.039-.0078-.07.0234-.172.0156-.266.0235-.282.0235 0 .0156-.015.0234-.047.0234-.093.0156-.164.0156-.21 0-.032-.0156-.071-.0234-.118-.0234-.078-.0313-.156-.0391-.234-.0235-.063.0156-.133.0235-.211.0235l-.422-.0235c-.187-.0468-.32-.0781-.398-.0937-.078-.0157-.157-.0235-.235-.0235-.047-.0156-.101-.0234-.164-.0234-.047 0-.086 0-.117 0-.125-.0312-.195-.0469-.211-.0469-.015.0157-.039.0157-.07 0-.125-.0625-.219-.0937-.281-.0937-.047-.0469-.094-.0703-.141-.0703-.047.0156-.094.0078-.141-.0235-.14-.0468-.218-.0781-.234-.0937-.016 0-.039 0-.07 0-.141-.0938-.235-.1407-.282-.1407-.046-.0156-.101-.0312-.164-.0468-.234-.125-.382-.211-.445-.2578-.047-.0625-.109-.1172-.187-.1641-.047-.0156-.086-.0313-.118-.0469-.031-.0312-.078-.0547-.14-.0703l-.188-.1875c-.078-.0937-.133-.1484-.164-.164-.015-.0157-.039-.0391-.07-.0704-.094-.0625-.18-.1172-.258-.164-.062-.0625-.133-.1094-.211-.1406-.031-.1563-.101-.2735-.211-.3516-.078-.0938-.133-.1484-.164-.1641-.016-.0312-.023-.0625-.023-.0937-.141-.125-.211-.1953-.211-.211-.047-.1093-.102-.1796-.164-.2109-.047-.0469-.086-.1094-.118-.1875-.031-.0469-.054-.0938-.07-.1406 0-.0625-.015-.125-.047-.1875-.125-.1563-.187-.2344-.187-.2344-.094-.1406-.1408-.2109-.1408-.2109 0-.0157-.0079-.0313-.0235-.0469-.0625-.0938-.0937-.1563-.0937-.1875 0-.0313-.0078-.0625-.0235-.0938-.0781-.1562-.125-.2422-.1406-.2578 0-.0312-.0078-.0625-.0234-.0937-.0625-.2657-.1016-.4297-.1172-.4922s-.0313-.1172-.0469-.1641c0-.0625-.0234-.125-.0703-.1875l-.0234-.3047c-.0469-.1406-.0782-.2265-.0938-.2578-.0156-.0468-.0312-.0859-.0469-.1172.0469-.1093.0469-.1953 0-.2578-.0468-.0781-.0625-.1718-.0468-.2812 0-.1719-.0079-.2578-.0235-.2578 0-.0157 0-.0391 0-.0704l-.0234-.2812c0-.0469 0-.0938 0-.1406.0156-.0469.0234-.0938.0234-.1406.0156-.0938.0235-.1797.0235-.2579 0-.0937.0078-.1875.0234-.2812 0-.0469 0-.0938 0-.1406.0156-.0469.0234-.086.0234-.1172.0625-.2031.086-.3281.0703-.375-.0156-.0469-.0234-.086-.0234-.1172 0-.0781.0156-.1485.0469-.2109.0312-.0626.0625-.125.0937-.1876.0313-.0781.0547-.164.0703-.2578.0157-.1093.0391-.2265.0704-.3515.0312-.0781.0546-.1485.0703-.211.0312-.0781.0625-.1484.0937-.2109.0313-.0938.0469-.1484.0469-.1641.0156-.0312.0312-.0625.0469-.0937.0312-.0625.0625-.125.0937-.1875.0313-.0625.0625-.125.0938-.1875.0625-.1563.1175-.2578.1645-.3047.109-.1719.156-.2656.14-.2813 0-.0156.008-.0312.024-.0468.031-.0313.062-.0625.093-.0938.032-.0312.063-.0625.094-.0937.125-.1719.203-.2813.234-.3281.032-.0469.063-.086.094-.1172.063-.1094.102-.1641.117-.1641.016-.0156.032-.0313.047-.0469l.211-.2109c.078-.0938.133-.1641.164-.2109.047-.0157.086-.0391.117-.0704.032-.0312.063-.0625.094-.0937l.258-.2344c.109-.0937.164-.1406.164-.1406 0-.0156.008-.0313.024-.0469.109-.1094.195-.1797.257-.2109.094-.0781.188-.1328.282-.1641.156-.1094.234-.1562.234-.1406s.008.0156.023 0c.125-.0938.258-.1719.399-.2344.14-.0625.281-.1328.422-.2109.093-.0469.164-.0703.211-.0703s.086-.0078.117-.0235c.187-.0625.305-.0937.351-.0937.047-.0156.094-.0313.141-.0469.172-.0469.273-.0703.305-.0703.031-.0156.078-.0391.14-.0703l.282-.0469c.156-.0156.234-.0312.234-.0469.016-.0156.031-.0234.047-.0234.187-.0469.328-.0703.422-.0703.14-.0156.218-.0156.234 0 .031.0156.063.0234.094.0234.14-.0156.226-.0234.258-.0234.031-.0156.062-.0235.093-.0235l.329.0469c.234.0313.398.0469.492.0469.109-.0156.203-.0156.281 0 .219.0625.359.0859.422.0703.062-.0156.117-.0156.164 0 .062.0312.109.0625.141.0938.046.0312.101.0624.164.0937.031.0156.07.0313.117.0469.047 0 .094.0156.14.0468.188.0938.289.1563.305.1876.031.0156.063.039.094.0703.156 0 .258.0468.305.1406l.14.4922c-.015.125-.047.2578-.094.3984-.046.125-.093.25-.14.375-.031.0781-.071.1563-.117.2344-.032.0625-.063.1406-.094.2344-.047.125-.086.2109-.117.2578-.032.0469-.055.1015-.071.164-.015.0469-.023.1016-.023.1641s-.016.1172-.047.1641c-.109.1875-.195.3281-.258.4218-.047.0938-.078.1953-.094.3047-.062.0469-.109.1172-.14.211-.016.0781-.047.1562-.094.2343-.031.0313-.062.0703-.094.1172-.015.0313-.023.0781-.023.1407-.047.0156-.086.039-.117.0703-.016.0156-.055.0312-.117.0468zm9-8.5781c.031.0313.046.0703.046.1172 0 .0312.008.0781.024.1406.031.1875.031.3438 0 .4688v.2812c-.016.2344-.031.4141-.047.5391s-.016.2344 0 .3281c.016.0781.016.1484 0 .211-.016.0468-.023.0937-.023.1406v.1406c.015.0469.023.0859.023.1172 0 .0781-.008.1562-.023.2344-.016.0625-.024.1328-.024.2109-.031.3437-.031.6797 0 1.0078-.078.0938-.101.1875-.07.2813.031.0312.07.039.117.0234.062-.0156.109-.0234.141-.0234.078 0 .132-.0078.164-.0235.031-.0156.07-.0234.117-.0234.172-.0313.328-.0313.469 0 .156.0156.296 0 .421-.0469.079.0313.157.0547.235.0703.078 0 .14.0391.187.1172.11.1719.164.3047.164.3985.094.1562.133.2421.118.2578-.016.0156-.024.039-.024.0703.031.1093.039.1875.024.2343v.1641c-.016.125-.032.2031-.047.2344v.0703c-.016.0781-.024.1641-.024.2578.016.0781.008.1484-.023.211.031.125.047.2265.047.3046-.047.3125-.063.5625-.047.75.031.1875.031.3594 0 .5157-.016.0625-.031.125-.047.1875 0 .0468.008.1093.023.1875-.062.1093-.093.1797-.093.2109.015.0156.007.0312-.024.0469 0 .0625-.023.1093-.07.1406-.031.0313-.039.0781-.024.1406-.062.0157-.109.0391-.14.0703-.031.0157-.078.0078-.141-.0234-.156.0469-.344.0547-.562.0234h-.586c-.219-.0625-.36-.0859-.422-.0703-.063.0157-.133.0235-.211.0235-.031.0625-.047.125-.047.1875.016.0625.024.1328.024.2109v.4219c0 .1406-.008.2734-.024.3984 0 .1094-.008.2422-.023.3985v.375c.015.0468.023.0937.023.1406.016.1562.008.3125-.023.4687-.016.1407.007.2891.07.4453.016.1875.016.3047 0 .3516-.016.0312-.023.0625-.023.0938.015.2031.031.3359.046.3984.016.0469.032.0937.047.1406v.2344c.016.0156.024.039.024.0703.015.0469.031.0937.047.1406.015.0469.023.0938.023.1407.109.0468.172.0859.188.1171.031.0313.054.0625.07.0938.219.0625.359.1328.422.2109.078 0 .14.0078.187.0235.047.0156.117.039.211.0703.125.0156.274.0156.445 0 .079-.0156.18-.0235.305-.0235l.305-.0468c.125-.0157.195-.0313.211-.0469.015-.0156.039-.0234.07-.0234.172-.0157.281-.0391.328-.0704.063-.0312.125-.0546.188-.0703h.187c.016-.0156.039-.0234.071-.0234.171.0937.265.1406.281.1406.031 0 .047.0156.047.0469.031.0781.039.1328.023.164-.016.0313-.039.0704-.07.1172v.3047c0 .0625-.016.1328-.047.211-.031.0937-.07.1875-.117.2812-.016.0313-.032.0703-.047.1172 0 .0469-.008.0937-.024.1406-.078.1719-.125.3047-.14.3985-.016.0781-.039.164-.071.2578-.031.0781-.054.1484-.07.2109-.015.0625-.047.125-.094.1875-.062.2188-.101.375-.117.4688-.047.1406-.07.2187-.07.2343.016 0 .016.0079 0 .0235-.047.1718-.078.289-.094.3515 0 .0625-.015.1329-.047.211l-.093.3281c-.094.1719-.149.2656-.165.2812-.14.125-.218.1876-.234.1876-.016.0156-.039.039-.07.0703-.11.0156-.188.0312-.235.0468-.046.0157-.086.0391-.117.0703-.14 0-.242.0313-.304.0938-.094-.0156-.188-.0234-.282-.0234-.093.0156-.218.0234-.375.0234-.125 0-.195 0-.211 0-.015.0156-.031.0234-.047.0234-.109-.0312-.218-.0468-.328-.0468-.125-.0157-.211-.0235-.257-.0235-.172 0-.29-.0156-.352-.0469-.078-.0156-.188-.0312-.328-.0468-.125 0-.227-.0078-.305-.0235-.094-.0156-.195-.0312-.305-.0468-.093 0-.195-.0079-.304-.0235-.156-.0781-.242-.125-.258-.1406 0 0-.008 0-.023 0-.125-.0625-.219-.1094-.282-.1406-.187-.0313-.289-.0547-.304-.0703 0-.0157-.016-.0313-.047-.0469-.25-.1094-.391-.2188-.422-.3281-.156-.0625-.235-.1016-.235-.1172 0-.0157-.015-.0313-.046-.0469-.125-.1094-.188-.1797-.188-.2109-.109-.125-.18-.1953-.211-.211-.031-.0312-.055-.0781-.07-.1406-.125-.1719-.195-.2656-.211-.2813 0-.0156-.016-.039-.047-.0703-.031-.0312-.055-.0703-.07-.1171-.016-.0626-.039-.1172-.071-.1641-.093-.2344-.156-.3985-.187-.4922-.016-.1094-.039-.2031-.07-.2813-.016-.0781-.032-.1406-.047-.1874 0-.0626-.008-.1329-.024-.211-.015-.0625-.031-.1328-.047-.2109 0-.0781-.015-.1641-.046-.2578l-.024-.2579c-.062-.1406-.094-.2265-.094-.2578.016-.0312.024-.0625.024-.0937-.031-.1094-.031-.2266 0-.3516-.047-.0781-.063-.1562-.047-.2343.031-.0938.055-.1797.07-.2579 0-.0781-.008-.1406-.023-.1875 0-.0625 0-.125 0-.1875 0-.0781.008-.1484.023-.2109.016-.0625.024-.1328.024-.2109.015-.0782.015-.1485 0-.211 0-.0781 0-.1562 0-.2343v-.7266c.015-.125.023-.211.023-.2578v-.3985c0-.0625 0-.1171 0-.164.016-.0625.024-.125.024-.1875-.016-.1406-.024-.2344-.024-.2813.016-.0625.024-.125.024-.1875v-.3281c-.032-.2187-.047-.3672-.047-.4453 0-.0938-.008-.1875-.024-.2813-.125.0313-.265.0625-.422.0938-.156.0312-.32.0547-.492.0703-.078 0-.148 0-.211 0-.047-.0156-.086-.0234-.117-.0234-.094 0-.172-.0078-.234-.0235-.047-.0156-.094-.0312-.141-.0469-.141-.0937-.242-.1562-.305-.1874-.031-.0782-.07-.1329-.117-.1641-.047-.0469-.086-.1094-.117-.1875s-.039-.1563-.023-.2344c.031-.0937.046-.1953.046-.3047 0-.0781 0-.1484 0-.2109s-.007-.1328-.023-.211c.016-.0624.023-.125.023-.1874 0-.0782-.007-.1329-.023-.1641-.047-.1563-.063-.2422-.047-.2578 0-.0157 0-.0469 0-.0938-.016-.125-.023-.2109-.023-.2578s0-.0859 0-.1172c-.016-.125-.024-.2422-.024-.3515-.015-.125-.023-.2422-.023-.3516-.016-.1562-.016-.2422 0-.2578.015-.0156.023-.0391.023-.0703-.015-.1563-.015-.25 0-.2813 0-.0312-.008-.0859-.023-.164.031-.1407.054-.211.07-.211s.031-.0156.047-.0468l.305-.3282c.078.0313.156.0313.234 0 .094-.0312.188-.0468.281-.0468l.305.0234c.172 0 .32.0312.445.0937.188 0 .297.0079.328.0235.032.0156.063.0234.094.0234.031.0156.07.0156.117 0s.102-.0156.164 0c.016-.0781.008-.164-.023-.2578-.016-.125-.023-.2656-.023-.4219.015-.1719.015-.3125 0-.4219v-.375c0-.1718 0-.2656 0-.2812.015-.0312.015-.0625 0-.0938-.032-.1562-.047-.2421-.047-.2578.015-.1093.007-.2109-.024-.3046.016-.0626.008-.1172-.023-.1641-.016-.0469-.031-.1016-.047-.1641s-.024-.1172-.024-.164c.016-.0625.016-.125 0-.1875-.015-.0625-.031-.1094-.046-.1407-.016-.0468-.024-.0937-.024-.1406 0-.0312-.008-.0859-.023-.164-.016-.0782-.024-.125-.024-.1407.016-.125.016-.2031 0-.2343 0-.0313.008-.0626.024-.0938.015-.0625.054-.1172.117-.1641.062-.0468.109-.1015.141-.164.109.0312.242.0469.398.0469.156-.0157.281-.0313.375-.0469.031-.0157.07-.0157.117 0h.141c.078.0156.148.0234.211.0234.078-.0156.148-.0234.211-.0234.047.0156.093.0312.14.0469.047.0156.102.0312.164.0468.157-.0156.266-.0234.328-.0234.11.0156.172.0234.188.0234.016-.0156.039-.0156.07 0h.188c.031-.0156.062-.0156.094 0 .14.0156.242.0235.304.0235.078 0 .141-.0079.188-.0235h.234c.109 0 .18-.0156.211-.0468.125.0156.195.0312.211.0468.031 0 .062-.0156.094-.0468.031.0312.07.0468.117.0468.047-.0156.101-.0234.164-.0234.031 0 .07.0078.117.0234h.141c.078.0156.14.0235.187.0235.063-.0157.11.0078.141.0703zm12.89 14.2031c.031.0469.07.0625.117.0469s.094-.0312.141-.0469c.219-.0468.359-.0703.422-.0703.062-.0156.133-.0312.211-.0468.125-.0313.25-.0704.375-.1172.14-.0625.281-.1094.422-.1407.031-.0156.07-.0234.117-.0234.062-.0156.109-.0313.14-.0469.094-.0625.165-.1015.211-.1172.063-.0312.11-.0625.141-.0937.156-.125.258-.1953.305-.2109.047-.0157.086-.0391.117-.0704.219-.0625.344-.0859.375-.0703.125.0313.187.1328.187.3047-.015.2188-.023.3594-.023.4219.016.0469.023.1094.023.1875.016.125.024.2422.024.3516v.3281.1406c.015.0469.023.0859.023.1172 0 .0781-.015.1641-.047.2578-.015.0937-.023.1797-.023.2578.016.25.016.4844 0 .7031-.047.2032-.063.336-.047.3985s.024.1172.024.164c-.016.1094-.032.2032-.047.2813-.157.1562-.274.2422-.352.2578-.078 0-.133.0391-.164.1172-.094.0156-.156.0312-.187.0469-.016.0156-.04.0312-.071.0468-.109.0938-.195.1407-.258.1407-.046 0-.093.0078-.14.0234l-.281.1172c-.172.0625-.29.0937-.352.0937-.063 0-.125.0313-.188.0938-.062 0-.125.0156-.187.0469-.047.0156-.109.0312-.188.0468-.156.0313-.265.0547-.328.0704-.109.0468-.187.0703-.234.0703s-.102.0078-.164.0234c-.078.0156-.164.0234-.258.0234-.078.0157-.164.0313-.258.0469-.234.0469-.398.0625-.492.0469-.094 0-.187.0156-.281.0469-.125 0-.227.0078-.305.0234s-.156.0234-.234.0234c-.094 0-.188-.0078-.281-.0234-.079-.0156-.165-.0312-.258-.0469-.063.0313-.141.0391-.235.0235-.078-.0157-.179-.0391-.304-.0704-.125-.0156-.211-.0312-.258-.0468-.188 0-.313-.0078-.375-.0235-.047-.0156-.102-.0312-.164-.0468-.063-.0157-.117-.0235-.164-.0235s-.102-.0078-.164-.0234c-.11-.0156-.188-.0313-.235-.0469s-.093-.0312-.14-.0469c-.188-.0468-.297-.0781-.328-.0937l-.211-.1641c-.125-.0312-.25-.0781-.375-.1406-.047-.0312-.094-.0547-.141-.0703-.031-.0156-.07-.0469-.117-.0938-.031-.0468-.078-.0781-.141-.0937-.047-.0156-.094-.0391-.14-.0703-.172-.1094-.266-.1719-.282-.1875 0-.0156-.008-.0313-.023-.0469-.11-.0469-.172-.0781-.188-.0937 0-.0157-.015-.0313-.047-.0469l-.234-.1407c-.094-.0937-.18-.1562-.258-.1874-.031-.0782-.078-.1329-.14-.1641-.047-.0469-.086-.1094-.118-.1875-.109-.0938-.187-.1563-.234-.1875-.047-.0313-.086-.0781-.117-.1406-.047-.0313-.086-.0625-.117-.0938-.016-.0469-.039-.0859-.071-.1172-.062-.0469-.101-.1328-.117-.2578-.094-.0937-.14-.1562-.14-.1875 0-.0312-.008-.0625-.024-.0937-.094-.125-.156-.2032-.187-.2344-.094-.1094-.141-.1719-.141-.1875s-.008-.0391-.023-.0703c-.11-.2188-.188-.3516-.235-.3985 0-.0781-.008-.1328-.023-.164-.016-.0313-.024-.0703-.024-.1172-.078-.1563-.117-.25-.117-.2813 0-.0468 0-.0859 0-.1171-.047-.1563-.078-.2344-.094-.2344 0 0 0-.0078 0-.0235-.078-.2343-.125-.3828-.14-.4453-.016-.0781-.039-.1484-.071-.2109-.031-.1563-.054-.2578-.07-.3047 0-.0469-.008-.1094-.023-.1875 0-.0937-.008-.1875-.024-.2813-.015-.1093-.023-.1718-.023-.1874 0-.0313 0-.0782 0-.1407.015-.0781.015-.1406 0-.1875-.016-.0468-.039-.0859-.07-.1172-.032-.0468-.047-.0937-.047-.1406.078-.2344.117-.3828.117-.4453 0-.0781 0-.1719 0-.2813.031-.1406.039-.25.023-.3281-.015-.0781-.015-.1562 0-.2343 0-.0469 0-.0938 0-.1407 0-.0625.016-.1093.047-.1406-.031-.0625-.039-.1094-.023-.1406.031-.0469.054-.0938.07-.1407 0-.1718 0-.2578 0-.2578.016-.0156.023-.039.023-.0703.032-.1406.055-.2578.071-.3515.031-.1094.062-.2032.094-.2813.046-.125.07-.1953.07-.2109 0-.0313.008-.0625.023-.0938.063-.0937.102-.1562.117-.1875.016-.0312.032-.0625.047-.0937.063-.2344.133-.4141.211-.5391s.133-.2187.164-.2812c.032-.0625.063-.1094.094-.1407 0-.0625.016-.1093.047-.1406.047-.0312.086-.0625.117-.0937.078-.1407.133-.2188.164-.2344.078-.1406.117-.2188.117-.2344.141-.1562.227-.2422.258-.2578s.063-.0391.094-.0703c.109-.125.156-.1953.141-.211 0-.0312.007-.0468.023-.0468.047-.0156.078-.0391.094-.0703.031-.0469.062-.086.094-.1172.14-.125.218-.1953.234-.211.016-.0156.039-.0312.07-.0468.063-.1094.102-.1641.117-.1641.032 0 .047-.0156.047-.0469.157-.1093.242-.1719.258-.1875.031-.0156.063-.039.094-.0703.125-.0937.195-.1406.211-.1406.031-.0156.054-.0313.07-.0469.156-.0937.242-.1562.258-.1875.141-.1094.219-.1641.234-.1641.032-.0156.047-.039.047-.0703.188-.0937.297-.1406.328-.1406.032 0 .063-.0078.094-.0234.234-.0938.383-.1563.445-.1875.032-.0156.063-.0235.094-.0235.047-.0156.109-.0312.188-.0468.031-.0157.062-.0313.093-.0469.047-.0156.102-.0313.164-.0469.157-.0469.235-.0703.235-.0703 0-.0156.015-.0234.047-.0234.109-.0313.179-.0547.211-.0704.031-.0156.086-.0234.164-.0234.203-.0156.39-.0156.562 0 .156.0156.266.0156.328 0 .063-.0156.133-.0234.211-.0234.063 0 .156.0156.281.0468h.258c.157.0469.235.0704.235.0704 0-.0157.015-.0235.047-.0235.125.0313.195.0469.21.0469.032-.0156.063-.0156.094 0 .063 0 .117.0156.164.0469.063.0312.133.0312.211 0 .172.0781.281.125.328.1406.063.0156.133.0313.211.0469.157.0625.266.1094.328.1406.079.0156.149.0469.211.0938.094-.0313.18.0078.258.1171.156.0938.242.1407.258.1407s.031.0078.047.0234c.078.0781.14.1328.187.1641.047.0312.086.0703.118.1171.078.1094.125.1719.14.1876.016 0 .031.0078.047.0234.047.0469.094.0937.141.1406.062.0469.109.1016.14.1641.125.125.188.1875.188.1875.062.0625.109.1172.14.164.047.0313.086.0704.118.1172.125.125.187.2032.187.2344 0 .0156.008.0391.024.0703.125.2031.195.3125.21.3281.063.1094.118.1875.165.2344.031.0469.054.0938.07.1406.015.0469.039.0938.07.1407-.015.0468-.015.0937 0 .1406.031.0469.063.0859.094.1172.031.0625.055.1484.07.2578.016.0937.039.1797.071.2578.031.0469.054.0937.07.1406.015.0313.039.0781.07.1407.031.1874.047.2812.047.2812 0 .0469.008.0938.023.1406.016.0313.032.0703.047.1172.016.1406.016.211 0 .211 0 0 .008.0156.024.0468l.07.2578c.031.125.047.2344.047.3282 0 .0468.008.0937.023.1406.016.0312.024.0703.024.1172-.031.1875-.047.3125-.047.375.016.0468.016.0859 0 .1172-.141.1406-.227.2265-.258.2578-.015.0312-.039.0547-.07.0703-.125.0625-.195.1015-.211.1172 0 .0156-.008.0312-.024.0469-.171.0781-.281.1171-.328.1171-.031 0-.062.0157-.093.0469-.125.0469-.211.086-.258.1172-.031.0312-.063.0625-.094.0938-.156.0468-.234.0859-.234.1171-.094.0469-.172.086-.235.1172-.062.0157-.117.0391-.164.0703-.172.0938-.32.1719-.445.2344-.156.0938-.266.1484-.328.1641-.063.0156-.11.039-.141.0703-.125.0625-.203.1016-.234.1172s-.063.039-.094.0703c-.156.1094-.258.1719-.305.1875-.031.0156-.062.0469-.093.0937-.032-.0156-.079-.0078-.141.0235-.063.0312-.117.0625-.164.0937-.188.0781-.313.125-.375.1407-.047 0-.086.0234-.117.0703-.047 0-.094.0156-.141.0468-.031.0157-.07.0313-.117.0469s-.102.0234-.164.0234c-.047-.0156-.094-.0078-.141.0235-.14.0937-.226.1406-.258.1406-.031.0313-.078.0547-.14.0703-.047.0156-.094.0313-.141.0469-.14.0781-.242.1172-.305.1172-.046 0-.085.0156-.117.0469-.14.0625-.218.1015-.234.1172-.125.0781-.211.1171-.258.1171s-.094.0157-.141.0469c-.25.0938-.382.1641-.398.211 0 .2031.016.3124.047.3281.109.0937.18.1484.211.164.047.0157.094.0391.14.0703.032.0469.063.0704.094.0704.047 0 .094.0156.141.0468.031.0157.062.0391.094.0704.046.0156.093.0312.14.0468.063.0469.149.0703.258.0703.078.0157.141.0313.188.0469.046 0 .101.0078.164.0234.125.0313.218.0469.281.0469.187-.0156.312-.0156.375 0 .078.0157.14.0235.187.0235.078 0 .157-.0078.235-.0235.078-.0312.156-.0469.234-.0469.188.0157.305.0157.352 0 .062-.0156.125-.0234.187-.0234zm-.937-5.9531c-.032-.0625-.055-.1172-.071-.164 0-.0469-.023-.0782-.07-.0938-.078-.1562-.125-.2422-.141-.2578 0-.0156-.015-.0313-.046-.0469-.141-.125-.227-.2031-.258-.2344-.157-.125-.25-.1953-.282-.2109-.218-.1094-.367-.1641-.445-.1641-.062 0-.148 0-.258 0-.172.0782-.265.1172-.281.1172s-.031.0078-.047.0235c-.172.0937-.273.1484-.304.164-.032 0-.047.0235-.047.0703-.125.0625-.196.1016-.211.1172-.016 0-.032 0-.047 0-.094.125-.156.211-.188.2578-.015.0313-.031.0625-.047.0938-.125.1562-.195.25-.21.2812-.016.0313-.032.0625-.047.0938-.047.2031-.102.3203-.164.3515-.047.0313-.079.086-.094.1641-.094.125-.141.2031-.141.2344.016.0156.016.0312 0 .0469-.047.1562-.086.2343-.117.2343-.062.25-.094.3907-.094.4219.032.125.032.2031 0 .2344-.015.0312-.008.0547.024.0703.203-.0937.343-.1328.422-.1172.156-.0781.257-.125.304-.1406s.086-.0391.117-.0703c.172-.0938.266-.1485.282-.1641.125-.0469.211-.0781.258-.0937.046-.0157.085-.0313.117-.0469.187-.0781.304-.125.351-.1406.063-.0313.11-.0625.141-.0938.125-.0781.211-.1172.258-.1172.047-.0156.093-.039.14-.0703.094-.0469.149-.0703.164-.0703.032-.0156.063-.0313.094-.0469.063-.0312.117-.0468.164-.0468.047-.0157.086-.0391.117-.0704.172-.0781.258-.125.258-.1406.016-.0312.031-.0469.047-.0469.094-.1093.18-.164.258-.164.078-.0157.133-.0547.164-.1172zm1.757-8.8125c.032.1563.008.2735-.07.3516-.078.0625-.148.1328-.211.2109-.125 0-.234.0313-.328.0938-.078.0625-.164.125-.258.1875-.14.0937-.211.1562-.211.1875-.109.0625-.195.1093-.257.1406-.047.0312-.102.0625-.165.0937-.156.0938-.265.1485-.328.1641-.047 0-.093.0156-.14.0469-.188.125-.313.2109-.375.2578-.047.0312-.11.0703-.188.1172-.109.0625-.219.125-.328.1875-.094.0468-.187.1094-.281.1875-.156.125-.266.2031-.328.2343-.063.0157-.133.0391-.211.0704-.11.0468-.227.0859-.352.1172-.109-.0469-.179-.0782-.211-.0938-.015-.0156-.039-.0312-.07-.0469-.094-.1406-.172-.2109-.234-.2109-.047-.0156-.079-.0391-.094-.0703-.031-.0625-.086-.125-.164-.1875-.063-.0625-.11-.1406-.141-.2344-.031-.0312-.07-.0547-.117-.0703s-.086-.0391-.117-.0703c-.078-.0782-.133-.1485-.164-.211 0-.0625.023-.1015.07-.1172.047-.0312.094-.0624.141-.0937.047-.0469.101-.1016.164-.1641.062-.0781.125-.1406.187-.1875.047-.0468.102-.0859.164-.1171.063-.0313.125-.0704.188-.1172.14-.1563.219-.25.234-.2813.11-.0312.18-.0703.211-.1172.047-.0625.125-.1015.234-.1172.063-.0781.125-.1406.188-.1875.078-.0468.148-.1015.211-.164.062-.0625.117-.125.164-.1875s.109-.1172.187-.1641c.157-.125.282-.2344.375-.3281.079-.0625.157-.1172.235-.1641.078-.0468.133-.1094.164-.1875.078-.0312.141-.0625.187-.0937.047-.0469.094-.0938.141-.1406.109-.1094.188-.1641.234-.1641.063-.0156.102-.0235.118-.0235.046.0782.086.125.117.1407.031 0 .062.0156.094.0469.109.0937.179.1562.21.1874.11.0938.18.1797.211.2579.032.0625.063.1171.094.164.125.1563.203.2344.235.2344.093.0937.156.1641.187.2109.047.0469.086.086.117.1172.031.0313.055.0703.071.1172.031.0313.07.0625.117.0938zm13.125 14.7656c.032.0469.071.0625.118.0469s.093-.0312.14-.0469c.219-.0468.36-.0703.422-.0703.063-.0156.133-.0312.211-.0468.125-.0313.25-.0704.375-.1172.141-.0625.281-.1094.422-.1407.031-.0156.07-.0234.117-.0234.063-.0156.11-.0313.141-.0469.094-.0625.164-.1015.211-.1172.062-.0312.109-.0625.14-.0937.157-.125.258-.1953.305-.2109.047-.0157.086-.0391.117-.0704.219-.0625.344-.0859.375-.0703.125.0313.188.1328.188.3047-.016.2188-.024.3594-.024.4219.016.0469.024.1094.024.1875.015.125.023.2422.023.3516v.3281.1406c.016.0469.024.0859.024.1172 0 .0781-.016.1641-.047.2578-.016.0937-.024.1797-.024.2578.016.25.016.4844 0 .7031-.047.2032-.062.336-.047.3985.016.0625.024.1172.024.164-.016.1094-.031.2032-.047.2813-.156.1562-.273.2422-.352.2578-.078 0-.132.0391-.164.1172-.093.0156-.156.0312-.187.0469-.016.0156-.039.0312-.07.0468-.11.0938-.196.1407-.258.1407-.047 0-.094.0078-.141.0234l-.281.1172c-.172.0625-.289.0937-.352.0937-.062 0-.125.0313-.187.0938-.063 0-.125.0156-.188.0469-.047.0156-.109.0312-.187.0468-.156.0313-.266.0547-.328.0704-.11.0468-.188.0703-.235.0703s-.101.0078-.164.0234c-.078.0156-.164.0234-.258.0234-.078.0157-.164.0313-.257.0469-.235.0469-.399.0625-.493.0469-.093 0-.187.0156-.281.0469-.125 0-.226.0078-.305.0234-.078.0156-.156.0234-.234.0234-.094 0-.187-.0078-.281-.0234-.078-.0156-.164-.0312-.258-.0469-.062.0313-.141.0391-.234.0235-.078-.0157-.18-.0391-.305-.0704-.125-.0156-.211-.0312-.258-.0468-.187 0-.312-.0078-.375-.0235-.047-.0156-.101-.0312-.164-.0468-.062-.0157-.117-.0235-.164-.0235s-.102-.0078-.164-.0234c-.109-.0156-.188-.0313-.234-.0469-.047-.0156-.094-.0312-.141-.0469-.188-.0468-.297-.0781-.328-.0937l-.211-.1641c-.125-.0312-.25-.0781-.375-.1406-.047-.0312-.094-.0547-.141-.0703-.031-.0156-.07-.0469-.117-.0938-.031-.0468-.078-.0781-.141-.0937-.046-.0156-.093-.0391-.14-.0703-.172-.1094-.266-.1719-.281-.1875 0-.0156-.008-.0313-.024-.0469-.109-.0469-.172-.0781-.187-.0937 0-.0157-.016-.0313-.047-.0469l-.235-.1407c-.093-.0937-.179-.1562-.257-.1874-.032-.0782-.079-.1329-.141-.1641-.047-.0469-.086-.1094-.117-.1875-.11-.0938-.188-.1563-.235-.1875-.046-.0313-.086-.0781-.117-.1406-.047-.0313-.086-.0625-.117-.0938-.016-.0469-.039-.0859-.07-.1172-.063-.0469-.102-.1328-.117-.2578-.094-.0937-.141-.1562-.141-.1875 0-.0312-.008-.0625-.024-.0937-.093-.125-.156-.2032-.187-.2344-.094-.1094-.141-.1719-.141-.1875s-.007-.0391-.023-.0703c-.109-.2188-.188-.3516-.234-.3985 0-.0781-.008-.1328-.024-.164-.016-.0313-.023-.0703-.023-.1172-.078-.1563-.118-.25-.118-.2813 0-.0468 0-.0859 0-.1171-.046-.1563-.078-.2344-.093-.2344 0 0 0-.0078 0-.0235-.078-.2343-.125-.3828-.141-.4453-.016-.0781-.039-.1484-.07-.2109-.031-.1563-.055-.2578-.071-.3047 0-.0469-.007-.1094-.023-.1875 0-.0937-.008-.1875-.023-.2813-.016-.1093-.024-.1718-.024-.1874 0-.0313 0-.0782 0-.1407.016-.0781.016-.1406 0-.1875-.015-.0468-.039-.0859-.07-.1172-.031-.0468-.047-.0937-.047-.1406.078-.2344.117-.3828.117-.4453 0-.0781 0-.1719 0-.2813.031-.1406.039-.25.024-.3281-.016-.0781-.016-.1562 0-.2343 0-.0469 0-.0938 0-.1407 0-.0625.015-.1093.046-.1406-.031-.0625-.039-.1094-.023-.1406.031-.0469.055-.0938.07-.1407 0-.1718 0-.2578 0-.2578.016-.0156.024-.039.024-.0703.031-.1406.054-.2578.07-.3515.031-.1094.063-.2032.094-.2813.047-.125.07-.1953.07-.2109 0-.0313.008-.0625.024-.0938.062-.0937.101-.1562.117-.1875.015-.0312.031-.0625.047-.0937.062-.2344.132-.4141.211-.5391.078-.125.132-.2187.164-.2812.031-.0625.062-.1094.093-.1407 0-.0625.016-.1093.047-.1406.047-.0312.086-.0625.117-.0937.079-.1407.133-.2188.165-.2344.078-.1406.117-.2188.117-.2344.14-.1562.226-.2422.258-.2578.031-.0156.062-.0391.093-.0703.11-.125.157-.1953.141-.211 0-.0312.008-.0468.023-.0468.047-.0156.078-.0391.094-.0703.031-.0469.063-.086.094-.1172.14-.125.219-.1953.234-.211.016-.0156.039-.0312.071-.0468.062-.1094.101-.1641.117-.1641.031 0 .047-.0156.047-.0469.156-.1093.242-.1719.257-.1875.032-.0156.063-.039.094-.0703.125-.0937.195-.1406.211-.1406.031-.0156.055-.0313.07-.0469.157-.0937.243-.1562.258-.1875.141-.1094.219-.1641.235-.1641.031-.0156.046-.039.046-.0703.188-.0937.297-.1406.329-.1406.031 0 .062-.0078.093-.0234.235-.0938.383-.1563.446-.1875.031-.0156.062-.0235.093-.0235.047-.0156.11-.0312.188-.0468.031-.0157.062-.0313.094-.0469.047-.0156.101-.0313.164-.0469.156-.0469.234-.0703.234-.0703 0-.0156.016-.0234.047-.0234.109-.0313.18-.0547.211-.0704.031-.0156.086-.0234.164-.0234.203-.0156.391-.0156.562 0 .157.0156.266.0156.329 0 .062-.0156.132-.0234.211-.0234.062 0 .156.0156.281.0468h.258c.156.0469.234.0704.234.0704 0-.0157.016-.0235.047-.0235.125.0313.195.0469.211.0469.031-.0156.062-.0156.094 0 .062 0 .117.0156.164.0469.062.0312.132.0312.211 0 .171.0781.281.125.328.1406.062.0156.132.0313.211.0469.156.0625.265.1094.328.1406.078.0156.148.0469.211.0938.093-.0313.179.0078.257.1171.157.0938.243.1407.258.1407.016 0 .032.0078.047.0234.078.0781.141.1328.188.1641.047.0312.086.0703.117.1171.078.1094.125.1719.14.1876.016 0 .032.0078.047.0234.047.0469.094.0937.141.1406.062.0469.109.1016.141.1641.125.125.187.1875.187.1875.063.0625.109.1172.141.164.047.0313.086.0704.117.1172.125.125.187.2032.187.2344 0 .0156.008.0391.024.0703.125.2031.195.3125.211.3281.062.1094.117.1875.164.2344.031.0469.055.0938.07.1406.016.0469.039.0938.07.1407-.015.0468-.015.0937 0 .1406.032.0469.063.0859.094.1172.031.0625.055.1484.071.2578.015.0937.039.1797.07.2578.031.0469.055.0937.07.1406.016.0313.039.0781.07.1407.032.1874.047.2812.047.2812 0 .0469.008.0938.024.1406.015.0313.031.0703.047.1172.015.1406.015.211 0 .211 0 0 .007.0156.023.0468l.07.2578c.032.125.047.2344.047.3282 0 .0468.008.0937.024.1406.015.0312.023.0703.023.1172-.031.1875-.047.3125-.047.375.016.0468.016.0859 0 .1172-.14.1406-.226.2265-.258.2578-.015.0312-.039.0547-.07.0703-.125.0625-.195.1015-.211.1172 0 .0156-.008.0312-.023.0469-.172.0781-.281.1171-.328.1171-.032 0-.063.0157-.094.0469-.125.0469-.211.086-.258.1172-.031.0312-.062.0625-.094.0938-.156.0468-.234.0859-.234.1171-.094.0469-.172.086-.234.1172-.063.0157-.118.0391-.164.0703-.172.0938-.321.1719-.446.2344-.156.0938-.265.1484-.328.1641-.062.0156-.109.039-.141.0703-.125.0625-.203.1016-.234.1172s-.062.039-.094.0703c-.156.1094-.257.1719-.304.1875-.032.0156-.063.0469-.094.0937-.031-.0156-.078-.0078-.141.0235-.062.0312-.117.0625-.164.0937-.187.0781-.312.125-.375.1407-.047 0-.086.0234-.117.0703-.047 0-.094.0156-.141.0468-.031.0157-.07.0313-.117.0469s-.101.0234-.164.0234c-.047-.0156-.094-.0078-.14.0235-.141.0937-.227.1406-.258.1406-.032.0313-.078.0547-.141.0703-.047.0156-.094.0313-.141.0469-.14.0781-.242.1172-.304.1172-.047 0-.086.0156-.117.0469-.141.0625-.219.1015-.235.1172-.125.0781-.211.1171-.258.1171-.046 0-.093.0157-.14.0469-.25.0938-.383.1641-.399.211 0 .2031.016.3124.047.3281.11.0937.18.1484.211.164.047.0157.094.0391.141.0703.031.0469.062.0704.094.0704.046 0 .093.0156.14.0468.031.0157.063.0391.094.0704l.141.0468c.062.0469.148.0703.257.0703.078.0157.141.0313.188.0469.047 0 .101.0078.164.0234.125.0313.219.0469.281.0469.188-.0156.313-.0156.375 0 .078.0157.141.0235.188.0235.078 0 .156-.0078.234-.0235.078-.0312.156-.0469.234-.0469.188.0157.305.0157.352 0 .062-.0156.125-.0234.187-.0234zm-.937-5.9531c-.031-.0625-.055-.1172-.07-.164 0-.0469-.024-.0782-.071-.0938-.078-.1562-.125-.2422-.14-.2578 0-.0156-.016-.0313-.047-.0469-.141-.125-.227-.2031-.258-.2344-.156-.125-.25-.1953-.281-.2109-.219-.1094-.367-.1641-.446-.1641-.062 0-.148 0-.257 0-.172.0782-.266.1172-.282.1172-.015 0-.031.0078-.046.0235-.172.0937-.274.1484-.305.164-.031 0-.047.0235-.047.0703-.125.0625-.195.1016-.211.1172-.016 0-.031 0-.047 0-.094.125-.156.211-.187.2578-.016.0313-.032.0625-.047.0938-.125.1562-.196.25-.211.2812-.016.0313-.031.0625-.047.0938-.047.2031-.102.3203-.164.3515-.047.0313-.078.086-.094.1641-.094.125-.14.2031-.14.2344.015.0156.015.0312 0 .0469-.047.1562-.086.2343-.118.2343-.062.25-.093.3907-.093.4219.031.125.031.2031 0 .2344-.016.0312-.008.0547.023.0703.203-.0937.344-.1328.422-.1172.156-.0781.258-.125.305-.1406.046-.0156.086-.0391.117-.0703.172-.0938.265-.1485.281-.1641.125-.0469.211-.0781.258-.0937.047-.0157.086-.0313.117-.0469.188-.0781.305-.125.352-.1406.062-.0313.109-.0625.14-.0938.125-.0781.211-.1172.258-.1172.047-.0156.094-.039.141-.0703.093-.0469.148-.0703.164-.0703.031-.0156.062-.0313.093-.0469.063-.0312.118-.0468.165-.0468.046-.0157.085-.0391.117-.0704.172-.0781.258-.125.258-.1406.015-.0312.031-.0469.046-.0469.094-.1093.18-.164.258-.164.078-.0157.133-.0547.164-.1172z" fill="#693821"/></svg>