<svg enable-background="new 0 0 225.7 243.06" viewBox="0 0 225.7 243.06" xmlns="http://www.w3.org/2000/svg"><g fill="#6a290b"><path d="m42.42 61.2c7.53-7.47 19.67-9.85 29.42-4.02 1.27.76 2.49-1.06 1.21-1.81-9.89-5.74-24.94-3.9-31.25 5.41-.24.33.31.72.62.42z"/><path d="m72.83 56.67c8.16-23.29 35.5-35.46 61.12-23.81 22.78 10.35 28.98 35.29 20.52 55.19-.87 2.05 2.87 2.93 3.73.9 9.69-22.78.59-51.1-26.55-60.73-25.55-9.06-57 2.83-60.04 28.3-.07.63 1.02.71 1.22.15z"/><path d="m156.06 90.61c3.87-2.18 7.65-4.76 12.54-3.36 5.45 1.55 7.24 6.52 5.52 10.96-.48 1.26 1.87 2.16 2.48.92 2.45-5.03.5-10.97-5.33-13.46-5.72-2.44-12.48-.12-16.08 4.18-.38.46.35 1.05.87.76z"/><path d="m175.14 99.47c15.89-2.76 23.28 11.71 23.42 23.16.09 7.83-2.61 15.58-7 22.36-9.32 14.37-26.18 23.44-43.74 28.4-17.94 5.06-37.61 6.76-55.85 1.9-17.58-4.68-32.41-14.58-46.39-24.68-2.19-1.58-5.35 1.13-3.15 2.76 17.41 12.89 36.66 25.08 59.78 28.02 22.51 2.86 47.64-1.97 67.12-12.19 17.42-9.14 31.14-24.37 32.87-42.54 1.31-13.78-7.59-34.64-27.45-28.46-.92.28-.56 1.44.39 1.27z"/><path d="m40.33 61.67c-10-3.05-16.93 9.1-19 15.85-2.88 9.39.41 19.5 11.04 23.66 1.97.77 3.67-1.8 1.7-2.54-17.98-6.81-13.11-34.29 6.16-36.33.4-.05.51-.51.1-.64z"/><path d="m30.18 125.71c-8.32 4.94-13.34 13.77-9.17 22.37 3.91 8.07 14.89 11.19 23.38 6.57 2.37-1.29.17-4.6-2.19-3.28-8.32 4.68-17.86-.27-19.58-8.29-1.43-6.63 2.48-12.6 8.01-16.87.31-.23-.1-.7-.45-.5z"/><path d="m33.68 100.37c-7.71-2.94-14.77 6.77-16.06 12.36-1.7 7.38 4.03 14.89 12.8 15.24 2.64.11 2.59-3.39 0-3.57-7.14-.5-10.64-6.73-9.16-12.37 1.11-4.24 6.07-12.13 12.23-11.28.24.03.45-.28.19-.38z"/><path d="m31.89 170.34c1.89 3.19 6.02 5.77 10.26 4.76 4.18-1 5.52-4.9 3.32-8.01-2.15-3.02-7.47-5.87-11.63-4.83-3.62.9-5.52 5-2.72 7.49 1.49 1.33 3.73-.67 2.32-2.03-.85-.82-.15-2.02.74-2.55 1.1-.66 2.81-.37 3.96-.01 2.21.69 4.89 2.3 5.47 4.4.7 2.54-2.2 3.81-4.72 3.44-2.42-.35-4.2-2.05-6.04-3.3-.53-.36-1.29.07-.96.64z"/><path d="m21.07 175.87c-1.43 1.42-.91 3.52.63 4.73 1.89 1.49 4.66.92 6.02-.84 1.37-1.76 1.15-4.19-.73-5.6-1.87-1.39-4.79-1.49-6.78-.24-1.51.95-.03 3.16 1.46 2.19 1.7-1.11 5.06-.33 4.05 1.94-1.08 2.41-4.66.61-3.58-1.46.29-.57-.52-1.27-1.07-.72z"/><path d="m28.37 139.6c-1.31 3.09 1.2 6.63 4.88 7.13.67.09.81-.75.13-.81-3.32-.33-5.48-3.46-4.6-6.22.07-.23-.32-.32-.41-.1z"/><path d="m32.15 141.05c-.28 2.38 1.89 4.5 4.58 4.68.64.04.65-.86 0-.88-2.26-.05-4.04-1.84-3.91-3.8.02-.38-.62-.37-.67 0z"/><path d="m25.68 113.99c-.65 2.56.3 5.05 2.4 6.9.42.37 1.07-.21.65-.57-1.95-1.66-2.78-3.92-2.55-6.27.01-.25-.44-.31-.5-.06z"/><path d="m29.88 115.46c-.91 2.37 1.52 5 4.35 4.76.52-.04.51-.77 0-.71-2.4.28-4.5-1.88-3.81-3.92.1-.3-.43-.43-.54-.13z"/><path d="m28.24 85.6c.54 1.46 1.08 2.93 1.62 4.39.08.21.47.12.38-.09-.57-1.46-1.14-2.91-1.71-4.37-.05-.17-.35-.1-.29.07z"/><path d="m31.4 87.75c-.18 1.7.49 3.32 1.7 4.64.33.37.94-.16.59-.52-1.14-1.19-1.63-2.58-1.64-4.12-.01-.37-.61-.36-.65 0z"/><path d="m138.61 43.12c3.96 6.46 6.3 13.21 6.81 20.54.03.45.83.45.8 0-.61-7.36-2.97-14.35-7.27-20.71-.13-.18-.45-.02-.34.17z"/><path d="m144.48 47.5c3.54 9.16 4.32 18.26 1.7 27.69-.15.53.78.75.93.22 2.5-9.4 2-19.04-2.12-28.04-.13-.26-.62-.15-.51.13z"/><path d="m131.01 173.42c18.56-2.61 34.96-9.83 48.59-21.16.43-.36-.22-.92-.65-.57-13.46 11.2-29.8 18.43-48.03 21.45-.21.04-.12.31.09.28z"/><path d="m146.76 165.02c14.39-2.77 26.76-9.52 35.96-19.62.47-.51-.36-1.25-.83-.73-9.12 9.9-21.18 16.76-35.22 20.05-.22.06-.13.35.09.3z"/></g></svg>