<svg fill="none" height="228" viewBox="0 0 242 228" width="242" xmlns="http://www.w3.org/2000/svg"><g fill="#6a290b"><path d="m233.709 183.377c-3.307 1.521-7.205 4.522-5.126 8.316 2.173 3.944 8.197 2.122 10.961-.215 2.882-2.421 3.519-6.944.33-9.409-2.74-2.122-7.63-.964-8.315 2.401-.378 1.865 2.575 2.679 3.189.793.567-1.715 2.93-1.243 3.496.193.662 1.693-.59 3.322-2.078 4.244-1.465.9-4.63 1.95-4.843-.536-.165-1.929 1.937-3.494 3.307-4.694.662-.579-.165-1.436-.921-1.093z"/><path d="m42.1827 190.172c-1.0863 13.673 2.6851 26.669 10.9246 37.632.3484.473 1.1683 0 .7993-.472-8.3215-10.84-12.2158-23.528-11.3754-37.18 0-.206-.3485-.206-.3485.02z"/><path d="m228.054 111.437c7.271 10.184 10.603 21.141 9.554 33.072-.046.655 1.142.655 1.212 0 1.026-11.911-2.33-23.424-10.16-33.369-.257-.318-.839-.04-.606.297z"/><path d="m107.214 9.13393c-40.9256 14.36127-72.77 44.81927-87.6259 82.15417-14.18503 35.6209-11.9327 82.9569 32.659 98.7929 45.9815 16.336 97.6659-3.449 132.6009-31.217 34.912-27.725 63.354-70.548 47.348-113.61-7.788-20.9345-25.519-36.85766-49.217-42.69327-27.699-6.83353-56.045.75928-79.91 13.90567-3.2589 1.8006-.288 6.443 2.995 4.6425 21.493-11.71465 46.389-19.04713 71.548-14.14435 22.667 4.40385 40.327 18.61325 48.21 38.26775 15.718 39.1355-8.554 78.5747-39.464 105.2147-30.694 26.423-74.807 46.511-118.1048 38.745-23.8174-4.274-42.7228-17.095-49.2402-38.81-5.2715-17.55-2.8034-36.424 3.115-53.5837 13.2505-38.4196 45.5022-69.8104 85.493-86.7749.552-.23866.168-1.10641-.407-.88947z"/><path d="m218.008 157.499c-4.996 2.057-12.169 7.575-12.441 13.024-.297 6.06 7.667 6.964 12.268 5.155 5.515-2.17 11.6-7.507 12.416-13.182.396-2.646-1.163-4.952-3.834-5.992-3.314-1.312-6.653-.113-9.77 1.108-2.968 1.176-.395 5.223 2.548 4.002 1.36-.678 2.795-1.063 4.328-1.176 1.509 1.515 1.756 2.917.693 4.251-.445 1.108-1.558 2.284-2.375 3.143-2.028 2.08-4.872 4.364-7.964 4.794-3.833.542-5.392-2.058-3.685-5.178.544-.995 1.187-1.967 1.904-2.895 1.855-2.396 4.23-4.228 6.728-6.059.668-.475-.173-1.267-.816-.995z"/><path d="m218.008 157.499c-4.996 2.057-12.169 7.575-12.441 13.024-.297 6.06 7.667 6.964 12.268 5.155 5.515-2.17 11.6-7.507 12.416-13.182.396-2.646-1.163-4.952-3.834-5.992-3.314-1.312-6.653-.113-9.77 1.108-2.968 1.176-.395 5.223 2.548 4.002 1.36-.678 2.795-1.063 4.328-1.176 1.509 1.515 1.756 2.917.693 4.251-.445 1.108-1.558 2.284-2.375 3.143-2.028 2.08-4.872 4.364-7.964 4.794-3.833.542-5.392-2.058-3.685-5.178.544-.995 1.187-1.967 1.904-2.895 1.855-2.396 4.23-4.228 6.728-6.059.668-.475-.173-1.267-.816-.995z"/><path d="m23.9552 156.117c-2.3987 10.684-1.5046 21.543 1.8536 31.92.2181.68 1.2866.373 1.0685-.285-3.4455-10.399-3.9906-20.688-2.4205-31.482.0436-.329-.4362-.482-.5016-.153z"/><path d="m23.9552 156.117c-2.3987 10.684-1.5046 21.543 1.8536 31.92.2181.68 1.2866.373 1.0685-.285-3.4455-10.399-3.9906-20.688-2.4205-31.482.0436-.329-.4362-.482-.5016-.153z"/><path d="m200.209 55.5656c3.521 6.3699 6.08 12.9963 7.794 19.9647.117.4702.892.2779.774-.1924-1.76-6.9898-4.507-13.6375-8.145-19.9861-.164-.2778-.564-.0427-.423.2138z"/><path d="m200.209 55.5656c3.521 6.3699 6.08 12.9963 7.794 19.9647.117.4702.892.2779.774-.1924-1.76-6.9898-4.507-13.6375-8.145-19.9861-.164-.2778-.564-.0427-.423.2138z"/></g><path d="m70.0547 84.2012c.1094 0 .2031-.0078.2812-.0235.0938-.0156.2032-.0156.3282 0 .1406-.0781.2343-.1015.2812-.0703.1094.0156.1797.0235.2109.0235.0469-.0157.086-.0235.1172-.0235.1719.0625.2813.0938.3282.0938.0468-.0157.0859-.0157.1172 0 .1562.0468.2656.0703.3281.0703.0781 0 .1484.0078.2109.0234.2188.0781.3672.1406.4453.1875.1094.0156.1875.0313.2344.0469s.0937.0312.1406.0469c.1563.0312.2344.0468.2344.0468.0156 0 .0313.0079.0469.0235.0625.0312.1406.0625.2344.0937.0937.0157.1718.0469.2343.0938.0781 0 .1485.0078.211.0234s.1328.0391.2109.0703c.2188.0938.3594.1485.4219.1641s.1093.0469.1406.0937c.0781 0 .1563.0391.2344.1172.0781.0625.1719.0938.2812.0938.0781.0937.1797.1562.3047.1875.1406.0937.211.1484.211.164.0312.0313.0703.0547.1171.0704.0469.0156.086.039.1172.0703.1407.0781.2422.1484.3047.2109.1719.1094.2813.1875.3281.2344.0469.0312.0938.0625.1407.0937.0468.0625.0937.1172.1406.1641.0469.0312.0937.0625.1406.0937.1563.1094.2266.1719.211.1875 0 0 .0078.0079.0234.0235.1406.125.2187.1875.2344.1875.1406.125.2187.2031.2343.2344.1094.1406.1719.2187.1875.2343.0157 0 .0313.0157.0469.0469.0625.0938.1172.1641.1641.2109.125.1563.2187.25.2812.2813.0938.1406.1641.25.211.3281.0468.0781.1093.1485.1875.211.0781.1562.1171.2343.1171.2343l.1876.211c.0312.0312.0546.0781.0703.1406.0156.0469.039.0859.0703.1172.0312.0625.0547.1094.0703.1406.0312.0313.0625.0625.0937.0938.0625.1406.0938.2109.0938.2109.0156 0 .0234.0078.0234.0234.0782.1407.1328.2422.1641.3047.0156.0781.0391.1406.0703.1875s.0469.1094.0469.1875c.0469.0781.0781.1563.0937.2344s.0391.1562.0703.2344c.0782.1562.1172.2422.1172.2578.0157.0156.0235.0312.0235.0469.0625.1406.0859.2421.0703.3046v.1875c.0625.1719.0859.2657.0703.2813v.0469c.0469.2031.0625.3437.0469.4218 0 .0625.0078.1329.0234.211.0469.4844.0547.8984.0234 1.2422v.1875c0 .0468-.0078.1093-.0234.1875-.0313.1875-.0469.2968-.0469.3281.0156.0156.0156.0391 0 .0703-.0625.3125-.1094.5547-.1406.7266-.0312.1562-.0625.3125-.0938.4687-.0468.1563-.0937.3125-.1406.4688-.0468.1406-.0859.2812-.1172.4218-.0937.25-.1562.4141-.1875.4922-.0781.1875-.125.2969-.1406.3282-.0156.0312-.0312.0625-.0469.0937l-.164.2344c-.0782.1562-.1172.2422-.1172.2578.0156 0 .0156.0078 0 .0234-.1094.1563-.1797.2657-.211.3282-.0937.1562-.1406.2343-.1406.2343-.2031.2344-.3515.3985-.4453.4922-.0781.0938-.1641.1953-.2578.3047-.1406.1563-.2422.2578-.3047.3047s-.1172.0937-.164.1407c-.0626.031-.1563.094-.2813.187-.0937.11-.2109.204-.3516.282-.1562.14-.2656.218-.3281.234-.0469.016-.0937.039-.1406.07-.1406.11-.2344.18-.2813.211-.0312.016-.0625.047-.0937.094-.0469-.016-.0938-.008-.1406.023-.0469.032-.086.055-.1172.071-.1719.109-.2735.164-.3047.164-.0156 0-.0391.015-.0703.047-.0938.078-.1641.117-.211.117-.0312 0-.0625.016-.0937.047-.0625.031-.125.07-.1875.117-.0625.031-.125.062-.1875.094-.0625.047-.1172.078-.1641.093-.0468 0-.1015.016-.164.047-.1094.063-.1719.102-.1875.118 0 .015-.0157.023-.0469.023-.1563.031-.2422.047-.2578.047 0 .015-.0078.023-.0235.023-.1718.078-.2578.117-.2578.117-.1093.032-.2031.063-.2812.094-.1719.078-.2578.117-.2578.117-.0938.047-.1719.071-.2344.071-.0469 0-.0859.008-.1172.023-.1719.031-.2891.047-.3516.047-.0468.016-.0937.023-.1406.023-.1875.016-.3125.024-.375.024-.0469.016-.0937.031-.1406.047-.1563.015-.2422.039-.2578.07-.0781-.016-.1797-.023-.3047-.023-.2031-.016-.3281-.016-.375 0-.0469.015-.0938.023-.1406.023-.125 0-.2657-.016-.4219-.047-.1094.016-.1953.016-.2578 0-.0469-.015-.1094-.008-.1875.024-.0625-.032-.125-.047-.1875-.047-.0469 0-.1094-.008-.1875-.024l-.2578-.023c-.2344-.016-.4063-.047-.5157-.094-.0312-.015-.0703-.023-.1171-.023-.0469.015-.1094.015-.1876 0-.2343-.047-.3906-.086-.4687-.117-.0625-.032-.1328-.063-.2109-.094-.125-.047-.2578-.078-.3985-.094-.1093-.047-.1719-.07-.1875-.07-.0156.015-.039.015-.0703 0-.1406-.078-.2187-.117-.2344-.117-.0156.015-.039.015-.0703 0-.1406-.047-.2187-.079-.2344-.094-.0156-.031-.039-.055-.0703-.071-.1406-.031-.2343-.054-.2812-.07-.0469-.015-.0859-.031-.1172-.047-.1406-.062-.2266-.101-.2578-.117-.0156-.016-.0469-.031-.0938-.047-.1406-.062-.2265-.101-.2578-.117-.0312-.031-.0547-.055-.0703-.07-.1719-.063-.2734-.102-.3047-.117-.0312-.016-.0625-.024-.0937-.024-.0313-.047-.0703-.078-.1172-.094-.0469-.031-.086-.062-.1172-.093-.0469-.032-.0938-.063-.1406-.094-.0313-.031-.0625-.063-.0938-.094-.0937-.047-.1484-.07-.164-.07-.0157-.016-.0391-.039-.0704-.071-.1562-.109-.2421-.164-.2578-.164-.0156-.015-.039-.031-.0703-.046-.1406-.094-.2109-.172-.2109-.235-.1563-.094-.25-.14-.2813-.14-.0312-.016-.0547-.032-.0703-.047-.1094-.125-.1718-.18-.1875-.1644-.0156 0-.0234-.0078-.0234-.0234-.1094-.0938-.1797-.1485-.2109-.1641-.0313-.0156-.0626-.0391-.0938-.0703-.0938-.125-.1719-.2031-.2344-.2344-.0312-.0312-.0625-.0625-.0937-.0937-.0157-.0469-.0391-.086-.0703-.1172-.0938-.0781-.1641-.1406-.211-.1875-.0312-.0625-.0625-.1328-.0937-.211-.1094-.0937-.1641-.1484-.1641-.164 0-.0313-.0156-.0625-.0469-.0938-.0781-.1093-.1328-.1797-.164-.2109-.0157-.0469-.0313-.0859-.0469-.1172-.0625-.125-.1016-.1953-.1172-.2109-.0156-.0157-.039-.0391-.0703-.0703-.0781-.1719-.1328-.2735-.1641-.3047-.0312-.0313-.0625-.0625-.0937-.0938-.0781-.1875-.125-.2969-.1406-.3281-.0157-.0313-.0391-.0625-.0703-.0938-.0313-.0781-.0547-.1484-.0704-.2109-.0156-.0781-.0468-.1484-.0937-.2109-.0313-.1094-.0469-.1797-.0469-.211 0-.0468-.0078-.0859-.0234-.1172-.0313-.0781-.0625-.164-.0938-.2578-.0312-.1093-.0547-.2187-.0703-.3281-.0469-.25-.0781-.4141-.0937-.4922-.0157-.0937-.0313-.2031-.0469-.3281-.0313-.1563-.0469-.25-.0469-.2813 0-.1562-.0078-.2578-.0234-.3046 0-.0469 0-.086 0-.1172-.0156-.2344-.0313-.3828-.0469-.4453s-.0234-.1407-.0234-.2344c0-.1563.0078-.2344.0234-.2344.0313-.0156.0391-.0312.0234-.0469-.0312-.0781-.039-.1484-.0234-.2109.0313-.0781.0469-.1563.0469-.2344-.0156-.125-.0235-.2109-.0235-.2578.0157-.0469.0235-.0937.0235-.1406v-.3047c.0625-.2344.0937-.375.0937-.4219.0157-.0625.0313-.1328.0469-.2109l.0469-.2578c.0469-.2032.0781-.3203.0937-.3516.0782-.1875.1172-.2891.1172-.3047 0-.0312.0078-.0625.0234-.0937.0626-.125.1016-.1953.1172-.211.0157-.0156.0235-.039.0235-.0703.0156-.0469.0156-.0937 0-.1406 0-.0469.0156-.0938.0469-.1406.0937-.1563.1562-.25.1874-.2813.0626-.125.0938-.2031.0938-.2344 0-.0312.0078-.0625.0234-.0937.0313-.0313.0625-.0703.0938-.1172.0312-.0469.0625-.0859.0937-.1172.0782-.1562.1329-.2812.1641-.375.0469-.0937.0938-.1797.1406-.2578.0782-.1094.1094-.1719.0938-.1875 0-.0156.0078-.0312.0234-.0469.1094-.1406.1719-.2187.1875-.2343.0156-.0313.0313-.0625.0469-.0938.1094-.125.2109-.2187.3047-.2812.1093-.1719.1797-.2735.2109-.3047.0313-.0313.0625-.0625.0938-.0938.0468-.0469.0781-.1094.0937-.1875.1406-.1406.2266-.2422.2578-.3047l.1407-.1875c.1093-.125.1874-.1953.2343-.2109s.0781-.0547.0938-.1172l.2343-.1172c.1094-.0625.1954-.125.2579-.1875s.1484-.1094.2578-.1406c.1719-.1094.2578-.1563.2578-.1406.0781-.0625.125-.0938.1406-.0938.0313-.0156.0625-.0312.0938-.0469.0937-.0937.1797-.1562.2578-.1875.1406-.0937.2187-.1406.2343-.1406.0157 0 .0391-.0078.0704-.0234.1093-.0625.1796-.0938.2109-.0938.0313-.0156.0625-.039.0937-.0703.1719-.0781.2891-.1406.3516-.1875s.1328-.0859.211-.1172c.1406-.0312.2187-.0547.2343-.0703.0157-.0312.0391-.0312.0703 0 .0313-.0625.0782-.0937.1407-.0937.0625-.0157.1328-.0391.2109-.0703.0781-.0469.1328-.0704.1641-.0704.0312 0 .0625-.0078.0937-.0234.125-.0469.2266-.0625.3047-.0469.0781 0 .1563-.0078.2344-.0234.1406-.0313.2265-.0547.2578-.0703.0312-.0156.0625-.0235.0937-.0235.1563 0 .2578-.0078.3047-.0234s.086-.0234.1172-.0234c.1719-.0157.2656-.0235.2813-.0235.0312-.0156.0625-.0234.0937-.0234.2031 0 .3438-.0078.4219-.0234.2344-.0313.4219-.0079.5625.0703zm.4453 3.8672c-.1562.0312-.25.0312-.2812 0-.1407.0156-.2344.039-.2813.0703-.0469.0312-.0859.0625-.1172.0937-.125.0625-.2265.1016-.3047.1172-.0468.0313-.1015.0547-.164.0703-.0469.0156-.0782.0625-.0938.1406-.1562.0625-.2578.1172-.3047.1641-.1406.0938-.2187.1406-.2343.1406 0 0-.0079.0078-.0235.0235-.0937.0781-.1562.1328-.1875.164-.0312.0313-.0625.0547-.0937.0703-.1094.0625-.1719.1094-.1875.1407 0 .0156-.0078.0312-.0235.0468-.0781.0782-.125.1329-.1406.1641-.0156.0156-.0391.0391-.0703.0703l-.1875.2344c-.0469.0469-.0938.0937-.1406.1406-.0469.0469-.1016.0938-.1641.1406l-.2578.2813c-.0781.1406-.1172.2187-.1172.2344-.1094.1718-.1719.2578-.1875.2578 0 0-.0078.0078-.0234.0234-.0938.1563-.1563.2813-.1875.375-.0782.1094-.1407.1953-.1875.2578-.0313.0625-.0625.125-.0938.1875-.0469.1407-.0703.2188-.0703.2344s-.0078.0313-.0234.0469c-.0782.1562-.1172.25-.1172.2812.0156.0157.0156.0391 0 .0703-.0782.1563-.125.2422-.1406.2579-.0313.2031-.0547.3281-.0704.375v.1171c-.0625.2344-.0937.3907-.0937.4688-.0156.0781-.0078.1953.0234.3516 0 .0625-.0078.125-.0234.1875 0 .0468.0078.1015.0234.164 0 .0625.0078.1172.0235.1641.0156.0469.0312.1015.0468.164l.0469.2579c.0625.1718.1016.2968.1172.375.0313.0625.0625.125.0937.1875.0782.1875.1172.289.1172.3046 0 .0157.0078.0391.0235.0704.0312.0781.0859.1562.164.2343.0313.0625.0547.1172.0703.1641.0313.0469.0626.1016.0938.1641.1094.1562.1641.2421.1641.2578l.0468.0468c.125.1563.1953.2422.211.2579.0156 0 .0312.0156.0469.0468.0312.0469.0703.0938.1171.1407.0469.0468.0782.1015.0938.164l.2344.1875c.1093.1094.164.1875.164.2344.1407.1094.2188.1641.2344.1641.1406.0937.2266.1406.2578.1406.125.0937.1953.1562.2109.1875.0157.0156.0391.0312.0704.0469.0937.0625.1484.1093.164.1406.0156.0312.0547.0469.1172.0469.0781.0781.1328.1328.1641.164.0312.0156.0625.0313.0937.0469.1875.125.3125.2031.375.2344.0782.0156.1328.0468.1641.0937.0625.0156.1172.0313.1641.0469.0468.0156.1015.0391.164.0703.0938.0313.1641.0547.211.0703.0624.0156.1093.0313.1406.0469h.2578l.3047-.0938c.1406-.0781.2187-.1093.2343-.0937.0313 0 .0547-.0078.0704-.0234.0937-.0313.1562-.0469.1875-.0469.0312-.0156.0703-.0313.1171-.0469.125-.0625.1954-.1016.211-.1172.0156-.0312.039-.0547.0703-.0703.125-.0937.1875-.1406.1875-.1406 0-.0156.0078-.0235.0234-.0235.0469-.0625.086-.1093.1172-.1406.0469-.0469.0938-.0937.1406-.1406.1094-.0938.1641-.1406.1641-.1406.0156 0 .0313-.0078.0469-.0235.1406-.1093.2266-.1875.2578-.2343.0469-.0469.1016-.0938.1641-.1407.0937-.0937.1718-.1562.2343-.1875.1094-.1093.1719-.1718.1875-.1875.0313-.0312.0625-.0703.0938-.1172.0469-.0625.0859-.1171.1172-.164.0625-.0469.1172-.0938.164-.1406l.1172-.1172c.0625-.1094.1016-.1875.1172-.2344.0313-.0469.0547-.1016.0703-.1641.0469-.0156.086-.039.1172-.0703.0313-.0312.0625-.0625.0938-.0937.0156-.0469.0312-.086.0468-.1172.0157-.0469.0313-.0938.0469-.1406.0625-.125.1016-.2188.1172-.2813.0469-.1406.0703-.2578.0703-.3516l.0469-.3281c.0312-.0469.0547-.0859.0703-.1172.0312-.0468.0469-.0937.0469-.1406.0156-.0625.0156-.125 0-.1875 0-.0781.0078-.1562.0234-.2344.0469-.2031.0703-.3281.0703-.375 0-.0625 0-.1172 0-.164-.0312-.2344-.0468-.3985-.0468-.4922.0156-.0938.0156-.1797 0-.2578-.0157-.1719-.0391-.2813-.0704-.3282-.0156-.0625-.0312-.1171-.0468-.164-.0469-.1875-.0704-.3203-.0704-.3985-.0624-.1562-.1093-.25-.1406-.2812.0156-.0781 0-.1484-.0468-.2109-.0469-.0782-.086-.1563-.1172-.2344-.0313-.1094-.0547-.1719-.0704-.1875 0-.0313 0-.0547 0-.0703-.0781-.0938-.125-.1485-.1406-.1641 0-.0312-.0156-.0703-.0468-.1172l-.1407-.2812c-.0937-.1719-.1406-.2735-.1406-.3047.0156-.0313.0078-.0625-.0234-.0938-.1094-.125-.1797-.1875-.211-.1875l-.2343-.2812c-.1094-.1719-.1876-.2735-.2344-.3047-.0313-.0469-.0625-.0859-.0938-.1172-.1406-.1406-.2265-.2266-.2578-.2578-.0469-.0313-.0937-.0625-.1406-.0938-.0313-.0312-.0625-.0625-.0938-.0937-.1562-.125-.2578-.1953-.3046-.2109-.0469-.0157-.086-.0391-.1172-.0704-.1094-.1093-.1719-.1562-.1875-.1406-.0157 0-.0391-.0078-.0703-.0234-.1094-.0625-.211-.1094-.3047-.1406-.25-.0313-.4375-.0704-.5625-.1172-.1094-.0469-.2266-.0703-.3516-.0703zm16.3359 1.7109c.1719 0 .2891-.0313.3516-.0938.125-.0937.2031-.1484.2344-.164.0312-.0156.0625-.0391.0937-.0703.1563-.1407.2656-.2578.3282-.3516.125-.125.1874-.1953.1874-.2109.1094-.1094.1797-.1797.211-.211.0312-.0312.0625-.0625.0937-.0937.1094-.0469.1875-.0938.2344-.1406.0625-.0625.125-.1094.1875-.1407.1094-.0468.1875-.0859.2344-.1172.1719-.0625.2578-.0937.2578-.0937.0156-.0156.0312-.0234.0469-.0234.0312-.0313.0625-.0547.0937-.0704.0313-.0312.0703-.0625.1172-.0937.0938-.0156.1797-.0469.2578-.0938.1719-.0625.3047-.0937.3985-.0937.1875-.0781.289-.1172.3047-.1172.0624-.0312.1171-.0391.164-.0234.0469 0 .086-.0078.1172-.0235.1562.0157.25.0235.2812.0235h.3985c.0781-.0157.1406-.0157.1875 0 .0937.0156.1719.0547.2344.1172s.1406.0937.2343.0937c.0313.0469.0625.0859.0938.1172.0312.0312.0547.0781.0703.1406.125.1094.1797.1641.1641.1641 0 0 .0078.0078.0234.0234.0625.1719.0937.2656.0937.2813.0313.1718.0313.3359 0 .4922-.0156.0937-.0234.25-.0234.4687.0156.2188-.0156.3672-.0937.4453.0312.1563.0312.3203 0 .4922 0 .0781-.0079.1563-.0235.2344-.0156.0625-.0234.1328-.0234.2109v.2813c.0156.0937.0234.1875.0234.2812 0 .0625-.0078.125-.0234.1875s-.0313.1172-.0469.1641c-.0312.1562-.0547.2656-.0703.3281 0 .0469-.0078.0938-.0234.1406-.0782.2188-.1328.3516-.1641.3985-.0469.0468-.0937.0703-.1406.0703-.0313 0-.0703.0078-.1172.0234-.1719.0625-.2735.086-.3047.0703-.0156-.0156-.0469-.039-.0938-.0703-.0468.0156-.0937.0156-.1406 0-.0468-.0312-.0937-.0469-.1406-.0469-.2812.0157-.4531.0313-.5156.0469h-.2578c-.1407.0469-.2344.086-.2813.1172-.0469.0156-.0859.0391-.1172.0703-.1719.0313-.2734.0625-.3047.0938-.1093.0156-.1875.0312-.2343.0468-.0313.0157-.0625.0313-.0938.0469-.1719.0313-.2812.0469-.3281.0469-.1094.0469-.1953.1016-.2578.1641-.1719.0625-.2735.1093-.3047.1406-.0313.0312-.0703.0547-.1172.0703-.0313.0469-.0703.0859-.1172.1172-.0312.0156-.0625.039-.0937.0703-.0938.0625-.1641.1172-.211.1641-.1094.0781-.1875.1484-.2344.2109-.0468.0469-.0937.0859-.1406.1172-.0312.0312-.0703.0625-.1172.0937-.0312.0313-.0625.0625-.0937.0938-.0156.0625-.0391.1094-.0703.1406-.0313.0313-.0625.0625-.0938.0938-.0781.1875-.1328.3125-.164.375-.0313.0468-.0469.1093-.0469.1875-.0625.0625-.1094.1406-.1406.2343-.0157.0782-.0391.1719-.0703.2813-.0157.0781-.0313.164-.0469.2578-.0157.0781-.0235.1562-.0235.2344.0313.2031.0313.3359 0 .3984-.0156.1563-.0234.25-.0234.2813.0156.0312.0234.0625.0234.0937-.0156.1719-.0234.2891-.0234.3516.0156.0468.0234.1015.0234.164-.0312.2188-.0546.3594-.0703.4219 0 .0469-.0078.0938-.0234.1406v.1172c.0156.2344.0156.3985 0 .4922-.0156.0781-.0235.1641-.0235.2578v.211c.0157.0625.0235.1328.0235.2109 0 .375.0312.6642.0937.8672.0157.125.0313.211.0469.258s.0235.094.0235.14c.0312.125.0468.235.0468.329 0 .093-.0078.156-.0234.187-.0156.109-.0234.195-.0234.258-.0782.14-.1172.226-.1172.258 0 .031-.0078.062-.0235.093-.0312.047-.0781.094-.1406.141-.0625.031-.1094.07-.1406.117-.1094-.015-.2344 0-.375.047-.1094.031-.1875.039-.2344.024-.0469 0-.0937.007-.1406.023-.0469 0-.0938 0-.1407 0-.0468.016-.0859.023-.1171.023-.1875.016-.2891.016-.3047 0 0 0-.0078 0-.0235 0-.1718 0-.2734-.007-.3047-.023-.0156 0-.0312 0-.0468 0l-.6328.094c-.2344.015-.3985.023-.4922.023-.0782.016-.1563.008-.2344-.023-.2188-.032-.375-.063-.4688-.094-.0781-.031-.1562-.047-.2343-.047-.1094-.094-.1953-.164-.2578-.211-.0625-.062-.125-.117-.1875-.164-.0469-.156-.0782-.25-.0938-.281 0-.031-.0078-.063-.0234-.094-.0625-.219-.0938-.336-.0938-.351 0-.204 0-.368 0-.493.0156-.14.0313-.257.0469-.351.0156-.063.0234-.1799.0234-.3518.0313-.1718.0469-.2656.0469-.2812 0-.0781 0-.1485 0-.211s.0078-.1093.0234-.1406c.0313-.2187.0469-.3437.0469-.375-.0156-.125-.0234-.1953-.0234-.2109.0156-.0313.0234-.0625.0234-.0938 0-.0781-.0078-.1718-.0234-.2812 0-.1094 0-.2188 0-.3281.0312-.1875.0391-.2891.0234-.3047 0-.0157.0078-.0391.0235-.0703 0-.0782.0078-.1485.0234-.211s.0078-.125-.0234-.1875c0-.1719 0-.2656 0-.2812.0156-.0313.0234-.0625.0234-.0938 0-.125 0-.2344 0-.3281.0156-.1094.0156-.2266 0-.3516 0-.0468-.0078-.0937-.0234-.1406 0-.0625 0-.125 0-.1875 0-.1406.0078-.2656.0234-.375.0156-.125.0156-.25 0-.375-.0156-.2031-.0312-.3672-.0469-.4922 0-.125.0078-.25.0235-.375-.0157-.1562-.0235-.2422-.0235-.2578-.0312-.1094-.0469-.1875-.0469-.2344.0157-.0625.0157-.1328 0-.2109 0-.1406-.0156-.2188-.0468-.2344-.0156-.0312-.0235-.0625-.0235-.0937.0157-.1407.0157-.2422 0-.3047-.0156-.0625-.0234-.125-.0234-.1875.0156-.0625.0234-.1094.0234-.1406.0157-.0469.0235-.0938.0235-.1407-.0156-.1406-.0235-.2187-.0235-.2343.0157-.0157.0235-.0313.0235-.0469l-.0235-.586c0-.1093 0-.1953 0-.2578 0-.0781-.0156-.1562-.0468-.2343-.0157-.0782-.0157-.1719 0-.2813.0156-.125.0156-.2031 0-.2344-.0157-.0468-.0235-.1015-.0235-.164.0156-.0782.0156-.1563 0-.2344s-.0234-.1484-.0234-.2109c0-.0469 0-.0938 0-.1407.0156-.0625.0234-.1172.0234-.164 0-.0782-.0156-.1563-.0468-.2344-.0157-.0781-.0235-.1563-.0235-.2344.0625-.2344.1016-.375.1172-.4219.0156-.0625.0469-.125.0937-.1875.1407-.125.211-.1953.211-.2109s.0078-.0234.0234-.0234c.125-.0157.211-.0157.2578 0 .0469 0 .0782-.0157.0938-.0469.0469.0312.0937.0391.1406.0234.0625-.0156.1172-.0234.1641-.0234.25-.0469.5312-.0469.8437 0 .1719.0312.2656.0469.2813.0469.0156-.0157.0312-.0235.0469-.0235h.2812c.0469-.0156.0938-.0234.1406-.0234.1094-.0156.1797-.0156.211 0 .0468 0 .1015-.0078.164-.0234.1875-.0313.2969-.0391.3282-.0235.0312 0 .0703-.0078.1171-.0234.0313 0 .0782.0078.1407.0234.0625 0 .1172-.0156.164-.0469.125.0157.2344.0313.3282.0469.0937 0 .2109.0078.3515.0235.1094.1093.1875.164.2344.164.0469.0469.0781.1328.0937.2578.0469.1407.0625.2266.0469.2578 0 .0313.0078.0625.0235.0938 0 .0781.0156.1719.0468.2812.0313.1094.0469.2188.0469.3282v.2578zm15.7031 10.5707c-.125.046-.211.14-.258.281-.078.031-.14.086-.187.164-.032.062-.086.109-.164.141-.141.156-.235.242-.282.257-.031 0-.046.024-.046.071-.125.109-.196.164-.211.164-.11.078-.172.133-.188.164-.015.015-.039.031-.07.047-.063.047-.125.078-.188.093-.047.016-.101.039-.164.071-.156.078-.234.117-.234.117 0-.016-.008-.024-.024-.024-.125.079-.195.118-.211.118-.015 0-.023.015-.023.047-.172.031-.266.054-.281.07 0 .015-.0158.031-.0471.047-.1562.031-.3047.054-.4453.07-.125.016-.2578.023-.3984.023-.2188-.046-.3672-.07-.4453-.07-.1563 0-.2344-.008-.2344-.023 0 0-.0078 0-.0234 0-.0782.015-.1407.015-.1875 0-.0469 0-.0938 0-.1407 0l-.2578-.071c-.1719-.031-.289-.046-.3515-.046-.0469 0-.0938-.008-.1407-.024-.0312-.016-.0703-.031-.1171-.047-.0469-.015-.0938-.031-.1407-.047l-.3047-.047c-.1562-.078-.2422-.117-.2578-.117-.1718-.078-.2734-.125-.3047-.14-.0156-.016-.039-.032-.0703-.047-.125-.094-.2031-.149-.2344-.164-.0312-.032-.0624-.063-.0937-.094-.1406-.109-.2187-.164-.2344-.164l-.2109-.211c-.1406-.125-.211-.188-.211-.188-.1093-.078-.1796-.125-.2109-.14-.0312-.016-.0625-.039-.0937-.07-.1094-.11-.1797-.188-.211-.235-.0156-.062-.039-.117-.0703-.164-.0781-.078-.1328-.141-.1641-.1874-.0312-.0625-.0624-.1172-.0937-.1641-.1094-.1718-.1953-.2812-.2578-.3281-.0625-.1406-.1328-.2734-.2109-.3984-.0626-.125-.1329-.2578-.211-.3985-.0781-.1562-.1172-.25-.1172-.2812-.0312-.1719-.0547-.2734-.0703-.3047-.0156-.0312-.0312-.0703-.0469-.1172-.0468-.1719-.0703-.2656-.0703-.2812.0157-.0313.0078-.0469-.0234-.0469-.0156-.1719-.0313-.2656-.0469-.2813-.0156-.0312-.0234-.0625-.0234-.0937-.0156-.1719-.0391-.2813-.0703-.3281-.0157-.0469-.0235-.0938-.0235-.1407 0-.125-.0078-.1953-.0234-.2109 0-.0156 0-.0391 0-.0703.0156-.1719.0156-.2578 0-.2578 0 0 0-.0078 0-.0235 0-.0625-.0078-.1406-.0234-.2343-.0157-.0938-.0235-.1797-.0235-.2578 0-.2188-.0078-.3516-.0234-.3985-.0157-.0469-.0235-.0937-.0235-.1406 0-.0781.0157-.1563.0469-.2344.0313-.0937.0313-.1797 0-.2578.0469-.2031.0703-.4141.0703-.6328.0313-.1719.0625-.3047.0938-.3984 0-.1094.0078-.1954.0234-.2579.0313-.0625.0469-.125.0469-.1875.0156-.1406.0312-.2343.0469-.2812.0312-.0469.0625-.0938.0937-.1406.0313-.0782.0547-.1563.0703-.2344s.0391-.1641.0703-.2578c.0782-.1563.125-.2344.1407-.2344.0625-.1875.0937-.2891.0937-.3047.0156-.0156.0313-.039.0469-.0703.0781-.125.125-.2031.1406-.2344.0156-.0312.0391-.0547.0703-.0703 0-.0937.0235-.1875.0703-.2812.0938-.1407.1485-.211.1641-.211.0781-.1718.1328-.2812.1641-.3281.0312-.0312.0546-.0703.0703-.1172.0156-.0469.039-.0859.0703-.1172.0469-.0781.0703-.125.0703-.1406.0156-.0312.0313-.0625.0469-.0937.1094-.1094.1875-.1875.2344-.2344.0937-.1875.164-.2969.2109-.3281.0625-.0313.1094-.0782.1406-.1407.1094-.1718.1719-.2578.1875-.2578.0313 0 .0625-.0078.0938-.0234.0937-.1094.1406-.1563.1406-.1406.0156 0 .039-.0157.0703-.0469.1406-.0938.2266-.1563.2578-.1875l.1875-.1875c.0469-.0313.086-.0625.1172-.0938.1406-.0937.2188-.1484.2344-.164.0312-.0313.0625-.0547.0937-.0703.1719-.0782.2657-.1094.2813-.0938.0312 0 .0625-.0078.0937-.0234.1407-.0938.2344-.1407.2813-.1407.0625 0 .1094-.0078.1406-.0234.1562-.0625.2656-.0937.3281-.0937.0625-.0313.1172-.0547.1641-.0704.0469-.0312.1016-.0312.164 0 .1094-.0625.25-.0937.4219-.0937.1407-.0313.3047-.0391.4922-.0234.1875 0 .3672.0078.5391.0234.125-.0156.1953-.0156.2109 0h.1172c.1245.0312.2345.0625.3285.0937.125.0469.242.0704.351.0704.172 0 .258.0078.258.0234h.07c.11.0312.18.0547.211.0703.032 0 .063.0078.094.0234.172.0625.273.1094.305.1407.093.0468.156.0859.187.1172.047.0156.094.039.141.0703.156.125.273.1953.351.2109.157.1094.243.1875.258.2344.031.0469.078.0859.141.1172.031-.0625.039-.125.023-.1875-.015-.0625-.023-.1328-.023-.211 0-.0625.008-.125.023-.1875.016-.0625.024-.125.024-.1875-.016-.1875-.024-.3047-.024-.3515 0-.0469.016-.086.047-.1172-.015-.0469-.023-.1485-.023-.3047-.016-.1406-.024-.25-.024-.3281.016-.0938 0-.1797-.047-.2578.016-.0469.016-.0938 0-.1407-.015-.0625-.023-.125-.023-.1875-.016-.0625-.031-.1172-.047-.164-.016-.0625-.023-.125-.023-.1875-.016-.0625-.024-.125-.024-.1875s0-.1328 0-.211l-.047-.4922c-.031-.1718-.047-.2578-.047-.2578.016-.0156.024-.0312.024-.0468-.063-.1563-.102-.2579-.117-.3047 0-.0469-.008-.1094-.024-.1875 0-.1407 0-.2266 0-.2578.016-.0313.024-.0625.024-.0938.015-.1719.031-.2812.047-.3281.015-.0469.023-.1094.023-.1875.141-.1406.234-.211.281-.211.063-.0156.11-.0312.141-.0468h.258c.015-.0157.039-.0157.07 0l.516.0937h.14c.047-.0156.102-.0156.164 0 .063.0156.117.0235.164.0235.047-.0157.086-.0235.118-.0235.046.0156.093.0313.14.0469.063.0156.117.0078.164-.0234.031-.0157.071-.0235.117-.0235h.188c.109.0469.187.0703.234.0703h.118.187c.047-.0156.102-.0234.164-.0234.156 0 .242.0078.258.0234h.07c.078 0 .149.0078.211.0235.063 0 .125.0156.188.0468.046 0 .093-.0078.14-.0234.047-.0312.094-.0391.141-.0234.125.0312.195.039.211.0234.015-.0156.039-.0234.07-.0234.094 0 .188.0078.281.0234.094.0156.188.0078.282-.0234.062.0937.164.1406.304.1406.094.1406.133.2266.117.2578 0 .0313.008.0625.024.0938.062.125.086.2031.07.2343-.015.0157-.023.0391-.023.0703.031.1407.031.2344 0 .2813-.031.0312-.047.0625-.047.0937v.1407c.016.0312.023.0703.023.1172-.015.1875-.031.3046-.047.3515-.015.0469-.023.0938-.023.1406-.016.1719-.023.2657-.023.2813 0 0-.008.0156-.024.0469-.015.125-.031.2109-.047.2578-.015.0312-.023.0625-.023.0937.016.1563.008.3125-.024.4688-.031.1562-.007.2734.071.3515-.031.0938-.047.1875-.047.2813 0 .0781-.016.1641-.047.2578 0 .0625-.008.125-.023.1875-.016.0469-.032.0938-.047.1406 0 .1407-.008.2188-.024.2344v.0703c-.015.1094-.023.2266-.023.3516.015.1094.008.2187-.024.3281-.046.2031-.07.3516-.07.4453.016.0938.016.1797 0 .2578-.031.1875-.047.3047-.047.3516.016.0312.024.0703.024.1172-.016.1562-.024.2422-.024.2578.016.0156.024.0312.024.0469-.016.1718-.024.2656-.024.2812-.031.125-.031.2656 0 .4219v.3281c.016.0938.008.1953-.023.3047.015.125.039.2344.07.3281.031.1407.039.2188.024.2344v.0469c.015.1094.015.1875 0 .2344-.016.0468-.016.1015 0 .164.031.25.031.4297 0 .5391-.016.0937-.024.1953-.024.3047 0 .0781.008.1484.024.2109.015.0469.023.1016.023.1641.016.0625.023.125.023.1875v.1406c.032.1562.039.2422.024.2578v.0469.2812c.015.0469.031.1094.047.1875v.4453c.015.0782.015.1641 0 .2579v.2109c0 .2031-.008.3359-.024.3984 0 .0469.008.1016.024.1641.015.0937.023.1797.023.2578s-.008.1406-.023.1875c-.016.0313-.024.0859-.024.1641.016.0625.024.1328.024.2109.015.1563.015.2422 0 .2578v.0235c.015.125.015.2343 0 .3281v.2812c.015.2032.023.336.023.3985s-.008.1172-.023.164v.2813c0 .0625-.008.1484-.024.2578v.3281.3281c0 .0469.008.1094.024.1875.015.078.023.156.023.234.016.079.031.172.047.282.016.078.023.156.023.234.016.078.032.164.047.258.032.219.047.336.047.351.016.141.031.235.047.282.016.031.016.062 0 .093-.047.188-.078.289-.094.305-.125.078-.218.133-.281.164-.078-.031-.156-.047-.234-.047-.078.016-.18.024-.305.024-.156.015-.281.023-.375.023-.078.016-.172.008-.281-.023-.188.062-.375.07-.563.023-.187-.031-.344-.039-.468-.023-.079-.032-.141-.055-.188-.071-.047 0-.125 0-.234 0l-.282.024c-.078 0-.148 0-.211 0-.046.015-.101.008-.164-.024-.156.016-.25.032-.281.047-.016.016-.039.024-.07.024-.11-.016-.18-.024-.211-.024-.031.016-.078.024-.141.024-.094-.032-.211-.047-.351-.047-.141 0-.243-.008-.305-.024-.078 0-.156-.039-.234-.117-.125-.062-.196-.125-.211-.187.015-.125.015-.227 0-.305 0-.078.015-.156.047-.234.031-.11.046-.196.046-.258 0-.078.016-.133.047-.164.063-.188.086-.305.071-.352 0-.062.007-.109.023-.14zm.234-6.0473c-.14-.1718-.234-.289-.281-.3515-.031-.0782-.094-.1328-.187-.1641-.141-.1562-.219-.2344-.235-.2344-.062-.125-.109-.1875-.14-.1875-.032-.0156-.032-.039 0-.0703-.141-.0469-.227-.1015-.258-.164-.11-.0938-.18-.1563-.211-.1875-.031-.0469-.063-.086-.094-.1172-.14-.0625-.211-.0938-.211-.0938 0-.0156-.008-.0234-.023-.0234-.078-.0469-.149-.0781-.211-.0938-.047-.0156-.086-.039-.117-.0703-.172-.1094-.258-.164-.258-.164-.188-.0469-.297-.0782-.328-.0938-.031-.0312-.063-.0469-.094-.0469-.1875-.0156-.3047-.0156-.3516 0-.0468-.0156-.0937-.0078-.1406.0235-.0312.0312-.0781.039-.1406.0234-.1563.1094-.2422.1719-.2578.1875 0 .0156-.0156.0391-.0469.0703-.1094.0625-.1953.1094-.2578.1406-.0313.0469-.0625.086-.0938.1172-.0312.0157-.0547.0469-.0703.0938-.1094.125-.1797.1953-.2109.2109-.0156 0-.0313.0156-.0469.0469-.0937.1562-.1562.2656-.1875.3281 0 .0781-.0234.1485-.0703.211-.0312.0625-.0547.1328-.0703.2109.0156.0937.0156.1641 0 .2109v.1407.1171c.0156.0469.0156.1016 0 .1641-.0313.1406-.0391.2422-.0235.3047.0157.0625.0235.125.0235.1875-.0156.1094-.0156.1875 0 .2344.0156.0312.0234.0703.0234.1172.0157.0781.0235.1953.0235.3515 0 .0625-.0078.125-.0235.1875-.0156.0469-.0156.0938 0 .1406.0625.1875.0938.2891.0938.3047.0156.0157.0312.0391.0469.0703.0312.0625.0546.1172.0703.1641.0156.0469.039.0938.0703.1406.0781.0313.1406.086.1875.1641.0625.0625.1484.1172.2578.1641.0156.0625.1015.1093.2578.1406.2031.0469.3672.0547.4922.0234.125-.0469.2422-.0703.3513-.0703.157-.0625.242-.0937.258-.0937.188-.1094.297-.1719.328-.1875.047-.0157.086-.0313.117-.0469.11-.0313.188-.0703.235-.1172.14-.0938.226-.1563.258-.1875l.257-.2344c.11-.1094.172-.164.188-.164.031-.0157.062-.0391.094-.0704.031-.0312.054-.0625.07-.0937.016-.0469.047-.0859.094-.1172.078-.0781.132-.125.164-.1406.031-.0156.047-.0391.047-.0703.109-.125.187-.2032.234-.2344.047-.0469.094-.0859.141-.1172.031-.0312.046-.0625.046-.0937.016-.0313.04-.0782.071-.1407.125-.2343.172-.3828.14-.4453-.015-.0625-.015-.164 0-.3047zm18.118-5.7187c.062.0156.171.0547.328.1172.14.0468.242.125.304.2343.079.0313.149.0704.211.1172.063.0313.125.0782.188.1407.156.1093.226.1718.211.1875v.0468c.14.1094.211.1719.211.1875.031.0313.07.0703.117.1172s.086.086.117.1172c.078.1094.125.1797.141.2109.031.0313.062.0625.093.0938.079.1406.126.2266.141.2578.031.0156.055.0391.07.0703.157.1875.25.3281.282.4219.047.0781.093.1641.14.2578.063.1406.102.2188.117.2344.016 0 .032.0078.047.0234.047.1406.086.2344.118.2813.046.0468.085.1093.117.1875.078.125.148.2656.211.4218.078.1563.148.3282.211.5157.109.2968.195.5859.257.8672 0 .1093.008.1953.024.2578.078.2031.117.3437.117.4218 0 .0782.008.1641.024.2579.031.0781.046.1562.046.2343 0 .0782.008.1563.024.2344.031.1094.062.2656.094.4688 0 .125-.008.25-.024.375v.3515c-.016.125-.023.2344-.023.3281.015.0938.007.1954-.024.3047-.031.1407-.047.2422-.047.3047s-.007.1328-.023.211c-.031.125-.047.2109-.047.2578-.031.0781-.062.1484-.094.2109-.015.0469-.039.1094-.07.1875-.031.125-.055.2109-.07.2578-.032.125-.078.2266-.141.3047-.047.0781-.109.1641-.187.2578-.047.0938-.102.1719-.164.2344-.047.0625-.094.125-.141.1875-.109.1719-.195.2891-.258.3516-.047.0625-.094.1328-.141.2109-.125.1567-.195.2417-.21.2577-.016 0-.032.016-.047.047-.063.078-.133.164-.211.258-.078.078-.164.148-.258.211-.078.156-.149.25-.211.281-.047.031-.109.07-.188.117-.062.047-.117.102-.164.164-.25.094-.398.156-.445.188l-.234.117c-.235.094-.383.164-.446.211-.062.031-.132.07-.211.117-.062.031-.171.078-.328.141-.093.047-.164.07-.211.07-.031 0-.062.008-.093.023-.125.047-.203.071-.235.071-.015 0-.039.008-.07.023-.172.047-.289.07-.352.07-.062 0-.125.008-.187.024-.203.062-.359.094-.469.094-.187-.016-.312-.016-.375 0-.047.015-.109.031-.187.047-.235.046-.469.046-.704 0-.171.031-.312.046-.421.046-.047 0-.094 0-.141 0-.047.016-.086.024-.117.024-.063 0-.117-.016-.164-.047-.031-.016-.078-.023-.141-.023-.062-.016-.18-.024-.351-.024-.094-.016-.188-.031-.282-.047-.093-.015-.187-.031-.281-.047-.047-.015-.102-.023-.164-.023-.047 0-.094-.008-.141-.024-.109-.031-.195-.046-.257-.046-.204-.079-.297-.118-.282-.118-.218-.062-.336-.101-.351-.117-.188-.015-.313-.039-.375-.07-.172-.063-.274-.094-.305-.094l-.258-.117c-.187-.094-.312-.141-.375-.141-.156-.047-.258-.093-.304-.14-.172-.063-.274-.102-.305-.117-.031-.016-.063-.032-.094-.047-.156-.157-.265-.243-.328-.258-.063-.031-.109-.078-.141-.141-.172-.078-.265-.125-.281-.14 0-.016-.008-.032-.023-.047-.094-.063-.172-.149-.235-.258-.125-.094-.218-.195-.281-.305-.094-.078-.156-.1482-.187-.2107-.11-.1563-.165-.2422-.165-.2578s-.007-.0313-.023-.0469c-.109-.1875-.18-.2891-.211-.3047-.016-.0312-.031-.0703-.047-.1172-.047-.0468-.101-.0937-.164-.1406-.047-.0625-.07-.1406-.07-.2344-.125-.0937-.203-.1797-.235-.2578-.046-.1094-.07-.1797-.07-.2109.016-.0313.024-.0625.024-.0938-.11-.1875-.188-.3281-.235-.4218-.062-.2032-.101-.3282-.117-.375-.094-.1875-.156-.336-.187-.4454-.032-.1093-.063-.2343-.094-.375-.016-.125-.024-.1953-.024-.2109.016-.0156.016-.0391 0-.0703 0-.0469-.007-.0859-.023-.1172 0-.0469-.008-.0937-.024-.1406.016-.2344.008-.3672-.023-.3985-.016-.1562-.031-.2343-.047-.2343-.015-.0157-.023-.0391-.023-.0703 0-.125.008-.2188.023-.2813.031-.0625.047-.125.047-.1875 0-.125 0-.2187 0-.2812.047-.125.07-.2032.07-.2344.016-.0469.016-.1016 0-.1641.063-.1406.094-.2422.094-.3047s.008-.1172.024-.164c.031-.0938.054-.1563.07-.1875.015-.0313.023-.0625.023-.0938.016-.0781.024-.1328.024-.164 0-.0313.008-.0782.023-.1407.047-.1093.094-.2031.141-.2812.047-.125.07-.211.07-.2578 0-.0469.008-.0938.024-.1407.031-.1406.062-.2265.093-.2578.063-.1718.102-.2578.117-.2578.016 0 .024-.0078.024-.0234.078-.125.133-.211.164-.2578.031-.0625.062-.1172.094-.1641.031-.0781.062-.1484.094-.2109.031-.0625.062-.1328.093-.211.078-.0937.117-.1484.117-.164.016-.0313.032-.0625.047-.0938.078-.125.125-.1875.141-.1875.016-.0156.039-.039.07-.0703.063-.0937.094-.1484.094-.1641.016-.0156.031-.039.047-.0703.234-.2812.383-.4922.445-.6328.125-.0625.203-.125.235-.1875.062-.0156.101-.0469.117-.0937.031-.0625.062-.1094.094-.1407l.281-.0937c.156-.1094.273-.1797.351-.2109.11-.0625.18-.086.211-.0704.047 0 .086-.0078.117-.0234.125-.1094.188-.1562.188-.1406s.016.0078.047-.0235c.156-.0625.242-.0937.258-.0937.031 0 .062-.0078.093-.0234.125-.0782.204-.1172.235-.1172.031-.0157.07-.0313.117-.0469s.086-.0391.117-.0703c.156-.0781.258-.1172.305-.1172s.094-.0078.14-.0234c.157-.0625.25-.0938.282-.0938.047-.0156.086-.0234.117-.0234.328-.0782.555-.1407.68-.1875.093.0156.179.0156.257 0 .094-.0313.18-.0547.258-.0703.188 0 .305.0078.352.0234s.094.0234.14.0234c.047 0 .094-.0078.141-.0234.063-.0156.125-.0234.187-.0234h.376c.046-.0157.093-.0235.14-.0235.063-.0156.117-.0156.164 0s.102.0235.164.0235c.047-.0157.094-.0313.141-.0469.062-.0156.133-.0156.211 0 .094.0156.18.0312.258.0469.078.0156.125.0234.14.0234.188.0156.297.0312.328.0469.078.0156.164.0312.258.0468.11.0157.227.0313.352.0469.172.0156.258.0235.258.0235.015-.0157.039-.0157.07 0 .14.0625.226.1015.258.1171h.117c.062.0157.125.0313.187.0469.078 0 .141.0235.188.0703.219.0938.344.1563.375.1875zm-3.329 3.5859c-.156-.0312-.234-.039-.234-.0234s-.008.0234-.023.0234c-.157.0156-.243.0313-.258.0469-.016.0156-.039.0234-.07.0234-.063.0313-.133.0547-.211.0703-.063 0-.11.0157-.141.0469-.156.0938-.242.1406-.258.1406-.015 0-.039.0079-.07.0235-.141.0469-.211.0781-.211.0937 0 0-.016.0078-.047.0235-.094.0625-.18.1328-.258.2109-.109.0781-.195.1484-.258.2109-.046.0469-.085.086-.117.1172-.125.1407-.187.2188-.187.2344-.094.125-.172.2188-.235.2813-.109.1562-.164.2578-.164.3046 0 .0469-.015.0938-.047.1407-.125.1406-.195.2578-.211.3515-.046.0782-.093.1485-.14.211-.031.0468-.047.1015-.047.164.016.2032.016.3282 0 .375v.1172c0 .2031.023.3594.07.4688.032.125.063.25.094.375.047.125.102.25.164.375.094.1718.133.2656.117.2812 0 .0156.008.0313.024.0469.078.125.125.1875.14.1875.016 0 .032.0078.047.0234.125.125.196.1875.211.1875.016 0 .039.0078.07.0235.079.0781.157.164.235.2578.094.0781.203.125.328.1406l.305.1641c.047.0312.093.0468.14.0468s.094.0079.141.0235c.094.0469.156.0703.187.0703.032-.0156.063-.0156.094 0 .141.0469.235.0703.281.0703.047-.0156.086-.0234.118-.0234.156.0468.25.0703.281.0703.047-.0156.094-.0235.14-.0235h.235c.109-.0156.203-.0234.281-.0234l.422-.0703c.141-.0469.203-.0781.188-.0938 0-.0156.015-.0234.046-.0234.11-.0156.196-.0547.258-.1172.141-.1094.258-.164.352-.164.078-.1563.156-.2579.234-.3047.094-.1407.133-.211.117-.211 0-.0156.008-.0312.024-.0468.047-.1094.086-.1641.117-.1641.031-.0156.055-.0391.07-.0703.047-.0938.071-.1563.071-.1875.015-.0313.031-.0547.046-.0703l.165-.3282c.093-.1406.14-.2656.14-.375.063-.1875.086-.3203.07-.3984 0-.0781 0-.1562 0-.2344-.015-.0781-.031-.1484-.046-.2109-.016-.0625-.032-.1328-.047-.2109-.016-.0625-.024-.1094-.024-.1407.016-.0468.016-.0859 0-.1172-.031-.0625-.062-.1093-.093-.1406-.016-.0469-.024-.0937-.024-.1406-.094-.125-.141-.1953-.141-.2109 0-.0157-.007-.0313-.023-.0469-.078-.1094-.117-.1641-.117-.1641 0-.0156-.008-.039-.024-.0703-.047-.0625-.093-.1172-.14-.1641-.031-.0625-.071-.125-.117-.1875-.11-.1093-.172-.1718-.188-.1875 0-.0156-.016-.0312-.047-.0468-.156-.125-.265-.2032-.328-.2344-.047-.0469-.086-.1016-.117-.1641-.172-.0781-.313-.1406-.422-.1875-.156-.0781-.234-.125-.234-.1406.015-.0312.015-.0469 0-.0469l-.305-.0937c-.125-.0625-.203-.1094-.234-.1406zm13.547-1.7344c.141-.1093.219-.1562.235-.1406.015 0 .023-.0078.023-.0234.125-.1094.203-.1797.235-.211.093-.0468.148-.0781.164-.0937.031-.0156.062-.0313.093-.0469l.329-.2344c.062-.0312.109-.0703.14-.1171.047-.0625.094-.125.141-.1875.172-.0938.265-.1485.281-.1641.062-.0625.117-.1016.164-.1172s.086-.0391.117-.0703c.203-.1719.367-.2813.492-.3281.063-.0782.133-.1328.211-.1641.078-.0469.149-.1094.211-.1875.11-.0312.188-.0703.235-.1172.078-.0625.132-.1015.164-.1172.047-.0312.094-.0547.14-.0703.188-.0156.289-.0234.305-.0234.125.0156.211.0234.258.0234.109.0938.172.1406.187.1406.032 0 .063.0157.094.0469.031.0313.07.0625.117.0938.047.0156.086.039.117.0703l.211.164c.141.0782.211.125.211.1407 0 0 .008.0078.024.0234.094.0781.164.1328.211.1641.047.0312.078.0703.093.1172.11.0468.196.1093.258.1875.078.0625.157.1328.235.2109.172.1094.281.1797.328.2109.047.0313.086.0625.117.0938.125.0469.219.125.281.2344.063.1093.157.1953.281.2578.126.125.188.1875.188.1875.031.0468.062.1015.094.164.047.0625.086.1172.117.1641.125.1406.195.2266.211.2578.016.0156.039.0391.07.0703.078.0938.149.1875.211.2813.063.125.117.2578.164.3984.063.1406.133.2734.211.3984-.031.125-.023.2579.024.3985l.023.2578c0 .1094.008.1875.023.2344.016.0468.024.0859.024.1172.031.0468.031.0937 0 .1406-.016.0469-.024.1015-.024.164.016.1875.016.3125 0 .375v.1407.1172c.016.0468.016.1015 0 .164-.031.2031-.054.3438-.07.4219 0 .0625.008.1484.024.2578 0 .1719-.016.2969-.047.375-.016.0625-.024.1328-.024.2109.016.1875.024.3047.024.3516.015.0313.023.0625.023.0938l-.023.5625c.015.1562.015.2343 0 .2343v.0235c.015.125.015.1953 0 .2109v.0469.1406c.015.0469.023.0938.023.1406v.211c.016.0156.024.0312.024.0468-.047.1407-.071.2188-.071.2344.016.0156.024.0391.024.0703v.1875c.015.0469.023.1016.023.1641 0 .0781-.008.1562-.023.2344v.2343.2579c.047.2343.07.4296.07.5859 0 .1562.008.3125.023.4687v.234c.016.016.024.039.024.071.016.172.023.343.023.515v.493c0 .046.008.093.024.14.015.047.015.094 0 .141-.016.047-.031.086-.047.117-.016.016-.039.055-.07.117-.313.125-.508.195-.586.211-.078.031-.172.031-.282 0-.078 0-.179-.008-.304-.023-.11 0-.203.007-.282.023-.171-.016-.289-.023-.351-.023-.047.015-.102.023-.164.023h-.399c-.078 0-.156 0-.234 0-.062.016-.125.016-.188 0-.156-.047-.242-.07-.257-.07-.032 0-.071 0-.117 0-.047.015-.11.023-.188.023-.188-.015-.297-.015-.328 0-.016.016-.039.016-.07 0-.032.031-.079.047-.141.047-.063 0-.133 0-.211 0-.141.031-.25.024-.328-.023-.141-.125-.242-.211-.305-.258 0-.078-.008-.156-.023-.235-.016-.078-.024-.164-.024-.257l.047-.305.024-.258c.015-.031.023-.07.023-.117.016-.047.039-.109.07-.188.016-.046.024-.085.024-.117.015-.047.031-.109.047-.187 0-.1877.007-.3205.023-.3986.016-.0938.024-.1797.024-.2579-.016-.2031-.008-.3359.023-.3984 0-.1719.008-.2656.023-.2812-.015-.1563-.015-.25 0-.2813.016-.0312.024-.0625.024-.0937 0-.1875 0-.2891 0-.3047.016-.0157.023-.0313.023-.0469-.031-.1719-.047-.2656-.047-.2813.016-.0156.024-.0312.024-.0468 0-.0469-.008-.0938-.024-.1407 0-.0625 0-.1328 0-.2109v-.3047c-.015-.1719-.023-.3047-.023-.3984-.031-.1875-.047-.3125-.047-.375.016-.0625.024-.1172.024-.1641 0-.2187 0-.3828 0-.4922 0-.125-.016-.2265-.047-.3047.031-.0312.039-.0781.023-.1406 0-.0625 0-.1172 0-.164.016-.1563.008-.2735-.023-.3516-.016-.0938-.008-.1719.023-.2344-.016-.1406-.031-.2422-.047-.3047 0-.0625-.031-.1093-.093-.1406-.141-.125-.211-.2031-.211-.2344-.204-.0156-.375.0157-.516.0938-.109.1406-.172.2109-.188.2109-.109.1563-.195.2578-.257.3047-.047.0469-.094.1016-.141.1641-.125.1562-.203.25-.234.2812-.172.0938-.297.1719-.375.2344-.063.0625-.141.0859-.235.0703-.078 0-.148-.0234-.211-.0703-.047-.0625-.109-.1094-.187-.1406-.031-.0782-.071-.1407-.117-.1875-.047-.0469-.086-.1094-.118-.1875-.109-.1563-.164-.2344-.164-.2344.016 0 .016-.0078 0-.0234-.078-.1407-.164-.2735-.257-.3985-.032.0313-.047.0703-.047.1172v.1406.2813.5156c0 .0781-.008.1641-.024.2578v.2813.5859c.016.1875.024.3828.024.5859.031.0782.047.1641.047.2579v.2578l.023.2578v.164c.016.0313.023.0625.023.0938.016.1719.016.2734 0 .3047-.015.0312-.023.0625-.023.0937 0 .0938.016.2188.047.375-.016.0625-.024.1328-.024.211.016.0781.024.1484.024.2109.015.0469.015.0938 0 .1406v.1407c.015.1562.031.2656.047.3281.015.0469.023.0859.023.1172.031.2812.047.4608.047.5388.016.047.016.102 0 .164 0 .047.008.094.024.141.031.156.039.242.023.258v.07l.07.352c-.015.156-.023.242-.023.257.015.016.023.039.023.071-.047.172-.07.297-.07.375s-.023.133-.07.164c-.157.015-.274.023-.352.023-.078.016-.148.039-.211.071-.266.031-.476.023-.633-.024-.156-.031-.242-.047-.257-.047-.016.016-.04.024-.071.024-.062 0-.109-.008-.14-.024-.032 0-.079 0-.141 0-.188-.015-.305-.023-.352-.023-.031 0-.07-.008-.117-.024-.078 0-.164 0-.258 0-.078-.015-.156-.031-.234-.047-.187-.046-.359-.054-.516-.023-.14.031-.25.055-.328.07-.109 0-.179 0-.211 0-.015-.015-.039-.015-.07 0-.047 0-.094.008-.141.024-.031 0-.078-.008-.14-.024-.125 0-.227.016-.305.047-.172-.062-.266-.094-.281-.094 0 0-.008-.015-.024-.046-.047-.079-.086-.133-.117-.164-.015-.032-.023-.071-.023-.118.015-.25.015-.429 0-.539 0-.125.008-.242.023-.351 0-.188 0-.305 0-.352.016-.062.031-.117.047-.164.031-.2811.063-.4608.094-.539.015-.2031.015-.3359 0-.3984-.016-.0625-.016-.125 0-.1875 0-.1719.008-.2656.023-.2812.016-.0313.024-.0625.024-.0938l-.024-.3047c0-.0937 0-.1797 0-.2578s-.015-.1484-.047-.2109c.016-.1719.008-.2891-.023-.3516-.016-.0781-.008-.125.023-.1406.016-.1406.024-.2188.024-.2344s-.008-.0391-.024-.0703c0-.0469 0-.0938 0-.1406.016-.0469.024-.086.024-.1172 0-.0625-.008-.1094-.024-.1406-.015-.0469-.007-.0938.024-.1407 0-.1562 0-.2734 0-.3515 0-.0938 0-.1797 0-.2578 0-.0782-.008-.1485-.024-.211-.015-.0625-.023-.1172-.023-.164.016-.2032.008-.336-.024-.3985.016-.0625.024-.1172.024-.164 0-.0625.008-.125.023-.1875v-.2813-.4922c0-.125-.007-.2109-.023-.2578 0-.0625 0-.1172 0-.1641-.031-.1562-.047-.2812-.047-.375 0-.1093 0-.2031 0-.2812.016-.125.016-.2031 0-.2344-.016-.0469 0-.0625.047-.0469-.016-.25-.039-.4218-.07-.5156-.016-.0937-.008-.1797.023-.2578-.016-.0312-.031-.0703-.047-.1172-.015-.0469-.023-.1015-.023-.164.015-.1407.015-.2266 0-.2579-.016-.0312-.024-.0625-.024-.0937 0-.2031 0-.3594 0-.4688-.015-.1718-.023-.2812-.023-.3281.016-.0625.023-.125.023-.1875v-.3515c-.015-.125-.023-.2188-.023-.2813-.031-.1875-.047-.3047-.047-.3516 0-.0468-.008-.0937-.023-.1406l-.024-.3281c-.016-.1406-.016-.2969 0-.4688.141-.1718.203-.2578.188-.2578.187-.0781.304-.1172.351-.1172.188.0157.305.0157.352 0 .047-.0156.101-.0312.164-.0468.125 0 .203-.0078.234-.0235.031-.0156.063-.0234.094-.0234.047-.0156.094-.0156.141 0 .062.0156.109.0078.14-.0234.219.0156.375.0234.469.0234s.18-.0156.258-.0469c.047-.0156.109-.0156.187 0s.141.0469.188.0938c.078-.0313.148-.0391.211-.0235h.187c.172.0313.313.0469.422.0469.125-.0156.234-.0078.328.0234.078-.0312.172-.039.281-.0234.11.0156.204 0 .282-.0469l.281.0703c.156.1563.266.2969.328.4219.063.1094.047.2188-.047.3281-.031.1407-.055.2813-.07.4219-.016.125-.039.2656-.07.4219-.016.1875-.032.2969-.047.3281 0 .0313-.008.0625-.024.0938-.015.0781-.023.1484-.023.2109.015.0625.008.1328-.024.2109zm14.602 0c.141-.1093.219-.1562.234-.1406.016 0 .024-.0078.024-.0234.125-.1094.203-.1797.234-.211.094-.0468.149-.0781.164-.0937.031-.0156.063-.0313.094-.0469l.328-.2344c.063-.0312.109-.0703.141-.1171.047-.0625.093-.125.14-.1875.172-.0938.266-.1485.282-.1641.062-.0625.117-.1016.164-.1172.046-.0156.086-.0391.117-.0703.203-.1719.367-.2813.492-.3281.063-.0782.133-.1328.211-.1641.078-.0469.148-.1094.211-.1875.109-.0312.187-.0703.234-.1172.078-.0625.133-.1015.164-.1172.047-.0312.094-.0547.141-.0703.187-.0156.289-.0234.305-.0234.125.0156.211.0234.257.0234.11.0938.172.1406.188.1406.031 0 .062.0157.094.0469.031.0313.07.0625.117.0938.047.0156.086.039.117.0703l.211.164c.141.0782.211.125.211.1407 0 0 .008.0078.023.0234.094.0781.164.1328.211.1641.047.0312.078.0703.094.1172.109.0468.195.1093.258.1875.078.0625.156.1328.234.2109.172.1094.282.1797.328.2109.047.0313.086.0625.118.0938.125.0469.218.125.281.2344.062.1093.156.1953.281.2578.125.125.188.1875.188.1875.031.0468.062.1015.093.164.047.0625.086.1172.117.1641.126.1406.196.2266.211.2578.016.0156.039.0391.071.0703.078.0938.148.1875.211.2813.062.125.117.2578.164.3984.062.1406.133.2734.211.3984-.032.125-.024.2579.023.3985l.024.2578c0 .1094.007.1875.023.2344.016.0468.023.0859.023.1172.032.0468.032.0937 0 .1406-.015.0469-.023.1015-.023.164.016.1875.016.3125 0 .375v.1407.1172c.016.0468.016.1015 0 .164-.031.2031-.055.3438-.07.4219 0 .0625.008.1484.023.2578 0 .1719-.015.2969-.047.375-.015.0625-.023.1328-.023.2109.015.1875.023.3047.023.3516.016.0313.024.0625.024.0938l-.024.5625c.016.1562.016.2343 0 .2343v.0235c.016.125.016.1953 0 .2109v.0469.1406c.016.0469.024.0938.024.1406v.211c.015.0156.023.0312.023.0468-.047.1407-.07.2188-.07.2344.015.0156.023.0391.023.0703v.1875c.016.0469.024.1016.024.1641 0 .0781-.008.1562-.024.2344v.2343.2579c.047.2343.071.4296.071.5859 0 .1562.007.3125.023.4687v.234c.016.016.023.039.023.071.016.172.024.343.024.515v.493c0 .046.008.093.023.14.016.047.016.094 0 .141-.015.047-.031.086-.047.117-.015.016-.039.055-.07.117-.312.125-.508.195-.586.211-.078.031-.172.031-.281 0-.078 0-.18-.008-.305-.023-.109 0-.203.007-.281.023-.172-.016-.289-.023-.352-.023-.046.015-.101.023-.164.023h-.398c-.078 0-.156 0-.234 0-.063.016-.125.016-.188 0-.156-.047-.242-.07-.258-.07-.031 0-.07 0-.117 0-.047.015-.109.023-.187.023-.188-.015-.297-.015-.329 0-.015.016-.039.016-.07 0-.031.031-.078.047-.141.047-.062 0-.132 0-.21 0-.141.031-.25.024-.329-.023-.14-.125-.242-.211-.304-.258 0-.078-.008-.156-.024-.235-.015-.078-.023-.164-.023-.257l.047-.305.023-.258c.016-.031.024-.07.024-.117.015-.047.039-.109.07-.188.016-.046.023-.085.023-.117.016-.047.032-.109.047-.187 0-.1877.008-.3205.024-.3986.015-.0938.023-.1797.023-.2579-.015-.2031-.008-.3359.024-.3984 0-.1719.007-.2656.023-.2812-.016-.1563-.016-.25 0-.2813.016-.0312.023-.0625.023-.0937 0-.1875 0-.2891 0-.3047.016-.0157.024-.0313.024-.0469-.031-.1719-.047-.2656-.047-.2813.016-.0156.023-.0312.023-.0468 0-.0469-.007-.0938-.023-.1407 0-.0625 0-.1328 0-.2109v-.3047c-.016-.1719-.023-.3047-.023-.3984-.032-.1875-.047-.3125-.047-.375.015-.0625.023-.1172.023-.1641 0-.2187 0-.3828 0-.4922 0-.125-.015-.2265-.047-.3047.032-.0312.039-.0781.024-.1406 0-.0625 0-.1172 0-.164.015-.1563.008-.2735-.024-.3516-.015-.0938-.008-.1719.024-.2344-.016-.1406-.032-.2422-.047-.3047 0-.0625-.031-.1093-.094-.1406-.141-.125-.211-.2031-.211-.2344-.203-.0156-.375.0157-.516.0938-.109.1406-.171.2109-.187.2109-.109.1563-.195.2578-.258.3047-.047.0469-.094.1016-.14.1641-.125.1562-.204.25-.235.2812-.172.0938-.297.1719-.375.2344-.062.0625-.14.0859-.234.0703-.078 0-.149-.0234-.211-.0703-.047-.0625-.11-.1094-.188-.1406-.031-.0782-.07-.1407-.117-.1875-.047-.0469-.086-.1094-.117-.1875-.109-.1563-.164-.2344-.164-.2344.016 0 .016-.0078 0-.0234-.078-.1407-.164-.2735-.258-.3985-.031.0313-.047.0703-.047.1172v.1406.2813.5156c0 .0781-.008.1641-.023.2578v.2813.5859c.015.1875.023.3828.023.5859.031.0782.047.1641.047.2579v.2578l.024.2578v.164c.015.0313.023.0625.023.0938.016.1719.016.2734 0 .3047-.016.0312-.023.0625-.023.0937 0 .0938.015.2188.046.375-.015.0625-.023.1328-.023.211.016.0781.023.1484.023.2109.016.0469.016.0938 0 .1406v.1407c.016.1562.032.2656.047.3281.016.0469.024.0859.024.1172.031.2812.047.4608.047.5388.015.047.015.102 0 .164 0 .047.007.094.023.141.031.156.039.242.023.258v.07l.071.352c-.016.156-.024.242-.024.257.016.016.024.039.024.071-.047.172-.071.297-.071.375s-.023.133-.07.164c-.156.015-.273.023-.351.023-.079.016-.149.039-.211.071-.266.031-.477.023-.633-.024-.156-.031-.242-.047-.258-.047-.016.016-.039.024-.07.024-.063 0-.11-.008-.141-.024-.031 0-.078 0-.14 0-.188-.015-.305-.023-.352-.023-.031 0-.07-.008-.117-.024-.078 0-.164 0-.258 0-.078-.015-.156-.031-.234-.047-.188-.046-.36-.054-.516-.023-.141.031-.25.055-.328.07-.11 0-.18 0-.211 0-.016-.015-.039-.015-.07 0-.047 0-.094.008-.141.024-.031 0-.078-.008-.141-.024-.125 0-.226.016-.304.047-.172-.062-.266-.094-.282-.094 0 0-.007-.015-.023-.046-.047-.079-.086-.133-.117-.164-.016-.032-.024-.071-.024-.118.016-.25.016-.429 0-.539 0-.125.008-.242.024-.351 0-.188 0-.305 0-.352.015-.062.031-.117.047-.164.031-.2811.062-.4608.093-.539.016-.2031.016-.3359 0-.3984-.015-.0625-.015-.125 0-.1875 0-.1719.008-.2656.024-.2812.015-.0313.023-.0625.023-.0938l-.023-.3047c0-.0937 0-.1797 0-.2578s-.016-.1484-.047-.2109c.016-.1719.008-.2891-.023-.3516-.016-.0781-.008-.125.023-.1406.016-.1406.023-.2188.023-.2344s-.007-.0391-.023-.0703c0-.0469 0-.0938 0-.1406.016-.0469.023-.086.023-.1172 0-.0625-.007-.1094-.023-.1406-.016-.0469-.008-.0938.023-.1407 0-.1562 0-.2734 0-.3515 0-.0938 0-.1797 0-.2578 0-.0782-.007-.1485-.023-.211s-.023-.1172-.023-.164c.015-.2032.007-.336-.024-.3985.016-.0625.024-.1172.024-.164 0-.0625.007-.125.023-.1875v-.2813-.4922c0-.125-.008-.2109-.023-.2578 0-.0625 0-.1172 0-.1641-.032-.1562-.047-.2812-.047-.375 0-.1093 0-.2031 0-.2812.015-.125.015-.2031 0-.2344-.016-.0469 0-.0625.047-.0469-.016-.25-.04-.4218-.071-.5156-.015-.0937-.008-.1797.024-.2578-.016-.0312-.032-.0703-.047-.1172-.016-.0469-.024-.1015-.024-.164.016-.1407.016-.2266 0-.2579-.015-.0312-.023-.0625-.023-.0937 0-.2031 0-.3594 0-.4688-.016-.1718-.024-.2812-.024-.3281.016-.0625.024-.125.024-.1875v-.3515c-.016-.125-.024-.2188-.024-.2813-.031-.1875-.046-.3047-.046-.3516 0-.0468-.008-.0937-.024-.1406l-.023-.3281c-.016-.1406-.016-.2969 0-.4688.14-.1718.203-.2578.187-.2578.188-.0781.305-.1172.352-.1172.187.0157.304.0157.351 0 .047-.0156.102-.0312.164-.0468.125 0 .204-.0078.235-.0235.031-.0156.062-.0234.093-.0234.047-.0156.094-.0156.141 0 .063.0156.109.0078.141-.0234.218.0156.375.0234.468.0234.094 0 .18-.0156.258-.0469.047-.0156.11-.0156.188 0s.14.0469.187.0938c.078-.0313.149-.0391.211-.0235h.188c.172.0313.312.0469.422.0469.125-.0156.234-.0078.328.0234.078-.0312.172-.039.281-.0234s.203 0 .281-.0469l.282.0703c.156.1563.265.2969.328.4219.062.1094.046.2188-.047.3281-.031.1407-.055.2813-.071.4219-.015.125-.039.2656-.07.4219-.016.1875-.031.2969-.047.3281 0 .0313-.008.0625-.023.0938-.016.0781-.024.1484-.024.2109.016.0625.008.1328-.023.2109zm18.492 7.6172c.031.0469.07.0625.117.0469s.094-.0312.141-.0469c.219-.0468.359-.0703.422-.0703.062-.0156.133-.0312.211-.0469.125-.0312.25-.0703.375-.1171.14-.0625.281-.1094.422-.1407.031-.0156.07-.0234.117-.0234.062-.0156.109-.0313.14-.0469.094-.0625.164-.1015.211-.1172.063-.0312.11-.0625.141-.0937.156-.125.258-.1953.305-.211.047-.0156.086-.039.117-.0703.219-.0625.344-.0859.375-.0703.125.0313.187.1328.187.3047-.015.2188-.023.3594-.023.4219.016.0469.023.1094.023.1875.016.125.024.2422.024.3515v.3282.1406c.015.0469.023.0859.023.1172 0 .0781-.015.164-.047.2578-.015.0937-.023.1797-.023.2578.016.25.016.4844 0 .7029-.047.203-.063.336-.047.399.016.062.024.117.024.164-.016.109-.032.203-.047.281-.157.156-.274.242-.352.258-.078 0-.133.039-.164.117-.094.016-.156.031-.187.047-.016.015-.04.031-.071.047-.109.093-.195.14-.258.14-.047 0-.093.008-.14.024l-.281.117c-.172.062-.29.094-.352.094-.063 0-.125.031-.188.093-.062 0-.125.016-.187.047-.047.016-.109.032-.188.047-.156.031-.265.055-.328.071-.109.046-.187.07-.234.07s-.102.008-.164.023c-.078.016-.164.024-.258.024-.078.015-.164.031-.258.047-.234.046-.398.062-.492.046-.094 0-.187.016-.281.047-.125 0-.227.008-.305.024-.078.015-.156.023-.234.023-.094 0-.188-.008-.281-.023-.079-.016-.165-.031-.258-.047-.063.031-.141.039-.235.023-.078-.015-.179-.039-.304-.07-.125-.016-.211-.031-.258-.047-.188 0-.313-.008-.375-.023-.047-.016-.102-.032-.164-.047-.063-.016-.117-.024-.164-.024s-.102-.007-.164-.023c-.11-.016-.188-.031-.235-.047s-.093-.031-.14-.047c-.188-.047-.297-.078-.329-.094l-.21-.164c-.125-.031-.25-.078-.375-.14-.047-.031-.094-.055-.141-.071-.031-.015-.07-.046-.117-.093-.031-.047-.078-.078-.141-.094-.047-.016-.094-.039-.14-.07-.172-.11-.266-.172-.282-.188 0-.015-.008-.031-.023-.047-.11-.047-.172-.078-.188-.093 0-.016-.015-.032-.047-.047l-.234-.141c-.094-.094-.18-.156-.258-.187-.031-.079-.078-.133-.14-.165-.047-.046-.086-.109-.118-.187-.109-.094-.187-.156-.234-.188-.047-.0308-.086-.0776-.117-.1401-.047-.0313-.086-.0625-.117-.0938-.016-.0469-.039-.0859-.071-.1172-.062-.0469-.101-.1328-.117-.2578-.094-.0937-.14-.1562-.14-.1875 0-.0312-.008-.0625-.024-.0937-.094-.125-.156-.2032-.187-.2344-.094-.1094-.141-.1719-.141-.1875s-.008-.0391-.023-.0703c-.11-.2188-.188-.3516-.235-.3985 0-.0781-.008-.1328-.023-.164-.016-.0313-.024-.0703-.024-.1172-.078-.1563-.117-.25-.117-.2813 0-.0468 0-.0859 0-.1172-.047-.1562-.078-.2343-.094-.2343 0 0 0-.0078 0-.0235-.078-.2343-.125-.3828-.14-.4453-.016-.0781-.039-.1484-.071-.2109-.031-.1563-.054-.2578-.07-.3047 0-.0469-.008-.1094-.023-.1875 0-.0938-.008-.1875-.024-.2813-.015-.1093-.023-.1718-.023-.1875 0-.0312 0-.0781 0-.1406.015-.0781.015-.1406 0-.1875-.016-.0469-.039-.0859-.071-.1172-.031-.0468-.046-.0937-.046-.1406.078-.2344.117-.3828.117-.4453 0-.0781 0-.1719 0-.2813.031-.1406.039-.25.023-.3281-.015-.0781-.015-.1562 0-.2344 0-.0468 0-.0937 0-.1406 0-.0625.016-.1094.047-.1406-.031-.0625-.039-.1094-.023-.1406.031-.0469.054-.0938.07-.1407 0-.1718 0-.2578 0-.2578.016-.0156.023-.039.023-.0703.032-.1406.055-.2578.071-.3515.031-.1094.062-.2032.094-.2813.046-.125.07-.1953.07-.2109 0-.0313.008-.0625.023-.0938.063-.0937.102-.1562.117-.1875.016-.0312.032-.0625.047-.0937.063-.2344.133-.4141.211-.5391s.133-.2187.164-.2812c.032-.0625.063-.1094.094-.1407 0-.0625.016-.1093.047-.1406.047-.0312.086-.0625.117-.0937.078-.1407.133-.2188.164-.2344.078-.1406.117-.2188.117-.2344.141-.1562.227-.2422.258-.2578s.063-.0391.094-.0703c.109-.125.156-.1953.141-.211 0-.0312.007-.0468.023-.0468.047-.0157.078-.0391.094-.0703.031-.0469.062-.086.093-.1172.141-.125.219-.1953.235-.211.015-.0156.039-.0312.07-.0468.063-.1094.102-.1641.117-.1641.032 0 .047-.0156.047-.0469.157-.1094.242-.1719.258-.1875.031-.0156.063-.039.094-.0703.125-.0937.195-.1406.211-.1406.031-.0156.054-.0313.07-.0469.156-.0937.242-.1562.258-.1875.14-.1094.219-.1641.234-.1641.032-.0156.047-.039.047-.0703.188-.0937.297-.1406.328-.1406s.063-.0078.094-.0234c.234-.0938.383-.1563.445-.1875.032-.0157.063-.0235.094-.0235.047-.0156.109-.0312.188-.0468.031-.0157.062-.0313.093-.0469.047-.0156.102-.0313.164-.0469.157-.0469.235-.0703.235-.0703 0-.0156.015-.0234.047-.0234.109-.0313.179-.0547.211-.0704.031-.0156.086-.0234.164-.0234.203-.0156.39-.0156.562 0 .156.0156.266.0156.328 0 .063-.0156.133-.0234.211-.0234.063 0 .156.0156.281.0468h.258c.156.0469.235.0704.235.0704 0-.0157.015-.0235.047-.0235.124.0313.195.0469.21.0469.032-.0156.063-.0156.094 0 .063 0 .117.0156.164.0469.063.0312.133.0312.211 0 .172.0781.281.125.328.1406.063.0156.133.0312.211.0469.156.0625.266.1093.328.1406.078.0156.149.0469.211.0937.094-.0312.18.0079.258.1172.156.0938.242.1407.258.1407s.031.0078.047.0234c.078.0781.14.1328.187.1641.047.0312.086.0703.117.1171.079.1094.126.1719.141.1875.016 0 .031.0079.047.0235.047.0469.094.0937.141.1406.062.0469.109.1016.14.1641.125.125.188.1875.188.1875.062.0625.109.1172.14.164.047.0313.086.0703.118.1172.125.125.187.2031.187.2344 0 .0156.008.0391.024.0703.124.2031.195.3125.21.3281.063.1094.118.1875.164.2344.032.0469.055.0938.071.1406.015.0469.039.0938.07.1407-.015.0468-.015.0937 0 .1406.031.0469.063.0859.094.1172.031.0625.055.1484.07.2578.016.0937.039.1797.071.2578.031.0469.054.0937.07.1406.015.0313.039.0781.07.1406.031.1875.047.2813.047.2813 0 .0469.008.0937.023.1406.016.0313.032.0703.047.1172.016.1406.016.2109 0 .2109 0 0 .008.0157.024.0469l.07.2578c.031.125.047.2344.047.3282 0 .0468.008.0937.023.1406.016.0312.024.0703.024.1172-.031.1875-.047.3125-.047.375.016.0468.016.0859 0 .1172-.141.1406-.227.2265-.258.2578-.016.0312-.039.0547-.07.0703-.125.0625-.196.1015-.211.1172 0 .0156-.008.0312-.024.0468-.171.0782-.281.1172-.328.1172-.031 0-.062.0157-.093.0469-.125.0469-.211.0859-.258.1172-.032.0312-.063.0625-.094.0937-.156.0469-.234.086-.234.1172-.094.0469-.172.086-.235.1172-.062.0156-.117.0391-.164.0703-.172.0938-.32.1719-.445.2344-.156.0938-.266.1484-.328.1641-.063.0156-.11.039-.141.0703-.125.0625-.203.1015-.234.1172-.031.0156-.063.039-.094.0703-.156.1094-.258.1719-.305.1875-.031.0156-.062.0469-.093.0937-.032-.0156-.079-.0078-.141.0235-.063.0312-.117.0625-.164.0937-.188.0781-.313.125-.375.1406-.047 0-.086.0235-.117.0704-.047 0-.094.0156-.141.0468-.031.0157-.07.0313-.117.0469s-.102.0234-.164.0234c-.047-.0156-.094-.0078-.141.0235-.14.0937-.226.1406-.258.1406-.031.0313-.078.0547-.14.0703-.047.0156-.094.0313-.141.0469-.14.0781-.242.1172-.305.1172-.046 0-.085.0156-.117.0469-.14.0625-.218.1015-.234.1171-.125.0782-.211.1172-.258.1172s-.094.0157-.141.0469c-.25.0938-.382.1641-.398.2109 0 .2032.016.3125.047.3282.109.0937.18.1484.211.164.047.0157.094.0391.14.0703.032.0469.063.0704.094.0704.047 0 .094.0156.141.0468.031.0157.062.0391.094.0703.046.0157.093.0313.14.0469.063.0469.149.0703.258.0703.078.0157.141.0313.188.0469.046 0 .101.0078.164.0234.125.0313.218.0469.281.0469.187-.0156.312-.0156.375 0 .078.0156.14.0235.187.0235.078 0 .157-.0079.235-.0235.078-.0312.156-.0469.234-.0469.188.0157.305.0157.352 0 .062-.0156.125-.0234.187-.0234zm-.937-5.9531c-.032-.0625-.055-.1172-.071-.1641 0-.0468-.023-.0781-.07-.0937-.078-.1563-.125-.2422-.141-.2578 0-.0156-.015-.0313-.046-.0469-.141-.125-.227-.2031-.258-.2344-.157-.125-.25-.1953-.282-.2109-.218-.1094-.367-.1641-.445-.1641-.062 0-.148 0-.258 0-.172.0782-.265.1172-.281.1172s-.031.0078-.047.0235c-.172.0937-.273.1484-.305.164-.031 0-.046.0235-.046.0703-.125.0625-.196.1016-.211.1172-.016 0-.032 0-.047 0-.094.125-.156.211-.188.2578-.015.0313-.031.0625-.047.0938-.125.1562-.195.25-.211.2812-.015.0313-.031.0625-.046.0938-.047.2031-.102.3203-.164.3515-.047.0313-.079.086-.094.1641-.094.125-.141.2031-.141.2344.016.0156.016.0312 0 .0469-.047.1562-.086.2343-.117.2343-.062.25-.094.3907-.094.4219.032.125.032.2031 0 .2344-.015.0312-.008.0547.024.0703.203-.0938.343-.1328.422-.1172.156-.0781.257-.125.304-.1406s.086-.0391.117-.0703c.172-.0938.266-.1485.282-.1641.125-.0469.211-.0781.257-.0937.047-.0157.086-.0313.118-.0469.187-.0781.304-.125.351-.1406.063-.0313.11-.0625.141-.0938.125-.0781.211-.1172.258-.1172.047-.0156.093-.039.14-.0703.094-.0469.149-.0703.164-.0703.032-.0156.063-.0313.094-.0469.063-.0312.117-.0469.164-.0469.047-.0156.086-.039.117-.0703.172-.0781.258-.125.258-.1406.016-.0312.031-.0469.047-.0469.094-.1093.18-.164.258-.164.078-.0157.133-.0547.164-.1172zm11.086-2.3203c.171 0 .289-.0313.351-.0938.125-.0937.203-.1484.235-.164.031-.0156.062-.0391.093-.0703.157-.1407.266-.2578.328-.3516.125-.125.188-.1953.188-.2109.109-.1094.18-.1797.211-.211.031-.0312.062-.0625.094-.0937.109-.0469.187-.0938.234-.1406.062-.0625.125-.1094.187-.1407.11-.0468.188-.0859.235-.1172.172-.0625.258-.0937.258-.0937.015-.0156.031-.0234.046-.0234.032-.0313.063-.0547.094-.0704.032-.0312.071-.0625.117-.0937.094-.0156.18-.0469.258-.0938.172-.0625.305-.0937.399-.0937.187-.0781.289-.1172.304-.1172.063-.0312.118-.0391.164-.0234.047 0 .086-.0078.118-.0235.156.0157.25.0235.281.0235h.398c.078-.0157.141-.0157.188 0 .094.0156.172.0547.234.1172.063.0625.141.0937.235.0937.031.0469.062.0859.093.1172.032.0312.055.0781.071.1406.125.1094.179.1641.164.1641 0 0 .008.0078.023.0234.063.1719.094.2656.094.2813.031.1718.031.3359 0 .4922-.016.0937-.024.25-.024.4687.016.2188-.015.3672-.093.4453.031.1563.031.3203 0 .4922 0 .0781-.008.1563-.024.2344-.015.0625-.023.1328-.023.2109v.2813c.015.0937.023.1875.023.2812 0 .0625-.008.125-.023.1875-.016.0625-.031.1172-.047.1641-.031.1562-.055.2656-.07.3281 0 .0469-.008.0938-.024.1406-.078.2188-.133.3516-.164.3985-.047.0468-.094.0703-.14.0703-.032 0-.071.0078-.118.0234-.172.0625-.273.086-.304.0703-.016-.0156-.047-.039-.094-.0703-.047.0156-.094.0156-.141 0-.047-.0312-.093-.0469-.14-.0469-.282.0157-.453.0313-.516.0469h-.258c-.14.0469-.234.086-.281.1172-.047.0156-.086.0391-.117.0703-.172.0313-.274.0625-.305.0938-.109.0156-.187.0312-.234.0468-.032.0157-.063.0313-.094.0469-.172.0313-.281.0469-.328.0469-.11.0469-.196.1016-.258.1641-.172.0625-.273.1093-.305.1406-.031.0312-.07.0547-.117.0703-.031.0469-.07.0859-.117.1172-.031.0156-.063.039-.094.0703-.094.0625-.164.1172-.211.1641-.109.0781-.187.1484-.234.2109-.047.0469-.094.0859-.141.1172-.031.0312-.07.0625-.117.0937-.031.0313-.062.0625-.094.0938-.015.0625-.039.1094-.07.1406-.031.0313-.062.0625-.094.0938-.078.1875-.133.3125-.164.375-.031.0468-.047.1093-.047.1875-.062.0625-.109.1406-.14.2343-.016.0782-.039.1719-.071.2813-.015.0781-.031.164-.046.2578-.016.0781-.024.1562-.024.2344.031.2031.031.3359 0 .3984-.016.1563-.023.25-.023.2813.015.0312.023.0625.023.0937-.016.1719-.023.2891-.023.3516.015.0468.023.1015.023.164-.031.2188-.055.3594-.07.4219 0 .0469-.008.0938-.024.1406v.1172c.016.2344.016.3985 0 .4922-.015.0781-.023.1641-.023.2578v.211c.015.0625.023.1328.023.2109 0 .375.032.6642.094.8672.016.125.031.211.047.258s.023.094.023.14c.032.125.047.235.047.329 0 .093-.008.156-.023.187-.016.109-.024.195-.024.258-.078.14-.117.226-.117.258 0 .031-.008.062-.023.093-.032.047-.078.094-.141.141-.062.031-.109.07-.141.117-.109-.015-.234 0-.374.047-.11.031-.188.039-.235.024-.047 0-.094.007-.141.023-.046 0-.093 0-.14 0-.047.016-.086.023-.117.023-.188.016-.289.016-.305 0 0 0-.008 0-.023 0-.172 0-.274-.007-.305-.023-.016 0-.031 0-.047 0l-.633.094c-.234.015-.398.023-.492.023-.078.016-.156.008-.234-.023-.219-.032-.375-.063-.469-.094-.078-.031-.156-.047-.235-.047-.109-.094-.195-.164-.257-.211-.063-.062-.125-.117-.188-.164-.047-.156-.078-.25-.094-.281 0-.031-.007-.063-.023-.094-.062-.219-.094-.336-.094-.351 0-.204 0-.368 0-.493.016-.14.032-.257.047-.351.016-.063.024-.1799.024-.3518.031-.1718.046-.2656.046-.2812 0-.0781 0-.1485 0-.211s.008-.1093.024-.1406c.031-.2187.047-.3437.047-.375-.016-.125-.024-.1953-.024-.2109.016-.0313.024-.0625.024-.0938 0-.0781-.008-.1718-.024-.2812 0-.1094 0-.2188 0-.3281.032-.1875.039-.2891.024-.3047 0-.0157.008-.0391.023-.0703 0-.0782.008-.1485.024-.211.015-.0625.007-.125-.024-.1875 0-.1719 0-.2656 0-.2812.016-.0313.024-.0625.024-.0938 0-.125 0-.2344 0-.3281.015-.1094.015-.2266 0-.3516 0-.0468-.008-.0937-.024-.1406 0-.0625 0-.125 0-.1875 0-.1406.008-.2656.024-.375.015-.125.015-.25 0-.375-.016-.2031-.032-.3672-.047-.4922 0-.125.008-.25.023-.375-.015-.1562-.023-.2422-.023-.2578-.032-.1094-.047-.1875-.047-.2344.015-.0625.015-.1328 0-.2109 0-.1406-.016-.2188-.047-.2344-.016-.0312-.023-.0625-.023-.0937.015-.1407.015-.2422 0-.3047-.016-.0625-.024-.125-.024-.1875.016-.0625.024-.1094.024-.1406.015-.0469.023-.0938.023-.1407-.016-.1406-.023-.2187-.023-.2343.015-.0157.023-.0313.023-.0469l-.023-.586c0-.1093 0-.1953 0-.2578 0-.0781-.016-.1562-.047-.2343-.016-.0782-.016-.1719 0-.2813.015-.125.015-.2031 0-.2344-.016-.0468-.024-.1015-.024-.164.016-.0782.016-.1563 0-.2344-.015-.0781-.023-.1484-.023-.2109 0-.0469 0-.0938 0-.1407.015-.0625.023-.1172.023-.164 0-.0782-.015-.1563-.047-.2344-.015-.0781-.023-.1563-.023-.2344.062-.2344.102-.375.117-.4219.016-.0625.047-.125.094-.1875.141-.125.211-.1953.211-.2109s.008-.0234.023-.0234c.125-.0157.211-.0157.258 0 .047 0 .078-.0157.094-.0469.047.0312.094.0391.14.0234.063-.0156.118-.0234.165-.0234.25-.0469.531-.0469.843 0 .172.0312.266.0469.281.0469.016-.0157.032-.0235.047-.0235h.282c.047-.0156.093-.0234.14-.0234.11-.0156.18-.0156.211 0 .047 0 .102-.0078.164-.0234.188-.0313.297-.0391.328-.0235.032 0 .071-.0078.118-.0234.031 0 .078.0078.14.0234.063 0 .117-.0156.164-.0469.125.0157.235.0313.328.0469.094 0 .211.0078.352.0235.109.1093.187.164.234.164.047.0469.078.1328.094.2578.047.1407.063.2266.047.2578 0 .0313.008.0625.023.0938 0 .0781.016.1719.047.2812.031.1094.047.2188.047.3282v.2578z" fill="#693821"/></svg>