<svg fill="none" height="66" viewBox="0 0 64 66" width="64" xmlns="http://www.w3.org/2000/svg" xmlns:xlink="http://www.w3.org/1999/xlink"><linearGradient id="a"><stop offset="0" stop-color="#cf5c2b"/><stop offset="1" stop-color="#59173e"/></linearGradient><linearGradient id="b" gradientUnits="userSpaceOnUse" x1="60.7497" x2="42.8009" xlink:href="#a" y1="-32.0484" y2="7.74597"/><linearGradient id="c" gradientUnits="userSpaceOnUse" x1="53.2151" x2="-10.3051" xlink:href="#a" y1="-17.8816" y2="128.372"/><linearGradient id="d" gradientUnits="userSpaceOnUse" x1="46.2673" x2="-17.2527" xlink:href="#a" y1=".20293" y2="146.456"/><linearGradient id="e" gradientUnits="userSpaceOnUse" x1="34.2535" x2="32.3186" xlink:href="#a" y1="91.6775" y2="30.4798"/><path d="m62.3759 9.43425c-.36-4.90233-4.3642-8.736979-9.2534-8.932471-13.7675-.5563993-27.4901-.5563993-41.1376-.015037-.9899.045113-1.9647.225567-2.89452.571438-.46492.16542-.91484.37594-1.33477.60151-2.11462 1.17295-3.55436 3.18802-4.67916 5.29332-1.18479 2.19552-2.384573 4.63169-2.534546 7.15799-.119978 2.0452-.224961 4.1053-.299947 6.1505-.014998.2256-.015.4361.014994.6466.014998.1203.029998.2406.015001.3609-.044992.6617-.014996 1.2482.329943 1.8346.209962.3459.479915.6467.824855.8422-.03-.0151-.31495.2556-.35994.2857-.11998.1052-.22496.2255-.314944.3458-.194965.2557-.359938.5264-.464919.8271-.119979.3008-.1949647.6166-.209962.9324-.1049813 1.2782-.07498801 2.5564-.0599907 3.8346.0149973 1.1128-.0899819 2.2858.0899857 3.3835.044992.2707.000002.5564.059991.8271.119979.6166.404927 1.188.689876 1.7444-.479915.5113-.689877 1.2181-.719871 1.9248-.029995.8121.11998 1.6091.05999 2.4211-.1499729 2.1956-.015 4.4512.119976 6.6317.014997.2557.059989.5113.104981.7519.134976.6166.149976 1.2632.494914 1.8045.149973.2407.344943.4512.584893.6166-.22496-.0301-.40493.2105-.509907.406-.67488 1.2933-.674881 2.3008-.404929 3.6843.269952 1.4436.194965 2.8121.719876 4.2256.43492 1.173 1.0948 2.2557 1.91966 3.173 1.70969 1.9098 4.13926 3.0827 6.6888 3.2331 14.50247.8421 28.46497.9173 41.78257.0903.06 0 .12-.0151.18-.0151 1.6197-.1353 3.1944-.6616 4.5591-1.5489 1.3348-.8571 2.4446-2.0451 3.2245-3.4286.8998-1.594 1.3347-3.4737 1.7846-5.2332.285-1.0827.7199-2.4662.5999-3.6241-.0749-.6616.12-1.3083.09-1.9699-.03-.7519-.2249-1.4888-.5699-2.1505-.045-.0751-.0899-.1654-.0899-.2556-.015-.2105.2099-.3609.3749-.4962.3899-.3008.6449-.767.7348-1.2482.015-.1203.03-.2406.015-.3609-.0449-.2105-.0299-.3759-.015-.6015.075-1.5188.15-3.0376.195-4.5565.06-1.6692.12-3.3384.15-4.9925.045-1.6392.06-3.2933.075-4.9324.015-1.6241.015-3.2482 0-4.8573 0-.797-.015-1.609-.03-2.406 0-.406-.015-.797-.03-1.203-.015-.376-.075-.797-.015-1.173.015-.1353.06-.2406.03-.3759-.015-.1654-.06-.3158-.105-.4812-.09-.3158-.225-.6166-.3899-.9023-.165-.2857-.36-.5414-.5999-.782-.06-.0601-.6899-.6466-.7499-.5864.195-.1805.3599-.376.5099-.5865.3899-.5564.6299-1.203.7799-1.8647.075-.3308.12-.6767.1649-1.0226.015-.0601.045-.1203.045-.1955.045-.2406-.015-.5263-.03-.7669-.0599-.9925-.1349-2.0151-.2099-3.03765z" fill="url(#b)"/><path d="m63.022 20.7109c-.015 1.7143-.03 3.4286-.03 5.143-.015.812-.015 1.6391-.015 2.4662 0 .4511-.015.8872-.015 1.3233-.03 2.3309-.06 4.6617-.12 6.9926-.03 1.1579-.06 2.3158-.105 3.4737-.03.6918-.015 1.3384-.2399 1.985-.255.7218-.24 1.6091-.33 2.376-.03.2406-.0749.4962-.2549.6767-.165.1654-.4049.1955-.6449.2105-.3749.0451-.7649.0752-1.1398.1203-2.2046.2256-4.4242.4361-6.6288.4963-1.6347.0301-3.2844-.0151-4.9191-.1955 1.2447.1804 2.4895.3759 3.7343.5564.3599.0601.7049.1053 1.0648.1654 2.5346.3759 5.0691.7519 7.6036 1.1278.225.0452.48.0752.6449.2406.255.2256.27.6166.255.9625-.03.5112-.075 1.0225-.165 1.5338-.135 1.0076-.3299 2.0151-.3749 3.0377-.015.2105.03.421-.015.6316-.105.6466-.5849 1.2631-.9448 1.7744-1.6947 2.376-4.3943 3.8798-7.2887 4.0602-13.1227.8271-26.8603.7519-41.1377-.0752-2.05464-.1203-4.04929-.9173-5.62401-2.2556-.94483-.797-1.81467-1.8196-2.35458-2.9474-.23995-.5113-.29994-1.0978-.5399-1.6241-.04499-.1203-.08998-.2256-.13498-.3459-.07498-.3459-.04499-.7218.25496-.9624.31494-.2557.76486-.2707 1.16979-.2857 4.54419-.1504 9.07342-.4361 13.61762-.5715h.1349c1.3798-.0451 2.7745-.0601 4.1543-.0601-.5099-.0752-1.0198-.1504-1.5297-.1955-2.3396-.2857-4.7092-.376-7.0638-.4662-.03 0-.06-.015-.075-.015h-.03c-2.8495-.1053-5.68395-.2256-8.48845-.6767-.5399-.0903-1.09481-.1955-1.57472-.4361-.35994-.1655-.67488-.391-.89984-.7219-.015-.03-.02999-.0601-.04499-.0751-.32994-.5113-.44992-1.2783-.34494-1.8497.13498-.6617.04499-1.3083.015-2.0151-.05999-1.203-.13498-2.4211-.17997-3.6241-.04499-.6616-.07498-1.3233-.10498-1.985-.015-.3609-.03-.7669.19496-1.0526.17997-.2256.49491-.3008.77986-.376.88485-.2255 1.76969-.4511 2.68453-.5864.40492-.0752.80985-.1203 1.21478-.1504-1.03481-.2406-2.06963-.4662-3.11944-.7068-.31495-.0752-.62989-.1504-.91484-.3008-.05999-.03-.13497-.0751-.19496-.1203-.50991-.3759-.64489-.8872-.71987-1.4285-.03-.1805-.045-.376-.075-.5564-.07498-.4361-.13497-.8572-.16497-1.2933-.07498-.6617-.10497-1.3233-.13497-1.985-.05999-1.4436-.13498-3.3083.77986-4.5264.32994-.4361.91484-.5413 1.45474-.6015 2.11462-.2556 4.22925-.4812 6.34391-.6617.4349-.0451.8848-.0751 1.3197-.1203 2.1446-.1654 4.2743-.3007 6.4339-.406-2.5796.1203-5.1741.0752-7.7536-.0902-1.61975-.1053-3.23946-.2707-4.85917-.4812-.67488-.0902-1.37976-.1955-1.97965-.5113-.015-.015-.03-.015-.04499-.0301-.16497-.0752-.31494-.1654-.46492-.2857-.32994-.2556-.5699-.6015-.70487-.9925-.14998-.406-.07499-.7519-.015-1.1579.01499-.1504 0-.3008 0-.4511-.03-.9174.04499-1.8497.05999-2.767.01499-.4662.02999-.9324.05999-1.4136.05999-2.0451.16497-4.0903.28494-6.13539.29995-4.96249 4.31924-8.887361 9.26838-9.082853 13.6475-.5564 27.3551-.541362 41.1376.015038 4.4243.180454 8.2786 3.488775 9.1034 7.849745.255 1.33837.345 2.79706.09 4.15046-.06.3459-.15.6767-.2699.9925-.075.1804-.195.5564-.36.7068-.015.015-.03.03-.03.03-.12.0752-.2849.0903-.4049.1203-.8099.1955-1.6197.3609-2.4296.5113-1.6197.2857-3.2544.4963-4.8891.6466-.015 0-.015 0-.015 0-3.2994.2858-6.6288.3459-9.9282.391h-.09c.8998.0602 1.8147.1053 2.7145.1654 2.4596.1354 4.9191.2858 7.3787.4361 1.6347.0903 3.2844.1805 4.9191.2858.9898.0601 2.0247.1353 2.8795.6466.015 0 .015.015.015.015 1.0948.767 1.1698 2.0903 1.1548 3.3384z" fill="url(#c)"/><path d="m63.0222 20.7124c-.015 1.7143-.03 3.4286-.03 5.143-.015.812-.015 1.6391-.015 2.4662 0 .4511-.015.8872-.015 1.3233-6.3139.406-12.6428.9624-18.9716 1.3534-7.3787.4511-14.7574.9474-22.1211 1.4135-3.9743.2557-7.9186.5564-11.87787 1.0076-2.65453.3007-5.17408.7368-7.75362.5865-.03-.1805-.045-.376-.07499-.5564-.07499-.4361-.13498-.8572-.16497-1.2933 2.60953-.5564 5.23406-.4662 8.00855-.5564 3.7194-.1203 7.3787-.3759 11.083-.7218 7.3787-.6918 14.7574-1.4136 22.1361-2.2557 4.3942-.5113 8.7884-.9624 13.1976-1.4436-.1499-.0151-.2849-.0151-.4349-.0301-7.2137-.391-14.3074-1.7293-21.4911-2.376-7.1238-.6466-14.2775-1.203-21.4312-1.6241-2.8945-.1804-6.20892-.1353-9.47833-.3609-.015-.015-.03-.015-.04499-.03-.16498-.0752-.31495-.1655-.46492-.2858-.32994-.2556-.5699-.6015-.70488-.9925-.14997-.406-.07498-.7518-.01499-1.1579.01499-.1503 0-.3007 0-.4511-.03-.9173.04499-1.8497.05999-2.767.01499-.4661.02999-.9323.05999-1.4135 3.62935-.1955 7.37868.0451 10.58813.0752 7.1537.0601 14.2924.406 21.4312.8271 7.1687.421 14.3224.2556 21.4911.5864 1.9347.0903 3.8843.1654 5.819.2106 1.1698.7519 1.2298 2.0752 1.2148 3.3233zm-23.6958 16.7973c-12.1928.5864-25.0305.0451-36.90842 3.188.05999 1.203.11997 2.4211.17996 3.6241.03.6917.11998 1.3384-.01499 2.0151-.10498.5714.02999 1.3383.34494 1.8496 3.59935.9474 7.27371 1.5339 11.00801 1.9098.03 0 .06.0151.105.0151 2.3396.2406 4.6942.3759 7.0638.4661 6.1039.2256 12.2528.0903 18.2217.1504 7.4687.0752 14.9373-.0752 22.391-.3458.075-.5113.135-1.0076.165-1.5339.015-.3459 0-.7218-.255-.9624-.1649-.1504-.4199-.1955-.6449-.2406-2.8944-.4361-5.7739-.8572-8.6684-1.2933-1.2448-.1804-2.4896-.3759-3.7343-.5564 3.8393.4361 7.7086.1053 11.5629-.2857.3749-.0451.7648-.0752 1.1398-.1203.2249-.015.4799-.0451.6449-.2105.1799-.1655.2249-.4361.2549-.6767.09-.767.06-1.6392.33-2.376.2249-.6617.2249-1.2933.2399-1.985.045-1.1579.075-2.3158.105-3.4737-7.8436.2255-15.7022.4661-23.5308.8421z" fill="url(#d)"/><g fill="#eb924d"><path d="m2.97207 48.2595c-.35994-.5113-.50991-1.3234-.38993-1.9249.13498-.6616.04499-1.3083.01499-2.015-.10498-1.8647-.19496-3.7445-.28494-5.6091-.015-.3609-.03-.767.19496-1.0527.17997-.2256.49491-.3007.77986-.3759.88484-.2256 1.76969-.4512 2.68452-.5865-.50991.391-1.00482.7068-1.60471 1.0075-.20996.1053-.43492.2106-.5849.391-.16497.1805-.22496.4511-.28495.6917-.50991 2.3459-.23995 4.7971.045 7.1881.11998.9925.23995 2.0001.32993 3.0076-.35993-.1654-.67487-.406-.89983-.7218z"/><path d="m2.14462 33.4479c-.17997-1.0827-.25496-2.1955-.29995-3.2782-.05999-1.4437-.13497-3.3084.77986-4.5264.32995-.4361.91484-.5414 1.45475-.6015 2.54954-.3008 5.09908-.5715 7.66362-.767-2.42956.8121-5.20406.8121-7.55864 1.8196-.43492.1805-.86985.406-1.10981.8121-.16497.2706-.22496.5864-.26995.8872-.14997.9624-.25495 1.8797-.19496 2.8572.04499.6165.08998 1.2481.14997 1.8647.08998 1.0225.23996 2.0301.40493 3.0376-.05999-.0301-.13498-.0752-.19497-.1203-.70487-.4812-.68987-1.2481-.82485-1.985z"/><path d="m51.8926 46.1558c.105.0451.2099.0902.3149.1353-.12-.0301-.2249-.0601-.3149-.1353z"/><path d="m61.8805 48.8167c-.06 1.5489-.4799 3.0376-.5399 4.5715-.015.2105.03.421-.015.6316-.1049.6466-.5849 1.2632-.9448 1.7744-1.6947 2.376-4.3942 3.8798-7.2887 4.0603-13.1227.827-26.8602.7518-41.1377-.0752-2.05459-.1203-4.04924-.9173-5.62396-2.2557-.94483-.782-1.81468-1.8045-2.33958-2.9324-.23996-.5113-.29995-1.0977-.53991-1.6241-.04499-.1203-.08998-.2255-.13497-.3458-.07499-.3459-.04499-.7219.25496-.9625.31494-.2556.76486-.2706 1.16978-.2857 4.54419-.1504 9.07338-.4361 13.61758-.5714-3.9893.2256-7.9636.782-11.89288 1.4887-.5399.0903-1.1248.1354-1.64971.2857-.07499.0301-.16497.0301-.23996.1053-.08998.1053-.07498.2557-.05999.391.05999.4662.31495.8572.5999 1.2331.91483 1.203 1.87467 2.4662 3.22443 3.173 3.23941 1.7143 6.53881 1.4587 10.21321 1.3835.7498-.0151 1.4847 0 2.2346-.1354.3749-.0752.8098 0 1.1997.0151.8549.03 1.7097.0451 2.5796.0751 1.7097.0452 3.4344.0903 5.1441.1504 3.2094.0903 6.4188.1805 9.6283.2707 3.0594.0902 6.1189.1654 9.1783-.0902 3.0145-.2406 6.0289-.8121 8.8184-2.0301.225-.1053.495-.1805.6899-.3459.15-.1053.27-.2406.4199-.3459.465-.3007.9149-.6015 1.3198-.9774.27-.2557.6599-.5865.7949-.9474.075-.1955.1199-.4211.1949-.6166.195-.5564.3-1.1428.345-1.7293.045-.6466.015-1.3083-.06-1.9549-.03-.2857.015-.8271-.165-1.0677-.09-.1354-.3299-.2557-.4799-.3308-.3899-.1955-.8398-.2858-1.2748-.361-2.3246-.4361-4.6042-1.1428-6.7788-2.1053 2.8945.4361 5.774.8722 8.6685 1.2933.2249.0451.4799.0752.6449.2406.2249.2256.2399.6166.2249.9474z"/><path d="m2.40246 21.4789c-.11998-.4812-.10499-.9775-.10499-1.4737.05999-2.391.11999-4.7971.25496-7.1881.11998-2.1955.07499-4.51135.97483-6.55649 1.46973-3.35344 4.81414-5.639187 8.45854-5.774528 13.6475-.5563993 27.3551-.5413615 41.1376.015038 4.4242.180454 8.2785 3.48878 9.1034 7.84975.255 1.33836.3449 2.79703.09 4.15043-.06.3459-.15.6767-.27.9925-.075.1805-.1949.5564-.3599.7068-.285-2.1955.2549-4.60159-.5399-6.67681-.4649-1.24814-1.1398-2.48125-2.2046-3.30833-3.5094-2.72184-8.6835-2.54139-12.9127-2.61658-11.6379-.21053-23.2309-.58647-34.8388.46617-.5399.04512-1.0648-.15037-1.57473-.06015-1.1248.19549-2.2496.97746-3.08945 1.74439-1.15479 1.06769-2.03963 2.42109-2.59454 3.8948-.14997.43609-.28495.87219-.40492 1.30829-1.1248 4.33092-.64489 9.35352-.10499 13.74462-.49491-.1655-.83984-.6316-1.00481-1.1429 0-.0151-.015-.0451-.015-.0752z"/><path d="m63.0199 20.71c-.015 1.7143-.03 3.4286-.03 5.1429-.015.812-.015 1.6391-.015 2.4662-.03 3.9399-.075 7.8648-.24 11.8047-.03.6917-.015 1.3384-.2399 1.985-.255.7218-.24 1.609-.33 2.376-.03.2406-.075.4962-.2549.6767-.165.1654-.405.1955-.6449.2105-.3749.0451-.7649.0752-1.1398.1203.2249-.1504.3899-.3609.5249-.6166.18-.3759.225-.812.2549-1.2331.5549-6.9324.5999-13.8949.405-20.8424-.03-.9173-.06-1.8346-.09-2.7519-.015-.2105.03-.406.015-.6166-.03-.2706-.165-.5263-.3449-.7519-.39-.4812-.9899-.7819-1.5598-.9774-4.2292-1.4286-8.9684-.391-13.2426-1.6692h.5099c4.1093.2406 8.2035.4812 12.2978.7218.9898.0602 2.0246.1353 2.8795.6466 1.1998.7218 1.2598 2.0452 1.2448 3.3084z"/></g><path d="m52.3128 46.3352c.36.0601.7049.1052 1.0648.1654-.1949.6917-.4799 1.3384-.8998 1.8797-1.7097 2.2106-4.9041 2.6016-7.4237 2.7519-4.2742.2406-8.5485.4963-12.8227.4662-4.6042-.0301-9.1334-.4662-13.7225-.782 1.3797-.0451 2.7745-.0601 4.1542-.0601-.5099-.0752-1.0198-.1504-1.5297-.1955-2.3396-.2857-4.7092-.3759-7.0638-.4662-.03 0-.0599-.015-.0749-.015h-.03c-.18-.0451-.375-.1053-.5699-.1654-.39-.1203-.7949-.2557-1.1248-.4812-.7799-.5564-1.0948-1.594-1.3648-2.5414-.5999-2.1655-.3749-4.3159-.255-6.5114.135-2.3609.135-4.7219.09-7.0828-.06-2.9625-.1949-5.955-.2849-8.9175.4349-.0451.8848-.0751 1.3197-.1203 1.0949-.0902 2.1747-.1654 3.2695-.2255.03 3.8948.2549 7.8046.4049 11.6844.015.421-.045.8421 0 1.2481.03.2406 0 .391.165.5865.2249.2857.8848.5714 1.2747.6466.465.0752.9599.0301 1.4248.0301 1.0198 0 2.0546 0 3.0744.015-1.0048.1654-2.0096.2707-3.0294.3158-.4349.0151-.9599-.0601-1.3648.0752s-.8098.1955-1.2148.3008c-.1199.03-.2399.0601-.3149.1503-.075.0752-.09.1805-.12.2858-.075.4361-.03.8722.09 1.2932.09.3308.21.6166.18.9624-.075.8121.045 1.6392.1649 2.4512.045.3008.06.5714.24.8271.3899.5413 1.0798.8421 1.6947 1.0075 4.7541 1.3083 9.7333 1.3685 14.6674 1.4286 2.9095.0301 5.8189.0602 8.7284-.0301 1.9797-.0601 5.594.3459 7.3037-.8872.24-.1654.4499-.3759.6149-.6166 1.0798.1955 2.1746.376 3.2844.5264zm-37.2983-24.7974c.015-.8271.09-1.6542.1649-2.4813.015-.1353.015-.2706 0-.406-.03-.2707-.03-.4812.03-.7368.15-.5715.42-1.173.9599-1.4737.3599-.1955.7948-.2106 1.2148-.2256 2.0396-.0602 4.0792-.0602 6.1189-.015-1.6197-.1655-3.2395-.3459-4.8592-.5113-.9148-.0903-1.8446-.1955-2.7295.0301.03-.0151.12-.2407.15-.2707.06-.1053.135-.2106.21-.3008.1349-.1804.2999-.3609.4799-.5113.3149-.2707.5999-.5714.9298-.8271.7049-.5413 1.5147-.9173 2.3396-1.218.7798-.2857 1.5897-.4812 2.3996-.6767.5549-.1354 1.1248-.1354 1.6946-.1504 6.3889-.0902 12.7778-.1203 19.1666-.1654 1.0648-.0151 2.1597.3609 3.1945.6466.7648.2105 1.5447.5414 2.0396 1.173.4649.5864.7199 1.4286.8549 2.3609 1.5147-.0451 3.0294-.1353 4.5741-.2707-.1349-1.8196-.4499-3.579-1.7247-4.9625-1.3947-1.50374-3.7643-1.81954-5.6839-1.9248-2.1597-.12031-4.3193-.1955-6.4789-.25565-1.6947-.03007-3.3744-.06015-5.0541-.06015-3.4494-.01504-6.8388.1203-10.2582.30076-3.6893.19549-8.3685-1.06769-11.5179 1.48874-1.5897 1.2481-2.3396 2.8271-2.6545 4.8723-.24 1.5489-.255 3.1278-.255 4.6918 0 1.3534.03 2.7218.075 4.1203 1.5297.1053 3.0595.1654 4.5892.1654.015-.812.015-1.609.03-2.406zm39.4879 5.2482c-.0749-2.9625-.2249-5.9249-.4349-8.8874-.03-.4661-.06-.9323-.09-1.4135-1.5147-.0902-3.0444-.1805-4.5742-.2707.15 1.6241.015 3.4286.09 4.6317.105 1.8646.285 3.7293.4349 5.579.075.9023.15 1.8045.195 2.7068.015.2857.075.5263-.09.7669-.2849.4211-.8998.4963-1.3647.5263-2.4896.1655-5.0091.2256-7.4387.8121 3.0895.1203 6.1789.0601 9.2534-.1654-.06.2707-.135.5564-.195.8271-.06.2406-.15.4962-.15.7368 0 .1504.06.3008.075.4511.045.2557.015.5414.03.797.015 1.1429 0 2.2858-.015 3.4287-.015.9624-.045 1.9248-.075 2.8722-.015.1053-.015.2256-.015.3308-.06 1.564-.075 3.8798-1.1248 5.2783 1.4997.1504 2.9995.1955 4.4842.1654.285-1.2481.3749-2.5865.5099-3.7444.4949-4.0452.4349-8.1655.4799-12.2408.015-1.0677.015-2.1203.015-3.173 0 .0151 0 0 0-.015z" fill="url(#e)"/><g fill="#eb924d"><path d="m38.471 51.3136c1.9646-.0301 3.9743-.0602 5.9239-.3609.405-.0602.8399-.0451 1.2598-.0752.8849-.0602 1.7547-.1504 2.6245-.2707.5699-.0752 1.1398-.1654 1.6947-.3609 1.6648-.5714 2.9845-2.0752 3.3444-3.8046-.9148-.0451-1.9496-.0451-2.8794-.0902.7648-.1353 1.8896.2556 2.2346.9624-.9899.8722-2.0997 1.6542-3.3594 2.0001-.6749.1804-1.3798.2406-2.0697.2857-4.7241.3609-9.4633.7368-14.1874.6466-2.2796-.0301-4.5442-.1805-6.8238-.0902-.6599.03-1.3198.0752-1.9647.0902-.3749.015-.7498.0451-1.1248-.015-.2549-.0301-.5249-.0151-.7798-.0151-.5699 0-1.1248-.015-1.6947-.0451-1.1248-.0451-2.2496-.1353-3.3744-.2556-1.2148-.1354-2.4446-.3008-3.6444-.5264-.5849-.1052-1.1998-.2406-1.6197-.6315-.2849-.2707-.4649-.6316-.6149-.9775-.4949-1.1429-.8248-2.3609-.9748-3.594-.4349 1.5188.015 3.188 1.0198 4.4211.9448 1.1579 2.3996 1.8196 3.8543 2.0902 1.0948.2106 2.3246.3158 3.4194.1955.24-.03.4799 0 .7349.0151.5699.03 1.1398.0601 1.7097.0902 1.1398.0601 2.2796.1053 3.4194.1353 1.1398.0301 2.2646.0451 3.4044.0602.5249 0 1.0948.0601 1.6197-.0151.5099-.0751 1.0798.0151 1.6047.0301 2.2796.0752 4.5742.1354 6.8538.1203.1199-.015.2549-.015.3899-.015z"/><path d="m55.6105 16.9514s-1.8446-.0601-2.0096-.0601c-.6899-.0301-1.3648-.0752-2.0546-.1203-.345-.0301-.6899-.0452-1.0198-.0752-.165-.0151-.345-.0301-.51-.0451-.0899-.0151-.1949-.0301-.2999-.0301-.045 0-.075.015-.105.015-.06-.015-.135-.0301-.1949-.0451-.27-.0752-.54-.1353-.8099-.2105 0-.0451-.015-.0752-.015-.1203 0-.0151.3749-.0151.4049-.0151.105.0151.225.0451.33.0301.09-.015.1649-.0301.2549-.0301h.4199c.5699 0 1.1398.0151 1.6947.0451.5699.0301 1.1398.0602 1.6947.1053.5699.0451 1.1398.1053 1.6947.1805.195.03.405.0451.5999.0752.015.1353-.075.1503-.075.3007z"/><path d="m15.6276 23.9754c-1.8147.1804-3.5993.421-5.384.7519-.12-.1203-.165-.2557-.135-.4061 1.8747-.2255 3.6294-.2706 5.519-.3458z"/></g><path d="m51.8041 28.1261c.06 4.1955-.06 8.3309-.3299 12.4212-.06.9173-.12 1.8497-.21 2.767-.225 2.782-2.4746 4.9775-5.2491 5.173-8.8634.6015-17.9218.5714-27.1451-.0151-2.8195-.1804-5.0841-2.4511-5.2641-5.2782 0-.0452-.015-.0752-.015-.1203-.3599-7.0979-.4199-14.3161-.1949-21.6545.015-.3459.015-.6918.03-1.0376.0599-1.3985.1049-2.782.1799-4.1805.015-.3309.06-.6467.135-.9625 0-.0601.015-.1203.045-.1804.5849-2.376 2.6695-4.1354 5.2041-4.2708 8.8484-.4361 17.8018-.4361 26.8902.0151 2.8345.1353 5.159 2.3609 5.384 5.2031.21 2.6617.3599 5.2933.4499 7.9099.06 1.4135.09 2.812.09 4.2106z" fill="#e68b4a"/><path d="m45.7301 33.117c-.27 2.1805-1.6047 4.3309-3.1495 5.8347-.9148.8872-1.6947 1.5038-2.9694 1.7744-1.3348.2858-2.7146.2557-4.0643.1204-1.8747-.1805-3.7344-.4963-5.549-1.0076-.165-.0451-.33-.0902-.4949-.1504-.135-.0451-.375-.0752-.495-.1654.045-.0902 0-.2255.015-.3308.03-.2557 1.0949-4.8572 1.1248-4.8572 3.1645.6316 6.134.3609 8.9535-.2406.4349-2.4662.3149-4.6166.0149-7.0979-1.6797-1.0526-3.6443-1.6993-5.8189-1.7745-.4199-.015-.8099.361-1.1548.5715-.165.1052-2.5646 1.5639-2.4146 1.7293.9599 1.0978 2.2796 1.7745 3.3294 2.767.06.0451.255.3158.33.3158-3.6444 2.1805-8.5335 3.4888-12.7778 3.8647-.6598-4.5264.12-9.6994 1.2298-13.4739 1.2748.9023 2.5196 1.8346 3.7194 2.782 1.7396-1.7594 3.8393-3.173 6.1189-4.1053 3.3444-.3459 6.7038.2857 10.0482 1.8045.4799.2106 1.0948.9775 1.2298 1.4136.2099.7068.5099 1.3985.7498 2.1053.4949 1.3985.9449 2.8121 1.3648 4.2406.4199 1.2482.8098 2.5715.6599 3.8798z" fill="#ffdf80"/><path d="m46.1636 32.2445c-.27 2.1805-1.6048 4.3309-3.1495 5.8347-.9148.8872-1.6947 1.5038-2.9694 1.7745-1.3348.2857-2.7146.2556-4.0643.1203-1.8747-.1805-3.7344-.4963-5.549-1.0076-.165-.0451-.33-.0902-.4949-.1503-.135-.0452-.375-.0752-.495-.1655.045-.0902.0001-.2255.015-.3308.03-.2556 1.0949-4.8572 1.1248-4.8572 3.1645.6316 6.1339.3609 8.9534-.2406.435-2.4662.315-4.6166.015-7.0979-1.6797-1.0526-3.6443-1.6992-5.8189-1.7744-.4199-.0151-.8099.3609-1.1548.5714-.165.1053-2.5646 1.5639-2.4146 1.7294.9598 1.0977 2.2796 1.7744 3.3294 2.7669.06.0451.255.3158.33.3158-3.6444 2.1805-8.5335 3.4888-12.7778 3.8647-.6598-4.5264.12-9.6994 1.2298-13.4739 1.2748.9023 2.5196 1.8347 3.7194 2.782 1.7396-1.7594 3.8393-3.1729 6.1189-4.1053 3.3444-.3459 6.7038.2857 10.0482 1.8045.4799.2106 1.0948.9775 1.2298 1.4136.2099.7068.5099 1.3985.7498 2.1053.4949 1.3985.9449 2.8121 1.3648 4.2407.4199 1.2481.8098 2.5714.6599 3.8797z" fill="#a04623"/></svg>