<svg fill="none" height="84" viewBox="0 0 284 84" width="284" xmlns="http://www.w3.org/2000/svg" xmlns:xlink="http://www.w3.org/1999/xlink"><linearGradient id="a"><stop offset="0" stop-color="#cf5c2b"/><stop offset="1" stop-color="#59173e"/></linearGradient><linearGradient id="b" gradientUnits="userSpaceOnUse" x1="80.5009" x2="111.207" xlink:href="#a" y1="-103.913" y2="-1.6358"/><linearGradient id="c" gradientUnits="userSpaceOnUse" x1="128.762" x2="158.275" xlink:href="#a" y1="-31.2807" y2="157.683"/><linearGradient id="d" gradientUnits="userSpaceOnUse" x1="128.733" x2="168" xlink:href="#a" y1="-28.8209" y2="211.948"/><linearGradient id="e" gradientUnits="userSpaceOnUse" x1="141.203" x2="141.203" xlink:href="#a" y1="96.9491" y2="57.9025"/><path d="m5.16302 32.9066c2.05637-2.1191 4.53242-3.9332 7.00848-5.7472 1.1751-.8646 2.3501-1.7123 3.5252-2.56 2.2662-1.6444 4.5114-3.2889 6.7777-4.9334.9862-.712 1.9934-1.7293 3.1894-2.204 1.1122-.4577 1.9935-1.1528 2.9587-1.797 4.4275-2.9499 9.0229-5.73028 13.8071-8.29025 3.798-2.05137 7.7849-4.00101 12.2333-4.84869 1.9515-.37297 3.9659-.54251 5.9593-.69509 2.8748-.23735 5.7495-.45774 8.6242-.69509 1.4479-.11867 2.9167-.237347 4.3646-.356022.5875-.05086 1.1331-.10172 1.6996-.237348.9443-.220395 1.8886.101721 2.8538-.016953 1.8256-.203442 3.6931-.152581 5.5396-.169535 2.0354-.016953 4.0498-.05086 6.0852-.067813 8.0786-.084768 16.1568-.152581 24.2568-.2034418 8.037-.0508603 16.073-.0678138 24.131-.0847672 8.016 0 16.052 0 24.068.0339069 7.995.0339069 15.989.0847671 23.963.1695341 7.953.067814 15.927.169535 23.879.288209 7.932.118674 15.864.254302 23.796.406883 7.889.152577 15.8.339067 23.69.525557 4.134.10172 8.267.22039 12.401.32211.336.01696.713-.01695 1.028.05087.357.06781.693.18648 1.028.2882.693.20345 1.406.42384 2.078.67814 1.301.5086 2.539 1.18674 3.378 2.15309.483.55946.818 1.18674 1.259 1.7462.231.28821.525.50861.714.81377.902 1.458 1.825 2.94993 3.063 4.23833 1.217 1.2715 1.595 3.272 1.448 4.8148-.189 2.1022-.252 4.2384-.483 6.3406-.377 3.3568-.021 6.7136-.482 10.0873-.063.4916-.168 1.0172-.609 1.3393-.315.2204-.734.3052-1.133.373-1.322.2373-2.623.4577-3.945.6951 1.616.8477 4.05.9155 4.91 2.3226.273.4577.315.9664.378 1.475.147 1.797.357 3.5941.504 5.3912.063.8137.126 1.6105.147 2.4243.042.7799.104 1.5088.209 2.2718.21 1.7801.777 4.1027.105 5.8489-.65 1.6784-3.252 1.7632-5.057 2.17.945.0848 1.679.7121 2.225 1.3394.272.3221.482.6611.734.9833.231.2882.441.5764.65.8815.378.6104.693 1.2376.924 1.8988.147.4408.231.7799.252 1.2376.02.4069.041.8138.062 1.2207.042.8137.063 1.6275.084 2.4413.042 1.6275.063 3.272.042 4.8995-.021 1.5767.441 3.1194-.377 4.6622-.819 1.5428-2.246 2.8821-4.008 3.7467-1.427.7121-3.064 1.085-4.742 1.1529-19.62.8646-39.302 1.2376-58.943 1.6105-19.997.373-39.994.5934-59.992.6443-20.144.0508-40.288-.0509-60.4319-.3222-6.8196-.0847-13.6182-.4068-20.3959-.0508-6.2321.3221-12.5271.1865-18.7592-.1526-5.4347-.3052-10.2819-.2882-14.5415-3.4585-9.4216-6.9848-19.3887-13.478-28.8103-20.4458-2.434-1.7971-5.09894-3.8315-7.15531-6.0355-2.11933-2.2717-4.09178-4.7639-4.889146-7.5782-.3567184-1.2376-.587536-2.5091-.335735-3.7467.104918-.5255.293769-1.0341.524586-1.5258.188851-.4238.545565-.8816.608515-1.3393.12591-.9324.56656-1.814 1.07016-2.6617.7554-1.3393 1.72064-2.6278 2.85375-3.7637z" fill="url(#b)"/><path d="m3.01019 45.7786c.253.3647.50599.7294.73791 1.0594.08433.1216.16866.2431.25299.3473.1265.1216.253.2432.42166.33.33733.1737.78008.1389 1.15957.1216.04217 0 .08434 0 .1265-.0174 6.24058-.4342 12.64988-1.8061 18.63748-.2779-1.6024.5731-3.3944.7121-5.1232.8336-4.5329.3126-9.0657.6252-13.59861.9378.04217.0348.08433.0521.1265.0869.46383.3647.94874.7294 1.43365 1.0767.80115.6078 1.47581 1.3372 2.25589 1.9798 1.15957.9378 2.36127 1.8409 3.54197 2.7266.3373.2431.6536.5036 1.012.7641.3373.2605.6957.521 1.0541.7642 3.0571 2.2924 6.1563 4.5674 9.2766 6.7903 1.012.7294 2.045 1.4588 3.0992 2.1535 1.0963.7641 2.1926 1.5109 3.31 2.2577 5.5238 3.6817 11.3427 7.1377 17.4779 10.1074.2108.1042.4217.2084.6536.3126.4638.2084.8433.4342 1.286.5384.2109.0347.4006.0521.6325.0521h.2109c.3795-.0174.78-.0174 1.1595-.0174 3.2047-.0347 6.4515.1389 9.6561.2258 4.8491.0868 9.7193.191 14.5684.2778 5.6292.1042 11.2373.1911 16.8664.2605 5.0178.0521 10.0353.1216 15.0743.1737 4.28.0347 8.56.0695 12.84.0868 2.741.0174 5.481.0348 8.222.0521 4.491.0174 8.96.0174 13.43.0174 2.593 0 5.165 0 7.759-.0174h3.099c1.56 0 3.099-.0173 4.659-.0173.612 0 1.223 0 1.834-.0174 4.575-.0174 9.15-.0521 13.704-.0868 1.561-.0174 3.1-.0174 4.639-.0521 3.141-.0174 6.304-.0521 9.445-.1042 1.876-.0174 3.732-.0348 5.629-.0695 4.807-.0521 9.572-.1389 14.358-.2258 1.918-.0173 3.816-.0521 5.713-.0868 2.404-.0521 4.807-.0868 7.211-.1737 2.129-.0347 4.237-.0868 6.367-.1389 4.617-.1042 9.234-.2258 13.83-.3473.801-.0174 1.602-.0348 2.425-.0521 1.012-.0174 2.045-.0521 3.078-.0869 3.31-.0868 6.62-.191 9.93-.2952 1.476-.0521 2.952-.0868 4.449-.1563 3.879-.1737 7.8-.3821 11.68-.3821 3.837 0 7.421-2.2576 8.833-5.1231.633-1.2504.78-2.6398.675-3.9944-.021-.2431-.042-.4689-.126-.712-.127-.3647-.338-.6947-.38-1.0594-.084-.4689-.126-.9378-.169-1.4067-.042-.4515-.084-.9031-.105-1.372-.021-.3473-.063-.712-.105-1.0593-.043-.4516-.106-.9205-.232-1.372-.021-.1563-.085-.3126-.127-.4515-.042-.1216-.084-.2432-.147-.3474-.085-.2084-.19-.3994-.338-.5904-.105-.1563-.211-.2779-.358-.4168-.127-.1216-.274-.2432-.443-.3474-2.846-1.754-8.391-1.7366-12.544-1.8061-.802-.0174-1.561-.0347-2.235-.0695-1.792-.0868-3.584-.1215-5.397-.1215 4.258-.0174 8.538-.3126 12.734-.9205 2.003-.2778 3.984-.6252 5.945-1.042.485-.0868.97-.2257 1.434-.3994.611-.2258 1.159-.5557 1.433-1.0594.232-.4341.211-.9031.211-1.3546-.021-.4342.064-.8857.021-1.3199-.042-.9378-.189-1.8408-.295-2.7786-.105-.7468-.211-1.5109-.274-2.2577-.147-2.0145-.295-4.0117-.485-6.0089-.063-.6078-.147-1.2677-.653-1.7019-.317-.2605-.717-.3821-1.118-.5037-1.096-.3299-2.213-.5731-3.373-.7294-.527-.0868-1.117-.0868-1.623-.2084-.612-.1563-1.076-.2605-1.729-.3126-6.304-.6078-12.587-1.2156-18.87-1.8061-.738-.0695-1.518-.1389-2.256-.2084 9.488-.9552 18.975-1.9103 28.463-2.8655.421-.0521.843-.0868 1.244-.1389.4-.0348.843-.0869 1.096-.3474.19-.2084.211-.4689.253-.7294.422-4.2201-.063-8.5791.232-12.8513.021-.1216.021-.4689.063-.9726.021-.2431.021-.5383.063-.8336 0-.1042 0-.2431.021-.3473.021-.191.021-.3821.043-.5731v-.0868c.021-.2084.021-.3995.042-.6079s.021-.4168.042-.6252c.042-.6946.105-1.3546.147-1.8756.022-.1736.022-.3299.043-.4689 0-.0521.021-.1215.021-.1736.021-.1563.021-.2605.042-.33.021-.0521.021-.0868.021-.0868.4-4.68905-3.964-8.7355-9.677-8.8918-2.931-.08683-5.861-.17366-8.792-.24313-3.816-.1042-7.632-.2084-11.448-.27787-12.312-.312598-24.646-.538365-37.022-.729399-3.247-.0521-6.493-.086833-9.74-.138933-12.882-.173667-25.806-.277868-38.772-.3473345-3.352-.0173667-6.704-.0173667-10.057-.0347334-4.09-.0521001-8.096-.0521001-12.122-.0521001-7.759 0-15.56.0173667-23.339.0521001-.759 0-1.518.0173667-2.277.0173667-6.789.0347332-13.599.0868332-20.3877.1389332-4.8701.052101-9.7403.104201-14.6316.173668-4.048.0521-8.117.1042-12.1649.173667-2.1927.034733-4.3642.086833-6.578.1042-.4005.017366-.8011.017366-1.2017.017366-.3795 0-.7801 0-1.1596-.017366 0 0 0 0-.021 0-.8012 0-1.6024-.017367-2.4246-.0521-.2319 0-.4427-.017367-.6747-.017367-1.0963-.0521-2.045.017367-2.9305.2084-.0211 0-.0633 0-.0843.017367-1.5391.312605-2.8884.920435-4.4907 1.649835-.1476.06947-.2952.12157-.4428.2084-6.1352 2.77868-12.0595 5.90468-17.6676 9.36063-5.3129 3.2823-10.3729 6.8425-15.1166 10.6632-.3584.2779-.7168.5731-1.0541.8683-3.3733 2.7787-6.5779 5.6789-9.78256 8.5792-.52708.4862-1.05415.9725-1.58123 1.4761-1.15957 1.0941-2.25589 2.2577-3.14138 3.5428-.63249.8857-1.13848 1.8409-1.43365 2.8482-.14758.4689-.21083.9725-.35841 1.4414-.54816 1.4762.29516 2.9697 1.22282 4.3243z" fill="url(#c)"/><path d="m6.52138 32.1298c3.19292-2.9042 6.38582-5.826 9.74682-8.6427.3361-.2799.6932-.5774 1.0503-.8748 11.9104-.1049 23.8209-.5773 35.7313-1.2771 27.2869-1.5921 54.5112-3.7265 81.7972-5.4411 27.266-1.732 54.553-3.1841 81.903-3.2891 13.801-.0525 27.56.3149 41.298 1.1547 7.016.4374 14.095.5598 21.111 1.0672-.084 1.3646-.147 2.5718-.189 2.7993-.294 4.2863.21 8.6776-.231 12.9465-.021.2624-.063.5249-.252.7348-.021.0175-.021.035-.063.0525-5.819.6998-11.785.8048-17.666.8398-13.759.0874-27.497-.5424-41.256-.4899-3.613.0175-7.268.0525-10.902.1225-1.807.0349-3.613.0699-5.441.1049-1.008.0175-2.142-.07-3.151.1225-1.281.2449-2.668.1749-3.991.14-2.983-.0525-5.966-.2975-8.97-.5074-2.814-.21-5.608-.4024-8.444-.4374-10.734-.0875-21.3 2.2744-32.013 2.3794-2.878.035-5.777-.0875-8.613.3149-1.68.2449-3.298.6823-4.957 1.0147-2.815.5774-5.693.8748-8.592.9098-1.449.0175-2.919-.0175-4.369-.1575-1.407-.1399-2.857.0175-4.264.07-6.071.2624-12.163.4899-18.2333.6648-4.7684.14-9.5368.245-14.3052.3149 21.9305 1.5921 43.8395 3.1142 65.7705 4.5838 11.259.7523 22.56 1.5746 33.861 1.5746 12.226 0 24.43-1.2072 36.698-.6473 10.818.5073 21.762 1.2596 32.496 2.5368 8.361.9972 17.267 3.0966 25.964 3.6915.105.9272.252 1.8545.294 2.7992.021.4374-.042.8923-.021 1.3297.021.4549.021.9272-.21 1.3646-.273.5074-.798.8398-1.429 1.0672-.441.175-.945.3149-1.428.4024-1.954.4199-3.928.7698-5.924 1.0497-3.298-.1049-6.596-.2799-9.81-.6123-9.494-.9622-19.955-1.2946-29.639-2.9217-2.038-.105-4.075-.21-6.092-.3149-11.238-.6474-22.35-2.4144-33.4-4.2164-7.1-1.1722-14.284-2.047-21.489-2.7468-.924-.0874-1.806-.3149-2.731-.3674-.735-.0524-1.512-.1049-2.247-.1574-3.004-.1925-6.008-.3499-9.033-.4724-6.008-.2449-12.057-.3499-18.086-.4024-6.05-.0525-12.079-.0175-18.107-.0175-6.05.0175-12.079 0-18.107-.0875-6.0292-.0699-12.079-.2449-18.0867-.5423-1.9115-.0875-3.8021-.21-5.6926-.3324 5.0624-.9798 10.1879-1.6796 15.3344-2.0995-9.4737-.6648-18.9265-1.662-28.2952-2.9567-5.8397-.8222-11.6793-1.7495-17.582-2.3094-2.9409-.2799-5.9028-.4723-8.8646-.4898-1.4704-.0175-2.9409 0-4.4323.0875-1.3234.0524-2.7308.3499-4.0542.2274-.9452-.0875-1.8275-.4024-2.7728-.4724-1.5124-.105-3.0038-.2099-4.5163-.3149-3.0038-.2099-6.0077-.4549-9.0326-.7173-.7982-.07-1.6174-.14-2.4367-.2274-1.74347-.175-3.52899-.2975-5.3145-.4374.60917-.5074 1.15533-.9973 1.68048-1.4871zm18.73742 18.9824c15.0193-.8573 30.1017-.7173 45.142-.21 3.1299.105 6.1968.175 9.3057.4899 1.4914.175 2.9829.3149 4.4953.4724 6.0077.5948 12.0155 1.0672 18.0442 1.4521 2.353.1575 4.705.2799 7.037.4024-6.092-.035-12.1835-.07-18.2752-.105-6.0918-.035-12.1836-.0875-18.2753-.1224-3.0459-.0175-6.0918-.035-9.1376-.0525-1.5335-.0175-3.0459-.0175-4.5584-.035-.6512 0-1.3023.035-1.9325-.0875-.3781-.07-.7562-.2099-1.1554-.2449-1.3653-.175-2.8988.0525-4.2642.1224-1.5124.07-3.0249.14-4.5163.21-3.0249.1574-6.0497.3324-9.0746.5248-4.7474.2975-9.5158.6299-14.2631.9798-3.8861.2974-7.7513.6473-11.6164 1.0322-.021-.0175-.021-.0175-.021-.0175-.3361-.2449-.6512-.4899-.9873-.7348-1.1973-.8923-2.39466-1.802-3.52898-2.7468 5.81868-.5073 11.67938-.9797 17.58208-1.3296zm99.3792 10.0248c26.699-.4374 53.335-1.7145 80.034-1.6271 14.074.035 28.148.2275 42.201.5774 10.377.2449 20.88.2099 31.236 1.1022.21.5773.294 1.2247.357 1.837.105 1.0847.147 2.1869.294 3.2716-11.532.3849-23.191-.2624-34.702-.2799-14.074-.0175-28.127.0875-42.201.3674-26.657.5249-53.272 1.7495-79.928 2.1519-27.1191.4024-54.1749-1.2246-81.2308-2.3443-5.0204-.21-10.0619-.35-15.1243-.4374-1.0293-.6998-2.0586-1.4347-3.0879-2.1695-3.1299-2.2219-6.1968-4.5137-9.2427-6.8406 10.0619.8048 20.1448 1.5921 30.2488 2.0469 27.0348 1.2247 54.0906 2.7818 81.1459 2.3444z" fill="url(#d)"/><path d="m155.154 53.2884c.021.9099.021 1.8562-.323 2.7115.624-.2366 1.184-.5823 1.443-1.1101.237-.4549.215-.9463.215-1.4194-.022-.4549.065-.9281.022-1.383-.087-1.7834-.474-3.5121-.582-5.2773-.151-2.1109-.302-4.2036-.495-6.2964-.065-.6369-.151-1.3284-.668-1.7833-.323-.273-.732-.4004-1.142-.5277-1.12-.3458-2.261-.6006-3.446-.7643-.538-.091-1.12-.091-1.658-.2184-.625-.1638-1.099-.273-1.766-.3276-6.44-.6369-12.858-1.2738-19.277-1.8925 6.892 1.1828 13.806 2.3475 20.698 3.5303 1.336.2184 3.145.2184 4.265.9645.431.2911.818.7097 1.141 1.0554.108.1092 1.077 1.7288.69 1.747-5.062.1456-10.145.2912-15.206.4367 3.747.5096 7.495 1.0919 11.243 1.7288 1.873.3276 4.006.8189 4.846 2.2747.517.9281.495 2.1655.323 3.1482-.065.3275-.194.6551-.28.9827-.216.7643-.065 1.6195-.043 2.4202z" fill="#eb924d"/><path d="m2.94931 45.5013c.08437.1382.14766.2763.18984.4318.06329.2072.06329.4145.14766.6217.23204.5699.80157 1.1226 1.60315 1.0362.31641-.0345.90704-.0345 1.16017-.1381-.06328-.3109-.40079-.639-.56954-.9154-.14766-.259-.29532-.5181-.40079-.7771-.27422-.5872-.48516-1.1917-.65391-1.8134-.29532-1.1917-.40079-2.4006-.40079-3.6095 0-1.3817.23204-2.8324 1.24455-3.9377 1.83518-1.9343 5.31565-1.9861 8.28995-1.8652 2.5946.1036 5.168.2245 7.7415.3281-3.7547-.3454-7.5306-.708-11.2853-1.0707 1.5188-1.7962 3.0586-3.6095 4.5774-5.4057 1.4344-1.6752 2.9532-3.4541 5.1891-4.3867 1.8774-.7771 4.029-.898 6.1173-1.0189 5.147-.2763 10.2728-.5527 15.4408-.829-5.5477-.2245-11.1376-.4318-16.5588-1.3989 1.793-1.468 3.6282-2.8669 5.5267-4.214 2.7-1.9343 5.5266-3.7822 8.4376-5.5092 2.911-1.74436 5.9063-3.36778 8.986-4.88758 1.5399-.75989 3.1009-1.50252 4.6829-2.19334.7594-.34541 1.5821-.63901 2.3204-1.01895.2109-.1209.4218-.25906.675-.32814.1898-.05181.3797-.05181.5695-.05181 1.0125-.03455 2.0461-.01727 3.0586-.03455 3.0376-.01727 6.0751-.03454 9.1127-.03454.9492 0 1.9195 0 2.8688-.01727h5.5266c2.5524-.01727 5.1258-.01727 7.6782-.01727h.3797c4.0923-.03454 8.1634-.03454 12.2135-.03454 2.025 0 4.0502 0 6.0752-.01727.928 0 1.962.10362 2.869-.03454.928-.13816 1.666-.60446 2.657-.67355.886-.05181 1.793.05182 2.658.1209 2.215.15543 4.43.31086 6.624.51811.991.08635 2.088.22452 2.763.82898.232.20725.401.4663.675.63901.633.36268 1.477.13816 2.194-.08636 1.434-.41449 2.953-.65627 4.472-.69081 1.371-.05181 2.742.15543 4.113.08635.865-.05181 1.688-.20725 2.532-.34541 3.332-.53538 6.834-.56992 10.23-.7599 2.51-.15543 5.021-.25905 7.531-.32814 8.121-.24178 16.242-.12089 24.342.17271 4.05.13816 8.121.31087 12.171.51811 1.857.08635 3.924.41449 5.759.20725.527-.05182 1.013-.24179 1.561-.31087.57-.08635 1.118-.06908 1.667-.05181 2.257.01727 4.514.01727 6.75.03454 2.636.01727 5.273 0 7.931 0 .886 0 1.751.15543 2.616.15543.801 0 1.603-.13816 2.383-.13816 1.667.01727 3.333.27633 4.894.79444.591.20724 1.202.43176 1.856.39722 1.182-.05181 2.004-.96715 3.059-1.38164 2.552-1.00168 5.168.89807 7.763.13817 1.286-.37995 2.615-.32814 3.965-.34541 1.73-.01727 3.481-.01727 5.21-.01727 5.886.01727 11.771.18997 17.614.67354 2.911.24179 5.822.56993 8.712.98442 1.392.20724 2.826.53538 4.219.67355.443.05181.759.03454 1.16.25905 1.73 1.00169 6.476 6.52825 3.101 8.47975-1.118.6218-2.553.639-3.903.6218-8.648-.1037-17.318-.2073-25.988-.2936 9.345.6044 18.711 1.2089 28.055 1.8306.612.0346 1.224.0864 1.772.3109 1.793.7944 1.182 2.6596 1.414 4.0067.337 1.7616-.064 3.6614-.296 5.423-.274 2.2624-.611 4.5248-1.012 6.77.422-.0519.844-.0864 1.244-.1382.401-.0345.844-.0864 1.097-.3454.19-.2073.211-.4663.253-.7254.422-4.1967-.063-8.5316.232-12.7801.022-.1209.022-.4663.064-.9671.021-.2418.021-.5354.063-.829 0-.1036 0-.2418.021-.3454.021-.19.021-.38.042-.5699v-.0864c.021-.2072.021-.3972.042-.6045.022-.2072.022-.4144.043-.6217.042-.6908.105-1.3471.147-1.8652.021-.1727.021-.3281.042-.4663 0-.0518.022-.1209.022-.1727.021-.1554.021-.2591.042-.3281.021-.0519.021-.0864.021-.0864.401-4.66301-3.966-8.68702-9.682-8.84245-2.932-.08635-5.864-.17271-8.797-.24179-3.818-.10362-7.636-.20724-11.454-.27633-12.318-.310863-24.658-.535379-37.041-.725353-3.248-.051812-6.497-.086352-9.745-.138164-12.889-.172704-25.819-.276327-38.792-.3454083-3.354-.0172704-6.708-.0172704-10.062-.0345408-11.728-.0690817-23.541-.05181132-35.375 0-.759 0-1.518.0172704-2.278.0172704-6.792.0345408-13.605.0863517-20.3977.1381637-4.8727.051811-9.7454.103622-14.6392.172704-4.0501.051811-8.1212.103622-12.1713.172704-1.8563.017271-3.7126.051811-5.5688.086352-.3375 0-.675-.01727-1.0125.017271l-.2532.034541c-.2742.051811-.4851.103622-.7804.086352-.443-.017271-.886-.086352-1.3501-.138164-.4218-.051811-.8859-.103622-1.3289-.103622-.3586 0-.7172.01727-1.0758.051811-.2531.01727-.5062.034541-.7594.051811-.9492.069082-1.8984.120893-2.8477.138164-.0211 0-.0632 0-.0843.01727-1.5399.310868-2.8899.915328-4.4931 1.640688-.1476.06908-.2953.1209-.4429.20725-6.1384 2.76327-12.0658 5.87194-17.6768 9.30877-5.3157 3.2641-10.3783 6.8045-15.1245 10.604-.3586.2764-.7172.57-1.0547.8636-3.375 2.7632-6.5813 5.6474-9.7876 8.5315-.52735.4836-1.0547.9672-1.58206 1.468-1.16017 1.0881-2.25706 2.2452-3.14301 3.5232-.63282.8808-1.13907 1.8307-1.43439 2.8323-.14766.4663-.21094.9672-.3586 1.4335-.46407 1.3471.18985 2.8323 1.01251 4.0067.0211.0691.10547.19.16876.2936z" fill="#eb924d"/><path d="m266.235 16.3049c-1.163 14.7099-1.311 30.1011-.803 45.9291.084 2.9001-2.663 5.3459-6.213 5.4507-69.986 2.341-138.767 2.9525-206.1954 1.6248-1.2467-.0175-2.4723-.3494-3.5289-.926-11.5797-6.4465-22.1452-13.4695-31.4639-21.2263-2.3455-1.9391-2.5357-4.9964-.4438-7.1278 11.0726-11.2858 23.9836-21.0691 39.3247-28.8608.9931-.5066 2.1553-.7861 3.3175-.7861 63.0758-.89102 129.9548-.71632 199.6448.2271 3.719.0699 6.614 2.6554 6.361 5.6953z" fill="url(#e)"/><path d="m22.6747 43.7919c.1683.4188.5259.733.8835 1.0471 1.4934 1.2741 3.0289 2.4958 4.6275 3.7 3.9544 3.0194 8.1402 5.8467 12.389 8.5519 4.3962 2.8099 8.6661 6.6146 14.198 7.8189 6.4996 1.4137 14.5977.4887 21.2865.5759 16.2594.2095 32.5188.3142 48.7778.3142 21.918 0 43.814-.192 65.711-.5585 11.484-.192 22.948-.4363 34.411-.733 5.617-.1397 11.233-.2793 16.87-.4538 4.796-.1396 11.127.5759 15.733-.4189 4.102-.8901 3.008-9.1627 3.029-11.6585.042-6.8764-.189-13.7703.168-20.6467.064-1.3089.148-2.6004.253-3.8919.252-3.0194 1.956-12.9326-4.354-12.8279-36.368.6632-72.988-.6108-109.419-.6108-16.323 0-32.645.0523-48.9678.1745-7.8667.0524-15.7335.1396-23.6002.2269-4.4592.0524-9.2129-.5236-13.567.5759-4.5434 1.1345-8.8554 4.3981-12.5994 6.7543-9.2971 5.8292-17.1638 12.7056-24.9464 19.8438-.6521.6109-1.1779 1.4486-.8835 2.2166z" fill="#e48a4a"/></svg>