<svg fill="none" height="66" viewBox="0 0 206 66" width="206" xmlns="http://www.w3.org/2000/svg" xmlns:xlink="http://www.w3.org/1999/xlink"><linearGradient id="a"><stop offset="0" stop-color="#cf5c2b"/><stop offset="1" stop-color="#59173e"/></linearGradient><linearGradient id="b" gradientUnits="userSpaceOnUse" x1="58.3915" x2="84.1557" xlink:href="#a" y1="-81.6461" y2="-2.42083"/><linearGradient id="c" gradientUnits="userSpaceOnUse" x1="93.398" x2="118.413" xlink:href="#a" y1="-24.5777" y2="123.284"/><linearGradient id="d" gradientUnits="userSpaceOnUse" x1="93.3771" x2="126.647" xlink:href="#a" y1="-22.6451" y2="165.685"/><linearGradient id="e" gradientUnits="userSpaceOnUse" x1="102.422" x2="102.422" xlink:href="#a" y1="76.1744" y2="45.4949"/><path d="m3.745 25.8552c1.4916-1.6651 3.28761-3.0904 5.08361-4.5157.85234-.6793 1.70469-1.3453 2.55699-2.0114 1.6438-1.2921 3.2724-2.5842 4.9162-3.8762.7154-.5595 1.446-1.3587 2.3135-1.7317.8067-.3597 1.446-.9058 2.1461-1.412 3.2115-2.31778 6.5448-4.50235 10.015-6.51376 2.7549-1.61178 5.6468-3.14365 8.8735-3.80968 1.4155-.29305 2.8766-.42625 4.3226-.54614 2.0852-.18649 4.1704-.35965 6.2555-.546142 1.0503-.093244 2.1157-.186488 3.1659-.279732.4262-.039962.8219-.079923 1.2328-.186488.685-.173167 1.3699.079923 2.07-.013321 1.3242-.159846 2.6788-.119885 4.0182-.133205 1.4764-.013321 2.9375-.039962 4.4139-.053282 5.8598-.066603 11.7197-.119885 17.5948-.1598472 5.8294-.0399617 11.6588-.0532822 17.5034-.0666028 5.814 0 11.644 0 17.458.0266411 5.799.0266412 11.598.0666028 17.381.1332059 5.769.053282 11.553.133205 17.321.226449 5.754.093244 11.507.199809 17.26.319694 5.723.119885 11.461.266411 17.184.41294 2.998.07992 5.997.17316 8.995.25309.244.01332.518-.01332.746.03996.259.05328.502.14653.746.22645.502.15985 1.02.33301 1.507.53282.943.39962 1.841.93244 2.45 1.69171.35.43958.594.93244.913 1.37202.168.22645.381.39962.518.63939.654 1.14557 1.324 2.31778 2.222 3.33014.883.99909 1.157 2.57089 1.05 3.78299-.137 1.6518-.182 3.3302-.35 4.9819-.274 2.6375-.015 5.275-.35 7.9258-.046.3863-.122.7992-.441 1.0523-.229.1732-.533.2398-.822.2931-.959.1864-1.903.3596-2.862.5461 1.172.666 2.938.7193 3.562 1.8249.198.3597.228.7593.274 1.1589.106 1.412.259 2.824.365 4.2359.046.6394.092 1.2655.107 1.9049.03.6127.076 1.1855.152 1.7849.152 1.3987.563 3.2236.076 4.5956-.472 1.3188-2.359 1.3854-3.668 1.7051.685.0666 1.218.5594 1.613 1.0523.198.2531.35.5195.533.7726.167.2264.32.4529.472.6926.274.4796.502.9724.67 1.492.106.3463.167.6127.182.9724.015.3196.031.6393.046.959.03.6394.045 1.2788.061 1.9182.03 1.2788.045 2.5709.03 3.8496-.015 1.2388.32 2.451-.274 3.6632-.593 1.2122-1.628 2.2645-2.907 2.9438-1.035.5595-2.222.8525-3.44.9058-14.231.6794-28.507.9724-42.754 1.2655-14.505.293-29.01.4662-43.515.5062-14.6114.0399-29.223-.04-43.8345-.2531-4.9467-.0666-9.8781-.3197-14.7943-.04-4.5204.2531-9.0865.1465-13.607-.1199-3.9421-.2397-7.458-.2264-10.5477-2.7174-6.8339-5.488-14.0636-10.5898-20.89758-16.0646-1.76557-1.4119-3.69855-3.0104-5.19015-4.7421-1.53726-1.7849-2.967976-3.7431-3.54635-5.9543-.2587465-.9724-.42617-1.9714-.2435259-2.9438.0761019-.413.2130849-.8126.3805099-1.1989.136983-.333.395729-.6926.441391-1.0523.091322-.7326.410945-1.4253.776235-2.0913.54794-1.0523 1.24807-2.0647 2.06997-2.9572z" fill="url(#b)"/><path d="m2.18341 35.9689c.18351.2866.36702.5731.53524.8324.06117.0955.12234.191.18352.2729.09175.0955.18351.191.30585.2592.24468.1365.56583.1092.84109.0956.03059 0 .06117 0 .09176-.0137 4.52663-.3411 9.17563-1.4191 13.51873-.2183-1.1623.4503-2.4621.5595-3.7161.655-3.288.2456-6.57588.4912-9.8638.7368.03059.0273.06117.0409.09176.0682.33643.2866.68816.5731 1.0399.846.58112.4776 1.07048 1.0507 1.63631 1.5556.8411.7369 1.71278 1.4464 2.56917 2.1423.24468.191.47407.3957.73406.6004.2447.2047.5046.4094.7646.6004 2.2175 1.8012 4.4655 3.5887 6.7288 5.3353.734.5731 1.4834 1.1462 2.248 1.692.7952.6004 1.5904 1.1871 2.4009 1.7739 4.0067 2.8928 8.2275 5.6082 12.6777 7.9415.1529.0819.3058.1638.474.2457.3365.1637.6117.3411.9329.423.1529.0272.2905.0409.4588.0409h.1529c.2753-.0137.5658-.0137.8411-.0137 2.3245-.0272 4.6795.1092 7.004.1774 3.5173.0683 7.0499.1501 10.5672.2184 4.0832.0818 8.151.1501 12.2342.2046 3.6396.041 7.2793.0956 10.9342.1365 3.1044.0273 6.2088.0546 9.3132.0682 1.9881.0137 3.9761.0273 5.9642.041 3.2573.0136 6.4994.0136 9.7414.0136 1.881 0 3.747 0 5.628-.0136h2.248c1.131 0 2.248-.0137 3.379-.0137.444 0 .887 0 1.331-.0136 3.318-.0137 6.637-.041 9.94-.0683 1.132-.0136 2.248-.0136 3.364-.0409 2.279-.0136 4.573-.0409 6.852-.0819 1.361-.0136 2.706-.0273 4.083-.0545 3.486-.041 6.943-.1092 10.414-.1774 1.392-.0137 2.768-.041 4.144-.0683 1.744-.0409 3.487-.0682 5.23-.1364 1.545-.0273 3.074-.0682 4.619-.1092 3.349-.0819 6.698-.1774 10.032-.2729.581-.0136 1.162-.0273 1.758-.0409.734-.0137 1.484-.041 2.233-.0683 2.401-.0682 4.802-.15 7.203-.2319 1.07-.041 2.141-.0682 3.227-.1228 2.814-.1365 5.658-.3002 8.472-.3002 2.783 0 5.383-1.7739 6.407-4.0254.459-.9824.566-2.0741.49-3.1384-.015-.191-.031-.3684-.092-.5594-.092-.2866-.245-.5459-.275-.8324-.061-.3684-.092-.7368-.123-1.1053-.03-.3547-.061-.7095-.076-1.0779-.015-.273-.046-.5595-.076-.8324-.031-.3548-.077-.7232-.169-1.078-.015-.1228-.061-.2456-.091-.3548-.031-.0955-.062-.191-.107-.2729-.062-.1637-.138-.3138-.245-.4639-.077-.1228-.153-.2183-.26-.3275-.092-.0955-.199-.191-.321-.2729-2.065-1.3782-6.087-1.3645-9.099-1.4191-.582-.0137-1.132-.0273-1.621-.0546-1.3-.0682-2.6-.0955-3.915-.0955 3.089-.0136 6.193-.2456 9.236-.7232 1.453-.2183 2.891-.4912 4.313-.8187.352-.0682.703-.1774 1.04-.3139.443-.1773.841-.4366 1.04-.8323.168-.3412.153-.7096.153-1.0644-.016-.3411.046-.6959.015-1.037-.031-.7368-.138-1.4464-.214-2.1832-.077-.5868-.153-1.1872-.199-1.7739-.107-1.5829-.214-3.1521-.352-4.7213-.046-.4776-.107-.9961-.474-1.3372-.229-.2047-.52-.3002-.81-.3957-.795-.2593-1.606-.4503-2.447-.5731-.382-.0683-.811-.0683-1.178-.1638-.443-.1228-.78-.2047-1.254-.2456-4.572-.4776-9.129-.9552-13.687-1.4191-.535-.0546-1.101-.1092-1.636-.1637 6.882-.7505 13.764-1.501 20.645-2.2515.306-.0409.612-.0682.903-.1092.29-.0273.611-.0682.795-.2729.137-.1637.153-.3684.183-.5731.306-3.3158-.046-6.7407.168-10.0975.016-.0955.016-.3684.046-.7641.016-.191.016-.423.046-.655 0-.0819 0-.191.016-.2729.015-.1501.015-.3002.03-.4503v-.0682c.015-.1638.015-.3138.031-.4776.015-.1637.015-.3275.03-.4912.031-.5458.077-1.06435.107-1.47371.016-.13645.016-.25926.031-.36842 0-.04094.015-.09552.015-.13645.015-.12281.015-.20468.031-.25926.015-.04094.015-.06823.015-.06823.291-3.68422-2.875-6.86357-7.019-6.98638-2.126-.06822-4.252-.13645-6.377-.19103-2.768-.08187-5.536-.16374-8.304-.21833-8.931-.24561-17.877-.422998-26.854-.573096-2.355-.040936-4.71-.068227-7.065-.109162-9.344-.136453-18.719-.218325-28.124-.2729057-2.431-.0136452-4.863-.0136452-7.294-.0272905-2.967-.0409358-5.872-.0409358-8.793-.0409358-5.6281 0-11.2864.0136453-16.9293.0409358-.5506 0-1.1011.0136453-1.6516.0136453-4.9243.0272905-9.8638.0682259-14.788.1091619-3.5326.040936-7.0652.081872-10.6131.136453-2.9362.040936-5.8877.081871-8.8239.136453-1.5904.02729-3.1656.068226-4.7713.081871-.2906.013645-.5811.013645-.8717.013645-.2753 0-.5658 0-.8411-.013645 0 0 0 0-.0153 0-.5811 0-1.1622-.013645-1.7586-.040936-.1683 0-.3212-.013645-.4894-.013645-.7952-.040936-1.4834.013645-2.1257.163743-.0153 0-.0459 0-.0612.013646-1.1163.245614-2.095.723202-3.2573 1.296302-.107.05458-.2141.09551-.3211.16374-4.4502 2.18324-8.7474 4.63939-12.8153 7.3548-3.8537 2.57893-7.524 5.37623-10.9648 8.37823-.26.2183-.52.4503-.7646.6822-2.4469 2.1833-4.77135 4.462-7.09583 6.7408-.38232.3821-.76464.7641-1.14695 1.1598-.8411.8597-1.63632 1.7739-2.27861 2.7837-.45878.6959-.8258 1.4464-1.0399 2.2378-.10705.3684-.15292.7641-.25997 1.1326-.397612 1.1598.21409 2.3333.88697 3.3976z" fill="url(#c)"/><path d="m4.73033 25.2448c2.31599-2.2819 4.63198-4.5776 7.06987-6.7907.2438-.22.5028-.4536.7618-.6873 8.6393-.0825 17.2786-.4537 25.9178-1.0035 19.7926-1.2509 39.5395-2.928 59.3321-4.2751 19.7771-1.3609 39.5701-2.50184 59.4081-2.58432 10.011-.04124 19.991.24742 29.956.90722 5.089.3437 10.224.4399 15.313.8386-.061 1.0722-.107 2.0207-.137 2.1994-.214 3.3678.152 6.8181-.168 10.1722-.015.2062-.046.4124-.183.5774-.015.0137-.015.0275-.046.0412-4.22.5499-8.547.6324-12.814.6599-9.98.0687-19.945-.4262-29.925-.3849-2.621.0137-5.272.0412-7.908.0962-1.31.0275-2.62.055-3.946.0825-.731.0137-1.554-.055-2.286.0962-.929.1924-1.935.1374-2.895.11-2.163-.0413-4.327-.2337-6.506-.3987-2.041-.1649-4.068-.3162-6.125-.3436-7.786-.0688-15.45 1.787-23.221 1.8695-2.087.0274-4.19-.0688-6.247.2474-1.2188.1924-2.392.5361-3.5957.7973-2.0417.4536-4.1292.6873-6.2319.7148-1.0513.0137-2.1179-.0138-3.1692-.1237-1.0209-.11-2.0722.0137-3.0931.055-4.4034.2061-8.8221.3848-13.2255.5223-3.4588.11-6.9175.1925-10.3763.2474 15.9072 1.251 31.7992 2.4469 47.7067 3.6016 8.167.5911 16.364 1.2371 24.561 1.2371 8.868 0 17.721-.9484 26.619-.5086 7.847.3987 15.785.9898 23.571 1.9932 6.065.7836 12.525 2.4331 18.833 2.9005.076.7286.183 1.4571.213 2.1994.016.3437-.03.7011-.015 1.0448.015.3574.015.7285-.152 1.0722-.198.3986-.579.6598-1.036.8385-.32.1375-.686.2474-1.036.3162-1.417.3299-2.85.6048-4.297.8247-2.392-.0824-4.785-.2199-7.116-.4811-6.887-.756-14.475-1.0172-21.499-2.2956-1.478-.0825-2.956-.165-4.419-.2475-8.151-.5086-16.211-1.8969-24.226-3.3128-5.15-.921-10.361-1.6083-15.587-2.1582-.671-.0687-1.311-.2474-1.981-.2887-.533-.0412-1.097-.0824-1.63-.1237-2.179-.1512-4.358-.2749-6.552-.3711-4.358-.1925-8.746-.275-13.1191-.3162-4.3882-.0412-8.7611-.0137-13.1341-.0137-4.3882.0137-8.7612 0-13.1341-.0688-4.373-.055-8.7612-.1924-13.1189-.4261-1.3865-.0687-2.7579-.165-4.1292-.2612 3.6721-.7698 7.3899-1.3196 11.1229-1.6495-6.8718-.5224-13.7284-1.3059-20.524-2.3232-4.2358-.646-8.4716-1.3746-12.7532-1.8145-2.1331-.2199-4.2815-.3711-6.4299-.3849-1.0666-.0137-2.1331 0-3.215.0687-.9599.0413-1.9807.275-2.9407.1788-.6856-.0688-1.3256-.3162-2.0112-.3712-1.0971-.0825-2.1789-.165-3.2759-.2474-2.1789-.165-4.3577-.3574-6.55184-.5636-.579-.055-1.17323-.11-1.76747-.1787-1.26465-.1375-2.55978-.2337-3.85491-.3437.44187-.3986.83803-.7835 1.21895-1.1684zm13.59117 14.9147c10.8944-.6735 21.8344-.5636 32.7439-.1649 2.2703.0824 4.4949.1374 6.7499.3849 1.0818.1374 2.1636.2474 3.2607.3711 4.3577.4674 8.7154.8385 13.0884 1.141 1.7065.1237 3.413.2199 5.1043.3161-4.4187-.0275-8.8373-.055-13.256-.0825-4.4187-.0274-8.8373-.0687-13.256-.0962-2.2093-.0137-4.4187-.0275-6.628-.0412-1.1123-.0138-2.2093-.0138-3.3064-.0275-.4723 0-.9447.0275-1.4018-.0687-.2742-.055-.5485-.165-.838-.1925-.9904-.1375-2.1027.0413-3.0931.0962-1.097.055-2.1941.11-3.2759.165-2.1941.1237-4.3882.2612-6.5823.4124-3.4435.2337-6.9022.4948-10.3458.7698-2.8188.2337-5.6223.5086-8.4259.811-.01524-.0137-.01524-.0137-.01524-.0137-.24379-.1925-.47234-.3849-.71613-.5774-.8685-.701-1.73699-1.4159-2.55978-2.1582 4.22059-.3986 8.47165-.7697 12.75315-1.0447zm72.0853 7.8767c19.3662-.3437 38.6862-1.3472 58.0522-1.2784 10.209.0275 20.417.1787 30.611.4536 7.527.1924 15.145.1649 22.657.866.152.4536.213.9622.259 1.4434.076.8522.106 1.7183.213 2.5705-8.365.3024-16.821-.2062-25.171-.2199-10.209-.0138-20.402.0687-30.611.2887-19.335.4124-38.64 1.3746-57.9757 1.6908-19.6707.3161-39.2957-.9623-58.9207-1.842-3.6416-.165-7.2984-.275-10.9705-.3437-.7466-.5499-1.4932-1.1272-2.2398-1.7046-2.2703-1.7457-4.4949-3.5465-6.7042-5.3748 7.2984.6324 14.6121 1.251 21.941 1.6084 19.6097.9622 39.2347 2.1856 58.8597 1.842z" fill="url(#d)"/><path d="m112.541 41.8696c.016.7149.016 1.4584-.234 2.1304.453-.1859.859-.4575 1.046-.8722.172-.3574.157-.7435.157-1.1152-.016-.3575.046-.7292.015-1.0867-.062-1.4012-.343-2.7595-.422-4.1464-.109-1.6586-.218-3.3029-.359-4.9472-.047-.5004-.109-1.0437-.484-1.4012-.235-.2145-.531-.3145-.828-.4146-.813-.2717-1.641-.4719-2.5-.6006-.39-.0714-.812-.0714-1.203-.1715-.453-.1287-.797-.2145-1.281-.2574-4.671-.5004-9.3265-1.0009-13.9821-1.487 4.9993.9294 10.0141 1.8445 15.0131 2.7738.969.1716 2.281.1716 3.094.7578.312.2288.593.5577.828.8293.078.0858.781 1.3583.499 1.3726-3.671.1144-7.358.2288-11.029.3432 2.718.4003 5.437.8579 8.155 1.3583 1.359.2574 2.906.6434 3.515 1.7873.375.7292.359 1.7014.234 2.4735-.047.2574-.14.5148-.203.7721-.156.6006-.047 1.2726-.031 1.9017z" fill="#eb924d"/><path d="m2.13925 35.751c.0612.1086.1071.2172.13771.3393.0459.1628.0459.3256.1071.4885.16831.4478.58142.882 1.16285.8142.2295-.0272.65792-.0272.84153-.1086-.0459-.2442-.29071-.5021-.41312-.7192-.1071-.2035-.21421-.4071-.29071-.6106-.19891-.4614-.35191-.9363-.47432-1.4248-.21421-.9363-.29071-1.8862-.29071-2.8361 0-1.0855.16831-2.2254.90274-3.0939 1.33115-1.5197 3.85575-1.5605 6.01313-1.4655 1.88195.0814 3.74865.1764 5.61535.2579-2.7235-.2714-5.46234-.5564-8.18585-.8414 1.10165-1.4112 2.21859-2.836 3.32025-4.2473 1.0404-1.3162 2.1421-2.7139 3.7639-3.4466 1.3618-.6107 2.9224-.7057 4.4372-.8006 3.7334-.2172 7.4514-.4343 11.2-.6514-4.024-.1764-8.0787-.3392-12.0109-1.0991 1.3005-1.1534 2.6317-2.2526 4.0087-3.311 1.9585-1.5198 4.0088-2.9718 6.1203-4.32872 2.1115-1.37053 4.2841-2.64608 6.518-3.8402 1.117-.59707 2.2492-1.18056 3.3968-1.72335.5508-.27139 1.1475-.50207 1.683-.8006.153-.09499.306-.20355.4897-.25783.1377-.0407.2754-.0407.4131-.0407.7344-.02714 1.4841-.01357 2.2186-.02714 2.2032-.01357 4.4065-.02714 6.6098-.02714.6885 0 1.3924 0 2.0809-.01357h4.0088c1.8513-.01357 3.718-.01357 5.5694-.01357h.2754c2.9683-.02714 5.9213-.02714 8.859-.02714 1.4689 0 2.9377 0 4.4066-.01357.6732 0 1.423.08142 2.0809-.02714.6732-.10856 1.2087-.47494 1.9279-.52922.6426-.0407 1.3005.04071 1.9278.09499 1.6066.12213 3.2132.24425 4.8044.40709.7192.06785 1.5148.17641 2.0044.65134.1683.16284.2907.36638.4896.50208.459.28496 1.0711.10855 1.5913-.06785 1.0404-.32567 2.1421-.51565 3.2437-.54279.9946-.0407 1.9891.12213 2.9836.06785.6274-.04071 1.2241-.16283 1.8361-.27139 2.4175-.42066 4.9578-.4478 7.4208-.59706 1.821-.12213 3.642-.20355 5.462-.25783 5.891-.18997 11.782-.09498 17.657.1357 2.938.10856 5.891.24425 8.829.40709 1.346.06785 2.846.32567 4.177.16283.382-.0407.734-.18997 1.132-.24425.413-.06785.811-.05428 1.209-.04071 1.637.01357 3.274.01357 4.896.02714 1.912.01357 3.825 0 5.753 0 .643 0 1.27.12213 1.897.12213.582 0 1.163-.10856 1.729-.10856 1.209.01357 2.418.21712 3.55.6242.428.16284.872.33924 1.346.31211.857-.04071 1.454-.7599 2.219-1.08557 1.851-.787042 3.749.70562 5.631.10855.933-.29853 1.897-.25782 2.876-.27139 1.255-.01357 2.525-.01357 3.779-.01357 4.269.01357 8.538.14927 12.776.52922 2.112.18997 4.223.44779 6.32.77346 1.009.16284 2.05.42066 3.06.52922.321.04071.55.02714.841.20354 1.255.78704 4.697 5.12932 2.249 6.66272-.811.4885-1.851.502-2.83.4885-6.274-.0814-12.562-.1629-18.851-.2307 6.779.4749 13.572.9499 20.35 1.4384.444.0271.888.0678 1.285.2442 1.301.6242.857 2.0897 1.026 3.1482.244 1.3841-.046 2.8767-.215 4.2608-.199 1.7777-.443 3.5553-.734 5.3193.306-.0407.612-.0678.903-.1085.29-.0272.612-.0679.795-.2714.138-.1629.153-.3664.184-.5699.306-3.2975-.046-6.7034.168-10.0416.016-.095.016-.3663.046-.7599.015-.1899.015-.4206.046-.6513 0-.0814 0-.19.015-.2714.016-.1493.016-.2985.031-.4478v-.0678c.015-.1629.015-.3121.031-.475.015-.1628.015-.3257.03-.4885.031-.5428.077-1.05842.107-1.46551.016-.13569.016-.25782.031-.36638 0-.0407.015-.09498.015-.13569.015-.12213.015-.20355.031-.25783.015-.0407.015-.06784.015-.06784.291-3.6638-2.876-6.82552-7.023-6.94765-2.127-.06785-4.254-.13569-6.38-.18997-2.77-.08142-5.539-.16284-8.309-.21712-8.935-.24425-17.886-.420655-26.867-.569921-2.357-.040709-4.713-.067848-7.069-.108557-9.349-.135696-18.728-.217114-28.138-.2713926-2.433-.0135696-4.866-.0135696-7.298-.0271392-8.508-.0542785-17.0759-.04070888-25.6596 0-.5508 0-1.1016.0135696-1.6524.0135696-4.9268.0271392-9.8689.0678482-14.7957.1085572-3.5345.040709-7.0689.081417-10.6186.135696-2.9377.040709-5.8908.081418-8.8285.135696-1.3464.01357-2.6929.040709-4.0393.067848-.2448 0-.4897-.013569-.7345.01357l-.1836.027139c-.1989.040709-.3519.081418-.5661.067848-.3213-.013569-.6426-.067848-.9792-.108557-.306-.040709-.6427-.081417-.964-.081417-.2601 0-.5202.013569-.7803.040708-.1836.01357-.3672.02714-.5508.040709-.6886.054279-1.3771.094988-2.0656.108557-.0153 0-.0459 0-.0612.01357-1.117.244253-2.0962.719186-3.259 1.289116-.1071.05428-.2142.09498-.3214.16283-4.4524 2.17114-8.7519 4.61367-12.8219 7.31403-3.8557 2.56463-7.5279 5.34643-10.9705 8.33173-.2601.2171-.5202.4478-.765.6785-2.4481 2.1711-4.77381 4.4373-7.0995 6.7034-.38251.3799-.76503.7599-1.14754 1.1534-.84154.8549-1.63717 1.7641-2.27979 2.7682-.45902.6921-.82623 1.4384-1.04044 2.2254-.10711.3664-.15301.7599-.26011 1.1263-.336617 1.0584.1377 2.2254.73443 3.1482.0153.0542.0765.1492.1224.2306z" fill="#eb924d"/><path d="m193.114 12.8111c-.843 11.5578-.951 23.6509-.583 36.0872.062 2.2786-1.931 4.2003-4.506 4.2827-50.764 1.8394-100.6547 2.3198-149.5642 1.2766-.9044-.0138-1.7934-.2746-2.5597-.7275-8.3994-5.0652-16.0631-10.5832-22.8225-16.6778-1.7013-1.5237-1.8392-3.9259-.3218-5.6005 8.0315-8.8674 17.3965-16.5543 28.5242-22.67632.7204-.39807 1.5634-.6177 2.4064-.6177 45.7521-.70006 94.2636-.56279 144.8126.17845 2.698.0549 4.798 2.08647 4.614 4.47487z" fill="url(#e)"/><path d="m16.4472 34.408c.1221.3291.3814.5759.6408.8228 1.0832 1.001 2.197 1.9609 3.3566 2.9071 2.8683 2.3723 5.9045 4.5938 8.9864 6.7193 3.1887 2.2078 6.2859 5.1972 10.2986 6.1434 4.7144 1.1108 10.5884.384 15.4402.4526 11.7937.1645 23.5875.2468 35.3812.2468 15.898 0 31.781-.1508 47.663-.4388 8.331-.1509 16.646-.3428 24.961-.576 4.074-.1097 8.147-.2194 12.236-.3565 3.479-.1097 8.071.4525 11.412-.3291 2.976-.6994 2.182-7.1993 2.197-9.1603.031-5.4028-.137-10.8195.122-16.2224.046-1.0284.107-2.0432.184-3.0579.183-2.3724 1.418-10.1613-3.159-10.079-26.379.521-52.942-.48-79.367-.48-11.8397 0-23.6792.0411-35.5187.1371-5.7062.0412-11.4123.1097-17.1185.1783-3.2345.0411-6.6826-.4114-9.8409.4525-3.2955.8914-6.4232 3.4557-9.139 5.3069-6.7436 4.5802-12.4498 9.983-18.0949 15.5916-.473.48-.8544 1.1382-.6408 1.7416z" fill="#e48a4a"/></svg>