<svg fill="none" height="66" viewBox="0 0 271 66" width="271" xmlns="http://www.w3.org/2000/svg" xmlns:xlink="http://www.w3.org/1999/xlink"><linearGradient id="a"><stop offset="0" stop-color="#cf5c2b"/><stop offset="1" stop-color="#59173e"/></linearGradient><linearGradient id="b" gradientUnits="userSpaceOnUse" x1="154.075" x2="149.3" xlink:href="#a" y1="-53.9116" y2="-15.178"/><linearGradient id="c" gradientUnits="userSpaceOnUse" x1="148.491" x2="127.472" xlink:href="#a" y1="-46.0951" y2="206.417"/><linearGradient id="d" gradientUnits="userSpaceOnUse" x1="139.477" x2="132.894" xlink:href="#a" y1="-4.78745" y2="189.809"/><linearGradient id="e" gradientUnits="userSpaceOnUse" x1="137.446" x2="137.446" xlink:href="#a" y1="92.9863" y2="44.2593"/><linearGradient id="f" gradientUnits="userSpaceOnUse" x1="214.065" x2="209.159" xlink:href="#a" y1="8.89312" y2="26.2149"/><linearGradient id="g" gradientUnits="userSpaceOnUse" x1="241.264" x2="198.268" xlink:href="#a" y1="-37.9733" y2="93.7834"/><path d="m270.831 29.2877c-.264-.9065-.827-1.7597-1.303-2.6128-.017-.04-.052-.0934-.07-.1334-.616-1.0797-1.303-2.1329-2.042-3.1727-.37-.5199-.757-1.0264-1.145-1.5463-.07-.1067-.158-.1867-.246-.2667-.106-.0933-.158-.1999-.229-.3066-.176-.2532-.387-.4799-.598-.7065-.722-.7732-1.462-1.533-2.395-2.1596-.457-.3066-.95-.5732-1.478-.7865-.3-.12-.599-.2133-.916-.2933-.299-.0666-.598-.0933-.898-.1466 0-.1067.035-.24.053-.3466.018-.12.018-.24 0-.3733-.018-.2533-.07-.5065-.141-.7465-.158-.4932-.405-.9598-.704-1.4131-.334-.5065-.704-.9864-1.109-1.453-.211-.24-.423-.4666-.651-.6932-.159-.1733-.229-.3733-.37-.5599-.123-.16-.264-.3199-.387-.4799-.088-.1067-.159-.2-.229-.3066-.088-.1467-.264-.2533-.388-.3733-.281-.2533-.581-.50654-.862-.77316-2.13-1.97295-4.313-3.9459-6.919-5.59892-1.127-.71986-2.341-1.37307-3.626-1.9063-.37-.15997-.74-.29327-1.11-.41325-2.764-.933155-5.651-1.079793-8.696-1.119786-3.204-.039992-6.426-.079984-9.63-.119977-3.222-.039992-6.426-.079984-9.648-.106646-3.221-.039992-6.425-.066653-9.647-.093315s-6.443-.053323-9.665-.079985c-3.222-.026661-6.443-.053323-9.665-.066653-3.222-.026662-6.443-.0399927-9.683-.0533234-3.221-.0133308-6.46-.0266616-9.682-.0399923-3.239-.0133308-6.461-.0266615-9.7-.0266615-3.257 0-6.496 0-9.718-.0133308-3.239 0-6.479 0-9.718 0s-6.479 0-9.718.0133308c-3.239 0-6.478.0133307-9.735.0266615-3.239.0133307-6.496.0266615-9.736.0266615-3.257.0133308-6.496.0266615-9.7527.0399922-3.2568.013331-6.4961.039992-9.753.053323-3.2569.026662-6.5138.039992-9.7706.066654-3.2569.026661-6.5138.053323-9.7707.079985-7.5876.079984-15.1048.146638-22.7805.226623-6.0032.066653-12.9043.039992-17.9216 3.026079-2.94 1.74633-4.8942 3.45267-7.3236 5.57226-2.5175 2.21293-4.9469 4.47913-7.2532 6.81203-2.1653 2.1862-4.26031 4.4258-6.14401 6.7587-1.69006 2.1062-3.53856 4.1192-5.22861 6.2121-1.44359 1.773-2.904785 3.7593-2.7111331 5.9056.1232331 1.4797 1.3203531 3.026 2.1301731 4.3591.42251.6932.96826 1.3198 1.46119 1.973.47533.6265 1.00348 1.2264 1.60204 1.7863.35209.3333.7394.6532 1.23233.8398.95065.3866 2.18299.2133 3.04562.6666-.61617.0666-1.05629.5332-1.1267.9998-.07042.4665.12323.9331.33449 1.373.73939 1.5331 1.70761 2.9995 2.85201 4.3859 1.1443 1.3864 2.5879 2.5328 3.961 3.7859 1.6197 1.4797 3.2921 2.9061 5.035 4.2925 1.69 1.3331 3.4153 2.7861 5.4574 3.8793 3.4506 1.8396 7.4293 1.6663 11.4607 1.733 12.8163.2266 25.6678.6932 38.5016.6932 16.2668.2266 32.5508.3599 48.8178.3999 16.232.04 32.463-.0134 48.712-.1733 16.197-.16 32.393-.3999 48.59-.7599 4.577-.0933 9.312-.1599 13.907-.6399 2.271-.2399 4.067-.5065 5.968-1.493 2.87-1.4797 5.106-3.8659 7.342-5.8389 1.461-1.2797 2.887-2.5728 4.277-3.8926 1.268-1.1864 2.659-2.2395 3.152-3.7326.07-.2133.123-.4399.299-.6265.194-.2.493-.3333.775-.4666 2.024-.9598 3.292-2.7728 4.524-4.2658 2.183-2.6529 4.19-5.399 6.162-8.1451 1.496-1.9863 3.028-4.2925 2.341-6.6654z" fill="url(#b)"/><path d="m268.507 35.9797c-.387.5199-.757 1.0532-1.144 1.5731-.158.2132-.317.4265-.475.6398-1.162 1.5731-2.412 3.1194-3.785 4.5991-.74.7999-1.514 1.5731-2.324 2.3329-.757.6932-1.391 1.3998-2.518 1.7864-.193.0666-.387.1199-.581.1599-.651.1467-1.338.2-2.024.24-1.954.1333-3.891.2799-5.81.4132-.053 0-.105.0134-.158.0134-1.056.0799-2.095.1466-3.151.2266 1.408-.0533 2.816-.04 4.225.04 2.024.1066 4.014.3466 5.985.6932-.475.9465-1.179 1.8396-2.042 2.6128-2.746 2.4262-5.369 5.2657-8.908 7.1053-1.901.9865-3.714 1.2531-5.968 1.493-4.595.48-9.348.5466-13.908.6399-16.196.3466-32.392.5999-48.589.7599-7.887.0666-15.738.12-23.625.1599-1.954 0-3.891.0134-5.845.0134-6.408.0133-12.816.0133-19.242 0-16.284-.04-32.5511-.1733-48.8355-.3999-3.9787 0-7.975-.04-11.9536-.1067-8.8552-.1466-17.6928-.4132-26.5304-.5732-4.0139-.0667-8.0101.0933-11.4607-1.7463-2.0421-1.0798-3.785-2.5329-5.4574-3.8793-.1761-.1333-.3521-.2799-.5106-.4133-1.514-1.2264-2.9928-2.4795-4.4188-3.7726-1.1795-1.0664-2.3238-2.1329-3.5561-3.1727-.5106-.4532-.9507-.9598-1.3556-1.4797-.5457-.6932-1.1795-1.3731-1.3908-2.1729-.0352-.1333-.0528-.2933.0705-.3999.1056-.0933.264-.12.4225-.1333 2.8871-.3866 5.88-.1733 8.7143-.5999.581-.08 1.1443-.1867 1.6901-.3466-2.6231-.0134-5.2286-.0134-7.8517-.04-.6514 0-1.3204-.0133-1.9718-.0667-.2464-.0266-.4929-.0533-.757-.0933-1.1443-.2133-2.2006-.6799-3.0456-1.3197-.42251-.32-.7746-.6932-1.07389-1.0932-1.16191-1.653-2.34143-3.2926-3.38011-4.999-.80981-1.3331-2.00694-2.8794-2.13017-4.3591-.0176-.08-.0176-.1467-.0176-.2267-.03521-1.0131.28167-1.9996.80981-2.9461.84503-1.573 2.2182-3.066 3.3097-4.4258 1.8837-2.3329 3.97866-4.5724 6.14406-6.7587 2.3062-2.3329 4.7181-4.5991 7.2531-6.812.4578-.41325.9155-.79984 1.3556-1.1731 1.8485-1.5997 3.5914-2.98609 5.9504-4.39916 5.035-2.986086 11.936-2.959425 17.9216-3.026079 7.6933-.093315 15.2105-.146638 22.7982-.213292 3.2569-.039992 6.5137-.066654 9.7706-.093315 3.2569-.026662 6.5138-.039993 9.7706-.066654 3.2569-.013331 6.4962-.039992 9.7531-.066654 3.2572-.0133307 6.4962-.0266614 9.7532-.0399922 3.257-.0133307 6.478-.0266615 9.735-.0399923 3.257-.0133307 6.479-.0133307 9.736-.0133307 3.257-.0133308 6.496-.0133308 9.735-.0133308s6.479 0 9.718.0133308c3.222 0 6.461.0133307 9.7.0133307 3.222.0133308 6.461.0133308 9.683.0266615 3.239.0133308 6.461.0266616 9.682.0399923 3.222.0133307 6.444.0399927 9.683.0666537 3.222.013331 6.443.039992 9.665.066654 3.222.026661 6.443.053323 9.665.093315 3.222.026662 6.426.066654 9.647.093316 3.222.039992 6.426.066653 9.648.106646 3.221.039992 6.425.079984 9.63.119977 3.063.039992 5.95.18663 8.714 1.119783.37.11998.739.26662 1.109.41325 3.028 1.26643 5.545 3.1194 7.834 5.06569.528.45325 1.074.9065 1.584 1.37307.916.78652 1.796 1.59973 2.553 2.46623.916 1.0398 1.778 2.0929 2.57 3.186.212.2933.423.6799.124.9332-.124.1199-.317.1733-.511.2133-.017.0133-.053.0133-.07.0133-2.782.5599-5.651.8665-8.539.9065 1.286.16 2.571.3066 3.873.3999 1.708.1466 3.416.2266 5.123.24 1.233.0133 2.553.0133 3.609.4932.018.0133.036.0133.053.0267 1.285.5998 1.99 1.8796 2.711 2.8394.81 1.0798 1.62 2.1729 2.518 3.2261.651.7865 1.144 1.6796 1.602 2.5328.123.2.211.3866.317.5866.475.8665 1.038 1.7063 1.303 2.6128.704 2.3729-.828 4.6791-2.307 6.692z" fill="url(#c)"/><path d="m262.363 17.4765c-5.651.9732-13.186.3466-17.27.6132-4.577.3066-9.137.7732-13.697 1.2131-2.394.24-4.806.4666-7.218.6799-1.918.16-3.732.2533-5.527.7732-1.814.5199-3.785.3999-5.687.4532-2.394.0534-4.788.1333-7.183.2267-9.577.3732-19.153 1.0264-28.66 1.9729-4.753.4666-9.507 1.0131-14.225 1.6264-2.359.3066-4.718.6265-7.077.9731-1.179.1733-2.359.3466-3.538.5199-.617.0933-1.215.1866-1.831.28-.423.0666-1.145.2932-1.549.2399 2.394.3066 4.7 1.0131 6.707 2.0529-20.985 2.3862-42.146 3.9859-63.3419 4.7725-4.1371.1599-8.2918.2799-12.4113.0133-2.0246-.1333-4.0491-.3599-6.0209-.7199-2.7463-.5065-5.6863-.2533-8.5207-.2799-5.0877-.0533-10.1931-.1733-15.2809-.3733-9.0488-.3732-18.08-.8398-27.1289-1.2797-5.9856-.2933-12.97468-.0667-19.04832-1.1731-.03521-1.0132.28168-1.9997.80982-2.9461 6.6546-.5599 14.1542.3066 20.5095.3866 9.0489.1199 18.0801-.0134 27.1289-.1867 17.7104-.3599 35.4208-.1333 53.1487-.6798 12.447-.3866 24.735-1.4531 37.005-2.7728-8.151-.04-16.319-.28-24.488-.7599-17.746-1.0398-35.7024-2.7195-53.5008-2.0929-9.0312.3199-17.8512-.2133-26.8472-.7999-4.3836-.2933-8.908-.5465-13.2036-1.3464-3.5913-.6665-6.8658-1.9196-10.2811-2.9327 2.3062-2.3329 4.718-4.5992 7.2531-6.81207.4577-.41325.9155-.79984 1.3556-1.17311 1.9365-.21329 3.9082-.3466 5.9328-.33326 5.2462.03999 10.4396.69319 15.6506 1.15977 9.6298.90649 18.6962 2.69277 28.15 4.33247 9.753 1.6797 19.9461 2.2663 29.8756 3.1861 9.612.8931 19.224 1.533 28.907 1.773 17.763.4532 36.054-.5466 53.571-2.9328 17.041-2.3329 34.206-4.5991 51.511-5.43895 5.405-.26661 11.426-.97314 17.218-1.07979.915.78652 1.795 1.59974 2.552 2.46624.916 1.0398 1.779 2.0929 2.571 3.186.211.2933.422.6799.123.9332-.141.1333-.37.1866-.581.2266-2.782.5599-5.651.8665-8.538.9065 2.975.3866 5.985.6132 8.996.6398 1.232.0134 2.552.0134 3.609.4933.035 0 .053.0133.07.0133zm8.45 11.8111c-.264-.9065-.809-1.7597-1.302-2.6129-.106-.1866-.212-.3865-.317-.5865-2.218-.04-4.419-.04-6.62-.0533-8.908-.0667-17.816-.0267-26.724.1333-18.555.3332-36.424 2.4662-54.61 5.2123-3.978.5999-8.01.9731-12.024 1.4531-4.207.5065-8.415.9998-12.622 1.493-9.665 1.1331-19.348 2.2662-29.013 3.3727-4.841.5599-9.682 1.1064-14.524 1.653-2.412.2799-4.841.5466-7.253.8132-2.341.2666-4.753.6932-7.1122.7998 9.3132-.3599 18.6082.8265 27.7452 2.2263-7.412.4799-14.788 1.1731-22.147 2.0529-4.7355.5732-9.4536 1.2264-14.1541 1.9596-2.3414.3733-4.6652.8265-7.0067 1.1598-.7394.1066-1.4259.0667-2.1829.0667-1.8662-.0267-3.7323.6132-5.4751.9864-9.9819 2.1729-20.087 2.7062-30.3154 3.7726-7.0947.7466-14.1894.8932-21.2841 1.1465.176.1333.3521.2799.5105.4132 1.6901 1.3331 3.4153 2.7862 5.4575 3.8793 3.4505 1.8396 7.4468 1.6797 11.4607 1.7463 8.8375.16 17.6751.4266 26.5303.5732 17.059-1.9063 32.2163-7.7851 48.5363-12.0376 17.622-4.5992 36.178-7.3986 54.627-9.1449 11.109-1.0532 22.306-.9732 33.52-.7866-21.038 4.5992-38.907 13.1042-56.652 22.4757 1.954-.0133 3.891-.0133 5.845-.0133 16.513-8.6917 36.213-14.9038 55.842-17.1967 11.918-1.3997 24.101-.9198 36.125-1.1465 5.809-.1199 11.619-.2132 17.411-.3199 1.373-1.4797 2.623-3.0261 3.785-4.5991.158-.2133.317-.4133.475-.6399.388-.5199.775-1.0531 1.145-1.573 1.496-1.9996 3.028-4.3059 2.323-6.6787z" fill="url(#d)"/><path d="m257.874 27.5945c.476 1.1464 1.303 2.2129 2.412 3.0927.194.16.405.3333.405.5466 0 .12-.07.2399-.141.3466-.739 1.1064-1.461 2.1996-2.2 3.306-.37.5599-.74 1.1198-1.109 1.6797-.159.2399-.335.4799-.441.7465-.228.5332-.757.9598-1.214 1.4131-.863.8398-1.761 1.7463-2.747 2.5062-.405.3066-.862.4932-1.197.8398-1.003 1.0398-2.007 2.1196-2.887 3.226-.334.4266-.37.8399-.528 1.2931-.088.24-.246.4533-.458.6532-1.038 1.0132-2.5 1.7464-3.697 2.6395-1.056.7865-1.989 1.693-3.186 2.3596-3.028 1.7063-7.024 1.1731-10.774 1.4797-7.482.6265-15.052.0533-22.587-.1333-10.757-.28-20.651.9198-31.407.7998-5.211-.0533-10.422-.12-15.633-.1733.493.7065.986 1.4131 1.479 2.1196-4.982-2.0396-10.88-2.1862-16.531-2.2529-6.743-.0666-13.485-.0666-20.228-.0666-1.162 0-2.377.0133-3.38.4265-1.021.4266-1.725 1.3998-1.232 2.1996-.458-1.6663-3.345-2.0529-5.599-2.0663-20.5797-.1866-41.1596-.3599-61.7396-.5465-2.4118-.0267-4.8237-.04-7.2355-.1467-2.2886-.0933-4.5773-.2532-6.8307-.5465-1.1267-.1467-2.2358-.32-3.3449-.5466-.5457-.1066-1.0915-.2266-1.6372-.3599-.669-.16-1.1443-.3999-1.7253-.7065-.3521-.1867-.757-.3733-.9858-.6532-.9683-1.2265-2.1478-2.3863-3.3273-3.506-.8627-.8132-1.7781-1.5997-2.7112-2.3729-.4753-.3866-.9506-.7865-1.4259-1.1731-1.0915-.8798-1.8309-1.9196-2.6232-2.9728-2.7287-3.6659-4.9469-7.5319-7.1475-11.3978 5.792 5.5456 12.4642 10.8246 18.2561 16.3569 1.5493 1.4797 3.1689 3.0127 5.3871 3.8659 2.271.8798 4.9117.9598 7.4644 1.0265 61.6515 1.5463 123.4095 1.1864 185.0255-1.0532 3.416-.12 6.954-.2799 9.929-1.5463 2.43-1.0265 4.261-2.7062 5.933-4.3859 4.754-4.759 8.609-10.8112 11.619-16.3168z" fill="#eb924d"/><path d="m189.075 6.83885c-.511.53323-1.074 1.06646-1.831 1.3864-1.056.43992-2.342.41326-3.539.30661-.809-.06665-1.602-.1733-2.394-.29328 1.373-.37326 2.782-.62654 4.225-.75985.37-.03999.74-.06665 1.057-.18663.316-.11998.545-.33327.774-.53323.634-.54656 1.268-1.09312 1.937-1.61302s1.355-1.0398 2.059-1.53304c.194-.13331.388-.27995.599-.41325.106-.06666.211-.13331.299-.2133.071-.05332.159-.1333.264-.15997-.387.54657-.862 1.06646-1.302 1.5997-.441.53323-.898 1.05313-1.356 1.57303-.246.27994-.511.55989-.792.83983z" fill="#eb924d"/><path d="m259.951 29.7144c-.88-1.613-1.654-2.7728-2.552-3.8926-1.268-1.5997-2.694-3.2393-4.243-4.879-3.838-4.0526-8.169-9.4382-14.049-11.9044-.088-.03999-.193-.07999-.281-.10665-1.004-.3466-2.588-.42658-4.683-.45324-3.222-.04-6.408-.09332-9.612-.11998-3.204-.03999-6.408-.07998-9.612-.10665-3.222-.03999-6.409-.06665-9.63-.09331-.933-.01333-1.849-.01333-2.782-.02666-2.165-.02666-4.348 0-6.531-.10665-.968-.03999-1.919.05332-2.87 0-1.179-.06665-2.376-.14664-3.538-.33327 1.091-1.74633 2.165-3.49266 3.257-5.23899-1.18.97315-2.289 1.98629-3.31 3.06608-.493.5199-.968 1.07979-1.602 1.50637-.475.31994-.968.71987-1.567.89316-.546.14664-1.144.15997-1.725.1733-2.412.02667-4.859.11998-7.253-.02666-4.402-.26661-8.856-.1333-13.274-.14664-12.06-.03999-24.119-.06665-36.178-.03999-3.257.01333-6.479.01333-9.718.01333-6.478.01333-12.957.05333-19.4532.07999-3.2393 0-6.4961.02666-9.7354.03999-3.2569.02666-6.4962.03999-9.753.06665-9.0841 0-18.1681.15997-27.2522.26662-4.6652.05332-12.9747-.95982-16.971 1.39973-2.1477 1.27977-3.6089 2.55947-5.8623 4.53247-.4578.3999-.9155.8265-1.3732 1.2264-.2641.2266-.5986.3999-.8274.6532-.3169.3466-.5458.7199-.9507 1.0132-.3873.2932-.8626.5199-1.3732.6665-.7746.2133-1.6196.2533-2.447.2799-1.1267.04-2.2534.08-3.3801.12-.8979.0267-1.8309.0667-2.6055.3866 2.3766-.12 4.8061.16 7.0243.7999.088.0266.176.0533.2112.1199.0352.0667-.0176.1467-.0704.2133-.3345.4133-.7218.7865-1.1971 1.1065-.4401.3066-.7746.7865-1.1267 1.1464-.4577.4799-.9331.9732-1.3732 1.4531-1.0035 1.0931-1.9893 2.1996-2.8872 3.3327-.2816.3599-.5809.7198-.8978 1.0931-.4753.5732-1.1443 1.3731-1.514 1.933.1232.2132.2641.4265.3873.6132.2112.3199.4225.6398.6162.9465 1.4083 2.3195 3.0808 4.6257 4.9469 6.8386 1.69 1.9996 3.5209 3.9326 5.4046 5.7723 1.919 1.8529 3.9787 3.6526 6.1089 5.3323l.6338.4932c1.602 1.2797 2.8167 2.5595 5.2814 2.6128 13.9958.2933 28.0091.7732 42.0049.7732h.1937c11.1085.16 22.2344.2666 33.3434.3333 1.091 0 2.201-.0533 3.31-.0533h3.415c.282 0 .599.0133.757.1866.123.1333.088.3199.07.4799-.405 2.0129-.827 4.0392-1.232 6.0522 1.127-2.0663 2.271-4.1192 3.415-6.1855.071-.1467.159-.2933.317-.3866.176-.1067.423-.1333.669-.16 1.145-.08 2.306-.0666 3.451.04.493.0533.986.16 1.479.12.545-.04 1.109-.0267 1.654-.0267h7.306.37c5.845 0 11.707-.04 17.552-.0533 1.32 0 2.623.3733 3.715.9332 1.32.6665 2.376 1.5863 3.362 2.5195-.475-1.0798-.863-2.1729-1.162-3.2927 1.338-.0933 2.694-.2 4.032-.2933 1.074-.08 2.112.08 3.204.0667 2.728-.0267 5.457-.0667 8.204-.0667 16.09-.16 32.392-.4133 48.43-.7465l1.25-.0267c3.644-.08 9.612.4933 12.975-.7465.51-.1866.898-.5066 1.285-.8265 2.887-2.3729 5.722-4.8524 8.38-7.3853 1.637-1.5597 3.186-3.146 4.577-4.7057 1.849-2.0529 3.451-4.2125 5.352-6.8254.211-.2932.757-1.0264 1.056-1.5463-.053-.0534-.405-.6666-.546-.8932zm-10.633 6.8387c-1.32 1.4797-2.781 2.9727-4.331 4.4525-2.376 2.2795-5.087 4.6657-8.045 7.0919-.563.12-1.743.2666-4.102.2666-.915 0-1.813-.0133-2.676-.0399-.898-.0134-1.743-.04-2.517-.04-.317 0-.634 0-.933.0133l-1.25.0267c-16.003.3466-32.27.5865-48.343.7465-12.851.12-25.914.1866-38.836.1866-3.204 0-6.408 0-9.612-.0133-16.073-.04-32.4281-.1733-48.5716-.3999h-.2465c-10.1579 0-20.4743-.2533-30.4386-.4933-3.7146-.0933-7.4292-.1866-11.1438-.2666-.2464-.1733-.6338-.4932-.9154-.7199-.2113-.1866-.4401-.3599-.669-.5465l-.6338-.5066c-2.0245-1.5997-3.9434-3.2794-5.7567-5.0257-.5458-.5199-1.1972-.9998-1.6549-1.5464-.5633-.6798-1.1267-1.3597-1.7076-2.0262-.1233-.16-.2641-.3333-.1937-.5199.1056-.2533.5282-.32.8626-.3333 5.1054-.2933 10.2108-.5866 15.2986-.8665-4.9118-.3599-9.8235-.7199-14.7176-1.0798-1.0387-.08-2.095-.16-3.0456-.4532-.6866-.2133-1.3204-.5466-1.7429-.9998-.1936-.2-.3345-.4133-.5105-.6133-.2817-.2799-.4754-.5998-.6866-.9198-.2641-.3866-.5282-.7732-.7922-1.1731-.0528-.0666-.5106-.6399-.4577-.7065.2816-.3466.5633-.6666.8098-.9998 1.69-2.093 3.697-4.1992 5.2814-5.7856 2.0421-2.0662 4.2427-4.1325 6.5314-6.1321 2.0949-1.8397 3.3449-2.9461 5.0525-3.9459.1761-.1067 1.3028-.6399 5.5455-.6399 1.3204 0 2.6759.0533 3.9963.0933 1.2499.04 2.4294.08 3.5209.08h.4225c2.7288-.0267 5.4575-.0667 8.2039-.0933 6.2144-.08 12.6402-.16 18.9603-.16 3.3097-.0267 6.5489-.04 9.7882-.0666 3.2569-.0134 6.4785-.04 9.7354-.0667 6.4784-.0267 12.9394-.0667 19.4184-.08 3.239-.0133 6.478-.0133 9.7-.0133 3.31-.0133 6.654-.0133 9.964-.0133 18.556 0 37.428.0666 57.709.2132 3.221.0267 6.408.0534 9.629.0934 3.204.0266 6.408.0666 9.613.0933 3.204.0266 6.408.0666 9.612.1066s6.408.08 9.612.12c1.549.0133 2.218.0666 2.517.12 3.75 1.653 7.148 5.3323 10.141 8.5983.616.6666 1.214 1.3198 1.778 1.933.563.5999 1.531 1.2397 1.426 2.0662-3.275 1.1465-6.901 1.7197-10.51 1.6664 3.908.04 7.816.2399 11.689.6132.264.0267.546.0533.792.1466.599.24.775.7732 1.127 1.1598.176.1733.405.28.564.4533.088.1066.598.7865.528.8798-1.708 2.3062-3.187 4.2658-4.789 6.0655z" fill="url(#e)"/><g fill="#eb924d"><path d="m256.748 48.6838c-.476.9465-1.18 1.8396-2.043 2.6128-2.746 2.4262-5.369 5.2657-8.908 7.1053-1.901.9865-3.714 1.2531-5.968 1.4931-4.594.4799-9.348.5465-13.907.6398-16.197.3466-32.393.5999-48.589.7599-7.887.0666-15.739.12-23.626.16-1.954 0-3.891.0133-5.845.0133-6.408.0133-12.816.0133-19.242 0-16.284-.04-32.551-.1733-48.8354-.3999-3.9786 0-7.9749-.04-11.9536-.1067-8.8552-.1466-17.6927-.4132-26.5303-.5732-4.0139-.0667-8.0102.0933-11.4607-1.7463-2.0422-1.0798-3.785-2.5329-5.4575-3.8793-.176-.1333-.3521-.2799-.5105-.4132-1.514-1.2265-2.9928-2.4796-4.4188-3.7726-1.1795-1.0665-2.3238-2.133-3.5562-3.1728-.5105-.4532-.9506-.9598-1.3555-1.4797-.5458-.6932-1.1796-1.3731-1.3908-2.1729-.0352-.1333-.0528-.2933.0704-.3999.1056-.0933.2641-.12.4225-.1333 2.8872-.3866 5.88-.1733 8.7144-.5999.4929-.0133 1.0034-.04 1.514-.0667-2.2358.5733-4.5421.9598-6.8835 1.1731-.5281.04-1.1091.1067-1.4788.3866-.6866.5466-.3169 1.3198.088 1.853.3521.4666.7218.9198 1.1267 1.3597.8099.8932 1.6901 1.733 2.6408 2.5196 1.4964 1.2664 3.116 2.4395 4.7356 3.6259 1.1443.8265 2.2887 1.653 3.433 2.4796.7922.5865 1.5844 1.1597 2.5174 1.613 1.5669.7732 3.4154 1.1464 5.211 1.493.8803.1733 1.7781.3333 2.676.4666.3168.04.6337.1066.9682.0933s.669.0267 1.0211.0533c.7746.0667 1.5844.12 2.3766.1333 1.5845.0667 3.1865.0667 4.7885-.0133 1.2852-.0533 2.5175-.0933 3.7146-.3866.5986-.1466 1.2148-.04 1.8133.0267 1.6197.16 3.2217.3333 4.8413.4932.9507 0 1.8837.2933 2.852.24.2817-.0134.5457-.08.8274-.08.1761-.0133.3697.0133.5458.0266 1.0915.12 2.1653.32 3.2568.44 1.3908.1466 2.9576.2932 4.3484.04.1056-.0134.1937-.0534.3169-.08.3169-.08.7042-.0267 1.0387-.0267 2.0245.04 4.0491.0667 6.0912.0933 4.0491.0667 8.1158.1333 12.1825.1867 4.0667.0666 8.151.1333 12.2175.1866 2.025.04 4.049.0933 6.074.0933.282 0 .51-.04.774-.0933.652-.1733 1.409-.16 2.095-.2.81-.04 1.62-.0933 2.43-.12 3.239-.1599 6.478-.2399 9.718-.2799 3.257-.04 6.496-.04 9.753-.0133 3.239.0266 6.478.0933 9.735.1333.722.0133 1.426.0266 2.148.04 1.989.04 3.943.0666 5.933.1199.545.0134 1.126-.0133 1.672.0934.528.1066.968.1866 1.532.1599 1.619-.04 3.257-.0799 4.894-.1199 3.257-.0667 6.531-.1334 9.788-.2 3.257-.0667 6.531-.12 9.788-.16.898-.0133 1.796-.0266 2.694-.04 18.943-.2533 37.322-.8931 56.282-.9731 1.866-.0133 3.785-.0267 5.493-.5732 1.672-.5333 3.116-1.693 3.186-3.0394.036.3466.546.6132 1.039.5865.546-.0267 1.004-.2933 1.426-.5466 3.01-1.7996 6.127-3.7192 7.711-6.3721-1.444-.5865-2.958-1.0664-4.507-1.4663 1.989.1199 3.979.3599 5.951.7065z"/><path d="m258.825 15.1837c-.123.12-.317.1733-.511.2133-1.883-2.1462-3.767-4.2791-5.651-6.4254-.951-1.07979-1.655-2.05293-3.134-2.66615-1.179-.49324-2.218-1.11978-3.52-1.41306-.564-.13331-1.198-.23995-1.55-.59988-.193-.19997-.264-.46658-.405-.6932-.669-1.06647-2.271-1.02647-3.521-1.39973-.404-.13331-.721-.18663-1.179-.2133-1.215-.05332-2.447-.09331-3.662-.14663-2.447-.10665-4.876-.2133-7.323-.31994-4.278-.18663-8.556-.35993-12.817-.546564-2.341-.093316-4.718-.199962-7.077-.186631-2.324.013331-4.647.146638-6.971.079985-.722-.026662-1.479-.013331-2.166-.186631-.686-.1733-1.408-.093315-2.112-.079985-1.743.026662-3.486.066654-5.211.093316-4.877.079984-9.753.266615-14.63.266615-.915.013331-1.866.039992-2.676.359935-.845.33326-1.179.8665-1.25 1.54636 0 .09332 0 .2133-.07.29328-.141.13331-.352.09332-.546.02666-.669-.19996-1.267-.70653-1.76-1.09312-.37-.27995-.704-.58655-1.057-.87983-.228-.18663-.316-.33327-.651-.3466-.299 0-.634.079984-.915.106646-1.18.119974-2.377.199964-3.557.239954-1.179.02666-2.376.01333-3.556-.03999-.545-.02666-1.126-.02666-1.655-.13331-.334-.066654-.633-.186631-.985-.213293-1.198-.066654-2.43.013331-3.627.026662-1.215.013331-2.447.026661-3.662.039992-4.894.053323-9.788.093315-14.665.146639-2.13.02666-4.26.03999-6.372.06665-1.11.01333-2.219.10665-3.222.47991-1.461.53323-.475 1.93296-.704 2.85278-.141-1.1731-.476-2.54617-1.902-3.01275-.528-.1733-1.126-.1733-1.69-.18663-.07 0-.141 0-.211 0-2.447-.01333-4.876-.03999-7.324-.05332-4.031-.02666-8.01-.15997-12.041-.199964-11.2848-.119976-22.5518.093314-33.8365.159974-4.8941.02666-9.8058.06665-14.6999.09331-1.2148.01333-2.4471.01333-3.6794.01333-6.0209.03999-12.2001.10665-17.816 1.74633-1.6901.49324-3.1689 1.19977-4.5245 2.0796-.6161.38659-1.1267.8665-1.514 1.3864 1.919.66654 3.9611 1.09312 6.0561 1.27975-1.0563.26662-2.183.27995-3.2921.29328-1.426.01333-2.852.03999-4.2956.05332-.5105 0-1.0211.01333-1.5316.10665-.8802.15997-1.6196.58655-2.2534 1.06646-.3169.25328-.669.5199-.9154.82652-.1761.2133-.2289.4666-.3874.6799-.5281.7198-1.3731 1.373-2.0597 2.0129-.7394.7065-1.4612 1.4131-2.183 2.1196-3.8906 3.7593-7.85171 7.5985-10.19314 12.051-.51054.9731-.93305 1.9596-1.21473 2.9728-.28168.9731 1.61964 1.1997 2.83436 1.5997 1.19713.3999 2.53511.6132 3.59141 1.1997-1.39081-.1866-2.78159-.2933-4.20757-.2933-.24647 0-.52814.0134-.68659.16-.21125.1866-.10563.4666.01761.7065.31688.5733.58095 1.0932 1.00347 1.5997.21126.2667.28167.5466.35209.8399.17605.6665.44012 1.3197.80982 1.9329.7218 1.2531 1.81327 2.3596 3.16887 3.2661.7394.4799 1.5316.8931 2.3942 1.2264-.2464-.0267-.4929-.0533-.757-.0933-1.1443-.2-2.2006-.6666-3.0456-1.3064-.42251-.32-.7746-.6932-1.07388-1.0932-1.16192-1.653-2.34143-3.2926-3.38011-4.999-.80982-1.3331-2.00695-2.8794-2.13018-4.3591-.0176-.08-.0176-.1467-.0176-.2267-.03521-1.0131.28167-1.9996.80981-2.9461.84503-1.573 2.2182-3.066 3.3097-4.4258 1.8837-2.3329 3.97866-4.5724 6.14406-6.7587 2.3062-2.3329 4.7181-4.5991 7.2531-6.812.4578-.41325.9155-.79984 1.3556-1.1731 1.8485-1.5997 3.5914-2.98609 5.9504-4.39916 5.035-2.986086 11.936-2.959425 17.9217-3.026079 7.6932-.093315 15.2104-.146638 22.7981-.213292 3.2569-.039992 6.5137-.066654 9.7706-.093315 3.2569-.026662 6.5138-.039993 9.7707-.066654 3.2568-.013331 6.4961-.039992 9.753-.066654 3.2572-.0133307 6.4962-.0266614 9.7532-.0399922 3.257-.0133307 6.478-.0266615 9.735-.0399923 3.257-.0133307 6.479-.0133307 9.736-.0133307 3.257-.0133308 6.496-.0133308 9.735-.0133308s6.479 0 9.718.0133308c3.222 0 6.461.0133307 9.7.0133307 3.222.0133308 6.461.0133308 9.683.0266615 3.239.0133308 6.461.0266616 9.682.0399923 3.222.0133307 6.444.0399927 9.683.0666537 3.222.013331 6.443.039992 9.665.066654 3.222.026661 6.443.053323 9.665.093315 3.222.026662 6.426.066654 9.647.093316 3.222.039992 6.426.066653 9.648.106646 3.221.039992 6.426.079984 9.63.119977 3.063.039992 5.95.18663 8.714 1.119783.37.11998.739.26662 1.109.41325 3.028 1.26643 5.546 3.1194 7.834 5.06569.528.45325 1.074.9065 1.585 1.37307.915.78652 1.795 1.59973 2.552 2.46623.916 1.0398 1.778 2.0929 2.571 3.186.193.28.404.6666.123.9198z"/><path d="m212.595 18.9962c-3.222-1.3597-8.574-.9465-11.127.8932-1.602 1.1597-1.69 3.3193 0 4.4658 3.715 2.5328 10.246 1.453 12.605-1.6797.053-.0267.088-.0667.141-.0933 1.796-1.2398.511-3.2794-1.619-3.586z"/></g><path d="m213.352 17.7967c-3.222-1.3597-8.574-.9465-11.127.8932-1.602 1.1598-1.69 3.3194 0 4.4658 3.715 2.5328 10.246 1.4531 12.605-1.6797.053-.0266.088-.0666.141-.0933 1.796-1.2398.511-3.2794-1.619-3.586z" fill="url(#f)"/><path d="m212.595 18.5699c-3.222-1.3597-8.574-.9465-11.127.8932-1.602 1.1598-1.69 3.3193 0 4.4658 3.715 2.5328 10.246 1.453 12.605-1.6797.053-.0266.088-.0666.141-.0933 1.796-1.2398.511-3.2794-1.619-3.586z" fill="url(#g)"/><path d="m255.797 31.434c-2.254 3.1993-4.648 6.2521-7.218 9.1315-2.8 3.1594-5.81 6.1188-9.049 8.8117-.652.5332-1.567.8531-2.535.8665-64.962 1.4397-130.856 1.3064-197.6312-.32-.9331-.0266-1.8309-.3333-2.4647-.8398-7.394-5.9322-13.8021-11.971-17.8336-18.3032-.5281-.8265-.4225-1.7996.2289-2.5728.6689-.7865 1.3555-1.5597 2.0597-2.3195 4.7709-5.1591 10.422-9.9448 16.7949-14.4639.6514-.4399 1.4964-.7066 2.3591-.7199 65.7709-.98646 131.0849-.86648 195.9759.3333 1.004.0266 1.954.3599 2.606.9465 6.813 6.0121 12.763 11.771 16.671 16.8767.599.7865.616 1.7597.036 2.5729z" fill="#e48a4a"/></svg>