<svg fill="none" height="64" viewBox="0 0 197 64" width="197" xmlns="http://www.w3.org/2000/svg" xmlns:xlink="http://www.w3.org/1999/xlink"><linearGradient id="a"><stop offset="0" stop-color="#cf5c2b"/><stop offset="1" stop-color="#59173e"/></linearGradient><linearGradient id="b" gradientUnits="userSpaceOnUse" x1="55.8404" x2="81.1055" xlink:href="#a" y1="-79.172" y2="-2.55406"/><linearGradient id="c" gradientUnits="userSpaceOnUse" x1="88.3062" x2="113.012" xlink:href="#a" y1="-23.9113" y2="119.811"/><linearGradient id="d" gradientUnits="userSpaceOnUse" x1="89.2629" x2="120.854" xlink:href="#a" y1="-21.0658" y2="158.764"/><linearGradient id="e" gradientUnits="userSpaceOnUse" x1="98.0071" x2="98.0071" xlink:href="#a" y1="73.5924" y2="43.7561"/><path d="m3.58139 25.0717c1.42643-1.6146 3.14397-2.9967 4.86151-4.3788.8151-.6588 1.6302-1.3046 2.4453-1.9505 1.572-1.2529 3.1294-2.5058 4.7014-3.7588.6841-.5425 1.3828-1.3175 2.2124-1.6792.7715-.3487 1.3828-.8783 2.0523-1.3692 3.0712-2.24752 6.2589-4.36589 9.5775-6.31634 2.6345-1.56295 5.4001-3.0484 8.4858-3.69424 1.3537-.28417 2.751-.41334 4.1337-.52959 1.9941-.18084 3.9882-.34876 5.9823-.529597 1.0043-.090418 2.0232-.180837 3.0275-.271255.4076-.038751.786-.077502 1.179-.180837.655-.16792 1.31.077502 1.9796-.012917 1.2663-.155003 2.5617-.116252 3.8426-.129169 1.4119-.012917 2.8092-.038751 4.2211-.051668 5.6038-.064584 11.2076-.116252 16.826-.1550025 5.5748-.0387507 11.1495-.0516676 16.7388-.0645845 5.5598 0 11.1348 0 16.6948.0258338 5.546.0258338 11.091.0645846 16.623.1291692 5.516.051668 11.047.129169 16.564.219587 5.502.090419 11.003.193754 16.505.310006 5.473.116252 10.961.258338 16.433.400424 2.868.0775 5.735.16792 8.603.24542.233.01292.495-.01292.713.03875.247.05167.48.14209.713.21959.48.155.975.32292 1.441.51668.903.3875 1.761.90418 2.344 1.64044.334.42626.567.90419.873 1.33045.16.21958.364.3875.495.62001.626 1.11085 1.266 2.24754 2.125 3.22922.844.96877 1.106 2.49292 1.004 3.66842-.131 1.6017-.174 3.2292-.335 4.8309-.262 2.5576-.014 5.1151-.334 7.6856-.044.3746-.117.775-.422 1.0204-.219.1679-.51.2325-.786.2842-.917.1808-1.82.3487-2.737.5296 1.121.6458 2.809.6975 3.406 1.7696.189.3487.218.7363.262 1.1238.102 1.3692.248 2.7383.349 4.1075.044.6201.088 1.2271.102 1.8472.029.5941.073 1.1496.146 1.7308.145 1.3563.538 3.1259.073 4.4564-.452 1.2787-2.256 1.3433-3.508 1.6533.655.0646 1.164.5425 1.543 1.0205.189.2454.334.5037.509.7491.16.2196.306.4392.451.6717.262.465.481.943.641 1.4467.102.3359.16.5942.174.9429.015.3101.03.6201.044.9301.029.62.044 1.24.058 1.86.029 1.24.044 2.493.029 3.733-.014 1.2013.306 2.3767-.262 3.5521-.567 1.1755-1.557 2.1959-2.78 2.8547-.989.5425-2.125.8267-3.289.8783-13.61.6588-27.262.943-40.886 1.2271-13.872.2842-27.743.4521-41.614.4909-13.9735.0387-27.9467-.0388-41.9199-.2455-4.7305-.0645-9.4465-.31-14.1479-.0387-4.3229.2454-8.6895.1421-13.0125-.1163-3.7698-.2325-7.1321-.2195-10.0869-2.635-6.5354-5.3218-13.4492-10.2689-19.98457-15.5778-1.68843-1.3692-3.53697-2.9192-4.9634-4.5984-1.47009-1.7309-2.838303-3.6297-3.391409-5.7739-.2474419-.9429-.407551-1.9117-.2328863-2.8546.0727773-.4004.2037753-.7879.3638853-1.1625.130999-.323.378441-.6717.422107-1.0205.087332-.7104.392993-1.3821.742323-2.0279.524-1.0205 1.19355-2.0021 1.97954-2.8676z" fill="url(#b)"/><path d="m.969872 34.9937c.175708.2788.351418.5576.512488.8098.05857.0929.11714.1858.17571.2655.08785.0929.17571.1858.29285.2522.23427.1328.54177.1062.80533.0929.02929 0 .05857 0 .08785-.0132 4.33417-.3319 8.7855-1.3807 12.9439-.2124-1.1128.4381-2.3574.5443-3.5581.6372-3.14811.2389-6.29624.4779-9.44436.7168.02928.0266.05857.0399.08785.0664.32213.2788.65891.5576.99569.8231.55641.4646 1.02497 1.0222 1.56674 1.5134.80533.7168 1.63995 1.4072 2.45993 2.0842.23428.1859.45391.385.70284.5841.23428.1991.4832.3983.73212.5841 2.12319 1.7524 4.27559 3.4914 6.44269 5.1907.7028.5575 1.4203 1.1151 2.1524 1.6461.7614.5841 1.5228 1.155 2.2989 1.7258 3.8363 2.8144 7.8776 5.4561 12.1386 7.7262.1464.0797.2928.1593.4539.239.3221.1593.5857.3319.8932.4115.1464.0266.2782.0398.4393.0398h.1464c.2635-.0132.5417-.0132.8053-.0132 2.2257-.0266 4.4806.1062 6.7063.1725 3.3677.0664 6.7501.1461 10.1179.2124 3.9095.0797 7.8044.1461 11.7139.1992 3.4849.0398 6.9698.0929 10.4694.1327 2.9724.0266 5.9448.0531 8.9172.0664 1.9036.0133 3.8071.0265 5.7106.0398 3.1188.0133 6.223.0133 9.3272.0133 1.801 0 3.5871 0 5.3881-.0133h2.153c1.083 0 2.152-.0133 3.236-.0133.424 0 .849 0 1.274-.0132 3.177-.0133 6.354-.0399 9.517-.0664 1.084-.0133 2.153-.0133 3.222-.0398 2.181-.0133 4.378-.0399 6.559-.0797 1.304-.0133 2.592-.0265 3.91-.0531 3.338-.0398 6.648-.1062 9.971-.1726 1.333-.0132 2.651-.0398 3.969-.0663 1.669-.0399 3.338-.0664 5.007-.1328 1.479-.0265 2.943-.0664 4.422-.1062 3.207-.0796 6.414-.1726 9.606-.2655.556-.0133 1.113-.0265 1.684-.0398.702-.0133 1.42-.0399 2.137-.0664 2.299-.0664 4.598-.146 6.897-.2257 1.025-.0398 2.05-.0664 3.09-.1195 2.694-.1327 5.417-.292 8.111-.292 2.665 0 5.155-1.7258 6.136-3.9162.439-.9559.541-2.0179.468-3.0533-.014-.1859-.029-.3585-.088-.5443-.087-.2788-.234-.531-.263-.8098-.059-.3585-.088-.7169-.117-1.0753-.03-.3452-.059-.6903-.074-1.0488-.014-.2655-.043-.5443-.073-.8098-.029-.3451-.073-.7036-.161-1.0487-.014-.1195-.058-.239-.088-.3452-.029-.0929-.058-.1858-.102-.2655-.059-.1593-.132-.3053-.234-.4513-.074-.1195-.147-.2124-.249-.3186-.088-.093-.191-.1859-.308-.2656-1.977-1.3408-5.828-1.3275-8.712-1.3806-.557-.0133-1.084-.0265-1.552-.0531-1.245-.0664-2.489-.0929-3.749-.0929 2.958-.0133 5.93-.239 8.844-.7036 1.391-.2124 2.768-.4779 4.13-.7965.336-.0664.673-.1726.995-.3054.425-.1725.806-.4248.996-.8097.161-.3319.146-.6904.146-1.0355-.014-.3319.044-.6771.015-1.0089-.029-.7169-.132-1.4072-.205-2.1241-.073-.5708-.146-1.1549-.19-1.7258-.103-1.5399-.205-3.0666-.337-4.5932-.044-.4647-.103-.9691-.454-1.301-.22-.1991-.498-.2921-.776-.385-.762-.2522-1.538-.4381-2.343-.5576-.366-.0663-.776-.0663-1.127-.1593-.425-.1194-.747-.1991-1.201-.2389-4.378-.4647-8.742-.9293-13.105-1.3807-.513-.0531-1.054-.1062-1.567-.1593 6.589-.7301 13.178-1.4602 19.768-2.1904.292-.0398.585-.0664.863-.1062.279-.0265.586-.0664.762-.2655.132-.1593.146-.3584.176-.5575.292-3.2259-.044-6.558.161-9.8238.014-.0929.014-.3584.044-.7434.014-.1858.014-.4115.043-.6372 0-.0797 0-.1859.015-.2655.015-.146.015-.2921.029-.4381v-.0664c.015-.1593.015-.3053.03-.4646.014-.1593.014-.3186.029-.4779.029-.53103.073-1.03549.102-1.43375.015-.13275.015-.25223.03-.35843 0-.03983.014-.09293.014-.13275.015-.11948.015-.19913.03-.25223.014-.03983.014-.06638.014-.06638.278-3.58433-2.752-6.67748-6.721-6.79695-2.035-.06638-4.07-.13276-6.106-.18586-2.65-.07965-5.3-.1593-7.95-.212403-8.552-.238955-17.117-.411534-25.712-.557562-2.255-.039826-4.51-.066377-6.765-.106203-8.947-.132753-17.923-.212404-26.928-.2655055-2.328-.0132753-4.656-.0132753-6.984-.0265506-2.841-.0398259-5.623-.0398259-8.4196-.0398259-5.3884 0-10.8061.0132753-16.2092.0398259-.5271 0-1.0542.0132753-1.5814.0132753-4.7148.0265506-9.4444.0663768-14.1592.1062028-3.3824.039825-6.7648.079651-10.1619.132753-2.8113.039825-5.6373.079651-8.4487.132753-1.5228.02655-3.031.066376-4.5684.079651-.2782.013276-.5564.013276-.8346.013276-.2636 0-.5418 0-.8054-.013276 0 0 0 0-.0146 0-.5564 0-1.1128-.013275-1.6839-.039826-.1611 0-.3075-.013275-.4686-.013275-.7614-.039826-1.4203.013275-2.0353.159304-.0146 0-.0439 0-.0585.013275-1.0689.238955-2.006.703591-3.1189 1.261151-.1025.0531-.205.09293-.3075.15931-4.2609 2.12404-8.3754 4.5136-12.2703 7.15538-3.6899 2.50902-7.2041 5.23042-10.4987 8.15102-.2489.2124-.4978.4381-.7321.6638-2.34277 2.124-4.56842 4.341-6.79407 6.558-.36606.3717-.73213.7434-1.09819 1.1284-.80533.8363-1.56674 1.7258-2.18172 2.7081-.439275.6771-.790694 1.4072-.995689 2.1772-.102497.3584-.146424.7434-.248921 1.1018-.380704 1.1284.204995 2.2701.849262 3.3056z" fill="url(#c)"/><path d="m4.17007 24.6473c2.22315-2.1782 4.44629-4.3695 6.78643-6.4821.234-.2099.4827-.433.7313-.656 8.2929-.0788 16.5858-.433 24.8787-.9579 18.9991-1.1941 37.9543-2.7949 56.9534-4.0808 18.9841-1.299 37.9831-2.3881 57.0261-2.4668 9.61-.03938 19.19.2362 28.755.866 4.885.328 9.814.4199 14.699.8004-.059 1.0235-.102 1.9289-.132 2.0994-.204 3.2148.147 6.5083-.161 9.7099-.014.1969-.043.3937-.175.5511-.015.0132-.015.0263-.044.0394-4.051.5249-8.205.6036-12.3.6298-9.58.0657-19.146-.4067-28.726-.3674-2.515.0132-5.06.0394-7.59.0919-1.258.0262-2.516.0525-3.789.0787-.702.0131-1.491-.0525-2.193.0919-.893.1837-1.858.1312-2.779.1049-2.077-.0393-4.154-.223-6.246-.3805-1.96-.1574-3.905-.3018-5.879-.328-7.474-.0656-14.831 1.7058-22.29 1.7845-2.004.0262-4.0224-.0656-5.9969.2362-1.17.1837-2.2962.5117-3.4517.761-1.9599.433-3.9636.6561-5.982.6824-1.0092.0131-2.033-.0132-3.0422-.1181-.9799-.105-1.9891.0131-2.969.0524-4.2269.1969-8.4685.3675-12.6954.4987-3.32.1049-6.6401.1837-9.9602.2362 15.2695 1.194 30.5243 2.3356 45.7934 3.4378 7.84.5642 15.709 1.1809 23.577 1.1809 8.513 0 17.01-.9054 25.552-.4855 7.532.3805 15.152.9448 22.626 1.9026 5.821.748 12.023 2.3225 18.078 2.7687.073.6954.175 1.3908.205 2.0994.014.328-.03.6692-.015.9972.015.3412.015.6955-.146 1.0235-.19.3805-.556.6298-.995.8004-.307.1312-.658.2362-.994.3018-1.361.3149-2.735.5774-4.125.7873-2.296-.0787-4.592-.2099-6.83-.4592-6.611-.7217-13.895-.971-20.637-2.1913-1.419-.0788-2.838-.1575-4.242-.2362-7.825-.4855-15.562-1.8108-23.255-3.1623-4.944-.8791-9.946-1.5352-14.963-2.0601-.643-.0656-1.257-.2362-1.901-.2755-.512-.0394-1.053-.0787-1.565-.1181-2.091-.1443-4.183-.2624-6.289-.3543-4.183-.1837-8.3953-.2624-12.5929-.3018-4.2123-.0394-8.4099-.0131-12.6076-.0131-4.2122.0131-8.4099 0-12.6075-.0656-4.1977-.0525-8.4099-.1837-12.5929-.4068-1.331-.0656-2.6473-.1574-3.9637-.2493 3.5249-.7348 7.0936-1.2597 10.677-1.5746-6.5963-.4986-13.178-1.2465-19.7012-2.2175-4.066-.6167-8.132-1.3121-12.2419-1.732-2.0476-.21-4.1099-.3543-6.1721-.3674-1.0238-.0132-2.0476 0-3.0861.0656-.9214.0393-1.9014.2624-2.8228.1705-.6582-.0656-1.2724-.3017-1.9306-.3542-1.0531-.0788-2.0915-.1575-3.1446-.2362-2.0915-.1575-4.183-.3412-6.28913-.538-.55579-.0525-1.1262-.105-1.69661-.1706-1.21395-.1312-2.45716-.223-3.70036-.328.42415-.3805.80443-.7479 1.17007-1.1153zm13.04633 14.2368c10.4575-.643 20.959-.538 31.4311-.1575 2.1793.0787 4.3147.1312 6.4793.3674 1.0384.1312 2.0769.2362 3.13.3543 4.183.4461 8.366.8004 12.5636 1.0891 1.6381.1181 3.2762.2099 4.8997.3018-4.2415-.0263-8.483-.0525-12.7245-.0788-4.2416-.0262-8.4831-.0656-12.7246-.0918-2.1208-.0131-4.2415-.0263-6.3623-.0394-1.0677-.0131-2.1207-.0131-3.1738-.0262-.4534 0-.9068.0262-1.3456-.0656-.2633-.0525-.5265-.1575-.8044-.1837-.9507-.1312-2.0184.0393-2.9691.0918-1.053.0525-2.1061.105-3.1446.1575-2.1061.1181-4.2122.2493-6.3184.3936-3.3054.2231-6.6255.4724-9.931.7348-2.7058.2231-5.3969.4855-8.0881.7742-.01462-.0131-.01463-.0131-.01463-.0131-.23401-.1837-.4534-.3674-.68741-.5511-.83368-.6692-1.66736-1.3515-2.45716-2.0601 4.05138-.3805 8.132-.7348 12.2419-.9972zm69.1953 7.5186c18.5893-.3281 37.1353-1.2859 55.7243-1.2203 9.8.0262 19.599.1706 29.384.433 7.225.1837 14.538.1574 21.749.8266.146.4331.204.9185.248 1.3778.073.8135.103 1.6402.205 2.4537-8.03.2887-16.147-.1968-24.162-.2099-9.799-.0131-19.584.0656-29.383.2755-18.561.3937-37.092 1.3122-55.6521 1.614-18.8821.3018-37.7202-.9185-56.5584-1.7583-3.4956-.1575-7.0059-.2624-10.5307-.328-.7167-.5249-1.4333-1.076-2.15-1.6271-2.1793-1.6664-4.3147-3.3854-6.43543-5.1305 7.00583.6036 14.02623 1.194 21.06133 1.5352 18.8236.9185 37.6618 2.0863 56.5 1.7583z" fill="url(#d)"/><path d="m.927589 34.4128c.0586.1045.102551.209.131851.3265.04395.1567.04395.3135.10255.4702.16115.4311.5567.849 1.1134.7837.21976-.0261.62996-.0261.80576-.1045-.04395-.2351-.27835-.4832-.39555-.6922-.10255-.196-.2051-.3919-.27835-.5878-.19046-.4441-.33696-.9013-.45416-1.3715-.2051-.9012-.27835-1.8156-.27835-2.7299 0-1.0449.16115-2.1421.86436-2.978 1.27455-1.4629 3.69181-1.5021 5.75747-1.4107 1.80193.0784 3.58923.1698 5.37653.2482-2.6077-.2613-5.23003-.5356-7.83774-.8098 1.0548-1.3585 2.12426-2.7299 3.17906-4.0883.99618-1.267 2.05098-2.6124 3.60388-3.3177 1.3039-.5878 2.7982-.6792 4.2486-.7706 3.5746-.209 7.1345-.418 10.7238-.627-3.853-.1698-7.7352-.3265-11.5003-1.058 1.2453-1.1102 2.5198-2.1682 3.8383-3.187 1.8752-1.463 3.8383-2.86055 5.86-4.16672 2.0217-1.31923 4.1021-2.54703 6.241-3.69645 1.0694-.57472 2.1535-1.13637 3.2523-1.65883.5274-.26124 1.0987-.48328 1.6115-.77064.1465-.09143.293-.19593.4688-.24817.1318-.03919.2637-.03919.3955-.03919.7032-.02612 1.4211-.01306 2.1243-.02612 2.1096-.01306 4.2192-.02612 6.3288-.02612.6593 0 1.3332-.00001 1.9924-.01307h3.8383c1.7727-.01306 3.56-.01306 5.3327-.01306h.2637c2.8421-.02612 5.6695-.02612 8.4823-.02612 1.4065 0 2.8129 0 4.2193-.01306.6446 0 1.3624.07837 1.9924-.02613.6446-.10449 1.1573-.45715 1.8459-.5094.6153-.03919 1.2452.03918 1.8459.09143 1.5382.11755 3.0765.23511 4.6001.39185.6886.06531 1.4504.1698 1.9192.62696.1611.15674.2783.35266.4688.48328.4395.2743 1.0255.10449 1.5236-.06531.9962-.31348 2.051-.49634 3.1058-.52246.9522-.03919 1.9045.11755 2.8567.0653.6007-.03918 1.172-.15673 1.758-.26123 2.3148-.40491 4.7467-.43103 7.1053-.57471 1.7437-.11756 3.4867-.19593 5.2297-.24817 5.641-.18287 11.281-.09143 16.907.13061 2.812.1045 5.64.23511 8.453.39185 1.289.06531 2.725.31348 3.999.15674.366-.03918.703-.18286 1.084-.23511.396-.06531.777-.05224 1.158-.03918 1.567.01306 3.135.01306 4.688.02612 1.831.01306 3.662 0 5.508 0 .615 0 1.216.11756 1.817.11756.556 0 1.113-.1045 1.655-.1045 1.157.01306 2.315.20899 3.399.60084.41.15674.835.32654 1.289.30042.821-.03919 1.392-.73145 2.124-1.04493 1.773-.757582 3.59.6792 5.392.10449.893-.28736 1.816-.24817 2.754-.26123 1.201-.01307 2.417-.01307 3.618-.01307 4.088.01307 8.175.14368 12.233.50941 2.022.18286 4.044.43103 6.051.74451.967.15674 1.963.40491 2.93.50941.307.03918.527.02612.805.19592 1.202.75758 4.498 4.93731 2.154 6.41328-.777.4702-1.773.4833-2.71.4702-6.007-.0783-12.028-.1567-18.049-.222 6.49.4571 12.994.9143 19.484 1.3845.425.0261.85.0653 1.231.2351 1.245.6009.82 2.0115.982 3.0303.234 1.3323-.044 2.7691-.206 4.1014-.19 1.7111-.424 3.4221-.703 5.1202.293-.0392.586-.0653.865-.1045.278-.0262.586-.0653.761-.2613.132-.1567.147-.3526.176-.5486.293-3.1739-.044-6.4524.161-9.6656.015-.0914.015-.3527.044-.7314.015-.1829.015-.405.044-.627 0-.0784 0-.1829.015-.2612.015-.1437.015-.2874.029-.4311v-.0653c.015-.1567.015-.3004.03-.4571.014-.1568.014-.3135.029-.4703.029-.52242.073-1.01876.102-1.41061.015-.13062.015-.24818.03-.35267 0-.03918.014-.09143.014-.13062.015-.11755.015-.19592.03-.24817.014-.03918.014-.06531.014-.06531.279-3.52665-2.754-6.57002-6.724-6.68757-2.036-.06531-4.073-.13062-6.109-.18286-2.652-.07837-5.304-.15674-7.955-.20899-8.556-.23511-17.126-.404912-25.726-.54859-2.256-.039185-4.512-.065308-6.768-.104493-8.951-.130617-17.932-.208987-26.941-.2612336-2.33-.0130617-4.659-.0130617-6.989-.0261233-8.145-.0522467-16.349-.03918504-24.5677 0-.5274 0-1.0548.0130616-1.5822.0130616-4.7173.0261234-9.4493.0653083-14.1666.1044933-3.3842.039185-6.7683.07837-10.1671.130617-2.8128.039185-5.6403.07837-8.4531.130616-1.2892.013062-2.5784.039185-3.8676.065309-.2344 0-.4688-.013062-.7032.013061l-.1758.026124c-.1905.039185-.337.07837-.5421.065308-.3076-.013062-.6153-.065308-.9376-.104493-.293-.039185-.6153-.07837-.9229-.07837-.2491 0-.4981.013061-.7472.039185-.1758.013061-.3516.026123-.5274.039185-.6593.052246-1.3185.091431-1.9778.104493-.0146 0-.0439 0-.0586.013062-1.0694.23511-2.007.692268-3.1204 1.240858-.1026.05225-.2051.09143-.3077.15674-4.2631 2.08987-8.3798 4.44097-12.2767 7.04024-3.6918 2.46865-7.2079 5.14625-10.5041 8.01985-.2491.209-.4981.431-.7325.6531-2.34403 2.0899-4.57084 4.2712-6.79765 6.4525-.36625.3657-.7325.7314-1.09875 1.1102-.80575.8229-1.56756 1.698-2.18286 2.6646-.439501.6661-.791102 1.3845-.996203 2.1421-.10255.3527-.146501.7314-.249051 1.0841-.322301 1.0188.131851 2.1421.703203 3.0303.01465.0523.07325.1437.1172.2221z" fill="#eb924d"/><path d="m184.989 11.9705c-.808 11.2402-.911 23.0009-.558 35.0954.058 2.216-1.853 4.0849-4.322 4.165-48.688 1.7888-96.5381 2.2561-143.4472 1.2415-.8673-.0133-1.7199-.267-2.4549-.7075-8.0559-4.9259-15.4061-10.2923-21.889-16.2194-1.6317-1.4818-1.764-3.8179-.3087-5.4466 7.703-8.6236 16.685-16.0993 27.3575-22.05305.6909-.38713 1.4995-.60072 2.308-.60072 43.8808-.68082 90.4073-.54732 138.8893.17354 2.588.0534 4.602 2.0291 4.425 4.35183z" fill="url(#e)"/><path d="m15.0586 33.4303c.1177.3153.3677.5518.6178.7884 1.0443.9592 2.118 1.879 3.2359 2.7857 2.7652 2.2732 5.6922 4.4019 8.6634 6.4387 3.0741 2.1155 6.0599 4.9801 9.9283 5.8868 4.545 1.0643 10.2078.3679 14.8852.4336 11.3698.1577 22.7395.2365 34.1093.2365 15.3265 0 30.6385-.1445 45.9495-.4205 8.031-.1445 16.047-.3285 24.064-.5519 3.927-.1051 7.854-.2102 11.796-.3416 3.354-.1051 7.781.4336 11.002-.3154 2.868-.6701 2.103-6.8986 2.118-8.7776.03-5.1772-.132-10.3676.118-15.5448.044-.9855.103-1.9579.176-2.9303.177-2.2732 1.368-9.7368-3.044-9.658-25.432.4993-51.039-.4599-76.515-.4599-11.4137 0-22.8276.0394-34.2415.1314-5.501.0394-11.0021.1051-16.5031.1708-3.1182.0394-6.4424-.3942-9.4871.4336-3.177.8542-6.1923 3.3114-8.8105 5.0853-6.5012 4.3888-12.0022 9.566-17.4444 14.9404-.456.4599-.8237 1.0906-.6178 1.6688z" fill="#e48a4a"/><path d="m77.7035 36.9688c-.0287.0572-.0645.1002-.1074.1289-.043.0143-.0931.0358-.1504.0644-.1433.0716-.2364.1074-.2793.1074-.043 0-.0788.0144-.1075.043-.0429.0143-.0859.0358-.1289.0645-.0286.0286-.0644.0572-.1074.0859-.1575.043-.2506.0788-.2793.1074-.0286.0143-.0644.0287-.1074.043-.1289.0716-.222.1074-.2793.1074-.0573-.0143-.1217-.0143-.1934 0-.0716.0143-.1503.0358-.2363.0645-.0716.0143-.1504.0358-.2363.0644-.0573.0143-.1432.0501-.2578.1074-.1289.0287-.2005.043-.2149.043-.0143-.0143-.0358-.0215-.0644-.0215-.1576.0716-.2865.1074-.3867.1074-.086.0144-.1648.0358-.2364.0645-.0573.0143-.1074.0286-.1504.043-.0429.0143-.0931.0286-.1504.0429-.1432.043-.2434.0645-.3007.0645-.043 0-.0788.0143-.1075.043-.1145.0572-.1933.1002-.2363.1289-.2578.0429-.401.0644-.4297.0644-.0716 0-.136-.0215-.1933-.0644-.0573-.0287-.1146-.0573-.1719-.086-.0716-.1719-.1146-.2936-.1289-.3652 0-.0573-.0072-.1289-.0215-.2149-.043-.1862-.0716-.2936-.0859-.3222-.0144-.043-.0287-.086-.043-.1289-.043-.2292-.0645-.3867-.0645-.4727 0-.0859-.0071-.1862-.0214-.3008-.0287-.1289-.043-.2077-.043-.2363 0-.043-.0072-.0931-.0215-.1504 0-.0716-.0072-.1432-.0215-.2148s-.0215-.1504-.0215-.2364c-.0286-.1575-.0429-.2506-.0429-.2793.0143-.1145.0143-.2076 0-.2793-.0144-.0716-.0287-.136-.043-.1933-.043-.1862-.0645-.3366-.0645-.4512-.0429-.2148-.0716-.3581-.0859-.4297s-.0286-.1432-.043-.2148c-.0143-.0716-.0286-.1432-.0429-.2149-.0144-.0716-.0287-.1432-.043-.2148l-.043-.2578c-.0286-.1719-.0501-.3008-.0644-.3867-.0143-.1003-.0358-.1934-.0645-.2793-.0143-.0573-.0215-.1075-.0215-.1504 0-.0573-.0071-.1146-.0214-.1719-.0144-.0716-.0287-.1504-.043-.2363 0-.086-.0072-.1647-.0215-.2364-.0286-.1575-.0501-.2578-.0644-.3007-.0287-.1146-.043-.1934-.043-.2364 0-.0573-.0072-.1145-.0215-.1718-.0143-.1289-.0286-.2006-.043-.2149 0-.0143 0-.0286 0-.043-.0143-.0716-.0215-.1289-.0215-.1718 0-.0573-.0071-.1146-.0214-.1719-.0144-.0573-.0358-.1146-.0645-.1719-.0143-.0573-.0143-.136 0-.2363-.0143-.0716-.0286-.1217-.043-.1504 0-.0286 0-.0788 0-.1504 0-.1289-.0071-.2148-.0214-.2578-.043-.1719-.0645-.2793-.0645-.3223 0-.0573-.0143-.1074-.043-.1504-.0716 0-.1145.0215-.1289.0645-.0143.043-.0358.0788-.0644.1074-.043.0143-.0716.0502-.086.1074 0 .0573-.0214.0931-.0644.1075-.0573.1289-.086.2076-.086.2363 0 .0143-.0071.0358-.0214.0644-.0144.0287-.0358.0645-.0645.1075-.0143.0429-.0358.0859-.0644.1289-.0573.1289-.1003.2435-.1289.3437-.0573.1146-.1075.2005-.1504.2578-.043.1433-.086.2364-.1289.2793-.0287.0287-.0502.0645-.0645.1075-.0286.0716-.0573.1647-.0859.2793-.043.0716-.086.1432-.1289.2148-.043.0716-.0717.1575-.086.2578-.0573.0859-.0859.1361-.0859.1504s-.0072.0358-.0215.0645c-.0573.0859-.1003.1575-.1289.2148-.0573.1432-.0931.2363-.1074.2793 0 .043-.0144.0859-.043.1289l-.1289.2148c-.0573.1576-.0859.2579-.0859.3008 0 .0287-.0072.0573-.0215.086-.043.1432-.0931.2721-.1504.3867-.043.1146-.0931.2363-.1504.3652-.0573.1719-.1003.2865-.1289.3438-.0287.1145-.0573.2005-.086.2578-.0716.1719-.1217.2721-.1503.3008 0 .0716-.0072.1289-.0215.1718-.0144.043-.0287.086-.043.1289-.0143.043-.0286.0931-.043.1504 0 .043-.0071.086-.0214.1289-.0717.1576-.1146.2722-.129.3438-.0143.0573-.0358.1074-.0644.1504-.0287.1002-.0573.179-.0859.2363-.0144.043-.0359.0931-.0645.1504-.0286.0716-.0501.1432-.0645.2148-.0143.0573-.0358.1146-.0644.1719-.0143.0716-.0501.1791-.1074.3223-.043.1002-.0645.1719-.0645.2148 0 .0287-.0143.0573-.0429.086-.0573.1575-.1003.2506-.129.2793-.0143.0429-.0214.0931-.0214.1503 0 .043-.0144.0788-.043.1075-.043.0429-.0859.0859-.1289.1289-.0287.0429-.0573.0716-.086.0859-.0572.1146-.1002.1719-.1289.1719-.0143.0143-.0286.0358-.0429.0644-.043 0-.086-.0071-.1289-.0214-.0287 0-.0645 0-.1075 0-.0572 0-.1145 0-.1718 0-.043.0143-.0931.0143-.1504 0-.086-.0144-.1791 0-.2793.0429-.086-.0143-.1504-.0215-.1934-.0215-.0429.0144-.0859.0144-.1289 0-.1432-.0572-.2292-.0859-.2578-.0859-.1146-.0716-.1862-.1217-.2148-.1504-.1003-.1146-.1719-.2005-.2149-.2578-.0286-.0573-.0501-.1289-.0644-.2148-.043-.0573-.0788-.1218-.1075-.1934-.0286-.0716-.0573-.1504-.0859-.2363-.043-.0716-.0716-.1218-.0859-.1504 0-.0287-.0072-.0573-.0215-.086-.0143-.0716-.0358-.1289-.0645-.1718-.0143-.0573-.0286-.1003-.0429-.1289-.0287-.0717-.0645-.1433-.1075-.2149-.0286-.0716-.0429-.1432-.0429-.2148-.086-.2435-.1433-.3867-.1719-.4297-.0287-.1289-.0645-.222-.1074-.2793.0143-.0573.0071-.1003-.0215-.1289-.0143-.043-.0358-.0931-.0645-.1504-.0716-.1576-.1074-.2578-.1074-.3008s-.0143-.0931-.043-.1504c-.0429-.0716-.0716-.1504-.0859-.2363-.0573-.1576-.0931-.2507-.1074-.2793 0-.043-.0072-.0788-.0215-.1074-.0716-.1576-.1074-.2507-.1074-.2793 0-.0287-.0072-.0573-.0215-.086-.0716-.1432-.1146-.2363-.1289-.2793 0-.0572-.0143-.1074-.043-.1503-.0429-.129-.0644-.2077-.0644-.2364 0-.0286-.0072-.0573-.0215-.0859-.043-.1146-.0645-.1862-.0645-.2149 0-.0286-.0071-.0572-.0215-.0859-.0859-.1719-.1289-.2865-.1289-.3437 0-.0573-.0143-.1146-.0429-.1719-.0716-.1862-.1218-.3151-.1504-.3867-.043-.1433-.0716-.222-.086-.2364-.0429-.1002-.0716-.179-.0859-.2363 0-.0573-.0143-.1074-.043-.1504-.0143-.1002-.0358-.1647-.0644-.1933-.0287-.043-.0358-.0788-.0215-.1075-.0286-.1289-.0645-.2148-.1074-.2578-.0287-.0573-.0287-.1074 0-.1504-.043-.0429-.0716-.0931-.086-.1504-.0143-.0716-.0358-.1432-.0644-.2148-.043-.1003-.0645-.1576-.0645-.1719 0-.0286-.0071-.0573-.0215-.0859-.0859-.2005-.1289-.3223-.1289-.3653-.0429-.1145-.0787-.2076-.1074-.2792-.0573-.1146-.0931-.1934-.1074-.2364-.0143-.0429-.043-.0788-.0859-.1074-.0573.0573-.0931.1003-.1075.1289-.0143.0143-.0286.0358-.0429.0645-.043.1289-.0716.2005-.086.2148v.0215c-.0143.0716-.0358.1361-.0644.1933-.0143.043-.0287.1003-.043.1719-.0286.0716-.043.1504-.043.2364 0 .0859-.0143.1647-.0429.2363-.0287.1432-.0573.2721-.086.3867-.0143.0573-.0214.1074-.0214.1504s-.0072.0859-.0215.1289c0 .0716-.0144.1647-.043.2793v.3008c-.0143.1002-.0286.2005-.043.3008 0 .0859-.0143.1862-.0429.3007l-.043.3868c-.043.2864-.0788.4583-.1074.5156 0 .1575-.0072.2506-.0215.2793v.0644c-.0143.1433-.0287.2292-.043.2578v.1289c-.0143.1862-.0358.3366-.0644.4512-.0144.0716-.0215.1433-.0215.2149.0143.0573.0215.1002.0215.1289-.0144.0429-.0358.0859-.0645.1289-.0143.0429-.0286.0859-.043.1289v.3222l-.0429.3438v.2793c.0143.043.0215.0931.0215.1504v.4512c0 .1575-.0072.3151-.0215.4726v.3008c0 .0573-.0072.1146-.0215.1719s-.0287.1146-.043.1718c0 .043-.0071.1003-.0215.1719l-.0644.5156c-.0287.129-.0573.2077-.086.2364-.0143.0286-.0286.0573-.0429.0859-.0287.043-.043.0931-.043.1504 0 .0716-.0143.1289-.043.1719-.0429 0-.0859.0071-.1289.0215-.0429.0286-.0859.0501-.1289.0644-.2148-.043-.3509-.0644-.4082-.0644-.0573.0143-.1217.0143-.1933 0-.1003-.0287-.1648-.043-.1934-.043-.0143.0143-.0286.0215-.043.0215-.1432-.1003-.2363-.1433-.2793-.1289-.0429.0143-.0787.0071-.1074-.0215-.1719-.0573-.2936-.0859-.3652-.0859-.0573.0143-.1218.0143-.1934 0-.0716-.0144-.136-.0287-.1933-.043-.0573 0-.1218-.0072-.1934-.0215-.0573-.0143-.1074-.0215-.1504-.0215s-.0931-.0143-.1504-.043c-.0716-.0286-.1289-.0429-.1719-.0429-.0286 0-.0572-.0072-.0859-.0215-.1432-.0573-.2363-.0859-.2793-.0859s-.0788 0-.1074 0c-.0716.0143-.1289.0071-.1719-.0215-.0286-.0144-.0644-.0215-.1074-.0215-.0287-.0143-.0716-.0215-.1289-.0215-.043.0143-.0859.0143-.1289 0-.1003-.0286-.1647-.0358-.1934-.0215-.0143 0-.0358-.0071-.0644-.0215-.1576-.0573-.265-.1002-.3223-.1289-.043-.0286-.0931-.0573-.1504-.0859-.0859-.0573-.1575-.1003-.2148-.1289-.0287-.0287-.0645-.0573-.1075-.086-.0286-.0286-.0716-.0429-.1289-.0429-.0286-.1576-.0573-.2578-.0859-.3008.0286-.0716.043-.1432.043-.2148 0-.0717.0071-.1504.0215-.2364.0716-.1575.1145-.265.1289-.3222.0143-.0287.0214-.0645.0214-.1075 0-.0429.0072-.0859.0215-.1289.0573-.1718.086-.2721.086-.3008 0-.0429.0071-.0859.0215-.1289.0286-.1002.0358-.1575.0214-.1718 0-.0144 0-.0358 0-.0645.043-.0859.0645-.1361.0645-.1504.0143-.0286.0286-.0644.043-.1074.0429-.1576.0644-.2435.0644-.2578.0143-.0143.0215-.0287.0215-.043 0-.1002.0072-.1575.0215-.1719.0143-.0286.0215-.0572.0215-.0859.0143-.0859.0215-.1719.0215-.2578 0-.1003.0143-.2005.0429-.3008.0143-.0716.0215-.1361.0215-.1933.0143-.0717.0286-.1433.043-.2149l.0215-.2578c.0143-.043.0286-.1003.0429-.1719s.0287-.1432.043-.2148c0-.0716.0072-.1218.0215-.1504.0143-.043.0215-.0859.0215-.1289l.0644-.2578c.0287-.1719.0573-.3008.086-.3868 0-.0429 0-.0859 0-.1289 0-.0572.0143-.1074.0429-.1503.0287-.1576.0358-.2435.0215-.2579 0-.0143.0143-.0071.043.0215.0143-.1718.0143-.2721 0-.3008 0-.0429.0071-.0859.0215-.1289.0143-.1432.0358-.2864.0644-.4297 0-.0859-.0143-.1647-.043-.2363-.0143-.0859-.0071-.1719.0215-.2578.0144-.0859.0287-.1647.043-.2363.0143-.086.0286-.1647.043-.2363.0429-.1862.0644-.308.0644-.3653 0-.0716 0-.1432 0-.2148.0287-.1146.043-.2005.043-.2578.043-.2006.0573-.3295.043-.3868 0-.0572.0143-.1217.0429-.1933 0-.1576.0143-.2578.043-.3008.0286-.043.0501-.0931.0644-.1504 0-.1432.0072-.2506.0215-.3223 0-.0429 0-.0859 0-.1289 0-.0573.0072-.1145.0215-.1718l.043-.2364c.0286-.1432.043-.2506.043-.3222.0286-.0573.0429-.1289.0429-.2149.0143-.0859.0358-.1647.0645-.2363.0286-.1719.0358-.265.0215-.2793 0-.0143 0-.0358 0-.0644l.0859-.3223c.0286-.1003.0501-.2077.0645-.3223.0143-.1289.0286-.2506.0429-.3652 0-.0287 0-.0645 0-.1074.0143-.043.0215-.086.0215-.1289.0143-.0573.0215-.1003.0215-.1289.0143-.043.0143-.086 0-.129.0286-.1145.0573-.2721.0859-.4726l.0215-.3867c.0143-.1289.0287-.2149.043-.2578.0143-.043.0143-.1003 0-.1719.0286-.0716.0429-.1361.0429-.1934 0-.0716.0144-.1575.043-.2578.0573-.1862.0931-.2864.1074-.3008.0717-.1002.1218-.1718.1504-.2148.0287-.0573.0573-.1074.086-.1504.0716 0 .1289-.0215.1718-.0645.0573-.0573.1146-.1002.1719-.1289.1719-.0286.265-.0358.2793-.0214.0143.0143.0358.0214.0645.0214.1289-.0143.2005-.0143.2148 0 .0143 0 .0215-.0143.0215-.0429.1432.0286.2578.0501.3437.0644.1003 0 .1862-.0071.2579-.0215h.2363l.3867.0215c.1862.0573.3008.0788.3438.0645.0429-.0144.0859-.0072.1289.0215.2005.0429.3294.0644.3867.0644.0573-.0143.1217-.0143.1933 0l.2364.0215h.2793c.1575 0 .2649-.0072.3222-.0215.0716-.0143.1433-.0072.2149.0215.0573-.0287.136-.0358.2363-.0215h.3008c.1719-.0286.265-.0358.2793-.0215h.0644c.1433-.0286.2149-.0358.2149-.0215h.0429.1504c.0287-.0143.0573-.0214.086-.0214.1289.0143.2363.0501.3222.1074.1003.0573.2006.1002.3008.1289.0716.0859.1218.1575.1504.2148.0573.0716.0859.1218.0859.1504.0144.0143.0287.0358.043.0645.043.1146.0716.1862.086.2148.0286.0143.0429.0358.0429.0645.043.1002.0645.1647.0645.1933 0 .0287.0143.0573.0429.086-.0143.0429-.0143.0859 0 .1289.0144.0429.0287.0787.043.1074.0287.1862.0501.3008.0645.3437.0143.043.0215.0788.0215.1075.0286.0716.0429.136.0429.1933 0 .043.0143.0931.043.1504.043.1432.0788.2292.1074.2578.0143.1003.0215.1862.0215.2578.0286.1289.0716.2722.1289.4297l.0645.2793c.0429.0716.0644.1289.0644.1719s.0072.0788.0215.1074c.0716.1146.1074.1934.1074.2364 0 .0286.0072.0572.0215.0859.043.1575.0645.2506.0645.2793.0143.0143.0286.0358.0429.0644.043.1719.0716.2793.086.3223.0143.043.0286.0859.0429.1289.0573.1719.0931.265.1074.2793.0287.043.043.1003.043.1719 0 .0573.0143.1146.043.1719l.1074.3867c.0287.0716.043.1432.043.2148.0143.0573.0358.1289.0644.2149.043.1575.0645.2435.0645.2578.0143 0 .0215.0143.0215.0429.0573.2292.1074.3653.1504.4082h.2363c.0716-.1289.1074-.2148.1074-.2578.043-.1145.0716-.1933.0859-.2363.0144-.043.0287-.0931.043-.1504s.0287-.1074.043-.1504c.0286-.1146.0501-.222.0644-.3222.0287-.1003.0788-.1862.1504-.2579-.0143-.0572-.0071-.1002.0215-.1289.0287-.0286.0358-.0787.0215-.1503.0573-.0717.0859-.1361.0859-.1934.0144-.0573.0287-.1146.043-.1719.0716-.1575.1146-.2506.1289-.2793.0143-.0573.0287-.1146.043-.1719.0143-.0572.0358-.1217.0644-.1933.043-.1146.0645-.1934.0645-.2363.0286-.043.043-.086.043-.1289.0143-.043.0358-.0788.0644-.1075 0-.0429.0072-.0787.0215-.1074.0143-.043.0286-.0931.043-.1504.0429-.1289.0716-.2077.0859-.2363.0286-.043.0501-.0788.0644-.1074.043-.1576.0717-.2364.086-.2364.043-.1002.0788-.179.1074-.2363.0287-.0573.043-.1432.043-.2578.0859-.1432.1647-.3151.2363-.5156.0286-.086.0501-.1433.0645-.1719.0143-.0286.0286-.0716.0429-.1289.0573-.1719.0931-.2793.1074-.3223.0287-.0429.0573-.0859.086-.1289.043-.1289.0644-.2005.0644-.2148.0144-.0287.0358-.0573.0645-.086.043-.1145.0644-.1718.0644-.1718.0144-.0144.0215-.0358.0215-.0645.0573-.0573.086-.1074.086-.1504s.0071-.0788.0215-.1074c.1002-.1432.1503-.222.1503-.2363.0144-.0287.0358-.0573.0645-.086.0573-.1289.0931-.2005.1074-.2148.1862-.1003.3008-.1361.3438-.1074.0859-.0573.1647-.0716.2363-.043.0859.0143.1862 0 .3008-.043.0573.0144.1504.0215.2793.0215h.4726l.2364.0215c.1002.0143.179.0072.2363-.0215.2578-.0143.444-.0215.5586-.0215.1146-.0143.222-.0071.3222.0215.1576 0 .2364.0072.2364.0215h.0429c.0717 0 .1576.0072.2579.0215h.2578c.0716 0 .1289.0071.1718.0215.043.0143.0788.0215.1075.0215h.2578c.1575-.0144.2435-.0144.2578 0h.0644c.1003.0429.1719.0644.2149.0644.043-.0143.0859-.0072.1289.0215.1432-.0287.222-.0143.2363.043.0287.0429.0573.0859.086.1289.0286.0286.0572.0644.0859.1074.043.0286.0788.0573.1074.0859.043.1433.0645.2363.0645.2793 0 .0287.0071.0573.0215.086.0286.0859.0429.1647.0429.2363.043.1575.0716.2506.086.2793.0143.0286.0214.0573.0214.0859.0287.0716.043.1289.043.1719s.0143.1003.043.1719c.0143.0859.0215.1504.0215.1933.0143.043.0286.0788.0429.1074.043.1862.0573.308.043.3653 0 .043.0072.0859.0215.1289.0143.0716.0215.1504.0215.2363.0143.086.0358.1647.0644.2363.0143.0717.0143.1361 0 .1934 0 .043.0215.0931.0645.1504 0 .1146.0071.2292.0215.3437.0286.1003.0573.2077.0859.3223.0143.1289.0358.2507.0645.3652.0572.1719.0859.2722.0859.3008 0 .0287.0072.0573.0215.086.0143.0573.0215.1145.0215.1718.0143.0573.0358.1146.0644.1719.0143.043.0215.086.0215.1289 0 .043.0072.086.0215.1289.0286.086.043.1576.043.2149s.0071.1146.0214.1718c.0287.1433.0358.2292.0215.2579 0 .0143.0072.0358.0215.0644.043.1289.0645.2149.0645.2578.0572.2435.1074.5085.1503.7949.0144.043.0215.086.0215.129 0 .0429.0072.0859.0215.1289.043.1575.0645.2578.0645.3007 0 .043.0071.0931.0215.1504v.1289c.0143.043.0286.0931.0429.1504.0143.086.0287.1791.043.2793.0143.1003.0286.2005.043.3008.0286.1576.0501.2936.0644.4082.0287.1003.0573.2005.086.3008.0429.1719.0644.2578.0644.2578.0143.1576.0286.2507.043.2793.0143.0143.0286.0358.0429.0645.0287.1862.0502.3007.0645.3437s.0286.0859.043.1289c.0143.0573.0214.1504.0214.2793.043.1003.0573.1862.043.2578 0 .0573.0143.1218.043.1934.0286.1289.0358.222.0215.2793 0 .0429.0143.0859.0429.1289.0287.0716.043.136.043.1933.0143.043.0287.086.043.1289.0429.129.0573.2077.0429.2364 0 .0143.0072.0358.0215.0644.0144.1146.0215.1862.0215.2149.0143.0143.0215.0358.0215.0644.0286.1003.0358.1647.0215.1934 0 .0286.0071.0573.0215.0859.0143.0716.0286.1433.0429.2149.0287.0573.0502.1217.0645.1933.0286.0716.043.1504.043.2364 0 .0716.0071.1432.0214.2148.0144.043.0287.0931.043.1504.0143.043.0287.0859.043.1289.0429.1289.0788.222.1074.2793.0286.043.0501.1003.0645.1719.0143.2148.0286.3437.0429.3867.0143.0716.0287.1289.043.1719.0143.0286.0215.0787.0215.1504zm10.9046-15.254c.1002 0 .1862-.0071.2578-.0214.0859-.0144.1862-.0144.3008 0 .1289-.0717.2148-.0931.2578-.0645.1003.0143.1647.0215.1934.0215.0429-.0143.0787-.0215.1074-.0215.1575.0573.2578.0859.3008.0859.0429-.0143.0787-.0143.1074 0 .1432.043.2435.0645.3008.0645.0716 0 .136.0072.1933.0215.2005.0716.3366.1289.4082.1719.1003.0143.1719.0286.2149.0429.0429.0143.0859.0287.1289.043.1432.0286.2148.043.2148.043.0143 0 .0287.0071.043.0214.0573.0287.1289.0573.2148.086.086.0143.1576.043.2149.0859.0716 0 .136.0072.1933.0215s.1218.0358.1934.0645c.2005.0859.3294.136.3867.1503.0573.0144.1003.043.1289.086.0716 0 .1432.0358.2149.1074.0716.0573.1575.0859.2578.0859.0716.086.1647.1433.2793.1719.1289.086.1933.1361.1933.1504.0287.0287.0645.0501.1074.0645.043.0143.0788.0358.1075.0644.1289.0716.222.1361.2793.1934.1575.1002.2578.1719.3007.2148.043.0287.086.0573.129.086.0429.0573.0859.1074.1289.1503.0429.0287.0859.0573.1289.086.1432.1002.2076.1575.1933.1719 0 0 .0072.0071.0215.0214.1289.1146.2005.1719.2149.1719.1289.1146.2005.1862.2148.2149.1003.1289.1576.2005.1719.2148.0143 0 .0286.0143.0429.043.0573.0859.1075.1504.1504.1933.1146.1433.2006.2292.2578.2578.086.129.1504.2292.1934.3008s.1003.1361.1719.1934c.0716.1432.1074.2148.1074.2148l.1719.1934c.0286.0286.0501.0716.0644.1289.0144.043.0358.0788.0645.1074.0286.0573.0501.1003.0644.1289.0287.0287.0573.0573.086.086.0573.1289.0859.1933.0859.1933.0143 0 .0215.0072.0215.0215.0716.1289.1217.222.1504.2793.0143.0716.0358.1289.0644.1719.0287.043.043.1002.043.1719.043.0716.0716.1432.0859.2148.0144.0716.0359.1432.0645.2148.0716.1433.1074.222.1074.2364.0143.0143.0215.0286.0215.0429.0573.1289.0788.222.0645.2793v.1719c.0572.1576.0787.2435.0644.2578v.043c.043.1862.0573.3151.043.3867 0 .0573.0071.1218.0215.1934.0429.444.0501.8235.0214 1.1386v.1719c0 .043-.0071.1003-.0214.1719-.0287.1719-.043.2721-.043.3008.0143.0143.0143.0358 0 .0644-.0573.2865-.1003.5085-.1289.666-.0287.1433-.0573.2865-.0859.4297-.043.1433-.086.2865-.129.4297-.0429.1289-.0787.2578-.1074.3867-.0859.2292-.1432.3796-.1719.4512-.0716.1719-.1145.2721-.1289.3008-.0143.0286-.0286.0573-.0429.0859l-.1504.2149c-.0716.1432-.1074.222-.1074.2363.0143 0 .0143.0072 0 .0215-.1003.1432-.1648.2435-.1934.3008-.0859.1432-.1289.2148-.1289.2148-.1862.2149-.3223.3652-.4082.4512-.0716.0859-.1504.179-.2363.2793-.1289.1432-.222.2363-.2793.2793-.0573.0429-.1075.0859-.1504.1289-.0573.0286-.1433.0859-.2578.1719-.086.1002-.1934.1862-.3223.2578-.1432.1289-.2435.2005-.3008.2148-.043.0143-.0859.0358-.1289.0645-.1289.1002-.2148.1647-.2578.1933-.0286.0143-.0573.043-.0859.086-.043-.0144-.086-.0072-.1289.0214-.043.0287-.0788.0502-.1075.0645-.1575.1003-.2506.1504-.2793.1504-.0143 0-.0358.0143-.0644.043-.086.0716-.1504.1074-.1934.1074-.0286 0-.0573.0143-.0859.0429-.0573.0287-.1146.0645-.1719.1075-.0573.0286-.1146.0573-.1719.0859-.0573.043-.1074.0716-.1504.0859-.0429 0-.0931.0144-.1503.043-.1003.0573-.1576.0931-.1719.1074 0 .0144-.0143.0215-.043.0215-.1432.0287-.222.043-.2363.043 0 .0143-.0072.0215-.0215.0215-.1576.0716-.2363.1074-.2363.1074-.1003.0286-.1862.0573-.2578.0859-.1576.0716-.2364.1075-.2364.1075-.0859.0429-.1575.0644-.2148.0644-.043 0-.0788.0072-.1074.0215-.1576.0286-.265.043-.3223.043-.043.0143-.0859.0214-.1289.0214-.1719.0144-.2865.0215-.3438.0215-.0429.0144-.0859.0287-.1289.043-.1432.0143-.222.0358-.2363.0645-.0716-.0144-.1647-.0215-.2793-.0215-.1862-.0144-.3008-.0144-.3437 0-.043.0143-.086.0215-.1289.0215-.1146 0-.2435-.0144-.3868-.043-.1002.0143-.179.0143-.2363 0-.043-.0143-.1003-.0072-.1719.0215-.0573-.0287-.1146-.043-.1718-.043-.043 0-.1003-.0072-.1719-.0215l-.2363-.0215c-.2149-.0143-.3724-.0429-.4727-.0859-.0286-.0143-.0645-.0215-.1074-.0215-.043.0143-.1003.0143-.1719 0-.2148-.043-.3581-.0788-.4297-.1074-.0573-.0287-.1217-.0573-.1933-.0859-.1146-.043-.2364-.0717-.3653-.086-.1002-.043-.1575-.0644-.1719-.0644-.0143.0143-.0358.0143-.0644 0-.1289-.0717-.2005-.1075-.2149-.1075-.0143.0144-.0358.0144-.0644 0-.1289-.0429-.2005-.0716-.2148-.0859-.0144-.0286-.0359-.0501-.0645-.0645-.1289-.0286-.2148-.0501-.2578-.0644s-.0788-.0287-.1074-.043c-.1289-.0573-.2077-.0931-.2364-.1074-.0143-.0143-.0429-.0286-.0859-.043-.1289-.0573-.2077-.0931-.2363-.1074-.0287-.0286-.0502-.0501-.0645-.0644-.1575-.0573-.2506-.0931-.2793-.1075-.0286-.0143-.0573-.0214-.0859-.0214-.0287-.043-.0645-.0717-.1074-.086-.043-.0286-.0788-.0573-.1075-.0859-.0429-.0287-.0859-.0573-.1289-.086-.0286-.0286-.0573-.0573-.0859-.0859-.0859-.043-.1361-.0644-.1504-.0644-.0143-.0144-.0358-.0359-.0644-.0645-.1433-.1003-.2221-.1504-.2364-.1504-.0143-.0143-.0358-.0286-.0644-.043-.1289-.0859-.1934-.1575-.1934-.2148-.1432-.0859-.2292-.1289-.2578-.1289-.0286-.0143-.0501-.0287-.0645-.043-.1002-.1146-.1575-.1647-.1718-.1504-.0144 0-.0215-.0071-.0215-.0215-.1003-.0859-.1647-.136-.1934-.1503-.0286-.0144-.0573-.0359-.0859-.0645-.0859-.1146-.1576-.1862-.2149-.2148-.0286-.0287-.0572-.0573-.0859-.086-.0143-.0429-.0358-.0788-.0644-.1074-.086-.0716-.1504-.1289-.1934-.1719-.0287-.0573-.0573-.1217-.0859-.1933-.1003-.086-.1504-.1361-.1504-.1504 0-.0287-.0144-.0573-.043-.086-.0716-.1002-.1217-.1647-.1504-.1933-.0143-.043-.0286-.0788-.043-.1074-.0573-.1146-.0931-.1791-.1074-.1934s-.0358-.0358-.0644-.0645c-.0717-.1575-.1218-.2506-.1504-.2793-.0287-.0286-.0573-.0572-.086-.0859-.0716-.1719-.1145-.2721-.1289-.3008-.0143-.0286-.0358-.0573-.0644-.0859-.0287-.0716-.0502-.1361-.0645-.1934-.0143-.0716-.0429-.136-.0859-.1933-.0287-.1003-.043-.1647-.043-.1934 0-.043-.0071-.0788-.0215-.1074-.0286-.0716-.0573-.1504-.0859-.2363-.0287-.1003-.0501-.2006-.0645-.3008-.0429-.2292-.0716-.3796-.0859-.4512-.0143-.0859-.0286-.1862-.043-.3008-.0286-.1432-.0429-.2291-.0429-.2578 0-.1432-.0072-.2363-.0215-.2793 0-.043 0-.0788 0-.1074-.0143-.2149-.0287-.3509-.043-.4082s-.0215-.1289-.0215-.2149c0-.1432.0072-.2148.0215-.2148.0287-.0143.0358-.0286.0215-.043-.0286-.0716-.0358-.136-.0215-.1933.0287-.0716.043-.1433.043-.2149-.0143-.1146-.0215-.1933-.0215-.2363.0143-.043.0215-.0859.0215-.1289v-.2793c.0573-.2148.0859-.3437.0859-.3867.0143-.0573.0287-.1218.043-.1934l.043-.2363c.0429-.1862.0716-.2936.0859-.3223.0716-.1718.1074-.2649.1074-.2793 0-.0286.0072-.0573.0215-.0859.0573-.1146.0931-.179.1074-.1934.0143-.0143.0215-.0358.0215-.0644.0143-.043.0143-.086 0-.1289 0-.043.0143-.086.043-.1289.0859-.1433.1432-.2292.1719-.2578.0572-.1146.0859-.1862.0859-.2149 0-.0286.0072-.0573.0215-.0859.0286-.0287.0573-.0645.0859-.1074.0287-.043.0573-.0788.0859-.1075.0717-.1432.1218-.2578.1504-.3437.043-.086.086-.1647.1289-.2363.0717-.1003.1003-.1576.086-.1719 0-.0143.0071-.0287.0215-.043.1002-.1289.1575-.2005.1718-.2148.0144-.0287.0287-.0573.043-.086.1003-.1146.1934-.2005.2793-.2578.1003-.1575.1647-.2506.1934-.2793.0286-.0286.0573-.0573.0859-.0859.043-.043.0716-.1003.0859-.1719.1289-.1289.2077-.222.2364-.2793.0429-.0573.0859-.1146.1289-.1719.1002-.1145.1719-.179.2148-.1933.043-.0143.0716-.0502.086-.1074l.2148-.1075c.1003-.0573.179-.1146.2363-.1718.0573-.0573.1361-.1003.2364-.1289.1575-.1003.2363-.1433.2363-.129.0716-.0572.1146-.0859.1289-.0859.0286-.0143.0573-.0286.0859-.043.086-.0859.1647-.1432.2364-.1718.1289-.086.2005-.1289.2148-.1289s.0358-.0072.0645-.0215c.1002-.0573.1647-.086.1933-.086.0287-.0143.0573-.0358.086-.0644.1575-.0716.2649-.1289.3222-.1719s.1218-.0788.1934-.1074c.1289-.0287.2005-.0501.2148-.0645.0143-.0286.0358-.0286.0645 0 .0286-.0573.0716-.0859.1289-.0859.0573-.0143.1217-.0358.1933-.0645.0717-.0429.1218-.0644.1504-.0644.0287 0 .0573-.0072.086-.0215.1146-.043.2076-.0573.2793-.043.0716 0 .1432-.0071.2148-.0214.1289-.0287.2077-.0502.2363-.0645.0287-.0143.0573-.0215.086-.0215.1432 0 .2363-.0071.2793-.0215.0429-.0143.0787-.0215.1074-.0215.1575-.0143.2435-.0214.2578-.0214.0287-.0144.0573-.0215.0859-.0215.1862 0 .3151-.0072.3868-.0215.2148-.0287.3867-.0072.5156.0644zm.4082 3.545c-.1432.0286-.2292.0286-.2578 0-.1289.0143-.2149.0358-.2578.0644-.043.0287-.0788.0573-.1075.086-.1145.0572-.2076.0931-.2793.1074-.0429.0286-.0931.0501-.1503.0644-.043.0144-.0717.0573-.086.1289-.1432.0573-.2363.1075-.2793.1504-.1289.086-.2005.1289-.2148.1289 0 0-.0072.0072-.0215.0215-.0859.0716-.1432.1218-.1719.1504-.0286.0287-.0573.0501-.0859.0645-.1003.0573-.1576.1002-.1719.1289 0 .0143-.0072.0286-.0215.0429-.0716.0717-.1146.1218-.1289.1504-.0143.0144-.0358.0358-.0644.0645l-.1719.2148c-.043.043-.086.086-.1289.1289-.043.043-.0931.086-.1504.1289l-.2363.2579c-.0717.1289-.1075.2005-.1075.2148-.1002.1575-.1575.2363-.1718.2363 0 0-.0072.0072-.0215.0215-.086.1432-.1432.2578-.1719.3438-.0716.1002-.1289.179-.1719.2363-.0286.0573-.0573.1146-.0859.1719-.043.1289-.0645.2005-.0645.2148s-.0071.0286-.0214.043c-.0717.1432-.1075.2291-.1075.2578.0144.0143.0144.0358 0 .0644-.0716.1433-.1146.222-.1289.2364-.0286.1862-.0501.3007-.0644.3437v.1074c-.0573.2149-.086.3581-.086.4297-.0143.0716-.0071.1791.0215.3223 0 .0573-.0071.1146-.0215.1719 0 .0429.0072.0931.0215.1504 0 .0572.0072.1074.0215.1503.0143.043.0287.0931.043.1504l.0429.2364c.0573.1575.0931.2721.1075.3437.0286.0573.0573.1146.0859.1719.0716.1719.1074.265.1074.2793s.0072.0358.0215.0644c.0287.0717.0788.1433.1504.2149.0286.0573.0501.1074.0645.1504.0286.0429.0572.0931.0859.1504.1002.1432.1504.222.1504.2363.0143.0143.0286.0286.0429.043.1146.1432.1791.222.1934.2363.0143 0 .0287.0143.043.043.0286.0429.0644.0859.1074.1289.043.0429.0716.0931.0859.1504l.2149.1718c.1002.1003.1504.1719.1504.2149.1289.1002.2005.1504.2148.1504.1289.0859.2077.1289.2363.1289.1146.0859.1791.1432.1934.1718.0143.0144.0358.0287.0645.043.0859.0573.136.1003.1503.1289.0144.0287.0502.043.1075.043l.1504.1504c.0286.0143.0572.0286.0859.0429.1719.1146.2865.1862.3437.2149.0717.0143.1218.043.1504.0859.0573.0144.1075.0287.1504.043.043.0143.0931.0358.1504.0645.086.0286.1504.0501.1934.0644.0573.0143.1002.0287.1289.043h.2363l.2793-.086c.1289-.0716.2005-.1002.2149-.0859.0286 0 .0501-.0072.0644-.0215.0859-.0286.1432-.043.1719-.043.0286-.0143.0644-.0286.1074-.0429.1146-.0573.179-.0931.1934-.1074.0143-.0287.0358-.0502.0644-.0645.1146-.0859.1719-.1289.1719-.1289 0-.0143.0072-.0215.0215-.0215.0429-.0573.0787-.1002.1074-.1289.043-.043.0859-.0859.1289-.1289.1003-.0859.1504-.1289.1504-.1289.0143 0 .0286-.0072.043-.0215.1289-.1003.2076-.1719.2363-.2148.043-.043.0931-.086.1504-.1289.0859-.086.1575-.1433.2148-.1719l.1719-.1719c.0286-.0286.0573-.0644.0859-.1074.043-.0573.0788-.1074.1075-.1504.0572-.043.1074-.0859.1503-.1289.043-.043.0788-.0788.1075-.1074.0573-.1003.0931-.1719.1074-.2149.0286-.0429.0501-.0931.0644-.1504.043-.0143.0788-.0358.1075-.0644.0286-.0287.0573-.0573.0859-.086.0143-.0429.0287-.0787.043-.1074.0143-.0429.0286-.0859.0429-.1289.0573-.1146.0931-.2005.1075-.2578.0429-.1289.0644-.2363.0644-.3223l.043-.3007c.0286-.043.0501-.0788.0644-.1075.0287-.0429.043-.0859.043-.1289.0143-.0573.0143-.1146 0-.1718 0-.0717.0072-.1433.0215-.2149.043-.1862.0644-.3008.0644-.3437 0-.0573 0-.1075 0-.1504-.0286-.2149-.0429-.3653-.0429-.4512.0143-.0859.0143-.1647 0-.2363-.0143-.1576-.0358-.2578-.0645-.3008-.0143-.0573-.0286-.1074-.0429-.1504-.043-.1719-.0645-.2936-.0645-.3652-.0573-.1433-.1003-.2292-.1289-.2578.0143-.0717 0-.1361-.043-.1934-.0429-.0716-.0787-.1432-.1074-.2149-.0286-.1002-.0501-.1575-.0644-.1718 0-.0287 0-.0502 0-.0645-.0717-.0859-.1146-.136-.129-.1504 0-.0286-.0143-.0644-.0429-.1074l-.1289-.2578c-.086-.1576-.1289-.2507-.1289-.2793.0143-.0286.0071-.0573-.0215-.0859-.1003-.1146-.1647-.1719-.1934-.1719l-.2148-.2578c-.1003-.1576-.1719-.2507-.2149-.2793-.0286-.043-.0573-.0788-.0859-.1074-.1289-.129-.2077-.2077-.2363-.2364-.043-.0286-.086-.0573-.1289-.0859-.0287-.0287-.0573-.0573-.086-.0859-.1432-.1146-.2363-.1791-.2793-.1934-.0429-.0143-.0787-.0358-.1074-.0645-.1003-.1002-.1575-.1432-.1719-.1289-.0143 0-.0358-.0071-.0644-.0215-.1003-.0572-.1934-.1002-.2793-.1289-.2292-.0286-.4011-.0644-.5156-.1074-.1003-.043-.2077-.0644-.3223-.0644zm25.6647-2.9649c.014.1146.014.222 0 .3223 0 .0859-.007.1862-.022.3008-.1.1575-.15.2435-.15.2578 0 0-.007.0143-.022.043-.086.1289-.129.2005-.129.2148 0 0-.007 0-.021 0-.029.043-.065.0859-.108.1289-.028.043-.057.0859-.085.1289-.072.1289-.108.2148-.108.2578s-.007.0788-.021.1074c-.115.1289-.165.1934-.151.1934-.1.1719-.172.2865-.215.3438-.043.0429-.086.1002-.128.1718-.072.1146-.144.2077-.215.2793-.058.0716-.108.1433-.151.2149-.1.1145-.186.2506-.258.4082-.071.0859-.128.1718-.171.2578-.086.1719-.144.2864-.172.3437-.115.1433-.172.222-.172.2364 0 .0143-.007.0358-.022.0644-.086.1003-.136.1576-.15.1719 0 .0143-.014.0358-.043.0644-.072.1289-.115.2006-.129.2149-.014 0-.021.0143-.021.043-.115.1862-.172.2793-.172.2793-.072.1002-.115.1503-.129.1503-.015 0-.029.0144-.043.043-.014.0716-.036.1361-.065.1934-.014.0573-.035.1146-.064.1718-.115.1289-.172.2006-.172.2149-.115.1575-.179.2578-.193.3008-.015.0286-.036.0573-.065.0859-.086.1432-.143.2292-.172.2578-.014.0143-.035.043-.064.086-.086.1575-.136.2506-.15.2793-.015.0286-.036.0572-.065.0859-.057.1003-.1.179-.129.2363-.043.1003-.086.2005-.129.3008-.043.0859-.1.1862-.172.3008l-.129.2363c-.014.0859-.028.1432-.042.1719 0 .0143-.008.0358-.022.0644-.029.0717-.05.1433-.064.2149-.015.0716-.036.1647-.065.2793-.057.3294-.079.6015-.064.8164 0 .0716-.007.1432-.022.2148v.1504.1934c.015.0573.022.1217.022.1933 0 .0717-.007.1504-.022.2364v.2578c.029.1575.036.2506.022.2793v.1504c0 .1145-.007.179-.022.1933v.0645l.043.4082c0 .0716.007.136.022.1933.014.043.021.1003.021.1719.014.043.022.1074.022.1934.014.0859.021.1432.021.1718v.3438c.014.043.022.1003.022.1719.014.1146.021.2005.021.2578s.007.1217.022.1933c.014.1719.021.2722.021.3008.014.0287.022.0573.022.086-.015.0716-.022.1432-.022.2148.014.0716.022.1432.022.2149.014.0716.028.1432.042.2148.015.0573.029.1217.043.1934.015.0859.015.1718 0 .2578 0 .0716.008.1575.022.2578.014.1146.036.2435.064.3867-.086.0573-.157.0788-.214.0645-.058-.0144-.122-.0215-.194-.0215-.143.0143-.236.0143-.279 0-.029 0-.057 0-.086 0h-.258c-.057.0143-.122.0215-.193.0215-.072.0143-.143.0071-.215-.0215h-.258c-.029 0-.071 0-.129 0-.043.0143-.086.0215-.129.0215-.143.0286-.25.0501-.322.0644s-.143.0215-.215.0215c-.186-.0287-.301-.043-.344-.043-.028.0143-.057.0215-.085.0215h-.258c-.101 0-.165-.0072-.194-.0215-.014 0-.035.0072-.064.0215-.1.0143-.179.0215-.236.0215-.058.0143-.115.0286-.172.043h-.344c-.129.0143-.201.0143-.215 0 0-.0144-.007-.0215-.021-.0215-.172.0286-.258.0429-.258.0429-.043 0-.1 0-.172 0-.057.0144-.115.0215-.172.0215-.186 0-.329 0-.43 0-.086.0144-.164.0144-.236 0-.172-.0859-.265-.1504-.279-.1933 0-.0287-.015-.0573-.043-.086.028-.1432.05-.222.064-.2363.029-.2578.05-.4154.065-.4727.028-.2578.043-.4082.043-.4511.014-.1003.021-.1934.021-.2793 0-.086.007-.1719.022-.2578.043-.2006.064-.3438.064-.4297.014-.1003.029-.222.043-.3653-.014-.1575-.021-.2649-.021-.3222 0-.043 0-.086 0-.1289.014-.043.021-.0931.021-.1504 0-.1003-.007-.1934-.021-.2793 0-.1003.014-.1862.043-.2578-.058-.1146-.072-.2936-.043-.5371 0-.086 0-.1719 0-.2579 0-.1002.007-.1861.021-.2578.029-.2291.036-.401.022-.5156 0-.1146 0-.2148 0-.3008.014-.1002.014-.1575 0-.1718 0-.0287.007-.0573.021-.086.014-.1432.014-.222 0-.2363.043-.1146.057-.2435.043-.3867-.014-.1433-.007-.2722.021-.3867.015-.0717.015-.1504 0-.2364 0-.1432-.028-.2649-.085-.3652l-.151-.2363c-.057-.1289-.086-.1934-.086-.1934 0-.0143-.007-.0286-.021-.043-.101-.1575-.158-.2506-.172-.2793-.014-.0429-.036-.0787-.065-.1074-.1-.1289-.15-.2005-.15-.2148.014-.0144.014-.0287 0-.043-.057-.1003-.093-.1719-.107-.2148-.072-.1003-.108-.1576-.108-.1719.014-.0143.014-.0287 0-.043-.057-.0573-.093-.1002-.107-.1289 0-.043-.015-.0788-.043-.1074-.129-.1576-.186-.2363-.172-.2363-.1-.1433-.151-.2292-.151-.2579-.1-.1432-.157-.222-.171-.2363 0-.0143-.015-.0358-.043-.0644-.058-.086-.115-.1719-.172-.2578-.072-.1576-.129-.265-.172-.3223s-.086-.1218-.129-.1934c-.1-.1718-.179-.2793-.236-.3222-.043-.043-.079-.086-.108-.1289-.1-.1433-.15-.222-.15-.2364-.043-.1146-.079-.179-.108-.1933-.014-.0144-.028-.0358-.043-.0645-.114-.1575-.186-.2578-.214-.3008-.015-.0429-.036-.0787-.065-.1074-.028-.043-.057-.0859-.086-.1289-.028-.043-.057-.0931-.086-.1504-.086-.1002-.143-.1719-.172-.2148-.071-.1146-.114-.1719-.128-.1719-.015-.0143-.029-.0358-.043-.0645-.058-.0859-.101-.1503-.129-.1933-.015-.043-.036-.0788-.065-.1074-.057-.1003-.114-.1791-.172-.2364-.043-.0573-.086-.1217-.129-.1933-.129-.1289-.2-.2005-.214-.2149-.072-.1002-.115-.1575-.129-.1718 0-.0287-.015-.0573-.043-.086-.086-.1432-.136-.2148-.151-.2148-.014-.0143-.028-.0287-.043-.043-.0856-.1146-.1357-.1719-.1501-.1719-.0143-.0143-.0286-.0358-.0429-.0644-.1146-.1576-.1862-.2507-.2149-.2793-.043-.0287-.0788-.0573-.1074-.086-.0573-.1145-.0859-.222-.0859-.3222-.0287-.1289-.043-.222-.043-.2793.043-.1003.0788-.1576.1074-.1719.0143-.0286.0287-.043.043-.043l.3437-.0429c.1003-.0144.1571-.0144.1721 0 .014.0143.036.0215.064.0215.086-.0144.165-.0144.237 0h.236.15c.072-.0144.122-.0215.151-.0215l.236-.0215c.086-.0143.179-.0143.279 0 .144.0143.229.0215.258.0215.043-.0144.079-.0215.108-.0215.171.043.257.0644.257.0644h.215c.058-.0143.136-.0214.237-.0214.128.0143.229.0214.3.0214.072-.0143.158-.0214.258-.0214.158-.0144.251-.0144.279 0 .043.0143.079.0214.108.0214l.387-.0214c.143-.0144.229-.0215.257-.0215h.172c.115.0143.229.0071.344-.0215.057 0 .115-.0072.172-.0215s.107-.0286.15-.043c.115.1289.186.2006.215.2149.029 0 .057.0143.086.0429.043.0717.079.1218.107.1504.029.0287.051.0573.065.086.029.0286.043.0716.043.1289s.021.1074.064.1504c.029.0429.043.0931.043.1504 0 .0429.029.0644.086.0644.015.1003.022.1719.022.2149.014.0286.028.0572.043.0859.057.1003.093.1647.107.1934.014.0143.029.0358.043.0644.086.1862.15.3079.193.3652.086.1433.129.2292.129.2579.086.1145.136.1862.151.2148.028.0859.05.1432.064.1719.015.0143.029.0358.043.0644.086.1576.129.2507.129.2793.014.0143.022.0358.022.0645.043.1432.121.2721.236.3867.057.1289.086.222.086.2793.057.0143.086.0501.086.1074.014.043.043.0716.086.086.071-.0144.114-.0502.129-.1075.028-.0573.057-.1146.086-.1718.057-.1576.093-.2364.107-.2364.086-.1432.129-.2291.129-.2578 0-.0286.007-.0573.021-.0859.043-.086.072-.1433.086-.1719.015-.0286.029-.0573.043-.0859.072-.1576.122-.2507.151-.2793.028-.0287.057-.0573.086-.086.043-.1432.071-.222.086-.2363.028-.0143.05-.0358.064-.0645.072-.1432.107-.2148.107-.2148.043-.0859.072-.1361.086-.1504.015-.0286.029-.0573.043-.0859.043-.0716.079-.1433.108-.2149.043-.0716.093-.136.15-.1933.115-.2435.193-.4082.236-.4942.058-.0859.108-.1718.151-.2578.1-.1432.172-.2291.215-.2578.057-.0286.114-.0644.172-.1074.128-.043.207-.0573.236-.043h.107c.072 0 .129-.0071.172-.0215.057-.0143.108-.0215.151-.0215h.322l.473.0215c.157.0287.243.043.257.043.015-.0143.036-.0215.065-.0215.172.0287.272.043.301.043.043-.0143.093-.0143.15 0 .229.0143.365.0143.408 0 .229.0286.365.043.408.043h.194c.071-.0144.129-.0215.172-.0215h.257c.015-.0144.036-.0215.065-.0215h.236c.072-.0143.129-.0215.172-.0215h.172c.086-.0143.15-.0143.193 0h.108c.071 0 .136-.0072.193-.0215s.122-.0215.193-.0215c.072.0144.136.0358.194.0645.057.0286.114.0573.172.0859zm13.525 4.0821c-.129.0716-.236.1145-.322.1289-.1 0-.172-.0072-.215-.0215-.028-.0287-.064-.043-.107-.043-.057-.0143-.122-.0286-.194-.043-.057-.0143-.1-.0358-.128-.0644-.086 0-.179-.0215-.28-.0645-.143-.0143-.215-.0215-.215-.0215 0-.0143-.007-.0214-.021-.0214-.057-.0144-.129-.0144-.215 0-.086.0143-.165.0214-.236.0214-.029 0-.065-.0071-.108-.0214-.043-.0144-.1-.0215-.172-.0215-.114.0143-.2.0215-.257.0215-.058-.0144-.115-.0215-.172-.0215-.158.0286-.265.0358-.322.0215-.043-.0287-.079-.043-.108-.043-.114.0143-.215.0215-.301.0215-.086-.0143-.164-.0215-.236-.0215h-.408c-.072.0143-.143.0286-.215.043-.057 0-.122-.0072-.193-.0215-.144-.0143-.28-.0287-.409-.043s-.257-.0215-.386-.0215c-.086 0-.172.0072-.258.0215-.086 0-.179.0072-.279.0215-.043 0-.094 0-.151 0s-.107.0072-.15.0215c-.158.0716-.265.1146-.322.1289-.043 0-.086.0071-.129.0215-.072.0429-.115.1432-.129.3007-.015.1576-.029.3152-.043.4727v.4297c.014.1575.036.3151.064.4726.057.129.1.1934.129.1934.043-.0143.079-.0215.108-.0215.085 0 .136.0072.15.0215h.086c.028.0143.064.0215.107.0215s.086.0072.129.0215h.322c.058-.0143.115-.0072.172.0215.072.0143.129.0214.172.0214s.079-.0071.108-.0214c.057 0 .114-.0072.171-.0215.072-.0143.137-.0215.194-.0215.071 0 .136.0072.193.0215.057 0 .129.0071.215.0215.072 0 .122.0071.15.0214.043 0 .079-.0071.108-.0214h.129c.043-.0144.086-.0215.129-.0215.2-.0143.358-.0358.472-.0645.187.0143.294.0215.323.0215.043-.0143.1-.0215.171-.0215.172-.0286.308-.0358.409-.0215.1 0 .179-.0143.236-.0429.043.0143.086.0286.129.0429.043.0144.079.0215.107.0215.029 0 .065-.0071.108-.0215.043-.0286.086-.0429.129-.0429s.086.0143.129.0429c.043.0144.093.0072.15-.0214.129.0286.208.0501.236.0644.029 0 .058-.0072.086-.0215.015.043.036.0788.065.1074.028.0144.057.043.086.086.057.2292.086.3939.086.4941 0 .086-.015.1862-.043.3008-.015.2005-.029.3223-.043.3652-.015.043-.036.0931-.065.1504-.043.1146-.064.1934-.064.2364.014.0286.014.0573 0 .0859-.058.1146-.086.1934-.086.2363-.015.1719-.043.2865-.086.3438 0 .0429-.007.0931-.022.1504-.014.0429-.014.0931 0 .1504-.057.1718-.086.2864-.086.3437.015.043.015.0931 0 .1504-.057.1146-.093.1934-.107.2363-.014.0287-.029.0573-.043.086-.043.1145-.1.2291-.172.3437-.129.0716-.208.1074-.236.1074-.043 0-.093 0-.151 0-.043-.0143-.1-.0215-.171-.0215-.201-.0143-.323-.0286-.366-.0429-.043-.0287-.093-.043-.15-.043-.172.0287-.279.0358-.322.0215s-.079-.0215-.108-.0215c-.129 0-.215-.0071-.258-.0215-.028-.0143-.057-.0286-.086-.0429-.157 0-.272.0071-.343.0214-.072 0-.144-.0143-.215-.0429-.172.0143-.301-.0072-.387-.0645-.071.0287-.143.0358-.215.0215-.057-.0286-.107-.0573-.15-.0859-.115 0-.229 0-.344 0-.1-.0144-.2-.0215-.301-.0215-.171-.0287-.286-.0358-.343-.0215-.043.0143-.079.0215-.108.0215-.043.0143-.086.0215-.129.0215-.043-.0144-.086-.0215-.129-.0215-.043.0143-.086.0286-.128.043-.029 0-.065-.0072-.108-.0215 0 .0573-.007.1146-.021.1718 0 .0573.007.1146.021.1719.072.1719.1.2936.086.3653-.014.0572-.021.1145-.021.1718.014.0573.021.1433.021.2578v.2364.1289c.014.0286.022.0644.022.1074s-.008.0859-.022.1289v.1074c.057.0287.1.043.129.043.043-.0143.1-.0143.172 0h.129c.057-.0143.121-.0287.193-.043h.129c.043-.0143.079-.0215.107-.0215.072 0 .129.0072.172.0215.058.0143.108.0215.151.0215h.107c.043-.0143.086-.0286.129-.043.1-.0143.165-.0143.193 0 .043 0 .086.0072.129.0215.143-.0143.222-.0215.237-.0215h.171c.086 0 .165.0072.237.0215.143.0287.222.043.236.043.158-.0287.244-.0358.258-.0215h.064c.172-.0286.28-.0358.323-.0215h.107.602c.114-.0143.222-.0215.322-.0215.114-.0143.215-.0358.301-.0644l.343-.043c.043.0143.094.0143.151 0 .071-.0143.122-.0286.15-.043.172-.0143.28-.0358.322-.0644.058-.0286.108-.043.151-.043.043-.0143.079-.0215.107-.0215.043 0 .093-.0071.151-.0214.129-.0287.215-.0645.257-.1075.058-.0429.122-.0286.194.043.114.0573.165.1146.15.1719-.014.0429-.014.0716 0 .0859l.108.2363c.028.1003.043.1648.043.1934.014.0143.028.0501.043.1074v.8379l-.043.3867c.028.1289.035.2579.021.3868v.3437c.014.2148.036.3796.065.4941-.015.1576-.022.2937-.022.4083.014.1002.029.1861.043.2578.014.0859.022.1575.022.2148.014.043.007.1218-.022.2363-.043.1003-.072.1719-.086.2149-.014.0429-.043.0788-.086.1074-.028.1146-.086.1862-.172.2148-.086.0287-.207.0502-.365.0645-.086 0-.172.0072-.258.0215-.071.0143-.143.0143-.215 0-.057 0-.114-.0072-.171-.0215-.058-.0143-.122-.0215-.194-.0215h-.322c-.1-.0286-.172-.043-.215-.043-.029.0144-.057.0144-.086 0-.172-.0143-.279-.0286-.322-.0429s-.079-.0287-.108-.043c-.1-.0143-.193-.0143-.279 0s-.172.0215-.258.0215c-.157 0-.236 0-.236 0 0 .0143-.007.0215-.021.0215-.144.0143-.237.0143-.28 0s-.086-.0215-.129-.0215-.093 0-.15 0c-.043.0143-.086.0215-.129.0215s-.086-.0072-.129-.0215-.086-.0215-.129-.0215c-.043-.0143-.093-.0215-.15-.0215-.043.0143-.093.0215-.151.0215-.128-.0143-.2-.0215-.214-.0215-.015.0143-.036.0215-.065.0215-.215.0143-.365.0215-.451.0215-.072.0143-.15.0143-.236 0-.115 0-.187 0-.215 0-.015.0143-.036.0286-.065.043-.129.0143-.215.0143-.257 0-.029-.0144-.058-.0215-.086-.0215-.158-.0143-.244-.0143-.258 0 0 .0143-.022.0215-.065.0215-.186 0-.308-.0072-.365-.0215-.043 0-.1.0071-.172.0215h-.623c-.086-.0144-.172-.0287-.258-.043-.086 0-.179-.0072-.279-.0215h-.816c-.172 0-.265 0-.28 0-.014.0143-.035.0215-.064.0215h-.408c-.158.0286-.244.0358-.258.0215-.014 0-.029 0-.043 0-.072 0-.136 0-.193 0-.043.0143-.101.0215-.172.0215-.144 0-.28 0-.409 0-.114 0-.243-.0072-.386-.0215-.058 0-.115-.0072-.172-.0215-.043 0-.093.0072-.151.0215-.257.0143-.415-.0287-.472-.1289-.072-.1719-.108-.2865-.108-.3438-.043-.2291-.078-.3437-.107-.3437l.021-.3438.022-.2793c0-.1289 0-.2005 0-.2148.014-.0143.021-.0358.021-.0645 0-.1289.008-.2148.022-.2578s.021-.0859.021-.1289c0-.1289.008-.2148.022-.2578.014-.0573.021-.1218.021-.1934 0-.1718.008-.2721.022-.3007.014-.043.014-.1003 0-.1719.029-.1289.043-.2149.043-.2578 0-.0573.007-.1146.021-.1719.043-.1576.072-.2435.086-.2578.015-.1146.015-.2292 0-.3438 0-.1146 0-.2291 0-.3437 0-.043.007-.086.022-.1289.014-.043.021-.086.021-.1289 0-.0573-.007-.1075-.021-.1504 0-.0573.007-.1074.021-.1504.029-.1719.036-.2722.022-.3008 0-.0286 0-.0573 0-.0859.014-.1003.021-.1719.021-.2149.015-.0573.022-.1002.022-.1289.014-.1575.021-.2363.021-.2363.014 0 .022-.0072.022-.0215-.015-.1719-.022-.2936-.022-.3652.014-.0716.022-.1433.022-.2149 0-.0429 0-.0859 0-.1289 0-.0573-.008-.1002-.022-.1289 0-.0859-.007-.1575-.021-.2148 0-.0573 0-.1146 0-.1719-.015-.1432-.022-.2435-.022-.3008s0-.1074 0-.1504c.015-.0573.007-.1074-.021-.1504.028-.0716.043-.1432.043-.2148 0-.0859 0-.1647 0-.2363 0-.0717-.007-.1361-.022-.1934-.014-.0716-.021-.1504-.021-.2363 0-.1003-.007-.1647-.022-.1934 0-.0286 0-.0573 0-.0859-.028-.2149-.028-.4369 0-.666 0-.0717-.007-.1361-.021-.1934 0-.0716 0-.1432 0-.2148 0-.1146-.007-.222-.022-.3223 0-.1146 0-.222 0-.3223 0-.2148 0-.3509 0-.4082.015-.0573.007-.1146-.021-.1719.028-.0859.036-.1718.021-.2578-.014-.0859-.021-.1647-.021-.2363-.015-.1862-.015-.3294 0-.4297-.015-.0429-.022-.0859-.022-.1289.015-.043.022-.0788.022-.1074 0-.0573-.007-.1146-.022-.1719 0-.0573.015-.1074.043-.1504-.028-.1862-.05-.3151-.064-.3867 0-.0859-.007-.1647-.022-.2363-.014-.1433-.035-.2507-.064-.3223s-.029-.1575 0-.2578l-.065-.3008c.015-.1862.015-.2936 0-.3222-.028-.2006-.043-.3295-.043-.3868.029-.2148.036-.3509.022-.4082 0-.0573.029-.1074.086-.1504.029-.0859.05-.136.064-.1504.029-.0286.058-.0572.086-.0859.058-.0716.108-.1289.151-.1719.057-.0429.1-.0716.129-.0859.114-.043.222-.0645.322-.0645.143-.0286.25-.0429.322-.0429h.365c.158-.0143.258-.0143.301 0s.079.0286.108.0429h.515c.244-.0286.451-.0358.623-.0214.172 0 .344.0071.516.0214.043 0 .086.0072.129.0215h.129.214c.015-.0143.029-.0215.043-.0215.172.043.294.0645.366.0645.086-.0143.164-.0143.236 0 .072 0 .143.0072.215.0215h.236c.072.0143.172.0215.301.0215s.229-.0072.301-.0215c.129 0 .2.0071.215.0215h.043.15c.043-.0144.086-.0215.129-.0215.129-.0143.272-.0143.43 0h.558l.494-.0215c.072-.0286.129-.0358.172-.0215h.151.494c.129-.0143.25-.0215.365-.0215h.193c.015-.0143.029-.0215.043-.0215l.237.043c.157.0143.257.0143.3 0 .058-.0143.101 0 .129.043.043-.0287.108-.043.194-.043.1 0 .164.0143.193.043l.322-.0215c.129-.0143.215-.0286.258-.043l.258-.0215c.114-.0143.193-.0143.236 0 .043.0144.093.0287.151.043.057.0143.107.0143.15 0 .057-.0143.107-.0143.15 0 .187.086.294.1361.323.1504.129.1146.214.2005.257.2578s.058.1432.043.2578c-.028.1289-.035.222-.021.2793.014.043.021.086.021.1289-.057.2006-.093.3223-.107.3653-.057.1432-.093.2363-.107.2793 0 .0286.007.0573.021.0859-.057.1576-.086.2578-.086.3008.014.043.014.0859 0 .1289 0 .043-.007.0859-.021.1289 0 .0286-.008.0645-.022.1074l-.043.2363-.129.9024c-.014.0716-.021.1432-.021.2148 0 .0573-.015.1218-.043.1934zm18.876 10.6992c-.029.0143-.065.0286-.108.0429-.028.0144-.071.0144-.129 0-.028.0287-.064.0717-.107.1289-.029.043-.065.086-.107.129-.101.0572-.187.1002-.258.1289-.072.0143-.151.0429-.237.0859-.172.0716-.265.1074-.279.1074s-.029.0072-.043.0215c-.143.043-.243.0788-.301.1074-.043.0143-.093.0358-.15.0645-.086.0429-.143.0644-.172.0644-.029-.0143-.057-.0143-.086 0-.1.043-.179.0645-.236.0645-.043 0-.079.0071-.108.0215-.129.0429-.207.0644-.236.0644s-.057.0072-.086.0215c-.129.043-.208.0645-.236.0645-.015.0143-.036.0286-.065.0429l-.322.0645c-.057.0143-.115.0286-.172.043-.043.0143-.093.0214-.15.0214-.072.0144-.158.0215-.258.0215-.086 0-.165 0-.236 0-.144 0-.244-.0071-.301-.0215-.129-.0286-.201-.0573-.215-.0859-.014-.0143-.036-.0215-.064-.0215-.23-.0716-.38-.1432-.452-.2148-.1-.1289-.171-.2292-.214-.3008-.029-.086-.058-.1647-.086-.2363-.058-.086-.093-.1361-.108-.1504 0-.0287-.007-.0573-.021-.086-.029-.0429-.058-.0931-.086-.1504-.029-.0716-.058-.136-.086-.1933-.043-.0716-.072-.1218-.086-.1504 0-.043-.022-.0645-.065-.0645-.057-.1862-.121-.3007-.193-.3437-.029-.0716-.064-.1361-.107-.1934-.043-.0716-.086-.1432-.129-.2148-.072-.1719-.122-.2793-.151-.3223-.014-.0429-.028-.0859-.043-.1289l-.15-.1933c-.086-.1433-.136-.2149-.15-.2149 0 0-.008-.0072-.022-.0215-.071-.1146-.114-.179-.129-.1933 0-.0144-.014-.0358-.043-.0645-.057-.1575-.093-.2435-.107-.2578-.029-.0716-.065-.1432-.108-.2148-.086-.1146-.128-.1791-.128-.1934s-.008-.0286-.022-.043c-.029-.0429-.057-.0859-.086-.1289-.029-.0429-.057-.0931-.086-.1504-.043-.0429-.086-.0859-.129-.1289-.028-.0573-.057-.1074-.086-.1504-.014-.0286-.036-.0644-.064-.1074-.014-.0573-.036-.1074-.065-.1504-.028-.0716-.057-.1504-.086-.2363-.028-.0287-.057-.0645-.085-.1074-.015-.043-.029-.0788-.043-.1074-.058-.1146-.101-.1862-.129-.2149-.058-.0859-.101-.1575-.129-.2148-.115-.1862-.186-.3008-.215-.3438-.014-.043-.029-.1002-.043-.1719-.072-.1002-.107-.1575-.107-.1718 0-.0144-.015-.0215-.043-.0215-.101-.1719-.179-.2865-.237-.3438-.057-.1432-.093-.2148-.107-.2148 0 0 0-.0143 0-.043-.072-.1432-.151-.2292-.237-.2578-.043.0286-.071.0788-.085.1504-.015.0573-.029.1217-.043.1934l-.022.2363c0 .1575-.007.2435-.021.2578v.0644c0 .043.007.0931.021.1504.014.043.022.1003.022.1719 0 .0573-.008.1146-.022.1719s-.021.1146-.021.1719c0 .0716-.008.1289-.022.1718v.086l.022.4082c.014.0429.028.0859.043.1289.014.043.021.0859.021.1289.014.0573.022.1289.022.2148 0 .086-.008.1504-.022.1934 0 .043-.007.0931-.021.1504v.1719.1718c.014.0716.014.1433 0 .2149 0 .1289.007.2148.021.2578s.022.1003.022.1719c.014.0716.014.1504 0 .2363 0 .0859.014.1647.042.2363 0 .1289-.007.2005-.021.2149v.0215.1289c.014.0429.021.0859.021.1289-.014.1432-.021.2363-.021.2793.014.0286.021.0573.021.0859.015.0859.022.1575.022.2148.014.043.029.086.043.1289l.086.3223c.014.1576.029.2435.043.2578v.2149c.014 0 .021.0071.021.0215-.043.2148-.064.3509-.064.4082 0 .0429-.014.0859-.043.1289-.115.1432-.179.2148-.193.2148-.015 0-.022.0143-.022.043-.115.0716-.193.1002-.236.0859-.029 0-.043.0215-.043.0645l-.258-.043c-.201-.0286-.394-.0501-.58-.0645-.172-.0143-.315-.0286-.43-.0429-.071 0-.143 0-.215 0-.057 0-.129.0071-.214.0215-.144.0143-.237.0143-.28 0-.043-.0144-.086-.0215-.129-.0215-.028 0-.064.0071-.107.0215-.043.0143-.1.0286-.172.0429-.072-.0143-.15-.0071-.236.0215-.086.0143-.165.0215-.237.0215-.071.0143-.136.0072-.193-.0215-.201.0287-.344.0573-.43.086-.143.0286-.243.0358-.3.0214-.043-.0143-.086-.0214-.129-.0214-.086 0-.144-.0072-.172-.0215-.015 0-.036 0-.065 0l-.258-.0645c-.171-.043-.264-.0716-.279-.0859 0 0-.014-.0072-.043-.0215-.1-.0716-.172-.1146-.215-.1289-.028 0-.064-.0143-.107-.043-.014-.043-.036-.0859-.065-.1289-.014-.043-.028-.0788-.042-.1074 0-.0573 0-.1146 0-.1719.014-.0573.021-.1146.021-.1719-.014-.1718-.014-.2864 0-.3437.014-.0716.029-.1432.043-.2149.057-.1145.086-.1933.086-.2363 0-.0573 0-.1002 0-.1289.014-.1146.036-.2005.064-.2578-.028-.1432-.043-.2435-.043-.3008 0-.0716 0-.1432 0-.2148.015-.0716.022-.1433.022-.2149.043-.1718.064-.3151.064-.4297 0-.0429-.007-.0787-.021-.1074 0-.043.007-.0859.021-.1289.029-.1146.036-.1862.022-.2148-.015-.0287-.015-.0645 0-.1075 0-.1575 0-.2649 0-.3222.014-.0573.014-.1361 0-.2363l-.022-.2579c0-.0859 0-.1718 0-.2578 0-.0859-.007-.1718-.021-.2578 0-.043-.007-.0859-.022-.1289 0-.0573 0-.1217 0-.1933-.014-.0573-.021-.1146-.021-.1719.014-.0573.007-.1146-.022-.1719.029-.0716.036-.1432.022-.2148-.014-.086-.022-.1719-.022-.2579 0-.0859.008-.1647.022-.2363.029-.0859.029-.1647 0-.2363 0-.1719-.007-.2793-.022-.3223 0-.0429.008-.0859.022-.1289v-.3867c-.014-.043-.022-.0859-.022-.1289.015-.043.022-.1003.022-.1719 0-.1289 0-.2005 0-.2148.014-.0287.021-.0573.021-.086-.014-.1718-.035-.2864-.064-.3437.043-.1146.05-.2578.021-.4297l-.021-.4941c-.043-.1003-.065-.2006-.065-.3008.015-.2005.015-.3295 0-.3867-.014-.0717-.021-.1433-.021-.2149v-.3437c-.014-.1433-.014-.222 0-.2364l-.022-.3222c-.028-.1003-.042-.1791-.042-.2364s-.008-.1145-.022-.1718c-.029-.1289-.043-.2077-.043-.2364.014-.0286.014-.0573 0-.0859-.057-.2292-.086-.401-.086-.5156s0-.222 0-.3223c-.014-.043-.021-.0859-.021-.1289.014-.0573.021-.1074.021-.1504-.014-.1862-.021-.3366-.021-.4512 0-.1145-.008-.2291-.022-.3437 0-.2435-.007-.4011-.021-.4727-.015-.0716-.022-.1647-.022-.2793.015-.0859.015-.1432 0-.1718 0-.0287.007-.0573.022-.086.071-.2148.157-.358.257-.4297.101-.1002.18-.1504.237-.1504.057-.0143.114-.0358.172-.0644l.279-.0645c.129-.0429.265-.0644.408-.0644.057 0 .108.0071.151.0215.043 0 .093-.0072.15-.0215.115-.0287.186-.0358.215-.0215.043 0 .079-.0072.107-.0215l.387-.0644c.029.0143.079.0071.15-.0215.072-.0287.129-.0501.172-.0645.115-.0286.194-.0501.237-.0644.057-.0143.107-.0287.15-.043.057-.0286.107-.0573.15-.0859.158-.0716.244-.1218.258-.1504.186-.0143.308-.0287.365-.043.072-.0143.144-.0215.215-.0215.158.043.251.0645.28.0645.042-.0143.078-.0072.107.0215.086.0716.143.1504.172.2363.028.043.064.0859.107.1289s.079.0859.108.1289c.071.0716.121.1361.15.1934.072.1718.107.2649.107.2793 0 .0143.008.0358.022.0644.043.1003.064.1576.064.1719s.008.0358.022.0644c.086.1433.129.2364.129.2793.014.043.028.0788.043.1075.043.1145.071.1862.086.2148.014.0286.028.0645.043.1074.043.1003.064.1576.064.1719.014 0 .029.0143.043.043.072.1289.115.222.129.2793.029.0429.036.0931.021.1504.029.0286.051.0716.065.1289.029.0429.057.0787.086.1074.057.0716.086.1217.086.1504.014.0143.028.0358.043.0644.071.1289.107.1934.107.1934.015 0 .029.0071.043.0215.015.0286.029.0644.043.1074s.029.0931.043.1504c.057.043.1.0931.129.1504s.064.1146.107.1719c.029.0572.065.1145.108.1718.043.043.086.0931.129.1504.028.1003.071.1862.129.2578.057.0716.1.1576.129.2578.028.0287.05.0645.064.1075.014.0429.05.0644.107.0644.043.1432.065.2292.065.2578.014.0144.036.0358.064.0645.029.043.058.0788.086.1074.043.0286.079.0716.108.1289.071.1719.114.265.129.2793l.193.3223c.072.1289.115.2148.129.2578.029.043.057.0788.086.1074.028.0716.057.1289.086.1719.028.0286.064.0644.107.1074.143.1719.237.2936.279.3652.043.0717.094.1576.151.2578.1.129.157.2006.172.2149.014 0 .028.0072.043.0215.028.0286.057.0644.086.1074.043.043.086.0859.129.1289.028.0573.064.1074.107.1504.043.0286.079.0286.107 0 .129-.0143.215-.0286.258-.043.029-.0429.043-.0859.043-.1289.015-.0573.029-.1146.043-.1719.014-.0716.022-.1289.022-.1718.014-.0573.021-.1146.021-.1719.014-.0573.022-.1074.022-.1504 0-.0573 0-.1074 0-.1504.028-.1289.035-.2005.021-.2148-.014-.0144-.021-.0358-.021-.0645.028-.1002.035-.1575.021-.1719 0-.0143.007-.0358.022-.0644 0-.043.007-.0859.021-.1289.029-.0573.043-.1074.043-.1504.014-.043.014-.0859 0-.1289 0-.043 0-.086 0-.1289v-.4082c-.014-.1433-.029-.2292-.043-.2578.057-.1433.072-.2937.043-.4512-.029-.1576-.05-.2936-.064-.4082-.015-.1719-.022-.3223-.022-.4512 0-.1432.007-.3079.022-.4941.014-.086.021-.1719.021-.2578.014-.086.022-.1719.022-.2578 0-.043-.015-.1218-.043-.2364 0-.1289-.008-.2005-.022-.2148 0-.0143 0-.0287 0-.043-.014-.0859-.021-.1719-.021-.2578s-.008-.1719-.022-.2578c0-.0716 0-.1361 0-.1934 0-.0716-.007-.1432-.021-.2148-.015-.1289-.022-.2149-.022-.2578.014-.0573.022-.1074.022-.1504 0-.2722.007-.4369.021-.4942.086-.1432.143-.2291.172-.2578.029-.0286.057-.0573.086-.0859.115-.1146.179-.1647.193-.1504.015.0143.022.0072.022-.0215.129-.0286.207-.043.236-.043s.057-.0071.086-.0214c.158-.0573.251-.086.279-.086.043 0 .079-.0071.108-.0215h.258c.071-.0143.157-.0071.257.0215.172-.0143.273-.0143.301 0h.108c.171-.0143.265-.0143.279 0 .029.0143.057.0215.086.0215.114.0143.215.0287.301.043.086 0 .171.0143.257.0429.043.0144.086.0215.129.0215.058 0 .122.0072.194.0215h.258c.128.0287.207.043.236.043.028-.0143.064-.0215.107-.0215.072 0 .129.0072.172.0215.057 0 .122-.0072.193-.0215.158-.0143.258-.0143.301 0h.129c.186.043.294.0645.322.0645.043 0 .079.0143.108.0429.186.1433.308.265.365.3653.014.0429.014.0931 0 .1503v.1504c-.029.1146-.043.1934-.043.2364.014.0429.022.0931.022.1504 0 .0859-.015.179-.043.2793-.015.0859-.022.179-.022.2792.014.086.007.1862-.021.3008-.029.1146-.043.1934-.043.2364-.029.1862-.05.3079-.065.3652-.014.043-.028.1003-.043.1719-.014.0716-.021.136-.021.1933v.1719c-.015.1576-.029.3223-.043.4941 0 .1576.007.3151.021.4727.015.1146.015.2363 0 .3652-.014.1146-.021.2292-.021.3438-.014.2864-.007.5514.021.7949 0 .0573-.007.1218-.021.1934 0 .0716.007.1504.021.2363v.4512c-.014.1575-.021.2435-.021.2578.014.0143.021.0286.021.0429-.014.1146-.028.2364-.043.3653-.014.1289-.021.2506-.021.3652-.014.1432-.022.2292-.022.2578.015.0144.015.0287 0 .043-.014.2005-.014.3223 0 .3652.015.043.015.086 0 .1289-.014.1719-.021.2722-.021.3008.014.0143.021.0358.021.0645-.014.2005-.014.3437 0 .4297.015.0859.008.1647-.021.2363.029.0716.036.1575.021.2578-.014.0859-.021.179-.021.2793l.021.4727v.2148c.015 0 .022.0143.022.043.014.1002.007.1575-.022.1718-.014.0144-.014.0358 0 .0645.029.0859.036.1719.022.2578 0 .0716-.007.1504-.022.2363v.5157c.015.0716.022.136.022.1933.014.0573.036.1146.064.1719-.028.1575-.021.3223.022.4941.043.1719.086.3366.129.4942.028.0859.05.179.064.2793.014.0859.029.1718.043.2578 0 .1289.007.2506.022.3652.014.1146.021.2292.021.3438-.014.0716-.036.1432-.064.2148-.015.0573-.029.1218-.043.1934z" fill="#693821"/></svg>