<svg enable-background="new 0 0 325.29 225.29" viewBox="0 0 325.29 225.29" xmlns="http://www.w3.org/2000/svg" xmlns:xlink="http://www.w3.org/1999/xlink"><linearGradient id="a"><stop offset="0" stop-color="#cf5c2b"/><stop offset="1" stop-color="#59173e"/></linearGradient><linearGradient id="b" gradientUnits="userSpaceOnUse" x1="227.3174" x2="183.663" xlink:href="#a" y1="-82.5929" y2="34.8888"/><linearGradient id="c" gradientUnits="userSpaceOnUse" x1="177.7659" x2="137.62" xlink:href="#a" y1="11.4003" y2="223.1368"/><linearGradient id="d" gradientUnits="userSpaceOnUse" x1="176.9612" x2="125.9232" xlink:href="#a" y1="18.7693" y2="279.4156"/><linearGradient id="e" gradientUnits="userSpaceOnUse" x1="166.8944" x2="163.421" xlink:href="#a" y1="169.5006" y2="110.6706"/><linearGradient id="f" gradientUnits="userSpaceOnUse" x1="245.4435" x2="231.2934" xlink:href="#a" y1="73.9051" y2="111.7327"/><linearGradient id="g" gradientUnits="userSpaceOnUse" x1="292.6354" x2="171.1772" xlink:href="#a" y1="-33.3223" y2="248.5121"/><linearGradient id="h" gradientUnits="userSpaceOnUse" x1="223.9313" x2="215.0062" xlink:href="#a" y1="70.7516" y2="94.6113"/><linearGradient id="i" gradientUnits="userSpaceOnUse" x1="253.6972" x2="177.0882" xlink:href="#a" y1="3.1187" y2="180.8841"/><linearGradient id="j" gradientUnits="userSpaceOnUse" x1="85.4257" x2="76.5006" xlink:href="#a" y1="90.0521" y2="113.9118"/><linearGradient id="k" gradientUnits="userSpaceOnUse" x1="115.1918" x2="38.5824" xlink:href="#a" y1="22.4187" y2="200.1849"/><path d="m282.19 126.19c-.13-1.94-.26-3.88-.37-5.83-.12-2.05-.24-4.09-.35-6.14-.07-1.4-.18-2.88-.22-4.32-.03-1.2.43-3.18-.18-4.26-.37-.65-1.15-.84-1.85-.97-.92-.17-1.84-.34-2.76-.51 1.23-.3 2.45-.69 3.63-1.16.26-.11.54-.23.72-.46.16-.21.21-.49.25-.75.41-2.66.15-5.49.14-8.18-.01-2.75-.02-5.49-.03-8.24-.02-2.61-.02-5.23-.04-7.84-.01-.87.34-2.74-.06-3.51-.33-.63-1.09-.59-1.7-.66s-1.22-.07-1.83-.03c-.91.06-1.82.21-2.72.35 1.18-.35 2.41-.51 3.6-.82.77-.2 1.54-.46 2.24-.85.42-.24.9-.47 1.14-.93.1-.2.15-.44.19-.66.1-.48.13-.98.16-1.47.08-1.35.13-2.71.15-4.07.01-.68.02-1.37.01-2.06-.01-.45-.17-.87-.21-1.31-.16-1.85-.86-3.62-1.99-5.04-1.12-1.41-2.65-2.44-4.33-2.91-.62-.17-1.27-.27-1.91-.3-76.04-2.6-150.61-2.7-223.57-.02-.28.01-.6-.02-.88.06-.3.08-.59.21-.88.31-.6.22-1.19.47-1.77.76-1.12.56-2.17 1.32-2.88 2.41-.41.62-.7 1.32-1.08 1.96-.19.32-.45.57-.61.91-.77 1.64-1.55 3.29-2.62 4.74-1.04 1.42-1.36 3.66-1.24 5.39.16 2.36.21 4.74.41 7.09.32 3.75.03 7.51.41 11.29.06.54.14 1.13.53 1.49.27.25.63.33.97.41 1.12.26 2.25.52 3.37.78-1.39.95-3.46 1.02-4.19 2.6-.24.51-.28 1.08-.31 1.65-.13 2.01-.31 4.01-.44 6.02-.06.9-.1 1.81-.13 2.71-.03.86-.1 1.69-.17 2.55-.18 1.99-.66 4.6-.08 6.55.56 1.89 2.78 1.96 4.32 2.42-.81.1-1.43.79-1.9 1.5-.24.35-.41.73-.63 1.09-.2.32-.38.65-.55.98-.33.68-.59 1.39-.79 2.12-.13.49-.2.88-.22 1.39-.02.46-.04.91-.05 1.37-.03.91-.06 1.83-.08 2.74-.04 1.83-.05 3.65-.04 5.48.01 1.77-.38 3.48.33 5.23.7 1.73 1.91 3.22 3.43 4.19 1.23.79 2.61 1.22 4.05 1.3 73.38 3.41 147.97 3.36 223.72-.02 2-.09 3.93-.94 5.4-2.37.71-.69 1.32-1.3 1.85-2.16.64-1.05 1.24-2.13 1.8-3.23 1.35-2.68 3.06-5.65 2.84-8.76z" fill="url(#b)"/><path d="m273.88 135.91c-75.76 3.38-150.34 3.43-223.71.01-3.26 0-6.31-2.47-7.52-5.59-.54-1.37-.66-2.88-.57-4.36.01-.26.04-.52.11-.78.11-.4.28-.75.33-1.16.02-.22.05-.43.07-.65.12-1.18.16-2.38.26-3.56.06-.66.13-1.36.31-1.99.2-.74.51-1.41 1.09-1.86 2.42-1.91 7.14-1.89 10.66-1.97.68-.03 1.32-.04 1.89-.08 1.53-.1 3.06-.14 4.6-.13-3.63-.01-7.26-.35-10.83-1.01-1.7-.3-3.39-.69-5.05-1.14-.4-.1-.83-.25-1.21-.44-.53-.25-.98-.61-1.21-1.15-.2-.47-.18-.98-.17-1.47.01-.48-.05-.97-.02-1.45.04-1.02.16-2.02.26-3.03.1-.81.18-1.64.23-2.47.12-2.2.26-4.38.42-6.57.05-.66.12-1.38.56-1.85.27-.28.61-.43.95-.56.93-.36 1.88-.63 2.86-.8.45-.09.94-.09 1.38-.22.51-.17.92-.28 1.48-.35 5.35-.66 10.7-1.32 16.05-1.98.64-.08 1.28-.16 1.92-.23-8.07-1.03-16.13-2.1-24.2-3.13-.35-.05-.71-.09-1.06-.14-.32-.04-.66-.09-.88-.34-.02-.01-.04-.04-.05-.05-.16-.22-.18-.5-.21-.79-.37-4.62.05-9.38-.2-14.03-.02-.26-.09-1.56-.16-3.04-.11-2.13-.24-4.59-.31-4.59-.34-5.12 3.37-9.54 8.23-9.71 72.95-2.68 147.52-2.59 223.55.01 4.88.17 8.63 4.62 8.25 9.76-.13 1.76.2 3.44-.21 5.21-.09.41-.22.84-.51 1.13-.27.25-.62.34-.98.43-.92.23-1.83.48-2.76.71-1.22.31-2.43.59-3.67.74-7.33.83-14.65 1.66-21.98 2.5-.2.01-.39.04-.59.06-.23.03-.48.05-.71.08.59-.01 1.16-.03 1.75-.03 9.18-.17 18.38-.32 27.56-.49.26 0 .54 0 .75.17.23.18.29.52.33.83.05.41.06.81.05 1.2-.01 1.23-.22 2.42-.22 3.67 0 1.11.26 2.2.24 3.32-.02 1.63-.07 3.27-.13 4.94-.15 3.74-.39 7.53-.78 11.26-.06.54-.13 1.13-.48 1.53-.27.31-.66.48-1.04.61-.23.09-.48.17-.72.22-5.39 1.63-11.31.34-16.84 1.35-.37.05-.73.13-1.09.22-.12.03-.24.06-.37.09.45.04.9.06 1.36.12 6.06.47 12.11 1.11 18.14 1.93.71.09 1.49.23 1.91.84.32.47.33 1.09.33 1.66v1.89c0 1.9 0 3.82.09 5.72.11 2.52.26 5.03.42 7.55.07 1.23.15 2.47.23 3.7.34 5.1-3.35 9.51-8.18 9.73z" fill="url(#c)"/><path d="m281.03 82.58c-.02 1.63-.07 3.27-.13 4.94-3.1.3-6.16.56-9.14.91-.69.08-1.39.16-2.08.24-2.57.29-5.14.54-7.71.78-1.29.12-2.57.22-3.86.34-.82.07-1.56.42-2.36.51-1.12.13-2.34-.18-3.47-.25-1.26-.08-2.52-.11-3.77-.09-2.53.03-5.05.24-7.56.54-5.03.61-10.01 1.62-15 2.5-8 1.41-16.06 2.49-24.15 3.21 4.4.46 8.78 1.22 13.09 2.27-1.62.14-3.24.26-4.85.37-5.14.34-10.29.51-15.44.6s-10.31.09-15.46.09c-5.15-.01-10.31-.02-15.46.03s-10.3.17-15.44.43c-2.57.13-5.14.29-7.71.5-.64.05-1.28.11-1.92.17-.78.07-1.52.31-2.31.4-6.14.76-12.27 1.71-18.34 2.98-9.44 1.97-18.91 3.88-28.5 4.58-1.74.12-3.47.23-5.21.35-8.26 1.76-17.19 2.12-25.29 3.17-2.75.36-5.56.56-8.37.67-1.7-.3-3.39-.69-5.05-1.14-.4-.1-.83-.25-1.21-.44-.53-.25-.98-.61-1.21-1.15-.2-.47-.18-.98-.17-1.47.01-.48-.05-.97-.02-1.45.04-1.02.16-2.02.26-3.03 7.42-.65 15.02-2.92 22.16-4.01 9.17-1.38 18.49-2.21 27.73-2.75 10.46-.61 20.89.7 31.31.7 9.66 0 19.3-.89 28.91-1.71 18.73-1.6 37.43-3.26 56.14-4.98-4.07-.07-8.14-.19-12.21-.34-5.19-.19-10.37-.44-15.56-.72-1.21-.07-2.45-.23-3.64-.09-1.24.15-2.49.19-3.74.17-2.47-.04-4.93-.37-7.33-.99-1.41-.37-2.8-.84-4.23-1.1-2.41-.45-4.89-.31-7.34-.34-9.16-.12-18.18-2.69-27.34-2.59-2.4.03-4.8.24-7.2.46-2.55.24-5.09.5-7.65.56-1.13.03-2.31.12-3.4-.15-.85-.21-1.81-.1-2.68-.13-1.55-.04-3.1-.08-4.65-.12-3.1-.07-6.2-.11-9.3-.13-11.75-.06-23.47.63-35.21.53-5.01-.04-10.11-.16-15.07-.92-.02-.01-.04-.04-.05-.05-.16-.22-.18-.5-.21-.79-.37-4.62.05-9.38-.2-14.03-.02-.26-.09-1.56-.16-3.04 5.99-.54 12.03-.69 18.02-1.15 11.71-.93 23.44-1.31 35.22-1.26 23.35.12 46.63 1.69 69.9 3.57 23.28 1.88 46.52 4.18 69.8 5.92 11.77.88 23.55 1.42 35.35 1.42 3.46 0 6.94-.22 10.44-.5-.01 1.23-.22 2.42-.22 3.67 0 1.11.26 2.2.25 3.33zm.37 32.35c-.09-1.9-.09-3.82-.09-5.72-7.43-.85-14.88-1.73-22.36-2.28-12.82-.93-25.69-.78-38.52-.23-2.67.12-5.3.18-7.94.54-1.28.17-2.56.34-3.84.5-5.12.64-10.26 1.17-15.4 1.58-2.01.16-4.01.31-6.02.43l15.6-.12 15.6-.12 7.8-.06 3.9-.03c.55 0 1.11.03 1.65-.09.33-.08.64-.22.97-.27 1.16-.18 2.47.06 3.64.13 1.29.07 2.58.15 3.87.23 2.58.17 5.16.36 7.74.56 4.06.32 8.12.68 12.17 1.07 4.42.43 8.82.97 13.23 1.54-10 1.01-20 2.06-30.02 2.64-23.06 1.34-46.14 3.04-69.24 2.56-22.78-.48-45.52-1.86-68.31-1.77-12.01.04-24.02.25-36.01.62-8.85.27-17.82.22-26.66 1.19-.17.63-.24 1.33-.31 1.99-.1 1.18-.13 2.38-.26 3.56 9.84.43 19.8-.28 29.62-.31 12-.03 24.01.1 36.01.4 22.75.57 45.47 1.9 68.22 2.33 23.14.44 46.24-1.32 69.33-2.55 11.9-.63 23.9-.65 35.81-.78h.24c-.17-2.5-.31-5.01-.42-7.54z" fill="url(#d)"/><g fill="#eb924d"><path d="m44.03 108.4c-.02.94-.02 1.93.27 2.82-.53-.25-.98-.61-1.21-1.15-.2-.47-.18-.98-.17-1.47.01-.48-.05-.97-.02-1.45.07-1.85.39-3.66.49-5.5.12-2.2.26-4.38.42-6.57.05-.66.12-1.38.56-1.85.27-.28.61-.43.95-.56.93-.36 1.88-.63 2.86-.8.45-.09.94-.09 1.38-.22.51-.17.92-.28 1.48-.35 5.35-.66 10.7-1.32 16.05-1.98-5.74 1.23-11.49 2.44-17.23 3.67-1.12.24-2.61.23-3.55 1-.19.16-.36.35-.52.54-.14.17-.27.37-.43.52-.31.29-.42.74-.55 1.15-.38 1.16-.6 2.38-.65 3.61-.02.46-.02.93-.07 1.39-.01.11-.03.23-.05.34-.02.13-.09.23-.13.36-.29.93-.25 1.96-.12 2.92.05.35.16.68.23 1.03.15.84.03 1.72.01 2.55z"/><path d="m251.28 73.82c-.33-.03-.65-.04-.97-.06h1.55c-.19.01-.39.03-.58.06z"/><path d="m256.56 102.07c1.49.16 2.98.3 4.47.41-.37.05-.73.13-1.09.22-1.13-.22-2.27-.44-3.38-.63z"/><path d="m278.56 99.73c.23-.98.17-2.02.1-3.03-.13-1.88-.27-3.75-.4-5.63-.02-.36-.07-.76-.34-.98-.22-.18-.53-.18-.79-.17-2.22.08-4.44.16-6.65.23 2.4-.22 4.77-.89 6.93-1.99.62-.32 1.27-.72 1.5-1.4.12-.35.12-.72.12-1.1-.04-2.95-.53-6.25-.86-9.17-1.05-1.05-2.62-1.19-4.05-1.28-5.79-.38-11.6-.75-17.39-1.13-1.38-.1-2.93-.16-4.41-.22 9.18-.17 18.38-.32 27.56-.49.26 0 .54 0 .75.17.23.18.29.52.33.83.2 1.67-.17 3.22-.17 4.88 0 1.11.26 2.2.24 3.32-.09 5.29-.35 10.81-.92 16.21-.06.54-.13 1.13-.48 1.53-.27.31-.66.48-1.04.61-.23.09-.48.17-.72.22.34-.41.57-.91.69-1.41z"/><path d="m42.4 70.61c-.04-.63-.37-7.63-.46-7.63-.34-5.12 3.37-9.54 8.23-9.71 72.95-2.68 147.52-2.59 223.55.01 4.88.17 8.63 4.62 8.25 9.76-.13 1.76.2 3.44-.21 5.21-.09.41-.22.84-.51 1.13-.27.25-.62.34-.98.43-.91.23-1.82.5-2.74.7.8-.76 1.7-1.66 2.07-2.76.25-.74.05-1.39-.19-2.1-.36-1.1-.43-2.15-.47-3.3-.05-1.42.19-3.47-.88-4.61-.8-.85-1.87-1.6-2.88-2.13-2.51-1.3-5.4-1.57-8.15-1.69-.14-.01-.28-.01-.41-.02-5.08-.18-10.17-.19-15.24.35-.62.07-1.15.25-1.75.37-.74.15-1.62-.04-2.37-.08-1.72-.09-3.44-.18-5.17-.25-3.45-.14-6.89-.23-10.34-.28-2.58-.03-5.17-.04-7.75-.04-.82 0-1.63 0-2.45 0-1.57 0-3.14-.01-4.71-.01-2.18 0-4.35-.01-6.53-.01-.1 0-.21 0-.31 0-3.45-.01-6.9-.01-10.34-.02-1.72 0-3.45-.01-5.17-.01-.78 0-1.67.12-2.44-.04-.78-.16-1.43-.66-2.26-.74-.75-.07-1.52.07-2.27.13-1.88.16-3.76.35-5.64.57-.85.1-1.78.24-2.35.92-.2.23-.34.52-.58.7-.53.4-1.26.14-1.87-.09-1.22-.46-2.51-.71-3.8-.77-1.17-.05-2.32.17-3.49.09-.74-.05-1.44-.23-2.16-.38-2.84-.59-5.81-.63-8.68-.85-2.13-.16-4.27-.28-6.4-.36-6.89-.26-13.8-.12-20.69.19-3.45.15-6.9.35-10.34.56-1.58.1-3.33.45-4.9.23-.45-.06-.88-.25-1.32-.34-.47-.09-.94-.08-1.42-.07-1.91.01-3.83.04-5.74.05-2.24.01-4.49 0-6.73 0-.76 0-1.49.16-2.23.16-.68 0-1.35-.16-2.03-.15-1.42.01-2.83.31-4.15.87-.51.22-1.03.48-1.58.45-1-.06-1.7-1.06-2.61-1.52-2.16-1.09-4.4.99-6.6.14-1.1-.42-2.22-.36-3.38-.37-1.47-.02-2.95-.02-4.42-.02-5 .03-10 .21-14.97.74-2.48.27-4.95.62-7.41 1.09-1.19.22-2.4.59-3.59.74-.38.05-.65.04-.98.28-1.46 1.09-5.51 7.17-2.62 9.3.18.14.38.25.59.34.31.13.64.18.95.31.32.13.75.05 1.08.04.82-.01 1.65-.01 2.47-.02.87-.01 1.76-.01 2.6.25-1.88.4-3.75.81-5.63 1.21-.61.13-1.22.27-1.79.54-.1.05-.2.06-.3.11-.4.17-.7.66-.84 1.07-.37 1.04-.14 2.2-.3 3.28-.29 1.93.07 4.03.25 5.97.23 2.48.51 4.97.87 7.44-.35-.05-.71-.09-1.06-.14-.34-.04-.71-.1-.93-.39-.16-.22-.18-.5-.21-.79-.36-4.62.06-9.38-.19-14.04z"/><path d="m282.04 126.19c-.26-3.75-.48-7.5-.65-11.25-.11-2.53-.09-5.07-.09-7.6 0-.57-.01-1.19-.33-1.66-.42-.61-1.2-.75-1.91-.84-6.03-.81-12.08-1.46-18.14-1.93 5.4 1.1 10.98 2.51 16.11 4.01 1 .3 1.08 1.13 1.49 2.13.4 1.01.44 2.15.46 3.25.01.45.02.92-.12 1.36-.31.97-1.27 1.51-2.14 1.97.65.19 1.3.39 1.96.58.16.05.32.1.43.22.13.14.17.36.2.57.24 1.81.06 3.71.07 5.55.01 1.18.01 2.37.04 3.54.01.32.13.63.2.97.11.69.04 1.4-.16 2.06-.39 1.37-1.28 2.59-2.41 3.36-1.97 1.36-4.41 1.63-6.75 1.81-3.9.3-7.82.27-11.71.66-1.3.12-2.58.25-3.86.36-2.58.22-5.16.43-7.74.61-4.88.35-9.77.61-14.64.78-11.55.41-23.13.37-34.69.31-1.4-.01-2.8-.01-4.21-.02-1.13-.01-2.21.16-3.33.04-2.71-.29-5.42.24-8.11.55-3.15.37-6.53.41-9.24-1.31-.87-.55-1.71-1.29-2.72-1.31-.84-.02-1.6.47-2.35.85-1.45.73-3.02 1.12-4.61 1.34-.03 0-.06.01-.09.01-3.36.46-6.6.21-9.96-.03-2.47-.18-5.06.26-7.41-.66-1.82-.71-3.73-1.71-5.6-1.17-.66.19-1.25.56-1.89.83-1.23.51-2.57.61-3.89.69-.82.05-1.65.08-2.48.11-3.44.12-6.88.1-10.32-.06-1.45-.07-2.92-.05-4.31-.49-.97-.3-1.93-.11-2.93-.04-4.18.29-8.37.36-12.56.21-1.71-.06-3.41-.16-5.12-.29-.83-.07-1.69-.22-2.53-.22-.57 0-1.1.2-1.68.2-3.47-.02-6.93-.07-10.4-.11-5.93-.06-11.86-.13-17.79-.19-4.06.58-7.44-.16-11.46-.93-3.29-.65-6.87-2.06-8.24-5.29-.57-1.35-.67-2.85-.62-4.31.01-.43.05-.86 0-1.29-.05-.4-.18-.77-.24-1.16-.19-1.32.2-2.85.51-4.12.16-.66.36-1.33.8-1.82.4-.45.96-.71 1.52-.9 1.48-.5 3.05-.6 4.6-.7 2.23-.14 4.47-.28 6.7-.41.45-.03.9-.05 1.35-.07-.05-.23-.09-.46-.09-.71l.01-.1c-1.37-.03-2.73-.05-4.1-.06-3.52.08-8.24.05-10.66 1.97-1.08.85-1.27 2.44-1.39 3.85-.11 1.4-.15 2.82-.33 4.2-.05.41-.22.76-.33 1.16-.07.26-.1.52-.11.78-.09 1.47.04 2.99.57 4.36 1.21 3.12 4.25 5.59 7.52 5.59 73.37 3.41 147.96 3.36 223.71-.01 4.86-.28 8.55-4.69 8.19-9.78z"/><path d="m55.48 98.52c0 1.04.04 2.07.09 3.1.03.52.05 1.03.09 1.55.02.38 0 .79.08 1.16.06.31.14.57.15.9.04.88.08 1.77.12 2.65.08 1.77.16 3.53.24 5.3.1 2.26.2 4.52.3 6.78.06 1.26.26 2.34.89 3.41.12.2.24.41.38.6.24.33.53.55.88.72 1.32.62 2.81.92 4.22 1.16 2.19.36 4.41.45 6.62.53 29.18 1.09 58.38 2.19 87.56 1.42 3.57-.09 7.26-.19 10.57 1.22-1.51-2.86-5.16-3.27-8.26-3.35-32.43-.77-64.88-1.65-97.21-4.51-.89-.08-1.85-.2-2.47-.87-.44-.48-.62-1.16-.78-1.82-1.65-7.06-1.99-14.47-.98-21.67.06-.44.18-.91.16-1.35-.02-.46-.06-.92-.07-1.38-.01-.96.02-1.92.11-2.87-.13-.22-.43-.22-.67-.2-.62.07-1.23.14-1.85.21.04.62-.01 1.23-.07 1.84-.02.21.01.37.03.57.04.41-.03.85-.05 1.26-.03.61-.05 1.23-.07 1.84 0 .6-.01 1.2-.01 1.8z"/><path d="m168.93 129.36c.36-.97 1.57-1.14 2.56-1.16 7.86-.16 15.71-.33 23.57-.49 7.42-.16 14.84-.31 22.26-.47 2.39-.05 4.95-.05 6.92 1.37-.04-.3-.09-.61-.13-.91.85-.15 1.66-.34 2.52-.28.47.04.95-.13 1.42-.19 1.1-.16 2.21-.22 3.31-.27 6.11-.28 12.23-.37 18.33-.71 1.54-.09 3.08-.19 4.62-.31 1.52-.12 3.07-.21 4.59-.44.22-.03.41-.11.64-.13.29-.02.57-.03.86-.06 1.56-.14 3.12-.45 4.55-1.14 1.8-.88 3.39-2.44 3.97-4.44.26-.89.31-1.83.35-2.76.18-4.26.13-8.54-.17-12.8-.21-.22-.7.17-.78.47-.74 3.1-1.3 6.24-1.66 9.41-.21 1.88-.4 3.88-1.5 5.36-1.21 1.63-3.23 2.26-5.13 2.73-10.12 2.48-20.6 2.72-30.99 2.95-9.68.22-19.36.43-29.04.65-8.06-.29-16.32 1.07-24.34.15-2.25-.26-4.53-.69-6.77-.35-.17.03-.35.06-.46.2-.08.1-.12.23-.14.36-.22 1.03.22 2.29.64 3.26z"/></g><path d="m268.98 111.29c-.02-3.63-.05-7.24-.08-10.87-.02-3.48-.05-6.95-.07-10.43-.04-4.19.12-8.41-.34-12.56-.09-.81-.28-1.66-.27-2.48.01-1.23-.22-2.18-.73-3.38-.67-1.61-1.63-3.07-2.7-4.4-2.34-2.94-5.71-3.07-9.22-3.23-3.69-.16-7.36-.01-11.03-.04-4.11-.03-8.22-.04-12.33-.08-4.99-.04-9.99-.09-14.98-.14-5-.05-10.01-.11-15.01-.17-2.5-.03-5.01-.05-7.51-.08-.52-.01-1.06-.06-1.57.07-.32.08-.61.21-.94.25-1.12.12-2.39-.18-3.49-.42.15-2.73.6-5.44 1.35-8.05-1.02 2.71-2.2 5.36-3.54 7.91-.09.16-.18.33-.34.42-.16.08-.35.06-.53.03-.38-.06-.78-.09-1.15-.19-.86-.23-1.79-.13-2.68-.14-3.86-.03-7.72-.05-11.59-.07-7.59-.03-15.18-.02-22.77.03-8.14.06-16.27-.05-24.42-.09-2.21-.02-4.42-.03-6.63-.04-.95 0-1.86-.05-2.79.17-.96.22-2.13.04-3.1-.02-.54-.04-1.12-.1-1.55-.45-.43-.34-.64-.9-.83-1.44-.4-1.1-.79-2.21-1.19-3.31.06 1.29.19 2.57.38 3.84.06.42.08.95-.27 1.15-.11.07-.25.08-.38.09-.43.04-.89.15-1.32.06-.83-.17-1.65-.12-2.51-.12-9.21.01-18.42-.01-27.64-.05-5.17-.01-17.58-2.79-19.28 4.62-.24 1.03-.22 2.09-.28 3.15-.18 3.2-.07 6.42-.02 9.63.14 10.6.42 21.21.84 31.8.06 1.62.13 3.25.32 4.87.15 1.28.07 2.95 1.02 3.95.32.34.57.67.85 1.07.58.78 1.37 1.37 2.23 1.79 1.86.92 4 1.16 6.04 1.26 6.69.34 13.38.62 20.05.85 6.72.24 13.45.44 20.17.57 6.72.14 13.45.22 20.17.27 6.1.05 12.2.06 18.3.07 3.11 0 6.23.01 9.34 0 3.36 0 7.43-1.1 10.52.59 1.54.84 2.85 2.2 3.58 3.87-.12-1.35-.09-2.72.1-4.07 2.44-.37 4.9-.58 7.36-.63 1.06-.02 2.08.15 3.15.14l3.75-.03c5-.04 10-.08 15-.14 3.1-.03 6.2-.08 9.3-.11 6.72-.07 13.45-.25 20.17-.51 1.21-.05 2.43-.1 3.63-.15 9.27-.39 18.54-.96 27.78-1.73.79-.07 1.55-.15 2.28-.3 1.19-.25 2.3-.69 3.27-1.56 1.19-1.06 2.33-2.22 3.13-3.61 1.34-2.26 1.02-4.85 1-7.43zm-5.01 4.92c-.49.86-1.39 1.72-2.12 2.37-.18.15-.45.34-1.15.47-.52.11-1.14.17-1.75.22-8.88.75-18.16 1.32-27.59 1.73-1.2.05-2.4.1-3.6.14-7.05.27-13.61.44-20.05.51-19.12.25-37.98.37-56.04.37-8.1 0-16.2-.02-24.31-.07-6.67-.05-13.44-.14-20.1-.27-6.65-.14-13.42-.32-20.1-.56s-13.4-.52-20-.86c-1.46-.06-3.12-.21-4.29-.78-.28-.15-.42-.27-.46-.31-.22-.31-.48-.67-.8-1.05-.02-.19-.04-.4-.05-.57-.04-.34-.06-.67-.09-.98-.15-1.37-.22-2.78-.28-4.47-.41-10.48-.69-21.13-.84-31.66l-.02-1.78c-.05-2.6-.09-5.06.05-7.49.01-.27.02-.56.04-.85.02-.59.04-1.12.11-1.43.15-.65 1.9-1.32 5.46-1.32 1.77 0 3.65.15 5.31.29 1.42.12 2.77.24 3.92.24 8.23.04 16.47.05 24.71.05h4.63c6.16 0 12.32.02 18.48.06l5.95.04c4.35.04 8.69.06 13.04.06 1.83 0 3.66 0 5.5-.01 4.58-.04 9.16-.06 13.74-.06 15.53 0 31.36.19 46.67.36 12.01.14 24.44.27 36.61.32l.6.01c1.07 0 2.13-.01 3.2-.02 1.05-.01 2.08-.02 3.12-.02 1.52 0 2.77.02 3.91.07h.12c3.3.16 4.83.34 5.72 1.46.92 1.15 1.55 2.19 1.98 3.19.32.77.33 1 .33 1.3-.01.98.12 1.84.22 2.53.02.2.06.41.08.61.32 2.89.31 5.87.31 9.03-.01 1-.01 1.98 0 2.98l.15 21.26c.01.47.02.91.04 1.35.01 1.5.04 2.83-.36 3.54z" fill="url(#e)"/><g fill="#eb924d"><path d="m55.56 91.79 5.51-1.15-.23-.56-5.71.72z"/><path d="m262.82 74.42 6.38.55v-1.51l-6.91.32z"/><path d="m263.27 103.53 7.06 1.43-.15-1.2-7.59-.71z"/><path d="m242.58 97.14c-5.38-3.19-14.32-2.2-18.59 2.08-2.69 2.7-2.82 7.75 0 10.43 6.21 5.92 17.12 3.39 21.06-3.93.08-.07.15-.14.23-.22 3.01-2.87.86-7.65-2.7-8.36z"/></g><path d="m243.85 94.33c-5.38-3.19-14.32-2.2-18.59 2.08-2.69 2.7-2.82 7.75 0 10.43 6.21 5.92 17.12 3.39 21.06-3.93.08-.07.15-.14.23-.22 3.01-2.86.87-7.64-2.7-8.36z" fill="url(#f)"/><path d="m242.58 96.14c-5.38-3.19-14.32-2.2-18.59 2.08-2.69 2.7-2.82 7.75 0 10.43 6.21 5.92 17.12 3.39 21.06-3.93.08-.07.15-.14.23-.22 3.01-2.87.86-7.64-2.7-8.36z" fill="url(#g)"/><path d="m222.12 85.41c-3.4-2.01-9.03-1.39-11.72 1.32-1.69 1.7-1.78 4.89 0 6.58 3.92 3.73 10.8 2.14 13.28-2.48.05-.05.1-.09.14-.14 1.9-1.82.55-4.83-1.7-5.28z" fill="#eb924d"/><path d="m222.93 83.64c-3.4-2.01-9.03-1.39-11.72 1.32-1.69 1.7-1.78 4.89 0 6.58 3.92 3.73 10.8 2.14 13.28-2.48.05-.05.1-.09.14-.14 1.9-1.82.55-4.83-1.7-5.28z" fill="url(#h)"/><path d="m222.12 84.78c-3.4-2.01-9.03-1.39-11.72 1.32-1.69 1.7-1.78 4.89 0 6.58 3.92 3.73 10.8 2.14 13.28-2.48.05-.05.1-.09.14-.14 1.9-1.82.55-4.83-1.7-5.28z" fill="url(#i)"/><path d="m83.62 104.71c-3.4-2.01-9.04-1.39-11.72 1.32-1.69 1.7-1.78 4.89 0 6.58 3.92 3.73 10.8 2.14 13.28-2.48.05-.05.1-.09.14-.14 1.9-1.82.55-4.83-1.7-5.28z" fill="#eb924d"/><path d="m84.42 102.94c-3.4-2.01-9.04-1.39-11.72 1.32-1.69 1.7-1.78 4.89 0 6.58 3.92 3.73 10.8 2.14 13.28-2.48.05-.05.1-.09.14-.14 1.9-1.82.55-4.83-1.7-5.28z" fill="url(#j)"/><path d="m83.62 104.08c-3.4-2.01-9.04-1.39-11.72 1.32-1.69 1.7-1.78 4.89 0 6.58 3.92 3.73 10.8 2.14 13.28-2.48.05-.05.1-.09.14-.14 1.9-1.82.55-4.83-1.7-5.28z" fill="url(#k)"/><path d="m264.83 96.95c-.02 6.52-.37 13.13-1.05 19.74-.18 1.77-1.6 3.13-3.32 3.24-65.18 4.41-130.63 5.08-195.81.64-1.76-.13-3.16-1.55-3.31-3.33-1.05-12.98-2.13-26.79-1.62-39.86.07-2.09.18-4.17.36-6.21.14-1.82 1.65-3.24 3.45-3.3 69.57-2.06 135.05-2 196.41 1.49 1.69.09 3.09 1.38 3.32 3.1 1.08 7.84 1.59 16.07 1.57 24.49z" fill="#eb924d"/></svg>