<svg fill="none" height="38" viewBox="0 0 135 38" width="135" xmlns="http://www.w3.org/2000/svg" xmlns:xlink="http://www.w3.org/1999/xlink"><linearGradient id="a"><stop offset="0" stop-color="#cf5c2b"/><stop offset="1" stop-color="#59173e"/></linearGradient><linearGradient id="b" gradientUnits="userSpaceOnUse" x1="76.7531" x2="73.5917" xlink:href="#a" y1="-31.04" y2="-8.85039"/><linearGradient id="c" gradientUnits="userSpaceOnUse" x1="73.9716" x2="60.0165" xlink:href="#a" y1="-26.5396" y2="118.511"/><linearGradient id="d" gradientUnits="userSpaceOnUse" x1="69.481" x2="65.1022" xlink:href="#a" y1="-2.75645" y2="109.241"/><linearGradient id="e" gradientUnits="userSpaceOnUse" x1="68.4694" x2="68.4694" xlink:href="#a" y1="53.5376" y2="25.4827"/><linearGradient id="f" gradientUnits="userSpaceOnUse" x1="106.638" x2="103.452" xlink:href="#a" y1="5.12022" y2="14.8507"/><linearGradient id="g" gradientUnits="userSpaceOnUse" x1="120.187" x2="92.4708" xlink:href="#a" y1="-21.8635" y2="51.6213"/><path d="m134.916 16.8626c-.132-.5219-.412-1.0131-.649-1.5044-.009-.023-.026-.0537-.035-.0767-.307-.6217-.649-1.228-1.018-1.8267-.184-.2994-.377-.591-.57-.8904-.035-.0614-.078-.1074-.122-.1535-.053-.0537-.079-.1151-.114-.1765-.088-.1458-.193-.2763-.299-.4068-.359-.4451-.727-.8826-1.192-1.2434-.228-.1765-.474-.33-.737-.4528-.149-.0691-.298-.1228-.456-.16888-.149-.03837-.298-.05372-.447-.08443 0-.0614.017-.13815.026-.19955.009-.06908.009-.13816 0-.21491-.009-.14583-.035-.29166-.07-.42982-.079-.28398-.202-.55262-.351-.81358-.166-.29166-.351-.56797-.552-.8366-.106-.13816-.211-.26864-.325-.39912-.079-.09978-.114-.21491-.184-.32236-.061-.0921-.132-.18421-.193-.27631-.044-.0614-.079-.11513-.114-.17653-.044-.08443-.131-.14583-.193-.21491-.14-.14583-.289-.29166-.43-.44517-1.061-1.13594-2.148-2.27188-3.446-3.22362-.561-.41446-1.167-.79055-1.807-1.09756-.184-.09211-.368-.16886-.552-.237938-1.377-.53727-2.815-.621698-4.333-.644724-1.596-.023026-3.201-.046052-4.797-.069078-1.605-.023026-3.201-.046051-4.806-.061402-1.604-.023026-3.201-.038376-4.806-.053727-1.604-.015351-3.2093-.030701-4.8142-.046052-1.6049-.0153503-3.2098-.0307008-4.8146-.0383761-1.6049-.0153506-3.2098-.0230259-4.8235-.0307012-1.6049-.0076753-3.2185-.0153506-4.8234-.0230258-1.6137-.0076753-3.2186-.01535061-4.8322-.01535061-1.6225 0-3.2361 0-4.841-.00767529-1.6137 0-3.2273 0-4.841 0s-3.2273 0-4.841.00767529c-1.6136 0-3.2273.00767531-4.8497.01535061-1.6137.0076752-3.2361.0153505-4.8498.0153505-1.6224.0076753-3.2361.0153506-4.8585.0230259s-3.2361.0230259-4.8585.0307011c-1.6224.0153506-3.2449.0230256-4.8673.0383766-1.6224.01535-3.2449.030701-4.8673.046052-3.7798.046051-7.5246.084428-11.3482.130479-2.9906.038377-6.4284.023026-8.9278 1.742289-1.4645 1.00546-2.438 1.9879-3.6483 3.20827-1.25405 1.2741-2.46429 2.5789-3.61315 3.92207-1.07869 1.25876-2.12231 2.54816-3.06069 3.89136-.84191 1.2127-1.76275 2.3717-2.60466 3.5767-.719127 1.0208-1.4470274 2.1644-1.35055857 3.4002.06138927.8519.65774157 1.7422 1.06115857 2.5098.21048.3991.48234.7598.7279 1.1359.23679.3608.49988.7061.79806 1.0285.1754.1919.36833.3761.61389.4835.47358.2226 1.08747.1228 1.51719.3838-.30694.0384-.52619.307-.56127.5757-.03508.2686.06139.5372.16663.7905.36833.8827.85068 1.7269 1.42072 2.5252.57004.7982 1.28917 1.4583 1.97322 2.1798.80683.8519 1.63997 1.6732 2.50816 2.4714.8419.7675 1.7014 1.6041 2.7187 2.2335 1.7189 1.0592 3.7009.9594 5.7092.9978 6.3845.1305 12.7865.3991 19.1797.3991 8.1034.1305 16.2156.2072 24.319.2303 8.0858.023 16.1716-.0077 24.2662-.0998 8.0683-.0921 16.1369-.2303 24.2049-.4375 2.28-.0537 4.639-.0921 6.928-.3684 1.132-.1382 2.026-.2917 2.973-.8596 1.43-.852 2.544-2.2259 3.657-3.3618.728-.7368 1.439-1.4813 2.131-2.2412.632-.6831 1.325-1.2895 1.57-2.1491.035-.1228.062-.2533.149-.3607.097-.1152.246-.1919.386-.2687 1.009-.5526 1.64-1.5964 2.254-2.456 1.087-1.5274 2.087-3.1085 3.069-4.6897.746-1.1436 1.509-2.4714 1.167-3.8376z" fill="url(#b)"/><path d="m133.758 20.7156c-.193.2993-.377.6063-.57.9057-.079.1228-.158.2456-.237.3684-.578.9057-1.201 1.796-1.885 2.648-.368.4605-.754.9057-1.158 1.3431-.377.3992-.693.806-1.254 1.0285-.096.0384-.193.0691-.289.0921-.325.0845-.667.1152-1.009.1382-.973.0767-1.938.1612-2.894.2379-.026 0-.052.0077-.079.0077-.526.0461-1.043.0844-1.57.1305.702-.0307 1.404-.023 2.105.023 1.009.0614 2 .1996 2.982.3991-.237.545-.588 1.0592-1.017 1.5044-1.368 1.3969-2.675 3.0317-4.438 4.0909-.947.568-1.85.7215-2.973.8596-2.289.2763-4.657.3147-6.928.3685-8.068.1995-16.1367.3453-24.205.4374-3.9289.0384-7.8403.0691-11.7692.0921-.9735 0-1.9381.0077-2.9116.0077-3.1922.0077-6.3845.0077-9.5855 0-8.1121-.023-16.2155-.0998-24.3277-.2302-1.982 0-3.9727-.0231-5.9547-.0614-4.4113-.0845-8.8138-.238-13.2162-.3301-1.9996-.0383-3.9903.0538-5.7092-1.0054-1.0173-.6217-1.8856-1.4583-2.7187-2.2335-.0877-.0768-.1754-.1612-.2543-.238-.7542-.7061-1.4909-1.4276-2.20127-2.1721-.58758-.614-1.15763-1.228-1.77152-1.8267-.25433-.261-.47357-.5526-.67528-.852-.27187-.3991-.58758-.7905-.69282-1.251-.01754-.0768-.02631-.1689.03508-.2303.05262-.0537.13155-.0691.21047-.0767 1.43827-.2226 2.92915-.0998 4.34114-.3454.2894-.0461.57-.1075.8419-.1996-1.3067-.0077-2.60469-.0077-3.9114-.023-.32449 0-.65774-.0077-.98223-.0384-.12278-.0153-.24556-.0307-.3771-.0537-.57005-.1228-1.09624-.3915-1.5172-.7599-.21047-.1842-.38587-.3991-.53496-.6293-.57881-.9518-1.16639-1.8958-1.68382-2.8783-.40341-.7675-.99976-1.6578-1.06115-2.5098-.00877-.046-.00877-.0844-.00877-.1305-.01754-.5833.14031-1.1513.40341-1.6962.42096-.9057 1.10501-1.7653 1.64874-2.5482.93838-1.3432 1.982-2.6326 3.06069-3.89138 1.14886-1.34318 2.35033-2.64798 3.61319-3.92207.228-.23794.456-.46052.6753-.67543.9208-.92103 1.789-1.71926 2.9642-2.53284 2.5082-1.719267 5.946-1.703917 8.9278-1.742293 3.8324-.053727 7.5771-.084428 11.357-.122805 1.6224-.023026 3.2448-.038376 4.8673-.053727 1.6224-.01535 3.2448-.023026 4.8672-.0383763 1.6225-.0076753 3.2361-.0230258 4.8586-.0383764 1.6224-.0076753 3.2361-.0153506 4.8585-.0230259s3.2273-.0153505 4.8497-.0230258c1.6225-.00767531 3.2273-.00767531 4.8498-.00767531 1.6224-.00767529 3.2361-.00767529 4.8497-.00767529 1.6137 0 3.2273 0 4.841.00767529 1.6049 0 3.2186.00767531 4.8322.00767531 1.6049.0076753 3.2186.0076753 4.8235.0153505 1.6136.0076753 3.2185.0153506 4.8234.0230259s3.2098.0230259 4.8234.0383764c1.6049.0076753 3.2098.0230256 4.8147.0383766 1.6049.01535 3.2097.030701 4.8147.053727 1.605.01535 3.201.038376 4.806.053727 1.605.023026 3.201.038376 4.806.061402s3.201.046052 4.797.069078c1.526.023026 2.964.107454 4.341.644726.184.06908.368.1535.553.23793 1.508.72915 2.762 1.79602 3.902 2.91661.263.26096.535.52192.789.79056.456.45284.895.92103 1.272 1.41992.456.59868.886 1.20502 1.28 1.8344.106.16885.211.39144.062.53727-.062.06907-.158.09978-.255.1228-.008.00768-.026.00768-.035.00768-1.385.32236-2.815.49889-4.253.52192.64.0921 1.28.17653 1.929.23026.851.08442 1.702.13047 2.552.13815.614.00768 1.272.00768 1.798.28396.009.0077.018.0077.027.0154.64.3454.991 1.0822 1.35 1.6348.404.6217.807 1.2511 1.254 1.8574.325.4529.57.9671.798 1.4583.062.1152.106.2226.158.3377.237.4989.518.9825.649 1.5044.351 1.3662-.412 2.694-1.149 3.853z" fill="url(#c)"/><path d="m130.697 10.0622c-2.815.5603-6.568.1996-8.603.3531-2.28.1765-4.551.4451-6.823.6984-1.192.1382-2.394.2686-3.595.3915-.956.0921-1.86.1458-2.754.4451-.903.2994-1.886.2303-2.833.261-1.193.0307-2.385.0767-3.578.1305-4.7708.2149-9.5416.591-14.2773 1.1359-2.3679.2686-4.7358.5833-7.0861.9364-1.1752.1765-2.3503.3607-3.5255.5603-.5876.0998-1.1752.1995-1.7627.2993-.307.0537-.6052.1075-.9121.1612-.2105.0384-.57.1689-.7718.1382 1.1928.1765 2.3416.5833 3.3414 1.1819-10.4537 1.3739-20.9951 2.295-31.5541 2.7478-2.0609.0921-4.1306.1612-6.1828.0077-1.0085-.0768-2.017-.2073-2.9993-.4145-1.3681-.2917-2.8326-.1458-4.2446-.1612-2.5345-.0307-5.0778-.0997-7.6123-.2149-4.5077-.2149-9.0066-.4835-13.5144-.7368-2.98172-.1689-6.46337-.0384-9.48898-.6754-.01754-.5834.14032-1.1513.40342-1.6963 3.31502-.3223 7.05099.1766 10.21696.2226 4.5077.0691 9.0066-.0077 13.5144-.1074 8.8225-.2073 17.645-.0768 26.4763-.3915 6.2003-.2226 12.3217-.8366 18.4343-1.5964-4.0605-.0231-8.1297-.1612-12.199-.4375-8.84-.5987-17.7853-1.5658-26.6516-1.2051-4.499.1843-8.8927-.1228-13.3741-.4605-2.1837-.1688-4.4376-.3147-6.5774-.7752-1.7891-.3837-3.4203-1.10521-5.12166-1.68854 1.14885-1.34317 2.35033-2.64797 3.61316-3.92207.228-.23793.4561-.46051.6753-.67542.9647-.12281 1.9469-.19956 2.9555-.19189 2.6134.02303 5.2005.39912 7.7964.66775 4.7971.52192 9.3136 1.55041 14.0231 2.49447 4.8585.96709 9.9362 1.3048 14.8825 1.8344 4.7883.51424 9.5767.8827 14.4001 1.0208 8.8488.261 17.9607-.3147 26.6868-1.68855 8.4891-1.34318 17.0401-2.64798 25.6611-3.13152 2.692-.15351 5.691-.5603 8.577-.6217.456.45284.894.92104 1.271 1.41993.456.59867.886 1.20502 1.281 1.83439.105.16886.21.39144.061.53727-.07.07676-.184.10746-.289.13048-1.386.32237-2.816.4989-4.254.52192 1.482.22259 2.982.35307 4.482.36842.613.00767 1.271.00767 1.797.28396.018 0 .027.0077.035.0077zm4.21 6.8003c-.132-.5219-.403-1.0131-.649-1.5044-.053-.1074-.105-.2225-.158-.3377-1.105-.023-2.201-.023-3.297-.0307-4.438-.0383-8.875-.0153-13.313.0768-9.243.1919-18.1449 1.4199-27.2042 3.001-1.982.3454-3.9903.5603-5.9898.8366-2.096.2917-4.192.5757-6.288.8597-4.8147.6524-9.6381 1.3048-14.4528 1.9418-2.4117.3224-4.8234.6371-7.2351.9517-1.2015.1612-2.4118.3147-3.6132.4682-1.1664.1535-2.3679.3992-3.5431.4606 4.6393-.2073 9.2698.4758 13.8214 1.2817-3.6922.2763-7.3667.6755-11.0326 1.182-2.3591.3301-4.7094.7061-7.0509 1.1283-1.1664.2149-2.3241.4759-3.4905.6677-.3683.0614-.7103.0384-1.0874.0384-.9296-.0153-1.8592.3531-2.7275.568-4.9725 1.2511-10.0064 1.5581-15.1017 2.1721-3.5343.4298-7.0685.5142-10.6028.6601.0877.0767.1754.1612.2543.2379.8419.7675 1.7014 1.6041 2.7187 2.2335 1.7189 1.0592 3.7096.9671 5.7092 1.0055 4.4025.0921 8.8049.2456 13.2162.33 8.498-1.0976 16.0489-4.4824 24.1786-6.9308 8.7787-2.6479 18.0221-4.2598 27.213-5.2652 5.5338-.6064 11.1114-.5603 16.6982-.4529-10.4804 2.648-19.3818 7.5448-28.2219 12.9406.9735-.0077 1.9382-.0077 2.9116-.0077 8.2262-5.0043 18.0397-8.581 27.8183-9.9011 5.937-.8059 12.006-.5296 17.996-.6601 2.894-.0691 5.788-.1228 8.673-.1842.684-.852 1.307-1.7423 1.886-2.648.079-.1228.157-.2379.236-.3684.193-.2993.386-.6063.57-.9057.746-1.1513 1.509-2.4791 1.158-3.8453z" fill="url(#d)"/><path d="m128.461 15.8877c.237.6601.649 1.2741 1.202 1.7807.096.0921.202.1918.202.3146 0 .0691-.035.1382-.071.1996-.368.6371-.727 1.2664-1.096 1.9035-.184.3223-.368.6447-.552.9671-.079.1381-.167.2763-.22.4298-.114.307-.377.5526-.605.8136-.429.4835-.877 1.0054-1.368 1.4429-.201.1765-.43.284-.596.4836-.5.5986-1 1.2203-1.438 1.8574-.167.2456-.185.4835-.263.7445-.044.1381-.123.2609-.229.3761-.517.5833-1.245 1.0054-1.841 1.5197-.526.4528-.991.9747-1.588 1.3585-1.508.9824-3.499.6754-5.367.852-3.727.3607-7.498.0307-11.251-.0768-5.3589-.1612-10.2876.5296-15.646.4605-2.5959-.0307-5.1917-.0691-7.7876-.0998.2455.4068.4911.8136.7366 1.2204-2.4818-1.1743-5.4198-1.2587-8.2349-1.2971-3.3589-.0384-6.7177-.0384-10.0766-.0384-.5788 0-1.1839.0077-1.6838.2456-.5087.2456-.8595.8059-.6139 1.2664-.228-.9594-1.6663-1.1819-2.7888-1.1896-10.252-.1075-20.504-.2073-30.756-.3147-1.2015-.0154-2.403-.023-3.6045-.0844-1.14-.0538-2.2801-.1459-3.4027-.3147-.5613-.0845-1.1138-.1842-1.6663-.3147-.2718-.0614-.5437-.1305-.8156-.2072-.3332-.0921-.57-.2303-.8594-.4068-.1754-.1075-.3771-.2149-.4911-.3761-.4824-.7062-1.07-1.3739-1.6575-2.0186-.4298-.4682-.8858-.9211-1.3506-1.3662-.2368-.2226-.4736-.4529-.7104-.6755-.5437-.5065-.912-1.1052-1.3067-1.7115-1.3593-2.1107-2.46431-4.3366-3.56055-6.5624 2.8853 3.1929 6.20905 6.2323 9.09435 9.4176.7718.8519 1.5786 1.7346 2.6836 2.2258 1.1313.5066 2.4468.5526 3.7185.591 30.7121.8903 61.4769.6831 92.1719-.6064 1.701-.069 3.464-.1611 4.946-.8903 1.21-.591 2.122-1.5581 2.955-2.5252 2.368-2.74 4.289-6.2246 5.788-9.3945z" fill="#eb924d"/><path d="m94.1885 3.93758c-.2543.30701-.5349.61402-.912.79823-.5262.25328-1.1664.23793-1.7628.17653-.4034-.03837-.798-.09978-1.1927-.16885.6841-.21491 1.3857-.36074 2.1048-.4375.1842-.02302.3683-.03837.5262-.10745.1578-.06908.2718-.19188.3859-.30701.3157-.31469.6314-.62937.9646-.92871.3333-.29934.6753-.59867 1.0261-.88266.0965-.07675.193-.16118.2982-.23793.0526-.03838.1052-.07676.1491-.12281.0351-.0307.0789-.07675.1315-.0921-.1929.31469-.4297.61402-.6489.92103-.2193.30702-.4473.60635-.6753.90569-.1228.16118-.2543.32236-.3947.48354z" fill="#eb924d"/><path d="m129.496 17.1083c-.438-.9287-.824-1.5964-1.272-2.2412-.631-.921-1.341-1.8651-2.113-2.8091-1.912-2.33331-4.069-5.43413-6.998-6.85405-.044-.02303-.097-.04606-.141-.06141-.5-.19955-1.289-.24561-2.333-.26096-1.604-.02302-3.192-.05372-4.788-.06907-1.596-.02303-3.192-.04606-4.788-.06141-1.605-.02302-3.192-.03837-4.797-.05372-.465-.00768-.921-.00768-1.386-.01535-1.0787-.01535-2.1662 0-3.2537-.06141-.4823-.02302-.9559.0307-1.4295 0-.5875-.03837-1.1839-.08442-1.7627-.19188.5437-1.00546 1.0787-2.01092 1.6224-3.01639-.5876.5603-1.1401 1.14362-1.6487 1.76532-.2456.29934-.4824.6217-.7981.86731-.2368.1842-.4823.41446-.7805.51424-.2719.08443-.57.0921-.8594.09978-1.2015.01535-2.4205.06908-3.6132-.01535-2.1925-.15351-4.4113-.07675-6.6125-.08443-6.0074-.02302-12.0148-.03838-18.0222-.02302-1.6224.00767-3.2273.00767-4.8409.00767-3.2274.00768-6.4547.0307-9.6908.04605-1.6136 0-3.2361.01535-4.8497.02303-1.6225.01535-3.2361.02302-4.8585.03837-4.5253 0-9.0506.09211-13.5758.15351-2.3241.0307-6.4635-.55262-8.4542.80591-1.0699.73682-1.7978 1.47365-2.9204 2.60959-.228.23026-.456.47587-.684.70613-.1316.13048-.2982.23026-.4122.37609-.1579.19956-.2719.41446-.4736.58332-.1929.16883-.4297.29933-.6841.38373-.3858.1228-.8068.1459-1.219.1612-.5612.023-1.12251.0461-1.68379.0691-.44726.0153-.91206.0384-1.29794.2226 1.18394-.0691 2.39423.0921 3.49923.4605.0438.0153.0877.0307.1052.0691.0175.0383-.0088.0844-.0351.1228-.1666.2379-.3595.4528-.5963.637-.2193.1766-.3859.4529-.5613.6601-.228.2763-.4648.5603-.68406.8366-.49988.6294-.991 1.2664-1.43826 1.9188-.14032.2073-.28941.4145-.44727.6294-.23678.33-.57004.7906-.75421 1.1129.06139.1228.13155.2456.19294.3531.10524.1842.21048.3684.30695.5449.70159 1.3355 1.53473 2.6634 2.46431 3.9374.8419 1.1513 1.754 2.2643 2.6924 3.3234.9559 1.0669 1.982 2.1031 3.0431 3.0702l.3158.2839c.798.7369 1.4031 1.4737 2.6309 1.5044 6.9721.1689 13.9529.4452 20.925.4452h.0964c5.5339.0921 11.0764.1535 16.6102.1919.5438 0 1.0963-.0307 1.6488-.0307h1.7013c.1403 0 .2982.0076.3771.1074.0614.0768.0439.1842.0351.2763-.2017 1.159-.4122 2.3256-.6139 3.4846.5613-1.1897 1.1313-2.3717 1.7014-3.5613.0351-.0845.0789-.1689.1578-.2226.0877-.0614.2105-.0768.3333-.0921.57-.0461 1.1488-.0384 1.7189.023.2455.0307.4911.0921.7367.0691.2718-.023.5525-.0154.8243-.0154h3.6395.1842c2.9116 0 5.832-.023 8.7436-.0307.6577 0 1.3067.2149 1.8504.5373.6578.3838 1.184.9134 1.6751 1.4506-.2368-.6217-.4297-1.251-.5788-1.8958.6665-.0537 1.3418-.1151 2.0083-.1688.5349-.0461 1.0524.046 1.5961.0384 1.3593-.0154 2.7187-.0384 4.0868-.0384 8.0156-.0921 16.1361-.238 24.1261-.4298l.622-.0154c1.816-.046 4.789.284 6.464-.4298.254-.1075.447-.2917.64-.4759 1.438-1.3662 2.85-2.7938 4.175-4.2521.815-.898 1.587-1.8114 2.28-2.7094.921-1.182 1.719-2.4253 2.666-3.9297.105-.1689.377-.591.526-.8903-.026-.0307-.202-.3838-.272-.5143zm-5.297 3.9374c-.658.852-1.386 1.7116-2.157 2.5636-1.184 1.3125-2.535 2.6863-4.008 4.0832-.281.0691-.868.1535-2.044.1535-.456 0-.903-.0076-1.333-.023-.447-.0077-.868-.023-1.254-.023-.157 0-.315 0-.464.0077l-.623.0153c-7.972.1996-16.0753.3377-24.0822.4298-6.402.0691-12.9093.1075-19.3464.1075-1.5961 0-3.1922 0-4.7884-.0077-8.0069-.023-16.1541-.0998-24.1961-.2302h-.1228c-5.0602 0-10.1994-.1459-15.1631-.284-1.8505-.0538-3.7009-.1075-5.5514-.1535-.1227-.0998-.3157-.284-.456-.4145-.1052-.1075-.2192-.2072-.3332-.3147l-.3158-.2917c-1.0085-.921-1.9644-1.8881-2.8677-2.8935-.2719-.2994-.5964-.5757-.8244-.8904-.2806-.3914-.5613-.7828-.8507-1.1666-.0614-.0921-.1315-.1919-.0964-.2993.0526-.1459.2631-.1843.4297-.1919 2.5433-.1689 5.0865-.3377 7.621-.4989-2.4468-.2073-4.8936-.4145-7.3316-.6217-.5174-.0461-1.0436-.0921-1.5172-.261-.342-.1228-.6577-.3147-.8682-.5756-.0965-.1152-.1666-.238-.2543-.3531-.1404-.1612-.2368-.3454-.3421-.5296-.1315-.2226-.2631-.4452-.3946-.6754-.0263-.0384-.2543-.3684-.228-.4068.1403-.1996.2806-.3838.4034-.5756.8419-1.2051 1.8417-2.4178 2.631-3.3311 1.0173-1.1897 2.1135-2.3794 3.2536-3.53066 1.0436-1.05918 1.6663-1.69623 2.5169-2.27188.0877-.0614.649-.36841 2.7626-.36841.6577 0 1.333.0307 1.9907.05372.6227.02303 1.2103.04605 1.754.04605h.2105c1.3593-.01535 2.7186-.03837 4.0867-.05372 3.0958-.04605 6.2968-.09211 9.4452-.09211 1.6488-.01535 3.2624-.02302 4.8761-.03837 1.6224-.00768 3.2273-.02303 4.8497-.03838 3.2274-.01535 6.4459-.03838 9.6732-.04605 1.6137-.00768 3.2273-.00768 4.8322-.00768 1.6488-.00767 3.3151-.00767 4.9638-.00767 9.2435 0 18.6448.03838 28.7477.1228 1.6049.01535 3.1926.0307 4.7976.05373 1.596.01535 3.192.03838 4.788.05373s3.192.03837 4.788.0614 3.192.04605 4.789.06908c.771.00767 1.105.03837 1.254.06907 1.868.95174 3.56 3.07015 5.051 4.95055.307.3838.605.7599.886 1.1129.281.3454.763.7138.71 1.1897-1.631.6601-3.438.9901-5.235.9594 1.947.023 3.893.1382 5.823.3531.131.0153.272.0307.395.0844.298.1382.385.4452.561.6678.087.0997.201.1611.28.2609.044.0614.299.4529.264.5066-.851 1.3278-1.588 2.4561-2.386 3.4922z" fill="url(#e)"/><g fill="#eb924d"><path d="m127.9 28.03c-.237.545-.588 1.0592-1.017 1.5044-1.368 1.3969-2.675 3.0317-4.438 4.0909-.947.568-1.85.7215-2.973.8596-2.289.2763-4.657.3147-6.928.3685-8.068.1995-16.1366.3453-24.2049.4374-3.9289.0384-7.8403.0691-11.7692.0921-.9735 0-1.9382.0077-2.9116.0077-3.1923.0077-6.3845.0077-9.5855 0-8.1122-.023-16.2155-.0998-24.3277-.2302-1.982 0-3.9727-.0231-5.9547-.0614-4.4113-.0845-8.8138-.238-13.2163-.3301-1.9995-.0384-3.9903.0538-5.7092-1.0054-1.0173-.6217-1.8855-1.4583-2.7186-2.2335-.0877-.0768-.1754-.1612-.2544-.238-.7542-.7061-1.4908-1.4276-2.2012-2.1721-.58758-.614-1.15762-1.228-1.77151-1.8267-.25433-.261-.47358-.5526-.67529-.852-.27186-.3991-.58758-.7905-.69282-1.251-.01754-.0768-.02631-.1689.03508-.2303.05262-.0537.13155-.0691.21048-.0767 1.43826-.2226 2.92914-.0998 4.34106-.3454.2456-.0077.4999-.0231.7542-.0384-1.1137.33-2.26259.5526-3.42898.6754-.2631.023-.5525.0614-.73667.2226-.34203.3147-.15786.7599.04385 1.0669.17539.2686.35956.5296.56127.7828.40342.5143.84191.9978 1.31548 1.4507.74545.7291 1.55225 1.4045 2.35915 2.0877.57.4758 1.14.9517 1.7101 1.4276.3946.3377.7893.6677 1.2541.9287.7805.4451 1.7013.66 2.5959.8596.4385.0998.8857.1919 1.333.2686.1578.0231.3157.0614.4823.0538.1667-.0077.3333.0153.5087.0307.3859.0383.7893.069 1.1839.0767.7893.0384 1.5874.0384 2.3854-.0077.6402-.0307 1.2541-.0537 1.8505-.2225.2982-.0845.6051-.0231.9033.0153.8068.0921 1.6049.1919 2.4117.284.4736 0 .9384.1688 1.4207.1381.1403-.0076.2719-.046.4122-.046.0877-.0077.1842.0077.2719.0153.5437.0691 1.0787.1842 1.6224.2533.6928.0845 1.4733.1689 2.1662.0231.0526-.0077.0964-.0307.1578-.0461.1579-.0461.3508-.0154.5174-.0154 1.0086.0231 2.0171.0384 3.0344.0538 2.0171.0384 4.0429.0767 6.0688.1074 2.0258.0384 4.0605.0768 6.0863.1075 1.0085.023 2.0171.0537 3.0256.0537.1403 0 .2543-.023.3859-.0537.3245-.0998.7016-.0921 1.0436-.1151.4034-.0231.8068-.0538 1.2102-.0691 1.6137-.0921 3.2274-.1382 4.841-.1612 1.6225-.023 3.2361-.023 4.8585-.0077 1.6137.0154 3.2274.0538 4.8498.0768.3596.0077.7104.0153 1.0699.023.991.023 1.9645.0384 2.9555.0691.2718.0077.5613-.0077.8331.0537.2631.0614.4824.1075.763.0921.8068-.023 1.6224-.046 2.438-.0691 1.6225-.0383 3.2537-.0767 4.8761-.1151s3.2536-.0691 4.876-.0921c.4473-.0077.8946-.0154 1.3418-.023 9.4364-.1459 18.592-.5143 28.037-.5603.93-.0077 1.886-.0154 2.737-.3301.833-.307 1.552-.9747 1.587-1.7499.017.1995.272.353.517.3377.272-.0154.5-.1689.711-.3147 1.499-1.0362 3.052-2.1414 3.841-3.6688-.719-.3377-1.473-.614-2.245-.8443.991.0691 1.982.2073 2.964.4068z"/><path d="m128.935 8.74215c-.062.06908-.158.09978-.254.12281-.939-1.23572-1.877-2.46377-2.816-3.69949-.473-.6217-.824-1.182-1.561-1.53506-.587-.28398-1.105-.64472-1.754-.81358-.28-.07675-.596-.13815-.771-.34539-.097-.11513-.132-.26863-.202-.39911-.333-.61403-1.131-.591-1.754-.80591-.202-.07675-.36-.10745-.588-.1228-.605-.0307-1.219-.05373-1.824-.08443-1.219-.061403-2.429-.122805-3.648-.184207-2.131-.107454-4.262-.207233-6.385-.314687-1.166-.053727-2.35-.115129-3.525-.107454-1.158.007675-2.315.084428-3.473.046052-.359-.015351-.7366-.007676-1.0786-.107454-.342-.099779-.7016-.053727-1.0524-.046052-.8682.015351-1.7364.038376-2.5959.053727-2.4292.046052-4.8585.153506-7.2878.153506-.456.007675-.9296.023026-1.333.207232-.4209.191883-.5876.498897-.6227.890337 0 .05372 0 .1228-.035.16885-.0702.07676-.1754.05373-.2719.01535-.3333-.11513-.6314-.40679-.877-.62937-.1842-.16118-.3508-.337712-.5262-.506569-.114-.107454-.1578-.191882-.3245-.199557-.1491 0-.3157.046051-.456.061402-.5876.069078-1.1839.115129-1.7715.138155-.5876.015351-1.184.007675-1.7715-.023026-.2719-.01535-.5613-.01535-.8244-.076753-.1666-.038376-.3157-.107454-.4911-.122804-.5964-.038377-1.2103.007675-1.8066.01535-.6051.007676-1.219.015351-1.8242.023026-2.438.030701-4.876.053727-7.3053.084428-1.0611.015351-2.1223.023026-3.1747.038377-.5525.007675-1.105.061402-1.6049.27631-.7279.307011-.2368 1.112921-.3508 1.642511-.0701-.67542-.2368-1.46598-.9471-1.734614-.2631-.099779-.5613-.099779-.8419-.107454-.0351 0-.0702 0-.1053 0-1.219-.007676-2.4292-.023026-3.6482-.030701-2.0083-.015351-3.9903-.092104-5.9986-.11513-5.6215-.069077-11.2343.053727-16.8558.092104-2.438.01535-4.8848.038376-7.3228.053727-.6052.007675-1.2191.007675-1.8329.007675-2.9993.023026-6.0776.061402-8.8752 1.005463-.8419.28399-1.5786.69078-2.2538 1.19734-.307.22259-.5613.4989-.7542.79823.9559.38377 1.9732.62938 3.0168.73683-.5262.15351-1.0875.16118-1.64.16886-.7103.00767-1.4207.02302-2.1398.0307-.2544 0-.5087.00768-.763.0614-.4385.09211-.8068.33771-1.1226.61402-.1578.14584-.3332.29934-.456.47587-.0877.12281-.114.26864-.1929.39144-.26312.41447-.68408.79056-1.0261 1.15897-.36834.40679-.72791.81358-1.08747 1.22037-1.93815 2.16443-3.91137 4.37493-5.07777 6.93843-.25433.5603-.4648 1.1283-.60512 1.7116-.14032.5603.80683.6908 1.41195.9211.59635.2302 1.26287.353 1.78906.6907-.69282-.1074-1.38564-.1688-2.096-.1688-.12278 0-.2631.0077-.34203.0921-.10524.1074-.05262.2686.00877.4068.15786.33.28941.6293.49988.921.10524.1535.14032.3147.1754.4835.0877.3838.21925.7599.40342 1.113.35956.7214.9033 1.3585 1.57858 1.8804.36833.2763.76298.5143 1.1927.7061-.12278-.0153-.24555-.0307-.3771-.0537-.57005-.1151-1.09624-.3838-1.51719-.7522-.21048-.1842-.38588-.3991-.53497-.6293-.57881-.9518-1.16639-1.8958-1.68382-2.8783-.40341-.7675-.99976-1.6578-1.06115-2.5098-.00877-.046-.00877-.0844-.00877-.1305-.01754-.5833.14031-1.1513.40341-1.6962.42096-.9057 1.10501-1.7653 1.64874-2.5482.93838-1.3432 1.982-2.6326 3.06069-3.89138 1.14886-1.34318 2.35033-2.64797 3.61319-3.92207.228-.23794.456-.46052.6753-.67543.9208-.92103 1.789-1.71926 2.9642-2.53284 2.5082-1.719267 5.946-1.703917 8.9278-1.742293 3.8324-.053727 7.5772-.084428 11.357-.122805 1.6224-.023026 3.2448-.038376 4.8673-.053727 1.6224-.01535 3.2448-.023026 4.8673-.0383763 1.6224-.0076753 3.236-.0230258 4.8585-.0383764 1.6224-.0076753 3.2361-.0153506 4.8585-.0230259 1.6224-.0076752 3.2273-.0153505 4.8497-.0230258 1.6225-.00767531 3.2274-.00767531 4.8498-.00767531 1.6224-.00767529 3.2361-.00767529 4.8497-.00767529 1.6137 0 3.2274 0 4.841.00767529 1.6049 0 3.2186.00767531 4.8322.00767531 1.6049.0076753 3.2186.0076753 4.8235.0153506 1.6136.0076752 3.2185.0153505 4.8234.0230258s3.2098.0230259 4.8235.0383765c1.6048.0076752 3.2097.0230255 4.8146.0383765 1.6049.01535 3.2097.030701 4.8147.053727 1.605.01535 3.201.038376 4.806.053727 1.605.023026 3.201.038376 4.806.061402s3.201.046052 4.797.069078c1.526.023026 2.964.107454 4.341.644726.184.06908.368.1535.553.23793 1.508.72915 2.762 1.79602 3.902 2.91661.263.26096.535.52192.789.79056.456.45284.895.92103 1.272 1.41992.456.59868.886 1.20502 1.28 1.8344.097.16118.202.38376.062.52959z"/><path d="m105.905 10.9372c-1.605-.7829-4.271-.5449-5.542.5143-.7986.6677-.8424 1.9111 0 2.5712 1.85 1.4583 5.104.8366 6.279-.9671.026-.0154.044-.0384.07-.0537.894-.7138.254-1.8882-.807-2.0647z"/></g><path d="m106.282 10.2465c-1.605-.78284-4.271-.5449-5.542.5143-.7984.6677-.8423 1.9111 0 2.5712 1.85 1.4583 5.104.8366 6.279-.9671.026-.0153.044-.0384.07-.0537.895-.7138.254-1.8881-.807-2.0647z" fill="url(#f)"/><path d="m105.905 10.6917c-1.605-.78285-4.271-.5449-5.542.5143-.7986.6677-.8424 1.9111 0 2.5712 1.85 1.4583 5.104.8366 6.279-.9671.026-.0153.044-.0384.07-.0537.894-.7138.254-1.8881-.807-2.0647z" fill="url(#g)"/><path d="m127.426 18.0983c-1.122 1.8421-2.315 3.5997-3.595 5.2576-1.395 1.8191-2.894 3.523-4.508 5.0734-.325.307-.781.4912-1.263.4989-32.3608.8289-65.1865.7521-98.4507-.1842-.4648-.0154-.9121-.1919-1.2278-.4836-3.6834-3.4155-6.8756-6.8924-8.88393-10.5382-.26309-.4758-.21047-1.0361.11401-1.4813.33326-.4528.67532-.898 1.02612-1.3355 2.3766-2.9703 5.1917-5.72575 8.3664-8.32767.3245-.25329.7455-.40679 1.1752-.41447 32.7643-.56797 65.3006-.49889 97.6267.19189.5.01535.973.20723 1.298.54494 3.394 3.46151 6.358 6.77731 8.305 9.71691.298.4528.307 1.0131.017 1.4813z" fill="#e48a4a"/></svg>