<svg fill="none" height="82" viewBox="0 0 307 82" width="307" xmlns="http://www.w3.org/2000/svg" xmlns:xlink="http://www.w3.org/1999/xlink"><linearGradient id="a"><stop offset="0" stop-color="#cf5c2b"/><stop offset="1" stop-color="#59173e"/></linearGradient><linearGradient id="b" gradientUnits="userSpaceOnUse" x1="174.542" x2="168.056" xlink:href="#a" y1="-66.9811" y2="-19.0032"/><linearGradient id="c" gradientUnits="userSpaceOnUse" x1="168.217" x2="139.616" xlink:href="#a" y1="-57.2697" y2="256.02"/><linearGradient id="d" gradientUnits="userSpaceOnUse" x1="158.005" x2="149.037" xlink:href="#a" y1="-5.94825" y2="235.766"/><linearGradient id="e" gradientUnits="userSpaceOnUse" x1="155.705" x2="155.705" xlink:href="#a" y1="115.528" y2="54.9888"/><linearGradient id="f" gradientUnits="userSpaceOnUse" x1="242.502" x2="235.916" xlink:href="#a" y1="11.0488" y2="32.2504"/><linearGradient id="g" gradientUnits="userSpaceOnUse" x1="273.314" x2="215.849" xlink:href="#a" y1="-47.179" y2="113.384"/><path d="m306.809 36.3877c-.299-1.1262-.938-2.1862-1.476-3.2462-.02-.0497-.06-.116-.08-.1656-.698-1.3416-1.476-2.65-2.313-3.9419-.419-.6459-.858-1.2753-1.297-1.9212-.079-.1325-.179-.2319-.279-.3313-.12-.1159-.179-.2484-.259-.3809-.2-.3147-.439-.5963-.678-.8778-.818-.9607-1.656-1.9047-2.713-2.6832-.518-.3809-1.076-.7122-1.675-.9772-.339-.149-.678-.265-1.037-.3643-.339-.0828-.678-.116-1.017-.1822 0-.1325.04-.2981.06-.4306.02-.1491.02-.2982 0-.4638-.02-.3147-.08-.6294-.16-.9275-.179-.6128-.458-1.1925-.797-1.7556-.379-.6294-.798-1.2256-1.257-1.8053-.239-.2981-.478-.5797-.738-.8613-.179-.2153-.259-.4637-.419-.6956-.139-.1987-.299-.3975-.438-.5962-.1-.1325-.18-.2485-.26-.381-.099-.1822-.299-.3147-.438-.4637-.319-.3147-.658-.6294-.978-.9606-2.413-2.45128-4.886-4.90253-7.837-6.95627-1.277-.89438-2.653-1.70594-4.109-2.36844-.418-.19875-.837-.36437-1.256-.51343-3.131-1.159375-6.402-1.341562-9.852-1.391249-3.63-.049688-7.279-.099375-10.909-.149062-3.65-.049688-7.279-.099375-10.929-.1325-3.65-.049687-7.279-.082812-10.929-.115937s-7.299-.06625-10.949-.099375-7.299-.06625-10.949-.082812c-3.65-.033125-7.299-.049688-10.969-.0662502-3.649-.0165625-7.319-.033125-10.969-.0496874-3.669-.0165625-7.319-.0331249-10.988-.0331249-3.69 0-7.359 0-11.009-.0165625-3.67 0-7.339 0-11.009 0-3.669 0-7.339 0-11.009.0165625-3.669 0-7.339.0165624-11.028.0331249-3.67.0165624-7.359.0331249-11.029.0331249-3.69.0165625-7.359.0331247-11.049.0496877-3.689.016562-7.359.049687-11.048.06625-3.6898.033124-7.3793.049687-11.0689.082812-3.6895.033125-7.379.06625-11.0685.099375-8.5956.099374-17.1115.182187-25.8068.281561-6.8007.082813-14.6185.049688-20.3023 3.759682-3.3306 2.16968-5.5443 4.28967-8.2965 6.92312-2.8519 2.7494-5.6041 5.565-8.2166 8.4634-2.4531 2.7162-4.8263 5.4987-6.96028 8.3972-1.91457 2.6168-4.00862 5.1178-5.92319 7.7181-1.63536 2.2028-3.290656 4.6706-3.0712787 7.3372.1396037 1.8384 1.4957487 3.7596 2.4131487 5.4159.47864.8612 1.09689 1.6397 1.6553 2.4512.53847.7785 1.13677 1.5238 1.81485 2.2194.39887.414.83762.8116 1.39604 1.0434 1.07694.4803 2.47297.265 3.45021.8281-.698.0829-1.19661.6625-1.27639 1.2422-.07977.5797.13961 1.1594.37893 1.706.83766 1.9046 1.93446 3.7265 3.23086 5.449 1.2963 1.7225 2.9316 3.1469 4.4872 4.7038 1.8348 1.8384 3.7294 3.6106 5.7038 5.3331 1.9146 1.6562 3.869 3.4615 6.1825 4.8196 3.9089 2.2857 8.4161 2.0704 12.9831 2.1532 14.5188.2815 29.0775.8612 43.6162.8612 18.4276.2816 36.8756.4472 55.3026.4969 18.388.0497 36.776-.0166 55.184-.2153 18.348-.1988 36.696-.4969 55.043-.9441 5.186-.1159 10.55-.1987 15.756-.795 2.572-.2981 4.607-.6294 6.761-1.855 3.25-1.8384 5.783-4.8031 8.316-7.2543 1.655-1.59 3.271-3.1966 4.846-4.8363 1.436-1.474 3.012-2.7825 3.57-4.6375.08-.265.14-.5465.339-.7784.219-.2484.558-.4141.878-.5797 2.293-1.1925 3.729-3.445 5.125-5.3 2.473-3.2959 4.747-6.7078 6.98-10.1196 1.695-2.4678 3.43-5.3332 2.653-8.2813z" fill="url(#b)"/><path d="m304.176 44.7021c-.439.6459-.857 1.3084-1.296 1.9544-.18.265-.359.53-.539.795-1.316 1.9543-2.732 3.8756-4.287 5.714-.838.9937-1.716 1.9544-2.633 2.8984-.857.8613-1.575 1.7391-2.852 2.2194-.219.0828-.439.1491-.658.1988-.738.1821-1.516.2484-2.293.2981-2.214.1656-4.408.3478-6.582.5134-.06 0-.119.0166-.179.0166-1.197.0994-2.374.1822-3.57.2815 1.595-.0662 3.191-.0497 4.786.0497 2.294.1325 4.547.4306 6.781.8613-.538 1.1759-1.336 2.2856-2.313 3.2462-3.112 3.0144-6.083 6.5422-10.092 8.8278-2.154 1.2256-4.208 1.5569-6.761 1.855-5.205.5962-10.589.6791-15.755.795-18.348.4306-36.696.7453-55.044.9441-8.934.0828-17.829.149-26.764.1987-2.213 0-4.407.0166-6.621.0166-7.259.0165-14.519.0165-21.798 0-18.447-.0497-36.875-.2153-55.3228-.4969-4.5072 0-9.0343-.0497-13.5415-.1325-10.0316-.1822-20.0431-.5134-30.0547-.7122-4.5471-.0828-9.0742.116-12.9831-2.1697-2.3135-1.3415-4.2879-3.1468-6.1825-4.8196-.1994-.1657-.3989-.3479-.5784-.5135-1.7151-1.5237-3.3903-3.0806-5.0057-4.6872-1.3362-1.325-2.6326-2.65-4.0286-3.9418-.5784-.5631-1.0769-1.1925-1.5356-1.8385-.6183-.8612-1.3363-1.7059-1.5756-2.6996-.0399-.1657-.0598-.3644.0798-.4969.1197-.116.2992-.1491.4786-.1656 3.2708-.4803 6.6611-.2153 9.872-.7453.6581-.0994 1.2963-.2319 1.9146-.4307-2.9716-.0165-5.9232-.0165-8.8948-.0497-.7379 0-1.4957-.0165-2.2336-.0828-.2792-.0331-.5584-.0662-.8576-.1159-1.2963-.265-2.4929-.8447-3.4502-1.6397-.4786-.3975-.8775-.8612-1.2165-1.3581-1.31631-2.0538-2.65251-4.0909-3.82917-6.2109-.9174-1.6563-2.27355-3.5775-2.41315-5.416-.01994-.0993-.01994-.1821-.01994-.2815-.03989-1.2588.31909-2.4844.91739-3.6603.95728-1.9544 2.51287-3.8094 3.74936-5.4988 2.13391-2.8984 4.50721-5.6809 6.96021-8.3971 2.6126-2.8985 5.3449-5.7141 8.2167-8.4635.5185-.5134 1.0371-.9937 1.5356-1.45745 2.0941-1.98749 4.0685-3.70999 6.7409-5.46561 5.7038-3.709992 13.5216-3.676867 20.3024-3.759679 8.7152-.115937 17.231-.182187 25.8266-.264999 3.6896-.049688 7.3791-.082813 11.0686-.115938s7.3791-.049687 11.0687-.082812c3.689-.016562 7.359-.049687 11.049-.082812 3.689-.016563 7.359-.0331252 11.048-.0496877 3.69-.0165625 7.339-.0331249 11.029-.0496874 3.689-.0165624 7.339-.0165624 11.029-.0165624 3.689-.0165625 7.359-.0165625 11.028-.0165625 3.67 0 7.339 0 11.009.0165625 3.65 0 7.319.0165624 10.989.0165624 3.649.0165625 7.319.0165625 10.969.0331249 3.669.0165625 7.319.033125 10.968.0496872 3.65.016563 7.3.049688 10.969.082813 3.65.016562 7.3.049687 10.949.082812 3.65.033125 7.3.06625 10.949.115937 3.65.033125 7.28.082812 10.929.115937 3.65.049688 7.279.082813 10.929.1325s7.279.099375 10.909.149062c3.47.049688 6.741.231872 9.872 1.391252.419.14906.838.33124 1.257.51343 3.43 1.57344 6.282 3.87562 8.874 6.29374.599.56312 1.217 1.12628 1.795 1.70598 1.037.9771 2.034 1.9874 2.892 3.064 1.037 1.2919 2.014 2.6003 2.912 3.9584.239.3644.478.8447.139 1.1594-.139.1491-.359.2153-.578.265-.02.0166-.06.0166-.08.0166-3.151.6956-6.402 1.0765-9.672 1.1262 1.456.1988 2.911.381 4.387.4969 1.935.1822 3.869.2816 5.804.2981 1.396.0166 2.892.0166 4.088.6128.02.0166.04.0166.06.0331 1.456.7454 2.254 2.3354 3.071 3.5279.918 1.3415 1.835 2.6996 2.852 4.0081.738.9772 1.296 2.0868 1.815 3.1468.14.2485.239.4803.359.7288.538 1.0765 1.177 2.12 1.476 3.2462.798 2.9481-.938 5.8135-2.613 8.3144z" fill="url(#c)"/><path d="m297.216 21.713c-6.402 1.2091-14.938.4307-19.565.7619-5.185.381-10.35.9606-15.516 1.5072-2.712.2981-5.444.5797-8.176.8447-2.174.1987-4.228.3147-6.263.9606-2.054.6459-4.287.4969-6.441.5631-2.713.0663-5.425.1657-8.137.2816-10.849.4637-21.699 1.2753-32.468 2.4512-5.385.5797-10.769 1.2588-16.114 2.0207-2.673.3809-5.345.7784-8.018 1.209-1.336.2153-2.672.4306-4.008.646-.698.1159-1.376.2318-2.074.3478-.479.0828-1.297.3643-1.755.2981 2.712.3809 5.325 1.2587 7.598 2.5506-23.772 2.9647-47.744 4.9522-71.756 5.9294-4.6868.1987-9.3935.3478-14.0602.0165-2.2935-.1656-4.587-.4472-6.8207-.8943-3.1111-.6294-6.4417-.3147-9.6526-.3478-5.7636-.0663-11.5472-.2154-17.3108-.4638-10.2509-.4637-20.4819-1.0434-30.7328-1.59-6.7807-.3644-14.6982-.0828-21.57869-1.4575-.03989-1.2587.31909-2.4844.91739-3.6603 7.5386-.6956 16.0345.3809 23.234.4803 10.2509.1491 20.4819-.0165 30.7328-.2319 20.063-.4471 40.1261-.1656 60.2086-.8446 14.1-.4804 28.021-1.8054 41.921-3.445-9.233-.0497-18.487-.3478-27.741-.9441-20.103-1.2919-40.445-3.3787-60.6077-2.6003-10.231.3975-20.2226-.265-30.4137-.9937-4.9659-.3644-10.0913-.6791-14.9575-1.6729-4.0685-.8281-7.7779-2.385-11.647-3.6437 2.6126-2.8984 5.3449-5.714 8.2167-8.4634.5185-.5135 1.0371-.9938 1.5357-1.45751 2.1937-.265 4.4274-.43063 6.7209-.41406 5.9431.04968 11.8264.86127 17.7296 1.44097 10.9091 1.1262 21.1799 3.3456 31.8895 5.3828 11.0486 2.0868 22.5955 2.8156 33.8435 3.9584 10.889 1.1097 21.779 1.9047 32.747 2.2028 20.123.5631 40.844-.6791 60.688-3.6437 19.305-2.8985 38.75-5.7141 58.354-6.7575 6.123-.3313 12.944-1.2091 19.505-1.3416 1.037.9772 2.034 1.9875 2.892 3.0641 1.037 1.2918 2.014 2.6003 2.912 3.9584.239.3644.478.8447.139 1.1594-.159.1656-.419.2318-.658.2815-3.151.6957-6.402 1.0766-9.672 1.1263 3.37.4803 6.78.7618 10.191.795 1.396.0165 2.891.0165 4.088.6128.04 0 .06.0165.08.0165zm9.573 14.6744c-.3-1.1263-.918-2.1863-1.476-3.2463-.12-.2318-.24-.4803-.359-.7287-2.513-.0497-5.006-.0497-7.499-.0663-10.091-.0828-20.183-.0331-30.274.1657-21.02.414-41.263 3.064-61.864 6.4759-4.508.7453-9.075 1.2091-13.622 1.8053-4.766.6294-9.533 1.2422-14.299 1.855-10.949 1.4078-21.918 2.8156-32.867 4.1903-5.484.6956-10.969 1.3747-16.453 2.0537-2.732.3479-5.484.6791-8.217 1.0104-2.652.3312-5.384.8612-8.057.9937 10.55-.4472 21.08 1.0269 31.431 2.7659-8.396.5963-16.752 1.4575-25.089 2.5507-5.365.7121-10.709 1.5237-16.034 2.4346-2.6528.4638-5.2853 1.0269-7.9378 1.441-.8376.1325-1.6154.0828-2.4729.0828-2.114-.0331-4.228.7619-6.2024 1.2256-11.3079 2.6997-22.7554 3.3622-34.3425 4.6872-8.0372.9275-16.0744 1.1097-24.1116 1.4244.1995.1656.3989.3478.5784.5134 1.9146 1.6562 3.869 3.4615 6.1824 4.8197 3.9089 2.2856 8.4361 2.0868 12.9832 2.1697 10.0115.1987 20.0231.53 30.0546.7121 19.3252-2.3684 36.4966-9.6724 54.9836-14.9559 19.964-5.714 40.984-9.1921 61.885-11.3618 12.584-1.3085 25.268-1.2091 37.972-.9772-23.833 5.714-44.075 16.2809-64.178 27.9243 2.214-.0166 4.408-.0166 6.621-.0166 18.707-10.7987 41.024-18.5168 63.261-21.3655 13.501-1.7391 27.302-1.1428 40.923-1.4244 6.582-.1491 13.163-.265 19.724-.3975 1.556-1.8384 2.972-3.7597 4.288-5.7141.18-.265.359-.5134.539-.7949.438-.646.877-1.3085 1.296-1.9544 1.695-2.4844 3.43-5.3497 2.633-8.2978z" fill="url(#d)"/><path d="m292.131 34.2839c.538 1.4244 1.475 2.7494 2.732 3.8425.219.1988.459.4141.459.6791 0 .149-.08.2981-.16.4306-.838 1.3747-1.655 2.7328-2.493 4.1075-.419.6956-.837 1.3912-1.256 2.0869-.18.2981-.379.5962-.499.9275-.259.6625-.857 1.1925-1.376 1.7556-.977 1.0434-1.994 2.1697-3.111 3.1137-.459.381-.977.6128-1.356 1.0435-1.137 1.2918-2.274 2.6334-3.271 4.0081-.379.53-.419 1.0434-.598 1.6065-.1.2982-.279.5632-.519.8116-1.176 1.2587-2.832 2.1697-4.188 3.2794-1.197.9772-2.254 2.1034-3.61 2.9315-3.43 2.12-7.957 1.4575-12.205 1.8385-8.476.7784-17.052.0662-25.587-.1657-12.186-.3478-23.394 1.1428-35.579.9938-5.904-.0663-11.807-.1491-17.71-.2153.558.8778 1.117 1.7556 1.675 2.6334-5.644-2.5341-12.325-2.7162-18.727-2.7991-7.638-.0828-15.276-.0828-22.915-.0828-1.316 0-2.692.0166-3.829.53-1.156.53-1.954 1.7391-1.396 2.7328-.518-2.0703-3.789-2.5506-6.342-2.5671-23.314-.2319-46.6274-.4472-69.9412-.6791-2.7323-.0331-5.4645-.0497-8.1968-.1822-2.5926-.1159-5.1852-.3147-7.738-.6791-1.2764-.1821-2.5328-.3975-3.7892-.679-.6183-.1325-1.2365-.2816-1.8548-.4472-.7578-.1987-1.2963-.4969-1.9544-.8778-.3989-.2319-.8576-.4638-1.1169-.8116-1.0968-1.5237-2.433-2.9647-3.7693-4.3559-.9772-1.0103-2.0142-1.9875-3.0712-2.9481-.5385-.4803-1.077-.9772-1.6154-1.4575-1.2365-1.0931-2.0742-2.385-2.9716-3.6934-3.0912-4.5547-5.6041-9.3578-8.097-14.1609 6.5613 6.8899 14.1199 13.4487 20.6813 20.3221 1.755 1.8384 3.5898 3.7431 6.1026 4.8031 2.5727 1.0931 5.5642 1.1925 8.456 1.2753 69.8419 1.9213 139.8029 1.4741 209.6049-1.3084 3.869-.1491 7.878-.3478 11.248-1.9213 2.752-1.2753 4.826-3.3621 6.721-5.449 5.385-5.9128 9.752-13.4322 13.163-20.2725z" fill="#eb924d"/><path d="m214.192 8.4969c-.579.6625-1.217 1.32499-2.074 1.7225-1.197.5466-2.653.5134-4.009.3809-.917-.0828-1.815-.2153-2.712-.3643 1.555-.46379 3.151-.77848 4.786-.9441.419-.04969.838-.08282 1.197-.23188s.618-.41406.877-.6625c.718-.67906 1.436-1.35812 2.194-2.00406.758-.64593 1.536-1.29187 2.333-1.90468.22-.16562.439-.34781.678-.51343.12-.08282.24-.16563.34-.265.079-.06625.179-.16563.299-.19875-.439.67906-.978 1.32499-1.476 1.98749-.499.6625-1.017 1.30844-1.536 1.95437-.279.34781-.578.69563-.897 1.04344z" fill="#eb924d"/><path d="m294.484 36.9178c-.997-2.004-1.875-3.445-2.892-4.8362-1.436-1.9875-3.051-4.0247-4.806-6.0619-4.348-5.0349-9.254-11.7262-15.915-14.7902-.1-.0497-.22-.0994-.319-.1325-1.137-.4307-2.932-.53-5.305-.5632-3.65-.0496-7.26-.1159-10.889-.149-3.63-.0497-7.26-.0994-10.889-.1325-3.65-.0497-7.26-.0828-10.909-.116-1.057-.0165-2.094-.0165-3.151-.0331-2.454-.0331-4.927 0-7.399-.13248-1.097-.04969-2.174.06628-3.251 0-1.336-.08282-2.693-.18219-4.009-.41407 1.237-2.16968 2.453-4.33936 3.69-6.50904-1.337 1.20906-2.593 2.4678-3.75 3.80936-.558.64594-1.097 1.34156-1.815 1.87156-.538.3975-1.096.89437-1.775 1.10969-.618.18218-1.296.19878-1.954.21528-2.732.0332-5.504.1491-8.217-.0331-4.985-.33125-10.031-.16562-15.037-.18218-13.661-.04969-27.322-.08282-40.984-.04969-3.689.01656-7.339.01656-11.008.01656-7.34.01656-14.679.06625-22.038.09938-3.669 0-7.359.03312-11.028.04968-3.69.03313-7.3596.04965-11.0491.08285-10.2908 0-20.5816.1987-30.8724.3312-5.285.0663-14.6982-1.19248-19.2254 1.7391-2.4331 1.59-4.0884 3.18-6.6411 5.6312-.5186.4969-1.0371 1.0269-1.5556 1.5238-.2992.2815-.6781.4968-.9374.8115-.3589.4306-.6182.8944-1.0769 1.2588-.4388.3643-.9772.6459-1.5556.8281-.8775.265-1.8348.3147-2.7721.3478-1.2764.0497-2.5528.0994-3.8292.1491-1.0171.0331-2.0741.0828-2.9516.4803 2.6924-.1491 5.4446.1987 7.9574.9937.0998.0331.1995.0663.2394.1491.0398.0828-.02.1822-.0798.265-.3789.5134-.8177.9772-1.3562 1.3747-.4985.3809-.8775.9772-1.2763 1.4243-.5186.5963-1.057 1.2091-1.5556 1.8053-1.1368 1.3582-2.2536 2.7329-3.2707 4.1407-.3191.4471-.6582.8943-1.0172 1.3581-.5384.7122-1.2963 1.7059-1.7151 2.4015.1396.265.2992.53.4388.7619.2393.3975.4786.795.698 1.1759 1.5955 2.8819 3.4901 5.7472 5.6041 8.4966 1.9145 2.4844 3.9887 4.8859 6.1226 7.1715 2.1738 2.3022 4.5072 4.5381 6.9204 6.625l.7179.6128c1.8149 1.59 3.191 3.18 5.983 3.2463 15.855.3643 31.73.9606 47.5849.9606h.2194c12.5844.1987 25.1884.3312 37.7724.4141 1.237 0 2.493-.0663 3.75-.0663h3.869c.319 0 .678.0166.857.2319.14.1656.1.3975.08.5962-.459 2.501-.937 5.0185-1.396 7.5194 1.276-2.5672 2.573-5.1178 3.869-7.685.08-.1822.18-.3644.359-.4803.199-.1325.479-.1656.758-.1988 1.296-.0993 2.612-.0828 3.909.0497.558.0663 1.117.1988 1.675.1491.618-.0497 1.256-.0331 1.875-.0331h8.276.419c6.621 0 13.262-.0497 19.884-.0663 1.495 0 2.971.4638 4.208 1.1594 1.495.8281 2.692 1.9709 3.809 3.1303-.539-1.3416-.977-2.6997-1.316-4.0909 1.515-.116 3.051-.2485 4.567-.3644 1.216-.0994 2.393.0994 3.629.0828 3.092-.0331 6.183-.0828 9.294-.0828 18.228-.1988 36.696-.5134 54.864-.9275l1.416-.0331c4.128-.0994 10.889.6128 14.698-.9275.579-.2319 1.018-.6294 1.456-1.0269 3.271-2.9481 6.482-6.0287 9.493-9.1756 1.855-1.9378 3.61-3.9087 5.186-5.8466 2.094-2.5506 3.909-5.2337 6.062-8.4799.24-.3644.858-1.2753 1.197-1.9213-.06-.0662-.459-.8281-.618-1.1097zm-12.046 8.4966c-1.496 1.8384-3.151 3.6934-4.906 5.5318-2.692 2.8322-5.764 5.7969-9.114 8.8113-.638.149-1.975.3312-4.647.3312-1.037 0-2.054-.0165-3.031-.0497-1.018-.0165-1.975-.0497-2.852-.0497-.359 0-.718 0-1.057.0166l-1.416.0331c-18.129.4307-36.557.7288-54.765.9275-14.559.1491-29.357.2319-43.995.2319-3.63 0-7.259 0-10.889-.0166-18.208-.0496-36.736-.2153-55.0238-.4968h-.2792c-11.5074 0-23.1942-.3147-34.4822-.6128-4.208-.116-8.4161-.2319-12.6241-.3313-.2792-.2153-.718-.6128-1.0371-.8944-.2393-.2318-.4986-.4472-.7578-.679l-.718-.6294c-2.2935-1.9875-4.4673-4.0744-6.5215-6.244-.6182-.646-1.3561-1.2422-1.8746-1.9213-.6382-.8447-1.2764-1.6894-1.9345-2.5175-.1397-.1987-.2992-.414-.2194-.6459.1196-.3147.5983-.3975.9772-.4141 5.7836-.3644 11.5672-.7287 17.3308-1.0765-5.5642-.4472-11.1284-.8944-16.6727-1.3416-1.1766-.0994-2.3732-.1988-3.4502-.5631-.7778-.265-1.4957-.6791-1.9744-1.2422-.2193-.2484-.3789-.5134-.5783-.7619-.3191-.3478-.5385-.7453-.7778-1.1428-.2992-.4803-.5983-.9606-.8975-1.4575-.0598-.0828-.5783-.795-.5185-.8778.3191-.4306.6382-.8281.9174-1.2422 1.9146-2.6003 4.1881-5.2172 5.983-7.1881 2.3134-2.5672 4.8064-5.1344 7.399-7.6187 2.3733-2.2856 3.7892-3.6603 5.7238-4.9025.1994-.1325 1.4758-.795 6.2821-.795 1.4958 0 3.0314.0662 4.5272.1159 1.416.0497 2.7522.0994 3.9886.0994h.4787c3.0912-.0331 6.1824-.0828 9.2936-.1159 7.04-.0994 14.3194-.1988 21.479-.1988 3.7494-.0331 7.419-.0497 11.0882-.0828 3.69-.0166 7.34-.0497 11.029-.0828 7.339-.0331 14.658-.0828 21.998-.0994 3.669-.0165 7.339-.0165 10.988-.0165 3.75-.0166 7.539-.0166 11.288-.0166 21.021 0 42.4.0828 65.375.265 3.649.0331 7.259.0662 10.909.1159 3.629.0332 7.259.0828 10.889.116 3.63.0331 7.259.0828 10.889.1325s7.259.0993 10.889.149c1.755.0166 2.513.0828 2.852.1491 4.248 2.0537 8.097 6.625 11.487 10.6828.698.8281 1.376 1.6397 2.015 2.4015.638.7453 1.735 1.5403 1.615 2.5672-3.709 1.4244-7.818 2.1366-11.906 2.0703 4.427.0497 8.855.2981 13.242.7619.299.0331.618.0662.898.1822.678.2981.877.9606 1.276 1.4409.2.2153.459.3478.638.5631.1.1325.678.9772.599 1.0932-1.935 2.8653-3.61 5.2999-5.425 7.5359z" fill="url(#e)"/><g fill="#eb924d"><path d="m290.854 60.4858c-.538 1.1759-1.336 2.2856-2.313 3.2462-3.111 3.0144-6.083 6.5422-10.092 8.8278-2.153 1.2257-4.208 1.5569-6.76 1.855-5.206.5963-10.59.6791-15.756.795-18.348.4307-36.695.7453-55.043.9441-8.935.0828-17.83.149-26.764.1987-2.214 0-4.408.0166-6.622.0166-7.259.0166-14.518.0166-21.798 0-18.447-.0497-36.875-.2153-55.3226-.4969-4.5072 0-9.0344-.0497-13.5416-.1325-10.0315-.1822-20.0431-.5134-30.0547-.7122-4.5471-.0828-9.0742.116-12.9831-2.1696-2.3134-1.3416-4.2878-3.1469-6.1825-4.8197-.1994-.1656-.3988-.3478-.5783-.5135-1.7151-1.5237-3.3904-3.0806-5.0058-4.6871-1.3362-1.325-2.6325-2.65-4.0286-3.9419-.5783-.5631-1.0769-1.1925-1.5356-1.8384-.6182-.8613-1.3362-1.706-1.5755-2.6997-.0399-.1656-.0599-.3644.0797-.4969.1197-.1159.2992-.1491.4787-.1656 3.2707-.4803 6.6611-.2153 9.872-.7453.5584-.0166 1.1367-.0497 1.7151-.0828-2.5328.7122-5.1454 1.1925-7.7979 1.4575-.5983.0496-1.2564.1325-1.6752.4803-.7778.679-.359 1.6397.0997 2.3022.3989.5796.8177 1.1428 1.2764 1.6893.9174 1.1097 1.9145 2.1531 2.9915 3.1303 1.6952 1.5735 3.53 3.031 5.3648 4.505 1.2963 1.0269 2.5926 2.0538 3.8889 3.0806.8975.7288 1.7949 1.441 2.8519 2.0041 1.775.9606 3.869 1.4244 5.9033 1.855.9971.2153 2.0142.4141 3.0313.5797.359.0497.718.1325 1.0969.1159.379-.0165.7579.0331 1.1568.0663.8775.0828 1.7949.149 2.6923.1656 1.7949.0828 3.6098.0828 5.4246-.0166 1.4559-.0662 2.8519-.1159 4.2081-.4803.678-.1822 1.3761-.0497 2.0541.0331 1.8348.1988 3.6497.4141 5.4845.6129 1.0769 0 2.1339.3643 3.2308.2981.3191-.0166.6182-.0994.9373-.0994.1995-.0166.4188.0166.6183.0331 1.2365.1491 2.453.3975 3.6895.5466 1.5755.1822 3.3505.3644 4.926.0497.1197-.0166.2194-.0663.359-.0994.359-.0994.7977-.0331 1.1767-.0331 2.2934.0497 4.5869.0828 6.9004.1159 4.5869.0828 9.1939.1656 13.8008.2319 4.607.0828 9.234.1656 13.841.2319 2.293.0497 4.587.1159 6.88.1159.319 0 .579-.0497.878-.1159.738-.2153 1.595-.1988 2.373-.2485.917-.0497 1.835-.1159 2.752-.149 3.67-.1988 7.339-.2982 11.009-.3478 3.689-.0497 7.359-.0497 11.048-.0166 3.67.0331 7.34.1159 11.029.1656.818.0166 1.616.0331 2.433.0497 2.254.0497 4.468.0828 6.721.1491.618.0165 1.277-.0166 1.895.1159.598.1325 1.097.2319 1.735.1987 1.835-.0496 3.689-.0993 5.544-.149 3.69-.0828 7.399-.1656 11.089-.2484 3.689-.0829 7.399-.1491 11.088-.1988 1.017-.0166 2.034-.0331 3.052-.0497 21.459-.3147 42.279-1.1097 63.759-1.209 2.114-.0166 4.287-.0332 6.222-.7122 1.894-.6625 3.53-2.1035 3.61-3.7763.04.4307.618.7619 1.176.7288.619-.0332 1.137-.3644 1.616-.6791 3.41-2.2359 6.94-4.6209 8.735-7.9168-1.635-.7288-3.351-1.325-5.106-1.8219 2.254.1491 4.508.4472 6.741.8778z"/><path d="m293.207 18.8646c-.139.1491-.359.2154-.578.265-2.134-2.6665-4.268-5.3165-6.402-7.9831-1.077-1.34152-1.874-2.55058-3.55-3.31246-1.336-.61281-2.513-1.39124-3.988-1.75562-.639-.16562-1.356-.29812-1.755-.74531-.22-.24843-.3-.57968-.459-.86125-.758-1.32499-2.573-1.2753-3.989-1.73905-.458-.16563-.817-.23188-1.336-.265-1.376-.06625-2.772-.11594-4.148-.18219-2.772-.1325-5.524-.265-8.297-.3975-4.846-.23187-9.692-.44719-14.518-.67906-2.653-.11594-5.345-.248437-8.018-.231875-2.632.016563-5.265.182185-7.897.099375-.818-.03312-1.675-.01656-2.453-.231874-.778-.215312-1.596-.115938-2.393-.099375-1.975.033125-3.949.082812-5.904.115937-5.524.099375-11.048.331252-16.573.331252-1.037.01656-2.114.04968-3.031.44718-.957.41407-1.336 1.07656-1.416 1.92125 0 .11594 0 .265-.08.36437-.159.16563-.399.11594-.618.03313-.758-.24844-1.436-.87781-1.994-1.35812-.419-.34782-.798-.72875-1.197-1.09313-.259-.23187-.359-.41406-.738-.43062-.339 0-.718.09937-1.037.1325-1.336.14906-2.692.24844-4.029.29812-1.336.03313-2.692.01657-4.028-.04968-.618-.03313-1.276-.03313-1.875-.16563-.379-.08281-.718-.23187-1.117-.265-1.356-.08281-2.752.01657-4.108.03313-1.376.01656-2.772.03312-4.148.04968-5.544.06625-11.089.11594-16.613.18219-2.413.03313-4.826.04969-7.219.08281-1.257.01657-2.513.1325-3.65.59625-1.655.6625-.539 2.40156-.798 3.54437-.159-1.4575-.538-3.16343-2.154-3.74312-.598-.21531-1.276-.21531-1.914-.23187-.08 0-.16 0-.24 0-2.772-.01656-5.524-.04969-8.296-.06625-4.567-.03313-9.074-.19875-13.641-.24844-12.784-.14906-25.5478.11594-38.3315.19875-5.5443.03313-11.1085.08281-16.6528.11594-1.376.01656-2.7721.01656-4.1681.01656-6.8207.04969-13.8208.1325-20.1827 2.16968-1.9146.61282-3.5898 1.49063-5.1255 2.58375-.698.48031-1.2764 1.07656-1.7151 1.72249 2.1738.82813 4.4873 1.35813 6.8605 1.59-1.1966.33125-2.473.34781-3.7294.36437-1.6154.01654-3.2308.04974-4.8662.06624-.5783 0-1.1567.0166-1.7351.1325-.9971.1988-1.8347.7288-2.5527 1.325-.359.3147-.7579.6459-1.0371 1.0269-.1994.265-.2592.5797-.4387.8447-.5983.8943-1.5556 1.7059-2.3334 2.5009-.8376.8778-1.6553 1.7556-2.473 2.6334-4.4075 4.6706-8.89472 9.4406-11.54719 14.9725-.57836 1.2091-1.057 2.4347-1.3761 3.6934-.31909 1.2091 1.83479 1.4906 3.21089 1.9875 1.3561.4969 2.8718.7619 4.0684 1.4906-1.5755-.2318-3.15101-.3643-4.76642-.3643-.27921 0-.5983.0165-.77779.1987-.23932.2319-.11966.5797.01994.8778.35898.7122.65813 1.3582 1.13677 1.9875.23932.3313.3191.6791.39887 1.0435.19943.8281.49858 1.6396.9174 2.4015.81763 1.5569 2.05413 2.9316 3.58983 4.0578.8376.5963 1.735 1.1097 2.7123 1.5238-.2792-.0332-.5584-.0663-.8576-.116-1.2963-.2484-2.4929-.8281-3.4502-1.6231-.4786-.3975-.8775-.8612-1.2165-1.3581-1.31631-2.0538-2.65251-4.0909-3.82917-6.2109-.9174-1.6563-2.27355-3.5775-2.41315-5.416-.01994-.0993-.01994-.1821-.01994-.2815-.03989-1.2588.31909-2.4844.91739-3.6603.95728-1.9544 2.51287-3.8094 3.74936-5.4988 2.13391-2.8984 4.50721-5.6809 6.96021-8.3971 2.6126-2.8985 5.3449-5.7141 8.2167-8.4635.5185-.5134 1.0371-.9937 1.5356-1.45745 2.0941-1.98749 4.0685-3.70999 6.7409-5.46561 5.7038-3.709992 13.5216-3.676867 20.3024-3.759679 8.7152-.115937 17.2311-.182187 25.8266-.264999 3.6896-.049688 7.3791-.082813 11.0686-.115938 3.6896-.033125 7.3791-.049687 11.0687-.082812 3.689-.016562 7.359-.049687 11.049-.082812 3.689-.016563 7.359-.0331252 11.048-.0496877 3.69-.0165625 7.339-.0331249 11.029-.0496874 3.689-.0165624 7.339-.0165624 11.029-.0165624 3.689-.0165625 7.359-.0165625 11.028-.0165625 3.67 0 7.339 0 11.009.0165625 3.65 0 7.319.0165624 10.989.0165624 3.649.0165625 7.319.0165625 10.969.0331249 3.669.0165625 7.319.033125 10.969.0496872 3.649.016563 7.299.049688 10.968.082813 3.65.016562 7.3.049687 10.949.082812 3.65.033125 7.3.06625 10.949.115937 3.65.033125 7.28.082812 10.929.115937 3.65.049688 7.28.082813 10.929.1325 3.65.049687 7.279.099375 10.909.149062 3.47.049688 6.741.231872 9.872 1.391252.419.14906.838.33124 1.257.51343 3.43 1.57344 6.282 3.87562 8.874 6.29374.599.56312 1.217 1.12628 1.795 1.70598 1.037.9771 2.035 1.9874 2.892 3.064 1.037 1.2919 2.014 2.6003 2.912 3.9584.219.3478.459.8282.139 1.1428z"/><path d="m240.836 23.6013c-3.65-1.6893-9.712-1.1759-12.604 1.1097-1.815 1.441-1.915 4.1241 0 5.5485 4.208 3.1468 11.607 1.8053 14.279-2.0869.06-.0331.1-.0828.16-.116 2.034-1.5403.578-4.0743-1.835-4.4553z"/></g><path d="m241.694 22.1109c-3.65-1.6894-9.713-1.176-12.605 1.1097-1.814 1.4409-1.914 4.124 0 5.5484 4.208 3.1468 11.607 1.8053 14.28-2.0869.06-.0331.1-.0828.159-.1159 2.035-1.5403.579-4.0744-1.834-4.4553z" fill="url(#f)"/><path d="m240.836 23.0717c-3.65-1.6894-9.712-1.176-12.604 1.1097-1.815 1.4409-1.915 4.124 0 5.5484 4.208 3.1469 11.607 1.8053 14.279-2.0869.06-.0331.1-.0828.16-.1159 2.034-1.5403.578-4.0744-1.835-4.4553z" fill="url(#g)"/><path d="m289.777 39.0543c-2.553 3.975-5.265 7.7678-8.177 11.3453-3.171 3.9253-6.581 7.6022-10.251 10.9478-.738.6625-1.775 1.06-2.872 1.0765-73.591 1.7888-148.239 1.6232-223.8841-.3975-1.057-.0331-2.0741-.414-2.792-1.0434-8.3763-7.3703-15.6356-14.8731-20.2027-22.7403-.5983-1.0268-.4786-2.2359.2593-3.1965.7578-.9772 1.5356-1.9378 2.3334-2.8819 5.4046-6.4097 11.8064-12.3556 19.0259-17.9703.738-.5465 1.6952-.8778 2.6725-.8943 74.5087-1.2256 148.4987-1.0766 222.0097.414 1.137.0332 2.214.4472 2.952 1.176 7.718 7.4696 14.459 14.6246 18.886 20.968.678.9772.698 2.1863.04 3.1966z" fill="#e48a4a"/></svg>