<svg fill="none" height="67" viewBox="0 0 225 67" width="225" xmlns="http://www.w3.org/2000/svg" xmlns:xlink="http://www.w3.org/1999/xlink"><linearGradient id="a"><stop offset="0" stop-color="#cf5c2b"/><stop offset="1" stop-color="#59173e"/></linearGradient><linearGradient id="b" gradientUnits="userSpaceOnUse" x1="161.242" x2="136.613" xlink:href="#a" y1="-82.8847" y2="-1.3979"/><linearGradient id="c" gradientUnits="userSpaceOnUse" x1="123.476" x2="99.6543" xlink:href="#a" y1="-25.0536" y2="125.784"/><linearGradient id="d" gradientUnits="userSpaceOnUse" x1="122.967" x2="91.3083" xlink:href="#a" y1="-22.9656" y2="168.899"/><linearGradient id="e" gradientUnits="userSpaceOnUse" x1="159.542" x2="151.365" xlink:href="#a" y1="29.9744" y2="55.8433"/><linearGradient id="f" gradientUnits="userSpaceOnUse" x1="182.707" x2="123.697" xlink:href="#a" y1="-14.043" y2="147.996"/><linearGradient id="g" gradientUnits="userSpaceOnUse" x1="33.1123" x2="28.1422" xlink:href="#a" y1="1.06765" y2="14.2478"/><linearGradient id="h" gradientUnits="userSpaceOnUse" x1="55.3275" x2="-11.7468" xlink:href="#a" y1="-50.1556" y2="104.234"/><linearGradient id="i" gradientUnits="userSpaceOnUse" x1="33.0648" x2="26.2953" xlink:href="#a" y1="1.63386" y2="23.0499"/><linearGradient id="j" gradientUnits="userSpaceOnUse" x1="63.747" x2="4.73671" xlink:href="#a" y1="-57.3654" y2="104.675"/><linearGradient id="k" gradientUnits="userSpaceOnUse" x1="112.494" x2="112.494" xlink:href="#a" y1="77.3269" y2="46.1825"/><path d="m220.926 26.247c-1.629-1.6903-3.591-3.1372-5.552-4.5841-.931-.6897-1.862-1.3658-2.793-2.0419-1.796-1.3117-3.574-2.6234-5.37-3.935-.781-.568-1.579-1.3793-2.527-1.7579-.881-.3651-1.579-.9196-2.344-1.4334-3.507-2.3529-7.148-4.57057-10.938-6.61245-3.009-1.63621-6.168-3.17777-9.692-3.86741-1.546-.29749-3.142-.43272-4.722-.55442-2.277-.18931-4.555-.36509-6.832-.554402-1.147-.094657-2.311-.189322-3.458-.283979-.465-.040567-.898-.081134-1.347-.189313-.748-.175791-1.496.081142-2.26-.013515-1.447-.162268-2.926-.121709-4.389-.135232-1.613-.013522-3.209-.040558-4.821-.05408-6.401-.067612-12.801-.121716-19.218-.1622829-6.383-.0405672-12.751-.0540937-19.134-.0676161-6.351 0-12.718.00000578-19.0682.0270506-6.3338.0270447-12.6676.0676201-18.9848.1352324-6.3006.054089-12.6178.135221-18.9184.229878-6.2839.094657-12.5679.202843-18.8518.324545-6.2507.121701-12.5181.270444-18.7688.419194-3.2749.08113-6.5499.17579-9.8249.25692-.2659.01353-.5652-.01352-.8145.04057-.2827.05409-.54865.14874-.81464.22988-.5486.16227-1.11382.33805-1.64579.54089-1.0307.40567-2.01153.94657-2.6765 1.71734-.38235.44624-.64834.94657-.99745 1.39281-.18287.22988-.4156.40566-.56522.64907-.71484 1.16292-1.44631 2.35289-2.42714 3.38059-.9642 1.01423-1.2634363 2.60983-1.1470669 3.84033.1496179 1.6768.1994909 3.3806.3823579 5.0574.299235 2.6774.016623 5.3549.382355 8.0458.049873.3922.132994.8114.482104 1.0683.24936.1758.58185.2434.89771.2975 1.04732.1893 2.07802.3651 3.12535.5544-1.28007.6761-3.20847.7302-3.89007 1.8526-.21611.3651-.24936.7708-.29923 1.1764-.116372 1.4334-.282614 2.8668-.398983 4.3002-.049873.649-.099747 1.2846-.116371 1.9336-.033248.6221-.08312 1.2035-.166241 1.812-.166242 1.4199-.615096 3.2725-.083121 4.6653.51535 1.3387 2.576756 1.4063 4.006436 1.7308-.74809.0677-1.32994.568-1.76217 1.0683-.21611.2569-.38236.5274-.58185.7843-.18286.2299-.3491.4598-.51535.7032-.29923.4868-.548595.9871-.731461 1.5145-.11637.3516-.182866.622-.19949.9871-.016625.3245-.03325.6491-.049874.9736-.033248.6491-.049873 1.2982-.066497 1.9472-.033248 1.2982-.049872 2.6099-.033247 3.908.016624 1.2576-.3491081 2.4881.299236 3.7187.648343 1.2305 1.778793 2.2988 3.175223 2.9884 1.13044.568 2.42713.8655 3.75707.9195 15.54362.6897 31.13712.9872 46.69742 1.2847 15.8428.2975 31.6857.4733 47.5289.5138 15.959.0406 31.918-.0406 47.877-.2569 5.403-.0676 10.789-.3245 16.159-.0406 4.937.257 9.925.1488 14.862-.1217 4.306-.2434 8.146-.2299 11.521-2.7585 7.464-5.5713 15.36-10.7503 22.825-16.308 1.928-1.4334 4.039-3.0561 5.669-4.814 1.679-1.812 3.241-3.7998 3.873-6.0445.283-.9872.465-2.0013.266-2.9885-.083-.4192-.233-.8248-.416-1.217-.149-.338-.432-.7031-.482-1.0682-.099-.7438-.449-1.4469-.848-2.1231-.581-1.0682-1.346-2.0959-2.244-3.0019z" fill="url(#b)"/><path d="m222.811 36.4784c-.2.2913-.4.5826-.583.8461-.067.0971-.133.1942-.2.2774-.1.0971-.2.1942-.333.2635-.267.1387-.616.111-.916.0971-.033 0-.067 0-.1-.0138-4.929-.3468-9.991-1.4425-14.72-.222 1.266.4577 2.681.5687 4.046.6658 3.581.2497 7.161.4993 10.741.749-.034.0277-.067.0416-.1.0693-.383.2913-.749.5826-1.132.86-.633.4854-1.166 1.068-1.782 1.5812-.916.749-1.865 1.4702-2.798 2.1776-.266.1942-.516.4022-.799.6103-.266.208-.549.4161-.833.6103-2.414 1.8308-4.862 3.6478-7.326 5.4232-.8.5825-1.615 1.1651-2.448 1.7199-.866.6103-1.732 1.2067-2.614 1.8031-4.363 2.9405-8.959 5.7006-13.805 8.0724-.166.0832-.333.1665-.516.2497-.366.1664-.666.3467-1.016.43-.166.0277-.316.0416-.499.0416h-.167c-.299-.0139-.616-.0139-.915-.0139-2.532-.0277-5.096.1109-7.627.1803-3.83.0693-7.676.1526-11.506.2219-4.446.0832-8.876.1526-13.322.2081-3.963.0416-7.926.0971-11.889.1387-3.38.0277-6.76.0555-10.141.0693-2.164.0139-4.329.0278-6.494.0416-3.547.0139-7.077.0139-10.607.0139-2.048 0-4.08 0-6.128-.0139h-2.448c-1.232 0-2.447-.0138-3.68-.0138-.4824 0-.9653 0-1.4482-.0139-3.6134-.0139-7.2269-.0416-10.8236-.0694-1.2322-.0138-2.4478-.0138-3.6634-.0416-2.4811-.0138-4.9788-.0416-7.4599-.0832-1.482-.0139-2.9474-.0277-4.446-.0555-3.7966-.0416-7.5599-.1109-11.3398-.1803-1.5153-.0138-3.014-.0416-4.5126-.0693-1.8983-.0416-3.7966-.0694-5.6949-.1387-1.6818-.0278-3.347-.0694-5.0288-.0971-3.6467-.0832-7.2934-.1803-10.9235-.2774-.6327-.0139-1.2655-.0278-1.9149-.0416-.7993-.0139-1.6152-.0416-2.4311-.0694-2.6144-.0693-5.2287-.1526-7.843-.2358-1.1656-.0416-2.3312-.0693-3.5135-.1248-3.0639-.1387-6.1611-.3051-9.225-.3051-3.0306 0-5.86138-1.8032-6.97704-4.0917-.49955-.9987-.61612-2.1083-.53286-3.1902.01665-.1941.03331-.3745.09991-.5686.09991-.2913.26643-.5548.29974-.8461.0666-.3745.09991-.749.13321-1.1235.0333-.3606.0666-.7351.08326-1.0957.01665-.2774.04995-.5687.08325-.8461.03331-.3606.08326-.7351.18317-1.0958.01665-.1248.06661-.2496.09991-.3606.0333-.0971.06661-.1941.11657-.2774.0666-.1664.14986-.319.26642-.4716.08326-.1248.16652-.2219.28308-.3328.09991-.0971.21647-.1942.34968-.2775 2.24798-1.4008 6.6274-1.387 9.9077-1.4424.6328-.0139 1.2323-.0278 1.7651-.0555 1.4154-.0694 2.8308-.0971 4.2628-.0971-3.3636-.0139-6.7439-.2497-10.0576-.7351-1.58187-.222-3.14712-.4994-4.69573-.8322-.38299-.0694-.76597-.1804-1.13231-.3191-.4829-.1803-.91584-.4438-1.11566-.846-.18317-.3468-.16652-.7213-.16652-1.0819.01665-.3468-.04995-.7074-.01665-1.0541.0333-.749.14986-1.4703.23312-2.2192.08326-.5965.16652-1.2068.21647-1.8032.11657-1.6089.23313-3.204.38299-4.799.04996-.4855.11656-1.0126.5162-1.3593.24978-.2081.56616-.3051.88254-.4022.86589-.2636 1.74843-.4577 2.66427-.5826.41629-.0693.86588-.0693 1.28218-.1664.48289-.1248.8492-.2081 1.3821-.2497 4.9788-.4854 9.941-.9709 14.9032-1.4425.5828-.0554 1.1989-.1109 1.7817-.1664-7.4932-.7629-14.9864-1.5257-22.4797-2.2886-.33303-.0416-.66606-.0693-.98244-.0971-.31639-.0277-.66607-.0693-.86589-.2774-.14986-.1664-.16652-.3745-.19982-.5825-.33303-3.3705.04995-6.8519-.18317-10.2639-.01665-.0971-.01665-.3745-.04995-.7767-.01665-.1942-.01665-.43-.04996-.6658 0-.0832 0-.1942-.01665-.2774-.01665-.1526-.01665-.3052-.0333-.4577v-.0416c-.01666-.1665-.01665-.3191-.03331-.4855-.01665-.1664-.01665-.3329-.0333-.4993-.0333-.5548-.08326-1.08188-.11656-1.49798-.01665-.1387-.01665-.26354-.0333-.3745 0-.04161-.01666-.0971-.01666-.13871-.01665-.12483-.01665-.20806-.0333-.26354-.01665-.04161-.01665-.06933-.01665-.06933-.31638-3.74493 3.13051-6.97669 7.64311-7.10152 2.31455-.06935 4.62915-.1387 6.94375-.19418 3.0139-.08322 6.0279-.16643 9.0418-.22191 9.7246-.249658 19.4658-.429988 29.2404-.58256 2.5643-.04161 5.1287-.069332 7.693-.110942 10.1742-.138701 20.3817-.2219388 30.6224-.2774193 2.6477-.0138701 5.2953-.0138549 7.9425-.027725 3.164-.01387015 6.328-.0138837 9.508-.0138837 6.128 0 12.289.0138684 18.434.0416087.599 0 1.199.0138837 1.798.0138837 5.362.0277402 10.741.0693536 16.102.1109636 3.847.04161 7.693.083208 11.557.138688 3.197.041611 6.411.08323 9.608.13871 1.731.02774 3.447.069347 5.195.083218.316.01387.633.013862.949.013862.3 0 .616.000008.916-.013862h.017c.632 0 1.265-.013869 1.915-.041609.183 0 .349-.013863.532-.013863.866-.04161 1.616.013864 2.315.166435.017 0 .05-.000008.067.013863 1.215.249662 2.281.735112 3.546 1.317662.117.05548.234.0971.35.16645 4.846 2.21922 9.525 4.71584 13.954 7.476 4.196 2.62149 8.193 5.46479 11.939 8.51629.283.2219.567.4577.833.6935 2.664 2.2192 5.195 4.5355 7.726 6.8518.417.3884.833.7767 1.249 1.179.916.8738 1.782 1.8031 2.481 2.8295.5.7074.9 1.4702 1.133 2.2747.116.3745.166.7767.283 1.1512.433 1.1096-.233 2.3024-.949 3.3704z" fill="url(#c)"/><path d="m219.28 25.6364c-2.516-2.3158-5.032-4.6455-7.681-6.8914-.265-.2232-.546-.4604-.828-.6976-9.387-.0837-18.773-.4603-28.16-1.0183-21.505-1.2834-42.961-2.9714-64.466-4.3525-21.4882-1.3811-42.9933-2.5389-64.548-2.6226-10.8767-.0419-21.7203.2511-32.5474.9207-5.5294.3487-11.10844.4464-16.63784.8509.06622 1.0881.13244 2.0507.14899 2.2321.23178 3.4178-.16555 6.9193.18211 10.3231.01656.2093.04967.4185.19866.586.01656.0139.01656.0279.04967.0418 4.58576.558 9.28741.6417 13.92281.6696 10.8436.0698 21.6707-.4324 32.5142-.3906 2.8475.014 5.7281.0419 8.5921.0977 1.4238.0279 2.8475.0558 4.2878.0837.7947.0139 1.6886-.0558 2.4833.0976 1.0098.1953 2.1025.1395 3.1454.1116 2.3509-.0418 4.7017-.2371 7.0691-.4045 2.2184-.1674 4.4202-.3209 6.6551-.3488 8.4597-.0697 16.787 1.8135 25.23 1.8972 2.268.0279 4.553-.0697 6.788.2512 1.324.1953 2.599.544 3.907.8091 2.218.4603 4.486.6975 6.771.7254 1.142.0139 2.301-.014 3.443-.1256 1.109-.1116 2.252.014 3.361.0558 4.784.2093 9.585.3906 14.37.5301 3.758.1116 7.516.1953 11.274.2511-17.284 1.2695-34.551 2.4832-51.834 3.655-8.8739.5999-17.7806 1.2555-26.6872 1.2555-9.6351 0-19.2536-.9626-28.9218-.5161-8.5259.4045-17.1511 1.0044-25.6107 2.0227-6.5889.7952-13.6083 2.4692-20.46212 2.9435-.08278.7394-.19866 1.4788-.23177 2.2321-.01656.3487.03311.7114.01655 1.0602-.01655.3627-.01655.7394.16555 1.0881.21522.4046.6291.6696 1.1092.851.34765.1395.74498.2511 1.12574.3208 1.53963.3349 3.09585.6138 4.66855.8371 2.5991-.0838 5.1983-.2232 7.7312-.4883 7.4829-.7673 15.7274-1.0323 23.3593-2.3297 1.6058-.0837 3.2117-.1674 4.8009-.2511 8.857-.5162 17.6147-1.9251 26.3227-3.362 5.5956-.9347 11.2574-1.6322 16.9358-2.1902.7285-.0697 1.4238-.2511 2.1522-.293.5794-.0418 1.1919-.0836 1.7714-.1255 2.3674-.1535 4.7347-.279 7.1185-.3767 4.735-.1953 9.503-.279 14.254-.3069 4.768-.0418 9.519-.0139 14.271-.0139 4.767.0139 9.519 0 14.27-.0698 4.751-.0558 9.519-.1953 14.254-.4324 1.507-.0698 2.997-.1674 4.486-.2651-3.989-.7812-8.029-1.3392-12.085-1.674 7.467-.5301 14.916-1.3253 22.3-2.3576 4.602-.6557 9.205-1.395 13.857-1.8414 2.317-.2232 4.652-.3767 6.986-.3906 1.159-.014 2.318 0 3.493.0697 1.043.0419 2.152.279 3.195.1814.745-.0698 1.44-.3209 2.185-.3767 1.192-.0837 2.368-.1674 3.56-.2511 2.367-.1674 4.734-.3627 7.118-.5719.63-.0558 1.275-.1117 1.921-.1814 1.374-.1395 2.781-.2372 4.188-.3488-.463-.4045-.877-.7951-1.308-1.1857zm-14.75 15.136c-11.837-.6836-23.724-.572-35.577-.1674-2.467.0837-4.884.1395-7.334.3906-1.175.1395-2.367.2511-3.543.3766-4.735.4744-9.469.851-14.221 1.1579-1.854.1256-3.708.2232-5.546.3209 4.801-.0279 9.602-.0558 14.403-.0837s9.602-.0698 14.403-.0977c2.401-.0139 4.801-.0279 7.202-.0418 1.208-.014 2.4-.014 3.592-.0279.513 0 1.027.0279 1.523-.0698.298-.0558.596-.1674.911-.1953 1.076-.1395 2.284.0419 3.36.0977 1.192.0558 2.384.1116 3.56.1674 2.384.1255 4.768.265 7.152.4185 3.741.2371 7.499.5022 11.241.7812 3.062.2371 6.108.5161 9.155.8231.016-.014.016-.014.016-.014.265-.1953.513-.3906.778-.5859.944-.7115 1.887-1.4369 2.781-2.1902-4.602-.4046-9.221-.7952-13.856-1.0602zm-78.339 7.9935c-21.041-.3488-42.0333-1.3672-63.0749-1.2974-11.0919.0279-22.1838.1813-33.2591.4604-8.1783.1953-16.4558.1674-24.61749.8788-.16555.4604-.23176.9765-.28143 1.4648-.08278.8649-.13244 1.7438-.23177 2.6087 9.08879.3069 18.27679-.2093 27.34899-.2232 11.0919-.014 22.1673.0697 33.2592.2929 21.0084.4186 41.9835 1.3951 62.9925 1.7159 21.372.3209 42.695-.9765 64.018-1.8693 3.957-.1674 7.93-.279 11.92-.3488.811-.558 1.622-1.1439 2.434-1.7298 2.466-1.7717 4.883-3.5992 7.284-5.4545-7.93.6417-15.877 1.2694-23.84 1.6321-21.306.9765-42.612 2.2181-63.952 1.8694z" fill="url(#d)"/><path d="m157.538 45.3405c-4.392-2.0727-11.685-1.4285-15.149 1.3585-2.187 1.7647-2.303 5.0418 0 6.7925 5.072 3.8514 13.955 2.2128 17.17-2.563.067-.042.116-.098.183-.14 2.453-1.8767.696-4.9858-2.204-5.448z" fill="#eb924d"/><path d="m158.582 43.52c-4.392-2.0728-11.685-1.4285-15.149 1.3585-2.187 1.7646-2.303 5.0418 0 6.7924 5.072 3.8514 13.955 2.2128 17.17-2.5629.067-.042.117-.0981.183-.1401 2.436-1.8766.696-4.9858-2.204-5.4479z" fill="url(#e)"/><path d="m157.538 44.6964c-4.392-2.0728-11.685-1.4286-15.149 1.3585-2.187 1.7646-2.303 5.0418 0 6.7924 5.072 3.8514 13.955 2.2128 17.17-2.5629.067-.042.116-.0981.183-.1401 2.453-1.8767.696-4.9858-2.204-5.4479z" fill="url(#f)"/><path d="m32.2181 9.20383c-1.9449-1.09239-5.1818-.75628-6.7239.71425-.9725.92432-1.0142 2.67502 0 3.59932 2.2506 2.0307 6.196 1.1624 7.6131-1.3585.0277-.028.0555-.056.0833-.07 1.0975-.9944.3195-2.64698-.9725-2.88507z" fill="#eb924d"/><path d="m32.6765 8.2374c-1.945-1.09239-5.1819-.75628-6.724.71425-.9724.92433-1.0141 2.67495 0 3.59935 2.2506 2.0307 6.1961 1.1624 7.6131-1.3585.0278-.028.0556-.0561.0833-.0701 1.0975-.9943.3196-2.64691-.9724-2.885z" fill="url(#g)"/><path d="m32.2181 8.85349c-1.9449-1.09239-5.1818-.75628-6.7239.71425-.9725.92436-1.0142 2.67496 0 3.59926 2.2506 2.0308 6.196 1.1625 7.6131-1.3584.0277-.0281.0555-.0561.0833-.0701 1.0975-.9943.3195-2.63292-.9725-2.88501z" fill="url(#h)"/><path d="m31.3973 14.3475c-3.6295-1.7226-9.6623-1.1905-12.5461 1.1204-1.8065 1.4565-1.9059 4.1735 0 5.616 4.1931 3.1931 11.5517 1.8347 14.2201-2.1148.0497-.042.0994-.084.1491-.112 2.0385-1.5406.5967-4.1175-1.8231-4.5096z" fill="#eb924d"/><path d="m32.2592 12.8488c-3.6296-1.7226-9.6623-1.1904-12.5461 1.1204-1.8065 1.4565-1.9059 4.1735 0 5.616 4.1931 3.1932 11.5517 1.8347 14.22-2.1147.0498-.042.0995-.084.1492-.1121 2.0385-1.5545.5966-4.1314-1.8231-4.5096z" fill="url(#i)"/><path d="m31.3973 13.8152c-3.6295-1.7226-9.6623-1.1904-12.5461 1.1205-1.8065 1.4565-1.9059 4.1734 0 5.616 4.1931 3.1931 11.5517 1.8346 14.2201-2.1148.0497-.042.0994-.084.1491-.112 2.0385-1.5406.5967-4.1175-1.8231-4.5097z" fill="url(#j)"/><g fill="#eb924d"><path d="m5.50355 42.5039c-.01717.7258-.01717 1.4805.25763 2.1627-.49808-.1887-.94463-.4644-1.15073-.8854-.18893-.3628-.17176-.7547-.17176-1.1321.01718-.3629-.05152-.7403-.01717-1.1031.0687-1.408.37785-2.8014.46373-4.2093.12022-1.6837.24045-3.3529.39502-5.0221.05153-.508.12023-1.0596.53243-1.4225.25763-.2177.58395-.3193.91028-.4209.8931-.2758 1.80338-.479 2.74801-.6096.42938-.0726.89311-.0726 1.32251-.1742.4981-.1306.8759-.2177 1.4083-.2613 5.1354-.508 10.2535-1.016 15.3717-1.5095-5.496.9435-11.0092 1.8724-16.5052 2.8159-1.0649.1741-2.50759.1742-3.40069.7693-.3435.2322-.65265.566-.91028.8418-.08587.0871-.85875 1.3789-.5496 1.3934 4.03617.1161 8.08947.2323 12.12557.3484-2.9884.4064-5.9769.8709-8.96536 1.3789-1.49423.2613-3.19456.6531-3.86439 1.8143-.4122.7403-.39503 1.7273-.25763 2.5111.05153.2612.15458.5225.22328.7838.17175.6096.05153 1.2773.03435 1.9304z"/><path d="m222.793 36.2899c-.067.1104-.117.2208-.15.345-.05.1656-.05.3311-.117.4967-.183.4554-.633.8969-1.266.8279-.249-.0276-.716-.0276-.916-.1104.05-.2483.317-.5105.45-.7313.117-.207.233-.4139.317-.6209.216-.4692.383-.9521.516-1.4488.233-.9521.316-1.918.316-2.8839 0-1.1038-.183-2.2629-.982-3.146-1.449-1.5454-4.197-1.5868-6.545-1.4902-2.049.0828-4.081.1794-6.112.2622 2.964-.276 5.945-.5657 8.91-.8555-1.2-1.435-2.415-2.8838-3.614-4.3188-1.133-1.3523-2.332-2.7597-4.097-3.5048-1.483-.6209-3.181-.7175-4.83-.8141-4.064-.2207-8.111-.4415-12.191-.6623 4.38-.1794 8.794-.345 13.074-1.1177-1.416-1.1728-2.865-2.2905-4.364-3.3667-2.131-1.5454-4.363-3.0218-6.661-4.40165-2.299-1.39362-4.663-2.69066-7.095-3.90491-1.216-.60712-2.448-1.20045-3.697-1.75238-.6-.27596-1.249-.51053-1.832-.81409-.167-.09659-.333-.20698-.533-.26217-.15-.04139-.3-.04139-.45-.04139-.799-.0276-1.615-.01381-2.415-.0276-2.398-.0138-4.796-.02761-7.194-.02761-.75 0-1.516.00001-2.265-.01379h-4.363c-2.016-.01379-4.047-.01379-6.063-.01379h-.299c-3.198-.0138-6.412-.01381-9.61-.01381-1.598 0-3.197.00001-4.796-.01379-.733 0-1.549.08278-2.265-.0276-.733-.11039-1.316-.48294-2.098-.53813-.7-.0414-1.416.0414-2.099.0966-1.749.12418-3.497.24835-5.229.41393-.783.06899-1.649.17939-2.182.66233-.183.16558-.316.37254-.533.51052-.499.28977-1.166.09659-1.732-.06899-1.132-.33116-2.331-.52433-3.531-.55192-1.082-.0414-2.165.12419-3.247.06899-.683-.04139-1.332-.16559-1.999-.27598-2.631-.42774-5.396-.45532-8.077-.6071-1.982-.12419-3.963-.20698-5.945-.26217-6.4121-.19318-12.8239-.0966-19.2191.13797-3.1976.11038-6.4118.24837-9.6094.41395-1.4656.06899-3.0977.33115-4.5466.16557-.4163-.04139-.7994-.19317-1.2324-.24836-.4496-.06899-.866-.05519-1.3156-.04139-1.782.0138-3.564.0138-5.3293.0276-2.0818.0138-4.1636 0-6.262 0-.6995 0-1.3823.12418-2.0651.12418-.6328 0-1.2657-.11039-1.8819-.11039-1.3157.0138-2.6313.22078-3.8637.63473-.4664.16558-.9493.34495-1.4656.31735-.9326-.04139-1.5821-.7727-2.4148-1.10386-2.0152-.800297-4.0803.71752-6.1287.0966-1.0159-.30356-2.0652-.26219-3.131-.27598-1.3823-.0138-2.7479-.01379-4.1136-.01379-4.6465.01379-9.2929.15178-13.9061.53813-2.2983.19317-4.5965.45535-6.8782.78651-1.0991.16557-2.2316.42774-3.33077.53813-.34974.04139-.59955.02758-.91598.20696-1.36563.8003-5.1128 5.21574-2.44814 6.77499.86601.4967 2.01514.5105 3.081.4967 6.82819-.0828 13.67299-.1656 20.51779-.2346-7.3777.483-14.7721.9659-22.14989 1.4626-.48297.0276-.96594.069-1.39894.2484-1.4156.6347-.93263 2.1249-1.11583 3.2012-.26646 1.4074.04997 2.9252.23316 4.3326.2165 1.8076.48297 3.6152.7994 5.4089-.33309-.0414-.66617-.069-.98259-.0966-.31643-.0276-.66617-.0689-.86602-.2759-.14988-.1656-.16654-.3726-.19984-.5795-.33309-3.353.04996-6.8164-.1832-10.2107-.01665-.0966-.01666-.3726-.04996-.7727-.01666-.1932-.01666-.4278-.04996-.6624 0-.0827 0-.1931-.01666-.2759-.01665-.1518-.01665-.3036-.03331-.4554v-.0414c-.01665-.1655-.01665-.3173-.03331-.4829-.01665-.1656-.01665-.3311-.0333-.4967-.03331-.5519-.08327-1.07628-.11658-1.49023-.01666-.13798-.01665-.26217-.03331-.37256 0-.04139-.01665-.09659-.01665-.13799-.01666-.12418-.01666-.20697-.03331-.26217-.01666-.04139-.01666-.06897-.01666-.06897-.31642-3.72553 3.13097-6.94053 7.64422-7.06471 2.31494-.06899 4.62984-.13798 6.94474-.19318 3.0144-.08279 6.0288-.16556 9.0432-.22075 9.726-.248372 19.4686-.427767 29.2445-.579548 2.5648-.041395 5.1295-.068973 7.6942-.110367 10.1757-.137983 20.3846-.2207891 30.6269-.275982 2.648-.0137982 5.296-.0137831 7.9442-.0275813 9.293-.0275965 18.602-.01381342 27.945.0275813.6 0 1.199.0138117 1.799.0138117 5.363.0275965 10.742.0689933 16.104.1103883 3.848.041395 7.695.082777 11.558.13797 3.198.041395 6.412.082798 9.61.137991 1.465.013798 2.931.041399 4.396.068995.267 0 .533-.013806.8.013791l.2.027602c.216.041395.383.082773.616.068974.35-.013798.699-.068972 1.066-.110367.333-.041395.699-.082807 1.049-.082807.283 0 .566.013818.849.041414.2.013798.4.027595.6.041393.749.055193 1.499.096577 2.248.096577.017 0 .05-.000008.067.01379 1.216.248369 2.281.731324 3.547 1.310854.117.05519.233.09658.35.16557 4.846 2.20772 9.526 4.6914 13.956 7.43725 4.197 2.60786 8.194 5.43646 11.941 8.47216.283.2207.566.4553.833.6899 2.664 2.2077 5.196 4.512 7.727 6.8163.416.3863.833.7727 1.249 1.1729.916.8692 1.782 1.7937 2.482 2.8148.499.7037.899 1.4626 1.132 2.2629.117.3725.167.7727.283 1.1453.367 1.0762-.15 2.2629-.799 3.2011-.067 0-.117.0966-.183.1794z"/><path d="m130.147 16.3429c-3.045.5777-6.159.4216-9.245.2498-8.46-.4527-17.095-.9524-24.9461-4.3092 4.7921-.0156 9.5431.89 14.2801 1.6082 6.538.9992 13.346 1.7486 19.911 2.4512z"/></g><path d="m14.3486 13.0051c.9122 11.7329 1.0283 24.0093.6303 36.634-.0664 2.3131 2.0899 4.264 4.8764 4.3476 54.9348 1.8672 108.9247 2.3549 161.8517 1.2959.979-.0139 1.941-.2787 2.77-.7385 9.09-5.1419 17.383-10.7436 24.698-16.9306 1.841-1.5467 1.99-3.9852.348-5.6853-8.691-9.0017-18.826-16.805-30.868-23.01985-.779-.4041-1.691-.62705-2.604-.62705-49.511-.71066-102.0073-.57133-156.7099.18113-2.9192.05574-5.175 2.11807-4.9925 4.54267z" fill="url(#k)"/><path d="m206.184 34.9293c-.132.3341-.413.5846-.693.8352-1.173 1.0162-2.378 1.9907-3.634 2.9512-3.104 2.4083-6.391 4.6635-9.726 6.8212-3.452 2.2412-6.804 5.2759-11.147 6.2364-5.103 1.1276-11.461.3898-16.713.4594-12.765.1671-25.531.2506-38.296.2506-17.208 0-34.3994-.1531-51.5906-.4455-9.0168-.1531-18.017-.348-27.0173-.5846-4.4093-.1114-8.8186-.2228-13.2444-.362-3.7652-.1113-8.736.4594-12.3526-.3341-3.2202-.7099-2.3615-7.3083-2.378-9.299-.033-5.4848.1486-10.9835-.1321-16.4682-.0496-1.0441-.1156-2.0742-.1982-3.1043-.1982-2.4083-1.5358-10.3153 3.4184-10.2318 28.5531.529 57.3043-.4872 85.9068-.4872 12.815 0 25.63.0418 38.445.1392 6.176.0418 12.353.1114 18.529.181 3.501.0418 7.233-.4176 10.652.4594 3.567.9048 6.952 3.508 9.892 5.3873 7.299 4.6495 13.475 10.1343 19.586 15.8278.512.4873.924 1.1555.693 1.768z" fill="#e68b4a"/><path d="m36.9548 38.1154c.075.0267.1606.0534.2248.1203.1498.1469.1498.4142.1498.6547-.0107.441-.0214.8686-.0321 1.3096.4495-.9621.8883-1.9243 1.3056-2.8997-.6956-.4677-1.5303-.4677-2.3223-.441-.3531.0134-.6956.0134-1.0488.0267-.1819 0-.3531.0134-.5351.0134-.0856 0-.1605 0-.2461 0-.0428 0-.1926-.0268-.2354.0133-.1606.1871.5351.4009.5993.4276.3317.1203.6742.2406 1.0059.3608.3746.1337.7492.2673 1.1344.4143z" fill="#eb924d"/></svg>