<svg fill="none" height="42" viewBox="0 0 63 42" width="63" xmlns="http://www.w3.org/2000/svg" xmlns:xlink="http://www.w3.org/1999/xlink"><linearGradient id="a"><stop offset="0" stop-color="#cf5c2b"/><stop offset="1" stop-color="#59173e"/></linearGradient><linearGradient id="b" gradientUnits="userSpaceOnUse" x1="48.6543" x2="38.1668" xlink:href="#a" y1="-18.7774" y2="4.5372"/><linearGradient id="c" gradientUnits="userSpaceOnUse" x1="44.2317" x2="7.11894" xlink:href="#a" y1="-10.4845" y2="75.1977"/><linearGradient id="d" gradientUnits="userSpaceOnUse" x1="40.1534" x2="3.04063" xlink:href="#a" y1=".100329" y2="85.7823"/><linearGradient id="e" gradientUnits="userSpaceOnUse" x1="33.1023" x2="31.9728" xlink:href="#a" y1="53.6455" y2="17.8234"/><path d="m49.61 5.50423c-.2112-2.86956-2.5614-5.11415-5.431-5.22858-8.0805-.3256865-16.1259-.3256865-24.1448-.008803-.5809.026407-1.1531.132035-1.6988.334489-.2729.096825-.537.220058-.7834.352093-1.25.686581-2.095 1.874891-2.7464 3.098421-.6953 1.28514-1.3995 2.71111-1.4875 4.1899-.0705 1.19712-.1321 2.40305-.1761 3.60015-.0088.132-.0088.2553.0088.3785.0088.0704.0176.1408.0088.2113-.0264.3873-.0088.7306.1937 1.0738.1232.2025.2816.3785.4841.493-.0176-.0088-.1849.1496-.2113.1672-.0704.0616-.132.1321-.1848.2025-.1144.1496-.2113.3081-.2729.4841-.0704.176-.1144.3609-.1232.5457-.0616.7482-.044 1.4964-.0352 2.2446.0088.6514-.0528 1.338.0528 1.9806.0264.1584 0 .3256.0352.4841.0704.3609.2377.6954.4049 1.0211-.2817.2992-.4049.7129-.4225 1.1267-.0176.4753.0704.9418.0352 1.4171-.088 1.2852-.0088 2.6055.0704 3.8819.0088.1496.0352.2992.0616.4401.0793.3609.0881.7394.2905 1.0563.088.1408.2025.264.3433.3608-.132-.0176-.2377.1233-.2993.2377-.3961.757-.3961 1.3468-.2376 2.1566.1584.845.1144 1.646.4225 2.4734.2552.6866.6425 1.3204 1.1267 1.8573 1.0034 1.1179 2.4294 1.8045 3.9258 1.8925 8.5119.493 16.7068.537 24.5233.0528.0352 0 .0704-.0088.1056-.0088.9507-.0792 1.8749-.3873 2.6759-.9066.7834-.5017 1.4348-1.1971 1.8925-2.0069.5282-.9331.7834-2.0334 1.0475-3.0632.1672-.6338.4225-1.4436.3521-2.1214-.044-.3873.0704-.7658.0528-1.1531-.0176-.4401-.132-.8714-.3345-1.2587-.0264-.0441-.0528-.0969-.0528-.1497-.0088-.1232.1232-.2112.2201-.2905.2288-.176.3785-.4489.4313-.7306.0088-.0704.0176-.1408.0088-.2112-.0264-.1232-.0176-.2201-.0088-.3521.044-.889.0792-1.7781.1144-2.6671.0352-.9771.0704-1.9541.088-2.9224.0264-.9594.0352-1.9277.044-2.8871.0088-.9507.0088-1.9013 0-2.8432 0-.4665-.0088-.9418-.0176-1.4084 0-.2376-.0088-.4665-.0176-.7041-.0088-.2201-.044-.4666-.0088-.6866.0088-.0793.0352-.1409.0176-.2201-.0088-.0968-.0352-.1848-.0616-.2817-.0528-.1848-.132-.3609-.2288-.5281-.0969-.1672-.2113-.3169-.3521-.4577-.0352-.0352-.4049-.37852-.4402-.34331.1145-.10563.2113-.22006.2993-.34329.2289-.32569.3609-.70419.4577-1.09149.0441-.19365.0705-.39611.0969-.59856.0088-.03521.0264-.07042.0264-.11443.0264-.14084-.0088-.30808-.0176-.44892-.0352-.58095-.0792-1.17951-.1233-1.77807z" fill="url(#b)"/><path d="m49.989 12.1054c-.0088 1.0035-.0176 2.007-.0264 3.0104-.0088.4754-.0088.9595-.0088 1.4436 0 .2641-.0088.5194-.0088.7746-.0176 1.3644-.0352 2.7287-.0704 4.0931-.0177.6778-.0353 1.3556-.0617 2.0333-.0176.4049-.0088.7834-.1408 1.1619-.1496.4226-.1408.9419-.1937 1.3908-.0176.1409-.044.2905-.1496.3961-.0968.0968-.2377.1145-.3785.1233-.22.0264-.4489.044-.669.0704-1.2939.132-2.5967.2552-3.8906.2904-.9594.0177-1.9277-.0088-2.8872-.1144.7306.1056 1.4612.2201 2.1918.3257.2113.0352.4137.0616.625.0968 1.4876.2201 2.9752.4401 4.4628.6602.132.0264.2816.044.3785.1408.1496.1321.1584.3609.1496.5634-.0176.2993-.044.5985-.0968.8978-.0792.5898-.1937 1.1795-.2201 1.7781-.0088.1232.0176.2465-.0088.3697-.0616.3785-.3433.7394-.5545 1.0387-.9947 1.3907-2.5791 2.271-4.278 2.3766-7.702.4841-15.7649.4401-24.1447-.044-1.206-.0704-2.3767-.537-3.3009-1.3204-.5458-.4665-1.0563-1.065-1.3732-1.7252-.1408-.2993-.176-.6426-.3169-.9507-.0264-.0704-.0528-.132-.0792-.2024-.044-.2025-.0264-.4225.1497-.5634.1848-.1496.4489-.1584.6865-.1672 2.6672-.088 5.3255-.2553 7.9926-.3345h.0792c.8098-.0264 1.6284-.0352 2.4382-.0352-.2993-.044-.5985-.088-.8978-.1144-1.3732-.1673-2.7639-.2201-4.1459-.2729-.0176 0-.0352-.0088-.044-.0088h-.0176c-1.6725-.0616-3.3361-.1321-4.9821-.3961-.3169-.0528-.6426-.1145-.9243-.2553-.2112-.0968-.3961-.2289-.5281-.4225-.0088 0-.0176-.0176-.0264-.0264-.1937-.2993-.2641-.7482-.2025-1.0827.0792-.3873.0264-.7658.0088-1.1795-.0352-.7042-.0792-1.4172-.1056-2.1214-.0264-.3873-.044-.7746-.0616-1.1619-.0088-.2112-.0176-.4489.1144-.6161.1056-.1321.2905-.1761.4577-.2201.5194-.132 1.0387-.2641 1.5756-.3433.2377-.044.4754-.0704.713-.088-.6073-.1408-1.2147-.2729-1.8309-.4137-.1848-.044-.3697-.088-.5369-.1761-.0352-.0176-.0792-.044-.1144-.0704-.2993-.22-.3785-.5193-.4225-.8362-.0176-.1056-.0264-.2201-.0441-.3257-.044-.2553-.0792-.5017-.0968-.757-.044-.3873-.0616-.7746-.0792-1.1619-.0352-.845-.0792-1.9365.4577-2.6495.1937-.2553.537-.3169.8538-.3521 1.2412-.1496 2.4823-.2817 3.7234-.3873.2553-.0264.5194-.044.7746-.0704 1.2588-.0968 2.5087-.1761 3.7762-.2377-1.514.0704-3.0368.044-4.5508-.0528-.9506-.0616-1.9013-.1584-2.8519-.2817-.3961-.0528-.8098-.1144-1.1619-.2992-.0088-.0088-.0176-.0088-.0264-.0176-.0969-.0441-.1849-.0969-.2729-.1673-.1937-.1496-.3345-.3521-.4137-.5809-.088-.2377-.044-.4402-.0088-.6778.0088-.088 0-.1761 0-.2641-.0176-.5369.0264-1.0827.0352-1.61962.0088-.27287.0176-.54575.0352-.82742.0352-1.19712.0968-2.39423.1672-3.59135.1761-2.90476 2.5351-5.202172 5.4399-5.316602 8.0101-.3256861 16.0554-.3168838 24.1448.008802 2.5966.105628 4.8588 2.04214 5.343 4.59481.1496.78341.2024 1.63724.0528 2.42945-.0352.20245-.088.3961-.1585.58095-.044.10563-.1144.32569-.2112.41371-.0088.0088-.0176.0176-.0176.0176-.0704.04401-.1673.05282-.2377.07042-.4753.11443-.9506.21126-1.426.29928-.9506.16725-1.9101.29048-2.8695.3785-.0088 0-.0088 0-.0088 0-1.9365.16725-3.8906.20245-5.8272.22886h-.0528c.5282.03521 1.0651.06162 1.5932.09683 1.4436.07922 2.8872.16724 4.3308.25526.9594.05282 1.9277.10563 2.8872.16725.5809.03521 1.1883.07922 1.69.37847.0088 0 .0088.0088.0088.0088.6426.4313.6866 1.2059.6778 1.9365z" fill="url(#c)"/><path d="m49.9885 12.1055c-.0088 1.0034-.0176 2.0069-.0176 3.0104-.0088.4753-.0088.9594-.0088 1.4435 0 .2641-.0088.5194-.0088.7747-3.7058.2376-7.4203.5633-11.1349.7922-4.3308.264-8.6615.5545-12.9834.8274-2.3327.1496-4.6477.3257-6.9715.5897-1.558.1761-3.0368.4313-4.5508.3433-.0176-.1056-.0264-.22-.044-.3257-.044-.2552-.0792-.5017-.0968-.757 1.5316-.3256 3.072-.2728 4.7004-.3256 2.183-.0705 4.3308-.2201 6.5049-.4226 4.3308-.4049 8.6615-.8274 12.9923-1.3203 2.579-.2993 5.1581-.5634 7.746-.845-.088-.0088-.1672-.0088-.2553-.0176-4.2339-.2289-8.3974-1.0123-12.6137-1.3908-4.1811-.3785-8.3798-.7042-12.5785-.9507-1.6989-.1056-3.6442-.0792-5.5631-.2112-.0088-.0088-.0176-.0088-.0264-.0176-.0968-.044-.1848-.0968-.2729-.1673-.1936-.1496-.3344-.3521-.4137-.5809-.088-.2377-.044-.4401-.0088-.6778.0088-.088 0-.176 0-.2641-.0176-.5369.0264-1.0826.0352-1.61959.0088-.27287.0176-.54574.0352-.82742 2.1302-.11443 4.3308.02641 6.2233.04401 4.1987.03521 8.3886.23767 12.5785.48413 4.2075.24647 8.4062.14964 12.6137.34327 1.1355.0528 2.2798.0968 3.4153.1233.6778.4401.713 1.2147.7042 1.9453zm-13.9076 9.8322c-7.1563.3433-14.6911.0264-21.6626 1.8661.0352.7041.0705 1.4171.1057 2.1213.0176.4049.0704.7834-.0088 1.1795-.0617.3345.0176.7834.2024 1.0827 2.1126.5546 4.2691.8979 6.4609 1.1179.0176 0 .0352.0088.0616.0088 1.3732.1409 2.7552.2201 4.1459.2729 3.5826.132 7.1915.0528 10.6949.088 4.3835.044 8.7671-.044 13.1418-.2024.044-.2993.0793-.5898.0969-.8979.0088-.2024 0-.4225-.1497-.5633-.0968-.0881-.2464-.1145-.3785-.1409-1.6988-.2552-3.3889-.5017-5.0877-.757-.7306-.1056-1.4612-.22-2.1918-.3257 2.2534.2553 4.5244.0617 6.7866-.1672.22-.0264.4489-.044.669-.0704.132-.0088.2816-.0264.3785-.1232.1056-.0969.132-.2553.1496-.3962.0528-.4489.0352-.9594.1937-1.3907.132-.3873.132-.757.1408-1.1619.0264-.6778.044-1.3556.0616-2.0334-4.6036.1321-9.216.2729-13.8108.493z" fill="url(#d)"/><g fill="#e68b4a"><path d="m14.7452 28.2319c-.2112-.2993-.2993-.7746-.2288-1.1267.0792-.3873.0264-.7658.0088-1.1795-.0617-1.0915-.1145-2.1918-.1673-3.2833-.0088-.2113-.0176-.4489.1144-.6162.1057-.132.2905-.176.4578-.22.5193-.1321 1.0386-.2641 1.5756-.3433-.2993.2289-.5898.4137-.9419.5897-.1232.0617-.2552.1233-.3433.2289-.0968.1056-.132.2641-.1672.4049-.2993 1.3732-.1408 2.808.0264 4.2075.0704.581.1408 1.1707.1937 1.7605-.2113-.0968-.3961-.2377-.5282-.4225z"/><path d="m14.2594 19.5608c-.1056-.6337-.1497-1.2851-.1761-1.9189-.0352-.845-.0792-1.9365.4578-2.6495.1936-.2552.5369-.3169.8538-.3521 1.4964-.176 2.9928-.3345 4.498-.4489-1.426.4753-3.0544.4753-4.4364 1.0651-.2553.1056-.5105.2377-.6514.4753-.0968.1585-.132.3433-.1584.5194-.088.5633-.1497 1.1002-.1144 1.6724.0264.3609.0528.7306.088 1.0915.0528.5985.1408 1.1883.2376 1.7781-.0352-.0177-.0792-.0441-.1144-.0705-.4137-.2816-.4049-.7306-.4841-1.1619z"/><path d="m43.457 26.999.1857.0789c-.0707-.0176-.1326-.0351-.1857-.0789z"/><path d="m49.3202 28.5569c-.0352.9066-.2816 1.778-.3168 2.6759-.0088.1232.0176.2464-.0088.3697-.0617.3785-.3433.7394-.5546 1.0386-.9947 1.3908-2.5791 2.271-4.2779 2.3767-7.7021.4841-15.765.4401-24.1448-.044-1.2059-.0705-2.3766-.537-3.3009-1.3204-.5545-.4577-1.0651-1.0563-1.3819-1.7164-.1409-.2993-.1761-.6426-.3169-.9507-.0264-.0704-.0528-.132-.0792-.2025-.0441-.2024-.0265-.4225.1496-.5633.1848-.1496.4489-.1584.6866-.1672 2.6671-.0881 5.3254-.2553 7.9925-.3345-2.3414.132-4.6741.4577-6.9803.8714-.3168.0528-.6601.0792-.9682.1672-.044.0176-.0968.0176-.1409.0617-.0528.0704-.044.1584-.0352.2376.0352.2729.1849.5018.3521.7218.537.7042 1.1003 1.4436 1.8925 1.8573 1.9013 1.0035 3.8378.8538 5.9944.8098.4401-.0088.8714 0 1.3116-.0792.22-.044.4841 0 .7041.0088.5018.0176 1.0035.0264 1.514.044 1.0035.0264 2.0158.0528 3.0192.088 1.8837.0528 3.7674.1057 5.6511.1585 1.7957.0528 3.5914.0968 5.3871-.0528 1.7692-.1409 3.5385-.4754 5.1757-1.1884.1321-.0616.2905-.1056.4049-.2024.0881-.0616.1585-.1408.2465-.2025.2729-.176.5369-.3521.7746-.5721.1584-.1496.3873-.3433.4665-.5546.044-.1144.0705-.2464.1145-.3609.1144-.3256.176-.6689.2024-1.0122.0264-.3785.0088-.7658-.0352-1.1443-.0176-.1673.0088-.4841-.0968-.625-.0528-.0792-.1937-.1496-.2817-.1936-.2289-.1145-.4929-.1673-.7482-.2113-1.3644-.2553-2.7023-.669-3.9786-1.2323 1.6988.2552 3.3889.5105 5.0877.757.132.0264.2817.044.3785.1408.1408.1233.1408.3521.1408.5458z"/><path d="m14.4096 12.5543c-.0704-.2817-.0616-.5721-.0616-.8626.0352-1.3996.0704-2.80795.1496-4.20752.0705-1.28514.0441-2.6407.5722-3.83781.8626-1.95412 2.8255-3.292072 4.9733-3.380095 8.0101-.3256859 16.0555-.3168836 24.1448.008802 2.5967.105628 4.8589 2.042143 5.343 4.594813.1496.78341.2025 1.63723.0528 2.42944-.0352.20246-.088.39611-.1584.58096-.044.10563-.1145.32568-.2113.41371-.1672-1.28514.1497-2.69352-.3169-3.90824-.2728-.73059-.6689-1.45238-1.2939-1.93651-2.0597-1.593219-5.0966-1.487591-7.5788-1.531603-6.8394-.132035-13.6348-.34329-20.4478.272873-.3169.02641-.625-.08802-.9243-.03521-.6777.11443-1.3291.57215-1.822 1.02107-.6778.62496-1.1972 1.41717-1.5228 2.2798-.0881.25527-.1673.51054-.2377.7658-.6602 2.53507-.3785 5.47502-.0616 8.04532-.2905-.0968-.4929-.3697-.5898-.669 0-.0088-.0088-.0264-.0088-.044z"/><path d="m49.9886 12.1057c-.0088 1.0035-.0176 2.0069-.0176 3.0104-.0088.4753-.0088.9594-.0088 1.4436-.0176 2.3062-.044 4.6036-.1408 6.9098-.0176.4049-.0088.7834-.1409 1.1619-.1496.4225-.1408.9418-.1936 1.3908-.0176.1408-.044.2904-.1497.3961-.0968.0968-.2376.1144-.3785.1232-.22.0264-.4489.044-.6689.0704.132-.088.2288-.2112.308-.3609.1057-.22.1321-.4753.1497-.7218.3257-4.0578.3521-8.1333.2376-12.2-.0176-.5369-.0352-1.0739-.0528-1.6108-.0088-.1232.0176-.2377.0088-.3609-.0176-.1585-.0968-.3081-.2024-.4401-.2289-.2817-.581-.4577-.9155-.5722-2.4822-.8362-5.2638-.2288-7.7724-.97704h.2993c2.4118.14084 4.8148.28168 7.2179.42252.5809.03521 1.1883.07922 1.69.37852.7042.4225.7394 1.1971.7306 1.9365z"/></g><path d="m43.7032 27.1045c.2112.0352.4137.0616.6249.0968-.1144.405-.2817.7835-.5281 1.1003-1.0035 1.294-2.8784 1.5228-4.3572 1.6109-2.5086.1408-5.0173.2904-7.526.2728-2.7023-.0176-5.3606-.2728-8.0541-.4577.8098-.0264 1.6284-.0352 2.4383-.0352-.2993-.044-.5986-.088-.8979-.1144-1.3731-.1673-2.7639-.2201-4.1459-.2729-.0176 0-.0352-.0088-.044-.0088h-.0352c-.1056-.0264-.2201-.0616-.3345-.0968-.2288-.0704-.4665-.1497-.6602-.2817-.4577-.3257-.6425-.933-.801-1.4876-.3521-1.2675-.22-2.5263-.1496-3.8114.0792-1.382.0792-2.7639.0528-4.1459-.044-1.7252-.1232-3.4769-.176-5.211.2552-.0264.5193-.044.7746-.0704.6425-.0528 1.2763-.0968 1.9189-.132.0176 2.2798.1496 4.5684.2376 6.8394.0088.2464-.0264.4929 0 .7306.0176.1408 0 .2288.0969.3433.132.1672.5193.3345.7482.3785.2728.044.5633.0176.8362.0176.5985 0 1.2059 0 1.8044.0088-.5897.0968-1.1795.1584-1.778.1848-.2553.0088-.5634-.0352-.801.044-.2377.0793-.4754.1145-.713.1761-.0704.0176-.1409.0352-.1849.088-.044.044-.0528.1056-.0704.1672-.044.2553-.0176.5106.0528.757.0528.1937.1233.3609.1057.5634-.0441.4753.0264.9595.0968 1.4348.0264.176.0352.3345.1408.4841.2289.3169.6338.4929.9947.5898 2.7903.7658 5.7127.801 8.6087.8362 1.7076.0176 3.4153.0352 5.1229-.0176 1.1619-.0352 3.2833.2024 4.2867-.5194.1409-.0968.2641-.22.3609-.3609.6514.1057 1.3028.2113 1.9542.2993zm-21.8914-14.515c.0088-.4841.0528-.9683.0968-1.4524.0088-.0792.0088-.1584 0-.2377-.0176-.1584-.0176-.2816.0176-.4313.088-.3345.2465-.68655.5633-.8626.2113-.11443.4666-.12323.713-.13204 1.1972-.0352 2.3943-.0352 3.5914-.0088-.9507-.09682-1.9013-.20245-2.852-.29928-.5369-.05281-1.0827-.11443-1.602.01761.0176-.0088.0704-.14084.088-.15844.0352-.06162.0793-.12324.1233-.17605.0792-.10563.176-.21126.2816-.29928.1849-.15844.3521-.33449.5458-.48413.4137-.31688.889-.53694 1.3731-.71299.4578-.16724.9331-.28167 1.4084-.3961.3257-.07922.6602-.07922.9947-.08802 3.7498-.05282 7.4996-.07042 11.2494-.09683.6249-.0088 1.2675.21126 1.8748.3785.449.12323.9067.31688 1.1972.68658.2728.34329.4225.83622.5017 1.38197.889-.02641 1.7781-.07922 2.6847-.15844-.0792-1.06509-.2641-2.09496-1.0123-2.90477-.8186-.88023-2.2093-1.06508-3.336-1.1267-1.2676-.07042-2.5351-.11443-3.8026-.14964-.9947-.0176-1.9806-.03521-2.9664-.03521-2.0246-.0088-4.0139.07042-6.0208.17605-2.183.10563-4.9293-.63377-6.7778.86263-.9155.73939-1.3556 1.66364-1.5404 2.86075-.1409.90664-.1497 1.83093-.1497 2.74633 0 .7922.0176 1.5932.0441 2.4118.8978.0617 1.7956.0969 2.6935.0969.0088-.4754.0088-.9419.0176-1.4084zm23.1677 3.072c-.044-1.7341-.132-3.4681-.2553-5.2022-.0176-.2728-.0352-.54572-.0528-.82739-.889-.05282-1.7869-.10563-2.6847-.15845.088.95064.0088 2.00694.0528 2.71114.0616 1.0915.1673 2.183.2553 3.2656.044.5282.088 1.0563.1144 1.5845.0088.1672.044.308-.0528.4489-.1673.2464-.5281.2905-.801.3081-1.4612.0968-2.94.132-4.366.4753 1.8133.0704 3.6266.0352 5.4311-.0968-.0352.1584-.0793.3256-.1145.4841-.0352.1408-.088.2905-.088.4313 0 .088.0352.1761.044.2641.0264.1496.0088.3169.0176.4665.0088.669 0 1.338-.0088 2.0069-.0088.5634-.0264 1.1267-.044 1.6813-.0088.0616-.0088.132-.0088.1936-.0352.9155-.044 2.271-.6602 3.0896.8803.0881 1.7605.1145 2.6319.0969.1673-.7306.2201-1.514.2993-2.1918.2905-2.3678.2553-4.7797.2817-7.1651.0088-.625.0088-1.2411.0088-1.8573.0088.0088 0 0 0-.0088z" fill="url(#e)"/><g fill="#e68b4a"><path d="m35.58 30.018c1.1531-.0176 2.3326-.0352 3.4769-.2112.2377-.0353.4929-.0265.7394-.0441.5193-.0352 1.0299-.088 1.5404-.1584.3345-.044.669-.0968.9947-.2113.977-.3344 1.7516-1.2147 1.9629-2.2269-.5369-.0265-1.1531-.0265-1.6901-.0529.449-.0792 1.1091.1497 1.3116.5634-.581.5105-1.2323.9682-1.9717 1.1707-.3961.1056-.8098.1408-1.2147.1672-2.7728.2113-5.5543.4314-8.327.3785-1.338-.0176-2.6672-.1056-4.0051-.0528-.3873.0176-.7746.044-1.1531.0528-.2201.0088-.4401.0264-.6602-.0088-.1496-.0176-.3081-.0088-.4577-.0088-.3345 0-.6602-.0088-.9947-.0264-.6601-.0264-1.3203-.0792-1.9805-.1496-.713-.0792-1.4348-.1761-2.139-.3081-.3432-.0616-.7041-.1408-.9506-.3697-.1673-.1584-.2729-.3697-.3609-.5721-.2905-.669-.4841-1.382-.5722-2.1038-.2552.889.0088 1.8661.5986 2.5879.5545.6778 1.4084 1.0651 2.2622 1.2235.6426.1232 1.3644.1849 2.0069.1144.1409-.0176.2817 0 .4313.0088.3345.0176.669.0353 1.0035.0529.669.0352 1.338.0616 2.0069.0792.669.0176 1.3292.0264 1.9982.0352.3081 0 .6425.0352.9506-.0088.2993-.044.6338.0088.9419.0176 1.3379.044 2.6847.0792 4.0226.0704.0704-.0088.1497-.0088.2289-.0088z"/><path d="m45.6312 9.90492s-1.0827-.03521-1.1795-.03521c-.4049-.0176-.801-.04401-1.2059-.07042-.2025-.0176-.4049-.0264-.5986-.04401-.0968-.0088-.2024-.0176-.2993-.02641-.0528-.0088-.1144-.0176-.176-.0176-.0264 0-.044.0088-.0616.0088-.0352-.0088-.0792-.0176-.1145-.02641-.1584-.04401-.3168-.07922-.4753-.12323 0-.0264-.0088-.04401-.0088-.07042 0-.0088.2201-.0088.2377-.0088.0616.0088.132.02641.1936.01761.0528-.00881.0969-.01761.1497-.01761h.2464c.3345 0 .669.0088.9947.02641.3345.0176.669.03521.9947.06161.3345.02641.6689.06162.9946.10563.1145.01761.2377.02641.3521.04401.0176.07923-.044.08803-.044.17605z"/><path d="m22.1723 14.0156c-1.0563.1057-2.1126.2465-3.1601.4401-.0704-.0704-.0968-.1496-.0792-.2376 1.1003-.1321 2.1302-.1585 3.2393-.2025z"/></g><path d="m42.9661 16.5767c.0352 2.4559-.0352 4.8765-.1936 7.2708-.0353.5369-.0705 1.0827-.1233 1.6196-.132 1.6284-1.4524 2.9136-3.0808 3.028-5.2022.3521-10.5188.3345-15.9322-.0088-1.6548-.1056-2.984-1.4348-3.0896-3.0896 0-.0264-.0088-.044-.0088-.0704-.2113-4.1547-.2465-8.3799-.1145-12.6754.0089-.2024.0089-.4049.0177-.6073.0352-.8187.0616-1.6285.1056-2.44709.0088-.19366.0352-.3785.0792-.56335 0-.03521.0088-.07042.0264-.10563.3433-1.39077 1.5668-2.42064 3.0544-2.49986 5.1934-.25527 10.4484-.25527 15.7826.0088 1.6636.07922 3.028 1.38197 3.16 3.04561.1233 1.55802.2113 3.09842.2641 4.63002.0352.8274.0528 1.646.0528 2.4646z" fill="#e58b4a"/><path d="m29.5959 21.1016c.1406.1093.2109.1718.2109.1875 0 0 .0079.0078.0235.0234.125.0625.1953.1094.2109.1406.0313.0157.0625.0391.0938.0703.1406.0782.2422.125.3047.1407.0625 0 .1171.0156.164.0468.1094 0 .211.0235.3047.0703.0938.0313.1953.0626.3047.0938.0781.0156.1562.0234.2344.0234h.2578.2812c.2188-.0156.3907-.039.5157-.0703.1406-.0312.2812-.0625.4218-.0937.1094-.0156.1719-.0313.1875-.0469.0157-.0156.0391-.0313.0703-.0469.0782-.0312.1485-.0625.211-.0937.0625-.0313.125-.0781.1875-.1407v-.4453c0-.2031.0078-.414.0234-.6328.0156-.2343.0078-.4687-.0234-.7031 0-.0938-.0156-.1797-.0469-.2578-.0156-.0938-.0312-.1875-.0469-.2813 0-.1406-.0078-.2187-.0234-.2343 0-.0313 0-.0625 0-.0938-.0313-.2656-.0547-.4453-.0703-.539v-.4219c-.0156-.0625-.0235-.1172-.0235-.1641.0157-.0469.0235-.1094.0235-.1875 0-.0625-.0078-.125-.0235-.1875 0-.0625 0-.125 0-.1875 0-.0781-.0078-.1328-.0234-.1641 0-.0468 0-.0859 0-.1171.0313-.2344.0469-.4141.0469-.5391.0156-.1406.0078-.25-.0235-.3281-.0156-.0469-.0234-.1016-.0234-.1641.0156-.0781.0234-.1484.0234-.2109 0-.0938-.0078-.1797-.0234-.2578 0-.0938 0-.1797 0-.2579-.0156-.1406-.0312-.2812-.0469-.4218-.0156-.1406-.0312-.2813-.0468-.4219.0156-.125.0078-.2187-.0235-.2813.0156-.1093.0156-.1796 0-.2109-.0156-.0469-.0234-.0859-.0234-.1172-.0156-.0625-.0235-.1172-.0235-.164 0-.0625 0-.1172 0-.1641 0-.0781-.0078-.1562-.0234-.2344-.0156-.0781-.0234-.1562-.0234-.2344 0-.1406 0-.2421 0-.3046s-.0078-.1172-.0235-.1641c-.0468-.2344-.0703-.4063-.0703-.5156.0156-.1094.0235-.2188.0235-.3281v-.5626-.3046c0-.0625-.0079-.1172-.0235-.1641 0-.0469 0-.0859 0-.1172 0-.0469 0-.0937 0-.1406 0-.0625 0-.1172 0-.1641 0-.06248-.0156-.15622-.0469-.28122 0-.04688.0079-.09376.0235-.14063s.0234-.10156.0234-.16406c0-.07813-.0078-.13281-.0234-.16407-.0156-.04687-.0078-.10937.0234-.1875.0781-.125.1406-.20312.1875-.23437s.086-.0625.1172-.09375c.125-.09375.2188-.14062.2813-.14062s.125-.00782.1875-.02344c.2968-.03125.6015-.03125.914 0 .0781.01562.1406.03125.1875.04687.0469.01563.1094.03125.1875.04688h.3281c.125.01562.2344.02343.3282.02343.0937-.01562.1953-.02343.3047-.02343.125.01562.2343.03125.3281.04687h.3984c.1094 0 .1719.00782.1875.02344h.0703c.1875-.03125.3047-.04688.3516-.04688s.1094-.00781.1875-.02343c.2344-.03125.4219-.04688.5625-.04688.125-.01562.2344-.03125.3281-.04687.1094-.01563.2031-.01563.2813 0 .1406.125.2265.21094.2578.25781.0312.04687.0703.08594.1172.11719.0312.14062.0468.23437.0468.28125.0157.04687.0235.07812.0235.09375-.0156.07812-.0156.14062 0 .1875.0156.04687.0312.08594.0469.11718.0312.23438.0312.46098 0 .67968-.0157.1406-.0313.2969-.0469.4688v.5156c-.0156.1875-.0235.3672-.0235.5391.0157.1562.0235.3281.0235.5156-.0313.125-.0469.2187-.0469.2812-.0156.125-.0156.2422 0 .3516.0156.0937.0156.1953 0 .3047v.4453c0 .0937-.0078.1797-.0234.2578 0 .0469-.0078.0938-.0235.1406v.1172c-.0156.0938-.0234.211-.0234.3516 0 .125-.0078.25-.0234.375.0156.125.0234.2187.0234.2812 0 .0469-.0078.1016-.0234.1641.0156.0469.0156.1406 0 .2812-.0157.125-.0235.2032-.0235.2344v.1641c.0156.0468.0235.1015.0235.164.0156.0782.0156.1485 0 .211v.2109c-.0157.0469-.0235.0938-.0235.1406.0156.0469.0235.0938.0235.1407 0 .0625-.0079.1172-.0235.164 0 .0469.0078.0938.0235.1406v.3516c0 .0938.0078.1797.0234.2578.0156.0782.0078.1563-.0234.2344v.1172c.0156.0312.0234.0781.0234.1406.0312.25.0391.4219.0234.5156 0 .0782.0078.1563.0235.2344v.1406c.0156.0469.0234.086.0234.1172-.0156.1563-.0156.2735 0 .3516.0156.0625.0234.1172.0234.164-.0156.0782-.0234.1407-.0234.1876.0156.0312.0234.0624.0234.0937 0 .1406.0079.2266.0235.2578.0156.0156.0156.0625 0 .1406.0469.1875.0625.3438.0469.4688 0 .1094.0078.2265.0234.3515-.0156.1094-.0234.1876-.0234.2344.0156.0469.0234.0938.0234.1406v.1407c.0156.0469.0156.0859 0 .1172l-.0234.6328c0 .1093-.0079.2187-.0235.3281 0 .0938-.0078.1875-.0234.2812v.2579c-.0313.1718-.0469.2656-.0469.2812.0156.0156.0234.0313.0234.0469l-.0234.2812c0 .0313-.0156.1094-.0469.2344-.0312.125-.0468.2031-.0468.2344-.0469.1875-.0704.3047-.0704.3516.0157.0312.0157.0703 0 .1171 0 .0469-.0078.1016-.0234.1641-.0156.0469-.0391.1094-.0703.1875-.0469.2031-.0703.3203-.0703.3516-.0313.0781-.0391.1562-.0235.2343.0157.0938 0 .1563-.0468.1875-.1875-.0625-.3047-.0937-.3516-.0937-.0469.0156-.0859.039-.1172.0703-.0625-.0156-.125-.0156-.1875 0-.0469.0156-.0937.0313-.1406.0469-.2031.0468-.375.0781-.5156.0937-.1407.0157-.2735.0313-.3985.0469s-.2109.0234-.2578.0234c-.0469.0157-.1015.0235-.164.0235-.0938.0312-.1797.0469-.2579.0469-.0625 0-.1171-.0079-.164-.0235-.0313 0-.0703-.0078-.1172-.0234-.1875.0312-.2891.0547-.3047.0703s-.0312.0234-.0469.0234c-.1093-.0312-.2031-.0468-.2812-.0468-.125-.0157-.25-.0313-.375-.0469-.125-.0157-.2656-.0235-.4219-.0235-.0937-.0156-.1641-.0312-.2109-.0468-.0313 0-.0782-.0078-.1407-.0235-.0937-.0156-.1875-.0312-.2812-.0469-.0938 0-.1797-.039-.2578-.1171-.0156-.1719-.0235-.2969-.0235-.375 0-.0782-.0156-.1329-.0468-.1641.0312-.0469.039-.0938.0234-.1406 0-.0625 0-.1172 0-.1641-.0156-.0625-.0234-.1562-.0234-.2812-.0157-.0938-.0313-.1797-.0469-.2579 0-.0937-.0078-.1796-.0234-.2578-.1094.0469-.1797.1016-.211.1641-.0781.1406-.125.2187-.1406.2344-.0625.0469-.1172.0937-.1641.1406-.0312.0469-.0625.0859-.0937.1172-.125.1094-.1875.1641-.1875.1641.0156 0 .0156.0078 0 .0234-.0313.0312-.0703.0625-.1172.0937-.0313.0313-.0625.0782-.0938.1407-.1875.0937-.3046.1562-.3515.1875-.0469.0156-.0938.039-.1406.0703-.0469.0312-.1016.0547-.1641.0703-.0469.0156-.0859.0469-.1172.0937-.1719.0938-.2656.1407-.2812.1407-.0157 0-.0391.0078-.0704.0234-.0781.0781-.1328.1172-.164.1172-.0156 0-.0391.0078-.0703.0234l-.2578.0938c-.1875.0625-.336.0781-.4454.0469-.1093-.0157-.2031-.0313-.2812-.0469-.1563.0312-.2578.0469-.3047.0469-.0312 0-.0781-.0157-.1406-.0469-.0625-.0157-.1172-.0235-.1641-.0235-.0625 0-.125.0078-.1875.0235-.0469.0156-.0937.0156-.1406 0l-.375-.0235c-.2031-.0156-.3438-.0312-.4219-.0468-.0625-.0157-.1328-.0078-.2109.0234-.1563-.0781-.25-.125-.2813-.1406-.0312 0-.0468-.0156-.0468-.0469-.0782 0-.1485-.0156-.211-.0469-.0469-.0156-.1015-.039-.164-.0703-.1563-.0156-.2657-.0391-.3282-.0703-.0468-.0469-.1093-.0859-.1875-.1172-.1875-.0781-.3203-.1172-.3984-.1172-.0469-.0468-.1016-.0781-.1641-.0937-.0625-.0313-.125-.0625-.1875-.0938-.125-.0781-.1953-.125-.2109-.1406-.0156-.0313-.0391-.0313-.0703 0l-.2813-.1641c-.1093-.0937-.1718-.1406-.1875-.1406-.0156 0-.039-.0156-.0703-.0469-.0781-.0625-.1328-.1015-.164-.1171-.0313-.0157-.0704-.0391-.1172-.0704-.0782-.0468-.1328-.0781-.1641-.0937-.0156-.0313-.0469-.0547-.0937-.0703-.1563-.0938-.2422-.1328-.2579-.1172-.0312-.0781-.0703-.125-.1171-.1406-.0469-.0157-.086-.0547-.1172-.1172-.0625-.0156-.1094-.0391-.1407-.0703-.0312-.0469-.0781-.0703-.1406-.0703-.0312-.0626-.0859-.1329-.164-.211-.125-.0937-.1954-.1484-.211-.164-.0625-.0938-.1094-.1485-.1406-.1641-.0156-.0313-.0313-.0625-.0469-.0938-.0781-.1562-.1172-.2343-.1172-.2343-.0312-.125-.0625-.211-.0937-.2578-.0156-.0469-.0235-.086-.0235-.1172.0157-.1719.0157-.2735 0-.3047 0-.0469 0-.086 0-.1172 0-.0781.0079-.1485.0235-.2109.0312-.0626.0312-.125 0-.1876.0312-.0312.0547-.0703.0703-.1171.0312-.0469.0469-.0938.0469-.1407.0156-.0468.0156-.0937 0-.1406-.0157-.0469-.0235-.0937-.0235-.1406 0-.0781 0-.1406 0-.1875.0157-.0625.0313-.1328.0469-.2109.0156-.0469.0234-.086.0234-.1172 0-.0469.0079-.0938.0235-.1407.0312-.1875.039-.2812.0234-.2812s-.0156-.0156 0-.0469c.0313-.0625.0469-.1328.0469-.2109 0-.0938 0-.1797 0-.2578.0156-.1094.0156-.1719 0-.1875 0-.0157 0-.0391 0-.0704.0312-.1718.0391-.289.0234-.3515 0-.0625 0-.1172 0-.1641.0469-.1875.0547-.3437.0235-.4687-.0157-.125-.0235-.2266-.0235-.3047v-.8438c0-.1093-.0078-.2187-.0234-.3281s-.0313-.2265-.0469-.3515c0-.1876 0-.2813 0-.2813.0156 0 .0235-.0078.0235-.0234 0-.0469-.0079-.086-.0235-.1172 0-.0469-.0078-.0938-.0234-.1407-.0156-.2343-.0235-.3828-.0235-.4453.0157-.0625.0157-.1328 0-.2109 0-.0781 0-.1562 0-.2344 0-.0781-.0078-.1562-.0234-.2344-.0156-.0937-.0391-.1796-.0703-.2578-.0156-.0937-.0078-.1796.0234-.2578.0313-.2968.0391-.5156.0235-.6562 0-.1563 0-.3047 0-.4453 0-.0938-.0078-.1953-.0235-.3047 0-.1094 0-.2266 0-.3516-.0312-.0937-.039-.2109-.0234-.3516.0156-.1406.0078-.289-.0234-.4453-.0157-.2031-.0313-.3593-.0469-.4687 0-.125-.0078-.2266-.0235-.3047-.0312-.2187-.039-.3516-.0234-.3984.0156-.0469.0156-.1016 0-.1641 0-.0312-.0078-.0703-.0234-.1172-.0157-.0469-.0313-.0937-.0469-.1406-.0313-.0625-.0547-.1563-.0703-.2813-.0156-.0781-.0313-.1406-.0469-.1875 0-.0468 0-.1093 0-.1875-.0156-.14059-.0312-.21871-.0469-.23434 0-.03125-.0078-.0625-.0234-.09375-.0313-.10937-.0469-.21093-.0469-.30469 0-.10937 0-.20312 0-.28124 0-.07813 0-.15626 0-.23438.0156-.07812.0469-.14844.0938-.21094.1562-.125.25-.19531.2812-.21094.0469-.03124.086-.04687.1172-.04687.0313-.01563.0703-.01563.1172 0h.1406.375c.0781.03125.1641.03906.2578.02344.0938-.01563.1875-.02344.2813-.02344.0781.03125.1875.04687.3281.04687.1719.01563.2813 0 .3281-.04687.0938-.01563.1797-.00781.2578.02344.0938.01562.1797.02343.2579.02343.0937.01563.1796.02344.2578.02344.0937-.01562.1953-.02344.3047-.02344.0937.01563.164.02344.2109.02344.0469-.01562.0937-.02344.1406-.02344.125.03126.2031.04688.2344.04688.0312-.01562.0625-.02344.0937-.02344h.211c.0781 0 .164-.00781.2578-.02344.1562 0 .2734-.01562.3516-.04687.2031-.03125.3828-.03906.539-.02344.1719.01563.2969.02344.375.02344.2344.0625.3828.14063.4453.23437.0469.09376.0782.15626.0938.1875.0312.01563.0625.03907.0937.07032.0469.07812.0625.14844.0469.21094 0 .0625.0078.11718.0234.16406.0313.15625.0469.25781.0469.30468.0156.0625.0156.11719 0 .16407-.0156.04687-.0234.08593-.0234.11719 0 .09372.0078.17972.0234.25782.0156.0625.0235.1328.0235.2109-.0313.1875-.0469.2891-.0469.3047.0156 0 .0234.0156.0234.0469-.0312.0937-.0469.164-.0469.2109.0157.0469.0235.0938.0235.1407-.0313.1718-.0625.3203-.0938.4453-.0312.125-.039.25-.0234.375.0156.1093.0078.2265-.0234.3515v.2813c-.0313.1875-.0469.289-.0469.3047.0156 0 .0234.0156.0234.0468-.0156.1407-.0312.25-.0469.3282v.2343c-.0312.3125-.0468.625-.0468.9375.0156.2969.0156.5782 0 .8438-.0157.125-.0157.2031 0 .2344.0156.0156.0234.0546.0234.1172 0 .0781-.0078.1718-.0234.2812 0 .0938.0078.1719.0234.2344v.1875c0 .0469-.0078.1093-.0234.1875-.0313.1875-.0391.4297-.0235.7265.0157.2813.0313.5313.0469.75v.2579c0 .0937.0078.1796.0234.2578.0157.1562.0235.2422.0235.2578.0312.1562.0312.3125 0 .4687-.0156.1563-.0078.3203.0234.4922.0469.2031.0625.3281.0469.375s-.0234.1016-.0234.1641v.3047c0 .0937.0234.1875.0703.2812.0468.0938.0547.1875.0234.2813z" fill="#693821"/></svg>