<svg fill="none" height="80" viewBox="0 0 284 80" width="284" xmlns="http://www.w3.org/2000/svg" xmlns:xlink="http://www.w3.org/1999/xlink"><linearGradient id="a"><stop offset="0" stop-color="#cf5c2b"/><stop offset="1" stop-color="#59173e"/></linearGradient><linearGradient id="b" gradientUnits="userSpaceOnUse" x1="203.524" x2="175.457" xlink:href="#a" y1="-98.9668" y2="-.805248"/><linearGradient id="c" gradientUnits="userSpaceOnUse" x1="155.854" x2="128.878" xlink:href="#a" y1="-29.9148" y2="150.651"/><linearGradient id="d" gradientUnits="userSpaceOnUse" x1="155.211" x2="119.353" xlink:href="#a" y1="-27.4214" y2="202.311"/><linearGradient id="e" gradientUnits="userSpaceOnUse" x1="201.378" x2="192.052" xlink:href="#a" y1="35.7905" y2="66.9766"/><linearGradient id="f" gradientUnits="userSpaceOnUse" x1="230.617" x2="163.133" xlink:href="#a" y1="-16.7676" y2="179.123"/><linearGradient id="g" gradientUnits="userSpaceOnUse" x1="41.795" x2="36.1067" xlink:href="#a" y1="1.27473" y2="17.2209"/><linearGradient id="h" gradientUnits="userSpaceOnUse" x1="69.8356" x2="-7.21241" xlink:href="#a" y1="-59.8873" y2="127.588"/><linearGradient id="i" gradientUnits="userSpaceOnUse" x1="41.7352" x2="34.0152" xlink:href="#a" y1="1.95096" y2="27.769"/><linearGradient id="j" gradientUnits="userSpaceOnUse" x1="80.4629" x2="12.9788" xlink:href="#a" y1="-68.4962" y2="127.396"/><linearGradient id="k" gradientUnits="userSpaceOnUse" x1="141.992" x2="141.992" xlink:href="#a" y1="92.3307" y2="55.1433"/><path d="m278.858 31.3397c-2.056-2.0183-4.532-3.7459-7.009-5.4736-1.175-.8234-2.35-1.6307-3.525-2.438-2.266-1.5662-4.511-3.1324-6.777-4.6986-.987-.6781-1.994-1.6469-3.19-2.099-1.112-.4359-1.993-1.0979-2.959-1.7115-4.427-2.8094-9.022-5.45736-13.807-7.89542-3.798-1.95368-7.784-3.79434-12.233-4.6178-1.951-.35521-3.966-.51668-5.959-.66199-2.875-.22605-5.75-.43593-8.624-.66198-1.448-.11302-2.917-.226054-4.365-.339077-.588-.048438-1.133-.096876-1.7-.226045-.944-.2099-1.888.096886-2.853-.016137-1.826-.193754-3.694-.145325-5.54-.161471-2.035-.016146-4.05-.048428-6.085-.064574-8.079-.080731-16.157-.145332-24.257-.1937704-8.058-.0484384-16.094-.0645895-24.152-.0807356-8.016 0-16.052.0000069-24.068.0322992-7.995.0322922-15.989.0807408-23.9631.1614708-7.9527.064585-15.9265.161459-23.8792.274482-7.9317.113023-15.8635.242201-23.7952.387516-7.8898.145312-15.8005.322922-23.6903.500522-4.1337.09688-8.2675.20991-12.4012.30678-.3357.01615-.7134-.01614-1.0282.04844-.3567.06459-.6925.17761-1.0282.27448-.6924.19376-1.4059.40365-2.07735.64584-1.30098.48438-2.539 1.13023-3.37833 2.05056-.48262.53283-.81836 1.13023-1.25901 1.66305-.23082.27449-.52459.48438-.71344.77501-.90229 1.38857-1.82556 2.80943-3.06358 4.03655-1.217039 1.2109-1.594742 3.1162-1.4478578 4.5855.1888508 2.0021.2518018 4.0365.4826198 6.0386.377702 3.197.020983 6.3939.482618 9.607.06295.4682.16787.9688.60852 1.2755.31475.2099.73442.2907 1.13311.3553 1.32195.226 2.62293.4359 3.94488.6619-1.61572.8073-4.0498.8719-4.91012 2.2121-.27279.4359-.31475.9203-.3777 1.4047-.14689 1.7115-.35672 3.423-.503605 5.1345-.06295.775-.125902 1.5338-.146886 2.3088-.041966.7428-.104916 1.437-.209833 2.1636-.209834 1.6954-.776387 3.9074-.104917 5.5704.650491 1.5985 3.252431 1.6793 5.057011 2.0668-.94426.0807-1.67868.6781-2.22425 1.2755-.27278.3068-.48262.6297-.73442.9365-.23082.2745-.44065.549-.65048.8396-.37771.5812-.69246 1.1786-.923275 1.8083-.146884.4198-.230818.7428-.251801 1.1787-.020984.3875-.041969.775-.062952 1.1625-.041967.775-.06295 1.5501-.083934 2.3251-.041967 1.55-.062949 3.1162-.041966 4.6662.020984 1.5016-.4406512 2.9709.377703 4.4402.818355 1.4693 2.245225 2.7448 4.007835 3.5683 1.42687.6781 3.06358 1.0333 4.74226 1.0979 19.61955.8235 39.30195 1.1787 58.94245 1.5339 19.9972.3552 39.9941.5651 59.9921.6136 20.144.0484 40.288-.0485 60.432-.3068 6.819-.0807 13.618-.3875 20.396-.0485 6.232.3068 12.527.1777 18.759-.1453 5.435-.2906 10.282-.2745 14.541-3.2938 9.422-6.6522 19.389-12.8362 28.811-19.4722 2.434-1.7115 5.099-3.649 7.155-5.748 2.119-2.1636 4.092-4.5371 4.889-7.2174.357-1.1786.588-2.3896.336-3.5682-.105-.5006-.294-.985-.525-1.4532-.188-.4037-.545-.8396-.608-1.2755-.126-.8881-.567-1.7277-1.07-2.535-.735-1.2755-1.7-2.5027-2.833-3.5844z" fill="url(#b)"/><path d="m281.236 43.5563c-.252.3478-.504.6956-.735 1.0103-.084.1159-.168.2318-.252.3312-.126.1159-.253.2319-.421.3147-.336.1656-.777.1325-1.156.1159-.042 0-.084 0-.126-.0166-6.221-.414-12.611-1.7224-18.58-.265 1.598.5466 3.384.6791 5.108.795 4.518.2981 9.037.5962 13.556.8943-.042.0331-.084.0497-.126.0828-.483.3478-.946.6956-1.429 1.0268-.799.5797-1.471 1.2752-2.249 1.888-1.156.8943-2.354 1.7555-3.531 2.6002-.336.2318-.652.4802-1.009.7287-.336.2484-.694.4968-1.051.7287-3.047 2.1861-6.137 4.3556-9.248 6.4754-1.009.6956-2.039 1.3912-3.089 2.0536-1.093.7287-2.186 1.4409-3.3 2.153-5.507 3.511-11.308 6.8067-17.424 9.6387-.21.0994-.421.1988-.652.2981-.462.1988-.841.4141-1.282.5134-.21.0331-.399.0497-.631.0497h-.21c-.378-.0166-.777-.0165-1.156-.0165-3.194-.0332-6.431.1324-9.626.2152-4.834.0828-9.689.1822-14.523.265-5.612.0994-11.203.1822-16.815.2484-5.002.0497-10.005.116-15.007.1657-4.267.0331-8.533.0662-12.8.0828-2.732.0165-5.465.0331-8.197.0496-4.477.0166-8.933.0166-13.388.0166-2.586 0-5.15 0-7.735-.0166h-3.09c-1.555 0-3.089-.0165-4.645-.0165-.609 0-1.219 0-1.828-.0166-4.561-.0165-9.122-.0497-13.662-.0828-1.555-.0166-3.09-.0166-4.624-.0497-3.132-.0165-6.285-.0497-9.4162-.0993-1.8706-.0166-3.7202-.0332-5.6118-.0663-4.7922-.0497-9.5423-.1325-14.3134-.2153-1.9126-.0165-3.8042-.0497-5.6959-.0828-2.396-.0497-4.7921-.0828-7.1882-.1656-2.1228-.0331-4.2246-.0828-6.3474-.1159-4.603-.0994-9.206-.2153-13.7879-.3313-.7987-.0165-1.5974-.0331-2.4171-.0496-1.0089-.0166-2.0387-.0497-3.0686-.0828-3.2999-.0829-6.5997-.1822-9.8995-.2816-1.4713-.0497-2.9426-.0828-4.4349-.149-3.8673-.1656-7.7767-.3644-11.644-.3644-3.82529 0-7.39836-2.153-8.80657-4.8856-.63055-1.1924-.77768-2.5173-.67258-3.8091.02101-.2318.04203-.4472.12611-.679.12611-.3478.33629-.6625.37832-1.0103.08408-.4471.12611-.8943.16815-1.3414.04203-.4306.08407-.8778.10509-1.3084.02101-.3312.06305-.679.10509-1.0102.04203-.4306.10509-.8778.2312-1.3084.02101-.149.08407-.2981.1261-.4305.04204-.116.08408-.2319.14713-.3313.08408-.1987.18917-.3809.33629-.5631.10509-.149.21018-.2649.35731-.3974.12611-.116.27323-.2319.44138-.3313 2.83744-1.6727 8.36518-1.6561 12.50578-1.7223.7987-.0166 1.5553-.0332 2.2279-.0663 1.7865-.0828 3.5731-.1159 5.3806-.1159-4.2456-.0166-8.5123-.2981-12.6949-.8778-1.9967-.2649-3.97241-.5962-5.92709-.9937-.48342-.0828-.96684-.2152-1.42924-.3809-.60952-.2153-1.15599-.5299-1.40821-1.0102-.2312-.414-.21018-.8612-.21018-1.2918.02102-.414-.06305-.8446-.02102-1.2586.04204-.8944.18916-1.7556.29425-2.6499.10509-.7121.21019-1.4408.27324-2.1529.14713-1.9212.29425-3.8257.48342-5.7303.06305-.5796.14712-1.2089.65156-1.623.31527-.2484.71461-.3643 1.11396-.4803 1.09294-.3146 2.2069-.5465 3.36291-.6955.5254-.0828 1.0929-.0828 1.6184-.1988.6095-.149 1.0719-.2484 1.7445-.2981 6.2844-.5796 12.5478-1.1593 18.8112-1.7223.7356-.0663 1.5133-.1325 2.2489-.1988-9.4581-.9109-18.9163-1.8217-28.37442-2.7326-.42036-.0497-.84073-.0828-1.24007-.1159-.39934-.0332-.84072-.0828-1.09294-.3313-.18916-.1987-.21018-.4471-.25222-.6955-.42036-4.0244.06306-8.1813-.2312-12.2554-.02101-.116-.02101-.4472-.06305-.9275-.02102-.2318-.02102-.5134-.06305-.7949 0-.0994 0-.2319-.02102-.3312-.02102-.1822-.02102-.3644-.04204-.5466v-.0496c-.02102-.1988-.02102-.381-.04203-.5797-.02102-.1987-.02102-.3975-.04204-.5962-.04204-.6624-.10509-1.2918-.14713-1.7886-.02101-.1656-.02102-.3147-.04203-.4472 0-.0497-.02102-.1159-.02102-.1656-.02102-.1491-.02102-.2484-.04204-.3147-.02102-.0497-.02101-.0828-.02101-.0828-.39935-4.47152 3.95139-8.33033 9.64731-8.47938 2.9215-.08281 5.843-.16562 8.7645-.23186 3.8043-.09937 7.6086-.19872 11.4129-.26496 12.2745-.298108 24.5701-.513428 36.9077-.695602 3.2368-.049684 6.4736-.082785 9.7104-.132469 12.8421-.165613 25.7264-.265002 38.6524-.331247 3.342-.0165613 6.684-.0165431 10.026-.0331045 3.993-.01656133 7.986-.0165775 12.001-.0165775 7.734 0 15.511.0165593 23.267.049682.757 0 1.513.0165775 2.27.0165775 6.768.0331227 13.556.0828095 20.324.1324935 4.855.049684 9.711.099353 14.587.165599 4.035.049684 8.092.099378 12.127.165623 2.186.033123 4.351.082803 6.558.099364.399.016561.799.016552 1.198.016552.378 0 .778.000009 1.156-.016552h.021c.799 0 1.597-.016559 2.417-.049682.231 0 .441-.016552.673-.016552 1.093-.049684 2.038.016553 2.921.198728.021 0 .063-.000009.084.016552 1.535.298105 2.88.877745 4.477 1.573325.147.06624.294.11594.441.19875 6.117 2.64982 12.023 5.63086 17.614 8.92654 5.296 3.1301 10.341 6.5252 15.07 10.1687.357.265.714.5465 1.051.8281 3.362 2.6498 6.557 5.4155 9.752 8.1813.525.4637 1.051.9274 1.576 1.4077 1.156 1.0433 2.249 2.1529 3.132 3.3785.631.8446 1.135 1.7555 1.429 2.716.147.4472.21.9275.358 1.3746.546 1.3249-.295 2.7492-1.199 4.0244z" fill="url(#c)"/><path d="m276.781 30.6108c-3.177-2.7651-6.353-5.5468-9.696-8.2286-.335-.2665-.69-.5497-1.045-.8328-11.848-.1-23.696-.5497-35.544-1.216-27.145-1.5324-54.226-3.5479-81.37-5.197-27.124-1.649-54.2678-3.0315-81.4747-3.1315-13.7288-.05-27.4158.2998-41.0819 1.0994-6.9794.4164-14.0214.533-21.00074 1.016.08359 1.2993.16717 2.4486.18807 2.6652.29255 4.0809-.20896 8.2618.22986 12.3261.0209.2499.06269.4998.25076.6996.02089.0167.02089.0334.06268.05 5.78827.6663 11.72277.7662 17.57367.7996 13.6871.0832 27.3532-.5164 41.0402-.4664 3.5942.0166 7.2301.0499 10.8452.1166 1.797.0333 3.5941.0666 5.4121.0999 1.003.0166 2.1314-.0666 3.1344.1166 1.2747.2332 2.6538.1666 3.9703.1333 2.9673-.05 5.9345-.2832 8.9227-.4831 2.8001-.1999 5.5794-.3831 8.4004-.4164 10.678-.0833 21.189 2.1654 31.846 2.2653 2.862.0333 5.746-.0833 8.567.2999 1.672.2332 3.281.6496 4.932.9661 2.8.5496 5.663.8328 8.546.8661 1.442.0167 2.905-.0166 4.347-.1499 1.4-.1332 2.841.0167 4.242.0666 6.039.2499 12.098.4664 18.137.633 4.744.1333 9.487.2332 14.231.2998-21.816 1.5158-43.611 2.965-65.426 4.3642-11.201.7162-22.443 1.4991-33.685 1.4991-12.1616 0-24.3023-1.1493-36.5057-.6163-10.7615.483-21.6484 1.1993-32.3264 2.4152-8.3167.9495-17.1767 2.9483-25.82773 3.5147-.10449.8828-.25076 1.7656-.29255 2.6651-.0209.4164.04179.8495.0209 1.2659-.0209.4331-.0209.8828.20896 1.2993.27165.483.79405.7995 1.40004 1.0161.43882.1665.94033.2998 1.42095.3831 1.94333.3997 3.90763.7329 5.89273.9994 3.2807-.1 6.5614-.2665 9.7585-.583 9.4451-.9161 19.8514-1.2326 29.4846-2.7817 2.0269-.1 4.0539-.1999 6.0599-.2998 11.1795-.6164 22.2336-2.2987 33.225-4.0144 7.0628-1.116 14.2098-1.9489 21.3768-2.6151.919-.0833 1.797-.2999 2.717-.3498.731-.05 1.504-.1 2.235-.1499 2.989-.1833 5.977-.3332 8.986-.4498 5.976-.2332 11.994-.3331 17.991-.3664 6.019-.05 12.016-.0167 18.013-.0167 6.018.0167 12.015 0 18.012-.0833 5.998-.0666 12.016-.2332 17.992-.5163 1.902-.0833 3.782-.1999 5.663-.3165-5.036-.9328-10.135-1.5991-15.254-1.9989 9.424-.6329 18.827-1.5824 28.147-2.815 5.809-.7829 11.618-1.6657 17.49-2.1987 2.926-.2665 5.872-.4498 8.818-.4664 1.463-.0167 2.926 0 4.409.0832 1.317.05 2.717.3332 4.033.2166.941-.0833 1.818-.3831 2.759-.4497 1.504-.1 2.988-.1999 4.492-.2999 2.989-.1998 5.977-.4331 8.986-.6829.794-.0666 1.609-.1333 2.424-.2166 1.734-.1665 3.51-.2831 5.286-.4164-.585-.483-1.107-.9494-1.65-1.4158zm-18.619 18.0728c-14.941-.8162-29.944-.6829-44.906-.1999-3.113.1-6.164.1666-9.257.4664-1.484.1666-2.988.2999-4.472.4498-5.976.5663-11.952 1.0161-17.95 1.3825-2.34.1499-4.68.2665-7 .3831l18.18-.0999c6.06-.0333 12.12-.0833 18.18-.1166 3.03-.0167 6.06-.0333 9.09-.05 1.525-.0166 3.029-.0166 4.534-.0333.648 0 1.296.0333 1.922-.0833.377-.0666.753-.1999 1.15-.2332 1.358-.1665 2.883.05 4.242.1166 1.504.0666 3.009.1333 4.492.1999 3.009.1499 6.018.3165 9.028.4997 4.722.2832 9.466.5997 14.188.9328 3.866.2832 7.711.6163 11.556.9828.021-.0167.021-.0167.021-.0167.334-.2332.647-.4664.982-.6996 1.191-.8495 2.382-1.7156 3.51-2.6151-5.809-.4831-11.639-.9495-17.49-1.266zm-98.881 9.5445c-26.559-.4164-53.055-1.6324-79.6144-1.5491-14.0004.0333-28.0009.2165-41.9804.5497-10.3228.2332-20.7709.1999-31.07272 1.0494-.20897.5497-.29255 1.166-.35524 1.749-.10448 1.0327-.16717 2.0821-.29255 3.1148 11.47201.3665 23.06941-.2498 34.52051-.2665 14.0005-.0167 27.9801.0833 41.9805.3498 26.5173.4997 52.9933 1.6657 79.5103 2.0488 26.977.3831 53.891-1.166 80.805-2.232 4.995-.1999 10.01-.3332 15.046-.4164 1.024-.6663 2.048-1.3659 3.072-2.0655 3.113-2.1155 6.164-4.2975 9.194-6.5129-10.009.7662-20.04 1.5158-30.091 1.9488-26.893 1.166-53.787 2.6485-80.722 2.2321z" fill="url(#d)"/><path d="m198.847 54.138c-5.543-2.4749-14.748-1.7057-19.12 1.6221-2.761 2.107-2.908 6.0201 0 8.1104 6.401 4.5987 17.614 2.6421 21.672-3.0602.084-.0502.147-.1171.231-.1673 3.096-2.2408.878-5.9531-2.783-6.505z" fill="#eb924d"/><path d="m200.165 51.9643c-5.544-2.4749-14.748-1.7057-19.12 1.6221-2.762 2.107-2.908 6.0201 0 8.1104 6.401 4.5986 17.614 2.6421 21.672-3.0603.084-.0501.147-.117.23-.1672 3.076-2.2408.879-5.9531-2.782-6.505z" fill="url(#e)"/><path d="m198.847 53.369c-5.543-2.4749-14.748-1.7057-19.12 1.6221-2.761 2.107-2.908 6.02 0 8.1103 6.401 4.5987 17.614 2.6422 21.672-3.0602.084-.0501.147-.117.231-.1672 3.096-2.2408.878-5.9532-2.783-6.505z" fill="url(#f)"/><path d="m40.6664 10.9897c-2.4549-1.30437-6.5407-.903-8.4871.8528-1.2275 1.1037-1.2801 3.194 0 4.2977 2.8407 2.4247 7.8208 1.388 9.6094-1.6221.035-.0334.0701-.0669.1052-.0836 1.3853-1.1873.4033-3.1605-1.2275-3.4448z" fill="#eb924d"/><path d="m41.2449 9.83563c-2.4549-1.30435-6.5406-.90302-8.4871.85287-1.2274 1.1036-1.28 3.194 0 4.2976 2.8408 2.4248 7.8208 1.388 9.6094-1.622.0351-.0335.0701-.0669.1052-.0837 1.3853-1.1872.4033-3.1605-1.2275-3.44477z" fill="url(#g)"/><path d="m40.6664 10.5712c-2.4549-1.30433-6.5407-.903-8.4871.8529-1.2275 1.1036-1.2801 3.194 0 4.2976 2.8407 2.4248 7.8208 1.388 9.6094-1.622.035-.0335.0701-.0669.1052-.0837 1.3853-1.1873.4033-3.1438-1.2275-3.4448z" fill="url(#h)"/><path d="m39.6304 17.1313c-4.5813-2.0569-12.1959-1.4214-15.8359 1.3378-2.2802 1.7391-2.4057 4.9832 0 6.7057 5.2926 3.8127 14.5808 2.1906 17.9488-2.5251.0628-.0502.1255-.1004.1883-.1338 2.5731-1.8395.7531-4.9164-2.3012-5.3846z" fill="#eb924d"/><path d="m40.7183 15.342c-4.5813-2.0569-12.1959-1.4214-15.8359 1.3378-2.2802 1.7391-2.4057 4.9832 0 6.7057 5.2926 3.8127 14.5808 2.1906 17.9488-2.5251.0628-.0502.1255-.1004.1883-.1338 2.5731-1.8562.7531-4.9331-2.3012-5.3846z" fill="url(#i)"/><path d="m39.6304 16.4956c-4.5813-2.0568-12.1959-1.4214-15.8359 1.3378-2.2802 1.7392-2.4057 4.9833 0 6.7057 5.2926 3.8128 14.5808 2.1907 17.9488-2.525.0628-.0502.1255-.1004.1883-.1338 2.5731-1.8395.7531-4.9164-2.3012-5.3847z" fill="url(#j)"/><g fill="#eb924d"><path d="m6.94675 50.7512c-.02168.8665-.02168 1.7677.32518 2.5823-.62868-.2253-1.19233-.5546-1.45248-1.0572-.23846-.4333-.21679-.9012-.21679-1.3518.02168-.4333-.06503-.8839-.02168-1.3172.08672-1.6811.47694-3.3449.58533-5.026.15175-2.0104.3035-4.0034.49861-5.9965.06504-.6066.15175-1.2652.67204-1.6985.32519-.2599.73708-.3812 1.14898-.5026 1.1273-.3292 2.27626-.5719 3.46856-.7279.542-.0866 1.1273-.0866 1.6693-.2079.6287-.156 1.1056-.26 1.7777-.312 6.4819-.6066 12.9422-1.2131 19.4025-1.8024-6.9372 1.1265-13.8961 2.2357-20.8333 3.3622-1.3441.208-3.1651.208-4.29243.9186-.43358.2773-.82379.6759-1.14897 1.0051-.1084.104-1.08394 1.6465-.69372 1.6638 5.09452.1387 10.21072.2773 15.30522.416-3.7721.4853-7.5442 1.0398-11.3163 1.6464-1.88608.312-4.03228.7799-4.87775 2.1664-.52029.8839-.49862 2.0624-.32519 2.9983.06504.3119.19512.6239.28183.9359.21679.7279.06504 1.5251.04336 2.305z"/><path d="m281.214 43.3312c-.084.1319-.147.2637-.189.4119-.063.1977-.063.3954-.147.5932-.232.5436-.799 1.0709-1.598.9885-.315-.033-.904-.033-1.156-.1318.063-.2966.399-.6096.567-.8732.147-.2471.295-.4943.4-.7414.273-.5602.483-1.1368.651-1.7299.295-1.1368.4-2.2902.4-3.4434 0-1.3181-.231-2.702-1.24-3.7565-1.829-1.8452-5.298-1.8946-8.262-1.7793-2.585.0988-5.15.2142-7.715.313 3.742-.3295 7.505-.6755 11.247-1.0214-1.514-1.7135-3.048-3.4434-4.562-5.1569-1.429-1.6146-2.943-3.2951-5.171-4.1848-1.871-.7414-4.015-.8567-6.096-.972-5.129-.2636-10.237-.5272-15.388-.7908 5.529-.2142 11.1-.4119 16.502-1.3346-1.787-1.4004-3.616-2.7349-5.508-4.02-2.69-1.8452-5.507-3.6081-8.408-5.2557-2.901-1.66398-5.886-3.21268-8.955-4.66252-1.535-.72493-3.09-1.43338-4.667-2.0924-.757-.32951-1.576-.60959-2.312-.97205-.21-.11533-.421-.24714-.673-.31304-.189-.04942-.378-.04942-.567-.04942-1.009-.03295-2.039-.01649-3.048-.03296-3.027-.01648-6.054-.03296-9.082-.03296-.945 0-1.912.00001-2.858-.01647h-5.508c-2.544-.01647-5.108-.01646-7.652-.01646h-.378c-4.036-.01648-8.093-.01649-12.129-.01649-2.018 0-4.036.00001-6.054-.01647-.925 0-1.955.09885-2.859-.03296-.925-.1318-1.661-.57664-2.649-.64254-.883-.04943-1.787.04944-2.649.11534-2.207.14828-4.414.29654-6.6.49424-.988.08238-2.081.2142-2.754.79085-.231.1977-.399.44483-.673.60958-.63.34599-1.471.11533-2.186-.08238-1.429-.39541-2.943-.62606-4.456-.65901-1.367-.04943-2.733.14828-4.099.08238-.862-.04942-1.682-.19772-2.523-.32953-3.321-.51074-6.811-.54367-10.195-.7249-2.502-.14828-5.003-.24714-7.505-.31304-8.093-.23066-16.186-.11534-24.258.16474-4.036.13181-8.093.29657-12.1293.49427-1.8499.08238-3.91.39541-5.7388.1977-.5255-.04943-1.009-.23064-1.5556-.29655-.5676-.08237-1.0931-.0659-1.6607-.04942-2.2492.01647-4.4985.01648-6.7267.03296-2.6277.01647-5.2553 0-7.904 0-.8829 0-1.7447.14827-2.6066.14827-.7988 0-1.5976-.13181-2.3754-.13181-1.6607.01648-3.3213.26362-4.8769.75789-.5886.1977-1.1982.41188-1.8499.37893-1.1771-.04943-1.997-.92264-3.048-1.31805-2.5436-.955578-5.1502.85674-7.7358.11534-1.2823-.36246-2.6066-.31305-3.952-.32953-1.7447-.01647-3.4685-.01646-5.1922-.01646-5.8649.01647-11.7298.18123-17.5527.64254-2.9009.23066-5.8018.5437-8.6817.93912-1.3874.1977-2.8168.51074-4.2042.64254-.4415.04943-.75677.03294-1.15618.24712-1.72373.95558-6.45349 6.22771-3.0901 8.08951 1.0931.5931 2.54356.6096 3.88888.5931 8.6187-.0989 17.2584-.1977 25.8981-.2801-9.3124.5767-18.6458 1.1533-27.95815 1.7464-.60961.033-1.21922.0824-1.76577.2966-1.7868.7578-1.17719 2.5372-1.40842 3.8223-.33634 1.6805.06307 3.4928.2943 5.1733.27327 2.1583.60961 4.3166 1.00901 6.4584-.42042-.0494-.84084-.0824-1.24024-.1153-.39941-.033-.84085-.0824-1.0931-.3296-.18919-.1977-.21021-.4448-.25226-.6919-.42042-4.0036.06307-8.1389-.23123-12.1919-.02102-.1153-.02102-.4448-.06306-.9226-.02103-.2307-.02102-.5108-.06307-.7909 0-.0988 0-.2306-.02102-.3295-.02102-.1812-.02102-.3624-.04204-.5437v-.0494c-.02102-.1977-.02102-.3789-.04204-.5766s-.02102-.3954-.04204-.5931c-.04205-.659-.10511-1.2851-.14715-1.7794-.02103-.1647-.02102-.313-.04204-.4448 0-.0495-.02103-.1154-.02103-.1648-.02102-.1483-.02102-.2471-.04204-.313-.02102-.0495-.02102-.0824-.02102-.0824-.3994-4.44838 3.95197-8.28719 9.64871-8.43547 2.9219-.08238 5.8439-.16475 8.7658-.23065 3.8048-.09886 7.6097-.19769 11.4145-.26359 12.2763-.296562 24.5737-.510766 36.9131-.691997 3.2373-.049426 6.4745-.082355 9.7118-.131782 12.8439-.164755 25.7303-.263628 38.6583-.3295298 3.342-.0164755 6.684-.0164574 10.027-.0329329 11.729-.032951 23.48-.01649363 35.273.0329329.757 0 1.514.0164916 2.27.0164916 6.769.032951 13.559.0823802 20.328.1318072 4.856.049426 9.712.098838 14.589.16474 4.036.049426 8.093.098863 12.129.164765 1.85.016476 3.699.049432 5.549.082383.337 0 .673-.016485 1.009.016466l.253.032958c.273.049427.483.098833.777.082358.442-.016476.883-.082356 1.346-.131782.42-.049427.883-.098875 1.324-.098875.357 0 .715.016499 1.072.04945.252.016476.505.032949.757.049425.946.065902 1.892.115315 2.838.115315.021 0 .063-.000009.084.016467 1.534.29656 2.88.87322 4.477 1.56519.147.06591.295.11532.442.1977 6.117 2.63608 12.024 5.60167 17.615 8.88026 5.298 3.1139 10.343 6.4914 15.073 10.116.357.2636.714.5437 1.051.8238 3.363 2.6361 6.558 5.3875 9.754 8.1389.525.4613 1.051.9226 1.576 1.4004 1.156 1.038 2.249 2.1418 3.132 3.361.631.8403 1.135 1.7464 1.43 2.702.147.4448.21.9226.357 1.3675.463 1.285-.189 2.7019-1.009 3.8223-.084 0-.147.1153-.231.2141z"/><path d="m164.275 19.514c-3.845.6898-7.774.5034-11.67.2983-10.678-.5406-21.578-1.1372-31.487-5.1453 6.048-.0187 12.045 1.0626 18.024 1.9202 8.252 1.1931 16.846 2.0879 25.133 2.9268z"/></g><path d="m18.1111 15.5286c1.1515 14.0094 1.298 28.6677.7956 43.742-.0838 2.762 2.6379 5.0913 6.1552 5.1912 69.3399 2.2295 137.4861 2.8118 204.2931 1.5473 1.235-.0166 2.45-.3327 3.496-.8818 11.473-6.1395 21.941-12.8281 31.174-20.2155 2.324-1.8469 2.512-4.7586.44-6.7885-10.971-10.7483-23.763-20.0657-38.962-27.4864-.984-.4825-2.136-.74872-3.287-.74872-62.494-.84855-128.7563-.68219-197.8032.21632-3.6847.0665-6.532 2.529-6.3017 5.4241z" fill="url(#k)"/><path d="m260.25 41.7068c-.166.3989-.521.6981-.875.9973-1.48 1.2134-3.002 2.3769-4.586 3.5238-3.919 2.8756-8.067 5.5683-12.277 8.1447-4.357 2.6761-8.588 6.2996-14.071 7.4465-6.441 1.3464-14.466.4654-21.094.5485-16.113.1995-32.226.2992-48.339.2992-21.72 0-43.419-.1828-65.1184-.5319-11.3811-.1828-22.7414-.4155-34.1017-.6981-5.5656-.1329-11.1311-.2659-16.7174-.4321-4.7526-.133-11.0268.5485-15.5918-.399-4.0647-.8477-2.9807-8.7264-3.0016-11.1033-.0417-6.549.1876-13.1146-.1667-19.6635-.0626-1.2467-.1459-2.4767-.2502-3.7067-.2501-2.8755-1.9385-12.3167 4.3149-12.217 36.0403.6317 72.3309-.5817 108.4339-.5817 16.175 0 32.35.0498 48.526.1662 7.796.0499 15.592.133 23.387.2161 4.419.0499 9.13-.4987 13.445.5485 4.503 1.0804 8.776 4.1887 12.486 6.4326 9.213 5.5517 17.009 12.1006 24.722 18.8989.646.5818 1.167 1.3796.875 2.111z" fill="#e68b4a"/><path d="m46.6453 45.5109c.0945.0319.2026.0639.2836.1436.1891.1756.1891.4947.1891.7819-.0135.5265-.027 1.0371-.0405 1.5636.5674-1.1488 1.1212-2.2976 1.648-3.4624-.878-.5584-1.9317-.5584-2.9313-.5265-.4457.016-.878.016-1.3238.0319-.2296 0-.4457.016-.6754.016-.108 0-.2026 0-.3107 0-.054 0-.2431-.0319-.2971.0159-.2027.2234.6754.4787.7564.5106.4188.1436.851.2872 1.2698.4308.4728.1596.9456.3191 1.4319.4946z" fill="#eb924d"/></svg>