<svg fill="none" height="39" viewBox="0 0 38 39" width="38" xmlns="http://www.w3.org/2000/svg" xmlns:xlink="http://www.w3.org/1999/xlink"><linearGradient id="a"><stop offset="0" stop-color="#cf5c2b"/><stop offset="1" stop-color="#59173e"/></linearGradient><linearGradient id="b" gradientUnits="userSpaceOnUse" x1="35.959" x2="25.4714" xlink:href="#a" y1="-18.7423" y2="4.57236"/><linearGradient id="c" gradientUnits="userSpaceOnUse" x1="31.5364" x2="-5.57638" xlink:href="#a" y1="-10.4493" y2="75.2328"/><linearGradient id="d" gradientUnits="userSpaceOnUse" x1="27.4581" x2="-9.65468" xlink:href="#a" y1=".135486" y2="85.8175"/><linearGradient id="e" gradientUnits="userSpaceOnUse" x1="20.409" x2="19.2795" xlink:href="#a" y1="53.6806" y2="17.8586"/><path d="m36.9147 5.53939c-.2112-2.86956-2.5614-5.114154-5.431-5.228584-8.0805-.3256862-16.1259-.3256862-24.14478-.008803-.58096.026407-1.15311.132035-1.69885.334489-.27287.096825-.53694.220058-.78341.352093-1.24993.686585-2.09495 1.874895-2.74632 3.098415-.69539 1.28514-1.399573 2.71112-1.487596 4.18991-.070419 1.19712-.132035 2.40299-.176047 3.60019-.008802.132-.008802.2552.008803.3785.008802.0704.017604.1408.008802.2112-.026407.3873-.008802.7306.193651 1.0739.123233.2025.281675.3785.484127.4929-.0176-.0088-.184848.1497-.211255.1673-.070418.0616-.132035.132-.184849.2024-.11443.1497-.211255.3081-.272872.4842-.070418.176-.11443.3609-.123232.5457-.061616.7482-.044012 1.4964-.035209 2.2446.008802.6514-.052814 1.3379.052814 1.9805.026406.1585 0 .3257.035209.4841.070418.3609.237663.6954.404907 1.0211-.281675.2993-.404907.713-.422512 1.1267-.017604.4753.070419.9419.035209 1.4172-.088023 1.2851-.008802 2.6055.070419 3.8818.008802.1497.035209.2993.061616.4401.079221.3609.088024.7394.290477 1.0563.088023.1408.202458.2641.343288.3609-.13203-.0176-.23766.1232-.299276.2377-.396105.757-.396105 1.3467-.237663 2.1565.158442.8451.11443 1.6461.422509 2.4735.25527.6866.64257 1.3203 1.1267 1.8573 1.00347 1.1179 2.42944 1.8045 3.92584 1.8925 8.5118.4929 16.7068.5369 24.5233.0528.0352 0 .0704-.0088.1056-.0088.9507-.0792 1.8749-.3873 2.6759-.9066.7834-.5018 1.4348-1.1972 1.8925-2.007.5281-.933.7834-2.0333 1.0475-3.0632.1672-.6338.4225-1.4436.3521-2.1213-.044-.3874.0704-.7659.0528-1.1532-.0176-.4401-.132-.8714-.3345-1.2587-.0264-.044-.0528-.0968-.0528-.1496-.0088-.1233.1232-.2113.2201-.2905.2288-.176.3784-.4489.4313-.7306.0088-.0704.0176-.1408.0088-.2113-.0264-.1232-.0176-.22-.0088-.352.044-.8891.0792-1.7781.1144-2.6671.0352-.9771.0704-1.9542.088-2.9224.0264-.9595.0352-1.9277.044-2.8872.0088-.9506.0088-1.9013 0-2.8431 0-.4666-.0088-.9419-.0176-1.4084 0-.2377-.0088-.4665-.0176-.7042-.0088-.2201-.044-.4665-.0088-.6866.0088-.0792.0352-.1408.0176-.22-.0088-.0969-.0352-.1849-.0616-.2817-.0528-.1849-.132-.3609-.2289-.5281-.0968-.1673-.2112-.3169-.352-.4578-.0353-.0352-.405-.37847-.4402-.34326.1145-.10563.2113-.22005.2993-.34329.2289-.32568.3609-.70418.4577-1.09149.044-.19365.0705-.3961.0969-.59855.0088-.03521.0264-.07042.0264-.11443.0264-.14084-.0088-.30809-.0176-.44892-.0352-.58096-.0793-1.17952-.1233-1.77807z" fill="url(#b)"/><path d="m37.2937 12.1406c-.0088 1.0035-.0176 2.0069-.0264 3.0104-.0088.4753-.0088.9594-.0088 1.4436 0 .264-.0088.5193-.0088.7746-.0176 1.3643-.0352 2.7287-.0705 4.0931-.0176.6777-.0352 1.3555-.0616 2.0333-.0176.4049-.0088.7834-.1408 1.1619-.1497.4225-.1409.9419-.1937 1.3908-.0176.1408-.044.2904-.1496.3961-.0968.0968-.2377.1144-.3785.1232-.2201.0264-.4489.044-.669.0704-1.2939.1321-2.5967.2553-3.8906.2905-.9595.0176-1.9277-.0088-2.8872-.1144.7306.1056 1.4612.22 2.1918.3257.2113.0352.4137.0616.625.0968 1.4876.22 2.9752.4401 4.4628.6602.132.0264.2816.044.3785.1408.1496.132.1584.3609.1496.5633-.0176.2993-.044.5986-.0968.8979-.0793.5897-.1937 1.1795-.2201 1.7781-.0088.1232.0176.2464-.0088.3697-.0616.3785-.3433.7393-.5545 1.0386-.9947 1.3908-2.5791 2.271-4.278 2.3767-7.702.4841-15.7649.4401-24.14475-.0441-1.20592-.0704-2.37663-.5369-3.30087-1.3203-.54574-.4665-1.05628-1.0651-1.37316-1.7253-.14084-.2992-.17605-.6425-.31689-.9506-.0264-.0704-.05281-.1321-.07922-.2025-.04401-.2024-.0264-.4225.14964-.5633.18485-.1497.44892-.1585.68658-.1673 2.66711-.088 5.32541-.2552 7.99247-.3344h.0793c.8098-.0265 1.6284-.0353 2.4382-.0353-.2993-.044-.5985-.088-.8978-.1144-1.3732-.1672-2.76396-.22-4.14592-.2729-.01761 0-.03521-.0088-.04401-.0088h-.01761c-1.67244-.0616-3.33608-.132-4.98212-.3961-.31688-.0528-.64257-.1144-.92424-.2552-.21126-.0969-.3961-.2289-.52814-.4225-.0088 0-.0176-.0177-.02641-.0265-.19365-.2992-.26407-.7482-.20245-1.0826.07922-.3873.02641-.7658.0088-1.1796-.03521-.7041-.07922-1.4171-.10562-2.1213-.02641-.3873-.04402-.7746-.06162-1.1619-.0088-.2113-.01761-.4489.11443-.6162.10563-.132.29048-.176.45772-.22.51934-.1321 1.03867-.2641 1.57562-.3433.23766-.044.47532-.0704.71298-.0881-.60736-.1408-1.21472-.2728-1.83088-.4137-.18485-.044-.3697-.088-.53694-.176-.03521-.0176-.07922-.044-.11443-.0704-.29928-.2201-.3785-.5194-.42251-.8362-.01761-.1057-.02641-.2201-.04401-.3257-.04402-.2553-.07923-.5018-.09683-.757-.04401-.3873-.06162-.7746-.07922-1.1619-.03521-.8451-.07922-1.9366.45772-2.6495.19365-.2553.53694-.3169.85383-.3521 1.24112-.1497 2.48225-.2817 3.72338-.3873.25527-.0264.51934-.044.7746-.0705 1.25874-.0968 2.50867-.176 3.77618-.2376-1.51398.0704-3.03678.044-4.55078-.0528-.95065-.0616-1.9013-.1585-2.85195-.2817-.39611-.0528-.80982-.1144-1.16191-.2993-.0088-.0088-.01761-.0088-.02641-.0176-.09682-.044-.18485-.0968-.27287-.1672-.19365-.1497-.33449-.3521-.41371-.581-.08802-.2377-.04401-.4401-.0088-.6778.0088-.088 0-.176 0-.264-.01761-.537.02641-1.0827.03521-1.6197.0088-.27284.0176-.54571.03521-.82738.03521-1.19712.09682-2.39424.16724-3.59135.17605-2.90477 2.53507-5.202176 5.43984-5.316606 8.01013-.3256858 16.05543-.3168835 24.14473.008803 2.5967.105627 4.8589 2.042143 5.3431 4.594813.1496.78341.2024 1.63723.0528 2.42944-.0352.20246-.0881.39611-.1585.58096-.044.10562-.1144.32568-.2112.4137-.0088.00881-.0176.01761-.0176.01761-.0704.04401-.1673.05281-.2377.07042-.4753.11443-.9506.21125-1.426.29928-.9506.16724-1.9101.29047-2.8695.3785-.0088 0-.0088 0-.0088 0-1.9365.16724-3.8907.20245-5.8272.22886h-.0528c.5282.03521 1.0651.06161 1.5932.09682 1.4436.07922 2.8872.16725 4.3308.25527.9594.05281 1.9277.10563 2.8871.16724.581.03521 1.1884.07923 1.6901.37852.0088 0 .0088.0088.0088.0088.6426.4313.6866 1.2059.6778 1.9365z" fill="url(#c)"/><path d="m37.2932 12.1406c-.0088 1.0035-.0176 2.007-.0176 3.0104-.0088.4753-.0088.9595-.0088 1.4436 0 .2641-.0088.5193-.0088.7746-3.7058.2377-7.4203.5634-11.1349.7922-4.3308.2641-8.6615.5546-12.9835.8274-2.3326.1497-4.64758.3257-6.9714.5898-1.55801.176-3.0368.4313-4.5508.3433-.0176-.1056-.02641-.2201-.04401-.3257-.04401-.2553-.07922-.5017-.09683-.757 1.53161-.3257 3.07201-.2729 4.70044-.3257 2.18298-.0704 4.3307-.22 6.5049-.4225 4.3308-.4049 8.6615-.8274 12.9923-1.3204 2.579-.2992 5.1581-.5633 7.746-.845-.088-.0088-.1672-.0088-.2553-.0176-4.2339-.2288-8.3974-1.0122-12.6137-1.3907-4.1811-.3785-8.3798-.7042-12.57852-.9507-1.69885-.1056-3.64416-.0792-5.56307-.2113-.0088-.0088-.01761-.0088-.02641-.0176-.09682-.044-.18485-.0968-.27287-.1672-.19365-.1496-.33449-.3521-.41371-.581-.08802-.2376-.04401-.4401-.0088-.6777.0088-.0881 0-.1761 0-.2641-.01761-.5369.02641-1.0827.03521-1.6196.0088-.27291.0176-.54578.03521-.82745 2.13016-.11443 4.33074.02641 6.22324.04401 4.19872.03521 8.38862.23766 12.57852.48413 4.2075.24646 8.4062.14964 12.6137.34331 1.1355.0528 2.2798.0968 3.4153.1232.6778.4401.713 1.2147.7042 1.9453zm-13.9077 9.8322c-7.1562.3433-14.69103.0264-21.66247 1.8661.03521.7042.07042 1.4172.10563 2.1214.0176.4049.07041.7834-.00881 1.1795-.06161.3345.01761.7834.20246 1.0827 2.11255.5545 4.26912.8978 6.4609 1.1179.01761 0 .03521.0088.06162.0088 1.37316.1408 2.75517.22 4.14587.2728 3.5826.1321 7.1915.0529 10.6948.0881 4.3836.044 8.7672-.044 13.1419-.2025.044-.2993.0792-.5897.0968-.8978.0088-.2025 0-.4225-.1496-.5634-.0968-.088-.2465-.1144-.3785-.1408-1.6988-.2553-3.3889-.5017-5.0877-.757-.7306-.1056-1.4612-.2201-2.1918-.3257 2.2534.2553 4.5244.0616 6.7866-.1672.22-.0264.4489-.0441.669-.0705.132-.0088.2816-.0264.3785-.1232.1056-.0968.132-.2553.1496-.3961.0528-.4489.0352-.9594.1936-1.3908.1321-.3873.1321-.757.1409-1.1619.0264-.6777.044-1.3555.0616-2.0333-4.6036.132-9.216.2729-13.8109.4929z" fill="url(#d)"/><g fill="#e68b4a"><path d="m2.04795 28.267c-.21125-.2992-.29928-.7746-.22886-1.1267.07922-.3873.02641-.7658.00881-1.1795-.06162-1.0915-.11443-2.1918-.16725-3.2832-.0088-.2113-.0176-.449.11443-.6162.10563-.132.29048-.1761.45772-.2201.51934-.132 1.03868-.264 1.57562-.3433-.29928.2289-.58976.4138-.94185.5898-.12323.0616-.25527.1232-.34329.2289-.09683.1056-.13204.264-.16725.4049-.29927 1.3731-.14083 2.8079.02641 4.2075.07042.5809.14084 1.1707.19365 1.7604-.21125-.0968-.3961-.2376-.52814-.4225z"/><path d="m1.56212 19.596c-.10563-.6338-.14964-1.2852-.17605-1.9189-.03521-.845-.07922-1.9365.45772-2.6495.19365-.2553.53694-.3169.85383-.3521 1.49639-.1761 2.99279-.3345 4.49798-.4489-1.42597.4753-3.0544.4753-4.43637 1.065-.25526.1057-.51053.2377-.65137.4754-.09682.1584-.13203.3433-.15844.5193-.08802.5634-.14964 1.1003-.11443 1.6724.02641.3609.05281.7306.08802 1.0915.05282.5986.14084 1.1884.23766 1.7781-.0352-.0176-.07922-.044-.11443-.0704-.4137-.2817-.4049-.7306-.48412-1.1619z"/><path d="m30.7617 27.0342c.0619.0263.1238.0525.1857.0788-.0707-.0175-.1326-.035-.1857-.0788z"/><path d="m36.6249 28.592c-.0352.9067-.2816 1.7781-.3169 2.6759-.0088.1233.0176.2465-.0088.3697-.0616.3785-.3433.7394-.5545 1.0387-.9947 1.3908-2.5791 2.271-4.2779 2.3766-7.7021.4842-15.765.4401-24.14482-.044-1.20592-.0704-2.37663-.5369-3.30087-1.3203-.55455-.4578-1.06508-1.0563-1.38197-1.7165-.14083-.2993-.17604-.6426-.31688-.9506-.02641-.0705-.05281-.1321-.07922-.2025-.04401-.2024-.02641-.4225.14964-.5633.18485-.1497.44892-.1585.68658-.1673 2.6671-.088 5.32541-.2553 7.99254-.3345-2.34145.1321-4.67406.4577-6.98027.8715-.31689.0528-.66018.0792-.96826.1672-.04401.0176-.09682.0176-.14084.0616-.05281.0704-.04401.1585-.0352.2377.0352.2729.18484.5017.35209.7218.53694.7042 1.10029 1.4436 1.8925 1.8573 1.9013 1.0034 3.83781.8538 5.99438.8098.4401-.0088.8714 0 1.3115-.0792.2201-.0441.4842 0 .7042.0088.5018.0176 1.0035.0264 1.514.044 1.0035.0264 2.0158.0528 3.0192.088l5.6511.1584c1.7957.0528 3.5914.0969 5.387-.0528 1.7693-.1408 3.5386-.4753 5.1758-1.1883.1321-.0616.2905-.1056.4049-.2025.088-.0616.1585-.1408.2465-.2024.2729-.176.5369-.3521.7746-.5722.1584-.1496.3873-.3432.4665-.5545.044-.1144.0704-.2465.1144-.3609.1145-.3257.1761-.669.2025-1.0123.0264-.3785.0088-.7658-.0352-1.1443-.0176-.1672.0088-.4841-.0968-.6249-.0528-.0793-.1937-.1497-.2817-.1937-.2289-.1144-.4929-.1672-.7482-.2112-1.3644-.2553-2.7023-.669-3.9787-1.2324 1.6989.2553 3.3889.5106 5.0878.757.132.0264.2817.044.3785.1409.1408.1232.1408.3521.1408.5457z"/><path d="m1.71431 12.5895c-.07042-.2817-.06161-.5722-.06161-.8626.03521-1.3996.07041-2.80799.14964-4.20756.07041-1.28514.04401-2.6407.57215-3.83782.86262-1.95411 2.82554-3.292065 4.97331-3.380089 8.0101-.3256856 16.0554-.3168833 24.1448.008803 2.5967.105628 4.8589 2.042136 5.343 4.594816.1496.7834.2024 1.63723.0528 2.42944-.0352.20245-.088.3961-.1584.58095-.044.10563-.1145.32569-.2113.41371-.1672-1.28514.1496-2.69351-.3169-3.90823-.2728-.73059-.669-1.45238-1.2939-1.93651-2.0598-1.593223-5.0966-1.487595-7.5788-1.531606-6.8394-.132035-13.6348-.343291-20.44782.272876-.31689.0264-.62497-.08803-.92425-.03521-.67778.11443-1.32915.57215-1.82208 1.02107-.67778.62496-1.19711 1.41717-1.5228 2.2798-.08802.25527-.16724.51053-.23766.7658-.66018 2.53507-.3785 5.47506-.06162 8.04536-.29048-.0969-.49293-.3697-.58976-.669 0-.0088-.0088-.0264-.0088-.044z"/><path d="m37.2933 12.1408c-.0088 1.0035-.0176 2.007-.0176 3.0104-.0088.4754-.0088.9595-.0088 1.4436-.0176 2.3062-.044 4.6036-.1408 6.9098-.0177.405-.0089.7835-.1409 1.162-.1496.4225-.1408.9418-.1936 1.3907-.0176.1409-.044.2905-.1497.3961-.0968.0968-.2376.1145-.3785.1233-.22.0264-.4489.044-.669.0704.1321-.088.2289-.2113.3081-.3609.1057-.2201.1321-.4753.1497-.7218.3257-4.0579.3521-8.1334.2376-12.2-.0176-.537-.0352-1.0739-.0528-1.6109-.0088-.1232.0176-.2376.0088-.3609-.0176-.1584-.0968-.308-.2024-.4401-.2289-.2816-.581-.4577-.9155-.5721-2.4822-.83624-5.2638-.2289-7.7724-.97708h.2992c2.4119.14084 4.8149.28168 7.218.42251.5809.03521 1.1883.07922 1.69.37847.7042.4225.7394 1.1971.7306 1.9365z"/></g><path d="m31.0098 27.1397c.2112.0352.4137.0616.625.0968-.1145.4049-.2817.7834-.5282 1.1003-1.0034 1.2939-2.8783 1.5228-4.3571 1.6108-2.5087.1409-5.0174.2905-7.526.2729-2.7023-.0176-5.3606-.2729-8.0541-.4577.8098-.0264 1.6284-.0352 2.4382-.0352-.2993-.044-.5986-.0881-.8978-.1145-1.3732-.1672-2.76397-.22-4.14594-.2728-.0176 0-.03521-.0088-.04401-.0088h-.03521c-.10563-.0265-.22006-.0617-.33449-.0969-.22886-.0704-.46652-.1496-.66017-.2816-.45772-.3257-.64257-.9331-.80101-1.4876-.3521-1.2676-.22006-2.5263-.14964-3.8114.07922-1.382.07922-2.764.05281-4.1459-.04401-1.7253-.12323-3.477-.17604-5.211.25526-.0264.51933-.044.7746-.0704.64257-.0528 1.27634-.0969 1.91891-.1321.0176 2.2798.14964 4.5684.23766 6.8394.0088.2465-.02641.493 0 .7306.0176.1409 0 .2289.09683.3433.13203.1673.51933.3345.7482.3785.2729.044.5633.0176.8362.0176.5986 0 1.2059 0 1.8045.0088-.5898.0969-1.1795.1585-1.7781.1849-.2552.0088-.5633-.0352-.801.044s-.47532.1144-.71298.176c-.07042.0176-.14084.0352-.18485.0881-.04401.044-.05281.1056-.07042.1672-.04401.2553-.0176.5105.05282.757.05281.1937.12323.3609.10563.5634-.04402.4753.0264.9594.09682 1.4347.02641.1761.03521.3345.14084.4842.22886.3168.63374.4929.99464.5897 2.7904.7658 5.7127.801 8.6087.8362 1.7076.0176 3.4153.0352 5.1229-.0176 1.162-.0352 3.2833.2025 4.2868-.5193.1408-.0968.264-.2201.3609-.3609.6513.1056 1.3027.2113 1.9541.2993zm-21.89139-14.5151c.0088-.4841.05281-.9682.09682-1.4523.00881-.0793.00881-.1585 0-.2377-.0176-.1584-.0176-.2817.01761-.4313.08802-.3345.24646-.6866.56335-.86264.21121-.11443.46651-.12324.71301-.13204 1.1971-.03521 2.3942-.03521 3.5913-.0088-.9506-.09683-1.9013-.20245-2.8519-.29928-.537-.05281-1.0827-.11443-1.60205.0176.0176-.0088.07042-.14083.08802-.15844.03521-.06161.07922-.12323.12323-.17604.07923-.10563.1761-.21126.2817-.29928.1848-.15844.3521-.33449.5457-.48413.4137-.31688.8891-.53694 1.3732-.71299.4577-.16724.933-.28167 1.4084-.3961.3256-.07923.6601-.07923.9946-.08803 3.7498-.05281 7.4996-.07042 11.2494-.09682.625-.00881 1.2675.21125 1.8749.3785.4489.12323.9066.31688 1.1971.68658.2729.34329.4225.83622.5017 1.38196.8891-.0264 1.7781-.07922 2.6847-.15844-.0792-1.06508-.264-2.09495-1.0122-2.90477-.8186-.88023-2.2094-1.06508-3.3361-1.12669-1.2675-.07042-2.5351-.11443-3.8026-.14964-.9947-.01761-1.9805-.03521-2.9664-.03521-2.0245-.0088-4.0139.07042-6.0208.17604-2.183.10563-4.92928-.63376-6.77777.86263-.91544.7394-1.35556 1.66364-1.54041 2.86076-.14084.90664-.14964 1.83087-.14964 2.74637 0 .7922.01761 1.5932.04401 2.4118.89784.0616 1.79568.0968 2.69351.0968.00881-.4753.00881-.9418.01761-1.4084zm23.16769 3.0721c-.044-1.7341-.132-3.4682-.2552-5.2022-.0176-.2729-.0352-.54576-.0529-.82744-.889-.05281-1.7868-.10563-2.6847-.15844.0881.95068.0088 2.00698.0529 2.71108.0616 1.0915.1672 2.183.2552 3.2657.044.5281.088 1.0563.1144 1.5844.0089.1673.0441.3081-.0528.4489-.1672.2465-.5281.2905-.801.3081-1.4612.0968-2.94.1321-4.3659.4753 1.8132.0705 3.6265.0353 5.431-.0968-.0352.1585-.0792.3257-.1144.4841-.0352.1409-.0881.2905-.0881.4314 0 .088.0353.176.0441.264.0264.1497.0088.3169.0176.4666.0088.6689 0 1.3379-.0088 2.0069-.0088.5633-.0264 1.1267-.044 1.6812-.0088.0616-.0089.1321-.0089.1937-.0352.9154-.044 2.271-.6601 3.0896.8802.088 1.7604.1144 2.6319.0968.1672-.7306.22-1.514.2993-2.1918.2904-2.3678.2552-4.7796.2816-7.1651.0088-.6249.0088-1.2411.0088-1.8572.0088.0088 0 0 0-.0088z" fill="url(#e)"/><g fill="#e68b4a"><path d="m22.8847 30.0532c1.1531-.0176 2.3326-.0352 3.4769-.2113.2377-.0352.4929-.0264.7394-.044.5193-.0352 1.0299-.088 1.5404-.1584.3345-.0441.669-.0969.9947-.2113.977-.3345 1.7516-1.2147 1.9629-2.227-.537-.0264-1.1531-.0264-1.6901-.0528.449-.0792 1.1091.1496 1.3116.5633-.581.5106-1.2323.9683-1.9717 1.1708-.3961.1056-.8099.1408-1.2148.1672-2.7727.2113-5.5542.4313-8.327.3785-1.3379-.0176-2.6671-.1056-4.005-.0528-.3873.0176-.7746.044-1.1531.0528-.2201.0088-.4401.0264-.6602-.0088-.1496-.0176-.3081-.0088-.4577-.0088-.3345 0-.6602-.0088-.9947-.0264-.6602-.0264-1.3203-.0792-1.9805-.1497-.71299-.0792-1.43478-.176-2.13897-.308-.34329-.0617-.70419-.1409-.95065-.3697-.16724-.1585-.27287-.3697-.3609-.5722-.29047-.669-.48412-1.3819-.57215-2.1037-.25526.889.0088 1.8661.59856 2.5878.55455.6778 1.40837 1.0651 2.2622 1.2236.64257.1232 1.36431.1848 2.00691.1144.1409-.0176.2817 0 .4313.0088l1.0035.0528c.669.0352 1.338.0616 2.0069.0792.669.0176 1.3292.0264 1.9982.0352.308 0 .6425.0353.9506-.0088.2993-.044.6338.0088.9419.0176 1.3379.0441 2.6847.0793 4.0226.0705.0704-.0088.1497-.0088.2289-.0088z"/><path d="m32.9359 9.94008s-1.0827-.03521-1.1795-.03521c-.4049-.01761-.801-.04401-1.2059-.07042-.2025-.01761-.4049-.02641-.5986-.04401-.0968-.00881-.2024-.01761-.2993-.02641-.0528-.0088-.1144-.0176-.176-.0176-.0264 0-.044.0088-.0616.0088-.0352-.0088-.0793-.01761-.1145-.02641-.1584-.04401-.3168-.07922-.4753-.12323 0-.02641-.0088-.04401-.0088-.07042 0-.0088.2201-.0088.2377-.0088.0616.0088.132.0264.1936.0176.0528-.0088.0968-.0176.1497-.0176h.2464c.3345 0 .669.0088.9947.0264.3345.01761.669.03521.9947.06162.3344.02641.6689.06162.9946.10563.1144.0176.2377.02641.3521.04401.0176.07922-.044.08802-.044.17605z"/><path d="m9.47891 14.0508c-1.05628.1056-2.11256.2464-3.16003.4401-.07042-.0704-.09683-.1496-.07922-.2377 1.10029-.132 2.13016-.1584 3.23925-.2024z"/></g><path d="m30.2688 16.6119c.0352 2.4559-.0352 4.8765-.1936 7.2707-.0352.537-.0704 1.0827-.1232 1.6197-.1321 1.6284-1.4524 2.9135-3.0809 3.028-5.2021.352-10.5187.3344-15.9322-.0088-1.65481-.1057-2.98396-1.4348-3.08959-3.0897 0-.0264-.0088-.044-.0088-.0704-.21125-4.1547-.24646-8.3798-.11443-12.6753.00881-.2025.0088-.4049.01761-.6074.03521-.8186.06161-1.6284.10562-2.44704.00881-.19365.03521-.3785.07923-.56335 0-.03521.0088-.07042.0264-.10562.34329-1.39077 1.56682-2.42064 3.05436-2.49986 5.1934-.25527 10.4484-.25527 15.7826.0088 1.6637.07922 3.028 1.38196 3.1601 3.0456.1232 1.55797.2112 3.09847.264 4.63007.0352.8274.0528 1.646.0528 2.4646z" fill="#e58b4a"/><path d="m24.1172 13.3203c-.1875.0938-.3203.1328-.3984.1172-.0626-.0313-.1485-.0391-.2579-.0234-.0468-.0157-.0937-.0157-.1406 0-.0469.0156-.0859.0312-.1172.0468-.0469 0-.0937-.0078-.1406-.0234s-.1016-.0078-.1641.0234c-.0312 0-.0703.0079-.1172.0235-.0468 0-.0937-.0078-.1406-.0235-.2031-.0312-.3515-.0312-.4453 0-.0469 0-.0937-.0078-.1406-.0234s-.0859-.0234-.1172-.0234c-.1875.0468-.3203.0781-.3984.0937-.0782.0156-.1563.0313-.2344.0469-.0938.0312-.1953.0547-.3047.0703-.0938 0-.1875.0156-.2812.0469-.0626.0156-.1563.0547-.2813.1172-.1563.0781-.2656.125-.3281.1406s-.125.0391-.1875.0703-.1172.0469-.1641.0469c-.0312 0-.0703.0156-.1172.0469-.2187.1562-.375.2421-.4687.2578-.1407.0781-.2266.1328-.2578.164-.0157.0156-.0313.0313-.0469.0469-.1406.0937-.2344.1641-.2813.2109-.1562.0782-.2656.1641-.3281.2578-.1406.125-.2109.1876-.2109.1876-.1094.1406-.1797.2421-.211.3046-.0312.0469-.0625.1016-.0937.1641-.0938.0937-.1484.1641-.1641.2109-.0156.0313-.039.0547-.0703.0704-.0312.0624-.0547.1093-.0703.1406-.0156.0312-.0313.0781-.0469.1406-.0468.1406-.0781.2266-.0937.2578v.0469c-.0469.1719-.0703.2891-.0703.3515v.1641c0 .1094-.0078.1953-.0235.2578.0313.1094.0469.211.0469.3047 0 .0781.0156.1719.0469.2813.0312.1093.0781.2109.1406.3047.0781.1406.1172.2265.1172.2578.0156.0312.0312.0625.0469.0937.0937.1719.1406.2578.1406.2578.0156 0 .0312.0157.0469.0469.0312.0312.0547.0703.0703.1172.0312.0469.0625.0859.0937.1172.1094.125.1641.1953.1641.2109.0156.0156.039.0391.0703.0703.1094.125.1719.1875.1875.1875.1094.0469.1875.0938.2344.1407.0937.0624.164.1171.2109.164.2031.0938.3203.1641.3516.211.0469.0312.0937.0624.1406.0937.1406.0469.2109.0781.2109.0937.0157 0 .0391.0079.0704.0235.1718.0625.2812.0937.3281.0937.0312.0157.0703.0313.1172.0469.0468.0156.0937.0391.1406.0703.0312.0156.0703.0235.1172.0235s.0937.0156.1406.0468l.2813.0703c.2031.0782.375.125.5156.1407.1875.0469.3047.0781.3515.0937.0625.0156.1172.0313.1641.0469.125.0313.25.0547.375.0703.125 0 .2578.0078.3984.0234.0469 0 .0938.0079.1407.0235h.164.2813c.0312-.0156.0625-.0235.0937-.0235.0313 0 .0703.0079.1172.0235.0625.0156.1328.0312.2109.0469h.1641c.0625-.0157.125-.0078.1875.0234.1719.0625.2734.1641.3047.3047s.0547.2969.0703.4687v.375c.0156.0782.0234.1485.0234.211v.1875c0 .0781-.0078.1562-.0234.2343v.211c-.0156.1562-.0234.3125-.0234.4687v.3047c0 .1563-.0078.2656-.0235.3282v.1406.4687c.0313.0938.0469.1563.0469.1875.0156.0313.0156.0625 0 .0938-.0312.0781-.0469.1406-.0469.1875.0157.0469.0235.0859.0235.1172-.0156.0937-.0235.1562-.0235.1875.0157.0156.0079.0468-.0234.0937-.0469.2031-.125.3516-.2344.4453-.2187.0938-.375.1485-.4687.1641-.0782.0156-.1797.0312-.3047.0469-.0781 0-.1406 0-.1875 0-.0469.0156-.1094.0234-.1875.0234-.1719.0469-.2891.0703-.3516.0703s-.1172 0-.164 0c-.1407.0469-.2579.0625-.3516.0469-.0781-.0156-.1406-.0234-.1875-.0234-.0312.0312-.0781.0468-.1406.0468s-.1094-.0156-.1406-.0468c-.0157-.0157-.086-.0079-.211.0234-.1094.0312-.1875.039-.2344.0234-.2812-.0625-.4765-.0937-.5859-.0937s-.2187-.0157-.3281-.0469c-.2188-.0625-.375-.1094-.4688-.1406-.0781-.0156-.164-.0313-.2578-.0469-.0469-.0156-.0937-.0234-.1406-.0234s-.0938-.0079-.1406-.0235c-.0782 0-.1328-.0156-.1641-.0468-.0313-.0157-.0625-.0157-.0937 0-.1876-.0626-.2813-.0938-.2813-.0938 0-.0156-.0078-.0234-.0234-.0234-.1719-.0313-.2657-.0547-.2813-.0704-.0156-.0156-.0312-.0234-.0469-.0234-.1562-.0312-.25-.0547-.2812-.0703l-.375-.1172c-.0625-.0156-.1406-.0547-.2344-.1172-.2031-.1093-.3125-.164-.3281-.164-.1875-.0782-.3125-.125-.375-.1407-.0469-.0156-.1016-.0312-.1641-.0468-.1719-.0938-.2812-.1485-.3281-.1641-.0312-.0156-.0703-.0391-.1172-.0703-.1562-.0781-.2422-.125-.2578-.1406 0-.0157-.0078-.0235-.0234-.0235-.125-.0625-.211-.1015-.2578-.1172-.0313-.0156-.0626-.0234-.0938-.0234-.0312-.0469-.0781-.0937-.1406-.1406-.0469-.0469-.086-.1094-.1172-.1875-.0313-.0313-.0781-.0469-.1406-.0469-.0469 0-.086-.0156-.1172-.0469-.1875-.1562-.3047-.25-.3516-.2812-.1562-.1094-.25-.1641-.2812-.1641-.0313-.0156-.0625-.0391-.0938-.0703-.0312-.0312-.0625-.0625-.0937-.0938-.0313-.0468-.0625-.0859-.0938-.1171-.0469-.0625-.1015-.1094-.1641-.1407-.0468-.0468-.0937-.1015-.1406-.164-.125-.1563-.2031-.2344-.2344-.2344-.0156-.0156-.039-.0391-.0703-.0703-.0781-.1094-.1328-.1953-.164-.2578-.0313-.0625-.0781-.1094-.1407-.1407-.1562-.1874-.2343-.3046-.2343-.3515-.1094-.1094-.1719-.1797-.1875-.2109l-.1641-.2344c-.0937-.1875-.1484-.2813-.1641-.2813-.125-.2031-.1953-.3047-.2109-.3047-.0312-.1562-.0781-.289-.1406-.3984-.0469-.125-.0781-.2188-.0938-.2812-.0937-.2344-.1484-.3829-.164-.4454-.0313-.0781-.0625-.1718-.0938-.2812-.0156-.1094-.0312-.211-.0469-.3047-.0781-.2187-.1171-.3516-.1171-.3984 0-.2032-.0157-.336-.0469-.3985-.0156-.0781-.0234-.1562-.0234-.2344 0-.1093.0078-.1953.0234-.2578s.0234-.1172.0234-.164c0-.1563-.0078-.2422-.0234-.2578 0-.0313 0-.0625 0-.0938l.0234-.2578c.0313-.1875.0547-.3047.0703-.3516.0469-.125.0625-.1953.0469-.2109 0-.0156.0078-.0391.0234-.0703.0313-.1094.0469-.1875.0469-.2344s.0078-.1016.0235-.164c.0312-.1563.0468-.2813.0468-.375.0157-.0313.0313-.0704.0469-.1172.0156-.0469.0313-.0938.0469-.1407.0156-.1875.0312-.289.0469-.3047.0156-.0156.0234-.039.0234-.0703.0469-.1406.0625-.2187.0469-.2343 0-.0157 0-.0313 0-.0469.0468-.1406.1015-.2656.164-.375.0469-.1875.0782-.2969.0938-.3281.125-.1719.1875-.2735.1875-.3047.0156-.0313.0391-.0625.0703-.0938.0938-.1562.1562-.25.1875-.2812.0156-.0313.0234-.0781.0234-.1407.0157-.0624.0313-.1093.0469-.1406.125-.1406.1875-.2187.1875-.2344 0-.0156.0156-.0312.0469-.0468.0469-.125.1172-.25.2109-.375.0625-.1094.0938-.1719.0938-.1875.0156-.0157.0234-.0391.0234-.0703.0781-.0938.1485-.1563.2109-.1875.0938-.1563.1485-.2422.1641-.2579.1094-.1093.1641-.1718.1641-.1874 0-.0157.0156-.0313.0468-.0469.0313-.0313.0704-.0547.1172-.0703.0469-.0313.0938-.0625.1407-.0938l.2109-.2109c.0469-.0625.0938-.125.1406-.1875.1563-.1094.2344-.1719.2344-.1875.0781-.0781.1406-.1407.1875-.1875.0469-.0782.0859-.125.1172-.1406.0312-.0313.0625-.0626.0937-.0938.1563-.1562.2344-.2266.2344-.2109.1094-.0938.1953-.1563.2578-.1875.0782-.0469.1563-.0938.2344-.1407.125-.0625.1953-.10152.2109-.11715.0313-.03125.0625-.05469.0938-.07031.0625-.04688.125-.08594.1875-.11719s.125-.0625.1875-.09375c.0781-.03125.1484-.05469.2109-.07031.0625-.01563.1328-.03125.211-.04688l.1875-.1875c.1718-.0625.2734-.10156.3047-.11719.1718-.0625.2812-.09374.3281-.09374.0625 0 .1172-.00782.164-.02344.1875-.07813.2969-.125.3282-.14063.2187-.0625.3437-.10156.375-.11719.0468-.01562.0937-.01562.1406 0 .1094-.04687.1953-.07031.2578-.07031l.2578-.09375.2578-.04687c.2188-.04688.3594-.07031.4219-.07031.0625-.01563.1328-.03907.2109-.07032.1563-.04687.25-.0625.2813-.04687.0312.01562.0625.02343.0937.02343.1719 0 .2813-.00781.3282-.02343.0625-.03125.125-.04688.1875-.04688.1093 0 .2187.01563.3281.04688.1094.01562.2187.00781.3281-.02344h.3984c.0469-.01563.0938-.01563.1407 0 .0781.04687.164.04687.2578 0 .1094-.03125.1719-.03906.1875-.02344.0312.01563.0625.02344.0937.02344.1875.0625.2969.09375.3282.09375.0312-.01562.0625-.01562.0937 0 .1719.07812.2656.11719.2813.11719.0312-.01563.0625-.02344.0937-.02344.0938 0 .1563.00781.1875.02344.0469.01562.0859.00781.1172-.02344l.2344.16406c.0625.10938.1015.17188.1172.1875.0156.01563.0234.03125.0234.04688.0156.04687.0156.11719 0 .21093 0 .07813.0078.16407.0234.25782.0157.15625.0235.23437.0235.23437.0156 0 .0234.00781.0234.02344v.21094c.0156.06251.0156.12501 0 .18751 0 .0625-.0078.125-.0234.1875v.2109.2813c.0156.0156.0234.0312.0234.0468-.0469.2813-.0703.461-.0703.5391v.3281.1407c0-.0157 0-.0313 0-.0469s-.0078-.0156-.0234 0v.164.1876c.0156.0156.0234.039.0234.0703v.2578c.0156.0469.0234.0859.0234.1172 0 .0625-.0078.125-.0234.1875-.0156.0468-.0234.1093-.0234.1875-.0469.1718-.0625.2656-.0469.2812z" fill="#693821"/></svg>