<svg fill="none" height="75" viewBox="0 0 155 75" width="155" xmlns="http://www.w3.org/2000/svg" xmlns:xlink="http://www.w3.org/1999/xlink"><linearGradient id="a"><stop offset="0" stop-color="#cf5c2b"/><stop offset="1" stop-color="#59173e"/></linearGradient><linearGradient id="b" gradientUnits="userSpaceOnUse" x1="118.851" x2="79.9264" xlink:href="#a" y1="-103.532" y2="-19.0741"/><linearGradient id="c" gradientUnits="userSpaceOnUse" x1="88.2026" x2="51.0893" xlink:href="#a" y1="-30.9254" y2="126.894"/><linearGradient id="d" gradientUnits="userSpaceOnUse" x1="87.8041" x2="40.2693" xlink:href="#a" y1="-25.9295" y2="169.795"/><linearGradient id="e" gradientUnits="userSpaceOnUse" x1="81.5155" x2="78.3054" xlink:href="#a" y1="88.1012" y2="44.2648"/><linearGradient id="f" gradientUnits="userSpaceOnUse" x1="131.291" x2="118.869" xlink:href="#a" y1="16.5635" y2="43.3387"/><linearGradient id="g" gradientUnits="userSpaceOnUse" x1="160.166" x2="54.7711" xlink:href="#a" y1="-64.9332" y2="132.246"/><linearGradient id="h" gradientUnits="userSpaceOnUse" x1="117.722" x2="109.887" xlink:href="#a" y1="14.3173" y2="31.2056"/><linearGradient id="i" gradientUnits="userSpaceOnUse" x1="135.936" x2="69.4588" xlink:href="#a" y1="-37.0867" y2="87.2826"/><linearGradient id="j" gradientUnits="userSpaceOnUse" x1="29.7538" x2="21.9184" xlink:href="#a" y1="28.6854" y2="45.5737"/><linearGradient id="k" gradientUnits="userSpaceOnUse" x1="47.9675" x2="-18.5098" xlink:href="#a" y1="-22.7184" y2="101.652"/><path d="m154.889 55.7615c-.08-1.446-.16-2.892-.229-4.338-.069-1.5169-.149-3.048-.217-4.5649-.046-1.0349-.115-2.1406-.137-3.218-.023-.8932.274-2.3675-.115-3.1756-.228-.482-.731-.6237-1.177-.723-.583-.1276-1.166-.2551-1.749-.3827.789-.2269 1.555-.5104 2.309-.8648.172-.0851.343-.1701.457-.3402.103-.156.137-.3686.16-.5529.263-1.9847.092-4.0828.092-6.0959-.012-2.0414-.012-4.097-.023-6.1384-.012-1.9422-.012-3.8985-.023-5.8407 0-.638.217-2.0414-.046-2.6085-.205-.4678-.697-.4395-1.074-.4962-.389-.0567-.777-.0567-1.166-.0283-.583.0425-1.154.1559-1.726.2693.755-.2552 1.532-.3827 2.286-.6096.492-.1417.972-.3402 1.429-.6379.274-.1843.571-.3402.731-.6947.069-.1417.092-.326.126-.4961.069-.3544.08-.723.103-1.0916.046-1.0065.08-2.0131.091-3.0338.012-.51034.012-1.02069 0-1.53105 0-.32606-.102-.63794-.125-.97817-.103-1.37512-.549-2.69353-1.258-3.75677-.708-1.04906-1.68-1.81459-2.754-2.169-.4-.12759-.8-.19847-1.212-.22683-48.326-1.885467-95.6912-1.95635-142.0281.02836-.18288.01417-.37719-.01418-.56007.04253-.18288.07088-.36576.15594-.56007.241-.37718.17012-.75437.34023-1.12013.56706-.70866.42529-1.37159.99235-1.82879 1.78623-.26289.46783-.44577.99236-.68579 1.46018-.12573.241-.28575.42529-.38862.68047-.49149 1.21918-.98298 2.45253-1.668772 3.52994-.662936 1.04905-.8572446 2.72185-.7886651 4.01195.1028691 1.7579.1371591 3.5299.2628881 5.2878.205739 2.7928.01143 5.5856.262889 8.4067.03429.3969.091439.8506.331468 1.1057.171452.1843.400052.2552.617212.3119.70866.1985 1.42875.3828 2.1374.5813-.8801.7088-2.19455.7655-2.663173 1.928-.148589.3827-.171449.808-.194309 1.2333-.080009 1.5027-.194308 2.9913-.274318 4.4798-.03429.6663-.06858 1.3468-.080009 2.013-.02286.638-.05715 1.2618-.1143 1.8997-.114299 1.4885-.422907 3.4165-.057149 4.8767.354327 1.4035 1.771638 1.4602 2.743188 1.8004-.51435.0709-.90297.5954-1.21158 1.12-.14859.2693-.26289.5387-.40005.808-.12572.241-.24002.482-.34289.7372-.205742.5103-.377191 1.0349-.50292 1.5878-.08001.3686-.125729.6521-.137159 1.0348-.01143.3403-.02286.6805-.03429 1.0207-.02286.6805-.03429 1.361-.04572 2.0415-.02286 1.3609-.03429 2.7218-.02286 4.0828.01143 1.3184-.2400282 2.5943.205739 3.8843.445767 1.2901 1.21157 2.3959 2.17169 3.1189.77723.5954 1.65734.9073 2.57173.964 46.59983 2.5376 93.97693 2.5092 142.08553-.0142 1.269-.0709 2.492-.6947 3.429-1.7721.446-.5103.846-.964 1.177-1.6161.412-.7797.789-1.5878 1.143-2.41.869-1.9989 1.955-4.2246 1.818-6.5353z" fill="url(#b)"/><path d="m149.608 63.0065c-48.12 2.5092-95.4856 2.5517-142.08547.0141-2.06882 0-4.00048-1.8429-4.77771-4.1537-.3429-1.0349-.41148-2.1548-.36576-3.2606.01143-.1984.02286-.3827.06858-.5812.06858-.2977.18288-.5529.20574-.8648.01143-.1701.03429-.3119.04572-.482.08001-.8789.10287-1.772.16002-2.651.03429-.4961.08001-1.0065.19431-1.4885.12573-.5529.33147-1.0491.68579-1.3893 1.53161-1.4318 4.53769-1.4035 6.76648-1.4602.4344-.0142.8344-.0283 1.2002-.0567.9715-.0709 1.9431-.0992 2.9146-.0992-2.3088-.0142-4.6062-.2552-6.8808-.7514-1.07441-.2268-2.14883-.5103-3.21181-.8506-.25146-.0708-.52578-.1843-.76581-.326-.33146-.1843-.61721-.4537-.7658-.8506-.12573-.3402-.1143-.7372-.1143-1.0916.01143-.3544-.03429-.723-.01143-1.0774.02286-.7655.10287-1.5027.16002-2.2541.05715-.6096.1143-1.2192.14859-1.8429.08001-1.6303.16002-3.2606.26289-4.8909.03428-.4962.08-1.0349.35432-1.3751.17145-.2127.38862-.3119.60579-.4111.59436-.2694 1.20014-.4679 1.81736-.5955.32004-.0708.64007-.0708.91439-.1559.33147-.1276.58293-.2126.93726-.2552 3.39473-.4961 6.78933-.9781 10.19553-1.4743.4-.0567.8115-.1134 1.223-.1701-5.1206-.7656-10.25268-1.5595-15.37329-2.325-.2286-.0425-.44577-.0709-.67436-.0992-.20574-.0284-.42291-.0709-.56007-.2552-.01143-.0142-.02286-.0284-.03429-.0425-.10287-.1701-.1143-.3686-.13716-.5813-.2286-3.4307.03429-6.9748-.12573-10.448-.01143-.1985-.05715-1.1625-.10287-2.2683-.05715-1.6019-.14859-3.43068-.18288-3.43068-.21717-3.81347 2.1374-7.10242 5.22348-7.23001 46.32547-1.998879 93.69147-1.927997 141.98247 0 3.098.12759 5.475 3.43071 5.235 7.27254-.08 1.30425.126 2.56595-.137 3.88435-.057.3119-.137.6238-.332.8364-.171.1843-.4.2552-.617.3119-.583.1701-1.166.3544-1.749.5245-.777.2269-1.543.4395-2.331.5529-4.664.6096-9.304 1.2334-13.956 1.8571-.126.0142-.252.0284-.377.0426-.149.0141-.298.0425-.446.0567.377-.0142.743-.0142 1.109-.0142 5.829-.1276 11.669-.241 17.51-.3686.16 0 .343 0 .469.1276.148.1418.183.3828.206.6096.034.3119.034.6096.034.8931-.012.9215-.137 1.8004-.137 2.7361 0 .8222.16 1.6303.16 2.4808-.012 1.2192-.046 2.4384-.08 3.6718-.092 2.7785-.252 5.5997-.492 8.3924-.034.4112-.08.8364-.297 1.1342-.171.2268-.423.3544-.663.4536-.149.0709-.297.1276-.457.1701-3.429 1.2192-7.178.2552-10.699 1.0065-.228.0426-.468.0993-.685.1702-.08.0141-.16.0425-.229.0708.286.0284.572.0426.857.0851 3.852.3402 7.693.8222 11.522 1.4318.445.0709.948.1701 1.211.6238.206.3402.206.8081.206 1.2334v1.4034c0 1.4177 0 2.8353.057 4.253.069 1.8713.16 3.7426.263 5.628.046.9215.091 1.843.149 2.7503.205 3.7993-2.138 7.074-5.201 7.2442z" fill="url(#c)"/><path d="m154.146 23.2968c-.012 1.2192-.046 2.4384-.08 3.6717-1.978.2268-3.909.4111-5.807.6805-.446.0567-.88.1134-1.326.1843-1.634.2126-3.269.4111-4.903.5812-.812.0851-1.635.1701-2.458.2552-.525.0567-.994.3119-1.497.3828-.709.0992-1.486-.1276-2.206-.1843-.8-.0567-1.6-.0851-2.4-.0709-1.6.0283-3.212.1701-4.801.3969-3.2.4537-6.355 1.205-9.532 1.8571-5.087 1.0491-10.196 1.8572-15.339 2.3817 2.8.3402 5.578.9073 8.309 1.687-1.028.0992-2.057.1985-3.086.2694-3.269.2551-6.538.3827-9.8067.4536-3.2689.0709-6.5493.0709-9.8183.0567-3.2689 0-6.5493-.0142-9.8183.0142-3.2689.0425-6.5379.1276-9.8069.3119-1.6344.0992-3.2689.2126-4.892.3686-.4114.0425-.8115.085-1.223.1275-.4915.0568-.9715.2269-1.4744.2978-3.8976.567-7.7952 1.2758-11.6471 2.2115-5.9893 1.4602-12.0129 2.892-18.105 3.4023-1.0973.0851-2.206.1702-3.3033.2552-5.2463 1.3043-10.9156 1.5736-16.059 2.3533-1.7488.2694-3.53189.4111-5.31496.4962-1.07441-.2268-2.14882-.5104-3.21181-.8506-.25146-.0709-.52578-.1843-.7658-.3261-.33147-.1843-.61722-.4536-.76581-.8505-.12573-.3403-.1143-.7372-.1143-1.0916.01143-.3545-.03429-.723-.01143-1.0774.02286-.7656.10287-1.5028.16002-2.2541 4.70913-.482 9.54399-2.169 14.07029-2.9912 5.8178-1.0349 11.7499-1.6445 17.6135-2.0556 6.6408-.4537 13.2701.5245 19.8881.5245 6.1378 0 12.2528-.6663 18.3564-1.2759 11.8986-1.1908 23.7743-2.4242 35.6498-3.7001-2.583-.0567-5.166-.1417-7.749-.2551-3.2921-.1418-6.584-.3261-9.8758-.5387-.7658-.0426-1.5544-.1702-2.3088-.0709-.7887.1134-1.5888.1417-2.3774.1276-1.5659-.0284-3.1318-.2694-4.652-.7372-.8916-.2694-1.7831-.6238-2.6861-.8222-1.5316-.3261-3.0975-.2269-4.6634-.2552-5.8178-.0993-11.5442-1.9989-17.362-1.928-1.5316.0142-3.0518.1701-4.572.3402-1.6116.1843-3.2347.3686-4.8577.4253-.7201.0284-1.4631.0851-2.1603-.1134-.5372-.1559-1.1544-.0851-1.703-.0992-.983-.0284-1.966-.0567-2.949-.0851-1.9659-.0567-3.9319-.0851-5.9092-.0992-7.4638-.0426-14.9047.4678-22.3684.3969-3.17754-.0283-6.42364-.1134-9.56687-.6805-.01143-.0141-.02286-.0283-.03429-.0425-.10287-.1701-.1143-.3686-.13716-.5812-.2286-3.4307.03429-6.9749-.12573-10.4481-.01143-.1985-.05715-1.1625-.10287-2.2682 3.80617-.4112 7.63522-.5104 11.44132-.8506 7.4524-.6805 14.9047-.9782 22.3913-.9357 14.8246.0851 29.6149 1.2617 44.3938 2.651 14.7904 1.3893 29.5466 3.1047 44.3366 4.4089 7.475.6521 14.962 1.0633 22.449 1.0633 2.194 0 4.411-.1702 6.629-.3686-.012.9214-.137 1.8004-.137 2.736.034.8931.194 1.7012.183 2.5376zm.24 24.0859c-.058-1.4177-.058-2.8353-.058-4.253-4.72-.6379-9.452-1.29-14.196-1.7012-8.138-.6946-16.321-.5812-24.471-.1701-1.692.0851-3.36.1418-5.041.397-.811.1275-1.623.2551-2.434.3686-3.258.482-6.515.8647-9.7842 1.1766-1.2687.1134-2.5489.2268-3.829.3261 3.3032-.0284 6.6062-.0567 9.9102-.0851 3.303-.0284 6.606-.0567 9.909-.0851 1.646-.0141 3.304-.0283 4.949-.0425.823-.0142 1.646-.0142 2.481-.0283.343 0 .708.0283 1.051-.0709.206-.0567.412-.156.618-.1985.742-.1418 1.565.0425 2.308.0992.823.0567 1.635.1135 2.458.1702 1.634.1275 3.28.2693 4.915.4111 2.583.241 5.155.5103 7.726.7939 2.812.3118 5.601.723 8.401 1.1483-6.355.7513-12.698 1.531-19.065 1.9705-14.653 1.0065-29.306 2.2682-43.9822 1.8996-14.4703-.3402-28.9063-1.3751-43.388-1.3042-7.6352.0283-15.259.1843-22.8713.4678-5.6235.1985-11.31563.1701-16.92773.879-.1143.4678-.16002.9923-.19431 1.4885-.05715.8789-.08001 1.7721-.16002 2.651 6.25217.3119 12.57296-.2127 18.81366-.2268 7.6238-.0142 15.2475.0709 22.8713.2977 14.4474.4253 28.8834 1.4176 43.3194 1.7295 14.6992.3261 29.3632-.9782 44.0282-1.8996 7.567-.4679 15.179-.482 22.746-.5813h.16c-.103-1.8854-.195-3.7426-.263-5.628z" fill="url(#d)"/><g fill="#eb924d"><path d="m3.62502 42.5207c-.01143.7089-.01143 1.4319.17145 2.0982-.33147-.1843-.61722-.4537-.76581-.8506-.12573-.3403-.1143-.7372-.1143-1.0916.01143-.3544-.03429-.723-.01143-1.0774.04572-1.3752.25146-2.7219.30861-4.097.08001-1.6303.16002-3.2606.26289-4.8909.03429-.4962.08001-1.0349.35433-1.3751.17145-.2127.38862-.3119.60578-.4112.59436-.2693 1.20015-.4678 1.81736-.5954.28575-.085.60579-.085.88011-.1701.33147-.1276.58292-.2126.93725-.2552 3.39474-.4961 6.78934-.9781 10.19554-1.4743-3.6462.9214-7.2923 1.8146-10.94991 2.736-.70866.1702-1.65734.1702-2.2517.7514-.12573.1134-.2286.2552-.33147.3969-.09144.1276-.17145.2694-.27432.397-.1943.2126-.26288.5529-.35432.8506-.24003.8647-.37719 1.772-.41148 2.6793-.01143.3403-.01143.6947-.04572 1.0349-.01143.0851-.02286.1701-.03429.2552-.01143.0992-.05715.1701-.08001.2693-.18288.6947-.16002 1.4602-.08001 2.169.03429.2552.10287.5104.14859.7656.1143.6096.03429 1.2617.02286 1.8854z"/><path d="m135.252 16.7759c-.206-.0141-.411-.0283-.617-.0425h.983c-.115 0-.24.0284-.366.0425z"/><path d="m138.611 37.7998c.949.1134 1.898.2268 2.846.3119-.228.0425-.468.0992-.685.1701-.732-.1701-1.463-.3402-2.161-.482z"/><path d="m152.579 36.0553c.149-.7371.114-1.5027.057-2.254-.08-1.3893-.171-2.7928-.251-4.1821-.012-.2693-.046-.5671-.217-.7372-.137-.1417-.332-.1417-.503-.1276-1.418.0567-2.823.1135-4.218.1702 1.52-.1702 3.029-.6663 4.401-1.4886.4-.241.811-.5387.96-1.0349.08-.2551.08-.5387.08-.8222-.023-2.1973-.332-4.6499-.549-6.8331-.663-.7797-1.657-.8789-2.572-.9498-3.68-.2835-7.372-.5529-11.041-.8364-.88-.0709-1.863-.1134-2.8-.1701 5.829-.1276 11.67-.241 17.51-.3686.16 0 .343 0 .469.1276.149.1418.183.3828.206.6096.126 1.2475-.115 2.3958-.115 3.6292 0 .8222.161 1.6303.161 2.4808-.058 3.9411-.229 8.0523-.583 12.0642-.035.4111-.08.8364-.298 1.1341-.171.2269-.422.3545-.663.4537-.148.0709-.297.1276-.457.1701.195-.2835.343-.6521.423-1.0349z"/><path d="m2.59623 14.3953c-.02286-.4678-.2286-5.68478-.29718-5.68478-.21717-3.81347 2.1374-7.10242 5.22348-7.23001 46.32547-1.998879 93.69147-1.927997 141.98247 0 3.098.12759 5.475 3.43071 5.235 7.27254-.08 1.30425.126 2.56595-.137 3.88435-.057.3119-.137.6238-.332.8364-.171.1843-.4.2552-.617.3119-.583.1701-1.154.3686-1.737.5245.503-.567 1.086-1.2333 1.314-2.0556.16-.5528.035-1.0348-.114-1.5594-.229-.82221-.274-1.60191-.297-2.46668-.035-1.06324.114-2.58012-.56-3.43071-.515-.63794-1.189-1.19082-1.829-1.58776-1.589-.96401-3.429-1.17665-5.178-1.26171-.091 0-.171-.01418-.263-.01418-3.223-.12759-6.458-.14176-9.681.26936-.388.04252-.731.18429-1.109.26935-.468.11341-1.028-.02835-1.508-.05671-1.098-.07088-2.183-.12759-3.281-.18429-2.183-.09924-4.377-.17012-6.572-.21265-1.646-.02835-3.28-.02835-4.926-.02835-.515 0-1.04 0-1.555 0-.994 0-1.988 0-2.994 0-1.383 0-2.766 0-4.149-.01418-.069 0-.138 0-.195 0-2.194 0-4.377-.01418-6.572-.01418-1.097 0-2.194 0-3.2803-.01417-.5029 0-1.063.08506-1.5545-.02835-.5029-.11342-.9029-.49618-1.4287-.55289-.4801-.0567-.9715.04253-1.4402.09924-1.2001.11341-2.3888.25517-3.5775.42529-.5372.07088-1.1316.1843-1.4859.68047-.1258.17012-.2172.38277-.3658.52453-.3315.29771-.8001.09924-1.1887-.07088-.7658-.32606-1.5773-.51035-2.4003-.55288-.7429-.04253-1.4745.12759-2.2174.07088-.4686-.02835-.9144-.17012-1.3716-.28353-1.8059-.43947-3.6919-.46782-5.5092-.63794-1.3487-.12759-2.7089-.21265-4.0691-.26935-4.3776-.19847-8.7667-.08506-13.133.14176-2.1945.11341-4.3776.25518-6.5722.4253-1.0058.07088-2.1145.34023-3.1089.17011-.2858-.04253-.5601-.18429-.8458-.25517-.2972-.07089-.5944-.05671-.903-.05671-1.2116.01418-2.4346.02835-3.6461.02835-1.4173.01418-2.8461 0-4.2748 0-.4801 0-.9487.11342-1.4173.11342-.4344 0-.8573-.11342-1.2916-.11342-.903.01418-1.7945.22683-2.6289.65212-.32.17012-.6515.35441-1.0058.34024-.6401-.04253-1.0745-.79389-1.6574-1.13412-1.3716-.808061-2.7889.73718-4.1948.11341-.6972-.31188-1.4058-.26935-2.1488-.26935-.9372-.01418-1.8745-.01418-2.8118-.01418-3.1775.01418-6.355.15594-9.5097.55288-1.5773.19847-3.1432.46783-4.70909.80806-.75437.17012-1.52018.43947-2.28598.55289-.21717.02835-.38862.02835-.59436.21264-.93725.80806-3.50899 5.33036-1.66877 6.91814.1143.0992.24003.1843.37719.2552.19431.0992.40005.1417.60578.2268.20574.0992.46863.0283.6858.0283.52578 0 1.05155 0 1.5659-.0141.56007 0 1.12013-.0142 1.64591.1843-1.18871.3118-2.37742.6095-3.56614.9073-.38861.0992-.77723.1984-1.14299.3969-.05715.0425-.12573.0567-.19431.0851-.25146.1134-.43434.4961-.52578.7938-.24002.7797-.09144 1.6303-.1943 2.4384-.18288 1.446.04571 3.0054.16001 4.4372.14859 1.843.33147 3.7001.54864 5.543-.2286-.0425-.44577-.0708-.67437-.0992-.21716-.0284-.44576-.0709-.59435-.2835-.10287-.1701-.1143-.3686-.13716-.5813-.2286-3.459.03429-7.0031-.1143-10.4622z"/><path d="m154.798 55.7612c-.16-2.7928-.297-5.5856-.411-8.3783-.069-1.8855-.058-3.771-.058-5.6565 0-.4253-.011-.8789-.205-1.2333-.263-.4537-.766-.5529-1.212-.6238-3.829-.6096-7.669-1.0916-11.521-1.4318 3.429.8222 6.972 1.8713 10.229 2.9912.641.2269.686.8364.949 1.5878.252.7514.274 1.6019.297 2.41.012.3402.012.6805-.08 1.0065-.194.723-.811 1.12-1.36 1.4602.412.1418.823.2835 1.246.4395.103.0425.206.0709.274.1701.08.0992.115.2694.126.4253.16 1.3468.034 2.7644.046 4.1254.011.8789.011 1.7578.023 2.6368.011.241.08.4678.125.723.069.5103.023 1.0349-.103 1.531-.251 1.0207-.811 1.928-1.531 2.5093-1.246 1.0065-2.8 1.2192-4.286 1.3467-2.481.2269-4.972.1985-7.441.4962-.823.0851-1.635.1843-2.458.2694-1.634.1701-3.28.3119-4.915.4536-3.097.2552-6.206.4537-9.303.5813-7.339.3118-14.688.2835-22.037.2268-.881-.0284-1.772-.0284-2.6521-.0284-.7201 0-1.4059.1134-2.1146.0284-1.7259-.2127-3.4404.1701-5.1549.4111-2.0002.2694-4.149.2977-5.875-.9782-.5486-.4111-1.0858-.9498-1.7259-.9782-.5258-.0141-1.0172.3545-1.4973.638-.9144.5387-1.9202.8364-2.9261.9923-.0228 0-.0343 0-.0571.0142-2.1374.3403-4.1948.156-6.3322-.0283-1.5659-.1276-3.2118.1984-4.7091-.4962-1.1545-.5245-2.366-1.2759-3.5547-.879-.423.1418-.8001.4253-1.2002.6238-.7772.3828-1.6345.4537-2.4689.5104-.5257.0283-1.0515.0567-1.5773.085-2.1831.0851-4.3776.0709-6.5608-.0425-.9144-.0567-1.8516-.0425-2.7432-.3686-.6172-.2268-1.223-.0851-1.863-.0283-2.6518.2126-5.3149.2693-7.9781.1559-1.0859-.0425-2.1717-.1134-3.2461-.2127-.5258-.0425-1.0744-.1701-1.6002-.1701-.3658 0-.6972.1418-1.063.1418-2.206-.0142-4.4005-.0567-6.6065-.0851-3.7604-.0425-7.5323-.0992-11.2928-.1417-2.5717.4394-4.732-.1134-7.28084-.6947-2.09167-.482-4.36623-1.531-5.2349-3.941-.36576-1.0066-.42291-2.1265-.38862-3.2039.01143-.3261.03429-.638 0-.964-.03429-.2977-.1143-.5671-.14859-.8648-.1143-.9782.12573-2.1123.32004-3.0621.10287-.482.2286-.9924.51434-1.361.25146-.3402.60579-.5387.96012-.6804.93725-.3686 1.93166-.4537 2.91463-.5246 1.41731-.0992 2.83462-.2126 4.25192-.3118.2858-.0142.5715-.0426.8573-.0567-.0343-.1702-.0572-.3403-.0572-.5246l.0114-.0709c-.8686-.0283-1.7373-.0283-2.606-.0425-2.24025.0567-5.23489.0425-6.7665 1.4602-.6858.6379-.81153 1.8146-.88011 2.8636-.06858 1.0349-.09144 2.0982-.20574 3.133-.03429.3119-.13716.5671-.20574.8648-.04571.1985-.05715.3828-.06858.5812-.04571 1.12.02287 2.2399.36576 3.2606.76581 2.325 2.69747 4.1537 4.77771 4.1537 46.5998 2.5376 93.9657 2.5093 142.0857-.0141 3.063-.156 5.406-3.4307 5.189-7.23z"/><path d="m10.8945 35.1626c0 .7655.0229 1.5452.0572 2.3108.0114.3827.0343.7655.0571 1.1483.0115.2835 0 .5954.0458.8647.0457.2268.0914.4253.0914.6663.0228.6521.0457 1.3184.08 1.9705.0457 1.3185.1029 2.6227.1486 3.9411.0686 1.687.1257 3.3598.1943 5.0468.0343.9357.16 1.7437.5601 2.5376.08.156.1486.3119.24.4537.1486.241.3315.4111.5601.5387.8343.4536 1.783.6946 2.686.8648 1.3944.2693 2.8003.3402 4.2062.3969 18.5279.808 37.0787 1.6303 55.6181 1.0632 2.2631-.0709 4.6062-.1417 6.7093.9073-.9601-2.1265-3.2804-2.4383-5.2463-2.495-20.5967-.5813-41.2049-1.2334-61.7331-3.3599-.56-.0567-1.1773-.1417-1.5773-.6521-.2858-.3544-.4001-.8647-.4915-1.3468-1.0515-5.2594-1.2573-10.7741-.6172-16.1328.0343-.326.1143-.6805.1029-1.0065-.0115-.3403-.0458-.6805-.0458-1.0349-.0114-.7088.0115-1.4318.0686-2.1407-.08-.1701-.2743-.1701-.4229-.1417-.3886.0567-.7772.0992-1.1773.1559.0229.4678 0 .9073-.0457 1.3751-.0114.156.0114.2694.0229.4253.0228.3119-.0229.638-.0343.9357-.0229.4536-.0343.9215-.0457 1.3751 0 .4395-.0115.8931-.0115 1.3326z"/><path d="m82.9597 58.1289c.2286-.723.9944-.8506 1.623-.8648 4.9949-.1276 9.9784-.241 14.9732-.3686 4.7091-.1134 9.4301-.2268 14.1391-.3544 1.52-.0425 3.143-.0425 4.4 1.0207-.023-.2268-.057-.4536-.08-.6805.537-.1134 1.052-.2551 1.6-.1984.298.0283.606-.0993.903-.1418.698-.1134 1.406-.1559 2.104-.1985 3.874-.2126 7.76-.2835 11.647-.5245.983-.0567 1.954-.1418 2.937-.2268.972-.0851 1.955-.156 2.915-.3261.137-.0283.263-.085.4-.0992.183-.0142.366-.0284.548-.0425.983-.0993 1.978-.3261 2.892-.8506 1.143-.6521 2.149-1.8146 2.515-3.3031.16-.6663.194-1.361.228-2.0556.115-3.1756.08-6.3653-.114-9.5266-.126-.156-.446.1276-.491.3544-.469 2.3107-.823 4.6499-1.052 7.0032-.137 1.4034-.251 2.892-.949 3.9977-.765 1.205-2.046 1.687-3.257 2.0273-6.435 1.8429-13.087 2.0272-19.682 2.1973-6.15.156-12.299.3261-18.437.482-5.1206-.2126-10.3669.7939-15.4532.1134-1.4288-.1984-2.8689-.5103-4.2977-.2551-.1029.0141-.2172.0425-.2972.1417-.0571.0709-.0685.1701-.0914.2694-.1715.7372.1029 1.6728.3772 2.41z"/></g><path d="m146.499 44.6755c-.011-2.6936-.034-5.3871-.057-8.0948-.012-2.5943-.034-5.1744-.046-7.7687-.023-3.1189.08-6.266-.217-9.3565-.057-.6096-.183-1.2334-.171-1.8429.011-.9215-.138-1.6303-.469-2.5093-.423-1.1908-1.029-2.2824-1.715-3.2748-1.485-2.18313-3.623-2.28237-5.852-2.39578-2.343-.12759-4.675-.01417-7.006-.02835-2.606-.01418-5.224-.02835-7.83-.05671-3.177-.02835-6.343-.07088-9.521-.11341-3.177-.04253-6.355-.08506-9.532-.12759-1.589-.01417-3.178-.04253-4.7667-.0567-.3315 0-.6744-.04253-.9944.0567-.2058.05671-.3886.15594-.5944.1843-.7086.08506-1.5201-.14177-2.2174-.31189.0915-2.02723.3772-4.04029.8573-5.99665-.6515 2.01306-1.3945 3.98359-2.2403 5.88324-.0571.12759-.1143.25518-.2172.31189-.1028.0567-.2286.04252-.3314.02835-.2401-.04253-.4915-.07088-.7315-.14177-.5487-.17011-1.1316-.09923-1.7031-.09923-2.4574-.02835-4.9034-.04253-7.3609-.05671-4.8234-.02835-9.6468-.01417-14.4588.02836-5.1664.04252-10.3327-.04253-15.5105-.07089-1.4058-.01417-2.8117-.02835-4.2062-.02835-.6058 0-1.1887-.02835-1.7716.12759-.6058.17012-1.3487.02835-1.966-.01418-.3429-.02835-.7086-.07088-.9829-.34023-.2744-.25518-.4001-.6663-.5258-1.06324-.2515-.82224-.5029-1.64447-.7544-2.46671.0343.964.1143 1.91383.24 2.86365.0343.31188.0572.70883-.1714.86477-.0686.04253-.16.0567-.24.07088-.2744.02835-.5601.11341-.8344.04253-.5258-.12759-1.0516-.08506-1.5888-.08506-5.875 0-11.7271-.02835-17.5792-.05671-3.2804-.01417-11.1671-2.08394-12.2415 3.4449-.1486.7655-.1371 1.5594-.1829 2.3533-.1143 2.3816-.0457 4.7775-.0114 7.1733.0915 7.8963.2743 15.7926.5258 23.6747.0343 1.205.08 2.4242.2057 3.6292.1029.9498.0458 2.1973.6515 2.9345.2058.2552.3544.4962.5372.7939.3658.5813.8687 1.0207 1.4174 1.3326 1.1772.6805 2.5374.8648 3.8404.9357 4.2519.2551 8.4925.4678 12.733.6237 4.2748.1701 8.5381.3261 12.8129.4253s8.5382.1701 12.813.1985c3.8747.0283 7.7495.0425 11.6242.0567h5.9321c2.1374 0 4.7206-.8222 6.6865.4395.983.6237 1.806 1.6303 2.2746 2.8778-.08-1.0065-.0571-2.0273.0686-3.0338 1.5545-.2693 3.1089-.4395 4.6748-.4678.6744-.0142 1.3259.1134 2.0003.0992.7886 0 1.5887-.0141 2.3774-.0141 3.1775-.0284 6.355-.0568 9.5324-.0993 1.966-.0283 3.932-.0567 5.909-.085 4.275-.0567 8.539-.1843 12.813-.3828.766-.0425 1.543-.0709 2.309-.1134 5.887-.2835 11.773-.7088 17.648-1.2901.503-.0567.983-.1134 1.452-.2268.754-.1843 1.463-.5104 2.08-1.1625.754-.7939 1.486-1.6444 1.989-2.6935.811-1.687.605-3.615.594-5.5288zm-3.189 3.6575c-.309.6379-.88 1.2759-1.349 1.7579-.114.1134-.285.2552-.731.3544-.332.0851-.72.1276-1.109.1701-5.635.5529-11.533.9782-17.522 1.2901-.766.0425-1.52.0709-2.286.0992-4.48.1985-8.641.3261-12.733.3828-12.1499.1843-24.117.2835-35.5927.2835-5.1434 0-10.2869-.0142-15.4418-.0567-4.2291-.0425-8.5382-.0992-12.7672-.1985-4.2291-.0992-8.5268-.241-12.7673-.4111s-8.5153-.3828-12.6986-.6379c-.9258-.0426-1.9774-.156-2.7203-.5813-.1829-.1134-.2744-.1984-.2972-.2268-.1372-.2268-.3086-.4962-.5029-.7797-.0115-.1418-.0229-.2977-.0343-.4253-.0229-.2552-.0343-.4962-.0572-.7372-.1029-1.0207-.1371-2.0697-.1829-3.3314-.2629-7.7971-.4457-15.7359-.5257-23.5755l-.0115-1.3326c-.0343-1.9422-.0571-3.771.0343-5.5714.0114-.1985.0114-.4111.0229-.6379.0114-.4395.0228-.8364.0686-1.0633.1028-.482 1.2001-.9781 3.4747-.9781 1.1201 0 2.3202.1134 3.3718.2126.903.0992 1.7602.1701 2.4917.1701 5.2235.0284 10.4584.0425 15.6933.0425h2.9375c3.909 0 7.8181.0142 11.7385.0426l3.7719.0283c2.7546.0284 5.5207.0426 8.2753.0426 1.1544 0 2.3203 0 3.4975-.0142 2.9147-.0284 5.8179-.0425 8.7325-.0425 9.864 0 19.9224.1417 29.6381.2693 7.623.0992 15.522.1985 23.248.241l.377.0142c.686 0 1.349-.0142 2.035-.0142.663-.0142 1.326-.0142 1.977-.0142.96 0 1.761.0142 2.481.0567h.08c2.091.1276 3.063.2552 3.634 1.0916.583.8506.983 1.6303 1.258 2.3817.205.5812.205.7372.205.964-.011.7372.08 1.3751.138 1.8854.011.1418.034.3119.057.4537.205 2.1548.194 4.3664.194 6.7196-.011.7372-.011 1.4744 0 2.2116l.103 15.8209c.011.3545.011.6805.023 1.0066.011 1.1199.034 2.1123-.229 2.6368z" fill="url(#e)"/><g fill="#eb924d"><path d="m10.9521 30.1587 3.4975-.8648-.1486-.4111-3.6233.5387z"/><path d="m142.578 17.2157 4.057.4253v-1.1342l-4.389.241z"/><path d="m142.864 38.8915 4.492 1.0633-.091-.8932-4.824-.5245z"/><path d="m129.73 34.1279c-3.417-2.3674-9.098-1.6444-11.807 1.5453-1.703 2.013-1.794 5.7698 0 7.7687 3.943 4.4089 10.87 2.5234 13.373-2.9204.046-.0567.092-.1134.149-.1559 1.909-2.1407.548-5.699-1.715-6.2377z"/></g><path d="m130.543 32.044c-3.418-2.3675-9.098-1.6445-11.807 1.5452-1.703 2.0131-1.795 5.7698 0 7.7687 3.943 4.4089 10.87 2.5234 13.373-2.9204.045-.0567.091-.1134.148-.1559 1.909-2.1406.549-5.6989-1.714-6.2376z" fill="url(#f)"/><path d="m129.73 33.3906c-3.417-2.3674-9.098-1.6444-11.807 1.5453-1.703 2.013-1.794 5.7698 0 7.7687 3.943 4.4089 10.87 2.5234 13.373-2.9204.046-.0567.092-.1134.149-.1559 1.909-2.1407.548-5.699-1.715-6.2377z" fill="url(#g)"/><path d="m116.735 25.3954c-2.16-1.5027-5.738-1.0349-7.441.9781-1.074 1.2618-1.131 3.6434 0 4.9051 2.492 2.7786 6.858 1.5878 8.435-1.8429.035-.0284.058-.0709.092-.0993 1.2-1.3609.343-3.6008-1.086-3.941z" fill="#eb924d"/><path d="m117.249 24.0907c-2.161-1.5027-5.738-1.0349-7.441.9782-1.075 1.2617-1.132 3.6433 0 4.905 2.492 2.7786 6.858 1.5878 8.435-1.8429.034-.0284.057-.0709.092-.0993 1.2-1.3751.342-3.615-1.086-3.941z" fill="url(#h)"/><path d="m116.735 24.9266c-2.16-1.5027-5.738-1.0349-7.441.9782-1.074 1.2759-1.131 3.6434 0 4.9051 2.492 2.7785 6.858 1.5877 8.435-1.843.035-.0283.058-.0709.092-.0992 1.2-1.361.343-3.6008-1.086-3.9411z" fill="url(#i)"/><path d="m28.7702 39.7694c-2.1602-1.5027-5.7378-1.0349-7.4409.9782-1.0744 1.2617-1.1315 3.6433 0 4.905 2.4918 2.7786 6.858 1.5878 8.4353-1.8429.0343-.0284.0572-.0709.0915-.0992 1.2001-1.361.3429-3.6009-1.0859-3.9411z" fill="#eb924d"/><path d="m29.2839 38.451c-2.1603-1.5027-5.7378-1.0349-7.4409.9782-1.0744 1.2759-1.1316 3.6434 0 4.9051 2.4917 2.7786 6.858 1.5877 8.4353-1.843.0343-.0283.0571-.0709.0914-.0992 1.2002-1.3609.3429-3.6008-1.0858-3.9411z" fill="url(#j)"/><path d="m28.7702 39.3016c-2.1602-1.5027-5.7378-1.0349-7.4409.9782-1.0744 1.2759-1.1315 3.6434 0 4.9051 2.4918 2.7786 6.858 1.5877 8.4353-1.843.0343-.0283.0572-.0709.0915-.0992 1.2001-1.361.3429-3.6008-1.0859-3.9411z" fill="url(#k)"/><path d="m12 17c0-3.3137 2.6863-6 6-6h116c5.523 0 10 4.4772 10 10v23c0 5.5228-4.477 10-10 10h-114c-4.4183 0-8-3.5817-8-8z" fill="#eb924d" opacity=".9"/><path d="m33.4258 28.2656c.0625.25.0781.461.0469.6328-.0313.1719-.0469.3204-.0469.4454-.0313.0468-.0469.0937-.0469.1406.0156.0468.0156.0937 0 .1406 0 .0469-.0078.1016-.0234.1641v.1406.2109.1406c0 .125-.0078.1954-.0235.211v.0469c.0313.1093.0235.2109-.0234.3047.0312.0937.0391.1953.0234.3046-.0156.1094-.0234.2422-.0234.3985l-.0234.3984c0 .1719-.0079.3047-.0235.3985v.2578c-.0156.1406-.0312.2265-.0469.2578.0157.1718.0235.2578.0235.2578.0156 0 .0234.0156.0234.0469.0313.0781.0313.1875 0 .3281-.0156.1406-.0156.2656 0 .375 0 .125-.0078.2031-.0234.2344 0 .0156.0078.039.0234.0703v.2109c.0156.0156.0235.0391.0235.0703-.0157.125-.0235.2422-.0235.3516 0 .0469-.0078.0937-.0234.1406v.1406.2344c.0156 0 .0234.0156.0234.0469-.0156.0937-.0312.1562-.0469.1875v.0937c.0469.2657.0547.4454.0235.5391-.0156.0469-.0235.1328-.0235.2578v.3047c.0157.125.0157.1953 0 .2109v.0469c.0469.1875.0625.3203.0469.3984v.2344c-.0156.125-.0234.211-.0234.2578.0156.0313.0078.0625-.0235.0938.0313.1094.0391.2344.0235.375v.4219.6328.4453c.0156.125.0312.2578.0469.3984.0156.0782.0234.1641.0234.2578 0 .0938.0078.1797.0234.2578.0469.2188.0703.3985.0703.5391v.3985c0 .1874-.0156.3046-.0468.3515-.0157.0469-.0469.1094-.0938.1875-.2031.0469-.3359.0703-.3984.0703-.0469.0157-.1172.0235-.211.0235-.2656-.0157-.5078-.0157-.7265 0-.1875 0-.336 0-.4453 0-.0938.0156-.2032.0156-.3282 0-.125 0-.1953 0-.2109 0-.0156.0156-.0391.0234-.0703.0234-.2188-.0312-.3516-.0469-.3984-.0469-.0313.0157-.0704.0157-.1172 0-.2032-.0625-.3282-.0937-.375-.0937-.0469 0-.0938-.0156-.1407-.0469-.125-.0469-.2031-.0859-.2343-.1172-.0313-.0156-.0703-.0234-.1172-.0234-.1406-.1875-.211-.3438-.211-.4688 0-.0937.0079-.1797.0235-.2578.0312-.0781.039-.1641.0234-.2578.0156-.125.0156-.2187 0-.2813 0-.0624 0-.1093 0-.1406.0156-.0468.0156-.0937 0-.1406 0-.0625 0-.1172 0-.1641v-.3984c-.1406.125-.2422.2109-.3047.2578-.0468.0313-.1015.0703-.164.1172-.1563.0781-.25.1563-.2813.2344-.1562.0937-.2422.1484-.2578.164-.0156.0157-.0391.0313-.0703.0469-.1094.0938-.1797.1484-.2109.1641-.0313 0-.0625.0156-.0938.0469-.125.0624-.2109.1015-.2578.1171-.1094.0782-.2109.1329-.3047.1641-.0625.0469-.1094.0781-.1406.0938-.0156 0-.0469.0078-.0938.0234-.2031.1094-.3359.1797-.3984.2109-.0625.0313-.1172.0625-.1641.0938-.1875.0781-.2812.1172-.2812.1172-.0938.0312-.1641.0547-.211.0703-.0468 0-.0859.0078-.1171.0234-.0782.0625-.1485.1016-.211.1172-.0469 0-.0937.0078-.1406.0234-.0625.0313-.125.0469-.1875.0469-.0469.0156-.1016.0391-.1641.0703-.1562.0469-.25.0703-.2812.0703-.0156.0157-.0391.0235-.0703.0235-.125-.0313-.2032-.0469-.2344-.0469-.0313.0156-.0625.0156-.0938 0-.1093-.0156-.2109-.0469-.3046-.0937-.0938-.0313-.1875-.0704-.2813-.1172-.1406-.0782-.2266-.1172-.2578-.1172-.1094-.0938-.1719-.1328-.1875-.1172 0 0-.0078-.0156-.0234-.0469-.0469-.0469-.1016-.0781-.1641-.0937-.0469-.0313-.1016-.0782-.1641-.1407-.1562-.125-.2343-.1875-.2343-.1875-.0938-.125-.1563-.2109-.1875-.2578-.0782-.0781-.1329-.1406-.1641-.1875-.0156-.0469-.0391-.0859-.0703-.1172-.1094-.1093-.1641-.1718-.1641-.1875 0-.0312-.0078-.0468-.0234-.0468-.1094-.1094-.1719-.1719-.1875-.1875-.0156-.0157-.0391-.0391-.0703-.0703-.0782-.1094-.1328-.1719-.1641-.1876-.0156-.0312-.0391-.0624-.0703-.0937-.0313-.0625-.0703-.125-.1172-.1875s-.1016-.1172-.1641-.1641c0-.0781-.0156-.1406-.0468-.1875-.0157-.0625-.0078-.1172.0234-.164l-.0703-.2578c-.0156-.0938-.0391-.1563-.0703-.1875-.0156-.0313-.0235-.0625-.0235-.0938-.0312-.0625-.0468-.1406-.0468-.2344.0156-.0937.0156-.1797 0-.2578-.0157-.1719-.0157-.2656 0-.2812-.0469-.1875-.086-.3125-.1172-.375-.0156-.1719-.0235-.2657-.0235-.2813.0157-.0156.0235-.0312.0235-.0468 0-.0313-.0078-.0782-.0235-.1407-.0156-.0625-.0234-.1172-.0234-.164.0313-.1407.0313-.211 0-.211-.0156 0-.0156-.0156 0-.0469-.0156-.1718-.0234-.2734-.0234-.3046.0156-.0313.0234-.0625.0234-.0938.0156-.0469.0156-.0859 0-.1172 0-.0468 0-.0937 0-.1406v-.3047l-.0234-.3984c-.0157-.25-.0157-.4297 0-.5391.0156-.125.0234-.25.0234-.375-.0156-.125-.0234-.1953-.0234-.2109.0156-.0313.0234-.0625.0234-.0938-.0156-.1719-.0234-.2578-.0234-.2578.0156-.1562.0156-.2734 0-.3515 0-.0782.0078-.1719.0234-.2813 0-.2187-.0078-.3516-.0234-.3984 0-.0625 0-.125 0-.1875 0-.0782 0-.1485 0-.211.0156-.0625.0234-.1328.0234-.2109v-.5859c0-.1407-.0078-.2422-.0234-.3047-.0157-.0782-.0313-.1563-.0469-.2344 0-.1406 0-.2188 0-.2344.0156-.0312.0234-.0547.0234-.0703-.0312-.1875-.0468-.3125-.0468-.375.0156-.0625.0234-.125.0234-.1875-.0313-.1406-.0469-.2266-.0469-.2578 0-.0313 0-.0625 0-.0938 0-.1875-.0156-.289-.0469-.3047-.0156-.125-.0312-.2187-.0468-.2812 0-.0625-.0078-.1328-.0235-.2109.0157-.0469.0157-.1094 0-.1875-.0156-.0782-.0156-.1407 0-.1875l.2578-.3516c.0782.0156.1407.0156.1875 0 .0469-.0313.1094-.0547.1875-.0703.2188-.0156.3594-.0391.4219-.0703.0625-.0313.1406-.0391.2344-.0235.1875.0469.3437.0547.4687.0235h.1875c.0469 0 .086-.0078.1172-.0235h.1407c.0625-.0156.125-.0156.1875 0 .1875.0313.3046.0469.3515.0469.0625-.0156.125-.0156.1875 0 .1563.0313.2656.0469.3281.0469.1875 0 .3204.0156.3985.0469.0312.0156.0859.0234.164.0234h.2579c.0937-.0156.1875-.0234.2812-.0234.0938-.0157.1875-.0235.2813-.0235.0625.0156.125.0313.1875.0469.0625 0 .125.0156.1875.0469.0468.1562.0703.2344.0703.2344.0156 0 .0234.0078.0234.0234.0938.2031.1406.3672.1406.4922 0 .1094-.0078.2187-.0234.3281 0 .0469-.0078.0937-.0234.1406-.0157.0469-.0235.0938-.0235.1407 0 .0468-.0078.0937-.0234.1406v.1406.2109c.0156.0625.0156.125 0 .1875-.0156.1563-.0235.2344-.0235.2344.0157 0 .0235.0078.0235.0234-.0156.0469-.0313.0938-.0469.1407 0 .0312-.0078.0703-.0234.1172v.2343c.0156.0625 0 .125-.0469.1875.0312.1563.0391.3047.0234.4453v.4219c-.0156.1563-.0234.2578-.0234.3047.0156.0313.0234.0625.0234.0938 0 .0937-.0078.1796-.0234.2578 0 .0781-.0078.1562-.0234.2344v.4453.7734c0 .0625-.0079.1328-.0235.2109 0 .0625.0156.1328.0469.211-.0313.0468-.0469.0937-.0469.1406.0156.0469.0235.0938.0235.1406 0 .0782-.0079.1641-.0235.2578-.0156.0782-.0234.1641-.0234.2578 0 .2032.0078.336.0234.3985.0313.0625.0469.1328.0469.2109.0156.2188.0312.3594.0469.4219.0156.0625.0312.1328.0468.2109.0157.0782.0157.1485 0 .211 0 .0468.0157.0937.0469.1406.1719.0625.2735.1094.3047.1406.0313.0156.0625.0391.0938.0703.2343.0782.3828.1407.4453.1875.0312.0469.0703.0704.1172.0704.0468-.0157.0859 0 .1171.0468.1407-.0468.2266-.0859.2579-.1172.1718-.1093.2656-.164.2812-.164.0313-.0156.0625-.0391.0938-.0703.1406-.1094.2265-.1641.2578-.1641.1718-.1406.2734-.2266.3047-.2578.0312-.0469.0625-.086.0937-.1172.0313-.0312.0625-.0625.0938-.0938.0468-.0312.0859-.0624.1171-.0937.0313-.1406.0313-.2578 0-.3516-.0156-.0937-.0156-.2031 0-.3281 0-.125.0079-.2109.0235-.2578.0156-.0625 0-.1328-.0469-.2109.0156-.1875.0313-.3047.0469-.3516s.0234-.0937.0234-.1406c0-.0781-.0078-.1563-.0234-.2344s-.0078-.1719.0234-.2813c.0313-.1406.0391-.2343.0235-.2812-.0157-.0625-.0235-.1172-.0235-.1641 0-.0625-.0078-.1171-.0234-.164 0-.0469.0156-.0938.0469-.1407-.0157-.0468-.0313-.1015-.0469-.164-.0156-.0781-.0078-.1484.0234-.211.0156-.1562 0-.3046-.0469-.4453 0-.1875 0-.3203 0-.3984.0157-.0781.0079-.1563-.0234-.2344 0-.1093 0-.1719 0-.1875.0156-.0156.0234-.039.0234-.0703-.0312-.125-.0468-.1953-.0468-.2109.0156-.0313.0234-.0625.0234-.0938 0-.1406-.0078-.2344-.0234-.2812-.0157-.0469-.0235-.0938-.0235-.1406 0-.1094-.0156-.211-.0468-.3047-.0469-.2032-.0704-.336-.0704-.3985.0157-.0625.0235-.1328.0235-.2109 0-.1094.0078-.1719.0234-.1875.0156-.0313.0235-.0703.0235-.1172.0156-.0625.0156-.125 0-.1875 0-.0781 0-.1563 0-.2344-.0157-.1406-.0079-.2578.0234-.3515.0156-.125.0312-.2578.0469-.3985.0156-.1406.0703-.2343.164-.2812.0938-.1094.1485-.1719.1641-.1875.0312-.0313.0703-.0547.1172-.0703.0312-.0157.0703-.0313.1172-.0469.0468-.0156.0937-.0391.1406-.0703.125.0312.2344.039.3281.0234.1094-.0156.211-.0078.3047.0235.1719-.0469.2734-.0782.3047-.0938.0312-.0156.0625-.0234.0937-.0234.0313 0 .0704.0078.1172.0234h.1641c.0625 0 .125.0078.1875.0234h.1641c.0468 0 .0937-.0078.1406-.0234s.0937-.0234.1406-.0234c.0781 0 .1641.0156.2578.0468.1094 0 .1719.0078.1875.0235h.0703.1641c.0312-.0157.0625-.0235.0937-.0235.1563 0 .2422.0078.2579.0235h.0937c.0469.0156.0938.0234.1406.0234.0469-.0156.1094-.0234.1875-.0234.0625 0 .125.0078.1875.0234.0625 0 .1094-.0156.1407-.0469.1562.0469.2421.0782.2578.0938.0156.0156.039.0234.0703.0234zm6.539 2.2032c.1407-.1094.2188-.1563.2344-.1407.0156 0 .0235-.0078.0235-.0234.125-.1094.2031-.1797.2343-.2109.0938-.0469.1485-.0782.1641-.0938.0312-.0156.0625-.0312.0937-.0469l.3282-.2343c.0625-.0313.1093-.0704.1406-.1172.0469-.0625.0937-.125.1406-.1875.1719-.0938.2656-.1485.2813-.1641.0625-.0625.1172-.1016.164-.1172.0469-.0156.086-.039.1172-.0703.2031-.1719.3672-.2813.4922-.3281.0625-.0782.1328-.1328.2109-.1641.0782-.0469.1485-.1094.211-.1875.1094-.0312.1875-.0703.2344-.1172.0781-.0625.1328-.1015.164-.1172.0469-.0312.0938-.0546.1406-.0703.1875-.0156.2891-.0234.3047-.0234.125.0156.211.0234.2578.0234.1094.0938.1719.1407.1875.1407.0313 0 .0625.0156.0938.0468.0312.0313.0703.0625.1172.0938.0469.0156.0859.039.1172.0703l.2109.1641c.1406.0781.2109.125.2109.1406 0 0 .0079.0078.0235.0234.0937.0781.164.1328.2109.1641.0469.0312.0781.0703.0938.1172.1093.0468.1953.1093.2578.1875.0781.0625.1562.1328.2344.2109.1718.1094.2812.1797.3281.2109.0469.0313.0859.0625.1172.0938.125.0469.2187.125.2812.2344.0625.1093.1563.1953.2813.2578.125.125.1875.1875.1875.1875.0312.0469.0625.1015.0937.164.0469.0625.086.1172.1172.1641.125.1406.1953.2266.2109.2578.0157.0156.0391.0391.0704.0703.0781.0938.1484.1875.2109.2813.0625.125.1172.2578.1641.3984.0625.1406.1328.2734.2109.3984-.0313.125-.0234.2579.0234.3985l.0235.2578c0 .1094.0078.1875.0234.2344s.0234.0859.0234.1172c.0313.0468.0313.0937 0 .1406-.0156.0469-.0234.1015-.0234.1641.0156.1874.0156.3124 0 .375v.1406.1172c.0156.0468.0156.1015 0 .164-.0312.2032-.0547.3438-.0703.4219 0 .0625.0078.1484.0234.2578 0 .1719-.0156.2969-.0468.375-.0157.0625-.0235.1328-.0235.2109.0156.1876.0235.3047.0235.3516.0156.0313.0234.0625.0234.0938l-.0234.5625c.0156.1562.0156.2343 0 .2343v.0235c.0156.125.0156.1953 0 .2109v.0469.1406c.0156.0469.0234.0938.0234.1406v.211c.0156.0156.0234.0312.0234.0469-.0468.1406-.0703.2187-.0703.2343.0156.0157.0235.0391.0235.0703v.1875c.0156.0469.0234.1016.0234.1641 0 .0781-.0078.1562-.0234.2344v.2344.2578c.0468.2343.0703.4296.0703.5859s.0078.3125.0234.4687v.2344c.0156.0156.0234.0391.0234.0703.0157.1719.0235.3438.0235.5157v.4922c0 .0468.0078.0937.0234.1406.0156.0468.0156.0937 0 .1406s-.0312.0859-.0469.1172c-.0156.0156-.039.0547-.0703.1172-.3125.125-.5078.1953-.5859.2109-.0781.0313-.1719.0313-.2813 0-.0781 0-.1796-.0078-.3046-.0234-.1094 0-.2032.0078-.2813.0234-.1719-.0156-.2891-.0234-.3516-.0234-.0468.0156-.1015.0234-.164.0234h-.3985c-.0781 0-.1562 0-.2343 0-.0625.0156-.125.0156-.1875 0-.1563-.0469-.2422-.0703-.2578-.0703-.0313 0-.0704 0-.1172 0-.0469.0156-.1094.0234-.1875.0234-.1875-.0156-.2969-.0156-.3282 0-.0156.0157-.039.0157-.0703 0-.0312.0313-.0781.0469-.1406.0469s-.1328 0-.2109 0c-.1407.0313-.25.0235-.3282-.0234-.1406-.125-.2421-.211-.3046-.2578 0-.0782-.0079-.1563-.0235-.2344s-.0234-.1641-.0234-.2578l.0469-.3047.0234-.2578c.0156-.0313.0234-.0703.0234-.1172.0157-.0469.0391-.1094.0703-.1875.0157-.0469.0235-.0859.0235-.1172.0156-.0469.0312-.1094.0469-.1875 0-.1875.0078-.3203.0234-.3984.0156-.0938.0234-.1797.0234-.2578-.0156-.2032-.0078-.336.0235-.3985 0-.1719.0078-.2656.0234-.2812-.0156-.1563-.0156-.25 0-.2813.0156-.0312.0234-.0625.0234-.0937 0-.1875 0-.2891 0-.3047.0157-.0156.0235-.0313.0235-.0469-.0313-.1719-.0469-.2656-.0469-.2813.0156-.0156.0234-.0312.0234-.0468 0-.0469-.0078-.0938-.0234-.1406 0-.0626 0-.1329 0-.211v-.3047c-.0156-.1719-.0234-.3047-.0234-.3984-.0313-.1875-.0469-.3125-.0469-.375.0156-.0625.0234-.1172.0234-.1641 0-.2187 0-.3828 0-.4922 0-.125-.0156-.2265-.0468-.3046.0312-.0313.039-.0782.0234-.1407 0-.0625 0-.1172 0-.164.0156-.1563.0078-.2735-.0234-.3516-.0157-.0937-.0079-.1719.0234-.2344-.0156-.1406-.0313-.2422-.0469-.3047 0-.0625-.0312-.1093-.0937-.1406-.1407-.125-.211-.2031-.211-.2344-.2031-.0156-.375.0157-.5156.0938-.1094.1406-.1719.2109-.1875.2109-.1094.1563-.1953.2578-.2578.3047-.0469.0469-.0938.1016-.1406.1641-.125.1562-.2032.25-.2344.2812-.1719.0938-.2969.1719-.375.2344-.0625.0625-.1406.0859-.2344.0703-.0781 0-.1484-.0234-.2109-.0703-.0469-.0625-.1094-.1094-.1875-.1406-.0313-.0781-.0703-.1407-.1172-.1875-.0469-.0469-.0859-.1094-.1172-.1875-.1094-.1563-.1641-.2344-.1641-.2344.0157 0 .0157-.0078 0-.0234-.0781-.1407-.164-.2735-.2578-.3985-.0312.0313-.0468.0703-.0468.1172v.1406.2813.5156c0 .0781-.0079.1641-.0235.2578v.2813.5859c.0156.1875.0235.3828.0235.5859.0312.0782.0468.1641.0468.2579v.2578l.0235.2578v.1641c.0156.0312.0234.0624.0234.0937.0156.1719.0156.2734 0 .3047-.0156.0312-.0234.0625-.0234.0937 0 .0938.0156.2188.0468.375-.0156.0625-.0234.1329-.0234.211.0156.0781.0234.1484.0234.2109.0157.0469.0157.0938 0 .1406v.1407c.0157.1562.0313.2656.0469.3281.0156.0469.0235.0859.0235.1172.0312.2812.0468.4609.0468.539.0157.0469.0157.1016 0 .1641 0 .0469.0078.0937.0235.1406.0312.1563.039.2422.0234.2578v.0703l.0703.3516c-.0156.1563-.0234.2422-.0234.2578.0156.0156.0234.0391.0234.0703-.0469.1719-.0703.2969-.0703.375 0 .0782-.0234.1329-.0703.1641-.1563.0156-.2734.0234-.3516.0234-.0781.0157-.1484.0391-.2109.0704-.2656.0312-.4766.0234-.6328-.0235-.1563-.0312-.2422-.0469-.2578-.0469-.0157.0157-.0391.0235-.0703.0235-.0625 0-.1094-.0078-.1407-.0235-.0312 0-.0781 0-.1406 0-.1875-.0156-.3047-.0234-.3516-.0234-.0312 0-.0703-.0078-.1171-.0234-.0782 0-.1641 0-.2579 0-.0781-.0157-.1562-.0313-.2343-.0469-.1875-.0469-.3594-.0547-.5157-.0235-.1406.0313-.25.0547-.3281.0704-.1094 0-.1797 0-.2109 0-.0156-.0157-.0391-.0157-.0703 0-.0469 0-.0938.0078-.1407.0234-.0312 0-.0781-.0078-.1406-.0234-.125 0-.2265.0156-.3047.0468-.1718-.0625-.2656-.0937-.2812-.0937 0 0-.0078-.0156-.0235-.0469-.0468-.0781-.0859-.1328-.1171-.164-.0157-.0313-.0235-.0704-.0235-.1172.0156-.25.0156-.4297 0-.5391 0-.125.0078-.2422.0235-.3516 0-.1875 0-.3047 0-.3515.0156-.0625.0312-.1172.0468-.1641.0313-.2812.0625-.4609.0938-.5391.0156-.2031.0156-.3359 0-.3984s-.0156-.125 0-.1875c0-.1719.0078-.2656.0234-.2812.0156-.0313.0235-.0625.0235-.0938l-.0235-.3047c0-.0937 0-.1797 0-.2578s-.0156-.1484-.0469-.2109c.0157-.1719.0079-.2891-.0234-.3516-.0156-.0781-.0078-.125.0234-.1406.0157-.1406.0235-.2188.0235-.2344s-.0078-.0391-.0235-.0703c0-.0469 0-.0938 0-.1406.0157-.0469.0235-.086.0235-.1172 0-.0625-.0078-.1094-.0235-.1406-.0156-.0469-.0078-.0938.0235-.1407 0-.1562 0-.2734 0-.3515 0-.0938 0-.1797 0-.2578 0-.0782-.0078-.1485-.0235-.211-.0156-.0625-.0234-.1172-.0234-.164.0156-.2032.0078-.336-.0234-.3985.0156-.0625.0234-.1172.0234-.164 0-.0625.0078-.125.0234-.1875v-.2813-.4922c0-.125-.0078-.2109-.0234-.2578 0-.0625 0-.1172 0-.1641-.0312-.1562-.0469-.2812-.0469-.375 0-.1093 0-.2031 0-.2812.0157-.125.0157-.2031 0-.2344-.0156-.0468 0-.0625.0469-.0468-.0156-.25-.0391-.4219-.0703-.5157-.0156-.0937-.0078-.1797.0234-.2578-.0156-.0312-.0312-.0703-.0468-.1172-.0157-.0469-.0235-.1015-.0235-.164.0156-.1407.0156-.2266 0-.2579-.0156-.0312-.0234-.0624-.0234-.0937 0-.2031 0-.3594 0-.4687-.0156-.1719-.0235-.2813-.0235-.3282.0157-.0625.0235-.125.0235-.1875v-.3515c-.0156-.125-.0235-.2188-.0235-.2813-.0312-.1875-.0468-.3047-.0468-.3515 0-.0469-.0078-.0938-.0235-.1407l-.0234-.3281c-.0156-.1406-.0156-.2969 0-.4688.1406-.1718.2031-.2578.1875-.2578.1875-.0781.3047-.1172.3516-.1172.1875.0157.3046.0157.3515 0 .0469-.0156.1016-.0312.1641-.0468.125 0 .2031-.0078.2344-.0235.0312-.0156.0625-.0234.0937-.0234.0469-.0156.0938-.0156.1406 0 .0625.0156.1094.0078.1407-.0234.2187.0156.375.0234.4687.0234.0938 0 .1797-.0156.2578-.0469.0469-.0156.1094-.0156.1875 0s.1406.0469.1875.0938c.0781-.0313.1485-.0391.211-.0235h.1875c.1718.0313.3125.0469.4218.0469.125-.0156.2344-.0078.3282.0234.0781-.0312.1718-.039.2812-.0234s.2031 0 .2813-.0469l.2812.0703c.1563.1563.2656.2969.3281.4219.0625.1094.0469.2188-.0468.3281-.0313.1407-.0547.2813-.0704.4219-.0156.125-.039.2657-.0703.4219-.0156.1875-.0312.2969-.0468.3281 0 .0313-.0079.0625-.0235.0938-.0156.0781-.0234.1484-.0234.2109.0156.0625.0078.1328-.0235.211zm18.4922 7.6171c.0313.0469.0703.0625.1172.0469s.0938-.0312.1406-.0469c.2188-.0468.3594-.0703.4219-.0703.0625-.0156.1328-.0312.211-.0468.125-.0313.25-.0704.375-.1172.1406-.0625.2812-.1094.4218-.1407.0313-.0156.0703-.0234.1172-.0234.0625-.0156.1094-.0313.1406-.0469.0938-.0625.1641-.1015.211-.1172.0625-.0312.1094-.0625.1406-.0937.1563-.125.2578-.1953.3047-.2109.0469-.0157.0859-.0391.1172-.0704.2187-.0625.3437-.0859.375-.0703.125.0313.1875.1328.1875.3047-.0156.2188-.0235.3594-.0235.4219.0157.0469.0235.1094.0235.1875.0156.125.0234.2422.0234.3516v.3281.1406c.0156.0469.0235.0859.0235.1172 0 .0781-.0157.1641-.0469.2578-.0156.0937-.0235.1797-.0235.2578.0157.25.0157.4844 0 .7031-.0468.2032-.0625.336-.0468.3985.0156.0625.0234.1172.0234.164-.0156.1094-.0312.2032-.0469.2813-.1562.1562-.2734.2422-.3515.2578-.0782 0-.1328.0391-.1641.1172-.0937.0156-.1562.0312-.1875.0469-.0156.0156-.0391.0312-.0703.0468-.1094.0938-.1953.1407-.2578.1407-.0469 0-.0938.0078-.1406.0234l-.2813.1172c-.1719.0625-.2891.0937-.3516.0937s-.125.0313-.1875.0938c-.0625 0-.125.0156-.1875.0469-.0468.0156-.1093.0312-.1875.0468-.1562.0313-.2656.0547-.3281.0704-.1094.0468-.1875.0703-.2344.0703-.0468 0-.1015.0078-.164.0234-.0781.0156-.1641.0234-.2578.0234-.0782.0157-.1641.0313-.2578.0469-.2344.0469-.3985.0625-.4922.0469-.0938 0-.1875.0156-.2813.0469-.125 0-.2265.0078-.3047.0234-.0781.0156-.1562.0234-.2343.0234-.0938 0-.1875-.0078-.2813-.0234-.0781-.0156-.1641-.0312-.2578-.0469-.0625.0313-.1406.0391-.2344.0235-.0781-.0157-.1797-.0391-.3047-.0704-.125-.0156-.2109-.0312-.2578-.0468-.1875 0-.3125-.0078-.375-.0235-.0469-.0156-.1015-.0312-.164-.0468-.0625-.0157-.1172-.0235-.1641-.0235s-.1016-.0078-.1641-.0234c-.1093-.0156-.1875-.0313-.2343-.0469-.0469-.0156-.0938-.0312-.1407-.0469-.1875-.0468-.2968-.0781-.3281-.0937l-.2109-.1641c-.125-.0312-.25-.0781-.375-.1406-.0469-.0312-.0938-.0547-.1407-.0703-.0312-.0156-.0703-.0469-.1171-.0938-.0313-.0468-.0782-.0781-.1407-.0937-.0468-.0156-.0937-.0391-.1406-.0703-.1719-.1094-.2656-.1719-.2812-.1875 0-.0156-.0079-.0313-.0235-.0469-.1094-.0469-.1719-.0781-.1875-.0937 0-.0157-.0156-.0313-.0469-.0469l-.2343-.1407c-.0938-.0937-.1797-.1562-.2578-.1874-.0313-.0782-.0782-.1329-.1407-.1641-.0468-.0469-.0859-.1094-.1172-.1875-.1093-.0938-.1875-.1563-.2343-.1875-.0469-.0313-.086-.0781-.1172-.1406-.0469-.0313-.086-.0625-.1172-.0938-.0156-.0469-.0391-.0859-.0703-.1172-.0625-.0469-.1016-.1328-.1172-.2578-.0938-.0937-.1406-.1562-.1406-.1875 0-.0312-.0078-.0625-.0235-.0937-.0937-.125-.1562-.2032-.1875-.2344-.0937-.1094-.1406-.1719-.1406-.1875s-.0078-.0391-.0234-.0703c-.1094-.2188-.1875-.3516-.2344-.3985 0-.0781-.0078-.1328-.0234-.164-.0157-.0313-.0235-.0703-.0235-.1172-.0781-.1563-.1172-.25-.1172-.2813 0-.0468 0-.0859 0-.1171-.0468-.1563-.0781-.2344-.0937-.2344 0 0 0-.0078 0-.0235-.0781-.2343-.125-.3828-.1406-.4453-.0157-.0781-.0391-.1484-.0704-.2109-.0312-.1563-.0546-.2578-.0703-.3047 0-.0469-.0078-.1094-.0234-.1875 0-.0937-.0078-.1875-.0234-.2813-.0157-.1093-.0235-.1718-.0235-.1874 0-.0313 0-.0782 0-.1407.0156-.0781.0156-.1406 0-.1875-.0156-.0468-.039-.0859-.0703-.1172-.0312-.0468-.0469-.0937-.0469-.1406.0782-.2344.1172-.3828.1172-.4453 0-.0781 0-.1719 0-.2813.0313-.1406.0391-.25.0235-.3281-.0157-.0781-.0157-.1562 0-.2343 0-.0469 0-.0938 0-.1407 0-.0625.0156-.1093.0468-.1406-.0312-.0625-.039-.1094-.0234-.1406.0312-.0469.0547-.0938.0703-.1407 0-.1718 0-.2578 0-.2578.0156-.0156.0234-.039.0234-.0703.0313-.1406.0547-.2578.0704-.3515.0312-.1094.0625-.2032.0937-.2813.0469-.125.0703-.1953.0703-.2109 0-.0313.0078-.0625.0235-.0938.0625-.0937.1015-.1562.1171-.1875.0157-.0312.0313-.0625.0469-.0937.0625-.2344.1328-.4141.211-.5391.0781-.125.1328-.2187.164-.2812.0313-.0625.0625-.1094.0938-.1407 0-.0625.0156-.1093.0468-.1406.0469-.0312.086-.0625.1172-.0937.0782-.1407.1328-.2188.1641-.2344.0781-.1406.1172-.2188.1172-.2344.1406-.1562.2265-.2422.2578-.2578.0312-.0156.0625-.0391.0937-.0703.1094-.125.1563-.1953.1407-.211 0-.0312.0078-.0468.0234-.0468.0469-.0156.0781-.0391.0938-.0703.0312-.0469.0625-.086.0937-.1172.1406-.125.2188-.1953.2344-.211.0156-.0156.039-.0312.0703-.0468.0625-.1094.1016-.1641.1172-.1641.0312 0 .0469-.0156.0469-.0469.1562-.1093.2421-.1719.2578-.1875.0312-.0156.0625-.039.0937-.0703.125-.0937.1953-.1406.211-.1406.0312-.0156.0546-.0313.0703-.0469.1562-.0937.2422-.1562.2578-.1875.1406-.1094.2187-.1641.2344-.1641.0312-.0156.0468-.039.0468-.0703.1875-.0937.2969-.1406.3282-.1406.0312 0 .0625-.0078.0937-.0234.2344-.0938.3828-.1563.4453-.1875.0313-.0156.0625-.0235.0938-.0235.0468-.0156.1093-.0312.1875-.0468.0312-.0157.0625-.0313.0937-.0469.0469-.0156.1016-.0313.1641-.0469.1562-.0469.2344-.0703.2344-.0703 0-.0156.0156-.0234.0468-.0234.1094-.0313.1797-.0547.211-.0704.0312-.0156.0859-.0234.164-.0234.2032-.0156.3907-.0156.5625 0 .1563.0156.2657.0156.3282 0s.1328-.0234.2109-.0234c.0625 0 .1562.0156.2812.0468h.2579c.1562.0469.2343.0704.2343.0704 0-.0157.0157-.0235.0469-.0235.125.0313.1953.0469.2109.0469.0313-.0156.0625-.0156.0938 0 .0625 0 .1172.0156.1641.0469.0625.0312.1328.0312.2109 0 .1719.0781.2812.125.3281.1406.0625.0156.1328.0313.211.0469.1562.0625.2656.1094.3281.1406.0781.0156.1484.0469.2109.0938.0938-.0313.1797.0078.2578.1171.1563.0938.2422.1407.2578.1407.0157 0 .0313.0078.0469.0234.0781.0781.1406.1328.1875.1641.0469.0312.086.0703.1172.1171.0781.1094.125.1719.1406.1876.0157 0 .0313.0078.0469.0234.0469.0469.0938.0937.1406.1406.0625.0469.1094.1016.1407.1641.125.125.1875.1875.1875.1875.0625.0625.1093.1172.1406.164.0469.0313.0859.0704.1172.1172.125.125.1875.2032.1875.2344 0 .0156.0078.0391.0234.0703.125.2031.1953.3125.2109.3281.0625.1094.1172.1875.1641.2344.0313.0469.0547.0938.0703.1406.0156.0469.0391.0938.0703.1407-.0156.0468-.0156.0937 0 .1406.0313.0469.0625.0859.0938.1172.0312.0625.0547.1484.0703.2578.0156.0937.0391.1797.0703.2578.0313.0469.0547.0937.0703.1406.0156.0313.0391.0781.0703.1407.0313.1874.0469.2812.0469.2812 0 .0469.0078.0938.0234.1406.0157.0313.0313.0703.0469.1172.0156.1406.0156.211 0 .211 0 0 .0078.0156.0235.0468l.0703.2578c.0312.125.0468.2344.0468.3282 0 .0468.0079.0937.0235.1406.0156.0312.0234.0703.0234.1172-.0312.1875-.0469.3125-.0469.375.0157.0468.0157.0859 0 .1172-.1406.1406-.2265.2265-.2578.2578-.0156.0312-.039.0547-.0703.0703-.125.0625-.1953.1015-.2109.1172 0 .0156-.0078.0312-.0235.0469-.1718.0781-.2812.1171-.3281.1171-.0312 0-.0625.0157-.0937.0469-.125.0469-.211.086-.2578.1172-.0313.0312-.0625.0625-.0938.0938-.1562.0468-.2344.0859-.2344.1171-.0937.0469-.1718.086-.2343.1172-.0625.0157-.1172.0391-.1641.0703-.1719.0938-.3203.1719-.4453.2344-.1563.0938-.2656.1484-.3281.1641-.0625.0156-.1094.039-.1407.0703-.125.0625-.2031.1016-.2343.1172-.0313.0156-.0625.039-.0938.0703-.1562.1094-.2578.1719-.3047.1875-.0312.0156-.0625.0469-.0937.0937-.0313-.0156-.0782-.0078-.1407.0235-.0625.0312-.1171.0625-.164.0937-.1875.0781-.3125.125-.375.1407-.0469 0-.086.0234-.1172.0703-.0469 0-.0938.0156-.1406.0468-.0313.0157-.0703.0313-.1172.0469s-.1016.0234-.1641.0234c-.0469-.0156-.0937-.0078-.1406.0235-.1406.0937-.2266.1406-.2578.1406-.0313.0313-.0781.0547-.1406.0703-.0469.0156-.0938.0313-.1407.0469-.1406.0781-.2422.1172-.3047.1172-.0468 0-.0859.0156-.1171.0469-.1407.0625-.2188.1015-.2344.1172-.125.0781-.211.1171-.2578.1171-.0469 0-.0938.0157-.1407.0469-.25.0938-.3828.1641-.3984.211 0 .2031.0156.3124.0469.3281.1094.0937.1797.1484.2109.164.0469.0157.0938.0391.1406.0703.0313.0469.0625.0704.0938.0704.0469 0 .0937.0156.1406.0468.0313.0157.0625.0391.0938.0704.0468.0156.0937.0312.1406.0468.0625.0469.1484.0703.2578.0703.0781.0157.1406.0313.1875.0469.0469 0 .1016.0078.1641.0234.125.0313.2187.0469.2812.0469.1875-.0156.3125-.0156.375 0 .0781.0157.1406.0235.1875.0235.0781 0 .1563-.0078.2344-.0235.0781-.0312.1562-.0469.2344-.0469.1875.0157.3047.0157.3515 0 .0625-.0156.125-.0234.1875-.0234zm-.9375-5.9531c-.0312-.0625-.0547-.1172-.0703-.164 0-.0469-.0234-.0782-.0703-.0938-.0781-.1562-.125-.2422-.1406-.2578 0-.0156-.0156-.0313-.0469-.0469-.1406-.125-.2266-.2031-.2578-.2344-.1563-.125-.25-.1953-.2813-.2109-.2187-.1094-.3671-.1641-.4453-.1641-.0625 0-.1484 0-.2578 0-.1719.0782-.2656.1172-.2812.1172-.0157 0-.0313.0078-.0469.0235-.1719.0937-.2734.1484-.3047.164-.0312 0-.0469.0235-.0469.0703-.125.0625-.1953.1016-.2109.1172-.0156 0-.0313 0-.0469 0-.0937.125-.1562.211-.1875.2578-.0156.0313-.0312.0625-.0469.0938-.125.1562-.1953.25-.2109.2812-.0156.0313-.0312.0625-.0469.0938-.0468.2031-.1015.3203-.164.3515-.0469.0313-.0782.086-.0938.1641-.0937.125-.1406.2031-.1406.2344.0156.0156.0156.0312 0 .0469-.0469.1562-.0859.2343-.1172.2343-.0625.25-.0937.3907-.0937.4219.0312.125.0312.2031 0 .2344-.0157.0312-.0079.0547.0234.0703.2031-.0937.3437-.1328.4219-.1172.1562-.0781.2578-.125.3047-.1406.0468-.0156.0859-.0391.1171-.0703.1719-.0938.2657-.1485.2813-.1641.125-.0469.2109-.0781.2578-.0937.0469-.0157.0859-.0313.1172-.0469.1875-.0781.3047-.125.3516-.1406.0625-.0313.1093-.0625.1406-.0938.125-.0781.2109-.1172.2578-.1172.0469-.0156.0937-.039.1406-.0703.0938-.0469.1485-.0703.1641-.0703.0312-.0156.0625-.0313.0937-.0469.0625-.0312.1172-.0468.1641-.0468.0469-.0157.0859-.0391.1172-.0704.1719-.0781.2578-.125.2578-.1406.0156-.0312.0312-.0469.0469-.0469.0937-.1093.1797-.164.2578-.164.0781-.0157.1328-.0547.164-.1172zm22.5703.3281c-.1718-.0468-.2578-.0781-.2578-.0937-.0468.0312-.1093.0312-.1875 0-.0625-.0313-.1172-.0469-.164-.0469-.125-.0156-.2344-.0234-.3282-.0234-.0781 0-.1562 0-.2343 0-.0782 0-.1563.0078-.2344.0234s-.1484.0313-.2109.0469c-.1563.0625-.3204.1172-.4922.164-.1719.0313-.3047.0782-.3985.1407-.1562.1093-.25.1719-.2812.1875-.0156 0-.0391.0156-.0703.0468-.0782.0469-.1328.1016-.1641.1641-.0312.0625-.0859.1094-.1641.1406-.0781.1719-.1171.2579-.1171.2579-.0469.1406-.0782.2421-.0938.3046s-.0469.1172-.0937.1641c-.0313.0781-.0547.1641-.0704.2578 0 .0938-.0156.1875-.0468.2813-.0157.0781-.0313.164-.0469.2578v.3047c-.0156.1875 0 .3671.0469.539.0312.0625.0468.1172.0468.1641 0 .0312.0079.0703.0235.1172.0469.1406.0859.2656.1172.375.0312.0937.0625.1953.0937.3047.125.1406.1875.2187.1875.2343 0 .0157.0078.0313.0235.0469.0312.0313.0625.0703.0937.1172.0469.0469.0859.1016.1172.1641.1094.1093.1797.1796.2109.2109.0313.0313.0625.0625.0938.0937.0469.0157.0859.0547.1172.1172.0781.0157.1484.0391.2109.0704.0625.0156.1484.039.2578.0703.0781.0312.1406.0468.1875.0468.0469-.0156.0938-.0156.1406 0 .0469 0 .0938.0157.1407.0469.0468.0156.1093.0234.1875.0234.1406-.0156.2343-.0312.2812-.0468s.086-.0235.1172-.0235c.0781-.0312.1641-.0547.2578-.0703.0938-.0156.1797-.0312.2578-.0468l.2578-.0704c.1094 0 .1797-.0078.211-.0234.0312-.0156.0625-.0312.0937-.0469.1719-.0156.2813-.039.3282-.0703.0625-.0312.1171-.0547.164-.0703.0625.0781.1016.125.1172.1406.0313 0 .0625.0078.0938.0235.0937.25.1328.4296.1171.539 0 .1094.0079.2266.0235.3516 0 .2187.0078.3516.0234.3984.0313.0469.0313.0938 0 .1406.0313.0313.0469.086.0469.1641 0 .0625.0078.1328.0234.2109.0782.2188.1094.3594.0938.4219 0 .0625.0078.1328.0234.211.0156.1562.0156.25 0 .2812v.0938c.0156.1718.0235.289.0235.3515.0156.0625.0078.1172-.0235.1641.0313.1406.0313.2734 0 .3984.0469.0938.0547.1953.0235.3047-.0313.0938-.0625.1875-.0938.2813-.125.1093-.1875.1797-.1875.2109 0 .0156-.0156.0312-.0469.0469-.1562.0625-.2343.1015-.2343.1172-.0938.0312-.1641.0547-.211.0703-.0469.0312-.1015.0625-.164.0937-.2032.0469-.3282.0781-.375.0938-.0625.0156-.1329.0156-.211 0-.0781 0-.1719.0078-.2812.0234-.1563.0469-.25.0625-.2813.0469-.0156-.0156-.039-.0078-.0703.0234-.1719.0156-.2656.0235-.2812.0235 0 .0156-.0157.0234-.0469.0234-.0938.0156-.1641.0156-.211 0-.0312-.0156-.0703-.0234-.1171-.0234-.0782-.0313-.1563-.0391-.2344-.0235-.0625.0156-.1328.0235-.211.0235l-.4218-.0235c-.1875-.0468-.3203-.0781-.3985-.0937-.0781-.0157-.1562-.0235-.2343-.0235-.0469-.0156-.1016-.0234-.1641-.0234-.0469 0-.0859 0-.1172 0-.125-.0312-.1953-.0469-.2109-.0469-.0157.0157-.0391.0157-.0703 0-.125-.0625-.2188-.0937-.2813-.0937-.0469-.0469-.0937-.0703-.1406-.0703-.0469.0156-.0938.0078-.1406-.0235-.1407-.0468-.2188-.0781-.2344-.0937-.0156 0-.0391 0-.0703 0-.1407-.0938-.2344-.1407-.2813-.1407-.0469-.0156-.1015-.0312-.164-.0468-.2344-.125-.3829-.211-.4454-.2578-.0468-.0625-.1093-.1172-.1875-.1641-.0468-.0156-.0859-.0313-.1171-.0469-.0313-.0312-.0782-.0547-.1407-.0703l-.1875-.1875c-.0781-.0937-.1328-.1484-.164-.164-.0157-.0157-.0391-.0391-.0703-.0704-.0938-.0625-.1797-.1172-.2579-.164-.0625-.0625-.1328-.1094-.2109-.1406-.0312-.1563-.1016-.2735-.2109-.3516-.0782-.0938-.1328-.1484-.1641-.1641-.0156-.0312-.0234-.0625-.0234-.0937-.1407-.125-.211-.1953-.211-.211-.0468-.1093-.1015-.1796-.164-.2109-.0469-.0469-.086-.1094-.1172-.1875-.0313-.0469-.0547-.0938-.0703-.1406 0-.0625-.0157-.125-.0469-.1875-.125-.1563-.1875-.2344-.1875-.2344-.0938-.1406-.1406-.2109-.1406-.2109 0-.0157-.0078-.0313-.0235-.0469-.0625-.0938-.0937-.1563-.0937-.1875 0-.0313-.0078-.0625-.0235-.0938-.0781-.1562-.125-.2422-.1406-.2578 0-.0312-.0078-.0625-.0234-.0937-.0625-.2657-.1016-.4297-.1172-.4922s-.0313-.1172-.0469-.1641c0-.0625-.0234-.125-.0703-.1875l-.0234-.3047c-.0469-.1406-.0782-.2265-.0938-.2578-.0156-.0468-.0312-.0859-.0469-.1172.0469-.1093.0469-.1953 0-.2578-.0468-.0781-.0625-.1718-.0468-.2812 0-.1719-.0078-.2578-.0235-.2578 0-.0157 0-.0391 0-.0704l-.0234-.2812c0-.0469 0-.0938 0-.1406.0156-.0469.0234-.0938.0234-.1406.0157-.0938.0235-.1797.0235-.2579 0-.0937.0078-.1875.0234-.2812 0-.0469 0-.0938 0-.1406.0156-.0469.0234-.086.0234-.1172.0625-.2031.086-.3281.0704-.375-.0157-.0469-.0235-.086-.0235-.1172 0-.0781.0156-.1485.0469-.2109.0312-.0626.0625-.125.0937-.1876.0313-.0781.0547-.164.0704-.2578.0156-.1093.039-.2265.0703-.3515.0312-.0781.0547-.1485.0703-.211.0312-.0781.0625-.1484.0937-.2109.0313-.0938.0469-.1484.0469-.1641.0156-.0312.0313-.0625.0469-.0937.0312-.0625.0625-.125.0937-.1875.0313-.0625.0625-.125.0938-.1875.0625-.1563.1172-.2578.164-.3047.1094-.1719.1563-.2656.1407-.2813 0-.0156.0078-.0312.0234-.0468.0313-.0313.0625-.0625.0938-.0938.0312-.0312.0625-.0625.0937-.0937.125-.1719.2031-.2813.2344-.3281.0312-.0469.0625-.086.0937-.1172.0625-.1094.1016-.1641.1172-.1641.0156-.0156.0313-.0313.0469-.0469l.2109-.2109c.0782-.0938.1328-.1641.1641-.2109.0469-.0157.0859-.0391.1172-.0704.0312-.0312.0625-.0625.0937-.0937l.2578-.2344c.1094-.0937.1641-.1406.1641-.1406 0-.0156.0078-.0313.0234-.0469.1094-.1094.1954-.1797.2579-.2109.0937-.0781.1875-.1328.2812-.1641.1563-.1094.2344-.1562.2344-.1406s.0078.0156.0234 0c.125-.0938.2578-.1719.3985-.2344.1406-.0625.2812-.1328.4218-.2109.0938-.0469.1641-.0703.211-.0703.0468 0 .0859-.0078.1172-.0235.1875-.0625.3046-.0937.3515-.0937.0469-.0156.0938-.0313.1406-.0469.1719-.0469.2735-.0703.3047-.0703.0313-.0156.0782-.0391.1407-.0703l.2812-.0469c.1563-.0156.2344-.0312.2344-.0469.0156-.0156.0312-.0234.0469-.0234.1875-.0469.3281-.0703.4218-.0703.1407-.0156.2188-.0156.2344 0 .0313.0156.0625.0234.0938.0234.1406-.0156.2265-.0234.2578-.0234.0312-.0156.0625-.0235.0937-.0235l.3281.0469c.2344.0313.3985.0469.4922.0469.1094-.0156.2032-.0156.2813 0 .2187.0625.3594.0859.4219.0703s.1171-.0156.164 0c.0625.0312.1094.0625.1406.0938.0469.0312.1016.0624.1641.0937.0313.0156.0703.0313.1172.0469.0469 0 .0937.0156.1406.0468.1875.0938.2891.1563.3047.1876.0313.0156.0625.039.0938.0703.1562 0 .2578.0468.3046.1406l.1407.4922c-.0157.125-.0469.2578-.0938.3984-.0469.125-.0937.25-.1406.375-.0313.0781-.0703.1563-.1172.2344-.0312.0625-.0625.1406-.0937.2344-.0469.125-.086.2109-.1172.2578-.0313.0469-.0547.1015-.0703.164-.0157.0469-.0235.1016-.0235.1641s-.0156.1172-.0469.1641c-.1093.1875-.1953.3281-.2578.4218-.0468.0938-.0781.1953-.0937.3047-.0625.0469-.1094.1172-.1406.211-.0157.0781-.0469.1562-.0938.2343-.0312.0313-.0625.0703-.0937.1172-.0157.0313-.0235.0781-.0235.1407-.0469.0156-.0859.039-.1172.0703-.0156.0156-.0547.0312-.1172.0468zm10.336 9.6094c-.0781-.1875-.1328-.2969-.1641-.3281-.0156-.0469-.0312-.1094-.0469-.1875l.0235-.3047c0-.0625-.0078-.1172-.0235-.1641-.0156-.0625-.0234-.1171-.0234-.164-.0312-.1719-.0625-.2891-.0937-.3516.0156-.0937.0234-.1562.0234-.1875 0-.0469-.0078-.0859-.0234-.1172l-.1407-.2344c-.125.1563-.1797.2344-.164.2344-.125.0782-.1953.1328-.211.1641-.0937.0937-.1484.1406-.164.1406-.0157 0-.0391.0156-.0703.0469-.1094.1562-.1954.2656-.2579.3281-.125.1406-.1875.2109-.1875.2109-.0781.0938-.1484.1563-.2109.1876-.0937.0937-.1484.1562-.1641.1874-.0156.0157-.0468.0391-.0937.0704-.1094.125-.1953.2031-.2578.2343-.1406.1563-.2266.2344-.2578.2344-.0313.0313-.0703.0547-.1172.0703-.0469.0313-.086.0625-.1172.0938-.0469.0156-.1328.0234-.2578.0234-.1563 0-.2656 0-.3281 0-.1875-.0625-.2969-.1094-.3282-.1406-.1406-.0313-.2343-.0547-.2812-.0703-.0469-.0157-.0938-.0235-.1406-.0235-.1407-.1093-.211-.164-.211-.164-.125-.0313-.1953-.0469-.2109-.0469-.0156-.0156-.0313-.0234-.0469-.0234-.1562-.0625-.2578-.1016-.3047-.1172-.0312-.0313-.0859-.0469-.164-.0469-.0938-.0625-.1485-.1016-.1641-.1172 0-.0312-.0078-.0547-.0234-.0703-.0938-.0625-.1719-.1016-.2344-.1172-.0313-.0781-.0781-.125-.1406-.1406-.0625-.0313-.125-.0703-.1875-.1172-.1094-.1094-.1719-.1641-.1875-.1641 0-.0156-.0157-.039-.0469-.0703l-.211-.2109-.1875-.211c-.125-.1718-.2187-.3046-.2812-.3984-.1563-.1875-.2344-.2969-.2344-.3281-.2031-.1875-.3125-.2891-.3281-.3047-.0781-.0781-.1328-.1562-.1641-.2344-.0781-.1094-.1328-.1953-.164-.2578-.0625-.0469-.1016-.1172-.1172-.2109 0-.0938 0-.1875 0-.2813-.0313-.125-.0703-.2422-.1172-.3515-.0469-.1094-.0625-.1875-.0469-.2344s.0156-.1094 0-.1875c.0469-.0781.0781-.1484.0938-.211.0312-.0624.0859-.1093.164-.1406.0625-.1562.1016-.2344.1172-.2344.0781-.1093.1328-.1874.1641-.2343.0625-.1094.1015-.1719.1172-.1875.0312-.0313.0625-.0625.0937-.0938.0313-.0625.0938-.1406.1875-.2344.0625-.0468.1172-.1015.1641-.164l.1875-.1875c.125-.1406.2422-.2656.3515-.375.125-.1406.1875-.2109.1875-.2109.0157 0 .0313-.0079.0469-.0235.1563-.125.2422-.2031.2578-.2344.0313-.0312.0625-.0625.0938-.0937.1406-.0938.2187-.1406.2344-.1406.0156 0 .039-.0078.0703-.0235.1562-.0937.2422-.1484.2578-.164.125-.0782.1953-.1329.2109-.1641.0313-.0312.0625-.0547.0938-.0703.1562-.0938.2656-.1563.3281-.1875.1406-.1094.2109-.1641.2109-.1641.0157 0 .0313-.0078.0469-.0234.1719-.0625.2734-.125.3047-.1875.1562-.0625.2812-.1172.375-.1641.0937-.0625.1953-.1093.3047-.1406.1719-.0781.2812-.1406.3281-.1875.1563-.125.2344-.2031.2344-.2344-.0625-.0468-.1328-.0625-.211-.0468-.0625 0-.1406 0-.2343 0-.1407 0-.2422 0-.3047 0s-.125 0-.1875 0c-.0469 0-.1016.0078-.1641.0234-.0469 0-.1015-.0078-.164-.0234-.2032-.0313-.336-.0391-.3985-.0235-.0469 0-.0937 0-.1406 0l-.3984.0235c-.0938-.0313-.1875-.0469-.2813-.0469-.0469.0156-.1016.0234-.1641.0234-.0625-.0156-.1171-.0234-.164-.0234-.0938 0-.1953.0156-.3047.0469-.1094.0156-.2266.0234-.3516.0234-.0468.0156-.1015.0234-.164.0234-.0469-.0156-.1016-.0234-.1641-.0234-.2344 0-.4219 0-.5625 0-.125-.0156-.25-.0156-.375 0-.1875-.0156-.2891-.0313-.3047-.0469-.0156-.0312-.039-.0625-.0703-.0937-.0781-.1719-.1172-.2657-.1172-.2813.0156-.0312.0235-.0625.0235-.0937.0312-.1563.0468-.25.0468-.2813.0157-.0312.0235-.0625.0235-.0937.0312-.1563.0547-.2344.0703-.2344.0156-.0156.0312-.0391.0469-.0703.0312-.1875.0625-.3203.0937-.3985.0313-.0937.0625-.1796.0938-.2578.0156-.0468.0234-.0859.0234-.1172 0-.0468.0156-.0937.0469-.1406.0625-.1562.0937-.3359.0937-.539.0313-.2032.0703-.3594.1172-.4688.0469-.125.0781-.2344.0938-.3281.0468-.1563.0703-.2657.0703-.3281l.0937-.2813c.1406-.1563.2266-.2734.2578-.3516.0469-.0312.086-.0547.1172-.0703.0469-.0312.0938-.0625.1406-.0937.125-.0469.2344-.0781.3282-.0938.0937 0 .1484-.0078.164-.0234.0313-.0156.0625-.0313.0938-.0469.1719.0156.2812.0156.3281 0 .0625-.0156.1328 0 .2109.0469.1094-.0313.1797-.0391.211-.0235h.1406c.0938.0157.1953.0235.3047.0235h.3516.2578c.1875-.0313.289-.0391.3047-.0235h.0937c.0313.0157.0938.0235.1875.0235.0938-.0156.1484-.0235.1641-.0235h.3047c.1406 0 .2734-.0078.3984-.0234.1094-.0156.1797-.0156.2109 0 .0313.0156.0625.0234.0938.0234h.3047c.1718-.0156.2656-.0156.2812 0h.0703l.2578-.0234c.1094 0 .1797.0078.211.0234.0469.0157.0859.0235.1172.0235.1093-.0156.1718-.0156.1875 0 .0312.0156.0625.0234.0937.0234.3281 0 .5547.0313.6797.0938.25.0781.4063.125.4688.1406.125.0937.1875.1406.1875.1406.0156-.0156.0312-.0156.0468 0 .0938.0938.1641.1485.211.1641.0468 0 .0859.0156.1172.0469l.2109.2109c.1406.1094.2266.1719.2578.1875.1094.125.1953.2187.2578.2813.0781.0624.1328.1093.1641.1406.0312.0156.0625.039.0937.0703.1563.0937.2422.1641.2578.2109.0157.0469.0547.0782.1172.0938.0469.125.0703.2109.0703.2578.0157.0469.0547.0781.1172.0937.0157.0469.0313.0938.0469.1407.0156.0468.0391.1015.0703.164.0469.0782.0625.1406.0469.1875 0 .0313.0078.0625.0234.0938.0157.0781.0313.1406.0469.1875.0313.0312.0547.0625.0703.0937.0625.2344.1094.3985.1406.4922.0313.0781.0625.1563.0938.2344.0312.0625.0469.125.0469.1875.0156.0469.039.1094.0703.1875.0937.25.1562.4453.1875.5859.0469.125.0859.2656.1172.4219.0312.0937.0547.1953.0703.3047.0312.1094.0547.2031.0703.2812.0156.1719.0391.3047.0703.3985l.0703.4219c.0313.125.0547.2421.0703.3515.0313.1094.0469.2266.0469.3516.0625.2187.1172.3672.1641.4453.0156.1406.0312.2266.0468.2578.0313.0781.0469.1406.0469.1875 0 .0313.0078.0625.0235.0937.0625.2032.0859.3282.0703.375 0 .0469.0078.0938.0234.1407.0313.1093.0391.1797.0234.2109v.0469c.0157.0625.0313.1172.0469.1641.0313.0312.0469.0781.0469.1406-.0156.1094-.0156.1875 0 .2344.0312.0468.0547.0937.0703.1406 0 .0937.0078.1562.0234.1875.0157.0156.0313.0469.0469.0937l.0235.3985c.0312.0781.0468.1718.0468.2812 0 .0938.0078.1875.0235.2813.0312.1718.0547.3125.0703.4218.0156.1094.039.211.0703.3047.0156.0625.0234.1172.0234.1641 0 .0312.0157.0625.0469.0937.0625.1407.0938.2344.0938.2813v.1172c0 .0937-.0079.1875-.0235.2812-.0156.0938-.039.1797-.0703.2578-.0469.1719-.0703.2813-.0703.3282-.1406.1093-.2188.1718-.2344.1875-.0156 0-.0547.0078-.1172.0234s-.1718.0391-.3281.0703c-.2031.0313-.3203.0547-.3516.0703-.0312 0-.0625.0078-.0937.0235-.1563 0-.2344 0-.2344 0 0-.0157-.0078-.0235-.0234-.0235-.125.0157-.1953.0235-.211.0235-.0156-.0157-.039-.0235-.0703-.0235-.2187 0-.3515.0078-.3984.0235-.1094 0-.2031.0078-.2813.0234-.0781 0-.1562 0-.2343 0-.1563.0156-.2657.0391-.3282.0703-.1562.0313-.25.0469-.2812.0469-.1875.0312-.3281.039-.4219.0234-.0937 0-.1953.0078-.3047.0235-.1718.0156-.2656.0234-.2812.0234-.0781.0156-.1719.0078-.2813-.0234-.0937-.0313-.1875-.0625-.2812-.0938zm-.3985-3.3281c-.0156-.2188-.0312-.375-.0468-.4688-.0157-.1093-.0313-.1875-.0469-.2343-.0313-.1407-.0469-.2344-.0469-.2813.0156-.0469.0156-.0859 0-.1172-.0469-.2656-.0703-.4453-.0703-.539 0-.0938-.0156-.1875-.0469-.2813-.0312-.125-.0547-.2031-.0703-.2344-.0156-.0468-.0312-.0859-.0469-.1171-.1093-.0938-.1796-.1329-.2109-.1172-.0312.0156-.0547.039-.0703.0703-.1406.0937-.2188.1484-.2344.164-.1406.0782-.2265.1329-.2578.1641-.0781.0625-.125.1016-.1406.1172s-.0391.039-.0703.0703c-.1563.125-.2344.1875-.2344.1875 0-.0156-.0078-.0156-.0234 0-.1563.1094-.25.1875-.2813.2344-.0312.0312-.0703.0625-.1172.0937-.0312.0781-.0703.1407-.1172.1875-.0312.0469-.0625.0938-.0937.1406.0312.0626.0469.1172.0469.1641 0 .0313-.0157.0859-.0469.1641.1094.125.1875.1875.2344.1875.0781.0469.1328.0703.164.0703.0313 0 .0625.0078.0938.0234.0937.0625.1484.1094.164.1406.0157.0157.0313.0235.0469.0235.1406.0625.2266.0937.2578.0937.0469 0 .1016.0078.1641.0235.1094.0312.1875.0547.2344.0703.0625 0 .1093.0078.1406.0234.1719.0938.3125.1563.4219.1875.125.0157.2265.0078.3046-.0234zm11.0857-8.2734c.141-.1094.219-.1563.235-.1407.015 0 .023-.0078.023-.0234.125-.1094.203-.1797.234-.2109.094-.0469.149-.0782.165-.0938.031-.0156.062-.0312.093-.0469l.328-.2343c.063-.0313.11-.0704.141-.1172.047-.0625.094-.125.141-.1875.172-.0938.265-.1485.281-.1641.062-.0625.117-.1016.164-.1172s.086-.039.117-.0703c.203-.1719.367-.2813.492-.3281.063-.0782.133-.1328.211-.1641.078-.0469.149-.1094.211-.1875.11-.0312.188-.0703.235-.1172.078-.0625.132-.1015.164-.1172.047-.0312.093-.0546.14-.0703.188-.0156.289-.0234.305-.0234.125.0156.211.0234.258.0234.109.0938.172.1407.187.1407.032 0 .063.0156.094.0468.031.0313.07.0625.117.0938.047.0156.086.039.117.0703l.211.1641c.141.0781.211.125.211.1406 0 0 .008.0078.024.0234.093.0781.164.1328.211.1641.047.0312.078.0703.093.1172.11.0468.196.1093.258.1875.078.0625.156.1328.235.2109.171.1094.281.1797.328.2109.047.0313.086.0625.117.0938.125.0469.219.125.281.2344.063.1093.156.1953.281.2578.125.125.188.1875.188.1875.031.0469.062.1015.094.164.047.0625.086.1172.117.1641.125.1406.195.2266.211.2578.015.0156.039.0391.07.0703.078.0938.149.1875.211.2813.063.125.117.2578.164.3984.063.1406.133.2734.211.3984-.031.125-.023.2579.023.3985l.024.2578c0 .1094.008.1875.023.2344.016.0469.024.0859.024.1172.031.0468.031.0937 0 .1406-.016.0469-.024.1015-.024.1641.016.1874.016.3124 0 .375v.1406.1172c.016.0468.016.1015 0 .164-.031.2032-.054.3438-.07.4219 0 .0625.008.1484.023.2578 0 .1719-.015.2969-.046.375-.016.0625-.024.1328-.024.2109.016.1876.024.3047.024.3516.015.0313.023.0625.023.0938l-.023.5625c.015.1562.015.2343 0 .2343v.0235c.015.125.015.1953 0 .2109v.0469.1406c.015.0469.023.0938.023.1406v.211c.016.0156.023.0312.023.0469-.046.1406-.07.2187-.07.2343.016.0157.024.0391.024.0703v.1875c.015.0469.023.1016.023.1641 0 .0781-.008.1562-.023.2344v.2344.2578c.046.2343.07.4296.07.5859s.008.3125.023.4687v.2344c.016.0156.024.0391.024.0703.015.1719.023.3438.023.5157v.4922c0 .0468.008.0937.024.1406.015.0468.015.0937 0 .1406-.016.0469-.032.0859-.047.1172-.016.0156-.039.0547-.071.1172-.312.125-.507.1953-.585.2109-.079.0313-.172.0313-.282 0-.078 0-.179-.0078-.304-.0234-.11 0-.204.0078-.282.0234-.172-.0156-.289-.0234-.351-.0234-.047.0156-.102.0234-.164.0234h-.399c-.078 0-.156 0-.234 0-.063.0156-.125.0156-.188 0-.156-.0469-.242-.0703-.257-.0703-.032 0-.071 0-.118 0-.046.0156-.109.0234-.187.0234-.188-.0156-.297-.0156-.328 0-.016.0157-.039.0157-.071 0-.031.0313-.078.0469-.14.0469-.063 0-.133 0-.211 0-.141.0313-.25.0235-.328-.0234-.141-.125-.242-.211-.305-.2578 0-.0782-.008-.1563-.023-.2344-.016-.0781-.024-.1641-.024-.2578l.047-.3047.024-.2578c.015-.0313.023-.0703.023-.1172.016-.0469.039-.1094.07-.1875.016-.0469.024-.0859.024-.1172.015-.0469.031-.1094.047-.1875 0-.1875.007-.3203.023-.3984.016-.0938.023-.1797.023-.2578-.015-.2032-.007-.336.024-.3985 0-.1719.008-.2656.023-.2812-.015-.1563-.015-.25 0-.2813.016-.0312.024-.0625.024-.0937 0-.1875 0-.2891 0-.3047.015-.0156.023-.0313.023-.0469-.031-.1719-.047-.2656-.047-.2813.016-.0156.024-.0312.024-.0468 0-.0469-.008-.0938-.024-.1406 0-.0626 0-.1329 0-.211v-.3047c-.015-.1719-.023-.3047-.023-.3984-.031-.1875-.047-.3125-.047-.375.016-.0625.023-.1172.023-.1641 0-.2187 0-.3828 0-.4922 0-.125-.015-.2265-.046-.3046.031-.0313.039-.0782.023-.1407 0-.0625 0-.1172 0-.164.016-.1563.008-.2735-.023-.3516-.016-.0937-.008-.1719.023-.2344-.016-.1406-.031-.2422-.047-.3047 0-.0625-.031-.1093-.094-.1406-.14-.125-.211-.2031-.211-.2344-.203-.0156-.375.0157-.515.0938-.11.1406-.172.2109-.188.2109-.109.1563-.195.2578-.257.3047-.047.0469-.094.1016-.141.1641-.125.1562-.203.25-.234.2812-.172.0938-.297.1719-.375.2344-.063.0625-.141.0859-.235.0703-.078 0-.148-.0234-.211-.0703-.047-.0625-.109-.1094-.187-.1406-.032-.0781-.071-.1407-.117-.1875-.047-.0469-.086-.1094-.118-.1875-.109-.1563-.164-.2344-.164-.2344.016 0 .016-.0078 0-.0234-.078-.1407-.164-.2735-.258-.3985-.031.0313-.046.0703-.046.1172v.1406.2813.5156c0 .0781-.008.1641-.024.2578v.2813.5859c.016.1875.024.3828.024.5859.031.0782.046.1641.046.2579v.2578l.024.2578v.1641c.016.0312.023.0624.023.0937.016.1719.016.2734 0 .3047-.015.0312-.023.0625-.023.0937 0 .0938.016.2188.047.375-.016.0625-.024.1329-.024.211.016.0781.024.1484.024.2109.015.0469.015.0938 0 .1406v.1407c.015.1562.031.2656.047.3281.015.0469.023.0859.023.1172.031.2812.047.4609.047.539.016.0469.016.1016 0 .1641 0 .0469.008.0937.023.1406.032.1563.039.2422.024.2578v.0703l.07.3516c-.015.1563-.023.2422-.023.2578.015.0156.023.0391.023.0703-.047.1719-.07.2969-.07.375 0 .0782-.024.1329-.07.1641-.157.0156-.274.0234-.352.0234-.078.0157-.148.0391-.211.0704-.266.0312-.477.0234-.633-.0235-.156-.0312-.242-.0469-.2576-.0469-.0156.0157-.0391.0235-.0703.0235-.0625 0-.1094-.0078-.1406-.0235-.0313 0-.0782 0-.1407 0-.1875-.0156-.3046-.0234-.3515-.0234-.0313 0-.0703-.0078-.1172-.0234-.0781 0-.1641 0-.2578 0-.0781-.0157-.1563-.0313-.2344-.0469-.1875-.0469-.3594-.0547-.5156-.0235-.1406.0313-.25.0547-.3281.0704-.1094 0-.1797 0-.211 0-.0156-.0157-.039-.0157-.0703 0-.0469 0-.0937.0078-.1406.0234-.0313 0-.0781-.0078-.1406-.0234-.125 0-.2266.0156-.3047.0468-.1719-.0625-.2657-.0937-.2813-.0937 0 0-.0078-.0156-.0234-.0469-.0469-.0781-.086-.1328-.1172-.164-.0156-.0313-.0234-.0704-.0234-.1172.0156-.25.0156-.4297 0-.5391 0-.125.0078-.2422.0234-.3516 0-.1875 0-.3047 0-.3515.0156-.0625.0312-.1172.0469-.1641.0312-.2812.0625-.4609.0937-.5391.0156-.2031.0156-.3359 0-.3984s-.0156-.125 0-.1875c0-.1719.0078-.2656.0235-.2812.0156-.0313.0234-.0625.0234-.0938l-.0234-.3047c0-.0937 0-.1797 0-.2578s-.0157-.1484-.0469-.2109c.0156-.1719.0078-.2891-.0235-.3516-.0156-.0781-.0078-.125.0235-.1406.0156-.1406.0234-.2188.0234-.2344s-.0078-.0391-.0234-.0703c0-.0469 0-.0938 0-.1406.0156-.0469.0234-.086.0234-.1172 0-.0625-.0078-.1094-.0234-.1406-.0156-.0469-.0078-.0938.0234-.1407 0-.1562 0-.2734 0-.3515 0-.0938 0-.1797 0-.2578 0-.0782-.0078-.1485-.0234-.211s-.0235-.1172-.0235-.164c.0157-.2032.0079-.336-.0234-.3985.0156-.0625.0234-.1172.0234-.164 0-.0625.0079-.125.0235-.1875v-.2813-.4922c0-.125-.0078-.2109-.0235-.2578 0-.0625 0-.1172 0-.1641-.0312-.1562-.0468-.2812-.0468-.375 0-.1093 0-.2031 0-.2812.0156-.125.0156-.2031 0-.2344-.0157-.0468 0-.0625.0468-.0468-.0156-.25-.039-.4219-.0703-.5157-.0156-.0937-.0078-.1797.0235-.2578-.0157-.0312-.0313-.0703-.0469-.1172s-.0234-.1015-.0234-.164c.0156-.1407.0156-.2266 0-.2579-.0157-.0312-.0235-.0624-.0235-.0937 0-.2031 0-.3594 0-.4687-.0156-.1719-.0234-.2813-.0234-.3282.0156-.0625.0234-.125.0234-.1875v-.3515c-.0156-.125-.0234-.2188-.0234-.2813-.0313-.1875-.0469-.3047-.0469-.3515 0-.0469-.0078-.0938-.0234-.1407l-.0235-.3281c-.0156-.1406-.0156-.2969 0-.4688.1407-.1718.2032-.2578.1875-.2578.1875-.0781.3047-.1172.3516-.1172.1875.0157.3047.0157.3516 0 .0468-.0156.1015-.0312.164-.0468.125 0 .2031-.0078.2344-.0235.0312-.0156.0625-.0234.0937-.0234.0469-.0156.0938-.0156.1407 0 .0625.0156.1093.0078.1406-.0234.2187.0156.375.0234.4687.0234.0938 0 .1797-.0156.2579-.0469.0468-.0156.1093-.0156.1875 0 .0781.0156.1406.0469.1875.0938.0781-.0313.1484-.0391.2109-.0235h.1875c.1719.0313.3125.0469.4219.0469.125-.0156.234-.0078.328.0234.078-.0312.172-.039.281-.0234.11.0156.203 0 .282-.0469l.281.0703c.156.1563.265.2969.328.4219.062.1094.047.2188-.047.3281-.031.1407-.055.2813-.07.4219-.016.125-.039.2657-.071.4219-.015.1875-.031.2969-.046.3281 0 .0313-.008.0625-.024.0938-.015.0781-.023.1484-.023.2109.015.0625.008.1328-.024.211zm17.297 11.6015c-.078-.1875-.133-.2969-.164-.3281-.016-.0469-.031-.1094-.047-.1875l.024-.3047c0-.0625-.008-.1172-.024-.1641-.015-.0625-.023-.1171-.023-.164-.031-.1719-.063-.2891-.094-.3516.016-.0937.023-.1562.023-.1875 0-.0469-.007-.0859-.023-.1172l-.141-.2344c-.125.1563-.179.2344-.164.2344-.125.0782-.195.1328-.211.1641-.093.0937-.148.1406-.164.1406-.015 0-.039.0156-.07.0469-.109.1562-.195.2656-.258.3281-.125.1406-.187.2109-.187.2109-.078.0938-.149.1563-.211.1876-.094.0937-.149.1562-.164.1874-.016.0157-.047.0391-.094.0704-.109.125-.195.2031-.258.2343-.14.1563-.226.2344-.258.2344-.031.0313-.07.0547-.117.0703-.047.0313-.086.0625-.117.0938-.047.0156-.133.0234-.258.0234-.156 0-.265 0-.328 0-.187-.0625-.297-.1094-.328-.1406-.141-.0313-.234-.0547-.281-.0703-.047-.0157-.094-.0235-.141-.0235-.141-.1093-.211-.164-.211-.164-.125-.0313-.195-.0469-.211-.0469-.015-.0156-.031-.0234-.047-.0234-.156-.0625-.258-.1016-.304-.1172-.032-.0313-.086-.0469-.164-.0469-.094-.0625-.149-.1016-.165-.1172 0-.0312-.007-.0547-.023-.0703-.094-.0625-.172-.1016-.234-.1172-.032-.0781-.078-.125-.141-.1406-.062-.0313-.125-.0703-.187-.1172-.11-.1094-.172-.1641-.188-.1641 0-.0156-.016-.039-.047-.0703l-.211-.2109-.187-.211c-.125-.1718-.219-.3046-.282-.3984-.156-.1875-.234-.2969-.234-.3281-.203-.1875-.312-.2891-.328-.3047-.078-.0781-.133-.1562-.164-.2344-.078-.1094-.133-.1953-.164-.2578-.063-.0469-.102-.1172-.117-.2109 0-.0938 0-.1875 0-.2813-.032-.125-.071-.2422-.118-.3515-.046-.1094-.062-.1875-.046-.2344.015-.0469.015-.1094 0-.1875.046-.0781.078-.1484.093-.211.032-.0624.086-.1093.164-.1406.063-.1562.102-.2344.118-.2344.078-.1093.132-.1874.164-.2343.062-.1094.101-.1719.117-.1875.031-.0313.062-.0625.094-.0938.031-.0625.093-.1406.187-.2344.063-.0468.117-.1015.164-.164.063-.0625.125-.125.188-.1875.125-.1406.242-.2656.351-.375.125-.1406.188-.2109.188-.2109.015 0 .031-.0079.047-.0235.156-.125.242-.2031.257-.2344.032-.0312.063-.0625.094-.0937.141-.0938.219-.1406.235-.1406.015 0 .039-.0078.07-.0235.156-.0937.242-.1484.258-.164.125-.0782.195-.1329.211-.1641.031-.0312.062-.0547.093-.0703.157-.0938.266-.1563.328-.1875.141-.1094.211-.1641.211-.1641.016 0 .032-.0078.047-.0234.172-.0625.274-.125.305-.1875.156-.0625.281-.1172.375-.1641.094-.0625.195-.1093.305-.1406.172-.0781.281-.1406.328-.1875.156-.125.234-.2031.234-.2344-.062-.0468-.133-.0625-.211-.0468-.062 0-.14 0-.234 0-.141 0-.242 0-.305 0-.062 0-.125 0-.187 0-.047 0-.102.0078-.164.0234-.047 0-.102-.0078-.164-.0234-.204-.0313-.336-.0391-.399-.0235-.047 0-.094 0-.141 0l-.398.0235c-.094-.0313-.187-.0469-.281-.0469-.047.0156-.102.0234-.164.0234-.063-.0156-.117-.0234-.164-.0234-.094 0-.196.0156-.305.0469-.109.0156-.227.0234-.352.0234-.046.0156-.101.0234-.164.0234-.047-.0156-.101-.0234-.164-.0234-.234 0-.422 0-.562 0-.125-.0156-.25-.0156-.375 0-.188-.0156-.289-.0313-.305-.0469-.016-.0312-.039-.0625-.07-.0937-.078-.1719-.117-.2657-.117-.2813.015-.0312.023-.0625.023-.0937.031-.1563.047-.25.047-.2813.016-.0312.023-.0625.023-.0937.032-.1563.055-.2344.071-.2344.015-.0156.031-.0391.047-.0703.031-.1875.062-.3203.093-.3985.032-.0937.063-.1796.094-.2578.016-.0468.023-.0859.023-.1172 0-.0468.016-.0937.047-.1406.063-.1562.094-.3359.094-.539.031-.2032.07-.3594.117-.4688.047-.125.078-.2344.094-.3281.047-.1563.07-.2657.07-.3281l.094-.2813c.141-.1563.227-.2734.258-.3516.047-.0312.086-.0547.117-.0703.047-.0312.094-.0625.141-.0937.125-.0469.234-.0781.328-.0938.094 0 .148-.0078.164-.0234.031-.0156.062-.0313.094-.0469.172.0156.281.0156.328 0 .062-.0156.133 0 .211.0469.109-.0313.179-.0391.211-.0235h.14c.094.0157.196.0235.305.0235h.352.257c.188-.0313.289-.0391.305-.0235h.094c.031.0157.094.0235.187.0235.094-.0156.149-.0235.164-.0235h.305c.141 0 .273-.0078.398-.0234.11-.0156.18-.0156.211 0 .032.0156.063.0234.094.0234h.305c.172-.0156.265-.0156.281 0h.07l.258-.0234c.11 0 .18.0078.211.0234.047.0157.086.0235.117.0235.11-.0156.172-.0156.188 0 .031.0156.062.0234.094.0234.328 0 .554.0313.679.0938.25.0781.407.125.469.1406.125.0937.188.1406.188.1406.015-.0156.031-.0156.046 0 .094.0938.164.1485.211.1641.047 0 .086.0156.118.0469.093.0937.164.164.21.2109.141.1094.227.1719.258.1875.11.125.196.2187.258.2813.078.0624.133.1093.164.1406.031.0156.063.039.094.0703.156.0937.242.1641.258.2109.015.0469.054.0782.117.0938.047.125.07.2109.07.2578.016.0469.055.0781.117.0937.016.0469.032.0938.047.1407.016.0468.039.1015.071.164.046.0782.062.1406.046.1875 0 .0313.008.0625.024.0938.016.0781.031.1406.047.1875.031.0312.054.0625.07.0937.063.2344.109.3985.141.4922.031.0781.062.1563.093.2344.032.0625.047.125.047.1875.016.0469.039.1094.071.1875.093.25.156.4453.187.5859.047.125.086.2656.117.4219.032.0937.055.1953.071.3047.031.1094.054.2031.07.2812.016.1719.039.3047.07.3985l.071.4219c.031.125.054.2421.07.3515.031.1094.047.2266.047.3516.062.2187.117.3672.164.4453.015.1406.031.2266.047.2578.031.0781.047.1406.047.1875 0 .0313.007.0625.023.0937.063.2032.086.3282.07.375 0 .0469.008.0938.024.1407.031.1093.039.1797.023.2109v.0469c.016.0625.031.1172.047.1641.031.0312.047.0781.047.1406-.016.1094-.016.1875 0 .2344.031.0468.055.0937.07.1406 0 .0937.008.1562.024.1875.015.0156.031.0469.047.0937l.023.3985c.031.0781.047.1718.047.2812 0 .0938.008.1875.023.2813.032.1718.055.3125.071.4218.015.1094.039.211.07.3047.016.0625.023.1172.023.1641 0 .0312.016.0625.047.0937.063.1407.094.2344.094.2813v.1172c0 .0937-.008.1875-.023.2812-.016.0938-.039.1797-.071.2578-.047.1719-.07.2813-.07.3282-.141.1093-.219.1718-.234.1875-.016 0-.055.0078-.118.0234-.062.0156-.171.0391-.328.0703-.203.0313-.32.0547-.351.0703-.032 0-.063.0078-.094.0235-.156 0-.234 0-.234 0 0-.0157-.008-.0235-.024-.0235-.125.0157-.195.0235-.211.0235-.015-.0157-.039-.0235-.07-.0235-.219 0-.352.0078-.399.0235-.109 0-.203.0078-.281.0234-.078 0-.156 0-.234 0-.156.0156-.266.0391-.328.0703-.157.0313-.25.0469-.282.0469-.187.0312-.328.039-.421.0234-.094 0-.196.0078-.305.0235-.172.0156-.266.0234-.281.0234-.078.0156-.172.0078-.282-.0234-.093-.0313-.187-.0625-.281-.0938zm-.398-3.3281c-.016-.2188-.032-.375-.047-.4688-.016-.1093-.031-.1875-.047-.2343-.031-.1407-.047-.2344-.047-.2813.016-.0469.016-.0859 0-.1172-.047-.2656-.07-.4453-.07-.539 0-.0938-.016-.1875-.047-.2813-.031-.125-.055-.2031-.07-.2344-.016-.0468-.032-.0859-.047-.1171-.11-.0938-.18-.1329-.211-.1172-.031.0156-.055.039-.071.0703-.14.0937-.218.1484-.234.164-.141.0782-.226.1329-.258.1641-.078.0625-.125.1016-.14.1172-.016.0156-.039.039-.071.0703-.156.125-.234.1875-.234.1875 0-.0156-.008-.0156-.023 0-.157.1094-.25.1875-.282.2344-.031.0312-.07.0625-.117.0937-.031.0781-.07.1407-.117.1875-.031.0469-.063.0938-.094.1406.031.0626.047.1172.047.1641 0 .0313-.016.0859-.047.1641.11.125.188.1875.235.1875.078.0469.132.0703.164.0703.031 0 .062.0078.093.0234.094.0625.149.1094.164.1406.016.0157.032.0235.047.0235.141.0625.227.0937.258.0937.047 0 .102.0078.164.0235.11.0312.188.0547.235.0703.062 0 .109.0078.14.0234.172.0938.313.1563.422.1875.125.0157.227.0078.305-.0234zm11.179-8.9297c.172 0 .289-.0313.352-.0937.125-.0938.203-.1485.234-.1641.032-.0156.063-.0391.094-.0703.156-.1406.266-.2578.328-.3516.125-.125.188-.1953.188-.2109.109-.1094.179-.1797.211-.211.031-.0312.062-.0625.093-.0937.11-.0469.188-.0938.235-.1406.062-.0625.125-.1094.187-.1407.11-.0468.188-.0859.235-.1171.172-.0626.257-.0938.257-.0938.016-.0156.032-.0234.047-.0234.032-.0313.063-.0547.094-.0704.031-.0312.07-.0624.117-.0937.094-.0156.18-.0469.258-.0937.172-.0626.305-.0938.399-.0938.187-.0781.289-.1172.304-.1172.063-.0312.117-.039.164-.0234.047 0 .086-.0078.117-.0235.157.0157.25.0235.282.0235h.398c.078-.0156.141-.0156.188 0 .093.0156.172.0547.234.1172.063.0625.141.0937.234.0937.032.0469.063.0859.094.1172s.055.0781.07.1406c.125.1094.18.1641.165.1641 0 0 .007.0078.023.0234.062.1719.094.2656.094.2813.031.1719.031.3359 0 .4922-.016.0937-.024.25-.024.4687.016.2188-.015.3672-.093.4453.031.1563.031.3203 0 .4922 0 .0781-.008.1563-.024.2344-.016.0625-.023.1328-.023.2109v.2813c.015.0937.023.1875.023.2812 0 .0625-.008.125-.023.1875-.016.0625-.032.1172-.047.1641-.031.1562-.055.2656-.071.3281 0 .0469-.007.0938-.023.1406-.078.2188-.133.3516-.164.3985-.047.0469-.094.0703-.141.0703-.031 0-.07.0078-.117.0234-.172.0625-.273.086-.305.0703-.015-.0156-.046-.039-.093-.0703-.047.0156-.094.0156-.141 0-.047-.0312-.094-.0468-.141-.0468-.281.0156-.453.0312-.515.0468h-.258c-.141.0469-.234.086-.281.1172-.047.0156-.086.0391-.117.0703-.172.0313-.274.0625-.305.0938-.109.0156-.188.0312-.234.0469-.032.0156-.063.0312-.094.0468-.172.0313-.281.0469-.328.0469-.11.0469-.196.1016-.258.1641-.172.0625-.274.1093-.305.1406-.031.0312-.07.0547-.117.0703-.031.0469-.07.0859-.117.1172-.031.0156-.063.0391-.094.0703-.094.0625-.164.1172-.211.1641-.109.0781-.187.1484-.234.2109-.047.0469-.094.0859-.141.1172-.031.0312-.07.0625-.117.0937-.031.0313-.063.0625-.094.0938-.015.0625-.039.1094-.07.1406-.031.0313-.063.0625-.094.0938-.078.1875-.133.3125-.164.375-.031.0468-.047.1093-.047.1875-.062.0625-.109.1406-.14.2343-.016.0782-.04.1719-.071.2813-.015.0781-.031.164-.047.2578-.015.0781-.023.1562-.023.2344.031.2031.031.3359 0 .3984-.016.1563-.024.25-.024.2813.016.0312.024.0625.024.0937-.016.1719-.024.2891-.024.3516.016.0468.024.1015.024.164-.031.2188-.055.3594-.07.4219 0 .0469-.008.0938-.024.1406v.1172c.016.2344.016.3985 0 .4922-.015.0781-.023.1641-.023.2578v.211c.015.0625.023.1328.023.2109 0 .375.031.6641.094.8672.016.125.031.2109.047.2578.015.0469.023.0938.023.1406.031.125.047.2344.047.3282 0 .0937-.008.1562-.023.1874-.016.1094-.024.1954-.024.2579-.078.1406-.117.2265-.117.2578 0 .0312-.008.0625-.023.0937-.032.0469-.079.0938-.141.1406-.063.0313-.109.0704-.141.1172-.109-.0156-.234 0-.375.0469-.109.0313-.187.0391-.234.0235-.047 0-.094.0078-.141.0234-.047 0-.093 0-.14 0-.047.0156-.086.0234-.117.0234-.188.0156-.29.0156-.305 0 0 0-.008 0-.024 0-.171 0-.273-.0078-.304-.0234-.016 0-.032 0-.047 0l-.633.0937c-.234.0157-.398.0235-.492.0235-.078.0156-.156.0078-.235-.0235-.218-.0312-.375-.0625-.468-.0937-.078-.0313-.157-.0469-.235-.0469-.109-.0937-.195-.1641-.257-.2109-.063-.0625-.125-.1172-.188-.1641-.047-.1562-.078-.25-.094-.2812 0-.0313-.008-.0625-.023-.0938-.063-.2187-.094-.3359-.094-.3515 0-.2032 0-.3672 0-.4922.016-.1407.031-.2578.047-.3516.016-.0625.023-.1797.023-.3516.032-.1718.047-.2656.047-.2812 0-.0781 0-.1484 0-.211 0-.0624.008-.1093.024-.1406.031-.2187.047-.3437.047-.375-.016-.125-.024-.1953-.024-.2109.016-.0313.024-.0625.024-.0938 0-.0781-.008-.1718-.024-.2812 0-.1094 0-.2188 0-.3281.031-.1875.039-.2891.024-.3047 0-.0157.007-.0391.023-.0703 0-.0782.008-.1485.023-.211.016-.0625.008-.125-.023-.1875 0-.1719 0-.2656 0-.2812.016-.0313.023-.0625.023-.0938 0-.125 0-.2343 0-.3281.016-.1094.016-.2266 0-.3516 0-.0468-.007-.0937-.023-.1406 0-.0625 0-.125 0-.1875 0-.1406.008-.2656.023-.375.016-.125.016-.25 0-.375-.015-.2031-.031-.3672-.046-.4922 0-.125.007-.25.023-.375-.016-.1562-.023-.2422-.023-.2578-.032-.1094-.047-.1875-.047-.2344.015-.0625.015-.1328 0-.2109 0-.1406-.016-.2188-.047-.2344-.016-.0312-.024-.0625-.024-.0937.016-.1407.016-.2422 0-.3047-.015-.0625-.023-.125-.023-.1875.016-.0625.023-.1094.023-.1406.016-.0469.024-.0938.024-.1407-.016-.1406-.024-.2187-.024-.2343.016-.0157.024-.0313.024-.0469l-.024-.586c0-.1093 0-.1953 0-.2578 0-.0781-.015-.1562-.046-.2343-.016-.0782-.016-.1719 0-.2813.015-.125.015-.2031 0-.2344-.016-.0468-.024-.1015-.024-.164.016-.0782.016-.1563 0-.2344s-.023-.1484-.023-.2109c0-.0469 0-.0938 0-.1407.015-.0625.023-.1172.023-.164 0-.0782-.016-.1563-.047-.2344-.015-.0781-.023-.1562-.023-.2344.062-.2344.101-.375.117-.4218.016-.0626.047-.125.094-.1876.14-.125.211-.1953.211-.2109s.007-.0234.023-.0234c.125-.0157.211-.0157.258 0 .047 0 .078-.0157.094-.0469.047.0312.093.0391.14.0234.063-.0156.117-.0234.164-.0234.25-.0469.532-.0469.844 0 .172.0312.266.0469.281.0469.016-.0157.032-.0235.047-.0235h.281c.047-.0156.094-.0234.141-.0234.109-.0156.18-.0156.211 0 .047 0 .102-.0078.164-.0234.188-.0313.297-.0391.328-.0235.031 0 .071-.0078.117-.0234.032 0 .079.0078.141.0234.063 0 .117-.0156.164-.0469.125.0157.234.0313.328.0469.094 0 .211.0078.352.0235.109.1093.187.164.234.164.047.0469.078.1328.094.2578.047.1407.062.2266.047.2578 0 .0313.008.0626.023.0938 0 .0781.016.1719.047.2812.031.1094.047.2188.047.3282v.2578z" fill="#693821"/></svg>