<svg fill="none" height="70" viewBox="0 0 144 70" width="144" xmlns="http://www.w3.org/2000/svg" xmlns:xlink="http://www.w3.org/1999/xlink"><linearGradient id="a"><stop offset="0" stop-color="#cf5c2b"/><stop offset="1" stop-color="#59173e"/></linearGradient><linearGradient id="b" gradientUnits="userSpaceOnUse" x1="110.416" x2="69.6512" xlink:href="#a" y1="-103.532" y2="-21.3576"/><linearGradient id="c" gradientUnits="userSpaceOnUse" x1="81.9412" x2="42.3221" xlink:href="#a" y1="-30.9254" y2="125.593"/><linearGradient id="d" gradientUnits="userSpaceOnUse" x1="81.5735" x2="30.8557" xlink:href="#a" y1="-25.9304" y2="168.08"/><linearGradient id="e" gradientUnits="userSpaceOnUse" x1="75.73" x2="72.2776" xlink:href="#a" y1="88.1012" y2="44.3019"/><linearGradient id="f" gradientUnits="userSpaceOnUse" x1="121.973" x2="108.967" xlink:href="#a" y1="16.5635" y2="42.6071"/><linearGradient id="g" gradientUnits="userSpaceOnUse" x1="148.799" x2="39.2162" xlink:href="#a" y1="-64.9332" y2="125.532"/><linearGradient id="h" gradientUnits="userSpaceOnUse" x1="109.367" x2="101.164" xlink:href="#a" y1="14.3183" y2="30.745"/><linearGradient id="i" gradientUnits="userSpaceOnUse" x1="126.289" x2="57.1702" xlink:href="#a" y1="-37.0857" y2="83.0493"/><linearGradient id="j" gradientUnits="userSpaceOnUse" x1="27.6454" x2="19.4419" xlink:href="#a" y1="28.6854" y2="45.1122"/><linearGradient id="k" gradientUnits="userSpaceOnUse" x1="44.5671" x2="-24.5521" xlink:href="#a" y1="-22.7184" y2="97.4172"/><path d="m143.896 55.7615c-.074-1.446-.148-2.892-.212-4.338-.064-1.5169-.138-3.048-.202-4.5649-.042-1.0349-.106-2.1406-.127-3.218-.021-.8932.255-2.3675-.106-3.1756-.213-.482-.68-.6237-1.094-.723-.542-.1276-1.083-.2551-1.625-.3827.733-.2269 1.444-.5104 2.145-.8648.16-.0851.319-.1701.425-.3402.096-.156.127-.3686.149-.5529.244-1.9847.085-4.0828.085-6.0959-.011-2.0414-.011-4.097-.022-6.1384-.01-1.9422-.01-3.8985-.021-5.8407 0-.638.202-2.0414-.042-2.6085-.191-.4678-.648-.4395-.998-.4962-.361-.0567-.723-.0567-1.084-.0283-.541.0425-1.072.1559-1.603.2693.701-.2552 1.423-.3827 2.124-.6096.456-.1417.902-.3402 1.327-.6379.255-.1843.531-.3402.68-.6947.063-.1417.085-.326.117-.4961.063-.3544.074-.723.095-1.0916.043-1.0065.074-2.0131.085-3.0338.011-.51034.011-1.02069 0-1.53105 0-.32606-.096-.63794-.117-.97817-.095-1.37512-.509-2.69353-1.168-3.75677-.658-1.04906-1.561-1.81459-2.559-2.169-.372-.12759-.743-.19847-1.126-.22683-44.8957-1.885467-88.8999-1.95635-131.94844.02836-.1699.01417-.35042-.01418-.52032.04253-.1699.07088-.3398.15594-.52032.241-.35042.17012-.70084.34023-1.04064.56706-.65837.42529-1.27426.99235-1.69901 1.78623-.24423.46783-.41413.99236-.63712 1.46018-.11681.241-.26547.42529-.36104.68047-.45661 1.21918-.91322 2.45253-1.550344 3.52994-.615889 1.04905-.7964078 2.72185-.7326951 4.01195.0955691 1.7579.1274251 3.5299.2442321 5.2878.191138 2.7928.010618 5.5856.244232 8.4067.031856.3969.08495.8506.307944 1.1057.159282.1843.371661.2552.573411.3119.65837.1985 1.32735.3828 1.98571.5813-.81764.7088-2.0388.7655-2.474171 1.928-.138044.3827-.159281.808-.180519 1.2333-.074331 1.5027-.180519 2.9913-.254851 4.4798-.031856.6663-.063712 1.3468-.074331 2.013-.021238.638-.053094 1.2618-.106188 1.8997-.106188 1.4885-.392894 3.4165-.053094 4.8767.329182 1.4035 1.645914 1.4602 2.548504 1.8004-.47784.0709-.83888.5954-1.12559 1.12-.13804.2693-.24423.5387-.37165.808-.11681.241-.223.482-.318568.7372-.191138.5103-.35042 1.0349-.467226 1.5878-.074332.3686-.116807.6521-.127426 1.0348-.010618.3403-.021237.6805-.031856 1.0207-.021237.6805-.031856 1.361-.042475 2.0415-.021238 1.3609-.031856 2.7218-.021238 4.0828.010619 1.3184-.2229938 2.5943.191138 3.8843.414133 1.2901 1.125591 2.3959 2.017571 3.1189.72207.5954 1.53972.9073 2.38922.964 43.29275 2.5376 87.30755 2.5092 132.00215-.0142 1.179-.0709 2.315-.6947 3.185-1.7721.415-.5103.786-.964 1.094-1.6161.382-.7797.733-1.5878 1.062-2.41.807-1.9989 1.816-4.2246 1.688-6.5353z" fill="url(#b)"/><path d="m138.989 63.0065c-44.7053 2.5092-88.7095 2.5517-132.00222.0141-1.922 0-3.71657-1.8429-4.43864-4.1537-.31857-1.0349-.38228-2.1548-.33981-3.2606.01062-.1984.02124-.3827.06372-.5812.06371-.2977.1699-.5529.19114-.8648.01061-.1701.03185-.3119.04247-.482.07433-.8789.09557-1.772.14866-2.651.03186-.4961.07433-1.0065.18052-1.4885.11681-.5529.30795-1.0491.63713-1.3893 1.42291-1.4318 4.21565-1.4035 6.28631-1.4602.40352-.0142.77522-.0283 1.11502-.0567.9025-.0709 1.8051-.0992 2.7077-.0992-2.145-.0142-4.27932-.2552-6.39246-.7514-.99817-.2268-1.99633-.5103-2.98388-.8506-.23361-.0708-.48846-.1843-.71145-.326-.30795-.1843-.57342-.4537-.71146-.8506-.11681-.3402-.10619-.7372-.10619-1.0916.01062-.3544-.03186-.723-.01062-1.0774.02124-.7655.09557-1.5027.14866-2.2541.0531-.6096.10619-1.2192.13805-1.8429.07433-1.6303.14866-3.2606.24423-4.8909.03186-.4962.07433-1.0349.32918-1.3751.15928-.2127.36104-.3119.5628-.4111.55217-.2694 1.11497-.4679 1.68838-.5955.29733-.0708.59465-.0708.8495-.1559.30795-.1276.54156-.2126.87074-.2552 3.15382-.4961 6.30752-.9781 9.47192-1.4743.3717-.0567.754-.1134 1.1362-.1701-4.7572-.7656-9.525-1.5595-14.28221-2.325-.21238-.0425-.41413-.0709-.62651-.0992-.19114-.0284-.39289-.0709-.52032-.2552-.01062-.0142-.02124-.0284-.03186-.0425-.09556-.1701-.10618-.3686-.12742-.5813-.21238-3.4307.03186-6.9748-.11681-10.448-.01062-.1985-.05309-1.1625-.09557-2.2683-.05309-1.6019-.13804-3.43068-.1699-3.43068-.20175-3.81347 1.98571-7.10242 4.85278-7.23001 43.03792-1.998879 87.04212-1.927997 131.90622 0 2.878.12759 5.087 3.43071 4.864 7.27254-.075 1.30425.116 2.56595-.128 3.88435-.053.3119-.127.6238-.308.8364-.159.1843-.371.2552-.573.3119-.542.1701-1.083.3544-1.625.5245-.722.2269-1.433.4395-2.166.5529-4.333.6096-8.644 1.2334-12.966 1.8571-.116.0142-.233.0284-.35.0426-.138.0141-.276.0425-.414.0567.35-.0142.69-.0142 1.03-.0142 5.415-.1276 10.842-.241 16.268-.3686.148 0 .318 0 .435.1276.138.1418.17.3828.191.6096.032.3119.032.6096.032.8931-.01.9215-.127 1.8004-.127 2.7361 0 .8222.148 1.6303.148 2.4808-.01 1.2192-.042 2.4384-.074 3.6718-.085 2.7785-.234 5.5997-.457 8.3924-.031.4112-.074.8364-.276 1.1342-.159.2268-.393.3544-.616.4536-.138.0709-.276.1276-.424.1701-3.186 1.2192-6.669.2552-9.939 1.0065-.213.0426-.436.0993-.638.1702-.074.0141-.148.0425-.212.0708.266.0284.531.0426.796.0851 3.579.3402 7.147.8222 10.704 1.4318.414.0709.882.1701 1.126.6238.191.3402.191.8081.191 1.2334v1.4034c0 1.4177 0 2.8353.053 4.253.064 1.8713.149 3.7426.244 5.628.043.9215.085 1.843.138 2.7503.191 3.7993-1.985 7.074-4.831 7.2442z" fill="url(#c)"/><path d="m143.207 23.2958c-.011 1.2192-.043 2.4384-.074 3.6717-1.837.2269-3.632.4112-5.395.6805-.414.0567-.817.1134-1.232.1843-1.518.2127-3.036.4111-4.555.5812-.754.0851-1.518.1702-2.283.2552-.488.0567-.924.3119-1.391.3828-.658.0992-1.381-.1276-2.049-.1843-.744-.0567-1.487-.0851-2.23-.0709-1.487.0284-2.984.1701-4.46.397-2.974.4536-5.904 1.205-8.856 1.8571-4.726 1.049-9.472 1.8571-14.2508 2.3816 2.6016.3403 5.1818.9073 7.7198 1.687-.956.0993-1.911.1985-2.867.2694-3.037.2552-6.0739.3827-9.1109.4536s-6.0846.0709-9.1215.0567c-3.037 0-6.0846-.0141-9.1216.0142-3.0369.0425-6.0739.1276-9.1109.3119-1.5185.0992-3.0369.2126-4.5448.3686-.3823.0425-.7539.085-1.1362.1276-.4566.0567-.9026.2268-1.3698.2977-3.621.567-7.242 1.2759-10.8206 2.2115-5.5642 1.4602-11.1603 2.892-16.8201 3.4024-1.0194.085-2.0494.1701-3.0688.2551-4.8741 1.3043-10.141 1.5736-14.9194 2.3533-1.6247.2694-3.28122.4112-4.93775.4962-.99817-.2268-1.99633-.5103-2.98388-.8506-.23361-.0709-.48846-.1843-.71145-.326-.30795-.1843-.57342-.4537-.71146-.8506-.11681-.3403-.10619-.7372-.10619-1.0916.01062-.3544-.03186-.723-.01062-1.0774.02124-.7656.09557-1.5027.14866-2.2541 4.37494-.482 8.86669-2.169 13.07169-2.9912 5.405-1.0349 10.9161-1.6445 16.3636-2.0556 6.1695-.4537 12.3284.5245 18.4766.5245 5.7023 0 11.3834-.6663 17.0538-1.2759 11.0541-1.1908 22.087-2.4241 33.1196-3.7-2.3995-.0567-4.7993-.1418-7.1992-.2552-3.0582-.1418-6.1164-.3261-9.1746-.5387-.7115-.0425-1.4442-.1701-2.145-.0709-.7327.1134-1.476.1418-2.2087.1276-1.4548-.0284-2.9095-.2694-4.3218-.7372-.8283-.2693-1.6566-.6238-2.4955-.8222-1.4229-.3261-2.8776-.2268-4.3324-.2552-5.405-.0992-10.725-1.9989-16.1299-1.928-1.423.0142-2.8353.1701-4.2476.3402-1.4972.1843-3.0051.3686-4.5129.4253-.669.0284-1.3592.0851-2.007-.1134-.4991-.1559-1.0725-.085-1.5822-.0992-.9132-.0284-1.8264-.0567-2.7396-.0851-1.8264-.0567-3.6529-.085-5.4899-.0992-6.9341-.0425-13.8469.4678-20.781.3969-2.95199-.0283-5.96772-.1134-8.88789-.6804-.01062-.0142-.02123-.0284-.03185-.0426-.09557-.1701-.10619-.3686-.12743-.5812-.21237-3.4307.03186-6.9748-.1168-10.4481-.01062-.1984-.0531-1.1624-.09557-2.2682 3.53605-.4111 7.09334-.5104 10.62944-.8506 6.9234-.6805 13.8468-.9782 20.8021-.9357 13.7726.0851 27.5133 1.2618 41.2434 2.6511 13.7407 1.3892 27.4499 3.1046 41.1899 4.4088 6.945.6522 13.9 1.0633 20.856 1.0633 2.038 0 4.098-.1701 6.158-.3686-.01.9215-.127 1.8004-.127 2.736.032.8932.181 1.7012.17 2.5376zm.223 24.0859c-.053-1.4177-.053-2.8353-.053-4.253-4.386-.6379-8.782-1.29-13.189-1.7011-7.56-.6947-15.163-.5813-22.734-.1702-1.572.0851-3.122.1418-4.683.397-.754.1276-1.508.2552-2.262.3686-3.0265.482-6.0529.8647-9.0898 1.1766-1.1787.1134-2.368.2268-3.5573.3261 3.0688-.0284 6.1376-.0567 9.2065-.0851 3.0686-.0283 6.1376-.0567 9.2066-.085 1.529-.0142 3.069-.0284 4.598-.0426.764-.0141 1.529-.0141 2.304-.0283.319 0 .658.0283.977-.0709.191-.0567.382-.1559.573-.1985.691-.1417 1.455.0426 2.145.0993.765.0567 1.519.1134 2.283.1701 1.519.1276 3.048.2693 4.566.4111 2.4.241 4.79.5104 7.179.7939 2.612.3119 5.203.723 7.805 1.1483-5.904.7513-11.798 1.531-17.713 1.9705-13.613 1.0065-27.2261 2.2682-40.8606 1.8997-13.4434-.3403-26.8549-1.3752-40.3089-1.3043-7.0933.0284-14.176.1843-21.2481.4678-5.2245.1985-10.51263.1702-15.72645.879-.10619.4678-.14866.9923-.18052 1.4885-.05309.879-.07433 1.7721-.14866 2.651 5.80847.3119 11.68063-.2126 17.47853-.2268 7.0827-.0142 14.1654.0709 21.2481.2977 13.4222.4253 26.8337 1.4177 40.2452 1.7295 13.6557.3261 27.2794-.9781 40.9034-1.8996 7.03-.4678 14.102-.482 21.132-.5812h.148c-.095-1.8855-.18-3.7426-.244-5.6281z" fill="url(#d)"/><g fill="#eb924d"><path d="m3.36642 42.5207c-.01061.7089-.01061 1.4319.15929 2.0982-.30795-.1843-.57342-.4537-.71146-.8506-.11681-.3403-.10619-.7372-.10619-1.0916.01062-.3544-.03186-.723-.01062-1.0774.04248-1.3752.23361-2.7219.28671-4.097.07433-1.6303.14866-3.2606.24423-4.8909.03186-.4962.07433-1.0349.32918-1.3751.15928-.2127.36104-.3119.5628-.4112.55217-.2693 1.11497-.4678 1.68838-.5954.26547-.085.5628-.085.81765-.1701.30794-.1276.54156-.2126.87074-.2552 3.15377-.4961 6.30757-.9781 9.47197-1.4743-3.3874.9214-6.7748 1.8146-10.17281 2.736-.65837.1702-1.53972.1702-2.0919.7514-.11681.1134-.21238.2552-.30794.3969-.08496.1276-.15929.2694-.25486.397-.18051.2126-.24423.5529-.32918.8506-.22299.8647-.35042 1.772-.38227 2.6793-.01062.3403-.01062.6947-.04248 1.0349-.01062.0851-.02124.1701-.03185.2552-.01062.0992-.0531.1701-.07434.2693-.1699.6947-.14866 1.4602-.07433 2.169.03186.2552.09557.5104.13805.7656.10618.6096.03185 1.2617.02123 1.8854z"/><path d="m125.655 16.7769c-.191-.0142-.382-.0283-.573-.0425h.913c-.106 0-.223.0283-.34.0425z"/><path d="m128.777 37.8008c.882.1134 1.763.2268 2.644.3119-.212.0425-.435.0992-.637.1701-.679-.1701-1.359-.3403-2.007-.482z"/><path d="m141.753 36.0563c.138-.7372.106-1.5027.053-2.2541-.074-1.3893-.159-2.7927-.234-4.182-.01-.2694-.042-.5671-.201-.7372-.128-.1418-.308-.1418-.468-.1276-1.316.0567-2.623.1134-3.918.1701 1.412-.1701 2.814-.6663 4.088-1.4885.372-.241.754-.5387.892-1.0349.075-.2552.074-.5387.074-.8222-.021-2.1974-.307-4.6499-.509-6.8331-.616-.7797-1.54-.8789-2.389-.9498-3.42-.2835-6.85-.5529-10.258-.8364-.818-.0709-1.731-.1134-2.602-.1701 5.416-.1276 10.842-.241 16.268-.3686.149 0 .319 0 .436.1276.138.1417.169.3827.191.6096.117 1.2475-.106 2.3958-.106 3.6291 0 .8223.148 1.6303.148 2.4809-.053 3.9411-.212 8.0523-.541 12.0642-.032.4111-.075.8364-.276 1.1341-.16.2268-.393.3544-.616.4537-.138.0709-.276.1276-.425.1701.18-.2835.318-.6521.393-1.0349z"/><path d="m2.41009 14.3953c-.02124-.4678-.21237-5.68478-.27609-5.68478-.20175-3.81347 1.98571-7.10242 4.85278-7.23001 43.03792-1.998879 87.04212-1.927997 131.90622 0 2.878.12759 5.087 3.43071 4.864 7.27254-.075 1.30425.116 2.56595-.128 3.88435-.053.3119-.127.6238-.308.8364-.159.1843-.371.2552-.573.3119-.542.1701-1.073.3686-1.614.5245.467-.567 1.009-1.2333 1.221-2.0556.149-.5528.032-1.0348-.106-1.5594-.213-.82221-.255-1.60191-.276-2.46668-.032-1.06324.106-2.58012-.521-3.43071-.478-.63794-1.104-1.19082-1.699-1.58776-1.476-.96401-3.185-1.17665-4.81-1.26171-.085 0-.159-.01418-.244-.01418-2.995-.12759-6-.14176-8.994.26936-.361.04252-.68.18429-1.03.26935-.436.11341-.956-.02835-1.402-.05671-1.019-.07088-2.028-.12759-3.048-.18429-2.028-.09924-4.067-.17012-6.105-.21265-1.53-.02835-3.048-.02835-4.577-.02835-.478 0-.966 0-1.444 0-.924 0-1.848 0-2.782 0-1.285 0-2.57 0-3.855-.01418-.064 0-.127 0-.181 0-2.0383 0-4.0665-.01418-6.1053-.01418-1.0194 0-2.0388 0-3.0476-.01417-.4672 0-.9875.08506-1.4441-.02835-.4673-.11342-.8389-.49618-1.3274-.55289-.446-.0567-.9026.04253-1.338.09924-1.1149.11341-2.2193.25517-3.3236.42529-.4991.07088-1.0513.1843-1.3805.68047-.1168.17012-.2017.38277-.3398.52453-.3079.29771-.7433.09924-1.1043-.07088-.7115-.32606-1.4654-.51035-2.23-.55288-.6902-.04253-1.3698.12759-2.06.07088-.4354-.02835-.8495-.17012-1.2743-.28353-1.6777-.43947-3.4298-.46782-5.1182-.63794-1.253-.12759-2.5167-.21265-3.7803-.26935-4.067-.19847-8.1446-.08506-12.201.14176-2.0388.11341-4.067.25518-6.1058.4253-.9344.07088-1.9644.34023-2.8883.17011-.2654-.04253-.5203-.18429-.7858-.25517-.276-.07089-.5521-.05671-.8388-.05671-1.1256.01418-2.2618.02835-3.3874.02835-1.3168.01418-2.6441 0-3.9715 0-.4459 0-.8813.11342-1.3167.11342-.4035 0-.7964-.11342-1.1999-.11342-.8389.01418-1.6672.22683-2.4423.65212-.2973.17012-.6053.35441-.9345.34024-.5946-.04253-.9981-.79389-1.5397-1.13412-1.2742-.808061-2.591.73718-3.8971.11341-.6477-.31188-1.3061-.26935-1.9963-.26935-.8708-.01418-1.7415-.01418-2.6122-.01418-2.9521.01418-5.9041.15594-8.8348.55288-1.4654.19847-2.92021.46783-4.37498.80806-.70084.17012-1.4123.43947-2.12376.55289-.20175.02835-.36104.02835-.55217.21264-.87074.80806-3.25997 5.33036-1.55035 6.91814.10619.0992.223.1843.35042.2552.18052.0992.37166.1417.5628.2268.19114.0992.43537.0283.63713.0283.48846 0 .97692 0 1.45477-.0141.52032 0 1.04064-.0142 1.5291.1843-1.10435.3118-2.2087.6095-3.31306.9073-.36103.0992-.72207.1984-1.06187.3969-.0531.0425-.11681.0567-.18052.0851-.23362.1134-.40352.4961-.48847.7938-.22299.7797-.08495 1.6303-.18052 2.4384-.1699 1.446.04248 3.0054.14867 4.4372.13804 1.843.30794 3.7001.5097 5.543-.21238-.0425-.41413-.0708-.62651-.0992-.20176-.0284-.41413-.0709-.55218-.2835-.09556-.1701-.10618-.3686-.12742-.5813-.21238-3.459.03186-7.0031-.10619-10.4622z"/><path d="m143.808 55.7612c-.148-2.7928-.276-5.5856-.382-8.3783-.064-1.8855-.053-3.771-.053-5.6565 0-.4253-.011-.8789-.191-1.2333-.244-.4537-.712-.5529-1.126-.6238-3.557-.6096-7.125-1.0916-10.703-1.4318 3.185.8222 6.477 1.8713 9.503 2.9912.595.2269.638.8364.882 1.5878.233.7514.255 1.6019.276 2.41.01.3402.01.6805-.074 1.0065-.181.723-.754 1.12-1.264 1.4602.382.1418.764.2835 1.157.4395.096.0425.191.0709.255.1701.075.0992.106.2694.117.4253.149 1.3468.032 2.7644.042 4.1254.011.8789.011 1.7578.022 2.6368.01.241.074.4678.117.723.063.5103.021 1.0349-.096 1.531-.234 1.0207-.754 1.928-1.423 2.5093-1.157 1.0065-2.602 1.2192-3.982 1.3467-2.304.2269-4.619.1985-6.913.4962-.764.0851-1.518.1843-2.283.2694-1.518.1701-3.047.3119-4.566.4536-2.878.2552-5.766.4537-8.644.5813-6.817.3118-13.645.2835-20.4726.2268-.8177-.0284-1.6459-.0284-2.4636-.0284-.669 0-1.3061.1134-1.9644.0284-1.6035-.2127-3.1963.1701-4.7891.4111-1.8583.2694-3.8546.2977-5.4581-.9782-.5097-.4111-1.0088-.9498-1.6034-.9782-.4885-.0141-.9451.3545-1.3911.638-.8495.5387-1.7839.8364-2.7184.9923-.0212 0-.0318 0-.0531.0142-1.9857.3403-3.8971.156-5.8828-.0283-1.4547-.1276-2.9838.1984-4.3749-.4962-1.0725-.5245-2.1981-1.2759-3.3024-.879-.3929.1418-.7434.4253-1.115.6238-.7221.3828-1.5185.4537-2.2937.5104-.4884.0283-.9769.0567-1.4654.085-2.0281.0851-4.0669.0709-6.0951-.0425-.8495-.0567-1.7203-.0425-2.5485-.3686-.5735-.2268-1.1362-.0851-1.7309-.0283-2.4636.2126-4.9377.2693-7.4119.1559-1.0088-.0425-2.0176-.1134-3.0157-.2127-.4885-.0425-.9982-.1701-1.4867-.1701-.3398 0-.6477.1418-.9875.1418-2.0494-.0142-4.0882-.0567-6.1377-.0851-3.4935-.0425-6.9977-.0992-10.4913-.1417-2.3892.4394-4.3962-.1134-6.76418-.6947-1.94323-.482-4.05637-1.531-4.8634-3.941-.3398-1.0066-.39289-2.1265-.36104-3.2039.01062-.3261.03186-.638 0-.964-.03185-.2977-.10618-.5671-.13804-.8648-.10619-.9782.11681-2.1123.29733-3.0621.09556-.482.21237-.9924.47784-1.361.23361-.3402.5628-.5387.89198-.6804.87074-.3686 1.79457-.4537 2.70779-.5246 1.31672-.0992 2.63342-.2126 3.95022-.3118.2654-.0142.5309-.0426.7964-.0567-.0319-.1702-.0531-.3403-.0531-.5246l.0106-.0709c-.807-.0283-1.6141-.0283-2.42109-.0425-2.08128.0567-4.8634.0425-6.28631 1.4602-.63713.6379-.75394 1.8146-.81765 2.8636-.06371 1.0349-.08495 2.0982-.19114 3.133-.03185.3119-.12742.5671-.19113.8648-.04248.1985-.0531.3828-.06372.5812-.04247 1.12.02124 2.2399.3398 3.2606.71146 2.325 2.50603 4.1537 4.43865 4.1537 43.29279 2.5376 87.29699 2.5093 132.00249-.0141 2.845-.156 5.022-3.4307 4.82-7.23z"/><path d="m10.1211 35.1626c0 .7655.0212 1.5452.0531 2.3108.0106.3827.0318.7655.0531 1.1483.0106.2835 0 .5954.0425.8647.0424.2268.0849.4253.0849.6663.0212.6521.0425 1.3184.0743 1.9705.0425 1.3185.0956 2.6227.1381 3.9411.0637 1.687.1168 3.3598.1805 5.0468.0319.9357.1487 1.7437.5203 2.5376.0744.156.1381.3119.223.4537.1381.241.308.4111.5203.5387.7752.4536 1.6566.6946 2.4954.8648 1.2955.2693 2.6016.3402 3.9078.3969 17.213.808 34.4473 1.6303 51.6709 1.0632 2.1025-.0709 4.2794-.1417 6.2332.9073-.8919-2.1265-3.0476-2.4383-4.874-2.495-19.135-.5813-38.2807-1.2334-57.352-3.3599-.5203-.0567-1.0937-.1417-1.4654-.6521-.2654-.3544-.3716-.8647-.4566-1.3468-.9769-5.2594-1.168-10.7741-.5734-16.1328.0319-.326.1062-.6805.0956-1.0065-.0106-.3403-.0425-.6805-.0425-1.0349-.0106-.7088.0106-1.4318.0637-2.1407-.0743-.1701-.2548-.1701-.3929-.1417-.361.0567-.7221.0992-1.0937.1559.0212.4678 0 .9073-.0425 1.3751-.0106.156.0106.2694.0212.4253.0213.3119-.0212.638-.0318.9357-.0212.4536-.0319.9215-.0425 1.3751 0 .4395-.0106.8931-.0106 1.3326z"/><path d="m77.0717 58.1299c.2124-.723.9239-.8506 1.5079-.8648 4.6404-.1276 9.2702-.241 13.9106-.3686 4.3749-.1134 8.7608-.2268 13.1358-.3544 1.412-.0425 2.92-.0425 4.088 1.0207-.021-.2268-.053-.4537-.074-.6805.499-.1134.976-.2552 1.486-.1984.276.0283.563-.0993.839-.1418.648-.1134 1.306-.1559 1.954-.1985 3.6-.2126 7.21-.2835 10.82-.5245.914-.0567 1.816-.1418 2.729-.2268.903-.0851 1.816-.156 2.708-.3261.128-.0283.244-.0851.372-.0992l.51-.0426c.913-.0992 1.837-.326 2.686-.8505 1.062-.6522 1.996-1.8146 2.336-3.3032.149-.6663.181-1.3609.213-2.0556.106-3.1755.074-6.3652-.107-9.5266-.116-.1559-.414.1276-.456.3545-.436 2.3107-.765 4.6498-.977 7.0031-.128 1.4035-.234 2.892-.881 3.9978-.712 1.205-1.901 1.687-3.027 2.0272-5.978 1.843-12.158 2.0273-18.285 2.1974-5.713.1559-11.426.3261-17.1284.482-4.7572-.2126-9.6313.7939-14.3566.1134-1.3274-.1985-2.6653-.5103-3.9927-.2552-.0955.0142-.2017.0426-.2761.1418-.053.0709-.0637.1701-.0849.2694-.1593.7371.0956 1.6728.3504 2.41z"/></g><path d="m136.102 44.6755c-.011-2.6936-.032-5.3871-.053-8.0948-.011-2.5943-.032-5.1744-.043-7.7687-.021-3.1189.075-6.266-.202-9.3565-.053-.6096-.169-1.2334-.159-1.8429.011-.9215-.127-1.6303-.435-2.5093-.393-1.1908-.956-2.2824-1.593-3.2748-1.38-2.18313-3.366-2.28237-5.437-2.39578-2.177-.12759-4.343-.01417-6.509-.02835-2.421-.01418-4.853-.02835-7.274-.05671-2.952-.02835-5.893-.07088-8.845-.11341s-5.9045-.08506-8.8565-.12759c-1.476-.01417-2.952-.04253-4.428-.0567-.308 0-.6265-.04253-.9239.0567-.1911.05671-.361.15594-.5521.1843-.6584.08506-1.4123-.14177-2.0601-.31189.085-2.02723.3504-4.04029.7964-5.99665-.6052 2.01306-1.2955 3.98359-2.0813 5.88324-.0531.12759-.1061.25518-.2017.31189-.0956.0567-.2124.04252-.308.02835-.2229-.04253-.4566-.07088-.6796-.14177-.5097-.17011-1.0512-.09923-1.5822-.09923-2.283-.02835-4.5554-.04253-6.8385-.05671-4.4811-.02835-8.9622-.01417-13.4327.02836-4.7997.04252-9.5994-.04253-14.4097-.07089-1.3061-.01417-2.6122-.02835-3.9077-.02835-.5628 0-1.1043-.02835-1.6459.12759-.5628.17012-1.253.02835-1.8264-.01418-.3186-.02835-.6584-.07088-.9132-.34023-.2549-.25518-.3717-.6663-.4885-1.06324-.2336-.82224-.4672-1.64447-.7008-2.46671.0318.964.1061 1.91383.223 2.86365.0318.31188.053.70883-.1593.86477-.0637.04253-.1487.0567-.223.07088-.2549.02835-.5203.11341-.7752.04253-.4885-.12759-.9769-.08506-1.476-.08506-5.4581 0-10.8949-.02835-16.3317-.05671-3.0476-.01417-10.3745-2.08394-11.3727 3.4449-.138.7655-.1274 1.5594-.1699 2.3533-.1062 2.3816-.0425 4.7775-.0106 7.1733.0849 7.8963.2548 15.7926.4885 23.6747.0318 1.205.0743 2.4242.1911 3.6292.0956.9498.0425 2.1973.6053 2.9345.1911.2552.3291.4962.499.7939.3398.5812.8071 1.0207 1.3168 1.3326 1.0937.6805 2.3573.8648 3.5679.9357 3.9502.2551 7.8897.4678 11.8293.6237 3.9714.1701 7.9322.3261 11.9036.4253 3.9715.0992 7.9323.1701 11.9037.1985 3.5998.0283 7.1995.0425 10.7993.0567h5.5111c1.9857 0 4.3856-.8223 6.212.4395.9132.6237 1.6778 1.6303 2.1132 2.8778-.0744-1.0066-.0531-2.0273.0637-3.0338 1.4441-.2693 2.8883-.4395 4.343-.4678.6265-.0142 1.2318.1134 1.8583.0992.7327 0 1.476-.0142 2.2087-.0142 2.952-.0283 5.9041-.0567 8.8561-.0992 1.8264-.0283 3.6528-.0567 5.4899-.085 3.9713-.0568 7.9323-.1843 11.9033-.3828.712-.0425 1.434-.0709 2.145-.1134 5.469-.2836 10.938-.7088 16.396-1.2901.467-.0567.913-.1134 1.348-.2268.701-.1843 1.36-.5104 1.933-1.1625.701-.7939 1.38-1.6445 1.848-2.6935.754-1.687.562-3.615.552-5.5288zm-2.963 3.6575c-.287.6379-.818 1.2759-1.253 1.7579-.106.1134-.265.2552-.679.3544-.308.085-.669.1276-1.031.1701-5.235.5529-10.714.9782-16.278 1.2901-.712.0425-1.412.0708-2.124.0992-4.162.1985-8.028.3261-11.8292.3828-11.2877.1843-22.4056.2835-33.0668.2835-4.7785 0-9.5569-.0142-14.346-.0567-3.9289-.0425-7.9322-.0992-11.8612-.1985-3.9289-.0992-7.9216-.241-11.8611-.4111-3.9396-.1701-7.911-.3828-11.7975-.6379-.8601-.0426-1.837-.156-2.5273-.5813-.1699-.1134-.2548-.1984-.276-.2268-.1275-.2268-.2868-.4962-.4673-.7797-.0106-.1418-.0212-.2977-.0318-.4253-.0213-.2552-.0319-.4962-.0531-.7372-.0956-1.0207-.1275-2.0697-.1699-3.3315-.2443-7.797-.4142-15.7358-.4885-23.5754l-.0106-1.3326c-.0319-1.9422-.0531-3.771.0318-5.5714.0107-.1985.0107-.4111.0213-.6379.0106-.4395.0212-.8364.0637-1.0633.0956-.482 1.115-.9781 3.2281-.9781 1.0406 0 2.1556.1134 3.1325.2126.8389.0992 1.6353.1701 2.3149.1701 4.8528.0284 9.7162.0425 14.5796.0425h2.729c3.6317 0 7.2633.0142 10.9055.0426l3.5042.0283c2.5591.0284 5.1289.0426 7.688.0426 1.0725 0 2.1556 0 3.2494-.0142 2.7077-.0284 5.4049-.0425 8.1127-.0425 9.164 0 18.5085.1417 27.5346.2693 7.083.0992 14.42.1985 21.598.241l.351.0142c.637 0 1.253-.0142 1.89-.0142.616-.0142 1.232-.0142 1.837-.0142.892 0 1.635.0142 2.304.0567h.075c1.943.1276 2.846.2552 3.376 1.0916.542.8506.914 1.6303 1.169 2.3817.191.5812.191.7372.191.964-.011.7372.074 1.3751.127 1.8854.011.1418.032.3119.053.4537.191 2.1548.181 4.3664.181 6.7196-.011.7372-.011 1.4744 0 2.2116l.095 15.8209c.011.3544.011.6805.022 1.0066.01 1.1199.031 2.1123-.213 2.6368z" fill="url(#e)"/><g fill="#eb924d"><path d="m10.1728 30.1587 3.2494-.8648-.1381-.4111-3.36613.5387z"/><path d="m132.46 17.2147 3.77.4253v-1.1341l-4.078.241z"/><path d="m132.729 38.8915 4.173 1.0633-.085-.8932-4.481-.5245z"/><path d="m120.524 34.1279c-3.175-2.3674-8.453-1.6444-10.969 1.5453-1.583 2.013-1.667 5.7698 0 7.7687 3.663 4.4089 10.098 2.5234 12.424-2.9204.042-.0567.085-.1134.138-.1559 1.773-2.1407.509-5.699-1.593-6.2377z"/></g><path d="m121.278 32.044c-3.175-2.3675-8.453-1.6445-10.969 1.5452-1.583 2.0131-1.668 5.7698 0 7.7687 3.663 4.4089 10.098 2.5234 12.424-2.9204.042-.0567.084-.1134.138-.1559 1.773-2.1406.509-5.6989-1.593-6.2376z" fill="url(#f)"/><path d="m120.524 33.3906c-3.175-2.3674-8.453-1.6444-10.969 1.5453-1.583 2.013-1.667 5.7698 0 7.7687 3.663 4.4089 10.098 2.5234 12.424-2.9204.042-.0567.085-.1134.138-.1559 1.773-2.1407.509-5.699-1.593-6.2377z" fill="url(#g)"/><path d="m108.451 25.3954c-2.007-1.5027-5.331-1.0349-6.913.9781-.998 1.2618-1.051 3.6434 0 4.9051 2.315 2.7786 6.371 1.5878 7.837-1.8429.032-.0284.053-.0709.085-.0993 1.115-1.3609.318-3.6008-1.009-3.941z" fill="#eb924d"/><path d="m108.928 24.0917c-2.007-1.5028-5.331-1.0349-6.913.9781-.998 1.2617-1.052 3.6434 0 4.9051 2.315 2.7786 6.371 1.5878 7.836-1.8429.032-.0284.054-.0709.085-.0993 1.115-1.3751.319-3.615-1.008-3.941z" fill="url(#h)"/><path d="m108.451 24.9276c-2.007-1.5027-5.331-1.0349-6.913.9782-.998 1.2759-1.051 3.6433 0 4.905 2.315 2.7786 6.371 1.5878 7.837-1.8429.032-.0284.053-.0709.085-.0992 1.115-1.361.318-3.6009-1.009-3.9411z" fill="url(#i)"/><path d="m26.7323 39.7694c-2.007-1.5027-5.3307-1.0349-6.9129.9782-.9981 1.2617-1.0512 3.6433 0 4.905 2.3149 2.7786 6.3713 1.5878 7.8367-1.8429.0319-.0284.0531-.0709.085-.0992 1.1149-1.361.3185-3.6009-1.0088-3.9411z" fill="#eb924d"/><path d="m27.2088 38.451c-2.0069-1.5027-5.3306-1.0349-6.9128.9782-.9982 1.2759-1.0513 3.6434 0 4.9051 2.3149 2.7786 6.3713 1.5877 7.8367-1.843.0318-.0283.0531-.0709.0849-.0992 1.115-1.3609.3186-3.6008-1.0088-3.9411z" fill="url(#j)"/><path d="m26.7323 39.3016c-2.007-1.5027-5.3307-1.0349-6.9129.9782-.9981 1.2759-1.0512 3.6434 0 4.9051 2.3149 2.7786 6.3713 1.5877 7.8367-1.843.0319-.0283.0531-.0709.085-.0992 1.1149-1.361.3185-3.6008-1.0088-3.9411z" fill="url(#k)"/><path d="m10.0898 17c0-3.3137 2.6863-6 6-6h106.9042c5.523 0 10 4.4772 10 10v23c0 5.5228-4.477 10-10 10h-104.9042c-4.4182 0-8-3.5817-8-8z" fill="#eb924d" opacity=".9"/><path d="m46.672 30.4609c-.1719-.0468-.2578-.0781-.2578-.0937-.0469.0312-.1094.0312-.1875 0-.0625-.0313-.1172-.0469-.1641-.0469-.125-.0156-.2344-.0234-.3281-.0234-.0782 0-.1563 0-.2344 0s-.1563.0078-.2344.0234-.1484.0313-.2109.0469c-.1563.0625-.3203.1172-.4922.164-.1719.0313-.3047.0782-.3984.1407-.1563.1093-.25.1719-.2813.1875-.0156 0-.0391.0156-.0703.0468-.0781.0469-.1328.1016-.1641.1641-.0312.0625-.0859.1094-.164.1406-.0782.1719-.1172.2579-.1172.2579-.0469.1406-.0781.2421-.0938.3046-.0156.0625-.0468.1172-.0937.1641-.0313.0781-.0547.1641-.0703.2578 0 .0938-.0157.1875-.0469.2813-.0156.0781-.0313.164-.0469.2578v.3047c-.0156.1875 0 .3671.0469.539.0312.0625.0469.1172.0469.1641 0 .0312.0078.0703.0234.1172.0469.1406.0859.2656.1172.375.0312.0937.0625.1953.0937.3047.125.1406.1875.2187.1875.2343 0 .0157.0079.0313.0235.0469.0312.0313.0625.0703.0937.1172.0469.0469.086.1016.1172.1641.1094.1093.1797.1796.211.2109.0312.0313.0625.0625.0937.0937.0469.0157.0859.0547.1172.1172.0781.0157.1484.0391.2109.0704.0625.0156.1485.039.2578.0703.0782.0312.1407.0468.1875.0468.0469-.0156.0938-.0156.1407 0 .0468 0 .0937.0157.1406.0469.0469.0156.1094.0234.1875.0234.1406-.0156.2344-.0312.2812-.0468.0469-.0156.086-.0235.1172-.0235.0782-.0312.1641-.0547.2578-.0703.0938-.0156.1797-.0312.2579-.0468l.2578-.0704c.1093 0 .1797-.0078.2109-.0234.0313-.0156.0625-.0312.0938-.0469.1718-.0156.2812-.039.3281-.0703.0625-.0312.1172-.0547.164-.0703.0625.0781.1016.125.1172.1406.0313 0 .0625.0078.0938.0235.0937.25.1328.4296.1172.539 0 .1094.0078.2266.0234.3516 0 .2187.0078.3516.0234.3984.0313.0469.0313.0938 0 .1406.0313.0313.0469.086.0469.1641 0 .0625.0078.1328.0235.2109.0781.2188.1093.3594.0937.4219 0 .0625.0078.1328.0234.211.0157.1562.0157.25 0 .2812v.0938c.0157.1718.0235.289.0235.3515.0156.0625.0078.1172-.0235.1641.0313.1406.0313.2734 0 .3984.0469.0938.0547.1953.0235.3047-.0313.0938-.0625.1875-.0938.2813-.125.1093-.1875.1797-.1875.2109 0 .0156-.0156.0312-.0468.0469-.1563.0625-.2344.1015-.2344.1172-.0938.0312-.1641.0547-.211.0703-.0468.0312-.1015.0625-.164.0937-.2031.0469-.3281.0781-.375.0938-.0625.0156-.1328.0156-.211 0-.0781 0-.1718.0078-.2812.0234-.1563.0469-.25.0625-.2813.0469-.0156-.0156-.039-.0078-.0703.0234-.1718.0156-.2656.0235-.2812.0235 0 .0156-.0156.0234-.0469.0234-.0937.0156-.1641.0156-.2109 0-.0313-.0156-.0703-.0234-.1172-.0234-.0781-.0313-.1563-.0391-.2344-.0235-.0625.0156-.1328.0235-.2109.0235l-.4219-.0235c-.1875-.0468-.3203-.0781-.3984-.0937-.0782-.0157-.1563-.0235-.2344-.0235-.0469-.0156-.1016-.0234-.1641-.0234-.0469 0-.0859 0-.1172 0-.125-.0312-.1953-.0469-.2109-.0469-.0156.0157-.0391.0157-.0703 0-.125-.0625-.2188-.0937-.2813-.0937-.0468-.0469-.0937-.0703-.1406-.0703-.0469.0156-.0937.0078-.1406-.0235-.1406-.0468-.2188-.0781-.2344-.0937-.0156 0-.0391 0-.0703 0-.1406-.0938-.2344-.1407-.2813-.1407-.0468-.0156-.1015-.0312-.164-.0468-.2344-.125-.3828-.211-.4453-.2578-.0469-.0625-.1094-.1172-.1875-.1641-.0469-.0156-.086-.0313-.1172-.0469-.0313-.0312-.0781-.0547-.1406-.0703l-.1875-.1875c-.0782-.0937-.1329-.1484-.1641-.164-.0156-.0157-.0391-.0391-.0703-.0704-.0938-.0625-.1797-.1172-.2578-.164-.0625-.0625-.1328-.1094-.211-.1406-.0312-.1563-.1015-.2735-.2109-.3516-.0781-.0938-.1328-.1484-.1641-.1641-.0156-.0312-.0234-.0625-.0234-.0937-.1406-.125-.2109-.1953-.2109-.211-.0469-.1093-.1016-.1796-.1641-.2109-.0469-.0469-.0859-.1094-.1172-.1875-.0312-.0469-.0547-.0938-.0703-.1406 0-.0625-.0156-.125-.0469-.1875-.125-.1563-.1875-.2344-.1875-.2344-.0937-.1406-.1406-.2109-.1406-.2109 0-.0157-.0078-.0313-.0234-.0469-.0625-.0938-.0938-.1563-.0938-.1875 0-.0313-.0078-.0625-.0234-.0938-.0782-.1562-.125-.2422-.1407-.2578 0-.0312-.0078-.0625-.0234-.0937-.0625-.2657-.1016-.4297-.1172-.4922s-.0312-.1172-.0469-.1641c0-.0625-.0234-.125-.0703-.1875l-.0234-.3047c-.0469-.1406-.0781-.2265-.0938-.2578-.0156-.0468-.0312-.0859-.0468-.1172.0468-.1093.0468-.1953 0-.2578-.0469-.0781-.0625-.1718-.0469-.2812 0-.1719-.0078-.2578-.0234-.2578 0-.0157 0-.0391 0-.0704l-.0235-.2812c0-.0469 0-.0938 0-.1406.0156-.0469.0235-.0938.0235-.1406.0156-.0938.0234-.1797.0234-.2579 0-.0937.0078-.1875.0234-.2812 0-.0469 0-.0938 0-.1406.0157-.0469.0235-.086.0235-.1172.0625-.2031.0859-.3281.0703-.375s-.0235-.086-.0235-.1172c0-.0781.0157-.1485.0469-.2109.0313-.0626.0625-.125.0938-.1876.0312-.0781.0547-.164.0703-.2578.0156-.1093.039-.2265.0703-.3515.0312-.0781.0547-.1485.0703-.211.0313-.0781.0625-.1484.0938-.2109.0312-.0938.0468-.1484.0468-.1641.0157-.0312.0313-.0625.0469-.0937.0313-.0625.0625-.125.0938-.1875.0312-.0625.0625-.125.0937-.1875.0625-.1563.1172-.2578.1641-.3047.1093-.1719.1562-.2656.1406-.2813 0-.0156.0078-.0312.0234-.0468.0313-.0313.0625-.0625.0938-.0938.0312-.0312.0625-.0625.0937-.0937.125-.1719.2032-.2813.2344-.3281.0313-.0469.0625-.086.0938-.1172.0625-.1094.1015-.1641.1171-.1641.0157-.0156.0313-.0313.0469-.0469l.211-.2109c.0781-.0938.1328-.1641.164-.2109.0469-.0157.086-.0391.1172-.0704.0313-.0312.0625-.0625.0938-.0937l.2578-.2344c.1093-.0937.164-.1406.164-.1406 0-.0156.0078-.0313.0235-.0469.1093-.1094.1953-.1797.2578-.2109.0937-.0781.1875-.1328.2812-.1641.1563-.1094.2344-.1562.2344-.1406s.0078.0156.0234 0c.125-.0938.2579-.1719.3985-.2344s.2812-.1328.4219-.2109c.0937-.0469.164-.0703.2109-.0703s.0859-.0078.1172-.0235c.1875-.0625.3047-.0937.3515-.0937.0469-.0156.0938-.0313.1407-.0469.1718-.0469.2734-.0703.3047-.0703.0312-.0156.0781-.0391.1406-.0703l.2812-.0469c.1563-.0156.2344-.0312.2344-.0469.0156-.0156.0313-.0234.0469-.0234.1875-.0469.3281-.0703.4219-.0703.1406-.0156.2187-.0156.2343 0 .0313.0156.0625.0234.0938.0234.1406-.0156.2265-.0234.2578-.0234.0312-.0156.0625-.0235.0937-.0235l.3282.0469c.2343.0313.3984.0469.4922.0469.1093-.0156.2031-.0156.2812 0 .2188.0625.3594.0859.4219.0703s.1172-.0156.164 0c.0625.0312.1094.0625.1407.0938.0468.0312.1015.0624.164.0937.0313.0156.0703.0313.1172.0469.0469 0 .0938.0156.1406.0468.1875.0938.2891.1563.3047.1876.0313.0156.0625.039.0938.0703.1562 0 .2578.0468.3047.1406l.1406.4922c-.0156.125-.0469.2578-.0938.3984-.0468.125-.0937.25-.1406.375-.0312.0781-.0703.1563-.1172.2344-.0312.0625-.0625.1406-.0937.2344-.0469.125-.086.2109-.1172.2578-.0313.0469-.0547.1015-.0703.164-.0156.0469-.0235.1016-.0235.1641s-.0156.1172-.0468.1641c-.1094.1875-.1953.3281-.2578.4218-.0469.0938-.0782.1953-.0938.3047-.0625.0469-.1094.1172-.1406.211-.0156.0781-.0469.1562-.0938.2343-.0312.0313-.0625.0703-.0937.1172-.0156.0313-.0235.0781-.0235.1407-.0468.0156-.0859.039-.1171.0703-.0157.0156-.0547.0312-.1172.0468zm10.3359 9.6094c-.0781-.1875-.1328-.2969-.1641-.3281-.0156-.0469-.0312-.1094-.0468-.1875l.0234-.3047c0-.0625-.0078-.1172-.0234-.1641-.0157-.0625-.0235-.1171-.0235-.164-.0312-.1719-.0625-.2891-.0937-.3516.0156-.0937.0234-.1562.0234-.1875 0-.0469-.0078-.0859-.0234-.1172l-.1406-.2344c-.125.1563-.1797.2344-.1641.2344-.125.0782-.1953.1328-.2109.1641-.0938.0937-.1485.1406-.1641.1406s-.0391.0156-.0703.0469c-.1094.1562-.1953.2656-.2578.3281-.125.1406-.1875.2109-.1875.2109-.0782.0938-.1485.1563-.211.1876-.0937.0937-.1484.1562-.164.1874-.0157.0157-.0469.0391-.0938.0704-.1094.125-.1953.2031-.2578.2343-.1406.1563-.2266.2344-.2578.2344-.0313.0313-.0703.0547-.1172.0703-.0469.0313-.0859.0625-.1172.0938-.0469.0156-.1328.0234-.2578.0234-.1562 0-.2656 0-.3281 0-.1875-.0625-.2969-.1094-.3281-.1406-.1407-.0313-.2344-.0547-.2813-.0703-.0469-.0157-.0937-.0235-.1406-.0235-.1406-.1093-.211-.164-.211-.164-.125-.0313-.1953-.0469-.2109-.0469-.0156-.0156-.0312-.0234-.0469-.0234-.1562-.0625-.2578-.1016-.3047-.1172-.0312-.0313-.0859-.0469-.164-.0469-.0938-.0625-.1485-.1016-.1641-.1172 0-.0312-.0078-.0547-.0234-.0703-.0938-.0625-.1719-.1016-.2344-.1172-.0312-.0781-.0781-.125-.1406-.1406-.0625-.0313-.125-.0703-.1875-.1172-.1094-.1094-.1719-.1641-.1875-.1641 0-.0156-.0156-.039-.0469-.0703l-.2109-.2109-.1875-.211c-.125-.1718-.2188-.3046-.2813-.3984-.1562-.1875-.2344-.2969-.2344-.3281-.2031-.1875-.3125-.2891-.3281-.3047-.0781-.0781-.1328-.1562-.164-.2344-.0782-.1094-.1329-.1953-.1641-.2578-.0625-.0469-.1016-.1172-.1172-.2109 0-.0938 0-.1875 0-.2813-.0312-.125-.0703-.2422-.1172-.3515-.0469-.1094-.0625-.1875-.0469-.2344.0157-.0469.0157-.1094 0-.1875.0469-.0781.0782-.1484.0938-.211.0312-.0624.0859-.1093.1641-.1406.0625-.1562.1015-.2344.1171-.2344.0782-.1093.1329-.1874.1641-.2343.0625-.1094.1016-.1719.1172-.1875.0312-.0313.0625-.0625.0937-.0938.0313-.0625.0938-.1406.1875-.2344.0625-.0468.1172-.1015.1641-.164l.1875-.1875c.125-.1406.2422-.2656.3516-.375.125-.1406.1875-.2109.1875-.2109.0156 0 .0312-.0079.0468-.0235.1563-.125.2422-.2031.2579-.2344.0312-.0312.0625-.0625.0937-.0937.1406-.0938.2188-.1406.2344-.1406s.039-.0078.0703-.0235c.1562-.0937.2422-.1484.2578-.164.125-.0782.1953-.1329.2109-.1641.0313-.0312.0625-.0547.0938-.0703.1562-.0938.2656-.1563.3281-.1875.1406-.1094.211-.1641.211-.1641.0156 0 .0312-.0078.0468-.0234.1719-.0625.2735-.125.3047-.1875.1563-.0625.2813-.1172.375-.1641.0938-.0625.1953-.1093.3047-.1406.1719-.0781.2813-.1406.3281-.1875.1563-.125.2344-.2031.2344-.2344-.0625-.0468-.1328-.0625-.2109-.0468-.0625 0-.1407 0-.2344 0-.1406 0-.2422 0-.3047 0s-.125 0-.1875 0c-.0469 0-.1016.0078-.1641.0234-.0468 0-.1015-.0078-.164-.0234-.2031-.0313-.336-.0391-.3985-.0235-.0468 0-.0937 0-.1406 0l-.3984.0235c-.0938-.0313-.1875-.0469-.2813-.0469-.0468.0156-.1015.0234-.164.0234-.0625-.0156-.1172-.0234-.1641-.0234-.0937 0-.1953.0156-.3047.0469-.1094.0156-.2265.0234-.3515.0234-.0469.0156-.1016.0234-.1641.0234-.0469-.0156-.1016-.0234-.1641-.0234-.2343 0-.4218 0-.5625 0-.125-.0156-.25-.0156-.375 0-.1875-.0156-.289-.0313-.3047-.0469-.0156-.0312-.039-.0625-.0703-.0937-.0781-.1719-.1172-.2657-.1172-.2813.0157-.0312.0235-.0625.0235-.0937.0312-.1563.0469-.25.0469-.2813.0156-.0312.0234-.0625.0234-.0937.0312-.1563.0547-.2344.0703-.2344.0156-.0156.0313-.0391.0469-.0703.0312-.1875.0625-.3203.0937-.3985.0313-.0937.0625-.1796.0938-.2578.0156-.0468.0234-.0859.0234-.1172 0-.0468.0156-.0937.0469-.1406.0625-.1562.0937-.3359.0937-.539.0313-.2032.0704-.3594.1172-.4688.0469-.125.0782-.2344.0938-.3281.0469-.1563.0703-.2657.0703-.3281l.0937-.2813c.1407-.1563.2266-.2734.2579-.3516.0468-.0312.0859-.0547.1171-.0703.0469-.0312.0938-.0625.1407-.0937.125-.0469.2343-.0781.3281-.0938.0937 0 .1484-.0078.1641-.0234.0312-.0156.0625-.0313.0937-.0469.1719.0156.2813.0156.3281 0 .0625-.0156.1328 0 .211.0469.1093-.0313.1797-.0391.2109-.0235h.1406c.0938.0157.1953.0235.3047.0235h.3516.2578c.1875-.0313.2891-.0391.3047-.0235h.0937c.0313.0157.0938.0235.1875.0235.0938-.0156.1485-.0235.1641-.0235h.3047c.1406 0 .2734-.0078.3984-.0234.1094-.0156.1797-.0156.211 0 .0312.0156.0625.0234.0937.0234h.3047c.1719-.0156.2656-.0156.2812 0h.0704l.2578-.0234c.1093 0 .1797.0078.2109.0234.0469.0157.0859.0235.1172.0235.1094-.0156.1719-.0156.1875 0 .0312.0156.0625.0234.0937.0234.3282 0 .5547.0313.6797.0938.25.0781.4063.125.4688.1406.125.0937.1875.1406.1875.1406.0156-.0156.0312-.0156.0469 0 .0937.0938.164.1485.2109.1641.0469 0 .0859.0156.1172.0469l.2109.2109c.1406.1094.2266.1719.2578.1875.1094.125.1953.2187.2578.2813.0782.0624.1329.1093.1641.1406.0313.0156.0625.039.0938.0703.1562.0937.2421.1641.2578.2109.0156.0469.0547.0782.1172.0938.0468.125.0703.2109.0703.2578.0156.0469.0547.0781.1172.0937.0156.0469.0312.0938.0468.1407.0157.0468.0391.1015.0703.164.0469.0782.0625.1406.0469.1875 0 .0313.0078.0625.0235.0938.0156.0781.0312.1406.0468.1875.0313.0312.0547.0625.0703.0937.0625.2344.1094.3985.1407.4922.0312.0781.0625.1563.0937.2344.0313.0625.0469.125.0469.1875.0156.0469.0391.1094.0703.1875.0938.25.1563.4453.1875.5859.0469.125.0859.2656.1172.4219.0312.0937.0547.1953.0703.3047.0313.1094.0547.2031.0703.2812.0156.1719.0391.3047.0703.3985l.0703.4219c.0313.125.0547.2421.0704.3515.0312.1094.0468.2266.0468.3516.0625.2187.1172.3672.1641.4453.0156.1406.0312.2266.0469.2578.0312.0781.0468.1406.0468.1875 0 .0313.0079.0625.0235.0937.0625.2032.0859.3282.0703.375 0 .0469.0078.0938.0234.1407.0313.1093.0391.1797.0235.2109v.0469c.0156.0625.0312.1172.0468.1641.0313.0312.0469.0781.0469.1406-.0156.1094-.0156.1875 0 .2344.0313.0468.0547.0937.0703.1406 0 .0937.0078.1562.0235.1875.0156.0156.0312.0469.0468.0937l.0235.3985c.0312.0781.0469.1718.0469.2812 0 .0938.0078.1875.0234.2813.0312.1718.0547.3125.0703.4218.0156.1094.0391.211.0703.3047.0156.0625.0235.1172.0235.1641 0 .0312.0156.0625.0468.0937.0625.1407.0938.2344.0938.2813v.1172c0 .0937-.0078.1875-.0235.2812-.0156.0938-.039.1797-.0703.2578-.0468.1719-.0703.2813-.0703.3282-.1406.1093-.2187.1718-.2344.1875-.0156 0-.0546.0078-.1171.0234s-.1719.0391-.3282.0703c-.2031.0313-.3203.0547-.3515.0703-.0313 0-.0625.0078-.0938.0235-.1562 0-.2344 0-.2344 0 0-.0157-.0078-.0235-.0234-.0235-.125.0157-.1953.0235-.2109.0235-.0157-.0157-.0391-.0235-.0703-.0235-.2188 0-.3516.0078-.3985.0235-.1094 0-.2031.0078-.2812.0234-.0782 0-.1563 0-.2344 0-.1563.0156-.2656.0391-.3281.0703-.1563.0313-.25.0469-.2813.0469-.1875.0312-.3281.039-.4219.0234-.0937 0-.1953.0078-.3046.0235-.1719.0156-.2657.0234-.2813.0234-.0781.0156-.1719.0078-.2812-.0234-.0938-.0313-.1875-.0625-.2813-.0938zm-.3984-3.3281c-.0157-.2188-.0313-.375-.0469-.4688-.0156-.1093-.0313-.1875-.0469-.2343-.0312-.1407-.0469-.2344-.0469-.2813.0157-.0469.0157-.0859 0-.1172-.0468-.2656-.0703-.4453-.0703-.539 0-.0938-.0156-.1875-.0468-.2813-.0313-.125-.0547-.2031-.0704-.2344-.0156-.0468-.0312-.0859-.0468-.1171-.1094-.0938-.1797-.1329-.211-.1172-.0312.0156-.0547.039-.0703.0703-.1406.0937-.2187.1484-.2344.164-.1406.0782-.2265.1329-.2578.1641-.0781.0625-.125.1016-.1406.1172s-.0391.039-.0703.0703c-.1563.125-.2344.1875-.2344.1875 0-.0156-.0078-.0156-.0234 0-.1563.1094-.25.1875-.2813.2344-.0312.0312-.0703.0625-.1172.0937-.0312.0781-.0703.1407-.1171.1875-.0313.0469-.0625.0938-.0938.1406.0313.0626.0469.1172.0469.1641 0 .0313-.0156.0859-.0469.1641.1094.125.1875.1875.2344.1875.0781.0469.1328.0703.164.0703.0313 0 .0625.0078.0938.0234.0937.0625.1484.1094.1641.1406.0156.0157.0312.0235.0468.0235.1407.0625.2266.0937.2578.0937.0469 0 .1016.0078.1641.0235.1094.0312.1875.0547.2344.0703.0625 0 .1094.0078.1406.0234.1719.0938.3125.1563.4219.1875.125.0157.2265.0078.3047-.0234zm13.5703-7.5938c-.1406.0782-.2188.125-.2344.1407v.0234c-.25.0937-.4297.1484-.5391.1641-.1093.0156-.2109.0468-.3046.0937-.2032.1094-.336.1953-.3985.2578-.1406.125-.2578.2188-.3515.2813-.1407.25-.2579.4218-.3516.5156-.0938.0938-.1406.2109-.1406.3516.0468.0781.0703.1406.0703.1875 0 .0312.0078.0625.0234.0937 0 .0313.0078.0703.0235.1172.0156.0469.0156.1094 0 .1875.0312.0313.0546.0703.0703.1172.0312.0312.0625.0625.0937.0937.0469.0625.086.1407.1172.2344.0313.0938.0625.1797.0938.2578.0781.0313.1406.086.1875.1641.0468.0781.1015.1406.164.1875.0781.1406.1328.2266.1641.2578.0937.1406.1484.2109.164.2109.1407.1407.2266.2657.2579.375.0312.0469.0625.086.0937.1172.0469.0313.0859.0625.1172.0938l.1875.2812.2578.3281c.0313.0782.0547.1329.0703.1641.0156.0156.0313.0391.0469.0703.0469.1406.0781.2188.0937.2344.0313.0156.0469.0391.0469.0703l.0703.3047c.0782.1875.1094.3125.0938.375 0 .0469.0078.0938.0234.1406.0469.125.0781.211.0938.2578l.0468.2578c-.0937.25-.1718.5-.2343.75-.0938.1719-.1641.2735-.211.3047-.0312.0157-.0468.0547-.0468.1172-.125.0938-.1954.1563-.211.1875 0 .0313-.0156.0391-.0469.0235-.0937.1406-.1406.2187-.1406.2343 0 .0157-.0156.0391-.0469.0704-.0312.0468-.0781.0859-.1406.1171-.0469.0313-.0859.0782-.1172.1407-.1562.0468-.2734.1484-.3515.3046-.1094.0938-.1875.1563-.2344.1876-.0469.0156-.0859.0546-.1172.1171-.1406.0313-.25.1016-.3281.211-.0625.0937-.1563.164-.2813.2109-.0468.0469-.0937.0938-.1406.1406-.0469.0313-.0937.0704-.1406.1172-.0938.0469-.1485.086-.1641.1172 0 .0313-.0078.0547-.0234.0703-.0938.0313-.1563.0547-.1875.0703-.0156 0-.0391.0157-.0703.0469-.1719.0938-.2657.1719-.2813.2344-.1094.0156-.1953.0469-.2578.0937-.0625.0625-.1328.1094-.2109.1407-.125.1093-.2188.1797-.2813.2109-.0469.0312-.0859.0469-.1172.0469-.1718.0312-.2734.0625-.3047.0937-.0312.0313-.0625.0625-.0937.0938-.0938.0312-.1563.0547-.1875.0703-.0313.0156-.0625.0312-.0938.0469-.0937.0312-.164.0546-.2109.0703-.0312.0312-.0625.0469-.0937.0469-.1094 0-.1875-.0157-.2344-.0469-.0313-.0313-.086-.0547-.1641-.0703-.0312-.0625-.0703-.125-.1172-.1875-.0312-.0625-.0781-.1094-.1406-.1407-.0469-.0781-.0859-.1562-.1172-.2343-.0625-.0782-.1094-.1329-.1406-.1641-.0156-.0312-.0391-.0469-.0703-.0469-.0781-.1562-.1328-.2656-.1641-.3281-.0937-.2031-.1797-.3438-.2578-.4219-.0781-.1406-.1172-.2187-.1172-.2343 0-.0157-.0078-.0313-.0234-.0469-.0313-.0469-.0625-.086-.0938-.1172-.0156-.0313-.0312-.0703-.0468-.1172-.0938-.0781-.1641-.1719-.211-.2813-.0469-.125-.1094-.2265-.1875-.3046l-.164-.2578c-.0938-.1407-.1485-.2188-.1641-.2344s-.0156-.0391 0-.0703c-.0781-.1407-.125-.2344-.1406-.2813-.0782-.1562-.1172-.2578-.1172-.3047-.0313-.125-.0391-.1953-.0235-.2109.0157-.0156.0313-.0391.0469-.0703.0313-.1094.0469-.1719.0469-.1875 0-.0313.0078-.0625.0234-.0938.0625-.0781.1328-.1328.211-.164.1875-.0782.3125-.125.375-.1407.0625-.0156.1172-.039.164-.0703.1719-.0468.2735-.0859.3047-.1172.0469-.0312.1094-.0546.1875-.0703.1719-.0937.2735-.1484.3047-.164.0313-.0313.0703-.0547.1172-.0703.0312-.0313.0625-.0469.0937-.0469.0469-.0157.0938-.0391.1407-.0703.0468-.0313.0859-.0625.1172-.0938.0312-.0469.0625-.0937.0937-.1406.0938-.0938.1406-.1563.1406-.1875.0157-.0313.0391-.0391.0703-.0235.0782-.2187.1329-.3593.1641-.4218.0469-.0625.0625-.1485.0469-.2578 0-.0625-.0156-.1563-.0469-.2813-.0312-.0625-.0703-.1172-.1172-.1641-.0469-.0468-.0625-.1093-.0469-.1874-.125-.1719-.2031-.2735-.2343-.3047-.0313-.0469-.0782-.086-.1407-.1172-.125-.125-.2031-.2266-.2343-.3047-.0938-.1094-.1563-.1719-.1875-.1875-.0313-.0156-.0547-.0391-.0703-.0703-.0313-.0469-.0625-.086-.0938-.1172-.0312-.0313-.0625-.0625-.0937-.0938-.0782-.1562-.125-.2343-.1407-.2343 0 0 0-.0079 0-.0235-.1406-.1094-.2187-.1797-.2343-.2109 0-.0313-.0079-.0625-.0235-.0938-.1094-.1406-.1797-.2265-.2109-.2578-.0313-.0312-.0625-.0703-.0938-.1172-.0781-.0781-.1484-.164-.2109-.2578-.0469-.0937-.1094-.1797-.1875-.2578-.0156-.2187-.1016-.3906-.2578-.5156-.0938-.1563-.1406-.2422-.1406-.2578.0156-.0157.0156-.0391 0-.0703-.0469-.1563-.0704-.2735-.0704-.3516.0157-.0938.0235-.1953.0235-.3047-.0156-.1719-.0078-.2891.0234-.3515.0156-.0782.0313-.1641.0469-.2579.0156-.0937.0391-.1875.0703-.2812.0781-.2188.1484-.3594.2109-.4219.0782-.125.125-.2031.1407-.2344.0312-.0312.0625-.0703.0937-.1172.0625-.0624.1016-.1015.1172-.1171.0313-.0313.0625-.0625.0938-.0938.125-.1562.2109-.2578.2578-.3047.0781-.0468.1328-.0937.164-.1406.0313-.0625.0782-.0938.1407-.0938l.2812-.3281c.0938-.0781.1484-.1172.1641-.1172.0156-.0156.0312-.039.0468-.0703.0782-.1094.1641-.1953.2579-.2578.125-.0781.1953-.125.2109-.1406s.0391-.0313.0703-.0469c.1406-.0937.2188-.1406.2344-.1406.1094-.0938.1797-.1485.2109-.1641.0313-.0312.0625-.0547.0938-.0703.1718-.0625.2734-.0937.3047-.0937.1406-.0938.2734-.1641.3984-.211.0781-.0937.1328-.1406.1641-.1406.0468 0 .0859-.0156.1171-.0469.125-.0469.1954-.0703.211-.0703.0312-.0156.0547-.0234.0703-.0234.1406-.0469.2422-.1016.3047-.1641.2031-.0625.3281-.1094.375-.1406.0625-.0313.125-.0547.1875-.0703.1875.0156.289.0156.3047 0 .0156-.0156.039-.0235.0703-.0235.0937.0157.1797.0313.2578.0469s.1328.0391.1641.0703c.0468.0157.1093.0469.1875.0938.0625.0312.1093.0703.1406.1172.0312.0312.0703.0625.1172.0937.0625.1563.1015.2656.1172.3281.0312.0625.0625.1172.0937.1641.0781.125.1172.2109.1172.2578l.1641.3516.2343.3984c.0625.1719.1172.2891.1641.3516s.0859.1328.1172.2109c.0781.1875.1172.2891.1172.3047s.0078.0391.0234.0703c.0469.0938.0703.1563.0703.1875 0 .0313.0078.0625.0235.0938.0937.2031.1484.3281.164.375.0156.0468.0391.1093.0703.1875.0313.1093.0469.1718.0469.1875 0 .0156.0078.039.0234.0703.0157.0937.0235.1719.0235.2343.0156.0469.0156.086 0 .1172zm8.8359 0c-.1406.0782-.2187.125-.2344.1407v.0234c-.25.0937-.4296.1484-.539.1641-.1094.0156-.211.0468-.3047.0937-.2031.1094-.3359.1953-.3984.2578-.1407.125-.2579.2188-.3516.2813-.1406.25-.2578.4218-.3516.5156-.0937.0938-.1406.2109-.1406.3516.0469.0781.0703.1406.0703.1875 0 .0312.0078.0625.0235.0937 0 .0313.0078.0703.0234.1172s.0156.1094 0 .1875c.0312.0313.0547.0703.0703.1172.0313.0312.0625.0625.0938.0937.0468.0625.0859.1407.1171.2344.0313.0938.0625.1797.0938.2578.0781.0313.1406.086.1875.1641s.1016.1406.1641.1875c.0781.1406.1328.2266.164.2578.0938.1406.1485.2109.1641.2109.1406.1407.2265.2657.2578.375.0312.0469.0625.086.0937.1172.0469.0313.086.0625.1172.0938l.1875.2812.2578.3281c.0313.0782.0547.1329.0704.1641.0156.0156.0312.0391.0468.0703.0469.1406.0782.2188.0938.2344.0312.0156.0469.0391.0469.0703l.0703.3047c.0781.1875.1093.3125.0937.375 0 .0469.0078.0938.0235.1406.0468.125.0781.211.0937.2578l.0469.2578c-.0938.25-.1719.5-.2344.75-.0937.1719-.1641.2735-.2109.3047-.0313.0157-.0469.0547-.0469.1172-.125.0938-.1953.1563-.2109.1875 0 .0313-.0157.0391-.0469.0235-.0938.1406-.1406.2187-.1406.2343 0 .0157-.0157.0391-.0469.0704-.0313.0468-.0781.0859-.1406.1171-.0469.0313-.086.0782-.1172.1407-.1563.0468-.2735.1484-.3516.3046-.1094.0938-.1875.1563-.2344.1876-.0468.0156-.0859.0546-.1172.1171-.1406.0313-.25.1016-.3281.211-.0625.0937-.1562.164-.2812.2109-.0469.0469-.0938.0938-.1407.1406-.0468.0313-.0937.0704-.1406.1172-.0937.0469-.1484.086-.164.1172 0 .0313-.0079.0547-.0235.0703-.0937.0313-.1562.0547-.1875.0703-.0156 0-.039.0157-.0703.0469-.1719.0938-.2656.1719-.2812.2344-.1094.0156-.1954.0469-.2579.0937-.0625.0625-.1328.1094-.2109.1407-.125.1093-.2187.1797-.2812.2109-.0469.0312-.086.0469-.1172.0469-.1719.0312-.2735.0625-.3047.0937-.0313.0313-.0625.0625-.0938.0938-.0937.0312-.1562.0547-.1875.0703-.0312.0156-.0625.0312-.0937.0469-.0938.0312-.1641.0546-.211.0703-.0312.0312-.0625.0469-.0937.0469-.1094 0-.1875-.0157-.2344-.0469-.0312-.0313-.0859-.0547-.164-.0703-.0313-.0625-.0704-.125-.1172-.1875-.0313-.0625-.0782-.1094-.1407-.1407-.0468-.0781-.0859-.1562-.1171-.2343-.0625-.0782-.1094-.1329-.1407-.1641-.0156-.0312-.039-.0469-.0703-.0469-.0781-.1562-.1328-.2656-.164-.3281-.0938-.2031-.1797-.3438-.2579-.4219-.0781-.1406-.1171-.2187-.1171-.2343 0-.0157-.0079-.0313-.0235-.0469-.0312-.0469-.0625-.086-.0937-.1172-.0157-.0313-.0313-.0703-.0469-.1172-.0938-.0781-.1641-.1719-.2109-.2813-.0469-.125-.1094-.2265-.1875-.3046l-.1641-.2578c-.0938-.1407-.1484-.2188-.1641-.2344-.0156-.0156-.0156-.0391 0-.0703-.0781-.1407-.125-.2344-.1406-.2813-.0781-.1562-.1172-.2578-.1172-.3047-.0312-.125-.039-.1953-.0234-.2109s.0312-.0391.0469-.0703c.0312-.1094.0468-.1719.0468-.1875 0-.0313.0078-.0625.0235-.0938.0625-.0781.1328-.1328.2109-.164.1875-.0782.3125-.125.375-.1407.0625-.0156.1172-.039.1641-.0703.1718-.0468.2734-.0859.3047-.1172.0468-.0312.1093-.0546.1875-.0703.1718-.0937.2734-.1484.3046-.164.0313-.0313.0704-.0547.1172-.0703.0313-.0313.0625-.0469.0938-.0469.0469-.0157.0937-.0391.1406-.0703.0469-.0313.0859-.0625.1172-.0938.0312-.0469.0625-.0937.0937-.1406.0938-.0938.1407-.1563.1407-.1875.0156-.0313.039-.0391.0703-.0235.0781-.2187.1328-.3593.164-.4218.0469-.0625.0625-.1485.0469-.2578 0-.0625-.0156-.1563-.0469-.2813-.0312-.0625-.0703-.1172-.1171-.1641-.0469-.0468-.0625-.1093-.0469-.1874-.125-.1719-.2031-.2735-.2344-.3047-.0312-.0469-.0781-.086-.1406-.1172-.125-.125-.2031-.2266-.2344-.3047-.0937-.1094-.1562-.1719-.1875-.1875-.0312-.0156-.0547-.0391-.0703-.0703-.0313-.0469-.0625-.086-.0938-.1172-.0312-.0313-.0625-.0625-.0937-.0938-.0781-.1562-.125-.2343-.1406-.2343 0 0 0-.0079 0-.0235-.1407-.1094-.2188-.1797-.2344-.2109 0-.0313-.0078-.0625-.0234-.0938-.1094-.1406-.1797-.2265-.211-.2578-.0312-.0312-.0625-.0703-.0937-.1172-.0782-.0781-.1485-.164-.211-.2578-.0468-.0937-.1093-.1797-.1875-.2578-.0156-.2187-.1015-.3906-.2578-.5156-.0937-.1563-.1406-.2422-.1406-.2578.0156-.0157.0156-.0391 0-.0703-.0469-.1563-.0703-.2735-.0703-.3516.0156-.0938.0234-.1953.0234-.3047-.0156-.1719-.0078-.2891.0235-.3515.0156-.0782.0312-.1641.0468-.2579.0157-.0937.0391-.1875.0703-.2812.0782-.2188.1485-.3594.211-.4219.0781-.125.125-.2031.1406-.2344.0313-.0312.0625-.0703.0938-.1172.0625-.0624.1015-.1015.1171-.1171.0313-.0313.0625-.0625.0938-.0938.125-.1562.2109-.2578.2578-.3047.0781-.0468.1328-.0937.1641-.1406.0312-.0625.0781-.0938.1406-.0938l.2812-.3281c.0938-.0781.1485-.1172.1641-.1172.0156-.0156.0313-.039.0469-.0703.0781-.1094.164-.1953.2578-.2578.125-.0781.1953-.125.2109-.1406.0157-.0156.0391-.0313.0703-.0469.1407-.0937.2188-.1406.2344-.1406.1094-.0938.1797-.1485.211-.1641.0312-.0312.0625-.0547.0937-.0703.1719-.0625.2734-.0937.3047-.0937.1406-.0938.2734-.1641.3984-.211.0782-.0937.1328-.1406.1641-.1406.0469 0 .0859-.0156.1172-.0469.125-.0469.1953-.0703.2109-.0703.0313-.0156.0547-.0234.0703-.0234.1407-.0469.2422-.1016.3047-.1641.2031-.0625.3281-.1094.375-.1406.0625-.0313.125-.0547.1875-.0703.1875.0156.2891.0156.3047 0s.0391-.0235.0703-.0235c.0938.0157.1797.0313.2578.0469.0782.0156.1328.0391.1641.0703.0469.0157.1094.0469.1875.0938.0625.0312.1094.0703.1406.1172.0313.0312.0703.0625.1172.0937.0625.1563.1016.2656.1172.3281.0312.0625.0625.1172.0937.1641.0782.125.1172.2109.1172.2578l.1641.3516.2344.3984c.0625.1719.1172.2891.164.3516.0469.0625.086.1328.1172.2109.0781.1875.1172.2891.1172.3047s.0078.0391.0234.0703c.0469.0938.0704.1563.0704.1875 0 .0313.0078.0625.0234.0938.0937.2031.1484.3281.1641.375.0156.0468.039.1093.0703.1875.0312.1093.0468.1718.0468.1875 0 .0156.0079.039.0235.0703.0156.0937.0234.1719.0234.2343.0156.0469.0156.086 0 .1172zm6.1875-7.5234c.0781.0156.1328.0469.1641.0938.0469.0468.0937.0937.1406.1406.0781.2812.1172.4531.1172.5156v.4219c.0156.0469.0234.1172.0234.2109 0 .0781-.0078.1328-.0234.1641v.1172c-.0156.0468-.0234.0937-.0234.1406.0156.0469.0234.1015.0234.1641.0156.1406.0156.2734 0 .3984-.0469.1562-.0781.2422-.0938.2578l-.164.2344c-.0625.0625-.1016.1094-.1172.1406s-.0391.0547-.0703.0703c-.2031.0781-.3516.1328-.4453.1641-.0782.0156-.1563.0312-.2344.0468-.0469 0-.1328.0157-.2578.0469-.0313 0-.0781.0078-.1406.0235-.0469 0-.086 0-.1172 0-.1875.0156-.2813.0234-.2813.0234-.125-.0156-.1953-.0234-.2109-.0234-.0156-.0157-.0313-.0235-.0469-.0235-.1719.0313-.2891.0469-.3516.0469-.0625-.0156-.1328-.0312-.2109-.0469-.1875 0-.3047 0-.3516 0-.0312-.0156-.0781-.0156-.1406 0-.2187-.0156-.3515-.0156-.3984 0h-.4688c-.1406-.1406-.2187-.2109-.2343-.2109 0 0-.0079-.0156-.0235-.0469l-.2109-.2109c0-.1719-.0235-.3516-.0703-.5391l-.0469-.4687v-.3047c0-.2188.0156-.375.0469-.4688 0-.1875.0156-.2969.0468-.3281.0313-.0469.0469-.0938.0469-.1406.0938-.1406.1485-.2266.1641-.2578.0156-.0313.039-.0625.0703-.0938l.4219-.1875c.1875-.0625.3047-.1015.3515-.1172.0469-.0156.086-.0312.1172-.0469h.3516l.3281-.0703c.0625-.0156.125-.0312.1875-.0468.0781-.0157.1484-.0235.2109-.0235.0469 0 .0938.0078.1407.0235h.1406.1406c.0469-.0157.1016-.0235.1641-.0235.125 0 .2344.0078.3281.0235.1094.0156.2188.0078.3281-.0235.0469-.0156.1328-.0078.2578.0235.125.0156.2266.039.3047.0703zm.3516 17.9062c.0156.0782 0 .1407-.0469.1876-.0469.0312-.0625.0703-.0469.1171-.2187.0469-.3281.0703-.3281.0703-.125.0626-.2656.1094-.4219.1407-.125.0312-.2578.039-.3984.0234-.125 0-.2734-.0078-.4453-.0234-.1719.0156-.2969.0234-.375.0234-.0625 0-.125 0-.1875 0h-.3516c-.1562.0156-.2422.0235-.2578.0235-.1406 0-.2578.0078-.3516.0234-.0781.0312-.1328.0469-.164.0469h-.3281l-.3282-.0703c-.0625 0-.125 0-.1875 0-.0625.0156-.1328.0156-.2109 0-.0781-.0313-.1406-.0626-.1875-.0938-.0469-.0156-.1016-.0234-.1641-.0234-.0781-.1719-.1172-.2657-.1172-.2813 0-.0312-.0078-.0547-.0234-.0703-.0469-.0781-.0703-.1484-.0703-.2109.0156-.0782.0234-.1485.0234-.211 0-.0469-.0078-.0937-.0234-.1406 0-.0469 0-.0859 0-.1172 0-.0469.0078-.0937.0234-.1406.0157-.0469.0235-.1016.0235-.1641.0156-.0625.0234-.1328.0234-.2109.0156-.0781.0313-.1563.0469-.2344.0156-.125.0234-.2187.0234-.2812 0-.0782 0-.1329 0-.1641.0156-.0469.0235-.0938.0235-.1406 0-.0625.0078-.125.0234-.1875.0156-.0938.0156-.1641 0-.211-.0156-.0625-.0234-.1171-.0234-.164 0-.0313 0-.0781 0-.1407.0156-.0624.0234-.1328.0234-.2109 0-.1094-.0078-.2109-.0234-.3047 0-.0937 0-.1875 0-.2812 0-.0782.0156-.1953.0468-.3516v-.3047c.0157-.1406.0235-.3125.0235-.5156s-.0078-.3906-.0235-.5625v-.2578c.0157-.1875.0235-.3281.0235-.4219.0156-.1094.0156-.2187 0-.3281 0-.0469-.0078-.086-.0235-.1172 0-.0469 0-.0938 0-.1406-.0156-.0782-.0234-.1485-.0234-.211s0-.1328 0-.2109c0-.0937-.0078-.1484-.0234-.1641 0-.0312 0-.0625 0-.0937v-.4219c-.0157-.1719-.0157-.2656 0-.2812.0156-.0313.0234-.0625.0234-.0938 0-.1875 0-.3047 0-.3516.0156-.0624.0234-.125.0234-.1874 0-.1563 0-.2422 0-.2579 0-.2656-.0078-.4297-.0234-.4921-.0469-.1563-.0703-.25-.0703-.2813v-.3516c0-.1406-.0078-.2265-.0235-.2578 0-.0469.0079-.1015.0235-.164 0-.1094-.0078-.2188-.0235-.3282 0-.1093 0-.2265 0-.3515-.0156-.1094-.0156-.1875 0-.2344.0157-.0469.0235-.0938.0235-.1406v-.6563c-.0313-.1875-.0313-.3906 0-.6093.0312-.1563.0625-.25.0937-.2813.0469-.1563.0782-.2422.0938-.2578.1406-.1875.2812-.3125.4219-.375.0781-.0313.1406-.0625.1875-.0938.0625-.0468.1093-.0703.1406-.0703.1406-.0312.2344-.0468.2812-.0468.1719-.0157.3438-.0157.5157 0 .1718.0156.3437.0078.5156-.0235.1406-.0156.2344-.0078.2812.0235.0469.0156.1016.0078.1641-.0235.2031-.0156.3281-.0156.375 0h.1406c.125-.0312.211-.0391.2578-.0234h.4219c.0469 0 .1016.0078.1641.0234.0625 0 .1093.0156.1406.0469.0312-.0313.1172-.0469.2578-.0469.0469.0313.0781.0625.0938.0938.0312.0312.0781.0468.1406.0468.0625.1407.1172.2344.164.2813.0469.1406.1016.289.1641.4453.0313.0781.0469.1719.0469.2813 0 .1093.0078.2265.0234.3515v.1875c.0156.0625.0235.1172.0235.1641 0 .0781-.0079.1562-.0235.2343 0 .0782-.0078.1563-.0234.2344-.0156.2344-.0235.4297-.0235.586 0 .1406-.0078.2812-.0234.4218-.0156.0782-.0312.1563-.0469.2344v.2344c0 .0625.0078.125.0235.1875.0156.0469.0234.1015.0234.1641 0 .125-.0078.2578-.0234.3984-.0157.125-.0313.2578-.0469.3984-.0156.125-.0313.25-.0469.375-.0156.1094-.0234.2344-.0234.375v.1172c.0156.0469.0234.0938.0234.1406 0 .0782-.0078.1485-.0234.211v.1875.2343c.0156.0782.0156.1563 0 .2344 0 .0782-.0078.1563-.0235.2344-.0156.0625-.0234.1328-.0234.2109-.0156.125-.0156.25 0 .375s.0234.25.0234.375c0 .0782-.0078.1563-.0234.2344s-.0156.1563 0 .2344c.0469.2656.0625.4453.0469.5391-.0156.0937-.0156.1953 0 .3046.0156.1719.0156.2891 0 .3516v.1172.6094c0 .1093-.0078.1953-.0235.2578.0625.1094.0782.2422.0469.3984-.0312.1406-.0156.2578.0469.3516-.0313.1094-.0469.2265-.0469.3515.0156.125.0391.2344.0703.3282l.0235.6328c.0156.0937.0234.1953.0234.3047.0156.0937.0234.1796.0234.2578l-.0234.2578zm10.8515-3.4453c.0313.0469.0704.0625.1172.0469.0469-.0156.0938-.0312.1407-.0469.2187-.0468.3593-.0703.4218-.0703.0625-.0156.1328-.0312.211-.0468.125-.0313.25-.0704.375-.1172.1406-.0625.2812-.1094.4218-.1407.0313-.0156.0704-.0234.1172-.0234.0625-.0156.1094-.0313.1407-.0469.0937-.0625.164-.1015.2109-.1172.0625-.0312.1094-.0625.1406-.0937.1563-.125.2578-.1953.3047-.2109.0469-.0157.0859-.0391.1172-.0704.2187-.0625.3437-.0859.375-.0703.125.0313.1875.1328.1875.3047-.0156.2188-.0234.3594-.0234.4219.0156.0469.0234.1094.0234.1875.0156.125.0234.2422.0234.3516v.3281.1406c.0157.0469.0235.0859.0235.1172 0 .0781-.0157.1641-.0469.2578-.0156.0937-.0234.1797-.0234.2578.0156.25.0156.4844 0 .7031-.0469.2032-.0625.336-.0469.3985s.0234.1172.0234.164c-.0156.1094-.0312.2032-.0469.2813-.1562.1562-.2734.2422-.3515.2578-.0781 0-.1328.0391-.1641.1172-.0937.0156-.1562.0312-.1875.0469-.0156.0156-.039.0312-.0703.0468-.1094.0938-.1953.1407-.2578.1407-.0469 0-.0938.0078-.1406.0234l-.2813.1172c-.1719.0625-.289.0937-.3515.0937s-.125.0313-.1875.0938c-.0625 0-.125.0156-.1875.0469-.0469.0156-.1094.0312-.1875.0468-.1563.0313-.2657.0547-.3282.0704-.1093.0468-.1875.0703-.2343.0703-.0469 0-.1016.0078-.1641.0234-.0781.0156-.1641.0234-.2578.0234-.0781.0157-.1641.0313-.2578.0469-.2344.0469-.3985.0625-.4922.0469-.0938 0-.1875.0156-.2813.0469-.125 0-.2265.0078-.3047.0234-.0781.0156-.1562.0234-.2343.0234-.0938 0-.1875-.0078-.2813-.0234-.0781-.0156-.164-.0312-.2578-.0469-.0625.0313-.1406.0391-.2344.0235-.0781-.0157-.1797-.0391-.3047-.0704-.125-.0156-.2109-.0312-.2578-.0468-.1875 0-.3125-.0078-.375-.0235-.0468-.0156-.1015-.0312-.164-.0468-.0625-.0157-.1172-.0235-.1641-.0235s-.1016-.0078-.1641-.0234c-.1093-.0156-.1875-.0313-.2343-.0469-.0469-.0156-.0938-.0312-.1407-.0469-.1875-.0468-.2968-.0781-.3281-.0937l-.2109-.1641c-.125-.0312-.25-.0781-.375-.1406-.0469-.0312-.0938-.0547-.1406-.0703-.0313-.0156-.0704-.0469-.1172-.0938-.0313-.0468-.0782-.0781-.1407-.0937-.0468-.0156-.0937-.0391-.1406-.0703-.1719-.1094-.2656-.1719-.2812-.1875 0-.0156-.0078-.0313-.0235-.0469-.1093-.0469-.1718-.0781-.1875-.0937 0-.0157-.0156-.0313-.0468-.0469l-.2344-.1407c-.0938-.0937-.1797-.1562-.2578-.1874-.0313-.0782-.0782-.1329-.1407-.1641-.0468-.0469-.0859-.1094-.1171-.1875-.1094-.0938-.1875-.1563-.2344-.1875-.0469-.0313-.086-.0781-.1172-.1406-.0469-.0313-.0859-.0625-.1172-.0938-.0156-.0469-.0391-.0859-.0703-.1172-.0625-.0469-.1016-.1328-.1172-.2578-.0937-.0937-.1406-.1562-.1406-.1875 0-.0312-.0078-.0625-.0235-.0937-.0937-.125-.1562-.2032-.1875-.2344-.0937-.1094-.1406-.1719-.1406-.1875s-.0078-.0391-.0234-.0703c-.1094-.2188-.1875-.3516-.2344-.3985 0-.0781-.0078-.1328-.0234-.164-.0157-.0313-.0235-.0703-.0235-.1172-.0781-.1563-.1172-.25-.1172-.2813 0-.0468 0-.0859 0-.1171-.0468-.1563-.0781-.2344-.0937-.2344 0 0 0-.0078 0-.0235-.0781-.2343-.125-.3828-.1406-.4453-.0157-.0781-.0391-.1484-.0703-.2109-.0313-.1563-.0547-.2578-.0704-.3047 0-.0469-.0078-.1094-.0234-.1875 0-.0937-.0078-.1875-.0234-.2813-.0157-.1093-.0235-.1718-.0235-.1874 0-.0313 0-.0782 0-.1407.0157-.0781.0157-.1406 0-.1875-.0156-.0468-.039-.0859-.0703-.1172-.0312-.0468-.0469-.0937-.0469-.1406.0782-.2344.1172-.3828.1172-.4453 0-.0781 0-.1719 0-.2813.0313-.1406.0391-.25.0235-.3281-.0157-.0781-.0157-.1562 0-.2343 0-.0469 0-.0938 0-.1407 0-.0625.0156-.1093.0468-.1406-.0312-.0625-.039-.1094-.0234-.1406.0313-.0469.0547-.0938.0703-.1407 0-.1718 0-.2578 0-.2578.0156-.0156.0235-.039.0235-.0703.0312-.1406.0546-.2578.0703-.3515.0312-.1094.0625-.2032.0937-.2813.0469-.125.0703-.1953.0703-.2109 0-.0313.0078-.0625.0235-.0938.0625-.0937.1015-.1562.1172-.1875.0156-.0312.0312-.0625.0468-.0937.0625-.2344.1328-.4141.211-.5391.0781-.125.1328-.2187.164-.2812.0313-.0625.0625-.1094.0938-.1407 0-.0625.0156-.1093.0469-.1406.0468-.0312.0859-.0625.1171-.0937.0782-.1407.1329-.2188.1641-.2344.0781-.1406.1172-.2188.1172-.2344.1406-.1562.2266-.2422.2578-.2578.0313-.0156.0625-.0391.0938-.0703.1093-.125.1562-.1953.1406-.211 0-.0312.0078-.0468.0234-.0468.0469-.0156.0781-.0391.0938-.0703.0312-.0469.0625-.086.0937-.1172.1406-.125.2188-.1953.2344-.211.0156-.0156.0391-.0312.0703-.0468.0625-.1094.1016-.1641.1172-.1641.0312 0 .0469-.0156.0469-.0469.1562-.1093.2422-.1719.2578-.1875.0312-.0156.0625-.039.0937-.0703.125-.0937.1953-.1406.211-.1406.0312-.0156.0547-.0313.0703-.0469.1562-.0937.2422-.1562.2578-.1875.1406-.1094.2187-.1641.2344-.1641.0312-.0156.0468-.039.0468-.0703.1875-.0937.2969-.1406.3282-.1406.0312 0 .0625-.0078.0937-.0234.2344-.0938.3828-.1563.4453-.1875.0313-.0156.0625-.0235.0938-.0235.0469-.0156.1094-.0312.1875-.0468.0312-.0157.0625-.0313.0937-.0469.0469-.0156.1016-.0313.1641-.0469.1562-.0469.2344-.0703.2344-.0703 0-.0156.0156-.0234.0468-.0234.1094-.0313.1797-.0547.211-.0704.0312-.0156.0859-.0234.164-.0234.2032-.0156.3907-.0156.5625 0 .1563.0156.2657.0156.3282 0s.1328-.0234.2109-.0234c.0625 0 .1563.0156.2813.0468h.2578c.1562.0469.2343.0704.2343.0704 0-.0157.0157-.0235.0469-.0235.125.0313.1953.0469.211.0469.0312-.0156.0625-.0156.0937 0 .0625 0 .1172.0156.1641.0469.0625.0312.1328.0312.2109 0 .1719.0781.2813.125.3281.1406.0625.0156.1328.0313.211.0469.1562.0625.2656.1094.3281.1406.0781.0156.1484.0469.2109.0938.0938-.0313.1797.0078.2578.1171.1563.0938.2422.1407.2579.1407.0156 0 .0312.0078.0468.0234.0782.0781.1407.1328.1875.1641.0469.0312.086.0703.1172.1171.0781.1094.125.1719.1406.1876.0157 0 .0313.0078.0469.0234.0469.0469.0938.0937.1406.1406.0625.0469.1094.1016.1407.1641.125.125.1875.1875.1875.1875.0625.0625.1093.1172.1406.164.0469.0313.0859.0704.1172.1172.125.125.1875.2032.1875.2344 0 .0156.0078.0391.0234.0703.125.2031.1953.3125.211.3281.0625.1094.1171.1875.164.2344.0313.0469.0547.0938.0703.1406.0157.0469.0391.0938.0703.1407-.0156.0468-.0156.0937 0 .1406.0313.0469.0625.0859.0938.1172.0312.0625.0547.1484.0703.2578.0156.0937.0391.1797.0703.2578.0313.0469.0547.0937.0703.1406.0157.0313.0391.0781.0703.1407.0313.1874.0469.2812.0469.2812 0 .0469.0078.0938.0235.1406.0156.0313.0312.0703.0468.1172.0157.1406.0157.211 0 .211 0 0 .0078.0156.0235.0468l.0703.2578c.0317.125.0467.2344.0467.3282 0 .0468.008.0937.024.1406.015.0312.023.0703.023.1172-.031.1875-.047.3125-.047.375.016.0468.016.0859 0 .1172-.1405.1406-.2264.2265-.2577.2578-.0156.0312-.039.0547-.0703.0703-.125.0625-.1953.1015-.2109.1172 0 .0156-.0078.0312-.0234.0469-.1719.0781-.2813.1171-.3282.1171-.0312 0-.0625.0157-.0937.0469-.125.0469-.211.086-.2578.1172-.0313.0312-.0625.0625-.0938.0938-.1562.0468-.2344.0859-.2344.1171-.0937.0469-.1718.086-.2343.1172-.0625.0157-.1172.0391-.1641.0703-.1719.0938-.3203.1719-.4453.2344-.1563.0938-.2656.1484-.3281.1641-.0625.0156-.1094.039-.1407.0703-.125.0625-.2031.1016-.2343.1172-.0313.0156-.0625.039-.0938.0703-.1562.1094-.2578.1719-.3047.1875-.0312.0156-.0625.0469-.0937.0937-.0313-.0156-.0781-.0078-.1406.0235-.0625.0312-.1172.0625-.1641.0937-.1875.0781-.3125.125-.375.1407-.0469 0-.0859.0234-.1172.0703-.0469 0-.0937.0156-.1406.0468-.0313.0157-.0703.0313-.1172.0469s-.1016.0234-.1641.0234c-.0468-.0156-.0937-.0078-.1406.0235-.1406.0937-.2266.1406-.2578.1406-.0313.0313-.0781.0547-.1406.0703-.0469.0156-.0938.0313-.1407.0469-.1406.0781-.2421.1172-.3046.1172-.0469 0-.086.0156-.1172.0469-.1407.0625-.2188.1015-.2344.1172-.125.0781-.2109.1171-.2578.1171s-.0938.0157-.1406.0469c-.25.0938-.3829.1641-.3985.211 0 .2031.0156.3124.0469.3281.1094.0937.1797.1484.2109.164.0469.0157.0938.0391.1407.0703.0312.0469.0625.0704.0937.0704.0469 0 .0938.0156.1406.0468.0313.0157.0625.0391.0938.0704.0469.0156.0937.0312.1406.0468.0625.0469.1484.0703.2578.0703.0781.0157.1406.0313.1875.0469.0469 0 .1016.0078.1641.0234.125.0313.2187.0469.2812.0469.1875-.0156.3125-.0156.375 0 .0782.0157.1407.0235.1875.0235.0782 0 .1563-.0078.2344-.0235.0781-.0312.1563-.0469.2344-.0469.1875.0157.3047.0157.3515 0 .0625-.0156.125-.0234.1875-.0234zm-.9375-5.9531c-.0312-.0625-.0546-.1172-.0703-.164 0-.0469-.0234-.0782-.0703-.0938-.0781-.1562-.125-.2422-.1406-.2578 0-.0156-.0156-.0313-.0469-.0469-.1406-.125-.2265-.2031-.2578-.2344-.1562-.125-.25-.1953-.2812-.2109-.2188-.1094-.3672-.1641-.4454-.1641-.0625 0-.1484 0-.2578 0-.1718.0782-.2656.1172-.2812.1172s-.0313.0078-.0469.0235c-.1719.0937-.2734.1484-.3047.164-.0312 0-.0469.0235-.0469.0703-.125.0625-.1953.1016-.2109.1172-.0156 0-.0312 0-.0469 0-.0937.125-.1562.211-.1875.2578-.0156.0313-.0312.0625-.0468.0938-.125.1562-.1954.25-.211.2812-.0156.0313-.0312.0625-.0469.0938-.0468.2031-.1015.3203-.164.3515-.0469.0313-.0781.086-.0938.1641-.0937.125-.1406.2031-.1406.2344.0156.0156.0156.0312 0 .0469-.0469.1562-.0859.2343-.1172.2343-.0625.25-.0937.3907-.0937.4219.0312.125.0312.2031 0 .2344-.0157.0312-.0078.0547.0234.0703.2031-.0937.3438-.1328.4219-.1172.1562-.0781.2578-.125.3047-.1406.0468-.0156.0859-.0391.1172-.0703.1718-.0938.2656-.1485.2812-.1641.125-.0469.2109-.0781.2578-.0937.0469-.0157.086-.0313.1172-.0469.1875-.0781.3047-.125.3516-.1406.0625-.0313.1093-.0625.1406-.0938.125-.0781.2109-.1172.2578-.1172.0469-.0156.0938-.039.1406-.0703.0938-.0469.1485-.0703.1641-.0703.0312-.0156.0625-.0313.0937-.0469.0625-.0312.1172-.0468.1641-.0468.0469-.0157.0859-.0391.1172-.0704.1719-.0781.2578-.125.2578-.1406.0156-.0312.0313-.0469.0469-.0469.0937-.1093.1797-.164.2578-.164.0781-.0157.1328-.0547.1641-.1172zm11.0862-2.3203c.172 0 .289-.0313.351-.0937.125-.0938.203-.1485.235-.1641.031-.0156.062-.0391.093-.0703.157-.1406.266-.2578.329-.3516.125-.125.187-.1953.187-.2109.109-.1094.18-.1797.211-.211.031-.0312.063-.0625.094-.0937.109-.0469.187-.0938.234-.1406.063-.0625.125-.1094.188-.1407.109-.0468.187-.0859.234-.1171.172-.0626.258-.0938.258-.0938.015-.0156.031-.0234.047-.0234.031-.0313.062-.0547.093-.0704.032-.0312.071-.0624.118-.0937.093-.0156.179-.0469.257-.0937.172-.0626.305-.0938.399-.0938.187-.0781.289-.1172.305-.1172.062-.0312.117-.039.164-.0234.047 0 .086-.0078.117-.0235.156.0157.25.0235.281.0235h.399c.078-.0156.14-.0156.187 0 .094.0156.172.0547.234.1172.063.0625.141.0937.235.0937.031.0469.062.0859.094.1172.031.0313.054.0781.07.1406.125.1094.18.1641.164.1641 0 0 .008.0078.023.0234.063.1719.094.2656.094.2813.031.1719.031.3359 0 .4922-.016.0937-.023.25-.023.4687.015.2188-.016.3672-.094.4453.031.1563.031.3203 0 .4922 0 .0781-.008.1563-.024.2344-.015.0625-.023.1328-.023.2109v.2813c.016.0937.023.1875.023.2812 0 .0625-.007.125-.023.1875s-.031.1172-.047.1641c-.031.1562-.055.2656-.07.3281 0 .0469-.008.0938-.024.1406-.078.2188-.132.3516-.164.3985-.047.0469-.093.0703-.14.0703-.032 0-.071.0078-.117.0234-.172.0625-.274.086-.305.0703-.016-.0156-.047-.039-.094-.0703-.047.0156-.094.0156-.141 0-.046-.0312-.093-.0468-.14-.0468-.281.0156-.453.0312-.516.0468h-.258c-.14.0469-.234.086-.281.1172-.047.0156-.086.0391-.117.0703-.172.0313-.273.0625-.305.0938-.109.0156-.187.0312-.234.0469-.031.0156-.063.0312-.094.0468-.172.0313-.281.0469-.328.0469-.109.0469-.195.1016-.258.1641-.172.0625-.273.1093-.304.1406-.032.0312-.071.0547-.118.0703-.031.0469-.07.0859-.117.1172-.031.0156-.062.0391-.094.0703-.093.0625-.164.1172-.211.1641-.109.0781-.187.1484-.234.2109-.047.0469-.094.0859-.141.1172-.031.0312-.07.0625-.117.0937-.031.0313-.062.0625-.093.0938-.016.0625-.04.1094-.071.1406-.031.0313-.062.0625-.094.0938-.078.1875-.132.3125-.164.375-.031.0468-.046.1093-.046.1875-.063.0625-.11.1406-.141.2343-.016.0782-.039.1719-.07.2813-.016.0781-.032.164-.047.2578-.016.0781-.024.1562-.024.2344.032.2031.032.3359 0 .3984-.015.1563-.023.25-.023.2813.015.0312.023.0625.023.0937-.015.1719-.023.2891-.023.3516.015.0468.023.1015.023.164-.031.2188-.054.3594-.07.4219 0 .0469-.008.0938-.023.1406v.1172c.015.2344.015.3985 0 .4922-.016.0781-.024.1641-.024.2578v.211c.016.0625.024.1328.024.2109 0 .375.031.6641.093.8672.016.125.032.2109.047.2578.016.0469.024.0938.024.1406.031.125.046.2344.046.3282 0 .0937-.007.1562-.023.1874-.016.1094-.023.1954-.023.2579-.079.1406-.118.2265-.118.2578 0 .0312-.007.0625-.023.0937-.031.0469-.078.0938-.141.1406-.062.0313-.109.0704-.14.1172-.11-.0156-.235 0-.375.0469-.11.0313-.188.0391-.235.0235-.047 0-.093.0078-.14.0234-.047 0-.094 0-.141 0-.047.0156-.086.0234-.117.0234-.188.0156-.289.0156-.305 0 0 0-.008 0-.023 0-.172 0-.274-.0078-.305-.0234-.016 0-.031 0-.047 0l-.633.0937c-.234.0157-.398.0235-.492.0235-.078.0156-.156.0078-.234-.0235-.219-.0312-.375-.0625-.469-.0937-.078-.0313-.156-.0469-.234-.0469-.11-.0937-.196-.1641-.258-.2109-.063-.0625-.125-.1172-.188-.1641-.046-.1562-.078-.25-.093-.2812 0-.0313-.008-.0625-.024-.0938-.062-.2187-.094-.3359-.094-.3515 0-.2032 0-.3672 0-.4922.016-.1407.032-.2578.047-.3516.016-.0625.024-.1797.024-.3516.031-.1718.047-.2656.047-.2812 0-.0781 0-.1484 0-.211 0-.0624.007-.1093.023-.1406.031-.2187.047-.3437.047-.375-.016-.125-.023-.1953-.023-.2109.015-.0313.023-.0625.023-.0938 0-.0781-.008-.1718-.023-.2812 0-.1094 0-.2188 0-.3281.031-.1875.039-.2891.023-.3047 0-.0157.008-.0391.023-.0703 0-.0782.008-.1485.024-.211.015-.0625.008-.125-.024-.1875 0-.1719 0-.2656 0-.2812.016-.0313.024-.0625.024-.0938 0-.125 0-.2343 0-.3281.015-.1094.015-.2266 0-.3516 0-.0468-.008-.0937-.024-.1406 0-.0625 0-.125 0-.1875 0-.1406.008-.2656.024-.375.015-.125.015-.25 0-.375-.016-.2031-.031-.3672-.047-.4922 0-.125.008-.25.023-.375-.015-.1562-.023-.2422-.023-.2578-.031-.1094-.047-.1875-.047-.2344.016-.0625.016-.1328 0-.2109 0-.1406-.016-.2188-.047-.2344-.015-.0312-.023-.0625-.023-.0937.015-.1407.015-.2422 0-.3047-.016-.0625-.024-.125-.024-.1875.016-.0625.024-.1094.024-.1406.015-.0469.023-.0938.023-.1407-.015-.1406-.023-.2187-.023-.2343.015-.0157.023-.0313.023-.0469l-.023-.586c0-.1093 0-.1953 0-.2578 0-.0781-.016-.1562-.047-.2343-.016-.0782-.016-.1719 0-.2813.016-.125.016-.2031 0-.2344-.016-.0468-.024-.1015-.024-.164.016-.0782.016-.1563 0-.2344-.015-.0781-.023-.1484-.023-.2109 0-.0469 0-.0938 0-.1407.016-.0625.023-.1172.023-.164 0-.0782-.015-.1563-.046-.2344-.016-.0781-.024-.1562-.024-.2344.063-.2344.102-.375.117-.4218.016-.0626.047-.125.094-.1876.141-.125.211-.1953.211-.2109s.008-.0234.023-.0234c.125-.0157.211-.0157.258 0 .047 0 .078-.0157.094-.0469.047.0312.094.0391.141.0234.062-.0156.117-.0234.164-.0234.25-.0469.531-.0469.843 0 .172.0312.266.0469.282.0469.015-.0157.031-.0235.047-.0235h.281c.047-.0156.094-.0234.14-.0234.11-.0156.18-.0156.211 0 .047 0 .102-.0078.164-.0234.188-.0313.297-.0391.329-.0235.031 0 .07-.0078.117-.0234.031 0 .078.0078.14.0234.063 0 .118-.0156.164-.0469.125.0157.235.0313.329.0469.093 0 .211.0078.351.0235.11.1093.188.164.235.164.046.0469.078.1328.093.2578.047.1407.063.2266.047.2578 0 .0313.008.0626.024.0938 0 .0781.015.1719.046.2812.032.1094.047.2188.047.3282v.2578z" fill="#693821"/></svg>