<svg fill="none" height="26" viewBox="0 0 171 26" width="171" xmlns="http://www.w3.org/2000/svg"><path d="m12.6201 5.37695c-.1719.08594-.2936.12175-.3652.10743-.0573-.02865-.1361-.03581-.2363-.02149-.043-.01432-.086-.01432-.129 0-.0429.01432-.0787.02865-.1074.04297-.0429 0-.0859-.00716-.1289-.02148-.0429-.01433-.0931-.00717-.1504.02148-.0286 0-.0644.00716-.1074.02148-.043 0-.0859-.00716-.1289-.02148-.1862-.02865-.3223-.02865-.4082 0-.043 0-.0859-.00716-.1289-.02148-.043-.01433-.0788-.02149-.1074-.02149-.1719.04297-.2936.07162-.3653.08594-.0716.01432-.1432.02864-.2148.04297-.08595.02864-.17904.05013-.2793.06445-.08594 0-.17188.01432-.25782.04297-.05729.01432-.14323.05013-.25781.10742-.14323.07162-.24349.11458-.30078.12891-.05729.01432-.11458.0358-.17188.06445-.05729.02865-.10742.04297-.15039.04297-.02864 0-.06445.01432-.10742.04297-.20052.14323-.34375.222-.42969.23633-.1289.07161-.20768.12174-.23632.15039-.01433.01432-.02865.02864-.04297.04296-.12891.08594-.21485.1504-.25782.19336-.14322.07162-.24348.1504-.30078.23633-.1289.11459-.19336.17188-.19336.17188-.10026.1289-.16471.222-.19336.27929-.02864.04297-.05729.0931-.08593.1504-.08594.08593-.13607.15039-.15039.19335-.01433.02865-.03581.05013-.06446.06446-.02864.05729-.05013.10026-.06445.1289-.01432.02865-.02865.07162-.04297.12891-.04297.12891-.07161.20768-.08594.23633v.04297c-.04296.15755-.06445.26497-.06445.32226v.15039c0 .10026-.00716.17904-.02148.23633.02864.10026.04297.19336.04297.2793 0 .07161.01432.15755.04296.25781.02865.10026.07162.19336.12891.2793.07161.1289.10742.20771.10742.23631.01433.0287.02865.0573.04297.086.08594.1575.12891.2363.12891.2363.01432 0 .02864.0143.04297.043.02864.0286.05013.0644.06445.1074.02864.0429.05729.0787.08594.1074.10026.1146.15039.179.15039.1934.01432.0143.0358.0358.06445.0644.10026.1146.15755.1719.17188.1719.10026.0429.17187.0859.21484.1289.08594.0573.15039.1074.19336.1504.1862.0859.29362.1504.32226.1933.04297.0287.08594.0573.12891.086.12891.0429.19336.0716.19336.0859.01432 0 .03581.0072.06445.0215.15755.0573.25782.0859.30078.0859.02865.0144.06446.0287.10743.043.04296.0143.08593.0358.1289.0645.02865.0143.06446.0214.10742.0214.04297 0 .08594.0144.12891.043l.25781.0645c.1862.0716.34375.1145.47266.1289.17186.0429.27926.0716.32226.0859.0573.0143.1074.0287.1504.043.1146.0286.2292.0501.3437.0644.1146 0 .2364.0072.3653.0215.0429 0 .0859.0072.1289.0215h.1504.2578c.0286-.0143.0573-.0215.0859-.0215.0287 0 .0645.0072.1074.0215.0573.0143.1218.0286.1934.043h.1504c.0573-.0144.1146-.0072.1719.0214.1575.0573.2506.1504.2793.2793.0286.129.0501.2722.0644.4297v.3438c.0143.0716.0215.1361.0215.1933v.1719c0 .0716-.0072.1432-.0215.2149v.1933c-.0143.1433-.0215.2865-.0215.4297v.2793c0 .1432-.0071.2435-.0214.3008v.1289.4297c.0286.0859.0429.1432.0429.1719.0143.0286.0143.0572 0 .0859-.0286.0716-.0429.1289-.0429.1719.0143.0429.0214.0787.0214.1074-.0143.0859-.0214.1432-.0214.1719.0143.0143.0071.0429-.0215.0859-.043.1862-.1146.3223-.2149.4082-.2005.0859-.3437.1361-.4297.1504-.0716.0143-.1647.0286-.2793.043-.0716 0-.1289 0-.1718 0-.043.0143-.1003.0215-.1719.0215-.1576.0429-.265.0644-.3223.0644s-.1074 0-.1504 0c-.1289.043-.2363.0573-.3222.043-.0716-.0144-.1289-.0215-.1719-.0215-.0287.0286-.0716.043-.1289.043s-.1003-.0144-.1289-.043c-.0143-.0143-.0788-.0072-.19338.0215-.10026.0286-.17187.0358-.21484.0215-.25781-.0573-.43685-.086-.53711-.086s-.20052-.0143-.30078-.0429c-.20052-.0573-.34375-.1003-.42969-.129-.07161-.0143-.15039-.0286-.23633-.0429-.04297-.0143-.08593-.0215-.1289-.0215s-.08594-.0072-.12891-.0215c-.07161 0-.12174-.0143-.15039-.043-.02865-.0143-.05729-.0143-.08594 0-.17187-.0573-.25781-.0859-.25781-.0859 0-.0143-.00716-.0215-.02148-.0215-.15756-.0286-.24349-.0501-.25782-.0644-.01432-.0144-.02864-.0215-.04297-.0215-.14322-.0287-.22916-.0502-.25781-.0645l-.34375-.1074c-.05729-.0143-.1289-.0501-.21484-.1074-.1862-.1003-.28646-.1504-.30078-.1504-.17188-.0716-.28646-.1146-.34375-.1289-.04297-.0143-.0931-.0287-.15039-.043-.15756-.0859-.25782-.1361-.30078-.1504-.02865-.0143-.06446-.0358-.10743-.0644-.14323-.0716-.222-.1146-.23632-.1289 0-.0144-.00717-.0215-.02149-.0215-.11458-.0573-.19336-.0931-.23633-.1074-.02864-.0144-.05729-.0215-.08593-.0215-.02865-.043-.07162-.086-.12891-.1289-.04297-.043-.07878-.1003-.10742-.1719-.02865-.0287-.07162-.043-.12891-.043-.04297 0-.07878-.0143-.10742-.0429-.17188-.1433-.2793-.2292-.32227-.2579-.14323-.1002-.22916-.1503-.25781-.1503-.02864-.0144-.05729-.0359-.08594-.0645-.02864-.0286-.05729-.0573-.08593-.0859-.02865-.043-.0573-.0788-.08594-.1075-.04297-.0573-.0931-.1002-.15039-.1289-.04297-.0429-.08594-.0931-.12891-.1504-.11458-.1432-.1862-.2148-.21484-.2148-.01433-.0143-.03581-.0358-.06446-.0645-.07161-.1002-.12174-.179-.15039-.2363-.02864-.0573-.07161-.1002-.1289-.1289-.14323-.1719-.21485-.2793-.21485-.3223-.10026-.1002-.15755-.1647-.17187-.1933l-.15039-.2149c-.08594-.1718-.13607-.2578-.15039-.2578-.11459-.1862-.17904-.2793-.19336-.2793-.02865-.1432-.07162-.2649-.12891-.3652-.04297-.1146-.07161-.2005-.08594-.2578-.08593-.2149-.13606-.3509-.15039-.4082-.02864-.0716-.05729-.1576-.08593-.2578-.01433-.1003-.02865-.1934-.04297-.2793-.07162-.2005-.107424-.3223-.107424-.3653 0-.1862-.014323-.3079-.042969-.3652-.014323-.0716-.021484-.1432-.021484-.2148 0-.1003.007161-.17907.021484-.23637.014323-.05729.021485-.10742.021485-.15039 0-.14323-.007162-.222-.021485-.23632 0-.02865 0-.0573 0-.08594l.021485-.23633c.028645-.17187.050128-.2793.064448-.32227.04297-.11458.0573-.17903.04297-.19336 0-.01432.00716-.0358.02149-.06445.02864-.10026.04297-.17187.04297-.21484s.00716-.0931.02148-.15039c.02865-.14323.04297-.25782.04297-.34375.01432-.02865.02865-.06446.04297-.10742.01432-.04297.02864-.08594.04297-.12891.01432-.17188.02864-.26497.04297-.2793.01432-.01432.02148-.0358.02148-.06445.04297-.12891.05729-.20052.04297-.21484 0-.01433 0-.02865 0-.04297.04297-.12891.0931-.24349.15039-.34375.04297-.17188.07161-.27214.08594-.30078.11458-.15756.17187-.25066.17187-.2793.01433-.02865.03581-.05729.06446-.08594.08593-.14323.14322-.22917.17187-.25781.01432-.02865.02148-.07162.02148-.12891.01433-.05729.02865-.10026.04297-.1289.11459-.12891.17188-.20052.17188-.21485 0-.01432.01432-.02864.04297-.04297.04297-.11458.10742-.22916.19336-.34375.05729-.10026.08593-.15755.08593-.17187.01433-.01432.02149-.03581.02149-.06445.07161-.08594.13607-.14323.19336-.17188.08594-.14323.13607-.222.15039-.23633.10026-.10026.15039-.15755.15039-.17187 0-.01433.01432-.02865.04297-.04297.02864-.02865.06445-.05013.10742-.06445.04297-.02865.08594-.0573.12891-.08594.08593-.08594.15039-.15039.19336-.19336.04296-.05729.08593-.11458.1289-.17188.14323-.10026.21485-.15755.21485-.17187.07161-.07162.1289-.12891.17187-.17188.04297-.07161.07878-.11458.10742-.1289l.08594-.08594c.14323-.14323.21484-.20768.21484-.19336.10026-.08594.17904-.14323.23633-.17187.07162-.04297.14323-.08594.21485-.12891.11458-.05729.17903-.0931.19335-.10742.02865-.02865.0573-.05013.08594-.06446.05729-.04296.11459-.07877.17188-.10742.05729-.02864.11458-.05729.17187-.08593.07162-.02865.13607-.05014.19336-.06446s.12175-.02864.19336-.04297l.17188-.17187c.15755-.05729.25065-.0931.27929-.10742.15755-.0573.25782-.08594.30078-.08594.0573 0 .10743-.00716.15039-.02149.17188-.07161.27214-.11458.30079-.1289.20052-.05729.3151-.0931.34375-.10742.04296-.01433.08593-.01433.1289 0 .10026-.04297.17904-.06446.23633-.06446l.23633-.08593.23633-.04297c.20052-.04297.32942-.06446.38672-.06446.05729-.01432.12174-.0358.19335-.064449.14323-.042969.22917-.057292.25782-.042969.02864.014323.05729.021484.08593.021484.15756 0 .25782-.007161.30079-.021484.05729-.028646.11458-.042969.17187-.042969.10026 0 .20052.014323.30079.042969.1003.014323.2005.007161.3008-.021484h.3652c.043-.014323.0859-.014323.1289 0 .0716.042968.1504.042968.2363 0 .1003-.028646.1576-.035808.1719-.021485.0287.014323.0573.021485.086.021485.1718.057291.2721.085932.3007.085932.0287-.01432.0573-.01432.086 0 .1575.07162.2435.10743.2578.10743.0286-.01433.0573-.02149.0859-.02149.086 0 .1433.00716.1719.02149.043.01432.0788.00716.1074-.02149l.2149.15039c.0573.10026.0931.15756.1074.17188s.0215.02864.0215.04297c.0143.04297.0143.10742 0 .19336 0 .07161.0071.15039.0215.23632.0143.14323.0214.21485.0214.21485.0144 0 .0215.00716.0215.02148v.19336c.0143.05729.0143.11459 0 .17188 0 .05729-.0071.11458-.0215.17187v.19336.25781c.0144.01433.0215.02865.0215.04297-.0429.25782-.0644.42253-.0644.49414v.30078.12891c0-.01432 0-.02865 0-.04297s-.0072-.01432-.0215 0v.15039.17188c.0143.01432.0215.0358.0215.06445v.23633c.0143.04297.0215.07877.0215.10742 0 .05729-.0072.11458-.0215.17188-.0144.04296-.0215.10026-.0215.17187-.043.15755-.0573.24349-.043.25781zm6.252-4.898434c-.0287.057291-.043.128906-.043.214843 0 .085938.0072.164714.0215.236329-.0143.200522-.0215.358072-.0215.472652.0143.10026.0215.20769.0215.32227v.62305c-.0143.17187-.0287.27929-.043.32226-.0143.02865-.0215.05729-.0215.08594-.0286.1862-.0429.29362-.0429.32226.0143.15756.0143.25066 0 .2793v.06446c-.0144.14322-.0287.21484-.043.21484v.04297.17187c.0143.01433.0215.03581.0215.06446-.0143.11458-.0287.22916-.043.34375 0 .10026-.0072.20768-.0215.32226.0143.10026.0143.17904 0 .23633s-.0215.12174-.0215.19336c.0287.10026.0358.19336.0215.2793v.27929.25781c0 .12891-.0071.25782-.0215.38672-.0143.11459-.0143.25782 0 .42969.1289-.11458.2006-.17904.2149-.19336.0286-.01432.0573-.03581.0859-.06445.1003-.08594.1791-.14323.2364-.17188.0429-.08593.0859-.1289.1289-.1289.0429-.01433.0644-.05729.0644-.12891l.2793-.12891c.0573-.02864.1003-.06445.1289-.10742.043-.05729.0931-.10742.1504-.15039.1432-.10026.222-.15755.2363-.17187.0573-.05729.1075-.0931.1504-.10742.043-.01433.0788-.03581.1074-.06446.1433-.11458.2435-.1862.3008-.21484.0573-.02865.1074-.05729.1504-.08594.0573-.07161.1218-.12174.1934-.15039.0716-.04297.136-.10026.1933-.17187.086-.01433.1576-.05013.2149-.10743.1575-.11458.3366-.17187.5371-.17187.0859-.01432.1647-.01432.2363 0l.2578.15039c.1289.10026.2077.16471.2364.19336.1289.08594.2506.15755.3652.21484.1146.11459.1934.1862.2363.21485.043.02864.0716.06445.086.10742.1289.05729.2148.10742.2578.15039.0286.02864.0573.06445.0859.10742.043.04297.0788.07878.1074.10742.1289.08594.2006.12891.2149.12891.1002.05729.1647.10742.1933.15039.1289.04297.222.11458.2793.21484s.1433.17904.2578.23633c.1003.12891.1504.19336.1504.19336 0-.01432.0072-.01432.0215 0 .0287.02865.0573.07162.086.12891.0286.05729.0572.10742.0859.15039.0716.07161.1217.1289.1504.17187.0286.02865.0573.06446.0859.10742.1719.21485.2865.40105.3438.5586s.1289.30794.2148.45117c-.0143.04297-.0215.08594-.0215.12891.0144.02864.0287.07161.043.1289l.0215.30078c.0143.15756.0358.2793.0644.36524.0144.04297.0144.08594 0 .1289-.0143.04297-.0286.10026-.0429.17188.0143.15755.0143.26497 0 .32227v.1289.10742c.0143.04297.0143.0931 0 .15039-.0287.18621-.0502.31511-.0645.38671 0 .0573.0072.1361.0215.2363 0 .1576-.0072.2722-.0215.3438-.0143.0573-.0215.1217-.0215.1933-.0143.0287-.0215.0645-.0215.1075.0144.0429.0215.0931.0215.1504.0287.1862.0287.4082 0 .666.0144.1432.0144.2148 0 .2148v.0215c.0144.1146.0144.179 0 .1934v.0429.1289c.0144.043.0215.086.0215.1289v.1934c.0143.0143.0215.0287.0215.043-.043.1289-.0645.2005-.0645.2148.0144.0143.0215.0358.0215.0645v.1718c.0144.043.0215.0931.0215.1504 0 .1289-.0071.2578-.0215.3868-.0143.1145-.0071.222.0215.3222.0287.1289.043.265.043.4082 0 .1433.0071.2936.0215.4512 0 .1575.0071.2506.0215.2793.0143.0286.0214.0573.0214.0859v.4727c0 .1432.0072.2864.0215.4297v.1504c.0143.0429.0143.0787 0 .1074-.1432.1432-.2291.2363-.2578.2793-.1146.043-.2148.0788-.3008.1074-.1289.0287-.2148.043-.2578.043-.0286 0-.0573-.0072-.0859-.0215-.0716 0-.1576-.0072-.2578-.0215-.1003 0-.1934.0072-.2793.0215-.1719-.0143-.2865-.0143-.3438 0s-.1289.0143-.2148 0h-.3438c-.0573 0-.1146 0-.1719 0-.0429.0143-.0931.0143-.1503 0-.1576-.0287-.2364-.0501-.2364-.0645-.0143-.0286-.0573-.0358-.1289-.0214-.0573.0286-.1002.0429-.1289.0429-.043 0-.0859-.0071-.1289-.0215-.043 0-.0788 0-.1074 0-.1289.043-.222.0645-.2793.0645-.043 0-.1003 0-.1719 0-.1432.0286-.2506.0215-.3222-.0215-.1003-.1003-.1934-.179-.2793-.2363 0-.0716-.0072-.1361-.0215-.1934-.0144-.0716-.0144-.1504 0-.2363l.0215-.3008c.0286-.1575.0429-.2363.0429-.2363.0143-.0287.0358-.1146.0645-.2578.0143-.0573.0215-.1003.0215-.1289.0143-.043.0286-.1003.0429-.1719 0-.1719.0072-.2936.0215-.3652.0143-.086.0215-.1576.0215-.2149 0-.0286-.0072-.0644-.0215-.1074 0-.0573.0072-.1003.0215-.1289.0143-.1289.0143-.1934 0-.1934 0-.0143 0-.0286 0-.0429.0143-.1433.0215-.2221.0215-.2364.0143-.0143.0215-.0286.0215-.0429.0143-.129.0143-.1934 0-.1934 0-.0143.0071-.0358.0215-.0645 0-.1575 0-.2434 0-.2578.0143-.0143.0214-.0286.0214-.0429l-.0214-.3008c0-.0573-.0072-.1146-.0215-.1719 0-.0573 0-.1217 0-.1934 0-.0286 0-.0572 0-.0859.0143-.043.0215-.0931.0215-.1504-.0287-.1719-.043-.2864-.043-.3437.0143-.0716.0143-.1218 0-.1504-.0287-.0573-.0358-.1504-.0215-.2793s.0072-.2292-.0215-.3008c.0287-.0573.043-.1361.043-.2363 0-.1146-.0143-.2077-.043-.2793.0287-.0287.0358-.0716.0215-.1289s-.0143-.1075 0-.1504c0-.1433-.0072-.2507-.0215-.3223-.0143-.0859-.0071-.1504.0215-.1933-.0286-.1433-.0501-.24354-.0645-.30083 0-.05729-.0286-.10026-.0859-.1289-.1289-.11459-.1934-.1862-.1934-.21485-.2148-.01432-.3652.01432-.4511.08594-.1003.11458-.1576.17904-.1719.19336 0 0-.0072 0-.0215 0-.1002.14323-.179.24348-.2363.30078-.043.043-.0859.0859-.1289.1289-.086.1146-.1576.2005-.2149.2578-.1575.086-.2721.1576-.3437.2149-.0573.0573-.1289.0787-.2149.0644-.0716 0-.1289-.0215-.1718-.0644-.043-.0573-.1075-.1003-.1934-.1289-.0286-.0717-.0644-.1289-.1074-.1719s-.0716-.1003-.0859-.1719c-.0287-.0286-.0573-.0573-.086-.0859-.0143-.043-.0358-.0788-.0644-.1075-.086-.14318-.1433-.23628-.1719-.27925-.0143-.04297-.0358-.08594-.0645-.12891-.0429.02865-.0644.06446-.0644.10743v.1289.27933.4511c0 .0717-.0072.1504-.0215.2364 0 .0859.0072.179.0215.2793v.5156c.0143.1719.0143.3509 0 .5371.0429.0716.0573.1504.0429.2363 0 .0716.0072.1504.0215.2364v.2578c.0144.1718.0215.2793.0215.3222.0143.0287.0215.0573.0215.086-.0286.1718-.0358.2864-.0215.3437s.0215.1218.0215.1934c-.0143.0429-.0143.1002 0 .1719.0143.0716.0215.136.0215.1933 0 .043-.0072.086-.0215.1289 0 .043.0072.086.0215.1289.0143.1576.0286.2578.043.3008.0143.043.0214.0788.0214.1074v.3438c.0144.0429.0215.0931.0215.1504.0143.0573.0215.1575.0215.3008.0287.1289.0358.2005.0215.2148v.0645c.0143.0859.0286.1503.043.1933.0143.043.0214.0859.0214.1289-.0143.1432-.0214.2292-.0214.2578.0143.0144.0214.0358.0214.0645-.0429.1432-.0644.2506-.0644.3222 0 .0717-.0143.1218-.043.1504-.1575.0144-.2721.0215-.3437.0215-.0573.0143-.1218.0358-.1934.0645-.2435.0286-.4368.0215-.5801-.0215-.1432-.0287-.2291-.043-.2578-.043-.0286.0143-.0573.0215-.0859.0215-.1289-.0143-.222-.0215-.2793-.0215s-.1218-.0071-.1934-.0215c-.1718.0144-.2649.0072-.2793-.0214-.0859 0-.1718-.0072-.2578-.0215-.0716-.0144-.1432-.0287-.2148-.043h-.2364c-.1432.0286-.2363.043-.2792.043-.0287 0-.0645.0071-.1075.0215-.1146 0-.1862-.0072-.2148-.0215-.0143 0-.0358.0071-.0645.0215-.0573 0-.1146.0071-.1718.0214-.0573.0144-.1218.0072-.1934-.0214-.1576 0-.2865 0-.3867 0-.043-.1003-.0788-.1504-.1074-.1504-.0144-.0144-.0287-.0287-.043-.043-.0287-.1289-.043-.2077-.043-.2363.0143-.043.0215-.086.0215-.1289 0-.086-.0072-.1719-.0215-.2579 0-.0859 0-.1647 0-.2363l.0215-.2578c.0143-.0573.0215-.1146.0215-.1719s.0143-.1074.043-.1504c.0286-.1718.0358-.2793.0214-.3222 0-.0573.0144-.1146.043-.1719.0143-.1719.0143-.2865 0-.3437-.0143-.0717-.0143-.1361 0-.1934.0287-.1862.043-.3008.043-.3438l-.0215-.2793c0-.0859 0-.1647 0-.2363s-.0143-.1361-.043-.1933c.0287-.1719.0287-.2793 0-.3223-.0143-.0573-.0071-.0931.0215-.1074 0-.1433 0-.2507 0-.3223 0-.1862-.0072-.3008-.0215-.3437-.0143-.043-.0071-.086.0215-.129v-.5585c0-.0573-.0072-.1146-.0215-.1719s-.0215-.1074-.0215-.1504c0-.0716.0072-.1361.0215-.1934.0143-.0716 0-.136-.0429-.1933.0286-.2435.0429-.4942.0429-.752.0143-.27212.0072-.52277-.0215-.75194 0-.04297-.0071-.08594-.0214-.1289-.0144-.0573-.0144-.10026 0-.12891 0-.04297.0071-.07878.0214-.10742.0144-.04297.0215-.08594.0215-.12891 0-.15755-.0071-.25065-.0215-.2793 0-.04296 0-.07877 0-.10742v-.4082-.73047c0-.05729 0-.10742 0-.15039.0144-.04297.0215-.08594.0215-.12891 0-.1289 0-.20052 0-.21484.0143-.01432.0215-.02865.0215-.04297-.0286-.14323-.0358-.25781-.0215-.34375.0143-.10026.0215-.17187.0215-.21484.0143-.07162.0143-.15039 0-.23633 0-.08594.0072-.16471.0215-.23633.0143-.01432.0215-.05013.0215-.10742s0-.11458 0-.17187c0-.11459-.0072-.23633-.0215-.36524 0-.12891.0072-.25781.0215-.38672.0143-.14323.0143-.22916 0-.25781-.0143-.04297-.0215-.07878-.0215-.10742.0286-.15755.0358-.25781.0215-.30078s-.0215-.0931-.0215-.15039c.0143-.12891.0143-.20769 0-.23633 0-.02865.0143-.05013.043-.06446-.0287-.1289-.0502-.19335-.0645-.19335 0-.01433 0-.03581 0-.06446-.0143-.15755-.0215-.27213-.0215-.34375l-.0215-.23633c-.0286-.11458-.0358-.17903-.0214-.19336.0143-.02864.0071-.05013-.0215-.06445.0143-.07161.0071-.14323-.0215-.21484-.0143-.07162-.0287-.14323-.043-.21485 0-.15755-.0071-.24349-.0215-.25781 0-.02864 0-.05729 0-.08594-.0286-.08593-.0501-.17187-.0644-.25781s-.0072-.17904.0215-.2793c.0143-.07161.0143-.1289 0-.17187 0-.057292 0-.100261 0-.128907 0-.085937-.0072-.164713-.0215-.236328 0-.071615.0215-.143229.0644-.214844.043-.10026.086-.15039.1289-.15039.043 0 .086-.007162.1289-.021485.1862-.057291.2937-.093099.3223-.107422.1003-.014323.1576-.014323.1719 0h.0859c.1146-.014323.1791-.021484.1934-.021484.0286 0 .0573-.014323.0859-.042969.0573.028646.1074.035808.1504.021485.043-.028646.0931-.0429691.1504-.0429691.043 0 .0859.0071614.1289.0214841h.1074.1075c.0572-.0143227.1074-.0214841.1503-.0214841.043-.0143229.0788-.0214844.1075-.0214844.0429 0 .0859-.0143229.1289-.0429687.0286-.014323.0716-.0071615.1289.0214843.0716.0143229.136.0286459.1933.0429688.1719 0 .265.0071614.2793.0214841h.0645.2793.2363.3438c.0716.014323.1217.021485.1504.021485.0286-.014323.0644-.014323.1074 0 .1289.028645.2077.064453.2363.107422.043.028645.0859.057291.1289.085937.0859.042969.1218.085937.1074.128906 0 .042969.0287.05013.086.021485zm15.748 16.585984c-.0716-.1719-.1217-.2722-.1504-.3008-.0143-.043-.0286-.1003-.0429-.1719l.0214-.2793c0-.0573-.0071-.1074-.0214-.1504-.0144-.0573-.0215-.1074-.0215-.1504-.0287-.1575-.0573-.265-.086-.3222.0144-.086.0215-.1433.0215-.1719 0-.043-.0071-.0788-.0215-.1074l-.1289-.2149c-.1146.1432-.1647.2149-.1504.2149-.1145.0716-.179.1217-.1933.1503-.086.086-.1361.129-.1504.129s-.0358.0143-.0645.0429c-.1002.1433-.179.2435-.2363.3008-.1146.1289-.1719.1934-.1719.1934-.0716.0859-.136.1432-.1933.1718-.086.086-.1361.1433-.1504.1719-.0143.0143-.043.0358-.086.0645-.1002.1145-.179.1862-.2363.2148-.1289.1432-.2077.2149-.2363.2149-.0287.0286-.0645.0501-.1074.0644-.043.0287-.0788.0573-.1075.0859-.0429.0144-.1217.0215-.2363.0215-.1432 0-.2435 0-.3008 0-.1718-.0573-.2721-.1002-.3007-.1289-.129-.0286-.2149-.0501-.2579-.0644-.0429-.0144-.0859-.0215-.1289-.0215-.1289-.1003-.1933-.1504-.1933-.1504-.1146-.0287-.1791-.043-.1934-.043-.0143-.0143-.0286-.0215-.043-.0215-.1432-.0573-.2363-.0931-.2792-.1074-.0287-.0286-.0788-.043-.1504-.043-.086-.0572-.1361-.093-.1504-.1074 0-.0286-.0072-.0501-.0215-.0644-.086-.0573-.1576-.0931-.2149-.1074-.0286-.0717-.0716-.1146-.1289-.129-.0573-.0286-.1145-.0644-.1718-.1074-.1003-.1002-.1576-.1504-.1719-.1504 0-.0143-.0143-.0358-.043-.0644l-.1933-.1934-.1719-.1933c-.1146-.1576-.2005-.2793-.2578-.3653-.1433-.1718-.2149-.2721-.2149-.3008-.1862-.1718-.2864-.2649-.3008-.2792-.0716-.0717-.1217-.1433-.1503-.2149-.0717-.1003-.1218-.179-.1504-.2363-.0573-.043-.0931-.1074-.1075-.1934 0-.0859 0-.1719 0-.2578-.0286-.1146-.0644-.222-.1074-.3223-.0429-.1002-.0573-.1718-.0429-.2148.0143-.043.0143-.1003 0-.1719.0429-.0716.0716-.136.0859-.1933.0286-.0573.0788-.1003.1504-.1289.0573-.1433.0931-.2149.1074-.2149.0716-.1002.1217-.1719.1504-.2148.0573-.1003.0931-.1576.1074-.1719.0287-.0287.0573-.0573.086-.0859.0286-.0573.0859-.1289.1718-.2149.0573-.043.1074-.0931.1504-.1504.0573-.0573.1146-.1146.1719-.1719.1146-.1289.222-.2434.3223-.3437.1145-.1289.1718-.1934.1718-.1934.0144 0 .0287-.0071.043-.0214.1432-.1146.222-.1862.2363-.2149.0287-.0286.0573-.0573.086-.0859.1289-.086.2005-.1289.2148-.1289s.0358-.0072.0645-.0215c.1432-.086.222-.1361.2363-.1504.1146-.0716.179-.1218.1934-.1504.0286-.0286.0572-.0501.0859-.0645.1432-.08589.2435-.14318.3008-.17183.1289-.10026.1933-.15039.1933-.15039.0144 0 .0287-.00716.043-.02148.1576-.05729.2506-.11459.2793-.17188.1432-.05729.2578-.10742.3437-.15039.086-.05729.1791-.10026.2793-.12891.1576-.07161.2579-.1289.3008-.17187.1433-.11458.2149-.1862.2149-.21484-.0573-.04297-.1218-.0573-.1934-.04297-.0573 0-.1289 0-.2148 0-.1289 0-.222 0-.2793 0s-.1146 0-.1719 0c-.043 0-.0931.00716-.1504.02148-.043 0-.0931-.00716-.1504-.02148-.1862-.02865-.3079-.03581-.3652-.02149-.043 0-.086 0-.1289 0l-.3653.02149c-.0859-.02865-.1718-.04297-.2578-.04297-.0429.01432-.0931.02148-.1504.02148-.0573-.01432-.1074-.02148-.1504-.02148-.0859 0-.179.01432-.2793.04297-.1002.01432-.2076.02148-.3222.02148-.043.01432-.0931.02149-.1504.02149-.043-.01433-.0931-.02149-.1504-.02149-.2148 0-.3867 0-.5156 0-.1146-.01432-.2292-.01432-.3438 0-.1719-.01432-.265-.02864-.2793-.04297-.0143-.02864-.0358-.05729-.0644-.08593-.0716-.15756-.1074-.24349-.1074-.25782.0143-.02864.0214-.05729.0214-.08593.0287-.14323.043-.22917.043-.25782.0143-.02864.0215-.05729.0215-.08593.0286-.14323.0501-.21485.0644-.21485.0144-.01432.0287-.03581.043-.06445.0287-.17188.0573-.29362.0859-.36524.0287-.08593.0573-.16471.086-.23632.0143-.04297.0215-.07878.0215-.10743 0-.04296.0143-.08593.0429-.1289.0573-.14323.086-.30794.086-.49414.0286-.1862.0644-.32943.1074-.42969.043-.11458.0716-.21484.0859-.30078.043-.14323.0645-.24349.0645-.30078l.0859-.25782c.1289-.14322.2077-.25065.2364-.32226.0429-.02865.0787-.05013.1074-.06445.0429-.02865.0859-.0573.1289-.08594.1146-.04297.2148-.07162.3008-.08594.0859 0 .136-.00716.1504-.02148.0286-.01433.0572-.02865.0859-.04297.1575.01432.2578.01432.3008 0 .0573-.01432.1217 0 .1933.04297.1003-.02865.1647-.03581.1934-.02149h.1289c.0859.01433.179.02149.2793.02149h.3223.2363c.1719-.02865.265-.03581.2793-.02149h.0859c.0287.01433.086.02149.1719.02149.0859-.01433.1361-.02149.1504-.02149h.2793c.1289 0 .2506-.00716.3652-.02148.1003-.01432.1647-.01432.1934 0 .0286.01432.0573.02148.0859.02148h.2793c.1576-.01432.2435-.01432.2578 0h.0645l.2363-.02148c.1003 0 .1647.00716.1934.02148.0429.01433.0787.02149.1074.02149.1002-.01433.1575-.01433.1719 0 .0286.01432.0573.02148.0859.02148.3008 0 .5085.02865.623.08594.2292.07161.3724.11458.4297.12891.1146.08593.1719.1289.1719.1289.0143-.01432.0287-.01432.043 0 .0859.08594.1504.13607.1933.15039.043 0 .0788.01432.1075.04297.0859.08594.1504.15039.1933.19336.1289.10026.2077.15755.2363.17188.1003.11458.1791.20052.2364.25781.0716.05729.1217.10026.1504.1289.0286.01433.0573.03581.0859.06446.1432.08593.222.15039.2363.19336.0144.04297.0502.07161.1075.08593.0429.11459.0644.19336.0644.23633.0143.04297.0501.07162.1074.08594.0144.04297.0287.08594.043.12891.0143.04296.0358.09309.0645.15039.0429.07161.0572.1289.0429.17187 0 .02865.0072.05729.0215.08594.0143.07161.0287.1289.043.17187.0286.02865.0501.0573.0644.08594.0573.21485.1003.36524.1289.45117.0287.07162.0573.14323.086.21485.0286.05729.0429.11458.0429.17187.0144.04297.0358.10026.0645.17188.0859.22916.1432.4082.1719.53711.0429.11458.0787.24349.1074.38671.0286.08594.0501.17904.0644.2793.0287.10026.0502.1862.0645.25781.0143.15756.0358.27927.0644.36527l.0645.3867c.0286.1146.0501.222.0645.3223.0286.1002.0429.2076.0429.3222.0573.2005.1074.3366.1504.4082.0143.1289.0287.2077.043.2364.0286.0716.043.1289.043.1718 0 .0287.0071.0573.0214.086.0573.1862.0788.3007.0645.3437 0 .043.0072.0859.0215.1289.0286.1003.0358.1647.0215.1934v.0429c.0143.0573.0286.1075.0429.1504.0287.0287.043.0717.043.1289-.0143.1003-.0143.1719 0 .2149.0286.043.0501.0859.0644.1289 0 .0859.0072.1432.0215.1719.0144.0143.0287.0429.043.0859l.0215.3652c.0286.0717.043.1576.043.2579 0 .0859.0071.1718.0214.2578.0287.1575.0502.2864.0645.3867.0143.1002.0358.1933.0644.2793.0144.0573.0215.1074.0215.1504 0 .0286.0144.0573.043.0859.0573.1289.0859.2149.0859.2578v.1074c0 .086-.0071.1719-.0214.2579-.0144.0859-.0359.1647-.0645.2363-.043.1575-.0645.2578-.0645.3008-.1289.1002-.2005.1575-.2148.1718-.0143 0-.0501.0072-.1074.0215s-.1576.0358-.3008.0645c-.1862.0286-.2936.0501-.3223.0644-.0286 0-.0573.0072-.0859.0215-.1432 0-.2148 0-.2148 0 0-.0143-.0072-.0215-.0215-.0215-.1146.0144-.1791.0215-.1934.0215-.0143-.0143-.0358-.0215-.0644-.0215-.2006 0-.3223.0072-.3653.0215-.1002 0-.1862.0072-.2578.0215-.0716 0-.1432 0-.2148 0-.1433.0143-.2435.0358-.3008.0645-.1432.0286-.2292.0429-.2578.0429-.1719.0287-.3008.0358-.3867.0215-.086 0-.1791.0072-.2793.0215-.1576.0143-.2435.0215-.2579.0215-.0716.0143-.1575.0071-.2578-.0215-.0859-.0287-.1718-.0573-.2578-.0859zm-.3652-3.0508c-.0143-.2005-.0287-.3438-.043-.4297-.0143-.1003-.0286-.1719-.043-.2149-.0286-.1289-.0429-.2148-.0429-.2578.0143-.0429.0143-.0787 0-.1074-.043-.2435-.0645-.4082-.0645-.4941 0-.086-.0143-.1719-.0429-.2578-.0287-.1146-.0502-.1862-.0645-.2149-.0143-.043-.0286-.0788-.043-.1074-.1002-.0859-.1647-.1218-.1933-.1074-.0287.0143-.0502.0358-.0645.0644-.1289.086-.2005.1361-.2148.1504-.1289.0716-.2077.1218-.2364.1504-.0716.0573-.1145.0931-.1289.1074-.0143.0143-.0358.0358-.0644.0645-.1432.1146-.2149.1718-.2149.1718 0-.0143-.0071-.0143-.0214 0-.1433.1003-.2292.1719-.2579.2149-.0286.0286-.0644.0573-.1074.0859-.0286.0716-.0644.1289-.1074.1719-.0286.043-.0573.0859-.0859.1289.0286.0573.0429.1074.0429.1504 0 .0286-.0143.0788-.0429.1504.1002.1146.1718.1719.2148.1719.0716.0429.1218.0644.1504.0644s.0573.0072.0859.0215c.086.0573.1361.1003.1504.1289.0144.0143.0287.0215.043.0215.1289.0573.2077.0859.2363.0859.043 0 .0931.0072.1504.0215.1003.0287.1719.0501.2149.0645.0573 0 .1002.0071.1289.0215.1575.0859.2864.1432.3867.1718.1146.0144.2077.0072.2793-.0215zm10.1621-7.58401c.1289-.10026.2005-.14323.2148-.12891.0144 0 .0215-.00716.0215-.02148.1146-.10026.1862-.16472.2149-.19336.0859-.04297.136-.07162.1504-.08594.0286-.01432.0572-.02865.0859-.04297l.3008-.21484c.0573-.02865.1002-.06446.1289-.10742.0429-.0573.0859-.11459.1289-.17188.1575-.08594.2435-.13607.2578-.15039.0573-.05729.1074-.0931.1504-.10742s.0788-.03581.1074-.06446c.1862-.15755.3366-.25781.4512-.30078.0573-.07161.1217-.12174.1933-.15039.0717-.04297.1361-.10026.1934-.17187.1003-.02865.1719-.06446.2148-.10742.0717-.0573.1218-.0931.1504-.10743.043-.02864.086-.05013.1289-.06445.1719-.01432.265-.02148.2793-.02148.1146.01432.1934.02148.2364.02148.1002.08594.1575.12891.1718.12891.0287 0 .0573.01432.086.04297.0286.02864.0644.05729.1074.08593.043.01433.0788.03581.1074.06446l.1934.15039c.1289.07161.1933.11458.1933.1289 0 0 .0072.00717.0215.02149.086.07161.1504.12174.1934.15039.043.02864.0716.06445.0859.10742.1003.04297.1791.10026.2364.17188.0716.05729.1432.12174.2148.19336.1575.10026.2578.16471.3008.19335.0429.02865.0788.0573.1074.08594.1146.04297.2005.11459.2578.21485s.1432.17903.2578.23632c.1146.11459.1719.17188.1719.17188.0286.04297.0573.0931.0859.15039.043.05729.0788.10742.1075.15039.1145.12891.179.20768.1933.23633.0143.01432.0358.03581.0645.06445.0716.08594.136.17188.1933.25781.0573.11459.1075.23633.1504.36524.0573.1289.1218.25065.1934.36523-.0287.11459-.0215.23633.0215.36524l.0214.23632c0 .10027.0072.17188.0215.21485.0144.04297.0215.07877.0215.10742.0287.04297.0287.08594 0 .12891-.0143.04297-.0215.0931-.0215.15039.0144.17187.0144.28646 0 .34375v.1289.10743c.0144.04296.0144.09309 0 .15039-.0286.18624-.0501.31514-.0644.38674 0 .0573.0071.136.0215.2363 0 .1576-.0144.2721-.043.3438-.0143.0572-.0215.1217-.0215.1933.0143.1719.0215.2793.0215.3223.0143.0286.0215.0573.0215.0859l-.0215.5156c.0143.1433.0143.2149 0 .2149v.0215c.0143.1146.0143.179 0 .1933v.043.1289c.0143.043.0215.0859.0215.1289v.1934c.0143.0143.0215.0286.0215.0429-.043.1289-.0645.2006-.0645.2149.0143.0143.0215.0358.0215.0644v.1719c.0143.043.0215.0931.0215.1504 0 .0716-.0072.1432-.0215.2148v.2149.2363c.043.2149.0644.3939.0644.5371 0 .1433.0072.2865.0215.4297v.2149c.0144.0143.0215.0358.0215.0644.0143.1576.0215.3151.0215.4727v.4511c0 .043.0072.086.0215.1289.0143.043.0143.086 0 .1289-.0143.043-.0287.0788-.043.1075-.0143.0143-.0358.0501-.0644.1074-.2865.1146-.4655.179-.5371.1934-.0717.0286-.1576.0286-.2579 0-.0716 0-.1647-.0072-.2793-.0215-.1002 0-.1862.0071-.2578.0215-.1575-.0144-.2649-.0215-.3222-.0215-.043.0143-.0931.0215-.1504.0215h-.3653c-.0716 0-.1432 0-.2148 0-.0573.0143-.1146.0143-.1719 0-.1432-.043-.222-.0645-.2363-.0645-.0287 0-.0645 0-.1074 0-.043.0143-.1003.0215-.1719.0215-.1719-.0143-.2721-.0143-.3008 0-.0143.0143-.0358.0143-.0644 0-.0287.0286-.0717.043-.1289.043-.0573 0-.1218 0-.1934 0-.1289.0286-.2292.0214-.3008-.0215-.1289-.1146-.222-.1934-.2793-.2364 0-.0716-.0071-.1432-.0215-.2148-.0143-.0716-.0214-.1504-.0214-.2363l.0429-.2793.0215-.2364c.0143-.0286.0215-.0644.0215-.1074.0143-.0429.0358-.1002.0644-.1719.0144-.0429.0215-.0787.0215-.1074.0143-.0429.0287-.1002.043-.1719 0-.1718.0072-.2936.0215-.3652.0143-.0859.0215-.1647.0215-.2363-.0144-.1862-.0072-.308.0214-.3652 0-.1576.0072-.2435.0215-.2579-.0143-.1432-.0143-.2291 0-.2578.0144-.0286.0215-.0573.0215-.0859 0-.1719 0-.265 0-.2793.0143-.0143.0215-.0287.0215-.043-.0286-.1575-.043-.2435-.043-.2578.0144-.0143.0215-.0286.0215-.043 0-.0429-.0071-.0859-.0215-.1289 0-.0573 0-.1217 0-.1933v-.2793c-.0143-.1576-.0215-.2793-.0215-.3653-.0286-.1718-.0429-.2864-.0429-.3437.0143-.0573.0215-.1074.0215-.1504 0-.2005 0-.3509 0-.4512 0-.1145-.0144-.2076-.043-.2793.0286-.0286.0358-.0716.0215-.1289 0-.0573 0-.1074 0-.1504.0143-.1432.0071-.2506-.0215-.3222-.0143-.086-.0072-.1576.0215-.2149-.0143-.12888-.0287-.22197-.043-.27927 0-.05729-.0286-.10026-.0859-.1289-.1289-.11459-.1934-.1862-.1934-.21485-.1862-.01432-.3437.01433-.4726.08594-.1003.12891-.1576.19336-.1719.19336-.1003.14323-.1791.23633-.2363.27932-.043.0429-.086.0931-.129.1504-.1145.1432-.1861.2291-.2148.2578-.1575.0859-.2721.1575-.3437.2148-.0573.0573-.129.0788-.2149.0645-.0716 0-.1361-.0215-.1933-.0645-.043-.0573-.1003-.1002-.1719-.1289-.0287-.0716-.0645-.1289-.1074-.1719-.043-.0429-.0788-.1002-.1075-.1718-.1002-.1433-.1504-.21488-.1504-.21488.0144 0 .0144-.00716 0-.02148-.0716-.12891-.1503-.25065-.2363-.36523-.0286.02864-.043.06445-.043.10742v.1289.25777.4727c0 .0716-.0071.1504-.0214.2363v.2578.5372c.0143.1718.0214.3509.0214.5371.0287.0716.043.1504.043.2363v.2363l.0215.2363v.1504c.0143.0287.0215.0573.0215.086.0143.1575.0143.2506 0 .2793-.0143.0286-.0215.0573-.0215.0859 0 .0859.0143.2005.043.3438-.0144.0573-.0215.1217-.0215.1933.0143.0716.0215.1361.0215.1934.0143.0429.0143.0859 0 .1289v.1289c.0143.1432.0286.2435.0429.3008.0144.0429.0215.0787.0215.1074.0287.2578.043.4225.043.4941.0143.043.0143.0931 0 .1504 0 .043.0072.086.0215.1289.0286.1433.0358.222.0215.2364v.0644l.0644.3223c-.0143.1432-.0215.222-.0215.2363.0143.0143.0215.0358.0215.0645-.043.1575-.0644.2721-.0644.3437s-.0215.1218-.0645.1504c-.1432.0143-.2506.0215-.3223.0215-.0716.0143-.136.0358-.1933.0644-.2435.0287-.4369.0215-.5801-.0214-.1432-.0287-.222-.043-.2363-.043-.0143.0143-.0358.0215-.0645.0215-.0573 0-.1002-.0072-.1289-.0215-.0286 0-.0716 0-.1289 0-.1719-.0143-.2793-.0215-.3223-.0215-.0286 0-.0644-.0072-.1074-.0215-.0716 0-.1504 0-.2363 0-.0716-.0143-.1432-.0286-.2149-.043-.1718-.0429-.3294-.0501-.4726-.0214-.1289.0286-.2292.0501-.3008.0644-.1002 0-.1647 0-.1933 0-.0144-.0143-.0359-.0143-.0645 0-.043 0-.0859.0072-.1289.0215-.0287 0-.0716-.0072-.1289-.0215-.1146 0-.2077.0143-.2793.043-.1576-.0573-.2435-.086-.2578-.086 0 0-.0072-.0143-.0215-.0429-.043-.0716-.0788-.1218-.1074-.1504-.0144-.0287-.0215-.0645-.0215-.1074.0143-.2292.0143-.3939 0-.4942 0-.1146.0071-.222.0215-.3222 0-.1719 0-.2793 0-.3223.0143-.0573.0286-.1074.0429-.1504.0287-.2578.0573-.4225.086-.4941.0143-.1862.0143-.308 0-.3653s-.0143-.1146 0-.1718c0-.1576.0071-.2435.0215-.2579.0143-.0286.0214-.0573.0214-.0859l-.0214-.2793c0-.0859 0-.1647 0-.2363s-.0144-.1361-.043-.1934c.0143-.1575.0072-.265-.0215-.3222-.0143-.0717-.0072-.1146.0215-.129.0143-.1289.0215-.2005.0215-.2148s-.0072-.0358-.0215-.0645c0-.0429 0-.0859 0-.1289.0143-.0429.0215-.0787.0215-.1074 0-.0573-.0072-.1002-.0215-.1289-.0143-.043-.0072-.0859.0215-.1289 0-.1432 0-.2506 0-.3223 0-.0859 0-.1647 0-.2363s-.0072-.1361-.0215-.1933c-.0143-.0573-.0215-.1075-.0215-.1504.0143-.1862.0072-.308-.0215-.3653.0143-.0573.0215-.1074.0215-.1504 0-.0573.0072-.1145.0215-.1718v-.2578-.45122c0-.11458-.0072-.19336-.0215-.23633 0-.05729 0-.10742 0-.15039-.0286-.14323-.043-.25781-.043-.34375 0-.10026 0-.1862 0-.25781.0144-.11458.0144-.1862 0-.21484-.0143-.04297 0-.0573.043-.04297-.0143-.22917-.0358-.38672-.0644-.47266-.0144-.08594-.0072-.16471.0214-.23633-.0143-.02864-.0286-.06445-.0429-.10742-.0144-.04297-.0215-.0931-.0215-.15039.0143-.12891.0143-.20768 0-.23633-.0143-.02864-.0215-.05729-.0215-.08594 0-.18619 0-.32942 0-.42968-.0143-.15755-.0215-.25782-.0215-.30078.0143-.0573.0215-.11459.0215-.17188v-.32226c-.0143-.11459-.0215-.20053-.0215-.25782-.0286-.17187-.043-.27929-.043-.32226s-.0071-.08594-.0214-.12891l-.0215-.30078c-.0143-.12891-.0143-.27214 0-.42969.1289-.15755.1862-.23633.1719-.23633.1718-.07161.2793-.10742.3222-.10742.1719.01433.2793.01433.3223 0 .043-.01432.0931-.02864.1504-.04297.1146 0 .1862-.00716.2148-.02148.0287-.01432.0573-.02148.086-.02148.0429-.01433.0859-.01433.1289 0 .0573.01432.1002.00716.1289-.02149.2005.01432.3437.02149.4297.02149.0859 0 .1647-.01433.2363-.04297.043-.01433.1002-.01433.1719 0 .0716.01432.1289.04297.1718.08593.0717-.02864.1361-.0358.1934-.02148h.1719c.1575.02865.2864.04297.3867.04297.1146-.01432.2148-.00716.3008.02148.0716-.02864.1575-.0358.2578-.02148.1002.01432.1862 0 .2578-.04297l.2578.06445c.1432.14323.2435.27214.3008.38672.0573.10026.043.20052-.043.30078-.0286.12891-.0501.25781-.0644.38672-.0144.11458-.0358.24349-.0645.38672-.0143.17187-.0286.27214-.043.30078 0 .02865-.0071.05729-.0214.08594-.0144.07161-.0215.13607-.0215.19336.0143.05729.0071.12174-.0215.19336zm20.2812 12.24611c-.0143.1002-.0286.1933-.0429.2793-.0143.1002-.0502.1862-.1074.2578 0 .2148-.0359.3867-.1075.5156.0287.0573.0215.1074-.0215.1504-.0429.0573-.0716.1361-.0859.2363-.0716.1433-.1146.2435-.1289.3008 0 .0573-.0143.1146-.043.1719-.0429.1575-.0787.2506-.1074.2793-.0143.0286-.0286.0573-.043.0859-.0286.0287-.0501.0645-.0644.1074-.0143.043-.0358.086-.0645.129-.1002.1145-.1575.1862-.1718.2148-.0144.0286-.0287.0645-.043.1074-.043.0143-.0788.0358-.1074.0645-.0287.0429-.0645.0716-.1075.0859-.0286.043-.0644.0859-.1074.1289-.0286.0573-.0644.1003-.1074.1289-.0716.1146-.1289.2005-.1719.2578-.0286.0573-.0573.1003-.0859.1289-.1289.1576-.2149.2435-.2578.2579-.0287.0143-.0502.0572-.0645.1289-.1432.0859-.2148.1289-.2148.1289 0 .0143-.0072.0215-.0215.0215-.043.0429-.0788.093-.1074.1503-.0287.0573-.0573.1003-.086.1289-.1575.1146-.2649.1934-.3222.2364-.0573.0573-.1074.1002-.1504.1289-.1289.0573-.1934.0931-.1934.1074s-.0143.0286-.0429.043c-.0573.0429-.1146.0787-.1719.1074-.043.0286-.0788.0788-.1074.1504-.1003 0-.1648.0501-.1934.1504-.1432.0859-.2148.1217-.2148.1074 0 0-.0072.0072-.0215.0215-.2006.0716-.3295.1289-.3867.1719-.0573.0572-.1218.1074-.1934.1503-.0287.0144-.0645.0215-.1074.0215-.043.0144-.086.0358-.1289.0645-.1003.043-.1719.0788-.2149.1074-.0429.0287-.0931.043-.1504.043-.0286.0573-.0716.0859-.1289.0859s-.1002.0358-.1289.1074c-.1719.043-.2578.0645-.2578.0645-.1575.1002-.2578.1432-.3008.1289-.0286 0-.0501.0215-.0644.0644-.1576-.0286-.2722-.0572-.3438-.0859-.0716-.0143-.1432-.0501-.2148-.1074-.0573-.043-.1218-.1003-.1934-.1719-.0716-.0573-.1504-.1074-.2363-.1504-.1003-.1289-.1576-.1933-.1719-.1933s-.0358-.0144-.0644-.043c-.0573-.1576-.1003-.265-.1289-.3223-.0144-.0429-.0359-.0859-.0645-.1289-.0143-.0859-.0358-.1575-.0645-.2148-.0143-.0573-.0286-.1074-.0429-.1504-.0287-.2292-.0716-.3652-.1289-.4082.0286-.086.0286-.1576 0-.2149-.0287-.0429-.0502-.1002-.0645-.1718-.0573-.1289-.1002-.222-.1289-.2793-.0143-.043 0-.1146.043-.2149-.0716-.1289-.1074-.2148-.1074-.2578s-.0144-.0716-.043-.0859c.043-.086.043-.1862 0-.3008-.0287-.1146-.0143-.2292.043-.3438.0143-.1575.0358-.2578.0644-.3007.0287-.0287.0501-.0645.0645-.1075.1575-.0716.2435-.1217.2578-.1504.0286-.0143.0573-.0286.0859-.0429.2149-.0287.3366-.0501.3653-.0645.1432-.0859.222-.1217.2363-.1074.1146-.0573.1933-.1074.2363-.1504.0716 0 .1647-.0286.2793-.0859.1289-.086.222-.1433.2793-.1719.0716-.0286.1432-.0644.2148-.1074.0717-.1003.1361-.1791.1934-.2363.043-.0717.1146-.1433.2148-.2149.1146-.1003.1934-.1719.2364-.2148.1002-.1433.1647-.2507.1933-.3223.1146-.1432.1862-.265.2149-.3652.0429-.086.0931-.1791.1504-.2793 0-.1289.0071-.222.0215-.2793.0143-.043.0286-.0788.0429-.1075.0287-.0716.043-.1217.043-.1503 0-.0287.0143-.0788.043-.1504.0143-.043.0214-.0931.0214-.1504.0144-.043.0359-.1003.0645-.1719.0143-.0716.0215-.1361.0215-.1934.0143-.0429.0071-.0931-.0215-.1503.0286-.1003.0286-.2006 0-.3008-.0143-.1003-.0072-.2077.0215-.3223-.1146.0716-.2005.1218-.2578.1504-.043.0286-.086.0644-.1289.1074-.1433.0716-.222.1146-.2364.1289-.0143 0-.0358.0072-.0644.0215l-.2149.1289c-.1718.086-.2864.1289-.3437.1289-.043.0143-.0931.0358-.1504.0645-.0573.0286-.1146.0501-.1719.0644-.0429.0144-.0859.0358-.1289.0645-.1719 0-.2793.0071-.3222.0215-.043.0143-.0931.0071-.1504-.0215-.1719.0286-.2793.0358-.3223.0215-.0287 0-.0645 0-.1074 0-.0573.0143-.1146.0215-.1719.0215-.043.0143-.1003.0071-.1719-.0215-.1432 0-.2435-.0072-.3008-.0215-.0429-.0143-.0787-.0215-.1074-.0215-.1002-.0143-.179-.0286-.2363-.043-.043-.0143-.1003-.0286-.1719-.0429-.1432-.0144-.222-.0358-.2363-.0645-.0143-.0143-.0358-.0286-.0645-.043-.1432-.0716-.2435-.1145-.3007-.1289-.043-.0143-.086-.0358-.129-.0644-.0429-.0287-.0931-.0502-.1503-.0645-.0573-.0286-.1075-.0573-.1504-.0859-.1289-.0573-.2006-.0931-.2149-.1074-.0143-.0144-.0358-.0287-.0644-.043-.0287-.0286-.0645-.043-.1075-.043-.0429 0-.0787-.0286-.1074-.0859-.0716-.043-.1289-.0716-.1718-.0859-.043-.0144-.0931-.0359-.1504-.0645-.1146-.1146-.1791-.1719-.1934-.1719-.0143-.0143-.0286-.0286-.043-.0429l-.1933-.1719c-.0716-.0573-.1218-.0931-.1504-.1074-.0287-.0287-.0645-.0573-.1074-.086-.043-.0286-.0788-.0573-.1075-.0859-.0286-.0287-.0716-.0573-.1289-.086-.0716-.1575-.1289-.2793-.1718-.3652-.043-.1002-.0717-.1504-.086-.1504 0-.0143-.0071-.0358-.0215-.0644-.0286-.1003-.0573-.1791-.0859-.2364s-.0501-.1002-.0645-.1289c-.0143-.0429-.0286-.0859-.0429-.1289-.0573-.1432-.0931-.2291-.1074-.2578 0-.0286-.0144-.0573-.043-.0859-.0287-.0573-.0501-.1074-.0645-.1504-.0143-.0573-.0358-.1289-.0644-.2149-.0143-.0716-.0215-.1432-.0215-.2148s-.0143-.1504-.043-.2363c-.0143-.0573-.0215-.1576-.0215-.3008-.0143-.2005-.0286-.3294-.0429-.3867s-.0215-.1218-.0215-.1934c0-.043.0072-.0859.0215-.1289s.0286-.0859.0429-.1289c.0144-.1719.0144-.2578 0-.2578 0-.0143 0-.0358 0-.0645.0144-.0859.0215-.1718.0215-.2578 0-.1002 0-.2077 0-.3222.0287-.129.0358-.1934.0215-.1934s-.0215-.0215-.0215-.0645c0-.0716.0072-.1432.0215-.2148.0143-.0859.0215-.1647.0215-.2363 0-.0573-.0072-.1074-.0215-.1504 0-.0573.0143-.1146.043-.1719-.0143-.2292-.0215-.39387-.0215-.49413.0143-.11459.0573-.20769.1289-.2793.0573-.14323.0859-.23633.0859-.2793.0144-.04297.0358-.07877.0645-.10742 0-.11458.0143-.20052.043-.25781.0429-.08594.0644-.15039.0644-.19336 0-.05729.0072-.11459.0215-.17188.0573-.14323.1003-.22916.1289-.25781.0287-.04297.0287-.0931 0-.15039.0716-.14323.1146-.21484.1289-.21484.0143-.01433.0215-.03581.0215-.06446.0716-.17187.1146-.25781.1289-.25781.0143-.01432.0286-.02865.043-.04297.0859-.14323.1289-.21484.1289-.21484.0143 0 .0215-.00716.0215-.02149.0716-.14323.136-.21484.1933-.21484.043-.12891.0716-.20052.086-.21484.0143-.01433.0214-.03581.0214-.06446.1003-.11458.1576-.17903.1719-.19336.0287-.02864.0573-.05729.086-.08593.1002-.11459.1503-.17904.1503-.19336.0717-.11459.1433-.19336.2149-.23633.0573-.05729.0931-.0931.1074-.10742.0143-.02865.0287-.05729.043-.08594.0859-.07162.1432-.10742.1719-.10742.0286-.01433.0429-.03581.0429-.06446.1433-.07161.2149-.10742.2149-.10742.0716-.05729.1146-.0931.1289-.10742.0143-.02865.0358-.05729.0644-.08594.1146-.08593.1862-.13606.2149-.15039.0286-.01432.0501-.0358.0644-.06445.0716-.01432.1433-.04297.2149-.08594s.1432-.07877.2148-.10742c.1146-.08594.1862-.12174.2149-.10742.0286 0 .0644-.00716.1074-.02149.0716-.04296.1504-.07877.2363-.10742.1289-.08594.2005-.12174.2148-.10742.0287.01432.0573.00716.086-.02148.0859-.04297.1504-.06446.1933-.06446.0573-.01432.1075-.0358.1504-.06445.0717 0 .1361-.00716.1934-.02149.0716-.01432.1432-.02864.2148-.04296h.2364c.0716.01432.136.01432.1933 0 .0716-.01433.1289-.01433.1719 0 .2148-.0573.3438-.07878.3867-.06446h.1934c.1289-.01432.1933-.01432.1933 0 .0144 0 .0358-.00716.0645-.02148.0716 0 .1289-.00716.1719-.02149.0573-.01432.1146-.02148.1718-.02148.0717 0 .1289.00716.1719.02148h.1074c.043-.01432.086-.02148.1289-.02148.043-.01432.1003-.02148.1719-.02148h.2363.3653.3867c.1146 0 .1934.00716.2363.02148.1576.02865.2578.03581.3008.02148.043-.02864.1003-.04296.1719-.04296.1002.01432.1647.02864.1933.04296h.129c.0859 0 .2076.00717.3652.02149h.4297c.1146.01432.2077.01432.2793 0 .0859-.01432.1504-.02149.1933-.02149.1862.02865.3151.04297.3867.04297.129.08594.2077.13607.2364.15039.1575.12891.2435.20769.2578.23633v.25781c.0143.02865.0358.04297.0644.04297-.1002.10026-.1432.17904-.1289.23633.0287.04297.043.08594.043.12891-.0143.10026-.0215.15755-.0215.17187.0143.01433.0215.03581.0215.06446 0 .04296-.0072.08593-.0215.1289v.15039.30078c-.0286.17188-.0429.32227-.0429.45118.0286.15755.0429.25781.0429.30078.0143.02864.0215.05729.0215.08593.0143.14323.0143.22917 0 .25782v.10742.21484c.0143.07162.0215.14323.0215.21485-.0143.10026-.0072.20768.0215.32226 0 .11459-.0072.22201-.0215.32227s-.0143.21484 0 .34375c-.0287.1862-.0358.30078-.0215.34375s.0072.07877-.0215.10742c.0143.11458.0143.1862 0 .21484v.06446c0 .14323-.0071.23632-.0215.27929v.15039.42971c0 .1432.0072.2578.0215.3437v.5586.1289c.0143.043.0215.086.0215.1289-.0143.0717-.0143.1289 0 .1719s.0072.0788-.0215.1074c.0143.2006.0215.3366.0215.4082.0143.0573.0287.1218.043.1934v.2148c.0143.0717.0286.1504.0429.2364l.043.5586c.0287.1432.043.2291.043.2578v.3222.2579c.0143.1718.0143.2793 0 .3222v.1719c0 .1432-.0143.2865-.043.4297.0143.1289.0143.2291 0 .3008v.2148c.0143.0716.0215.1504.0215.2363v.2793c-.0143.0573-.0143.1075 0 .1504.0143.0287.0215.0645.0215.1074-.0143.1289-.0215.2435-.0215.3438v.4082c.0143.043.0215.1074.0215.1934 0 .0859-.0072.1647-.0215.2363-.0287.1289-.043.2363-.043.3222.0143.086.0215.1719.0215.2579zm-4.5117-5.8438c.043-.0286.086-.0573.1289-.0859.0573-.043.1003-.0859.1289-.1289.0144-.1719.0215-.2793.0215-.3223.0143-.0573.0215-.1146.0215-.1719 0-.0572-.0072-.1145-.0215-.1718 0-.0573.0072-.1146.0215-.1719.0287-.1003.0358-.1576.0215-.1719 0-.0286 0-.0573 0-.0859-.0143-.1432-.0215-.2292-.0215-.2578.0143-.0287.0215-.0502.0215-.0645 0-.0286-.0072-.0573-.0215-.0859-.0143-.043-.0215-.0931-.0215-.1504-.0143-.2005-.0215-.3366-.0215-.4082 0-.0859.0072-.1647.0215-.2363 0-.0573-.0071-.1218-.0215-.1934 0-.0716.0144-.1217.043-.15039-.0143-.14323-.0286-.22917-.043-.25781 0-.04297 0-.07878 0-.10742l.0215-.2793c0-.12891 0-.21485 0-.25781.0143-.0573.0143-.10026 0-.12891.0143-.12891.0143-.19336 0-.19336 0 0 0-.01432 0-.04297.0287-.12891.0358-.20052.0215-.21484-.0143-.02865-.0215-.05729-.0215-.08594-.0573-.15755-.1217-.24349-.1933-.25781-.0717-.02865-.1433-.04297-.2149-.04297-.0573 0-.1217 0-.1933 0-.0573 0-.1003.00716-.1289.02148-.0717 0-.1504.01433-.2364.04297-.0716-.01432-.1217-.00716-.1504.02149-.0286.02864-.0573.02864-.0859 0-.1003.04297-.1647.07877-.1934.10742-.0143.01432-.0358.02148-.0644.02148-.1289.07162-.2005.11459-.2149.12891 0 .01432-.0071.02864-.0214.04297-.1576.08593-.265.14323-.3223.17187-.0859.08594-.1432.14323-.1719.17188-.0286.01432-.0573.0358-.0859.06445-.1003.11458-.1647.17904-.1934.19336-.1289.17187-.2077.28646-.2363.34375l-.1074.23633c-.1003.1289-.1504.20768-.1504.23633 0 .01432-.0072.0358-.0215.06445-.0573.20049-.0931.31509-.1074.34379-.0287.1575-.043.2434-.043.2578.0143.0143.0215.0286.0215.0429-.043.1862-.0645.3223-.0645.4082v.2364c.0144.0716.0287.1432.043.2148.0143.0573.0215.1218.0215.1934 0 .0573-.0072.1002-.0215.1289 0 .0286.0143.0644.043.1074.0429.1289.0644.222.0644.2793.0143.043.0358.0788.0645.1074.1146.1289.1719.2005.1719.2149 0 .0143.0071.0286.0214.0429.043.0716.0931.1361.1504.1934.0716.0573.1361.1146.1934.1719.0286.0286.0644.0573.1074.0859.043.0287.0788.0645.1074.1074.0716 0 .1289.0144.1719.043.0573.0286.1074.0573.1504.0859.1432.043.2292.0645.2578.0645.043-.0143.0788-.0215.1074-.0215l.2793.0215c.1433-.0143.222-.0287.2364-.043.1432-.0716.2291-.1146.2578-.1289.1146-.0716.1862-.1146.2148-.1289.043-.0286.0788-.0501.1074-.0644zm14.2442.5801c.0286.043.0644.0573.1074.043s.0859-.0287.1289-.043c.2005-.043.3294-.0644.3867-.0644.0573-.0144.1218-.0287.1934-.043.1146-.0287.2291-.0645.3437-.1074.1289-.0573.2578-.1003.3867-.1289.0287-.0144.0645-.0215.1075-.0215.0573-.0143.1002-.0287.1289-.043.0859-.0573.1504-.0931.1933-.1074.0573-.0287.1003-.0573.1289-.086.1433-.1145.2364-.179.2793-.1933.043-.0143.0788-.0358.1075-.0645.2005-.0573.3151-.0787.3437-.0644.1146.0286.1719.1217.1719.2793-.0143.2005-.0215.3294-.0215.3867.0143.043.0215.1003.0215.1719.0143.1146.0215.222.0215.3222v.3008.1289c.0143.043.0214.0788.0214.1074 0 .0717-.0143.1504-.0429.2364-.0143.0859-.0215.1647-.0215.2363.0143.2292.0143.444 0 .6445-.043.1862-.0573.308-.043.3653s.0215.1074.0215.1504c-.0143.1002-.0286.1862-.043.2578-.1432.1432-.2506.222-.3222.2363-.0716 0-.1218.0358-.1504.1074-.086.0143-.1432.0287-.1719.043-.0143.0143-.0358.0286-.0644.043-.1003.0859-.1791.1289-.2364.1289-.0429 0-.0859.0071-.1289.0214l-.2578.1075c-.1575.0573-.265.0859-.3223.0859-.0572 0-.1145.0287-.1718.0859-.0573 0-.1146.0144-.1719.043-.043.0143-.1003.0287-.1719.043-.1432.0286-.2435.0501-.3008.0644-.1002.043-.1718.0645-.2148.0645s-.0931.0072-.1504.0215c-.0716.0143-.1504.0215-.2363.0215-.0716.0143-.1504.0286-.2364.0429-.2148.043-.3652.0573-.4511.043-.086 0-.1719.0143-.2578.043-.1146 0-.2077.0071-.2793.0215-.0717.0143-.1433.0214-.2149.0214-.0859 0-.1719-.0071-.2578-.0214-.0716-.0144-.1504-.0287-.2363-.043-.0573.0286-.1289.0358-.2149.0215-.0716-.0144-.1647-.0358-.2793-.0645-.1145-.0143-.1933-.0286-.2363-.043-.1719 0-.2864-.0071-.3437-.0214-.043-.0144-.0931-.0287-.1504-.043s-.1075-.0215-.1504-.0215c-.043 0-.0931-.0072-.1504-.0215-.1003-.0143-.1719-.0286-.2149-.0429-.0429-.0144-.0859-.0287-.1289-.043-.1718-.043-.2721-.0716-.3007-.086l-.1934-.1503c-.1146-.0287-.2292-.0717-.3438-.129-.0429-.0286-.0859-.0501-.1289-.0644-.0286-.0143-.0644-.043-.1074-.0859-.0286-.043-.0716-.0717-.1289-.086-.043-.0143-.0859-.0358-.1289-.0644-.1575-.1003-.2435-.1576-.2578-.1719 0-.0143-.0072-.0287-.0215-.043-.1002-.0429-.1575-.0716-.1719-.0859 0-.0143-.0143-.0287-.0429-.043l-.2149-.1289c-.0859-.0859-.1647-.1432-.2363-.1719-.0287-.0716-.0716-.1217-.1289-.1504-.043-.0429-.0788-.1002-.1074-.1718-.1003-.086-.1719-.1433-.2149-.1719-.0429-.0286-.0788-.0716-.1074-.1289-.043-.0287-.0788-.0573-.1074-.0859-.0143-.043-.0358-.0788-.0645-.1075-.0573-.0429-.0931-.1217-.1074-.2363-.0859-.0859-.1289-.1432-.1289-.1719 0-.0286-.0072-.0573-.0215-.0859-.0859-.1146-.1432-.1862-.1719-.2149-.0859-.1002-.1289-.1575-.1289-.1718 0-.0144-.0071-.0358-.0215-.0645-.1002-.2005-.1718-.3222-.2148-.3652 0-.0716-.0072-.1218-.0215-.1504-.0143-.0287-.0215-.0645-.0215-.1074-.0716-.1433-.1074-.2292-.1074-.2578 0-.043 0-.0788 0-.1075-.043-.1432-.0716-.2148-.0859-.2148 0 0 0-.0072 0-.0215-.0716-.2148-.1146-.3509-.1289-.4082-.0144-.0716-.0358-.1361-.0645-.1934-.0286-.1432-.0501-.2363-.0644-.2792 0-.043-.0072-.1003-.0215-.1719 0-.086-.0072-.1719-.0215-.2578-.0143-.1003-.0215-.1576-.0215-.1719 0-.0287 0-.0716 0-.1289.0143-.0716.0143-.1289 0-.1719s-.0358-.0788-.0644-.1074c-.0287-.043-.043-.086-.043-.1289.0716-.2149.1074-.3509.1074-.4082 0-.0716 0-.1576 0-.2578.0287-.12894.0358-.2292.0215-.30082-.0143-.07161-.0143-.14323 0-.21484 0-.04297 0-.08594 0-.12891 0-.05729.0143-.10026.043-.12891-.0287-.05729-.0358-.10026-.0215-.1289.0286-.04297.0501-.08594.0644-.12891 0-.15755 0-.23633 0-.23633.0144-.01432.0215-.0358.0215-.06445.0287-.12891.0501-.23633.0645-.32226.0286-.10026.0573-.1862.0859-.25782.043-.11458.0645-.17903.0645-.19336 0-.02864.0071-.05729.0214-.08593.0573-.08594.0931-.14323.1075-.17188.0143-.02864.0286-.05729.0429-.08594.0573-.21484.1218-.37955.1934-.49414.0716-.11458.1217-.20052.1504-.25781.0286-.05729.0573-.10026.0859-.12891 0-.05729.0143-.10026.043-.1289.043-.02865.0788-.05729.1074-.08594.0716-.12891.1218-.20052.1504-.21484.0716-.12891.1074-.20052.1074-.21485.1289-.14323.2077-.222.2364-.23633.0286-.01432.0572-.0358.0859-.06445.1003-.11458.1432-.17903.1289-.19336 0-.02864.0072-.04297.0215-.04297.043-.01432.0716-.0358.0859-.06445.0287-.04297.0573-.07878.086-.10742.1289-.11458.2005-.17904.2148-.19336s.0358-.02865.0645-.04297c.0572-.10026.0931-.15039.1074-.15039.0286 0 .0429-.01432.0429-.04297.1433-.10026.2221-.15755.2364-.17187.0286-.01433.0573-.03581.0859-.06446.1146-.08593.179-.1289.1934-.1289.0286-.01433.0501-.02865.0644-.04297.1433-.08594.222-.14323.2364-.17188.1289-.10026.2005-.15039.2148-.15039.0286-.01432.043-.0358.043-.06445.1718-.08594.2721-.12891.3007-.12891.0287 0 .0573-.00716.086-.02148.2148-.08594.3509-.14323.4082-.17188.0286-.01432.0573-.02148.0859-.02148.043-.01432.1003-.02865.1719-.04297.0286-.01432.0573-.02865.0859-.04297.043-.01432.0931-.02864.1504-.04297.1433-.04297.2149-.06445.2149-.06445 0-.01432.0143-.02148.0429-.02148.1003-.02865.1648-.05013.1934-.06446.0286-.01432.0788-.02148.1504-.02148.1862-.01432.3581-.01432.5156 0 .1432.01432.2435.01432.3008 0s.1217-.02149.1934-.02149c.0572 0 .1432.01433.2578.04297h.2363c.1432.04297.2148.06446.2148.06446 0-.01433.0144-.02149.043-.02149.1146.02865.179.04297.1934.04297.0286-.01432.0573-.01432.0859 0 .0573 0 .1074.01432.1504.04297.0573.02864.1217.02864.1934 0 .1575.07161.2578.11458.3007.1289.0573.01433.1218.02865.1934.04297.1432.0573.2435.10026.3008.12891.0716.01432.136.04297.1933.08594.086-.02865.1647.00716.2364.10742.1432.08594.222.12891.2363.12891s.0286.00716.043.02148c.0716.07161.1289.12174.1718.15039.043.02865.0788.06445.1075.10742.0716.10026.1145.15755.1289.17188.0143 0 .0286.00716.0429.02148.043.04297.086.08594.1289.12891.0573.04297.1003.0931.1289.15039.1146.11458.1719.17187.1719.17187.0573.0573.1003.10743.1289.15039.043.02865.0788.06446.1074.10743.1146.11458.1719.18619.1719.21484 0 .01432.0072.03581.0215.06445.1146.1862.179.28646.1934.30078.0573.10026.1074.17188.1504.21485.0286.04297.0501.08594.0644.1289.0143.04297.0358.08594.0645.12891-.0144.04297-.0144.08594 0 .12891.0286.04297.0573.07877.0859.10742.0286.05729.0501.13607.0645.23633.0143.08593.0358.16471.0644.23632.0287.04297.0501.08594.0645.12891.0143.02865.0358.07162.0644.12891.0287.17187.043.25781.043.25781 0 .04297.0071.08594.0215.12891.0143.02864.0286.06445.0429.10742.0144.1289.0144.19336 0 .19336 0 0 .0072.01432.0215.04297l.0645.23632c.0286.11459.0429.21485.0429.30079 0 .04296.0072.08593.0215.1289.0143.02865.0215.06446.0215.10742-.0286.17188-.043.28646-.043.34375.0144.04297.0144.07878 0 .10743-.1289.1289-.2076.20768-.2363.23632-.0143.02865-.0358.05013-.0644.06446-.1146.05729-.1791.0931-.1934.10742 0 .01432-.0072.02864-.0215.04297-.1575.07161-.2578.10742-.3008.10742-.0286 0-.0573.01432-.0859.04299-.1146.0429-.1934.0788-.2363.1074-.0287.0286-.0573.0573-.086.0859-.1432.043-.2148.0788-.2148.1075-.0859.0429-.1576.0787-.2149.1074-.0572.0143-.1074.0358-.1503.0644-.1576.086-.2937.1576-.4082.2149-.1433.0859-.2435.136-.3008.1504-.0573.0143-.1003.0358-.1289.0644-.1146.0573-.1862.0931-.2149.1074-.0286.0144-.0573.0359-.0859.0645-.1432.1003-.2363.1575-.2793.1719-.0287.0143-.0573.0429-.086.0859-.0286-.0143-.0716-.0072-.1289.0215-.0572.0286-.1074.0573-.1503.0859-.1719.0716-.2865.1146-.3438.1289-.043 0-.0788.0215-.1074.0645-.043 0-.086.0143-.1289.043-.0287.0143-.0645.0286-.1074.0429-.043.0144-.0931.0215-.1504.0215-.043-.0143-.086-.0071-.1289.0215-.129.0859-.2077.1289-.2364.1289-.0286.0286-.0716.0501-.1289.0645-.0429.0143-.0859.0286-.1289.0429-.1289.0716-.222.1074-.2793.1074-.043 0-.0788.0144-.1074.043-.1289.0573-.2005.0931-.2148.1074-.1146.0717-.1934.1075-.2364.1075-.0429 0-.0859.0143-.1289.0429-.2291.086-.3509.1504-.3652.1934 0 .1862.0143.2864.043.3008.1002.0859.1647.136.1933.1504.043.0143.0859.0358.1289.0644.0287.043.0573.0645.086.0645.0429 0 .0859.0143.1289.0429.0286.0144.0573.0358.0859.0645.043.0143.0859.0286.1289.043.0573.0429.1361.0644.2363.0644.0716.0143.1289.0287.1719.043.043 0 .0931.0071.1504.0215.1146.0286.2005.0429.2578.0429.1719-.0143.2865-.0143.3438 0 .0716.0144.1289.0215.1718.0215.0717 0 .1433-.0071.2149-.0215.0716-.0286.1432-.0429.2148-.0429.1719.0143.2793.0143.3223 0 .0573-.0144.1146-.0215.1719-.0215zm-.8594-5.45702c-.0287-.05729-.0501-.10742-.0645-.15039 0-.04297-.0214-.07162-.0644-.08594-.0716-.14323-.1146-.22201-.1289-.23633 0-.01432-.0143-.02864-.043-.04297-.1289-.11458-.2077-.18619-.2363-.21484-.1432-.11458-.2292-.17904-.2578-.19336-.2006-.10026-.3366-.15039-.4082-.15039-.0573 0-.1361 0-.2364 0-.1575.07161-.2435.10742-.2578.10742s-.0286.00716-.0429.02149c-.1576.08593-.2507.13606-.2793.15039-.0287 0-.043.02148-.043.06445-.1146.05729-.179.0931-.1934.10742-.0143 0-.0286 0-.0429 0-.086.11458-.1433.19336-.1719.23633-.0143.02865-.0287.05729-.043.08594-.1146.14323-.179.22916-.1933.25781-.0144.02865-.0287.05729-.043.08594-.043.18619-.0931.29362-.1504.32226-.043.02865-.0716.07878-.0859.15039-.086.11459-.1289.1862-.1289.21485.0143.01432.0143.02864 0 .04297-.043.14322-.0788.21484-.1075.21484-.0573.22917-.0859.35807-.0859.38672.0286.11458.0286.1862 0 .21484-.0143.02865-.0072.05013.0215.06446.1862-.08594.3151-.12175.3867-.10743.1432-.07161.2363-.11458.2793-.1289.043-.01433.0788-.03581.1074-.06446.1576-.08593.2435-.13606.2578-.15039.1146-.04297.1934-.07161.2364-.08593.0429-.01433.0787-.02865.1074-.04297.1719-.07162.2793-.11459.3222-.12891.0573-.02865.1003-.05729.129-.08594.1145-.07161.1933-.10742.2363-.10742.0429-.01432.0859-.03581.1289-.06445.0859-.04297.1361-.06446.1504-.06446.0286-.01432.0573-.02864.0859-.04296.0573-.02865.1074-.04297.1504-.04297.043-.01433.0788-.03581.1074-.06446.1576-.07161.2364-.11458.2364-.1289.0143-.02865.0286-.04297.0429-.04297.086-.10026.1647-.15039.2364-.15039.0716-.01432.1217-.05013.1503-.10742zm10.1621-2.12696c.1576 0 .265-.02864.3223-.08593.1145-.08594.1862-.13607.2148-.15039.0287-.01433.0573-.03581.0859-.06446.1433-.1289.2435-.23632.3008-.32226.1146-.11459.1719-.17904.1719-.19336.1003-.10026.1647-.16471.1934-.19336.0286-.02865.0573-.05729.0859-.08594.1003-.04297.1719-.08594.2148-.1289.0573-.0573.1146-.10026.1719-.12891.1003-.04297.1719-.07878.2149-.10742.1575-.05729.2363-.08594.2363-.08594.0143-.01432.0286-.02148.043-.02148.0286-.02865.0572-.05013.0859-.06446.0286-.02864.0644-.05729.1074-.08593.086-.01433.1647-.04297.2363-.08594.1576-.05729.2793-.08594.3653-.08594.1719-.07161.265-.10742.2793-.10742.0573-.02865.1074-.03581.1504-.02149.0429 0 .0787-.00716.1074-.02148.1432.01432.2292.02148.2578.02148h.3652c.0717-.01432.1289-.01432.1719 0 .0859.01433.1576.05013.2149.10743.0572.05729.1289.08593.2148.08593.0286.04297.0573.07878.0859.10743.0287.02864.0502.07161.0645.1289.1146.10026.1647.15039.1504.15039 0 0 .0071.00716.0215.02149.0573.15755.0859.24349.0859.25781.0286.15755.0286.30794 0 .45117-.0143.08594-.0215.22917-.0215.42969.0143.20052-.0143.33659-.0859.4082.0286.14323.0286.29362 0 .45117 0 .07162-.0072.14323-.0215.21485-.0143.05729-.0215.12174-.0215.19336v.25781c.0143.08594.0215.17187.0215.25781 0 .05729-.0072.11458-.0215.17188-.0143.05729-.0286.10742-.043.15039-.0286.14323-.0501.24349-.0644.30078 0 .04297-.0072.08594-.0215.1289-.0716.20053-.1217.32227-.1504.36524-.043.04297-.0859.06445-.1289.06445-.0286 0-.0644.00716-.1074.02149-.1576.05729-.2507.07877-.2793.06445-.0143-.01432-.043-.03581-.0859-.06445-.043.01432-.086.01432-.129 0-.0429-.02865-.0859-.04297-.1289-.04297-.2578.01432-.4153.02864-.4726.04297h-.2363c-.129.04296-.2149.07877-.2579.10742-.0429.01432-.0787.03581-.1074.06445-.1575.02865-.2506.05729-.2793.08594-.1002.01432-.1719.02864-.2148.04297-.0287.01432-.0573.02864-.086.04297-.1575.02864-.2578.04297-.3007.04297-.1003.04296-.1791.09309-.2364.15039-.1575.05729-.2506.10026-.2793.1289-.0286.02865-.0644.05013-.1074.06445-.0286.04297-.0644.07878-.1074.10743-.0287.01432-.0573.0358-.0859.06445-.086.05729-.1504.10742-.1934.15039-.1003.07162-.1719.13607-.2148.19336-.043.04297-.086.07878-.129.10742-.0286.02865-.0644.05729-.1074.08594-.0286.02869-.0573.05729-.0859.08589-.0143.0573-.0358.1003-.0645.129-.0286.0286-.0573.0572-.0859.0859-.0716.1719-.1217.2864-.1504.3437-.0286.043-.043.1003-.043.1719-.0573.0573-.1002.1289-.1289.2149-.0143.0716-.0358.1575-.0644.2578-.0143.0716-.0287.1504-.043.2363-.0143.0716-.0215.1432-.0215.2148.0287.1862.0287.308 0 .3653-.0143.1432-.0215.2291-.0215.2578.0144.0286.0215.0573.0215.0859-.0143.1576-.0215.265-.0215.3223.0144.043.0215.0931.0215.1504-.0286.2005-.0501.3294-.0644.3867 0 .043-.0072.0859-.0215.1289v.1074c.0143.2149.0143.3653 0 .4512-.0143.0716-.0215.1504-.0215.2363v.1934c.0143.0573.0215.1217.0215.1934 0 .3437.0286.6087.0859.7949.0143.1146.0287.1933.043.2363s.0215.0859.0215.1289c.0286.1146.0429.2149.0429.3008s-.0071.1432-.0214.1719c-.0144.1002-.0215.179-.0215.2363-.0716.1289-.1074.2077-.1074.2363 0 .0287-.0072.0573-.0215.086-.0287.0429-.0716.0859-.1289.1289-.0573.0286-.1003.0644-.1289.1074-.1003-.0143-.2149 0-.3438.043-.1003.0286-.1719.0358-.2148.0214-.043 0-.086.0072-.1289.0215-.043 0-.086 0-.1289 0-.043.0143-.0788.0215-.1075.0215-.1718.0143-.2649.0143-.2793 0 0 0-.0071 0-.0215 0-.1575 0-.2506-.0072-.2792-.0215-.0144 0-.0287 0-.043 0l-.5801.086c-.2148.0143-.3652.0214-.4512.0214-.0716.0144-.1432.0072-.2148-.0214-.2005-.0287-.3438-.0573-.4297-.086-.0716-.0286-.1432-.0429-.2148-.0429-.1003-.086-.1791-.1504-.2364-.1934-.0573-.0573-.1146-.1074-.1718-.1504-.043-.1432-.0717-.2292-.086-.2578 0-.0287-.0071-.0573-.0215-.0859-.0573-.2006-.0859-.308-.0859-.3223 0-.1862 0-.3366 0-.4512.0143-.1289.0286-.2363.043-.3223.0143-.0572.0214-.1647.0214-.3222.0287-.1576.043-.2435.043-.2578 0-.0716 0-.1361 0-.1934s.0072-.1002.0215-.1289c.0286-.2005.043-.3151.043-.3437-.0144-.1146-.0215-.1791-.0215-.1934.0143-.0286.0215-.0573.0215-.0859 0-.0717-.0072-.1576-.0215-.2579 0-.1002 0-.2005 0-.3007.0286-.1719.0358-.265.0215-.2793 0-.0144.0071-.0358.0215-.0645 0-.0716.0071-.1361.0214-.1933.0144-.0573.0072-.1146-.0214-.1719 0-.1576 0-.2435 0-.2578.0143-.0287.0214-.0573.0214-.086 0-.1146 0-.2148 0-.3007.0144-.1003.0144-.2077 0-.3223 0-.043-.0071-.086-.0214-.1289 0-.0573 0-.1146 0-.1719 0-.1289.0071-.2435.0214-.3437.0144-.1146.0144-.2292 0-.3438-.0143-.1862-.0286-.3366-.0429-.4512 0-.11455.0071-.22914.0215-.34372-.0144-.14323-.0215-.222-.0215-.23633-.0287-.10026-.043-.17187-.043-.21484.0143-.05729.0143-.12175 0-.19336 0-.12891-.0143-.20052-.043-.21484-.0143-.02865-.0215-.0573-.0215-.08594.0144-.12891.0144-.22201 0-.2793-.0143-.05729-.0214-.11458-.0214-.17187.0143-.05729.0214-.10026.0214-.12891.0144-.04297.0215-.08594.0215-.12891-.0143-.1289-.0215-.20052-.0215-.21484.0144-.01432.0215-.02865.0215-.04297l-.0215-.53711c0-.10026 0-.17903 0-.23633 0-.07161-.0143-.14322-.0429-.21484-.0143-.07161-.0143-.15755 0-.25781.0143-.11459.0143-.1862 0-.21485-.0143-.04296-.0215-.09309-.0215-.15039.0143-.07161.0143-.14323 0-.21484s-.0215-.13607-.0215-.19336c0-.04297 0-.08594 0-.12891.0143-.05729.0215-.10742.0215-.15039 0-.07161-.0143-.14323-.043-.21484-.0143-.07161-.0215-.14323-.0215-.21484.0573-.21485.0931-.34375.1075-.38672.0143-.05729.0429-.11459.0859-.17188.1289-.11458.1934-.17903.1934-.19336 0-.01432.0071-.02148.0214-.02148.1146-.01432.1934-.01432.2364 0 .0429 0 .0716-.01432.0859-.04297.043.02865.0859.03581.1289.02148.0573-.01432.1074-.02148.1504-.02148.2292-.04297.487-.04297.7734 0 .1576.02865.2435.04297.2579.04297.0143-.01432.0286-.02149.0429-.02149h.2578c.043-.01432.086-.02148.1289-.02148.1003-.01432.1648-.01432.1934 0 .043 0 .0931-.00716.1504-.02148.1719-.02865.2721-.03581.3008-.02149.0286 0 .0644-.00716.1074-.02148.0286 0 .0716.00716.1289.02148.0573 0 .1074-.01432.1504-.04297.1146.01433.2148.02865.3008.04297.0859 0 .1933.00716.3222.02149.1003.10026.1719.15039.2149.15039.043.04296.0716.12174.0859.23632.043.12891.0573.20769.043.23633 0 .02865.0072.05729.0215.08594 0 .07161.0143.15755.0429.25781.0287.10026.043.20052.043.30078v.23633zm17.7456 11.34378c-.085-.0143-.179-.0287-.279-.043-.1 0-.186.0215-.258.0645-.086-.0287-.171-.0358-.257-.0215-.072.0286-.144.0501-.215.0644-.201.0144-.323.0144-.366 0-.042 0-.085 0-.1284 0l-.3438.0215c-.0573.0143-.1074.0215-.1504.0215-.0286.0143-.0787.0143-.1503 0l-.2364-.0215c-.1146 0-.179-.0071-.1933-.0215-.0144 0-.0358 0-.0645 0-.1002.0144-.1933.0144-.2793 0-.0716 0-.1432 0-.2148 0h-.3653c-.0716-.0143-.1217-.0215-.1504-.0215-.0286.0144-.0644.0144-.1074 0-.1002-.0286-.179-.0644-.2363-.1074-.043-.0286-.0859-.0573-.1289-.0859-.0859-.043-.1289-.0788-.1289-.1074.0143-.043-.0072-.0573-.0645-.043.0287-.0573.043-.1289.043-.2149 0-.0859-.0072-.1718-.0215-.2578.0287-.2721.0287-.5371 0-.7949v-.6015c.043-.2292.0645-.3724.0645-.4297.0286-.1719.0429-.2722.0429-.3008 0-.1432 0-.222 0-.2363.0144-.1719.0287-.2865.043-.3438v-.6445c.0287-.1146.043-.2149.043-.3008-.0143-.0859-.0143-.1576 0-.2149.0143-.0572.0215-.1217.0215-.1933-.0287-.1003-.043-.1934-.043-.2793.0143-.0859.0215-.179.0215-.2793v-.2578c0-.1289.0071-.2507.0215-.3653.0143-.1145.0143-.2506 0-.4082-.0287-.0859-.0358-.1647-.0215-.2363.0143-.0859.0215-.1862.0215-.3008 0-.0716-.0072-.1432-.0215-.21481 0-.08593 0-.17187 0-.25781 0-.15755-.0072-.27213-.0215-.34375-.0287-.24349-.043-.42969-.043-.55859.0143-.14323.0215-.2793.0215-.40821l-.0215-.36523c-.0143-.05729-.0286-.10026-.0429-.12891-.0144-.04297-.0215-.0931-.0215-.15039.0573-.18619.0787-.3151.0644-.38672 0-.07161 0-.14322 0-.21484v-.42969c0-.08593 0-.17187 0-.25781.0143-.10026.0215-.19336.0215-.2793-.0143-.17187-.0286-.35091-.043-.53711 0-.18619.0072-.35807.0215-.51562-.0429-.05729-.0644-.11458-.0644-.17188.0143-.07161.0215-.14322.0215-.21484 0-.15755-.0072-.23633-.0215-.23633 0-.01432 0-.02864 0-.04297-.0144-.10026-.0215-.19336-.0215-.27929-.0143-.15756-.0143-.25065 0-.2793s.0215-.05729.0215-.08594c0-.05729-.0072-.11458-.0215-.17187s-.0215-.12175-.0215-.19336c.0143-.10026.0072-.22201-.0215-.36524 0-.04297 0-.08593 0-.1289.0143-.04297.0143-.0931 0-.15039 0-.14323-.0143-.23633-.043-.2793-.0143-.04297-.0214-.07878-.0214-.10742 0-.10026-.0072-.19336-.0215-.2793 0-.08594 0-.16471 0-.23633l-.0215-.27929c-.0287-.12891-.043-.20052-.043-.21485.0143-.01432.0215-.0358.0215-.06445-.0143-.07162-.0286-.12891-.043-.17188-.0143-.05729-.0214-.10742-.0214-.15039.0143-.157548.0143-.243486 0-.257809 0-.014323 0-.035807 0-.064453l.0429-.279297c.0287-.028646.0573-.057291.086-.085937.0286-.028646.0573-.057292.0859-.085938.0716-.028646.1432-.042968.2148-.042968.086-.014323.1576-.035808.2149-.064454.1289-.014323.2363-.021484.3223-.021484.1002 0 .1862.014323.2578.042969.1432.028646.2291.042969.2578.042969.0286-.014323.0573-.021485.0859-.021485.1289.014323.222.021485.2793.021485s.1218.007161.1934.021484c.1575.014323.2649.021484.3222.021484.0717 0 .1433.007162.2149.021485l.2578.042968h.2148c.057 0 .107-.007161.15-.021484l.344-.042969h.258c.043-.014323.093-.014323.15 0h.129c.043 0 .101-.014323.172-.042968.129.057291.201.085937.215.085937s.021.014323.021.042969l.151.214844c0 .057291-.007.107421-.022.15039v.085938.279294c.015.08594.022.16472.022.23633l-.022.25781c-.014.05729-.021.11459-.021.17188 0 .04297-.007.0931-.022.15039-.028.25781-.057.42252-.086.49414.029.07161.036.15039.022.23633s-.022.16471-.022.23633c-.014.15755-.021.24349-.021.25781.014.01432.021.03581.021.06445l-.021.34375c-.014.1862 0 .33659.043.45117-.014.17188-.014.28646 0 .34375.014.04297.007.07162-.022.08594v.32227c0 .20052.008.32226.022.36523.014.02865.007.06445-.022.10742v.64453c.029.08594.043.17188.043.25782 0 .05729-.007.11458-.021.17187s0 .12175.043.19336c-.029.24349-.05.5013-.065.77344 0 .25781.015.5013.043.73047 0 .04297.008.08593.022.1289s.021.07878.021.10743c-.014.05729-.028.10742-.043.15039 0 .02864-.007.06445-.021.10742v.30078c.014.02864.021.05729.021.08594v.4082c.015.10026.015.21484 0 .34375v.36523c0 .05731-.007.11461-.021.17191v.1289c-.014.0859-.022.1575-.022.2148.015.043.022.0788.022.1074.014.1003.014.1934 0 .2793-.014.086-.022.1576-.022.2149-.014.0716-.021.1504-.021.2363.014.0859.014.1647 0 .2363 0 .0287-.007.0717-.021.1289v.129.3867c.014.1289.014.2578 0 .3867.014.1862.021.3079.021.3652-.029.1576-.036.2578-.021.3008.014.043.021.0931.021.1504-.014.1289-.021.2077-.021.2363.014.0143.007.0358-.022.0645.029.1289.043.2005.043.2148.014 0 .021.0072.021.0215.015.1719.022.2936.022.3652v.2364c.043.1002.057.1647.043.1933-.014.0287-.007.0502.021.0645-.014.0716-.014.1432 0 .2148.029.0716.051.1433.065.2149 0 .1718.007.2864.021.3437.015.043.029.1003.043.1719.015.043.022.1003.022.1719v.1933l-.022.3008c0 .0716.007.1218.022.1504.014.0286.014.0788 0 .1504-.029.1289-.05.2005-.065.2148-.014.0144-.021.0287-.021.043zm9.969-3.7598c.029.043.065.0573.108.043s.086-.0287.129-.043c.2-.043.329-.0644.386-.0644.058-.0144.122-.0287.194-.043.114-.0287.229-.0645.343-.1074.129-.0573.258-.1003.387-.1289.029-.0144.065-.0215.108-.0215.057-.0143.1-.0287.128-.043.086-.0573.151-.0931.194-.1074.057-.0287.1-.0573.129-.086.143-.1145.236-.179.279-.1933s.079-.0358.107-.0645c.201-.0573.316-.0787.344-.0644.115.0286.172.1217.172.2793-.014.2005-.021.3294-.021.3867.014.043.021.1003.021.1719.014.1146.022.222.022.3222v.3008.1289c.014.043.021.0788.021.1074 0 .0717-.014.1504-.043.2364-.014.0859-.021.1647-.021.2363.014.2292.014.444 0 .6445-.043.1862-.058.308-.043.3653.014.0573.021.1074.021.1504-.014.1002-.029.1862-.043.2578-.143.1432-.251.222-.322.2363-.072 0-.122.0358-.151.1074-.085.0143-.143.0287-.171.043-.015.0143-.036.0286-.065.043-.1.0859-.179.1289-.236.1289-.043 0-.086.0071-.129.0214l-.258.1075c-.157.0573-.265.0859-.322.0859s-.115.0287-.172.0859c-.057 0-.115.0144-.172.043-.043.0143-.1.0287-.172.043-.143.0286-.243.0501-.301.0644-.1.043-.171.0645-.214.0645s-.094.0072-.151.0215c-.071.0143-.15.0215-.236.0215-.072.0143-.151.0286-.236.0429-.215.043-.366.0573-.452.043-.086 0-.172.0143-.257.043-.115 0-.208.0071-.28.0215-.071.0143-.143.0214-.215.0214-.086 0-.171-.0071-.257-.0214-.072-.0144-.151-.0287-.237-.043-.057.0286-.129.0358-.215.0215-.071-.0144-.164-.0358-.279-.0645-.114-.0143-.193-.0286-.236-.043-.172 0-.287-.0071-.344-.0214-.043-.0144-.093-.0287-.15-.043-.058-.0143-.108-.0215-.151-.0215s-.093-.0072-.15-.0215c-.1-.0143-.172-.0286-.215-.0429-.043-.0144-.086-.0287-.129-.043-.172-.043-.272-.0716-.301-.086l-.193-.1503c-.115-.0287-.229-.0717-.344-.129-.043-.0286-.086-.0501-.129-.0644-.028-.0143-.064-.043-.107-.0859-.029-.043-.072-.0717-.129-.086-.043-.0143-.086-.0358-.129-.0644-.157-.1003-.243-.1576-.258-.1719 0-.0143-.007-.0287-.021-.043-.1-.0429-.158-.0716-.172-.0859 0-.0143-.014-.0287-.043-.043l-.215-.1289c-.086-.0859-.165-.1432-.236-.1719-.029-.0716-.072-.1217-.129-.1504-.043-.0429-.079-.1002-.108-.1718-.1-.086-.171-.1433-.214-.1719s-.079-.0716-.108-.1289c-.043-.0287-.079-.0573-.107-.0859-.015-.043-.036-.0788-.065-.1075-.057-.0429-.093-.1217-.107-.2363-.086-.0859-.129-.1432-.129-.1719 0-.0286-.007-.0573-.022-.0859-.085-.1146-.143-.1862-.171-.2149-.086-.1002-.129-.1575-.129-.1718 0-.0144-.007-.0358-.022-.0645-.1-.2005-.172-.3222-.215-.3652 0-.0716-.007-.1218-.021-.1504-.014-.0287-.022-.0645-.022-.1074-.071-.1433-.107-.2292-.107-.2578 0-.043 0-.0788 0-.1075-.043-.1432-.072-.2148-.086-.2148 0 0 0-.0072 0-.0215-.072-.2148-.115-.3509-.129-.4082-.014-.0716-.036-.1361-.064-.1934-.029-.1432-.05-.2363-.065-.2792 0-.043-.007-.1003-.021-.1719 0-.086-.007-.1719-.022-.2578-.014-.1003-.021-.1576-.021-.1719 0-.0287 0-.0716 0-.1289.014-.0716.014-.1289 0-.1719-.015-.043-.036-.0788-.065-.1074-.028-.043-.043-.086-.043-.1289.072-.2149.108-.3509.108-.4082 0-.0716 0-.1576 0-.2578.028-.12894.036-.2292.021-.30082-.014-.07161-.014-.14323 0-.21484 0-.04297 0-.08594 0-.12891 0-.05729.015-.10026.043-.12891-.028-.05729-.036-.10026-.021-.1289.028-.04297.05-.08594.064-.12891 0-.15755 0-.23633 0-.23633.015-.01432.022-.0358.022-.06445.028-.12891.05-.23633.064-.32226.029-.10026.057-.1862.086-.25782.043-.11458.065-.17903.065-.19336 0-.02864.007-.05729.021-.08593.057-.08594.093-.14323.107-.17188.015-.02864.029-.05729.043-.08594.058-.21484.122-.37955.194-.49414.071-.11458.122-.20052.15-.25781.029-.05729.057-.10026.086-.12891 0-.05729.014-.10026.043-.1289.043-.02865.079-.05729.107-.08594.072-.12891.122-.20052.151-.21484.071-.12891.107-.20052.107-.21485.129-.14323.208-.222.237-.23633.028-.01432.057-.0358.086-.06445.1-.11458.143-.17903.128-.19336 0-.02864.008-.04297.022-.04297.043-.01432.072-.0358.086-.06445.029-.04297.057-.07878.086-.10742.129-.11458.2-.17904.215-.19336.014-.01432.035-.02865.064-.04297.057-.10026.093-.15039.108-.15039.028 0 .043-.01432.043-.04297.143-.10026.222-.15755.236-.17187.028-.01433.057-.03581.086-.06446.114-.08593.179-.1289.193-.1289.029-.01433.05-.02865.065-.04297.143-.08594.222-.14323.236-.17188.129-.10026.2-.15039.215-.15039.028-.01432.043-.0358.043-.06445.172-.08594.272-.12891.301-.12891.028 0 .057-.00716.085-.02148.215-.08594.351-.14323.409-.17188.028-.01432.057-.02148.086-.02148.043-.01432.1-.02865.171-.04297.029-.01432.058-.02865.086-.04297.043-.01432.094-.02864.151-.04297.143-.04297.215-.06445.215-.06445 0-.01432.014-.02148.043-.02148.1-.02865.164-.05013.193-.06446.029-.01432.079-.02148.15-.02148.187-.01432.358-.01432.516 0 .143.01432.243.01432.301 0 .057-.01432.122-.02149.193-.02149.057 0 .143.01433.258.04297h.236c.144.04297.215.06446.215.06446 0-.01433.014-.02149.043-.02149.115.02865.179.04297.193.04297.029-.01432.058-.01432.086 0 .058 0 .108.01432.151.04297.057.02864.122.02864.193 0 .158.07161.258.11458.301.1289.057.01433.122.02865.193.04297.144.0573.244.10026.301.12891.072.01432.136.04297.193.08594.086-.02865.165.00716.237.10742.143.08594.222.12891.236.12891s.029.00716.043.02148c.072.07161.129.12174.172.15039s.079.06445.107.10742c.072.10026.115.15755.129.17188.015 0 .029.00716.043.02148.043.04297.086.08594.129.12891.057.04297.1.0931.129.15039.115.11458.172.17187.172.17187.057.0573.1.10743.129.15039.043.02865.079.06446.107.10743.115.11458.172.18619.172.21484 0 .01432.007.03581.022.06445.114.1862.179.28646.193.30078.057.10026.107.17188.15.21485.029.04297.05.08594.065.1289.014.04297.036.08594.064.12891-.014.04297-.014.08594 0 .12891.029.04297.058.07877.086.10742.029.05729.05.13607.065.23633.014.08593.035.16471.064.23632.029.04297.05.08594.065.12891.014.02865.035.07162.064.12891.029.17187.043.25781.043.25781 0 .04297.007.08594.021.12891.015.02864.029.06445.043.10742.015.1289.015.19336 0 .19336 0 0 .008.01432.022.04297l.064.23632c.029.11459.043.21485.043.30079 0 .04296.007.08593.022.1289.014.02865.021.06446.021.10742-.028.17188-.043.28646-.043.34375.015.04297.015.07878 0 .10743-.129.1289-.207.20768-.236.23632-.014.02865-.036.05013-.064.06446-.115.05729-.179.0931-.194.10742 0 .01432-.007.02864-.021.04297-.158.07161-.258.10742-.301.10742-.029 0-.057.01432-.086.04299-.115.0429-.193.0788-.236.1074-.029.0286-.058.0573-.086.0859-.144.043-.215.0788-.215.1075-.086.0429-.158.0787-.215.1074-.057.0143-.107.0358-.15.0644-.158.086-.294.1576-.409.2149-.143.0859-.243.136-.3.1504-.058.0143-.101.0358-.129.0644-.115.0573-.186.0931-.215.1074-.029.0144-.057.0359-.086.0645-.143.1003-.236.1575-.279.1719-.029.0143-.058.0429-.086.0859-.029-.0143-.072-.0072-.129.0215-.057.0286-.108.0573-.151.0859-.171.0716-.286.1146-.343.1289-.043 0-.079.0215-.108.0645-.043 0-.086.0143-.129.043-.028.0143-.064.0286-.107.0429-.043.0144-.093.0215-.15.0215-.043-.0143-.086-.0071-.129.0215-.129.0859-.208.1289-.237.1289-.028.0286-.071.0501-.129.0645-.043.0143-.086.0286-.129.0429-.128.0716-.222.1074-.279.1074-.043 0-.079.0144-.107.043-.129.0573-.201.0931-.215.1074-.115.0717-.193.1075-.236.1075s-.086.0143-.129.0429c-.229.086-.351.1504-.366.1934 0 .1862.015.2864.043.3008.101.0859.165.136.194.1504.043.0143.086.0358.129.0644.028.043.057.0645.086.0645.043 0 .086.0143.129.0429.028.0144.057.0358.085.0645.043.0143.086.0286.129.043.058.0429.136.0644.237.0644.071.0143.129.0287.172.043.043 0 .093.0071.15.0215.115.0286.2.0429.258.0429.172-.0143.286-.0143.344 0 .071.0144.128.0215.171.0215.072 0 .144-.0071.215-.0215.072-.0286.143-.0429.215-.0429.172.0143.279.0143.322 0 .058-.0144.115-.0215.172-.0215zm-.859-5.45702c-.029-.05729-.05-.10742-.065-.15039 0-.04297-.021-.07162-.064-.08594-.072-.14323-.115-.22201-.129-.23633 0-.01432-.014-.02864-.043-.04297-.129-.11458-.208-.18619-.236-.21484-.143-.11458-.229-.17904-.258-.19336-.201-.10026-.337-.15039-.408-.15039-.058 0-.136 0-.237 0-.157.07161-.243.10742-.257.10742-.015 0-.029.00716-.043.02149-.158.08593-.251.13606-.28.15039-.028 0-.043.02148-.043.06445-.114.05729-.179.0931-.193.10742-.014 0-.029 0-.043 0-.086.11458-.143.19336-.172.23633-.014.02865-.028.05729-.043.08594-.114.14323-.179.22916-.193.25781s-.029.05729-.043.08594c-.043.18619-.093.29362-.151.32226-.042.02865-.071.07878-.085.15039-.086.11459-.129.1862-.129.21485.014.01432.014.02864 0 .04297-.043.14322-.079.21484-.108.21484-.057.22917-.086.35807-.086.38672.029.11458.029.1862 0 .21484-.014.02865-.007.05013.022.06446.186-.08594.315-.12175.386-.10743.144-.07161.237-.11458.28-.1289.043-.01433.079-.03581.107-.06446.158-.08593.244-.13606.258-.15039.115-.04297.193-.07161.236-.08593.043-.01433.079-.02865.108-.04297.172-.07162.279-.11459.322-.12891.057-.02865.1-.05729.129-.08594.115-.07161.193-.10742.236-.10742.043-.01432.086-.03581.129-.06445.086-.04297.136-.06446.151-.06446.028-.01432.057-.02864.085-.04296.058-.02865.108-.04297.151-.04297.043-.01433.079-.03581.107-.06446.158-.07161.237-.11458.237-.1289.014-.02865.028-.04297.043-.04297.086-.10026.164-.15039.236-.15039.072-.01432.122-.05013.15-.10742zm17.338-1.52539c.129-.10026.2-.14323.215-.12891.014 0 .021-.00716.021-.02148.115-.10026.186-.16472.215-.19336.086-.04297.136-.07162.15-.08594.029-.01432.058-.02865.086-.04297l.301-.21484c.057-.02865.1-.06446.129-.10742.043-.0573.086-.11459.129-.17188.157-.08594.243-.13607.258-.15039.057-.05729.107-.0931.15-.10742s.079-.03581.107-.06446c.187-.15755.337-.25781.452-.30078.057-.07161.121-.12174.193-.15039.072-.04297.136-.10026.193-.17187.101-.02865.172-.06446.215-.10742.072-.0573.122-.0931.151-.10743.043-.02864.086-.05013.129-.06445.171-.01432.264-.02148.279-.02148.114.01432.193.02148.236.02148.1.08594.158.12891.172.12891.029 0 .057.01432.086.04297.029.02864.064.05729.107.08593.043.01433.079.03581.108.06446l.193.15039c.129.07161.194.11458.194.1289 0 0 .007.00717.021.02149.086.07161.15.12174.193.15039.043.02864.072.06445.086.10742.101.04297.179.10026.237.17188.071.05729.143.12174.214.19336.158.10026.258.16471.301.19335.043.02865.079.0573.108.08594.114.04297.2.11459.257.21485.058.10026.144.17903.258.23632.115.11459.172.17188.172.17188.029.04297.057.0931.086.15039.043.05729.079.10742.108.15039.114.12891.179.20768.193.23633.014.01432.036.03581.064.06445.072.08594.136.17188.194.25781.057.11459.107.23633.15.36524.057.1289.122.25065.193.36523-.028.11459-.021.23633.022.36524l.021.23632c0 .10027.008.17188.022.21485s.021.07877.021.10742c.029.04297.029.08594 0 .12891-.014.04297-.021.0931-.021.15039.014.17187.014.28646 0 .34375v.1289.10743c.014.04296.014.09309 0 .15039-.029.18624-.05.31514-.065.38674 0 .0573.008.136.022.2363 0 .1576-.014.2721-.043.3438-.014.0572-.022.1217-.022.1933.015.1719.022.2793.022.3223.014.0286.021.0573.021.0859l-.021.5156c.014.1433.014.2149 0 .2149v.0215c.014.1146.014.179 0 .1933v.043.1289c.014.043.021.0859.021.1289v.1934c.015.0143.022.0286.022.0429-.043.1289-.065.2006-.065.2149.015.0143.022.0358.022.0644v.1719c.014.043.021.0931.021.1504 0 .0716-.007.1432-.021.2148v.2149.2363c.043.2149.064.3939.064.5371 0 .1433.008.2865.022.4297v.2149c.014.0143.021.0358.021.0644.015.1576.022.3151.022.4727v.4511c0 .043.007.086.021.1289.015.043.015.086 0 .1289-.014.043-.028.0788-.043.1075-.014.0143-.035.0501-.064.1074-.287.1146-.466.179-.537.1934-.072.0286-.158.0286-.258 0-.072 0-.165-.0072-.279-.0215-.101 0-.186.0071-.258.0215-.158-.0144-.265-.0215-.322-.0215-.043.0143-.093.0215-.151.0215h-.365c-.072 0-.143 0-.215 0-.057.0143-.114.0143-.172 0-.143-.043-.222-.0645-.236-.0645-.029 0-.064 0-.107 0-.043.0143-.101.0215-.172.0215-.172-.0143-.272-.0143-.301 0-.014.0143-.036.0143-.065 0-.028.0286-.071.043-.128.043-.058 0-.122 0-.194 0-.129.0286-.229.0214-.301-.0215-.129-.1146-.222-.1934-.279-.2364 0-.0716-.007-.1432-.021-.2148-.015-.0716-.022-.1504-.022-.2363l.043-.2793.022-.2364c.014-.0286.021-.0644.021-.1074.014-.0429.036-.1002.065-.1719.014-.0429.021-.0787.021-.1074.014-.0429.029-.1002.043-.1719 0-.1718.007-.2936.021-.3652.015-.0859.022-.1647.022-.2363-.014-.1862-.007-.308.021-.3652 0-.1576.008-.2435.022-.2579-.014-.1432-.014-.2291 0-.2578.014-.0286.021-.0573.021-.0859 0-.1719 0-.265 0-.2793.015-.0143.022-.0287.022-.043-.029-.1575-.043-.2435-.043-.2578.014-.0143.021-.0286.021-.043 0-.0429-.007-.0859-.021-.1289 0-.0573 0-.1217 0-.1933v-.2793c-.014-.1576-.022-.2793-.022-.3653-.028-.1718-.043-.2864-.043-.3437.015-.0573.022-.1074.022-.1504 0-.2005 0-.3509 0-.4512 0-.1145-.014-.2076-.043-.2793.029-.0286.036-.0716.021-.1289 0-.0573 0-.1074 0-.1504.015-.1432.008-.2506-.021-.3222-.014-.086-.007-.1576.021-.2149-.014-.12888-.028-.22197-.043-.27927 0-.05729-.028-.10026-.085-.1289-.129-.11459-.194-.1862-.194-.21485-.186-.01432-.344.01433-.472.08594-.101.12891-.158.19336-.172.19336-.101.14323-.179.23633-.237.27932-.043.0429-.086.0931-.129.1504-.114.1432-.186.2291-.214.2578-.158.0859-.273.1575-.344.2148-.057.0573-.129.0788-.215.0645-.072 0-.136-.0215-.193-.0645-.043-.0573-.101-.1002-.172-.1289-.029-.0716-.065-.1289-.108-.1719-.043-.0429-.078-.1002-.107-.1718-.1-.1433-.15-.21488-.15-.21488.014 0 .014-.00716 0-.02148-.072-.12891-.151-.25065-.237-.36523-.028.02864-.043.06445-.043.10742v.1289.25777.4727c0 .0716-.007.1504-.021.2363v.2578.5372c.014.1718.021.3509.021.5371.029.0716.043.1504.043.2363v.2363l.022.2363v.1504c.014.0287.021.0573.021.086.014.1575.014.2506 0 .2793-.014.0286-.021.0573-.021.0859 0 .0859.014.2005.043.3438-.015.0573-.022.1217-.022.1933.014.0716.022.1361.022.1934.014.0429.014.0859 0 .1289v.1289c.014.1432.028.2435.043.3008.014.0429.021.0787.021.1074.029.2578.043.4225.043.4941.014.043.014.0931 0 .1504 0 .043.007.086.022.1289.028.1433.035.222.021.2364v.0644l.064.3223c-.014.1432-.021.222-.021.2363.014.0143.021.0358.021.0645-.042.1575-.064.2721-.064.3437s-.021.1218-.064.1504c-.144.0143-.251.0215-.323.0215-.071.0143-.136.0358-.193.0644-.244.0287-.437.0215-.58-.0214-.143-.0287-.222-.043-.236-.043-.015.0143-.036.0215-.065.0215-.057 0-.1-.0072-.129-.0215-.028 0-.071 0-.129 0-.172-.0143-.279-.0215-.322-.0215-.029 0-.064-.0072-.107-.0215-.072 0-.151 0-.237 0-.071-.0143-.143-.0286-.215-.043-.171-.0429-.329-.0501-.472-.0214-.129.0286-.229.0501-.301.0644-.1 0-.165 0-.193 0-.015-.0143-.036-.0143-.065 0-.043 0-.086.0072-.129.0215-.028 0-.071-.0072-.129-.0215-.114 0-.207.0143-.279.043-.157-.0573-.243-.086-.258-.086 0 0-.007-.0143-.021-.0429-.043-.0716-.079-.1218-.108-.1504-.014-.0287-.021-.0645-.021-.1074.014-.2292.014-.3939 0-.4942 0-.1146.007-.222.021-.3222 0-.1719 0-.2793 0-.3223.015-.0573.029-.1074.043-.1504.029-.2578.058-.4225.086-.4941.015-.1862.015-.308 0-.3653-.014-.0573-.014-.1146 0-.1718 0-.1576.007-.2435.022-.2579.014-.0286.021-.0573.021-.0859l-.021-.2793c0-.0859 0-.1647 0-.2363s-.015-.1361-.043-.1934c.014-.1575.007-.265-.022-.3222-.014-.0717-.007-.1146.022-.129.014-.1289.021-.2005.021-.2148s-.007-.0358-.021-.0645c0-.0429 0-.0859 0-.1289.014-.0429.021-.0787.021-.1074 0-.0573-.007-.1002-.021-.1289-.015-.043-.007-.0859.021-.1289 0-.1432 0-.2506 0-.3223 0-.0859 0-.1647 0-.2363s-.007-.1361-.021-.1933c-.015-.0573-.022-.1075-.022-.1504.015-.1862.007-.308-.021-.3653.014-.0573.021-.1074.021-.1504 0-.0573.007-.1145.022-.1718v-.2578-.45122c0-.11458-.007-.19336-.022-.23633 0-.05729 0-.10742 0-.15039-.028-.14323-.043-.25781-.043-.34375 0-.10026 0-.1862 0-.25781.015-.11458.015-.1862 0-.21484-.014-.04297 0-.0573.043-.04297-.014-.22917-.036-.38672-.064-.47266-.015-.08594-.007-.16471.021-.23633-.014-.02864-.028-.06445-.043-.10742-.014-.04297-.021-.0931-.021-.15039.014-.12891.014-.20768 0-.23633-.014-.02864-.022-.05729-.022-.08594 0-.18619 0-.32942 0-.42968-.014-.15755-.021-.25782-.021-.30078.014-.0573.021-.11459.021-.17188v-.32226c-.014-.11459-.021-.20053-.021-.25782-.029-.17187-.043-.27929-.043-.32226s-.007-.08594-.022-.12891l-.021-.30078c-.014-.12891-.014-.27214 0-.42969.129-.15755.186-.23633.172-.23633.172-.07161.279-.10742.322-.10742.172.01433.279.01433.322 0 .043-.01432.093-.02864.151-.04297.114 0 .186-.00716.215-.02148.028-.01432.057-.02148.086-.02148.042-.01433.085-.01433.128 0 .058.01432.101.00716.129-.02149.201.01432.344.02149.43.02149s.165-.01433.236-.04297c.043-.01433.101-.01433.172 0 .072.01432.129.04297.172.08593.072-.02864.136-.0358.193-.02148h.172c.158.02865.287.04297.387.04297.115-.01432.215-.00716.301.02148.071-.02864.157-.0358.258-.02148.1.01432.186 0 .257-.04297l.258.06445c.144.14323.244.27214.301.38672.057.10026.043.20052-.043.30078-.029.12891-.05.25781-.064.38672-.015.11458-.036.24349-.065.38672-.014.17187-.028.27214-.043.30078 0 .02865-.007.05729-.021.08594-.015.07161-.022.13607-.022.19336.015.05729.007.12174-.021.19336zm19.228-1.69727c.058.01432.158.05013.301.10742.129.04297.222.11459.279.21485.072.02864.136.06445.194.10742.057.02865.114.07161.172.12891.143.10026.207.15755.193.17187v.04297c.129.10026.193.15755.193.17187.029.02865.065.06446.108.10743.043.04296.079.07877.107.10742.072.10026.115.16471.129.19336.029.02864.057.05729.086.08594.072.1289.115.20768.129.23632.029.01433.05.03581.064.06446.144.17187.23.30078.258.38672.043.07161.086.15039.129.23632.057.12891.093.20052.107.21485.015 0 .029.00716.043.02148.043.12891.079.21485.108.25781.043.04297.079.10026.107.17188.072.11458.136.24349.194.38672.071.14323.136.30078.193.47265.1.27214.179.53711.236.79493 0 .10026.008.17903.022.23632.071.1862.107.31511.107.38676 0 .0716.007.1504.022.2363.028.0716.043.1432.043.2148s.007.1433.021.2149c.029.1002.057.2435.086.4297 0 .1145-.007.2291-.021.3437v.3223c-.015.1146-.022.2148-.022.3008.014.0859.007.179-.021.2793-.029.1289-.043.222-.043.2793 0 .0572-.007.1217-.022.1933-.028.1146-.043.1934-.043.2363-.028.0717-.057.1361-.086.1934-.014.043-.035.1003-.064.1719-.029.1146-.05.1933-.065.2363-.028.1146-.071.2077-.128.2793-.043.0716-.101.1504-.172.2363-.043.086-.093.1576-.151.2149-.043.0573-.086.1146-.129.1719-.1.1575-.179.2649-.236.3222-.043.0573-.086.1218-.129.1934-.114.1432-.179.222-.193.2363-.015 0-.029.0143-.043.043-.058.0716-.122.1504-.194.2363-.071.0716-.15.1361-.236.1934-.072.1432-.136.2291-.193.2578-.043.0286-.101.0644-.172.1074-.057.043-.108.0931-.151.1504-.229.0859-.365.1432-.408.1719l-.215.1074c-.214.0859-.35.1504-.408.1933-.057.0287-.122.0645-.193.1075-.057.0286-.158.0716-.301.1289-.086.0429-.15.0644-.193.0644-.029 0-.058.0072-.086.0215-.115.043-.186.0645-.215.0645-.014 0-.036.0071-.065.0214-.157.043-.264.0645-.322.0645-.057 0-.114.0072-.172.0215-.186.0573-.329.0859-.429.0859-.172-.0143-.287-.0143-.344 0-.043.0143-.1.0287-.172.043-.215.043-.43.043-.645 0-.157.0286-.286.043-.386.043-.043 0-.086 0-.129 0-.043.0143-.079.0214-.108.0214-.057 0-.107-.0143-.15-.0429-.029-.0144-.072-.0215-.129-.0215-.057-.0143-.165-.0215-.322-.0215-.086-.0143-.172-.0286-.258-.043-.086-.0143-.172-.0286-.258-.0429-.043-.0144-.093-.0215-.15-.0215-.043 0-.086-.0072-.129-.0215-.1-.0286-.179-.043-.236-.043-.187-.0716-.273-.1074-.258-.1074-.201-.0573-.308-.0931-.322-.1074-.172-.0143-.287-.0358-.344-.0645-.158-.0573-.251-.0859-.279-.0859l-.237-.1074c-.172-.086-.286-.1289-.344-.1289-.143-.043-.236-.086-.279-.1289-.157-.0573-.251-.0931-.279-.1075-.029-.0143-.057-.0286-.086-.0429-.143-.1433-.244-.222-.301-.2364-.057-.0286-.1-.0716-.129-.1289-.157-.0716-.243-.1145-.258-.1289 0-.0143-.007-.0286-.021-.0429-.086-.0573-.158-.1361-.215-.2364-.115-.0859-.2-.179-.258-.2793-.086-.0716-.143-.136-.172-.1933-.1-.1433-.15-.222-.15-.2364 0-.0143-.007-.0286-.021-.0429-.101-.1719-.165-.265-.194-.2793-.014-.0287-.028-.0645-.043-.1074-.043-.043-.093-.086-.15-.1289-.043-.0573-.065-.129-.065-.2149-.114-.0859-.186-.1647-.215-.2363-.042-.1003-.064-.1647-.064-.1934.014-.0286.022-.0573.022-.0859-.101-.1719-.172-.3008-.215-.3867-.058-.1862-.093-.3008-.108-.3438-.086-.1719-.143-.3079-.172-.4082-.028-.1002-.057-.2148-.086-.3437-.014-.1146-.021-.1791-.021-.1934.014-.0143.014-.0358 0-.0644 0-.043-.007-.0788-.022-.1075 0-.0429-.007-.0859-.021-.1289.014-.2148.007-.3366-.021-.3652-.015-.1432-.029-.2149-.043-.2149-.015-.0143-.022-.0358-.022-.0644 0-.1146.007-.2005.022-.2578.028-.0573.043-.1146.043-.1719 0-.1146 0-.2005 0-.2578.042-.1146.064-.1862.064-.2149.014-.0429.014-.09305 0-.15034.057-.12891.086-.22201.086-.2793s.007-.10742.021-.15039c.029-.08594.051-.14323.065-.17188.014-.02864.021-.05729.021-.08593.015-.07162.022-.12175.022-.15039 0-.02865.007-.07162.021-.12891.043-.10026.086-.1862.129-.25781.043-.11459.065-.19336.065-.23633s.007-.08594.021-.12891c.029-.1289.057-.20768.086-.23633.057-.15755.093-.23632.107-.23632.015 0 .022-.00717.022-.02149.072-.11458.122-.19336.15-.23633.029-.05729.058-.10742.086-.15039.029-.07161.058-.13606.086-.19336.029-.05729.058-.12174.086-.19336.072-.08593.108-.13606.108-.15039.014-.02864.028-.05729.043-.08593.071-.11459.114-.17188.128-.17188.015-.01432.036-.03581.065-.06445.057-.08594.086-.13607.086-.15039.014-.01433.029-.03581.043-.06446.215-.25781.351-.45117.408-.58007.115-.0573.186-.11459.215-.17188.057-.01432.093-.04297.107-.08594.029-.05729.058-.10026.086-.1289l.258-.08594c.143-.10026.251-.16471.322-.19336.101-.05729.165-.07878.194-.06445.043 0 .078-.00716.107-.02149.115-.10026.172-.14323.172-.1289 0 .01432.014.00716.043-.02149.143-.05729.222-.08593.236-.08593.029 0 .058-.00717.086-.02149.115-.07161.186-.10742.215-.10742.029-.01432.065-.02865.107-.04297.043-.01432.079-.03581.108-.06445.143-.07162.236-.10743.279-.10743s.086-.00716.129-.02148c.143-.05729.229-.08594.258-.08594.043-.01432.079-.02148.107-.02148.301-.07162.509-.12891.623-.17188.086.01433.165.01433.237 0 .086-.02864.164-.05013.236-.06445.172 0 .279.00716.322.02149.043.01432.086.02148.129.02148s.086-.00716.129-.02148c.057-.01433.115-.02149.172-.02149h.344c.043-.01432.086-.02148.129-.02148.057-.01433.107-.01433.15 0 .043.01432.093.02148.15.02148.043-.01432.086-.02865.129-.04297.058-.01432.122-.01432.194 0 .086.01432.164.02865.236.04297s.115.02149.129.02149c.172.01432.272.02864.301.04296.071.01433.15.02865.236.04297.1.01433.208.02865.322.04297.158.01432.237.02149.237.02149.014-.01433.035-.01433.064 0 .129.05729.208.09309.236.10742h.108c.057.01432.114.02864.172.04297.071 0 .129.02148.172.06445.2.08594.315.14323.343.17187zm-3.051 3.28711c-.143-.02864-.214-.03581-.214-.02148 0 .01432-.008.02148-.022.02148-.143.01432-.222.02865-.236.04297s-.036.02148-.065.02148c-.057.02865-.121.05013-.193.06446-.057 0-.1.01432-.129.04297-.143.08593-.222.1289-.236.1289-.015 0-.036.00716-.065.02149-.129.04297-.193.07161-.193.08593 0 0-.014.00717-.043.02149-.086.05729-.165.12174-.236.19336-.101.07161-.179.13607-.237.19336-.043.04297-.078.07877-.107.10742-.115.12891-.172.20052-.172.21484-.086.11459-.157.20052-.215.25782-.1.14322-.15.23632-.15.27929s-.015.08594-.043.12891c-.115.1289-.179.23628-.194.32228-.042.0716-.085.1361-.128.1933-.029.043-.043.0931-.043.1504.014.1862.014.3008 0 .3438v.1074c0 .1862.021.3294.064.4297.029.1146.057.2292.086.3437.043.1146.093.2292.15.3438.086.1575.122.2435.108.2578 0 .0143.007.0287.021.043.072.1146.115.1718.129.1718.015 0 .029.0072.043.0215.115.1146.179.1719.194.1719.014 0 .035.0072.064.0215.072.0716.143.1504.215.2363.086.0716.186.1146.301.1289l.279.1504c.043.0287.086.043.129.043s.086.0071.129.0215c.086.0429.143.0644.172.0644.028-.0143.057-.0143.086 0 .128.043.214.0645.257.0645.043-.0143.079-.0215.108-.0215.143.043.229.0644.258.0644.043-.0143.086-.0214.128-.0214h.215c.101-.0144.187-.0215.258-.0215l.387-.0645c.129-.0429.186-.0716.172-.0859 0-.0143.014-.0215.043-.0215.1-.0143.179-.0501.236-.1074.129-.1003.236-.1504.322-.1504.072-.1432.144-.2363.215-.2793.086-.1289.122-.1934.108-.1934 0-.0143.007-.0286.021-.0429.043-.1003.079-.1504.107-.1504.029-.0143.051-.0358.065-.0645.043-.0859.064-.1432.064-.1719.015-.0286.029-.0501.043-.0644l.151-.3008c.086-.1289.129-.2435.129-.3437.057-.1719.078-.2937.064-.3653 0-.0716 0-.1432 0-.2148-.014-.0716-.029-.1361-.043-.1934s-.029-.1217-.043-.1933c-.014-.0573-.021-.1003-.021-.1289.014-.043.014-.0788 0-.1075-.029-.0573-.058-.1002-.086-.1289-.015-.0429-.022-.08591-.022-.12888-.086-.11458-.129-.17903-.129-.19335 0-.01433-.007-.02865-.021-.04297-.072-.10026-.108-.15039-.108-.15039 0-.01433-.007-.03581-.021-.06446-.043-.05729-.086-.10742-.129-.15039-.029-.05729-.064-.11458-.107-.17187-.101-.10026-.158-.15755-.172-.17188 0-.01432-.015-.02864-.043-.04297-.143-.11458-.244-.18619-.301-.21484-.043-.04297-.079-.0931-.107-.15039-.158-.07162-.287-.12891-.387-.17188-.143-.07161-.215-.11458-.215-.1289.014-.02865.014-.04297 0-.04297l-.279-.08594c-.115-.05729-.186-.10026-.215-.1289zm12.418-1.50391c.043.01433.079 0 .108-.04296.029-.04297.057-.07878.086-.10743.071-.04296.122-.07161.15-.08593.029-.02865.058-.05729.086-.08594.143-.10026.229-.15755.258-.17188l.172-.17187c.143-.05729.229-.10742.258-.15039.043-.04297.093-.08594.15-.12891.043-.04297.072-.07161.086-.08593.029-.02865.057-.0573.086-.08594.114-.07162.186-.11459.215-.12891.043-.01432.079-.02864.107-.04297.143-.1289.237-.20768.279-.23633.058-.02864.115-.05729.172-.08593.058-.05729.122-.10026.194-.12891.071-.04297.136-.10026.193-.17187.043-.02865.079-.04297.107-.04297.043-.01433.079-.03581.108-.06446.086-.05729.136-.0931.15-.10742.015-.02864.036-.04297.065-.04297.028-.02864.071-.04297.129-.04297h.193c.129-.01432.201-.01432.215 0 .029.01433.057.02865.086.04297.114.08594.179.12891.193.12891.029 0 .057.01432.086.04297.129.08594.186.1289.172.1289-.014-.01432-.007-.00716.021.02149.158.08594.244.13607.258.15039l.194.17187c.028.02865.064.0573.107.08594.043.02865.072.06445.086.10742.129.10026.201.15039.215.15039.071.04297.15.12175.236.23633.129.07162.201.10742.215.10742.1.0573.165.11459.193.17188.115.02865.208.10026.28.21484.071.10026.172.17904.3.23633.015.05729.043.10026.086.12891.043.01432.072.05729.086.1289.043 0 .079-.02148.108-.06445.043-.04297.079-.07161.107-.08594.1-.01432.158-.02864.172-.04297.014-.02864.036-.05729.064-.08593.058-.02865.094-.05729.108-.08594.029-.02865.057-.05729.086-.08594.143-.05729.215-.08594.215-.08594 0-.01432.007-.02148.021-.02148.115-.11458.179-.17188.194-.17188.014-.01432.028-.02864.043-.04296.157-.08594.25-.15039.279-.19336.043-.05729.093-.10742.15-.15039.143-.10026.229-.15039.258-.15039.115-.10026.193-.15756.236-.17188.144-.12891.244-.20768.301-.23633.057-.02864.108-.05729.151-.08593.071-.0573.143-.10027.214-.12891.072-.04297.129-.10026.172-.17188.043-.01432.079-.02864.108-.04297.043-.01432.086-.0358.129-.06445.114-.10026.179-.15039.193-.15039.029-.02864.079-.04297.15-.04297h.194c.114 0 .179.00716.193.02149.029 0 .057.01432.086.04297.115.07161.179.10742.193.10742.029 0 .058.01432.086.04297.129.08593.194.12174.194.10742s.007-.00716.021.02148c.129.11459.208.17188.236.17188l.194.15039c.043.04297.079.07877.107.10742.043.02865.072.06445.086.10742.1.04297.186.10026.258.17188.086.07161.165.14323.236.21484.144.08594.237.15039.28.19336.043.02865.078.05729.107.08594.115.04297.201.11458.258.21484.071.10026.165.17904.279.23633.129.14323.208.24349.236.30078.029.05729.058.10742.086.15039.101.10026.179.19336.237.2793.186.21484.308.40104.365.55859s.122.31511.193.47266l.022.38672.043.25781c0 .08594.014.17187.043.25781.014.05729.014.10742 0 .15039-.015.04297-.029.0931-.043.15039.014.15756.014.26498 0 .32227v.15039.10742c.014.04297.014.0931 0 .15039-.029.17183-.05.29363-.065.36523 0 .0716.007.1576.022.2578.014.1432.007.2435-.022.3008-.014.0573-.021.1217-.021.1934-.015.0429-.022.0931-.022.1503.015.043.022.086.022.129.028.2005.028.4296 0 .6875.014.1432.014.2148 0 .2148v.0215c.014.1002.014.1575 0 .1719v.0644c.014.0573.021.1432.021.2578v.1719c.015.0143.022.0358.022.0645l-.043.2578c.014.0716.021.136.021.1933v.1504c0 .1146-.007.2363-.021.3652 0 .1146.007.2292.021.3438.029.1146.043.2507.043.4082 0 .1432.007.2865.022.4297.028.2005.043.3294.043.3867.014.1576.014.308 0 .4512 0 .1432.007.2936.021.4512v.1074c.015.0429.015.0931 0 .1504-.143.1575-.229.2506-.258.2793-.1.0429-.164.0644-.193.0644-.014 0-.036.0072-.064.0215-.144.043-.237.0573-.28.043-.028 0-.064 0-.107 0-.072 0-.158-.0072-.258-.0215-.086 0-.172 0-.258 0-.186 0-.315 0-.386 0-.058.0143-.122.0215-.194.0215-.157 0-.25-.0072-.279-.0215-.029 0-.057 0-.086 0-.057 0-.107 0-.15 0-.043.0143-.094.0143-.151 0-.143-.0287-.222-.043-.236-.043-.029-.0143-.065-.0143-.108 0-.043 0-.086.0072-.129.0215-.042 0-.085 0-.128 0-.043-.0143-.079-.0215-.108-.0215-.143.043-.293.0645-.451.0645-.143 0-.243-.0144-.301-.043-.186-.1289-.279-.2793-.279-.4512 0-.1718.007-.3366.021-.4941 0-.043-.007-.0859-.021-.1289 0-.0573.007-.1074.021-.1504.015-.1003.029-.1862.043-.2578.029-.0716.05-.1647.065-.2793 0-.1576.007-.2722.021-.3438.029-.0859.043-.1647.043-.2363v-.2363c.015-.1146.015-.1791 0-.1934 0-.0143 0-.0286 0-.043.015-.1432.022-.2148.022-.2148.014-.0143.021-.0358.021-.0645.015-.1432.015-.2148 0-.2148 0-.0143.007-.0215.022-.0215l.021-.3008c-.014-.1718-.021-.2578-.021-.2578.014-.0143.021-.0358.021-.0644 0-.043-.007-.1003-.021-.1719-.015-.0716-.022-.1361-.022-.1934v-.4082c-.014-.1432-.021-.222-.021-.2363.014-.0143.021-.0286.021-.043-.028-.1002-.043-.179-.043-.2363.015-.0716.015-.1289 0-.1719.015-.2005.022-.3509.022-.4511 0-.1146-.015-.2006-.043-.2578.028-.043.036-.086.021-.129 0-.0572 0-.1145 0-.1718 0-.1289-.007-.2364-.021-.3223-.015-.0859-.007-.1504.021-.1934-.043-.12886-.071-.22196-.086-.27925 0-.05729-.028-.10026-.086-.12891-.129-.11458-.193-.18619-.193-.21484-.143-.04297-.258-.02865-.344.04297-.114.10026-.179.15039-.193.15039-.014-.01432-.022-.01432-.022 0-.143.10026-.222.15755-.236.17187 0 .01433-.014.02865-.043.04297-.129.08594-.2.13607-.215.15039 0 .01431-.014.02861-.043.04301-.129.1145-.207.179-.236.1933-.014.0143-.036.0358-.064.0645-.101.0716-.179.136-.237.1933-.057.0573-.114.1075-.172.1504-.086.0573-.15.1003-.193.1289-.029.0287-.057.0573-.086.086-.029.0286-.064.0644-.107.1074-.029.043-.05.0931-.065.1504 0 .0716.007.1504.022.2363.014.0859.021.1647.021.2363-.014.0573-.021.1075-.021.1504.014.0287.021.0645.021.1075v.4082c0 .1432-.007.222-.021.2363v.0644.1289c.014.043.021.086.021.1289.014.1719.014.2722 0 .3008-.014.0287-.028.0573-.043.086.015.1432.022.2363.022.2793.014.0429.021.0931.021.1504 0 .1289-.007.2578-.021.3867-.015.1146-.007.222.021.3222.029.1289.043.265.043.4082 0 .1433.007.2937.022.4512 0 .1719.007.2721.021.3008.014.0143.022.0358.022.0644v.9024c.028.1289.035.222.021.2793-.1.1432-.165.2148-.193.2148-.015 0-.036.0144-.065.043-.114.0573-.186.0859-.215.0859-.028 0-.057.0072-.086.0215-.128.043-.214.0573-.257.043-.029 0-.058 0-.086 0-.072 0-.158-.0072-.258-.0215-.086 0-.179 0-.279 0-.172-.0143-.33-.0072-.473.0215-.057 0-.115-.0072-.172-.0215-.057 0-.122 0-.193 0-.072 0-.136 0-.194 0-.057.0143-.121.0143-.193 0-.143-.0286-.222-.043-.236-.043-.015-.0286-.05-.0358-.108-.0214-.057.0143-.114.0214-.172.0214-.157 0-.243 0-.257 0-.015.0144-.029.0215-.043.0215-.115.0143-.187.0215-.215.0215-.029.0143-.065.0215-.108.0215-.057-.0143-.107-.043-.15-.0859-.043-.0287-.1-.0502-.172-.0645-.029-.1003-.057-.1934-.086-.2793-.014-.1003-.029-.2077-.043-.3223-.014-.0429-.021-.0859-.021-.1289.014-.0573.021-.1074.021-.1504-.014-.0859-.036-.1647-.064-.2363-.015-.0859-.015-.179 0-.2793l.043-.3008c0-.1002 0-.1647 0-.1933.014-.043.028-.086.043-.1289 0-.0716-.008-.1433-.022-.2149 0-.0859.007-.1647.022-.2363.014-.1146.014-.179 0-.1934 0-.0143 0-.0286 0-.0429.014-.1433.021-.2149.021-.2149.014-.0143.022-.0358.022-.0644 0-.1576.007-.2364.021-.2364 0-.1575 0-.2434 0-.2578.014-.0143.022-.0358.022-.0644l-.022-.3008c0-.043-.007-.0931-.021-.1504 0-.0716 0-.1432 0-.2148v-.4082c-.015-.1576-.022-.2364-.022-.2364.014-.0143.022-.0286.022-.0429-.043-.086-.065-.1648-.065-.2364.014-.0716.022-.1289.022-.1718.014-.2006.021-.351.021-.4512 0-.1146-.014-.2077-.043-.2793.029-.0287.036-.0716.022-.1289-.015-.0573-.015-.1074 0-.1504 0-.1289-.008-.2363-.022-.3223-.014-.0859-.007-.1432.022-.1718-.029-.1433-.05-.24354-.065-.30083 0-.07161-.028-.12174-.086-.15039-.129-.08594-.193-.15039-.193-.19336-.143-.02864-.244-.02864-.301 0-.057.01432-.107.04297-.15.08594-.101.11458-.158.17187-.172.17187 0 0-.007.00717-.022.02149-.1.1289-.179.22198-.236.27928-.043.043-.086.0931-.129.1504-.086.1003-.136.1576-.15.1719-.015.0143-.029.0358-.043.0644-.172.1003-.294.1791-.365.2364-.058.0429-.129.0644-.215.0644-.072-.0143-.129-.043-.172-.0859-.043-.0573-.1-.1003-.172-.1289-.029-.0716-.072-.1289-.129-.1719-.043-.043-.079-.1003-.107-.1719-.086-.1432-.136-.222-.151-.23631-.071-.10026-.122-.17187-.15-.21484-.015-.05729-.036-.10026-.065-.12891l-.064.51566v1.0742c0 .043-.007.0931-.022.1504v.1289c.015.1146.029.2292.043.3437.015.1003.008.2006-.021.3008.043.0716.057.1504.043.2363 0 .086.007.1719.021.2579v.2578c.015.1575.022.2578.022.3008.014.0286.021.0572.021.0859-.028.1719-.035.2864-.021.3437s.021.1218.021.1934c-.014.0573-.014.1217 0 .1934.015.0716.022.1289.022.1718 0 .043-.007.086-.022.1289 0 .043.007.086.022.1289.028.1576.043.2865.043.3868.028.1432.043.3151.043.5156.014.0573.021.1575.021.3008.029.1289.036.2005.022.2148v.0645c.014.0859.028.1575.043.2148.014.043.021.0859.021.1289-.014.1289-.021.2077-.021.2363.014.0144.021.0359.021.0645-.043.1432-.064.2506-.064.3223 0 .0716-.015.1289-.043.1718-.158 0-.272 0-.344 0-.057.0144-.122.043-.193.086-.158 0-.28 0-.366 0-.071.0143-.143.0071-.214-.0215-.144-.043-.23-.0645-.258-.0645-.015.0144-.043.0215-.086.0215l-.473-.0215c-.157-.0286-.272-.0429-.344-.0429-.057 0-.121-.0072-.193-.0215l-.258-.0215h-.322c-.043.0286-.129.043-.258.043-.114.0143-.186.0143-.215 0-.014 0-.035 0-.064 0-.043 0-.086 0-.129 0-.029.0143-.072.0215-.129.0215-.086-.0287-.179-.0215-.279.0214-.143-.0573-.222-.0859-.237-.0859-.014 0-.021-.0072-.021-.0215l-.129-.2148c-.014-.0716-.021-.1218-.021-.1504.014-.043.021-.086.021-.1289 0-.086-.007-.1719-.021-.2578 0-.086 0-.1648 0-.2364l.021-.2578c.014-.0573.022-.1146.022-.1719 0-.0572.007-.1074.021-.1503.043-.1719.057-.2793.043-.3223 0-.0573.014-.1146.043-.1719-.029-.0716-.036-.1504-.022-.2363.015-.0859.022-.1647.022-.2363.014-.1433.014-.222 0-.2364 0-.0143 0-.0358 0-.0644l.021-.3867c0-.086-.007-.1648-.021-.2364-.014-.1575-.022-.2506-.022-.2793.015-.0429.022-.0787.022-.1074 0-.043-.007-.0859-.022-.1289-.014-.043-.007-.0788.022-.1074 0-.1289 0-.2363 0-.3223 0-.1862-.007-.3008-.022-.3437-.014-.043-.007-.0788.022-.1075v-.4296c0-.1576-.007-.2579-.022-.3008-.014-.0573-.021-.1146-.021-.1719 0-.0716.007-.1361.021-.1934.015-.0716 0-.136-.043-.1933.029-.1432.043-.2435.043-.3008.015-.1575.015-.2363 0-.2363 0 0 0-.0072 0-.0215v-.45118c-.014-.20052-.021-.33659-.021-.4082-.014-.14323-.022-.25782-.022-.34375 0-.10026-.007-.1862-.021-.25782.014-.11458.014-.18619 0-.21484 0-.04297.014-.05729.043-.04297-.014-.22917-.036-.37956-.064-.45117-.015-.08594-.008-.16471.021-.23633-.014-.04297-.029-.07878-.043-.10742 0-.04297-.007-.10026-.021-.17188.014-.11458.014-.18619 0-.21484 0-.04297 0-.07878 0-.10742-.015-.17188-.022-.27214-.022-.30078.014-.02865.022-.07162.022-.12891-.029-.15755-.036-.25781-.022-.30078s.022-.10026.022-.17188c0-.18619-.008-.30078-.022-.34375 0-.04296 0-.09309 0-.15039 0-.1289-.014-.222-.043-.27929-.014-.05729-.021-.14323-.021-.25782l-.043-.27929c-.015-.07162-.029-.12175-.043-.15039 0-.04297.007-.10026.021-.17188.086-.14323.122-.21484.108-.21484.114-.15755.2-.23633.257-.23633.129-.01432.208-.01432.237 0 .043.01432.079.02148.107.02148.043 0 .086-.00716.129-.02148.057-.02865.107-.04297.15-.04297.129-.01432.201-.02148.215-.02148.029-.01433.058-.02865.086-.04297.043 0 .086.00716.129.02148.057 0 .1-.00716.129-.02148h.43c.086 0 .164-.01432.236-.04297.043-.01432.1-.01432.172 0s.129.04297.172.08594c.071-.02865.136-.03581.193-.02149h.172c.158.02865.286.04297.387.04297.114-.01432.215-.00716.301.02149.071-.02865.157-.03581.257-.02149.101.01432.187 0 .258-.04297.129.04297.208.06446.236.06446.158.14322.258.24349.301.30078.043.04297.058.12174.043.23633-.071.18619-.107.32226-.107.4082.014.08594.007.17187-.022.25781 0 .07162-.007.12891-.021.17188-.014.04296-.022.07877-.022.10742-.014.05729-.028.10742-.043.15039 0 .04297-.007.0931-.021.15039-.029.12891-.043.222-.043.2793.014.05729.007.12174-.022.19335z" fill="#693821"/></svg>