<svg fill="none" height="76" viewBox="0 0 266 76" width="266" xmlns="http://www.w3.org/2000/svg" xmlns:xlink="http://www.w3.org/1999/xlink"><linearGradient id="a"><stop offset="0" stop-color="#cf5c2b"/><stop offset="1" stop-color="#59173e"/></linearGradient><linearGradient id="b" gradientUnits="userSpaceOnUse" x1="190.624" x2="163.639" xlink:href="#a" y1="-94.0184" y2="-.967343"/><linearGradient id="c" gradientUnits="userSpaceOnUse" x1="145.961" x2="119.952" xlink:href="#a" y1="-28.4435" y2="143.132"/><linearGradient id="d" gradientUnits="userSpaceOnUse" x1="145.391" x2="110.353" xlink:href="#a" y1="-26.5444" y2="193.266"/><linearGradient id="e" gradientUnits="userSpaceOnUse" x1="132.993" x2="132.993" xlink:href="#a" y1="88.0798" y2="52.5228"/><path d="m261.184 29.7727c-1.926-1.9174-4.245-3.5586-6.564-5.1999-1.101-.7823-2.202-1.5492-3.302-2.3161-2.123-1.4879-4.226-2.9758-6.348-4.4637-.924-.6442-1.867-1.5645-2.988-1.994-1.041-.4142-1.867-1.043-2.771-1.6259-4.147-2.669-8.451-5.18454-12.932-7.5007-3.557-1.856-7.291-3.60463-11.458-4.38691-1.828-.33745-3.714-.49084-5.581-.62889-2.693-.21475-5.385-.41413-8.078-.62888-1.356-.10737-2.732-.214752-4.088-.322124-.55-.046016-1.061-.092032-1.592-.214742-.884-.199405-1.769.092041-2.673-.015331-1.71-.184066-3.459-.138058-5.188-.153397-1.907-.015339-3.793-.046007-5.7-.061345-7.566-.076694-15.133-.138066-22.719-.1840822-7.547-.0460165-15.074-.06136-22.621-.0766988-7.508 0-15.035.00000655-22.543.0306842-7.488.0306777-14.9759.0767038-22.4442.1533978-7.4487.061355-14.917.153385-22.3657.260757-7.429.107372-14.858.230091-22.2871.36814-7.3897.13805-14.799.306771-22.1888.475501-3.8717.09203-7.7434.19941-11.6152.29144-.3144.01534-.6682-.01534-.963.04602-.3341.06135-.6486.16872-.963.26075-.6486.18407-1.31681.38346-1.94573.61355-1.21851.46016-2.37807 1.07372-3.16421 1.94803-.45203.50619-.76648 1.07372-1.17921 1.5799-.21619.26076-.49134.46016-.66822.73626-.8451 1.31914-1.70985 2.66895-2.86941 3.83467-1.139902 1.1504-1.493666 2.9604-1.3560913 4.3563.1768813 1.902.2358433 3.8347.4520313 5.7367.353763 3.0371.019653 6.0742.45203 9.1266.05896.4448.15723.9203.56995 1.2118.2948.1994.68787.2761 1.06129.3374 1.23817.2148 2.45669.4142 3.69486.6289-1.51332.7669-3.79313.8283-4.59892 2.1014-.25549.4142-.2948.8743-.35376 1.3345-.13758 1.6259-.334112 3.2518-.471686 4.8778-.058961.7362-.117922 1.4571-.137576 2.1934-.039307.7056-.098266 1.3652-.196534 2.0554-.196535 1.6106-.72718 3.712-.098268 5.2919.609254 1.5185 3.046294 1.5952 4.736494 1.9634-.88441.0767-1.57228.6442-2.08327 1.2117-.2555.2915-.45203.5983-.68788.8897-.21618.2608-.41272.5215-.60925.7976-.35377.5522-.64857 1.1197-.864756 1.718-.137575.3988-.216188.7055-.235842 1.1197-.019653.3681-.039308.7363-.058962 1.1044-.039307.7362-.05896 1.4725-.078614 2.2088-.039307 1.4725-.058959 2.9604-.039306 4.4329.019654 1.4265-.4127227 2.8223.353764 4.2182.766486 1.3958 2.102926 2.6076 3.753816 3.3899 1.33644.6442 2.86941.9816 4.44169 1.043 18.37607.7823 36.81097 1.1197 55.20667 1.4572 18.7298.3374 37.4599.5368 56.1889.5829 18.868.046 37.735-.0461 56.603-.2915 6.387-.0767 12.755-.3681 19.103-.046 5.837.2914 11.733.1687 17.57-.138 5.09-.2761 9.63-.2608 13.62-3.1292 8.824-6.3196 18.16-12.1943 26.984-18.4986 2.28-1.6259 4.776-3.4666 6.702-5.4606 1.985-2.0554 3.832-4.3102 4.579-6.8565.334-1.1197.551-2.2701.315-3.3898-.099-.4755-.275-.9357-.492-1.3805-.177-.3835-.511-.7977-.57-1.2118-.118-.8436-.53-1.6413-1.002-2.4082-.688-1.2118-1.592-2.3775-2.653-3.4052z" fill="url(#b)"/><path d="m263.454 41.4142c-.236.3307-.472.6614-.689.9606-.079.1102-.158.2204-.236.3149-.119.1102-.237.2205-.394.2992-.315.1575-.729.126-1.084.1102-.039 0-.078 0-.118-.0157-5.83-.3937-11.817-1.6377-17.411-.252 1.497.5197 3.171.6457 4.786.7559 4.235.2834 8.469.5669 12.704.8503-.039.0315-.079.0473-.118.0788-.453.3306-.886.6613-1.339.9763-.749.5511-1.379 1.2125-2.108 1.7951-1.083.8503-2.206 1.6692-3.309 2.4723-.315.2204-.61.4566-.945.6928-.315.2362-.65.4724-.985.6929-2.856 2.0786-5.751 4.1414-8.666 6.157-.946.6614-1.911 1.3227-2.895 1.9526-1.025.6929-2.049 1.37-3.093 2.0471-5.16 3.3383-10.596 6.4719-16.327 9.1647-.197.0944-.394.1889-.611.2834-.433.189-.788.3937-1.201.4882-.197.0315-.375.0472-.591.0472h-.197c-.355-.0157-.729-.0157-1.083-.0157-2.994-.0315-6.027.1259-9.021.2047-4.53.0787-9.08.1732-13.61.2519-5.259.0945-10.498.1732-15.756.2362-4.688.0472-9.376.1102-14.063.1575-3.998.0315-7.997.063-11.995.0787-2.56.0158-5.121.0315-7.681.0473-4.195.0157-8.371.0157-12.546.0157-2.423 0-4.826 0-7.248-.0157h-2.896c-1.457 0-2.895-.0158-4.352-.0158-.572 0-1.143 0-1.714-.0157-4.274-.0158-8.548-.0473-12.802-.0788-1.458-.0157-2.895-.0157-4.3331-.0472-2.9347-.0158-5.889-.0473-8.8237-.0945-1.7529-.0157-3.4861-.0315-5.2588-.063-4.4906-.0472-8.9418-.126-13.4127-.2047-1.7923-.0157-3.565-.0472-5.3376-.0787-2.2453-.0473-4.4906-.0787-6.7359-.1575-1.9893-.0315-3.9588-.0787-5.9481-.1102-4.3134-.0945-8.6267-.2047-12.9204-.315-.7484-.0157-1.4969-.0314-2.265-.0472-.9454-.0157-1.9105-.0472-2.8756-.0787-3.0922-.0788-6.1844-.1732-9.2767-.2677-1.3787-.0473-2.7574-.0788-4.1558-.1417-3.624-.1575-7.2874-.3465-10.9114-.3465-3.5846 0-6.93286-2.0471-8.25248-4.6453-.59087-1.1338-.72874-2.3935-.63026-3.6218.01969-.2204.03939-.4251.11818-.6456.11817-.3307.31513-.6299.35452-.9606.07878-.4251.11817-.8503.15756-1.2754.0394-.4095.07879-.8346.09848-1.2441.0197-.3149.05909-.6456.09848-.9605.03939-.4094.09848-.8346.21665-1.244.0197-.1417.07878-.2834.11818-.4094.03939-.1102.07878-.2205.13787-.315.07878-.1889.17726-.3621.31513-.5354.09848-.1417.19696-.2519.33483-.3779.11817-.1102.25604-.2204.41361-.3149 2.65892-1.5905 7.83885-1.5747 11.71895-1.6377.7484-.0157 1.4575-.0315 2.0877-.063 1.6742-.0787 3.3483-.1102 5.0421-.1102-3.9785-.0158-7.9767-.2834-11.8962-.8346-1.8711-.2519-3.72246-.5669-5.55416-.9448-.453-.0787-.906-.2047-1.33931-.3622-.57117-.2047-1.08326-.5039-1.31961-.9605-.21665-.3937-.19696-.8189-.19696-1.2283.0197-.3937-.05908-.8031-.01969-1.1967.03939-.8504.17726-1.6692.27574-2.5195.09847-.6772.19695-1.37.25604-2.0471.13787-1.8267.27574-3.6376.453-5.4484.05909-.5512.13787-1.1496.61057-1.5433.29543-.2362.66965-.3464 1.04387-.4566 1.02418-.2992 2.06805-.5196 3.15132-.6614.49239-.0787 1.02419-.0787 1.51659-.1889.5712-.1417 1.0045-.2362 1.6347-.2835 5.889-.5511 11.7584-1.1022 17.6277-1.6376.6893-.063 1.4181-.126 2.1074-.189-8.8631-.8661-17.7261-1.7322-26.58919-2.5982-.39391-.0473-.78783-.0788-1.16205-.1103-.37421-.0315-.78782-.0787-1.02417-.3149-.17726-.189-.19696-.4252-.23635-.6614-.39391-3.8265.05909-7.7789-.21665-11.6526-.0197-.1103-.0197-.4252-.05909-.8819-.01969-.2204-.0197-.4881-.05909-.7558 0-.0945 0-.2205-.01969-.315-.0197-.1732-.0197-.3464-.0394-.5196v-.0472c-.01969-.189-.01969-.3622-.03938-.5512-.0197-.1889-.0197-.3779-.0394-.5669-.03939-.6298-.09847-1.2282-.13787-1.7006-.01969-.1575-.01969-.2992-.03939-.4252 0-.0472-.01969-.1102-.01969-.1575-.0197-.14168-.0197-.23617-.0394-.29916-.01969-.04724-.01969-.07871-.01969-.07871-.37422-4.25165 3.70279-7.92068 9.0403-8.06241 2.7377-.07873 5.4754-.15746 8.2131-.22045 3.565-.09448 7.1299-.18895 10.6948-.25193 11.5023-.283446 23.0243-.488176 34.5857-.661391 3.0331-.047241 6.0663-.078714 9.0994-.125954 12.0341-.157469 24.1076-.251969 36.2205-.3149564 3.132-.0157468 6.263-.0157295 9.395-.0314764 3.742-.01574682 7.484-.0157622 11.246-.0157622 7.248 0 14.535.0157449 21.803.0472386.709 0 1.418.0157623 2.127.0157623 6.342.0314937 12.704.0787371 19.046.1259781 4.55.04724 9.099.094466 13.669.157454 3.781.04724 7.583.09449 11.364.157478 2.049.031493 4.077.07873 6.145.094477.375.015747.749.015738 1.123.015738.355 0 .729.000009 1.083-.015738h.02c.748 0 1.497-.015745 2.265-.047239.217 0 .414-.015738.63-.015738 1.024-.04724 1.911.015739 2.738.188955.02 0 .059-.000009.079.015738 1.438.283446 2.698.834576 4.195 1.495946.138.06299.276.11024.414.18898 5.731 2.51949 11.265 5.35393 16.505 8.48757 4.963 2.9761 9.69 6.2042 14.121 9.6685.335.252.67.5197.985.7874 3.151 2.5195 6.145 5.1492 9.139 7.7789.492.4409.985.8818 1.477 1.3385 1.083.9921 2.108 2.0471 2.935 3.2124.591.8031 1.063 1.6691 1.339 2.5825.138.4251.197.8818.335 1.3069.512 1.2598-.276 2.614-1.123 3.8265z" fill="url(#c)"/><path d="m259.409 29.0381c-2.979-2.6484-5.958-5.3127-9.094-7.8812-.313-.2553-.646-.5265-.979-.7977-11.113-.0958-22.225-.5265-33.337-1.1647-25.458-1.4677-50.858-3.3981-76.316-4.9776-25.439-1.5794-50.8968-2.9036-76.4138-2.9993-12.8761-.0479-25.713.2872-38.5303 1.0529-6.5458.3989-13.1505.5106-19.6963.9732.0784 1.2444.15679 2.3453.17639 2.5527.27437 3.9087-.19598 7.9131.21558 11.8058.0196.2393.0588.4786.23518.6701.0196.0159.0196.0319.05879.0478 5.42876.6382 10.99466.7339 16.48216.7658 12.8369.0798 25.6542-.4945 38.4911-.4467 3.3709.016 6.781.0479 10.1715.1117 1.6855.0319 3.3709.0638 5.076.0957.9407.016 1.999-.0638 2.9397.1117 1.1955.2233 2.489.1595 3.7237.1276 2.783-.0478 5.5659-.2712 8.3685-.4626 2.6262-.1915 5.2327-.367 7.8785-.3989 10.0143-.0798 19.8723 2.074 29.8683 2.1697 2.684.0319 5.389-.0797 8.035.2872 1.568.2234 3.077.6222 4.625.9253 2.626.5265 5.311.7977 8.016.8296 1.352.016 2.724-.0159 4.076-.1436 1.313-.1276 2.666.016 3.979.0639 5.664.2393 11.347.4467 17.011.6062 4.449.1276 8.898.2234 13.346.2872-20.46 1.4518-40.901 2.8398-61.362 4.1799-10.505.686-21.048 1.4358-31.5923 1.4358-11.4063 0-22.7929-1.1008-34.2383-.5903-10.0931.4627-20.3038 1.1487-30.3186 2.3133-7.8001.9094-16.1098 2.8239-24.22349 3.3663-.09799.8456-.23517 1.6911-.27437 2.5526-.0196.3989.0392.8137.0196 1.2125-.0196.4148-.0196.8456.19598 1.2444.25478.4627.74473.7658 1.31308.9732.41157.1595.88193.2872 1.33269.367 1.82261.3829 3.66491.7019 5.52671.9572 3.0769-.0957 6.1539-.2553 9.1524-.5584 8.8585-.8775 18.6184-1.1806 27.6532-2.6643 1.9011-.0957 3.8021-.1914 5.6836-.2872 10.485-.5903 20.8525-2.2016 31.1613-3.8448 6.6242-1.069 13.3265-1.8666 20.0495-2.5048.862-.0798 1.685-.2872 2.547-.335.686-.0479 1.411-.0958 2.097-.1436 2.803-.1755 5.605-.3191 8.428-.4308 5.605-.2233 11.249-.3191 16.874-.351 5.644-.0478 11.269-.0159 16.893-.0159 5.645.0159 11.27 0 16.894-.0798 5.625-.0638 11.269-.2233 16.874-.4945 1.784-.0798 3.548-.1915 5.312-.3032-4.724-.8934-9.506-1.5315-14.307-1.9144 8.839-.6063 17.658-1.5157 26.399-2.6962 5.448-.7499 10.896-1.5954 16.403-2.1059 2.744-.2553 5.508-.4308 8.271-.4467 1.372-.016 2.744-.0001 4.135.0797 1.235.0479 2.548.3191 3.783.2074.882-.0798 1.705-.3669 2.587-.4307 1.411-.0958 2.802-.1915 4.213-.2872 2.803-.1914 5.605-.4148 8.428-.6541.744-.0638 1.509-.1277 2.273-.2074 1.627-.1596 3.292-.2712 4.958-.3989-.548-.4626-1.038-.9093-1.548-1.356zm-17.462 17.3099c-14.013-.7818-28.084-.6541-42.117-.1914-2.92.0957-5.781.1595-8.682.4467-1.391.1595-2.802.2871-4.194.4307-5.605.5424-11.21.9732-16.835 1.3242-2.195.1436-4.39.2552-6.565.3669 5.683-.0319 11.367-.0638 17.05-.0957 5.684-.0319 11.367-.0798 17.051-.1117 2.842-.0159 5.683-.0319 8.525-.0478 1.431-.016 2.842-.016 4.253-.0319.607 0 1.215.0319 1.803-.0798.353-.0638.705-.1915 1.078-.2234 1.274-.1595 2.704.0479 3.978.1117 1.411.0638 2.822.1276 4.214.1915 2.822.1435 5.644.3031 8.466.4786 4.43.2712 8.878.5743 13.308.8934 3.625.2712 7.231.5903 10.838.9413.019-.016.019-.016.019-.016.314-.2234.608-.4467.921-.6701 1.117-.8136 2.234-1.6432 3.293-2.5047-5.449-.4627-10.917-.9094-16.404-1.2125zm-92.739 9.1416c-24.91-.3989-49.7603-1.5635-74.6698-1.4838-13.1309.032-26.2617.2074-39.373.5265-9.6816.2234-19.4807.1915-29.14268 1.0051-.19599.5265-.27437 1.1168-.33317 1.6752-.09799.9891-.15679 1.9942-.27438 2.9833 10.75943.351 21.63653-.2393 32.37643-.2552 13.1308-.016 26.2421.0798 39.373.335 24.8706.4786 49.7016 1.5954 74.5716 1.9623 25.301.367 50.544-1.1167 75.787-2.1378 4.684-.1914 9.387-.319 14.11-.3988.961-.6382 1.921-1.3082 2.881-1.9783 2.92-2.0261 5.782-4.1161 8.624-6.238-9.388.7339-18.795 1.4518-28.222 1.8666-25.223 1.1168-50.446 2.5367-75.708 2.1379z" fill="url(#d)"/><path d="m263.433 41.6807c-.079.1268-.138.2536-.177.3962-.059.1902-.059.3804-.138.5706-.217.5229-.749 1.0301-1.497.9508-.296-.0317-.847-.0317-1.084-.1267.059-.2853.375-.5864.532-.84.138-.2377.276-.4754.375-.7132.256-.5388.453-1.0934.61-1.664.276-1.0935.374-2.2029.374-3.3122 0-1.2679-.216-2.5991-1.162-3.6133-1.714-1.775-4.964-1.8226-7.741-1.7116-2.423.0951-4.826.206-7.23.3011 3.507-.317 7.033-.6498 10.539-.9826-1.418-1.6482-2.856-3.3122-4.275-4.9604-1.339-1.5531-2.757-3.1696-4.845-4.0254-1.754-.7131-3.763-.824-5.713-.935-4.806-.2535-9.593-.5071-14.419-.7607 5.18-.206 10.4-.3962 15.463-1.2837-1.674-1.3471-3.388-2.6307-5.161-3.8669-2.521-1.7749-5.161-3.4707-7.879-5.0555-2.719-1.6006-5.516-3.09031-8.392-4.48492-1.438-.69731-2.896-1.37878-4.373-2.0127-.709-.31696-1.477-.58637-2.167-.93502-.197-.11094-.394-.23773-.63-.30112-.178-.04754-.355-.04754-.532-.04754-.946-.0317-1.911-.01585-2.856-.0317-2.837-.01585-5.674-.0317-8.51-.0317-.887 0-1.793 0-2.679-.01584h-5.161c-2.384-.01585-4.787-.01584-7.171-.01584h-.354c-3.782-.01585-7.584-.01587-11.366-.01587-1.891 0-3.782.00001-5.673-.01584-.867 0-1.832.09508-2.679-.0317-.867-.12678-1.557-.55468-2.482-.61807-.828-.04754-1.675.04756-2.482.11095-2.069.14263-4.137.28524-6.186.47542-.926.07924-1.95.20604-2.58.76072-.217.19017-.375.42788-.631.58636-.591.33281-1.379.11093-2.048-.07924-1.34-.38035-2.758-.60221-4.176-.63391-1.281-.04754-2.561.14264-3.842.07925-.807-.04755-1.575-.1902-2.363-.31698-3.113-.49129-6.383-.52296-9.554-.69729-2.344-.14263-4.689-.23773-7.033-.30112-7.584-.22187-15.168-.11095-22.732.15847-3.7819.12678-7.5837.28527-11.3658.47544-1.7335.07924-3.664.38034-5.3778.19017-.4924-.04755-.9455-.22186-1.4576-.28525-.5319-.07924-1.0244-.06339-1.5562-.04754-2.1078.01584-4.2155.01585-6.3036.0317-2.4623.01585-4.9246 0-7.4066 0-.8274 0-1.635.14262-2.4427.14262-.7485 0-1.4971-.12678-2.2259-.12678-1.5562.01585-3.1124.25358-4.5701.72901-.5515.19018-1.1228.3962-1.7334.3645-1.1032-.04754-1.8714-.88749-2.8563-1.26784-2.3836-.919182-4.8262.8241-7.2491.11095-1.2016-.34866-2.4426-.30113-3.7033-.31698-1.635-.01585-3.2503-.01584-4.8656-.01584-5.4959.01585-10.9918.17433-16.4483.61807-2.7184.22187-5.4368.52299-8.1355.90334-1.3001.19018-2.6396.49129-3.93972.61807-.41367.04754-.70915.03169-1.08342.23771-1.61528.91918-6.04746 5.99053-2.89569 7.78138 1.02433.5705 2.38353.5863 3.64424.5705 8.07639-.0951 16.17249-.1902 24.26859-.2694-8.7264.5547-17.4726 1.1093-26.19905 1.6799-.57126.0317-1.14252.0792-1.65468.2852-1.67438.729-1.10312 2.4406-1.31981 3.6767-.31517 1.6165.0591 3.3598.27579 4.9763.25608 2.0761.57125 4.1522.94553 6.2124-.39398-.0476-.78795-.0793-1.16222-.111s-.78794-.0792-1.02433-.3169c-.17728-.1902-.19698-.4279-.23638-.6656-.39397-3.8511.0591-7.8289-.21668-11.7275-.0197-.1109-.0197-.4279-.0591-.8875-.0197-.2218-.0197-.4913-.05909-.7607 0-.0951 0-.2219-.0197-.3169-.0197-.1744-.0197-.3487-.0394-.523v-.0476c-.0197-.1901-.0197-.3645-.0394-.5547-.0197-.1901-.01969-.3803-.03939-.5705-.0394-.6339-.0985-1.2361-.1379-1.7115-.01969-.1585-.01969-.3012-.03939-.4279 0-.0476-.0197-.111-.0197-.1585-.0197-.14266-.0197-.23776-.0394-.30115-.0197-.04754-.0197-.07922-.0197-.07922-.37427-4.27894 3.70333-7.97153 9.0416-8.11416 2.7381-.07924 5.4762-.15848 8.2144-.22187 3.5654-.09509 7.1308-.19016 10.6963-.25355 11.5039-.285264 23.0276-.491309 34.5907-.665636 3.0335-.047544 6.0671-.079218 9.1007-.126762 12.0358-.15848 24.1111-.253587 36.2261-.3169784 3.132-.015848 6.264-.0158306 9.396-.0316785 10.992-.0316959 22.003-.01586537 33.054.0316785.709 0 1.418.0158634 2.127.0158634 6.343.0316959 12.706.079243 19.049.126786 4.55.047544 9.101.095074 13.671.158465 3.782.047544 7.584.095098 11.366.158489 1.733.015848 3.467.047549 5.2.079245.315 0 .631-.015857.946.015839l.236.031703c.256.047544.453.095068.729.07922.414-.015848.827-.079218 1.261-.126762.394-.047544.827-.095108 1.241-.095108.335 0 .669.01587 1.004.047566.237.015848.473.031694.709.047542.887.063392 1.773.110923 2.66.110923.02 0 .059-.000009.079.015839 1.438.285263 2.698.839956 4.195 1.505576.138.06339.276.11093.414.19017 5.732 2.53567 11.268 5.3883 16.507 8.54207 4.964 2.9952 9.692 6.2441 14.124 9.7306.335.2536.67.523.985.7924 3.152 2.5357 6.146 5.1823 9.14 7.8289.493.4437.985.8875 1.478 1.3471 1.083.9984 2.108 2.0602 2.935 3.2329.591.8083 1.064 1.6799 1.339 2.5991.138.4279.197.8875.335 1.3154.434 1.2361-.177 2.599-.945 3.6767-.079 0-.138.1109-.217.206z" fill="#eb924d"/><path d="m16.4009 14.6449c1.0838 13.3952 1.2217 27.4109.7488 41.8243-.0788 2.6408 2.4827 4.868 5.793 4.9635 65.2599 2.1318 129.3963 2.6886 192.2723 1.4795 1.163-.0159 2.305-.3181 3.291-.8431 10.797-5.8704 20.649-12.2657 29.339-19.3293 2.187-1.7658 2.364-4.5499.414-6.4908-10.325-10.2771-22.364-19.186-36.67-26.28131-.926-.46136-2.009-.7159-3.093-.7159-58.817-.81135-121.1801-.65228-186.1641.2068-3.4679.06364-6.1477 2.41811-5.931 5.18631z" fill="url(#e)"/><path d="m244.49 39.6883c-.157.3828-.491.67-.825.9571-1.395 1.1645-2.83 2.2811-4.324 3.3817-3.694 2.7597-7.605 5.3438-11.575 7.8163-4.108 2.5682-8.097 6.0457-13.266 7.1463-6.073 1.2921-13.639.4467-19.889.5264-15.192.1914-30.383.2871-45.575.2871-20.479 0-40.937-.1754-61.3961-.5104-10.7306-.1755-21.4415-.3988-32.1523-.67-5.2474-.1276-10.4947-.2552-15.7617-.4147-4.4809-.1276-10.3965.5264-14.7005-.3828-3.8323-.8136-2.8104-8.3746-2.83-10.6557-.0393-6.2849.1769-12.5858-.1572-18.8707-.059-1.1964-.1376-2.3768-.2359-3.5572-.2358-2.7596-1.8277-11.8201 4.0682-11.7244 33.98.6061 68.1959-.5583 102.2345-.5583 15.251 0 30.502.0478 45.753.1595 7.35.0478 14.7.1276 22.05.2074 4.167.0478 8.608-.4786 12.676.5264 4.245 1.0368 8.274 4.0198 11.773 6.1732 8.686 5.3278 16.036 11.6128 23.308 18.137.609.5583 1.101 1.3239.825 2.0258z" fill="#e68b4a"/><path d="m39.199 31.1504c-.2344.1172-.4004.166-.498.1465-.0782-.0391-.1856-.0489-.3223-.0293-.0586-.0196-.1172-.0196-.1758 0-.0586.0195-.1074.039-.1465.0586-.0586 0-.1171-.0098-.1757-.0293-.0586-.0196-.127-.0098-.2051.0293-.0391 0-.0879.0097-.1465.0293-.0586 0-.1172-.0098-.1758-.0293-.2539-.0391-.4394-.0391-.5566 0-.0586 0-.1172-.0098-.1758-.0293-.0586-.0196-.1074-.0293-.1465-.0293-.2344.0586-.4004.0976-.498.1172-.0977.0195-.1953.039-.293.0586-.1172.039-.2441.0683-.3809.0878-.1172 0-.2343.0196-.3515.0586-.0782.0196-.1953.0684-.3516.1465-.1953.0977-.332.1563-.4101.1758-.0782.0195-.1563.0488-.2344.0879s-.1465.0586-.2051.0586c-.0391 0-.0879.0195-.1465.0586-.2734.1953-.4687.3027-.5859.3223-.1758.0976-.2832.166-.3223.205-.0195.0196-.039.0391-.0586.0586-.1758.1172-.2929.2051-.3515.2637-.1954.0977-.3321.2051-.4102.3223-.1758.1562-.2637.2343-.2637.2343-.1367.1758-.2246.3028-.2636.3809-.0391.0586-.0782.1269-.1172.2051-.1172.1172-.1856.2051-.2051.2636-.0195.0391-.0488.0684-.0879.0879-.0391.0782-.0684.1368-.0879.1758-.0195.0391-.0391.0977-.0586.1758-.0586.1758-.0976.2832-.1172.3223v.0586c-.0586.2148-.0879.3613-.0879.4394v.2051c0 .1367-.0097.2441-.0293.3223.0391.1367.0586.2636.0586.3808 0 .0977.0196.2149.0586.3516.0391.1367.0977.2636.1758.3808.0977.1758.1465.2832.1465.3223.0195.0391.0391.0781.0586.1172.1172.2148.1758.3223.1758.3223.0195 0 .039.0195.0586.0586.039.039.0683.0878.0879.1464.039.0586.0781.1075.1171.1465.1368.1563.2051.2442.2051.2637.0196.0195.0488.0488.0879.0879.1367.1562.2149.2344.2344.2344.1367.0585.2344.1171.293.1757.1171.0782.205.1465.2636.2051.2539.1172.4004.2051.4395.2637.0586.039.1172.0781.1758.1172.1757.0586.2636.0976.2636.1172.0196 0 .0489.0097.0879.0293.2149.0781.3516.1171.4102.1171.039.0196.0879.0391.1465.0586.0586.0196.1172.0489.1757.0879.0391.0196.0879.0293.1465.0293s.1172.0196.1758.0586l.3516.0879c.2539.0977.4687.1563.6445.1758.2344.0586.3809.0977.4395.1172.0781.0195.1464.039.205.0586.1563.039.3125.0683.4688.0879.1562 0 .3223.0097.498.0293.0586 0 .1172.0097.1758.0293h.2051.3516c.039-.0196.0781-.0293.1171-.0293.0391 0 .0879.0097.1465.0293.0782.0195.166.039.2637.0586h.2051c.0781-.0196.1562-.0098.2344.0292.2148.0782.3417.2051.3808.3809s.0684.3711.0879.5859v.4688c.0195.0977.0293.1855.0293.2637v.2343c0 .0977-.0098.1954-.0293.293v.2637c-.0195.1953-.0293.3906-.0293.5859v.3809c0 .1953-.0098.332-.0293.4101v.1758.586c.0391.1171.0586.1953.0586.2343.0195.0391.0195.0782 0 .1172-.0391.0977-.0586.1758-.0586.2344.0195.0586.0293.1074.0293.1465-.0195.1172-.0293.1953-.0293.2344.0195.0195.0098.0585-.0293.1171-.0586.2539-.1562.4395-.293.5567-.2734.1172-.4687.1855-.5859.2051-.0977.0195-.2246.039-.3809.0586-.0976 0-.1757 0-.2343 0-.0586.0195-.1367.0293-.2344.0293-.2148.0585-.3613.0878-.4395.0878-.0781 0-.1464 0-.205 0-.1758.0586-.3223.0782-.4395.0586-.0976-.0195-.1758-.0293-.2344-.0293-.039.0391-.0976.0586-.1757.0586-.0782 0-.1368-.0195-.1758-.0586-.0196-.0195-.1074-.0097-.2637.0293-.1367.0391-.2344.0489-.293.0293-.3515-.0781-.5957-.1172-.7324-.1172s-.2734-.0195-.4101-.0585c-.2735-.0782-.4688-.1368-.586-.1758-.0976-.0196-.2051-.0391-.3222-.0586-.0586-.0196-.1172-.0293-.1758-.0293s-.1172-.0098-.1758-.0293c-.0977 0-.166-.0196-.2051-.0586-.0391-.0195-.0781-.0195-.1172 0-.2344-.0781-.3515-.1172-.3515-.1172 0-.0195-.0098-.0293-.0293-.0293-.2149-.0391-.3321-.0684-.3516-.0879s-.0391-.0293-.0586-.0293c-.1953-.039-.3125-.0683-.3516-.0879l-.4687-.1465c-.0781-.0195-.1758-.0683-.293-.1464-.2539-.1368-.3906-.2051-.4101-.2051-.2344-.0977-.3907-.1563-.4688-.1758-.0586-.0195-.1269-.0391-.2051-.0586-.2148-.1172-.3515-.1855-.4101-.2051-.0391-.0195-.0879-.0488-.1465-.0879-.1953-.0976-.3027-.1562-.3223-.1757 0-.0196-.0097-.0293-.0293-.0293-.1562-.0782-.2636-.127-.3222-.1465-.0391-.0196-.0782-.0293-.1172-.0293-.0391-.0586-.0977-.1172-.1758-.1758-.0586-.0586-.1074-.1367-.1465-.2344-.039-.039-.0976-.0586-.1758-.0586-.0586 0-.1074-.0195-.1464-.0586-.2344-.1953-.3809-.3125-.4395-.3515-.1953-.1367-.3125-.2051-.3516-.2051-.039-.0195-.0781-.0488-.1171-.0879-.0391-.0391-.0782-.0781-.1172-.1172-.0391-.0586-.0782-.1074-.1172-.1465-.0586-.0781-.127-.1367-.2051-.1758-.0586-.0585-.1172-.1269-.1758-.205-.1562-.1953-.2539-.293-.293-.293-.0195-.0195-.0488-.0488-.0878-.0879-.0977-.1367-.1661-.2441-.2051-.3223-.0391-.0781-.0977-.1367-.1758-.1757-.1953-.2344-.293-.3809-.293-.4395-.1367-.1367-.2148-.2246-.2343-.2637l-.2051-.2929c-.1172-.2344-.1856-.3516-.2051-.3516-.1563-.2539-.2441-.3809-.2637-.3809-.039-.1953-.0976-.3613-.1758-.498-.0585-.1563-.0976-.2734-.1171-.3516-.1172-.2929-.1856-.4785-.2051-.5566-.0391-.0977-.0781-.2148-.1172-.3516-.0195-.1367-.0391-.2636-.0586-.3808-.0977-.2735-.1465-.4395-.1465-.4981 0-.2539-.0195-.4199-.0586-.498-.0195-.0977-.0293-.1953-.0293-.293 0-.1367.0098-.2441.0293-.3223.0196-.0781.0293-.1464.0293-.205 0-.1953-.0097-.3028-.0293-.3223 0-.0391 0-.0781 0-.1172l.0293-.3222c.0391-.2344.0684-.3809.0879-.4395.0586-.1563.0781-.2441.0586-.2637 0-.0195.0098-.0488.0293-.0879.0391-.1367.0586-.2343.0586-.2929s.0098-.127.0293-.2051c.0391-.1953.0586-.3516.0586-.4688.0195-.039.039-.0879.0586-.1464.0195-.0586.039-.1172.0586-.1758.0195-.2344.039-.3614.0586-.3809.0195-.0195.0293-.0488.0293-.0879.0586-.1758.0781-.2734.0586-.2929 0-.0196 0-.0391 0-.0586.0585-.1758.1269-.3321.205-.4688.0586-.2344.0977-.3711.1172-.4101.1563-.2149.2344-.3418.2344-.3809.0195-.0391.0488-.0781.0879-.1172.1172-.1953.1953-.3125.2344-.3516.0195-.039.0293-.0976.0293-.1757.0195-.0782.039-.1368.0586-.1758.1562-.1758.2343-.2735.2343-.293s.0196-.0391.0586-.0586c.0586-.1562.1465-.3125.2637-.4687.0781-.1368.1172-.2149.1172-.2344.0195-.0195.0293-.0488.0293-.0879.0976-.1172.1855-.1953.2636-.2344.1172-.1953.1856-.3027.2051-.3222.1367-.1368.2051-.2149.2051-.2344s.0195-.0391.0586-.0586c.0391-.0391.0879-.0684.1465-.0879.0586-.0391.1172-.0781.1758-.1172.1172-.1172.205-.2051.2636-.2637.0586-.0781.1172-.1562.1758-.2343.1953-.1368.293-.2149.293-.2344.0976-.0977.1758-.1758.2344-.2344.0586-.0976.1074-.1562.1464-.1758.0391-.039.0782-.0781.1172-.1172.1953-.1953.293-.2832.293-.2636.1367-.1172.2441-.1953.3223-.2344.0976-.0586.1953-.1172.2929-.1758.1563-.0781.2442-.1269.2637-.1465.0391-.039.0781-.0683.1172-.0879.0781-.0585.1562-.1074.2344-.1464.0781-.0391.1562-.0782.2343-.1172.0977-.0391.1856-.0684.2637-.0879s.166-.0391.2637-.0586l.2344-.2344c.2148-.0781.3418-.1269.3808-.1465.2149-.0781.3516-.1172.4102-.1172.0781 0 .1465-.0097.2051-.0293.2343-.0976.3711-.1562.4101-.1757.2735-.0782.4297-.127.4688-.1465.0586-.0195.1172-.0195.1757 0 .1368-.0586.2442-.0879.3223-.0879l.3223-.1172.3222-.0586c.2735-.0586.4493-.0879.5274-.0879.0781-.0195.166-.0488.2637-.0879.1953-.0586.3125-.0781.3515-.0586.0391.0196.0781.0293.1172.0293.2149 0 .3516-.0097.4102-.0293.0781-.039.1562-.0586.2343-.0586.1368 0 .2735.0196.4102.0586.1367.0196.2734.0098.4102-.0293h.498c.0586-.0195.1172-.0195.1758 0 .0976.0586.2051.0586.3222 0 .1368-.039.2149-.0488.2344-.0293.0391.0196.0781.0293.1172.0293.2344.0782.3711.1172.4102.1172.039-.0195.0781-.0195.1172 0 .2148.0977.332.1465.3515.1465.0391-.0195.0781-.0293.1172-.0293.1172 0 .1953.0098.2344.0293.0586.0195.1074.0098.1465-.0293l.2929.2051c.0782.1367.127.2148.1465.2344.0195.0195.0293.039.0293.0586.0195.0586.0195.1464 0 .2636 0 .0977.0098.2051.0293.3223.0195.1953.0293.293.0293.293.0195 0 .0293.0097.0293.0293v.2636c.0195.0782.0195.1563 0 .2344 0 .0781-.0098.1563-.0293.2344v.2637.3515c.0195.0196.0293.0391.0293.0586-.0586.3516-.0879.5762-.0879.6738v.4102.1758c0-.0196 0-.0391 0-.0586s-.0098-.0195-.0293 0v.2051.2343c.0195.0196.0293.0489.0293.0879v.3223c.0195.0586.0293.1074.0293.1465 0 .0781-.0098.1562-.0293.2344-.0195.0585-.0293.1367-.0293.2343-.0586.2149-.0781.3321-.0586.3516zm20.4891-.8789c.0781.0195.2148.0683.4101.1465.1758.0586.3028.1562.3809.2929.0977.0391.1855.0879.2637.1465.0781.0391.1562.0977.2343.1758.1954.1367.2832.2148.2637.2344v.0586c.1758.1367.2637.2148.2637.2343.0391.0391.0879.0879.1465.1465s.1074.1075.1465.1465c.0976.1367.1562.2246.1757.2637.0391.039.0782.0781.1172.1172.0977.1758.1563.2832.1758.3222.0391.0196.0684.0489.0879.0879.1953.2344.3125.4102.3516.5274.0586.0976.1171.2051.1757.3222.0782.1758.127.2735.1465.293.0196 0 .0391.0098.0586.0293.0586.1758.1074.293.1465.3516.0586.0586.1074.1367.1465.2343.0976.1563.1855.3321.2637.5274.0976.1953.1855.4101.2636.6445.1368.3711.2442.7324.3223 1.084 0 .1367.0098.2441.0293.3223.0977.2539.1465.4297.1465.5273 0 .0977.0097.2051.0293.3223.039.0976.0586.1953.0586.2929 0 .0977.0097.1954.0293.293.039.1367.0781.332.1172.586 0 .1562-.0098.3125-.0293.4687v.4395c-.0196.1562-.0293.2929-.0293.4101.0195.1172.0097.2442-.0293.3809-.0391.1758-.0586.3027-.0586.3808 0 .0782-.0098.166-.0293.2637-.0391.1563-.0586.2637-.0586.3223-.0391.0976-.0781.1855-.1172.2636-.0195.0586-.0488.1368-.0879.2344-.0391.1563-.0684.2637-.0879.3223-.0391.1562-.0976.2832-.1758.3808-.0586.0977-.1367.2051-.2343.3223-.0586.1172-.127.2148-.2051.293-.0586.0781-.1172.1562-.1758.2344-.1367.2148-.2441.3613-.3223.4394-.0586.0781-.1172.166-.1758.2637-.1562.1953-.2441.3027-.2636.3222-.0196 0-.0391.0196-.0586.0586-.0781.0977-.166.2051-.2637.3223-.0976.0977-.2051.1855-.3223.2637-.0976.1953-.1855.3125-.2636.3515-.0586.0391-.1367.0879-.2344.1465-.0781.0586-.1465.127-.2051.2051-.3125.1172-.498.1953-.5566.2344l-.293.1465c-.293.1171-.4785.205-.5566.2636-.0782.0391-.166.0879-.2637.1465-.0781.0391-.2148.0977-.4102.1758-.1171.0586-.205.0879-.2636.0879-.0391 0-.0782.0097-.1172.0293-.1563.0586-.2539.0879-.293.0879-.0195 0-.0488.0097-.0879.0293-.2148.0586-.3613.0879-.4394.0879-.0782 0-.1563.0097-.2344.0293-.2539.0781-.4492.1171-.5859.1171-.2344-.0195-.3907-.0195-.4688 0-.0586.0196-.1367.0391-.2344.0586-.2929.0586-.5859.0586-.8789 0-.2148.0391-.3906.0586-.5273.0586-.0586 0-.1172 0-.1758 0-.0586.0196-.1074.0293-.1465.0293-.0781 0-.1465-.0195-.2051-.0586-.039-.0195-.0976-.0293-.1757-.0293-.0782-.0195-.2247-.0293-.4395-.0293-.1172-.0195-.2344-.039-.3516-.0586-.1171-.0195-.2343-.039-.3515-.0585-.0586-.0196-.127-.0293-.2051-.0293-.0586 0-.1172-.0098-.1758-.0293-.1367-.0391-.2441-.0586-.3222-.0586-.254-.0977-.3711-.1465-.3516-.1465-.2734-.0781-.4199-.127-.4395-.1465-.2343-.0195-.3906-.0488-.4687-.0879-.2149-.0781-.3418-.1172-.3809-.1172l-.3222-.1465c-.2344-.1172-.3907-.1757-.4688-.1757-.1953-.0586-.3223-.1172-.3808-.1758-.2149-.0782-.3418-.127-.3809-.1465s-.0781-.0391-.1172-.0586c-.1953-.1953-.332-.3027-.4101-.3223-.0782-.039-.1368-.0976-.1758-.1758-.2149-.0976-.3321-.1562-.3516-.1757 0-.0196-.0098-.0391-.0293-.0586-.1172-.0782-.2148-.1856-.293-.3223-.1562-.1172-.2734-.2441-.3515-.3809-.1172-.0976-.1953-.1855-.2344-.2636-.1367-.1953-.2051-.3028-.2051-.3223s-.0097-.0391-.0293-.0586c-.1367-.2344-.2246-.3613-.2636-.3808-.0196-.0391-.0391-.0879-.0586-.1465-.0586-.0586-.127-.1172-.2051-.1758-.0586-.0781-.0879-.1758-.0879-.293-.1563-.1172-.2539-.2246-.293-.3222-.0586-.1368-.0879-.2247-.0879-.2637.0196-.0391.0293-.0781.0293-.1172-.1367-.2344-.2343-.4102-.2929-.5273-.0782-.254-.127-.4102-.1465-.4688-.1172-.2344-.1953-.4199-.2344-.5566-.0391-.1368-.0781-.293-.1172-.4688-.0195-.1562-.0293-.2441-.0293-.2637.0196-.0195.0196-.0488 0-.0878 0-.0586-.0097-.1075-.0293-.1465 0-.0586-.0097-.1172-.0293-.1758.0196-.293.0098-.459-.0293-.4981-.0195-.1953-.039-.2929-.0586-.2929-.0195-.0196-.0293-.0489-.0293-.0879 0-.1563.0098-.2735.0293-.3516.0391-.0781.0586-.1562.0586-.2344 0-.1562 0-.2734 0-.3515.0586-.1563.0879-.2539.0879-.293.0196-.0586.0196-.1269 0-.2051.0781-.1758.1172-.3027.1172-.3808 0-.0782.0098-.1465.0293-.2051.0391-.1172.0684-.1953.0879-.2344.0195-.039.0293-.0781.0293-.1172.0195-.0976.0293-.166.0293-.205 0-.0391.0098-.0977.0293-.1758.0586-.1367.1172-.2539.1758-.3516.0586-.1562.0879-.2637.0879-.3223s.0097-.1171.0293-.1757c.039-.1758.0781-.2832.1171-.3223.0782-.2148.127-.3223.1465-.3223.0196 0 .0293-.0097.0293-.0293.0977-.1562.166-.2636.2051-.3222.0391-.0782.0781-.1465.1172-.2051.0391-.0977.0781-.1856.1172-.2637.039-.0781.0781-.166.1172-.2637.0976-.1171.1464-.1855.1464-.205.0196-.0391.0391-.0782.0586-.1172.0977-.1563.1563-.2344.1758-.2344.0196-.0195.0489-.0488.0879-.0879.0781-.1172.1172-.1855.1172-.2051.0195-.0195.0391-.0488.0586-.0879.293-.3515.4785-.6152.5566-.791.1563-.0781.2539-.1562.293-.2343.0781-.0196.127-.0586.1465-.1172.0391-.0782.0781-.1367.1172-.1758l.3515-.1172c.1954-.1367.3418-.2246.4395-.2637.1367-.0781.2246-.1074.2637-.0879.0586 0 .1074-.0097.1464-.0293.1563-.1367.2344-.1953.2344-.1757 0 .0195.0196.0097.0586-.0293.1953-.0782.3028-.1172.3223-.1172.039 0 .0781-.0098.1172-.0293.1562-.0977.2539-.1465.2929-.1465.0391-.0195.0879-.0391.1465-.0586s.1074-.0488.1465-.0879c.1953-.0976.3223-.1465.3809-.1465s.1172-.0097.1757-.0293c.1954-.0781.3125-.1172.3516-.1172.0586-.0195.1074-.0293.1465-.0293.4102-.0976.6934-.1757.8496-.2343.1172.0195.2246.0195.3223 0 .1172-.0391.2246-.0684.3222-.0879.2344 0 .3809.0097.4395.0293.0586.0195.1172.0293.1758.0293s.1172-.0098.1758-.0293c.0781-.0196.1562-.0293.2343-.0293h.4688c.0586-.0196.1172-.0293.1758-.0293.0781-.0195.1464-.0195.205 0s.127.0293.2051.0293c.0586-.0196.1172-.0391.1758-.0586.0781-.0195.166-.0195.2637 0 .1172.0195.2246.039.3222.0586.0977.0195.1563.0293.1758.0293.2344.0195.3711.039.4102.0586.0976.0195.205.039.3222.0586.1368.0195.2832.039.4395.0586.2148.0195.3223.0293.3223.0293.0195-.0196.0488-.0196.0878 0 .1758.0781.2832.1269.3223.1464h.1465c.0781.0196.1562.0391.2344.0586.0976 0 .1758.0293.2343.0879.2735.1172.4297.1953.4688.2344zm-4.1602 4.4824c-.1953-.0391-.2929-.0488-.2929-.0293s-.0098.0293-.0293.0293c-.1954.0195-.3028.0391-.3223.0586s-.0488.0293-.0879.0293c-.0781.0391-.166.0684-.2637.0879-.0781 0-.1367.0195-.1757.0586-.1954.1172-.3028.1758-.3223.1758s-.0488.0097-.0879.0293c-.1758.0586-.2637.0976-.2637.1171 0 0-.0195.0098-.0586.0293-.1172.0782-.2246.1661-.3222.2637-.1368.0977-.2442.1856-.3223.2637-.0586.0586-.1074.1074-.1465.1465-.1562.1758-.2344.2734-.2344.2929-.1171.1563-.2148.2735-.2929.3516-.1367.1953-.2051.3223-.2051.3809s-.0195.1171-.0586.1757c-.1563.1758-.2441.3223-.2637.4395-.0586.0977-.1172.1855-.1758.2637-.039.0586-.0585.1269-.0585.205.0195.254.0195.4102 0 .4688v.1465c0 .2539.0292.4492.0878.5859.0391.1563.0782.3125.1172.4688.0586.1562.127.3125.2051.4687.1172.2149.166.3321.1465.3516 0 .0195.0098.039.0293.0586.0976.1562.1562.2343.1758.2343.0195 0 .039.0098.0586.0293.1562.1563.2441.2344.2636.2344.0196 0 .0489.0098.0879.0293.0977.0977.1953.2051.293.3223.1172.0976.2539.1562.4102.1758l.3808.205c.0586.0391.1172.0586.1758.0586s.1172.0098.1758.0293c.1172.0586.1953.0879.2343.0879.0391-.0195.0782-.0195.1172 0 .1758.0586.293.0879.3516.0879.0586-.0195.1074-.0293.1465-.0293.1953.0586.3125.0879.3515.0879.0586-.0195.1172-.0293.1758-.0293h.293c.1367-.0195.2539-.0293.3516-.0293l.5273-.0879c.1758-.0586.2539-.0976.2344-.1172 0-.0195.0195-.0293.0586-.0293.1367-.0195.2441-.0683.3222-.1464.1758-.1368.3223-.2051.4395-.2051.0976-.1953.1953-.3223.293-.3809.1171-.1758.166-.2637.1464-.2637 0-.0195.0098-.039.0293-.0585.0586-.1368.1075-.2051.1465-.2051.0391-.0196.0684-.0489.0879-.0879.0586-.1172.0879-.1953.0879-.2344.0195-.0391.0391-.0684.0586-.0879l.2051-.4101c.1172-.1758.1758-.3321.1758-.4688.0781-.2344.1074-.4004.0878-.498 0-.0977 0-.1953 0-.293-.0195-.0977-.039-.1856-.0585-.2637-.0196-.0781-.0391-.166-.0586-.2636-.0196-.0782-.0293-.1368-.0293-.1758.0195-.0586.0195-.1075 0-.1465-.0391-.0781-.0782-.1367-.1172-.1758-.0196-.0586-.0293-.1172-.0293-.1758-.1172-.1562-.1758-.2441-.1758-.2636 0-.0196-.0098-.0391-.0293-.0586-.0977-.1368-.1465-.2051-.1465-.2051 0-.0195-.0097-.0488-.0293-.0879-.0586-.0781-.1172-.1465-.1758-.2051-.039-.0781-.0879-.1562-.1464-.2344-.1368-.1367-.2149-.2148-.2344-.2343 0-.0196-.0196-.0391-.0586-.0586-.1953-.1563-.332-.2539-.4102-.293-.0586-.0586-.1074-.127-.1465-.2051-.2148-.0976-.3906-.1758-.5273-.2344-.1953-.0976-.293-.1562-.293-.1757.0196-.0391.0196-.0586 0-.0586l-.3808-.1172c-.1563-.0781-.2539-.1367-.293-.1758zm21.1336-2.0508c.0586.0196.1074 0 .1465-.0586s.0781-.1074.1172-.1465c.0977-.0585.166-.0976.2051-.1171.039-.0391.0781-.0782.1172-.1172.1953-.1367.3125-.2149.3515-.2344l.2344-.2344c.1953-.0781.3125-.1465.3516-.2051.0586-.0586.1269-.1171.205-.1757.0586-.0586.0977-.0977.1172-.1172.0391-.0391.0782-.0781.1172-.1172.1563-.0977.2539-.1563.293-.1758.0586-.0195.1074-.0391.1465-.0586.1953-.1758.3222-.2832.3808-.3223.0782-.039.1563-.0781.2344-.1171.0781-.0782.166-.1368.2637-.1758.0976-.0586.1855-.1367.2636-.2344.0586-.0391.1075-.0586.1465-.0586.0586-.0195.1075-.0488.1465-.0879.1172-.0781.1856-.1269.2051-.1465.0195-.039.0488-.0586.0879-.0586.039-.039.0976-.0586.1758-.0586h.2636c.1758-.0195.2735-.0195.293 0 .0391.0196.0781.0391.1172.0586.1562.1172.2441.1758.2637.1758.039 0 .0781.0196.1172.0586.1757.1172.2539.1758.2343.1758-.0195-.0195-.0097-.0098.0293.0293.2149.1172.3321.1855.3516.2051l.2637.2343c.039.0391.0878.0782.1464.1172.0586.0391.0977.0879.1172.1465.1758.1367.2735.2051.293.2051.0977.0586.2051.166.3223.3223.1757.0976.2734.1464.2929.1464.1368.0782.2246.1563.2637.2344.1563.0391.2832.1367.3809.293.0976.1367.2343.2441.4101.3223.0196.0781.0586.1367.1172.1757.0586.0196.0977.0782.1172.1758.0586 0 .1074-.0293.1465-.0879.0586-.0586.1074-.0976.1465-.1172.1367-.0195.2148-.039.2343-.0586.0196-.039.0489-.0781.0879-.1171.0782-.0391.127-.0782.1465-.1172.0391-.0391.0781-.0782.1172-.1172.1953-.0781.293-.1172.293-.1172 0-.0195.0097-.0293.0293-.0293.1562-.1562.2441-.2344.2636-.2344.0196-.0195.0391-.039.0586-.0586.2149-.1172.3418-.205.3809-.2636.0586-.0782.1269-.1465.2051-.2051.1953-.1367.3125-.2051.3515-.2051.1563-.1367.2637-.2148.3223-.2344.1953-.1758.332-.2832.4102-.3222.0781-.0391.1464-.0782.205-.1172.0977-.0782.1953-.1367.293-.1758.0977-.0586.1758-.1367.2344-.2344.0586-.0195.1074-.039.1465-.0586.0586-.0195.1171-.0488.1757-.0879.1563-.1367.2442-.205.2637-.205.0391-.0391.1074-.0586.2051-.0586h.2637c.1562 0 .2441.0097.2636.0293.0391 0 .0782.0195.1172.0586.1563.0976.2442.1464.2637.1464.0391 0 .0781.0196.1172.0586.1758.1172.2637.166.2637.1465s.0097-.0097.0293.0293c.1757.1563.2832.2344.3222.2344l.2637.2051.1465.1465c.0586.039.0976.0878.1172.1464.1367.0586.2539.1368.3515.2344.1172.0977.2246.1953.3223.293.1953.1172.3223.2051.3808.2636.0586.0391.1075.0782.1465.1172.1563.0586.2735.1563.3516.293.0977.1367.2246.2441.3809.3223.1757.1953.2832.332.3222.4101.0391.0782.0781.1465.1172.2051.1367.1367.2441.2637.3223.3809.2539.2929.4199.5468.498.7617.0781.2148.166.4297.2637.6445l.0293.5274.0586.3515c0 .1172.0195.2344.0586.3516.0195.0781.0195.1465 0 .2051-.0196.0586-.0391.1269-.0586.205.0195.2149.0195.3614 0 .4395v.2051.1465c.0195.0585.0195.1269 0 .205-.0391.2344-.0684.4004-.0879.4981 0 .0976.0098.2148.0293.3515.0195.1954.0098.3321-.0293.4102-.0195.0781-.0293.166-.0293.2637-.0195.0586-.0293.1269-.0293.205.0195.0586.0293.1172.0293.1758.0391.2735.0391.586 0 .9375.0195.1953.0195.293 0 .293v.0293c.0195.1367.0195.2148 0 .2344v.0879c.0195.0781.0293.1953.0293.3515v.2344c.0195.0195.0293.0488.0293.0879l-.0586.3516c.0195.0976.0293.1855.0293.2636v.2051c0 .1563-.0098.3223-.0293.498 0 .1563.0098.3126.0293.4688.0391.1562.0586.3418.0586.5566 0 .1954.0098.3907.0293.586.039.2734.0586.4492.0586.5273.0195.2149.0195.4199 0 .6153 0 .1953.0097.4003.0293.6152v.1465c.0195.0586.0195.1269 0 .2051-.1953.2148-.3125.3418-.3516.3808-.1367.0586-.2246.0879-.2637.0879-.0195 0-.0488.0098-.0879.0293-.1953.0586-.3222.0781-.3808.0586-.0391 0-.0879 0-.1465 0-.0977 0-.2148-.0098-.3516-.0293-.1171 0-.2343 0-.3515 0-.2539 0-.4297 0-.5274 0-.0781.0195-.166.0293-.2636.0293-.2149 0-.3418-.0098-.3809-.0293-.0391 0-.0781 0-.1172 0-.0781 0-.1465 0-.2051 0-.0586.0195-.1269.0195-.205 0-.1954-.0391-.3028-.0586-.3223-.0586-.0391-.0195-.0879-.0195-.1465 0-.0586 0-.1172.0098-.1758.0293-.0586 0-.1172 0-.1758 0-.0585-.0195-.1074-.0293-.1464-.0293-.1953.0586-.4004.0879-.6153.0879-.1953 0-.332-.0195-.4101-.0586-.2539-.1758-.3809-.3809-.3809-.6152 0-.2344.0098-.459.0293-.6739 0-.0586-.0098-.1171-.0293-.1757 0-.0782.0098-.1465.0293-.2051.0195-.1367.0391-.2539.0586-.3516.0391-.0976.0684-.2246.0879-.3808 0-.2149.0098-.3711.0293-.4688.0391-.1172.0586-.2246.0586-.3223v-.3222c.0195-.1563.0195-.2442 0-.2637 0-.0195 0-.0391 0-.0586.0195-.1953.0293-.293.0293-.293.0195-.0195.0293-.0488.0293-.0879.0195-.1953.0195-.2929 0-.2929 0-.0195.0097-.0293.0293-.0293l.0293-.4102c-.0196-.2343-.0293-.3515-.0293-.3515.0195-.0196.0293-.0489.0293-.0879 0-.0586-.0098-.1367-.0293-.2344-.0196-.0977-.0293-.1855-.0293-.2637v-.5566c-.0196-.1953-.0293-.3027-.0293-.3223.0195-.0195.0293-.039.0293-.0586-.0391-.1367-.0586-.2441-.0586-.3222.0195-.0977.0195-.1758 0-.2344.0195-.2734.0293-.4785.0293-.6152 0-.1563-.0195-.2735-.0586-.3516.0391-.0586.0488-.1172.0293-.1758 0-.0781 0-.1562 0-.2344 0-.1757-.0098-.3222-.0293-.4394s-.0098-.2051.0293-.2637c-.0586-.1758-.0977-.3027-.1172-.3809 0-.0781-.0391-.1367-.1172-.1757-.1758-.1563-.2637-.2539-.2637-.293-.1953-.0586-.3515-.0391-.4687.0586-.1563.1367-.2442.2051-.2637.2051-.0195-.0196-.0293-.0196-.0293 0-.1953.1367-.3027.2148-.3222.2343 0 .0196-.0196.0391-.0586.0586-.1758.1172-.2735.1856-.293.2051 0 .0196-.0195.0391-.0586.0586-.1758.1563-.2832.2442-.3223.2637-.0195.0195-.0488.0488-.0879.0879-.1367.0976-.2441.1855-.3222.2636-.0781.0782-.1563.1465-.2344.2051-.1172.0781-.2051.1367-.2637.1758-.039.0391-.0781.0781-.1172.1172-.039.0391-.0878.0879-.1464.1465-.0391.0586-.0684.1269-.0879.2051 0 .0976.0097.205.0293.3222.0195.1172.0293.2246.0293.3223-.0196.0781-.0293.1465-.0293.2051.0195.039.0293.0879.0293.1465v.5566c0 .1953-.0098.3027-.0293.3223v.0878.1758c.0195.0586.0293.1172.0293.1758.0195.2344.0195.3711 0 .4102-.0196.039-.0391.0781-.0586.1172.0195.1953.0293.3222.0293.3808.0195.0586.0293.127.0293.2051 0 .1758-.0098.3516-.0293.5273-.0196.1563-.0098.3028.0293.4395.039.1758.0586.3613.0586.5566s.0097.4004.0293.6153c0 .2343.0097.3711.0292.4101.0196.0196.0293.0488.0293.0879v1.2305c.0391.1758.0489.3027.0293.3808-.1367.1954-.2246.293-.2636.293-.0196 0-.0489.0195-.0879.0586-.1563.0781-.2539.1172-.293.1172s-.0781.0098-.1172.0293c-.1758.0586-.2929.0781-.3515.0586-.0391 0-.0782 0-.1172 0-.0977 0-.2149-.0098-.3516-.0293-.1172 0-.2441 0-.3808 0-.2344-.0196-.4493-.0098-.6446.0293-.0781 0-.1562-.0098-.2344-.0293-.0781 0-.166 0-.2636 0-.0977 0-.1856 0-.2637 0-.0781.0195-.166.0195-.2637 0-.1953-.0391-.3027-.0586-.3222-.0586-.0196-.0391-.0684-.0488-.1465-.0293s-.1563.0293-.2344.0293c-.2148 0-.332 0-.3516 0-.0195.0195-.039.0293-.0586.0293-.1562.0195-.2539.0293-.2929.0293-.0391.0195-.0879.0293-.1465.0293-.0781-.0196-.1465-.0586-.2051-.1172-.0586-.0391-.1367-.0684-.2344-.0879-.039-.1367-.0781-.2637-.1171-.3809-.0196-.1367-.0391-.2832-.0586-.4394-.0196-.0586-.0293-.1172-.0293-.1758.0195-.0781.0293-.1465.0293-.2051-.0196-.1172-.0489-.2246-.0879-.3222-.0196-.1172-.0196-.2442 0-.3809l.0586-.4102c0-.1367 0-.2246 0-.2636.0195-.0586.039-.1172.0586-.1758 0-.0977-.0098-.1953-.0293-.293 0-.1172.0097-.2246.0293-.3222.0195-.1563.0195-.2442 0-.2637 0-.0195 0-.0391 0-.0586.0195-.1953.0293-.293.0293-.293.0195-.0195.0293-.0488.0293-.0879 0-.2148.0097-.3222.0292-.3222 0-.2149 0-.3321 0-.3516.0196-.0195.0293-.0488.0293-.0879l-.0293-.4101c0-.0586-.0097-.127-.0292-.2051 0-.0977 0-.1953 0-.293v-.5566c-.0196-.2149-.0293-.3223-.0293-.3223.0195-.0195.0293-.0391.0293-.0586-.0586-.1172-.0879-.2246-.0879-.3223.0195-.0976.0293-.1757.0293-.2343.0195-.2735.0293-.4785.0293-.6153 0-.1562-.0196-.2832-.0586-.3808.039-.0391.0488-.0977.0293-.1758-.0196-.0781-.0196-.1465 0-.2051 0-.1758-.0098-.3222-.0293-.4394-.0196-.1172-.0098-.1953.0293-.2344-.0391-.1953-.0684-.332-.0879-.4102 0-.0976-.0391-.166-.1172-.205-.1758-.1172-.2637-.2051-.2637-.2637-.1953-.0391-.332-.0391-.4101 0-.0782.0195-.1465.0586-.2051.1172-.1367.1562-.2149.2343-.2344.2343 0 0-.0098.0098-.0293.0293-.1367.1758-.2441.3028-.3223.3809-.0586.0586-.1172.127-.1757.2051-.1172.1367-.1856.2148-.2051.2344-.0196.0195-.0391.0488-.0586.0878-.2344.1368-.4004.2442-.4981.3223-.0781.0586-.1757.0879-.2929.0879-.0977-.0195-.1758-.0586-.2344-.1172-.0586-.0781-.1367-.1367-.2344-.1758-.039-.0976-.0976-.1757-.1758-.2343-.0586-.0586-.1074-.1368-.1464-.2344-.1172-.1953-.1856-.3027-.2051-.3223-.0977-.1367-.166-.2344-.2051-.293-.0195-.0781-.0488-.1367-.0879-.1757l-.0879.7031v1.4648c0 .0586-.0098.127-.0293.2051v.1758c.0195.1562.0391.3125.0586.4687.0195.1368.0098.2735-.0293.4102.0586.0977.0781.2051.0586.3223 0 .1172.0098.2343.0293.3515v.3516c.0195.2148.0293.3516.0293.4102.0195.039.0293.0781.0293.1171-.0391.2344-.0488.3907-.0293.4688s.0293.166.0293.2637c-.0195.0781-.0195.166 0 .2636.0195.0977.0293.1758.0293.2344s-.0098.1172-.0293.1758c0 .0586.0098.1172.0293.1758.0391.2148.0586.3906.0586.5273.0391.1953.0586.4297.0586.7031.0195.0782.0293.2149.0293.4102.039.1758.0488.2734.0293.293v.0879c.0195.1171.039.2148.0586.2929.0195.0586.0293.1172.0293.1758-.0196.1758-.0293.2832-.0293.3223.0195.0195.0293.0488.0293.0879-.0586.1953-.0879.3418-.0879.4394 0 .0977-.0196.1758-.0586.2344-.2149 0-.3711 0-.4688 0-.0781.0195-.166.0586-.2636.1172-.2149 0-.3809 0-.4981 0-.0976.0195-.1953.0097-.293-.0293-.1953-.0586-.3125-.0879-.3515-.0879-.0195.0195-.0586.0293-.1172.0293l-.6445-.0293c-.2149-.0391-.3711-.0586-.4688-.0586-.0781 0-.166-.0098-.2637-.0293l-.3515-.0293h-.4395c-.0586.0391-.1758.0586-.3515.0586-.1563.0195-.2539.0195-.293 0-.0195 0-.0488 0-.0879 0-.0586 0-.1172 0-.1758 0-.039.0195-.0976.0293-.1758.0293-.1171-.0391-.2441-.0293-.3808.0293-.1953-.0781-.3028-.1172-.3223-.1172s-.0293-.0098-.0293-.0293l-.1758-.293c-.0195-.0976-.0293-.166-.0293-.205.0196-.0586.0293-.1172.0293-.1758 0-.1172-.0097-.2344-.0293-.3516 0-.1172 0-.2246 0-.3223l.0293-.3515c.0196-.0781.0293-.1563.0293-.2344s.0098-.1465.0293-.2051c.0586-.2343.0782-.3808.0586-.4394 0-.0781.0196-.1563.0586-.2344-.039-.0977-.0488-.2051-.0293-.3223.0196-.1171.0293-.2246.0293-.3222.0196-.1953.0196-.3028 0-.3223 0-.0195 0-.0488 0-.0879l.0293-.5273c0-.1172-.0097-.2246-.0293-.3223-.0195-.2148-.0293-.3418-.0293-.3809.0196-.0585.0293-.1074.0293-.1464 0-.0586-.0097-.1172-.0293-.1758-.0195-.0586-.0097-.1074.0293-.1465 0-.1758 0-.3223 0-.4395 0-.2539-.0097-.4101-.0293-.4687-.0195-.0586-.0097-.1074.0293-.1465v-.5859c0-.2149-.0097-.3516-.0293-.4102-.0195-.0781-.0293-.1562-.0293-.2344 0-.0976.0098-.1855.0293-.2636.0196-.0977 0-.1856-.0586-.2637.0391-.1953.0586-.332.0586-.4102.0196-.2148.0196-.3222 0-.3222 0 0 0-.0098 0-.0293v-.6153c-.0195-.2734-.0293-.4589-.0293-.5566-.0195-.1953-.0293-.3516-.0293-.4687 0-.1368-.0097-.254-.0293-.3516.0196-.1563.0196-.2539 0-.293 0-.0586.0196-.0781.0586-.0586-.0195-.3125-.0488-.5175-.0879-.6152-.0195-.1172-.0097-.2246.0293-.3223-.0195-.0586-.039-.1074-.0586-.1465 0-.0585-.0097-.1367-.0293-.2343.0196-.1563.0196-.2539 0-.293 0-.0586 0-.1074 0-.1465-.0195-.2344-.0293-.3711-.0293-.4101.0196-.0391.0293-.0977.0293-.1758-.039-.2149-.0488-.3516-.0293-.4102.0196-.0586.0293-.1367.0293-.2344 0-.2539-.0097-.4101-.0293-.4687 0-.0586 0-.127 0-.2051 0-.1758-.0195-.3027-.0585-.3808-.0196-.0782-.0293-.1954-.0293-.3516l-.0586-.3809c-.0196-.0976-.0391-.166-.0586-.205 0-.0586.0097-.1368.0293-.2344.1172-.1953.166-.293.1464-.293.1563-.2148.2735-.3223.3516-.3223.1758-.0195.2832-.0195.3223 0 .0586.0196.1074.0293.1465.0293.0586 0 .1171-.0097.1757-.0293.0782-.039.1465-.0585.2051-.0585.1758-.0196.2735-.0293.293-.0293.0391-.0196.0781-.0391.1172-.0586.0586 0 .1172.0097.1758.0293.0781 0 .1367-.0098.1757-.0293h.586c.1172 0 .2246-.0196.3222-.0586.0586-.0196.1368-.0196.2344 0 .0977.0195.1758.0586.2344.1172.0976-.0391.1855-.0489.2637-.0293h.2343c.2149.039.3907.0586.5274.0586.1562-.0196.293-.0098.4101.0293.0977-.0391.2149-.0489.3516-.0293.1367.0195.2539 0 .3516-.0586.1757.0586.2832.0879.3222.0879.2149.1953.3516.332.4102.4101.0586.0586.0781.166.0586.3223-.0977.2539-.1465.4394-.1465.5566.0195.1172.0098.2344-.0293.3516 0 .0976-.0098.1758-.0293.2344-.0195.0585-.0293.1074-.0293.1464-.0195.0782-.0391.1465-.0586.2051 0 .0586-.0098.127-.0293.2051-.039.1758-.0586.3027-.0586.3809.0196.0781.0098.166-.0293.2636zm31.7095 0c.059.0196.108 0 .147-.0586s.078-.1074.117-.1465c.098-.0585.166-.0976.205-.1171.039-.0391.078-.0782.117-.1172.196-.1367.313-.2149.352-.2344l.234-.2344c.195-.0781.313-.1465.352-.2051.058-.0586.127-.1171.205-.1757.058-.0586.097-.0977.117-.1172.039-.0391.078-.0781.117-.1172.156-.0977.254-.1563.293-.1758.059-.0195.108-.0391.147-.0586.195-.1758.322-.2832.38-.3223.079-.039.157-.0781.235-.1171.078-.0782.166-.1368.264-.1758.097-.0586.185-.1367.263-.2344.059-.0391.108-.0586.147-.0586.058-.0195.107-.0488.146-.0879.117-.0781.186-.1269.205-.1465.02-.039.049-.0586.088-.0586.039-.039.098-.0586.176-.0586h.264c.175-.0195.273-.0195.293 0 .039.0196.078.0391.117.0586.156.1172.244.1758.263.1758.039 0 .079.0196.118.0586.175.1172.254.1758.234.1758-.02-.0195-.01-.0098.029.0293.215.1172.332.1855.352.2051l.264.2343c.039.0391.087.0782.146.1172.059.0391.098.0879.117.1465.176.1367.274.2051.293.2051.098.0586.205.166.322.3223.176.0976.274.1464.293.1464.137.0782.225.1563.264.2344.156.0391.283.1367.381.293.098.1367.234.2441.41.3223.02.0781.059.1367.117.1757.059.0196.098.0782.117.1758.059 0 .108-.0293.147-.0879.059-.0586.107-.0976.146-.1172.137-.0195.215-.039.235-.0586.019-.039.049-.0781.088-.1171.078-.0391.127-.0782.146-.1172.039-.0391.078-.0782.117-.1172.196-.0781.293-.1172.293-.1172 0-.0195.01-.0293.03-.0293.156-.1562.244-.2344.263-.2344.02-.0195.039-.039.059-.0586.215-.1172.342-.205.381-.2636.058-.0782.127-.1465.205-.2051.195-.1367.312-.2051.351-.2051.157-.1367.264-.2148.323-.2344.195-.1758.332-.2832.41-.3222.078-.0391.146-.0782.205-.1172.098-.0782.195-.1367.293-.1758.098-.0586.176-.1367.234-.2344.059-.0195.108-.039.147-.0586.058-.0195.117-.0488.176-.0879.156-.1367.244-.205.263-.205.039-.0391.108-.0586.205-.0586h.264c.156 0 .244.0097.264.0293.039 0 .078.0195.117.0586.156.0976.244.1464.263.1464.04 0 .079.0196.118.0586.175.1172.263.166.263.1465s.01-.0097.03.0293c.175.1563.283.2344.322.2344l.264.2051c.058.0586.107.1074.146.1465.059.039.098.0878.117.1464.137.0586.254.1368.352.2344.117.0977.224.1953.322.293.195.1172.322.2051.381.2636.059.0391.107.0782.146.1172.157.0586.274.1563.352.293.098.1367.225.2441.381.3223.176.1953.283.332.322.4101.039.0782.078.1465.117.2051.137.1367.244.2637.323.3809.253.2929.419.5468.498.7617.078.2148.166.4297.263.6445l.03.5274.058.3515c0 .1172.02.2344.059.3516.019.0781.019.1465 0 .2051-.02.0586-.039.1269-.059.205.02.2149.02.3614 0 .4395v.2051.1465c.02.0585.02.1269 0 .205-.039.2344-.068.4004-.088.4981 0 .0976.01.2148.03.3515.019.1954.009.3321-.03.4102-.019.0781-.029.166-.029.2637-.02.0586-.029.1269-.029.205.019.0586.029.1172.029.1758.039.2735.039.586 0 .9375.019.1953.019.293 0 .293v.0293c.019.1367.019.2148 0 .2344v.0879c.019.0781.029.1953.029.3515v.2344c.02.0195.03.0488.03.0879l-.059.3516c.019.0976.029.1855.029.2636v.2051c0 .1563-.01.3223-.029.498 0 .1563.01.3126.029.4688.039.1562.059.3418.059.5566 0 .1954.01.3907.029.586.039.2734.059.4492.059.5273.019.2149.019.4199 0 .6153 0 .1953.01.4003.029.6152v.1465c.02.0586.02.1269 0 .2051-.195.2148-.312.3418-.352.3808-.136.0586-.224.0879-.263.0879-.02 0-.049.0098-.088.0293-.195.0586-.322.0781-.381.0586-.039 0-.088 0-.146 0-.098 0-.215-.0098-.352-.0293-.117 0-.234 0-.352 0-.253 0-.429 0-.527 0-.078.0195-.166.0293-.264.0293-.214 0-.341-.0098-.38-.0293-.039 0-.079 0-.118 0-.078 0-.146 0-.205 0-.058.0195-.127.0195-.205 0-.195-.0391-.303-.0586-.322-.0586-.039-.0195-.088-.0195-.147 0-.058 0-.117.0098-.175.0293-.059 0-.117 0-.176 0-.059-.0195-.108-.0293-.147-.0293-.195.0586-.4.0879-.615.0879-.195 0-.332-.0195-.41-.0586-.254-.1758-.381-.3809-.381-.6152 0-.2344.01-.459.029-.6739 0-.0586-.009-.1171-.029-.1757 0-.0782.01-.1465.029-.2051.02-.1367.04-.2539.059-.3516.039-.0976.068-.2246.088-.3808 0-.2149.01-.3711.029-.4688.039-.1172.059-.2246.059-.3223v-.3222c.019-.1563.019-.2442 0-.2637 0-.0195 0-.0391 0-.0586.019-.1953.029-.293.029-.293.02-.0195.029-.0488.029-.0879.02-.1953.02-.2929 0-.2929 0-.0195.01-.0293.03-.0293l.029-.4102c-.019-.2343-.029-.3515-.029-.3515.019-.0196.029-.0489.029-.0879 0-.0586-.01-.1367-.029-.2344-.02-.0977-.03-.1855-.03-.2637v-.5566c-.019-.1953-.029-.3027-.029-.3223.02-.0195.029-.039.029-.0586-.039-.1367-.058-.2441-.058-.3222.019-.0977.019-.1758 0-.2344.019-.2734.029-.4785.029-.6152 0-.1563-.019-.2735-.058-.3516.039-.0586.048-.1172.029-.1758 0-.0781 0-.1562 0-.2344 0-.1757-.01-.3222-.029-.4394-.02-.1172-.01-.2051.029-.2637-.059-.1758-.098-.3027-.117-.3809 0-.0781-.039-.1367-.118-.1757-.175-.1563-.263-.2539-.263-.293-.196-.0586-.352-.0391-.469.0586-.156.1367-.244.2051-.264.2051-.019-.0196-.029-.0196-.029 0-.195.1367-.303.2148-.322.2343 0 .0196-.02.0391-.059.0586-.176.1172-.273.1856-.293.2051 0 .0196-.019.0391-.058.0586-.176.1563-.284.2442-.323.2637-.019.0195-.048.0488-.087.0879-.137.0976-.245.1855-.323.2636-.078.0782-.156.1465-.234.2051-.117.0781-.205.1367-.264.1758-.039.0391-.078.0781-.117.1172s-.088.0879-.146.1465c-.04.0586-.069.1269-.088.2051 0 .0976.009.205.029.3222.019.1172.029.2246.029.3223-.019.0781-.029.1465-.029.2051.019.039.029.0879.029.1465v.5566c0 .1953-.01.3027-.029.3223v.0878.1758c.019.0586.029.1172.029.1758.02.2344.02.3711 0 .4102-.019.039-.039.0781-.058.1172.019.1953.029.3222.029.3808.019.0586.029.127.029.2051 0 .1758-.01.3516-.029.5273-.02.1563-.01.3028.029.4395.039.1758.059.3613.059.5566s.01.4004.029.6153c0 .2343.01.3711.029.4101.02.0196.03.0488.03.0879v1.2305c.039.1758.049.3027.029.3808-.137.1954-.225.293-.264.293-.019 0-.048.0195-.088.0586-.156.0781-.253.1172-.293.1172-.039 0-.078.0098-.117.0293-.175.0586-.293.0781-.351.0586-.039 0-.078 0-.117 0-.098 0-.215-.0098-.352-.0293-.117 0-.244 0-.381 0-.234-.0196-.449-.0098-.644.0293-.079 0-.157-.0098-.235-.0293-.078 0-.166 0-.263 0-.098 0-.186 0-.264 0-.078.0195-.166.0195-.264 0-.195-.0391-.303-.0586-.322-.0586-.02-.0391-.068-.0488-.147-.0293-.078.0195-.156.0293-.234.0293-.215 0-.332 0-.351 0-.02.0195-.04.0293-.059.0293-.156.0195-.254.0293-.293.0293-.039.0195-.088.0293-.147.0293-.078-.0196-.146-.0586-.205-.1172-.058-.0391-.136-.0684-.234-.0879-.039-.1367-.078-.2637-.117-.3809-.02-.1367-.039-.2832-.059-.4394-.019-.0586-.029-.1172-.029-.1758.019-.0781.029-.1465.029-.2051-.019-.1172-.049-.2246-.088-.3222-.019-.1172-.019-.2442 0-.3809l.059-.4102c0-.1367 0-.2246 0-.2636.019-.0586.039-.1172.059-.1758 0-.0977-.01-.1953-.03-.293 0-.1172.01-.2246.03-.3222.019-.1563.019-.2442 0-.2637 0-.0195 0-.0391 0-.0586.019-.1953.029-.293.029-.293.019-.0195.029-.0488.029-.0879 0-.2148.01-.3222.029-.3222 0-.2149 0-.3321 0-.3516.02-.0195.03-.0488.03-.0879l-.03-.4101c0-.0586-.009-.127-.029-.2051 0-.0977 0-.1953 0-.293v-.5566c-.019-.2149-.029-.3223-.029-.3223.019-.0195.029-.0391.029-.0586-.058-.1172-.088-.2246-.088-.3223.02-.0976.03-.1757.03-.2343.019-.2735.029-.4785.029-.6153 0-.1562-.02-.2832-.059-.3808.039-.0391.049-.0977.03-.1758-.02-.0781-.02-.1465 0-.2051 0-.1758-.01-.3222-.03-.4394-.019-.1172-.01-.1953.03-.2344-.04-.1953-.069-.332-.088-.4102 0-.0976-.039-.166-.118-.205-.175-.1172-.263-.2051-.263-.2637-.196-.0391-.332-.0391-.41 0-.079.0195-.147.0586-.205.1172-.137.1562-.215.2343-.235.2343 0 0-.01.0098-.029.0293-.137.1758-.244.3028-.322.3809-.059.0586-.118.127-.176.2051-.117.1367-.186.2148-.205.2344-.02.0195-.039.0488-.059.0878-.234.1368-.4.2442-.498.3223-.078.0586-.176.0879-.293.0879-.098-.0195-.176-.0586-.234-.1172-.059-.0781-.137-.1367-.235-.1758-.039-.0976-.097-.1757-.175-.2343-.059-.0586-.108-.1368-.147-.2344-.117-.1953-.185-.3027-.205-.3223-.098-.1367-.166-.2344-.205-.293-.02-.0781-.049-.1367-.088-.1757l-.088.7031v1.4648c0 .0586-.01.127-.029.2051v.1758c.019.1562.039.3125.058.4687.02.1368.01.2735-.029.4102.059.0977.078.2051.059.3223 0 .1172.01.2343.029.3515v.3516c.02.2148.029.3516.029.4102.02.039.03.0781.03.1171-.039.2344-.049.3907-.03.4688.02.0781.03.166.03.2637-.02.0781-.02.166 0 .2636.019.0977.029.1758.029.2344s-.01.1172-.029.1758c0 .0586.009.1172.029.1758.039.2148.059.3906.059.5273.039.1953.058.4297.058.7031.02.0782.029.2149.029.4102.04.1758.049.2734.03.293v.0879c.019.1171.039.2148.058.2929.02.0586.03.1172.03.1758-.02.1758-.03.2832-.03.3223.02.0195.03.0488.03.0879-.059.1953-.088.3418-.088.4394 0 .0977-.02.1758-.059.2344-.215 0-.371 0-.469 0-.078.0195-.166.0586-.263.1172-.215 0-.381 0-.498 0-.098.0195-.196.0097-.293-.0293-.196-.0586-.313-.0879-.352-.0879-.019.0195-.058.0293-.117.0293l-.645-.0293c-.214-.0391-.371-.0586-.468-.0586-.078 0-.166-.0098-.264-.0293l-.352-.0293h-.439c-.059.0391-.176.0586-.352.0586-.156.0195-.253.0195-.293 0-.019 0-.048 0-.087 0-.059 0-.118 0-.176 0-.039.0195-.098.0293-.176.0293-.117-.0391-.244-.0293-.381.0293-.195-.0781-.303-.1172-.322-.1172-.02 0-.029-.0098-.029-.0293l-.176-.293c-.02-.0976-.029-.166-.029-.205.019-.0586.029-.1172.029-.1758 0-.1172-.01-.2344-.029-.3516 0-.1172 0-.2246 0-.3223l.029-.3515c.019-.0781.029-.1563.029-.2344s.01-.1465.029-.2051c.059-.2343.079-.3808.059-.4394 0-.0781.02-.1563.059-.2344-.039-.0977-.049-.2051-.03-.3223.02-.1171.03-.2246.03-.3222.019-.1953.019-.3028 0-.3223 0-.0195 0-.0488 0-.0879l.029-.5273c0-.1172-.01-.2246-.029-.3223-.02-.2148-.03-.3418-.03-.3809.02-.0585.03-.1074.03-.1464 0-.0586-.01-.1172-.03-.1758-.019-.0586-.009-.1074.03-.1465 0-.1758 0-.3223 0-.4395 0-.2539-.01-.4101-.03-.4687-.019-.0586-.009-.1074.03-.1465v-.5859c0-.2149-.01-.3516-.03-.4102-.019-.0781-.029-.1562-.029-.2344 0-.0976.01-.1855.029-.2636.02-.0977 0-.1856-.058-.2637.039-.1953.058-.332.058-.4102.02-.2148.02-.3222 0-.3222 0 0 0-.0098 0-.0293v-.6153c-.019-.2734-.029-.4589-.029-.5566-.02-.1953-.029-.3516-.029-.4687 0-.1368-.01-.254-.03-.3516.02-.1563.02-.2539 0-.293 0-.0586.02-.0781.059-.0586-.02-.3125-.049-.5175-.088-.6152-.019-.1172-.01-.2246.029-.3223-.019-.0586-.039-.1074-.058-.1465 0-.0585-.01-.1367-.029-.2343.019-.1563.019-.2539 0-.293 0-.0586 0-.1074 0-.1465-.02-.2344-.03-.3711-.03-.4101.02-.0391.03-.0977.03-.1758-.04-.2149-.049-.3516-.03-.4102.02-.0586.03-.1367.03-.2344 0-.2539-.01-.4101-.03-.4687 0-.0586 0-.127 0-.2051 0-.1758-.019-.3027-.058-.3808-.02-.0782-.03-.1954-.03-.3516l-.058-.3809c-.02-.0976-.039-.166-.059-.205 0-.0586.01-.1368.029-.2344.118-.1953.166-.293.147-.293.156-.2148.273-.3223.351-.3223.176-.0195.284-.0195.323 0 .058.0196.107.0293.146.0293.059 0 .117-.0097.176-.0293.078-.039.146-.0585.205-.0585.176-.0196.274-.0293.293-.0293.039-.0196.078-.0391.117-.0586.059 0 .117.0097.176.0293.078 0 .137-.0098.176-.0293h.586c.117 0 .224-.0196.322-.0586.059-.0196.137-.0196.234 0 .098.0195.176.0586.235.1172.097-.0391.185-.0489.263-.0293h.235c.215.039.39.0586.527.0586.156-.0196.293-.0098.41.0293.098-.0391.215-.0489.352-.0293.137.0195.254 0 .351-.0586.176.0586.284.0879.323.0879.215.1953.351.332.41.4101.058.0586.078.166.058.3223-.097.2539-.146.4394-.146.5566.019.1172.01.2344-.029.3516 0 .0976-.01.1758-.03.2344-.019.0585-.029.1074-.029.1464-.019.0782-.039.1465-.059.2051 0 .0586-.009.127-.029.2051-.039.1758-.058.3027-.058.3809.019.0781.009.166-.03.2636zm36.573 9.4043c.039.0586.088.0781.147.0586.058-.0195.117-.039.176-.0586.273-.0586.449-.0879.527-.0879.078-.0195.166-.039.264-.0586.156-.039.312-.0879.468-.1464.176-.0782.352-.1368.528-.1758.039-.0196.088-.0293.146-.0293.078-.0196.137-.0391.176-.0586.117-.0781.205-.127.264-.1465.078-.0391.136-.0781.175-.1172.196-.1562.323-.2441.381-.2637.059-.0195.108-.0488.147-.0879.273-.0781.429-.1074.469-.0878.156.039.234.166.234.3808-.02.2735-.029.4492-.029.5274.019.0586.029.1367.029.2343.019.1563.029.3028.029.4395v.4101.1758c.02.0586.029.1074.029.1465 0 .0977-.019.2051-.058.3223-.02.1172-.029.2246-.029.3222.019.3125.019.6055 0 .8789-.059.254-.079.42-.059.4981s.029.1465.029.2051c-.019.1367-.039.2539-.058.3515-.196.1953-.342.3028-.44.3223-.097 0-.166.0488-.205.1465-.117.0195-.195.039-.234.0586-.02.0195-.049.039-.088.0586-.137.1172-.244.1758-.322.1758-.059 0-.118.0097-.176.0292l-.352.1465c-.215.0782-.361.1172-.439.1172s-.156.0391-.235.1172c-.078 0-.156.0195-.234.0586-.058.0195-.137.0391-.234.0586-.196.0391-.332.0684-.41.0879-.137.0586-.235.0879-.293.0879-.059 0-.127.0097-.205.0293-.098.0195-.206.0293-.323.0293-.097.0195-.205.039-.322.0586-.293.0586-.498.0781-.615.0586-.117 0-.235.0195-.352.0586-.156 0-.283.0097-.381.0293-.097.0195-.195.0292-.293.0292-.117 0-.234-.0097-.351-.0292-.098-.0196-.205-.0391-.322-.0586-.079.039-.176.0488-.293.0293-.098-.0196-.225-.0489-.381-.0879-.157-.0196-.264-.0391-.323-.0586-.234 0-.39-.0098-.468-.0293-.059-.0196-.127-.0391-.205-.0586-.079-.0196-.147-.0293-.205-.0293-.059 0-.127-.0098-.206-.0293-.136-.0195-.234-.0391-.293-.0586-.058-.0195-.117-.0391-.175-.0586-.235-.0586-.371-.0977-.41-.1172l-.264-.2051c-.156-.039-.313-.0976-.469-.1758-.058-.039-.117-.0683-.176-.0878-.039-.0196-.088-.0586-.146-.1172-.039-.0586-.098-.0977-.176-.1172-.059-.0195-.117-.0488-.176-.0879-.215-.1367-.332-.2149-.351-.2344 0-.0195-.01-.039-.03-.0586-.136-.0586-.214-.0976-.234-.1172 0-.0195-.019-.039-.059-.0586l-.292-.1757c-.118-.1172-.225-.1954-.323-.2344-.039-.0977-.097-.166-.176-.2051-.058-.0586-.107-.1367-.146-.2344-.137-.1172-.234-.1953-.293-.2343-.059-.0391-.107-.0977-.146-.1758-.059-.0391-.108-.0781-.147-.1172-.019-.0586-.049-.1074-.088-.1465-.078-.0586-.127-.166-.146-.3223-.118-.1171-.176-.1953-.176-.2343 0-.0391-.01-.0782-.029-.1172-.118-.1563-.196-.2539-.235-.293-.117-.1367-.176-.2148-.176-.2344 0-.0195-.009-.0488-.029-.0879-.137-.2734-.234-.4394-.293-.498 0-.0977-.01-.166-.029-.2051-.02-.039-.029-.0879-.029-.1465-.098-.1953-.147-.3125-.147-.3515 0-.0586 0-.1075 0-.1465-.059-.1953-.098-.293-.117-.293 0 0 0-.0097 0-.0293-.098-.2929-.156-.4785-.176-.5566-.019-.0977-.049-.1856-.088-.2637-.039-.1953-.068-.3223-.088-.3808 0-.0586-.009-.1368-.029-.2344 0-.1172-.01-.2344-.029-.3516-.02-.1367-.03-.2148-.03-.2344 0-.039 0-.0976 0-.1757.02-.0977.02-.1758 0-.2344-.019-.0586-.048-.1074-.087-.1465-.04-.0586-.059-.1172-.059-.1758.098-.293.146-.4785.146-.5566 0-.0977 0-.2149 0-.3516.04-.1758.049-.3125.03-.4101-.02-.0977-.02-.1954 0-.293 0-.0586 0-.1172 0-.1758 0-.0781.019-.1367.058-.1758-.039-.0781-.048-.1367-.029-.1758.039-.0585.068-.1171.088-.1757 0-.2149 0-.3223 0-.3223.019-.0195.029-.0488.029-.0879.039-.1758.069-.3223.088-.4394.039-.1368.078-.254.117-.3516.059-.1563.088-.2442.088-.2637 0-.039.01-.0781.029-.1172.079-.1172.127-.1953.147-.2343.02-.0391.039-.0782.059-.1172.078-.293.166-.5176.263-.6739.098-.1562.166-.2734.205-.3515s.078-.1367.118-.1758c0-.0781.019-.1367.058-.1758.059-.039.108-.0781.147-.1172.097-.1758.166-.2734.205-.2929.097-.1758.146-.2735.146-.293.176-.1953.283-.3027.322-.3223.039-.0195.079-.0488.118-.0879.136-.1562.195-.2441.175-.2636 0-.0391.01-.0586.03-.0586.058-.0196.097-.0489.117-.0879.039-.0586.078-.1074.117-.1465.176-.1563.273-.2441.293-.2637.02-.0195.049-.039.088-.0586.078-.1367.127-.205.146-.205.039 0 .059-.0196.059-.0586.195-.1368.303-.2149.322-.2344.039-.0196.078-.0488.117-.0879.157-.1172.245-.1758.264-.1758.039-.0195.068-.0391.088-.0586.195-.1172.303-.1953.322-.2344.176-.1367.274-.205.293-.205.039-.0196.059-.0489.059-.0879.234-.1172.371-.1758.41-.1758s.078-.0098.117-.0293c.293-.1172.479-.1953.557-.2344.039-.0195.078-.0293.117-.0293.059-.0195.137-.039.234-.0586.039-.0195.079-.039.118-.0586.058-.0195.127-.039.205-.0586.195-.0586.293-.0878.293-.0878 0-.0196.019-.0293.058-.0293.137-.0391.225-.0684.264-.0879.039-.0196.107-.0293.205-.0293.254-.0196.488-.0196.703 0 .195.0195.332.0195.41 0 .078-.0196.166-.0293.264-.0293.078 0 .195.0195.351.0586h.323c.195.0586.293.0879.293.0879 0-.0196.019-.0293.058-.0293.157.039.244.0586.264.0586.039-.0196.078-.0196.117 0 .078 0 .147.0195.205.0585.078.0391.166.0391.264 0 .215.0977.351.1563.41.1758.078.0196.166.0391.264.0586.195.0781.332.1367.41.1758.098.0195.185.0586.264.1172.117-.0391.224.0098.322.1465.195.1172.303.1758.322.1758.02 0 .039.0097.059.0292.097.0977.175.1661.234.2051.059.0391.107.0879.147.1465.097.1367.156.2149.175.2344.02 0 .039.0098.059.0293.059.0586.117.1172.176.1758.078.0586.136.1269.175.205.157.1563.235.2344.235.2344.078.0781.137.1465.176.2051.058.0391.107.0879.146.1465.156.1562.235.2539.235.2929 0 .0196.009.0489.029.0879.156.2539.244.3907.263.4102.079.1367.147.2344.206.293.039.0586.068.1172.087.1757.02.0586.049.1172.088.1758-.019.0586-.019.1172 0 .1758.039.0586.078.1074.118.1465.039.0781.068.1855.087.3223.02.1171.049.2246.088.3222.039.0586.069.1172.088.1758.02.0391.049.0977.088.1758.039.2344.059.3516.059.3516 0 .0585.009.1171.029.1757.02.0391.039.0879.059.1465.019.1758.019.2637 0 .2637 0 0 .009.0195.029.0586l.088.3222c.039.1563.058.293.058.4102 0 .0586.01.1172.03.1758.019.039.029.0879.029.1465-.039.2343-.059.3906-.059.4687.02.0586.02.1074 0 .1465-.175.1758-.283.2832-.322.3223-.019.039-.049.0683-.088.0879-.156.0781-.244.1269-.263.1464 0 .0196-.01.0391-.03.0586-.215.0977-.351.1465-.41.1465-.039 0-.078.0196-.117.0586-.156.0586-.264.1074-.322.1465-.039.0391-.079.0781-.118.1172-.195.0586-.293.1074-.293.1465-.117.0586-.214.1074-.293.1465-.078.0195-.146.0488-.205.0878-.214.1172-.4.2149-.556.293-.196.1172-.332.1856-.41.2051-.079.0195-.137.0488-.176.0879-.156.0781-.254.1269-.293.1465-.039.0195-.078.0488-.117.0879-.196.1367-.323.2148-.381.2343-.039.0196-.078.0586-.117.1172-.039-.0195-.098-.0097-.176.0293-.078.0391-.147.0781-.205.1172-.235.0977-.391.1563-.469.1758-.059 0-.107.0293-.146.0879-.059 0-.118.0195-.176.0586-.039.0195-.088.039-.147.0586-.058.0195-.127.0293-.205.0293-.058-.0196-.117-.0098-.176.0293-.175.1171-.283.1757-.322.1757-.039.0391-.098.0684-.176.0879-.058.0196-.117.0391-.175.0586-.176.0977-.303.1465-.381.1465-.059 0-.108.0195-.147.0586-.176.0781-.273.127-.293.1465-.156.0976-.263.1465-.322.1465s-.117.0195-.176.0586c-.312.1172-.478.205-.498.2636 0 .2539.02.3907.059.4102.136.1172.224.1855.263.2051.059.0195.118.0488.176.0879.039.0586.078.0879.117.0879.059 0 .118.0195.176.0585.039.0196.078.0489.117.0879.059.0196.118.0391.176.0586.078.0586.186.0879.322.0879.098.0196.176.0391.235.0586.058 0 .127.0098.205.0293.156.0391.273.0586.351.0586.235-.0195.391-.0195.469 0 .098.0195.176.0293.235.0293.097 0 .195-.0098.293-.0293.097-.0391.195-.0586.293-.0586.234.0195.38.0195.439 0 .078-.0195.156-.0293.234-.0293zm-1.172-7.4414c-.039-.0781-.068-.1465-.087-.2051 0-.0586-.03-.0976-.088-.1171-.098-.1954-.157-.3028-.176-.3223 0-.0195-.02-.0391-.059-.0586-.175-.1563-.283-.2539-.322-.293-.195-.1562-.312-.2441-.352-.2637-.273-.1367-.459-.205-.556-.205-.078 0-.186 0-.322 0-.215.0976-.332.1465-.352.1465s-.039.0097-.059.0293c-.214.1171-.341.1855-.38.205-.04 0-.059.0293-.059.0879-.156.0781-.244.127-.264.1465-.019 0-.039 0-.058 0-.117.1563-.196.2637-.235.3223-.019.039-.039.0781-.058.1172-.157.1953-.244.3125-.264.3515-.019.0391-.039.0781-.059.1172-.058.2539-.126.4004-.205.4395-.058.039-.097.1074-.117.205-.117.1563-.176.2539-.176.293.02.0195.02.0391 0 .0586-.058.1953-.107.293-.146.293-.078.3125-.117.4883-.117.5273.039.1563.039.2539 0 .293-.02.039-.01.0683.029.0879.254-.1172.43-.166.527-.1465.196-.0977.323-.1563.381-.1758.059-.0195.108-.0488.147-.0879.215-.1172.332-.1855.351-.2051.157-.0586.264-.0976.323-.1171.058-.0196.107-.0391.146-.0586.234-.0977.381-.1563.439-.1758.079-.0391.137-.0781.176-.1172.157-.0977.264-.1465.323-.1465.058-.0195.117-.0488.175-.0879.118-.0586.186-.0879.205-.0879.039-.0195.079-.039.118-.0586.078-.039.146-.0586.205-.0586.058-.0195.107-.0488.146-.0879.215-.0976.322-.1562.322-.1757.02-.0391.039-.0586.059-.0586.117-.1367.225-.2051.322-.2051.098-.0195.166-.0684.205-.1465zm17.941-2.0801c.175-.1367.273-.1953.293-.1757.019 0 .029-.0098.029-.0293.156-.1368.254-.2247.293-.2637.117-.0586.185-.0977.205-.1172.039-.0195.078-.0391.117-.0586l.41-.293c.078-.039.137-.0879.176-.1464.059-.0782.117-.1563.176-.2344.215-.1172.332-.1856.351-.2051.079-.0781.147-.127.206-.1465.058-.0195.107-.0488.146-.0879.254-.2148.459-.3515.615-.4101.078-.0977.166-.166.264-.2051.098-.0586.185-.1367.264-.2344.136-.039.234-.0879.293-.1465.097-.0781.166-.1269.205-.1465.058-.039.117-.0683.175-.0878.235-.0196.362-.0293.381-.0293.157.0195.264.0293.323.0293.136.1171.214.1757.234.1757.039 0 .078.0196.117.0586.039.0391.088.0782.147.1172.058.0196.107.0488.146.0879l.264.2051c.176.0976.263.1562.263.1758 0 0 .01.0097.03.0293.117.0976.205.166.263.205.059.0391.098.0879.118.1465.136.0586.244.1367.322.2344.098.0781.195.166.293.2637.215.1367.351.2246.41.2636.059.0391.107.0782.146.1172.157.0586.274.1563.352.293s.195.2441.352.3223c.156.1562.234.2343.234.2343.039.0586.078.127.117.2051.059.0781.108.1465.147.2051.156.1758.244.2832.263.3223.02.0195.049.0488.088.0879.098.1171.186.2343.264.3515.078.1563.146.3223.205.4981.078.1757.166.3418.264.498-.039.1563-.03.3223.029.4981l.029.3222c0 .1367.01.2344.03.293.019.0586.029.1074.029.1465.039.0586.039.1172 0 .1758-.02.0586-.029.1269-.029.205.019.2344.019.3907 0 .4688v.1758.1465c.019.0585.019.1269 0 .205-.04.2539-.069.4297-.088.5274 0 .0781.009.1855.029.3222 0 .2149-.02.3711-.059.4688-.019.0781-.029.166-.029.2637.02.2343.029.3808.029.4394.02.0391.03.0781.03.1172l-.03.7031c.02.1953.02.293 0 .293v.0293c.02.1562.02.2441 0 .2637v.0586.1757c.02.0586.03.1172.03.1758v.2637c.019.0195.029.0391.029.0586-.059.1758-.088.2734-.088.293.02.0195.029.0488.029.0878v.2344c.02.0586.03.127.03.2051 0 .0977-.01.1953-.03.293v.2929.3223c.059.293.088.5371.088.7324s.01.3907.03.586v.2929c.019.0196.029.0489.029.0879.019.2149.029.4297.029.6446v.6152c0 .0586.01.1172.029.1758.02.0586.02.1172 0 .1757-.019.0586-.039.1075-.058.1465-.02.0196-.049.0684-.088.1465-.391.1563-.635.2442-.732.2637-.098.0391-.215.0391-.352 0-.098 0-.225-.0098-.381-.0293-.137 0-.254.0098-.351.0293-.215-.0195-.362-.0293-.44-.0293-.059.0195-.127.0293-.205.0293h-.498c-.098 0-.195 0-.293 0-.078.0195-.156.0195-.234 0-.196-.0586-.303-.0879-.323-.0879-.039 0-.088 0-.146 0-.059.0195-.137.0293-.235.0293-.234-.0195-.371-.0195-.41 0-.019.0195-.049.0195-.088 0-.039.0391-.097.0586-.175.0586s-.166 0-.264 0c-.176.0391-.313.0293-.41-.0293-.176-.1563-.303-.2637-.381-.3223 0-.0976-.01-.1953-.029-.2929-.02-.0977-.03-.2051-.03-.3223l.059-.3809.029-.3222c.02-.0391.03-.0879.03-.1465.019-.0586.048-.1367.087-.2344.02-.0586.03-.1074.03-.1465.019-.0586.039-.1367.058-.2344 0-.2343.01-.4003.03-.498.019-.1172.029-.2246.029-.3223-.02-.2539-.01-.4199.029-.498 0-.2149.01-.332.03-.3516-.02-.1953-.02-.3125 0-.3515.019-.0391.029-.0782.029-.1172 0-.2344 0-.3614 0-.3809.019-.0195.029-.039.029-.0586-.039-.2148-.058-.332-.058-.3515.019-.0196.029-.0391.029-.0586 0-.0586-.01-.1172-.029-.1758 0-.0781 0-.166 0-.2637v-.3808c-.02-.2149-.03-.3809-.03-.4981-.039-.2344-.058-.3906-.058-.4687.019-.0782.029-.1465.029-.2051 0-.2735 0-.4785 0-.6153 0-.1562-.02-.2832-.059-.3808.039-.0391.049-.0977.03-.1758 0-.0781 0-.1465 0-.2051.019-.1953.009-.3418-.03-.4394-.019-.1172-.009-.2149.03-.293-.02-.1758-.039-.3027-.059-.3809 0-.0781-.039-.1367-.117-.1757-.176-.1563-.264-.2539-.264-.293-.254-.0195-.469.0195-.644.1172-.137.1758-.215.2637-.235.2637-.136.1953-.244.3222-.322.3808-.059.0586-.117.127-.176.2051-.156.1953-.254.3125-.293.3516-.215.1171-.371.2148-.468.2929-.079.0781-.176.1074-.293.0879-.098 0-.186-.0293-.264-.0879-.059-.0781-.137-.1367-.235-.1758-.039-.0976-.087-.1757-.146-.2343s-.107-.1368-.146-.2344c-.137-.1953-.206-.293-.206-.293.02 0 .02-.0097 0-.0293-.097-.1758-.205-.3418-.322-.498-.039.039-.058.0879-.058.1465v.1757.3516.6445c0 .0977-.01.2051-.03.3223v.3516.7324c.02.2344.03.4785.03.7324.039.0977.058.2051.058.3223v.3222l.029.3223v.2051c.02.039.03.0781.03.1172.019.2148.019.3418 0 .3808-.02.0391-.03.0782-.03.1172 0 .1172.02.2735.059.4688-.019.0781-.029.166-.029.2636.019.0977.029.1856.029.2637.02.0586.02.1172 0 .1758v.1758c.02.1953.039.332.059.4101.019.0586.029.1075.029.1465.039.3516.059.5762.059.6738.019.0586.019.127 0 .2051 0 .0586.009.1172.029.1758.039.1953.049.3027.029.3223v.0879l.088.4394c-.019.1953-.029.3028-.029.3223.019.0195.029.0488.029.0879-.059.2148-.088.3711-.088.4687 0 .0977-.029.166-.088.2051-.195.0195-.342.0293-.439.0293-.098.0195-.186.0488-.264.0879-.332.039-.596.0293-.791-.0293-.195-.0391-.303-.0586-.322-.0586-.02.0195-.049.0293-.088.0293-.078 0-.137-.0098-.176-.0293-.039 0-.097 0-.176 0-.234-.0195-.38-.0293-.439-.0293-.039 0-.088-.0098-.147-.0293-.097 0-.205 0-.322 0-.097-.0195-.195-.0391-.293-.0586-.234-.0586-.449-.0683-.644-.0293-.176.0391-.313.0684-.41.0879-.137 0-.225 0-.264 0-.02-.0195-.049-.0195-.088 0-.059 0-.117.0098-.176.0293-.039 0-.097-.0098-.176-.0293-.156 0-.283.0195-.38.0586-.215-.0781-.332-.1172-.352-.1172 0 0-.01-.0195-.029-.0586-.059-.0976-.108-.166-.147-.2051-.019-.039-.029-.0879-.029-.1464.019-.3125.019-.5372 0-.6739 0-.1562.01-.3027.029-.4394 0-.2344 0-.3809 0-.4395.02-.0781.039-.1465.059-.2051.039-.3515.078-.5761.117-.6738.02-.2539.02-.4199 0-.498-.02-.0782-.02-.1563 0-.2344 0-.2149.01-.332.029-.3516.02-.039.03-.0781.03-.1172l-.03-.3808c0-.1172 0-.2246 0-.3223 0-.0976-.019-.1855-.058-.2637.019-.2148.009-.3613-.03-.4394-.019-.0977-.009-.1563.03-.1758.019-.1758.029-.2734.029-.293 0-.0195-.01-.0488-.029-.0879 0-.0585 0-.1171 0-.1757.019-.0586.029-.1075.029-.1465 0-.0781-.01-.1367-.029-.1758-.02-.0586-.01-.1172.029-.1758 0-.1953 0-.3418 0-.4394 0-.1172 0-.2246 0-.3223s-.01-.1855-.029-.2637c-.02-.0781-.03-.1465-.03-.205.02-.254.01-.42-.029-.4981.02-.0781.029-.1465.029-.2051 0-.0781.01-.1562.03-.2343v-.3516-.6152c0-.1563-.01-.2637-.03-.3223 0-.0781 0-.1465 0-.2051-.039-.1953-.058-.3515-.058-.4687 0-.1368 0-.2539 0-.3516.019-.1562.019-.2539 0-.293-.02-.0586 0-.0781.058-.0586-.019-.3125-.048-.5273-.087-.6445-.02-.1172-.01-.2246.029-.3223-.02-.039-.039-.0878-.059-.1464-.019-.0586-.029-.127-.029-.2051.019-.1758.019-.2832 0-.3223-.02-.039-.029-.0781-.029-.1172 0-.2539 0-.4492 0-.5859-.02-.2149-.03-.3516-.03-.4102.02-.0781.03-.1562.03-.2343v-.4395c-.02-.1562-.03-.2734-.03-.3516-.039-.2343-.058-.3808-.058-.4394s-.01-.1172-.03-.1758l-.029-.4101c-.019-.1758-.019-.3711 0-.586.176-.2148.254-.3223.235-.3223.234-.0976.38-.1464.439-.1464.234.0195.381.0195.439 0 .059-.0196.127-.0391.205-.0586.157 0 .254-.0098.293-.0293.04-.0196.079-.0293.118-.0293.058-.0196.117-.0196.175 0 .079.0195.137.0097.176-.0293.274.0195.469.0293.586.0293s.225-.0196.322-.0586c.059-.0195.137-.0195.235 0 .097.0195.176.0586.234.1172.098-.0391.186-.0489.264-.0293h.234c.215.039.391.0586.528.0586.156-.0196.293-.0098.41.0293.097-.0391.215-.0489.351-.0293.137.0195.254 0 .352-.0586l.351.0879c.196.1953.332.3711.411.5273.078.1367.058.2734-.059.4102-.039.1757-.068.3515-.088.5273-.019.1563-.049.332-.088.5273-.019.2344-.039.3711-.058.4102 0 .0391-.01.0781-.03.1172-.019.0976-.029.1855-.029.2637.02.0781.01.166-.029.2636zm27.022 2.4903c-.215-.0586-.322-.0977-.322-.1172-.059.039-.137.039-.235 0-.078-.0391-.146-.0586-.205-.0586-.156-.0195-.293-.0293-.41-.0293-.098 0-.195 0-.293 0s-.195.0098-.293.0293-.185.0391-.264.0586c-.195.0781-.4.1465-.615.2051-.215.039-.381.0976-.498.1757-.195.1368-.312.2149-.351.2344-.02 0-.049.0196-.088.0586-.098.0586-.166.127-.205.2051s-.108.1367-.205.1758c-.098.2148-.147.3222-.147.3222-.058.1758-.098.3028-.117.3809-.02.0781-.059.1465-.117.2051-.039.0976-.069.2051-.088.3222 0 .1172-.02.2344-.059.3516-.019.0977-.039.2051-.058.3223v.3808c-.02.2344 0 .459.058.6739.039.0781.059.1464.059.205 0 .0391.01.0879.029.1465.059.1758.108.332.147.4688.039.1172.078.2441.117.3808.156.1758.234.2735.234.293s.01.0391.029.0586c.04.0391.079.0879.118.1465.058.0586.107.1269.146.2051.137.1367.225.2246.264.2636.039.0391.078.0782.117.1172.059.0195.107.0684.146.1465.098.0195.186.0488.264.0879.078.0195.186.0488.322.0879.098.039.176.0586.235.0586.058-.0196.117-.0196.176 0 .058 0 .117.0195.175.0586.059.0195.137.0293.235.0293.176-.0196.293-.0391.351-.0586.059-.0196.108-.0293.147-.0293.097-.0391.205-.0684.322-.0879.117-.0196.225-.0391.322-.0586l.323-.0879c.136 0 .224-.0098.263-.0293s.078-.0391.117-.0586c.215-.0195.352-.0488.411-.0879.078-.039.146-.0683.205-.0879.078.0977.127.1563.146.1758.039 0 .078.0098.117.0293.118.3125.166.5371.147.6738 0 .1367.01.2832.029.4395 0 .2734.01.4394.029.498.039.0586.039.1172 0 .1758.039.0391.059.1074.059.2051 0 .0781.01.166.029.2637.098.2734.137.4492.118.5273 0 .0781.009.166.029.2637.019.1953.019.3125 0 .3515v.1172c.019.2149.029.3614.029.4395.02.0781.01.1465-.029.2051.039.1757.039.3418 0 .498.058.1172.068.2441.029.3809-.039.1172-.078.2343-.117.3515-.156.1367-.234.2246-.234.2637 0 .0195-.02.0391-.059.0586-.195.0781-.293.1269-.293.1465-.117.039-.205.0683-.264.0879-.058.039-.127.0781-.205.1172-.254.0586-.41.0976-.469.1171-.078.0196-.166.0196-.263 0-.098 0-.215.0098-.352.0293-.195.0586-.312.0782-.351.0586-.02-.0195-.049-.0097-.088.0293-.215.0196-.332.0293-.352.0293 0 .0196-.019.0293-.058.0293-.118.0196-.205.0196-.264 0-.039-.0195-.088-.0293-.147-.0293-.097-.039-.195-.0488-.292-.0293-.079.0196-.167.0293-.264.0293l-.528-.0293c-.234-.0586-.4-.0976-.498-.1172-.097-.0195-.195-.0293-.293-.0293-.058-.0195-.126-.0292-.205-.0292-.058 0-.107 0-.146 0-.156-.0391-.244-.0586-.264-.0586-.019.0195-.049.0195-.088 0-.156-.0782-.273-.1172-.351-.1172-.059-.0586-.117-.0879-.176-.0879-.059.0195-.117.0097-.176-.0293-.176-.0586-.273-.0977-.293-.1172-.019 0-.049 0-.088 0-.175-.1172-.293-.1758-.351-.1758-.059-.0195-.127-.039-.205-.0586-.293-.1562-.479-.2637-.557-.3222-.059-.0782-.137-.1465-.234-.2051-.059-.0196-.108-.0391-.147-.0586-.039-.0391-.097-.0684-.176-.0879l-.234-.2344c-.098-.1172-.166-.1855-.205-.2051-.02-.0195-.049-.0488-.088-.0879-.117-.0781-.225-.1464-.322-.205-.078-.0782-.166-.1368-.264-.1758-.039-.1953-.127-.3418-.264-.4395-.097-.1172-.166-.1855-.205-.205-.019-.0391-.029-.0782-.029-.1172-.176-.1563-.264-.2442-.264-.2637-.058-.1367-.127-.2246-.205-.2637-.058-.0586-.107-.1367-.146-.2343-.039-.0586-.068-.1172-.088-.1758 0-.0782-.02-.1563-.059-.2344-.156-.1953-.234-.293-.234-.293-.117-.1758-.176-.2636-.176-.2636 0-.0196-.01-.0391-.029-.0586-.078-.1172-.117-.1954-.117-.2344 0-.0391-.01-.0781-.03-.1172-.097-.1953-.156-.3027-.175-.3223 0-.039-.01-.0781-.03-.1172-.078-.332-.127-.5371-.146-.6152-.02-.0781-.039-.1465-.059-.2051 0-.0781-.029-.1562-.088-.2343l-.029-.3809c-.058-.1758-.098-.2832-.117-.3223-.02-.0586-.039-.1074-.059-.1465.059-.1367.059-.2441 0-.3222-.058-.0977-.078-.2149-.058-.3516 0-.2148-.01-.3222-.03-.3222 0-.0196 0-.0489 0-.0879l-.029-.3516c0-.0586 0-.1172 0-.1758.02-.0586.029-.1172.029-.1758.02-.1171.03-.2246.03-.3222 0-.1172.01-.2344.029-.3516 0-.0586 0-.1172 0-.1758.02-.0586.029-.1074.029-.1465.078-.2539.108-.4101.088-.4687-.019-.0586-.029-.1074-.029-.1465 0-.0976.019-.1855.059-.2637.039-.0781.078-.1562.117-.2343.039-.0977.068-.2051.088-.3223.019-.1367.048-.2832.087-.4395.04-.0976.069-.1855.088-.2636.039-.0977.079-.1856.118-.2637.039-.1172.058-.1855.058-.2051.02-.039.039-.0781.059-.1172.039-.0781.078-.1562.117-.2343.039-.0782.078-.1563.117-.2344.078-.1953.147-.3223.205-.3809.137-.2148.196-.332.176-.3515 0-.0196.01-.0391.029-.0586.039-.0391.078-.0782.117-.1172.04-.0391.079-.0781.118-.1172.156-.2149.254-.3516.293-.4102s.078-.1074.117-.1464c.078-.1368.127-.2051.146-.2051.02-.0196.039-.0391.059-.0586l.264-.2637c.097-.1172.166-.2051.205-.2637.058-.0195.107-.0488.146-.0879.039-.039.078-.0781.117-.1171l.323-.293c.136-.1172.205-.1758.205-.1758 0-.0195.009-.0391.029-.0586.137-.1367.244-.2246.322-.2637.117-.0976.235-.166.352-.205.195-.1368.293-.1953.293-.1758s.01.0195.029 0c.156-.1172.322-.2149.498-.293s.352-.166.527-.2637c.118-.0586.206-.0878.264-.0878.059 0 .108-.0098.147-.0293.234-.0782.38-.1172.439-.1172.059-.0196.117-.0391.176-.0586.215-.0586.342-.0879.381-.0879.039-.0195.097-.0488.175-.0879l.352-.0586c.195-.0195.293-.0391.293-.0586.02-.0195.039-.0293.059-.0293.234-.0586.41-.0879.527-.0879.176-.0195.273-.0195.293 0 .039.0195.078.0293.117.0293.176-.0195.283-.0293.322-.0293.039-.0195.078-.0293.118-.0293l.41.0586c.293.0391.498.0586.615.0586.137-.0195.254-.0195.352 0 .273.0781.449.1074.527.0879s.146-.0195.205 0c.078.0391.137.0781.176.1172.058.0391.127.0781.205.1172.039.0195.088.039.146.0586.059 0 .117.0195.176.0586.234.1171.361.1953.381.2343.039.0196.078.0489.117.0879.195 0 .322.0586.381.1758l.176.6152c-.02.1563-.059.3223-.117.4981-.059.1562-.118.3125-.176.4687-.039.0977-.088.1954-.147.293-.039.0781-.078.1758-.117.293-.058.1562-.107.2637-.146.3222-.039.0586-.069.127-.088.2051-.02.0586-.03.127-.03.2051s-.019.1465-.058.2051c-.137.2344-.244.4101-.322.5273-.059.1172-.098.2442-.118.3809-.078.0586-.136.1465-.175.2637-.02.0976-.059.1953-.118.2929-.039.0391-.078.0879-.117.1465-.019.0391-.029.0977-.029.1758-.059.0195-.107.0488-.147.0879-.019.0195-.068.039-.146.0586zm18.614 7.0312c.039.0586.088.0781.146.0586.059-.0195.118-.039.176-.0586.274-.0586.449-.0879.528-.0879.078-.0195.166-.039.263-.0586.157-.039.313-.0879.469-.1464.176-.0782.352-.1368.527-.1758.039-.0196.088-.0293.147-.0293.078-.0196.137-.0391.176-.0586.117-.0781.205-.127.263-.1465.078-.0391.137-.0781.176-.1172.195-.1562.322-.2441.381-.2637.059-.0195.107-.0488.146-.0879.274-.0781.43-.1074.469-.0878.156.039.235.166.235.3808-.02.2735-.03.4492-.03.5274.02.0586.03.1367.03.2343.019.1563.029.3028.029.4395v.4101.1758c.019.0586.029.1074.029.1465 0 .0977-.019.2051-.058.3223-.02.1172-.03.2246-.03.3222.02.3125.02.6055 0 .8789-.058.254-.078.42-.058.4981.019.0781.029.1465.029.2051-.02.1367-.039.2539-.059.3515-.195.1953-.341.3028-.439.3223-.098 0-.166.0488-.205.1465-.117.0195-.195.039-.235.0586-.019.0195-.048.039-.087.0586-.137.1172-.245.1758-.323.1758-.058 0-.117.0097-.175.0292l-.352.1465c-.215.0782-.361.1172-.439.1172-.079 0-.157.0391-.235.1172-.078 0-.156.0195-.234.0586-.059.0195-.137.0391-.235.0586-.195.0391-.332.0684-.41.0879-.136.0586-.234.0879-.293.0879-.058 0-.127.0097-.205.0293-.097.0195-.205.0293-.322.0293-.098.0195-.205.039-.322.0586-.293.0586-.498.0781-.616.0586-.117 0-.234.0195-.351.0586-.156 0-.283.0097-.381.0293-.098.0195-.195.0292-.293.0292-.117 0-.234-.0097-.352-.0292-.097-.0196-.205-.0391-.322-.0586-.078.039-.176.0488-.293.0293-.097-.0196-.224-.0489-.381-.0879-.156-.0196-.263-.0391-.322-.0586-.234 0-.391-.0098-.469-.0293-.058-.0196-.127-.0391-.205-.0586-.078-.0196-.146-.0293-.205-.0293-.058 0-.127-.0098-.205-.0293-.137-.0195-.234-.0391-.293-.0586-.058-.0195-.117-.0391-.176-.0586-.234-.0586-.371-.0977-.41-.1172l-.263-.2051c-.157-.039-.313-.0976-.469-.1758-.059-.039-.117-.0683-.176-.0878-.039-.0196-.088-.0586-.146-.1172-.04-.0586-.098-.0977-.176-.1172-.059-.0195-.117-.0488-.176-.0879-.215-.1367-.332-.2149-.352-.2344 0-.0195-.009-.039-.029-.0586-.137-.0586-.215-.0976-.234-.1172 0-.0195-.02-.039-.059-.0586l-.293-.1757c-.117-.1172-.224-.1954-.322-.2344-.039-.0977-.098-.166-.176-.2051-.058-.0586-.107-.1367-.146-.2344-.137-.1172-.235-.1953-.293-.2343-.059-.0391-.108-.0977-.147-.1758-.058-.0391-.107-.0781-.146-.1172-.02-.0586-.049-.1074-.088-.1465-.078-.0586-.127-.166-.147-.3223-.117-.1171-.175-.1953-.175-.2343 0-.0391-.01-.0782-.03-.1172-.117-.1563-.195-.2539-.234-.293-.117-.1367-.176-.2148-.176-.2344 0-.0195-.01-.0488-.029-.0879-.137-.2734-.235-.4394-.293-.498 0-.0977-.01-.166-.029-.2051-.02-.039-.03-.0879-.03-.1465-.097-.1953-.146-.3125-.146-.3515 0-.0586 0-.1075 0-.1465-.059-.1953-.098-.293-.117-.293 0 0 0-.0097 0-.0293-.098-.2929-.157-.4785-.176-.5566-.02-.0977-.049-.1856-.088-.2637-.039-.1953-.068-.3223-.088-.3808 0-.0586-.01-.1368-.029-.2344 0-.1172-.01-.2344-.03-.3516-.019-.1367-.029-.2148-.029-.2344 0-.039 0-.0976 0-.1757.02-.0977.02-.1758 0-.2344-.019-.0586-.049-.1074-.088-.1465-.039-.0586-.058-.1172-.058-.1758.097-.293.146-.4785.146-.5566 0-.0977 0-.2149 0-.3516.039-.1758.049-.3125.029-.4101-.019-.0977-.019-.1954 0-.293 0-.0586 0-.1172 0-.1758 0-.0781.02-.1367.059-.1758-.039-.0781-.049-.1367-.029-.1758.039-.0585.068-.1171.088-.1757 0-.2149 0-.3223 0-.3223.019-.0195.029-.0488.029-.0879.039-.1758.068-.3223.088-.4394.039-.1368.078-.254.117-.3516.059-.1563.088-.2442.088-.2637 0-.039.01-.0781.029-.1172.078-.1172.127-.1953.147-.2343.019-.0391.039-.0782.058-.1172.078-.293.166-.5176.264-.6739.098-.1562.166-.2734.205-.3515s.078-.1367.117-.1758c0-.0781.02-.1367.059-.1758.058-.039.107-.0781.146-.1172.098-.1758.166-.2734.205-.2929.098-.1758.147-.2735.147-.293.176-.1953.283-.3027.322-.3223.039-.0195.078-.0488.117-.0879.137-.1562.196-.2441.176-.2636 0-.0391.01-.0586.029-.0586.059-.0196.098-.0489.118-.0879.039-.0586.078-.1074.117-.1465.176-.1563.273-.2441.293-.2637.019-.0195.049-.039.088-.0586.078-.1367.127-.205.146-.205.039 0 .059-.0196.059-.0586.195-.1368.302-.2149.322-.2344.039-.0196.078-.0488.117-.0879.156-.1172.244-.1758.264-.1758.039-.0195.068-.0391.088-.0586.195-.1172.302-.1953.322-.2344.176-.1367.273-.205.293-.205.039-.0196.059-.0489.059-.0879.234-.1172.371-.1758.41-.1758s.078-.0098.117-.0293c.293-.1172.478-.1953.556-.2344.04-.0195.079-.0293.118-.0293.058-.0195.136-.039.234-.0586.039-.0195.078-.039.117-.0586.059-.0195.127-.039.205-.0586.196-.0586.293-.0878.293-.0878 0-.0196.02-.0293.059-.0293.137-.0391.224-.0684.264-.0879.039-.0196.107-.0293.205-.0293.254-.0196.488-.0196.703 0 .195.0195.332.0195.41 0 .078-.0196.166-.0293.264-.0293.078 0 .195.0195.351.0586h.322c.196.0586.293.0879.293.0879 0-.0196.02-.0293.059-.0293.156.039.244.0586.264.0586.039-.0196.078-.0196.117 0 .078 0 .146.0195.205.0585.078.0391.166.0391.264 0 .214.0977.351.1563.41.1758.078.0196.166.0391.263.0586.196.0781.332.1367.411.1758.097.0195.185.0586.263.1172.117-.0391.225.0098.323.1465.195.1172.302.1758.322.1758.019 0 .039.0097.058.0292.098.0977.176.1661.235.2051.058.0391.107.0879.146.1465.098.1367.156.2149.176.2344.02 0 .039.0098.059.0293.058.0586.117.1172.175.1758.079.0586.137.1269.176.205.156.1563.235.2344.235.2344.078.0781.136.1465.175.2051.059.0391.108.0879.147.1465.156.1562.234.2539.234.2929 0 .0196.01.0489.029.0879.157.2539.245.3907.264.4102.078.1367.147.2344.205.293.039.0586.069.1172.088.1757.02.0586.049.1172.088.1758-.02.0586-.02.1172 0 .1758.039.0586.078.1074.117.1465.039.0781.069.1855.088.3223.02.1171.049.2246.088.3222.039.0586.068.1172.088.1758.019.0391.049.0977.088.1758.039.2344.058.3516.058.3516 0 .0585.01.1171.03.1757.019.0391.039.0879.058.1465.02.1758.02.2637 0 .2637 0 0 .01.0195.03.0586l.087.3222c.039.1563.059.293.059.4102 0 .0586.01.1172.029.1758.02.039.03.0879.03.1465-.039.2343-.059.3906-.059.4687.02.0586.02.1074 0 .1465-.176.1758-.283.2832-.322.3223-.02.039-.049.0683-.088.0879-.156.0781-.244.1269-.264.1464 0 .0196-.01.0391-.029.0586-.215.0977-.352.1465-.41.1465-.039 0-.078.0196-.117.0586-.157.0586-.264.1074-.323.1465-.039.0391-.078.0781-.117.1172-.195.0586-.293.1074-.293.1465-.117.0586-.215.1074-.293.1465-.078.0195-.146.0488-.205.0878-.215.1172-.4.2149-.557.293-.195.1172-.332.1856-.41.2051s-.136.0488-.175.0879c-.157.0781-.254.1269-.293.1465-.04.0195-.079.0488-.118.0879-.195.1367-.322.2148-.381.2343-.039.0196-.078.0586-.117.1172-.039-.0195-.097-.0097-.175.0293-.079.0391-.147.0781-.206.1172-.234.0977-.39.1563-.468.1758-.059 0-.108.0293-.147.0879-.058 0-.117.0195-.176.0586-.039.0195-.087.039-.146.0586-.059.0195-.127.0293-.205.0293-.059-.0196-.117-.0098-.176.0293-.176.1171-.283.1757-.322.1757-.039.0391-.098.0684-.176.0879-.059.0196-.117.0391-.176.0586-.176.0977-.302.1465-.381.1465-.058 0-.107.0195-.146.0586-.176.0781-.274.127-.293.1465-.156.0976-.264.1465-.322.1465-.059 0-.118.0195-.176.0586-.313.1172-.479.205-.498.2636 0 .2539.019.3907.058.4102.137.1172.225.1855.264.2051.059.0195.117.0488.176.0879.039.0586.078.0879.117.0879.059 0 .117.0195.176.0585.039.0196.078.0489.117.0879.059.0196.117.0391.176.0586.078.0586.185.0879.322.0879.098.0196.176.0391.234.0586.059 0 .127.0098.206.0293.156.0391.273.0586.351.0586.234-.0195.391-.0195.469 0 .098.0195.176.0293.234.0293.098 0 .196-.0098.293-.0293.098-.0391.196-.0586.293-.0586.235.0195.381.0195.44 0 .078-.0195.156-.0293.234-.0293zm-1.172-7.4414c-.039-.0781-.068-.1465-.088-.2051 0-.0586-.029-.0976-.088-.1171-.097-.1954-.156-.3028-.175-.3223 0-.0195-.02-.0391-.059-.0586-.176-.1563-.283-.2539-.322-.293-.196-.1562-.313-.2441-.352-.2637-.273-.1367-.459-.205-.556-.205-.079 0-.186 0-.323 0-.215.0976-.332.1465-.351.1465-.02 0-.039.0097-.059.0293-.215.1171-.342.1855-.381.205-.039 0-.058.0293-.058.0879-.157.0781-.245.127-.264.1465-.02 0-.039 0-.059 0-.117.1563-.195.2637-.234.3223-.02.039-.039.0781-.059.1172-.156.1953-.244.3125-.263.3515-.02.0391-.039.0781-.059.1172-.058.2539-.127.4004-.205.4395-.059.039-.098.1074-.117.205-.117.1563-.176.2539-.176.293.02.0195.02.0391 0 .0586-.059.1953-.107.293-.146.293-.079.3125-.118.4883-.118.5273.039.1563.039.2539 0 .293-.019.039-.009.0683.03.0879.254-.1172.429-.166.527-.1465.195-.0977.322-.1563.381-.1758s.107-.0488.146-.0879c.215-.1172.332-.1855.352-.2051.156-.0586.264-.0976.322-.1171.059-.0196.108-.0391.147-.0586.234-.0977.381-.1563.439-.1758.078-.0391.137-.0781.176-.1172.156-.0977.264-.1465.322-.1465.059-.0195.117-.0488.176-.0879.117-.0586.186-.0879.205-.0879.039-.0195.078-.039.117-.0586.078-.039.147-.0586.205-.0586.059-.0195.108-.0488.147-.0879.215-.0976.322-.1562.322-.1757.02-.0391.039-.0586.059-.0586.117-.1367.224-.2051.322-.2051.098-.0195.166-.0684.205-.1465zm18.058-2.9004c.214 0 .361-.039.439-.1172.156-.1172.254-.1855.293-.205.039-.0196.078-.0489.117-.0879.195-.1758.332-.3223.41-.4395.157-.1562.235-.2441.235-.2637.136-.1367.224-.2246.263-.2636.039-.0391.079-.0782.118-.1172.136-.0586.234-.1172.293-.1758.078-.0781.156-.1367.234-.1758.137-.0586.234-.1074.293-.1465.215-.0781.322-.1172.322-.1172.02-.0195.039-.0292.059-.0292.039-.0391.078-.0684.117-.0879.039-.0391.088-.0782.146-.1172.118-.0196.225-.0586.323-.1172.215-.0781.381-.1172.498-.1172.234-.0977.361-.1465.381-.1465.078-.039.146-.0488.205-.0293.058 0 .107-.0097.146-.0293.195.0196.313.0293.352.0293h.498c.097-.0195.176-.0195.234 0 .117.0195.215.0684.293.1465s.176.1172.293.1172c.039.0586.078.1074.117.1465.039.039.069.0976.088.1758.156.1367.225.205.205.205 0 0 .01.0098.03.0293.078.2149.117.3321.117.3516.039.2148.039.4199 0 .6152-.02.1172-.03.3125-.03.586.02.2734-.019.459-.117.5566.039.1953.039.4004 0 .6152 0 .0977-.01.1954-.029.293-.02.0781-.029.166-.029.2637v.3515c.019.1172.029.2344.029.3516 0 .0781-.01.1563-.029.2344-.02.0781-.039.1465-.059.2051-.039.1953-.068.332-.088.4101 0 .0586-.01.1172-.029.1758-.098.2734-.166.4394-.205.498-.059.0586-.117.0879-.176.0879-.039 0-.088.0098-.146.0293-.215.0782-.342.1075-.381.0879-.02-.0195-.059-.0488-.118-.0879-.058.0196-.117.0196-.175 0-.059-.039-.118-.0586-.176-.0586-.352.0196-.567.0391-.645.0586h-.322c-.176.0586-.293.1075-.351.1465-.059.0195-.108.0488-.147.0879-.215.0391-.342.0781-.381.1172-.137.0195-.234.0391-.293.0586-.039.0195-.078.039-.117.0586-.215.039-.352.0586-.41.0586-.137.0586-.244.1269-.322.2051-.215.0781-.342.1367-.381.1757-.039.0391-.088.0684-.147.0879-.039.0586-.088.1074-.146.1465-.039.0195-.078.0488-.117.0879-.118.0781-.205.1465-.264.2051-.137.0976-.234.1855-.293.2636-.059.0586-.117.1075-.176.1465-.039.0391-.088.0782-.146.1172-.039.0391-.078.0781-.117.1172-.02.0781-.049.1367-.088.1758s-.079.0781-.118.1172c-.097.2344-.166.3906-.205.4687-.039.0586-.058.1367-.058.2344-.078.0781-.137.1758-.176.293-.02.0976-.049.2148-.088.3515-.019.0977-.039.2051-.059.3223-.019.0977-.029.1953-.029.293.039.2539.039.4199 0 .498-.019.1953-.029.3125-.029.3516.019.039.029.0781.029.1172-.019.2148-.029.3613-.029.4394.019.0586.029.127.029.2051-.039.2734-.068.4492-.088.5273 0 .0586-.009.1172-.029.1758v.1465c.02.293.02.4981 0 .6152-.02.0977-.029.2051-.029.3223v.2637c.019.0781.029.166.029.2637 0 .4687.039.83.117 1.0839.02.1563.039.2637.059.3223.019.0586.029.1172.029.1758.039.1562.059.293.059.4101 0 .1172-.01.1953-.03.2344-.019.1367-.029.2442-.029.3223-.098.1758-.146.2832-.146.3222 0 .0391-.01.0782-.03.1172-.039.0586-.097.1172-.175.1758-.079.0391-.137.0879-.176.1465-.137-.0195-.293 0-.469.0586-.137.0391-.234.0488-.293.0293-.059 0-.117.0098-.176.0293-.058 0-.117 0-.176 0-.058.0195-.107.0293-.146.0293-.234.0195-.361.0195-.381 0 0 0-.01 0-.029 0-.215 0-.342-.0098-.381-.0293-.02 0-.039 0-.059 0l-.791.1172c-.293.0195-.498.0293-.615.0293-.098.0195-.195.0097-.293-.0293-.273-.0391-.469-.0782-.586-.1172-.097-.0391-.195-.0586-.293-.0586-.136-.1172-.244-.2051-.322-.2637-.078-.0781-.156-.1465-.234-.2051-.059-.1953-.098-.3125-.118-.3515 0-.0391-.009-.0781-.029-.1172-.078-.2734-.117-.4199-.117-.4395 0-.2539 0-.4589 0-.6152.019-.1758.039-.3223.059-.4395.019-.0781.029-.2246.029-.4394.039-.2148.058-.332.058-.3516 0-.0976 0-.1855 0-.2636 0-.0782.01-.1368.03-.1758.039-.2735.058-.4297.058-.4688-.019-.1562-.029-.2441-.029-.2636.02-.0391.029-.0782.029-.1172 0-.0977-.009-.2149-.029-.3516 0-.1367 0-.2734 0-.4101.039-.2344.049-.3614.029-.3809 0-.0195.01-.0488.03-.0879 0-.0977.009-.1855.029-.2637.019-.0781.01-.1562-.029-.2343 0-.2149 0-.3321 0-.3516.019-.0391.029-.0781.029-.1172 0-.1562 0-.293 0-.4101.019-.1368.019-.2833 0-.4395 0-.0586-.01-.1172-.029-.1758 0-.0781 0-.1562 0-.2344 0-.1757.009-.332.029-.4687.019-.1563.019-.3125 0-.4688-.02-.2539-.039-.4589-.059-.6152 0-.1562.01-.3125.03-.4687-.02-.1954-.03-.3028-.03-.3223-.039-.1367-.058-.2344-.058-.293.019-.0781.019-.166 0-.2636 0-.1758-.02-.2735-.059-.293-.019-.0391-.029-.0781-.029-.1172.019-.1758.019-.3027 0-.3809-.02-.0781-.029-.1562-.029-.2343.019-.0782.029-.1368.029-.1758.019-.0586.029-.1172.029-.1758-.019-.1758-.029-.2734-.029-.293.019-.0195.029-.039.029-.0586l-.029-.7324c0-.1367 0-.2441 0-.3223 0-.0976-.02-.1953-.059-.2929-.019-.0977-.019-.2149 0-.3516.02-.1562.02-.2539 0-.293-.019-.0585-.029-.1269-.029-.205.019-.0977.019-.1953 0-.293-.02-.0977-.029-.1855-.029-.2637 0-.0586 0-.1172 0-.1758.019-.0781.029-.1464.029-.205 0-.0977-.02-.1953-.059-.293-.019-.0977-.029-.1953-.029-.293.078-.2929.127-.4687.147-.5273.019-.0781.058-.1563.117-.2344.175-.1562.263-.2441.263-.2637 0-.0195.01-.0293.03-.0293.156-.0195.263-.0195.322 0 .059 0 .098-.0195.117-.0586.059.0391.117.0489.176.0293.078-.0195.146-.0293.205-.0293.312-.0585.664-.0585 1.055 0 .215.0391.332.0586.351.0586.02-.0195.039-.0293.059-.0293h.351c.059-.0195.118-.0293.176-.0293.137-.0195.225-.0195.264 0 .058 0 .127-.0097.205-.0292.234-.0391.371-.0489.41-.0293.039 0 .088-.0098.147-.0293.039 0 .097.0097.175.0293.078 0 .147-.0196.205-.0586.157.0195.293.039.411.0586.117 0 .263.0097.439.0293.137.1367.234.205.293.205.059.0586.098.166.117.3223.059.1758.078.2832.059.3223 0 .039.01.0781.029.1172 0 .0976.02.2148.059.3515s.058.2735.058.4102v.3222z" fill="#693821"/></svg>