<svg fill="none" height="299" viewBox="0 0 292 299" width="292" xmlns="http://www.w3.org/2000/svg" xmlns:xlink="http://www.w3.org/1999/xlink"><linearGradient id="a"><stop offset="0" stop-color="#cf5c2b"/><stop offset="1" stop-color="#59173e"/></linearGradient><linearGradient id="b" gradientUnits="userSpaceOnUse" x1="218.526" x2="112.499" xlink:href="#a" y1="-147.998" y2="77.0875"/><linearGradient id="c" gradientUnits="userSpaceOnUse" x1="211.588" x2="-100.079" xlink:href="#a" y1="-53.428" y2="449.837"/><linearGradient id="d" gradientUnits="userSpaceOnUse" x1="198.791" x2="-112.876" xlink:href="#a" y1="-18.5732" y2="484.692"/><linearGradient id="e" gradientUnits="userSpaceOnUse" x1="246.513" x2="-14.5798" xlink:href="#a" y1="-195.164" y2="306.798"/><linearGradient id="f" gradientUnits="userSpaceOnUse" x1="215.524" x2="-45.5685" xlink:href="#a" y1="-81.2709" y2="420.692"/><linearGradient id="g" gradientUnits="userSpaceOnUse" x1="284.694" x2="24.2259" xlink:href="#a" y1="-331.534" y2="148.739"/><path d="m291.991 275.395c-.074-2.013-.136-4.008-.21-6.02-.111-3.337-.222-6.674-.334-9.994-.025-.808-.049-1.599-.074-2.408-.099-3.061.186-6.226-.952-9.012-.31-.74-.78-1.497-1.386-1.48.767-.361 1.188-1.513 1.386-2.597.272-1.531.408-3.509.42-5.091.012-1.428-.074-2.89-.111-4.317-.037-1.652-.087-3.286-.124-4.937-.087-3.302-.161-6.588-.235-9.89-.074-3.285-.148-6.57-.21-9.856-.013-.602-.025-1.204-.037-1.806-.037-1.685-.062-3.354-.062-5.039 0-1.29-.272-2.512-.878-3.509-.532-.877-1.374-1.479-2.19-1.29.656-.207 1.311-.585 1.794-1.239 1.274-1.771 1.051-4.454 1.026-6.725-.049-3.251-.086-6.519-.136-9.77-.037-3.25-.074-6.484-.099-9.735-.024-3.234-.049-6.467-.074-9.701-.025-3.216-.037-6.45-.049-9.666-.013-3.217-.025-6.433-.025-9.632 0-5.023.012-10.045.074-15.085.025-1.995.186-3.767-.804-5.349-.148-.241-.309-.447-.482-.637-.075-.086-.446-.533-.545-.481.693-.327 1.25-1.101 1.547-2.013.148-.447.247-.946.259-1.462.037-1.221.062-2.459.075-3.698.037-4.007.086-8.187.16-12.263.038-2.1677.087-4.3349.136-6.5021.05-1.9781-.568-3.6981-1.224-5.4353.594-.2752 1.002-1.0664 1.163-1.892.16-.8084.074-1.5652.099-2.3908.099-3.0961.136-6.2093.21-9.3226.037-1.5652.062-3.1304.099-4.6956.012-.3784 0-.7568.037-1.1352.025-.2236.087-.43.087-.6708-.025-.7396-.211-1.5652-.421-2.236-.26-.8256-.68-1.5825-1.262-1.9609.074-.258.285-.3612.458-.4644.779-.4644 1.323-1.5996 1.373-2.7692.012-.2924-.025-.5676-.037-.8428-.025-.9288.049-1.892.086-2.8208.025-.9977.05-1.9953.087-2.9929.124-4.1452.247-8.2905.384-12.4357.272-8.1357.581-16.2886.927-24.4243.223-5.1256-2.536-9.58048-6.222-9.99328-91.919-10.42331-184.048-10.14811-276.37513.0516-.4453.0516-.87824.1548-1.31118.3268-1.15038.44721-2.13995 1.41042-3.11716 2.33918-.51952.4989-.89061 1.4277-1.24933 2.1329-.43294.8428-.85351 1.72-1.26171 2.5972-1.22459 2.6832-2.4739303 5.5729-2.37497298 8.8753.13606598 4.0592.25976298 8.1185.37108998 12.1777.061848 2.0812.123697 4.1797.173175 6.2609.02474 1.1008.061848 2.2016.086588 3.3024.024739.8084-.01237 1.6512.074218 2.4597.074218.7052-.037109 1.4792-.049479 2.2016 0 .8428.037109 1.7028.111327 2.5456.049479.4472.111327.9116.272134 1.3244.51952 1.29 1.81834 1.4276 2.64711 2.3564-.80403.1548-1.59569.4645-2.33787.9117-.11133.0688-.22265.1376-.2845.2752-.098959.172-.098959.4128-.098959.6364.012369 2.2188.012369 4.4376.024739 6.6564 0 .9289-.086587 1.9437.11133 2.8381.18554.8944.09895 1.9952.12369 2.924.08659 4.3345.16081 8.6689.23503 13.0033.04948 2.6661.08658 5.3149.12369 7.9809.01237 1.2556.06185 2.5113.06185 3.7669 0 .2064-.02474.3268-.06185.5332-.18554.9116.04948 1.892.39583 2.666.75455 1.6509 2.10285 2.7519 3.51299 2.8549-.68033.344-1.36067.671-2.041 1.015-.47004.241-.9772.499-1.23696 1.101-.14844.327-.19792.722-.23503 1.118-.53189 5.177-.30924 10.44-.1608 15.652.14843 5.195.14843 10.389.17317 15.584.01237 4.368.02474 8.754.02474 13.123 0 4.386 0 8.772-.01237 13.158-.01237 3.148-.06185 6.313-.03711 9.46 0 .482.07422.878 0 1.342-.21028 1.204-.24739 2.46.07422 3.629.37109 1.359 1.24934 2.494 2.28839 2.718-.65559.224-1.37303.499-1.76886 1.256-.27214.516-.34635 1.169-.39583 1.806-.08659 1.066-.1237 2.132-.13607 3.216 0 .912.13607 1.909-.01237 2.804-.30924 1.857-.21028 3.818-.22265 5.71-.02474 2.546-.06185 5.109-.08659 7.654-.04948 4.421-.11133 8.841-.18554 13.244-.06185 4.421-.14844 8.841-.22266 13.279 0 .98-.03711 1.978-.04948 2.976-.01237.774.07422 1.72-.04948 2.459-.04947.31-.13606.585-.17317.912-.086589.791-.123698 1.634.09896 2.391.25976.877.87824 1.548 1.55857 1.685-.61848-.189-1.16274.671-1.28644 1.531-.11133.757-.04948 1.548-.17318 2.305-.04947.309-.07421.636-.11132.963-.06185.636-.11133 1.256-.160809 1.892-.086587 1.273-.123697 2.546-.123697 3.801 0 .224 0 .448.074218.637.061849.189.173178.327.296868.447.80403.894 1.7565 1.531 2.75844 1.858-.79166.361-1.58332.722-2.37498 1.083-.18554.086-.38346.172-.51952.361-.259765.344-.284504.912-.284504 1.411-.01237 1.101-.01237 2.219-.024739 3.319 0 .396-.098958.757-.111327 1.153-.02474.55-.02474 1.118-.03711 1.668-.061848 2.219-.111326 4.438-.173175 6.657 0 .155-.012369.309-.012369.464-.123697 4.455-.247394 8.91-.38346 13.365-.148436 5.091 2.622364 9.46 6.271424 9.838 93.41565 9.615 185.55695 9.701 276.39995.035 1.485-.155 2.919-1.015 4.02-2.408.235-.293.532-.568.743-.895 1.348-2.029 2.993-5.212 3.735-7.809.433-1.754.854-3.388.779-5.28z" fill="url(#b)"/><path d="m285.744 285.303c-90.843 9.684-182.984 9.598-276.39983-.017-3.66142-.378-6.43222-4.747-6.28379-9.838.03711-1.136.04948-2.271.06185-3.406.02474-.929-.04948-1.944.07422-2.855.04948-.327.1608-.602.19791-.929.03711-.31.06185-.637.07422-.963.06185-.792.09896-1.566.14844-2.357.14843-2.219.30924-4.437.45767-6.656.01237-.207.02474-.413.03711-.602.02474-.344.06185-.723.21029-.998.13606-.258.34635-.378.569-.481 2.59763-1.428 5.47981-2.322 8.28771-2.288 3.0676.017 5.9621-.464 8.9927-1.066 1.2246-.241 2.4492-.465 3.6614-.706h-1.2369c-2.7337-.017-5.4922-.154-8.2135-.464-1.5709-.172-3.1419-.396-4.7128-.671-.8164-.12-4.68813-.309-6.53121-1.238-.59375-.293-.98958-.654-1.00195-1.136-.04948-1.754-.04948-3.508.02474-5.28.02474-.654-.09896-2.064.1237-2.632.30924-.756.14843-.361.75455-.705.61848-.361 1.12564-.791 1.80597-.98.6927-.189 1.39777-.275 2.11521-.379 2.52339-.361 5.04679-.705 7.58259-1.049-.6432-.051-1.2864-.103-1.9297-.172-2.9563-.241-5.92502-.499-8.869-.757-.47005-.051-.9401-.086-1.41014-.12-.19792-.017-.42057-.069-.50716-.292-.03711-.104-.03711-.258-.03711-.379.08659-2.683.18555-5.384.27213-8.067.21029-6.605.42057-13.227.51953-19.849.03711-.911.04948-1.806.06185-2.7.07422-5.642-.18555-11.37.33398-16.96.04948-.516.33398-6.14.32161-6.14 9.17831-.929 18.39371-1.393 27.60911-1.376.7298 0 1.472 0 2.2018.017-.235-.034-.4824-.069-.7298-.086l-.0124-.017c-3.6243-.482-7.261-1.015-10.8606-1.565-1.942-.293-3.884-.602-5.8013-.998-1.571-.31-3.1172-.826-4.6758-1.187-.4948-.12-.9648-.051-1.4596-.017-1.4472.052-3.00582-.757-4.41596-1.17-.11133-.034-.21028-.068-.33398-.103-.27213-.086-.54427-.241-.76692-.464-.49479-.533-.65559-1.428-.70507-2.322-.02474-.293-.02474-.602-.02474-.895 0-2.356-.17318-4.626-.27213-6.966-.11133-2.717.02474-5.435.02474-8.135.02474-6.571.02474-13.141.01237-19.712 0-1.531-.01237-3.061-.01237-4.575-.01237-5.04-.03711-10.062-.06185-15.085-.01237-1.737.11133-3.508-.24739-5.177-.37109-1.668-.11133-3.887.0371-5.607.03711-.43.08659-.86.28451-1.204.18554-.275.45767-.447.71744-.551 2.04099-.928 4.23045-.825 6.37035-.946 2.0905-.103 4.1933-.464 6.2467-1.032.2845-.068.5814-.137.8659-.24-3.3275-.43-6.6673-.843-9.89575-2.03-1.01431-.378-2.06573-.8428-2.91924-1.6684-.17318-.1376-.33398-.3096-.47005-.4816-.79166-.9116-1.37303-2.2532-1.3854-3.6808-.01237-.172.01237-.3268.03711-.4816.01237-.1376.03711-.2924.06185-.4645.17317-.9116.04948-1.9436.03711-2.8896l-.07422-4.4892c-.03711-2.7349-.06185-5.4697-.11133-8.2217-.04948-2.6832-.06185-5.3321-.33398-7.9981-.14844-1.3244-.07422-2.6832-.1237-4.0077-.06185-1.634-.03711-3.268.11133-4.902.06185-.8772.18555-1.7888.47005-2.5972 0 0 0-.0172.01237-.0172.30924-.8256.81639-1.5997 1.53384-1.5653 1.06379.086 2.13995-.2236 3.20374-.3612 2.36257-.3268 4.73757-.602 7.12497-.8084 4.8612-.4472 9.7472-.6708 14.6333-.7912 2.3749-.0516 4.7623-.0688 7.1373-.086h.3463c2.14-.0172 4.3047-.1032 6.4446.0344-4.5891-.3268-9.1783-.7568-13.7674-1.3072-2.375-.2924-4.7624-.6192-7.1373-.9632-4.0573-.602-8.2753-.5332-12.246-1.0664-2.21416-.3096-4.45307-.4816-6.66724-.5332-.1237-.0172-.24739-.0172-.37109-.0172-.14843-.0172-.30924-.0172-.4082-.1548-.09896-.1032-.12369-.2924-.14843-.4644-.35872-3.3541-.63086-6.8113-.69271-10.1653-.06184-2.7693-.11132-5.5557-.19791-8.3249-.11133-4.8849-.24739-9.7525-.4082-14.6374-.1608-5.0913 2.59763-9.4601 6.23431-9.85571 92.32757-10.19971 184.45657-10.45772 276.38757-.0344 3.674.4128 6.432 4.86761 6.21 9.99331-.297 6.7597-.557 13.5194-.792 20.279-.099 2.9413-.198 5.8997-.297 8.8581-.062 1.7716-.099 3.5777-.161 5.3665-.037.9288-.061 1.7372-.259 2.6144-.347 1.548-.272 3.2337-.545 4.8161-.099.4988-.21 1.032-.482 1.3932-.272.344-.643.4816-1.002.602-.037.0172-.062.0172-.099.0344-4.169 1.376-8.411 2.2532-12.691 2.666-.792.086-1.571.1204-2.363.172 4.936.6708 9.884 1.3588 14.819 2.0296.458.0688.952.1548 1.274.6021.247.344.346.8428.433 1.3072.087.4816.148.9632.198 1.4448.198 1.6856.198 3.3712.198 5.1084-.149 3.2337-.359 6.3985-.841 9.5805-.223 1.5137-.916 1.6169-1.67 1.4449-.47-.1204-.99-.3612-1.398-.4472-1.163-.2236-2.338-.3956-3.525-.516-2.351-.2752-4.726-.3269-7.088-.3441-1.534 0-3.08.0345-4.614.0689-6.407.1204-12.815.2579-19.21.3611.074.0345.173.0517.247.0861 7.187 2.15 14.708.9976 22.018 2.322 2.944.5332 5.888 1.462 8.857 1.2212 1.101-.086 2.239-.3612 3.315.0688.977.3612 1.546 1.3588 2.066 2.4768.556 1.204.73 2.7349.804 4.2485.062.86.062 1.7372.099 2.5284.198 4.8164-.062 9.6154-.272 14.4134-.05.843-.075 1.703-.112 2.546-.024.619-.062 1.273-.358 1.737-.211.31-.52.465-.829.585-.013 0-.037.017-.05.017-.643.241-1.373.43-2.041.361-.222-.017-.42-.086-.63-.086-.805.104-1.633.482-2.45.654-.791.155-1.583.258-2.387.275.322.103.631.207.952.31 2.202.705 4.404 1.427 6.606 2.133.284.086.594.206.804.464.866 1.118.655 4.919.742 6.381.161 2.787.235 5.59.26 8.394.025 1.342.025 2.666.025 3.99 0 2.322-.025 4.627-.05 6.949-.012 1.617-.025 3.234-.037 4.851-.037 6.759-.099 13.519-.136 20.279-.025 3.01-.037 6.02-.037 9.03 0 3.234.309 8.772-.891 11.662-.334.825-.928 1.307-1.608 1.582-.594.258-1.249.344-1.855.413-10.007.911-20.002 1.857-30.009 2.786-.05 0-.099.018-.149.018h-.049c-.037.017-.062.017-.087.017.211 0 .433.017.644.017 11.281.31 22.562 1.238 33.781 2.752.532.086.693 1.686.779 2.202.26 1.634.384 3.319.47 4.988.025.275.05.584.062.86.297 5.349.371 10.715.421 16.065v.275c.012.516.025 1.015.037 1.531.012.602.025 1.186.037 1.754.037 3.096.173 6.502-.062 9.546-.074.946-.21 1.892-.445 2.804-.099.413-.198.963-.396 1.29-.544.929-1.274 1.462-2.066 1.823-.272.138-.556.258-.828.344-1.856.688-3.736 1.238-5.641 1.668.198.052.371.086.569.155 1.992.499 3.995 1.032 5.999 1.583.718.189 1.472.481 2.066 1.135.309.344.557.791.73 1.273.223.619.346 1.255.445 1.926.025.241.05.465.062.688.198 2.253-.062 4.472.111 6.708.099 1.153.161 2.288.198 3.44.074 2.219.149 4.455.223 6.674.062 1.995.136 3.99.198 6.003.235 5.143-2.548 9.546-6.21 9.924z" fill="url(#c)"/><path d="m290.841 46.872c-.062 1.7716-.099 3.5776-.161 5.3664-.037.9289-.062 1.7373-.26 2.6145-.346 1.548-.272 3.2336-.544 4.816-.099.4988-.21 1.032-.482 1.3932-.273.344-.644.4816-1.002.602-.038.0172-.062.0172-.099.0344-4.169 1.3761-8.412 2.2533-12.692 2.6661-.791.086-1.571.1204-2.362.172 4.935.6708 9.883 1.3588 14.819 2.0296.457.0688.952.1548 1.274.602.247.344.346.8428.433 1.3072.086.4816.148.9632.198 1.4448-6.433-.5848-12.877-.8428-19.458-.9116-47.067-.4816-94.071 3.2165-140.841 10.5609-23.379 3.6637-46.7202 7.5165-70.173 10.131-18.035 2.0124-36.5648 4.902-54.83476 4.7128.01237-.1376.03711-.2924.06185-.4644.17317-.9116.04947-1.9436.0371-2.8896l-.07421-4.4893c7.52072-.9288 15.04152-1.4792 22.61172-2.2532 13.3345-1.376 26.6443-2.9756 39.954-4.8505 47.4373-6.6736 94.5663-15.9445 142.2393-19.161 3.475-.2236 6.951-.4472 10.44-.6364-8.894-.688-17.8-1.3588-26.694-1.8748-11.925-.7052-23.898-1.6168-35.835-1.4964-12.444.1548-24.851 1.4104-37.282 1.8748-24.7025.9288-49.3676 2.9068-74.0946 3.354-12.2336.2236-24.9125 1.2557-37.01004-1.5996-1.43488-.344-2.86976-.7052-4.30464-1.1008.30924-.8256.81639-1.5996 1.53383-1.5652 1.0638.086 2.13996-.2236 3.20375-.3612 2.3626-.3268 4.7376-.602 7.1249-.8084 4.8613-.4472 9.7473-.6708 14.6333-.7912 2.375-.0516 4.7624-.0688 7.1373-.086h.3464c2.1399-.0172 4.3046-.1032 6.4446.0344-4.5892-.3268-9.1783-.7568-13.7675-1.3072-2.3749-.2924-4.7623-.6192-7.1373-.9633-4.0572-.602-8.2753-.5332-12.2459-1.0664-2.21419-.3096-4.4531-.4816-6.66727-.5332-.1237-.0172-.24739-.0172-.37109-.0172-.14844-.0172-.30924-.0172-.4082-.1548-.09896-.1032-.1237-.2924-.14844-.4644-.35872-3.354-.63085-6.8113-.6927-10.1653-.06184-2.7692-.11132-5.5557-.19791-8.3249 4.21805-.7568 8.46081-1.376 12.71601-1.6512 13.9654-.9116 27.9925-.7052 41.9703-1.6512 24.2074-1.6168 48.7492-4.1625 72.9812-2.1328 24.046 2.0124 47.994 6.1232 71.966 9.2365 25.024 3.2508 50.073 6.2092 75.109 9.2537 4.193.4988 8.399 1.032 12.605 1.5652zm-1.027 155.989c-.086-.516-.247-2.133-.779-2.202-11.232-1.514-22.501-2.443-33.782-2.752-.21 0-.433-.017-.643-.017.037 0 .062 0 .087-.018h.049c.05 0 .099-.017.149-.017 10.007-.929 20.001-1.875 30.008-2.786.606-.069 1.262-.155 1.856-.413.68-.275 1.262-.757 1.608-1.582 1.2-2.89.89-8.428.89-11.662 0-3.01.013-6.02.038-9.03-46.09-1.944-92.154-4.782-138.12-9.288 1.954-.654 3.921-1.308 5.875-1.944 17.479-5.624 35.068-8.669 52.98-9.89 26.496-1.772 53.127-.138 79.438-4.025.024-2.322.049-4.627.049-6.949-27.213 1.204-54.476-.327-81.677.843-17.144.757-34.103 3.285-50.938 7.861-12.617 3.422-25.147 7.602-37.814 10.646-16.081-1.857-32.1611-3.938-48.2417-6.295-12.1594-1.771-24.3064-3.732-36.4287-5.899-.6432-.104-1.2864-.19-1.9296-.293 6.9641-2.477 14.0519-4.334 21.1026-5.831 19.2596-4.162 38.8408-6.02 58.2484-8.411 41.624-5.091 83.335-9.15 125.045-12.728 17.516-1.513 34.994-2.803 52.101-7.671.198-4.799.47-9.598.272-14.4139-.037-.8084-.049-1.6684-.098-2.5284-15.054-2.7176-30.281-2.4768-45.57-1.5824-21.239 1.2556-42.465 2.7176-63.679 4.7817-41.81 4.076-83.9409 7.809-125.4782 15.824-17.1197 3.303-33.6208 8.755-49.33025 17.992 0 1.53.01237 3.061.01237 4.575.01236 6.57.01236 13.141-.01237 19.711 0 2.701-.13607 5.418-.02474 8.136.09895 2.339.27213 4.61.27213 6.966 0 .292 0 .602.02474.894 3.88407 1.376 7.90422 2.271 11.72642 3.372 10.8853 3.164 21.8325 5.349 32.8538 7.43 22.4262 4.214 44.8896 7.912 67.4151 10.957 44.32 6.002 88.913 8.978 133.406 11.369 13.174.688 26.36 1.307 39.546 1.84-.123-1.651-.247-3.336-.507-4.97zm.928 47.111c-.173-.482-.421-.929-.73-1.273-.594-.654-1.348-.946-2.066-1.135-2.004-.533-4.007-1.067-5.999-1.583-.198-.068-.371-.103-.569-.154 1.905-.43 3.785-.981 5.641-1.669.272-.086.556-.206.828-.344.792-.361 1.534-.894 2.066-1.823.198-.327.297-.877.396-1.29.223-.912.359-1.858.445-2.804.235-3.061.099-6.45.062-9.546-.012-.585-.025-1.169-.037-1.754-36.713 1.875-73.365 2.924-110.102.395-40.326-2.769-80.651-8.084-120.8521-13.158-11.4914-1.445-22.9457-3.096-34.4371-4.231-6.6549-.654-13.8046-1.651-20.81815-1.6-.09896 6.605-.30924 13.245-.51953 19.849 4.92313 1.841 9.99468 3.131 14.67038 4.214 10.3411 2.391 20.6698 4.283 31.0974 5.694 20.3976 2.803 40.8199 5.091 61.2541 7.499 11.653 1.393 23.317 2.718 34.969 3.956-8.485 1.015-16.971 1.944-25.493 2.597-21.9071 1.72-43.789 4.455-65.7204 5.917-16.9588 1.153-33.8434.585-50.75274-.017-.01237.189-.02474.395-.03711.602-.14843 2.219-.30924 4.438-.45767 6.656-.04948.792-.08659 1.566-.14844 2.357 16.15476 3.921 32.87856 3.732 49.20656 2.735 21.9561-1.342 43.7144-4.472 65.4478-8.824 22.909-4.61 46.399-6.227 69.518-8.187.42-.035.853-.069 1.261-.086 15.104.997 30.219 1.582 45.372 1.565 19-.035 37.975-.654 56.901-2.632-.037-.671-.161-1.324-.396-1.926z" fill="url(#d)"/><path d="m65.4052 269.373c-1.6451 1.136-3.1419 1.634-4.651 1.531.4206.413.8041.877 1.0886 1.583.5195 1.29.569 2.838 0 4.11-1.1628 2.58-3.5996 2.408-5.4674 1.634-1.8307-.756-3.3522-3.784-3.3027-6.415.0371-1.961 1.1132-3.32 2.4863-3.526-1.1999-1.067-2.3503-2.339-3.3275-3.681-2.6718-3.664-4.5644-10.079-3.3027-15.136.5814-2.339 2.5853-4.489 4.515-3.475 2.3502 1.239 4.4159 3.079 6.5559 4.954.569.499 1.1256 1.015 1.7317 1.445.2969.206 1.4102.843.5814.378 2.3255 1.325 3.9088 2.735 5.1582 5.779 1.4843 3.561.804 8.859-2.0658 10.819zm-20.1625-30.496c-.1114-.24-.2103-.481-.2969-.739-.3464-.809-.8288-1.445-1.4225-1.927-.6185-.481-1.2865-.722-2.0039-.739-.804.12-1.2246.206-1.8802.619-.6061.31-.9772.74-1.3854 1.479-.6927 1.273-.8782 3.234-.5566 4.696.2474 1.135.7298 2.064 1.4225 2.786.6556.688 1.5462 1.239 2.3997 1.153.5319-.052 1.0762-.121 1.6081-.31 2.1152-.757 3.3645-4.455 2.1152-7.018zm196.5043-36.292c-.532-2.649-2.412-4.541-4.428-4.558-.705-.017-1.311-.275-2.103-.275-1.262 0-2.35.722-3.476 1.359-1.843 1.049-3.55 2.425-4.502 4.919-.903 2.373-.706 5.693.853 7.465-.235.327-.47.636-.742.963-1.138 1.324-.272 4.472 1.286 4.231.532-.086 1.064.121 1.596.138.755.017 1.447-.189 2.152-.516.569-.275 1.175-.499 1.72-.843.408-.258.717-.55.989-1.032.087-.155.718-1.445.322-.912.185-.258.309-.567.359-.877 1.311-.499 2.313-1.238 3.24-2.408.211-.206.409-.413.619-.619 1.67-1.686 2.697-4.18 2.115-7.035zm-5.875-12.315c-.396-.138-.866-.379-1.274-.31-.446.086-.916.499-1.324.774-.458.292-.619 1.153-.421 1.755.211.653.705.963 1.225.808.396-.12.903-.155 1.262-.447.334-.258.569-.809.804-1.204.272-.465.222-1.204-.272-1.376zm9.722-16.736c-.111-.378-.235-.757-.346-1.135-2.598-2.477-4.688-2.735-6.259-.774-.322.412-.619.877-.829 1.393-.915 2.184-.507 5.401 1.225 6.639.903.654 1.942.929 2.944.516.519-.206 1.026-.567 1.533-.86.26-.258.508-.533.767-.791.371-.464.631-1.015.78-1.651.296-.963.494-2.322.185-3.337zm-10.341-103.7344c-.185-1.1009-.371-2.1329-.891-3.0445-.569-.9976-1.385-1.5996-2.164-2.2532-.643-.5332-1.262-1.118-1.992-1.4276-.754-.344-1.633-.344-2.424-.3956-1.373-.1032-2.264 1.1008-2.585 2.6144-1.98-2.4768-5.023-3.9044-7.41-4.6096-2.573-.7741-9.017-.43-8.498 5.2116.421 4.4377 2.796 7.0865 5.492 9.3569 2.61 2.2016 4.899 3.8873 7.608 3.4573 2.226.3612 4.948.8084 6.011-2.6317.297-.946.347-1.8404.26-2.7004.544.5504 1.089 1.118 1.769 1.3588.94.344 1.905.0172 2.845-.172 1.546-.3268 2.288-2.9412 1.979-4.7644zm-31.011 2.924c-.569-.7568-1.113-1.5824-1.769-2.2016-.804-.7568-1.608-.8772-2.535-1.1008-.792-.1893-1.645-.5333-2.437-.4129s-1.361.8429-1.93 1.5309c-.297.3612-.396.9976-.297 1.4964.186.86.371 1.7888.854 2.4424.606.8256 1.67 1.1696 2.461 1.5996.792.43 1.497.8944 2.363.8772.854-.0172 1.757-.3956 2.598-.6364 1.162-.344 1.509-2.5112.692-3.5948zm29.341 25.7831c-.111-1.1696-.618-2.0296-1.212-2.8381-.829-1.118-1.855-1.4104-2.932-1.8232-.878-.3268-1.843.1376-2.387 1.1008-.581 1.0148-.594 2.2877-.173 3.4229.148.4128.309.8256.458 1.2556.334.9283.791 1.5993 1.422 2.2013.619.585 1.274.998 2.041 1.05.854.051 1.769-.516 2.288-1.428.495-.877.607-1.8577.495-2.9413zm-56.554 99.0383c-3.686-2.872-9.821-1.978-12.741 1.875-1.843 2.443-1.929 6.983 0 9.409 4.256 5.332 11.739 3.061 14.448-3.544.05-.068.099-.137.161-.189 2.041-2.597.581-6.914-1.868-7.551zm-20.162-4.214c-1.04-.756-1.881-1.358-3.105-1.014-.804.223-1.621.567-2.388.946-1.002.481-1.694 1.685-1.533 3.182.173 1.53 1.014 2.322 2.102 2.511.817.137 1.683.241 2.511.223 1.213-.051 1.93-.963 2.796-1.96.866-1.032.594-3.165-.383-3.888zm-113.2695-145.1349c-1.6575-3.2508-5.1953-2.6316-7.3105-.6536-.8535.7912-1.8554 1.7888-2.5976 2.8036-.6556.8772-.9772 1.9265-1.1751 3.1133-.0495.4816-.099.9632-.1361 1.4276.0866-.5504.0866-.4988-.0124.1548-.3834 2.5972.8288 4.9536 2.8451 5.0568h.2721c.0371.0172.0742.0344.1237.0516 1.1627.3957 2.276.1548 3.3398-.5848.7051-.4988 1.4225-1.1008 2.0905-1.6856 2.2636-1.9952 4.3665-6.1404 2.5605-9.6837zm-13.9035 2.0812c-.9277.3784-1.8183.8084-2.4368 1.8749-.5319.8944-1.0143 1.8232-1.4349 2.8208-.6556 1.5652-.3093 3.8356.9153 4.6956 1.2617.9116 2.6966.3784 3.4759-1.2384.1608-.3268.3216-.6364.4824-.9632.0124-.0172.0248-.0344.0371-.0688.1114-.172.2103-.344.3217-.4988.4205-.6364.7174-1.2384.9153-2.0812.0866-.3612.1732-.7396.2845-1.1008.569-2.0124-1.1504-4.0077-2.5605-3.4401zm27.5101-15.3081c-.6679-.1548-1.472-.2924-2.0781.2408-.4205.3612-.7298.9288-1.0638 1.4276-.47.7224-.6679 1.8404-.2597 2.7004.4205.8772 1.1132 1.2212 1.8554 1.032.4701-.1204 1.0514-.172 1.4596-.516.6185-.5332.9278-1.376 1.1752-2.2704.2968-1.0148-.3093-2.4424-1.0886-2.6144zm67.8479 77.2458c.074-.172.148-.344.198-.533.729-2.322.532-5.005-1.237-6.416-.248-.189-.495-.344-.742-.498-1.806-2.013-3.81-2.563-6.222-2.322-2.351.24-4.416 1.857-6.532 3.147-2.931 1.789-3.785 7.31-2.647 10.957.347 1.118.854 2.064 1.448 2.855-1.819 1.101-3.476 2.408-4.788 3.646-.717.671-1.249 1.428-1.645 2.236-1.558 1.875-2.201 4.404-.692 7.809 2.845 6.45 11.046 4.748 15.313 2.529 2.586-1.342 5.542-3.234 6.89-6.708 1.522-3.888.396-8.566-2.325-10.716 1.459-1.376 2.56-3.285 2.981-5.986zm-28.7845 15.05c-.7174-.223-1.1256.258-1.7194.637-.0123.017-.0865.051-.136.086-.0619.034-.1732.086-.1856.086-.2102.086-.4205.172-.6308.223-.9277.276-1.373 1.772-1.0267 2.89.3835 1.238 1.3978 1.6 2.2513 1.032.4824-.327.9277-.74 1.3483-1.204.4948-.533 1.0638-1.221 1.0019-2.167-.0495-.705-.3463-1.411-.903-1.583zm-9.203-7.602c-.1237-.086-.2598-.138-.3835-.224-1.9915-2.098-4.9973-.894-6.7167 1.273-1.2864 1.617-2.3378 3.612-2.6224 5.986-.1979 1.703-.0618 3.268.8907 4.541.8287 1.118 2.2141 1.737 3.3521 1.204 2.6843-1.256 6.3457-3.819 6.692-7.947.0371-.155.0743-.292.1114-.447.3958-1.445-.2598-3.732-1.3236-4.386zm186.9675 149.108c-.235-1.444-1.051-2.752-1.979-3.491-1.707-1.359-3.798-.843-5.22.911-.73.895-1.447 1.789-2.177 2.701-1.46 1.806-1.472 5.039-.309 7.069 1.199 2.116 3.389 2.735 5.133 1.393.853-.671 1.719-1.324 2.573-1.995 1.719-1.342 2.387-4.076 1.979-6.588z" fill="#eb924d"/><path d="m66.2835 266.845c-1.6452 1.136-3.1419 1.634-4.651 1.531.4205.413.804.877 1.0885 1.583.5195 1.29.569 2.838 0 4.111-1.1628 2.58-3.5996 2.408-5.4674 1.634-1.8307-.757-3.3522-3.784-3.3027-6.416.0371-1.961 1.1133-3.32 2.4863-3.526-1.1999-1.067-2.3502-2.339-3.3274-3.681-2.6719-3.664-4.5644-10.079-3.3027-15.136.5813-2.339 2.5852-4.489 4.5149-3.475 2.3502 1.239 4.416 3.079 6.5559 4.954.569.499 1.1257 1.015 1.7318 1.445.2968.206 1.4101.843.5813.378 2.3255 1.325 3.9088 2.735 5.1582 5.78 1.4843 3.56.7916 8.858-2.0657 10.818zm-20.1626-30.495c-.1113-.241-.2103-.482-.2969-.74-.3463-.809-.8287-1.445-1.4225-1.927-.6185-.481-1.2864-.722-2.0039-.739-.804.12-1.2246.206-1.8801.619-.6062.31-.9773.74-1.3855 1.479-.6927 1.273-.8782 3.234-.5566 4.696.2474 1.135.7298 2.064 1.4225 2.786.6556.688 1.5462 1.239 2.3997 1.153.5319-.052 1.0762-.121 1.6081-.31 2.1152-.739 3.3645-4.437 2.1152-7.017zm196.0961-35.123c-.532-2.649-2.412-4.541-4.428-4.558-.705-.018-1.311-.276-2.103-.276-1.262 0-2.35.723-3.476 1.359-1.843 1.049-3.55 2.426-4.502 4.92-.903 2.373-.706 5.693.853 7.464-.235.327-.47.637-.742.964-1.138 1.324-.272 4.472 1.286 4.231.532-.086 1.064.12 1.596.137.755.018 1.447-.189 2.152-.516.569-.275 1.175-.498 1.72-.842.408-.258.717-.551.989-1.032.087-.155.718-1.445.322-.912.185-.258.309-.568.359-.877 1.311-.499 2.313-1.239 3.24-2.408.211-.207.409-.413.619-.619 1.67-1.669 2.697-4.163 2.115-7.035zm-5.875-12.316c-.396-.137-.866-.378-1.275-.309-.445.086-.915.499-1.323.774-.458.292-.619 1.152-.421 1.754.211.654.705.963 1.225.809.396-.121.903-.155 1.262-.448.334-.258.569-.808.804-1.204.272-.447.21-1.204-.272-1.376zm9.722-16.718c-.111-.379-.235-.757-.346-1.135-2.598-2.477-4.688-2.735-6.259-.774-.322.412-.619.877-.829 1.393-.915 2.184-.507 5.401 1.225 6.639.903.654 1.942.929 2.944.516.519-.206 1.026-.568 1.533-.86.26-.258.507-.533.767-.791.371-.465.631-1.015.78-1.651.296-.981.482-2.34.185-3.337zm-9.945-104.9041c-.186-1.1008-.371-2.1329-.891-3.0445-.569-.9976-1.385-1.5996-2.164-2.2532-.644-.5332-1.262-1.118-1.992-1.4276-.754-.344-1.633-.344-2.424-.3956-1.373-.1032-2.264 1.1008-2.586 2.6144-1.979-2.4768-5.022-3.9044-7.409-4.6096-2.573-.774-9.018-.43-8.498 5.2116.421 4.4377 2.796 7.0865 5.492 9.3569 2.598 2.2017 4.898 3.8873 7.607 3.4573 2.227.3612 4.948.8084 6.012-2.6317.297-.946.346-1.8404.26-2.7004.544.5504 1.088 1.118 1.769 1.3588.94.344 1.905.0172 2.845-.172 1.558-.344 2.3-2.9584 1.979-4.7644zm-31.011 2.9068c-.569-.7568-1.113-1.5824-1.769-2.2016-.804-.7568-1.608-.8772-2.535-1.1008-.792-.1892-1.646-.5332-2.437-.4128-.792.1204-1.361.8428-1.93 1.5308-.297.3612-.396.9976-.297 1.4964.186.86.371 1.7888.854 2.4424.606.8256 1.67 1.1696 2.461 1.5996.792.43 1.497.8944 2.363.8772.853-.0172 1.756-.3956 2.597-.6364 1.176-.344 1.522-2.5112.693-3.5948zm29.353 25.7831c-.111-1.1696-.618-2.0296-1.212-2.838-.829-1.1181-1.855-1.4105-2.931-1.8233-.879-.3268-1.844.1376-2.388 1.1008-.581 1.0149-.594 2.2877-.173 3.4229.148.4128.309.8256.458 1.2556.334.9288.791 1.5996 1.422 2.2016.619.5848 1.274.9976 2.041 1.0496.866.051 1.769-.5164 2.289-1.428.494-.8772.606-1.8576.494-2.9412zm-56.554 99.0382c-3.686-2.872-9.821-1.978-12.74 1.875-1.844 2.443-1.93 6.984 0 9.409 4.255 5.332 11.738 3.061 14.447-3.543.05-.069.099-.138.161-.19 2.041-2.597.569-6.897-1.868-7.551zm-20.162-4.214c-1.039-.756-1.88-1.358-3.105-1.014-.804.223-1.62.567-2.387.946-1.002.481-1.695 1.685-1.534 3.182.173 1.53 1.014 2.322 2.103 2.511.816.137 1.682.241 2.511.223 1.212-.051 1.929-.963 2.795-1.96.866-1.032.594-3.165-.383-3.888zm-113.628-144.1372c-1.6575-3.2508-5.1952-2.6316-7.3104-.6536-.8536.7912-1.8555 1.7888-2.5977 2.8037-.6556.8772-.9772 1.9264-1.1751 3.1132-.0495.4816-.099.9632-.1361 1.4276.0866-.5504.0866-.4988-.0123.1548-.3835 2.5972.8287 4.9537 2.845 5.0569h.2721c.0371.0172.0742.0344.1237.0516 1.1628.3956 2.276.1548 3.3398-.5848.7051-.4988 1.4225-1.1009 2.0905-1.6857 2.276-1.9952 4.3789-6.1232 2.5605-9.6837zm-13.9035 2.0813c-.9277.3784-1.8183.8084-2.4368 1.8748-.5319.8944-1.0143 1.8232-1.4349 2.8208-.6556 1.5652-.3092 3.8357.9154 4.6957 1.2617.9116 2.6966.3784 3.4758-1.2384.1609-.3268.3217-.6365.4825-.9633.0123-.0172.0247-.0344.0371-.0688.1113-.172.2103-.344.3216-.4988.4206-.6364.7174-1.2384.9153-2.0812.0866-.3612.1732-.7396.2845-1.1008.569-2.0124-1.138-4.0076-2.5605-3.44zm27.5225-15.3082c-.6679-.1548-1.472-.2924-2.0781.2408-.4206.3612-.7298.9288-1.0638 1.4276-.47.7224-.6679 1.8404-.2597 2.7004.4205.8772 1.1132 1.2213 1.8554 1.0321.4701-.1204 1.0514-.172 1.4596-.5161.6185-.5332.9278-1.376 1.1751-2.2704.2845-.9976-.3092-2.4424-1.0885-2.6144zm68.194 76.2481c.074-.172.148-.344.198-.533.73-2.322.532-5.005-1.237-6.416-.247-.189-.495-.344-.742-.498-1.806-2.013-3.81-2.5632-6.222-2.3224-2.35.2404-4.416 1.8574-6.531 3.1474-2.932 1.789-3.786 7.31-2.648 10.957.347 1.118.854 2.064 1.448 2.855-1.819 1.101-3.476 2.408-4.787 3.646-.718.671-1.25 1.428-1.645 2.236-1.559 1.875-2.202 4.404-.693 7.809 2.845 6.45 11.046 4.748 15.313 2.529 2.586-1.342 5.542-3.234 6.89-6.708 1.522-3.888.396-8.566-2.325-10.716 1.447-1.376 2.56-3.285 2.981-5.986zm-29.1553 16.117c-.7175-.224-1.1257.258-1.7194.636-.0124 0-.0866.052-.1361.086-.0618.035-.1732.086-.1855.086-.2103.086-.4206.172-.6309.224-.9277.275-1.373 1.772-1.0267 2.89.3835 1.238 1.3978 1.599 2.2513 1.032.4824-.327.9277-.74 1.3483-1.204.4948-.534 1.0638-1.222 1.002-2.168-.0495-.705-.3464-1.41-.903-1.582zm-9.2031-7.603c-.1237-.086-.2597-.137-.3834-.223-1.9915-2.099-4.9974-.895-6.7167 1.273-1.2865 1.616-2.3379 3.612-2.6224 5.985-.1979 1.703-.0619 3.268.8906 4.541.8288 1.118 2.2142 1.737 3.3522 1.204 2.6842-1.255 6.3456-3.818 6.692-7.946.0371-.155.0742-.293.1113-.448.3958-1.444-.2598-3.732-1.3236-4.386zm187.3264 148.042c-.235-1.444-1.052-2.752-1.979-3.491-1.707-1.359-3.798-.843-5.22.911-.73.895-1.448 1.789-2.177 2.701-1.46 1.806-1.472 5.057-.31 7.069 1.2 2.116 3.39 2.735 5.134 1.393.853-.67 1.719-1.324 2.573-1.995 1.731-1.341 2.399-4.076 1.979-6.588z" fill="url(#e)"/><path d="m65.4052 268.48c-1.6451 1.136-3.1419 1.635-4.651 1.531.4206.413.8041.878 1.0886 1.583.5195 1.29.569 2.838 0 4.111-1.1628 2.58-3.5996 2.408-5.4674 1.634-1.8307-.757-3.3522-3.784-3.3027-6.416.0371-1.961 1.1132-3.32 2.4863-3.526-1.1999-1.067-2.3503-2.339-3.3275-3.681-2.6718-3.664-4.5644-10.079-3.3027-15.136.5814-2.339 2.5853-4.489 4.515-3.475 2.3502 1.239 4.4159 3.079 6.5559 4.954.569.499 1.1256 1.015 1.7317 1.445.2969.206 1.4102.843.5814.378 2.3255 1.325 3.9088 2.735 5.1582 5.78 1.4843 3.543.804 8.858-2.0658 10.818zm-20.1625-30.513c-.1114-.24-.2103-.481-.2969-.739-.3464-.809-.8288-1.445-1.4225-1.927-.6185-.481-1.2865-.722-2.0039-.739-.804.12-1.2246.206-1.8802.619-.6061.31-.9772.74-1.3854 1.479-.6927 1.273-.8782 3.234-.5566 4.696.2474 1.135.7298 2.064 1.4225 2.786.6556.688 1.5462 1.239 2.3997 1.153.5319-.052 1.0762-.121 1.6081-.31 2.1152-.74 3.3645-4.438 2.1152-7.018zm196.5043-35.862c-.532-2.649-2.412-4.541-4.428-4.558-.705-.017-1.311-.275-2.103-.275-1.262 0-2.35.722-3.476 1.359-1.843 1.049-3.55 2.425-4.502 4.919-.903 2.373-.706 5.693.853 7.465-.235.326-.47.636-.742.963-1.138 1.324-.272 4.472 1.286 4.231.532-.086 1.064.121 1.596.138.755.017 1.447-.189 2.152-.516.569-.275 1.175-.499 1.72-.843.408-.258.717-.55.989-1.032.087-.155.718-1.445.322-.912.185-.258.309-.567.359-.877 1.311-.499 2.313-1.238 3.24-2.408.211-.206.409-.413.619-.619 1.67-1.686 2.697-4.18 2.115-7.035zm-5.875-12.315c-.396-.138-.866-.379-1.274-.31-.446.086-.916.499-1.324.774-.458.292-.619 1.152-.421 1.754.211.654.705.964 1.225.809.396-.121.903-.155 1.262-.447.334-.258.569-.809.804-1.204.272-.465.222-1.204-.272-1.376zm9.722-16.736c-.111-.379-.235-.757-.346-1.135-2.598-2.477-4.688-2.735-6.259-.774-.322.412-.619.877-.829 1.393-.915 2.184-.507 5.401 1.225 6.639.903.654 1.942.929 2.944.516.519-.206 1.026-.567 1.533-.86.26-.258.508-.533.767-.808.371-.465.631-1.015.78-1.652.296-.946.494-2.304.185-3.319zm-10.341-104.1473c-.185-1.1008-.371-2.1328-.891-3.0444-.569-.9976-1.385-1.5996-2.164-2.2532-.643-.5332-1.262-1.1181-1.992-1.4277-.754-.344-1.633-.344-2.424-.3956-1.373-.1032-2.264 1.1008-2.585 2.6145-1.98-2.4769-5.023-3.9045-7.41-4.6097-2.573-.774-9.017-.43-8.498 5.2117.421 4.4376 2.796 7.0864 5.492 9.3569 2.61 2.2016 4.899 3.8872 7.608 3.4572 2.226.3612 4.948.8084 6.011-2.6316.297-.946.347-1.8404.26-2.7004.544.5504 1.089 1.118 1.769 1.3588.94.344 1.905.0172 2.845-.172 1.546-.344 2.288-2.9413 1.979-4.7645zm-31.011 2.9068c-.569-.7568-1.113-1.5824-1.769-2.2016-.804-.7568-1.608-.8772-2.535-1.1008-.792-.1892-1.645-.5332-2.437-.4128s-1.361.8428-1.93 1.5308c-.297.3612-.396.9976-.297 1.4964.186.86.371 1.7889.854 2.4425.606.8256 1.67 1.1696 2.461 1.5996.792.43 1.497.8944 2.363.8772.854-.0172 1.757-.3956 2.598-.6364 1.162-.344 1.509-2.494.692-3.5949zm29.341 25.8003c-.111-1.1696-.618-2.0296-1.212-2.838-.829-1.118-1.855-1.4104-2.932-1.8232-.878-.3268-1.843.1376-2.387 1.1008-.581 1.0148-.594 2.2876-.173 3.4228.148.4128.309.8256.458 1.2556.334.9289.791 1.5992 1.422 2.2012.619.585 1.274.998 2.041 1.05.854.051 1.769-.516 2.288-1.428.495-.8772.607-1.8748.495-2.9412zm-56.554 99.0392c-3.686-2.873-9.821-1.979-12.741 1.874-1.843 2.443-1.929 6.984 0 9.409 4.256 5.332 11.739 3.061 14.448-3.543.05-.069.099-.138.161-.19 2.041-2.597.581-6.914-1.868-7.55zm-20.162-4.215c-1.04-.756-1.881-1.358-3.105-1.014-.804.223-1.621.567-2.388.946-1.002.481-1.694 1.685-1.533 3.182.173 1.531 1.014 2.322 2.102 2.511.817.138 1.683.241 2.511.224 1.213-.052 1.93-.964 2.796-1.961.866-1.032.594-3.165-.383-3.888zm-113.2695-144.7907c-1.6575-3.2508-5.1953-2.6316-7.3105-.6536-.8535.7912-1.8554 1.7888-2.5976 2.8036-.6556.8772-.9772 1.9264-1.1751 3.1132-.0495.4816-.099.9633-.1361 1.4277.0866-.5504.0866-.4988-.0124.1548-.3834 2.5972.8288 4.9536 2.8451 5.0568h.2721c.0371.0172.0742.0344.1237.0516 1.1627.3956 2.276.1548 3.3398-.5848.7051-.4988 1.4225-1.1008 2.0905-1.6856 2.2636-1.9952 4.3665-6.1233 2.5605-9.6837zm-13.9035 2.0812c-.9277.3784-1.8183.8084-2.4368 1.8748-.5319.8944-1.0143 1.8232-1.4349 2.8209-.6556 1.5652-.3093 3.8356.9153 4.6956 1.2617.9116 2.6966.3784 3.4759-1.2384.1608-.3268.3216-.6364.4824-.9632.0124-.0172.0248-.0344.0371-.0688.1114-.172.2103-.344.3217-.4988.4205-.6364.7174-1.2384.9153-2.0812.0866-.3613.1732-.7397.2845-1.1009.569-2.0124-1.1504-4.0076-2.5605-3.44zm27.5101-15.3082c-.6679-.1548-1.472-.2924-2.0781.2408-.4205.3612-.7298.9289-1.0638 1.4277-.47.7224-.6679 1.8404-.2597 2.7004.4205.8772 1.1132 1.2212 1.8554 1.032.4701-.1204 1.0514-.172 1.4596-.516.6185-.5332.9278-1.376 1.1752-2.2704.2968-.9976-.3093-2.4253-1.0886-2.6145zm67.8479 76.9017c.074-.172.148-.344.198-.533.729-2.322.532-5.005-1.237-6.415-.248-.19-.495-.345-.742-.499-1.806-2.013-3.81-2.563-6.222-2.322-2.351.24-4.416 1.857-6.532 3.147-2.931 1.789-3.785 7.31-2.647 10.957.347 1.118.854 2.064 1.448 2.855-1.819 1.101-3.476 2.408-4.788 3.646-.717.671-1.249 1.428-1.645 2.237-1.558 1.874-2.201 4.403-.692 7.808 2.845 6.45 11.046 4.748 15.313 2.529 2.586-1.342 5.542-3.234 6.89-6.708 1.522-3.887.396-8.566-2.325-10.716 1.459-1.376 2.56-3.285 2.981-5.986zm-28.7845 15.429c-.7174-.224-1.1256.258-1.7194.636-.0123 0-.0865.052-.136.086-.0619.035-.1732.086-.1856.086-.2102.086-.4205.172-.6308.224-.9277.275-1.373 1.772-1.0267 2.89.3835 1.238 1.3978 1.599 2.2513 1.032.4824-.327.9277-.74 1.3483-1.204.4948-.534 1.0638-1.222 1.0019-2.168-.0495-.705-.3463-1.41-.903-1.582zm-9.203-7.603c-.1237-.086-.2598-.137-.3835-.223-1.9915-2.099-4.9973-.895-6.7167 1.273-1.2864 1.616-2.3378 3.612-2.6224 5.985-.1979 1.703-.0618 3.268.8907 4.541.8287 1.118 2.2141 1.737 3.3521 1.204 2.6843-1.255 6.3457-3.818 6.692-7.946.0371-.155.0743-.293.1114-.447.3958-1.445-.2598-3.733-1.3236-4.387zm186.9675 148.713c-.235-1.445-1.051-2.752-1.979-3.491-1.707-1.359-3.798-.843-5.22.911-.73.895-1.447 1.789-2.177 2.701-1.46 1.806-1.472 5.039-.309 7.069 1.199 2.116 3.389 2.735 5.133 1.393.853-.671 1.719-1.324 2.573-1.995 1.719-1.324 2.387-4.059 1.979-6.588z" fill="url(#f)"/><g fill="#eb924d"><path d="m5.15166 243.023c-.11133.843-.17317 1.703-.18554 2.546-.01237.43-.01237.843.01237 1.273.01236.154.0371.275.06184.447.08659.447.02474.946.04948 1.393.01237.361.03711.74.06185 1.101-.59374-.292-.98957-.654-1.00194-1.135-.04948-1.755-.04948-3.509.02474-5.281.02474-.653-.09896-2.064.12369-2.631.30925-.757.14844-.362.75455-.706.61849-.361 1.12564-.791 1.80597-.98.6927-.189 1.39777-.275 2.11522-.378 2.52341-.362 5.04681-.706 7.58261-1.05-.6432-.051-1.2865-.103-1.9297-.172.5443-.017 1.0762-.051 1.6204-.086.5072-.034 1.0267-.068 1.5463-.086.4329-.017.8782.018 1.3111-.086-3.5129.826-7.0259 1.617-10.45233 2.907-.91535.344-1.83071.723-2.67184 1.342-.22266.172-.45768.361-.59375.653-.13606.276-.19791.62-.23502.929z"/><path d="m5.46001 112.818v.104c.02474.412.13607.808.17317 1.221.09896 1.204-.07421 2.494-.0371 3.715.07421 2.356.4453 4.816 1.64516 6.605 1.44725 2.15 3.67376 2.769 5.76426 3.285-1.6328.035-3.26559.069-4.89838.103-.33398 0-.68033.018-.97721.241-.50715.379-.6927 1.239-.81639 2.013-.75455 4.644-1.03906 9.425-.84114 14.19.76692.619 1.60805 1.032 2.47393 1.255-1.16275.069-1.88019 2.047-1.60806 3.612.27214 1.583 1.19986 2.752 2.12759 3.733-1.41014.051-2.33787 2.15-2.57289 4.076-.18555 1.548-.13607 3.131-.33398 4.679-.06185.533-.06185.98-.02474 1.513.03711.688-.02474 1.376-.03711 2.064-.02474 1.875.09895 3.767.34635 5.608.13606 1.014.32161 2.046.53189 3.044.11133.499.22266.998.35872 1.496.03711.104.06185.207.07422.31-.27213-.086-.54426-.241-.76692-.464-.66796-.706-.72981-2.064-.72981-3.234 0-2.356-.17317-4.627-.27213-6.966-.11133-2.718.02474-5.435.02474-8.136.02474-6.57.02474-13.141.01237-19.711-.01237-6.571-.03711-13.107-.07422-19.66-.01237-1.737.11133-3.509-.24739-5.177-.37109-1.669-.11133-3.887.03711-5.608.03711-.43.08658-.86.2845-1.204.18554-.275.45768-.447.71744-.55 2.04099-.929 4.23041-.826 6.37041-.946 2.0904-.103 4.1933-.464 6.2466-1.032.5319-.034 1.0638-.103 1.5834-.224-3.4141 1.015-6.8528 1.892-10.31634 2.684-.71744.154-1.43488.326-2.10284.705-.66796.378-1.28644.997-1.64516 1.892-.32162.826-.37109 1.754-.4082 2.683-.02474.705-.09896 1.411-.06185 2.081z"/><path d="m32.8942 180.795c-6.8033.481-13.5571 2.081-20.3728 2.425-1.6946.086-3.4264.103-5.00972.946-1.1009.585-2.21417 3.698-.90298 4.816.18554.172.42056.224.64322.292 1.23696.327 2.49867.465 3.74798.43-1.60803.344-3.08002 1.462-4.5149 2.546-.24739.189-.51953.396-.68033.722-.16081.31-.23503.706-.29688 1.084-.1608.98-.43293 2.012-.33398 3.027.06185.705.03711 1.342 0 2.064-.11132 2.735-.13606 5.47-.0371 8.205.01237.309.02473.636.12369.929.13607.378.39583.653.64322.894.55664.55 1.12564 1.101 1.66991 1.651.04948.035.08659.086.09896.138.04948.137-.03711.275-.09896.378-.86588 1.29-1.85545 2.511-2.28839 4.18-.21028.808-.55663 1.445-.60611 2.322-.11133 2.047.01237 4.111.37109 6.106.13606.774.33398 1.565.75455 2.116.34635.447.82876.67 1.28644.86 1.92967.808 3.88409 1.479 5.86319 1.96-2.5729.104-5.13338.224-7.70627.327-.06185 0-.24739 4.094-.30924 4.472-.08659.568-.1608.86 0 1.445.17318.602.45768 1.135.8164 1.565-.47005-.051-.9401-.086-1.41014-.12-.19792-.017-.42057-.069-.50716-.292-.03711-.104-.03711-.258-.03711-.379.33398-10.165.70507-20.434.85351-30.633.07422-5.642-.18555-11.37.33398-16.96.04948-.516.33398-6.14.32161-6.14 9.16592-.929 18.36892-1.411 27.58432-1.376z"/><path d="m34.3809 180.725c.0494 0 .0866-.017.1484-.017-.0495 0-.099 0-.1484.017z"/><path d="m38.6869 55.2334c-4.082.7052-8.3001-.086-12.3573.8772-1.3483.3096-2.6719.8256-4.0326 1.0148-1.2617.1548-2.511.0688-3.7603.1032-3.1419.086-6.2591 1.0836-9.25254 2.4252-1.01431.4472-2.06573.9633-2.80791 2.0297-.27213.4128-.49479.86-.68033 1.376-.30925.9116-.61849 2.0984-.58138 3.1304.01237.3096.04948.5504.02474.86-.07422.8944-.13606 1.7716-.14843 2.6661-.02474 1.7888.12369 3.5776.42056 5.3148.08659.4988.19792 1.0148.47005 1.3416.27213.344.66796.43 1.02668.516 1.53384.3268 3.06766.6536 4.58916.9804-2.11522.2236-4.21807.43-6.33328.6536.13607-.0172.09896 7.0521.1237 7.6713.11132 2.3737.1608 4.7989.2845 7.1897.07422 1.5652.19791 3.1132.51953 4.6097.07421.344.17317.7052.27213 1.032-.17318-.1376-.33398-.3096-.47005-.4816-.77929-.8772-1.36066-2.2189-1.37303-3.6465-.01237-.344.04948-.6192.09896-.946.17317-.9116.04947-1.9436.0371-2.8896-.06184-4.2313-.11132-8.4625-.18554-12.6938-.04948-2.6832-.06185-5.332-.33398-7.998-.14844-1.3245-.07422-2.6833-.1237-4.0077-.06185-1.634-.03711-3.268.11133-4.902.06185-.8772.18554-1.7889.47005-2.5973.30924-.8256.82876-1.6168 1.53384-1.5824 1.06379.086 2.13995-.2236 3.20374-.3612 2.3626-.3268 4.7376-.602 7.1249-.8084 4.8613-.4472 9.7473-.6708 14.6333-.7912 2.375-.0516 4.7624-.0688 7.1373-.086z"/><path d="m252.075 85.2461c7.187 2.15 14.707.9976 22.018 2.322 2.944.5332 5.888 1.462 8.857 1.2212 1.1-.086 2.238-.3612 3.315.0688.977.3612 1.546 1.3588 2.065 2.4769.866 1.9092.817 4.6096.903 6.7768.223 5.6592-.173 11.3182-.383 16.9592-.025.619-.062 1.273-.359 1.737-.21.31-.519.465-.829.585 0-.12-.012-.223-.012-.327-.037-.928-.012-1.857.074-2.769.112-1.255.347-2.494.334-3.749 0-.465 0-.878.025-1.359.012-.121.012-.275 0-.413-.05-.585-.099-1.084-.198-1.651-.124-.723-.062-1.531-.087-2.271-.049-1.617-.148-3.216-.296-4.833-.025-.2751-.062-.5848-.235-.7568-.124-.1204-.297-.1376-.458-.1204-3.983.0688-7.966.43-11.924 1.0662 3.414-.2405 6.815-.963 10.13-2.167.643-.2408 1.349-.5676 1.645-1.376.248-.6708.149-1.4792.038-2.2016-.124-.8944-.297-1.8576-.817-2.3908-.309-.3268-.717-.4472-1.101-.5504-.235-.0688-.457-.1204-.692-.1892-2.314-.6193-4.651-1.0837-7.002-1.4277-1.175-.172-2.35-.2924-3.525-.3956-1.188-.1032-2.276-.4472-3.464-.5504-.705-.0688-1.41-.1204-2.115-.1892-2.412-.2064-4.812-.4128-7.211-.602-1.188-.1032-2.4-.1204-3.575-.3096-.346-.0688-.643-.2408-.965-.4472-.185-.1032-.371-.1892-.557-.258-1.051-.3096-2.14-.4816-3.203-.7568-.755-.1892-1.509-.3784-2.264-.5848l-1.051-.2752c-.248-.0688-.569-.2408-.842-.2408 1.275-.0172 2.512-.0516 3.761-.0516z"/><path d="m289.418 152.087c-.061 9.769-.16 19.539-.173 29.326 0 3.233.31 8.772-.89 11.662-.334.825-.928 1.307-1.608 1.582.074-.241.136-.482.198-.74.358-1.393.63-2.82.791-4.282.074-.654.062-1.376.223-1.978.185-.654.161-1.376.198-2.064.123-2.065.247-4.146.371-6.21.099-1.668.198-3.337.309-5.005.062-.843.099-1.668.161-2.494.025-.344.086-.757.049-1.101-.024-.103-.061-.223-.061-.327-.062-.412-.013-.877-.236-1.204-.136-.206-.333-.275-.531-.344-1.843-.653-3.736-.963-5.629-.98.792-.31 1.633-.241 2.45-.172.816.069 1.67.086 2.436-.31.52-.275 1.002-.808 1.262-1.479.124-.327.186-.688.248-1.049.098-.619.012-1.342.012-1.978-.012-1.204-.025-2.425-.025-3.647-.025-3.371-.049-6.742-.223-10.096-.123-2.563-.309-5.109-.408-7.671-.037-.843-.396-1.273-.544-2.03-.173-.912.186-1.978-.223-2.821-.334-.671-1.002-.739-1.583-.757-3.797-.068-7.595-.137-11.392-.189 3.537.361 7.075-.602 10.563-1.548.433-.12.879-.241 1.262-.533.656-.482 1.064-1.376 1.361-2.305.148-.464.247-.963.383-1.445.05-.172.099-.309.124-.499.062-.584-.05-1.307-.074-1.892-.025-.739-.062-1.479-.099-2.236-.025-.825-.062-1.72-.409-2.408-.47-.963-1.348-1.307-2.152-1.582-2.041-.688-4.069-1.393-6.11-2.081.519-.121 1.051-.207 1.608-.241 2.201.705 4.403 1.428 6.605 2.133.284.086.594.206.804.464.866 1.118.656 4.919.742 6.381.161 2.787.235 5.591.26 8.394.074 5.229-.025 10.509-.05 15.756z"/><path d="m275.589 64.3486c-.792.086-1.571.1204-2.362.172 4.935.6708 9.883 1.3588 14.818 2.0297.458.0688.953.1548 1.274.602.248.344.347.8428.433 1.3072.384 2.1844.409 4.3344.409 6.5705-.149 3.2336-.359 6.3984-.842 9.5805-.222 1.5136-.915 1.6168-1.669 1.4448.42-.43.729-1.0492.754-1.7544.111-4.0077.223-8.0325.012-12.023-.049-.7568-.098-1.5308-.309-2.236-.148-.4644-.358-.8944-.655-1.204-.136-.1548-.297-.258-.446-.3612-.062-.0516-.111-.086-.185-.1204-.099-.0516-.186-.1204-.285-.1892-.161-.1032-.346-.1032-.519-.1548-.73-.172-1.46-.3612-2.19-.516-2.894-.6708-5.813-1.204-8.733-1.5824-1.905-.2409-3.81-.4301-5.653-1.0665 1.398-.1032 2.598-.3096 3.996-.3956.717-.0172 1.447-.0688 2.152-.1032z"/><path d="m289.048 240.289c.149-.929.248-1.858.31-2.804.099-1.582.086-3.165.086-4.764 0-1.359.112-2.787-.185-4.111-.223-1.032-.396-1.875-.359-2.976.037-1.273.062-2.683-.594-3.698-.717-1.101-1.917-1.204-2.993-1.221-1.843-.035-3.686-.052-5.529-.086 2.436-.413 4.861-.963 7.273-1.651.359-.104.742-.241.965-.637.222-.395.21-.946.198-1.445-.099-3.388-.161-6.776-.297-10.148-.074-1.874-.322-3.508-1.732-4.145-1.546-.688-3.253-.826-4.849-1.17-2.882-.602-5.776-1.135-8.671-1.616-5.789-.946-11.603-1.617-17.429-1.944 11.281.31 22.562 1.238 33.782 2.752.532.086.692 1.686.779 2.202.309 1.926.421 3.904.532 5.848.297 5.349.371 10.715.42 16.065v.275c.025 1.101.062 2.184.062 3.285.037 3.096.174 6.502-.062 9.546-.074.946-.21 1.892-.445 2.804-.099.413-.198.963-.396 1.29-.544.929-1.274 1.462-2.065 1.823.371-.619.668-1.324.865-2.064.149-.43.248-.912.334-1.41z"/><path d="m3.69093 40.578c-.14844-7.6713-.34636-15.3082-.60612-22.9623-.1608-5.0912 2.59763-9.46008 6.23431-9.85569 92.32688-10.19971 184.45688-10.45771 276.38788-.0344 3.674.41281 6.432 4.86769 6.209 9.99329-.296 6.7597-.556 13.5194-.791 20.279-.161 4.7301-.322 9.4773-.458 14.2246-.037.9288-.062 1.7372-.26 2.6144-.346 1.548-.272 3.2337-.544 4.8161-.099.4988-.21 1.032-.482 1.3932-.272.344-.644.4816-1.002.602-.037.0172-.062.0172-.099.0344.012-.0516.025-.1032.025-.1548.098-2.0812.358-4.2656.309-6.3469-.025-.7224-.136-1.3416-.074-2.0812.074-1.0148.098-2.0296-.099-3.0272-.52-2.5113-2.573-4.1969-4.404-3.5949 1.348-1.6512 3.884-.8084 4.849-2.924.519-1.1352.309-2.6144.074-3.9216-5.69-.8256-11.405-1.1525-17.12-.9632 4.911.3784 9.871-.3957 14.609-2.2533.767-.2924 1.559-.6708 2.066-1.5136.47-.7912.594-1.8748.693-2.8896.173-1.6856.284-3.4229.519-5.0913.074-.4988.26-.9288.334-1.4276.124-.774.062-1.6512.05-2.4424-.013-1.9092-.112-3.8185-.446-5.6761-.198-1.1352-.495-2.2188-.915-3.2336-.569-1.3932-.903-2.2704-2.091-2.8724-.729-.3785-1.509-.4817-2.276-.5849-2.548-.3096-4.292-.3612-6.828-.77396-3.513-.56761-7.038-1.06642-10.563-1.53082-4.763-.61921-9.525-1.16961-14.3-1.63402-2.387-.2408-4.774-.4472-7.162-.65361-.507-.0344-1.051-.1548-1.558-.0344-.409.10321-.718.13761-1.138.0344-1.138-.2752-2.276-.6708-3.439-.602-1.472.086-3.08 1.25561-3.365 3.25083-.383-.77401-.569-1.75442-.507-2.68323-.655.84281-1.2 1.84042-1.596 2.95844-.816-1.18682-1.373-2.71763-1.57-4.35165-2.883.4644-5.802.4472-8.684-.086-.408 1.46201-.816 2.90683-1.225 4.36885-1.459-3.26804-4.267-4.98806-7.026-5.43526-2.758-.44721-5.529.1548-8.3.4816-3.599.43001-7.223.39561-10.811-.1032-.433-.0688-.915-.1032-1.261.258-.235.24081-.359.63641-.47 1.01481-.347 1.18682-.607 2.44243-.78 3.69804-.358-2.06402-1.558-3.71524-2.944-4.60965-1.385-.89441-2.944-1.11801-4.478-1.10081-2.807.0172-5.591.80841-8.399.84281-1.546.0172-3.08-.1892-4.613-.4128-2.239-.34401-4.491-.75681-6.754-.63641-.557.0344-1.114.086-1.658.2064-.495.1032-.989.30961-1.484.30961-.322 0-.631-.15481-.94-.20641-.631-.1204-1.287-.0516-1.918-.0688-1.41-.0172-2.82-.0344-4.23-.0516-4.812-.086-9.636-.1548-14.448-.2408-4.824-.086-9.636-.1548-14.447-.2408-2.4-.0344-4.812-.086-7.224-.1032-.545-.0172-1.052-.17201-1.596-.13761-2.994.18921-6.012.37841-9.005.56761-2.486.1548-4.973.3096-7.447.46441-1.063.0688-1.905-.36121-2.9437-.53321-1.138-.172-2.3131-.2064-3.4016.344-1.5586.79121-2.8451 3.18204-2.3132 5.38366.1361-2.45962-1.4596-4.57525-3.1913-5.17725-1.7318-.60201-3.5378-.12041-5.2819.2752-4.4531 1.01481-8.968 1.41041-13.4706 1.16961-.1484 1.75442-.2845 3.50884-.4329 5.26322-.334-1.89198-.8782-3.698-1.5957-5.36642-.804 2.40803-1.0019 5.21162-.5195 7.79172-1.2122-2.3909-1.0019-6.2093-2.845-7.60252-1.8802-1.42761-4.1439 1.01481-6.2714.70521.0742 1.68562.1608 3.37124.235 5.03961-.1113-1.77157-.8906-3.35399-1.9297-4.3172-1.4843-1.37602-2.8326-.89441-4.4902-.72241-1.7936.1892-3.5748.3784-5.3684.58481-3.1914.3268-6.3828.6708-9.5865 1.01481-.6927.086-1.4349.2752-2.1276.1376-.4948-.1032-.9153-.3268-1.4349-.2924-7.8052.258-15.6723.8256-23.3786 2.61442-1.4102.32677-2.84505.72237-4.10676 1.66847-.80402.6192-1.53383 1.4792-2.02862 2.5456-.38346.8084-.49479 1.6684-.64322 2.5628-.09896.602-.35872 1.1696-.5319 1.7372-.37109 1.2384-.66796 2.5285-.74218 3.8529-.09896 2.0296.48242 4.2656 1.76886 5.246 1.52147 1.1696 3.52536.2924 5.07152 1.3932-1.80593-.3096-3.649-.1032-5.38076.6364-.25976.1033-.53189.2409-.70507.5505-.14843.258-.17317.602-.19791.9288-.11133 1.5308-.09896 3.096.04948 4.6268.07421.7396.22265 1.4792.25976 2.2188.04948.8257.06185 1.6685.09896 2.4941.13606 3.2852.29687 6.5876.43293 9.8729.02474.5504.11133.8772.09896 1.29-.1237-.0172-.24739-.0172-.37109-.0172-.14843-.0172-.30924-.0172-.4082-.1548-.09895-.1032-.12369-.2924-.14843-.4644-.35872-3.3541-.63086-6.8113-.6927-10.1653z"/><path d="m285.744 285.302c-90.843 9.684-182.984 9.598-276.39983-.017-3.66142-.379-6.43222-4.747-6.28379-9.839.03711-1.135.04948-2.27.06185-3.405.02474-.929-.04948-1.944.07422-2.855.04948-.327.1608-.602.19791-.929.11133-1.101.16081-2.219.22266-3.32.14843-2.219.30924-4.438.45767-6.656.01237-.207.02474-.413.03711-.602.02474-.344.06185-.723.21029-.998.13606-.258.34635-.378.569-.482 2.59763-1.427 5.47981-2.322 8.28771-2.287 3.0676.017 5.9621-.465 8.9927-1.067 1.2246-.24 2.4492-.464 3.6614-.705h.3216c.2351 0 .4701.017.7175.017.1855 0 .4205.069.5937.018-6.123 1.84-12.3325 2.975-18.52973 4.317-.8164.172-1.64516.344-2.3626.877-.06185.052-.11133.086-.17318.138-.8164.67-1.58332 1.874-1.57095 3.233.01237.637-.09895 1.273-.12369 1.909-.04948 1.222.08658 2.563.76692 3.423.4082.516.92772.774 1.44725.998 3.36458 1.496 6.88988 2.322 10.42758 2.442-2.8573-.034-5.7147-.068-8.55976-.103-.86588-.017-1.7565-.086-2.62237-.017-.58138.034-1.6328.034-2.05337.671-.17317.241-.23502.585-.2845.929-.21028 1.806.23502 3.663.19792 5.469-.02474 1.084-.04948 2.219.19791 3.251.48242 2.03 1.92967 3.354 3.4264 3.973.72981.275 1.48436.447 2.22654.585.38343.069.75453.103 1.13803.172.1855.034.3711.069.569.103.1732.035.3587.086.5319.086.0866-.017.1855-.069.2845-.069.2845-.034.5814 0 .8659 0h1.2617c1.5338-.017 3.08-.068 4.6262.035.7669.069 1.5339.137 2.3008.275.1731.034.334.086.5071.086.099 0 .1979-.052.3093-.069.0866-.017.1731-.017.2474 0 .7792.086 1.373.293 2.1028.482.4453.12.903.172 1.3236-.069.6927-.396 1.0885-1.428 1.2864-2.442.1979-1.015.2598-2.082.5937-3.01.1114 1.1-.0494 2.201-.0371 3.302.0124 1.101.2845 2.322.9772 2.855.4082.31.903.344 1.3731.362.7793.017 1.5585.051 2.3378.068.5443.017.9896-.189 1.5091-.258.7298-.103 1.5339.103 2.2637.172.804.086 1.5957.155 2.3997.224 3.2037.292 6.3951.585 9.5989.843.8535.069 1.7317.206 2.5976.206 7.9784.619 15.9569 1.101 23.9477 1.445 2.3997.103 4.8241.034 7.2115.275.3092.035.569.155.8658.258.6804.224 1.4349-.172 2.0658-.516 1.472-.808 2.7831-2.236 3.649-4.076.7793 3.595 3.6367 5.555 6.3209 5.934 2.6842.378 5.3809-.413 8.0779-.258.791.051 1.546-.052 2.313-.035.519.018 1.051.293 1.571.362.668.086 1.422.154 2.065-.155.211-.103.396-.258.606-.361.706-.327 1.559-.172 2.301-.19 1.744-.034 3.501-.034 5.245-.034 3.501.017 6.989.103 10.489.275 1.732.052 3.464.189 5.196.31.321.017.631.034.927-.086.223-.086.433-.241.668-.31.804-.223 1.695-.206 2.511-.223h.569c.619 0 1.138-.018 1.732-.19.705-.223 1.46-.034 2.165-.034h3.538c4.811.017 9.636.034 14.447.069 1.349.017 2.697.017 4.045.034.668 0 1.348 0 2.016.017 4.812.052 9.624.121 14.436.207s9.623.223 14.435.344c2.4.069 4.812.137 7.212.223 1.2.035 2.412.086 3.612.121.903.034 1.694.051 2.573-.344.371-.172.742-.275 1.138-.31.779-.086 1.571-.137 2.35-.189.247-.017.519.017.754-.103.396-.189.594-.379.99-.361.235.017.482-.052.717-.138.47-.172.916-.482 1.312-.86.853-.808 1.546-1.909 2.214-3.01.618 1.135 1.299 2.202 2.028 3.199.124.172.273.344.446.413.631.241.989-1.032 1.571-1.462.321.791 1.014 1.187 1.67 1.221.655.035 1.298-.223 1.942-.43 1.867-.602 3.822-.774 5.727-.516.235-.516.47-1.032.705-1.548.321 1.445 1.657 1.841 2.746 1.841.767 0 1.534-.069 2.301-.19.63-.103 1.298-.412 1.942-.292 1.348.241 2.709 0 4.069-.12 3.192-.276 6.383-.585 9.574-.895 3.192-.309 6.383-.636 9.575-.997 3.104-.345 6.221-.689 9.326-1.067.718-.086 1.447-.086 2.177-.12 2.375-.121 4.75-.276 7.125-.499 1.188-.121 2.375-.275 3.55-.447.594-.086 1.188-.155 1.782-.293.185-.034.334-.172.507-.241 1.076-.344 2.177-.412 3.043-1.479.593-.739.915-1.789 1.101-2.872.074-.551.136-1.118.173-1.686.062-1.066.173-2.115.161-3.216-.025-3.956-.062-7.895-.075-11.851 0-.396 0-.791-.012-1.17-.012-1.634-.05-3.268-.186-4.902-.061-.705-.235-1.496-.198-2.219.013-.206.05-.43.062-.636.013-.843-.309-1.789-.717-2.374-.285-.395-.594-.756-.903-1.135-.223-.275-.47-.499-.755-.671-.569-.361-1.175-.55-1.793-.739-1.435-.482-2.87-.964-4.317-1.428-.359-.12-.755-.275-1.039-.619.507-.086.643-.361 1.15-.379h.334c1.992.499 3.995 1.032 5.999 1.583.718.189 1.472.481 2.066 1.135.309.344.557.791.73 1.273.309.826.433 1.72.507 2.614.198 2.254-.062 4.472.111 6.708.099 1.153.161 2.288.198 3.44.074 2.219.149 4.455.223 6.674.062 1.995.136 3.991.198 6.003.235 5.194-2.548 9.598-6.21 9.976z"/><path d="m123.131 27.2129c14.411.9288 28.822 1.8576 43.158 4.1624 11.862 1.9093 23.688 4.7645 35.625 4.8849-26.966 2.3908-51.78-7.9981-78.783-9.0473zm57.024 46.8877c-.878.0344-1.768-.086-2.647-.1204-4.762-.172-9.524-.1032-14.274.1892s-9.5.774-14.238 1.4104c-2.375.3268-4.737.6709-7.112 1.0665-1.188.1892-2.363.3956-3.55.602-.594.1032-1.188.2064-1.782.3096-.433.086-.866.0344-1.286.086-.544.086-1.126.43-1.658.6536-.569.2236-1.138.4644-1.707.688-1.138.4472-2.276.8944-3.426 1.3416-2.288.8772-4.589 1.6856-6.902 2.408-1.918.602-3.847 1.1352-5.789 1.5996-4.614 1.1009-9.278 1.8061-13.953 2.1329-2.3382.1548-4.6761.2236-7.0263.1892-.5319-.0172-1.0885-.086-1.6081.0172-1.039.2064-2.0781.4128-3.1171.6192-1.1875.2408-2.3626.4816-3.5501.7052-.4453.086-.7917.3612-1.2122.4816-.569.1548-1.138.258-1.7194.3268-2.2884.2924-4.6015.1032-6.8899.2064-6.3333.2924-12.4934 2.8552-18.7524 4.1968-4.6758.9977-9.4257 1.3073-14.1509 1.5997.5319-.0344 1.0514-.0516 1.5833-.086 4.7871-.258 9.5617-.6364 14.3364-1.0836 4.7747-.4645 9.537-1.0149 14.2994-1.6685 2.3749-.3268 4.7623-.6708 7.1373-1.0492 1.3606-.2064 2.7337-.2924 4.1067-.4128 2.8821-.2408 5.7519-.5676 8.6216-.9632 5.7767-.7912 11.5167-1.8404 17.2557-3.01 22.933-4.7129 45.755-11.6274 69.01-12.4358zm-89.0241 117.6154c5.1705 2.562 10.6381 3.68 16.0681 4.558 2.759.447 5.517.825 8.263 1.29.705.12 1.41.275 2.115.395.532.086 1.064.121 1.596.224.173.034.322.12.482.189.458.189.99.138 1.472.241 1.052.241 2.078.671 3.093 1.049 1.299.482 2.634.929 3.983.791.977-.103 1.929-.499 2.907-.739 1.138-.276 2.288-.327 3.438-.31 2.326.052 4.651.447 6.94 1.066 1.026.276 2.053.62 3.067.998 1.101.413 2.19.895 3.291 1.376.742.327 1.385.31 2.14.258.989-.069 1.979.241 2.944.447 1.125.241 2.251.465 3.377.654 4.552.826 9.116 1.41 13.693 1.789 4.601.378 9.203.55 13.817.533 4.564-.017 9.129-.224 13.681-.602 1.731-.138 3.451-.378 5.183-.499-5.888.43-11.789.086-17.652-.636-2.969-.361-5.937-.826-8.894-1.342-.507-.086-1.039-.258-1.546-.258-.087 0-.173.017-.26.052-.235.069-.457.086-.705.103-2.115.086-4.243.052-6.358-.086-11.417-.757-22.649-4.696-34.078-5.246-2.091-.103-4.194.034-6.284.12-1.435.069-2.808-.069-4.218-.43s-2.82-.791-4.231-1.135c-2.152-.516-4.329-.654-6.494-.912-2.35-.275-4.7-.584-7.05-.946-2.338-.361-4.688-.791-7.0139-1.29-2.2389-.498-4.5149-1.066-6.7662-1.702zm61.5511-26.506c.965-.034 1.942-.069 2.907-.103.78-.035 1.559-.052 2.326.12.272.069.519.103.791.052.594-.086 1.176.086 1.757.241.284.068.495.017.767 0 .878-.052 1.806.137 2.684.223.94.086 1.893.189 2.833.293 1.966.206 3.933.447 5.888.705 15.635 2.012 31.357 5.005 47.091 3.234-18.344-1.738-36.688-3.475-55.033-5.212.829.086 1.955-.533 2.771-.774.94-.275 1.893-.551 2.833-.86.89-.275 1.793-.568 2.684-.877.495-.172 1.039-.276 1.521-.499.322-.138.644-.447.941-.637.63-.412 1.274-.808 1.917-1.186 1.286-.74 2.61-1.394 3.933-1.978 2.672-1.153 5.418-1.978 8.177-2.615 2.795-.636 5.616-1.049 8.436-1.359 2.845-.309 5.69-.533 8.535-.756 1.447-.121 2.882-.224 4.329-.362.495-.051.99-.086 1.448-.344.346-.189.643-.481.977-.705.643-.413 1.348-.499 2.053-.567 1.769-.207 3.525-.413 5.294-.62 3.08-.361 6.173-.722 9.265-.447 2.919.258 5.802 1.101 8.721 1.29 3.414.224 6.84-.413 10.23-1.049-6.804-.946-13.657-1.342-20.497-1.153-3.476.086-6.952.344-10.428.585-3.043.207-6.086.43-9.128.706-3.056.292-6.099.636-9.142 1.135-3.03.499-6.048 1.135-9.029 1.995-1.497.43-2.982.912-4.454 1.445-.433.155-.853.344-1.274.533-.173.069-.346.155-.532.155-.185 0-.334.103-.507.172-1.459.688-2.956 1.255-4.465 1.737-1.497.499-3.006.912-4.515 1.342-.21.051-.421.12-.631.172-1.571.447-3.142.894-4.725 1.324-1.571.447-3.142.894-4.725 1.324-.792.224-1.571.448-2.363.671-.396.103-.792.224-1.175.327-.161.052-.334.12-.495.103-.396-.017-.754.241-1.15.172-.668-.103-1.336.138-2.004.275-.792.155-1.571.31-2.363.465-1.571.309-3.154.585-4.725.825-3.154.482-6.321.809-9.5.792 3.921-.052 7.843-.19 11.751-.31zm-45.594 80.463c-1.88.24-3.81.206-5.69.189-1.9794-.017-3.9462-.121-5.9253-.293-3.9583-.344-7.8919-.946-11.8131-1.668-1.9667-.361-3.9335-.757-5.9003-1.152-.9401-.19-1.8678-.362-2.8079-.585-.1484-.035-.2969-.086-.4453-.155-.5938-.292-1.2741-.069-1.8926-.017-2.4492.241-4.9478.327-7.3723-.379-1.3112-.378-2.5853-.997-3.9088-1.204-1.2246-.206-2.4616-.051-3.6862-.275-1.0143-.172-2.0039-.602-2.9934-.946-6.8528-2.442-14.1014-1.703-21.0532.086 10.4524-1.72 20.9666 1.29 31.3695 3.526 1.8307.396 3.6614.757 5.5045.963 1.4967.172 2.9934.224 4.4778.534 1.4967.309 2.9687.842 4.4654 1.204.7422.172 1.4968.309 2.2513.344.3835.017.7546 0 1.1257-.035.3216-.034.6184.052.9524.069 3.1667.275 6.3457.464 9.5247.516 3.1171.052 6.2219-.017 9.3271-.258 1.509-.12 3.005-.275 4.49-.464zm152.518 9.133c-14.052.98-28.129 1.342-42.193 1.118 13.124 4.627 28.858 2.098 42.193-1.118z"/></g><path d="m123.194 25.8545c14.411.9288 28.822 1.8576 43.158 4.1624 11.863 1.9093 23.688 4.7645 35.625 4.8849-26.954 2.3908-51.767-7.9981-78.783-9.0473zm57.037 46.8877c-.235-.0172-.483-.0344-.718-.0344-4.774-.258-9.561-.2408-14.336 0-4.775.2236-9.537.6708-14.299 1.2728-.47.0516-.891.1376-1.349.3268-.457.1892-.927.1032-1.397.1032-1.163.0172-2.326.1548-3.464.3784-2.288.43-4.552 1.1181-6.84 1.6341-5.802 1.29-11.702 1.3244-17.565 1.2556 2.226.4128 4.44.8084 6.667 1.2212-2.783 1.8404-5.851 2.7004-8.881 3.4572-3.192.8084-6.408 1.5136-9.624 2.1328-4.701.8945-9.4134 1.5997-14.151 2.0985-2.3626.2408-4.7376.4472-7.1002.5848-.5937.0344-1.1874.0688-1.7812.1032-.4329.0172-.804-.086-1.2246-.1204-.8782-.0688-1.7317.3956-2.5976.344-.235-.0172-.4577-.1032-.6927-.086-.7917.0344-1.5957.2408-2.375.3612-1.5833.2408-3.179.4988-4.7623.7568-3.179.516-6.358 1.032-9.5247 1.5652-6.3456 1.0664-12.6912 2.1672-19.0369 3.3197-6.3456 1.1524-12.6789 2.3564-19.0121 3.5948-.2474.0516-.5072.1032-.7546.1548 14.621-1.5136 29.2543-3.01 43.7391-6.2093 3.7109-.8256 7.4342-1.7544 11.1822-1.72 1.5091.0172 3.0058.172 4.5149 0 .6556-.0688 1.3112-.344 1.9668-.2924s1.2865 0 1.9544-.0688c3.0801-.3268 6.1601-.7396 9.2402-1.2212 6.1843-.9632 12.3453-2.2016 18.4923-3.5433 6.173-1.3416 12.333-2.8036 18.493-4.214 6.148-1.4104 12.308-2.7692 18.493-3.9216 6.135-1.1525 12.295-2.0985 18.468-2.6661 2.733-.2924 5.504-.4644 8.275-.5676zm22.55 131.3238c-4.552.498-9.154.086-13.694-.207-3.451-.223-6.84-1.238-10.291-1.393-3.426-.155-6.865.206-10.304 0-8.016-.464-15.808-3.732-23.799-4.747-2.153-.275-4.317-.379-6.482-.499-1.868-.086-3.736-.189-5.591-.275-.507-.017-1.014-.052-1.521-.086-1.151-.086-2.301-.207-3.439-.482-.619-.155-1.225-.447-1.843-.533-2.882-.447-5.777-.757-8.671-1.032-2.944-.275-5.876-.585-8.808-.98-2.931-.396-5.851-.878-8.7698-1.462-1.5091-.31-3.0305-.637-4.5396-.998-.6927-.172-1.3978-.344-2.0905-.533-.5566-.155-1.1999-.207-1.7318-.482 10.1807 5.04 21.1897 4.593 31.7157 7.362.916.241 1.88.378 2.709.963.322.224.619.396.99.447 1.175.172 2.387.121 3.562.086 2.388-.069 4.775-.309 7.162-.327 1.967 0 3.921.74 5.876 1.153 1.781.378 3.562.671 5.356.911 1.039.138 2.103.241 3.105.706.445.206.779.412 1.237.464.556.069 1.125.241 1.682.344 2.264.447 4.54.826 6.803 1.152 4.589.654 9.191 1.084 13.805 1.325 4.614.224 9.215.258 13.829.103 4.54-.155 9.079-.482 13.607-.98.037.017.086 0 .136 0zm-26.731-44.342c.445-.207.903-.413 1.348-.62 2.301-1.032 4.688-1.754 7.038-2.58 1.299-.447 2.536-1.066 3.835-1.41 2.19-.585 4.441-1.376 6.667-1.634.359-.052.693 0 1.052.069.952.172 1.892-.207 2.832-.43 2.314-.533 4.651-.895 7.002-1.067.507-.034 1.026-.069 1.533-.086.273-.017.557-.068.817.018.21.068.42.086.643.068.433-.034.854-.206 1.274-.361.755-.275 1.522-.482 2.289-.619.309-.052.581-.086.865-.258.31-.189.668-.189 1.002-.258 1.534-.293 3.068-.551 4.602-.671 2.251-.172 4.49-.292 6.741-.378 2.227-.086 4.453-.121 6.68.189.643.086 1.274.206 1.917.327 3.018.602 6.037 1.53 9.104 1.41.755-.034 1.485-.206 2.227-.292.482-.052.903.137 1.373.189 1.237.155 2.523-.069 3.76-.12 1.88-.087 3.773-.173 5.653-.259 3.921-.189 7.843-.378 11.776-.567-8.052-.396-16.118-.791-24.17-1.187-8.09-.396-16.18-.791-24.257-.344-1.633.086-3.266.206-4.886.361-6.259.602-12.506 1.669-18.691 3.079-3.104.705-6.184 1.497-9.265 2.357-.395.103-.779.24-1.162.378-.099.034-.173.052-.272.052-.174 0-.334.103-.495.154-.371.138-.742.293-1.126.43-.829.31-1.657.654-2.499.895-1.484.413-2.981.653-4.465 1.032-1.336.344-2.659.791-3.983 1.273-1.472.533-2.932 1.118-4.416 1.616-.742.258-1.484.482-2.226.688-.372.104-.743.19-1.126.276-.161.034-.322.086-.483.051-.42-.069-.878.121-1.298.189-1.534.276-3.068.499-4.614.671s-3.093.275-4.639.327c-.581.017-1.163.017-1.744.017-.136 0-.284-.017-.408 0-.087.017-.173.086-.26.103-.297.069-.606.104-.903.155-.792.138-1.583.258-2.387.396-.297.051-.569.12-.866.241-.582.24-1.237.258-1.843.378-1.361.275-2.734.55-4.095.826-2.201.43-4.391.86-6.593 1.255 4.206.293 8.436.585 12.617-.189 1.794-.327 3.563-.86 5.344-1.29 1.262-.31 2.536-.568 3.822-.671 2.808-.223 5.629.275 8.412.791 2.375.43 4.737.86 7.112 1.29.854.155 1.546.155 2.388-.068.964-.258 1.979.034 2.956.154 4.775.654 9.549 1.342 14.336 1.91 4.763.567 9.537.997 14.324 1.152 2.264.069 4.54.086 6.804 0 1.15-.034 2.288-.103 3.439-.172 1.113-.086 2.251-.31 3.364-.31-18.344-1.737-36.688-3.474-55.033-5.211.829.086 1.955-.533 2.771-.774.742-.224 1.497-.499 2.252-.671.123-.034.259-.034.395-.034.235.017.458.051.705-.018.743-.206 1.472-.55 2.19-.842.965-.465 1.954-.929 2.944-1.376zm-68.887 84.59c-2.412.189-4.824.224-7.2237.155-1.5957-.052-3.1913-.155-4.7747-.292-.7916-.069-1.5957-.155-2.3873-.241-.7422-.086-1.5338-.103-2.2513-.344-.7422-.258-1.5586-.275-2.3255-.396-.7916-.12-1.5957-.258-2.3873-.378-1.5957-.258-3.179-.499-4.7747-.757 2.1276-1.875 4.7376-2.219 7.2239-2.666 4.0943-.74 8.1392-1.892 12.1096-3.457-6.8278.602-13.6311 1.685-20.3849 3.233-1.8431.43-3.6738.877-5.5417 1.118-.4081.052-.7669.086-1.1503.275-.6185.276-1.2988.138-1.9421.104-1.5709-.052-3.1419-.121-4.7128-.224-3.1295-.189-6.2591-.516-9.3638-1.118-.9896-.189-1.9792-.413-2.9688-.671-1.9296-.516-3.8593-1.152-5.8137-1.445-3.847-.584-7.7187.172-11.5285 1.101 1.8183-.017 3.6367-.017 5.455-.034 2.3626-.017 4.7376-.035 7.0878.241 1.571.189 3.1295.498 4.6881.877 1.5215.361 3.0182.877 4.5397 1.204 3.0429.636 6.0859 1.221 9.1412 1.772 3.0676.533 6.1477 1.014 9.2154 1.41 3.0676.396 6.1353.722 9.203.946 3.0306.224 6.0611.344 9.1041.327 2.9687 0 5.9373-.138 8.9063-.413.965-.103 1.905-.258 2.857-.327zm152.518 9.133c-14.052.981-28.128 1.342-42.193 1.118 13.124 4.627 28.859 2.099 42.193-1.118z" fill="url(#g)"/><g fill="#5f1b3d"><path d="m18.6816 20.8457h257.589v246.678h-257.589z"/><ellipse cx="147.476" cy="20.4367" rx="128.795" ry="11.0636"/><ellipse cx="147.476" cy="267.114" rx="128.795" ry="11.0636"/></g><g fill="#e58a4a"><path d="m23 23.168h249.724v240.129h-249.724z"/><ellipse cx="147.862" cy="22.7699" rx="124.862" ry="10.7699"/><ellipse cx="147.862" cy="262.899" rx="124.862" ry="10.7699"/></g></svg>