<svg fill="none" height="181" viewBox="0 0 292 181" width="292" xmlns="http://www.w3.org/2000/svg" xmlns:xlink="http://www.w3.org/1999/xlink"><linearGradient id="a"><stop offset="0" stop-color="#cf5c2b"/><stop offset="1" stop-color="#59173e"/></linearGradient><linearGradient id="b" gradientUnits="userSpaceOnUse" x1="218.526" x2="174.621" xlink:href="#a" y1="-89.5909" y2="64.3793"/><linearGradient id="c" gradientUnits="userSpaceOnUse" x1="211.588" x2="73.0462" xlink:href="#a" y1="-32.3428" y2="337.212"/><linearGradient id="d" gradientUnits="userSpaceOnUse" x1="198.791" x2="60.2498" xlink:href="#a" y1="-11.2431" y2="358.312"/><linearGradient id="e" gradientUnits="userSpaceOnUse" x1="246.513" x2="135.915" xlink:href="#a" y1="-118.143" y2="233.107"/><linearGradient id="f" gradientUnits="userSpaceOnUse" x1="215.524" x2="104.926" xlink:href="#a" y1="-49.1977" y2="302.052"/><linearGradient id="g" gradientUnits="userSpaceOnUse" x1="284.694" x2="173.19" xlink:href="#a" y1="-200.694" y2="138.945"/><path d="m291.991 166.711c-.074-1.219-.136-2.426-.21-3.645-.111-2.02-.222-4.04-.334-6.049-.025-.49-.049-.968-.074-1.458-.099-1.853.186-3.769-.952-5.456-.31-.448-.78-.906-1.386-.895.767-.219 1.188-.917 1.386-1.573.272-.926.408-2.124.42-3.081.012-.865-.074-1.75-.111-2.614-.037-.999-.087-1.989-.124-2.988-.087-1.999-.161-3.988-.235-5.987-.074-1.989-.148-3.978-.21-5.966-.013-.365-.025-.729-.037-1.094-.037-1.02-.062-2.03-.062-3.05 0-.781-.272-1.521-.878-2.124-.532-.532-1.374-.896-2.19-.781.656-.125 1.311-.354 1.794-.75 1.274-1.073 1.051-2.697 1.026-4.071-.049-1.968-.086-3.946-.136-5.914-.037-1.968-.074-3.926-.099-5.894-.024-1.957-.049-3.9146-.074-5.8721-.025-1.947-.037-3.9045-.049-5.8516-.013-1.9471-.025-3.8941-.025-5.8308 0-3.0403.012-6.0807.074-9.1315.025-1.2078.186-2.2802-.804-3.2381-.148-.1458-.309-.2707-.482-.3853-.075-.052-.446-.3228-.545-.2915.693-.1979 1.25-.6664 1.547-1.2183.148-.2707.247-.5726.259-.885.037-.7392.062-1.4889.075-2.2386.037-2.426.086-4.9562.16-7.4239.038-1.3119.087-2.6238.136-3.9358.05-1.1974-.568-2.2386-1.224-3.2902.594-.1666 1.002-.6455 1.163-1.1453.16-.4894.074-.9475.099-1.4473.099-1.8742.136-3.7588.21-5.6434.037-.9475.062-1.895.099-2.8425.012-.2291 0-.4582.037-.6872.025-.1354.087-.2603.087-.4061-.025-.4477-.211-.9475-.421-1.3536-.26-.4998-.68-.9579-1.262-1.187.074-.1561.285-.2186.458-.2811.779-.2811 1.323-.9683 1.373-1.6764.012-.177-.025-.3436-.037-.5101-.025-.5623.049-1.1454.086-1.7076.025-.6039.05-1.2079.087-1.8118.124-2.5093.247-5.0186.384-7.5279.272-4.925.581-9.8604.927-14.7853.223-3.10282-2.536-5.79957-6.222-6.04946-91.919-6.30976-184.048-6.14317-276.37513.03124-.4453.03123-.87824.09371-1.31118.19783-1.15038.27071-2.13995.85379-3.11716 1.41605-.51952.30195-.89061.86421-1.24933 1.29111-.43294.51019-.85351 1.04121-1.26171 1.57223-1.22459 1.6243-2.4739303 3.3735-2.37497298 5.3727.13606598 2.4572.25976298 4.9145.37108998 7.3718.061848 1.2598.123697 2.5301.173175 3.79.02474.6664.061848 1.3328.086588 1.9991.024739.4894-.01237.9996.074218 1.489.074218.4269-.037109.8954-.049479 1.3327 0 .5102.037109 1.0308.111327 1.541.049479.2707.111327.5519.272134.8018.51952.7809 1.81834.8642 2.64711 1.4264-.80403.0937-1.59569.2812-2.33787.5519-.11133.0416-.22265.0833-.2845.1666-.098959.1041-.098959.2499-.098959.3852.012369 1.3432.012369 2.6864.024739 4.0295 0 .5623-.086587 1.1766.11133 1.718.18554.5415.09895 1.2078.12369 1.7701.08659 2.6239.16081 5.2477.23503 7.8716.04948 1.6139.08658 3.2173.12369 4.8312.01237.7601.06185 1.5202.06185 2.2803 0 .1249-.02474.1978-.06185.3228-.18554.5518.04948 1.1453.39583 1.6138.75455.9996 2.10285 1.666 3.51299 1.7285-.68033.2082-1.36067.406-2.041.6143-.47004.1457-.9772.3019-1.23696.6664-.14844.1978-.19792.4373-.23503.6767-.53189 3.1341-.30924 6.3202-.1608 9.4751.14843 3.1445.14843 6.2889.17317 9.4334.01237 2.6447.02474 5.2998.02474 7.9445 0 2.6551 0 5.3102-.01237 7.9653-.01237 1.9056-.06185 3.8216-.03711 5.7266 0 .292.07422.531 0 .812-.21028.729-.24739 1.489.07422 2.197.37109.823 1.24934 1.51 2.28839 1.645-.65559.136-1.37303.302-1.76886.76-.27214.313-.34635.708-.39583 1.094-.08659.645-.1237 1.291-.13607 1.947 0 .552.13607 1.155-.01237 1.697-.30924 1.124-.21028 2.311-.22265 3.457-.02474 1.541-.06185 3.092-.08659 4.633-.04948 2.676-.11133 5.352-.18554 8.018-.06185 2.675-.14844 5.351-.22266 8.038 0 .593-.03711 1.197-.04948 1.801-.01237.469.07422 1.041-.04948 1.489-.04947.187-.13606.354-.17317.552-.086589.479-.123698.989.09896 1.447.25976.531.87824.937 1.55857 1.02-.61848-.114-1.16274.407-1.28644.927-.11133.458-.04948.937-.17318 1.395-.04947.188-.07421.386-.11132.583-.06185.386-.11133.761-.160809 1.146-.086587.77-.123697 1.541-.123697 2.301 0 .135 0 .271.074218.385.061849.115.173178.198.296868.271.80403.541 1.7565.927 2.75844 1.124-.79166.219-1.58332.438-2.37498.656-.18554.052-.38346.104-.51952.219-.259765.208-.284504.552-.284504.854-.01237.666-.01237 1.343-.024739 2.009 0 .24-.098958.458-.111327.698-.02474.333-.02474.677-.03711 1.01-.061848 1.343-.111326 2.686-.173175 4.029 0 .094-.012369.188-.012369.282-.123697 2.696-.247394 5.393-.38346 8.09-.148436 3.082 2.622364 5.726 6.271424 5.956 93.41565 5.82 185.55695 5.872 276.39995.02 1.485-.093 2.919-.614 4.02-1.457.235-.177.532-.344.743-.542 1.348-1.228 2.993-3.155 3.735-4.727.433-1.062.854-2.051.779-3.196z" fill="url(#b)"/><path d="m285.744 172.709c-90.843 5.862-182.984 5.81-276.39983-.011-3.66142-.229-6.43222-2.874-6.28379-5.956.03711-.687.04948-1.374.06185-2.061.02474-.562-.04948-1.177.07422-1.729.04948-.197.1608-.364.19791-.562.03711-.187.06185-.385.07422-.583.06185-.479.09896-.947.14844-1.426.14843-1.344.30924-2.687.45767-4.03.01237-.125.02474-.25.03711-.364.02474-.209.06185-.438.21029-.604.13606-.156.34635-.229.569-.292 2.59763-.864 5.47981-1.405 8.28771-1.385 3.0676.011 5.9621-.281 8.9927-.645 1.2246-.146 2.4492-.281 3.6614-.427h-1.2369c-2.7337-.01-5.4922-.094-8.2135-.281-1.5709-.104-3.1419-.24-4.7128-.406-.8164-.073-4.68813-.188-6.53121-.75-.59375-.177-.98958-.396-1.00195-.687-.04948-1.062-.04948-2.124.02474-3.197.02474-.395-.09896-1.249.1237-1.593.30924-.458.14843-.218.75455-.427.61848-.218 1.12564-.479 1.80597-.593.6927-.115 1.39777-.167 2.11521-.229 2.52339-.219 5.04679-.427 7.58259-.635-.6432-.032-1.2864-.063-1.9297-.104-2.9563-.146-5.92502-.302-8.869-.459-.47005-.031-.9401-.052-1.41014-.072-.19792-.011-.42057-.042-.50716-.177-.03711-.063-.03711-.157-.03711-.229.08659-1.625.18555-3.26.27213-4.884.21029-3.998.42057-8.007.51953-12.015.03711-.552.04948-1.094.06185-1.635.07422-3.415-.18555-6.883.33398-10.267.04948-.312.33398-3.717.32161-3.717 9.17831-.562 18.39371-.843 27.60911-.833.7298 0 1.472 0 2.2018.011-.235-.021-.4824-.042-.7298-.052l-.0124-.011c-3.6243-.291-7.261-.614-10.8606-.947-1.942-.177-3.884-.365-5.8013-.604-1.571-.188-3.1172-.5-4.6758-.719-.4948-.072-.9648-.031-1.4596-.01-1.4472.031-3.00582-.458-4.41596-.708-.11133-.021-.21028-.042-.33398-.062-.27213-.053-.54427-.146-.76692-.282-.49479-.322-.65559-.864-.70507-1.405-.02474-.177-.02474-.365-.02474-.542 0-1.426-.17318-2.801-.27213-4.2166-.11133-1.6451.02474-3.2902.02474-4.9249.02474-3.9775.02474-7.9549.01237-11.9324 0-.9266-.01237-1.8533-.01237-2.7696-.01237-3.0508-.03711-6.0911-.06185-9.1315-.01237-1.0516.11133-2.124-.24739-3.134-.37109-1.01-.11133-2.3532.0371-3.3944.03711-.2603.08659-.5206.28451-.7288.18554-.1666.45767-.2707.71744-.3332 2.04099-.5623 4.23045-.4998 6.37035-.5727 2.0905-.0625 4.1933-.2811 6.2467-.6247.2845-.0417.5814-.0833.8659-.1458-3.3275-.2603-6.6673-.5102-9.89575-1.2286-1.01431-.2291-2.06573-.5102-2.91924-1.01-.17318-.0833-.33398-.1874-.47005-.2915-.79166-.5519-1.37303-1.364-1.3854-2.2282-.01237-.1042.01237-.1979.03711-.2916.01237-.0833.03711-.177.06185-.2811.17317-.5519.04948-1.1766.03711-1.7493l-.07422-2.7175c-.03711-1.6556-.06185-3.3111-.11133-4.977-.04948-1.6243-.06185-3.2278-.33398-4.8417-.14844-.8017-.07422-1.6243-.1237-2.426-.06185-.9892-.03711-1.9783.11133-2.9675.06185-.531.18555-1.0829.47005-1.5722 0 0 0-.0104.01237-.0104.30924-.4998.81639-.9684 1.53384-.9475 1.06379.052 2.13995-.1354 3.20374-.2187 2.36257-.1978 4.73757-.3644 7.12497-.4894 4.8612-.2707 9.7472-.406 14.6333-.4789 2.3749-.0313 4.7623-.0417 7.1373-.0521h.3463c2.14-.0104 4.3047-.0625 6.4446.0208-4.5891-.1978-9.1783-.4581-13.7674-.7913-2.375-.177-4.7624-.3748-7.1373-.5831-4.0573-.3644-8.2753-.3227-12.246-.6455-2.21416-.1874-4.45307-.2916-6.66724-.3228-.1237-.0104-.24739-.0104-.37109-.0104-.14843-.0104-.30924-.0104-.4082-.0937-.09896-.0625-.12369-.177-.14843-.2811-.35872-2.0304-.63086-4.1233-.69271-6.1536-.06184-1.6764-.11132-3.3632-.19791-5.0395-.11133-2.9571-.24739-5.9037-.4082-8.8608-.1608-3.08196 2.59763-5.72665 6.23431-5.96613 92.32757-6.17441 184.45657-6.33059 276.38757-.02082 3.674.24989 6.432 2.94664 6.21 6.04945-.297 4.092-.557 8.184-.792 12.2759-.099 1.7805-.198 3.5714-.297 5.3623-.062 1.0725-.099 2.1657-.161 3.2486-.037.5623-.061 1.0516-.259 1.5826-.347.9371-.272 1.9575-.545 2.9154-.099.302-.21.6248-.482.8434-.272.2083-.643.2916-1.002.3645-.037.0104-.062.0104-.099.0208-4.169.833-8.411 1.364-12.691 1.6139-.792.052-1.571.0729-2.363.1041 4.936.4061 9.884.8225 14.819 1.2286.458.0417.952.0937 1.274.3644.247.2083.346.5102.433.7914.087.2915.148.5831.198.8746.198 1.0204.198 2.0408.198 3.0924-.149 1.9575-.359 3.8733-.841 5.7996-.223.9162-.916.9787-1.67.8746-.47-.0729-.99-.2187-1.398-.2707-1.163-.1354-2.338-.2395-3.525-.3124-2.351-.1666-4.726-.1978-7.088-.2082-1.534 0-3.08.0208-4.614.0416-6.407.0729-12.815.1562-19.21.2187.074.0208.173.0312.247.052 7.187 1.3016 14.708.6039 22.018 1.4057 2.944.3228 5.888.885 8.857.7392 1.101-.052 2.239-.2186 3.315.0417.977.2186 1.546.8225 2.066 1.4993.556.7289.73 1.6556.804 2.5718.062.5207.062 1.0517.099 1.5306.198 2.9154-.062 5.8204-.272 8.7254-.05.5102-.075 1.0308-.112 1.541-.024.3749-.062.7705-.358 1.0517-.211.1874-.52.2811-.829.354-.013 0-.037.0104-.05.0104-.643.1457-1.373.2603-2.041.2186-.222-.0104-.42-.052-.63-.052-.805.0624-1.633.2915-2.45.3956-.791.0937-1.583.1562-2.387.1666.322.0625.631.125.952.1874 2.202.4269 4.404.8642 6.606 1.2911.284.0521.594.125.804.2812.866.6768.655 2.9779.742 3.8629.161 1.6868.235 3.3839.26 5.0811.025.8122.025 1.6139.025 2.4156 0 1.4057-.025 2.8009-.05 4.2065-.012.9788-.025 1.9575-.037 2.9363-.037 4.092-.099 8.1835-.136 12.2755-.025 1.823-.037 3.645-.037 5.467 0 1.957.309 5.31-.891 7.059-.334.5-.928.792-1.608.958-.594.156-1.249.208-1.855.25-10.007.552-20.002 1.125-30.009 1.687-.05 0-.099.01-.149.01h-.049c-.037.011-.062.011-.087.011.211 0 .433.01.644.01 11.281.187 22.562.75 33.781 1.666.532.052.693 1.02.779 1.333.26.989.384 2.009.47 3.019.025.167.05.354.062.521.297 3.238.371 6.487.421 9.725v.166c.012.313.025.615.037.927.012.365.025.719.037 1.062.037 1.874.173 3.936-.062 5.779-.074.573-.21 1.145-.445 1.697-.099.25-.198.583-.396.781-.544.562-1.274.885-2.066 1.104-.272.083-.556.156-.828.208-1.856.416-3.736.75-5.641 1.01.198.031.371.052.569.094 1.992.302 3.995.624 5.999.958.718.114 1.472.291 2.066.687.309.208.557.479.73.77.223.375.346.76.445 1.166.025.146.05.282.062.417.198 1.364-.062 2.707.111 4.061.099.697.161 1.384.198 2.082.074 1.343.149 2.697.223 4.04.062 1.208.136 2.416.198 3.634.235 3.113-2.548 5.779-6.21 6.008z" fill="url(#c)"/><path d="m290.841 28.3742c-.062 1.0724-.099 2.1657-.161 3.2486-.037.5622-.062 1.0516-.26 1.5826-.346.9371-.272 1.9575-.544 2.9154-.099.302-.21.6248-.482.8434-.273.2083-.644.2916-1.002.3644-.038.0104-.062.0104-.099.0209-4.169.8329-8.412 1.364-12.692 1.6138-.791.0521-1.571.0729-2.362.1042 4.935.406 9.883.8225 14.819 1.2286.457.0417.952.0937 1.274.3644.247.2083.346.5102.433.7914.086.2915.148.583.198.8746-6.433-.354-12.877-.5102-19.458-.5519-47.067-.2915-94.071 1.9471-140.841 6.3931-23.379 2.2178-46.7202 4.5501-70.173 6.1328-18.035 1.2182-36.5648 2.9674-54.83476 2.8529.01237-.0833.03711-.177.06185-.2811.17317-.5519.04947-1.1766.0371-1.7493l-.07421-2.7176c7.52072-.5622 15.04152-.8954 22.61172-1.3639 13.3345-.833 26.6443-1.8014 39.954-2.9363 47.4373-4.0399 94.5663-9.652 142.2393-11.5991 3.475-.1354 6.951-.2707 10.44-.3853-8.894-.4165-17.8-.8225-26.694-1.1349-11.925-.4269-23.898-.9787-35.835-.9059-12.444.0938-24.851.8538-37.282 1.135-24.7025.5622-49.3676 1.7596-74.0946 2.0303-12.2336.1354-24.9125.7601-37.01004-.9683-1.43488-.2082-2.86976-.4269-4.30464-.6664.30924-.4998.81639-.9683 1.53383-.9475 1.0638.0521 2.13996-.1353 3.20375-.2186 2.3626-.1979 4.7376-.3645 7.1249-.4894 4.8613-.2707 9.7473-.4061 14.6333-.479 2.375-.0312 4.7624-.0416 7.1373-.052h.3464c2.1399-.0104 4.3046-.0625 6.4446.0208-4.5892-.1978-9.1783-.4581-13.7675-.7913-2.3749-.177-4.7623-.3749-7.1373-.5831-4.0572-.3644-8.2753-.3228-12.2459-.6456-2.21419-.1874-4.4531-.2915-6.66727-.3227-.1237-.0104-.24739-.0104-.37109-.0104-.14844-.0105-.30924-.0105-.4082-.0938-.09896-.0624-.1237-.177-.14844-.2811-.35872-2.0304-.63085-4.1232-.6927-6.1536-.06184-1.6763-.11132-3.3631-.19791-5.0395 4.21805-.4581 8.46081-.8329 12.71601-.9995 13.9654-.5519 27.9925-.4269 41.9703-.9996 24.2074-.9787 48.7492-2.5197 72.9812-1.2911 24.046 1.2182 47.994 3.7067 71.966 5.5913 25.024 1.9679 50.073 3.7588 75.109 5.6018 4.193.3019 8.399.6247 12.605.9475zm-1.027 94.4278c-.086-.312-.247-1.291-.779-1.333-11.232-.916-22.501-1.478-33.782-1.666-.21 0-.433-.01-.643-.01.037 0 .062 0 .087-.01h.049c.05 0 .099-.011.149-.011 10.007-.562 20.001-1.135 30.008-1.687.606-.041 1.262-.093 1.856-.25.68-.166 1.262-.458 1.608-.957 1.2-1.75.89-5.102.89-7.06 0-1.822.013-3.644.038-5.466-46.09-1.177-92.154-2.895-138.12-5.6229 1.954-.3956 3.921-.7913 5.875-1.1765 17.479-3.4048 35.068-5.2478 52.98-5.987 26.496-1.0725 53.127-.0833 79.438-2.4365.024-1.4056.049-2.8009.049-4.2065-27.213.7289-54.476-.1978-81.677.5102-17.144.4581-34.103 1.9887-50.938 4.7584-12.617 2.072-25.147 4.6021-37.814 6.4451-16.081-1.1245-32.1611-2.3844-48.2417-3.8109-12.1594-1.0724-24.3064-2.2594-36.4287-3.5713-.6432-.0625-1.2864-.1146-1.9296-.177 6.9641-1.4994 14.0519-2.6239 21.1026-3.5298 19.2596-2.5197 38.8408-3.6442 58.2484-5.0915 41.624-3.082 83.335-5.5393 125.045-7.705 17.516-.9163 34.994-1.6972 52.101-4.6438.198-2.905.47-5.81.272-8.7254-.037-.4894-.049-1.01-.098-1.5306-15.054-1.6451-30.281-1.4993-45.57-.9579-21.239.7601-42.465 1.6451-63.679 2.8946-41.81 2.4676-83.9409 4.7271-125.4782 9.5791-17.1197 1.9992-33.6208 5.2998-49.33025 10.8912 0 .9266.01237 1.8533.01237 2.7696.01236 3.9774.01236 7.9549-.01237 11.9323 0 1.6347-.13607 3.2799-.02474 4.925.09895 1.4161.27213 2.7901.27213 4.2171 0 .177 0 .364.02474.541 3.88407.833 7.90422 1.375 11.72642 2.041 10.8853 1.916 21.8325 3.238 32.8538 4.498 22.4262 2.551 44.8896 4.79 67.4151 6.633 44.32 3.633 88.913 5.435 133.406 6.882 13.174.417 26.36.791 39.546 1.114-.123-.999-.247-2.02-.507-3.009zm.928 28.519c-.173-.292-.421-.562-.73-.771-.594-.395-1.348-.572-2.066-.687-2.004-.323-4.007-.645-5.999-.958-.198-.041-.371-.062-.569-.093 1.905-.261 3.785-.594 5.641-1.01.272-.052.556-.125.828-.209.792-.218 1.534-.541 2.066-1.103.198-.198.297-.531.396-.781.223-.552.359-1.125.445-1.697.235-1.854.099-3.905.062-5.779-.012-.354-.025-.708-.037-1.062-36.713 1.135-73.365 1.77-110.102.239-40.326-1.676-80.651-4.893-120.8521-7.965-11.4914-.875-22.9457-1.874-34.4371-2.561-6.6549-.396-13.8046-1-20.81815-.969-.09896 3.999-.30924 8.018-.51953 12.016 4.92313 1.114 9.99468 1.895 14.67038 2.551 10.3411 1.447 20.6698 2.592 31.0974 3.446 20.3976 1.697 40.8199 3.082 61.2541 4.54 11.653.843 23.317 1.645 34.969 2.395-8.485.614-16.971 1.176-25.493 1.572-21.9071 1.041-43.789 2.697-65.7204 3.582-16.9588.697-33.8434.354-50.75274-.011-.01237.115-.02474.24-.03711.365-.14843 1.343-.30924 2.686-.45767 4.029-.04948.479-.08659.948-.14844 1.427 16.15476 2.374 32.87856 2.259 49.20656 1.655 21.9561-.812 43.7144-2.707 65.4478-5.341 22.909-2.791 46.399-3.769 69.518-4.956.42-.021.853-.042 1.261-.052 15.104.604 30.219.958 45.372.947 19-.021 37.975-.396 56.901-1.593-.037-.406-.161-.802-.396-1.166z" fill="url(#d)"/><path d="m65.4052 163.065c-1.6451.687-3.1419.989-4.651.927.4206.25.8041.531 1.0886.958.5195.781.569 1.718 0 2.488-1.1628 1.562-3.5996 1.458-5.4674.989-1.8307-.458-3.3522-2.29-3.3027-3.883.0371-1.187 1.1132-2.01 2.4863-2.135-1.1999-.645-2.3503-1.416-3.3275-2.228-2.6718-2.218-4.5644-6.102-3.3027-9.163.5814-1.416 2.5853-2.717 4.515-2.103 2.3502.75 4.4159 1.864 6.5559 2.999.569.302 1.1256.614 1.7317.874.2969.125 1.4102.51.5814.229 2.3255.802 3.9088 1.656 5.1582 3.499 1.4843 2.155.804 5.362-2.0658 6.549zm-20.1625-18.461c-.1114-.145-.2103-.291-.2969-.447-.3464-.49-.8288-.875-1.4225-1.167-.6185-.291-1.2865-.437-2.0039-.447-.804.073-1.2246.125-1.8802.375-.6061.187-.9772.447-1.3854.895-.6927.77-.8782 1.957-.5566 2.842.2474.688.7298 1.25 1.4225 1.687.6556.417 1.5462.75 2.3997.698.5319-.031 1.0762-.073 1.6081-.188 2.1152-.458 3.3645-2.696 2.1152-4.248zm196.5043-21.969c-.532-1.604-2.412-2.749-4.428-2.76-.705-.01-1.311-.166-2.103-.166-1.262 0-2.35.437-3.476.822-1.843.636-3.55 1.469-4.502 2.978-.903 1.437-.706 3.447.853 4.519-.235.198-.47.385-.742.583-1.138.802-.272 2.707 1.286 2.562.532-.052 1.064.072 1.596.083.755.01 1.447-.115 2.152-.312.569-.167 1.175-.302 1.72-.511.408-.156.717-.333.989-.624.087-.094.718-.875.322-.552.185-.156.309-.344.359-.531 1.311-.302 2.313-.75 3.24-1.458.211-.125.409-.25.619-.375 1.67-1.02 2.697-2.53 2.115-4.258zm-5.875-7.455c-.396-.084-.866-.23-1.274-.188-.446.052-.916.302-1.324.469-.458.177-.619.697-.421 1.062.211.395.705.583 1.225.489.396-.073.903-.094 1.262-.271.334-.156.569-.489.804-.728.272-.282.222-.729-.272-.833zm9.722-10.131c-.111-.23-.235-.459-.346-.688-2.598-1.499-4.688-1.655-6.259-.468-.322.25-.619.531-.829.843-.915 1.322-.507 3.27 1.225 4.019.903.396 1.942.562 2.944.313.519-.125 1.026-.344 1.533-.521.26-.156.508-.323.767-.479.371-.281.631-.614.78-1 .296-.583.494-1.405.185-2.019zm-10.341-62.7962c-.185-.6664-.371-1.2911-.891-1.843-.569-.6039-1.385-.9683-2.164-1.3639-.643-.3228-1.262-.6768-1.992-.8643-.754-.2082-1.633-.2082-2.424-.2394-1.373-.0625-2.264.6663-2.585 1.5826-1.98-1.4993-5.023-2.3635-7.41-2.7904-2.573-.4686-9.017-.2603-8.498 3.1548.421 2.6864 2.796 4.2898 5.492 5.6643 2.61 1.3327 4.899 2.3531 7.608 2.0928 2.226.2187 4.948.4894 6.011-1.5931.297-.5726.347-1.1141.26-1.6347.544.3332 1.089.6768 1.769.8226.94.2082 1.905.0104 2.845-.1041 1.546-.1979 2.288-1.7805 1.979-2.8842zm-31.011 1.7701c-.569-.4582-1.113-.958-1.769-1.3328-.804-.4581-1.608-.531-2.535-.6664-.792-.1145-1.645-.3227-2.437-.2499-.792.0729-1.361.5102-1.93.9267-.297.2187-.396.6039-.297.9059.186.5206.371 1.0828.854 1.4785.606.4998 1.67.708 2.461.9683.792.2603 1.497.5415 2.363.5311.854-.0105 1.757-.2395 2.598-.3853 1.162-.2082 1.509-1.5202.692-2.1761zm29.341 15.6078c-.111-.708-.618-1.2286-1.212-1.718-.829-.6768-1.855-.8538-2.932-1.1037-.878-.1978-1.843.0833-2.387.6664-.581.6143-.594 1.3848-.173 2.072.148.2499.309.4998.458.7601.334.5622.791.9683 1.422 1.3327.619.3541 1.274.6039 2.041.6352.854.0312 1.769-.3124 2.288-.8642.495-.5311.607-1.1245.495-1.7805zm-56.554 59.9533c-3.686-1.739-9.821-1.198-12.741 1.135-1.843 1.478-1.929 4.227 0 5.695 4.256 3.228 11.739 1.854 14.448-2.145.05-.041.099-.083.161-.114 2.041-1.572.581-4.186-1.868-4.571zm-20.162-2.551c-1.04-.458-1.881-.823-3.105-.614-.804.135-1.621.343-2.388.572-1.002.292-1.694 1.021-1.533 1.927.173.926 1.014 1.405 2.102 1.52.817.083 1.683.145 2.511.135 1.213-.031 1.93-.583 2.796-1.187.866-.625.594-1.916-.383-2.353zm-113.2695-87.8579c-1.6575-1.9679-5.1953-1.593-7.3105-.3956-.8535.4789-1.8554 1.0828-2.5976 1.6972-.6556.531-.9772 1.1661-1.1751 1.8846-.0495.2915-.099.583-.1361.8642.0866-.3332.0866-.302-.0124.0937-.3834 1.5722.8288 2.9987 2.8451 3.0611h.2721c.0371.0105.0742.0209.1237.0313 1.1627.2395 2.276.0937 3.3398-.354.7051-.302 1.4225-.6664 2.0905-1.0204 2.2636-1.2078 4.3665-3.7172 2.5605-5.8621zm-13.9035 1.2599c-.9277.2291-1.8183.4894-2.4368 1.1349-.5319.5415-1.0143 1.1037-1.4349 1.7076-.6556.9475-.3093 2.3219.9153 2.8425 1.2617.5519 2.6966.2291 3.4759-.7496.1608-.1979.3216-.3853.4824-.5831.0124-.0104.0248-.0208.0371-.0417.1114-.1041.2103-.2082.3217-.3019.4205-.3853.7174-.7497.9153-1.2599.0866-.2186.1732-.4477.2845-.6664.569-1.2182-1.1504-2.426-2.5605-2.0824zm27.5101-9.2668c-.6679-.0937-1.472-.177-2.0781.1458-.4205.2186-.7298.5622-1.0638.8642-.47.4373-.6679 1.1141-.2597 1.6347.4205.531 1.1132.7392 1.8554.6247.4701-.0729 1.0514-.1041 1.4596-.3124.6185-.3227.9278-.8329 1.1752-1.3744.2968-.6143-.3093-1.4785-1.0886-1.5826zm67.8479 46.761c.074-.1041.148-.2083.198-.3228.729-1.4056.532-3.0299-1.237-3.8837-.248-.1146-.495-.2083-.742-.302-1.806-1.2182-3.81-1.5514-6.222-1.4056-2.351.1457-4.416 1.1245-6.532 1.9054-2.931 1.0829-3.785 4.4252-2.647 6.6325.347.6768.854 1.2495 1.448 1.7285-1.819.6663-3.476 1.4577-4.788 2.2073-.717.4061-1.249.8642-1.645 1.3536-1.558 1.1349-2.201 2.6655-.692 4.7271 2.845 3.9046 11.046 2.8738 15.313 1.5306 2.586-.8121 5.542-1.9575 6.89-4.0607 1.522-2.3532.396-5.1853-2.325-6.4868 1.459-.833 2.56-1.9887 2.981-3.6234zm-28.7845 9.1106c-.7174-.1353-1.1256.1562-1.7194.3853-.0123.0104-.0865.0312-.136.052-.0619.0209-.1732.0521-.1856.0521-.2102.052-.4205.1041-.6308.1353-.9277.1666-1.373 1.0725-1.0267 1.7493.3835.7497 1.3978.9683 2.2513.6247.4824-.1978.9277-.4477 1.3483-.7288.4948-.3228 1.0638-.7393 1.0019-1.312-.0495-.4269-.3463-.8538-.903-.9579zm-9.203-4.6022c-.1237-.052-.2598-.0833-.3835-.1353-1.9915-1.2703-4.9973-.5414-6.7167.7705-1.2864.9787-2.3378 2.1865-2.6224 3.6234-.1979 1.0308-.0618 1.9783.8907 2.7488.8287.6768 2.2141 1.0517 3.3521.7289 2.6843-.7601 6.3457-2.3115 6.692-4.8104.0371-.0938.0743-.177.1114-.2708.3958-.8746-.2598-2.2594-1.3236-2.6551zm186.9675 90.2634c-.235-.875-1.051-1.666-1.979-2.114-1.707-.823-3.798-.51-5.22.552-.73.541-1.447 1.083-2.177 1.635-1.46 1.093-1.472 3.05-.309 4.279 1.199 1.281 3.389 1.655 5.133.843.853-.406 1.719-.801 2.573-1.208 1.719-.812 2.387-2.467 1.979-3.987z" fill="#eb924d"/><path d="m66.2835 161.535c-1.6452.688-3.1419.989-4.651.927.4205.25.804.531 1.0885.958.5195.781.569 1.718 0 2.488-1.1628 1.562-3.5996 1.458-5.4674.99-1.8307-.459-3.3522-2.291-3.3027-3.884.0371-1.187 1.1133-2.01 2.4863-2.135-1.1999-.645-2.3502-1.416-3.3274-2.228-2.6719-2.218-4.5644-6.101-3.3027-9.163.5813-1.416 2.5852-2.717 4.5149-2.103 2.3502.75 4.416 1.864 6.5559 2.999.569.302 1.1257.614 1.7318.875.2968.124 1.4101.51.5813.229 2.3255.801 3.9088 1.655 5.1582 3.498 1.4843 2.155.7916 5.362-2.0657 6.549zm-20.1626-18.46c-.1113-.146-.2103-.292-.2969-.448-.3463-.49-.8287-.875-1.4225-1.166-.6185-.292-1.2864-.438-2.0039-.448-.804.073-1.2246.125-1.8801.375-.6062.187-.9773.448-1.3855.895-.6927.771-.8782 1.958-.5566 2.843.2474.687.7298 1.249 1.4225 1.687.6556.416 1.5462.749 2.3997.697.5319-.031 1.0762-.073 1.6081-.187 2.1152-.448 3.3645-2.687 2.1152-4.248zm196.0961-21.262c-.532-1.604-2.412-2.749-4.428-2.759-.705-.011-1.311-.167-2.103-.167-1.262 0-2.35.437-3.476.823-1.843.635-3.55 1.468-4.502 2.978-.903 1.436-.706 3.446.853 4.518-.235.198-.47.386-.742.584-1.138.801-.272 2.707 1.286 2.561.532-.052 1.064.073 1.596.083.755.011 1.447-.114 2.152-.312.569-.167 1.175-.302 1.72-.51.408-.157.717-.334.989-.625.087-.094.718-.875.322-.552.185-.156.309-.344.359-.531 1.311-.302 2.313-.75 3.24-1.458.211-.125.409-.25.619-.374 1.67-1.01 2.697-2.52 2.115-4.259zm-5.875-7.455c-.396-.083-.866-.229-1.275-.188-.445.053-.915.302-1.323.469-.458.177-.619.698-.421 1.062.211.396.705.583 1.225.489.396-.072.903-.093 1.262-.27.334-.156.569-.49.804-.729.272-.271.21-.729-.272-.833zm9.722-10.121c-.111-.229-.235-.458-.346-.687-2.598-1.499-4.688-1.655-6.259-.469-.322.25-.619.532-.829.844-.915 1.322-.507 3.269 1.225 4.019.903.396 1.942.562 2.944.312.519-.125 1.026-.343 1.533-.52.26-.156.507-.323.767-.479.371-.281.631-.615.78-1 .296-.593.482-1.416.185-2.02zm-9.945-63.5035c-.186-.6664-.371-1.2911-.891-1.8429-.569-.6039-1.385-.9684-2.164-1.364-.644-.3228-1.262-.6768-1.992-.8642-.754-.2083-1.633-.2083-2.424-.2395-1.373-.0625-2.264.6664-2.586 1.5826-1.979-1.4993-5.022-2.3635-7.409-2.7904-2.573-.4686-9.018-.2603-8.498 3.1549.421 2.6863 2.796 4.2898 5.492 5.6642 2.598 1.3327 4.898 2.3531 7.607 2.0928 2.227.2187 4.948.4894 6.012-1.593.297-.5727.346-1.1141.26-1.6347.544.3331 1.088.6767 1.769.8225.94.2083 1.905.0104 2.845-.1041 1.558-.2083 2.3-1.7909 1.979-2.8842zm-31.011 1.7597c-.569-.4582-1.113-.9579-1.769-1.3328-.804-.4581-1.608-.531-2.535-.6664-.792-.1145-1.646-.3227-2.437-.2498-.792.0728-1.361.5101-1.93.9266-.297.2187-.396.6039-.297.9059.186.5206.371 1.0829.854 1.4785.606.4998 1.67.708 2.461.9683.792.2603 1.497.5415 2.363.5311.853-.0104 1.756-.2395 2.597-.3853 1.176-.2082 1.522-1.5202.693-2.1761zm29.353 15.6078c-.111-.708-.618-1.2286-1.212-1.718-.829-.6768-1.855-.8538-2.931-1.1037-.879-.1978-1.844.0833-2.388.6664-.581.6143-.594 1.3848-.173 2.072.148.2499.309.4998.458.7601.334.5622.791.9683 1.422 1.3327.619.3541 1.274.6039 2.041.6352.866.0312 1.769-.3124 2.289-.8642.494-.531.606-1.1245.494-1.7805zm-56.554 59.953c-3.686-1.739-9.821-1.197-12.74 1.135-1.844 1.479-1.93 4.227 0 5.696 4.255 3.227 11.738 1.853 14.447-2.145.05-.042.099-.084.161-.115 2.041-1.572.569-4.175-1.868-4.571zm-20.162-2.551c-1.039-.458-1.88-.822-3.105-.614-.804.135-1.62.343-2.387.573-1.002.291-1.695 1.02-1.534 1.926.173.926 1.014 1.405 2.103 1.52.816.083 1.682.146 2.511.135 1.212-.031 1.929-.583 2.795-1.187.866-.624.594-1.915-.383-2.353zm-113.628-87.2537c-1.6575-1.9679-5.1952-1.593-7.3104-.3956-.8536.4789-1.8555 1.0828-2.5977 1.6972-.6556.531-.9772 1.1661-1.1751 1.8846-.0495.2915-.099.583-.1361.8642.0866-.3332.0866-.302-.0123.0937-.3835 1.5722.8287 2.9987 2.845 3.0612h.2721c.0371.0104.0742.0208.1237.0312 1.1628.2395 2.276.0937 3.3398-.354.7051-.302 1.4225-.6664 2.0905-1.0204 2.276-1.2078 4.3789-3.7067 2.5605-5.8621zm-13.9035 1.2599c-.9277.2291-1.8183.4894-2.4368 1.1349-.5319.5415-1.0143 1.1037-1.4349 1.7076-.6556.9475-.3092 2.3219.9154 2.8426 1.2617.5518 2.6966.229 3.4758-.7497.1609-.1979.3217-.3853.4825-.5831.0123-.0104.0247-.0208.0371-.0417.1113-.1041.2103-.2082.3216-.3019.4206-.3853.7174-.7497.9153-1.2599.0866-.2186.1732-.4477.2845-.6664.569-1.2182-1.138-2.426-2.5605-2.0824zm27.5225-9.2668c-.6679-.0937-1.472-.177-2.0781.1458-.4206.2186-.7298.5622-1.0638.8642-.47.4373-.6679 1.1141-.2597 1.6347.4205.531 1.1132.7393 1.8554.6247.4701-.0729 1.0514-.1041 1.4596-.3123.6185-.3228.9278-.833 1.1751-1.3745.2845-.6039-.3092-1.4785-1.0885-1.5826zm68.194 46.1571c.074-.1041.148-.2083.198-.3228.73-1.4056.532-3.0299-1.237-3.8837-.247-.1146-.495-.2083-.742-.302-1.806-1.2182-3.81-1.5514-6.222-1.4056-2.35.1457-4.416 1.1245-6.531 1.9054-2.932 1.0829-3.786 4.4252-2.648 6.6325.347.6768.854 1.2495 1.448 1.7285-1.819.6663-3.476 1.4577-4.787 2.2073-.718.4061-1.25.8642-1.645 1.3536-1.559 1.1349-2.202 2.6655-.693 4.7271 2.845 3.9046 11.046 2.8738 15.313 1.5306 2.586-.8121 5.542-1.9575 6.89-4.0607 1.522-2.3532.396-5.1853-2.325-6.4868 1.447-.833 2.56-1.9887 2.981-3.6234zm-29.1553 9.7562c-.7175-.1354-1.1257.1562-1.7194.3852-.0124 0-.0866.0313-.1361.0521-.0618.0208-.1732.052-.1855.052-.2103.0521-.4206.1042-.6309.1354-.9277.1666-1.373 1.0724-1.0267 1.7492.3835.7497 1.3978.9684 2.2513.6248.4824-.1979.9277-.4478 1.3483-.7289.4948-.3228 1.0638-.7392 1.002-1.3119-.0495-.4269-.3464-.8538-.903-.9579zm-9.2031-4.6022c-.1237-.0521-.2597-.0833-.3834-.1354-1.9915-1.2702-4.9974-.5414-6.7167.7705-1.2865.9788-2.3379 2.1866-2.6224 3.6235-.1979 1.0308-.0619 1.9783.8906 2.7488.8288.6768 2.2142 1.0516 3.3522.7288 2.6842-.7601 6.3456-2.3115 6.692-4.8104.0371-.0937.0742-.177.1113-.2707.3958-.8746-.2598-2.2594-1.3236-2.6551zm187.3264 89.6175c-.235-.875-1.052-1.666-1.979-2.114-1.707-.822-3.798-.51-5.22.552-.73.542-1.448 1.083-2.177 1.635-1.46 1.093-1.472 3.061-.31 4.279 1.2 1.281 3.39 1.656 5.134.844.853-.407 1.719-.802 2.573-1.208 1.731-.812 2.399-2.468 1.979-3.988z" fill="url(#e)"/><path d="m65.4052 162.525c-1.6451.687-3.1419.989-4.651.926.4206.25.8041.531 1.0886.958.5195.781.569 1.718 0 2.489-1.1628 1.562-3.5996 1.458-5.4674.989-1.8307-.458-3.3522-2.291-3.3027-3.884.0371-1.187 1.1132-2.009 2.4863-2.134-1.1999-.646-2.3503-1.416-3.3275-2.228-2.6718-2.218-4.5644-6.102-3.3027-9.163.5814-1.416 2.5853-2.718 4.515-2.103 2.3502.749 4.4159 1.863 6.5559 2.998.569.302 1.1256.615 1.7317.875.2969.125 1.4102.51.5814.229 2.3255.802 3.9088 1.656 5.1582 3.498 1.4843 2.145.804 5.363-2.0658 6.55zm-20.1625-18.471c-.1114-.146-.2103-.292-.2969-.448-.3464-.49-.8288-.875-1.4225-1.166-.6185-.292-1.2865-.438-2.0039-.448-.804.073-1.2246.125-1.8802.375-.6061.187-.9772.448-1.3854.895-.6927.771-.8782 1.958-.5566 2.843.2474.687.7298 1.249 1.4225 1.687.6556.416 1.5462.749 2.3997.697.5319-.031 1.0762-.073 1.6081-.187 2.1152-.448 3.3645-2.687 2.1152-4.248zm196.5043-21.71c-.532-1.603-2.412-2.749-4.428-2.759-.705-.01-1.311-.167-2.103-.167-1.262 0-2.35.438-3.476.823-1.843.635-3.55 1.468-4.502 2.978-.903 1.437-.706 3.446.853 4.519-.235.198-.47.385-.742.583-1.138.802-.272 2.707 1.286 2.561.532-.052 1.064.073 1.596.083.755.011 1.447-.114 2.152-.312.569-.166 1.175-.302 1.72-.51.408-.156.717-.333.989-.625.087-.094.718-.874.322-.552.185-.156.309-.343.359-.531 1.311-.302 2.313-.749 3.24-1.457.211-.125.409-.25.619-.375 1.67-1.021 2.697-2.53 2.115-4.259zm-5.875-7.455c-.396-.083-.866-.229-1.274-.187-.446.052-.916.302-1.324.468-.458.177-.619.698-.421 1.062.211.396.705.583 1.225.49.396-.073.903-.094 1.262-.271.334-.156.569-.489.804-.729.272-.281.222-.729-.272-.833zm9.722-10.131c-.111-.229-.235-.458-.346-.687-2.598-1.499-4.688-1.656-6.259-.469-.322.25-.619.531-.829.844-.915 1.322-.507 3.269 1.225 4.019.903.395 1.942.562 2.944.312.519-.125 1.026-.343 1.533-.52.26-.157.508-.323.767-.49.371-.281.631-.614.78-.999.296-.573.494-1.396.185-2.01zm-10.341-63.0455c-.185-.6664-.371-1.2911-.891-1.8429-.569-.6039-1.385-.9684-2.164-1.364-.643-.3228-1.262-.6768-1.992-.8642-.754-.2083-1.633-.2083-2.424-.2395-1.373-.0625-2.264.6664-2.585 1.5826-1.98-1.4993-5.023-2.3635-7.41-2.7904-2.573-.4686-9.017-.2603-8.498 3.1549.421 2.6863 2.796 4.2898 5.492 5.6642 2.61 1.3327 4.899 2.3531 7.608 2.0928 2.226.2187 4.948.4894 6.011-1.593.297-.5727.347-1.1141.26-1.6348.544.3332 1.089.6768 1.769.8226.94.2082 1.905.0104 2.845-.1041 1.546-.2083 2.288-1.7805 1.979-2.8842zm-31.011 1.7597c-.569-.4582-1.113-.9579-1.769-1.3328-.804-.4581-1.608-.531-2.535-.6664-.792-.1145-1.645-.3227-2.437-.2499-.792.0729-1.361.5102-1.93.9267-.297.2187-.396.6039-.297.9059.186.5206.371 1.0828.854 1.4785.606.4998 1.67.708 2.461.9683.792.2603 1.497.5415 2.363.5311.854-.0105 1.757-.2395 2.598-.3853 1.162-.2082 1.509-1.5098.692-2.1761zm29.341 15.6182c-.111-.708-.618-1.2286-1.212-1.718-.829-.6768-1.855-.8538-2.932-1.1037-.878-.1978-1.843.0833-2.387.6664-.581.6143-.594 1.3848-.173 2.072.148.2499.309.4998.458.7601.334.5622.791.9683 1.422 1.3327.619.3541 1.274.604 2.041.6352.854.0312 1.769-.3124 2.288-.8642.495-.531.607-1.1349.495-1.7805zm-56.554 59.9536c-3.686-1.739-9.821-1.198-12.741 1.134-1.843 1.479-1.929 4.228 0 5.696 4.256 3.228 11.739 1.853 14.448-2.145.05-.042.099-.083.161-.114 2.041-1.573.581-4.186-1.868-4.571zm-20.162-2.551c-1.04-.459-1.881-.823-3.105-.615-.804.136-1.621.344-2.388.573-1.002.291-1.694 1.02-1.533 1.926.173.927 1.014 1.406 2.102 1.52.817.084 1.683.146 2.511.136 1.213-.032 1.93-.583 2.796-1.187.866-.625.594-1.916-.383-2.353zm-113.2695-87.6499c-1.6575-1.9679-5.1953-1.5931-7.3105-.3957-.8535.479-1.8554 1.0829-2.5976 1.6972-.6556.531-.9772 1.1662-1.1751 1.8846-.0495.2916-.099.5831-.1361.8642.0866-.3332.0866-.3019-.0124.0937-.3834 1.5723.8288 2.9987 2.8451 3.0612h.2721c.0371.0104.0742.0208.1237.0312 1.1627.2395 2.276.0938 3.3398-.354.7051-.3019 1.4225-.6663 2.0905-1.0204 2.2636-1.2078 4.3665-3.7067 2.5605-5.862zm-13.9035 1.2599c-.9277.229-1.8183.4893-2.4368 1.1349-.5319.5414-1.0143 1.1037-1.4349 1.7076-.6556.9475-.3093 2.3219.9153 2.8425 1.2617.5518 2.6966.2291 3.4759-.7497.1608-.1978.3216-.3852.4824-.5831.0124-.0104.0248-.0208.0371-.0416.1114-.1041.2103-.2082.3217-.302.4205-.3852.7174-.7496.9153-1.2598.0866-.2187.1732-.4477.2845-.6664.569-1.2182-1.1504-2.426-2.5605-2.0824zm27.5101-9.2668c-.6679-.0938-1.472-.1771-2.0781.1457-.4205.2187-.7298.5623-1.0638.8642-.47.4373-.6679 1.1141-.2597 1.6347.4205.5311 1.1132.7393 1.8554.6248.4701-.0729 1.0514-.1042 1.4596-.3124.6185-.3228.9278-.833 1.1752-1.3744.2968-.6039-.3093-1.4681-1.0886-1.5826zm67.8479 46.5527c.074-.1041.148-.2083.198-.3228.729-1.4056.532-3.0299-1.237-3.8837-.248-.1146-.495-.2083-.742-.302-1.806-1.2182-3.81-1.5514-6.222-1.4056-2.351.1458-4.416 1.1245-6.532 1.9054-2.931 1.0829-3.785 4.4252-2.647 6.6325.347.6768.854 1.2495 1.448 1.7285-1.819.6663-3.476 1.4577-4.788 2.2073-.717.4061-1.249.8643-1.645 1.3536-1.558 1.1349-2.201 2.6655-.692 4.7271 2.845 3.9046 11.046 2.8738 15.313 1.5306 2.586-.8121 5.542-1.9575 6.89-4.0607 1.522-2.3532.396-5.1853-2.325-6.4868 1.459-.833 2.56-1.9887 2.981-3.6234zm-28.7845 9.3397c-.7174-.1354-1.1256.1562-1.7194.3852-.0123 0-.0865.0313-.136.0521-.0619.0208-.1732.0521-.1856.0521-.2102.052-.4205.1041-.6308.1353-.9277.1666-1.373 1.0725-1.0267 1.7493.3835.7496 1.3978.9683 2.2513.6247.4824-.1978.9277-.4477 1.3483-.7289.4948-.3227 1.0638-.7392 1.0019-1.3119-.0495-.4269-.3463-.8538-.903-.9579zm-9.203-4.6022c-.1237-.052-.2598-.0833-.3835-.1353-1.9915-1.2703-4.9973-.5415-6.7167.7705-1.2864.9787-2.3378 2.1865-2.6224 3.6234-.1979 1.0308-.0618 1.9783.8907 2.7488.8287.6768 2.2141 1.0516 3.3521.7288 2.6843-.76 6.3457-2.3114 6.692-4.8104.0371-.0937.0743-.177.1114-.2707.3958-.8746-.2598-2.2594-1.3236-2.6551zm186.9675 90.0236c-.235-.875-1.051-1.666-1.979-2.114-1.707-.822-3.798-.51-5.22.552-.73.541-1.447 1.083-2.177 1.635-1.46 1.093-1.472 3.051-.309 4.279 1.199 1.281 3.389 1.656 5.133.844.853-.407 1.719-.802 2.573-1.208 1.719-.802 2.387-2.458 1.979-3.988z" fill="url(#f)"/><g fill="#eb924d"><path d="m5.15166 147.115c-.11133.51-.17317 1.03-.18554 1.541-.01237.26-.01237.51.01237.77.01236.094.0371.167.06184.271.08659.271.02474.573.04948.843.01237.219.03711.448.06185.667-.59374-.177-.98957-.396-1.00194-.688-.04948-1.062-.04948-2.124.02474-3.196.02474-.396-.09896-1.25.12369-1.593.30925-.458.14844-.219.75455-.427.61849-.219 1.12564-.479 1.80597-.594.6927-.114 1.39777-.166 2.11522-.229 2.52341-.218 5.04681-.426 7.58261-.635-.6432-.031-1.2865-.062-1.9297-.104.5443-.01 1.0762-.031 1.6204-.052.5072-.021 1.0267-.042 1.5463-.052.4329-.01.8782.01 1.3111-.052-3.5129.5-7.0259.979-10.45233 1.76-.91535.208-1.83071.437-2.67184.812-.22266.104-.45768.218-.59375.395-.13606.167-.19791.375-.23502.563z"/><path d="m5.46001 68.2946v.0624c.02474.2499.13607.4894.17317.7393.09896.7289-.07421 1.5098-.0371 2.249.07421 1.4265.4453 2.9154 1.64516 3.9983 1.44725 1.3015 3.67376 1.6764 5.76426 1.9887-1.6328.0208-3.26559.0417-4.89838.0625-.33398 0-.68033.0104-.97721.1458-.50715.229-.6927.7496-.81639 1.2182-.75455 2.8113-1.03906 5.7058-.84114 8.59.76692.3749 1.60805.6247 2.47393.7601-1.16275.0417-1.88019 1.2391-1.60806 2.1866.27214.9579 1.19986 1.6659 2.12759 2.2594-1.41014.0312-2.33787 1.3015-2.57289 2.4677-.18555.9371-.13607 1.895-.33398 2.8321-.06185.3228-.06185.5935-.02474.9163.03711.4164-.02474.8329-.03711 1.249-.02474 1.135.09895 2.281.34635 3.395.13606.614.32161 1.239.53189 1.843.11133.302.22266.604.35872.906.03711.062.06185.125.07422.187-.27213-.052-.54426-.146-.76692-.281-.66796-.427-.72981-1.25-.72981-1.958 0-1.426-.17317-2.8-.27213-4.2165-.11133-1.6452.02474-3.2903.02474-4.925.02474-3.9774.02474-7.9549.01237-11.9323-.01237-3.9775-.03711-7.9341-.07422-11.9011-.01237-1.0516.11133-2.1241-.24739-3.1341-.37109-1.01-.11133-2.3531.03711-3.3943.03711-.2603.08658-.5206.2845-.7289.18554-.1666.45768-.2707.71744-.3332 2.04099-.5622 4.23041-.4998 6.37041-.5726 2.0904-.0625 4.1933-.2812 6.2466-.6248.5319-.0208 1.0638-.0624 1.5834-.1353-3.4141.6143-6.8528 1.1453-10.31634 1.6243-.71744.0937-1.43488.1978-2.10284.4269-.66796.229-1.28644.6039-1.64516 1.1453-.32162.4998-.37109 1.062-.4082 1.6243-.02474.4269-.09896.8538-.06185 1.2599z"/><path d="m32.8942 109.444c-6.8033.292-13.5571 1.26-20.3728 1.469-1.6946.052-3.4264.062-5.00972.572-1.1009.354-2.21417 2.239-.90298 2.916.18554.104.42056.135.64322.177 1.23696.197 2.49867.281 3.74798.26-1.60803.208-3.08002.885-4.5149 1.541-.24739.114-.51953.239-.68033.437-.16081.188-.23503.427-.29688.656-.1608.594-.43293 1.218-.33398 1.833.06185.427.03711.812 0 1.249-.11132 1.656-.13606 3.311-.0371 4.967.01237.187.02473.385.12369.562.13607.229.39583.396.64322.541.55664.334 1.12564.667 1.66991 1 .04948.021.08659.052.09896.083.04948.084-.03711.167-.09896.229-.86588.781-1.85545 1.521-2.28839 2.531-.21028.489-.55663.874-.60611 1.405-.11133 1.239.01237 2.489.37109 3.696.13606.469.33398.948.75455 1.281.34635.271.82876.406 1.28644.521 1.92967.489 3.88409.895 5.86319 1.187-2.5729.062-5.13338.135-7.70627.198-.06185 0-.24739 2.478-.30924 2.707-.08659.343-.1608.52 0 .874.17318.365.45768.688.8164.948-.47005-.031-.9401-.052-1.41014-.073-.19792-.01-.42057-.042-.50716-.177-.03711-.062-.03711-.156-.03711-.229.33398-6.154.70507-12.37.85351-18.544.07422-3.415-.18555-6.883.33398-10.266.04948-.313.33398-3.718.32161-3.718 9.16592-.562 18.36892-.853 27.58432-.833z"/><path d="m34.3809 109.402c.0494 0 .0866-.01.1484-.01-.0495 0-.099 0-.1484.01z"/><path d="m38.6869 33.4355c-4.082.4269-8.3001-.052-12.3573.5311-1.3483.1874-2.6719.4997-4.0326.6143-1.2617.0937-2.511.0416-3.7603.0625-3.1419.052-6.2591.6559-9.25254 1.4681-1.01431.2707-2.06573.5831-2.80791 1.2286-.27213.2499-.49479.5206-.68033.833-.30925.5518-.61849 1.2703-.58138 1.895.01237.1874.04948.3332.02474.5206-.07422.5414-.13606 1.0724-.14843 1.6139-.02474 1.0828.12369 2.1657.42056 3.2173.08659.302.19792.6144.47005.8122.27213.2082.66796.2603 1.02668.3123 1.53384.1979 3.06766.3957 4.58916.5935-2.11522.1354-4.21807.2603-6.33328.3957.13607-.0104.09896 4.269.1237 4.6438.11132 1.4369.1608 2.905.2845 4.3523.07422.9475.19791 1.8846.51953 2.7905.07421.2082.17317.4269.27213.6247-.17318-.0833-.33398-.1874-.47005-.2916-.77929-.531-1.36066-1.3431-1.37303-2.2073-.01237-.2083.04948-.3749.09896-.5727.17317-.5518.04947-1.1766.0371-1.7492-.06184-2.5614-.11132-5.1228-.18554-7.6842-.04948-1.6243-.06185-3.2278-.33398-4.8417-.14844-.8017-.07422-1.6243-.1237-2.426-.06185-.9891-.03711-1.9783.11133-2.9675.06185-.531.18554-1.0828.47005-1.5722.30924-.4998.82876-.9787 1.53384-.9579 1.06379.0521 2.13995-.1354 3.20374-.2187 2.3626-.1978 4.7376-.3644 7.1249-.4893 4.8613-.2708 9.7473-.4061 14.6333-.479 2.375-.0312 4.7624-.0416 7.1373-.0521z"/><path d="m252.075 51.6035c7.187 1.3015 14.707.6039 22.018 1.4057 2.944.3227 5.888.885 8.857.7392 1.1-.052 2.238-.2186 3.315.0417.977.2186 1.546.8225 2.065 1.4993.866 1.1558.817 2.7905.903 4.1024.223 3.4256-.173 6.8512-.383 10.2664-.025.3748-.062.7705-.359 1.0516-.21.1874-.519.2811-.829.354 0-.0729-.012-.1353-.012-.1978-.037-.5623-.012-1.1245.074-1.6764.112-.76.347-1.5097.334-2.2698 0-.2811 0-.531.025-.8226.012-.0729.012-.1666 0-.2499-.05-.354-.099-.6559-.198-.9995-.124-.4373-.062-.9267-.087-1.3744-.049-.9788-.148-1.9471-.296-2.9258-.025-.1666-.062-.3541-.235-.4582-.124-.0729-.297-.0833-.458-.0729-3.983.0417-7.966.2603-11.924.6456 3.414-.1458 6.815-.5831 10.13-1.3119.643-.1458 1.349-.3436 1.645-.833.248-.4061.149-.8955.038-1.3328-.124-.5414-.297-1.1245-.817-1.4473-.309-.1978-.717-.2707-1.101-.3332-.235-.0416-.457-.0728-.692-.1145-2.314-.3748-4.651-.6559-7.002-.8642-1.175-.1041-2.35-.177-3.525-.2395-1.188-.0624-2.276-.2707-3.464-.3332-.705-.0416-1.41-.0728-2.115-.1145-2.412-.1249-4.812-.2499-7.211-.3644-1.188-.0625-2.4-.0729-3.575-.1874-.346-.0417-.643-.1458-.965-.2708-.185-.0624-.371-.1145-.557-.1561-1.051-.1875-2.14-.2916-3.203-.4582-.755-.1145-1.509-.229-2.264-.354l-1.051-.1666c-.248-.0416-.569-.1457-.842-.1457 1.275-.0105 2.512-.0313 3.761-.0313z"/><path d="m289.418 92.0655c-.061 5.9141-.16 11.8285-.173 17.7525 0 1.958.31 5.31-.89 7.06-.334.499-.928.791-1.608.958.074-.146.136-.292.198-.448.358-.844.63-1.708.791-2.593.074-.395.062-.833.223-1.197.185-.396.161-.833.198-1.25.123-1.249.247-2.509.371-3.758.099-1.01.198-2.02.309-3.03.062-.511.099-1.01.161-1.51.025-.208.086-.458.049-.666-.024-.063-.061-.136-.061-.198-.062-.25-.013-.531-.236-.729-.136-.125-.333-.167-.531-.208-1.843-.396-3.736-.583-5.629-.594.792-.187 1.633-.146 2.45-.104.816.042 1.67.052 2.436-.187.52-.167 1.002-.49 1.262-.896.124-.198.186-.416.248-.635.098-.3749.012-.8122.012-1.1974-.012-.7289-.025-1.4681-.025-2.2074-.025-2.0408-.049-4.0816-.223-6.1119-.123-1.5514-.309-3.0924-.408-4.6438-.037-.5102-.396-.7705-.544-1.2287-.173-.5518.186-1.1974-.223-1.7076-.334-.406-1.002-.4477-1.583-.4581-3.797-.0417-7.595-.0833-11.392-.1145 3.537.2186 7.075-.3645 10.563-.9371.433-.0729.879-.1458 1.262-.3228.656-.2915 1.064-.833 1.361-1.3952.148-.2812.247-.5831.383-.8747.05-.1041.099-.1874.124-.3019.062-.354-.05-.7913-.074-1.1453-.025-.4478-.062-.8955-.099-1.3536-.025-.4998-.062-1.0412-.409-1.4577-.47-.5831-1.348-.7913-2.152-.9579-2.041-.4165-4.069-.8434-6.11-1.2599.519-.0729 1.051-.125 1.608-.1458 2.201.4269 4.403.8642 6.605 1.2911.284.0521.594.125.804.2811.866.6768.656 2.9779.742 3.863.161 1.6867.235 3.3839.26 5.0811.074 3.1653-.025 6.3618-.05 9.5375z"/><path d="m275.589 38.9531c-.792.0521-1.571.0729-2.362.1041 4.935.4061 9.883.8226 14.818 1.2287.458.0416.953.0937 1.274.3644.248.2083.347.5102.433.7913.384 1.3224.409 2.6239.409 3.9775-.149 1.9575-.359 3.8733-.842 5.7995-.222.9163-.915.9788-1.669.8747.42-.2603.729-.6352.754-1.0621.111-2.426.223-4.8624.012-7.2781-.049-.4581-.098-.9267-.309-1.3535-.148-.2812-.358-.5415-.655-.7289-.136-.0937-.297-.1562-.446-.2187-.062-.0312-.111-.052-.185-.0728-.099-.0313-.186-.0729-.285-.1146-.161-.0624-.346-.0624-.519-.0937-.73-.1041-1.46-.2186-2.19-.3123-2.894-.4061-5.813-.7289-8.733-.958-1.905-.1457-3.81-.2603-5.653-.6455 1.398-.0625 2.598-.1874 3.996-.2395.717-.0104 1.447-.0417 2.152-.0625z"/><path d="m289.048 145.459c.149-.563.248-1.125.31-1.698.099-.958.086-1.915.086-2.884 0-.822.112-1.687-.185-2.488-.223-.625-.396-1.135-.359-1.802.037-.77.062-1.624-.594-2.238-.717-.667-1.917-.729-2.993-.739-1.843-.021-3.686-.032-5.529-.052 2.436-.25 4.861-.584 7.273-1 .359-.063.742-.146.965-.385.222-.24.21-.573.198-.875-.099-2.051-.161-4.102-.297-6.143-.074-1.135-.322-2.124-1.732-2.509-1.546-.417-3.253-.5-4.849-.708-2.882-.365-5.776-.688-8.671-.979-5.789-.573-11.603-.979-17.429-1.177 11.281.188 22.562.75 33.782 1.666.532.052.692 1.021.779 1.333.309 1.166.421 2.363.532 3.54.297 3.238.371 6.487.42 9.725v.167c.025.666.062 1.322.062 1.988.037 1.875.174 3.936-.062 5.779-.074.573-.21 1.145-.445 1.697-.099.25-.198.583-.396.781-.544.562-1.274.885-2.065 1.104.371-.375.668-.802.865-1.25.149-.26.248-.551.334-.853z"/><path d="m3.69093 24.5645c-.14844-4.6439-.34636-9.2669-.60612-13.9003-.1608-3.08196 2.59763-5.72665 6.23431-5.96613 92.32688-6.17441 184.45688-6.33059 276.38788-.02082 3.674.24989 6.432 2.94664 6.209 6.04945-.296 4.092-.556 8.184-.791 12.2759-.161 2.8634-.322 5.7371-.458 8.6109-.037.5622-.062 1.0516-.26 1.5826-.346.9371-.272 1.9575-.544 2.9154-.099.302-.21.6248-.482.8434-.272.2083-.644.2916-1.002.3645-.037.0104-.062.0104-.099.0208.012-.0313.025-.0625.025-.0937.098-1.2599.358-2.5822.309-3.8421-.025-.4373-.136-.8122-.074-1.2599.074-.6143.098-1.2286-.099-1.8325-.52-1.5202-2.573-2.5406-4.404-2.1762 1.348-.9995 3.884-.4893 4.849-1.77.519-.6872.309-1.5827.074-2.374-5.69-.4998-11.405-.6976-17.12-.5831 4.911.2291 9.871-.2395 14.609-1.364.767-.177 1.559-.4061 2.066-.9162.47-.479.594-1.135.693-1.7493.173-1.0204.284-2.072.519-3.082.074-.3019.26-.5622.334-.8642.124-.4685.062-.9996.05-1.4785-.013-1.1558-.112-2.3115-.446-3.436-.198-.68724-.495-1.3432-.915-1.95752-.569-.84338-.903-1.3744-2.091-1.73883-.729-.22907-1.509-.29154-2.276-.35401-2.548-.18742-4.292-.21866-6.828-.46855-3.513-.3436-7.038-.64555-10.563-.92668-4.763-.37484-9.525-.70803-14.3-.98916-2.387-.14577-4.774-.27071-7.162-.39566-.507-.02082-1.051-.09371-1.558-.02082-.409.06247-.718.0833-1.138.02082-1.138-.16659-2.276-.40607-3.439-.36442-1.472.05206-3.08.76008-3.365 1.96789-.383-.46854-.569-1.06204-.507-1.62429-.655.51019-1.2 1.1141-1.596 1.79089-.816-.71844-1.373-1.64512-1.57-2.63428-2.883.28113-5.802.27072-8.684-.05206-.408.88504-.816 1.75966-1.225 2.64469-1.459-1.97831-4.267-3.01952-7.026-3.29024-2.758-.27072-5.529.09371-8.3.29154-3.599.2603-7.223.23948-10.811-.06247-.433-.04165-.915-.06248-1.261.15618-.235.14577-.359.38525-.47.61432-.347.71843-.607 1.47852-.78 2.23861-.358-1.24946-1.558-2.24903-2.944-2.79046-1.385-.54143-2.944-.67679-4.478-.66638-2.807.01042-5.591.48938-8.399.5102-1.546.01041-3.08-.11453-4.613-.24989-2.239-.20825-4.491-.45814-6.754-.38525-.557.02082-1.114.05206-1.658.12494-.495.06248-.989.18742-1.484.18742-.322 0-.631-.09371-.94-.12494-.631-.07289-1.287-.03124-1.918-.04165-1.41-.01041-2.82-.02083-4.23-.03124-4.812-.05206-9.636-.09371-14.448-.14577-4.824-.05206-9.636-.09371-14.447-.14577-2.4-.02082-4.812-.05206-7.224-.06247-.545-.01041-1.052-.10412-1.596-.0833-2.994.11454-6.012.22907-9.005.3436-2.486.09371-4.973.18742-7.447.28113-1.063.04165-1.905-.21865-2.9437-.32278-1.138-.10412-2.3131-.12494-3.4016.20825-1.5586.47896-2.8451 1.92625-2.3132 3.259.1361-1.48894-1.4596-2.76963-3.1913-3.13406-1.7318-.36442-3.5378-.07288-5.2819.1666-4.4531.61431-8.968.85379-13.4706.70802-.1484 1.06204-.2845 2.12408-.4329 3.18612-.334-1.14533-.8782-2.23861-1.5957-3.24859-.804 1.4577-1.0019 3.15488-.5195 4.71671-1.2122-1.44729-1.0019-3.75879-2.845-4.60218-1.8802-.8642-4.1439.61432-6.2714.4269.0742 1.02039.1608 2.04078.235 3.05076-.1113-1.07245-.8906-2.03037-1.9297-2.61345-1.4843-.83297-2.8326-.54143-4.4902-.43731-1.7936.11454-3.5748.22907-5.3684.35402-3.1914.19783-6.3828.40607-9.5865.61431-.6927.05206-1.4349.1666-2.1276.0833-.4948-.06247-.9153-.19783-1.4349-.17701-7.8052.15619-15.6723.49979-23.3786 1.58265-1.4102.19783-2.84505.43731-4.10676 1.00998-.80402.37484-1.53383.89545-2.02862 1.541-.38346.48937-.49479 1.00998-.64322 1.55144-.09896.3644-.35872.708-.5319 1.0516-.37109.7497-.66796 1.5306-.74218 2.3323-.09896 1.2287.48242 2.5822 1.76886 3.1757 1.52147.7081 3.52536.177 5.07152.8434-1.80593-.1874-3.649-.0625-5.38076.3853-.25976.0624-.53189.1457-.70507.3331-.14843.1562-.17317.3645-.19791.5623-.11133.9267-.09896 1.8742.04948 2.8009.07421.4477.22265.8954.25976 1.3431.04948.4998.06185 1.01.09896 1.5098.13606 1.9887.29687 3.9879.43293 5.9766.02474.3332.11133.531.09896.7809-.1237-.0104-.24739-.0104-.37109-.0104-.14843-.0104-.30924-.0104-.4082-.0937-.09895-.0625-.12369-.177-.14843-.2812-.35872-2.0303-.63086-4.1232-.6927-6.1535z"/><path d="m285.744 172.708c-90.843 5.862-182.984 5.81-276.39983-.011-3.66142-.229-6.43222-2.873-6.28379-5.955.03711-.688.04948-1.375.06185-2.062.02474-.562-.04948-1.177.07422-1.728.04948-.198.1608-.365.19791-.563.11133-.666.16081-1.343.22266-2.009.14843-1.343.30924-2.687.45767-4.03.01237-.125.02474-.25.03711-.364.02474-.208.06185-.437.21029-.604.13606-.156.34635-.229.569-.292 2.59763-.864 5.47981-1.405 8.28771-1.384 3.0676.01 5.9621-.282 8.9927-.646 1.2246-.146 2.4492-.281 3.6614-.427h.3216c.2351 0 .4701.011.7175.011.1855 0 .4205.041.5937.01-6.123 1.114-12.3325 1.801-18.52973 2.613-.8164.105-1.64516.209-2.3626.531-.06185.032-.11133.052-.17318.084-.8164.406-1.58332 1.135-1.57095 1.957.01237.385-.09895.771-.12369 1.156-.04948.739.08658 1.551.76692 2.072.4082.312.92772.469 1.44725.604 3.36458.906 6.88988 1.406 10.42758 1.478-2.8573-.02-5.7147-.041-8.55976-.062-.86588-.01-1.7565-.052-2.62237-.011-.58138.021-1.6328.021-2.05337.407-.17317.145-.23502.354-.2845.562-.21028 1.093.23502 2.218.19792 3.311-.02474.656-.04948 1.343.19791 1.968.48242 1.228 1.92967 2.03 3.4264 2.405.72981.167 1.48436.271 2.22654.354.38343.042.75453.062 1.13803.104.1855.021.3711.042.569.063.1732.02.3587.052.5319.052.0866-.011.1855-.042.2845-.042.2845-.021.5814 0 .8659 0h1.2617c1.5338-.01 3.08-.042 4.6262.021.7669.041 1.5339.083 2.3008.166.1731.021.334.052.5071.052.099 0 .1979-.031.3093-.041.0866-.011.1731-.011.2474 0 .7792.052 1.373.177 2.1028.291.4453.073.903.105 1.3236-.041.6927-.24 1.0885-.864 1.2864-1.479.1979-.614.2598-1.26.5937-1.822.1114.666-.0494 1.333-.0371 1.999.0124.667.2845 1.406.9772 1.729.4082.187.903.208 1.3731.218.7793.011 1.5585.032 2.3378.042.5443.01.9896-.115 1.5091-.156.7298-.063 1.5339.062 2.2637.104.804.052 1.5957.094 2.3997.135 3.2037.177 6.3951.354 9.5989.51.8535.042 1.7317.125 2.5976.125 7.9784.375 15.9569.667 23.9477.875 2.3997.062 4.8241.021 7.2115.167.3092.02.569.093.8658.156.6804.135 1.4349-.104 2.0658-.313 1.472-.489 2.7831-1.353 3.649-2.467.7793 2.176 3.6367 3.363 6.3209 3.592s5.3809-.25 8.0779-.156c.791.031 1.546-.031 2.313-.021.519.01 1.051.177 1.571.219.668.052 1.422.093 2.065-.094.211-.063.396-.156.606-.219.706-.198 1.559-.104 2.301-.114 1.744-.021 3.501-.021 5.245-.021 3.501.01 6.989.062 10.489.166 1.732.032 3.464.115 5.196.188.321.01.631.021.927-.052.223-.052.433-.146.668-.188.804-.135 1.695-.125 2.511-.135h.569c.619 0 1.138-.01 1.732-.115.705-.135 1.46-.02 2.165-.02h3.538c4.811.01 9.636.02 14.447.041 1.349.011 2.697.011 4.045.021.668 0 1.348 0 2.016.011 4.812.031 9.624.072 14.436.125 4.812.052 9.623.135 14.435.208 2.4.041 4.812.083 7.212.135 1.2.021 2.412.052 3.612.073.903.021 1.694.031 2.573-.208.371-.104.742-.167 1.138-.188.779-.052 1.571-.083 2.35-.114.247-.011.519.01.754-.063.396-.114.594-.229.99-.218.235.01.482-.032.717-.084.47-.104.916-.291 1.312-.52.853-.49 1.546-1.156 2.214-1.822.618.687 1.299 1.332 2.028 1.936.124.104.273.209.446.25.631.146.989-.625 1.571-.885.321.479 1.014.719 1.67.739.655.021 1.298-.135 1.942-.26 1.867-.364 3.822-.468 5.727-.312.235-.313.47-.625.705-.937.321.874 1.657 1.114 2.746 1.114.767 0 1.534-.042 2.301-.115.63-.062 1.298-.25 1.942-.177 1.348.146 2.709 0 4.069-.073 3.192-.166 6.383-.354 9.574-.541 3.192-.188 6.383-.385 9.575-.604 3.104-.208 6.221-.417 9.326-.646.718-.052 1.447-.052 2.177-.072 2.375-.073 4.75-.167 7.125-.302 1.188-.073 2.375-.167 3.55-.271.594-.052 1.188-.094 1.782-.177.185-.021.334-.104.507-.146 1.076-.208 2.177-.25 3.043-.895.593-.448.915-1.083 1.101-1.739.074-.333.136-.677.173-1.021.062-.645.173-1.28.161-1.947-.025-2.394-.062-4.779-.075-7.174 0-.239 0-.479-.012-.708-.012-.989-.05-1.978-.186-2.967-.061-.427-.235-.906-.198-1.343.013-.125.05-.261.062-.386.013-.51-.309-1.082-.717-1.436-.285-.24-.594-.459-.903-.688-.223-.166-.47-.302-.755-.406-.569-.218-1.175-.333-1.793-.447-1.435-.292-2.87-.583-4.317-.865-.359-.072-.755-.166-1.039-.374.507-.052.643-.219 1.15-.229h.334c1.992.301 3.995.624 5.999.957.718.115 1.472.292 2.066.688.309.208.557.479.73.77.309.5.433 1.041.507 1.583.198 1.364-.062 2.707.111 4.061.099.697.161 1.384.198 2.082.074 1.343.149 2.697.223 4.04.062 1.208.136 2.415.198 3.634.235 3.144-2.548 5.81-6.21 6.039z"/><path d="m123.131 16.4736c14.411.5623 28.822 1.1245 43.158 2.5198 11.862 1.1557 23.688 2.8841 35.625 2.957-26.966 1.4473-51.78-4.8416-78.783-5.4768zm57.024 28.3836c-.878.0208-1.768-.0521-2.647-.0729-4.762-.1041-9.524-.0625-14.274.1145s-9.5.4686-14.238.8538c-2.375.1979-4.737.4061-7.112.6456-1.188.1145-2.363.2395-3.55.3644-.594.0625-1.188.125-1.782.1874-.433.0521-.866.0208-1.286.0521-.544.052-1.126.2603-1.658.3956-.569.1354-1.138.2812-1.707.4165-1.138.2707-2.276.5415-3.426.8122-2.288.531-4.589 1.0204-6.902 1.4577-1.918.3644-3.847.6872-5.789.9683-4.614.6664-9.278 1.0933-13.953 1.2911-2.3382.0937-4.6761.1354-7.0263.1146-.5319-.0105-1.0885-.0521-1.6081.0104-1.039.1249-2.0781.2499-3.1171.3748-1.1875.1458-2.3626.2915-3.5501.4269-.4453.0521-.7917.2187-1.2122.2915-.569.0938-1.138.1562-1.7194.1979-2.2884.177-4.6015.0624-6.8899.1249-6.3333.177-12.4934 1.7284-18.7524 2.5406-4.6758.6039-9.4257.7913-14.1509.9683.5319-.0208 1.0514-.0312 1.5833-.052 4.7871-.1562 9.5617-.3853 14.3364-.656 4.7747-.2811 9.537-.6143 14.2994-1.01 2.3749-.1978 4.7623-.4061 7.1373-.6351 1.3606-.125 2.7337-.177 4.1067-.2499 2.8821-.1458 5.7519-.3436 8.6216-.5831 5.7767-.479 11.5167-1.1141 17.2557-1.8221 22.933-2.853 45.755-7.0386 69.01-7.528zm-89.0241 71.1988c5.1705 1.551 10.6381 2.228 16.0681 2.759 2.759.27 5.517.5 8.263.781.705.073 1.41.166 2.115.239.532.052 1.064.073 1.596.135.173.021.322.073.482.115.458.115.99.083 1.472.146 1.052.146 2.078.406 3.093.635 1.299.291 2.634.562 3.983.479.977-.063 1.929-.302 2.907-.448 1.138-.166 2.288-.198 3.438-.187 2.326.031 4.651.27 6.94.645 1.026.167 2.053.375 3.067.604 1.101.25 2.19.542 3.291.833.742.198 1.385.188 2.14.156.989-.041 1.979.146 2.944.271 1.125.146 2.251.281 3.377.396 4.552.5 9.116.854 13.693 1.083 4.601.229 9.203.333 13.817.322 4.564-.01 9.129-.135 13.681-.364 1.731-.083 3.451-.229 5.183-.302-5.888.26-11.789.052-17.652-.385-2.969-.219-5.937-.5-8.894-.812-.507-.052-1.039-.157-1.546-.157-.087 0-.173.011-.26.032-.235.041-.457.052-.705.062-2.115.052-4.243.031-6.358-.052-11.417-.458-22.649-2.842-34.078-3.176-2.091-.062-4.194.021-6.284.073-1.435.042-2.808-.041-4.218-.26s-2.82-.479-4.231-.687c-2.152-.313-4.329-.396-6.494-.552-2.35-.167-4.7-.354-7.05-.573-2.338-.218-4.688-.479-7.0139-.781-2.2389-.302-4.5149-.645-6.7662-1.03zm61.5511-16.046c.965-.0204 1.942-.0413 2.907-.0621.78-.0208 1.559-.0312 2.326.0731.272.041.519.062.791.031.594-.052 1.176.052 1.757.146.284.041.495.01.767 0 .878-.031 1.806.083 2.684.135.94.052 1.893.115 2.833.177 1.966.125 3.933.271 5.888.427 15.635 1.218 31.357 3.03 47.091 1.958-18.344-1.052-36.688-2.104-55.033-3.1553.829.052 1.955-.3228 2.771-.4686.94-.1666 1.893-.3332 2.833-.5206.89-.1666 1.793-.3436 2.684-.531.495-.1041 1.039-.1666 1.521-.302.322-.0833.644-.2707.941-.3852.63-.2499 1.274-.4894 1.917-.7184 1.286-.4478 2.61-.8434 3.933-1.1974 2.672-.6977 5.418-1.1974 8.177-1.5827 2.795-.3852 5.616-.6351 8.436-.8226 2.845-.1874 5.69-.3227 8.535-.4581 1.447-.0729 2.882-.1353 4.329-.2186.495-.0313.99-.0521 1.448-.2083.346-.1145.643-.2915.977-.4269.643-.2499 1.348-.3019 2.053-.3436 1.769-.1249 3.525-.2499 5.294-.3748 3.08-.2187 6.173-.4373 9.265-.2707 2.919.1561 5.802.6663 8.721.7809 3.414.1353 6.84-.2499 10.23-.6352-6.804-.5726-13.657-.8121-20.497-.6976-3.476.0521-6.952.2083-10.428.354-3.043.125-6.086.2603-9.128.4269-3.056.177-6.099.3853-9.142.6872-3.03.302-6.048.6872-9.029 1.2078-1.497.2603-2.982.5519-4.454.8747-.433.0937-.853.2082-1.274.3227-.173.0417-.346.0937-.532.0937-.185 0-.334.0625-.507.1042-1.459.4165-2.956.7601-4.465 1.0516-1.497.3019-3.006.5518-4.515.8122-.21.0312-.421.0728-.631.1041-1.571.2707-3.142.5414-4.725.8017-1.571.2707-3.142.5414-4.725.8017-.792.1354-1.571.2708-2.363.4061-.396.0625-.792.1354-1.175.1978-.161.0313-.334.0729-.495.0625-.396-.0104-.754.1458-1.15.1041-.668-.0624-1.336.0833-2.004.1666-.792.0937-1.571.1875-2.363.2812-1.571.1874-3.154.354-4.725.4997-3.154.2912-6.321.4892-9.5.4792 3.921-.031 7.843-.115 11.751-.188zm-45.594 48.708c-1.88.146-3.81.125-5.69.115-1.9794-.01-3.9462-.073-5.9253-.177-3.9583-.208-7.8919-.573-11.8131-1.01-1.9667-.219-3.9335-.458-5.9003-.698-.9401-.114-1.8678-.218-2.8079-.354-.1484-.02-.2969-.052-.4453-.093-.5938-.177-1.2741-.042-1.8926-.011-2.4492.146-4.9478.198-7.3723-.229-1.3112-.229-2.5853-.604-3.9088-.729-1.2246-.125-2.4616-.031-3.6862-.166-1.0143-.104-2.0039-.365-2.9934-.573-6.8528-1.478-14.1014-1.031-21.0532.052 10.4524-1.041 20.9666.781 31.3695 2.135 1.8307.239 3.6614.458 5.5045.583 1.4967.104 2.9934.135 4.4778.322 1.4967.188 2.9687.511 4.4654.729.7422.104 1.4968.188 2.2513.209.3835.01.7546 0 1.1257-.021.3216-.021.6184.031.9524.041 3.1667.167 6.3457.282 9.5247.313 3.1171.031 6.2219-.011 9.3271-.156 1.509-.073 3.005-.167 4.49-.282zm152.518 5.529c-14.052.594-28.129.812-42.193.677 13.124 2.801 28.858 1.27 42.193-.677z"/></g><path d="m123.194 15.6514c14.411.5622 28.822 1.1245 43.158 2.5197 11.863 1.1558 23.688 2.8842 35.625 2.9571-26.954 1.4473-51.767-4.8417-78.783-5.4768zm57.037 28.3835c-.235-.0104-.483-.0208-.718-.0208-4.774-.1562-9.561-.1458-14.336 0-4.775.1353-9.537.4061-14.299.7705-.47.0312-.891.0833-1.349.1978-.457.1145-.927.0625-1.397.0625-1.163.0104-2.326.0937-3.464.2291-2.288.2603-4.552.6767-6.84.9891-5.802.7809-11.702.8017-17.565.7601 2.226.2499 4.44.4894 6.667.7393-2.783 1.1141-5.851 1.6347-8.881 2.0928-3.192.4894-6.408.9163-9.624 1.2911-4.701.5414-9.4134.9683-14.151 1.2703-2.3626.1458-4.7376.2707-7.1002.354-.5937.0208-1.1874.0417-1.7812.0625-.4329.0104-.804-.0521-1.2246-.0729-.8782-.0417-1.7317.2395-2.5976.2082-.235-.0104-.4577-.0624-.6927-.052-.7917.0208-1.5957.1457-2.375.2186-1.5833.1458-3.179.302-4.7623.4582-3.179.3123-6.358.6247-9.5247.9475-6.3456.6455-12.6912 1.3119-19.0369 2.0095-6.3456.6976-12.6789 1.4265-19.0121 2.1762-.2474.0312-.5072.0624-.7546.0937 14.621-.9163 29.2543-1.8222 43.7391-3.7588 3.7109-.4998 7.4342-1.0621 11.1822-1.0412 1.5091.0104 3.0058.1041 4.5149 0 .6556-.0417 1.3112-.2083 1.9668-.177.6556.0312 1.2865 0 1.9544-.0417 3.0801-.1978 6.1601-.4477 9.2402-.7393 6.1843-.583 12.3453-1.3327 18.4923-2.1449 6.173-.8121 12.333-1.6971 18.493-2.5509 6.148-.8538 12.308-1.6764 18.493-2.374 6.135-.6976 12.295-1.2703 18.468-1.6139 2.733-.177 5.504-.2811 8.275-.3436zm22.55 79.4971c-4.552.302-9.154.052-13.694-.125-3.451-.136-6.84-.75-10.291-.844-3.426-.093-6.865.125-10.304 0-8.016-.281-15.808-2.259-23.799-2.873-2.153-.167-4.317-.229-6.482-.302-1.868-.052-3.736-.115-5.591-.167-.507-.01-1.014-.031-1.521-.052-1.151-.052-2.301-.125-3.439-.292-.619-.093-1.225-.27-1.843-.322-2.882-.271-5.777-.458-8.671-.625-2.944-.167-5.876-.354-8.808-.594-2.931-.239-5.851-.531-8.7698-.885-1.5091-.187-3.0305-.385-4.5396-.603-.6927-.105-1.3978-.209-2.0905-.323-.5566-.094-1.1999-.125-1.7318-.292 10.1807 3.051 21.1897 2.78 31.7157 4.457.916.145 1.88.229 2.709.583.322.135.619.239.99.27 1.175.105 2.387.073 3.562.052 2.388-.041 4.775-.187 7.162-.197 1.967 0 3.921.447 5.876.697 1.781.229 3.562.406 5.356.552 1.039.083 2.103.146 3.105.427.445.125.779.25 1.237.281.556.042 1.125.146 1.682.208 2.264.271 4.54.5 6.803.698 4.589.396 9.191.656 13.805.802 4.614.135 9.215.156 13.829.062 4.54-.093 9.079-.291 13.607-.593.037.01.086 0 .136 0zm-26.731-26.8428c.445-.125.903-.2499 1.348-.3749 2.301-.6247 4.688-1.062 7.038-1.5618 1.299-.2707 2.536-.6455 3.835-.8538 2.19-.354 4.441-.8329 6.667-.9891.359-.0313.693 0 1.052.0416.952.1041 1.892-.1249 2.832-.2603 2.314-.3228 4.651-.5414 7.002-.6455.507-.0209 1.026-.0417 1.533-.0521.273-.0104.557-.0416.817.0104.21.0417.42.0521.643.0417.433-.0209.854-.125 1.274-.2187.755-.1666 1.522-.2915 2.289-.3748.309-.0313.581-.0521.865-.1562.31-.1145.668-.1145 1.002-.1562 1.534-.177 3.068-.3332 4.602-.4061 2.251-.1041 4.49-.177 6.741-.229 2.227-.0521 4.453-.0729 6.68.1145.643.0521 1.274.1249 1.917.1978 3.018.3645 6.037.9267 9.104.8538.755-.0208 1.485-.1249 2.227-.177.482-.0312.903.0833 1.373.1146 1.237.0937 2.523-.0417 3.76-.0729 1.88-.0521 3.773-.1042 5.653-.1562 3.921-.1145 7.843-.2291 11.776-.3436-8.052-.2395-16.118-.479-24.17-.7185-8.09-.2394-16.18-.4789-24.257-.2082-1.633.0521-3.266.1249-4.886.2187-6.259.3644-12.506 1.0099-18.691 1.8637-3.104.4269-6.184.9059-9.265 1.4265-.395.0625-.779.1458-1.162.2291-.099.0208-.173.0312-.272.0312-.174 0-.334.0625-.495.0937-.371.0833-.742.177-1.126.2603-.829.1874-1.657.3957-2.499.5414-1.484.2499-2.981.3957-4.465.6248-1.336.2082-2.659.4789-3.983.7705-1.472.3228-2.932.6768-4.416.9787-.742.1562-1.484.2916-2.226.4165-.372.0625-.743.1145-1.126.1666-.161.0208-.322.0521-.483.0312-.42-.0416-.878.0729-1.298.1146-1.534.1666-3.068.3019-4.614.406-1.546.1042-3.093.1666-4.639.1979-.581.0104-1.163.0104-1.744.0104-.136 0-.284-.0104-.408 0-.087.0104-.173.052-.26.0625-.297.0416-.606.0624-.903.0937-.792.0833-1.583.1561-2.387.2394-.297.0313-.569.0729-.866.1458-.582.1458-1.237.1562-1.843.2291-1.361.1666-2.734.3332-4.095.4998-2.201.2602-4.391.5202-6.593.7602 4.206.177 8.436.354 12.617-.115 1.794-.198 3.563-.5203 5.344-.7806 1.262-.1874 2.536-.3436 3.822-.4061 2.808-.1353 5.629.1666 8.412.479 2.375.2603 4.737.5207 7.112.7807.854.094 1.546.094 2.388-.041.964-.157 1.979.02 2.956.093 4.775.396 9.549.812 14.336 1.156 4.763.344 9.537.604 14.324.698 2.264.041 4.54.052 6.804 0 1.15-.021 2.288-.063 3.439-.104 1.113-.053 2.251-.188 3.364-.188-18.344-1.052-36.688-2.1032-55.033-3.1548.829.0521 1.955-.3228 2.771-.4685.742-.1354 1.497-.302 2.252-.4061.123-.0208.259-.0208.395-.0208.235.0104.458.0312.705-.0104.743-.125 1.472-.3332 2.19-.5102.965-.2812 1.954-.5623 2.944-.833zm-68.887 51.2068c-2.412.115-4.824.136-7.2237.094-1.5957-.031-3.1913-.094-4.7747-.177-.7916-.042-1.5957-.094-2.3873-.146-.7422-.052-1.5338-.062-2.2513-.208-.7422-.156-1.5586-.167-2.3255-.24-.7916-.073-1.5957-.156-2.3873-.229-1.5957-.156-3.179-.302-4.7747-.458 2.1276-1.135 4.7376-1.343 7.2239-1.614 4.0943-.447 8.1392-1.145 12.1096-2.093-6.8278.365-13.6311 1.021-20.3849 1.958-1.8431.26-3.6738.531-5.5417.677-.4081.031-.7669.052-1.1503.166-.6185.167-1.2988.084-1.9421.063-1.5709-.031-3.1419-.073-4.7128-.136-3.1295-.114-6.2591-.312-9.3638-.676-.9896-.115-1.9792-.25-2.9688-.406-1.9296-.313-3.8593-.698-5.8137-.875-3.847-.354-7.7187.104-11.5285.666 1.8183-.01 3.6367-.01 5.455-.02 2.3626-.011 4.7376-.021 7.0878.145 1.571.115 3.1295.302 4.6881.531 1.5215.219 3.0182.531 4.5397.729 3.0429.385 6.0859.739 9.1412 1.073 3.0676.322 6.1477.614 9.2154.853 3.0676.24 6.1353.438 9.203.573 3.0306.135 6.0611.208 9.1041.198 2.9687 0 5.9373-.083 8.9063-.25.965-.062 1.905-.156 2.857-.198zm152.518 5.529c-14.052.594-28.128.812-42.193.677 13.124 2.801 28.859 1.27 42.193-.677z" fill="url(#g)"/><g fill="#5f1b3d"><path d="m11.6816 12.6191h270.318v149.327h-270.318z"/><ellipse cx="146.841" cy="12.3712" rx="135.159" ry="6.69738"/><ellipse cx="146.841" cy="161.698" rx="135.159" ry="6.69738"/></g><g fill="#e58a4a"><path d="m16 15.7598h262.724v145.362h-262.724z"/><ellipse cx="147.362" cy="15.5196" rx="131.362" ry="6.51958"/><ellipse cx="147.362" cy="160.882" rx="131.362" ry="6.51958"/></g></svg>