<svg fill="none" height="70" viewBox="0 0 210 70" width="210" xmlns="http://www.w3.org/2000/svg" xmlns:xlink="http://www.w3.org/1999/xlink"><linearGradient id="a"><stop offset="0" stop-color="#cf5c2b"/><stop offset="1" stop-color="#59173e"/></linearGradient><linearGradient id="b" gradientUnits="userSpaceOnUse" x1="161.024" x2="129.804" xlink:href="#a" y1="-103.532" y2="-11.7548"/><linearGradient id="c" gradientUnits="userSpaceOnUse" x1="119.498" x2="91.4355" xlink:href="#a" y1="-30.9254" y2="130.751"/><linearGradient id="d" gradientUnits="userSpaceOnUse" x1="118.961" x2="82.963" xlink:href="#a" y1="-25.9304" y2="174.886"/><linearGradient id="e" gradientUnits="userSpaceOnUse" x1="110.443" x2="108.068" xlink:href="#a" y1="88.1012" y2="44.1581"/><linearGradient id="f" gradientUnits="userSpaceOnUse" x1="177.882" x2="167.909" xlink:href="#a" y1="16.5635" y2="45.6869"/><linearGradient id="g" gradientUnits="userSpaceOnUse" x1="217.001" x2="130.455" xlink:href="#a" y1="-64.9342" y2="154.435"/><linearGradient id="h" gradientUnits="userSpaceOnUse" x1="159.496" x2="153.205" xlink:href="#a" y1="14.3183" y2="32.6877"/><linearGradient id="i" gradientUnits="userSpaceOnUse" x1="184.173" x2="129.585" xlink:href="#a" y1="-37.0857" y2="101.28"/><linearGradient id="j" gradientUnits="userSpaceOnUse" x1="40.3153" x2="34.0249" xlink:href="#a" y1="28.6854" y2="47.0549"/><linearGradient id="k" gradientUnits="userSpaceOnUse" x1="64.9926" x2="10.4041" xlink:href="#a" y1="-22.7174" y2="115.649"/><path d="m209.849 55.7615c-.108-1.446-.217-2.892-.31-4.338-.093-1.5169-.201-3.048-.294-4.5649-.062-1.0349-.155-2.1406-.186-3.218-.031-.8932.372-2.3675-.155-3.1756-.309-.482-.991-.6237-1.595-.723-.789-.1276-1.579-.2551-2.369-.3827 1.069-.2269 2.106-.5104 3.128-.8648.232-.0851.465-.1701.62-.3402.139-.156.185-.3686.216-.5529.357-1.9847.124-4.0828.124-6.0959-.015-2.0414-.015-4.097-.031-6.1384-.015-1.9422-.015-3.8985-.031-5.8407 0-.638.295-2.0414-.062-2.6085-.278-.4678-.944-.4395-1.455-.4962-.527-.0567-1.053-.0567-1.58-.0283-.79.0425-1.564.1559-2.338.2693 1.022-.2552 2.075-.3827 3.097-.6096.666-.1417 1.316-.3402 1.936-.6379.371-.1843.774-.3402.991-.6947.093-.1417.124-.326.17-.4961.093-.3544.109-.723.14-1.0916.061-1.0065.108-2.0131.123-3.0338.016-.51034.016-1.02069 0-1.53105 0-.32606-.139-.63794-.17-.97817-.139-1.37512-.743-2.69353-1.703-3.75677-.961-1.04906-2.277-1.81459-3.732-2.169-.542-.12759-1.084-.19847-1.642-.22683-65.474-1.885467-129.6463-1.95635-192.4254.02836-.2478.01417-.51103-.01418-.7588.04253-.24777.07088-.49554.15594-.7588.241-.51103.17012-1.02205.34023-1.5176.56706-.96011.42529-1.85828.99235-2.47771 1.78623-.35617.46783-.60394.99236-.92914 1.46018-.17035.241-.38715.42529-.52652.68047-.66588 1.21918-1.33177 2.45253-2.26091 3.52994-.898174 1.04905-1.1614309 2.72185-1.0685167 4.01195.1393717 1.7579.1858287 3.5299.3561717 5.2878.278743 2.7928.015485 5.5856.356171 8.4067.046457.3969.123886.8506.449084 1.1057.23229.1843.542.2552.83623.3119.96011.1985 1.93571.3828 2.89583.5813-1.1924.7088-2.97326.7655-3.60817 1.928-.20132.3827-.23229.808-.26326 1.2333-.1084 1.5027-.263257 2.9913-.371657 4.4798-.046457.6663-.092914 1.3468-.1084 2.013-.030971.638-.077428 1.2618-.154857 1.8997-.154857 1.4885-.572971 3.4165-.077428 4.8767.480057 1.4035 2.400282 1.4602 3.716572 1.8004-.69686.0709-1.22337.5954-1.64149 1.12-.20131.2693-.35617.5387-.542.808-.17034.241-.3252.482-.46457.7372-.27874.5103-.511027 1.0349-.68137 1.5878-.1084.3686-.170342.6521-.185828 1.0348-.015486.3403-.030972.6805-.046457 1.0207-.030972.6805-.046457 1.361-.061943 2.0415-.030972 1.3609-.046457 2.7218-.030972 4.0828.015486 1.3184-.3251995 2.5943.278743 3.8843.603947 1.2901 1.641487 2.3959 2.942287 3.1189 1.05303.5954 2.24543.9073 3.48428.964 63.13523 2.5376 127.32343 2.5092 192.50243-.0142 1.719-.0709 3.376-.6947 4.646-1.7721.604-.5103 1.146-.964 1.595-1.6161.558-.7797 1.069-1.5878 1.549-2.41 1.177-1.9989 2.648-4.2246 2.462-6.5353z" fill="url(#b)"/><path d="m202.692 63.0065c-65.194 2.5092-129.3672 2.5517-192.5025.0141-2.80287 0-5.41995-1.8429-6.47298-4.1537-.46457-1.0349-.55749-2.1548-.49554-3.2606.01548-.1984.03097-.3827.09291-.5812.09292-.2977.24777-.5529.27874-.8648.01549-.1701.04646-.3119.06195-.482.1084-.8789.13937-1.772.2168-2.651.04645-.4961.1084-1.0065.26325-1.4885.17035-.5529.44909-1.0491.92915-1.3893 2.07508-1.4318 6.14782-1.4035 9.16752-1.4602.5885-.0142 1.1305-.0283 1.626-.0567 1.3163-.0709 2.6326-.0992 3.9489-.0992-3.1281-.0142-6.2408-.2552-9.3224-.7514-1.45568-.2268-2.91134-.5103-4.35151-.8506-.34069-.0708-.71234-.1843-1.03754-.326-.44909-.1843-.83623-.4537-1.03755-.8506-.17034-.3402-.15485-.7372-.15485-1.0916.01548-.3544-.04646-.723-.01549-1.0774.03097-.7655.13937-1.5027.2168-2.2541.07743-.6096.15486-1.2192.20132-1.8429.1084-1.6303.2168-3.2606.35617-4.8909.04645-.4962.1084-1.0349.48005-1.3751.23229-.2127.52652-.3119.82075-.4111.80525-.2694 1.626-.4679 2.46223-.5955.4336-.0708.8672-.0708 1.23885-.1559.44907-.1276.78977-.2126 1.26987-.2552 4.5992-.4961 9.1985-.9781 13.8132-1.4743.542-.0567 1.0995-.1134 1.657-.1701-6.9376-.7656-13.8907-1.5595-20.8283-2.325-.30971-.0425-.60394-.0709-.91365-.0992-.27875-.0284-.57297-.0709-.7588-.2552-.01549-.0142-.03097-.0284-.04646-.0425-.13937-.1701-.15486-.3686-.18583-.5813-.30971-3.4307.04646-6.9748-.17034-10.448-.01549-.1985-.07743-1.1625-.13937-2.2683-.07743-1.6019-.20132-3.43068-.24777-3.43068-.29423-3.81347 2.89582-7.10242 7.07692-7.23001 62.7636-1.998879 126.9365-1.927997 192.3635 0 4.197.12759 7.418 3.43071 7.093 7.27254-.109 1.30425.17 2.56595-.186 3.88435-.078.3119-.186.6238-.449.8364-.233.1843-.542.2552-.837.3119-.789.1701-1.579.3544-2.369.5245-1.053.2269-2.091.4395-3.159.5529-6.318.6096-12.605 1.2334-18.908 1.8571-.17.0142-.341.0284-.511.0426-.201.0141-.403.0425-.604.0567.511-.0142 1.007-.0142 1.502-.0142 7.898-.1276 15.811-.241 23.724-.3686.217 0 .465 0 .635.1276.201.1418.248.3828.279.6096.046.3119.046.6096.046.8931-.015.9215-.186 1.8004-.186 2.7361 0 .8222.217 1.6303.217 2.4808-.015 1.2192-.062 2.4384-.108 3.6718-.124 2.7785-.341 5.5997-.666 8.3924-.046.4112-.108.8364-.403 1.1342-.232.2268-.573.3544-.898.4536-.201.0709-.402.1276-.619.1701-4.646 1.2192-9.725.2552-14.495 1.0065-.31.0426-.635.0993-.929.1702-.108.0141-.217.0425-.31.0708.387.0284.775.0426 1.162.0851 5.218.3402 10.422.8222 15.609 1.4318.604.0709 1.286.1701 1.642.6238.279.3402.279.8081.279 1.2334v1.4034c0 1.4177 0 2.8353.077 4.253.093 1.8713.217 3.7426.356 5.628.062.9215.124 1.843.201 2.7503.279 3.7993-2.895 7.074-7.046 7.2442z" fill="url(#c)"/><path d="m208.843 23.2958c-.016 1.2192-.062 2.4384-.108 3.6717-2.679.2269-5.297.4112-7.867.6805-.604.0567-1.193.1134-1.797.1843-2.214.2127-4.428.4111-6.643.5812-1.099.0851-2.214.1702-3.329.2552-.713.0567-1.348.3119-2.029.3828-.96.0992-2.013-.1276-2.989-.1843-1.084-.0567-2.168-.0851-3.252-.0709-2.168.0284-4.351.1701-6.504.397-4.336.4536-8.61 1.205-12.915 1.8571-6.891 1.049-13.813 1.8571-20.782 2.3816 3.794.3403 7.557.9073 11.258 1.687-1.393.0993-2.787.1985-4.181.2694-4.429.2552-8.857.3827-13.286.4536s-8.874.0709-13.303.0567c-4.429 0-8.873-.0141-13.302.0142-4.429.0425-8.8577.1276-13.2866.3119-2.2145.0992-4.4289.2126-6.6279.3686-.5575.0425-1.0995.085-1.657.1276-.6658.0567-1.3162.2268-1.9976.2977-5.2806.567-10.5613 1.2759-15.78 2.2115-8.1145 1.4602-16.2754 2.892-24.5293 3.4024-1.4867.085-2.9888.1701-4.4754.2551-7.1079 1.3043-14.7889 1.5736-21.7574 2.3533-2.3693.2694-4.7851.4112-7.2009.4962-1.45564-.2268-2.9113-.5103-4.35147-.8506-.34068-.0709-.71234-.1843-1.03754-.326-.44909-.1843-.83623-.4537-1.03754-.8506-.17035-.3403-.15486-.7372-.15486-1.0916.01548-.3544-.04646-.723-.01549-1.0774.03097-.7656.13937-1.5027.2168-2.2541 6.3801-.482 12.9306-2.169 19.0629-2.9912 7.8822-1.0349 15.9193-1.6445 23.8635-2.0556 8.9972-.4537 17.9789.5245 26.9451.5245 8.3159 0 16.6007-.6663 24.8701-1.2759 16.1206-1.1908 32.2106-2.4241 48.2996-3.7-3.499-.0567-6.999-.1418-10.499-.2552-4.46-.1418-8.92-.3261-13.38-.5387-1.037-.0425-2.106-.1701-3.128-.0709-1.068.1134-2.152.1418-3.221.1276-2.121-.0284-4.243-.2694-6.302-.7372-1.208-.2693-2.416-.6238-3.64-.8222-2.075-.3261-4.196-.2268-6.318-.2552-7.882-.0992-15.6403-1.9989-23.5226-1.928-2.0751.0142-4.1347.1701-6.1943.3402-2.1834.1843-4.3824.3686-6.5814.4253-.9756.0284-1.9822.0851-2.9268-.1134-.7278-.1559-1.564-.085-2.3074-.0992-1.3317-.0284-2.6635-.0567-3.9953-.0851-2.6635-.0567-5.3271-.085-8.0061-.0992-10.1122-.0425-20.1934.4678-30.3055.3969-4.3051-.0283-8.703-.1134-12.96157-.6804-.01548-.0142-.03097-.0284-.04646-.0426-.13937-.1701-.15485-.3686-.18582-.5812-.30972-3.4307.04645-6.9748-.17035-10.4481-.01548-.1984-.07743-1.1624-.13937-2.2682 5.15674-.4111 10.34447-.5104 15.50117-.8506 10.0967-.6805 20.1934-.9782 30.3365-.9357 20.085.0851 40.1235 1.2618 60.1463 2.6511 20.039 1.3892 40.031 3.1046 60.069 4.4088 10.128.6522 20.271 1.0633 30.414 1.0633 2.974 0 5.978-.1701 8.982-.3686-.015.9215-.186 1.8004-.186 2.736.047.8932.263 1.7012.248 2.5376zm.325 24.0859c-.077-1.4177-.077-2.8353-.077-4.253-6.396-.6379-12.807-1.29-19.234-1.7011-11.025-.6947-22.113-.5813-33.154-.1702-2.292.0851-4.553.1418-6.83.397-1.099.1276-2.199.2552-3.298.3686-4.414.482-8.827.8647-13.256 1.1766-1.719.1134-3.453.2268-5.188.3261 4.476-.0284 8.951-.0567 13.427-.0851 4.475-.0283 8.95-.0567 13.426-.085 2.23-.0142 4.475-.0284 6.705-.0426 1.115-.0141 2.23-.0141 3.36-.0283.465 0 .96.0283 1.425-.0709.279-.0567.558-.1559.836-.1985 1.007-.1417 2.122.0426 3.128.0993 1.115.0567 2.215.1134 3.33.1701 2.214.1276 4.444.2693 6.659.4111 3.499.241 6.984.5104 10.468.7939 3.809.3119 7.588.723 11.382 1.1483-8.61.7513-17.205 1.531-25.83 1.9705-19.853 1.0065-39.706 2.2682-59.589 1.8997-19.6051-.3403-39.1636-1.3752-58.784-1.3043-10.3444.0284-20.6734.1843-30.9869.4678-7.619.1985-15.3308.1702-22.93433.879-.15485.4678-.2168.9923-.26325 1.4885-.07743.879-.1084 1.7721-.2168 2.651 8.47068.3119 17.03428-.2126 25.48948-.2268 10.329-.0142 20.6579.0709 30.9869.2977 19.574.4253 39.1324 1.4177 58.6909 1.7295 19.915.3261 39.783-.9781 59.651-1.8996 10.251-.4678 20.565-.482 30.817-.5812h.216c-.139-1.8855-.263-3.7426-.356-5.6281z" fill="url(#d)"/><g fill="#eb924d"><path d="m4.91018 42.5207c-.01548.7089-.01548 1.4319.23229 2.0982-.44909-.1843-.83623-.4537-1.03754-.8506-.17035-.3403-.15486-.7372-.15486-1.0916.01548-.3544-.04646-.723-.01549-1.0774.06194-1.3752.34069-2.7219.41812-4.097.1084-1.6303.2168-3.2606.35617-4.8909.04645-.4962.1084-1.0349.48005-1.3751.23229-.2127.52652-.3119.82075-.4112.80526-.2693 1.626-.4678 2.46223-.5954.38714-.085.82074-.085 1.1924-.1701.4491-.1276.7898-.2126 1.2698-.2552 4.5993-.4961 9.1985-.9781 13.8133-1.4743-4.94.9214-9.8799 1.8146-14.83533 2.736-.96012.1702-2.24543.1702-3.05069.7514-.17034.1134-.30971.2552-.44908.3969-.12389.1276-.23229.2694-.37166.397-.26326.2126-.35617.5529-.48006.8506-.3252.8647-.51103 1.772-.55748 2.6793-.01549.3403-.01549.6947-.06195 1.0349-.01548.0851-.03097.1701-.04645.2552-.01549.0992-.07743.1701-.1084.2693-.24778.6947-.2168 1.4602-.1084 2.169.04645.2552.13937.5104.20131.7656.15486.6096.04646 1.2617.03097 1.8854z"/><path d="m183.246 16.7769c-.278-.0142-.557-.0283-.836-.0425h1.332c-.155 0-.325.0283-.496.0425z"/><path d="m187.801 37.8008c1.285.1134 2.57.2268 3.856.3119-.31.0425-.635.0992-.929.1701-.991-.1701-1.983-.3403-2.927-.482z"/><path d="m206.723 36.0563c.201-.7372.155-1.5027.077-2.2541-.108-1.3893-.232-2.7927-.34-4.182-.016-.2694-.062-.5671-.295-.7372-.185-.1418-.449-.1418-.681-.1276-1.92.0567-3.825.1134-5.714.1701 2.059-.1701 4.103-.6663 5.962-1.4885.542-.241 1.099-.5387 1.301-1.0349.108-.2552.108-.5387.108-.8222-.031-2.1974-.449-4.6499-.743-6.8331-.899-.7797-2.246-.8789-3.485-.9498-4.986-.2835-9.988-.5529-14.959-.8364-1.192-.0709-2.524-.1134-3.794-.1701 7.898-.1276 15.811-.241 23.724-.3686.217 0 .465 0 .635.1276.201.1417.248.3827.279.6096.17 1.2475-.155 2.3958-.155 3.6291 0 .8223.217 1.6303.217 2.4809-.078 3.9411-.31 8.0523-.79 12.0642-.046.4111-.108.8364-.403 1.1341-.232.2268-.573.3544-.898.4537-.201.0709-.402.1276-.619.1701.263-.2835.464-.6521.573-1.0349z"/><path d="m3.5152 14.3953c-.03097-.4678-.30971-5.68478-.40262-5.68478-.29423-3.81347 2.89582-7.10242 7.07692-7.23001 62.7636-1.998879 126.9365-1.927997 192.3635 0 4.197.12759 7.418 3.43071 7.093 7.27254-.109 1.30425.17 2.56595-.186 3.88435-.078.3119-.186.6238-.449.8364-.233.1843-.542.2552-.837.3119-.789.1701-1.564.3686-2.353.5245.681-.567 1.471-1.2333 1.78-2.0556.217-.5528.047-1.0348-.154-1.5594-.31-.82221-.372-1.60191-.403-2.46668-.047-1.06324.155-2.58012-.759-3.43071-.697-.63794-1.61-1.19082-2.478-1.58776-2.152-.96401-4.645-1.17665-7.015-1.26171-.124 0-.232-.01418-.356-.01418-4.367-.12759-8.749-.14176-13.116.26936-.527.04252-.991.18429-1.502.26935-.635.11341-1.394-.02835-2.044-.05671-1.487-.07088-2.958-.12759-4.445-.18429-2.958-.09924-5.931-.17012-8.904-.21265-2.23-.02835-4.445-.02835-6.674-.02835-.697 0-1.41 0-2.106 0-1.348 0-2.695 0-4.058 0-1.874 0-3.747 0-5.621-.01418-.093 0-.186 0-.263 0-2.974 0-5.931-.01418-8.905-.01418-1.486 0-2.973 0-4.444-.01417-.681 0-1.44.08506-2.106-.02835-.681-.11342-1.223-.49618-1.936-.55289-.65-.0567-1.316.04253-1.951.09924-1.626.11341-3.237.25517-4.847.42529-.728.07088-1.533.1843-2.013.68047-.171.17012-.294.38277-.496.52453-.449.29771-1.084.09924-1.61-.07088-1.038-.32606-2.137-.51035-3.252-.55288-1.007-.04253-1.998.12759-3.004.07088-.635-.02835-1.239-.17012-1.859-.28353-2.446-.43947-5.002-.46782-7.464-.63794-1.827-.12759-3.67-.21265-5.5128-.26935-5.931-.19847-11.8775-.08506-17.793.14176-2.9733.11341-5.9311.25518-8.9043.4253-1.3628.07088-2.8649.34023-4.2121.17011-.3872-.04253-.7588-.18429-1.146-.25517-.4026-.07089-.8052-.05671-1.2233-.05671-1.6415.01418-3.2985.02835-4.94.02835-1.9202.01418-3.8559 0-5.7916 0-.6504 0-1.2854.11342-1.9203.11342-.5884 0-1.1614-.11342-1.7499-.11342-1.2233.01418-2.4312.22683-3.5617.65212-.4336.17012-.8827.35441-1.3627.34024-.8672-.04253-1.4557-.79389-2.2454-1.13412-1.8583-.808061-3.7786.73718-5.6833.11341-.9446-.31188-1.9047-.26935-2.9113-.26935-1.2698-.01418-2.5397-.01418-3.8095-.01418-4.305.01418-8.6101.15594-12.8841.55288-2.137.19847-4.2586.46783-6.3801.80806-1.0221.17012-2.05962.43947-3.09717.55289-.29423.02835-.52651.02835-.80525.21264-1.26983.80806-4.75412 5.33036-2.26092 6.91814.15486.0992.3252.1843.51103.2552.26326.0992.542.1417.82074.2268.27875.0992.63492.0283.92915.0283.71234 0 1.42468 0 2.12152-.0141.7588 0 1.5176-.0142 2.23.1843-1.6106.3118-3.22107.6095-4.83158.9073-.52652.0992-1.05303.1984-1.54857.3969-.07743.0425-.17035.0567-.26326.0851-.34069.1134-.58846.4961-.71234.7938-.3252.7797-.12389 1.6303-.26326 2.4384-.24777 1.446.06194 3.0054.2168 4.4372.20131 1.843.44909 3.7001.74331 5.543-.30971-.0425-.60394-.0708-.91365-.0992-.29423-.0284-.60395-.0709-.80526-.2835-.13937-.1701-.15486-.3686-.18583-.5813-.30971-3.459.04646-7.0031-.15486-10.4622z"/><path d="m209.722 55.7612c-.217-2.7928-.402-5.5856-.557-8.3783-.093-1.8855-.078-3.771-.078-5.6565 0-.4253-.015-.8789-.278-1.2333-.357-.4537-1.038-.5529-1.642-.6238-5.188-.6096-10.391-1.0916-15.609-1.4318 4.645.8222 9.446 1.8713 13.859 2.9912.867.2269.929.8364 1.286 1.5878.34.7514.371 1.6019.402 2.41.016.3402.016.6805-.108 1.0065-.263.723-1.1 1.12-1.843 1.4602.557.1418 1.115.2835 1.688.4395.139.0425.279.0709.372.1701.108.0992.154.2694.17.4253.217 1.3468.046 2.7644.062 4.1254.015.8789.015 1.7578.031 2.6368.015.241.108.4678.17.723.093.5103.031 1.0349-.139 1.531-.341 1.0207-1.1 1.928-2.075 2.5093-1.688 1.0065-3.794 1.2192-5.807 1.3467-3.361.2269-6.737.1985-10.082.4962-1.115.0851-2.214.1843-3.329.2694-2.214.1701-4.444.3119-6.659.4536-4.197.2552-8.409.4537-12.605.5813-9.942.3118-19.899.2835-29.857.2268-1.192-.0284-2.4-.0284-3.592-.0284-.976 0-1.905.1134-2.865.0284-2.339-.2127-4.661.1701-6.984.4111-2.71.2694-5.622.2977-7.96-.9782-.743-.4111-1.471-.9498-2.338-.9782-.713-.0141-1.379.3545-2.029.638-1.239.5387-2.602.8364-3.964.9923-.031 0-.047 0-.078.0142-2.896.3403-5.683.156-8.5788-.0283-2.1216-.1276-4.3515.1984-6.3801-.4962-1.5641-.5245-3.2056-1.2759-4.8161-.879-.573.1418-1.084.4253-1.626.6238-1.053.3828-2.2145.4537-3.3449.5104-.7123.0283-1.4247.0567-2.137.085-2.9578.0851-5.9311.0709-8.8888-.0425-1.2389-.0567-2.5087-.0425-3.7166-.3686-.8362-.2268-1.657-.0851-2.5242-.0283-3.5927.2126-7.2008.2693-10.809.1559-1.4712-.0425-2.9423-.1134-4.3979-.2127-.7124-.0425-1.4557-.1701-2.1681-.1701-.4955 0-.9446.1418-1.4401.1418-2.9888-.0142-5.962-.0567-8.9508-.0851-5.0948-.0425-10.2051-.0992-15.2999-.1417-3.4842.4394-6.411-.1134-9.8644-.6947-2.83384-.482-5.9155-1.531-7.09241-3.941-.49554-1.0066-.57297-2.1265-.52652-3.2039.01549-.3261.04646-.638 0-.964-.04645-.2977-.15485-.5671-.20131-.8648-.15486-.9782.17034-2.1123.4336-3.0621.13937-.482.30971-.9924.69686-1.361.34068-.3402.82074-.5387 1.3008-.6804 1.26983-.3686 2.61708-.4537 3.94888-.5246 1.9202-.0992 3.8404-.2126 5.7607-.3118.3871-.0142.7742-.0426 1.1614-.0567-.0465-.1702-.0774-.3403-.0774-.5246l.0154-.0709c-1.1769-.0283-2.3538-.0283-3.5307-.0425-3.0352.0567-7.09245.0425-9.16754 1.4602-.92914.6379-1.09949 1.8146-1.1924 2.8636-.09291 1.0349-.12389 2.0982-.27874 3.133-.04646.3119-.18583.5671-.27875.8648-.06194.1985-.07742.3828-.09291.5812-.06194 1.12.03097 2.2399.49554 3.2606 1.03755 2.325 3.65463 4.1537 6.473 4.1537 63.1353 2.5376 127.3082 2.5093 192.5032-.0141 4.15-.156 7.324-3.4307 7.03-7.23z"/><path d="m14.7617 35.1626c0 .7655.031 1.5452.0774 2.3108.0155.3827.0465.7655.0775 1.1483.0155.2835 0 .5954.0619.8647.062.2268.1239.4253.1239.6663.031.6521.0619 1.3184.1084 1.9705.0619 1.3185.1394 2.6227.2013 3.9411.0929 1.687.1704 3.3598.2633 5.0468.0464.9357.2168 1.7437.7588 2.5376.1084.156.2013.3119.3252.4537.2013.241.4491.4111.7588.5387 1.1304.4536 2.4157.6946 3.6391.8648 1.8893.2693 3.794.3402 5.6988.3969 25.1023.808 50.2356 1.6303 75.3539 1.0632 3.066-.0709 6.24-.1417 9.09.9073-1.301-2.1265-4.445-2.4383-7.108-2.495-27.9055-.5813-55.8263-1.2334-83.6386-3.3599-.7588-.0567-1.5951-.1417-2.1371-.6521-.3871-.3544-.542-.8647-.6658-1.3468-1.4247-5.2594-1.7035-10.7741-.8363-16.1328.0465-.326.1549-.6805.1394-1.0065-.0155-.3403-.0619-.6805-.0619-1.0349-.0155-.7088.0154-1.4318.0929-2.1407-.1084-.1701-.3717-.1701-.573-.1417-.5265.0567-1.053.0992-1.595.1559.0309.4678 0 .9073-.062 1.3751-.0155.156.0155.2694.031.4253.031.3119-.031.638-.0465.9357-.0309.4536-.0464.9215-.0619 1.3751 0 .4395-.0155.8931-.0155 1.3326z"/><path d="m112.4 58.1299c.309-.723 1.347-.8506 2.198-.8648 6.768-.1276 13.52-.241 20.287-.3686 6.38-.1134 12.775-.2268 19.156-.3544 2.059-.0425 4.258-.0425 5.962 1.0207-.031-.2268-.078-.4537-.109-.6805.728-.1134 1.425-.2552 2.168-.1984.403.0283.821-.0993 1.224-.1418.944-.1134 1.904-.1559 2.849-.1985 5.25-.2126 10.515-.2835 15.78-.5245 1.332-.0567 2.648-.1418 3.98-.2268 1.316-.0851 2.648-.156 3.949-.3261.185-.0283.356-.0851.542-.0992.247-.0142.495-.0284.743-.0426 1.332-.0992 2.679-.326 3.918-.8505 1.548-.6522 2.911-1.8146 3.407-3.3032.216-.6663.263-1.3609.309-2.0556.155-3.1755.109-6.3652-.155-9.5266-.17-.1559-.603.1276-.665.3545-.635 2.3107-1.115 4.6498-1.425 7.0031-.186 1.4035-.341 2.892-1.285 3.9978-1.038 1.205-2.772 1.687-4.414 2.0272-8.718 1.843-17.731 2.0273-26.666 2.1974-8.332.1559-16.663.3261-24.979.482-6.937-.2126-14.045.7939-20.936.1134-1.936-.1985-3.887-.5103-5.823-.2552-.139.0142-.294.0426-.403.1418-.077.0709-.093.1701-.124.2694-.232.7371.14 1.6728.512 2.41z"/></g><path d="m198.485 44.6755c-.015-2.6936-.046-5.3871-.077-8.0948-.015-2.5943-.046-5.1744-.062-7.7687-.031-3.1189.109-6.266-.294-9.3565-.078-.6096-.248-1.2334-.232-1.8429.015-.9215-.186-1.6303-.635-2.5093-.573-1.1908-1.394-2.2824-2.323-3.2748-2.013-2.18313-4.909-2.28237-7.929-2.39578-3.174-.12759-6.333-.01417-9.493-.02835-3.53-.01418-7.077-.02835-10.607-.05671-4.305-.02835-8.595-.07088-12.9-.11341s-8.61-.08506-12.915-.12759c-2.153-.01417-4.305-.04253-6.458-.0567-.449 0-.913-.04253-1.347.0567-.279.05671-.526.15594-.805.1843-.96.08506-2.06-.14177-3.004-.31189.124-2.02723.511-4.04029 1.161-5.99665-.883 2.01306-1.889 3.98359-3.035 5.88324-.077.12759-.155.25518-.294.31189-.14.0567-.31.04252-.449.02835-.326-.04253-.666-.07088-.991-.14177-.744-.17011-1.534-.09923-2.308-.09923-3.329-.02835-6.643-.04253-9.973-.05671-6.535-.02835-13.07-.01417-19.5891.02836-6.9995.04252-13.999-.04253-21.0141-.07089-1.9047-.01417-3.8094-.02835-5.6987-.02835-.8207 0-1.6105-.02835-2.4003.12759-.8207.17012-1.8273.02835-2.6635-.01418-.4646-.02835-.9601-.07088-1.3318-.34023-.3717-.25518-.542-.6663-.7123-1.06324-.3407-.82224-.6814-1.64447-1.0221-2.46671.0465.964.1549 1.91383.3252 2.86365.0465.31188.0774.70883-.2323.86477-.0929.04253-.2168.0567-.3252.07088-.3716.02835-.7588.11341-1.1304.04253-.7124-.12759-1.4247-.08506-2.1526-.08506-7.9596 0-15.8883-.02835-23.817-.05671-4.4444-.01417-15.1295-2.08394-16.5852 3.4449-.2013.7655-.1858 1.5594-.2478 2.3533-.1548 2.3816-.0619 4.7775-.0154 7.1733.1238 7.8963.3716 15.7926.7123 23.6747.0465 1.205.1084 2.4242.2787 3.6292.1394.9498.062 2.1973.8827 2.9345.2788.2552.4801.4962.7279.7939.4955.5812 1.1769 1.0207 1.9202 1.3326 1.595.6805 3.4378.8648 5.2032.9357 5.7607.2551 11.5059.4678 17.2511.6237 5.7916.1701 11.5678.3261 17.3595.4253 5.7916.0992 11.5678.1701 17.3594.1985 5.2497.0283 10.4993.0425 15.749.0567h8.0366c2.896 0 6.396-.8223 9.06.4395 1.331.6237 2.446 1.6303 3.081 2.8778-.108-1.0066-.077-2.0273.093-3.0338 2.106-.2693 4.212-.4395 6.334-.4678.914-.0142 1.796.1134 2.71.0992 1.068 0 2.152-.0142 3.221-.0142 4.305-.0283 8.61-.0567 12.915-.0992 2.664-.0283 5.327-.0567 8.006-.085 5.792-.0568 11.568-.1843 17.36-.3828 1.037-.0425 2.09-.0709 3.128-.1134 7.975-.2836 15.95-.7088 23.91-1.2901.681-.0567 1.331-.1134 1.966-.2268 1.022-.1843 1.983-.5104 2.819-1.1625 1.022-.7939 2.013-1.6445 2.694-2.6935 1.1-1.687.821-3.615.805-5.5288zm-4.32 3.6575c-.418.6379-1.192 1.2759-1.827 1.7579-.155.1134-.387.2552-.991.3544-.45.085-.976.1276-1.503.1701-7.634.5529-15.625.9782-23.739 1.2901-1.038.0425-2.06.0708-3.097.0992-6.071.1985-11.707.3261-17.251.3828-16.462.1843-32.675.2835-48.2229.2835-6.9685 0-13.9371-.0142-20.9212-.0567-5.7297-.0425-11.5678-.0992-17.2975-.1985-5.7297-.0992-11.5524-.241-17.2976-.4111s-11.5368-.3828-17.2046-.6379c-1.2543-.0426-2.679-.156-3.6856-.5813-.2478-.1134-.3716-.1984-.4026-.2268-.1858-.2268-.4181-.4962-.6814-.7797-.0155-.1418-.031-.2977-.0464-.4253-.031-.2552-.0465-.4962-.0775-.7372-.1393-1.0207-.1858-2.0697-.2477-3.3315-.3562-7.797-.604-15.7358-.7124-23.5754l-.0155-1.3326c-.0464-1.9422-.0774-3.771.0465-5.5714.0155-.1985.0155-.4111.031-.6379.0154-.4395.0309-.8364.0929-1.0633.1393-.482 1.626-.9781 4.7076-.9781 1.5176 0 3.1436.1134 4.5683.2126 1.2234.0992 2.3848.1701 3.3759.1701 7.077.0284 14.1694.0425 21.2619.0425h3.9798c5.2961 0 10.5922.0142 15.9038.0426l5.1103.0283c3.7321.0284 7.4796.0426 11.2117.0426 1.564 0 3.1436 0 4.7386-.0142 3.9489-.0284 7.8826-.0425 11.8306-.0425 13.365 0 26.992.1417 40.155.2693 10.329.0992 21.03.1985 31.498.241l.511.0142c.929 0 1.827-.0142 2.756-.0142.899-.0142 1.797-.0142 2.679-.0142 1.301 0 2.385.0142 3.361.0567h.108c2.834.1276 4.15.2552 4.925 1.0916.789.8506 1.331 1.6303 1.703 2.3817.279.5812.279.7372.279.964-.016.7372.108 1.3751.186 1.8854.015.1418.046.3119.077.4537.279 2.1548.263 4.3664.263 6.7196-.015.7372-.015 1.4744 0 2.2116l.14 15.8209c.015.3544.015.6805.031 1.0066.015 1.1199.046 2.1123-.31 2.6368z" fill="url(#e)"/><path d="m14.8365 30.1587 4.7386-.8648-.2013-.4111-4.909.5387z" fill="#eb924d"/><path d="m193.172 17.2147 5.497.4253v-1.1341l-5.946.241z" fill="#eb924d"/><path d="m193.561 38.8915 6.086 1.0633-.124-.8932-6.535-.5245z" fill="#eb924d"/><path d="m175.766 34.1279c-4.63-2.3674-12.326-1.6444-15.997 1.5453-2.307 2.013-2.431 5.7698 0 7.7687 5.343 4.4089 14.727 2.5234 18.119-2.9204.062-.0567.124-.1134.201-.1559 2.586-2.1407.743-5.699-2.323-6.2377z" fill="#eb924d"/><path d="m176.868 32.044c-4.63-2.3675-12.327-1.6445-15.997 1.5452-2.307 2.0131-2.431 5.7698 0 7.7687 5.343 4.4089 14.727 2.5234 18.118-2.9204.062-.0567.124-.1134.202-.1559 2.586-2.1406.743-5.6989-2.323-6.2376z" fill="url(#f)"/><path d="m175.766 33.3897c-4.63-2.3675-12.326-1.6445-15.997 1.5452-2.307 2.0131-2.431 5.7698 0 7.7687 5.343 4.4089 14.727 2.5234 18.119-2.9204.062-.0567.124-.1134.201-.1559 2.586-2.1406.743-5.6989-2.323-6.2376z" fill="url(#g)"/><path d="m158.159 25.3963c-2.927-1.5027-7.774-1.0348-10.081.9782-1.456 1.2617-1.533 3.6434 0 4.9051 3.376 2.7786 9.291 1.5878 11.428-1.843.047-.0283.078-.0708.124-.0992 1.626-1.3609.465-3.6008-1.471-3.9411z" fill="#eb924d"/><path d="m158.855 24.0917c-2.927-1.5028-7.774-1.0349-10.082.9781-1.455 1.2617-1.533 3.6434 0 4.9051 3.376 2.7786 9.292 1.5878 11.429-1.8429.046-.0284.077-.0709.124-.0993 1.626-1.3751.464-3.615-1.471-3.941z" fill="url(#h)"/><path d="m158.159 24.9276c-2.927-1.5027-7.774-1.0349-10.081.9782-1.456 1.2759-1.533 3.6433 0 4.905 3.376 2.7786 9.291 1.5878 11.428-1.8429.047-.0284.078-.0709.124-.0992 1.626-1.361.465-3.6009-1.471-3.9411z" fill="url(#i)"/><path d="m38.9834 39.7694c-2.9268-1.5027-7.7738-1.0349-10.0812.9782-1.4556 1.2617-1.5331 3.6433 0 4.905 3.3759 2.7786 9.2914 1.5878 11.4285-1.8429.0464-.0284.0774-.0709.1239-.0992 1.626-1.361.4645-3.6009-1.4712-3.9411z" fill="#eb924d"/><path d="m39.6787 38.451c-2.9268-1.5027-7.7738-1.0349-10.0812.9782-1.4556 1.2759-1.5331 3.6434 0 4.9051 3.3759 2.7786 9.2915 1.5877 11.4285-1.843.0464-.0283.0774-.0709.1239-.0992 1.626-1.3609.4645-3.6008-1.4712-3.9411z" fill="url(#j)"/><path d="m38.9834 39.3026c-2.9268-1.5027-7.7738-1.0349-10.0812.9782-1.4556 1.2759-1.5331 3.6433 0 4.905 3.3759 2.7786 9.2914 1.5878 11.4285-1.8429.0464-.0284.0774-.0709.1239-.0992 1.626-1.361.4645-3.6009-1.4712-3.9411z" fill="url(#k)"/><path d="m14.7148 17c0-3.3137 2.6863-6 6-6h163.2362c5.522 0 9.999 4.4772 9.999 10v23c0 5.5228-4.477 10-10 10h-161.2352c-4.4182 0-8-3.5817-8-8z" fill="#eb924d" opacity=".9"/><path d="m73.1817 25.6055c.1563 0 .2865.0065.3907.0195h.332c.0911.0521.2083.0781.3516.0781.1171.013.1953.0261.2343.0391.0521.013.1042.0195.1563.0195.1823-.039.332-.0456.4492-.0195.1953.026.332.0325.4102.0195.0911-.026.1822-.0325.2734-.0195.1432.026.2344.0325.2734.0195.0391-.013.0782-.013.1172 0 .1432.0261.2214.0391.2344.0391.013-.013.0325-.0196.0586-.0196.0911.0261.1627.0326.2148.0196.0261.013.0782.013.1563 0 .0911-.013.1562-.0196.1953-.0196.1172.0131.2279.0261.332.0391.1172 0 .2279-.013.3321-.0391.1562 0 .2408.0066.2539.0196h.0781.1562c.0521-.013.0977-.0196.1368-.0196.039-.013.0716-.013.0976 0h.1172c.1562-.013.2474-.013.2734 0h.1368c.1171.0261.2083.0326.2734.0196.0781-.0261.1497-.0326.2148-.0196.1823.0521.319.0912.4102.1172.1042.0131.1888.0456.2539.0977.0651 0 .1172.0195.1562.0586.0521.026.1042.0521.1563.0781.1432.0651.2279.1107.2539.1367.026.0131.0521.0326.0781.0586.0521.0261.0977.0456.1367.0586.0521.013.0912.0456.1172.0977.0912.0521.1368.0911.1368.1172.013.013.026.0325.039.0586.0651.1171.1237.1888.1758.2148s.0977.0586.1367.0977c.0261.039.0521.0846.0781.1367.0261.039.0521.0781.0782.1172.0781.1302.1237.2018.1367.2148.0781.1042.1302.1758.1562.2148.0261.0261.0521.0586.0782.0977.026.0391.0455.0781.0586.1172.026.026.052.0651.0781.1172.0911.1172.1432.1823.1562.1953.0391.0651.0847.1367.1367.2148l.1368.2344c.039.0912.0651.1432.0781.1563.013 0 .026.013.0391.039.0651.1302.1041.2018.1171.2149.0131 0 .0261.0065.0391.0195.0781.1432.1237.2279.1367.2539.1172.1302.1758.2214.1758.2734.013.0521.0326.0977.0586.1368.026.052.0651.1172.1172.1953.0651.1302.1041.1953.1172.1953.026.0521.0521.0976.0781.1367.0391.026.0716.0586.0977.0977.052.1041.0781.1757.0781.2148.013.0391.0325.0716.0586.0977.0781.1562.1172.2539.1172.2929 0 .0391.013.0782.039.1172.0912.1823.1498.2995.1758.3516.0521.1041.0781.1627.0781.1758 0 .013.0065.0325.0196.0586.039.0651.0651.1302.0781.1953.013.0521.0195.0911.0195.1172.0391.1171.0521.2018.0391.2539 0 .039.013.0911.039.1562.0131.0651.0261.1302.0391.1953.026.0651.026.1367 0 .2149.0391.1692.0521.2799.0391.332v.1758.1367c.013.0391.013.0846 0 .1367-.0131.0521-.0261.1042-.0391.1563-.013.039-.026.0846-.0391.1367l-.0976.2734c-.013.0391-.0261.0847-.0391.1367 0 .0391-.013.0782-.039.1172.013.0391 0 .0912-.0391.1563s-.0651.1107-.0781.1367c-.0261.1563-.0521.2474-.0782.2734-.026.0521-.052.1042-.0781.1563-.013.0521-.039.1107-.0781.1758-.0781.1562-.1172.2343-.1172.2343-.026.0651-.0586.1237-.0976.1758-.0391.0391-.0717.0847-.0977.1367-.0521.0782-.0977.1368-.1367.1758-.0781.2084-.1172.319-.1172.3321-.0521.0651-.0846.1106-.0977.1367 0 .026-.013.0521-.039.0781-.0912.1302-.1433.2083-.1563.2344-.013.013-.0325.039-.0586.0781-.0911.1432-.1432.2279-.1562.2539s-.0261.0521-.0391.0781c-.0781.1172-.1237.1823-.1367.1953-.013 0-.026.0131-.0391.0391-.0781.1172-.1237.1823-.1367.1953s-.0325.0261-.0586.0391c-.0781.1562-.1432.2539-.1953.293-.1172.2083-.2344.3776-.3516.5078-.0911.0911-.1432.1497-.1562.1757 0 .0131-.013.0326-.0391.0586-.0781.1172-.1432.1888-.1953.2149-.1172.1172-.1888.1888-.2148.2148-.013.013-.0326.0261-.0586.0391-.0781.0911-.1432.1627-.1953.2148-.0391.0521-.0847.0977-.1367.1367-.0652.1172-.1107.1823-.1368.1954-.013.013-.0325.026-.0586.039-.1171.0391-.1888.0651-.2148.0782-.1432.0911-.2474.1432-.3125.1562-.0521 0-.1107.0065-.1758.0195-.1432.0391-.2279.0651-.2539.0782-.026.013-.0521.0195-.0781.0195-.1302 0-.2149 0-.2539 0-.0391.013-.0847.0065-.1367-.0195-.0651.026-.1368.0325-.2149.0195s-.1627-.0195-.2539-.0195c-.0391 0-.0846.0065-.1367.0195s-.1042.0065-.1563-.0195c-.1041 0-.1692 0-.1953 0-.026.013-.0521.013-.0781 0-.1302 0-.2083-.0066-.2344-.0196-.0781 0-.1302-.0065-.1562-.0195-.013 0-.0326 0-.0586 0-.1823.026-.2995.0325-.3516.0195-.0521 0-.1107 0-.1758 0-.1953 0-.3255-.0065-.3906-.0195-.0521 0-.1107 0-.1758 0-.1172 0-.1888 0-.2148 0-.0261.013-.0521.0195-.0781.0195-.0391 0-.0782-.0065-.1172-.0195-.0391 0-.0781 0-.1172 0-.1042.013-.1628.013-.1758 0 0 0-.013 0-.0391 0-.0781 0-.1627 0-.2539 0-.0911.013-.1757.026-.2539.0391-.1041-.0131-.1757-.0196-.2148-.0196l-.2149.0196-.2343-.0196c-.1433.0261-.2474.0391-.3125.0391-.1042 0-.1758.0065-.2149.0195-.1432.013-.2409.0195-.2929.0195-.0391.0131-.0782.0196-.1172.0196-.1823 0-.319 0-.4102 0-.0911 0-.1823.0065-.2734.0195-.0912-.0391-.1498-.0651-.1758-.0781-.013 0-.0326-.0065-.0586-.0195-.1172.013-.1823.013-.1953 0-.013 0-.0326 0-.0586 0-.1432-.0391-.2344-.0651-.2734-.0782-.0261-.013-.0456-.039-.0586-.0781-.1042-.0391-.1628-.0651-.1758-.0781 0-.0261-.013-.0326-.0391-.0195-.013-.0521-.0325-.0977-.0586-.1368-.013-.039-.026-.0911-.039-.1562 0-.0391 0-.0781 0-.1172.013-.0521.0195-.0977.0195-.1367.013-.1433.013-.3125 0-.5078 0-.1953.013-.3581.0391-.4883.013-.1432.0195-.2149.0195-.2149.026-.1692.0391-.2734.0391-.3125.013-.039.026-.0911.039-.1562.013-.1302.0195-.2344.0195-.3125.0131-.0912.0196-.1693.0196-.2344-.013-.0781-.0196-.1302-.0196-.1562.0131-.0391.0066-.0717-.0195-.0977.0261-.0521.0326-.0976.0195-.1367 0-.0521.0066-.1042.0196-.1563 0-.1432 0-.2343 0-.2734.013-.0391.0195-.0716.0195-.0977.0391-.1302.0521-.2018.0391-.2148-.0131-.013-.0196-.0326-.0196-.0586-.026-.0651-.013-.1628.0391-.293-.026-.1562-.0326-.2474-.0195-.2734.013-.026.0195-.0521.0195-.0781-.026-.1172-.0456-.1888-.0586-.2149 0-.026-.0065-.0521-.0195-.0781.013-.1172.013-.1823 0-.1953 0-.013 0-.0326 0-.0586.026-.1563.039-.2474.039-.2734-.013-.1693-.013-.2735 0-.3125.0261-.0391.0391-.0782.0391-.1172 0-.0261-.013-.0586-.0391-.0977-.013-.039-.026-.0781-.039-.1172-.0261-.1823-.0326-.358-.0196-.5273.0261-.1823.0326-.3581.0196-.5274-.0261-.1562-.0261-.2994 0-.4296 0-.0912-.0065-.1823-.0196-.2735 0-.1041-.0065-.2018-.0195-.2929.013-.1303.0195-.2019.0195-.2149l.0196-.6055c-.013-.0651-.0261-.1237-.0391-.1757 0-.0521 0-.1107 0-.1758 0-.0391 0-.0781 0-.1172.013-.0521.0195-.1042.0195-.1563 0-.052-.0065-.1041-.0195-.1562s-.0195-.1042-.0195-.1563c.013-.1562.013-.2408 0-.2539 0-.013 0-.0325 0-.0586 0-.0651 0-.1237 0-.1757.013-.0521 0-.1042-.0391-.1563v-.2734c-.039-.1563-.0586-.28-.0586-.3711.013-.0912.013-.1888 0-.293-.013-.0651-.0195-.1237-.0195-.1758 0-.0651-.0065-.1497-.0195-.2539l-.0586-.2539c.013-.0651.013-.1562 0-.2734 0-.1172-.0065-.2344-.0196-.3516v-.2539c-.013-.1693-.0065-.293.0196-.3711.026-.0781.026-.1693 0-.2734.039-.0261.0651-.0651.0781-.1172s.0325-.0977.0586-.1367c.2083-.1172.3255-.1953.3516-.2344.1432-.026.2278-.0456.2539-.0586h.3711c.0651 0 .1236-.0065.1757-.0195zm3.7696 11.8359c.1562-.0391.2474-.0651.2734-.0781.0391-.013.0716-.0195.0977-.0195.1171-.1172.1888-.1823.2148-.1954.1563-.1692.2669-.2604.332-.2734.0912-.0911.1368-.1432.1368-.1562.013-.0131.0325-.0261.0585-.0391.0651-.0781.1042-.1302.1172-.1563.0261-.026.0456-.052.0586-.0781.0521-.026.0847-.0586.0977-.0976.026-.0521.0521-.0912.0781-.1172.1302-.1693.2149-.2735.2539-.3125.0781-.0912.1172-.1368.1172-.1368 0-.013.0065-.026.0195-.039.1042-.1432.1693-.2214.1953-.2344.0651-.1042.0977-.1562.0977-.1562.013-.0131.026-.0196.0391-.0196.052-.0911.0846-.1432.0976-.1562.013-.0261.0196-.0456.0196-.0586.0651-.0781.0911-.1237.0781-.1367 0-.0131.013-.0326.039-.0586.0521-.1433.0782-.2149.0782-.2149.013-.026.0325-.0586.0586-.0976.026-.0391.0455-.0782.0586-.1172.052-.1432.0911-.2344.1171-.2734.0261-.0391.0521-.0912.0782-.1563.026-.0911.0455-.1563.0586-.1953.013-.0391.0195-.0846.0195-.1367.026-.1433.026-.2344 0-.2735.013-.0651.013-.1106 0-.1367 0-.0391-.0065-.0846-.0195-.1367-.0391-.2214-.0651-.3646-.0782-.4297 0-.0781-.026-.1497-.0781-.2148.013-.0651.0065-.1237-.0195-.1758-.0261-.0651-.0521-.1302-.0781-.1953-.0391-.1433-.0586-.2214-.0586-.2344-.0912-.2214-.1563-.3971-.1954-.5274-.039-.052-.0585-.0976-.0585-.1367 0-.0521-.0066-.0911-.0196-.1172-.0911-.1822-.1497-.2994-.1758-.3515-.1041-.1302-.1627-.2018-.1757-.2149 0-.026-.0131-.052-.0391-.0781-.0781-.1302-.1302-.2083-.1563-.2344-.013-.026-.0325-.052-.0585-.0781-.0652-.1172-.0977-.1888-.0977-.2148l-.2344-.293c-.039-.1042-.0586-.1563-.0586-.1563 0-.013-.0065-.0325-.0195-.0585-.1042-.1303-.1758-.2084-.2148-.2344-.0261-.0261-.0456-.0521-.0586-.0781-.0782-.1303-.1433-.2084-.1954-.2344-.039-.0391-.0781-.0781-.1171-.1172-.0912-.1172-.1368-.1758-.1368-.1758 0-.013-.0065-.0195-.0195-.0195-.1042-.0912-.1758-.1367-.2148-.1367-.1172-.0912-.1758-.1498-.1758-.1758-.1302-.0912-.1953-.1367-.1953-.1367-.1563.0781-.2344.1757-.2344.2929-.013.1693-.0195.2865-.0195.3516v.1367c0 .0391-.0065.0846-.0196.1367-.026.1433-.0455.2344-.0586.2735v.0976.5078.3907.2148c.0131.0391.0131.0912 0 .1563v.2148c0 .0521-.0065.1107-.0195.1758v.1953c.0521.1172.0651.2083.0391.2734-.0261.0521-.0391.1107-.0391.1758-.013.0651-.0195.1237-.0195.1758.013.0521.0195.1107.0195.1758.013.1562.0195.2734.0195.3515-.039.1953-.0586.3321-.0586.4102.0131.0781.0261.1497.0391.2148v.2344c.013.0781.0195.1628.0195.2539 0 .0781.0065.1563.0196.2344.026.1693.0325.2734.0195.3125s-.0195.0781-.0195.1172c0 .1172-.0065.2018-.0196.2539v.1758c.0261.1432.0326.2213.0196.2343v.0391c.026.3906.0325.7162.0195.9766-.013.2474 0 .4882.0391.7226.039.1042.0586.1888.0586.2539.026.0912.0455.1823.0586.2735.013.0911.0325.1823.0585.2734zm17.9492-8.5937c.0521.013.1432.0455.2734.0976.1172.0391.2018.1042.2539.1953.0651.0261.1237.0586.1758.0977.0521.026.1042.0651.1563.1172.1302.0911.1888.1432.1757.1562v.0391c.1172.0911.1758.1432.1758.1562.0261.0261.0586.0586.0977.0977.039.0391.0716.0716.0976.0976.0651.0912.1042.1498.1172.1758.0261.0261.0521.0521.0781.0781.0651.1172.1042.1889.1172.2149.0261.013.0456.0325.0586.0586.1302.1562.2084.2734.2344.3515.0391.0652.0781.1368.1172.2149.0521.1172.0846.1823.0976.1953.0131 0 .0261.0065.0391.0195.0391.1172.0716.1953.0977.2344.039.0391.0716.0912.0976.1563.0651.1041.1237.2213.1758.3515.0651.1302.1237.2735.1758.4297.0911.2474.1627.4883.2148.7227 0 .0911.0065.1627.0196.2148.0651.1693.0976.2865.0976.3516s.0065.1367.0195.2148c.0261.0651.0391.1302.0391.1953s.0065.1302.0195.1953c.0261.0912.0521.2214.0782.3907 0 .1041-.0065.2083-.0196.3125v.2929c-.013.1042-.0195.1954-.0195.2735.013.0781.0065.1627-.0195.2539-.0261.1172-.0391.2018-.0391.2539s-.0065.1107-.0195.1758c-.0261.1041-.0391.1757-.0391.2148-.026.0651-.0521.1237-.0781.1758-.013.0391-.0326.0911-.0586.1562-.026.1042-.0456.1758-.0586.2149-.026.1042-.0651.1888-.1172.2539-.039.0651-.0911.1367-.1562.2148-.0391.0782-.0847.1433-.1368.1953-.039.0521-.0781.1042-.1171.1563-.0912.1432-.1628.2409-.2149.293-.039.0521-.0781.1106-.1172.1757-.1041.1303-.1627.2019-.1758.2149-.013 0-.026.013-.039.0391-.0521.0651-.1107.1367-.1758.2148-.0651.0651-.1367.1237-.2148.1758-.0651.1302-.1237.2083-.1758.2344-.0391.026-.0912.0586-.1563.0976-.0521.0391-.0976.0846-.1367.1367-.2083.0782-.332.1302-.3711.1563l-.1953.0976c-.1953.0782-.319.1368-.3711.1758-.0521.0261-.1107.0586-.1758.0977-.0521.026-.1432.0651-.2734.1172-.0781.039-.1367.0586-.1758.0586-.026 0-.0521.0065-.0781.0195-.1042.039-.1693.0586-.1953.0586-.0131 0-.0326.0065-.0586.0195-.1433.0391-.2409.0586-.293.0586s-.1042.0065-.1562.0195c-.1693.0521-.2995.0782-.3907.0782-.1562-.0131-.2604-.0131-.3125 0-.039.013-.0911.026-.1562.039-.1953.0391-.3906.0391-.586 0-.1432.0261-.2604.0391-.3515.0391-.0391 0-.0781 0-.1172 0-.0391.013-.0716.0195-.0977.0195-.052 0-.0976-.013-.1367-.039-.026-.0131-.0651-.0196-.1172-.0196-.0521-.013-.1497-.0195-.2929-.0195-.0782-.013-.1563-.026-.2344-.0391-.0781-.013-.1563-.026-.2344-.039-.039-.0131-.0846-.0196-.1367-.0196-.0391 0-.0781-.0065-.1172-.0195-.0911-.026-.1628-.0391-.2148-.0391-.1693-.0651-.2474-.0976-.2344-.0976-.1823-.0521-.28-.0846-.293-.0977-.1562-.013-.2604-.0325-.3125-.0586-.1432-.052-.2278-.0781-.2539-.0781l-.2148-.0976c-.1563-.0782-.2604-.1172-.3125-.1172-.1302-.0391-.2149-.0782-.2539-.1172-.1433-.0521-.2279-.0847-.2539-.0977-.0261-.013-.0521-.026-.0782-.039-.1302-.1302-.2213-.2019-.2734-.2149-.0521-.026-.0912-.0651-.1172-.1172-.1432-.0651-.2213-.1041-.2344-.1172 0-.013-.0065-.026-.0195-.039-.0781-.0521-.1432-.1237-.1953-.2149-.1042-.0781-.1823-.1627-.2344-.2539-.0781-.0651-.1302-.1237-.1562-.1758-.0912-.1302-.1368-.2018-.1368-.2148s-.0065-.026-.0195-.0391c-.0911-.1562-.1497-.2408-.1758-.2539-.013-.026-.026-.0586-.039-.0976-.0391-.0391-.0847-.0781-.1367-.1172-.0391-.0521-.0586-.1172-.0586-.1953-.1042-.0781-.1693-.1498-.1954-.2149-.039-.0911-.0585-.1497-.0585-.1757.013-.0261.0195-.0521.0195-.0782-.0912-.1562-.1563-.2734-.1953-.3515-.0521-.1693-.0847-.2735-.0977-.3125-.0781-.1563-.1302-.28-.1562-.3711-.0261-.0912-.0521-.1953-.0782-.3125-.013-.1042-.0195-.1628-.0195-.1758.013-.013.013-.0326 0-.0586 0-.0391-.0065-.0716-.0195-.0977 0-.039-.0065-.0781-.0196-.1171.0131-.1954.0066-.306-.0195-.3321-.013-.1302-.026-.1953-.039-.1953-.0131-.013-.0196-.0325-.0196-.0586 0-.1041.0065-.1823.0196-.2344.026-.052.039-.1041.039-.1562 0-.1042 0-.1823 0-.2344.0391-.1041.0586-.1693.0586-.1953.013-.0391.013-.0846 0-.1367.0521-.1172.0781-.2018.0781-.2539s.0065-.0977.0196-.1367c.026-.0782.0455-.1302.0586-.1563.013-.026.0195-.0521.0195-.0781.013-.0651.0195-.1107.0195-.1367 0-.0261.0065-.0651.0196-.1172.039-.0912.0781-.1693.1171-.2344.0391-.1042.0586-.1758.0586-.2148 0-.0391.0065-.0782.0196-.1172.026-.1172.052-.1888.0781-.2149.0521-.1432.0846-.2148.0976-.2148.0131 0 .0196-.0065.0196-.0195.0651-.1042.1107-.1758.1367-.2149.026-.0521.0521-.0976.0781-.1367.0261-.0651.0521-.1237.0781-.1758.0261-.0521.0521-.1107.0782-.1758.0651-.0781.0976-.1237.0976-.1367.013-.026.0261-.0521.0391-.0781.0651-.1042.1042-.1563.1172-.1563.013-.013.0325-.0325.0586-.0586.0521-.0781.0781-.1237.0781-.1367.013-.013.026-.0325.0391-.0586.1953-.2343.319-.4101.3711-.5273.1041-.0521.1692-.1042.1953-.1563.052-.013.0846-.039.0976-.0781.0261-.0521.0521-.0911.0781-.1172l.2344-.0781c.1302-.0911.2279-.1497.293-.1758.0911-.0521.1497-.0716.1758-.0586.039 0 .0716-.0065.0976-.0195.1042-.0912.1563-.1302.1563-.1172s.013.0065.039-.0195c.1302-.0521.2019-.0782.2149-.0782.026 0 .0521-.0065.0781-.0195.1042-.0651.1693-.0976.1953-.0976.0261-.0131.0586-.0261.0977-.0391.039-.013.0716-.0326.0976-.0586.1302-.0651.2149-.0976.2539-.0976.0391 0 .0782-.0066.1172-.0196.1302-.0521.2084-.0781.2344-.0781.0391-.013.0716-.0195.0977-.0195.2734-.0651.4622-.1172.5664-.1563.0781.013.1497.013.2148 0 .0781-.026.1497-.0456.2149-.0586.1562 0 .2539.0065.2929.0195.0391.0131.0781.0196.1172.0196s.0781-.0065.1172-.0196c.0521-.013.1042-.0195.1562-.0195h.3125c.0391-.013.0782-.0195.1172-.0195.0521-.013.0977-.013.1368 0 .039.013.0846.0195.1367.0195.039-.013.0781-.026.1172-.039.052-.0131.1106-.0131.1757 0 .0782.013.1498.026.2149.039s.1041.0195.1172.0195c.1562.0131.2474.0261.2734.0391.0651.013.1367.0261.2149.0391.0911.013.1888.026.2929.039.1432.0131.2149.0196.2149.0196.013-.0131.0325-.0131.0586 0 .1171.0521.1888.0846.2148.0976h.0977c.052.013.1041.0261.1562.0391.0651 0 .1172.0195.1563.0586.1822.0781.2864.1302.3125.1562zm-2.7735 2.9882c-.1302-.026-.1953-.0325-.1953-.0195s-.0065.0195-.0195.0195c-.1302.0131-.2018.0261-.2148.0391-.0131.013-.0326.0195-.0586.0195-.0521.0261-.1107.0456-.1758.0586-.0521 0-.0912.013-.1172.0391-.1302.0781-.2018.1172-.2148.1172-.0131 0-.0326.0065-.0586.0195-.1172.0391-.1758.0651-.1758.0781 0 0-.013.0065-.0391.0196-.0781.052-.1497.1106-.2148.1757-.0912.0651-.1628.1237-.2149.1758-.039.0391-.0716.0716-.0976.0977-.1042.1172-.1563.1823-.1563.1953-.0781.1042-.1432.1823-.1953.2344-.0911.1302-.1367.2148-.1367.2539 0 .039-.013.0781-.0391.1172-.1041.1172-.1627.2148-.1758.2929-.039.0651-.0781.1237-.1171.1758-.0261.0391-.0391.0846-.0391.1367.013.1693.013.2735 0 .3125v.0977c0 .1693.0195.2995.0586.3906.026.1042.0521.2083.0781.3125.0391.1042.0846.2083.1367.3125.0782.1432.1107.2214.0977.2344 0 .013.0065.026.0195.039.0651.1042.1042.1563.1172.1563s.026.0065.0391.0195c.1041.1042.1627.1563.1758.1563.013 0 .0325.0065.0585.0195.0651.0651.1303.1367.1954.2149.0781.0651.1692.1041.2734.1171l.2539.1368c.0391.026.0781.039.1172.039s.0781.0065.1172.0196c.0781.039.1302.0586.1562.0586.0261-.0131.0521-.0131.0782 0 .1171.039.1953.0585.2343.0585.0391-.013.0716-.0195.0977-.0195.1302.0391.2083.0586.2344.0586.039-.013.0781-.0195.1171-.0195h.1954c.0911-.013.1692-.0196.2343-.0196l.3516-.0585c.1172-.0391.1693-.0652.1562-.0782 0-.013.0131-.0195.0391-.0195.0912-.013.1628-.0456.2149-.0977.1171-.0911.2148-.1367.2929-.1367.0651-.1302.1302-.2148.1953-.2539.0782-.1172.1107-.1758.0977-.1758 0-.013.0065-.026.0195-.039.0391-.0912.0716-.1368.0977-.1368.026-.013.0455-.0325.0586-.0585.039-.0782.0586-.1303.0586-.1563.013-.026.026-.0456.039-.0586l.1367-.2734c.0782-.1172.1172-.2214.1172-.3125.0521-.1563.0716-.267.0586-.3321 0-.0651 0-.1302 0-.1953-.013-.0651-.026-.1237-.039-.1757-.0131-.0521-.0261-.1107-.0391-.1758-.013-.0521-.0195-.0912-.0195-.1172.013-.0391.013-.0716 0-.0977-.0261-.0521-.0521-.0911-.0782-.1172-.013-.039-.0195-.0781-.0195-.1171-.0781-.1042-.1172-.1628-.1172-.1758 0-.0131-.0065-.0261-.0195-.0391-.0651-.0911-.0977-.1367-.0977-.1367 0-.013-.0065-.0326-.0195-.0586-.0391-.0521-.0781-.0977-.1172-.1367-.026-.0521-.0586-.1042-.0976-.1563-.0912-.0911-.1433-.1432-.1563-.1562 0-.013-.013-.0261-.039-.0391-.1303-.1042-.2214-.1693-.2735-.1953-.039-.0391-.0716-.0846-.0976-.1367-.1433-.0651-.2605-.1172-.3516-.1563-.1302-.0651-.1953-.1041-.1953-.1172.013-.026.013-.039 0-.039l-.2539-.0781c-.1042-.0521-.1693-.0912-.1953-.1172zm11.367 8.3203c-.078-.013-.163-.026-.254-.039-.091 0-.169.0195-.234.0586-.078-.0261-.156-.0326-.234-.0196-.066.0261-.131.0456-.196.0586-.182.0131-.293.0131-.332 0-.039 0-.078 0-.117 0l-.312.0196c-.053.013-.098.0195-.137.0195-.026.013-.072.013-.137 0l-.215-.0195c-.104 0-.162-.0065-.176-.0196-.013 0-.032 0-.058 0-.091.0131-.176.0131-.254 0-.065 0-.13 0-.195 0h-.332c-.065-.013-.111-.0195-.137-.0195-.026.013-.059.013-.098 0-.0909-.026-.1625-.0586-.2146-.0976-.039-.0261-.0781-.0521-.1172-.0782-.0781-.039-.1172-.0716-.1172-.0976.0131-.0391-.0065-.0521-.0585-.0391.026-.0521.039-.1172.039-.1953s-.0065-.1563-.0195-.2344c.026-.2474.026-.4883 0-.7226v-.5469c.039-.2083.0586-.3385.0586-.3906.026-.1563.039-.2474.039-.2735 0-.1302 0-.2018 0-.2148.0131-.1563.0261-.2604.0391-.3125v-.586c.026-.1041.0391-.1953.0391-.2734-.0131-.0781-.0131-.1432 0-.1953.013-.0521.0195-.1107.0195-.1758-.026-.0911-.0391-.1758-.0391-.2539.0131-.0781.0196-.1627.0196-.2539v-.2344c0-.1172.0065-.2278.0195-.332s.013-.2279 0-.3711c-.026-.0781-.0326-.1497-.0195-.2148.013-.0782.0195-.1693.0195-.2735 0-.0651-.0065-.1302-.0195-.1953 0-.0781 0-.1562 0-.2344 0-.1432-.0065-.2474-.0196-.3125-.026-.2213-.039-.3906-.039-.5078.013-.1302.0195-.2539.0195-.3711l-.0195-.332c-.0131-.0521-.0261-.0911-.0391-.1172-.013-.039-.0195-.0846-.0195-.1367.0521-.1693.0716-.2865.0586-.3516 0-.0651 0-.1302 0-.1953v-.3906c0-.0781 0-.1563 0-.2344.013-.0911.0195-.1758.0195-.2539-.013-.1562-.026-.319-.0391-.4883 0-.1692.0065-.3255.0196-.4687-.0391-.0521-.0586-.1042-.0586-.1563.013-.0651.0195-.1302.0195-.1953 0-.1432-.0065-.2148-.0195-.2148 0-.013 0-.0261 0-.0391-.013-.0911-.0196-.1758-.0196-.2539-.013-.1432-.013-.2279 0-.2539.0131-.026.0196-.0521.0196-.0781 0-.0521-.0065-.1042-.0196-.1563-.013-.0521-.0195-.1107-.0195-.1758.013-.0911.0065-.2018-.0195-.332 0-.039 0-.0781 0-.1172.013-.039.013-.0846 0-.1367 0-.1302-.013-.2148-.0391-.2539-.013-.0391-.0195-.0716-.0195-.0977 0-.0911-.0065-.1757-.0195-.2539 0-.0781 0-.1497 0-.2148l-.0196-.2539c-.026-.1172-.039-.1823-.039-.1953.013-.013.0195-.0326.0195-.0586-.013-.0651-.026-.1172-.0391-.1563-.013-.0521-.0195-.0976-.0195-.1367.013-.1432.013-.2213 0-.2344 0-.013 0-.0325 0-.0586l.0391-.2539c.026-.026.052-.052.0781-.0781.026-.026.0521-.0521.0781-.0781.0651-.0261.1302-.0391.1953-.0391.0782-.013.1433-.0325.1953-.0586.1169-.013.2149-.0195.2929-.0195.091 0 .169.013.234.0391.131.026.209.039.235.039.026-.013.052-.0195.078-.0195.117.013.202.0195.254.0195s.111.0065.176.0196c.143.013.241.0195.293.0195.065 0 .13.0065.195.0195l.234.0391h.196c.052 0 .097-.0065.136-.0195l.313-.0391h.234c.039-.013.085-.013.137 0h.117c.039 0 .091-.013.156-.0391.118.0521.183.0782.196.0782s.019.013.019.039l.137.1953c0 .0521-.007.0977-.02.1367v.0782.2539c.013.0781.02.1497.02.2148l-.02.2344c-.013.0521-.019.1042-.019.1562 0 .0391-.007.0847-.02.1368-.026.2343-.052.3841-.078.4492.026.0651.033.1367.02.2148s-.02.1498-.02.2149c-.013.1432-.019.2213-.019.2343.013.0131.019.0326.019.0586l-.019.3125c-.013.1693 0 .306.039.4102-.013.1562-.013.2604 0 .3125.013.0391.006.0651-.02.0781v.293c0 .1823.007.293.02.332.013.0261.006.0586-.02.0977v.5859c.026.0781.039.1563.039.2344 0 .0521-.006.1042-.019.1562-.013.0521 0 .1107.039.1758-.026.2214-.046.4557-.059.7031 0 .2344.013.4558.039.6641 0 .0391.007.0781.02.1172s.019.0716.019.0976c-.013.0521-.026.0977-.039.1368 0 .026-.006.0586-.019.0976v.2735c.013.026.019.052.019.0781v.3711c.013.0911.013.1953 0 .3125v.332c0 .0521-.006.1042-.019.1563v.1171c-.013.0782-.02.1433-.02.1954.013.039.02.0716.02.0976.013.0912.013.1758 0 .2539s-.02.1433-.02.1953c-.013.0651-.019.1368-.019.2149.013.0781.013.1497 0 .2148 0 .0261-.007.0651-.02.1172v.1172.3516c.013.1171.013.2343 0 .3515.013.1693.02.28.02.3321-.026.1432-.033.2343-.02.2734s.02.0846.02.1367c-.013.1172-.02.1888-.02.2149.013.013.007.0325-.019.0585.026.1172.039.1823.039.1954.013 0 .019.0065.019.0195.013.1562.02.2669.02.332v.2149c.039.0911.052.1497.039.1758-.013.026-.007.0455.019.0585-.013.0651-.013.1303 0 .1954.026.0651.046.1302.059.1953 0 .1562.006.2604.019.3125.014.039.027.0911.04.1562.013.0391.019.0912.019.1563v.1758l-.019.2734c0 .0651.006.1107.019.1367s.013.0716 0 .1367c-.026.1172-.045.1823-.059.1953-.013.0131-.019.0261-.019.0391zm5.899 0c-.078-.013-.163-.026-.254-.039-.091 0-.17.0195-.235.0586-.078-.0261-.156-.0326-.234-.0196-.065.0261-.13.0456-.195.0586-.183.0131-.293.0131-.332 0-.039 0-.078 0-.118 0l-.312.0196c-.052.013-.098.0195-.137.0195-.026.013-.071.013-.136 0l-.215-.0195c-.104 0-.163-.0065-.176-.0196-.013 0-.033 0-.059 0-.091.0131-.175.0131-.254 0-.065 0-.13 0-.195 0h-.332c-.065-.013-.111-.0195-.137-.0195-.026.013-.058.013-.097 0-.091-.026-.163-.0586-.215-.0976-.039-.0261-.078-.0521-.117-.0782-.078-.039-.118-.0716-.118-.0976.014-.0391-.006-.0521-.058-.0391.026-.0521.039-.1172.039-.1953s-.007-.1563-.02-.2344c.026-.2474.026-.4883 0-.7226v-.5469c.039-.2083.059-.3385.059-.3906.026-.1563.039-.2474.039-.2735 0-.1302 0-.2018 0-.2148.013-.1563.026-.2604.039-.3125v-.586c.026-.1041.039-.1953.039-.2734-.013-.0781-.013-.1432 0-.1953s.02-.1107.02-.1758c-.026-.0911-.039-.1758-.039-.2539.013-.0781.019-.1627.019-.2539v-.2344c0-.1172.007-.2278.02-.332s.013-.2279 0-.3711c-.026-.0781-.033-.1497-.02-.2148.013-.0782.02-.1693.02-.2735 0-.0651-.007-.1302-.02-.1953 0-.0781 0-.1562 0-.2344 0-.1432-.006-.2474-.019-.3125-.026-.2213-.039-.3906-.039-.5078.013-.1302.019-.2539.019-.3711l-.019-.332c-.013-.0521-.026-.0911-.039-.1172-.013-.039-.02-.0846-.02-.1367.052-.1693.072-.2865.059-.3516 0-.0651 0-.1302 0-.1953v-.3906c0-.0781 0-.1563 0-.2344.013-.0911.019-.1758.019-.2539-.013-.1562-.026-.319-.039-.4883 0-.1692.007-.3255.02-.4687-.039-.0521-.059-.1042-.059-.1563.013-.0651.02-.1302.02-.1953 0-.1432-.007-.2148-.02-.2148 0-.013 0-.0261 0-.0391-.013-.0911-.02-.1758-.02-.2539-.013-.1432-.013-.2279 0-.2539.014-.026.02-.0521.02-.0781 0-.0521-.006-.1042-.02-.1563-.013-.0521-.019-.1107-.019-.1758.013-.0911.006-.2018-.02-.332 0-.039 0-.0781 0-.1172.013-.039.013-.0846 0-.1367 0-.1302-.013-.2148-.039-.2539-.013-.0391-.019-.0716-.019-.0977 0-.0911-.007-.1757-.02-.2539 0-.0781 0-.1497 0-.2148l-.019-.2539c-.026-.1172-.039-.1823-.039-.1953.013-.013.019-.0326.019-.0586-.013-.0651-.026-.1172-.039-.1563-.013-.0521-.019-.0976-.019-.1367.013-.1432.013-.2213 0-.2344 0-.013 0-.0325 0-.0586l.039-.2539c.026-.026.052-.052.078-.0781.026-.026.052-.0521.078-.0781.065-.0261.13-.0391.195-.0391.078-.013.143-.0325.196-.0586.117-.013.214-.0195.293-.0195.091 0 .169.013.234.0391.13.026.208.039.234.039.026-.013.052-.0195.078-.0195.118.013.202.0195.254.0195s.111.0065.176.0196c.143.013.241.0195.293.0195.065 0 .13.0065.195.0195l.235.0391h.195c.052 0 .098-.0065.137-.0195l.312-.0391h.235c.039-.013.084-.013.136 0h.118c.039 0 .091-.013.156-.0391.117.0521.182.0782.195.0782s.02.013.02.039l.136.1953c0 .0521-.006.0977-.019.1367v.0782.2539c.013.0781.019.1497.019.2148l-.019.2344c-.013.0521-.02.1042-.02.1562 0 .0391-.006.0847-.019.1368-.026.2343-.052.3841-.078.4492.026.0651.032.1367.019.2148s-.019.1498-.019.2149c-.013.1432-.02.2213-.02.2343.013.0131.02.0326.02.0586l-.02.3125c-.013.1693 0 .306.039.4102-.013.1562-.013.2604 0 .3125.013.0391.007.0651-.019.0781v.293c0 .1823.006.293.019.332.013.0261.007.0586-.019.0977v.5859c.026.0781.039.1563.039.2344 0 .0521-.007.1042-.02.1562-.013.0521 0 .1107.039.1758-.026.2214-.045.4557-.058.7031 0 .2344.013.4558.039.6641 0 .0391.006.0781.019.1172s.02.0716.02.0976c-.013.0521-.026.0977-.039.1368 0 .026-.007.0586-.02.0976v.2735c.013.026.02.052.02.0781v.3711c.013.0911.013.1953 0 .3125v.332c0 .0521-.007.1042-.02.1563v.1171c-.013.0782-.019.1433-.019.1954.013.039.019.0716.019.0976.013.0912.013.1758 0 .2539s-.019.1433-.019.1953c-.013.0651-.02.1368-.02.2149.013.0781.013.1497 0 .2148 0 .0261-.006.0651-.019.1172v.1172.3516c.013.1171.013.2343 0 .3515.013.1693.019.28.019.3321-.026.1432-.032.2343-.019.2734s.019.0846.019.1367c-.013.1172-.019.1888-.019.2149.013.013.006.0325-.02.0585.026.1172.039.1823.039.1954.013 0 .02.0065.02.0195.013.1562.019.2669.019.332v.2149c.039.0911.052.1497.039.1758-.013.026-.006.0455.02.0585-.013.0651-.013.1303 0 .1954.026.0651.045.1302.058.1953 0 .1562.007.2604.02.3125.013.039.026.0911.039.1562.013.0391.02.0912.02.1563v.1758l-.02.2734c0 .0651.006.1107.02.1367.013.026.013.0716 0 .1367-.027.1172-.046.1823-.059.1953-.013.0131-.02.0261-.02.0391zm8.066-.0976c-.065-.1563-.111-.2474-.137-.2734-.013-.0391-.026-.0912-.039-.1563l.02-.2539c0-.0521-.007-.0977-.02-.1367-.013-.0521-.019-.0977-.019-.1367-.026-.1433-.052-.2409-.078-.293.013-.0781.019-.1302.019-.1563 0-.039-.006-.0716-.019-.0976l-.118-.1953c-.104.1302-.149.1953-.136.1953-.104.0651-.163.1107-.176.1367-.078.0781-.124.1172-.137.1172s-.032.013-.058.0391c-.092.1302-.163.2213-.215.2734-.104.1172-.156.1758-.156.1758-.066.0781-.124.1302-.176.1562-.078.0781-.124.1302-.137.1563-.013.013-.039.0325-.078.0586-.091.1041-.163.1692-.215.1953-.117.1302-.189.1953-.215.1953-.026.026-.058.0456-.097.0586-.039.026-.072.0521-.098.0781-.039.013-.111.0195-.215.0195-.13 0-.221 0-.273 0-.157-.052-.248-.0911-.274-.1171-.117-.0261-.195-.0456-.234-.0586-.039-.0131-.078-.0196-.117-.0196-.118-.0911-.176-.1367-.176-.1367-.104-.026-.163-.039-.176-.039-.013-.0131-.026-.0196-.039-.0196-.13-.0521-.215-.0846-.254-.0976-.026-.0261-.072-.0391-.137-.0391-.078-.0521-.123-.0846-.136-.0977 0-.026-.007-.0455-.02-.0586-.078-.052-.143-.0846-.195-.0976-.026-.0651-.065-.1042-.117-.1172-.052-.026-.105-.0586-.157-.0976-.091-.0912-.143-.1368-.156-.1368 0-.013-.013-.0325-.039-.0586l-.176-.1757-.156-.1758c-.104-.1433-.182-.2539-.234-.3321-.131-.1562-.196-.2474-.196-.2734-.169-.1562-.26-.2409-.273-.2539-.065-.0651-.111-.1302-.137-.1953-.065-.0912-.11-.1628-.137-.2149-.052-.039-.084-.0976-.097-.1757 0-.0782 0-.1563 0-.2344-.026-.1042-.059-.2018-.098-.293-.039-.0911-.052-.1562-.039-.1953s.013-.0911 0-.1562c.039-.0651.065-.1237.078-.1758.026-.0521.072-.0912.137-.1172.052-.1302.085-.1953.098-.1953.065-.0912.11-.1563.136-.1953.052-.0912.085-.1433.098-.1563.026-.026.052-.0521.078-.0781.026-.0521.078-.1172.156-.1953.052-.0391.098-.0847.137-.1367.052-.0521.104-.1042.156-.1563.104-.1172.202-.2213.293-.3125.104-.1172.157-.1758.157-.1758.013 0 .026-.0065.039-.0195.13-.1042.201-.1693.214-.1953.026-.0261.053-.0521.079-.0781.117-.0782.182-.1172.195-.1172s.032-.0065.058-.0196c.131-.0781.202-.1237.215-.1367.104-.0651.163-.1107.176-.1367.026-.026.052-.0456.078-.0586.13-.0781.222-.1302.274-.1562.117-.0912.175-.1368.175-.1368.013 0 .026-.0065.04-.0195.143-.0521.227-.1042.253-.1562.131-.0521.235-.0977.313-.1368.078-.052.163-.0911.254-.1171.143-.0652.234-.1172.273-.1563.13-.1042.196-.1693.196-.1953-.053-.0391-.111-.0521-.176-.0391-.052 0-.117 0-.196 0-.117 0-.201 0-.253 0-.053 0-.105 0-.157 0-.039 0-.084.0065-.136.0196-.039 0-.085-.0066-.137-.0196-.169-.026-.28-.0325-.332-.0195-.039 0-.078 0-.117 0l-.332.0195c-.078-.026-.157-.039-.235-.039-.039.013-.084.0195-.136.0195-.053-.013-.098-.0195-.137-.0195-.078 0-.163.013-.254.039-.091.013-.189.0196-.293.0196-.039.013-.085.0195-.137.0195-.039-.013-.084-.0195-.136-.0195-.196 0-.352 0-.469 0-.104-.0131-.209-.0131-.313 0-.156-.0131-.241-.0261-.254-.0391-.013-.026-.032-.0521-.058-.0781-.065-.1433-.098-.2214-.098-.2344.013-.026.02-.0521.02-.0781.026-.1302.039-.2084.039-.2344.013-.026.019-.0521.019-.0781.026-.1302.046-.1953.059-.1953.013-.0131.026-.0326.039-.0586.026-.1563.052-.267.078-.3321.026-.0781.052-.1497.078-.2148.013-.0391.02-.0716.02-.0977 0-.039.013-.0781.039-.1172.052-.1302.078-.2799.078-.4492.026-.1692.058-.2995.098-.3906.039-.1042.065-.1953.078-.2734.039-.1302.058-.2214.058-.2735l.078-.2343c.118-.1303.189-.2279.215-.293.039-.0261.072-.0456.098-.0586.039-.0261.078-.0521.117-.0781.104-.0391.195-.0651.273-.0782.079 0 .124-.0065.137-.0195.026-.013.052-.026.078-.0391.144.0131.235.0131.274 0 .052-.013.11 0 .176.0391.091-.026.149-.0325.175-.0195h.118c.078.013.162.0195.253.0195h.293.215c.156-.026.241-.0325.254-.0195h.078c.026.013.078.0195.157.0195.078-.013.123-.0195.136-.0195h.254c.117 0 .228-.0065.332-.0196.091-.013.15-.013.176 0 .026.0131.052.0196.078.0196h.254c.143-.013.221-.013.234 0h.059l.215-.0196c.091 0 .15.0066.176.0196.039.013.071.0195.097.0195.091-.013.143-.013.156 0 .027.013.053.0195.079.0195.273 0 .462.0261.566.0782.208.0651.339.1041.391.1171.104.0782.156.1172.156.1172.013-.013.026-.013.039 0 .078.0782.137.1237.176.1368.039 0 .071.013.097.039.079.0781.137.1367.176.1758.117.0911.189.1432.215.1562.091.1042.163.1823.215.2344.065.0521.111.0912.137.1172.026.013.052.0326.078.0586.13.0781.202.1367.215.1758.013.039.045.0651.097.0781.039.1042.059.1758.059.2149.013.039.045.0651.097.0781.013.039.026.0781.04.1172.013.039.032.0846.058.1367.039.0651.052.1172.039.1562 0 .0261.007.0521.02.0782.013.0651.026.1172.039.1562.026.0261.045.0521.058.0781.052.1953.092.3321.118.4102.026.0651.052.1302.078.1953.026.0521.039.1042.039.1563.013.039.032.0911.058.1562.078.2083.131.3711.157.4883.039.1042.071.2213.097.3516.026.0781.046.1627.059.2539.026.0911.045.1692.058.2343.013.1433.033.2539.059.3321l.059.3515c.026.1042.045.2018.058.293.026.0911.039.1888.039.293.052.1823.098.306.137.3711.013.1171.026.1888.039.2148.026.0651.039.1172.039.1563 0 .026.007.052.02.0781.052.1692.071.2734.058.3125 0 .039.007.0781.02.1172.026.0911.032.1497.019.1757v.0391c.013.0521.026.0977.039.1367.026.0261.039.0651.039.1172-.013.0912-.013.1563 0 .1953.026.0391.046.0782.059.1172 0 .0781.007.1302.02.1563.013.013.026.039.039.0781l.019.332c.026.0651.039.1432.039.2344 0 .0781.007.1562.02.2344.026.1432.045.2604.058.3515.013.0912.033.1758.059.2539.013.0521.019.0977.019.1368 0 .026.013.052.04.0781.052.1172.078.1953.078.2344v.0976c0 .0781-.007.1563-.02.2344s-.032.1497-.058.2148c-.04.1433-.059.2344-.059.2735-.117.0911-.182.1432-.195.1562-.013 0-.046.0065-.098.0196-.052.013-.143.0325-.273.0585-.17.0261-.267.0456-.293.0586-.026 0-.053.0065-.079.0196-.13 0-.195 0-.195 0 0-.0131-.006-.0196-.019-.0196-.105.0131-.163.0196-.176.0196-.013-.0131-.033-.0196-.059-.0196-.182 0-.293.0065-.332.0196-.091 0-.169.0065-.234.0195-.065 0-.13 0-.196 0-.13.013-.221.0326-.273.0586-.13.026-.208.0391-.234.0391-.157.026-.274.0325-.352.0195-.078 0-.163.0065-.254.0195-.143.013-.221.0195-.234.0195-.065.0131-.143.0066-.235-.0195-.078-.026-.156-.0521-.234-.0781zm-.332-2.7734c-.013-.1823-.026-.3125-.039-.3907-.013-.0911-.026-.1562-.039-.1953-.026-.1172-.039-.1953-.039-.2344.013-.039.013-.0716 0-.0976-.039-.2214-.059-.3711-.059-.4492 0-.0782-.013-.1563-.039-.2344-.026-.1042-.045-.1693-.058-.1953-.013-.0391-.026-.0716-.039-.0977-.092-.0781-.15-.1107-.176-.0976-.026.013-.046.0325-.059.0586-.117.0781-.182.1237-.195.1367-.117.0651-.189.1107-.215.1367-.065.0521-.104.0846-.117.0977-.013.013-.033.0325-.059.0585-.13.1042-.195.1563-.195.1563 0-.013-.007-.013-.02 0-.13.0911-.208.1563-.234.1953-.026.0261-.059.0521-.098.0781-.026.0651-.058.1172-.097.1563-.026.039-.052.0781-.078.1172.026.0521.039.0976.039.1367 0 .026-.013.0716-.039.1367.091.1042.156.1563.195.1563.065.039.111.0586.137.0586s.052.0065.078.0195c.078.0521.123.0911.136.1172.013.013.026.0195.04.0195.117.0521.188.0781.214.0781.039 0 .085.0065.137.0196.091.026.156.0455.195.0586.052 0 .092.0065.118.0195.143.0781.26.1302.351.1562.104.0131.189.0065.254-.0195zm9.316-7.4414c.144 0 .241-.0261.293-.0782.105-.0781.17-.1237.196-.1367s.052-.0325.078-.0586c.13-.1172.221-.2148.273-.293.104-.1041.157-.1627.157-.1757.091-.0912.149-.1498.175-.1758.026-.0261.052-.0521.078-.0781.092-.0391.157-.0782.196-.1172.052-.0521.104-.0912.156-.1172.091-.0391.156-.0716.195-.0977.144-.0521.215-.0781.215-.0781.013-.013.026-.0195.039-.0195.026-.0261.052-.0456.078-.0586.026-.0261.059-.0521.098-.0782.078-.013.15-.039.215-.0781.143-.0521.254-.0781.332-.0781.156-.0651.241-.0977.254-.0977.052-.026.097-.0325.137-.0195.039 0 .071-.0065.097-.0195.13.013.209.0195.235.0195h.332c.065-.013.117-.013.156 0 .078.013.143.0456.195.0977s.117.0781.195.0781c.026.0391.053.0716.079.0976.026.0261.045.0652.058.1172.104.0912.15.1368.137.1368 0 0 .006.0065.019.0195.053.1432.079.2213.079.2344.026.1432.026.2799 0 .4101-.013.0781-.02.2084-.02.3906.013.1823-.013.306-.078.3711.026.1302.026.267 0 .4102 0 .0651-.007.1302-.02.1953-.013.0521-.019.1107-.019.1758v.2344c.013.0781.019.1562.019.2343 0 .0521-.006.1042-.019.1563s-.026.0976-.039.1367c-.026.1302-.046.2214-.059.2734 0 .0391-.006.0782-.019.1172-.065.1823-.111.293-.137.3321-.039.039-.078.0586-.117.0586-.026 0-.059.0065-.098.0195-.143.0521-.228.0716-.254.0586-.013-.013-.039-.0326-.078-.0586-.039.013-.078.013-.117 0-.039-.0261-.078-.0391-.117-.0391-.235.013-.378.0261-.43.0391h-.215c-.117.0391-.195.0716-.234.0976-.039.0131-.072.0326-.098.0586-.143.0261-.228.0521-.254.0782-.091.013-.156.026-.195.039-.026.013-.052.0261-.078.0391-.143.026-.235.039-.274.039-.091.0391-.162.0847-.215.1368-.143.0521-.227.0911-.253.1172-.026.026-.059.0455-.098.0586-.026.039-.059.0716-.098.0976-.026.013-.052.0326-.078.0586-.078.0521-.137.0977-.176.1367-.091.0651-.156.1237-.195.1758-.039.0391-.078.0716-.117.0977-.026.026-.059.052-.098.0781-.026.026-.052.0521-.078.0781-.013.0521-.032.0912-.059.1172-.026.026-.052.0521-.078.0781-.065.1563-.11.2604-.136.3125-.026.0391-.039.0912-.039.1563-.053.0521-.092.1172-.118.1953-.013.0651-.032.1432-.058.2344-.013.0651-.026.1367-.039.2148-.013.0651-.02.1302-.02.1953.026.1693.026.28 0 .332-.013.1303-.019.2084-.019.2344.013.0261.019.0521.019.0781-.013.1433-.019.2409-.019.293.013.0391.019.0846.019.1367-.026.1823-.045.2995-.058.3516 0 .0391-.007.0781-.02.1172v.0976c.013.1953.013.3321 0 .4102-.013.0651-.019.1367-.019.2148v.1758c.013.0521.019.1107.019.1758 0 .3125.026.5534.078.7227.013.1041.026.1757.039.2148s.02.0781.02.1172c.026.1042.039.1953.039.2734 0 .0782-.007.1302-.02.1563-.013.0911-.019.1627-.019.2148-.065.1172-.098.1888-.098.2149 0 .026-.006.052-.019.0781-.026.0391-.065.0781-.118.1172-.052.026-.091.0586-.117.0976-.091-.013-.195 0-.312.0391-.091.026-.157.0325-.196.0195-.039 0-.078.0065-.117.0196-.039 0-.078 0-.117 0-.039.013-.072.0195-.098.0195-.156.013-.24.013-.254 0 0 0-.006 0-.019 0-.143 0-.228-.0065-.254-.0195-.013 0-.026 0-.039 0l-.527.0781c-.196.013-.332.0195-.411.0195-.065.013-.13.0065-.195-.0195-.182-.0261-.312-.0521-.39-.0781-.066-.0261-.131-.0391-.196-.0391-.091-.0781-.163-.1367-.215-.1758-.052-.0521-.104-.0976-.156-.1367-.039-.1302-.065-.2083-.078-.2344 0-.026-.006-.0521-.02-.0781-.052-.1823-.078-.28-.078-.293 0-.1692 0-.306 0-.4101.013-.1172.026-.2149.039-.293.013-.0521.02-.1497.02-.293.026-.1432.039-.2213.039-.2343 0-.0651 0-.1237 0-.1758s.007-.0912.02-.1172c.026-.1823.039-.2865.039-.3125-.013-.1042-.02-.1628-.02-.1758.013-.026.02-.0521.02-.0781 0-.0651-.007-.1432-.02-.2344 0-.0911 0-.1823 0-.2734.026-.1563.033-.2409.02-.2539 0-.0131.006-.0326.019-.0586 0-.0651.007-.1237.02-.1758s.006-.1042-.02-.1563c0-.1432 0-.2213 0-.2343.013-.0261.02-.0521.02-.0782 0-.1041 0-.1953 0-.2734.013-.0911.013-.1888 0-.293 0-.039-.007-.0781-.02-.1172 0-.052 0-.1041 0-.1562 0-.1172.007-.2214.02-.3125.013-.1042.013-.2083 0-.3125-.013-.1693-.026-.306-.039-.4102 0-.1041.006-.2083.019-.3125-.013-.1302-.019-.2018-.019-.2148-.026-.0912-.039-.1563-.039-.1953.013-.0521.013-.1107 0-.1758 0-.1172-.013-.1823-.04-.1953-.013-.0261-.019-.0521-.019-.0781.013-.1172.013-.2019 0-.2539-.013-.0521-.02-.1042-.02-.1563.013-.0521.02-.0911.02-.1172.013-.039.019-.0781.019-.1172-.013-.1172-.019-.1823-.019-.1953.013-.013.019-.026.019-.039l-.019-.4883c0-.0912 0-.1628 0-.2149 0-.0651-.013-.1302-.039-.1953-.013-.0651-.013-.1432 0-.2344.013-.1041.013-.1692 0-.1953-.013-.039-.02-.0846-.02-.1367.013-.0651.013-.1302 0-.1953s-.019-.1237-.019-.1758c0-.039 0-.0781 0-.1172.013-.0521.019-.0976.019-.1367 0-.0651-.013-.1302-.039-.1953-.013-.0651-.019-.1302-.019-.1953.052-.1953.084-.3125.097-.3516.013-.0521.039-.1041.079-.1562.117-.1042.175-.1628.175-.1758s.007-.0195.02-.0195c.104-.0131.176-.0131.215 0 .039 0 .065-.0131.078-.0391.039.026.078.0326.117.0195.052-.013.098-.0195.137-.0195.208-.0391.442-.0391.703 0 .143.026.221.0391.234.0391.013-.0131.026-.0196.039-.0196h.235c.039-.013.078-.0195.117-.0195.091-.013.15-.013.176 0 .039 0 .084-.0065.136-.0195.157-.0261.248-.0326.274-.0196.026 0 .058-.0065.097-.0195.026 0 .066.0065.118.0195.052 0 .097-.013.136-.039.105.013.196.026.274.039.078 0 .176.0065.293.0196.091.0911.156.1367.195.1367.039.0391.065.1107.078.2148.039.1172.052.1888.039.2149 0 .026.007.0521.02.0781 0 .0651.013.1432.039.2344.026.0911.039.1823.039.2734v.2149z" fill="#693821"/></svg>