<svg fill="none" height="165" viewBox="0 0 192 165" width="192" xmlns="http://www.w3.org/2000/svg"><g fill="#6a290b"><path d="m80.564 7.68927c-34.5698 12.08983-61.4687 37.73053-74.01743 69.16043-11.98204 29.9873-10.07951 69.8363 27.58703 83.1673 38.8404 13.752 82.4984-2.903 112.0074-26.279 29.49-23.34 53.515-59.3903 39.994-95.6415-6.577-17.6234-21.555-31.02815-41.572-35.94079-23.398-5.75271-47.3415.63919-67.5005 11.70629-2.7526 1.5158-.2429 5.424 2.53 3.9082 18.1552-9.86178 39.1845-16.03453 60.4365-11.90718 19.147 3.7073 34.064 15.66928 40.723 32.21518 13.277 32.9457-7.226 66.1468-33.335 88.5738-25.928 22.244-63.1896 39.155-99.7631 32.617-20.1185-3.598-36.0878-14.391-41.5931-32.672-4.45279-14.775-2.36807-30.663 2.6312-45.1087 11.1927-32.343 38.4356-58.7689 72.2161-73.05026.4655-.20089.1417-.93139-.3441-.74877z"/><path d="m174.567 124.445c-4.642 1.9-11.307 6.995-11.56 12.028-.275 5.596 7.125 6.431 11.399 4.761 5.125-2.005 10.779-6.933 11.537-12.174.368-2.443-1.08-4.573-3.562-5.533-3.079-1.212-6.182-.105-9.078 1.023-2.757 1.086-.367 4.823 2.367 3.696 1.264-.627 2.597-.982 4.022-1.086 1.402 1.399 1.632 2.694.644 3.925-.414 1.024-1.448 2.109-2.206 2.903-1.885 1.921-4.528 4.03-7.401 4.427-3.562.501-5.01-1.9-3.424-4.782.506-.919 1.103-1.817 1.77-2.673 1.723-2.213 3.93-3.905 6.251-5.596.62-.438-.161-1.169-.759-.919z"/><path d="m183.709 149.194c-3.307 1.405-7.205 4.174-5.126 7.676 2.173 3.641 8.197 1.959 10.961-.198 2.882-2.235 3.519-6.41.33-8.685-2.74-1.959-7.63-.89-8.315 2.216-.378 1.721 2.575 2.473 3.189.732.567-1.583 2.93-1.148 3.496.178.662 1.563-.59 3.067-2.078 3.917-1.465.831-4.63 1.801-4.843-.494-.165-1.781 1.937-3.225 3.307-4.333.662-.534-.165-1.326-.921-1.009z"/></g><path d="m57.5117 90.3828c-.125.0469-.2109.1406-.2578.2813-.0781.0312-.1406.0859-.1875.164-.0312.0625-.0859.1094-.1641.1407-.1406.1562-.2343.2421-.2812.2578-.0313 0-.0469.0234-.0469.0703-.125.1093-.1953.164-.2109.164-.1094.0782-.1719.1329-.1875.1641-.0156.0156-.0391.0312-.0703.0469-.0625.0469-.125.0781-.1875.0937-.0469.0156-.1016.0391-.1641.0703-.1562.0782-.2344.1172-.2344.1172 0-.0156-.0078-.0234-.0234-.0234-.125.0781-.1953.1172-.2109.1172-.0157 0-.0235.0156-.0235.0469-.1719.0312-.2656.0546-.2812.0703 0 .0156-.0157.0312-.0469.0468-.1563.0313-.3047.0547-.4453.0703-.125.0157-.2578.0235-.3985.0235-.2187-.0469-.3671-.0703-.4453-.0703-.1562 0-.2343-.0078-.2343-.0235 0 0-.0079 0-.0235 0-.0781.0157-.1406.0157-.1875 0-.0469 0-.0937 0-.1406 0l-.2578-.0703c-.1719-.0312-.2891-.0468-.3516-.0468-.0469 0-.0937-.0079-.1406-.0235-.0313-.0156-.0703-.0312-.1172-.0469-.0469-.0156-.0937-.0312-.1406-.0468l-.3047-.0469c-.1563-.0781-.2422-.1172-.2578-.1172-.1719-.0781-.2735-.125-.3047-.1406-.0156-.0157-.0391-.0313-.0703-.0469-.125-.0938-.2031-.1484-.2344-.1641-.0312-.0312-.0625-.0625-.0937-.0937-.1407-.1094-.2188-.1641-.2344-.1641l-.211-.2109c-.1406-.125-.2109-.1875-.2109-.1875-.1094-.0781-.1797-.125-.2109-.1406-.0313-.0157-.0625-.0391-.0938-.0703-.1094-.1094-.1797-.1876-.2109-.2344-.0156-.0625-.0391-.1172-.0703-.1641-.0782-.0781-.1328-.1406-.1641-.1875-.0312-.0625-.0625-.1172-.0937-.164-.1094-.1719-.1954-.2813-.2579-.3282-.0625-.1406-.1328-.2734-.2109-.3984-.0625-.125-.1328-.2578-.2109-.3984-.0782-.1563-.1172-.25-.1172-.2813-.0313-.1719-.0547-.2734-.0703-.3047-.0157-.0312-.0313-.0703-.0469-.1172-.0469-.1718-.0703-.2656-.0703-.2812.0156-.0313.0078-.0469-.0235-.0469-.0156-.1719-.0312-.2656-.0468-.2813-.0157-.0312-.0235-.0624-.0235-.0937-.0156-.1719-.039-.2813-.0703-.3281-.0156-.0469-.0234-.0938-.0234-.1406 0-.125-.0078-.1954-.0235-.211 0-.0156 0-.039 0-.0703.0157-.1719.0157-.2578 0-.2578 0 0 0-.0078 0-.0235 0-.0624-.0078-.1406-.0234-.2343-.0156-.0938-.0234-.1797-.0234-.2578 0-.2188-.0078-.3516-.0235-.3985-.0156-.0468-.0234-.0937-.0234-.1406 0-.0781.0156-.1562.0469-.2344.0312-.0937.0312-.1797 0-.2578.0468-.2031.0703-.414.0703-.6328.0312-.1719.0625-.3047.0937-.3984 0-.1094.0078-.1954.0235-.2578.0312-.0626.0468-.125.0468-.1876.0157-.1406.0313-.2343.0469-.2812.0313-.0469.0625-.0938.0938-.1406.0312-.0782.0547-.1563.0703-.2344s.039-.1641.0703-.2578c.0781-.1563.125-.2344.1406-.2344.0625-.1875.0938-.289.0938-.3047.0156-.0156.0312-.039.0468-.0703.0782-.125.125-.2031.1407-.2344.0156-.0312.039-.0546.0703-.0703 0-.0937.0234-.1875.0703-.2812.0937-.1407.1484-.211.1641-.211.0781-.1718.1328-.2812.164-.3281.0313-.0312.0547-.0703.0703-.1172.0157-.0468.0391-.0859.0703-.1172.0469-.0781.0704-.125.0704-.1406.0156-.0312.0312-.0625.0468-.0937.1094-.1094.1875-.1875.2344-.2344.0938-.1875.1641-.2969.2109-.3281.0625-.0313.1094-.0782.1407-.1407.1093-.1718.1718-.2578.1875-.2578.0312 0 .0625-.0078.0937-.0234.0938-.1094.1406-.1563.1406-.1406.0157 0 .0391-.0157.0704-.0469.1406-.0938.2265-.1563.2578-.1875.0937-.0938.1562-.1563.1875-.1875.0468-.0313.0859-.0625.1172-.0938.1406-.0937.2187-.1484.2343-.164.0313-.0313.0625-.0547.0938-.0703.1719-.0782.2656-.1094.2812-.0938.0313 0 .0625-.0078.0938-.0234.1406-.0938.2344-.1407.2812-.1407.0625 0 .1094-.0078.1407-.0234.1562-.0625.2656-.0937.3281-.0937.0625-.0313.1172-.0547.164-.0703.0469-.0313.1016-.0313.1641 0 .1094-.0626.25-.0938.4219-.0938.1406-.0312.3047-.0391.4922-.0234.1875 0 .3672.0078.539.0234.125-.0156.1953-.0156.211 0h.1172c.125.0312.2343.0625.3281.0938.125.0468.2422.0703.3515.0703.1719 0 .2579.0078.2579.0234h.0703c.1093.0313.1797.0547.2109.0703.0313 0 .0625.0078.0938.0234.1718.0626.2734.1094.3046.1407.0938.0469.1563.0859.1875.1172.0469.0156.0938.039.1407.0703.1562.125.2734.1953.3515.2109.1563.1094.2422.1875.2578.2344.0313.0469.0782.0859.1407.1172.0312-.0625.039-.125.0234-.1875s-.0234-.1328-.0234-.211c0-.0625.0078-.125.0234-.1875s.0234-.125.0234-.1875c-.0156-.1875-.0234-.3046-.0234-.3515s.0156-.086.0469-.1172c-.0156-.0469-.0235-.1485-.0235-.3047-.0156-.1406-.0234-.25-.0234-.3281.0156-.0938 0-.1797-.0469-.2578.0157-.0469.0157-.0938 0-.1407-.0156-.0625-.0234-.125-.0234-.1875-.0156-.0625-.0313-.1171-.0469-.164-.0156-.0625-.0234-.125-.0234-.1875-.0156-.0625-.0235-.125-.0235-.1875s0-.1328 0-.211l-.0468-.4921c-.0313-.1719-.0469-.2579-.0469-.2579.0156-.0156.0234-.0312.0234-.0468-.0625-.1563-.1015-.2579-.1172-.3047 0-.0469-.0078-.1094-.0234-.1875 0-.1407 0-.2266 0-.2578.0156-.0313.0234-.0625.0234-.0938.0157-.1719.0313-.2812.0469-.3281s.0235-.1094.0235-.1875c.1406-.1406.2343-.2109.2812-.2109.0625-.0157.1094-.0313.1406-.0469h.2578c.0157-.0157.0391-.0157.0704 0l.5156.0937h.1406c.0469-.0156.1016-.0156.1641 0s.1172.0235.164.0235c.0469-.0157.086-.0235.1172-.0235.0469.0156.0938.0313.1406.0469.0625.0156.1172.0078.1641-.0234.0313-.0157.0703-.0235.1172-.0235h.1875c.1094.0469.1875.0703.2344.0703h.1172.1875c.0468-.0156.1015-.0234.164-.0234.1563 0 .2422.0078.2578.0234h.0703c.0782 0 .1485.0079.211.0235.0625 0 .125.0156.1875.0468.0469 0 .0937-.0078.1406-.0234.0469-.0312.0938-.039.1406-.0234.125.0312.1953.039.211.0234.0156-.0156.039-.0234.0703-.0234.0937 0 .1875.0078.2812.0234.0938.0156.1875.0078.2813-.0234.0625.0937.164.1406.3047.1406.0937.1406.1328.2266.1172.2578 0 .0313.0078.0625.0234.0938.0625.125.0859.2031.0703.2343-.0156.0157-.0234.0391-.0234.0703.0312.1407.0312.2344 0 .2813-.0313.0313-.0469.0625-.0469.0937v.1407c.0156.0312.0234.0703.0234.1172-.0156.1875-.0312.3047-.0468.3515-.0157.0469-.0235.0938-.0235.1406-.0156.1719-.0234.2657-.0234.2813 0 0-.0078.0156-.0235.0469-.0156.125-.0312.2109-.0468.2578-.0157.0312-.0235.0625-.0235.0937.0157.1563.0078.3125-.0234.4688-.0313.1562-.0078.2734.0703.3515-.0312.0938-.0469.1876-.0469.2813 0 .0781-.0156.1641-.0468.2578 0 .0625-.0079.125-.0235.1875-.0156.0469-.0312.0938-.0469.1406 0 .1407-.0078.2188-.0234.2344v.0703c-.0156.1094-.0234.2266-.0234.3516.0156.1094.0078.2187-.0235.3281-.0468.2031-.0703.3516-.0703.4453.0156.0938.0156.1797 0 .2578-.0312.1875-.0469.3047-.0469.3516.0157.0313.0235.0703.0235.1172-.0156.1562-.0235.2422-.0235.2578.0157.0156.0235.0313.0235.0469-.0156.1718-.0235.2656-.0235.2812-.0312.125-.0312.2656 0 .4219v.3281c.0157.0938.0079.1953-.0234.3047.0156.125.0391.2344.0703.3281.0313.1407.0391.2188.0235.2344v.0469c.0156.1094.0156.1875 0 .2344-.0157.0468-.0157.1015 0 .164.0312.25.0312.4297 0 .5391-.0157.0937-.0235.1953-.0235.3047 0 .0781.0078.1484.0235.2109.0156.0469.0234.1016.0234.1641.0156.0625.0234.125.0234.1875v.1406c.0313.1562.0391.2422.0235.2578v.0469.2812c.0156.0469.0312.1094.0468.1875v.4454c.0157.0781.0157.164 0 .2578v.2109c0 .2031-.0078.3359-.0234.3984 0 .0469.0078.1016.0234.1641.0157.0938.0235.1797.0235.2578s-.0078.1406-.0235.1875c-.0156.0313-.0234.0859-.0234.1641.0156.0625.0234.1328.0234.2109.0157.1563.0157.2422 0 .2578v.0235c.0157.125.0157.2343 0 .3281v.2812c.0157.2032.0235.336.0235.3985s-.0078.1172-.0235.164v.2813c0 .0625-.0078.1484-.0234.2578v.3281.3282c0 .0468.0078.1093.0234.1874.0157.0782.0235.1563.0235.2344.0156.0782.0312.1719.0469.2813.0156.0781.0234.1562.0234.2343.0156.0782.0312.1641.0469.2579.0312.2187.0468.3359.0468.3515.0157.1406.0313.2344.0469.2813.0156.0312.0156.0625 0 .0937-.0469.1875-.0781.2891-.0937.3047-.125.0781-.2188.1328-.2813.1641-.0781-.0313-.1562-.0469-.2344-.0469-.0781.0156-.1796.0234-.3046.0234-.1563.0157-.2813.0235-.375.0235-.0782.0156-.1719.0078-.2813-.0235-.1875.0625-.375.0703-.5625.0235-.1875-.0313-.3437-.0391-.4687-.0235-.0782-.0312-.1407-.0547-.1875-.0703-.0469 0-.125 0-.2344 0l-.2813.0235c-.0781 0-.1484 0-.2109 0-.0469.0156-.1016.0078-.1641-.0235-.1562.0156-.25.0313-.2812.0469-.0156.0156-.0391.0234-.0703.0234-.1094-.0156-.1797-.0234-.211-.0234-.0312.0156-.0781.0234-.1406.0234-.0937-.0312-.2109-.0468-.3516-.0468-.1406 0-.2421-.0079-.3046-.0235-.0782 0-.1563-.039-.2344-.1172-.125-.0625-.1953-.125-.211-.1875.0157-.125.0157-.2265 0-.3047 0-.0781.0157-.1562.0469-.2343.0313-.1094.0469-.1953.0469-.2578 0-.0782.0156-.1329.0469-.1641.0625-.1875.0859-.3047.0703-.3516 0-.0625.0078-.1093.0234-.1406zm.2344-6.0469c-.1406-.1718-.2344-.289-.2813-.3515-.0312-.0782-.0937-.1328-.1875-.1641-.1406-.1562-.2187-.2344-.2343-.2344-.0625-.125-.1094-.1875-.1407-.1875-.0312-.0156-.0312-.039 0-.0703-.1406-.0469-.2265-.1015-.2578-.164-.1093-.0938-.1797-.1563-.2109-.1875-.0313-.0469-.0625-.086-.0938-.1172-.1406-.0625-.2109-.0938-.2109-.0938 0-.0156-.0078-.0234-.0234-.0234-.0782-.0469-.1485-.0781-.211-.0938-.0468-.0156-.0859-.039-.1172-.0703-.1718-.1093-.2578-.164-.2578-.164-.1875-.0469-.2968-.0782-.3281-.0938-.0312-.0312-.0625-.0469-.0937-.0469-.1875-.0156-.3047-.0156-.3516 0-.0469-.0156-.0938-.0078-.1406.0235-.0313.0312-.0782.039-.1407.0234-.1562.1094-.2421.1719-.2578.1875 0 .0156-.0156.0391-.0468.0703-.1094.0625-.1954.1094-.2579.1407-.0312.0468-.0625.0859-.0937.1171-.0313.0157-.0547.0469-.0703.0938-.1094.125-.1797.1953-.211.2109-.0156 0-.0312.0156-.0468.0469-.0938.1563-.1563.2656-.1875.3281 0 .0782-.0235.1485-.0703.211-.0313.0625-.0547.1328-.0704.2109.0157.0937.0157.1641 0 .2109v.1407.1171c.0157.0469.0157.1016 0 .1641-.0312.1406-.039.2422-.0234.3047s.0234.125.0234.1875c-.0156.1094-.0156.1875 0 .2344.0157.0312.0235.0703.0235.1172.0156.0781.0234.1953.0234.3515 0 .0625-.0078.125-.0234.1875-.0156.0469-.0156.0938 0 .1407.0625.1874.0937.289.0937.3046.0157.0157.0313.0391.0469.0704.0313.0624.0547.1171.0703.164s.0391.0938.0703.1406c.0782.0313.1407.086.1875.1641.0625.0625.1485.1172.2578.1641.0157.0625.1016.1093.2579.1406.2031.0469.3671.0547.4921.0234.125-.0468.2422-.0703.3516-.0703.1563-.0625.2422-.0937.2578-.0937.1875-.1094.2969-.1719.3281-.1875.0469-.0157.086-.0313.1172-.0469.1094-.0313.1875-.0703.2344-.1172.1406-.0938.2266-.1562.2578-.1875l.2578-.2344c.1094-.1093.1719-.164.1875-.164.0313-.0157.0625-.0391.0938-.0703.0312-.0313.0547-.0626.0703-.0938.0156-.0469.0469-.0859.0937-.1172.0782-.0781.1329-.125.1641-.1406.0313-.0156.0469-.0391.0469-.0703.1094-.125.1875-.2031.2344-.2344.0468-.0469.0937-.0859.1406-.1172.0312-.0312.0469-.0625.0469-.0937.0156-.0313.039-.0782.0703-.1407.125-.2343.1718-.3828.1406-.4453-.0156-.0625-.0156-.164 0-.3047zm11.8359-4.5234c.1719 0 .2891-.0313.3516-.0937.125-.0938.2031-.1485.2344-.1641.0312-.0156.0625-.0391.0937-.0703.1563-.1406.2656-.2578.3281-.3516.125-.125.1875-.1953.1875-.2109.1094-.1094.1797-.1797.211-.211l.0937-.0937c.1094-.0469.1875-.0938.2344-.1406.0625-.0625.125-.1094.1875-.1407.1094-.0468.1875-.0859.2344-.1171.1719-.0626.2578-.0938.2578-.0938.0156-.0156.0312-.0234.0469-.0234.0312-.0313.0625-.0547.0937-.0704.0313-.0312.0703-.0624.1172-.0937.0938-.0156.1797-.0469.2578-.0937.1719-.0626.3047-.0938.3985-.0938.1875-.0781.289-.1172.3046-.1172.0625-.0312.1172-.039.1641-.0234.0469 0 .0859-.0078.1172-.0235.1562.0157.25.0235.2812.0235h.3985c.0781-.0156.1406-.0156.1875 0 .0937.0156.1719.0547.2344.1172s.1406.0937.2343.0937c.0313.0469.0625.0859.0938.1172.0312.0313.0547.0781.0703.1406.125.1094.1797.1641.1641.1641 0 0 .0078.0078.0234.0234.0625.1719.0937.2656.0937.2813.0313.1719.0313.3359 0 .4922-.0156.0937-.0234.25-.0234.4687.0156.2188-.0156.3672-.0937.4453.0312.1563.0312.3203 0 .4922 0 .0781-.0079.1563-.0235.2344-.0156.0625-.0234.1328-.0234.2109v.2813c.0156.0937.0234.1875.0234.2812 0 .0625-.0078.125-.0234.1875s-.0313.1172-.0469.1641c-.0312.1562-.0547.2656-.0703.3281 0 .0469-.0078.0938-.0234.1406-.0782.2188-.1329.3516-.1641.3985-.0469.0469-.0938.0703-.1406.0703-.0313 0-.0703.0078-.1172.0234-.1719.0625-.2735.086-.3047.0703-.0156-.0156-.0469-.039-.0938-.0703-.0468.0156-.0937.0156-.1406 0-.0469-.0312-.0937-.0468-.1406-.0468-.2813.0156-.4531.0312-.5156.0468h-.2578c-.1407.0469-.2344.086-.2813.1172-.0469.0156-.0859.0391-.1172.0703-.1719.0313-.2734.0625-.3047.0938-.1093.0156-.1875.0312-.2343.0469-.0313.0156-.0625.0312-.0938.0468-.1719.0313-.2812.0469-.3281.0469-.1094.0469-.1953.1016-.2578.1641-.1719.0625-.2735.1093-.3047.1406-.0313.0312-.0703.0547-.1172.0703-.0313.0469-.0703.0859-.1172.1172-.0312.0156-.0625.0391-.0937.0703-.0938.0625-.1641.1172-.211.1641-.1094.0781-.1875.1484-.2344.2109-.0468.0469-.0937.0859-.1406.1172-.0312.0312-.0703.0625-.1172.0937-.0312.0313-.0625.0625-.0937.0938-.0156.0625-.0391.1094-.0703.1406-.0313.0313-.0625.0625-.0938.0938-.0781.1875-.1328.3125-.164.375-.0313.0468-.0469.1093-.0469.1875-.0625.0625-.1094.1406-.1406.2343-.0157.0782-.0391.1719-.0704.2813-.0156.0781-.0312.164-.0468.2578-.0157.0781-.0235.1562-.0235.2344.0313.2031.0313.3359 0 .3984-.0156.1563-.0234.25-.0234.2813.0156.0312.0234.0625.0234.0937-.0156.1719-.0234.2891-.0234.3516.0156.0468.0234.1015.0234.164-.0312.2188-.0547.3594-.0703.4219 0 .0469-.0078.0938-.0234.1406v.1172c.0156.2344.0156.3985 0 .4922-.0156.0781-.0235.1641-.0235.2578v.211c.0157.0625.0235.1328.0235.2109 0 .375.0312.6641.0937.8672.0157.125.0313.2109.0469.2578s.0234.0938.0234.1406c.0313.125.0469.2344.0469.3282 0 .0937-.0078.1562-.0234.1874-.0156.1094-.0235.1954-.0235.2579-.0781.1406-.1171.2265-.1171.2578 0 .0312-.0079.0625-.0235.0937-.0312.0469-.0781.0938-.1406.1406-.0625.0313-.1094.0704-.1406.1172-.1094-.0156-.2344 0-.375.0469-.1094.0313-.1875.0391-.2344.0235-.0469 0-.0938.0078-.1406.0234-.0469 0-.0938 0-.1407 0-.0468.0156-.0859.0234-.1171.0234-.1875.0156-.2891.0156-.3047 0 0 0-.0078 0-.0235 0-.1718 0-.2734-.0078-.3047-.0234-.0156 0-.0312 0-.0468 0l-.6328.0937c-.2344.0157-.3985.0235-.4922.0235-.0782.0156-.1563.0078-.2344-.0235-.2188-.0312-.375-.0625-.4688-.0937-.0781-.0313-.1562-.0469-.2343-.0469-.1094-.0937-.1953-.1641-.2578-.2109-.0625-.0625-.125-.1172-.1875-.1641-.0469-.1562-.0782-.25-.0938-.2812 0-.0313-.0078-.0625-.0234-.0938-.0625-.2187-.0938-.3359-.0938-.3515 0-.2032 0-.3672 0-.4922.0156-.1407.0313-.2578.0469-.3516.0156-.0625.0234-.1797.0234-.3516.0313-.1718.0469-.2656.0469-.2812 0-.0781 0-.1484 0-.211 0-.0624.0078-.1093.0234-.1406.0313-.2187.0469-.3437.0469-.375-.0156-.125-.0234-.1953-.0234-.2109.0156-.0313.0234-.0625.0234-.0938 0-.0781-.0078-.1718-.0234-.2812 0-.1094 0-.2188 0-.3281.0312-.1875.039-.2891.0234-.3047 0-.0157.0078-.0391.0235-.0703 0-.0782.0078-.1485.0234-.211s.0078-.125-.0234-.1875c0-.1719 0-.2656 0-.2812.0156-.0313.0234-.0625.0234-.0938 0-.125 0-.2343 0-.3281.0156-.1094.0156-.2266 0-.3516 0-.0468-.0078-.0937-.0234-.1406 0-.0625 0-.125 0-.1875 0-.1406.0078-.2656.0234-.375.0156-.125.0156-.25 0-.375-.0156-.2031-.0313-.3672-.0469-.4922 0-.125.0078-.25.0235-.375-.0157-.1562-.0235-.2422-.0235-.2578-.0312-.1094-.0469-.1875-.0469-.2344.0157-.0625.0157-.1328 0-.2109 0-.1406-.0156-.2188-.0468-.2344-.0157-.0312-.0235-.0625-.0235-.0937.0157-.1407.0157-.2422 0-.3047-.0156-.0625-.0234-.125-.0234-.1875.0156-.0625.0234-.1094.0234-.1406.0157-.0469.0235-.0938.0235-.1407-.0157-.1406-.0235-.2187-.0235-.2343.0157-.0157.0235-.0313.0235-.0469l-.0235-.586c0-.1093 0-.1953 0-.2578 0-.0781-.0156-.1562-.0468-.2343-.0157-.0782-.0157-.1719 0-.2813.0156-.125.0156-.2031 0-.2344-.0157-.0468-.0235-.1015-.0235-.164.0156-.0782.0156-.1563 0-.2344s-.0234-.1484-.0234-.2109c0-.0469 0-.0938 0-.1407.0156-.0625.0234-.1172.0234-.164 0-.0782-.0156-.1563-.0469-.2344-.0156-.0781-.0234-.1562-.0234-.2344.0625-.2344.1016-.375.1172-.4218.0156-.0626.0469-.125.0937-.1876.1407-.125.211-.1953.211-.2109s.0078-.0234.0234-.0234c.125-.0157.211-.0157.2578 0 .0469 0 .0782-.0157.0938-.0469.0469.0312.0937.0391.1406.0234.0625-.0156.1172-.0234.1641-.0234.25-.0469.5312-.0469.8437 0 .1719.0312.2656.0469.2813.0469.0156-.0157.0312-.0235.0468-.0235h.2813c.0469-.0156.0937-.0234.1406-.0234.1094-.0156.1797-.0156.211 0 .0468 0 .1015-.0078.164-.0234.1875-.0313.2969-.0391.3281-.0235.0313 0 .0704-.0078.1172-.0234.0313 0 .0782.0078.1407.0234.0625 0 .1171-.0156.164-.0469.125.0157.2344.0313.3281.0469.0938 0 .211.0078.3516.0235.1094.1093.1875.164.2344.164.0469.0469.0781.1328.0937.2578.0469.1407.0625.2266.0469.2578 0 .0313.0078.0626.0234.0938 0 .0781.0157.1719.0469.2812.0313.1094.0469.2188.0469.3282v.2578zm14.0391 12.2578c-.0781-.1875-.1328-.2969-.1641-.3281-.0156-.0469-.0312-.1094-.0468-.1875l.0234-.3047c0-.0625-.0078-.1172-.0234-.1641-.0157-.0625-.0235-.1171-.0235-.164-.0312-.1719-.0625-.2891-.0937-.3516.0156-.0937.0234-.1562.0234-.1875 0-.0469-.0078-.0859-.0234-.1172l-.1407-.2344c-.125.1563-.1796.2344-.164.2344-.125.0782-.1953.1328-.211.1641-.0937.0937-.1484.1406-.164.1406s-.0391.0156-.0703.0469c-.1094.1562-.1953.2656-.2578.3281-.125.1406-.1875.2109-.1875.2109-.0782.0938-.1485.1563-.211.1876-.0937.0937-.1484.1562-.164.1874-.0157.0157-.0469.0391-.0938.0704-.1094.125-.1953.2031-.2578.2343-.1406.1563-.2266.2344-.2578.2344-.0313.0313-.0703.0547-.1172.0703-.0469.0313-.0859.0625-.1172.0938-.0469.0156-.1328.0234-.2578.0234-.1563 0-.2656 0-.3281 0-.1875-.0625-.2969-.1094-.3282-.1406-.1406-.0313-.2343-.0547-.2812-.0703-.0469-.0157-.0938-.0235-.1406-.0235-.1407-.1093-.211-.164-.211-.164-.125-.0313-.1953-.0469-.2109-.0469-.0156-.0156-.0313-.0234-.0469-.0234-.1562-.0625-.2578-.1016-.3047-.1172-.0312-.0313-.0859-.0469-.164-.0469-.0938-.0625-.1485-.1016-.1641-.1172 0-.0312-.0078-.0547-.0234-.0703-.0938-.0625-.1719-.1016-.2344-.1172-.0313-.0781-.0781-.125-.1406-.1406-.0625-.0313-.125-.0703-.1875-.1172-.1094-.1094-.1719-.1641-.1875-.1641 0-.0156-.0157-.039-.0469-.0703l-.2109-.2109-.1875-.211c-.125-.1718-.2188-.3046-.2813-.3984-.1562-.1875-.2344-.2969-.2344-.3281-.2031-.1875-.3125-.2891-.3281-.3047-.0781-.0781-.1328-.1562-.1641-.2344-.0781-.1094-.1328-.1953-.164-.2578-.0625-.0469-.1016-.1172-.1172-.2109 0-.0938 0-.1875 0-.2813-.0313-.125-.0703-.2422-.1172-.3515-.0469-.1094-.0625-.1875-.0469-.2344.0157-.0469.0157-.1094 0-.1875.0469-.0781.0782-.1484.0938-.211.0312-.0624.0859-.1093.164-.1406.0625-.1562.1016-.2344.1172-.2344.0782-.1093.1328-.1874.1641-.2343.0625-.1094.1016-.1719.1172-.1875.0312-.0313.0625-.0625.0937-.0938.0313-.0625.0938-.1406.1875-.2344.0625-.0468.1172-.1015.1641-.164.0625-.0625.125-.125.1875-.1875.125-.1406.2422-.2656.3516-.375.125-.1406.1875-.2109.1875-.2109.0156 0 .0312-.0079.0468-.0235.1563-.125.2422-.2031.2578-.2344.0313-.0312.0625-.0625.0938-.0937.1406-.0938.2187-.1406.2344-.1406.0156 0 .039-.0078.0703-.0235.1562-.0937.2422-.1484.2578-.164.125-.0782.1953-.1329.2109-.1641.0313-.0312.0625-.0547.0938-.0703.1562-.0938.2656-.1563.3281-.1875.1406-.1094.2109-.1641.2109-.1641.0157 0 .0313-.0078.0469-.0234.1719-.0625.2735-.125.3047-.1875.1563-.0625.2813-.1172.375-.1641.0938-.0625.1953-.1093.3047-.1406.1719-.0781.2812-.1406.3281-.1875.1563-.125.2344-.2031.2344-.2344-.0625-.0468-.1328-.0625-.2109-.0468-.0625 0-.1407 0-.2344 0-.1406 0-.2422 0-.3047 0s-.125 0-.1875 0c-.0469 0-.1016.0078-.1641.0234-.0468 0-.1015-.0078-.164-.0234-.2032-.0313-.336-.0391-.3985-.0235-.0468 0-.0937 0-.1406 0l-.3984.0235c-.0938-.0313-.1875-.0469-.2813-.0469-.0469.0156-.1015.0234-.164.0234-.0625-.0156-.1172-.0234-.1641-.0234-.0938 0-.1953.0156-.3047.0469-.1094.0156-.2266.0234-.3516.0234-.0468.0156-.1015.0234-.164.0234-.0469-.0156-.1016-.0234-.1641-.0234-.2344 0-.4219 0-.5625 0-.125-.0156-.25-.0156-.375 0-.1875-.0156-.289-.0313-.3047-.0469-.0156-.0312-.039-.0625-.0703-.0937-.0781-.1719-.1172-.2657-.1172-.2813.0157-.0312.0235-.0625.0235-.0937.0312-.1563.0468-.25.0468-.2813.0157-.0312.0235-.0625.0235-.0937.0312-.1563.0547-.2344.0703-.2344.0156-.0156.0312-.0391.0469-.0703.0312-.1875.0625-.3203.0937-.3985.0313-.0937.0625-.1796.0938-.2578.0156-.0468.0234-.0859.0234-.1172 0-.0468.0156-.0937.0469-.1406.0625-.1562.0937-.3359.0937-.539.0313-.2032.0703-.3594.1172-.4688.0469-.125.0781-.2344.0938-.3281.0468-.1563.0703-.2657.0703-.3281l.0937-.2813c.1407-.1563.2266-.2734.2578-.3516.0469-.0312.086-.0547.1172-.0703.0469-.0312.0938-.0625.1407-.0937.125-.0469.2343-.0781.3281-.0938.0937 0 .1484-.0078.164-.0234.0313-.0156.0625-.0313.0938-.0469.1719.0156.2812.0156.3281 0 .0625-.0156.1328 0 .211.0469.1093-.0313.1796-.0391.2109-.0235h.1406c.0938.0157.1953.0235.3047.0235h.3516.2578c.1875-.0313.289-.0391.3047-.0235h.0937c.0313.0157.0938.0235.1875.0235.0938-.0156.1485-.0235.1641-.0235h.3047c.1406 0 .2734-.0078.3984-.0234.1094-.0156.1797-.0156.2109 0 .0313.0156.0625.0234.0938.0234h.3047c.1719-.0156.2656-.0156.2812 0h.0703l.2579-.0234c.1093 0 .1796.0078.2109.0234.0469.0157.0859.0235.1172.0235.1094-.0156.1719-.0156.1875 0 .0312.0156.0625.0234.0937.0234.3282 0 .5547.0313.6797.0938.25.0781.4063.125.4688.1406.125.0937.1875.1406.1875.1406.0156-.0156.0312-.0156.0468 0 .0938.0938.1641.1485.211.1641.0469 0 .0859.0156.1172.0469l.2109.2109c.1406.1094.2266.1719.2578.1875.1094.125.1953.2187.2578.2813.0782.0624.1328.1093.1641.1406.0312.0156.0625.039.0937.0703.1563.0937.2422.1641.2579.2109.0156.0469.0546.0782.1171.0938.0469.125.0704.2109.0704.2578.0156.0469.0546.0781.1171.0937.0157.0469.0313.0938.0469.1407.0156.0468.0391.1015.0703.164.0469.0782.0625.1406.0469.1875 0 .0313.0078.0625.0234.0938.0157.0781.0313.1406.0469.1875.0313.0312.0547.0625.0703.0937.0625.2344.1094.3985.1407.4922.0312.0781.0625.1563.0937.2344.0313.0625.0469.125.0469.1875.0156.0469.039.1094.0703.1875.0937.25.1562.4453.1875.5859.0469.125.0859.2656.1172.4219.0312.0937.0547.1953.0703.3047.0312.1094.0547.2031.0703.2812.0156.1719.0391.3047.0703.3985l.0703.4219c.0313.125.0547.2421.0703.3515.0313.1094.0469.2266.0469.3516.0625.2187.1172.3672.1641.4453.0156.1406.0312.2266.0469.2578.0312.0781.0468.1406.0468.1875 0 .0313.0078.0625.0235.0937.0625.2032.0859.3282.0703.375 0 .0469.0078.0938.0234.1407.0313.1093.0391.1797.0235.2109v.0469c.0156.0625.0312.1172.0468.1641.0313.0312.0469.0781.0469.1406-.0156.1094-.0156.1875 0 .2344.0313.0468.0547.0937.0703.1406 0 .0937.0078.1562.0235.1875.0156.0156.0312.0469.0468.0937l.0235.3985c.0312.0781.0468.1718.0468.2812 0 .0938.0079.1875.0235.2813.0312.1718.0547.3125.0703.4218.0156.1094.0391.211.0703.3047.0156.0625.0234.1172.0234.1641 0 .0312.0157.0625.0469.0937.0625.1407.0938.2344.0938.2813v.1172c0 .0937-.0078.1875-.0235.2812-.0156.0938-.039.1797-.0703.2578-.0469.1719-.0703.2813-.0703.3282-.1406.1093-.2187.1718-.2344.1875-.0156 0-.0547.0078-.1172.0234s-.1718.0391-.3281.0703c-.2031.0313-.3203.0547-.3515.0703-.0313 0-.0625.0078-.0938.0235-.1562 0-.2344 0-.2344 0 0-.0157-.0078-.0235-.0234-.0235-.125.0157-.1953.0235-.2109.0235-.0157-.0157-.0391-.0235-.0704-.0235-.2187 0-.3515.0078-.3984.0235-.1094 0-.2031.0078-.2812.0234-.0782 0-.1563 0-.2344 0-.1563.0156-.2656.0391-.3281.0703-.1563.0313-.25.0469-.2813.0469-.1875.0312-.3281.039-.4219.0234-.0937 0-.1953.0078-.3047.0235-.1718.0156-.2656.0234-.2812.0234-.0781.0156-.1719.0078-.2813-.0234-.0937-.0313-.1875-.0625-.2812-.0938zm-.3984-3.3281c-.0157-.2188-.0313-.375-.0469-.4688-.0156-.1093-.0313-.1875-.0469-.2343-.0312-.1407-.0469-.2344-.0469-.2813.0157-.0469.0157-.0859 0-.1172-.0468-.2656-.0703-.4453-.0703-.539 0-.0938-.0156-.1875-.0469-.2813-.0312-.125-.0546-.2031-.0703-.2344-.0156-.0468-.0312-.0859-.0468-.1171-.1094-.0938-.1797-.1329-.211-.1172-.0312.0156-.0547.039-.0703.0703-.1406.0937-.2187.1484-.2344.164-.1406.0782-.2265.1329-.2578.1641-.0781.0625-.125.1016-.1406.1172s-.0391.039-.0703.0703c-.1563.125-.2344.1875-.2344.1875 0-.0156-.0078-.0156-.0234 0-.1563.1094-.25.1875-.2813.2344-.0312.0312-.0703.0625-.1172.0937-.0312.0781-.0703.1407-.1172.1875-.0312.0469-.0625.0938-.0937.1406.0312.0626.0469.1172.0469.1641 0 .0313-.0157.0859-.0469.1641.1094.125.1875.1875.2344.1875.0781.0469.1328.0703.164.0703.0313 0 .0625.0078.0938.0234.0937.0625.1484.1094.164.1406.0157.0157.0313.0235.0469.0235.1406.0625.2266.0937.2578.0937.0469 0 .1016.0078.1641.0235.1094.0312.1875.0547.2344.0703.0625 0 .1093.0078.1406.0234.1719.0938.3125.1563.4219.1875.125.0157.2265.0078.3047-.0234zm11.2031-10.6875c.0156.1562.0312.25.0469.2812.0312.0313.0468.0782.0468.1407.0313.1406.0313.2734 0 .3984-.0312.1719-.0468.2891-.0468.3516 0 .0468-.0079.1015-.0235.164-.0312.1094-.0469.211-.0469.3047.0157.0781.0235.1563.0235.2344-.0156.0781-.0313.1484-.0469.2109s-.0078.125.0234.1875l.1875-.1875c.1563-.1718.2579-.25.3047-.2344.0313-.0781.0782-.1406.1407-.1874.0625-.0626.1328-.1172.2109-.1641.0937-.1406.1719-.2188.2344-.2344.1093-.1094.1875-.1797.2343-.2109.1563-.0782.2422-.1328.2579-.1641.0312-.0312.0625-.0703.0937-.1172.2344-.1562.3828-.25.4453-.2812.1406-.0938.2344-.1485.2813-.1641.0468-.0312.0937-.0625.1406-.0937.1562-.0625.2578-.1016.3047-.1172.2656-.0469.4375-.1016.5156-.1641l.3047.0469c.1094-.0156.1719-.0156.1875 0s.0391.0234.0703.0234c.1719-.0312.2734-.039.3047-.0234h.0937c.1563 0 .2422.0078.2579.0234.0781.0157.1406.0313.1875.0469.0625 0 .1328.0156.2109.0469.2187.0781.3516.1172.3984.1172.125.0156.2032.0312.2345.0468.031.0157.07.0313.117.0469.063.0313.133.0625.211.0938.094.0312.18.0859.258.164.156.125.281.2344.375.3282.094.1093.164.1874.211.2343.047.0313.094.0781.14.1407.11.125.172.2031.188.2343.016.0313.031.0625.047.0938.125.1406.187.2187.187.2343.078.0938.133.1641.164.211.032.0469.071.1094.118.1875.093.125.148.2109.164.2578.031.0313.07.0625.117.0937l.211.3516c.093.1719.148.2734.164.3047.031.0156.054.0391.07.0703.078.1719.117.2656.117.2813.125.1875.196.3125.211.375.016.0468.039.1093.071.1875.078.2031.125.3359.14.3984.031.0625.063.1172.094.1641.062.1875.094.2968.094.3281.015.0156.039.039.07.0703.016.0313.023.0703.023.1172s.008.0937.024.1406l.094.3516c.062.1562.093.25.093.2812.016.1875.032.3047.047.3516.016.0469.031.1094.047.1875 0 .1094.024.2109.07.3047-.078.2656-.109.4531-.093.5625.015.1094.023.2187.023.3281-.016.0781-.031.1641-.047.2578-.015.0938-.031.1797-.047.2578l-.07.4219c-.031.0625-.055.1484-.07.2578 0 .0938-.008.1797-.024.2578-.031.0782-.054.1641-.07.2578 0 .0782-.008.1563-.023.2344-.063.1875-.094.2891-.094.3047s-.008.0391-.024.0703c-.109.2656-.187.461-.234.586-.031.1093-.086.2187-.164.3281-.078.1562-.125.2343-.141.2343v.0235c-.078.1719-.125.2656-.14.2812-.11.1563-.172.25-.188.2813-.015.0312-.039.0625-.07.0937l-.188.2813c-.125.1719-.203.2734-.234.3047-.016.0312-.039.0625-.07.0937l-.399.5391c-.078.0312-.14.0781-.187.1406s-.11.1094-.188.1406c-.187.1407-.32.2344-.398.2813-.078.0312-.156.0625-.235.0937-.109.0782-.187.1329-.234.1641-.047.0469-.102.0859-.164.1172-.063.0469-.125.0781-.1875.0937-.0625.0157-.125.0391-.1875.0703-.1094.0469-.1719.0782-.1875.0938-.0157.0156-.0313.0234-.0469.0234-.0313.0157-.0781.0235-.1406.0235-.0469 0-.0938.0078-.1407.0234-.0781.0156-.1484.0313-.2109.0469s-.1094.0234-.1406.0234c-.0625 0-.1172-.0078-.1641-.0234s-.0937 0-.1406.0469c-.0469-.0469-.1094-.0625-.1875-.0469s-.1328.0078-.1641-.0234c-.0781-.0157-.1328-.0235-.164-.0235-.0157.0156-.0469.0235-.0938.0235-.2187-.0313-.375-.0469-.4687-.0469-.0782.0156-.1719.0156-.2813 0-.0781-.0157-.1562-.0235-.2344-.0235-.0781 0-.1562-.0156-.2343-.0468-.1407-.0313-.2188-.0547-.2344-.0704-.0156 0-.0313 0-.0469 0-.1875-.0937-.3047-.1406-.3515-.1406-.0469 0-.0938-.0156-.1407-.0468-.1093-.0313-.1797-.0547-.2109-.0704-.0156-.0156-.0391-.0234-.0703-.0234-.1094-.0469-.1797-.0703-.211-.0703-.0312-.0156-.0625-.0547-.0937-.1172-.1563-.0469-.2578-.0859-.3047-.1172-.0469-.0469-.0937-.0625-.1406-.0469-.125-.1093-.2031-.1796-.2344-.2109-.0312-.0469-.0625-.0859-.0937-.1172-.1407-.0781-.2188-.1172-.2344-.1172-.0313.2188-.0391.4375-.0235.6563.0157.2187.0235.4453.0235.6797 0 .0625-.0078.1171-.0235.164 0 .0469.0079.1016.0235.1641v.4219c.0156.1718.0156.2812 0 .3281v.2109c-.0156.0938-.0235.1875-.0235.2813.0157.1094.0235.2187.0235.3281-.0156.1406-.0235.2109-.0235.2109.0157.0157.0235.0313.0235.0469v.1875c.0156.0313.0156.086 0 .1641.0156.1719.0156.2812 0 .3281v.2109c-.0156.0782-.0156.1485 0 .211s.0234.1328.0234.2109c.0156.1719.0156.336 0 .4922 0 .1719.0078.3438.0235.5156 0 .0625.0078.1172.0234.1641s.0234.0937.0234.1406c-.0156.1406-.0156.2188 0 .2344.0157.0312.0235.0625.0235.0937l.0703.2813c.0312.2031.0547.3594.0703.4687.0156.1094.0312.211.0469.3047.0156.1094.0234.211.0234.3047.0156.0938.0234.1953.0234.3047 0 .0781-.0078.1641-.0234.2578 0 .1094.0078.2109.0234.3047-.0312.0312-.0703.0703-.1171.1172-.0313.0468-.0782.0858-.1407.1168-.0625.047-.1484.071-.2578.071s-.2265 0-.3515 0c-.0782 0-.1641.008-.2579.023-.0781.016-.1562.024-.2343.024-.1875-.016-.3203-.024-.3985-.024-.0781.016-.1562.016-.2343 0-.1563 0-.2422-.008-.2579-.023-.0156 0-.039 0-.0703 0-.0312-.016-.0703-.024-.1172-.024-.0468 0-.1015-.008-.164-.023-.0938-.016-.1563-.024-.1875-.024-.0313.016-.0625.024-.0938.024-.0468 0-.1015 0-.164 0-.0469 0-.1094-.008-.1875-.024-.0313 0-.0782 0-.1407 0-.0468 0-.0937.016-.1406.047-.125-.031-.2578-.047-.3984-.047-.2031.032-.3828.032-.5391 0-.0625-.015-.125-.031-.1875-.047-.0625-.015-.1172-.039-.164-.0698-.1094-.1563-.1641-.25-.1641-.2813 0-.0156-.0156-.0312-.0469-.0468-.0156-.125-.0312-.2344-.0469-.3282-.0156-.0937-.0234-.2031-.0234-.3281.0156-.0625.0156-.125 0-.1875 0-.0625.0078-.1172.0234-.1641 0-.1562.0079-.2812.0235-.375.0156-.0937.0312-.1953.0469-.3046 0-.0782 0-.2422 0-.4922 0-.0938 0-.1563 0-.1875.0156-.0157.0234-.0391.0234-.0703 0-.1094-.0156-.2422-.0469-.3985.0625-.2343.1016-.4219.1172-.5625.0313-.1406.0313-.2968 0-.4687-.0625-.1719-.0937-.2735-.0937-.3047.0156-.0313.0234-.0625.0234-.0938 0-.125-.0078-.2343-.0234-.3281-.0157-.0781-.0235-.1562-.0235-.2344.0156-.125.0156-.1953 0-.2109 0-.0156 0-.0391 0-.0703 0-.0781 0-.1563 0-.2344.0156-.0781.0313-.1562.0469-.2344-.0156-.1406-.0156-.2265 0-.2578v-.3047c0-.1406.0078-.2812.0234-.4218.0157-.125.0078-.25-.0234-.375.0312-.0313.0391-.0704.0234-.1172-.0156-.0469-.0234-.0938-.0234-.1406v-.3047c-.0156-.0469-.0234-.125-.0234-.2344s.0078-.2109.0234-.3047.0156-.1484 0-.1641c0-.0312 0-.0703 0-.1171l.0469-.3516c0-.0625 0-.1172 0-.1641.0156-.0469.0234-.1093.0234-.1875.0313-.1562.0391-.2812.0234-.375 0-.1094-.0078-.1797-.0234-.2109-.0312-.1563-.0391-.3594-.0234-.6094.0156-.25.0234-.4531.0234-.6094 0-.0468-.0078-.0937-.0234-.1406 0-.0469.0078-.0937.0234-.1406 0-.1094-.0078-.2109-.0234-.3047 0-.0938 0-.1953 0-.3047-.0157-.1719-.0235-.2812-.0235-.3281.0157-.0469.0235-.0938.0235-.1406l-.0235-.3047c-.0156-.0625-.0234-.1094-.0234-.1407.0156-.0468.0156-.0859 0-.1171-.0156-.0313-.0234-.086-.0234-.1641.0156-.0938.0234-.1641.0234-.2109v-.375c0-.0625 0-.125 0-.1875.0156-.0625.0078-.1094-.0234-.1407-.0157-.1406-.0235-.2343-.0235-.2812-.0156-.2188-.0312-.3516-.0469-.3985v-.3515c-.0156-.2031-.0234-.3281-.0234-.375s-.0078-.1094-.0234-.1875c-.0313-.0938-.0469-.1484-.0469-.1641.0156-.0312.0234-.0625.0234-.0937-.0156-.125-.0234-.2032-.0234-.2344.0156-.0312.0234-.0781.0234-.1406-.0156-.0938-.0312-.1953-.0468-.3047-.0157-.125-.0313-.25-.0469-.375.0156-.125.0156-.1953 0-.2109 0-.0313 0-.0626 0-.0938-.0313-.1875-.0391-.2812-.0235-.2812.0157 0 .0235-.0157.0235-.0469.0156-.1407.0156-.2188 0-.2344 0-.0313 0-.0625 0-.0937v-.4454c-.0156-.0781-.0313-.1328-.0469-.164 0-.0469 0-.1094 0-.1875v-.2813c.0156-.0937.0156-.1562 0-.1875 0-.0312 0-.0625 0-.0937-.0156-.1719-.0312-.2656-.0469-.2813 0-.0156 0-.039 0-.0703-.0312-.1562-.0468-.2422-.0468-.2578.0156-.0312.0078-.0703-.0235-.1172-.0156-.0625-.0234-.1094-.0234-.1406 0-.1719-.0078-.2656-.0235-.2813-.0156-.0312-.0234-.0625-.0234-.0937-.0312-.1094-.0469-.1719-.0469-.1875.0157-.0156.0235-.0391.0235-.0703.0156-.2344.0156-.375 0-.4219 0-.0469.0078-.1016.0234-.1641.0313-.1093.0703-.1875.1172-.2343.1094-.1094.2344-.1641.375-.1641.1719-.0469.2812-.0703.3281-.0703s.086.0156.1172.0469c.1406-.0313.2422-.0469.3047-.0469.0469 0 .0937.0078.1406.0234h.1875c.1406-.0469.211-.0625.211-.0469 0 .0157.0156.0235.0468.0235.1875-.0156.3282-.0078.4219.0234.2188-.0156.3672-.0156.4453 0 .0781.0157.1563.0235.2344.0235.0469-.0157.0937-.0313.1406-.0469.0625-.0156.125-.0235.1875-.0235.2031.0157.336.0391.3985.0704l.3046-.0469c.0625-.0156.1329-.0156.211 0 .0937 0 .1797-.0078.2578-.0235.0625.0157.1328.0157.2109 0 .0782-.0156.1563-.0234.2344-.0234zm.2344 9.3047c.0468.0781.0937.1406.1406.1875.0625.0312.1328.0625.2109.0937.125.0938.2188.1406.2813.1406.1562.0626.2422.1016.2578.1172.0312 0 .0625.0157.0937.0469.0782.0313.1563.0625.2344.0938.0781.0312.1563.0468.2344.0468.2031-.0156.3281-.0156.375 0 .0469.0157.0859.0313.1172.0469.0625 0 .1172-.0078.164-.0234.0469-.0156.086-.0156.1172 0 .2344.0468.3828.0625.4453.0468.0782-.0312.1485-.0624.211-.0937.1718-.0469.2578-.0859.2578-.1172.1875-.0781.3047-.125.3515-.1406.0469-.0313.1094-.0469.1875-.0469.0313-.0469.0625-.0859.0938-.1172.0312-.0468.0625-.0859.0937-.1172.0938-.1093.1485-.1718.1641-.1875.0313-.0156.0547-.039.0703-.0703.0938-.1718.1406-.2656.1406-.2812.0157-.0156.0313-.0391.0469-.0703 0-.0313.0078-.0703.0235-.1172.0312-.0625.0625-.1094.0937-.1407.0313-.1718.0469-.3124.0469-.4218s.0078-.2188.0234-.3282c.0469-.2187.0625-.3828.0469-.4921 0-.1094.0156-.2032.0469-.2813-.0313-.0469-.0391-.0937-.0235-.1406.0157-.0469.0157-.0938 0-.1406 0-.0469-.0078-.0938-.0234-.1407-.0156-.0468-.0234-.0937-.0234-.1406.0156-.125.0156-.2109 0-.2578-.0157-.0469-.0313-.0937-.0469-.1406-.0156-.1563-.0469-.2578-.0938-.3047-.0156-.0469-.0312-.1016-.0468-.1641 0-.0625-.0157-.1093-.0469-.1406-.0781-.1563-.125-.25-.1406-.2813-.0157-.0468-.0391-.0859-.0704-.1171-.125-.1407-.2031-.2422-.2343-.3047-.1719-.125-.2735-.1953-.3047-.211-.0313-.0312-.0625-.0625-.0938-.0937-.1875-.0781-.2968-.1172-.3281-.1172l-.2812.0234c-.2032.0625-.3516.1172-.4454.1641-.0781.0469-.1562.0859-.2343.1172-.125.0469-.2266.1094-.3047.1875-.1406.0625-.2188.1015-.2344.1172l-.2109.164-.2344.1641c-.125.0938-.2109.1719-.2578.2344-.0469.0468-.0938.0859-.1406.1172-.1407.1093-.2188.1718-.2344.1875-.0156.0156-.0391.039-.0703.0703-.0938.0468-.1563.0937-.1875.1406-.0157.0312-.0391.0625-.0703.0938-.0625.0781-.125.1484-.1875.2109-.0625.0469-.1172.1172-.1641.2109-.0781.1563-.1172.2344-.1172.2344-.0625.1094-.0937.1875-.0937.2344.0156.0468.0078.0859-.0235.1172.0156.2031.0391.3359.0703.3984v.2578c.0157.0313.0235.0703.0235.1172.0156.0781.0156.1484 0 .2109v.1641c0 .0781-.0078.1484-.0235.2109v.1641c.0313.1875.0391.2969.0235.3281 0 .0313.0078.0625.0234.0938.0469.0469.0859.0937.1172.1406.0312.0313.0859.0469.1641.0469zm19.3128.7265c.031.0469.07.0625.117.0469s.094-.0312.14-.0469c.219-.0468.36-.0703.422-.0703.063-.0156.133-.0312.211-.0468.125-.0313.25-.0704.375-.1172.141-.0625.282-.1094.422-.1407.031-.0156.07-.0234.117-.0234.063-.0156.11-.0313.141-.0469.094-.0625.164-.1015.211-.1172.062-.0312.109-.0625.141-.0937.156-.125.257-.1953.304-.2109.047-.0157.086-.0391.117-.0704.219-.0625.344-.0859.375-.0703.125.0313.188.1328.188.3047-.016.2188-.024.3594-.024.4219.016.0469.024.1094.024.1875.016.125.023.2422.023.3516v.3281.1406c.016.0469.024.0859.024.1172 0 .0781-.016.1641-.047.2578-.016.0937-.024.1797-.024.2578.016.25.016.4844 0 .7031-.046.2032-.062.336-.046.3985.015.0625.023.1172.023.164-.016.1094-.031.2032-.047.2813-.156.1562-.273.2422-.351.2578-.079 0-.133.0391-.164.1172-.094.0156-.157.0312-.188.0469-.016.0156-.039.0312-.07.0468-.11.0938-.196.1407-.258.1407-.047 0-.094.0078-.141.0234l-.281.1172c-.172.0625-.289.0937-.352.0937-.062 0-.125.0313-.187.0938-.063 0-.125.0156-.188.0469-.046.0156-.109.0312-.187.0468-.156.0313-.266.0547-.328.0704-.11.0468-.188.0703-.235.0703-.046 0-.101.0078-.164.0234-.078.0156-.164.0234-.257.0234-.079.0157-.164.0313-.258.0469-.235.0469-.399.0625-.492.0469-.094 0-.188.0156-.282.0469-.125 0-.226.0078-.304.0234s-.157.0234-.235.0234c-.093 0-.187-.0078-.281-.0234-.078-.0156-.164-.0312-.258-.0469-.062.0313-.14.0391-.234.0235-.078-.0157-.18-.0391-.305-.0704-.125-.0156-.211-.0312-.258-.0468-.187 0-.312-.0078-.375-.0235-.047-.0156-.101-.0312-.164-.0468-.062-.0157-.117-.0235-.164-.0235s-.101-.0078-.164-.0234c-.109-.0156-.187-.0313-.234-.0469s-.094-.0312-.141-.0469c-.187-.0468-.297-.0781-.328-.0937l-.211-.1641c-.125-.0312-.25-.0781-.375-.1406-.047-.0312-.094-.0547-.141-.0703-.031-.0156-.07-.0469-.117-.0938-.031-.0468-.078-.0781-.14-.0937-.047-.0156-.094-.0391-.141-.0703-.172-.1094-.266-.1719-.281-.1875 0-.0156-.008-.0313-.024-.0469-.109-.0469-.172-.0781-.187-.0937 0-.0157-.016-.0313-.047-.0469l-.234-.1407c-.094-.0937-.18-.1562-.258-.1874-.031-.0782-.078-.1329-.141-.1641-.047-.0469-.086-.1094-.117-.1875-.109-.0938-.188-.1563-.234-.1875-.047-.0313-.086-.0781-.118-.1406-.046-.0313-.086-.0625-.117-.0938-.015-.0469-.039-.0859-.07-.1172-.063-.0469-.102-.1328-.117-.2578-.094-.0937-.141-.1562-.141-.1875 0-.0312-.008-.0625-.023-.0937-.094-.125-.157-.2032-.188-.2344-.094-.1094-.14-.1719-.14-.1875s-.008-.0391-.024-.0703c-.109-.2188-.187-.3516-.234-.3985 0-.0781-.008-.1328-.024-.164-.015-.0313-.023-.0703-.023-.1172-.078-.1563-.117-.25-.117-.2813 0-.0468 0-.0859 0-.1171-.047-.1563-.078-.2344-.094-.2344 0 0 0-.0078 0-.0235-.078-.2343-.125-.3828-.141-.4453-.015-.0781-.039-.1484-.07-.2109-.031-.1563-.055-.2578-.07-.3047 0-.0469-.008-.1094-.024-.1875 0-.0937-.008-.1875-.023-.2813-.016-.1093-.024-.1718-.024-.1874 0-.0313 0-.0782 0-.1407.016-.0781.016-.1406 0-.1875-.015-.0468-.039-.0859-.07-.1172-.031-.0468-.047-.0937-.047-.1406.078-.2344.117-.3828.117-.4453 0-.0781 0-.1719 0-.2813.032-.1406.039-.25.024-.3281-.016-.0781-.016-.1562 0-.2343 0-.0469 0-.0938 0-.1407 0-.0625.015-.1093.047-.1406-.032-.0625-.039-.1094-.024-.1406.031-.0469.055-.0938.071-.1407 0-.1718 0-.2578 0-.2578.015-.0156.023-.039.023-.0703.031-.1406.055-.2578.07-.3515.032-.1094.063-.2032.094-.2813.047-.125.07-.1953.07-.2109 0-.0313.008-.0625.024-.0938.062-.0937.101-.1562.117-.1875.016-.0312.031-.0625.047-.0937.062-.2344.133-.4141.211-.5391s.133-.2187.164-.2812.062-.1094.094-.1407c0-.0625.015-.1093.046-.1406.047-.0312.086-.0625.118-.0937.078-.1407.132-.2188.164-.2344.078-.1406.117-.2188.117-.2344.141-.1562.226-.2422.258-.2578.031-.0156.062-.0391.093-.0703.11-.125.157-.1953.141-.211 0-.0312.008-.0468.024-.0468.046-.0156.078-.0391.093-.0703.032-.0469.063-.086.094-.1172.141-.125.219-.1953.234-.211.016-.0156.039-.0312.071-.0468.062-.1094.101-.1641.117-.1641.031 0 .047-.0156.047-.0469.156-.1093.242-.1719.258-.1875.031-.0156.062-.039.093-.0703.125-.0937.196-.1406.211-.1406.032-.0156.055-.0313.071-.0469.156-.0937.242-.1562.257-.1875.141-.1094.219-.1641.235-.1641.031-.0156.047-.039.047-.0703.187-.0937.297-.1406.328-.1406s.062-.0078.094-.0234c.234-.0938.382-.1563.445-.1875.031-.0156.062-.0235.094-.0235.046-.0156.109-.0312.187-.0468.031-.0157.063-.0313.094-.0469.047-.0156.101-.0313.164-.0469.156-.0469.234-.0703.234-.0703 0-.0156.016-.0234.047-.0234.11-.0313.18-.0547.211-.0704.031-.0156.086-.0234.164-.0234.203-.0156.391-.0156.563 0 .156.0156.265.0156.328 0 .062-.0156.133-.0234.211-.0234.062 0 .156.0156.281.0468h.258c.156.0469.234.0704.234.0704 0-.0157.016-.0235.047-.0235.125.0313.195.0469.211.0469.031-.0156.062-.0156.094 0 .062 0 .117.0156.164.0469.062.0312.133.0312.211 0 .172.0781.281.125.328.1406.062.0156.133.0313.211.0469.156.0625.265.1094.328.1406.078.0156.148.0469.211.0938.094-.0313.18.0078.258.1171.156.0938.242.1407.257.1407.016 0 .032.0078.047.0234.078.0781.141.1328.188.1641.047.0312.086.0703.117.1171.078.1094.125.1719.141.1876.015 0 .031.0078.047.0234.046.0469.093.0937.14.1406.063.0469.11.1016.141.1641.125.125.187.1875.187.1875.063.0625.11.1172.141.164.047.0313.086.0704.117.1172.125.125.188.2032.188.2344 0 .0156.007.0391.023.0703.125.2031.195.3125.211.3281.062.1094.117.1875.164.2344.031.0469.055.0938.07.1406.016.0469.039.0938.071.1407-.016.0468-.016.0937 0 .1406.031.0469.062.0859.093.1172.032.0625.055.1484.071.2578.015.0937.039.1797.07.2578.031.0469.055.0937.07.1406.016.0313.039.0781.071.1407.031.1874.047.2812.047.2812 0 .0469.007.0938.023.1406.016.0313.031.0703.047.1172.015.1406.015.211 0 .211 0 0 .008.0156.023.0468l.071.2578c.031.125.046.2344.046.3282 0 .0468.008.0937.024.1406.016.0312.023.0703.023.1172-.031.1875-.047.3125-.047.375.016.0468.016.0859 0 .1172-.14.1406-.226.2265-.257.2578-.016.0312-.039.0547-.071.0703-.125.0625-.195.1015-.211.1172 0 .0156-.007.0312-.023.0469-.172.0781-.281.1171-.328.1171-.031 0-.063.0157-.094.0469-.125.0469-.211.086-.258.1172-.031.0312-.062.0625-.093.0938-.157.0468-.235.0859-.235.1171-.094.0469-.172.086-.234.1172-.063.0157-.117.0391-.164.0703-.172.0938-.321.1719-.446.2344-.156.0938-.265.1484-.328.1641-.062.0156-.109.039-.14.0703-.125.0625-.203.1016-.235.1172-.031.0156-.062.039-.093.0703-.157.1094-.258.1719-.305.1875-.031.0156-.063.0469-.094.0937-.031-.0156-.078-.0078-.141.0235-.062.0312-.117.0625-.164.0937-.187.0781-.312.125-.375.1407-.046 0-.086.0234-.117.0703-.047 0-.094.0156-.14.0468-.032.0157-.071.0313-.118.0469-.046.0156-.101.0234-.164.0234-.047-.0156-.093-.0078-.14.0235-.141.0937-.227.1406-.258.1406-.031.0313-.078.0547-.141.0703-.047.0156-.093.0313-.14.0469-.141.0781-.243.1172-.305.1172-.047 0-.086.0156-.117.0469-.141.0625-.219.1015-.235.1172-.125.0781-.211.1171-.257.1171-.047 0-.094.0157-.141.0469-.25.0938-.383.1641-.398.211 0 .2031.015.3124.046.3281.11.0937.18.1484.211.164.047.0157.094.0391.141.0703.031.0469.062.0704.094.0704.047 0 .093.0156.14.0468.032.0157.063.0391.094.0704l.141.0468c.062.0469.148.0703.258.0703.078.0157.14.0313.187.0469.047 0 .102.0078.164.0234.125.0313.219.0469.281.0469.188-.0156.313-.0156.375 0 .078.0157.141.0235.188.0235.078 0 .156-.0078.234-.0235.078-.0312.156-.0469.235-.0469.187.0157.304.0157.351 0 .063-.0156.125-.0234.188-.0234zm-.938-5.9531c-.031-.0625-.055-.1172-.07-.164 0-.0469-.024-.0782-.07-.0938-.079-.1562-.125-.2422-.141-.2578 0-.0156-.016-.0313-.047-.0469-.141-.125-.227-.2031-.258-.2344-.156-.125-.25-.1953-.281-.2109-.219-.1094-.367-.1641-.445-.1641-.063 0-.149 0-.258 0-.172.0782-.266.1172-.281.1172-.016 0-.032.0078-.047.0235-.172.0937-.274.1484-.305.164-.031 0-.047.0235-.047.0703-.125.0625-.195.1016-.211.1172-.015 0-.031 0-.047 0-.093.125-.156.211-.187.2578-.016.0313-.031.0625-.047.0938-.125.1562-.195.25-.211.2812-.016.0313-.031.0625-.047.0938-.047.2031-.101.3203-.164.3515-.047.0313-.078.086-.094.1641-.093.125-.14.2031-.14.2344.015.0156.015.0312 0 .0469-.047.1562-.086.2343-.117.2343-.063.25-.094.3907-.094.4219.031.125.031.2031 0 .2344-.016.0312-.008.0547.023.0703.203-.0937.344-.1328.422-.1172.156-.0781.258-.125.305-.1406s.086-.0391.117-.0703c.172-.0938.266-.1485.281-.1641.125-.0469.211-.0781.258-.0937.047-.0157.086-.0313.117-.0469.188-.0781.305-.125.352-.1406.062-.0313.109-.0625.14-.0938.125-.0781.211-.1172.258-.1172.047-.0156.094-.039.141-.0703.094-.0469.148-.0703.164-.0703.031-.0156.062-.0313.094-.0469.062-.0312.117-.0468.164-.0468.047-.0157.086-.0391.117-.0704.172-.0781.258-.125.258-.1406.015-.0312.031-.0469.047-.0469.093-.1093.179-.164.257-.164.079-.0157.133-.0547.164-.1172zm13.688 9.9375c-.078-.1875-.133-.2969-.164-.3281-.016-.0469-.032-.1094-.047-.1875l.023-.3047c0-.0625-.008-.1172-.023-.1641-.016-.0625-.024-.1171-.024-.164-.031-.1719-.062-.2891-.093-.3516.015-.0937.023-.1562.023-.1875 0-.0469-.008-.0859-.023-.1172l-.141-.2344c-.125.1563-.18.2344-.164.2344-.125.0782-.195.1328-.211.1641-.094.0937-.149.1406-.164.1406-.016 0-.039.0156-.07.0469-.11.1562-.196.2656-.258.3281-.125.1406-.188.2109-.188.2109-.078.0938-.148.1563-.211.1876-.093.0937-.148.1562-.164.1874-.015.0157-.047.0391-.094.0704-.109.125-.195.2031-.257.2343-.141.1563-.227.2344-.258.2344-.031.0313-.07.0547-.117.0703-.047.0313-.086.0625-.118.0938-.046.0156-.132.0234-.257.0234-.157 0-.266 0-.328 0-.188-.0625-.297-.1094-.329-.1406-.14-.0313-.234-.0547-.281-.0703-.047-.0157-.094-.0235-.14-.0235-.141-.1093-.211-.164-.211-.164-.125-.0313-.196-.0469-.211-.0469-.016-.0156-.032-.0234-.047-.0234-.156-.0625-.258-.1016-.305-.1172-.031-.0313-.086-.0469-.164-.0469-.094-.0625-.148-.1016-.164-.1172 0-.0312-.008-.0547-.023-.0703-.094-.0625-.172-.1016-.235-.1172-.031-.0781-.078-.125-.14-.1406-.063-.0313-.125-.0703-.188-.1172-.109-.1094-.172-.1641-.187-.1641 0-.0156-.016-.039-.047-.0703l-.211-.2109-.188-.211c-.125-.1718-.219-.3046-.281-.3984-.156-.1875-.234-.2969-.234-.3281-.204-.1875-.313-.2891-.329-.3047-.078-.0781-.132-.1562-.164-.2344-.078-.1094-.132-.1953-.164-.2578-.062-.0469-.101-.1172-.117-.2109 0-.0938 0-.1875 0-.2813-.031-.125-.07-.2422-.117-.3515-.047-.1094-.063-.1875-.047-.2344s.016-.1094 0-.1875c.047-.0781.078-.1484.094-.211.031-.0624.086-.1093.164-.1406.062-.1562.101-.2344.117-.2344.078-.1093.133-.1874.164-.2343.063-.1094.102-.1719.117-.1875.032-.0313.063-.0625.094-.0938.031-.0625.094-.1406.188-.2344.062-.0468.117-.1015.164-.164.062-.0625.125-.125.187-.1875.125-.1406.242-.2656.352-.375.125-.1406.187-.2109.187-.2109.016 0 .031-.0079.047-.0235.156-.125.242-.2031.258-.2344.031-.0312.062-.0625.094-.0937.14-.0938.218-.1406.234-.1406s.039-.0078.07-.0235c.157-.0937.243-.1484.258-.164.125-.0782.195-.1329.211-.1641.031-.0312.063-.0547.094-.0703.156-.0938.265-.1563.328-.1875.141-.1094.211-.1641.211-.1641.016 0 .031-.0078.047-.0234.172-.0625.273-.125.304-.1875.157-.0625.282-.1172.375-.1641.094-.0625.196-.1093.305-.1406.172-.0781.281-.1406.328-.1875.157-.125.235-.2031.235-.2344-.063-.0468-.133-.0625-.211-.0468-.063 0-.141 0-.235 0-.14 0-.242 0-.304 0-.063 0-.125 0-.188 0-.047 0-.101.0078-.164.0234-.047 0-.101-.0078-.164-.0234-.203-.0313-.336-.0391-.398-.0235-.047 0-.094 0-.141 0l-.398.0235c-.094-.0313-.188-.0469-.282-.0469-.047.0156-.101.0234-.164.0234-.062-.0156-.117-.0234-.164-.0234-.094 0-.195.0156-.305.0469-.109.0156-.226.0234-.351.0234-.047.0156-.102.0234-.164.0234-.047-.0156-.102-.0234-.164-.0234-.235 0-.422 0-.563 0-.125-.0156-.25-.0156-.375 0-.187-.0156-.289-.0313-.304-.0469-.016-.0312-.039-.0625-.071-.0937-.078-.1719-.117-.2657-.117-.2813.016-.0312.024-.0625.024-.0937.031-.1563.046-.25.046-.2813.016-.0312.024-.0625.024-.0937.031-.1563.055-.2344.07-.2344.016-.0156.031-.0391.047-.0703.031-.1875.063-.3203.094-.3985.031-.0937.062-.1796.094-.2578.015-.0468.023-.0859.023-.1172 0-.0468.016-.0937.047-.1406.062-.1562.094-.3359.094-.539.031-.2032.07-.3594.117-.4688.047-.125.078-.2344.094-.3281.046-.1563.07-.2657.07-.3281l.094-.2813c.14-.1563.226-.2734.257-.3516.047-.0312.086-.0547.118-.0703.046-.0312.093-.0625.14-.0937.125-.0469.235-.0781.328-.0938.094 0 .149-.0078.164-.0234.032-.0156.063-.0313.094-.0469.172.0156.281.0156.328 0 .063-.0156.133 0 .211.0469.11-.0313.18-.0391.211-.0235h.141c.094.0157.195.0235.304.0235h.352.258c.187-.0313.289-.0391.305-.0235h.093c.032.0157.094.0235.188.0235.094-.0156.148-.0235.164-.0235h.305c.14 0 .273-.0078.398-.0234.109-.0156.18-.0156.211 0s.062.0234.094.0234h.304c.172-.0156.266-.0156.282 0h.07l.258-.0234c.109 0 .179.0078.211.0234.047.0157.086.0235.117.0235.109-.0156.172-.0156.187 0 .032.0156.063.0234.094.0234.328 0 .555.0313.68.0938.25.0781.406.125.469.1406.125.0937.187.1406.187.1406.016-.0156.031-.0156.047 0 .094.0938.164.1485.211.1641.047 0 .086.0156.117.0469.094.0937.164.164.211.2109.141.1094.227.1719.258.1875.109.125.195.2187.258.2813.078.0624.132.1093.164.1406.031.0156.062.039.093.0703.157.0937.243.1641.258.2109.016.0469.055.0782.117.0938.047.125.071.2109.071.2578.015.0469.054.0781.117.0937.016.0469.031.0938.047.1407.015.0468.039.1015.07.164.047.0782.063.1406.047.1875 0 .0313.008.0625.023.0938.016.0781.032.1406.047.1875.032.0312.055.0625.071.0937.062.2344.109.3985.14.4922.031.0781.063.1563.094.2344.031.0625.047.125.047.1875.015.0469.039.1094.07.1875.094.25.156.4453.188.5859.047.125.086.2656.117.4219.031.0937.055.1953.07.3047.031.1094.055.2031.07.2812.016.1719.04.3047.071.3985l.07.4219c.031.125.055.2421.07.3515.032.1094.047.2266.047.3516.063.2187.117.3672.164.4453.016.1406.032.2266.047.2578.031.0781.047.1406.047.1875 0 .0313.008.0625.024.0937.062.2032.085.3282.07.375 0 .0469.008.0938.023.1407.032.1093.039.1797.024.2109v.0469c.015.0625.031.1172.047.1641.031.0312.046.0781.046.1406-.015.1094-.015.1875 0 .2344.032.0468.055.0937.071.1406 0 .0937.008.1562.023.1875.016.0156.031.0469.047.0937l.024.3985c.031.0781.046.1718.046.2812 0 .0938.008.1875.024.2813.031.1718.055.3125.07.4218.016.1094.039.211.07.3047.016.0625.024.1172.024.1641 0 .0312.016.0625.047.0937.062.1407.094.2344.094.2813v.1172c0 .0937-.008.1875-.024.2812-.016.0938-.039.1797-.07.2578-.047.1719-.071.2813-.071.3282-.14.1093-.218.1718-.234.1875-.016 0-.055.0078-.117.0234-.063.0156-.172.0391-.328.0703-.203.0313-.321.0547-.352.0703-.031 0-.062.0078-.094.0235-.156 0-.234 0-.234 0 0-.0157-.008-.0235-.023-.0235-.125.0157-.196.0235-.211.0235-.016-.0157-.039-.0235-.071-.0235-.218 0-.351.0078-.398.0235-.109 0-.203.0078-.281.0234-.078 0-.157 0-.235 0-.156.0156-.265.0391-.328.0703-.156.0313-.25.0469-.281.0469-.188.0312-.328.039-.422.0234-.094 0-.195.0078-.305.0235-.171.0156-.265.0234-.281.0234-.078.0156-.172.0078-.281-.0234-.094-.0313-.188-.0625-.281-.0938zm-.399-3.3281c-.015-.2188-.031-.375-.047-.4688-.015-.1093-.031-.1875-.047-.2343-.031-.1407-.046-.2344-.046-.2813.015-.0469.015-.0859 0-.1172-.047-.2656-.071-.4453-.071-.539 0-.0938-.015-.1875-.047-.2813-.031-.125-.054-.2031-.07-.2344-.016-.0468-.031-.0859-.047-.1171-.109-.0938-.179-.1329-.211-.1172-.031.0156-.054.039-.07.0703-.141.0937-.219.1484-.234.164-.141.0782-.227.1329-.258.1641-.078.0625-.125.1016-.141.1172-.015.0156-.039.039-.07.0703-.156.125-.235.1875-.235.1875 0-.0156-.007-.0156-.023 0-.156.1094-.25.1875-.281.2344-.031.0312-.071.0625-.117.0937-.032.0781-.071.1407-.118.1875-.031.0469-.062.0938-.093.1406.031.0626.047.1172.047.1641 0 .0313-.016.0859-.047.1641.109.125.187.1875.234.1875.078.0469.133.0703.164.0703s.063.0078.094.0234c.094.0625.148.1094.164.1406.016.0157.031.0235.047.0235.14.0625.226.0937.258.0937.046 0 .101.0078.164.0235.109.0312.187.0547.234.0703.063 0 .109.0078.141.0234.172.0938.312.1563.422.1875.125.0157.226.0078.304-.0234zm18.516-10.4766c.062.25.078.461.047.6328-.032.1719-.047.3204-.047.4454-.031.0468-.047.0937-.047.1406.016.0468.016.0937 0 .1406 0 .0469-.008.1016-.023.1641v.1406.2109.1406c0 .125-.008.1954-.024.211v.0469c.031.1093.024.2109-.023.3047.031.0937.039.1953.023.3046-.016.1094-.023.2422-.023.3985l-.024.3984c0 .1719-.008.3047-.023.3985v.2578c-.016.1406-.031.2265-.047.2578.016.1718.023.2578.023.2578.016 0 .024.0156.024.0469.031.0781.031.1875 0 .3281-.016.1406-.016.2656 0 .375 0 .125-.008.2031-.024.2344 0 .0156.008.039.024.0703v.2109c.015.0156.023.0391.023.0703-.015.125-.023.2422-.023.3516 0 .0469-.008.0937-.024.1406v.1406.2344c.016 0 .024.0156.024.0469-.016.0937-.031.1562-.047.1875v.0937c.047.2657.055.4454.023.5391-.015.0469-.023.1328-.023.2578v.3047c.016.125.016.1953 0 .2109v.0469c.047.1875.062.3203.047.3984v.2344c-.016.125-.024.211-.024.2578.016.0313.008.0625-.023.0938.031.1094.039.2344.023.375v.4219.6328.4453c.016.125.032.2578.047.3984.016.0782.024.1641.024.2578 0 .0938.007.1797.023.2578.047.2188.07.3985.07.5391v.3985c0 .1874-.015.3046-.046.3515-.016.0469-.047.1094-.094.1875-.203.0469-.336.0703-.399.0703-.047.0157-.117.0235-.211.0235-.265-.0157-.507-.0157-.726 0-.188 0-.336 0-.445 0-.094.0156-.204.0156-.329 0-.125 0-.195 0-.211 0-.015.0156-.039.0234-.07.0234-.219-.0312-.351-.0469-.398-.0469-.032.0157-.071.0157-.117 0-.204-.0625-.329-.0937-.375-.0937-.047 0-.094-.0156-.141-.0469-.125-.0469-.203-.0859-.234-.1172-.032-.0156-.071-.0234-.118-.0234-.14-.1875-.211-.3438-.211-.4688 0-.0937.008-.1797.024-.2578.031-.0781.039-.1641.023-.2578.016-.125.016-.2187 0-.2813 0-.0624 0-.1093 0-.1406.016-.0468.016-.0937 0-.1406 0-.0625 0-.1172 0-.1641v-.3984c-.14.125-.242.2109-.304.2578-.047.0313-.102.0703-.164.1172-.157.0781-.25.1563-.282.2344-.156.0937-.242.1484-.258.164-.015.0157-.039.0313-.07.0469-.109.0938-.18.1484-.211.1641-.031 0-.062.0156-.094.0469-.125.0624-.21.1015-.257.1171-.11.0782-.211.1329-.305.1641-.063.0469-.109.0781-.141.0938-.015 0-.047.0078-.093.0234-.204.1094-.336.1797-.399.2109-.062.0313-.117.0625-.164.0938-.187.0781-.281.1172-.281.1172-.094.0312-.164.0547-.211.0703-.047 0-.086.0078-.117.0234-.078.0625-.149.1016-.211.1172-.047 0-.094.0078-.141.0234-.062.0313-.125.0469-.187.0469-.047.0156-.102.0391-.164.0703-.157.0469-.25.0703-.282.0703-.015.0157-.039.0235-.07.0235-.125-.0313-.203-.0469-.234-.0469-.032.0156-.063.0156-.094 0-.109-.0156-.211-.0469-.305-.0937-.094-.0313-.187-.0704-.281-.1172-.141-.0782-.227-.1172-.258-.1172-.109-.0938-.172-.1328-.187-.1172 0 0-.008-.0156-.024-.0469-.047-.0469-.101-.0781-.164-.0937-.047-.0313-.101-.0782-.164-.1407-.156-.125-.234-.1875-.234-.1875-.094-.125-.157-.2109-.188-.2578-.078-.0781-.133-.1406-.164-.1875-.015-.0469-.039-.0859-.07-.1172-.11-.1093-.164-.1718-.164-.1875 0-.0312-.008-.0468-.024-.0468-.109-.1094-.172-.1719-.187-.1875-.016-.0157-.039-.0391-.07-.0703-.079-.1094-.133-.1719-.165-.1876-.015-.0312-.039-.0624-.07-.0937-.031-.0625-.07-.125-.117-.1875s-.102-.1172-.164-.1641c0-.0781-.016-.1406-.047-.1875-.016-.0625-.008-.1172.023-.164l-.07-.2578c-.015-.0938-.039-.1563-.07-.1875-.016-.0313-.024-.0625-.024-.0938-.031-.0625-.046-.1406-.046-.2344.015-.0937.015-.1797 0-.2578-.016-.1719-.016-.2656 0-.2812-.047-.1875-.086-.3125-.118-.375-.015-.1719-.023-.2657-.023-.2813.016-.0156.023-.0312.023-.0468 0-.0313-.007-.0782-.023-.1407s-.024-.1172-.024-.164c.032-.1407.032-.211 0-.211-.015 0-.015-.0156 0-.0469-.015-.1718-.023-.2734-.023-.3046.016-.0313.023-.0625.023-.0938.016-.0469.016-.0859 0-.1172 0-.0468 0-.0937 0-.1406v-.3047l-.023-.3984c-.016-.25-.016-.4297 0-.5391.016-.125.023-.25.023-.375-.015-.125-.023-.1953-.023-.2109.016-.0313.023-.0625.023-.0938-.015-.1719-.023-.2578-.023-.2578.016-.1562.016-.2734 0-.3515 0-.0782.008-.1719.023-.2813 0-.2187-.007-.3516-.023-.3984 0-.0625 0-.125 0-.1875 0-.0782 0-.1485 0-.211.016-.0625.023-.1328.023-.2109v-.5859c0-.1407-.007-.2422-.023-.3047-.016-.0782-.031-.1563-.047-.2344 0-.1406 0-.2188 0-.2344.016-.0312.024-.0547.024-.0703-.032-.1875-.047-.3125-.047-.375.015-.0625.023-.125.023-.1875-.031-.1406-.047-.2266-.047-.2578 0-.0313 0-.0625 0-.0938 0-.1875-.015-.289-.047-.3047-.015-.125-.031-.2187-.046-.2812 0-.0625-.008-.1328-.024-.2109.016-.0469.016-.1094 0-.1875-.016-.0782-.016-.1407 0-.1875l.258-.3516c.078.0156.141.0156.187 0 .047-.0313.11-.0547.188-.0703.219-.0156.359-.0391.422-.0703.062-.0313.14-.0391.234-.0235.188.0469.344.0547.469.0235h.187c.047 0 .086-.0078.118-.0235h.14c.063-.0156.125-.0156.188 0 .187.0313.304.0469.351.0469.063-.0156.125-.0156.188 0 .156.0313.265.0469.328.0469.187 0 .32.0156.398.0469.032.0156.086.0234.164.0234h.258c.094-.0156.188-.0234.281-.0234.094-.0157.188-.0235.282-.0235.062.0156.125.0313.187.0469.063 0 .125.0156.188.0469.047.1562.07.2344.07.2344.016 0 .023.0078.023.0234.094.2031.141.3672.141.4922 0 .1094-.008.2187-.023.3281 0 .0469-.008.0937-.024.1406-.015.0469-.023.0938-.023.1407 0 .0468-.008.0937-.024.1406v.1406.2109c.016.0625.016.125 0 .1875-.015.1563-.023.2344-.023.2344.016 0 .023.0078.023.0234-.015.0469-.031.0938-.047.1407 0 .0312-.007.0703-.023.1172v.2343c.016.0625 0 .125-.047.1875.031.1563.039.3047.024.4453v.4219c-.016.1563-.024.2578-.024.3047.016.0313.024.0625.024.0938 0 .0937-.008.1796-.024.2578 0 .0781-.008.1562-.023.2344v.4453.7734c0 .0625-.008.1328-.024.2109 0 .0625.016.1328.047.211-.031.0468-.047.0937-.047.1406.016.0469.024.0938.024.1406 0 .0782-.008.1641-.024.2578-.015.0782-.023.1641-.023.2578 0 .2032.008.336.023.3985.032.0625.047.1328.047.2109.016.2188.031.3594.047.4219s.031.1328.047.2109c.016.0782.016.1485 0 .211 0 .0468.016.0937.047.1406.172.0625.273.1094.304.1406.032.0156.063.0391.094.0703.235.0782.383.1407.446.1875.031.0469.07.0704.117.0704.047-.0157.086 0 .117.0468.141-.0468.226-.0859.258-.1172.172-.1093.265-.164.281-.164.031-.0156.062-.0391.094-.0703.14-.1094.226-.1641.258-.1641.171-.1406.273-.2266.304-.2578.031-.0469.063-.086.094-.1172s.062-.0625.094-.0938c.047-.0312.086-.0624.117-.0937.031-.1406.031-.2578 0-.3516-.016-.0937-.016-.2031 0-.3281 0-.125.008-.2109.023-.2578.016-.0625 0-.1328-.047-.2109.016-.1875.032-.3047.047-.3516.016-.0469.024-.0937.024-.1406 0-.0781-.008-.1563-.024-.2344-.015-.0781-.007-.1719.024-.2813.031-.1406.039-.2343.023-.2812-.015-.0625-.023-.1172-.023-.1641 0-.0625-.008-.1171-.024-.164 0-.0469.016-.0938.047-.1407-.015-.0468-.031-.1015-.047-.164-.015-.0781-.007-.1484.024-.211.015-.1562 0-.3046-.047-.4453 0-.1875 0-.3203 0-.3984.016-.0781.008-.1563-.024-.2344 0-.1093 0-.1719 0-.1875.016-.0156.024-.039.024-.0703-.031-.125-.047-.1953-.047-.2109.016-.0313.023-.0625.023-.0938 0-.1406-.007-.2344-.023-.2812-.016-.0469-.023-.0938-.023-.1406 0-.1094-.016-.211-.047-.3047-.047-.2032-.071-.336-.071-.3985.016-.0625.024-.1328.024-.2109 0-.1094.008-.1719.023-.1875.016-.0313.024-.0703.024-.1172.015-.0625.015-.125 0-.1875 0-.0781 0-.1563 0-.2344-.016-.1406-.008-.2578.023-.3515.016-.125.031-.2578.047-.3985.016-.1406.07-.2343.164-.2812.094-.1094.149-.1719.164-.1875.031-.0313.07-.0547.117-.0703.032-.0157.071-.0313.118-.0469.046-.0156.093-.0391.14-.0703.125.0312.235.039.328.0234.11-.0156.211-.0078.305.0235.172-.0469.273-.0782.305-.0938.031-.0156.062-.0234.093-.0234.032 0 .071.0078.118.0234h.164c.062 0 .125.0078.187.0234h.164c.047 0 .094-.0078.141-.0234s.094-.0234.14-.0234c.079 0 .165.0156.258.0468.11 0 .172.0078.188.0235h.07.164c.031-.0157.063-.0235.094-.0235.156 0 .242.0078.258.0235h.093c.047.0156.094.0234.141.0234.047-.0156.109-.0234.188-.0234.062 0 .125.0078.187.0234.063 0 .109-.0156.141-.0469.156.0469.242.0782.258.0938.015.0156.039.0234.07.0234z" fill="#693821"/></svg>