<svg fill="none" height="39" viewBox="0 0 38 39" width="38" xmlns="http://www.w3.org/2000/svg" xmlns:xlink="http://www.w3.org/1999/xlink"><linearGradient id="a"><stop offset="0" stop-color="#cf5c2b"/><stop offset="1" stop-color="#59173e"/></linearGradient><linearGradient id="b" gradientUnits="userSpaceOnUse" x1="35.8652" x2="25.3777" xlink:href="#a" y1="-18.7423" y2="4.57236"/><linearGradient id="c" gradientUnits="userSpaceOnUse" x1="31.4427" x2="-5.67013" xlink:href="#a" y1="-10.4493" y2="75.2328"/><linearGradient id="d" gradientUnits="userSpaceOnUse" x1="27.3644" x2="-9.74843" xlink:href="#a" y1=".135486" y2="85.8175"/><linearGradient id="e" gradientUnits="userSpaceOnUse" x1="20.3152" x2="19.1857" xlink:href="#a" y1="53.6806" y2="17.8586"/><path d="m36.821 5.53939c-.2113-2.86956-2.5615-5.114154-5.4311-5.228584-8.0805-.3256862-16.1258-.3256862-24.14473-.008803-.58096.026407-1.15311.132035-1.69885.334489-.27287.096825-.53694.220058-.78341.352093-1.24993.686585-2.09495 1.874895-2.74632 3.098415-.69539 1.28514-1.399573 2.71112-1.487596 4.18991-.070419 1.19712-.132035 2.40299-.176047 3.60019-.008802.132-.008802.2552.008803.3785.008802.0704.017604.1408.008802.2112-.026407.3873-.008802.7306.193651 1.0739.123233.2025.281675.3785.484127.4929-.0176-.0088-.184848.1497-.211255.1673-.070418.0616-.132035.132-.184849.2024-.11443.1497-.211255.3081-.272872.4842-.070418.176-.11443.3609-.123232.5457-.061616.7482-.044012 1.4964-.035209 2.2446.008802.6514-.052814 1.3379.052814 1.9805.026406.1585 0 .3257.035209.4841.070418.3609.237663.6954.404907 1.0211-.281675.2993-.404907.713-.422512 1.1267-.017604.4753.070419.9419.035209 1.4172-.088023 1.2851-.008802 2.6055.070419 3.8818.008802.1497.035209.2993.061616.4401.079221.3609.088024.7394.290477 1.0563.088023.1408.202454.2641.343288.3609-.132032-.0176-.23766.1232-.299276.2377-.396105.757-.396105 1.3467-.237663 2.1565.158442.8451.11443 1.6461.422511 2.4735.255268.6866.642568 1.3203 1.126698 1.8573 1.00347 1.1179 2.42944 1.8045 3.92584 1.8925 8.51185.4929 16.70685.5369 24.52325.0528.0352 0 .0704-.0088.1057-.0088.9506-.0792 1.8748-.3873 2.6759-.9066.7834-.5018 1.4347-1.1972 1.8925-2.007.5281-.933.7834-2.0333 1.0474-3.0632.1673-.6338.4225-1.4436.3521-2.1213-.044-.3874.0704-.7659.0528-1.1532-.0176-.4401-.132-.8714-.3344-1.2587-.0265-.044-.0529-.0968-.0529-.1496-.0088-.1233.1233-.2113.2201-.2905.2289-.176.3785-.4489.4313-.7306.0088-.0704.0176-.1408.0088-.2113-.0264-.1232-.0176-.22-.0088-.352.044-.8891.0792-1.7781.1144-2.6671.0353-.9771.0705-1.9542.0881-2.9224.0264-.9595.0352-1.9277.044-2.8872.0088-.9506.0088-1.9013 0-2.8431 0-.4666-.0088-.9419-.0176-1.4084 0-.2377-.0088-.4665-.0176-.7042-.0088-.2201-.044-.4665-.0088-.6866.0088-.0792.0352-.1408.0176-.22-.0088-.0969-.0352-.1849-.0616-.2817-.0529-.1849-.1321-.3609-.2289-.5281-.0968-.1673-.2113-.3169-.3521-.4578-.0352-.0352-.4049-.37847-.4401-.34326.1144-.10563.2112-.22005.2993-.34329.2288-.32568.3609-.70418.4577-1.09149.044-.19365.0704-.3961.0968-.59855.0088-.03521.0264-.07042.0264-.11443.0264-.14084-.0088-.30809-.0176-.44892-.0352-.58096-.0792-1.17952-.1232-1.77807z" fill="url(#b)"/><path d="m37.1999 12.1406c-.0088 1.0035-.0176 2.0069-.0264 3.0104-.0088.4753-.0088.9594-.0088 1.4436 0 .264-.0088.5193-.0088.7746-.0176 1.3643-.0352 2.7287-.0704 4.0931-.0176.6777-.0352 1.3555-.0616 2.0333-.0176.4049-.0088.7834-.1409 1.1619-.1496.4225-.1408.9419-.1936 1.3908-.0176.1408-.044.2904-.1497.3961-.0968.0968-.2376.1144-.3785.1232-.22.0264-.4489.044-.6689.0704-1.294.1321-2.5967.2553-3.8907.2905-.9594.0176-1.9277-.0088-2.8871-.1144.7306.1056 1.4612.22 2.1918.3257.2112.0352.4137.0616.6249.0968 1.4876.22 2.9752.4401 4.4628.6602.132.0264.2817.044.3785.1408.1496.132.1584.3609.1496.5633-.0176.2993-.044.5986-.0968.8979-.0792.5897-.1936 1.1795-.22 1.7781-.0088.1232.0176.2464-.0088.3697-.0617.3785-.3433.7393-.5546 1.0386-.9947 1.3908-2.5791 2.271-4.2779 2.3767-7.7021.4841-15.765.4401-24.1448-.0441-1.20592-.0704-2.37663-.5369-3.30087-1.3203-.54574-.4665-1.05628-1.0651-1.37316-1.7253-.14084-.2992-.17605-.6425-.31689-.9506-.0264-.0704-.05281-.1321-.07922-.2025-.04401-.2024-.0264-.4225.14964-.5633.18485-.1497.44892-.1585.68658-.1673 2.66711-.088 5.32541-.2552 7.99252-.3344h.0792c.8098-.0265 1.6284-.0353 2.4383-.0353-.2993-.044-.5986-.088-.8979-.1144-1.3731-.1672-2.76391-.22-4.14587-.2729-.01761 0-.03521-.0088-.04401-.0088h-.01761c-1.67244-.0616-3.33608-.132-4.98212-.3961-.31688-.0528-.64257-.1144-.92424-.2552-.21126-.0969-.3961-.2289-.52814-.4225-.0088 0-.0176-.0177-.02641-.0265-.19365-.2992-.26407-.7482-.20245-1.0826.07922-.3873.02641-.7658.0088-1.1796-.03521-.7041-.07922-1.4171-.10562-2.1213-.02641-.3873-.04402-.7746-.06162-1.1619-.0088-.2113-.01761-.4489.11443-.6162.10563-.132.29048-.176.45772-.22.51934-.1321 1.03867-.2641 1.57562-.3433.23766-.044.47532-.0704.71298-.0881-.60736-.1408-1.21472-.2728-1.83088-.4137-.18485-.044-.3697-.088-.53694-.176-.03521-.0176-.07922-.044-.11443-.0704-.29928-.2201-.3785-.5194-.42251-.8362-.01761-.1057-.02641-.2201-.04401-.3257-.04402-.2553-.07923-.5018-.09683-.757-.04401-.3873-.06162-.7746-.07922-1.1619-.03521-.8451-.07922-1.9366.45772-2.6495.19365-.2553.53694-.3169.85383-.3521 1.24112-.1497 2.48225-.2817 3.72338-.3873.25527-.0264.51934-.044.7746-.0705 1.25874-.0968 2.50867-.176 3.77623-.2376-1.51403.0704-3.03683.044-4.55083-.0528-.95065-.0616-1.9013-.1585-2.85195-.2817-.39611-.0528-.80982-.1144-1.16191-.2993-.0088-.0088-.01761-.0088-.02641-.0176-.09682-.044-.18485-.0968-.27287-.1672-.19365-.1497-.33449-.3521-.41371-.581-.08802-.2377-.04401-.4401-.0088-.6778.0088-.088 0-.176 0-.264-.01761-.537.02641-1.0827.03521-1.6197.0088-.27284.0176-.54571.03521-.82738.03521-1.19712.09682-2.39424.16724-3.59135.17605-2.90477 2.53507-5.202176 5.43984-5.316606 8.01008-.3256858 16.05548-.3168835 24.14478.008803 2.5967.105627 4.8589 2.042143 5.343 4.594813.1496.78341.2025 1.63723.0528 2.42944-.0352.20246-.088.39611-.1584.58096-.044.10562-.1145.32568-.2113.4137-.0088.00881-.0176.01761-.0176.01761-.0704.04401-.1672.05281-.2376.07042-.4754.11443-.9507.21125-1.426.29928-.9507.16724-1.9101.29047-2.8696.3785-.0088 0-.0088 0-.0088 0-1.9365.16724-3.8906.20245-5.8271.22886h-.0528c.5281.03521 1.065.06161 1.5932.09682 1.4436.07922 2.8871.16725 4.3307.25527.9595.05281 1.9277.10563 2.8872.16724.5809.03521 1.1883.07923 1.69.37852.0088 0 .0088.0088.0088.0088.6426.4313.6866 1.2059.6778 1.9365z" fill="url(#c)"/><path d="m37.1995 12.1406c-.0088 1.0035-.0176 2.007-.0176 3.0104-.0088.4753-.0088.9595-.0088 1.4436 0 .2641-.0088.5193-.0088.7746-3.7058.2377-7.4204.5634-11.135.7922-4.3307.2641-8.6615.5546-12.9834.8274-2.3326.1497-4.64763.3257-6.97145.5898-1.55801.176-3.0368.4313-4.5508.3433-.0176-.1056-.02641-.2201-.04401-.3257-.04401-.2553-.07922-.5017-.09683-.757 1.53161-.3257 3.07201-.2729 4.70044-.3257 2.18298-.0704 4.33075-.22 6.50495-.4225 4.3307-.4049 8.6615-.8274 12.9922-1.3204 2.5791-.2992 5.1582-.5633 7.746-.845-.088-.0088-.1672-.0088-.2552-.0176-4.2339-.2288-8.3974-1.0122-12.6137-1.3907-4.1812-.3785-8.3799-.7042-12.57857-.9507-1.69885-.1056-3.64416-.0792-5.56307-.2113-.0088-.0088-.01761-.0088-.02641-.0176-.09682-.044-.18485-.0968-.27287-.1672-.19365-.1496-.33449-.3521-.41371-.581-.08802-.2376-.04401-.4401-.0088-.6777.0088-.0881 0-.1761 0-.2641-.01761-.5369.02641-1.0827.03521-1.6196.0088-.27291.0176-.54578.03521-.82745 2.13016-.11443 4.33074.02641 6.22324.04401 4.19867.03521 8.38857.23766 12.57857.48413 4.2075.24646 8.4062.14964 12.6137.34331 1.1355.0528 2.2798.0968 3.4153.1232.6778.4401.713 1.2147.7042 1.9453zm-13.9077 9.8322c-7.1563.3433-14.69108.0264-21.66252 1.8661.03521.7042.07042 1.4172.10563 2.1214.0176.4049.07041.7834-.00881 1.1795-.06161.3345.01761.7834.20246 1.0827 2.11255.5545 4.26912.8978 6.4609 1.1179.01761 0 .03521.0088.06162.0088 1.37316.1408 2.75512.22 4.14592.2728 3.5825.1321 7.1915.0529 10.6948.0881 4.3836.044 8.7671-.044 13.1419-.2025.044-.2993.0792-.5897.0968-.8978.0088-.2025 0-.4225-.1496-.5634-.0969-.088-.2465-.1144-.3785-.1408-1.6989-.2553-3.3889-.5017-5.0878-.757-.7306-.1056-1.4612-.2201-2.1918-.3257 2.2534.2553 4.5244.0616 6.7866-.1672.2201-.0264.4489-.0441.669-.0705.132-.0088.2817-.0264.3785-.1232.1056-.0968.132-.2553.1496-.3961.0529-.4489.0353-.9594.1937-1.3908.132-.3873.132-.757.1408-1.1619.0264-.6777.044-1.3555.0616-2.0333-4.6036.132-9.216.2729-13.8108.4929z" fill="url(#d)"/><g fill="#e68b4a"><path d="m1.9542 28.267c-.21125-.2992-.29928-.7746-.22886-1.1267.07922-.3873.02641-.7658.00881-1.1795-.06162-1.0915-.11443-2.1918-.16725-3.2832-.0088-.2113-.0176-.449.11443-.6162.10563-.132.29048-.1761.45772-.2201.51934-.132 1.03868-.264 1.57562-.3433-.29928.2289-.58976.4138-.94185.5898-.12323.0616-.25527.1232-.34329.2289-.09683.1056-.13204.264-.16725.4049-.29927 1.3731-.14083 2.8079.02641 4.2075.07042.5809.14084 1.1707.19365 1.7604-.21125-.0968-.3961-.2376-.52814-.4225z"/><path d="m1.47227 19.596c-.10562-.6338-.14964-1.2852-.17604-1.9189-.03521-.845-.07922-1.9365.45772-2.6495.19365-.2553.53694-.3169.85382-.3521 1.4964-.1761 2.99279-.3345 4.49799-.4489-1.42598.4753-3.05441.4753-4.43637 1.065-.25527.1057-.51054.2377-.65137.4754-.09683.1584-.13204.3433-.15844.5193-.08803.5634-.14964 1.1003-.11443 1.6724.0264.3609.05281.7306.08802 1.0915.05281.5986.14084 1.1884.23766 1.7781-.03521-.0176-.07922-.044-.11443-.0704-.41371-.2817-.40491-.7306-.48413-1.1619z"/><path d="m30.668 27.0342c.0619.0263.1237.0525.1856.0788-.0707-.0175-.1326-.035-.1856-.0788z"/><path d="m36.5312 28.592c-.0352.9067-.2817 1.7781-.3169 2.6759-.0088.1233.0176.2465-.0088.3697-.0616.3785-.3433.7394-.5546 1.0387-.9946 1.3908-2.579 2.271-4.2779 2.3766-7.702.4842-15.765.4401-24.14477-.044-1.20592-.0704-2.37663-.5369-3.30087-1.3203-.55455-.4578-1.06508-1.0563-1.38197-1.7165-.14083-.2993-.17604-.6426-.31688-.9506-.02641-.0705-.05281-.1321-.07922-.2025-.04401-.2024-.02641-.4225.14964-.5633.18485-.1497.44892-.1585.68658-.1673 2.6671-.088 5.32541-.2553 7.99249-.3345-2.3414.1321-4.67401.4577-6.98022.8715-.31689.0528-.66018.0792-.96826.1672-.04401.0176-.09682.0176-.14084.0616-.05281.0704-.04401.1585-.0352.2377.0352.2729.18484.5017.35209.7218.53694.7042 1.10029 1.4436 1.8925 1.8573 1.9013 1.0034 3.83781.8538 5.99443.8098.4401-.0088.8714 0 1.3115-.0792.2201-.0441.4841 0 .7042.0088.5017.0176 1.0035.0264 1.514.044 1.0035.0264 2.0157.0528 3.0192.088l5.6511.1584c1.7957.0528 3.5913.0969 5.387-.0528 1.7693-.1408 3.5385-.4753 5.1758-1.1883.132-.0616.2904-.1056.4049-.2025.088-.0616.1584-.1408.2464-.2024.2729-.176.537-.3521.7746-.5722.1585-.1496.3873-.3432.4666-.5545.044-.1144.0704-.2465.1144-.3609.1144-.3257.176-.669.2025-1.0123.0264-.3785.0088-.7658-.0353-1.1443-.0176-.1672.0088-.4841-.0968-.6249-.0528-.0793-.1936-.1497-.2817-.1937-.2288-.1144-.4929-.1672-.7482-.2112-1.3643-.2553-2.7023-.669-3.9786-1.2324 1.6988.2553 3.3889.5106 5.0877.757.1321.0264.2817.044.3785.1409.1409.1232.1409.3521.1409.5457z"/><path d="m1.62056 12.5895c-.07042-.2817-.06161-.5722-.06161-.8626.03521-1.3996.07041-2.80799.14964-4.20756.07041-1.28514.04401-2.6407.57215-3.83782.86262-1.95411 2.82554-3.292065 4.97331-3.380089 8.01015-.3256856 16.05545-.3168833 24.14475.008803 2.5967.105628 4.8589 2.042136 5.343 4.594816.1497.7834.2025 1.63723.0529 2.42944-.0353.20245-.0881.3961-.1585.58095-.044.10563-.1144.32569-.2112.41371-.1673-1.28514.1496-2.69351-.3169-3.90823-.2729-.73059-.669-1.45238-1.294-1.93651-2.0597-1.593223-5.0965-1.487595-7.5788-1.531606-6.8394-.132035-13.6348-.343291-20.44777.272876-.31689.0264-.62497-.08803-.92425-.03521-.67778.11443-1.32915.57215-1.82208 1.02107-.67778.62496-1.19711 1.41717-1.5228 2.2798-.08802.25527-.16724.51053-.23766.7658-.66018 2.53507-.3785 5.47506-.06162 8.04536-.29048-.0969-.49293-.3697-.58976-.669 0-.0088-.0088-.0264-.0088-.044z"/><path d="m37.1995 12.1408c-.0088 1.0035-.0176 2.007-.0176 3.0104-.0088.4754-.0088.9595-.0088 1.4436-.0176 2.3062-.044 4.6036-.1408 6.9098-.0176.405-.0088.7835-.1408 1.162-.1497.4225-.1409.9418-.1937 1.3907-.0176.1409-.044.2905-.1496.3961-.0969.0968-.2377.1145-.3785.1233-.2201.0264-.4489.044-.669.0704.132-.088.2289-.2113.3081-.3609.1056-.2201.132-.4753.1496-.7218.3257-4.0579.3521-8.1334.2377-12.2-.0176-.537-.0352-1.0739-.0528-1.6109-.0088-.1232.0176-.2376.0088-.3609-.0176-.1584-.0969-.308-.2025-.4401-.2288-.2816-.5809-.4577-.9154-.5721-2.4823-.83624-5.2638-.2289-7.7725-.97708h.2993c2.4118.14084 4.8149.28168 7.2179.42251.581.03521 1.1883.07922 1.6901.37847.7041.4225.7393 1.1971.7305 1.9365z"/></g><path d="m30.916 27.1397c.2113.0352.4138.0616.625.0968-.1144.4049-.2817.7834-.5281 1.1003-1.0035 1.2939-2.8784 1.5228-4.3572 1.6108-2.5086.1409-5.0173.2905-7.526.2729-2.7023-.0176-5.3606-.2729-8.0541-.4577.8098-.0264 1.6284-.0352 2.4382-.0352-.2992-.044-.5985-.0881-.8978-.1145-1.3732-.1672-2.76392-.22-4.14589-.2728-.0176 0-.03521-.0088-.04401-.0088h-.03521c-.10563-.0265-.22006-.0617-.33449-.0969-.22886-.0704-.46652-.1496-.66017-.2816-.45772-.3257-.64257-.9331-.80101-1.4876-.3521-1.2676-.22006-2.5263-.14964-3.8114.07922-1.382.07922-2.764.05281-4.1459-.04401-1.7253-.12323-3.477-.17604-5.211.25526-.0264.51933-.044.7746-.0704.64257-.0528 1.27634-.0969 1.91891-.1321.0176 2.2798.14964 4.5684.23766 6.8394.0088.2465-.02641.493 0 .7306.0176.1409 0 .2289.09683.3433.13203.1673.51933.3345.74815.3785.2729.044.5634.0176.8363.0176.5985 0 1.2059 0 1.8044.0088-.5897.0969-1.1795.1585-1.778.1849-.2553.0088-.5634-.0352-.801.044-.2377.0792-.47537.1144-.71303.176-.07042.0176-.14084.0352-.18485.0881-.04401.044-.05281.1056-.07042.1672-.04401.2553-.0176.5105.05282.757.05281.1937.12323.3609.10563.5634-.04402.4753.0264.9594.09682 1.4347.02641.1761.03521.3345.14084.4842.22886.3168.63379.4929.99469.5897 2.7903.7658 5.7127.801 8.6086.8362 1.7077.0176 3.4153.0352 5.123-.0176 1.1619-.0352 3.2833.2025 4.2867-.5193.1409-.0968.2641-.2201.3609-.3609.6514.1056 1.3028.2113 1.9541.2993zm-21.89134-14.5151c.0088-.4841.05281-.9682.09682-1.4523.00881-.0793.00881-.1585 0-.2377-.0176-.1584-.0176-.2817.01761-.4313.08802-.3345.24646-.6866.56335-.86264.21125-.11443.46656-.12324.71296-.13204 1.1971-.03521 2.3943-.03521 3.5914-.0088-.9507-.09683-1.9013-.20245-2.852-.29928-.5369-.05281-1.0827-.11443-1.602.0176.0176-.0088.07042-.14083.08802-.15844.03521-.06161.07922-.12323.12323-.17604.07923-.10563.17605-.21126.28165-.29928.1849-.15844.3521-.33449.5458-.48413.4137-.31688.889-.53694 1.3731-.71299.4578-.16724.9331-.28167 1.4084-.3961.3257-.07923.6602-.07923.9947-.08803 3.7498-.05281 7.4996-.07042 11.2493-.09682.625-.00881 1.2676.21125 1.8749.3785.449.12323.9067.31688 1.1972.68658.2728.34329.4225.83622.5017 1.38196.889-.0264 1.7781-.07922 2.6847-.15844-.0792-1.06508-.2641-2.09495-1.0123-2.90477-.8186-.88023-2.2094-1.06508-3.3361-1.12669-1.2675-.07042-2.535-.11443-3.8026-.14964-.9946-.01761-1.9805-.03521-2.9663-.03521-2.0246-.0088-4.0139.07042-6.0208.17604-2.183.10563-4.92933-.63376-6.77782.86263-.91544.7394-1.35556 1.66364-1.54041 2.86076-.14084.90664-.14964 1.83087-.14964 2.74637 0 .7922.01761 1.5932.04401 2.4118.89784.0616 1.79568.0968 2.69351.0968.00881-.4753.00881-.9418.01761-1.4084zm23.16774 3.0721c-.044-1.7341-.1321-3.4682-.2553-5.2022-.0176-.2729-.0352-.54576-.0528-.82744-.889-.05281-1.7869-.10563-2.6847-.15844.088.95068.0088 2.00698.0528 2.71108.0616 1.0915.1672 2.183.2553 3.2657.044.5281.088 1.0563.1144 1.5844.0088.1673.044.3081-.0528.4489-.1673.2465-.5282.2905-.801.3081-1.4612.0968-2.94.1321-4.366.4753 1.8133.0705 3.6266.0353 5.4311-.0968-.0353.1585-.0793.3257-.1145.4841-.0352.1409-.088.2905-.088.4314 0 .088.0352.176.044.264.0264.1497.0088.3169.0176.4666.0088.6689 0 1.3379-.0088 2.0069-.0088.5633-.0264 1.1267-.044 1.6812-.0088.0616-.0088.1321-.0088.1937-.0352.9154-.044 2.271-.6602 3.0896.8803.088 1.7605.1144 2.6319.0968.1673-.7306.2201-1.514.2993-2.1918.2905-2.3678.2553-4.7796.2817-7.1651.0088-.6249.0088-1.2411.0088-1.8572.0088.0088 0 0 0-.0088z" fill="url(#e)"/><g fill="#e68b4a"><path d="m22.7909 30.0532c1.1531-.0176 2.3326-.0352 3.4769-.2113.2377-.0352.493-.0264.7394-.044.5194-.0352 1.0299-.088 1.5404-.1584.3345-.0441.669-.0969.9947-.2113.9771-.3345 1.7517-1.2147 1.9629-2.227-.5369-.0264-1.1531-.0264-1.69-.0528.4489-.0792 1.1091.1496 1.3115.5633-.5809.5106-1.2323.9683-1.9717 1.1708-.3961.1056-.8098.1408-1.2147.1672-2.7727.2113-5.5543.4313-8.327.3785-1.338-.0176-2.6671-.1056-4.0051-.0528-.3873.0176-.7746.044-1.1531.0528-.22.0088-.4401.0264-.6601-.0088-.1497-.0176-.3081-.0088-.4578-.0088-.3345 0-.6601-.0088-.9946-.0264-.6602-.0264-1.3204-.0792-1.9806-.1497-.71294-.0792-1.43473-.176-2.13892-.308-.34329-.0617-.70419-.1409-.95065-.3697-.16724-.1585-.27287-.3697-.3609-.5722-.29047-.669-.48412-1.3819-.57215-2.1037-.25526.889.0088 1.8661.59856 2.5878.55455.6778 1.40837 1.0651 2.2622 1.2236.64257.1232 1.36436.1848 2.00696.1144.1408-.0176.2816 0 .4313.0088.3345.0176.669.0352 1.0034.0528.669.0352 1.338.0616 2.007.0792s1.3291.0264 1.9981.0352c.3081 0 .6426.0353.9507-.0088.2992-.044.6337.0088.9418.0176 1.338.0441 2.6847.0793 4.0227.0705.0704-.0088.1496-.0088.2288-.0088z"/><path d="m32.8421 9.94008s-1.0826-.03521-1.1795-.03521c-.4049-.01761-.801-.04401-1.2059-.07042-.2024-.01761-.4049-.02641-.5985-.04401-.0969-.00881-.2025-.01761-.2993-.02641-.0528-.0088-.1145-.0176-.1761-.0176-.0264 0-.044.0088-.0616.0088-.0352-.0088-.0792-.01761-.1144-.02641-.1585-.04401-.3169-.07922-.4753-.12323 0-.02641-.0088-.04401-.0088-.07042 0-.0088.22-.0088.2376-.0088.0616.0088.1321.0264.1937.0176.0528-.0088.0968-.0176.1496-.0176h.2465c.3345 0 .669.0088.9946.0264.3345.01761.669.03521.9947.06162.3345.02641.669.06162.9947.10563.1144.0176.2376.02641.3521.04401.0176.07922-.0441.08802-.0441.17605z"/><path d="m9.38516 14.0508c-1.05628.1056-2.11256.2464-3.16003.4401-.07042-.0704-.09683-.1496-.07922-.2377 1.10029-.132 2.13016-.1584 3.23925-.2024z"/></g><path d="m30.1751 16.6119c.0352 2.4559-.0352 4.8765-.1937 7.2707-.0352.537-.0704 1.0827-.1232 1.6197-.132 1.6284-1.4524 2.9135-3.0808 3.028-5.2022.352-10.5188.3344-15.9322-.0088-1.65486-.1057-2.98401-1.4348-3.08964-3.0897 0-.0264-.0088-.044-.0088-.0704-.21125-4.1547-.24646-8.3798-.11443-12.6753.00881-.2025.0088-.4049.01761-.6074.03521-.8186.06161-1.6284.10562-2.44704.00881-.19365.03521-.3785.07923-.56335 0-.03521.0088-.07042.0264-.10562.34329-1.39077 1.56682-2.42064 3.05441-2.49986 5.1934-.25527 10.4484-.25527 15.7826.0088 1.6636.07922 3.028 1.38196 3.16 3.0456.1232 1.55797.2113 3.09847.2641 4.63007.0352.8274.0528 1.646.0528 2.4646z" fill="#e58b4a"/><path d="m25.7461 13.3203c-.1406.0781-.2578.125-.3516.1406-.1093 0-.1875-.0078-.2343-.0234-.0313-.0313-.0704-.0469-.1172-.0469-.0625-.0156-.1328-.0312-.211-.0468-.0625-.0157-.1093-.0391-.1406-.0704-.0937 0-.1953-.0234-.3047-.0703-.1562-.0156-.2344-.0234-.2344-.0234 0-.0156-.0078-.0235-.0234-.0235-.0625-.0156-.1406-.0156-.2344 0-.0937.0157-.1797.0235-.2578.0235-.0312 0-.0703-.0078-.1172-.0235-.0468-.0156-.1093-.0234-.1875-.0234-.125.0156-.2187.0234-.2812.0234-.0625-.0156-.125-.0234-.1875-.0234-.1719.0313-.2891.0391-.3516.0234-.0469-.0312-.0859-.0468-.1172-.0468-.125.0156-.2343.0234-.3281.0234-.0937-.0156-.1797-.0234-.2578-.0234h-.4453c-.0781.0156-.1563.0312-.2344.0468-.0625 0-.1328-.0078-.2109-.0234-.1563-.0156-.3047-.0312-.4453-.0469-.1407-.0156-.2813-.0234-.4219-.0234-.0938 0-.1875.0078-.2813.0234-.0937 0-.1953.0079-.3047.0235-.0468 0-.1015 0-.164 0s-.1172.0078-.1641.0234c-.1719.0781-.289.125-.3515.1406-.0469 0-.0938.0078-.1407.0235-.0781.0469-.125.1562-.1406.3281s-.0312.3438-.0469.5156v.4688c.0157.1718.0391.3437.0703.5156.0625.1406.1094.2109.1407.2109.0468-.0156.0859-.0234.1172-.0234.0937 0 .1484.0078.164.0234h.0938c.0312.0157.0703.0235.1172.0235.0468 0 .0937.0078.1406.0234h.3515c.0625-.0156.125-.0078.1875.0234.0782.0157.1407.0235.1875.0235.0469 0 .086-.0078.1172-.0235.0625 0 .125-.0078.1875-.0234.0782-.0156.1485-.0234.211-.0234.0781 0 .1484.0078.2109.0234.0625 0 .1406.0078.2344.0234.0781 0 .1328.0079.164.0235.0469 0 .086-.0078.1172-.0235h.1407c.0468-.0156.0937-.0234.1406-.0234.2187-.0156.3906-.039.5156-.0703.2031.0156.3203.0234.3516.0234.0468-.0156.1093-.0234.1875-.0234.1875-.0313.3359-.0391.4453-.0234.1094 0 .1953-.0157.2578-.0469.0469.0156.0937.0312.1406.0469.0469.0156.086.0234.1172.0234.0313 0 .0703-.0078.1172-.0234.0469-.0313.0937-.0469.1406-.0469s.0938.0156.1406.0469c.0469.0156.1016.0078.1641-.0235.1406.0313.2266.0547.2578.0703.0313 0 .0625-.0078.0938-.0234.0156.0469.039.0859.0703.1172.0312.0156.0625.0469.0937.0937.0625.25.0938.4297.0938.5391 0 .0937-.0156.2031-.0469.3281-.0156.2188-.0312.3516-.0469.3985-.0156.0468-.039.1015-.0703.164-.0469.125-.0703.211-.0703.2578.0156.0313.0156.0625 0 .0938-.0625.125-.0937.2109-.0937.2578-.0157.1875-.0469.3125-.0938.375 0 .0469-.0078.1016-.0234.1641-.0157.0468-.0157.1015 0 .164-.0625.1875-.0938.3125-.0938.375.0156.0469.0156.1016 0 .1641-.0625.125-.1015.2109-.1172.2578-.0156.0313-.0312.0625-.0468.0937-.0469.125-.1094.25-.1875.375-.1407.0782-.2266.1172-.2579.1172-.0468 0-.1015 0-.164 0-.0469-.0156-.1094-.0234-.1875-.0234-.2188-.0156-.3516-.0312-.3985-.0469-.0468-.0312-.1015-.0469-.164-.0469-.1875.0313-.3047.0391-.3516.0235s-.0859-.0235-.1172-.0235c-.1406 0-.2343-.0078-.2812-.0234-.0313-.0156-.0625-.0312-.0938-.0469-.1718 0-.2968.0079-.375.0235-.0781 0-.1562-.0156-.2343-.0469-.1875.0156-.3282-.0078-.4219-.0703-.0781.0312-.1563.039-.2344.0234-.0625-.0312-.1172-.0625-.1641-.0937-.125 0-.25 0-.375 0-.1093-.0157-.2187-.0235-.3281-.0235-.1875-.0312-.3125-.039-.375-.0234-.0469.0156-.0859.0234-.1172.0234-.0468.0157-.0937.0235-.1406.0235-.0469-.0157-.0937-.0235-.1406-.0235-.0469.0157-.0938.0313-.1406.0469-.0313 0-.0704-.0078-.1172-.0234 0 .0625-.0078.125-.0235.1875 0 .0625.0078.125.0235.1875.0781.1875.1093.3203.0937.3984-.0156.0625-.0234.125-.0234.1875.0156.0625.0234.1563.0234.2813v.2578.1406c.0156.0313.0235.0703.0235.1172s-.0079.0937-.0235.1406v.1172c.0625.0313.1094.0469.1406.0469.0469-.0156.1094-.0156.1875 0h.1407c.0625-.0156.1328-.0313.2109-.0469h.1406c.0469-.0156.086-.0234.1172-.0234.0781 0 .1406.0078.1875.0234.0625.0156.1172.0234.1641.0234h.1172c.0468-.0156.0937-.0312.1406-.0468.1094-.0157.1797-.0157.2109 0 .0469 0 .0938.0078.1407.0234.1562-.0156.2421-.0234.2578-.0234h.1875c.0937 0 .1797.0078.2578.0234.1562.0313.2422.0469.2578.0469.1719-.0313.2656-.0391.2812-.0235h.0704c.1875-.0312.3046-.039.3515-.0234h.1172.6563c.125-.0156.2421-.0234.3515-.0234.125-.0157.2344-.0391.3281-.0703l.375-.0469c.0469.0156.1016.0156.1641 0 .0781-.0157.1328-.0313.1641-.0469.1875-.0156.3047-.0391.3515-.0703.0625-.0313.1172-.0469.1641-.0469.0469-.0156.0859-.0234.1172-.0234.0469 0 .1015-.0078.164-.0235.1407-.0312.2344-.0703.2813-.1171.0625-.0469.1328-.0313.2109.0468.125.0625.1797.125.1641.1875-.0156.0469-.0156.0781 0 .0938l.1172.2578c.0312.1094.0469.1797.0469.2109.0156.0156.0312.0547.0468.1172v.9141l-.0468.4219c.0312.1406.039.2812.0234.4218v.375c.0156.2344.0391.4141.0703.5391-.0156.1719-.0234.3203-.0234.4453.0156.1094.0312.2031.0468.2812.0157.0938.0235.1719.0235.2344.0156.0469.0078.1328-.0235.2578-.0468.1094-.0781.1875-.0937.2344s-.0469.086-.0938.1172c-.0312.125-.0937.2031-.1875.2344-.0937.0312-.2265.0547-.3984.0703-.0937 0-.1875.0078-.2812.0234-.0782.0157-.1563.0157-.2344 0-.0625 0-.125-.0078-.1875-.0234s-.1328-.0235-.211-.0235h-.3515c-.1094-.0312-.1875-.0468-.2344-.0468-.0312.0156-.0625.0156-.0937 0-.1875-.0156-.3047-.0313-.3516-.0469s-.0859-.0313-.1172-.0469c-.1094-.0156-.2109-.0156-.3047 0-.0937.0156-.1875.0235-.2812.0235-.1719 0-.2578 0-.2578 0 0 .0156-.0079.0234-.0235.0234-.1562.0156-.2578.0156-.3047 0-.0468-.0156-.0937-.0234-.1406-.0234s-.1016 0-.1641 0c-.0468.0156-.0937.0234-.1406.0234s-.0937-.0078-.1406-.0234c-.0469-.0157-.0938-.0235-.1406-.0235-.0469-.0156-.1016-.0234-.1641-.0234-.0469.0156-.1016.0234-.1641.0234-.1406-.0156-.2187-.0234-.2343-.0234-.0157.0156-.0391.0234-.0703.0234-.2344.0156-.3985.0235-.4922.0235-.0782.0156-.1641.0156-.2578 0-.125 0-.2032 0-.2344 0-.0156.0156-.0391.0312-.0703.0468-.1407.0157-.2344.0157-.2813 0-.0312-.0156-.0625-.0234-.0937-.0234-.1719-.0156-.2657-.0156-.2813 0 0 .0156-.0234.0234-.0703.0234-.2031 0-.3359-.0078-.3984-.0234-.0469 0-.1094.0078-.1875.0234h-.6797c-.0938-.0156-.1875-.0312-.2813-.0468-.0937 0-.1953-.0079-.3047-.0235h-.8906c-.1875 0-.289 0-.3047 0-.0156.0156-.039.0235-.0703.0235h-.4453c-.1719.0312-.2656.039-.2812.0234-.0157 0-.0313 0-.0469 0-.0781 0-.1485 0-.211 0-.0468.0156-.1093.0234-.1875.0234-.1562 0-.3046 0-.4453 0-.125 0-.2656-.0078-.4218-.0234-.0625 0-.125-.0078-.1875-.0234-.0469 0-.1016.0078-.1641.0234-.2813.0156-.4531-.0313-.5156-.1406-.0782-.1875-.1172-.3125-.1172-.375-.0469-.25-.086-.375-.1172-.375l.0234-.375.0235-.3047c0-.1406 0-.2188 0-.2344.0156-.0156.0234-.039.0234-.0703 0-.1406.0078-.2344.0234-.2813.0157-.0468.0235-.0937.0235-.1406 0-.1406.0078-.2344.0234-.2812.0156-.0625.0235-.1328.0235-.211 0-.1875.0078-.2968.0234-.3281.0156-.0469.0156-.1094 0-.1875.0312-.1406.0469-.2344.0469-.2812 0-.0625.0078-.125.0234-.1875.0469-.1719.0781-.2657.0938-.2813.0156-.125.0156-.25 0-.375 0-.125 0-.25 0-.375 0-.0469.0078-.0937.0234-.1406s.0234-.0938.0234-.1406c0-.0625-.0078-.1172-.0234-.1641 0-.0625.0078-.1172.0234-.1641.0313-.1875.0391-.2968.0235-.3281 0-.0312 0-.0625 0-.0937.0156-.1094.0234-.1875.0234-.2344.0156-.0625.0234-.1094.0234-.1406.0157-.1719.0235-.2578.0235-.2578.0156 0 .0234-.0079.0234-.0235-.0156-.1875-.0234-.3203-.0234-.3984.0156-.0781.0234-.1563.0234-.2344 0-.0469 0-.0937 0-.1406 0-.0625-.0078-.1094-.0234-.1407 0-.0937-.0078-.1718-.0235-.2343 0-.0625 0-.125 0-.1875-.0156-.1563-.0234-.2656-.0234-.3282 0-.0624 0-.1171 0-.164.0156-.0625.0078-.1172-.0234-.1641.0312-.0781.0468-.1562.0468-.2343 0-.0938 0-.1797 0-.2579 0-.0781-.0078-.1484-.0234-.2109-.0156-.0781-.0234-.1641-.0234-.2578 0-.1094-.0078-.1797-.0235-.211 0-.0312 0-.0624 0-.0937-.0312-.2344-.0312-.4766 0-.7266 0-.0781-.0078-.1484-.0234-.2109 0-.0781 0-.1562 0-.2344 0-.125-.0078-.2422-.0234-.3515 0-.125 0-.2422 0-.3516 0-.2344 0-.3828 0-.4453.0156-.0625.0078-.125-.0235-.1875.0313-.0938.0391-.1875.0235-.2813-.0157-.0937-.0235-.1796-.0235-.2578-.0156-.2031-.0156-.3594 0-.4687-.0156-.0469-.0234-.0938-.0234-.1407.0156-.0468.0234-.0859.0234-.1171 0-.0625-.0078-.125-.0234-.1875 0-.0625.0156-.1172.0469-.1641-.0313-.2031-.0547-.3437-.0704-.4219 0-.0937-.0078-.1797-.0234-.2578-.0156-.1562-.0391-.2734-.0703-.3516-.0313-.0781-.0313-.1718 0-.2812l-.0703-.3281c.0156-.2031.0156-.3203 0-.3516-.0313-.2187-.0469-.35936-.0469-.42186.0313-.23438.0391-.38282.0234-.44532 0-.0625.0313-.11718.0938-.16406.0312-.09375.0547-.14844.0703-.16406.0313-.03125.0625-.0625.0938-.09375.0625-.07813.1171-.14063.164-.1875.0625-.04687.1094-.07813.1406-.09375.125-.04688.2422-.07031.3516-.07031.1563-.03125.2734-.04688.3516-.04688h.3984c.1719-.01562.2813-.01562.3281 0 .0469.01563.086.03125.1172.04688h.5625c.2656-.03125.4922-.03907.6797-.02344.1875 0 .375.00781.5625.02344.0469 0 .0938.00781.1406.02343h.1407.2343c.0157-.01562.0313-.02343.0469-.02343.1875.04687.3203.07031.3984.07031.0938-.01562.1797-.01562.2579 0 .0781 0 .1562.00781.2343.02344h.2578c.0782.01562.1875.02344.3282.02344.1406 0 .25-.00782.3281-.02344.1406 0 .2187.00781.2344.02344h.0468.1641c.0469-.01563.0938-.02344.1406-.02344.1407-.01563.2969-.01563.4688 0h.6094l.539-.02344c.0781-.03125.1406-.03906.1875-.02344h.1641.539c.1407-.01562.2735-.02344.3985-.02344h.2109c.0156-.01562.0313-.02343.0469-.02343l.2578.04687c.1719.01563.2813.01563.3281 0 .0625-.01562.1094 0 .1407.04688.0468-.03125.1171-.04688.2109-.04688.1094 0 .1797.01563.2109.04688l.3516-.02344c.1406-.01562.2344-.03125.2812-.04688l.2813-.02343c.125-.01563.2109-.01563.2578 0 .0469.01562.1016.03125.1641.04687.0625.01563.1172.01563.164 0 .0625-.01562.1172-.01562.1641 0 .2031.09375.3203.14844.3516.16406.1406.125.2343.21876.2812.28126s.0625.15624.0469.28124c-.0313.14063-.0391.24219-.0235.30469.0157.04688.0235.09375.0235.14063-.0625.21876-.1016.35156-.1172.39846-.0625.1562-.1016.2578-.1172.3047 0 .0312.0078.0625.0234.0937-.0625.1719-.0937.2813-.0937.3281.0156.0469.0156.0938 0 .1407 0 .0468-.0078.0937-.0234.1406 0 .0312-.0079.0703-.0235.1172l-.0469.2578-.1406.9844c-.0156.0781-.0234.1562-.0234.2343 0 .0625-.0156.1328-.0469.211z" fill="#693821"/></svg>