<svg fill="none" height="373" viewBox="0 0 297 373" width="297" xmlns="http://www.w3.org/2000/svg" xmlns:xlink="http://www.w3.org/1999/xlink"><linearGradient id="a"><stop offset="0" stop-color="#cf5c2b"/><stop offset="1" stop-color="#59173e"/></linearGradient><linearGradient id="b" gradientUnits="userSpaceOnUse" x1="222.268" x2="73.6516" xlink:href="#a" y1="-184.627" y2="72.6096"/><linearGradient id="c" gradientUnits="userSpaceOnUse" x1="215.211" x2="-203.166" xlink:href="#a" y1="-66.6524" y2="484.168"/><linearGradient id="d" gradientUnits="userSpaceOnUse" x1="202.195" x2="-216.182" xlink:href="#a" y1="-23.1685" y2="527.653"/><linearGradient id="e" gradientUnits="userSpaceOnUse" x1="250.734" x2="-110.01" xlink:href="#a" y1="-243.465" y2="322.009"/><linearGradient id="f" gradientUnits="userSpaceOnUse" x1="219.214" x2="-141.531" xlink:href="#a" y1="-101.386" y2="464.088"/><linearGradient id="g" gradientUnits="userSpaceOnUse" x1="289.569" x2="-67.9773" xlink:href="#a" y1="-413.587" y2="123.944"/><path d="m296.991 343.553c-.075-2.511-.138-5-.214-7.51-.113-4.163-.226-8.326-.339-12.467-.025-1.008-.051-1.995-.076-3.004-.1-3.819.189-7.767-.969-11.243-.314-.923-.792-1.867-1.409-1.846.78-.45 1.208-1.888 1.409-3.24.277-1.909.416-4.377.428-6.351.013-1.781-.075-3.605-.113-5.386-.038-2.06-.088-4.098-.126-6.158-.088-4.12-.163-8.218-.239-12.338-.075-4.098-.151-8.196-.214-12.295-.012-.751-.025-1.502-.038-2.253-.037-2.102-.062-4.184-.062-6.287 0-1.609-.277-3.132-.894-4.377-.541-1.094-1.396-1.845-2.227-1.609.667-.258 1.334-.73 1.825-1.545 1.296-2.21 1.069-5.557 1.044-8.39-.05-4.055-.088-8.132-.138-12.187-.038-4.056-.076-8.09-.101-12.145-.025-4.034-.05-8.068-.076-12.102-.025-4.012-.037-8.046-.05-12.059-.012-4.012-.025-8.025-.025-12.016 0-6.265.013-12.531.075-18.818.026-2.489.189-4.699-.817-6.673-.151-.3-.315-.558-.491-.794-.076-.107-.453-.665-.554-.6.705-.408 1.271-1.374 1.573-2.511.151-.558.252-1.18.264-1.824.038-1.523.063-3.068.076-4.613.038-5 .088-10.214.163-15.299.038-2.704.088-5.407.139-8.111.05-2.467-.579-4.613-1.246-6.78.604-.343 1.019-1.33 1.183-2.36.163-1.009.075-1.953.1-2.983.101-3.862.139-7.746.214-11.6297.038-1.9526.063-3.9052.101-5.8578.013-.472 0-.9441.038-1.4161.025-.279.088-.5365.088-.8369-.025-.9226-.214-1.9526-.428-2.7894-.264-1.0299-.692-1.974-1.283-2.4461.075-.3219.289-.4506.465-.5793.793-.5794 1.346-1.9956 1.397-3.4546.012-.3648-.025-.7081-.038-1.0514-.025-1.1587.05-2.3603.088-3.519.025-1.2445.05-2.489.088-3.7335.126-5.1712.252-10.3423.39-15.5135.277-10.1492.592-20.3199.944-30.4691.226-6.3942-2.579-11.9516-6.329-12.46654-93.493-13.00299-187.199-12.65968-281.10754.06437-.45293.06438-.89328.19312-1.33364.40767-1.17007.5579-2.17659 1.7595-3.17053 2.9182-.52842.6222-.90586 1.7809-1.27073 2.6607-.44035 1.0514-.86812 2.1457-1.28331 3.24-1.24556 3.3473-2.5162903 6.9521-2.41563851 11.0718.13839651 5.0639.26421051 10.1278.37744451 15.1917.062907 2.5963.125814 5.214.17614 7.8103.025163 1.3733.062908 2.7465.088071 4.1198.025163 1.0085-.012582 2.0599.075488 3.0684.075489.8797-.037744 1.8453-.050325 2.7465 0 1.0514.037744 2.1242.113233 3.1756.050326.5579.113233 1.1372.276797 1.6522.52842 1.6093 1.84947 1.781 2.69243 2.9396-.8178.1932-1.62301.5794-2.3779 1.1373-.11323.0858-.22646.1716-.28937.3433-.100654.2146-.100654.5149-.100654.7939.012582 2.768.012582 5.5359.025164 8.3039 0 1.1587-.088071 2.4246.11323 3.5404.18872 1.1158.10065 2.489.12582 3.6477.08807 5.4072.16356 10.8144.23905 16.2216.05032 3.326.08807 6.63.12581 9.956.01258 1.566.06291 3.133.06291 4.699 0 .258-.02517.408-.06291.665-.18872 1.138.05033 2.361.40261 3.326.76747 2.06 2.13885 3.433 3.57314 3.562-.69198.429-1.38397.837-2.07595 1.266-.47809.3-.99393.622-1.25814 1.373-.15098.408-.20131.901-.23905 1.395-.54101 6.459-.31454 13.024-.16356 19.526.15098 6.48.15098 12.96.17614 19.44.01258 5.45.02516 10.922.02516 16.372 0 5.471 0 10.943-.01258 16.414-.01258 3.927-.06291 7.875-.03774 11.802 0 .601.07548 1.094 0 1.674-.21389 1.502-.25163 3.068.07548 4.527.37745 1.695 1.27073 3.111 2.32758 3.39-.66682.279-1.39655.622-1.79915 1.567-.2768.643-.35228 1.459-.40261 2.253-.08807 1.33-.12582 2.66-.1384 4.012 0 1.137.1384 2.382-.01258 3.498-.31454 2.317-.21388 4.763-.22646 7.123-.02517 3.176-.06291 6.373-.08808 9.549-.05032 5.514-.11323 11.029-.18872 16.522-.0629 5.514-.15097 11.029-.22646 16.565 0 1.223-.03775 2.467-.05033 3.712-.01258.965.07549 2.145-.05033 3.068-.05032.386-.13839.729-.17614 1.137-.088067.987-.125811 2.039.10066 2.983.26421 1.094.89328 1.931 1.58526 2.103-.62907-.237-1.18266.836-1.30847 1.909-.11324.944-.05033 1.931-.17614 2.875-.05033.387-.07549.794-.11324 1.202-.0629.794-.11323 1.566-.163555 2.36-.08807 1.588-.125815 3.176-.125815 4.742 0 .279 0 .558.075489.794.062907.236.176141.408.301951.558.8178 1.116 1.78657 1.91 2.80567 2.317-.80521.451-1.61043.902-2.41564 1.352-.18872.108-.39003.215-.52842.451-.264213.429-.289376 1.137-.289376 1.759-.012581 1.374-.012581 2.768-.025163 4.142 0 .493-.100651.944-.113233 1.437-.025163.687-.025163 1.395-.037744 2.082-.062908 2.768-.113234 5.535-.176141 8.303 0 .194-.012581.387-.012581.58-.125815 5.557-.25163 11.115-.3900261 16.672-.1509779 6.351 2.6672741 11.801 6.3788041 12.273 95.01484 11.995 188.73484 12.102 281.13284.043 1.51-.193 2.969-1.266 4.089-3.004.239-.364.541-.708.755-1.115 1.371-2.532 3.045-6.502 3.8-9.742.44-2.189.868-4.227.792-6.587z" fill="url(#b)"/><path d="m290.638 355.912c-92.399 12.08-186.118 11.973-281.1334-.022-3.72411-.472-6.54236-5.922-6.39139-12.273.03775-1.416.05033-2.832.06291-4.248.02516-1.159-.05032-2.425.07549-3.562.05033-.408.16356-.751.2013-1.159.03775-.386.06291-.794.07549-1.202.06291-.987.10065-1.952.15098-2.939.15098-2.768.31454-5.536.46551-8.304.01259-.258.02517-.515.03775-.751.02516-.429.06291-.901.21388-1.245.1384-.322.35229-.472.57875-.6 2.64211-1.781 5.57363-2.897 8.42963-2.854 3.1202.021 6.0642-.58 9.1467-1.331 1.2456-.3 2.4911-.579 3.7241-.879h-1.2581c-2.7806-.022-5.5862-.193-8.3541-.58-1.5979-.214-3.1957-.493-4.7936-.837-.8304-.15-4.76836-.386-6.643-1.544-.60391-.365-1.00652-.816-1.0191-1.417-.05032-2.188-.05032-4.377.02516-6.587.02517-.815-.10065-2.575.12582-3.283.31454-.944.15098-.45.76747-.88.62907-.45 1.14491-.987 1.83689-1.223.70457-.236 1.42171-.343 2.15144-.472 2.56662-.45 5.13322-.879 7.71242-1.309-.6542-.064-1.3085-.128-1.9627-.214-3.007-.301-6.02652-.622-9.02091-.944-.47809-.065-.95619-.108-1.43428-.15-.20131-.022-.42777-.086-.51585-.365-.03774-.129-.03774-.322-.03774-.472.08807-3.348.18872-6.716.27679-10.064.21389-8.239.42777-16.5.52842-24.761.03775-1.137.05033-2.253.06291-3.369.07549-7.038-.18872-14.183.3397-21.157.05033-.643.3397-7.66.32712-7.66 9.33544-1.158 18.70864-1.738 28.08184-1.716.7423 0 1.4972 0 2.2395.021-.239-.043-.4907-.086-.7423-.107l-.0126-.022c-3.6864-.6-7.3853-1.266-11.0465-1.952-1.9753-.365-3.9506-.751-5.9007-1.245-1.5979-.386-3.1706-1.03-4.7558-1.48-.5033-.15-.9814-.065-1.4846-.022-1.4721.065-3.05733-.944-4.49162-1.459-.11323-.043-.21388-.086-.3397-.129-.27679-.107-.55358-.3-.78005-.579-.50326-.665-.66682-1.781-.71714-2.897-.02517-.364-.02517-.751-.02517-1.115 0-2.94-.17614-5.772-.27679-8.69-.11323-3.391.02516-6.781.02516-10.15.02517-8.196.02517-16.393.01259-24.59 0-1.909-.01259-3.819-.01259-5.707-.01258-6.287-.03774-12.553-.0629-18.818-.01258-2.167.11323-4.377-.25163-6.459-.37745-2.081-.11324-4.849.03774-6.995.03775-.536.08807-1.072.28938-1.502.18872-.343.46551-.557.72972-.686 2.07594-1.159 4.3029-1.03 6.4795-1.18 2.1262-.129 4.2651-.58 6.3536-1.288.2894-.086.5913-.171.8807-.3-3.3844-.537-6.7814-1.052-10.06517-2.532-1.03168-.472-2.10111-1.052-2.96923-2.081-.17614-.172-.3397-.387-.4781-.601-.80521-1.137-1.39654-2.811-1.40912-4.592-.01258-.215.01258-.408.03774-.601.01259-.172.03775-.365.06291-.579.17614-1.137.05033-2.425.03775-3.605l-.07549-5.6c-.03775-3.412-.06291-6.824-.11324-10.2568-.05032-3.3473-.0629-6.6517-.3397-9.9775-.15097-1.6522-.07549-3.3473-.12581-4.9995-.06291-2.0384-.03775-4.0769.11323-6.1153.06291-1.0943.18872-2.2315.4781-3.24 0 0 0-.0215.01258-.0215.31454-1.0299.83038-1.9955 1.5601-1.9526 1.08201.1073 2.1766-.2789 3.2586-.4506 2.40305-.4076 4.81875-.751 7.24695-1.0084 4.9445-.5579 9.9142-.8369 14.8839-.9871 2.4156-.0643 4.8438-.0858 7.2595-.1073h.3523c2.1765-.0214 4.3783-.1287 6.5549.0429-4.6677-.4076-9.3355-.9441-14.0032-1.6307-2.4156-.3648-4.8438-.7724-7.2595-1.2016-4.1267-.751-8.417-.6652-12.4556-1.3303-2.25213-.3862-4.52938-.6008-6.78146-.6652-.12581-.0214-.25163-.0214-.37744-.0214-.15098-.0215-.31454-.0215-.41519-.1932-.10065-.1287-.12582-.3647-.15098-.5793-.36486-4.1841-.64165-8.497-.70456-12.6811-.06291-3.4546-.11323-6.9307-.2013-10.3853-.11324-6.0938-.25163-12.1661-.41519-18.26-.16356-6.3513 2.64211-11.8014 6.34106-12.29487 93.90856-12.72406 187.61456-13.04591 281.12056-.04292 3.737.51499 6.542 6.07239 6.316 12.46659-.302 8.4326-.566 16.8653-.805 25.2979-.101 3.6692-.202 7.3598-.302 11.0504-.063 2.2101-.101 4.4631-.164 6.6946-.038 1.1587-.063 2.1672-.264 3.2615-.352 1.9311-.277 4.0339-.554 6.008-.1.6222-.214 1.2874-.49 1.738-.277.4291-.655.6008-1.02.751-.037.0214-.062.0214-.1.0429-4.24 1.7166-8.556 2.8109-12.909 3.3259-.805.1072-1.598.1501-2.403.2145 5.02.8368 10.053 1.6951 15.073 2.532.465.0858.969.1931 1.296.751.251.4291.352 1.0514.44 1.6307.088.6008.151 1.2016.201 1.8024.202 2.1028.202 4.2056.202 6.3728-.151 4.0339-.365 7.9824-.856 11.9514-.226 1.888-.931 2.017-1.698 1.803-.479-.151-1.007-.451-1.422-.558-1.183-.279-2.378-.494-3.586-.644-2.39-.343-4.806-.408-7.209-.429-1.56 0-3.133.043-4.693.086-6.517.15-13.034.321-19.539.45.076.043.176.065.252.108 7.309 2.682 14.959 1.244 22.395 2.896 2.994.665 5.988 1.824 9.008 1.524 1.12-.108 2.277-.451 3.372.086.994.45 1.573 1.695 2.101 3.089.566 1.502.742 3.412.818 5.3.063 1.073.063 2.167.1 3.154.202 6.008-.063 11.995-.276 17.981-.051 1.052-.076 2.125-.114 3.176-.025.773-.063 1.588-.365 2.167-.213.387-.528.58-.842.73-.013 0-.038.021-.051.021-.654.301-1.396.537-2.076.451-.226-.022-.427-.107-.641-.107-.818.128-1.661.6-2.492.815-.805.193-1.61.322-2.428.343.327.129.642.258.969.386 2.24.88 4.479 1.781 6.719 2.661.289.107.603.258.817.58.881 1.394.667 6.136.755 7.96.164 3.476.239 6.974.264 10.471.026 1.674.026 3.326.026 4.978 0 2.897-.026 5.772-.051 8.669-.012 2.017-.025 4.034-.037 6.051-.038 8.432-.101 16.865-.139 25.298-.025 3.755-.038 7.51-.038 11.265 0 4.034.315 10.943-.905 14.548-.34 1.029-.944 1.63-1.636 1.974-.604.321-1.271.429-1.887.515-10.179 1.137-20.345 2.317-30.523 3.476-.05 0-.101.021-.151.021h-.05c-.038.022-.063.022-.088.022.214 0 .44.021.654.021 11.474.386 22.949 1.545 34.36 3.433.541.107.704 2.103.793 2.747.264 2.038.39 4.141.478 6.222.025.344.05.73.063 1.073.302 6.673.377 13.368.427 20.041v.343c.013.644.025 1.266.038 1.91.013.751.025 1.481.038 2.189.038 3.862.176 8.11-.063 11.908-.076 1.18-.214 2.361-.453 3.498-.101.515-.201 1.201-.403 1.609-.553 1.159-1.296 1.824-2.101 2.275-.277.171-.566.321-.843.429-1.887.858-3.799 1.545-5.737 2.081.201.064.378.107.579.193 2.026.622 4.064 1.288 6.102 1.974.73.236 1.497.601 2.101 1.416.315.429.566.987.742 1.588.227.773.353 1.567.453 2.403.025.301.051.58.063.859.201 2.811-.063 5.578.113 8.368.101 1.438.164 2.854.202 4.291.075 2.768.151 5.558.226 8.326.063 2.489.139 4.978.201 7.488.24 6.416-2.591 11.909-6.315 12.381z" fill="url(#c)"/><path d="m295.821 58.4738c-.063 2.2101-.101 4.4631-.164 6.6946-.038 1.1587-.063 2.1672-.264 3.2615-.352 1.9311-.277 4.0339-.554 6.008-.1.6222-.213 1.2874-.49 1.738-.277.4291-.655.6008-1.019.751-.038.0215-.063.0215-.101.0429-4.24 1.7166-8.555 2.8109-12.909 3.3259-.805.1073-1.597.1502-2.403.2145 5.02.8369 10.053 1.6952 15.073 2.532.465.0858.969.1931 1.296.751.251.4291.352 1.0514.44 1.6307.088.6008.151 1.2016.201 1.8024-6.542-.7295-13.097-1.0514-19.79-1.1372-47.873-.6008-95.682 4.0125-143.253 13.1746-23.779 4.5703-47.5201 9.3763-71.3745 12.6383-18.3438 2.51-37.1909 6.115-55.7737 5.879.01258-.171.03774-.365.06291-.579.17614-1.137.05032-2.425.03774-3.605l-.07549-5.6c7.64954-1.159 15.29904-1.846 22.99894-2.811 13.5628-1.717 27.1005-3.712 40.6381-6.051 48.25-8.3254 96.185-19.8907 144.674-23.9032 3.536-.2789 7.071-.5579 10.619-.7939-9.046-.8583-18.105-1.6951-27.151-2.3388-12.128-.8798-24.307-2.017-36.448-1.8668-12.657.1931-25.276 1.7595-37.921 2.3388-25.1249 1.1587-50.2124 3.6263-75.3628 4.1841-12.443.279-25.339 1.5664-37.64372-1.9955-1.45945-.4291-2.9189-.8797-4.37835-1.3732.31453-1.03.83037-1.9955 1.5601-1.9526 1.08201.1073 2.17659-.2789 3.2586-.4506 2.40307-.4077 4.81867-.751 7.24697-1.0085 4.9445-.5579 9.9142-.8368 14.8838-.987 2.4157-.0644 4.8439-.0858 7.2596-.1073h.3522c2.1766-.0215 4.3784-.1287 6.555.0429-4.6678-.4077-9.3355-.9441-14.0032-1.6307-2.4156-.3648-4.8439-.7725-7.2595-1.2016-4.1267-.751-8.417-.6652-12.4557-1.3304-2.25205-.3862-4.5293-.6008-6.78138-.6651-.12582-.0215-.25163-.0215-.37745-.0215-.15097-.0214-.31453-.0214-.41518-.1931-.10066-.1287-.12582-.3648-.15098-.5793-.36486-4.1842-.64166-8.497-.70456-12.6812-.06291-3.4546-.11324-6.9306-.20131-10.3852 4.29028-.9441 8.60576-1.7166 12.93376-2.0599 14.2045-1.1372 28.4719-.8797 42.6889-2.0599 24.622-2.0169 49.5832-5.1926 74.2312-2.6607 24.458 2.5105 48.816 7.6388 73.199 11.5225 25.452 4.0554 50.929 7.746 76.394 11.5439 4.265.6223 8.543 1.2874 12.821 1.9526zm-1.045 194.5942c-.088-.644-.251-2.661-.792-2.746-11.424-1.889-22.886-3.047-34.36-3.433-.214 0-.44-.022-.654-.022.037 0 .063 0 .088-.021h.05c.05 0 .101-.022.151-.022 10.178-1.159 20.344-2.339 30.523-3.476.616-.086 1.283-.193 1.887-.515.692-.343 1.283-.944 1.635-1.974 1.221-3.605.906-10.514.906-14.548 0-3.755.013-7.51.038-11.265-46.878-2.424-93.732-5.965-140.485-11.587 1.988-.815 3.989-1.63 5.977-2.424 17.777-7.017 35.668-10.815 53.886-12.338 26.95-2.21 54.037-.172 80.798-5.021.025-2.897.051-5.772.051-8.669-27.68 1.502-55.409-.407-83.076 1.052-17.438.944-34.687 4.098-51.81 9.806-12.834 4.27-25.579 9.484-38.462 13.281-16.356-2.317-32.7118-4.913-49.0677-7.853-12.3676-2.21-24.7226-4.656-37.0525-7.36-.6542-.128-1.3084-.236-1.9627-.364 7.0834-3.09 14.2926-5.408 21.464-7.274 19.5894-5.193 39.5058-7.51 59.2459-10.493 42.337-6.351 84.762-11.415 127.186-15.878 17.816-1.888 35.593-3.498 52.994-9.57.201-5.986.478-11.973.276-17.981-.037-1.008-.05-2.081-.1-3.154-15.312-3.39-30.8-3.09-46.35-1.974-21.603 1.566-43.193 3.39-64.77 5.965-42.525 5.085-85.3778 9.741-127.6264 19.74-17.4127 4.12-34.1964 10.922-50.17487 22.444 0 1.91.01258 3.82.01258 5.708.01259 8.197.01259 16.393-.01258 24.59 0 3.369-.13839 6.759-.02516 10.149.10065 2.918.27679 5.751.27679 8.69 0 .365 0 .751.02517 1.116 3.95058 1.717 8.03957 2.832 11.92727 4.206 11.0717 3.948 22.2063 6.673 33.4164 9.269 22.8102 5.257 45.6581 9.87 68.5688 13.668 45.08 7.489 90.436 11.201 135.691 14.183 13.4.859 26.811 1.631 40.223 2.296-.125-2.06-.251-4.162-.516-6.201zm.944 58.771c-.176-.601-.428-1.159-.742-1.588-.604-.815-1.372-1.18-2.101-1.416-2.038-.665-4.077-1.33-6.102-1.974-.202-.086-.378-.129-.579-.193 1.937-.536 3.85-1.223 5.737-2.081.277-.108.566-.258.843-.43.805-.45 1.56-1.115 2.101-2.274.201-.408.302-1.094.403-1.609.226-1.137.365-2.318.453-3.498.239-3.819.1-8.046.063-11.908-.013-.73-.026-1.46-.038-2.189-37.342 2.339-74.621 3.648-111.988.493-41.015-3.454-82.031-10.084-122.9208-16.414-11.6882-1.803-23.3387-3.863-35.0269-5.279-6.7688-.815-14.0409-2.06-21.17457-1.995-.10065 8.239-.31454 16.522-.52842 24.761 5.00742 2.296 10.16579 3.905 14.92159 5.257 10.5181 2.983 21.0237 5.343 31.6299 7.103 20.7468 3.497 41.5188 6.351 62.3032 9.355 11.852 1.738 23.716 3.39 35.568 4.935-8.631 1.266-17.262 2.425-25.93 3.24-22.282 2.146-44.5388 5.557-66.8457 7.381-17.2492 1.438-34.423.73-51.62183-.021-.01258.236-.02516.493-.03774.751-.15098 2.768-.31454 5.536-.46552 8.304-.05032.987-.08807 1.952-.15098 2.939 16.43137 4.893 33.44157 4.656 50.04907 3.412 22.3321-1.674 44.463-5.579 66.5687-11.008 23.301-5.75 47.193-7.767 70.708-10.213.428-.043.868-.086 1.283-.107 15.362 1.244 30.737 1.974 46.149 1.952 19.325-.043 38.625-.815 57.875-3.283-.038-.837-.164-1.652-.403-2.403z" fill="url(#d)"/><path d="m66.5241 336.042c-1.6733 1.416-3.1957 2.038-4.7306 1.91.4278.515.8178 1.094 1.1072 1.974.5284 1.609.5787 3.54 0 5.128-1.1827 3.218-3.6612 3.004-5.561 2.038-1.8621-.944-3.4096-4.72-3.3593-8.003.0377-2.446 1.1323-4.141 2.5289-4.399-1.2204-1.33-2.3905-2.918-3.3844-4.592-2.7176-4.57-4.6426-12.574-3.3593-18.882.5913-2.918 2.6295-5.6 4.5922-4.334 2.3905 1.545 4.4916 3.841 6.6682 6.179.5788.623 1.1449 1.266 1.7614 1.803.302.257 1.4343 1.051.5914.472 2.3653 1.652 3.9757 3.411 5.2464 7.209 1.5098 4.442.8178 11.051-2.1011 13.497zm-20.5078-38.044c-.1132-.3-.2139-.6-.3019-.922-.3523-1.009-.843-1.803-1.4469-2.403-.6291-.601-1.3085-.902-2.0382-.923-.8178.15-1.2456.257-1.9124.772-.6165.387-.9939.923-1.4091 1.846-.7046 1.588-.8933 4.034-.5662 5.858.2517 1.416.7423 2.574 1.4469 3.476.6668.858 1.5727 1.544 2.4408 1.437.541-.064 1.0946-.15 1.6356-.386 2.1514-.944 3.4222-5.557 2.1514-8.755zm199.8697-45.274c-.541-3.304-2.454-5.665-4.505-5.686-.717-.022-1.333-.343-2.138-.343-1.284 0-2.391.901-3.536 1.695-1.874 1.309-3.611 3.025-4.579 6.136-.919 2.961-.718 7.103.868 9.313-.239.407-.478.794-.755 1.201-1.158 1.653-.277 5.579 1.308 5.279.541-.107 1.082.15 1.623.171.768.022 1.472-.236 2.189-.643.579-.344 1.196-.623 1.749-1.052.415-.322.73-.686 1.007-1.287.088-.193.729-1.802.327-1.137.189-.322.314-.708.365-1.095 1.333-.622 2.352-1.545 3.296-3.004.214-.257.415-.515.629-.772 1.699-2.103 2.743-5.214 2.152-8.776zm-5.977-15.363c-.402-.172-.88-.472-1.295-.386-.453.107-.932.622-1.347.965-.465.365-.629 1.438-.427 2.189.213.815.717 1.201 1.245 1.008.403-.15.919-.193 1.283-.558.34-.322.579-1.008.818-1.502.277-.579.227-1.502-.277-1.716zm9.889-20.878c-.113-.472-.239-.944-.352-1.416-2.642-3.09-4.768-3.412-6.366-.966-.327.515-.629 1.095-.843 1.738-.931 2.725-.516 6.738 1.246 8.283.918.815 1.975 1.158 2.994.643.528-.257 1.044-.708 1.56-1.072.264-.322.516-.666.78-.987.378-.58.642-1.266.793-2.06.302-1.202.503-2.897.188-4.163zm-10.518-129.4077c-.188-1.3733-.377-2.6607-.906-3.7979-.578-1.2445-1.409-1.9955-2.201-2.8109-.655-.6652-1.284-1.3947-2.026-1.7809-.767-.4292-1.661-.4292-2.466-.4935-1.396-.1288-2.302 1.3732-2.629 3.2614-2.013-3.0898-5.108-4.8707-7.537-5.7505-2.617-.9655-9.172-.5364-8.643 6.5015.428 5.536 2.843 8.8403 5.586 11.6727 2.655 2.7465 4.982 4.8493 7.738 4.3129 2.264.4506 5.032 1.0084 6.114-3.283.302-1.1801.352-2.2959.264-3.3687.554.6866 1.108 1.3947 1.8 1.6951.956.4291 1.937.0214 2.893-.2146 1.573-.4077 2.328-3.6692 2.013-5.9436zm-31.541 3.6477c-.579-.9441-1.133-1.9741-1.8-2.7465-.817-.9441-1.635-1.0943-2.579-1.3733-.805-.236-1.673-.6651-2.478-.5149-.806.1502-1.384 1.0514-1.963 1.9096-.302.4506-.403 1.2446-.302 1.8668.189 1.0729.377 2.2315.868 3.0469.617 1.03 1.699 1.4591 2.504 1.9955.805.5365 1.522 1.1158 2.403 1.0943.868-.0214 1.786-.4935 2.642-.7939 1.183-.4291 1.535-3.1327.705-4.4845zm29.843 32.164c-.113-1.459-.629-2.532-1.233-3.54-.843-1.395-1.887-1.76-2.982-2.275-.893-.407-1.875.172-2.428 1.374-.592 1.266-.604 2.853-.176 4.27.151.514.314 1.029.465 1.566.34 1.159.805 1.995 1.447 2.746.629.73 1.296 1.245 2.076 1.309.868.065 1.799-.643 2.328-1.781.503-1.094.616-2.317.503-3.669zm-57.523 123.55c-3.749-3.583-9.989-2.467-12.959 2.339-1.874 3.047-1.962 8.711 0 11.737 4.328 6.652 11.94 3.819 14.696-4.42.05-.086.1-.172.163-.236 2.076-3.24.591-8.626-1.9-9.42zm-20.507-5.257c-1.057-.944-1.913-1.695-3.158-1.266-.818.279-1.649.708-2.429 1.18-1.019.601-1.723 2.103-1.56 3.97.176 1.909 1.032 2.897 2.139 3.133.83.171 1.711.3 2.554.279 1.233-.065 1.963-1.202 2.844-2.447.88-1.287.603-3.948-.39-4.849zm-115.209-181.0548c-1.6859-4.0554-5.2842-3.2829-7.4357-.8154-.8681.987-1.8872 2.2316-2.6421 3.4975-.6668 1.0943-.9939 2.4032-1.1952 3.8838-.0503.6008-.1007 1.2016-.1384 1.7809.0881-.6866.0881-.6223-.0126.1931-.39 3.24.843 6.1796 2.8938 6.3084h.2768c.0377.0214.0754.0429.1258.0644 1.1826.4935 2.315.1931 3.397-.7296.7171-.6222 1.4468-1.3732 2.1262-2.1028 2.3024-2.489 4.4413-7.6602 2.6044-12.0803zm-14.1416 2.5963c-.9436.472-1.8495 1.0085-2.4785 2.3388-.541 1.1158-1.0317 2.2745-1.4595 3.519-.6668 1.9526-.3145 4.7849.931 5.8578 1.2834 1.1372 2.7428.472 3.5354-1.5449.1636-.4077.3272-.794.4907-1.2016.0126-.0215.0252-.043.0378-.0859.1132-.2145.2139-.4291.3271-.6222.4278-.7939.7297-1.5449.931-2.5963.0881-.4506.1762-.9227.2894-1.3733.5787-2.5105-1.1701-4.9995-2.6044-4.2914zm27.9812-19.0968c-.6794-.1931-1.4972-.3648-2.1137.3004-.4277.4506-.7423 1.1587-1.082 1.7809-.4781.9012-.6794 2.2959-.2642 3.3688.4278 1.0943 1.1323 1.5234 1.8872 1.2874.4781-.1502 1.0695-.2146 1.4846-.6437.6291-.6652.9437-1.7166 1.1953-2.8323.3019-1.266-.3146-3.0469-1.1072-3.2615zm69.0094 96.3633c.075-.214.151-.429.201-.665.743-2.896.541-6.244-1.258-8.003-.251-.236-.503-.429-.755-.622-1.837-2.511-3.875-3.198-6.328-2.897-2.391.3-4.492 2.317-6.643 3.926-2.982 2.232-3.85 9.12-2.693 13.669.353 1.394.868 2.575 1.472 3.562-1.849 1.373-3.535 3.004-4.869 4.548-.729.837-1.27 1.781-1.673 2.79-1.585 2.339-2.24 5.493-.705 9.741 2.894 8.047 11.236 5.923 15.576 3.155 2.63-1.674 5.637-4.034 7.008-8.369 1.548-4.849.403-10.685-2.365-13.367 1.484-1.717 2.604-4.099 3.032-7.468zm-29.2771 18.775c-.7297-.279-1.1449.322-1.7488.794-.0126.022-.0881.065-.1384.108-.0629.043-.1762.107-.1887.107-.2139.107-.4278.214-.6417.279-.9436.343-1.3965 2.21-1.0443 3.605.3901 1.545 1.4218 1.995 2.2899 1.287.4906-.408.9436-.923 1.3714-1.502.5032-.665 1.082-1.523 1.0191-2.704-.0504-.879-.3523-1.759-.9185-1.974zm-9.3606-9.484c-.1258-.107-.2642-.171-.39-.279-2.0257-2.617-5.0829-1.115-6.8318 1.588-1.3084 2.017-2.3779 4.506-2.6672 7.467-.2013 2.125-.063 4.077.9058 5.665.843 1.395 2.2521 2.167 3.4096 1.502 2.7302-1.566 6.4543-4.763 6.8066-9.913.0377-.193.0755-.365.1132-.558.4026-1.802-.2642-4.656-1.3462-5.472zm190.1687 186.012c-.239-1.803-1.069-3.433-2.013-4.356-1.736-1.695-3.862-1.051-5.309 1.137-.742 1.116-1.472 2.232-2.215 3.369-1.484 2.253-1.497 6.287-.314 8.819 1.22 2.639 3.447 3.412 5.221 1.738.868-.837 1.749-1.652 2.617-2.489 1.749-1.674 2.428-5.085 2.013-8.218z" fill="#eb924d"/><path d="m67.4183 332.888c-1.6733 1.416-3.1957 2.039-4.7306 1.91.4277.515.8178 1.094 1.1071 1.974.5284 1.609.5788 3.54 0 5.128-1.1826 3.219-3.6612 3.004-5.561 2.039-1.862-.945-3.4096-4.721-3.3592-8.004.0377-2.446 1.1323-4.141 2.5288-4.399-1.2204-1.33-2.3904-2.918-3.3844-4.591-2.7176-4.571-4.6425-12.574-3.3592-18.883.5913-2.918 2.6295-5.6 4.5922-4.334 2.3905 1.545 4.4916 3.841 6.6682 6.18.5787.622 1.1449 1.266 1.7614 1.802.302.258 1.4343 1.051.5913.472 2.3653 1.652 3.9758 3.412 5.2465 7.21 1.5098 4.441.8052 11.05-2.1011 13.496zm-20.5078-38.043c-.1132-.301-.2139-.601-.302-.923-.3522-1.008-.8429-1.802-1.4468-2.403-.6291-.601-1.3085-.901-2.0382-.923-.8178.15-1.2456.258-1.9124.773-.6165.386-.994.922-1.4091 1.845-.7046 1.588-.8933 4.034-.5662 5.858.2516 1.416.7423 2.575 1.4469 3.476.6668.858 1.5726 1.545 2.4408 1.437.541-.064 1.0946-.15 1.6356-.386 2.1514-.922 3.4221-5.536 2.1514-8.754zm199.4545-43.816c-.541-3.304-2.454-5.664-4.505-5.686-.717-.021-1.333-.343-2.138-.343-1.284 0-2.391.901-3.536 1.695-1.874 1.309-3.611 3.026-4.579 6.137-.919 2.961-.718 7.102.868 9.312-.239.408-.478.794-.755 1.202-1.158 1.652-.277 5.579 1.308 5.278.541-.107 1.082.15 1.623.172.768.021 1.472-.236 2.189-.644.579-.343 1.196-.622 1.749-1.051.415-.322.73-.687 1.007-1.288.088-.193.729-1.802.327-1.137.189-.322.314-.708.365-1.094 1.333-.622 2.352-1.545 3.296-3.004.214-.258.415-.515.629-.773 1.699-2.081 2.743-5.192 2.152-8.776zm-5.977-15.363c-.402-.172-.88-.472-1.296-.386-.452.107-.931.622-1.346.965-.465.365-.629 1.438-.428 2.189.214.815.718 1.202 1.246 1.009.403-.151.918-.194 1.283-.558.34-.322.579-1.009.818-1.502.277-.558.214-1.502-.277-1.717zm9.889-20.856c-.113-.472-.239-.944-.352-1.416-2.642-3.09-4.768-3.412-6.366-.966-.327.515-.629 1.094-.843 1.738-.931 2.725-.516 6.738 1.246 8.283.918.815 1.975 1.158 2.994.643.528-.257 1.044-.708 1.56-1.073.264-.321.516-.665.78-.987.378-.579.642-1.266.793-2.059.302-1.224.49-2.919.188-4.163zm-10.115-130.8669c-.189-1.3733-.378-2.6607-.906-3.798-.579-1.2445-1.409-1.9955-2.202-2.8108-.654-.6652-1.283-1.3947-2.025-1.781-.768-.4291-1.661-.4291-2.466-.4935-1.397-.1287-2.303 1.3733-2.63 3.2615-2.013-3.0898-5.108-4.8708-7.536-5.7505-2.617-.9656-9.172-.5364-8.644 6.5015.428 5.5359 2.844 8.8403 5.587 11.6727 2.642 2.7465 4.982 4.8493 7.737 4.3128 2.265.4506 5.033 1.0085 6.115-3.2829.302-1.1801.352-2.2959.264-3.3688.554.6867 1.107 1.3947 1.799 1.6951.956.4292 1.938.0215 2.894-.2145 1.585-.4292 2.34-3.6907 2.013-5.9436zm-31.542 3.6262c-.579-.9441-1.132-1.9741-1.799-2.7465-.818-.9441-1.636-1.0943-2.579-1.3733-.805-.236-1.674-.6651-2.479-.5149s-1.384 1.0514-1.962 1.9097c-.302.4506-.403 1.2445-.302 1.8667.188 1.0729.377 2.2316.868 3.0469.616 1.03 1.698 1.4591 2.503 1.9955.806.5365 1.523 1.1158 2.403 1.0943.869-.0214 1.787-.4935 2.643-.7939 1.195-.4291 1.547-3.1327.704-4.4845zm29.856 32.1637c-.113-1.459-.629-2.531-1.233-3.54-.843-1.395-1.887-1.759-2.982-2.274-.893-.408-1.874.171-2.428 1.373-.591 1.266-.604 2.854-.176 4.27.151.515.314 1.03.465 1.566.34 1.159.806 1.996 1.447 2.747.629.729 1.296 1.244 2.076 1.309.881.064 1.799-.644 2.328-1.781.503-1.095.616-2.318.503-3.67zm-57.523 123.55c-3.749-3.583-9.989-2.467-12.958 2.339-1.875 3.047-1.963 8.712 0 11.737 4.328 6.652 11.939 3.82 14.695-4.42.05-.086.1-.172.163-.236 2.076-3.24.579-8.604-1.9-9.42zm-20.507-5.257c-1.057-.944-1.913-1.695-3.158-1.266-.818.279-1.648.709-2.428 1.181-1.02.6-1.724 2.102-1.561 3.969.177 1.91 1.032 2.897 2.139 3.133.831.172 1.711.3 2.554.279 1.233-.065 1.963-1.202 2.844-2.446.88-1.288.604-3.948-.39-4.85zm-115.5737-179.81c-1.6859-4.0554-5.2842-3.2829-7.4357-.8154-.8681.9871-1.8872 2.2316-2.6421 3.4975-.6668 1.0944-.9939 2.4032-1.1952 3.8838-.0503.6008-.1007 1.2016-.1384 1.7809.0881-.6866.0881-.6222-.0126.1931-.39 3.24.843 6.1797 2.8938 6.3084h.2767c.0378.0215.0755.0429.1259.0644 1.1826.4935 2.315.1931 3.397-.7296.7171-.6222 1.4468-1.3732 2.1262-2.1028 2.315-2.489 4.4539-7.6387 2.6044-12.0803zm-14.1416 2.5963c-.9436.4721-1.8495 1.0085-2.4785 2.3388-.541 1.1158-1.0317 2.2745-1.4595 3.519-.6668 1.9526-.3145 4.7849.931 5.8578 1.2834 1.1372 2.7428.472 3.5354-1.5449.1636-.4077.3272-.7939.4907-1.2016.0126-.0215.0252-.0429.0378-.0859.1132-.2145.2138-.4291.3271-.6222.4278-.7939.7297-1.5449.931-2.5963.0881-.4506.1762-.9227.2894-1.3733.5787-2.5104-1.1575-4.9995-2.6044-4.2914zm27.9938-19.0968c-.6794-.1931-1.4972-.3648-2.1137.3004-.4278.4506-.7423 1.1587-1.082 1.7809-.4781.9012-.6794 2.2959-.2642 3.3688.4278 1.0943 1.1323 1.5235 1.8872 1.2874.4781-.1502 1.0694-.2145 1.4846-.6437.6291-.6652.9436-1.7166 1.1953-2.8323.2893-1.2445-.3146-3.0469-1.1072-3.2615zm69.3615 95.1195c.076-.215.151-.429.201-.665.743-2.897.541-6.244-1.258-8.004-.251-.236-.503-.429-.755-.622-1.836-2.511-3.875-3.197-6.328-2.897-2.391.301-4.492 2.318-6.643 3.927-2.982 2.231-3.85 9.119-2.693 13.668.353 1.395.869 2.575 1.473 3.562-1.85 1.373-3.536 3.004-4.87 4.549-.729.837-1.27 1.781-1.673 2.789-1.585 2.339-2.239 5.493-.704 9.742 2.893 8.046 11.235 5.922 15.575 3.154 2.63-1.674 5.637-4.034 7.008-8.368 1.548-4.85.403-10.686-2.365-13.368 1.472-1.717 2.604-4.098 3.032-7.467zm-29.6544 20.105c-.7297-.279-1.1449.322-1.7488.794-.0126 0-.0881.064-.1384.107-.0629.043-.1761.108-.1887.108-.2139.107-.4278.214-.6417.278-.9436.344-1.3965 2.211-1.0442 3.605.39 1.545 1.4217 1.996 2.2898 1.288.4907-.408.9436-.923 1.3714-1.502.5032-.665 1.082-1.524 1.0191-2.704-.0504-.88-.3523-1.759-.9185-1.974zm-9.3606-9.484c-.1258-.107-.2642-.172-.39-.279-2.0256-2.618-5.0829-1.116-6.8318 1.588-1.3084 2.017-2.3779 4.506-2.6672 7.467-.2013 2.124-.0629 4.077.9058 5.665.843 1.394 2.2521 2.167 3.4096 1.502 2.7302-1.567 6.4543-4.764 6.8066-9.914.0377-.193.0755-.364.1132-.557.4026-1.803-.2642-4.657-1.3462-5.472zm190.534 184.681c-.239-1.802-1.07-3.433-2.013-4.356-1.736-1.695-3.863-1.051-5.31 1.138-.742 1.115-1.472 2.231-2.214 3.368-1.485 2.253-1.497 6.309-.314 8.819 1.22 2.639 3.447 3.412 5.221 1.738.868-.837 1.749-1.652 2.617-2.489 1.761-1.673 2.441-5.085 2.013-8.218z" fill="url(#e)"/><path d="m66.5241 334.926c-1.6733 1.416-3.1957 2.039-4.7306 1.91.4278.515.8178 1.094 1.1072 1.974.5284 1.609.5787 3.54 0 5.128-1.1827 3.219-3.6612 3.004-5.561 2.039-1.8621-.944-3.4096-4.721-3.3593-8.004.0377-2.446 1.1323-4.141 2.5289-4.399-1.2204-1.33-2.3905-2.918-3.3844-4.591-2.7176-4.571-4.6426-12.574-3.3593-18.883.5913-2.918 2.6295-5.6 4.5922-4.334 2.3905 1.545 4.4916 3.841 6.6682 6.18.5788.622 1.1449 1.266 1.7614 1.802.302.258 1.4343 1.051.5914.472 2.3653 1.652 3.9757 3.412 5.2464 7.21 1.5098 4.42.8178 11.05-2.1011 13.496zm-20.5078-38.065c-.1132-.3-.2139-.6-.3019-.922-.3523-1.009-.843-1.803-1.4469-2.404-.6291-.6-1.3085-.901-2.0382-.922-.8178.15-1.2456.257-1.9124.772-.6165.386-.9939.923-1.4091 1.846-.7046 1.587-.8933 4.034-.5662 5.857.2517 1.417.7423 2.575 1.4469 3.476.6668.859 1.5727 1.545 2.4408 1.438.541-.064 1.0946-.15 1.6356-.386 2.1514-.923 3.4222-5.536 2.1514-8.755zm199.8697-44.738c-.541-3.304-2.454-5.664-4.505-5.686-.717-.021-1.333-.343-2.138-.343-1.284 0-2.391.901-3.536 1.695-1.874 1.309-3.611 3.025-4.579 6.137-.919 2.961-.718 7.102.868 9.312-.239.408-.478.794-.755 1.202-1.158 1.652-.277 5.579 1.308 5.278.541-.107 1.082.15 1.623.172.768.021 1.472-.236 2.189-.644.579-.343 1.196-.622 1.749-1.051.415-.322.73-.687 1.007-1.288.088-.193.729-1.802.327-1.137.189-.322.314-.708.365-1.094 1.333-.623 2.352-1.545 3.296-3.004.214-.258.415-.515.629-.773 1.699-2.103 2.743-5.214 2.152-8.776zm-5.977-15.363c-.402-.172-.88-.472-1.295-.386-.453.107-.932.622-1.347.965-.465.365-.629 1.438-.427 2.189.213.815.717 1.202 1.245 1.008.403-.15.919-.193 1.283-.557.34-.322.579-1.009.818-1.502.277-.58.227-1.502-.277-1.717zm9.889-20.878c-.113-.472-.239-.944-.352-1.416-2.642-3.09-4.768-3.412-6.366-.965-.327.515-.629 1.094-.843 1.738-.931 2.725-.516 6.737 1.246 8.282.918.815 1.975 1.159 2.994.644.528-.258 1.044-.708 1.56-1.073.264-.322.516-.665.78-1.009.378-.579.642-1.266.793-2.06.302-1.18.503-2.875.188-4.141zm-10.518-129.9224c-.188-1.3732-.377-2.6607-.906-3.7979-.578-1.2445-1.409-1.9955-2.201-2.8109-.655-.6651-1.284-1.3947-2.026-1.7809-.767-.4291-1.661-.4291-2.466-.4935-1.396-.1288-2.302 1.3732-2.629 3.2615-2.013-3.0899-5.108-4.8708-7.537-5.7505-2.617-.9656-9.172-.5365-8.643 6.5015.428 5.5359 2.843 8.8403 5.586 11.6726 2.655 2.7465 4.982 4.8493 7.738 4.3129 2.264.4506 5.032 1.0085 6.114-3.2829.302-1.1802.352-2.2959.264-3.3688.554.6866 1.108 1.3947 1.8 1.6951.956.4292 1.937.0215 2.893-.2146 1.573-.4291 2.328-3.6691 2.013-5.9436zm-31.541 3.6263c-.579-.9441-1.133-1.9741-1.8-2.7465-.817-.9441-1.635-1.0943-2.579-1.3733-.805-.236-1.673-.6652-2.478-.515-.806.1502-1.384 1.0514-1.963 1.9097-.302.4506-.403 1.2445-.302 1.8668.189 1.0728.377 2.2315.868 3.0469.617 1.0299 1.699 1.4591 2.504 1.9955s1.522 1.1158 2.403 1.0943c.868-.0214 1.786-.4935 2.642-.7939 1.183-.4291 1.535-3.1113.705-4.4845zm29.843 32.1861c-.113-1.46-.629-2.532-1.233-3.541-.843-1.395-1.887-1.759-2.982-2.274-.893-.408-1.875.171-2.428 1.373-.592 1.266-.604 2.854-.176 4.27.151.515.314 1.03.465 1.566.34 1.159.805 1.996 1.447 2.747.629.729 1.296 1.244 2.076 1.309.868.064 1.799-.644 2.328-1.781.503-1.095.616-2.339.503-3.669zm-57.523 123.549c-3.749-3.583-9.989-2.467-12.959 2.339-1.874 3.047-1.962 8.712 0 11.737 4.328 6.652 11.94 3.82 14.696-4.42.05-.086.1-.172.163-.236 2.076-3.24.591-8.626-1.9-9.42zm-20.507-5.257c-1.057-.944-1.913-1.695-3.158-1.266-.818.279-1.649.709-2.429 1.181-1.019.6-1.723 2.102-1.56 3.969.176 1.91 1.032 2.897 2.139 3.133.83.172 1.711.3 2.554.279 1.233-.065 1.963-1.202 2.844-2.446.88-1.288.603-3.948-.39-4.85zm-115.209-180.6253c-1.6859-4.0554-5.2842-3.283-7.4357-.8154-.8681.987-1.8872 2.2315-2.6421 3.4975-.6668 1.0943-.9939 2.4032-1.1952 3.8837-.0503.6008-.1007 1.2016-.1384 1.781.0881-.6867.0881-.6223-.0126.1931-.39 3.24.843 6.1796 2.8938 6.3084h.2768c.0377.0214.0754.0429.1258.0643 1.1826.4936 2.315.1932 3.397-.7295.7171-.6223 1.4468-1.3733 2.1262-2.1028 2.3024-2.489 4.4413-7.6387 2.6044-12.0803zm-14.1416 2.5963c-.9436.472-1.8495 1.0085-2.4785 2.3388-.541 1.1158-1.0317 2.2744-1.4595 3.519-.6668 1.9525-.3145 4.7849.931 5.8577 1.2834 1.1373 2.7428.4721 3.5354-1.5449.1636-.4077.3272-.7939.4907-1.2016.0126-.0214.0252-.0429.0378-.0858.1132-.2146.2139-.4291.3271-.6223.4278-.7939.7297-1.5449.931-2.5963.0881-.4506.1762-.9226.2894-1.3732.5787-2.5105-1.1701-4.9995-2.6044-4.2914zm27.9812-19.0968c-.6794-.1932-1.4972-.3648-2.1137.3004-.4277.4506-.7423 1.1586-1.082 1.7809-.4781.9012-.6794 2.2959-.2642 3.3688.4278 1.0943 1.1323 1.5234 1.8872 1.2874.4781-.1502 1.0695-.2146 1.4846-.6437.6291-.6652.9437-1.7166 1.1953-2.8324.3019-1.2445-.3146-3.0254-1.1072-3.2614zm69.0094 95.9348c.075-.215.151-.429.201-.665.743-2.897.541-6.244-1.258-8.004-.251-.236-.503-.429-.755-.622-1.837-2.511-3.875-3.197-6.328-2.897-2.391.301-4.492 2.318-6.643 3.927-2.982 2.231-3.85 9.119-2.693 13.668.353 1.395.868 2.575 1.472 3.562-1.849 1.373-3.535 3.004-4.869 4.549-.729.837-1.27 1.781-1.673 2.789-1.585 2.339-2.24 5.493-.705 9.742 2.894 8.046 11.236 5.922 15.576 3.154 2.63-1.674 5.637-4.034 7.008-8.368 1.548-4.85.403-10.686-2.365-13.368 1.484-1.717 2.604-4.098 3.032-7.467zm-29.2771 19.247c-.7297-.279-1.1449.322-1.7488.794-.0126 0-.0881.064-.1384.107-.0629.043-.1762.107-.1887.107-.2139.108-.4278.215-.6417.279-.9436.344-1.3965 2.21-1.0443 3.605.3901 1.545 1.4218 1.996 2.2899 1.287.4906-.407.9436-.922 1.3714-1.502.5032-.665 1.082-1.523 1.0191-2.703-.0504-.88-.3523-1.76-.9185-1.974zm-9.3606-9.484c-.1258-.108-.2642-.172-.39-.279-2.0257-2.618-5.0829-1.116-6.8318 1.588-1.3084 2.017-2.3779 4.506-2.6672 7.467-.2013 2.124-.063 4.077.9058 5.664.843 1.395 2.2521 2.168 3.4096 1.502 2.7302-1.566 6.4543-4.763 6.8066-9.913.0377-.193.0755-.365.1132-.558.4026-1.802-.2642-4.656-1.3462-5.471zm190.1687 185.518c-.239-1.803-1.069-3.433-2.013-4.356-1.736-1.695-3.862-1.051-5.309 1.137-.742 1.116-1.472 2.232-2.215 3.369-1.484 2.253-1.497 6.287-.314 8.819 1.22 2.639 3.447 3.411 5.221 1.738.868-.837 1.749-1.652 2.617-2.489 1.749-1.652 2.428-5.064 2.013-8.218z" fill="url(#f)"/><g fill="#eb924d"><path d="m5.23972 303.17c-.11323 1.052-.17614 2.125-.18872 3.176-.01258.537-.01258 1.051.01258 1.588.01258.193.03774.343.06291.558.08807.558.02516 1.18.05032 1.738.01258.45.03775.922.06291 1.373-.60391-.365-1.00652-.815-1.0191-1.416-.05033-2.189-.05032-4.377.02516-6.587.02517-.816-.10065-2.575.12582-3.283.31454-.944.15098-.451.76747-.88.62907-.451 1.14491-.987 1.83689-1.223.70457-.236 1.42171-.343 2.15144-.472 2.5666-.451 5.1332-.88 7.7124-1.309-.6542-.064-1.3084-.129-1.9627-.215.5536-.021 1.0946-.064 1.6482-.107.5158-.043 1.0443-.086 1.5727-.107.4403-.022.8933.021 1.3336-.108-3.5731 1.03-7.1463 2.017-10.63132 3.627-.93103.429-1.86206.901-2.7176 1.673-.22647.215-.46552.451-.60391.816-.1384.343-.20131.772-.23905 1.158z"/><path d="m5.55347 140.74v.129c.02516.515.1384 1.008.17614 1.523.10065 1.502-.07549 3.111-.03775 4.635.07549 2.939.45294 6.008 1.67334 8.239 1.47203 2.683 3.7367 3.455 5.863 4.099-1.6608.043-3.32154.086-4.9823.128-.3397 0-.69198.022-.99393.301-.51584.472-.70456 1.545-.83038 2.51-.76747 5.794-1.05684 11.759-.85554 17.702.78005.773 1.63559 1.288 2.51629 1.567-1.18265.086-1.91238 2.553-1.63559 4.506.2768 1.974 1.22041 3.433 2.16402 4.656-1.43429.064-2.3779 2.682-2.61695 5.085-.18872 1.931-.1384 3.905-.3397 5.837-.06291.665-.06291 1.223-.02516 1.888.03774.858-.02517 1.716-.03775 2.575-.02516 2.338.10065 4.699.35228 6.995.1384 1.266.32712 2.553.54101 3.798.11323.622.22646 1.244.36486 1.866.03774.129.06291.258.07549.387-.27679-.108-.55359-.301-.78005-.58-.6794-.879-.74231-2.575-.74231-4.034 0-2.939-.17614-5.772-.27679-8.69-.11323-3.39.02516-6.78.02516-10.149.02516-8.197.02516-16.393.01258-24.59-.01258-8.196-.03774-16.35-.07549-24.525-.01258-2.167.11324-4.378-.25163-6.459-.37744-2.081-.11323-4.849.03775-6.995.03774-.536.08807-1.073.28937-1.502.18873-.343.46552-.558.72973-.687 2.07594-1.158 4.30283-1.029 6.47943-1.18 2.1263-.128 4.2651-.579 6.3537-1.287.541-.043 1.082-.129 1.6104-.279-3.4725 1.266-6.9701 2.36-10.49295 3.347-.72972.193-1.45945.408-2.13885.88s-1.30847 1.245-1.67334 2.36c-.32711 1.03-.37744 2.189-.41518 3.348-.02517.879-.10066 1.759-.06291 2.596z"/><path d="m33.4588 225.539c-6.9198.601-13.7893 2.597-20.7217 3.026-1.7236.107-3.48504.128-5.09547 1.18-1.11975.729-2.25208 4.613-.91845 6.008.18872.214.42777.279.65424.365 1.25815.407 2.54146.579 3.81218.536-1.63559.429-3.13278 1.824-4.59223 3.176-.25163.236-.52842.493-.69198.901-.16356.386-.23905.88-.30196 1.352-.16356 1.223-.44035 2.51-.3397 3.776.06291.88.03775 1.674 0 2.575-.11323 3.412-.1384 6.823-.03774 10.235.01258.386.02516.794.12581 1.159.1384.472.40261.815.65424 1.115.56616.687 1.14491 1.374 1.6985 2.06.05032.043.08807.108.10065.172.05032.172-.03775.343-.10065.472-.88071 1.609-1.88722 3.133-2.32758 5.214-.21388 1.009-.56616 1.803-.61649 2.897-.11323 2.553.01258 5.128.37745 7.617.13839.966.3397 1.953.76747 2.639.35228.558.84295.837 1.30847 1.073 1.96271 1.009 3.95054 1.845 5.96364 2.446-2.617.129-5.22133.279-7.83828.408-.06291 0-.25163 5.107-.31454 5.579-.08807.708-.16356 1.073 0 1.802.17614.751.46552 1.416.83038 1.953-.4781-.065-.95619-.107-1.43429-.15-.2013-.022-.42777-.086-.51584-.365-.03774-.129-.03774-.322-.03774-.472.3397-12.681.71714-25.491.86812-38.215.07549-7.038-.18872-14.183.3397-21.157.05033-.644.3397-7.66.32712-7.66 9.32287-1.159 18.68347-1.76 28.05667-1.717z"/><path d="m34.9688 225.452c.0503 0 .088-.02.1509-.02-.0503 0-.1006 0-.1509.02z"/><path d="m39.3478 68.9023c-4.1519.8798-8.4422-.1072-12.5689 1.0944-1.3714.3862-2.7176 1.0299-4.1016 1.2659-1.2833.1931-2.554.0859-3.8248.1288-3.1957.1073-6.3662 1.3518-9.4109 3.0254-1.03168.5579-2.10111 1.2016-2.856 2.532-.27679.5149-.50325 1.0728-.69198 1.7165-.31453 1.1372-.62907 2.6178-.59133 3.9052.01259.3862.05033.6866.02517 1.0729-.07549 1.1157-.1384 2.21-.15098 3.3258-.02516 2.2315.12581 4.4631.42777 6.6302.08807.6223.2013 1.266.4781 1.6737.27679.4291.67939.5364 1.04426.6437 1.5601.4077 3.12019.8154 4.66769 1.2231-2.1514.2789-4.29025.5364-6.44168.8153.1384-.0214.10065 8.7978.12581 9.5698.11324 2.961.16356 5.987.28938 8.969.07549 1.953.2013 3.884.52842 5.751.07549.429.17614.879.27679 1.287-.17614-.172-.3397-.386-.47809-.601-.79264-1.094-1.38396-2.768-1.39655-4.549-.01258-.429.05033-.772.10066-1.18.17614-1.137.05032-2.424.03774-3.605-.06291-5.278-.11323-10.556-.18872-15.8349-.05033-3.3473-.06291-6.6517-.3397-9.9775-.15098-1.6522-.07549-3.3473-.12582-4.9995-.0629-2.0384-.03774-4.0769.11324-6.1153.0629-1.0943.18872-2.2315.47809-3.24.31454-1.0299.84296-2.017 1.56011-1.9741 1.082.1073 2.17659-.2789 3.2586-.4506 2.40302-.4076 4.81872-.751 7.24692-1.0084 4.9445-.5579 9.9142-.8369 14.8839-.9871 2.4156-.0643 4.8439-.0858 7.2595-.1073z"/><path d="m256.391 106.345c7.31 2.682 14.96 1.244 22.395 2.896 2.995.666 5.989 1.824 9.009 1.524 1.119-.107 2.277-.451 3.371.086.994.45 1.573 1.695 2.101 3.09.881 2.381.831 5.75.919 8.454.226 7.059-.176 14.118-.39 21.156-.025.773-.063 1.588-.365 2.167-.214.387-.528.58-.843.73 0-.15-.013-.279-.013-.408-.037-1.158-.012-2.317.076-3.454.113-1.567.352-3.112.34-4.678 0-.579 0-1.094.025-1.695.012-.15.012-.343 0-.515-.05-.73-.101-1.352-.201-2.06-.126-.901-.063-1.91-.089-2.832-.05-2.017-.151-4.013-.301-6.03-.026-.343-.063-.729-.24-.944-.125-.15-.301-.171-.465-.15-4.051.086-8.103.536-12.129 1.33 3.473-.3 6.933-1.201 10.305-2.703.654-.301 1.371-.708 1.673-1.717.252-.837.151-1.845.038-2.746-.126-1.116-.302-2.318-.831-2.983-.314-.407-.729-.558-1.119-.686-.239-.086-.466-.151-.705-.236-2.353-.773-4.731-1.352-7.121-1.781-1.195-.215-2.391-.365-3.586-.494-1.208-.129-2.315-.558-3.523-.687-.717-.085-1.434-.15-2.151-.236-2.453-.257-4.894-.515-7.335-.751-1.208-.128-2.441-.15-3.636-.386-.352-.086-.654-.3-.981-.558-.189-.128-.378-.236-.567-.322-1.069-.386-2.176-.6-3.258-.944-.768-.236-1.535-.472-2.303-.729l-1.069-.344c-.252-.085-.579-.3-.856-.3 1.296-.021 2.554-.064 3.825-.064z"/><path d="m294.373 189.727c-.063 12.187-.163 24.375-.176 36.584 0 4.034.315 10.943-.906 14.548-.339 1.03-.943 1.631-1.635 1.974.075-.3.138-.601.201-.923.365-1.738.642-3.519.805-5.342.076-.816.063-1.717.227-2.468.188-.815.163-1.717.201-2.575.126-2.575.252-5.171.378-7.746.1-2.081.201-4.163.314-6.244.063-1.051.101-2.081.164-3.111.025-.429.088-.944.05-1.373-.025-.129-.063-.279-.063-.408-.063-.515-.013-1.094-.239-1.502-.138-.258-.34-.343-.541-.429-1.875-.816-3.8-1.202-5.725-1.223.806-.387 1.661-.301 2.492-.215.83.086 1.698.107 2.478-.386.529-.343 1.019-1.009 1.283-1.845.126-.408.189-.859.252-1.309.101-.773.013-1.674.013-2.468-.013-1.502-.026-3.025-.026-4.549-.025-4.205-.05-8.411-.226-12.595-.126-3.197-.315-6.373-.415-9.57-.038-1.051-.403-1.588-.554-2.532-.176-1.137.189-2.467-.226-3.519-.34-.837-1.019-.922-1.611-.944-3.862-.086-7.725-.172-11.587-.236 3.598.451 7.196-.751 10.744-1.931.441-.15.894-.3 1.284-.665.667-.601 1.082-1.717 1.384-2.876.151-.579.251-1.201.39-1.802.05-.214.1-.386.125-.622.063-.73-.05-1.631-.075-2.36-.025-.923-.063-1.846-.101-2.79-.025-1.03-.063-2.146-.415-3.004-.478-1.201-1.371-1.631-2.189-1.974-2.076-.858-4.139-1.738-6.215-2.596.528-.15 1.069-.258 1.635-.301 2.24.88 4.479 1.781 6.719 2.661.289.107.604.258.818.579.88 1.395.666 6.137.755 7.961.163 3.476.239 6.974.264 10.471.075 6.523-.025 13.11-.051 19.655z"/><path d="m280.308 80.2744c-.806.1073-1.598.1502-2.403.2146 5.02.8368 10.052 1.6951 15.072 2.5319.466.0858.969.1931 1.296.751.252.4292.352 1.0514.44 1.6308.39 2.725.416 5.4071.416 8.1966-.151 4.0339-.365 7.9817-.856 11.9517-.226 1.888-.931 2.017-1.698 1.802.427-.536.742-1.309.767-2.188.113-5 .227-10.0208.013-14.9989-.051-.9441-.101-1.9096-.315-2.7894-.151-.5793-.365-1.1158-.667-1.502-.138-.1931-.302-.3218-.453-.4506-.063-.0644-.113-.1073-.188-.1502-.101-.0644-.189-.1502-.29-.236-.163-.1288-.352-.1288-.528-.1931-.742-.2146-1.485-.4506-2.227-.6437-2.944-.8369-5.913-1.502-8.883-1.9741-1.937-.3004-3.875-.5364-5.749-1.3303 1.421-.1288 2.642-.3863 4.064-.4935.729-.0215 1.472-.0859 2.189-.1288z"/><path d="m293.996 299.759c.151-1.159.252-2.317.315-3.498.101-1.974.088-3.948.088-5.943 0-1.695.113-3.476-.189-5.128-.226-1.288-.402-2.339-.364-3.713.037-1.587.062-3.347-.604-4.613-.73-1.373-1.951-1.502-3.045-1.523-1.875-.043-3.749-.065-5.624-.108 2.479-.515 4.944-1.201 7.398-2.059.365-.129.755-.301.981-.794.227-.494.214-1.181.202-1.803-.101-4.227-.164-8.454-.302-12.659-.076-2.339-.328-4.378-1.762-5.172-1.573-.858-3.309-1.03-4.932-1.459-2.931-.751-5.875-1.416-8.819-2.017-5.889-1.18-11.802-2.017-17.728-2.424 11.475.386 22.949 1.545 34.36 3.433.541.107.705 2.103.793 2.746.315 2.404.428 4.871.541 7.296.302 6.673.377 13.368.428 20.041v.343c.025 1.373.063 2.725.063 4.098.037 3.863.176 8.111-.063 11.909-.076 1.18-.214 2.36-.453 3.497-.101.515-.202 1.202-.403 1.61-.553 1.158-1.296 1.824-2.101 2.274.378-.772.679-1.652.881-2.575.151-.536.251-1.137.339-1.759z"/><path d="m3.75415 50.6204c-.15097-9.5698-.35228-19.0968-.61649-28.6452-.16356-6.3513 2.64211-11.8014 6.34106-12.29487 93.90828-12.72406 187.61528-13.04591 281.12028-.04292 3.737.51499 6.543 6.07239 6.316 12.46659-.302 8.4326-.566 16.8652-.805 25.2979-.164 5.9007-.327 11.8228-.466 17.745-.037 1.1587-.063 2.1672-.264 3.2615-.352 1.9311-.277 4.0339-.553 6.008-.101.6222-.214 1.2874-.491 1.738-.277.4291-.654.6008-1.019.751-.038.0214-.063.0214-.101.0429.013-.0644.025-.1287.025-.1931.101-2.5963.365-5.3214.315-7.9177-.025-.9012-.139-1.6736-.076-2.5963.076-1.266.101-2.5319-.1-3.7764-.529-3.1328-2.617-5.2356-4.479-4.4846 1.371-2.0598 3.95-1.0085 4.932-3.6477.528-1.4161.314-3.2615.075-4.8922-5.787-1.0299-11.6-1.4376-17.413-1.2016 4.995.4721 10.04-.4935 14.859-2.8109.78-.3647 1.585-.8368 2.101-1.8882.478-.987.604-2.3388.705-3.6048.176-2.1028.289-4.2699.528-6.3513.076-.6222.264-1.1587.34-1.7809.126-.9656.063-2.0599.05-3.0469-.012-2.3818-.113-4.7635-.453-7.0809-.201-1.4161-.503-2.7679-.931-4.0339-.579-1.738-.918-2.8323-2.126-3.5833-.742-.4721-1.535-.6008-2.315-.7296-2.592-.3862-4.366-.4506-6.945-.9655-3.573-.7081-7.159-1.3304-10.745-1.9097-4.843-.77247-9.687-1.4591-14.544-2.03844-2.428-.3004-4.856-.55789-7.284-.81537-.516-.04291-1.07-.19311-1.586-.04291-.415.12874-.729.17165-1.157.04291-1.158-.34331-2.315-.83683-3.498-.751-1.497.10729-3.133 1.56637-3.422 4.05541-.39-.96559-.579-2.18864-.516-3.34732-.667 1.05139-1.22 2.2959-1.623 3.69062-.83-1.48055-1.396-3.39023-1.598-5.42865-2.931.57934-5.9.55789-8.832-.10728-.415 1.82385-.83 3.62624-1.245 5.45013-1.485-4.07688-4.341-6.22259-7.147-6.78047-2.805-.55789-5.624.19311-8.442.6008-3.661.53642-7.348.49351-10.996-.12875-.44-.08583-.931-.12874-1.283.32186-.24.3004-.365.79391-.479 1.26597-.352 1.48054-.616 3.0469-.792 4.61329-.365-2.57487-1.585-4.63475-2.995-5.75052-1.409-1.11577-2.994-1.39471-4.554-1.37325-2.856.02145-5.687 1.00848-8.543 1.0514-1.573.02145-3.133-.23603-4.693-.51498-2.277-.42914-4.567-.94411-6.869-.79391-.566.04292-1.133.10729-1.686.25749-.503.12874-1.007.38623-1.51.38623-.327 0-.642-.19312-.956-.25749-.642-.1502-1.309-.06437-1.95-.08583-1.435-.02146-2.869-.04291-4.303-.06437-4.894-.10729-9.801-.19311-14.695-.3004-4.907-.10728-9.801-.19311-14.695-.3004-2.441-.04291-4.895-.10728-7.348-.12874-.554-.02146-1.069-.21457-1.623-.17166-3.045.23603-6.115.47206-9.159.70809-2.529.19311-5.058.38622-7.574.57934-1.082.08583-1.938-.4506-2.995-.66517-1.1573-.21457-2.3525-.25749-3.4597.42914-1.5853.98703-2.8937 3.96956-2.3527 6.71603.1384-3.06833-1.4847-5.70755-3.2461-6.45854-1.7614-.751-3.5983-.1502-5.3722.34331-4.5294 1.26597-9.1216 1.75948-13.7013 1.45908-.151 2.18862-.2893 4.37725-.4403 6.56585-.3397-2.3603-.8933-4.61325-1.623-6.69459-.8178 3.00399-1.0191 6.50149-.5285 9.72009-1.2329-2.9826-1.0191-7.74604-2.8937-9.48406-1.9124-1.78094-4.2148 1.26596-6.3788.87974.0755 2.10279.1636 4.20562.239 6.28692-.1132-2.2101-.9058-4.18413-1.9627-5.38573-1.5097-1.71656-2.8811-1.11576-4.567-.90119-1.8244.23602-3.6361.47205-5.4604.72954-3.246.40768-6.492.83682-9.7506 1.26596-.7046.10729-1.4595.34332-2.1641.17166-.5032-.12874-.931-.40768-1.4594-.36477-7.9389.32186-15.9407 1.02994-23.779 3.26143-1.4343.4077-2.89373.9012-4.17704 2.0814-.8178.7724-1.56011 1.8453-2.06336 3.1756-.39003 1.0085-.50326 2.0814-.65424 3.1971-.10065.751-.36486 1.4591-.541 2.1672-.37745 1.5449-.6794 3.1542-.75489 4.8064-.10065 2.5319.49068 5.3214 1.79915 6.5444 1.54752 1.4591 3.58572.3648 5.15838 1.738-1.83687-.3862-3.71151-.1287-5.47292.7939-.26421.1288-.541.3004-.71714.6867-.15098.3218-.17614.751-.20131 1.1587-.11323 1.9096-.10065 3.8622.05033 5.7719.07549.9227.22647 1.8453.26421 2.768.05033 1.0299.06291 2.0813.10065 3.1112.1384 4.0984.30196 8.2181.44035 12.3164.02517.6866.11324 1.0943.10066 1.6093-.12582-.0215-.25163-.0215-.37745-.0215-.15098-.0214-.31454-.0214-.41519-.1931-.10065-.1287-.12581-.3647-.15097-.5793-.36487-4.1841-.64166-8.497-.70457-12.6812z"/><path d="m290.638 355.912c-92.399 12.08-186.118 11.973-281.1334-.021-3.72411-.472-6.54236-5.923-6.39139-12.274.03775-1.416.05033-2.832.06291-4.248.02516-1.159-.05032-2.425.07549-3.562.05033-.408.16356-.751.2013-1.159.11324-1.373.16356-2.768.22647-4.141.15098-2.768.31454-5.536.46551-8.304.01259-.257.02517-.515.03775-.751.02516-.429.06291-.901.21388-1.245.1384-.321.35229-.472.57875-.6 2.64211-1.781 5.57363-2.897 8.42963-2.854 3.1202.021 6.0642-.579 9.1467-1.33 1.2456-.301 2.4911-.58 3.7241-.88h.3271c.2391 0 .4781.021.7297.021.1888 0 .4278.086.604.022-6.2279 2.296-12.5438 3.712-18.84709 5.385-.83037.215-1.67333.43-2.40306 1.095-.06291.064-.11323.107-.17614.171-.83038.837-1.61043 2.339-1.59785 4.034.01259.794-.10065 1.588-.12581 2.382-.05033 1.524.08807 3.197.78005 4.27.41519.644.94361.966 1.47203 1.245 3.42217 1.866 7.00787 2.896 10.60617 3.046-2.9063-.042-5.8126-.085-8.70636-.128-.88071-.022-1.78657-.108-2.66728-.022-.59133.043-1.66075.043-2.08852.837-.17614.3-.23905.73-.28938 1.159-.21388 2.253.23905 4.57.20131 6.823-.02516 1.352-.05033 2.768.2013 4.056.49068 2.531 1.96271 4.184 3.48507 4.956.74231.343 1.50978.558 2.26466.73.39.085.7675.128 1.1575.214.1887.043.3774.086.5787.129.1762.043.3649.107.5411.107.088-.021.1887-.086.2893-.086.2894-.042.5914 0 .8807 0h1.2833c1.5601-.021 3.1328-.085 4.7055.043.7801.086 1.5601.172 2.3402.344.1761.043.3397.107.5158.107.1007 0 .2013-.064.3145-.086.0881-.021.1762-.021.2517 0 .7926.107 1.3965.365 2.1388.601.4529.15.9185.214 1.3462-.086.7046-.493 1.1072-1.781 1.3085-3.047s.2642-2.596.6039-3.755c.1133 1.373-.0503 2.747-.0377 4.12s.2893 2.897.9939 3.562c.4152.386.9185.429 1.3966.45.7926.022 1.5852.065 2.3779.086.5535.022 1.0065-.236 1.5349-.322.7423-.128 1.5601.129 2.3024.215.8178.107 1.623.193 2.4408.279 3.2586.365 6.5046.729 9.7632 1.051.8681.086 1.7614.258 2.6421.258 8.1151.772 16.2301 1.373 24.3578 1.802 2.4408.129 4.9067.043 7.335.343.3145.043.5787.194.8807.322.692.279 1.4594-.214 2.1011-.643 1.4972-1.009 2.8308-2.79 3.7115-5.086.7926 4.485 3.699 6.931 6.4291 7.403 2.7302.472 5.4734-.515 8.2154-.322.806.065 1.573-.064 2.353-.043.528.022 1.07.365 1.598.451.679.107 1.447.193 2.101-.193.214-.129.403-.322.617-.451.717-.408 1.585-.214 2.34-.236 1.774-.043 3.56-.043 5.334-.043 3.561.022 7.109.129 10.669.343 1.762.065 3.523.237 5.285.387.327.021.641.043.943-.108.227-.107.44-.3.68-.386.817-.279 1.723-.257 2.554-.279h.578c.629 0 1.158-.021 1.762-.236.717-.279 1.484-.043 2.201-.043h3.599c4.894.022 9.801.043 14.695.086 1.371.022 2.743.022 4.114.043.679 0 1.371 0 2.051.022 4.894.064 9.788.15 14.682.257 4.895.107 9.789.279 14.683.429 2.441.086 4.894.172 7.335.279 1.22.043 2.453.107 3.674.15.918.043 1.723.065 2.617-.429.377-.214.755-.343 1.157-.386.793-.107 1.598-.172 2.391-.236.251-.022.528.021.767-.129.403-.236.604-.472 1.007-.45.239.021.49-.065.729-.172.479-.215.931-.601 1.334-1.073.868-1.008 1.573-2.382 2.252-3.755.629 1.416 1.321 2.747 2.064 3.991.125.215.276.429.452.515.642.3 1.007-1.287 1.598-1.824.327.987 1.032 1.481 1.699 1.524s1.321-.279 1.975-.537c1.9-.751 3.888-.965 5.825-.643.239-.644.478-1.288.717-1.932.328 1.803 1.686 2.296 2.794 2.296.78 0 1.56-.086 2.34-.236.641-.128 1.321-.515 1.975-.365 1.371.301 2.755 0 4.139-.15 3.246-.343 6.492-.729 9.738-1.115 3.246-.387 6.492-.794 9.738-1.245 3.158-.429 6.329-.858 9.487-1.33.73-.108 1.472-.108 2.214-.151 2.416-.15 4.831-.343 7.247-.622 1.208-.15 2.416-.343 3.611-.558.604-.107 1.208-.193 1.812-.364.188-.043.339-.215.516-.301 1.094-.429 2.214-.515 3.095-1.845.604-.923.931-2.232 1.119-3.583.076-.687.139-1.395.177-2.103.062-1.331.176-2.64.163-4.013-.025-4.935-.063-9.849-.075-14.784 0-.493 0-.987-.013-1.459-.013-2.038-.05-4.077-.189-6.115-.063-.88-.239-1.867-.201-2.768.013-.257.05-.536.063-.794.012-1.051-.315-2.231-.73-2.961-.289-.494-.604-.944-.918-1.416-.227-.343-.478-.622-.768-.837-.579-.451-1.195-.687-1.824-.923-1.46-.6-2.919-1.201-4.391-1.781-.365-.15-.768-.343-1.057-.772.516-.107.654-.451 1.17-.472h.34c2.026.622 4.064 1.287 6.102 1.974.73.236 1.497.601 2.101 1.416.315.429.566.987.742 1.588.315 1.03.441 2.146.516 3.261.201 2.811-.063 5.579.113 8.369.101 1.437.164 2.853.202 4.291.075 2.768.151 5.557.226 8.325.063 2.489.139 4.979.201 7.489.24 6.48-2.591 11.973-6.315 12.445z"/><path d="m125.24 33.9482c14.658 1.1587 29.315 2.3174 43.897 5.1927 12.066 2.3817 24.094 5.9436 36.235 6.0938-27.428 2.9825-52.666-9.9776-80.132-11.2865zm58.001 58.4921c-.893.0429-1.799-.1073-2.692-.1502-4.844-.2146-9.688-.1288-14.519.236-4.832.3648-9.663.9656-14.482 1.7595-2.415.4077-4.818.8368-7.234 1.3303-1.208.236-2.403.4935-3.611.751-.604.1288-1.208.2575-1.812.3862-.44.1073-.88.043-1.308.1073-.554.1073-1.145.5365-1.686.8154-.579.2789-1.158.5793-1.736.8583-1.158.5579-2.315 1.1157-3.485 1.6739-2.328 1.094-4.668 2.103-7.021 3.004-1.95.751-3.913 1.416-5.888 1.995-4.693 1.373-9.436 2.253-14.192 2.661-2.378.193-4.7556.279-7.1461.236-.541-.022-1.1072-.107-1.6356.021-1.0568.258-2.1137.515-3.1705.773-1.2078.3-2.4031.601-3.6109.88-.4529.107-.8052.45-1.233.6-.5787.194-1.1575.322-1.7488.408-2.3276.365-4.6803.129-7.0079.258-6.4417.364-12.7073 3.561-19.0735 5.235-4.7558 1.245-9.5871 1.631-14.3932 1.996.541-.043 1.0694-.065 1.6104-.108 4.8691-.322 9.7255-.794 14.582-1.351 4.8564-.58 9.7003-1.266 14.5441-2.082 2.4157-.408 4.8439-.837 7.2595-1.309 1.384-.257 2.7805-.364 4.1771-.515 2.9315-.3 5.8504-.708 8.7693-1.201 5.8751-.987 11.7131-2.296 17.5511-3.755 23.326-5.879 46.539-14.5052 70.192-15.5137zm-90.5488 146.7237c5.2591 3.197 10.8198 4.592 16.3438 5.686 2.805.558 5.611 1.03 8.404 1.609.717.15 1.434.344 2.151.494.541.107 1.082.15 1.623.279.177.043.328.15.491.236.466.236 1.007.171 1.497.3 1.07.301 2.114.837 3.146 1.309 1.321.601 2.68 1.159 4.051.987.994-.129 1.963-.622 2.957-.923 1.157-.343 2.327-.407 3.497-.386 2.365.065 4.731.558 7.058 1.33 1.045.344 2.089.773 3.121 1.245 1.119.515 2.227 1.116 3.346 1.717.755.407 1.409.386 2.177.321 1.006-.085 2.013.301 2.994.558 1.145.301 2.29.58 3.435.816 4.63 1.03 9.273 1.759 13.928 2.231 4.68.472 9.36.687 14.053.665 4.643-.021 9.285-.279 13.915-.751 1.762-.171 3.511-.472 5.272-.622-5.989.537-11.99.107-17.954-.794-3.019-.45-6.039-1.03-9.046-1.673-.516-.108-1.057-.322-1.573-.322-.088 0-.176.021-.264.064-.239.086-.465.107-.717.129-2.151.107-4.315.064-6.467-.107-11.613-.945-23.037-5.858-34.662-6.545-2.126-.129-4.265.043-6.391.15-1.46.086-2.856-.086-4.29-.536-1.435-.451-2.869-.987-4.303-1.416-2.189-.644-4.404-.816-6.606-1.138-2.39-.343-4.781-.729-7.171-1.18-2.378-.45-4.768-.987-7.1337-1.609-2.2773-.622-4.5923-1.33-6.8821-2.124zm62.6058-33.066c.981-.042 1.975-.085 2.956-.128.793-.043 1.586-.065 2.366.15.276.086.528.129.805.064.604-.107 1.195.108 1.786.301.29.086.504.021.78 0 .894-.065 1.837.171 2.731.279.956.107 1.925.236 2.881.364 2 .258 4.001.558 5.989.88 15.903 2.511 31.894 6.244 47.897 4.034-18.658-2.167-37.316-4.334-55.975-6.501.843.107 1.988-.666 2.818-.966.957-.343 1.925-.687 2.882-1.073.906-.343 1.824-.708 2.73-1.094.503-.215 1.057-.343 1.547-.622.327-.172.655-.558.957-.794.641-.515 1.295-1.009 1.95-1.481 1.308-.923 2.654-1.738 4.001-2.467 2.717-1.438 5.51-2.468 8.316-3.262 2.843-.794 5.712-1.309 8.58-1.695 2.894-.386 5.788-.665 8.682-.944 1.472-.15 2.931-.279 4.403-.451.503-.064 1.007-.107 1.472-.429.353-.236.654-.601.994-.88.654-.515 1.372-.622 2.089-.708 1.799-.257 3.585-.515 5.385-.772 3.132-.451 6.278-.901 9.423-.558 2.969.322 5.901 1.373 8.87 1.609 3.473.279 6.958-.515 10.405-1.309-6.92-1.18-13.89-1.673-20.848-1.437-3.535.107-7.07.429-10.606.729-3.095.258-6.19.537-9.285.88-3.108.365-6.203.794-9.298 1.416-3.082.622-6.152 1.416-9.184 2.489-1.522.537-3.032 1.137-4.529 1.803-.441.193-.869.429-1.296.665-.176.086-.353.193-.541.193-.189 0-.34.129-.516.214-1.485.859-3.007 1.567-4.542 2.168-1.522.622-3.057 1.137-4.592 1.673-.214.065-.428.15-.642.215-1.598.558-3.196 1.116-4.806 1.652-1.598.558-3.196 1.116-4.806 1.652-.805.279-1.598.558-2.403.837-.403.129-.805.279-1.196.408-.163.064-.339.15-.503.129-.402-.022-.767.3-1.17.214-.679-.129-1.359.172-2.038.343-.805.193-1.598.387-2.403.58-1.598.386-3.208.729-4.806 1.03-3.208.6-6.429 1.008-9.663.987 3.989-.065 7.977-.236 11.953-.387zm-46.376 100.377c-1.912.3-3.875.257-5.787.236-2.013-.022-4.0137-.15-6.0267-.365-4.0261-.429-8.027-1.18-12.0153-2.081-2.0005-.451-4.0009-.944-6.0014-1.438-.9562-.236-1.8998-.451-2.856-.73-.1509-.042-.3019-.107-.4529-.193-.6039-.364-1.2959-.085-1.925-.021-2.4911.3-5.0325.408-7.4985-.472-1.3337-.472-2.6295-1.245-3.9758-1.502-1.2455-.258-2.5037-.065-3.7492-.343-1.0317-.215-2.0382-.751-3.0448-1.181-6.9701-3.047-14.3428-2.124-21.4136.108 10.6313-2.146 21.3256 1.609 31.9066 4.398 1.8621.494 3.7241.945 5.5988 1.202 1.5223.215 3.0447.279 4.5544.665 1.5224.386 3.0196 1.052 4.542 1.502.7548.215 1.5223.386 2.2898.429.39.022.7675 0 1.1449-.043.3271-.043.6291.065.9688.086 3.2208.344 6.4543.58 9.6877.644 3.1705.064 6.3282-.022 9.4862-.322 1.535-.15 3.058-.343 4.567-.579zm155.13 11.393c-14.293 1.223-28.61 1.674-42.916 1.395 13.349 5.772 29.353 2.618 42.916-1.395z"/></g><path d="m125.304 32.2529c14.658 1.1587 29.315 2.3174 43.897 5.1926 12.066 2.3818 24.093 5.9437 36.235 6.0939-27.415 2.9825-52.654-9.9776-80.132-11.2865zm58.013 58.4921c-.239-.0215-.49-.043-.729-.043-4.857-.3218-9.726-.3004-14.582 0-4.857.279-9.701.8369-14.544 1.5879-.479.0643-.906.1716-1.372.4077-.465.236-.943.1287-1.422.1287-1.182.0214-2.365.1931-3.522.472-2.328.5365-4.63 1.3948-6.958 2.0385-5.901 1.6093-11.902 1.6522-17.866 1.5663 2.265.515 4.517 1.0085 6.782 1.5235-2.831 2.2954-5.951 3.3684-9.034 4.3124-3.246 1.009-6.517 1.889-9.788 2.661-4.781 1.116-9.575 1.996-14.3933 2.618-2.403.3-4.8187.558-7.2218.729-.6039.043-1.2078.086-1.8117.129-.4403.022-.8178-.107-1.2456-.15-.8932-.086-1.7614.494-2.6421.429-.239-.021-.4655-.129-.7045-.107-.8052.043-1.623.3-2.4157.45-1.6104.301-3.2334.623-4.8438.945-3.2335.643-6.4669 1.287-9.6878 1.952-6.4543 1.33-12.9086 2.704-19.3628 4.141-6.4543 1.438-12.8961 2.94-19.3378 4.485-.2516.064-.5158.129-.7674.193 14.8713-1.888 29.7551-3.755 44.488-7.746 3.7745-1.03 7.5615-2.189 11.3737-2.146 1.5349.022 3.0573.215 4.5922 0 .6669-.086 1.3337-.429 2.0005-.364.6668.064 1.3085 0 1.9879-.086 3.1327-.408 6.2655-.923 9.3983-1.524 6.2907-1.201 12.5567-2.746 18.8097-4.42 6.278-1.674 12.543-3.497 18.809-5.2569 6.253-1.7595 12.518-3.4546 18.809-4.8922 6.241-1.4376 12.506-2.6178 18.784-3.3259 2.781-.3647 5.599-.5793 8.417-.708zm22.936 163.825c-4.63.622-9.31.107-13.927-.258-3.511-.279-6.958-1.545-10.468-1.738-3.485-.193-6.983.258-10.48 0-8.153-.579-16.08-4.656-24.207-5.922-2.189-.343-4.391-.472-6.593-.622-1.9-.107-3.799-.236-5.687-.343-.516-.022-1.031-.065-1.547-.108-1.17-.107-2.34-.257-3.498-.6-.629-.194-1.245-.558-1.875-.666-2.931-.558-5.875-.944-8.819-1.287-2.995-.343-5.976-.73-8.958-1.223-2.982-.494-5.951-1.094-8.92-1.824-1.5354-.386-3.0829-.794-4.6178-1.245-.7046-.214-1.4217-.429-2.1263-.665-.5661-.193-1.2204-.257-1.7614-.6 10.3545 6.286 21.5525 5.729 32.2585 9.183.931.301 1.913.472 2.756 1.202.327.279.629.493 1.006.558 1.196.214 2.428.15 3.624.107 2.428-.086 4.856-.386 7.284-.408 2.001 0 3.989.923 5.977 1.438 1.811.472 3.623.837 5.447 1.137 1.057.172 2.139.3 3.158.88.453.257.793.515 1.258.579.567.086 1.145.301 1.712.429 2.302.558 4.617 1.03 6.919 1.438 4.668.815 9.348 1.352 14.041 1.652 4.693.279 9.373.322 14.066.129 4.618-.193 9.235-.601 13.84-1.223.038.021.088 0 .138 0zm-27.188-55.317c.453-.257.918-.515 1.371-.772 2.34-1.287 4.769-2.189 7.159-3.219 1.321-.557 2.579-1.33 3.9-1.759 2.227-.73 4.517-1.717 6.782-2.038.365-.065.704 0 1.069.085.969.215 1.925-.257 2.881-.536 2.353-.665 4.731-1.116 7.121-1.33.516-.043 1.045-.086 1.561-.108.276-.021.566-.086.83.022.214.086.428.107.654.086.441-.043.868-.258 1.296-.451.768-.343 1.548-.601 2.328-.772.314-.065.591-.108.88-.322.315-.236.68-.236 1.019-.322 1.561-.365 3.121-.687 4.681-.837 2.29-.215 4.567-.365 6.857-.472 2.264-.107 4.529-.15 6.794.236.654.107 1.296.257 1.95.408 3.07.751 6.14 1.909 9.26 1.759.767-.043 1.509-.257 2.264-.365.491-.064.919.172 1.397.236 1.258.194 2.567-.085 3.825-.15 1.912-.107 3.837-.214 5.749-.322 3.989-.236 7.977-.472 11.978-.708-8.191-.493-16.394-.987-24.584-1.48-8.228-.494-16.457-.987-24.672-.429-1.661.107-3.322.257-4.97.45-6.366.751-12.72 2.082-19.011 3.841-3.158.88-6.291 1.867-9.423 2.94-.403.128-.793.3-1.183.472-.101.043-.176.064-.277.064-.176 0-.339.129-.503.193-.377.172-.755.365-1.145.537-.843.386-1.686.815-2.541 1.115-1.51.515-3.033.816-4.542 1.288-1.359.429-2.705.987-4.052 1.588-1.497.665-2.981 1.394-4.491 2.017-.755.321-1.51.6-2.265.858-.377.129-.755.236-1.145.343-.163.043-.327.107-.49.065-.428-.086-.894.15-1.321.236-1.561.343-3.121.622-4.693.836-1.573.215-3.146.344-4.718.408-.592.022-1.183.022-1.774.022-.139 0-.29-.022-.416 0-.088.021-.176.107-.264.128-.302.086-.616.129-.918.193-.805.172-1.611.322-2.428.494-.302.064-.579.15-.881.3-.591.301-1.258.322-1.875.472-1.384.344-2.78.687-4.164 1.03-2.24.537-4.467 1.073-6.706 1.567 4.278.364 8.58.729 12.833-.236 1.824-.408 3.623-1.073 5.435-1.61 1.283-.386 2.579-.708 3.888-.836 2.856-.279 5.724.343 8.555.987 2.416.536 4.819 1.072 7.235 1.609.868.193 1.572.193 2.428-.086.981-.322 2.013.043 3.007.193 4.856.815 9.713 1.674 14.582 2.382 4.844.708 9.7 1.244 14.569 1.437 2.302.086 4.617.108 6.92 0 1.17-.042 2.327-.128 3.497-.214 1.133-.107 2.29-.386 3.423-.386-18.659-2.167-37.317-4.335-55.975-6.502.843.107 1.988-.665 2.818-.965.755-.279 1.522-.623 2.29-.837.126-.043.264-.043.402-.043.239.021.466.064.718-.022.754-.257 1.497-.686 2.226-1.051.982-.579 1.988-1.159 2.995-1.717zm-70.066 105.526c-2.454.236-4.907.279-7.348.194-1.623-.065-3.246-.194-4.8564-.365-.8052-.086-1.623-.193-2.4282-.301-.7549-.107-1.5601-.128-2.2899-.429-.7549-.322-1.5852-.343-2.3653-.493-.8052-.151-1.623-.322-2.4282-.472-1.623-.322-3.2335-.623-4.8565-.944 2.1641-2.339 4.8187-2.768 7.3476-3.326 4.1645-.923 8.2786-2.361 12.3169-4.313-6.9446.751-13.8644 2.103-20.7339 4.034-1.8746.536-3.7367 1.094-5.6365 1.394-.4152.065-.78.108-1.1701.344-.629.343-1.321.171-1.9753.128-1.5978-.064-3.1956-.15-4.7935-.278-3.1831-.236-6.3662-.644-9.5242-1.395-1.0065-.236-2.013-.515-3.0195-.837-1.9627-.644-3.9254-1.438-5.9133-1.802-3.9129-.73-7.8509.214-11.7259 1.373 1.8494-.022 3.6989-.022 5.5484-.043 2.403-.021 4.8187-.043 7.2092.3 1.5978.236 3.1831.623 4.7683 1.095 1.5476.45 3.0699 1.094 4.6174 1.502 3.0951.794 6.1901 1.523 9.2978 2.21 3.1202.665 6.2529 1.266 9.3731 1.759 3.1203.494 6.2405.901 9.3607 1.18 3.0824.279 6.1649.43 9.2599.408 3.0194 0 6.0394-.172 9.0584-.515.982-.129 1.938-.322 2.907-.408zm155.129 11.394c-14.292 1.223-28.61 1.674-42.915 1.395 13.349 5.772 29.352 2.618 42.915-1.395z" fill="url(#g)"/><g fill="#5f1b3d"><path d="m19 28.4697h262v311.095h-262z"/><ellipse cx="150" cy="27.9527" rx="131" ry="13.9527"/><ellipse cx="150" cy="339.047" rx="131" ry="13.9527"/></g><path d="m23 32.085h254v302.835h-254z" fill="#e58a4a"/><ellipse cx="150" cy="31.5823" fill="#e58a4a" rx="127" ry="13.5823"/><ellipse cx="150" cy="334.417" fill="#e58a4a" rx="127" ry="13.5823"/></svg>