<svg fill="none" height="66" viewBox="0 0 160 66" width="160" xmlns="http://www.w3.org/2000/svg" xmlns:xlink="http://www.w3.org/1999/xlink"><linearGradient id="a"><stop offset="0" stop-color="#cf5c2b"/><stop offset="1" stop-color="#59173e"/></linearGradient><linearGradient id="b" gradientUnits="userSpaceOnUse" x1="121.434" x2="91.4987" xlink:href="#a" y1="-88.2722" y2="-10.7676"/><linearGradient id="c" gradientUnits="userSpaceOnUse" x1="90.5527" x2="63.4128" xlink:href="#a" y1="-24.7583" y2="115.017"/><linearGradient id="d" gradientUnits="userSpaceOnUse" x1="90.1771" x2="55.3483" xlink:href="#a" y1="-20.3996" y2="153.11"/><linearGradient id="e" gradientUnits="userSpaceOnUse" x1="84.3967" x2="81.7556" xlink:href="#a" y1="79.0742" y2="40.8098"/><linearGradient id="f" gradientUnits="userSpaceOnUse" x1="134.804" x2="125.245" xlink:href="#a" y1="16.3669" y2="40.9517"/><linearGradient id="g" gradientUnits="userSpaceOnUse" x1="163.825" x2="81.4865" xlink:href="#a" y1="-54.8869" y2="128.581"/><linearGradient id="h" gradientUnits="userSpaceOnUse" x1="120.945" x2="114.915" xlink:href="#a" y1="14.4982" y2="30.0049"/><linearGradient id="i" gradientUnits="userSpaceOnUse" x1="139.25" x2="87.3151" xlink:href="#a" y1="-30.4459" y2="85.2752"/><linearGradient id="j" gradientUnits="userSpaceOnUse" x1="31.2183" x2="25.1885" xlink:href="#a" y1="27.6057" y2="43.1123"/><linearGradient id="k" gradientUnits="userSpaceOnUse" x1="49.5234" x2="-2.41131" xlink:href="#a" y1="-17.3384" y2="98.3832"/><path d="m159.119 50.392c-.09-1.2604-.18-2.5207-.258-3.7812-.079-1.3222-.169-2.6567-.247-3.979-.053-.9021-.129-1.8659-.158-2.8052-.029-.7786.266-2.0662-.135-2.7683-.236-.4187-.75-.5391-1.206-.6226-.596-.1075-1.192-.2149-1.787-.3223.803-.203 1.584-.4553 2.352-.7693.174-.0753.349-.1506.465-.2996.104-.1367.138-.3224.16-.4832.257-1.7324.07-3.5608.059-5.3161-.023-1.78-.035-3.5725-.058-5.3525-.022-1.6934-.033-3.3994-.056-5.0928-.004-.5563.21-1.7815-.061-2.2743-.213-.4066-.715-.3786-1.1-.4256-.397-.0469-.794-.0443-1.19-.017-.595.0409-1.178.1436-1.761.2462.769-.2275 1.562-.3438 2.33-.5466.501-.1268.99-.3031 1.455-.5657.279-.1625.582-.3004.743-.6105.07-.1241.092-.2849.126-.4335.068-.3095.078-.6309.099-.9525.041-.878.07-1.7559.076-2.646.009-.4451.006-.89011-.008-1.33506-.002-.28432-.109-.5556-.134-.85213-.113-1.1984-.576-2.3451-1.305-3.26756-.729-.9101-1.725-1.57124-2.824-1.87321-.409-.10863-.818-.1678-1.238-.18982-49.346-1.32611-97.7003-1.07625-144.99334.95929-.18661.01357-.38514-.00988-.57152.04077-.18629.06301-.37251.13839-.5704.21383-.3841.15083-.76821.30165-1.14033.50184-.72106.37551-1.39464.87434-1.85692 1.56961-.26575.40966-.4495.86824-.69191 1.27776-.127.21097-.28932.37273-.3929.59592-.4949 1.06633-.98971 2.14506-1.68377 3.08906-.670874.9191-.859837 2.3791-.782575 3.5035.114897 1.5322.159862 3.0772.298095 4.6092.22573 2.4339.04306 4.8704.31563 7.3287.03723.3459.09813.7411.3446.962.17606.1596.40983.2199.63185.2679.72457.1684 1.46072.3244 2.18528.4928-.89449.6239-2.23605.682-2.70793 1.6987-.14954.3348-.17048.7058-.19143 1.0768-.07323 1.3108-.18155 2.6096-.25487 3.9081-.03126.5812-.06244 1.1748-.07036 1.7558-.01975.5565-.05125 1.1006-.10601 1.6572-.10832 1.2988-.412533 2.982-.03093 4.2528.36961 1.2215 1.81682 1.2616 2.81056 1.5519-.52468.0652-.91847.5251-1.23057.9846-.15018.2358-.26535.4714-.40385.7072-.127.211-.24233.4219-.34592.6451-.20716.4463-.37924.9049-.50449 1.3878-.07961.3219-.12469.5695-.1342.9033-.00976.2967-.01952.5935-.02927.8903-.01952.5935-.02736 1.1869-.0352 1.7803-.01569 1.1869-.01971 2.3737-.00039 3.5603.01908 1.1496-.23046 2.2638.23186 3.3858.46233 1.122 1.25033 2.0811 2.23455 2.7053.79681.514 1.69704.7802 2.63084.8236 47.58682 1.9061 95.95282 1.5697 145.05082-.9473 1.295-.0701 2.54-.6221 3.491-1.5677.452-.448.858-.8462 1.193-1.417.416-.6826.796-1.3897 1.153-2.109.876-1.7487 1.972-3.6967 1.819-5.7107z" fill="url(#b)"/><path d="m153.768 56.7447c-49.111 2.5046-97.4647 2.8534-145.05151.9473-2.11201.0136-4.09435-1.5807-4.90079-3.5906-.35587-.9001-.43218-1.8762-.39172-2.8407.01055-.1732.02118-.334.06674-.5073.06834-.2601.18359-.4833.20518-.7554.01071-.1484.03325-.2722.04396-.4206.07674-.767.09506-1.5459.14846-2.3127.03222-.4329.07602-.8782.19-1.2993.12525-.4829.33249-.9169.6923-1.2159 1.55554-1.2586 4.62452-1.2537 6.89958-1.3178.4433-.0152.8516-.0302 1.2249-.0573.9914-.0682 1.983-.0994 2.9749-.1058-2.3571.0029-4.7039-.1922-7.0287-.6098-1.09812-.1908-2.19655-.4309-3.28364-.7206-.2571-.0602-.53778-.1573-.78362-.2793-.33942-.1585-.63265-.3915-.78657-.7367-.13027-.2958-.12083-.642-.12282-.951.00967-.3092-.03907-.6303-.01773-.9395.01904-.6676.09657-1.311.15069-1.9665.05492-.5319.10984-1.0639.14134-1.608.07251-1.4221.14503-2.8442.24088-4.2665.03222-.4329.07587-.9029.354-1.2014.17383-.1866.39498-.2745.61612-.3625.60525-.2388 1.22257-.4158 1.85195-.5312.32632-.0639.65304-.066.9326-.1419.33767-.1135.5939-.1893.95539-.2287 3.46281-.455 6.92561-.8977 10.40001-1.3527.4081-.0521.8279-.1043 1.2476-.1564-5.2318-.6338-10.4754-1.2923-15.70723-1.9262-.23361-.0355-.45547-.0588-.689-.0821-.21019-.0233-.43213-.059-.57319-.2188-.01175-.0123-.0235-.0246-.03525-.0368-.10597-.1477-.11875-.3207-.14329-.506-.25265-2.99-.00419-6.0821-.18707-9.1097-.01279-.173-.06488-1.0133-.11777-1.9772-.06734-1.3965-.17097-2.9905-.20598-2.9903-.24313-3.32386 2.1421-6.20725 5.29188-6.33882 47.2813-2.04782 95.6364-2.29768 144.9464-.93426 3.163.09087 5.608 2.9555 5.385 6.30709-.074 1.13779.143 2.23659-.118 3.38799-.057.2723-.137.5448-.334.7315-.174.1619-.407.2252-.628.276-.594.1522-1.188.3168-1.783.4689-.792.2029-1.572.3934-2.377.4975-4.757.5622-9.491 1.1367-14.237 1.7112-.128.0132-.256.0264-.384.0396-.152.0133-.304.039-.455.0523.385-.0148.758-.0172 1.132-.0196 5.95-.1496 11.912-.287 17.874-.4366.163-.0011.35-.0023.479.1081.152.1227.189.3326.213.5302.037.2718.039.5313.04.7786-.006.8036-.13 1.5708-.124 2.3867.004.717.172 1.4205.177 2.1622-.005 1.0632-.033 2.1265-.061 3.2022-.078 2.4235-.225 4.8845-.455 7.3214-.032.3587-.077.7298-.297.9908-.173.199-.429.3119-.674.4-.151.0628-.303.1132-.466.1513-3.493 1.0857-7.326.2698-10.916.9481-.233.0386-.478.0896-.699.1529-.082.0128-.163.0381-.233.0633.292.0228.584.0333.876.0685 3.934.2713 7.857.6664 11.77 1.1727.455.0589.969.1421 1.24.536.212.2953.215.7032.217 1.0741l.008 1.2238c.008 1.2361.016 2.4723.082 3.7081.081 1.6313.185 3.2624.3 4.9058.052.8033.104 1.6065.167 2.3972.232 3.3116-2.142 6.1826-5.268 6.3511z" fill="url(#c)"/><path d="m158.18 22.0884c-.005 1.0632-.033 2.1265-.061 3.2022-2.017.2108-3.988.3842-5.924.6315-.454.0524-.898.1047-1.352.1695-1.668.1961-3.335.38-5.003.5391-.828.0795-1.667.1591-2.507.2386-.536.0529-1.013.2785-1.526.3437-.723.0912-1.518-.1015-2.254-.1462-.817-.0442-1.634-.0637-2.45-.046-1.634.0352-3.278.1694-4.899.3777-3.265.4166-6.481 1.0925-9.721 1.6821-5.187.9482-10.398 1.6864-15.646 2.1777 2.861.2782 5.7.7544 8.493 1.4163-1.05.0933-2.099.1866-3.149.2552-3.336.244-6.672.3768-10.009.4601-3.3371.0833-6.686.1049-10.0232.1141-3.3372.0215-6.6862.0307-10.0232.0769-3.337.0586-6.6737.1543-10.0099.3365-1.668.0973-3.336.207-4.992.3536-.4198.0398-.828.0795-1.2478.1193-.5015.0527-.9906.2042-1.5036.2693-3.9758.5201-7.9508 1.1639-11.8778 2.0051-6.1061 1.3126-12.2473 2.6008-18.4638 3.0859-1.1197.0814-2.2511.1629-3.3708.2443-5.3485 1.1717-11.1346 1.4439-16.381 2.1577-1.7838.2463-3.6033.3817-5.42309.4676-1.09812-.1907-2.19655-.4309-3.28364-.7206-.2571-.0601-.53778-.1572-.78362-.2793-.33942-.1585-.63265-.3915-.78657-.7366-.13027-.2959-.12083-.6421-.12282-.9511.00967-.3091-.03907-.6302-.01773-.9394.01904-.6677.09657-1.311.15069-1.9666 4.80473-.4513 9.73098-1.9541 14.34718-2.7009 5.9334-.9407 11.986-1.5112 17.9696-1.9083 6.7769-.4393 13.5501.37 20.3062.3265 6.266-.0404 12.5049-.6616 18.7325-1.2333 12.1402-1.1167 24.2569-2.2703 36.3734-3.461-2.638-.0325-5.275-.0896-7.913-.1715-3.361-.102-6.7227-.241-10.0844-.4048-.7821-.032-1.5879-.1381-2.3575-.0466-.8045.1041-1.6211.1341-2.4263.1269-1.5988-.0144-3.1987-.2143-4.7532-.6122-.9117-.229-1.8238-.5322-2.7468-.6993-1.5654-.2743-3.1634-.1774-4.7622-.1918-5.9398-.0483-11.7964-1.6671-17.7353-1.567-1.5635.0225-3.1145.1684-4.6655.3268-1.6442.1713-3.3001.3427-4.9567.4028-.735.0295-1.4931.0838-2.206-.0847-.5493-.1324-1.179-.0666-1.7392-.0753-1.0036-.0183-2.0073-.0365-3.0109-.0548-2.0073-.0365-4.0145-.0483-6.0332-.0476-7.6198.012-15.2131.506-22.8331.4933-3.244-.0038-6.55833-.0566-9.77036-.5304-.01174-.0123-.02349-.0246-.03524-.0369-.10597-.1476-.11876-.3206-.14329-.5059-.25265-2.99-.0042-6.0822-.18708-9.1097-.01278-.173-.06487-1.0133-.11776-1.9772 3.88331-.3835 7.79173-.4953 11.67543-.817 7.604-.6424 15.2102-.951 22.8534-.9632 15.1345-.0234 30.2402.9053 45.3354 2.0195 15.1069 1.1141 30.1808 2.5128 45.2868 3.5528 7.635.5194 15.28.8286 22.923.7794 2.24-.0145 4.503-.1774 6.766-.3651-.007.8036-.13 1.5709-.125 2.3867.04.7786.208 1.4822.201 2.2116zm.381 21.0009c-.067-1.2358-.075-2.472-.083-3.7082-4.822-.5252-9.657-1.0627-14.502-1.3899-8.311-.5522-16.665-.3995-24.983.0126-1.726.0853-3.43.1458-5.143.3793-.828.1166-1.656.2332-2.484.3375-3.323.4417-6.646.7969-9.981 1.0904-1.295.1072-2.6012.2145-3.9075.3095 3.3725-.0465 6.7445-.0929 10.1165-.1394s6.744-.0929 10.116-.1394c1.68-.0232 3.372-.0464 5.052-.0696.84-.0178 1.68-.0232 2.532-.0411.35-.0022.723.0201 1.073-.0687.21-.0508.419-.1387.629-.1771.758-.1285 1.599.0267 2.358.0713.84.044 1.669.0881 2.509.1322 1.67.1005 3.351.2133 5.02.3261 2.638.1932 5.265.4111 7.892.6414 2.873.2535 5.722.5936 8.583.946-6.483.697-12.955 1.4187-19.452 1.8438-14.953.9741-29.905 2.1707-44.8896 1.9458-14.7742-.2014-29.5174-1.0088-44.301-.8517-7.7944.0749-15.5765.2611-23.3461.5584-5.7398.2101-11.55089.2228-17.27615.8778-.11406.4087-.15778.8664-.19 1.2993-.0534.7668-.07172 1.5457-.14846 2.3126 6.38441.2309 12.83421-.2681 19.20511-.3215 7.7828-.0626 15.5662-.0386 23.3504.1091 14.7514.2757 29.4943 1.0461 44.2334 1.223 15.0074.1876 29.9714-1.0461 44.9364-1.9461 7.722-.4578 15.493-.5202 23.217-.6565l.164-.0011c-.116-1.6434-.22-3.2622-.3-4.9058z" fill="url(#d)"/><g fill="#eb924d"><path d="m4.62229 39.8419c-.00769.6182-.00362 1.2486.18682 1.8284-.33943-.1585-.63265-.3915-.78657-.7367-.13027-.2958-.12083-.642-.12282-.9511.00967-.3091-.03907-.6302-.01773-.9394.03895-1.1994.24141-2.3751.29202-3.5745.07252-1.4221.14504-2.8443.24089-4.2665.03222-.4329.07586-.903.354-1.2014.17383-.1866.39497-.2746.61612-.3625.60525-.2388 1.22256-.4158 1.85195-.5312.29123-.076.61795-.0781.89752-.1541.33767-.1134.5939-.1893.95538-.2287 3.46273-.455 6.92563-.8976 10.40003-1.3527-3.7171.8275-7.4343 1.6303-11.16306 2.4579-.72249.153-1.69098.1592-2.29448.67-.12771.0997-.23193.224-.33615.3483-.09263.1118-.17352.236-.27782.3479-.19716.1867-.26526.4838-.35694.744-.24018.7557-.3751 1.5477-.40501 2.3391-.00975.2968-.00776.6058-.04085.9027-.01119.0742-.02238.1485-.03358.2227-.01111.0866-.05738.1488-.08016.2354-.18279.607-.15515 1.2743-.06949 1.8919.03644.2223.10789.4443.15599.6665.12011.5308.0421 1.1.03394 1.644z"/><path d="m138.853 16.5261c-.21-.011-.42-.0219-.63-.0329l1.003-.0065c-.117.0007-.245.0263-.373.0394z"/><path d="m142.402 34.8369c.969.0925 1.939.185 2.908.2529-.234.0385-.478.0895-.7.1526-.747-.1433-1.495-.2866-2.208-.4055z"/><path d="m156.65 33.2242c.148-.6438.109-1.3111.046-1.9659-.089-1.2109-.191-2.4341-.28-3.645-.013-.2348-.05-.4942-.226-.6414-.141-.1227-.339-.1214-.514-.1079-1.447.0587-2.882.1174-4.305.1761 1.551-.1584 3.089-.601 4.484-1.327.407-.2127.826-.475.975-.9087.08-.223.078-.4703.077-.7175-.036-1.9159-.365-4.0524-.599-5.9547-.681-.6755-1.697-.7555-2.631-.8113-3.758-.223-7.529-.4336-11.276-.6567-.899-.056-1.903-.0866-2.86-.1299 5.95-.1496 11.912-.2869 17.874-.4366.164-.0011.35-.0023.479.1081.153.1227.189.3326.214.5302.135 1.087-.103 2.0899-.096 3.1654.004.717.172 1.4205.177 2.1622-.036 3.4369-.188 7.0229-.527 10.5236-.033.3587-.077.7299-.297.9909-.174.1989-.43.3118-.675.4-.151.0627-.302.1132-.465.1513.196-.2485.346-.5709.425-.9052z"/><path d="m3.41406 15.3239c-.02597-.4078-.26532-4.9555-.33534-4.9551-.24313-3.32386 2.1421-6.20725 5.29188-6.33882 47.2813-2.04782 95.6364-2.29768 144.9464-.93426 3.163.09087 5.608 2.9555 5.385 6.30709-.074 1.13779.143 2.23659-.118 3.38799-.057.2723-.137.5448-.334.7315-.174.1619-.407.2252-.628.276-.594.1522-1.177.329-1.771.4689.51-.4978 1.102-1.0827 1.33-1.8011.161-.4832.03-.9027-.125-1.3591-.238-.7154-.289-1.39503-.317-2.14894-.041-.9269.102-2.25057-.591-2.98784-.529-.55289-1.22-1.03056-1.876-1.37247-1.627-.83014-3.507-1.00346-5.293-1.06612-.093.0006-.175-.01123-.269-.01063-3.291-.09005-6.593-.08112-9.881.29858-.397.03964-.746.16551-1.131.24216-.477.10198-1.05-.01795-1.54-.03952-1.121-.05458-2.23-.09689-3.35-.13911-2.229-.07217-4.47-.11954-6.711-.14218-1.68-.01389-3.349-.00314-5.029.00769-.525.00339-1.062.00684-1.587.01023-1.015.00654-2.03.01309-3.057.0197-1.412.0091-2.824.01821-4.236.01494-.07.00046-.14.00091-.198.00128-2.24.01444-4.469.01645-6.71.03089-1.12.00722-2.24.01444-3.349.00922-.513.00331-1.084.08117-1.587-.01449-.5137-.09559-.9242-.42672-1.4613-.47271-.4904-.04629-.9916.04348-1.4697.09601-1.2245.10679-2.4373.23823-3.6498.39439-.5481.06534-1.1542.16815-1.5131.60314-.1274.14917-.2196.33519-.3705.45979-.3367.26177-.8162.09179-1.2139-.05399-.7836-.27928-1.6131-.43464-2.4535-.46631-.7587-.0322-1.5045.12096-2.2633.0764-.4786-.02164-.9344-.14232-1.4018-.23821-1.8461-.37133-3.7716-.38364-5.6278-.52002-1.3776-.10238-2.7667-.1676-4.1555-.2081-4.4702-.14426-8.9503-.01648-13.4064.21003-2.2397.11334-4.4676.25132-6.707.4141-1.0264.06843-2.1567.31059-3.1728.1688-.292-.03521-.5728-.15702-.865-.21695-.3037-.05985-.607-.04553-.9221-.0435-1.2368.02033-2.4852.04074-3.7221.04871-1.4468.02169-2.9054.01873-4.364.02813-.4901.00316-.9679.10514-1.4463.10822-.4434.00286-.8758-.09325-1.3192-.09039-.9217.0183-1.8306.20959-2.6801.58593-.3257.15045-.6631.31333-1.0249.3033-.6536-.03287-1.1013-.68518-1.6983-.97803-1.4047-.69559-2.843.66116-4.2817.1265-.7135-.26737-1.4367-.22562-2.1952-.22073-.9569-.0062-1.9137-.00003-2.8705.00614-3.2438.03327-6.4868.17779-9.7051.54468-1.6092.18344-3.2062.42861-4.80291.7356-.76917.1533-1.54944.39321-2.3306.49715-.22154.02615-.39657.02728-.60557.18933-.95227.71078-3.55227 4.6711-1.66472 6.0435.11725.0858.24608.1591.3865.22.19892.0853.40919.121.6197.1938.2106.0852.47857.0216.70028.0202.53675-.0034 1.0735-.0069 1.5985-.0227.57176-.0036 1.14344-.0197 1.68131.1499-1.21178.2798-2.42363.5472-3.63548.8146-.39617.0891-.79235.1782-1.16462.3537-.05811.0374-.12804.0503-.19789.0754-.25607.1006-.44062.4355-.53229.6957-.24066.6815-.08419 1.4222-.18466 2.1275-.17857 1.2621.06356 2.6204.1883 3.8682.16205 1.606.35918 3.2242.59124 4.8298-.23361-.0356-.45547-.0589-.689-.0821-.22186-.0233-.45547-.0589-.60836-.2433-.10597-.1477-.11875-.3207-.14329-.506-.25281-3.0147-.00435-6.1069-.17548-9.1221z"/><path d="m159.026 50.392c-.179-2.4342-.334-4.8685-.467-7.303-.08-1.6437-.079-3.2879-.09-4.932-.002-.3708-.016-.7663-.217-1.0741-.271-.3938-.785-.477-1.24-.5359-3.913-.5064-7.836-.9014-11.77-1.1727 3.505.6944 7.128 1.5858 10.46 2.541.655.1935.705.7248.977 1.3782.261.6535.29 1.3951.317 2.0996.014.2966.016.5932-.076.8782-.194.6317-.822.9819-1.38 1.2822.421.1209.842.2418 1.274.375.106.0364.211.0604.281.1465.083.086.119.2341.131.37.171 1.1733.051 2.4103.07 3.597.017.7663.021 1.5327.038 2.2991.013.2101.084.4074.133.6296.072.4446.029.9023-.097 1.3358-.251.8916-.818 1.6865-1.549 2.198-1.267.8859-2.852 1.0816-4.368 1.2026-2.531.2141-5.075.2058-7.594.4816-.84.0796-1.667.1715-2.507.2511-1.668.1591-3.347.2935-5.015.4279-3.161.2429-6.333.4364-9.495.568-7.489.3203-14.992.3439-22.496.3428-.898-.0189-1.808-.013-2.707-.0072-.735.0047-1.434.1081-2.1584.0386-1.7631-.1741-3.5112.171-5.2602.3924-2.0404.248-4.234.2869-6.0031-.8143-.5624-.3549-1.1138-.8211-1.7674-.8416-.5369-.0089-1.0365.3157-1.525.5661-.9305.4758-1.9556.742-2.9816.8846-.0233.0002-.035.0002-.0582.0127-2.1801.3108-4.2815.1636-6.4646.017-1.5993-.101-3.2777.1942-4.8102-.4017-1.1815-.4498-2.4225-1.097-3.6338-.743-.431.1264-.8144.3761-1.2217.5518-.7913.3389-1.6661.4063-2.5176.4613-.5365.0281-1.0731.0563-1.6097.0845-2.2282.0885-4.4687.0906-6.698.0061-.9338-.0434-1.8905-.0249-2.8025-.3034-.6314-.1937-1.249-.0661-1.9022-.0124-2.7059.2028-5.4243.2698-8.1437.1884-1.1088-.0299-2.2177-.0846-3.3151-.164-.537-.0336-1.0978-.1413-1.6345-.1378-.3734.0024-.711.1282-1.0844.1306-2.2521.0021-4.4927-.0205-6.7449-.0307-3.8392-.0124-7.6901-.037-11.5293-.0493-2.6229.4001-4.8314-.0678-7.4367-.5578-2.13807-.4066-4.466-1.3064-5.36636-3.4021-.37905-.8753-.44368-1.8515-.41473-2.7912.00983-.2844.03142-.5565-.00542-.8406-.03668-.2594-.11988-.4937-.15655-.7531-.12219-.8522.11648-1.8427.3095-2.6722.10231-.421.2278-.8668.51744-1.1901.25479-.2984.6154-.4738.97633-.5997.95475-.3276 1.96943-.4083 2.97253-.4766 1.44636-.0958 2.89256-.204 4.33896-.2999.2916-.0142.5832-.0408.8748-.0551-.036-.1481-.0603-.2963-.0613-.457l.0113-.0619c-.887-.019-1.7738-.0133-2.6607-.0199-2.2867.0642-5.34393.0715-6.89955 1.3178-.69652.5608-.81826 1.5876-.88238 2.5028-.06419.9029-.08156 1.8301-.19242 2.7333-.03326.2722-.13684.4954-.20518.7554-.04556.1734-.05619.3342-.06674.5073-.04038.9769.03592 1.953.39172 2.8408.79486 2.0222 2.77711 3.6042 4.90079 3.5905 47.58686 1.9061 95.94076 1.5697 145.05176-.9473 3.126-.1561 5.499-3.0271 5.256-6.3386z"/><path d="m12.0042 33.3775c.0043.6676.032 1.3473.0713 2.0146.0139.3337.0393.6673.0648 1.0009.0133.2472.0034.5192.0516.7538.0479.1975.0957.3702.0971.5804.027.5685.054 1.1493.0927 1.7177.0541 1.1494.1198 2.2863.1739 3.4356.0795 1.4706.1472 2.9289.2267 4.3995.0403.8156.1731 1.5194.586 2.209.0826.1355.1535.271.2476.394.153.2092.3407.3563.5748.4661.8543.3901 1.8242.594 2.7469.7364 1.4251.2257 2.8607.2782 4.2963.3184 18.9192.5827 37.8619 1.1776 56.785.5612 2.31-.0767 4.7016-.154 6.8545.747-.9921-1.848-3.3625-2.1047-5.3698-2.1412-21.03-.3713-42.072-.8043-63.0406-2.5235-.5721-.0457-1.2027-.1158-1.6139-.5582-.2938-.3072-.4133-.7515-.5094-1.1712-1.103-4.5792-1.3441-9.3865-.7207-14.0635.0331-.2845.1128-.5941.0993-.8783-.0136-.2966-.0505-.5931-.0525-.9021-.0156-.618.0037-1.2486.058-1.8671-.0826-.1478-.281-.1465-.4325-.1208-.3964.052-.7929.0916-1.201.1437.026.4078.0051.7912-.0389 1.1994-.0108.136.0131.2348.0257.3707.0251.2718-.0198.5564-.0298.8161-.0208.3957-.0298.8037-.0389 1.1994.0025.3832-.0067.7788-.0042 1.162z"/><path d="m85.7012 52.9291c.2293-.6319 1.0104-.7482 1.6521-.7647 5.0984-.1441 10.1852-.2758 15.2837-.4199 4.807-.1299 9.625-.2599 14.432-.4021 1.552-.0471 3.209-.0578 4.498.8611-.025-.1977-.061-.3952-.085-.5929.547-.1024 1.072-.2294 1.632-.1836.304.0228.618-.0905.921-.1295.711-.1035 1.434-.1452 2.146-.1869 3.954-.2109 7.921-.2983 11.887-.534 1.003-.056 1.995-.1365 2.998-.2172.991-.0805 1.994-.1488 2.973-.3035.14-.0256.268-.0759.408-.0891.187-.0136.373-.0271.56-.0407 1.003-.093 2.017-.2973 2.947-.7607 1.164-.5762 2.184-1.5965 2.549-2.8969.16-.582.191-1.188.222-1.7939.099-2.7698.046-5.5509-.17-8.3063-.13-.1351-.455.1142-.5.3123-.466 2.018-.814 4.06-1.034 6.1136-.132 1.2247-.241 2.5234-.946 3.4922-.775 1.0558-2.08 1.4845-3.315 1.7892-6.559 1.6493-13.349 1.8538-20.08 2.0455-6.277.1765-12.554.3653-18.819.5416-5.229-.1517-10.5789.7605-15.7752.2006-1.4597-.1636-2.9317-.4261-4.3888-.1942-.1049.013-.2214.0385-.3026.1256-.0579.0621-.069.1487-.0918.2354-.1709.644.1144 1.458.3986 2.099z"/></g><path d="m150.493 40.7801c-.027-2.3486-.066-4.6972-.104-7.0581-.026-2.2621-.064-4.5118-.09-6.7739-.041-2.7194.046-5.4644-.275-8.1573-.062-.5312-.193-1.0743-.185-1.6059.006-.8036-.149-1.4207-.493-2.1849-.438-1.0356-1.063-1.9835-1.768-2.8443-1.53-1.8939-3.712-1.9664-5.988-2.0506-2.393-.0958-4.773.0184-7.153.0214-2.661.0048-5.333.0096-7.993.0021-3.244-.0039-6.477-.0201-9.721-.0363s-6.488-.0323-9.732-.0485c-1.622-.0019-3.244-.0162-4.866-.0181-.339.0022-.689-.03264-1.015.056-.21.0508-.396.1385-.606.1646-.7228.0788-1.5525-.1136-2.2652-.25736.0819-1.76832.3623-3.52555.8414-5.23462-.6538 1.75964-1.4012 3.4828-2.254 5.14483-.0576.11165-.1152.22325-.2199.27335-.1047.0502-.2331.0386-.3382.0269-.2453-.0355-.5022-.0585-.7476-.1188-.5611-.14469-1.1558-.079-1.7392-.0753-2.5089-.00854-5.006-.0048-7.5148-.001-4.9243.007-9.8484.0511-14.7606.1199-5.2739.071-10.5486.0309-15.8346.0402-1.4353-.0031-2.8706-.0062-4.2941.003-.6185.004-1.2137-.0169-1.8079.1229-.6175.1523-1.3768.0336-2.0071.0006-.3502-.0225-.7238-.0572-1.0054-.2903-.2815-.22066-.4121-.57832-.5427-.92362-.2614-.71532-.5227-1.43064-.784-2.14596.0404.84036.1274 1.66807.2611 2.49547.0368.27173.0623.61771-.1702.75521-.0697.0375-.163.0505-.2446.0634-.2799.0265-.5711.1025-.8516.0425-.5374-.1077-1.0739-.0672-1.6224-.0637-5.9976.0387-11.972.0525-17.9465.0663-3.3489.0092-11.4118-1.74373-12.4776 3.0844-.1474.6685-.1313 1.3607-.1735 2.0532-.1033 2.0775-.0198 4.1662.0287 6.2551.1377 6.8849.3688 13.7691.6698 20.6405.0418 1.0506.0953 2.1134.2304 3.1633.1104.8275.0591 1.9157.6816 2.5545.2115.2212.3645.4304.5529.6888.3767.5044.8926.8843 1.4544 1.1526 1.2057.5856 2.5953.7374 3.9259.7906 4.3421.1946 8.6723.3521 13.0022.4602 4.365.1202 8.7182.2281 13.0828.2865s8.7174.0922 13.0816.0888c3.9557-.0008 7.9115-.014 11.8672-.0271 2.0186-.013 4.0373-.026 6.0559-.039 2.182-.0141 4.8145-.7481 6.8286.3392 1.007.5374 1.8528 1.4097 2.3382 2.4944-.0873-.8771-.0697-1.7673.053-2.6458 1.5854-.2451 3.1713-.4037 4.7698-.4387.6883-.0168 1.3541.0902 2.0425.0734.8051-.0052 1.6219-.0228 2.427-.028 3.2437-.0457 6.4877-.0913 9.7307-.1493 2.007-.0377 4.014-.0753 6.032-.113 4.364-.0776 8.716-.2169 13.079-.4181.781-.0421 1.575-.072 2.356-.1141 6.008-.286 12.015-.6956 18.009-1.241.513-.0528 1.003-.1054 1.481-.2074.769-.1656 1.49-.4546 2.117-1.0273.765-.6972 1.507-1.4438 2.015-2.3618.819-1.4764.598-3.1562.576-4.825zm-3.235 3.2103c-.312.5583-.892 1.1183-1.367 1.5417-.116.0997-.291.2244-.745.3139-.338.0763-.734.116-1.131.1556-5.749.5192-11.768.9289-17.881 1.2402-.781.0421-1.551.0718-2.333.1016-4.573.2025-8.819.3412-12.996.4175-12.4029.2407-24.6193.406-36.3345.4815-5.2508.0338-10.5017.0553-15.7645.0521-4.3176-.0092-8.7169-.0303-13.0348-.089-4.318-.0587-8.7061-.154-13.0361-.2745-4.33-.1204-8.6952-.2777-12.9673-.4727-.9454-.031-2.0195-.123-2.7804-.4889-.1873-.0977-.2811-.1713-.3046-.1959-.1413-.1968-.3179-.4306-.5178-.6765-.0125-.1236-.0251-.2595-.0374-.3707-.0248-.2223-.0378-.4324-.0625-.6424-.1108-.8894-.1517-1.8039-.2054-2.9038-.3122-6.7972-.5436-13.7185-.6693-20.554l-.0192-1.1619c-.0459-1.6933-.0795-3.2878.0037-4.8584.0106-.1731.0094-.3585.0198-.5564.0092-.3833.0186-.7295.064-.9276.1023-.4209 1.2197-.8608 3.5418-.8758 1.1435-.0074 2.3693.0836 3.4434.1633.9223.0805 1.7979.1367 2.5447.1319 5.3326-.0096 10.6769-.0317 16.0211-.0662l2.9988-.0193c3.9906-.0257 7.9813-.0391 11.9838-.0402l3.8508-.0001c2.8122.0066 5.6361.0008 8.4482-.0173 1.1785-.0076 2.3687-.0153 3.5705-.0354 2.9753-.0439 5.9391-.0754 8.9145-.0945 10.07-.065 20.3387-.0075 30.2577.0398 7.784.0364 15.847.0709 23.735.0572l.386.0099c.7-.0046 1.376-.0213 2.077-.0258.676-.0167 1.353-.0211 2.018-.0254.98-.0063 1.797.0008 2.532.0332l.082-.0006c2.136.0975 3.129.2024 3.717.928.6.7378 1.013 1.4151 1.297 2.0684.213.5055.214.6415.215.8393-.007.6429.09 1.1985.151 1.6432.012.1235.037.2717.061.3952.222 1.8776.223 3.8061.236 5.8581-.008.6429-.003 1.2857.012 1.9285l.194 13.7949c.014.309.016.5933.029.8775.018.9765.047 1.8417-.218 2.3008z" fill="url(#e)"/><g fill="#eb924d"><path d="m12.0333 29.0141 3.5657-.7771-.154-.3575-3.6959.4936z"/><path d="m146.335 16.862 4.144.3441-.006-.9889-4.479.239z"/><path d="m146.75 35.7604 4.592.8975-.099-.7782-4.927-.4256z"/><path d="m133.311 31.6928c-3.502-2.0419-9.298-1.3741-12.045 1.4251-1.727 1.7666-1.8 5.043.044 6.7742 4.05 3.8185 11.111 2.1288 13.635-2.6345.047-.0497.093-.0995.151-.137 1.937-1.8791.528-4.973-1.785-5.4278z"/></g><path d="m134.127 29.8705c-3.502-2.0419-9.297-1.3741-12.045 1.4251-1.727 1.7666-1.799 5.043.044 6.7742 4.05 3.8186 11.111 2.1289 13.636-2.6345.046-.0497.092-.0995.151-.1369 1.936-1.8792.528-4.973-1.786-5.4279z" fill="url(#f)"/><path d="m133.307 31.0502c-3.502-2.0419-9.298-1.3741-12.045 1.4251-1.727 1.7666-1.8 5.043.044 6.7742 4.05 3.8186 11.111 2.1289 13.635-2.6345.047-.0497.093-.0995.151-.1369 1.937-1.8792.528-4.973-1.785-5.4279z" fill="url(#g)"/><path d="m120.001 24.1633c-2.214-1.2962-5.864-.8647-7.591.9019-1.09 1.1072-1.135 3.1844.027 4.2771 2.56 2.4065 7.01 1.3394 8.601-1.6625.035-.025.058-.0622.093-.0871 1.218-1.1947.33-3.1422-1.13-3.4294z" fill="#eb924d"/><path d="m120.516 23.0236c-2.214-1.2961-5.863-.8646-7.591.9019-1.089 1.1073-1.134 3.1844.028 4.2772 2.559 2.4065 7.01 1.3393 8.601-1.6626.035-.0249.058-.0621.093-.0871 1.217-1.207.33-3.1545-1.131-3.4294z" fill="url(#h)"/><path d="m119.997 23.7551c-2.214-1.2962-5.864-.8647-7.591.9019-1.09 1.1196-1.135 3.1844.027 4.2771 2.56 2.4065 7.011 1.3394 8.601-1.6625.035-.025.058-.0622.093-.0871 1.218-1.1947.33-3.1422-1.13-3.4294z" fill="url(#i)"/><path d="m30.2779 37.2765c-2.2138-1.2961-5.8635-.8646-7.5907.902-1.0898 1.1072-1.1348 3.1844.0275 4.2771 2.5594 2.4065 7.0101 1.3394 8.601-1.6625.0349-.025.058-.0622.0928-.0872 1.2176-1.1946.3298-3.1421-1.1306-3.4294z" fill="#eb924d"/><path d="m30.7935 36.1242c-2.2138-1.2961-5.8634-.8646-7.5907.9019-1.0897 1.1196-1.1347 3.1844.0275 4.2772 2.5594 2.4064 7.0101 1.3393 8.6011-1.6626.0348-.0249.0579-.0622.0927-.0871 1.2176-1.1946.3299-3.1421-1.1306-3.4294z" fill="url(#j)"/><path d="m30.274 36.8683c-2.2138-1.2961-5.8635-.8646-7.5908.902-1.0896 1.1196-1.1347 3.1844.0276 4.2771 2.5594 2.4065 7.0101 1.3394 8.601-1.6625.0349-.025.058-.0622.0928-.0872 1.2176-1.1946.3298-3.1421-1.1306-3.4294z" fill="url(#k)"/><path d="m12.7613 18.3026c-.0213-3.3136 2.6476-6.0172 5.9612-6.0385l118.9975-.767c5.523-.0356 10.029 4.4126 10.064 9.9353l.113 17.4957c.036 5.5227-4.413 10.0287-9.935 10.0643l-116.9978.7541c-4.4182.0285-8.023-3.5301-8.0514-7.9483z" fill="#eb924d" opacity=".9"/><path d="m76.4029 37.0209c.0263.0389.059.0517.0979.0385.039-.0133.078-.0266.117-.0398.182-.0403.2991-.0606.3512-.0609.052-.0134.1105-.0268.1755-.0402.104-.0267.2079-.0599.3118-.0997.1169-.0528.2338-.0926.3508-.1194.026-.0132.0585-.0199.0976-.0202.052-.0133.0909-.0266.1169-.0398.0778-.0526.1362-.0855.1752-.0988.0519-.0264.0908-.0526.1166-.0789.1296-.105.2138-.1641.2528-.1774.039-.0132.0714-.033.0973-.0592.1819-.0532.286-.0735.3121-.0606.1043.0254.157.1097.1579.2529-.0119.1824-.0176.2996-.0173.3517.0133.039.0201.091.0205.1561.0137.1041.0209.2017.0215.2928.0005.0782.0011.1693.0017.2735.0003.039.0005.0781.0008.1171.0133.039.02.0715.0201.0976.0005.0651-.0121.1368-.0376.2151-.0125.0782-.0186.1498-.0182.2149.0144.2083.0156.4036.0038.586-.038.1695-.0503.2802-.0369.3322.0133.052.0201.0976.0204.1366-.0124.0913-.025.1695-.0376.2346-.1293.1311-.2265.2033-.2915.2168-.0651.0004-.1105.0332-.1361.0985-.0781.0135-.1301.0269-.156.0401-.013.0131-.0324.0262-.0584.0394-.0906.0787-.162.1183-.214.1186-.0391.0002-.0781.007-.1171.0203l-.2337.0991c-.1429.053-.2404.0797-.2925.0801-.0521.0003-.104.0267-.1557.0791-.0521.0003-.1041.0137-.156.0401-.039.0132-.091.0266-.156.04-.1301.0269-.2211.047-.2731.0604-.0909.0396-.1559.0596-.1949.0598-.0391.0003-.0846.0071-.1366.0204-.065.0135-.1366.0205-.2147.021-.065.0134-.1366.0269-.2146.0404-.1951.0403-.3317.0542-.4099.0417-.0781.0005-.1562.014-.2341.0406-.1042.0006-.1888.0077-.2538.0211-.065.0135-.1301.0204-.1952.0208-.0781.0005-.1563-.0055-.2345-.018-.0652-.0126-.1369-.0251-.2151-.0377-.0519.0264-.1169.0333-.1952.0208-.0651-.0126-.1499-.0316-.2542-.0569-.1043-.0124-.176-.0249-.2151-.0377-.1563.001-.2605-.0048-.3126-.0175-.0392-.0128-.0848-.0255-.137-.0382s-.0978-.0189-.1369-.0187c-.039.0003-.0846-.0059-.1368-.0186-.0912-.0124-.1564-.025-.1956-.0378-.0391-.0128-.0782-.0255-.1174-.0383-.1565-.0381-.2478-.0635-.2739-.0764l-.1767-.1356c-.1043-.0253-.2087-.0637-.3132-.1151-.0393-.0258-.0785-.0451-.1176-.0579-.0261-.0128-.0588-.0386-.0982-.0775-.0262-.0389-.0655-.0646-.1176-.0773-.0392-.0128-.0784-.0321-.1176-.0579-.1438-.0902-.2223-.1418-.2354-.1547-.0001-.013-.0067-.026-.0198-.0389-.0914-.0385-.1436-.0642-.1567-.0772-.0001-.013-.0132-.0259-.0393-.0388l-.1961-.1159c-.0786-.0776-.1506-.1292-.2158-.1548-.0265-.065-.0659-.1103-.1181-.136-.0393-.0388-.0722-.0907-.0987-.1556-.0916-.0776-.1571-.1292-.1963-.155s-.072-.0647-.0984-.1166c-.0392-.0258-.0719-.0516-.0981-.0775-.0133-.0389-.0331-.0714-.0593-.0972-.0523-.0388-.0853-.1102-.099-.2143-.0786-.0776-.118-.1294-.1182-.1554-.0002-.0261-.0068-.0521-.02-.078-.0788-.1037-.1313-.1685-.1575-.1943-.0788-.0907-.1182-.1425-.1182-.1555-.0001-.0131-.0068-.0325-.0199-.0585-.0924-.1817-.1582-.292-.1975-.3308-.0004-.0651-.0072-.1106-.0204-.1366-.0132-.0259-.0199-.0584-.0202-.0975-.0659-.1298-.099-.2077-.0991-.2337-.0003-.0391-.0005-.0716-.0007-.0977-.0399-.1299-.0663-.1949-.0793-.1948 0 0-.0001-.0065-.0002-.0195-.0663-.1949-.1062-.3183-.1195-.3703-.0135-.0651-.0334-.1235-.0598-.1754-.0268-.1301-.0469-.2146-.0602-.2536-.0003-.039-.0071-.0911-.0205-.1561-.0005-.0781-.0076-.1562-.0211-.2342-.0136-.0911-.0204-.1431-.0205-.1562-.0002-.026-.0004-.0651-.0008-.1171.0126-.0652.0123-.1173-.001-.1563s-.033-.0714-.0592-.0973c-.0263-.0389-.0396-.0778-.0398-.1169.0638-.1957.0956-.3196.0952-.3717-.0004-.0651-.0009-.1432-.0015-.2344.0253-.1173.0312-.2085.0178-.2735-.0134-.0651-.0139-.1302-.0013-.1953-.0002-.0391-.0005-.0782-.0007-.1172-.0003-.0521.0124-.0913.0383-.1175-.0264-.0519-.0331-.0909-.0203-.117.0258-.0393.0451-.0784.0578-.1176-.0009-.1432-.0013-.2148-.0013-.2148.0129-.0131.0193-.0327.0191-.0587.0253-.1174.0442-.2152.0567-.2934.0255-.0913.051-.1696.0766-.2349.0384-.1044.0576-.1631.0575-.1761-.0002-.0261.0062-.0521.019-.0783.0516-.0784.0838-.1307.0967-.1568.0128-.0262.0257-.0523.0385-.0784.0508-.1957.1085-.3458.1729-.4504.0644-.1045.1095-.183.1352-.2352.0257-.0523.0515-.0915.0774-.1177-.0004-.0521.0124-.0912.0383-.1174.0389-.0263.0713-.0526.0971-.0788.0644-.1176.1095-.183.1355-.1962.0643-.1176.0965-.1829.0964-.1959.1163-.131.1875-.2031.2134-.2162.026-.0132.0519-.0329.0778-.0591.0905-.1048.1291-.1636.116-.1766-.0001-.026.0063-.0391.0193-.0392.039-.0132.0649-.0329.0778-.0591.0258-.0392.0516-.0719.0775-.0981.1165-.1049.1812-.1639.1941-.177.013-.0132.0324-.0263.0584-.0395.0515-.0915.0837-.1372.0967-.1373.0261-.0002.039-.0133.0389-.0393.1296-.092.2009-.1446.2138-.1577.0259-.0132.0519-.0329.0777-.0591.1037-.0788.162-.1182.1751-.1183.0259-.0132.0454-.0263.0583-.0394.1297-.079.201-.1315.2138-.1577.1166-.0919.1814-.1379.1945-.1379.0259-.0132.0388-.0328.0386-.0589.1558-.0791.2467-.1188.2727-.1189.0261-.0002.0521-.0069.078-.0201.1948-.0793.3182-.1322.3701-.1586.026-.0132.052-.0199.078-.02.039-.0133.091-.0267.156-.0401.0259-.0132.0519-.0264.0779-.0396.0389-.0132.0844-.0266.1364-.0399.13-.0399.195-.0599.195-.0599-.0001-.013.0128-.0196.0389-.0197.091-.0267.1494-.0466.1754-.0598.0259-.0132.0715-.02.1366-.0204.1692-.0141.3254-.0151.4687-.003.1303.0122.2215.0116.2735-.0018.052-.0133.1105-.0202.1756-.0206.0521-.0004.1303.0121.2346.0375l.2149-.0014c.1304.0383.1957.0574.1957.0574-.0001-.0131.0128-.0196.0389-.0198.1043.0254.163.038.176.0379.026-.0132.052-.0133.0781-.0005.0521-.0003.0978.0124.137.0382.0523.0257.1109.0253.1758-.0011.1436.0641.235.1026.2742.1154.0521.0127.1108.0253.176.0379.1305.0513.2219.0897.2742.1154.0652.0126.1239.0383.1763.077.0779-.0265.1497.0056.2154.0963.1307.0773.2026.1159.2156.1158.0131-.0001.0261.0063.0392.0193.0655.0647.1179.1099.1571.1357.0393.0258.072.0581.0983.097.0657.0907.1051.1426.1182.1555.013-.0001.0261.0063.0392.0193.0393.0388.0786.0776.118.1164.0523.0387.0916.0841.118.136.1049.1035.1573.1552.1573.1552.0524.0518.0917.0971.118.136.0393.0258.072.0581.0983.097.1049.1035.1574.1683.1575.1943.0001.013.0067.0325.0199.0585.1053.1686.1645.2593.1776.2723.0526.0908.0986.1556.138.1944.0262.0389.046.0778.0593.1168s.0331.0779.0593.1168c-.0127.0391-.0125.0782.0008.1172.0263.0389.0525.0713.0788.0971.0263.0519.0463.1234.0599.2145.0136.078.0335.1495.06.2145.0263.0389.0461.0778.0594.1168.0131.0259.0329.0649.0593.1168.0271.1561.0406.2341.0406.2341.0002.0391.007.0781.0203.117.0132.026.0264.0585.0397.0975.0137.1171.0141.1756.0011.1757 0 0 .0066.013.0198.039l.0599.2144c.0268.104.0404.1951.0409.2732.0002.0391.007.0781.0203.1171.0131.0259.0199.0584.0201.0975-.025.1564-.0374.2607-.037.3127.0132.039.0135.0716.0006.0977-.1164.1179-.1876.19-.2135.2162-.0128.0261-.0322.0458-.0582.059-.1038.0527-.1622.0857-.1751.0988.0001.013-.0064.0261-.0193.0392-.1428.066-.2337.0991-.2728.0994-.026.0001-.052.0133-.0779.0395-.1039.0398-.1753.0728-.2142.0991-.0259.0262-.0517.0524-.0776.0786-.13.0399-.1948.0729-.1947.0989-.0778.0396-.1427.0726-.1947.0989-.052.0134-.0974.0332-.1363.0595-.1427.0791-.266.145-.3698.1977-.1297.079-.2206.1251-.2726.1385-.052.0133-.0909.0331-.1168.0593-.1038.0528-.1687.0858-.1947.099-.0259.0131-.0518.0328-.0777.059-.1296.092-.2139.1447-.2529.1579-.026.0132-.0518.0394-.0776.0787-.0261-.0129-.0652-.0061-.1171.0202-.0519.0264-.0973.0528-.1362.079-.1558.0662-.2597.1059-.3117.1192-.0391.0003-.0715.02-.0973.0593-.0391.0002-.078.0135-.1169.0398-.026.0132-.0585.0264-.0974.0397-.039.0132-.0845.0201-.1366.0204-.0392-.0128-.0782-.006-.1171.0203-.1167.0789-.188.1184-.2141.1185-.0258.0263-.0648.046-.1168.0594-.039.0133-.0779.0265-.1169.0398-.1168.0659-.2012.099-.2533.0993-.039.0003-.0715.0135-.0974.0397-.1168.0528-.1817.0858-.1947.0989-.1037.0658-.1751.0988-.2142.099-.039.0003-.078.0136-.1169.0399-.2078.0794-.3181.1387-.3309.1779.0011.1692.0147.2603.0408.2732.0917.0775.1506.1227.1767.1355.0391.0128.0783.0321.1175.0579.0263.0389.0525.0582.0785.0581.0391-.0003.0783.0125.1175.0383.0261.0128.0523.0322.0785.0581.0391.0127.0783.0255.1174.0383.0524.0387.1241.0578.2152.0572.0652.0126.1174.0253.1565.038.0391-.0002.0847.006.1369.0187.1043.0254.1825.0379.2346.0375.1562-.014.2603-.0147.3125-.002.0652.0126.1173.0188.1564.0185.0651-.0004.1301-.0073.1951-.0207.065-.0265.13-.0399.1951-.0404.1563.012.254.0114.293-.0019.052-.0133.104-.0202.1561-.0205zm-.8132-4.9558c-.0264-.0519-.0462-.0973-.0594-.1363-.0003-.0391-.02-.065-.0591-.0777-.066-.1298-.1055-.2012-.1186-.2141-.0001-.013-.0132-.026-.0393-.0388-.1179-.1034-.1899-.1681-.2161-.194-.1309-.1033-.2094-.1614-.2355-.1742-.1829-.09-.3069-.1348-.372-.1343-.0521.0003-.1237.0007-.2148.0013-.1428.0661-.2208.0991-.2338.0992s-.026.0067-.0389.0198c-.1427.079-.2271.1251-.253.1383-.0261.0002-.039.0198-.0387.0589-.1038.0527-.1622.0857-.1752.0988-.013.0001-.026.0001-.039.0002-.0775.1047-.1291.1766-.1549.2159-.0128.0261-.0257.0522-.0385.0783-.1034.1309-.1615.2094-.1743.2355-.0129.0262-.0257.0523-.0386.0784-.0379.1695-.0829.2675-.1348.2939-.0389.0263-.0646.072-.0772.1372-.0775.1047-.1161.17-.116.196.0131.013.0132.026.0003.0391-.0382.1305-.0704.1958-.0964.1959-.0507.2087-.076.3261-.0759.3521.0267.104.0272.1691.0013.1953-.0129.0261-.0062.0456.0199.0585.1688-.0792.2857-.1125.3509-.0999.1298-.066.2142-.1056.2532-.1189.0389-.0132.0714-.033.0972-.0592.1428-.079.2206-.1251.2335-.1382.1039-.0397.1754-.0662.2144-.0795s.0714-.0265.0974-.0397c.1558-.0661.2532-.1058.2922-.1191.0519-.0264.0908-.0527.1167-.0789.1037-.0657.1751-.0987.2142-.099.039-.0133.0779-.0331.1168-.0593.0779-.0396.1233-.0594.1363-.0595.026-.0132.0519-.0264.0779-.0396.0519-.0264.0974-.0397.1365-.0399.0389-.0133.0714-.033.0972-.0593.1428-.066.2142-.1055.2141-.1185.0129-.0261.0258-.0393.0388-.0393.0776-.0917.1489-.1377.214-.1381.065-.0135.1104-.0463.1361-.0986zm9.1511-1.4457c.1166-.0919.1814-.1314.1945-.1184.013-.0001.0195-.0067.0194-.0197.1036-.0918.1683-.1508.1942-.177.0779-.0396.1233-.0659.1362-.079.026-.0132.0519-.0264.0779-.0396l.2721-.1971c.052-.0263.0908-.0591.1166-.0984.0387-.0523.0775-.1046.1162-.157.1427-.079.2205-.1251.2335-.1382.0517-.0524.0971-.0853.1361-.0985.0389-.0133.0714-.0331.0972-.0593.1684-.1443.3045-.2363.4084-.276.0517-.0655.11-.1114.1749-.1379.0649-.0395.1231-.0919.1748-.1574.091-.0266.1559-.0596.1947-.0989.0647-.0525.1101-.0853.136-.0985.0389-.0263.0779-.0461.1169-.0594.1561-.014.2407-.021.2537-.0211.1043.0123.1759.0184.215.0181.0916.0776.144.1163.157.1162.026-.0002.0522.0127.0784.0386.0262.0258.0589.0517.0981.0774.0392.0128.0719.0321.0981.058l.1766.1356c.1176.0643.1765.103.1766.116 0 0 .0065.0065.0196.0195.0786.0646.1374.1097.1767.1355.0392.0258.0654.0582.0787.0972.0914.0385.1634.0901.2159.1548.0654.0517.1309.1099.1964.1746.1438.0902.2353.1482.2746.174.0392.0258.0719.0516.0981.0775.1044.0384.183.103.2357.1938.0526.0908.1312.1619.2357.2133.1049.1035.1573.1552.1573.1552.0263.0389.0526.0843.079.1363.0394.0518.0722.0971.0985.136.1049.1166.164.1878.1772.2137.0131.013.0327.0324.0589.0583.0656.0777.1247.1554.1773.2332.0528.1038.0991.2142.1389.3311.0528.1169.1121.2272.1779.3309-.0254.1044-.0181.215.0217.3319l.0209.2147c.0006.0912.0075.1562.0208.1952s.02.0715.0201.0976c.0263.0388.0266.0779.0008.1171-.0128.0392-.019.0848-.0187.1369.0141.1561.0147.2603.0021.3125.0002.039.0005.0781.0007.1172.0002.026.0004.0586.0006.0976.0133.039.0136.0846.0009.1367-.0249.1695-.0437.2868-.0563.352.0003.052.0073.1236.0209.2147.0009.1432-.0114.2475-.037.3127-.0127.0522-.0188.1108-.0184.1759.014.1562.0211.2538.0214.2929.0132.0259.0199.0519.02.078l-.0165.4688c.0139.1301.0143.1953.0013.1953 0 0 0 .0065.0001.0196.0137.104.0141.1626.0011.1757 0 0 .0001.0131.0003.0391.0002.0391.0005.0781.0007.1172.0133.039.0201.078.0203.117.0006.0912.001.1498.0012.1758.0131.013.0197.0259.0197.039-.0383.1174-.0574.1826-.0573.1956.0131.013.0197.0325.0199.0585.0004.0521.0007.1042.001.1563.0133.0389.0201.0845.0204.1366.0005.0651-.0056.1302-.0182.1954.0004.0651.0008.1302.0012.1953l.0014.2148c.0403.1951.0609.3577.0617.4879.0009.1302.0082.2604.0221.3905.0008.1172.0012.1823.0013.1953.0131.013.0197.0325.0199.0585.0139.1431.0213.2863.0223.4295.0009.1433.0018.28.0026.4102.0003.0391.007.0781.0203.1171.0133.0389.0135.078.0007.1171-.0127.0392-.0255.0718-.0384.0979-.0129.0131-.0322.0458-.0579.0981-.2598.1058-.4222.1655-.4872.1789-.0649.0265-.143.027-.2344.0015-.0651.0004-.1497-.0055-.254-.0179-.0911.0006-.1692.0076-.2342.0211-.1433-.0121-.241-.018-.2931-.0177-.039.0133-.0845.0201-.1366.0204l-.332.0022c-.0651.0004-.1302.0008-.1953.0012-.052.0134-.1041.0137-.1563.001-.1304-.0382-.2022-.0573-.2152-.0572-.026.0002-.0586.0004-.0977.0007-.0389.0132-.091.0201-.1561.0205-.1563-.012-.2475-.0114-.2734.0018-.0129.0131-.0325.0132-.0586.0003-.0259.0262-.0649.0395-.1169.0399-.0521.0003-.1107.0007-.1758.0011-.117.0268-.2082.0209-.2736-.0178-.1178-.1034-.2029-.1745-.2553-.2132-.0004-.0651-.0073-.1302-.0207-.1952-.0135-.065-.0205-.1366-.021-.2147l.0375-.2541.0181-.215c.0129-.0261.0192-.0587.0189-.0978.0128-.0391.032-.0913.0576-.1566.0128-.0392.0191-.0717.0189-.0978.0128-.0391.0255-.0913.0381-.1565-.0011-.1562.0047-.2669.0173-.3321.0126-.0782.0186-.1499.0182-.215-.0141-.1692-.0083-.2799.0174-.3321-.0009-.1433.0051-.2214.018-.2345-.0139-.1302-.0144-.2083-.0015-.2344.0128-.0261.0192-.0522.019-.0783-.001-.1562-.0015-.2408-.0016-.2539.0129-.0131.0193-.0261.0193-.0392-.027-.143-.0405-.2211-.0406-.2341.0129-.0131.0194-.0261.0193-.0392-.0003-.039-.007-.078-.0203-.117-.0004-.0521-.0007-.1107-.0012-.1758l-.0016-.2539c-.0139-.1431-.0212-.2538-.0217-.3319-.027-.1561-.0407-.2602-.041-.3122.0126-.0522.0189-.0978.0186-.1369-.0012-.1823-.002-.319-.0026-.4101-.0007-.1042-.0143-.1887-.0407-.2537.0258-.0262.0321-.0653.0187-.1173-.0003-.0521-.0006-.0976-.0008-.1367.0121-.1303.005-.2279-.0215-.2928-.0135-.0781-.0074-.1432.0183-.1955-.0138-.1171-.0273-.2016-.0407-.2536-.0003-.0521-.0266-.091-.0789-.1167-.1178-.1034-.1768-.1681-.177-.1942-.1693-.0119-.3124.0151-.4292.0809-.0904.1178-.1421.1767-.1551.1768-.0903.1308-.1614.2159-.2132.2553-.0388.0393-.0776.0851-.1163.1375-.1033.1308-.1679.2094-.1938.2356-.1427.079-.2465.1448-.3112.1973-.0518.0524-.1167.0724-.195.0599-.0651.0004-.1238-.0188-.1761-.0575-.0394-.0518-.0917-.0906-.157-.1162-.0265-.0649-.0594-.1168-.0987-.1556s-.0722-.0907-.0986-.1556c-.092-.1296-.138-.1944-.138-.1944.013-.0001.013-.0066-.0001-.0196-.0659-.1167-.1382-.227-.217-.3306-.0259.0262-.0387.0588-.0384.0979.0002.0391.0005.0781.0007.1172l.0015.2343.0028.4297c.0004.0651-.0056.1368-.0182.215.0005.0781.0011.1562.0016.2344.001.1692.0021.332.0031.4882.014.1562.0216.3189.0227.4882.0264.0649.0399.1364.0404.2146.0004.0651.0009.1367.0014.2148l.0209.2147c.0004.0521.0007.0977.0009.1367.0132.026.0199.052.02.078.014.1432.0145.2278.0017.2539-.0129.0262-.0192.0522-.019.0783.0005.0781.0141.1822.041.3122-.0127.0522-.0188.1108-.0184.1759.0135.065.0204.1236.0207.1757.0133.039.0135.078.0007.1172.0003.039.0006.0781.0008.1171.0139.1302.0275.2212.0408.2732.0133.039.02.0715.0202.0976.0275.2342.0415.3838.0419.4489.0133.039.0136.0846.0009.1367.0003.0391.007.0781.0203.1171.0269.13.0339.2016.0209.2147.0001.013.0002.0326.0004.0586l.0605.2926c-.0122.1303-.0182.2019-.0182.2149.0131.013.0198.0325.02.0585-.0382.1435-.057.2478-.0566.3129s-.0188.1108-.0577.1371c-.1302.0138-.2278.021-.2929.0214-.065.0134-.1235.0333-.1754.0597-.2212.0275-.397.0221-.5274-.0161-.1304-.0252-.2021-.0378-.2151-.0377-.013.0131-.0325.0198-.0585.0199-.0521.0004-.0912-.0059-.1173-.0188-.026.0002-.0651.0005-.1172.0008-.1563-.012-.254-.0179-.2931-.0176-.026.0001-.0586-.0062-.0978-.0189-.0651.0004-.1367.0008-.2148.0013-.0652-.0126-.1304-.0252-.1956-.0378-.1565-.038-.2997-.0436-.4298-.0167-.117.0268-.208.0469-.273.0603-.0912.0006-.1498.001-.1758.0012-.0131-.013-.0326-.0128-.0586.0003-.039.0003-.0781.0071-.117.0203-.0261.0002-.0652-.0061-.1174-.0187-.1041.0006-.1887.0142-.2536.0407-.1436-.0512-.2219-.0767-.2349-.0767 0 0-.0066-.0129-.0198-.0389-.0394-.0648-.0723-.1102-.0985-.1361-.0132-.0259-.0199-.0584-.0202-.0975.0117-.2084.0108-.3582-.0029-.4492-.0006-.1042.0053-.2019.0177-.2931-.001-.1563-.0016-.2539-.0019-.293.0127-.0521.0254-.0978.0382-.1369.0245-.2346.0496-.3845.0752-.4498.0119-.1693.0112-.28-.0021-.332-.0134-.052-.0137-.1041-.001-.1562-.001-.1432.005-.2214.018-.2345.0128-.0261.0192-.0522.019-.0783l-.0212-.2537c-.0005-.0782-.0009-.1498-.0013-.2149-.0005-.0651-.0139-.1236-.0402-.1755.0121-.1433.0049-.2409-.0215-.2928-.0134-.0651-.0071-.1042.0188-.1174.0123-.1172.0184-.1824.0183-.1954s-.0067-.0325-.0199-.0585c-.0003-.039-.0005-.0781-.0008-.1171.0128-.0392.0191-.0718.0189-.0978-.0003-.0521-.0071-.0911-.0203-.1171-.0132-.039-.007-.0781.0188-.1173-.0008-.1302-.0014-.2279-.0019-.293-.0005-.0781-.0009-.1497-.0014-.2148-.0004-.0651-.0073-.1236-.0206-.1756-.0134-.052-.0202-.0976-.0204-.1366.0119-.1694.0047-.28-.0217-.3319.0127-.0522.0189-.0978.0186-.1369-.0003-.0521.0059-.1042.0186-.1563l-.0015-.2344-.0027-.4102c-.0007-.1041-.0076-.1757-.0209-.2147-.0003-.0521-.0006-.0976-.0009-.1367-.0269-.13-.0406-.2341-.0411-.3122-.0005-.0912-.001-.1693-.0015-.2344.0124-.1043.012-.1694-.0012-.1953-.0133-.039-.0004-.0521.0388-.0393-.0144-.2083-.0348-.3514-.0614-.4293-.0135-.0781-.0075-.1497.0182-.215-.0132-.026-.0264-.0584-.0397-.0974s-.0201-.0845-.0204-.1366c.0122-.1173.0118-.1889-.0014-.2148-.0132-.026-.0199-.052-.0201-.078-.001-.1693-.0019-.2995-.0025-.3906-.0139-.1432-.021-.2343-.0213-.2733.0127-.0522.0189-.1043.0186-.1564l-.0019-.293c-.0137-.1041-.0207-.1821-.0211-.2342-.027-.1561-.0407-.2537-.0409-.2927-.0003-.0391-.007-.0781-.0203-.1171l-.0213-.2733c-.0138-.1171-.0146-.2473-.0025-.3906.1162-.144.1679-.2159.1548-.2159.1559-.0661.2533-.0993.2924-.0995.1563.012.254.0114.2929-.0019.039-.0133.0845-.0266.1365-.0399.1042-.0007.1692-.0076.1952-.0208.0259-.0132.0519-.0199.078-.0201.039-.0132.078-.0135.1172-.0007.0521.0127.0912.0059.117-.0203.1824.0118.3126.0175.3908.017.0781-.0005.1496-.014.2146-.0404.0389-.0133.091-.0136.1562-.001s.1174.0383.1568.0771c.0649-.0265.1234-.0334.1756-.0207.0521-.0003.1042-.0007.1563-.001.1433.0251.2606.0374.3518.0368.104-.0137.1952-.0078.2735.0178.065-.0265.143-.0335.2343-.0211.0912.0125.1692-.0011.2341-.0405l.2347.057c.1311.1294.223.246.2757.3498.0527.0908.0403.1821-.0373.2737-.0253.1174-.044.2347-.0563.3519-.0123.1043-.0311.2216-.0563.352-.012.1563-.0245.2475-.0373.2737.0001.026-.0062.0521-.0191.0782-.0126.0652-.0187.1238-.0183.1759.0133.052.0072.1106-.0184.1759z" fill="#693821"/></svg>