<svg fill="none" height="92" viewBox="0 0 94 92" width="94" xmlns="http://www.w3.org/2000/svg"><path d="m49.7513 89.9947c-1.3879 0-1.7844-.0396-1.9826-.1189-1.2689-.3569-3.529-2.1015-4.2031-2.6567l-6.1461.3173c-.0396 0-.119 0-.1586 0l-10.1508-2.8153c-.0793-.0396-.1586-.0793-.2379-.119-.119-.1189-3.291-2.9738-5.2736-5.234-.119-.1189-.1586-.2775-.119-.3965 0-.1586.0793-.2775.1982-.3965 3.529-2.8153 8.1287-10.2301 6.503-19.1517-2.2205-11.8559-8.6045-17.5657-11.6576-18.9535-1.3878-.5948-3.5291-.793-5.6306-.9913-3.33075-.3172-6.22533-.5948-6.8201-2.2998-.15861-.3965-.35684-.8724-.59475-1.3878-.87234-1.8637-2.06192-4.441-1.14993-6.265.47582-.9516 1.42754-1.586 2.81535-1.8636 1.26885-.2775 2.81516-.4361 4.59948-.4361 3.09285 0 6.42355.4361 8.80265.7533 1.1499.1586 2.1016.2776 2.736.3172 1.705.0793 3.0928-.7137 3.6083-1.4274.1586-.1983.2776-.5155.1586-.7931-.0396-.0793-2.4187-7.3355-1.2291-9.0405.4361-.6345 1.2688-.6345 2.2997.2379 3.4893 3.0135 6.0667 4.7582 7.8511 3.7669 1.1102-.5948 2.9738-2.3395 4.7978-4.0048 1.6653-1.5068 3.3704-3.0929 4.6393-3.9652 1.1499-.8327 1.586-2.6566 2.0221-4.44096.4758-1.98258.9121-3.84622 2.3396-4.5996.8327-.43617 1.9825-.91199 3.3703-1.42746.4758-.19826.9517-.35686 1.4672-.55512.2379-.11896.5154.00001.674.19827l1.7447 2.57733 3.1325.63444c.1982.03965.3568.19828.4361.39654l1.031 4.04442 4.2427.19824c.2776 0 .4759.2379.5155.4758l.4361 3.8066 1.1895.119 1.5862-2.5774c.1189-.1982.3171-.2776.555-.2776.1983.0397.3965.1587.4758.3966l1.7447 5.5116 3.2118 1.3877 4.9961.1983c.119 0 .1983.0397.2776.0793l.3172.1983 3.4894 2.4584c.0396.0396.1189.0792.1586.1586l1.1895 1.7843 7.4942.3965c.1983 0 .3568.119.4361.2776s.0793.3568 0 .5154l-3.9651 7.4942-.674 7.8907c0 .1586-.0794.2776-.1984.3965-.1189.0793-.2775.1586-.4361.119l-3.648-.5552.5552 3.0135c.0396.238-.0793.4758-.2776.5948l-4.9168 2.7757-1.6257 5.4718 4.9168-2.3394c.1586-.0793.3172-.0793.4758 0s.2776.2379.2776.3966l1.1102 5.5512c.0396.1982-.0396.3965-.1982.5154l-1.2689 1.1103 1.8239 3.5686c.0794.1983.0793.3966-.0396.5948l-2.2205 3.0135 1.5068 1.9033c.0793.0793.1189.2379.1189.3569v5.234l4.1635.1983c.3172 0 .555.2775.5154.5551l-.119 3.6875c0 .1983-.1585.3966-.3171.4759-.3569.4362-.7535.912-1.15 1.4275-1.8636 2.4584-4.2427 5.4718-8.0096 5.4718-.3965 0-.793-.0396-1.2291-.1189-1.3879-.2379-3.2119-.912-5.1548-1.586-2.9343-1.0706-6.265-2.2602-8.763-2.2602-1.9033 0-3.0532.6741-3.5686 2.1412-.9913 2.6567-.912 5.0754-.8724 6.9787 0 .3172-.2379.5551-.5155.5551-2.1808.1983-6.1856.3568-8.4853.3568zm-6.0272-3.8461c.119 0 .2379.0396.3569.1189.7534.6345 2.9738 2.2998 3.9651 2.5774.0793 0 .4363.0793 1.7052.0793 2.1015 0 5.6304-.1586 7.8509-.2379-.0397-1.9429.0001-4.2428.9517-6.8598.6741-1.9033 2.2204-2.8549 4.6392-2.8549 2.6963 0 6.146 1.2292 9.1595 2.2998 1.9033.6741 3.6876 1.3085 4.9565 1.5464.3568.0397.6741.0793 1.0309.0793 3.2118 0 5.3927-2.8153 7.0977-5.0357.4362-.5552.8327-1.0706 1.2292-1.5068l.0396-.0397.0794-2.8549-4.1635-.1982c-.2776 0-.5155-.238-.5155-.5552v-5.5512l-1.6256-2.1015c-.1586-.1983-.1586-.4758 0-.6741l2.26-3.0928-1.8636-3.6479c-.119-.238-.0793-.5155.1189-.6741l1.3483-1.1896-.912-4.5203-5.3927 2.5774c-.1983.0793-.4362.0793-.5948-.0793-.1586-.1587-.2378-.3569-.1585-.5948l2.0222-6.8597c.0396-.119.1189-.2379.2776-.3172l4.7582-2.6964-.6344-3.41c-.0397-.1586.0395-.3569.1585-.4758.1189-.119.2776-.1982.4759-.1586l3.8462.5948.6343-7.4149c0-.0793.0398-.1586.0794-.1982l3.6083-6.8201-6.8994-.3966c-.1586 0-.3568-.1189-.4362-.2379l-1.2688-1.9429-3.5687-2.498-4.9564-.1983c-.0793 0-.119-.0396-.1983-.0396l-3.529-1.5464c-.1586-.0794-.2775-.1984-.3171-.357l-1.4276-4.5995-1.1102 1.8239c-.1189.1983-.3172.2776-.5155.2776l-1.9826-.1982c-.2775-.0397-.4758-.2379-.4758-.4758l-.4361-3.8066-4.1635-.1983c-.2379 0-.4362-.1983-.5155-.4362l-1.0308-4.08408-3.0136-.63438c-.1586-.03965-.2775-.119-.3568-.23796l-1.6258-2.41875c-.3568.15861-.7137.27758-1.0309.39654-1.2689.47582-2.4584.95166-3.2118 1.38783-.9913.55512-1.3878 2.18082-1.7843 3.88584-.4758 1.98256-.9517 4.00486-2.4585 5.07536-1.2292.8327-2.8945 2.3792-4.5202 3.8463-1.9429 1.8239-3.8065 3.529-5.0357 4.1634-.5155.2776-1.031.3965-1.6257.3965-2.0619 0-4.4014-1.6654-7.4546-4.322-.5154-.4362-.7137-.4362-.7137-.4362-.5551.5948.5551 5.7098 1.3877 7.9699.238.5552.1191 1.1896-.2774 1.824-.8327 1.2292-2.6963 2.0223-4.5996 1.9033-.6741-.0396-1.6258-.1586-2.8154-.3172-2.3791-.3172-5.6304-.7533-8.68358-.7533-1.70502 0-3.17215.1189-4.3617.3964-1.07059.2379-1.74475.6345-2.06196 1.2689-.67408 1.3482.39655 3.648 1.14993 5.3133.27756.5551.51548 1.0706.63444 1.4671.35686 1.031 3.29113 1.3086 5.86847 1.5861 2.1809.1983 4.4409.4361 5.9873 1.0706 3.2515 1.4671 10.032 7.4545 12.3317 19.7862 1.6654 9.0009-2.8152 16.614-6.4632 19.8258 1.7447 1.9032 4.2031 4.1634 4.7186 4.5996l9.9129 2.7756z" stroke="#693821" stroke-miterlimit="10" stroke-width="3"/></svg>