<svg fill="none" height="67" viewBox="0 0 222 67" width="222" xmlns="http://www.w3.org/2000/svg" xmlns:xlink="http://www.w3.org/1999/xlink"><linearGradient id="a"><stop offset="0" stop-color="#cf5c2b"/><stop offset="1" stop-color="#59173e"/></linearGradient><linearGradient id="b" gradientUnits="userSpaceOnUse" x1="64.1119" x2="72.3026" xlink:href="#a" y1="30.1897" y2="55.9285"/><linearGradient id="c" gradientUnits="userSpaceOnUse" x1="41.1892" x2="100.277" xlink:href="#a" y1="-13.6591" y2="147.508"/><linearGradient id="d" gradientUnits="userSpaceOnUse" x1="62.9268" x2="87.8324" xlink:href="#a" y1="-82.8832" y2="-1.58149"/><linearGradient id="e" gradientUnits="userSpaceOnUse" x1="99.3908" x2="123.387" xlink:href="#a" y1="-24.9501" y2="125.624"/><linearGradient id="f" gradientUnits="userSpaceOnUse" x1="100.629" x2="132.552" xlink:href="#a" y1="-22.9884" y2="168.849"/><linearGradient id="g" gradientUnits="userSpaceOnUse" x1="110.377" x2="110.377" xlink:href="#a" y1="77.3282" y2="46.1839"/><path d="m66.0925 45.4955c4.346-2.0648 11.5619-1.423 14.9895 1.3534 2.1648 1.7579 2.2796 5.0226 0 6.7665-5.0184 3.8367-13.8087 2.2044-16.9902-2.5531-.0656-.0419-.1148-.0977-.1804-.1396-2.4108-1.8695-.6888-4.9668 2.1811-5.4272z" fill="#eb924d"/><path d="m65.0761 43.6821c4.3459-2.0649 11.5619-1.4231 14.9894 1.3533 2.1648 1.7579 2.2796 5.0226 0 6.7665-5.0183 3.8368-13.8086 2.2044-16.9902-2.5531-.0656-.0419-.1148-.0977-.1804-.1395-2.4272-1.8696-.7052-4.9668 2.1812-5.4272z" fill="url(#b)"/><path d="m66.0925 44.8549c4.346-2.0648 11.5619-1.4231 14.9895 1.3533 2.1648 1.7579 2.2796 5.0226 0 6.7666-5.0184 3.8367-13.8087 2.2044-16.9902-2.5532-.0656-.0418-.1148-.0976-.1804-.1395-2.4108-1.8695-.6888-4.9668 2.1811-5.4272z" fill="url(#c)"/><path d="m4.03588 26.247c1.60745-1.6903 3.54295-3.1372 5.47845-4.5841.91857-.6897 1.83707-1.3658 2.75567-2.0419 1.7714-1.3117 3.5265-2.6234 5.298-3.935.7709-.568 1.5582-1.3793 2.4932-1.7579.8693-.3651 1.5582-.9196 2.3127-1.4334 3.461-2.3529 7.0531-4.57058 10.7929-6.61246 2.9689-1.63621 6.0853-3.19128 9.5627-3.8674 1.5254-.2975 3.1001-.43272 4.6583-.55442 2.2472-.18932 4.4943-.36511 6.7415-.55442 1.1317-.094657 2.2799-.189313 3.4117-.28397.4593-.040567.8857-.081134 1.3286-.189314.7381-.175791 1.4762.081135 2.2307-.013522 1.4271-.162269 2.8869-.121701 4.3303-.135224 1.5911-.013522 3.1657-.040567 4.7568-.054089 6.3149-.067612 12.6299-.121702 18.9613-.162269 6.2822-.0405672 12.5643-.0540896 18.8633-.067612 6.265 0 12.548 0 18.813.0270448 6.25.0270448 12.499.0676119 18.732.1352242 6.217.054089 12.45.135224 18.666.22988 6.2.094657 12.4.202836 18.601.324538 6.167.121701 12.351.270447 18.518.419193 3.231.08114 6.463.17579 9.694.25693.262.01352.558-.01353.804.04056.279.05409.541.14875.803.22988.542.16227 1.099.33806 1.624.5409 1.017.40567 1.985.94657 2.641 1.71734.377.44624.64.94657.984 1.39281.181.22988.41.40567.558.64907.705 1.16293 1.427 2.3529 2.395 3.3806.951 1.01423 1.246 2.60983 1.132 3.84033-.148 1.6768-.197 3.3806-.378 5.0574-.295 2.6774-.016 5.3549-.377 8.0458-.049.3922-.131.8114-.476 1.0683-.246.1758-.574.2434-.885.2975-1.034.1893-2.051.3651-3.084.5544 1.263.6761 3.166.7302 3.838 1.8526.213.3651.246.7707.295 1.1764.115 1.4334.279 2.8668.394 4.3001.049.6491.098 1.2847.115 1.9337.033.6221.082 1.2035.164 1.812.164 1.4199.607 3.2725.082 4.6653-.509 1.3387-2.543 1.4063-3.953 1.7308.738.0676 1.312.568 1.739 1.0683.213.2569.377.5274.574.7843.18.2299.344.4598.508.7032.295.4868.541.9871.722 1.5145.115.3516.18.622.197.9871.016.3245.032.6491.049.9736.033.6491.049 1.2982.065 1.9472.033 1.2982.05 2.6099.033 3.908-.016 1.2576.345 2.4881-.295 3.7187-.64 1.2305-1.755 2.2988-3.133 2.9884-1.115.568-2.395.8655-3.707.9195-15.336.6897-30.722.9872-46.075 1.2847-15.631.2975-31.263.4733-46.894.5138-15.747.0406-31.4934-.0405-47.2398-.2569-5.3308-.0676-10.6453-.3245-15.9433-.0406-4.8716.257-9.7923.1488-14.6639-.1217-4.2482-.2434-8.0372-.2299-11.3669-2.7585-7.3648-5.5713-15.156-10.7503-22.52073-16.308-1.9027-1.4334-3.98582-3.0561-5.59327-4.814-1.65666-1.812-3.198496-3.7998-3.821793-6.0445-.2788433-.9872-.459271-2.0013-.2624405-2.9885.0820125-.4192.2296355-.8248.4100635-1.217.147623-.338.426466-.7031.475674-1.0683.098416-.7437.442866-1.4469.836526-2.123.5905-1.0682 1.34501-2.0959 2.23075-3.0019z" fill="url(#d)"/><path d="m1.09161 36.5139c.19777.2909.39554.5818.57682.845.06592.0969.13184.1939.19776.277.09889.097.19777.1939.32961.2632.26369.1385.60978.1108.90643.097.03296 0 .06592 0 .09888-.0139 4.87821-.3463 9.88829-1.4406 14.56869-.2216-1.2525.4571-2.6533.5679-4.0047.6649-3.5433.2493-7.08662.4987-10.62991.748.03296.0277.06592.0415.09888.0693.36257.2908.74162.5817 1.12067.8588.62626.4848 1.15363 1.0666 1.76341 1.5791.90642.748 1.8458 1.4683 2.76871 2.1748.26368.1939.51089.4017.79106.6095.26369.2077.54388.4155.82398.6095 2.3897 1.8284 4.8123 3.643 7.2514 5.4161.7911.5818 1.5986 1.1636 2.4227 1.7176.8569.6095 1.7139 1.2052 2.5874 1.8008 4.3179 2.9366 8.8665 5.6932 13.6623 8.0619.1648.0831.3296.1662.5109.2493.3625.1662.6592.3463 1.0053.4294.1648.0277.3131.0416.4944.0416h.1648c.2966-.0139.6098-.0139.9064-.0139 2.505-.0277 5.043.1108 7.548.1801 3.7905.0693 7.5975.1524 11.388.2216 4.4003.0831 8.7841.1524 13.1844.2078 3.9223.0416 7.8446.097 11.7835.1385 3.3455.0277 6.691.0554 10.0366.0693 2.1424.0138 4.2849.0277 6.4273.0415 3.5107.0139 7.0037.0139 10.4977.0139 2.027 0 4.038 0 6.065-.0139h2.423c1.219 0 2.422-.0138 3.642-.0138.478 0 .956 0 1.434-.0139 3.576-.0138 7.152-.0415 10.712-.0692 1.22-.0139 2.423-.0139 3.626-.0416 2.455-.0138 4.927-.0415 7.383-.0831 1.467-.0138 2.917-.0277 4.4-.0554 3.758-.0415 7.482-.1108 11.223-.1801 1.5-.0138 2.983-.0415 4.467-.0692 1.878-.0416 3.757-.0693 5.636-.1385 1.664-.0278 3.312-.0693 4.977-.1109 3.609-.0831 7.218-.18 10.811-.277.626-.0139 1.253-.0277 1.895-.0416.791-.0138 1.599-.0415 2.407-.0692 2.587-.0693 5.174-.1524 7.762-.2355 1.153-.0416 2.307-.0693 3.477-.1247 3.033-.1385 6.098-.3047 9.13-.3047 3 0 5.801-1.8008 6.906-4.0864.494-.9973.609-2.1055.527-3.1859-.016-.194-.033-.374-.099-.568-.099-.2908-.264-.554-.296-.8449-.066-.374-.099-.748-.132-1.122-.033-.3602-.066-.7203-.083-1.0944-.016-.277-.049-.5679-.082-.8449-.033-.3602-.083-.7342-.181-1.0943-.017-.1247-.066-.2494-.099-.3602-.033-.0969-.066-.1939-.116-.277-.066-.1663-.148-.3186-.263-.471-.083-.1247-.165-.2216-.281-.3324-.098-.097-.214-.194-.346-.2771-2.224-1.399-6.559-1.3852-9.805-1.4406-.627-.0138-1.22-.0277-1.747-.0554-1.401-.0693-2.802-.097-4.219-.097 3.329-.0138 6.674-.2493 9.954-.7341 1.565-.2217 3.115-.4987 4.647-.8311.379-.0693.758-.1801 1.121-.3186.478-.1801.906-.4433 1.121-.845.181-.3463.164-.7203.164-1.0805-.016-.3463.05-.7064.017-1.0527-.033-.748-.148-1.4683-.231-2.2163-.082-.5957-.165-1.2052-.214-1.8008-.115-1.6068-.231-3.1998-.379-4.7928-.05-.4848-.115-1.0112-.511-1.3575-.247-.2078-.56-.3047-.873-.4017-.857-.2632-1.731-.4571-2.637-.5818-.412-.0693-.874-.0693-1.269-.1662-.478-.1247-.841-.2078-1.352-.2494-4.927-.4848-9.839-.9696-14.75-1.4406-.577-.0554-1.186-.1108-1.763-.1662 7.416-.7618 14.832-1.5237 22.248-2.2856.33-.0415.66-.0692.973-.1108.313-.0277.659-.0692.857-.277.148-.1662.165-.374.198-.5818.329-3.366-.05-6.8429.181-10.2505.016-.097.016-.374.049-.7757.017-.1939.017-.4294.05-.6649 0-.0831 0-.1939.016-.277.017-.1524.017-.3048.033-.4572v-.0692c.017-.1662.017-.3186.033-.4848.017-.1663.017-.3325.033-.4987.033-.5541.082-1.08047.115-1.49603.017-.13852.017-.26319.033-.37401 0-.04156.017-.09696.017-.13852.016-.12467.016-.20778.033-.26319.016-.04155.016-.06926.016-.06926.313-3.74004-3.098-6.96756-7.564-7.09223-2.291-.06926-4.582-.13852-6.873-.19393-2.982-.08311-5.965-.16622-8.948-.22163-9.625-.249335-19.266-.429411-28.94-.581784-2.538-.041556-5.076-.06926-7.614-.110816-10.07-.13852-20.172-.221632-30.308-.2770399-2.62-.013852-5.24-.013852-7.861-.0277041-3.197-.041556-6.328-.041556-9.476-.041556-6.065 0-12.1625.013852-18.2438.041556-.5933 0-1.1865.0138521-1.7798.0138521-5.3067.027704-10.6299.0692599-15.9366.1108159-3.807.041556-7.614.083112-11.4374.13852-3.1643.041556-6.345.083112-9.5093.13852-1.7139.027704-3.4114.06926-5.1418.083113-.3132.013852-.6263.013852-.9394.013852-.2967 0-.6098 0-.9065-.013852 0 0 0 0-.0164 0-.6263 0-1.2526-.013853-1.8953-.041557-.1813 0-.3461-.013852-.5274-.013852-.8569-.041556-1.5986.013852-2.2907.166225-.0165 0-.0495 0-.066.013852-1.203.249336-2.2578.734155-3.5103 1.315945-.1154.0554-.2307.09696-.3461.16622-4.7958 2.21632-9.4268 4.70968-13.8106 7.46624-4.1531 2.61805-8.1084 5.45765-11.8165 8.50515-.2801.2216-.5603.4571-.824.6926-2.6368 2.2163-5.14187 4.5296-7.6469 6.8429-.41201.3878-.82402.7757-1.23603 1.1774-.90642.8727-1.76341 1.8008-2.45558 2.8258-.49442.7065-.889947 1.4683-1.120673 2.2717-.115363.374-.164805.7758-.280168 1.1498-.428491 1.1774.230727 2.3687.955861 3.4491z" fill="url(#e)"/><path d="m5.09682 25.627c2.49588-2.3164 4.99178-4.6468 7.61898-6.8935.2627-.2233.5419-.4605.821-.6978 9.3103-.0837 18.6206-.4605 27.9308-1.0186 21.3299-1.2699 42.6105-2.9724 63.9404-4.3399 21.313-1.3815 42.643-2.5398 64.023-2.6235 10.788-.0418 21.543.2512 32.282.921 5.484.3489 11.018.4466 16.502.8513-.066 1.0884-.115 2.0513-.148 2.2327-.23 3.4189.164 6.9215-.18 10.3264-.017.2093-.05.4186-.197.5861-.017.0139-.017.0279-.05.0418-4.548.5582-9.211.642-13.809.6699-10.755.0697-21.494-.4326-32.249-.3908-2.825.014-5.682.0419-8.523.0977-1.412.0279-2.824.0558-4.252.0837-.789.014-1.675-.0558-2.463.0977-1.002.1954-2.086.1396-3.12.1117-2.332-.0419-4.664-.2373-7.012-.4047-2.2-.1675-4.384-.321-6.601-.3489-8.39-.0698-16.65 1.8141-25.024 1.8978-2.25.028-4.516-.0697-6.732.2512-1.314.1954-2.578.5443-3.876.8094-2.2.4605-4.4494.6977-6.7154.7256-1.133.014-2.2824-.0139-3.4154-.1256-1.1002-.1116-2.2332.014-3.3333.0559-4.7455.2093-9.5073.3907-14.2528.5302-3.7274.1117-7.4548.1954-11.1822.2512 17.1428 1.2699 34.2691 2.4839 51.4121 3.6561 8.801.6001 17.635 1.2559 26.469 1.2559 9.557 0 19.097-.9628 28.686-.5163 8.457.4047 17.012 1.0047 25.402 2.0234 6.536.7954 13.498 2.47 20.296 2.9444.082.7396.197 1.4792.23 2.2328.016.3488-.033.7117-.017 1.0605.017.3629.017.7396-.164 1.0885-.213.4047-.624.6698-1.117.8512-.344.1396-.738.2512-1.116.321-1.527.3349-3.071.614-4.631.8372-2.578-.0837-5.156-.2232-7.668-.4884-7.422-.7675-15.599-1.0326-23.169-2.3304-1.593-.0837-3.185-.1674-4.762-.2512-8.785-.5163-17.471-1.9257-26.108-3.363-5.55-.935-11.166-1.6327-16.798-2.1909-.722-.0698-1.412-.2512-2.134-.293-.575-.0419-1.183-.0838-1.757-.1256-2.348-.1535-4.697-.2791-7.061-.3768-4.696-.1954-9.425-.2791-14.138-.321-4.729-.0418-9.4415-.0139-14.1541-.0139-4.7291.0139-9.4417 0-14.1543-.0698-4.7126-.0558-9.4416-.1953-14.1378-.4326-1.4942-.0697-2.9721-.1674-4.4499-.2651 3.9573-.7815 7.9638-1.3397 11.9868-1.6746-7.4055-.5302-14.7946-1.3256-22.1181-2.3583-4.5648-.6559-9.1296-1.3954-13.7437-1.842-2.2988-.2233-4.6141-.3768-6.9293-.3907-1.1495-.014-2.2989 0-3.4647.0697-1.0345.0419-2.1346.2791-3.1691.1815-.7389-.0698-1.4286-.321-2.1675-.3768-1.1822-.0837-2.3481-.1675-3.5303-.2512-2.3481-.1675-4.6962-.3628-7.06073-.5721-.62397-.0559-1.26436-.1117-1.90475-.1814-1.36288-.1396-2.7586-.2373-4.15432-.3489.47619-.4047.90312-.7954 1.31362-1.1862zm14.64688 15.1408c11.7404-.6838 23.5302-.5722 35.287-.1675 2.4467.0838 4.844.1396 7.2742.3908 1.1658.1395 2.3317.2511 3.5139.3767 4.6962.4745 9.3924.8513 14.105 1.1583 1.8391.1256 3.6782.2232 5.5008.3209-4.7619-.0279-9.5237-.0558-14.2856-.0837s-9.5237-.0698-14.2856-.0977c-2.3809-.0139-4.7619-.0279-7.1428-.0419-1.1987-.0139-2.3809-.0139-3.5632-.0279-.509 0-1.018.0279-1.5107-.0697-.2955-.0559-.5911-.1675-.9031-.1954-1.0673-.1395-2.266.0419-3.3333.0977-1.1822.0558-2.3645.1116-3.5303.1674-2.3645.1256-4.7291.2652-7.0936.4187-3.7109.2372-7.4383.5023-11.1493.7814-3.0377.2373-6.0591.5163-9.08039.8234-.01642-.014-.01643-.014-.01643-.014-.26272-.1954-.50902-.3907-.77175-.5861-.93595-.7117-1.8719-1.4373-2.75859-2.1909 4.54836-.4047 9.12966-.7814 13.74376-1.0605zm77.6841 7.996c20.8702-.3489 41.6912-1.3676 62.5612-1.2978 11.001.0279 22.003.1814 32.988.4605 8.112.1954 16.322.1674 24.417.8791.164.4605.23.9768.279 1.4653.082.8651.115 1.7443.23 2.6095-9.015.307-18.128-.2094-27.126-.2233-11.002-.014-21.987.0698-32.988.293-20.838.4187-41.642 1.3955-62.4794 1.7165-21.1985.3209-42.3478-.9769-63.4971-1.87-3.9244-.1674-7.8653-.279-11.8225-.3488-.8046-.5582-1.6092-1.1443-2.4138-1.7304-2.4466-1.7722-4.844-3.6003-7.2249-5.4562 7.8653.6419 15.747 1.2698 23.6451 1.6327 21.1329.9768 42.2821 2.2187 63.4314 1.8699z" fill="url(#f)"/><path d="m217.146 42.5043c.017.7257.017 1.4805-.253 2.1627.489-.1887.926-.4645 1.129-.8854.185-.3629.168-.7548.168-1.1322-.017-.3628.05-.7402.017-1.1031-.068-1.4224-.371-2.8013-.455-4.2092-.118-1.6838-.236-3.3529-.387-5.0221-.051-.5081-.118-1.0596-.522-1.4225-.253-.2177-.572-.3193-.892-.4209-.876-.2758-1.768-.479-2.694-.6096-.421-.0726-.876-.0726-1.296-.1742-.489-.1306-.859-.2177-1.381-.2613-5.034-.508-10.051-1.016-15.068-1.5095 5.387.9434 10.792 1.8724 16.179 2.8159 1.044.1741 2.458.1741 3.334.7692.336.2323.639.5661.892.8419.084.0871.842 1.3789.539 1.3934-3.957.1161-7.93.2322-11.886.3484 2.929.4064 5.858.8708 8.788 1.3789 1.465.2612 3.131.6531 3.788 1.8143.404.7402.387 1.7272.253 2.511-.051.2613-.152.5226-.219.7838-.169.6097-.051 1.2918-.034 1.9305z" fill="#eb924d"/><path d="m1.04402 36.2927c.06596.1102.11543.2204.14841.3444.04946.1653.04946.3306.11542.4959.18138.4546.62658.8954 1.25316.8265.24734-.0275.70903-.0275.9069-.1102-.04947-.2479-.31329-.5097-.44521-.7301-.11542-.2066-.23084-.4132-.31329-.6198-.21435-.4684-.37924-.9505-.51116-1.4464-.23084-.9505-.31329-1.9148-.31329-2.8791 0-1.102.18138-2.2591.97285-3.1407 1.43455-1.5428 4.15523-1.5842 6.48018-1.4877 2.02811.0826 4.03981.179 6.05151.2617-2.9351-.2755-5.88662-.5648-8.82166-.8541 1.18721-1.4326 2.3909-2.879 3.57816-4.3116 1.1212-1.3362 2.3084-2.7551 4.0562-3.4989 1.4676-.6199 3.1494-.7163 4.7819-.8128 4.0233-.2204 8.0301-.4408 12.0699-.6612-4.3366-.1791-8.7062-.3444-12.9439-1.1158 1.4016-1.1709 2.8361-2.2867 4.3202-3.3611 2.1105-1.5428 4.3201-3.0168 6.5956-4.39432 2.2754-1.39129 4.6169-2.68617 7.0243-3.89838 1.2037-.60611 2.4239-1.19845 3.6605-1.74946.5936-.2755 1.2367-.50968 1.8138-.81274.1649-.09642.3298-.20662.5277-.26172.1484-.04133.2968-.04133.4452-.04133.7914-.02755 1.5994-.01378 2.3909-.02755 2.3744-.01378 4.7488-.02755 7.1232-.02755.742 0 1.5005 0 2.2425-.01378h4.3201c1.9952-.01377 4.0069-.01377 6.002-.01377h.2968c3.1989-.02755 6.3813-.02755 9.5472-.02755 1.5829 0 3.1659 0 4.7488-.01378.7255 0 1.5335.08265 2.2425-.02755.7255-.1102 1.3026-.48213 2.0776-.53723.6926-.04133 1.4016.04132 2.0776.09643 1.7314.12397 3.4627.24795 5.1776.41325.775.06888 1.6324.17908 2.16.66121.1814.16531.3133.37193.5277.50969.4947.28928 1.1542.1102 1.7148-.06888 1.1213-.33061 2.3085-.52346 3.4957-.55101 1.0718-.04133 2.1436.12398 3.2156.06888.676-.04133 1.319-.16531 1.978-.27551 2.606-.42703 5.343-.45458 7.998-.60611 1.962-.12397 3.924-.20663 5.886-.26173 6.348-.19285 12.697-.09642 19.029.13776 3.165.1102 6.348.24795 9.514.41325 1.451.06888 3.067.33061 4.501.1653.412-.04132.792-.19285 1.22-.24795.446-.06888.874-.0551 1.303-.04132 1.764.01377 3.529.01377 5.276.02755 2.062.01377 4.123 0 6.2 0 .693 0 1.369.12397 2.045.12397.627 0 1.253-.1102 1.863-.1102 1.303.01378 2.605.2204 3.826.63366.461.1653.94.34438 1.451.31683.923-.04132 1.566-.77141 2.391-1.10202 1.995-.798959 4.039.71631 6.068.11021 1.005-.30306 2.044-.26173 3.099-.27551 1.353-.01377 2.721-.01377 4.073-.01377 4.601.01377 9.201.15152 13.769.53723 2.275.19285 4.551.45458 6.81.78519 1.088.1653 2.209.42703 3.297.53723.347.04133.594.02755.907.20663 1.352.79896 5.062 5.20703 2.424 6.76365-.874.4959-1.995.5097-3.05.4959-6.761-.0827-13.538-.1653-20.315-.2342 7.305.4821 14.626.9643 21.931 1.4602.478.0275.956.0689 1.385.2479 1.401.6337.923 2.1214 1.104 3.1959.264 1.4051-.049 2.9203-.23 4.3254-.215 1.8046-.479 3.6091-.792 5.3999.33-.0413.66-.0689.973-.1102.313-.0276.659-.0689.857-.2755.149-.1653.165-.3719.198-.5786.33-3.3473-.049-6.8049.182-10.1936.016-.0965.016-.372.049-.7714.017-.1929.017-.4271.05-.6613 0-.0826 0-.1928.016-.2755.017-.1515.017-.303.033-.4545v-.0689c.016-.1653.016-.3168.033-.4822.016-.1653.016-.3306.033-.4959.033-.551.082-1.07443.115-1.48768.017-.13775.017-.26173.033-.37193 0-.04133.017-.09643.017-.13776.016-.12397.016-.20662.033-.26173.016-.04132.016-.06887.016-.06887.314-3.71931-3.1-6.92894-7.568-7.05291-2.292-.06888-4.584-.13776-6.876-.19286-2.985-.08265-5.969-.1653-8.954-.2204-9.629-.247955-19.275-.427033-28.954-.578561-2.54-.041325-5.079-.068876-7.618-.110202-10.075-.137752-20.183-.220403-30.323-.275504-2.622-.0137752-5.244-.0137752-7.866-.0275504-9.168-.0551009-18.401-.04132566-27.6518 0-.5936 0-1.1872.0137752-1.7808.0137752-5.3094.0275505-10.6354.0688762-15.9448.1102022-3.809.041325-7.6179.082651-11.4434.137752-3.1659.041325-6.3483.082651-9.5141.137752-1.4511.013775-2.9021.041326-4.3531.068876-.2639 0-.5277-.013775-.7915.013775l-.1979.027551c-.2143.041325-.3792.082651-.6101.068876-.3462-.013775-.6925-.068876-1.0553-.110202-.3297-.041326-.6925-.082651-1.0388-.082651-.2803 0-.5606.013775-.8409.041325-.1979.013776-.3958.027551-.5936.041326-.742.055101-1.484.096427-2.226.110202-.0165 0-.0495 0-.066.013775-1.2037.247954-2.259.730083-3.5121 1.308643-.1155.0551-.2309.09643-.3463.16531-4.7983 2.20403-9.4317 4.68357-13.8178 7.42484-4.1552 2.60353-8.1126 5.42743-11.8226 8.45803-.2803.2204-.5606.4545-.8245.6887-2.6382 2.2041-5.14453 4.5045-7.65086 6.805-.41222.3857-.82445.7714-1.23667 1.1709-.9069.8678-1.76433 1.7907-2.45686 2.8101-.49467.7025-.89041 1.4602-1.121256 2.2592-.115424.3719-.164891.7714-.280314 1.1433-.362758 1.0745.148401 2.2591.791472 3.1958.016489.0551.082445.1516.131908.2342z" fill="#eb924d"/><path d="m208.113 13.0049c-.909 11.7329-1.025 24.0092-.628 36.6339.066 2.3132-2.081 4.264-4.856 4.3476-54.707 1.8673-108.4729 2.355-161.1813 1.2959-.9746-.0139-1.9326-.2786-2.7585-.7385-9.0518-5.1418-17.3107-10.7435-24.5951-16.9305-1.8334-1.5467-1.9821-3.9853-.3468-5.6853 8.6553-9.0017 18.7477-16.8051 30.7396-23.0199.7764-.4041 1.6849-.62705 2.5933-.62705 49.3058-.71066 101.5848-.57132 156.0608.18115 2.907.05574 5.17 2.1181 4.972 4.5427z" fill="url(#g)"/><path d="m17.7237 34.9296c.1316.3341.4111.5847.6906.8353 1.1674 1.0162 2.3677 1.9906 3.6173 2.9512 3.0911 2.4083 6.3631 4.6634 9.6844 6.8211 3.4364 2.2413 6.7742 5.276 11.0984 6.2365 5.0807 1.1276 11.4109.3898 16.6395.4594 12.7098.167 25.4195.2506 38.1293.2506 17.1328 0 34.2488-.1532 51.3648-.4455 8.978-.1531 17.939-.348 26.9-.5847 4.39-.1113 8.78-.2227 13.186-.3619 3.749-.1114 8.698.4594 12.299-.3341 3.206-.71 2.351-7.3084 2.368-9.299.033-5.4848-.148-10.9835.131-16.4682.05-1.0441.115-2.0742.198-3.1044.197-2.4082 1.529-10.3152-3.404-10.2317-28.428.529-57.054-.4872-85.532-.4872-12.759 0-25.5181.0418-38.2772.1392-6.1494.0418-12.2987.1114-18.4481.181-3.4857.0417-7.2017-.4177-10.6052.4594-3.5515.9048-6.9221 3.508-9.8488 5.3873-7.2674 4.6495-13.4168 10.1342-19.5004 15.8278-.5097.4872-.9208 1.1554-.6906 1.7679z" fill="#e48a4a"/><path d="m83.2422 22.8672c.0156.0625.0312.1172.0469.164.0156.0313.0312.0704.0468.1172.0157.0469.0313.0938.0469.1407.0156.0468.0313.0937.0469.1406.0156.0781.0156.1484 0 .2109s-.0313.1328-.0469.211v.2109c0 .0625-.0078.125-.0234.1875-.0469.2188-.086.375-.1172.4688-.0156.0624-.0313.1171-.0469.164s-.0312.1016-.0469.1641c-.0312.0625-.0468.1406-.0468.2343 0 .0782-.0078.1641-.0235.2579-.0625.1875-.0937.3047-.0937.3515.0156.0313.0156.0625 0 .0938-.0313.1718-.0547.2812-.0703.3281v.1172c-.0625.1719-.1094.3047-.1407.3984-.0156.0625-.0312.125-.0468.1875-.0157.0625-.0235.1328-.0235.211-.0312.0468-.0703.0937-.1172.1406-.0468.0469-.0859.1016-.1171.164-.1563-.0624-.25-.1015-.2813-.1171-.0469-.0157-.1016-.0313-.1641-.0469-.0468-.0156-.0859-.0391-.1172-.0703-.0781.0156-.1874 0-.3281-.0469-.1719-.0469-.2578-.0625-.2578-.0469 0 .0157-.0156.0157-.0469 0-.0468-.0156-.1172-.0156-.2109 0-.0781 0-.1563 0-.2344 0-.0469 0-.0859 0-.1172 0-.0312-.0156-.0781-.0234-.1406-.0234-.1406 0-.2578 0-.3515 0-.0782-.0156-.1641-.0078-.2579.0234-.0468 0-.0937 0-.1406 0-.0469-.0156-.1015-.0234-.1641-.0234-.1718 0-.3046 0-.3984 0-.0781-.0156-.1562-.0235-.2344-.0235h-.4687c-.0781 0-.1563.0079-.2344.0235-.0625 0-.1328 0-.2109 0-.1406-.0156-.2891-.0313-.4453-.0469-.1407-.0156-.2813-.0234-.4219-.0234h-.375c-.1719.0312-.2813.0468-.3281.0468-.0469-.0156-.086-.0156-.1172 0-.1719.0626-.2813.1016-.3281.1172-.0469.0157-.1016.0313-.1641.0469s-.1094.0391-.1406.0703c-.0469.0469-.0782.1563-.0938.3282-.0156.1718-.0234.3203-.0234.4453-.0157.1406-.0235.3047-.0235.4921.0157.1719.0391.336.0704.4922.0624.1563.1171.2344.164.2344.0469-.0156.086-.0234.1172-.0234.2031.0156.3281.0312.375.0468h.1406.3516c.0625 0 .1172.0079.164.0235.0938.0312.1641.0469.211.0469.0469-.0157.0859-.0235.1172-.0235.2187-.0469.3828-.0625.4922-.0469.1093.0157.2343.0235.375.0235.1093 0 .1718.0078.1875.0234h.0703c.0781 0 .164-.0156.2578-.0469h.2578c.0938-.0156.1797-.0312.2578-.0468.0938-.0156.1797 0 .2578.0468.0469-.0312.1485-.0468.3047-.0468.1875-.0469.3281-.0625.4219-.0469.1094.0156.1953.0078.2578-.0234.125.0312.2188.0468.2812.0468.0313 0 .0704-.0078.1172-.0234.0469-.0156.0938-.0234.1407-.0234.0625 0 .1171.0156.164.0468.0625.0157.125.0079.1875-.0234.0313.0313.0703.0625.1172.0937.0625.0313.1172.0782.1641.1407.0312.0937.039.2422.0234.4453v.164c.0156.0469.0156.086 0 .1172-.0469.2032-.0781.336-.0937.3985-.0157.0625-.0313.1328-.0469.2109-.0313.1563-.0547.25-.0703.2813-.0156.0312-.0313.0625-.0469.0937-.0625.1563-.1016.2734-.1172.3516-.0156.0781-.0391.1562-.0703.2344-.0312.0624-.0469.1328-.0469.2109s-.0078.1641-.0234.2578c-.0469.1719-.0703.2969-.0703.375.0156.0781.0078.1484-.0235.2109-.0156.0469-.039.0938-.0703.1407-.0312.0312-.0625.0703-.0937.1171-.1094.2657-.2266.4376-.3516.5157-.0625-.0157-.125-.0157-.1875 0-.0469.0156-.1094.0156-.1875 0-.0469-.0157-.1015-.0313-.1641-.0469-.0468-.0312-.1015-.0469-.164-.0469-.2344.0157-.3672.0157-.3984 0-.2657-.0312-.4141-.0469-.4454-.0469-.1718-.0312-.2968-.039-.375-.0234-.0781.0156-.1562 0-.2343-.0469-.1875.0625-.3203.0469-.3985-.0468-.0781.0312-.1875.0156-.3281-.0469-.1719-.0156-.3047-.0234-.3984-.0234-.0938-.0157-.1797-.0313-.2579-.0469-.125 0-.2109-.0078-.2578-.0235-.0468-.0156-.1093-.0078-.1875.0235-.0625.0156-.125.0234-.1875.0234h-.2812c-.1719.0938-.2578.1797-.2578.2578.0156.0781.039.1485.0703.211.0312.125.0391.2187.0234.2812v.2109c0 .0626.0078.125.0235.1876.0156.0624.0234.1171.0234.164 0 .0625-.0078.125-.0234.1875v.1406.1875c.0156.0469.0156.1016 0 .1641 0 .2031.0078.3672.0234.4922s.0391.25.0703.375c.0156.1094.0235.2187.0235.3281s.0078.2266.0234.3516v.164c.0156.0469.0312.1016.0469.1641.0156.2031.0156.4063 0 .6094-.0157.1875-.0157.3672 0 .539.0156.2188.0312.3594.0468.4219.0313.0469.0547.1016.0703.1641.0157.0625.0235.125.0235.1875v.1406.3281c0 .0469.0078.1016.0234.1641.0157.0469.0235.0937.0235.1406 0 .0781-.0235.1406-.0704.1875-.0312.0469-.0546.1016-.0703.1641-.1875-.0156-.3828-.0156-.5859 0-.2031.0312-.4141.0312-.6328 0-.0781 0-.1641-.0078-.2578-.0235-.0938-.0156-.1953-.0234-.3047-.0234-.3125-.0313-.6172-.0313-.9141 0-.1875 0-.289 0-.3047 0-.0156.0156-.039.0234-.0703.0234-.0312 0-.0937-.0078-.1875-.0234-.0781 0-.1562.0078-.2343.0234-.1876.0157-.3047.0157-.3516 0-.0313 0-.086.0079-.1641.0235-.1719 0-.3672 0-.5859 0-.2031.0156-.4063.0156-.6094 0-.125-.0156-.2109-.0156-.2578 0s-.1016.0234-.1641.0234c-.0781 0-.1484-.0234-.2109-.0703-.0469-.0313-.0859-.0625-.1172-.0937-.0781-.1563-.1172-.2344-.1172-.2344-.0468-.2656-.0703-.4844-.0703-.6563 0-.0312.0078-.0703.0235-.1172.0156-.0468.0234-.0937.0234-.1406-.0313-.3281-.0313-.6094 0-.8437 0-.1094.0156-.2422.0469-.3985.0156-.1875.0156-.2969 0-.3281 0-.0469 0-.0859 0-.1172 0-.0781.0078-.1328.0234-.164.0313-.0313.0391-.086.0234-.1641.0313-.1406.0469-.2422.0469-.3047s.0078-.1172.0234-.1641l.0704-.2812c.0312-.125.039-.25.0234-.375 0-.125 0-.2578 0-.3985 0-.0624.0156-.1562.0469-.2812 0-.0625-.0078-.1172-.0235-.1641 0-.0468.0078-.0937.0235-.1406.0312-.1406.0469-.2265.0469-.2578-.0157-.1406-.0235-.2187-.0235-.2344.0156-.0156.0235-.039.0235-.0703l.0234-.4922c0-.2031.0078-.3437.0234-.4218.0156-.0938.0235-.1797.0235-.2579 0-.0312 0-.0781 0-.1406s-.0079-.1094-.0235-.1406c0-.0938-.0078-.1641-.0234-.2109 0-.0626 0-.125 0-.1876 0-.1093-.0078-.1796-.0234-.2109 0-.0469 0-.0937 0-.1406s0-.0938 0-.1406c.0156-.0625.0078-.1172-.0235-.1641.0156-.0781.0235-.1562.0235-.2344.0156-.0937.0234-.1797.0234-.2578s-.0156-.1562-.0469-.2344c-.0156-.0781-.0234-.1562-.0234-.2343.0156-.1094.0156-.1797 0-.211 0-.0312 0-.0703 0-.1172-.0157-.0781-.0235-.1562-.0235-.2343 0-.0782 0-.1563 0-.2344v-.7031c0-.0938-.0078-.1875-.0234-.2813 0-.0937 0-.1953 0-.3047.0156-.125.0156-.2031 0-.2343 0-.0469 0-.086 0-.1172 0-.0782 0-.1407 0-.1875 0-.0469-.0078-.1094-.0234-.1875.0312-.125.0312-.2578 0-.3985-.0313-.1406-.0313-.25 0-.3281l-.0235-.3047c.0157-.0312.0235-.1015.0235-.2109s-.0078-.2032-.0235-.2813v-.3515c-.0312-.1563-.0469-.2891-.0469-.3985-.0156-.1875-.039-.3125-.0703-.375-.0312-.0781-.039-.1719-.0234-.2812 0-.1094-.0078-.1797-.0234-.211-.0157-.0468-.0235-.0937-.0235-.1406.0156-.1406.0156-.2187 0-.2344 0-.0312 0-.0625 0-.0937-.0156-.1563-.0312-.2578-.0468-.3047 0-.0469 0-.0937 0-.1406.0312-.1875.039-.2969.0234-.3281 0-.0469 0-.0938 0-.1407.0625-.1406.0937-.2187.0937-.2343.0157-.0313.0313-.0547.0469-.0704.1875-.125.336-.1875.4453-.1875.2031-.0468.3281-.0703.375-.0703.0625 0 .125-.0078.1875-.0234h.1406c.0469-.0156.1016-.0234.1641-.0234.0625-.0157.1172-.0235.1641-.0235h.164c.1563-.0312.2578-.0469.3047-.0469.25.0625.4219.0938.5157.0938.0937-.0156.1953-.0234.3046-.0234.1407-.0313.2813-.0235.4219.0234.0938.0156.1875.039.2813.0703.0937.0156.1875.0234.2812.0234.0938-.0156.1797-.0312.2578-.0468.0938-.0157.1875-.0235.2813-.0235l.4453.0469c.25-.0156.4062-.0234.4687-.0234.0938-.0157.1797-.0235.2579-.0235.0937 0 .1874-.0078.2812-.0234.2344-.0313.3984-.0391.4922-.0234.0937.0156.1953.0234.3047.0234h.2578c.0937-.0156.1797-.0234.2578-.0234.0625 0 .1172.0078.1641.0234h.2109c.1094.0156.2109.0234.3047.0234.1094-.0156.2031-.0312.2812-.0468l.6328-.0704c.0782-.0156.1485-.0156.211 0h.2109c.2031-.0156.3985-.0234.586-.0234.1875-.0156.3671-.0078.539.0234h.2578c.0469-.0156.086-.0156.1172 0 .1094 0 .1875.0078.2344.0235h.2109.1875c.0313-.0157.0625-.0235.0938-.0235.1719.0157.2578.0157.2578 0 .0156-.0156.0391-.0234.0703-.0234.1719-.0156.2578-.0234.2578-.0234.1719-.0313.2813-.0313.3282 0 .0468.0156.1015.0312.164.0468h.1641c.0625-.0156.125-.0156.1875 0 .1094.0157.1718.0391.1875.0704.0156.0156.039.0234.0703.0234zm6.4219 4.9453c.1718 0 .289-.0313.3515-.0937.125-.0938.2032-.1485.2344-.1641s.0625-.0391.0938-.0703c.1562-.1406.2656-.2578.3281-.3516.125-.125.1875-.1953.1875-.2109.1094-.1094.1797-.1797.2109-.211.0313-.0312.0625-.0625.0938-.0937.1093-.0469.1875-.0938.2343-.1406.0625-.0625.125-.1094.1875-.1407.1094-.0468.1875-.0859.2344-.1171.1719-.0626.2578-.0938.2578-.0938.0157-.0156.0313-.0234.0469-.0234.0312-.0313.0625-.0547.0938-.0704.0312-.0312.0703-.0624.1171-.0937.0938-.0156.1797-.0469.2579-.0937.1718-.0626.3046-.0938.3984-.0938.1875-.0781.289-.1172.3047-.1172.0625-.0312.1172-.039.164-.0234.0469 0 .086-.0078.1172-.0235.1563.0157.25.0235.2813.0235h.3984c.0781-.0156.1406-.0156.1875 0 .0938.0156.1719.0547.2344.1172s.1406.0937.2344.0937c.0312.0469.0625.0859.0937.1172.0313.0313.0547.0781.0703.1406.125.1094.1797.1641.1641.1641 0 0 .0078.0078.0234.0234.0625.1719.0938.2656.0938.2813.0312.1719.0312.3359 0 .4922-.0156.0937-.0235.25-.0235.4687.0157.2188-.0156.3672-.0937.4453.0312.1563.0312.3203 0 .4922 0 .0781-.0078.1563-.0234.2344-.0157.0625-.0235.1328-.0235.2109v.2813c.0156.0937.0235.1875.0235.2812 0 .0625-.0079.125-.0235.1875s-.0312.1172-.0469.1641c-.0312.1562-.0546.2656-.0703.3281 0 .0469-.0078.0938-.0234.1406-.0781.2188-.1328.3516-.1641.3985-.0468.0469-.0937.0703-.1406.0703-.0312 0-.0703.0078-.1172.0234-.1719.0625-.2734.086-.3047.0703-.0156-.0156-.0469-.039-.0937-.0703-.0469.0156-.0938.0156-.1406 0-.0469-.0312-.0938-.0468-.1407-.0468-.2812.0156-.4531.0312-.5156.0468h-.2578c-.1406.0469-.2344.086-.2813.1172-.0468.0156-.0859.0391-.1172.0703-.1718.0313-.2734.0625-.3046.0938-.1094.0156-.1875.0312-.2344.0469-.0313.0156-.0625.0312-.0938.0468-.1718.0313-.2812.0469-.3281.0469-.1094.0469-.1953.1016-.2578.1641-.1719.0625-.2734.1093-.3047.1406-.0312.0312-.0703.0547-.1172.0703-.0312.0469-.0703.0859-.1172.1172-.0312.0156-.0625.0391-.0937.0703-.0938.0625-.1641.1172-.2109.1641-.1094.0781-.1876.1484-.2344.2109-.0469.0469-.0938.0859-.1406.1172-.0313.0312-.0704.0625-.1172.0937-.0313.0313-.0625.0625-.0938.0938-.0156.0625-.039.1094-.0703.1406-.0313.0313-.0625.0625-.0937.0938-.0782.1875-.1329.3125-.1641.375-.0313.0468-.0469.1093-.0469.1875-.0625.0625-.1094.1406-.1406.2343-.0156.0782-.0391.1719-.0703.2813-.0157.0781-.0313.164-.0469.2578-.0156.0781-.0234.1562-.0234.2344.0312.2031.0312.3359 0 .3984-.0157.1563-.0235.25-.0235.2813.0157.0312.0235.0625.0235.0937-.0157.1719-.0235.2891-.0235.3516.0157.0468.0235.1015.0235.164-.0313.2188-.0547.3594-.0704.4219 0 .0469-.0078.0938-.0234.1406v.1172c.0156.2344.0156.3985 0 .4922-.0156.0781-.0234.1641-.0234.2578v.211c.0156.0625.0234.1328.0234.2109 0 .375.0313.6641.0938.8672.0156.125.0312.2109.0468.2578.0157.0469.0235.0938.0235.1406.0312.125.0469.2344.0469.3282 0 .0937-.0079.1562-.0235.1874-.0156.1094-.0234.1954-.0234.2579-.0781.1406-.1172.2265-.1172.2578 0 .0312-.0078.0625-.0235.0937-.0312.0469-.0781.0938-.1406.1406-.0625.0313-.1094.0704-.1406.1172-.1094-.0156-.2344 0-.375.0469-.1094.0313-.1875.0391-.2344.0235-.0468 0-.0937.0078-.1406.0234-.0469 0-.0938 0-.1406 0-.0469.0156-.086.0234-.1172.0234-.1875.0156-.2891.0156-.3047 0 0 0-.0078 0-.0234 0-.1719 0-.2735-.0078-.3047-.0234-.0156 0-.0313 0-.0469 0l-.6328.0937c-.2344.0157-.3985.0235-.4922.0235-.0781.0156-.1563.0078-.2344-.0235-.2187-.0312-.375-.0625-.4687-.0937-.0782-.0313-.1563-.0469-.2344-.0469-.1094-.0937-.1953-.1641-.2578-.2109-.0625-.0625-.125-.1172-.1875-.1641-.0469-.1562-.0781-.25-.0938-.2812 0-.0313-.0078-.0625-.0234-.0938-.0625-.2187-.0937-.3359-.0937-.3515 0-.2032 0-.3672 0-.4922.0156-.1407.0312-.2578.0468-.3516.0156-.0625.0235-.1797.0235-.3516.0312-.1718.0468-.2656.0468-.2812 0-.0781 0-.1484 0-.211 0-.0624.0079-.1093.0235-.1406.0312-.2187.0468-.3437.0468-.375-.0156-.125-.0234-.1953-.0234-.2109.0156-.0313.0234-.0625.0234-.0938 0-.0781-.0078-.1718-.0234-.2812 0-.1094 0-.2188 0-.3281.0313-.1875.0391-.2891.0234-.3047 0-.0157.0079-.0391.0235-.0703 0-.0782.0078-.1485.0234-.211.0157-.0625.0078-.125-.0234-.1875 0-.1719 0-.2656 0-.2812.0156-.0313.0234-.0625.0234-.0938 0-.125 0-.2343 0-.3281.0157-.1094.0157-.2266 0-.3516 0-.0468-.0078-.0937-.0234-.1406 0-.0625 0-.125 0-.1875 0-.1406.0078-.2656.0234-.375.0157-.125.0157-.25 0-.375-.0156-.2031-.0312-.3672-.0469-.4922 0-.125.0079-.25.0235-.375-.0156-.1562-.0235-.2422-.0235-.2578-.0312-.1094-.0468-.1875-.0468-.2344.0156-.0625.0156-.1328 0-.2109 0-.1406-.0156-.2188-.0469-.2344-.0156-.0312-.0234-.0625-.0234-.0937.0156-.1407.0156-.2422 0-.3047-.0157-.0625-.0235-.125-.0235-.1875.0156-.0625.0235-.1094.0235-.1406.0156-.0469.0234-.0938.0234-.1407-.0156-.1406-.0234-.2187-.0234-.2343.0156-.0157.0234-.0313.0234-.0469l-.0234-.586c0-.1093 0-.1953 0-.2578 0-.0781-.0157-.1562-.0469-.2343-.0156-.0782-.0156-.1719 0-.2813.0156-.125.0156-.2031 0-.2344-.0156-.0468-.0234-.1015-.0234-.164.0156-.0782.0156-.1563 0-.2344-.0157-.0781-.0235-.1484-.0235-.2109 0-.0469 0-.0938 0-.1407.0156-.0625.0235-.1172.0235-.164 0-.0782-.0157-.1563-.0469-.2344-.0157-.0781-.0235-.1562-.0235-.2344.0625-.2344.1016-.375.1172-.4218.0156-.0626.0469-.125.0938-.1876.1406-.125.2109-.1953.2109-.2109s.0078-.0234.0235-.0234c.125-.0157.2109-.0157.2578 0 .0468 0 .0781-.0157.0937-.0469.0469.0312.0938.0391.1406.0234.0625-.0156.1172-.0234.1641-.0234.25-.0469.5312-.0469.8438 0 .1718.0312.2656.0469.2812.0469.0156-.0157.0312-.0235.0469-.0235h.2812c.0469-.0156.0938-.0234.1407-.0234.1093-.0156.1796-.0156.2109 0 .0469 0 .1015-.0078.1641-.0234.1874-.0313.2968-.0391.3281-.0235.0312 0 .0703-.0078.1172-.0234.0312 0 .0781.0078.1406.0234.0625 0 .1172-.0156.1641-.0469.125.0157.2343.0313.3281.0469.0937 0 .2109.0078.3515.0235.1094.1093.1875.164.2344.164.0469.0469.0781.1328.0938.2578.0468.1407.0625.2266.0468.2578 0 .0313.0078.0626.0235.0938 0 .0781.0156.1719.0469.2812.0312.1094.0468.2188.0468.3282v.2578zm14.0389 12.2578c-.078-.1875-.133-.2969-.164-.3281-.016-.0469-.031-.1094-.047-.1875l.024-.3047c0-.0625-.008-.1172-.024-.1641-.015-.0625-.023-.1171-.023-.164-.031-.1719-.063-.2891-.094-.3516.016-.0937.023-.1562.023-.1875 0-.0469-.007-.0859-.023-.1172l-.141-.2344c-.125.1563-.179.2344-.164.2344-.125.0782-.195.1328-.211.1641-.093.0937-.148.1406-.164.1406-.015 0-.039.0156-.07.0469-.109.1562-.195.2656-.258.3281-.125.1406-.187.2109-.187.2109-.078.0938-.149.1563-.211.1876-.094.0937-.149.1562-.164.1874-.016.0157-.047.0391-.094.0704-.109.125-.195.2031-.258.2343-.141.1563-.226.2344-.258.2344-.031.0313-.07.0547-.117.0703-.047.0313-.086.0625-.117.0938-.047.0156-.133.0234-.258.0234-.156 0-.265 0-.328 0-.187-.0625-.297-.1094-.328-.1406-.1408-.0313-.2345-.0547-.2814-.0703-.0468-.0157-.0937-.0235-.1406-.0235-.1406-.1093-.2109-.164-.2109-.164-.125-.0313-.1953-.0469-.211-.0469-.0156-.0156-.0312-.0234-.0469-.0234-.1562-.0625-.2578-.1016-.3046-.1172-.0313-.0313-.086-.0469-.1641-.0469-.0937-.0625-.1484-.1016-.1641-.1172 0-.0312-.0078-.0547-.0234-.0703-.0938-.0625-.1719-.1016-.2344-.1172-.0312-.0781-.0781-.125-.1406-.1406-.0625-.0313-.125-.0703-.1875-.1172-.1094-.1094-.1719-.1641-.1875-.1641 0-.0156-.0156-.039-.0469-.0703l-.2109-.2109-.1875-.211c-.125-.1718-.2188-.3046-.2813-.3984-.1562-.1875-.2343-.2969-.2343-.3281-.2032-.1875-.3125-.2891-.3282-.3047-.0781-.0781-.1328-.1562-.164-.2344-.0781-.1094-.1328-.1953-.1641-.2578-.0625-.0469-.1016-.1172-.1172-.2109 0-.0938 0-.1875 0-.2813-.0312-.125-.0703-.2422-.1172-.3515-.0468-.1094-.0625-.1875-.0468-.2344.0156-.0469.0156-.1094 0-.1875.0468-.0781.0781-.1484.0937-.211.0313-.0624.0859-.1093.1641-.1406.0625-.1562.1015-.2344.1172-.2344.0781-.1093.1328-.1874.164-.2343.0625-.1094.1016-.1719.1172-.1875.0313-.0313.0625-.0625.0938-.0938.0312-.0625.0937-.1406.1875-.2344.0625-.0468.1171-.1015.164-.164l.1875-.1875c.125-.1406.2422-.2656.3516-.375.125-.1406.1875-.2109.1875-.2109.0156 0 .0312-.0079.0469-.0235.1562-.125.2422-.2031.2578-.2344l.0937-.0937c.1407-.0938.2188-.1406.2344-.1406s.0391-.0078.0703-.0235c.1563-.0937.2422-.1484.2578-.164.125-.0782.1953-.1329.211-.1641.0312-.0312.0625-.0547.0937-.0703.1563-.0938.2656-.1563.3281-.1875.1407-.1094.211-.1641.211-.1641.0156 0 .0312-.0078.0468-.0234.1719-.0625.2735-.125.3047-.1875.1563-.0625.2811-.1172.3751-.1641.094-.0625.195-.1093.305-.1406.172-.0781.281-.1406.328-.1875.156-.125.234-.2031.234-.2344-.062-.0468-.133-.0625-.211-.0468-.062 0-.14 0-.234 0-.141 0-.242 0-.305 0-.062 0-.125 0-.187 0-.047 0-.102.0078-.1644.0234-.0469 0-.1016-.0078-.1641-.0234-.2031-.0313-.3359-.0391-.3984-.0235-.0469 0-.0938 0-.1407 0l-.3984.0235c-.0938-.0313-.1875-.0469-.2812-.0469-.0469.0156-.1016.0234-.1641.0234-.0625-.0156-.1172-.0234-.1641-.0234-.0937 0-.1953.0156-.3047.0469-.1093.0156-.2265.0234-.3515.0234-.0469.0156-.1016.0234-.1641.0234-.0469-.0156-.1015-.0234-.1641-.0234-.2343 0-.4218 0-.5624 0-.125-.0156-.25-.0156-.375 0-.1876-.0156-.2891-.0313-.3047-.0469-.0157-.0312-.0391-.0625-.0703-.0937-.0782-.1719-.1172-.2657-.1172-.2813.0156-.0312.0234-.0625.0234-.0937.0312-.1563.0469-.25.0469-.2813.0156-.0312.0234-.0625.0234-.0937.0313-.1563.0547-.2344.0703-.2344.0156-.0156.0313-.0391.0469-.0703.0313-.1875.0625-.3203.0937-.3985.0313-.0937.0626-.1796.0938-.2578.0156-.0468.0234-.0859.0234-.1172 0-.0468.0157-.0937.0469-.1406.0625-.1562.0938-.3359.0938-.539.0312-.2032.0703-.3594.1171-.4688.0469-.125.0782-.2344.0938-.3281.0469-.1563.0703-.2657.0703-.3281l.0938-.2813c.1406-.1563.2265-.2734.2578-.3516.0469-.0312.0859-.0547.1172-.0703.0468-.0312.0937-.0625.1406-.0937.125-.0469.2344-.0781.3281-.0938.0938 0 .1484-.0078.1641-.0234.0312-.0156.0625-.0313.0937-.0469.1719.0156.2813.0156.3282 0 .0624-.0156.1328 0 .2109.0469.1094-.0313.1797-.0391.2109-.0235h.1406c.0938.0157.1954.0235.3047.0235h.3516.2578c.1875-.0313.2891-.0391.3047-.0235h.094c.031.0157.094.0235.187.0235.094-.0156.149-.0235.164-.0235h.305c.141 0 .273-.0078.398-.0234.11-.0156.18-.0156.211 0 .032.0156.063.0234.094.0234h.305c.172-.0156.265-.0156.281 0h.07l.258-.0234c.11 0 .18.0078.211.0234.047.0157.086.0235.117.0235.11-.0156.172-.0156.188 0 .031.0156.062.0234.094.0234.328 0 .554.0313.679.0938.25.0781.406.125.469.1406.125.0937.187.1406.187.1406.016-.0156.032-.0156.047 0 .094.0938.164.1485.211.1641.047 0 .086.0156.118.0469.093.0937.164.164.21.2109.141.1094.227.1719.258.1875.11.125.196.2187.258.2813.078.0624.133.1093.164.1406.031.0156.063.039.094.0703.156.0937.242.1641.258.2109.015.0469.054.0782.117.0938.047.125.07.2109.07.2578.016.0469.055.0781.117.0937.016.0469.032.0938.047.1407.016.0468.039.1015.071.164.046.0782.062.1406.046.1875 0 .0313.008.0625.024.0938.016.0781.031.1406.047.1875.031.0312.054.0625.07.0937.063.2344.109.3985.141.4922.031.0781.062.1563.093.2344.032.0625.047.125.047.1875.016.0469.039.1094.071.1875.093.25.156.4453.187.5859.047.125.086.2656.117.4219.032.0937.055.1953.071.3047.031.1094.054.2031.07.2812.016.1719.039.3047.07.3985l.071.4219c.031.125.054.2421.07.3515.031.1094.047.2266.047.3516.062.2187.117.3672.164.4453.015.1406.031.2266.047.2578.031.0781.047.1406.047.1875 0 .0313.007.0625.023.0937.063.2032.086.3282.07.375 0 .0469.008.0938.024.1407.031.1093.039.1797.023.2109v.0469c.016.0625.031.1172.047.1641.031.0312.047.0781.047.1406-.016.1094-.016.1875 0 .2344.031.0468.055.0937.07.1406 0 .0937.008.1562.024.1875.015.0156.031.0469.047.0937l.023.3985c.031.0781.047.1718.047.2812 0 .0938.008.1875.023.2813.032.1718.055.3125.071.4218.015.1094.039.211.07.3047.016.0625.023.1172.023.1641 0 .0312.016.0625.047.0937.063.1407.094.2344.094.2813v.1172c0 .0937-.008.1875-.023.2812-.016.0938-.04.1797-.071.2578-.047.1719-.07.2813-.07.3282-.141.1093-.219.1718-.234.1875-.016 0-.055.0078-.118.0234-.062.0156-.171.0391-.328.0703-.203.0313-.32.0547-.351.0703-.032 0-.063.0078-.094.0235-.156 0-.234 0-.234 0 0-.0157-.008-.0235-.024-.0235-.125.0157-.195.0235-.211.0235-.015-.0157-.039-.0235-.07-.0235-.219 0-.352.0078-.399.0235-.109 0-.203.0078-.281.0234-.078 0-.156 0-.234 0-.156.0156-.266.0391-.328.0703-.157.0313-.25.0469-.282.0469-.187.0312-.328.039-.421.0234-.094 0-.196.0078-.305.0235-.172.0156-.266.0234-.281.0234-.078.0156-.172.0078-.282-.0234-.093-.0313-.187-.0625-.281-.0938zm-.398-3.3281c-.016-.2188-.032-.375-.047-.4688-.016-.1093-.031-.1875-.047-.2343-.031-.1407-.047-.2344-.047-.2813.016-.0469.016-.0859 0-.1172-.047-.2656-.07-.4453-.07-.539 0-.0938-.016-.1875-.047-.2813-.031-.125-.055-.2031-.07-.2344-.016-.0468-.032-.0859-.047-.1171-.11-.0938-.18-.1329-.211-.1172-.031.0156-.055.039-.071.0703-.14.0937-.218.1484-.234.164-.141.0782-.226.1329-.258.1641-.078.0625-.125.1016-.14.1172-.016.0156-.039.039-.071.0703-.156.125-.234.1875-.234.1875 0-.0156-.008-.0156-.023 0-.157.1094-.25.1875-.282.2344-.031.0312-.07.0625-.117.0937-.031.0781-.07.1407-.117.1875-.031.0469-.063.0938-.094.1406.031.0626.047.1172.047.1641 0 .0313-.016.0859-.047.1641.11.125.188.1875.234.1875.079.0469.133.0703.165.0703.031 0 .062.0078.093.0234.094.0625.149.1094.164.1406.016.0157.032.0235.047.0235.141.0625.227.0937.258.0937.047 0 .102.0078.164.0235.109.0312.188.0547.235.0703.062 0 .109.0078.14.0234.172.0938.313.1563.422.1875.125.0157.227.0078.305-.0234zm11.086-8.2734c.14-.1094.218-.1563.234-.1407.016 0 .023-.0078.023-.0234.125-.1094.204-.1797.235-.2109.094-.0469.148-.0782.164-.0938.031-.0156.062-.0312.094-.0469l.328-.2343c.062-.0313.109-.0704.14-.1172.047-.0625.094-.125.141-.1875.172-.0938.266-.1485.281-.1641.063-.0625.117-.1016.164-.1172s.086-.039.117-.0703c.204-.1719.368-.2813.493-.3281.062-.0782.133-.1328.211-.1641.078-.0469.148-.1094.211-.1875.109-.0312.187-.0703.234-.1172.078-.0625.133-.1015.164-.1172.047-.0312.094-.0546.141-.0703.187-.0156.289-.0234.304-.0234.125.0156.211.0234.258.0234.11.0938.172.1407.188.1407.031 0 .062.0156.093.0468.032.0313.071.0625.118.0938.046.0156.085.039.117.0703l.211.1641c.14.0781.211.125.211.1406 0 0 .007.0078.023.0234.094.0781.164.1328.211.1641.047.0312.078.0703.094.1172.109.0468.195.1093.258.1875.078.0625.156.1328.234.2109.172.1094.281.1797.328.2109.047.0313.086.0625.117.0938.125.0469.219.125.281.2344.063.1093.157.1953.282.2578.125.125.187.1875.187.1875.031.0469.063.1015.094.164.047.0625.086.1172.117.1641.125.1406.196.2266.211.2578.016.0156.039.0391.07.0703.079.0938.149.1875.211.2813.063.125.118.2578.164.3984.063.1406.133.2734.211.3984-.031.125-.023.2579.024.3985l.023.2578c0 .1094.008.1875.024.2344.015.0469.023.0859.023.1172.031.0468.031.0937 0 .1406-.015.0469-.023.1015-.023.1641.015.1874.015.3124 0 .375v.1406.1172c.015.0468.015.1015 0 .164-.032.2032-.055.3438-.071.4219 0 .0625.008.1484.024.2578 0 .1719-.016.2969-.047.375-.016.0625-.024.1328-.024.2109.016.1876.024.3047.024.3516.016.0313.023.0625.023.0938l-.023.5625c.016.1562.016.2343 0 .2343v.0235c.016.125.016.1953 0 .2109v.0469.1406c.016.0469.023.0938.023.1406v.211c.016.0156.024.0312.024.0469-.047.1406-.071.2187-.071.2343.016.0157.024.0391.024.0703v.1875c.016.0469.023.1016.023.1641 0 .0781-.007.1562-.023.2344v.2344.2578c.047.2343.07.4296.07.5859s.008.3125.024.4687v.2344c.015.0156.023.0391.023.0703.016.1719.024.3438.024.5157v.4922c0 .0468.007.0937.023.1406.016.0468.016.0937 0 .1406s-.031.0859-.047.1172c-.015.0156-.039.0547-.07.1172-.313.125-.508.1953-.586.2109-.078.0313-.172.0313-.281 0-.078 0-.18-.0078-.305-.0234-.109 0-.203.0078-.281.0234-.172-.0156-.289-.0234-.352-.0234-.047.0156-.101.0234-.164.0234h-.398c-.078 0-.157 0-.235 0-.062.0156-.125.0156-.187 0-.156-.0469-.242-.0703-.258-.0703-.031 0-.07 0-.117 0-.047.0156-.11.0234-.188.0234-.187-.0156-.297-.0156-.328 0-.015.0157-.039.0157-.07 0-.031.0313-.078.0469-.141.0469-.062 0-.133 0-.211 0-.14.0313-.25.0235-.328-.0234-.141-.125-.242-.211-.305-.2578 0-.0782-.007-.1563-.023-.2344s-.023-.1641-.023-.2578l.046-.3047.024-.2578c.016-.0313.023-.0703.023-.1172.016-.0469.039-.1094.071-.1875.015-.0469.023-.0859.023-.1172.016-.0469.031-.1094.047-.1875 0-.1875.008-.3203.023-.3984.016-.0938.024-.1797.024-.2578-.016-.2032-.008-.336.023-.3985 0-.1719.008-.2656.024-.2812-.016-.1563-.016-.25 0-.2813.015-.0312.023-.0625.023-.0937 0-.1875 0-.2891 0-.3047.016-.0156.024-.0313.024-.0469-.032-.1719-.047-.2656-.047-.2813.015-.0156.023-.0312.023-.0468 0-.0469-.008-.0938-.023-.1406 0-.0626 0-.1329 0-.211v-.3047c-.016-.1719-.024-.3047-.024-.3984-.031-.1875-.047-.3125-.047-.375.016-.0625.024-.1172.024-.1641 0-.2187 0-.3828 0-.4922 0-.125-.016-.2265-.047-.3046.031-.0313.039-.0782.023-.1407 0-.0625 0-.1172 0-.164.016-.1563.008-.2735-.023-.3516-.016-.0937-.008-.1719.023-.2344-.015-.1406-.031-.2422-.047-.3047 0-.0625-.031-.1093-.093-.1406-.141-.125-.211-.2031-.211-.2344-.203-.0156-.375.0157-.516.0938-.109.1406-.172.2109-.187.2109-.11.1563-.196.2578-.258.3047-.047.0469-.094.1016-.141.1641-.125.1562-.203.25-.234.2812-.172.0938-.297.1719-.375.2344-.063.0625-.141.0859-.235.0703-.078 0-.148-.0234-.21-.0703-.047-.0625-.11-.1094-.188-.1406-.031-.0781-.07-.1407-.117-.1875-.047-.0469-.086-.1094-.117-.1875-.11-.1563-.164-.2344-.164-.2344.015 0 .015-.0078 0-.0234-.078-.1407-.164-.2735-.258-.3985-.031.0313-.047.0703-.047.1172v.1406.2813.5156c0 .0781-.008.1641-.023.2578v.2813.5859c.015.1875.023.3828.023.5859.031.0782.047.1641.047.2579v.2578l.023.2578v.1641c.016.0312.024.0624.024.0937.015.1719.015.2734 0 .3047-.016.0312-.024.0625-.024.0937 0 .0938.016.2188.047.375-.016.0625-.023.1329-.023.211.015.0781.023.1484.023.2109.016.0469.016.0938 0 .1406v.1407c.016.1562.031.2656.047.3281.016.0469.023.0859.023.1172.032.2812.047.4609.047.539.016.0469.016.1016 0 .1641 0 .0469.008.0937.024.1406.031.1563.039.2422.023.2578v.0703l.07.3516c-.015.1563-.023.2422-.023.2578.016.0156.023.0391.023.0703-.046.1719-.07.2969-.07.375 0 .0782-.023.1329-.07.1641-.156.0156-.274.0234-.352.0234-.078.0157-.148.0391-.211.0704-.265.0312-.476.0234-.632-.0235-.157-.0312-.243-.0469-.258-.0469-.016.0157-.039.0235-.071.0235-.062 0-.109-.0078-.14-.0235-.031 0-.078 0-.141 0-.187-.0156-.305-.0234-.351-.0234-.032 0-.071-.0078-.118-.0234-.078 0-.164 0-.257 0-.079-.0157-.157-.0313-.235-.0469-.187-.0469-.359-.0547-.515-.0235-.141.0313-.25.0547-.329.0704-.109 0-.179 0-.21 0-.016-.0157-.04-.0157-.071 0-.047 0-.093.0078-.14.0234-.032 0-.079-.0078-.141-.0234-.125 0-.227.0156-.305.0468-.172-.0625-.265-.0937-.281-.0937 0 0-.008-.0156-.023-.0469-.047-.0781-.086-.1328-.118-.164-.015-.0313-.023-.0704-.023-.1172.016-.25.016-.4297 0-.5391 0-.125.008-.2422.023-.3516 0-.1875 0-.3047 0-.3515.016-.0625.032-.1172.047-.1641.032-.2812.063-.4609.094-.5391.016-.2031.016-.3359 0-.3984s-.016-.125 0-.1875c0-.1719.008-.2656.024-.2812.015-.0313.023-.0625.023-.0938l-.023-.3047c0-.0937 0-.1797 0-.2578s-.016-.1484-.047-.2109c.015-.1719.007-.2891-.024-.3516-.015-.0781-.008-.125.024-.1406.015-.1406.023-.2188.023-.2344s-.008-.0391-.023-.0703c0-.0469 0-.0938 0-.1406.015-.0469.023-.086.023-.1172 0-.0625-.008-.1094-.023-.1406-.016-.0469-.008-.0938.023-.1407 0-.1562 0-.2734 0-.3515 0-.0938 0-.1797 0-.2578 0-.0782-.008-.1485-.023-.211-.016-.0625-.024-.1172-.024-.164.016-.2032.008-.336-.023-.3985.015-.0625.023-.1172.023-.164 0-.0625.008-.125.024-.1875v-.2813-.4922c0-.125-.008-.2109-.024-.2578 0-.0625 0-.1172 0-.1641-.031-.1562-.047-.2812-.047-.375 0-.1093 0-.2031 0-.2812.016-.125.016-.2031 0-.2344-.015-.0468 0-.0625.047-.0468-.015-.25-.039-.4219-.07-.5157-.016-.0937-.008-.1797.023-.2578-.015-.0312-.031-.0703-.047-.1172-.015-.0469-.023-.1015-.023-.164.016-.1407.016-.2266 0-.2579-.016-.0312-.023-.0624-.023-.0937 0-.2031 0-.3594 0-.4687-.016-.1719-.024-.2813-.024-.3282.016-.0625.024-.125.024-.1875v-.3515c-.016-.125-.024-.2188-.024-.2813-.031-.1875-.047-.3047-.047-.3515 0-.0469-.008-.0938-.023-.1407l-.024-.3281c-.015-.1406-.015-.2969 0-.4688.141-.1718.203-.2578.188-.2578.187-.0781.305-.1172.351-.1172.188.0157.305.0157.352 0 .047-.0156.102-.0312.164-.0468.125 0 .203-.0078.234-.0235.032-.0156.063-.0234.094-.0234.047-.0156.094-.0156.141 0 .062.0156.109.0078.14-.0234.219.0156.375.0234.469.0234s.18-.0156.258-.0469c.047-.0156.109-.0156.188 0 .078.0156.14.0469.187.0938.078-.0313.148-.0391.211-.0235h.187c.172.0313.313.0469.422.0469.125-.0156.235-.0078.328.0234.079-.0312.172-.039.282-.0234.109.0156.203 0 .281-.0469l.281.0703c.156.1563.266.2969.328.4219.063.1094.047.2188-.047.3281-.031.1407-.054.2813-.07.4219-.016.125-.039.2657-.07.4219-.016.1875-.031.2969-.047.3281 0 .0313-.008.0625-.023.0938-.016.0781-.024.1484-.024.2109.016.0625.008.1328-.023.211zm15.843 12.0468c-.031.0469-.062.0938-.093.1406-.016.0469-.039.1016-.071.1641-.062.0938-.101.1719-.117.2344-.015.0625-.039.1328-.07.2109.14.0625.219.1016.234.1172.203.0313.313.0469.328.0469.032.0156.071.0234.117.0234.047 0 .094.0078.141.0235.203.0468.375.1172.516.2109.078 0 .148.0156.211.0469.062.0312.125.0625.187.0937.078-.0156.133-.0078.164.0235.031.0312.086.0468.164.0468.047.0469.094.086.141.1172.062.0313.109.0703.141.1172.062.0313.117.0703.164.1172s.086.0938.117.1406c.078.1719.14.2735.187.3047.047.0469.078.0859.094.1172.047.1719.102.2891.164.3516-.031.0625-.031.125 0 .1875.031.0781.055.1562.07.2343-.031.2188-.046.3516-.046.3985 0 .0625-.032.1172-.094.164-.063.1875-.11.2891-.141.3047-.031.0157-.047.0547-.047.1172-.109.1406-.179.2188-.211.2344-.031.0312-.046.0625-.046.0937-.063.0313-.118.0625-.165.0938-.046.0469-.085.1094-.117.1875-.187.0469-.304.0859-.351.1172-.032.0469-.078.0859-.141.1172-.047.0156-.094.0234-.141.0234-.031 0-.07.0078-.117.0234-.125.0938-.242.1485-.351.1641-.094.0312-.18.0703-.258.1172-.172 0-.297.0078-.375.0234-.125.0313-.203.0469-.234.0469-.016.0156-.032.0234-.047.0234-.157-.0156-.258-.0156-.305 0-.031.0157-.063.0235-.094.0235-.047 0-.094-.0078-.14-.0235-.032-.0156-.071-.0234-.118-.0234h-.351c-.25-.0469-.422-.0625-.516-.0469s-.187.0078-.281-.0234c-.297-.0313-.469-.0625-.516-.0938-.078.0313-.156.0313-.234 0-.063-.0156-.125-.0312-.188-.0468-.156-.0469-.257-.0938-.304-.1407-.047-.0468-.102-.0703-.164-.0703-.094-.1094-.149-.1797-.164-.2109-.11-.1406-.141-.2188-.094-.2344s.078-.0391.094-.0703c.015-.0312.031-.0703.046-.1172.016-.0312.04-.0703.071-.1172.031-.0312.07-.0625.117-.0937.047-.0157.102-.0235.164-.0235.063-.0312.125-.039.188-.0234.062.0312.132.0547.21.0703.11.0313.25.0313.422 0 .25-.0312.414-.0391.493-.0234.078.0312.171.039.281.0234.172.0156.258.0078.258-.0234.015-.0157.031-.0078.046.0234.063-.0625.141-.0937.235-.0937.109.0156.203-.0078.281-.0704.125.0313.227.0235.305-.0234s.164-.0859.258-.1172c.031-.0468.054-.0937.07-.1406.031-.0312.062-.0625.094-.0938l.164-.2343c0-.2031 0-.3281 0-.375.015-.0469.015-.1094 0-.1875-.047-.125-.086-.1953-.117-.211-.032 0-.071-.0078-.118-.0234-.093-.0469-.164-.0703-.211-.0703-.031 0-.062-.0078-.093-.0235-.172 0-.289-.0078-.352-.0234-.047 0-.101 0-.164 0-.187-.0156-.281-.0234-.281-.0234 0 .0156-.008.0234-.024.0234-.156-.0156-.257-.0312-.304-.0469-.032 0-.094 0-.188 0-.14 0-.234-.0078-.281-.0234-.031-.0156-.063-.0234-.094-.0234-.203-.0157-.359-.0469-.469-.0938-.093-.0312-.171-.0781-.234-.1406-.031-.0469-.039-.1016-.023-.1641.031-.0625.031-.1094 0-.1406.015-.0781.023-.1406.023-.1875s.008-.1016.023-.1641c.016-.0781.032-.1484.047-.2109.016-.0625.032-.1328.047-.2109.063-.0938.078-.1641.047-.211-.015-.0312-.015-.0703 0-.1172.063-.1406.102-.2578.117-.3515.032-.0781.063-.1641.094-.2578.047-.125.063-.1953.047-.211 0 0 .008-.0156.023-.0469l.141-.2343c-.156-.0938-.258-.1407-.305-.1407-.047-.0156-.101-.039-.164-.0703-.234-.1093-.383-.1875-.445-.2343-.047-.0625-.109-.1172-.188-.1641-.046-.0156-.085-.0313-.117-.0469-.031-.0312-.07-.0547-.117-.0703l-.211-.1875c-.078-.0937-.133-.1484-.164-.164-.016-.0157-.039-.0391-.07-.0704-.094-.0625-.18-.1172-.258-.164-.063-.0625-.133-.1094-.211-.1406-.031-.1563-.102-.2735-.211-.3516-.125-.1094-.187-.1953-.187-.2578-.141-.125-.211-.1953-.211-.211-.047-.1093-.102-.1796-.164-.2109-.047-.0469-.086-.1094-.118-.1875-.031-.0469-.054-.0938-.07-.1406 0-.0625-.016-.125-.047-.1875-.125-.1563-.187-.2344-.187-.2344-.094-.1406-.141-.2109-.141-.2109 0-.0157-.008-.0313-.023-.0469-.047-.0938-.078-.1563-.094-.1875 0-.0469-.008-.086-.024-.1172-.078-.1406-.125-.2188-.14-.2344 0-.0312-.008-.0625-.024-.0937-.062-.2657-.101-.4297-.117-.4922-.015-.0625-.031-.1172-.047-.1641 0-.0625-.023-.125-.07-.1875l-.023-.3047c-.047-.1406-.079-.2265-.094-.2578-.016-.0468-.031-.0859-.047-.1172.047-.1093.047-.1953 0-.2578-.047-.0781-.063-.1718-.047-.2812 0-.1719-.008-.2578-.023-.2578 0-.0157 0-.0391 0-.0704l-.024-.2812c0-.0469 0-.0938 0-.1406.016-.0469.024-.0938.024-.1406.015-.0938.023-.1797.023-.2579 0-.0937.008-.1875.023-.2812 0-.0469 0-.0938 0-.1406.016-.0469.024-.086.024-.1172.016-.0313.031-.0703.047-.1172.031-.0469.047-.0938.047-.1406-.032-.2344-.032-.3829 0-.4453.031-.0626.062-.125.093-.1876.032-.0781.055-.164.071-.2578.015-.1093.039-.2265.07-.3515.031-.0781.055-.1485.07-.211.032-.0781.063-.1484.094-.2109.031-.0938.063-.1797.094-.2578.031-.0625.062-.125.094-.1875.031-.0625.062-.125.093-.1875.063-.1563.118-.2578.164-.3047.11-.1719.157-.2656.141-.2813 0-.0156.008-.0312.024-.0468.031-.0313.062-.0625.093-.0938.031-.0312.063-.0625.094-.0937.125-.1719.203-.2813.234-.3281.032-.0469.063-.086.094-.1172.063-.1094.102-.1641.117-.1641.016-.0156.032-.0313.047-.0469l.211-.2109c.078-.0938.133-.1641.164-.2109.047-.0157.086-.0391.117-.0704.032-.0312.063-.0625.094-.0937l.258-.2344c.094-.0937.156-.1562.187-.1875.11-.1094.196-.1797.258-.2109.094-.0781.188-.1328.282-.1641.156-.1094.234-.1562.234-.1406s.008.0156.023 0c.125-.0938.258-.1719.399-.2344.14-.0625.281-.1328.422-.2109.093-.0469.164-.0703.211-.0703.046 0 .085-.0078.117-.0235.187-.0625.304-.0937.351-.0937.047-.0156.094-.0313.141-.0469.172-.0469.273-.0703.305-.0703.031-.0156.078-.0391.14-.0703l.281-.0469c.157-.0156.25-.0391.282-.0703.187-.0469.336-.0703.445-.0703.141-.0156.219-.0156.234 0 .016.0156.039.0234.071.0234.14-.0156.226-.0234.258-.0234.031-.0156.062-.0235.093-.0235l.352.0469c.219.0313.375.0469.469.0469.109-.0156.203-.0156.281 0 .219.0625.359.0859.422.0703.062-.0156.117-.0156.164 0 .062.0312.109.0625.14.0938.047.0312.102.0624.165.0937.031.0156.07.0313.117.0469.047 0 .093.0156.14.0468.188.0938.289.1563.305.1876.031.0156.062.039.094.0703.156 0 .258.0468.304.1406l.141.4687c-.016.125-.047.2578-.094.3985-.047.1406-.093.2734-.14.3984-.032.0781-.071.1563-.117.2344-.032.0625-.063.1406-.094.2344-.047.125-.086.2109-.117.2578-.032.0469-.055.1015-.071.164-.015.0469-.023.1016-.023.1641s-.016.1172-.047.1641c-.109.1875-.195.3281-.258.4218-.047.0938-.078.1953-.094.3047-.062.0469-.109.1172-.14.211-.016.0781-.047.1562-.094.2343-.031.0313-.062.0703-.094.1172-.015.0313-.023.0781-.023.1407-.047.0156-.086.039-.117.0703-.016.0156-.055.0312-.118.0468-.171-.0468-.257-.0781-.257-.0937-.047.0312-.11.0312-.188 0-.062-.0313-.117-.0469-.164-.0469-.125-.0156-.234-.0234-.328-.0234-.078 0-.156 0-.234 0l-.422.0703c-.172.0625-.344.1172-.516.164-.172.0313-.305.0782-.398.1407-.157.1093-.25.1719-.282.1875-.015 0-.039.0156-.07.0468-.078.0469-.133.1016-.164.1641s-.086.1094-.164.1406c-.078.1719-.117.2579-.117.2579-.047.1406-.078.2421-.094.3046s-.047.1094-.094.1407c-.031.0937-.054.1875-.07.2812 0 .0938-.016.1875-.047.2813-.016.0781-.031.164-.047.2578v.3047c-.015.1875 0 .3671.047.539.031.0625.047.1172.047.1641 0 .0312.008.0703.023.1172.047.1406.086.2656.118.375.031.0937.062.1953.093.3047.125.1406.188.2187.188.2343 0 .0157.008.0313.023.0469.031.0313.063.0703.094.1172.047.0469.086.1016.117.1641.11.1093.18.1796.211.2109s.063.0625.094.0937c.047.0157.086.0391.117.0704.078.0312.148.0625.211.0937.078.0313.164.0625.258.0938.078.0312.14.0468.187.0468.047-.0156.094-.0234.141-.0234.047.0156.094.0391.141.0703.046.0156.109.0234.187.0234.141-.0312.234-.0468.281-.0468.047-.0156.086-.0313.118-.0469.078-.0156.164-.0313.257-.0469.094-.0156.18-.0312.258-.0468l.258-.0704c.109 0 .18-.0078.211-.0234s.062-.0312.094-.0469c.172-.0156.281-.039.328-.0703.062-.0312.117-.0625.164-.0937.062.0937.101.1484.117.164.031 0 .063.0078.094.0235.093.25.133.4296.117.539 0 .1094.008.2266.023.3516 0 .2187.008.3516.024.3984.031.0469.031.0938 0 .1406.031.0313.047.086.047.1641 0 .0625.008.1328.023.2109.078.2188.109.3594.094.4219 0 .0625.008.1328.023.211.016.1562.016.25 0 .2812v.0938c.016.1718.024.289.024.3515.015.0625.008.1172-.024.1641.032.1406.032.2734 0 .3984.047.0938.055.1953.024.3047-.032.0938-.063.1875-.094.2813-.125.1093-.188.1797-.188.2109 0 .0156-.015.0312-.046.0469-.157.0625-.235.1015-.235.1172-.093.0312-.164.0547-.211.0703-.047.0312-.101.0625-.164.0937-.203.0469-.328.0781-.375.0938-.062.0156-.133.0156-.211 0-.078 0-.164.0078-.258.0234-.171.0469-.265.0625-.281.0469-.015-.0156-.039-.0078-.07.0234-.172.0156-.258.0235-.258.0235-.156.0312-.258.039-.305.0234-.031-.0156-.062-.0234-.093-.0234-.094-.0313-.18-.0391-.258-.0235-.063.0156-.133.0235-.211.0235zm12.75-.4453c-.078-.1875-.132-.2969-.164-.3281-.015-.0469-.031-.1094-.047-.1875l.024-.3047c0-.0625-.008-.1172-.024-.1641-.015-.0625-.023-.1171-.023-.164-.031-.1719-.062-.2891-.094-.3516.016-.0937.024-.1562.024-.1875 0-.0469-.008-.0859-.024-.1172l-.14-.2344c-.125.1563-.18.2344-.164.2344-.125.0782-.196.1328-.211.1641-.094.0937-.149.1406-.164.1406-.016 0-.039.0156-.071.0469-.109.1562-.195.2656-.258.3281-.125.1406-.187.2109-.187.2109-.078.0938-.149.1563-.211.1876-.094.0937-.148.1562-.164.1874-.016.0157-.047.0391-.094.0704-.109.125-.195.2031-.258.2343-.14.1563-.226.2344-.257.2344-.032.0313-.071.0547-.118.0703-.047.0313-.086.0625-.117.0938-.047.0156-.133.0234-.258.0234-.156 0-.265 0-.328 0-.187-.0625-.297-.1094-.328-.1406-.14-.0313-.234-.0547-.281-.0703-.047-.0157-.094-.0235-.141-.0235-.14-.1093-.211-.164-.211-.164-.125-.0313-.195-.0469-.211-.0469-.015-.0156-.031-.0234-.046-.0234-.157-.0625-.258-.1016-.305-.1172-.031-.0313-.086-.0469-.164-.0469-.094-.0625-.149-.1016-.164-.1172 0-.0312-.008-.0547-.024-.0703-.093-.0625-.172-.1016-.234-.1172-.031-.0781-.078-.125-.141-.1406-.062-.0313-.125-.0703-.187-.1172-.11-.1094-.172-.1641-.188-.1641 0-.0156-.015-.039-.047-.0703l-.211-.2109-.187-.211c-.125-.1718-.219-.3046-.281-.3984-.157-.1875-.235-.2969-.235-.3281-.203-.1875-.312-.2891-.328-.3047-.078-.0781-.133-.1562-.164-.2344-.078-.1094-.133-.1953-.164-.2578-.062-.0469-.102-.1172-.117-.2109 0-.0938 0-.1875 0-.2813-.031-.125-.07-.2422-.117-.3515-.047-.1094-.063-.1875-.047-.2344.015-.0469.015-.1094 0-.1875.047-.0781.078-.1484.094-.211.031-.0624.085-.1093.164-.1406.062-.1562.101-.2344.117-.2344.078-.1093.133-.1874.164-.2343.062-.1094.101-.1719.117-.1875.031-.0313.063-.0625.094-.0938.031-.0625.094-.1406.187-.2344.063-.0468.118-.1015.164-.164.063-.0625.125-.125.188-.1875.125-.1406.242-.2656.351-.375.125-.1406.188-.2109.188-.2109.016 0 .031-.0079.047-.0235.156-.125.242-.2031.258-.2344.031-.0312.062-.0625.093-.0937.141-.0938.219-.1406.235-.1406.015 0 .039-.0078.07-.0235.156-.0937.242-.1484.258-.164.125-.0782.195-.1329.211-.1641.031-.0312.062-.0547.094-.0703.156-.0938.265-.1563.328-.1875.14-.1094.211-.1641.211-.1641.015 0 .031-.0078.046-.0234.172-.0625.274-.125.305-.1875.156-.0625.281-.1172.375-.1641.094-.0625.196-.1093.305-.1406.172-.0781.281-.1406.328-.1875.156-.125.234-.2031.234-.2344-.062-.0468-.132-.0625-.211-.0468-.062 0-.14 0-.234 0-.141 0-.242 0-.305 0-.062 0-.125 0-.187 0-.047 0-.102.0078-.164.0234-.047 0-.102-.0078-.164-.0234-.203-.0313-.336-.0391-.399-.0235-.047 0-.093 0-.14 0l-.399.0235c-.094-.0313-.187-.0469-.281-.0469-.047.0156-.102.0234-.164.0234-.063-.0156-.117-.0234-.164-.0234-.094 0-.195.0156-.305.0469-.109.0156-.226.0234-.351.0234-.047.0156-.102.0234-.164.0234-.047-.0156-.102-.0234-.165-.0234-.234 0-.421 0-.562 0-.125-.0156-.25-.0156-.375 0-.187-.0156-.289-.0313-.305-.0469-.015-.0312-.039-.0625-.07-.0937-.078-.1719-.117-.2657-.117-.2813.015-.0312.023-.0625.023-.0937.032-.1563.047-.25.047-.2813.016-.0312.024-.0625.024-.0937.031-.1563.054-.2344.07-.2344.015-.0156.031-.0391.047-.0703.031-.1875.062-.3203.094-.3985.031-.0937.062-.1796.093-.2578.016-.0468.024-.0859.024-.1172 0-.0468.015-.0937.047-.1406.062-.1562.093-.3359.093-.539.032-.2032.071-.3594.117-.4688.047-.125.079-.2344.094-.3281.047-.1563.071-.2657.071-.3281l.093-.2813c.141-.1563.227-.2734.258-.3516.047-.0312.086-.0547.117-.0703.047-.0312.094-.0625.141-.0937.125-.0469.234-.0781.328-.0938.094 0 .148-.0078.164-.0234.031-.0156.063-.0313.094-.0469.172.0156.281.0156.328 0 .062-.0156.133 0 .211.0469.109-.0313.18-.0391.211-.0235h.14c.094.0157.196.0235.305.0235h.352.258c.187-.0313.289-.0391.304-.0235h.094c.031.0157.094.0235.187.0235.094-.0156.149-.0235.165-.0235h.304c.141 0 .274-.0078.399-.0234.109-.0156.179-.0156.211 0 .031.0156.062.0234.093.0234h.305c.172-.0156.266-.0156.281 0h.071l.257-.0234c.11 0 .18.0078.211.0234.047.0157.086.0235.118.0235.109-.0156.171-.0156.187 0 .031.0156.063.0234.094.0234.328 0 .554.0313.68.0938.25.0781.406.125.468.1406.125.0937.188.1406.188.1406.015-.0156.031-.0156.047 0 .093.0938.164.1485.211.1641.046 0 .086.0156.117.0469.093.0937.164.164.211.2109.14.1094.226.1719.258.1875.109.125.195.2187.257.2813.078.0624.133.1093.164.1406.032.0156.063.039.094.0703.156.0937.242.1641.258.2109.016.0469.055.0782.117.0938.047.125.07.2109.07.2578.016.0469.055.0781.118.0937.015.0469.031.0938.046.1407.016.0468.04.1015.071.164.047.0782.062.1406.047.1875 0 .0313.008.0625.023.0938.016.0781.031.1406.047.1875.031.0312.055.0625.07.0937.063.2344.11.3985.141.4922.031.0781.062.1563.094.2344.031.0625.047.125.047.1875.015.0469.039.1094.07.1875.094.25.156.4453.187.5859.047.125.086.2656.118.4219.031.0937.054.1953.07.3047.031.1094.055.2031.07.2812.016.1719.039.3047.071.3985l.07.4219c.031.125.054.2421.07.3515.031.1094.047.2266.047.3516.063.2187.117.3672.164.4453.016.1406.031.2266.047.2578.031.0781.047.1406.047.1875 0 .0313.008.0625.023.0937.063.2032.086.3282.071.375 0 .0469.007.0938.023.1407.031.1093.039.1797.023.2109v.0469c.016.0625.032.1172.047.1641.032.0312.047.0781.047.1406-.015.1094-.015.1875 0 .2344.031.0468.055.0937.071.1406 0 .0937.007.1562.023.1875.016.0156.031.0469.047.0937l.023.3985c.031.0781.047.1718.047.2812 0 .0938.008.1875.024.2813.031.1718.054.3125.07.4218.016.1094.039.211.07.3047.016.0625.024.1172.024.1641 0 .0312.015.0625.046.0937.063.1407.094.2344.094.2813v.1172c0 .0937-.008.1875-.023.2812-.016.0938-.039.1797-.071.2578-.046.1719-.07.2813-.07.3282-.14.1093-.219.1718-.234.1875-.016 0-.055.0078-.117.0234-.063.0156-.172.0391-.329.0703-.203.0313-.32.0547-.351.0703-.031 0-.063.0078-.094.0235-.156 0-.234 0-.234 0 0-.0157-.008-.0235-.024-.0235-.125.0157-.195.0235-.211.0235-.015-.0157-.039-.0235-.07-.0235-.219 0-.351.0078-.398.0235-.11 0-.203.0078-.282.0234-.078 0-.156 0-.234 0-.156.0156-.266.0391-.328.0703-.156.0313-.25.0469-.281.0469-.188.0312-.328.039-.422.0234-.094 0-.195.0078-.305.0235-.172.0156-.266.0234-.281.0234-.078.0156-.172.0078-.281-.0234-.094-.0313-.188-.0625-.282-.0938zm-.398-3.3281c-.016-.2188-.031-.375-.047-.4688-.016-.1093-.031-.1875-.047-.2343-.031-.1407-.047-.2344-.047-.2813.016-.0469.016-.0859 0-.1172-.047-.2656-.07-.4453-.07-.539 0-.0938-.016-.1875-.047-.2813-.031-.125-.055-.2031-.07-.2344-.016-.0468-.031-.0859-.047-.1171-.109-.0938-.18-.1329-.211-.1172-.031.0156-.055.039-.07.0703-.141.0937-.219.1484-.235.164-.14.0782-.226.1329-.257.1641-.079.0625-.126.1016-.141.1172-.016.0156-.039.039-.07.0703-.157.125-.235.1875-.235.1875 0-.0156-.008-.0156-.023 0-.157.1094-.25.1875-.281.2344-.032.0312-.071.0625-.118.0937-.031.0781-.07.1407-.117.1875-.031.0469-.062.0938-.094.1406.032.0626.047.1172.047.1641 0 .0313-.015.0859-.047.1641.11.125.188.1875.235.1875.078.0469.133.0703.164.0703s.062.0078.094.0234c.093.0625.148.1094.164.1406.015.0157.031.0235.046.0235.141.0625.227.0937.258.0937.047 0 .102.0078.164.0235.11.0312.188.0547.235.0703.062 0 .109.0078.14.0234.172.0938.313.1563.422.1875.125.0157.227.0078.305-.0234zm10.922-15.1172c.078.0156.133.0469.164.0938.047.0468.094.0937.14.1406.079.2812.118.4531.118.5156v.4219c.015.0469.023.1172.023.2109 0 .0781-.008.1328-.023.1641v.1172c-.016.0468-.024.0937-.024.1406.016.0469.024.1015.024.1641.015.1406.015.2734 0 .3984-.047.1562-.078.2422-.094.2578l-.164.2344c-.063.0625-.102.1094-.117.1406-.016.0312-.039.0547-.071.0703-.203.0781-.351.1328-.445.1641-.078.0156-.156.0312-.234.0468-.047 0-.133.0157-.258.0469-.031 0-.078.0078-.141.0235-.047 0-.086 0-.117 0-.187.0156-.281.0234-.281.0234-.125-.0156-.196-.0234-.211-.0234-.016-.0157-.031-.0235-.047-.0235-.172.0313-.289.0469-.352.0469-.062-.0156-.132-.0312-.21-.0469-.188 0-.305 0-.352 0-.031-.0156-.078-.0156-.141 0-.218-.0156-.351-.0156-.398 0h-.469c-.14-.1406-.219-.2109-.234-.2109 0 0-.008-.0156-.024-.0469l-.211-.2109c0-.1719-.023-.3516-.07-.5391l-.047-.4687v-.3047c0-.2188.016-.375.047-.4688 0-.1875.016-.2969.047-.3281.031-.0469.047-.0938.047-.1406.094-.1406.148-.2266.164-.2578.015-.0313.039-.0625.07-.0938l.422-.1875c.188-.0625.305-.1015.352-.1172.047-.0156.086-.0312.117-.0469h.351l.329-.0703c.062-.0156.124-.0312.187-.0468.078-.0157.148-.0235.211-.0235.047 0 .094.0078.141.0235h.14.141c.047-.0157.101-.0235.164-.0235.125 0 .234.0078.328.0235.109.0156.219.0078.328-.0235.047-.0156.133-.0078.258.0235.125.0156.226.039.305.0703zm.351 17.9062c.016.0782 0 .1407-.047.1876-.046.0312-.062.0703-.046.1171-.219.0469-.328.0703-.328.0703-.126.0626-.266.1094-.422.1407-.125.0312-.258.039-.399.0234-.125 0-.273-.0078-.445-.0234-.172.0156-.297.0234-.375.0234-.063 0-.125 0-.188 0h-.351c-.156.0156-.242.0235-.258.0235-.141 0-.258.0078-.352.0234-.078.0312-.132.0469-.164.0469h-.328l-.328-.0703c-.062 0-.125 0-.187 0-.063.0156-.133.0156-.211 0-.078-.0313-.141-.0626-.188-.0938-.047-.0156-.101-.0234-.164-.0234-.078-.1719-.117-.2657-.117-.2813 0-.0312-.008-.0547-.023-.0703-.047-.0781-.071-.1484-.071-.2109.016-.0782.024-.1485.024-.211 0-.0469-.008-.0937-.024-.1406 0-.0469 0-.0859 0-.1172 0-.0469.008-.0937.024-.1406.015-.0469.023-.1016.023-.1641.016-.0625.024-.1328.024-.2109.015-.0781.031-.1563.046-.2344.016-.125.024-.2187.024-.2812 0-.0782 0-.1329 0-.1641.015-.0469.023-.0938.023-.1406 0-.0625.008-.125.024-.1875.015-.0938.015-.1641 0-.211-.016-.0625-.024-.1171-.024-.164 0-.0313 0-.0781 0-.1407.016-.0624.024-.1328.024-.2109 0-.1094-.008-.2109-.024-.3047 0-.0937 0-.1875 0-.2812 0-.0782.016-.1953.047-.3516v-.3047c.016-.1406.024-.3125.024-.5156s-.008-.3906-.024-.5625v-.2578c.016-.1875.024-.3281.024-.4219.015-.1094.015-.2187 0-.3281 0-.0469-.008-.086-.024-.1172 0-.0469 0-.0938 0-.1406-.016-.0782-.023-.1485-.023-.211s0-.1328 0-.2109c0-.0937-.008-.1484-.024-.1641 0-.0312 0-.0625 0-.0937v-.4219c-.015-.1719-.015-.2656 0-.2812.016-.0313.024-.0625.024-.0938 0-.1875 0-.3047 0-.3516.015-.0624.023-.125.023-.1874 0-.1563 0-.2422 0-.2579 0-.2656-.008-.4297-.023-.4921-.047-.1563-.071-.25-.071-.2813v-.3516c0-.1406-.007-.2265-.023-.2578 0-.0469.008-.1015.023-.164 0-.1094-.007-.2188-.023-.3282 0-.1093 0-.2265 0-.3515-.016-.1094-.016-.1875 0-.2344s.023-.0938.023-.1406v-.6563c-.031-.1875-.031-.3906 0-.6093.032-.1563.063-.25.094-.2813.047-.1563.078-.2422.094-.2578.14-.1875.281-.3125.422-.375.078-.0313.14-.0625.187-.0938.063-.0468.11-.0703.141-.0703.14-.0312.234-.0468.281-.0468.172-.0157.344-.0157.516 0 .172.0156.343.0078.515-.0235.141-.0156.235-.0078.282.0235.046.0156.101.0078.164-.0235.203-.0156.328-.0156.375 0h.14c.125-.0312.211-.0391.258-.0234h.422c.047 0 .102.0078.164.0234.063 0 .109.0156.141.0469.031-.0313.117-.0469.258-.0469.046.0313.078.0625.093.0938.031.0312.078.0468.141.0468.062.1407.117.2344.164.2813.047.1406.102.289.164.4453.031.0781.047.1719.047.2813 0 .1093.008.2265.023.3515v.1875c.016.0625.024.1172.024.1641 0 .0781-.008.1562-.024.2343 0 .0782-.008.1563-.023.2344-.016.2344-.024.4297-.024.586 0 .1406-.007.2812-.023.4218-.016.0782-.031.1563-.047.2344v.2344c0 .0625.008.125.024.1875.015.0469.023.1015.023.1641 0 .125-.008.2578-.023.3984-.016.125-.032.2578-.047.3984-.016.125-.032.25-.047.375-.016.1094-.024.2344-.024.375v.1172c.016.0469.024.0938.024.1406 0 .0782-.008.1485-.024.211v.1875.2343c.016.0782.016.1563 0 .2344 0 .0782-.007.1563-.023.2344-.016.0625-.024.1328-.024.2109-.015.125-.015.25 0 .375.016.125.024.25.024.375 0 .0782-.008.1563-.024.2344-.015.0781-.015.1563 0 .2344.047.2656.063.4453.047.5391-.015.0937-.015.1953 0 .3046.016.1719.016.2891 0 .3516v.1172.6094c0 .1093-.007.1953-.023.2578.062.1094.078.2422.047.3984-.031.1406-.016.2578.047.3516-.032.1094-.047.2265-.047.3515.015.125.039.2344.07.3282l.024.6328c.015.0937.023.1953.023.3047.016.0937.023.1796.023.2578l-.023.2578zm9.446-10.3828c-.141.0782-.219.125-.235.1407v.0234c-.25.0937-.429.1484-.539.1641-.109.0156-.211.0468-.304.0937-.204.1094-.336.1953-.399.2578-.14.125-.258.2188-.351.2813-.141.25-.258.4218-.352.5156s-.141.2109-.141.3516c.047.0781.071.1406.071.1875 0 .0312.007.0625.023.0937 0 .0313.008.0703.024.1172.015.0469.015.1094 0 .1875.031.0313.054.0703.07.1172.031.0312.062.0625.094.0937.046.0625.086.1407.117.2344.031.0938.062.1797.094.2578.078.0313.14.086.187.1641s.102.1406.164.1875c.078.1406.133.2266.164.2578.094.1406.149.2109.164.2109.141.1407.227.2657.258.375.031.0469.063.086.094.1172.047.0313.086.0625.117.0938l.187.2812.258.3281c.032.0782.055.1329.071.1641.015.0156.031.0391.047.0703.046.1406.078.2188.093.2344.031.0156.047.0391.047.0703l.07.3047c.079.1875.11.3125.094.375 0 .0469.008.0938.024.1406.046.125.078.211.093.2578l.047.2578c-.094.25-.172.5-.234.75-.094.1719-.164.2735-.211.3047-.031.0157-.047.0547-.047.1172-.125.0938-.195.1563-.211.1875 0 .0313-.015.0391-.047.0235-.094.1406-.14.2187-.14.2343 0 .0157-.016.0391-.047.0704-.031.0468-.078.0859-.141.1171-.047.0313-.086.0782-.117.1407-.156.0468-.273.1484-.352.3046-.109.0938-.187.1563-.234.1876-.047.0156-.086.0546-.117.1171-.141.0313-.25.1016-.328.211-.063.0937-.157.164-.282.2109-.046.0469-.093.0938-.14.1406-.047.0313-.094.0704-.141.1172-.094.0469-.148.086-.164.1172 0 .0313-.008.0547-.023.0703-.094.0313-.157.0547-.188.0703-.015 0-.039.0157-.07.0469-.172.0938-.266.1719-.281.2344-.11.0156-.196.0469-.258.0937-.063.0625-.133.1094-.211.1407-.125.1093-.219.1797-.281.2109-.047.0312-.086.0469-.118.0469-.171.0312-.273.0625-.304.0937-.031.0313-.063.0625-.094.0938-.094.0312-.156.0547-.187.0703-.032.0156-.063.0312-.094.0469-.094.0312-.164.0546-.211.0703-.031.0312-.063.0469-.094.0469-.109 0-.187-.0157-.234-.0469-.032-.0313-.086-.0547-.164-.0703-.032-.0625-.071-.125-.118-.1875-.031-.0625-.078-.1094-.14-.1407-.047-.0781-.086-.1562-.117-.2343-.063-.0782-.11-.1329-.141-.1641-.016-.0312-.039-.0469-.07-.0469-.078-.1562-.133-.2656-.164-.3281-.094-.2031-.18-.3438-.258-.4219-.078-.1406-.117-.2187-.117-.2343 0-.0157-.008-.0313-.024-.0469-.031-.0469-.062-.086-.094-.1172-.015-.0313-.031-.0703-.046-.1172-.094-.0781-.164-.1719-.211-.2813-.047-.125-.11-.2265-.188-.3046l-.164-.2578c-.094-.1407-.148-.2188-.164-.2344s-.016-.0391 0-.0703c-.078-.1407-.125-.2344-.141-.2813-.078-.1562-.117-.2578-.117-.3047-.031-.125-.039-.1953-.023-.2109.015-.0156.031-.0391.047-.0703.031-.1094.047-.1719.047-.1875 0-.0313.007-.0625.023-.0938.062-.0781.133-.1328.211-.164.187-.0782.312-.125.375-.1407.062-.0156.117-.039.164-.0703.172-.0468.273-.0859.305-.1172.046-.0312.109-.0546.187-.0703.172-.0937.274-.1484.305-.164.031-.0313.07-.0547.117-.0703.031-.0313.063-.0469.094-.0469.047-.0157.093-.0391.14-.0703.047-.0313.086-.0625.118-.0938.031-.0469.062-.0937.093-.1406.094-.0938.141-.1563.141-.1875.016-.0313.039-.0391.07-.0235.078-.2187.133-.3593.164-.4218.047-.0625.063-.1485.047-.2578 0-.0625-.015-.1563-.047-.2813-.031-.0625-.07-.1172-.117-.1641-.047-.0468-.062-.1093-.047-.1874-.125-.1719-.203-.2735-.234-.3047-.031-.0469-.078-.086-.141-.1172-.125-.125-.203-.2266-.234-.3047-.094-.1094-.156-.1719-.188-.1875-.031-.0156-.054-.0391-.07-.0703-.031-.0469-.062-.086-.094-.1172-.031-.0313-.062-.0625-.093-.0938-.079-.1562-.125-.2343-.141-.2343 0 0 0-.0079 0-.0235-.141-.1094-.219-.1797-.234-.2109 0-.0313-.008-.0625-.024-.0938-.109-.1406-.18-.2265-.211-.2578-.031-.0312-.062-.0703-.094-.1172-.078-.0781-.148-.164-.211-.2578-.046-.0937-.109-.1797-.187-.2578-.016-.2187-.102-.3906-.258-.5156-.094-.1563-.14-.2422-.14-.2578.015-.0157.015-.0391 0-.0703-.047-.1563-.071-.2735-.071-.3516.016-.0938.024-.1953.024-.3047-.016-.1719-.008-.2891.023-.3515.016-.0782.031-.1641.047-.2579.016-.0937.039-.1875.07-.2812.078-.2188.149-.3594.211-.4219.078-.125.125-.2031.141-.2344.031-.0312.062-.0703.094-.1172.062-.0624.101-.1015.117-.1171.031-.0313.062-.0625.094-.0938.125-.1562.211-.2578.257-.3047.078-.0468.133-.0937.164-.1406.032-.0625.079-.0938.141-.0938l.281-.3281c.094-.0781.149-.1172.164-.1172.016-.0156.032-.039.047-.0703.078-.1094.164-.1953.258-.2578.125-.0781.195-.125.211-.1406s.039-.0313.07-.0469c.141-.0937.219-.1406.235-.1406.109-.0938.179-.1485.211-.1641.031-.0312.062-.0547.093-.0703.172-.0625.274-.0937.305-.0937.141-.0938.274-.1641.398-.211.079-.0937.133-.1406.165-.1406.046 0 .085-.0156.117-.0469.125-.0469.195-.0703.211-.0703.031-.0156.054-.0234.07-.0234.141-.0469.242-.1016.305-.1641.203-.0625.328-.1094.375-.1406.062-.0313.125-.0547.187-.0703.188.0156.289.0156.305 0 .015-.0156.039-.0235.07-.0235.094.0157.18.0313.258.0469s.133.0391.164.0703c.047.0157.109.0469.188.0938.062.0312.109.0703.14.1172.031.0312.071.0625.117.0937.063.1563.102.2656.118.3281.031.0625.062.1172.093.1641.078.125.117.2109.117.2578l.165.3516.234.3984c.062.1719.117.2891.164.3516s.086.1328.117.2109c.078.1875.117.2891.117.3047s.008.0391.024.0703c.047.0938.07.1563.07.1875 0 .0313.008.0625.024.0938.093.2031.148.3281.164.375.015.0468.039.1093.07.1875.031.1093.047.1718.047.1875 0 .0156.008.039.023.0703.016.0937.024.1719.024.2343.015.0469.015.086 0 .1172z" fill="#693821"/></svg>