<svg fill="none" height="38" viewBox="0 0 31 38" width="31" xmlns="http://www.w3.org/2000/svg" xmlns:xlink="http://www.w3.org/1999/xlink"><linearGradient id="a"><stop offset="0" stop-color="#cf5c2b"/><stop offset="1" stop-color="#59173e"/></linearGradient><linearGradient id="b" gradientUnits="userSpaceOnUse" x1="29.859" x2="18.7572" xlink:href="#a" y1="-18.0917" y2="3.09738"/><linearGradient id="c" gradientUnits="userSpaceOnUse" x1="26.2013" x2="-13.2221" xlink:href="#a" y1="-10.1006" y2="68.0412"/><linearGradient id="d" gradientUnits="userSpaceOnUse" x1="22.8274" x2="-16.5959" xlink:href="#a" y1=".09667" y2="78.2382"/><linearGradient id="e" gradientUnits="userSpaceOnUse" x1="16.9962" x2="15.7292" xlink:href="#a" y1="51.6816" y2="17.1836"/><path d="m30.6495 5.30085c-.1747-2.76448-2.1186-4.926875-4.492-5.037115-6.6835-.3137604-13.3378-.3137604-19.9703-.00848-.48051.02544-.95374.1272-1.40513.32224-.2257.09328-.44411.212-.64796.3392-1.03383.661435-1.73275 1.806235-2.27151 2.984955-.57515 1.23808-1.157588 2.61184-1.230393 4.03649-.058244 1.15328-.109207 2.31506-.145609 3.46836-.007281.1272-.007281.2459.00728.3646.007281.0678.014561.1357.007281.2035-.021842.3731-.007281.7039.16017 1.0346.101926.195.232975.3646.400421.4749-.01456-.0085-.152886.1441-.174727.1611-.058244.0593-.109207.1272-.15289.195-.094645.1442-.174731.2968-.225694.4664-.058243.1696-.094646.3477-.101926.5258-.050963.7208-.036402 1.4416-.029122 2.1624.007281.6275-.043683 1.2889.043683 1.908.021841.1526 0 .3137.029122.4664.058243.3477.196572.6699.334901.9837-.232975.2883-.334901.6868-.349462 1.0854-.014561.4579.058243.9074.029122 1.3653-.072805 1.2381-.007281 2.5101.058243 3.7397.007281.1441.029122.2883.050963.424.065525.3476.072805.7123.240255 1.0176.072805.1356.167451.2544.283942.3476-.109211-.0169-.196576.1188-.247539.229-.327621.7293-.327621 1.2974-.196573 2.0776.131049.8141.094646 1.5858.349462 2.3829.21113.6614.53147 1.272.9319 1.7893.82997 1.0769 2.00941 1.7384 3.24708 1.8232 7.04021.4748 13.81831.5172 20.28331.0508.0292 0 .0583-.0084.0874-.0084.7863-.0764 1.5507-.3732 2.2133-.8735.6479-.4833 1.1867-1.1533 1.5653-1.9334.4368-.8989.6479-1.9589.8663-2.9511.1384-.6105.3495-1.3907.2913-2.0436-.0364-.3732.0582-.7378.0436-1.1109-.0145-.424-.1092-.8395-.2766-1.2127-.0219-.0424-.0437-.0932-.0437-.1441-.0073-.1187.1019-.2035.182-.2799.1893-.1696.3131-.4324.3568-.7038.0072-.0678.0145-.1357.0072-.2035-.0218-.1187-.0145-.212-.0072-.3392.0364-.8565.0655-1.713.0946-2.5695.0291-.9412.0582-1.8825.0728-2.8153.0218-.9243.0291-1.8571.0364-2.7815.0073-.9158.0073-1.8316 0-2.739 0-.4494-.0073-.9074-.0145-1.3568 0-.229-.0073-.4494-.0146-.6784-.0073-.212-.0364-.4494-.0073-.6614.0073-.0764.0291-.1357.0146-.212-.0073-.0933-.0292-.1781-.051-.2714-.0437-.1781-.1092-.3477-.1893-.5088s-.1747-.30528-.2912-.44096c-.0291-.03392-.3349-.36465-.364-.33072.0946-.10176.1747-.212.2475-.33072.1893-.31376.2985-.6784.3786-1.05152.0364-.18656.0582-.3816.0801-.57664.0073-.03392.0218-.06784.0218-.11024.0219-.13568-.0073-.2968-.0145-.43249-.0292-.55968-.0656-1.13632-.102-1.71296z" fill="url(#b)"/><path d="m30.9631 11.6622c-.0072.9667-.0145 1.9334-.0218 2.9001-.0073.4579-.0073.9243-.0073 1.3907 0 .2544-.0073.5004-.0073.7463-.0145 1.3144-.0291 2.6288-.0582 3.9432-.0146.6529-.0291 1.3059-.051 1.9589-.0145.39-.0073.7547-.1165 1.1193-.1237.4071-.1165.9074-.1601 1.3399-.0146.1356-.0364.2798-.1238.3816-.0801.0932-.1966.1102-.3131.1187-.182.0254-.3713.0424-.5533.0678-1.0702.1272-2.1477.2459-3.2179.2799-.7936.0169-1.5945-.0085-2.388-.1103.6043.1018 1.2085.212 1.8128.3138.1747.0339.3422.0593.5169.0933l3.6912.636c.1092.0254.233.0424.3131.1356.1237.1272.131.3477.1237.5428-.0145.2883-.0364.5766-.08.8649-.0656.5682-.1602 1.1363-.1821 1.713-.0072.1187.0146.2374-.0072.3561-.051.3647-.284.7124-.4587 1.0007-.8227 1.3398-2.1332 2.1878-3.5383 2.2896-6.3704.4664-13.0393.424-19.9703-.0424-.99742-.0679-1.96573-.5173-2.73017-1.272-.45139-.4495-.87366-1.0261-1.13575-1.6621-.11649-.2883-.14561-.619-.2621-.9158-.02184-.0679-.04368-.1272-.06553-.1951-.0364-.195-.02184-.407.12377-.5427.15289-.1442.37131-.1526.56788-.1611 2.20598-.0848 4.40467-.2459 6.61065-.3223h.06553c.66982-.0254 1.34692-.0339 2.01672-.0339-.2476-.0424-.4951-.0848-.7426-.1102-1.13579-.1611-2.28611-.212-3.42914-.2629-.01456 0-.02912-.0085-.0364-.0085h-.01456c-1.38329-.0593-2.75929-.1272-4.12074-.3816-.2621-.0509-.53147-.1102-.76445-.2459-.17473-.0933-.32762-.2205-.43683-.407-.00728 0-.01456-.017-.02184-.0255-.16017-.2883-.21841-.7208-.16745-1.043.06553-.3731.02184-.7378.00728-1.1363-.02912-.6784-.06552-1.3653-.08736-2.0437-.02184-.3731-.0364-.7463-.05097-1.1194-.00728-.2035-.01456-.4325.09465-.5936.08737-.1272.24026-.1696.37858-.212.42955-.1272.8591-.2544 1.30321-.3307.19657-.0424.39314-.0678.58971-.0848-.50235-.1357-1.0047-.2629-1.51433-.3986-.15289-.0424-.30578-.0848-.44411-.1696-.02912-.0169-.06552-.0424-.09465-.0678-.24753-.212-.31306-.5003-.34946-.8056-.01456-.1018-.02184-.212-.0364-.3138-.0364-.2459-.06552-.4833-.08009-.7292-.0364-.3732-.05096-.7463-.06552-1.1194-.02912-.8141-.06552-1.8656.37858-2.5525.16017-.2459.44411-.3053.70621-.3392 1.02654-.1441 2.05309-.2713 3.07963-.3731.21114-.0254.42955-.0424.64068-.0678 1.04111-.0933 2.07493-.1696 3.12332-.229-1.25224.0678-2.51176.0424-3.764-.0509-.78629-.0593-1.57258-.1526-2.35887-.2713-.32762-.0509-.6698-.1103-.96102-.2884-.00728-.0084-.01456-.0084-.02184-.0169-.08008-.0424-.15289-.0933-.22569-.1611-.16017-.1442-.27666-.3392-.34218-.5597-.07281-.229-.03641-.424-.00728-.653.00728-.0848 0-.1696 0-.2544-.01456-.5173.02184-1.043.02912-1.5603.00728-.26288.01456-.52576.02912-.79712.02912-1.15328.08008-2.30656.13833-3.45984.14561-2.7984 2.09677-5.011677 4.49932-5.121917 6.62524-.31376 13.27954-.30528 19.97034.00848 2.1477.10176 4.0188 1.967357 4.4192 4.426557.1238.75472.1674 1.57728.0437 2.34048-.0291.19504-.0728.3816-.1311.55968-.0364.10176-.0946.31376-.1747.39856-.0073.00848-.0146.01696-.0146.01696-.0582.0424-.1383.05088-.1965.06784-.3932.11024-.7863.20352-1.1795.28832-.7863.16112-1.5798.27984-2.3734.36464-.0073 0-.0073 0-.0073 0-1.6017.16112-3.2179.19504-4.8196.22048h-.0437c.4368.03392.8809.05936 1.3177.09328 1.194.07632 2.388.16112 3.582.24592.7936.05088 1.5944.10176 2.388.16112.4805.03392.9829.07632 1.3979.36464.0072 0 .0072.00848.0072.00848.5315.41554.5679 1.16174.5606 1.86564z" fill="url(#c)"/><path d="m30.9621 11.6622c-.0073.9667-.0146 1.9334-.0146 2.9002-.0073.4579-.0073.9243-.0073 1.3907 0 .2544-.0073.5003-.0073.7462-3.065.229-6.1374.5427-9.2097.7632-3.582.2544-7.164.5343-10.7387.7971-1.92933.1442-3.84409.3138-5.76613.5682-1.28864.1696-2.51175.4155-3.76399.3307-.01456-.1017-.02184-.212-.0364-.3137-.03641-.246-.06553-.4834-.08009-.7293 1.2668-.3138 2.54088-.2629 3.88776-.3138 1.80556-.0678 3.58199-.212 5.38025-.407 3.582-.3901 7.164-.7971 10.746-1.272 2.1331-.2883 4.2663-.5427 6.4068-.8141-.0728-.0085-.1384-.0085-.2112-.017-3.5019-.2204-6.9455-.9752-10.4329-1.3398-3.4582-.3646-6.931-.6784-10.40373-.9158-1.40513-.1018-3.01411-.0764-4.60125-.2036-.00728-.0084-.01456-.0084-.02184-.0169-.08009-.0424-.15289-.0933-.2257-.1611-.16017-.1442-.27665-.3392-.34218-.5597-.0728-.229-.0364-.424-.00728-.653.00728-.0848 0-.1696 0-.2544-.01456-.5173.02184-1.043.02912-1.5603.00728-.26288.01456-.52576.02913-.79712 1.76187-.11024 3.58198.02544 5.14728.0424 3.47275.03392 6.93825.22896 10.40375.4664 3.4801.23744 6.9529.14416 10.4329.33072.9392.05088 1.8857.09328 2.8248.11872.5606.42398.5897 1.17028.5825 1.87408zm-11.5032 9.4722c-5.919.3307-12.15103.0254-17.91716 1.7977.02913.6784.05825 1.3653.08737 2.0437.01456.3901.05824.7547-.00728 1.1363-.05096.3223.01456.7547.16745 1.0431 1.74731.5342 3.53102.8649 5.34385 1.0769.01457 0 .02913.0085.05097.0085 1.13575.1357 2.27878.212 3.4291.2629 2.9631.1272 5.9481.0509 8.8457.0848 3.6257.0424 7.2514-.0424 10.8698-.1951.0364-.2883.0655-.5681.0801-.8649.0072-.1951 0-.4071-.1238-.5427-.0801-.0848-.2039-.1103-.3131-.1357-1.4051-.2459-2.803-.4834-4.2081-.7293-.6043-.1018-1.2085-.212-1.8128-.3138 1.8638.246 3.7421.0594 5.6132-.1611.182-.0254.3713-.0424.5533-.0678.1092-.0085.233-.0255.3131-.1187.0874-.0933.1092-.246.1238-.3816.0436-.4325.0291-.9244.1601-1.3399.1092-.3731.1092-.7293.1165-1.1193.0219-.653.0364-1.306.051-1.9589-3.8077.1272-7.6227.2629-11.4231.4749z" fill="url(#d)"/><g fill="#e68b4a"><path d="m1.81031 27.1989c-.17473-.2884-.24754-.7463-.18929-1.0855.06552-.3731.02184-.7377.00728-1.1363-.05097-1.0515-.09465-2.1115-.13833-3.163-.00728-.2036-.01456-.4325.09464-.5936.08737-.1272.24026-.1696.37859-.212.42955-.1272.85909-.2544 1.3032-.3308-.24754.2205-.48779.3986-.77901.5682-.10193.0594-.21113.1187-.28394.2205-.08008.1017-.1092.2544-.13833.3901-.24753 1.3228-.11648 2.7051.02185 4.0534.05824.5597.11648 1.1278.16017 1.696-.17474-.0933-.32762-.229-.43683-.407z"/><path d="m1.41123 18.8466c-.08737-.6105-.12377-1.2381-.14561-1.8486-.02912-.8141-.06553-1.8656.37858-2.5525.16017-.2459.44411-.3053.70621-.3392 1.23767-.1696 2.47535-.3222 3.72031-.4325-1.17943.4579-2.52632.4579-3.66935 1.0261-.21113.1018-.42227.229-.53875.4579-.08009.1527-.10921.3307-.13105.5003-.07281.5428-.12377 1.06-.09465 1.6112.02184.3477.04368.7039.07281 1.0516.04368.5766.11648 1.1448.19657 1.7129-.02912-.0169-.06553-.0424-.09465-.0678-.34218-.2714-.3349-.7039-.40042-1.1194z"/><path d="m25.5605 26.0098c.051.0254.102.0509.1529.0763-.0582-.0169-.1092-.0339-.1529-.0763z"/><path d="m30.4074 27.5118c-.0291.8735-.2329 1.713-.262 2.5779-.0073.1188.0145.2375-.0073.3562-.051.3646-.284.7123-.4587 1.0006-.8227 1.3399-2.1332 2.1879-3.5383 2.2896-6.3704.4664-13.0393.424-19.97029-.0424-.99743-.0678-1.96573-.5172-2.73017-1.272-.45867-.4409-.88094-1.0176-1.14304-1.6536-.11648-.2883-.1456-.619-.26209-.9158-.02184-.0678-.04368-.1272-.06553-.195-.0364-.1951-.02184-.4071.12377-.5428.15289-.1441.37131-.1526.56788-.1611 2.20598-.0848 4.40467-.2459 6.61065-.3222-1.9366.1272-3.86592.4409-5.7734.8395-.2621.0509-.54603.0763-.80085.1611-.0364.017-.08009.017-.11649.0594-.04368.0678-.0364.1526-.02912.2289.02912.2629.15289.4834.29122.6954.44411.6784.91006 1.3907 1.5653 1.7893 1.57258.9667 3.17428.8225 4.95799.7801.36402-.0084.72077 0 1.08477-.0763.182-.0424.4004 0 .5825.0085.4149.017.8299.0254 1.2522.0424.83.0254 1.6672.0509 2.4972.0848 1.558.0509 3.116.1018 4.674.1526 1.4853.0509 2.9705.0933 4.4557-.0508 1.4634-.1357 2.9267-.458 4.2809-1.1448.1092-.0594.2402-.1018.3349-.1951.0728-.0593.131-.1357.2038-.195.2257-.1696.4442-.3392.6407-.5512.1311-.1442.3204-.3307.3859-.5343.0364-.1102.0582-.2374.0946-.3476.0947-.3138.1456-.6445.1675-.9752.0218-.3647.0073-.7378-.0291-1.1024-.0146-.1612.0072-.4664-.0801-.6021-.0437-.0763-.1602-.1442-.233-.1866-.1893-.1102-.4077-.1611-.6188-.2035-1.1285-.2459-2.2351-.6445-3.2908-1.1872 1.4051.2459 2.803.4918 4.2081.7293.1092.0254.233.0424.3131.1357.1164.1187.1164.3392.1164.5257z"/><path d="m1.53368 12.0946c-.05825-.2714-.05097-.5512-.05097-.831.02912-1.34837.05825-2.70517.12377-4.05349.05824-1.23808.0364-2.544.47323-3.69728.71349-1.88256 2.33703-3.171516 4.11346-3.256316 6.62523-.3137604 13.27953-.3052804 19.97033.00848 2.1477.10176 4.0188 1.967356 4.4192 4.426556.1238.75472.1675 1.57728.0437 2.34048-.0291.19504-.0728.3816-.1311.55968-.0364.10176-.0946.31376-.1747.39856-.1383-1.23808.1238-2.59488-.2621-3.76512-.2257-.70384-.5533-1.3992-1.0702-1.8656-1.7036-1.534876-4.2154-1.433116-6.2685-1.475516-5.6569-.1272-11.2774-.33072-16.9125.262876-.26209.02544-.51691-.0848-.76444-.03392-.5606.11024-1.09935.5512-1.50706.98368-.56059.60208-.99014 1.36528-1.25952 2.19632-.0728.24592-.13833.49184-.19657.73776-.54603 2.44224-.31306 5.27455-.05096 7.75075-.24026-.0933-.40771-.3562-.48779-.6445 0-.0085-.00728-.0254-.00728-.0424z"/><path d="m30.9599 11.6627c-.0073.9667-.0146 1.9334-.0146 2.9001-.0073.458-.0073.9244-.0073 1.3908-.0145 2.2217-.0364 4.435-.1165 6.6568-.0145.39-.0072.7547-.1164 1.1193-.1238.4071-.1165.9074-.1602 1.3399-.0146.1356-.0364.2798-.1238.3815-.0801.0933-.1966.1103-.313.1188-.1821.0254-.3713.0424-.5534.0678.1092-.0848.1893-.2035.2549-.3477.0873-.212.1092-.4579.1237-.6953.2694-3.9093.2912-7.8355.1966-11.7533-.0146-.5173-.0291-1.0346-.0437-1.5518-.0073-.1188.0146-.229.0073-.3477-.0146-.1527-.0801-.2968-.1675-.424-.1892-.2714-.4805-.441-.7571-.55123-2.0531-.8056-4.3537-.22048-6.4287-.94128h.2476c1.9948.13568 3.9824.27136 5.9699.40704.4806.03392.9829.07632 1.3979.36464.5824.40703.6116 1.15333.6043 1.86563z"/></g><path d="m25.7642 26.1126c.1747.0339.3422.0593.5169.0933-.0946.39-.233.7547-.4368 1.06-.83 1.2465-2.3807 1.467-3.6039 1.5518-2.0749.1357-4.1498.2798-6.2247.2629-2.2351-.017-4.4338-.2629-6.66166-.441.66976-.0254 1.34686-.0339 2.01666-.0339-.2475-.0424-.495-.0848-.7426-.1102-1.13574-.1612-2.28605-.212-3.42908-.2629-.01456 0-.02912-.0085-.0364-.0085h-.02912c-.08737-.0254-.18202-.0594-.27666-.0933-.18929-.0678-.38587-.1441-.54604-.2713-.37858-.3138-.53147-.8989-.66252-1.4332-.29122-1.2211-.18201-2.4337-.12376-3.6718.06552-1.3314.06552-2.6627.04368-3.9941-.0364-1.6621-.10193-3.3496-.14561-5.0201.21113-.0255.42955-.0424.64068-.0679.53147-.0509 1.05567-.0933 1.58714-.1272.01456 2.1963.12377 4.4011.19657 6.589.00728.2374-.02184.4749 0 .7038.01456.1357 0 .2205.08009.3307.1092.1612.42954.3223.61883.3647.2257.0424.46595.0169.69165.0169.49507 0 .99745 0 1.49245.0085-.4877.0933-.97554.1527-1.47061.1781-.21113.0085-.46595-.0339-.66252.0424s-.39315.1102-.58972.1696c-.05824.017-.11649.0339-.15289.0848-.0364.0424-.04368.1018-.05824.1611-.0364.2459-.01456.4919.04368.7293.04368.1866.10193.3477.08737.5427-.03641.4579.02184.9243.08008 1.3823.02184.1696.02912.3222.11649.4664.18929.3052.52419.4748.82269.5681 2.30787.7378 4.72497.7717 7.12027.8056 1.4124.017 2.8248.0339 4.2372-.0169.9611-.034 2.7157.195 3.5456-.5004.1165-.0932.2184-.212.2985-.3476.5388.1017 1.0775.2035 1.6163.2883zm-18.10651-13.9835c.00728-.4664.04368-.9328.08008-1.3992.00728-.0764.00728-.1527 0-.229-.01456-.1526-.01456-.2714.01457-.4155.0728-.32226.20385-.66146.46594-.83106.17474-.11024.38587-.11872.58972-.1272.99014-.03392 1.9803-.03392 2.9704-.00848-.7863-.09328-1.5726-.19504-2.35884-.28832-.44411-.05088-.8955-.11024-1.32504.01696.01456-.00848.05824-.13568.0728-.15264.02912-.05936.06553-.11872.10193-.1696.06552-.10176.14561-.20352.23297-.28832.15289-.15264.29122-.32224.45139-.4664.34218-.30528.73533-.51728 1.13579-.68688.3785-.16112.7717-.27136 1.1648-.3816.2694-.07632.5461-.07632.8227-.0848 3.1015-.05088 6.203-.06784 9.3044-.09328.517-.00848 1.0484.20352 1.5508.36464.3713.11872.7499.30528.9901.66144.2257.33072.3495.8056.415 1.33136.7353-.02544 1.4707-.07632 2.2206-.15264-.0656-1.02608-.2185-2.01824-.8373-2.7984-.6771-.848-1.8274-1.02608-2.7593-1.08544-1.0484-.06784-2.0968-.11024-3.1451-.14416-.8227-.01696-1.6382-.03392-2.4536-.03392-1.6745-.00848-3.3198.06784-4.9798.1696-1.8055.10176-4.07705-.61056-5.60595.83104-.75716.71232-1.12119 1.60272-1.27408 2.756-.11648.87344-.12376 1.7638-.12376 2.6458 0 .7632.01456 1.5348.0364 2.3235.7426.0593 1.48521.0933 2.22782.0933.00728-.458.00728-.9074.01456-1.3568zm19.16221 2.9595c-.0364-1.6706-.1093-3.3411-.2112-5.0117-.0145-.26288-.0291-.52576-.0437-.79712-.7353-.05088-1.4779-.10176-2.2205-.15264.0728.91586.0073 1.93346.0437 2.61186.0509 1.0515.1383 2.103.2111 3.1461.0364.5088.0728 1.0176.0947 1.5264.0072.1611.0364.2968-.0437.4324-.1384.2375-.4369.2799-.6625.2968-1.2086.0933-2.4317.1272-3.6112.458 1.4998.0678 2.9996.0339 4.4921-.0933-.0291.1526-.0655.3137-.0947.4664-.0291.1357-.0728.2798-.0728.4155 0 .0848.0292.1696.0364.2544.0219.1442.0073.3053.0146.4494.0073.6445 0 1.289-.0073 1.9335-.0073.5427-.0218 1.0854-.0364 1.6197-.0073.0593-.0073.1272-.0073.1865-.0291.8819-.0364 2.1879-.546 2.9765.728.0848 1.4561.1102 2.1769.0933.1383-.7039.182-1.4586.2475-2.1115.2403-2.2812.2111-4.6047.233-6.9028.0073-.602.0073-1.1956.0073-1.7892.0072.0084 0 0 0-.0085z" fill="url(#e)"/><g fill="#e68b4a"><path d="m19.045 28.9199c.9537-.0169 1.9293-.0339 2.8758-.2035.1965-.0339.4077-.0255.6115-.0424.4296-.0339.8518-.0848 1.2741-.1527.2767-.0424.5533-.0932.8227-.2035.8081-.3222 1.4488-1.1702 1.6235-2.1454-.4441-.0254-.9537-.0254-1.3978-.0509.3713-.0763.9173.1442 1.0848.5427-.4805.4919-1.0193.9328-1.6308 1.1279-.3277.1017-.6698.1357-1.0047.1611-2.2934.2035-4.594.4155-6.8874.3646-1.1066-.0169-2.2059-.1017-3.3126-.0509-.3203.017-.6406.0425-.9537.0509-.182.0085-.364.0255-.546-.0085-.1238-.0169-.2549-.0084-.3786-.0084-.2767 0-.5461-.0085-.8227-.0255-.54605-.0254-1.09208-.0763-1.63812-.1441-.58972-.0763-1.18671-.1696-1.76915-.2968-.28394-.0594-.58244-.1357-.78629-.3562-.13833-.1526-.22569-.3561-.2985-.5512-.24025-.6445-.40042-1.3313-.47323-2.0267-.21113.8565.00728 1.7978.49507 2.4931.45867.653 1.16488 1.0261 1.87108 1.1787.53147.1188 1.12847.1781 1.65994.1103.11649-.017.23298 0 .35675.0084.27665.017.55335.034.82995.0509.5533.034 1.1066.0594 1.66.0764.5533.0169 1.0993.0254 1.6526.0339.2548 0 .5315.0339.7863-.0085.2476-.0424.5242.0085.779.017 1.1067.0424 2.2206.0763 3.3272.0678.0582-.0085.1238-.0085.1893-.0085z"/><path d="m27.3584 9.54309s-.8955-.03392-.9756-.03392c-.3349-.01696-.6625-.0424-.9974-.06784-.1674-.01696-.3349-.02544-.495-.0424-.0801-.00848-.1675-.01696-.2476-.02544-.0437-.00848-.0946-.01696-.1456-.01696-.0218 0-.0364.00848-.051.00848-.0291-.00848-.0655-.01696-.0946-.02544-.1311-.0424-.2621-.07632-.3931-.11872 0-.02544-.0073-.0424-.0073-.06784 0-.00848.182-.00848.1965-.00848.051.00848.1093.02544.1602.01696.0437-.00848.0801-.01696.1238-.01696h.2038c.2767 0 .5533.00848.8227.02544.2767.01696.5533.03392.8227.05936.2767.02544.5533.05936.8227.10176.0947.01696.1966.02544.2912.0424.0146.07632-.0364.0848-.0364.1696z"/><path d="m7.95506 13.502c-.87365.1017-1.74731.2374-2.61368.424-.05825-.0679-.08009-.1442-.06553-.229.91006-.1272 1.76187-.1526 2.67921-.195z"/></g><path d="m25.1528 15.9706c.0292 2.3659-.0291 4.6979-.1601 7.0045-.0292.5173-.0583 1.043-.102 1.5603-.1092 1.5688-1.2012 2.8069-2.5481 2.9171-4.3028.3392-8.7002.3223-13.17765-.0085-1.36873-.1017-2.46808-1.3822-2.55544-2.9764 0-.0255-.00728-.0424-.00728-.0679-.17473-4.0025-.20386-8.0729-.09465-12.2112.00728-.195.00728-.3901.01456-.5851.02912-.7886.05096-1.5688.08737-2.35744.00728-.18656.02912-.36464.06552-.54272 0-.03392.00728-.06784.02184-.10176.28394-1.33984 1.29592-2.332 2.52632-2.40832 4.29551-.24592 8.64191-.24592 13.05381.00848 1.3761.07632 2.5045 1.33136 2.6137 2.93408.102 1.50098.1748 2.98498.2184 4.46048.0292.7971.0437 1.5858.0437 2.3744z" fill="#e58b4a"/><path d="m22.4922 12.8125c-.1094.125-.1797.1953-.211.2109-.0312 0-.0468.0157-.0468.0469-.0625-.0312-.1172-.0547-.1641-.0703s-.1094-.0156-.1875 0c-.3125-.0312-.5156-.0469-.6094-.0469-.0468 0-.0937.0078-.1406.0235-.0469.0156-.0937.0234-.1406.0234-.1719-.0625-.2656-.0859-.2813-.0703 0 .0156-.0078.0234-.0234.0234-.2656 0-.5234 0-.7734 0s-.4922.0078-.7266.0235c-.0781 0-.1484.0078-.2109.0234-.0469 0-.1016 0-.1641 0-.125.0156-.2031.0234-.2344.0234-.0156-.0156-.039-.0234-.0703-.0234-.125.0312-.2109.0469-.2578.0469-.1719.0312-.2734.0469-.3047.0469-.0156-.0157-.0391-.0235-.0703-.0235-.1562.0469-.2578.0703-.3047.0703s-.0937 0-.1406 0-.0938.0078-.1406.0235c-.0469.0156-.0938.0234-.1407.0234-.25.0313-.3984.0469-.4453.0469-.0625.0156-.125.0234-.1875.0234-.0625-.0156-.125-.0078-.1875.0234-.1719.1094-.2812.1719-.3281.1876-.1875.0624-.2969.1015-.3281.1171-.0157.0157-.0391.0313-.0703.0469-.0313.0313-.0704.0625-.1172.0938-.0313.0156-.0782.0312-.1406.0468-.125.0782-.211.1172-.2579.1172-.1406.125-.2265.1953-.2578.211-.0156 0-.039.0078-.0703.0234l-.2109.2109-.1875.211c-.0938.0781-.1563.1406-.1875.1875-.0625.1094-.1172.1875-.1641.2344-.0312.0468-.0625.1093-.0937.1874-.0157.0469-.0235.0938-.0235.1407s-.0156.0859-.0468.1172c-.0157.0625-.0313.1093-.0469.1406-.0157.0312-.0391.0703-.0703.1172-.0469.0937-.0704.164-.0704.2109.0157.0469.0157.0938 0 .1406-.0937.1719-.1406.2813-.1406.3282 0 .0468-.0156.0859-.0468.1172 0 .0937-.0235.1874-.0704.2812-.0312.1562-.0468.2891-.0468.3984v.3047.2578c0 .0625.0078.1329.0234.211.0625.2031.0938.3281.0938.375.0156.0469.0234.0859.0234.1172.0156.0312.0312.0703.0469.1171.0312.0469.0468.0938.0468.1407.0625.125.1016.2031.1172.2343.0157.0157.0313.0391.0469.0704.0625.1406.1094.2422.1406.3046.0782.1407.125.2344.1406.2813.0313.0469.0626.0859.0938.1172.1094.125.1562.1953.1406.2109 0 .0156.0156.0391.0469.0703.125.0938.1875.1563.1875.1875 0 .0313.0156.0547.0469.0704.0781.0312.1406.0937.1875.1874.0468.0938.1094.1719.1875.2344.1562.125.25.1953.2812.211.0469 0 .086.0156.1172.0468.1719.1094.2656.1719.2813.1875.0156.0157.039.0313.0703.0469.125.0781.1953.1172.2109.1172.0313-.0156.0625-.0078.0938.0234.1718.1094.289.1797.3515.211.0938.0625.1563.0937.1875.0937.0313-.0156.0782-.0078.1406.0235l.2579.0703c.1406.0312.2265.0469.2578.0469.0469-.0157.1015-.0235.164-.0235h.3516c.125 0 .25-.0078.375-.0234.0313-.0625.0391-.125.0234-.1875 0-.0625.0079-.125.0235-.1875 0-.0469 0-.0938 0-.1407.0156-.0624.0234-.1171.0234-.164 0-.0625-.0078-.1172-.0234-.1641 0-.0625 0-.125 0-.1875.0156-.2344.0078-.3984-.0235-.4922-.0156-.0937-.0234-.1875-.0234-.2812-.0156-.0781-.0234-.1563-.0234-.2344.0156-.0781.0234-.164.0234-.2578-.0156-.0469-.0391-.1328-.0703-.2578v-.2813c-.0469-.1562-.0781-.2578-.0938-.3047 0-.1874-.0156-.3281-.0468-.4218-.0157-.0625-.0313-.125-.0469-.1875 0-.0625-.0078-.125-.0235-.1875l-.0468-.3047c-.0469-.0938-.0703-.1563-.0703-.1875 0-.0469-.0079-.086-.0235-.1172 0-.0469-.0078-.0938-.0234-.1406 0-.0625 0-.1094 0-.1406.0312-.1563.039-.2344.0234-.2344 0 0 0-.0078 0-.0235.0782-.1718.1875-.2968.3282-.375.0781.0313.1562.0469.2343.0469.0938-.0156.1875-.0234.2813-.0234.0781 0 .1562-.0078.2344-.0235.0781-.0156.1484-.0156.2109 0 .1406.0313.2265.0469.2578.0469.1719-.0156.2813-.0156.3281 0h.1875c.1563.0156.2422.0234.2578.0234.0313-.0156.0625-.0234.0938-.0234.1562-.0625.2422-.0859.2578-.0703h.3516l.3047-.0234c.0937-.0157.1562-.0157.1874 0 .0469.0156.086.0234.1172.0234h.375c.1719-.0313.2735-.0391.3047-.0234h.0938c.1406-.0157.2187-.0157.2343 0h.0704.1406c.0312-.0157.0859-.0157.164 0 .1407.0625.211.0937.211.0937.0156 0 .0312.0078.0469.0234.0312.0313.0703.0626.1171.0938.0469.0312.086.0625.1172.0938.0157.1406.0313.2812.0469.4218.0313.125.0469.25.0469.375 0 .0469-.0156.1328-.0469.2578-.0312.2344-.0469.3672-.0469.3985v.6562c0 .0313-.0078.0781-.0234.1407-.0156.0624-.0312.1171-.0469.164-.0469.2344-.0703.4453-.0703.6328-.0156.1406-.0234.25-.0234.3282 0 .0624-.0078.1328-.0235.2109 0 .0937-.0156.2187-.0468.375v.5391c-.0157.2343-.0391.3984-.0703.4921 0 .0782.0078.1485.0234.211.0156.0469.0234.1093.0234.1875v.375c.0313.2187.0469.3672.0469.4453 0 .0625.0078.125.0234.1875.0469.1562.0625.2578.0469.3047 0 .0312.0078.0781.0234.1406l.0469.2578c-.0156.0781-.0156.1328 0 .1641.0157.0312.0313.0625.0469.0937.0156.1407.0156.2188 0 .2344v.0469.1406c.0156.0469.0234.0938.0234.1406 0 .0938-.0078.1875-.0234.2813-.0156.0781-.0312.1562-.0469.2343-.125.0938-.1953.1329-.2109.1172-.0156 0-.0391.0078-.0703.0235-.1719.0469-.3203.0859-.4453.1172-.125.0468-.25.0781-.375.0937-.1719.0156-.2578.0156-.2578 0 0 0-.0079 0-.0235 0h-.4922c-.0625-.0156-.125-.0312-.1875-.0469-.0625 0-.1406 0-.2344 0-.1093.0157-.1874.0157-.2343 0-.0313-.0156-.0703-.0234-.1172-.0234h-.3047l-.3281-.0234c-.0469 0-.1016-.0079-.1641-.0235-.0625 0-.1172.0078-.164.0235h-.2579-.2812c-.2031.0312-.3594.0547-.4688.0703-.0937.0312-.1797.0625-.2578.0937-.2343.0469-.3906.0781-.4687.0938-.0625.0156-.1328.0234-.211.0234-.125.0156-.1953.0156-.2109 0-.0156 0-.0391 0-.0703 0-.0781.0156-.1641.0313-.2578.0469-.0782.0312-.1797.039-.3047.0234l-.3281.0235h-.4454c-.0468 0-.0937-.0079-.1406-.0235-.0468 0-.0859 0-.1172 0-.1875-.0625-.3281-.0937-.4218-.0937-.0782.0156-.1563.0078-.2344-.0235-.1094-.0156-.211-.039-.3047-.0703-.3281-.0469-.5391-.0859-.6328-.1172-.1406-.0625-.2266-.0937-.2578-.0937-.0157.0156-.0469.0156-.0938 0-.125-.0469-.2187-.0781-.2812-.0938-.0625-.0156-.1094-.0312-.1407-.0468-.0781-.0313-.1484-.0547-.2109-.0704-.0625-.0312-.1328-.0781-.2109-.1406-.0782-.0312-.1563-.0547-.2344-.0703-.0781-.0312-.1641-.0625-.2578-.0937-.1875-.125-.2891-.1954-.3047-.211-.0937-.0625-.1875-.1094-.2813-.1406-.125-.125-.2109-.2109-.2578-.2578-.0468-.0469-.1015-.086-.164-.1172-.1719-.1875-.2656-.2969-.2813-.3281-.0625-.0469-.125-.0938-.1875-.1407-.0468-.0468-.0937-.1015-.1406-.164-.0781-.0781-.1562-.1563-.2344-.2344-.0625-.0781-.1328-.164-.2109-.2578l-.1875-.1875-.21095-.2578-.14063-.2344c-.09374-.1562-.14062-.2422-.14062-.2578s-.00781-.0391-.02344-.0703c-.09375-.1719-.14062-.2734-.14062-.3047-.07813-.1406-.14063-.2187-.1875-.2344-.04688-.125-.08594-.1953-.11719-.2109-.01563-.0313-.03125-.0703-.04687-.1172-.03126-.1094-.0625-.1797-.09376-.2109-.01562-.0313-.03124-.0703-.04687-.1172-.03125-.0781-.05469-.1563-.07031-.2344 0-.0937-.01563-.1797-.04688-.2578-.0625-.1719-.10156-.2735-.11718-.3047-.03126-.2188-.05469-.3828-.07032-.4922-.01562-.1094-.03125-.1953-.04687-.2578l-.04688-.2578c-.01562-.0781-.02343-.1328-.02343-.1641 0-.0469-.00782-.1015-.02344-.164-.01563-.1094-.02344-.1719-.02344-.1875.01562-.0313.01562-.0704 0-.1172-.01562-.1406-.02344-.211-.02344-.211.01563-.0156.02344-.039.02344-.0703v-.3047c0-.0781 0-.164 0-.2578 0-.1094-.01562-.1797-.04688-.2109 0-.0313 0-.0938 0-.1875 0-.0938.00782-.1641.02344-.211-.04687-.0468-.07812-.0937-.09375-.1406 0-.0468 0-.1094 0-.1875 0-.1093 0-.2109 0-.3047 0-.1093.02344-.2109.07031-.3046.01563-.1563.02344-.2344.02344-.2344.01563-.0156.02344-.0313.02344-.0469.03125-.2187.04688-.3594.04688-.4219 0-.0781.01562-.164.04687-.2578l.07031-.3047c.07813-.1719.11719-.2578.11719-.2578.01563-.0469.01563-.0937 0-.1406 0-.0469.00781-.0938.02344-.1406.04687-.0782.07812-.1329.09375-.1641.03125-.0469.0625-.1016.09375-.1641.0625-.1875.10156-.289.11719-.3047.0625-.1718.09374-.2578.09374-.2578.01563-.0156.02344-.0312.02344-.0468.03125-.125.05469-.1954.07032-.211.03124-.0156.03124-.039 0-.0703.07812-.125.125-.2109.14062-.2578.03125-.0625.0625-.1172.09375-.1641.10937-.1562.16406-.2422.16406-.2578s.01563-.039.04688-.0703c.125-.1562.19531-.2344.21093-.2344.01563-.0156.03126-.039.04688-.0703.125-.1562.1953-.2578.2109-.3047.0157-.0468.0391-.0859.0703-.1171.0469-.0626.1016-.1172.1641-.1641l.1875-.1875c0-.0625.0156-.1094.0469-.1406.0469-.0313.0859-.0704.1172-.1172.125-.1719.2187-.2735.2812-.3047.1407-.125.211-.1953.211-.2109.0156-.0313.039-.0469.0703-.0469l.1875-.21096c.0625-.04688.1093-.07813.1406-.09375.0469-.03125.0859-.07031.1172-.11719.125-.09375.1875-.13281.1875-.11719.0156.01563.039.00781.0703-.02343.1094-.07813.1875-.13282.2344-.16407s.1015-.0625.164-.09375c.1094-.0625.1875-.10937.2344-.14062s.0938-.0625.1406-.09375c.0313-.03125.0703-.0625.1172-.09375s.1016-.04688.1641-.04688c.1875-.10937.3047-.17187.3516-.1875.1406-.07812.2343-.14062.2812-.1875l.375-.16406c.2031-.0625.3438-.10938.4219-.14062.0937-.03126.1797-.0625.2578-.09376.0781-.03124.1562-.05468.2344-.07031.0937-.03125.1797-.0625.2578-.09375.1875-.07812.3203-.11718.3984-.11718.1094-.01563.1875-.03126.2344-.04688s.0937-.03125.1406-.04688c.1875-.03125.2969-.04687.3281-.04687.0313-.01562.0547-.01562.0704 0 .1562-.07813.2343-.11719.2343-.11719.0313-.01562.0703-.01562.1172 0 .0469 0 .0938-.00781.1406-.02344.0469 0 .086-.00781.1172-.02343.0469-.03125.1016-.04688.1641-.04688h.3047c.0781-.01562.1484-.00781.2109.02344.0469-.03125.0938-.03906.1406-.02344h.211.164c.0625-.01562.1328-.01562.211 0 .0625.01563.1094.02344.1406.02344.0312-.01562.0703-.02344.1172-.02344.125-.01562.1953-.01562.2109 0 .0313.01563.0625.02344.0938.02344.1406-.03125.2187-.03906.2343-.02344h.0704c.1406-.01562.2343-.02343.2812-.02343.0469-.01563.086-.01563.1172 0 .0625.01562.1172.04687.1641.09374.0625.03126.1328.03126.2109 0 .1562-.03125.2422-.04687.2578-.04687.0313-.01562.0625-.01562.0938 0 .0625.03125.1406.09375.2343.1875.0782.04687.125.08594.1407.11719.0156.01562.039.03906.0703.07031.1093.1875.1797.32031.2109.39844.0313.07812.0469.16406.0469.25781.0156.07812.0469.14062.0937.1875-.0156.10938-.0078.20312.0235.28125.0469.0625.0781.14844.0937.25781l.0703.30469c.0157.04687.0235.10156.0235.16406.0156.04688.039.09375.0703.14063l.0937.32816c.0625.1406.1016.2421.1172.3047.0156.0624.0391.125.0703.1874.0469.0938.0782.1797.0938.2579.0156.0781.0391.1484.0703.2109.0469.0938.0781.1797.0938.2578.0312.0781.0624.1563.0937.2344.0469.1094.0703.1875.0703.2344 0 .0468.0078.0937.0234.1406.1407.2969.211.5703.211.8203z" fill="#693821"/></svg>