<svg fill="none" height="18" viewBox="0 0 148 18" width="148" xmlns="http://www.w3.org/2000/svg"><path d="m13.7959 5.82812c-.1003.11459-.1647.17904-.1934.19336-.0286 0-.0429.01433-.0429.04297-.0573-.02864-.1075-.05013-.1504-.06445-.043-.01432-.1003-.01432-.1719 0-.2865-.02865-.4727-.04297-.5586-.04297-.043 0-.0859.00716-.1289.02149-.043.01432-.0859.02148-.1289.02148-.1576-.05729-.2435-.07878-.2578-.06445 0 .01432-.0072.02148-.0215.02148-.2435 0-.4798 0-.709 0-.2291 0-.4512.00716-.666.02149-.0716 0-.1361.00716-.1934.02148-.0429 0-.0931 0-.1503 0-.1146.01432-.1862.02148-.2149.02148-.0143-.01432-.0358-.02148-.0644-.02148-.1146.02865-.1934.04297-.23637.04297-.15756.02864-.25065.04297-.2793.04297-.01432-.01433-.03581-.02149-.06445-.02149-.14323.04297-.23633.06446-.2793.06446s-.08594 0-.12891 0-.08593.00716-.1289.02148-.08594.02149-.12891.02149c-.22917.02864-.36523.04296-.4082.04296-.05729.01433-.11459.02149-.17188.02149-.05729-.01432-.11458-.00716-.17187.02148-.15755.10026-.25781.15755-.30078.17188-.17188.05729-.27214.0931-.30078.10742-.01433.01432-.03581.02865-.06446.04297-.02864.02864-.06445.05729-.10742.08594-.02865.01432-.07161.02864-.12891.04296-.11458.07162-.19336.10743-.23632.10743-.12891.11458-.20769.17903-.23633.19336-.01433 0-.03581.00716-.06446.02148l-.19335.19336-.17188.19336c-.08594.07161-.14323.12891-.17187.17187-.0573.10026-.10743.17188-.1504.21485-.02864.04297-.05729.10026-.08593.17187-.01433.04297-.02149.08594-.02149.12891s-.01432.07877-.04297.10742c-.01432.05729-.02864.10026-.04296.12891-.01433.02864-.03581.06445-.06446.10742-.04297.08594-.06445.15039-.06445.19336.01432.04297.01432.08594 0 .1289-.08594.15756-.12891.25782-.12891.30079 0 .04296-.01432.07877-.04297.10742 0 .08593-.02148.17187-.06445.25781-.02864.14323-.04297.26497-.04297.36523v.27927.2364c0 .0573.00716.1217.02149.1933.05729.1862.08593.3008.08593.3438.01433.0429.02149.0787.02149.1074.01432.0286.02864.0644.04297.1074.02864.043.04297.0859.04297.1289.05729.1146.09309.1862.10742.2149.01432.0143.02864.0358.04297.0644.05729.1289.10026.222.1289.2793.07162.1289.11459.2149.12891.2578.02864.043.05729.0788.08594.1074.10026.1146.14323.1791.1289.1934 0 .0143.01433.0358.04297.0645.11458.0859.17188.1432.17188.1718 0 .0287.01432.0502.04297.0645.07161.0286.1289.0859.17187.1719.04297.0859.10026.1575.17188.2148.14322.1146.22916.179.25781.1934.04297 0 .07877.0143.10742.0429.15755.1003.24349.1576.25781.1719.01433.0143.03581.0287.06446.043.11458.0716.17903.1074.19335.1074.02865-.0143.0573-.0072.08594.0215.15755.1002.26498.1647.32227.1933.08594.0573.14323.086.17187.086.02865-.0143.07162-.0072.12891.0215l.23633.0644c.1289.0287.20768.043.23633.043.04296-.0143.09309-.0215.15039-.0215h.32226c.11458 0 .22917-.0072.34375-.0215.02865-.0573.03581-.1146.02149-.1719 0-.0572.00716-.1145.02148-.1718 0-.043 0-.086 0-.1289.01432-.0573.02148-.1075.02148-.1504 0-.0573-.00716-.1074-.02148-.1504 0-.0573 0-.1146 0-.1719.01432-.2148.00716-.3652-.02148-.4512-.01433-.0859-.02149-.1718-.02149-.2578-.01432-.0716-.02148-.1432-.02148-.2148.01432-.0716.02148-.1504.02148-.2363-.01432-.043-.03581-.1218-.06445-.2364v-.2578c-.04297-.1432-.07162-.2363-.08594-.2793 0-.1719-.01432-.3008-.04297-.3867-.01432-.0573-.02864-.1146-.04297-.1719 0-.0573-.00716-.1146-.02148-.1719l-.04297-.2793c-.04297-.08589-.06445-.14318-.06445-.17183 0-.04297-.00716-.07877-.02149-.10742 0-.04297-.00716-.08594-.02148-.12891 0-.05729 0-.10026 0-.1289.02864-.14323.03581-.21485.02148-.21485 0 0 0-.00716 0-.02148.07162-.15755.17188-.27214.30078-.34375.07162.02865.14323.04297.21485.04297.08594-.01432.17184-.02149.25784-.02149.0716 0 .1432-.00716.2148-.02148s.1361-.01432.1934 0c.1289.02865.2077.04297.2363.04297.1576-.01432.2578-.01432.3008 0h.1719c.1432.01432.222.02148.2363.02148.0286-.01432.0573-.02148.0859-.02148.1433-.05729.222-.07878.2364-.06445h.3222l.2793-.02149c.086-.01432.1432-.01432.1719 0 .043.01432.0788.02149.1074.02149h.3438c.1575-.02865.2506-.03581.2793-.02149h.0859c.1289-.01432.2005-.01432.2148 0h.0645.1289c.0286-.01432.0788-.01432.1504 0 .1289.05729.1933.08594.1933.08594.0144 0 .0287.00716.043.02148.0287.02865.0645.05729.1074.08594.043.02865.0788.05729.1075.08594.0143.1289.0286.25781.0429.38672.0287.11458.043.22916.043.34375 0 .04296-.0143.12174-.043.23634-.0286.2148-.0429.3366-.0429.3652v.6016c0 .0286-.0072.0716-.0215.1289s-.0287.1074-.043.1504c-.043.2148-.0644.4082-.0644.5801-.0144.1289-.0215.2291-.0215.3007 0 .0573-.0072.1218-.0215.1934 0 .0859-.0143.2005-.043.3437v.4942c-.0143.2148-.0358.3652-.0644.4512 0 .0716.0071.136.0214.1933.0144.043.0215.1003.0215.1719v.3437c.0287.2006.043.3366.043.4082 0 .0573.0072.1146.0215.1719.043.1433.0573.2363.043.2793 0 .0287.0071.0716.0214.1289l.043.2364c-.0143.0716-.0143.1217 0 .1503.0143.0287.0287.0573.043.086.0143.1289.0143.2005 0 .2148v.043.1289c.0143.043.0215.0859.0215.1289 0 .0859-.0072.1719-.0215.2578-.0143.0716-.0287.1432-.043.2149-.1146.0859-.179.1217-.1934.1074-.0143 0-.0358.0071-.0644.0215-.1576.0429-.2936.0787-.4082.1074-.1146.043-.2292.0716-.3438.0859-.1575.0144-.2363.0144-.2363 0 0 0-.0071 0-.0215 0h-.4511c-.0573-.0143-.1146-.0286-.1719-.0429-.0573 0-.1289 0-.2149 0-.1002.0143-.1718.0143-.2148 0-.0287-.0144-.0645-.0215-.1074-.0215h-.2793l-.3008-.0215c-.043 0-.0931-.0072-.1504-.0215-.0573 0-.1074.0072-.1504.0215h-.2363-.2578c-.1862.0286-.3295.0501-.4297.0644-.086.0287-.16473.0573-.23634.086-.21485.043-.35808.0716-.42969.0859-.05729.0143-.12174.0215-.19336.0215-.11458.0143-.17904.0143-.19336 0-.01432 0-.03581 0-.06445 0-.07162.0143-.15039.0286-.23633.043-.07161.0286-.16471.0358-.2793.0215l-.30078.0214h-.4082c-.04297 0-.08594-.0071-.12891-.0214-.04297 0-.07877 0-.10742 0-.17187-.0573-.30078-.086-.38672-.086-.07161.0143-.14323.0072-.21484-.0215-.10026-.0143-.19336-.0358-.2793-.0644-.30078-.043-.49414-.0788-.58008-.1074-.1289-.0573-.20768-.086-.23632-.086-.01433.0143-.04297.0143-.08594 0-.11459-.0429-.20052-.0716-.25781-.0859-.0573-.0143-.10027-.0287-.12891-.043-.07162-.0286-.13607-.0501-.19336-.0644-.05729-.0287-.12175-.0717-.19336-.1289-.07161-.0287-.14323-.0502-.21484-.0645-.07162-.0286-.15039-.0573-.23633-.0859-.17188-.1146-.26498-.1791-.2793-.1934-.08594-.0573-.17187-.1003-.25781-.1289-.11458-.1146-.19336-.1934-.23633-.2363-.04297-.043-.0931-.0788-.15039-.1074-.15755-.1719-.24349-.2722-.25781-.3008-.05729-.043-.11459-.086-.17188-.1289-.04297-.043-.08593-.0931-.1289-.1504-.07162-.0716-.14323-.1433-.21485-.2149-.05729-.0716-.12174-.1504-.19336-.2363l-.17187-.1719-.19336-.2363-.12891-.2148c-.08593-.1433-.1289-.2221-.1289-.2364s-.00716-.0358-.02149-.0644c-.08594-.1576-.1289-.2507-.1289-.2793-.07162-.1289-.12891-.2005-.17188-.2149-.04297-.1146-.07878-.179-.10742-.1933-.01432-.0287-.02865-.0645-.04297-.1074-.02865-.1003-.05729-.1648-.08594-.1934-.01432-.0287-.02864-.0645-.04297-.1074-.02864-.0716-.05013-.1433-.06445-.2149 0-.0859-.01432-.1647-.04297-.2363-.05729-.1576-.0931-.2507-.10742-.2793-.02865-.2005-.05013-.3509-.06445-.4512-.01433-.1002-.02865-.179-.04297-.2363l-.04297-.2363c-.01432-.0716-.02148-.1218-.02148-.1504 0-.043-.00717-.0931-.021489-.1504-.014323-.1003-.021484-.1576-.021484-.1719.014322-.0286.014322-.0644 0-.1074-.014323-.1289-.021485-.1934-.021485-.1934.014323-.0143.021485-.0358.021485-.0644v-.2793c0-.0716 0-.15041 0-.23634 0-.10026-.014323-.16472-.042969-.19336 0-.02865 0-.08594 0-.17188s.007161-.15039.021484-.19336c-.042969-.04297-.071614-.08594-.085937-.1289 0-.04297 0-.10026 0-.17188 0-.10026 0-.19336 0-.2793 0-.10026.021484-.19336.064453-.27929.014323-.14323.021484-.21485.021484-.21485.014323-.01432.021485-.02864.021485-.04296.028645-.20053.042973-.32943.042973-.38672 0-.07162.01432-.15039.04296-.23633l.06446-.2793c.07161-.15755.10742-.23633.10742-.23633.01432-.04297.01432-.08593 0-.1289 0-.04297.00716-.08594.02148-.12891.04297-.07161.07162-.12174.08594-.15039.02865-.04297.05729-.0931.08594-.15039.05729-.17188.0931-.26497.10742-.2793.05729-.15755.08594-.23633.08594-.23633.01432-.01432.02148-.02864.02148-.04296.02865-.11459.05013-.17904.06446-.19336.02864-.01433.02864-.03581 0-.06446.07161-.11458.11458-.19336.1289-.23632.02865-.0573.05729-.10743.08594-.1504.10026-.14322.15039-.222.15039-.23632 0-.01433.01432-.03581.04297-.06446.11458-.14323.17903-.21484.19336-.21484.01432-.01432.02864-.03581.04297-.06445.11458-.14323.17903-.23633.19336-.2793.01432-.04297.0358-.07878.06445-.10742.04297-.05729.0931-.10742.15039-.15039.05729-.05729.11458-.11459.17187-.17188 0-.05729.01433-.10026.04297-.1289.04297-.02865.07878-.06446.10743-.10743.11458-.15755.20052-.25065.25781-.27929.1289-.11459.19336-.17904.19336-.19336.01432-.02865.0358-.04297.06445-.04297l.17188-.19336c.05729-.04297.10026-.07162.1289-.08594.04297-.02864.07878-.06445.10742-.10742.11459-.08594.17188-.12174.17188-.10742.01432.01432.03581.00716.06445-.02149.10026-.07161.17188-.12174.21485-.15039.04296-.02864.09309-.05729.15039-.08593.10026-.0573.17187-.10026.21484-.12891s.08594-.05729.12891-.08594c.02864-.02864.06445-.05729.10742-.08594.04297-.02864.0931-.04296.15039-.04296.17187-.10026.2793-.15756.32226-.17188.12891-.07161.21485-.12891.25782-.17187l.34375-.1504c.18619-.05729.3151-.10026.38672-.1289.08593-.02865.16471-.05729.23632-.08594.07162-.02864.14323-.05013.21485-.06445.08593-.02865.16471-.05729.23633-.08594.17187-.07161.29362-.10742.36523-.10742.10026-.01432.17187-.02865.21484-.04297s.08594-.02865.12891-.04297c.17187-.02864.27214-.04297.30078-.04297.02865-.01432.05013-.01432.06445 0 .14323-.07161.21485-.107419.21485-.107419.02864-.014323.06445-.014323.10742 0 .04297 0 .08594-.007162.12891-.021485.04296 0 .07877-.007161.10742-.021484.04297-.028646.0931-.042969.15039-.042969h.2793c.07161-.014323.13606-.007161.19335.021485.04297-.028646.08594-.035808.12891-.021485h.19336.15039c.05729-.014323.12179-.014323.19339 0 .0573.014323.1002.021485.1289.021485.0286-.014323.0644-.021485.1074-.021485.1146-.014323.179-.014323.1934 0 .0286.014323.0572.021485.0859.021485.1289-.028646.2005-.035808.2148-.021485h.0645c.1289-.014323.2148-.021484.2578-.021484.043-.014323.0788-.014323.1074 0 .0573.014323.1074.042969.1504.085937.0573.028644.1218.028644.1934 0 .1432-.028646.222-.042968.2363-.042968.0287-.014323.0573-.014323.0859 0 .0573.028645.1289.085932.2149.171872.0716.04297.1146.07878.1289.10742.0143.01433.0358.03581.0644.06446.1003.17187.1648.29362.1934.36523.0287.07162.043.15039.043.23633.0143.07161.0429.12891.0859.17188-.0143.10026-.0072.18619.0215.25781.043.05729.0716.13607.0859.23633l.0645.27929c.0143.04297.0215.0931.0215.15039.0143.04297.0358.08594.0644.12891l.086.30078c.0573.12891.0931.22201.1074.2793s.0358.11458.0644.17187c.043.08594.0717.16472.086.23633.0143.07162.0358.13607.0644.19336.043.08594.0716.16471.086.23633.0286.07161.0573.14323.0859.21484.043.10026.0645.17188.0645.21485 0 .04296.0071.08593.0214.1289.1289.27214.1934.52279.1934.75195zm14.2012-.45117c-.1289.07162-.2364.11459-.3223.12891-.1003 0-.1719-.00716-.2148-.02148-.0287-.02865-.0645-.04297-.1075-.04297-.0573-.01433-.1217-.02865-.1933-.04297-.0573-.01433-.1003-.03581-.1289-.06446-.086 0-.1791-.02148-.2793-.06445-.1433-.01432-.2149-.02148-.2149-.02148 0-.01433-.0071-.02149-.0215-.02149-.0572-.01432-.1289-.01432-.2148 0-.0859.01433-.1647.02149-.2363.02149-.0287 0-.0645-.00716-.1074-.02149-.043-.01432-.1003-.02148-.1719-.02148-.1146.01432-.2005.02148-.2578.02148-.0573-.01432-.1146-.02148-.1719-.02148-.1576.02864-.265.03581-.3223.02148-.0429-.02864-.0787-.04297-.1074-.04297-.1146.01433-.2148.02149-.3008.02149-.0859-.01432-.1647-.02149-.2363-.02149h-.4082c-.0716.01433-.1432.02865-.2149.04297-.0572 0-.1217-.00716-.1933-.02148-.1432-.01432-.2793-.02865-.4082-.04297s-.2578-.02149-.3867-.02149c-.086 0-.1719.00717-.2578.02149-.086 0-.1791.00716-.2793.02148-.043 0-.0931 0-.1504 0s-.1075.00717-.1504.02149c-.1576.07161-.265.11458-.3223.1289-.043 0-.0859.00717-.1289.02149-.0716.04297-.1146.14323-.1289.30078s-.0286.3151-.043.47266v.42968c.0144.15756.0358.31511.0645.47266.0573.12891.1002.19336.1289.19336.043-.01432.0788-.02149.1074-.02149.0859 0 .1361.00717.1504.02149h.0859c.0287.01432.0645.02148.1075.02148.0429 0 .0859.00717.1289.02149h.3222c.0573-.01432.1146-.00716.1719.02148.0716.01433.1289.02149.1719.02149s.0788-.00716.1074-.02149c.0573 0 .1146-.00716.1719-.02148.0716-.01432.136-.02149.1933-.02149.0717 0 .1361.00717.1934.02149.0573 0 .1289.00716.2148.02148.0717 0 .1218.00716.1504.02149.043 0 .0788-.00716.1075-.02149h.1289c.0429-.01432.0859-.02148.1289-.02148.2005-.01432.358-.03581.4726-.06446.1862.01433.2936.02149.3223.02149.043-.01432.1002-.02149.1719-.02149.1718-.02864.3079-.0358.4082-.02148.1002 0 .179-.01432.2363-.04297.043.01432.0859.02865.1289.04297s.0788.02148.1074.02148c.0287 0 .0645-.00716.1074-.02148.043-.02865.086-.04297.129-.04297.0429 0 .0859.01432.1289.04297.0429.01432.0931.00716.1503-.02148.129.02864.2077.05013.2364.06445.0286 0 .0573-.00716.0859-.02149.0143.04297.0358.07878.0645.10743.0286.01432.0573.04297.0859.08593.0573.22917.0859.39388.0859.49414 0 .08594-.0143.1862-.0429.30079-.0143.20052-.0287.32226-.043.36523s-.0358.0931-.0644.15039c-.043.11458-.0645.19336-.0645.23633.0143.02865.0143.05729 0 .08594-.0573.11458-.0859.19336-.0859.23632-.0144.17188-.043.28646-.086.34376 0 .04296-.0071.09309-.0215.15039-.0143.04296-.0143.09309 0 .15039-.0573.17184-.0859.28644-.0859.34374.0143.043.0143.0931 0 .1504-.0573.1146-.0931.1934-.1074.2363-.0143.0287-.0287.0573-.043.086-.043.1145-.1002.2291-.1719.3437-.1289.0716-.2076.1074-.2363.1074-.043 0-.0931 0-.1504 0-.043-.0143-.1002-.0215-.1719-.0215-.2005-.0143-.3222-.0286-.3652-.0429-.043-.0287-.0931-.043-.1504-.043-.1719.0287-.2793.0358-.3222.0215-.043-.0143-.0788-.0215-.1075-.0215-.1289 0-.2148-.0071-.2578-.0215-.0286-.0143-.0573-.0286-.0859-.0429-.1576 0-.2722.0071-.3438.0214-.0716 0-.1432-.0143-.2148-.0429-.1719.0143-.3008-.0072-.3867-.0645-.0716.0287-.1433.0358-.2149.0215-.0573-.0286-.1074-.0573-.1504-.0859-.1146 0-.2291 0-.3437 0-.1003-.0144-.2005-.0215-.3008-.0215-.1719-.0287-.2865-.0358-.3437-.0215-.043.0143-.0788.0215-.1075.0215-.0429.0143-.0859.0215-.1289.0215-.0429-.0144-.0859-.0215-.1289-.0215-.043.0143-.0859.0286-.1289.043-.0286 0-.0644-.0072-.1074-.0215 0 .0573-.0072.1146-.0215.1718 0 .0573.0072.1146.0215.1719.0716.1719.1002.2936.0859.3653-.0143.0572-.0215.1145-.0215.1718.0144.0573.0215.1433.0215.2578v.2364.1289c.0143.0286.0215.0644.0215.1074s-.0072.0859-.0215.1289v.1074c.0573.0287.1003.043.1289.043.043-.0143.1003-.0143.1719 0h.1289c.0573-.0143.1218-.0287.1934-.043h.1289c.0429-.0143.0788-.0215.1074-.0215.0716 0 .1289.0072.1719.0215.0573.0143.1074.0215.1504.0215h.1074c.043-.0143.0859-.0286.1289-.043.1003-.0143.1647-.0143.1934 0 .0429 0 .0859.0072.1289.0215.1432-.0143.222-.0215.2363-.0215h.1719c.0859 0 .1647.0072.2363.0215.1432.0287.222.043.2363.043.1576-.0287.2435-.0358.2578-.0215h.0645c.1719-.0286.2793-.0358.3223-.0215h.1074.6015c.1146-.0143.222-.0215.3223-.0215.1146-.0143.2148-.0358.3008-.0644l.3437-.043c.043.0143.0931.0143.1504 0 .0716-.0143.1218-.0286.1504-.043.1719-.0143.2793-.0358.3223-.0644.0573-.0286.1074-.043.1504-.043.0429-.0143.0787-.0215.1074-.0215.043 0 .0931-.0071.1504-.0214.1289-.0287.2148-.0645.2578-.1075.0573-.0429.1217-.0286.1934.043.1145.0573.1647.1146.1503.1719-.0143.0429-.0143.0716 0 .0859l.1075.2363c.0286.1003.0429.1648.0429.1934.0144.0143.0287.0501.043.1074v.8379l-.043.3867c.0287.1289.0358.2579.0215.3868v.3437c.0143.2148.0358.3796.0645.4941-.0143.1576-.0215.2937-.0215.4083.0143.1002.0286.1861.043.2578.0143.0859.0214.1575.0214.2148.0144.043.0072.1218-.0214.2363-.043.1003-.0717.1719-.086.2149-.0143.0429-.0429.0788-.0859.1074-.0287.1146-.086.1862-.1719.2148-.0859.0287-.2077.0502-.3652.0645-.086 0-.1719.0072-.2578.0215-.0717.0143-.1433.0143-.2149 0-.0573 0-.1146-.0072-.1719-.0215-.0572-.0143-.1217-.0215-.1933-.0215h-.3223c-.1002-.0286-.1719-.043-.2148-.043-.0287.0144-.0573.0144-.086 0-.1718-.0143-.2793-.0286-.3222-.0429-.043-.0143-.0788-.0287-.1075-.043-.1002-.0143-.1933-.0143-.2792 0-.086.0143-.1719.0215-.2579.0215-.1575 0-.2363 0-.2363 0 0 .0143-.0072.0215-.0215.0215-.1432.0143-.2363.0143-.2793 0-.0429-.0143-.0859-.0215-.1289-.0215-.0429 0-.0931 0-.1504 0-.0429.0143-.0859.0215-.1289.0215-.0429 0-.0859-.0072-.1289-.0215-.0429-.0143-.0859-.0215-.1289-.0215-.043-.0143-.0931-.0215-.1504-.0215-.0429.0143-.0931.0215-.1504.0215-.1289-.0143-.2005-.0215-.2148-.0215-.0143.0143-.0358.0215-.0645.0215-.2148.0143-.3652.0215-.4511.0215-.0717.0143-.1504.0143-.2364 0-.1145 0-.1862 0-.2148 0-.0143.0143-.0358.0286-.0645.043-.1289.0143-.2148.0143-.2578 0-.0286-.0144-.0573-.0215-.0859-.0215-.1576-.0143-.2435-.0143-.2578 0 0 .0143-.0215.0215-.0645.0215-.1862 0-.3079-.0072-.3652-.0215-.043 0-.1003.0071-.1719.0215h-.623c-.086-.0144-.1719-.0287-.2578-.043-.086 0-.1791-.0072-.2793-.0215h-.8164c-.1719 0-.265 0-.2793 0-.0144.0143-.0359.0215-.0645.0215h-.4082c-.1576.0286-.2435.0358-.2578.0215-.0143 0-.0287 0-.043 0-.0716 0-.1361 0-.1933 0-.043.0143-.1003.0215-.1719.0215-.1432 0-.2793 0-.4082 0-.1146 0-.2435-.0072-.3867-.0215-.0573 0-.1146-.0072-.1719-.0215-.043 0-.0931.0072-.1504.0215-.2578.0143-.4154-.0287-.4727-.1289-.0716-.1719-.1074-.2865-.1074-.3438-.043-.2291-.0788-.3437-.1074-.3437l.0215-.3438.0215-.2793c0-.1289 0-.2005 0-.2148.0143-.0143.0214-.0358.0214-.0645 0-.1289.0072-.2148.0215-.2578.0144-.043.0215-.0859.0215-.1289 0-.1289.0072-.2148.0215-.2578.0143-.0573.0215-.1218.0215-.1934 0-.1718.0071-.2721.0215-.3007.0143-.043.0143-.1003 0-.1719.0286-.1289.0429-.2149.0429-.2578 0-.0573.0072-.1146.0215-.1719.043-.1576.0716-.2435.086-.2578.0143-.1146.0143-.2292 0-.3438 0-.1146 0-.2291 0-.3437 0-.043.0071-.086.0214-.1289.0144-.043.0215-.086.0215-.1289 0-.0573-.0071-.1075-.0215-.1504 0-.0573.0072-.1074.0215-.1504.0287-.1719.0358-.2722.0215-.3008 0-.0286 0-.0573 0-.0859.0143-.1003.0215-.1719.0215-.2149.0143-.0573.0215-.1002.0215-.1289.0143-.1575.0215-.2363.0215-.2363.0143 0 .0215-.0072.0215-.0215-.0144-.1719-.0215-.2936-.0215-.3652.0143-.0716.0215-.1433.0215-.2149 0-.0429 0-.0859 0-.1289 0-.0573-.0072-.1002-.0215-.1289 0-.0859-.0072-.1575-.0215-.2148 0-.0573 0-.1146 0-.17191-.0143-.14323-.0215-.24349-.0215-.30078s0-.10742 0-.15039c.0143-.05729.0072-.10742-.0215-.15039.0287-.07161.043-.14323.043-.21484 0-.08594 0-.16472 0-.23633 0-.07162-.0072-.13607-.0215-.19336-.0143-.07161-.0215-.15039-.0215-.23633 0-.10026-.0071-.16471-.0215-.19336 0-.02864 0-.05729 0-.08593-.0286-.21485-.0286-.43685 0-.66602 0-.07162-.0071-.13607-.0215-.19336 0-.07161 0-.14323 0-.21484 0-.11459-.0071-.22201-.0214-.32227 0-.11458 0-.222 0-.32227 0-.21484 0-.35091 0-.4082.0143-.05729.0071-.11458-.0215-.17187.0286-.08594.0358-.17188.0215-.25782-.0144-.08593-.0215-.16471-.0215-.23632-.0143-.1862-.0143-.32943 0-.42969-.0143-.04297-.0215-.08594-.0215-.12891.0143-.04297.0215-.07877.0215-.10742 0-.05729-.0072-.11458-.0215-.17187 0-.0573.0143-.10743.043-.1504-.0287-.18619-.0502-.3151-.0645-.38671 0-.08594-.0072-.16472-.0215-.23633-.0143-.14323-.0358-.25065-.0644-.32227-.0287-.07161-.0287-.15755 0-.25781l-.0645-.30078c.0143-.1862.0143-.29362 0-.32227-.0286-.20052-.043-.32942-.043-.38672.0287-.21484.0359-.35091.0215-.4082 0-.05729.0287-.10742.086-.15039.0286-.08594.0501-.13607.0644-.15039.0287-.02865.0573-.05729.086-.08594.0573-.07161.1074-.1289.1504-.17187.0572-.04297.1002-.07162.1289-.08594.1145-.04297.222-.06445.3222-.06445.1433-.02865.2507-.04297.3223-.04297h.3652c.1576-.01432.2578-.01432.3008 0s.0788.02864.1074.04297h.5157c.2434-.02865.4511-.03581.623-.02149.1719 0 .3437.00716.5156.02149.043 0 .086.00716.1289.02148h.1289.2149c.0143-.01432.0286-.02148.0429-.02148.1719.04297.2937.06445.3653.06445.0859-.01432.1647-.01432.2363 0 .0716 0 .1432.00716.2149.02148h.2363c.0716.01433.1719.02149.3008.02149s.2291-.00716.3007-.02149c.129 0 .2006.00717.2149.02149h.043.1503c.043-.01432.086-.02149.129-.02149.1289-.01432.2721-.01432.4296 0h.5586l.4942-.02148c.0716-.02865.1289-.03581.1719-.02148h.1503.4942c.1289-.01433.2506-.02149.3652-.02149h.1934c.0143-.01432.0286-.02148.0429-.02148l.2364.04297c.1575.01432.2578.01432.3008 0 .0572-.01433.1002 0 .1289.04296.0429-.02864.1074-.04296.1933-.04296.1003 0 .1647.01432.1934.04296l.3222-.02148c.129-.01432.2149-.02865.2579-.04297l.2578-.02148c.1146-.01433.1933-.01433.2363 0 .043.01432.0931.02864.1504.04297.0573.01432.1074.01432.1504 0 .0573-.01433.1074-.01433.1504 0 .1862.08593.2936.13606.3222.15039.1289.11458.2149.20052.2578.25781.043.05729.0573.14323.043.25781-.0286.12891-.0358.22201-.0215.2793.0144.04297.0215.08594.0215.1289-.0573.20053-.0931.32227-.1074.36524-.0573.14323-.0931.23633-.1074.2793 0 .02864.0071.05729.0215.08593-.0573.15756-.086.25782-.086.30078.0143.04297.0143.08594 0 .12891 0 .04297-.0071.08594-.0215.12891 0 .02864-.0071.06445-.0214.10742l-.043.23633-.1289.90234c-.0143.07162-.0215.14323-.0215.21484 0 .0573-.0143.12175-.043.19336zm10.4414-4.662106c.1002 0 .1862-.007162.2578-.021485.0859-.014323.1862-.014323.3008 0 .1289-.071614.2148-.093099.2578-.064453.1002.014323.1647.021485.1933.021485.043-.014323.0788-.021485.1075-.021485.1575.057292.2578.085938.3007.085938.043-.014323.0788-.014323.1075 0 .1432.042968.2435.064453.3007.064453.0717 0 .1361.007161.1934.021484.2005.071615.3366.128907.4082.171875.1003.014323.1719.028644.2149.042964.0429.01433.0859.02865.1289.04297.1432.02865.2148.04297.2148.04297.0143 0 .0287.00716.043.02149.0573.02864.1289.05729.2148.08593.086.01433.1576.04297.2149.08594.0716 0 .136.00716.1933.02149.0573.01432.1218.0358.1934.06445.2005.08594.3294.13607.3867.15039s.1003.04297.1289.08594c.0716 0 .1432.0358.2148.10742.0717.05729.1576.08594.2579.08594.0716.08593.1647.14323.2793.17187.1289.08594.1933.13607.1933.15039.0287.02865.0645.05013.1074.06446.043.01432.0788.0358.1075.06445.1289.07161.222.13607.2793.19336.1575.10026.2578.17187.3007.21484.043.02865.086.05729.1289.08594.043.05729.086.10742.129.15039.0429.02865.0859.05729.1289.08594.1432.10026.2076.15755.1933.17187 0 0 .0072.00716.0215.02149.1289.11458.2005.17187.2148.17187.129.11459.2006.1862.2149.21485.1002.1289.1575.20052.1719.21484.0143 0 .0286.01432.0429.04297.0573.08594.1075.15039.1504.19336.1146.14323.2005.22916.2578.25781.086.12891.1504.22917.1934.30078.043.07162.1003.13607.1719.19336.0716.14323.1074.21484.1074.21484l.1719.19336c.0286.02865.0501.07162.0644.12891.0143.04297.0358.07878.0645.10742.0286.05729.0501.10026.0644.12891.0287.02864.0573.05729.086.08594.0573.1289.0859.19335.0859.19335.0143 0 .0215.00717.0215.02149.0716.12891.1217.222.1504.2793.0143.07161.0358.1289.0644.17187.0287.04297.043.10026.043.17188.043.07161.0716.14323.0859.21484.0144.07161.0358.14323.0645.21484.0716.14323.1074.22201.1074.23633.0143.01432.0215.02865.0215.04297.0573.12891.0788.22201.0644.2793v.17187c.0573.15755.0788.24349.0645.25781v.04297c.043.1862.0573.31511.043.38672 0 .05729.0071.12175.0215.19336.0429.44401.0501.82357.0214 1.13867v.17188c0 .04297-.0071.10026-.0214.17187-.0287.17191-.043.27211-.043.30081.0143.0143.0143.0358 0 .0644-.0573.2865-.1003.5085-.1289.666-.0287.1433-.0573.2865-.086.4297-.0429.1433-.0859.2865-.1289.4297-.0429.1289-.0787.2578-.1074.3867-.0859.2292-.1432.3796-.1719.4512-.0716.1719-.1145.2721-.1289.3008-.0143.0286-.0286.0573-.0429.0859l-.1504.2149c-.0716.1432-.1074.222-.1074.2363.0143 0 .0143.0072 0 .0215-.1003.1432-.1648.2435-.1934.3008-.0859.1432-.1289.2148-.1289.2148-.1862.2149-.3223.3652-.4082.4512-.0716.0859-.1504.179-.2363.2793-.129.1432-.2221.2363-.2793.2793-.0573.0429-.1075.0859-.1504.1289-.0573.0286-.1433.0859-.2578.1719-.086.1002-.1934.1862-.3223.2578-.1432.1289-.2435.2005-.3008.2148-.043.0143-.0859.0358-.1289.0645-.1289.1002-.2148.1647-.2578.1933-.0287.0143-.0573.043-.0859.086-.043-.0144-.086-.0072-.129.0214-.0429.0287-.0787.0502-.1074.0645-.1575.1003-.2506.1504-.2793.1504-.0143 0-.0358.0143-.0644.043-.086.0716-.1504.1074-.1934.1074-.0286 0-.0573.0143-.0859.0429-.0573.0287-.1146.0645-.1719.1075-.0573.0286-.1146.0573-.1719.0859-.0573.043-.1074.0716-.1504.0859-.0429 0-.0931.0144-.1504.043-.1002.0573-.1575.0931-.1718.1074 0 .0144-.0144.0215-.043.0215-.1432.0287-.222.043-.2363.043 0 .0143-.0072.0215-.0215.0215-.1576.0716-.2363.1074-.2363.1074-.1003.0286-.1862.0573-.2579.0859-.1575.0716-.2363.1075-.2363.1075-.0859.0429-.1575.0644-.2148.0644-.043 0-.0788.0072-.1074.0215-.1576.0286-.265.043-.3223.043-.043.0143-.0859.0214-.1289.0214-.1719.0144-.2865.0215-.3438.0215-.0429.0144-.0859.0287-.1289.043-.1432.0143-.222.0358-.2363.0645-.0716-.0144-.1647-.0215-.2793-.0215-.1862-.0144-.3008-.0144-.3437 0-.043.0143-.086.0215-.129.0215-.1145 0-.2434-.0144-.3867-.043-.1002.0143-.179.0143-.2363 0-.043-.0143-.1003-.0072-.1719.0215-.0573-.0287-.1146-.043-.1719-.043-.0429 0-.1002-.0072-.1718-.0215l-.2364-.0215c-.2148-.0143-.3724-.0429-.4726-.0859-.0287-.0143-.0645-.0215-.1074-.0215-.043.0143-.1003.0143-.1719 0-.2149-.043-.3581-.0788-.4297-.1074-.0573-.0287-.1217-.0573-.1934-.0859-.1145-.043-.2363-.0717-.3652-.086-.1002-.043-.1575-.0644-.1719-.0644-.0143.0143-.0358.0143-.0644 0-.1289-.0717-.2005-.1075-.2149-.1075-.0143.0144-.0358.0144-.0644 0-.1289-.0429-.2005-.0716-.2149-.0859-.0143-.0286-.0358-.0501-.0644-.0645-.1289-.0286-.2149-.0501-.2578-.0644-.043-.0143-.0788-.0287-.1074-.043-.129-.0573-.2077-.0931-.2364-.1074-.0143-.0143-.0429-.0286-.0859-.043-.1289-.0573-.2077-.0931-.2363-.1074-.0287-.0286-.0502-.0501-.0645-.0644-.1575-.0573-.2506-.0931-.2793-.1075-.0286-.0143-.0573-.0214-.0859-.0214-.0287-.043-.0645-.0717-.1074-.086-.043-.0286-.0788-.0573-.1075-.0859-.0429-.0287-.0859-.0573-.1289-.086-.0286-.0286-.0573-.0573-.0859-.0859-.086-.043-.1361-.0644-.1504-.0644-.0143-.0144-.0358-.0359-.0645-.0645-.1432-.1003-.222-.1504-.2363-.1504-.0143-.0143-.0358-.0286-.0644-.043-.1289-.0859-.1934-.1575-.1934-.2148-.1432-.0859-.2292-.1289-.2578-.1289-.0287-.0143-.0501-.0287-.0645-.043-.1002-.1146-.1575-.1647-.1718-.1504-.0144 0-.0215-.0071-.0215-.0215-.1003-.0859-.1647-.136-.1934-.1503-.0286-.0144-.0573-.0359-.0859-.0645-.086-.1146-.1576-.1862-.2149-.2148-.0286-.0287-.0573-.0573-.0859-.086-.0143-.0429-.0358-.0788-.0645-.1074-.0859-.0716-.1503-.1289-.1933-.1719-.0287-.0573-.0573-.1217-.086-.1933-.1002-.086-.1503-.1361-.1503-.1504 0-.0287-.0144-.0573-.043-.086-.0716-.1002-.1218-.1647-.1504-.1933-.0143-.043-.0286-.0788-.043-.1074-.0573-.1146-.0931-.1791-.1074-.1934s-.0358-.0358-.0644-.0645c-.0717-.1575-.1218-.2506-.1504-.2793-.0287-.0286-.0573-.0572-.086-.0859-.0716-.1719-.1146-.2721-.1289-.3008-.0143-.0286-.0358-.0573-.0644-.0859-.0287-.0716-.0502-.1361-.0645-.1934-.0143-.0716-.043-.136-.0859-.1933-.0287-.1003-.043-.1647-.043-.1934 0-.043-.0072-.0788-.0215-.1074-.0286-.0716-.0573-.1504-.0859-.2363-.0287-.1003-.0501-.2006-.0645-.3008-.0429-.2292-.0716-.3796-.0859-.4512-.0143-.0859-.0287-.1862-.043-.3008-.0286-.1432-.0429-.2291-.0429-.2578 0-.1432-.0072-.2363-.0215-.2793 0-.043 0-.0788 0-.10741-.0143-.21484-.0287-.35091-.043-.4082s-.0215-.12891-.0215-.21484c0-.14323.0072-.21485.0215-.21485.0287-.01432.0358-.02864.0215-.04297-.0287-.07161-.0358-.13606-.0215-.19335.0287-.07162.043-.14323.043-.21485-.0143-.11458-.0215-.19336-.0215-.23633.0143-.04297.0215-.08593.0215-.1289v-.2793c.0573-.21484.0859-.34375.0859-.38672.0143-.05729.0287-.12174.043-.19336l.0429-.23633c.043-.18619.0717-.29362.086-.32226.0716-.17188.1074-.26498.1074-.2793 0-.02864.0072-.05729.0215-.08594.0573-.11458.0931-.17903.1074-.19336.0143-.01432.0215-.0358.0215-.06445.0143-.04297.0143-.08594 0-.1289 0-.04297.0143-.08594.043-.12891.0859-.14323.1432-.22917.1718-.25781.0573-.11459.086-.1862.086-.21485 0-.02864.0071-.05729.0215-.08593.0286-.02865.0573-.06446.0859-.10743s.0573-.07877.0859-.10742c.0717-.14323.1218-.25781.1504-.34375.043-.08594.086-.16471.1289-.23633.0717-.10026.1003-.15755.086-.17187 0-.01432.0071-.02865.0215-.04297.1002-.12891.1575-.20052.1718-.21484.0144-.02865.0287-.0573.043-.08594.1003-.11459.1934-.20052.2793-.25781.1003-.15756.1647-.25066.1934-.2793.0286-.02865.0572-.05729.0859-.08594.043-.04297.0716-.10026.0859-.17187.1289-.12891.2077-.22201.2364-.2793.0429-.05729.0859-.11458.1289-.17188.1002-.11458.1718-.17903.2148-.19335.043-.01433.0716-.05014.0859-.10743l.2149-.10742c.1003-.05729.179-.11458.2363-.17187.0573-.0573.1361-.10026.2363-.12891.1576-.10026.2364-.14323.2364-.12891.0716-.05729.1146-.08593.1289-.08593.0286-.01433.0573-.02865.0859-.04297.086-.08594.1647-.14323.2363-.17188.129-.08594.2006-.1289.2149-.1289s.0358-.00717.0644-.02149c.1003-.05729.1648-.08594.1934-.08594.0287-.01432.0573-.0358.0859-.06445.1576-.07161.265-.1289.3223-.17187s.1218-.07878.1934-.10743c.1289-.02864.2005-.05013.2148-.06445.0143-.02864.0358-.02864.0645 0 .0286-.05729.0716-.08594.1289-.08594.0573-.01432.1217-.0358.1933-.064449.0716-.042969.1218-.064453.1504-.064453.0287 0 .0573-.007162.086-.021485.1145-.042969.2076-.057292.2793-.042969.0716 0 .1432-.007161.2148-.021484.1289-.028646.2077-.05013.2363-.064453.0287-.014323.0573-.021485.086-.021485.1432 0 .2363-.007161.2793-.021484.0429-.014323.0787-.021484.1074-.021484.1575-.014323.2435-.021485.2578-.021485.0286-.014323.0573-.021484.0859-.021484.1862 0 .3151-.007161.3868-.021484.2148-.028646.3867-.007162.5156.064453zm.4082 3.544926c-.1432.02864-.2292.02864-.2578 0-.1289.01432-.2149.0358-.2578.06445-.043.02864-.0788.05729-.1075.08594-.1146.05729-.2076.0931-.2793.10742-.0429.02864-.0931.05013-.1504.06445-.0429.01432-.0716.05729-.0859.12891-.1432.05729-.2363.10742-.2793.15039-.1289.08594-.2005.1289-.2148.1289 0 0-.0072.00717-.0215.02149-.086.07161-.1432.12174-.1719.15039-.0286.02865-.0573.05013-.0859.06445-.1003.05729-.1576.10026-.1719.12891 0 .01432-.0072.02864-.0215.04297-.0716.07161-.1146.12174-.1289.15039-.0143.01432-.0358.03581-.0644.06445l-.1719.21484c-.043.04297-.086.08594-.1289.12891-.043.04297-.0931.08594-.1504.12891l-.2363.25781c-.0717.12891-.1075.20052-.1075.21484-.1002.15756-.1575.23633-.1718.23633 0 0-.0072.00716-.0215.02149-.086.14323-.1433.25781-.1719.34375-.0716.10026-.1289.17903-.1719.23632-.0286.0573-.0573.11459-.0859.17188-.043.12891-.0645.20052-.0645.21484 0 .01433-.0071.02865-.0215.04297-.0716.14323-.1074.22917-.1074.25781.0143.01433.0143.03581 0 .06446-.0716.14323-.1146.222-.1289.23633-.0286.18619-.0501.30078-.0644.34375v.10742c-.0573.21484-.086.35807-.086.42968-.0143.07162-.0071.17904.0215.32227 0 .05729-.0072.11458-.0215.17188 0 .04296.0072.09309.0215.15039 0 .05729.0072.10744.0215.15034.0143.043.0286.0931.043.1504l.0429.2364c.0573.1575.0931.2721.1075.3437.0286.0573.0572.1146.0859.1719.0716.1719.1074.265.1074.2793s.0072.0358.0215.0644c.0286.0717.0788.1433.1504.2149.0286.0573.0501.1074.0644.1504.0287.0429.0573.0931.086.1504.1002.1432.1504.222.1504.2363.0143.0143.0286.0286.0429.043.1146.1432.1791.222.1934.2363.0143 0 .0286.0143.043.043.0286.0429.0644.0859.1074.1289.043.0429.0716.0931.0859.1504l.2149.1718c.1002.1003.1504.1719.1504.2149.1289.1002.2005.1504.2148.1504.1289.0859.2077.1289.2363.1289.1146.0859.1791.1432.1934.1718.0143.0144.0358.0287.0644.043.086.0573.1361.1003.1504.1289.0144.0287.0502.043.1075.043.0716.0716.1217.1217.1503.1504.0287.0143.0573.0286.086.0429.1719.1146.2864.1862.3437.2149.0717.0143.1218.043.1504.0859.0573.0144.1074.0287.1504.043s.0931.0358.1504.0645c.0859.0286.1504.0501.1934.0644.0573.0143.1002.0287.1289.043h.2363l.2793-.086c.1289-.0716.2005-.1002.2148-.0859.0287 0 .0502-.0072.0645-.0215.0859-.0286.1432-.043.1719-.043.0286-.0143.0644-.0286.1074-.0429.1146-.0573.179-.0931.1934-.1074.0143-.0287.0358-.0502.0644-.0645.1146-.0859.1719-.1289.1719-.1289 0-.0143.0071-.0215.0215-.0215.0429-.0573.0787-.1002.1074-.1289.043-.043.0859-.0859.1289-.1289.1003-.0859.1504-.1289.1504-.1289.0143 0 .0286-.0072.043-.0215.1289-.1003.2076-.1719.2363-.2148.0429-.043.0931-.086.1504-.1289.0859-.086.1575-.1433.2148-.1719.1003-.1003.1576-.1576.1719-.1719.0286-.0286.0573-.0644.0859-.1074.043-.0573.0788-.1074.1074-.1504.0573-.043.1075-.0859.1504-.1289.043-.043.0788-.0788.1075-.1074.0573-.1003.0931-.1719.1074-.2149.0286-.0429.0501-.0931.0644-.1504.043-.0143.0788-.0358.1075-.0644.0286-.0287.0572-.0573.0859-.086.0143-.0429.0286-.0787.043-.1074.0143-.0429.0286-.0859.0429-.1289.0573-.1146.0931-.2005.1075-.2578.0429-.1289.0644-.2363.0644-.3223l.043-.3007c.0286-.043.0501-.0788.0644-.1075.0287-.0429.043-.0859.043-.1289.0143-.0573.0143-.1146 0-.1718 0-.0717.0072-.1433.0215-.21489.043-.1862.0644-.30078.0644-.34375 0-.05729 0-.10742 0-.15039-.0286-.21485-.0429-.36524-.0429-.45117.0143-.08594.0143-.16472 0-.23633-.0144-.15755-.0358-.25781-.0645-.30078-.0143-.05729-.0286-.10742-.043-.15039-.0429-.17188-.0644-.29362-.0644-.36524-.0573-.14323-.1003-.22916-.1289-.25781.0143-.07161 0-.13607-.043-.19336-.043-.07161-.0788-.14323-.1074-.21484-.0287-.10026-.0501-.15756-.0645-.17188 0-.02864 0-.05013 0-.06445-.0716-.08594-.1145-.13607-.1289-.15039 0-.02865-.0143-.06445-.0429-.10742l-.1289-.25782c-.086-.15755-.1289-.25065-.1289-.27929.0143-.02865.0071-.05729-.0215-.08594-.1003-.11458-.1647-.17188-.1934-.17188l-.2148-.25781c-.1003-.15755-.1719-.25065-.2149-.27929-.0286-.04297-.0573-.07878-.0859-.10743-.1289-.1289-.2077-.20768-.2363-.23633-.043-.02864-.086-.05729-.1289-.08593-.0287-.02865-.0573-.05729-.086-.08594-.1432-.11458-.2363-.17904-.2793-.19336s-.0788-.03581-.1074-.06445c-.1003-.10026-.1576-.14323-.1719-.12891-.0143 0-.0358-.00716-.0644-.02148-.1003-.05729-.1934-.10026-.2793-.12891-.2292-.02865-.4011-.06445-.5157-.10742-.1002-.04297-.2076-.06445-.3222-.06445zm22.9668 1.56835c-.1003.11459-.1647.17904-.1934.19336-.0286 0-.043.01433-.043.04297-.0572-.02864-.1074-.05013-.1503-.06445-.043-.01432-.1003-.01432-.1719 0-.2865-.02865-.4727-.04297-.5586-.04297-.043 0-.0859.00716-.1289.02149-.043.01432-.086.02148-.1289.02148-.1576-.05729-.2435-.07878-.2578-.06445 0 .01432-.0072.02148-.0215.02148-.2435 0-.4798 0-.709 0s-.4512.00716-.666.02149c-.0716 0-.1361.00716-.1934.02148-.0429 0-.0931 0-.1504 0-.1146.01432-.1862.02148-.2148.02148-.0143-.01432-.0358-.02148-.0645-.02148-.1146.02865-.1933.04297-.2363.04297-.1575.02864-.2506.04297-.2793.04297-.0143-.01433-.0358-.02149-.0644-.02149-.1433.04297-.2364.06446-.2793.06446-.043 0-.086 0-.1289 0-.043 0-.086.00716-.129.02148-.0429.01432-.0859.02149-.1289.02149-.2291.02864-.3652.04296-.4082.04296-.0573.01433-.1145.02149-.1718.02149-.0573-.01432-.1146-.00716-.1719.02148-.1576.10026-.2578.15755-.3008.17188-.1719.05729-.2721.0931-.3008.10742-.0143.01432-.0358.02865-.0644.04297-.0287.02864-.0645.05729-.1075.08594-.0286.01432-.0716.02864-.1289.04296-.1145.07162-.1933.10743-.2363.10743-.1289.11458-.2077.17903-.2363.19336-.0143 0-.0358.00716-.0645.02148l-.1933.19336-.1719.19336c-.0859.07161-.1432.12891-.1719.17187-.0573.10026-.1074.17188-.1504.21485-.0286.04297-.0573.10026-.0859.17187-.0143.04297-.0215.08594-.0215.12891s-.0143.07877-.043.10742c-.0143.05729-.0286.10026-.0429.12891-.0143.02864-.0358.06445-.0645.10742-.0429.08594-.0644.15039-.0644.19336.0143.04297.0143.08594 0 .1289-.086.15756-.1289.25782-.1289.30079 0 .04296-.0144.07877-.043.10742 0 .08593-.0215.17187-.0645.25781-.0286.14323-.0429.26497-.0429.36523v.27927.2364c0 .0573.0071.1217.0215.1933.0572.1862.0859.3008.0859.3438.0143.0429.0215.0787.0215.1074.0143.0286.0286.0644.0429.1074.0287.043.043.0859.043.1289.0573.1146.0931.1862.1074.2149.0144.0143.0287.0358.043.0644.0573.1289.1003.222.1289.2793.0716.1289.1146.2149.1289.2578.0287.043.0573.0788.086.1074.1002.1146.1432.1791.1289.1934 0 .0143.0143.0358.0429.0645.1146.0859.1719.1432.1719.1718 0 .0287.0143.0502.043.0645.0716.0286.1289.0859.1718.1719.043.0859.1003.1575.1719.2148.1433.1146.2292.179.2578.1934.043 0 .0788.0143.1075.0429.1575.1003.2434.1576.2578.1719.0143.0143.0358.0287.0644.043.1146.0716.1791.1074.1934.1074.0286-.0143.0573-.0072.0859.0215.1576.1002.265.1647.3223.1933.0859.0573.1432.086.1719.086.0286-.0143.0716-.0072.1289.0215l.2363.0644c.1289.0287.2077.043.2363.043.043-.0143.0931-.0215.1504-.0215h.3223c.1146 0 .2291-.0072.3437-.0215.0287-.0573.0358-.1146.0215-.1719 0-.0572.0072-.1145.0215-.1718 0-.043 0-.086 0-.1289.0143-.0573.0215-.1075.0215-.1504 0-.0573-.0072-.1074-.0215-.1504 0-.0573 0-.1146 0-.1719.0143-.2148.0072-.3652-.0215-.4512-.0143-.0859-.0215-.1718-.0215-.2578-.0143-.0716-.0215-.1432-.0215-.2148.0144-.0716.0215-.1504.0215-.2363-.0143-.043-.0358-.1218-.0644-.2364v-.2578c-.043-.1432-.0716-.2363-.086-.2793 0-.1719-.0143-.3008-.0429-.3867-.0144-.0573-.0287-.1146-.043-.1719 0-.0573-.0072-.1146-.0215-.1719l-.043-.2793c-.0429-.08589-.0644-.14318-.0644-.17183 0-.04297-.0072-.07877-.0215-.10742 0-.04297-.0072-.08594-.0215-.12891 0-.05729 0-.10026 0-.1289.0287-.14323.0358-.21485.0215-.21485 0 0 0-.00716 0-.02148.0716-.15755.1719-.27214.3008-.34375.0716.02865.1432.04297.2148.04297.086-.01432.1719-.02149.2578-.02149.0717 0 .1433-.00716.2149-.02148s.1361-.01432.1934 0c.1289.02865.2076.04297.2363.04297.1575-.01432.2578-.01432.3008 0h.1718c.1433.01432.222.02148.2364.02148.0286-.01432.0573-.02148.0859-.02148.1432-.05729.222-.07878.2363-.06445h.3223l.2793-.02149c.0859-.01432.1432-.01432.1719 0 .0429.01432.0787.02149.1074.02149h.3437c.1576-.02865.2507-.03581.2793-.02149h.086c.1289-.01432.2005-.01432.2148 0h.0645.1289c.0286-.01432.0788-.01432.1504 0 .1289.05729.1933.08594.1933.08594.0143 0 .0287.00716.043.02148.0286.02865.0644.05729.1074.08594s.0788.05729.1074.08594c.0144.1289.0287.25781.043.38672.0287.11458.043.22916.043.34375 0 .04296-.0143.12174-.043.23634-.0286.2148-.043.3366-.043.3652v.6016c0 .0286-.0071.0716-.0214.1289-.0144.0573-.0287.1074-.043.1504-.043.2148-.0645.4082-.0645.5801-.0143.1289-.0215.2291-.0215.3007 0 .0573-.0071.1218-.0214.1934 0 .0859-.0144.2005-.043.3437v.4942c-.0143.2148-.0358.3652-.0645.4512 0 .0716.0072.136.0215.1933.0143.043.0215.1003.0215.1719v.3437c.0287.2006.043.3366.043.4082 0 .0573.0071.1146.0215.1719.0429.1433.0573.2363.0429.2793 0 .0287.0072.0716.0215.1289l.043.2364c-.0143.0716-.0143.1217 0 .1503.0143.0287.0286.0573.043.086.0143.1289.0143.2005 0 .2148v.043.1289c.0143.043.0214.0859.0214.1289 0 .0859-.0071.1719-.0214.2578-.0144.0716-.0287.1432-.043.2149-.1146.0859-.1791.1217-.1934.1074-.0143 0-.0358.0071-.0644.0215-.1576.0429-.2936.0787-.4082.1074-.1146.043-.2292.0716-.3438.0859-.1575.0144-.2363.0144-.2363 0 0 0-.0072 0-.0215 0h-.4512c-.0573-.0143-.1145-.0286-.1718-.0429-.0573 0-.1289 0-.2149 0-.1002.0143-.1719.0143-.2148 0-.0287-.0144-.0645-.0215-.1074-.0215h-.2793l-.3008-.0215c-.043 0-.0931-.0072-.1504-.0215-.0573 0-.1074.0072-.1504.0215h-.2363-.2578c-.1862.0286-.3295.0501-.4297.0644-.086.0287-.1647.0573-.2364.086-.2148.043-.358.0716-.4297.0859-.0572.0143-.1217.0215-.1933.0215-.1146.0143-.179.0143-.1934 0-.0143 0-.0358 0-.0644 0-.0716.0143-.1504.0286-.2364.043-.0716.0286-.1647.0358-.2792.0215l-.3008.0214h-.4082c-.043 0-.086-.0071-.1289-.0214-.043 0-.0788 0-.1075 0-.1718-.0573-.3007-.086-.3867-.086-.0716.0143-.1432.0072-.2148-.0215-.1003-.0143-.1934-.0358-.2793-.0644-.3008-.043-.4942-.0788-.5801-.1074-.1289-.0573-.2077-.086-.2363-.086-.0143.0143-.043.0143-.086 0-.1145-.0429-.2005-.0716-.2578-.0859s-.1002-.0287-.1289-.043c-.0716-.0286-.1361-.0501-.1933-.0644-.0573-.0287-.1218-.0717-.1934-.1289-.0716-.0287-.1432-.0502-.2148-.0645-.0717-.0286-.1504-.0573-.2364-.0859-.1718-.1146-.2649-.1791-.2793-.1934-.0859-.0573-.1718-.1003-.2578-.1289-.1146-.1146-.1933-.1934-.2363-.2363-.043-.043-.0931-.0788-.1504-.1074-.1576-.1719-.2435-.2722-.2578-.3008-.0573-.043-.1146-.086-.1719-.1289-.043-.043-.0859-.0931-.1289-.1504-.0716-.0716-.1432-.1433-.2148-.2149-.0573-.0716-.1218-.1504-.1934-.2363l-.1719-.1719-.1933-.2363-.1289-.2148c-.086-.1433-.1289-.2221-.1289-.2364s-.0072-.0358-.0215-.0644c-.086-.1576-.1289-.2507-.1289-.2793-.0717-.1289-.1289-.2005-.1719-.2149-.043-.1146-.0788-.179-.1074-.1933-.0144-.0287-.0287-.0645-.043-.1074-.0286-.1003-.0573-.1648-.0859-.1934-.0144-.0287-.0287-.0645-.043-.1074-.0287-.0716-.0501-.1433-.0645-.2149 0-.0859-.0143-.1647-.0429-.2363-.0573-.1576-.0931-.2507-.1075-.2793-.0286-.2005-.0501-.3509-.0644-.4512-.0143-.1002-.0287-.179-.043-.2363l-.0429-.2363c-.0144-.0716-.0215-.1218-.0215-.1504 0-.043-.0072-.0931-.0215-.1504-.0143-.1003-.0215-.1576-.0215-.1719.0143-.0286.0143-.0644 0-.1074-.0143-.1289-.0215-.1934-.0215-.1934.0143-.0143.0215-.0358.0215-.0644v-.2793c0-.0716 0-.15041 0-.23634 0-.10026-.0143-.16472-.043-.19336 0-.02865 0-.08594 0-.17188s.0072-.15039.0215-.19336c-.0429-.04297-.0716-.08594-.0859-.1289 0-.04297 0-.10026 0-.17188 0-.10026 0-.19336 0-.2793 0-.10026.0215-.19336.0644-.27929.0144-.14323.0215-.21485.0215-.21485.0143-.01432.0215-.02864.0215-.04296.0287-.20053.043-.32943.043-.38672 0-.07162.0143-.15039.0429-.23633l.0645-.2793c.0716-.15755.1074-.23633.1074-.23633.0143-.04297.0143-.08593 0-.1289 0-.04297.0072-.08594.0215-.12891.043-.07161.0716-.12174.0859-.15039.0287-.04297.0573-.0931.086-.15039.0573-.17188.0931-.26497.1074-.2793.0573-.15755.0859-.23633.0859-.23633.0144-.01432.0215-.02864.0215-.04296.0287-.11459.0502-.17904.0645-.19336.0286-.01433.0286-.03581 0-.06446.0716-.11458.1146-.19336.1289-.23632.0286-.0573.0573-.10743.0859-.1504.1003-.14322.1504-.222.1504-.23632 0-.01433.0143-.03581.043-.06446.1146-.14323.179-.21484.1933-.21484.0144-.01432.0287-.03581.043-.06445.1146-.14323.179-.23633.1934-.2793.0143-.04297.0358-.07878.0644-.10742.043-.05729.0931-.10742.1504-.15039.0573-.05729.1146-.11459.1719-.17188 0-.05729.0143-.10026.043-.1289.0429-.02865.0787-.06446.1074-.10743.1146-.15755.2005-.25065.2578-.27929.1289-.11459.1933-.17904.1933-.19336.0144-.02865.0359-.04297.0645-.04297l.1719-.19336c.0573-.04297.1002-.07162.1289-.08594.0429-.02864.0788-.06445.1074-.10742.1146-.08594.1719-.12174.1719-.10742.0143.01432.0358.00716.0644-.02149.1003-.07161.1719-.12174.2149-.15039.0429-.02864.0931-.05729.1504-.08593.1002-.0573.1718-.10026.2148-.12891s.0859-.05729.1289-.08594c.0287-.02864.0645-.05729.1074-.08594.043-.02864.0931-.04296.1504-.04296.1719-.10026.2793-.15756.3223-.17188.1289-.07161.2148-.12891.2578-.17187l.3438-.1504c.1862-.05729.3151-.10026.3867-.1289.0859-.02865.1647-.05729.2363-.08594.0716-.02864.1432-.05013.2148-.06445.086-.02865.1648-.05729.2364-.08594.1718-.07161.2936-.10742.3652-.10742.1003-.01432.1719-.02865.2149-.04297.0429-.01432.0859-.02865.1289-.04297.1718-.02864.2721-.04297.3007-.04297.0287-.01432.0502-.01432.0645 0 .1432-.07161.2148-.107419.2148-.107419.0287-.014323.0645-.014323.1075 0 .0429 0 .0859-.007162.1289-.021485.0429 0 .0787-.007161.1074-.021484.043-.028646.0931-.042969.1504-.042969h.2793c.0716-.014323.136-.007161.1933.021485.043-.028646.086-.035808.1289-.021485h.1934.1504c.0573-.014323.1217-.014323.1933 0 .0573.014323.1003.021485.129.021485.0286-.014323.0644-.021485.1074-.021485.1146-.014323.179-.014323.1933 0 .0287.014323.0573.021485.086.021485.1289-.028646.2005-.035808.2148-.021485h.0645c.1289-.014323.2148-.021484.2578-.021484.043-.014323.0788-.014323.1074 0 .0573.014323.1074.042969.1504.085937.0573.028644.1217.028644.1934 0 .1432-.028646.222-.042968.2363-.042968.0286-.014323.0573-.014323.0859 0 .0573.028645.1289.085932.2149.171872.0716.04297.1145.07878.1289.10742.0143.01433.0358.03581.0644.06446.1003.17187.1647.29362.1934.36523.0286.07162.043.15039.043.23633.0143.07161.0429.12891.0859.17188-.0143.10026-.0072.18619.0215.25781.0429.05729.0716.13607.0859.23633l.0645.27929c.0143.04297.0214.0931.0214.15039.0144.04297.0359.08594.0645.12891l.0859.30078c.0573.12891.0931.22201.1075.2793.0143.05729.0358.11458.0644.17187.043.08594.0716.16472.086.23633.0143.07162.0358.13607.0644.19336.043.08594.0716.16471.0859.23633.0287.07161.0573.14323.086.21484.0429.10026.0644.17188.0644.21485 0 .04296.0072.08593.0215.1289.1289.27214.1934.52279.1934.75195zm12.4609 6.08008c.0143.0716.0358.1217.0645.1504.0429.0286.0787.0644.1074.1074.0286.0287.043.0716.043.1289.0143.043.0286.0788.0429.1074.086.1146.1361.1862.1504.2149.0143.0143.0358.0358.0645.0644.1289.2292.2077.3653.2363.4082l.1289.2364c.0573.1575.1074.2649.1504.3222.0716.1719.1146.2578.1289.2578.1003.1003.1504.1648.1504.1934 0 .0143.0143.0287.043.043.0429.0286.0787.0716.1074.1289.0286.043.0573.0788.0859.1074.086.0859.1361.1432.1504.1719.0143.0286.0287.0644.043.1074.1146.1576.1862.265.2148.3223.043.0429.0788.0859.1074.1289.1003.1146.1504.179.1504.1933.1003.086.1647.1433.1934.1719.043.0143.0788.0358.1074.0645.043.1432.0788.2291.1074.2578.0717.0716.1218.136.1504.1933.043.0573.086.1146.1289.1719.043.0573.086.1074.1289.1504.043.043.0788.1003.1075.1719.0143.0716.0143.1432 0 .2148 0 .0716-.0072.1432-.0215.2149-.1289.1002-.2005.1575-.2149.1718-.1718.0573-.2578.086-.2578.086-.2005.0429-.3294.0573-.3867.0429-.0573 0-.1146.0072-.1719.0215-.0716 0-.1432 0-.2148 0-.0573 0-.1074.0072-.1504.0215-.1432-.0143-.2363-.0215-.2793-.0215-.043.0144-.0931.0215-.1504.0215-.2578-.043-.4297-.0644-.5156-.0644-.086.0143-.1934.0214-.3223.0214-.1575.0144-.2363.0215-.2363.0215 0 .0144-.0143.0215-.043.0215-.0573-.0143-.1074-.0215-.1504-.0215-.0429.0144-.0787.0215-.1074.0215-.2292-.0143-.4082-.0143-.5371 0h-.3223c-.1146-.0286-.2005-.043-.2578-.043-.0716-.0143-.1432-.0214-.2148-.0214-.0573.0143-.1218.0143-.1934 0-.1289-.0717-.222-.1075-.2793-.1075-.0716-.1145-.1504-.2148-.2363-.3007-.0859-.1003-.1576-.222-.2149-.3653-.1002-.0573-.1647-.1647-.1933-.3222-.0287-.086-.0645-.1648-.1074-.2364-.0287-.0859-.0573-.179-.086-.2793-.0429-.1575-.0716-.2506-.0859-.2793-.043-.0716-.0645-.1217-.0645-.1504 0-.0286-.0071-.0572-.0214-.0859-.0287-.043-.0502-.0788-.0645-.1074 0-.043-.0143-.0931-.043-.1504-.0286-.0859-.0501-.1432-.0644-.1719-.0143-.0286-.0358-.0573-.0645-.0859-.0573-.1003-.0931-.1576-.1074-.1719s-.0286-.0358-.043-.0644c-.0573-.1146-.0931-.1934-.1074-.2364-.0716-.1432-.1146-.222-.1289-.2363-.0573-.1003-.0931-.179-.1074-.2363-.0143-.0716-.0501-.1218-.1074-.1504-.0144-.0716-.0645-.1647-.1504-.2793-.0573-.1289-.1003-.2077-.1289-.2363-.0287-.0287-.0716-.0359-.1289-.0215-.0287-.1146-.086-.1504-.1719-.1075-.086.043-.1074.1218-.0645.2364-.0286.0716-.0358.1575-.0215.2578.0144.0859.0215.1719.0215.2578-.0143.0859-.0286.179-.0429.2793 0 .0859-.0072.1719-.0215.2578v.3008l-.043.3867c0 .1289-.0072.2149-.0215.2578-.0143.043-.0143.1003 0 .1719.0143.1719.0215.2578.0215.2578l.043.4082c.0143.043.0286.086.0429.1289.0144.043.0215.0788.0215.1074.0144.0717.0287.1433.043.2149.0143.0573.0072.1217-.0215.1933-.0573.1003-.0859.1576-.0859.1719s-.0072.0287-.0215.043c-.1146.1432-.1719.2077-.1719.1933 0-.0143-.0071-.0214-.0215-.0214-.1289.0429-.2005.0716-.2148.0859-.0143.0286-.0358.0501-.0645.0645-.1145.0429-.2005.0572-.2578.0429-.0429 0-.1002 0-.1718 0-.2006 0-.3366-.0071-.4083-.0215-.0572-.0143-.1217-.0071-.1933.0215-.1146-.0286-.2292-.0358-.3438-.0215-.1145.0144-.2363.0287-.3652.043-.1432.0143-.2865.0143-.4297 0-.1289 0-.2506.0143-.3652.043-.1576.0429-.2363.0573-.2363.0429 0 0-.0072 0-.0215 0-.1146.0287-.1862.0359-.2149.0215-.0143 0-.0358.0072-.0644.0215-.1146.0143-.1934.0215-.2364.0215-.0429 0-.0787 0-.1074 0-.1289.0143-.2435.0215-.3437.0215-.1003.0143-.1719.0215-.2149.0215-.1575-.0573-.2435-.086-.2578-.086-.0143.0144-.0286.0072-.043-.0215-.0716-.0143-.1289-.0358-.1718-.0644-.0287-.0287-.0788-.0573-.1504-.0859l-.1289-.2149c-.1003-.1003-.1504-.1647-.1504-.1934 0-.0286-.0143-.0572-.043-.0859-.0143-.0573-.0286-.1002-.043-.1289 0-.043-.0071-.0859-.0214-.1289-.0144-.0859-.0215-.1432-.0215-.1719 0-.0429 0-.0788 0-.1074-.0143-.043-.0215-.1003-.0215-.1719 0-.0859 0-.1432 0-.1718 0-.0573 0-.1003 0-.129.0143-.0429.0215-.0859.0215-.1289 0-.0286 0-.0644 0-.1074 0-.0573.0071-.1002.0215-.1289.0573-.1719.0859-.2721.0859-.3008 0-.0286.0072-.0644.0215-.1074 0-.0286 0-.0788 0-.1504s.0071-.1289.0215-.1719c.0286-.1432.0358-.2363.0215-.2793 0-.0429.0071-.0787.0214-.1074.0144-.0859.0215-.1575.0215-.2148.0143-.0716.0358-.1218.0645-.1504-.0287-.0716-.043-.1504-.043-.2363.0143-.086.0215-.1648.0215-.2364 0-.1575 0-.3079 0-.4511.0143-.1433.0215-.2722.0215-.3868 0-.1002 0-.179 0-.2363s0-.1146 0-.1719c.0143-.0573.0215-.1145.0215-.1718.0143-.1003.0143-.1934 0-.2793 0-.086.0071-.1862.0214-.3008 0-.0716.0144-.1361.043-.1934.0287-.0716.043-.1432.043-.2148l-.0215-.6875v-.45119-.30078-.34375-.34375c-.0286-.08594-.043-.15755-.043-.21484.0144-.07162.0072-.12891-.0215-.17188.043-.07161.0502-.14323.0215-.21484-.0143-.07162-.0215-.14323-.0215-.21485v-.5371c-.0143-.11459-.0214-.19336-.0214-.23633-.043-.11459-.0645-.17904-.0645-.19336.0143-.01432.0215-.02865.0215-.04297 0-.15755 0-.24349 0-.25781l-.0215-.25782c0-.07161 0-.13606 0-.19335.0143-.07162.0215-.1504.0215-.23633.0143-.11459.0143-.17904 0-.19336-.0143-.01433-.0215-.03581-.0215-.06446.0143-.18619.0143-.30078 0-.34375 0-.05729 0-.10742 0-.15039s0-.10026 0-.17187c.0143-.07162.0143-.14323 0-.21484.0143-.10027.0072-.19336-.0215-.2793-.0143-.08594-.0358-.17188-.0644-.25781 0-.10026-.0072-.15756-.0215-.17188-.0143-.02865-.0215-.05013-.0215-.06445-.0286-.08594-.043-.16472-.043-.23633 0-.08594 0-.19336 0-.32227 0-.05729 0-.12174 0-.19336 0-.07161-.0143-.1289-.0429-.17187.0143-.04297.0143-.08594 0-.12891-.0144-.04297-.0144-.07877 0-.10742 0-.04297 0-.08594 0-.1289.0143-.04297.0214-.08594.0214-.12891 0-.11458.0072-.20052.0215-.25781.043-.27214.086-.4655.1289-.58008.043-.04297.0788-.08594.1075-.12891.0286-.04297.0573-.08594.0859-.1289.1432-.11459.222-.17904.2363-.19336.0287-.01433.0573-.03581.086-.06446.1145-.02864.179-.05013.1933-.06445.0287-.02865.0645-.04297.1074-.04297.0287 0 .0645.00716.1075.02149h.1289c.0716-.01433.136-.02149.1933-.02149.0573-.01432.1218-.02148.1934-.02148s.1361.00716.1934.02148c.0572.01432.1217.02149.1933.02149.0716.01432.1361.01432.1934 0 .0716-.01433.1432-.01433.2148 0 .1146.01432.1934.02148.2363.02148.0573-.01432.1075-.02148.1504-.02148.0573.01432.1075.02864.1504.04296.0573.01433.1218.02865.1934.04297h.1074c.043-.01432.0859-.02148.1289-.02148.1003-.01432.1576-.01432.1719 0h.0644c.1719-.02865.2722-.03581.3008-.02149h.1289.1719c.0143-.01432.0358-.02148.0645-.02148.1289.02865.2076.05013.2363.06445h.0859c.0573-.01432.1146-.02864.1719-.04297.0573-.01432.1289-.01432.2148 0 .086.01433.1433.01433.1719 0 .043-.01432.0788-.02864.1074-.04296.1003.01432.1862.02148.2578.02148.086-.01432.1576-.02148.2149-.02148.2005.02864.3294.04296.3867.04296s.1576-.01432.3008-.04296h.2793l.4082-.06446h.2578c.043-.01432.0931-.02148.1504-.02148.0286 0 .0644.00716.1074.02148h.1289c.2149-.02864.3509-.0358.4082-.02148.0716.01432.1504.01432.2364 0 .0429 0 .0859-.00716.1289-.02149.0429-.01432.0931-.00716.1504.02149h.1074c.0286-.01432.0716-.02149.1289-.02149h.1933c.0573 0 .1218.00717.1934.02149.2292.01432.4225.05729.5801.1289.0573.02865.1074.04297.1504.04297.0573 0 .1002.00716.1289.02149l.4941.23633c.0287.07161.0788.15039.1504.23632.0287.02865.0573.06446.0859.10743.0287.04296.0645.07877.1075.10742.0859.14323.1432.222.1718.23633.0717.07161.1361.15755.1934.25781.0716.08594.1432.16471.2148.23633 0 .04297.0072.08593.0215.1289s.0287.07878.043.10742c.0286.0573.0573.10743.0859.15039.043.04297.0645.10027.0645.17188.0716.07161.1289.15039.1719.23633.0429.08594.1002.16471.1718.23633 0 .04296.0144.08593.043.1289.0287.02865.0501.06446.0645.10742.0859.11459.1289.19336.1289.23633.0573.08594.0931.14323.1074.17188.0286.02864.0573.06445.0859.10742.0716.11458.1074.17904.1074.19336s.0072.02864.0215.04297c.1003.17187.1647.27929.1934.32226.043.02865.0788.07162.1074.12891l.0859.23633c.0717.05729.1146.11458.129.17187.0286.04297.0572.08594.0859.12891.0286.05729.0501.11458.0644.17187.0287.04297.0573.10026.086.17188.0716.15755.1002.25065.0859.2793 0 .02864.0072.05729.0215.08593.0143.07162.0215.12891.0215.17188s.0072.10026.0215.17187l.0215.25782c.0143.08593.0286.14322.0429.17187s.0215.05729.0215.08594l-.0215.23633c.0143.15755.0072.26497-.0215.32226-.0286.04297-.0501.07878-.0644.10742-.043.17188-.0716.27214-.0859.30079-.0144.01432-.0287.04296-.043.08593l-.1074.21485c-.0573.14323-.0931.222-.1075.23632v.02149c-.0859.11458-.1504.19336-.1933.23633-.0287.04297-.0502.08593-.0645.1289 0 .02865-.0143.07162-.0429.12891-.0573.04297-.0931.08594-.1075.12891-.0143.04296-.0358.07877-.0644.10742-.043.10026-.1003.1862-.1719.25781s-.1289.16471-.1719.27925c-.1146.1003-.1933.1791-.2363.2364-.0286.0429-.0644.0931-.1074.1504-.0287.0286-.0573.0573-.086.0859-.0286.0286-.0572.0573-.0859.0859-.1003.1433-.1575.2149-.1719.2149-.0143 0-.0286.0071-.0429.0215-.086.1002-.1289.1718-.1289.2148-.1433.0716-.222.1146-.2364.1289 0 0-.0071 0-.0215 0-.0286.0287-.0572.0573-.0859.086-.0286.0143-.0644.0358-.1074.0644-.1289.0859-.2077.1361-.2363.1504-.0287.0143-.0573.0358-.086.0645-.1146 0-.2005.0286-.2578.0859-.043.0573-.1146.1074-.2148.1504-.043.0286-.0931.0501-.1504.0644-.0573 0-.1218.0144-.1934.043zm-4.2969-2.32031c.1433.02865.2364.02865.2793 0 .043-.04297.0931-.07878.1504-.10742.043-.02865.086-.05729.1289-.08594.043-.04297.086-.07161.1289-.08594.1146-.04297.1719-.07877.1719-.10742.0143-.02864.0358-.05729.0645-.08594.1289-.07161.1862-.11458.1718-.1289-.0143-.01432-.0071-.02865.0215-.04297.086-.04297.1361-.07878.1504-.10742.0143-.02865.0358-.04297.0645-.04297.0716-.12891.1575-.20768.2578-.23633.043-.07161.0931-.12891.1504-.17187.0573-.04297.1217-.08594.1933-.12891.1289-.07162.2077-.12175.2364-.15039.1432-.10026.2148-.14323.2148-.12891.0143 0 .0287-.00716.043-.02148.0286-.08594.0716-.15755.1289-.21485.0573-.07161.1002-.15755.1289-.25781.043-.08594.0573-.17187.043-.25781 0-.08594-.0072-.15039-.0215-.19336-.0573-.07161-.086-.11458-.086-.12891 0-.02864-.0071-.05729-.0215-.08593-.0572-.15756-.0931-.24349-.1074-.25782 0-.01432 0-.02864 0-.04297-.1289-.22916-.2148-.37239-.2578-.42968-.1002-.15755-.1504-.25065-.1504-.2793 0-.04297-.0071-.07878-.0215-.10742-.0859-.11458-.1289-.19336-.1289-.23633-.0859-.08594-.1432-.17187-.1718-.25781-.0144-.08594-.0502-.16472-.1075-.23633-.0429-.15755-.0644-.23633-.0644-.23633-.0287-.07161-.0573-.14323-.086-.21484-.0286-.07162-.0501-.14323-.0644-.21485-.0573-.02864-.0931-.06445-.1074-.10742-.0144-.04297-.0358-.07877-.0645-.10742-.1002-.10026-.179-.17187-.2363-.21484-.043-.05729-.0931-.10743-.1504-.15039-.1003-.10026-.1504-.15039-.1504-.15039 0-.01433-.0072-.02865-.0215-.04297-.2291-.11459-.3939-.14323-.4941-.08594l-.2363.10742c-.0573.10026-.0931.1862-.1075.25781-.0429.12891-.0644.22917-.0644.30079.0143.05729.0143.12174 0 .19335 0 .0573-.0072.12175-.0215.19336 0 .0573.0072.10743.0215.15039.0143.1862.0143.30795 0 .36524-.0143.04297-.0287.10026-.043.17187 0 .11459-.0072.17904-.0215.19336v.06446.23632c0 .07162-.0071.14323-.0215.21485-.0429.15755-.0644.27213-.0644.34375.0143.07161.0143.15039 0 .23633-.043.24349-.0645.4082-.0645.49414v.23632c.0144.12891.0144.20769 0 .23633v.04297.25781c.0144 0 .0215.00717.0215.02149v.4082.15039c.0143.02865.0215.05729.0215.08594-.043.17187-.0644.30794-.0644.4082.0143.08594.0071.16472-.0215.23633.0429.14323.0644.23633.0644.2793.086.08594.1361.15039.1504.19336.0287.02864.0573.05729.0859.08594zm25.459 7.24021c-.0859.043-.1719.0716-.2578.086-.0859.0143-.179.0286-.2793.0429-.043-.0286-.0859-.0358-.1289-.0215-.0286 0-.0788-.0071-.1504-.0214-.1289 0-.2005.0071-.2148.0214 0 0-.0072 0-.0215 0-.0573.0144-.1576.0359-.3008.0645-.0716.0143-.1361.0286-.1934.043-.0572.0143-.1217.0286-.1933.0429-.1146.0144-.2292.0144-.3438 0-.1145 0-.2291 0-.3437 0-.1003.0144-.2435.0144-.4297 0-.1862-.0143-.3366-.0071-.4512.0215-.1146-.0286-.1933-.0429-.2363-.0429-.0286.0143-.0573.0214-.0859.0214h-.3223c-.1432-.0143-.2363-.0214-.2793-.0214-.043.0143-.0859.0214-.1289.0214-.2578.0287-.4082.0502-.4512.0645-.2291 0-.3795-.0072-.4511-.0215-.129-.0286-.2077-.0501-.2364-.0644-.0286-.0144-.0573-.0359-.0859-.0645-.1146-.0573-.1719-.1003-.1719-.1289 0-.0287-.0143-.043-.043-.043-.0286-.0859-.0501-.179-.0644-.2793 0-.1146-.0072-.2291-.0215-.3437-.0143-.0573-.0358-.1576-.0644-.3008 0-.0573 0-.1146 0-.1719.0143-.0573.0143-.1217 0-.1933-.043-.1289-.0788-.265-.1075-.4082-.0429-.1433-.0644-.222-.0644-.2364 0-.0286-.0072-.0501-.0215-.0644-.1576.0286-.2363.0429-.2363.0429-.1003.0717-.1719.1218-.2149.1504-.0286.0144-.0358.0502-.0215.1075-.1002 0-.1718.0501-.2148.1503-.1146.1433-.1719.2221-.1719.2364s-.0143.0358-.043.0644c-.0286.0573-.0716.1146-.1289.1719-.0429.043-.0787.0859-.1074.1289-.0716.0573-.1432.1361-.2148.2363-.0287.043-.0645.0931-.1074.1504-.0287.043-.0645.0931-.1075.1504-.0859.1146-.136.1862-.1504.2149 0 .0143-.0071.0286-.0214.0429-.1003.1146-.1576.1791-.1719.1934-.0143 0-.0287.0072-.043.0215-.0573.0573-.1146.1002-.1719.1289-.0429.0286-.0787.0501-.1074.0644-.2291 0-.3939-.0286-.4941-.0859-.043-.0286-.086-.0573-.1289-.0859-.0287-.0287-.0716-.0573-.1289-.086-.1433-.1575-.222-.2435-.2364-.2578-.0716-.1002-.1074-.1575-.1074-.1719 0-.0143-.0071-.0286-.0215-.0429-.0859-.1146-.1289-.1791-.1289-.1934s-.0071-.0286-.0215-.043c-.1289-.2005-.2649-.3724-.4082-.5156l-.1718-.1933c-.0573-.1146-.0931-.1791-.1075-.1934 0-.0286-.0071-.0501-.0214-.0645-.129-.1289-.2221-.2148-.2793-.2578-.1719-.0573-.2722-.0859-.3008-.0859-.0287.0573-.0573.1146-.086.1719-.0286.0429-.0573.0931-.0859.1504l-.1074.2793c-.0716.1145-.1074.1862-.1074.2148s-.0072.0573-.0215.0859c-.0716.1719-.1074.308-.1074.4082-.086.2149-.1648.3868-.2364.5157-.0573.1289-.136.2435-.2363.3437-.1146.0716-.2507.1218-.4082.1504-.1576.043-.3008.0287-.4297-.043h-.6016c-.1002 0-.1647-.0071-.1933-.0214-.0143 0-.0358 0-.0645 0-.1718.0286-.2793.0358-.3222.0214-.0287 0-.0645 0-.1075 0-.0286.0144-.0716.0144-.1289 0-.0429 0-.0787 0-.1074 0h-.4941c-.0573 0-.1146 0-.1719 0-.043.0144-.0931.0144-.1504 0-.1432 0-.222 0-.2363 0-.0143.0144-.0358.0215-.0645.0215-.1575.0143-.2506.0215-.2793.0215-.0859.0143-.1504.0215-.1933.0215-.0287.0143-.0788.0215-.1504.0215-.0716.0143-.1576.0071-.2578-.0215-.086-.0143-.1504-.0072-.1934.0215-.043-.0287-.0859-.0502-.1289-.0645-.0286 0-.0573-.0143-.0859-.0429-.1146-.1003-.1791-.1504-.1934-.1504-.1575-.1719-.2506-.2793-.2793-.3223.0143-.0573.0143-.1074 0-.1504-.0286-.043-.043-.0788-.043-.1074l.043-.2363c.0143-.0573.0358-.1003.0645-.1289.0143-.0287.0143-.0717 0-.129.0429-.0572.0787-.1145.1074-.1718.0286-.0573.0573-.1146.0859-.1719.0287-.0573.043-.1003.043-.1289.0143-.043.0358-.0931.0644-.1504l.1075-.2148c.0716-.129.1074-.2149.1074-.2579.0716-.1575.1146-.2434.1289-.2578.0286-.0143.0286-.0358 0-.0644.1003-.1289.1575-.222.1719-.2793.0143-.0716.0286-.1289.0429-.1719.043-.1575.0717-.2506.086-.2793.0716-.1575.1074-.2363.1074-.2363.0286-.086.0501-.1361.0644-.1504.0144-.0143.0287-.0358.043-.0645.0716-.1575.1074-.2435.1074-.2578.0144-.1289.043-.2148.086-.2578.0573-.0573.0716-.1146.0429-.1719.0287-.0286.043-.0644.043-.1074.0143-.043.0358-.0859.0645-.1289.0286-.0573.0501-.1146.0644-.1719s.0358-.1146.0645-.1718c.0573-.1146.0859-.2077.0859-.2793l.1074-.2149c.0287-.1146.043-.1719.043-.1719.0143-.0143.0286-.0358.043-.0644.0143-.043.0215-.0788.0215-.1074.0143-.043.0286-.0931.0429-.1504.0716-.1576.1074-.2507.1074-.2793 0-.0287.0144-.0502.043-.0645.0716-.1862.1074-.2936.1074-.3222 0-.043.0072-.0788.0215-.1075.0287-.0716.0573-.1504.086-.23629.1145-.21484.179-.36523.1933-.45117s.0358-.17904.0645-.2793c.0429-.15755.0787-.25065.1074-.2793.0573-.17187.0859-.27213.0859-.30078 0-.02864.0072-.05729.0215-.08594.0143-.05729.0215-.10742.0215-.15039.0143-.05729.0286-.12174.043-.19335.0429-.12891.0716-.20769.0859-.23633l.0859-.23633c.043-.04297.0645-.07878.0645-.10742.0143-.04297.0286-.07878.043-.10742.0716-.21485.1289-.35092.1718-.40821.043-.07161.0788-.15039.1075-.23633.0143-.04296.0286-.08593.0429-.1289.0144-.05729.043-.10026.086-.12891.0286-.1862.0429-.2793.0429-.2793.0573-.11458.086-.17903.086-.19335 0-.01433.0071-.02865.0215-.04297.0429-.08594.0644-.13607.0644-.15039 0-.02865.0143-.0573.043-.08594.0429-.11459.0644-.17904.0644-.19336.0144-.01432.0215-.03581.0215-.06445.0287-.0573.0501-.10743.0645-.15039.0143-.04297.0358-.07878.0644-.10743.0287-.14323.043-.21484.043-.21484.0143 0 .0215-.00716.0215-.02149.0429-.14322.0788-.24348.1074-.30078.0716-.15755.1146-.25065.1289-.27929.1003-.28646.1576-.4655.1719-.53711.0286-.1862.0501-.30795.0644-.36524.0573-.11458.086-.18619.086-.21484s.0071-.05729.0215-.08594c.0572-.1289.0931-.20052.1074-.21484.0143-.02865.0286-.05729.0429-.08594.086-.22917.129-.34375.129-.34375.0859-.17187.136-.27213.1503-.30078.0144-.04297.0358-.07878.0645-.10742.0859-.14323.1432-.22917.1719-.25781.0859-.10027.1432-.17904.1718-.23633l.3008-.30078.2149-.12891c.1146-.05729.1933-.0931.2363-.10742.043-.01433.0859-.02149.1289-.02149.1719-.02864.2793-.04297.3223-.04297.0429-.01432.0859-.02148.1289-.02148.1432.04297.2363.06445.2793.06445h.1074c.1003.05729.1934.08594.2793.08594.1575.07162.2435.10742.2578.10742.1432.01433.2292.02149.2578.02149.0287 0 .0573.01432.086.04297.1718.04296.2864.05013.3437.02148.1576.07161.2435.10742.2578.10742s.0358.00716.0645.02149c.1002.04296.1647.06445.1933.06445.043-.01432.086-.02149.1289-.02149.0717-.01432.1361-.02148.1934-.02148.0573-.01432.1217-.02865.1934-.04297.1575-.02864.2506-.05013.2793-.06445.0429-.02865.0859-.05013.1289-.06445.1432-.04297.2148-.06446.2148-.06446.0143-.01432.0286-.02148.043-.02148.0429-.01432.0859-.02149.1289-.02149h.1504c.1432-.01432.2291-.0358.2578-.06445.1719-.02865.3509-.02865.5371 0 .2435.04297.4297.06445.5586.06445.1289-.01432.222.02149.2793.10743.1002.08593.1719.15039.2148.19335.0716.04297.1218.12175.1504.23633.0287.10026.0645.1862.1074.25782.0573.10026.086.17187.086.21484.0143.04297.0286.07878.0429.10742.0144.10026.0287.15755.043.17188.0143.01432.0215.0358.0215.06445.043.1862.0716.30078.0859.34375.0144.04297.0215.08594.0215.12891.0143.02864.0287.06445.043.10742.043.20052.0716.32942.0859.38672.0287.05729.0502.12174.0645.19336.0143.07161.0286.13606.0429.19336.0144.05729.0144.11458 0 .17187.0573.21484.0931.35091.1075.4082.0143.05729.0358.12175.0644.19336.043.1862.0645.30795.0645.36524.0143.05729.0286.12174.0429.19336.0717.17187.1075.27929.1075.32226 0 .02865.0071.06445.0214.10742l.129.36524c.0429.14323.0572.25065.0429.32226 0 .0573.0143.10026.043.12891 0 .07161.0286.17904.0859.32227.086.18619.1218.3151.1075.38671 0 .07162.0143.13607.0429.19336.0143.08594.043.16472.086.23633.0572.11459.0859.19336.0859.23633s.0072.08594.0215.12891c.0573.11458.0859.19336.0859.23632.043.10026.0931.19336.1504.2793.0287.02865.043.07162.043.12891 0 .04297.0071.08594.0215.1289.0573.1862.0859.30795.0859.36524.0143.05729.0358.11458.0645.17187.0143.05729.0286.11459.0429.17188.0143.04297.0358.10026.0645.17187.0429.11459.0644.179.0644.1934.0143 0 .0215.0143.0215.0429.0716.1576.1218.265.1504.3223.0143.0286.0215.0716.0215.1289 0 .043.0143.0788.043.1074.0143.043.0286.1003.0429.1719.0143.0573.0215.1003.0215.1289.0573.1289.0859.222.0859.2793.0144.043.0359.0931.0645.1504.0286.043.043.0931.043.1504.0143.0573.0358.1146.0644.1719.0573.1002.086.1647.086.1933 0 .0287.0071.0573.0214.086.0717.1145.1075.1862.1075.2148 0 .0143.0143.0358.0429.0645.0573.1289.086.2076.086.2363 0 .0143.0143.0358.0429.0644.0287.043.043.086.043.1289.0143.043.0358.086.0645.1289.0573.1576.0931.2507.1074.2793.0859.1862.1432.3223.1719.4082.0286.086.0716.1719.1289.2579.0716.1432.1002.2363.0859.2793 0 .0429.0072.0787.0215.1074.0573.1289.0859.2077.0859.2363.0143.0287.0287.0573.043.0859.0143.0717.043.1576.0859.2579.043.0572.0716.1145.086.1718.0143.043.0286.0788.0429.1075.0717.1862.1791.3437.3223.4726 0 .0716.0143.1361.043.1934.0429.0429.0787.1002.1074.1718.0716.1719.1074.2793.1074.3223 0 .0287.0072.0716.0215.1289 0 .086-.0143.1504-.043.1934-.0143.0286-.0286.0644-.0429.1074-.0287.043-.043.0859-.043.1289 0 .0286-.0143.0645-.043.1074zm-7.0469-5.8008c-.0286-.1289-.0429-.222-.0429-.2793-.0287-.0716-.0573-.136-.086-.1933-.0143-.0573-.0286-.1218-.0429-.1934-.0287-.0716-.0573-.1575-.086-.2578-.0143-.1002-.0286-.18618-.0429-.2578-.086-.18619-.1289-.29362-.1289-.32226 0-.04297-.0144-.07878-.043-.10742-.043-.08594-.0645-.14323-.0645-.17188 0-.04297-.0071-.07878-.0214-.10742-.0717-.15755-.1146-.26498-.129-.32227-.0143-.05729-.0358-.10026-.0644-.1289-.0859-.17188-.1289-.25782-.1289-.25782-.043-.18619-.0716-.29362-.0859-.32226-.0144-.04297-.0287-.08594-.043-.12891 0-.10026-.0072-.15755-.0215-.17187-.0143-.01433-.0215-.03581-.0215-.06446-.0286-.05729-.0501-.11458-.0644-.17187 0-.05729-.0144-.10742-.043-.15039 0-.12891-.0072-.19336-.0215-.19336-.0143-.01432-.0215-.02865-.0215-.04297-.0143-.07161-.0286-.14323-.0429-.21484 0-.07162-.0144-.12175-.043-.15039-.1146.04297-.1791.07877-.1934.10742 0 .01432-.0071.03581-.0215.06445-.0859.15755-.1289.25781-.1289.30078.0144.04297.0072.08594-.0214.12891-.0144.05729-.0359.10742-.0645.15039-.0286.02865-.0573.07161-.0859.12891-.1003.20052-.1576.33658-.1719.4082l-.0645.23633c-.0143.11458-.0573.22916-.1289.34375-.0143.04297-.0286.0931-.0429.15039 0 .04297-.0072.07877-.0215.10742-.0287.04297-.0573.08594-.086.12891-.0143.04296-.0358.09309-.0644.15039-.0143.05729-.0215.11458-.0215.17187s-.0143.10026-.043.12891c-.0429.10026-.0644.15755-.0644.17187 0 .01433-.0072.03581-.0215.06446-.0859.17187-.1361.27933-.1504.32223-.0143.0287-.0215.0788-.0215.1504-.0859.1433-.1432.2722-.1719.3867-.0572.1719-.0716.2937-.0429.3653.1575.1862.2793.2793.3652.2793.1003 0 .2077-.0072.3223-.0215s.2148-.0215.3008-.0215c.1002-.0143.1862-.0215.2578-.0215.1432 0 .2506-.0071.3222-.0215.086-.0143.1647-.0215.2364-.0215.1575.0144.2578.0215.3007.0215.043-.0143.0788-.0143.1075 0l.4511.086c.1719-.086.2578-.1647.2578-.2364zm14.0504 2.3633c-.028.0716-.043.1504-.043.2364v.3007.3008c.015.043.022.086.022.1289v.2364c0 .0859.014.1718.043.2578v.2363c0 .0716.007.1432.021.2148.043.3295.086.5586.129.6875.015.0573.015.1146 0 .1719 0 .043.015.0931.043.1504.029.1146.043.2292.043.3437 0 .1146-.007.1862-.021.2149-.101.1289-.158.2077-.172.2363 0 .043-.014.0716-.043.086l-.322.1074c-.058-.0143-.122-.0287-.194-.043-.057-.0143-.121-.0215-.193-.0215-.115.0144-.229.0072-.344-.0215-.143-.0143-.222-.0286-.236-.0429-.014 0-.036 0-.065 0-.1.0143-.193.0143-.279 0s-.165-.0215-.236-.0215c-.158 0-.301.0072-.43.0215s-.2577.0143-.3866 0c-.1719-.0287-.2507-.043-.2364-.043.0144.0143.0072.0215-.0214.0215-.1146-.0287-.2006-.043-.2579-.043-.0429.0143-.0787.0215-.1074.0215-.0573.0143-.136.0215-.2363.0215-.1003.0143-.1934.0286-.2793.043-.0716.0143-.1504.0143-.2363 0-.0716-.0144-.1504-.0358-.2364-.0645-.2005.0287-.3652.0287-.4941 0-.1289-.043-.222-.0788-.2793-.1074-.1146-.086-.1719-.1289-.1719-.1289 0-.0143-.0071-.0287-.0215-.043-.1145-.1862-.1647-.3008-.1503-.3437.0143-.043.0143-.1003 0-.1719-.0287-.1003-.0287-.2077 0-.3223.0143-.1862.0214-.3222.0214-.4082 0-.0716 0-.1289 0-.1719 0-.0573 0-.1145 0-.1718 0-.0716 0-.1433 0-.2149.0144-.0716.0215-.1432.0215-.2148 0-.1146 0-.222 0-.3223.0143-.1146.0358-.2077.0645-.2793-.0287-.0573-.0358-.1146-.0215-.1719s.0215-.1145.0215-.1718l-.0215-.2364c0-.0573.0072-.1145.0215-.1718.0143-.0717.0215-.1361.0215-.1934 0-.0716-.0072-.1432-.0215-.2148 0-.0717 0-.1504 0-.2364 0-.0716 0-.136 0-.1933.0143-.0716.0071-.1433-.0215-.2149.0286-.1575.0286-.2506 0-.2793-.0143-.0716-.0143-.136 0-.1933.0143-.0716.0215-.1433.0215-.2149s0-.136 0-.1933c0-.0716-.0072-.1576-.0215-.2578 0-.2292-.0072-.3868-.0215-.4727 0-.1003 0-.2077 0-.3223v-.3007c-.0143-.1003-.0215-.1862-.0215-.25786.0143-.07161.0215-.14323.0215-.21484l-.0215-.47266c0-.32943-.0071-.65169-.0215-.9668 0-.32942-.0143-.65885-.0429-.98828-.0144-.11458-.0287-.20768-.043-.27929-.0143-.08594-.0358-.16472-.0645-.23633.0144-.07162.0072-.12891-.0214-.17188-.0144-.05729-.0287-.12174-.043-.19336 0-.08593-.0072-.13606-.0215-.15039 0-.02864 0-.05729 0-.08593-.0143-.17188-.0215-.26498-.0215-.2793.0143-.01432.0215-.02865.0215-.04297-.0573-.17188-.0859-.27214-.0859-.30078.0143-.04297.0215-.08594.0215-.12891-.0287-.1289-.043-.222-.043-.2793.0143-.07161.0215-.14322.0215-.21484-.0144-.07161-.0215-.12174-.0215-.15039.0143-.04297.0215-.07878.0215-.10742 0-.05729-.0072-.10742-.0215-.15039-.0143-.05729-.0287-.10742-.043-.15039 0-.05729-.0071-.11459-.0215-.17188 0-.07161.0144-.14323.043-.21484-.0143-.04297-.0286-.08594-.043-.12891 0-.04297 0-.10026 0-.17187-.0143-.14323-.0286-.22917-.0429-.25781 0-.04297 0-.07878 0-.10743-.0144-.05729-.0215-.10742-.0215-.15039.0143-.05729.0143-.12174 0-.19336-.0287-.1289-.0502-.20768-.0645-.23632 0-.02865 0-.0573 0-.08594-.0143-.11459-.0286-.17904-.0429-.19336-.0144-.01432-.0215-.03581-.0215-.06446-.0143-.15755-.0287-.25781-.043-.30078 0-.05729-.0072-.12174-.0215-.19336v-.25781c.0573-.17187.0931-.27213.1074-.30078.0144-.04297.0358-.07878.0645-.10742.1146-.04297.1719-.07162.1719-.08594.0143-.01432.0358-.02148.0644-.02148.1003-.01433.2005-.02149.3008-.02149h.3008c.0716 0 .1432.00716.2148.02149.0716 0 .1433-.00716.2149-.02149.1862-.02864.3366-.0358.4511-.02148.1146.01432.2292.02148.3438.02148h.4512c.1146.01433.1933.02149.2363.02149.0573 0 .1003.00716.1289.02148.1432.02865.2292.04297.2578.04297.1289.01432.2077.02865.2363.04297.043 0 .0858.00716.1288.02148.1.01433.165.01433.194 0 .028-.01432.057-.02148.085-.02148.144.01432.258.02148.344.02148.086-.01432.172-.02148.258-.02148.115.04297.186.06445.215.06445.028-.01432.05-.02148.064-.02148.058.01432.108.02864.151.04297.057.01432.114.02148.172.02148.143-.02865.236-.03581.279-.02148h.15.172c.072 0 .129.01432.172.04297.1-.04297.215-.05014.344-.02149.143.02865.286.02865.429 0 .258-.02865.466-.03581.623-.02148h.581c.128 0 .222.01432.279.04297.2 0 .365.00716.494.02148s.236.03581.322.06445c.172.01433.28.02149.323.02149h.128c.072.01432.137.02864.194.04297.071 0 .143.00716.215.02148.071.05729.15.0931.236.10742s.172.03581.258.06445c.129.04297.207.06446.236.06446s.057.01432.086.04297c.029.01432.057.04297.086.08593.043.04297.086.07878.129.10743.143.1289.222.21484.236.25781.029.02864.065.05729.108.08594.129.08593.207.15755.236.21484.029.04297.057.08594.086.12891.114.11458.179.19336.193.23632.015.04297.036.08594.065.12891.114.12891.172.20052.172.21484.014.01433.028.02865.043.04297.114.1862.179.28646.193.30078.057.10026.086.17188.086.21485.014.04297.036.07877.064.10742l.086.23633c.101.14323.165.25781.194.34375.028.07161.057.15039.086.23633.071.11458.107.18619.107.21484 0 .01432.007.03581.021.06445l.086.23633c.015.11458.029.19336.043.23633.029.02865.05.07161.065.12891.028.11458.05.22916.064.34375.029.11458.065.22916.108.34375.028.10026.043.15755.043.17187s.007.03581.021.06445c.043.21485.065.36524.065.45118 0 .07161.014.14322.043.21484-.029.07161-.036.14323-.022.21484.014.07162.014.14323 0 .21485-.014.04297-.029.08593-.043.1289-.014.02865-.021.06446-.021.10742 0 .12891-.008.20053-.022.21485v.04297c-.014.14323-.028.23633-.043.27929v.10743c-.071.14323-.107.222-.107.23632.014 0 .021.00717.021.02149-.086.17187-.143.27213-.172.30078-.014.02865-.028.07161-.043.12891-.071.1289-.114.20768-.129.23632 0 .02865-.007.05013-.021.06446-.1.14323-.158.22916-.172.25781 0 .02865-.007.05729-.021.08594-.115.10026-.179.17901-.194.23631-.014.043-.036.086-.064.1289-.086.0573-.158.1218-.215.1934-.043.0716-.1.1432-.172.2148-.086.0716-.143.1289-.172.1719-.028.0286-.064.0645-.107.1074-.072.0716-.115.1218-.129.1504-.014.0143-.036.0287-.065.043-.085.0859-.143.1432-.171.1719-.115.1002-.172.1575-.172.1718-.144.1576-.237.2435-.28.2578-.043.0287-.093.0645-.15.1075-.043.0286-.093.0644-.15.1074-.086.0859-.179.1432-.28.1719-.186.1289-.322.2076-.408.2363-.129.0573-.2.0931-.215.1074 0 .0143-.007.0215-.021.0215l-.237.1074c-.157.0716-.236.1074-.236.1074-.1.0287-.179.0573-.236.086-.043.0143-.093.0358-.151.0644-.214.0716-.379.1218-.494.1504-.1.0287-.207.0502-.322.0645-.086.0286-.15.0573-.193.0859-.029.0287-.072.0501-.129.0645-.043.0143-.122.0215-.237.0215-.028.0143-.064.0286-.107.0429s-.086.0215-.129.0215c-.1.0143-.193.0215-.279.0215-.086-.0143-.186-.0143-.301 0-.057 0-.107.0071-.15.0215-.043.0143-.079.0215-.108.0215-.057.0143-.114.0214-.172.0214-.043-.0143-.086-.0071-.129.0215zm-.408-6.53122c0 .04296-.007.09309-.021.15039v.15039.17187c.014.05729.021.11458.021.17188 0 .11458-.007.222-.021.32226v.30078.17188c.014.01432.021.03581.021.06445.015.12891.015.19336 0 .19336v.04297c.043.11458.058.20052.043.25781v.15039.42969c.015.12891.022.25065.022.36523l.021.27927c.014.1003.022.2006.022.3008 0 .1003.007.2005.021.3008.115-.0716.229-.1218.344-.1504.114-.043.208-.1146.279-.2148.129-.0717.194-.1146.194-.1289 0-.0144.014-.0287.043-.043.071-.0716.15-.1218.236-.15041.071-.07161.114-.10742.129-.10742.028-.01432.05-.02864.064-.04297.029-.02864.057-.05729.086-.08593.029-.04297.057-.07162.086-.08594l.172-.19336c.115-.15755.186-.25781.215-.30078.028-.04297.057-.08594.086-.12891.1-.14323.157-.20768.172-.19336.028 0 .043-.01432.043-.04297.043-.08593.071-.14323.086-.17187.014-.02865.035-.05729.064-.08594.115-.14323.172-.22917.172-.25781 0-.02865.014-.05013.043-.06445-.015-.0573-.007-.10027.021-.12891.029-.04297.029-.07878 0-.10742l.086-.25782c.043-.05729.058-.10742.043-.15039-.014-.04296-.021-.08593-.021-.1289-.015-.07162-.022-.12891-.022-.17188.015-.04297.022-.08594.022-.1289-.086-.20052-.136-.32943-.151-.38672-.014-.05729-.035-.11459-.064-.17188-.043-.15755-.065-.25065-.065-.27929 0-.02865-.007-.0573-.021-.08594-.057-.14323-.093-.22201-.107-.23633-.015-.01432-.029-.03581-.043-.06445-.058-.08594-.108-.15039-.151-.19336-.143-.12891-.215-.20052-.215-.21485 0-.02864-.014-.05013-.043-.06445-.129-.12891-.2-.20052-.215-.21484 0-.01433-.014-.03581-.042-.06446-.115-.10026-.194-.15039-.237-.15039-.114-.11458-.179-.17187-.193-.17187 0 0-.007-.00716-.022-.02149-.157-.11458-.243-.17187-.257-.17187-.015-.01432-.036-.03581-.065-.06445-.143-.11459-.222-.16472-.236-.1504-.015 0-.036-.00716-.065-.02148-.114-.07161-.179-.10742-.193-.10742-.014-.01432-.029-.02865-.043-.04297-.029-.02865-.072-.05013-.129-.06445-.057-.01433-.107-.03581-.15-.06446-.029.07162-.043.14323-.043.21485 0 .07161.007.14323.021.21484.015.14323.015.26498 0 .36524-.014.10026-.028.20052-.043.30078-.014.21484-.021.39388-.021.53711.014.14323.021.29362.021.45117-.028.1289-.036.24349-.021.34375.014.08594.021.17903.021.2793zm14.846.21484c.072.02864.143.04297.215.04297.071 0 .15.00716.236.02148.115.02865.186.04297.215.04297.043-.01432.079-.02148.107-.02148.043 0 .086.00716.129.02148h.129c.086.01432.165.02148.237.02148h.236.172c.057-.01432.121-.02864.193-.04296.158-.01433.244-.02149.258-.02149.029-.01432.057-.02148.086-.02148h.365c.1-.01433.158-.01433.172 0 .029 0 .057-.00716.086-.02149h.215c.043-.01432.093-.02864.15-.04297.158-.08593.236-.15039.236-.19335 0-.0573 0-.10743 0-.1504 0-.05729-.007-.10742-.021-.15039 0-.05729 0-.11458 0-.17187.014-.10026.021-.19336.021-.2793.015-.10026.022-.20052.022-.30078 0-.21484-.014-.42253-.043-.62305-.014-.20052-.014-.4082 0-.62304-.014-.15756-.022-.27214-.022-.34375 0-.08594-.007-.16472-.021-.23633-.029-.15755-.043-.26498-.043-.32227s-.007-.12174-.021-.19336c0-.08593-.008-.17187-.022-.25781 0-.10026 0-.19336 0-.2793-.029-.1289-.043-.20052-.043-.21484.014-.01432.022-.03581.022-.06445-.015-.21485-.036-.34375-.065-.38672.014-.14323.029-.21484.043-.21484s.022-.01433.022-.04297c0-.12891-.015-.22201-.043-.2793-.015-.05729-.008-.12175.021-.19336l.172-.19336c.157-.07161.258-.10026.301-.08594.043 0 .093-.00716.15-.02148h.215c.072-.01432.158-.02149.258-.02149.415.01433.759-.00716 1.031-.06445.115-.01432.229-.01432.344 0 .129.01432.243.02149.344.02149l.343-.02149c.029.01432.079.02149.151.02149.086-.01433.164-.02149.236-.02149.043 0 .079.00716.107.02149h.129.258c.086-.01433.179-.02149.279-.02149.115.02865.201.04297.258.04297.129.01432.251.02865.365.04297.129.01432.265.03581.409.06445.1.11459.15.1862.15.21485.014.01432.022.0358.022.06445.043.10026.057.17187.043.21484v.12891c-.015.11458-.029.25781-.043.42969v.51562c0 .05729-.008.12175-.022.19336v.17188c.029.22916.036.39388.022.49414-.015.08593-.029.18619-.043.30078l-.043.23633v.30078.27929c.014.01433.014.03581 0 .06446 0 .20052-.015.40104-.043.60156-.015.1862-.022.35807-.022.51562 0 .0573.007.11459.022.17188.014.05729.021.11458.021.17187-.014.15756-.029.23633-.043.23633v.02149c.014.07161.022.1289.022.17187s-.008.07878-.022.10742c0 .11459-.007.23633-.021.36524v.4082c-.015.10026-.022.22201-.022.36524.015.1289.022.27213.022.42968 0 .14323-.007.22201-.022.23633v.06445c.029.14323.043.22201.043.23633v.75196.19335c.014 0 .022.01433.022.04297.014.05731.014.11461 0 .17191 0 .0429.007.0931.021.1504v.1289c.014.0429.022.0859.022.1289.014.0429.014.0859 0 .1289v.1289.2148c.014.0716.028.1433.043.2149.014.1002.014.1933 0 .2793 0 .0716.014.1647.043.2793.014.1145.021.2291.021.3437 0 .1003.007.222.022.3652.014.1862.014.308 0 .3653-.015.0573-.022.1146-.022.1719.043.2721.064.5084.064.7089 0 .1862.008.3581.022.5157 0 .0716.007.136.021.1933.015.043.022.1003.022.1719.014.2292.021.3581.021.3867 0 .0716-.007.1361-.021.1934v.1933c.014.1146.029.222.043.3223.029.0859.05.179.064.2793 0 .1146.008.2005.022.2578v.2363c.014-.0143.014 0 0 .043 0 .043-.014.0859-.043.1289-.014.0287-.022.0645-.022.1074-.171.1146-.322.1719-.451.1719-.157.0143-.258.0215-.301.0215-.028-.0143-.057-.0215-.085-.0215-.086 0-.165.0072-.237.0215-.057.0143-.114 0-.172-.043-.028.0287-.078.0358-.15.0215-.057-.0286-.108-.0286-.15 0-.101-.0286-.165-.043-.194-.043-.014-.0143-.036-.0286-.064-.0429-.058 0-.115.0071-.172.0215-.057 0-.122.0071-.194.0214-.042 0-.085.0072-.128.0215-.043 0-.101 0-.172 0-.072-.0143-.151-.0071-.237.0215-.157 0-.257 0-.3 0-.029-.0143-.065-.0143-.108 0-.028 0-.064.0072-.107.0215-.043 0-.093 0-.151 0-.2.0286-.336.043-.408.043-.071.0143-.143.0215-.215.0215-.057 0-.121-.0072-.193-.0215-.057 0-.122 0-.193 0-.072 0-.144 0-.215 0-.058 0-.122.0071-.194.0215-.071 0-.136-.0072-.193-.0215-.043 0-.093.0143-.15.0429-.101-.0573-.158-.0931-.172-.1074 0-.0143-.015-.0286-.043-.043-.072-.0286-.115-.0644-.129-.1074 0-.0573-.007-.1432-.022-.2578 0-.1002-.007-.1719-.021-.2148 0-.0573.007-.1218.021-.1934.029-.1432.036-.2148.022-.2148 0-.0144 0-.0358 0-.0645.043-.1719.057-.3151.043-.4297 0-.1289 0-.2506 0-.3652 0-.0573.007-.1074.021-.1504.015-.0573.022-.1146.022-.1719.014-.1002.021-.2077.021-.3222 0-.1146 0-.2149 0-.3008 0-.0573-.007-.1146-.021-.1719 0-.0573 0-.1217 0-.1934.028-.1718.036-.2793.021-.3222 0-.043 0-.0788 0-.1074 0-.0717.007-.1289.022-.1719.014-.043.021-.1003.021-.1719 0-.1862-.007-.3008-.021-.3437v-.6016c0-.1146 0-.1934 0-.2363.014-.043.021-.0931.021-.1504s-.007-.1074-.021-.1504c-.015-.043-.015-.0931 0-.1504-.1-.0143-.201-.0143-.301 0-.086.0143-.172.0215-.258.0215-.071.0143-.143.0215-.215.0215-.071-.0144-.136-.0215-.193-.0215-.072-.0143-.15-.0143-.236 0-.086 0-.172-.0072-.258-.0215-.143-.0287-.236-.0358-.279-.0215s-.086.0215-.129.0215c-.144 0-.222 0-.237 0-.129.0143-.257.0215-.386.0215s-.251 0-.366 0c-.071.0143-.136.0215-.193.0215-.057-.0144-.129-.0215-.215-.0215-.057 0-.122 0-.193 0-.057 0-.115.0071-.172.0215-.029.0429-.036.1002-.022.1718.029.0573.036.1075.022.1504 0 .086.007.1576.021.2149.015.0573.022.1146.022.1718.014.129.014.265 0 .4082 0 .129.007.2579.021.3868.029.1718.036.2864.022.3437 0 .086.021.1934.064.3223v.2793c.015.1002.022.2005.022.3008 0 .0859.007.179.021.2793.015.1145.022.2363.022.3652.014.1289.028.2506.043.3652.028.0716.043.1576.043.2578.043.2292.057.4297.043.6016-.015.1576-.007.3151.021.4727.029.1575.043.2578.043.3007v.0645c-.014.043-.043.0716-.086.0859-.028.0144-.057.043-.086.086-.028.0286-.086.0358-.172.0215-.071-.0144-.143-.0287-.214-.043-.144 0-.222-.0072-.237-.0215-.014 0-.028 0-.043 0-.272.043-.472.0573-.601.043-.115-.0144-.229-.0072-.344.0215-.186.0429-.322.0644-.408.0644-.072 0-.144.0072-.215.0215-.072 0-.136 0-.193 0-.058.0143-.122.0143-.194 0-.086 0-.172-.0072-.258-.0215s-.179-.0072-.279.0215c-.2.043-.337.0573-.408.043-.072 0-.151.0071-.236.0214l-.795.0215c-.201.0144-.38 0-.538-.0429-.143-.0287-.286-.0717-.429-.1289-.015-.1433-.036-.2292-.065-.2579-.014-.1145-.028-.2005-.043-.2578 0-.0716.008-.1432.022-.2148.071-.2149.1-.3867.086-.5156 0-.1289 0-.2722 0-.4297.028-.1862.043-.2936.043-.3223l-.043-.2363v-.2578c.028-.086.036-.1361.021-.1504 0-.0287 0-.0573 0-.086-.014-.1145-.014-.1933 0-.2363.015-.043.022-.0859.022-.1289 0-.0286-.015-.1146-.043-.2578l.021-.7305v-.5586-.2793-.2793c0-.0429.007-.0859.022-.1289.014-.0429.021-.0859.021-.1289l-.021-.2793c0-.0859-.007-.1719-.022-.2578 0-.0859-.007-.1719-.021-.2578 0-.1719.007-.3437.021-.5156.015-.1719.022-.3581.022-.55862 0-.15755-.007-.34375-.022-.55859 0-.21485 0-.42253 0-.62305 0-.10026 0-.19336 0-.2793.015-.10026.015-.20052 0-.30078 0-.05729-.007-.10742-.021-.15039 0-.05729 0-.11458 0-.17187 0-.21485-.007-.38672-.022-.51563-.014-.14323-.035-.25781-.064-.34375-.029-.17187-.043-.2793-.043-.32226.014-.0573.021-.11459.021-.17188-.014-.08594-.028-.17904-.043-.2793 0-.10026 0-.18619 0-.25781-.014-.10026-.021-.15755-.021-.17187.014-.01433.021-.03581.021-.06446-.014-.05729-.028-.10742-.043-.15039 0-.04297 0-.10026 0-.17187 0-.14323-.007-.23633-.021-.2793 0-.04297 0-.08594 0-.1289v-.25782c-.043-.14323-.064-.23633-.064-.27929 0-.0573 0-.10026 0-.12891l-.043-.34375-.043-.36523-.043-.38672c-.029-.14323-.043-.25065-.043-.32227-.015-.05729-.036-.12891-.065-.21484-.014-.08594-.021-.17188-.021-.25782 0-.05729 0-.11458 0-.17187.014-.05729.021-.11458.021-.17188.029-.15755.036-.25065.022-.27929 0-.02865.014-.05729.043-.08594.086-.10026.143-.15755.172-.17187.143-.07162.229-.11459.257-.12891.043-.01432.079-.02865.108-.04297.172-.01432.258-.02148.258-.02148.014-.01433.028-.02149.043-.02149h.429c.072-.02864.143-.03581.215-.02148.086.01432.165.02148.236.02148l.559.02149c.215.01432.358.02864.43.04296.071 0 .143.00717.215.02149.042 0 .085.00716.128.02148.043 0 .108-.00716.194-.02148.028 0 .064.00716.107.02148h.172c.086.01433.172.02149.258.02149.086-.01433.172-.00716.258.02148.129.02865.265.04297.408.04297.057.01432.107.02149.15.02149.058 0 .115.00716.172.02148h.194c.071 0 .136.00716.193.02148.114.02865.215.04297.301.04297.114.02865.172.05729.172.08594s.007.05729.021.08594c.072.14323.115.222.129.23633.072.1289.1.20768.086.23632 0 .01433.007.04297.021.08594.043.10026.065.22201.065.36524v.32226c0 .10026-.007.1862-.022.25781-.028.15756-.035.25065-.021.2793.014.01432.021.03581.021.06445-.043.11459-.064.1862-.064.21485 0 .02864-.007.05729-.022.08593.015.04297.015.08594 0 .12891-.014.04297-.021.07878-.021.10742v.15039c.014.04297.021.0931.021.15039-.014.11459-.028.23633-.043.36524-.014.12891-.021.25065-.021.36523-.014.15756-.014.32227 0 .49414.014.17188.014.33659 0 .49414-.029.35808-.029.70899 0 1.05274zm16.435-5.5c-.014.04297-.028.08594-.042.1289v.10743.17187c.014.10026.021.17904.021.23633l.021.36523v.36524.30078c.015.02865.022.05729.022.08594-.043.1862-.064.3151-.064.38672v.21484c-.015.12891-.022.26497-.022.4082s-.007.27214-.021.38672c0 .02865-.008.07878-.022.15039v.15039c0 .10026-.007.17904-.021.23633v.17188c-.029.1289-.043.222-.043.27929v.12891c.014.04297.014.08594 0 .12891-.029.20052-.043.3151-.043.34375v.4082c0 .07161.007.14323.021.21484.014.05729.022.12175.022.19336 0 .10026-.008.20052-.022.30078v.25782c-.014.1289-.014.24349 0 .34375.014.08593.022.16471.022.23632.014.07162.014.13607 0 .19336v.17188c.014.08594.014.19336 0 .32226 0 .11459.007.24349.021.38672.029.1862.036.30795.022.36524v.15039.36521c-.029.1003-.043.1647-.043.1934.014.0286.021.0573.021.0859v.9453.3223c.014.0716.007.1504-.021.2363.043.1433.057.2364.043.2793 0 .0287.007.0573.021.086v.2148c.014.0573.022.1217.022.1934.014.1145.014.2363 0 .3652 0 .1146.007.2077.021.2793.014.1432.014.2292 0 .2578v.0645.2793c.014.0429.022.0787.022.1074.014.1002.021.1933.021.2793.014.0859.036.1719.064.2578.015.1289.022.2506.022.3652.014.1146.036.2363.064.3653 0 .0859.015.1718.043.2578.029.0859.036.1432.022.1718v.0645.1289c.014.0286.007.0716-.022.1289-.028.1432-.043.2435-.043.3008 0 .043-.007.0931-.021.1504-.057.1002-.1.1575-.129.1719-.014 0-.029.0143-.043.0429-.072.086-.122.1361-.15.1504-.015 0-.029.0143-.043.043l-.215.1074c-.072.043-.143.0573-.215.043-.057 0-.122.0071-.193.0215l-.323.0214c-.129-.0143-.207-.0214-.236-.0214-.029.0143-.057.0214-.086.0214-.043 0-.086-.0071-.129-.0214-.043 0-.079 0-.107 0h-.387c-.072 0-.143-.0072-.215-.0215-.057-.0143-.122 0-.193.0429-.1-.0143-.201-.0071-.301.0215-.1.0287-.2.0502-.301.0645-.1-.0143-.193-.0143-.279 0-.072.0143-.136.0215-.193.0215-.115.0286-.179.0358-.194.0215 0 0-.014 0-.043 0-.028-.0144-.071-.0215-.129-.0215-.043.0143-.086.0215-.129.0215-.057 0-.121-.0072-.193-.0215-.057-.0144-.114-.0215-.172-.0215-.143-.086-.215-.1289-.215-.1289-.157-.1146-.25-.1791-.279-.1934s-.057-.0286-.086-.043c-.028-.0716-.064-.1217-.107-.1503-.043-.043-.079-.0931-.108-.1504-.014-.0287-.028-.0788-.043-.1504 0-.0716 0-.1218 0-.1504 0-.2005 0-.3509 0-.4512 0-.1146.015-.2292.043-.3437.015-.1289.05-.2722.108-.4297.043-.1289.064-.2292.064-.3008.015-.043.029-.0931.043-.1504s.022-.1074.022-.1504c.014-.043.014-.0859 0-.1289 0-.043 0-.0788 0-.1074.043-.2292.057-.3939.043-.4942 0-.1002 0-.1933 0-.2793v-.7949-.4082c0-.2148 0-.401 0-.5586.014-.1718.007-.3437-.022-.5156-.029-.1146-.043-.1862-.043-.2148.014-.0287.022-.0573.022-.086 0-.0859 0-.1647 0-.2363.014-.0859.014-.1719 0-.2578-.015-.2149-.036-.4225-.065-.62307-.014-.21484-.021-.42968-.021-.64453v-.25781c-.015-.08594-.029-.17187-.043-.25781 0-.08594 0-.17904 0-.2793v-.34375c-.015-.10026-.022-.19336-.022-.2793.015-.17187.015-.28645 0-.34375-.014-.05729-.021-.10742-.021-.15039-.029-.08593-.05-.17187-.065-.25781 0-.08594-.007-.17904-.021-.2793-.029-.18619-.05-.30078-.065-.34375 0-.04296 0-.10026 0-.17187.015-.04297.015-.10026 0-.17188 0-.07161 0-.14322 0-.21484v-.2793c-.014-.14323-.021-.21484-.021-.21484.014-.01432.021-.02865.021-.04297-.014-.17187-.021-.34375-.021-.51562.014-.1862.014-.36524 0-.53711-.014-.1862-.029-.33659-.043-.45118-.014-.11458-.029-.22916-.043-.34374-.014-.07162-.029-.13607-.043-.19336 0-.07162 0-.14323 0-.21485-.014-.04297-.021-.07877-.021-.10742 0-.04297-.008-.0931-.022-.15039-.014-.08594-.029-.16471-.043-.23633-.014-.08594-.021-.16471-.021-.23633.028-.10026.035-.20052.021-.30078 0-.10026.007-.16471.022-.19336 0-.05729.007-.10026.021-.1289.029-.04297.043-.0931.043-.15039.057-.08594.115-.15756.172-.21485.157-.10026.251-.15039.279-.15039.043 0 .086.00716.129.02149.057.01432.107.02148.15.02148.029 0 .065-.00716.108-.02148.043-.01433.086-.02149.129-.02149.043.02865.086.04297.129.04297.057-.01432.107-.02148.15-.02148.172-.04297.279-.0573.322-.04297.058.01432.108.01432.151 0h.365c.057.01432.107.02148.15.02148.058-.01432.108-.02148.151-.02148h.709c.157-.02865.258-.04297.301-.04297.071-.01432.143-.02149.214-.02149.086-.01432.165-.02864.237-.04297.071-.01432.157-.01432.258 0h.279c.186.02865.308.04297.365.04297.201.08594.322.12891.365.12891.058 0 .101.00716.129.02148.029.01433.057.04297.086.08594.029.02865.057.05729.086.08594zm13.965 3.80273c-.129.07162-.236.11459-.322.12891-.1 0-.172-.00716-.215-.02148-.028-.02865-.064-.04297-.107-.04297-.058-.01433-.122-.02865-.194-.04297-.057-.01433-.1-.03581-.128-.06446-.086 0-.18-.02148-.28-.06445-.143-.01432-.215-.02148-.215-.02148 0-.01433-.007-.02149-.021-.02149-.057-.01432-.129-.01432-.215 0-.086.01433-.165.02149-.236.02149-.029 0-.065-.00716-.108-.02149-.043-.01432-.1-.02148-.172-.02148-.114.01432-.2.02148-.257.02148-.058-.01432-.115-.02148-.172-.02148-.158.02864-.265.03581-.323.02148-.042-.02864-.078-.04297-.107-.04297-.115.01433-.215.02149-.301.02149-.086-.01432-.164-.02149-.236-.02149h-.408c-.072.01433-.143.02865-.215.04297-.057 0-.122-.00716-.193-.02148-.144-.01432-.28-.02865-.409-.04297s-.257-.02149-.386-.02149c-.086 0-.172.00717-.258.02149-.086 0-.179.00716-.279.02148-.043 0-.094 0-.151 0s-.107.00717-.15.02149c-.158.07161-.265.11458-.323.1289-.043 0-.085.00717-.128.02149-.072.04297-.115.14323-.129.30078-.015.15755-.029.3151-.043.47266v.42968c.014.15756.035.31511.064.47266.057.12891.1.19336.129.19336.043-.01432.079-.02149.107-.02149.086 0 .137.00717.151.02149h.086c.028.01432.064.02148.107.02148s.086.00717.129.02149h.322c.058-.01432.115-.00716.172.02148.072.01433.129.02149.172.02149s.079-.00716.108-.02149c.057 0 .114-.00716.171-.02148.072-.01432.136-.02149.194-.02149.071 0 .136.00717.193.02149.057 0 .129.00716.215.02148.072 0 .122.00716.15.02149.043 0 .079-.00716.108-.02149h.129c.043-.01432.086-.02148.129-.02148.2-.01432.358-.03581.472-.06446.186.01433.294.02149.323.02149.043-.01432.1-.02149.171-.02149.172-.02864.308-.0358.409-.02148.1 0 .179-.01432.236-.04297.043.01432.086.02865.129.04297s.079.02148.107.02148c.029 0 .065-.00716.108-.02148.043-.02865.086-.04297.129-.04297s.086.01432.129.04297c.042.01432.093.00716.15-.02148.129.02864.208.05013.236.06445.029 0 .058-.00716.086-.02149.014.04297.036.07878.065.10743.028.01432.057.04297.086.08593.057.22917.085.39388.085.49414 0 .08594-.014.1862-.042.30079-.015.20052-.029.32226-.043.36523-.015.04297-.036.0931-.065.15039-.043.11458-.064.19336-.064.23633.014.02865.014.05729 0 .08594-.058.11458-.086.19336-.086.23632-.015.17188-.043.28646-.086.34376 0 .04296-.007.09309-.022.15039-.014.04296-.014.09309 0 .15039-.057.17184-.086.28644-.086.34374.015.043.015.0931 0 .1504-.057.1146-.093.1934-.107.2363-.014.0287-.029.0573-.043.086-.043.1145-.1.2291-.172.3437-.129.0716-.208.1074-.236.1074-.043 0-.093 0-.151 0-.043-.0143-.1-.0215-.172-.0215-.2-.0143-.322-.0286-.365-.0429-.043-.0287-.093-.043-.15-.043-.172.0287-.279.0358-.322.0215s-.079-.0215-.108-.0215c-.129 0-.215-.0071-.258-.0215-.028-.0143-.057-.0286-.086-.0429-.157 0-.272.0071-.343.0214-.072 0-.144-.0143-.215-.0429-.172.0143-.301-.0072-.387-.0645-.071.0287-.143.0358-.215.0215-.057-.0286-.107-.0573-.15-.0859-.115 0-.229 0-.344 0-.1-.0144-.2-.0215-.301-.0215-.172-.0287-.286-.0358-.343-.0215-.043.0143-.079.0215-.108.0215-.043.0143-.086.0215-.129.0215-.043-.0144-.086-.0215-.129-.0215-.043.0143-.086.0286-.129.043-.028 0-.064-.0072-.107-.0215 0 .0573-.007.1146-.021.1718 0 .0573.007.1146.021.1719.072.1719.1.2936.086.3653-.014.0572-.022.1145-.022.1718.015.0573.022.1433.022.2578v.2364.1289c.014.0286.021.0644.021.1074s-.007.0859-.021.1289v.1074c.057.0287.1.043.129.043.043-.0143.1-.0143.172 0h.129c.057-.0143.121-.0287.193-.043h.129c.043-.0143.079-.0215.107-.0215.072 0 .129.0072.172.0215.058.0143.108.0215.151.0215h.107c.043-.0143.086-.0286.129-.043.1-.0143.165-.0143.193 0 .043 0 .086.0072.129.0215.143-.0143.222-.0215.237-.0215h.171c.086 0 .165.0072.237.0215.143.0287.222.043.236.043.158-.0287.244-.0358.258-.0215h.064c.172-.0286.28-.0358.323-.0215h.107.602c.114-.0143.222-.0215.322-.0215.114-.0143.215-.0358.301-.0644l.343-.043c.043.0143.093.0143.151 0 .071-.0143.122-.0286.15-.043.172-.0143.279-.0358.322-.0644.058-.0286.108-.043.151-.043.043-.0143.079-.0215.107-.0215.043 0 .093-.0071.151-.0214.129-.0287.214-.0645.257-.1075.058-.0429.122-.0286.194.043.114.0573.165.1146.15.1719-.014.0429-.014.0716 0 .0859l.108.2363c.028.1003.043.1648.043.1934.014.0143.028.0501.043.1074v.8379l-.043.3867c.028.1289.035.2579.021.3868v.3437c.014.2148.036.3796.065.4941-.015.1576-.022.2937-.022.4083.014.1002.029.1861.043.2578.014.0859.021.1575.021.2148.015.043.008.1218-.021.2363-.043.1003-.072.1719-.086.2149-.014.0429-.043.0788-.086.1074-.029.1146-.086.1862-.172.2148-.086.0287-.207.0502-.365.0645-.086 0-.172.0072-.258.0215-.071.0143-.143.0143-.215 0-.057 0-.114-.0072-.172-.0215-.057-.0143-.121-.0215-.193-.0215h-.322c-.1-.0286-.172-.043-.215-.043-.029.0144-.057.0144-.086 0-.172-.0143-.279-.0286-.322-.0429s-.079-.0287-.108-.043c-.1-.0143-.193-.0143-.279 0s-.172.0215-.258.0215c-.157 0-.236 0-.236 0 0 .0143-.007.0215-.022.0215-.143.0143-.236.0143-.279 0s-.086-.0215-.129-.0215-.093 0-.15 0c-.043.0143-.086.0215-.129.0215s-.086-.0072-.129-.0215-.086-.0215-.129-.0215c-.043-.0143-.093-.0215-.15-.0215-.043.0143-.093.0215-.151.0215-.129-.0143-.2-.0215-.214-.0215-.015.0143-.036.0215-.065.0215-.215.0143-.365.0215-.451.0215-.072.0143-.15.0143-.236 0-.115 0-.187 0-.215 0-.015.0143-.036.0286-.065.043-.129.0143-.215.0143-.258 0-.028-.0144-.057-.0215-.085-.0215-.158-.0143-.244-.0143-.258 0 0 .0143-.022.0215-.065.0215-.186 0-.308-.0072-.365-.0215-.043 0-.1.0071-.172.0215h-.623c-.086-.0144-.172-.0287-.258-.043-.086 0-.179-.0072-.279-.0215h-.816c-.172 0-.265 0-.28 0-.014.0143-.036.0215-.064.0215h-.408c-.158.0286-.244.0358-.258.0215-.014 0-.029 0-.043 0-.072 0-.136 0-.193 0-.043.0143-.101.0215-.172.0215-.144 0-.28 0-.409 0-.114 0-.243-.0072-.386-.0215-.058 0-.115-.0072-.172-.0215-.043 0-.093.0072-.151.0215-.257.0143-.415-.0287-.472-.1289-.072-.1719-.108-.2865-.108-.3438-.043-.2291-.078-.3437-.107-.3437l.021-.3438.022-.2793c0-.1289 0-.2005 0-.2148.014-.0143.021-.0358.021-.0645 0-.1289.008-.2148.022-.2578s.021-.0859.021-.1289c0-.1289.008-.2148.022-.2578.014-.0573.021-.1218.021-.1934 0-.1718.007-.2721.022-.3007.014-.043.014-.1003 0-.1719.028-.1289.043-.2149.043-.2578 0-.0573.007-.1146.021-.1719.043-.1576.072-.2435.086-.2578.015-.1146.015-.2292 0-.3438 0-.1146 0-.2291 0-.3437 0-.043.007-.086.022-.1289.014-.043.021-.086.021-.1289 0-.0573-.007-.1075-.021-.1504 0-.0573.007-.1074.021-.1504.029-.1719.036-.2722.022-.3008 0-.0286 0-.0573 0-.0859.014-.1003.021-.1719.021-.2149.014-.0573.022-.1002.022-.1289.014-.1575.021-.2363.021-.2363.014 0 .022-.0072.022-.0215-.015-.1719-.022-.2936-.022-.3652.014-.0716.022-.1433.022-.2149 0-.0429 0-.0859 0-.1289 0-.0573-.008-.1002-.022-.1289 0-.0859-.007-.1575-.021-.2148 0-.0573 0-.1146 0-.17191-.015-.14323-.022-.24349-.022-.30078s0-.10742 0-.15039c.014-.05729.007-.10742-.021-.15039.028-.07161.043-.14323.043-.21484 0-.08594 0-.16472 0-.23633 0-.07162-.008-.13607-.022-.19336-.014-.07161-.021-.15039-.021-.23633 0-.10026-.007-.16471-.022-.19336 0-.02864 0-.05729 0-.08593-.028-.21485-.028-.43685 0-.66602 0-.07162-.007-.13607-.021-.19336 0-.07161 0-.14323 0-.21484 0-.11459-.007-.22201-.022-.32227 0-.11458 0-.222 0-.32227 0-.21484 0-.35091 0-.4082.015-.05729.007-.11458-.021-.17187.028-.08594.036-.17188.021-.25782-.014-.08593-.021-.16471-.021-.23632-.015-.1862-.015-.32943 0-.42969-.015-.04297-.022-.08594-.022-.12891.015-.04297.022-.07877.022-.10742 0-.05729-.007-.11458-.022-.17187 0-.0573.015-.10743.043-.1504-.028-.18619-.05-.3151-.064-.38671 0-.08594-.007-.16472-.022-.23633-.014-.14323-.036-.25065-.064-.32227-.029-.07161-.029-.15755 0-.25781l-.065-.30078c.015-.1862.015-.29362 0-.32227-.028-.20052-.043-.32942-.043-.38672.029-.21484.036-.35091.022-.4082 0-.05729.029-.10742.086-.15039.028-.08594.05-.13607.064-.15039.029-.02865.058-.05729.086-.08594.058-.07161.108-.1289.151-.17187.057-.04297.1-.07162.129-.08594.114-.04297.222-.06445.322-.06445.143-.02865.25-.04297.322-.04297h.365c.158-.01432.258-.01432.301 0s.079.02864.107.04297h.516c.244-.02865.451-.03581.623-.02149.172 0 .344.00716.516.02149.043 0 .086.00716.129.02148h.129.214c.015-.01432.029-.02148.043-.02148.172.04297.294.06445.366.06445.086-.01432.164-.01432.236 0 .072 0 .143.00716.215.02148h.236c.072.01433.172.02149.301.02149s.229-.00716.301-.02149c.129 0 .2.00717.215.02149h.043.15c.043-.01432.086-.02149.129-.02149.129-.01432.272-.01432.429 0h.559l.494-.02148c.072-.02865.129-.03581.172-.02148h.15.495c.129-.01433.25-.02149.365-.02149h.193c.015-.01432.029-.02148.043-.02148l.237.04297c.157.01432.257.01432.3 0 .058-.01433.101 0 .129.04296.043-.02864.108-.04296.194-.04296.1 0 .164.01432.193.04296l.322-.02148c.129-.01432.215-.02865.258-.04297l.258-.02148c.114-.01433.193-.01433.236 0 .043.01432.093.02864.151.04297.057.01432.107.01432.15 0 .057-.01433.107-.01433.15 0 .187.08593.294.13606.323.15039.128.11458.214.20052.257.25781s.058.14323.043.25781c-.028.12891-.035.22201-.021.2793.014.04297.021.08594.021.1289-.057.20053-.093.32227-.107.36524-.057.14323-.093.23633-.107.2793 0 .02864.007.05729.021.08593-.057.15756-.086.25782-.086.30078.014.04297.014.08594 0 .12891 0 .04297-.007.08594-.021.12891 0 .02864-.008.06445-.022.10742l-.043.23633-.129.90234c-.014.07162-.021.14323-.021.21484 0 .0573-.015.12175-.043.19336z" fill="#462110"/></svg>