<svg fill="none" height="73" viewBox="0 0 73 73" width="73" xmlns="http://www.w3.org/2000/svg" xmlns:xlink="http://www.w3.org/1999/xlink"><linearGradient id="a"><stop offset="0" stop-color="#cf5c2b"/><stop offset="1" stop-color="#59173e"/></linearGradient><linearGradient id="b" gradientUnits="userSpaceOnUse" x1="51.7841" x2="44.7134" xlink:href="#a" y1="-11.386" y2="12.3024"/><linearGradient id="c" gradientUnits="userSpaceOnUse" x1="51.2959" x2="6.09621" xlink:href="#a" y1="-5.90806" y2="151.628"/><linearGradient id="d" gradientUnits="userSpaceOnUse" x1="43.4588" x2="7.86029" xlink:href="#a" y1="16.9263" y2="131.893"/><linearGradient id="e" gradientUnits="userSpaceOnUse" x1="43.8973" x2="41.3499" xlink:href="#a" y1="79.3132" y2="46.0485"/><clipPath id="f"><path d="m0 0h73v73h-73z"/></clipPath><g clip-path="url(#f)"><path d="m1.36637 49.3204c-.03643-.0479-.07287-.1117-.10931-.1756-.437231-.7345-.528322-1.5967-.564758-2.4269-.054654-1.6286-.309708-3.3371-.327926-4.9976-.018218-1.6925.182181-3.369.109309-5.0615-.036437-.7983.054654-1.6286.582975-2.2673.52833-.6386 1.58498-1.0059 2.36836-.6067-1.16596-.3353-2.441228-.7345-3.078862-1.6605-.3643626-2.427-.3643626-5.796-.3825807-8.1591.1275268-.5269.4918897-1.0218.6922887-1.5328 1.530324-3.816 4.299474-7.1211 6.631394-10.554.67407-.9899 1.4028-1.96391 2.20439-2.87401 1.25705-1.40508 2.69625-2.71435 4.37235-3.75219.583-.36724 1.2024-.65464 1.8583-.94204 4.0626-1.82021 8.3074-3.752186 12.9348-4.2311888 6.5221-.6706032 10.5665 2.7462788 15.6129 5.7320688 3.1882 1.88407 6.3582 3.78412 9.4188 5.81186 1.8036 1.1975 3.4979 2.5068 5.1193 3.8959 1.0202.8782 2.1497 1.6765 3.006 2.6984.4008.495.5648 1.1656.3097 1.7404-.0547.1117-.1093.2395-.0729.3672.0365.1118.1458.1916.2551.2715.5647.3672 1.1842.7823 1.8582.9899.4373.1437.9292.1118 1.3664.2555 1.3481.4311 2.3319 1.4529 3.2246 2.379.0364.0319.0729.0798.1093.1118.8016.8462 1.6032 1.6765 2.4048 2.5227.3826.3992.8016.7664 1.0566 1.2454.2551.4631.4373.958.5648 1.453.2368 1.1017.0729 2.2353-.255 3.3211-1.4757 4.7102-5.6477 9.0372-9.1638 12.7255-3.0242 3.1774-6.2123 6.227-9.4916 9.2128-3.9898 3.6404-7.8702 7.3926-12.0786 10.8414-2.2408 1.8362-4.3541 3.8321-6.7772 5.4766-7.5787 5.1573-17.7262-1.5966-24.8677-4.2471-.56475-.2076-1.11129-.4152-1.67605-.6387-1.58498-.6227-3.16996-1.3572-4.48166-2.379-.16396-.1278-.34614-.2555-.49189-.4152-.10931-.1117-.14574-.2075-.21862-.3353-.18218-.3353-.41901-.6546-.60119-1.0059-.36437-.7025-.6012-1.437-.78338-2.1715-.36437-1.5168-.45546-3.0656-.52833-4.6144-.03644-.7664-.07287-1.5647.30971-2.2513.30971-.5748.85625-.8622 1.53032-1.0538.76516-.2235 1.47567-.3512 2.27727-.4311-.16397.016-.38258-.0638-.52833-.0958-.45545-.0958-.89269-.2554-1.29349-.463-.25505-.1277-.45545-.3034-.7105-.4471-.34615-.1916-.72873-.3193-1.03844-.5588-.27327-.2076-.47367-.4471-.65585-.7026z" fill="url(#b)"/><path d="m72.9818 31.0553c-.0364.9261-.419 1.7563-1.2935 2.4589-.2004.1756-.419.3193-.6558.463-.583.3672-1.2024.6546-1.8401.9261-.1093.0479-.2368.1117-.3643.1596-.8016.3673-1.6032.7185-2.4048 1.0858.0546 0 .1093-.016.1822-.016 1.3117-.0958 2.678-.2555 3.9897-.2714-.2915.3992-.6194.8143-.9291 1.2294-.9656 1.2933-1.9493 2.5707-2.9695 3.848-.6741.8303-1.33 1.6446-2.0405 2.4429-.674.7824-1.4939 1.4849-2.259 2.2034-.2186.2076-.4373.4311-.7105.5589-.4555.2235-.9838.2235-1.4939.2395-.0182 0-.0182 0-.0182 0-2.1316.0479-4.2995.2395-6.3946.5588.419.0798.8563.1597 1.2753.2395 1.1841.2235 2.3683.4471 3.5707.6706.419.0798.8563.1756 1.1478.4471-.2915.3353-.6194.6706-.9474.9899-.8927.8782-1.8764 1.7085-2.8967 2.4589-.2914.2076-.5101.3992-.7105.6706-.5101.6866-1.3117 1.1975-1.9857 1.7563-3.4979 2.906-7.0869 5.7481-10.4572 8.7818-.8381.7504-1.9312 1.405-2.9332 1.9798-2.0039 1.1496-4.2994 2.0278-6.7407 2.0118-2.2408-.0159-4.263-.6067-6.2123-1.405-5.9209-2.411-15.0664-4.5665-17.6534-10.4104-.27327-.5907-.54654-1.2613-.61941-1.9-.07288-.7983-.16397-1.5807-.25506-2.379-.01822-.3034-.05465-.6227.07287-.8942.29149-.5588 1.11131-.7185 1.84-.7823 3.8258-.3673 7.6516-.7345 11.4957-1.1017h.0546c.4919-.048.9838-.0959 1.4757-.1438-4.1173-.6227-8.2164-1.2294-12.3337-1.8521-.3279-.0479-.6558-.0958-.98376-.1756-.5101-.1118-.98377-.2874-1.34814-.6227-.63763-.5589-.74694-1.4051-.72872-2.1555.01822-.6387.10931-1.2295.10931-1.8682-.01822-1.437-.01822-2.858.01822-4.279.01821-1.1018.03643-2.1875.07287-3.2892.01822-.958.18218-1.9958.01822-2.9538-.05466-.2715-.10931-.5429-.18218-.7984-.07288-.3193-.16397-.6387-.14575-.974 0-.2395.01822-.479.03644-.7185.07287-1.8681.36436-3.7521.54654-5.6043.05465-.5109.12753-1.0698.54654-1.421.41902-.3673 1.09311-.3992 1.67611-.3992 1.9311-.0319 3.8622-.0479 5.7933-.0479h.7105c2.1133 0 4.2266.016 6.3399.0479-2.0768-.2395-4.1355-.5429-6.2123-.8941-1.3664-.2236-2.8056-.3992-4.0991-.8622-.4373-.1597-.8563-.2715-1.3299-.3034-.3826-.0319-.7652-.0319-1.1478-.0639-.0364 0-.0729 0-.1093-.0159-.2733-.016-.7105-.016-.85625-.1757-.07287-.0798-.07287-.1756-.09109-.2874-.09109-1.1975-.14574-2.379-.14574-3.5925 0-.3513-.01822-.7025-.01822-1.0538 0-1.8042.14575-3.65639 1.002-5.285.7287-1.38911 2.1133-2.15551 3.4797-3.01772.5829-.36723 1.2024-.6706 1.8582-.958 4.0626-1.83618 8.3075-3.784122 12.9349-4.2631243 6.5221-.6706037 10.5665 2.7622443 15.6129 5.7799643 3.5708 2.13955 7.1415 4.29508 10.5483 6.62618.1093.0799.2368.1597.3644.2395.9291.6387 1.84 1.2295 2.4958 2.0757.4191.5429 1.0203.8941 1.5486 1.3412.6194.5109 1.1842 1.0378 1.7125 1.6127.1093.0958.2004.2235.2004.3672-.0182.2555-.3644.3672-.6377.4151-.4008.0639-.8015.1437-1.2023.2076-2.2044.3832-4.4271.7824-6.6497 1.1656.7288.0159 1.4575.0159 2.1862 0 2.3137-.016 4.6092-.0958 6.8682.1916.9656.1277 2.0405.2714 3.006.5748.4555.1437.8745.3193 1.2571.5269.2186.1277.3643.2554.5101.447.4372.5908.9291 1.1177 1.4574 1.6606 1.8947 1.9479 4.3724 3.8639 4.9554 6.4825.0182.495.0728.8941.0364 1.2933z" fill="url(#c)"/><path d="m9.38234 14.6574c0-.3513-.01821-.7025-.01821-1.0538 3.31567.016 6.68607.3672 10.00177.3992 6.1213.0159 12.2061-.4471 18.3274-.7345 5.8116-.2714 11.6232-.5429 17.453-.5269.9291.6387 1.84 1.2294 2.4958 2.0757.4191.5428 1.0203.8941 1.5486 1.3412.6194.5109 1.1842 1.0378 1.7125 1.6126.1093.0958.2004.2236.2004.3673-.0182.2554-.3644.3672-.6377.4151-.4008.0639-.8016.1437-1.2024.2076-2.2043.3832-4.427.7823-6.6496 1.1655.7288.016 1.4575.016 2.1862 0 2.3137-.0159 4.6092-.0958 6.8682.1916.9656.1278 2.0405.2715 3.006.5748-2.004.0958-4.1355 0-6.4674-.0479-6.85-.1277-13.6818.1118-20.5318.3992-6.8136.2874-13.6636.3193-20.459-.2076-.2915-.0159-.6012-.0479-.9109-.0638h.7105c2.1133 0 4.2266.0159 6.3399.0479-2.0768-.2395-4.1355-.5429-6.2123-.8942-1.3664-.2235-2.8056-.3991-4.0991-.8622-.4372-.1596-.8563-.2714-1.3299-.3033-.3826-.032-.7652-.032-1.1478-.0639-.0364 0-.0729 0-.1093-.016-.2733-.0159-.71049-.0159-.85624-.1756-.07287-.0798-.07287-.1756-.09109-.2874-.07287-1.1656-.10931-2.3631-.12753-3.5606zm36.39976 14.2424c-12.7344-.016-25.3778.8462-38.02117-.6547-.01822.2395-.03644.479-.03644.7185-.01821.3353.07288.6547.14575.974 11.24056 3.5286 23.30096 4.0715 35.16096 4.5345 4.172.1597 8.3439.3992 12.4976.7345-5.5201.0958-11.0401.2395-16.5602.4311-9.1637.3194-18.3457.4311-27.4912 1.0698-.4919.0479-1.85822.1118-3.51607.2555-.01822 1.421-.01822 2.858-.01822 4.2791.01822.6546-.07287 1.2294-.10931 1.8681-.01821.7504.09109 1.5966.72873 2.1555.36436.3353.83803.5109 1.34814.6227.32793.0798.65583.1277.98373.1756 4.1173.6227 8.2164 1.2295 12.3337 1.8522-.4919.0479-.9838.0958-1.4757.1437 4.9918.3672 10.0018.5428 14.9207.7504 7.3783.3353 14.7202.5109 22.0986.4471.3279-.3194.6376-.6547.9473-.99-.2915-.2874-.7287-.3672-1.1477-.447-1.1842-.2236-2.3684-.4471-3.5708-.6706-.419-.0799-.838-.1597-1.2753-.2396 2.0951-.3353 4.2631-.5269 6.3946-.5588h.0182c.5101-.016 1.0567-.016 1.4939-.2395.2733-.1277.4919-.3513.7105-.5588.7652-.7185 1.585-1.4211 2.2591-2.2034.7105-.7984 1.3663-1.6127 2.0404-2.4429 1.0202-1.2614 2.004-2.5547 2.9695-3.848.3098-.3992.6195-.8143.9292-1.2295-1.3117.016-2.6781.1757-3.9898.2715-.0547.0159-.1093.0159-.1822.0159.8016-.3672 1.6032-.7185 2.4048-1.0857.1093-.0479.2368-.1118.3644-.1597.6376-.2874 1.2752-.5588 1.84-.9261.2368-.1437.4555-.2874.6559-.463.8744-.7025 1.257-1.5328 1.2934-2.4589-8.9268-1.6765-18.5096-2.1235-27.145-2.1235z" fill="url(#d)"/><g fill="#eb924d"><path d="m59.7372 48.2993c-1.1477 1.2614-2.4412 2.427-3.844 3.4648-.2915.2076-.5101.3992-.7105.6706-.5101.6866-1.3117 1.1975-1.9858 1.7563-3.4979 2.906-7.0868 5.7481-10.4572 8.7818-.838.7504-1.9311 1.405-2.9331 1.9798-2.004 1.1496-4.2995 2.0278-6.7407 2.0118-2.2408-.0159-4.263-.6067-6.2124-1.405-5.9209-2.411-15.0664-4.5665-17.65334-10.4103-.27327-.5908-.54655-1.2614-.61942-1.9001-.07287-.7983-.16396-1.5807-.25505-2.379-.01822-.3034-.05466-.6227.07287-.8942.29149-.5588 1.1113-.7185 1.84004-.7823 3.844-.3673 7.688-.7345 11.5321-1.1018-1.3846.5749-2.8421.9581-4.336 1.2774-.5465.1118-1.0384.2555-1.5849.2395-.6194-.016-1.2753.1597-1.8765.2395-1.3117.1916-2.6416.3672-3.9533.5588-.14577.016-.30974.0479-.38261.1597-.07287.0798-.07287.1916-.05465.2874.05465 1.6446.47366 3.2891 1.22066 4.806.2368.479.5101.958.8926 1.3731.4737.495 1.0931.8782 1.6943 1.2614 1.2206.7504 2.4413 1.5328 3.8076 2.0597.4919.1916 1.0384.1757 1.5121.3832.6923.3034 1.3664.6227 2.0587.9101 2.7873 1.1496 5.7022 2.0757 8.6353 2.89.2369.0639.4737.1277.7106.1916 1.3117.3513 2.7145.479 4.099.3513 4.3542-.3832 7.852-2.9379 11.022-5.3649 1.2024-.926 2.3501-1.884 3.4797-2.842 3.097-2.5867 6.1759-5.1892 9.2548-7.7758-.8745-.7824-1.8947-1.4211-3.0242-1.9161h.091c1.1842.2236 2.3684.4471 3.5708.6706.4008.0799.838.1597 1.1295.4471z"/><path d="m9.01799 22.9921c-.25506 1.4689-.29149 2.9698-.10931 4.4388.05465.4311.14574.9101.51011 1.2134.32792.2874.83801.3673 1.32991.4311 1.421.1757 2.842.3673 4.263.5429-1.3299-.016-2.6598.1437-3.9533.4471-.6376.1437-1.29347.3512-1.74892.7504-.72873.6547-.8016 1.6606-.8016 2.5707-.03644 4.1992.45545 8.4144 1.43923 12.5339-.51011-.1118-.98378-.2874-1.34814-.6227-.63763-.5589-.74694-1.4051-.72872-2.1555.01821-.6387.1093-1.2295.1093-1.8682-.01821-2.5227.01822-5.0455.07288-7.5682.01821-.958.18218-1.9958.01821-2.9538-.09109-.6068-.34614-1.1497-.32792-1.7724.05465-2.1076.38258-4.2312.58298-6.3228.05465-.5109.12752-1.0698.54654-1.421.41902-.3673 1.09309-.3992 1.67606-.3992 2.168-.0319 4.3359-.0479 6.5039-.0479-2.751.3672-5.4472 1.2933-8.03421 2.2034z"/><path d="m61.1218 18.1214c-.0182.2555-.3644.3673-.6376.4152-.4008.0638-.8016.1437-1.2024.2075.419-.8303-.4373-1.9-1.2753-2.5706-5.7569-4.5985-12.2972-8.36661-18.8193-12.10283-1.5303-.87817-3.0971-1.77231-4.8278-2.33114-1.749-.55884-3.2611-.894142-5.0282-.44707-4.4999 1.11767-8.8722 2.60258-13.0624 4.40682-1.585.68657-3.1882 1.46894-4.2266 2.69838-1.2388 1.46894-1.5121 3.38494-1.6032 5.20514-.0911 1.7085-.0729 3.4169.0547 5.1094-.2733-.016-.71056-.016-.8563-.1756-.07287-.0799-.07287-.1757-.09109-.2874-.09109-1.1976-.14575-2.3791-.14575-3.5926-.03643-2.1235-.07287-4.3908.96554-6.33877.7287-1.38911 2.1133-2.15551 3.4797-3.01772.583-.36723 1.2024-.6706 1.8582-.958 4.0627-1.83618 8.3075-3.784124 12.9349-4.2631264 6.5221-.6706036 10.5665 2.7622464 15.6129 5.7799664 3.5708 2.13954 7.1415 4.29505 10.5483 6.62625 1.0567.7185 2.1133 1.3412 2.8603 2.2992.419.5428 1.0202.8941 1.5485 1.3412.6194.5109 1.1842 1.0378 1.7125 1.6126.1093.1277.2186.2555.2004.3832z"/><path d="m71.6883 33.5142c-.2004.1756-.419.3193-.6558.463.1821-1.0857.7287-2.1555.5829-3.2413-.1093-.8302-.6012-1.5807-1.093-2.2992-.8016-1.1815-1.585-2.363-2.3684-3.5286-.5101-.7824-1.0567-1.5648-1.8765-2.1076-.7651-.495-1.676-.7345-2.5869-.958-1.5304-.3673-3.0789-.7026-4.6274-.974-1.4028-.2555-2.7874-.4311-4.1902-.6546-.2733-.0479-.2733-.1278-.0547-.2715 2.3137-.0159 4.6092-.0958 6.8683.1916 1.4028.1757 3.0606.4152 4.263 1.1017.2186.1278.3644.2555.5101.4471.4372.5908.9291 1.1177 1.4575 1.6605 1.8946 1.948 4.3723 3.864 4.9553 6.4825.3097 1.437.0546 2.6825-1.1842 3.6884z"/><path d="m70.577 35.8613c-1.2753 1.7085-2.5505 3.4009-3.8805 5.0615-.674.8303-1.3299 1.6446-2.0404 2.4429-.6741.7824-1.4939 1.4849-2.259 2.2034-.2187.2076-.4373.4311-.7106.5589-.4554.2235-.9837.2235-1.4938.2395-.0183 0-.0183 0-.0183 0 .8563-1.0858 2.2044-1.8362 3.1518-2.8581 1.1659-1.2294 1.9857-2.6505 3.0242-3.9597.7469-.9261 2.9878-2.5228.7287-3.2094-.2004-.0638-.6194-.1756-.8198-.1277.1093-.0319.2368-.0639.3644-.0958 1.2752-.0798 2.6416-.2395 3.9533-.2555z"/></g><path d="m19.4387 50.1515c.2915.4471.6741.8622 1.1842 1.1975 4.7003 3.0976 11.277 6.9935 17.2708 4.4548 3.2064-1.3732 5.593-3.8161 7.852-6.1951 1.8036-1.8841 3.6072-3.7842 5.4108-5.6682 1.9858-2.0757 3.9715-4.1514 5.9573-6.2271.8016-.8302 1.8218-1.6605 2.2955-2.6664.8562-1.7723 2.2955-3.5606 1.8218-5.5405-.8016-3.4009-6.6496-6.9934-9.4734-9.1809-3.6436-2.8101-7.5605-5.3009-11.3863-7.9195-3.1882-2.1715-4.9007-3.9757-9.2184-3.12946-2.1315.41514-4.1537 1.16556-6.0666 2.04376-1.7308.7824-3.4797 1.6925-4.9189 2.8421-3.6801 2.9538-2.6234 10.1708-2.7874 14.0986-.2186 5.3329 0 10.6818.7469 15.9827 0 .4471.1276.9261.2004 1.3572.2369 1.4051.2551 3.1774 1.1113 4.5505z" fill="url(#e)"/><path d="m20.0764 28.2611c0 1.1656.0364 2.3152.0729 3.4808.0546 2.3151.1821 4.6463.3643 6.9615.1458 1.7403.3097 3.4648.4919 5.2051.164 1.4849.3462 3.2253 1.0202 4.6304.8563 1.8362 3.4432 2.874 5.3379 3.8001 1.9312.958 4.1173 1.8042 6.3764 1.8042 1.0384 0 1.9857-.1916 2.9149-.5908 2.7145-1.1655 4.846-3.4009 6.9229-5.5564 1.8582-1.9479 3.6982-3.8799 5.5565-5.8278 2.9513-3.0816 6.3399-5.764 8.3621-9.4364.583-1.0538 1.1295-2.0437.9656-2.7463-.164-.7025-.5466-1.3891-1.1113-2.0278-1.6761-2.0916-4.8278-3.8639-6.7043-5.253-4.3177-3.1934-8.8358-6.1313-13.2264-9.2128-1.9311-1.3572-2.8238-1.9639-4.2448-1.9639-.419 0-.8745.0479-1.4028.1437-3.3521.6546-7.1415 2.2513-9.692 4.295-1.6761 1.3572-1.749 3.9917-1.8583 5.8279-.0911 2.1555-.1457 4.311-.1457 6.4665z" fill="#e48a4a"/></g></svg>