<svg fill="none" height="39" viewBox="0 0 38 39" width="38" xmlns="http://www.w3.org/2000/svg" xmlns:xlink="http://www.w3.org/1999/xlink"><linearGradient id="a"><stop offset="0" stop-color="#cf5c2b"/><stop offset="1" stop-color="#59173e"/></linearGradient><linearGradient id="b" gradientUnits="userSpaceOnUse" x1="35.8867" x2="25.3992" xlink:href="#a" y1="-18.4425" y2="4.87217"/><linearGradient id="c" gradientUnits="userSpaceOnUse" x1="31.4642" x2="-5.64864" xlink:href="#a" y1="-10.1495" y2="75.5327"/><linearGradient id="d" gradientUnits="userSpaceOnUse" x1="27.3859" x2="-9.72695" xlink:href="#a" y1=".43529" y2="86.1173"/><linearGradient id="e" gradientUnits="userSpaceOnUse" x1="20.3348" x2="19.2052" xlink:href="#a" y1="53.9804" y2="18.1584"/><path d="m36.8425 5.83919c-.2113-2.86956-2.5615-5.114149-5.4311-5.22858-8.0805-.325686-16.1258-.325686-24.14475-.008802-.58095.026407-1.1531.132035-1.69885.334489-.27287.096823-.53694.220053-.7834.352093-1.24993.68658-2.09496 1.87489-2.74633 3.09842-.69538 1.28514-1.399568 2.71111-1.487592 4.1899-.070418 1.19712-.132035 2.40299-.176046 3.60019-.008803.132-.008803.2552.008802.3785.008802.0704.017605.1408.008802.2112-.026407.3873-.008802.7306.193652 1.0739.123232.2025.281674.3785.484132.4929-.01761-.0088-.184853.1497-.21126.1673-.070419.0616-.132035.132-.184849.2024-.11443.1497-.211256.3081-.272872.4842-.070419.176-.11443.3609-.123233.5457-.061616.7482-.044011 1.4964-.035209 2.2446.008802.6514-.052814 1.338.052814 1.9805.026407.1585 0 .3257.035209.4841.070419.3609.237663.6954.404907 1.0211-.281674.2993-.404907.713-.422511 1.1267-.017605.4753.070418.9419.035209 1.4172-.088023 1.2851-.008803 2.6055.070418 3.8818.008803.1497.03521.2993.061617.4401.079221.3609.088023.7394.290476 1.0563.088024.1409.202454.2641.343294.3609-.132038-.0176-.237666.1232-.299282.2377-.396105.757-.396105 1.3467-.237663 2.1565.158442.8451.114431 1.6461.422512 2.4735.255263.6866.642573 1.3203 1.126693 1.8573 1.00347 1.1179 2.42945 1.8045 3.92584 1.8925 8.51187.4929 16.70677.5369 24.52327.0528.0352 0 .0704-.0088.1056-.0088.9507-.0792 1.8749-.3873 2.6759-.9066.7835-.5018 1.4348-1.1972 1.8925-2.007.5282-.933.7834-2.0333 1.0475-3.0632.1673-.6338.4225-1.4436.3521-2.1213-.044-.3873.0704-.7658.0528-1.1531-.0176-.4402-.132-.8715-.3345-1.2588-.0264-.044-.0528-.0968-.0528-.1496-.0088-.1233.1233-.2113.2201-.2905.2288-.176.3785-.4489.4313-.7306.0088-.0704.0176-.1408.0088-.2112-.0264-.1233-.0176-.2201-.0088-.3521.044-.8891.0792-1.7781.1144-2.6671.0352-.9771.0704-1.9542.088-2.9224.0265-.9595.0353-1.9277.0441-2.8872.0088-.9506.0088-1.9013 0-2.8431 0-.4666-.0088-.9419-.0176-1.4084 0-.2377-.0088-.4665-.0176-.7042-.0088-.22-.0441-.4665-.0089-.6866.0089-.0792.0353-.1408.0177-.22-.0088-.0969-.0353-.1849-.0617-.2817-.0528-.1849-.132-.3609-.2288-.5281-.0968-.1673-.2113-.3169-.3521-.4578-.0352-.0352-.4049-.3785-.4401-.3433.1144-.1056.2112-.22001.2992-.34324.2289-.32569.3609-.70419.4578-1.09149.044-.19365.0704-.39611.0968-.59856.0088-.03521.0264-.07042.0264-.11443.0264-.14084-.0088-.30808-.0176-.44892-.0352-.58095-.0792-1.17951-.1232-1.77807z" fill="url(#b)"/><path d="m37.2214 12.4404c-.0088 1.0035-.0176 2.0069-.0264 3.0104-.0088.4753-.0088.9595-.0088 1.4436 0 .2641-.0088.5193-.0088.7746-.0176 1.3643-.0352 2.7287-.0704 4.0931-.0176.6777-.0352 1.3555-.0616 2.0333-.0176.4049-.0088.7834-.1409 1.1619-.1496.4225-.1408.9419-.1936 1.3908-.0176.1408-.044.2905-.1497.3961-.0968.0968-.2376.1144-.3785.1232-.22.0264-.4489.044-.6689.0704-1.294.1321-2.5967.2553-3.8907.2905-.9594.0176-1.9277-.0088-2.8871-.1144.7306.1056 1.4611.22 2.1917.3257.2113.0352.4138.0616.625.0968 1.4876.2201 2.9752.4401 4.4628.6602.132.0264.2817.044.3785.1408.1496.132.1584.3609.1496.5633-.0176.2993-.044.5986-.0968.8979-.0792.5897-.1936 1.1795-.2201 1.7781-.0088.1232.0176.2464-.0088.3697-.0616.3785-.3433.7394-.5545 1.0386-.9947 1.3908-2.5791 2.271-4.2779 2.3767-7.7021.4841-15.765.4401-24.14481-.0441-1.20592-.0704-2.37663-.5369-3.30088-1.3203-.54574-.4665-1.05627-1.0651-1.37316-1.7253-.14084-.2992-.17605-.6425-.31688-.9506-.02641-.0704-.05282-.132-.07922-.2025-.04401-.2024-.02641-.4225.14964-.5633.18484-.1497.44891-.1585.68658-.1673 2.6671-.088 5.3254-.2552 7.99253-.3344h.0792c.8098-.0265 1.6284-.0353 2.4382-.0353-.2992-.044-.5985-.088-.8978-.1144-1.3732-.1672-2.76392-.22-4.14589-.2729-.0176 0-.03521-.0088-.04401-.0088h-.0176c-1.67245-.0616-3.33609-.132-4.98212-.3961-.31688-.0528-.64257-.1144-.92425-.2552-.21125-.0969-.3961-.2289-.52813-.4225-.00881 0-.01761-.0176-.02641-.0265-.19365-.2992-.26407-.7481-.20245-1.0826.07922-.3873.0264-.7658.0088-1.1795-.03521-.7042-.07922-1.4172-.10563-2.1214-.02641-.3873-.04401-.7746-.06162-1.1619-.0088-.2113-.0176-.4489.11443-.6162.10563-.132.29048-.176.45772-.22.51934-.1321 1.03868-.2641 1.57562-.3433.23766-.044.47533-.0704.71299-.088-.60736-.1409-1.21472-.2729-1.83088-.4138-.18485-.044-.3697-.088-.53695-.176-.03521-.0176-.07922-.044-.11443-.0704-.29928-.2201-.3785-.5194-.42251-.8362-.0176-.1057-.02641-.2201-.04401-.3257-.04401-.2553-.07922-.5018-.09683-.757-.04401-.3873-.06161-.7746-.07922-1.1619-.03521-.8451-.07922-1.9365.45772-2.6495.19366-.2553.53695-.3169.85383-.3521 1.24113-.1497 2.48226-.2817 3.72338-.3873.25527-.0264.51934-.044.77461-.0705 1.25873-.0968 2.50866-.176 3.77624-.2376-1.51404.0704-3.03685.044-4.55085-.0528-.95065-.0616-1.9013-.1585-2.85195-.2817-.3961-.0528-.80981-.1144-1.16191-.2993-.0088-.0088-.0176-.0088-.0264-.0176-.09683-.044-.18485-.0968-.27288-.1672-.19365-.1497-.33448-.3521-.41371-.581-.08802-.2376-.04401-.4401-.0088-.6778.0088-.088 0-.176 0-.264-.0176-.537.02641-1.0827.03521-1.6197.0088-.2728.01761-.5457.03521-.82738.03521-1.19711.09683-2.39423.16725-3.59135.17604-2.90476 2.53506-5.202171 5.43983-5.316601 8.0101-.325686 16.0554-.316884 24.1448.008802 2.5967.105628 4.8589 2.042139 5.343 4.594809.1496.78341.2024 1.63724.0528 2.42945-.0352.20245-.088.3961-.1584.58095-.044.10563-.1145.32569-.2113.41371-.0088.0088-.0176.0176-.0176.0176-.0704.04402-.1672.05282-.2377.07042-.4753.11443-.9506.21126-1.4259.29928-.9507.16725-1.9101.29048-2.8696.3785-.0088 0-.0088 0-.0088 0-1.9365.16725-3.8906.20245-5.8271.22886h-.0529c.5282.03521 1.0651.06162 1.5933.09683 1.4436.07922 2.8871.16724 4.3307.25527.9595.05285 1.9277.10565 2.8872.16725.5809.0352 1.1883.0792 1.69.3785.0088 0 .0088.0088.0088.0088.6426.4313.6866 1.2059.6778 1.9365z" fill="url(#c)"/><path d="m37.221 12.4404c-.0088 1.0035-.0176 2.007-.0176 3.0104-.0089.4753-.0089.9595-.0089 1.4436 0 .2641-.0088.5193-.0088.7746-3.7057.2377-7.4203.5634-11.1349.7922-4.3307.2641-8.6615.5546-12.9834.8274-2.3326.1497-4.64765.3257-6.97146.5898-1.55802.176-3.03681.4313-4.55081.3433-.0176-.1056-.0264-.2201-.04401-.3257-.04401-.2553-.07922-.5017-.09682-.757 1.5316-.3257 3.07201-.2729 4.70044-.3257 2.18298-.0704 4.33076-.22 6.50496-.4225 4.3307-.4049 8.6614-.8274 12.9922-1.3203 2.5791-.2993 5.1581-.5634 7.746-.8451-.088-.0088-.1672-.0088-.2552-.0176-4.234-.2288-8.3975-1.0122-12.6138-1.3907-4.1811-.3785-8.3798-.7042-12.57849-.9507-1.69885-.1056-3.64416-.0792-5.56307-.2112-.0088-.0089-.0176-.0089-.0264-.0177-.09683-.044-.18485-.0968-.27288-.1672-.19365-.1496-.33448-.3521-.4137-.581-.08803-.2376-.04402-.4401-.00881-.6777.00881-.0881 0-.1761 0-.2641-.0176-.5369.02641-1.0827.03521-1.6196.0088-.2729.01761-.54577.03521-.82745 2.13016-.11443 4.33075.02641 6.22325.04401 4.19868.03521 8.38858.23767 12.57848.48414 4.2075.2465 8.4063.1496 12.6138.3433 1.1355.0528 2.2798.0968 3.4153.1232.6777.4401.713 1.2147.7042 1.9453zm-13.9077 9.8322c-7.1563.3433-14.6911.0264-21.66254 1.8661.03521.7042.07042 1.4172.10563 2.1214.0176.4049.07042.7834-.0088 1.1795-.06162.3345.0176.7834.20245 1.0827 2.11256.5545 4.26913.8978 6.46091 1.1179.0176 0 .03521.0088.06161.0088 1.37317.1408 2.75514.22 4.14594.2729 3.5825.132 7.1915.0528 10.6948.088 4.3835.044 8.7671-.044 13.1419-.2025.044-.2993.0792-.5897.0968-.8978.0088-.2025 0-.4225-.1497-.5634-.0968-.088-.2464-.1144-.3785-.1408-1.6988-.2553-3.3889-.5017-5.0877-.757-.7306-.1056-1.4612-.2201-2.1918-.3257 2.2534.2553 4.5244.0616 6.7866-.1672.2201-.0264.4489-.044.669-.0705.132-.0088.2817-.0264.3785-.1232.1056-.0968.132-.2553.1496-.3961.0528-.4489.0352-.9594.1937-1.3908.132-.3873.132-.757.1408-1.1619.0264-.6777.044-1.3555.0616-2.0333-4.6036.132-9.216.2729-13.8108.4929z" fill="url(#d)"/><g fill="#e68b4a"><path d="m1.97764 28.5668c-.21125-.2992-.29928-.7746-.22886-1.1267.07922-.3873.02641-.7658.0088-1.1795-.06161-1.0915-.11443-2.1917-.16724-3.2832-.0088-.2113-.01761-.449.11443-.6162.10563-.132.29048-.176.45772-.2201.51934-.132 1.03867-.264 1.57562-.3432-.29928.2288-.58976.4137-.94185.5897-.12324.0616-.25527.1232-.34329.2289-.09683.1056-.13204.264-.16725.4049-.29928 1.3731-.14083 2.8079.02641 4.2075.07042.5809.14084 1.1707.19365 1.7605-.21126-.0969-.3961-.2377-.52814-.4226z"/><path d="m1.4918 19.8958c-.10562-.6338-.14964-1.2852-.17604-1.9189-.03521-.845-.07922-1.9365.45772-2.6495.19365-.2553.53694-.3169.85382-.3521 1.4964-.1761 2.99279-.3345 4.49799-.4489-1.42597.4753-3.0544.4753-4.43637 1.065-.25527.1057-.51053.2377-.65137.4754-.09683.1584-.13204.3433-.15844.5193-.08803.5634-.14964 1.1003-.11443 1.6725.0264.3608.05281.7305.08802 1.0914.05281.5986.14084 1.1884.23766 1.7781-.03521-.0176-.07922-.044-.11443-.0704-.41371-.2817-.4049-.7306-.48413-1.1619z"/><path d="m30.6895 27.334c.0618.0263.1237.0525.1856.0788-.0707-.0175-.1326-.035-.1856-.0788z"/><path d="m36.5527 28.8918c-.0353.9067-.2817 1.7781-.3169 2.6759-.0088.1233.0176.2465-.0088.3697-.0616.3785-.3433.7394-.5546 1.0387-.9946 1.3908-2.5791 2.271-4.2779 2.3766-7.702.4842-15.765.4401-24.14478-.044-1.20592-.0704-2.37663-.5369-3.30088-1.3203-.55454-.4578-1.06508-1.0563-1.38196-1.7165-.14084-.2993-.17605-.6426-.31689-.9506-.0264-.0705-.05281-.1321-.07922-.2025-.04401-.2024-.0264-.4225.14964-.5633.18485-.1497.44892-.1585.68658-.1673 2.66711-.088 5.32541-.2552 7.99251-.3345-2.34141.1321-4.67403.4578-6.98024.8715-.31688.0528-.66017.0792-.96825.1672-.04402.0176-.09683.0176-.14084.0616-.05282.0704-.04401.1585-.03521.2377.03521.2729.18485.5017.35209.7218.53694.7042 1.10029 1.4436 1.8925 1.8573 1.90131 1.0034 3.83782.8538 5.99435.8098.4402-.0088.8715 0 1.3116-.0792.22-.0441.4841 0 .7042.0088.5017.0176 1.0034.0264 1.514.044 1.0034.0264 2.0157.0528 3.0192.088 1.8837.0528 3.7674.1056 5.6511.1584 1.7956.0528 3.5913.0969 5.387-.0528 1.7693-.1408 3.5385-.4753 5.1758-1.1883.132-.0616.2904-.1056.4049-.2024.088-.0617.1584-.1409.2464-.2025.2729-.176.537-.3521.7746-.5721.1585-.1497.3873-.3433.4666-.5546.044-.1144.0704-.2465.1144-.3609.1144-.3257.176-.669.2024-1.0123.0264-.3785.0088-.7658-.0352-1.1443-.0176-.1672.0088-.4841-.0968-.6249-.0528-.0792-.1937-.1497-.2817-.1937-.2288-.1144-.4929-.1672-.7482-.2112-1.3643-.2553-2.7023-.669-3.9786-1.2324 1.6988.2553 3.3889.5106 5.0877.757.1321.0264.2817.0441.3785.1409.1409.1232.1409.3521.1409.5457z"/><path d="m1.64205 12.8893c-.07042-.2817-.06162-.5722-.06162-.8626.03521-1.3996.07042-2.80799.14964-4.20756.07042-1.28514.04401-2.64069.57215-3.83781.86263-1.95412 2.82555-3.292071 4.97331-3.380094 8.01017-.325686 16.05547-.316884 24.14477.008802 2.5967.105628 4.8589 2.042142 5.343 4.594812.1497.78341.2025 1.63724.0528 2.42944-.0352.20246-.088.39611-.1584.58096-.044.10563-.1144.32568-.2113.41371-.1672-1.28514.1497-2.69351-.3168-3.90824-.2729-.73059-.669-1.45238-1.294-1.93651-2.0597-1.59322-5.0965-1.48759-7.5788-1.5316-6.8394-.13204-13.6348-.343292-20.44779.27287-.31688.02641-.62496-.08802-.92424-.03521-.67778.11443-1.32915.57215-1.82208 1.02107-.67778.62497-1.19712 1.41718-1.52281 2.2798-.08802.25527-.16724.51054-.23766.76581-.66017 2.53507-.3785 5.47505-.06162 8.04535-.29047-.0969-.49293-.3697-.58975-.669 0-.0088-.0088-.0264-.0088-.044z"/><path d="m37.221 12.4406c-.0088 1.0035-.0176 2.007-.0176 3.0104-.0088.4754-.0088.9595-.0088 1.4436-.0176 2.3062-.044 4.6036-.1408 6.9099-.0176.4049-.0088.7834-.1409 1.1619-.1496.4225-.1408.9418-.1936 1.3907-.0176.1409-.044.2905-.1496.3961-.0969.0969-.2377.1145-.3785.1233-.2201.0264-.449.044-.669.0704.132-.088.2288-.2113.3081-.3609.1056-.2201.132-.4753.1496-.7218.3257-4.0579.3521-8.1334.2377-12.2-.0176-.537-.0352-1.0739-.0528-1.6109-.0089-.1232.0176-.2376.0088-.3608-.0177-.1585-.0969-.3081-.2025-.4402-.2289-.2816-.581-.4577-.9154-.5721-2.4823-.83624-5.2638-.2289-7.7725-.97708h.2993c2.4118.14084 4.8149.28168 7.2179.42248.5809.0352 1.1883.0793 1.69.3785.7042.4225.7394 1.1972.7306 1.9365z"/></g><path d="m30.9356 27.4395c.2112.0352.4137.0616.6249.0968-.1144.4049-.2816.7834-.5281 1.1003-1.0035 1.2939-2.8784 1.5228-4.3572 1.6108-2.5086.1409-5.0173.2905-7.5259.2729-2.7024-.0176-5.3607-.2729-8.0542-.4577.8098-.0264 1.6285-.0352 2.4383-.0352-.2993-.044-.5986-.0881-.8979-.1145-1.3731-.1672-2.76389-.22-4.14586-.2728-.0176 0-.03521-.0088-.04401-.0088h-.03521c-.10563-.0264-.22006-.0617-.33449-.0969-.22886-.0704-.46652-.1496-.66017-.2816-.45772-.3257-.64257-.9331-.80101-1.4876-.35209-1.2676-.22006-2.5263-.14964-3.8114.07922-1.382.07922-2.764.05281-4.1459-.04401-1.7253-.12323-3.477-.17604-5.211.25526-.0264.51933-.044.7746-.0704.64257-.0528 1.27634-.0969 1.91891-.1321.0176 2.2798.14964 4.5684.23766 6.8394.0088.2465-.02641.493 0 .7306.01761.1409 0 .2289.09683.3433.13203.1673.51933.3345.74822.3785.2728.044.5633.0176.8362.0176.5986 0 1.2059 0 1.8045.0088-.5898.0969-1.1795.1585-1.7781.1849-.2553.0088-.5633-.0352-.801.044-.23767.0792-.47534.1144-.713.176-.07042.0176-.14084.0353-.18485.0881-.04401.044-.05281.1056-.07042.1672-.04401.2553-.0176.5105.05282.757.05281.1937.12323.3609.10563.5634-.04402.4753.0264.9594.09682 1.4347.02641.1761.03521.3345.14084.4842.22886.3168.63376.4929.99466.5897 2.7903.7658 5.7127.801 8.6087.8362 1.7076.0176 3.4153.0353 5.1229-.0176 1.1619-.0352 3.2833.2025 4.2868-.5193.1408-.0968.264-.2201.3609-.3609.6513.1056 1.3027.2113 1.9541.2993zm-21.89141-14.5151c.0088-.4841.05281-.9682.09683-1.4523.0088-.0793.0088-.1585 0-.2377-.01761-.1584-.01761-.2817.0176-.4313.08802-.3345.24647-.6866.56335-.86264.21125-.11443.46653-.12323.71303-.13203 1.1971-.03521 2.3942-.03521 3.5913-.00881-.9506-.09682-1.9013-.20245-2.8519-.29928-.537-.05281-1.0827-.11443-1.60207.01761.0176-.0088.07042-.14084.08802-.15844.03521-.06162.07922-.12323.12324-.17605.07922-.10563.17604-.21125.28171-.29928.1848-.15844.3521-.33449.5457-.48413.4137-.31688.889-.53694 1.3732-.71299.4577-.16724.933-.28167 1.4083-.3961.3257-.07922.6602-.07922.9947-.08802 3.7498-.05282 7.4996-.07042 11.2494-.09683.6249-.0088 1.2675.21126 1.8749.3785.4489.12323.9066.31689 1.1971.68658.2729.34329.4225.83622.5017 1.38197.889-.02641 1.7781-.07922 2.6847-.15844-.0792-1.06508-.264-2.09496-1.0122-2.90477-.8187-.88023-2.2094-1.06508-3.3361-1.1267-1.2676-.07042-2.5351-.11443-3.8026-.14964-.9947-.0176-1.9806-.03521-2.9664-.03521-2.0245-.0088-4.0139.07042-6.0208.17605-2.183.10563-4.9293-.63377-6.77779.86263-.91544.73939-1.35556 1.66364-1.54041 2.86075-.14084.90664-.14964 1.83087-.14964 2.74637 0 .7922.01761 1.5932.04401 2.4118.89784.0616 1.79568.0968 2.69352.0968.0088-.4753.0088-.9418.0176-1.4084zm23.16771 3.0721c-.044-1.7341-.132-3.4682-.2553-5.2022-.0176-.2729-.0352-.5458-.0528-.82743-.889-.05282-1.7868-.10563-2.6847-.15844.088.95067.0088 2.00697.0528 2.71107.0616 1.0915.1673 2.183.2553 3.2657.044.5281.088 1.0563.1144 1.5844.0088.1673.044.3081-.0528.4489-.1672.2465-.5281.2905-.801.3081-1.4612.0968-2.94.1321-4.3659.4753 1.8132.0705 3.6265.0353 5.431-.0968-.0352.1585-.0792.3257-.1144.4842-.0353.1408-.0881.2904-.0881.4313 0 .088.0352.176.044.264.0265.1497.0088.3169.0176.4666.0089.6689 0 1.3379-.0088 2.0069-.0088.5633-.0264 1.1267-.044 1.6812-.0088.0616-.0088.1321-.0088.1937-.0352.9154-.044 2.271-.6601 3.0896.8802.088 1.7604.1144 2.6319.0968.1672-.7306.22-1.514.2992-2.1918.2905-2.3678.2553-4.7796.2817-7.165.0088-.625.0088-1.2412.0088-1.8573.0088.0088 0 0 0-.0088z" fill="url(#e)"/><g fill="#e68b4a"><path d="m22.8124 30.353c1.1531-.0176 2.3326-.0352 3.4769-.2113.2377-.0352.493-.0264.7394-.044.5194-.0352 1.0299-.088 1.5404-.1584.3345-.0441.669-.0969.9947-.2113.9771-.3345 1.7517-1.2147 1.9629-2.227-.5369-.0264-1.1531-.0264-1.69-.0528.4489-.0792 1.1091.1496 1.3115.5633-.5809.5106-1.2323.9683-1.9717 1.1708-.3961.1056-.8098.1408-1.2147.1672-2.7728.2113-5.5543.4313-8.327.3785-1.338-.0176-2.6671-.1056-4.0051-.0528-.3873.0176-.7746.044-1.1531.0528-.22.0088-.4401.0264-.6602-.0088-.1496-.0176-.308-.0088-.4577-.0088-.3345 0-.6602-.0088-.9946-.0264-.6602-.0264-1.3204-.0792-1.9806-.1497-.71296-.0792-1.43475-.176-2.13893-.308-.3433-.0616-.70419-.1409-.95066-.3697-.16724-.1585-.27287-.3697-.36089-.5722-.29048-.669-.48413-1.3819-.57215-2.1037-.25527.889.0088 1.8661.59856 2.5878.55454.6778 1.40837 1.0651 2.26219 1.2236.64257.1232 1.36438.1848 2.00698.1144.1408-.0176.2816 0 .4313.0088.3345.0176.6689.0352 1.0034.0528.669.0352 1.338.0616 2.007.0792.6689.0176 1.3291.0264 1.9981.0352.3081 0 .6426.0353.9506-.0088.2993-.044.6338.0088.9419.0177 1.3379.044 2.6847.0792 4.0227.0704.0704-.0088.1496-.0088.2288-.0088z"/><path d="m32.8636 10.2399s-1.0827-.0352-1.1795-.0352c-.4049-.0176-.801-.044-1.2059-.0704-.2025-.0177-.4049-.0265-.5986-.0441-.0968-.0088-.2024-.0176-.2992-.0264-.0529-.0088-.1145-.0176-.1761-.0176-.0264 0-.044.0088-.0616.0088-.0352-.0088-.0792-.0176-.1144-.0264-.1585-.04399-.3169-.0792-.4754-.12321 0-.0264-.0088-.04401-.0088-.07042 0-.0088.2201-.0088.2377-.0088.0616.0088.132.02641.1937.01761.0528-.00881.0968-.01761.1496-.01761h.2465c.3344 0 .6689.0088.9946.02641.3345.0176.669.03521.9947.06162.3345.0264.669.06161.9946.1056.1145.0176.2377.0264.3521.044.0176.0793-.044.0881-.044.1761z"/><path d="m9.40469 14.3506c-1.05628.1056-2.11255.2465-3.16003.4401-.07042-.0704-.09683-.1496-.07922-.2377 1.10029-.132 2.13016-.1584 3.23925-.2024z"/></g><path d="m30.1966 16.9117c.0352 2.4559-.0352 4.8765-.1937 7.2707-.0352.537-.0704 1.0827-.1232 1.6197-.132 1.6284-1.4524 2.9135-3.0808 3.028-5.2022.3521-10.5188.3344-15.9322-.0088-1.65487-.1057-2.98402-1.4348-3.08965-3.0897 0-.0264-.0088-.044-.0088-.0704-.21126-4.1547-.24647-8.3798-.11443-12.6753.0088-.2025.0088-.4049.0176-.6074.03521-.8186.06162-1.6284.10563-2.44703.0088-.19365.03521-.3785.07922-.56335 0-.03521.0088-.07042.02641-.10563.34329-1.39077 1.56681-2.42064 3.05442-2.49986 5.1934-.25527 10.4483-.25527 15.7826.0088 1.6636.07922 3.028 1.38197 3.16 3.04561.1232 1.55796.2112 3.09846.2641 4.63006.0352.8274.0528 1.646.0528 2.4646z" fill="#e58b4a"/><path d="m21.9054 10.1719c-.0157.0469-.0313.0937-.0469.1406v.1172.1875c.0156.1094.0234.1953.0234.2578l.0235.3984v.3985.3281c.0156.0312.0234.0625.0234.0938-.0469.2031-.0703.3437-.0703.4218v.2344c-.0156.1406-.0235.2891-.0235.4453 0 .1563-.0078.2969-.0234.4219 0 .0312-.0078.0859-.0234.164v.1641c0 .1094-.0078.1953-.0235.2578v.1875c-.0312.1406-.0468.2422-.0468.3047v.1406c.0156.0469.0156.0938 0 .1407-.0313.2187-.0469.3437-.0469.375v.4453c0 .0781.0078.1562.0234.2343.0156.0626.0235.1329.0235.211 0 .1094-.0079.2187-.0235.3281v.2813c-.0156.1406-.0156.2656 0 .375.0156.0937.0235.1796.0235.2578.0156.0781.0156.1484 0 .2109v.1875c.0156.0938.0156.211 0 .3516 0 .125.0078.2656.0234.4218.0312.2032.0391.336.0234.3985v.1641.3984c-.0312.1094-.0468.1797-.0468.2109.0156.0313.0234.0625.0234.0938v1.0312.3516c.0156.0781.0078.1641-.0234.2578.0468.1563.0625.2578.0468.3047 0 .0312.0078.0625.0235.0937v.2344c.0156.0625.0234.1328.0234.2109.0156.125.0156.2579 0 .3985 0 .125.0078.2265.0234.3047.0157.1562.0157.25 0 .2812v.0703.3047c.0157.0469.0235.086.0235.1172.0156.1094.0234.211.0234.3047.0156.0937.0391.1875.0703.2813.0157.1406.0235.2734.0235.3984.0156.125.039.2578.0703.3984 0 .0938.0156.1875.0469.2813.0312.0937.039.1562.0234.1875v.0703.1406c.0156.0313.0078.0781-.0234.1406-.0313.1563-.0469.2657-.0469.3282 0 .0468-.0078.1015-.0235.164-.0625.1094-.1093.1719-.1406.1875-.0156 0-.0312.0156-.0469.0469-.0781.0937-.1328.1484-.164.1641-.0156 0-.0313.0156-.0469.0468l-.2344.1172c-.0781.0469-.1562.0625-.2343.0469-.0625 0-.1329.0078-.211.0234l-.3515.0235c-.1407-.0156-.2266-.0235-.2579-.0235-.0312.0157-.0625.0235-.0937.0235-.0469 0-.0938-.0078-.1406-.0235-.0469 0-.086 0-.1172 0h-.4219c-.0781 0-.1562-.0078-.2344-.0234-.0625-.0156-.1328 0-.2109.0469-.1094-.0156-.2188-.0078-.3281.0234-.1094.0313-.2188.0547-.3282.0703-.1093-.0156-.2109-.0156-.3046 0-.0782.0157-.1485.0235-.211.0235-.125.0312-.1953.039-.2109.0234 0 0-.0156 0-.0469 0-.0312-.0156-.0781-.0234-.1406-.0234-.0469.0156-.0938.0234-.1406.0234-.0625 0-.1329-.0078-.211-.0234-.0625-.0157-.125-.0235-.1875-.0235-.1562-.0937-.2344-.1406-.2344-.1406-.1718-.125-.2734-.1953-.3046-.2109-.0313-.0157-.0625-.0313-.0938-.0469-.0312-.0781-.0703-.1328-.1172-.1641-.0469-.0468-.0859-.1015-.1172-.164-.0156-.0313-.0312-.086-.0468-.1641 0-.0781 0-.1328 0-.1641 0-.2187 0-.3828 0-.4922 0-.125.0156-.25.0468-.375.0157-.1406.0547-.2968.1172-.4687.0469-.1406.0703-.25.0703-.3281.0157-.0469.0313-.1016.0469-.1641s.0234-.1172.0234-.1641c.0157-.0468.0157-.0937 0-.1406 0-.0468 0-.0859 0-.1172.0469-.25.0625-.4296.0469-.539 0-.1094 0-.211 0-.3047v-.8672-.4453c0-.2344 0-.4375 0-.6094.0156-.1875.0078-.375-.0234-.5625-.0313-.125-.0469-.2031-.0469-.2344.0156-.0312.0234-.0625.0234-.0937 0-.0938 0-.1797 0-.2578.0157-.0938.0157-.1875 0-.2813-.0156-.2343-.039-.4609-.0703-.6797-.0156-.2343-.0234-.4687-.0234-.7031v-.2812c-.0156-.0938-.0313-.1875-.0469-.2813 0-.0937 0-.1953 0-.3047v-.375c-.0156-.1093-.0234-.2109-.0234-.3047.0156-.1875.0156-.3125 0-.375s-.0235-.1172-.0235-.164c-.0312-.0938-.0546-.1875-.0703-.2813 0-.0937-.0078-.1953-.0234-.3047-.0313-.2031-.0547-.3281-.0703-.375 0-.0468 0-.1093 0-.1875.0156-.0468.0156-.1093 0-.1875 0-.0781 0-.1562 0-.2343v-.3047c-.0156-.1563-.0235-.2344-.0235-.2344.0157-.0156.0235-.0312.0235-.0469-.0156-.1875-.0235-.375-.0235-.5625.0157-.2031.0157-.3984 0-.5859-.0156-.2031-.0312-.3672-.0468-.4922-.0157-.125-.0313-.25-.0469-.375-.0156-.0781-.0313-.1484-.0469-.2109 0-.0782 0-.1563 0-.2344-.0156-.0469-.0234-.086-.0234-.1172 0-.0469-.0078-.1016-.0235-.1641-.0156-.0937-.0312-.1797-.0468-.2578-.0157-.0937-.0235-.1797-.0235-.2578.0313-.1094.0391-.2187.0235-.3281 0-.1094.0078-.1797.0234-.211 0-.0624.0078-.1093.0234-.1406.0313-.0468.0469-.1015.0469-.164.0625-.0938.125-.17191.1875-.23441.1719-.10938.2735-.16407.3047-.16407.0469 0 .0938.00782.1406.02344.0625.01563.1172.02344.1641.02344.0312 0 .0703-.00781.1172-.02344.0469-.01562.0937-.02344.1406-.02344.0469.03126.0938.04688.1406.04688.0625-.01562.1172-.02344.1641-.02344.1875-.04687.3047-.0625.3516-.04687.0625.01562.1171.01562.164 0h.3985c.0625.01562.1171.02343.164.02343.0625-.01562.1172-.02343.1641-.02343h.7734c.1719-.03125.2813-.04688.3281-.04688.0782-.01562.1563-.02343.2344-.02343.0938-.01563.1797-.03126.2578-.04688.0782-.01562.1719-.01562.2813 0h.3047c.2031.03125.3359.04688.3984.04688.2188.09374.3516.14062.3984.14062.0625 0 .1094.00781.1407.02344.0312.01562.0625.04687.0937.09375.0313.03125.0625.0625.0938.09375z" fill="#693821"/></svg>