<svg fill="none" height="76" viewBox="0 0 141 76" width="141" xmlns="http://www.w3.org/2000/svg" xmlns:xlink="http://www.w3.org/1999/xlink"><linearGradient id="a"><stop offset="0" stop-color="#cf5c2b"/><stop offset="1" stop-color="#59173e"/></linearGradient><linearGradient id="b" gradientUnits="userSpaceOnUse" x1="107.945" x2="61.8329" xlink:href="#a" y1="-111.041" y2="-26.3131"/><linearGradient id="c" gradientUnits="userSpaceOnUse" x1="80.1077" x2="34.0547" xlink:href="#a" y1="-33.1678" y2="132.669"/><linearGradient id="d" gradientUnits="userSpaceOnUse" x1="79.752" x2="20.8424" xlink:href="#a" y1="-27.8102" y2="177.595"/><linearGradient id="e" gradientUnits="userSpaceOnUse" x1="74.036" x2="69.9788" xlink:href="#a" y1="94.4912" y2="47.5743"/><linearGradient id="f" gradientUnits="userSpaceOnUse" x1="119.243" x2="104.538" xlink:href="#a" y1="17.7639" y2="44.6054"/><linearGradient id="g" gradientUnits="userSpaceOnUse" x1="145.468" x2="22.7406" xlink:href="#a" y1="-69.6428" y2="124.792"/><linearGradient id="h" gradientUnits="userSpaceOnUse" x1="106.924" x2="97.6483" xlink:href="#a" y1="15.3542" y2="32.2844"/><linearGradient id="i" gradientUnits="userSpaceOnUse" x1="123.464" x2="46.0547" xlink:href="#a" y1="-39.778" y2="82.8607"/><linearGradient id="j" gradientUnits="userSpaceOnUse" x1="27.0223" x2="17.7466" xlink:href="#a" y1="30.7659" y2="47.6961"/><linearGradient id="k" gradientUnits="userSpaceOnUse" x1="43.5624" x2="-33.8472" xlink:href="#a" y1="-24.3672" y2="98.272"/><path d="m140.676 59.8055c-.073-1.5508-.146-3.1017-.208-4.6526-.062-1.6269-.135-3.269-.197-4.8959-.042-1.1099-.104-2.2959-.125-3.4514-.021-.9579.249-2.5392-.104-3.4059-.207-.5169-.664-.669-1.069-.7754-.529-.1368-1.059-.2737-1.588-.4105.716-.2433 1.412-.5474 2.097-.9275.156-.0912.311-.1825.415-.3649.094-.1673.125-.3953.145-.593.239-2.1286.083-4.3789.083-6.538-.01-2.1894-.01-4.3941-.02-6.5836-.011-2.083-.011-4.1813-.021-6.2643 0-.6842.197-2.1895-.042-2.7976-.186-.5018-.633-.4714-.975-.5322-.353-.0608-.706-.0608-1.059-.0304-.53.0456-1.049.1672-1.568.2889.685-.2737 1.391-.4105 2.076-.6538.447-.1521.883-.3649 1.298-.6842.249-.1977.519-.3649.664-.7451.063-.152.083-.3497.115-.5321.062-.3801.072-.7755.093-1.1708.042-1.0795.073-2.159.083-3.2538.01-.5473.01-1.09469 0-1.64206 0-.34971-.093-.68421-.114-1.04912-.094-1.47485-.498-2.88888-1.142-4.02922-.644-1.12515-1.526-1.9462-2.502-2.32631-.363-.13684-.727-.21287-1.1-.24327-43.8915-2.022219-86.9108-2.098242-128.99577.0304-.1661.01521-.34258-.0152-.50867.04562-.1661.07602-.3322.16725-.50868.25848-.34257.18245-.68515.36491-1.01734.60818-.64363.45614-1.24574 1.06433-1.66098 1.91578-.23877.50176-.40486 1.06433-.62287 1.56608-.11419.25848-.25952.45614-.35295.72982-.44639 1.3076-.89278 2.6304-1.515644 3.78592-.602103 1.1252-.7785819 2.9193-.7162953 4.3029.0934303 1.8854.1245733 3.786.2387653 5.6714.18686 2.9953.010381 5.9906.238765 9.0163.031143.4257.083049.9123.301052 1.186.155716.1976.363337.2736.560577.3345.64363.2128 1.29764.4105 1.94127.6234-.79935.7602-1.99317.821-2.418798 2.0678-.134955.4105-.155717.8666-.176479 1.3228-.072668 1.6117-.176479 3.2082-.249146 4.8046-.031144.7147-.062287 1.4445-.072668 2.1591-.020762.6842-.051905 1.3532-.103811 2.0374-.103811 1.5965-.3841 3.6643-.051905 5.2304.321814 1.5053 1.609067 1.5661 2.491467 1.931-.46715.076-.82011.6386-1.1004 1.2012-.13495.2889-.23877.5777-.36334.8666-.11419.2585-.218.517-.311432.7907-.186859.5473-.342576 1.1099-.456768 1.7029-.072668.3953-.114192.6994-.124573 1.1099-.010381.3649-.020762.7298-.031143 1.0948-.020763.7298-.031144 1.4596-.041525 2.1894-.020762 1.4597-.031143 2.9193-.020762 4.3789.010381 1.4141-.218003 2.7825.18686 4.1661s1.100393 2.5696 1.972413 3.345c.70591.6386 1.50525.9731 2.33574 1.034 42.32374 2.7216 85.35334 2.6912 129.04704-.0153 1.153-.076 2.263-.745 3.115-1.9005.405-.5474.768-1.0339 1.069-1.7334.374-.8362.716-1.7029 1.038-2.5848.789-2.1438 1.775-4.5309 1.651-7.0093z" fill="url(#b)"/><path d="m135.878 67.5763c-43.704 2.6913-86.7233 2.7369-129.047.0152-1.87898 0-3.63338-1.9766-4.3393-4.4549-.31143-1.1099-.37372-2.3111-.33219-3.4971.01038-.2128.02076-.4105.06228-.6234.06229-.3193.1661-.5929.18686-.9274.01038-.1825.03115-.3345.04153-.517.07267-.9427.09343-1.9006.14533-2.8433.03115-.5321.07267-1.0795.17648-1.5964.11419-.593.30105-1.1252.62287-1.4901 1.39106-1.5357 4.12129-1.5053 6.1456-1.5661.39449-.0152.75784-.0304 1.09004-.0608.8824-.076 1.7648-.1064 2.6472-.1064-2.097-.0152-4.18362-.2737-6.24946-.8059-.97582-.2432-1.95165-.5473-2.91709-.9123-.22838-.076-.47753-.1976-.69553-.3497-.30105-.1976-.56058-.4865-.69553-.9122-.1142-.3649-.10381-.7907-.10381-1.1708.01038-.3801-.03115-.7754-.01039-1.1555.02077-.8211.09343-1.6117.14534-2.4176.0519-.6538.10381-1.3076.13495-1.9766.07267-1.7485.14534-3.497.23877-5.2456.03114-.5321.07267-1.1099.32181-1.4748.15572-.2281.35296-.3345.5502-.441.53982-.2888 1.09002-.5017 1.65059-.6385.29068-.0761.58135-.0761.83049-.1673.30105-.1368.52944-.2281.85125-.2737 3.08321-.5321 6.16641-1.0491 9.25991-1.5813.3634-.0608.7371-.1216 1.1108-.1824-4.6507-.8211-9.31184-1.6725-13.96257-2.4936-.20762-.0456-.40486-.076-.61248-.1064-.18686-.0304-.3841-.076-.50867-.2737-.01039-.0152-.02077-.0304-.03115-.0456-.09343-.1825-.10381-.3953-.12457-.6234-.20762-3.6795.03114-7.4807-.11419-11.2058-.01038-.2129-.05191-1.2468-.09343-2.4327-.05191-1.7182-.13496-3.67955-.1661-3.67955-.19724-4.09004 1.94126-7.61751 4.74416-7.75435 42.0746-2.143854 85.0938-2.067831 128.954 0 2.813.13684 4.972 3.67951 4.754 7.79997-.072 1.39883.115 2.75203-.124 4.16603-.052.3345-.125.669-.301.8971-.156.1977-.363.2737-.561.3345-.529.1825-1.059.3801-1.588.5626-.706.2432-1.401.4713-2.118.593-4.235.6538-8.45 1.3228-12.675 1.9918-.114.0152-.228.0304-.343.0456-.135.0152-.27.0456-.405.0608.343-.0152.675-.0152 1.007-.0152 5.295-.1369 10.6-.2585 15.904-.3953.146 0 .312 0 .426.1368.135.1521.166.4105.187.6538.031.3345.031.6538.031.9579-.01.9883-.125 1.931-.125 2.9345 0 .8819.146 1.7485.146 2.6608-.011 1.3076-.042 2.6152-.073 3.938-.083 2.9801-.228 6.0058-.446 9.0011-.032.441-.073.8971-.27 1.2164-.156.2433-.384.3801-.602.4865-.135.0761-.27.1369-.416.1825-3.114 1.3076-6.519.2737-9.716 1.0795-.208.0456-.426.1065-.623.1825-.073.0152-.146.0456-.208.076.26.0304.519.0456.779.0912 3.498.3649 6.986.8819 10.464 1.5357.405.076.862.1825 1.1.669.187.3649.187.8667.187 1.3228v1.5053c0 1.5204 0 3.0409.052 4.5613.062 2.0071.145 4.0141.239 6.0363.041.9883.083 1.9766.135 2.9497.187 4.0748-1.941 7.5871-4.724 7.7695z" fill="url(#c)"/><path d="m140.006 24.9861c-.011 1.3076-.042 2.6152-.073 3.938-1.796.2432-3.55.4409-5.273.7298-.405.0608-.8.1216-1.205.1976-1.484.2281-2.969.441-4.453.6234-.737.0913-1.485.1825-2.232.2737-.478.0608-.903.3345-1.36.4105-.644.1065-1.35-.1368-2.004-.1976-.726-.0608-1.453-.0912-2.18-.076-1.453.0304-2.917.1824-4.36.4257-2.906.4865-5.772 1.2924-8.657 1.9918-4.62 1.1251-9.2604 1.9918-13.9319 2.5544 2.5433.3649 5.066.9731 7.5469 1.8093-.934.1064-1.8685.2129-2.8028.2889-2.969.2737-5.9379.4105-8.9069.4865-2.969.0761-5.9484.0761-8.9174.0609-2.969 0-5.9484-.0152-8.9174.0152-2.969.0456-5.9379.1368-8.9069.3345-1.4845.1064-2.969.228-4.4432.3953-.3737.0456-.737.0912-1.1107.1368-.4464.0608-.8824.2433-1.3392.3193-3.5399.6082-7.0799 1.3684-10.5783 2.3719-5.4397 1.5661-10.9106 3.1018-16.4437 3.6491-.9966.0913-2.0035.1825-3.0001.2737-4.7649 1.3988-9.914 1.6877-14.5855 2.524-1.5883.2889-3.20772.4409-4.82717.5321-.97582-.2432-1.95165-.5473-2.91709-.9122-.22838-.076-.47753-.1977-.69553-.3497-.30105-.1977-.56058-.4866-.69554-.9123-.11419-.3649-.10381-.7906-.10381-1.1708.01038-.3801-.03114-.7754-.01038-1.1555.02076-.8211.09343-1.6117.14534-2.4175 4.27701-.517 8.66818-2.3263 12.77908-3.2082 5.284-1.1099 10.6718-1.7637 15.9973-2.2047 6.0314-.4865 12.0525.5626 18.0631.5626 5.5747 0 11.1286-.7146 16.6721-1.3684 10.8067-1.2772 21.5926-2.6 32.3786-3.9684-2.3461-.0608-4.6922-.1521-7.0384-.2737-2.9897-.152-5.9795-.3497-8.9692-.5778-.6956-.0456-1.4119-.1824-2.097-.076-.7163.1216-1.443.152-2.1593.1368-1.4222-.0304-2.8444-.2888-4.2251-.7906-.8097-.2889-1.6195-.669-2.4396-.8819-1.391-.3497-2.8132-.2432-4.2354-.2736-5.284-.1065-10.485-2.1439-15.7689-2.0679-1.3911.0152-2.7718.1825-4.1525.3649-1.4637.1977-2.9378.3954-4.4119.4562-.654.0304-1.3288.0912-1.9621-.1217-.4879-.1672-1.0485-.0912-1.5468-.1064-.8927-.0304-1.7855-.0608-2.6783-.0912-1.7855-.0608-3.5711-.0912-5.367-.1065-6.7789-.0456-13.5369.5018-20.3158.4258-2.88595-.0304-5.83418-.1217-8.68898-.7298-.01038-.0152-.02076-.0305-.03114-.0457-.09343-.1824-.10381-.3953-.12458-.6233-.20762-3.6796.03115-7.4807-.11419-11.2058-.01038-.2129-.0519-1.2468-.09343-2.4328 3.45691-.4409 6.93457-.5473 10.39152-.9122 6.7684-.7299 13.5369-1.0492 20.3365-1.0035 13.4643.0912 26.8974 1.3532 40.3202 2.8432 13.4331 1.4901 26.8355 3.3298 40.2685 4.7286 6.789.6995 13.589 1.1404 20.388 1.1404 1.993 0 4.007-.1825 6.021-.3953-.01.9883-.124 1.931-.124 2.9345.031.9578.176 1.8245.166 2.7216zm.218 25.8326c-.052-1.5205-.052-3.0409-.052-4.5614-4.287-.6842-8.585-1.3836-12.893-1.8245-7.392-.7451-14.825-.6234-22.226-.1825-1.537.0912-3.052.152-4.578.4257-.7375.1369-1.4745.2737-2.2116.3953-2.9586.517-5.9172.9275-8.8862 1.262-1.1523.1217-2.315.2433-3.4777.3497 3.0002-.0304 6.0003-.0608 9.0004-.0912 3.0002-.0304 6.0001-.0608 9.0001-.0912 1.495-.0152 3-.0304 4.495-.0456.748-.0152 1.495-.0152 2.253-.0304.312 0 .644.0304.955-.0761.187-.0608.374-.1672.561-.2128.674-.1521 1.422.0456 2.097.1064.747.0608 1.484.1216 2.232.1825 1.484.1368 2.979.2888 4.464.4409 2.346.2585 4.681.5474 7.017.8514 2.554.3345 5.087.7755 7.63 1.2316-5.772.8059-11.533 1.6421-17.315 2.1135-13.309 1.0795-26.6176 2.4327-39.9469 2.0374-13.1425-.3649-26.2538-1.4749-39.4066-1.3988-6.9346.0304-13.8588.1976-20.7726.5017-5.1075.2129-10.2773.1825-15.37442.9427-.10381.5017-.14534 1.0643-.17648 1.5965-.0519.9427-.07267 1.9005-.14533 2.8432 5.67845.3345 11.41923-.228 17.08733-.2432 6.9241-.0153 13.8483.076 20.7725.3192 13.1217.4562 26.2331 1.5205 39.3444 1.855 13.3501.3497 26.6691-1.0491 39.9881-2.0374 6.872-.5018 13.786-.517 20.658-.6234h.146c-.094-2.0222-.177-4.014-.239-6.0362z" fill="url(#d)"/><g fill="#eb924d"><path d="m3.28881 45.6046c-.01038.7602-.01038 1.5357.15572 2.2503-.30105-.1977-.56058-.4866-.69553-.9123-.11419-.3649-.10381-.7906-.10381-1.1707.01038-.3802-.03115-.7755-.01038-1.1556.04152-1.4749.22838-2.9193.28029-4.3941.07266-1.7486.14533-3.4971.23876-5.2456.03114-.5322.07267-1.11.32181-1.4749.15572-.2281.35296-.3345.5502-.4409.53982-.2889 1.09002-.5018 1.6506-.6386.25952-.0912.55019-.0912.79934-.1825.30105-.1368.52944-.228.85125-.2737 3.08314-.5321 6.16634-1.0491 9.25994-1.5812-3.3116.9883-6.62314 1.9462-9.94509 2.9345-.64363.1824-1.50526.1824-2.04508.8058-.11419.1216-.20762.2737-.30105.4257-.08305.1369-.15572.2889-.24915.4258-.17647.228-.23876.5929-.32181.9122-.218.9275-.34258 1.9006-.37372 2.8737-.01038.3649-.01038.745-.04152 1.11-.01038.0912-.02077.1824-.03115.2736-.01038.1065-.0519.1825-.07266.2889-.1661.7451-.14534 1.5661-.07267 2.3263.03114.2737.09343.5474.13495.8211.10381.6538.03115 1.3532.02076 2.0222z"/><path d="m122.842 17.9917c-.187-.0151-.374-.0303-.561-.0454h.893c-.104 0-.218.0303-.332.0454z"/><path d="m125.891 40.541c.861.1217 1.723.2433 2.585.3345-.208.0456-.426.1065-.623.1825-.665-.1825-1.329-.3649-1.962-.517z"/><path d="m138.578 38.6707c.135-.7906.104-1.6116.052-2.4175-.072-1.4901-.155-2.9953-.228-4.4854-.01-.2889-.042-.6082-.197-.7906-.125-.1521-.301-.1521-.457-.1368-1.287.0608-2.564.1216-3.831.1824 1.381-.1825 2.751-.7146 3.997-1.5965.363-.2585.737-.5778.872-1.1099.073-.2737.073-.5778.073-.8819-.021-2.3567-.301-4.9871-.499-7.3286-.602-.8363-1.505-.9427-2.335-1.0187-3.343-.3041-6.696-.593-10.029-.8971-.799-.076-1.692-.1217-2.543-.1825 5.294-.1368 10.599-.2585 15.904-.3953.145 0 .311 0 .426.1368.135.1521.166.4106.186.6538.115 1.3381-.103 2.5696-.103 3.8924 0 .8819.145 1.7486.145 2.6609-.052 4.2268-.208 8.6362-.529 12.9391-.032.4409-.073.8971-.27 1.2164-.156.2433-.384.3801-.602.4865-.135.0761-.27.1369-.416.1825.177-.3041.312-.6994.384-1.11z"/><path d="m2.35675 15.4397c-.02076-.5017-.20762-6.09704-.26991-6.09704-.19724-4.09005 1.94126-7.61752 4.74416-7.75436 42.0746-2.143854 85.0938-2.067831 128.954 0 2.813.13684 4.972 3.67952 4.754 7.79997-.072 1.39883.115 2.75203-.124 4.16603-.052.3345-.125.669-.301.8971-.156.1977-.363.2737-.561.3345-.529.1825-1.048.3953-1.578.5626.457-.6082.987-1.3228 1.194-2.2047.145-.593.031-1.1099-.104-1.6725-.207-.8819-.249-1.71812-.27-2.6456-.031-1.14035.104-2.76724-.508-3.67952-.467-.68421-1.08-1.27719-1.661-1.70292-1.443-1.03391-3.115-1.26198-4.703-1.35321-.083 0-.156-.0152-.239-.0152-2.927-.13685-5.865-.15205-8.792.28888-.353.04562-.665.19766-1.007.28889-.426.12164-.935-.03041-1.371-.06082-.996-.07602-1.982-.13684-2.979-.19766-1.983-.10643-3.976-.18245-5.969-.22807-1.495-.03041-2.98-.03041-4.474-.03041-.468 0-.945 0-1.412 0-.903 0-1.807 0-2.72 0-1.256 0-2.512 0-3.7684-.0152-.0623 0-.1246 0-.1765 0-1.9932 0-3.976-.0152-5.9691-.0152-.9966 0-1.9932 0-2.9794-.01521-.4568 0-.9654.09123-1.4118-.03041-.4568-.12164-.8201-.53216-1.2977-.59298-.436-.06082-.8824.04562-1.308.10643-1.09.12164-2.1696.27369-3.2493.45614-.4879.07603-1.0277.19766-1.3495.72982-.1142.18246-.1972.41053-.3322.56258-.3011.31929-.7267.10643-1.0796-.07603-.6956-.3497-1.4326-.54736-2.1801-.59298-.6747-.04561-1.3391.13684-2.0139.07603-.4256-.03041-.8305-.18246-1.2457-.3041-1.6402-.47134-3.3531-.50175-5.0037-.68421-1.225-.13684-2.4603-.22806-3.6957-.28888-3.9759-.21287-7.9623-.09123-11.9279.15204-1.9931.12164-3.9759.27369-5.9691.45614-.9135.07602-1.9205.36491-2.8236.18246-.2596-.04562-.5087-.19766-.7682-.27369-.27-.07602-.5399-.06081-.8201-.06081-1.1004.0152-2.2112.0304-3.3116.0304-1.2873.01521-2.5849 0-3.8825 0-.436 0-.8617.12164-1.2873.12164-.3945 0-.7786-.12164-1.1731-.12164-.8201.01521-1.6298.24328-2.3876.69942-.2907.18245-.5917.38011-.9136.36491-.5813-.04562-.9758-.85146-1.5052-1.21637-1.2457-.866665-2.533.79064-3.8099.12164-.6332-.33451-1.2768-.28889-1.9516-.28889-.8513-.01521-1.7025-.01521-2.5538-.01521-2.8859.01521-5.7719.16725-8.637.59298-1.4326.21287-2.85484.50176-4.27705.86667-.68515.18245-1.38068.47134-2.07622.59298-.19724.03041-.35295.03041-.53981.22807-.85125.86666-3.187 5.71694-1.51564 7.4199.10381.1064.218.1976.34257.2736.17648.1065.36334.1521.5502.2433.18686.1064.42563.0304.62287.0304.47753 0 .95506 0 1.42221-.0152.50867 0 1.01734-.0152 1.49487.1977-1.07963.3345-2.15926.6538-3.2389.9731-.35295.1064-.70591.2128-1.03811.4257-.0519.0456-.11419.0608-.17648.0912-.22838.1217-.39448.5322-.47753.8515-.218.8362-.08304 1.7485-.17647 2.6152-.1661 1.5509.04152 3.2234.14533 4.759.13495 1.9766.30105 3.9684.49829 5.945-.20762-.0456-.40486-.076-.61248-.1064-.19724-.0304-.40486-.076-.53982-.3041-.09343-.1824-.10381-.3953-.12457-.6234-.20762-3.7099.03114-7.5111-.10381-11.221z"/><path d="m140.592 59.8046c-.145-2.9953-.27-5.9906-.374-8.9859-.062-2.0222-.052-4.0444-.052-6.0666 0-.4562-.01-.9427-.187-1.3228-.238-.4866-.695-.593-1.1-.669-3.478-.6538-6.966-1.1708-10.464-1.5357 3.114.8819 6.332 2.007 9.291 3.2082.581.2432.623.897.862 1.7029.228.8058.249 1.7181.269 2.5848.011.3649.011.7298-.072 1.0795-.177.7754-.737 1.2012-1.236 1.5661.374.152.748.3041 1.132.4713.093.0456.187.076.249.1825.073.1064.104.2888.114.4561.146 1.4444.031 2.9649.042 4.4245.01.9427.01 1.8854.021 2.8281.01.2585.072.5017.114.7754.062.5474.021 1.11-.094 1.6421-.228 1.0947-.737 2.0678-1.391 2.6912-1.131 1.0796-2.543 1.3076-3.893 1.4445-2.252.2432-4.515.2128-6.758.5321-.747.0913-1.484.1977-2.232.2889-1.484.1825-2.979.3345-4.464.4866-2.813.2736-5.636.4865-8.45.6233-6.664.3346-13.3394.3041-20.0145.2433-.7993-.0304-1.6091-.0304-2.4084-.0304-.654 0-1.2769.1217-1.9205.0304-1.5676-.228-3.1247.1825-4.6819.441-1.8167.2888-3.7683.3192-5.3359-1.0492-.4983-.4409-.9862-1.0187-1.5675-1.0491-.4775-.0152-.9239.3801-1.3599.6842-.8305.5778-1.7441.8971-2.6576 1.0644-.0208 0-.0311-.0001-.0519.0152-1.9413.3649-3.8099.1672-5.7511-.0305-1.4222-.1368-2.9171.2129-4.277-.5321-1.0485-.5626-2.1489-1.3684-3.2286-.9427-.3841.152-.7266.4561-1.09.669-.7059.4105-1.4845.4866-2.2423.5474-.4775.0304-.9551.0608-1.4326.0912-1.9828.0912-3.9759.076-5.9587-.0456-.8305-.0608-1.6818-.0456-2.4915-.3953-.5606-.2433-1.1108-.0913-1.6921-.0304-2.4084.228-4.8272.2888-7.246.1672-.9862-.0456-1.9724-.1216-2.9483-.2281-.4775-.0456-.9758-.1824-1.4533-.1824-.3322 0-.6333.152-.9655.152-2.0035-.0152-3.9967-.0608-6.0002-.0912-3.4154-.0456-6.8412-.1064-10.2566-.152-2.3357.4713-4.2977-.1217-6.61271-.7451-1.89974-.5169-3.96558-1.6421-4.75454-4.2268-.3322-1.0796-.3841-2.2807-.35296-3.4363.01038-.3497.03114-.6842 0-1.0339-.03114-.3193-.10381-.6082-.13495-.9275-.10381-1.0491.11419-2.2655.29067-3.2842.09343-.5169.20762-1.0643.46715-1.4596.22838-.3649.55019-.5778.87201-.7298.85125-.3953 1.7544-.4866 2.64718-.5626 1.28725-.1064 2.57451-.2281 3.86175-.3345.2595-.0152.5191-.0456.7786-.0608-.0311-.1825-.0519-.3649-.0519-.5626l.0104-.076c-.789-.0304-1.578-.0304-2.36692-.0456-2.03469.0608-4.75454.0456-6.14561 1.566-.62286.6843-.73705 1.9462-.79934 3.0714-.06229 1.1099-.08305 2.2503-.18686 3.3602-.03114.3345-.12457.6082-.18686.9275-.04152.2128-.0519.4105-.06229.6234-.04152 1.2011.02077 2.4023.3322 3.497.69553 2.4936 2.44994 4.455 4.3393 4.455 42.32368 2.7216 85.34298 2.6912 129.04758-.0152 2.782-.1673 4.91-3.6796 4.713-7.7544z"/><path d="m9.89453 37.7123c0 .8211.02076 1.6573.05191 2.4784.01038.4105.03114.821.0519 1.2315.01036.3041 0 .6386.04156.9275.0415.2433.083.4562.083.7146.0208.6995.0415 1.4141.0727 2.1135.0415 1.414.0934 2.8128.1349 4.2269.0623 1.8093.1142 3.6035.1765 5.4128.0312 1.0035.1454 1.8702.5087 2.7217.0727.1672.1349.3345.218.4865.1349.2585.301.4409.5087.5778.7578.4865 1.6194.745 2.4395.9275 1.2665.2889 2.5434.3649 3.8203.4257 16.8277.8667 33.6762 1.7485 50.5144 1.1403 2.0554-.076 4.1836-.152 6.0937.9731-.872-2.2807-2.9794-2.6152-4.7649-2.676-18.7068-.6234-37.4239-1.3228-56.0683-3.6035-.5087-.0608-1.0693-.152-1.4326-.6994-.2596-.3801-.3634-.9275-.4464-1.4444-.9551-5.641-1.1419-11.5556-.5606-17.3029.0311-.3497.1038-.7298.0934-1.0795-.0103-.3649-.0415-.7299-.0415-1.11-.0104-.7602.0104-1.5356.0623-2.2959-.0727-.1824-.2492-.1824-.3841-.152-.353.0608-.7059.1064-1.06926.1672.02076.5018 0 .9731-.04152 1.4749-.01038.1672.01038.2889.02076.4561.02076.3345-.02076.6842-.03114 1.0035-.02077.4866-.03115.9883-.04153 1.4749 0 .4713-.01038.9579-.01038 1.4292z"/><path d="m75.3479 62.3449c.2076-.7755.9032-.9123 1.4741-.9275 4.5366-.1369 9.0627-.2585 13.5993-.3953 4.277-.1217 8.5644-.2433 12.8417-.3802 1.38-.0456 2.854-.0456 3.996 1.0948-.02-.2433-.051-.4866-.072-.7299.488-.1216.955-.2736 1.453-.2128.27.0304.55-.1065.82-.1521.633-.1216 1.277-.1672 1.91-.2128 3.52-.2281 7.049-.3041 10.579-.5626.892-.0608 1.775-.152 2.668-.2433.882-.0912 1.775-.1672 2.647-.3497.124-.0304.239-.0912.363-.1064.166-.0152.332-.0304.498-.0456.893-.1065 1.796-.3497 2.627-.9123 1.038-.6994 1.951-1.9462 2.284-3.5427.145-.7146.176-1.4596.207-2.2047.104-3.4058.073-6.8268-.104-10.2175-.114-.1672-.404.1369-.446.3802-.426 2.4783-.747 4.9871-.955 7.511-.125 1.5053-.228 3.1018-.862 4.2877-.695 1.2924-1.858 1.8094-2.958 2.1743-5.845 1.9766-11.887 2.1743-17.876 2.3567-5.585.1673-11.1705.3497-16.7452.517-4.6507-.2281-9.4156.8514-14.0352.1216-1.2976-.2129-2.6057-.5474-3.9033-.2737-.0934.0152-.1972.0456-.2699.1521-.0519.076-.0623.1824-.0831.2889-.1557.7906.0935 1.7941.3426 2.5848z"/></g><path d="m133.056 47.916c-.01-2.8888-.031-5.7777-.051-8.6818-.011-2.7825-.032-5.5497-.042-8.3321-.021-3.3451.073-6.7205-.197-10.0351-.052-.6538-.166-1.3228-.156-1.9766.01-.9883-.124-1.7485-.426-2.6912-.384-1.2772-.934-2.448-1.557-3.5123-1.349-2.3415-3.291-2.4479-5.315-2.5696-2.128-.13682-4.246-.0152-6.363-.0304-2.367-.0152-4.745-.0304-7.111-.0608-2.886-.03041-5.762-.07602-8.648-.12164-2.886-.04561-5.7718-.09123-8.6578-.13684-1.443-.01521-2.8859-.04561-4.3289-.06082-.3011 0-.6125-.04561-.9032.06082-.1868.06082-.3529.16725-.5398.19766-.6436.09122-1.3807-.15205-2.0139-.3345.083-2.17426.3426-4.33332.7786-6.43156-.5918 2.15906-1.2665 4.2725-2.0347 6.30992-.0519.13684-.1038.27368-.1973.3345-.0934.06082-.2076.04562-.301.03041-.218-.04561-.4464-.07602-.6644-.15205-.4983-.18245-1.0277-.10643-1.5468-.10643-2.2319-.03041-4.4535-.04561-6.6854-.06082-4.3808-.0304-8.7617-.0152-13.1321.03041-4.6923.04562-9.3845-.04561-14.0872-.07602-1.2768-.0152-2.5537-.03041-3.8202-.03041-.5502 0-1.0796-.03041-1.6091.13684-.5502.18246-1.2249.03041-1.7855-.0152-.3115-.03041-.6436-.07602-.8928-.36491-.2491-.27369-.3633-.71462-.4775-1.14035-.2284-.88187-.4568-1.76374-.6852-2.64561.0312 1.03392.1038 2.05263.218 3.07134.0312.3345.0519.76023-.1557.92748-.0623.04562-.1453.06082-.218.07603-.2491.0304-.5087.12163-.7578.04561-.4775-.13684-.9551-.09123-1.443-.09123-5.3359 0-10.651-.03041-15.9661-.06082-2.9794-.0152-10.1423-2.23508-11.1182 3.69469-.1349.8211-.1245 1.6725-.16607 2.524-.10381 2.5544-.04152 5.124-.01038 7.6935.08305 8.469.24915 16.938.47755 25.3918.0311 1.2924.0726 2.6.1868 3.8924.0935 1.0187.0416 2.3567.5918 3.1473.1868.2737.3218.5322.4879.8515.3322.6234.7889 1.0947 1.2872 1.4292 1.0693.7298 2.3046.9275 3.4881 1.0035 3.8617.2737 7.7131.5018 11.5645.669 3.8826.1825 7.7547.3497 11.6372.4562 3.8826.1064 7.7547.1824 11.6372.2128 3.5192.0304 7.0384.0456 10.5576.0609h5.3878c1.9413 0 4.2874-.8819 6.0729.4713.8928.669 1.6403 1.7485 2.0659 3.0865-.0727-1.0795-.0519-2.1742.0623-3.2538 1.4118-.2888 2.8236-.4713 4.2458-.5017.6125-.0152 1.2043.1216 1.8167.1064.7163 0 1.443-.0152 2.1593-.0152 2.886-.0304 5.7719-.0608 8.6578-.1064 1.7856-.0304 3.5711-.0608 5.3671-.0912 3.883-.0609 7.755-.1977 11.637-.4106.696-.0456 1.402-.076 2.097-.1216 5.346-.3041 10.693-.7602 16.029-1.3836.456-.0608.892-.1217 1.318-.2433.685-.1977 1.329-.5474 1.889-1.2468.685-.8514 1.35-1.7637 1.807-2.8889.737-1.8093.55-3.8771.539-5.9298zm-2.896 3.9228c-.28.6842-.799 1.3685-1.225 1.8854-.104.1216-.259.2737-.664.3801-.301.0913-.654.1369-1.007.1825-5.118.593-10.475 1.0491-15.914 1.3836-.696.0456-1.381.076-2.077.1064-4.069.2129-7.848.3497-11.5642.4106-11.0351.1976-21.9041.3041-32.3267.3041-4.6715 0-9.343-.0153-14.0249-.0609-3.841-.0456-7.7547-.1064-11.5957-.2128-3.841-.1065-7.7443-.2585-11.5957-.441-3.8513-.1824-7.7339-.4105-11.5333-.6842-.8409-.0456-1.796-.1672-2.4707-.6234-.1661-.1216-.2492-.2128-.27-.2432-.1245-.2433-.2802-.5322-.4567-.8363-.0104-.152-.0208-.3193-.0312-.4561-.0207-.2737-.0311-.5322-.0519-.7907-.0934-1.0947-.1245-2.2199-.1661-3.5731-.2387-8.3625-.4048-16.8771-.4775-25.2853l-.0104-1.4292c-.0311-2.083-.0519-4.0444.0312-5.9754.0103-.2129.0103-.441.0207-.6842.0104-.4714.0208-.8971.0623-1.1404.0934-.5169 1.09-1.0491 3.1559-1.0491 1.0173 0 2.1073.1216 3.0624.2281.8201.1064 1.5987.1824 2.2631.1824 4.7441.0304 9.4987.0456 14.2532.0456h2.668c3.5503 0 7.1006.0152 10.6613.0457l3.4258.0304c2.5018.0304 5.0141.0456 7.5159.0456 1.0485 0 2.1074 0 3.1766-.0152 2.6472-.0304 5.284-.0456 7.9312-.0456 8.9589 0 18.0943.152 26.9182.2889 6.9242.1064 14.0972.2128 21.1152.2584l.343.0152c.622 0 1.224-.0152 1.847-.0152.602-.0152 1.205-.0152 1.796-.0152.872 0 1.599.0152 2.253.0608h.073c1.899.1369 2.782.2737 3.301 1.1708.529.9123.893 1.7485 1.142 2.5544.187.6234.187.7906.187 1.0339-.011.7906.072 1.4748.124 2.0222.011.1521.031.3345.052.4866.187 2.3111.177 4.683.177 7.2069-.011.7907-.011 1.5813 0 2.372l.093 16.9683c.01.3802.01.7299.021 1.0796.01 1.2011.031 2.2655-.208 2.828z" fill="url(#e)"/><g fill="#eb924d"><path d="m9.94446 32.3459 3.17664-.9274-.135-.441-3.29079.5778z"/><path d="m129.492 18.4643 3.686.4562v-1.2164l-3.987.2585z"/><path d="m129.751 41.7121 4.08 1.1404-.083-.9579-4.381-.5626z"/><path d="m117.825 36.6023c-3.104-2.5391-8.263-1.7637-10.723 1.6573-1.547 2.1591-1.63 6.1883 0 8.3322 3.581 4.7286 9.872 2.7064 12.145-3.1322.042-.0608.084-.1216.135-.1672 1.734-2.2959.499-6.1123-1.557-6.6901z"/></g><path d="m118.564 34.367c-3.104-2.5392-8.264-1.7638-10.724 1.6573-1.547 2.159-1.63 6.1883 0 8.3321 3.581 4.7286 9.872 2.7064 12.146-3.1321.041-.0609.083-.1217.135-.1673 1.733-2.2959.498-6.1122-1.557-6.69z" fill="url(#f)"/><path d="m117.825 35.8123c-3.104-2.5392-8.263-1.7637-10.723 1.6573-1.547 2.1591-1.63 6.1883 0 8.3322 3.581 4.7286 9.872 2.7064 12.145-3.1322.042-.0608.084-.1216.135-.1672 1.734-2.2959.499-6.1123-1.557-6.6901z" fill="url(#g)"/><path d="m106.025 27.2359c-1.962-1.6117-5.211-1.1099-6.7579 1.0491-.9758 1.3532-1.0277 3.9076 0 5.2608 2.2629 2.9801 6.2289 1.7029 7.6609-1.9766.031-.0304.052-.076.083-.1065 1.09-1.4596.312-3.8619-.986-4.2268z" fill="#eb924d"/><path d="m106.494 25.8365c-1.962-1.6117-5.211-1.11-6.7582 1.0491-.9758 1.3532-1.0277 3.9076 0 5.2608 2.2632 2.9801 6.2282 1.7029 7.6612-1.9766.031-.0304.052-.076.083-.1064 1.09-1.4749.312-3.8772-.986-4.2269z" fill="url(#h)"/><path d="m106.025 26.733c-1.962-1.6117-5.211-1.11-6.7579 1.0491-.9758 1.3684-1.0277 3.9076 0 5.2608 2.2629 2.9801 6.2289 1.7029 7.6609-1.9766.031-.0304.052-.076.083-.1064 1.09-1.4597.312-3.862-.986-4.2269z" fill="url(#i)"/><path d="m26.1267 42.6529c-1.962-1.6117-5.2113-1.11-6.7581 1.0491-.9758 1.3532-1.0277 3.9076 0 5.2608 2.2631 2.9801 6.2287 1.7029 7.6613-1.9766.0311-.0304.0519-.076.083-.1064 1.0901-1.4597.3115-3.862-.9862-4.2269z" fill="#eb924d"/><path d="m26.5955 41.2398c-1.962-1.6117-5.2113-1.1099-6.7581 1.0491-.9758 1.3684-1.0277 3.9076 0 5.2608 2.2631 2.9801 6.2286 1.703 7.6612-1.9766.0312-.0304.0519-.076.0831-.1064 1.09-1.4597.3114-3.862-.9862-4.2269z" fill="url(#j)"/><path d="m26.1267 42.1509c-1.962-1.6117-5.2113-1.1099-6.7581 1.0492-.9758 1.3684-1.0277 3.9076 0 5.2608 2.2631 2.9801 6.2287 1.7029 7.6613-1.9766.0311-.0305.0519-.0761.083-.1065 1.0901-1.4596.3115-3.862-.9862-4.2269z" fill="url(#k)"/><path d="m15 18c0-3.3137 2.6863-6 6-6h98.025c5.523 0 10 4.4772 10 10v25.0752c0 5.5228-4.477 10-10 10h-96.025c-4.4183 0-8-3.5817-8-8z" fill="#eb924d" opacity=".9"/><path d="m37.2266 23.625c.0781.0156.1328.0469.164.0938.0469.0468.0938.0937.1406.1406.0782.2812.1172.4531.1172.5156v.4219c.0157.0469.0235.1172.0235.2109 0 .0781-.0078.1328-.0235.1641v.1172c-.0156.0468-.0234.0937-.0234.1406.0156.0469.0234.1015.0234.1641.0157.1406.0157.2734 0 .3984-.0468.1562-.0781.2422-.0937.2578l-.1641.2344c-.0625.0625-.1015.1094-.1172.1406-.0156.0312-.039.0547-.0703.0703-.2031.0781-.3515.1328-.4453.1641-.0781.0156-.1562.0312-.2344.0468-.0468 0-.1328.0157-.2578.0469-.0312 0-.0781.0078-.1406.0235-.0469 0-.0859 0-.1172 0-.1875.0156-.2812.0234-.2812.0234-.125-.0156-.1954-.0234-.211-.0234-.0156-.0157-.0312-.0235-.0468-.0235-.1719.0313-.2891.0469-.3516.0469-.0625-.0156-.1328-.0312-.211-.0469-.1874 0-.3046 0-.3515 0-.0313-.0156-.0781-.0156-.1406 0-.2188-.0156-.3516-.0156-.3985 0h-.4687c-.1407-.1406-.2188-.2109-.2344-.2109 0 0-.0078-.0156-.0234-.0469l-.211-.2109c0-.1719-.0234-.3516-.0703-.5391l-.0469-.4687v-.3047c0-.2188.0157-.375.0469-.4688 0-.1875.0156-.2969.0469-.3281.0312-.0469.0469-.0938.0469-.1406.0937-.1406.1484-.2266.164-.2578.0156-.0313.0391-.0625.0703-.0938l.4219-.1875c.1875-.0625.3047-.1015.3516-.1172.0468-.0156.0859-.0312.1172-.0469h.3515l.3281-.0703c.0626-.0156.125-.0312.1876-.0468.0781-.0157.1484-.0235.2109-.0235.0469 0 .0937.0078.1406.0235h.1406.1407c.0468-.0157.1015-.0235.164-.0235.125 0 .2344.0078.3282.0235.1093.0156.2187.0078.3281-.0235.0469-.0156.1328-.0078.2578.0235.125.0156.2265.039.3047.0703zm.3515 17.9062c.0157.0782 0 .1407-.0469.1876-.0468.0312-.0624.0703-.0468.1171-.2188.0469-.3282.0703-.3282.0703-.125.0626-.2656.1094-.4218.1407-.125.0312-.2578.039-.3985.0234-.125 0-.2734-.0078-.4453-.0234-.1718.0156-.2968.0234-.375.0234-.0625 0-.125 0-.1875 0h-.3515c-.1563.0156-.2422.0235-.2578.0235-.1407 0-.2579.0078-.3516.0234-.0781.0312-.1328.0469-.1641.0469h-.3281l-.3281-.0703c-.0625 0-.125 0-.1875 0-.0625.0156-.1328.0156-.211 0-.0781-.0313-.1406-.0626-.1875-.0938-.0468-.0156-.1015-.0234-.164-.0234-.0781-.1719-.1172-.2657-.1172-.2813 0-.0312-.0078-.0547-.0235-.0703-.0468-.0781-.0703-.1484-.0703-.2109.0157-.0782.0235-.1485.0235-.211 0-.0469-.0078-.0937-.0235-.1406 0-.0469 0-.0859 0-.1172 0-.0469.0079-.0937.0235-.1406s.0234-.1016.0234-.1641c.0156-.0625.0234-.1328.0234-.2109.0157-.0781.0313-.1563.0469-.2344.0157-.125.0235-.2187.0235-.2812 0-.0782 0-.1329 0-.1641.0156-.0469.0234-.0938.0234-.1406 0-.0625.0078-.125.0234-.1875.0157-.0938.0157-.1641 0-.211-.0156-.0625-.0234-.1171-.0234-.164 0-.0313 0-.0781 0-.1407.0156-.0624.0234-.1328.0234-.2109 0-.1094-.0078-.2109-.0234-.3047 0-.0937 0-.1875 0-.2812 0-.0782.0156-.1953.0469-.3516v-.3047c.0156-.1406.0234-.3125.0234-.5156s-.0078-.3906-.0234-.5625v-.2578c.0156-.1875.0234-.3281.0234-.4219.0156-.1094.0156-.2187 0-.3281 0-.0469-.0078-.086-.0234-.1172 0-.0469 0-.0938 0-.1406-.0157-.0782-.0235-.1485-.0235-.211s0-.1328 0-.2109c0-.0937-.0078-.1484-.0234-.1641 0-.0312 0-.0625 0-.0937v-.4219c-.0156-.1719-.0156-.2656 0-.2812.0156-.0313.0234-.0625.0234-.0938 0-.1875 0-.3047 0-.3516.0157-.0624.0235-.125.0235-.1874 0-.1563 0-.2422 0-.2579 0-.2656-.0078-.4297-.0235-.4921-.0468-.1563-.0703-.25-.0703-.2813v-.3516c0-.1406-.0078-.2265-.0234-.2578 0-.0469.0078-.1015.0234-.164 0-.1094-.0078-.2188-.0234-.3282 0-.1093 0-.2265 0-.3515-.0156-.1094-.0156-.1875 0-.2344s.0234-.0938.0234-.1406v-.6563c-.0312-.1875-.0312-.3906 0-.6093.0313-.1563.0625-.25.0938-.2813.0469-.1563.0781-.2422.0937-.2578.1406-.1875.2813-.3125.4219-.375.0781-.0313.1406-.0625.1875-.0938.0625-.0468.1094-.0703.1406-.0703.1406-.0312.2344-.0468.2813-.0468.1719-.0157.3437-.0157.5156 0 .1719.0156.3437.0078.5156-.0235.1407-.0156.2344-.0078.2813.0235.0468.0156.1015.0078.164-.0235.2032-.0156.3282-.0156.375 0h.1407c.125-.0312.2109-.0391.2578-.0234h.4219c.0468 0 .1015.0078.164.0234.0625 0 .1094.0156.1406.0469.0313-.0313.1172-.0469.2578-.0469.0469.0313.0782.0625.0938.0938.0312.0312.0781.0468.1406.0468.0625.1407.1172.2344.1641.2813.0469.1406.1015.289.1641.4453.0312.0781.0468.1719.0468.2813 0 .1093.0078.2265.0235.3515v.1875c.0156.0625.0234.1172.0234.1641 0 .0781-.0078.1562-.0234.2343 0 .0782-.0079.1563-.0235.2344-.0156.2344-.0234.4297-.0234.586 0 .1406-.0078.2812-.0234.4218-.0157.0782-.0313.1563-.0469.2344v.2344c0 .0625.0078.125.0234.1875.0156.0469.0235.1015.0235.1641 0 .125-.0079.2578-.0235.3984-.0156.125-.0312.2578-.0469.3984-.0156.125-.0312.25-.0468.375-.0157.1094-.0235.2344-.0235.375v.1172c.0157.0469.0235.0938.0235.1406 0 .0782-.0078.1485-.0235.211v.1875.2343c.0157.0782.0157.1563 0 .2344 0 .0782-.0078.1563-.0234.2344-.0156.0625-.0235.1328-.0235.2109-.0156.125-.0156.25 0 .375.0157.125.0235.25.0235.375 0 .0782-.0078.1563-.0235.2344-.0156.0781-.0156.1563 0 .2344.0469.2656.0626.4453.0469.5391-.0156.0937-.0156.1953 0 .3046.0157.1719.0157.2891 0 .3516v.1172.6094c0 .1093-.0078.1953-.0234.2578.0625.1094.0781.2422.0469.3984-.0313.1406-.0157.2578.0468.3516-.0312.1094-.0468.2265-.0468.3515.0156.125.039.2344.0703.3282l.0234.6328c.0156.0937.0235.1953.0235.3047.0156.0937.0234.1796.0234.2578l-.0234.2578zm6.961-10.9687c.0468.0156.0859 0 .1171-.0469.0313-.0468.0626-.0859.0938-.1172.0781-.0468.1328-.0781.1641-.0937.0312-.0313.0625-.0625.0937-.0938.1563-.1093.25-.1718.2813-.1875l.1875-.1875c.1562-.0625.25-.1171.2812-.164.0469-.0469.1016-.0938.1641-.1407.0469-.0468.0781-.0781.0937-.0937.0313-.0313.0625-.0625.0938-.0937.125-.0782.2031-.125.2344-.1407.0468-.0156.0859-.0312.1171-.0469.1563-.1406.2579-.2265.3047-.2578.0625-.0312.125-.0625.1875-.0937.0625-.0625.1328-.1094.211-.1406.0781-.0469.1484-.1094.2109-.1875.0469-.0313.0859-.0469.1172-.0469.0469-.0156.0859-.0391.1172-.0703.0937-.0625.1484-.1016.164-.1172.0157-.0313.0391-.0469.0704-.0469.0312-.0312.0781-.0469.1406-.0469h.2109c.1406-.0156.2188-.0156.2344 0 .0312.0157.0625.0313.0937.0469.125.0938.1954.1406.211.1406.0312 0 .0625.0157.0937.0469.1407.0938.2031.1406.1875.1406-.0156-.0156-.0078-.0078.0235.0235.1718.0937.2656.1484.2812.164l.2109.1875c.0313.0313.0704.0625.1172.0938.0469.0312.0782.0703.0938.1172.1406.1094.2187.164.2344.164.0781.0469.164.1328.2578.2578.1406.0782.2187.1172.2344.1172.1093.0625.1796.125.2109.1875.125.0313.2265.1094.3047.2344.0781.1094.1875.1953.3281.2578.0156.0625.0469.1094.0937.1407.0469.0156.0782.0624.0938.1406.0469 0 .0859-.0235.1172-.0703.0469-.0469.0859-.0782.1172-.0938.1094-.0156.1718-.0312.1875-.0469.0156-.0312.039-.0625.0703-.0937.0625-.0313.1016-.0625.1172-.0938.0312-.0312.0625-.0625.0937-.0937.1563-.0625.2344-.0938.2344-.0938 0-.0156.0078-.0234.0234-.0234.125-.125.1953-.1875.211-.1875.0156-.0156.0312-.0313.0469-.0469.1718-.0937.2734-.164.3046-.2109.0469-.0625.1016-.1172.1641-.1641.1563-.1094.25-.164.2813-.164.125-.1094.2109-.1719.2578-.1875.1562-.1407.2656-.2266.3281-.2579.0625-.0312.1172-.0624.1641-.0937.0781-.0625.1562-.1094.2343-.1406.0781-.0469.1407-.1094.1875-.1875.0469-.0156.086-.0313.1172-.0469.0469-.0156.0938-.0391.1406-.0703.125-.1094.1954-.1641.211-.1641.0312-.0312.0859-.0469.164-.0469h.211c.125 0 .1953.0079.2109.0235.0313 0 .0625.0156.0938.0469.125.0781.1953.1172.2109.1172.0312 0 .0625.0156.0938.0468.1406.0938.2109.1328.2109.1172s.0078-.0078.0234.0234c.1407.125.2266.1876.2578.1876l.211.164c.0469.0469.0859.086.1172.1172.0468.0312.0781.0703.0937.1172.1094.0469.2031.1094.2813.1875.0937.0781.1797.1562.2578.2344.1562.0937.2578.164.3047.2109.0468.0312.0859.0625.1172.0938.125.0468.2187.125.2812.2343.0781.1094.1797.1953.3047.2578.1406.1563.2265.2657.2578.3282s.0625.1171.0937.164c.1094.1094.1954.211.2579.3047.2031.2344.3359.4375.3984.6094s.1328.3437.2109.5156l.0235.4219.0469.2812c0 .0938.0156.1875.0468.2813.0156.0625.0156.1172 0 .164-.0156.0469-.0312.1016-.0468.1641.0156.1719.0156.2891 0 .3516v.164.1172c.0156.0469.0156.1016 0 .1641-.0313.1875-.0547.3203-.0704.3984 0 .0782.0078.1719.0235.2813.0156.1562.0078.2656-.0235.3281-.0156.0625-.0234.1328-.0234.2109-.0156.0469-.0234.1016-.0234.1641.0156.0469.0234.0938.0234.1406.0312.2188.0312.4688 0 .75.0156.1563.0156.2344 0 .2344v.0234c.0156.1094.0156.1719 0 .1875v.0703c.0156.0626.0234.1563.0234.2813v.1875c.0157.0156.0235.0391.0235.0703l-.0469.2813c.0156.0781.0234.1484.0234.2109v.1641c0 .125-.0078.2578-.0234.3984 0 .125.0078.25.0234.375.0313.125.0469.2734.0469.4453 0 .1563.0078.3125.0235.4688.0312.2187.0468.3593.0468.4218.0156.1719.0156.336 0 .4922 0 .1563.0078.3203.0235.4922v.1172c.0156.0469.0156.1016 0 .1641-.1563.1718-.25.2734-.2813.3046-.1094.0469-.1797.0704-.2109.0704-.0157 0-.0391.0078-.0703.0234-.1563.0469-.2578.0625-.3047.0469-.0313 0-.0703 0-.1172 0-.0781 0-.1719-.0078-.2813-.0235-.0937 0-.1875 0-.2812 0-.2031 0-.3438 0-.4219 0-.0625.0157-.1328.0235-.2109.0235-.1719 0-.2735-.0078-.3047-.0235-.0313 0-.0625 0-.0938 0-.0625 0-.1171 0-.164 0-.0469.0157-.1016.0157-.1641 0-.1562-.0312-.2422-.0468-.2578-.0468-.0312-.0157-.0703-.0157-.1172 0-.0469 0-.0937.0078-.1406.0234-.0469 0-.0938 0-.1406 0-.0469-.0156-.086-.0234-.1172-.0234-.1563.0468-.3203.0703-.4922.0703-.1563 0-.2656-.0157-.3281-.0469-.2032-.1406-.3047-.3047-.3047-.4922s.0078-.3672.0234-.539c0-.0469-.0078-.0938-.0234-.1407 0-.0625.0078-.1172.0234-.164.0156-.1094.0313-.2032.0469-.2813.0312-.0781.0547-.1797.0703-.3047 0-.1719.0078-.2969.0234-.375.0313-.0937.0469-.1797.0469-.2578v-.2578c.0156-.125.0156-.1953 0-.2109 0-.0157 0-.0313 0-.0469.0156-.1563.0235-.2344.0235-.2344.0156-.0156.0234-.0391.0234-.0703.0156-.1562.0156-.2344 0-.2344 0-.0156.0078-.0234.0234-.0234l.0235-.3281c-.0157-.1875-.0235-.2813-.0235-.2813.0156-.0156.0235-.039.0235-.0703 0-.0469-.0079-.1094-.0235-.1875s-.0234-.1484-.0234-.2109v-.4453c-.0156-.1563-.0234-.2422-.0234-.2579.0156-.0156.0234-.0312.0234-.0468-.0313-.1094-.0469-.1953-.0469-.2579.0156-.0781.0156-.1406 0-.1874.0156-.2188.0235-.3829.0235-.4922 0-.125-.0157-.2188-.0469-.2813.0312-.0469.039-.0937.0234-.1406 0-.0625 0-.125 0-.1875 0-.1406-.0078-.2578-.0234-.3516-.0157-.0937-.0078-.164.0234-.2109-.0469-.1406-.0781-.2422-.0937-.3047 0-.0625-.0313-.1094-.0938-.1406-.1406-.125-.2109-.2032-.2109-.2344-.1563-.0469-.2813-.0312-.375.0469-.125.1093-.1953.164-.211.164-.0156-.0156-.0234-.0156-.0234 0-.1563.1094-.2422.1719-.2578.1875 0 .0157-.0156.0313-.0469.0469-.1406.0938-.2187.1485-.2344.1641 0 .0156-.0156.0312-.0468.0468-.1407.125-.2266.1954-.2578.211-.0157.0156-.0391.039-.0704.0703-.1093.0781-.1953.1484-.2578.2109s-.125.1172-.1875.1641c-.0937.0625-.164.1094-.2109.1406-.0313.0313-.0625.0625-.0938.0938-.0312.0312-.0703.0703-.1172.1172-.0312.0468-.0546.1015-.0703.164 0 .0781.0079.1641.0235.2578.0156.0938.0234.1797.0234.2579-.0156.0624-.0234.1171-.0234.164.0156.0313.0234.0703.0234.1172v.4453c0 .1563-.0078.2422-.0234.2578v.0703.1407c.0156.0468.0234.0937.0234.1406.0156.1875.0156.2969 0 .3281-.0156.0313-.0312.0625-.0469.0938.0157.1562.0235.2578.0235.3046.0156.0469.0234.1016.0234.1641 0 .1406-.0078.2813-.0234.4219-.0156.125-.0078.2422.0234.3516.0313.1406.0469.289.0469.4453 0 .1562.0078.3203.0234.4921 0 .1876.0078.2969.0235.3282.0156.0156.0234.039.0234.0703v.9844c.0312.1406.0391.2421.0234.3047-.1093.1562-.1796.2343-.2109.2343-.0156 0-.0391.0157-.0703.0469-.125.0625-.2031.0938-.2344.0938-.0312 0-.0625.0078-.0937.0234-.1407.0469-.2344.0625-.2813.0469-.0312 0-.0625 0-.0937 0-.0782 0-.1719-.0079-.2813-.0235-.0937 0-.1953 0-.3047 0-.1875-.0156-.3593-.0078-.5156.0235-.0625 0-.125-.0079-.1875-.0235-.0625 0-.1328 0-.2109 0-.0782 0-.1485 0-.211 0-.0625.0156-.1328.0156-.2109 0-.1563-.0312-.2422-.0468-.2578-.0468-.0156-.0313-.0547-.0391-.1172-.0235s-.125.0235-.1875.0235c-.1719 0-.2656 0-.2813 0-.0156.0156-.0312.0234-.0468.0234-.125.0156-.2032.0234-.2344.0234-.0313.0156-.0703.0235-.1172.0235-.0625-.0157-.1172-.0469-.1641-.0938-.0468-.0312-.1093-.0547-.1875-.0703-.0312-.1094-.0625-.2109-.0937-.3047-.0156-.1094-.0313-.2265-.0469-.3515-.0156-.0469-.0234-.0938-.0234-.1407.0156-.0625.0234-.1172.0234-.164-.0156-.0938-.039-.1797-.0703-.2579-.0156-.0937-.0156-.1953 0-.3046l.0469-.3282c0-.1093 0-.1796 0-.2109.0156-.0469.0312-.0937.0468-.1406 0-.0781-.0078-.1563-.0234-.2344 0-.0937.0078-.1797.0234-.2578.0157-.125.0157-.1953 0-.2109 0-.0157 0-.0313 0-.0469.0157-.1563.0235-.2344.0235-.2344.0156-.0156.0234-.0391.0234-.0703 0-.1719.0078-.2578.0235-.2578 0-.1719 0-.2656 0-.2813.0156-.0156.0234-.039.0234-.0703l-.0234-.3281c0-.0469-.0078-.1016-.0235-.1641 0-.0781 0-.1562 0-.2344v-.4453c-.0156-.1718-.0234-.2578-.0234-.2578.0156-.0156.0234-.0312.0234-.0469-.0469-.0937-.0703-.1796-.0703-.2578.0156-.0781.0234-.1406.0234-.1875.0157-.2187.0235-.3828.0235-.4921 0-.125-.0156-.2266-.0469-.3047.0313-.0313.0391-.0782.0234-.1407-.0156-.0625-.0156-.1172 0-.164 0-.1406-.0078-.2578-.0234-.3516-.0156-.0937-.0078-.1562.0234-.1875-.0312-.1562-.0546-.2656-.0703-.3281 0-.0781-.0312-.1328-.0937-.1641-.1406-.0937-.211-.164-.211-.2109-.1562-.0313-.2656-.0313-.3281 0-.0625.0156-.1172.0469-.164.0937-.1094.125-.1719.1875-.1875.1875 0 0-.0078.0078-.0235.0235-.1093.1406-.1953.2422-.2578.3047-.0469.0468-.0937.1015-.1406.164-.0938.1094-.1485.1719-.1641.1875-.0156.0157-.0312.0391-.0468.0703-.1876.1094-.3204.1954-.3985.2578-.0625.0469-.1406.0704-.2344.0704-.0781-.0157-.1406-.0469-.1875-.0938-.0468-.0625-.1093-.1094-.1875-.1406-.0312-.0781-.0781-.1406-.1406-.1875-.0469-.0469-.0859-.1094-.1172-.1875-.0937-.1563-.1484-.2422-.164-.2578-.0782-.1094-.1329-.1875-.1641-.2344-.0156-.0625-.0391-.1094-.0703-.1406l-.0703.5625v1.1719c0 .0468-.0078.1015-.0235.164v.1406c.0157.125.0313.25.0469.375.0156.1094.0078.2188-.0234.3282.0468.0781.0625.164.0468.2578 0 .0937.0079.1875.0235.2812v.2813c.0156.1719.0234.2812.0234.3281.0157.0312.0235.0625.0235.0938-.0313.1874-.0391.3124-.0235.375.0157.0624.0235.1328.0235.2109-.0157.0625-.0157.1328 0 .2109.0156.0782.0234.1406.0234.1875s-.0078.0938-.0234.1407c0 .0468.0078.0937.0234.1406.0312.1718.0469.3125.0469.4218.0312.1563.0469.3438.0469.5626.0156.0624.0234.1718.0234.3281.0312.1406.039.2187.0234.2343v.0704c.0156.0937.0313.1718.0469.2343.0156.0469.0234.0938.0234.1407-.0156.1406-.0234.2265-.0234.2578.0156.0156.0234.039.0234.0703-.0468.1562-.0703.2734-.0703.3515 0 .0782-.0156.1407-.0468.1876-.1719 0-.2969 0-.375 0-.0626.0156-.1329.0468-.211.0937-.1719 0-.3047 0-.3984 0-.0782.0156-.1563.0078-.2344-.0234-.1562-.0469-.25-.0703-.2812-.0703-.0157.0156-.0469.0234-.0938.0234l-.5156-.0234c-.1719-.0313-.2969-.0469-.375-.0469-.0625 0-.1328-.0078-.211-.0235l-.2812-.0234h-.3516c-.0468.0312-.1406.0469-.2812.0469-.125.0156-.2032.0156-.2344 0-.0156 0-.0391 0-.0703 0-.0469 0-.0938 0-.1406 0-.0313.0156-.0782.0234-.1407.0234-.0937-.0312-.1953-.0234-.3046.0235-.1563-.0626-.2422-.0938-.2579-.0938-.0156 0-.0234-.0078-.0234-.0234l-.1406-.2344c-.0157-.0781-.0235-.1328-.0235-.1641.0157-.0469.0235-.0937.0235-.1406 0-.0937-.0078-.1875-.0235-.2813 0-.0937 0-.1796 0-.2578l.0235-.2812c.0156-.0625.0234-.125.0234-.1875s.0078-.1172.0235-.1641c.0468-.1875.0624-.3047.0468-.3515 0-.0625.0156-.125.0469-.1875-.0313-.0782-.0391-.1641-.0234-.2578.0156-.0938.0234-.1797.0234-.2579.0156-.1562.0156-.2421 0-.2578 0-.0156 0-.039 0-.0703l.0234-.4219c0-.0937-.0078-.1797-.0234-.2578-.0156-.1719-.0234-.2734-.0234-.3047.0156-.0468.0234-.0859.0234-.1172 0-.0468-.0078-.0937-.0234-.1406-.0157-.0468-.0079-.0859.0234-.1172 0-.1406 0-.2578 0-.3515 0-.2031-.0078-.3281-.0234-.375-.0157-.0469-.0079-.086.0234-.1172v-.4688c0-.1718-.0078-.2812-.0234-.3281-.0157-.0625-.0235-.125-.0235-.1875 0-.0781.0078-.1484.0235-.2109.0156-.0782 0-.1485-.0469-.211.0312-.1562.0469-.2656.0469-.3281.0156-.1719.0156-.2578 0-.2578 0 0 0-.0078 0-.0234v-.4922c-.0157-.2188-.0235-.3672-.0235-.4453-.0156-.1563-.0234-.2813-.0234-.375 0-.1094-.0078-.2032-.0234-.2813.0156-.125.0156-.2031 0-.2344 0-.0468.0156-.0625.0468-.0468-.0156-.25-.039-.4141-.0703-.4922-.0156-.0938-.0078-.1797.0235-.2578-.0157-.0469-.0313-.086-.0469-.1172 0-.0469-.0078-.1094-.0235-.1875.0157-.125.0157-.2032 0-.2344 0-.0469 0-.0859 0-.1172-.0156-.1875-.0234-.2969-.0234-.3281.0156-.0313.0234-.0781.0234-.1406-.0312-.1719-.039-.2813-.0234-.3282.0156-.0468.0234-.1093.0234-.1875 0-.2031-.0078-.3281-.0234-.375 0-.0468 0-.1015 0-.164 0-.1406-.0156-.2422-.0469-.3047-.0156-.0625-.0234-.1563-.0234-.2813l-.0469-.3046c-.0156-.0782-.0312-.1329-.0469-.1641 0-.0469.0079-.1094.0235-.1875.0937-.1563.1328-.2344.1172-.2344.125-.1719.2187-.2578.2812-.2578.1406-.0156.2266-.0156.2578 0 .0469.0156.086.0234.1172.0234.0469 0 .0938-.0078.1406-.0234.0625-.0312.1172-.0469.1641-.0469.1406-.0156.2187-.0234.2344-.0234.0312-.0156.0625-.0313.0937-.0469.0469 0 .0938.0078.1406.0234.0626 0 .1094-.0078.1407-.0234h.4687c.0938 0 .1797-.0156.2578-.0469.0469-.0156.1094-.0156.1875 0 .0782.0157.1407.0469.1875.0938.0782-.0313.1485-.0391.211-.0235h.1875c.1719.0313.3125.0469.4219.0469.125-.0156.2343-.0078.3281.0235.0781-.0313.1719-.0391.2812-.0235.1094.0157.2031 0 .2813-.0469.1406.0469.2265.0704.2578.0704.1719.1562.2812.2656.3281.3281.0469.0469.0625.1328.0469.2578-.0781.2031-.1172.3516-.1172.4453.0156.0938.0078.1875-.0234.2813 0 .0781-.0078.1406-.0235.1875-.0156.0468-.0234.0859-.0234.1172-.0156.0624-.0313.1171-.0469.164 0 .0469-.0078.1016-.0234.1641-.0313.1406-.0469.2422-.0469.3047.0156.0625.0078.1328-.0234.2109zm22.125-2.5078c.0156.1562.0312.25.0468.2812.0313.0313.0469.0782.0469.1407.0313.1406.0313.2734 0 .3984-.0312.1719-.0469.2891-.0469.3516 0 .0468-.0078.1015-.0234.164-.0313.1094-.0469.211-.0469.3047.0156.0781.0235.1563.0235.2344-.0157.0781-.0313.1484-.0469.2109s-.0078.125.0234.1875l.1875-.1875c.1563-.1718.2578-.25.3047-.2344.0313-.0781.0781-.1406.1406-.1874.0625-.0626.1328-.1172.211-.1641.0937-.1406.1718-.2188.2344-.2344.1093-.1094.1874-.1797.2343-.2109.1563-.0782.2422-.1328.2578-.1641.0313-.0312.0625-.0703.0938-.1172.2344-.1562.3828-.25.4453-.2812.1406-.0938.2344-.1485.2812-.1641.0469-.0312.0938-.0625.1407-.0937.1562-.0625.2578-.1016.3047-.1172.2656-.0469.4375-.1016.5156-.1641l.3047.0469c.1093-.0156.1719-.0156.1875 0s.039.0234.0703.0234c.1719-.0312.2734-.039.3047-.0234h.0937c.1563 0 .2422.0078.2578.0234.0782.0157.1407.0313.1875.0469.0625 0 .1328.0156.211.0469.2187.0781.3515.1172.3984.1172.125.0156.2031.0312.2344.0468.0312.0157.0703.0313.1172.0469.0625.0313.1328.0625.2109.0938.0938.0312.1797.0859.2578.164.1563.125.2813.2344.375.3282.0938.1093.1641.1874.211.2343.0468.0313.0937.0781.1406.1407.1094.125.1719.2031.1875.2343.0156.0313.0312.0625.0469.0938.125.1406.1875.2187.1875.2343.0781.0938.1328.1641.164.211.0313.0469.0703.1094.1172.1875.0938.125.1484.2109.1641.2578.0312.0313.0703.0625.1172.0937l.2109.3516c.0938.1719.1484.2734.1641.3047.0312.0156.0547.0391.0703.0703.0781.1719.1172.2656.1172.2813.125.1875.1953.3125.2109.375.0156.0468.0391.1093.0703.1875.0781.2031.125.3359.1406.3984.0313.0625.0625.1172.0938.1641.0625.1875.0937.2968.0937.3281.0157.0156.0391.039.0703.0703.0157.0313.0235.0703.0235.1172s.0078.0937.0234.1406l.0938.3516c.0625.1562.0937.25.0937.2812.0156.1875.0313.3047.0469.3516s.0313.1094.0469.1875c0 .1094.0234.2109.0703.3047-.0781.2656-.1094.4531-.0938.5625.0157.1094.0235.2187.0235.3281-.0156.0781-.0313.1641-.0469.2578-.0156.0938-.0313.1797-.0469.2578l-.0703.4219c-.0312.0625-.0547.1484-.0703.2578 0 .0938-.0078.1797-.0234.2578-.0313.0782-.0547.1641-.0704.2578 0 .0782-.0078.1563-.0234.2344-.0625.1875-.0937.2891-.0937.3047s-.0079.0391-.0235.0703c-.1094.2656-.1875.461-.2344.586-.0312.1093-.0859.2187-.164.3281-.0781.1562-.125.2343-.1406.2343v.0235c-.0782.1719-.125.2656-.1407.2812-.1093.1563-.1718.25-.1875.2813-.0156.0312-.039.0625-.0703.0937l-.1875.2813c-.125.1719-.2031.2734-.2344.3047-.0156.0312-.039.0625-.0703.0937l-.3984.5391c-.0781.0312-.1406.0781-.1875.1406s-.1094.1094-.1875.1406c-.1875.1407-.3203.2344-.3984.2813-.0782.0312-.1563.0625-.2344.0937-.1094.0782-.1875.1329-.2344.1641-.0469.0469-.1015.0859-.1641.1172-.0624.0469-.125.0781-.1874.0937-.0626.0157-.125.0391-.1876.0703-.1093.0469-.1718.0782-.1874.0938-.0157.0156-.0313.0234-.0469.0234-.0313.0157-.0781.0235-.1407.0235-.0468 0-.0937.0078-.1406.0234-.0781.0156-.1484.0313-.2109.0469s-.1094.0234-.1406.0234c-.0625 0-.1172-.0078-.1641-.0234s-.0938 0-.1406.0469c-.0469-.0469-.1094-.0625-.1875-.0469s-.1328.0078-.1641-.0234c-.0781-.0157-.1328-.0235-.164-.0235-.0157.0156-.0469.0235-.0938.0235-.2188-.0313-.375-.0469-.4688-.0469-.0781.0156-.1718.0156-.2812 0-.0781-.0157-.1562-.0235-.2344-.0235-.0781 0-.1562-.0156-.2344-.0468-.1406-.0313-.2187-.0547-.2343-.0704-.0157 0-.0313 0-.0469 0-.1875-.0937-.3047-.1406-.3516-.1406-.0468 0-.0937-.0156-.1406-.0468-.1094-.0313-.1797-.0547-.2109-.0704-.0157-.0156-.0391-.0234-.0703-.0234-.1094-.0469-.1797-.0703-.211-.0703-.0312-.0156-.0625-.0547-.0937-.1172-.1563-.0469-.2578-.0859-.3047-.1172-.0469-.0469-.0938-.0625-.1406-.0469-.125-.1093-.2032-.1796-.2344-.2109-.0313-.0469-.0625-.0859-.0938-.1172-.1406-.0781-.2187-.1172-.2343-.1172-.0313.2188-.0391.4375-.0235.6563.0156.2187.0235.4453.0235.6797 0 .0625-.0079.1171-.0235.164 0 .0469.0078.1016.0235.1641v.4219c.0156.1718.0156.2812 0 .3281v.2109c-.0157.0938-.0235.1875-.0235.2813.0156.1094.0235.2187.0235.3281-.0157.1406-.0235.2109-.0235.2109.0156.0157.0235.0313.0235.0469v.1875c.0156.0313.0156.086 0 .1641.0156.1719.0156.2812 0 .3281v.2109c-.0157.0782-.0157.1485 0 .211.0156.0625.0234.1328.0234.2109.0156.1719.0156.336 0 .4922 0 .1719.0078.3438.0234.5156 0 .0625.0079.1172.0235.1641s.0234.0937.0234.1406c-.0156.1406-.0156.2188 0 .2344.0156.0312.0234.0625.0234.0937l.0704.2813c.0312.2031.0546.3594.0703.4687.0156.1094.0312.211.0469.3047.0156.1094.0234.211.0234.3047.0156.0938.0234.1953.0234.3047 0 .0781-.0078.1641-.0234.2578 0 .1094.0078.2109.0234.3047-.0312.0312-.0703.0703-.1172.1172-.0312.0469-.0781.0859-.1406.1172-.0625.0468-.1484.0703-.2578.0703s-.2266 0-.3516 0c-.0781 0-.164.0078-.2578.0234-.0781.0157-.1562.0235-.2344.0235-.1874-.0157-.3203-.0235-.3984-.0235-.0781.0157-.1562.0157-.2344 0-.1562 0-.2422-.0078-.2578-.0234-.0156 0-.039 0-.0703 0-.0312-.0156-.0703-.0235-.1172-.0235s-.1015-.0078-.164-.0234c-.0938-.0156-.1563-.0234-.1875-.0234-.0313.0156-.0625.0234-.0938.0234-.0469 0-.1016 0-.164 0-.0469 0-.1094-.0078-.1876-.0234-.0312 0-.0781 0-.1406 0-.0468 0-.0937.0156-.1406.0468-.125-.0312-.2578-.0468-.3984-.0468-.2032.0312-.3828.0312-.5391 0-.0625-.0156-.125-.0313-.1875-.0469s-.1172-.0391-.1641-.0703c-.1093-.1563-.164-.25-.164-.2813 0-.0156-.0157-.0312-.0469-.0468-.0156-.125-.0312-.2344-.0469-.3282-.0156-.0937-.0234-.2031-.0234-.3281.0156-.0625.0156-.125 0-.1875 0-.0625.0078-.1172.0234-.1641 0-.1562.0078-.2812.0235-.375.0156-.0937.0312-.1953.0468-.3046 0-.0782 0-.2422 0-.4922 0-.0938 0-.1563 0-.1875.0157-.0157.0235-.0391.0235-.0703 0-.1094-.0157-.2422-.0469-.3985.0625-.2343.1016-.4219.1172-.5625.0312-.1406.0312-.2968 0-.4687-.0625-.1719-.0938-.2735-.0938-.3047.0157-.0313.0235-.0625.0235-.0938 0-.125-.0078-.2343-.0235-.3281-.0156-.0781-.0234-.1562-.0234-.2344.0156-.125.0156-.1953 0-.2109 0-.0156 0-.0391 0-.0703 0-.0781 0-.1563 0-.2344.0156-.0781.0312-.1562.0469-.2344-.0157-.1406-.0157-.2265 0-.2578v-.3047c0-.1406.0078-.2812.0234-.4218.0156-.125.0078-.25-.0234-.375.0312-.0313.039-.0704.0234-.1172-.0156-.0469-.0234-.0938-.0234-.1406v-.3047c-.0157-.0469-.0235-.125-.0235-.2344s.0078-.2109.0235-.3047c.0156-.0938.0156-.1484 0-.1641 0-.0312 0-.0703 0-.1171l.0469-.3516c0-.0625 0-.1172 0-.1641.0156-.0469.0234-.1093.0234-.1875.0312-.1562.039-.2812.0234-.375 0-.1094-.0078-.1797-.0234-.2109-.0313-.1563-.0391-.3594-.0234-.6094.0156-.25.0234-.4531.0234-.6094 0-.0468-.0078-.0937-.0234-.1406 0-.0469.0078-.0937.0234-.1406 0-.1094-.0078-.2109-.0234-.3047 0-.0938 0-.1953 0-.3047-.0157-.1719-.0235-.2812-.0235-.3281.0156-.0469.0235-.0938.0235-.1406l-.0235-.3047c-.0156-.0625-.0234-.1094-.0234-.1407.0156-.0468.0156-.0859 0-.1171-.0157-.0313-.0235-.086-.0235-.1641.0157-.0938.0235-.1641.0235-.2109v-.375c0-.0625 0-.125 0-.1875.0156-.0625.0078-.1094-.0235-.1407-.0156-.1406-.0234-.2343-.0234-.2812-.0156-.2188-.0312-.3516-.0469-.3985v-.3515c-.0156-.2031-.0234-.3281-.0234-.375s-.0078-.1094-.0235-.1875c-.0312-.0938-.0468-.1484-.0468-.1641.0156-.0312.0234-.0625.0234-.0937-.0156-.125-.0234-.2032-.0234-.2344.0156-.0312.0234-.0781.0234-.1406-.0156-.0938-.0312-.1953-.0469-.3047-.0156-.125-.0312-.25-.0468-.375.0156-.125.0156-.1953 0-.2109 0-.0313 0-.0626 0-.0938-.0313-.1875-.0391-.2812-.0235-.2812s.0235-.0157.0235-.0469c.0156-.1407.0156-.2188 0-.2344 0-.0313 0-.0625 0-.0937v-.4454c-.0157-.0781-.0313-.1328-.0469-.164 0-.0469 0-.1094 0-.1875v-.2813c.0156-.0937.0156-.1562 0-.1875 0-.0312 0-.0625 0-.0937-.0156-.1719-.0313-.2656-.0469-.2813 0-.0156 0-.039 0-.0703-.0312-.1562-.0469-.2422-.0469-.2578.0157-.0312.0078-.0703-.0234-.1172-.0156-.0625-.0234-.1094-.0234-.1406 0-.1719-.0078-.2656-.0235-.2813-.0156-.0312-.0234-.0625-.0234-.0937-.0313-.1094-.0469-.1719-.0469-.1875.0156-.0156.0234-.0391.0234-.0703.0157-.2344.0157-.375 0-.4219 0-.0469.0079-.1016.0235-.1641.0312-.1093.0703-.1875.1172-.2343.1093-.1094.2343-.1641.375-.1641.1719-.0469.2812-.0703.3281-.0703s.0859.0156.1172.0469c.1406-.0313.2422-.0469.3047-.0469.0469 0 .0937.0078.1406.0234h.1875c.1406-.0469.2109-.0625.2109-.0469 0 .0157.0157.0235.0469.0235.1875-.0156.3281-.0078.4219.0234.2187-.0156.3672-.0156.4453 0 .0781.0157.1562.0235.2344.0235.0468-.0157.0937-.0313.1406-.0469.0625-.0156.125-.0235.1875-.0235.2031.0157.3359.0391.3984.0704l.3047-.0469c.0625-.0156.1328-.0156.211 0 .0937 0 .1796-.0078.2578-.0235.0625.0157.1328.0157.2109 0 .0781-.0156.1563-.0234.2344-.0234zm.2343 9.3047c.0469.0781.0938.1406.1407.1875.0625.0312.1328.0625.2109.0937.125.0938.2188.1406.2812.1406.1563.0626.2422.1016.2579.1172.0312 0 .0625.0157.0937.0469.0781.0313.1563.0625.2344.0938.0781.0312.1562.0468.2344.0468.2031-.0156.3281-.0156.375 0 .0468.0157.0859.0313.1172.0469.0624 0 .1171-.0078.164-.0234s.086-.0156.1172 0c.2344.0468.3828.0625.4453.0468.0781-.0312.1485-.0624.2109-.0937.1719-.0469.2579-.0859.2579-.1172.1875-.0781.3047-.125.3515-.1406.0469-.0313.1094-.0469.1875-.0469.0313-.0469.0625-.0859.0938-.1172.0312-.0468.0625-.0859.0937-.1172.0938-.1093.1485-.1718.1641-.1875.0312-.0156.0547-.039.0703-.0703.0938-.1718.1406-.2656.1406-.2812.0156-.0156.0313-.0391.0469-.0703 0-.0313.0078-.0703.0234-.1172.0313-.0625.0625-.1094.0938-.1407.0312-.1718.0469-.3124.0469-.4218s.0078-.2188.0234-.3282c.0469-.2187.0625-.3828.0469-.4921 0-.1094.0156-.2032.0469-.2813-.0313-.0469-.0391-.0937-.0235-.1406s.0156-.0938 0-.1406c0-.0469-.0078-.0938-.0234-.1407-.0157-.0468-.0235-.0937-.0235-.1406.0157-.125.0157-.2109 0-.2578-.0156-.0469-.0312-.0937-.0468-.1406-.0157-.1563-.0469-.2578-.0938-.3047-.0156-.0469-.0312-.1016-.0469-.1641 0-.0625-.0156-.1093-.0468-.1406-.0782-.1563-.125-.25-.1407-.2813-.0156-.0468-.039-.0859-.0703-.1171-.125-.1407-.2031-.2422-.2343-.3047-.1719-.125-.2735-.1953-.3047-.211-.0313-.0312-.0625-.0625-.0938-.0937-.1875-.0781-.2969-.1172-.3281-.1172l-.2813.0234c-.2031.0625-.3515.1172-.4453.1641-.0781.0469-.1562.0859-.2344.1172-.125.0469-.2265.1094-.3046.1875-.1407.0625-.2188.1015-.2344.1172l-.211.164-.2343.1641c-.125.0938-.211.1719-.2578.2344-.0469.0468-.0938.0859-.1407.1172-.1406.1093-.2187.1718-.2343.1875-.0157.0156-.0391.039-.0703.0703-.0938.0468-.1563.0937-.1876.1406-.0156.0312-.039.0625-.0703.0938-.0625.0781-.125.1484-.1875.2109-.0625.0469-.1172.1172-.164.2109-.0782.1563-.1172.2344-.1172.2344-.0625.1094-.0938.1875-.0938.2344.0157.0468.0078.0859-.0234.1172.0156.2031.0391.3359.0703.3984v.2578c.0156.0313.0235.0703.0235.1172.0156.0781.0156.1484 0 .2109v.1641c0 .0781-.0079.1484-.0235.2109v.1641c.0313.1875.0391.2969.0235.3281 0 .0313.0078.0625.0234.0938.0469.0469.0859.0937.1172.1406.0312.0313.0859.0469.164.0469zm21.7969-8.7422c.0625.0156.1719.0547.3281.1172.1407.0468.2422.125.3047.2344.0781.0312.1485.0703.211.1171.0625.0313.125.0782.1875.1407.1562.1093.2265.1718.2109.1875v.0468c.1406.1094.2109.1719.2109.1875.0313.0313.0704.0704.1172.1172.0469.0469.086.086.1172.1172.0781.1094.125.1797.1406.211.0313.0312.0625.0624.0938.0937.0781.1406.125.2266.1406.2578.0313.0156.0547.0391.0703.0703.1563.1875.25.3282.2813.4219.0468.0781.0937.1641.1406.2578.0625.1406.1016.2188.1172.2344.0156 0 .0312.0078.0469.0234.0468.1407.0859.2344.1171.2813.0469.0468.086.1094.1172.1875.0782.125.1485.2656.211.4219.0781.1562.1484.3281.2109.5156.1094.2968.1953.5859.2578.8672 0 .1093.0078.1953.0235.2578.0781.2031.1172.3437.1172.4218 0 .0782.0078.1641.0234.2579.0312.0781.0469.1562.0469.2343 0 .0782.0078.1563.0234.2344.0313.1094.0625.2656.0937.4688 0 .125-.0078.25-.0234.375v.3515c-.0156.125-.0234.2344-.0234.3281.0156.0938.0078.1954-.0235.3047-.0312.1407-.0468.2422-.0468.3047s-.0079.1328-.0235.211c-.0312.125-.0468.2109-.0468.2578-.0313.0781-.0626.1484-.0938.2109-.0156.0469-.0391.1094-.0703.1875-.0313.125-.0547.211-.0703.2578-.0313.125-.0782.2266-.1406.3047-.0469.0781-.1094.1641-.1876.2578-.0468.0938-.1015.1719-.164.2344-.0469.0625-.0938.125-.1406.1875-.1094.1719-.1954.2891-.2578.3516-.0469.0625-.0938.1328-.1407.2109-.125.1563-.1953.2422-.2109.2578-.0156 0-.0313.0156-.0469.0469-.0625.0781-.1328.164-.2109.2578-.0782.0781-.1641.1484-.2578.2109-.0782.1563-.1485.25-.211.2813-.0468.0312-.1094.0703-.1875.1172-.0625.0468-.1172.1015-.164.164-.25.0938-.3985.1563-.4453.1875l-.2344.1172c-.2344.0938-.3828.1641-.4453.211-.0625.0312-.1329.0703-.211.1171-.0625.0313-.1719.0782-.3281.1407-.0938.0469-.1641.0703-.2109.0703-.0313 0-.0625.0078-.0938.0234-.125.0469-.2031.0703-.2344.0703-.0156 0-.039.0079-.0703.0235-.1718.0468-.289.0703-.3515.0703s-.125.0078-.1875.0234c-.2032.0625-.3594.0938-.4688.0938-.1875-.0157-.3125-.0157-.375 0-.0469.0156-.1094.0312-.1875.0469-.2344.0468-.4687.0468-.7031 0-.1719.0312-.3125.0468-.4219.0468-.0469 0-.0937 0-.1406 0-.0469.0156-.0859.0235-.1172.0235-.0625 0-.1172-.0157-.1641-.0469-.0312-.0156-.0781-.0234-.1406-.0234-.0625-.0157-.1797-.0235-.3516-.0235-.0937-.0156-.1874-.0312-.2812-.0469-.0938-.0156-.1875-.0312-.2812-.0468-.0469-.0157-.1016-.0235-.1641-.0235-.0469 0-.0938-.0078-.1406-.0234-.1094-.0313-.1953-.0469-.2579-.0469-.2031-.0781-.2968-.1172-.2812-.1172-.2188-.0625-.3359-.1015-.3516-.1172-.1875-.0156-.3125-.039-.375-.0703-.1718-.0625-.2734-.0937-.3046-.0937l-.2579-.1172c-.1875-.0938-.3125-.1406-.375-.1406-.1562-.0469-.2578-.0938-.3047-.1407-.1718-.0625-.2734-.1015-.3046-.1171-.0313-.0157-.0625-.0313-.0938-.0469-.1562-.1563-.2656-.2422-.3281-.2578-.0625-.0313-.1094-.0782-.1406-.1407-.1719-.0781-.2657-.125-.2813-.1406 0-.0156-.0078-.0312-.0234-.0469-.0938-.0625-.1719-.1484-.2344-.2578-.125-.0937-.2188-.1953-.2812-.3047-.0938-.0781-.1563-.1484-.1876-.2109-.1093-.1563-.164-.2422-.164-.2578s-.0078-.0313-.0234-.0469c-.1094-.1875-.1797-.289-.211-.3047-.0156-.0312-.0312-.0703-.0469-.1172-.0468-.0468-.1015-.0937-.164-.1406-.0469-.0625-.0703-.1406-.0703-.2344-.125-.0937-.2032-.1797-.2344-.2578-.0469-.1093-.0703-.1797-.0703-.2109.0156-.0313.0234-.0625.0234-.0938-.1094-.1875-.1875-.3281-.2344-.4218-.0625-.2032-.1015-.3282-.1171-.375-.0938-.1875-.1563-.336-.1876-.4454-.0312-.1093-.0624-.2343-.0937-.375-.0156-.125-.0234-.1953-.0234-.2109.0156-.0156.0156-.0391 0-.0703 0-.0469-.0079-.0859-.0235-.1172 0-.0469-.0078-.0937-.0234-.1406.0156-.2344.0078-.3672-.0234-.3984-.0157-.1563-.0313-.2344-.0469-.2344-.0157-.0156-.0235-.0391-.0235-.0703 0-.125.0078-.2188.0235-.2813.0312-.0625.0469-.125.0469-.1875 0-.125 0-.2187 0-.2812.0468-.125.0703-.2032.0703-.2344.0156-.0469.0156-.1016 0-.1641.0625-.1406.0937-.2422.0937-.3047s.0078-.1171.0234-.164c.0313-.0938.0547-.1563.0704-.1875.0156-.0313.0234-.0625.0234-.0938.0156-.0781.0234-.1328.0234-.164 0-.0313.0078-.0782.0235-.1407.0469-.1093.0937-.2031.1406-.2812.0469-.125.0703-.2109.0703-.2578s.0078-.0938.0234-.1407c.0313-.1406.0626-.2265.0938-.2578.0625-.1718.1016-.2578.1172-.2578s.0234-.0078.0234-.0234c.0782-.125.1328-.211.1641-.2578.0312-.0625.0625-.1172.0937-.1641.0313-.0781.0625-.1484.0938-.2109.0312-.0625.0625-.1328.0937-.211.0782-.0937.1172-.1484.1172-.164.0157-.0313.0313-.0625.0469-.0938.0781-.125.125-.1875.1406-.1875.0156-.0156.0391-.039.0703-.0703.0625-.0937.0938-.1484.0938-.164.0156-.0157.0312-.0391.0469-.0704.2343-.2812.3828-.4922.4453-.6328.125-.0625.2031-.125.2343-.1875.0626-.0156.1016-.0469.1172-.0937.0313-.0625.0625-.1094.0938-.1406l.2812-.0938c.1563-.1094.2735-.1797.3516-.2109.1094-.0625.1797-.086.2109-.0703.0469 0 .086-.0079.1172-.0235.125-.1094.1875-.1562.1875-.1406s.0156.0078.0469-.0235c.1563-.0624.2422-.0937.2578-.0937.0313 0 .0625-.0078.0938-.0234.125-.0782.2031-.1172.2343-.1172.0313-.0157.0704-.0313.1172-.0469.0469-.0156.086-.0391.1172-.0703.1563-.0781.2578-.1172.3047-.1172s.0937-.0078.1406-.0234c.1563-.0625.25-.0938.2813-.0938.0468-.0156.0859-.0234.1172-.0234.3281-.0781.5546-.1407.6796-.1875.0938.0156.1797.0156.2579 0 .0937-.0313.1797-.0547.2578-.0703.1875 0 .3047.0078.3515.0234.0469.0156.0938.0234.1407.0234.0468 0 .0937-.0078.1406-.0234.0625-.0156.125-.0234.1875-.0234h.375c.0469-.0157.0937-.0235.1406-.0235.0625-.0156.1172-.0156.1641 0s.1015.0235.164.0235c.0469-.0157.0938-.0313.1407-.0469.0625-.0156.1328-.0156.2109 0 .0937.0156.1797.0312.2578.0469.0781.0156.125.0234.1406.0234.1875.0156.2969.0313.3282.0469.0781.0156.164.0312.2578.0468.1093.0157.2265.0313.3515.0469.1719.0157.2578.0235.2578.0235.0157-.0157.0391-.0157.0704 0 .1406.0625.2265.1015.2578.1172h.1172l.1875.0468c.0781 0 .1406.0235.1875.0703.2187.0938.3437.1563.375.1875zm-3.3281 3.5859c-.1563-.0312-.2344-.039-.2344-.0234s-.0078.0234-.0234.0234c-.1563.0157-.2422.0313-.2578.0469-.0157.0156-.0391.0234-.0704.0234-.0624.0313-.1328.0547-.2109.0704-.0625 0-.1094.0156-.1406.0468-.1563.0938-.2422.1406-.2578.1406-.0157 0-.0391.0079-.0703.0235-.1407.0469-.211.0781-.211.0937 0 0-.0156.0078-.0468.0235-.0938.0625-.1797.1328-.2579.2109-.1093.0781-.1953.1484-.2578.211-.0469.0468-.0859.0859-.1172.1171-.125.1407-.1875.2188-.1875.2344-.0937.125-.1718.2188-.2343.2813-.1094.1562-.1641.2578-.1641.3046 0 .0469-.0156.0938-.0469.1407-.125.1406-.1953.2578-.2109.3515-.0469.0782-.0938.1485-.1406.211-.0313.0468-.0469.1015-.0469.164.0156.2032.0156.3282 0 .375v.1172c0 .2032.0234.3594.0703.4688.0312.125.0625.25.0938.375.0468.125.1015.25.164.375.0938.1718.1328.2656.1172.2812 0 .0156.0078.0313.0234.0469.0782.125.125.1875.1407.1875.0156 0 .0312.0078.0468.0234.125.125.1953.1875.211.1875.0156 0 .039.0079.0703.0235.0781.0781.1562.164.2344.2578.0937.0781.2031.125.3281.1406l.3047.1641c.0468.0312.0937.0469.1406.0469s.0938.0078.1406.0234c.0938.0469.1563.0703.1875.0703.0313-.0156.0625-.0156.0938 0 .1406.0469.2343.0703.2812.0703.0469-.0156.086-.0234.1172-.0234.1563.0468.25.0703.2813.0703.0468-.0156.0937-.0235.1406-.0235h.2344c.1093-.0156.2031-.0234.2812-.0234l.4219-.0703c.1406-.0469.2031-.0781.1875-.0937 0-.0157.0156-.0235.0469-.0235.1093-.0156.1953-.0547.2578-.1172.1406-.1093.2578-.164.3515-.164.0782-.1563.1563-.2579.2344-.3047.0938-.1406.1328-.211.1172-.211 0-.0156.0078-.0312.0234-.0468.0469-.1094.086-.1641.1172-.1641.0313-.0156.0547-.0391.0703-.0703.0469-.0938.0703-.1563.0703-.1875.0157-.0313.0313-.0547.0469-.0703l.1641-.3282c.0937-.1406.1406-.2656.1406-.375.0625-.1874.086-.3203.0703-.3984 0-.0781 0-.1562 0-.2344-.0156-.0781-.0312-.1484-.0469-.2109-.0156-.0625-.0312-.1328-.0468-.2109-.0156-.0625-.0235-.1094-.0235-.1407.0157-.0468.0157-.0859 0-.1171-.0312-.0626-.0625-.1094-.0937-.1407-.0156-.0469-.0234-.0937-.0234-.1406-.0938-.125-.1407-.1953-.1407-.2109 0-.0157-.0078-.0313-.0234-.0469-.0781-.1094-.1172-.1641-.1172-.1641 0-.0156-.0078-.039-.0234-.0703-.0469-.0625-.0938-.1172-.1407-.1641-.0312-.0624-.0703-.125-.1172-.1874-.1093-.1094-.1718-.1719-.1874-.1876 0-.0156-.0157-.0312-.0469-.0468-.1563-.125-.2657-.2032-.3281-.2344-.0469-.0469-.086-.1016-.1172-.1641-.1719-.0781-.3125-.1406-.4219-.1875-.1563-.0781-.2344-.125-.2344-.1406.0156-.0312.0156-.0469 0-.0469l-.3047-.0937c-.125-.0625-.2031-.1094-.2344-.1406zm13.6406 9.9844c-.0937-.0156-.1953-.0313-.3047-.0469-.1093 0-.2031.0235-.2812.0703-.0938-.0312-.1875-.039-.2813-.0234-.0781.0313-.1562.0547-.2344.0703-.2187.0156-.3515.0156-.3984 0-.0469 0-.0937 0-.1406 0l-.375.0234c-.0625.0157-.1172.0235-.1641.0235-.0312.0156-.0859.0156-.164 0l-.2579-.0235c-.125 0-.1953-.0078-.2109-.0234-.0156 0-.0391 0-.0703 0-.1094.0156-.2109.0156-.3047 0-.0781 0-.1562 0-.2344 0h-.3984c-.0781-.0156-.1328-.0234-.1641-.0234-.0312.0156-.0703.0156-.1172 0-.1093-.0313-.1953-.0703-.2578-.1172-.0468-.0313-.0937-.0625-.1406-.0938-.0937-.0468-.1406-.0859-.1406-.1172.0156-.0468-.0078-.0624-.0703-.0468.0312-.0625.0469-.1406.0469-.2344s-.0079-.1875-.0235-.2812c.0313-.2969.0313-.586 0-.8672v-.6563c.0469-.25.0703-.4062.0703-.4687.0313-.1875.0469-.2969.0469-.3282 0-.1562 0-.2422 0-.2578.0156-.1875.0313-.3125.0469-.375v-.7031c.0312-.125.0468-.2344.0468-.3281-.0156-.0938-.0156-.1719 0-.2344.0157-.0625.0235-.1328.0235-.2109-.0313-.1094-.0469-.211-.0469-.3047.0156-.0938.0234-.1953.0234-.3047v-.2813c0-.1406.0079-.2734.0235-.3984s.0156-.2734 0-.4453c-.0313-.0938-.0391-.1797-.0235-.2578.0157-.0938.0235-.2031.0235-.3281 0-.0782-.0078-.1563-.0235-.2344 0-.0938 0-.1875 0-.2813 0-.1719-.0078-.2969-.0234-.375-.0312-.2656-.0469-.4687-.0469-.6093.0157-.1563.0235-.3047.0235-.4454l-.0235-.3984c-.0156-.0625-.0312-.1094-.0468-.1406-.0157-.0469-.0235-.1016-.0235-.1641.0625-.2031.086-.3437.0703-.4219 0-.0781 0-.1562 0-.2343v-.4688c0-.0937 0-.1875 0-.2812.0157-.1094.0235-.211.0235-.3047-.0156-.1875-.0313-.3828-.0469-.586 0-.2031.0078-.3906.0234-.5625-.0468-.0625-.0703-.125-.0703-.1875.0156-.0781.0235-.1562.0235-.2343 0-.1719-.0079-.2579-.0235-.2579 0-.0156 0-.0312 0-.0468-.0156-.1094-.0234-.211-.0234-.3047-.0156-.1719-.0156-.2735 0-.3047s.0234-.0625.0234-.0938c0-.0624-.0078-.125-.0234-.1874-.0156-.0626-.0234-.1329-.0234-.211.0156-.1094.0078-.2422-.0235-.3984 0-.0469 0-.0938 0-.1406.0156-.0469.0156-.1016 0-.1641 0-.1563-.0156-.2578-.0469-.3047-.0156-.0469-.0234-.0859-.0234-.1172 0-.1094-.0078-.2109-.0234-.3047 0-.0937 0-.1797 0-.2578l-.0235-.3047c-.0312-.1406-.0469-.2187-.0469-.2344.0157-.0156.0235-.039.0235-.0703-.0156-.0781-.0313-.1406-.0469-.1875-.0156-.0625-.0234-.1172-.0234-.164.0156-.1719.0156-.2656 0-.2813 0-.0156 0-.039 0-.0703l.0468-.3047c.0313-.0312.0626-.0625.0938-.0937.0312-.0313.0625-.0625.0938-.0938.0781-.0312.1562-.0468.2343-.0468.0938-.0157.1719-.0391.2344-.0704.1406-.0156.2578-.0234.3516-.0234.1093 0 .2031.0156.2812.0469.1563.0312.25.0469.2813.0469.0312-.0157.0625-.0235.0937-.0235.1406.0156.2422.0235.3047.0235s.1328.0078.2109.0234c.1719.0156.2891.0234.3516.0234.0781 0 .1563.0078.2344.0235l.2812.0468h.2344c.0625 0 .1172-.0078.1641-.0234l.375-.0469h.2812c.0469-.0156.1016-.0156.1641 0h.1406c.0469 0 .1094-.0156.1875-.0468.1406.0624.2188.0937.2344.0937s.0234.0156.0234.0469l.1641.2344c0 .0624-.0078.1171-.0235.164v.0938.3046c.0157.0938.0235.1797.0235.2579l-.0235.2812c-.0156.0625-.0234.125-.0234.1875 0 .0469-.0078.1016-.0234.1641-.0313.2812-.0625.4609-.0938.539.0313.0782.0391.1641.0234.2579-.0156.0937-.0234.1796-.0234.2578-.0156.1718-.0234.2656-.0234.2812.0156.0156.0234.0391.0234.0703l-.0234.375c-.0156.2031 0 .3672.0468.4922-.0156.1875-.0156.3125 0 .375.0157.0469.0079.0781-.0234.0938v.3515c0 .2188.0078.3516.0234.3985.0157.0312.0079.0703-.0234.1171v.7032c.0313.0937.0469.1875.0469.2812 0 .0625-.0078.125-.0235.1875-.0156.0625 0 .1328.0469.211-.0312.2656-.0547.5468-.0703.8437 0 .2813.0156.5469.0469.7969 0 .0469.0078.0937.0234.1406.0157.0469.0235.0859.0235.1172-.0157.0625-.0313.1172-.0469.1641 0 .0312-.0078.0703-.0235.1172v.3281c.0157.0312.0235.0625.0235.0937v.4453c.0156.1094.0156.2344 0 .375v.3985c0 .0625-.0078.125-.0235.1875v.1406c-.0156.0937-.0234.1719-.0234.2344.0156.0469.0234.0859.0234.1172.0157.1093.0157.2109 0 .3047-.0156.0937-.0234.1718-.0234.2343-.0156.0781-.0234.1641-.0234.2578.0156.0938.0156.1797 0 .2579 0 .0312-.0078.0781-.0235.1406v.1406.4219c.0157.1406.0157.2812 0 .4219.0157.2031.0235.3359.0235.3984-.0313.1719-.0391.2812-.0235.3281.0157.0469.0235.1016.0235.1641-.0156.1406-.0235.2265-.0235.2578.0157.0156.0079.039-.0234.0703.0313.1406.0469.2187.0469.2344.0156 0 .0234.0078.0234.0234.0156.1875.0234.3203.0234.3985v.2578c.0469.1093.0626.1796.0469.2109-.0156.0313-.0078.0547.0235.0703-.0157.0781-.0157.1563 0 .2344.0312.0781.0546.1562.0703.2344 0 .1875.0078.3125.0234.375.0156.0468.0313.1093.0469.1875.0156.0468.0234.1093.0234.1875v.2109l-.0234.3281c0 .0782.0078.1328.0234.1641.0156.0312.0156.0859 0 .1641-.0312.1406-.0547.2187-.0703.2343-.0156.0157-.0234.0313-.0234.0469zm6.8202-18.5625c.078.0156.133.0469.164.0938.047.0468.094.0937.141.1406.078.2812.117.4531.117.5156v.4219c.016.0469.023.1172.023.2109 0 .0781-.007.1328-.023.1641v.1172c-.016.0468-.023.0937-.023.1406.015.0469.023.1015.023.1641.016.1406.016.2734 0 .3984-.047.1562-.078.2422-.094.2578l-.164.2344c-.062.0625-.101.1094-.117.1406s-.039.0547-.07.0703c-.203.0781-.352.1328-.446.1641-.078.0156-.156.0312-.234.0468-.047 0-.133.0157-.258.0469-.031 0-.078.0078-.14.0235-.047 0-.086 0-.118 0-.187.0156-.281.0234-.281.0234-.125-.0156-.195-.0234-.211-.0234-.015-.0157-.031-.0235-.047-.0235-.172.0313-.289.0469-.351.0469-.063-.0156-.133-.0312-.211-.0469-.188 0-.305 0-.352 0-.031-.0156-.078-.0156-.14 0-.219-.0156-.352-.0156-.399 0h-.469c-.14-.1406-.218-.2109-.234-.2109 0 0-.008-.0156-.023-.0469l-.211-.2109c0-.1719-.024-.3516-.071-.5391l-.047-.4687v-.3047c0-.2188.016-.375.047-.4688 0-.1875.016-.2969.047-.3281.032-.0469.047-.0938.047-.1406.094-.1406.149-.2266.164-.2578.016-.0313.039-.0625.071-.0938l.421-.1875c.188-.0625.305-.1015.352-.1172.047-.0156.086-.0312.117-.0469h.352l.328-.0703c.062-.0156.125-.0312.187-.0468.078-.0157.149-.0235.211-.0235.047 0 .094.0078.141.0235h.141.14c.047-.0157.102-.0235.164-.0235.125 0 .235.0078.328.0235.11.0156.219.0078.328-.0235.047-.0156.133-.0078.258.0235.125.0156.227.039.305.0703zm.352 17.9062c.015.0782 0 .1407-.047.1876-.047.0312-.063.0703-.047.1171-.219.0469-.328.0703-.328.0703-.125.0626-.266.1094-.422.1407-.125.0312-.258.039-.398.0234-.126 0-.274-.0078-.446-.0234-.172.0156-.297.0234-.375.0234-.062 0-.125 0-.187 0h-.352c-.156.0156-.242.0235-.258.0235-.14 0-.258.0078-.351.0234-.078.0312-.133.0469-.164.0469h-.328l-.329-.0703c-.062 0-.125 0-.187 0-.063.0156-.133.0156-.211 0-.078-.0313-.141-.0626-.188-.0938-.046-.0156-.101-.0234-.164-.0234-.078-.1719-.117-.2657-.117-.2813 0-.0312-.008-.0547-.023-.0703-.047-.0781-.07-.1484-.07-.2109.015-.0782.023-.1485.023-.211 0-.0469-.008-.0937-.023-.1406 0-.0469 0-.0859 0-.1172 0-.0469.007-.0937.023-.1406s.023-.1016.023-.1641c.016-.0625.024-.1328.024-.2109.015-.0781.031-.1563.047-.2344.015-.125.023-.2187.023-.2812 0-.0782 0-.1329 0-.1641.016-.0469.024-.0938.024-.1406 0-.0625.007-.125.023-.1875.016-.0938.016-.1641 0-.211-.016-.0625-.023-.1171-.023-.164 0-.0313 0-.0781 0-.1407.015-.0624.023-.1328.023-.2109 0-.1094-.008-.2109-.023-.3047 0-.0937 0-.1875 0-.2812 0-.0782.015-.1953.046-.3516v-.3047c.016-.1406.024-.3125.024-.5156s-.008-.3906-.024-.5625v-.2578c.016-.1875.024-.3281.024-.4219.016-.1094.016-.2187 0-.3281 0-.0469-.008-.086-.024-.1172 0-.0469 0-.0938 0-.1406-.015-.0782-.023-.1485-.023-.211s0-.1328 0-.2109c0-.0937-.008-.1484-.023-.1641 0-.0312 0-.0625 0-.0937v-.4219c-.016-.1719-.016-.2656 0-.2812.015-.0313.023-.0625.023-.0938 0-.1875 0-.3047 0-.3516.016-.0624.023-.125.023-.1874 0-.1563 0-.2422 0-.2579 0-.2656-.007-.4297-.023-.4921-.047-.1563-.07-.25-.07-.2813v-.3516c0-.1406-.008-.2265-.024-.2578 0-.0469.008-.1015.024-.164 0-.1094-.008-.2188-.024-.3282 0-.1093 0-.2265 0-.3515-.015-.1094-.015-.1875 0-.2344.016-.0469.024-.0938.024-.1406v-.6563c-.032-.1875-.032-.3906 0-.6093.031-.1563.062-.25.093-.2813.047-.1563.079-.2422.094-.2578.141-.1875.281-.3125.422-.375.078-.0313.141-.0625.188-.0938.062-.0468.109-.0703.14-.0703.141-.0312.235-.0468.281-.0468.172-.0157.344-.0157.516 0 .172.0156.344.0078.516-.0235.14-.0156.234-.0078.281.0235.047.0156.102.0078.164-.0235.203-.0156.328-.0156.375 0h.141c.125-.0312.211-.0391.257-.0234h.422c.047 0 .102.0078.164.0234.063 0 .11.0156.141.0469.031-.0313.117-.0469.258-.0469.047.0313.078.0625.094.0938.031.0312.078.0468.14.0468.063.1407.117.2344.164.2813.047.1406.102.289.164.4453.032.0781.047.1719.047.2813 0 .1093.008.2265.024.3515v.1875c.015.0625.023.1172.023.1641 0 .0781-.008.1562-.023.2343 0 .0782-.008.1563-.024.2344-.015.2344-.023.4297-.023.586 0 .1406-.008.2812-.024.4218-.015.0782-.031.1563-.047.2344v.2344c0 .0625.008.125.024.1875.015.0469.023.1015.023.1641 0 .125-.008.2578-.023.3984-.016.125-.031.2578-.047.3984-.016.125-.031.25-.047.375-.015.1094-.023.2344-.023.375v.1172c.015.0469.023.0938.023.1406 0 .0782-.008.1485-.023.211v.1875.2343c.015.0782.015.1563 0 .2344 0 .0782-.008.1563-.024.2344-.015.0625-.023.1328-.023.2109-.016.125-.016.25 0 .375.015.125.023.25.023.375 0 .0782-.008.1563-.023.2344-.016.0781-.016.1563 0 .2344.047.2656.062.4453.047.5391-.016.0937-.016.1953 0 .3046.015.1719.015.2891 0 .3516v.1172.6094c0 .1093-.008.1953-.024.2578.063.1094.078.2422.047.3984-.031.1406-.015.2578.047.3516-.031.1094-.047.2265-.047.3515.016.125.039.2344.07.3282l.024.6328c.015.0937.023.1953.023.3047.016.0937.024.1796.024.2578l-.024.2578z" fill="#693821"/></svg>