<svg fill="none" height="72" viewBox="0 0 159 72" width="159" xmlns="http://www.w3.org/2000/svg" xmlns:xlink="http://www.w3.org/1999/xlink"><linearGradient id="a"><stop offset="0" stop-color="#cf5c2b"/><stop offset="1" stop-color="#59173e"/></linearGradient><linearGradient id="b" gradientUnits="userSpaceOnUse" x1="121.334" x2="81.2256" xlink:href="#a" y1="-106.293" y2="-19.7546"/><linearGradient id="c" gradientUnits="userSpaceOnUse" x1="90.0448" x2="51.7491" xlink:href="#a" y1="-31.7503" y2="130.181"/><linearGradient id="d" gradientUnits="userSpaceOnUse" x1="89.6402" x2="40.5929" xlink:href="#a" y1="-26.6212" y2="174.196"/><linearGradient id="e" gradientUnits="userSpaceOnUse" x1="83.2167" x2="79.9026" xlink:href="#a" y1="90.4501" y2="45.4475"/><linearGradient id="f" gradientUnits="userSpaceOnUse" x1="134.032" x2="121.232" xlink:href="#a" y1="17.0053" y2="44.4395"/><linearGradient id="g" gradientUnits="userSpaceOnUse" x1="163.511" x2="54.968" xlink:href="#a" y1="-66.6644" y2="135.264"/><linearGradient id="h" gradientUnits="userSpaceOnUse" x1="120.182" x2="112.109" xlink:href="#a" y1="14.6994" y2="32.0033"/><linearGradient id="i" gradientUnits="userSpaceOnUse" x1="138.777" x2="70.3143" xlink:href="#a" y1="-38.0752" y2="89.2897"/><linearGradient id="j" gradientUnits="userSpaceOnUse" x1="30.3739" x2="22.3003" xlink:href="#a" y1="29.4505" y2="46.7544"/><linearGradient id="k" gradientUnits="userSpaceOnUse" x1="48.9691" x2="-19.4942" xlink:href="#a" y1="-23.3243" y2="104.041"/><path d="m158.125 57.2484c-.082-1.4845-.163-2.9691-.233-4.4537-.07-1.5573-.152-3.1292-.222-4.6865-.047-1.0625-.117-2.1977-.14-3.3039-.023-.9169.28-2.4306-.117-3.2602-.233-.4948-.747-.6404-1.202-.7423-.595-.131-1.19-.262-1.785-.3929.805-.2329 1.587-.524 2.357-.8879.175-.0873.35-.1746.467-.3493.105-.1601.14-.3784.163-.5676.269-2.0376.094-4.1917.094-6.2585-.012-2.0958-.012-4.2062-.024-6.3021-.011-1.9939-.011-4.0025-.023-5.9964 0-.655.222-2.0959-.047-2.6781-.21-.4803-.712-.4511-1.097-.5094-.396-.0582-.793-.0582-1.19-.0291-.595.0437-1.178.1601-1.762.2766.77-.262 1.564-.393 2.334-.6259.502-.1455.992-.3493 1.459-.6549.28-.1892.583-.3493.746-.7132.07-.1455.094-.3348.129-.5094.07-.3639.081-.7423.105-1.1207.046-1.0334.081-2.0668.093-3.1147.012-.52394.012-1.0479 0-1.57187 0-.33475-.105-.65495-.128-1.00426-.105-1.41179-.56-2.76536-1.284-3.85695-.723-1.07703-1.715-1.86298-2.812-2.22684-.408-.13099-.817-.20376-1.237-.23287-49.335-1.935752-97.6908-2.008524-144.99601.02911-.1867.01455-.38507-.01456-.57177.04366-.1867.07277-.3734.1601-.57177.24743-.38507.17465-.77013.34931-1.14354.58218-.72346.43664-1.40025 1.01882-1.867 1.83387-.26838.4803-.45508 1.01882-.70012 1.49912-.12836.24742-.29172.43663-.39674.69861-.50176 1.25169-1.00351 2.51793-1.703641 3.62411-.676788 1.077-.8751571 2.7944-.8051446 4.1189.1050186 1.8048.1400256 3.6241.2683816 5.4288.210038 2.8673.011669 5.7345.268382 8.6309.035006.4075.09335.8732.338394 1.1352.175028.1892.408408.262.630108.3202.72347.2038 1.4586.393 2.18206.5968-.89849.7277-2.2404.7859-2.718818 1.9794-.151694.3929-.175032.8296-.198369 1.2662-.081681 1.5428-.198369 3.071-.28005 4.5992-.035007.6841-.070013 1.3827-.081682 2.0668-.023337.6549-.058344 1.2953-.116687 1.9503-.116688 1.5282-.431745 3.5076-.058344 5.0067.361731 1.4409 1.80866 1.4992 2.8005 1.8485-.52509.0727-.92183.6113-1.23689 1.1498-.15169.2765-.26838.553-.4084.8296-.12836.2474-.24505.4948-.35007.7568-.210033.524-.385065 1.0625-.513421 1.6301-.081682.3784-.128357.6695-.140025 1.0625-.011669.3493-.023338.6986-.035007 1.0479-.023337.6986-.035006 1.3973-.046675 2.0959-.023337 1.3972-.035006 2.7944-.023337 4.1917.011669 1.3535-.2450442 2.6635.210038 3.9879.455081 1.3245 1.236887 2.4597 2.217067 3.202.79347.6113 1.69197.9315 2.62547.9897 47.57351 2.6053 95.94011 2.5762 145.05411-.0145 1.296-.0728 2.544-.7132 3.501-1.8194.455-.5239.863-.9897 1.202-1.6592.42-.8005.805-1.6301 1.167-2.4742.887-2.0522 1.995-4.3373 1.855-6.7097z" fill="url(#b)"/><path d="m152.733 64.6864c-49.125 2.5762-97.4806 2.6198-145.05416.0146-2.11204 0-4.08406-1.8921-4.87754-4.2645-.35006-1.0625-.42008-2.2123-.3734-3.3475.01167-.2038.02334-.393.07001-.5968.07001-.3056.1867-.5676.21004-.8878.01167-.1747.03501-.3202.04667-.4949.08169-.9023.10502-1.8193.16337-2.7217.035-.5094.08168-1.0333.19837-1.5282.12835-.5676.33839-1.077.70012-1.4263 1.56362-1.47 4.6325-1.4409 6.90792-1.4991.4434-.0146.8518-.0291 1.2252-.0583.9919-.0727 1.9837-.1018 2.9755-.1018-2.357-.0146-4.7025-.262-7.02455-.7714-1.09686-.2329-2.19373-.524-3.27892-.8733-.25672-.0728-.53677-.1892-.78181-.3348-.33839-.1892-.63011-.4657-.78181-.8732-.12835-.3493-.11669-.7569-.11669-1.1207.01167-.3639-.035-.7423-.01166-1.1062.02333-.7859.10501-1.5428.16336-2.3141.05834-.6259.11669-1.2517.15169-1.8921.08168-1.6738.16337-3.3476.26838-5.0213.03501-.5094.08169-1.0625.36174-1.4118.17503-.2183.39673-.3202.61844-.4221.60678-.2765 1.22522-.4803 1.85533-.6113.32673-.0728.65345-.0728.9335-.1601.3384-.131.59511-.2183.95684-.262 3.46566-.5094 6.93126-1.0042 10.40856-1.5136.4084-.0583.8285-.1165 1.2485-.1747-5.2276-.7859-10.46684-1.601-15.69445-2.3869-.23337-.0437-.45508-.0728-.68846-.1019-.21003-.0291-.43174-.0728-.57177-.262-.01166-.0146-.02333-.0291-.035-.0437-.10502-.1746-.11669-.3784-.14003-.5967-.23337-3.5222.03501-7.1608-.12835-10.7267-.01167-.2038-.05835-1.1935-.10502-2.3287-.05835-1.6447-.1517-3.52221-.1867-3.52221-.22171-3.91516 2.18206-7.29181 5.33262-7.4228 47.29346-2.052191 95.64916-1.979418 144.94916 0 3.162.13099 5.59 3.52219 5.345 7.46647-.082 1.33904.128 2.63434-.14 3.98794-.059.3202-.141.6404-.339.8587-.175.1892-.408.262-.63.3202-.595.1747-1.19.3639-1.785.5385-.794.2329-1.576.4512-2.381.5677-4.761.6258-9.498 1.2662-14.247 1.9066-.129.0146-.257.0291-.385.0437-.152.0145-.304.0436-.455.0582.385-.0146.758-.0146 1.131-.0146 5.951-.131 11.914-.2474 17.877-.3784.163 0 .35 0 .478.131.152.1455.187.393.21.6258.035.3202.035.6259.035.917-.011.946-.14 1.8484-.14 2.809 0 .8442.164 1.6738.164 2.547-.012 1.2517-.047 2.5034-.082 3.7697-.093 2.8526-.257 5.749-.502 8.6162-.035.4221-.081.8588-.303 1.1644-.175.2329-.432.3639-.677.4657-.152.0728-.303.131-.467.1747-3.5 1.2517-7.328.262-10.922 1.0334-.233.0436-.478.1019-.7.1746-.081.0146-.163.0437-.233.0728.292.0291.583.0437.875.0873 3.932.3493 7.853.8442 11.762 1.47.455.0728.969.1747 1.237.6404.21.3493.21.8296.21 1.2663v1.4409c0 1.4554 0 2.9109.058 4.3663.07 1.9212.164 3.8424.269 5.7782.047.946.093 1.8921.152 2.8236.21 3.9006-2.183 7.2627-5.31 7.4373z" fill="url(#c)"/><path d="m157.368 23.9178c-.012 1.2517-.047 2.5034-.082 3.7696-2.018.2329-3.99.4221-5.928.6986-.455.0582-.898.1164-1.353.1892-1.669.2183-3.337.4221-5.006.5968-.828.0873-1.669.1746-2.509.2619-.537.0583-1.015.3202-1.528.393-.724.1019-1.517-.131-2.252-.1892-.817-.0582-1.634-.0873-2.451-.0728-1.634.0291-3.279.1747-4.901.4076-3.267.4657-6.488 1.2371-9.732 1.9066-5.192 1.077-10.408 1.9066-15.659 2.4452 2.859.3493 5.694.9315 8.483 1.7319-1.05.1019-2.1.2038-3.15.2766-3.338.262-6.675.393-10.012.4657-3.3374.0728-6.6864.0728-10.0237.0582-3.3372 0-6.6862-.0145-10.0234.0146-3.3373.0437-6.6746.131-10.0118.3202-1.6687.1019-3.3373.2183-4.9943.3784-.42.0437-.8284.0873-1.2485.131-.5018.0582-.9919.2329-1.5053.3057-3.979.5821-7.9581 1.3099-11.8905 2.2705-6.1144 1.4991-12.2638 2.9691-18.4833 3.493-1.1202.0874-2.252.1747-3.3723.262-5.3559 1.339-11.1436 1.6156-16.3946 2.4161-1.7853.2765-3.60562.4221-5.42594.5094-1.09687-.2329-2.19373-.524-3.27893-.8733-.25671-.0728-.53676-.1892-.7818-.3347-.3384-.1892-.63012-.4658-.78181-.8733-.12836-.3493-.11669-.7568-.11669-1.1207.01167-.3639-.035-.7423-.01167-1.1062.02334-.7859.10502-1.5427.16337-2.3141 4.80753-.4949 9.74337-2.2269 14.36427-3.071 5.9394-1.0625 11.9955-1.6884 17.9815-2.1104 6.7796-.4658 13.5475.5385 20.3037.5385 6.2661 0 12.5089-.6841 18.74-1.3099 12.1472-1.2226 24.2711-2.4888 36.3947-3.7988-2.637-.0582-5.274-.1455-7.911-.2619-3.3608-.1456-6.7214-.3348-10.082-.5531-.7818-.0437-1.587-.1747-2.3571-.0728-.8052.1165-1.622.1456-2.4271.131-1.5986-.0291-3.1973-.2765-4.7492-.7568-.9102-.2766-1.8203-.6404-2.7422-.8442-1.5636-.3347-3.1622-.2329-4.7608-.262-5.9394-.1019-11.7855-2.0522-17.7249-1.9794-1.5636.0146-3.1155.1747-4.6675.3493-1.6453.1892-3.3022.3784-4.9592.4367-.7351.0291-1.4936.0873-2.2054-.1165-.5484-.1601-1.1786-.0873-1.7387-.1019-1.0035-.0291-2.007-.0582-3.0105-.0873-2.007-.0582-4.014-.0873-6.0327-.1019-7.6197-.0436-15.2161.4803-22.8358.4076-3.24394-.0291-6.55786-.1165-9.76677-.6987-.01167-.0145-.02334-.0291-.03501-.0436-.10502-.1747-.11669-.3784-.14003-.5968-.23337-3.5222.03501-7.1608-.12835-10.7266-.01167-.2038-.05835-1.1935-.10502-2.3288 3.8857-.422 7.79478-.5239 11.68048-.8732 7.608-.6986 15.216-1.0043 22.8591-.9606 15.1344.0873 30.2337 1.2953 45.3214 2.7217 15.0994 1.4263 30.1643 3.1874 45.2633 4.5264 7.631.6695 15.274 1.0916 22.917 1.0916 2.241 0 4.505-.1746 6.768-.3784-.011.946-.14 1.8484-.14 2.809.035.917.199 1.7466.187 2.6053zm.245 24.7281c-.058-1.4554-.058-2.9109-.058-4.3663-4.82-.655-9.65-1.3245-14.493-1.7466-8.308-.7132-16.663-.5967-24.983-.1746-1.727.0873-3.43.1455-5.146.4075-.828.131-1.657.262-2.485.3784-3.326.4949-6.651.8878-9.989 1.208-1.2949.1165-2.6018.2329-3.9087.3348 3.3723-.0291 6.7447-.0582 10.1167-.0873 3.372-.0292 6.745-.0583 10.117-.0874 1.68-.0145 3.372-.0291 5.053-.0436.84-.0146 1.68-.0146 2.532-.0291.35 0 .723.0291 1.073-.0728.21-.0582.42-.1601.63-.2038.759-.1455 1.599.0437 2.357.1019.841.0582 1.669.1164 2.509.1747 1.669.1309 3.349.2765 5.018.422 2.637.2475 5.262.524 7.888.8151 2.87.3202 5.718.7423 8.576 1.1789-6.487.7714-12.964 1.5719-19.463 2.0231-14.96 1.0334-29.919 2.3287-44.9016 1.9503-14.7726-.3493-29.5103-1.4118-44.2946-1.339-7.7947.0291-15.5778.1892-23.3492.4803-5.741.2037-11.55207.1746-17.28144.9024-.11668.4803-.16336 1.0188-.19837 1.5282-.05834.9024-.08168 1.8193-.16336 2.7217 6.38282.3202 12.83567-.2183 19.20677-.2329 7.7831-.0146 15.5662.0728 23.3492.3056 14.7493.4367 29.487 1.4555 44.2246 1.7757 15.006.3348 29.977-1.0043 44.948-1.9503 7.725-.4803 15.496-.4949 23.221-.5967h.163c-.105-1.9358-.198-3.8424-.268-5.7782z" fill="url(#d)"/><g fill="#eb924d"><path d="m3.6988 43.655c-.01167.7277-.01167 1.47.17503 2.1541-.3384-.1892-.63012-.4658-.78181-.8733-.12836-.3493-.11669-.7568-.11669-1.1207.01167-.3638-.035-.7423-.01167-1.1061.04668-1.4118.25672-2.7945.31506-4.2063.08168-1.6738.16336-3.3475.26838-5.0213.03501-.5094.08168-1.0625.36173-1.4118.17503-.2183.39674-.3202.61845-.4221.60677-.2765 1.22522-.4803 1.85533-.6113.29172-.0873.61845-.0873.8985-.1746.33839-.131.5951-.2183.95683-.262 3.46566-.5094 6.93126-1.0043 10.40856-1.5137-3.7224.9461-7.4447 1.863-11.17869 2.8091-.72347.1746-1.69197.1746-2.29875.7714-.12836.1164-.23338.2619-.33839.4075-.09335.131-.17504.2765-.28005.4075-.19837.2183-.26839.5676-.36174.8733-.24504.8878-.38507 1.8193-.42007 2.7508-.01167.3493-.01167.7131-.04668 1.0625-.01167.0873-.02333.1746-.035.2619-.01167.1019-.05835.1747-.08169.2766-.1867.7131-.16336 1.4991-.08168 2.2268.03501.262.10502.524.1517.786.11669.6258.035 1.2953.02334 1.9357z"/><path d="m138.079 17.2228c-.21-.0144-.42-.0287-.63-.0431h1.004c-.117 0-.245.0287-.374.0431z"/><path d="m141.508 38.8076c.968.1165 1.937.2329 2.905.3202-.233.0437-.478.1019-.7.1747-.747-.1747-1.493-.3493-2.205-.4949z"/><path d="m155.767 37.0164c.152-.7568.117-1.5428.058-2.3142-.081-1.4263-.175-2.8672-.256-4.2935-.012-.2766-.047-.5822-.222-.7569-.14-.1455-.338-.1455-.513-.131-1.447.0583-2.883.1165-4.306.1747 1.552-.1747 3.092-.6841 4.492-1.5282.409-.2475.829-.5531.98-1.0625.082-.262.082-.5531.082-.8442-.023-2.2559-.338-4.7739-.56-7.0153-.677-.8005-1.692-.9023-2.626-.9751-3.757-.2911-7.526-.5676-11.272-.8587-.898-.0728-1.902-.1165-2.858-.1747 5.951-.131 11.913-.2474 17.876-.3784.164 0 .35 0 .479.131.151.1455.186.393.21.6258.128 1.2808-.117 2.4597-.117 3.726 0 .8442.163 1.6738.163 2.547-.058 4.0462-.233 8.267-.595 12.3859-.035.4221-.081.8587-.303 1.1644-.175.2329-.432.3639-.677.4657-.152.0728-.303.131-.467.1747.199-.2911.35-.6695.432-1.0625z"/><path d="m2.64961 14.779c-.02334-.4803-.23338-5.83641-.30339-5.83641-.22171-3.91516 2.18206-7.29181 5.33262-7.4228 47.29346-2.052191 95.64916-1.979418 144.94916 0 3.162.13099 5.59 3.52219 5.345 7.46647-.082 1.33904.128 2.63434-.141 3.98794-.058.3202-.14.6404-.338.8587-.175.1892-.408.262-.63.3202-.595.1747-1.179.3784-1.774.5385.514-.5822 1.109-1.2662 1.342-2.1104.164-.5676.035-1.0625-.116-1.601-.234-.8441-.28-1.64463-.304-2.53246-.035-1.09159.117-2.64892-.572-3.5222-.525-.65495-1.213-1.22258-1.867-1.6301-1.622-.98971-3.5-1.20803-5.286-1.29535-.093 0-.175-.01456-.268-.01456-3.291-.13099-6.593-.14554-9.883.27654-.397.04366-.747.18921-1.132.27653-.479.11644-1.05-.02911-1.541-.05821-1.12-.07278-2.228-.131-3.348-.18921-2.229-.10189-4.47-.17466-6.71-.21832-1.68-.02911-3.349-.02911-5.029-.02911-.525 0-1.062 0-1.587 0-1.015 0-2.031 0-3.057 0-1.412 0-2.824 0-4.236-.01456-.07 0-.14 0-.199 0-2.24 0-4.469-.01455-6.709-.01455-1.12 0-2.24 0-3.349-.01455-.513 0-1.085.08732-1.587-.02911-.5134-.11644-.9218-.50941-1.4585-.56763-.4901-.05822-.9919.04366-1.4703.10188-1.2252.11644-2.4388.26198-3.6523.43664-.5485.07277-1.1552.18921-1.517.69861-.1283.17466-.2217.39298-.3734.53852-.3384.30565-.8168.10188-1.2135-.07277-.7818-.33475-1.6103-.52396-2.4505-.56763-.7584-.04366-1.5052.13099-2.2637.07278-.4784-.02911-.9335-.17466-1.4003-.29109-1.8436-.45119-3.769-.4803-5.6243-.65496-1.3769-.13099-2.7655-.21832-4.1541-.27653-4.4691-.20377-8.9499-.08733-13.4074.14554-2.2404.11644-4.4691.26198-6.7095.43664-1.0269.07277-2.1588.34931-3.1739.17465-.2918-.04366-.5718-.18921-.8635-.26198-.3034-.07277-.6068-.05822-.9219-.05822-1.2368.01456-2.4854.02911-3.7223.02911-1.4469.01456-2.9055 0-4.3641 0-.4901 0-.9685.11644-1.4469.11644-.4435 0-.8752-.11644-1.3186-.11644-.9218.01456-1.832.23287-2.6838.66951-.3268.17465-.6651.36386-1.0269.34931-.6534-.04367-1.0968-.81506-1.692-1.16436-1.4002-.829612-2.8471.75683-4.2824.11643-.7118-.3202-1.4352-.27653-2.1937-.27653-.9569-.01456-1.9137-.01456-2.8705-.01456-3.2439.01456-6.4879.1601-9.7084.56763-1.6103.20376-3.209.4803-4.80757.82961-.77014.17465-1.55195.45119-2.33376.56762-.2217.02911-.39674.02911-.60677.21832-.95684.82961-3.58231 5.4725-1.70364 7.10258.11668.1019.24504.1892.38507.262.19837.1019.4084.1456.61844.2329.21004.1019.47842.0291.70013.0291.53676 0 1.07352 0 1.59862-.0146.57177 0 1.14354-.0145 1.6803.1892-1.21355.3202-2.4271.6259-3.64065.9315-.39674.1019-.79348.2038-1.16688.4076-.05835.0436-.12836.0582-.19837.0873-.25671.1164-.44341.5094-.53676.815-.24505.8005-.09335 1.6738-.19837 2.5034-.1867 1.4846.04667 3.0856.16336 4.5556.15169 1.8921.33839 3.7987.5601 5.6908-.23337-.0437-.45508-.0728-.68846-.1019-.2217-.0291-.45508-.0728-.60677-.2911-.10502-.1746-.11669-.3784-.14003-.5967-.23337-3.5513.03501-7.1899-.11668-10.7412z"/><path d="m158.034 57.2485c-.163-2.8672-.303-5.7345-.42-8.6017-.07-1.9358-.059-3.8715-.059-5.8073 0-.4366-.011-.9023-.21-1.2662-.268-.4657-.781-.5676-1.236-.6404-3.91-.6258-7.83-1.1207-11.763-1.47 3.501.8442 7.118 1.9212 10.444 3.071.653.2329.7.8587.968 1.6301.257.7714.281 1.6447.304 2.4743.012.3493.012.6986-.082 1.0333-.198.7423-.828 1.1498-1.388 1.4992.42.1455.84.291 1.271.4511.106.0437.211.0728.281.1747.081.1019.116.2765.128.4366.163 1.3827.035 2.8382.047 4.2354.011.9024.011 1.8048.023 2.7071.012.2475.082.4803.128.7423.07.524.024 1.0625-.105 1.5719-.256 1.0479-.828 1.9794-1.563 2.5762-1.272 1.0333-2.859 1.2517-4.376 1.3826-2.532.2329-5.076.2038-7.597.5095-.84.0873-1.668.1892-2.508.2765-1.669.1746-3.349.3202-5.018.4657-3.162.262-6.336.4658-9.498.5968-7.492.3202-14.995.2911-22.498.2328-.898-.0291-1.808-.0291-2.707-.0291-.7349 0-1.435.1165-2.1585.0291-1.762-.2183-3.5123.1747-5.2626.4221-2.0421.2766-4.2358.3057-5.9978-1.0042-.5601-.4221-1.1085-.9752-1.762-1.0043-.5367-.0146-1.0385.3639-1.5286.655-.9335.553-1.9603.8587-2.9872 1.0188-.0233 0-.035 0-.0583.0145-2.1821.3493-4.2824.1601-6.4645-.0291-1.5986-.131-3.2789.2038-4.8075-.5094-1.1786-.5385-2.4155-1.3099-3.629-.9024-.4318.1456-.8168.4367-1.2252.6404-.7935.393-1.6687.4658-2.5205.524-.5368.0291-1.0735.0582-1.6103.0873-2.2287.0873-4.4691.0728-6.6979-.0436-.9335-.0583-1.8903-.0437-2.8005-.3785-.6301-.2328-1.2485-.0873-1.902-.0291-2.7071.2183-5.426.2766-8.1448.1601-1.1085-.0436-2.217-.1164-3.3139-.2183-.5368-.0437-1.0969-.1746-1.6336-.1746-.3734 0-.7118.1455-1.0852.1455-2.2521-.0146-4.4925-.0582-6.7446-.0873-3.839-.0437-7.6897-.1019-11.5287-.1456-2.6255.4512-4.8309-.1164-7.43302-.7131-2.13538-.4949-4.45746-1.5719-5.34429-4.0462-.3734-1.0334-.43175-2.1832-.39674-3.2893.01167-.3348.03501-.655 0-.9897-.03501-.3057-.11669-.5822-.15169-.8879-.11669-1.0042.12835-2.1686.32672-3.1437.10502-.4949.23338-1.0189.5251-1.3973.25671-.3493.61844-.553.98017-.6986.95684-.3784 1.97202-.4657 2.97554-.5385 1.44693-.1019 2.89381-.2183 4.34081-.3202.2917-.0146.5834-.0437.8751-.0582-.035-.1747-.0583-.3493-.0583-.5385l.0117-.0728c-.8869-.0291-1.7737-.0291-2.6605-.0437-2.28711.0582-5.34432.0437-6.90794 1.4991-.70012.655-.82848 1.863-.89849 2.9401-.07001 1.0624-.09335 2.154-.21004 3.2165-.03501.3202-.14002.5822-.21004.8878-.04667.2038-.05834.393-.07001.5968-.04667 1.1498.02334 2.2996.3734 3.3475.78181 2.3869 2.75383 4.2645 4.87755 4.2645 47.57357 2.6052 95.92917 2.5761 145.05417-.0146 3.127-.1601 5.52-3.5222 5.298-7.4228z"/><path d="m11.1211 36.1004c0 .7859.0233 1.5864.0583 2.3724.0117.3929.035.7859.0584 1.1789.0117.2911 0 .6113.0467.8878.0466.2329.0933.4366.0933.6841.0233.6695.0467 1.3535.0817 2.0231.0467 1.3535.105 2.6925.1517 4.0461.07 1.732.1283 3.4494.1984 5.1814.035.9606.1633 1.7902.5717 2.6053.0817.1601.1517.3202.2451.4657.1517.2474.3384.4221.5717.5531.8519.4657 1.8204.7132 2.7422.8878 1.4236.2766 2.8588.3493 4.2941.4075 18.9151.8297 37.8535 1.6738 56.7802 1.0916 2.3104-.0727 4.7025-.1455 6.8496.9315-.9802-2.1832-3.349-2.5033-5.356-2.5616-21.0271-.5967-42.0659-1.2662-63.023-3.4494-.5718-.0582-1.2019-.1455-1.6103-.6695-.2917-.3639-.4084-.8878-.5017-1.3827-1.0736-5.3997-1.2836-11.0614-.6301-16.563.035-.3348.1166-.6986.105-1.0334-.0117-.3493-.0467-.6986-.0467-1.0625-.0117-.7277.0117-1.47.07-2.1977-.0817-.1747-.28-.1747-.4317-.1456-.3968.0583-.7935.1019-1.2019.1601.0233.4803 0 .9315-.0467 1.4118-.0117.1601.0117.2766.0233.4367.0234.3202-.0233.6549-.035.9606-.0233.4657-.035.946-.0466 1.4118 0 .4511-.0117.9169-.0117 1.3681z"/><path d="m84.6933 59.6787c.2334-.7423 1.0152-.8733 1.657-.8879 5.0992-.1309 10.1868-.2474 15.2857-.3784 4.808-.1164 9.627-.2328 14.435-.3638 1.552-.0437 3.209-.0437 4.492 1.0479-.023-.2329-.058-.4658-.082-.6986.549-.1165 1.074-.262 1.634-.2038.303.0291.618-.1019.922-.1455.712-.1165 1.435-.1601 2.147-.2038 3.956-.2183 7.923-.2911 11.89-.5385 1.004-.0582 1.996-.1456 2.999-.2329.992-.0873 1.996-.1601 2.976-.3347.14-.0292.268-.0874.408-.1019.187-.0146.374-.0291.56-.0437 1.004-.1019 2.019-.3347 2.952-.8733 1.167-.6695 2.194-1.8629 2.568-3.3912.163-.684.198-1.3972.233-2.1104.117-3.2602.082-6.5349-.117-9.7806-.128-.1601-.455.131-.501.3639-.479 2.3723-.841 4.7738-1.074 7.1899-.14 1.4409-.257 2.9691-.968 4.1044-.782 1.2371-2.089 1.732-3.326 2.0813-6.57 1.8921-13.361 2.0813-20.094 2.2559-6.277.1601-12.555.3348-18.821.4949-5.228-.2183-10.584.815-15.7766.1164-1.4586-.2038-2.9289-.524-4.3875-.262-.105.0146-.2217.0437-.3033.1456-.0584.0727-.07.1746-.0934.2765-.175.7568.105 1.7174.3851 2.4743z"/></g><path d="m149.558 45.8664c-.012-2.7654-.035-5.5307-.058-8.3107-.012-2.6634-.035-5.3124-.047-7.9758-.023-3.202.082-6.4331-.222-9.606-.058-.6259-.186-1.2663-.175-1.8921.012-.9461-.14-1.6738-.478-2.5762-.432-1.2225-1.05-2.3432-1.75-3.3621-1.517-2.24135-3.699-2.34323-5.975-2.45967-2.392-.13099-4.772-.01455-7.153-.02911-2.66-.01455-5.332-.02911-7.993-.05821-3.244-.02911-6.476-.07278-9.72-.11644s-6.488-.08733-9.732-.13099c-1.622-.01456-3.244-.04367-4.866-.05822-.338 0-.688-.04366-1.015.05822-.21.05822-.3965.1601-.6065.18921-.7235.08732-1.552-.14555-2.2638-.3202.0934-2.0813.3851-4.14804.8752-6.15657-.6651 2.06675-1.4236 4.08982-2.2871 6.04013-.0583.13099-.1167.26198-.2217.3202s-.2334.04366-.3384.02911c-.245-.04366-.5017-.07277-.7468-.14555-.5601-.17465-1.1552-.10188-1.7386-.10188-2.5088-.02911-5.0059-.04366-7.5147-.05821-4.9242-.02911-9.8485-.01456-14.761.0291-5.2743.04367-10.5486-.04366-15.8345-.07277-1.4353-.01455-2.8706-.02911-4.2941-.02911-.6185 0-1.2136-.02911-1.8087.13099-.6184.17466-1.3769.02911-2.007-.01455-.3501-.02911-.7235-.07277-1.0035-.34931-.2801-.26198-.4084-.68406-.5368-1.09159-.2567-.84416-.5134-1.68832-.7701-2.53249.035.98971.1166 1.96486.245 2.94002.035.3202.0583.72772-.175.88782-.07.04367-.1634.05822-.2451.07278-.28.02911-.5717.11643-.8518.04366-.5368-.13099-1.0735-.08733-1.622-.08733-5.9977 0-11.9721-.02911-17.9465-.05822-3.349-.01455-11.4004-2.13951-12.4973 3.53678-.1517.7859-.14 1.601-.1867 2.416-.1167 2.4452-.0466 4.9049-.0116 7.3646.0933 8.1069.28 16.2138.5367 24.3061.035 1.2371.0817 2.4888.2101 3.7259.105.9752.0466 2.256.6651 3.0128.21.262.3617.5094.5484.8151.3734.5967.8868 1.0479 1.4469 1.3681 1.2019.6986 2.5905.8878 3.9208.9606 4.3407.262 8.6698.4803 12.999.6404 4.3641.1746 8.7165.3347 13.0806.4366 4.3642.1019 8.7166.1747 13.0807.2038 3.9557.0291 7.9115.0437 11.8672.0582h6.0561c2.182 0 4.8192-.8442 6.8262.4512 1.0035.6404 1.8437 1.6738 2.3221 2.9546-.0817-1.0334-.0584-2.0813.07-3.1147 1.5869-.2765 3.1739-.4512 4.7725-.4803.6885-.0146 1.3536.1164 2.042.1019.8052 0 1.622-.0146 2.4271-.0146 3.244-.0291 6.4876-.0582 9.7316-.1019 2.007-.0291 4.014-.0582 6.033-.0873 4.364-.0582 8.717-.1892 13.081-.393.781-.0436 1.575-.0727 2.357-.1164 6.009-.2911 12.019-.7277 18.016-1.3244.514-.0583 1.004-.1165 1.482-.2329.77-.1892 1.494-.524 2.124-1.1935.77-.815 1.517-1.6883 2.03-2.7654.829-1.7319.619-3.7114.607-5.6762zm-3.255 3.755c-.316.655-.899 1.31-1.377 1.8048-.117.1164-.292.262-.747.3639-.339.0873-.735.131-1.132.1746-5.753.5677-11.774 1.0043-17.888 1.3245-.782.0437-1.552.0728-2.334.1019-4.574.2037-8.822.3347-12.999.3929-12.4039.1893-24.6212.2911-36.3366.2911-5.2509 0-10.5019-.0145-15.7645-.0582-4.3174-.0436-8.7166-.1019-13.034-.2037-4.3175-.1019-8.7049-.2475-13.034-.4221-4.3291-.1747-8.6933-.393-12.964-.655-.9452-.0436-2.0187-.1601-2.7772-.5967-.1867-.1165-.28-.2038-.3034-.2329-.14-.2329-.315-.5094-.5134-.8005-.0117-.1455-.0233-.3056-.035-.4366-.0233-.262-.035-.5094-.0584-.7569-.105-1.0479-.14-2.1249-.1867-3.4203-.2683-8.005-.455-16.1555-.5367-24.2041l-.0117-1.3682c-.035-1.9939-.0583-3.8715.035-5.7199.0117-.2038.0117-.4221.0234-.655.0116-.4511.0233-.8587.07-1.0915.105-.4949 1.2252-1.0043 3.5473-1.0043 1.1435 0 2.3687.1164 3.4423.2183.9218.1019 1.797.1747 2.5438.1747 5.3326.0291 10.6769.0436 16.0212.0436h2.9988c3.9908 0 7.9815.0146 11.9839.0437l3.8507.0291c2.8121.0291 5.636.0437 8.4481.0437 1.1786 0 2.3688 0 3.5707-.0146 2.9755-.0291 5.9394-.0437 8.9149-.0437 10.0702 0 20.3385.1456 30.2575.2766 7.783.1019 15.846.2037 23.734.2474l.385.0146c.7 0 1.377-.0146 2.077-.0146.677-.0145 1.354-.0145 2.019-.0145.98 0 1.797.0145 2.532.0582h.082c2.135.131 3.127.262 3.71 1.1207.595.8732 1.004 1.6737 1.284 2.4451.21.5968.21.7569.21.9897-.012.7569.081 1.4118.14 1.9358.011.1455.035.3202.058.4657.21 2.2123.199 4.4828.199 6.8989-.012.7568-.012 1.5137 0 2.2705l.105 16.2428c.011.3639.011.6987.023 1.0334.012 1.1498.035 2.1686-.233 2.7071z" fill="url(#e)"/><g fill="#eb924d"><path d="m11.1785 30.9632 3.5706-.8878-.1517-.4221-3.699.5531z"/><path d="m145.557 17.675 4.143.4366v-1.1643l-4.481.2474z"/><path d="m145.85 39.9283 4.586 1.0916-.094-.9169-4.924-.5385z"/><path d="m132.44 35.0382c-3.489-2.4306-9.288-1.6883-12.054 1.5865-1.739 2.0667-1.832 5.9237 0 7.9759 4.026 4.5264 11.097 2.5907 13.653-2.9983.046-.0582.093-.1164.151-.1601 1.949-2.1977.56-5.8509-1.75-6.404z"/></g><path d="m133.268 32.8986c-3.489-2.4306-9.288-1.6883-12.054 1.5864-1.738 2.0668-1.832 5.9237 0 7.9759 4.026 4.5265 11.097 2.5907 13.653-2.9982.046-.0582.093-.1164.151-.1601 1.949-2.1977.56-5.8509-1.75-6.404z" fill="url(#f)"/><path d="m132.44 34.2814c-3.489-2.4306-9.288-1.6883-12.054 1.5865-1.739 2.0667-1.832 5.9236 0 7.9758 4.026 4.5265 11.097 2.5907 13.653-2.9982.046-.0582.093-.1164.151-.1601 1.949-2.1977.56-5.8509-1.75-6.404z" fill="url(#g)"/><path d="m119.175 26.0723c-2.205-1.5428-5.857-1.0625-7.596 1.0042-1.097 1.2954-1.155 3.7406 0 5.0359 2.544 2.8527 7.001 1.6301 8.612-1.8921.035-.0291.058-.0728.093-.1019 1.225-1.3972.35-3.6968-1.109-4.0461z" fill="#eb924d"/><path d="m119.699 24.7334c-2.206-1.5428-5.858-1.0625-7.597 1.0043-1.096 1.2953-1.155 3.7405 0 5.0358 2.544 2.8527 7.002 1.6301 8.612-1.8921.035-.0291.058-.0727.093-.1018 1.226-1.4118.35-3.7114-1.108-4.0462z" fill="url(#h)"/><path d="m119.175 25.5918c-2.205-1.5428-5.857-1.0625-7.596 1.0043-1.097 1.3099-1.155 3.7405 0 5.0358 2.544 2.8527 7.001 1.6301 8.612-1.8921.035-.0291.058-.0727.093-.1018 1.225-1.3973.35-3.6969-1.109-4.0462z" fill="url(#i)"/><path d="m29.3707 40.8301c-2.2054-1.5428-5.8577-1.0625-7.5963 1.0043-1.0969 1.2953-1.1553 3.7405 0 5.0358 2.5437 2.8527 7.0012 1.6301 8.6115-1.8921.035-.0291.0584-.0727.0934-.1018 1.2252-1.3973.35-3.6969-1.1086-4.0462z" fill="#eb924d"/><path d="m29.8942 39.4766c-2.2054-1.5428-5.8578-1.0625-7.5964 1.0042-1.0969 1.3099-1.1552 3.7406 0 5.0359 2.5438 2.8527 7.0013 1.6301 8.6115-1.8921.035-.0291.0584-.0728.0934-.1019 1.2252-1.3972.3501-3.6968-1.1085-4.0461z" fill="url(#j)"/><path d="m29.3707 40.3496c-2.2054-1.5428-5.8577-1.0625-7.5963 1.0043-1.0969 1.3099-1.1553 3.7405 0 5.0359 2.5437 2.8526 7.0012 1.6301 8.6115-1.8921.035-.0291.0584-.0728.0934-.1019 1.2252-1.3973.35-3.6969-1.1086-4.0462z" fill="url(#k)"/><path d="m12.25 17.293c0-3.3137 2.6863-6 6-6h118.758c5.523 0 10 4.4771 10 10v24.1466c0 5.5229-4.477 10-10 10h-116.758c-4.4183 0-8-3.5817-8-8z" fill="#eb924d" opacity=".9"/><path d="m78.502 27.541c-.0144-.0286-.0359-.0788-.0645-.1504s-.043-.1432-.043-.2148c-.0143-.0716-.0215-.1361-.0215-.1934.0144-.0716.0215-.1432.0215-.2148 0-.1003 0-.1647 0-.1934.0144-.0286.0215-.0573.0215-.0859v-.3653c.0143-.0716.0215-.136.0215-.1933s0-.1146 0-.1719c.043-.1002.0573-.1647.043-.1933 0-.0287.0143-.0573.0429-.086.1146-.1289.1791-.1933.1934-.1933.0143-.0144.0286-.0287.043-.043.0716-.0716.1289-.1074.1718-.1074.043-.0144.0788-.0287.1075-.043.1145-.0573.1933-.0859.2363-.0859.0859.0143.1575.0143.2148 0 .0573-.0144.1075-.0215.1504-.0215.2005-.0287.308-.043.3223-.043.1003 0 .1862.0072.2578.0215.0859.0143.179.0286.2793.043.0286.0143.0645.0214.1074.0214.0573 0 .1074.0144.1504.043.043 0 .0788.0072.1074.0215.043.0143.086.0215.1289.0215.1862 0 .3295-.0072.4297-.0215.1003-.0286.1862-.0286.2578 0 .1719.0286.3151.0573.4297.0859.0716.0287.1361.0502.1934.0645.0716.0143.1361.0501.1933.1074.1003.1432.1648.265.1934.3652.043.1862.0645.3366.0645.4512v.2363.3008c.0143.086.0071.1719-.0215.2578v.2364c.0143.0143.0215.0143.0215 0-.0287.0716-.043.136-.043.1933v.1074.1504c0 .043-.0072.0788-.0215.1075-.0716.1145-.1074.2005-.1074.2578-.0716.0573-.1361.1146-.1934.1718-.1862.0717-.3151.1218-.3867.1504-.0573.0144-.1432.0215-.2578.0215-.1862-.0286-.2865-.0501-.3008-.0644-.1432-.0287-.3008-.0502-.4726-.0645-.0573-.0143-.1146-.0215-.1719-.0215-.043 0-.0931-.0071-.1504-.0215-.0573.0144-.1218.0215-.1934.0215-.0573 0-.1002-.0071-.1289-.0215-.0859 0-.1504.0072-.1933.0215-.0287.0144-.0573.0215-.086.0215-.1862-.0143-.3079-.0143-.3652 0s-.1146.0215-.1719.0215c-.0429-.0143-.0859-.0215-.1289-.0215-.0286 0-.0644-.0143-.1074-.043-.1862-.0143-.308-.0358-.3652-.0644-.0573-.043-.1218-.0788-.1934-.1074-.0716-.1146-.1217-.1862-.1504-.2149-.0143-.0286-.0286-.0573-.043-.0859zm4.4687 3.2442c.0143.1289.0143.2005 0 .2148v.0645c.0143.1002.0072.1933-.0215.2793v.3222c-.0143.1003-.0286.2005-.043.3008 0 .0859-.0071.1862-.0214.3008v.2578c-.0144.0716-.0215.1647-.0215.2793-.0287.1146-.043.1933-.043.2363 0 .1146.0072.222.0215.3223.0286.0859.0358.179.0215.2793v.1933c.0143.0287.0215.0573.0215.086.0143.1146.0143.2506 0 .4082-.0144.1575-.0215.2864-.0215.3867-.0287.1719-.043.2721-.043.3008.0143.0286.0143.0788 0 .1504-.0143.1575-.0215.2721-.0215.3437.0144.0573.0144.0931 0 .1074-.0143.0287-.0215.0717-.0215.1289v.129c.0144.1575.0144.2434 0 .2578-.0143.0143-.0214.0358-.0214.0644 0 .043-.0072.1003-.0215.1719v.2148.1719c.0143.043.0215.1003.0215.1719 0 .0859-.0072.1719-.0215.2578v.2363.4727.1933c.0143.0287.0143.0573 0 .086 0 .0716-.0072.1432-.0215.2148s-.0143.1576 0 .2578c.0286.2006.0358.3366.0215.4082v.1934c.0143.1719.0143.2793 0 .3223v.1074l.0215.2793c.0143.043.0143.1002 0 .1719 0 .0716-.0072.136-.0215.1933.0286.0716.0358.1432.0215.2149 0 .0573-.0144.1289-.043.2148.0143.1432.0143.2149 0 .2149v.0429c.0143.1289.0143.2077 0 .2363-.0143.0144-.0215.0359-.0215.0645l.0215.4512c.0143.1289.0143.2148 0 .2578v.1074c.0143.043.0143.0788 0 .1074 0 .043.0072.086.0215.1289v.4942c-.0716.1002-.0931.2435-.0645.4297.0287.1862-.0071.3366-.1074.4511 0 .1433-.0501.3008-.1504.4727.0287.0716.0072.1289-.0644.1719-.0573.0573-.0931.136-.1075.2363-.0859.1719-.1432.3223-.1718.4512-.0573.1718-.0931.2721-.1075.3007-.0143.0287-.0358.0573-.0644.086-.0716.1575-.1146.2363-.1289.2363s-.0287.0072-.043.0215c-.0573.0859-.0931.1432-.1074.1719-.0143.0286-.0215.0644-.0215.1074-.0573.0143-.1003.043-.1289.0859-.0286.043-.0716.0716-.1289.086-.0287.0429-.0645.0859-.1074.1289-.0287.0573-.0645.1074-.1075.1504-.0859.1002-.136.1718-.1503.2148-.0144.0573-.0359.1074-.0645.1504-.1289.1432-.2148.222-.2578.2363-.0287.0287-.0501.0788-.0645.1504-.0429 0-.0787.0143-.1074.043-.0286.0286-.0644.0573-.1074.0859-.0716.0573-.1218.1146-.1504.1719s-.0645.1003-.1074.1289c-.1432.1003-.222.179-.2363.2363 0 .0573-.0215.1003-.0645.1289-.1432.0573-.2148.0931-.2148.1075 0 .0143-.0144.0286-.043.0429-.0716.043-.1361.0788-.1934.1075-.0429.0286-.0787.0716-.1074.1289-.0859 0-.1432.0573-.1719.1718-.1575.0716-.2363.1003-.2363.086 0 0-.0072.0071-.0215.0215-.2005.0716-.3294.136-.3867.1933s-.1217.1074-.1934.1504c-.0286.0143-.0716.0215-.1289.0215-.0429.0143-.0787.0358-.1074.0644-.1146.0573-.1933.0931-.2363.1075-.043.0286-.1003.0501-.1719.0644-.0286.0287-.0716.043-.1289.043-.043 0-.0788.0358-.1074.1074-.1719.043-.2578.0645-.2578.0645-.1576.1002-.2578.1432-.3008.1289-.0573 0-.0931.0215-.1074.0644-.2578.0143-.444-.0501-.5586-.1933-.1146-.1289-.265-.2292-.4512-.3008-.1003-.1289-.1504-.1934-.1504-.1934-.0143 0-.0358-.0143-.0644-.0429-.0573-.1719-.0931-.2793-.1075-.3223-.0286-.043-.0573-.0931-.0859-.1504-.0286-.0716-.0501-.1361-.0645-.1934-.0286-.0573-.0429-.1074-.0429-.1504-.0287-.2434-.0716-.3867-.1289-.4296.0286-.086.0286-.1504 0-.1934-.043-.043-.0645-.0931-.0645-.1504-.0716-.1432-.1146-.2435-.1289-.3008-.0286-.0573-.0286-.136 0-.2363-.0716-.1289-.1074-.2077-.1074-.2363 0-.0287-.0143-.0502-.043-.0645.043-.1002.0501-.2148.0215-.3437-.043-.1146-.0358-.222.0215-.3223.0143-.1575.0358-.2506.0644-.2793.0287-.0286.0573-.0716.086-.1289.1719-.0716.2721-.1217.3008-.1504.0143-.0143.0358-.0286.0644-.043.1432-.0429.2292-.0644.2578-.0644.0287 0 .0573-.0072.086-.0215.1432-.0573.2148-.0931.2148-.1074-.0143-.0143-.0143-.0215 0-.0215.0716-.0143.1289-.0358.1719-.0645.0429-.0143.0788-.0358.1074-.0644.0859 0 .1862-.0287.3008-.0859.1146-.0717.2077-.1218.2793-.1504.0716-.0287.1432-.0645.2148-.1075.086-.1002.1361-.1575.1504-.1718.0143-.0144.0287-.0358.043-.0645.0716-.0859.1504-.1647.2363-.2363.1146-.1146.1862-.1791.2149-.1934.0429-.1002.0716-.1647.0859-.1933.0286-.0287.0644-.0645.1074-.1075.1003-.1718.1719-.3079.2149-.4082.0429-.0859.0931-.179.1504-.2793.0572-.1145.093-.1862.1074-.2148.0286-.0716.0501-.1504.0644-.2363.0143-.0716.0358-.1433.0645-.2149.0286-.0573.0429-.1074.0429-.1504 0-.0429.0144-.1002.043-.1718-.0143-.1433-.0215-.2292-.0215-.2579.0144-.0429.0215-.0859.0215-.1289 0-.0572 0-.1074 0-.1503.0143-.0573.0143-.1075 0-.1504-.0286-.3008-.0358-.5157-.0215-.6446.0144-.1289.0215-.2721.0215-.4297 0-.1145 0-.222 0-.3222 0-.1146 0-.2292 0-.3438 0-.0573-.0071-.1074-.0215-.1504-.0143-.0573-.0215-.1145-.0215-.1718.0287-.1576.0359-.2579.0215-.3008 0-.043 0-.086 0-.1289.0144-.1576.0144-.2578 0-.3008 0-.0573 0-.1146 0-.1719 0-.0859.0072-.1719.0215-.2578s.0143-.179 0-.2793c0-.0716 0-.1432 0-.2148s.0143-.1433.043-.2149c0-.1146-.0072-.179-.0215-.1933 0-.0144 0-.0358 0-.0645.0286-.1432.043-.222.043-.2363.0286-.2005.0358-.3223.0215-.3653-.0144-.0572-.0287-.1145-.043-.1718.0286-.0573.0358-.1218.0215-.1934-.0144-.0859-.0072-.1575.0215-.2148-.0287-.043-.043-.0788-.043-.1075.0143-.0429.0215-.1002.0215-.1718-.0144-.1146-.0287-.1934-.043-.2364 0-.0572-.0072-.1145-.0215-.1718 0-.0573 0-.1075 0-.1504.0143-.043.0215-.086.0215-.1289-.0143-.1433-.0215-.222-.0215-.2364.0143-.0143.0215-.0358.0215-.0644 0-.1289 0-.2292 0-.3008s-.0072-.1361-.0215-.1933c0-.0717 0-.1433 0-.2149-.0143-.0859-.0215-.1862-.0215-.3008s0-.2291 0-.3437c0-.0573 0-.1074 0-.1504.0144-.0573.0215-.1218.0215-.1934.0143-.1146.0215-.2005.0215-.2578-.043-.1146-.0645-.2148-.0645-.3008 0-.0429 0-.0859 0-.1289 0-.0573-.0071-.1002-.0214-.1289-.0287-.1575-.043-.265-.043-.3222 0-.0717 0-.1433 0-.2149.0143-.1146.0143-.1719 0-.1719-.0143-.0143-.0215-.0358-.0215-.0644 0-.043 0-.086 0-.1289 0-.0573-.0072-.1146-.0215-.1719 0-.0573-.0071-.1074-.0215-.1504 0-.0573 0-.1074 0-.1504 0-.0286.0072-.0644.0215-.1074.0143-.0573.0143-.1003 0-.1289v-.2578c0-.1146 0-.1791 0-.1934.0143-.0143.0215-.0358.0215-.0644.0716-.2149.1074-.3295.1074-.3438.0144-.0286.043-.0644.086-.1074.1432-.0573.222-.0859.2363-.0859.0286-.0144.0501-.0144.0644 0 .1862-.043.3008-.0717.3438-.086.1432-.0573.2363-.0788.2793-.0644.0573 0 .1217-.0072.1934-.0215.1432-.0287.2578-.0358.3437-.0215s.179.0072.2793-.0215c.1003.043.222.0573.3652.043.1003-.0143.1576-.0143.1719 0h.0645c.0716 0 .1289-.0072.1718-.0215.043-.0143.1003-.0215.1719-.0215.1003.0143.1576.0287.1719.043h.0859c.2149-.0287.3438-.0358.3867-.0215.0573.0143.1146.0215.1719.0215.043.0143.0788.0215.1074.0215.043-.0144.086-.0215.129-.0215.0716.0143.1217.0429.1503.0859.043.0287.1003.0573.1719.086.0287.0716.0716.1432.1289.2148.0716.0716.0931.1576.0645.2578.0286.043.0501.086.0644.1289.0287.0287.0573.0645.086.1074.0286.0717.0429.1433.0429.2149s.0072.1504.0215.2363z" fill="#693821"/></svg>