<svg fill="none" height="39" viewBox="0 0 38 39" width="38" xmlns="http://www.w3.org/2000/svg" xmlns:xlink="http://www.w3.org/1999/xlink"><linearGradient id="a"><stop offset="0" stop-color="#cf5c2b"/><stop offset="1" stop-color="#59173e"/></linearGradient><linearGradient id="b" gradientUnits="userSpaceOnUse" x1="35.791" x2="25.3035" xlink:href="#a" y1="-18.4425" y2="4.87217"/><linearGradient id="c" gradientUnits="userSpaceOnUse" x1="31.3685" x2="-5.74434" xlink:href="#a" y1="-10.1495" y2="75.5327"/><linearGradient id="d" gradientUnits="userSpaceOnUse" x1="27.2921" x2="-9.8207" xlink:href="#a" y1=".43529" y2="86.1173"/><linearGradient id="e" gradientUnits="userSpaceOnUse" x1="20.2391" x2="19.1095" xlink:href="#a" y1="53.9804" y2="18.1584"/><path d="m36.7468 5.83919c-.2113-2.86956-2.5615-5.114149-5.4311-5.22858-8.0805-.325686-16.1258-.325686-24.14475-.008802-.58095.026407-1.15311.132035-1.69885.334489-.27287.096823-.53694.220053-.78341.352093-1.24993.68658-2.09495 1.87489-2.74632 3.09842-.69539 1.28514-1.399572 2.71111-1.487595 4.1899-.070418 1.19712-.132035 2.40299-.176046 3.60019-.008803.132-.008803.2552.008802.3785.008802.0704.017605.1408.008802.2112-.026407.3873-.008802.7306.193651 1.0739.123233.2025.281675.3785.484128.4929-.017604-.0088-.184849.1497-.211255.1673-.070419.0616-.132035.132-.184849.2024-.11443.1497-.211256.3081-.272872.4842-.070419.176-.114431.3609-.123233.5457-.061616.7482-.044012 1.4964-.035209 2.2446.008802.6514-.0528141 1.338.052814 1.9805.026407.1585 0 .3257.035209.4841.070419.3609.237663.6954.404907 1.0211-.281674.2993-.404907.713-.422512 1.1267-.017604.4753.070419.9419.03521 1.4172-.088024 1.2851-.008803 2.6055.070418 3.8818.008803.1497.03521.2993.061617.4401.079221.3609.088023.7394.290476 1.0563.088024.1409.202454.2641.343287.3609-.132031-.0176-.237659.1232-.299275.2377-.396105.757-.396105 1.3467-.237663 2.1565.158442.8451.11443 1.6461.422512 2.4735.255266.6866.642566 1.3203 1.126696 1.8573 1.00347 1.1179 2.42944 1.8045 3.92584 1.8925 8.51187.4929 16.70677.5369 24.52327.0528.0352 0 .0704-.0088.1056-.0088.9507-.0792 1.8749-.3873 2.6759-.9066.7834-.5018 1.4348-1.1972 1.8925-2.007.5282-.933.7834-2.0333 1.0475-3.0632.1673-.6338.4225-1.4436.3521-2.1213-.044-.3873.0704-.7658.0528-1.1531-.0176-.4402-.132-.8715-.3345-1.2588-.0264-.044-.0528-.0968-.0528-.1496-.0088-.1233.1233-.2113.2201-.2905.2288-.176.3785-.4489.4313-.7306.0088-.0704.0176-.1408.0088-.2112-.0264-.1233-.0176-.2201-.0088-.3521.044-.8891.0792-1.7781.1144-2.6671.0352-.9771.0704-1.9542.088-2.9224.0265-.9595.0353-1.9277.0441-2.8872.0088-.9506.0088-1.9013 0-2.8431 0-.4666-.0088-.9419-.0176-1.4084 0-.2377-.0088-.4665-.0177-.7042-.0088-.22-.044-.4665-.0088-.6866.0088-.0792.0353-.1408.0176-.22-.0088-.0969-.0352-.1849-.0616-.2817-.0528-.1849-.132-.3609-.2288-.5281-.0968-.1673-.2113-.3169-.3521-.4578-.0352-.0352-.4049-.3785-.4401-.3433.1144-.1056.2112-.22001.2992-.34324.2289-.32569.3609-.70419.4578-1.09149.044-.19365.0704-.39611.0968-.59856.0088-.03521.0264-.07042.0264-.11443.0264-.14084-.0088-.30808-.0176-.44892-.0352-.58095-.0792-1.17951-.1232-1.77807z" fill="url(#b)"/><path d="m37.1257 12.4404c-.0088 1.0035-.0176 2.0069-.0264 3.0104-.0088.4753-.0088.9595-.0088 1.4436 0 .2641-.0088.5193-.0088.7746-.0176 1.3643-.0352 2.7287-.0704 4.0931-.0176.6777-.0352 1.3555-.0616 2.0333-.0176.4049-.0088.7834-.1409 1.1619-.1496.4225-.1408.9419-.1936 1.3908-.0176.1408-.044.2905-.1497.3961-.0968.0968-.2376.1144-.3785.1232-.22.0264-.4489.044-.6689.0704-1.294.1321-2.5967.2553-3.8907.2905-.9594.0176-1.9277-.0088-2.8871-.1144.7306.1056 1.4611.22 2.1917.3257.2113.0352.4138.0616.625.0968 1.4876.2201 2.9752.4401 4.4628.6602.132.0264.2817.044.3785.1408.1496.132.1584.3609.1496.5633-.0176.2993-.044.5986-.0968.8979-.0792.5897-.1937 1.1795-.2201 1.7781-.0088.1232.0176.2464-.0088.3697-.0616.3785-.3433.7394-.5545 1.0386-.9947 1.3908-2.5791 2.271-4.2779 2.3767-7.7021.4841-15.765.4401-24.14482-.0441-1.20592-.0704-2.37662-.5369-3.30087-1.3203-.54574-.4665-1.05628-1.0651-1.37316-1.7253-.14084-.2992-.17605-.6425-.31689-.9506-.0264-.0704-.05281-.132-.07922-.2025-.04401-.2024-.0264-.4225.14964-.5633.18485-.1497.44892-.1585.68658-.1673 2.66711-.088 5.32541-.2552 7.99254-.3344h.0792c.8098-.0265 1.6284-.0353 2.4382-.0353-.2992-.044-.5985-.088-.8978-.1144-1.3732-.1672-2.76393-.22-4.14589-.2729-.01761 0-.03521-.0088-.04401-.0088h-.01761c-1.67244-.0616-3.33608-.132-4.98211-.3961-.31689-.0528-.64257-.1144-.92425-.2552-.21125-.0969-.3961-.2289-.52814-.4225-.0088 0-.0176-.0176-.0264-.0265-.19366-.2992-.26407-.7481-.20246-1.0826.07922-.3873.02641-.7658.0088-1.1795-.0352-.7042-.07922-1.4172-.10562-2.1214-.02641-.3873-.04402-.7746-.06162-1.1619-.0088-.2113-.0176-.4489.11443-.6162.10563-.132.29048-.176.45772-.22.51934-.1321 1.03868-.2641 1.57562-.3433.23766-.044.47532-.0704.71299-.088-.60736-.1409-1.21473-.2729-1.83089-.4138-.18485-.044-.3697-.088-.53694-.176-.03521-.0176-.07922-.044-.11443-.0704-.29928-.2201-.3785-.5194-.42251-.8362-.01761-.1057-.02641-.2201-.04401-.3257-.04401-.2553-.07922-.5018-.09683-.757-.04401-.3873-.06161-.7746-.07922-1.1619-.03521-.8451-.07922-1.9365.45772-2.6495.19365-.2553.53694-.3169.85383-.3521 1.24112-.1497 2.48225-.2817 3.72338-.3873.25527-.0264.51934-.044.77461-.0705 1.25873-.0968 2.50866-.176 3.77624-.2376-1.51405.0704-3.03685.044-4.55085-.0528-.95065-.0616-1.9013-.1585-2.85195-.2817-.39611-.0528-.80982-.1144-1.16191-.2993-.0088-.0088-.0176-.0088-.02641-.0176-.09682-.044-.18485-.0968-.27287-.1672-.19365-.1497-.33449-.3521-.41371-.581-.08802-.2376-.04401-.4401-.0088-.6778.0088-.088 0-.176 0-.264-.01761-.537.02641-1.0827.03521-1.6197.0088-.2728.0176-.5457.03521-.82738.03521-1.19711.09682-2.39423.16724-3.59135.17605-2.90476 2.53507-5.202171 5.43984-5.316601 8.0101-.325686 16.0554-.316884 24.1448.008802 2.5967.105628 4.8589 2.042139 5.343 4.594809.1496.78341.2024 1.63724.0528 2.42945-.0352.20245-.088.3961-.1584.58095-.044.10563-.1145.32569-.2113.41371-.0088.0088-.0176.0176-.0176.0176-.0704.04402-.1672.05282-.2377.07042-.4753.11443-.9506.21126-1.4259.29928-.9507.16725-1.9101.29048-2.8696.3785-.0088 0-.0088 0-.0088 0-1.9365.16725-3.8906.20245-5.8271.22886h-.0529c.5282.03521 1.0651.06162 1.5933.09683 1.4436.07922 2.8871.16724 4.3307.25527.9595.05285 1.9277.10565 2.8872.16725.5809.0352 1.1883.0792 1.69.3785.0088 0 .0088.0088.0088.0088.6426.4313.6866 1.2059.6778 1.9365z" fill="url(#c)"/><path d="m37.1272 12.4404c-.0088 1.0035-.0176 2.007-.0176 3.0104-.0088.4753-.0088.9595-.0088 1.4436 0 .2641-.0088.5193-.0088.7746-3.7058.2377-7.4204.5634-11.1349.7922-4.3308.2641-8.6615.5546-12.9835.8274-2.3326.1497-4.6476.3257-6.97141.5898-1.55802.176-3.03681.4313-4.55081.3433-.0176-.1056-.0264-.2201-.04401-.3257-.04401-.2553-.07922-.5017-.09682-.757 1.5316-.3257 3.07201-.2729 4.70044-.3257 2.18298-.0704 4.33071-.22 6.50491-.4225 4.3308-.4049 8.6615-.8274 12.9922-1.3203 2.5791-.2993 5.1582-.5634 7.7461-.8451-.088-.0088-.1673-.0088-.2553-.0176-4.2339-.2288-8.3974-1.0122-12.6137-1.3907-4.1811-.3785-8.3798-.7042-12.57854-.9507-1.69885-.1056-3.64416-.0792-5.56307-.2112-.0088-.0089-.0176-.0089-.0264-.0177-.09683-.044-.18485-.0968-.27288-.1672-.19365-.1496-.33448-.3521-.4137-.581-.08803-.2376-.04402-.4401-.00881-.6777.00881-.0881 0-.1761 0-.2641-.0176-.5369.02641-1.0827.03521-1.6196.0088-.2729.01761-.54577.03521-.82745 2.13016-.11443 4.33075.02641 6.22325.04401 4.19873.03521 8.38863.23767 12.57853.48414 4.2075.2465 8.4062.1496 12.6137.3433 1.1355.0528 2.2798.0968 3.4153.1232.6778.4401.713 1.2147.7042 1.9453zm-13.9077 9.8322c-7.1563.3433-14.69105.0264-21.66249 1.8661.03521.7042.07042 1.4172.10563 2.1214.0176.4049.07042.7834-.0088 1.1795-.06162.3345.0176.7834.20245 1.0827 2.11256.5545 4.26913.8978 6.46091 1.1179.0176 0 .03521.0088.06161.0088 1.37317.1408 2.75509.22 4.14589.2729 3.5826.132 7.1915.0528 10.6948.088 4.3836.044 8.7672-.044 13.1419-.2025.044-.2993.0792-.5897.0968-.8978.0088-.2025 0-.4225-.1496-.5634-.0968-.088-.2465-.1144-.3785-.1408-1.6989-.2553-3.3889-.5017-5.0878-.757-.7305-.1056-1.4611-.2201-2.1917-.3257 2.2534.2553 4.5244.0616 6.7866-.1672.22-.0264.4489-.044.6689-.0705.1321-.0088.2817-.0264.3785-.1232.1057-.0968.1321-.2553.1497-.3961.0528-.4489.0352-.9594.1936-1.3908.1321-.3873.1321-.757.1409-1.1619.0264-.6777.044-1.3555.0616-2.0333-4.6036.132-9.2161.2729-13.8109.4929z" fill="url(#d)"/><g fill="#e68b4a"><path d="m1.88194 28.5668c-.21126-.2992-.29928-.7746-.22886-1.1267.07922-.3873.0264-.7658.0088-1.1795-.06162-1.0915-.11443-2.1917-.16724-3.2832-.00881-.2113-.01761-.449.11443-.6162.10562-.132.29047-.176.45772-.2201.51933-.132 1.03867-.264 1.57561-.3432-.29928.2288-.58975.4137-.94185.5897-.12323.0616-.25526.1232-.34329.2289-.09682.1056-.13203.264-.16724.4049-.29928 1.3731-.14084 2.8079.02641 4.2075.07041.5809.14083 1.1707.19365 1.7605-.21126-.0969-.39611-.2377-.52814-.4226z"/><path d="m1.3961 19.8958c-.10563-.6338-.14964-1.2852-.17605-1.9189-.0352-.845-.07922-1.9365.45773-2.6495.19365-.2553.53694-.3169.85382-.3521 1.4964-.1761 2.99279-.3345 4.49799-.4489-1.42598.4753-3.05441.4753-4.43637 1.065-.25527.1057-.51054.2377-.65137.4754-.09683.1584-.13204.3433-.15845.5193-.08802.5634-.14964 1.1003-.11443 1.6725.02641.3608.05282.7305.08803 1.0914.05281.5986.14083 1.1884.23766 1.7781-.03521-.0176-.07922-.044-.11443-.0704-.41371-.2817-.40491-.7306-.48413-1.1619z"/><path d="m30.5938 27.334c.0618.0263.1237.0525.1856.0788-.0707-.0175-.1326-.035-.1856-.0788z"/><path d="m36.457 28.8918c-.0353.9067-.2817 1.7781-.3169 2.6759-.0088.1233.0176.2465-.0088.3697-.0616.3785-.3433.7394-.5546 1.0387-.9946 1.3908-2.5791 2.271-4.2779 2.3766-7.702.4842-15.765.4401-24.14479-.044-1.20592-.0704-2.37663-.5369-3.30087-1.3203-.55455-.4578-1.06508-1.0563-1.38196-1.7165-.14084-.2993-.17605-.6426-.31689-.9506-.02641-.0705-.05281-.1321-.07922-.2025-.04401-.2024-.02641-.4225.14964-.5633.18485-.1497.44892-.1585.68658-.1673 2.66711-.088 5.32541-.2552 7.99251-.3345-2.34142.1321-4.67403.4578-6.98024.8715-.31688.0528-.66018.0792-.96826.1672-.04401.0176-.09682.0176-.14083.0616-.05282.0704-.04402.1585-.03521.2377.03521.2729.18485.5017.35209.7218.53694.7042 1.10029 1.4436 1.8925 1.8573 1.9013 1.0034 3.83781.8538 5.99435.8098.4401-.0088.8715 0 1.3116-.0792.22-.0441.4841 0 .7042.0088.5017.0176 1.0034.0264 1.514.044 1.0034.0264 2.0157.0528 3.0192.088l5.6511.1584c1.7956.0528 3.5913.0969 5.387-.0528 1.7692-.1408 3.5385-.4753 5.1757-1.1883.1321-.0616.2905-.1056.405-.2024.088-.0617.1584-.1409.2464-.2025.2729-.176.537-.3521.7746-.5721.1585-.1497.3873-.3433.4665-.5546.0441-.1144.0705-.2465.1145-.3609.1144-.3257.176-.669.2024-1.0123.0264-.3785.0088-.7658-.0352-1.1443-.0176-.1672.0088-.4841-.0968-.6249-.0528-.0792-.1937-.1497-.2817-.1937-.2288-.1144-.4929-.1672-.7482-.2112-1.3643-.2553-2.7023-.669-3.9786-1.2324 1.6988.2553 3.3889.5106 5.0877.757.1321.0264.2817.0441.3785.1409.1409.1232.1409.3521.1409.5457z"/><path d="m1.54634 12.8893c-.07042-.2817-.06161-.5722-.06161-.8626.03521-1.3996.07042-2.80799.14964-4.20756.07042-1.28514.04401-2.64069.57215-3.83781.86263-1.95412 2.82554-3.292071 4.97331-3.380094 8.01007-.325686 16.05547-.316884 24.14477.008802 2.5967.105628 4.8589 2.042142 5.343 4.594812.1497.78341.2025 1.63724.0528 2.42944-.0352.20246-.088.39611-.1584.58096-.044.10563-.1144.32568-.2113.41371-.1672-1.28514.1497-2.69351-.3168-3.90824-.2729-.73059-.669-1.45238-1.294-1.93651-2.0597-1.59322-5.0965-1.48759-7.5788-1.5316-6.8394-.13204-13.6348-.343292-20.44779.27287-.31689.02641-.62497-.08802-.92425-.03521-.67778.11443-1.32915.57215-1.82208 1.02107-.67778.62497-1.19711 1.41718-1.5228 2.2798-.08802.25527-.16724.51054-.23766.76581-.66018 2.53507-.3785 5.47505-.06162 8.04535-.29048-.0969-.49293-.3697-.58975-.669 0-.0088-.00881-.0264-.00881-.044z"/><path d="m37.1253 12.4406c-.0088 1.0035-.0176 2.007-.0176 3.0104-.0088.4754-.0088.9595-.0088 1.4436-.0176 2.3062-.044 4.6036-.1408 6.9099-.0176.4049-.0088.7834-.1409 1.1619-.1496.4225-.1408.9418-.1936 1.3907-.0176.1409-.044.2905-.1496.3961-.0969.0969-.2377.1145-.3785.1233-.2201.0264-.449.044-.669.0704.132-.088.2288-.2113.3081-.3609.1056-.2201.132-.4753.1496-.7218.3257-4.0579.3521-8.1334.2377-12.2-.0176-.537-.0352-1.0739-.0529-1.6109-.0088-.1232.0177-.2376.0089-.3608-.0177-.1585-.0969-.3081-.2025-.4402-.2289-.2816-.581-.4577-.9154-.5721-2.4823-.83624-5.2638-.2289-7.7725-.97708h.2993c2.4118.14084 4.8149.28168 7.2179.42248.5809.0352 1.1883.0793 1.69.3785.7042.4225.7394 1.1972.7306 1.9365z"/></g><path d="m30.8399 27.4395c.2112.0352.4137.0616.6249.0968-.1144.4049-.2816.7834-.5281 1.1003-1.0035 1.2939-2.8784 1.5228-4.3572 1.6108-2.5086.1409-5.0173.2905-7.5259.2729-2.7024-.0176-5.3607-.2729-8.0542-.4577.8098-.0264 1.6285-.0352 2.4383-.0352-.2993-.044-.5986-.0881-.8979-.1145-1.3731-.1672-2.76389-.22-4.14586-.2728-.0176 0-.03521-.0088-.04401-.0088h-.03521c-.10563-.0264-.22006-.0617-.33449-.0969-.22886-.0704-.46652-.1496-.66017-.2816-.45772-.3257-.64257-.9331-.80101-1.4876-.3521-1.2676-.22006-2.5263-.14964-3.8114.07922-1.382.07922-2.764.05281-4.1459-.04401-1.7253-.12323-3.477-.17605-5.211.25527-.0264.51934-.044.77461-.0704.64257-.0528 1.27633-.0969 1.9189-.1321.01761 2.2798.14964 4.5684.23767 6.8394.0088.2465-.02641.493 0 .7306.0176.1409 0 .2289.09682.3433.13204.1673.51934.3345.74823.3785.2728.044.5633.0176.8362.0176.5985 0 1.2059 0 1.8045.0088-.5898.0969-1.1795.1585-1.7781.1849-.2553.0088-.5633-.0352-.801.044-.23768.0792-.47534.1144-.713.176-.07042.0176-.14084.0353-.18485.0881-.04401.044-.05281.1056-.07042.1672-.04401.2553-.0176.5105.05282.757.05281.1937.12323.3609.10562.5634-.04401.4753.02641.9594.09683 1.4347.02641.1761.03521.3345.14084.4842.22886.3168.63376.4929.99466.5897 2.7903.7658 5.7127.801 8.6087.8362 1.7076.0176 3.4153.0353 5.1229-.0176 1.1619-.0352 3.2833.2025 4.2868-.5193.1408-.0968.264-.2201.3609-.3609.6513.1056 1.3027.2113 1.9541.2993zm-21.89141-14.5151c.0088-.4841.05281-.9682.09682-1.4523.0088-.0793.0088-.1585 0-.2377-.0176-.1584-.0176-.2817.01761-.4313.08802-.3345.24646-.6866.56335-.86264.21125-.11443.46653-.12323.71303-.13203 1.1971-.03521 2.3942-.03521 3.5913-.00881-.9506-.09682-1.9013-.20245-2.852-.29928-.5369-.05281-1.08264-.11443-1.60197.01761.0176-.0088.07042-.14084.08802-.15844.03521-.06162.07922-.12323.12323-.17605.07922-.10563.17605-.21125.28168-.29928.18484-.15844.35204-.33449.54574-.48413.4137-.31688.889-.53694 1.3732-.71299.4577-.16724.933-.28167 1.4083-.3961.3257-.07922.6602-.07922.9947-.08802 3.7498-.05282 7.4996-.07042 11.2494-.09683.6249-.0088 1.2675.21126 1.8749.3785.4489.12323.9066.31689 1.1971.68658.2729.34329.4225.83622.5017 1.38197.889-.02641 1.7781-.07922 2.6847-.15844-.0792-1.06508-.264-2.09496-1.0122-2.90477-.8187-.88023-2.2094-1.06508-3.3361-1.1267-1.2676-.07042-2.5351-.11443-3.8026-.14964-.9947-.0176-1.9806-.03521-2.9664-.03521-2.0245-.0088-4.0139.07042-6.0208.17605-2.183.10563-4.92931-.63377-6.77779.86263-.91545.73939-1.35556 1.66364-1.54041 2.86075-.14084.90664-.14964 1.83087-.14964 2.74637 0 .7922.0176 1.5932.04401 2.4118.89784.0616 1.79568.0968 2.69351.0968.0088-.4753.0088-.9418.01761-1.4084zm23.16771 3.0721c-.044-1.7341-.132-3.4682-.2553-5.2022-.0176-.2729-.0352-.5458-.0528-.82743-.889-.05282-1.7868-.10563-2.6847-.15844.088.95067.0088 2.00697.0528 2.71107.0616 1.0915.1673 2.183.2553 3.2657.044.5281.088 1.0563.1144 1.5844.0088.1673.044.3081-.0528.4489-.1672.2465-.5281.2905-.801.3081-1.4612.0968-2.94.1321-4.366.4753 1.8133.0705 3.6266.0353 5.4311-.0968-.0352.1585-.0792.3257-.1144.4842-.0353.1408-.0881.2904-.0881.4313 0 .088.0352.176.044.264.0264.1497.0088.3169.0176.4666.0088.6689 0 1.3379-.0088 2.0069-.0088.5633-.0264 1.1267-.044 1.6812-.0088.0616-.0088.1321-.0088.1937-.0352.9154-.044 2.271-.6601 3.0896.8802.088 1.7604.1144 2.6318.0968.1673-.7306.2201-1.514.2993-2.1918.2905-2.3678.2553-4.7796.2817-7.165.0088-.625.0088-1.2412.0088-1.8573.0088.0088 0 0 0-.0088z" fill="url(#e)"/><g fill="#e68b4a"><path d="m22.7167 30.353c1.1531-.0176 2.3326-.0352 3.4769-.2113.2377-.0352.493-.0264.7394-.044.5194-.0352 1.0299-.088 1.5404-.1584.3345-.0441.669-.0969.9947-.2113.9771-.3345 1.7517-1.2147 1.9629-2.227-.5369-.0264-1.1531-.0264-1.69-.0528.4489-.0792 1.1091.1496 1.3115.5633-.5809.5106-1.2323.9683-1.9717 1.1708-.3961.1056-.8098.1408-1.2147.1672-2.7728.2113-5.5543.4313-8.327.3785-1.338-.0176-2.6671-.1056-4.0051-.0528-.3873.0176-.7746.044-1.1531.0528-.22.0088-.4401.0264-.6602-.0088-.1496-.0176-.308-.0088-.4577-.0088-.3345 0-.6602-.0088-.9947-.0264-.6601-.0264-1.3203-.0792-1.9805-.1497-.71296-.0792-1.43475-.176-2.13894-.308-.34329-.0616-.70418-.1409-.95065-.3697-.16724-.1585-.27287-.3697-.36089-.5722-.29048-.669-.48413-1.3819-.57216-2.1037-.25526.889.00881 1.8661.59856 2.5878.55455.6778 1.40837 1.0651 2.2622 1.2236.64257.1232 1.36438.1848 2.00688.1144.1409-.0176.2817 0 .4314.0088.3345.0176.6689.0352 1.0034.0528.669.0352 1.338.0616 2.007.0792.6689.0176 1.3291.0264 1.9981.0352.3081 0 .6426.0353.9506-.0088.2993-.044.6338.0088.9419.0177 1.3379.044 2.6847.0792 4.0226.0704.0705-.0088.1497-.0088.2289-.0088z"/><path d="m32.7679 10.2399s-1.0827-.0352-1.1795-.0352c-.4049-.0176-.801-.044-1.2059-.0704-.2025-.0177-.4049-.0265-.5986-.0441-.0968-.0088-.2024-.0176-.2992-.0264-.0529-.0088-.1145-.0176-.1761-.0176-.0264 0-.044.0088-.0616.0088-.0352-.0088-.0792-.0176-.1144-.0264-.1585-.04399-.3169-.0792-.4754-.12321 0-.0264-.0088-.04401-.0088-.07042 0-.0088.2201-.0088.2377-.0088.0616.0088.132.02641.1937.01761.0528-.00881.0968-.01761.1496-.01761h.2465c.3344 0 .6689.0088.9946.02641.3345.0176.669.03521.9947.06162.3345.0264.669.06161.9946.1056.1145.0176.2377.0264.3521.044.0176.0793-.044.0881-.044.1761z"/><path d="m9.30899 14.3506c-1.05628.1056-2.11256.2465-3.16003.4401-.07042-.0704-.09683-.1496-.07923-.2377 1.1003-.132 2.13017-.1584 3.23926-.2024z"/></g><path d="m30.1028 16.9117c.0352 2.4559-.0352 4.8765-.1936 7.2707-.0352.537-.0704 1.0827-.1233 1.6197-.132 1.6284-1.4523 2.9135-3.0808 3.028-5.2022.3521-10.5188.3344-15.9322-.0088-1.65482-.1057-2.98397-1.4348-3.0896-3.0897 0-.0264-.0088-.044-.0088-.0704-.21126-4.1547-.24647-8.3798-.11443-12.6753.0088-.2025.0088-.4049.0176-.6074.03521-.8186.06162-1.6284.10563-2.44703.0088-.19365.03521-.3785.07922-.56335 0-.03521.0088-.07042.02641-.10563.34329-1.39077 1.56681-2.42064 3.05437-2.49986 5.1934-.25527 10.4484-.25527 15.7826.0088 1.6636.07922 3.028 1.38197 3.16 3.04561.1233 1.55796.2113 3.09846.2641 4.63006.0352.8274.0528 1.646.0528 2.4646z" fill="#e58b4a"/><path d="m15.8311 27.2344c-.0312.0156-.0781.0156-.1406 0-.0469 0-.1015-.0078-.164-.0235-.1875-.0937-.2969-.1484-.3282-.164-.0312 0-.0625-.0078-.0937-.0235-.125-.0625-.2422-.1562-.3516-.2812-.0937-.0781-.1406-.125-.1406-.1406 0-.0157-.0156-.0391-.0469-.0704-.125-.125-.1875-.1874-.1875-.1874-.125-.1563-.2187-.2579-.2812-.3047-.0625-.0469-.1094-.1094-.1407-.1875-.0781-.0313-.1328-.0782-.164-.1407-.0313-.0781-.0703-.1562-.1172-.2343-.125-.125-.2031-.2032-.2344-.2344-.0469-.0781-.0859-.1328-.1172-.1641-.0312-.0312-.0703-.0703-.1172-.1172-.1718-.2187-.2812-.3828-.3281-.4921-.0469-.1094-.1172-.1876-.2109-.2344-.0156-.0782-.0469-.1328-.0938-.1641-.0312-.0312-.0625-.0625-.0937-.0937-.0625-.1407-.1016-.2188-.1172-.2344-.0156-.0313-.0313-.0625-.0469-.0938l-.0703-.2812.0703-.5156c0-.0313 0-.0704 0-.1172.0156-.0469.0235-.0938.0235-.1406-.0313-.1876-.0469-.2813-.0469-.2813.0156-.0156.0234-.0313.0234-.0469 0-.0625 0-.1406 0-.2344.0156-.1093.0391-.2031.0703-.2812-.0312-.0625-.0468-.1172-.0468-.1641.0156-.0625.0234-.1328.0234-.2109 0-.0625 0-.1172 0-.1641.0156-.0625.0234-.1328.0234-.2109-.0156-.0625-.0234-.1641-.0234-.3047v-.2812c.0156-.0938.0078-.1563-.0234-.1875-.0157-.0469-.0235-.0938-.0235-.1407 0-.0468 0-.0937 0-.1406.0156-.0469.0235-.1015.0235-.1641 0-.0781-.0079-.1484-.0235-.2109-.0156-.0781-.039-.1562-.0703-.2344v-.914c-.0156-.1563-.0234-.3047-.0234-.4453.0156-.1563.0156-.3047 0-.4454 0-.0781-.0078-.1484-.0235-.2109 0-.0625-.0078-.125-.0234-.1875 0-.125 0-.2344 0-.3281.0156-.1094.0078-.2266-.0234-.3516-.0157-.1406-.0313-.2109-.0469-.2109 0-.0156 0-.0313 0-.0469-.0313-.1406-.0469-.2422-.0469-.3047.0156-.0625.0234-.1094.0234-.1406 0-.0469-.0078-.0938-.0234-.1406-.0312-.1719-.0469-.2656-.0469-.2813l.0235-.3047-.0703-.2812c-.0157-.125-.0235-.1953-.0235-.211.0156-.0312.0235-.0624.0235-.0937v-.375l-.0469-.7031c-.0156-.0625-.0313-.1172-.0469-.1641-.0156-.0625-.0234-.125-.0234-.1875.0156-.1406.0156-.2266 0-.2578 0-.0312 0-.0625 0-.0938 0-.0624 0-.125 0-.1874 0-.0626-.0078-.125-.0235-.1876-.0312-.125-.0468-.2109-.0468-.2578-.0157-.0625-.0235-.1562-.0235-.2812-.0312-.125-.0547-.2031-.0703-.2344 0-.0469 0-.0859 0-.1172 0-.125-.0078-.2031-.0234-.2344-.0157-.0468-.0235-.0859-.0235-.1171.0313-.0938.0469-.1797.0469-.2579l-.0234-.3281c-.0469-.125-.0547-.2265-.0235-.3047.0313-.0781.0625-.1484.0938-.2109.1719-.09375.2812-.15625.3281-.1875.0469-.04688.0859-.07031.1172-.07031.0312-.01563.0703-.00781.1172.02343.0625.01563.1172.02344.164.02344.2032-.03125.3204-.03906.3516-.02344.0469.01563.0938.02344.1406.02344.0469-.01562.1094-.02344.1875-.02344.0625 0 .1172.00782.1641.02344h.1875c.1406.01563.25.02344.3281.02344l.3281-.02344h.4454.2578c.0312-.01562.0547-.01562.0703 0h.3281c.0625-.01562.1172-.02344.1641-.02344h.2812c.125-.01562.2578-.01562.3985 0h.2578c.1406-.03124.2265-.04687.2578-.04687.0625 0 .125.00781.1875.02344.0625.01562.1328.02343.2109.02343.0625 0 .125-.00781.1875-.02343.0781-.01563.1485-.02344.211-.02344.1093.03125.1953.07031.2578.11719.0625.04687.1093.08594.1406.11718 0 .03126-.0078.0625-.0234.09376v.16402c0 .1563.0078.3047.0234.4454.0156.1406.0312.2812.0469.4218 0 .1875-.0157.3594-.0469.5156v.1641c.0156.0469.0156.0938 0 .1406 0 .0782-.0156.1485-.0469.211-.0156.0625-.0156.1328 0 .2109-.0312.0313-.039.0703-.0234.1172.0156.0312.0078.0781-.0235.1406l-.0468.2813c-.0157.1562-.0313.3203-.0469.4922-.0156.1562-.0234.3125-.0234.4687v.1406c.0156.0313.0234.0704.0234.1172 0 .0938-.0156.2032-.0469.3282-.0156.1093-.039.2265-.0703.3515v.1875c0 .0625-.0078.125-.0234.1875v.1875c.0156.0625.0234.125.0234.1875 0 .0781-.0156.1406-.0469.1875-.0156.0469-.0234.1016-.0234.1641-.0313.1093-.0391.2265-.0234.3515.0156.1094.0234.2344.0234.375 0 .0625-.0078.125-.0234.1875-.0157.0625-.0235.125-.0235.1875-.0156.125-.0234.25-.0234.375.0156.1094.0156.2266 0 .3516 0 .1094-.0078.2188-.0235.3281 0 .0938-.0078.2031-.0234.3281v.6563c.0156.2031.0156.4141 0 .6328.0156.1563.0156.25 0 .2813v.0937c-.0156.1563-.0234.25-.0234.2813.0156.0156.0234.039.0234.0703.0156.125.0156.25 0 .375 0 .125.0078.2343.0234.3281l.0235.4219v.2578c0 .0781.0156.1406.0469.1875.0312.0625.0703.1094.1171.1406.0625.0313.1329.0625.211.0938.0781.0312.164.0546.2578.0703.0937.0156.2031.0312.3281.0469h.211c.0781-.0157.1562-.0235.2343-.0235.2344.0156.4532.0156.6563 0s.3672-.0078.4922.0235c.1875-.0157.3125-.0313.375-.0469.0625-.0157.125-.0157.1875 0 .1562 0 .2968-.0157.4218-.0469.0469-.0156.0938-.0234.1407-.0234.0468 0 .0937-.0078.1406-.0235.1875.0157.2969.0235.3281.0235.0469 0 .1094-.0078.1875-.0235.1875-.0312.3047-.0469.3516-.0469.1719-.0156.2656-.0156.2812 0h.0469c.0625 0 .1172-.0078.1641-.0234.0468-.0156.1093-.0234.1875-.0234h.2578c.0156-.0156.0312-.0235.0469-.0235.0468-.0156.0859-.0312.1171-.0468.0313-.0157.0782-.0235.1407-.0235.0625-.0312.1172-.039.164-.0234.0625 0 .1328-.0078.211-.0234.1562-.0313.2422-.0547.2578-.0704.0312-.0156.0625-.0234.0937-.0234.1407.0156.2188.0156.2344 0s.0469-.0234.0938-.0234c.1093 0 .1953.0156.2578.0468.125 0 .1953.0078.2109.0235h.0938c.0625.125.1015.2187.1171.2812.0157.0625.0235.125.0235.1875.0156.0625.0156.1328 0 .211-.0625.1718-.1016.2734-.1172.3046-.0156.0313-.0313.0626-.0469.0938-.0312.1406-.0547.2188-.0703.2344v.0703c-.0312.125-.0469.2031-.0469.2344.0157.0312.0157.0703 0 .1171-.0156.0626-.0468.125-.0937.1876-.0313.0468-.0313.1093 0 .1874-.0625.1563-.1094.2579-.1406.3047-.0469.1719-.0782.2657-.0938.2813v.0469c-.0937.2031-.1406.3437-.1406.4218 0 .0625-.0313.1172-.0938.1641 0 .0625-.0156.125-.0468.1875-.0157.0469-.0391.0937-.0704.1406-.0156.0625-.0312.1172-.0468.1641-.0157.0312-.0391.0703-.0703.1172-.0469.1406-.086.2422-.1172.3047-.0625.1406-.1016.2187-.1172.2343v.0469c-.125.1719-.1953.2735-.211.3047-.0156.0312-.0468.0625-.0937.0938-.1094.1406-.2109.2187-.3047.2343-.0781.0157-.1562.0313-.2344.0469-.0937 0-.1875 0-.2812 0-.0781.0156-.1563.0391-.2344.0703-.1406-.0312-.2187-.0547-.2344-.0703-.0156 0-.039 0-.0703 0-.125-.0312-.2187-.0469-.2812-.0469l-.7735.0235c-.125 0-.2422 0-.3515 0-.0938-.0157-.1953-.0157-.3047 0-.125 0-.1953.0078-.211.0234-.0156 0-.0312 0-.0468 0-.0938.0156-.1563.0312-.1875.0469-.0313.0156-.0625.0234-.0938.0234-.1719 0-.2578-.0078-.2578-.0234 0 0-.0078 0-.0234 0-.0782.0156-.1328.0156-.1641 0-.0156 0-.0547.0078-.1172.0234-.1562.0156-.2422.0156-.2578 0 0 0-.0078 0-.0234 0-.2032.0469-.3047.0703-.3047.0703-.0938 0-.1875 0-.2813 0-.1562 0-.2578.0078-.3047.0235-.0468.0156-.1015.0234-.164.0234-.1563.0156-.25.0156-.2813 0-.0312 0-.0625 0-.0937 0-.0625.0156-.125.0234-.1875.0234-.0625.0157-.1328.0235-.211.0235-.0468 0-.0937-.0078-.1406-.0235-.0312 0-.0703 0-.1172 0-.1718.0313-.2578.0391-.2578.0235 0 0-.0078 0-.0234 0-.1719.0156-.2813.0234-.3281.0234-.0469.0156-.086.0234-.1172.0234z" fill="#693821"/></svg>