<svg fill="none" height="51" viewBox="0 0 109 51" width="109" xmlns="http://www.w3.org/2000/svg"><path d="m7.55469 37.1875c-.09375-.0156-.19531-.0313-.30469-.0469-.10938 0-.20312.0235-.28125.0703-.09375-.0312-.1875-.039-.28125-.0234-.07812.0313-.15625.0547-.23438.0703-.21874.0156-.35156.0156-.39843 0-.04688 0-.09375 0-.14063 0l-.375.0234c-.0625.0157-.11718.0235-.16406.0235-.03125.0156-.08594.0156-.16406 0l-.25782-.0235c-.125 0-.19531-.0078-.21093-.0234-.01563 0-.03907 0-.07031 0-.10938.0156-.21094.0156-.30469 0-.07813 0-.15625 0-.23438 0h-.39843c-.07813-.0156-.13282-.0234-.16407-.0234-.03125.0156-.07031.0156-.11719 0-.10937-.0313-.19531-.0703-.25781-.1172-.04687-.0313-.09375-.0625-.14062-.0938-.09375-.0468-.14063-.0859-.14063-.1172.01563-.0468-.00781-.0624-.07031-.0468.03125-.0625.04687-.1406.04687-.2344s-.00781-.1875-.02343-.2812c.03125-.2969.03125-.586 0-.8672v-.6563c.04687-.25.07031-.4062.07031-.4687.03125-.1875.04688-.2969.04688-.3282 0-.1562 0-.2422 0-.2578.01562-.1875.03124-.3125.04687-.375v-.7031c.03125-.125.04687-.2344.04687-.3281-.01562-.0938-.01562-.1719 0-.2344.01563-.0625.02344-.1328.02344-.2109-.03125-.1094-.04687-.211-.04687-.3047.01562-.0938.02343-.1953.02343-.3047v-.2813c0-.1406.00782-.2734.02344-.3984.01563-.125.01563-.2734 0-.4453-.03125-.0938-.03906-.1797-.02344-.2578.01563-.0938.02344-.2031.02344-.3281 0-.0782-.00781-.1563-.02344-.2344 0-.0938 0-.1875 0-.2813 0-.1719-.00781-.2969-.02343-.375-.03125-.2656-.04688-.4687-.04688-.6093.01563-.1563.02344-.3047.02344-.4454l-.02344-.3984c-.01562-.0625-.03125-.1094-.04687-.1406-.01563-.0469-.02344-.1016-.02344-.1641.0625-.2031.08594-.3437.07031-.4219 0-.0781 0-.1562 0-.2343v-.4688c0-.0937 0-.1875 0-.2812.01563-.1094.02344-.211.02344-.3047-.01563-.1875-.03125-.3828-.04687-.586 0-.2031.00781-.3906.02343-.5625-.04687-.0625-.07031-.125-.07031-.1875.01562-.0781.02344-.1562.02344-.2343 0-.1719-.00782-.2579-.02344-.2579 0-.0156 0-.0312 0-.0468-.01562-.1094-.02344-.211-.02344-.3047-.01562-.1719-.01562-.2735 0-.3047.01563-.0312.02344-.0625.02344-.0938 0-.0624-.00781-.125-.02344-.1874-.01562-.0626-.02344-.1329-.02344-.211.01563-.1094.00782-.2422-.02343-.3984 0-.0469 0-.0938 0-.1406.01562-.0469.01562-.1016 0-.1641 0-.1563-.01563-.2578-.04688-.3047-.01562-.0469-.02343-.0859-.02343-.1172 0-.1094-.00782-.2109-.02344-.3047 0-.0937 0-.1797 0-.2578l-.02344-.3047c-.03125-.1406-.04688-.2187-.04688-.2344.01563-.0156.02344-.039.02344-.0703-.01562-.0781-.03125-.1406-.04687-.1875-.01563-.0625-.02344-.1172-.02344-.164.01563-.1719.01563-.2656 0-.2813 0-.0156 0-.039 0-.0703l.04687-.3047c.03126-.0312.0625-.0625.09376-.0937.03124-.0313.0625-.0625.09374-.0938.07813-.0312.15626-.0468.23438-.0468.09375-.0157.17188-.0391.23438-.0704.14062-.0156.25781-.0234.35156-.0234.10937 0 .20312.0156.28125.0469.15625.0312.25.0469.28125.0469.03125-.0157.0625-.0235.09375-.0235.14062.0156.24219.0235.30469.0235s.13281.0078.21093.0234c.17188.0156.28907.0234.35157.0234.07812 0 .15624.0078.23437.0235l.28125.0468h.23438c.0625 0 .11718-.0078.16406-.0234l.375-.0469h.28125c.04687-.0156.10156-.0156.16406 0h.14063c.04687 0 .10937-.0156.1875-.0468.14062.0624.21874.0937.23437.0937s.02344.0156.02344.0469l.16406.2344c0 .0624-.00781.1171-.02344.164v.0938.3046c.01563.0938.02344.1797.02344.2579l-.02344.2812c-.01562.0625-.02343.125-.02343.1875 0 .0469-.00782.1016-.02344.1641-.03125.2812-.0625.4609-.09375.539.03125.0782.03906.1641.02343.2579-.01562.0937-.02343.1796-.02343.2578-.01563.1718-.02344.2656-.02344.2812.01563.0156.02344.0391.02344.0703l-.02344.375c-.01563.2031 0 .3672.04687.4922-.01562.1875-.01562.3125 0 .375.01563.0469.00782.0781-.02343.0938v.3515c0 .2188.00781.3516.02343.3985.01563.0312.00782.0703-.02343.1171v.7032c.03125.0937.04687.1875.04687.2812 0 .0625-.00781.125-.02344.1875-.01562.0625 0 .1328.04688.211-.03125.2656-.05469.5468-.07031.8437 0 .2813.01562.5469.04687.7969 0 .0469.00782.0937.02344.1406s.02344.0859.02344.1172c-.01563.0625-.03125.1172-.04688.1641 0 .0312-.00781.0703-.02344.1172v.3281c.01563.0312.02344.0625.02344.0937v.4453c.01563.1094.01563.2344 0 .375v.3985c0 .0625-.00781.125-.02344.1875v.1406c-.01562.0937-.02343.1719-.02343.2344.01562.0469.02343.0859.02343.1172.01563.1093.01563.2109 0 .3047-.01562.0937-.02343.1718-.02343.2343-.01563.0781-.02344.1641-.02344.2578.01563.0938.01563.1797 0 .2579 0 .0312-.00781.0781-.02344.1406v.1406.4219c.01563.1406.01563.2812 0 .4219.01563.2031.02344.3359.02344.3984-.03125.1719-.03906.2812-.02344.3281.01563.0469.02344.1016.02344.1641-.01563.1406-.02344.2265-.02344.2578.01563.0156.00781.039-.02343.0703.03124.1406.04687.2187.04687.2344.01563 0 .02344.0078.02344.0234.01562.1875.02343.3203.02343.3985v.2578c.04688.1093.0625.1796.04688.2109s-.00781.0547.02344.0703c-.01563.0781-.01563.1563 0 .2344.03125.0781.05468.1562.07031.2344 0 .1875.00781.3125.02344.375.01562.0468.03125.1093.04687.1875.01563.0468.02344.1093.02344.1875v.2109l-.02344.3281c0 .0782.00782.1328.02344.1641.01562.0312.01562.0859 0 .1641-.03125.1406-.05469.2187-.07031.2343-.01563.0157-.02344.0313-.02344.0469zm9.67971-.1172c-.0782-.1875-.1328-.2969-.1641-.3281-.0156-.0469-.0312-.1094-.0469-.1875l.0235-.3047c0-.0625-.0078-.1172-.0235-.1641-.0156-.0625-.0234-.1171-.0234-.164-.0312-.1719-.0625-.2891-.0938-.3516.0157-.0937.0235-.1562.0235-.1875 0-.0469-.0078-.0859-.0235-.1172l-.1406-.2344c-.125.1563-.1797.2344-.164.2344-.125.0782-.1954.1328-.211.1641-.0937.0937-.1484.1406-.164.1406-.0157 0-.0391.0156-.0704.0469-.1093.1562-.1953.2656-.2578.3281-.125.1406-.1875.2109-.1875.2109-.0781.0938-.1484.1563-.2109.1876-.0938.0937-.1484.1562-.1641.1874-.0156.0157-.0468.0391-.0937.0704-.1094.125-.1953.2031-.2578.2343-.1406.1563-.2266.2344-.2578.2344-.0313.0313-.0704.0547-.1172.0703-.0469.0313-.086.0625-.1172.0938-.0469.0156-.1328.0234-.2578.0234-.1563 0-.2656 0-.3282 0-.1874-.0625-.2968-.1094-.3281-.1406-.1406-.0313-.2343-.0547-.2812-.0703-.0469-.0157-.0938-.0235-.1407-.0235-.1406-.1093-.2109-.164-.2109-.164-.125-.0313-.1953-.0469-.2109-.0469-.0156-.0156-.0313-.0234-.0469-.0234-.1563-.0625-.2578-.1016-.3047-.1172-.0312-.0313-.0859-.0469-.164-.0469-.0938-.0625-.1485-.1016-.1641-.1172 0-.0312-.0078-.0547-.0235-.0703-.0937-.0625-.1718-.1016-.2343-.1172-.0313-.0781-.0781-.125-.1407-.1406-.0624-.0313-.125-.0703-.1874-.1172-.1094-.1094-.1719-.1641-.1876-.1641 0-.0156-.0156-.039-.0468-.0703l-.211-.2109-.1875-.211c-.125-.1718-.2187-.3046-.2812-.3984-.1563-.1875-.2344-.2969-.2344-.3281-.2031-.1875-.3125-.2891-.32811-.3047-.07813-.0781-.13281-.1562-.16407-.2344-.07812-.1094-.13281-.1953-.16406-.2578-.0625-.0469-.10156-.1172-.11718-.2109 0-.0938 0-.1875 0-.2813-.03126-.125-.07032-.2422-.11719-.3515-.04688-.1094-.0625-.1875-.04688-.2344.01563-.0469.01563-.1094 0-.1875.04688-.0781.07813-.1484.09375-.211.03125-.0624.08594-.1093.16406-.1406.0625-.1562.10157-.2344.11719-.2344.07813-.1093.13281-.1874.16407-.2343.0625-.1094.10152-.1719.11722-.1875.0312-.0313.0625-.0625.0937-.0938.0313-.0625.0938-.1406.1875-.2344.0625-.0468.1172-.1015.1641-.164.0625-.0625.125-.125.1875-.1875.125-.1406.2422-.2656.3515-.375.125-.1406.1875-.2109.1875-.2109.0157 0 .0313-.0079.0469-.0235.1563-.125.2422-.2031.2578-.2344.0313-.0312.0625-.0625.0938-.0937.1406-.0938.2187-.1406.2344-.1406.0156 0 .039-.0078.0703-.0235.1562-.0937.2421-.1484.2578-.164.125-.0782.1953-.1329.2109-.1641.0313-.0312.0625-.0547.0938-.0703.1562-.0938.2656-.1563.3281-.1875.1406-.1094.2109-.1641.2109-.1641.0156 0 .0313-.0078.0469-.0234.1719-.0625.2734-.125.3047-.1875.1562-.0625.2812-.1172.375-.1641.0937-.0625.1953-.1093.3047-.1406.1719-.0781.2812-.1406.3281-.1875.1562-.125.2344-.2031.2344-.2344-.0625-.0468-.1328-.0625-.211-.0468-.0625 0-.1406 0-.2343 0-.1407 0-.2422 0-.3047 0s-.125 0-.1875 0c-.0469 0-.1016.0078-.1641.0234-.0469 0-.1016-.0078-.164-.0234-.2032-.0313-.336-.0391-.3985-.0235-.0469 0-.0937 0-.1406 0l-.3985.0235c-.0937-.0313-.1874-.0469-.2812-.0469-.0469.0156-.1016.0234-.1641.0234-.0625-.0156-.1171-.0234-.164-.0234-.0938 0-.1953.0156-.3047.0469-.1094.0156-.2266.0234-.3516.0234-.0468.0156-.1015.0234-.164.0234-.0469-.0156-.1016-.0234-.1641-.0234-.2344 0-.4219 0-.5625 0-.125-.0156-.25-.0156-.375 0-.1875-.0156-.28906-.0313-.30469-.0469-.01562-.0312-.03906-.0625-.07031-.0937-.07812-.1719-.11719-.2657-.11719-.2813.01563-.0312.02344-.0625.02344-.0937.03125-.1563.04687-.25.04687-.2813.01563-.0312.02344-.0625.02344-.0937.03125-.1563.05469-.2344.07032-.2344.01562-.0156.03124-.0391.04687-.0703.03125-.1875.0625-.3203.09375-.3985.03125-.0937.0625-.1796.09375-.2578.01563-.0468.02344-.0859.02344-.1172 0-.0468.01562-.0937.04687-.1406.0625-.1562.09375-.3359.09375-.539.03125-.2032.07029-.3594.11719-.4688.0469-.125.0781-.2344.0937-.3281.0469-.1563.0704-.2657.0704-.3281l.0937-.2813c.1406-.1563.2266-.2734.2578-.3516.0469-.0312.086-.0547.1172-.0703.0469-.0312.0938-.0625.1406-.0937.125-.0469.2344-.0781.3282-.0938.0937 0 .1484-.0078.164-.0234.0313-.0156.0625-.0313.0938-.0469.1719.0156.2812.0156.3281 0 .0625-.0156.1328 0 .2109.0469.1094-.0313.1797-.0391.211-.0235h.1406c.0937.0157.1953.0235.3047.0235h.3516.2578c.1875-.0313.289-.0391.3046-.0235h.0938c.0312.0157.0938.0235.1875.0235.0937-.0156.1484-.0235.1641-.0235h.3046c.1407 0 .2735-.0078.3985-.0234.1094-.0156.1797-.0156.2109 0 .0313.0156.0625.0234.0938.0234h.3047c.1718-.0156.2656-.0156.2812 0h.0703l.2578-.0234c.1094 0 .1797.0078.211.0234.0468.0157.0859.0235.1172.0235.1093-.0156.1718-.0156.1875 0 .0312.0156.0625.0234.0937.0234.3281 0 .5547.0313.6797.0938.25.0781.4063.125.4687.1406.125.0937.1876.1406.1876.1406.0156-.0156.0312-.0156.0468 0 .0938.0938.1641.1485.211.1641.0468 0 .0859.0156.1172.0469l.2109.2109c.1406.1094.2265.1719.2578.1875.1094.125.1953.2187.2578.2813.0781.0624.1328.1093.1641.1406.0312.0156.0625.039.0937.0703.1563.0937.2422.1641.2578.2109.0157.0469.0547.0782.1172.0938.0469.125.0703.2109.0703.2578.0157.0469.0547.0781.1172.0937.0156.0469.0313.0938.0469.1407.0156.0468.0391.1015.0703.164.0469.0782.0625.1406.0469.1875 0 .0313.0078.0625.0234.0938.0157.0781.0313.1406.0469.1875.0312.0312.0547.0625.0703.0937.0625.2344.1094.3985.1406.4922.0313.0781.0625.1563.0938.2344.0312.0625.0469.125.0469.1875.0156.0469.039.1094.0703.1875.0937.25.1562.4453.1875.5859.0468.125.0859.2656.1172.4219.0312.0937.0546.1953.0703.3047.0312.1094.0547.2031.0703.2812.0156.1719.039.3047.0703.3985l.0703.4219c.0313.125.0547.2421.0703.3515.0313.1094.0469.2266.0469.3516.0625.2187.1172.3672.1641.4453.0156.1406.0312.2266.0468.2578.0313.0781.0469.1406.0469.1875 0 .0313.0078.0625.0234.0937.0626.2032.086.3282.0704.375 0 .0469.0078.0938.0234.1407.0312.1093.0391.1797.0234.2109v.0469c.0157.0625.0313.1172.0469.1641.0313.0312.0469.0781.0469.1406-.0156.1094-.0156.1875 0 .2344.0312.0468.0547.0937.0703.1406 0 .0937.0078.1562.0234.1875.0157.0156.0313.0469.0469.0937l.0234.3985c.0313.0781.0469.1718.0469.2812 0 .0938.0078.1875.0235.2813.0312.1718.0546.3125.0703.4218.0156.1094.039.211.0703.3047.0156.0625.0234.1172.0234.1641 0 .0312.0156.0625.0469.0937.0625.1407.0937.2344.0937.2813v.1172c0 .0937-.0078.1875-.0234.2812-.0156.0938-.039.1797-.0703.2578-.0469.1719-.0703.2813-.0703.3282-.1406.1093-.2188.1718-.2344.1875-.0156 0-.0547.0078-.1172.0234s-.1718.0391-.3281.0703c-.2031.0313-.3203.0547-.3516.0703-.0312 0-.0625.0078-.0937.0235-.1563 0-.2344 0-.2344 0 0-.0157-.0078-.0235-.0234-.0235-.125.0157-.1953.0235-.211.0235-.0156-.0157-.039-.0235-.0703-.0235-.2187 0-.3515.0078-.3984.0235-.1094 0-.2031.0078-.2813.0234-.0781 0-.1562 0-.2343 0-.1563.0156-.2657.0391-.3282.0703-.1562.0313-.25.0469-.2812.0469-.1875.0312-.3281.039-.4219.0234-.0937 0-.1953.0078-.3047.0235-.1719.0156-.2656.0234-.2812.0234-.0781.0156-.1719.0078-.2813-.0234-.0937-.0313-.1875-.0625-.2812-.0938zm-.3985-3.3281c-.0156-.2188-.0312-.375-.0468-.4688-.0157-.1093-.0313-.1875-.0469-.2343-.0313-.1407-.0469-.2344-.0469-.2813.0156-.0469.0156-.0859 0-.1172-.0469-.2656-.0703-.4453-.0703-.539 0-.0938-.0156-.1875-.0469-.2813-.0312-.125-.0547-.2031-.0703-.2344-.0156-.0468-.0312-.0859-.0469-.1171-.1093-.0938-.1797-.1329-.2109-.1172-.0312.0156-.0547.039-.0703.0703-.1406.0937-.2188.1484-.2344.164-.1406.0782-.2265.1329-.2578.1641-.0781.0625-.125.1016-.1406.1172-.0157.0156-.0391.039-.0703.0703-.1563.125-.2344.1875-.2344.1875 0-.0156-.0078-.0156-.0234 0-.1563.1094-.25.1875-.2813.2344-.0313.0312-.0703.0625-.1172.0937-.0312.0781-.0703.1407-.1172.1875-.0312.0469-.0625.0938-.0937.1406.0312.0626.0468.1172.0468.1641 0 .0313-.0156.0859-.0468.1641.1094.125.1875.1875.2344.1875.0781.0469.1328.0703.164.0703.0313 0 .0625.0078.0938.0234.0937.0625.1484.1094.164.1406.0156.0157.0313.0235.0469.0235.1406.0625.2266.0937.2578.0937.0469 0 .1016.0078.1641.0235.1094.0312.1875.0547.2344.0703.0624 0 .1093.0078.1406.0234.1718.0938.3125.1563.4218.1875.125.0157.2266.0078.3047-.0234zm19.1016 3.4453c-.0937-.0156-.1953-.0313-.3047-.0469-.1094 0-.2031.0235-.2812.0703-.0938-.0312-.1875-.039-.2813-.0234-.0781.0313-.1562.0547-.2344.0703-.2187.0156-.3515.0156-.3984 0-.0469 0-.0937 0-.1406 0l-.375.0234c-.0625.0157-.1172.0235-.1641.0235-.0312.0156-.0859.0156-.164 0l-.2579-.0235c-.125 0-.1953-.0078-.2109-.0234-.0156 0-.0391 0-.0703 0-.1094.0156-.2109.0156-.3047 0-.0781 0-.1562 0-.2344 0h-.3984c-.0781-.0156-.1328-.0234-.1641-.0234-.0312.0156-.0703.0156-.1172 0-.1093-.0313-.1953-.0703-.2578-.1172-.0469-.0313-.0937-.0625-.1406-.0938-.0937-.0468-.1406-.0859-.1406-.1172.0156-.0468-.0078-.0624-.0703-.0468.0312-.0625.0468-.1406.0468-.2344s-.0078-.1875-.0234-.2812c.0312-.2969.0312-.586 0-.8672v-.6563c.0469-.25.0703-.4062.0703-.4687.0313-.1875.0469-.2969.0469-.3282 0-.1562 0-.2422 0-.2578.0156-.1875.0312-.3125.0469-.375v-.7031c.0312-.125.0468-.2344.0468-.3281-.0156-.0938-.0156-.1719 0-.2344.0157-.0625.0235-.1328.0235-.2109-.0313-.1094-.0469-.211-.0469-.3047.0156-.0938.0234-.1953.0234-.3047v-.2813c0-.1406.0079-.2734.0235-.3984s.0156-.2734 0-.4453c-.0313-.0938-.0391-.1797-.0235-.2578.0157-.0938.0235-.2031.0235-.3281 0-.0782-.0078-.1563-.0235-.2344 0-.0938 0-.1875 0-.2813 0-.1719-.0078-.2969-.0234-.375-.0313-.2656-.0469-.4687-.0469-.6093.0156-.1563.0235-.3047.0235-.4454l-.0235-.3984c-.0156-.0625-.0312-.1094-.0468-.1406-.0157-.0469-.0235-.1016-.0235-.1641.0625-.2031.0859-.3437.0703-.4219 0-.0781 0-.1562 0-.2343v-.4688c0-.0937 0-.1875 0-.2812.0156-.1094.0235-.211.0235-.3047-.0157-.1875-.0313-.3828-.0469-.586 0-.2031.0078-.3906.0234-.5625-.0468-.0625-.0703-.125-.0703-.1875.0156-.0781.0235-.1562.0235-.2343 0-.1719-.0079-.2579-.0235-.2579 0-.0156 0-.0312 0-.0468-.0156-.1094-.0234-.211-.0234-.3047-.0157-.1719-.0157-.2735 0-.3047.0156-.0312.0234-.0625.0234-.0938 0-.0624-.0078-.125-.0234-.1874-.0157-.0626-.0235-.1329-.0235-.211.0157-.1094.0078-.2422-.0234-.3984 0-.0469 0-.0938 0-.1406.0156-.0469.0156-.1016 0-.1641 0-.1563-.0156-.2578-.0469-.3047-.0156-.0469-.0234-.0859-.0234-.1172 0-.1094-.0078-.2109-.0235-.3047 0-.0937 0-.1797 0-.2578l-.0234-.3047c-.0312-.1406-.0469-.2187-.0469-.2344.0157-.0156.0235-.039.0235-.0703-.0156-.0781-.0313-.1406-.0469-.1875-.0156-.0625-.0234-.1172-.0234-.164.0156-.1719.0156-.2656 0-.2813 0-.0156 0-.039 0-.0703l.0468-.3047c.0313-.0312.0625-.0625.0938-.0937.0312-.0313.0625-.0625.0937-.0938.0782-.0312.1563-.0468.2344-.0468.0938-.0157.1719-.0391.2344-.0704.1406-.0156.2578-.0234.3516-.0234.1093 0 .2031.0156.2812.0469.1562.0312.25.0469.2812.0469.0313-.0157.0626-.0235.0938-.0235.1406.0156.2422.0235.3047.0235s.1328.0078.2109.0234c.1719.0156.2891.0234.3516.0234.0781 0 .1562.0078.2344.0235l.2812.0468h.2344c.0625 0 .1172-.0078.164-.0234l.375-.0469h.2813c.0469-.0156.1016-.0156.1641 0h.1406c.0469 0 .1094-.0156.1875-.0468.1406.0624.2187.0937.2344.0937.0156 0 .0234.0156.0234.0469l.1641.2344c0 .0624-.0078.1171-.0235.164v.0938.3046c.0157.0938.0235.1797.0235.2579l-.0235.2812c-.0156.0625-.0234.125-.0234.1875 0 .0469-.0078.1016-.0235.1641-.0312.2812-.0624.4609-.0937.539.0313.0782.0391.1641.0234.2579-.0156.0937-.0234.1796-.0234.2578-.0156.1718-.0234.2656-.0234.2812.0156.0156.0234.0391.0234.0703l-.0234.375c-.0157.2031 0 .3672.0468.4922-.0156.1875-.0156.3125 0 .375.0157.0469.0079.0781-.0234.0938v.3515c0 .2188.0078.3516.0234.3985.0157.0312.0079.0703-.0234.1171v.7032c.0313.0937.0469.1875.0469.2812 0 .0625-.0078.125-.0235.1875-.0156.0625 0 .1328.0469.211-.0312.2656-.0547.5468-.0703.8437 0 .2813.0156.5469.0469.7969 0 .0469.0078.0937.0234.1406s.0234.0859.0234.1172c-.0156.0625-.0312.1172-.0468.1641 0 .0312-.0078.0703-.0235.1172v.3281c.0157.0312.0235.0625.0235.0937v.4453c.0156.1094.0156.2344 0 .375v.3985c0 .0625-.0078.125-.0235.1875v.1406c-.0156.0937-.0234.1719-.0234.2344.0156.0469.0234.0859.0234.1172.0157.1093.0157.2109 0 .3047-.0156.0937-.0234.1718-.0234.2343-.0156.0781-.0234.1641-.0234.2578.0156.0938.0156.1797 0 .2579 0 .0312-.0079.0781-.0235.1406v.1406.4219c.0156.1406.0156.2812 0 .4219.0156.2031.0235.3359.0235.3984-.0313.1719-.0391.2812-.0235.3281s.0235.1016.0235.1641c-.0157.1406-.0235.2265-.0235.2578.0156.0156.0078.039-.0234.0703.0312.1406.0469.2187.0469.2344.0156 0 .0234.0078.0234.0234.0156.1875.0234.3203.0234.3985v.2578c.0469.1093.0625.1796.0469.2109s-.0078.0547.0234.0703c-.0156.0781-.0156.1563 0 .2344.0313.0781.0547.1562.0704.2344 0 .1875.0078.3125.0234.375.0156.0468.0312.1093.0469.1875.0156.0468.0234.1093.0234.1875v.2109l-.0234.3281c0 .0782.0078.1328.0234.1641.0156.0312.0156.0859 0 .1641-.0312.1406-.0547.2187-.0703.2343-.0156.0157-.0234.0313-.0234.0469zm9.6797-.1172c-.0781-.1875-.1328-.2969-.1641-.3281-.0156-.0469-.0312-.1094-.0469-.1875l.0235-.3047c0-.0625-.0078-.1172-.0235-.1641-.0156-.0625-.0234-.1171-.0234-.164-.0312-.1719-.0625-.2891-.0937-.3516.0156-.0937.0234-.1562.0234-.1875 0-.0469-.0078-.0859-.0234-.1172l-.1407-.2344c-.125.1563-.1796.2344-.164.2344-.125.0782-.1953.1328-.211.1641-.0937.0937-.1484.1406-.164.1406s-.0391.0156-.0703.0469c-.1094.1562-.1953.2656-.2579.3281-.125.1406-.1874.2109-.1874.2109-.0782.0938-.1485.1563-.211.1876-.0937.0937-.1484.1562-.164.1874-.0157.0157-.0469.0391-.0938.0704-.1094.125-.1953.2031-.2578.2343-.1406.1563-.2266.2344-.2578.2344-.0313.0313-.0703.0547-.1172.0703-.0469.0313-.086.0625-.1172.0938-.0469.0156-.1328.0234-.2578.0234-.1563 0-.2656 0-.3281 0-.1875-.0625-.2969-.1094-.3282-.1406-.1406-.0313-.2343-.0547-.2812-.0703-.0469-.0157-.0938-.0235-.1406-.0235-.1407-.1093-.211-.164-.211-.164-.125-.0313-.1953-.0469-.2109-.0469-.0156-.0156-.0313-.0234-.0469-.0234-.1562-.0625-.2578-.1016-.3047-.1172-.0312-.0313-.0859-.0469-.164-.0469-.0938-.0625-.1485-.1016-.1641-.1172 0-.0312-.0078-.0547-.0234-.0703-.0938-.0625-.1719-.1016-.2344-.1172-.0313-.0781-.0781-.125-.1406-.1406-.0625-.0313-.125-.0703-.1875-.1172-.1094-.1094-.1719-.1641-.1875-.1641 0-.0156-.0157-.039-.0469-.0703l-.211-.2109-.1874-.211c-.125-.1718-.2188-.3046-.2813-.3984-.1563-.1875-.2344-.2969-.2344-.3281-.2031-.1875-.3125-.2891-.3281-.3047-.0781-.0781-.1328-.1562-.1641-.2344-.0781-.1094-.1328-.1953-.164-.2578-.0625-.0469-.1016-.1172-.1172-.2109 0-.0938 0-.1875 0-.2813-.0313-.125-.0703-.2422-.1172-.3515-.0469-.1094-.0625-.1875-.0469-.2344s.0156-.1094 0-.1875c.0469-.0781.0782-.1484.0938-.211.0312-.0624.0859-.1093.164-.1406.0625-.1562.1016-.2344.1172-.2344.0782-.1093.1328-.1874.1641-.2343.0625-.1094.1015-.1719.1172-.1875.0312-.0313.0625-.0625.0937-.0938.0313-.0625.0938-.1406.1875-.2344.0625-.0468.1172-.1015.1641-.164.0625-.0625.125-.125.1875-.1875.125-.1406.2422-.2656.3515-.375.125-.1406.1876-.2109.1876-.2109.0156 0 .0312-.0079.0468-.0235.1563-.125.2422-.2031.2578-.2344.0313-.0312.0625-.0625.0938-.0937.1406-.0938.2187-.1406.2344-.1406.0156 0 .039-.0078.0703-.0235.1562-.0937.2422-.1484.2578-.164.125-.0782.1953-.1329.2109-.1641.0313-.0312.0625-.0547.0938-.0703.1562-.0938.2656-.1563.3281-.1875.1406-.1094.2109-.1641.2109-.1641.0157 0 .0313-.0078.0469-.0234.1719-.0625.2735-.125.3047-.1875.1562-.0625.2812-.1172.375-.1641.0938-.0625.1953-.1093.3047-.1406.1719-.0781.2812-.1406.3281-.1875.1563-.125.2344-.2031.2344-.2344-.0625-.0468-.1328-.0625-.211-.0468-.0624 0-.1406 0-.2343 0-.1407 0-.2422 0-.3047 0s-.125 0-.1875 0c-.0469 0-.1016.0078-.1641.0234-.0468 0-.1015-.0078-.164-.0234-.2032-.0313-.336-.0391-.3985-.0235-.0469 0-.0937 0-.1406 0l-.3984.0235c-.0938-.0313-.1875-.0469-.2813-.0469-.0469.0156-.1016.0234-.164.0234-.0626-.0156-.1172-.0234-.1641-.0234-.0938 0-.1953.0156-.3047.0469-.1094.0156-.2266.0234-.3516.0234-.0468.0156-.1015.0234-.164.0234-.0469-.0156-.1016-.0234-.1641-.0234-.2344 0-.4219 0-.5625 0-.125-.0156-.25-.0156-.375 0-.1875-.0156-.289-.0313-.3047-.0469-.0156-.0312-.039-.0625-.0703-.0937-.0781-.1719-.1172-.2657-.1172-.2813.0156-.0312.0235-.0625.0235-.0937.0312-.1563.0468-.25.0468-.2813.0157-.0312.0235-.0625.0235-.0937.0312-.1563.0547-.2344.0703-.2344.0156-.0156.0312-.0391.0469-.0703.0312-.1875.0625-.3203.0937-.3985.0313-.0937.0625-.1796.0938-.2578.0156-.0468.0234-.0859.0234-.1172 0-.0468.0156-.0937.0469-.1406.0625-.1562.0937-.3359.0937-.539.0313-.2032.0703-.3594.1172-.4688.0469-.125.0781-.2344.0938-.3281.0468-.1563.0703-.2657.0703-.3281l.0937-.2813c.1407-.1563.2266-.2734.2578-.3516.0469-.0312.086-.0547.1172-.0703.0469-.0312.0938-.0625.1407-.0937.125-.0469.2343-.0781.3281-.0938.0937 0 .1484-.0078.164-.0234.0313-.0156.0625-.0313.0938-.0469.1719.0156.2812.0156.3281 0 .0625-.0156.1328 0 .211.0469.1093-.0313.1796-.0391.2109-.0235h.1406c.0938.0157.1953.0235.3047.0235h.3516.2578c.1875-.0313.289-.0391.3047-.0235h.0937c.0313.0157.0938.0235.1875.0235.0938-.0156.1485-.0235.1641-.0235h.3047c.1406 0 .2734-.0078.3984-.0234.1094-.0156.1797-.0156.2109 0 .0313.0156.0625.0234.0938.0234h.3047c.1719-.0156.2656-.0156.2812 0h.0703l.2578-.0234c.1094 0 .1797.0078.211.0234.0469.0157.0859.0235.1172.0235.1094-.0156.1718-.0156.1875 0 .0312.0156.0625.0234.0937.0234.3282 0 .5547.0313.6797.0938.25.0781.4063.125.4688.1406.125.0937.1875.1406.1875.1406.0156-.0156.0312-.0156.0468 0 .0938.0938.1641.1485.211.1641.0468 0 .0859.0156.1172.0469l.2109.2109c.1406.1094.2266.1719.2578.1875.1094.125.1953.2187.2578.2813.0781.0624.1328.1093.1641.1406.0312.0156.0625.039.0937.0703.1563.0937.2422.1641.2579.2109.0156.0469.0546.0782.1171.0938.0469.125.0703.2109.0703.2578.0157.0469.0547.0781.1172.0937.0157.0469.0313.0938.0469.1407.0156.0468.0391.1015.0703.164.0469.0782.0625.1406.0469.1875 0 .0313.0078.0625.0234.0938.0157.0781.0313.1406.0469.1875.0313.0312.0547.0625.0703.0937.0625.2344.1094.3985.1407.4922.0312.0781.0624.1563.0937.2344.0313.0625.0469.125.0469.1875.0156.0469.039.1094.0703.1875.0937.25.1562.4453.1875.5859.0469.125.0859.2656.1172.4219.0312.0937.0547.1953.0703.3047.0312.1094.0547.2031.0703.2812.0156.1719.0391.3047.0703.3985l.0703.4219c.0313.125.0547.2421.0703.3515.0313.1094.0469.2266.0469.3516.0625.2187.1172.3672.1641.4453.0156.1406.0312.2266.0469.2578.0312.0781.0468.1406.0468.1875 0 .0313.0078.0625.0235.0937.0625.2032.0859.3282.0703.375 0 .0469.0078.0938.0234.1407.0313.1093.0391.1797.0234.2109v.0469c.0157.0625.0313.1172.0469.1641.0313.0312.0469.0781.0469.1406-.0156.1094-.0156.1875 0 .2344.0312.0468.0547.0937.0703.1406 0 .0937.0078.1562.0235.1875.0156.0156.0312.0469.0468.0937l.0235.3985c.0312.0781.0468.1718.0468.2812 0 .0938.0079.1875.0235.2813.0312.1718.0547.3125.0703.4218.0156.1094.0391.211.0703.3047.0156.0625.0234.1172.0234.1641 0 .0312.0157.0625.0469.0937.0625.1407.0938.2344.0938.2813v.1172c0 .0937-.0079.1875-.0235.2812-.0156.0938-.039.1797-.0703.2578-.0469.1719-.0703.2813-.0703.3282-.1406.1093-.2188.1718-.2344.1875-.0156 0-.0547.0078-.1172.0234s-.1718.0391-.3281.0703c-.2031.0313-.3203.0547-.3515.0703-.0313 0-.0626.0078-.0938.0235-.1562 0-.2344 0-.2344 0 0-.0157-.0078-.0235-.0234-.0235-.125.0157-.1953.0235-.211.0235-.0156-.0157-.039-.0235-.0703-.0235-.2187 0-.3515.0078-.3984.0235-.1094 0-.2031.0078-.2813.0234-.0781 0-.1562 0-.2343 0-.1563.0156-.2657.0391-.3281.0703-.1563.0313-.25.0469-.2813.0469-.1875.0312-.3281.039-.4219.0234-.0937 0-.1953.0078-.3047.0235-.1718.0156-.2656.0234-.2812.0234-.0781.0156-.1719.0078-.2813-.0234-.0937-.0313-.1875-.0625-.2812-.0938zm-.3984-3.3281c-.0157-.2188-.0313-.375-.0469-.4688-.0157-.1093-.0313-.1875-.0469-.2343-.0312-.1407-.0469-.2344-.0469-.2813.0157-.0469.0157-.0859 0-.1172-.0469-.2656-.0703-.4453-.0703-.539 0-.0938-.0156-.1875-.0469-.2813-.0312-.125-.0547-.2031-.0703-.2344-.0156-.0468-.0312-.0859-.0468-.1171-.1094-.0938-.1797-.1329-.211-.1172-.0312.0156-.0547.039-.0703.0703-.1406.0937-.2187.1484-.2344.164-.1406.0782-.2265.1329-.2578.1641-.0781.0625-.125.1016-.1406.1172s-.0391.039-.0703.0703c-.1563.125-.2344.1875-.2344.1875 0-.0156-.0078-.0156-.0234 0-.1563.1094-.25.1875-.2813.2344-.0312.0312-.0703.0625-.1172.0937-.0312.0781-.0703.1407-.1172.1875-.0312.0469-.0625.0938-.0937.1406.0312.0626.0469.1172.0469.1641 0 .0313-.0157.0859-.0469.1641.1094.125.1875.1875.2344.1875.0781.0469.1328.0703.164.0703.0313 0 .0625.0078.0938.0234.0937.0625.1484.1094.164.1406.0157.0157.0313.0235.0469.0235.1406.0625.2266.0937.2578.0937.0469 0 .1016.0078.1641.0235.1094.0312.1875.0547.2344.0703.0625 0 .1093.0078.1406.0234.1719.0938.3125.1563.4219.1875.125.0157.2265.0078.3047-.0234zm11.0859-8.2734c.1406-.1094.2187-.1563.2344-.1407.0156 0 .0234-.0078.0234-.0234.125-.1094.2031-.1797.2344-.2109.0937-.0469.1484-.0782.164-.0938.0313-.0156.0625-.0312.0938-.0469l.3281-.2343c.0625-.0313.1094-.0704.1406-.1172.0469-.0625.0938-.125.1407-.1875.1718-.0938.2656-.1485.2812-.1641.0625-.0625.1172-.1016.1641-.1172.0468-.0156.0859-.039.1172-.0703.2031-.1719.3672-.2813.4922-.3281.0624-.0782.1328-.1328.2109-.1641.0781-.0469.1484-.1094.2109-.1875.1094-.0312.1875-.0703.2344-.1172.0781-.0625.1328-.1015.1641-.1172.0468-.0312.0937-.0546.1406-.0703.1875-.0156.2891-.0234.3047-.0234.125.0156.2109.0234.2578.0234.1094.0938.1719.1407.1875.1407.0312 0 .0625.0156.0937.0468.0313.0313.0704.0625.1172.0938.0469.0156.086.039.1172.0703l.211.1641c.1406.0781.2109.125.2109.1406 0 0 .0078.0078.0234.0234.0938.0781.1641.1328.211.1641.0468.0312.0781.0703.0937.1172.1094.0468.1953.1093.2578.1875.0782.0625.1563.1328.2344.2109.1719.1094.2812.1797.3281.2109.0469.0313.086.0625.1172.0938.125.0469.2188.125.2813.2344.0625.1093.1562.1953.2812.2578.125.125.1875.1875.1875.1875.0313.0469.0625.1015.0938.164.0468.0625.0859.1172.1171.1641.125.1406.1954.2266.211.2578.0156.0156.039.0391.0703.0703.0781.0938.1484.1875.2109.2813.0625.125.1172.2578.1641.3984.0625.1406.1328.2734.2109.3984-.0312.125-.0234.2579.0235.3985l.0234.2578c0 .1094.0078.1875.0235.2344.0156.0469.0234.0859.0234.1172.0312.0468.0312.0937 0 .1406-.0156.0469-.0234.1015-.0234.1641.0156.1874.0156.3124 0 .375v.1406.1172c.0156.0468.0156.1015 0 .164-.0313.2032-.0547.3438-.0704.4219 0 .0625.0078.1484.0235.2578 0 .1719-.0157.2969-.0469.375-.0156.0625-.0234.1328-.0234.2109.0156.1876.0234.3047.0234.3516.0156.0313.0234.0625.0234.0938l-.0234.5625c.0156.1562.0156.2343 0 .2343v.0235c.0156.125.0156.1953 0 .2109v.0469.1406c.0156.0469.0234.0938.0234.1406v.211c.0157.0156.0235.0312.0235.0469-.0469.1406-.0703.2187-.0703.2343.0156.0157.0234.0391.0234.0703v.1875c.0156.0469.0234.1016.0234.1641 0 .0781-.0078.1562-.0234.2344v.2344.2578c.0469.2343.0703.4296.0703.5859s.0078.3125.0235.4687v.2344c.0156.0156.0234.0391.0234.0703.0156.1719.0234.3438.0234.5157v.4922c0 .0468.0078.0937.0235.1406.0156.0468.0156.0937 0 .1406-.0157.0469-.0313.0859-.0469.1172-.0156.0156-.0391.0547-.0703.1172-.3125.125-.5078.1953-.586.2109-.0781.0313-.1718.0313-.2812 0-.0781 0-.1797-.0078-.3047-.0234-.1094 0-.2031.0078-.2812.0234-.1719-.0156-.2891-.0234-.3516-.0234-.0469.0156-.1016.0234-.1641.0234h-.3984c-.0781 0-.1563 0-.2344 0-.0625.0156-.125.0156-.1875 0-.1562-.0469-.2422-.0703-.2578-.0703-.0312 0-.0703 0-.1172 0-.0469.0156-.1094.0234-.1875.0234-.1875-.0156-.2969-.0156-.3281 0-.0156.0157-.0391.0157-.0703 0-.0313.0313-.0781.0469-.1407.0469-.0624 0-.1328 0-.2109 0-.1406.0313-.25.0235-.3281-.0234-.1406-.125-.2422-.211-.3047-.2578 0-.0782-.0078-.1563-.0234-.2344-.0157-.0781-.0235-.1641-.0235-.2578l.0469-.3047.0234-.2578c.0157-.0313.0235-.0703.0235-.1172.0156-.0469.039-.1094.0703-.1875.0156-.0469.0234-.0859.0234-.1172.0157-.0469.0313-.1094.0469-.1875 0-.1875.0078-.3203.0234-.3984.0157-.0938.0235-.1797.0235-.2578-.0157-.2032-.0078-.336.0234-.3985 0-.1719.0078-.2656.0235-.2812-.0157-.1563-.0157-.25 0-.2813.0156-.0312.0234-.0625.0234-.0937 0-.1875 0-.2891 0-.3047.0156-.0156.0234-.0313.0234-.0469-.0312-.1719-.0468-.2656-.0468-.2813.0156-.0156.0234-.0312.0234-.0468 0-.0469-.0078-.0938-.0234-.1406 0-.0626 0-.1329 0-.211v-.3047c-.0157-.1719-.0235-.3047-.0235-.3984-.0312-.1875-.0469-.3125-.0469-.375.0157-.0625.0235-.1172.0235-.1641 0-.2187 0-.3828 0-.4922 0-.125-.0157-.2265-.0469-.3046.0312-.0313.0391-.0782.0234-.1407 0-.0625 0-.1172 0-.164.0157-.1563.0078-.2735-.0234-.3516-.0156-.0937-.0078-.1719.0234-.2344-.0156-.1406-.0312-.2422-.0468-.3047 0-.0625-.0313-.1093-.0938-.1406-.1406-.125-.2109-.2031-.2109-.2344-.2031-.0156-.375.0157-.5157.0938-.1093.1406-.1718.2109-.1874.2109-.1094.1563-.1954.2578-.2579.3047-.0468.0469-.0937.1016-.1406.1641-.125.1562-.2031.25-.2344.2812-.1718.0938-.2968.1719-.375.2344-.0625.0625-.1406.0859-.2343.0703-.0782 0-.1485-.0234-.211-.0703-.0468-.0625-.1094-.1094-.1875-.1406-.0312-.0781-.0703-.1407-.1172-.1875-.0468-.0469-.0859-.1094-.1171-.1875-.1094-.1563-.1641-.2344-.1641-.2344.0156 0 .0156-.0078 0-.0234-.0781-.1407-.1641-.2735-.2578-.3985-.0313.0313-.0469.0703-.0469.1172v.1406.2813.5156c0 .0781-.0078.1641-.0234.2578v.2813.5859c.0156.1875.0234.3828.0234.5859.0312.0782.0469.1641.0469.2579v.2578l.0234.2578v.1641c.0156.0312.0235.0624.0235.0937.0156.1719.0156.2734 0 .3047-.0157.0312-.0235.0625-.0235.0937 0 .0938.0156.2188.0469.375-.0156.0625-.0234.1329-.0234.211.0156.0781.0234.1484.0234.2109.0156.0469.0156.0938 0 .1406v.1407c.0156.1562.0312.2656.0469.3281.0156.0469.0234.0859.0234.1172.0313.2812.0469.4609.0469.539.0156.0469.0156.1016 0 .1641 0 .0469.0078.0937.0234.1406.0313.1563.0391.2422.0234.2578v.0703l.0704.3516c-.0157.1563-.0235.2422-.0235.2578.0157.0156.0235.0391.0235.0703-.0469.1719-.0704.2969-.0704.375 0 .0782-.0234.1329-.0703.1641-.1562.0156-.2734.0234-.3515.0234-.0782.0157-.1485.0391-.211.0704-.2656.0312-.4765.0234-.6328-.0235-.1562-.0312-.2422-.0469-.2578-.0469-.0156.0157-.039.0235-.0703.0235-.0625 0-.1094-.0078-.1406-.0235-.0313 0-.0781 0-.1407 0-.1874-.0156-.3046-.0234-.3515-.0234-.0313 0-.0703-.0078-.1172-.0234-.0781 0-.1641 0-.2578 0-.0781-.0157-.1563-.0313-.2344-.0469-.1875-.0469-.3594-.0547-.5156-.0235-.1406.0313-.25.0547-.3281.0704-.1094 0-.1797 0-.211 0-.0156-.0157-.039-.0157-.0703 0-.0469 0-.0937.0078-.1406.0234-.0313 0-.0781-.0078-.1406-.0234-.125 0-.2266.0156-.3047.0468-.1719-.0625-.2656-.0937-.2813-.0937 0 0-.0078-.0156-.0234-.0469-.0469-.0781-.0859-.1328-.1172-.164-.0156-.0313-.0234-.0704-.0234-.1172.0156-.25.0156-.4297 0-.5391 0-.125.0078-.2422.0234-.3516 0-.1875 0-.3047 0-.3515.0156-.0625.0313-.1172.0469-.1641.0312-.2812.0625-.4609.0937-.5391.0157-.2031.0157-.3359 0-.3984-.0156-.0625-.0156-.125 0-.1875 0-.1719.0078-.2656.0235-.2812.0156-.0313.0234-.0625.0234-.0938l-.0234-.3047c0-.0937 0-.1797 0-.2578s-.0157-.1484-.0469-.2109c.0156-.1719.0078-.2891-.0235-.3516-.0156-.0781-.0078-.125.0235-.1406.0156-.1406.0234-.2188.0234-.2344s-.0078-.0391-.0234-.0703c0-.0469 0-.0938 0-.1406.0156-.0469.0234-.086.0234-.1172 0-.0625-.0078-.1094-.0234-.1406-.0156-.0469-.0078-.0938.0234-.1407 0-.1562 0-.2734 0-.3515 0-.0938 0-.1797 0-.2578 0-.0782-.0078-.1485-.0234-.211s-.0235-.1172-.0235-.164c.0157-.2032.0079-.336-.0234-.3985.0156-.0625.0234-.1172.0234-.164 0-.0625.0079-.125.0235-.1875v-.2813-.4922c0-.125-.0078-.2109-.0235-.2578 0-.0625 0-.1172 0-.1641-.0312-.1562-.0468-.2812-.0468-.375 0-.1093 0-.2031 0-.2812.0156-.125.0156-.2031 0-.2344-.0156-.0468 0-.0625.0468-.0468-.0156-.25-.039-.4219-.0703-.5157-.0156-.0937-.0078-.1797.0235-.2578-.0156-.0312-.0313-.0703-.0469-.1172s-.0234-.1015-.0234-.164c.0156-.1407.0156-.2266 0-.2579-.0157-.0312-.0235-.0624-.0235-.0937 0-.2031 0-.3594 0-.4687-.0156-.1719-.0234-.2813-.0234-.3282.0156-.0625.0234-.125.0234-.1875v-.3515c-.0156-.125-.0234-.2188-.0234-.2813-.0313-.1875-.0469-.3047-.0469-.3515 0-.0469-.0078-.0938-.0234-.1407l-.0235-.3281c-.0156-.1406-.0156-.2969 0-.4688.1407-.1718.2032-.2578.1875-.2578.1875-.0781.3047-.1172.3516-.1172.1875.0157.3047.0157.3516 0 .0468-.0156.1015-.0312.164-.0468.125 0 .2031-.0078.2344-.0235.0313-.0156.0625-.0234.0937-.0234.0469-.0156.0938-.0156.1407 0 .0625.0156.1093.0078.1406-.0234.2187.0156.375.0234.4687.0234.0938 0 .1797-.0156.2579-.0469.0468-.0156.1093-.0156.1875 0 .0781.0156.1406.0469.1875.0938.0781-.0313.1484-.0391.2109-.0235h.1875c.1719.0313.3125.0469.4219.0469.125-.0156.2344-.0078.3281.0234.0781-.0312.1719-.039.2813-.0234.1093.0156.2031 0 .2812-.0469l.2812.0703c.1563.1563.2657.2969.3282.4219.0625.1094.0468.2188-.0469.3281-.0313.1407-.0547.2813-.0703.4219-.0156.125-.0391.2657-.0703.4219-.0157.1875-.0313.2969-.0469.3281 0 .0313-.0078.0625-.0234.0938-.0157.0781-.0235.1484-.0235.2109.0157.0625.0078.1328-.0234.211zm22.125 13.3593c-.0156.1094-.0313.211-.0469.3047-.0156.1094-.0547.2031-.1172.2813 0 .2343-.039.4218-.1172.5625.0313.0625.0235.1172-.0234.164-.0469.0625-.0781.1485-.0938.2578-.0781.1563-.125.2657-.1406.3282 0 .0625-.0156.125-.0468.1875-.0469.1718-.086.2734-.1172.3047-.0157.0312-.0313.0624-.0469.0937-.0313.0313-.0547.0703-.0703.1172s-.0391.0937-.0703.1406c-.1094.125-.1719.2031-.1875.2344-.0157.0312-.0313.0703-.0469.1172-.0469.0156-.0859.039-.1172.0703-.0313.0469-.0703.0781-.1172.0937-.0312.0469-.0703.0938-.1172.1407-.0312.0625-.0703.1093-.1172.1406-.0781.125-.1406.2187-.1875.2812-.0312.0625-.0625.1094-.0937.1407-.1406.1718-.2344.2656-.2813.2812-.0312.0156-.0546.0625-.0703.1406-.1562.0938-.2343.1407-.2343.1407 0 .0156-.0079.0234-.0235.0234-.0469.0469-.0859.1016-.1172.1641-.0312.0625-.0625.1093-.0937.1406-.1719.125-.2891.2109-.3516.2578-.0625.0625-.1172.1094-.164.1406-.1407.0625-.211.1016-.211.1172s-.0156.0313-.0469.0469c-.0625.0469-.125.0859-.1875.1172-.0468.0312-.0859.0859-.1172.164-.1093 0-.1796.0547-.2109.1641-.1562.0937-.2344.1328-.2344.1172 0 0-.0078.0078-.0234.0234-.2187.0781-.3594.1407-.4219.1875-.0625.0625-.1328.1172-.2109.1641-.0313.0156-.0703.0234-.1172.0234-.0469.0157-.0937.0391-.1406.0703-.1094.0469-.1875.086-.2344.1172-.0469.0313-.1016.0469-.1641.0469-.0312.0625-.0781.0937-.1406.0937s-.1094.0391-.1406.1172c-.1875.0469-.2813.0704-.2813.0704-.1718.1093-.2812.1562-.3281.1406-.0312 0-.0547.0234-.0703.0703-.1719-.0313-.2969-.0625-.375-.0938-.0781-.0156-.1563-.0547-.2344-.1171-.0625-.0469-.1328-.1094-.2109-.1876-.0781-.0624-.1641-.1171-.2578-.164-.1094-.1406-.1719-.211-.1875-.211-.0157 0-.0391-.0156-.0703-.0468-.0625-.1719-.1094-.2891-.1407-.3516-.0156-.0469-.039-.0937-.0703-.1406-.0156-.0938-.039-.1719-.0703-.2344-.0156-.0625-.0312-.1172-.0469-.164-.0312-.25-.0781-.3985-.1406-.4454.0313-.0937.0313-.1718 0-.2343-.0312-.0469-.0547-.1094-.0703-.1875-.0625-.1407-.1094-.2422-.1406-.3047-.0157-.0469 0-.125.0469-.2344-.0782-.1406-.1172-.2344-.1172-.2813 0-.0468-.0157-.0781-.0469-.0937.0469-.0937.0469-.2031 0-.3281-.0313-.125-.0156-.25.0469-.375.0156-.1719.039-.2813.0703-.3282.0312-.0312.0547-.0703.0703-.1171.1719-.0782.2656-.1329.2812-.1641.0313-.0156.0625-.0312.0938-.0469.2344-.0312.3672-.0547.3984-.0703.1563-.0937.2422-.1328.2578-.1172.125-.0625.211-.1172.2578-.164.0782 0 .1797-.0313.3047-.0938.1407-.0937.2422-.1562.3047-.1875.0782-.0312.1563-.0703.2344-.1172.0781-.1093.1484-.1953.2109-.2578.0469-.0781.125-.1562.2344-.2344.125-.1093.2109-.1875.2578-.2343.1094-.1563.1797-.2735.211-.3516.125-.1562.2031-.2891.2343-.3984.0469-.0938.1016-.1954.1641-.3047 0-.1407.0078-.2422.0234-.3047.0157-.0469.0313-.086.0469-.1172.0313-.0781.0469-.1328.0469-.1641 0-.0312.0156-.0859.0469-.164.0156-.0469.0234-.1016.0234-.1641.0156-.0469.0391-.1094.0703-.1875.0156-.0781.0235-.1484.0235-.2109.0156-.0469.0078-.1016-.0235-.1641.0313-.1094.0313-.2187 0-.3281-.0156-.1094-.0078-.2266.0235-.3516-.125.0782-.2188.1328-.2813.1641-.0469.0312-.0937.0703-.1406.1172-.1563.0781-.2422.125-.2578.1406-.0157 0-.0391.0078-.0703.0234l-.2344.1407c-.1875.0937-.3125.1406-.375.1406-.0469.0156-.1016.039-.1641.0703s-.125.0547-.1875.0703c-.0469.0156-.0937.0391-.1406.0703-.1875 0-.3047.0078-.3516.0235-.0468.0156-.1015.0078-.164-.0235-.1875.0313-.3047.0391-.3516.0235-.0312 0-.0703 0-.1172 0-.0625.0156-.125.0234-.1875.0234-.0469.0156-.1094.0078-.1875-.0234-.1562 0-.2656-.0078-.3281-.0235-.0469-.0156-.0859-.0234-.1172-.0234-.1094-.0156-.1953-.0313-.2578-.0469-.0469-.0156-.1094-.0312-.1875-.0469-.1563-.0156-.2422-.039-.2578-.0703-.0156-.0156-.0391-.0312-.0703-.0468-.1563-.0782-.2657-.125-.3282-.1407-.0468-.0156-.0937-.039-.1406-.0703-.0469-.0312-.1015-.0547-.1641-.0703-.0624-.0313-.1171-.0625-.164-.0937-.1406-.0626-.2188-.1016-.2344-.1172-.0156-.0157-.039-.0313-.0703-.0469-.0313-.0313-.0703-.0469-.1172-.0469s-.0859-.0312-.1172-.0937c-.0781-.0469-.1406-.0782-.1875-.0938-.0468-.0156-.1015-.0391-.164-.0703-.125-.125-.1954-.1875-.211-.1875-.0156-.0156-.0312-.0313-.0468-.0469l-.211-.1875c-.0781-.0625-.1328-.1015-.164-.1172-.0313-.0312-.0704-.0625-.1172-.0937-.0469-.0313-.086-.0625-.1172-.0938-.0313-.0312-.0782-.0625-.1406-.0937-.0782-.1719-.1407-.3047-.1876-.3985-.0468-.1093-.0781-.164-.0937-.164 0-.0156-.0078-.0391-.0234-.0703-.0313-.1094-.0625-.1953-.0938-.2578-.0312-.0625-.0547-.1094-.0703-.1407-.0156-.0468-.0312-.0937-.0469-.1406-.0625-.1562-.1015-.25-.1172-.2812 0-.0313-.0156-.0625-.0468-.0938-.0313-.0625-.0547-.1172-.0703-.164-.0157-.0626-.0391-.1407-.0704-.2344-.0156-.0782-.0234-.1563-.0234-.2344s-.0156-.1641-.0469-.2578c-.0156-.0625-.0234-.1719-.0234-.3281-.0156-.2188-.0313-.3594-.0469-.4219s-.0234-.1328-.0234-.211c0-.0468.0078-.0937.0234-.1406.0156-.0468.0313-.0937.0469-.1406.0156-.1875.0156-.2812 0-.2812 0-.0157 0-.0391 0-.0704.0156-.0937.0234-.1875.0234-.2812 0-.1094 0-.2266 0-.3516.0313-.1406.0391-.2109.0235-.2109-.0157 0-.0235-.0235-.0235-.0703 0-.0782.0078-.1563.0235-.2344.0156-.0938.0234-.1797.0234-.2578 0-.0625-.0078-.1172-.0234-.1641 0-.0625.0156-.125.0468-.1875-.0156-.25-.0234-.4297-.0234-.539.0156-.125.0625-.2266.1406-.3047.0625-.1563.0938-.2578.0938-.3047.0156-.0469.039-.086.0703-.1172 0-.125.0156-.2188.0469-.2812.0468-.0938.0703-.1641.0703-.211 0-.0625.0078-.125.0234-.1875.0625-.1562.1094-.25.1406-.2812.0313-.0469.0313-.1016 0-.1641.0782-.1562.125-.2344.1407-.2344.0156-.0156.0234-.039.0234-.0703.0781-.1875.125-.2812.1406-.2812.0156-.0157.0313-.0313.0469-.0469.0937-.1563.1406-.2344.1406-.2344.0157 0 .0235-.0078.0235-.0234.0781-.1563.1484-.2344.2109-.2344.0469-.1406.0781-.2188.0937-.2344.0157-.0156.0235-.039.0235-.0703.1094-.125.1719-.1953.1875-.2109.0312-.0313.0625-.0625.0937-.0938.1094-.125.1641-.1953.1641-.2109.0781-.125.1562-.2109.2344-.2578.0625-.0625.1015-.1016.1172-.1172.0156-.0313.0312-.0625.0468-.0938.0938-.0781.1563-.1171.1875-.1171.0313-.0157.0469-.0391.0469-.0704.1563-.0781.2344-.1172.2344-.1172.0781-.0624.125-.1015.1406-.1171.0156-.0313.0391-.0625.0703-.0938.125-.0937.2031-.1484.2344-.1641.0313-.0156.0547-.039.0703-.0703.0781-.0156.1563-.0468.2344-.0937s.1562-.086.2344-.1172c.125-.0938.2031-.1328.2343-.1172.0313 0 .0703-.0078.1172-.0234.0781-.0469.1641-.086.2578-.1172.1407-.0938.2188-.1328.2344-.1172.0313.0156.0625.0078.0938-.0234.0937-.0469.164-.0704.2109-.0704.0625-.0156.1172-.039.1641-.0703.0781 0 .1484-.0078.2109-.0234.0781-.0156.1562-.0313.2344-.0469h.2578c.0781.0156.1484.0156.2109 0 .0781-.0156.1407-.0156.1875 0 .2344-.0625.375-.0859.4219-.0703h.2109c.1407-.0156.211-.0156.211 0 .0156 0 .039-.0078.0703-.0234.0781 0 .1406-.0078.1875-.0235.0625-.0156.125-.0234.1875-.0234.0781 0 .1406.0078.1875.0234h.1172c.0468-.0156.0937-.0234.1406-.0234.0469-.0156.1094-.0234.1875-.0234h.2578.3985.4218c.125 0 .211.0078.2578.0234.1719.0312.2813.0391.3282.0234.0468-.0312.1093-.0468.1875-.0468.1093.0156.1797.0312.2109.0468h.1406c.0938 0 .2266.0078.3985.0235h.4687c.125.0156.2266.0156.3047 0 .0937-.0157.1641-.0235.2109-.0235.2032.0313.3438.0469.4219.0469.1406.0938.2266.1485.2578.1641.1719.1406.2657.2265.2813.2578v.2812c.0156.0313.039.0469.0703.0469-.1094.1094-.1563.1953-.1406.2578.0312.0469.0468.0938.0468.1407-.0156.1093-.0234.1718-.0234.1874.0156.0157.0234.0391.0234.0704 0 .0468-.0078.0937-.0234.1406v.164.3282c-.0313.1875-.0469.3515-.0469.4922.0313.1718.0469.2812.0469.3281.0156.0312.0234.0625.0234.0937.0157.1563.0157.25 0 .2813v.1172.2343c.0157.0782.0235.1563.0235.2344-.0156.1094-.0078.2266.0234.3516 0 .125-.0078.2422-.0234.3516-.0156.1093-.0156.2343 0 .375-.0313.2031-.0391.3281-.0235.375.0157.0468.0079.0859-.0234.1171.0156.125.0156.2032 0 .2344v.0703c0 .1563-.0078.2578-.0234.3047v.1641.4687c0 .1563.0078.2813.0234.375v.6094.1406c.0156.0469.0234.0938.0234.1407-.0156.0781-.0156.1406 0 .1874.0157.0469.0079.086-.0234.1172.0156.2188.0234.3672.0234.4454.0157.0624.0313.1328.0469.2109v.2344c.0156.0781.0313.164.0469.2578l.0469.6093c.0312.1563.0468.25.0468.2813v.3516.2812c.0157.1875.0157.3047 0 .3516v.1875c0 .1562-.0156.3125-.0468.4687.0156.1407.0156.25 0 .3281v.2344c.0156.0782.0234.1641.0234.2578v.3047c-.0156.0625-.0156.1172 0 .1641.0156.0312.0234.0703.0234.1172-.0156.1406-.0234.2656-.0234.375v.4453c.0156.0469.0234.1172.0234.2109 0 .0938-.0078.1797-.0234.2578-.0312.1407-.0469.2578-.0469.3516.0157.0938.0235.1875.0235.2812zm-4.9219-6.375c.0469-.0312.0938-.0625.1406-.0937.0625-.0469.1094-.0938.1407-.1406.0156-.1876.0234-.3047.0234-.3516.0156-.0625.0234-.125.0234-.1875s-.0078-.125-.0234-.1875c0-.0625.0078-.125.0234-.1875.0313-.1094.0391-.1719.0235-.1875 0-.0313 0-.0625 0-.0938-.0156-.1562-.0235-.25-.0235-.2812.0157-.0313.0235-.0547.0235-.0703 0-.0313-.0078-.0625-.0235-.0938-.0156-.0469-.0234-.1015-.0234-.164-.0156-.2188-.0234-.3672-.0234-.4453 0-.0938.0078-.1797.0234-.2579 0-.0625-.0078-.1328-.0234-.2109 0-.0781.0156-.1328.0468-.1641-.0156-.1562-.0312-.25-.0468-.2812 0-.0469 0-.0859 0-.1172l.0234-.3047c0-.1406 0-.2344 0-.2812.0156-.0625.0156-.1094 0-.1407.0156-.1406.0156-.2109 0-.2109 0 0 0-.0156 0-.0469.0313-.1406.0391-.2187.0234-.2343-.0156-.0313-.0234-.0626-.0234-.0938-.0625-.1719-.1328-.2656-.2109-.2812-.0782-.0313-.1563-.0469-.2344-.0469-.0625 0-.1328 0-.211 0-.0624 0-.1093.0078-.1406.0234-.0781 0-.164.0156-.2578.0469-.0781-.0156-.1328-.0078-.164.0234-.0313.0313-.0626.0313-.0938 0-.1094.0469-.1797.086-.2109.1172-.0157.0156-.0391.0234-.0703.0234-.1407.0782-.2188.125-.2344.1407 0 .0156-.0078.0312-.0235.0469-.1718.0937-.289.1562-.3515.1874-.0938.0938-.1563.1563-.1875.1876-.0313.0156-.0625.039-.0938.0703-.1093.125-.1797.1953-.2109.2109-.1406.1875-.2266.3125-.2578.375l-.1172.2578c-.1094.1406-.1641.2266-.1641.2578 0 .0156-.0078.0391-.0234.0703-.0625.2188-.1016.3438-.1172.375-.0313.1719-.0469.2657-.0469.2813.0156.0156.0235.0312.0235.0469-.0469.2031-.0703.3515-.0703.4453v.2578c.0156.0781.0312.1562.0468.2344.0156.0625.0235.1328.0235.2109 0 .0625-.0079.1094-.0235.1406 0 .0313.0156.0703.0469.1172.0469.1406.0703.2422.0703.3047.0156.0469.0391.0859.0703.1172.125.1406.1875.2187.1875.2344 0 .0156.0078.0312.0235.0468.0468.0782.1015.1485.164.211.0781.0625.1485.125.211.1875.0312.0312.0703.0625.1171.0937.0469.0313.086.0703.1172.1172.0782 0 .1407.0156.1875.0469.0625.0312.1172.0625.1641.0937.1562.0469.25.0704.2812.0704.0469-.0157.086-.0235.1172-.0235l.3047.0235c.1563-.0157.2422-.0313.2578-.0469.1563-.0781.25-.125.2813-.1407.125-.0781.2031-.125.2344-.1406.0468-.0312.0859-.0547.1172-.0703zm19.0781-9.1875c.0625.25.0782.461.0469.6328-.0312.1719-.0469.3204-.0469.4454-.0312.0468-.0468.0937-.0468.1406.0156.0468.0156.0937 0 .1406 0 .0469-.0079.1016-.0235.1641v.1406.2109.1406c0 .125-.0078.1954-.0234.211v.0469c.0312.1093.0234.2109-.0234.3047.0312.0937.039.1953.0234.3046-.0156.1094-.0234.2422-.0234.3985l-.0235.3984c0 .1719-.0078.3047-.0234.3985v.2578c-.0157.1406-.0313.2265-.0469.2578.0156.1718.0234.2578.0234.2578.0157 0 .0235.0156.0235.0469.0312.0781.0312.1875 0 .3281-.0157.1406-.0157.2656 0 .375 0 .125-.0078.2031-.0235.2344 0 .0156.0078.039.0235.0703v.2109c.0156.0156.0234.0391.0234.0703-.0156.125-.0234.2422-.0234.3516 0 .0469-.0078.0937-.0235.1406v.1406.2344c.0157 0 .0235.0156.0235.0469-.0157.0937-.0313.1562-.0469.1875v.0937c.0469.2657.0547.4454.0234.5391-.0156.0469-.0234.1328-.0234.2578v.3047c.0156.125.0156.1953 0 .2109v.0469c.0469.1875.0625.3203.0469.3984v.2344c-.0157.125-.0235.211-.0235.2578.0157.0313.0078.0625-.0234.0938.0312.1094.0391.2344.0234.375v.4219.6328.4453c.0157.125.0313.2578.0469.3984.0156.0782.0235.1641.0235.2578 0 .0938.0078.1797.0234.2578.0469.2188.0703.3985.0703.5391v.3985c0 .1874-.0156.3046-.0469.3515-.0156.0469-.0468.1094-.0937.1875-.2031.0469-.336.0703-.3985.0703-.0468.0157-.1172.0235-.2109.0235-.2656-.0157-.5078-.0157-.7266 0-.1875 0-.3359 0-.4453 0-.0937.0156-.2031.0156-.3281 0-.125 0-.1953 0-.2109 0-.0157.0156-.0391.0234-.0704.0234-.2187-.0312-.3515-.0469-.3984-.0469-.0312.0157-.0703.0157-.1172 0-.2031-.0625-.3281-.0937-.375-.0937-.0468 0-.0937-.0156-.1406-.0469-.125-.0469-.2031-.0859-.2344-.1172-.0312-.0156-.0703-.0234-.1172-.0234-.1406-.1875-.2109-.3438-.2109-.4688 0-.0937.0078-.1797.0234-.2578.0313-.0781.0391-.1641.0235-.2578.0156-.125.0156-.2187 0-.2813 0-.0624 0-.1093 0-.1406.0156-.0468.0156-.0937 0-.1406 0-.0625 0-.1172 0-.1641v-.3984c-.1406.125-.2422.2109-.3047.2578-.0469.0313-.1016.0703-.1641.1172-.1562.0781-.25.1563-.2812.2344-.1563.0937-.2422.1484-.2578.164-.0157.0157-.0391.0313-.0704.0469-.1093.0938-.1796.1484-.2109.1641-.0312 0-.0625.0156-.0937.0469-.125.0624-.211.1015-.2578.1171-.1094.0782-.211.1329-.3047.1641-.0625.0469-.1094.0781-.1407.0938-.0156 0-.0468.0078-.0937.0234-.2031.1094-.3359.1797-.3985.2109-.0624.0313-.1171.0625-.164.0938-.1875.0781-.2813.1172-.2813.1172-.0937.0312-.164.0547-.2109.0703-.0469 0-.0859.0078-.1172.0234-.0781.0625-.1484.1016-.2109.1172-.0469 0-.0938.0078-.1407.0234-.0624.0313-.125.0469-.1874.0469-.0469.0156-.1016.0391-.1641.0703-.1563.0469-.25.0703-.2813.0703-.0156.0157-.039.0235-.0703.0235-.125-.0313-.2031-.0469-.2343-.0469-.0313.0156-.0626.0156-.0938 0-.1094-.0156-.2109-.0469-.3047-.0937-.0937-.0313-.1875-.0704-.2812-.1172-.1407-.0782-.2266-.1172-.2579-.1172-.1093-.0938-.1718-.1328-.1874-.1172 0 0-.0079-.0156-.0235-.0469-.0469-.0469-.1015-.0781-.1641-.0937-.0468-.0313-.1015-.0782-.164-.1407-.1563-.125-.2344-.1875-.2344-.1875-.0937-.125-.1562-.2109-.1875-.2578-.0781-.0781-.1328-.1406-.1641-.1875-.0156-.0469-.039-.0859-.0703-.1172-.1093-.1093-.164-.1718-.164-.1875 0-.0312-.0078-.0468-.0235-.0468-.1093-.1094-.1718-.1719-.1875-.1875-.0156-.0157-.039-.0391-.0703-.0703-.0781-.1094-.1328-.1719-.164-.1876-.0157-.0312-.0391-.0624-.0704-.0937-.0312-.0625-.0703-.125-.1171-.1875-.0469-.0625-.1016-.1172-.1641-.1641 0-.0781-.0156-.1406-.0469-.1875-.0156-.0625-.0078-.1172.0235-.164l-.0704-.2578c-.0156-.0938-.039-.1563-.0703-.1875-.0156-.0313-.0234-.0625-.0234-.0938-.0313-.0625-.0469-.1406-.0469-.2344.0156-.0937.0156-.1797 0-.2578-.0156-.1719-.0156-.2656 0-.2812-.0468-.1875-.0859-.3125-.1172-.375-.0156-.1719-.0234-.2657-.0234-.2813.0156-.0156.0234-.0312.0234-.0468 0-.0313-.0078-.0782-.0234-.1407s-.0234-.1172-.0234-.164c.0312-.1407.0312-.211 0-.211-.0157 0-.0157-.0156 0-.0469-.0157-.1718-.0235-.2734-.0235-.3046.0157-.0313.0235-.0625.0235-.0938.0156-.0469.0156-.0859 0-.1172 0-.0468 0-.0937 0-.1406v-.3047l-.0235-.3984c-.0156-.25-.0156-.4297 0-.5391.0157-.125.0235-.25.0235-.375-.0157-.125-.0235-.1953-.0235-.2109.0157-.0313.0235-.0625.0235-.0938-.0157-.1719-.0235-.2578-.0235-.2578.0157-.1562.0157-.2734 0-.3515 0-.0782.0078-.1719.0235-.2813 0-.2187-.0078-.3516-.0235-.3984 0-.0625 0-.125 0-.1875 0-.0782 0-.1485 0-.211.0157-.0625.0235-.1328.0235-.2109v-.5859c0-.1407-.0078-.2422-.0235-.3047-.0156-.0782-.0312-.1563-.0469-.2344 0-.1406 0-.2188 0-.2344.0157-.0312.0235-.0547.0235-.0703-.0313-.1875-.0469-.3125-.0469-.375.0156-.0625.0234-.125.0234-.1875-.0312-.1406-.0468-.2266-.0468-.2578 0-.0313 0-.0625 0-.0938 0-.1875-.0156-.289-.0469-.3047-.0156-.125-.0313-.2187-.0469-.2812 0-.0625-.0078-.1328-.0234-.2109.0156-.0469.0156-.1094 0-.1875-.0156-.0782-.0156-.1407 0-.1875l.2578-.3516c.0781.0156.1406.0156.1875 0 .0469-.0313.1094-.0547.1875-.0703.2188-.0156.3594-.0391.4219-.0703.0625-.0313.1406-.0391.2343-.0235.1876.0469.3438.0547.4688.0235h.1875c.0469 0 .0859-.0078.1172-.0235h.1406c.0625-.0156.125-.0156.1875 0 .1875.0313.3047.0469.3516.0469.0625-.0156.125-.0156.1875 0 .1562.0313.2656.0469.3281.0469.1875 0 .3203.0156.3984.0469.0313.0156.086.0234.1641.0234h.2578c.0938-.0156.1875-.0234.2813-.0234.0937-.0157.1875-.0235.2812-.0235.0625.0156.125.0313.1875.0469.0625 0 .125.0156.1875.0469.0469.1562.0703.2344.0703.2344.0157 0 .0235.0078.0235.0234.0937.2031.1406.3672.1406.4922 0 .1094-.0078.2187-.0234.3281 0 .0469-.0079.0937-.0235.1406s-.0234.0938-.0234.1407c0 .0468-.0078.0937-.0235.1406v.1406.2109c.0157.0625.0157.125 0 .1875-.0156.1563-.0234.2344-.0234.2344.0156 0 .0234.0078.0234.0234-.0156.0469-.0312.0938-.0468.1407 0 .0312-.0078.0703-.0235.1172v.2343c.0157.0625 0 .125-.0469.1875.0313.1563.0391.3047.0235.4453v.4219c-.0156.1563-.0235.2578-.0235.3047.0157.0313.0235.0625.0235.0938 0 .0937-.0078.1796-.0235.2578 0 .0781-.0078.1562-.0234.2344v.4453.7734c0 .0625-.0078.1328-.0234.2109 0 .0625.0156.1328.0468.211-.0312.0468-.0468.0937-.0468.1406.0156.0469.0234.0938.0234.1406 0 .0782-.0078.1641-.0234.2578-.0156.0782-.0235.1641-.0235.2578 0 .2032.0079.336.0235.3985.0312.0625.0468.1328.0468.2109.0157.2188.0313.3594.0469.4219.0157.0625.0313.1328.0469.2109.0156.0782.0156.1485 0 .211 0 .0468.0156.0937.0469.1406.1719.0625.2734.1094.3047.1406.0312.0156.0625.0391.0937.0703.2344.0782.3828.1407.4453.1875.0313.0469.0703.0704.1172.0704.0469-.0157.086 0 .1172.0468.1406-.0468.2266-.0859.2578-.1172.1719-.1093.2656-.164.2813-.164.0312-.0156.0625-.0391.0937-.0703.1406-.1094.2266-.1641.2578-.1641.1719-.1406.2735-.2266.3047-.2578.0313-.0469.0625-.086.0938-.1172.0312-.0312.0625-.0625.0937-.0938.0469-.0312.086-.0624.1172-.0937.0312-.1406.0312-.2578 0-.3516-.0156-.0937-.0156-.2031 0-.3281 0-.125.0078-.2109.0234-.2578.0157-.0625 0-.1328-.0468-.2109.0156-.1875.0312-.3047.0468-.3516.0157-.0469.0235-.0937.0235-.1406 0-.0781-.0078-.1563-.0235-.2344-.0156-.0781-.0078-.1719.0235-.2813.0312-.1406.039-.2343.0234-.2812-.0156-.0625-.0234-.1172-.0234-.1641 0-.0625-.0078-.1171-.0235-.164 0-.0469.0157-.0938.0469-.1407-.0156-.0468-.0312-.1015-.0469-.164-.0156-.0781-.0078-.1484.0235-.211.0156-.1562 0-.3046-.0469-.4453 0-.1875 0-.3203 0-.3984.0156-.0781.0078-.1563-.0234-.2344 0-.1093 0-.1719 0-.1875.0156-.0156.0234-.039.0234-.0703-.0312-.125-.0469-.1953-.0469-.2109.0157-.0313.0235-.0625.0235-.0938 0-.1406-.0078-.2344-.0235-.2812-.0156-.0469-.0234-.0938-.0234-.1406 0-.1094-.0156-.211-.0469-.3047-.0469-.2032-.0703-.336-.0703-.3985.0156-.0625.0234-.1328.0234-.2109 0-.1094.0079-.1719.0235-.1875.0156-.0313.0234-.0703.0234-.1172.0156-.0625.0156-.125 0-.1875 0-.0781 0-.1563 0-.2344-.0156-.1406-.0078-.2578.0234-.3515.0157-.125.0313-.2578.0469-.3985.0157-.1406.0703-.2343.1641-.2812.0937-.1094.1484-.1719.164-.1875.0313-.0313.0704-.0547.1172-.0703.0313-.0157.0704-.0313.1172-.0469.0469-.0156.0938-.0391.1406-.0703.125.0312.2344.039.3282.0234.1094-.0156.2109-.0078.3047.0235.1718-.0469.2734-.0782.3047-.0938.0312-.0156.0624-.0234.0937-.0234s.0703.0078.1172.0234h.1641c.0624 0 .125.0078.1874.0234h.1641c.0469 0 .0938-.0078.1406-.0234.0469-.0156.0938-.0234.1407-.0234.0781 0 .164.0156.2578.0468.1094 0 .1718.0078.1875.0235h.0703.164c.0313-.0157.0626-.0235.0938-.0235.1562 0 .2422.0078.2578.0235h.0938c.0468.0156.0937.0234.1406.0234.0469-.0156.1094-.0234.1875-.0234.0625 0 .125.0078.1875.0234.0625 0 .1094-.0156.1406-.0469.1563.0469.2422.0782.2578.0938s.0391.0234.0703.0234zm10.4301 9.8203c.031.0469.07.0625.117.0469s.094-.0312.14-.0469c.219-.0468.36-.0703.422-.0703.063-.0156.133-.0312.211-.0468.125-.0313.25-.0704.375-.1172.141-.0625.281-.1094.422-.1407.031-.0156.07-.0234.117-.0234.063-.0156.11-.0313.141-.0469.094-.0625.164-.1015.211-.1172.062-.0312.109-.0625.14-.0937.157-.125.258-.1953.305-.2109.047-.0157.086-.0391.117-.0704.219-.0625.344-.0859.375-.0703.125.0313.188.1328.188.3047-.016.2188-.024.3594-.024.4219.016.0469.024.1094.024.1875.015.125.023.2422.023.3516v.3281.1406c.016.0469.024.0859.024.1172 0 .0781-.016.1641-.047.2578-.016.0937-.024.1797-.024.2578.016.25.016.4844 0 .7031-.046.2032-.062.336-.046.3985.015.0625.023.1172.023.164-.016.1094-.031.2032-.047.2813-.156.1562-.273.2422-.351.2578-.079 0-.133.0391-.164.1172-.094.0156-.157.0312-.188.0469-.016.0156-.039.0312-.07.0468-.11.0938-.196.1407-.258.1407-.047 0-.094.0078-.141.0234l-.281.1172c-.172.0625-.289.0937-.352.0937-.062 0-.125.0313-.187.0938-.063 0-.125.0156-.188.0469-.046.0156-.109.0312-.187.0468-.156.0313-.266.0547-.328.0704-.11.0468-.188.0703-.235.0703-.046 0-.101.0078-.164.0234-.078.0156-.164.0234-.257.0234-.079.0157-.164.0313-.258.0469-.235.0469-.399.0625-.492.0469-.094 0-.188.0156-.282.0469-.125 0-.226.0078-.304.0234s-.157.0234-.235.0234c-.093 0-.187-.0078-.281-.0234-.078-.0156-.164-.0312-.258-.0469-.062.0313-.14.0391-.234.0235-.078-.0157-.18-.0391-.305-.0704-.125-.0156-.2108-.0312-.2577-.0468-.1875 0-.3125-.0078-.375-.0235-.0469-.0156-.1015-.0312-.1641-.0468-.0624-.0157-.1171-.0235-.164-.0235s-.1016-.0078-.1641-.0234c-.1093-.0156-.1875-.0313-.2343-.0469-.0469-.0156-.0938-.0312-.1407-.0469-.1875-.0468-.2969-.0781-.3281-.0937l-.2109-.1641c-.125-.0312-.25-.0781-.375-.1406-.0469-.0312-.0938-.0547-.1407-.0703-.0312-.0156-.0703-.0469-.1172-.0938-.0312-.0468-.0781-.0781-.1406-.0937-.0468-.0156-.0937-.0391-.1406-.0703-.1719-.1094-.2656-.1719-.2812-.1875 0-.0156-.0079-.0313-.0235-.0469-.1094-.0469-.1719-.0781-.1875-.0937 0-.0157-.0156-.0313-.0469-.0469l-.2343-.1407c-.0938-.0937-.1797-.1562-.2578-.1874-.0313-.0782-.0782-.1329-.1407-.1641-.0469-.0469-.0859-.1094-.1172-.1875-.1093-.0938-.1875-.1563-.2343-.1875-.0469-.0313-.086-.0781-.1172-.1406-.0469-.0313-.086-.0625-.1172-.0938-.0156-.0469-.0391-.0859-.0703-.1172-.0625-.0469-.1016-.1328-.1172-.2578-.0938-.0937-.1406-.1562-.1406-.1875 0-.0312-.0079-.0625-.0235-.0937-.0937-.125-.1562-.2032-.1875-.2344-.0937-.1094-.1406-.1719-.1406-.1875s-.0078-.0391-.0234-.0703c-.1094-.2188-.1875-.3516-.2344-.3985 0-.0781-.0078-.1328-.0235-.164-.0156-.0313-.0234-.0703-.0234-.1172-.0781-.1563-.1172-.25-.1172-.2813 0-.0468 0-.0859 0-.1171-.0468-.1563-.0781-.2344-.0937-.2344 0 0 0-.0078 0-.0235-.0781-.2343-.125-.3828-.1407-.4453-.0156-.0781-.039-.1484-.0703-.2109-.0312-.1563-.0547-.2578-.0703-.3047 0-.0469-.0078-.1094-.0234-.1875 0-.0937-.0078-.1875-.0234-.2813-.0157-.1093-.0235-.1718-.0235-.1874 0-.0313 0-.0782 0-.1407.0156-.0781.0156-.1406 0-.1875-.0156-.0468-.0391-.0859-.0703-.1172-.0312-.0468-.0469-.0937-.0469-.1406.0781-.2344.1172-.3828.1172-.4453 0-.0781 0-.1719 0-.2813.0313-.1406.0391-.25.0235-.3281-.0157-.0781-.0157-.1562 0-.2343 0-.0469 0-.0938 0-.1407 0-.0625.0156-.1093.0468-.1406-.0312-.0625-.039-.1094-.0234-.1406.0312-.0469.0547-.0938.0703-.1407 0-.1718 0-.2578 0-.2578.0156-.0156.0234-.039.0234-.0703.0313-.1406.0547-.2578.0703-.3515.0313-.1094.0626-.2032.0938-.2813.0469-.125.0703-.1953.0703-.2109 0-.0313.0078-.0625.0235-.0938.0624-.0937.1015-.1562.1171-.1875.0157-.0312.0313-.0625.0469-.0937.0625-.2344.1328-.4141.211-.5391.0781-.125.1328-.2187.164-.2812.0313-.0625.0625-.1094.0938-.1407 0-.0625.0156-.1093.0468-.1406.0469-.0312.086-.0625.1172-.0937.0782-.1407.1328-.2188.1641-.2344.0781-.1406.1172-.2188.1172-.2344.1406-.1562.2265-.2422.2578-.2578.0312-.0156.0625-.0391.0937-.0703.1094-.125.1563-.1953.1407-.211 0-.0312.0078-.0468.0234-.0468.0469-.0156.0781-.0391.0937-.0703.0313-.0469.0626-.086.0938-.1172.1406-.125.2188-.1953.2344-.211.0156-.0156.039-.0312.0703-.0468.0625-.1094.1015-.1641.1172-.1641.0312 0 .0469-.0156.0469-.0469.1562-.1093.2421-.1719.2578-.1875.0312-.0156.0625-.039.0937-.0703.125-.0937.1953-.1406.2109-.1406.0313-.0156.0547-.0313.0704-.0469.1562-.0937.2422-.1562.2578-.1875.1406-.1094.2187-.1641.2344-.1641.0312-.0156.0468-.039.0468-.0703.1875-.0937.2969-.1406.3282-.1406.0312 0 .0624-.0078.0937-.0234.2344-.0938.3828-.1563.4453-.1875.0313-.0156.0625-.0235.0938-.0235.0468-.0156.1093-.0312.1875-.0468.0312-.0157.0625-.0313.0937-.0469.0469-.0156.1016-.0313.1641-.0469.1562-.0469.2343-.0703.2343-.0703 0-.0156.0157-.0234.0469-.0234.1094-.0313.1797-.0547.211-.0704.0312-.0156.0859-.0234.164-.0234.2029-.0156.3909-.0156.5629 0 .156.0156.265.0156.328 0 .062-.0156.133-.0234.211-.0234.062 0 .156.0156.281.0468h.258c.156.0469.234.0704.234.0704 0-.0157.016-.0235.047-.0235.125.0313.195.0469.211.0469.031-.0156.062-.0156.094 0 .062 0 .117.0156.164.0469.062.0312.133.0312.211 0 .172.0781.281.125.328.1406.062.0156.133.0313.211.0469.156.0625.265.1094.328.1406.078.0156.148.0469.211.0938.094-.0313.18.0078.258.1171.156.0938.242.1407.257.1407.016 0 .032.0078.047.0234.078.0781.141.1328.188.1641.047.0312.086.0703.117.1171.078.1094.125.1719.141.1876.015 0 .031.0078.046.0234.047.0469.094.0937.141.1406.063.0469.109.1016.141.1641.125.125.187.1875.187.1875.063.0625.11.1172.141.164.047.0313.086.0704.117.1172.125.125.188.2032.188.2344 0 .0156.007.0391.023.0703.125.2031.195.3125.211.3281.062.1094.117.1875.164.2344.031.0469.055.0938.07.1406.016.0469.039.0938.071.1407-.016.0468-.016.0937 0 .1406.031.0469.062.0859.093.1172.032.0625.055.1484.071.2578.015.0937.039.1797.07.2578.031.0469.055.0937.07.1406.016.0313.039.0781.071.1407.031.1874.047.2812.047.2812 0 .0469.007.0938.023.1406.016.0313.031.0703.047.1172.015.1406.015.211 0 .211 0 0 .008.0156.023.0468l.071.2578c.031.125.046.2344.046.3282 0 .0468.008.0937.024.1406.016.0312.023.0703.023.1172-.031.1875-.047.3125-.047.375.016.0468.016.0859 0 .1172-.14.1406-.226.2265-.257.2578-.016.0312-.039.0547-.071.0703-.125.0625-.195.1015-.211.1172 0 .0156-.007.0312-.023.0469-.172.0781-.281.1171-.328.1171-.031 0-.063.0157-.094.0469-.125.0469-.211.086-.258.1172-.031.0312-.062.0625-.094.0938-.156.0468-.234.0859-.234.1171-.094.0469-.172.086-.234.1172-.063.0157-.117.0391-.164.0703-.172.0938-.321.1719-.446.2344-.156.0938-.265.1484-.328.1641-.062.0156-.109.039-.14.0703-.125.0625-.204.1016-.235.1172s-.062.039-.093.0703c-.157.1094-.258.1719-.305.1875-.031.0156-.063.0469-.094.0937-.031-.0156-.078-.0078-.141.0235-.062.0312-.117.0625-.164.0937-.187.0781-.312.125-.375.1407-.047 0-.086.0234-.117.0703-.047 0-.094.0156-.14.0468-.032.0157-.071.0313-.118.0469-.046.0156-.101.0234-.164.0234-.047-.0156-.093-.0078-.14.0235-.141.0937-.227.1406-.258.1406-.031.0313-.078.0547-.141.0703-.047.0156-.093.0313-.14.0469-.141.0781-.243.1172-.305.1172-.047 0-.086.0156-.117.0469-.141.0625-.219.1015-.235.1172-.125.0781-.211.1171-.257.1171-.047 0-.094.0157-.141.0469-.2501.0938-.3829.1641-.3985.211 0 .2031.0156.3124.0469.3281.1094.0937.1797.1484.2109.164.0469.0157.0937.0391.1407.0703.031.0469.062.0704.094.0704.047 0 .093.0156.14.0468.032.0157.063.0391.094.0704l.141.0468c.062.0469.148.0703.257.0703.079.0157.141.0313.188.0469.047 0 .102.0078.164.0234.125.0313.219.0469.281.0469.188-.0156.313-.0156.375 0 .078.0157.141.0235.188.0235.078 0 .156-.0078.234-.0235.078-.0312.156-.0469.235-.0469.187.0157.304.0157.351 0 .063-.0156.125-.0234.188-.0234zm-.938-5.9531c-.031-.0625-.055-.1172-.07-.164 0-.0469-.024-.0782-.07-.0938-.079-.1562-.126-.2422-.141-.2578 0-.0156-.016-.0313-.047-.0469-.141-.125-.227-.2031-.258-.2344-.156-.125-.25-.1953-.281-.2109-.219-.1094-.367-.1641-.445-.1641-.063 0-.149 0-.258 0-.172.0782-.266.1172-.281.1172-.016 0-.032.0078-.047.0235-.172.0937-.2738.1484-.305.164-.0312 0-.0469.0235-.0469.0703-.125.0625-.1953.1016-.2109.1172-.0156 0-.0313 0-.0469 0-.0937.125-.1562.211-.1875.2578-.0156.0313-.0312.0625-.0469.0938-.125.1562-.1953.25-.2109.2812-.0156.0313-.0312.0625-.0469.0938-.0469.2031-.1015.3203-.164.3515-.0469.0313-.0782.086-.0938.1641-.0937.125-.1406.2031-.1406.2344.0156.0156.0156.0312 0 .0469-.0469.1562-.0859.2343-.1172.2343-.0625.25-.0937.3907-.0937.4219.0312.125.0312.2031 0 .2344-.0157.0312-.0079.0547.0234.0703.2031-.0937.3437-.1328.4219-.1172.1562-.0781.2578-.125.3047-.1406.0468-.0156.0859-.0391.1171-.0703.1719-.0938.2657-.1485.2813-.1641.125-.0469.2109-.0781.2578-.0937.0469-.0157.0859-.0313.1172-.0469.1878-.0781.3048-.125.3518-.1406.062-.0313.109-.0625.14-.0938.125-.0781.211-.1172.258-.1172.047-.0156.094-.039.141-.0703.094-.0469.148-.0703.164-.0703.031-.0156.062-.0313.094-.0469.062-.0312.117-.0468.164-.0468.047-.0157.086-.0391.117-.0704.172-.0781.258-.125.258-.1406.015-.0312.031-.0469.047-.0469.093-.1093.179-.164.257-.164.078-.0157.133-.0547.164-.1172z" fill="#693821"/></svg>