<svg fill="none" height="37" viewBox="0 0 26 37" width="26" xmlns="http://www.w3.org/2000/svg"><path d="m23.2143 16.1875h-1.3929v-5.2031c0-6.05588-3.958-10.9844-8.8214-10.9844-4.86339 0-8.82143 4.92852-8.82143 10.9844v5.2031h-1.39286c-1.53794 0-2.78571 1.5537-2.78571 3.4687v13.875c0 1.9151 1.24777 3.4688 2.78571 3.4688h20.42859c1.5379 0 2.7857-1.5537 2.7857-3.4688v-13.875c0-1.915-1.2478-3.4687-2.7857-3.4687zm-6.0357 0h-8.35717v-5.2031c0-2.86897 1.87457-5.20315 4.17857-5.20315s4.1786 2.33418 4.1786 5.20315z" fill="#693821"/></svg>