<svg fill="none" height="181" viewBox="0 0 231 181" width="231" xmlns="http://www.w3.org/2000/svg"><g fill="#6a290b"><path d="m98.5248 8.4349c-41.8476 13.2622-74.4094 41.3892-89.60001 75.8668-14.50457 32.8953-12.20151 76.6083 33.39481 91.2323 47.0174 15.085 99.8664-3.185 135.5884-28.828 35.698-25.603 64.781-65.1488 48.414-104.9153-7.963-19.3324-26.094-34.03694-50.325-39.42595-28.323-6.31055-57.308.70117-81.7108 12.84145-3.3322 1.6628-.294 5.95 3.0626 4.2872 21.9772-10.8181 47.4342-17.58942 73.1602-13.06185 23.178 4.06685 41.235 17.18875 49.296 35.33905 16.072 36.1405-8.747 72.5614-40.353 97.1624-31.386 24.401-76.492 42.952-120.7657 35.78-24.354-3.947-43.6853-15.786-50.34954-35.84-5.39022-16.207-2.86661-33.636 3.18514-49.4828 13.549-35.4793 46.5273-64.4677 87.4194-80.13393.5636-.22037.1716-1.0217-.4165-.82137z"/><path d="m197.567 142.445c-4.642 1.9-11.307 6.995-11.56 12.028-.275 5.596 7.125 6.431 11.399 4.761 5.125-2.005 10.779-6.933 11.537-12.174.368-2.443-1.08-4.573-3.562-5.533-3.079-1.212-6.182-.105-9.078 1.023-2.757 1.086-.367 4.823 2.367 3.696 1.264-.627 2.597-.982 4.022-1.086 1.402 1.399 1.632 2.694.644 3.925-.414 1.024-1.448 2.109-2.206 2.903-1.885 1.921-4.528 4.03-7.401 4.427-3.562.501-5.01-1.9-3.424-4.782.506-.919 1.103-1.817 1.77-2.673 1.723-2.213 3.93-3.905 6.251-5.596.62-.438-.161-1.169-.759-.919z"/><path d="m206.709 167.377c-3.307 1.521-7.205 4.522-5.126 8.316 2.173 3.944 8.197 2.122 10.961-.215 2.882-2.421 3.519-6.944.33-9.409-2.74-2.122-7.63-.964-8.315 2.401-.378 1.865 2.575 2.679 3.189.793.567-1.715 2.93-1.243 3.496.193.662 1.693-.59 3.322-2.078 4.244-1.465.9-4.63 1.95-4.843-.536-.165-1.929 1.937-3.494 3.307-4.694.662-.579-.165-1.436-.921-1.093z"/><path d="m49.2578 141.169c-2.2289 9.866-1.3981 19.895 1.7223 29.477.2026.628 1.1954.345.9928-.263-3.2014-9.603-3.708-19.105-2.2491-29.072.0405-.304-.4052-.446-.466-.142z"/><path d="m217.027 50.3131c3.272 5.8824 5.65 12.0017 7.242 18.4368.109.4342.829.2566.72-.1777-1.636-6.4548-4.188-12.5939-7.569-18.4565-.153-.2566-.523-.0395-.393.1974z"/><path d="m218.054 46.4374c7.271 10.1834 10.603 21.141 9.554 33.0713-.046.6551 1.142.6551 1.212 0 1.026-11.9104-2.33-23.4238-10.16-33.369-.257-.3177-.839-.0397-.606.2977z"/></g><path d="m46.5547 89.875c-.0313.0625-.0703.1094-.1172.1406-.0469.0156-.1016.0391-.1641.0703-.1562.0782-.2578.1172-.3046.1172-.0469 0-.086.0157-.1172.0469-.0469.0156-.0938.0391-.1407.0703-.0312.0313-.0703.0625-.1171.0938-.1719.0468-.2735.0859-.3047.1171-.0313.0157-.0703.0313-.1172.0469-.1407.0781-.2422.1172-.3047.1172-.0625-.0156-.1328-.0156-.211 0-.0781.0156-.164.0391-.2578.0703-.0781.0156-.164.0391-.2578.0703-.0625.0157-.1562.0547-.2812.1172-.1406.0313-.2188.0469-.2344.0469-.0156-.0156-.0391-.0234-.0703-.0234-.1719.0781-.3125.1172-.4219.1172-.0937.0156-.1797.039-.2578.0703-.0625.0156-.1172.0312-.1641.0468-.0468.0157-.1015.0313-.164.0469-.1563.0469-.2657.0703-.3281.0703-.0469 0-.086.0157-.1172.0469-.125.0625-.211.1094-.2578.1406-.2813.0469-.4376.0703-.4688.0703-.0781 0-.1484-.0234-.2109-.0703-.0625-.0312-.125-.0625-.1875-.0937-.0782-.1875-.125-.3203-.1407-.3985 0-.0625-.0078-.1406-.0234-.2343-.0469-.2032-.0781-.3203-.0937-.3516-.0157-.0469-.0313-.0937-.0469-.1406-.0469-.25-.0703-.4219-.0703-.5157 0-.0937-.0078-.2031-.0235-.3281-.0312-.1406-.0469-.2265-.0469-.2578 0-.0469-.0078-.1015-.0234-.1641 0-.0781-.0078-.1562-.0234-.2343s-.0235-.1641-.0235-.2578c-.0312-.1719-.0468-.2735-.0468-.3047.0156-.125.0156-.2266 0-.3047-.0157-.0781-.0313-.1485-.0469-.2109-.0469-.2032-.0703-.3672-.0703-.4922-.0469-.2344-.0781-.3907-.0938-.4688-.0156-.0781-.0312-.1562-.0469-.2344-.0156-.0781-.0312-.1562-.0468-.2343-.0156-.0782-.0313-.1563-.0469-.2344l-.0469-.2813c-.0312-.1875-.0547-.3281-.0703-.4218-.0156-.1094-.0391-.211-.0703-.3047-.0156-.0625-.0234-.1172-.0234-.1641 0-.0625-.0078-.125-.0235-.1875-.0156-.0781-.0312-.1641-.0469-.2578 0-.0937-.0078-.1797-.0234-.2578-.0312-.1719-.0547-.2813-.0703-.3281-.0313-.125-.0469-.211-.0469-.2578 0-.0626-.0078-.125-.0234-.1876-.0156-.1406-.0313-.2187-.0469-.2343 0-.0157 0-.0313 0-.0469-.0156-.0781-.0234-.1406-.0234-.1875 0-.0625-.0078-.125-.0235-.1875-.0156-.0625-.039-.125-.0703-.1875-.0156-.0625-.0156-.1484 0-.2578-.0156-.0781-.0312-.1328-.0469-.1641 0-.0312 0-.0859 0-.164 0-.1407-.0078-.2344-.0234-.2813-.0469-.1875-.0703-.3047-.0703-.3515 0-.0626-.0156-.1172-.0469-.1641-.0781 0-.125.0234-.1406.0703s-.0391.0859-.0703.1172c-.0469.0156-.0781.0547-.0938.1172 0 .0625-.0234.1015-.0703.1172-.0625.1406-.0937.2265-.0937.2578 0 .0156-.0078.039-.0235.0703-.0156.0312-.039.0703-.0703.1172-.0156.0469-.039.0937-.0703.1406-.0625.1406-.1094.2656-.1406.375-.0625.125-.1172.2187-.1641.2813-.0469.1562-.0937.2578-.1406.3046-.0313.0313-.0547.0704-.0703.1172-.0313.0782-.0625.1797-.0938.3047-.0468.0781-.0937.1563-.1406.2344s-.0781.1719-.0937.2812c-.0625.0938-.0938.1485-.0938.1641s-.0078.0391-.0234.0703c-.0625.0938-.1094.1719-.1407.2344-.0624.1562-.1015.2578-.1171.3047 0 .0468-.0157.0937-.0469.1406l-.1406.2344c-.0625.1718-.0938.2812-.0938.3281 0 .0313-.0078.0625-.0234.0937-.0469.1563-.1016.2969-.1641.4219-.0469.125-.1015.2578-.1641.3985-.0624.1875-.1093.3125-.1406.375-.0312.125-.0625.2187-.0937.2812-.0781.1875-.1328.2969-.1641.3281 0 .0782-.0078.1407-.0234.1875-.0156.0469-.0313.0938-.0469.1407-.0156.0468-.0313.1015-.0469.164 0 .0469-.0078.0938-.0234.1407-.0781.1718-.125.2968-.1406.375-.0157.0624-.0391.1171-.0704.164-.0312.1094-.0624.1953-.0937.2578-.0156.0469-.0391.1016-.0703.1641-.0313.0781-.0547.1562-.0703.2344-.0157.0625-.0391.125-.0703.1875-.0157.0781-.0547.1953-.1172.3515-.0469.1094-.0703.1875-.0703.2344 0 .0313-.0157.0625-.0469.0937-.0625.1719-.1094.2735-.1406.3047-.0157.0469-.0235.1016-.0235.1641 0 .0469-.0156.0859-.0469.1172-.0468.0469-.0937.0937-.1406.1406-.0312.0469-.0625.0781-.0937.0938-.0625.125-.1094.1875-.1407.1875-.0156.0156-.0312.039-.0468.0703-.0469 0-.0938-.0078-.1406-.0235-.0313 0-.0704 0-.1172 0-.0625 0-.125 0-.1875 0-.0469.0157-.1016.0157-.1641 0-.0938-.0156-.1953 0-.3047.0469-.0937-.0156-.1641-.0234-.2109-.0234-.0469.0156-.0938.0156-.1406 0-.1563-.0625-.25-.0938-.2813-.0938-.125-.0781-.2031-.1328-.2344-.164-.1093-.125-.1875-.2188-.2343-.2813-.0313-.0625-.0547-.1406-.0704-.2344-.0468-.0625-.0859-.1328-.1172-.2109-.0312-.0781-.0624-.1641-.0937-.2578-.0469-.0781-.0781-.1328-.0937-.1641 0-.0312-.0079-.0625-.0235-.0937-.0156-.0782-.0391-.1406-.0703-.1875-.0156-.0625-.0312-.1094-.0469-.1407-.0312-.0781-.0703-.1562-.1172-.2343-.0312-.0781-.0468-.1563-.0468-.2344-.0938-.2656-.1563-.4219-.1875-.4687-.0313-.1407-.0704-.2422-.1172-.3047.0156-.0625.0078-.1094-.0235-.1407-.0156-.0468-.039-.1015-.0703-.164-.0781-.1719-.1172-.2813-.1172-.3282 0-.0468-.0156-.1015-.0468-.164-.0469-.0781-.0782-.1641-.0938-.2578-.0625-.1719-.1016-.2735-.1172-.3047 0-.0469-.0078-.0859-.0234-.1172-.0781-.1719-.1172-.2734-.1172-.3047 0-.0312-.0078-.0625-.0234-.0937-.0782-.1563-.125-.2579-.1407-.3047 0-.0625-.0156-.1172-.0468-.1641-.0469-.1406-.0703-.2265-.0703-.2578s-.0079-.0625-.0235-.0937c-.0469-.125-.0703-.2032-.0703-.2344 0-.0313-.0078-.0625-.0234-.0938-.0938-.1875-.1407-.3125-.1407-.375s-.0156-.125-.0468-.1875c-.0782-.2031-.1329-.3437-.1641-.4219-.0469-.1562-.0781-.2421-.0938-.2578-.0468-.1093-.0781-.1953-.0937-.2578 0-.0625-.0156-.1172-.0469-.164-.0156-.1094-.039-.1797-.0703-.211-.0312-.0468-.0391-.0859-.0234-.1172-.0313-.1406-.0703-.2343-.1172-.2812-.0313-.0625-.0313-.1172 0-.1641-.0469-.0469-.0781-.1015-.0938-.164-.0156-.0782-.039-.1563-.0703-.2344-.0468-.1094-.0703-.1719-.0703-.1875 0-.0313-.0078-.0625-.0234-.0938-.0938-.2187-.1407-.3515-.1407-.3984-.0468-.125-.0859-.2266-.1171-.3047-.0625-.125-.1016-.2109-.1172-.2578-.0157-.0469-.0469-.0859-.0938-.1172-.0625.0625-.1015.1094-.1172.1406-.0156.0157-.0312.0391-.0468.0703-.0469.1407-.0782.2188-.0938.2344v.0235c-.0156.0781-.0391.1484-.0703.2109-.0156.0469-.0312.1094-.0469.1875-.0312.0781-.0469.1641-.0469.2578 0 .0938-.0156.1797-.0468.2578-.0313.1563-.0625.2969-.0938.4219-.0156.0625-.0234.1172-.0234.1641 0 .0468-.0078.0937-.0234.1406 0 .0781-.0157.1797-.0469.3047v.3281c-.0157.1094-.0313.2187-.0469.3281 0 .0938-.0156.2032-.0469.3282l-.0469.4218c-.0468.3125-.0859.5-.1171.5625 0 .1719-.0079.2735-.0235.3047v.0703c-.0156.1563-.0312.25-.0468.2813v.1406c-.0157.2031-.0391.3672-.0704.4922-.0156.0781-.0234.1562-.0234.2344.0156.0625.0234.1093.0234.1406-.0156.0469-.039.0937-.0703.1406-.0156.0469-.0312.0938-.0469.1406v.3516l-.0468.375v.3047c.0156.0469.0234.1015.0234.1641v.4921c0 .1719-.0078.3438-.0234.5157v.3281c0 .0625-.0078.125-.0235.1875-.0156.0625-.0312.125-.0468.1875 0 .0469-.0079.1094-.0235.1875l-.0703.5625c-.0312.1406-.0625.2265-.0937.2578-.0157.0313-.0313.0625-.0469.0937-.0313.0469-.0469.1016-.0469.1641 0 .0781-.0156.1406-.0469.1875-.0468 0-.0937.0078-.1406.0234-.0469.0313-.0937.0547-.1406.0704-.2344-.0469-.3828-.0704-.4453-.0704-.0625.0157-.1328.0157-.211 0-.1093-.0312-.1796-.0468-.2109-.0468-.0156.0156-.0313.0234-.0469.0234-.1562-.1094-.2578-.1562-.3047-.1406-.0468.0156-.0859.0078-.1171-.0234-.1876-.0626-.3204-.0938-.3985-.0938-.0625.0156-.1328.0156-.2109 0-.0782-.0156-.1485-.0312-.211-.0469-.0625 0-.1328-.0078-.2109-.0234-.0625-.0156-.1172-.0235-.1641-.0235-.0468 0-.1015-.0156-.164-.0468-.0782-.0313-.1406-.0469-.1875-.0469-.0313 0-.0625-.0078-.0938-.0234-.1562-.0625-.2578-.0938-.3047-.0938-.0468 0-.0859 0-.1172 0-.0781.0156-.1406.0078-.1874-.0234-.0313-.0157-.0704-.0235-.1172-.0235-.0313-.0156-.0782-.0234-.1407-.0234-.0468.0156-.0937.0156-.1406 0-.1094-.0312-.1797-.0391-.2109-.0234-.0156 0-.0391-.0078-.0703-.0235-.1719-.0625-.2891-.1093-.3516-.1406-.0469-.0313-.1016-.0625-.1641-.0937-.0937-.0626-.1718-.1094-.2343-.1407-.0313-.0312-.0703-.0625-.1172-.0937-.0313-.0313-.0781-.0469-.1407-.0469-.0312-.1719-.0624-.2813-.0937-.3281.0313-.0782.0469-.1563.0469-.2344s.0078-.1641.0234-.2578c.0781-.1719.125-.2891.1406-.3516.0157-.0312.0235-.0703.0235-.1172 0-.0468.0078-.0937.0234-.1406.0625-.1875.0938-.2969.0938-.3281 0-.0469.0078-.0938.0234-.1406.0313-.1094.0391-.1719.0234-.1875 0-.0157 0-.0391 0-.0704.0469-.0937.0703-.1484.0703-.164.0157-.0313.0313-.0703.0469-.1172.0469-.1719.0703-.2656.0703-.2812.0157-.0157.0235-.0313.0235-.0469 0-.1094.0078-.1719.0234-.1875.0156-.0313.0235-.0625.0235-.0938.0156-.0937.0234-.1875.0234-.2812 0-.1094.0156-.2188.0469-.3282.0156-.0781.0234-.1484.0234-.2109.0156-.0781.0313-.1562.0469-.2344l.0234-.2812c.0156-.0469.0313-.1094.0469-.1875s.0312-.1563.0469-.2344c0-.0781.0078-.1328.0234-.164.0156-.0469.0234-.0938.0234-.1407l.0704-.2812c.0312-.1875.0624-.3281.0937-.4219 0-.0469 0-.0938 0-.1406 0-.0625.0156-.1172.0469-.1641.0312-.1719.039-.2656.0234-.2812 0-.0157.0156-.0079.0469.0234.0156-.1875.0156-.2969 0-.3281 0-.0469.0078-.0938.0234-.1406.0157-.1563.0391-.3126.0703-.4688 0-.0938-.0156-.1797-.0468-.2578-.0157-.0938-.0078-.1875.0234-.2813.0156-.0937.0312-.1797.0469-.2578.0156-.0937.0312-.1797.0469-.2578.0468-.2031.0703-.3359.0703-.3984 0-.0781 0-.1563 0-.2344.0312-.125.0468-.2187.0468-.2813.0469-.2187.0625-.3593.0469-.4218 0-.0625.0156-.1328.0469-.211 0-.1718.0156-.2812.0469-.3281.0312-.0469.0546-.1015.0703-.1641 0-.1562.0078-.2734.0234-.3515 0-.0469 0-.0938 0-.1406 0-.0625.0078-.125.0235-.1875l.0468-.2578c.0313-.1563.0469-.2735.0469-.3516.0313-.0625.0469-.1406.0469-.2344.0156-.0937.039-.1797.0703-.2578.0312-.1875.0391-.2891.0234-.3047 0-.0156 0-.0391 0-.0703l.0938-.3516c.0312-.1093.0547-.2265.0703-.3515.0156-.1407.0312-.2735.0469-.3985 0-.0312 0-.0703 0-.1172.0156-.0468.0234-.0937.0234-.1406.0156-.0625.0234-.1094.0234-.1406.0157-.0469.0157-.0938 0-.1406.0313-.125.0625-.2969.0938-.5156l.0234-.4219c.0157-.1407.0313-.2344.0469-.2813.0156-.0468.0156-.1094 0-.1875.0312-.0781.0469-.1484.0469-.2109 0-.0781.0156-.1719.0469-.2813.0624-.2031.1015-.3125.1171-.3281.0782-.1094.1329-.1875.1641-.2344.0312-.0625.0625-.1172.0938-.164.0781 0 .1406-.0235.1874-.0703.0626-.0625.125-.1094.1876-.1407.1874-.0312.289-.039.3046-.0234.0157.0156.0391.0234.0704.0234.1406-.0156.2187-.0156.2343 0 .0157 0 .0235-.0156.0235-.0468.1562.0312.2812.0546.375.0703.1093 0 .2031-.0078.2812-.0235h.2578l.4219.0235c.2031.0625.3281.0859.375.0703s.0937-.0078.1406.0234c.2188.0469.3594.0703.4219.0703.0625-.0156.1328-.0156.2109 0l.2579.0235h.3046c.1719 0 .2891-.0078.3516-.0235.0781-.0156.1562-.0078.2344.0235.0625-.0313.1484-.0391.2578-.0235h.3281c.1875-.0312.2891-.039.3047-.0234h.0703c.1563-.0313.2344-.0391.2344-.0234h.0469.164c.0313-.0157.0625-.0235.0938-.0235.1406.0156.2578.0547.3515.1172.1094.0625.2188.1094.3282.1406.0781.0938.1328.1719.164.2344.0625.0781.0938.1328.0938.1641.0156.0156.0312.039.0469.0703.0468.125.0781.2031.0937.2344.0313.0156.0469.039.0469.0703.0468.1093.0703.1797.0703.2109 0 .0313.0156.0625.0469.0938-.0157.0468-.0157.0937 0 .1406.0156.0469.0312.0859.0468.1172.0313.2031.0547.3281.0704.375.0156.0468.0234.0859.0234.1172.0312.0781.0469.1484.0469.2109 0 .0469.0156.1016.0468.1641.0469.1562.086.25.1172.2812.0157.1094.0235.2031.0235.2813.0312.1406.0781.2968.1406.4687l.0703.3047c.0469.0781.0703.1406.0703.1875s.0078.0859.0234.1172c.0782.125.1172.2109.1172.2578 0 .0312.0078.0625.0235.0938.0469.1718.0703.2734.0703.3046.0156.0157.0312.0391.0469.0704.0468.1874.0781.3046.0937.3515s.0313.0938.0469.1406c.0625.1875.1015.2891.1172.3047.0312.0469.0469.1094.0469.1875 0 .0625.0156.125.0468.1875l.1172.4219c.0313.0781.0469.1563.0469.2344.0156.0625.0391.1406.0703.2343.0469.1719.0703.2657.0703.2813.0156 0 .0235.0156.0235.0469.0624.25.1171.3984.164.4453h.2578c.0782-.1406.1172-.2344.1172-.2813.0469-.125.0781-.2109.0938-.2578.0156-.0468.0312-.1015.0468-.164.0157-.0625.0313-.1172.0469-.1641.0313-.125.0547-.2422.0703-.3516.0313-.1093.086-.2031.1641-.2812-.0156-.0625-.0078-.1094.0234-.1406.0313-.0313.0391-.086.0235-.1641.0625-.0781.0937-.1484.0937-.2109.0156-.0625.0313-.125.0469-.1875.0781-.1719.125-.2735.1406-.3047.0156-.0625.0313-.125.0469-.1875s.0391-.1328.0703-.211c.0469-.125.0703-.2109.0703-.2578.0313-.0468.0469-.0937.0469-.1406.0156-.0469.039-.0859.0703-.1172 0-.0469.0078-.0859.0234-.1172.0157-.0468.0313-.1015.0469-.164.0469-.1407.0781-.2266.0938-.2578.0312-.0469.0546-.086.0703-.1172.0469-.1719.0781-.2578.0937-.2578.0469-.1094.086-.1954.1172-.2579.0313-.0625.0469-.1562.0469-.2812.0937-.1563.1797-.3438.2578-.5625.0313-.0938.0547-.1563.0703-.1875.0156-.0313.0313-.0781.0469-.1406.0625-.1875.1015-.3047.1172-.3516.0312-.0469.0625-.0937.0937-.1406.0469-.1407.0703-.2188.0703-.2344.0157-.0313.0391-.0625.0703-.0937.0469-.125.0704-.1876.0704-.1876.0156-.0156.0234-.039.0234-.0703.0625-.0625.0938-.1171.0938-.164s.0078-.086.0234-.1172c.1094-.1563.164-.2422.164-.2578.0157-.0313.0391-.0625.0704-.0938.0625-.1406.1015-.2187.1172-.2343.2031-.1094.3281-.1485.375-.1172.0937-.0625.1796-.0782.2578-.0469.0937.0156.2031 0 .3281-.0469.0625.0156.1641.0234.3047.0234h.5156l.2578.0235c.1094.0156.1953.0078.2578-.0235.2813-.0156.4844-.0234.6094-.0234.125-.0156.2422-.0078.3516.0234.1718 0 .2578.0079.2578.0235h.0468c.0782 0 .1719.0078.2813.0234h.2813c.0781 0 .1406.0078.1874.0235.0469.0156.086.0234.1172.0234h.2813c.1719-.0156.2656-.0156.2812 0h.0703c.1094.0469.1876.0703.2344.0703.0469-.0156.0938-.0078.1406.0235.1563-.0313.2422-.0157.2579.0468.0312.0469.0625.0938.0937.1406.0313.0313.0625.0704.0938.1172.0468.0313.0859.0625.1172.0938.0468.1562.0703.2578.0703.3047 0 .0312.0078.0625.0234.0937.0313.0938.0469.1797.0469.2578.0468.1719.0781.2735.0937.3047.0157.0313.0235.0625.0235.0938.0312.0781.0468.1406.0468.1875 0 .0468.0157.1094.0469.1875.0156.0937.0235.164.0235.2109.0156.0469.0312.086.0468.1172.0469.2031.0625.3359.0469.3984 0 .0469.0078.0938.0234.1407.0157.0781.0235.164.0235.2578.0156.0937.039.1797.0703.2578.0156.0781.0156.1484 0 .2109 0 .0469.0234.1016.0703.1641 0 .125.0078.25.0234.375.0313.1094.0625.2265.0938.3515.0156.1407.039.2735.0703.3985.0625.1875.0937.2969.0937.3281 0 .0313.0079.0625.0235.0938.0156.0625.0234.125.0234.1875.0157.0625.0391.125.0703.1875.0157.0468.0235.0937.0235.1406s.0078.0937.0234.1406c.0313.0938.0469.1719.0469.2344s.0078.125.0234.1875c.0313.1562.0391.25.0235.2812 0 .0157.0078.0391.0234.0703.0469.1407.0703.2344.0703.2813.0625.2656.1172.5547.1641.8672.0156.0469.0234.0937.0234.1406s.0078.0938.0235.1406c.0468.1719.0703.2813.0703.3282 0 .0468.0078.1015.0234.164v.1407c.0156.0468.0313.1015.0469.164.0156.0938.0312.1953.0468.3047.0157.1094.0313.2187.0469.3281.0313.1719.0547.3203.0703.4453.0313.1094.0625.2188.0938.3282.0469.1875.0703.2812.0703.2812.0156.1719.0313.2735.0469.3047.0156.0156.0312.0391.0468.0703.0313.2031.0547.3281.0704.375.0156.0469.0312.0938.0468.1406.0157.0625.0235.1641.0235.3047.0469.1094.0625.2032.0469.2813 0 .0625.0156.1328.0468.2109.0313.1406.0391.2422.0235.3047 0 .0469.0156.0937.0468.1406.0313.0781.0469.1485.0469.211.0156.0468.0313.0937.0469.1406.0469.1406.0625.2265.0469.2578 0 .0156.0078.0391.0234.0703.0156.125.0234.2031.0234.2344.0157.0156.0235.039.0235.0703.0312.1094.039.1797.0234.2109 0 .0313.0078.0625.0235.0938.0156.0781.0312.1562.0468.2344.0313.0625.0547.1328.0703.2109.0313.0781.0469.1641.0469.2578 0 .0781.0078.1563.0234.2344.0157.0469.0313.1015.0469.1641.0157.0468.0313.0937.0469.1406.0469.1406.0859.2422.1172.3047.0312.0468.0547.1093.0703.1875.0156.2343.0313.375.0469.4218.0156.0782.0312.1407.0468.1875.0157.0313.0235.086.0235.1641zm12.4922-12.2578c.0625.0156.1719.0547.3281.1172.1406.0468.2422.125.3047.2344.0781.0312.1484.0703.2109.1171.0625.0313.125.0782.1875.1407.1563.1093.2266.1718.211.1875v.0468c.1406.1094.2109.1719.2109.1875.0312.0313.0703.0704.1172.1172.0469.0469.0859.086.1172.1172.0781.1094.125.1797.1406.211.0312.0312.0625.0624.0938.0937.0781.1406.125.2266.1406.2578.0312.0156.0547.0391.0703.0703.1562.1875.25.3282.2812.4219.0469.0781.0938.1641.1407.2578.0625.1406.1015.2188.1172.2344.0156 0 .0312.0078.0468.0234.0469.1407.086.2344.1172.2813.0469.0468.086.1094.1172.1875.0781.125.1484.2656.2109.4219.0782.1562.1485.3281.211.5156.1093.2968.1953.5859.2578.8672 0 .1093.0078.1953.0234.2578.0781.2031.1172.3437.1172.4218 0 .0782.0078.1641.0235.2579.0312.0781.0468.1562.0468.2343 0 .0782.0078.1563.0235.2344.0312.1094.0625.2656.0937.4688 0 .125-.0078.25-.0234.375v.3515c-.0156.125-.0235.2344-.0235.3281.0157.0938.0079.1954-.0234.3047-.0313.1407-.0469.2422-.0469.3047s-.0078.1328-.0234.211c-.0313.125-.0469.2109-.0469.2578-.0312.0781-.0625.1484-.0937.2109-.0157.0469-.0391.1094-.0704.1875-.0312.125-.0546.211-.0703.2578-.0312.125-.0781.2266-.1406.3047-.0469.0781-.1094.1641-.1875.2578-.0469.0938-.1016.1719-.164.2344-.0469.0625-.0938.125-.1407.1875-.1093.1719-.1953.2891-.2578.3516-.0469.0625-.0937.1328-.1406.2109-.125.1563-.1953.2422-.2109.2578-.0157 0-.0313.0156-.0469.0469-.0625.0781-.1328.164-.211.2578-.0781.0781-.164.1484-.2578.2109-.0781.1563-.1484.25-.2109.2813-.0469.0312-.1094.0703-.1875.1172-.0625.0468-.1172.1015-.1641.164-.25.0938-.3984.1563-.4453.1875l-.2344.1172c-.2343.0938-.3828.1641-.4453.211-.0625.0312-.1328.0703-.2109.1171-.0625.0313-.1719.0782-.3281.1407-.0938.0469-.1641.0703-.211.0703-.0312 0-.0625.0078-.0937.0234-.125.0469-.2031.0703-.2344.0703-.0156 0-.0391.0079-.0703.0235-.1719.0468-.2891.0703-.3516.0703s-.125.0078-.1875.0234c-.2031.0625-.3593.0938-.4687.0938-.1875-.0157-.3125-.0157-.375 0-.0469.0156-.1094.0312-.1875.0469-.2344.0468-.4688.0468-.7031 0-.1719.0312-.3126.0468-.4219.0468-.0469 0-.0938 0-.1407 0-.0468.0156-.0859.0235-.1171.0235-.0625 0-.1172-.0157-.1641-.0469-.0312-.0156-.0781-.0234-.1406-.0234-.0625-.0157-.1797-.0235-.3516-.0235-.0937-.0156-.1875-.0312-.2812-.0469-.0938-.0156-.1875-.0312-.2813-.0468-.0469-.0157-.1015-.0235-.1641-.0235-.0468 0-.0937-.0078-.1406-.0234-.1094-.0313-.1953-.0469-.2578-.0469-.2031-.0781-.2969-.1172-.2812-.1172-.2188-.0625-.336-.1015-.3516-.1172-.1875-.0156-.3125-.039-.375-.0703-.1719-.0625-.2734-.0937-.3047-.0937l-.2578-.1172c-.1875-.0938-.3125-.1406-.375-.1406-.1563-.0469-.2578-.0938-.3047-.1407-.1719-.0625-.2734-.1015-.3047-.1171-.0312-.0157-.0625-.0313-.0937-.0469-.1563-.1563-.2656-.2422-.3282-.2578-.0624-.0313-.1093-.0782-.1406-.1407-.1718-.0781-.2656-.125-.2812-.1406 0-.0156-.0078-.0312-.0235-.0469-.0937-.0625-.1718-.1484-.2343-.2578-.125-.0937-.2188-.1953-.2813-.3047-.0937-.0781-.1562-.1484-.1875-.2109-.1094-.1563-.164-.2422-.164-.2578s-.0079-.0313-.0235-.0469c-.1094-.1875-.1797-.289-.2109-.3047-.0156-.0312-.0313-.0703-.0469-.1172-.0469-.0468-.1016-.0937-.1641-.1406-.0468-.0625-.0703-.1406-.0703-.2344-.125-.0937-.2031-.1797-.2343-.2578-.0469-.1093-.0704-.1797-.0704-.2109.0157-.0313.0235-.0625.0235-.0938-.1094-.1875-.1875-.3281-.2344-.4218-.0625-.2032-.1016-.3282-.1172-.375-.0937-.1875-.1562-.336-.1875-.4454-.0312-.1093-.0625-.2343-.0937-.375-.0157-.125-.0235-.1953-.0235-.2109.0156-.0156.0156-.0391 0-.0703 0-.0469-.0078-.0859-.0234-.1172 0-.0469-.0078-.0937-.0234-.1406.0156-.2344.0078-.3672-.0235-.3984-.0156-.1563-.0312-.2344-.0469-.2344-.0156-.0156-.0234-.0391-.0234-.0703 0-.125.0078-.2188.0234-.2813.0313-.0625.0469-.125.0469-.1875 0-.125 0-.2187 0-.2812.0469-.125.0703-.2032.0703-.2344.0156-.0469.0156-.1016 0-.1641.0625-.1406.0938-.2422.0938-.3047s.0078-.1171.0234-.164c.0313-.0938.0547-.1563.0703-.1875.0157-.0313.0235-.0625.0235-.0938.0156-.0781.0234-.1328.0234-.164 0-.0313.0078-.0782.0234-.1407.0469-.1093.0938-.2031.1407-.2812.0468-.125.0703-.2109.0703-.2578s.0078-.0938.0234-.1407c.0313-.1406.0625-.2265.0938-.2578.0625-.1718.1015-.2578.1172-.2578.0156 0 .0234-.0078.0234-.0234.0781-.125.1328-.211.164-.2578.0313-.0625.0626-.1172.0938-.1641.0312-.0781.0625-.1484.0938-.2109.0312-.0625.0624-.1328.0937-.211.0781-.0937.1172-.1484.1172-.164.0156-.0313.0312-.0625.0469-.0938.0781-.125.125-.1875.1406-.1875l.0703-.0703c.0625-.0937.0937-.1484.0937-.164.0157-.0157.0313-.0391.0469-.0704.2344-.2812.3828-.4922.4453-.6328.125-.0625.2032-.125.2344-.1875.0625-.0156.1016-.0469.1172-.0937.0312-.0625.0625-.1094.0938-.1406l.2812-.0938c.1562-.1094.2734-.1797.3516-.2109.1093-.0625.1796-.086.2109-.0703.0469 0 .0859-.0079.1172-.0235.125-.1094.1875-.1562.1875-.1406s.0156.0078.0469-.0235c.1562-.0624.2421-.0937.2578-.0937.0312 0 .0625-.0078.0937-.0234.125-.0782.2032-.1172.2344-.1172.0312-.0157.0703-.0313.1172-.0469s.0859-.0391.1172-.0703c.1562-.0781.2578-.1172.3047-.1172.0468 0 .0937-.0078.1406-.0234.1562-.0625.25-.0938.2812-.0938.0469-.0156.086-.0234.1172-.0234.3281-.0781.5547-.1407.6797-.1875.0938.0156.1797.0156.2578 0 .0938-.0313.1797-.0547.2578-.0703.1875 0 .3047.0078.3516.0234s.0938.0234.1406.0234c.0469 0 .0938-.0078.1406-.0234.0626-.0156.125-.0234.1876-.0234h.375c.0468-.0157.0937-.0235.1406-.0235.0625-.0156.1172-.0156.164 0 .0469.0156.1016.0235.1641.0235.0469-.0157.0937-.0313.1406-.0469.0625-.0156.1328-.0156.211 0 .0937.0156.1797.0312.2578.0469.0781.0156.125.0234.1406.0234.1875.0156.2969.0313.3281.0469.0782.0156.1641.0312.2578.0468.1094.0157.2266.0313.3516.0469.1719.0157.2578.0235.2578.0235.0156-.0157.0391-.0157.0703 0 .1407.0625.2266.1015.2578.1172h.1172l.1875.0468c.0782 0 .1406.0235.1875.0703.2188.0938.3438.1563.375.1875zm-3.3281 3.5859c-.1563-.0312-.2344-.039-.2344-.0234s-.0078.0234-.0235.0234c-.1562.0157-.2421.0313-.2578.0469-.0156.0156-.039.0234-.0703.0234-.0625.0313-.1328.0547-.2109.0704-.0625 0-.1094.0156-.1407.0468-.1562.0938-.2421.1406-.2578.1406-.0156 0-.039.0079-.0703.0235-.1406.0469-.2109.0781-.2109.0937 0 0-.0156.0078-.0469.0235-.0937.0625-.1797.1328-.2578.2109-.1094.0781-.1953.1484-.2578.211-.0469.0468-.0859.0859-.1172.1171-.125.1407-.1875.2188-.1875.2344-.0938.125-.1719.2188-.2344.2813-.1094.1562-.164.2578-.164.3046 0 .0469-.0157.0938-.0469.1407-.125.1406-.1953.2578-.2109.3515-.0469.0782-.0938.1485-.1407.211-.0312.0468-.0469.1015-.0469.164.0157.2032.0157.3282 0 .375v.1172c0 .2032.0235.3594.0704.4688.0312.125.0625.25.0937.375.0469.125.1016.25.1641.375.0937.1718.1328.2656.1172.2812 0 .0156.0078.0313.0234.0469.0781.125.125.1875.1406.1875s.0313.0078.0469.0234c.125.125.1953.1875.2109.1875.0157 0 .0391.0079.0704.0235.0781.0781.1562.164.2343.2578.0938.0781.2031.125.3281.1406l.3047.1641c.0469.0312.0938.0469.1407.0469.0468 0 .0937.0078.1406.0234.0937.0469.1562.0703.1875.0703.0312-.0156.0625-.0156.0937 0 .1407.0469.2344.0703.2813.0703.0469-.0156.0859-.0234.1172-.0234.1562.0468.25.0703.2812.0703.0469-.0156.0938-.0235.1407-.0235h.2343c.1094-.0156.2031-.0234.2813-.0234l.4218-.0703c.1407-.0469.2032-.0781.1876-.0937 0-.0157.0156-.0235.0468-.0235.1094-.0156.1953-.0547.2578-.1172.1407-.1093.2578-.164.3516-.164.0781-.1563.1562-.2579.2344-.3047.0937-.1406.1328-.211.1172-.211 0-.0156.0078-.0312.0234-.0468.0469-.1094.0859-.1641.1172-.1641.0312-.0156.0547-.0391.0703-.0703.0469-.0938.0703-.1563.0703-.1875.0156-.0313.0313-.0547.0469-.0703l.1641-.3282c.0937-.1406.1406-.2656.1406-.375.0625-.1874.0859-.3203.0703-.3984 0-.0781 0-.1562 0-.2344-.0156-.0781-.0313-.1484-.0469-.2109s-.0312-.1328-.0469-.2109c-.0156-.0625-.0234-.1094-.0234-.1407.0156-.0468.0156-.0859 0-.1171-.0313-.0626-.0625-.1094-.0937-.1407-.0157-.0469-.0235-.0937-.0235-.1406-.0937-.125-.1406-.1953-.1406-.2109 0-.0157-.0078-.0313-.0235-.0469-.0781-.1094-.1171-.1641-.1171-.1641 0-.0156-.0079-.039-.0235-.0703-.0468-.0625-.0937-.1172-.1406-.1641-.0312-.0624-.0703-.125-.1172-.1874-.1094-.1094-.1719-.1719-.1875-.1876 0-.0156-.0156-.0312-.0469-.0468-.1562-.125-.2656-.2032-.3281-.2344-.0469-.0469-.0859-.1016-.1172-.1641-.1719-.0781-.3125-.1406-.4219-.1875-.1562-.0781-.2343-.125-.2343-.1406.0156-.0312.0156-.0469 0-.0469l-.3047-.0937c-.125-.0625-.2031-.1094-.2344-.1406zm13.3828-8.5781c.0781.0156.1328.0469.164.0938.0469.0468.0938.0937.1406.1406.0782.2812.1172.4531.1172.5156v.4219c.0157.0469.0235.1172.0235.2109 0 .0781-.0078.1328-.0235.1641v.1172c-.0156.0468-.0234.0937-.0234.1406.0156.0469.0234.1015.0234.1641.0157.1406.0157.2734 0 .3984-.0468.1562-.0781.2422-.0937.2578l-.1641.2344c-.0625.0625-.1015.1094-.1172.1406-.0156.0312-.039.0547-.0703.0703-.2031.0781-.3515.1328-.4453.1641-.0781.0156-.1562.0312-.2344.0468-.0468 0-.1328.0157-.2578.0469-.0312 0-.0781.0078-.1406.0235-.0469 0-.0859 0-.1172 0-.1875.0156-.2812.0234-.2812.0234-.125-.0156-.1954-.0234-.211-.0234-.0156-.0157-.0312-.0235-.0468-.0235-.1719.0313-.2891.0469-.3516.0469-.0625-.0156-.1328-.0312-.211-.0469-.1874 0-.3046 0-.3515 0-.0313-.0156-.0781-.0156-.1406 0-.2188-.0156-.3516-.0156-.3985 0h-.4687c-.1407-.1406-.2188-.2109-.2344-.2109 0 0-.0078-.0156-.0234-.0469l-.211-.2109c0-.1719-.0234-.3516-.0703-.5391l-.0469-.4687v-.3047c0-.2188.0157-.375.0469-.4688 0-.1875.0156-.2969.0469-.3281.0312-.0469.0469-.0938.0469-.1406.0937-.1406.1484-.2266.164-.2578.0156-.0313.0391-.0625.0703-.0938l.4219-.1875c.1875-.0625.3047-.1015.3516-.1172.0468-.0156.0859-.0312.1172-.0469h.3515l.3281-.0703c.0626-.0156.125-.0312.1876-.0468.0781-.0157.1484-.0235.2109-.0235.0469 0 .0937.0078.1406.0235h.1406.1407c.0468-.0157.1015-.0235.164-.0235.125 0 .2344.0078.3282.0235.1093.0156.2187.0078.3281-.0235.0469-.0156.1328-.0078.2578.0235.125.0156.2265.039.3047.0703zm.3515 17.9062c.0157.0782 0 .1407-.0469.1876-.0468.0312-.0624.0703-.0468.1171-.2188.0469-.3282.0703-.3282.0703-.125.0626-.2656.1094-.4218.1407-.125.0312-.2578.039-.3985.0234-.125 0-.2734-.0078-.4453-.0234-.1718.0156-.2968.0234-.375.0234-.0625 0-.125 0-.1875 0h-.3515c-.1563.0156-.2422.0235-.2578.0235-.1407 0-.2579.0078-.3516.0234-.0781.0312-.1328.0469-.1641.0469h-.3281l-.3281-.0703c-.0625 0-.125 0-.1875 0-.0625.0156-.1328.0156-.211 0-.0781-.0313-.1406-.0626-.1875-.0938-.0468-.0156-.1015-.0234-.164-.0234-.0781-.1719-.1172-.2657-.1172-.2813 0-.0312-.0078-.0547-.0235-.0703-.0468-.0781-.0703-.1484-.0703-.2109.0157-.0782.0235-.1485.0235-.211 0-.0469-.0078-.0937-.0235-.1406 0-.0469 0-.0859 0-.1172 0-.0469.0079-.0937.0235-.1406s.0234-.1016.0234-.1641c.0156-.0625.0234-.1328.0234-.2109.0157-.0781.0313-.1563.0469-.2344.0157-.125.0235-.2187.0235-.2812 0-.0782 0-.1329 0-.1641.0156-.0469.0234-.0938.0234-.1406 0-.0625.0078-.125.0234-.1875.0157-.0938.0157-.1641 0-.211-.0156-.0625-.0234-.1171-.0234-.164 0-.0313 0-.0781 0-.1407.0156-.0624.0234-.1328.0234-.2109 0-.1094-.0078-.2109-.0234-.3047 0-.0937 0-.1875 0-.2812 0-.0782.0156-.1953.0469-.3516v-.3047c.0156-.1406.0234-.3125.0234-.5156s-.0078-.3906-.0234-.5625v-.2578c.0156-.1875.0234-.3281.0234-.4219.0156-.1094.0156-.2187 0-.3281 0-.0469-.0078-.086-.0234-.1172 0-.0469 0-.0938 0-.1406-.0157-.0782-.0235-.1485-.0235-.211s0-.1328 0-.2109c0-.0937-.0078-.1484-.0234-.1641 0-.0312 0-.0625 0-.0937v-.4219c-.0156-.1719-.0156-.2656 0-.2812.0156-.0313.0234-.0625.0234-.0938 0-.1875 0-.3047 0-.3516.0157-.0624.0235-.125.0235-.1874 0-.1563 0-.2422 0-.2579 0-.2656-.0078-.4297-.0235-.4921-.0468-.1563-.0703-.25-.0703-.2813v-.3516c0-.1406-.0078-.2265-.0234-.2578 0-.0469.0078-.1015.0234-.164 0-.1094-.0078-.2188-.0234-.3282 0-.1093 0-.2265 0-.3515-.0156-.1094-.0156-.1875 0-.2344s.0234-.0938.0234-.1406v-.6563c-.0312-.1875-.0312-.3906 0-.6093.0313-.1563.0625-.25.0938-.2813.0469-.1563.0781-.2422.0937-.2578.1406-.1875.2813-.3125.4219-.375.0781-.0313.1406-.0625.1875-.0938.0625-.0468.1094-.0703.1406-.0703.1406-.0312.2344-.0468.2813-.0468.1719-.0157.3437-.0157.5156 0 .1719.0156.3437.0078.5156-.0235.1407-.0156.2344-.0078.2813.0235.0468.0156.1015.0078.164-.0235.2032-.0156.3282-.0156.375 0h.1407c.125-.0312.2109-.0391.2578-.0234h.4219c.0468 0 .1015.0078.164.0234.0625 0 .1094.0156.1406.0469.0313-.0313.1172-.0469.2578-.0469.0469.0313.0782.0625.0938.0938.0312.0312.0781.0468.1406.0468.0625.1407.1172.2344.1641.2813.0469.1406.1015.289.1641.4453.0312.0781.0468.1719.0468.2813 0 .1093.0078.2265.0235.3515v.1875c.0156.0625.0234.1172.0234.1641 0 .0781-.0078.1562-.0234.2343 0 .0782-.0079.1563-.0235.2344-.0156.2344-.0234.4297-.0234.586 0 .1406-.0078.2812-.0234.4218-.0157.0782-.0313.1563-.0469.2344v.2344c0 .0625.0078.125.0234.1875.0156.0469.0235.1015.0235.1641 0 .125-.0079.2578-.0235.3984-.0156.125-.0312.2578-.0469.3984-.0156.125-.0312.25-.0468.375-.0157.1094-.0235.2344-.0235.375v.1172c.0157.0469.0235.0938.0235.1406 0 .0782-.0078.1485-.0235.211v.1875.2343c.0157.0782.0157.1563 0 .2344 0 .0782-.0078.1563-.0234.2344-.0156.0625-.0235.1328-.0235.2109-.0156.125-.0156.25 0 .375.0157.125.0235.25.0235.375 0 .0782-.0078.1563-.0235.2344-.0156.0781-.0156.1563 0 .2344.0469.2656.0626.4453.0469.5391-.0156.0937-.0156.1953 0 .3046.0157.1719.0157.2891 0 .3516v.1172.6094c0 .1093-.0078.1953-.0234.2578.0625.1094.0781.2422.0469.3984-.0313.1406-.0157.2578.0468.3516-.0312.1094-.0468.2265-.0468.3515.0156.125.039.2344.0703.3282l.0234.6328c.0156.0937.0235.1953.0235.3047.0156.0937.0234.1796.0234.2578l-.0234.2578zm8.3203-17.6484c.0313.0313.0469.0703.0469.1172 0 .0312.0078.0781.0235.1406.0312.1875.0312.3438 0 .4688v.2812c-.0157.2344-.0313.4141-.0469.5391-.0157.125-.0157.2344 0 .3281.0156.0781.0156.1484 0 .211-.0157.0468-.0235.0937-.0235.1406v.1406c.0157.0469.0235.0859.0235.1172 0 .0781-.0078.1562-.0235.2344-.0156.0625-.0234.1328-.0234.2109-.0312.3437-.0312.6797 0 1.0078-.0781.0938-.1016.1875-.0703.2813.0312.0312.0703.039.1172.0234.0625-.0156.1093-.0234.1406-.0234.0781 0 .1328-.0078.1641-.0235.0312-.0156.0703-.0234.1172-.0234.1718-.0313.3281-.0313.4687 0 .1563.0156.2969 0 .4219-.0469.0781.0313.1562.0547.2344.0703.0781 0 .1406.0391.1874.1172.1094.1719.1641.3047.1641.3985.0938.1562.1328.2421.1172.2578-.0156.0156-.0234.039-.0234.0703.0312.1093.039.1875.0234.2343v.1641c-.0156.125-.0313.2031-.0469.2344v.0703c-.0156.0781-.0234.1641-.0234.2578.0156.0781.0078.1484-.0234.211.0312.125.0468.2265.0468.3046-.0468.3125-.0625.5625-.0468.75.0312.1875.0312.3594 0 .5157-.0157.0625-.0313.125-.0469.1875 0 .0468.0078.1093.0234.1875-.0625.1093-.0937.1797-.0937.2109.0156.0156.0078.0312-.0235.0469 0 .0625-.0234.1093-.0703.1406-.0312.0313-.039.0781-.0234.1406-.0625.0157-.1094.0391-.1406.0703-.0313.0157-.0782.0078-.1407-.0234-.1562.0469-.3437.0547-.5625.0234h-.5859c-.2188-.0625-.3594-.0859-.4219-.0703-.0625.0157-.1328.0235-.2109.0235-.0313.0625-.0469.125-.0469.1875.0156.0625.0234.1328.0234.2109v.4219c0 .1406-.0078.2734-.0234.3984 0 .1094-.0078.2422-.0234.3985v.375c.0156.0468.0234.0937.0234.1406.0156.1562.0078.3125-.0234.4687-.0157.1407.0078.2891.0703.4453.0156.1875.0156.3047 0 .3516-.0157.0312-.0235.0625-.0235.0938.0157.2031.0313.3359.0469.3984.0156.0469.0313.0937.0469.1406v.2344c.0156.0156.0234.039.0234.0703.0156.0469.0313.0937.0469.1406s.0234.0938.0234.1407c.1094.0468.1719.0859.1875.1171.0313.0313.0547.0625.0704.0938.2187.0625.3593.1328.4218.2109.0782 0 .1406.0078.1875.0235.0469.0156.1172.039.211.0703.125.0156.2734.0156.4453 0 .0781-.0156.1797-.0235.3047-.0235l.3047-.0468c.125-.0157.1953-.0313.2109-.0469s.0391-.0234.0703-.0234c.1719-.0157.2812-.0391.3281-.0704.0625-.0312.125-.0546.1875-.0703h.1875c.0157-.0156.0391-.0234.0703-.0234.1719.0937.2657.1406.2813.1406.0312 0 .0469.0156.0469.0469.0312.0781.039.1328.0234.164-.0156.0313-.0391.0704-.0703.1172v.3047c0 .0625-.0156.1328-.0469.211-.0312.0937-.0703.1875-.1172.2812-.0156.0313-.0312.0703-.0468.1172 0 .0469-.0079.0937-.0235.1406-.0781.1719-.125.3047-.1406.3985-.0156.0781-.0391.164-.0703.2578-.0313.0781-.0547.1484-.0703.2109-.0157.0625-.0469.125-.0938.1875-.0625.2188-.1015.375-.1172.4688-.0469.1406-.0703.2187-.0703.2343.0156 0 .0156.0079 0 .0235-.0469.1718-.0781.289-.0937.3515 0 .0625-.0157.1329-.0469.211l-.0938.3281c-.0937.1719-.1484.2656-.164.2812-.1406.125-.2188.1876-.2344.1876-.0156.0156-.0391.039-.0703.0703-.1094.0156-.1875.0312-.2344.0468-.0469.0157-.0859.0391-.1172.0703-.1406 0-.2422.0313-.3047.0938-.0937-.0156-.1875-.0234-.2812-.0234-.0938.0156-.2188.0234-.375.0234-.125 0-.1953 0-.211 0-.0156.0156-.0312.0234-.0468.0234-.1094-.0312-.2188-.0468-.3282-.0468-.125-.0157-.2109-.0235-.2578-.0235-.1718 0-.289-.0156-.3515-.0469-.0781-.0156-.1875-.0312-.3281-.0468-.125 0-.2266-.0078-.3047-.0235-.0938-.0156-.1953-.0312-.3047-.0468-.0938 0-.1953-.0079-.3047-.0235-.1563-.0781-.2422-.125-.2578-.1406 0 0-.0078 0-.0235 0-.125-.0625-.2187-.1094-.2812-.1406-.1875-.0313-.2891-.0547-.3047-.0703 0-.0157-.0156-.0313-.0469-.0469-.25-.1094-.3906-.2188-.4218-.3281-.1563-.0625-.2344-.1016-.2344-.1172 0-.0157-.0156-.0313-.0469-.0469-.125-.1094-.1875-.1797-.1875-.2109-.1094-.125-.1797-.1953-.2109-.211-.0313-.0312-.0547-.0781-.0703-.1406-.125-.1719-.1954-.2656-.211-.2813 0-.0156-.0156-.039-.0469-.0703-.0312-.0312-.0547-.0703-.0703-.1171-.0156-.0626-.039-.1172-.0703-.1641-.0937-.2344-.1562-.3985-.1875-.4922-.0156-.1094-.039-.2031-.0703-.2813-.0156-.0781-.0313-.1406-.0469-.1874 0-.0626-.0078-.1329-.0234-.211-.0156-.0625-.0313-.1328-.0469-.2109 0-.0781-.0156-.1641-.0469-.2578l-.0234-.2579c-.0625-.1406-.0938-.2265-.0938-.2578.0157-.0312.0235-.0625.0235-.0937-.0313-.1094-.0313-.2266 0-.3516-.0469-.0781-.0625-.1562-.0469-.2343.0313-.0938.0547-.1797.0703-.2579 0-.0781-.0078-.1406-.0234-.1875 0-.0625 0-.125 0-.1875 0-.0781.0078-.1484.0234-.2109.0157-.0625.0235-.1328.0235-.2109.0156-.0782.0156-.1485 0-.211 0-.0781 0-.1562 0-.2343v-.7266c.0156-.125.0234-.211.0234-.2578v-.3985c0-.0625 0-.1171 0-.164.0156-.0625.0234-.125.0234-.1875-.0156-.1406-.0234-.2344-.0234-.2813.0156-.0625.0234-.125.0234-.1875v-.3281c-.0312-.2187-.0468-.3672-.0468-.4453 0-.0938-.0078-.1875-.0235-.2813-.125.0313-.2656.0625-.4219.0938-.1562.0312-.3203.0547-.4921.0703-.0782 0-.1485 0-.211 0-.0469-.0156-.0859-.0234-.1172-.0234-.0937 0-.1718-.0078-.2343-.0235-.0469-.0156-.0938-.0312-.1407-.0469-.1406-.0937-.2421-.1562-.3047-.1874-.0312-.0782-.0703-.1329-.1171-.1641-.0469-.0469-.086-.1094-.1172-.1875-.0313-.0781-.0391-.1563-.0235-.2344.0313-.0937.0469-.1953.0469-.3047 0-.0781 0-.1484 0-.2109s-.0078-.1328-.0234-.211c.0156-.0624.0234-.125.0234-.1874 0-.0782-.0078-.1329-.0234-.1641-.0469-.1563-.0625-.2422-.0469-.2578 0-.0157 0-.0469 0-.0938-.0156-.125-.0234-.2109-.0234-.2578s0-.0859 0-.1172c-.0157-.125-.0235-.2422-.0235-.3515-.0156-.125-.0234-.2422-.0234-.3516-.0156-.1562-.0156-.2422 0-.2578s.0234-.0391.0234-.0703c-.0156-.1563-.0156-.25 0-.2813 0-.0312-.0078-.0859-.0234-.164.0312-.1407.0547-.211.0703-.211s.0312-.0156.0469-.0468l.3047-.3282c.0781.0313.1562.0313.2343 0 .0938-.0312.1875-.0468.2813-.0468l.3047.0234c.1719 0 .3203.0312.4453.0937.1875 0 .2969.0079.3281.0235.0313.0156.0625.0234.0938.0234.0312.0156.0703.0156.1171 0 .0469-.0156.1016-.0156.1641 0 .0156-.0781.0078-.164-.0234-.2578-.0157-.125-.0235-.2656-.0235-.4219.0157-.1719.0157-.3125 0-.4219v-.375c0-.1718 0-.2656 0-.2812.0157-.0312.0157-.0625 0-.0938-.0312-.1562-.0468-.2421-.0468-.2578.0156-.1093.0078-.2109-.0235-.3046.0157-.0626.0078-.1172-.0234-.1641-.0156-.0469-.0313-.1016-.0469-.1641s-.0234-.1172-.0234-.164c.0156-.0625.0156-.125 0-.1875s-.0313-.1094-.0469-.1407c-.0156-.0468-.0234-.0937-.0234-.1406 0-.0312-.0079-.0859-.0235-.164-.0156-.0782-.0234-.125-.0234-.1407.0156-.125.0156-.2031 0-.2343 0-.0313.0078-.0626.0234-.0938.0156-.0625.0547-.1172.1172-.1641.0625-.0468.1094-.1015.1406-.164.1094.0312.2422.0469.3985.0469.1562-.0157.2812-.0313.375-.0469.0312-.0157.0703-.0157.1172 0h.1406c.0781.0156.1484.0234.2109.0234.0782-.0156.1485-.0234.211-.0234.0468.0156.0937.0312.1406.0469.0469.0156.1016.0312.164.0468.1563-.0156.2657-.0234.3282-.0234.1094.0156.1718.0234.1875.0234.0156-.0156.039-.0156.0703 0h.1875c.0312-.0156.0625-.0156.0937 0 .1407.0156.2422.0235.3047.0235.0781 0 .1407-.0079.1875-.0235h.2344c.1094 0 .1797-.0156.2109-.0468.125.0156.1953.0312.211.0468.0312 0 .0625-.0156.0937-.0468.0313.0312.0703.0468.1172.0468.0469-.0156.1016-.0234.1641-.0234.0312 0 .0703.0078.1172.0234h.1406c.0781.0156.1406.0235.1875.0235.0625-.0157.1094.0078.1406.0703zm8.836-.2578c.0781.0156.1328.0469.164.0938.0469.0468.0938.0937.1407.1406.0781.2812.1171.4531.1171.5156v.4219c.0157.0469.0235.1172.0235.2109 0 .0781-.0078.1328-.0235.1641v.1172c-.0156.0468-.0234.0937-.0234.1406.0156.0469.0234.1015.0234.1641.0157.1406.0157.2734 0 .3984-.0468.1562-.0781.2422-.0937.2578l-.1641.2344c-.0625.0625-.1015.1094-.1172.1406-.0156.0312-.039.0547-.0703.0703-.2031.0781-.3515.1328-.4453.1641-.0781.0156-.1562.0312-.2344.0468-.0468 0-.1328.0157-.2578.0469-.0312 0-.0781.0078-.1406.0235-.0469 0-.0859 0-.1172 0-.1875.0156-.2812.0234-.2812.0234-.125-.0156-.1953-.0234-.211-.0234-.0156-.0157-.0312-.0235-.0468-.0235-.1719.0313-.2891.0469-.3516.0469-.0625-.0156-.1328-.0312-.2109-.0469-.1875 0-.3047 0-.3516 0-.0313-.0156-.0781-.0156-.1406 0-.2188-.0156-.3516-.0156-.3985 0h-.4687c-.1406-.1406-.2188-.2109-.2344-.2109 0 0-.0078-.0156-.0234-.0469l-.211-.2109c0-.1719-.0234-.3516-.0703-.5391l-.0468-.4687v-.3047c0-.2188.0156-.375.0468-.4688 0-.1875.0156-.2969.0469-.3281.0313-.0469.0469-.0938.0469-.1406.0937-.1406.1484-.2266.164-.2578.0157-.0313.0391-.0625.0704-.0938l.4218-.1875c.1875-.0625.3047-.1015.3516-.1172.0469-.0156.0859-.0312.1172-.0469h.3515l.3282-.0703.1875-.0468c.0781-.0157.1484-.0235.2109-.0235.0469 0 .0937.0078.1406.0235h.1407.1406c.0468-.0157.1015-.0235.164-.0235.125 0 .2344.0078.3282.0235.1093.0156.2187.0078.3281-.0235.0469-.0156.1328-.0078.2578.0235.125.0156.2266.039.3047.0703zm.3515 17.9062c.0157.0782 0 .1407-.0468.1876-.0469.0312-.0625.0703-.0469.1171-.2188.0469-.3281.0703-.3281.0703-.125.0626-.2657.1094-.4219.1407-.125.0312-.2578.039-.3984.0234-.125 0-.2735-.0078-.4454-.0234-.1718.0156-.2968.0234-.375.0234-.0625 0-.125 0-.1875 0h-.3515c-.1563.0156-.2422.0235-.2578.0235-.1407 0-.2578.0078-.3516.0234-.0781.0312-.1328.0469-.1641.0469h-.3281l-.3281-.0703c-.0625 0-.125 0-.1875 0-.0625.0156-.1328.0156-.211 0-.0781-.0313-.1406-.0626-.1874-.0938-.0469-.0156-.1016-.0234-.1641-.0234-.0781-.1719-.1172-.2657-.1172-.2813 0-.0312-.0078-.0547-.0234-.0703-.0469-.0781-.0703-.1484-.0703-.2109.0156-.0782.0234-.1485.0234-.211 0-.0469-.0078-.0937-.0234-.1406 0-.0469 0-.0859 0-.1172 0-.0469.0078-.0937.0234-.1406s.0234-.1016.0234-.1641c.0156-.0625.0235-.1328.0235-.2109.0156-.0781.0312-.1563.0468-.2344.0157-.125.0235-.2187.0235-.2812 0-.0782 0-.1329 0-.1641.0156-.0469.0234-.0938.0234-.1406 0-.0625.0078-.125.0234-.1875.0157-.0938.0157-.1641 0-.211-.0156-.0625-.0234-.1171-.0234-.164 0-.0313 0-.0781 0-.1407.0156-.0624.0234-.1328.0234-.2109 0-.1094-.0078-.2109-.0234-.3047 0-.0937 0-.1875 0-.2812 0-.0782.0156-.1953.0469-.3516v-.3047c.0156-.1406.0234-.3125.0234-.5156s-.0078-.3906-.0234-.5625v-.2578c.0156-.1875.0234-.3281.0234-.4219.0157-.1094.0157-.2187 0-.3281 0-.0469-.0078-.086-.0234-.1172 0-.0469 0-.0938 0-.1406-.0156-.0782-.0235-.1485-.0235-.211s0-.1328 0-.2109c0-.0937-.0078-.1484-.0234-.1641 0-.0312 0-.0625 0-.0937v-.4219c-.0156-.1719-.0156-.2656 0-.2812.0156-.0313.0234-.0625.0234-.0938 0-.1875 0-.3047 0-.3516.0157-.0624.0235-.125.0235-.1874 0-.1563 0-.2422 0-.2579 0-.2656-.0078-.4297-.0235-.4921-.0468-.1563-.0703-.25-.0703-.2813v-.3516c0-.1406-.0078-.2265-.0234-.2578 0-.0469.0078-.1015.0234-.164 0-.1094-.0078-.2188-.0234-.3282 0-.1093 0-.2265 0-.3515-.0156-.1094-.0156-.1875 0-.2344s.0234-.0938.0234-.1406v-.6563c-.0312-.1875-.0312-.3906 0-.6093.0313-.1563.0625-.25.0938-.2813.0469-.1563.0781-.2422.0937-.2578.1407-.1875.2813-.3125.4219-.375.0781-.0313.1406-.0625.1875-.0938.0625-.0468.1094-.0703.1406-.0703.1407-.0312.2344-.0468.2813-.0468.1719-.0157.3437-.0157.5156 0 .1719.0156.3438.0078.5156-.0235.1407-.0156.2344-.0078.2813.0235.0469.0156.1016.0078.164-.0235.2032-.0156.3282-.0156.375 0h.1407c.125-.0312.2109-.0391.2578-.0234h.4219c.0468 0 .1015.0078.164.0234.0625 0 .1094.0156.1406.0469.0313-.0313.1172-.0469.2579-.0469.0468.0313.0781.0625.0937.0938.0313.0312.0781.0468.1406.0468.0625.1407.1172.2344.1641.2813.0469.1406.1016.289.1641.4453.0312.0781.0468.1719.0468.2813 0 .1093.0078.2265.0235.3515v.1875c.0156.0625.0234.1172.0234.1641 0 .0781-.0078.1562-.0234.2343 0 .0782-.0078.1563-.0235.2344-.0156.2344-.0234.4297-.0234.586 0 .1406-.0078.2812-.0234.4218-.0157.0782-.0313.1563-.0469.2344v.2344c0 .0625.0078.125.0234.1875.0157.0469.0235.1015.0235.1641 0 .125-.0078.2578-.0235.3984-.0156.125-.0312.2578-.0469.3984-.0156.125-.0312.25-.0468.375-.0156.1094-.0235.2344-.0235.375v.1172c.0157.0469.0235.0938.0235.1406 0 .0782-.0078.1485-.0235.211v.1875.2343c.0157.0782.0157.1563 0 .2344 0 .0782-.0078.1563-.0234.2344-.0156.0625-.0234.1328-.0234.2109-.0157.125-.0157.25 0 .375.0156.125.0234.25.0234.375 0 .0782-.0078.1563-.0234.2344-.0157.0781-.0157.1563 0 .2344.0468.2656.0625.4453.0468.5391-.0156.0937-.0156.1953 0 .3046.0157.1719.0157.2891 0 .3516v.1172.6094c0 .1093-.0078.1953-.0234.2578.0625.1094.0781.2422.0469.3984-.0313.1406-.0156.2578.0468.3516-.0312.1094-.0468.2265-.0468.3515.0156.125.039.2344.0703.3282l.0234.6328c.0157.0937.0235.1953.0235.3047.0156.0937.0234.1796.0234.2578l-.0234.2578zm10.8516-3.4453c.0313.0469.0703.0625.1172.0469s.0937-.0312.1406-.0469c.2188-.0468.3594-.0703.4219-.0703.0625-.0156.1328-.0312.2109-.0468.125-.0313.25-.0704.375-.1172.1407-.0625.2813-.1094.4219-.1407.0312-.0156.0703-.0234.1172-.0234.0625-.0156.1094-.0313.1406-.0469.0938-.0625.1641-.1015.211-.1172.0622-.0312.1092-.0625.1402-.0937.157-.125.258-.1953.305-.2109.047-.0157.086-.0391.117-.0704.219-.0625.344-.0859.375-.0703.125.0313.188.1328.188.3047-.016.2188-.024.3594-.024.4219.016.0469.024.1094.024.1875.015.125.023.2422.023.3516v.3281.1406c.016.0469.024.0859.024.1172 0 .0781-.016.1641-.047.2578-.016.0937-.024.1797-.024.2578.016.25.016.4844 0 .7031-.047.2032-.062.336-.047.3985.016.0625.024.1172.024.164-.016.1094-.031.2032-.047.2813-.156.1562-.273.2422-.352.2578-.078 0-.132.0391-.164.1172-.093.0156-.156.0312-.187.0469-.016.0156-.039.0312-.07.0468-.11.0938-.196.1407-.2582.1407-.0469 0-.0938.0078-.1407.0234l-.2812.1172c-.1719.0625-.2891.0937-.3516.0937s-.125.0313-.1875.0938c-.0625 0-.125.0156-.1875.0469-.0469.0156-.1094.0312-.1875.0468-.1562.0313-.2656.0547-.3281.0704-.1094.0468-.1875.0703-.2344.0703s-.1015.0078-.1641.0234c-.0781.0156-.164.0234-.2578.0234-.0781.0157-.164.0313-.2578.0469-.2344.0469-.3984.0625-.4922.0469-.0937 0-.1875.0156-.2812.0469-.125 0-.2266.0078-.3047.0234s-.1563.0234-.2344.0234c-.0937 0-.1875-.0078-.2812-.0234-.0781-.0156-.1641-.0312-.2578-.0469-.0625.0313-.1407.0391-.2344.0235-.0781-.0157-.1797-.0391-.3047-.0704-.125-.0156-.2109-.0312-.2578-.0468-.1875 0-.3125-.0078-.375-.0235-.0469-.0156-.1016-.0312-.1641-.0468-.0625-.0157-.1172-.0235-.164-.0235-.0469 0-.1016-.0078-.1641-.0234-.1094-.0156-.1875-.0313-.2344-.0469-.0468-.0156-.0937-.0312-.1406-.0469-.1875-.0468-.2969-.0781-.3281-.0937l-.211-.1641c-.125-.0312-.25-.0781-.375-.1406-.0468-.0312-.0937-.0547-.1406-.0703-.0312-.0156-.0703-.0469-.1172-.0938-.0312-.0468-.0781-.0781-.1406-.0937-.0469-.0156-.0937-.0391-.1406-.0703-.1719-.1094-.2657-.1719-.2813-.1875 0-.0156-.0078-.0313-.0234-.0469-.1094-.0469-.1719-.0781-.1875-.0937 0-.0157-.0156-.0313-.0469-.0469l-.2344-.1407c-.0937-.0937-.1796-.1562-.2578-.1874-.0312-.0782-.0781-.1329-.1406-.1641-.0469-.0469-.0859-.1094-.1172-.1875-.1094-.0938-.1875-.1563-.2344-.1875-.0468-.0313-.0859-.0781-.1172-.1406-.0468-.0313-.0859-.0625-.1171-.0938-.0157-.0469-.0391-.0859-.0703-.1172-.0626-.0469-.1016-.1328-.1172-.2578-.0938-.0937-.1407-.1562-.1407-.1875 0-.0312-.0078-.0625-.0234-.0937-.0937-.125-.1563-.2032-.1875-.2344-.0938-.1094-.1406-.1719-.1406-.1875s-.0078-.0391-.0235-.0703c-.1093-.2188-.1875-.3516-.2343-.3985 0-.0781-.0078-.1328-.0235-.164-.0156-.0313-.0234-.0703-.0234-.1172-.0781-.1563-.1172-.25-.1172-.2813 0-.0468 0-.0859 0-.1171-.0469-.1563-.0781-.2344-.0937-.2344 0 0 0-.0078 0-.0235-.0782-.2343-.125-.3828-.1407-.4453-.0156-.0781-.039-.1484-.0703-.2109-.0312-.1563-.0547-.2578-.0703-.3047 0-.0469-.0078-.1094-.0234-.1875 0-.0937-.0079-.1875-.0235-.2813-.0156-.1093-.0234-.1718-.0234-.1874 0-.0313 0-.0782 0-.1407.0156-.0781.0156-.1406 0-.1875-.0156-.0468-.0391-.0859-.0703-.1172-.0313-.0468-.0469-.0937-.0469-.1406.0781-.2344.1172-.3828.1172-.4453 0-.0781 0-.1719 0-.2813.0312-.1406.039-.25.0234-.3281s-.0156-.1562 0-.2343c0-.0469 0-.0938 0-.1407 0-.0625.0156-.1093.0469-.1406-.0313-.0625-.0391-.1094-.0234-.1406.0312-.0469.0547-.0938.0703-.1407 0-.1718 0-.2578 0-.2578.0156-.0156.0234-.039.0234-.0703.0313-.1406.0547-.2578.0703-.3515.0313-.1094.0625-.2032.0938-.2813.0469-.125.0703-.1953.0703-.2109 0-.0313.0078-.0625.0234-.0938.0625-.0937.1016-.1562.1172-.1875.0156-.0312.0313-.0625.0469-.0937.0625-.2344.1328-.4141.2109-.5391.0782-.125.1328-.2187.1641-.2812.0312-.0625.0625-.1094.0937-.1407 0-.0625.0157-.1093.0469-.1406.0469-.0312.0859-.0625.1172-.0937.0781-.1407.1328-.2188.1641-.2344.0781-.1406.1172-.2188.1172-.2344.1406-.1562.2265-.2422.2578-.2578.0312-.0156.0625-.0391.0937-.0703.1094-.125.1563-.1953.1406-.211 0-.0312.0079-.0468.0235-.0468.0468-.0156.0781-.0391.0937-.0703.0313-.0469.0625-.086.0938-.1172.1406-.125.2187-.1953.2343-.211.0157-.0156.0391-.0312.0704-.0468.0625-.1094.1015-.1641.1172-.1641.0312 0 .0468-.0156.0468-.0469.1563-.1093.2422-.1719.2578-.1875.0313-.0156.0625-.039.0938-.0703.125-.0937.1953-.1406.2109-.1406.0313-.0156.0547-.0313.0703-.0469.1563-.0937.2422-.1562.2578-.1875.1407-.1094.2188-.1641.2344-.1641.0313-.0156.0469-.039.0469-.0703.1875-.0937.2969-.1406.3281-.1406.0313 0 .0625-.0078.0938-.0234.2344-.0938.3828-.1563.4453-.1875.0312-.0156.0625-.0235.0937-.0235.0469-.0156.1094-.0312.1875-.0468.0313-.0157.0625-.0313.0938-.0469.0469-.0156.1015-.0313.1641-.0469.1562-.0469.2343-.0703.2343-.0703 0-.0156.0157-.0234.0469-.0234.1094-.0313.1797-.0547.2109-.0704.0313-.0156.086-.0234.1641-.0234.2031-.0156.3906-.0156.5625 0 .1563.0156.2656.0156.3281 0s.1328-.0234.211-.0234c.0625 0 .1562.0156.2812.0468h.2578c.1563.0469.2344.0704.2344.0704 0-.0157.0156-.0235.0469-.0235.125.0313.1953.0469.2109.0469.0313-.0156.0625-.0156.0938 0 .0625 0 .1172.0156.164.0469.0625.0312.1328.0312.211 0 .1718.0781.2812.125.3281.1406.0625.0156.1328.0313.2109.0469.1563.0625.2656.1094.3282.1406.0781.0156.1484.0469.2109.0938.0937-.0313.1797.0078.2578.1171.1563.0938.2422.1407.2578.1407s.0313.0078.0469.0234c.0781.0781.1406.1328.1875.1641.0469.0312.0859.0703.1172.1171.0781.1094.125.1719.1406.1876.0156 0 .0313.0078.0469.0234.0468.0469.0937.0937.1406.1406.0625.0469.1094.1016.1406.1641.125.125.1875.1875.1875.1875.0625.0625.1094.1172.1407.164.0472.0313.0862.0704.1172.1172.125.125.187.2032.187.2344 0 .0156.008.0391.024.0703.125.2031.195.3125.211.3281.062.1094.117.1875.164.2344.031.0469.055.0938.07.1406.016.0469.039.0938.07.1407-.015.0468-.015.0937 0 .1406.032.0469.063.0859.094.1172.032.0625.055.1484.071.2578.015.0937.039.1797.07.2578.031.0469.055.0937.07.1406.016.0313.039.0781.071.1407.031.1874.046.2812.046.2812 0 .0469.008.0938.024.1406.015.0313.031.0703.047.1172.015.1406.015.211 0 .211 0 0 .007.0156.023.0468l.07.2578c.032.125.047.2344.047.3282 0 .0468.008.0937.024.1406.015.0312.023.0703.023.1172-.031.1875-.047.3125-.047.375.016.0468.016.0859 0 .1172-.14.1406-.226.2265-.257.2578-.016.0312-.04.0547-.071.0703-.125.0625-.195.1015-.211.1172 0 .0156-.008.0312-.023.0469-.172.0781-.281.1171-.328.1171-.032 0-.063.0157-.094.0469-.125.0469-.211.086-.258.1172-.031.0312-.062.0625-.094.0938-.1559.0468-.234.0859-.234.1171-.0938.0469-.1719.086-.2344.1172-.0625.0157-.1172.0391-.164.0703-.1719.0938-.3204.1719-.4454.2344-.1562.0938-.2656.1484-.3281.1641-.0625.0156-.1093.039-.1406.0703-.125.0625-.2031.1016-.2344.1172-.0312.0156-.0625.039-.0937.0703-.1563.1094-.2578.1719-.3047.1875-.0313.0156-.0625.0469-.0938.0937-.0312-.0156-.0781-.0078-.1406.0235-.0625.0312-.1172.0625-.1641.0937-.1874.0781-.3124.125-.375.1407-.0468 0-.0859.0234-.1171.0703-.0469 0-.0938.0156-.1407.0468-.0312.0157-.0703.0313-.1172.0469-.0468.0156-.1015.0234-.164.0234-.0469-.0156-.0938-.0078-.1406.0235-.1407.0937-.2266.1406-.2578.1406-.0313.0313-.0782.0547-.1407.0703-.0469.0156-.0937.0313-.1406.0469-.1406.0781-.2422.1172-.3047.1172-.0469 0-.0859.0156-.1172.0469-.1406.0625-.2187.1015-.2344.1172-.125.0781-.2109.1171-.2578.1171-.0468 0-.0937.0157-.1406.0469-.25.0938-.3828.1641-.3984.211 0 .2031.0156.3124.0468.3281.1094.0937.1797.1484.211.164.0469.0157.0937.0391.1406.0703.0313.0469.0625.0704.0938.0704.0468 0 .0937.0156.1406.0468.0312.0157.0625.0391.0937.0704.0469.0156.0938.0312.1407.0468.0625.0469.1484.0703.2578.0703.0781.0157.1406.0313.1875.0469.0469 0 .1015.0078.164.0234.125.0313.2188.0469.2813.0469.1875-.0156.3125-.0156.375 0 .0781.0157.1406.0235.1875.0235.0781 0 .1562-.0078.2344-.0235.0781-.0312.1562-.0469.2343-.0469.1875.0157.3047.0157.3516 0 .0625-.0156.125-.0234.1875-.0234zm-.9375-5.9531c-.0312-.0625-.0547-.1172-.0703-.164 0-.0469-.0235-.0782-.0703-.0938-.0782-.1562-.125-.2422-.1406-.2578 0-.0156-.0157-.0313-.0469-.0469-.1407-.125-.2266-.2031-.2578-.2344-.1563-.125-.25-.1953-.2813-.2109-.2187-.1094-.3672-.1641-.4453-.1641-.0625 0-.1484 0-.2578 0-.1719.0782-.2656.1172-.2813.1172-.0156 0-.0312.0078-.0468.0235-.1719.0937-.2735.1484-.3047.164-.0313 0-.0469.0235-.0469.0703-.125.0625-.1953.1016-.2109.1172-.0157 0-.0313 0-.0469 0-.0938.125-.1563.211-.1875.2578-.0156.0313-.0313.0625-.0469.0938-.125.1562-.1953.25-.2109.2812-.0157.0313-.0313.0625-.0469.0938-.0469.2031-.1016.3203-.1641.3515-.0468.0313-.0781.086-.0937.1641-.0938.125-.1406.2031-.1406.2344.0156.0156.0156.0312 0 .0469-.0469.1562-.086.2343-.1172.2343-.0625.25-.0938.3907-.0938.4219.0313.125.0313.2031 0 .2344-.0156.0312-.0078.0547.0235.0703.2031-.0937.3437-.1328.4218-.1172.1563-.0781.2579-.125.3047-.1406.0469-.0156.086-.0391.1172-.0703.1719-.0938.2656-.1485.2813-.1641.125-.0469.2109-.0781.2578-.0937.0469-.0157.0859-.0313.1172-.0469.1875-.0781.3047-.125.3515-.1406.0625-.0313.1094-.0625.1406-.0938.125-.0781.211-.1172.2579-.1172.0468-.0156.0937-.039.1406-.0703.0937-.0469.1484-.0703.1641-.0703.0312-.0156.0624-.0313.0937-.0469.0625-.0312.1172-.0468.1641-.0468.0468-.0157.0859-.0391.1172-.0704.1718-.0781.2578-.125.2578-.1406.0156-.0312.0312-.0469.0468-.0469.0938-.1093.1797-.164.2578-.164.0782-.0157.1329-.0547.1641-.1172zm1.7578-8.8125c.0313.1563.0078.2735-.0703.3516-.0781.0625-.1484.1328-.2109.2109-.125 0-.2344.0313-.3282.0938-.0781.0625-.164.125-.2578.1875-.1406.0937-.2109.1562-.2109.1875-.1094.0625-.1953.1093-.2578.1406-.0469.0312-.1016.0625-.1641.0937-.1562.0938-.2656.1485-.3281.1641-.0469 0-.0938.0156-.1406.0469-.1875.125-.3125.2109-.375.2578-.0469.0312-.1094.0703-.1875.1172-.1094.0625-.2188.125-.3282.1875-.0937.0468-.1875.1094-.2812.1875-.1563.125-.2656.2031-.3281.2343-.0625.0157-.1329.0391-.211.0704-.1093.0468-.2265.0859-.3515.1172-.1094-.0469-.1797-.0782-.211-.0938-.0156-.0156-.039-.0312-.0703-.0469-.0937-.1406-.1719-.2109-.2344-.2109-.0468-.0156-.0781-.0391-.0937-.0703-.0313-.0625-.086-.125-.1641-.1875-.0625-.0625-.1093-.1406-.1406-.2344-.0313-.0312-.0703-.0547-.1172-.0703s-.0859-.0391-.1172-.0703c-.0781-.0782-.1328-.1485-.164-.211 0-.0625.0234-.1015.0703-.1172.0468-.0312.0937-.0624.1406-.0937l.1641-.1641c.0625-.0781.125-.1406.1875-.1875.0468-.0468.1015-.0859.164-.1171.0625-.0313.125-.0704.1875-.1172.1407-.1563.2188-.25.2344-.2813.1094-.0312.1797-.0703.2109-.1172.0469-.0625.125-.1015.2344-.1172.0625-.0781.125-.1406.1875-.1875.0781-.0468.1485-.1015.2109-.164.0626-.0625.1172-.125.1641-.1875s.1094-.1172.1875-.1641c.1563-.125.2813-.2344.375-.3281.0781-.0625.1563-.1172.2344-.1641.0781-.0468.1328-.1094.164-.1875.0782-.0312.1407-.0625.1876-.0937.0468-.0469.0937-.0938.1406-.1406.1094-.1094.1875-.1641.2344-.1641.0624-.0156.1015-.0235.1171-.0235.0469.0782.086.125.1172.1407.0313 0 .0625.0156.0938.0469.1093.0937.1797.1562.2109.1874.1094.0938.1797.1797.211.2579.0312.0625.0624.1171.0937.164.125.1563.2031.2344.2344.2344.0937.0937.1562.1641.1875.2109.0468.0469.0859.086.1172.1172.0312.0313.0546.0703.0703.1172.0312.0313.0703.0625.1172.0938zm21.5152 17.0625c-.125.0469-.21.1406-.257.2813-.079.0312-.141.0859-.188.164-.031.0625-.086.1094-.164.1407-.141.1562-.234.2421-.281.2578-.031 0-.047.0234-.047.0703-.125.1093-.195.164-.211.164-.109.0782-.172.1329-.188.1641-.015.0156-.039.0312-.07.0469-.062.0469-.125.0781-.187.0937-.047.0156-.102.0391-.164.0703-.157.0782-.235.1172-.235.1172 0-.0156-.008-.0234-.023-.0234-.125.0781-.195.1172-.211.1172s-.024.0156-.024.0469c-.171.0312-.265.0546-.281.0703 0 .0156-.015.0312-.047.0468-.156.0313-.304.0547-.445.0703-.125.0157-.258.0235-.398.0235-.219-.0469-.368-.0703-.446-.0703-.156 0-.234-.0078-.234-.0235 0 0-.008 0-.024 0-.078.0157-.14.0157-.187 0-.047 0-.094 0-.141 0l-.257-.0703c-.172-.0312-.29-.0468-.352-.0468-.047 0-.094-.0079-.141-.0235-.031-.0156-.07-.0312-.117-.0469-.047-.0156-.094-.0312-.14-.0468l-.305-.0469c-.156-.0781-.242-.1172-.258-.1172-.172-.0781-.273-.125-.305-.1406-.015-.0157-.039-.0313-.07-.0469-.125-.0938-.203-.1484-.234-.1641-.032-.0312-.063-.0625-.094-.0937-.141-.1094-.219-.1641-.234-.1641l-.211-.2109c-.141-.125-.211-.1875-.211-.1875-.11-.0781-.18-.125-.211-.1406-.032-.0157-.063-.0391-.094-.0703-.109-.1094-.18-.1876-.211-.2344-.016-.0625-.039-.1172-.07-.1641-.078-.0781-.133-.1406-.164-.1875-.032-.0625-.063-.1172-.094-.164-.11-.1719-.195-.2813-.258-.3282-.062-.1406-.133-.2734-.211-.3984-.062-.125-.133-.2578-.211-.3984-.078-.1563-.117-.25-.117-.2813-.031-.1719-.055-.2734-.07-.3047-.016-.0312-.032-.0703-.047-.1172-.047-.1718-.07-.2656-.07-.2812.015-.0313.007-.0469-.024-.0469-.016-.1719-.031-.2656-.047-.2813-.015-.0312-.023-.0624-.023-.0937-.016-.1719-.039-.2813-.071-.3281-.015-.0469-.023-.0938-.023-.1406 0-.125-.008-.1954-.023-.211 0-.0156 0-.039 0-.0703.015-.1719.015-.2578 0-.2578 0 0 0-.0078 0-.0235 0-.0624-.008-.1406-.024-.2343-.015-.0938-.023-.1797-.023-.2578 0-.2188-.008-.3516-.024-.3985-.015-.0468-.023-.0937-.023-.1406 0-.0781.015-.1562.047-.2344.031-.0937.031-.1797 0-.2578.047-.2031.07-.414.07-.6328.031-.1719.062-.3047.094-.3984 0-.1094.008-.1954.023-.2578.031-.0626.047-.125.047-.1876.016-.1406.031-.2343.047-.2812.031-.0469.062-.0938.094-.1406.031-.0782.054-.1563.07-.2344s.039-.1641.07-.2578c.078-.1563.125-.2344.141-.2344.062-.1875.094-.289.094-.3047.015-.0156.031-.039.047-.0703.078-.125.125-.2031.14-.2344.016-.0312.039-.0546.071-.0703 0-.0937.023-.1875.07-.2812.094-.1407.148-.211.164-.211.078-.1718.133-.2812.164-.3281.031-.0312.055-.0703.07-.1172.016-.0468.039-.0859.071-.1172.046-.0781.07-.125.07-.1406.015-.0312.031-.0625.047-.0937.109-.1094.187-.1875.234-.2344.094-.1875.164-.2969.211-.3281.063-.0313.109-.0782.141-.1407.109-.1718.172-.2578.187-.2578.031 0 .063-.0078.094-.0234.094-.1094.141-.1563.141-.1406.015 0 .039-.0157.07-.0469.14-.0938.226-.1563.258-.1875.093-.0938.156-.1563.187-.1875.047-.0313.086-.0625.117-.0938.141-.0937.219-.1484.235-.164.031-.0313.062-.0547.093-.0703.172-.0782.266-.1094.282-.0938.031 0 .062-.0078.094-.0234.14-.0938.234-.1407.281-.1407.062 0 .109-.0078.14-.0234.157-.0625.266-.0937.329-.0937.062-.0313.117-.0547.164-.0703.046-.0313.101-.0313.164 0 .109-.0626.25-.0938.422-.0938.14-.0312.304-.0391.492-.0234.187 0 .367.0078.539.0234.125-.0156.195-.0156.211 0h.117c.125.0312.234.0625.328.0938.125.0468.242.0703.352.0703.171 0 .257.0078.257.0234h.071c.109.0313.179.0547.211.0703.031 0 .062.0078.093.0234.172.0626.274.1094.305.1407.094.0469.156.0859.188.1172.046.0156.093.039.14.0703.156.125.274.1953.352.2109.156.1094.242.1875.258.2344.031.0469.078.0859.14.1172.031-.0625.039-.125.024-.1875-.016-.0625-.024-.1328-.024-.211 0-.0625.008-.125.024-.1875.015-.0625.023-.125.023-.1875-.016-.1875-.023-.3046-.023-.3515s.015-.086.046-.1172c-.015-.0469-.023-.1485-.023-.3047-.016-.1406-.023-.25-.023-.3281.015-.0938 0-.1797-.047-.2578.015-.0469.015-.0938 0-.1407-.016-.0625-.024-.125-.024-.1875-.015-.0625-.031-.1171-.047-.164-.015-.0625-.023-.125-.023-.1875-.016-.0625-.023-.125-.023-.1875s0-.1328 0-.211l-.047-.4921c-.032-.1719-.047-.2579-.047-.2579.015-.0156.023-.0312.023-.0468-.062-.1563-.101-.2579-.117-.3047 0-.0469-.008-.1094-.023-.1875 0-.1407 0-.2266 0-.2578.015-.0313.023-.0625.023-.0938.016-.1719.031-.2812.047-.3281s.023-.1094.023-.1875c.141-.1406.235-.2109.282-.2109.062-.0157.109-.0313.14-.0469h.258c.016-.0157.039-.0157.07 0l.516.0937h.141c.047-.0156.101-.0156.164 0 .062.0156.117.0235.164.0235.047-.0157.086-.0235.117-.0235.047.0156.094.0313.141.0469.062.0156.117.0078.164-.0234.031-.0157.07-.0235.117-.0235h.187c.11.0469.188.0703.235.0703h.117.187c.047-.0156.102-.0234.164-.0234.157 0 .243.0078.258.0234h.071c.078 0 .148.0079.211.0235.062 0 .124.0156.187.0468.047 0 .094-.0078.141-.0234.046-.0312.093-.039.14-.0234.125.0312.196.039.211.0234.016-.0156.039-.0234.071-.0234.093 0 .187.0078.281.0234.093.0156.187.0078.281-.0234.062.0937.164.1406.305.1406.093.1406.133.2266.117.2578 0 .0313.008.0625.023.0938.063.125.086.2031.071.2343-.016.0157-.024.0391-.024.0703.031.1407.031.2344 0 .2813-.031.0313-.047.0625-.047.0937v.1407c.016.0312.024.0703.024.1172-.016.1875-.031.3047-.047.3515-.016.0469-.024.0938-.024.1406-.015.1719-.023.2657-.023.2813 0 0-.008.0156-.023.0469-.016.125-.032.2109-.047.2578-.016.0312-.024.0625-.024.0937.016.1563.008.3125-.023.4688-.031.1562-.008.2734.07.3515-.031.0938-.047.1876-.047.2813 0 .0781-.015.1641-.047.2578 0 .0625-.007.125-.023.1875-.016.0469-.031.0938-.047.1406 0 .1407-.008.2188-.023.2344v.0703c-.016.1094-.024.2266-.024.3516.016.1094.008.2187-.023.3281-.047.2031-.071.3516-.071.4453.016.0938.016.1797 0 .2578-.031.1875-.046.3047-.046.3516.015.0313.023.0703.023.1172-.016.1562-.023.2422-.023.2578.015.0156.023.0313.023.0469-.016.1718-.023.2656-.023.2812-.032.125-.032.2656 0 .4219v.3281c.015.0938.007.1953-.024.3047.016.125.039.2344.07.3281.032.1407.039.2188.024.2344v.0469c.015.1094.015.1875 0 .2344-.016.0468-.016.1015 0 .164.031.25.031.4297 0 .5391-.016.0937-.024.1953-.024.3047 0 .0781.008.1484.024.2109.015.0469.023.1016.023.1641.016.0625.024.125.024.1875v.1406c.031.1562.039.2422.023.2578v.0469.2812c.016.0469.031.1094.047.1875v.4454c.016.0781.016.164 0 .2578v.2109c0 .2031-.008.3359-.023.3984 0 .0469.007.1016.023.1641.016.0938.024.1797.024.2578s-.008.1406-.024.1875c-.016.0313-.023.0859-.023.1641.015.0625.023.1328.023.2109.016.1563.016.2422 0 .2578v.0235c.016.125.016.2343 0 .3281v.2812c.016.2032.024.336.024.3985s-.008.1172-.024.164v.2813c0 .0625-.008.1484-.023.2578v.3281.3282c0 .0468.007.1093.023.1874.016.0782.024.1563.024.2344.015.0782.031.1719.046.2813.016.0781.024.1562.024.2343.015.0782.031.1641.047.2579.031.2187.047.3359.047.3515.015.1406.031.2344.046.2813.016.0312.016.0625 0 .0937-.046.1875-.078.2891-.093.3047-.125.0781-.219.1328-.282.1641-.078-.0313-.156-.0469-.234-.0469-.078.0156-.18.0234-.305.0234-.156.0157-.281.0235-.375.0235-.078.0156-.171.0078-.281-.0235-.187.0625-.375.0703-.562.0235-.188-.0313-.344-.0391-.469-.0235-.078-.0312-.141-.0547-.188-.0703-.047 0-.125 0-.234 0l-.281.0235c-.078 0-.149 0-.211 0-.047.0156-.102.0078-.164-.0235-.157.0156-.25.0313-.281.0469-.016.0156-.04.0234-.071.0234-.109-.0156-.179-.0234-.211-.0234-.031.0156-.078.0234-.14.0234-.094-.0312-.211-.0468-.352-.0468s-.242-.0079-.305-.0235c-.078 0-.156-.039-.234-.1172-.125-.0625-.195-.125-.211-.1875.016-.125.016-.2265 0-.3047 0-.0781.016-.1562.047-.2343.031-.1094.047-.1953.047-.2578 0-.0782.015-.1329.047-.1641.062-.1875.086-.3047.07-.3516 0-.0625.008-.1093.023-.1406zm.235-6.0469c-.141-.1718-.235-.289-.281-.3515-.032-.0782-.094-.1328-.188-.1641-.141-.1562-.219-.2344-.234-.2344-.063-.125-.11-.1875-.141-.1875-.031-.0156-.031-.039 0-.0703-.141-.0469-.227-.1015-.258-.164-.109-.0938-.179-.1563-.211-.1875-.031-.0469-.062-.086-.093-.1172-.141-.0625-.211-.0938-.211-.0938 0-.0156-.008-.0234-.024-.0234-.078-.0469-.148-.0781-.211-.0938-.047-.0156-.086-.039-.117-.0703-.172-.1093-.258-.164-.258-.164-.187-.0469-.297-.0782-.328-.0938-.031-.0312-.062-.0469-.094-.0469-.187-.0156-.304-.0156-.351 0-.047-.0156-.094-.0078-.141.0235-.031.0312-.078.039-.14.0234-.157.1094-.243.1719-.258.1875 0 .0156-.016.0391-.047.0703-.109.0625-.195.1094-.258.1407-.031.0468-.062.0859-.094.1171-.031.0157-.054.0469-.07.0938-.109.125-.18.1953-.211.2109-.016 0-.031.0156-.047.0469-.094.1563-.156.2656-.187.3281 0 .0782-.024.1485-.071.211-.031.0625-.054.1328-.07.2109.016.0937.016.1641 0 .2109v.1407.1171c.016.0469.016.1016 0 .1641-.031.1406-.039.2422-.023.3047.015.0625.023.125.023.1875-.016.1094-.016.1875 0 .2344.016.0312.023.0703.023.1172.016.0781.024.1953.024.3515 0 .0625-.008.125-.024.1875-.015.0469-.015.0938 0 .1407.063.1874.094.289.094.3046.016.0157.032.0391.047.0704.031.0624.055.1171.07.164.016.0469.039.0938.071.1406.078.0313.14.086.187.1641.063.0625.149.1172.258.1641.016.0625.102.1093.258.1406.203.0469.367.0547.492.0234.125-.0468.242-.0703.352-.0703.156-.0625.242-.0937.257-.0937.188-.1094.297-.1719.329-.1875.046-.0157.085-.0313.117-.0469.109-.0313.187-.0703.234-.1172.141-.0938.227-.1562.258-.1875l.258-.2344c.109-.1093.172-.164.187-.164.031-.0157.063-.0391.094-.0703.031-.0313.055-.0626.07-.0938.016-.0469.047-.0859.094-.1172.078-.0781.133-.125.164-.1406s.047-.0391.047-.0703c.109-.125.188-.2031.234-.2344.047-.0469.094-.0859.141-.1172.031-.0312.047-.0625.047-.0937.016-.0313.039-.0782.07-.1407.125-.2343.172-.3828.141-.4453-.016-.0625-.016-.164 0-.3047zm15.633 3.75c.031.0469.07.0625.117.0469s.094-.0312.14-.0469c.219-.0468.36-.0703.422-.0703.063-.0156.133-.0312.211-.0468.125-.0313.25-.0704.375-.1172.141-.0625.281-.1094.422-.1407.031-.0156.07-.0234.117-.0234.063-.0156.11-.0313.141-.0469.094-.0625.164-.1015.211-.1172.062-.0312.109-.0625.14-.0937.157-.125.258-.1953.305-.2109.047-.0157.086-.0391.117-.0704.219-.0625.344-.0859.375-.0703.125.0313.188.1328.188.3047-.016.2188-.024.3594-.024.4219.016.0469.024.1094.024.1875.015.125.023.2422.023.3516v.3281.1406c.016.0469.024.0859.024.1172 0 .0781-.016.1641-.047.2578-.016.0937-.024.1797-.024.2578.016.25.016.4844 0 .7031-.046.2032-.062.336-.046.3985.015.0625.023.1172.023.164-.016.1094-.031.2032-.047.2813-.156.1562-.273.2422-.351.2578-.079 0-.133.0391-.164.1172-.094.0156-.157.0312-.188.0469-.016.0156-.039.0312-.07.0468-.11.0938-.196.1407-.258.1407-.047 0-.094.0078-.141.0234l-.281.1172c-.172.0625-.289.0937-.352.0937-.062 0-.125.0313-.187.0938-.063 0-.125.0156-.188.0469-.046.0156-.109.0312-.187.0468-.156.0313-.266.0547-.328.0704-.11.0468-.188.0703-.235.0703-.046 0-.101.0078-.164.0234-.078.0156-.164.0234-.257.0234-.079.0157-.164.0313-.258.0469-.235.0469-.399.0625-.492.0469-.094 0-.188.0156-.282.0469-.125 0-.226.0078-.304.0234s-.157.0234-.235.0234c-.093 0-.187-.0078-.281-.0234-.078-.0156-.164-.0312-.258-.0469-.062.0313-.14.0391-.234.0235-.078-.0157-.18-.0391-.305-.0704-.125-.0156-.211-.0312-.258-.0468-.187 0-.312-.0078-.375-.0235-.047-.0156-.101-.0312-.164-.0468-.062-.0157-.117-.0235-.164-.0235s-.101-.0078-.164-.0234c-.109-.0156-.187-.0313-.234-.0469s-.094-.0312-.141-.0469c-.187-.0468-.297-.0781-.328-.0937l-.211-.1641c-.125-.0312-.25-.0781-.375-.1406-.047-.0312-.094-.0547-.141-.0703-.031-.0156-.07-.0469-.117-.0938-.031-.0468-.078-.0781-.14-.0937-.047-.0156-.094-.0391-.141-.0703-.172-.1094-.266-.1719-.281-.1875 0-.0156-.008-.0313-.024-.0469-.109-.0469-.172-.0781-.187-.0937 0-.0157-.016-.0313-.047-.0469l-.234-.1407c-.094-.0937-.18-.1562-.258-.1874-.031-.0782-.078-.1329-.141-.1641-.047-.0469-.086-.1094-.117-.1875-.109-.0938-.188-.1563-.234-.1875-.047-.0313-.086-.0781-.118-.1406-.047-.0313-.086-.0625-.117-.0938-.015-.0469-.039-.0859-.07-.1172-.063-.0469-.102-.1328-.117-.2578-.094-.0937-.141-.1562-.141-.1875 0-.0312-.008-.0625-.023-.0937-.094-.125-.157-.2032-.188-.2344-.094-.1094-.141-.1719-.141-.1875s-.007-.0391-.023-.0703c-.109-.2188-.187-.3516-.234-.3985 0-.0781-.008-.1328-.024-.164-.015-.0313-.023-.0703-.023-.1172-.078-.1563-.117-.25-.117-.2813 0-.0468 0-.0859 0-.1171-.047-.1563-.079-.2344-.094-.2344 0 0 0-.0078 0-.0235-.078-.2343-.125-.3828-.141-.4453-.015-.0781-.039-.1484-.07-.2109-.031-.1563-.055-.2578-.07-.3047 0-.0469-.008-.1094-.024-.1875 0-.0937-.008-.1875-.023-.2813-.016-.1093-.024-.1718-.024-.1874 0-.0313 0-.0782 0-.1407.016-.0781.016-.1406 0-.1875-.015-.0468-.039-.0859-.07-.1172-.031-.0468-.047-.0937-.047-.1406.078-.2344.117-.3828.117-.4453 0-.0781 0-.1719 0-.2813.032-.1406.039-.25.024-.3281-.016-.0781-.016-.1562 0-.2343 0-.0469 0-.0938 0-.1407 0-.0625.015-.1093.047-.1406-.032-.0625-.039-.1094-.024-.1406.031-.0469.055-.0938.07-.1407 0-.1718 0-.2578 0-.2578.016-.0156.024-.039.024-.0703.031-.1406.055-.2578.07-.3515.032-.1094.063-.2032.094-.2813.047-.125.07-.1953.07-.2109 0-.0313.008-.0625.024-.0938.062-.0937.101-.1562.117-.1875.016-.0312.031-.0625.047-.0937.062-.2344.133-.4141.211-.5391s.133-.2187.164-.2812.062-.1094.094-.1407c0-.0625.015-.1093.046-.1406.047-.0312.086-.0625.118-.0937.078-.1407.132-.2188.164-.2344.078-.1406.117-.2188.117-.2344.14-.1562.226-.2422.258-.2578.031-.0156.062-.0391.093-.0703.11-.125.157-.1953.141-.211 0-.0312.008-.0468.024-.0468.046-.0156.078-.0391.093-.0703.031-.0469.063-.086.094-.1172.141-.125.219-.1953.234-.211.016-.0156.039-.0312.071-.0468.062-.1094.101-.1641.117-.1641.031 0 .047-.0156.047-.0469.156-.1093.242-.1719.258-.1875.031-.0156.062-.039.093-.0703.125-.0937.196-.1406.211-.1406.032-.0156.055-.0313.071-.0469.156-.0937.242-.1562.257-.1875.141-.1094.219-.1641.235-.1641.031-.0156.047-.039.047-.0703.187-.0937.296-.1406.328-.1406.031 0 .062-.0078.094-.0234.234-.0938.382-.1563.445-.1875.031-.0156.062-.0235.094-.0235.046-.0156.109-.0312.187-.0468.031-.0157.063-.0313.094-.0469.047-.0156.101-.0313.164-.0469.156-.0469.234-.0703.234-.0703 0-.0156.016-.0234.047-.0234.109-.0313.18-.0547.211-.0704.031-.0156.086-.0234.164-.0234.203-.0156.391-.0156.563 0 .156.0156.265.0156.328 0 .062-.0156.133-.0234.211-.0234.062 0 .156.0156.281.0468h.258c.156.0469.234.0704.234.0704 0-.0157.016-.0235.047-.0235.125.0313.195.0469.211.0469.031-.0156.062-.0156.094 0 .062 0 .117.0156.164.0469.062.0312.133.0312.211 0 .172.0781.281.125.328.1406.062.0156.133.0313.211.0469.156.0625.265.1094.328.1406.078.0156.148.0469.211.0938.094-.0313.18.0078.258.1171.156.0938.242.1407.257.1407.016 0 .032.0078.047.0234.078.0781.141.1328.188.1641.047.0312.086.0703.117.1171.078.1094.125.1719.141.1876.015 0 .031.0078.046.0234.047.0469.094.0937.141.1406.063.0469.109.1016.141.1641.125.125.187.1875.187.1875.063.0625.11.1172.141.164.047.0313.086.0704.117.1172.125.125.188.2032.188.2344 0 .0156.007.0391.023.0703.125.2031.195.3125.211.3281.062.1094.117.1875.164.2344.031.0469.055.0938.07.1406.016.0469.039.0938.071.1407-.016.0468-.016.0937 0 .1406.031.0469.062.0859.093.1172.032.0625.055.1484.071.2578.015.0937.039.1797.07.2578.031.0469.055.0937.07.1406.016.0313.039.0781.071.1407.031.1874.047.2812.047.2812 0 .0469.007.0938.023.1406.016.0313.031.0703.047.1172.015.1406.015.211 0 .211 0 0 .008.0156.023.0468l.071.2578c.031.125.046.2344.046.3282 0 .0468.008.0937.024.1406.016.0312.023.0703.023.1172-.031.1875-.047.3125-.047.375.016.0468.016.0859 0 .1172-.14.1406-.226.2265-.257.2578-.016.0312-.039.0547-.071.0703-.125.0625-.195.1015-.211.1172 0 .0156-.007.0312-.023.0469-.172.0781-.281.1171-.328.1171-.031 0-.063.0157-.094.0469-.125.0469-.211.086-.258.1172-.031.0312-.062.0625-.094.0938-.156.0468-.234.0859-.234.1171-.094.0469-.172.086-.234.1172-.063.0157-.117.0391-.164.0703-.172.0938-.321.1719-.446.2344-.156.0938-.265.1484-.328.1641-.062.0156-.109.039-.14.0703-.125.0625-.204.1016-.235.1172s-.062.039-.093.0703c-.157.1094-.258.1719-.305.1875-.031.0156-.063.0469-.094.0937-.031-.0156-.078-.0078-.141.0235-.062.0312-.117.0625-.164.0937-.187.0781-.312.125-.375.1407-.047 0-.086.0234-.117.0703-.047 0-.094.0156-.14.0468-.032.0157-.071.0313-.118.0469-.046.0156-.101.0234-.164.0234-.047-.0156-.093-.0078-.14.0235-.141.0937-.227.1406-.258.1406-.031.0313-.078.0547-.141.0703-.047.0156-.093.0313-.14.0469-.141.0781-.243.1172-.305.1172-.047 0-.086.0156-.117.0469-.141.0625-.219.1015-.235.1172-.125.0781-.211.1171-.257.1171-.047 0-.094.0157-.141.0469-.25.0938-.383.1641-.398.211 0 .2031.015.3124.046.3281.11.0937.18.1484.211.164.047.0157.094.0391.141.0703.031.0469.062.0704.094.0704.047 0 .093.0156.14.0468.032.0157.063.0391.094.0704.047.0156.094.0312.141.0468.062.0469.148.0703.257.0703.079.0157.141.0313.188.0469.047 0 .102.0078.164.0234.125.0313.219.0469.281.0469.188-.0156.313-.0156.375 0 .078.0157.141.0235.188.0235.078 0 .156-.0078.234-.0235.078-.0312.156-.0469.235-.0469.187.0157.304.0157.351 0 .063-.0156.125-.0234.188-.0234zm-.938-5.9531c-.031-.0625-.055-.1172-.07-.164 0-.0469-.024-.0782-.07-.0938-.079-.1562-.126-.2422-.141-.2578 0-.0156-.016-.0313-.047-.0469-.141-.125-.227-.2031-.258-.2344-.156-.125-.25-.1953-.281-.2109-.219-.1094-.367-.1641-.445-.1641-.063 0-.149 0-.258 0-.172.0782-.266.1172-.281.1172-.016 0-.032.0078-.047.0235-.172.0937-.274.1484-.305.164-.031 0-.047.0235-.047.0703-.125.0625-.195.1016-.211.1172-.015 0-.031 0-.047 0-.093.125-.156.211-.187.2578-.016.0313-.031.0625-.047.0938-.125.1562-.195.25-.211.2812-.016.0313-.031.0625-.047.0938-.047.2031-.101.3203-.164.3515-.047.0313-.078.086-.094.1641-.093.125-.14.2031-.14.2344.015.0156.015.0312 0 .0469-.047.1562-.086.2343-.118.2343-.062.25-.093.3907-.093.4219.031.125.031.2031 0 .2344-.016.0312-.008.0547.023.0703.203-.0937.344-.1328.422-.1172.156-.0781.258-.125.305-.1406s.086-.0391.117-.0703c.172-.0938.266-.1485.281-.1641.125-.0469.211-.0781.258-.0937.047-.0157.086-.0313.117-.0469.188-.0781.305-.125.352-.1406.062-.0313.109-.0625.14-.0938.125-.0781.211-.1172.258-.1172.047-.0156.094-.039.141-.0703.094-.0469.148-.0703.164-.0703.031-.0156.062-.0313.094-.0469.062-.0312.117-.0468.164-.0468.047-.0157.086-.0391.117-.0704.172-.0781.258-.125.258-.1406.015-.0312.031-.0469.047-.0469.093-.1093.179-.164.257-.164.078-.0157.133-.0547.164-.1172zm25.57 2.25h.399l.328.0234c.078.0157.18.0235.305.0235.14 0 .25-.0156.328-.0469.187-.0312.304-.0547.351-.0703.063-.0313.125-.0547.188-.0703.109 0 .187.0078.234.0234.047 0 .078.0078.094.0235.063.0781.109.1406.141.1875.031.0468.054.0859.07.1172l.023.2812c.032.1406.039.2578.024.3516v.2578c.031.1562.039.2422.023.2578v.0703c.016.1406.016.2734 0 .3984 0 .125-.008.2579-.023.3985 0 .125.008.2187.023.2812.016.0469.024.1016.024.1641-.047.25-.071.4141-.071.4922v.2578c-.015.0781-.023.1484-.023.2109 0 .0469-.016.0938-.047.1406-.016.1719-.047.2813-.094.3282-.047.0312-.101.0547-.164.0703-.062.0156-.125.0312-.187.0469-.063 0-.133.0078-.211.0234-.219-.0156-.352-.0156-.399 0-.203-.0156-.336-.0312-.398-.0469-.047-.0156-.117-.0156-.211 0-.078.0157-.18.0235-.305.0235-.109-.0157-.195-.0078-.258.0234-.015.1875-.023.3359-.023.4453.016.0938.023.2031.023.3281 0 .0782-.007.1407-.023.1875-.016.0469-.023.1016-.023.1641.015.1719.031.2812.046.3281.016.0313.024.0625.024.0938 0 .0312-.008.0703-.024.1172v.164c0 .0938.016.1875.047.2813 0 .0781-.007.1484-.023.2109 0 .0625.008.1328.023.2109.063.1876.086.3047.071.3516-.016.0469-.032.086-.047.1172-.078.2031-.156.3125-.235.3281-.062 0-.125.0078-.187.0235-.063.0156-.125.0312-.188.0468h-.328c-.297-.0156-.593-.0156-.89 0-.297.0157-.578.0157-.844 0-.047-.0156-.094-.0234-.141-.0234-.031-.0156-.07-.0234-.117-.0234s-.109.0078-.187.0234c-.063.0312-.125.0469-.188.0469-.109.0156-.211.0234-.305.0234-.093.0156-.187.0156-.281 0l-.351-.0234c-.172 0-.282-.0078-.329-.0235-.046-.0156-.101-.0312-.164-.0468-.046-.0157-.101-.0313-.164-.0469-.046-.0156-.086-.0391-.117-.0703-.015-.0313-.015-.0782 0-.1406.016-.0626.024-.1094.024-.1407-.032-.1719-.047-.2656-.047-.2812.015-.0157.015-.0391 0-.0703 0-.0938 0-.1797 0-.2578 0-.0938.008-.1797.023-.2579.016-.0937.031-.1718.047-.2343.016-.0782.024-.1328.024-.1641 0-.1719 0-.3281 0-.4687.015-.1407.015-.3204 0-.5391 0-.1563 0-.25 0-.2813.015-.0312.023-.0625.023-.0937-.016-.1719-.023-.2813-.023-.3281.015-.0469.023-.1094.023-.1875-.078-.0313-.156-.0469-.234-.0469-.063 0-.133 0-.211 0-.157.0312-.274.0469-.352.0469-.078.0156-.156.0234-.234.0234-.078-.0156-.164-.0234-.258-.0234-.063 0-.125 0-.188 0-.062-.0157-.109-.0157-.14 0-.047 0-.117 0-.211 0-.094-.0157-.164-.0157-.211 0-.11 0-.203-.0079-.281-.0235-.079-.0156-.157-.0234-.235-.0234h-.633-.445l-.562-.0234c-.094.0156-.164.0156-.211 0-.047-.0313-.11-.0547-.188-.0704-.344-.0468-.609-.1093-.797-.1875-.078-.1093-.132-.1875-.164-.2343-.031-.0469-.062-.086-.094-.1172-.046-.125-.085-.2032-.117-.2344-.015-.0469-.031-.0859-.047-.1172-.078-.1406-.117-.2187-.117-.2344 0-.0312-.008-.0546-.023-.0703-.063-.0781-.102-.1328-.117-.164-.016-.0469-.032-.086-.047-.1172-.094-.1407-.149-.2344-.164-.2813-.016-.0468-.032-.0859-.047-.1172-.047-.0625-.086-.125-.117-.1875-.032-.0625-.063-.125-.094-.1875-.094-.1718-.149-.2656-.164-.2812-.094-.0938-.156-.1719-.188-.2344-.031-.0781-.078-.1406-.14-.1875 0-.0469-.016-.0859-.047-.1172-.016-.0469-.039-.0859-.071-.1172-.109-.1406-.179-.2265-.21-.2578-.016-.0469-.032-.0937-.047-.1406l-.164-.3047c-.016-.1406-.024-.2187-.024-.2344 0-.0156-.008-.0312-.023-.0468.062-.1563.109-.25.14-.2813.047-.0312.086-.0703.118-.1172.109-.1093.171-.1797.187-.2109.016-.0469.039-.0781.07-.0938.125-.0937.203-.1718.235-.2343.109-.125.179-.1875.211-.1875.14-.1563.257-.2891.351-.3985.11-.1093.203-.2109.282-.3047l.187-.1875c.078-.0937.117-.1484.117-.164.016-.0313.039-.0625.07-.0938.094-.1093.172-.1875.235-.2343.094-.1563.148-.2344.164-.2344l.211-.1875c.031-.0313.055-.0625.07-.0938.031-.0312.07-.0625.117-.0937.079-.0938.118-.1485.118-.1641s.007-.0391.023-.0703c.078-.0938.148-.1719.211-.2344.094-.1718.156-.2656.187-.2812.047-.0156.055-.0313.024-.0469.094-.0625.172-.1406.234-.2344.047-.0625.094-.1172.141-.164.047-.0625.086-.1329.117-.211.094-.1406.141-.2187.141-.2343.015-.0157.023-.0313.023-.0469.063-.0625.125-.1407.188-.2344.078-.0781.125-.125.14-.1406.016-.0313.032-.0625.047-.0938.141-.1406.235-.2734.281-.3984.078-.0938.118-.1485.118-.1641 0-.0312.015-.0547.046-.0703.11-.1562.164-.2344.164-.2344.11-.1406.165-.2265.165-.2578.015-.0312.039-.039.07-.0234.094-.1406.156-.2422.187-.3047.032-.0625.078-.1094.141-.1406.047-.1094.117-.2032.211-.2813 0-.0625.016-.1015.047-.1172.047-.0312.07-.0781.07-.1406.063-.0469.109-.1015.141-.1641.047-.0781.109-.1328.187-.164.11-.1563.18-.2422.211-.2578.047-.0313.07-.0703.07-.1172.141-.1406.227-.2266.258-.2578.047-.0469.086-.086.118-.1172.015-.0781.046-.125.093-.1406.047-.0313.078-.086.094-.1641.156-.1563.258-.2578.305-.3047.125-.0781.187-.1172.187-.1172.016 0 .031-.0078.047-.0234.156-.0781.258-.1094.305-.0938.062.0157.117 0 .164-.0468.125-.0157.195-.0313.211-.0469.031-.0156.062-.0235.094-.0235.062-.0156.117-.0234.164-.0234h.14c.078-.0156.156-.0156.235 0 .093.0156.179.0313.257.0469.125 0 .211.0078.258.0234.188-.0312.305-.039.352-.0234h.117.234c.078-.0156.157-.0078.235.0234.14-.0312.226-.039.258-.0234.046.0156.093.0234.14.0234.156.0313.242.0469.258.0469.016-.0156.031-.0234.047-.0234.156-.0313.234-.0391.234-.0235h.024.281c.125 0 .211.0078.258.0235.125.0937.218.1718.281.2343l.164.211c.031.1562.047.2969.047.4219.016.1562.016.2656 0 .3281s-.024.1328-.024.2109v.1641c.016.0625.024.125.024.1875.016.125.016.2422 0 .3515-.016.0938-.024.1875-.024.2813v.2812c.016.0782.024.1641.024.2578-.016.1094-.024.1719-.024.1876.016.0156.024.039.024.0703-.016.1093-.024.1875-.024.2343.016.0469.016.086 0 .1172 0 .0469-.007.0938-.023.1406v.1407c-.016.0781-.023.1562-.023.2343.015.0626.015.1329 0 .211 0 .0781-.008.164-.024.2578v.2344c-.016.1718-.023.3359-.023.4922v.4687c-.016.2188-.024.3985-.024.5391.016.1406.024.2734.024.3984v.3516c0 .1094.007.2109.023.3047-.016.0781-.023.1328-.023.164.015.0313.023.0625.023.0938 0 .1719.008.289.024.3515.015.0469.023.1094.023.1875-.016.2344-.023.4219-.023.5625.015.125.023.25.023.375v.2813c.016.0156.023.0391.023.0703.016.0312.008.0703-.023.1172-.016.0469-.008.0937.023.1406zm-5.086-2.789c-.031.0781-.07.1328-.117.164-.031.0313-.062.0781-.093.1406-.11.0625-.172.1094-.188.1407 0 .0156-.016.039-.047.0703l-.187.1875c-.047.0781-.078.1328-.094.164 0 .0313-.016.0625-.047.0938-.078.0937-.133.1641-.164.2109-.016.0313-.039.0625-.07.0938-.032.0625-.078.1406-.141.2344-.031.0624-.07.1171-.117.164-.031.0313-.055.086-.07.1641-.11.1406-.188.2343-.235.2812-.031.0313-.062.086-.094.1641-.156.1406-.242.2266-.257.2578-.047.1875-.063.2734-.047.2578.031-.0156.047-.0156.047 0 .078.0469.148.0625.211.0469.078-.0156.156-.0235.234-.0235.156.0313.266.0547.328.0704.172-.0157.281-.0157.328 0h.141l.375-.0469c.062.0625.14.0859.234.0703.11-.0156.196 0 .258.0469.156-.125.227-.1875.211-.1875.016-.2656.039-.4532.07-.5625.031-.125.031-.2422 0-.3516 0-.1094 0-.2187 0-.3281.016-.1406.016-.2578 0-.3516 0-.0937.024-.1953.071-.3047-.032-.1875-.04-.289-.024-.3047.016-.0156.024-.039.024-.0703-.016-.0937-.024-.164-.024-.2109.016-.0469.024-.0938.024-.1406 0-.1719.007-.2735.023-.3047.016-.0469.016-.0859 0-.1172-.156-.0313-.266 0-.328.0937-.047.0938-.125.1563-.235.1876zm15.516-.5391h.211c.016-.0156.031-.0235.047-.0235.172-.0624.258-.0937.258-.0937.047-.0156.086-.0156.117 0 .047.0156.101.0234.164.0234h.234c.094 0 .188.0079.282.0235l.257.0234c.063-.0156.118-.0156.164 0h.141c.203.0625.344.0938.422.0938.094-.0157.172-.0157.234 0 .219.125.375.2031.469.2343.094.0157.18.0391.258.0703.109.0782.18.125.211.1407.047.0156.109.0234.187.0234.047.0313.102.0625.164.0938.063.0156.125.039.188.0703.094.0781.219.1484.375.2109.047.0469.101.0938.164.1406.063.0313.117.0703.164.1172.078.0625.156.1328.234.211.079.0625.157.1406.235.2343.078.0782.148.1485.211.211l.211.2344c.062.0937.101.1718.117.2343.015.0469.039.0938.07.1407.063.125.094.1874.094.1874.016 0 .031.0157.047.0469.047.0938.078.1563.094.1875.015.0313.031.0625.046.0938.047.125.079.1953.094.2109.016 0 .031.0156.047.0469.047.1406.07.2344.07.2812.047.1563.079.25.094.2813.016.0312.031.0625.047.0937.047.1563.07.25.07.2813 0 .0312.008.0625.024.0937 0 .0625.008.1172.023.1641.016.0313.024.0859.024.1641.047.2187.07.375.07.4687 0 .0781.008.1719.023.2813.016.125.024.2265.024.3046.015.0782.023.1719.023.2813-.015.0625-.023.1406-.023.2344 0 .0937-.016.1797-.047.2578 0 .0937-.008.1641-.023.2109 0 .0313-.008.0703-.024.1172-.016.1094-.039.1953-.07.2578-.016.0313-.024.0703-.024.1172s-.015.0938-.047.1406c-.093.1563-.148.2422-.164.2578-.015.0157-.031.0391-.047.0704-.046.125-.093.2343-.14.3281-.047.0937-.102.1797-.164.2578-.063.2031-.11.3203-.141.3516-.031.0156-.047.039-.047.0703-.047.0625-.078.1172-.093.164-.016.0469-.039.086-.071.1172-.078.1094-.125.1719-.14.1875-.016 0-.032.0078-.047.0235l-.258.3046c-.141.1407-.234.211-.281.211-.141.1562-.235.25-.282.2812-.046.0157-.086.0469-.117.0938-.14.0781-.234.1406-.281.1875s-.102.0859-.164.1172c-.141.0937-.227.1484-.258.164-.031 0-.047.0235-.047.0703-.172.0938-.273.1407-.304.1407-.016 0-.039.0078-.071.0234-.078.0313-.133.0547-.164.0703-.015.0156-.039.0391-.07.0703-.172.0782-.281.1172-.328.1172s-.086.0078-.117.0235c-.125.0625-.211.0937-.258.0937-.125.0625-.227.1094-.305.1406-.187.0313-.305.0547-.352.0703-.031.0157-.062.0313-.093.0469-.188.0313-.281.0469-.281.0469 0 .0156-.016.0234-.047.0234-.141.0157-.235.0391-.282.0704-.047.0312-.117.0468-.211.0468-.046 0-.093-.0078-.14-.0234s-.102-.0234-.164-.0234c-.203.0312-.328.0312-.375 0-.157 0-.242.0078-.258.0234 0 .0156-.016.0078-.047-.0234-.141 0-.25.0078-.328.0234-.063.0156-.141.0078-.234-.0234-.11-.0157-.18-.0313-.211-.0469-.032 0-.055 0-.071 0-.218-.0313-.382-.0625-.492-.0938-.187-.0469-.281-.0781-.281-.0937-.172 0-.266-.0078-.281-.0235-.016 0-.032 0-.047 0-.047-.0312-.102-.0468-.164-.0468-.063 0-.117-.0157-.164-.0469-.063-.0156-.125-.0313-.188-.0469-.062-.0156-.117-.0312-.164-.0469-.062-.0312-.125-.0546-.187-.0703-.047-.0312-.11-.0625-.188-.0937-.187-.0782-.297-.1328-.328-.1641-.109-.0625-.219-.1328-.328-.2109-.25-.0938-.391-.1953-.422-.3047-.141-.0781-.219-.1172-.234-.1172 0-.0156-.008-.0234-.024-.0234-.156-.0782-.25-.1329-.281-.1641s-.063-.0625-.094-.0938c-.047-.0468-.101-.1015-.164-.164-.047-.0625-.094-.125-.141-.1875-.109-.1094-.179-.1719-.21-.1875-.016-.0156-.04-.0391-.071-.0703-.062-.1094-.109-.1797-.14-.211-.016-.0312-.032-.0625-.047-.0937-.11-.1563-.164-.2344-.164-.2344.015-.0156.015-.039 0-.0703-.047-.0781-.102-.1797-.164-.3047l-.164-.2109c-.094-.1407-.141-.2266-.141-.2578.015-.0313.008-.0625-.024-.0938-.078-.1094-.117-.1797-.117-.2109 0-.0469-.015-.0625-.047-.0469-.047-.1563-.078-.2578-.093-.3047-.016-.0469-.032-.0937-.047-.1406-.063-.1563-.102-.2344-.117-.2344.031-.0469.031-.0937 0-.1406-.032-.0469-.047-.0938-.047-.1406.015-.0625.007-.1172-.024-.1641-.015-.0625-.031-.1172-.047-.1641-.062-.2031-.093-.3359-.093-.3984.015-.0781 0-.1562-.047-.2344 0-.2031.008-.3125.023-.3281-.031-.0313-.047-.0625-.047-.0937.016-.0469.016-.1016 0-.1641-.047-.1563-.07-.2969-.07-.4219 0-.1406 0-.25 0-.3281 0-.1563.008-.2422.023-.2578.032-.0157.047-.0391.047-.0703-.015-.2344-.023-.375-.023-.4219.015-.0625.031-.125.047-.1875.015-.0469.031-.0938.047-.1406.031-.0625.039-.1172.023-.1641.063-.1094.086-.1953.07-.2578-.015-.0781-.015-.1563 0-.2344l.071-.3515c.015-.0626.039-.1172.07-.1641s.039-.1016.023-.1641c.079-.0312.11-.0781.094-.1406 0-.0625.008-.1328.024-.2109.078-.1875.117-.2969.117-.3282 0-.0312.008-.0625.023-.0937.11-.1875.172-.2969.188-.3281.015-.0313.031-.0625.047-.0938.031-.0469.054-.1015.07-.1641.031-.0624.062-.125.094-.1874.031-.0782.062-.1563.093-.2344.094-.1875.157-.3125.188-.375.047-.0625.086-.1328.117-.211.063-.1093.102-.1718.117-.1875.016-.0156.032-.039.047-.0703.047-.0468.078-.1094.094-.1875.031-.0781.062-.1484.094-.2109.109-.1406.172-.2188.187-.2344.016-.0312.039-.0547.07-.0703.063-.1094.094-.1641.094-.1641.016-.0156.032-.039.047-.0703.094-.0781.141-.125.141-.1406s.015-.0313.047-.0469c.125-.1562.211-.2578.257-.3047.032-.0468.063-.0859.094-.1171.047-.0469.094-.1016.141-.1641.125-.1094.187-.1719.187-.1875.016-.0156.024-.0313.024-.0469.109-.1094.172-.1719.187-.1875.016-.0156.031-.039.047-.0703.125-.125.195-.1953.211-.2109.031-.0313.063-.0625.094-.0938.078-.0937.14-.164.187-.2109l.141-.1875c.094-.0938.187-.1641.281-.211.094-.0468.164-.1093.211-.1875.141-.0781.219-.1171.235-.1171.031-.0157.062-.0313.093-.0469.141-.1094.235-.1953.281-.2578.188-.0938.297-.1563.329-.1875.031-.0469.086-.0704.164-.0704l.257-.1406c.126-.1094.204-.164.235-.164s.047-.0157.047-.0469c.172-.0938.258-.1406.258-.1406.015-.0157.039-.0313.07-.0469.062-.0781.148-.1328.258-.1641.109-.0469.187-.1093.234-.1875.125-.0625.211-.0937.258-.0937s.094-.0157.14-.0469c.126-.0938.211-.1484.258-.1641.063-.0312.11-.0468.141-.0468.047-.0157.086-.0391.117-.0703.203-.0938.32-.1563.352-.1876.187-.0468.297-.0781.328-.0937s.062-.0313.094-.0469c.109-.0312.171-.0468.187-.0468.016-.0157.039-.0235.07-.0235.235-.0312.383-.0703.446-.1172.062-.0469.148-.0625.257-.0469.141-.0624.219-.0859.235-.0703.031 0 .062-.0078.094-.0234.031.0313.07.0625.117.0937.062.0313.109.0626.14.0938.079.125.118.1953.118.2109 0 .0157.015.0391.046.0703.141.1563.211.2735.211.3516.094.1406.149.211.165.211.015 0 .023.0078.023.0234.109.1562.156.25.141.2812 0 .0157.007.0235.023.0235.047.125.117.2343.211.3281.125.2344.195.3828.211.4453.109.2188.172.3594.187.4219.032.0625.063.1328.094.2109.016.0938.055.1797.117.2578.063.1094.11.1953.141.2579.078.1562.117.2968.117.4218 0 .1094-.015.1875-.047.2344-.031.0469-.086.0859-.164.1172-.078.0156-.156.0312-.234.0469-.125.0312-.211.0547-.258.0703-.047 0-.102.0078-.164.0234l-.305.0703c-.109.0781-.226.1485-.351.211-.157.0625-.25.1015-.282.1171-.031 0-.062.0079-.093.0235-.078.0625-.164.1172-.258.1641-.094.0312-.18.0781-.258.1406-.109.0625-.172.1015-.187.1172 0 .0156-.008.0312-.024.0468-.047.0313-.094.0547-.14.0704-.047 0-.086.0156-.118.0468-.093.0313-.187.086-.281.1641-.094.0469-.172.1015-.234.1641-.032.0312-.071.0624-.117.0937-.047.0156-.086.0391-.118.0703-.172.1094-.273.1797-.304.211-.032.0156-.055.039-.071.0703-.14.125-.218.1875-.234.1875-.156.1093-.258.1953-.305.2578s-.086.1172-.117.164c-.031.0313-.07.0704-.117.1172-.031.0469-.063.1016-.094.1641zm.422 3.2109c-.156-.0468-.266-.0859-.328-.1172-.063-.0312-.149-.0546-.258-.0703-.156-.0156-.281-.0156-.375 0-.078.0157-.141.0235-.187.0235-.141.0156-.227.0312-.258.0468-.016 0-.032.0078-.047.0235-.156.0156-.25.0312-.281.0469-.032.0156-.063.039-.094.0703-.063.0625-.11.1093-.141.1406-.015.0156-.031.0312-.047.0469-.109.1093-.164.1718-.164.1875 0 0-.015.0156-.047.0468-.078.125-.109.2188-.093.2813-.11.125-.164.2109-.164.2578.015.0312.007.0469-.024.0469-.031.1875-.054.2969-.07.3281-.078.3125-.102.5469-.07.7031.015.1563.031.2422.046.2578.016 0 .024.0079.024.0235.047.125.086.2109.117.2578.031.0312.055.0625.07.0937.079.1407.125.2266.141.2579.172.2031.273.3203.305.3515.047.0313.086.0781.117.1406.047.0469.086.086.117.1172.188.1094.281.1719.281.1875.063 0 .118.0156.164.0469.047.0156.094.0313.141.0469.156.0625.25.1015.281.1172.032.0156.063.0234.094.0234h.258c.156-.0156.289-.0312.398-.0469.125-.0312.25-.0547.375-.0703.219-.125.375-.1953.469-.2109.094-.0157.156-.0547.188-.1172.156-.2188.25-.3594.281-.4219.031-.0781.062-.1562.093-.2344.079-.1875.118-.2968.118-.3281-.016-.1094-.016-.1875 0-.2344.015-.0625.023-.125.023-.1875-.015-.125-.023-.2187-.023-.2812-.047-.1406-.078-.2266-.094-.2578-.016-.0313-.024-.0625-.024-.0938-.046-.1875-.078-.2968-.093-.3281-.063-.1406-.102-.2109-.117-.2109 0-.0157 0-.0313 0-.0469-.094-.125-.157-.2031-.188-.2344-.031-.0469-.078-.0781-.141-.0937-.109-.1094-.203-.1875-.281-.2344-.062-.0469-.125-.1016-.187-.1641-.11-.0469-.188-.0859-.235-.1172-.031-.0312-.054-.0547-.07-.0703zm16.805-4.4062c.14.0937.211.1484.211.164.109.0625.172.1094.187.1407.031.0156.047.039.047.0703-.016.1406-.016.25 0 .3281.016.0625.008.1094-.023.1406-.047.1407-.071.2344-.071.2813.016.0312.016.0625 0 .0937 0 .0625-.008.1172-.023.1641v.164.2813.1406c.015.0313.023.0781.023.1407.032.1406.039.2343.024.2812 0 .0469.015.0938.047.1406-.032.0782-.047.1641-.047.2578 0 .0782-.024.1485-.071.211-.109.0625-.171.0781-.187.0468 0-.0312-.024-.039-.07-.0234-.11.0313-.219.0391-.329.0234-.093-.0156-.211-.0234-.351-.0234-.156 0-.274 0-.352 0-.062-.0156-.125-.0234-.187-.0234l-.75-.0235c-.172 0-.258 0-.258 0-.109 0-.227.0079-.352.0235-.109 0-.218 0-.328 0-.14-.0156-.234-.0156-.281 0-.031 0-.062 0-.094 0-.078 0-.148.0078-.211.0234-.062 0-.125 0-.187 0-.11-.0156-.211-.0156-.305 0-.078.0156-.148.0156-.211 0l-.398.0234c-.016.0157-.055.0235-.117.0235-.047 0-.102 0-.164 0-.094.0156-.196.0234-.305.0234-.203.0157-.344.0235-.422.0235-.062-.0157-.133-.0235-.211-.0235-.141 0-.227 0-.258 0-.031-.0156-.062-.0234-.093-.0234-.172-.0156-.274-.0235-.305-.0235-.031-.0156-.086-.0156-.164 0-.157-.0156-.281-.0234-.375-.0234s-.18 0-.258 0c-.063 0-.125.0078-.188.0234-.046 0-.109 0-.187 0-.109.0313-.211.0469-.305.0469-.078 0-.156 0-.234 0-.141 0-.227.0078-.258.0235-.016 0-.039-.0078-.07-.0235-.235-.0625-.367-.1015-.399-.1172-.093-.0937-.14-.1484-.14-.164 0-.0313-.008-.0625-.024-.0938-.062-.1719-.109-.2734-.14-.3047-.016-.0312-.024-.0625-.024-.0937-.031-.0781-.039-.1563-.023-.2344.015-.0937.023-.1875.023-.2812 0-.1719-.008-.336-.023-.4922 0-.1563.008-.3125.023-.4688.031-.0937.047-.1797.047-.2578-.016-.1406-.008-.2265.024-.2578.062-.1094.101-.1719.117-.1875.031-.0156.07-.0391.117-.0703.156-.0469.242-.0703.258-.0703.031-.0156.054-.0235.07-.0235.141-.0156.242 0 .305.0469.156 0 .304-.0078.445-.0234.156-.0313.312-.0391.469-.0235.047 0 .093.0079.14.0235h.188c.125.0156.211.0234.258.0234.047-.0156.086-.0234.117-.0234.172-.0156.258-.0156.258 0h.07c.281.0156.484.0156.609 0 .125-.0313.235-.0156.329.0468.187-.0156.296-.0234.328-.0234.031 0 .062.0156.093.0469.157 0 .243.0078.258.0234h.047c.188.0157.297.0235.328.0235.047-.0157.102-.0157.164 0 .078 0 .133.0078.164.0234h.094.258.164c.047-.0156.086-.0234.117-.0234.188.0156.305.0234.352.0234.047-.0156.093-.0234.14-.0234h.469c.094-.0157.195-.0235.305-.0235h.187c.078-.0156.141-.0234.188-.0234.078-.0156.156-.0156.234 0s.156.0156.234 0c.172-.0156.29-.0313.352-.0469.078-.0156.148-.0234.211-.0234.031.0156.07.0234.117.0234.063 0 .11.0078.141.0234.125 0 .195.0079.211.0235h.047zm.492 5.3203-.047.2812v.3282c0 .1093.008.1875.023.2343.032.0313.055.0625.071.0938-.016.0625-.024.1172-.024.164 0 .0313.008.0704.024.1172-.016.2032-.032.336-.047.3985 0 .0469-.016.1093-.047.1875-.078 0-.156.0078-.234.0234s-.157.0234-.235.0234c-.047 0-.093-.0078-.14-.0234s-.094-.0234-.141-.0234-.094 0-.141 0-.109-.0078-.187-.0235c-.047 0-.094 0-.141 0-.047-.0156-.093-.0234-.14-.0234-.079 0-.157.0156-.235.0469-.062.0156-.133.0234-.211.0234s-.179-.0156-.304-.0469c-.141-.0156-.282-.0156-.422 0-.125.0157-.25.0313-.375.0469-.156.0313-.336.0469-.539.0469-.203-.0156-.399-.0156-.586 0-.078 0-.149.0078-.211.0234-.063 0-.133.0078-.211.0235-.078 0-.156.0078-.235.0234-.062 0-.132 0-.21 0-.079-.0156-.149-.0312-.211-.0469-.063-.0156-.133-.0234-.211-.0234-.125-.0156-.242-.0156-.352 0-.078 0-.164.0078-.258.0234-.078.0157-.156.0157-.234 0-.156-.0469-.242-.0703-.258-.0703-.187.0625-.305.0938-.351.0938-.047-.0157-.086-.0235-.118-.0235-.078 0-.148.0078-.211.0235-.046.0156-.093.0234-.14.0234-.078.0156-.156.0156-.235 0-.062-.0156-.132-.0234-.211-.0234-.109 0-.203 0-.281 0-.062 0-.125 0-.187 0l-.492-.0469c-.141.0312-.243.0391-.305.0234l-.469-.1875c-.094-.125-.14-.2031-.14-.2344-.047-.0781-.071-.1406-.071-.1874.016-.0469.016-.086 0-.1172l-.023-.4219c-.016-.1094-.032-.2188-.047-.3281 0-.125 0-.2422 0-.3516-.016-.1719-.016-.2969 0-.375-.031-.125-.031-.2344 0-.3281l.07-.2578c.031-.0938.055-.1485.071-.1641.031-.0156.054-.0391.07-.0703.187-.0313.289-.0547.304-.0703.016-.0156.04-.0313.071-.0469.062-.0156.133-.0156.211 0s.133.0234.164.0234c.14-.0312.226-.039.258-.0234h.093c.235.0156.438.0234.61.0234.109.0157.211.0235.304.0235.11-.0156.211-.0156.305 0 .172.0312.266.039.281.0234.016-.0156.039-.0234.071-.0234.047 0 .101.0078.164.0234h.164.117c.047-.0156.094-.0234.141-.0234h.281c.109 0 .187.0078.234.0234h.188c.125-.0156.195-.0156.211 0 .031 0 .054-.0156.07-.0469.062.0313.125.0469.188.0469.062 0 .117.0078.164.0234h.375c.078 0 .156.0079.234.0235.078 0 .156.0078.234.0234h.493.703.562c.172-.0156.297-.0234.375-.0234.078-.0156.141-.0235.188-.0235.078-.0156.156-.0234.234-.0234h.258c.156-.0156.281-.0234.375-.0234h.305c.046 0 .093.0078.14.0234h.117c.172.0625.258.0938.258.0938.016 0 .031.0078.047.0234.078.1406.117.2188.117.2344.016.0156.024.0312.024.0468-.032.0938-.047.1563-.047.1876.015.0312.023.0624.023.0937-.047.1719-.078.2734-.094.3047-.015.0312-.023.0625-.023.0937zm9.961-9.8438c.062.1407.156.2344.281.2813.125.1406.203.2344.234.2812.047.0469.094.0938.141.1407.109.0781.164.125.164.1406.016.0156.024.0312.024.0469.125.125.203.2031.234.2343.078.1407.133.2266.164.2579.047.0312.07.0859.07.164.157.1719.242.2734.258.3047.11.1563.164.25.164.2813.016.0312.031.0624.047.0937.031.0469.047.1016.047.1641 0 .0468.016.1015.047.164.047.125.078.1953.094.211.015 0 .031.0156.046.0468.047.125.071.2032.071.2344.015.0156.039.0391.07.0703 0 .0781.016.1797.047.3047.016.1875.031.3047.047.3516.015.0312.023.0703.023.1172 0 .2187.031.3593.094.4218-.031.0782-.039.1563-.023.2344.015.0625.031.1406.046.2344.016.1406.008.2578-.023.3516-.031.0937-.047.1718-.047.2343s-.008.1172-.023.1641c-.016.0625-.032.1172-.047.164-.016.0469-.031.1016-.047.1641-.031.0625-.047.125-.047.1875 0 .0469-.008.1094-.023.1875l-.188.5156c-.031.0625-.062.125-.094.1875-.015.0625-.039.125-.07.1875-.094.1563-.156.2579-.187.3047-.032.0469-.063.0938-.094.1406-.125.1719-.203.2657-.235.2813-.015 0-.031.0156-.046.0469-.157.2187-.258.3437-.305.375l-.258.164c-.109.1094-.187.1875-.234.2344s-.102.1016-.164.1641c-.172.1093-.289.2343-.352.375-.062.0156-.156.0547-.281.1172-.11.0625-.172.1015-.188.1171-.015.0157-.039.0313-.07.0469-.094.0313-.156.0469-.187.0469-.016 0-.04.0078-.071.0234-.031.0157-.078.0391-.14.0704-.063.0312-.11.0703-.141.1171.016.1407.016.2188 0 .2344v.0703c.016.1563.023.2656.023.3282-.047.125-.07.2343-.07.3281.016.0937.031.1875.047.2812 0 .125-.008.2344-.024.3281 0 .0782.008.1876.024.3282.016.0312.023.0859.023.164v.1875c-.031.0313-.07.0703-.117.1172-.031.0469-.07.086-.117.1172-.156.0313-.25.0547-.281.0703-.016.0156-.039.0235-.071.0235-.187-.0157-.32-.0157-.398 0-.078 0-.156 0-.234 0l-.493-.0235c-.078 0-.14.0078-.187.0235-.047 0-.102-.0157-.164-.0469-.063.0312-.172.0312-.328 0-.031 0-.078.0078-.141.0234-.047 0-.086 0-.117 0-.094.0156-.211.0235-.352.0235-.14 0-.273.0078-.398.0234-.094 0-.195 0-.305 0-.094-.0156-.179-.0156-.258 0-.046 0-.093.0078-.14.0234-.047.0157-.11.0079-.188-.0234-.109-.0313-.195-.0469-.258-.0469-.046 0-.078 0-.093 0-.016-.0625-.031-.1094-.047-.1406s-.039-.0625-.07-.0938c-.047-.1718-.071-.2578-.071-.2578 0-.1718-.008-.2812-.023-.3281 0-.0625 0-.1484 0-.2578.015-.25.008-.4141-.024-.4922v-.5156c-.015-.1406-.023-.2266-.023-.2578.016-.0313.023-.0625.023-.0938.016-.0625.024-.125.024-.1875s0-.125 0-.1875c-.031-.1562-.047-.25-.047-.2812.016-.0313.023-.0703.023-.1172 0-.0313 0-.0781 0-.1406.016-.0782.024-.1329.024-.1641 0-.1094 0-.1953 0-.2578.015-.0625.008-.125-.024-.1875.047-.1875.055-.3203.024-.3985-.016-.0937-.008-.1796.023-.2578.078-.1093.117-.1875.117-.2343.047-.1094.079-.1719.094-.1875.016-.0157.016-.0391 0-.0704.063-.0312.102-.0624.117-.0937.032-.0469.063-.0859.094-.1172.156-.0937.274-.1484.352-.1641.078-.0312.164-.0703.257-.1171.204-.0625.329-.1016.376-.1172.046-.0157.101-.0313.164-.0469.046-.0156.086-.0234.117-.0234.047 0 .093-.0078.14-.0235.157-.0625.235-.1015.235-.1172.078.0157.187 0 .328-.0468.094-.0625.148-.0938.164-.0938.016-.0156.039-.0234.07-.0234.125-.0781.203-.1328.235-.1641.031-.0312.062-.0547.093-.0703.047-.0313.086-.0625.118-.0937.171-.1563.304-.2813.398-.375.062-.1094.094-.1797.094-.211.015-.0312.031-.0625.047-.0937l.047-.2579c.046-.1562.054-.2968.023-.4218-.016-.1406-.039-.25-.07-.3282-.079-.1406-.118-.2109-.118-.2109 0-.0156-.007-.0234-.023-.0234-.078-.0938-.133-.1407-.164-.1407s-.055-.0156-.07-.0468c-.063-.0156-.172-.0547-.328-.1172-.063-.0313-.149-.0469-.258-.0469-.125.0156-.203.0235-.235.0235-.031-.0157-.078-.0235-.14-.0235-.032.0156-.071.0313-.117.0469-.032.0156-.079.0312-.141.0469-.219.0937-.352.164-.399.2109-.046.0312-.101.0625-.164.0938-.078.1093-.132.1796-.164.2109-.031.0156-.054.0391-.07.0703-.047.0469-.086.0938-.117.1406-.031.0313-.063.0625-.094.0938-.016.0781-.047.1406-.094.1875s-.07.1172-.07.2109l-.234.1406c-.11.0938-.203.1407-.282.1407-.078-.0157-.148-.0157-.211 0-.125-.0625-.187-.1016-.187-.1172 0-.0157-.016-.0235-.047-.0235-.109-.0937-.18-.1406-.211-.1406s-.062-.0156-.094-.0469c-.109-.0312-.179-.0547-.211-.0703-.031-.0312-.07-.0625-.117-.0937-.172-.0313-.258-.0547-.258-.0703-.125-.0782-.203-.1328-.234-.1641-.156-.0625-.258-.1016-.305-.1172-.031-.0312-.062-.0547-.093-.0703-.172-.0625-.289-.1094-.352-.1406-.047-.0313-.101-.0625-.164-.0938-.156-.0781-.297-.164-.422-.2578-.031-.0156-.078-.0312-.141-.0469-.046-.0156-.085-.039-.117-.0703-.187-.0468-.343-.1328-.468-.2578.062-.1406.085-.2187.07-.2344-.016-.0156-.024-.039-.024-.0703l.071-.2812c.078-.1719.14-.2813.187-.3281.063-.0469.102-.1094.117-.1876.079-.0937.118-.1562.118-.1874 0-.0313.007-.0626.023-.0938.094-.1094.149-.1797.164-.2109.016-.0469.031-.0938.047-.1407.078-.0937.117-.1562.117-.1875 0-.0312.008-.0547.024-.0703.109-.125.171-.2031.187-.2344.031-.0468.063-.0859.094-.1171.047-.125.086-.2032.117-.2344.031-.0313.063-.0625.094-.0938.047-.0312.07-.0781.07-.1406.047-.0156.078-.0391.094-.0703.031-.0469.062-.0859.094-.1172.14-.1406.226-.2266.257-.2578.032-.0312.063-.0625.094-.0938.172-.1562.297-.25.375-.2812.094-.0938.219-.1719.375-.2344s.242-.1015.258-.1172c.031-.0312.062-.0546.094-.0703.14-.0312.258-.0469.351-.0469.203-.0468.399-.1171.586-.2109.235-.0781.438-.125.61-.1406.14.0156.218.0234.234.0234.031-.0156.063-.0234.094-.0234.172-.0469.289-.0625.351-.0469h.164c.078 0 .157.0078.235.0234h.211c.125 0 .195-.0078.211-.0234.031-.0156.062-.0234.093-.0234.125.0312.196.0468.211.0468.016-.0156.039-.0078.071.0235.078-.0156.172-.0078.281.0234.062.0157.117.0313.164.0469.047 0 .101.0078.164.0234.047.0313.094.0625.141.0938.046.0156.093.0312.14.0469.156.0625.25.0937.282.0937.046 0 .093.0156.14.0469.11.0625.172.0937.188.0937.015 0 .039.0078.07.0235.062.0312.125.0547.187.0703.063 0 .118.0156.165.0469.156.0781.242.125.257.1406.032.0156.063.0312.094.0469.109.0781.18.1328.211.164.125.0938.188.125.188.0938.015-.0469.039-.0547.07-.0235zm-2.203 13.4766c.047.0313.086.0547.117.0703.047.0156.094.0234.14.0234.079.0782.188.1407.329.1876.109.0781.179.1328.211.164.109.1094.179.1953.21.2578.079.125.126.2032.141.2344.031.0312.055.0625.07.0938l.094.3515v.2578c-.015.0625-.023.1485-.023.2578-.032.1719-.055.2735-.071.3047v.0703c-.031.0313-.062.0625-.093.0938-.016.0312-.039.0703-.071.1172-.078.125-.171.25-.281.375-.109.1093-.242.2031-.398.2812-.125.0938-.235.1641-.328.211-.157.0312-.25.0547-.282.0703-.015.0156-.039.0312-.07.0468-.156.0157-.242.0157-.258 0 0 0-.015.0079-.047.0235-.062 0-.117.0078-.164.0234-.047.0157-.086.0235-.117.0235-.156-.0157-.242-.0235-.258-.0235-.078-.0156-.172-.0234-.281-.0234-.109.0156-.203.0078-.281-.0235-.125-.0468-.219-.0703-.282-.0703-.062.0157-.124.0079-.187-.0234-.063-.0156-.141-.0547-.234-.1172-.079-.0312-.149-.0547-.211-.0703-.047-.0312-.11-.0625-.188-.0938-.203-.1406-.336-.2421-.398-.3046-.063-.0782-.11-.1719-.141-.2813-.078-.0312-.117-.0703-.117-.1172 0-.0625-.031-.125-.094-.1875-.047-.1718-.07-.2656-.07-.2812.016-.0156.023-.0391.023-.0703 0-.1719-.007-.2657-.023-.2813 0-.0156.008-.039.023-.0703.063-.125.094-.2344.094-.3281.016-.0938.047-.1797.094-.2578.109-.1094.172-.1797.187-.211.016-.0312.039-.0625.071-.0937.078-.1094.14-.1797.187-.211.141-.125.227-.1953.258-.2109.047-.0156.086-.0391.117-.0703.125-.0313.235-.0703.328-.1172.203-.0937.391-.1563.563-.1875l.539-.0234c.234 0 .445.0234.633.0703.172.0312.257.0547.257.0703s.008.0234.024.0234c.047.0156.094.0235.141.0235.046 0 .085.0078.117.0234z" fill="#693821"/></svg>