<svg fill="none" height="181" viewBox="0 0 231 181" width="231" xmlns="http://www.w3.org/2000/svg"><g fill="#6a290b"><path d="m98.5248 8.4349c-41.8476 13.2622-74.4094 41.3892-89.60001 75.8668-14.50457 32.8953-12.20151 76.6083 33.39481 91.2323 47.0174 15.085 99.8664-3.185 135.5884-28.828 35.698-25.603 64.781-65.1488 48.414-104.9153-7.963-19.3324-26.094-34.03694-50.325-39.42595-28.323-6.31055-57.308.70117-81.7108 12.84145-3.3322 1.6628-.294 5.95 3.0626 4.2872 21.9772-10.8181 47.4342-17.58942 73.1602-13.06185 23.178 4.06685 41.235 17.18875 49.296 35.33905 16.072 36.1405-8.747 72.5614-40.353 97.1624-31.386 24.401-76.492 42.952-120.7657 35.78-24.354-3.947-43.6853-15.786-50.34954-35.84-5.39022-16.207-2.86661-33.636 3.18514-49.4828 13.549-35.4793 46.5273-64.4677 87.4194-80.13393.5636-.22037.1716-1.0217-.4165-.82137z"/><path d="m197.567 142.445c-4.642 1.9-11.307 6.995-11.56 12.028-.275 5.596 7.125 6.431 11.399 4.761 5.125-2.005 10.779-6.933 11.537-12.174.368-2.443-1.08-4.573-3.562-5.533-3.079-1.212-6.182-.105-9.078 1.023-2.757 1.086-.367 4.823 2.367 3.696 1.264-.627 2.597-.982 4.022-1.086 1.402 1.399 1.632 2.694.644 3.925-.414 1.024-1.448 2.109-2.206 2.903-1.885 1.921-4.528 4.03-7.401 4.427-3.562.501-5.01-1.9-3.424-4.782.506-.919 1.103-1.817 1.77-2.673 1.723-2.213 3.93-3.905 6.251-5.596.62-.438-.161-1.169-.759-.919z"/><path d="m206.709 167.377c-3.307 1.521-7.205 4.522-5.126 8.316 2.173 3.944 8.197 2.122 10.961-.215 2.882-2.421 3.519-6.944.33-9.409-2.74-2.122-7.63-.964-8.315 2.401-.378 1.865 2.575 2.679 3.189.793.567-1.715 2.93-1.243 3.496.193.662 1.693-.59 3.322-2.078 4.244-1.465.9-4.63 1.95-4.843-.536-.165-1.929 1.937-3.494 3.307-4.694.662-.579-.165-1.436-.921-1.093z"/><path d="m49.2578 141.169c-2.2289 9.866-1.3981 19.895 1.7223 29.477.2026.628 1.1954.345.9928-.263-3.2014-9.603-3.708-19.105-2.2491-29.072.0405-.304-.4052-.446-.466-.142z"/><path d="m217.027 50.3131c3.272 5.8824 5.65 12.0017 7.242 18.4368.109.4342.829.2566.72-.1777-1.636-6.4548-4.188-12.5939-7.569-18.4565-.153-.2566-.523-.0395-.393.1974z"/><path d="m218.054 46.4374c7.271 10.1834 10.603 21.141 9.554 33.0713-.046.6551 1.142.6551 1.212 0 1.026-11.9104-2.33-23.4238-10.16-33.369-.257-.3177-.839-.0397-.606.2977z"/></g><path d="m75.7812 82.0938c.1876.1093.3047.164.3516.164.0625-.0156.1172-.0156.1641 0 .1875.0469.3359.086.4453.1172.0312.0156.0703.0391.1172.0703.0625.0313.125.0625.1875.0938.1719.125.3125.2031.4219.2343.0312.0469.0624.0782.0937.0938.0469.0156.0859.039.1172.0703.1562.0937.2422.1484.2578.1641.0156 0 .0313.0078.0469.0234.0312.0312.0625.0625.0937.0938.0469.0156.086.039.1172.0703.0781.0781.1172.1328.1172.164.0156.0313.0391.0625.0703.0938.1406.1406.2344.2187.2813.2343.1093.2032.1797.3516.2109.4454.0469.0781.0859.164.1172.2578.0625.125.0937.1953.0937.2109s.0079.0391.0235.0703c.0156.0469.0312.0938.0468.1406.0313.0313.0547.0704.0704.1172 0 .125.0078.2032.0234.2344.0156.0156.0234.0391.0234.0703.0157.1094.0157.211 0 .3047 0 .0938.0078.1797.0235.2578.0156.0782.0312.1485.0469.211.0156.0468.0312.1172.0468.2109-.0156.125-.0234.2109-.0234.2578s-.0156.0938-.0469.1406c.0313.0782.0391.1797.0235.3047l-.1172.2813c-.0782.1875-.1094.2812-.0938.2812s.0156.0157 0 .0469c-.0312.0312-.0469.0781-.0469.1406 0 .0469-.0234.0782-.0703.0938 0 .0937-.0234.164-.0703.2109-.0312.0469-.0469.1172-.0469.2109-.0781.0626-.1328.1407-.164.2344-.0313.0938-.086.1719-.1641.2344-.0469.1094-.0859.1797-.1172.2109-.0156.0157-.039.0391-.0703.0703-.125.1407-.2344.2422-.3281.3047-.0469.0469-.1016.1016-.1641.1641-.0468.0625-.1015.1172-.164.1641-.1407.0781-.2188.125-.2344.1406s-.0391.0234-.0703.0234c-.0938.1094-.1641.1719-.211.1875-.0312 0-.0625.0156-.0937.0469-.1094.0625-.1875.1328-.2344.2109-.1562.0938-.2578.1407-.3047.1407s-.1015.0156-.164.0468c-.1094.0782-.1953.1172-.2579.1172-.125.0938-.1953.1407-.2109.1407 0-.0157-.0078-.0157-.0234 0-.1094.0624-.1797.1015-.211.1171-.0156 0-.0468.0079-.0937.0235-.1563.0468-.2422.0781-.2578.0937 0 0-.0078 0-.0235 0-.1406.0469-.2343.0781-.2812.0938-.0469.0312-.1016.0547-.1641.0703s-.125.0234-.1875.0234c-.0469 0-.0859.0156-.1172.0469-.1406.0156-.2343.0234-.2812.0234-.0313 0-.0781.0079-.1406.0235-.2032.0468-.3438.0703-.4219.0703s-.1563.0234-.2344.0703c-.0781-.0156-.164-.0156-.2578 0-.0781.0156-.1562.0234-.2344.0234l-.4453-.0234c-.0469 0-.0937 0-.1406 0-.0469.0156-.0938.0234-.1406.0234-.0625 0-.125-.0078-.1875-.0234s-.125-.0234-.1875-.0234c-.125-.0157-.1953-.0235-.211-.0235 0 .0157-.0156.0235-.0469.0235-.2031 0-.375-.0235-.5156-.0704-.1406-.0312-.2578-.0312-.3515 0-.1563-.0624-.25-.0937-.2813-.0937-.1562-.0313-.2422-.0547-.2578-.0703 0-.0156-.0156-.0234-.0469-.0234l-.3047-.0938c-.1406-.0469-.2343-.0781-.2812-.0938-.0469-.0312-.0938-.039-.1406-.0234-.0313-.0469-.0782-.0781-.1407-.0937-.0625-.0313-.125-.0625-.1875-.0938-.1718-.0781-.289-.125-.3515-.1406-.0469-.0313-.086-.0781-.1172-.1406-.1094-.0469-.1797-.0703-.2109-.0703-.0313 0-.0547-.0079-.0704-.0235-.1093-.0937-.1796-.1484-.2109-.1641-.1719-.125-.2734-.2031-.3047-.2343-.0312-.0469-.0625-.086-.0937-.1172-.0625 0-.1094-.0156-.1407-.0469-.0312-.0312-.0625-.0625-.0937-.0937-.0938-.125-.1563-.1875-.1875-.1875-.1094-.0782-.1797-.1328-.211-.1641-.0312-.0156-.0624-.0391-.0937-.0703-.0313-.0469-.0625-.086-.0937-.1172-.125-.125-.1876-.2031-.1876-.2344 0-.0312-.0156-.0625-.0468-.0937-.1719-.1407-.2578-.2266-.2578-.2578-.0625-.0938-.1094-.1485-.1407-.1641-.0156-.0312-.0312-.0625-.0468-.0938-.0938-.1562-.1485-.2578-.1641-.3046 0-.0625-.0156-.1172-.0469-.1641-.0156-.0313-.039-.0703-.0703-.1172-.0156-.0469-.0312-.0937-.0469-.1406-.0156-.1563-.0312-.25-.0468-.2813-.0157-.0312-.0313-.0625-.0469-.0937-.0156-.2344-.0313-.4063-.0469-.5156-.0156-.1094-.0156-.2266 0-.3516.0156-.1719.0235-.2734.0235-.3047.0156-.0469.0234-.0859.0234-.1172 0-.1718.0156-.2734.0469-.3047.0468-.2812.1171-.4687.2109-.5625.0312-.1093.0469-.1796.0469-.2109.0156-.0469.0469-.0703.0937-.0703.0156-.0781.0156-.1328 0-.1641 0-.0312.0078-.0625.0235-.0937.0625-.0782.0937-.1328.0937-.1641.0156-.0469.0313-.0859.0469-.1172l.2578-.2578c.0313-.0312.0625-.0625.0937-.0937l.1876-.2344c.1093-.1406.1874-.2266.2343-.2578.0625-.0469.125-.1016.1875-.1641.1563-.1094.2344-.1719.2344-.1875l.0469-.0469c.0937-.0781.1484-.125.164-.1406.0313-.0312.0703-.0547.1172-.0703.1094-.0938.1875-.1641.2344-.2109.125-.0938.2031-.1485.2344-.1641.0469-.0312.0859-.0547.1172-.0703.0468-.0781.1093-.125.1875-.1406.0937-.0313.1718-.0782.2343-.1407-.0312-.0312-.0781-.039-.1406-.0234-.0469 0-.0859-.0156-.1172-.0469-.0469-.0156-.0937-.039-.1406-.0703-.0313-.0312-.0625-.0625-.0937-.0937-.1876-.0782-.3047-.1172-.3516-.1172-.0469-.0157-.0938-.0391-.1406-.0703-.1094-.1094-.1797-.1641-.211-.1641-.0937-.0625-.1562-.1016-.1875-.1172-.0156-.0156-.039-.0391-.0703-.0703-.1562-.125-.2422-.1875-.2578-.1875-.0312-.0625-.0938-.1406-.1875-.2344-.0313-.0469-.0703-.0781-.1172-.0937-.0312-.0313-.0625-.0625-.0937-.0938-.125-.1562-.2032-.2656-.2344-.3281-.0313-.0313-.0625-.0781-.0938-.1406-.0156-.0625-.0546-.1094-.1172-.1407-.0624-.1562-.0937-.25-.0937-.2812 0-.0469-.0234-.0781-.0703-.0938.0312-.0468.0156-.0937-.0469-.1406-.0469-.0468-.0703-.1015-.0703-.164-.1094-.1719-.1641-.2813-.1641-.3282.0157-.0625.0235-.1172.0235-.164-.0156-.0782-.0391-.1563-.0703-.2344-.0313-.0781-.0547-.1641-.0703-.2578-.0157-.125-.0313-.211-.0469-.2578 0-.0469 0-.1094 0-.1875 0-.0625.0078-.1172.0234-.1641.0313-.0469.0391-.1094.0235-.1875.0468-.1094.0781-.1875.0937-.2344.0156-.0468.0313-.0937.0469-.1406.0156-.0625.0234-.1172.0234-.1641 0-.0468.0078-.0937.0234-.1406.0626-.1718.1016-.2812.1172-.3281.0313-.0469.0547-.1094.0704-.1875.0781-.125.1484-.2031.2109-.2344.1406-.2031.2578-.3672.3515-.4922.0626-.1093.125-.1953.1876-.2578.0624-.0625.1328-.1328.2109-.2109.1094-.0938.1797-.1485.2109-.1641.0313-.0156.0625-.0312.0938-.0468.0468-.0313.0859-.0626.1172-.0938.0312-.0469.0703-.0859.1172-.1172.1718-.0781.289-.1719.3515-.2812.0625 0 .1016-.0157.1172-.0469.0313-.0469.0625-.0859.0937-.1172.1563-.0781.2422-.1172.2579-.1172.1093-.0625.1797-.0937.2109-.0937.0312-.0157.0469-.0391.0469-.0704.1406-.0468.2265-.0703.2578-.0703.0312-.0312.0703-.0547.1172-.0703.0625-.0312.1093-.0625.1406-.0937.1563-.0313.2734-.0469.3516-.0469.3125-.125.5859-.1953.8203-.2109.0781-.0157.1484-.0313.2109-.0469.0781-.0156.1641-.0078.2578.0234.0781-.0781.1407-.125.1875-.1406.0625-.0312.125-.0312.1875 0l.4219-.0469c.1562-.0312.2656-.039.3281-.0234s.1172.0234.1641.0234c.0312 0 .0625-.0078.0937-.0234.0469-.0156.1016-.0235.1641-.0235s.1719.0157.3281.0469c.1094 0 .2031.0235.2813.0703.0937-.0312.2031-.0312.3281 0 .1406.0157.2734.0313.3984.0469.0782.0156.1563.0235.2344.0235.0938 0 .1797.0156.2578.0468l.2813.0938c.0312.0156.0625.0312.0937.0468.0469.0157.0938.0391.1407.0704.1093.0625.1874.0937.2343.0937s.086.0156.1172.0469c.1406 0 .2109.0156.2109.0469.0157.0156.0391.0234.0704.0234.0781.0313.1406.0625.1875.0937.0625.0157.125.0391.1875.0704.1718.0937.2734.164.3046.2109.0469.0313.1094.0313.1876 0 .1562.0937.2421.1406.2578.1406.0312-.0156.0625-.0156.0937 0 .125.1407.1875.2188.1875.2344.1875.0781.2969.1172.3281.1172.1407.125.2188.1953.2344.2109.0313.0156.0625.0235.0938.0235.0156.0468.039.0859.0703.1171.0468.0157.0859.0391.1172.0704.1093.0781.1796.1328.2109.164.0313.0313.0625.086.0937.1641.0626.0156.1172.0547.1641.1172s.1016.125.1641.1875c.1094.0781.164.1328.164.164 0 .0157.0157.0391.0469.0704.0625.0937.1016.1718.1172.2343.0313.0469.0547.086.0703.1172.0625.1719.0938.2578.0938.2578l.1172.2344c.0312.1406.0468.2187.0468.2344.0156 0 .0313.0156.0469.0469.0156.0624.0234.1171.0234.164s.0157.0938.0469.1406c0 .0625.0078.1172.0234.1641.0157.0469.0235.0937.0235.1406-.0313.1719-.0469.2735-.0469.3047.0156.0156.0234.0391.0234.0703 0 .0781-.0156.1641-.0468.2578-.0156.0782-.0078.1563.0234.2344-.0312.1563-.0625.2813-.0937.375-.0469.125-.086.2109-.1172.2578-.0157.0313-.0313.0625-.0469.0938-.0312.0937-.0547.1562-.0703.1875-.0156.0312-.0235.0703-.0235.1172-.1093.1406-.1718.2265-.1874.2578 0 .0156-.0079.039-.0235.0703-.0625.0937-.1094.1484-.1406.1641-.0156.0156-.0313.0312-.0469.0468-.125.125-.2187.2266-.2812.3047s-.125.1485-.1875.2109c-.0782.0938-.1329.1719-.1641.2344-.0312.0313-.0781.0625-.1406.0938-.0469.0312-.086.0781-.1172.1406-.0625 0-.1094.0234-.1406.0703-.0313.0313-.0704.0625-.1172.0938l-.3282.2109c-.0624.0312-.1562.0938-.2812.1875-.0312.0156-.0781.0234-.1406.0234-.0469 0-.086.0079-.1172.0235-.0625.0156-.1172.039-.1641.0703-.0469.0156-.0937.0391-.1406.0703-.1094.0625-.1797.0938-.2109.0938-.0157-.0157-.0391-.0157-.0704 0zm-2.625-5.0626c-.125-.0312-.2421-.0468-.3515-.0468-.1563.0312-.2656.0468-.3281.0468-.0625-.0156-.1172-.0234-.1641-.0234-.0781 0-.1641.0078-.2578.0234-.0938 0-.1875.0079-.2813.0235-.1718.0469-.289.0781-.3515.0937-.0469 0-.0938.0157-.1407.0469-.125.0625-.2031.1094-.2343.1406-.0313.0157-.0625.0313-.0938.0469-.125.1406-.2187.2422-.2812.3047s-.1172.1172-.1641.1641c-.125.1718-.1953.2734-.2109.3046-.0313.0938-.0469.2032-.0469.3282-.0156.1562-.0234.289-.0234.3984 0 .0938.0234.1875.0703.2813l.2109.2109c.0938.0938.1641.1719.211.2344.0624.0156.1093.039.1406.0703.0468.0312.0937.0625.1406.0937.2031.0938.3359.1485.3984.1641l.2578.1172c.1876.0469.3047.0703.3516.0703h.1641c.0781.0312.1719.0469.2812.0469.1094 0 .1953.0156.2578.0469.0625-.0313.1094-.0469.1407-.0469.0468-.0157.1093-.0391.1875-.0703.1562-.1094.25-.1719.2812-.1875.125-.0313.2109-.0703.2578-.1172.1407-.0938.2266-.1407.2578-.1407.125-.0937.1875-.1484.1875-.164s.0157-.0234.0469-.0234c.0313-.0469.0938-.1172.1875-.211.1563-.0937.2266-.1406.211-.1406 0-.0156.0078-.0234.0234-.0234.0625-.1876.0937-.2813.0937-.2813.0157 0 .0235-.0078.0235-.0234.0781-.1094.1015-.2344.0703-.375 0-.1719-.0156-.2813-.0469-.3282-.0156-.0468-.0234-.0937-.0234-.1406-.0469-.0469-.1016-.0937-.1641-.1406-.0469-.0469-.0859-.0859-.1172-.1172-.125-.1094-.1953-.1719-.2109-.1875 0-.0312-.0078-.0547-.0234-.0703-.1563-.0625-.25-.1094-.2813-.1406-.0625-.0313-.1172-.0547-.1641-.0703-.0468-.0157-.0937-.0391-.1406-.0704-.0625-.0156-.1172-.0312-.164-.0468-.0469-.0313-.1094-.0547-.1876-.0704zm-.6796 6.5626-.3282.0703c-.0468.0312-.0937.0625-.1406.0937-.0312.0313-.0625.0547-.0937.0703-.1094.0625-.1719.1016-.1875.1172-.0157 0-.0313.0078-.0469.0235-.0938.0624-.1563.1015-.1875.1171-.0156 0-.0391.0079-.0703.0235-.1407.1562-.2266.2422-.2578.2578-.0157 0-.0313.0156-.0469.0469-.0469.1093-.1094.2031-.1875.2812-.125.125-.1875.1953-.1875.2109.0156.0157.0156.0313 0 .0469-.0469.1407-.086.2344-.1172.2813-.0156.0312-.0391.0625-.0703.0937-.0313.0938-.0469.1953-.0469.3047.0156.0938.0234.1797.0234.2578-.0156.1094-.0234.1875-.0234.2344.0156.0312.0234.0625.0234.0938.0782.1718.1172.2734.1172.3046 0 .0313.0078.0625.0235.0938.0781.1406.125.2109.1406.2109.0313 0 .0391.0157.0234.0469l.2813.2812c.0625.0157.1172.0391.164.0704.0626.0156.1329.039.211.0703.125.0312.2656.0703.4219.1172.1718.0312.3359.0547.4921.0703.0469 0 .0938.0078.1407.0234.0625.0156.1172.0234.164.0234.2188-.0312.3438-.0546.375-.0703.0782-.0156.1329-.0312.1641-.0468.0469-.0157.0938-.0391.1406-.0703.1875-.0782.2891-.1172.3047-.1172.0313 0 .0625-.0078.0938-.0235.1718-.125.2656-.1875.2812-.1875.0156-.0156.0313-.039.0469-.0703.125-.125.1953-.1875.2109-.1875l.1875-.2109c.0782-.0938.125-.1407.1406-.1407.0157-.0156.0313-.039.0469-.0703.0938-.2343.1641-.375.211-.4218-.0157-.0625-.0235-.1329-.0235-.211.0156-.0781.0235-.164.0235-.2578-.0625-.125-.1016-.2109-.1172-.2578-.0938-.2031-.1641-.3125-.211-.3281-.1406-.1719-.2265-.2969-.2578-.375-.125-.125-.2031-.211-.2343-.2578-.0782-.0313-.1641-.0704-.2579-.1172-.0781-.0469-.1562-.0938-.2343-.1406-.0625-.0313-.125-.0626-.1875-.0938-.0469-.0469-.1016-.0859-.1641-.1172-.1719-.0469-.2734-.0781-.3047-.0937-.125-.0469-.2265-.0782-.3047-.0938-.0625-.0156-.1094-.0078-.1406.0235zm20.0625-.211h.3984l.3281.0234c.0782.0157.1797.0235.3047.0235.1406 0 .25-.0156.3281-.0469.1875-.0312.3047-.0547.3516-.0703.0625-.0313.125-.0547.1875-.0703.1094 0 .1875.0078.2344.0234.0469 0 .0781.0078.0937.0235.0625.0781.1094.1406.1406.1875.0313.0468.0547.0859.0704.1172l.0234.2812c.0312.1406.0391.2578.0234.3516v.2578c.0313.1562.0391.2422.0235.2578v.0703c.0156.1406.0156.2734 0 .3984 0 .125-.0078.2579-.0235.3985 0 .125.0078.2187.0235.2812.0156.0469.0234.1016.0234.1641-.0469.25-.0703.4141-.0703.4922v.2578c-.0156.0781-.0234.1484-.0234.2109 0 .0469-.0157.0938-.0469.1406-.0156.1719-.0469.2813-.0938.3282-.0468.0312-.1015.0547-.164.0703s-.125.0312-.1875.0469c-.0625 0-.1328.0078-.211.0234-.2187-.0156-.3515-.0156-.3984 0-.2031-.0156-.3359-.0312-.3984-.0469-.0469-.0156-.1172-.0156-.211 0-.0781.0157-.1797.0235-.3047.0235-.1093-.0157-.1953-.0078-.2578.0234-.0156.1875-.0234.3359-.0234.4453.0156.0938.0234.2031.0234.3281 0 .0782-.0078.1407-.0234.1875-.0156.0469-.0235.1016-.0235.1641.0157.1719.0313.2812.0469.3281.0157.0313.0235.0625.0235.0938 0 .0312-.0078.0703-.0235.1172v.164c0 .0938.0157.1875.0469.2813 0 .0781-.0078.1484-.0234.2109 0 .0625.0078.1328.0234.2109.0625.1876.0859.3047.0703.3516s-.0312.086-.0469.1172c-.0781.2031-.1562.3125-.2343.3281-.0625 0-.125.0078-.1875.0235-.0625.0156-.125.0312-.1875.0468h-.3282c-.2968-.0156-.5937-.0156-.8906 0-.2969.0157-.5781.0157-.8437 0-.0469-.0156-.0938-.0234-.1407-.0234-.0312-.0156-.0703-.0234-.1171-.0234-.0469 0-.1094.0078-.1876.0234-.0624.0312-.125.0469-.1874.0469-.1094.0156-.211.0234-.3047.0234-.0938.0156-.1875.0156-.2813 0l-.3516-.0234c-.1718 0-.2812-.0078-.3281-.0235-.0469-.0156-.1015-.0312-.164-.0468-.0469-.0157-.1016-.0313-.1641-.0469-.0469-.0156-.0859-.0391-.1172-.0703-.0156-.0313-.0156-.0782 0-.1406.0156-.0626.0234-.1094.0234-.1407-.0312-.1719-.0468-.2656-.0468-.2812.0156-.0157.0156-.0391 0-.0703 0-.0938 0-.1797 0-.2578 0-.0938.0078-.1797.0234-.2579.0156-.0937.0313-.1718.0469-.2343.0156-.0782.0234-.1328.0234-.1641 0-.1719 0-.3281 0-.4687.0157-.1407.0157-.3204 0-.5391 0-.1563 0-.25 0-.2813.0157-.0312.0235-.0625.0235-.0937-.0157-.1719-.0235-.2813-.0235-.3281.0157-.0469.0235-.1094.0235-.1875-.0782-.0313-.1563-.0469-.2344-.0469-.0625 0-.1328 0-.211 0-.1562.0312-.2734.0469-.3515.0469-.0781.0156-.1563.0234-.2344.0234-.0781-.0156-.1641-.0234-.2578-.0234-.0625 0-.125 0-.1875 0-.0625-.0157-.1094-.0157-.1406 0-.0469 0-.1172 0-.211 0-.0937-.0157-.164-.0157-.2109 0-.1094 0-.2031-.0079-.2813-.0235-.0781-.0156-.1562-.0234-.2343-.0234h-.6328-.4453l-.5626-.0234c-.0937.0156-.164.0156-.2109 0-.0469-.0313-.1094-.0547-.1875-.0704-.3437-.0468-.6094-.1093-.7969-.1875-.0781-.1093-.1328-.1875-.164-.2343-.0313-.0469-.0625-.086-.0938-.1172-.0469-.125-.0859-.2032-.1172-.2344-.0156-.0469-.0312-.0859-.0468-.1172-.0782-.1406-.1172-.2187-.1172-.2344 0-.0312-.0078-.0546-.0235-.0703-.0625-.0781-.1015-.1328-.1172-.164-.0156-.0469-.0312-.086-.0468-.1172-.0938-.1407-.1485-.2344-.1641-.2813-.0156-.0468-.0312-.0859-.0469-.1172-.0468-.0625-.0859-.125-.1172-.1875-.0312-.0625-.0624-.125-.0937-.1875-.0937-.1718-.1484-.2656-.1641-.2812-.0937-.0938-.1562-.1719-.1875-.2344-.0312-.0781-.0781-.1406-.1406-.1875 0-.0469-.0156-.0859-.0469-.1172-.0156-.0469-.039-.0859-.0703-.1172-.1093-.1406-.1797-.2265-.2109-.2578-.0156-.0469-.0313-.0937-.0469-.1406l-.1641-.3047c-.0156-.1406-.0234-.2187-.0234-.2344 0-.0156-.0078-.0312-.0234-.0468.0625-.1563.1094-.25.1406-.2813.0469-.0312.0859-.0703.1172-.1172.1094-.1093.1719-.1797.1875-.2109.0156-.0469.0391-.0781.0703-.0938.125-.0937.2031-.1718.2344-.2343.1094-.125.1797-.1875.2109-.1875.1406-.1563.2578-.2891.3516-.3985.1093-.1093.2031-.2109.2812-.3047l.1875-.1875c.0782-.0937.1172-.1484.1172-.164.0156-.0313.0391-.0625.0703-.0938.0938-.1093.1719-.1875.2344-.2343.0937-.1563.1484-.2344.1641-.2344l.2109-.1875c.0313-.0313.0547-.0625.0703-.0938.0313-.0312.0703-.0625.1172-.0937.0781-.0938.1172-.1485.1172-.1641s.0078-.0391.0234-.0703c.0782-.0938.1485-.1719.211-.2344.0937-.1718.1562-.2656.1875-.2812.0468-.0156.0547-.0313.0234-.0469.0937-.0625.1719-.1406.2344-.2344.0469-.0625.0937-.1172.1406-.164.0469-.0625.0859-.1329.1172-.211.0937-.1406.1406-.2187.1406-.2343.0156-.0157.0235-.0313.0235-.0469.0624-.0625.125-.1407.1874-.2344.0782-.0781.125-.125.1407-.1406.0156-.0313.0312-.0625.0469-.0938.1406-.1406.2343-.2734.2812-.3984.0781-.0938.1172-.1485.1172-.1641 0-.0312.0156-.0547.0469-.0703.1093-.1562.164-.2344.164-.2344.1094-.1406.1641-.2265.1641-.2578.0156-.0312.039-.039.0703-.0234.0937-.1406.1563-.2422.1875-.3047s.0781-.1094.1406-.1406c.0469-.1094.1172-.2032.211-.2813 0-.0625.0156-.1015.0468-.1172.0469-.0312.0704-.0781.0704-.1406.0624-.0469.1093-.1015.1406-.1641.0468-.0781.1094-.1328.1875-.164.1093-.1563.1797-.2422.2109-.2578.0469-.0313.0703-.0703.0703-.1172.1407-.1406.2266-.2266.2578-.2578l.1172-.1172c.0157-.0781.0469-.125.0938-.1406.0469-.0313.0781-.086.0937-.1641.1563-.1563.2578-.2578.3047-.3047.125-.0781.1875-.1172.1875-.1172.0156 0 .0313-.0078.0469-.0234.1562-.0781.2578-.1094.3047-.0938.0625.0157.1172 0 .164-.0468.125-.0157.1954-.0313.211-.0469.0312-.0156.0625-.0235.0937-.0235.0625-.0156.1172-.0234.1641-.0234h.1406c.0781-.0156.1563-.0156.2344 0 .0937.0156.1797.0313.2578.0469.125 0 .2109.0078.2578.0234.1875-.0312.3047-.039.3516-.0234h.1172.2343c.0782-.0156.1563-.0078.2344.0234.1406-.0312.2266-.039.2578-.0234.0469.0156.0938.0234.1407.0234.1562.0313.2421.0469.2578.0469.0156-.0156.0312-.0234.0468-.0234.1563-.0313.2344-.0391.2344-.0235h.0234.2813c.125 0 .2109.0078.2578.0235.125.0937.2188.1718.2813.2343l.164.211c.0313.1562.0469.2969.0469.4219.0156.1562.0156.2656 0 .3281s-.0234.1328-.0234.2109v.1641c.0156.0625.0234.125.0234.1875.0156.125.0156.2422 0 .3515-.0156.0938-.0234.1875-.0234.2813v.2812c.0156.0782.0234.1641.0234.2578-.0156.1094-.0234.1719-.0234.1876.0156.0156.0234.039.0234.0703-.0156.1093-.0234.1875-.0234.2343.0156.0469.0156.086 0 .1172 0 .0469-.0079.0938-.0235.1406v.1407c-.0156.0781-.0234.1562-.0234.2343.0156.0626.0156.1329 0 .211 0 .0781-.0078.164-.0234.2578v.2344c-.0157.1718-.0235.3359-.0235.4922v.4687c-.0156.2188-.0234.3985-.0234.5391.0156.1406.0234.2734.0234.3984v.3516c0 .1094.0078.2109.0235.3047-.0157.0781-.0235.1328-.0235.164.0156.0313.0235.0625.0235.0938 0 .1719.0078.289.0234.3515.0156.0469.0234.1094.0234.1875-.0156.2344-.0234.4219-.0234.5625.0156.125.0234.25.0234.375v.2813c.0156.0156.0235.0391.0235.0703.0156.0312.0078.0703-.0235.1172-.0156.0469-.0078.0937.0235.1406zm-5.086-2.789c-.0312.0781-.0703.1328-.1172.164-.0312.0313-.0625.0781-.0937.1406-.1094.0625-.1719.1094-.1875.1407 0 .0156-.0156.039-.0469.0703l-.1875.1875c-.0469.0781-.0781.1328-.0937.164 0 .0313-.0157.0625-.0469.0938-.0781.0937-.1328.1641-.1641.2109-.0156.0313-.039.0625-.0703.0938-.0312.0625-.0781.1406-.1406.2344-.0313.0624-.0703.1171-.1172.164-.0313.0313-.0547.086-.0703.1641-.1094.1406-.1875.2343-.2344.2812-.0312.0313-.0625.086-.0937.1641-.1563.1406-.2422.2266-.2579.2578-.0468.1875-.0624.2734-.0468.2578.0312-.0156.0468-.0156.0468 0 .0782.0469.1485.0625.211.0469.0781-.0156.1562-.0235.2344-.0235.1562.0313.2656.0547.3281.0704.1719-.0157.2812-.0157.3281 0h.1406l.375-.0469c.0625.0625.1407.0859.2344.0703.1094-.0156.1953 0 .2578.0469.1563-.125.2266-.1875.211-.1875.0156-.2656.039-.4532.0703-.5625.0312-.125.0312-.2422 0-.3516 0-.1094 0-.2187 0-.3281.0156-.1406.0156-.2578 0-.3516 0-.0937.0234-.1953.0703-.3047-.0313-.1875-.0391-.289-.0234-.3047.0156-.0156.0234-.039.0234-.0703-.0156-.0937-.0234-.164-.0234-.2109.0156-.0469.0234-.0938.0234-.1406 0-.1719.0078-.2735.0234-.3047.0156-.0469.0156-.0859 0-.1172-.1562-.0313-.2656 0-.3281.0937-.0469.0938-.125.1563-.2344.1876zm17.9769 1.5234-.047.2812v.3282c0 .1093.008.1875.023.2343.016.0313.024.0625.024.0938v.3047c.015.0312.023.0703.023.1172 0 .0468.008.0937.024.1406-.032.0781-.063.1953-.094.3516-.078 0-.156.0078-.235.0234-.062.0156-.132.0234-.21.0234-.063 0-.118-.0078-.165-.0234-.031-.0156-.07-.0234-.117-.0234-.062-.0157-.156-.0235-.281-.0235-.047 0-.094 0-.141 0-.046-.0156-.093-.0234-.14-.0234-.078 0-.156.0078-.235.0234-.062.0156-.132.0235-.211.0235-.046.0156-.093.0156-.14 0-.031-.0157-.07-.0235-.117-.0235-.125-.0156-.258-.0156-.399 0-.125.0156-.25.0313-.375.0469-.14.0312-.312.0469-.515.0469-.188-.0157-.368-.0157-.54 0-.078 0-.148.0078-.21.0234-.047 0-.102.0078-.164.0234-.079 0-.157.0079-.235.0235-.062 0-.133-.0078-.211-.0235-.078 0-.148-.0078-.211-.0234-.062-.0156-.125-.0234-.187-.0234-.11-.0157-.219-.0157-.328 0-.0941 0-.1801.0078-.2582.0234-.0625.0156-.1328.0156-.2109 0-.1563-.0469-.2422-.0703-.2578-.0703-.1719.0625-.2813.0937-.3282.0937-.0312-.0156-.0781-.0234-.1406-.0234-.0469 0-.0937.0078-.1406.0234-.0469.0157-.1016.0235-.1641.0235s-.1328 0-.2109 0c-.0625-.0156-.1328-.0235-.2109-.0235h-.4454l-.4687-.0468c-.0469 0-.0938.0078-.1406.0234-.0469 0-.1016 0-.1641 0-.1562-.0625-.2578-.1016-.3047-.1172-.0312-.0312-.0703-.0625-.1172-.0937l-.1172-.2344c-.0468-.0938-.0703-.1953-.0703-.3047-.0312-.1563-.0468-.2578-.0468-.3047.0156-.0469.0234-.0937.0234-.1406-.0156-.1094-.0313-.2188-.0469-.3281 0-.125-.0078-.2422-.0234-.3516v-.3984c-.0157-.1563-.0235-.2422-.0235-.2579.0157-.0312.0235-.0624.0235-.0937.0469-.1563.0703-.2422.0703-.2578l.164-.2344c.1563-.0469.2422-.0781.2579-.0937.0312-.0157.0625-.0235.0937-.0235.0469-.0156.1094-.0156.1875 0h.1641c.1406-.0156.2187-.0156.2344 0h.0937c.1406-.0156.25-.0156.3281 0 .0782.0157.1641.0235.2578.0235h.2813c.0937 0 .1875.0078.2812.0234.1407.0156.2188.0234.2344.0234.0156-.0156.0391-.0234.0703-.0234.1094-.0156.2266-.0078.3516.0234l.4687-.0234c.125-.0156.2657-.0078.4221.0234.172-.0156.265-.0312.281-.0468.063.0312.117.0468.164.0468.063-.0156.117-.0156.164 0 .156.0157.25.0235.281.0235.032-.0157.063-.0235.094-.0235.078 0 .149.0078.211.0235.063.0156.133.0234.211.0234.078.0156.156.0235.234.0235h.235.351c.11 0 .203-.0079.282-.0235.203 0 .328.0078.375.0235.046 0 .109-.0079.187-.0235.219-.0312.391-.0469.516-.0469h.492c.125-.0156.234-.0234.328-.0234h.281c.125 0 .219.0078.282.0234.171.0469.257.0782.257.0938 0 0 .008.0078.024.0234.062.1406.094.2188.094.2344.015.0156.023.0391.023.0703-.031.0625-.047.1172-.047.1641.016.0468.024.0859.024.1172-.063.2343-.094.3672-.094.3984zm8.672 4.5c.125.0312.257.039.398.0234.156-.0156.312-.0312.469-.0468.078 0 .156.0078.234.0234.078 0 .156-.0078.235-.0234.171-.0313.257-.0391.257-.0235h.071c.125-.0312.195-.0547.211-.0703.015-.0156.039-.0234.07-.0234.187-.0157.273-.0157.258 0h.047c.125-.0157.195-.0157.21 0h.071c.062-.0157.109-.0313.14-.0469.047-.0156.102-.0235.165-.0235.187.0313.304.0391.351.0235s.094-.0235.141-.0235l.258-.0468c.218-.0156.359-.0313.421-.0469l.329.0234c.281.0313.437.0547.468.0703.047.0313.078.0782.094.1407.031.0469.07.0859.117.1172.063.2187.11.4062.141.5625.031.125.047.2578.047.3984-.032.25-.047.4141-.047.4922v.1172c.015.0468.023.1015.023.164-.031.2032-.047.3282-.047.375.016.0313.024.0625.024.0938-.047.1562-.063.2734-.047.3516.016.0624.023.1171.023.164.016.125.016.2422 0 .3516-.015.0937-.023.1875-.023.2812.016.1875.016.3047 0 .3516v.1172.164c.016.0469.008.0938-.023.1407-.11.1562-.18.2421-.211.2578-.11.0469-.18.0781-.211.0937-.016.0156-.039.0235-.071.0235h-.328c-.187 0-.305-.0079-.351-.0235-.032 0-.063 0-.094 0-.125-.0156-.25-.0234-.375-.0234s-.258 0-.399 0c-.125-.0156-.21-.0234-.257-.0234-.047.0156-.11.0156-.188 0-.141-.0157-.226-.0235-.258-.0235-.015.0156-.039.0235-.07.0235-.156 0-.297-.0079-.422-.0235-.125 0-.273-.0078-.445-.0234-.078-.0157-.156-.0235-.235-.0235-.078 0-.156-.0078-.234-.0234-.125 0-.211 0-.258 0-.047-.0156-.086-.0234-.117-.0234-.078-.0313-.187-.0391-.328-.0235-.125.0157-.242.0157-.352 0-.25-.0156-.492-.0156-.726 0-.235 0-.485-.0078-.75-.0234-.078.0156-.133.0234-.164.0234-.032-.0156-.071-.0156-.117 0-.032-.0156-.094-.0156-.188 0-.094.0157-.156.0313-.187.0469-.047 0-.11 0-.188 0-.062.0156-.133.0156-.211 0-.031 0-.07 0-.117 0-.031-.0156-.078-.0156-.141 0-.187.0156-.32.0312-.398.0469-.063.0156-.133.0156-.211 0-.188-.0157-.313-.0157-.375 0-.047.0156-.094.0312-.141.0469h-.422l-.351.0234c-.047 0-.094 0-.141 0-.031.0156-.07.0234-.117.0234-.031 0-.07-.0078-.117-.0234-.047 0-.094 0-.141 0-.062 0-.109 0-.14 0-.032.0156-.079.0156-.141 0s-.117-.0313-.164-.0469-.102-.0312-.164-.0469c-.094-.1562-.149-.2656-.164-.3281-.016-.0625-.047-.1172-.094-.1641l-.117-.2812c-.125-.1406-.203-.2578-.235-.3516-.078-.1406-.124-.2343-.14-.2812-.016-.0625-.039-.1172-.07-.1641 0-.0781-.016-.1328-.047-.164-.032-.0469-.063-.0938-.094-.1407-.016-.1406-.023-.2109-.023-.2109 0-.0156-.008-.0313-.024-.0469l-.141-.375c-.031-.0781-.054-.1406-.07-.1875-.015-.0625-.055-.1093-.117-.1406.016-.1094.023-.1797.023-.2109.016-.0313.024-.0704.024-.1172.031-.1563.07-.2735.117-.3516.062-.0781.117-.1484.164-.2109.141-.1094.227-.1641.258-.1641.031-.0156.062-.0312.094-.0469.078-.0625.125-.0937.14-.0937.032-.0156.063-.0391.094-.0703.109-.0938.172-.1407.188-.1407.015-.0156.039-.039.07-.0703l.304-.2812c.11-.0781.172-.125.188-.1406.031-.0313.062-.0625.094-.0938l.281-.2344.211-.164c.109-.125.172-.1875.187-.1875.141-.1406.227-.2188.258-.2344.125-.1094.196-.1719.211-.1875.016-.0313.039-.0547.07-.0703.126-.0938.188-.1406.188-.1406 0-.0157.008-.0313.023-.0469.219-.2031.368-.3438.446-.4219.078-.0937.156-.1797.234-.2578.094-.0938.164-.1641.211-.2109.141-.125.219-.1875.234-.1875.016 0 .032-.0157.047-.0469.157-.125.282-.2344.375-.3281.063-.0625.11-.0938.141-.0938.031-.0156.062-.0312.094-.0469l.211-.2109c.031-.0312.062-.0625.093-.0938.032-.0312.063-.0624.094-.0937.078-.0937.141-.1563.188-.1875.047-.0469.093-.0938.14-.1406.11-.125.18-.1953.211-.211.156-.1875.266-.3046.328-.3515.063-.0625.125-.1328.188-.211.078-.0781.148-.164.211-.2578.078-.0937.156-.1875.234-.2812.094-.0781.18-.1641.258-.2578.078-.125.133-.1953.164-.211.031-.0156.031-.039 0-.0703.078-.0312.133-.0781.164-.1406l.141-.1875c.015-.0469.039-.0938.07-.1406.031-.0469.062-.0938.094-.1407.031-.0468.054-.1015.07-.164s.055-.1094.117-.1406c0-.0782.008-.1485.024-.211.031-.0625.062-.1328.093-.2109.032-.0938.047-.1641.047-.211 0-.0625 0-.1093 0-.1406 0-.2031-.007-.3203-.023-.3515 0-.0469 0-.0938 0-.1407 0-.1406-.008-.2109-.024-.2109 0-.0156 0-.0313 0-.0469-.031-.0625-.046-.1172-.046-.1641 0-.0468-.016-.0937-.047-.1406-.032-.0312-.086-.0781-.164-.1406-.063-.0781-.118-.1328-.164-.1641-.11-.0468-.196-.0703-.258-.0703-.094-.0312-.157-.039-.188-.0234-.031 0-.062 0-.093 0-.047 0-.094 0-.141 0-.047-.0156-.102-.0156-.164 0-.11.0312-.188.0547-.235.0703-.046.0156-.086.0234-.117.0234-.078 0-.172.0391-.281.1172-.188.125-.297.211-.328.2578-.031.0469-.07.0782-.117.0938-.063.0937-.117.1641-.164.2109-.047.0625-.086.1172-.118.1641-.015.0312-.031.0625-.046.0937-.079.1563-.125.25-.141.2813-.016.0156-.031.0391-.047.0703-.047.1719-.094.2812-.141.3281-.031.0469-.054.1094-.07.1875-.016.0625-.039.1172-.07.1641-.047.0469-.094.1094-.141.1875-.031.0781-.062.1562-.094.2344-.078.1406-.117.2265-.117.2578-.14.125-.242.2109-.304.2578-.25 0-.43-.0156-.54-.0469-.093-.0312-.156-.1015-.187-.2109-.141-.0782-.25-.1328-.328-.1641-.156-.0625-.25-.1015-.281-.1172-.032-.0156-.063-.0312-.094-.0469-.063-.0312-.125-.0546-.188-.0703-.046-.0312-.086-.0781-.117-.1406-.078.0156-.125.0078-.14-.0234-.016-.0469-.055-.0781-.118-.0938-.078-.0625-.156-.1406-.234-.2343-.063-.0938-.156-.1719-.281-.2344-.078-.0625-.125-.0938-.141-.0938-.015-.0156-.039-.039-.07-.0703-.063-.0469-.11-.0781-.141-.0937-.031-.0313-.062-.0625-.094-.0938-.14-.0781-.234-.1406-.281-.1875-.078-.0781-.148-.1328-.211-.1641-.172-.1562-.265-.2421-.281-.2578-.078-.125-.125-.1875-.141-.1875-.015-.0156-.023-.0312-.023-.0468-.031-.0782-.055-.1407-.07-.1875 0-.0625.007-.1094.023-.1407.078-.1875.125-.3203.141-.3984.062-.1563.093-.2422.093-.2578 0-.0313.008-.0547.024-.0703.078-.1094.117-.1719.117-.1875 0-.0313.008-.0625.023-.0938.079-.0937.126-.1562.141-.1875.031-.0468.055-.0859.07-.1172.094-.1406.141-.2187.141-.2343.016-.0313.039-.0625.07-.0938.094-.1562.157-.2422.188-.2578.047-.1094.078-.1641.094-.1641.031-.0156.039-.039.023-.0703.094-.1093.149-.164.164-.164.031-.0157.055-.0391.07-.0703.032-.0313.063-.0626.094-.0938.047-.0469.102-.0781.164-.0938.031-.0624.071-.1015.117-.1171.047-.0157.086-.0469.118-.0938.031-.0312.062-.0625.093-.0937.047-.0313.086-.0704.118-.1172.046-.0156.085-.0313.117-.0469.031-.0156.07-.0391.117-.0703.109-.125.211-.2031.305-.2344.14-.1094.226-.1719.257-.1875.032-.0156.079-.0312.141-.0469.156-.1093.25-.164.281-.164.047 0 .086-.0156.117-.0469.11-.0625.18-.0937.211-.0937.047 0 .094-.0157.141-.0469.141-.0625.227-.1016.258-.1172s.062-.0313.094-.0469c.046-.0156.086-.0156.117 0 .047 0 .094-.0078.14-.0234.032-.0156.063-.0313.094-.0469.047-.0156.102-.0234.164-.0234.157 0 .289-.0235.399-.0703.109-.0469.226-.0782.351-.0938.094.0156.157.0156.188 0 .047-.0156.086-.0234.117-.0234h.328c.031-.0157.063-.0391.094-.0704.109.0469.226.0547.351.0235l.282-.0235.257.0469h.329c.062-.0156.117-.0156.164 0 .031 0 .07.0157.117.0469.047.0156.094.0312.14.0469.157.0156.25.0469.282.0937.187.0469.304.086.351.1172.047.0313.102.0313.164 0 .047.0625.102.1016.164.1172.063 0 .118.0156.164.0469l.258.1875c.157.0468.235.0781.235.0937h.023c.156.0938.25.1407.281.1407.141.1093.227.1796.258.2109.094.0781.164.1328.211.1641.109.0624.18.1171.211.164.047.0469.094.0938.141.1406.031.0313.07.0625.117.0938.047.0156.086.039.117.0703.063.0469.109.0937.141.1406.031.0313.062.0547.093.0703.063.1407.141.25.235.3282.047.0937.078.1484.094.164.031 0 .062.0156.093.0469.016.0625.071.1563.164.2813.063.0781.117.1718.164.2812.047.0938.094.1953.141.3047.062.125.117.2109.164.2578.031.1563.063.2734.094.3516.062.2031.094.3359.094.3984s.007.1328.023.2109c.047.2032.078.3282.094.375.015.0313.015.0704 0 .1172.078.125.101.2813.07.4688s-.023.3437.023.4687c-.031.125-.054.25-.07.375 0 .1094-.023.2031-.07.2813 0 .1406-.008.2344-.024.2812-.015.0469-.031.0938-.046.1406-.032.1563-.047.25-.047.2813-.078.125-.125.2031-.141.2344 0 .0156-.008.0312-.023.0469l-.164.2343c0 .0938-.016.1641-.047.211-.032.0468-.063.1093-.094.1875-.141.0781-.211.125-.211.1406 0 0-.008.0078-.023.0234-.063.0625-.102.1094-.118.1406 0 .0157-.015.0391-.046.0704-.094.125-.157.1953-.188.2109-.016 0-.031.0156-.047.0469-.109.1562-.18.2656-.211.3281-.125.125-.195.1953-.211.2109 0 0-.008 0-.023 0-.11.125-.203.2266-.281.3047-.125.1407-.188.211-.188.211.016 0 .016.0078 0 .0234-.125.1094-.211.1875-.258.2344-.093.0937-.156.164-.187.2109-.032.0469-.078.086-.141.1172-.141.125-.226.2031-.258.2344-.015.0156-.039.039-.07.0703-.141.125-.219.2031-.234.2344-.016.0312-.039.0547-.071.0703-.093.1562-.148.2344-.164.2344-.015 0-.031.0078-.047.0234-.062.0937-.14.1719-.234.2344-.047.0468-.086.0859-.117.1172-.031.0312-.063.0624-.094.0937-.078.0781-.141.1406-.187.1875-.047.0469-.086.1016-.118.1641-.031.0312-.062.0703-.093.1171-.016.0313-.047.0547-.094.0704l-.164.2109c-.078.0469-.133.0937-.164.1406-.032.0313-.063.0625-.094.0938-.125.125-.195.1875-.211.1875-.016.0468-.047.0937-.094.1406-.031.0312-.062.0703-.093.1172zm13.734-6.5625h.211c.015-.0156.031-.0235.047-.0235.172-.0624.258-.0937.258-.0937.046-.0156.086-.0156.117 0 .047.0156.101.0234.164.0234h.234c.094 0 .188.0079.281.0235l.258.0234c.063-.0156.117-.0156.164 0h.141c.203.0625.344.0938.422.0938.094-.0157.172-.0157.234 0 .219.125.375.2031.469.2343.094.0157.18.0391.258.0703.109.0782.179.125.211.1407.047.0156.109.0234.187.0234.047.0313.102.0625.164.0938.063.0156.125.039.188.0703.094.0781.218.1484.375.2109.047.0469.101.0938.164.1406.062.0313.117.0703.164.1172.078.0625.156.1328.234.211.078.0625.157.1406.235.2343.078.0782.148.1485.211.211l.211.2344c.062.0937.101.1718.117.2343.015.0469.039.0938.07.1407.063.125.094.1874.094.1874.015 0 .031.0157.047.0469.046.0938.078.1563.093.1875.016.0313.032.0625.047.0938.047.125.078.1953.094.2109.016 0 .031.0156.047.0469.047.1406.07.2344.07.2812.047.1563.078.25.094.2813.016.0312.031.0625.047.0937.047.1563.07.25.07.2813 0 .0312.008.0625.024.0937 0 .0625.007.1172.023.1641.016.0313.023.0859.023.1641.047.2187.071.375.071.4687 0 .0781.008.1719.023.2813.016.125.024.2265.024.3046.015.0782.023.1719.023.2813-.016.0625-.023.1406-.023.2344 0 .0937-.016.1797-.047.2578 0 .0937-.008.1641-.024.2109 0 .0313-.007.0703-.023.1172-.016.1094-.039.1953-.07.2578-.016.0313-.024.0703-.024.1172s-.016.0938-.047.1406c-.093.1563-.148.2422-.164.2578-.015.0157-.031.0391-.047.0704-.047.125-.093.2343-.14.3281-.047.0937-.102.1797-.164.2578-.063.2031-.11.3203-.141.3516-.031.0156-.047.039-.047.0703-.047.0625-.078.1172-.094.164-.015.0469-.039.086-.07.1172-.078.1094-.125.1719-.141.1875-.015 0-.031.0078-.046.0235l-.258.3046c-.141.1407-.235.211-.281.211-.141.1562-.235.25-.282.2812-.047.0157-.086.0469-.117.0938-.141.0781-.234.1406-.281.1875s-.102.0859-.164.1172c-.141.0937-.227.1484-.258.164-.031 0-.047.0235-.047.0703-.172.0938-.273.1407-.305.1407-.015 0-.039.0078-.07.0234-.078.0313-.133.0547-.164.0703-.016.0156-.039.0391-.07.0703-.172.0782-.282.1172-.328.1172-.047 0-.086.0078-.118.0235-.125.0625-.211.0937-.257.0937-.125.0625-.227.1094-.305.1406-.188.0313-.305.0547-.352.0703-.031.0157-.062.0313-.093.0469-.188.0313-.282.0469-.282.0469 0 .0156-.015.0234-.047.0234-.14.0157-.234.0391-.281.0704-.047.0312-.117.0468-.211.0468-.047 0-.094-.0078-.14-.0234-.047-.0156-.102-.0234-.164-.0234-.204.0312-.329.0312-.375 0-.157 0-.243.0078-.258.0234 0 .0156-.016.0078-.047-.0234-.141 0-.25.0078-.328.0234-.063.0156-.141.0078-.235-.0234-.109-.0157-.179-.0313-.211-.0469-.031 0-.054 0-.07 0-.219-.0313-.383-.0625-.492-.0938-.188-.0469-.281-.0781-.281-.0937-.172 0-.266-.0078-.282-.0235-.015 0-.031 0-.046 0-.047-.0312-.102-.0468-.165-.0468-.062 0-.117-.0157-.164-.0469-.062-.0156-.125-.0313-.187-.0469-.063-.0156-.117-.0312-.164-.0469-.063-.0312-.125-.0546-.188-.0703-.047-.0312-.109-.0625-.187-.0937-.188-.0782-.297-.1328-.328-.1641-.11-.0625-.219-.1328-.328-.2109-.25-.0938-.391-.1953-.422-.3047-.141-.0781-.219-.1172-.235-.1172 0-.0156-.007-.0234-.023-.0234-.156-.0782-.25-.1329-.281-.1641-.032-.0312-.063-.0625-.094-.0938-.047-.0468-.102-.1015-.164-.164-.047-.0625-.094-.125-.141-.1875-.109-.1094-.179-.1719-.211-.1875-.015-.0156-.039-.0391-.07-.0703-.063-.1094-.109-.1797-.141-.211-.015-.0312-.031-.0625-.046-.0937-.11-.1563-.165-.2344-.165-.2344.016-.0156.016-.039 0-.0703-.046-.0781-.101-.1797-.164-.3047l-.164-.2109c-.093-.1407-.14-.2266-.14-.2578.015-.0313.007-.0625-.024-.0938-.078-.1094-.117-.1797-.117-.2109 0-.0469-.016-.0625-.047-.0469-.047-.1563-.078-.2578-.094-.3047-.015-.0469-.031-.0937-.046-.1406-.063-.1563-.102-.2344-.118-.2344.032-.0469.032-.0937 0-.1406-.031-.0469-.047-.0938-.047-.1406.016-.0625.008-.1172-.023-.1641-.016-.0625-.031-.1172-.047-.1641-.062-.2031-.094-.3359-.094-.3984.016-.0781 0-.1562-.046-.2344 0-.2031.007-.3125.023-.3281-.031-.0313-.047-.0625-.047-.0937.016-.0469.016-.1016 0-.1641-.047-.1563-.07-.2969-.07-.4219 0-.1406 0-.25 0-.3281 0-.1563.008-.2422.023-.2578.031-.0157.047-.0391.047-.0703-.016-.2344-.023-.375-.023-.4219.015-.0625.031-.125.047-.1875.015-.0469.031-.0938.046-.1406.032-.0625.04-.1172.024-.1641.062-.1094.086-.1953.07-.2578-.015-.0781-.015-.1563 0-.2344l.07-.3515c.016-.0626.04-.1172.071-.1641s.039-.1016.023-.1641c.078-.0312.11-.0781.094-.1406 0-.0625.008-.1328.023-.2109.079-.1875.118-.2969.118-.3282 0-.0312.007-.0625.023-.0937.109-.1875.172-.2969.188-.3281.015-.0313.031-.0625.046-.0938.032-.0469.055-.1015.071-.1641.031-.0624.062-.125.093-.1874.032-.0782.063-.1563.094-.2344.094-.1875.156-.3125.188-.375.047-.0625.086-.1328.117-.211.062-.1093.101-.1718.117-.1875.016-.0156.031-.039.047-.0703.047-.0468.078-.1094.094-.1875.031-.0781.062-.1484.093-.2109.11-.1406.172-.2188.188-.2344.016-.0312.039-.0547.07-.0703.063-.1094.094-.1641.094-.1641.016-.0156.031-.039.047-.0703.094-.0781.141-.125.141-.1406s.015-.0313.046-.0469c.125-.1562.211-.2578.258-.3047.032-.0468.063-.0859.094-.1171.047-.0469.094-.1016.141-.1641.125-.1094.187-.1719.187-.1875.016-.0156.024-.0313.024-.0469.109-.1094.171-.1719.187-.1875s.031-.039.047-.0703c.125-.125.195-.1953.211-.2109.031-.0313.062-.0625.094-.0938.078-.0937.14-.164.187-.2109l.141-.1875c.093-.0938.187-.1641.281-.211.094-.0468.164-.1093.211-.1875.141-.0781.219-.1171.234-.1171.032-.0157.063-.0313.094-.0469.141-.1094.234-.1953.281-.2578.188-.0938.297-.1563.328-.1875.032-.0469.086-.0704.164-.0704l.258-.1406c.125-.1094.203-.164.235-.164.031 0 .047-.0157.047-.0469.171-.0938.257-.1406.257-.1406.016-.0157.039-.0313.071-.0469.062-.0781.148-.1328.258-.1641.109-.0469.187-.1093.234-.1875.125-.0625.211-.0937.258-.0937s.093-.0157.14-.0469c.125-.0938.211-.1484.258-.1641.063-.0312.11-.0468.141-.0468.047-.0157.086-.0391.117-.0703.203-.0938.32-.1563.352-.1876.187-.0468.296-.0781.328-.0937.031-.0156.062-.0313.093-.0469.11-.0312.172-.0468.188-.0468.015-.0157.039-.0235.07-.0235.235-.0312.383-.0703.445-.1172.063-.0469.149-.0625.258-.0469.141-.0624.219-.0859.235-.0703.031 0 .062-.0078.093-.0234.032.0313.071.0625.118.0937.062.0313.109.0626.14.0938.078.125.117.1953.117.2109 0 .0157.016.0391.047.0703.141.1563.211.2735.211.3516.094.1406.149.211.164.211.016 0 .024.0078.024.0234.109.1562.156.25.14.2812 0 .0157.008.0235.024.0235.047.125.117.2343.211.3281.125.2344.195.3828.211.4453.109.2188.172.3594.187.4219.031.0625.063.1328.094.2109.016.0938.055.1797.117.2578.063.1094.109.1953.141.2579.078.1562.117.2968.117.4218 0 .1094-.016.1875-.047.2344s-.086.0859-.164.1172c-.078.0156-.156.0312-.234.0469-.125.0312-.211.0547-.258.0703-.047 0-.102.0078-.164.0234l-.305.0703c-.109.0781-.227.1485-.351.211-.157.0625-.25.1015-.282.1171-.031 0-.062.0079-.094.0235-.078.0625-.164.1172-.257.1641-.094.0312-.18.0781-.258.1406-.109.0625-.172.1015-.188.1172 0 .0156-.007.0312-.023.0468-.047.0313-.094.0547-.141.0704-.047 0-.086.0156-.117.0468-.094.0313-.187.086-.281.1641-.094.0469-.172.1015-.235.1641-.031.0312-.07.0624-.117.0937-.047.0156-.086.0391-.117.0703-.172.1094-.273.1797-.305.211-.031.0156-.054.039-.07.0703-.141.125-.219.1875-.234.1875-.157.1093-.258.1953-.305.2578s-.086.1172-.117.164c-.031.0313-.07.0704-.117.1172-.032.0469-.063.1016-.094.1641zm.422 3.2109c-.156-.0468-.266-.0859-.328-.1172-.063-.0312-.149-.0546-.258-.0703-.156-.0156-.281-.0156-.375 0-.078.0157-.141.0235-.188.0235-.14.0156-.226.0312-.257.0468-.016 0-.032.0078-.047.0235-.157.0156-.25.0312-.282.0469-.031.0156-.062.039-.093.0703-.063.0625-.11.1093-.141.1406-.016.0156-.031.0312-.047.0469-.109.1093-.164.1718-.164.1875 0 0-.016.0156-.047.0468-.078.125-.109.2188-.093.2813-.11.125-.165.2109-.165.2578.016.0312.008.0469-.023.0469-.031.1875-.055.2969-.07.3281-.078.3125-.102.5469-.071.7031.016.1563.032.2422.047.2578.016 0 .024.0079.024.0235.047.125.086.2109.117.2578.031.0312.055.0625.07.0937.078.1407.125.2266.141.2579.172.2031.273.3203.304.3515.047.0313.086.0781.118.1406.047.0469.086.086.117.1172.187.1094.281.1719.281.1875.063 0 .117.0156.164.0469.047.0156.094.0313.141.0469.156.0625.25.1015.281.1172.031.0156.063.0234.094.0234h.258c.156-.0156.289-.0312.398-.0469.125-.0312.25-.0547.375-.0703.219-.125.375-.1953.469-.2109.094-.0157.156-.0547.187-.1172.157-.2188.25-.3594.282-.4219.031-.0781.062-.1562.093-.2344.078-.1875.118-.2968.118-.3281-.016-.1094-.016-.1875 0-.2344.015-.0625.023-.125.023-.1875-.016-.125-.023-.2187-.023-.2812-.047-.1406-.079-.2266-.094-.2578-.016-.0313-.024-.0625-.024-.0938-.047-.1875-.078-.2968-.093-.3281-.063-.1406-.102-.2109-.118-.2109 0-.0157 0-.0313 0-.0469-.093-.125-.156-.2031-.187-.2344-.031-.0469-.078-.0781-.141-.0937-.109-.1094-.203-.1875-.281-.2344-.062-.0469-.125-.1016-.188-.1641-.109-.0469-.187-.0859-.234-.1172-.031-.0312-.055-.0547-.07-.0703zm16.804-4.4062c.141.0937.211.1484.211.164.11.0625.172.1094.188.1407.031.0156.047.039.047.0703-.016.1406-.016.25 0 .3281.015.0625.008.1094-.024.1406-.046.1407-.07.2344-.07.2813.016.0312.016.0625 0 .0937 0 .0625-.008.1172-.023.1641v.164.2813.1406c.015.0313.023.0781.023.1407.031.1406.039.2343.024.2812 0 .0469.015.0938.046.1406-.031.0782-.046.1641-.046.2578 0 .0782-.024.1485-.071.211-.109.0625-.172.0781-.187.0468 0-.0312-.024-.039-.071-.0234-.109.0313-.218.0391-.328.0234-.093-.0156-.211-.0234-.351-.0234-.157 0-.274 0-.352 0-.062-.0156-.125-.0234-.187-.0234l-.75-.0235c-.172 0-.258 0-.258 0-.11 0-.227.0079-.352.0235-.109 0-.219 0-.328 0-.141-.0156-.234-.0156-.281 0-.031 0-.063 0-.094 0-.078 0-.148.0078-.211.0234-.062 0-.125 0-.187 0-.11-.0156-.211-.0156-.305 0-.078.0156-.148.0156-.211 0l-.398.0234c-.016.0157-.055.0235-.118.0235-.046 0-.101 0-.164 0-.093.0156-.195.0234-.304.0234-.203.0157-.344.0235-.422.0235-.063-.0157-.133-.0235-.211-.0235-.141 0-.227 0-.258 0-.031-.0156-.062-.0234-.094-.0234-.172-.0156-.273-.0235-.304-.0235-.032-.0156-.086-.0156-.164 0-.157-.0156-.282-.0234-.375-.0234-.094 0-.18 0-.258 0-.063 0-.125.0078-.188.0234-.047 0-.109 0-.187 0-.11.0313-.211.0469-.305.0469-.078 0-.156 0-.234 0-.141 0-.227.0078-.258.0235-.016 0-.039-.0078-.07-.0235-.235-.0625-.368-.1015-.399-.1172-.094-.0937-.141-.1484-.141-.164 0-.0313-.007-.0625-.023-.0938-.062-.1719-.109-.2734-.141-.3047-.015-.0312-.023-.0625-.023-.0937-.031-.0781-.039-.1563-.023-.2344.015-.0937.023-.1875.023-.2812 0-.1719-.008-.336-.023-.4922 0-.1563.007-.3125.023-.4688.031-.0937.047-.1797.047-.2578-.016-.1406-.008-.2265.023-.2578.063-.1094.102-.1719.117-.1875.032-.0156.071-.0391.118-.0703.156-.0469.242-.0703.258-.0703.031-.0156.054-.0235.07-.0235.14-.0156.242 0 .304.0469.157 0 .305-.0078.446-.0234.156-.0313.312-.0391.469-.0235.046 0 .093.0079.14.0235h.188c.125.0156.211.0234.257.0234.047-.0156.086-.0234.118-.0234.172-.0156.258-.0156.258 0h.07c.281.0156.484.0156.609 0 .125-.0313.235-.0156.328.0468.188-.0156.297-.0234.328-.0234.032 0 .063.0156.094.0469.156 0 .242.0078.258.0234h.047c.187.0157.297.0235.328.0235.047-.0157.102-.0157.164 0 .078 0 .133.0078.164.0234h.094.258.164c.047-.0156.086-.0234.117-.0234.187.0156.305.0234.351.0234.047-.0156.094-.0234.141-.0234h.469c.094-.0157.195-.0235.305-.0235h.187c.078-.0156.141-.0234.188-.0234.078-.0156.156-.0156.234 0s.156.0156.234 0c.172-.0156.289-.0313.352-.0469.078-.0156.148-.0234.211-.0234.031.0156.07.0234.117.0234.062 0 .109.0078.141.0234.125 0 .195.0079.211.0235h.046zm.493 5.3203-.047.2812v.3282c0 .1093.008.1875.023.2343.031.0313.055.0625.071.0938-.016.0625-.024.1172-.024.164 0 .0313.008.0704.024.1172-.016.2032-.032.336-.047.3985 0 .0469-.016.1093-.047.1875-.078 0-.156.0078-.235.0234-.078.0156-.156.0234-.234.0234-.047 0-.094-.0078-.141-.0234-.046-.0156-.093-.0234-.14-.0234s-.094 0-.141 0-.109-.0078-.187-.0235c-.047 0-.094 0-.141 0-.047-.0156-.094-.0234-.141-.0234-.078 0-.156.0156-.234.0469-.062.0156-.133.0234-.211.0234s-.18-.0156-.305-.0469c-.14-.0156-.281-.0156-.421 0-.125.0157-.25.0313-.375.0469-.157.0313-.336.0469-.54.0469-.203-.0156-.398-.0156-.585 0-.079 0-.149.0078-.211.0234-.063 0-.133.0078-.211.0235-.078 0-.157.0078-.235.0234-.062 0-.132 0-.211 0-.078-.0156-.148-.0312-.211-.0469-.062-.0156-.132-.0234-.21-.0234-.126-.0156-.243-.0156-.352 0-.078 0-.164.0078-.258.0234-.078.0157-.156.0157-.234 0-.156-.0469-.242-.0703-.258-.0703-.188.0625-.305.0938-.352.0938-.046-.0157-.086-.0235-.117-.0235-.078 0-.148.0078-.211.0235-.047.0156-.094.0234-.14.0234-.078.0156-.157.0156-.235 0-.062-.0156-.133-.0234-.211-.0234-.109 0-.203 0-.281 0-.062 0-.125 0-.187 0l-.493-.0469c-.14.0312-.242.0391-.304.0234l-.469-.1875c-.094-.125-.141-.2031-.141-.2344-.047-.0781-.07-.1406-.07-.1874.016-.0469.016-.086 0-.1172l-.023-.4219c-.016-.1094-.032-.2188-.047-.3281 0-.125 0-.2422 0-.3516-.016-.1719-.016-.2969 0-.375-.032-.125-.032-.2344 0-.3281l.07-.2578c.031-.0938.055-.1485.07-.1641.032-.0156.055-.0391.071-.0703.187-.0313.289-.0547.304-.0703.016-.0156.039-.0313.071-.0469.062-.0156.132-.0156.211 0 .078.0156.132.0234.164.0234.14-.0312.226-.039.257-.0234h.094c.235.0156.438.0234.61.0234.109.0157.211.0235.304.0235.11-.0156.211-.0156.305 0 .172.0312.266.039.281.0234.016-.0156.039-.0234.071-.0234.046 0 .101.0078.164.0234h.164.117c.047-.0156.094-.0234.14-.0234h.282c.109 0 .187.0078.234.0234h.188c.125-.0156.195-.0156.211 0 .031 0 .054-.0156.07-.0469.062.0313.125.0469.187.0469.063 0 .117.0078.164.0234h.375c.078 0 .157.0079.235.0235.078 0 .156.0078.234.0234h.492.703.563c.172-.0156.297-.0234.375-.0234.078-.0156.141-.0235.187-.0235.079-.0156.157-.0234.235-.0234h.258c.156-.0156.281-.0234.375-.0234h.304c.047 0 .094.0078.141.0234h.117c.172.0625.258.0938.258.0938.016 0 .031.0078.047.0234.078.1406.117.2188.117.2344.016.0156.023.0312.023.0468-.031.0938-.046.1563-.046.1876.015.0312.023.0624.023.0937-.047.1719-.078.2734-.094.3047-.015.0312-.023.0625-.023.0937zm9.961-9.8438c.062.1407.156.2344.281.2813.125.1406.203.2344.234.2812.047.0469.094.0938.141.1407.109.0781.164.125.164.1406.016.0156.023.0312.023.0469.125.125.203.2031.235.2343.078.1407.133.2266.164.2579.047.0312.07.0859.07.164.156.1719.242.2734.258.3047.109.1563.164.25.164.2813.016.0312.031.0624.047.0937.031.0469.047.1016.047.1641 0 .0468.015.1015.047.164.047.125.078.1953.093.211.016 0 .032.0156.047.0468.047.125.071.2032.071.2344.015.0156.039.0391.07.0703 0 .0781.016.1797.047.3047.015.1875.031.3047.047.3516.015.0312.023.0703.023.1172 0 .2187.031.3593.094.4218-.031.0782-.039.1563-.024.2344.016.0625.032.1406.047.2344.016.1406.008.2578-.023.3516-.031.0937-.047.1718-.047.2343s-.008.1172-.024.1641c-.015.0625-.031.1172-.046.164-.016.0469-.032.1016-.047.1641-.031.0625-.047.125-.047.1875 0 .0469-.008.1094-.024.1875l-.187.5156c-.031.0625-.063.125-.094.1875-.015.0625-.039.125-.07.1875-.094.1563-.156.2579-.188.3047-.031.0469-.062.0938-.093.1406-.125.1719-.204.2657-.235.2813-.015 0-.031.0156-.047.0469-.156.2187-.257.3437-.304.375l-.258.164c-.11.1094-.188.1875-.234.2344-.047.0469-.102.1016-.165.1641-.171.1093-.289.2343-.351.375-.063.0156-.156.0547-.281.1172-.11.0625-.172.1015-.188.1171-.015.0157-.039.0313-.07.0469-.094.0313-.156.0469-.188.0469-.015 0-.039.0078-.07.0234-.031.0157-.078.0391-.141.0704-.062.0312-.109.0703-.14.1171.015.1407.015.2188 0 .2344v.0703c.015.1563.023.2656.023.3282-.047.125-.07.2343-.07.3281.015.0937.031.1875.047.2812 0 .125-.008.2344-.024.3281 0 .0782.008.1876.024.3282.015.0312.023.0859.023.164v.1875c-.031.0313-.07.0703-.117.1172-.031.0469-.07.086-.117.1172-.156.0313-.25.0547-.281.0703-.016.0156-.04.0235-.071.0235-.187-.0157-.32-.0157-.398 0-.078 0-.156 0-.235 0l-.492-.0235c-.078 0-.14.0078-.187.0235-.047 0-.102-.0157-.164-.0469-.063.0312-.172.0312-.328 0-.032 0-.079.0078-.141.0234-.047 0-.086 0-.117 0-.094.0156-.211.0235-.352.0235-.14 0-.273.0078-.398.0234-.094 0-.196 0-.305 0-.094-.0156-.18-.0156-.258 0-.047 0-.094.0078-.14.0234-.047.0157-.11.0079-.188-.0234-.109-.0313-.195-.0469-.258-.0469-.047 0-.078 0-.093 0-.016-.0625-.032-.1094-.047-.1406-.016-.0312-.039-.0625-.071-.0938-.047-.1718-.07-.2578-.07-.2578 0-.1718-.008-.2812-.023-.3281 0-.0625 0-.1484 0-.2578.015-.25.007-.4141-.024-.4922v-.5156c-.015-.1406-.023-.2266-.023-.2578.015-.0313.023-.0625.023-.0938.016-.0625.024-.125.024-.1875s0-.125 0-.1875c-.032-.1562-.047-.25-.047-.2812.015-.0313.023-.0703.023-.1172 0-.0313 0-.0781 0-.1406.016-.0782.024-.1329.024-.1641 0-.1094 0-.1953 0-.2578.015-.0625.007-.125-.024-.1875.047-.1875.055-.3203.024-.3985-.016-.0937-.008-.1796.023-.2578.078-.1093.117-.1875.117-.2343.047-.1094.078-.1719.094-.1875.016-.0157.016-.0391 0-.0704.062-.0312.102-.0624.117-.0937.031-.0469.063-.0859.094-.1172.156-.0937.273-.1484.351-.1641.079-.0312.165-.0703.258-.1171.203-.0625.328-.1016.375-.1172.047-.0157.102-.0313.164-.0469.047-.0156.086-.0234.118-.0234.046 0 .093-.0078.14-.0235.156-.0625.235-.1015.235-.1172.078.0157.187 0 .328-.0468.093-.0625.148-.0938.164-.0938.015-.0156.039-.0234.07-.0234.125-.0781.203-.1328.234-.1641.032-.0312.063-.0547.094-.0703.047-.0313.086-.0625.117-.0937.172-.1563.305-.2813.399-.375.062-.1094.094-.1797.094-.211.015-.0312.031-.0625.046-.0937l.047-.2579c.047-.1562.055-.2968.024-.4218-.016-.1406-.039-.25-.071-.3282-.078-.1406-.117-.2109-.117-.2109 0-.0156-.008-.0234-.023-.0234-.078-.0938-.133-.1407-.164-.1407-.032 0-.055-.0156-.071-.0468-.062-.0156-.171-.0547-.328-.1172-.062-.0313-.148-.0469-.257-.0469-.126.0156-.204.0235-.235.0235-.031-.0157-.078-.0235-.141-.0235-.031.0156-.07.0313-.117.0469-.031.0156-.078.0312-.14.0469-.219.0937-.352.164-.399.2109-.047.0312-.101.0625-.164.0938-.078.1093-.133.1796-.164.2109-.031.0156-.055.0391-.07.0703-.047.0469-.086.0938-.117.1406-.032.0313-.063.0625-.094.0938-.016.0781-.047.1406-.094.1875s-.07.1172-.07.2109l-.235.1406c-.109.0938-.203.1407-.281.1407-.078-.0157-.148-.0157-.211 0-.125-.0625-.187-.1016-.187-.1172 0-.0157-.016-.0235-.047-.0235-.11-.0937-.18-.1406-.211-.1406s-.063-.0156-.094-.0469c-.109-.0312-.179-.0547-.211-.0703-.031-.0312-.07-.0625-.117-.0937-.172-.0313-.258-.0547-.258-.0703-.125-.0782-.203-.1328-.234-.1641-.156-.0625-.258-.1016-.305-.1172-.031-.0312-.062-.0547-.094-.0703-.171-.0625-.289-.1094-.351-.1406-.047-.0313-.102-.0625-.164-.0938-.156-.0781-.297-.164-.422-.2578-.031-.0156-.078-.0312-.141-.0469-.047-.0156-.086-.039-.117-.0703-.187-.0468-.344-.1328-.469-.2578.063-.1406.086-.2187.071-.2344-.016-.0156-.024-.039-.024-.0703l.071-.2812c.078-.1719.14-.2813.187-.3281.063-.0469.102-.1094.117-.1876.078-.0937.117-.1562.117-.1874 0-.0313.008-.0626.024-.0938.094-.1094.148-.1797.164-.2109.016-.0469.031-.0938.047-.1407.078-.0937.117-.1562.117-.1875 0-.0312.008-.0547.023-.0703.11-.125.172-.2031.188-.2344.031-.0468.062-.0859.094-.1171.047-.125.086-.2032.117-.2344.031-.0313.062-.0625.094-.0938.047-.0312.07-.0781.07-.1406.047-.0156.078-.0391.094-.0703.031-.0469.062-.0859.093-.1172.141-.1406.227-.2266.258-.2578.032-.0312.063-.0625.094-.0938.172-.1562.297-.25.375-.2812.094-.0938.219-.1719.375-.2344s.242-.1015.258-.1172c.031-.0312.062-.0546.094-.0703.14-.0312.257-.0469.351-.0469.203-.0468.399-.1171.586-.2109.234-.0781.438-.125.609-.1406.141.0156.219.0234.235.0234.031-.0156.062-.0234.094-.0234.171-.0469.289-.0625.351-.0469h.164c.078 0 .156.0078.235.0234h.211c.124 0 .195-.0078.21-.0234.032-.0156.063-.0234.094-.0234.125.0312.196.0468.211.0468.016-.0156.039-.0078.07.0235.079-.0156.172-.0078.282.0234.062.0157.117.0313.164.0469.047 0 .101.0078.164.0234.047.0313.094.0625.14.0938.047.0156.094.0312.141.0469.156.0625.25.0937.281.0937.047 0 .094.0156.141.0469.109.0625.172.0937.187.0937.016 0 .039.0078.071.0235.062.0312.125.0547.187.0703.063 0 .117.0156.164.0469.157.0781.243.125.258.1406.031.0156.063.0312.094.0469.109.0781.18.1328.211.164.125.0938.187.125.187.0938.016-.0469.039-.0547.071-.0235zm-2.204 13.4766c.047.0313.086.0547.118.0703.047.0156.093.0234.14.0234.078.0782.188.1407.328.1876.11.0781.18.1328.211.164.11.1094.18.1953.211.2578.078.125.125.2032.141.2344.031.0312.055.0625.07.0938l.094.3515v.2578c-.016.0625-.023.1485-.023.2578-.032.1719-.055.2735-.071.3047v.0703c-.031.0313-.062.0625-.093.0938-.016.0312-.04.0703-.071.1172-.078.125-.172.25-.281.375-.109.1093-.242.2031-.398.2812-.126.0938-.235.1641-.329.211-.156.0312-.25.0547-.281.0703-.016.0156-.039.0312-.07.0468-.156.0157-.242.0157-.258 0 0 0-.016.0079-.047.0235-.062 0-.117.0078-.164.0234-.047.0157-.086.0235-.117.0235-.156-.0157-.242-.0235-.258-.0235-.078-.0156-.172-.0234-.281-.0234-.11.0156-.203.0078-.281-.0235-.125-.0468-.219-.0703-.282-.0703-.062.0157-.125.0079-.187-.0234-.063-.0156-.141-.0547-.235-.1172-.078-.0312-.148-.0547-.21-.0703-.047-.0312-.11-.0625-.188-.0938-.203-.1406-.336-.2421-.398-.3046-.063-.0782-.11-.1719-.141-.2813-.078-.0312-.117-.0703-.117-.1172 0-.0625-.032-.125-.094-.1875-.047-.1718-.07-.2656-.07-.2812.015-.0156.023-.0391.023-.0703 0-.1719-.008-.2657-.023-.2813 0-.0156.008-.039.023-.0703.063-.125.094-.2344.094-.3281.015-.0938.047-.1797.094-.2578.109-.1094.171-.1797.187-.211.016-.0312.039-.0625.07-.0937.079-.1094.141-.1797.188-.211.141-.125.226-.1953.258-.2109.047-.0156.086-.0391.117-.0703.125-.0313.234-.0703.328-.1172.203-.0937.391-.1563.563-.1875l.539-.0234c.234 0 .445.0234.632.0703.172.0312.258.0547.258.0703s.008.0234.024.0234c.047.0156.093.0235.14.0235s.086.0078.117.0234z" fill="#693821"/></svg>