<svg fill="none" height="187" viewBox="0 0 229 187" width="229" xmlns="http://www.w3.org/2000/svg"><g fill="#6a290b"><path d="m217.027 50.3131c3.272 5.8824 5.65 12.0017 7.242 18.4368.109.4342.829.2566.72-.1777-1.636-6.4548-4.188-12.5939-7.569-18.4565-.153-.2566-.523-.0395-.393.1974z"/><path d="m218.054 46.4374c7.271 10.1834 10.603 21.141 9.554 33.0713-.046.6551 1.142.6551 1.212 0 1.026-11.9104-2.33-23.4238-10.16-33.369-.257-.3177-.839-.0397-.606.2977z"/><path d="m96.6204 8.4349c-38.0268 13.2622-67.6155 41.3892-81.4192 75.8668-13.18022 32.8953-11.08743 76.6083 30.3457 91.2323 42.7245 15.085 90.7481-3.185 123.2091-28.828 32.438-25.603 58.865-65.1488 43.993-104.9153-7.236-19.3324-23.711-34.03694-45.73-39.42595-25.737-6.31055-52.075.70117-74.2503 12.84145-3.0279 1.6628-.2671 5.95 2.783 4.2872 19.9703-10.8181 43.1033-17.58942 66.4803-13.06185 21.061 4.06685 37.47 17.18875 44.795 35.33905 14.605 36.1405-7.948 72.5614-36.669 97.1624-28.52 24.401-69.508 42.952-109.7387 35.78-22.1304-3.947-39.6966-15.786-45.7524-35.84-4.89809-16.207-2.6049-33.636 2.8943-49.4828 12.3119-35.4793 42.2792-64.4677 79.4377-80.13393.512-.22037.1558-1.0217-.3785-.82137z"/><path d="m197.567 142.445c-4.642 1.9-11.307 6.995-11.56 12.028-.275 5.596 7.125 6.431 11.399 4.761 5.125-2.005 10.779-6.933 11.537-12.174.368-2.443-1.08-4.573-3.562-5.533-3.079-1.212-6.182-.105-9.078 1.023-2.757 1.086-.367 4.823 2.367 3.696 1.264-.627 2.597-.982 4.022-1.086 1.402 1.399 1.632 2.694.644 3.925-.414 1.024-1.448 2.109-2.206 2.903-1.885 1.921-4.528 4.03-7.401 4.427-3.562.501-5.01-1.9-3.424-4.782.506-.919 1.103-1.817 1.77-2.673 1.723-2.213 3.93-3.905 6.251-5.596.62-.438-.161-1.169-.759-.919z"/><path d="m206.709 167.377c-3.307 1.521-7.205 4.522-5.126 8.316 2.173 3.944 8.197 2.122 10.961-.215 2.882-2.421 3.519-6.944.33-9.409-2.74-2.122-7.63-.964-8.315 2.401-.378 1.865 2.575 2.679 3.189.793.567-1.715 2.93-1.243 3.496.193.662 1.693-.59 3.322-2.078 4.244-1.465.9-4.63 1.95-4.843-.536-.165-1.929 1.937-3.494 3.307-4.694.662-.579-.165-1.436-.921-1.093z"/><path d="m49.2578 141.169c-2.2289 9.866-1.3981 19.895 1.7223 29.477.2026.628 1.1954.345.9928-.263-3.2014-9.603-3.708-19.105-2.2491-29.072.0405-.304-.4052-.446-.466-.142z"/><path d="m51.1827 149.172c-1.0863 13.673 2.6851 26.669 10.9246 37.632.3484.473 1.1683 0 .7993-.472-8.3215-10.84-12.2158-23.528-11.3754-37.18 0-.206-.3485-.206-.3485.02z"/></g><path d="m79.0039 86.6172c.125.0312.2578.039.3984.0234.1563-.0156.3125-.0312.4688-.0468.0781 0 .1562.0078.2344.0234.0781 0 .1562-.0078.2343-.0234.1719-.0313.2579-.0391.2579-.0235h.0703c.125-.0312.1953-.0547.2109-.0703s.0391-.0234.0703-.0234c.1875-.0157.2735-.0157.2578 0h.0469c.125-.0157.1953-.0157.2109 0h.0704c.0625-.0157.1093-.0313.1406-.0469.0469-.0156.1015-.0235.164-.0235.1875.0313.3047.0391.3516.0235s.0938-.0235.1406-.0235l.2578-.0468c.2188-.0156.3594-.0313.4219-.0469l.3281.0234c.2813.0313.4375.0547.4688.0703.0469.0313.0781.0782.0937.1407.0313.0469.0704.0859.1172.1172.0625.2187.1094.4062.1407.5625.0312.125.0468.2578.0468.3984-.0312.25-.0468.4141-.0468.4922v.1172c.0156.0468.0234.1015.0234.164-.0313.2032-.0469.3282-.0469.375.0156.0313.0235.0625.0235.0938-.0469.1562-.0625.2734-.0469.3516.0156.0624.0234.1171.0234.164.0156.125.0156.2422 0 .3516-.0156.0937-.0234.1875-.0234.2812.0156.1875.0156.3047 0 .3516v.1172.164c.0156.0469.0078.0938-.0235.1407-.1093.1562-.1796.2421-.2109.2578-.1094.0469-.1797.0781-.2109.0937-.0157.0156-.0391.0235-.0703.0235h-.3282c-.1875 0-.3047-.0079-.3515-.0235-.0313 0-.0625 0-.0938 0-.125-.0156-.25-.0234-.375-.0234s-.2578 0-.3984 0c-.125-.0156-.211-.0234-.2578-.0234-.0469.0156-.1094.0156-.1875 0-.1407-.0157-.2266-.0235-.2578-.0235-.0157.0156-.0391.0235-.0704.0235-.1562 0-.2968-.0079-.4218-.0235-.125 0-.2735-.0078-.4453-.0234-.0782-.0157-.1563-.0235-.2344-.0235s-.1563-.0078-.2344-.0234c-.125 0-.2109 0-.2578 0-.0469-.0156-.0859-.0234-.1172-.0234-.0781-.0313-.1875-.0391-.3281-.0235-.125.0157-.2422.0157-.3516 0-.25-.0156-.4922-.0156-.7265 0-.2344 0-.4844-.0078-.75-.0234-.0782.0156-.1329.0234-.1641.0234-.0313-.0156-.0703-.0156-.1172 0-.0312-.0156-.0937-.0156-.1875 0-.0937.0157-.1562.0313-.1875.0469-.0469 0-.1094 0-.1875 0-.0625.0156-.1328.0156-.2109 0-.0313 0-.0703 0-.1172 0-.0313-.0156-.0781-.0156-.1406 0-.1875.0156-.3204.0312-.3985.0469-.0625.0156-.1328.0156-.2109 0-.1875-.0157-.3125-.0157-.375 0-.0469.0156-.0938.0312-.1406.0469h-.4219l-.3516.0234c-.0469 0-.0937 0-.1406 0-.0313.0156-.0703.0234-.1172.0234-.0312 0-.0703-.0078-.1172-.0234-.0469 0-.0937 0-.1406 0-.0625 0-.1094 0-.1406 0-.0313.0156-.0782.0156-.1407 0s-.1171-.0313-.164-.0469-.1016-.0312-.1641-.0469c-.0937-.1562-.1484-.2656-.164-.3281-.0157-.0625-.0469-.1172-.0938-.1641l-.1172-.2812c-.125-.1406-.2031-.2578-.2344-.3516-.0781-.1406-.125-.2343-.1406-.2812-.0156-.0625-.039-.1172-.0703-.1641 0-.0781-.0156-.1328-.0469-.164-.0312-.0469-.0625-.0938-.0937-.1407-.0156-.1406-.0235-.2109-.0235-.2109 0-.0156-.0078-.0313-.0234-.0469l-.1406-.375c-.0313-.0781-.0547-.1406-.0703-.1875-.0157-.0625-.0547-.1093-.1172-.1406.0156-.1094.0234-.1797.0234-.2109.0156-.0313.0235-.0704.0235-.1172.0312-.1563.0703-.2735.1171-.3516.0625-.0781.1172-.1484.1641-.2109.1406-.1094.2266-.1641.2578-.1641.0313-.0156.0625-.0312.0938-.0469.0781-.0625.125-.0937.1406-.0937.0312-.0156.0625-.0391.0937-.0703.1094-.0938.1719-.1407.1875-.1407.0157-.0156.0391-.039.0704-.0703l.3046-.2812c.1094-.0781.1719-.125.1875-.1406l.0938-.0938.2812-.2344.211-.164c.1094-.125.1719-.1875.1875-.1875.1406-.1406.2265-.2188.2578-.2344.125-.1094.1953-.1719.2109-.1875.0157-.0313.0391-.0547.0703-.0703.125-.0938.1875-.1406.1875-.1406 0-.0157.0079-.0313.0235-.0469.2187-.2031.3672-.3438.4453-.4219.0781-.0937.1562-.1797.2344-.2578.0937-.0938.164-.1641.2109-.2109.1406-.125.2188-.1875.2344-.1875s.0312-.0157.0469-.0469c.1562-.125.2812-.2344.375-.3281.0625-.0625.1093-.0938.1406-.0938.0312-.0156.0625-.0312.0937-.0469l.211-.2109c.0312-.0312.0625-.0625.0937-.0938.0313-.0312.0625-.0624.0938-.0937.0781-.0937.1406-.1563.1875-.1875.0468-.0469.0937-.0938.1406-.1406.1094-.125.1797-.1953.2109-.211.1563-.1875.2657-.3046.3282-.3515.0625-.0625.125-.1328.1875-.211.0781-.0781.1484-.164.2109-.2578.0781-.0937.1562-.1875.2344-.2812.0937-.0781.1797-.1641.2578-.2578.0781-.125.1328-.1953.164-.211.0313-.0156.0313-.039 0-.0703.0782-.0312.1329-.0781.1641-.1406.0469-.0625.0938-.125.1406-.1875.0157-.0469.0391-.0938.0703-.1406.0313-.0469.0625-.0938.0938-.1407.0312-.0468.0547-.1015.0703-.164s.0547-.1094.1172-.1406c0-.0782.0078-.1485.0234-.211.0313-.0625.0625-.1328.0938-.2109.0312-.0938.0469-.1641.0469-.211 0-.0625 0-.1093 0-.1406 0-.2031-.0079-.3203-.0235-.3515 0-.0469 0-.0938 0-.1407 0-.1406-.0078-.2109-.0234-.2109 0-.0156 0-.0313 0-.0469-.0313-.0625-.0469-.1172-.0469-.1641 0-.0468-.0156-.0937-.0469-.1406-.0312-.0312-.0859-.0781-.164-.1406-.0625-.0781-.1172-.1328-.1641-.1641-.1094-.0468-.1953-.0703-.2578-.0703-.0938-.0312-.1563-.039-.1875-.0234-.0313 0-.0625 0-.0938 0-.0468 0-.0937 0-.1406 0-.0469-.0156-.1015-.0156-.164 0-.1094.0312-.1875.0547-.2344.0703s-.086.0234-.1172.0234c-.0781 0-.1719.0391-.2813.1172-.1875.125-.2968.211-.3281.2578-.0312.0469-.0703.0782-.1172.0938-.0625.0937-.1172.1641-.164.2109-.0469.0625-.086.1172-.1172.1641-.0156.0312-.0313.0625-.0469.0937-.0781.1563-.125.25-.1406.2813-.0156.0156-.0313.0391-.0469.0703-.0469.1719-.0937.2812-.1406.3281-.0313.0469-.0547.1094-.0703.1875-.0157.0625-.0391.1172-.0703.1641-.0469.0469-.0938.1094-.1407.1875-.0312.0781-.0625.1562-.0937.2344-.0781.1406-.1172.2265-.1172.2578-.1406.125-.2422.2109-.3047.2578-.25 0-.4297-.0156-.5391-.0469-.0937-.0312-.1562-.1015-.1875-.2109-.1406-.0782-.25-.1328-.3281-.1641-.1562-.0625-.25-.1015-.2812-.1172-.0313-.0156-.0625-.0312-.0938-.0469-.0625-.0312-.125-.0546-.1875-.0703-.0469-.0312-.0859-.0781-.1172-.1406-.0781.0156-.125.0078-.1406-.0234-.0156-.0469-.0547-.0781-.1172-.0938-.0781-.0625-.1562-.1406-.2344-.2343-.0625-.0938-.1562-.1719-.2812-.2344-.0781-.0625-.125-.0938-.1406-.0938-.0157-.0156-.0391-.039-.0703-.0703-.0625-.0469-.1094-.0781-.1407-.0937-.0312-.0313-.0625-.0625-.0937-.0938-.1406-.0781-.2344-.1406-.2813-.1875-.0781-.0781-.1484-.1328-.2109-.1641-.1719-.1562-.2656-.2421-.2813-.2578-.0781-.125-.125-.1875-.1406-.1875-.0156-.0156-.0234-.0312-.0234-.0468-.0313-.0782-.0547-.1407-.0703-.1875 0-.0625.0078-.1094.0234-.1407.0781-.1875.125-.3203.1406-.3984.0625-.1563.0938-.2422.0938-.2578 0-.0313.0078-.0547.0234-.0703.0781-.1094.1172-.1719.1172-.1875 0-.0313.0078-.0625.0234-.0938.0782-.0937.125-.1562.1407-.1875.0312-.0468.0547-.0859.0703-.1172.0937-.1406.1406-.2187.1406-.2343.0156-.0313.0391-.0625.0703-.0938.0938-.1562.1563-.2422.1875-.2578.0469-.1094.0781-.1641.0938-.1641.0312-.0156.039-.039.0234-.0703.0938-.1093.1484-.164.1641-.164.0312-.0157.0547-.0391.0703-.0703.0312-.0313.0625-.0626.0937-.0938.0469-.0469.1016-.0781.1641-.0938.0312-.0624.0703-.1015.1172-.1171.0469-.0157.0859-.0469.1172-.0938l.0937-.0937c.0469-.0313.086-.0704.1172-.1172.0469-.0156.0859-.0313.1172-.0469.0312-.0156.0703-.0391.1172-.0703.1094-.125.2109-.2031.3047-.2344.1406-.1094.2265-.1719.2578-.1875.0312-.0156.0781-.0312.1406-.0469.1563-.1093.25-.164.2813-.164.0468 0 .0859-.0156.1171-.0469.1094-.0625.1797-.0937.211-.0937.0469 0 .0937-.0157.1406-.0469.1406-.0625.2266-.1016.2578-.1172.0313-.0156.0625-.0313.0938-.0469.0468-.0156.0859-.0156.1172 0 .0468 0 .0937-.0078.1406-.0234.0312-.0156.0625-.0313.0937-.0469.0469-.0156.1016-.0234.1641-.0234.1562 0 .2891-.0235.3984-.0703.1094-.0469.2266-.0782.3516-.0938.0937.0156.1562.0156.1875 0 .0469-.0156.0859-.0234.1172-.0234h.3281c.0313-.0157.0625-.0391.0938-.0704.1093.0469.2265.0547.3515.0235l.2813-.0235.2578.0469h.3281c.0625-.0156.1172-.0156.1641 0 .0312 0 .0703.0157.1172.0469.0468.0156.0937.0312.1406.0469.1562.0156.25.0469.2812.0937.1875.0469.3047.086.3516.1172.0469.0313.1016.0313.1641 0 .0468.0625.1015.1016.164.1172.0625 0 .1172.0156.1641.0469l.2578.1875c.1562.0468.2344.0781.2344.0937h.0234c.1563.0938.25.1407.2813.1407.1406.1093.2265.1796.2578.2109.0937.0781.164.1328.2109.1641.1094.0624.1797.1171.2109.164.0469.0469.0938.0938.1407.1406.0312.0313.0703.0625.1172.0938.0468.0156.0859.039.1171.0703.0625.0469.1094.0937.1407.1406.0312.0313.0625.0547.0937.0703.0625.1407.1406.25.2344.3282.0469.0937.0781.1484.0937.164.0313 0 .0625.0156.0938.0469.0156.0625.0703.1563.1641.2813.0625.0781.1171.1718.164.2812.0469.0938.0938.1953.1406.3047.0625.125.1172.2109.1641.2578.0313.1563.0625.2734.0938.3516.0625.2031.0937.3359.0937.3984s.0078.1328.0234.2109c.0469.2032.0782.3282.0938.375.0156.0313.0156.0704 0 .1172.0781.125.1016.2813.0703.4688-.0312.1875-.0234.3437.0234.4687-.0312.125-.0546.25-.0703.375 0 .1094-.0234.2031-.0703.2813 0 .1406-.0078.2344-.0234.2812-.0156.0469-.0313.0938-.0469.1406-.0312.1563-.0469.25-.0469.2813-.0781.125-.125.2031-.1406.2344 0 .0156-.0078.0312-.0234.0469l-.1641.2343c0 .0938-.0156.1641-.0469.211-.0312.0468-.0625.1093-.0937.1875-.1406.0781-.211.125-.211.1406 0 0-.0078.0078-.0234.0234-.0625.0625-.1016.1094-.1172.1406 0 .0157-.0156.0391-.0469.0704-.0937.125-.1562.1953-.1875.2109-.0156 0-.0312.0156-.0468.0469-.1094.1562-.1797.2656-.211.3281-.125.125-.1953.1953-.2109.2109 0 0-.0078 0-.0234 0-.1094.125-.2032.2266-.2813.3047-.125.1407-.1875.211-.1875.211.0156 0 .0156.0078 0 .0234-.125.1094-.2109.1875-.2578.2344-.0938.0937-.1563.164-.1875.2109-.0313.0469-.0781.086-.1406.1172-.1407.125-.2266.2031-.2578.2344-.0157.0156-.0391.039-.0704.0703-.1406.125-.2187.2031-.2343.2344-.0157.0312-.0391.0547-.0703.0703-.0938.1562-.1485.2344-.1641.2344s-.0313.0078-.0469.0234c-.0625.0937-.1406.1719-.2344.2344-.0468.0468-.0859.0859-.1171.1172-.0313.0312-.0625.0624-.0938.0937-.0781.0781-.1406.1406-.1875.1875s-.0859.1016-.1172.1641c-.0312.0312-.0625.0703-.0937.1171-.0157.0313-.0469.0547-.0938.0704l-.164.2109c-.0782.0469-.1329.0937-.1641.1406-.0313.0313-.0625.0625-.0938.0938-.125.125-.1953.1875-.2109.1875-.0156.0468-.0469.0937-.0937.1406-.0313.0312-.0625.0703-.0938.1172zm6.9844-2.9297c-.0156-.1875-.0235-.2813-.0235-.2813-.0312-.2031-.0468-.3359-.0468-.3984 0-.0781 0-.1562 0-.2344 0-.0781.0078-.1484.0234-.2109s.0078-.1328-.0234-.2109c.0468-.0625.0625-.125.0468-.1875 0-.0782 0-.1563 0-.2344.0157-.1563.0157-.2422 0-.2578 0-.0313 0-.0625 0-.0938l.0235-.2812c0-.125.0078-.1875.0234-.1875.0156-.0156.0235-.0391.0235-.0703-.0157-.0782-.0079-.1641.0234-.2579 0-.0781 0-.1562 0-.2343s.0156-.1563.0469-.2344l.0468-.2813c.0625-.2187.0938-.3437.0938-.375.0312-.0624.0625-.1562.0937-.2812.0157-.0312.0313-.0703.0469-.1172.0156-.0625.0313-.125.0469-.1875.0312-.0469.0469-.1015.0469-.1641.0156-.0781.039-.1484.0703-.2109.0937-.1875.1406-.3047.1406-.3515.0156-.0469.0313-.086.0469-.1172.0625-.125.0937-.1875.0937-.1875.0157-.0157.0313-.0391.0469-.0703.0469-.1563.0703-.2344.0703-.2344.0156-.0156.0313-.0391.0469-.0703.0937-.2188.1406-.336.1406-.3516.0781-.1719.1328-.2656.1641-.2813.0312-.0312.0547-.0781.0703-.1406.0781-.0625.125-.1094.1406-.1406.0313-.0469.0625-.0859.0938-.1172.0156-.0937.0468-.164.0937-.2109.0469-.0625.1016-.1094.1641-.1407.0937-.1093.1484-.1874.164-.2343.0313-.0625.0782-.1016.1407-.1172.0937-.1094.1484-.1797.164-.2109.0157-.0313.0391-.0626.0703-.0938.2188-.1875.3516-.3047.3985-.3516.2187-.1718.3594-.2812.4219-.3281.0468-.0469.0859-.0781.1171-.0937.0313-.0313.0625-.0625.0938-.0938.125-.0937.2031-.1406.2344-.1406.0312-.0156.0625-.0313.0937-.0469.1406-.1094.211-.1641.211-.1641 0-.0156.0156-.0312.0468-.0468.1407-.0782.2266-.125.2578-.1406.0469-.0157.086-.0391.1172-.0704.1719-.0937.2657-.1328.2813-.1172.0312 0 .0312-.0156 0-.0468.125-.0469.1953-.0703.2109-.0703s.0313-.0079.0469-.0235c.125-.0625.2031-.1094.2344-.1406.0468-.0312.1093-.0547.1875-.0703.0781-.0313.1406-.0703.1875-.1172.0625.0156.1093.0078.1406-.0234.0312-.0313.0625-.0625.0937-.0938.0782 0 .1563-.0156.2344-.0469.0781-.0312.1563-.0312.2344 0 .0937-.0156.1641-.0234.2109-.0234.0625-.0156.125-.0234.1875-.0234.0782 0 .1485.0078.211.0234.0781.0156.1562.0078.2343-.0234.1407.0312.2188.0468.2344.0468.0313-.0156.0703-.0234.1172-.0234.0938-.0156.1875-.0156.2813 0 .1718.0312.2578.0469.2578.0469.1093.0312.2187.0469.3281.0469.125 0 .2187.039.2812.1171.0938.0157.1719.0391.2344.0703.0781.0313.1485.0626.211.0938.125.0781.1953.1172.2109.1172.0156-.0156.0391-.0156.0703 0 .1563.0781.2344.1172.2344.1172.1406.0312.2109.0547.2109.0703h.0469l.3281.2109c.1406.0625.2188.1172.2344.1641.0781.0156.1328.0469.1641.0937.0468.0469.1093.086.1875.1172.1406.0938.2265.1563.2578.1875.0468.0313.0859.0625.1172.0938.1093.1093.1796.1719.2109.1875.1719.1406.3125.25.4219.3281l.3047.3047c.125.1406.1953.2344.2109.2812.0312.0469.0625.086.0937.1172.0625.125.1016.1953.1172.211.0157.0156.0313.039.0469.0703.0938.1719.1406.2734.1406.3047.1094.125.1719.1953.1875.2109.0157.0469.0313.0937.0469.1406.0313.0469.0469.086.0469.1172.0625.0625.1094.125.1406.1875.0313.0625.0625.1328.0938.211.0781.1718.1328.3046.164.3984.125.2187.2031.3516.2344.3984.0469.1563.0781.2656.0937.3282.0157.0468.0547.0859.1172.1171 0 .0782.0078.1485.0235.211.0312.0625.0625.1328.0937.2109.0625.2188.0938.3594.0938.4219.0156.0469.0235.0937.0235.1406.016.1094.023.1797.023.2109.016.0157.024.0391.024.0704.047.125.07.2265.07.3046.078.1876.117.3204.117.3985.047.1406.063.2344.047.2812v.1172c.016.0469.024.1563.024.3281.031.125.046.2344.046.3282.016.0625.024.1562.024.2812-.016.1719-.031.3438-.047.5156-.016.1719-.031.3438-.047.5157v.1172c.016.0468.016.0937 0 .1406 0 .0781-.008.1484-.023.2109-.016.0625-.024.1328-.024.211v.1406c.016.0469.008.0859-.023.1172-.016.0312-.024.0703-.024.1172.016.0468.008.0937-.023.1406-.063.2031-.094.3828-.094.539 0 .1563-.039.2891-.117.3985-.0312.1719-.0547.2734-.0703.3047-.0156.0156-.0312.039-.0469.0703l-.1171.4219c-.0469.1562-.0782.2422-.0938.2578-.0156 0-.0312.0156-.0469.0468-.0312.0782-.0547.1407-.0703.1876-.0156.0312-.0234.0781-.0234.1406-.0781.1562-.125.2422-.1406.2578l-.0938.3047c-.0781.1562-.1484.2812-.2109.375-.0938.1562-.1485.2578-.1641.3047-.0156.0312-.0391.0546-.0703.0703-.0625.1406-.0938.2343-.0938.2812-.125.0938-.2031.1719-.2343.2344-.0313.0313-.0625.0781-.0938.1406-.0312.0469-.0625.086-.0937.1172-.0782.1094-.1328.1875-.1641.2344-.0156.0312-.0469.0469-.0937.0469-.0938.1406-.1641.2343-.211.2812-.0625.0625-.1094.1172-.1406.1641-.0156.0312-.0391.0625-.0703.0937-.1406.1094-.25.2032-.3281.2813-.0469.0469-.1094.1015-.1875.164-.0625.0625-.1329.125-.211.1875-.0937.0938-.2109.1875-.3515.2813-.0469.0312-.0938.0547-.1407.0703-.0312 0-.0703.0156-.1172.0469-.0937.0781-.2187.1406-.375.1875-.1406.0781-.2343.125-.2812.1406-.0313 0-.0625.0234-.0938.0703-.2031.0781-.3359.125-.3984.1406-.0625.0313-.1328.0625-.2109.0938l-.2578.0469c-.0469.0156-.1016.0312-.1641.0468-.0469.0157-.0859.0235-.1172.0235-.0937.0312-.1875.0469-.2812.0469-.125.0468-.211.0624-.2579.0468-.0468 0-.1015 0-.164 0-.1406.0625-.2266.0938-.2578.0938-.1719-.0156-.2735-.0313-.3047-.0469-.0156 0-.0391 0-.0703 0-.1719-.0156-.2969-.0234-.375-.0234-.0782 0-.1563-.0079-.2344-.0235-.0469 0-.1094 0-.1875 0-.0625 0-.125-.0156-.1875-.0468-.0781-.0157-.1406-.0313-.1875-.0469-.0469 0-.0859-.0157-.1172-.0469-.1562 0-.2578-.0156-.3047-.0469-.0312-.0156-.0703-.0156-.1172 0-.0468-.0312-.0937-.0547-.1406-.0703-.0312-.0156-.0703-.039-.1172-.0703s-.1015-.0469-.164-.0469-.1172-.0156-.1641-.0468c-.1094-.0782-.1719-.1172-.1875-.1172s-.0391-.0078-.0703-.0235c-.1406-.0625-.211-.0937-.211-.0937 0-.0156-.0078-.0235-.0234-.0235-.125-.0625-.1875-.125-.1875-.1875-.2344-.1875-.4219-.3125-.5625-.375s-.2344-.164-.2812-.3046c-.125-.0938-.1954-.1485-.211-.1641-.1406-.0938-.2187-.1485-.2344-.1641-.0781-.125-.1328-.2031-.164-.2344-.1406-.1562-.2344-.2578-.2813-.3046-.0312-.0625-.0703-.1094-.1172-.1407-.0937-.125-.164-.2109-.2109-.2578s-.1016-.0937-.1641-.1406c-.0625-.125-.1093-.1875-.1406-.1875-.0312-.0156-.0625-.0391-.0937-.0703-.1563-.1563-.2422-.3203-.2578-.4922-.0938-.1563-.1641-.2578-.211-.3047-.0312-.0469-.0547-.1094-.0703-.1875-.0781-.125-.1172-.2031-.1172-.2344-.0781-.1093-.125-.1875-.1406-.2343-.0625-.1719-.0938-.2657-.0938-.2813 0-.0312-.0156-.0625-.0468-.0937-.0469-.125-.086-.2344-.1172-.3282l-.0703-.3046c-.0625-.1563-.0938-.2422-.0938-.2579 0-.0156-.0078-.0312-.0234-.0468-.0313-.1875-.0547-.2969-.0703-.3282-.0157-.0468-.0313-.0859-.0469-.1171-.0156-.1876-.0313-.3047-.0469-.3516s-.0312-.1016-.0469-.1641c-.0312-.125-.0468-.2031-.0468-.2343.0156-.0469.0078-.086-.0235-.1172l-.0703-.2578c0-.0469 0-.0938 0-.1407.0156-.0469.0156-.0937 0-.1406zm8.6719-5.6016c-.0938-.125-.1485-.1875-.1641-.1875-.0156-.0156-.0313-.0312-.0469-.0468-.0625-.0625-.125-.1407-.1875-.2344-.0625-.0469-.125-.1094-.1875-.1875-.0469-.0938-.1015-.1563-.164-.1875l-.2579-.1172c-.2343-.0469-.3906-.0547-.4687-.0234-.2031.0781-.3359.1328-.3984.164-.0469.0156-.0938.0391-.1407.0703-.0937.0625-.1562.1016-.1875.1172-.0312.0157-.0547.0391-.0703.0703l-.2109.1641c-.1406.125-.2266.2109-.2578.2578-.0938.1094-.1485.1719-.1641.1875-.0156 0-.0234.0078-.0234.0234-.1094.1407-.1719.2344-.1875.2813-.0157.0469-.0469.0937-.0938.1406-.0156.0625-.039.1172-.0703.1641-.0156.0312-.0391.0625-.0703.0937-.0469.0938-.0703.1641-.0703.211 0 .0312-.0078.0625-.0235.0937-.0156.0313-.0546.0938-.1171.1875-.0625.0781-.0782.1407-.0469.1875-.0313.0469-.0469.0938-.0469.1406 0 .0313-.0078.0704-.0234.1172-.0782.1875-.125.3282-.1407.4219-.0156.0781-.039.1641-.0703.2578-.0156.0781-.0312.1485-.0468.211 0 .0625-.0157.125-.0469.1875.0312.0937.0312.164 0 .2109-.0156.0469-.0235.1016-.0235.1641-.0156.1406-.0234.2343-.0234.2812v.0938c0 .0625-.0078.125-.0234.1875v.1875.3046c0 .0469.0078.1094.0234.1876.0156.0624.0156.1171 0 .164l.0234.3984c.0157.1407.0313.2344.0469.2813s.0235.0937.0235.1406c0 .0781-.0079.1485-.0235.211s-.0078.125.0235.1875c.0312.1562.0546.2422.0703.2578.0156.1875.0234.2812.0234.2812.0313.1094.0469.2032.0469.2813.0625.1562.1015.2578.1172.3047.0156.0468.0312.0937.0468.1406.0157.125.0313.1953.0469.2109.0156 0 .0235.0157.0235.0469.0625.1719.0937.2656.0937.2812 0 .0157.0078.0313.0234.0469.0469.0781.0938.1563.1407.2344.0468.0625.0625.1563.0468.2813.0625.1718.0938.2812.0938.3281s.0156.0781.0469.0937c.0781.1094.1093.1719.0937.1875 0 0 .0078.0157.0235.0469l.1406.1406s.0234.0391.0234.0703c.1406.0782.2344.1407.2813.1875.1406.1407.2265.2188.2578.2344.0312 0 .0469.0313.0469.0938.125.0468.2109.0781.2578.0937.0625 0 .1172.0078.164.0235.1563.0624.2344.0937.2344.0937.0156-.0156.0313-.0234.0469-.0234.1562-.0157.2578-.0235.3047-.0235.1718-.0468.2578-.0703.2578-.0703.1719-.125.2734-.1953.3047-.2109.0468-.0156.0859-.0547.1172-.1172.1406-.125.2343-.2188.2812-.2813.0625-.0625.1172-.1328.1641-.2109.125-.1562.1953-.2656.2109-.3281.0313-.0625.0703-.1094.1172-.1407.0625-.2187.1094-.3437.1406-.375.0625-.1562.0938-.2578.0938-.3046.0156-.0625.039-.1172.0703-.1641.0469-.2187.0781-.3437.0937-.375.0313-.0313.0547-.0625.0703-.0937.0313-.0626.0469-.125.0469-.1876 0-.0781.0313-.1328.0938-.164 0-.0625.0078-.125.0234-.1875s.0313-.125.0469-.1875c.0469-.2031.0703-.336.0703-.3984 0-.0782.0078-.1563.0234-.2344.0625-.1719.086-.2656.0703-.2813 0-.0312 0-.0547 0-.0703.0313-.1562.0313-.2656 0-.3281 0-.0469 0-.0938 0-.1406.0157-.0469.0313-.1016.0469-.1641 0-.1562 0-.2578 0-.3047 0-.0625 0-.1328 0-.2109 0-.1719-.0078-.2813-.0234-.3282-.0156-.0468-.0235-.0859-.0235-.1171 0-.125 0-.2344 0-.3282 0-.0937-.0156-.1875-.0468-.2812-.0157-.0469-.0235-.0938-.0235-.1406 0-.0625 0-.1094 0-.1407-.0625-.1718-.0937-.2734-.0937-.3046.0156-.0469.0234-.0938.0234-.1407-.0469-.0781-.0703-.1328-.0703-.164 0-.0469-.0156-.086-.0469-.1172.0313-.0781.0313-.1407 0-.1875-.0312-.0625-.0547-.1172-.0703-.1641-.0469-.1875-.0781-.3047-.0937-.3515-.0469-.1876-.086-.2969-.1172-.3282-.0469-.1718-.0781-.2656-.0938-.2812 0-.0156-.0078-.0313-.0234-.0469-.0781-.1875-.125-.2969-.1406-.3281-.0938-.1875-.1563-.2891-.1875-.3047-.0157-.0313-.0391-.0625-.0703-.0938zm6.3278 13.0547c.063-.2031.094-.3203.094-.3515.094-.1563.133-.2344.117-.2344 0-.0156.008-.0391.024-.0703.187-.3282.375-.586.562-.7735 0-.0781.016-.1406.047-.1875.047-.0468.086-.0859.117-.1172.078-.125.11-.1953.094-.2109 0-.0156.008-.0312.023-.0469l.164-.2109c.063-.1406.133-.2344.211-.2813.063-.1718.102-.2578.118-.2578.015-.0156.023-.0312.023-.0468.094-.125.148-.2032.164-.2344.031-.0313.063-.0625.094-.0938.062-.1406.125-.2578.187-.3515.094-.1719.172-.2891.235-.3516.109-.1562.164-.25.164-.2812 0-.0469.015-.086.047-.1172.14-.1719.242-.3203.304-.4453.078-.1563.118-.2344.118-.2344.015 0 .031-.0078.046-.0234.047-.1719.086-.2735.118-.3047.046-.125.086-.2032.117-.2344.047-.0469.086-.0859.117-.1172.062-.1406.102-.2187.117-.2344.016-.0156.031-.039.047-.0703.063-.0937.102-.164.117-.2109.016-.0469.039-.0938.071-.1407.109-.1406.164-.2187.164-.2343 0-.0313.007-.0547.023-.0703.109-.1719.164-.2657.164-.2813s.008-.0312.024-.0469c-.016-.1875-.063-.3125-.141-.375-.063-.1406-.109-.2109-.141-.2109-.015-.0156-.031-.0391-.047-.0703-.031-.1094-.062-.1875-.093-.2344-.032-.0469-.063-.0859-.094-.1172-.063-.1094-.117-.1797-.164-.2109-.031-.0469-.063-.0938-.094-.1406-.078-.1094-.117-.1719-.117-.1875 0-.0157-.008-.0313-.024-.0469-.078-.0938-.125-.1485-.14-.1641 0-.0312-.008-.0547-.024-.0703l-.211-.3515c-.062-.0938-.109-.1407-.14-.1407-.016-.0156-.031-.039-.047-.0703-.109-.1719-.172-.2578-.188-.2578-.015-.0156-.031-.0312-.046-.0469-.063-.0781-.118-.1562-.164-.2343-.047-.0782-.102-.1485-.165-.211-.031-.1094-.078-.1953-.14-.2578-.094-.0938-.141-.1484-.141-.1641 0-.0156-.008-.039-.023-.0703-.11-.1562-.164-.2422-.164-.2578s-.016-.0312-.047-.0469c-.031-.0625-.07-.1171-.117-.164-.032-.0469-.063-.0938-.094-.1407-.109-.125-.172-.1874-.188-.1874-.015 0-.023-.0079-.023-.0235-.063-.125-.102-.1875-.117-.1875-.016-.0156-.039-.039-.071-.0703l-.117-.2578c-.078-.1563-.117-.2422-.117-.2578-.062-.0313-.109-.0703-.141-.1172-.015-.0625-.054-.1016-.117-.1172-.015-.0469-.031-.0859-.047-.1172-.015-.0469-.039-.0937-.07-.1406-.078-.1094-.125-.1875-.141-.2344-.015-.0625-.046-.1094-.093-.1406-.032-.1563-.063-.2969-.094-.4219-.031-.1562-.039-.2344-.023-.2344 0-.0156.007-.039.023-.0703.094-.0937.148-.1484.164-.164 0-.0157.008-.0235.023-.0235.063-.0156.125-.0156.188 0 .062 0 .125-.0078.187-.0234.172-.0156.266-.0156.282 0h.093c.188-.0156.297-.0234.329-.0234.046-.0157.109-.0157.187 0 .109 0 .172.0078.188.0234h.093c.125 0 .196.0078.211.0234h.071c.125-.0156.203-.0156.234 0h.141.328c.047-.0156.086-.0234.117-.0234.172.0156.273.0234.305.0234.031-.0156.07-.0234.117-.0234.14.0156.226.0234.258.0234.046-.0156.093-.0234.14-.0234h.258c.188-.0469.344-.0625.469-.0469.14 0 .25.0391.328.1172.078-.0156.125-.0078.141.0234.031.0313.078.0547.14.0703.031.0782.063.1485.094.211.047.0625.078.1328.094.2109.14.1563.218.25.234.2813.031.0312.063.0625.094.0937.062.1563.109.2657.14.3281.079.1407.125.2344.141.2813.031.0469.055.0937.07.1406.047.0781.078.1563.094.2344s.039.1641.07.2578c.063.1406.102.2344.118.2813.031.0312.062.0625.093.0937.125.1875.211.3281.258.4219.188.1094.297.125.328.0469.047-.0782.094-.125.141-.1407.078-.1875.141-.2968.187-.3281.079-.1562.118-.2422.118-.2578s.015-.0156.046 0c-.031-.0781-.023-.1328.024-.1641.062-.0312.086-.0859.07-.164l.141-.2344c.047-.0781.094-.1562.14-.2344.047-.0781.094-.1562.141-.2344.031-.0468.055-.0859.07-.1171.032-.0469.047-.0938.047-.1407.11-.125.164-.2109.164-.2578.016-.0468.047-.0781.094-.0937.031-.0938.047-.1563.047-.1875.016-.0469.039-.086.07-.1172.094-.1563.149-.2266.164-.211.032 0 .039-.0156.024-.0468.125-.0469.195-.0782.211-.0938.015-.0156.039-.0312.07-.0468.188-.0157.297-.0313.328-.0469.047-.0313.086-.0469.117-.0469.11 0 .211-.0078.305-.0234.094-.0157.18-.0235.258-.0235.14.0313.211.0469.211.0469.015-.0156.031-.0234.047-.0234.156.0312.25.0468.281.0468.047-.0156.086-.0234.117-.0234.188.0156.297.0312.328.0469h.094c.141-.0157.234-.0157.281 0 .063 0 .133-.0078.211-.0235h.61c.093.0157.195.0157.304 0 .078 0 .156.0078.235.0235.078.0156.156.0234.234.0234s.141.0078.187.0235c.063 0 .133-.0079.211-.0235.125.1094.196.1719.211.1875.016 0 .032.0156.047.0469.016.1875.016.3047 0 .3515-.015.0313-.031.0626-.047.0938-.078.1719-.132.2891-.164.3516-.031.0468-.07.0937-.117.1406-.047.0781-.101.1484-.164.2109-.062.0625-.094.1328-.094.211-.093.0625-.164.1484-.211.2578-.109.1406-.164.2187-.164.2343l-.187.1876c-.031.0937-.055.1562-.071.1874-.015.0157-.031.0391-.046.0704-.094.125-.141.1953-.141.2109.016 0 .008.0078-.023.0234-.094.1563-.157.25-.188.2813l-.141.2344c-.046.0625-.07.1093-.07.1406 0 .0312-.016.0625-.047.0937-.062.0313-.101.0782-.117.1407s-.055.1093-.117.1406c0 .0625-.016.1094-.047.1406-.031.0313-.055.086-.07.1641-.11.1093-.164.1797-.164.2109 0 .0313-.008.0625-.024.0938-.062.0625-.101.1093-.117.1406-.016.0156-.039.039-.07.0703-.063.0781-.102.1328-.118.1641 0 .0156-.015.039-.046.0703-.094.125-.157.2109-.188.2578-.109.1875-.187.3047-.234.3515-.032.0469-.063.0938-.094.1407-.125.1875-.211.3047-.258.3515-.031.0469-.062.0938-.094.1407-.031.0312-.054.0703-.07.1171-.156.1563-.242.2579-.258.3047-.015.0469-.054.086-.117.1172-.031.0781-.078.1485-.141.211-.046.0468-.085.1093-.117.1875.063.1875.102.2968.117.3281.016.0156.032.0391.047.0703.047.1094.086.1719.118.1875.031.0156.054.0391.07.0703.078.2031.148.3438.211.4219.062.0625.109.1406.14.2344.032.0312.063.0625.094.0937.031.0313.063.0625.094.0938.047.0937.101.1718.164.2343.062.125.109.2032.141.2344.031.0313.062.0625.093.0938.016.0312.032.0703.047.1171.031.0313.063.0704.094.1172.109.1094.18.1954.211.2578.031.0469.062.0938.094.1407.125.1875.203.3047.234.3515.031.0313.063.0704.094.1172.047.1406.094.2266.14.2578.094.1094.133.1719.118.1875 0 .0157.015.0313.046.0469.094.1406.141.2188.141.2344 0 0 .008.0078.024.0234.093.0938.164.1797.21.2578.094.1407.172.2422.235.3047.047.1094.109.1953.187.2578s.133.1485.164.2579c.047.0624.118.1406.211.2343.141.1875.25.336.328.4453.079.1094.157.2032.235.2813.078.1719.117.2734.117.3047.016.0312.031.0625.047.0937-.016.1875-.016.3047 0 .3516.016.0312.023.0703.023.1172-.187.0937-.304.1484-.351.164-.031.0157-.078.0157-.141 0-.031 0-.078-.0078-.14-.0234-.063 0-.118 0-.165 0-.156-.0156-.257-.0234-.304-.0234-.188-.0313-.297-.0469-.328-.0469-.094 0-.164.0078-.211.0234s-.086.0235-.117.0235c-.047 0-.102-.0079-.165-.0235-.046-.0156-.093-.0312-.14-.0468-.047.0156-.102.0156-.164 0-.063-.0157-.11-.0235-.141-.0235-.094 0-.219 0-.375 0-.14.0156-.25.0235-.328.0235-.187-.0157-.305-.0157-.352 0-.046.0156-.085.0234-.117.0234-.187 0-.32.0078-.398.0234-.078.0313-.164.0313-.258 0-.156-.0937-.25-.1406-.281-.1406-.016-.0156-.047-.0234-.094-.0234-.125-.1094-.203-.1719-.234-.1875-.016-.0157-.024-.0391-.024-.0703-.078-.0626-.133-.1485-.164-.2579-.031-.1093-.086-.1953-.164-.2578-.016-.0625-.039-.1093-.07-.1406-.031-.0469-.063-.0937-.094-.1406-.094-.1407-.148-.211-.164-.211 0-.0156 0-.0312 0-.0468-.078-.125-.125-.1875-.141-.1875 0-.0157-.007-.0391-.023-.0704-.125-.1093-.188-.164-.188-.164.016-.0156.016-.0313 0-.0469-.078-.0937-.164-.2031-.257-.3281-.141-.1563-.219-.2578-.235-.3047-.078-.1094-.125-.1797-.14-.2109 0-.0313-.016-.0625-.047-.0938-.032-.0312-.063-.0625-.094-.0937-.031-.0313-.07-.0625-.117-.0938-.094.1406-.156.2656-.188.375-.093.125-.148.2031-.164.2344 0 .0156-.015.0234-.047.0234-.062.125-.101.2031-.117.2344 0 .0156-.008.0391-.023.0703-.141.2188-.25.3906-.328.5156-.063.1094-.133.2032-.211.2813-.016.0625-.039.125-.071.1875-.015.0469-.039.1016-.07.164-.062.1407-.102.2266-.117.2579 0 .0156-.008.0312-.024.0468-.125.1875-.195.3203-.211.3985 0 .0781-.015.1328-.046.164-.188.0625-.282.1016-.282.1172.016.0313.008.0469-.023.0469-.156.0313-.313.0391-.469.0234-.14-.0156-.273-.0234-.398-.0234-.141 0-.282 0-.422 0-.141.0156-.274.0234-.399.0234-.046 0-.101 0-.164 0-.047 0-.086-.0078-.117-.0234-.172-.0313-.258-.0391-.258-.0234 0 .0312-.015.0468-.047.0468-.046.0157-.101.0079-.164-.0234-.046-.0156-.086-.0234-.117-.0234-.078 0-.156.0078-.234.0234-.063.0156-.149.0234-.258.0234h-.492c-.188.0157-.289.0157-.305 0 0 0-.015 0-.047 0-.172.0157-.297.0157-.375 0-.078-.0156-.156-.0156-.234 0zm20.672-6.539c-.156-.0157-.273.0078-.351.0703-.063.0469-.11.0703-.141.0703-.156.0156-.234.0234-.234.0234 0-.0156-.008-.0234-.024-.0234-.078.0156-.156.0312-.234.0469-.063 0-.156 0-.281 0s-.219 0-.282 0c-.047-.0157-.093-.0235-.14-.0235-.157.0156-.282.0078-.375-.0234h-.258c-.172 0-.281-.0078-.328-.0234-.032-.0313-.071-.0547-.117-.0704-.125-.0468-.211-.0703-.258-.0703-.032-.0156-.086-.0312-.164-.0469-.094-.0624-.172-.1015-.235-.1171-.093-.0313-.179-.0391-.258-.0235-.078-.0312-.148-.0625-.21-.0937-.063-.0313-.141-.0547-.235-.0703-.125-.0782-.203-.1172-.234-.1172s-.063-.0156-.094-.0469c-.094-.0625-.148-.1016-.164-.1172s-.039-.0312-.07-.0469c-.157-.0937-.235-.1406-.235-.1406-.031-.0312-.07-.0625-.117-.0937-.047-.0469-.101-.086-.164-.1172-.125-.125-.187-.1953-.187-.211l-.188-.1875c-.125-.0937-.211-.164-.258-.2109-.031-.0469-.062-.1094-.094-.1875-.093-.125-.156-.2188-.187-.2812-.016-.0626-.047-.1094-.094-.1407-.047-.0312-.07-.0859-.07-.164-.094-.1094-.141-.1719-.141-.1875 0-.0313-.015-.0547-.047-.0704-.062-.1718-.109-.2812-.14-.3281-.031-.0625-.055-.1406-.071-.2343-.046-.0469-.078-.1094-.093-.1876-.016-.0781-.039-.1562-.071-.2343-.046-.125-.086-.25-.117-.375-.015-.125-.039-.2266-.07-.3047-.031-.125-.047-.211-.047-.2578 0-.0469-.008-.1094-.023-.1875-.016-.0469-.039-.0938-.071-.1407-.015-.0624-.023-.1328-.023-.2109.031-.1719.039-.2812.023-.3281-.015-.0469-.023-.1016-.023-.1641.047-.1406.062-.2265.047-.2578 0-.0312.008-.0625.023-.0937v-.2813c.047-.2187.078-.3437.094-.375.109-.2344.187-.3906.234-.4687.047-.0938.078-.2032.094-.3282.078-.2031.125-.3125.141-.3281.093-.2187.148-.3437.164-.375.031-.0469.054-.1094.07-.1875.031-.0312.063-.0625.094-.0937.031-.0313.062-.0625.094-.0938.078-.1094.117-.1719.117-.1875.015-.0156.031-.0312.047-.0469.109-.1406.187-.2343.234-.2812.047-.0313.094-.0781.141-.1406.046-.0625.101-.1094.164-.1407.218-.1718.359-.289.422-.3515.062-.0781.132-.1485.21-.211l.305-.2343c.235-.125.391-.211.469-.2578.047-.0313.094-.0626.141-.0938.046-.0312.101-.0625.164-.0938.078-.0312.164-.0624.257-.0937.157-.0781.235-.1172.235-.1172 0-.0156.008-.0234.023-.0234.156-.0625.242-.0938.258-.0938s.039-.0078.07-.0234c.266-.0938.422-.1485.469-.1641.109-.0625.172-.0859.188-.0703.031 0 .062-.0078.093-.0234.047-.0313.086-.0547.118-.0703.046-.0157.109-.0313.187-.0469.063 0 .117.0078.164.0234.047 0 .102-.0078.164-.0234.172-.0313.289-.0469.352-.0469h.164.258c.062 0 .117-.0078.164-.0234.062-.0156.125-.0235.187-.0235.047 0 .102.0079.164.0235h.141.258c.156.0156.257.0312.304.0468.047.0157.078.0235.094.0235.047.0156.094.0234.141.0234s.093.0157.14.0469h.422c.078 0 .156.0156.235.0469.062.0156.125.039.187.0703.078.0156.156.039.234.0703.125.0313.219.0625.282.0937.093.0313.179.0626.258.0938.203.0938.328.1484.375.1641.062 0 .109.0156.14.0468.156.1094.25.1719.281.1875.047 0 .079.0235.094.0704.172.1093.266.1562.281.1406.016-.0313.039-.0469.071-.0469.14.0937.234.1719.281.2344.062.0469.117.0937.164.1406l.281.2813c.188.1718.313.2968.375.375.063.0624.133.1328.211.2109 0 .0781.024.1406.071.1875.062.0312.101.0859.117.164.031.0313.054.0704.07.1172.031.0313.063.0704.094.1172.062.1094.101.1719.117.1875.016 0 .031.0078.047.0235.047.1406.078.2187.094.2343.015.0157.031.0391.046.0703.079.1094.133.1876.165.2344.031.0313.054.0625.07.0938.078.1562.117.2422.117.2578s.008.039.023.0703c.063.1719.094.2578.094.2578.016 0 .024.0156.024.0469.062.2187.101.3594.117.4219.031.0468.055.1093.07.1875l.094.2578c.031.1562.039.2578.023.3047 0 .0312.016.0625.047.0937.031.125.039.2266.024.3047.047.1406.07.2422.07.3047 0 .0469.008.1016.023.164.016.1094.016.1876 0 .2344v.0938c.016.1562.016.2422 0 .2578v.0469c.047.1562.063.2656.047.3281-.015.0625-.031.125-.047.1875 0 .1406-.007.2265-.023.2578v.0703c-.016.1406-.023.25-.023.3281v.211c0 .0781-.016.1484-.047.2109-.016.0469-.016.1016 0 .1641-.047.1562-.078.2343-.094.2343v.0235c-.047.1875-.07.2969-.07.3281.015.0156.023.0391.023.0703 0 .0625-.031.1719-.094.3281-.015.0782-.054.1797-.117.3047-.062.125-.101.2188-.117.2813-.047.1406-.078.2266-.094.2578v.0703c-.062.1563-.094.2656-.094.3281-.078.1719-.125.2735-.14.3047-.094.1563-.141.2344-.141.2344.016 0 .016.0078 0 .0234-.062.0938-.101.1563-.117.1875 0 .0157-.008.0391-.023.0704-.079.1718-.133.2968-.165.375-.015.0624-.046.1328-.093.2109-.11.1562-.164.2422-.164.2578.015 0 .015.0078 0 .0234-.11.1407-.18.2266-.211.2579-.11.1406-.18.2265-.211.2578-.078.1562-.125.2422-.141.2578-.015 0-.031.0078-.047.0234-.078.0781-.125.1328-.14.1641 0 .0312-.016.0469-.047.0469-.063.0937-.102.1562-.117.1874-.016.0313-.047.0626-.094.0938-.078.1406-.141.2266-.188.2578-.031.0313-.062.0625-.093.0938-.11.1718-.172.2656-.188.2812s-.039.0391-.07.0703c-.11.125-.164.1953-.164.211.015 0 .015.0078 0 .0234-.032.0313-.071.0625-.117.0937-.047.0313-.086.0626-.118.0938-.047.0312-.093.0781-.14.1406-.032.0469-.063.086-.094.1172-.094.0781-.188.1406-.281.1875-.094.0469-.172.1172-.235.2109-.125.0782-.195.125-.211.1407 0 .0156-.015.0234-.046.0234-.157.1094-.266.1875-.329.2344-.062.0312-.109.0703-.14.1172-.078.0469-.133.0859-.164.1172-.016.0156-.039.0234-.071.0234-.078.0937-.132.1484-.164.1641-.031 0-.062.0156-.093.0468-.079.0938-.172.1641-.282.211-.109.0468-.203.1172-.281.2109-.141.0781-.234.125-.281.1406-.047.0157-.086.0469-.117.0938-.141.0781-.211.125-.211.1406 0 0-.016.0078-.047.0235-.141.0624-.235.1171-.281.164-.125.0781-.204.125-.235.1406-.219.0782-.351.125-.398.1407-.031.0312-.086.0547-.164.0703-.078.0312-.141.0468-.188.0468-.047.0157-.086.0469-.117.0938-.078-.0312-.156-.0234-.234.0234-.063.0469-.141.086-.235.1172-.172.0782-.265.1094-.281.0938s-.031-.0156-.047 0c-.187-.1406-.305-.2266-.351-.2578-.032-.0313-.063-.0782-.094-.1407-.063-.0781-.117-.1406-.164-.1875-.047-.0468-.078-.1093-.094-.1875-.156-.1562-.242-.25-.258-.2812-.062-.1094-.117-.1797-.164-.2109-.031-.0313-.062-.0626-.094-.0938-.078-.1719-.117-.2734-.117-.3047-.078-.0781-.125-.1328-.14-.1641-.016-.0312-.032-.0624-.047-.0937-.063-.0781-.102-.1406-.117-.1875 0-.0469-.016-.0703-.047-.0703l-.141-.2813c-.062-.0781-.117-.1562-.164-.2343-.031-.0938-.078-.1797-.141-.2579-.093-.1406-.14-.2187-.14-.2343-.063-.1563-.094-.2344-.094-.2344.016 0 .023-.0156.023-.0469 0-.1562 0-.25 0-.2812.11-.0782.196-.1172.258-.1172.063-.0156.133-.0391.211-.0703.156-.0469.274-.0938.352-.1407.187-.0624.281-.1015.281-.1171.016-.0157.031-.0235.047-.0235.172-.0937.265-.1406.281-.1406s.039-.0078.07-.0234c.032-.0313.071-.0547.118-.0704.062-.0312.125-.0546.187-.0703l.211-.1875c.156-.125.258-.1953.305-.2109.047-.0313.093-.0625.14-.0937.172-.125.321-.2344.446-.3282.172-.1094.257-.164.257-.164.141-.125.227-.1954.258-.211.032-.0156.063-.039.094-.0703.156-.125.234-.2187.234-.2812.079-.0469.133-.086.164-.1172.032-.0313.047-.0625.047-.0938.094-.0781.149-.1172.164-.1172.032 0 .055-.0156.071-.0468.078-.1094.14-.1875.187-.2344.063-.0625.11-.125.141-.1875zm.445-6.961c-.14-.0312-.218-.0547-.234-.0703s-.039-.0234-.07-.0234c-.235-.0781-.375-.1172-.422-.1172-.141.0156-.227.0234-.258.0234-.031-.0156-.07-.0156-.117 0-.188.0781-.305.1172-.352.1172-.109.0313-.179.0547-.211.0703-.031 0-.062 0-.093 0-.188.0938-.321.1719-.399.2344l-.211.1641c-.078.1406-.133.2343-.164.2812-.031.0313-.062.0625-.094.0938-.031.1093-.054.1953-.07.2578-.015.0469-.031.0859-.047.1172-.031.0781-.047.1484-.047.2109.016.0469.024.1094.024.1875s-.008.1641-.024.2578c0 .0781.008.1485.024.2109.078.1876.117.2969.117.3282.016.0156.039.039.07.0703.032.1406.055.2187.071.2344.015 0 .031.0156.047.0468.031.0938.07.1797.117.2579.047.0624.086.125.117.1874.187.1407.305.2266.351.2579.125.0781.211.1328.258.164.047.0157.086.0313.117.0469l.258.1172.282.1172c.156.0468.25.0781.281.0937.031.0157.062.0235.094.0235h.257c.063-.0157.118-.0313.164-.0469.063-.0156.11-.0235.141-.0235.125-.0312.203-.0546.234-.0703.047-.0312.086-.0468.118-.0468.125-.0313.203-.0547.234-.0703.031-.0157.055-.0391.07-.0704.078-.0625.117-.1015.117-.1172.016-.0156.04-.039.071-.0703.109-.0937.164-.1484.164-.164 0-.0157.008-.0313.023-.0469.11-.2344.172-.375.188-.4219.047-.1719.07-.2656.07-.2812.016-.1719.031-.2657.047-.2813.016-.0312.023-.0625.023-.0937.032-.0938.039-.1875.024-.2813 0-.0937-.016-.1797-.047-.2578 0-.0937-.016-.1875-.047-.2812-.094-.1719-.164-.2813-.211-.3282-.047-.0625-.086-.125-.117-.1875-.078-.1093-.172-.2109-.281-.3047-.188-.1562-.313-.2578-.375-.3046-.047-.0469-.102-.086-.164-.1172zm16.782 1.2188c.14.0937.211.1484.211.164.109.0625.172.1094.187.1407.031.0156.047.039.047.0703-.016.1406-.016.25 0 .3281.016.0625.008.1094-.023.1406-.047.1407-.071.2344-.071.2813.016.0312.016.0625 0 .0937 0 .0625-.008.1172-.023.1641v.164.2813.1406c.015.0313.023.0781.023.1407.032.1406.039.2343.024.2812 0 .0469.015.0938.047.1406-.032.0782-.047.1641-.047.2578 0 .0782-.024.1485-.071.211-.109.0625-.171.0781-.187.0468 0-.0312-.024-.039-.07-.0234-.11.0313-.219.0391-.329.0234-.093-.0156-.21-.0234-.351-.0234-.156 0-.274 0-.352 0-.062-.0156-.125-.0234-.187-.0234l-.75-.0235c-.172 0-.258 0-.258 0-.109 0-.227.0079-.352.0235-.109 0-.218 0-.328 0-.14-.0156-.234-.0156-.281 0-.031 0-.062 0-.094 0-.078 0-.148.0078-.211.0234-.062 0-.125 0-.187 0-.109-.0156-.211-.0156-.305 0-.078.0156-.148.0156-.211 0l-.398.0234c-.016.0157-.055.0235-.117.0235-.047 0-.102 0-.164 0-.094.0156-.196.0234-.305.0234-.203.0157-.344.0235-.422.0235-.062-.0157-.133-.0235-.211-.0235-.141 0-.226 0-.258 0-.031-.0156-.062-.0234-.093-.0234-.172-.0156-.274-.0235-.305-.0235-.031-.0156-.086-.0156-.164 0-.156-.0156-.281-.0234-.375-.0234s-.18 0-.258 0c-.063 0-.125.0078-.188.0234-.046 0-.109 0-.187 0-.109.0313-.211.0469-.305.0469-.078 0-.156 0-.234 0-.141 0-.227.0078-.258.0235-.016 0-.039-.0078-.07-.0235-.235-.0625-.367-.1015-.399-.1172-.093-.0937-.14-.1484-.14-.164 0-.0313-.008-.0625-.024-.0938-.062-.1719-.109-.2734-.14-.3047-.016-.0312-.024-.0625-.024-.0937-.031-.0781-.039-.1563-.023-.2344.015-.0937.023-.1875.023-.2812 0-.1719-.008-.336-.023-.4922 0-.1563.008-.3125.023-.4688.031-.0937.047-.1797.047-.2578-.016-.1406-.008-.2265.024-.2578.062-.1094.101-.1719.117-.1875.031-.0156.07-.0391.117-.0703.156-.0469.242-.0703.258-.0703.031-.0156.054-.0235.07-.0235.141-.0156.242 0 .305.0469.156 0 .304-.0078.445-.0234.156-.0313.313-.0391.469-.0235.047 0 .094.0079.14.0235h.188c.125.0156.211.0234.258.0234.047-.0156.086-.0234.117-.0234.172-.0156.258-.0156.258 0h.07c.281.0156.484.0156.609 0 .125-.0313.235-.0156.329.0468.187-.0156.296-.0234.328-.0234.031 0 .062.0156.093.0469.157 0 .243.0078.258.0234h.047c.188.0157.297.0235.328.0235.047-.0157.102-.0157.164 0 .078 0 .133.0078.164.0234h.094.258.164c.047-.0156.086-.0234.117-.0234.188.0156.305.0234.352.0234.047-.0156.093-.0234.14-.0234h.469c.094-.0157.195-.0235.305-.0235h.187c.078-.0156.141-.0234.188-.0234.078-.0156.156-.0156.234 0s.156.0156.235 0c.171-.0156.289-.0313.351-.0469.078-.0156.149-.0234.211-.0234.031.0156.07.0234.117.0234.063 0 .11.0078.141.0234.125 0 .195.0079.211.0235h.047zm.492 5.3203-.047.2812v.3282c0 .1093.008.1875.023.2343.032.0313.055.0625.071.0938-.016.0625-.024.1172-.024.164 0 .0313.008.0704.024.1172-.016.2032-.031.336-.047.3985 0 .0469-.016.1093-.047.1875-.078 0-.156.0078-.234.0234s-.157.0234-.235.0234c-.047 0-.093-.0078-.14-.0234s-.094-.0234-.141-.0234-.094 0-.141 0c-.046 0-.109-.0078-.187-.0235-.047 0-.094 0-.141 0-.047-.0156-.093-.0234-.14-.0234-.078 0-.157.0156-.235.0469-.062.0156-.133.0234-.211.0234s-.179-.0156-.304-.0469c-.141-.0156-.282-.0156-.422 0-.125.0157-.25.0313-.375.0469-.156.0313-.336.0469-.539.0469-.203-.0156-.399-.0156-.586 0-.078 0-.149.0078-.211.0234-.063 0-.133.0078-.211.0235-.078 0-.156.0078-.234.0234-.063 0-.133 0-.211 0-.079-.0156-.149-.0312-.211-.0469-.063-.0156-.133-.0234-.211-.0234-.125-.0156-.242-.0156-.352 0-.078 0-.164.0078-.258.0234-.078.0157-.156.0157-.234 0-.156-.0469-.242-.0703-.258-.0703-.187.0625-.305.0938-.351.0938-.047-.0157-.086-.0235-.118-.0235-.078 0-.148.0078-.211.0235-.046.0156-.093.0234-.14.0234-.078.0156-.156.0156-.235 0-.062-.0156-.132-.0234-.21-.0234-.11 0-.204 0-.282 0-.062 0-.125 0-.187 0l-.492-.0469c-.141.0312-.243.0391-.305.0234l-.469-.1875c-.094-.125-.14-.2031-.14-.2344-.047-.0781-.071-.1406-.071-.1874.016-.0469.016-.086 0-.1172l-.023-.4219c-.016-.1094-.031-.2188-.047-.3281 0-.125 0-.2422 0-.3516-.016-.1719-.016-.2969 0-.375-.031-.125-.031-.2344 0-.3281l.07-.2578c.031-.0938.055-.1485.071-.1641.031-.0156.054-.0391.07-.0703.187-.0313.289-.0547.305-.0703.015-.0156.039-.0313.07-.0469.062-.0156.133-.0156.211 0s.133.0234.164.0234c.14-.0312.226-.039.258-.0234h.093c.235.0156.438.0234.61.0234.109.0157.211.0235.304.0235.11-.0156.211-.0156.305 0 .172.0312.266.039.281.0234.016-.0156.039-.0234.071-.0234.047 0 .101.0078.164.0234h.164.117c.047-.0156.094-.0234.141-.0234h.281c.109 0 .187.0078.234.0234h.188c.125-.0156.195-.0156.211 0 .031 0 .054-.0156.07-.0469.063.0313.125.0469.188.0469.062 0 .117.0078.164.0234h.375c.078 0 .156.0079.234.0235.078 0 .156.0078.234.0234h.493.703.562c.172-.0156.297-.0234.375-.0234.078-.0156.141-.0235.188-.0235.078-.0156.156-.0234.234-.0234h.258c.156-.0156.281-.0234.375-.0234h.305c.046 0 .093.0078.14.0234h.117c.172.0625.258.0938.258.0938.016 0 .031.0078.047.0234.078.1406.117.2188.117.2344.016.0156.024.0312.024.0468-.032.0938-.047.1563-.047.1876.015.0312.023.0624.023.0937-.047.1719-.078.2734-.094.3047-.015.0312-.023.0625-.023.0937zm9.961-9.8438c.062.1407.156.2344.281.2813.125.1406.203.2344.234.2812.047.0469.094.0938.141.1407.109.0781.164.125.164.1406.016.0156.024.0312.024.0469.125.125.203.2031.234.2343.078.1407.133.2266.164.2579.047.0312.07.0859.07.164.157.1719.243.2734.258.3047.11.1563.164.25.164.2813.016.0312.031.0624.047.0937.031.0469.047.1016.047.1641 0 .0468.016.1015.047.164.047.125.078.1953.094.211.015 0 .031.0156.046.0468.047.125.071.2032.071.2344.015.0156.039.0391.07.0703 0 .0781.016.1797.047.3047.016.1875.031.3047.047.3516.015.0312.023.0703.023.1172 0 .2187.032.3593.094.4218-.031.0782-.039.1563-.023.2344.015.0625.031.1406.046.2344.016.1406.008.2578-.023.3516-.031.0937-.047.1718-.047.2343s-.008.1172-.023.1641c-.016.0625-.032.1172-.047.164-.016.0469-.031.1016-.047.1641-.031.0625-.047.125-.047.1875 0 .0469-.008.1094-.023.1875l-.188.5156c-.031.0625-.062.125-.094.1875-.015.0625-.039.125-.07.1875-.094.1563-.156.2579-.187.3047-.032.0469-.063.0938-.094.1406-.125.1719-.203.2657-.235.2813-.015 0-.031.0156-.046.0469-.157.2187-.258.3437-.305.375l-.258.164c-.109.1094-.187.1875-.234.2344s-.102.1016-.164.1641c-.172.1093-.289.2343-.352.375-.062.0156-.156.0547-.281.1172-.11.0625-.172.1015-.188.1171-.015.0157-.039.0313-.07.0469-.094.0313-.156.0469-.187.0469-.016 0-.04.0078-.071.0234-.031.0157-.078.0391-.14.0704-.063.0312-.11.0703-.141.1171.016.1407.016.2188 0 .2344v.0703c.016.1563.023.2656.023.3282-.046.125-.07.2343-.07.3281.016.0937.031.1875.047.2812 0 .125-.008.2344-.023.3281 0 .0782.007.1876.023.3282.016.0312.023.0859.023.164v.1875c-.031.0313-.07.0703-.117.1172-.031.0469-.07.086-.117.1172-.156.0313-.25.0547-.281.0703-.016.0156-.039.0235-.071.0235-.187-.0157-.32-.0157-.398 0-.078 0-.156 0-.234 0l-.493-.0235c-.078 0-.14.0078-.187.0235-.047 0-.102-.0157-.164-.0469-.063.0312-.172.0312-.328 0-.031 0-.078.0078-.141.0234-.047 0-.086 0-.117 0-.094.0156-.211.0235-.352.0235-.14 0-.273.0078-.398.0234-.094 0-.195 0-.305 0-.093-.0156-.179-.0156-.258 0-.046 0-.093.0078-.14.0234-.047.0157-.11.0079-.188-.0234-.109-.0313-.195-.0469-.257-.0469-.047 0-.079 0-.094 0-.016-.0625-.031-.1094-.047-.1406s-.039-.0625-.07-.0938c-.047-.1718-.071-.2578-.071-.2578 0-.1718-.008-.2812-.023-.3281 0-.0625 0-.1484 0-.2578.015-.25.008-.4141-.024-.4922v-.5156c-.015-.1406-.023-.2266-.023-.2578.016-.0313.023-.0625.023-.0938.016-.0625.024-.125.024-.1875s0-.125 0-.1875c-.031-.1562-.047-.25-.047-.2812.016-.0313.023-.0703.023-.1172 0-.0313 0-.0781 0-.1406.016-.0782.024-.1329.024-.1641 0-.1094 0-.1953 0-.2578.015-.0625.008-.125-.024-.1875.047-.1875.055-.3203.024-.3985-.016-.0937-.008-.1796.023-.2578.078-.1093.117-.1875.117-.2343.047-.1094.079-.1719.094-.1875.016-.0157.016-.0391 0-.0704.063-.0312.102-.0624.117-.0937.032-.0469.063-.0859.094-.1172.156-.0937.274-.1484.352-.1641.078-.0312.164-.0703.258-.1171.203-.0625.328-.1016.375-.1172.046-.0157.101-.0313.164-.0469.046-.0156.086-.0234.117-.0234.047 0 .094-.0078.14-.0235.157-.0625.235-.1015.235-.1172.078.0157.187 0 .328-.0468.094-.0625.148-.0938.164-.0938.016-.0156.039-.0234.07-.0234.125-.0781.203-.1328.235-.1641.031-.0312.062-.0547.093-.0703.047-.0313.086-.0625.118-.0937.171-.1563.304-.2813.398-.375.063-.1094.094-.1797.094-.211.015-.0312.031-.0625.047-.0937l.047-.2579c.046-.1562.054-.2968.023-.4218-.016-.1406-.039-.25-.07-.3282-.078-.1406-.118-.2109-.118-.2109 0-.0156-.007-.0234-.023-.0234-.078-.0938-.133-.1407-.164-.1407s-.055-.0156-.07-.0468c-.063-.0156-.172-.0547-.328-.1172-.063-.0313-.149-.0469-.258-.0469-.125.0156-.203.0235-.235.0235-.031-.0157-.078-.0235-.14-.0235-.032.0156-.071.0313-.117.0469-.032.0156-.079.0312-.141.0469-.219.0937-.352.164-.399.2109-.046.0312-.101.0625-.164.0938-.078.1093-.132.1796-.164.2109-.031.0156-.054.0391-.07.0703-.047.0469-.086.0938-.117.1406-.031.0313-.063.0625-.094.0938-.016.0781-.047.1406-.094.1875s-.07.1172-.07.2109l-.234.1406c-.11.0938-.203.1407-.282.1407-.078-.0157-.148-.0157-.211 0-.125-.0625-.187-.1016-.187-.1172 0-.0157-.016-.0235-.047-.0235-.109-.0937-.18-.1406-.211-.1406s-.062-.0156-.094-.0469c-.109-.0312-.179-.0547-.211-.0703-.031-.0312-.07-.0625-.117-.0937-.172-.0313-.258-.0547-.258-.0703-.125-.0782-.203-.1328-.234-.1641-.156-.0625-.258-.1016-.305-.1172-.031-.0312-.062-.0547-.093-.0703-.172-.0625-.289-.1094-.352-.1406-.047-.0313-.101-.0625-.164-.0938-.156-.0781-.297-.164-.422-.2578-.031-.0156-.078-.0312-.14-.0469-.047-.0156-.086-.039-.118-.0703-.187-.0468-.343-.1328-.468-.2578.062-.1406.086-.2187.07-.2344-.016-.0156-.024-.039-.024-.0703l.071-.2812c.078-.1719.14-.2813.187-.3281.063-.0469.102-.1094.117-.1876.079-.0937.118-.1562.118-.1874 0-.0313.007-.0626.023-.0938.094-.1094.149-.1797.164-.2109.016-.0469.031-.0938.047-.1407.078-.0937.117-.1562.117-.1875 0-.0312.008-.0547.024-.0703.109-.125.172-.2031.187-.2344.031-.0468.063-.0859.094-.1171.047-.125.086-.2032.117-.2344.031-.0313.063-.0625.094-.0938.047-.0312.07-.0781.07-.1406.047-.0156.078-.0391.094-.0703.031-.0469.062-.0859.094-.1172.14-.1406.226-.2266.257-.2578.032-.0312.063-.0625.094-.0938.172-.1562.297-.25.375-.2812.094-.0938.219-.1719.375-.2344s.242-.1015.258-.1172c.031-.0312.063-.0546.094-.0703.14-.0312.258-.0469.351-.0469.203-.0468.399-.1171.586-.2109.235-.0781.438-.125.61-.1406.14.0156.218.0234.234.0234.031-.0156.063-.0234.094-.0234.172-.0469.289-.0625.351-.0469h.164c.079 0 .157.0078.235.0234h.211c.125 0 .195-.0078.211-.0234.031-.0156.062-.0234.093-.0234.125.0312.196.0468.211.0468.016-.0156.039-.0078.071.0235.078-.0156.172-.0078.281.0234.062.0157.117.0313.164.0469.047 0 .102.0078.164.0234.047.0313.094.0625.141.0938.047.0156.093.0312.14.0469.157.0625.25.0937.282.0937.046 0 .093.0156.14.0469.11.0625.172.0937.188.0937.015 0 .039.0078.07.0235.062.0312.125.0547.187.0703.063 0 .118.0156.165.0469.156.0781.242.125.257.1406.032.0156.063.0312.094.0469.109.0781.18.1328.211.164.125.0938.188.125.188.0938.015-.0469.039-.0547.07-.0235zm-2.203 13.4766c.047.0313.086.0547.117.0703.047.0156.094.0234.141.0234.078.0782.187.1407.328.1876.109.0781.179.1328.211.164.109.1094.179.1953.211.2578.078.125.125.2032.14.2344.031.0312.055.0625.07.0938l.094.3515v.2578c-.015.0625-.023.1485-.023.2578-.031.1719-.055.2735-.071.3047v.0703c-.031.0313-.062.0625-.093.0938-.016.0312-.039.0703-.071.1172-.078.125-.171.25-.281.375-.109.1093-.242.2031-.398.2812-.125.0938-.235.1641-.328.211-.157.0312-.25.0547-.282.0703-.015.0156-.039.0312-.07.0468-.156.0157-.242.0157-.258 0 0 0-.015.0079-.047.0235-.062 0-.117.0078-.164.0234-.047.0157-.086.0235-.117.0235-.156-.0157-.242-.0235-.258-.0235-.078-.0156-.172-.0234-.281-.0234-.109.0156-.203.0078-.281-.0235-.125-.0468-.219-.0703-.281-.0703-.063.0157-.125.0079-.188-.0234-.062-.0156-.141-.0547-.234-.1172-.078-.0312-.149-.0547-.211-.0703-.047-.0312-.11-.0625-.188-.0938-.203-.1406-.336-.2421-.398-.3046-.063-.0782-.11-.1719-.141-.2813-.078-.0312-.117-.0703-.117-.1172 0-.0625-.031-.125-.094-.1875-.047-.1718-.07-.2656-.07-.2812.016-.0156.023-.0391.023-.0703 0-.1719-.007-.2657-.023-.2813 0-.0156.008-.039.023-.0703.063-.125.094-.2344.094-.3281.016-.0938.047-.1797.094-.2578.109-.1094.172-.1797.187-.211.016-.0312.039-.0625.071-.0937.078-.1094.14-.1797.187-.211.141-.125.227-.1953.258-.2109.047-.0156.086-.0391.117-.0703.125-.0313.235-.0703.328-.1172.203-.0937.391-.1563.563-.1875l.539-.0234c.234 0 .445.0234.633.0703.172.0312.257.0547.257.0703s.008.0234.024.0234c.047.0156.094.0235.141.0235.046 0 .085.0078.117.0234z" fill="#693821"/></svg>