<svg fill="none" height="187" viewBox="0 0 229 187" width="229" xmlns="http://www.w3.org/2000/svg"><g fill="#6a290b"><path d="m217.027 50.3131c3.272 5.8824 5.65 12.0017 7.242 18.4368.109.4342.829.2566.72-.1777-1.636-6.4548-4.188-12.5939-7.569-18.4565-.153-.2566-.523-.0395-.393.1974z"/><path d="m218.054 46.4374c7.271 10.1834 10.603 21.141 9.554 33.0713-.046.6551 1.142.6551 1.212 0 1.026-11.9104-2.33-23.4238-10.16-33.369-.257-.3177-.839-.0397-.606.2977z"/><path d="m96.6204 8.4349c-38.0268 13.2622-67.6155 41.3892-81.4192 75.8668-13.18022 32.8953-11.08743 76.6083 30.3457 91.2323 42.7245 15.085 90.7481-3.185 123.2091-28.828 32.438-25.603 58.865-65.1488 43.993-104.9153-7.236-19.3324-23.711-34.03694-45.73-39.42595-25.737-6.31055-52.075.70117-74.2503 12.84145-3.0279 1.6628-.2671 5.95 2.783 4.2872 19.9703-10.8181 43.1033-17.58942 66.4803-13.06185 21.061 4.06685 37.47 17.18875 44.795 35.33905 14.605 36.1405-7.948 72.5614-36.669 97.1624-28.52 24.401-69.508 42.952-109.7387 35.78-22.1304-3.947-39.6966-15.786-45.7524-35.84-4.89809-16.207-2.6049-33.636 2.8943-49.4828 12.3119-35.4793 42.2792-64.4677 79.4377-80.13393.512-.22037.1558-1.0217-.3785-.82137z"/><path d="m197.567 142.445c-4.642 1.9-11.307 6.995-11.56 12.028-.275 5.596 7.125 6.431 11.399 4.761 5.125-2.005 10.779-6.933 11.537-12.174.368-2.443-1.08-4.573-3.562-5.533-3.079-1.212-6.182-.105-9.078 1.023-2.757 1.086-.367 4.823 2.367 3.696 1.264-.627 2.597-.982 4.022-1.086 1.402 1.399 1.632 2.694.644 3.925-.414 1.024-1.448 2.109-2.206 2.903-1.885 1.921-4.528 4.03-7.401 4.427-3.562.501-5.01-1.9-3.424-4.782.506-.919 1.103-1.817 1.77-2.673 1.723-2.213 3.93-3.905 6.251-5.596.62-.438-.161-1.169-.759-.919z"/><path d="m206.709 167.377c-3.307 1.521-7.205 4.522-5.126 8.316 2.173 3.944 8.197 2.122 10.961-.215 2.882-2.421 3.519-6.944.33-9.409-2.74-2.122-7.63-.964-8.315 2.401-.378 1.865 2.575 2.679 3.189.793.567-1.715 2.93-1.243 3.496.193.662 1.693-.59 3.322-2.078 4.244-1.465.9-4.63 1.95-4.843-.536-.165-1.929 1.937-3.494 3.307-4.694.662-.579-.165-1.436-.921-1.093z"/><path d="m49.2578 141.169c-2.2289 9.866-1.3981 19.895 1.7223 29.477.2026.628 1.1954.345.9928-.263-3.2014-9.603-3.708-19.105-2.2491-29.072.0405-.304-.4052-.446-.466-.142z"/><path d="m51.1827 149.172c-1.0863 13.673 2.6851 26.669 10.9246 37.632.3484.473 1.1683 0 .7993-.472-8.3215-10.84-12.2158-23.528-11.3754-37.18 0-.206-.3485-.206-.3485.02z"/></g><path d="m75.3945 77.5234c-.0312.0625-.0468.1172-.0468.1641.0156.0469.0156.1094 0 .1875-.0469.1875-.0782.2891-.0938.3047v.0234c-.0781.1094-.125.1953-.1406.2578-.0781.125-.1406.2032-.1875.2344-.0313.0156-.0547.0469-.0703.0938-.0469.0312-.0938.0625-.1407.0937-.0312.0313-.0703.0625-.1171.0938-.1094.0937-.1954.164-.2579.2109-.0468.0313-.1015.0703-.164.1172-.0938.0781-.1563.1484-.1875.2109-.1563.0782-.2344.1172-.2344.1172-.2187.1406-.3672.2422-.4453.3047s-.1641.125-.2578.1875c-.1094.0938-.1953.1562-.2578.1875-.0938.0781-.1719.1328-.2344.1641-.0938.0937-.1875.1484-.2813.164-.125.0782-.2187.1328-.2812.1641-.0469.0312-.0938.0703-.1406.1172-.1563.0781-.2344.125-.2344.1406.0156 0 .0156 0 0 0 .1719.0313.2656.0547.2812.0703.1563.0156.2579.0313.3047.0469.0469 0 .086.0078.1172.0234.2031.0781.336.1016.3985.0703.0625-.0312.125-.0312.1875 0l.2578.0938c.0312.0156.0625.039.0937.0703.0469.0156.1016.0156.1641 0l.2812.1406.0938.0938c.0469.0312.1015.0469.164.0469.125.1093.2188.1953.2813.2578.0781.0468.1562.0859.2344.1172.125.1406.1953.2109.2109.2109s.0313.0156.0469.0469c.0781.125.1406.1953.1875.2109s.0859.0391.1172.0703c.0781.125.1093.1953.0937.211 0 0 .0078.0078.0235.0234.0937.0781.1484.1406.164.1875.0156.0312.0391.0625.0703.0937.0782.1407.1172.2266.1172.2578 0 .0313.0078.0704.0235.1172.0781.2188.1171.3985.1171.5391.0625.1563.0938.2734.0938.3516 0 .0625.0078.1328.0234.2109.0157.0625.0235.125.0235.1875.0156.0625.0312.1328.0468.2109.0313.1407.0391.25.0235.3282 0 .0625.0156.1328.0469.2109-.0313.0781-.0547.1563-.0704.2344 0 .0625-.0078.1562-.0234.2812-.0156.0625-.0234.125-.0234.1875s-.0078.1328-.0235.211l-.0468.375c-.0313.125-.0547.1953-.0704.2109-.0156 0-.0234.0156-.0234.0469-.0469.1718-.0781.2812-.0937.3281-.0469.1563-.0704.2422-.0704.2578 0 0-.0078.0078-.0234.0235-.0469.0781-.0781.1328-.0937.164 0 .0156-.0079.0391-.0235.0703-.0937.1407-.1562.2422-.1875.3047-.0156.0469-.039.0938-.0703.1406-.0312.1094-.0469.1719-.0469.1875 0 .0157-.0156.0391-.0468.0703-.0938.1094-.1485.1797-.1641.211-.0156.0312-.0313.0703-.0469.1172-.0625.0468-.1172.1015-.164.164-.0469.0469-.0782.1094-.0938.1875-.0781.0469-.1406.1172-.1875.211-.0312.0781-.0937.1328-.1875.164-.0312.0625-.0703.1172-.1172.1641-.0312.0469-.0625.0859-.0937.1172-.1407.1094-.2188.1719-.2344.1875 0 .0156-.0156.0312-.0469.0469-.1719.0937-.2812.1562-.3281.1875-.0469.0312-.1094.0703-.1875.1171-.1406.0938-.2266.1563-.2578.1876-.0156.0156-.0391.0312-.0703.0468-.2344.125-.375.1953-.4219.211-.0781.0312-.1563.0546-.2344.0703-.0781.0156-.1562.0469-.2344.0937-.3125.0469-.5234.086-.6328.1172-.0625.0313-.1172.0547-.164.0703-.0469.0157-.0938.0313-.1407.0469-.25.0625-.5156.0938-.7968.0938-.0469 0-.0938-.0079-.1407-.0235-.0468 0-.0937.0235-.1406.0703-.1719-.0468-.2812-.0703-.3281-.0703-.0469.0156-.1016.0235-.1641.0235-.1718-.0313-.2656-.0391-.2812-.0235 0 .0156-.0078.0156-.0235 0-.1718-.0469-.2656-.0703-.2812-.0703-.0625-.0156-.125-.0234-.1875-.0234-.0469 0-.1016-.0078-.1641-.0235-.125-.0312-.2265-.0547-.3047-.0703-.0781-.0156-.1484-.039-.2109-.0703-.1406.0156-.3047-.0156-.4922-.0937-.1406-.0313-.2344-.0547-.2812-.0704-.0313-.0156-.0625-.0312-.0938-.0468-.1719-.0782-.289-.1172-.3515-.1172-.0625-.0156-.1094-.0391-.1407-.0703-.1875-.0469-.3125-.0782-.375-.0938-.0468-.0156-.0937-.0391-.1406-.0703-.125-.0625-.2266-.1094-.3047-.1406-.0469-.0313-.0937-.0547-.1406-.0703-.0469-.0157-.0938-.0391-.1406-.0703-.1563-.0782-.25-.1172-.2813-.1172-.0312-.0157-.0625-.0391-.0937-.0704-.2032-.1406-.3438-.2343-.4219-.2812-.0625-.0625-.1328-.125-.2109-.1875-.0938-.0781-.1563-.125-.1875-.1406-.0313-.0157-.0547-.0547-.0704-.1172-.1562-.0938-.2421-.1485-.2578-.1641-.0937-.1094-.1484-.164-.164-.164-.0157-.0157-.0391-.0391-.0703-.0704-.0782-.125-.125-.1874-.1407-.1874-.0156-.0157-.0312-.0391-.0468-.0704-.125-.125-.25-.289-.375-.4922-.0938-.1874-.1329-.3203-.1172-.3984.0156-.0781.0156-.1562 0-.2344.0937-.0625.1562-.0859.1875-.0703.0468 0 .0937-.0156.1406-.0469.1094-.0781.1797-.1328.2109-.164.0313-.0469.0782-.0703.1407-.0703.0625-.0625.1406-.1172.2343-.1641l.211-.164c.0781-.0469.1484-.086.2109-.1172.0625-.0469.1328-.086.2109-.1172.1094-.0625.1719-.0938.1875-.0938.0157-.0156.0313-.0312.0469-.0468l.3985-.211c.0312-.0156.0703-.0312.1171-.0469.0469-.0312.086-.0625.1172-.0937.1094-.0313.1875-.0547.2344-.0703.0469-.0157.0938-.0391.1406-.0703.1719-.0782.3282-.1328.4688-.1641.1875-.0469.2969-.0781.3281-.0937.0313-.0313.0859-.0391.1641-.0235.2031.0156.3281.0391.375.0703.0937.125.1562.1953.1875.211.0312 0 .0547.0156.0703.0468.0312.1094.0547.1875.0703.2344s.0469.0938.0937.1406c.1407.0938.2188.1563.2344.1875.0938.0782.1485.1329.1641.1641.0312.0312.0625.0547.0937.0703.1719.0625.2657.0938.2813.0938.0312 0 .0625.0078.0937.0234.2344.1094.4063.1563.5157.1406.125-.0312.2578-.0312.3984 0 .1094.0313.1953.0313.2578 0 .125-.0156.1953-.0312.2109-.0469.0313-.0156.0625-.0312.0938-.0468.1562-.0469.2656-.086.3281-.1172.0938-.0625.1563-.0938.1875-.0938.0313-.0156.0625-.039.0938-.0703.0625-.0625.1172-.125.164-.1875.0469-.0781.1094-.1406.1875-.1875 0-.0781.0157-.1406.0469-.1875.0469-.0625.0859-.1328.1172-.2109.0625-.25.0937-.4063.0937-.4688.0469-.2343.0704-.375.0704-.4218.0156-.0469.0156-.1016 0-.1641-.0313-.1406-.0547-.2188-.0704-.2344-.0156-.0156-.0234-.039-.0234-.0703-.0312-.0469-.0547-.0859-.0703-.1172 0-.0469-.0156-.1015-.0469-.164-.0937-.1094-.1406-.1719-.1406-.1875 0-.0157-.0078-.0313-.0234-.0469-.1407-.0938-.211-.1406-.211-.1406 0-.0157-.0078-.0313-.0234-.0469-.0781-.0313-.1406-.0625-.1875-.0938-.0469-.0312-.0938-.0625-.1406-.0937-.0782-.0156-.1485-.0313-.211-.0469-.0469-.0312-.1015-.0625-.164-.0937-.2032-.0625-.336-.1016-.3985-.1172-.0469-.0157-.1328-.0391-.2578-.0703-.2187-.0313-.3594-.0469-.4219-.0469-.0468-.0156-.1093-.0235-.1875-.0235-.125.0157-.2265.0235-.3047.0235-.0625 0-.1406.0078-.2343.0234-.125.0469-.211.0625-.2578.0469-.0313-.0156-.0625-.0078-.0938.0234-.125.0469-.2109.0704-.2578.0704-.0313 0-.0625.0078-.0938.0234-.125.0781-.1953.1172-.2109.1172s-.0391.0078-.0703.0234c-.0781.0313-.1719.0625-.2813.0938-.0937.0312-.2031.0546-.3281.0703h-.4453c-.1562-.0469-.25-.0703-.2812-.0703-.0313-.0157-.0625-.0313-.0938-.0469-.0781-.0313-.1484-.1094-.2109-.2344-.0782-.1719-.1172-.3203-.1172-.4453-.0156-.1875-.0313-.3125-.0469-.375s-.0312-.1172-.0469-.1641c.0157-.1406.0235-.2343.0235-.2812-.0157-.125-.0235-.2031-.0235-.2344.0157-.0469.0157-.0937 0-.1406-.1093-.2969-.1484-.5859-.1172-.8672 0-.1719.0547-.2969.1641-.375.0469-.1406.0703-.2187.0703-.2344 0-.0156.0156-.0234.0469-.0234.0312-.0313.0703-.0547.1172-.0703s.0859-.0469.1172-.0938c.0468.0313.0859.0313.1172 0 .0468-.0312.0937-.0547.1406-.0703.1719-.0312.2812-.0469.3281-.0469.0469-.0156.0938-.0234.1406-.0234.0469 0 .0938-.0078.1407-.0234.0625 0 .1171-.0078.164-.0235.0625-.0156.125-.0312.1875-.0469.1094-.0624.1875-.1015.2344-.1171.0469-.0157.1094-.0391.1875-.0703.1875-.0626.3047-.1016.3516-.1172.0468-.0313.1015-.0625.164-.0938.1719-.0781.2813-.125.3281-.1406.0625-.0156.1094-.0313.1407-.0469.1406-.0937.2187-.1406.2343-.1406.0157 0 .0313-.0078.0469-.0235.1719-.1093.2891-.1796.3516-.2109.0625-.0469.1328-.0937.2109-.1406l.2578-.1406c.1094-.0782.1719-.1172.1875-.1172.0157 0 .0391-.0078.0703-.0235.0469-.0625.1016-.1172.1641-.164.0625-.0625.125-.125.1875-.1875.0625-.0781.1094-.1172.1406-.1172.0469-.0156.0703-.0391.0703-.0703-.2031-.0156-.3281-.0313-.375-.0469-.0312-.0156-.0703-.0234-.1171-.0234-.125 0-.25.0156-.375.0468-.125.0157-.25.0235-.375.0235-.0625.0156-.125.0234-.1875.0234-.0625-.0156-.125-.0234-.1875-.0234-.1563.0312-.2813.0468-.375.0468-.2032-.0312-.3282-.039-.375-.0234-.0469 0-.1016.0078-.1641.0234-.0938.0313-.1797.0469-.2578.0469-.0469.0157-.1094.0235-.1875.0235-.0625 0-.1172 0-.1641 0-.125.0156-.1953.0234-.2109.0234-.0156-.0156-.0391-.0234-.0703-.0234-.0469 0-.0938.0078-.1407.0234-.0468.0156-.1015.0312-.164.0469-.0781 0-.1641 0-.2578 0-.0938-.0157-.1875-.0157-.2813 0-.1562.0156-.2734.0312-.3515.0469-.0782 0-.1485.0078-.211.0234-.0781 0-.1797.0156-.3047.0469-.0468.0156-.0937.0234-.1406.0234s-.0859.0078-.1172.0234c-.0469 0-.0937.0157-.1406.0469-.0313.0156-.0703.0313-.1172.0469-.0781.0156-.1641.0312-.2578.0469-.0938 0-.2031.0156-.3281.0468-.1407.0157-.2578.0157-.3516 0-.1562-.0625-.2422-.0937-.2578-.0937-.0313-.0469-.0625-.0859-.0938-.1172-.0156-.0313-.0312-.0781-.0468-.1406l-.0235-.3516c0-.1719-.0156-.3047-.0468-.3984-.0157-.0938-.0157-.1953 0-.3047v-.3281c.0468-.1563.0625-.2422.0468-.2579v-.2578c.0469-.2656.0703-.4453.0703-.539 0-.1094 0-.2344 0-.375 0-.1875 0-.3047 0-.3516.0157-.0625.0235-.1016.0235-.1172-.0625-.1875-.1016-.2968-.1172-.3281-.0156-.0469-.0078-.0937.0234-.1406.0469-.1875.0625-.2969.0469-.3281 0-.0313 0-.0626 0-.0938 0-.1719.0391-.3125.1172-.4219.1094-.0937.1953-.1562.2578-.1875.0625-.0468.1484-.0703.2578-.0703.0938-.0156.1797-.0234.2578-.0234.0938 0 .1719.0156.2344.0469.0781-.0313.1797-.0469.3047-.0469.125-.0157.2344 0 .3281.0469.125-.0313.2735-.0313.4453 0 .1719.0312.336.0546.4922.0703.0625.0312.125.0468.1875.0468h.211c.1406 0 .2343.0079.2812.0235.0625.0156.125.0234.1875.0234.0469.0156.1328.0234.2578.0234.25.0157.3828.0235.3985.0235.0781.0156.1562.0234.2343.0234.0938-.0156.1797-.0156.2578 0 .0782 0 .1641.0078.2579.0235.1093.0156.2031.0234.2812.0234.0625 0 .125.0078.1875.0234h.1875c.1875.0157.2813.0235.2813.0235.1406 0 .2109.0078.2109.0234h.0469c.125-.0156.2109-.0312.2578-.0469.0469-.0156.0859-.0078.1172.0235.0937-.0157.1953-.0157.3047 0 .1093 0 .2109.0078.3046.0234.1094-.0312.2188-.0391.3282-.0234h.3515c.1563.0156.2578.0156.3047 0 .0625-.0157.125-.0235.1875-.0235.1406.0157.2422.0157.3047 0 .0625-.0156.1328-.0234.2109-.0234h.375c.0938-.0156.1563-.0234.1875-.0234.1563 0 .2344-.0078.2344-.0235.0156-.0156.0313-.0078.0469.0235.0781.0312.1641.0312.2578 0 .1094-.0313.2188-.0547.3281-.0704.0625 0 .125.0079.1875.0235h.1875c.0782 0 .1953-.0156.3516-.0469.0469 0 .0937.0078.1406.0234.0625 0 .1094-.0156.1406-.0468.125.0312.2422.039.3516.0234.125-.0156.2031.0391.2344.1641.0625.1406.0859.2265.0703.2578-.0156.0312-.0078.0625.0234.0937.0157.0625.0235.1328.0235.211.0156.0781.0156.1797 0 .3047 0 .1406-.0078.25-.0235.3281v.2109c.0157.2031.0157.3203 0 .3516 0 .0156.0078.0391.0235.0703v.2812c.0156.0782.0312.1641.0468.2579.0157.0781.0235.164.0235.2578v.2578c.0469.1875.0625.3203.0469.3984 0 .0625.0078.125.0234.1875 0 .0313-.0078.0703-.0234.1172 0 .0313.0156.0781.0468.1406zm9.1172 9.0938c.125.0312.2578.039.3985.0234.1562-.0156.3125-.0312.4687-.0468.0781 0 .1563.0078.2344.0234.0781 0 .1562-.0078.2344-.0234.1718-.0313.2578-.0391.2578-.0235h.0703c.125-.0312.1953-.0547.2109-.0703s.0391-.0234.0703-.0234c.1875-.0157.2735-.0157.2578 0h.0469c.125-.0157.1953-.0157.211 0h.0703c.0625-.0157.1093-.0313.1406-.0469.0469-.0156.1016-.0235.1641-.0235.1875.0313.3046.0391.3515.0235s.0938-.0235.1406-.0235l.2579-.0468c.2187-.0156.3593-.0313.4218-.0469l.3282.0234c.2812.0313.4375.0547.4687.0703.0469.0313.0781.0782.0938.1407.0312.0469.0703.0859.1171.1172.0625.2187.1094.4062.1407.5625.0312.125.0468.2578.0468.3984-.0312.25-.0468.4141-.0468.4922v.1172c.0156.0468.0234.1015.0234.164-.0312.2032-.0469.3282-.0469.375.0157.0313.0235.0625.0235.0938-.0469.1562-.0625.2734-.0469.3516.0156.0624.0234.1171.0234.164.0157.125.0157.2422 0 .3516-.0156.0937-.0234.1875-.0234.2812.0156.1875.0156.3047 0 .3516v.1172.164c.0156.0469.0078.0938-.0234.1407-.1094.1562-.1797.2421-.211.2578-.1094.0469-.1797.0781-.2109.0937-.0156.0156-.0391.0235-.0703.0235h-.3282c-.1875 0-.3046-.0079-.3515-.0235-.0313 0-.0625 0-.0938 0-.125-.0156-.25-.0234-.375-.0234s-.2578 0-.3984 0c-.125-.0156-.2109-.0234-.2578-.0234-.0469.0156-.1094.0156-.1875 0-.1406-.0157-.2266-.0235-.2578-.0235-.0157.0156-.0391.0235-.0703.0235-.1563 0-.2969-.0079-.4219-.0235-.125 0-.2735-.0078-.4453-.0234-.0782-.0157-.1563-.0235-.2344-.0235s-.1563-.0078-.2344-.0234c-.125 0-.2109 0-.2578 0-.0469-.0156-.0859-.0234-.1172-.0234-.0781-.0313-.1875-.0391-.3281-.0235-.125.0157-.2422.0157-.3516 0-.25-.0156-.4922-.0156-.7265 0-.2344 0-.4844-.0078-.75-.0234-.0782.0156-.1328.0234-.1641.0234-.0312-.0156-.0703-.0156-.1172 0-.0312-.0156-.0937-.0156-.1875 0-.0937.0157-.1562.0313-.1875.0469-.0469 0-.1094 0-.1875 0-.0625.0156-.1328.0156-.2109 0-.0313 0-.0703 0-.1172 0-.0313-.0156-.0781-.0156-.1406 0-.1875.0156-.3203.0312-.3985.0469-.0625.0156-.1328.0156-.2109 0-.1875-.0157-.3125-.0157-.375 0-.0469.0156-.0938.0312-.1406.0469h-.4219l-.3516.0234c-.0468 0-.0937 0-.1406 0-.0312.0156-.0703.0234-.1172.0234-.0312 0-.0703-.0078-.1172-.0234-.0468 0-.0937 0-.1406 0-.0625 0-.1094 0-.1406 0-.0313.0156-.0781.0156-.1406 0s-.1172-.0313-.1641-.0469-.1016-.0312-.1641-.0469c-.0937-.1562-.1484-.2656-.164-.3281-.0157-.0625-.0469-.1172-.0938-.1641l-.1172-.2812c-.125-.1406-.2031-.2578-.2343-.3516-.0782-.1406-.125-.2343-.1407-.2812-.0156-.0625-.039-.1172-.0703-.1641 0-.0781-.0156-.1328-.0469-.164-.0312-.0469-.0625-.0938-.0937-.1407-.0156-.1406-.0234-.2109-.0234-.2109 0-.0156-.0079-.0313-.0235-.0469l-.1406-.375c-.0313-.0781-.0547-.1406-.0703-.1875-.0156-.0625-.0547-.1093-.1172-.1406.0156-.1094.0234-.1797.0234-.2109.0157-.0313.0235-.0704.0235-.1172.0312-.1563.0703-.2735.1172-.3516.0625-.0781.1171-.1484.164-.2109.1406-.1094.2266-.1641.2578-.1641.0313-.0156.0625-.0312.0938-.0469.0781-.0625.125-.0937.1406-.0937.0313-.0156.0625-.0391.0938-.0703.1093-.0938.1718-.1407.1875-.1407.0156-.0156.039-.039.0703-.0703l.3047-.2812c.1093-.0781.1718-.125.1875-.1406.0312-.0313.0625-.0625.0937-.0938l.2813-.2344.2109-.164c.1094-.125.1719-.1875.1875-.1875.1406-.1406.2266-.2188.2578-.2344.125-.1094.1953-.1719.2109-.1875.0157-.0313.0391-.0547.0704-.0703.125-.0938.1875-.1406.1875-.1406 0-.0157.0078-.0313.0234-.0469.2187-.2031.3672-.3438.4453-.4219.0781-.0937.1563-.1797.2344-.2578.0937-.0938.164-.1641.2109-.2109.1406-.125.2188-.1875.2344-.1875s.0312-.0157.0469-.0469c.1562-.125.2812-.2344.375-.3281.0625-.0625.1093-.0938.1406-.0938.0312-.0156.0625-.0312.0937-.0469l.211-.2109c.0312-.0312.0625-.0625.0937-.0938.0313-.0312.0625-.0624.0938-.0937.0781-.0937.1406-.1563.1875-.1875.0469-.0469.0937-.0938.1406-.1406.1094-.125.1797-.1953.2109-.211.1563-.1875.2657-.3046.3282-.3515.0625-.0625.125-.1328.1875-.211.0781-.0781.1484-.164.2109-.2578.0781-.0937.1563-.1875.2344-.2812.0937-.0781.1797-.1641.2578-.2578.0781-.125.1328-.1953.1641-.211.0312-.0156.0312-.039 0-.0703.0781-.0312.1328-.0781.164-.1406.0469-.0625.0938-.125.1406-.1875.0157-.0469.0391-.0938.0704-.1406.0312-.0469.0625-.0938.0937-.1407.0313-.0468.0547-.1015.0703-.164s.0547-.1094.1172-.1406c0-.0782.0078-.1485.0234-.211.0313-.0625.0625-.1328.0938-.2109.0312-.0938.0469-.1641.0469-.211 0-.0625 0-.1093 0-.1406 0-.2031-.0078-.3203-.0235-.3515 0-.0469 0-.0938 0-.1407 0-.1406-.0078-.2109-.0234-.2109 0-.0156 0-.0313 0-.0469-.0313-.0625-.0469-.1172-.0469-.1641 0-.0468-.0156-.0937-.0469-.1406-.0312-.0312-.0859-.0781-.164-.1406-.0625-.0781-.1172-.1328-.1641-.1641-.1094-.0468-.1953-.0703-.2578-.0703-.0937-.0312-.1562-.039-.1875-.0234-.0312 0-.0625 0-.0937 0-.0469 0-.0938 0-.1407 0-.0468-.0156-.1015-.0156-.164 0-.1094.0312-.1875.0547-.2344.0703s-.0859.0234-.1172.0234c-.0781 0-.1719.0391-.2812.1172-.1875.125-.2969.211-.3282.2578-.0312.0469-.0703.0782-.1172.0938-.0625.0937-.1171.1641-.164.2109-.0469.0625-.086.1172-.1172.1641-.0156.0312-.0313.0625-.0469.0937-.0781.1563-.125.25-.1406.2813-.0156.0156-.0313.0391-.0469.0703-.0469.1719-.0937.2812-.1406.3281-.0313.0469-.0547.1094-.0703.1875-.0156.0625-.0391.1172-.0703.1641-.0469.0469-.0938.1094-.1407.1875-.0312.0781-.0625.1562-.0937.2344-.0781.1406-.1172.2265-.1172.2578-.1406.125-.2422.2109-.3047.2578-.25 0-.4297-.0156-.539-.0469-.0938-.0312-.1563-.1015-.1875-.2109-.1407-.0782-.25-.1328-.3282-.1641-.1562-.0625-.25-.1015-.2812-.1172-.0313-.0156-.0625-.0312-.0938-.0469-.0625-.0312-.125-.0546-.1875-.0703-.0468-.0312-.0859-.0781-.1172-.1406-.0781.0156-.125.0078-.1406-.0234-.0156-.0469-.0547-.0781-.1172-.0938-.0781-.0625-.1562-.1406-.2343-.2343-.0625-.0938-.1563-.1719-.2813-.2344-.0781-.0625-.125-.0938-.1406-.0938-.0156-.0156-.0391-.039-.0703-.0703-.0625-.0469-.1094-.0781-.1407-.0937-.0312-.0313-.0625-.0625-.0937-.0938-.1406-.0781-.2344-.1406-.2813-.1875-.0781-.0781-.1484-.1328-.2109-.1641-.1719-.1562-.2656-.2421-.2812-.2578-.0782-.125-.125-.1875-.1407-.1875-.0156-.0156-.0234-.0312-.0234-.0468-.0313-.0782-.0547-.1407-.0703-.1875 0-.0625.0078-.1094.0234-.1407.0781-.1875.125-.3203.1406-.3984.0625-.1563.0938-.2422.0938-.2578 0-.0313.0078-.0547.0234-.0703.0782-.1094.1172-.1719.1172-.1875 0-.0313.0078-.0625.0235-.0938.0781-.0937.125-.1562.1406-.1875.0312-.0468.0547-.0859.0703-.1172.0937-.1406.1406-.2187.1406-.2343.0156-.0313.0391-.0625.0703-.0938.0938-.1562.1563-.2422.1875-.2578.0469-.1094.0782-.1641.0938-.1641.0312-.0156.039-.039.0234-.0703.0938-.1093.1485-.164.1641-.164.0312-.0157.0547-.0391.0703-.0703.0312-.0313.0625-.0626.0937-.0938.0469-.0469.1016-.0781.1641-.0938.0313-.0624.0703-.1015.1172-.1171.0469-.0157.0859-.0469.1172-.0938l.0937-.0937c.0469-.0313.086-.0704.1172-.1172.0469-.0156.086-.0313.1172-.0469.0313-.0156.0703-.0391.1172-.0703.1094-.125.2109-.2031.3047-.2344.1406-.1094.2265-.1719.2578-.1875.0312-.0156.0781-.0312.1406-.0469.1563-.1093.25-.164.2813-.164.0468 0 .0859-.0156.1172-.0469.1093-.0625.1796-.0937.2109-.0937.0469 0 .0937-.0157.1406-.0469.1406-.0625.2266-.1016.2578-.1172.0313-.0156.0625-.0313.0938-.0469.0469-.0156.0859-.0156.1172 0 .0468 0 .0937-.0078.1406-.0234.0312-.0156.0625-.0313.0937-.0469.0469-.0156.1016-.0234.1641-.0234.1563 0 .2891-.0235.3984-.0703.1094-.0469.2266-.0782.3516-.0938.0938.0156.1563.0156.1875 0 .0469-.0156.0859-.0234.1172-.0234h.3281c.0313-.0157.0625-.0391.0938-.0704.1093.0469.2265.0547.3515.0235l.2813-.0235.2578.0469h.3281c.0625-.0156.1172-.0156.1641 0 .0312 0 .0703.0157.1172.0469.0468.0156.0937.0312.1406.0469.1562.0156.25.0469.2812.0937.1875.0469.3047.086.3516.1172.0469.0313.1016.0313.1641 0 .0468.0625.1015.1016.164.1172.0625 0 .1172.0156.1641.0469l.2578.1875c.1563.0468.2344.0781.2344.0937h.0234c.1563.0938.25.1407.2813.1407.1406.1093.2265.1796.2578.2109.0937.0781.164.1328.2109.1641.1094.0624.1797.1171.211.164.0468.0469.0937.0938.1406.1406.0312.0313.0703.0625.1172.0938.0468.0156.0859.039.1172.0703.0625.0469.1093.0937.1406.1406.0312.0313.0625.0547.0937.0703.0625.1407.1407.25.2344.3282.0469.0937.0781.1484.0938.164.0312 0 .0625.0156.0937.0469.0156.0625.0703.1563.1641.2813.0625.0781.1172.1718.164.2812.0469.0938.0938.1953.1407.3047.0625.125.1171.2109.164.2578.0313.1563.0625.2734.0938.3516.0625.2031.0937.3359.0937.3984s.0078.1328.0235.2109c.0468.2032.0781.3282.0937.375.0156.0313.0156.0704 0 .1172.0781.125.1016.2813.0703.4688-.0312.1875-.0234.3437.0235.4687-.0313.125-.0547.25-.0704.375 0 .1094-.0234.2031-.0703.2813 0 .1406-.0078.2344-.0234.2812-.0156.0469-.0313.0938-.0469.1406-.0312.1563-.0469.25-.0469.2813-.0781.125-.125.2031-.1406.2344 0 .0156-.0078.0312-.0234.0469l-.1641.2343c0 .0938-.0156.1641-.0469.211-.0312.0468-.0625.1093-.0937.1875-.1406.0781-.2109.125-.2109.1406 0 0-.0079.0078-.0235.0234-.0625.0625-.1015.1094-.1172.1406 0 .0157-.0156.0391-.0468.0704-.0938.125-.1563.1953-.1875.2109-.0157 0-.0313.0156-.0469.0469-.1094.1562-.1797.2656-.211.3281-.125.125-.1953.1953-.2109.2109 0 0-.0078 0-.0234 0-.1094.125-.2032.2266-.2813.3047-.125.1407-.1875.211-.1875.211.0156 0 .0156.0078 0 .0234-.125.1094-.2109.1875-.2578.2344-.0937.0937-.1562.164-.1875.2109-.0312.0469-.0781.086-.1406.1172-.1406.125-.2266.2031-.2578.2344-.0157.0156-.0391.039-.0703.0703-.1407.125-.2188.2031-.2344.2344-.0156.0312-.0391.0547-.0703.0703-.0938.1562-.1485.2344-.1641.2344s-.0312.0078-.0469.0234c-.0625.0937-.1406.1719-.2343.2344-.0469.0468-.086.0859-.1172.1172-.0313.0312-.0625.0624-.0938.0937-.0781.0781-.1406.1406-.1875.1875s-.0859.1016-.1172.1641c-.0312.0312-.0625.0703-.0937.1171-.0156.0313-.0469.0547-.0938.0704l-.164.2109c-.0782.0469-.1328.0937-.1641.1406-.0312.0313-.0625.0625-.0937.0938-.125.125-.1954.1875-.211.1875-.0156.0468-.0469.0937-.0937.1406-.0313.0312-.0625.0703-.0938.1172zm6.0703 4.5234c.0625-.2031.0938-.3203.0938-.3515.0937-.1563.1328-.2344.1172-.2344 0-.0156.0078-.0391.0234-.0703.1875-.3282.375-.586.5625-.7735 0-.0781.0156-.1406.0469-.1875.0469-.0468.0859-.0859.1172-.1172.0781-.125.1093-.1953.0937-.2109 0-.0156.0078-.0312.0235-.0469l.164-.2109c.0625-.1406.1328-.2344.211-.2813.0625-.1718.1015-.2578.1171-.2578.0157-.0156.0235-.0312.0235-.0468.0937-.125.1484-.2032.164-.2344l.0938-.0938c.0625-.1406.125-.2578.1875-.3515.0937-.1719.1719-.2891.2344-.3516.1093-.1562.164-.25.164-.2812 0-.0469.0157-.086.0469-.1172.1406-.1719.2422-.3203.3047-.4453.0781-.1563.1172-.2344.1172-.2344.0156 0 .0312-.0078.0469-.0234.0468-.1719.0859-.2735.1171-.3047.0469-.125.086-.2032.1172-.2344.0469-.0469.086-.0859.1172-.1172.0625-.1406.1016-.2187.1172-.2344.0156-.0156.0313-.039.0469-.0703.0625-.0937.1015-.164.1172-.2109.0156-.0469.039-.0938.0703-.1407.1094-.1406.164-.2187.164-.2343 0-.0313.0079-.0547.0235-.0703.1094-.1719.164-.2657.164-.2813s.0079-.0312.0235-.0469c-.0156-.1875-.0625-.3125-.1406-.375-.0625-.1406-.1094-.2109-.1407-.2109-.0156-.0156-.0312-.0391-.0468-.0703-.0313-.1094-.0625-.1875-.0938-.2344-.0312-.0469-.0625-.0859-.0937-.1172-.0625-.1094-.1172-.1797-.1641-.2109-.0313-.0469-.0625-.0938-.0938-.1406-.0781-.1094-.1171-.1719-.1171-.1875 0-.0157-.0079-.0313-.0235-.0469-.0781-.0938-.125-.1485-.1406-.1641 0-.0312-.0078-.0547-.0234-.0703l-.211-.3515c-.0625-.0938-.1094-.1407-.1406-.1407-.0156-.0156-.0313-.039-.0469-.0703-.1094-.1719-.1719-.2578-.1875-.2578-.0156-.0156-.0312-.0312-.0469-.0469-.0625-.0781-.1171-.1562-.164-.2343-.0469-.0782-.1016-.1485-.1641-.211-.0312-.1094-.0781-.1953-.1406-.2578-.0938-.0938-.1406-.1484-.1406-.1641 0-.0156-.0078-.039-.0235-.0703-.1093-.1562-.164-.2422-.164-.2578s-.0157-.0312-.0469-.0469c-.0313-.0625-.0703-.1171-.1172-.164-.0312-.0469-.0625-.0938-.0937-.1407-.1094-.125-.1719-.1874-.1875-.1874-.0157 0-.0235-.0079-.0235-.0235-.0625-.125-.1015-.1875-.1172-.1875-.0156-.0156-.039-.039-.0703-.0703l-.1172-.2578c-.0781-.1563-.1172-.2422-.1172-.2578-.0625-.0313-.1093-.0703-.1406-.1172-.0156-.0625-.0547-.1016-.1172-.1172-.0156-.0469-.0312-.0859-.0468-.1172-.0157-.0469-.0391-.0937-.0704-.1406-.0781-.1094-.125-.1875-.1406-.2344-.0156-.0625-.0469-.1094-.0937-.1406-.0313-.1563-.0625-.2969-.0938-.4219-.0312-.1562-.039-.2344-.0234-.2344 0-.0156.0078-.039.0234-.0703.0938-.0937.1485-.1484.1641-.164 0-.0157.0078-.0235.0234-.0235.0625-.0156.125-.0156.1875 0 .0625 0 .125-.0078.1875-.0234.1719-.0156.2656-.0156.2813 0h.0937c.1875-.0156.2969-.0234.3281-.0234.0469-.0157.1094-.0157.1875 0 .1094 0 .1719.0078.1875.0234h.0938c.125 0 .1953.0078.2109.0234h.0703c.125-.0156.2032-.0156.2344 0h.1406.3282c.0468-.0156.0859-.0234.1172-.0234.1718.0156.2734.0234.3046.0234.0313-.0156.0704-.0234.1172-.0234.1407.0156.2266.0234.2578.0234.0469-.0156.0938-.0234.1407-.0234h.2578c.1875-.0469.3437-.0625.4687-.0469.1407 0 .25.0391.3282.1172.0781-.0156.125-.0078.1406.0234.0312.0313.0781.0547.1406.0703.0313.0782.0625.1485.0938.211.0468.0625.0781.1328.0937.2109.1406.1563.2188.25.2344.2813l.0937.0937c.0625.1563.1094.2657.1407.3281.0781.1407.125.2344.1406.2813.0312.0469.0547.0937.0703.1406.0469.0781.0781.1563.0937.2344.0157.0781.0391.1641.0704.2578.0625.1406.1015.2344.1171.2813.0313.0312.0625.0625.0938.0937.125.1875.2109.3281.2578.4219.1875.1094.2969.125.3281.0469.0469-.0782.0938-.125.1407-.1407.0781-.1875.1406-.2968.1875-.3281.0781-.1562.1171-.2422.1171-.2578s.0157-.0156.0469 0c-.0312-.0781-.0234-.1328.0235-.1641.0625-.0312.0859-.0859.0703-.164l.1406-.2344c.0469-.0781.0937-.1562.1406-.2344.0469-.0781.0938-.1562.1406-.2344.0313-.0468.0547-.0859.0704-.1171.0312-.0469.0468-.0938.0468-.1407.1094-.125.1641-.2109.1641-.2578.0156-.0468.0469-.0781.0937-.0937.0313-.0938.0469-.1563.0469-.1875.0156-.0469.0391-.086.0703-.1172.0938-.1563.1485-.2266.1641-.211.0312 0 .0391-.0156.0234-.0468.125-.0469.1953-.0782.211-.0938.0156-.0156.039-.0312.0703-.0468.1875-.0157.2969-.0313.3281-.0469.0469-.0313.0859-.0469.1172-.0469.1094 0 .2109-.0078.3049-.0234.094-.0157.179-.0235.258-.0235.14.0313.211.0469.211.0469.015-.0156.031-.0234.046-.0234.157.0312.25.0468.282.0468.047-.0156.086-.0234.117-.0234.187.0156.297.0312.328.0469h.094c.14-.0157.234-.0157.281 0 .062 0 .133-.0078.211-.0235h.609c.094.0157.196.0157.305 0 .078 0 .156.0078.234.0235.078.0156.157.0234.235.0234s.14.0078.187.0235c.063 0 .133-.0079.211-.0235.125.1094.195.1719.211.1875.016 0 .031.0156.047.0469.016.1875.016.3047 0 .3515-.016.0313-.031.0626-.047.0938-.078.1719-.133.2891-.164.3516-.031.0468-.07.0937-.117.1406-.047.0781-.102.1484-.164.2109-.063.0625-.094.1328-.094.211-.094.0625-.164.1484-.211.2578-.109.1406-.164.2187-.164.2343l-.187.1876c-.032.0937-.055.1562-.071.1874-.015.0157-.031.0391-.047.0704-.093.125-.14.1953-.14.2109.015 0 .008.0078-.024.0234-.093.1563-.156.25-.187.2813l-.141.2344c-.047.0625-.07.1093-.07.1406 0 .0312-.016.0625-.047.0937-.063.0313-.102.0782-.117.1407-.016.0625-.055.1093-.117.1406 0 .0625-.016.1094-.047.1406-.032.0313-.055.086-.071.1641-.109.1093-.164.1797-.164.2109 0 .0313-.007.0625-.023.0938-.063.0625-.102.1093-.117.1406-.016.0156-.039.039-.071.0703-.062.0781-.101.1328-.117.1641 0 .0156-.015.039-.047.0703-.093.125-.156.2109-.187.2578-.11.1875-.188.3047-.235.3515-.031.0469-.062.0938-.093.1407-.125.1875-.211.3047-.258.3515-.031.0469-.063.0938-.094.1407-.031.0312-.055.0703-.07.1171-.156.1563-.2423.2579-.258.3047-.0156.0469-.0547.086-.1172.1172-.0312.0781-.0781.1485-.1406.211-.0469.0468-.0859.1093-.1172.1875.0625.1875.1016.2968.1172.3281.0156.0156.0313.0391.0469.0703.0469.1094.0859.1719.1172.1875.0312.0156.0547.0391.0703.0703.0784.2031.1484.3438.2114.4219.062.0625.109.1406.14.2344.031.0312.063.0625.094.0937.031.0313.062.0625.094.0938.047.0937.101.1718.164.2343.062.125.109.2032.14.2344.032.0313.063.0625.094.0938.016.0312.031.0703.047.1171.031.0313.062.0704.094.1172.109.1094.179.1954.211.2578.031.0469.062.0938.093.1407.125.1875.204.3047.235.3515.031.0313.062.0704.094.1172.046.1406.093.2266.14.2578.094.1094.133.1719.117.1875 0 .0157.016.0313.047.0469.094.1406.141.2188.141.2344 0 0 .008.0078.023.0234.094.0938.164.1797.211.2578.094.1407.172.2422.235.3047.046.1094.109.1953.187.2578s.133.1485.164.2579c.047.0624.117.1406.211.2343.141.1875.25.336.328.4453.078.1094.156.2032.235.2813.078.1719.117.2734.117.3047.015.0312.031.0625.047.0937-.016.1875-.016.3047 0 .3516.015.0312.023.0703.023.1172-.187.0937-.305.1484-.351.164-.032.0157-.079.0157-.141 0-.031 0-.078-.0078-.141-.0234-.062 0-.117 0-.164 0-.156-.0156-.258-.0234-.304-.0234-.188-.0313-.297-.0469-.329-.0469-.093 0-.164.0078-.211.0234-.046.0156-.085.0235-.117.0235-.047 0-.101-.0079-.164-.0235-.047-.0156-.094-.0312-.14-.0468-.047.0156-.102.0156-.164 0-.063-.0157-.11-.0235-.141-.0235-.094 0-.219 0-.375 0-.141.0156-.25.0235-.328.0235-.188-.0157-.305-.0157-.352 0-.047.0156-.086.0234-.117.0234-.187 0-.32.0078-.3984.0234-.0781.0313-.1641.0313-.2578 0-.1563-.0937-.25-.1406-.2813-.1406-.0156-.0156-.0468-.0234-.0937-.0234-.125-.1094-.2031-.1719-.2344-.1875-.0156-.0157-.0234-.0391-.0234-.0703-.0782-.0626-.1328-.1485-.1641-.2579-.0312-.1093-.0859-.1953-.1641-.2578-.0156-.0625-.039-.1093-.0703-.1406-.0312-.0469-.0625-.0937-.0937-.1406-.0938-.1407-.1485-.211-.1641-.211 0-.0156 0-.0312 0-.0468-.0781-.125-.125-.1875-.1406-.1875 0-.0157-.0078-.0391-.0234-.0704-.125-.1093-.1875-.164-.1875-.164.0156-.0156.0156-.0313 0-.0469-.0782-.0937-.1641-.2031-.2579-.3281-.1406-.1563-.2187-.2578-.2343-.3047-.0782-.1094-.125-.1797-.1407-.2109 0-.0313-.0156-.0625-.0468-.0938-.0313-.0312-.0625-.0625-.0938-.0937-.0312-.0313-.0703-.0625-.1172-.0938-.0937.1406-.1562.2656-.1875.375-.0937.125-.1484.2031-.164.2344 0 .0156-.0157.0234-.0469.0234-.0625.125-.1016.2031-.1172.2344 0 .0156-.0078.0391-.0234.0703-.1407.2188-.25.3906-.3282.5156-.0625.1094-.1328.2032-.2109.2813-.0156.0625-.0391.125-.0703.1875-.0156.0469-.0391.1016-.0703.164-.0625.1407-.1016.2266-.1172.2579 0 .0156-.0078.0312-.0234.0468-.125.1875-.1954.3203-.211.3985 0 .0781-.0156.1328-.0469.164-.1875.0625-.2812.1016-.2812.1172.0156.0313.0078.0469-.0234.0469-.1563.0313-.3125.0391-.4688.0234-.1406-.0156-.2734-.0234-.3984-.0234-.1407 0-.2813 0-.4219 0-.1406.0156-.2734.0234-.3984.0234-.0469 0-.1016 0-.1641 0-.0469 0-.0859-.0078-.1172-.0234-.1719-.0313-.2578-.0391-.2578-.0234 0 .0312-.0156.0468-.0469.0468-.0469.0157-.1015.0079-.164-.0234-.0469-.0156-.086-.0234-.1172-.0234-.0782 0-.1563.0078-.2344.0234-.0625.0156-.1484.0234-.2578.0234h-.4922c-.1875.0157-.2891.0157-.3047 0 0 0-.0156 0-.0469 0-.1718.0157-.2968.0157-.375 0-.0781-.0156-.1562-.0156-.2343 0zm20.695-.2344c-.187.0782-.343.1172-.468.1172-.125.0157-.266.0391-.422.0704-.219.0312-.352.039-.399.0234-.031-.0156-.062-.0313-.093-.0469-.219.0313-.399.0469-.54.0469-.125 0-.25 0-.375 0-.218-.0156-.359-.0234-.421-.0234-.047.0156-.102.0234-.164.0234-.063 0-.125-.0078-.188-.0234-.047-.0157-.102-.0235-.164-.0235-.125.0313-.219.0469-.281.0469-.141 0-.25-.0078-.328-.0234-.25.0312-.43.0234-.539-.0235-.11-.0312-.204-.0312-.282 0-.062-.0312-.172-.0625-.328-.0937-.062-.1407-.101-.2266-.117-.2578-.109-.1563-.18-.25-.211-.2813-.031-.0781-.047-.1406-.047-.1875.016-.0469.016-.0859 0-.1172-.062-.25-.078-.4531-.047-.6094.016-.1562.039-.2968.071-.4218.015-.0625.015-.1094 0-.1407 0-.0312 0-.0859 0-.164v-.3281c0-.1094-.008-.1719-.024-.1876-.015-.0312-.023-.0624-.023-.0937.031-.25.047-.4375.047-.5625s.007-.2422.023-.3516c.016-.0468.016-.0937 0-.1406 0-.0469 0-.0937 0-.1406.016-.0781.023-.1641.023-.2578.016-.0938.016-.1875 0-.2813v-.5859c-.015-.0938-.023-.1484-.023-.1641.016-.0312.023-.0703.023-.1172 0-.0625-.007-.1328-.023-.2109 0-.0938 0-.1719 0-.2344v-.3281c0-.2187 0-.4141 0-.5859.016-.1719.016-.3438 0-.5157 0-.0781 0-.164 0-.2578 0-.0937.008-.1797.023-.2578.016-.1562.016-.2891 0-.3984 0-.1407 0-.2735 0-.3985 0-.1406-.007-.2578-.023-.3515-.047-.2188-.07-.3438-.07-.375 0-.0625.008-.125.023-.1875.016-.0625.024-.125.024-.1875v-.375c-.016-.125-.024-.2266-.024-.3047.016-.0781.008-.1563-.023-.2344.031-.0469.047-.1562.047-.3281 0-.2188 0-.4063 0-.5625 0-.1719.007-.3125.023-.4219-.047-.0469-.133-.0859-.258-.1172-.203-.0781-.383-.1172-.539-.1172-.14-.0156-.265-.0547-.375-.1171-.094-.0469-.172-.1094-.234-.1876-.063-.0781-.149-.125-.258-.1406-.031-.0468-.086-.0937-.164-.1406-.063-.0469-.117-.1094-.164-.1875-.047-.0937-.07-.1875-.07-.2813-.032-.0624-.055-.1171-.071-.164-.015-.0625-.015-.1484 0-.2578.047-.1406.071-.211.071-.211.015 0 .039-.0156.07-.0468.047-.0938.078-.1485.094-.1641.031-.0313.046-.0625.046-.0937.125-.125.188-.1876.188-.1876 0-.0156.008-.0312.023-.0468l.211-.2578c.063-.1094.102-.1641.118-.1641.015-.0156.023-.0391.023-.0703.062-.0781.102-.1406.117-.1875.031-.0469.063-.0938.094-.1406.062-.1094.094-.1797.094-.211.015-.0312.039-.0703.07-.1172.078-.0937.117-.1484.117-.164 0-.0313.008-.0547.024-.0703.109-.2188.203-.4219.281-.6094.015-.0469.055-.1328.117-.2578.078-.125.133-.2188.164-.2813.109-.125.164-.1875.164-.1875 0-.0156.008-.0312.024-.0468.218-.0782.359-.1172.421-.1172.079-.0157.165-.0313.258-.0469.125-.0313.211-.0469.258-.0469.078-.0156.141-.0156.188 0h.117c.156 0 .234.0078.234.0234 0 .0157.008.0235.024.0235.062-.0156.156-.0078.281.0234h.164c.062-.0156.117-.0234.164-.0234.062 0 .109.0078.141.0234h.14c.141-.0156.219-.0156.235 0h.07l.281.0235c.156.0156.297.0078.422-.0235.156.0157.273.0313.352.0469.078 0 .148.0078.211.0234.109-.0156.171-.0156.187 0h.07c.172.0157.305.0313.399.0469.094 0 .156.0156.187.0469.11.1562.172.2656.188.3281.015.0469.039.0938.07.1406.031.0782.055.1407.07.1875.032.0469.055.086.071.1172v.3282c-.016.0781-.032.1562-.047.2343-.016.0625-.031.1328-.047.211 0 .1875-.008.289-.023.3047v.0468l.023.2578c-.047.2032-.07.3594-.07.4688.015.1094.015.2109 0 .3047 0 .0781-.008.1484-.024.2109 0 .0625-.008.1328-.023.211-.047.3124-.071.5859-.071.8203-.031.2187-.046.3437-.046.375v.164c.015.0313.031.0703.046.1172-.015.1875-.023.2891-.023.3047.016 0 .023.0156.023.0469-.015.0781-.023.1562-.023.2343v.2344c.016.1094.016.1953 0 .2578v.1172c0 .125.008.2188.023.2813v.6562c.016.1094.016.2188 0 .3281v.3047.211c.016.0469.016.1015 0 .164v.2813c-.015.1875-.023.2812-.023.2812 0 .1094.008.211.023.3047.016.0938.024.1953.024.3047 0 .125-.008.2578-.024.3984-.015.125-.015.25 0 .375v.3282l.024.2812c.016.125.023.2656.023.4219v.4687c0 .1407.016.2891.047.4454 0 .0625-.008.1172-.023.164 0 .0469.008.0938.023.1406v.2579c.016.1875.031.3047.047.3515.016.0313.031.0625.047.0938.016.0937.016.1875 0 .2812-.016.0938-.016.1875 0 .2813l.023.3281c0 .0469.008.1016.024.1641.015.0468.023.0859.023.1171v.1641c0 .0469.008.1016.024.1641v.1406c.015.0469.023.1094.023.1875v.2578c.016.125.016.1953 0 .2109v.0469c.063.2188.086.3828.07.4922 0 .0938.008.1797.024.2578.016.0625.023.1172.023.1641.016.0469.032.1016.047.164 0 .0938-.008.1954-.023.3047 0 .0938-.016.1875-.047.2813zm8.93 0c-.187.0782-.344.1172-.469.1172-.125.0157-.265.0391-.422.0704-.218.0312-.351.039-.398.0234-.031-.0156-.063-.0313-.094-.0469-.219.0313-.398.0469-.539.0469-.125 0-.25 0-.375 0-.219-.0156-.359-.0234-.422-.0234-.047.0156-.101.0234-.164.0234-.062 0-.125-.0078-.187-.0234-.047-.0157-.102-.0235-.164-.0235-.125.0313-.219.0469-.282.0469-.14 0-.25-.0078-.328-.0234-.25.0312-.429.0234-.539-.0235-.109-.0312-.203-.0312-.281 0-.063-.0312-.172-.0625-.328-.0937-.063-.1407-.102-.2266-.117-.2578-.11-.1563-.18-.25-.211-.2813-.032-.0781-.047-.1406-.047-.1875.015-.0469.015-.0859 0-.1172-.063-.25-.078-.4531-.047-.6094.016-.1562.039-.2968.07-.4218.016-.0625.016-.1094 0-.1407 0-.0312 0-.0859 0-.164v-.3281c0-.1094-.008-.1719-.023-.1876-.016-.0312-.024-.0624-.024-.0937.032-.25.047-.4375.047-.5625s.008-.2422.024-.3516c.015-.0468.015-.0937 0-.1406 0-.0469 0-.0937 0-.1406.015-.0781.023-.1641.023-.2578.016-.0938.016-.1875 0-.2813v-.5859c-.015-.0938-.023-.1484-.023-.1641.015-.0312.023-.0703.023-.1172 0-.0625-.008-.1328-.023-.2109 0-.0938 0-.1719 0-.2344v-.3281c0-.2187 0-.4141 0-.5859.015-.1719.015-.3438 0-.5157 0-.0781 0-.164 0-.2578 0-.0937.008-.1797.023-.2578.016-.1562.016-.2891 0-.3984 0-.1407 0-.2735 0-.3985 0-.1406-.008-.2578-.023-.3515-.047-.2188-.071-.3438-.071-.375 0-.0625.008-.125.024-.1875.015-.0625.023-.125.023-.1875v-.375c-.015-.125-.023-.2266-.023-.3047.015-.0781.008-.1563-.024-.2344.032-.0469.047-.1562.047-.3281 0-.2188 0-.4063 0-.5625 0-.1719.008-.3125.024-.4219-.047-.0469-.133-.0859-.258-.1172-.203-.0781-.383-.1172-.539-.1172-.141-.0156-.266-.0547-.375-.1171-.094-.0469-.172-.1094-.235-.1876-.062-.0781-.148-.125-.257-.1406-.032-.0468-.086-.0937-.164-.1406-.063-.0469-.118-.1094-.164-.1875-.047-.0937-.071-.1875-.071-.2813-.031-.0624-.054-.1171-.07-.164-.016-.0625-.016-.1484 0-.2578.047-.1406.07-.211.07-.211.016 0 .039-.0156.071-.0468.046-.0938.078-.1485.093-.1641.032-.0313.047-.0625.047-.0937.125-.125.188-.1876.188-.1876 0-.0156.007-.0312.023-.0468l.211-.2578c.063-.1094.102-.1641.117-.1641.016-.0156.024-.0391.024-.0703.062-.0781.101-.1406.117-.1875.031-.0469.062-.0938.094-.1406.062-.1094.093-.1797.093-.211.016-.0312.039-.0703.071-.1172.078-.0937.117-.1484.117-.164 0-.0313.008-.0547.023-.0703.11-.2188.203-.4219.282-.6094.015-.0469.054-.1328.117-.2578.078-.125.133-.2188.164-.2813.109-.125.164-.1875.164-.1875 0-.0156.008-.0312.023-.0468.219-.0782.36-.1172.422-.1172.078-.0157.164-.0313.258-.0469.125-.0313.211-.0469.258-.0469.078-.0156.14-.0156.187 0h.117c.157 0 .235.0078.235.0234 0 .0157.008.0235.023.0235.063-.0156.157-.0078.282.0234h.164c.062-.0156.117-.0234.164-.0234.062 0 .109.0078.14.0234h.141c.141-.0156.219-.0156.234 0h.071l.281.0235c.156.0156.297.0078.422-.0235.156.0157.273.0313.351.0469.078 0 .149.0078.211.0234.11-.0156.172-.0156.188 0h.07c.172.0157.305.0313.398.0469.094 0 .157.0156.188.0469.109.1562.172.2656.187.3281.016.0469.04.0938.071.1406.031.0782.054.1407.07.1875.031.0469.055.086.07.1172v.3282c-.015.0781-.031.1562-.046.2343-.016.0625-.032.1328-.047.211 0 .1875-.008.289-.024.3047v.0468l.024.2578c-.047.2032-.071.3594-.071.4688.016.1094.016.2109 0 .3047 0 .0781-.007.1484-.023.2109 0 .0625-.008.1328-.024.211-.046.3124-.07.5859-.07.8203-.031.2187-.047.3437-.047.375v.164c.016.0313.032.0703.047.1172-.015.1875-.023.2891-.023.3047.015 0 .023.0156.023.0469-.015.0781-.023.1562-.023.2343v.2344c.015.1094.015.1953 0 .2578v.1172c0 .125.008.2188.023.2813v.6562c.016.1094.016.2188 0 .3281v.3047.211c.016.0469.016.1015 0 .164v.2813c-.015.1875-.023.2812-.023.2812 0 .1094.008.211.023.3047.016.0938.024.1953.024.3047 0 .125-.008.2578-.024.3984-.015.125-.015.25 0 .375v.3282l.024.2812c.015.125.023.2656.023.4219v.4687c0 .1407.016.2891.047.4454 0 .0625-.008.1172-.024.164 0 .0469.008.0938.024.1406v.2579c.016.1875.031.3047.047.3515.015.0313.031.0625.047.0938.015.0937.015.1875 0 .2812-.016.0938-.016.1875 0 .2813l.023.3281c0 .0469.008.1016.024.1641.015.0468.023.0859.023.1171v.1641c0 .0469.008.1016.023.1641v.1406c.016.0469.024.1094.024.1875v.2578c.015.125.015.1953 0 .2109v.0469c.062.2188.086.3828.07.4922 0 .0938.008.1797.024.2578.015.0625.023.1172.023.1641.016.0469.031.1016.047.164 0 .0938-.008.1954-.024.3047 0 .0938-.015.1875-.046.2813zm19.195-12.0468c.141.0937.211.1484.211.164.11.0625.172.1094.188.1407.031.0156.047.039.047.0703-.016.1406-.016.25 0 .3281.015.0625.007.1094-.024.1406-.047.1407-.07.2344-.07.2813.016.0312.016.0625 0 .0937 0 .0625-.008.1172-.024.1641v.164.2813.1406c.016.0313.024.0781.024.1407.031.1406.039.2343.023.2812 0 .0469.016.0938.047.1406-.031.0782-.047.1641-.047.2578 0 .0782-.023.1485-.07.211-.109.0625-.172.0781-.187.0468 0-.0312-.024-.039-.071-.0234-.109.0313-.219.0391-.328.0234-.094-.0156-.211-.0234-.351-.0234-.157 0-.274 0-.352 0-.063-.0156-.125-.0234-.188-.0234l-.75-.0235c-.171 0-.257 0-.257 0-.11 0-.227.0079-.352.0235-.109 0-.219 0-.328 0-.141-.0156-.234-.0156-.281 0-.032 0-.063 0-.094 0-.078 0-.148.0078-.211.0234-.062 0-.125 0-.187 0-.11-.0156-.211-.0156-.305 0-.078.0156-.149.0156-.211 0l-.399.0234c-.015.0157-.054.0235-.117.0235-.047 0-.101 0-.164 0-.094.0156-.195.0234-.304.0234-.204.0157-.344.0235-.422.0235-.063-.0157-.133-.0235-.211-.0235-.141 0-.227 0-.258 0-.031-.0156-.063-.0234-.094-.0234-.172-.0156-.273-.0235-.305-.0235-.031-.0156-.085-.0156-.164 0-.156-.0156-.281-.0234-.375-.0234-.093 0-.179 0-.257 0-.063 0-.125.0078-.188.0234-.047 0-.109 0-.187 0-.11.0313-.211.0469-.305.0469-.078 0-.156 0-.234 0-.141 0-.227.0078-.258.0235-.016 0-.039-.0078-.071-.0235-.234-.0625-.367-.1015-.398-.1172-.094-.0937-.141-.1484-.141-.164 0-.0313-.007-.0625-.023-.0938-.063-.1719-.109-.2734-.141-.3047-.015-.0312-.023-.0625-.023-.0937-.031-.0781-.039-.1563-.024-.2344.016-.0937.024-.1875.024-.2812 0-.1719-.008-.336-.024-.4922 0-.1563.008-.3125.024-.4688.031-.0937.047-.1797.047-.2578-.016-.1406-.008-.2265.023-.2578.063-.1094.102-.1719.117-.1875.032-.0156.071-.0391.118-.0703.156-.0469.242-.0703.257-.0703.032-.0156.055-.0235.071-.0235.14-.0156.242 0 .304.0469.157 0 .305-.0078.446-.0234.156-.0313.312-.0391.468-.0235.047 0 .094.0079.141.0235h.188c.125.0156.21.0234.257.0234.047-.0156.086-.0234.118-.0234.171-.0156.257-.0156.257 0h.071c.281.0156.484.0156.609 0 .125-.0313.234-.0156.328.0468.188-.0156.297-.0234.328-.0234.032 0 .063.0156.094.0469.156 0 .242.0078.258.0234h.047c.187.0157.297.0235.328.0235.047-.0157.101-.0157.164 0 .078 0 .133.0078.164.0234h.094.258.164c.046-.0156.086-.0234.117-.0234.187.0156.304.0234.351.0234.047-.0156.094-.0234.141-.0234h.469c.093-.0157.195-.0235.304-.0235h.188c.078-.0156.141-.0234.187-.0234.079-.0156.157-.0156.235 0s.156.0156.234 0c.172-.0156.289-.0313.352-.0469.078-.0156.148-.0234.211-.0234.031.0156.07.0234.117.0234.062 0 .109.0078.14.0234.125 0 .196.0079.211.0235h.047zm.493 5.3203-.047.2812v.3282c0 .1093.007.1875.023.2343.031.0313.055.0625.07.0938-.015.0625-.023.1172-.023.164 0 .0313.008.0704.023.1172-.015.2032-.031.336-.046.3985 0 .0469-.016.1093-.047.1875-.078 0-.157.0078-.235.0234s-.156.0234-.234.0234c-.047 0-.094-.0078-.141-.0234s-.093-.0234-.14-.0234-.094 0-.141 0-.109-.0078-.187-.0235c-.047 0-.094 0-.141 0-.047-.0156-.094-.0234-.141-.0234-.078 0-.156.0156-.234.0469-.063.0156-.133.0234-.211.0234s-.18-.0156-.305-.0469c-.14-.0156-.281-.0156-.422 0-.125.0157-.25.0313-.375.0469-.156.0313-.336.0469-.539.0469-.203-.0156-.398-.0156-.586 0-.078 0-.148.0078-.211.0234-.062 0-.132.0078-.21.0235-.079 0-.157.0078-.235.0234-.062 0-.133 0-.211 0-.078-.0156-.148-.0312-.211-.0469-.062-.0156-.133-.0234-.211-.0234-.125-.0156-.242-.0156-.351 0-.078 0-.164.0078-.258.0234-.078.0157-.156.0157-.234 0-.157-.0469-.243-.0703-.258-.0703-.188.0625-.305.0938-.352.0938-.047-.0157-.086-.0235-.117-.0235-.078 0-.148.0078-.211.0235-.047.0156-.094.0234-.141.0234-.078.0156-.156.0156-.234 0-.062-.0156-.133-.0234-.211-.0234-.109 0-.203 0-.281 0-.063 0-.125 0-.188 0l-.492-.0469c-.14.0312-.242.0391-.304.0234l-.469-.1875c-.094-.125-.141-.2031-.141-.2344-.047-.0781-.07-.1406-.07-.1874.015-.0469.015-.086 0-.1172l-.024-.4219c-.015-.1094-.031-.2188-.046-.3281 0-.125 0-.2422 0-.3516-.016-.1719-.016-.2969 0-.375-.032-.125-.032-.2344 0-.3281l.07-.2578c.031-.0938.055-.1485.07-.1641.031-.0156.055-.0391.07-.0703.188-.0313.29-.0547.305-.0703.016-.0156.039-.0313.07-.0469.063-.0156.133-.0156.211 0 .079.0156.133.0234.164.0234.141-.0312.227-.039.258-.0234h.094c.234.0156.438.0234.609.0234.11.0157.211.0235.305.0235.109-.0156.211-.0156.305 0 .172.0312.265.039.281.0234s.039-.0234.07-.0234c.047 0 .102.0078.164.0234h.164.118c.047-.0156.093-.0234.14-.0234h.282c.109 0 .187.0078.234.0234h.187c.125-.0156.196-.0156.211 0 .032 0 .055-.0156.071-.0469.062.0313.125.0469.187.0469.063 0 .117.0078.164.0234h.375c.078 0 .156.0079.235.0235.078 0 .156.0078.234.0234h.492.703.563c.172-.0156.297-.0234.375-.0234.078-.0156.14-.0235.187-.0235.078-.0156.157-.0234.235-.0234h.257c.157-.0156.282-.0234.375-.0234h.305c.047 0 .094.0078.141.0234h.117c.172.0625.258.0938.258.0938.015 0 .031.0078.047.0234.078.1406.117.2188.117.2344.015.0156.023.0312.023.0468-.031.0938-.047.1563-.047.1876.016.0312.024.0624.024.0937-.047.1719-.078.2734-.094.3047-.016.0312-.023.0625-.023.0937zm17.882-9.8438c.063.1407.157.2344.282.2813.125.1406.203.2344.234.2812.047.0469.094.0938.141.1407.109.0781.164.125.164.1406.015.0156.023.0312.023.0469.125.125.203.2031.234.2343.079.1407.133.2266.165.2579.046.0312.07.0859.07.164.156.1719.242.2734.258.3047.109.1563.164.25.164.2813.015.0312.031.0624.047.0937.031.0469.046.1016.046.1641 0 .0468.016.1015.047.164.047.125.078.1953.094.211.016 0 .031.0156.047.0468.047.125.07.2032.07.2344.016.0156.039.0391.071.0703 0 .0781.015.1797.046.3047.016.1875.032.3047.047.3516.016.0312.024.0703.024.1172 0 .2187.031.3593.094.4218-.032.0782-.04.1563-.024.2344.016.0625.031.1406.047.2344.016.1406.008.2578-.023.3516-.032.0937-.047.1718-.047.2343s-.008.1172-.024.1641c-.015.0625-.031.1172-.047.164-.015.0469-.031.1016-.047.1641-.031.0625-.046.125-.046.1875 0 .0469-.008.1094-.024.1875l-.187.5156c-.032.0625-.063.125-.094.1875-.016.0625-.039.125-.07.1875-.094.1563-.157.2579-.188.3047-.031.0469-.062.0938-.094.1406-.125.1719-.203.2657-.234.2813-.016 0-.031.0156-.047.0469-.156.2187-.258.3437-.305.375l-.257.164c-.11.1094-.188.1875-.235.2344s-.101.1016-.164.1641c-.172.1093-.289.2343-.351.375-.063.0156-.157.0547-.282.1172-.109.0625-.172.1015-.187.1171-.016.0157-.039.0313-.07.0469-.094.0313-.157.0469-.188.0469-.016 0-.039.0078-.07.0234-.032.0157-.078.0391-.141.0704-.062.0312-.109.0703-.141.1171.016.1407.016.2188 0 .2344v.0703c.016.1563.024.2656.024.3282-.047.125-.07.2343-.07.3281.015.0937.031.1875.046.2812 0 .125-.007.2344-.023.3281 0 .0782.008.1876.023.3282.016.0312.024.0859.024.164v.1875c-.031.0313-.07.0703-.117.1172-.032.0469-.071.086-.117.1172-.157.0313-.25.0547-.282.0703-.015.0156-.039.0235-.07.0235-.188-.0157-.32-.0157-.398 0-.079 0-.157 0-.235 0l-.492-.0235c-.078 0-.141.0078-.188.0235-.046 0-.101-.0157-.164-.0469-.062.0312-.171.0312-.328 0-.031 0-.078.0078-.14.0234-.047 0-.086 0-.118 0-.093.0156-.21.0235-.351.0235s-.274.0078-.399.0234c-.093 0-.195 0-.304 0-.094-.0156-.18-.0156-.258 0-.047 0-.094.0078-.141.0234-.047.0157-.109.0079-.187-.0234-.11-.0313-.195-.0469-.258-.0469-.047 0-.078 0-.094 0-.015-.0625-.031-.1094-.047-.1406-.015-.0312-.039-.0625-.07-.0938-.047-.1718-.07-.2578-.07-.2578 0-.1718-.008-.2812-.024-.3281 0-.0625 0-.1484 0-.2578.016-.25.008-.4141-.023-.4922v-.5156c-.016-.1406-.024-.2266-.024-.2578.016-.0313.024-.0625.024-.0938.016-.0625.023-.125.023-.1875s0-.125 0-.1875c-.031-.1562-.047-.25-.047-.2812.016-.0313.024-.0703.024-.1172 0-.0313 0-.0781 0-.1406.016-.0782.023-.1329.023-.1641 0-.1094 0-.1953 0-.2578.016-.0625.008-.125-.023-.1875.047-.1875.055-.3203.023-.3985-.015-.0937-.007-.1796.024-.2578.078-.1093.117-.1875.117-.2343.047-.1094.078-.1719.094-.1875.015-.0157.015-.0391 0-.0704.062-.0312.101-.0624.117-.0937.031-.0469.062-.0859.094-.1172.156-.0937.273-.1484.351-.1641.078-.0312.164-.0703.258-.1171.203-.0625.328-.1016.375-.1172.047-.0157.102-.0313.164-.0469.047-.0156.086-.0234.117-.0234.047 0 .094-.0078.141-.0235.156-.0625.234-.1015.234-.1172.078.0157.188 0 .328-.0468.094-.0625.149-.0938.164-.0938.016-.0156.04-.0234.071-.0234.125-.0781.203-.1328.234-.1641.031-.0312.063-.0547.094-.0703.047-.0313.086-.0625.117-.0937.172-.1563.305-.2813.399-.375.062-.1094.093-.1797.093-.211.016-.0312.032-.0625.047-.0937l.047-.2579c.047-.1562.055-.2968.023-.4218-.015-.1406-.039-.25-.07-.3282-.078-.1406-.117-.2109-.117-.2109 0-.0156-.008-.0234-.023-.0234-.079-.0938-.133-.1407-.165-.1407-.031 0-.054-.0156-.07-.0468-.062-.0156-.172-.0547-.328-.1172-.062-.0313-.148-.0469-.258-.0469-.125.0156-.203.0235-.234.0235-.031-.0157-.078-.0235-.141-.0235-.031.0156-.07.0313-.117.0469-.031.0156-.078.0312-.141.0469-.218.0937-.351.164-.398.2109-.047.0312-.102.0625-.164.0938-.078.1093-.133.1796-.164.2109-.031.0156-.055.0391-.07.0703-.047.0469-.086.0938-.118.1406-.031.0313-.062.0625-.093.0938-.016.0781-.047.1406-.094.1875s-.07.1172-.07.2109l-.235.1406c-.109.0938-.203.1407-.281.1407-.078-.0157-.149-.0157-.211 0-.125-.0625-.188-.1016-.188-.1172 0-.0157-.015-.0235-.046-.0235-.11-.0937-.18-.1406-.211-.1406-.032 0-.063-.0156-.094-.0469-.109-.0312-.18-.0547-.211-.0703-.031-.0312-.07-.0625-.117-.0937-.172-.0313-.258-.0547-.258-.0703-.125-.0782-.203-.1328-.234-.1641-.157-.0625-.258-.1016-.305-.1172-.031-.0312-.063-.0547-.094-.0703-.172-.0625-.289-.1094-.351-.1406-.047-.0313-.102-.0625-.164-.0938-.157-.0781-.297-.164-.422-.2578-.032-.0156-.078-.0312-.141-.0469-.047-.0156-.086-.039-.117-.0703-.188-.0468-.344-.1328-.469-.2578.063-.1406.086-.2187.07-.2344-.015-.0156-.023-.039-.023-.0703l.07-.2812c.078-.1719.141-.2813.188-.3281.062-.0469.101-.1094.117-.1876.078-.0937.117-.1562.117-.1874 0-.0313.008-.0626.024-.0938.093-.1094.148-.1797.164-.2109.015-.0469.031-.0938.047-.1407.078-.0937.117-.1562.117-.1875 0-.0312.008-.0547.023-.0703.11-.125.172-.2031.188-.2344.031-.0468.062-.0859.093-.1171.047-.125.086-.2032.118-.2344.031-.0313.062-.0625.093-.0938.047-.0312.071-.0781.071-.1406.047-.0156.078-.0391.093-.0703.032-.0469.063-.0859.094-.1172.141-.1406.227-.2266.258-.2578s.062-.0625.094-.0938c.172-.1562.297-.25.375-.2812.093-.0938.218-.1719.375-.2344.156-.0625.242-.1015.258-.1172.031-.0312.062-.0546.093-.0703.141-.0312.258-.0469.352-.0469.203-.0468.398-.1171.586-.2109.234-.0781.437-.125.609-.1406.141.0156.219.0234.235.0234.031-.0156.062-.0234.093-.0234.172-.0469.289-.0625.352-.0469h.164c.078 0 .156.0078.234.0234h.211c.125 0 .196-.0078.211-.0234.031-.0156.063-.0234.094-.0234.125.0312.195.0468.211.0468.015-.0156.039-.0078.07.0235.078-.0156.172-.0078.281.0234.063.0157.118.0313.164.0469.047 0 .102.0078.165.0234.046.0313.093.0625.14.0938.047.0156.094.0312.141.0469.156.0625.25.0937.281.0937.047 0 .094.0156.141.0469.109.0625.172.0937.187.0937.016 0 .039.0078.07.0235.063.0312.125.0547.188.0703.062 0 .117.0156.164.0469.156.0781.242.125.258.1406.031.0156.062.0312.094.0469.109.0781.179.1328.211.164.125.0938.187.125.187.0938.016-.0469.039-.0547.07-.0235zm-2.203 13.4766c.047.0313.086.0547.117.0703.047.0156.094.0234.141.0234.078.0782.188.1407.328.1876.11.0781.18.1328.211.164.109.1094.18.1953.211.2578.078.125.125.2032.141.2344.031.0312.054.0625.07.0938l.094.3515v.2578c-.016.0625-.024.1485-.024.2578-.031.1719-.054.2735-.07.3047v.0703c-.031.0313-.063.0625-.094.0938-.015.0312-.039.0703-.07.1172-.078.125-.172.25-.281.375-.11.1093-.243.2031-.399.2812-.125.0938-.234.1641-.328.211-.156.0312-.25.0547-.281.0703-.016.0156-.039.0312-.07.0468-.157.0157-.243.0157-.258 0 0 0-.016.0079-.047.0235-.063 0-.117.0078-.164.0234-.047.0157-.086.0235-.117.0235-.157-.0157-.243-.0235-.258-.0235-.078-.0156-.172-.0234-.281-.0234-.11.0156-.204.0078-.282-.0235-.125-.0468-.218-.0703-.281-.0703-.062.0157-.125.0079-.187-.0234-.063-.0156-.141-.0547-.235-.1172-.078-.0312-.148-.0547-.211-.0703-.047-.0312-.109-.0625-.187-.0938-.203-.1406-.336-.2421-.399-.3046-.062-.0782-.109-.1719-.14-.2813-.078-.0312-.118-.0703-.118-.1172 0-.0625-.031-.125-.093-.1875-.047-.1718-.071-.2656-.071-.2812.016-.0156.024-.0391.024-.0703 0-.1719-.008-.2657-.024-.2813 0-.0156.008-.039.024-.0703.062-.125.094-.2344.094-.3281.015-.0938.046-.1797.093-.2578.11-.1094.172-.1797.188-.211.015-.0312.039-.0625.07-.0937.078-.1094.141-.1797.188-.211.14-.125.226-.1953.257-.2109.047-.0156.086-.0391.118-.0703.125-.0313.234-.0703.328-.1172.203-.0937.39-.1563.562-.1875l.539-.0234c.235 0 .446.0234.633.0703.172.0312.258.0547.258.0703s.008.0234.023.0234c.047.0156.094.0235.141.0235s.086.0078.117.0234z" fill="#693821"/></svg>