<svg fill="none" height="187" viewBox="0 0 229 187" width="229" xmlns="http://www.w3.org/2000/svg"><g fill="#6a290b"><path d="m217.027 50.3131c3.272 5.8824 5.65 12.0017 7.242 18.4368.109.4342.829.2566.72-.1777-1.636-6.4548-4.188-12.5939-7.569-18.4565-.153-.2566-.523-.0395-.393.1974z"/><path d="m218.054 46.4374c7.271 10.1834 10.603 21.141 9.554 33.0713-.046.6551 1.142.6551 1.212 0 1.026-11.9104-2.33-23.4238-10.16-33.369-.257-.3177-.839-.0397-.606.2977z"/><path d="m96.6204 8.4349c-38.0268 13.2622-67.6155 41.3892-81.4192 75.8668-13.18022 32.8953-11.08743 76.6083 30.3457 91.2323 42.7245 15.085 90.7481-3.185 123.2091-28.828 32.438-25.603 58.865-65.1488 43.993-104.9153-7.236-19.3324-23.711-34.03694-45.73-39.42595-25.737-6.31055-52.075.70117-74.2503 12.84145-3.0279 1.6628-.2671 5.95 2.783 4.2872 19.9703-10.8181 43.1033-17.58942 66.4803-13.06185 21.061 4.06685 37.47 17.18875 44.795 35.33905 14.605 36.1405-7.948 72.5614-36.669 97.1624-28.52 24.401-69.508 42.952-109.7387 35.78-22.1304-3.947-39.6966-15.786-45.7524-35.84-4.89809-16.207-2.6049-33.636 2.8943-49.4828 12.3119-35.4793 42.2792-64.4677 79.4377-80.13393.512-.22037.1558-1.0217-.3785-.82137z"/><path d="m197.567 142.445c-4.642 1.9-11.307 6.995-11.56 12.028-.275 5.596 7.125 6.431 11.399 4.761 5.125-2.005 10.779-6.933 11.537-12.174.368-2.443-1.08-4.573-3.562-5.533-3.079-1.212-6.182-.105-9.078 1.023-2.757 1.086-.367 4.823 2.367 3.696 1.264-.627 2.597-.982 4.022-1.086 1.402 1.399 1.632 2.694.644 3.925-.414 1.024-1.448 2.109-2.206 2.903-1.885 1.921-4.528 4.03-7.401 4.427-3.562.501-5.01-1.9-3.424-4.782.506-.919 1.103-1.817 1.77-2.673 1.723-2.213 3.93-3.905 6.251-5.596.62-.438-.161-1.169-.759-.919z"/><path d="m206.709 167.377c-3.307 1.521-7.205 4.522-5.126 8.316 2.173 3.944 8.197 2.122 10.961-.215 2.882-2.421 3.519-6.944.33-9.409-2.74-2.122-7.63-.964-8.315 2.401-.378 1.865 2.575 2.679 3.189.793.567-1.715 2.93-1.243 3.496.193.662 1.693-.59 3.322-2.078 4.244-1.465.9-4.63 1.95-4.843-.536-.165-1.929 1.937-3.494 3.307-4.694.662-.579-.165-1.436-.921-1.093z"/><path d="m49.2578 141.169c-2.2289 9.866-1.3981 19.895 1.7223 29.477.2026.628 1.1954.345.9928-.263-3.2014-9.603-3.708-19.105-2.2491-29.072.0405-.304-.4052-.446-.466-.142z"/><path d="m51.1827 149.172c-1.0863 13.673 2.6851 26.669 10.9246 37.632.3484.473 1.1683 0 .7993-.472-8.3215-10.84-12.2158-23.528-11.3754-37.18 0-.206-.3485-.206-.3485.02z"/></g><path d="m85.0039 90.9062c-.1875.0782-.3437.1172-.4687.1172-.125.0157-.2657.0391-.4219.0704-.2188.0312-.3516.039-.3985.0234-.0312-.0156-.0625-.0313-.0937-.0469-.2188.0313-.3984.0469-.5391.0469-.125 0-.25 0-.375 0-.2187-.0156-.3593-.0234-.4218-.0234-.0469.0156-.1016.0234-.1641.0234s-.125-.0078-.1875-.0234c-.0469-.0157-.1016-.0235-.1641-.0235-.125.0313-.2187.0469-.2812.0469-.1406 0-.25-.0078-.3281-.0234-.25.0312-.4297.0234-.5391-.0235-.1094-.0312-.2031-.0312-.2813 0-.0625-.0312-.1718-.0625-.3281-.0937-.0625-.1407-.1015-.2266-.1172-.2578-.1093-.1563-.1797-.25-.2109-.2813-.0313-.0781-.0469-.1406-.0469-.1875.0156-.0469.0156-.0859 0-.1172-.0625-.25-.0781-.4531-.0469-.6094.0157-.1562.0391-.2968.0704-.4218.0156-.0625.0156-.1094 0-.1407 0-.0312 0-.0859 0-.164v-.3281c0-.1094-.0079-.1719-.0235-.1876-.0156-.0312-.0234-.0624-.0234-.0937.0312-.25.0469-.4375.0469-.5625s.0078-.2422.0234-.3516c.0156-.0468.0156-.0937 0-.1406 0-.0469 0-.0937 0-.1406.0156-.0781.0234-.1641.0234-.2578.0157-.0938.0157-.1875 0-.2813v-.5859c-.0156-.0938-.0234-.1484-.0234-.1641.0156-.0312.0234-.0703.0234-.1172 0-.0625-.0078-.1328-.0234-.2109 0-.0938 0-.1719 0-.2344v-.3281c0-.2187 0-.4141 0-.5859.0156-.1719.0156-.3438 0-.5157 0-.0781 0-.164 0-.2578 0-.0937.0078-.1797.0234-.2578.0157-.1562.0157-.2891 0-.3984 0-.1407 0-.2735 0-.3985 0-.1406-.0078-.2578-.0234-.3515-.0469-.2188-.0703-.3438-.0703-.375 0-.0625.0078-.125.0234-.1875s.0235-.125.0235-.1875v-.375c-.0157-.125-.0235-.2266-.0235-.3047.0156-.0781.0078-.1563-.0234-.2344.0312-.0469.0469-.1562.0469-.3281 0-.2188 0-.4063 0-.5625 0-.1719.0078-.3125.0234-.4219-.0469-.0469-.1328-.0859-.2578-.1172-.2031-.0781-.3828-.1172-.5391-.1172-.1406-.0156-.2656-.0547-.375-.1171-.0937-.0469-.1719-.1094-.2344-.1876-.0625-.0781-.1484-.125-.2578-.1406-.0312-.0468-.0859-.0937-.164-.1406-.0625-.0469-.1172-.1094-.1641-.1875-.0469-.0937-.0703-.1875-.0703-.2813-.0313-.0624-.0547-.1171-.0703-.164-.0156-.0625-.0156-.1484 0-.2578.0469-.1406.0703-.211.0703-.211.0156 0 .0391-.0156.0703-.0468.0469-.0938.0781-.1485.0938-.1641.0312-.0313.0468-.0625.0468-.0937.125-.125.1875-.1876.1875-.1876 0-.0156.0078-.0312.0235-.0468l.2109-.2578c.0625-.1094.1016-.1641.1172-.1641.0156-.0156.0234-.0391.0234-.0703.0625-.0781.1016-.1406.1172-.1875.0313-.0469.0625-.0938.0938-.1406.0625-.1094.0937-.1797.0937-.211.0156-.0312.0391-.0703.0703-.1172.0782-.0937.1172-.1484.1172-.164 0-.0313.0078-.0547.0235-.0703.1093-.2188.2031-.4219.2812-.6094.0156-.0469.0547-.1328.1172-.2578.0781-.125.1328-.2188.1641-.2813.1093-.125.164-.1875.164-.1875 0-.0156.0078-.0312.0235-.0468.2187-.0782.3593-.1172.4218-.1172.0782-.0157.1641-.0313.2578-.0469.125-.0313.211-.0469.2579-.0469.0781-.0156.1406-.0156.1875 0h.1171c.1563 0 .2344.0078.2344.0234 0 .0157.0078.0235.0235.0235.0625-.0156.1562-.0078.2812.0234h.1641c.0625-.0156.1172-.0234.164-.0234.0625 0 .1094.0078.1407.0234h.1406c.1406-.0156.2187-.0156.2344 0h.0703l.2812.0235c.1563.0156.2969.0078.4219-.0235.1562.0157.2734.0313.3516.0469.0781 0 .1484.0078.2109.0234.1094-.0156.1719-.0156.1875 0h.0703c.1719.0157.3047.0313.3984.0469.0938 0 .1563.0156.1875.0469.1094.1562.1719.2656.1875.3281.0157.0469.0391.0938.0704.1406.0312.0782.0546.1407.0703.1875.0312.0469.0547.086.0703.1172v.3282c-.0156.0781-.0313.1562-.0469.2343-.0156.0625-.0312.1328-.0469.211 0 .1875-.0078.289-.0234.3047v.0468l.0234.2578c-.0468.2032-.0703.3594-.0703.4688.0156.1094.0156.2109 0 .3047 0 .0781-.0078.1484-.0234.2109 0 .0625-.0078.1328-.0235.211-.0468.3124-.0703.5859-.0703.8203-.0312.2187-.0468.3437-.0468.375v.164c.0156.0313.0312.0703.0468.1172-.0156.1875-.0234.2891-.0234.3047.0156 0 .0234.0156.0234.0469-.0156.0781-.0234.1562-.0234.2343v.2344c.0156.1094.0156.1953 0 .2578v.1172c0 .125.0078.2188.0234.2813v.6562c.0157.1094.0157.2188 0 .3281v.3047.211c.0157.0469.0157.1015 0 .164v.2813c-.0156.1875-.0234.2812-.0234.2812 0 .1094.0078.211.0234.3047.0157.0938.0235.1953.0235.3047 0 .125-.0078.2578-.0235.3984-.0156.125-.0156.25 0 .375v.3282l.0235.2812c.0156.125.0234.2656.0234.4219v.4687c0 .1407.0156.2891.0469.4454 0 .0625-.0078.1172-.0235.164 0 .0469.0079.0938.0235.1406v.2579c.0156.1875.0312.3047.0469.3515.0156.0313.0312.0625.0468.0938.0157.0937.0157.1875 0 .2812-.0156.0938-.0156.1875 0 .2813l.0235.3281c0 .0469.0078.1016.0234.1641.0156.0468.0234.0859.0234.1171v.1641c0 .0469.0079.1016.0235.1641v.1406c.0156.0469.0234.1094.0234.1875v.2578c.0156.125.0156.1953 0 .2109v.0469c.0625.2188.086.3828.0703.4922 0 .0938.0078.1797.0235.2578.0156.0625.0234.1172.0234.1641.0156.0469.0313.1016.0469.164 0 .0938-.0078.1954-.0235.3047 0 .0938-.0156.1875-.0468.2813zm8.9297 0c-.1875.0782-.3438.1172-.4688.1172-.125.0157-.2656.0391-.4218.0704-.2188.0312-.3516.039-.3985.0234-.0312-.0156-.0625-.0313-.0937-.0469-.2188.0313-.3985.0469-.5391.0469-.125 0-.25 0-.375 0-.2187-.0156-.3594-.0234-.4219-.0234-.0468.0156-.1015.0234-.164.0234s-.125-.0078-.1875-.0234c-.0469-.0157-.1016-.0235-.1641-.0235-.125.0313-.2187.0469-.2812.0469-.1407 0-.25-.0078-.3282-.0234-.25.0312-.4296.0234-.539-.0235-.1094-.0312-.2031-.0312-.2813 0-.0625-.0312-.1718-.0625-.3281-.0937-.0625-.1407-.1016-.2266-.1172-.2578-.1094-.1563-.1797-.25-.2109-.2813-.0313-.0781-.0469-.1406-.0469-.1875.0156-.0469.0156-.0859 0-.1172-.0625-.25-.0781-.4531-.0469-.6094.0157-.1562.0391-.2968.0703-.4218.0157-.0625.0157-.1094 0-.1407 0-.0312 0-.0859 0-.164v-.3281c0-.1094-.0078-.1719-.0234-.1876-.0156-.0312-.0234-.0624-.0234-.0937.0312-.25.0468-.4375.0468-.5625s.0079-.2422.0235-.3516c.0156-.0468.0156-.0937 0-.1406 0-.0469 0-.0937 0-.1406.0156-.0781.0234-.1641.0234-.2578.0156-.0938.0156-.1875 0-.2813v-.5859c-.0156-.0938-.0234-.1484-.0234-.1641.0156-.0312.0234-.0703.0234-.1172 0-.0625-.0078-.1328-.0234-.2109 0-.0938 0-.1719 0-.2344v-.3281c0-.2187 0-.4141 0-.5859.0156-.1719.0156-.3438 0-.5157 0-.0781 0-.164 0-.2578 0-.0937.0078-.1797.0234-.2578.0156-.1562.0156-.2891 0-.3984 0-.1407 0-.2735 0-.3985 0-.1406-.0078-.2578-.0234-.3515-.0469-.2188-.0703-.3438-.0703-.375 0-.0625.0078-.125.0234-.1875s.0234-.125.0234-.1875v-.375c-.0156-.125-.0234-.2266-.0234-.3047.0156-.0781.0078-.1563-.0234-.2344.0312-.0469.0468-.1562.0468-.3281 0-.2188 0-.4063 0-.5625 0-.1719.0079-.3125.0235-.4219-.0469-.0469-.1328-.0859-.2578-.1172-.2032-.0781-.3828-.1172-.5391-.1172-.1406-.0156-.2656-.0547-.375-.1171-.0937-.0469-.1719-.1094-.2344-.1876-.0625-.0781-.1484-.125-.2578-.1406-.0312-.0468-.0859-.0937-.164-.1406-.0625-.0469-.1172-.1094-.1641-.1875-.0469-.0937-.0703-.1875-.0703-.2813-.0313-.0624-.0547-.1171-.0703-.164-.0157-.0625-.0157-.1484 0-.2578.0468-.1406.0703-.211.0703-.211.0156 0 .039-.0156.0703-.0468.0469-.0938.0781-.1485.0937-.1641.0313-.0313.0469-.0625.0469-.0937.125-.125.1875-.1876.1875-.1876 0-.0156.0078-.0312.0235-.0468l.2109-.2578c.0625-.1094.1016-.1641.1172-.1641.0156-.0156.0234-.0391.0234-.0703.0625-.0781.1016-.1406.1172-.1875.0313-.0469.0625-.0938.0938-.1406.0625-.1094.0937-.1797.0937-.211.0156-.0312.0391-.0703.0703-.1172.0781-.0937.1172-.1484.1172-.164 0-.0313.0078-.0547.0234-.0703.1094-.2188.2032-.4219.2813-.6094.0156-.0469.0547-.1328.1172-.2578.0781-.125.1328-.2188.164-.2813.1094-.125.1641-.1875.1641-.1875 0-.0156.0078-.0312.0234-.0468.2188-.0782.3594-.1172.4219-.1172.0781-.0157.1641-.0313.2578-.0469.125-.0313.211-.0469.2578-.0469.0782-.0156.1407-.0156.1875 0h.1172c.1563 0 .2344.0078.2344.0234 0 .0157.0078.0235.0234.0235.0625-.0156.1563-.0078.2813.0234h.1641c.0625-.0156.1171-.0234.164-.0234.0625 0 .1094.0078.1406.0234h.1407c.1406-.0156.2187-.0156.2343 0h.0704l.2812.0235c.1563.0156.2969.0078.4219-.0235.1562.0157.2734.0313.3515.0469.0782 0 .1485.0078.211.0234.1094-.0156.1719-.0156.1875 0h.0703c.1719.0157.3047.0313.3984.0469.0938 0 .1563.0156.1875.0469.1094.1562.1719.2656.1875.3281.0157.0469.0391.0938.0703.1406.0313.0782.0547.1407.0704.1875.0312.0469.0546.086.0703.1172v.3282c-.0157.0781-.0313.1562-.0469.2343-.0156.0625-.0313.1328-.0469.211 0 .1875-.0078.289-.0234.3047v.0468l.0234.2578c-.0469.2032-.0703.3594-.0703.4688.0156.1094.0156.2109 0 .3047 0 .0781-.0078.1484-.0234.2109 0 .0625-.0078.1328-.0235.211-.0468.3124-.0703.5859-.0703.8203-.0312.2187-.0469.3437-.0469.375v.164c.0157.0313.0313.0703.0469.1172-.0156.1875-.0234.2891-.0234.3047.0156 0 .0234.0156.0234.0469-.0156.0781-.0234.1562-.0234.2343v.2344c.0156.1094.0156.1953 0 .2578v.1172c0 .125.0078.2188.0234.2813v.6562c.0156.1094.0156.2188 0 .3281v.3047.211c.0156.0469.0156.1015 0 .164v.2813c-.0156.1875-.0234.2812-.0234.2812 0 .1094.0078.211.0234.3047.0156.0938.0235.1953.0235.3047 0 .125-.0079.2578-.0235.3984-.0156.125-.0156.25 0 .375v.3282l.0235.2812c.0156.125.0234.2656.0234.4219v.4687c0 .1407.0156.2891.0469.4454 0 .0625-.0078.1172-.0235.164 0 .0469.0078.0938.0235.1406v.2579c.0156.1875.0312.3047.0468.3515.0157.0313.0313.0625.0469.0938.0156.0937.0156.1875 0 .2812-.0156.0938-.0156.1875 0 .2813l.0235.3281c0 .0469.0078.1016.0234.1641.0156.0468.0234.0859.0234.1171v.1641c0 .0469.0078.1016.0235.1641v.1406c.0156.0469.0234.1094.0234.1875v.2578c.0156.125.0156.1953 0 .2109v.0469c.0625.2188.0859.3828.0703.4922 0 .0938.0078.1797.0235.2578.0156.0625.0234.1172.0234.1641.0156.0469.0312.1016.0469.164 0 .0938-.0078.1954-.0235.3047 0 .0938-.0156.1875-.0468.2813zm1.125.2344c.0625-.2031.0937-.3203.0937-.3515.0938-.1563.1329-.2344.1172-.2344 0-.0156.0078-.0391.0235-.0703.1875-.3282.375-.586.5625-.7735 0-.0781.0156-.1406.0468-.1875.0469-.0468.086-.0859.1172-.1172.0782-.125.1094-.1953.0938-.2109 0-.0156.0078-.0312.0234-.0469l.1641-.2109c.0625-.1406.1328-.2344.2109-.2813.0625-.1718.1016-.2578.1172-.2578.0156-.0156.0234-.0312.0234-.0468.0938-.125.1485-.2032.1641-.2344.0313-.0313.0625-.0625.0938-.0938.0625-.1406.125-.2578.1875-.3515.0937-.1719.1718-.2891.2343-.3516.1094-.1562.1641-.25.1641-.2812 0-.0469.0156-.086.0469-.1172.1406-.1719.2422-.3203.3047-.4453.0781-.1563.1171-.2344.1171-.2344.0157 0 .0313-.0078.0469-.0234.0469-.1719.086-.2735.1172-.3047.0469-.125.0859-.2032.1172-.2344.0469-.0469.0859-.0859.1172-.1172.0625-.1406.1015-.2187.1172-.2344.0156-.0156.0312-.039.0468-.0703.0625-.0937.1016-.164.1172-.2109.0157-.0469.0391-.0938.0703-.1407.1094-.1406.1641-.2187.1641-.2343 0-.0313.0078-.0547.0234-.0703.1094-.1719.1641-.2657.1641-.2813s.0078-.0312.0234-.0469c-.0156-.1875-.0625-.3125-.1406-.375-.0625-.1406-.1094-.2109-.1406-.2109-.0156-.0156-.0313-.0391-.0469-.0703-.0312-.1094-.0625-.1875-.0937-.2344-.0313-.0469-.0625-.0859-.0938-.1172-.0625-.1094-.1172-.1797-.164-.2109-.0313-.0469-.0625-.0938-.0938-.1406-.0781-.1094-.1172-.1719-.1172-.1875 0-.0157-.0078-.0313-.0234-.0469-.0781-.0938-.125-.1485-.1406-.1641 0-.0312-.0079-.0547-.0235-.0703l-.2109-.3515c-.0625-.0938-.1094-.1407-.1406-.1407-.0157-.0156-.0313-.039-.0469-.0703-.1094-.1719-.1719-.2578-.1875-.2578-.0156-.0156-.0313-.0312-.0469-.0469-.0625-.0781-.1172-.1562-.1641-.2343-.0468-.0782-.1015-.1485-.164-.211-.0313-.1094-.0781-.1953-.1406-.2578-.0938-.0938-.1407-.1484-.1407-.1641 0-.0156-.0078-.039-.0234-.0703-.1094-.1562-.1641-.2422-.1641-.2578s-.0156-.0312-.0468-.0469c-.0313-.0625-.0704-.1171-.1172-.164-.0313-.0469-.0625-.0938-.0938-.1407-.1094-.125-.1719-.1874-.1875-.1874s-.0234-.0079-.0234-.0235c-.0625-.125-.1016-.1875-.1172-.1875-.0156-.0156-.0391-.039-.0703-.0703l-.1172-.2578c-.0781-.1563-.1172-.2422-.1172-.2578-.0625-.0313-.1094-.0703-.1406-.1172-.0156-.0625-.0547-.1016-.1172-.1172-.0156-.0469-.0313-.0859-.0469-.1172-.0156-.0469-.039-.0937-.0703-.1406-.0781-.1094-.125-.1875-.1406-.2344-.0156-.0625-.0469-.1094-.0938-.1406-.0312-.1563-.0625-.2969-.0937-.4219-.0313-.1562-.0391-.2344-.0235-.2344 0-.0156.0079-.039.0235-.0703l.164-.164c0-.0157.0079-.0235.0235-.0235.0625-.0156.125-.0156.1875 0 .0625 0 .125-.0078.1875-.0234.1719-.0156.2656-.0156.2812 0h.0938c.1875-.0156.2969-.0234.3281-.0234.0469-.0157.1094-.0157.1875 0 .1094 0 .1719.0078.1875.0234h.0938c.125 0 .1953.0078.2109.0234h.0703c.125-.0156.2031-.0156.2344 0h.1406.3281c.0469-.0156.086-.0234.1172-.0234.1719.0156.2735.0234.3047.0234.0313-.0156.0703-.0234.1172-.0234.1406.0156.2266.0234.2578.0234.0469-.0156.0938-.0234.1406-.0234h.2578c.1875-.0469.3438-.0625.4688-.0469.1406 0 .25.0391.3281.1172.0781-.0156.125-.0078.1406.0234.0313.0313.0782.0547.1407.0703.0315.0782.0625.1485.0935.211.047.0625.078.1328.094.2109.141.1563.219.25.234.2813.032.0312.063.0625.094.0937.063.1563.109.2657.141.3281.078.1407.125.2344.14.2813.032.0469.055.0937.071.1406.047.0781.078.1563.093.2344.016.0781.039.1641.071.2578.062.1406.101.2344.117.2813.031.0312.062.0625.094.0937.125.1875.211.3281.257.4219.188.1094.297.125.329.0469.046-.0782.093-.125.14-.1407.078-.1875.141-.2968.188-.3281.078-.1562.117-.2422.117-.2578s.016-.0156.047 0c-.031-.0781-.024-.1328.023-.1641.063-.0312.086-.0859.071-.164l.14-.2344c.047-.0781.094-.1562.141-.2344.047-.0781.094-.1562.14-.2344.032-.0468.055-.0859.071-.1171.031-.0469.047-.0938.047-.1407.109-.125.164-.2109.164-.2578.015-.0468.047-.0781.093-.0937.032-.0938.047-.1563.047-.1875.016-.0469.039-.086.071-.1172.093-.1563.148-.2266.164-.211.031 0 .039-.0156.023-.0468.125-.0469.195-.0782.211-.0938s.039-.0312.07-.0468c.188-.0157.297-.0313.328-.0469.047-.0313.086-.0469.118-.0469.109 0 .211-.0078.304-.0234.094-.0157.18-.0235.258-.0235.141.0313.211.0469.211.0469.016-.0156.031-.0234.047-.0234.156.0312.25.0468.281.0468.047-.0156.086-.0234.117-.0234.188.0156.297.0312.329.0469h.093c.141-.0157.235-.0157.282 0 .062 0 .132-.0078.21-.0235h.61c.094.0157.195.0157.305 0 .078 0 .156.0078.234.0235.078.0156.156.0234.234.0234s.141.0078.188.0235c.062 0 .133-.0079.211-.0235.125.1094.195.1719.211.1875.015 0 .031.0156.047.0469.015.1875.015.3047 0 .3515-.016.0313-.032.0626-.047.0938-.078.1719-.133.2891-.164.3516-.032.0468-.071.0937-.118.1406-.046.0781-.101.1484-.164.2109-.062.0625-.093.1328-.093.211-.094.0625-.164.1484-.211.2578-.11.1406-.164.2187-.164.2343l-.188.1876c-.031.0937-.055.1562-.07.1874-.016.0157-.031.0391-.047.0704-.094.125-.141.1953-.141.2109.016 0 .008.0078-.023.0234-.094.1563-.156.25-.188.2813l-.14.2344c-.047.0625-.071.1093-.071.1406 0 .0312-.015.0625-.046.0937-.063.0313-.102.0782-.118.1407-.015.0625-.054.1093-.117.1406 0 .0625-.015.1094-.047.1406-.031.0313-.054.086-.07.1641-.109.1093-.164.1797-.164.2109 0 .0313-.008.0625-.024.0938-.062.0625-.101.1093-.117.1406-.015.0156-.039.039-.07.0703-.063.0781-.102.1328-.117.1641 0 .0156-.016.039-.047.0703-.094.125-.156.2109-.188.2578-.109.1875-.187.3047-.234.3515-.031.0469-.062.0938-.094.1407-.125.1875-.211.3047-.258.3515-.031.0469-.062.0938-.093.1407-.032.0312-.055.0703-.071.1171-.156.1563-.242.2579-.257.3047-.016.0469-.055.086-.118.1172-.031.0781-.078.1485-.14.211-.047.0468-.086.1093-.117.1875.062.1875.101.2968.117.3281.015.0156.031.0391.047.0703.047.1094.086.1719.117.1875s.055.0391.07.0703c.078.2031.149.3438.211.4219.063.0625.109.1406.141.2344.031.0312.062.0625.093.0937.032.0313.063.0625.094.0938.047.0937.102.1718.164.2343.063.125.11.2032.141.2344.031.0313.062.0625.094.0938.015.0312.031.0703.047.1171.031.0313.062.0704.093.1172.11.1094.18.1954.211.2578.031.0469.063.0938.094.1407.125.1875.203.3047.234.3515.032.0313.063.0704.094.1172.047.1406.094.2266.141.2578.093.1094.133.1719.117.1875 0 .0157.016.0313.047.0469.094.1406.14.2188.14.2344 0 0 .008.0078.024.0234.094.0938.164.1797.211.2578.094.1407.172.2422.234.3047.047.1094.11.1953.188.2578s.132.1485.164.2579c.047.0624.117.1406.211.2343.14.1875.25.336.328.4453.078.1094.156.2032.234.2813.078.1719.117.2734.117.3047.016.0312.032.0625.047.0937-.015.1875-.015.3047 0 .3516.016.0312.024.0703.024.1172-.188.0937-.305.1484-.352.164-.031.0157-.078.0157-.141 0-.031 0-.078-.0078-.14-.0234-.063 0-.117 0-.164 0-.156-.0156-.258-.0234-.305-.0234-.187-.0313-.297-.0469-.328-.0469-.094 0-.164.0078-.211.0234s-.086.0235-.117.0235c-.047 0-.102-.0079-.164-.0235-.047-.0156-.094-.0312-.141-.0468-.047.0156-.101.0156-.164 0-.062-.0157-.109-.0235-.141-.0235-.093 0-.218 0-.375 0-.14.0156-.25.0235-.328.0235-.187-.0157-.304-.0157-.351 0-.047.0156-.086.0234-.117.0234-.188 0-.321.0078-.399.0234-.078.0313-.164.0313-.258 0-.156-.0937-.25-.1406-.281-.1406-.016-.0156-.047-.0234-.094-.0234-.125-.1094-.203-.1719-.234-.1875-.016-.0157-.023-.0391-.023-.0703-.079-.0626-.133-.1485-.165-.2579-.031-.1093-.085-.1953-.164-.2578-.015-.0625-.039-.1093-.07-.1406-.031-.0469-.062-.0937-.094-.1406-.093-.1407-.148-.211-.164-.211 0-.0156 0-.0312 0-.0468-.078-.125-.125-.1875-.14-.1875 0-.0157-.008-.0391-.024-.0704-.125-.1093-.187-.164-.187-.164.015-.0156.015-.0313 0-.0469-.078-.0937-.164-.2031-.258-.3281-.141-.1563-.219-.2578-.234-.3047-.079-.1094-.125-.1797-.141-.2109 0-.0313-.016-.0625-.047-.0938-.031-.0312-.062-.0625-.094-.0937-.031-.0313-.07-.0625-.117-.0938-.094.1406-.156.2656-.187.375-.094.125-.149.2031-.164.2344 0 .0156-.016.0234-.047.0234-.063.125-.102.2031-.118.2344 0 .0156-.007.0391-.023.0703-.141.2188-.25.3906-.328.5156-.063.1094-.133.2032-.211.2813-.016.0625-.039.125-.07.1875-.016.0469-.039.1016-.071.164-.062.1407-.101.2266-.117.2579 0 .0156-.008.0312-.023.0468-.125.1875-.196.3203-.211.3985 0 .0781-.016.1328-.047.164-.1876.0625-.2813.1016-.2813.1172.0156.0313.0078.0469-.0235.0469-.1562.0313-.3125.0391-.4687.0234-.1407-.0156-.2735-.0234-.3985-.0234-.1406 0-.2812 0-.4218 0-.1407.0156-.2735.0234-.3985.0234-.0469 0-.1015 0-.164 0-.0469 0-.086-.0078-.1172-.0234-.1719-.0313-.2578-.0391-.2578-.0234 0 .0312-.0157.0468-.0469.0468-.0469.0157-.1016.0079-.1641-.0234-.0469-.0156-.0859-.0234-.1172-.0234-.0781 0-.1562.0078-.2343.0234-.0625.0156-.1485.0234-.2579.0234h-.4921c-.1875.0157-.2891.0157-.3047 0 0 0-.0157 0-.0469 0-.1719.0157-.2969.0157-.375 0-.0781-.0156-.1563-.0156-.2344 0zm14.5314-2.9765c0-.1875.015-.2969.047-.3282.125-.125.195-.1953.211-.2109.031-.0312.062-.0391.093-.0234.032-.0625.071-.1094.118-.1407.046-.0468.093-.0859.14-.1171.078-.0782.172-.1407.281-.1876.032-.0624.079-.0937.141-.0937.063-.0156.109-.0547.141-.1172.062 0 .117-.0078.164-.0234.047-.0313.086-.0625.117-.0938.047-.0312.086-.0547.117-.0703.047-.0312.094-.0625.141-.0937.031-.0313.062-.0625.094-.0938.031-.0312.062-.0625.093-.0937.157-.1094.242-.1641.258-.1641s.031-.0078.047-.0234c.156-.1094.25-.1797.281-.211.172-.0781.266-.1172.281-.1172.032-.0156.063-.0312.094-.0468.156-.0782.258-.1172.305-.1172.141-.0469.211-.0703.211-.0703 0-.0157.008-.0313.023-.0469.219-.0625.352-.0938.399-.0938.172.1094.273.1797.304.211.032.0156.047.039.047.0703.078.0312.133.0703.164.1172.032.0312.086.0547.164.0703.141.1562.227.25.258.2812.031.0313.063.0625.094.0938.187.1094.312.1641.375.1641.062 0 .117.0234.164.0703l.352.0937c.093.0156.171.0313.234.0469.062 0 .125.0078.187.0234.079-.0312.157-.0469.235-.0469.078-.0156.156-.039.234-.0703.125-.0312.227-.0625.305-.0937.172-.0469.312-.1172.422-.211.031-.0312.062-.0703.094-.1171.046-.0469.085-.0938.117-.1407.078-.125.125-.1875.14-.1875.016-.0156.032-.0312.047-.0468.047-.125.078-.211.094-.2579.078-.2187.133-.3437.164-.375.016-.0937.023-.1953.023-.3046.016-.125.016-.2344 0-.3282-.015-.0625-.039-.125-.07-.1875-.015-.0625-.039-.1171-.07-.164-.094-.1719-.149-.2813-.164-.3281 0-.0626-.016-.1172-.047-.1641-.047-.0781-.102-.1406-.164-.1875-.063-.0625-.117-.1328-.164-.211-.141-.0781-.235-.1171-.281-.1171l-.329-.0703c-.218-.0469-.461-.0469-.726 0l-.305.0468-.281.0938c-.094.0625-.18.0937-.258.0937-.141.1094-.219.1641-.234.1641-.016-.0156-.032-.0156-.047 0-.172.125-.281.2187-.328.2812-.032.0469-.086.0782-.164.0938-.125.0937-.196.1484-.211.164-.125.0626-.227.086-.305.0704-.062-.0157-.141-.0235-.234-.0235-.078 0-.149.0078-.211.0235-.063.0156-.133.0078-.211-.0235-.11-.0625-.203-.0937-.281-.0937-.079-.0156-.157-.0391-.235-.0703-.031-.0157-.078-.0313-.14-.0469-.063-.0313-.11-.0625-.141-.0938-.125-.0468-.219-.0937-.281-.1406-.063-.0469-.141-.0859-.235-.1172-.234-.0625-.414-.1328-.539-.2109-.094-.0313-.164-.0547-.211-.0703-.047-.0313-.109-.0547-.187-.0703-.156-.0625-.258-.0938-.305-.0938-.031 0-.078-.0078-.141-.0234-.125-.0469-.203-.086-.234-.1172-.156-.0313-.242-.0547-.258-.0703l-.258-.0938c-.093-.0937-.14-.1562-.14-.1875 0-.0469 0-.1093 0-.1875 0-.0468 0-.0937 0-.1406.015-.0469.023-.0859.023-.1172-.015-.1562-.015-.2344 0-.2344.016-.0156.024-.039.024-.0703-.016-.125-.016-.2187 0-.2812.015-.0625.015-.1328 0-.211 0-.0937-.008-.1875-.024-.2812 0-.1094 0-.2109 0-.3047v-1.0078c-.015-.1719-.023-.3125-.023-.4219.015-.125.015-.2422 0-.3515 0-.0626-.008-.1094-.024-.1407-.015-.0469-.023-.0937-.023-.1406s0-.1016 0-.1641c.016-.0625.023-.1406.023-.2343-.031-.0938-.031-.2032 0-.3282-.015-.0781-.023-.1406-.023-.1875.016-.0625.023-.1093.023-.1406l.024-.3047c-.031-.1093-.047-.2343-.047-.375 0-.1406 0-.289 0-.4453.016-.1562.016-.25 0-.2812-.016-.0469-.008-.086.023-.1172-.031-.0782-.039-.1485-.023-.211.016-.0781.023-.1562.023-.2343-.031-.1407-.039-.211-.023-.211.016-.0156.023-.0312.023-.0469-.015-.2031-.031-.3671-.046-.4921 0-.125 0-.25 0-.375 0-.1563.015-.2969.046-.4219.094-.1563.157-.25.188-.2813.047-.0312.078-.0703.094-.1171.203-.0782.312-.1329.328-.1641.109-.0469.179-.0625.211-.0469h.093.211c.079-.0156.141-.0078.188.0234.047-.0156.101-.0234.164-.0234.062 0 .102-.0156.117-.0469.125.0157.242.0235.352.0235h.351c.157 0 .258.0078.305.0234.047 0 .086.0078.117.0234.11 0 .219-.0078.328-.0234.11-.0156.227-.0234.352-.0234.047 0 .094.0078.14.0234h.141c.047 0 .094.0078.141.0234h.164c.125.0157.25.0235.375.0235.14-.0156.289-.0156.445 0h.164c.078 0 .141.0156.188.0469.047-.0313.117-.0469.211-.0469h.257.282c.187 0 .297.0234.328.0703h.258c.062-.0156.117-.0156.164 0h.14.258c.266.0312.445.0469.539.0469.094-.0157.195-.0235.305-.0235.172.0313.273.0391.305.0235.046-.0157.085-.0235.117-.0235.156.0157.281.0078.375-.0234h.351c.063-.0156.125-.0234.188-.0234.078-.0157.148-.0235.211-.0235h.211c.093-.0156.179-.0234.257-.0234.094-.0156.204-.0235.329-.0235.156 0 .234-.0078.234-.0234.016-.0156.031-.0234.047-.0234.156-.0156.281-.0235.375-.0235.109-.0156.226-.0312.351-.0468.141-.0157.258-.0235.352-.0235.109-.0156.219.0156.328.0938.125.1094.188.2187.188.3281.015.125.023.2266.023.3047v.164.2579c.016.1718.016.2812 0 .3281 0 .0469.016.0859.047.1172 0 .2812.016.5859.047.914v.3516c.015.0312.023.0781.023.1406v.4922c-.015.0625-.031.125-.047.1875 0 .0469.016.1094.047.1875-.047.1094-.07.2188-.07.3281.016.1094.016.2188 0 .3282-.063.125-.117.2109-.164.2578-.031.0469-.086.0703-.164.0703-.047 0-.094-.0078-.141-.0234-.047-.0313-.101-.0547-.164-.0704-.109.0157-.187.0157-.234 0-.032-.0312-.063-.0468-.094-.0468-.047-.0157-.094-.0157-.141 0-.031 0-.07-.0078-.117-.0235-.109-.0469-.203-.0703-.281-.0703-.063-.0156-.125-.039-.188-.0703-.078-.0313-.156-.0547-.234-.0703-.062-.0156-.125-.0391-.187-.0703-.125-.0313-.204-.0469-.235-.0469-.015 0-.047-.0078-.094-.0234-.156-.0469-.257-.0782-.304-.0938-.094 0-.172 0-.235 0-.047-.0156-.093-.0156-.14 0-.063-.0312-.219-.0469-.469-.0469-.047 0-.094 0-.141 0-.047-.0156-.101-.0234-.164-.0234-.265.0156-.453.0234-.562.0234-.11 0-.219-.0078-.328-.0234-.188.0156-.305.0313-.352.0469-.047 0-.094 0-.141 0-.156 0-.242-.0156-.257-.0469-.172.0313-.344.0469-.516.0469s-.359.0078-.562.0234c-.172 0-.274.0078-.305.0234-.031 0-.063 0-.094 0-.062 0-.133.0157-.211.0469-.062.0157-.133.0157-.211 0-.031.0469-.054.1016-.07.1641 0 .0625-.008.125-.024.1875-.031.125-.046.2422-.046.3515v.2813c.015.0781.015.1563 0 .2344-.016.0625-.016.1328 0 .2109v.1875c.015.0625.023.1172.023.1641 0 .0781-.008.1484-.023.2109 0 .0469.007.1094.023.1875.094-.0156.156-.0234.188-.0234.031 0 .062-.0078.093-.0235.188-.0937.289-.1406.305-.1406.047-.0156.094-.0312.141-.0469.046-.0156.093-.0312.14-.0468.219-.0625.352-.1016.399-.1172.218 0 .39-.0078.515-.0235.125-.0156.235-.0312.328-.0468.25-.0157.43-.0313.539-.0469.11-.0313.227-.0469.352-.0469.234 0 .406.0313.516.0938.093.0156.164.0234.211.0234.062 0 .117.0156.164.0469.093 0 .164.0078.211.0234.046.0156.086.0313.117.0469.172.0625.265.0937.281.0937.172.0469.273.0704.305.0704.031 0 .062.0078.093.0234.157.0781.25.1172.282.1172.031 0 .062.0078.093.0234.141.0781.235.125.282.1406.047 0 .093.0157.14.0469.203.1406.344.2188.422.2344.094.125.141.1953.141.2109s.015.0391.047.0703c.031.0313.07.0625.117.0938.047.0312.078.0781.094.1406.047.0156.086.0391.117.0703.047.0313.101.0625.164.0938.078.1094.133.1875.164.2344.109.125.18.2031.211.2343.047.0938.078.1485.094.1641.031 0 .062.0156.093.0469.063.1718.102.2812.118.3281.015.0312.023.0625.023.0937.031.0313.055.0703.07.1172.032.0469.063.086.094.1172.094.1406.164.2735.211.3985.031.0937.055.1562.07.1874.032.0157.055.0391.071.0704.062.1718.086.2656.07.2812 0 .0156.008.0391.023.0703.079.2031.118.3516.118.4453.015.0782.039.1485.07.211.031.0781.047.1484.047.2109.015.0625.039.1328.07.2109.047.1563.086.2813.117.375-.015.0782-.015.1641 0 .2579.016.0937.016.1797 0 .2578v.164c0 .0469.016.086.047.1172-.031.0781-.047.1953-.047.3516 0 .1406-.039.2422-.117.3047 0 .0781-.008.1562-.023.2344 0 .0624-.008.1328-.024.2109l-.07.3515c-.063.1719-.109.3047-.141.3985-.062.1562-.109.2422-.14.2578-.016 0-.032.0156-.047.0469-.063.1406-.11.2344-.141.2812-.015.0469-.039.086-.07.1172 0 .0625-.024.1094-.07.1406-.047.0313-.086.0704-.118.1172-.047.125-.086.2032-.117.2344-.031.0156-.031.0391 0 .0703-.094.0781-.156.1485-.187.2109-.016.0469-.039.086-.071.1172-.109.1094-.179.1719-.211.1875-.015 0-.031.0079-.046.0235-.125.1406-.188.2109-.188.2109-.031.0313-.07.0703-.117.1172-.047.0313-.086.0625-.117.0937-.125.125-.203.1797-.235.1641-.031.0313-.07.0703-.117.1172-.031.0469-.062.0859-.094.1172-.078.0469-.132.0859-.164.1172-.015.0312-.047.0469-.093.0469-.141.0937-.219.1562-.235.1874-.015.0313-.039.0547-.07.0704-.125.0468-.195.0703-.211.0703s-.031.0078-.047.0234c-.125.0938-.195.1485-.211.1641-.156.0625-.266.1094-.328.1406-.063.0156-.133.0391-.211.0703-.078.0313-.156.0469-.234.0469-.078.0156-.157.0312-.235.0469-.047.0156-.093.0312-.14.0468-.032.0157-.071.0313-.118.0469-.14 0-.242.0078-.304.0234-.188.0313-.297.0547-.328.0704-.032.0156-.063.0234-.094.0234-.234-.0312-.406-.0312-.516 0-.109.0312-.203.0312-.281 0-.031 0-.125 0-.281 0-.297-.0312-.516-.0469-.656-.0469-.125 0-.25-.0156-.375-.0469-.141-.0781-.235-.1171-.282-.1171-.156-.0157-.242-.0313-.258-.0469 0-.0156-.015-.0234-.046-.0234-.172-.0626-.289-.1016-.352-.1172-.047-.0157-.094-.0313-.141-.0469-.046-.0156-.101-.0235-.164-.0235-.047-.0156-.093-.0312-.14-.0468-.094-.0625-.164-.1016-.211-.1172-.031-.0313-.063-.0547-.094-.0703-.109-.0313-.195-.0625-.258-.0938-.031-.0312-.07-.0547-.117-.0703s-.086-.039-.117-.0703c-.078-.0156-.141-.0313-.188-.0469-.031-.0312-.078-.0547-.14-.0703-.157-.0781-.274-.1328-.352-.1641-.203-.125-.375-.2187-.515-.2812-.125-.1094-.188-.1719-.188-.1875-.094-.0781-.148-.1172-.164-.1172s-.039-.0156-.07-.0469c-.11-.125-.188-.1953-.235-.2109-.031-.0156-.062-.0313-.093-.0469-.047-.0312-.086-.0625-.118-.0937-.031-.0313-.062-.0625-.093-.0938-.157-.125-.258-.2109-.305-.2578-.047-.0625-.094-.125-.141-.1875-.031-.0312-.062-.0625-.093-.0937-.016-.0469-.047-.086-.094-.1172-.031-.1407-.071-.211-.117-.211-.047 0-.079-.0156-.094-.0468zm23.109-9.3047c.141.0937.211.1484.211.164.11.0625.172.1094.188.1407.031.0156.047.039.047.0703-.016.1406-.016.25 0 .3281.015.0625.007.1094-.024.1406-.047.1407-.07.2344-.07.2813.015.0312.015.0625 0 .0937 0 .0625-.008.1172-.024.1641v.164.2813.1406c.016.0313.024.0781.024.1407.031.1406.039.2343.023.2812 0 .0469.016.0938.047.1406-.031.0782-.047.1641-.047.2578 0 .0782-.023.1485-.07.211-.109.0625-.172.0781-.188.0468 0-.0312-.023-.039-.07-.0234-.109.0313-.219.0391-.328.0234-.094-.0156-.211-.0234-.352-.0234-.156 0-.273 0-.351 0-.063-.0156-.125-.0234-.188-.0234l-.75-.0235c-.172 0-.257 0-.257 0-.11 0-.227.0079-.352.0235-.109 0-.219 0-.328 0-.141-.0156-.235-.0156-.281 0-.032 0-.063 0-.094 0-.078 0-.149.0078-.211.0234-.063 0-.125 0-.188 0-.109-.0156-.211-.0156-.304 0-.078.0156-.149.0156-.211 0l-.399.0234c-.015.0157-.054.0235-.117.0235-.047 0-.101 0-.164 0-.094.0156-.195.0234-.305.0234-.203.0157-.343.0235-.421.0235-.063-.0157-.133-.0235-.211-.0235-.141 0-.227 0-.258 0-.031-.0156-.063-.0234-.094-.0234-.172-.0156-.273-.0235-.305-.0235-.031-.0156-.086-.0156-.164 0-.156-.0156-.281-.0234-.375-.0234-.093 0-.179 0-.258 0-.062 0-.125.0078-.187.0234-.047 0-.109 0-.188 0-.109.0313-.21.0469-.304.0469-.078 0-.156 0-.235 0-.14 0-.226.0078-.257.0235-.016 0-.039-.0078-.071-.0235-.234-.0625-.367-.1015-.398-.1172-.094-.0937-.141-.1484-.141-.164 0-.0313-.008-.0625-.023-.0938-.063-.1719-.11-.2734-.141-.3047-.015-.0312-.023-.0625-.023-.0937-.032-.0781-.039-.1563-.024-.2344.016-.0937.024-.1875.024-.2812 0-.1719-.008-.336-.024-.4922 0-.1563.008-.3125.024-.4688.031-.0937.047-.1797.047-.2578-.016-.1406-.008-.2265.023-.2578.063-.1094.102-.1719.117-.1875.031-.0156.071-.0391.117-.0703.157-.0469.243-.0703.258-.0703.031-.0156.055-.0235.071-.0235.14-.0156.242 0 .304.0469.156 0 .305-.0078.446-.0234.156-.0313.312-.0391.468-.0235.047 0 .094.0079.141.0235h.187c.125.0156.211.0234.258.0234.047-.0156.086-.0234.117-.0234.172-.0156.258-.0156.258 0h.071c.281.0156.484.0156.609 0 .125-.0313.234-.0156.328.0468.188-.0156.297-.0234.328-.0234s.063.0156.094.0469c.156 0 .242.0078.258.0234h.047c.187.0157.296.0235.328.0235.047-.0157.101-.0157.164 0 .078 0 .133.0078.164.0234h.094.257.164c.047-.0156.086-.0234.118-.0234.187.0156.304.0234.351.0234.047-.0156.094-.0234.141-.0234h.469c.093-.0157.195-.0235.304-.0235h.188c.078-.0156.14-.0234.187-.0234.078-.0156.157-.0156.235 0s.156.0156.234 0c.172-.0156.289-.0313.352-.0469.078-.0156.148-.0234.211-.0234.031.0156.07.0234.117.0234.062 0 .109.0078.14.0234.125 0 .196.0079.211.0235h.047zm.492 5.3203-.046.2812v.3282c0 .1093.007.1875.023.2343.031.0313.055.0625.07.0938-.015.0625-.023.1172-.023.164 0 .0313.008.0704.023.1172-.015.2032-.031.336-.047.3985 0 .0469-.015.1093-.046.1875-.079 0-.157.0078-.235.0234s-.156.0234-.234.0234c-.047 0-.094-.0078-.141-.0234s-.094-.0234-.14-.0234c-.047 0-.094 0-.141 0s-.109-.0078-.188-.0235c-.046 0-.093 0-.14 0-.047-.0156-.094-.0234-.141-.0234-.078 0-.156.0156-.234.0469-.063.0156-.133.0234-.211.0234s-.18-.0156-.305-.0469c-.14-.0156-.281-.0156-.422 0-.125.0157-.25.0313-.375.0469-.156.0313-.336.0469-.539.0469-.203-.0156-.398-.0156-.586 0-.078 0-.148.0078-.211.0234-.062 0-.132.0078-.211.0235-.078 0-.156.0078-.234.0234-.062 0-.133 0-.211 0-.078-.0156-.148-.0312-.211-.0469-.062-.0156-.133-.0234-.211-.0234-.125-.0156-.242-.0156-.351 0-.078 0-.164.0078-.258.0234-.078.0157-.156.0157-.235 0-.156-.0469-.242-.0703-.257-.0703-.188.0625-.305.0938-.352.0938-.047-.0157-.086-.0235-.117-.0235-.078 0-.149.0078-.211.0235-.047.0156-.094.0234-.141.0234-.078.0156-.156.0156-.234 0-.063-.0156-.133-.0234-.211-.0234-.109 0-.203 0-.281 0-.063 0-.125 0-.188 0l-.492-.0469c-.141.0312-.242.0391-.305.0234l-.468-.1875c-.094-.125-.141-.2031-.141-.2344-.047-.0781-.07-.1406-.07-.1874.015-.0469.015-.086 0-.1172l-.024-.4219c-.015-.1094-.031-.2188-.047-.3281 0-.125 0-.2422 0-.3516-.015-.1719-.015-.2969 0-.375-.031-.125-.031-.2344 0-.3281l.071-.2578c.031-.0938.054-.1485.07-.1641.031-.0156.055-.0391.07-.0703.188-.0313.289-.0547.305-.0703s.039-.0313.07-.0469c.063-.0156.133-.0156.211 0s.133.0234.164.0234c.141-.0312.227-.039.258-.0234h.094c.234.0156.437.0234.609.0234.11.0157.211.0235.305.0235.109-.0156.211-.0156.305 0 .172.0312.265.039.281.0234s.039-.0234.07-.0234c.047 0 .102.0078.164.0234h.164.118c.046-.0156.093-.0234.14-.0234h.281c.11 0 .188.0078.235.0234h.187c.125-.0156.196-.0156.211 0 .031 0 .055-.0156.071-.0469.062.0313.125.0469.187.0469.063 0 .117.0078.164.0234h.375c.078 0 .156.0079.234.0235.079 0 .157.0078.235.0234h.492.703.563c.172-.0156.297-.0234.375-.0234.078-.0156.14-.0235.187-.0235.078-.0156.156-.0234.235-.0234h.257c.157-.0156.282-.0234.375-.0234h.305c.047 0 .094.0078.141.0234h.117c.172.0625.258.0938.258.0938.015 0 .031.0078.047.0234.078.1406.117.2188.117.2344.015.0156.023.0312.023.0468-.031.0938-.047.1563-.047.1876.016.0312.024.0624.024.0937-.047.1719-.078.2734-.094.3047-.016.0312-.023.0625-.023.0937zm9.961-9.8438c.063.1407.157.2344.282.2813.125.1406.203.2344.234.2812.047.0469.094.0938.141.1407.109.0781.164.125.164.1406.015.0156.023.0312.023.0469.125.125.203.2031.234.2343.079.1407.133.2266.165.2579.046.0312.07.0859.07.164.156.1719.242.2734.258.3047.109.1563.164.25.164.2813.015.0312.031.0624.047.0937.031.0469.046.1016.046.1641 0 .0468.016.1015.047.164.047.125.078.1953.094.211.016 0 .031.0156.047.0468.047.125.07.2032.07.2344.016.0156.039.0391.071.0703 0 .0781.015.1797.046.3047.016.1875.032.3047.047.3516.016.0312.024.0703.024.1172 0 .2187.031.3593.094.4218-.032.0782-.04.1563-.024.2344.016.0625.031.1406.047.2344.016.1406.008.2578-.023.3516-.032.0937-.047.1718-.047.2343s-.008.1172-.024.1641c-.015.0625-.031.1172-.047.164-.015.0469-.031.1016-.047.1641-.031.0625-.046.125-.046.1875 0 .0469-.008.1094-.024.1875l-.187.5156c-.032.0625-.063.125-.094.1875-.016.0625-.039.125-.07.1875-.094.1563-.157.2579-.188.3047-.031.0469-.062.0938-.094.1406-.125.1719-.203.2657-.234.2813-.016 0-.031.0156-.047.0469-.156.2187-.258.3437-.305.375l-.257.164c-.11.1094-.188.1875-.235.2344s-.101.1016-.164.1641c-.172.1093-.289.2343-.351.375-.063.0156-.157.0547-.282.1172-.109.0625-.172.1015-.187.1171-.016.0157-.039.0313-.07.0469-.094.0313-.157.0469-.188.0469-.016 0-.039.0078-.07.0234-.032.0157-.078.0391-.141.0704-.062.0312-.109.0703-.141.1171.016.1407.016.2188 0 .2344v.0703c.016.1563.024.2656.024.3282-.047.125-.07.2343-.07.3281.015.0937.031.1875.046.2812 0 .125-.007.2344-.023.3281 0 .0782.008.1876.023.3282.016.0312.024.0859.024.164v.1875c-.031.0313-.07.0703-.117.1172-.032.0469-.071.086-.117.1172-.157.0313-.25.0547-.282.0703-.015.0156-.039.0235-.07.0235-.188-.0157-.32-.0157-.398 0-.079 0-.157 0-.235 0l-.492-.0235c-.078 0-.141.0078-.188.0235-.046 0-.101-.0157-.164-.0469-.062.0312-.171.0312-.328 0-.031 0-.078.0078-.14.0234-.047 0-.086 0-.118 0-.093.0156-.21.0235-.351.0235s-.274.0078-.399.0234c-.093 0-.195 0-.304 0-.094-.0156-.18-.0156-.258 0-.047 0-.094.0078-.141.0234-.047.0157-.109.0079-.187-.0234-.11-.0313-.195-.0469-.258-.0469-.047 0-.078 0-.094 0-.015-.0625-.031-.1094-.047-.1406-.015-.0312-.039-.0625-.07-.0938-.047-.1718-.07-.2578-.07-.2578 0-.1718-.008-.2812-.024-.3281 0-.0625 0-.1484 0-.2578.016-.25.008-.4141-.023-.4922v-.5156c-.016-.1406-.024-.2266-.024-.2578.016-.0313.024-.0625.024-.0938.016-.0625.023-.125.023-.1875s0-.125 0-.1875c-.031-.1562-.047-.25-.047-.2812.016-.0313.024-.0703.024-.1172 0-.0313 0-.0781 0-.1406.016-.0782.023-.1329.023-.1641 0-.1094 0-.1953 0-.2578.016-.0625.008-.125-.023-.1875.047-.1875.055-.3203.023-.3985-.015-.0937-.007-.1796.024-.2578.078-.1093.117-.1875.117-.2343.047-.1094.078-.1719.094-.1875.015-.0157.015-.0391 0-.0704.062-.0312.101-.0624.117-.0937.031-.0469.062-.0859.094-.1172.156-.0937.273-.1484.351-.1641.078-.0312.164-.0703.258-.1171.203-.0625.328-.1016.375-.1172.047-.0157.102-.0313.164-.0469.047-.0156.086-.0234.117-.0234.047 0 .094-.0078.141-.0235.156-.0625.234-.1015.234-.1172.078.0157.188 0 .328-.0468.094-.0625.149-.0938.164-.0938.016-.0156.04-.0234.071-.0234.125-.0781.203-.1328.234-.1641.031-.0312.063-.0547.094-.0703.047-.0313.086-.0625.117-.0937.172-.1563.305-.2813.399-.375.062-.1094.093-.1797.093-.211.016-.0312.032-.0625.047-.0937l.047-.2579c.047-.1562.055-.2968.023-.4218-.015-.1406-.039-.25-.07-.3282-.078-.1406-.117-.2109-.117-.2109 0-.0156-.008-.0234-.023-.0234-.079-.0938-.133-.1407-.165-.1407-.031 0-.054-.0156-.07-.0468-.062-.0156-.172-.0547-.328-.1172-.062-.0313-.148-.0469-.258-.0469-.125.0156-.203.0235-.234.0235-.031-.0157-.078-.0235-.141-.0235-.031.0156-.07.0313-.117.0469-.031.0156-.078.0312-.141.0469-.218.0937-.351.164-.398.2109-.047.0312-.102.0625-.164.0938-.078.1093-.133.1796-.164.2109-.031.0156-.055.0391-.07.0703-.047.0469-.086.0938-.118.1406-.031.0313-.062.0625-.093.0938-.016.0781-.047.1406-.094.1875s-.07.1172-.07.2109l-.235.1406c-.109.0938-.203.1407-.281.1407-.078-.0157-.149-.0157-.211 0-.125-.0625-.188-.1016-.188-.1172 0-.0157-.015-.0235-.046-.0235-.11-.0937-.18-.1406-.211-.1406-.032 0-.063-.0156-.094-.0469-.109-.0312-.18-.0547-.211-.0703-.031-.0312-.07-.0625-.117-.0937-.172-.0313-.258-.0547-.258-.0703-.125-.0782-.203-.1328-.234-.1641-.157-.0625-.258-.1016-.305-.1172-.031-.0312-.063-.0547-.094-.0703-.172-.0625-.289-.1094-.351-.1406-.047-.0313-.102-.0625-.164-.0938-.157-.0781-.297-.164-.422-.2578-.032-.0156-.078-.0312-.141-.0469-.047-.0156-.086-.039-.117-.0703-.188-.0468-.344-.1328-.469-.2578.063-.1406.086-.2187.07-.2344-.015-.0156-.023-.039-.023-.0703l.07-.2812c.078-.1719.141-.2813.188-.3281.062-.0469.101-.1094.117-.1876.078-.0937.117-.1562.117-.1874 0-.0313.008-.0626.024-.0938.093-.1094.148-.1797.164-.2109.015-.0469.031-.0938.047-.1407.078-.0937.117-.1562.117-.1875 0-.0312.008-.0547.023-.0703.11-.125.172-.2031.188-.2344.031-.0468.062-.0859.093-.1171.047-.125.086-.2032.118-.2344.031-.0313.062-.0625.093-.0938.047-.0312.071-.0781.071-.1406.047-.0156.078-.0391.093-.0703.032-.0469.063-.0859.094-.1172.141-.1406.227-.2266.258-.2578s.062-.0625.094-.0938c.172-.1562.297-.25.375-.2812.093-.0938.218-.1719.375-.2344.156-.0625.242-.1015.258-.1172.031-.0312.062-.0546.093-.0703.141-.0312.258-.0469.352-.0469.203-.0468.398-.1171.586-.2109.234-.0781.437-.125.609-.1406.141.0156.219.0234.235.0234.031-.0156.062-.0234.093-.0234.172-.0469.289-.0625.352-.0469h.164c.078 0 .156.0078.234.0234h.211c.125 0 .196-.0078.211-.0234.031-.0156.063-.0234.094-.0234.125.0312.195.0468.211.0468.015-.0156.039-.0078.07.0235.078-.0156.172-.0078.281.0234.063.0157.118.0313.164.0469.047 0 .102.0078.165.0234.046.0313.093.0625.14.0938.047.0156.094.0312.141.0469.156.0625.25.0937.281.0937.047 0 .094.0156.141.0469.109.0625.172.0937.187.0937.016 0 .039.0078.07.0235.063.0312.125.0547.188.0703.062 0 .117.0156.164.0469.156.0781.242.125.258.1406.031.0156.062.0312.094.0469.109.0781.179.1328.211.164.125.0938.187.125.187.0938.016-.0469.039-.0547.07-.0235zm-2.203 13.4766c.047.0313.086.0547.117.0703.047.0156.094.0234.141.0234.078.0782.188.1407.328.1876.11.0781.18.1328.211.164.109.1094.18.1953.211.2578.078.125.125.2032.141.2344.031.0312.054.0625.07.0938l.094.3515v.2578c-.016.0625-.024.1485-.024.2578-.031.1719-.054.2735-.07.3047v.0703c-.031.0313-.063.0625-.094.0938-.015.0312-.039.0703-.07.1172-.078.125-.172.25-.281.375-.11.1093-.243.2031-.399.2812-.125.0938-.234.1641-.328.211-.156.0312-.25.0547-.281.0703-.016.0156-.039.0312-.07.0468-.157.0157-.243.0157-.258 0 0 0-.016.0079-.047.0235-.063 0-.117.0078-.164.0234-.047.0157-.086.0235-.117.0235-.157-.0157-.243-.0235-.258-.0235-.078-.0156-.172-.0234-.281-.0234-.11.0156-.204.0078-.282-.0235-.125-.0468-.218-.0703-.281-.0703-.062.0157-.125.0079-.187-.0234-.063-.0156-.141-.0547-.235-.1172-.078-.0312-.148-.0547-.211-.0703-.047-.0312-.109-.0625-.187-.0938-.203-.1406-.336-.2421-.399-.3046-.062-.0782-.109-.1719-.14-.2813-.078-.0312-.118-.0703-.118-.1172 0-.0625-.031-.125-.093-.1875-.047-.1718-.071-.2656-.071-.2812.016-.0156.024-.0391.024-.0703 0-.1719-.008-.2657-.024-.2813 0-.0156.008-.039.024-.0703.062-.125.094-.2344.094-.3281.015-.0938.046-.1797.093-.2578.11-.1094.172-.1797.188-.211.015-.0312.039-.0625.07-.0937.078-.1094.141-.1797.188-.211.14-.125.226-.1953.257-.2109.047-.0156.086-.0391.118-.0703.125-.0313.234-.0703.328-.1172.203-.0937.39-.1563.562-.1875l.539-.0234c.235 0 .446.0234.633.0703.172.0312.258.0547.258.0703s.008.0234.023.0234c.047.0156.094.0235.141.0235s.086.0078.117.0234z" fill="#693821"/></svg>