<svg fill="none" height="39" viewBox="0 0 37 39" width="37" xmlns="http://www.w3.org/2000/svg" xmlns:xlink="http://www.w3.org/1999/xlink"><linearGradient id="a"><stop offset="0" stop-color="#cf5c2b"/><stop offset="1" stop-color="#59173e"/></linearGradient><linearGradient id="b" gradientUnits="userSpaceOnUse" x1="35.6543" x2="25.1668" xlink:href="#a" y1="-18.2032" y2="5.11142"/><linearGradient id="c" gradientUnits="userSpaceOnUse" x1="31.2317" x2="-5.88106" xlink:href="#a" y1="-9.91027" y2="75.7719"/><linearGradient id="d" gradientUnits="userSpaceOnUse" x1="27.1534" x2="-9.95937" xlink:href="#a" y1=".674548" y2="86.3566"/><linearGradient id="e" gradientUnits="userSpaceOnUse" x1="20.1023" x2="18.9728" xlink:href="#a" y1="54.2197" y2="18.3977"/><path d="m36.61 6.07845c-.2112-2.86956-2.5614-5.114151-5.431-5.228582-8.0805-.325686-16.1259-.325686-24.14477-.008802-.58095.026407-1.1531.132035-1.69885.334484-.27287.09683-.53694.22006-.78341.3521-1.24993.68658-2.09495 1.87489-2.74632 3.09842-.69538 1.28514-1.39957 2.71111-1.487594 4.1899-.070418 1.19713-.132034 2.40303-.176046 3.60013-.008802.1321-.008802.2553.008802.3785.008803.0704.017605.1409.008803.2113-.026407.3873-.008803.7306.193651 1.0739.123232.2024.281674.3785.484128.4929-.017605-.0088-.184849.1496-.211256.1672-.070419.0617-.132035.1321-.184849.2025-.11443.1496-.211256.3081-.272872.4841-.0704187.1761-.1144303.3609-.1232326.5458-.0616163.7482-.04401167 1.4964-.03520934 2.2446.00880234.6513-.05281396 1.3379.05281394 1.9805.026407.1584 0 .3257.0352093.4841.0704187.3609.2376627.6954.4049067 1.0211-.281674.2993-.4049067.713-.4225113 1.1267-.0176047.4753.0704183.9418.0352093 1.4171-.0880233 1.2852-.008802 2.6055.070419 3.8819.008802.1496.035209.2993.061616.4401.079221.3609.088023.7394.290477 1.0563.088023.1408.202453.264.34329.3609-.132035-.0176-.237662.1232-.299279.2376-.396104.757-.396104 1.3468-.237663 2.1566.158442.845.114431 1.646.422512 2.4735.255265.6865.642565 1.3203 1.126695 1.8572 1.00347 1.1179 2.42944 1.8045 3.92584 1.8925 8.51189.493 16.70679.537 24.52329.0529.0352 0 .0704-.0088.1056-.0088.9507-.0793 1.8749-.3873 2.6759-.9067.7834-.5017 1.4348-1.1971 1.8925-2.0069.5282-.9331.7834-2.0334 1.0475-3.0632.1672-.6338.4225-1.4436.3521-2.1214-.044-.3873.0704-.7658.0528-1.1531-.0176-.4401-.132-.8714-.3345-1.2587-.0264-.044-.0528-.0968-.0528-.1497-.0088-.1232.1232-.2112.2201-.2904.2288-.1761.3785-.449.4313-.7306.0088-.0705.0176-.1409.0088-.2113-.0264-.1232-.0176-.22-.0088-.3521.044-.889.0792-1.7781.1144-2.6671.0352-.977.0704-1.9541.088-2.9224.0264-.9594.0352-1.9277.044-2.8871.0088-.9507.0088-1.9013 0-2.8432 0-.4665-.0088-.9418-.0176-1.4083 0-.2377-.0088-.4666-.0176-.7042-.0088-.2201-.044-.4666-.0088-.6866.0088-.0792.0352-.1408.0176-.2201-.0088-.0968-.0352-.1848-.0616-.2816-.0528-.1849-.132-.3609-.2288-.5282-.0969-.1672-.2113-.3169-.3521-.4577-.0352-.0352-.4049-.3785-.4402-.3433.1145-.1056.2113-.2201.2993-.3433.2289-.32567.3609-.70417.4577-1.09147.0441-.19365.0705-.39611.0969-.59856.0088-.03521.0264-.07042.0264-.11443.0264-.14084-.0088-.30808-.0176-.44892-.0352-.58095-.0792-1.17951-.1233-1.77807z" fill="url(#b)"/><path d="m36.989 12.6797c-.0088 1.0034-.0176 2.0069-.0264 3.0104-.0088.4753-.0088.9594-.0088 1.4435 0 .2641-.0088.5194-.0088.7746-.0176 1.3644-.0352 2.7288-.0704 4.0931-.0177.6778-.0353 1.3556-.0617 2.0334-.0176.4049-.0088.7834-.1408 1.1619-.1496.4225-.1408.9418-.1937 1.3907-.0176.1409-.044.2905-.1496.3961-.0968.0969-.2377.1145-.3785.1233-.22.0264-.4489.044-.669.0704-1.2939.132-2.5967.2553-3.8906.2905-.9594.0176-1.9277-.0088-2.8872-.1145.7306.1057 1.4612.2201 2.1918.3257.2113.0352.4137.0616.625.0969 1.4876.22 2.9752.4401 4.4628.6601.132.0264.2816.044.3785.1409.1496.132.1584.3609.1496.5633-.0176.2993-.044.5986-.0968.8978-.0792.5898-.1937 1.1796-.2201 1.7781-.0088.1232.0176.2465-.0088.3697-.0616.3785-.3433.7394-.5545 1.0387-.9947 1.3908-2.5791 2.271-4.278 2.3766-7.702.4841-15.7649.4401-24.14474-.044-1.20591-.0704-2.37662-.5369-3.30087-1.3203-.54574-.4666-1.05628-1.0651-1.37316-1.7253-.14084-.2993-.17605-.6426-.31688-.9507-.02641-.0704-.05282-.132-.07923-.2024-.04401-.2025-.0264-.4225.14964-.5634.18485-.1496.44892-.1584.68659-.1672 2.6671-.088 5.3254-.2553 7.99255-.3345h.0792c.8098-.0264 1.6284-.0352 2.4382-.0352-.2993-.044-.5985-.088-.8978-.1144-1.3732-.1673-2.76395-.2201-4.14591-.2729-.01761 0-.03521-.0088-.04401-.0088h-.01761c-1.67244-.0616-3.33608-.132-4.98211-.3961-.31689-.0528-.64257-.1144-.92425-.2553-.21125-.0968-.3961-.2288-.52814-.4225-.0088 0-.0176-.0176-.0264-.0264-.19365-.2993-.26407-.7482-.20246-1.0827.07922-.3873.02641-.7658.00881-1.1795-.03521-.7042-.07923-1.4172-.10563-2.1213-.02641-.3874-.04401-.7747-.06162-1.162-.0088-.2112-.0176-.4489.11443-.6161.10563-.1321.29048-.1761.45772-.2201.51934-.132 1.03868-.264 1.57562-.3433.23766-.044.47532-.0704.71299-.088-.60736-.1408-1.21472-.2729-1.83089-.4137-.18485-.044-.36969-.088-.53694-.176-.03521-.0177-.07922-.0441-.11443-.0705-.29928-.22-.3785-.5193-.42251-.8362-.0176-.1056-.02641-.22-.04401-.3257-.04401-.2552-.07922-.5017-.09683-.757-.04401-.3873-.06161-.7746-.07922-1.1619-.03521-.845-.07922-1.9365.45772-2.6495.19365-.2552.53694-.3169.85383-.3521 1.24113-.1496 2.48225-.2816 3.72338-.3873.25527-.0264.51934-.044.77461-.0704 1.25873-.0968 2.50866-.176 3.77616-.2377-1.51397.0705-3.03677.0441-4.55077-.0528-.95065-.0616-1.9013-.1584-2.85195-.2816-.39611-.0529-.80982-.1145-1.16191-.2993-.0088-.0088-.0176-.0088-.02641-.0176-.09682-.044-.18484-.0969-.27287-.1673-.19365-.1496-.33449-.3521-.41371-.5809-.08802-.2377-.04401-.4401-.0088-.6778.0088-.088 0-.1761 0-.2641-.0176-.5369.02641-1.0827.03521-1.6196.0088-.2729.0176-.5457.03521-.82742.03521-1.19712.09682-2.39423.16724-3.59135.17605-2.90477 2.53507-5.202173 5.43984-5.316603 8.01012-.325686 16.05542-.316884 24.14482.008802 2.5966.105628 4.8588 2.042141 5.343 4.594811.1496.78341.2024 1.63724.0528 2.42944-.0352.20246-.088.39611-.1585.58096-.044.10563-.1144.32568-.2112.41371-.0088.0088-.0176.0176-.0176.0176-.0704.04401-.1673.05282-.2377.07042-.4753.11443-.9506.21126-1.426.29928-.9506.16724-1.9101.29048-2.8695.3785-.0088 0-.0088 0-.0088 0-1.9365.16724-3.8906.20245-5.8272.22886h-.0528c.5282.03521 1.0651.06162 1.5932.09683 1.4436.07926 2.8872.16726 4.3308.25526.9594.0528 1.9277.1056 2.8872.1672.5809.0353 1.1883.0793 1.69.3785.0088 0 .0088.0088.0088.0088.6426.4314.6866 1.206.6778 1.9366z" fill="url(#c)"/><path d="m36.9885 12.6797c-.0088 1.0035-.0176 2.0069-.0176 3.0104-.0088.4753-.0088.9594-.0088 1.4436 0 .264-.0088.5193-.0088.7746-3.7058.2376-7.4203.5633-11.1349.7922-4.3308.264-8.6615.5545-12.9834.8274-2.3327.1496-4.64767.3257-6.97149.5898-1.55801.176-3.0368.4313-4.5508.3432-.0176-.1056-.0264-.22-.04401-.3256-.04401-.2553-.07922-.5018-.09682-.757 1.5316-.3257 3.07201-.2729 4.70044-.3257 2.18297-.0704 4.33078-.2201 6.50488-.4225 4.3308-.4049 8.6615-.8275 12.9923-1.3204 2.579-.2993 5.1581-.5633 7.746-.845-.088-.0088-.1672-.0088-.2553-.0176-4.2339-.2289-8.3974-1.0123-12.6137-1.3908-4.1811-.3785-8.3798-.7042-12.57851-.9506-1.69885-.1057-3.64416-.0793-5.56307-.2113-.0088-.0088-.0176-.0088-.02641-.0176-.09682-.044-.18484-.0968-.27287-.1672-.19365-.1497-.33449-.3521-.41371-.581-.08802-.2377-.04401-.4401-.0088-.6778.0088-.088 0-.176 0-.264-.0176-.537.02641-1.0827.03521-1.6197.0088-.2728.0176-.5457.03521-.82739 2.13016-.11443 4.33074.02641 6.22324.04401 4.19871.03521 8.38861.23768 12.57851.48408 4.2075.2465 8.4062.1497 12.6137.3433 1.1355.0529 2.2798.0969 3.4153.1233.6778.4401.713 1.2147.7042 1.9453zm-13.9076 9.8322c-7.1563.3433-14.69112.0264-21.66256 1.8661.03521.7042.07042 1.4172.10563 2.1213.0176.4049.07042.7834-.0088 1.1796-.06162.3344.0176.7834.20245 1.0826 2.11256.5546 4.26913.8979 6.46091 1.1179.0176 0 .03521.0088.06161.0088 1.37316.1409 2.75516.2201 4.14586.2729 3.5826.132 7.1915.0528 10.6949.088 4.3835.044 8.7671-.044 13.1418-.2024.044-.2993.0793-.5898.0969-.8979.0088-.2024 0-.4225-.1497-.5633-.0968-.088-.2464-.1144-.3785-.1408-1.6988-.2553-3.3889-.5018-5.0877-.757-.7306-.1057-1.4612-.2201-2.1918-.3257 2.2534.2552 4.5244.0616 6.7866-.1673.22-.0264.4489-.044.669-.0704.132-.0088.2816-.0264.3785-.1232.1056-.0969.132-.2553.1496-.3961.0528-.449.0352-.9595.1937-1.3908.132-.3873.132-.757.1408-1.1619.0264-.6778.044-1.3556.0616-2.0333-4.6036.132-9.216.2728-13.8108.4929z" fill="url(#d)"/><g fill="#e68b4a"><path d="m1.74522 28.8061c-.21126-.2993-.29928-.7746-.22886-1.1267.07922-.3873.02641-.7658.0088-1.1795-.06162-1.0915-.11443-2.1918-.16724-3.2833-.00881-.2112-.01761-.4489.11443-.6161.10562-.1321.29047-.1761.45772-.2201.51934-.132 1.03867-.2641 1.57561-.3433-.29927.2289-.58975.4137-.94184.5898-.12324.0616-.25527.1232-.3433.2288-.09682.1057-.13203.2641-.16724.4049-.29928 1.3732-.14084 2.808.02641 4.2075.07042.581.14083 1.1708.19365 1.7605-.21126-.0968-.39611-.2377-.52814-.4225z"/><path d="m1.25938 20.135c-.10563-.6337-.14964-1.2851-.17604-1.9189-.03521-.845-.07922-1.9365.45772-2.6495.19365-.2552.53694-.3168.85382-.3521 1.4964-.176 2.99279-.3344 4.49799-.4489-1.42598.4754-3.05441.4753-4.43637 1.0651-.25527.1056-.51054.2377-.65137.4753-.09683.1585-.13204.3433-.15845.5194-.08802.5633-.14963 1.1003-.11443 1.6724.02641.3609.05282.7306.08803 1.0915.05281.5986.14083 1.1883.23766 1.7781-.03521-.0176-.07922-.044-.11443-.0704-.41371-.2817-.40491-.7306-.48413-1.162z"/><path d="m30.457 27.5732c.0619.0263.1238.0526.1857.0789-.0707-.0175-.1326-.0351-.1857-.0789z"/><path d="m36.3183 29.1311c-.0352.9066-.2817 1.7781-.3169 2.6759-.0088.1232.0176.2465-.0088.3697-.0616.3785-.3433.7394-.5546 1.0387-.9946 1.3907-2.579 2.271-4.2779 2.3766-7.702.4841-15.7649.4401-24.14476-.044-1.20592-.0704-2.37663-.537-3.30087-1.3204-.55455-.4577-1.06508-1.0563-1.38197-1.7164-.14083-.2993-.17604-.6426-.31688-.9507-.02641-.0704-.05281-.132-.07922-.2024-.04401-.2025-.02641-.4225.14964-.5634.18485-.1496.44892-.1584.68658-.1672 2.6671-.088 5.32541-.2553 7.99248-.3345-2.34139.132-4.674.4577-6.98021.8714-.31689.0528-.66018.0792-.96826.1673-.04401.0176-.09682.0176-.14084.0616-.05281.0704-.04401.1584-.03521.2376.03521.2729.18485.5018.3521.7218.53694.7042 1.10029 1.4436 1.8925 1.8573 1.9013 1.0035 3.83781.8538 5.99442.8098.4401-.0088.8714 0 1.3115-.0792.2201-.044.4841 0 .7042.0088.5017.0176 1.0035.0264 1.514.044 1.0035.0264 2.0157.0528 3.0192.0881l5.6511.1584c1.7957.0528 3.5913.0968 5.387-.0528 1.7693-.1409 3.5385-.4753 5.1758-1.1883.132-.0617.2905-.1057.4049-.2025.088-.0616.1584-.1408.2464-.2024.2729-.1761.537-.3521.7747-.5722.1584-.1496.3873-.3433.4665-.5545.044-.1145.0704-.2465.1144-.3609.1144-.3257.1761-.669.2025-1.0123.0264-.3785.0088-.7658-.0352-1.1443-.0177-.1672.0088-.4841-.0969-.625-.0528-.0792-.1936-.1496-.2817-.1936-.2288-.1144-.4929-.1673-.7481-.2113-1.3644-.2552-2.7024-.669-3.9787-1.2323 1.6989.2553 3.3889.5105 5.0877.757.1321.0264.2817.044.3785.1408.1409.1233.1409.3521.1409.5458z"/><path d="m1.40962 13.1285c-.07041-.2816-.06161-.5721-.06161-.8626.03521-1.3996.07042-2.80793.14964-4.2075.07042-1.28514.04401-2.6407.57215-3.83781.86263-1.95412 2.82555-3.292073 4.97331-3.380096 8.01009-.325686 16.05549-.316884 24.14479.008802 2.5967.105628 4.8589 2.042144 5.343 4.594814.1496.78341.2025 1.63723.0528 2.42944-.0352.20246-.088.39611-.1584.58096-.044.10562-.1145.32568-.2113.41371-.1672-1.28514.1497-2.69352-.3169-3.90824-.2728-.73059-.6689-1.45238-1.2939-1.93651-2.0597-1.59322-5.0966-1.48759-7.5788-1.5316-6.8394-.13204-13.6348-.34329-20.44781.27287-.31688.02641-.62497-.08803-.92424-.03521-.67778.11443-1.32916.57215-1.82209 1.02107-.67777.62496-1.19711 1.41717-1.5228 2.2798-.08802.25527-.16724.51054-.23766.7658-.66018 2.53507-.3785 5.475-.06162 8.0453-.29047-.0968-.49293-.3697-.58975-.6689 0-.0089-.00881-.0265-.00881-.0441z"/><path d="m36.9886 12.6799c-.0088 1.0035-.0176 2.0069-.0176 3.0104-.0088.4753-.0088.9595-.0088 1.4436-.0176 2.3062-.044 4.6036-.1408 6.9098-.0176.4049-.0088.7834-.1409 1.1619-.1496.4225-.1408.9419-.1936 1.3908-.0176.1408-.044.2905-.1497.3961-.0968.0968-.2376.1144-.3785.1232-.22.0264-.4489.044-.6689.0704.132-.088.2288-.2112.308-.3609.1057-.22.1321-.4753.1497-.7217.3257-4.0579.3521-8.1334.2376-12.2001-.0176-.5369-.0352-1.0739-.0528-1.6108-.0088-.1232.0176-.2377.0088-.3609-.0176-.1584-.0968-.3081-.2024-.4401-.2289-.2817-.581-.4577-.9155-.5722-2.4822-.8362-5.2638-.2288-7.7724-.97702h.2993c2.4118.14082 4.8148.28172 7.2179.42252.5809.0352 1.1883.0792 1.69.3785.7042.4225.7394 1.1971.7306 1.9365z"/></g><path d="m30.7032 27.6787c.2112.0353.4137.0617.6249.0969-.1144.4049-.2817.7834-.5281 1.1003-1.0035 1.2939-2.8784 1.5228-4.3572 1.6108-2.5086.1408-5.0173.2905-7.526.2729-2.7023-.0177-5.3606-.2729-8.0541-.4578.8098-.0264 1.6284-.0352 2.4383-.0352-.2993-.044-.5986-.088-.8979-.1144-1.3731-.1672-2.76391-.2201-4.14588-.2729-.0176 0-.03521-.0088-.04401-.0088h-.03521c-.10563-.0264-.22006-.0616-.33449-.0968-.22886-.0704-.46652-.1496-.66017-.2817-.45772-.3257-.64257-.933-.80101-1.4876-.3521-1.2675-.22006-2.5262-.14964-3.8114.07922-1.3819.07922-2.7639.05281-4.1459-.04401-1.7252-.12323-3.4769-.17605-5.211.25527-.0264.51934-.044.77461-.0704.64257-.0528 1.27634-.0968 1.91891-.132.0176 2.2798.14964 4.5684.23766 6.8394.0088.2465-.02641.4929 0 .7306.0176.1408 0 .2289.09682.3433.13204.1672.51934.3345.7482.3785.27285.044.56335.0176.83625.0176.5985 0 1.2059 0 1.8044.0088-.5897.0968-1.1795.1584-1.778.1848-.2553.0088-.5634-.0352-.80103.0441-.23766.0792-.47533.1144-.71299.176-.07042.0176-.14084.0352-.18485.088-.04401.044-.05281.1056-.07042.1673-.04401.2552-.0176.5105.05282.757.05281.1936.12323.3609.10562.5633-.04401.4753.02641.9595.09683 1.4348.02641.176.03521.3345.14084.4841.22886.3169.63378.493.99468.5898 2.7903.7658 5.7127.801 8.6087.8362 1.7076.0176 3.4153.0352 5.1229-.0176 1.1619-.0352 3.2833.2024 4.2867-.5193.1409-.0969.2641-.2201.3609-.3609.6514.1056 1.3028.2112 1.9542.2992zm-21.89143-14.515c.0088-.4841.05281-.9682.09682-1.4524.00881-.0792.00881-.1584 0-.2376-.0176-.1585-.0176-.2817.01761-.4314.08802-.3344.24646-.6865.56335-.8626.21125-.1144.46652-.1232.71295-.132 1.1972-.0352 2.3943-.0352 3.5914-.0088-.9507-.09684-1.9013-.20247-2.852-.2993-.5369-.05281-1.08266-.11443-1.60199.01761.0176-.00881.07042-.14084.08802-.15844.03521-.06162.07922-.12324.12323-.17605.07922-.10563.17605-.21126.28168-.29928.18486-.15844.35206-.33449.54576-.48413.4137-.31688.889-.53694 1.3731-.71299.4578-.16724.9331-.28167 1.4084-.3961.3257-.07922.6602-.07922.9947-.08802 3.7498-.05282 7.4996-.07042 11.2494-.09683.6249-.0088 1.2675.21126 1.8748.3785.449.12323.9067.31688 1.1972.68658.2728.34329.4225.83622.5017 1.38197.889-.02641 1.7781-.07922 2.6847-.15845-.0792-1.06508-.2641-2.09495-1.0123-2.90476-.8186-.88024-2.2093-1.06508-3.336-1.1267-1.2676-.07042-2.5351-.11443-3.8026-.14964-.9947-.0176-1.9806-.03521-2.9664-.03521-2.0246-.0088-4.0139.07042-6.0208.17605-2.183.10562-4.92932-.63377-6.77781.86262-.91544.7394-1.35556 1.66364-1.54041 2.86076-.14084.90661-.14964 1.83091-.14964 2.74631 0 .7922.01761 1.5932.04401 2.4119.89784.0616 1.79568.0968 2.69351.0968.00881-.4753.00881-.9419.01761-1.4084zm23.16773 3.072c-.044-1.734-.132-3.4681-.2553-5.2022-.0176-.2728-.0352-.5457-.0528-.8274-.889-.0528-1.7869-.1056-2.6847-.1584.088.9506.0088 2.0069.0528 2.7111.0616 1.0915.1673 2.183.2553 3.2657.044.5281.088 1.0562.1144 1.5844.0088.1672.044.3081-.0528.4489-.1673.2465-.5281.2905-.801.3081-1.4612.0968-2.94.132-4.366.4753 1.8133.0704 3.6266.0352 5.4311-.0968-.0352.1584-.0793.3257-.1145.4841-.0352.1408-.088.2905-.088.4313 0 .088.0352.1761.044.2641.0264.1496.0088.3169.0176.4665.0088.669 0 1.338-.0088 2.0069-.0088.5634-.0264 1.1267-.044 1.6813-.0088.0616-.0088.132-.0088.1936-.0352.9155-.044 2.271-.6602 3.0897.8803.088 1.7605.1144 2.6319.0968.1673-.7306.2201-1.514.2993-2.1918.2905-2.3678.2553-4.7797.2817-7.1651.0088-.625.0088-1.2411.0088-1.8573.0088.0088 0 0 0-.0088z" fill="url(#e)"/><g fill="#e68b4a"><path d="m22.58 30.5922c1.1531-.0176 2.3326-.0352 3.4769-.2112.2377-.0352.4929-.0264.7394-.044.5193-.0353 1.0299-.0881 1.5404-.1585.3345-.044.669-.0968.9947-.2112.977-.3345 1.7516-1.2148 1.9629-2.227-.5369-.0264-1.1531-.0264-1.6901-.0528.449-.0793 1.1091.1496 1.3116.5633-.581.5105-1.2323.9683-1.9717 1.1707-.3961.1056-.8098.1409-1.2147.1673-2.7728.2112-5.5543.4313-8.327.3785-1.338-.0176-2.6672-.1057-4.0051-.0529-.3873.0176-.7746.0441-1.1531.0529-.2201.0088-.4401.0264-.6602-.0088-.1496-.0176-.3081-.0088-.4577-.0088-.3345 0-.6602-.0088-.9947-.0265-.6601-.0264-1.3203-.0792-1.9805-.1496-.71298-.0792-1.43477-.176-2.13896-.3081-.34329-.0616-.70418-.1408-.95065-.3697-.16724-.1584-.27287-.3697-.36089-.5721-.29048-.669-.48413-1.382-.57215-2.1038-.25527.8891.0088 1.8661.59855 2.5879.55455.6778 1.40838 1.0651 2.2622 1.2235.64257.1233 1.3644.1849 2.0069.1145.1409-.0176.2817 0 .4313.0088.3345.0176.669.0352 1.0035.0528.669.0352 1.338.0616 2.0069.0792.669.0176 1.3292.0264 1.9982.0352.3081 0 .6425.0352.9506-.0088.2993-.044.6338.0088.9419.0176 1.3379.044 2.6847.0792 4.0226.0704.0704-.0088.1497-.0088.2289-.0088z"/><path d="m32.6312 10.4791s-1.0827-.0352-1.1795-.0352c-.4049-.0176-.801-.044-1.2059-.0704-.2025-.0176-.4049-.0264-.5986-.044-.0968-.0088-.2024-.0176-.2993-.0264-.0528-.0088-.1144-.0176-.176-.0176-.0264 0-.044.0088-.0616.0088-.0352-.0088-.0792-.0176-.1145-.0264-.1584-.044-.3168-.0792-.4753-.1232 0-.0265-.0088-.0441-.0088-.0705 0-.0088.2201-.0088.2377-.0088.0616.0088.132.0264.1936.0176.0528-.0088.0969-.0176.1497-.0176h.2464c.3345 0 .669.0088.9947.0264.3345.0176.669.0352.9947.0617.3345.0264.6689.0616.9946.1056.1145.0176.2377.0264.3521.044.0176.0792-.044.088-.044.176z"/><path d="m9.17227 14.5898c-1.05628.1057-2.11256.2465-3.16003.4402-.07042-.0705-.09683-.1497-.07922-.2377 1.10029-.132 2.13016-.1584 3.23925-.2025z"/></g><path d="m29.9641 17.151c.0353 2.4558-.0352 4.8765-.1936 7.2707-.0352.5369-.0704 1.0827-.1232 1.6196-.1321 1.6284-1.4524 2.9136-3.0808 3.028-5.2022.3521-10.5188.3345-15.9323-.0088-1.65479-.1056-2.98394-1.4348-3.08957-3.0896 0-.0264-.0088-.044-.0088-.0704-.21126-4.1547-.24647-8.3798-.11443-12.6754.0088-.2024.0088-.4049.0176-.6073.03521-.8186.06162-1.6285.10563-2.4471.0088-.19363.03521-.37848.07922-.56332 0-.03521.0088-.07042.02641-.10563.34329-1.39077 1.56681-2.42064 3.05444-2.49986 5.1933-.25527 10.4483-.25527 15.7825.0088 1.6637.07922 3.028 1.38196 3.1601 3.04561.1232 1.558.2112 3.0984.264 4.63.0352.8274.0528 1.6461.0528 2.4647z" fill="#e58b4a"/><path d="m31.21 25.875c-.0312.0625-.0703.1094-.1171.1406-.0469.0156-.1016.0391-.1641.0703-.1563.0782-.2578.1172-.3047.1172s-.0859.0157-.1172.0469c-.0469.0156-.0937.0391-.1406.0703-.0313.0313-.0703.0625-.1172.0938-.1719.0468-.2734.0859-.3047.1171-.0312.0157-.0703.0313-.1172.0469-.1406.0781-.2422.1172-.3047.1172-.0625-.0156-.1328-.0156-.2109 0s-.1641.0391-.2578.0703c-.0781.0156-.1641.0391-.2578.0703-.0625.0157-.1563.0547-.2813.1172-.1406.0313-.2187.0469-.2343.0469-.0157-.0156-.0391-.0234-.0704-.0234-.1718.0781-.3125.1172-.4218.1172-.0938.0156-.1797.039-.2578.0703-.0625.0156-.1172.0312-.1641.0468-.0469.0157-.1016.0313-.1641.0469-.1562.0469-.2656.0703-.3281.0703-.0469 0-.0859.0157-.1172.0469-.125.0625-.2109.1094-.2578.1406-.2812.0469-.4375.0703-.4687.0703-.0782 0-.1485-.0234-.211-.0703-.0625-.0312-.125-.0625-.1875-.0937-.0781-.1875-.125-.3203-.1406-.3985 0-.0625-.0078-.1406-.0234-.2343-.0469-.2032-.0782-.3203-.0938-.3516-.0156-.0469-.0312-.0937-.0469-.1406-.0468-.25-.0703-.4219-.0703-.5157 0-.0937-.0078-.2031-.0234-.3281-.0313-.1406-.0469-.2265-.0469-.2578 0-.0469-.0078-.1015-.0234-.1641 0-.0781-.0078-.1562-.0235-.2343-.0156-.0781-.0234-.1641-.0234-.2578-.0313-.1719-.0469-.2735-.0469-.3047.0156-.125.0156-.2266 0-.3047s-.0312-.1485-.0469-.2109c-.0468-.2032-.0703-.3672-.0703-.4922-.0468-.2344-.0781-.3907-.0937-.4688s-.0313-.1562-.0469-.2344c-.0156-.0781-.0312-.1562-.0469-.2343-.0156-.0782-.0312-.1563-.0468-.2344l-.0469-.2813c-.0313-.1875-.0547-.3281-.0703-.4218-.0157-.1094-.0391-.211-.0703-.3047-.0157-.0625-.0235-.1172-.0235-.1641 0-.0625-.0078-.125-.0234-.1875-.0156-.0781-.0313-.1641-.0469-.2578 0-.0937-.0078-.1797-.0234-.2578-.0313-.1719-.0547-.2813-.0703-.3281-.0313-.125-.0469-.211-.0469-.2578 0-.0626-.0078-.125-.0235-.1876-.0156-.1406-.0312-.2187-.0468-.2343 0-.0157 0-.0313 0-.0469-.0157-.0781-.0235-.1406-.0235-.1875 0-.0625-.0078-.125-.0234-.1875s-.0391-.125-.0703-.1875c-.0156-.0625-.0156-.1484 0-.2578-.0156-.0781-.0313-.1328-.0469-.1641 0-.0312 0-.0859 0-.164 0-.1407-.0078-.2344-.0234-.2813-.0469-.1875-.0703-.3047-.0703-.3515 0-.0626-.0157-.1172-.0469-.1641-.0781 0-.125.0234-.1406.0703-.0157.0469-.0391.0859-.0704.1172-.0468.0156-.0781.0547-.0937.1172 0 .0625-.0234.1015-.0703.1172-.0625.1406-.0938.2265-.0938.2578 0 .0156-.0078.039-.0234.0703-.0156.0312-.0391.0703-.0703.1172-.0156.0469-.0391.0937-.0703.1406-.0625.1406-.1094.2656-.1407.375-.0625.125-.1171.2187-.164.2813-.0469.1562-.0938.2578-.1406.3046-.0313.0313-.0547.0704-.0704.1172-.0312.0782-.0625.1797-.0937.3047-.0469.0781-.0938.1563-.1406.2344-.0469.0781-.0782.1719-.0938.2812-.0625.0938-.0937.1485-.0937.1641s-.0078.0391-.0235.0703c-.0625.0938-.1093.1719-.1406.2344-.0625.1562-.1016.2578-.1172.3047 0 .0468-.0156.0937-.0469.1406l-.1406.2344c-.0625.1718-.0937.2812-.0937.3281 0 .0313-.0078.0625-.0235.0937-.0468.1563-.1015.2969-.164.4219-.0469.125-.1016.2578-.1641.3985-.0625.1875-.1094.3125-.1406.375-.0313.125-.0625.2187-.0938.2812-.0781.1875-.1328.2969-.164.3281 0 .0782-.0078.1407-.0235.1875-.0156.0469-.0312.0938-.0468.1407-.0157.0468-.0313.1015-.0469.164 0 .0469-.0078.0938-.0235.1407-.0781.1718-.125.2968-.1406.375-.0156.0624-.039.1171-.0703.164-.0312.1094-.0625.1953-.0937.2578-.0157.0469-.0391.1016-.0704.1641-.0312.0781-.0546.1562-.0703.2344-.0156.0625-.039.125-.0703.1875-.0156.0781-.0547.1953-.1172.3515-.0468.1094-.0703.1875-.0703.2344 0 .0313-.0156.0625-.0469.0937-.0625.1719-.1093.2735-.1406.3047-.0156.0469-.0234.1016-.0234.1641 0 .0469-.0156.0859-.0469.1172-.0469.0469-.0937.0937-.1406.1406-.0313.0469-.0625.0781-.0938.0938-.0625.125-.1093.1875-.1406.1875-.0156.0156-.0312.039-.0469.0703-.0468 0-.0937-.0078-.1406-.0235-.0312 0-.0703 0-.1172 0-.0625 0-.125 0-.1875 0-.0469.0157-.1015.0157-.164 0-.0938-.0156-.1954 0-.3047.0469-.0938-.0156-.1641-.0234-.211-.0234-.0468.0156-.0937.0156-.1406 0-.1562-.0625-.25-.0938-.2812-.0938-.125-.0781-.2032-.1328-.2344-.164-.1094-.125-.1875-.2188-.2344-.2813-.0312-.0625-.0547-.1406-.0703-.2344-.0469-.0625-.0859-.1328-.1172-.2109-.0312-.0781-.0625-.1641-.0937-.2578-.0469-.0781-.0782-.1328-.0938-.1641 0-.0312-.0078-.0625-.0234-.0937-.0157-.0782-.0391-.1406-.0703-.1875-.0157-.0625-.0313-.1094-.0469-.1407-.0313-.0781-.0703-.1562-.1172-.2343-.0313-.0781-.0469-.1563-.0469-.2344-.0937-.2656-.1562-.4219-.1875-.4687-.0312-.1407-.0703-.2422-.1172-.3047.0157-.0625.0078-.1094-.0234-.1407-.0156-.0468-.0391-.1015-.0703-.164-.0781-.1719-.1172-.2813-.1172-.3282 0-.0468-.0156-.1015-.0469-.164-.0469-.0781-.0781-.1641-.0937-.2578-.0625-.1719-.1016-.2735-.1172-.3047 0-.0469-.0078-.0859-.0235-.1172-.0781-.1719-.1171-.2734-.1171-.3047 0-.0312-.0079-.0625-.0235-.0937-.0781-.1563-.125-.2579-.1406-.3047 0-.0625-.0156-.1172-.0469-.1641-.0469-.1406-.0703-.2265-.0703-.2578s-.0078-.0625-.0234-.0937c-.0469-.125-.0703-.2032-.0703-.2344 0-.0313-.0079-.0625-.0235-.0938-.0937-.1875-.1406-.3125-.1406-.375s-.0156-.125-.0469-.1875c-.0781-.2031-.1328-.3437-.164-.4219-.0469-.1562-.0782-.2421-.0938-.2578-.0469-.1093-.0781-.1953-.0937-.2578 0-.0625-.0157-.1172-.0469-.164-.0156-.1094-.0391-.1797-.0703-.211-.0313-.0468-.0391-.0859-.0235-.1172-.0312-.1406-.0703-.2343-.1172-.2812-.0312-.0625-.0312-.1172 0-.1641-.0468-.0469-.0781-.1015-.0937-.164-.0156-.0782-.0391-.1563-.0703-.2344-.0469-.1094-.0703-.1719-.0703-.1875 0-.0313-.0078-.0625-.0235-.0938-.0937-.2187-.1406-.3515-.1406-.3984-.0469-.125-.0859-.2266-.1172-.3047-.0625-.125-.1015-.2109-.1172-.2578-.0156-.0469-.0468-.0859-.0937-.1172-.0625.0625-.1016.1094-.1172.1406-.0156.0157-.0313.0391-.0469.0703-.0469.1407-.0781.2188-.0937.2344v.0235c-.0157.0781-.0391.1484-.0703.2109-.0157.0469-.0313.1094-.0469.1875-.0313.0781-.0469.1641-.0469.2578 0 .0938-.0156.1797-.0469.2578-.0312.1563-.0625.2969-.0937.4219-.0156.0625-.0235.1172-.0235.1641 0 .0468-.0078.0937-.0234.1406 0 .0781-.0156.1797-.0469.3047v.3281c-.0156.1094-.0312.2187-.0468.3281 0 .0938-.0157.2032-.0469.3282l-.0469.4218c-.0469.3125-.0859.5-.1172.5625 0 .1719-.0078.2735-.0234.3047v.0703c-.0156.1563-.0313.25-.0469.2813v.1406c-.0156.2031-.0391.3672-.0703.4922-.0156.0781-.0234.1562-.0234.2344.0156.0625.0234.1093.0234.1406-.0156.0469-.0391.0937-.0703.1406-.0156.0469-.0313.0938-.0469.1406v.3516l-.0469.375v.3047c.0157.0469.0235.1015.0235.1641v.4921c0 .1719-.0078.3438-.0235.5157v.3281c0 .0625-.0078.125-.0234.1875s-.0313.125-.0469.1875c0 .0469-.0078.1094-.0234.1875l-.0703.5625c-.0313.1406-.0625.2265-.0938.2578-.0156.0313-.0312.0625-.0469.0937-.0312.0469-.0468.1016-.0468.1641 0 .0781-.0157.1406-.0469.1875-.0469 0-.0938.0078-.1406.0234-.0469.0313-.0938.0547-.1407.0704-.2343-.0469-.3828-.0704-.4453-.0704-.0625.0157-.1328.0157-.2109 0-.1094-.0312-.1797-.0468-.2109-.0468-.0157.0156-.0313.0234-.0469.0234-.1563-.1094-.2578-.1562-.3047-.1406s-.0859.0078-.1172-.0234c-.1875-.0626-.3203-.0938-.3984-.0938-.0625.0156-.1328.0156-.211 0-.0781-.0156-.1484-.0312-.2109-.0469-.0625 0-.13282-.0078-.21094-.0234-.0625-.0156-.11719-.0235-.16406-.0235-.04688 0-.10157-.0156-.16407-.0468-.07812-.0313-.14062-.0469-.1875-.0469-.03125 0-.0625-.0078-.09375-.0234-.15625-.0625-.25781-.0938-.30468-.0938-.04688 0-.08594 0-.11719 0-.07813.0156-.14063.0078-.1875-.0234-.03125-.0157-.07031-.0235-.11719-.0235-.03125-.0156-.07812-.0234-.14062-.0234-.04688.0156-.09375.0156-.14063 0-.10937-.0312-.17969-.0391-.21094-.0234-.01562 0-.03906-.0078-.07031-.0235-.17187-.0625-.28906-.1093-.35156-.1406-.04688-.0313-.10156-.0625-.16406-.0937-.09375-.0626-.17188-.1094-.23438-.1407-.03125-.0312-.07031-.0625-.11719-.0937-.03125-.0313-.07812-.0469-.14062-.0469-.03125-.1719-.0625-.2813-.09375-.3281.03125-.0782.04687-.1563.04687-.2344s.00782-.1641.02344-.2578c.07813-.1719.125-.2891.14063-.3516.01562-.0312.02343-.0703.02343-.1172 0-.0468.00782-.0937.02344-.1406.0625-.1875.09375-.2969.09375-.3281 0-.0469.00781-.0938.02344-.1406.03125-.1094.03906-.1719.02344-.1875 0-.0157 0-.0391 0-.0704.04687-.0937.07031-.1484.07031-.164.01562-.0313.03125-.0703.04687-.1172.04688-.1719.07032-.2656.07032-.2812.01562-.0157.02343-.0313.02343-.0469 0-.1094.00782-.1719.02344-.1875.01563-.0313.02344-.0625.02344-.0938.01562-.0937.02344-.1875.02344-.2812 0-.1094.01562-.2188.04687-.3282.01563-.0781.02344-.1484.02344-.2109.01562-.0781.03125-.1562.04687-.2344l.02344-.2812c.01563-.0469.03125-.1094.04688-.1875.01562-.0781.03125-.1563.04687-.2344 0-.0781.00781-.1328.02344-.164.01562-.0469.02344-.0938.02344-.1407l.07031-.2812c.03125-.1875.0625-.3281.09375-.4219 0-.0469 0-.0938 0-.1406 0-.0625.01562-.1172.04687-.1641.03125-.1719.03907-.2656.02344-.2812 0-.0157.01563-.0079.04688.0234.01562-.1875.01562-.2969 0-.3281 0-.0469.00781-.0938.02343-.1406.01563-.1563.03907-.3126.07032-.4688 0-.0938-.01563-.1797-.04688-.2578-.01562-.0938-.00781-.1875.02344-.2813.01562-.0937.03125-.1797.04687-.2578.01563-.0937.03125-.1797.04688-.2578.04687-.2031.07031-.3359.07031-.3984 0-.0781 0-.1563 0-.2344.03125-.125.04688-.2187.04688-.2813.04687-.2187.0625-.3593.04687-.4218 0-.0625.01563-.1328.04688-.211 0-.1718.01562-.2812.04687-.3281s.05469-.1015.07031-.1641c0-.1562.00782-.2734.02344-.3515 0-.0469 0-.0938 0-.1406 0-.0625.00781-.125.02344-.1875l.04687-.2578c.03125-.1563.04688-.2735.04688-.3516.03125-.0625.04687-.1406.04687-.2344.01563-.0937.03907-.1797.07032-.2578.03125-.1875.03906-.2891.02343-.3047 0-.0156 0-.0391 0-.0703l.09375-.3516c.03125-.1093.05469-.2265.07032-.3515.01562-.1407.03125-.2735.04687-.3985 0-.0312 0-.0703 0-.1172.01563-.0468.02344-.0937.02344-.1406.01562-.0625.02344-.1094.02344-.1406.01562-.0469.01562-.0938 0-.1406.03125-.125.0625-.2969.09375-.5156l.02343-.4219c.01563-.1407.03125-.2344.04688-.2813.01562-.0468.01562-.1094 0-.1875.03125-.0781.04687-.1484.04687-.2109 0-.0781.01563-.1719.04688-.2813.0625-.2031.10156-.3125.11719-.3281.07812-.10936.13281-.18749.16406-.23436.03125-.0625.0625-.11719.09375-.16406.07812 0 .14062-.02344.1875-.07032.0625-.0625.125-.10937.1875-.14062.18749-.03125.28909-.03906.30469-.02344s.0391.02344.0703.02344c.1406-.01563.2188-.01563.2344 0 .0156 0 .0234-.01563.0234-.04688.1563.03125.2813.05469.375.07032.1094 0 .2031-.00782.2813-.02344h.2578l.4219.02344c.2031.0625.3281.08593.375.07031.0468-.01563.0937-.00781.1406.02343.2187.04688.3594.07032.4219.07032.0625-.01563.1328-.01563.2109 0l.2578.02344h.3047c.1719 0 .2891-.00782.3516-.02344.0781-.01563.1562-.00782.2343.02344.0625-.03126.1485-.03907.2578-.02344h.3282c.1875-.03125.289-.03906.3047-.02344h.0703c.1562-.03125.2343-.03906.2343-.02344h.0469.1641c.0312-.01562.0625-.02344.0937-.02344.1407.01563.2578.05469.3516.11719.1094.0625.2187.10938.3281.14063.0781.09375.1328.17187.1641.23436.0625.0781.0937.1328.0937.1641.0157.0156.0313.039.0469.0703.0469.125.0781.2031.0938.2344.0312.0156.0468.039.0468.0703.0469.1093.0703.1797.0703.2109 0 .0313.0157.0625.0469.0938-.0156.0468-.0156.0937 0 .1406s.0313.0859.0469.1172c.0312.2031.0547.3281.0703.375.0156.0468.0234.0859.0234.1172.0313.0781.0469.1484.0469.2109 0 .0469.0156.1016.0469.1641.0469.1562.0859.25.1172.2812.0156.1094.0234.2031.0234.2813.0313.1406.0781.2968.1406.4687l.0704.3047c.0468.0781.0703.1406.0703.1875s.0078.0859.0234.1172c.0781.125.1172.2109.1172.2578 0 .0312.0078.0625.0234.0938.0469.1718.0703.2734.0703.3046.0157.0157.0313.0391.0469.0704.0469.1874.0781.3046.0938.3515.0156.0469.0312.0938.0468.1406.0625.1875.1016.2891.1172.3047.0313.0469.0469.1094.0469.1875 0 .0625.0156.125.0469.1875l.1172.4219c.0312.0781.0468.1563.0468.2344.0157.0625.0391.1406.0704.2343.0468.1719.0703.2657.0703.2813.0156 0 .0234.0156.0234.0469.0625.25.1172.3984.1641.4453h.2578c.0781-.1406.1172-.2344.1172-.2813.0468-.125.0781-.2109.0937-.2578.0156-.0468.0313-.1015.0469-.164s.0312-.1172.0469-.1641c.0312-.125.0547-.2422.0703-.3516.0312-.1093.0859-.2031.164-.2812-.0156-.0625-.0078-.1094.0235-.1406.0312-.0313.039-.086.0234-.1641.0625-.0781.0938-.1484.0938-.2109.0156-.0625.0312-.125.0468-.1875.0782-.1719.125-.2735.1407-.3047.0156-.0625.0312-.125.0468-.1875.0157-.0625.0391-.1328.0704-.211.0468-.125.0703-.2109.0703-.2578.0312-.0468.0468-.0937.0468-.1406.0157-.0469.0391-.0859.0704-.1172 0-.0469.0078-.0859.0234-.1172.0156-.0468.0312-.1015.0469-.164.0468-.1407.0781-.2266.0937-.2578.0313-.0469.0547-.086.0703-.1172.0469-.1719.0782-.2578.0938-.2578.0469-.1094.0859-.1954.1172-.2579.0312-.0625.0468-.1562.0468-.2812.0938-.1563.1797-.3438.2579-.5625.0312-.0938.0546-.1563.0703-.1875.0156-.0313.0312-.0781.0468-.1406.0625-.1875.1016-.3047.1172-.3516.0313-.0469.0625-.0937.0938-.1406.0469-.1407.0703-.2188.0703-.2344.0156-.0313.0391-.0625.0703-.0937.0469-.125.0703-.1876.0703-.1876.0156-.0156.0235-.039.0235-.0703.0625-.0625.0937-.1171.0937-.164s.0078-.086.0234-.1172c.1094-.15626.1641-.2422.1641-.25782.0156-.03126.0391-.0625.0703-.09376.0625-.14062.1016-.21874.1172-.23437.2031-.10937.3281-.14844.375-.11719.0938-.0625.1797-.07812.2578-.04687.0938.01562.2031 0 .3281-.04688.0625.01563.1641.02344.3047.02344h.5157l.2578.02344c.1093.01562.1953.00781.2578-.02344.2812-.01563.4844-.02344.6094-.02344.125-.01562.2421-.00781.3515.02344.1719 0 .2578.00781.2578.02344h.0469c.0781 0 .1719.00781.2813.02343h.2812c.0781 0 .1406.00782.1875.02344.0469.01563.0859.02344.1172.02344h.2812c.1719-.01562.2657-.01562.2813 0h.0703c.1094.04688.1875.07031.2344.07031.0469-.01562.0937-.00781.1406.02344.1563-.03125.2422-.01563.2578.04687.0313.04688.0625.09376.0938.14063.0312.03125.0625.07031.0937.11719.0469.03125.086.0625.1172.09375.0469.15621.0703.25781.0703.30471 0 .0312.0078.0625.0235.0937.0312.0938.0468.1797.0468.2578.0469.1719.0782.2735.0938.3047.0156.0313.0234.0625.0234.0938.0313.0781.0469.1406.0469.1875 0 .0468.0156.1094.0469.1875.0156.0937.0234.164.0234.2109.0156.0469.0313.086.0469.1172.0469.2031.0625.3359.0469.3984 0 .0469.0078.0938.0234.1407.0156.0781.0234.164.0234.2578.0157.0937.0391.1797.0703.2578.0157.0781.0157.1484 0 .2109 0 .0469.0235.1016.0704.1641 0 .125.0078.25.0234.375.0312.1094.0625.2265.0937.3515.0157.1407.0391.2735.0704.3985.0625.1875.0937.2969.0937.3281 0 .0313.0078.0625.0234.0938.0157.0625.0235.125.0235.1875.0156.0625.039.125.0703.1875.0156.0468.0234.0937.0234.1406s.0078.0937.0235.1406c.0312.0938.0468.1719.0468.2344s.0079.125.0235.1875c.0312.1562.039.25.0234.2812 0 .0157.0078.0391.0235.0703.0468.1407.0703.2344.0703.2813.0625.2656.1172.5547.164.8672.0157.0469.0235.0937.0235.1406s.0078.0938.0234.1406c.0469.1719.0703.2813.0703.3282 0 .0468.0078.1015.0235.164v.1407c.0156.0468.0312.1015.0468.164.0157.0938.0313.1953.0469.3047s.0313.2187.0469.3281c.0312.1719.0547.3203.0703.4453.0312.1094.0625.2188.0937.3282.0469.1875.0704.2812.0704.2812.0156.1719.0312.2735.0468.3047.0157.0156.0313.0391.0469.0703.0313.2031.0547.3281.0703.375s.0313.0938.0469.1406c.0156.0625.0234.1641.0234.3047.0469.1094.0625.2032.0469.2813 0 .0625.0156.1328.0469.2109.0312.1406.039.2422.0234.3047 0 .0469.0156.0937.0469.1406.0312.0781.0469.1485.0469.211.0156.0468.0312.0937.0468.1406.0469.1406.0625.2265.0469.2578 0 .0156.0078.0391.0235.0703.0156.125.0234.2031.0234.2344.0156.0156.0234.039.0234.0703.0313.1094.0391.1797.0235.2109 0 .0313.0078.0625.0234.0938.0156.0781.0313.1562.0469.2344.0312.0625.0547.1328.0703.2109.0312.0781.0469.1641.0469.2578 0 .0781.0078.1563.0234.2344.0156.0469.0313.1015.0469.1641.0156.0468.0312.0937.0469.1406.0468.1406.0859.2422.1171.3047.0313.0468.0547.1093.0704.1875.0156.2343.0312.375.0468.4218.0157.0782.0313.1407.0469.1875.0156.0313.0234.086.0234.1641z" fill="#693821"/></svg>