<svg fill="none" height="74" viewBox="0 0 141 74" width="141" xmlns="http://www.w3.org/2000/svg" xmlns:xlink="http://www.w3.org/1999/xlink"><linearGradient id="a"><stop offset="0" stop-color="#cf5c2b"/><stop offset="1" stop-color="#59173e"/></linearGradient><linearGradient id="b" gradientUnits="userSpaceOnUse" x1="107.945" x2="62.8526" xlink:href="#a" y1="-109.448" y2="-25.3887"/><linearGradient id="c" gradientUnits="userSpaceOnUse" x1="80.1038" x2="35.2709" xlink:href="#a" y1="-32.6939" y2="131.098"/><linearGradient id="d" gradientUnits="userSpaceOnUse" x1="79.752" x2="22.3957" xlink:href="#a" y1="-27.4127" y2="175.486"/><linearGradient id="e" gradientUnits="userSpaceOnUse" x1="74.036" x2="70.0935" xlink:href="#a" y1="93.1359" y2="46.8822"/><linearGradient id="f" gradientUnits="userSpaceOnUse" x1="119.239" x2="104.858" xlink:href="#a" y1="17.5097" y2="44.1415"/><linearGradient id="g" gradientUnits="userSpaceOnUse" x1="145.468" x2="25.2608" xlink:href="#a" y1="-68.6438" y2="124.57"/><linearGradient id="h" gradientUnits="userSpaceOnUse" x1="106.912" x2="97.8411" xlink:href="#a" y1="15.1355" y2="31.9333"/><linearGradient id="i" gradientUnits="userSpaceOnUse" x1="123.456" x2="47.6358" xlink:href="#a" y1="-39.2071" y2="82.6617"/><linearGradient id="j" gradientUnits="userSpaceOnUse" x1="27.0262" x2="17.955" xlink:href="#a" y1="30.3253" y2="47.1231"/><linearGradient id="k" gradientUnits="userSpaceOnUse" x1="43.5702" x2="-32.2501" xlink:href="#a" y1="-24.0166" y2="97.8524"/><path d="m140.676 58.9478c-.073-1.5286-.146-3.0572-.208-4.5859-.062-1.6035-.135-3.2221-.197-4.8256-.042-1.0941-.104-2.263-.125-3.402-.021-.9441.249-2.5027-.104-3.357-.207-.5095-.664-.6594-1.069-.7643-.529-.1349-1.059-.2697-1.588-.4046.716-.2398 1.412-.5395 2.097-.9142.156-.0899.311-.1798.415-.3597.094-.1648.125-.3896.145-.5845.239-2.0981.083-4.3161.083-6.4442-.01-2.1581-.01-4.3311-.02-6.4892-.011-2.0531-.011-4.1213-.021-6.1744 0-.6744.197-2.1581-.042-2.7576-.186-.4945-.633-.4645-.975-.5245-.353-.0599-.706-.0599-1.059-.03-.53.045-1.049.1649-1.568.2848.685-.2698 1.391-.4047 2.076-.6444.447-.1499.883-.3597 1.298-.6744.249-.1949.519-.3597.664-.7344.063-.1498.083-.3447.115-.5245.062-.3747.072-.7643.093-1.154.042-1.064.073-2.1281.083-3.2071.01-.5395.01-1.07903 0-1.61855 0-.34469-.093-.67439-.114-1.03407-.094-1.4537-.498-2.84745-1.142-3.97144-.644-1.10901-1.526-1.91828-2.502-2.29295-.363-.13487-.727-.20981-1.1-.23978-43.8915-1.993214-86.9108-2.068147-128.99577.02997-.1661.01499-.34258-.01498-.50867.04496-.1661.07494-.3322.16485-.50868.25477-.34257.17984-.68515.35968-1.01734.59947-.64363.44959-1.24574 1.04906-1.66098 1.8883-.23877.49456-.40486 1.04906-.62287 1.54362-.11419.25477-.25952.4496-.35295.71936-.44639 1.28884-.89278 2.59267-1.515644 3.73164-.602103 1.109-.7785819 2.8774-.7162953 4.2412.0934303 1.8583.1245733 3.7317.2387653 5.59.18686 2.9524.010381 5.9047.238765 8.887.031143.4197.083049.8992.301052 1.169.155716.1948.363337.2697.560577.3297.64363.2098 1.29764.4046 1.94127.6144-.79935.7494-1.99317.8093-2.418798 2.0382-.134955.4046-.155717.8542-.176479 1.3038-.072668 1.5886-.176479 3.1622-.249146 4.7358-.031144.7044-.062287 1.4237-.072668 2.1281-.020762.6744-.051905 1.3338-.103811 2.0082-.103811 1.5736-.3841 3.6118-.051905 5.1554.321814 1.4836 1.609067 1.5436 2.491467 1.9033-.46715.0749-.82011.6294-1.1004 1.1839-.13495.2847-.23877.5695-.36334.8542-.11419.2548-.218.5096-.311432.7793-.186859.5395-.342576 1.0941-.456768 1.6785-.072668.3897-.114192.6894-.124573 1.0941-.010381.3596-.020762.7193-.031143 1.079-.020763.7193-.031144 1.4387-.041525 2.1581-.020762 1.4387-.031143 2.8774-.020762 4.3161.010381 1.3937-.218003 2.7425.18686 4.1063s1.100393 2.5327 1.972413 3.297c.70591.6295 1.50525.9592 2.33574 1.0191 42.32374 2.6826 85.35334 2.6526 129.04704-.015 1.153-.0749 2.263-.7343 3.115-1.8733.405-.5395.768-1.0191 1.069-1.7084.374-.8243.716-1.6785 1.038-2.5478.789-2.1131 1.775-4.466 1.651-6.9088z" fill="url(#b)"/><path d="m135.874 66.6054c-43.7039 2.6526-86.7232 2.6976-129.04691.015-1.87897 0-3.63338-1.9483-4.33929-4.3911-.31144-1.094-.37372-2.278-.3322-3.4469.01038-.2098.02076-.4046.06229-.6145.06228-.3147.16609-.5844.18686-.9141.01038-.1799.03114-.3297.04152-.5096.07267-.9292.09343-1.8733.14534-2.8025.03114-.5245.07266-1.064.17648-1.5736.11419-.5844.30105-1.109.62286-1.4686 1.39107-1.5137 4.12129-1.4837 6.14561-1.5437.39448-.0149.75784-.0299 1.09004-.0599.8824-.0749 1.7648-.1049 2.6472-.1049-2.097-.015-4.18363-.2698-6.24947-.7943-.97582-.2398-1.95164-.5395-2.91708-.8992-.22839-.0749-.47753-.1948-.69554-.3447-.30105-.1948-.56058-.4796-.69553-.8992-.11419-.3597-.10381-.7793-.10381-1.1539.01038-.3747-.03114-.7644-.01038-1.139.02076-.8093.09343-1.5886.14533-2.3829.05191-.6444.10381-1.2888.13496-1.9482.07267-1.7235.14533-3.447.23876-5.1704.03115-.5245.07267-1.094.32182-1.4537.15571-.2248.35295-.3297.55019-.4346.53982-.2848 1.09002-.4946 1.6506-.6294.29067-.075.58134-.075.83049-.1649.30105-.1349.52943-.2248.85125-.2698 3.08321-.5245 6.16641-1.034 9.25991-1.5586.3634-.0599.7371-.1199 1.1108-.1798-4.6507-.8093-9.31184-1.6485-13.96257-2.4578-.20762-.045-.40487-.0749-.61249-.1049-.18686-.03-.3841-.0749-.50867-.2698-.01038-.0149-.02076-.0299-.03114-.0449-.09343-.1799-.10382-.3897-.12458-.6145-.20762-3.6267.03115-7.3734-.11419-11.0451-.01038-.2098-.0519-1.2289-.09343-2.3978-.0519-1.6935-.13495-3.62676-.1661-3.62676-.19724-4.03139 1.94127-7.50827 4.74416-7.64315 42.07461-2.113103 85.09381-2.038171 128.95391 0 2.813.13488 4.973 3.62675 4.755 7.68811-.073 1.3788.114 2.7126-.125 4.1063-.052.3297-.125.6594-.301.8842-.156.1948-.363.2698-.561.3297-.529.1799-1.059.3747-1.588.5545-.706.2398-1.401.4646-2.118.5845-4.235.6444-8.45 1.3038-12.675 1.9632-.114.015-.228.03-.343.045-.135.015-.269.045-.404.06.342-.015.674-.015 1.007-.015 5.294-.1349 10.599-.2548 15.903-.3897.146 0 .312 0 .426.1349.135.1499.166.4046.187.6444.031.3297.031.6444.031.9442-.01.9741-.125 1.9033-.125 2.8924 0 .8692.146 1.7234.146 2.6226-.011 1.2889-.042 2.5777-.073 3.8815-.083 2.9374-.228 5.9197-.446 8.8721-.031.4346-.073.8842-.27 1.1989-.156.2398-.384.3747-.602.4796-.135.0749-.27.1349-.416.1798-3.114 1.2889-6.519.2698-9.716 1.0641-.208.0449-.426.1049-.623.1798-.073.015-.145.045-.208.0749.26.03.519.045.779.09 3.498.3596 6.986.8692 10.464 1.5136.405.0749.862.1798 1.1.6594.187.3597.187.8542.187 1.3038v1.4837c0 1.4987 0 2.9973.052 4.496.062 1.9782.145 3.9564.239 5.9496.041.9742.083 1.9483.135 2.9074.187 4.0164-1.941 7.4783-4.724 7.6582z" fill="url(#c)"/><path d="m140.006 24.6265c-.011 1.2888-.042 2.5777-.073 3.8815-1.796.2398-3.55.4346-5.273.7193-.405.06-.8.1199-1.205.1949-1.484.2248-2.969.4346-4.453.6144-.737.0899-1.485.1799-2.232.2698-.478.0599-.903.3297-1.36.4046-.644.1049-1.35-.1349-2.004-.1948-.726-.06-1.453-.0899-2.18-.0749-1.453.0299-2.917.1798-4.36.4196-2.906.4795-5.772 1.2738-8.657 1.9632-4.62 1.109-9.2604 1.9633-13.9319 2.5178 2.5433.3596 5.066.9591 7.5469 1.7834-.934.1049-1.8685.2098-2.8028.2847-2.969.2698-5.9379.4046-8.9069.4796-2.969.0749-5.9484.0749-8.9174.0599-2.969 0-5.9484-.015-8.9174.015-2.969.045-5.9379.1349-8.9069.3297-1.4845.1049-2.969.2248-4.4432.3897-.3737.0449-.737.0899-1.1107.1348-.4464.06-.8824.2398-1.3392.3148-3.5399.5994-7.0799 1.3488-10.5783 2.3379-5.4397 1.5436-10.9106 3.0572-16.4437 3.5967-.9966.09-2.0035.1799-3.0001.2698-4.7649 1.3788-9.914 1.6635-14.5855 2.4878-1.5883.2847-3.20772.4346-4.82717.5245-.97582-.2398-1.95165-.5395-2.91709-.8992-.22838-.0749-.47753-.1948-.69553-.3447-.30105-.1948-.56058-.4796-.69554-.8992-.11419-.3597-.10381-.7793-.10381-1.1539.01038-.3747-.03114-.7644-.01038-1.139.02076-.8093.09343-1.5886.14534-2.3829 4.27701-.5095 8.66818-2.2929 12.77908-3.1622 5.284-1.094 10.6718-1.7384 15.9973-2.173 6.0314-.4796 12.0525.5545 18.0631.5545 5.5747 0 11.1286-.7044 16.6721-1.3488 10.8067-1.2589 21.5926-2.5627 32.3786-3.9115-2.3461-.0599-4.6922-.1499-7.0384-.2697-2.9897-.1499-5.9795-.3447-8.9692-.5695-.6956-.045-1.4119-.1799-2.097-.075-.7163.1199-1.443.1499-2.1593.1349-1.4222-.03-2.8444-.2847-4.2251-.7793-.8097-.2847-1.6195-.6594-2.4396-.8692-1.391-.3447-2.8132-.2398-4.2354-.2698-5.284-.1049-10.485-2.1131-15.7689-2.0381-1.3911.0149-2.7718.1798-4.1525.3596-1.4637.1949-2.9378.3897-4.4119.4496-.654.03-1.3288.09-1.9621-.1199-.4879-.1648-1.0485-.0899-1.5468-.1049-.8927-.0299-1.7855-.0599-2.6783-.0899-1.7855-.0599-3.5711-.0899-5.367-.1049-6.7789-.045-13.5369.4946-20.3158.4196-2.88595-.0299-5.83418-.1199-8.68898-.7193-.01038-.015-.02076-.03-.03114-.045-.09343-.1798-.10381-.3896-.12458-.6144-.20762-3.6268.03115-7.3734-.11419-11.0451-.01038-.2098-.0519-1.2289-.09343-2.3979 3.45691-.4346 6.93457-.5395 10.39152-.8992 6.7684-.7193 13.5369-1.034 20.3365-.9891 13.4643.0899 26.8974 1.3338 40.3202 2.8025 13.4331 1.4687 26.8355 3.2821 40.2685 4.6608 6.789.6894 13.589 1.124 20.388 1.124 1.993 0 4.007-.1798 6.021-.3896-.01.9741-.124 1.9033-.124 2.8924.031.9441.176 1.7984.166 2.6826zm.218 25.4621c-.052-1.4986-.052-2.9973-.052-4.4959-4.287-.6744-8.585-1.3638-12.893-1.7984-7.392-.7344-14.825-.6145-22.226-.1799-1.537.09-3.052.1499-4.578.4197-.7375.1348-1.4745.2697-2.2116.3896-2.9586.5096-5.9172.9142-8.8862 1.2439-1.1523.1199-2.315.2398-3.4777.3447 3.0002-.03 6.0003-.06 9.0004-.0899 3.0002-.03 6.0001-.06 9.0001-.0899 1.495-.015 3-.03 4.495-.045.748-.015 1.495-.015 2.253-.03.312 0 .644.03.955-.0749.187-.06.374-.1649.561-.2098.674-.1499 1.422.0449 2.097.1049.747.0599 1.484.1199 2.232.1798 1.484.1349 2.979.2848 4.464.4346 2.346.2548 4.681.5395 7.017.8393 2.554.3297 5.087.7643 7.63 1.2139-5.772.7943-11.533 1.6185-17.315 2.0831-13.309 1.0641-26.6176 2.3979-39.9469 2.0082-13.1425-.3597-26.2538-1.4537-39.4066-1.3787-6.9346.0299-13.8588.1948-20.7726.4945-5.1075.2098-10.2773.1799-15.37442.9292-.10381.4945-.14534 1.049-.17648 1.5736-.0519.9291-.07267 1.8733-.14533 2.8025 5.67845.3297 11.41923-.2248 17.08733-.2398 6.9241-.015 13.8483.0749 20.7725.3147 13.1217.4496 26.2331 1.4986 39.3444 1.8284 13.3501.3446 26.6691-1.0341 39.9881-2.0082 6.872-.4946 13.786-.5096 20.658-.6145h.146c-.094-1.9932-.177-3.9565-.239-5.9497z" fill="url(#d)"/><g fill="#eb924d"><path d="m3.28491 44.9498c-.01038.7494-.01038 1.5137.15571 2.218-.30105-.1948-.56057-.4795-.69553-.8992-.11419-.3596-.10381-.7793-.10381-1.1539.01038-.3747-.03114-.7643-.01038-1.139.04152-1.4537.22838-2.8774.28029-4.3311.07267-1.7235.14533-3.4469.23876-5.1704.03115-.5245.07267-1.094.32182-1.4537.15571-.2248.35296-.3297.5502-.4346.53981-.2848 1.09001-.4946 1.65059-.6295.25953-.0899.5502-.0899.79934-.1798.30106-.1349.52944-.2248.85125-.2698 3.08315-.5245 6.16635-1.034 9.25995-1.5586-3.3116.9742-6.62315 1.9183-9.9451 2.8925-.64363.1798-1.50526.1798-2.04507.7942-.1142.1199-.20763.2698-.30106.4197-.08304.1348-.15571.2847-.24914.4196-.17648.2248-.23877.5845-.32182.8992-.218.9142-.34257 1.8733-.37371 2.8325-.01039.3596-.01039.7343-.04153 1.094-.01038.0899-.02076.1798-.03114.2697-.01038.1049-.05191.1799-.07267.2848-.1661.7343-.14534 1.5436-.07267 2.2929.03115.2698.09343.5395.13496.8093.10381.6444.03114 1.3338.02076 1.9932z"/><path d="m122.838 17.7341c-.187-.0149-.374-.0298-.561-.0446h.893c-.104 0-.218.0297-.332.0446z"/><path d="m125.891 39.96c.861.1198 1.723.2397 2.585.3297-.208.0449-.426.1049-.623.1798-.665-.1798-1.329-.3597-1.962-.5095z"/><path d="m138.578 38.1158c.135-.7793.104-1.5886.052-2.3829-.072-1.4687-.155-2.9524-.228-4.421-.01-.2848-.042-.5995-.197-.7793-.125-.1499-.301-.1499-.457-.1349-1.287.0599-2.564.1199-3.831.1798 1.381-.1798 2.751-.7043 3.997-1.5736.363-.2547.737-.5695.872-1.094.073-.2697.073-.5695.073-.8692-.021-2.3229-.301-4.9156-.499-7.2235-.602-.8243-1.505-.9292-2.335-1.0041-3.343-.2998-6.696-.5845-10.029-.8842-.799-.075-1.692-.1199-2.543-.1799 5.294-.1349 10.599-.2547 15.904-.3896.145 0 .311 0 .426.1349.135.1498.166.4046.186.6444.115 1.3188-.103 2.5327-.103 3.8365 0 .8693.145 1.7235.145 2.6227-.052 4.1662-.208 8.5124-.529 12.7535-.032.4347-.073.8843-.27 1.199-.156.2398-.384.3746-.602.4795-.135.075-.27.1349-.416.1799.177-.2998.312-.6894.384-1.094z"/><path d="m2.35284 15.2165c-.02076-.4946-.20762-6.00965-.26991-6.00965-.19724-4.03139 1.94127-7.50828 4.74416-7.64316 42.07461-2.113104 85.09381-2.038171 128.95391 0 2.813.13488 4.973 3.62676 4.755 7.68812-.073 1.37879.114 2.71259-.125 4.10629-.052.3297-.125.6594-.301.8842-.156.1949-.363.2698-.561.3297-.529.1799-1.048.3897-1.578.5545.457-.5994.987-1.3038 1.194-2.173.146-.5845.031-1.094-.104-1.6485-.207-.8693-.249-1.69351-.269-2.60769-.032-1.124.103-2.72756-.509-3.62676-.467-.67439-1.08-1.25887-1.661-1.67849-1.443-1.01909-3.114-1.24389-4.703-1.33381-.083 0-.155-.01499-.239-.01499-2.927-.13487-5.865-.14986-8.792.28475-.353.04496-.665.19483-1.007.28474-.426.1199-.935-.02997-1.371-.05994-.996-.07493-1.982-.13488-2.979-.19483-1.983-.1049-3.976-.17984-5.969-.2248-1.495-.02997-2.979-.02997-4.474-.02997-.467 0-.945 0-1.412 0-.903 0-1.806 0-2.72 0-1.256 0-2.512 0-3.7683-.01499-.0623 0-.1246 0-.1765 0-1.9932 0-3.976-.01498-5.9691-.01498-.9966 0-1.9932 0-2.9794-.01499-.4568 0-.9654.08992-1.4118-.02997-.4568-.11989-.8201-.52453-1.2977-.58448-.436-.05995-.8824.04496-1.308.10491-1.09.11989-2.1696.26976-3.2493.44959-.4879.07494-1.0277.19483-1.3495.71936-.1142.17984-.1972.40464-.3322.5545-.3011.31472-.7267.10491-1.0796-.07493-.6956-.34469-1.4326-.53952-2.1801-.58448-.6747-.04496-1.3391.13488-2.0139.07494-.4256-.02998-.8305-.17984-1.2457-.29973-1.6402-.46459-3.3531-.49456-5.0037-.6744-1.225-.13488-2.4603-.2248-3.6957-.28475-3.9759-.20981-7.9623-.08991-11.9279.14987-1.9931.11989-3.9759.26976-5.9691.4496-.9135.07493-1.9205.35968-2.8236.17984-.2596-.04496-.5087-.19483-.7682-.26976-.27-.07493-.5399-.05995-.8202-.05995-1.1003.01499-2.2111.02998-3.3115.02998-1.2873.01498-2.5849 0-3.8826 0-.436 0-.8616.11989-1.2872.11989-.3945 0-.7786-.11989-1.1731-.11989-.8201.01498-1.6298.23978-2.3876.68938-.2907.17984-.5917.37466-.9136.35968-.5813-.04496-.9758-.83925-1.5052-1.19893-1.2458-.854236-2.533.7793-3.8099.11989-.6332-.3297-1.2769-.28474-1.9516-.28474-.8513-.01499-1.7025-.01499-2.5538-.01499-2.8859.01499-5.7719.16485-8.637.58448-1.4326.20981-2.85485.49455-4.27705.85423-.68516.17984-1.38069.46459-2.07622.58448-.19724.02997-.35296.02997-.53982.2248-.85125.85423-3.187 5.63495-1.51564 7.31343.10381.1049.218.1948.34258.2698.17647.1049.36333.1498.55019.2398.18686.1049.42563.0299.62287.0299.47753 0 .95506 0 1.42221-.015.50867 0 1.01735-.0149 1.49488.1949-1.07964.3297-2.15927.6444-3.2389.9591-.35296.1049-.70592.2098-1.03811.4196-.05191.045-.1142.06-.17648.09-.22839.1199-.39448.5245-.47753.8392-.21801.8243-.08305 1.7235-.17648 2.5777-.1661 1.5286.04152 3.1772.14533 4.6908.13496 1.9483.30106 3.9115.4983 5.8598-.20762-.045-.40487-.075-.61249-.105-.19724-.0299-.40486-.0749-.53981-.2997-.09343-.1798-.10382-.3896-.12458-.6144-.20762-3.6568.03115-7.4034-.10381-11.0601z"/><path d="m140.592 58.9464c-.145-2.9523-.27-5.9047-.374-8.8571-.062-1.9932-.052-3.9864-.052-5.9796 0-.4496-.01-.9292-.187-1.3038-.238-.4796-.695-.5845-1.1-.6594-3.478-.6445-6.966-1.154-10.464-1.5137 3.114.8692 6.332 1.9782 9.291 3.1622.581.2398.623.8842.862 1.6785.228.7943.249 1.6935.269 2.5477.011.3597.011.7194-.072 1.064-.177.7644-.737 1.184-1.236 1.5437.374.1498.748.2997 1.132.4645.093.045.187.075.249.1799.073.1049.104.2847.114.4496.146 1.4237.031 2.9224.042 4.3611.01.9291.01 1.8583.021 2.7875.01.2547.072.4945.114.7643.062.5395.021 1.094-.094 1.6185-.228 1.0791-.737 2.0382-1.391 2.6527-1.131 1.064-2.543 1.2888-3.893 1.4237-2.252.2398-4.515.2098-6.758.5245-.747.0899-1.484.1949-2.232.2848-1.484.1798-2.979.3297-4.464.4795-2.813.2698-5.636.4796-8.45.6145-6.664.3297-13.3394.2997-20.0145.2398-.7993-.03-1.6091-.03-2.4084-.03-.654 0-1.2769.1199-1.9205.03-1.5676-.2248-3.1247.1798-4.6819.4346-1.8167.2847-3.7683.3147-5.3359-1.0341-.4983-.4346-.9862-1.0041-1.5675-1.0341-.4775-.0149-.9239.3747-1.3599.6744-.8305.5695-1.7441.8842-2.6576 1.0491-.0208 0-.0311 0-.0519.015-1.9413.3597-3.8099.1648-5.7511-.03-1.4222-.1349-2.9171.2098-4.277-.5245-1.0485-.5545-2.1489-1.3488-3.2286-.9292-.3841.1499-.7266.4496-1.09.6594-.7059.4047-1.4845.4796-2.2423.5395-.4775.03-.9551.06-1.4326.09-1.9828.0899-3.9759.0749-5.9587-.045-.8305-.06-1.6818-.045-2.4915-.3897-.5606-.2397-1.1108-.0899-1.6921-.0299-2.4084.2248-4.8272.2847-7.246.1648-.9862-.0449-1.9724-.1199-2.9483-.2248-.4775-.0449-.9758-.1798-1.4533-.1798-.3322 0-.6333.1499-.9655.1499-2.0035-.015-3.9967-.06-6.0002-.09-3.4154-.0449-6.8412-.1049-10.2566-.1498-2.3357.4645-4.2977-.1199-6.61271-.7344-1.89974-.5095-3.96558-1.6185-4.75454-4.1662-.3322-1.0641-.3841-2.248-.35296-3.387.01038-.3447.03114-.6744 0-1.0191-.03114-.3147-.10381-.5995-.13495-.9142-.10381-1.0341.11419-2.233.29067-3.2371.09343-.5095.20762-1.049.46715-1.4387.22838-.3597.55019-.5695.87201-.7194.85125-.3896 1.7544-.4795 2.64718-.5545 1.28725-.1049 2.57451-.2248 3.86175-.3297.2595-.0149.5191-.0449.7786-.0599-.0311-.1798-.0519-.3597-.0519-.5545l.0104-.0749c-.789-.03-1.578-.03-2.36692-.045-2.03469.0599-4.75454.045-6.14561 1.5436-.62286.6744-.73705 1.9183-.79934 3.0273-.06229 1.094-.08305 2.218-.18686 3.312-.03114.3297-.12457.5995-.18686.9142-.04152.2098-.0519.4047-.06229.6145-.04152 1.1839.02077 2.3678.3322 3.4469.69553 2.4578 2.44994 4.391 4.3393 4.391 42.32368 2.6826 85.34298 2.6527 129.04758-.0149 2.782-.1649 4.91-3.6268 4.713-7.6432z"/><path d="m9.89453 37.1709c0 .8093.02076 1.6335.05191 2.4428.01038.4046.03114.8093.0519 1.2139.01036.2997 0 .6294.04156.9142.0415.2398.083.4496.083.7044.0208.6893.0415 1.3937.0727 2.0831.0415 1.3937.0934 2.7725.1349 4.1663.0623 1.7834.1142 3.5518.1765 5.3352.0312.9891.1454 1.8433.5087 2.6826.0727.1648.1349.3297.218.4795.1349.2548.301.4347.5087.5695.7578.4796 1.6194.7344 2.4395.9142 1.2665.2848 2.5434.3597 3.8203.4196 16.8277.8543 33.6763 1.7235 50.5144 1.124 2.0554-.0749 4.1836-.1498 6.0937.9592-.872-2.248-2.9794-2.5777-4.7649-2.6377-18.7068-.6144-37.4239-1.3038-56.0683-3.5518-.5087-.0599-1.0693-.1498-1.4326-.6894-.2596-.3746-.3634-.9141-.4464-1.4237-.9551-5.56-1.1419-11.3898-.5606-17.0547.0311-.3447.1038-.7194.0934-1.0641-.0103-.3596-.0415-.7193-.0415-1.094-.0104-.7493.0104-1.5136.0623-2.2629-.0727-.1799-.2492-.1799-.3841-.1499-.353.0599-.7059.1049-1.06926.1648.02076.4946 0 .9592-.04152 1.4537-.01038.1649.01038.2848.02076.4496.02076.3297-.02076.6744-.03114.9891-.02077.4796-.03115.9742-.04153 1.4537 0 .4646-.01038.9442-.01038 1.4088z"/><path d="m75.3479 61.4514c.2076-.7643.9032-.8992 1.4741-.9142 4.5366-.1348 9.0627-.2547 13.5993-.3896 4.277-.1199 8.5644-.2398 12.8417-.3747 1.38-.0449 2.854-.0449 3.996 1.0791-.02-.2398-.051-.4796-.072-.7194.488-.1199.955-.2698 1.453-.2098.27.03.55-.1049.82-.1499.633-.1199 1.277-.1648 1.91-.2098 3.52-.2248 7.049-.2997 10.579-.5545.892-.0599 1.775-.1499 2.668-.2398.882-.0899 1.775-.1648 2.647-.3447.124-.0299.239-.0899.363-.1049.166-.015.332-.0299.498-.0449.893-.1049 1.796-.3447 2.627-.8992 1.038-.6894 1.951-1.9183 2.284-3.4919.145-.7044.176-1.4387.207-2.1731.104-3.357.073-6.7289-.104-10.0709-.114-.1649-.404.1348-.446.3746-.426 2.4428-.747 4.9156-.955 7.4034-.125 1.4837-.228 3.0573-.862 4.2262-.695 1.2739-1.858 1.7834-2.958 2.1431-5.845 1.9483-11.887 2.1431-17.876 2.3229-5.585.1649-11.1705.3447-16.7452.5096-4.6507-.2248-9.4156.8392-14.0352.1198-1.2976-.2098-2.6057-.5395-3.9033-.2697-.0934.015-.1972.045-.2699.1499-.0519.0749-.0623.1798-.0831.2847-.1557.7793.0935 1.7684.3426 2.5477z"/></g><path d="m133.056 47.2288c-.01-2.8475-.031-5.6949-.051-8.5573-.011-2.7426-.032-5.4701-.042-8.2127-.021-3.297.073-6.624-.197-9.8911-.052-.6444-.166-1.3038-.156-1.9483.01-.9741-.125-1.7234-.426-2.6526-.384-1.2588-.934-2.4128-1.557-3.4619-1.349-2.3079-3.291-2.4128-5.315-2.5327-2.128-.13487-4.246-.01498-6.363-.02997-2.367-.01499-4.745-.02997-7.112-.05994-2.885-.02998-5.761-.07494-8.647-.1199s-5.7719-.08992-8.6578-.13488c-1.443-.01498-2.8859-.04496-4.3289-.05994-.3011 0-.6125-.04496-.9032.05994-.1868.05995-.3529.16486-.5398.19483-.6436.08992-1.3807-.14987-2.0139-.32971.083-2.14307.3426-4.27116.7786-6.33931-.5918 2.12809-1.2665 4.21122-2.0347 6.21942-.0519.13488-.1038.26976-.1973.32971-.0934.05994-.2076.04496-.301.02997-.218-.04496-.4464-.07493-.6644-.14987-.4983-.17984-1.0277-.1049-1.5468-.1049-2.2319-.02997-4.4535-.04496-6.6854-.05995-4.3808-.02997-8.7617-.01498-13.1321.02998-4.6923.04495-9.3845-.04496-14.0872-.07494-1.2768-.01498-2.5537-.02997-3.8202-.02997-.5502 0-1.0796-.02997-1.6091.13488-.5502.17984-1.2249.02997-1.7855-.01499-.3115-.02997-.6437-.07493-.8928-.35968-.2491-.26975-.3633-.70436-.4775-1.12399-.2284-.86922-.4568-1.73844-.6852-2.60766.0312 1.01909.1038 2.02319.218 3.02729.0312.3297.0519.74932-.1557.91418-.0623.04496-.1453.05994-.218.07493-.2491.02997-.5087.11989-.7578.04496-.4775-.13488-.9551-.08992-1.443-.08992-5.3359 0-10.651-.02997-15.9661-.05995-2.9794-.01498-10.1423-2.20302-11.1182 3.64178-.1349.8092-.1245 1.6485-.16607 2.4877-.10381 2.5178-.04152 5.0505-.01038 7.5832.08305 8.3475.24915 16.695.47755 25.0276.0311 1.2738.0726 2.5627.1868 3.8365.0935 1.0041.0416 2.3229.5918 3.1022.1868.2698.3218.5246.4879.8393.3322.6145.7889 1.079 1.2872 1.4087 1.0693.7194 2.3046.9142 3.4881.9892 3.8617.2697 7.7131.4945 11.5645.6594 3.8826.1798 7.7547.3446 11.6372.4496 3.8826.1049 7.7547.1798 11.6372.2098 3.5192.0299 7.0384.0449 10.5576.0599h5.3878c1.9413 0 4.2874-.8692 6.0729.4646.8928.6594 1.6403 1.7235 2.0659 3.0423-.0727-1.0641-.0519-2.1431.0623-3.2072 1.4118-.2847 2.8236-.4645 4.2458-.4945.6125-.015 1.2042.1199 1.8167.1049.7163 0 1.443-.015 2.1593-.015 2.8859-.03 5.7719-.0599 8.6578-.1049 1.7856-.03 3.5711-.0599 5.3671-.0899 3.882-.06 7.755-.1948 11.637-.4047.696-.0449 1.402-.0749 2.097-.1198 5.346-.2998 10.693-.7494 16.029-1.3638.456-.06.892-.1199 1.318-.2398.685-.1948 1.329-.5395 1.889-1.2289.685-.8393 1.35-1.7384 1.807-2.8475.737-1.7834.55-3.8215.539-5.8447zm-2.896 3.8665c-.28.6744-.799 1.3488-1.225 1.8584-.104.1199-.259.2697-.664.3746-.301.0899-.654.1349-1.007.1799-5.118.5844-10.475 1.034-15.914 1.3637-.696.045-1.381.075-2.077.1049-4.069.2099-7.848.3447-11.5642.4047-11.0351.1948-21.9041.2997-32.3267.2997-4.6715 0-9.343-.015-14.0249-.0599-3.841-.045-7.7547-.1049-11.5957-.2098-3.841-.105-7.7443-.2548-11.5957-.4347-3.8513-.1798-7.7339-.4046-11.5333-.6744-.8409-.0449-1.796-.1648-2.4707-.6144-.1661-.1199-.2492-.2098-.27-.2398-.1245-.2398-.2802-.5245-.4567-.8242-.0104-.1499-.0208-.3148-.0312-.4496-.0207-.2698-.0311-.5246-.0519-.7793-.0934-1.0791-.1245-2.1881-.1661-3.5219-.2387-8.2426-.4048-16.6351-.4775-24.9226l-.0104-1.4088c-.0311-2.0531-.0519-3.9864.0312-5.8897.0103-.2098.0103-.4346.0207-.6744.0104-.4646.0208-.8842.0623-1.124.0934-.5095 1.09-1.034 3.1559-1.034 1.0173 0 2.1073.1198 3.0624.2247.8201.105 1.5987.1799 2.2631.1799 4.7441.03 9.4987.0449 14.2532.0449h2.668c3.5503 0 7.1006.015 10.6613.045l3.4258.03c2.5018.03 5.0141.0449 7.5159.0449 1.0485 0 2.1074 0 3.1766-.0149 2.6472-.03 5.284-.045 7.9312-.045 8.9589 0 18.0942.1499 26.9182.2847 6.9242.1049 14.0972.2098 21.1152.2548l.342.015c.623 0 1.225-.015 1.848-.015.602-.015 1.205-.015 1.796-.015.872 0 1.599.015 2.253.06h.073c1.899.1348 2.782.2697 3.301 1.1539.529.8992.893 1.7235 1.142 2.5178.187.6144.187.7793.187 1.0191-.011.7793.072 1.4537.124 1.9932.011.1498.031.3297.052.4795.187 2.278.177 4.6159.177 7.1037-.011.7793-.011 1.5586 0 2.3379l.093 16.725c.01.3746.01.7193.021 1.064.01 1.184.031 2.233-.208 2.7875z" fill="url(#e)"/><g fill="#eb924d"><path d="m9.94836 31.882 3.17664-.9142-.135-.4346-3.29078.5695z"/><path d="m129.492 18.1995 3.686.4496v-1.1989l-3.987.2548z"/><path d="m129.751 41.1139 4.08 1.124-.083-.9441-4.381-.5545z"/><path d="m117.825 36.0779c-3.104-2.5027-8.263-1.7384-10.723 1.6335-1.547 2.1281-1.63 6.0996 0 8.2127 3.581 4.6608 9.872 2.6676 12.145-3.0873.042-.0599.084-.1199.135-.1648 1.734-2.263.499-6.0246-1.557-6.5941z"/></g><path d="m118.56 33.8748c-3.104-2.5028-8.264-1.7385-10.724 1.6335-1.547 2.1281-1.63 6.0996 0 8.2127 3.581 4.6608 9.872 2.6676 12.146-3.0873.041-.0599.083-.1199.135-.1648 1.733-2.263.498-6.0246-1.557-6.5941z" fill="url(#f)"/><path d="m117.825 35.2986c-3.104-2.5027-8.263-1.7384-10.723 1.6335-1.547 2.1281-1.63 6.0996 0 8.2127 3.581 4.6608 9.872 2.6676 12.145-3.0872.042-.06.084-.1199.135-.1649 1.734-2.263.499-6.0246-1.557-6.5941z" fill="url(#g)"/><path d="m106.017 26.8463c-1.962-1.5886-5.211-1.094-6.7577 1.0341-.9759 1.3338-1.0278 3.8515 0 5.1853 2.2627 2.9374 6.2287 1.6785 7.6617-1.9482.031-.03.051-.0749.083-.1049 1.09-1.4387.311-3.8066-.987-4.1663z" fill="#eb924d"/><path d="m106.482 25.4674c-1.962-1.5886-5.211-1.094-6.7579 1.0341-.9758 1.3338-1.0277 3.8515 0 5.1853 2.2629 2.9374 6.2289 1.6785 7.6609-1.9482.032-.03.052-.0749.083-.1049 1.09-1.4537.312-3.8216-.986-4.1663z" fill="url(#h)"/><path d="m106.017 26.3502c-1.962-1.5886-5.211-1.094-6.7577 1.0341-.9759 1.3488-1.0278 3.8516 0 5.1854 2.2627 2.9374 6.2287 1.6785 7.6617-1.9483.031-.03.051-.0749.083-.1049 1.09-1.4387.311-3.8066-.987-4.1663z" fill="url(#i)"/><path d="m26.1346 42.0406c-1.9621-1.5885-5.2114-1.094-6.7581 1.0341-.9759 1.3338-1.0278 3.8516 0 5.1854 2.263 2.9374 6.2286 1.6785 7.6612-1.9483.0312-.0299.0519-.0749.0831-.1049 1.09-1.4387.3114-3.8066-.9862-4.1663z" fill="#eb924d"/><path d="m26.5994 40.649c-1.962-1.5885-5.2113-1.094-6.7581 1.0341-.9758 1.3488-1.0277 3.8516 0 5.1854 2.2631 2.9374 6.2287 1.6785 7.6612-1.9483.0312-.0299.052-.0749.0831-.1049 1.09-1.4387.3114-3.8066-.9862-4.1663z" fill="url(#j)"/><path d="m26.1346 41.5475c-1.9621-1.5886-5.2114-1.094-6.7581 1.0341-.9759 1.3487-1.0278 3.8515 0 5.1853 2.263 2.9374 6.2286 1.6785 7.6612-1.9482.0312-.03.0519-.075.0831-.1049 1.09-1.4388.3114-3.8066-.9862-4.1663z" fill="url(#k)"/><path d="m15 18c0-3.3137 2.6863-6 6-6h97.484c5.522 0 10 4.4772 10 10v25.4572c0 5.5228-4.478 10-10 10h-95.484c-4.4183 0-8-3.5817-8-8z" fill="#eb924d" opacity=".9"/><path d="m27.3086 31.5625c.0469.0156.0859 0 .1172-.0469.0312-.0468.0625-.0859.0937-.1172.0782-.0468.1328-.0781.1641-.0937.0312-.0313.0625-.0625.0937-.0938.1563-.1093.25-.1718.2813-.1875l.1875-.1875c.1562-.0625.25-.1171.2812-.164.0469-.0469.1016-.0938.1641-.1407.0469-.0468.0781-.0781.0938-.0937.0312-.0313.0625-.0625.0937-.0937.125-.0782.2031-.125.2344-.1407.0469-.0156.0859-.0312.1172-.0469.1562-.1406.2578-.2265.3047-.2578.0625-.0312.125-.0625.1875-.0937.0625-.0625.1328-.1094.2109-.1406.0781-.0469.1484-.1094.2109-.1875.0469-.0313.086-.0469.1172-.0469.0469-.0156.086-.0391.1172-.0703.0938-.0625.1484-.1016.1641-.1172.0156-.0313.039-.0469.0703-.0469.0312-.0312.0781-.0469.1406-.0469h.2109c.1407-.0156.2188-.0156.2344 0 .0313.0157.0625.0313.0938.0469.125.0938.1953.1406.2109.1406.0313 0 .0625.0157.0938.0469.1406.0938.2031.1406.1875.1406-.0157-.0156-.0079-.0078.0234.0235.1719.0937.2656.1484.2812.164l.211.1875c.0312.0313.0703.0625.1172.0938.0468.0312.0781.0703.0937.1172.1406.1094.2188.164.2344.164.0781.0469.1641.1328.2578.2578.1406.0782.2188.1172.2344.1172.1094.0625.1797.125.2109.1875.125.0313.2266.1094.3047.2344.0781.1094.1875.1953.3281.2578.0157.0625.0469.1094.0938.1407.0469.0156.0781.0624.0937.1406.0469 0 .086-.0235.1172-.0703.0469-.0469.086-.0782.1172-.0938.1094-.0156.1719-.0312.1875-.0469.0156-.0312.0391-.0625.0703-.0937.0625-.0313.1016-.0625.1172-.0938.0313-.0312.0625-.0625.0938-.0937.1562-.0625.2343-.0938.2343-.0938 0-.0156.0078-.0234.0235-.0234.125-.125.1953-.1875.2109-.1875l.0469-.0469c.1719-.0937.2734-.164.3047-.2109.0468-.0625.1015-.1172.164-.1641.1563-.1094.25-.164.2813-.164.125-.1094.2109-.1719.2578-.1875.1562-.1407.2656-.2266.3281-.2579.0625-.0312.1172-.0624.1641-.0937.0781-.0625.1562-.1094.2344-.1406.0781-.0469.1406-.1094.1875-.1875.0468-.0156.0859-.0313.1171-.0469.0469-.0156.0938-.0391.1407-.0703.125-.1094.1953-.1641.2109-.1641.0313-.0312.0859-.0469.1641-.0469h.2109c.125 0 .1953.0079.2109.0235.0313 0 .0625.0156.0938.0469.125.0781.1953.1172.2109.1172.0313 0 .0625.0156.0938.0468.1406.0938.2109.1328.2109.1172s.0078-.0078.0235.0234c.1406.125.2265.1876.2578.1876l.2109.164c.0469.0469.0859.086.1172.1172.0469.0312.0781.0703.0937.1172.1094.0469.2032.1094.2813.1875.0937.0781.1797.1562.2578.2344.1563.0937.2578.164.3047.2109.0469.0312.0859.0625.1172.0938.125.0468.2187.125.2812.2343.0782.1094.1797.1953.3047.2578.1406.1563.2266.2657.2578.3282.0313.0625.0625.1171.0938.164.1094.1094.1953.211.2578.3047.2031.2344.3359.4375.3984.6094s.1328.3437.211.5156l.0234.4219.0469.2812c0 .0938.0156.1875.0469.2813.0156.0625.0156.1172 0 .164-.0157.0469-.0313.1016-.0469.1641.0156.1719.0156.2891 0 .3516v.164.1172c.0156.0469.0156.1016 0 .1641-.0313.1875-.0547.3203-.0703.3984 0 .0782.0078.1719.0234.2813.0156.1562.0078.2656-.0234.3281-.0157.0625-.0235.1328-.0235.2109-.0156.0469-.0234.1016-.0234.1641.0156.0469.0234.0938.0234.1406.0313.2188.0313.4688 0 .75.0157.1563.0157.2344 0 .2344v.0234c.0157.1094.0157.1719 0 .1875v.0703c.0157.0626.0235.1563.0235.2813v.1875c.0156.0156.0234.0391.0234.0703l-.0469.2813c.0157.0781.0235.1484.0235.2109v.1641c0 .125-.0078.2578-.0235.3984 0 .125.0078.25.0235.375.0312.125.0468.2734.0468.4453 0 .1563.0079.3125.0235.4688.0312.2187.0469.3593.0469.4218.0156.1719.0156.336 0 .4922 0 .1563.0078.3203.0234.4922v.1172c.0156.0469.0156.1016 0 .1641-.1563.1718-.25.2734-.2813.3046-.1093.0469-.1796.0704-.2109.0704-.0156 0-.0391.0078-.0703.0234-.1563.0469-.2578.0625-.3047.0469-.0312 0-.0703 0-.1172 0-.0781 0-.1719-.0078-.2812-.0235-.0938 0-.1875 0-.2813 0-.2031 0-.3437 0-.4219 0-.0625.0157-.1328.0235-.2109.0235-.1719 0-.2734-.0078-.3047-.0235-.0312 0-.0625 0-.0937 0-.0625 0-.1172 0-.1641 0-.0469.0157-.1016.0157-.1641 0-.1562-.0312-.2421-.0468-.2578-.0468-.0312-.0157-.0703-.0157-.1172 0-.0468 0-.0937.0078-.1406.0234-.0469 0-.0937 0-.1406 0-.0469-.0156-.0859-.0234-.1172-.0234-.1562.0468-.3203.0703-.4922.0703-.1562 0-.2656-.0157-.3281-.0469-.2031-.1406-.3047-.3047-.3047-.4922s.0078-.3672.0234-.539c0-.0469-.0078-.0938-.0234-.1407 0-.0625.0078-.1172.0234-.164.0157-.1094.0313-.2032.0469-.2813.0313-.0781.0547-.1797.0703-.3047 0-.1719.0078-.2969.0235-.375.0312-.0937.0468-.1797.0468-.2578v-.2578c.0157-.125.0157-.1953 0-.2109 0-.0157 0-.0313 0-.0469.0157-.1563.0235-.2344.0235-.2344.0156-.0156.0234-.0391.0234-.0703.0156-.1562.0156-.2344 0-.2344 0-.0156.0078-.0234.0235-.0234l.0234-.3281c-.0156-.1875-.0234-.2813-.0234-.2813.0156-.0156.0234-.039.0234-.0703 0-.0469-.0078-.1094-.0234-.1875-.0157-.0781-.0235-.1484-.0235-.2109v-.4453c-.0156-.1563-.0234-.2422-.0234-.2579.0156-.0156.0234-.0312.0234-.0468-.0312-.1094-.0469-.1953-.0469-.2579.0157-.0781.0157-.1406 0-.1874.0157-.2188.0235-.3829.0235-.4922 0-.125-.0156-.2188-.0469-.2813.0313-.0469.0391-.0937.0234-.1406 0-.0625 0-.125 0-.1875 0-.1406-.0078-.2578-.0234-.3516-.0156-.0937-.0078-.164.0234-.2109-.0468-.1406-.0781-.2422-.0937-.3047 0-.0625-.0313-.1094-.0938-.1406-.1406-.125-.2109-.2032-.2109-.2344-.1562-.0469-.2812-.0312-.375.0469-.125.1093-.1953.164-.2109.164-.0157-.0156-.0235-.0156-.0235 0-.1562.1094-.2422.1719-.2578.1875 0 .0157-.0156.0313-.0469.0469-.1406.0938-.2187.1485-.2343.1641 0 .0156-.0157.0312-.0469.0468-.1406.125-.2266.1954-.2578.211-.0156.0156-.0391.039-.0703.0703-.1094.0781-.1953.1484-.2578.2109s-.125.1172-.1875.1641c-.0938.0625-.1641.1094-.211.1406-.0312.0313-.0625.0625-.0937.0938-.0313.0312-.0703.0703-.1172.1172-.0313.0468-.0547.1015-.0703.164 0 .0781.0078.1641.0234.2578.0156.0938.0234.1797.0234.2579-.0156.0624-.0234.1171-.0234.164.0156.0313.0234.0703.0234.1172v.4453c0 .1563-.0078.2422-.0234.2578v.0703.1407c.0156.0468.0234.0937.0234.1406.0157.1875.0157.2969 0 .3281-.0156.0313-.0312.0625-.0468.0938.0156.1562.0234.2578.0234.3046.0156.0469.0234.1016.0234.1641 0 .1406-.0078.2813-.0234.4219-.0156.125-.0078.2422.0234.3516.0313.1406.0469.289.0469.4453 0 .1562.0078.3203.0235.4921 0 .1876.0078.2969.0234.3282.0156.0156.0234.039.0234.0703v.9844c.0313.1406.0391.2421.0235.3047-.1094.1562-.1797.2343-.211.2343-.0156 0-.039.0157-.0703.0469-.125.0625-.2031.0938-.2344.0938-.0312 0-.0625.0078-.0937.0234-.1406.0469-.2344.0625-.2813.0469-.0312 0-.0625 0-.0937 0-.0781 0-.1719-.0079-.2813-.0235-.0937 0-.1953 0-.3046 0-.1875-.0156-.3594-.0078-.5157.0235-.0625 0-.125-.0079-.1875-.0235-.0625 0-.1328 0-.2109 0s-.1484 0-.2109 0c-.0625.0156-.1329.0156-.211 0-.1562-.0312-.2422-.0468-.2578-.0468-.0156-.0313-.0547-.0391-.1172-.0235s-.125.0235-.1875.0235c-.1719 0-.2656 0-.2812 0-.0157.0156-.0313.0234-.0469.0234-.125.0156-.2031.0234-.2344.0234-.0312.0156-.0703.0235-.1172.0235-.0625-.0157-.1172-.0469-.164-.0938-.0469-.0312-.1094-.0547-.1875-.0703-.0313-.1094-.0625-.2109-.0938-.3047-.0156-.1094-.0312-.2265-.0469-.3515-.0156-.0469-.0234-.0938-.0234-.1407.0156-.0625.0234-.1172.0234-.164-.0156-.0938-.039-.1797-.0703-.2579-.0156-.0937-.0156-.1953 0-.3046l.0469-.3282c0-.1093 0-.1796 0-.2109.0156-.0469.0313-.0937.0469-.1406 0-.0781-.0078-.1563-.0235-.2344 0-.0937.0079-.1797.0235-.2578.0156-.125.0156-.1953 0-.2109 0-.0157 0-.0313 0-.0469.0156-.1563.0234-.2344.0234-.2344.0156-.0156.0235-.0391.0235-.0703 0-.1719.0078-.2578.0234-.2578 0-.1719 0-.2656 0-.2813.0156-.0156.0234-.039.0234-.0703l-.0234-.3281c0-.0469-.0078-.1016-.0234-.1641 0-.0781 0-.1562 0-.2344v-.4453c-.0157-.1718-.0235-.2578-.0235-.2578.0156-.0156.0235-.0312.0235-.0469-.0469-.0937-.0704-.1796-.0704-.2578.0157-.0781.0235-.1406.0235-.1875.0156-.2187.0234-.3828.0234-.4921 0-.125-.0156-.2266-.0469-.3047.0313-.0313.0391-.0782.0235-.1407s-.0156-.1172 0-.164c0-.1406-.0078-.2578-.0235-.3516-.0156-.0937-.0078-.1562.0235-.1875-.0313-.1562-.0547-.2656-.0703-.3281 0-.0781-.0313-.1328-.0938-.1641-.1406-.0937-.2109-.164-.2109-.2109-.1563-.0313-.2656-.0313-.3281 0-.0625.0156-.1172.0469-.1641.0937-.1094.125-.1719.1875-.1875.1875 0 0-.0078.0078-.0234.0235-.1094.1406-.1954.2422-.2579.3047-.0468.0468-.0937.1015-.1406.164-.0937.1094-.1484.1719-.164.1875-.0157.0157-.0313.0391-.0469.0703-.1875.1094-.3203.1954-.3985.2578-.0625.0469-.1406.0704-.2343.0704-.0782-.0157-.1407-.0469-.1875-.0938-.0469-.0625-.1094-.1094-.1875-.1406-.0313-.0781-.0782-.1406-.1407-.1875-.0468-.0469-.0859-.1094-.1171-.1875-.0938-.1563-.1485-.2422-.1641-.2578-.0781-.1094-.1328-.1875-.1641-.2344-.0156-.0625-.039-.1094-.0703-.1406l-.0703.5625v1.1719c0 .0468-.0078.1015-.0234.164v.1406c.0156.125.0312.25.0468.375.0157.1094.0079.2188-.0234.3282.0469.0781.0625.164.0469.2578 0 .0937.0078.1875.0234.2812v.2813c.0156.1719.0235.2812.0235.3281.0156.0312.0234.0625.0234.0938-.0313.1874-.0391.3124-.0234.375.0156.0624.0234.1328.0234.2109-.0156.0625-.0156.1328 0 .2109.0156.0782.0234.1406.0234.1875s-.0078.0938-.0234.1407c0 .0468.0078.0937.0234.1406.0313.1718.0469.3125.0469.4218.0313.1563.0469.3438.0469.5626.0156.0624.0234.1718.0234.3281.0313.1406.0391.2187.0235.2343v.0704c.0156.0937.0312.1718.0468.2343.0157.0469.0235.0938.0235.1407-.0157.1406-.0235.2265-.0235.2578.0157.0156.0235.039.0235.0703-.0469.1562-.0703.2734-.0703.3515 0 .0782-.0157.1407-.0469.1876-.1719 0-.2969 0-.375 0-.0625.0156-.1328.0468-.211.0937-.1718 0-.3046 0-.3984 0-.0781.0156-.1562.0078-.2344-.0234-.1562-.0469-.25-.0703-.2812-.0703-.0156.0156-.0469.0234-.0938.0234l-.5156-.0234c-.1719-.0313-.2969-.0469-.375-.0469-.0625 0-.1328-.0078-.2109-.0235l-.2813-.0234h-.3515c-.0469.0312-.1407.0469-.2813.0469-.125.0156-.2031.0156-.2344 0-.0156 0-.039 0-.0703 0-.0469 0-.0937 0-.1406 0-.0313.0156-.0781.0234-.1406.0234-.0938-.0312-.1953-.0234-.3047.0235-.1563-.0626-.2422-.0938-.2578-.0938-.0157 0-.0235-.0078-.0235-.0234l-.1406-.2344c-.0156-.0781-.0234-.1328-.0234-.1641.0156-.0469.0234-.0937.0234-.1406 0-.0937-.0078-.1875-.0234-.2813 0-.0937 0-.1796 0-.2578l.0234-.2812c.0156-.0625.0234-.125.0234-.1875s.0079-.1172.0235-.1641c.0469-.1875.0625-.3047.0469-.3515 0-.0625.0156-.125.0468-.1875-.0312-.0782-.039-.1641-.0234-.2578.0156-.0938.0234-.1797.0234-.2579.0157-.1562.0157-.2421 0-.2578 0-.0156 0-.039 0-.0703l.0235-.4219c0-.0937-.0078-.1797-.0235-.2578-.0156-.1719-.0234-.2734-.0234-.3047.0156-.0468.0234-.0859.0234-.1172 0-.0468-.0078-.0937-.0234-.1406-.0156-.0468-.0078-.0859.0234-.1172 0-.1406 0-.2578 0-.3515 0-.2031-.0078-.3281-.0234-.375s-.0078-.086.0234-.1172v-.4688c0-.1718-.0078-.2812-.0234-.3281-.0156-.0625-.0234-.125-.0234-.1875 0-.0781.0078-.1484.0234-.2109.0156-.0782 0-.1485-.0469-.211.0313-.1562.0469-.2656.0469-.3281.0156-.1719.0156-.2578 0-.2578 0 0 0-.0078 0-.0234v-.4922c-.0156-.2188-.0234-.3672-.0234-.4453-.0157-.1563-.0235-.2813-.0235-.375 0-.1094-.0078-.2032-.0234-.2813.0156-.125.0156-.2031 0-.2344 0-.0468.0156-.0625.0469-.0468-.0157-.25-.0391-.4141-.0704-.4922-.0156-.0938-.0078-.1797.0235-.2578-.0156-.0469-.0313-.086-.0469-.1172 0-.0469-.0078-.1094-.0234-.1875.0156-.125.0156-.2032 0-.2344 0-.0469 0-.0859 0-.1172-.0157-.1875-.0235-.2969-.0235-.3281.0157-.0313.0235-.0781.0235-.1406-.0313-.1719-.0391-.2813-.0235-.3282.0157-.0468.0235-.1093.0235-.1875 0-.2031-.0078-.3281-.0235-.375 0-.0468 0-.1015 0-.164 0-.1406-.0156-.2422-.0468-.3047-.0157-.0625-.0235-.1563-.0235-.2813l-.0469-.3046c-.0156-.0782-.0312-.1329-.0468-.1641 0-.0469.0078-.1094.0234-.1875.0938-.1563.1328-.2344.1172-.2344.125-.1719.2187-.2578.2812-.2578.1407-.0156.2266-.0156.2579 0 .0468.0156.0859.0234.1171.0234.0469 0 .0938-.0078.1407-.0234.0625-.0312.1172-.0469.164-.0469.1407-.0156.2188-.0234.2344-.0234.0313-.0156.0625-.0313.0938-.0469.0468 0 .0937.0078.1406.0234.0625 0 .1094-.0078.1406-.0234h.4688c.0937 0 .1796-.0156.2578-.0469.0468-.0156.1093-.0156.1875 0 .0781.0157.1406.0469.1875.0938.0781-.0313.1484-.0391.2109-.0235h.1875c.1719.0313.3125.0469.4219.0469.125-.0156.2344-.0078.3281.0235.0781-.0313.1719-.0391.2813-.0235.1093.0157.2031 0 .2812-.0469.1406.0469.2266.0704.2578.0704.1719.1562.2813.2656.3281.3281.0469.0469.0625.1328.0469.2578-.0781.2031-.1172.3516-.1172.4453.0157.0938.0078.1875-.0234.2813 0 .0781-.0078.1406-.0234.1875-.0157.0468-.0235.0859-.0235.1172-.0156.0624-.0312.1171-.0469.164 0 .0469-.0078.1016-.0234.1641-.0312.1406-.0469.2422-.0469.3047.0157.0625.0078.1328-.0234.2109zm25.8984 7.5234c.0313.0469.0703.0625.1172.0469s.0938-.0312.1406-.0469c.2188-.0468.3594-.0703.4219-.0703.0625-.0156.1328-.0312.211-.0468.125-.0313.25-.0704.375-.1172.1406-.0625.2812-.1094.4218-.1407.0313-.0156.0703-.0234.1172-.0234.0625-.0156.1094-.0313.1406-.0469.0938-.0625.1641-.1015.211-.1172.0625-.0312.1094-.0625.1406-.0937.1563-.125.2578-.1953.3047-.2109.0469-.0157.0859-.0391.1172-.0704.2187-.0625.3437-.0859.375-.0703.125.0313.1875.1328.1875.3047-.0156.2188-.0235.3594-.0235.4219.0157.0469.0235.1094.0235.1875.0156.125.0234.2422.0234.3516v.3281.1406c.0156.0469.0235.0859.0235.1172 0 .0781-.0157.1641-.0469.2578-.0156.0937-.0235.1797-.0235.2578.0157.25.0157.4844 0 .7031-.0468.2032-.0625.336-.0468.3985.0156.0625.0234.1172.0234.164-.0156.1094-.0312.2032-.0469.2813-.1562.1562-.2734.2422-.3515.2578-.0782 0-.1328.0391-.1641.1172-.0937.0156-.1562.0312-.1875.0469-.0156.0156-.0391.0312-.0703.0468-.1094.0938-.1953.1407-.2578.1407-.0469 0-.0938.0078-.1406.0234l-.2813.1172c-.1719.0625-.2891.0937-.3516.0937s-.125.0313-.1875.0938c-.0625 0-.125.0156-.1875.0469-.0468.0156-.1093.0312-.1875.0468-.1562.0313-.2656.0547-.3281.0704-.1094.0468-.1875.0703-.2344.0703-.0468 0-.1015.0078-.164.0234-.0781.0156-.1641.0234-.2578.0234-.0782.0157-.1641.0313-.2578.0469-.2344.0469-.3985.0625-.4922.0469-.0938 0-.1875.0156-.2813.0469-.125 0-.2265.0078-.3047.0234-.0781.0156-.1562.0234-.2343.0234-.0938 0-.1875-.0078-.2813-.0234-.0781-.0156-.1641-.0312-.2578-.0469-.0625.0313-.1406.0391-.2344.0235-.0781-.0157-.1797-.0391-.3047-.0704-.125-.0156-.2109-.0312-.2578-.0468-.1875 0-.3125-.0078-.375-.0235-.0469-.0156-.1015-.0312-.164-.0468-.0625-.0157-.1172-.0235-.1641-.0235s-.1016-.0078-.1641-.0234c-.1093-.0156-.1875-.0313-.2343-.0469-.0469-.0156-.0938-.0312-.1407-.0469-.1875-.0468-.2968-.0781-.3281-.0937l-.2109-.1641c-.125-.0312-.25-.0781-.375-.1406-.0469-.0312-.0938-.0547-.1407-.0703-.0312-.0156-.0703-.0469-.1171-.0938-.0313-.0468-.0782-.0781-.1407-.0937-.0468-.0156-.0937-.0391-.1406-.0703-.1719-.1094-.2656-.1719-.2812-.1875 0-.0156-.0079-.0313-.0235-.0469-.1094-.0469-.1719-.0781-.1875-.0937 0-.0157-.0156-.0313-.0469-.0469l-.2343-.1407c-.0938-.0937-.1797-.1562-.2578-.1874-.0313-.0782-.0782-.1329-.1407-.1641-.0468-.0469-.0859-.1094-.1172-.1875-.1093-.0938-.1875-.1563-.2343-.1875-.0469-.0313-.086-.0781-.1172-.1406-.0469-.0313-.086-.0625-.1172-.0938-.0156-.0469-.0391-.0859-.0703-.1172-.0625-.0469-.1016-.1328-.1172-.2578-.0938-.0937-.1406-.1562-.1406-.1875 0-.0312-.0078-.0625-.0235-.0937-.0937-.125-.1562-.2032-.1875-.2344-.0937-.1094-.1406-.1719-.1406-.1875s-.0078-.0391-.0234-.0703c-.1094-.2188-.1875-.3516-.2344-.3985 0-.0781-.0078-.1328-.0234-.164-.0157-.0313-.0235-.0703-.0235-.1172-.0781-.1563-.1172-.25-.1172-.2813 0-.0468 0-.0859 0-.1171-.0468-.1563-.0781-.2344-.0937-.2344 0 0 0-.0078 0-.0235-.0781-.2343-.125-.3828-.1406-.4453-.0157-.0781-.0391-.1484-.0704-.2109-.0312-.1563-.0546-.2578-.0703-.3047 0-.0469-.0078-.1094-.0234-.1875 0-.0937-.0078-.1875-.0234-.2813-.0157-.1093-.0235-.1718-.0235-.1874 0-.0313 0-.0782 0-.1407.0156-.0781.0156-.1406 0-.1875-.0156-.0468-.039-.0859-.0703-.1172-.0312-.0468-.0469-.0937-.0469-.1406.0782-.2344.1172-.3828.1172-.4453 0-.0781 0-.1719 0-.2813.0313-.1406.0391-.25.0235-.3281-.0157-.0781-.0157-.1562 0-.2343 0-.0469 0-.0938 0-.1407 0-.0625.0156-.1093.0468-.1406-.0312-.0625-.039-.1094-.0234-.1406.0312-.0469.0547-.0938.0703-.1407 0-.1718 0-.2578 0-.2578.0156-.0156.0234-.039.0234-.0703.0313-.1406.0547-.2578.0704-.3515.0312-.1094.0625-.2032.0937-.2813.0469-.125.0703-.1953.0703-.2109 0-.0313.0078-.0625.0235-.0938.0625-.0937.1015-.1562.1171-.1875.0157-.0312.0313-.0625.0469-.0937.0625-.2344.1328-.4141.211-.5391.0781-.125.1328-.2187.164-.2812.0313-.0625.0625-.1094.0938-.1407 0-.0625.0156-.1093.0468-.1406.0469-.0312.086-.0625.1172-.0937.0782-.1407.1328-.2188.1641-.2344.0781-.1406.1172-.2188.1172-.2344.1406-.1562.2265-.2422.2578-.2578.0312-.0156.0625-.0391.0937-.0703.1094-.125.1563-.1953.1407-.211 0-.0312.0078-.0468.0234-.0468.0469-.0156.0781-.0391.0938-.0703.0312-.0469.0625-.086.0937-.1172.1406-.125.2188-.1953.2344-.211.0156-.0156.039-.0312.0703-.0468.0625-.1094.1016-.1641.1172-.1641.0312 0 .0469-.0156.0469-.0469.1562-.1093.2421-.1719.2578-.1875.0312-.0156.0625-.039.0937-.0703.125-.0937.1953-.1406.211-.1406.0312-.0156.0546-.0313.0703-.0469.1562-.0937.2422-.1562.2578-.1875.1406-.1094.2187-.1641.2344-.1641.0312-.0156.0468-.039.0468-.0703.1875-.0937.2969-.1406.3282-.1406.0312 0 .0625-.0078.0937-.0234.2344-.0938.3828-.1563.4453-.1875.0313-.0156.0625-.0235.0938-.0235.0468-.0156.1093-.0312.1875-.0468.0312-.0157.0625-.0313.0937-.0469.0469-.0156.1016-.0313.1641-.0469.1562-.0469.2344-.0703.2344-.0703 0-.0156.0156-.0234.0468-.0234.1094-.0313.1797-.0547.211-.0704.0312-.0156.0859-.0234.164-.0234.2032-.0156.3907-.0156.5625 0 .1563.0156.2657.0156.3282 0s.1328-.0234.2109-.0234c.0625 0 .1562.0156.2812.0468h.2579c.1562.0469.2343.0704.2343.0704 0-.0157.0157-.0235.0469-.0235.125.0313.1953.0469.2109.0469.0313-.0156.0625-.0156.0938 0 .0625 0 .1172.0156.1641.0469.0625.0312.1328.0312.2109 0 .1719.0781.2812.125.3281.1406.0625.0156.1328.0313.211.0469.1562.0625.2656.1094.3281.1406.0781.0156.1484.0469.2109.0938.0938-.0313.1797.0078.2578.1171.1563.0938.2422.1407.2578.1407.0157 0 .0313.0078.0469.0234.0781.0781.1406.1328.1875.1641.0469.0312.086.0703.1172.1171.0781.1094.125.1719.1406.1876.0157 0 .0313.0078.0469.0234.0469.0469.0938.0937.1406.1406.0625.0469.1094.1016.1407.1641.125.125.1875.1875.1875.1875.0625.0625.1093.1172.1406.164.0469.0313.0859.0704.1172.1172.125.125.1875.2032.1875.2344 0 .0156.0078.0391.0234.0703.125.2031.1953.3125.2109.3281.0625.1094.1172.1875.1641.2344.0313.0469.0547.0938.0703.1406.0156.0469.0391.0938.0703.1407-.0156.0468-.0156.0937 0 .1406.0313.0469.0625.0859.0938.1172.0312.0625.0547.1484.0703.2578.0156.0937.0391.1797.0703.2578.0313.0469.0547.0937.0703.1406.0156.0313.0391.0781.0703.1407.0313.1874.0469.2812.0469.2812 0 .0469.0078.0938.0234.1406.0157.0313.0313.0703.0469.1172.0156.1406.0156.211 0 .211 0 0 .0078.0156.0235.0468l.0703.2578c.0312.125.0468.2344.0468.3282 0 .0468.0079.0937.0235.1406.0156.0312.0234.0703.0234.1172-.0312.1875-.0469.3125-.0469.375.0157.0468.0157.0859 0 .1172-.1406.1406-.2265.2265-.2578.2578-.0156.0312-.039.0547-.0703.0703-.125.0625-.1953.1015-.2109.1172 0 .0156-.0078.0312-.0235.0469-.1718.0781-.2812.1171-.3281.1171-.0312 0-.0625.0157-.0937.0469-.125.0469-.211.086-.2578.1172-.0313.0312-.0625.0625-.0938.0938-.1562.0468-.2344.0859-.2344.1171-.0937.0469-.1718.086-.2343.1172-.0625.0157-.1172.0391-.1641.0703-.1719.0938-.3203.1719-.4453.2344-.1563.0938-.2656.1484-.3281.1641-.0625.0156-.1094.039-.1407.0703-.125.0625-.2031.1016-.2343.1172-.0313.0156-.0625.039-.0938.0703-.1562.1094-.2578.1719-.3047.1875-.0312.0156-.0625.0469-.0937.0937-.0313-.0156-.0782-.0078-.1407.0235-.0625.0312-.1171.0625-.164.0937-.1875.0781-.3125.125-.375.1407-.0469 0-.086.0234-.1172.0703-.0469 0-.0938.0156-.1406.0468-.0313.0157-.0703.0313-.1172.0469s-.1016.0234-.1641.0234c-.0469-.0156-.0937-.0078-.1406.0235-.1406.0937-.2266.1406-.2578.1406-.0313.0313-.0781.0547-.1406.0703-.0469.0156-.0938.0313-.1407.0469-.1406.0781-.2422.1172-.3047.1172-.0468 0-.0859.0156-.1171.0469-.1407.0625-.2188.1015-.2344.1172-.125.0781-.211.1171-.2578.1171-.0469 0-.0938.0157-.1407.0469-.25.0938-.3828.1641-.3984.211 0 .2031.0156.3124.0469.3281.1094.0937.1797.1484.2109.164.0469.0157.0938.0391.1406.0703.0313.0469.0625.0704.0938.0704.0469 0 .0937.0156.1406.0468.0313.0157.0625.0391.0938.0704.0468.0156.0937.0312.1406.0468.0625.0469.1484.0703.2578.0703.0781.0157.1406.0313.1875.0469.0469 0 .1016.0078.1641.0234.125.0313.2187.0469.2812.0469.1875-.0156.3125-.0156.375 0 .0781.0157.1406.0235.1875.0235.0781 0 .1563-.0078.2344-.0235.0781-.0312.1562-.0469.2344-.0469.1875.0157.3047.0157.3515 0 .0625-.0156.125-.0234.1875-.0234zm-.9375-5.9531c-.0312-.0625-.0547-.1172-.0703-.164 0-.0469-.0234-.0782-.0703-.0938-.0781-.1562-.125-.2422-.1406-.2578 0-.0156-.0156-.0313-.0469-.0469-.1406-.125-.2266-.2031-.2578-.2344-.1563-.125-.25-.1953-.2813-.2109-.2187-.1094-.3671-.1641-.4453-.1641-.0625 0-.1484 0-.2578 0-.1719.0782-.2656.1172-.2812.1172-.0157 0-.0313.0078-.0469.0235-.1719.0937-.2734.1484-.3047.164-.0312 0-.0469.0235-.0469.0703-.125.0625-.1953.1016-.2109.1172-.0156 0-.0313 0-.0469 0-.0937.125-.1562.211-.1875.2578-.0156.0313-.0312.0625-.0469.0938-.125.1562-.1953.25-.2109.2812-.0156.0313-.0312.0625-.0469.0938-.0468.2031-.1015.3203-.164.3515-.0469.0313-.0782.086-.0938.1641-.0937.125-.1406.2031-.1406.2344.0156.0156.0156.0312 0 .0469-.0469.1562-.0859.2343-.1172.2343-.0625.25-.0937.3907-.0937.4219.0312.125.0312.2031 0 .2344-.0157.0312-.0079.0547.0234.0703.2031-.0937.3437-.1328.4219-.1172.1562-.0781.2578-.125.3047-.1406.0468-.0156.0859-.0391.1171-.0703.1719-.0938.2657-.1485.2813-.1641.125-.0469.2109-.0781.2578-.0937.0469-.0157.0859-.0313.1172-.0469.1875-.0781.3047-.125.3516-.1406.0625-.0313.1093-.0625.1406-.0938.125-.0781.2109-.1172.2578-.1172.0469-.0156.0937-.039.1406-.0703.0938-.0469.1485-.0703.1641-.0703.0312-.0156.0625-.0313.0937-.0469.0625-.0312.1172-.0468.1641-.0468.0469-.0157.0859-.0391.1172-.0704.1719-.0781.2578-.125.2578-.1406.0156-.0312.0312-.0469.0469-.0469.0937-.1093.1797-.164.2578-.164.0781-.0157.1328-.0547.164-.1172zm1.7578-8.8125c.0313.1563.0079.2735-.0703.3516-.0781.0625-.1484.1328-.2109.2109-.125 0-.2344.0313-.3281.0938-.0782.0625-.1641.125-.2578.1875-.1407.0937-.211.1562-.211.1875-.1094.0625-.1953.1093-.2578.1406-.0469.0312-.1016.0625-.1641.0937-.1562.0938-.2656.1485-.3281.1641-.0469 0-.0937.0156-.1406.0469-.1875.125-.3125.2109-.375.2578-.0469.0312-.1094.0703-.1875.1172-.1094.0625-.2188.125-.3281.1875-.0938.0468-.1875.1094-.2813.1875-.1562.125-.2656.2031-.3281.2343-.0625.0157-.1328.0391-.2109.0704-.1094.0468-.2266.0859-.3516.1172-.1094-.0469-.1797-.0782-.2109-.0938-.0157-.0156-.0391-.0312-.0704-.0469-.0937-.1406-.1718-.2109-.2343-.2109-.0469-.0156-.0782-.0391-.0938-.0703-.0312-.0625-.0859-.125-.164-.1875-.0625-.0625-.1094-.1406-.1407-.2344-.0312-.0312-.0703-.0547-.1172-.0703-.0468-.0156-.0859-.0391-.1171-.0703-.0782-.0782-.1329-.1485-.1641-.211 0-.0625.0234-.1015.0703-.1172.0469-.0312.0938-.0624.1406-.0937.0469-.0469.1016-.1016.1641-.1641.0625-.0781.125-.1406.1875-.1875.0469-.0468.1016-.0859.1641-.1171.0625-.0313.125-.0704.1875-.1172.1406-.1563.2187-.25.2343-.2813.1094-.0312.1797-.0703.211-.1172.0468-.0625.125-.1015.2343-.1172.0625-.0781.125-.1406.1875-.1875.0782-.0468.1485-.1015.211-.164s.1172-.125.164-.1875c.0469-.0625.1094-.1172.1875-.1641.1563-.125.2813-.2344.375-.3281.0782-.0625.1563-.1172.2344-.1641.0781-.0468.1328-.1094.1641-.1875.0781-.0312.1406-.0625.1875-.0937.0469-.0469.0937-.0938.1406-.1406.1094-.1094.1875-.1641.2344-.1641.0625-.0156.1015-.0235.1172-.0235.0468.0782.0859.125.1172.1407.0312 0 .0625.0156.0937.0469.1094.0937.1797.1562.2109.1874.1094.0938.1797.1797.211.2579.0312.0625.0625.1171.0937.164.125.1563.2032.2344.2344.2344.0938.0937.1563.1641.1875.2109.0469.0469.0859.086.1172.1172.0312.0313.0547.0703.0703.1172.0313.0313.0703.0625.1172.0938zm12.8907 9.1406c-.1719-.0468-.2578-.0781-.2578-.0937-.0469.0312-.1094.0312-.1875 0-.0625-.0313-.1172-.0469-.1641-.0469-.125-.0156-.2344-.0234-.3281-.0234-.0782 0-.1563 0-.2344 0s-.1563.0078-.2344.0234-.1484.0313-.2109.0469c-.1563.0625-.3203.1172-.4922.164-.1719.0313-.3047.0782-.3984.1407-.1563.1093-.25.1719-.2813.1875-.0156 0-.0391.0156-.0703.0468-.0781.0469-.1328.1016-.1641.1641-.0312.0625-.0859.1094-.164.1406-.0782.1719-.1172.2579-.1172.2579-.0469.1406-.0781.2421-.0938.3046-.0156.0625-.0468.1172-.0937.1641-.0313.0781-.0547.1641-.0703.2578 0 .0938-.0157.1875-.0469.2813-.0156.0781-.0313.164-.0469.2578v.3047c-.0156.1875 0 .3671.0469.539.0312.0625.0469.1172.0469.1641 0 .0312.0078.0703.0234.1172.0469.1406.0859.2656.1172.375.0312.0937.0625.1953.0937.3047.125.1406.1875.2187.1875.2343 0 .0157.0079.0313.0235.0469.0312.0313.0625.0703.0937.1172.0469.0469.086.1016.1172.1641.1094.1093.1797.1796.211.2109.0312.0313.0625.0625.0937.0937.0469.0157.0859.0547.1172.1172.0781.0157.1484.0391.2109.0704.0625.0156.1485.039.2578.0703.0782.0312.1407.0468.1875.0468.0469-.0156.0938-.0156.1407 0 .0468 0 .0937.0157.1406.0469.0469.0156.1094.0234.1875.0234.1406-.0156.2344-.0312.2812-.0468.0469-.0156.086-.0235.1172-.0235.0782-.0312.1641-.0547.2578-.0703.0938-.0156.1797-.0312.2579-.0468l.2578-.0704c.1093 0 .1797-.0078.2109-.0234.0313-.0156.0625-.0312.0938-.0469.1718-.0156.2812-.039.3281-.0703.0625-.0312.1172-.0547.164-.0703.0625.0781.1016.125.1172.1406.0313 0 .0625.0078.0938.0235.0937.25.1328.4296.1172.539 0 .1094.0078.2266.0234.3516 0 .2187.0078.3516.0234.3984.0313.0469.0313.0938 0 .1406.0313.0313.0469.086.0469.1641 0 .0625.0078.1328.0235.2109.0781.2188.1093.3594.0937.4219 0 .0625.0078.1328.0234.211.0157.1562.0157.25 0 .2812v.0938c.0157.1718.0235.289.0235.3515.0156.0625.0078.1172-.0235.1641.0313.1406.0313.2734 0 .3984.0469.0938.0547.1953.0235.3047-.0313.0938-.0625.1875-.0938.2813-.125.1093-.1875.1797-.1875.2109 0 .0156-.0156.0312-.0468.0469-.1563.0625-.2344.1015-.2344.1172-.0938.0312-.1641.0547-.211.0703-.0468.0312-.1015.0625-.164.0937-.2031.0469-.3281.0781-.375.0938-.0625.0156-.1328.0156-.211 0-.0781 0-.1718.0078-.2812.0234-.1563.0469-.25.0625-.2813.0469-.0156-.0156-.039-.0078-.0703.0234-.1718.0156-.2656.0235-.2812.0235 0 .0156-.0156.0234-.0469.0234-.0937.0156-.1641.0156-.2109 0-.0313-.0156-.0703-.0234-.1172-.0234-.0781-.0313-.1563-.0391-.2344-.0235-.0625.0156-.1328.0235-.2109.0235l-.4219-.0235c-.1875-.0468-.3203-.0781-.3984-.0937-.0782-.0157-.1563-.0235-.2344-.0235-.0469-.0156-.1016-.0234-.1641-.0234-.0469 0-.0859 0-.1172 0-.125-.0312-.1953-.0469-.2109-.0469-.0156.0157-.0391.0157-.0703 0-.125-.0625-.2188-.0937-.2813-.0937-.0468-.0469-.0937-.0703-.1406-.0703-.0469.0156-.0937.0078-.1406-.0235-.1406-.0468-.2188-.0781-.2344-.0937-.0156 0-.0391 0-.0703 0-.1406-.0938-.2344-.1407-.2813-.1407-.0468-.0156-.1015-.0312-.164-.0468-.2344-.125-.3828-.211-.4453-.2578-.0469-.0625-.1094-.1172-.1875-.1641-.0469-.0156-.086-.0313-.1172-.0469-.0313-.0312-.0781-.0547-.1406-.0703l-.1875-.1875c-.0782-.0937-.1329-.1484-.1641-.164-.0156-.0157-.0391-.0391-.0703-.0704-.0938-.0625-.1797-.1172-.2578-.164-.0625-.0625-.1328-.1094-.211-.1406-.0312-.1563-.1015-.2735-.2109-.3516-.0781-.0938-.1328-.1484-.1641-.1641-.0156-.0312-.0234-.0625-.0234-.0937-.1406-.125-.2109-.1953-.2109-.211-.0469-.1093-.1016-.1796-.1641-.2109-.0469-.0469-.0859-.1094-.1172-.1875-.0312-.0469-.0547-.0938-.0703-.1406 0-.0625-.0156-.125-.0469-.1875-.125-.1563-.1875-.2344-.1875-.2344-.0937-.1406-.1406-.2109-.1406-.2109 0-.0157-.0078-.0313-.0234-.0469-.0625-.0938-.0938-.1563-.0938-.1875 0-.0313-.0078-.0625-.0234-.0938-.0782-.1562-.125-.2422-.1407-.2578 0-.0312-.0078-.0625-.0234-.0937-.0625-.2657-.1016-.4297-.1172-.4922s-.0312-.1172-.0469-.1641c0-.0625-.0234-.125-.0703-.1875l-.0234-.3047c-.0469-.1406-.0781-.2265-.0938-.2578-.0156-.0468-.0312-.0859-.0468-.1172.0468-.1093.0468-.1953 0-.2578-.0469-.0781-.0625-.1718-.0469-.2812 0-.1719-.0078-.2578-.0234-.2578 0-.0157 0-.0391 0-.0704l-.0235-.2812c0-.0469 0-.0938 0-.1406.0156-.0469.0235-.0938.0235-.1406.0156-.0938.0234-.1797.0234-.2579 0-.0937.0078-.1875.0234-.2812 0-.0469 0-.0938 0-.1406.0157-.0469.0235-.086.0235-.1172.0625-.2031.0859-.3281.0703-.375s-.0235-.086-.0235-.1172c0-.0781.0157-.1485.0469-.2109l.0938-.1876c.0312-.0781.0547-.164.0703-.2578.0156-.1093.039-.2265.0703-.3515.0312-.0781.0547-.1485.0703-.211.0313-.0781.0625-.1484.0938-.2109.0312-.0938.0468-.1484.0468-.1641.0157-.0312.0313-.0625.0469-.0937.0313-.0625.0625-.125.0938-.1875.0312-.0625.0625-.125.0937-.1875.0625-.1563.1172-.2578.1641-.3047.1093-.1719.1562-.2656.1406-.2813 0-.0156.0078-.0312.0234-.0468l.0938-.0938.0937-.0937c.125-.1719.2032-.2813.2344-.3281.0313-.0469.0625-.086.0938-.1172.0625-.1094.1015-.1641.1171-.1641.0157-.0156.0313-.0313.0469-.0469l.211-.2109c.0781-.0938.1328-.1641.164-.2109.0469-.0157.086-.0391.1172-.0704.0313-.0312.0625-.0625.0938-.0937l.2578-.2344c.1093-.0937.164-.1406.164-.1406 0-.0156.0078-.0313.0235-.0469.1093-.1094.1953-.1797.2578-.2109.0937-.0781.1875-.1328.2812-.1641.1563-.1094.2344-.1562.2344-.1406s.0078.0156.0234 0c.125-.0938.2579-.1719.3985-.2344s.2812-.1328.4219-.2109c.0937-.0469.164-.0703.2109-.0703s.0859-.0078.1172-.0235c.1875-.0625.3047-.0937.3515-.0937.0469-.0156.0938-.0313.1407-.0469.1718-.0469.2734-.0703.3047-.0703.0312-.0156.0781-.0391.1406-.0703l.2812-.0469c.1563-.0156.2344-.0312.2344-.0469.0156-.0156.0313-.0234.0469-.0234.1875-.0469.3281-.0703.4219-.0703.1406-.0156.2187-.0156.2343 0 .0313.0156.0625.0234.0938.0234.1406-.0156.2265-.0234.2578-.0234.0312-.0156.0625-.0235.0937-.0235l.3282.0469c.2343.0313.3984.0469.4922.0469.1093-.0156.2031-.0156.2812 0 .2188.0625.3594.0859.4219.0703s.1172-.0156.164 0c.0625.0312.1094.0625.1407.0938.0468.0312.1015.0624.164.0937.0313.0156.0703.0313.1172.0469.0469 0 .0938.0156.1406.0468.1875.0938.2891.1563.3047.1876.0313.0156.0625.039.0938.0703.1562 0 .2578.0468.3047.1406l.1406.4922c-.0156.125-.0469.2578-.0938.3984-.0468.125-.0937.25-.1406.375-.0312.0781-.0703.1563-.1172.2344-.0312.0625-.0625.1406-.0937.2344-.0469.125-.086.2109-.1172.2578-.0313.0469-.0547.1015-.0703.164-.0156.0469-.0235.1016-.0235.1641s-.0156.1172-.0468.1641c-.1094.1875-.1953.3281-.2578.4218-.0469.0938-.0782.1953-.0938.3047-.0625.0469-.1094.1172-.1406.211-.0156.0781-.0469.1562-.0938.2343-.0312.0313-.0625.0703-.0937.1172-.0156.0313-.0235.0781-.0235.1407-.0468.0156-.0859.039-.1171.0703-.0157.0156-.0547.0312-.1172.0468zm7.8047-8.4843c-.0313.0625-.0469.1406-.0469.2343 0 .0938.0078.1797.0234.2579-.0156.2187-.0234.3906-.0234.5156.0156.1094.0234.2265.0234.3515v.6797c-.0156.1875-.0312.3047-.0469.3516-.0156.0312-.0234.0625-.0234.0937-.0312.2032-.0469.3203-.0469.3516.0157.1719.0157.2734 0 .3047v.0703c-.0156.1563-.0312.2344-.0468.2344v.0469.1874c.0156.0157.0234.0391.0234.0704-.0156.125-.0313.25-.0469.375 0 .1093-.0078.2265-.0234.3515.0156.1094.0156.1953 0 .2578s-.0235.1329-.0235.211c.0313.1093.0391.2109.0235.3047v.3046.2813c0 .1406-.0078.2813-.0235.4219-.0156.125-.0156.2812 0 .4687.1407-.125.2188-.1953.2344-.2109.0313-.0156.0625-.0391.0938-.0703.1093-.0938.1953-.1563.2578-.1875.0469-.0938.0937-.1406.1406-.1406.0469-.0157.0703-.0626.0703-.1407l.3047-.1406c.0625-.0313.1094-.0703.1406-.1172.0469-.0625.1016-.1172.1641-.1641.1562-.1093.2422-.1718.2578-.1874.0625-.0626.1172-.1016.1641-.1172.0468-.0157.0859-.0391.1172-.0704.1562-.125.2656-.2031.3281-.2343.0625-.0313.1172-.0625.164-.0938.0625-.0781.1329-.1328.211-.164.0781-.0469.1484-.1094.2109-.1875.0938-.0157.1719-.0547.2344-.1172.1719-.125.3672-.1875.5859-.1875.0938-.0157.1797-.0157.2578 0l.2813.164c.1406.1094.2266.1797.2578.211.1406.0937.2734.1719.3984.2343.125.125.211.2032.2579.2344.0468.0313.0781.0703.0937.1172.1406.0625.2344.1172.2813.1641.0312.0312.0625.0703.0937.1172.0469.0468.0859.0859.1172.1171.1406.0938.2187.1407.2344.1407.1093.0625.1797.1172.2109.164.1406.0469.2422.125.3047.2344s.1562.1953.2812.2578c.1094.1407.1641.211.1641.211 0-.0157.0078-.0157.0234 0 .0313.0312.0625.0781.0938.1406.0312.0625.0625.1172.0937.1641.0782.0781.1329.1406.1641.1874.0313.0313.0625.0704.0938.1172.1875.2344.3125.4375.375.6094s.1406.336.2343.4922c-.0156.0469-.0234.0938-.0234.1406.0156.0313.0312.0782.0469.1406l.0234.3282c.0156.1718.0391.3047.0703.3984.0156.0469.0156.0938 0 .1406-.0156.0469-.0312.1094-.0469.1875.0157.1719.0157.2891 0 .3516v.1406.1172c.0157.0469.0157.1016 0 .1641-.0312.2031-.0546.3437-.0703.4218 0 .0626.0078.1485.0235.2579 0 .1718-.0078.2968-.0235.375-.0156.0625-.0234.1328-.0234.2109-.0156.0312-.0234.0703-.0234.1172.0156.0469.0234.1016.0234.164.0312.2032.0312.4454 0 .7266.0156.1563.0156.2344 0 .2344v.0234c.0156.125.0156.1953 0 .211v.0468.1407c.0156.0468.0234.0937.0234.1406v.2109c.0157.0156.0235.0313.0235.0469-.0469.1406-.0703.2187-.0703.2344.0156.0156.0234.039.0234.0703v.1875c.0156.0469.0234.1015.0234.1641 0 .1406-.0078.2812-.0234.4218-.0156.125-.0078.2422.0234.3516.0313.1406.0469.289.0469.4453s.0078.3203.0234.4922c0 .1719.0079.2734.0235.3047.0156.0312.0234.0625.0234.0937v.5157c0 .1562.0078.3124.0235.4687v.1641c.0156.0468.0156.0859 0 .1172-.1563.1562-.25.2578-.2813.3046-.125.0469-.2344.086-.3281.1172-.1406.0313-.2344.0469-.2813.0469-.0312 0-.0625-.0078-.0937-.0234-.0781 0-.1719-.0079-.2813-.0235-.1093 0-.2109.0078-.3047.0235-.1875-.0157-.3125-.0157-.375 0-.0625.0156-.1406.0156-.2343 0h-.375c-.0625 0-.125 0-.1875 0-.0469.0156-.1016.0156-.1641 0-.1719-.0313-.2578-.0547-.2578-.0703-.0156-.0313-.0625-.0391-.1406-.0235-.0625.0313-.1094.0469-.1407.0469-.0468 0-.0937-.0078-.1406-.0234-.0469 0-.0859 0-.1172 0-.1406.0468-.2422.0703-.3047.0703-.0468 0-.1093 0-.1875 0-.1562.0312-.2734.0234-.3515-.0235-.1094-.1094-.211-.1953-.3047-.2578 0-.0781-.0078-.1484-.0234-.2109-.0157-.0781-.0157-.1641 0-.2578l.0234-.3282c.0312-.1718.0469-.2578.0469-.2578.0156-.0312.039-.125.0703-.2812.0156-.0625.0234-.1094.0234-.1407.0156-.0468.0313-.1093.0469-.1874 0-.1876.0078-.3204.0234-.3985.0157-.0937.0235-.1719.0235-.2344 0-.0312-.0078-.0703-.0235-.1171 0-.0626.0078-.1094.0235-.1407.0156-.1406.0156-.2109 0-.2109 0-.0156 0-.0313 0-.0469.0156-.1562.0234-.2422.0234-.2578.0156-.0156.0234-.0313.0234-.0469.0157-.1406.0157-.2109 0-.2109 0-.0156.0079-.0391.0235-.0703 0-.1719 0-.2656 0-.2813.0156-.0156.0234-.0312.0234-.0469l-.0234-.3281c0-.0625-.0078-.125-.0235-.1875 0-.0625 0-.1328 0-.2109 0-.0313 0-.0625 0-.0938.0157-.0468.0235-.1015.0235-.164-.0313-.1875-.0469-.3125-.0469-.375.0156-.0781.0156-.1328 0-.1641-.0312-.0625-.0391-.164-.0234-.3047.0156-.1406.0078-.25-.0235-.3281.0313-.0625.0469-.1484.0469-.2578 0-.125-.0156-.2266-.0469-.3047.0313-.0313.0391-.0781.0235-.1406-.0157-.0625-.0157-.1172 0-.1641 0-.1562-.0078-.2734-.0235-.3516-.0156-.0937-.0078-.164.0235-.2109-.0313-.1562-.0547-.2656-.0703-.3281 0-.0625-.0313-.1094-.0938-.1406-.1406-.125-.2109-.2032-.2109-.2344-.2344-.0156-.3985.0156-.4922.0937-.1094.125-.1719.1953-.1875.211 0 0-.0078 0-.0235 0-.1093.1562-.1953.2656-.2578.3281-.0468.0469-.0937.0938-.1406.1406-.0937.125-.1719.2188-.2344.2813-.1718.0937-.2968.1719-.375.2343-.0625.0626-.1406.086-.2343.0704-.0782 0-.1407-.0235-.1875-.0704-.0469-.0624-.1172-.1093-.211-.1406-.0312-.0781-.0703-.1406-.1172-.1875-.0468-.0469-.0781-.1093-.0937-.1875-.0313-.0312-.0625-.0625-.0938-.0937-.0156-.0469-.039-.086-.0703-.1172-.0937-.1563-.1562-.2578-.1875-.3047-.0156-.0469-.039-.0938-.0703-.1406-.0469.0312-.0703.0703-.0703.1172v.1406.3047.4922c0 .0781-.0078.164-.0234.2578 0 .0937.0078.1953.0234.3047v.5625c.0156.1875.0156.3828 0 .5859.0469.0781.0625.1641.0469.2578 0 .0781.0078.1641.0234.2578v.2813c.0156.1875.0234.3047.0234.3515.0157.0313.0235.0625.0235.0938-.0313.1875-.0391.3125-.0235.375.0157.0625.0235.1328.0235.2109-.0156.0469-.0156.1094 0 .1875.0156.0782.0234.1485.0234.211 0 .0468-.0078.0937-.0234.1406 0 .0469.0078.0937.0234.1406.0156.1719.0313.2813.0469.3281.0156.0469.0234.086.0234.1172v.375c.0157.0469.0235.1016.0235.1641.0156.0625.0234.1719.0234.3281.0313.1406.0391.2188.0234.2344v.0703c.0157.0938.0313.1641.0469.2109.0156.0469.0235.0938.0235.1407-.0157.1562-.0235.25-.0235.2812.0156.0156.0235.0391.0235.0703-.0469.1563-.0704.2735-.0704.3516s-.0156.1328-.0468.1641c-.1719.0156-.2969.0234-.375.0234-.0625.0156-.1328.039-.211.0703-.2656.0313-.4765.0234-.6328-.0234-.1562-.0313-.25-.0469-.2812-.0469-.0313.0156-.0625.0234-.0938.0234-.1406-.0156-.2422-.0234-.3047-.0234s-.1328-.0078-.2109-.0234c-.1875.0156-.2891.0078-.3047-.0235-.0937 0-.1875-.0078-.2812-.0234-.0782-.0157-.1563-.0313-.2344-.0469h-.2578c-.1563.0312-.2578.0469-.3047.0469-.0313 0-.0703.0078-.1172.0234-.125 0-.2031-.0078-.2344-.0234-.0156 0-.039.0078-.0703.0234-.0625 0-.125.0078-.1875.0235-.0625.0156-.1328.0078-.2109-.0235-.1719 0-.3125 0-.4219 0-.0469-.1094-.0859-.1641-.1172-.1641-.0156-.0156-.0312-.0312-.0469-.0468-.0312-.1406-.0468-.2266-.0468-.2578.0156-.0469.0234-.0938.0234-.1407 0-.0937-.0078-.1875-.0234-.2812 0-.0938 0-.1797 0-.2578l.0234-.2813c.0156-.0625.0234-.125.0234-.1875s.0157-.1172.0469-.164c.0313-.1875.0391-.3047.0234-.3516 0-.0625.0157-.125.0469-.1875.0156-.1875.0156-.3125 0-.375-.0156-.0781-.0156-.1484 0-.2109.0313-.2032.0469-.3282.0469-.375l-.0234-.3047c0-.0938 0-.1797 0-.2578 0-.0782-.0157-.1485-.0469-.211.0312-.1875.0312-.3047 0-.3515-.0156-.0625-.0078-.1016.0234-.1172 0-.1563 0-.2735 0-.3516 0-.2031-.0078-.3281-.0234-.375s-.0078-.0937.0234-.1406v-.6094c0-.0625-.0078-.125-.0234-.1875s-.0235-.1172-.0235-.164c0-.0782.0079-.1485.0235-.211.0156-.0781 0-.1484-.0469-.2109.0313-.2657.0469-.5391.0469-.8203.0156-.2969.0078-.5704-.0235-.8204 0-.0468-.0078-.0937-.0234-.1406-.0156-.0625-.0156-.1094 0-.1406 0-.0469.0078-.0859.0234-.1172.0157-.0469.0235-.0937.0235-.1406 0-.1719-.0078-.2734-.0235-.3047 0-.0469 0-.0859 0-.1172v-.4453-.7969c0-.0625 0-.1172 0-.164.0157-.0469.0235-.0938.0235-.1407 0-.1406 0-.2187 0-.2343.0156-.0157.0234-.0313.0234-.0469-.0312-.1563-.039-.2813-.0234-.375.0156-.1094.0234-.1875.0234-.2344.0156-.0781.0156-.164 0-.2578 0-.0938.0078-.1797.0235-.2578.0156-.0156.0234-.0547.0234-.1172s0-.125 0-.1875c0-.125-.0078-.2578-.0234-.3984 0-.1407.0078-.2813.0234-.4219.0156-.1563.0156-.25 0-.2813-.0156-.0468-.0234-.0859-.0234-.1171.0312-.1719.039-.2813.0234-.3282-.0156-.0468-.0234-.1015-.0234-.164.0156-.1407.0156-.2266 0-.2578 0-.0313.0156-.0547.0468-.0704-.0312-.1406-.0547-.2109-.0703-.2109 0-.0156 0-.0391 0-.0703-.0156-.1719-.0234-.2969-.0234-.375l-.0235-.2578c-.0312-.125-.039-.1953-.0234-.211.0156-.0312.0078-.0546-.0234-.0703.0156-.0781.0078-.1562-.0235-.2343-.0156-.0782-.0312-.1563-.0468-.2344 0-.1719-.0079-.2656-.0235-.2813 0-.0312 0-.0625 0-.0937-.0312-.0938-.0547-.1875-.0703-.2813-.0156-.0937-.0078-.1953.0234-.3047.0157-.0781.0157-.1406 0-.1875 0-.0625 0-.1093 0-.1406 0-.0937-.0078-.1797-.0234-.2578 0-.0781.0234-.1563.0703-.2344.0469-.1093.0938-.164.1406-.164.0469 0 .0938-.0079.1407-.0235.2031-.0625.3203-.1015.3515-.1172.1094-.0156.1719-.0156.1875 0h.0938c.125-.0156.1953-.0234.2109-.0234.0313 0 .0625-.0156.0938-.0469.0625.0313.1172.0391.164.0235.0469-.0313.1016-.0469.1641-.0469.0469 0 .0937.0078.1406.0234h.1172.1172c.0625-.0156.1172-.0234.1641-.0234.0468-.0156.0859-.0235.1171-.0235.0469 0 .0938-.0156.1407-.0468.0312-.0156.0781-.0078.1406.0234.0781.0156.1484.0313.2109.0469.1875 0 .2891.0078.3047.0234h.0703.3047.2578.375c.0782.0157.1328.0235.1641.0235.0312-.0157.0703-.0157.1172 0 .1406.0312.2265.0703.2578.1172.0469.0312.0937.0624.1406.0937.0938.0469.1328.0937.1172.1406 0 .0469.0313.0547.0938.0235zm17.1796 18.0937c-.0781-.1875-.1328-.2969-.164-.3281-.0156-.0469-.0313-.1094-.0469-.1875l.0234-.3047c0-.0625-.0078-.1172-.0234-.1641-.0156-.0625-.0234-.1171-.0234-.164-.0313-.1719-.0625-.2891-.0938-.3516.0156-.0937.0235-.1562.0235-.1875 0-.0469-.0079-.0859-.0235-.1172l-.1406-.2344c-.125.1563-.1797.2344-.1641.2344-.125.0782-.1953.1328-.2109.1641-.0938.0937-.1484.1406-.1641.1406-.0156 0-.039.0156-.0703.0469-.1094.1562-.1953.2656-.2578.3281-.125.1406-.1875.2109-.1875.2109-.0781.0938-.1484.1563-.2109.1876-.0938.0937-.1485.1562-.1641.1874-.0156.0157-.0469.0391-.0937.0704-.1094.125-.1954.2031-.2579.2343-.1406.1563-.2265.2344-.2578.2344-.0312.0313-.0703.0547-.1172.0703-.0468.0313-.0859.0625-.1171.0938-.0469.0156-.1329.0234-.2579.0234-.1562 0-.2656 0-.3281 0-.1875-.0625-.2969-.1094-.3281-.1406-.1406-.0313-.2344-.0547-.2813-.0703-.0468-.0157-.0937-.0235-.1406-.0235-.1406-.1093-.2109-.164-.2109-.164-.125-.0313-.1953-.0469-.211-.0469-.0156-.0156-.0312-.0234-.0468-.0234-.1563-.0625-.2578-.1016-.3047-.1172-.0313-.0313-.086-.0469-.1641-.0469-.0937-.0625-.1484-.1016-.164-.1172 0-.0312-.0079-.0547-.0235-.0703-.0937-.0625-.1719-.1016-.2344-.1172-.0312-.0781-.0781-.125-.1406-.1406-.0625-.0313-.125-.0703-.1875-.1172-.1094-.1094-.1719-.1641-.1875-.1641 0-.0156-.0156-.039-.0469-.0703l-.2109-.2109-.1875-.211c-.125-.1718-.2187-.3046-.2812-.3984-.1563-.1875-.2344-.2969-.2344-.3281-.2031-.1875-.3125-.2891-.3281-.3047-.0782-.0781-.1329-.1562-.1641-.2344-.0781-.1094-.1328-.1953-.1641-.2578-.0625-.0469-.1015-.1172-.1172-.2109 0-.0938 0-.1875 0-.2813-.0312-.125-.0703-.2422-.1171-.3515-.0469-.1094-.0625-.1875-.0469-.2344s.0156-.1094 0-.1875c.0469-.0781.0781-.1484.0937-.211.0313-.0624.086-.1093.1641-.1406.0625-.1562.1016-.2344.1172-.2344.0781-.1093.1328-.1874.164-.2343.0625-.1094.1016-.1719.1172-.1875.0313-.0313.0625-.0625.0938-.0938.0312-.0625.0937-.1406.1875-.2344.0625-.0468.1172-.1015.164-.164l.1875-.1875c.125-.1406.2422-.2656.3516-.375.125-.1406.1875-.2109.1875-.2109.0156 0 .0313-.0079.0469-.0235.1562-.125.2422-.2031.2578-.2344l.0937-.0937c.1407-.0938.2188-.1406.2344-.1406s.0391-.0078.0703-.0235c.1563-.0937.2422-.1484.2578-.164.125-.0782.1954-.1329.211-.1641.0312-.0312.0625-.0547.0937-.0703.1563-.0938.2657-.1563.3282-.1875.1406-.1094.2109-.1641.2109-.1641.0156 0 .0312-.0078.0469-.0234.1718-.0625.2734-.125.3047-.1875.1562-.0625.2812-.1172.375-.1641.0937-.0625.1953-.1093.3046-.1406.1719-.0781.2813-.1406.3282-.1875.1562-.125.2343-.2031.2343-.2344-.0625-.0468-.1328-.0625-.2109-.0468-.0625 0-.1406 0-.2344 0-.1406 0-.2422 0-.3047 0s-.125 0-.1875 0c-.0468 0-.1015.0078-.164.0234-.0469 0-.1016-.0078-.1641-.0234-.2031-.0313-.3359-.0391-.3984-.0235-.0469 0-.0938 0-.1406 0l-.3985.0235c-.0937-.0313-.1875-.0469-.2812-.0469-.0469.0156-.1016.0234-.1641.0234-.0625-.0156-.1172-.0234-.1641-.0234-.0937 0-.1953.0156-.3046.0469-.1094.0156-.2266.0234-.3516.0234-.0469.0156-.1016.0234-.1641.0234-.0468-.0156-.1015-.0234-.164-.0234-.2344 0-.4219 0-.5625 0-.125-.0156-.25-.0156-.375 0-.1875-.0156-.2891-.0313-.3047-.0469-.0156-.0312-.0391-.0625-.0703-.0937-.0782-.1719-.1172-.2657-.1172-.2813.0156-.0312.0234-.0625.0234-.0937.0313-.1563.0469-.25.0469-.2813.0156-.0312.0234-.0625.0234-.0937.0313-.1563.0547-.2344.0703-.2344.0157-.0156.0313-.0391.0469-.0703.0313-.1875.0625-.3203.0938-.3985.0312-.0937.0625-.1796.0937-.2578.0156-.0468.0235-.0859.0235-.1172 0-.0468.0156-.0937.0468-.1406.0625-.1562.0938-.3359.0938-.539.0312-.2032.0703-.3594.1172-.4688.0468-.125.0781-.2344.0937-.3281.0469-.1563.0703-.2657.0703-.3281l.0938-.2813c.1406-.1563.2265-.2734.2578-.3516.0469-.0312.0859-.0547.1172-.0703.0469-.0312.0937-.0625.1406-.0937.125-.0469.2344-.0781.3281-.0938.0938 0 .1485-.0078.1641-.0234.0312-.0156.0625-.0313.0937-.0469.1719.0156.2813.0156.3282 0 .0625-.0156.1328 0 .2109.0469.1094-.0313.1797-.0391.2109-.0235h.1407c.0937.0157.1953.0235.3047.0235h.3515.2578c.1875-.0313.2891-.0391.3047-.0235h.0938c.0312.0157.0937.0235.1875.0235.0937-.0156.1484-.0235.164-.0235h.3047c.1406 0 .2735-.0078.3985-.0234.1093-.0156.1796-.0156.2109 0 .0312.0156.0625.0234.0937.0234h.3047c.1719-.0156.2657-.0156.2813 0h.0703l.2578-.0234c.1094 0 .1797.0078.2109.0234.0469.0157.086.0235.1172.0235.1094-.0156.1719-.0156.1875 0 .0313.0156.0625.0234.0938.0234.3281 0 .5547.0313.6797.0938.25.0781.4062.125.4687.1406.125.0937.1875.1406.1875.1406.0156-.0156.0313-.0156.0469 0 .0937.0938.1641.1485.2109.1641.0469 0 .086.0156.1172.0469.0938.0937.1641.164.211.2109.1406.1094.2265.1719.2578.1875.1093.125.1953.2187.2578.2813.0781.0624.1328.1093.164.1406.0313.0156.0625.039.0938.0703.1562.0937.2422.1641.2578.2109.0156.0469.0547.0782.1172.0938.0469.125.0703.2109.0703.2578.0156.0469.0547.0781.1172.0937.0156.0469.0312.0938.0469.1407.0156.0468.039.1015.0703.164.0469.0782.0625.1406.0469.1875 0 .0313.0078.0625.0234.0938.0156.0781.0312.1406.0469.1875.0312.0312.0547.0625.0703.0937.0625.2344.1094.3985.1406.4922.0313.0781.0625.1563.0938.2344.0312.0625.0468.125.0468.1875.0157.0469.0391.1094.0703.1875.0938.25.1563.4453.1875.5859.0469.125.086.2656.1172.4219.0313.0937.0547.1953.0703.3047.0313.1094.0547.2031.0704.2812.0156.1719.039.3047.0703.3985l.0703.4219c.0312.125.0547.2421.0703.3515.0312.1094.0469.2266.0469.3516.0625.2187.1172.3672.164.4453.0157.1406.0313.2266.0469.2578.0313.0781.0469.1406.0469.1875 0 .0313.0078.0625.0234.0937.0625.2032.086.3282.0703.375 0 .0469.0078.0938.0235.1407.0312.1093.039.1797.0234.2109v.0469c.0156.0625.0313.1172.0469.1641.0312.0312.0469.0781.0469.1406-.0157.1094-.0157.1875 0 .2344.0312.0468.0546.0937.0703.1406 0 .0937.0078.1562.0234.1875.0156.0156.0313.0469.0469.0937l.0234.3985c.0313.0781.0469.1718.0469.2812 0 .0938.0078.1875.0234.2813.0313.1718.0547.3125.0703.4218.0157.1094.0391.211.0704.3047.0156.0625.0234.1172.0234.1641 0 .0312.0156.0625.0469.0937.0625.1407.0937.2344.0937.2813v.1172c0 .0937-.0078.1875-.0234.2812-.0156.0938-.0391.1797-.0703.2578-.0469.1719-.0703.2813-.0703.3282-.1407.1093-.2188.1718-.2344.1875-.0156 0-.0547.0078-.1172.0234s-.1719.0391-.3281.0703c-.2032.0313-.3203.0547-.3516.0703-.0312 0-.0625.0078-.0937.0235-.1563 0-.2344 0-.2344 0 0-.0157-.0078-.0235-.0235-.0235-.125.0157-.1953.0235-.2109.0235-.0156-.0157-.0391-.0235-.0703-.0235-.2188 0-.3516.0078-.3984.0235-.1094 0-.2032.0078-.2813.0234-.0781 0-.1562 0-.2344 0-.1562.0156-.2656.0391-.3281.0703-.1562.0313-.25.0469-.2812.0469-.1875.0312-.3282.039-.4219.0234-.0938 0-.1953.0078-.3047.0235-.1719.0156-.2656.0234-.2813.0234-.0781.0156-.1718.0078-.2812-.0234-.0938-.0313-.1875-.0625-.2813-.0938zm-.3984-3.3281c-.0156-.2188-.0312-.375-.0469-.4688-.0156-.1093-.0312-.1875-.0468-.2343-.0313-.1407-.0469-.2344-.0469-.2813.0156-.0469.0156-.0859 0-.1172-.0469-.2656-.0703-.4453-.0703-.539 0-.0938-.0157-.1875-.0469-.2813-.0313-.125-.0547-.2031-.0703-.2344-.0156-.0468-.0313-.0859-.0469-.1171-.1094-.0938-.1797-.1329-.2109-.1172-.0313.0156-.0547.039-.0703.0703-.1407.0937-.2188.1484-.2344.164-.1406.0782-.2266.1329-.2578.1641-.0782.0625-.125.1016-.1407.1172-.0156.0156-.039.039-.0703.0703-.1562.125-.2343.1875-.2343.1875 0-.0156-.0079-.0156-.0235 0-.1562.1094-.25.1875-.2812.2344-.0313.0312-.0703.0625-.1172.0937-.0313.0781-.0703.1407-.1172.1875-.0313.0469-.0625.0938-.0938.1406.0313.0626.0469.1172.0469.1641 0 .0313-.0156.0859-.0469.1641.1094.125.1875.1875.2344.1875.0781.0469.1328.0703.1641.0703.0312 0 .0625.0078.0937.0234.0938.0625.1485.1094.1641.1406.0156.0157.0312.0235.0469.0235.1406.0625.2265.0937.2578.0937.0469 0 .1015.0078.164.0235.1094.0312.1875.0547.2344.0703.0625 0 .1094.0078.1406.0234.1719.0938.3125.1563.4219.1875.125.0157.2266.0078.3047-.0234zm11.0861-8.2734c.14-.1094.219-.1563.234-.1407.016 0 .024-.0078.024-.0234.125-.1094.203-.1797.234-.2109.094-.0469.148-.0782.164-.0938.031-.0156.063-.0312.094-.0469l.328-.2343c.062-.0313.109-.0704.141-.1172.046-.0625.093-.125.14-.1875.172-.0938.266-.1485.281-.1641.063-.0625.118-.1016.165-.1172.046-.0156.085-.039.117-.0703.203-.1719.367-.2813.492-.3281.062-.0782.133-.1328.211-.1641.078-.0469.148-.1094.211-.1875.109-.0312.187-.0703.234-.1172.078-.0625.133-.1015.164-.1172.047-.0312.094-.0546.141-.0703.187-.0156.289-.0234.305-.0234.125.0156.21.0234.257.0234.11.0938.172.1407.188.1407.031 0 .062.0156.094.0468.031.0313.07.0625.117.0938.047.0156.086.039.117.0703l.211.1641c.141.0781.211.125.211.1406 0 0 .008.0078.023.0234.094.0781.164.1328.211.1641.047.0312.078.0703.094.1172.109.0468.195.1093.258.1875.078.0625.156.1328.234.2109.172.1094.281.1797.328.2109.047.0313.086.0625.117.0938.125.0469.219.125.282.2344.062.1093.156.1953.281.2578.125.125.187.1875.187.1875.032.0469.063.1015.094.164.047.0625.086.1172.117.1641.125.1406.196.2266.211.2578.016.0156.039.0391.071.0703.078.0938.148.1875.211.2813.062.125.117.2578.164.3984.062.1406.132.2734.211.3984-.032.125-.024.2579.023.3985l.023.2578c0 .1094.008.1875.024.2344s.023.0859.023.1172c.032.0468.032.0937 0 .1406-.015.0469-.023.1015-.023.1641.016.1874.016.3124 0 .375v.1406.1172c.016.0468.016.1015 0 .164-.031.2032-.055.3438-.07.4219 0 .0625.007.1484.023.2578 0 .1719-.016.2969-.047.375-.015.0625-.023.1328-.023.2109.015.1876.023.3047.023.3516.016.0313.024.0625.024.0938l-.024.5625c.016.1562.016.2343 0 .2343v.0235c.016.125.016.1953 0 .2109v.0469.1406c.016.0469.024.0938.024.1406v.211c.015.0156.023.0312.023.0469-.047.1406-.07.2187-.07.2343.015.0157.023.0391.023.0703v.1875c.016.0469.024.1016.024.1641 0 .0781-.008.1562-.024.2344v.2344.2578c.047.2343.07.4296.07.5859s.008.3125.024.4687v.2344c.016.0156.023.0391.023.0703.016.1719.024.3438.024.5157v.4922c0 .0468.008.0937.023.1406.016.0468.016.0937 0 .1406-.015.0469-.031.0859-.047.1172-.015.0156-.039.0547-.07.1172-.312.125-.508.1953-.586.2109-.078.0313-.172.0313-.281 0-.078 0-.18-.0078-.305-.0234-.109 0-.203.0078-.281.0234-.172-.0156-.289-.0234-.352-.0234-.047.0156-.101.0234-.164.0234h-.398c-.078 0-.156 0-.235 0-.062.0156-.125.0156-.187 0-.156-.0469-.242-.0703-.258-.0703-.031 0-.07 0-.117 0-.047.0156-.109.0234-.188.0234-.187-.0156-.296-.0156-.328 0-.015.0157-.039.0157-.07 0-.031.0313-.078.0469-.141.0469-.062 0-.132 0-.211 0-.14.0313-.25.0235-.328-.0234-.14-.125-.242-.211-.304-.2578 0-.0782-.008-.1563-.024-.2344-.015-.0781-.023-.1641-.023-.2578l.047-.3047.023-.2578c.016-.0313.024-.0703.024-.1172.015-.0469.039-.1094.07-.1875.015-.0469.023-.0859.023-.1172.016-.0469.032-.1094.047-.1875 0-.1875.008-.3203.024-.3984.015-.0938.023-.1797.023-.2578-.016-.2032-.008-.336.023-.3985 0-.1719.008-.2656.024-.2812-.016-.1563-.016-.25 0-.2813.016-.0312.023-.0625.023-.0937 0-.1875 0-.2891 0-.3047.016-.0156.024-.0313.024-.0469-.031-.1719-.047-.2656-.047-.2813.016-.0156.023-.0312.023-.0468 0-.0469-.007-.0938-.023-.1406 0-.0626 0-.1329 0-.211v-.3047c-.016-.1719-.024-.3047-.024-.3984-.031-.1875-.046-.3125-.046-.375.015-.0625.023-.1172.023-.1641 0-.2187 0-.3828 0-.4922 0-.125-.016-.2265-.047-.3046.031-.0313.039-.0782.024-.1407 0-.0625 0-.1172 0-.164.015-.1563.007-.2735-.024-.3516-.015-.0937-.008-.1719.024-.2344-.016-.1406-.032-.2422-.047-.3047 0-.0625-.032-.1093-.094-.1406-.141-.125-.211-.2031-.211-.2344-.203-.0156-.375.0157-.516.0938-.109.1406-.171.2109-.187.2109-.109.1563-.195.2578-.258.3047-.047.0469-.094.1016-.141.1641-.125.1562-.203.25-.234.2812-.172.0938-.297.1719-.375.2344-.062.0625-.141.0859-.234.0703-.078 0-.149-.0234-.211-.0703-.047-.0625-.11-.1094-.188-.1406-.031-.0781-.07-.1407-.117-.1875-.047-.0469-.086-.1094-.117-.1875-.109-.1563-.164-.2344-.164-.2344.015 0 .015-.0078 0-.0234-.078-.1407-.164-.2735-.258-.3985-.031.0313-.047.0703-.047.1172v.1406.2813.5156c0 .0781-.008.1641-.023.2578v.2813.5859c.015.1875.023.3828.023.5859.031.0782.047.1641.047.2579v.2578l.023.2578v.1641c.016.0312.024.0624.024.0937.016.1719.016.2734 0 .3047-.016.0312-.024.0625-.024.0937 0 .0938.016.2188.047.375-.015.0625-.023.1329-.023.211.016.0781.023.1484.023.2109.016.0469.016.0938 0 .1406v.1407c.016.1562.032.2656.047.3281.016.0469.024.0859.024.1172.031.2812.047.4609.047.539.015.0469.015.1016 0 .1641 0 .0469.007.0937.023.1406.031.1563.039.2422.023.2578v.0703l.071.3516c-.016.1563-.024.2422-.024.2578.016.0156.024.0391.024.0703-.047.1719-.071.2969-.071.375 0 .0782-.023.1329-.07.1641-.156.0156-.273.0234-.351.0234-.079.0157-.149.0391-.211.0704-.266.0312-.477.0234-.633-.0235-.156-.0312-.242-.0469-.258-.0469-.016.0157-.039.0235-.07.0235-.063 0-.11-.0078-.141-.0235-.031 0-.078 0-.141 0-.187-.0156-.304-.0234-.351-.0234-.031 0-.07-.0078-.117-.0234-.078 0-.164 0-.258 0-.078-.0157-.156-.0313-.235-.0469-.187-.0469-.3589-.0547-.5152-.0235-.1406.0313-.25.0547-.3281.0704-.1094 0-.1797 0-.2109 0-.0156-.0157-.0391-.0157-.0703 0-.0469 0-.0938.0078-.1407.0234-.0312 0-.0781-.0078-.1406-.0234-.125 0-.2265.0156-.3047.0468-.1718-.0625-.2656-.0937-.2812-.0937 0 0-.0078-.0156-.0235-.0469-.0468-.0781-.0859-.1328-.1171-.164-.0157-.0313-.0235-.0704-.0235-.1172.0156-.25.0156-.4297 0-.5391 0-.125.0078-.2422.0235-.3516 0-.1875 0-.3047 0-.3515.0156-.0625.0312-.1172.0468-.1641.0313-.2812.0625-.4609.0938-.5391.0156-.2031.0156-.3359 0-.3984s-.0156-.125 0-.1875c0-.1719.0078-.2656.0234-.2812.0156-.0313.0235-.0625.0235-.0938l-.0235-.3047c0-.0937 0-.1797 0-.2578s-.0156-.1484-.0469-.2109c.0157-.1719.0079-.2891-.0234-.3516-.0156-.0781-.0078-.125.0234-.1406.0157-.1406.0235-.2188.0235-.2344s-.0078-.0391-.0235-.0703c0-.0469 0-.0938 0-.1406.0157-.0469.0235-.086.0235-.1172 0-.0625-.0078-.1094-.0235-.1406-.0156-.0469-.0078-.0938.0235-.1407 0-.1562 0-.2734 0-.3515 0-.0938 0-.1797 0-.2578 0-.0782-.0078-.1485-.0235-.211-.0156-.0625-.0234-.1172-.0234-.164.0156-.2032.0078-.336-.0234-.3985.0156-.0625.0234-.1172.0234-.164 0-.0625.0078-.125.0234-.1875v-.2813-.4922c0-.125-.0078-.2109-.0234-.2578 0-.0625 0-.1172 0-.1641-.0312-.1562-.0469-.2812-.0469-.375 0-.1093 0-.2031 0-.2812.0157-.125.0157-.2031 0-.2344-.0156-.0468 0-.0625.0469-.0468-.0156-.25-.0391-.4219-.0703-.5157-.0156-.0937-.0078-.1797.0234-.2578-.0156-.0312-.0312-.0703-.0468-.1172-.0157-.0469-.0235-.1015-.0235-.164.0156-.1407.0156-.2266 0-.2579-.0156-.0312-.0234-.0624-.0234-.0937 0-.2031 0-.3594 0-.4687-.0156-.1719-.0235-.2813-.0235-.3282.0157-.0625.0235-.125.0235-.1875v-.3515c-.0156-.125-.0235-.2188-.0235-.2813-.0312-.1875-.0468-.3047-.0468-.3515 0-.0469-.0078-.0938-.0235-.1407l-.0234-.3281c-.0156-.1406-.0156-.2969 0-.4688.1406-.1718.2031-.2578.1875-.2578.1875-.0781.3047-.1172.3516-.1172.1875.0157.3046.0157.3515 0 .0469-.0156.1016-.0312.1641-.0468.125 0 .2031-.0078.2344-.0235.0312-.0156.0625-.0234.0937-.0234.0469-.0156.0938-.0156.1406 0 .0625.0156.1094.0078.1407-.0234.2187.0156.375.0234.4687.0234.0936 0 .1796-.0156.2576-.0469.047-.0156.11-.0156.188 0s.14.0469.187.0938c.078-.0313.149-.0391.211-.0235h.188c.172.0313.312.0469.422.0469.125-.0156.234-.0078.328.0234.078-.0312.172-.039.281-.0234s.203 0 .281-.0469l.281.0703c.157.1563.266.2969.329.4219.062.1094.046.2188-.047.3281-.032.1407-.055.2813-.071.4219-.015.125-.039.2657-.07.4219-.016.1875-.031.2969-.047.3281 0 .0313-.008.0625-.023.0938-.016.0781-.024.1484-.024.2109.016.0625.008.1328-.023.211zm15.961-6.586c.031.0313.047.0703.047.1172 0 .0312.007.0781.023.1406.031.1875.031.3438 0 .4688v.2812c-.016.2344-.031.4141-.047.5391-.015.125-.015.2344 0 .3281.016.0781.016.1484 0 .211-.015.0468-.023.0937-.023.1406v.1406c.015.0469.023.0859.023.1172 0 .0781-.008.1562-.023.2344-.016.0625-.024.1328-.024.2109-.031.3437-.031.6797 0 1.0078-.078.0938-.101.1875-.07.2813.031.0312.07.039.117.0234.063-.0156.11-.0234.141-.0234.078 0 .133-.0078.164-.0235.031-.0156.07-.0234.117-.0234.172-.0313.328-.0313.469 0 .156.0156.297 0 .422-.0469.078.0313.156.0547.234.0703.078 0 .141.0391.188.1172.109.1719.164.3047.164.3985.093.1562.132.2421.117.2578-.016.0156-.024.039-.024.0703.032.1093.039.1875.024.2343v.1641c-.016.125-.031.2031-.047.2344v.0703c-.016.0781-.023.1641-.023.2578.015.0781.007.1484-.024.211.031.125.047.2265.047.3046-.047.3125-.063.5625-.047.75.031.1875.031.3594 0 .5157-.016.0625-.031.125-.047.1875 0 .0468.008.1093.024.1875-.063.1093-.094.1797-.094.2109.016.0156.008.0312-.024.0469 0 .0625-.023.1093-.07.1406-.031.0313-.039.0781-.023.1406-.063.0157-.11.0391-.141.0703-.031.0157-.078.0078-.141-.0234-.156.0469-.343.0547-.562.0234h-.586c-.219-.0625-.359-.0859-.422-.0703-.062.0157-.133.0235-.211.0235-.031.0625-.047.125-.047.1875.016.0625.024.1328.024.2109v.4219c0 .1406-.008.2734-.024.3984 0 .1094-.007.2422-.023.3985v.375c.016.0468.023.0937.023.1406.016.1562.008.3125-.023.4687-.016.1407.008.2891.07.4453.016.1875.016.3047 0 .3516-.015.0312-.023.0625-.023.0938.015.2031.031.3359.047.3984.015.0469.031.0937.047.1406v.2344c.015.0156.023.039.023.0703.016.0469.031.0937.047.1406.015.0469.023.0938.023.1407.11.0468.172.0859.188.1171.031.0313.054.0625.07.0938.219.0625.359.1328.422.2109.078 0 .141.0078.187.0235.047.0156.118.039.211.0703.125.0156.274.0156.446 0 .078-.0156.179-.0235.304-.0235l.305-.0468c.125-.0157.195-.0313.211-.0469s.039-.0234.07-.0234c.172-.0157.282-.0391.328-.0704.063-.0312.125-.0546.188-.0703h.187c.016-.0156.04-.0234.071-.0234.172.0937.265.1406.281.1406.031 0 .047.0156.047.0469.031.0781.039.1328.023.164-.015.0313-.039.0704-.07.1172v.3047c0 .0625-.016.1328-.047.211-.031.0937-.07.1875-.117.2812-.016.0313-.031.0703-.047.1172 0 .0469-.008.0937-.023.1406-.078.1719-.125.3047-.141.3985-.016.0781-.039.164-.07.2578-.032.0781-.055.1484-.071.2109-.015.0625-.046.125-.093.1875-.063.2188-.102.375-.118.4688-.046.1406-.07.2187-.07.2343.016 0 .016.0079 0 .0235-.047.1718-.078.289-.094.3515 0 .0625-.015.1329-.046.211l-.094.3281c-.094.1719-.149.2656-.164.2812-.141.125-.219.1876-.235.1876-.015.0156-.039.039-.07.0703-.109.0156-.187.0312-.234.0468-.047.0157-.086.0391-.118.0703-.14 0-.242.0313-.304.0938-.094-.0156-.188-.0234-.281-.0234-.094.0156-.219.0234-.375.0234-.125 0-.196 0-.211 0-.016.0156-.032.0234-.047.0234-.11-.0312-.219-.0468-.328-.0468-.125-.0157-.211-.0235-.258-.0235-.172 0-.289-.0156-.352-.0469-.078-.0156-.187-.0312-.328-.0468-.125 0-.226-.0078-.305-.0235-.093-.0156-.195-.0312-.304-.0468-.094 0-.196-.0079-.305-.0235-.156-.0781-.242-.125-.258-.1406 0 0-.008 0-.023 0-.125-.0625-.219-.1094-.281-.1406-.188-.0313-.29-.0547-.305-.0703 0-.0157-.016-.0313-.047-.0469-.25-.1094-.391-.2188-.422-.3281-.156-.0625-.234-.1016-.234-.1172 0-.0157-.016-.0313-.047-.0469-.125-.1094-.188-.1797-.188-.2109-.109-.125-.179-.1953-.211-.211-.031-.0312-.054-.0781-.07-.1406-.125-.1719-.195-.2656-.211-.2813 0-.0156-.015-.039-.047-.0703-.031-.0312-.054-.0703-.07-.1171-.016-.0626-.039-.1172-.07-.1641-.094-.2344-.157-.3985-.188-.4922-.015-.1094-.039-.2031-.07-.2813-.016-.0781-.031-.1406-.047-.1874 0-.0626-.008-.1329-.023-.211-.016-.0625-.032-.1328-.047-.2109 0-.0781-.016-.1641-.047-.2578l-.024-.2579c-.062-.1406-.093-.2265-.093-.2578.015-.0312.023-.0625.023-.0937-.031-.1094-.031-.2266 0-.3516-.047-.0781-.062-.1562-.047-.2343.031-.0938.055-.1797.07-.2579 0-.0781-.007-.1406-.023-.1875 0-.0625 0-.125 0-.1875 0-.0781.008-.1484.023-.2109.016-.0625.024-.1328.024-.2109.016-.0782.016-.1485 0-.211 0-.0781 0-.1562 0-.2343v-.7266c.016-.125.023-.211.023-.2578v-.3985c0-.0625 0-.1171 0-.164.016-.0625.024-.125.024-.1875-.016-.1406-.024-.2344-.024-.2813.016-.0625.024-.125.024-.1875v-.3281c-.031-.2187-.047-.3672-.047-.4453 0-.0938-.008-.1875-.024-.2813-.125.0313-.265.0625-.421.0938-.157.0312-.321.0547-.493.0703-.078 0-.148 0-.211 0-.046-.0156-.085-.0234-.117-.0234-.093 0-.172-.0078-.234-.0235-.047-.0156-.094-.0312-.141-.0469-.14-.0937-.242-.1562-.304-.1874-.032-.0782-.071-.1329-.118-.1641-.046-.0469-.086-.1094-.117-.1875s-.039-.1563-.023-.2344c.031-.0937.047-.1953.047-.3047 0-.0781 0-.1484 0-.2109s-.008-.1328-.024-.211c.016-.0624.024-.125.024-.1874 0-.0782-.008-.1329-.024-.1641-.047-.1563-.062-.2422-.047-.2578 0-.0157 0-.0469 0-.0938-.015-.125-.023-.2109-.023-.2578s0-.0859 0-.1172c-.016-.125-.024-.2422-.024-.3515-.015-.125-.023-.2422-.023-.3516-.016-.1562-.016-.2422 0-.2578s.023-.0391.023-.0703c-.015-.1563-.015-.25 0-.2813 0-.0312-.007-.0859-.023-.164.031-.1407.055-.211.07-.211.016 0 .032-.0156.047-.0468l.305-.3282c.078.0313.156.0313.234 0 .094-.0312.188-.0468.282-.0468l.304.0234c.172 0 .321.0312.446.0937.187 0 .296.0079.328.0235.031.0156.062.0234.093.0234.032.0156.071.0156.118 0 .046-.0156.101-.0156.164 0 .015-.0781.007-.164-.024-.2578-.015-.125-.023-.2656-.023-.4219.015-.1719.015-.3125 0-.4219v-.375c0-.1718 0-.2656 0-.2812.015-.0312.015-.0625 0-.0938-.031-.1562-.047-.2421-.047-.2578.016-.1093.008-.2109-.024-.3046.016-.0626.008-.1172-.023-.1641-.016-.0469-.031-.1016-.047-.1641-.015-.0625-.023-.1172-.023-.164.015-.0625.015-.125 0-.1875-.016-.0625-.032-.1094-.047-.1407-.016-.0468-.024-.0937-.024-.1406 0-.0312-.007-.0859-.023-.164-.016-.0782-.023-.125-.023-.1407.015-.125.015-.2031 0-.2343 0-.0313.007-.0626.023-.0938.016-.0625.055-.1172.117-.1641.063-.0468.11-.1015.141-.164.109.0312.242.0469.398.0469.156-.0157.281-.0313.375-.0469.031-.0157.071-.0157.117 0h.141c.078.0156.148.0234.211.0234.078-.0156.148-.0234.211-.0234.047.0156.094.0312.141.0469.046.0156.101.0312.164.0468.156-.0156.265-.0234.328-.0234.109.0156.172.0234.187.0234.016-.0156.039-.0156.071 0h.187c.031-.0156.063-.0156.094 0 .14.0156.242.0235.304.0235.079 0 .141-.0079.188-.0235h.234c.11 0 .18-.0156.211-.0468.125.0156.196.0312.211.0468.031 0 .063-.0156.094-.0468.031.0312.07.0468.117.0468.047-.0156.102-.0234.164-.0234.031 0 .071.0078.117.0234h.141c.078.0156.141.0235.188.0235.062-.0157.109.0078.14.0703z" fill="#693821"/></svg>