<svg fill="none" height="70" viewBox="0 0 159 70" width="159" xmlns="http://www.w3.org/2000/svg" xmlns:xlink="http://www.w3.org/1999/xlink"><linearGradient id="a"><stop offset="0" stop-color="#cf5c2b"/><stop offset="1" stop-color="#59173e"/></linearGradient><linearGradient id="b" gradientUnits="userSpaceOnUse" x1="122.096" x2="83.6957" xlink:href="#a" y1="-103.532" y2="-18.4703"/><linearGradient id="c" gradientUnits="userSpaceOnUse" x1="90.8065" x2="54.3755" xlink:href="#a" y1="-30.9254" y2="127.23"/><linearGradient id="d" gradientUnits="userSpaceOnUse" x1="90.4019" x2="43.7347" xlink:href="#a" y1="-25.9295" y2="170.238"/><linearGradient id="e" gradientUnits="userSpaceOnUse" x1="83.9784" x2="80.8334" xlink:href="#a" y1="88.1012" y2="44.2553"/><linearGradient id="f" gradientUnits="userSpaceOnUse" x1="134.794" x2="122.538" xlink:href="#a" y1="16.5635" y2="43.5323"/><linearGradient id="g" gradientUnits="userSpaceOnUse" x1="164.273" x2="60.0977" xlink:href="#a" y1="-64.9332" y2="134.037"/><linearGradient id="h" gradientUnits="userSpaceOnUse" x1="120.944" x2="113.213" xlink:href="#a" y1="14.3173" y2="31.3276"/><linearGradient id="i" gradientUnits="userSpaceOnUse" x1="139.539" x2="73.8311" xlink:href="#a" y1="-37.0867" y2="88.4125"/><linearGradient id="j" gradientUnits="userSpaceOnUse" x1="31.1356" x2="23.4051" xlink:href="#a" y1="28.6854" y2="45.6958"/><linearGradient id="k" gradientUnits="userSpaceOnUse" x1="49.7308" x2="-15.9774" xlink:href="#a" y1="-22.7184" y2="102.781"/><path d="m158.887 55.7615c-.082-1.446-.164-2.892-.234-4.338-.07-1.5169-.151-3.048-.221-4.5649-.047-1.0349-.117-2.1406-.14-3.218-.024-.8932.28-2.3675-.117-3.1756-.233-.482-.747-.6237-1.202-.723-.595-.1276-1.19-.2551-1.785-.3827.805-.2269 1.587-.5104 2.357-.8648.175-.0851.35-.1701.467-.3402.105-.156.14-.3686.163-.5529.268-1.9847.093-4.0828.093-6.0959-.011-2.0414-.011-4.097-.023-6.1384-.012-1.9422-.012-3.8985-.023-5.8407 0-.638.221-2.0414-.047-2.6085-.21-.4678-.712-.4395-1.097-.4962-.397-.0567-.793-.0567-1.19-.0283-.595.0425-1.179.1559-1.762.2693.77-.2552 1.563-.3827 2.334-.6096.501-.1417.991-.3402 1.458-.6379.28-.1843.584-.3402.747-.6947.07-.1417.093-.326.128-.4961.07-.3544.082-.723.105-1.0916.047-1.0065.082-2.0131.094-3.0338.011-.51034.011-1.02069 0-1.53105 0-.32606-.105-.63794-.129-.97817-.105-1.37512-.56-2.69353-1.283-3.75677-.724-1.04906-1.715-1.81459-2.812-2.169-.409-.12759-.817-.19847-1.237-.22683-49.336-1.885467-97.6911-1.95635-144.99629.02836-.1867.01417-.38507-.01418-.57177.04253-.1867.07088-.3734.15594-.57177.241-.38507.17012-.77014.34023-1.14354.56706-.72346.42529-1.40025.99235-1.867 1.78623-.26838.46783-.45508.99236-.70012 1.46018-.12836.241-.29172.42529-.39674.68047-.50176 1.21918-1.00352 2.45253-1.70364 3.52994-.67679 1.04905-.875159 2.72185-.805147 4.01195.105019 1.7579.140025 3.5299.268377 5.2878.21004 2.7928.01167 5.5856.26839 8.4067.035.3969.09335.8506.33839 1.1057.17503.1843.40841.2552.63011.3119.72347.1985 1.4586.3828 2.18206.5813-.89849.7088-2.2404.7655-2.71882 1.928-.15169.3827-.17503.808-.19837 1.2333-.08168 1.5027-.19837 2.9913-.28005 4.4798-.035.6663-.07001 1.3468-.08168 2.013-.02334.638-.05834 1.2618-.11669 1.8997-.116685 1.4885-.431742 3.4165-.05834 4.8767.36173 1.4035 1.80866 1.4602 2.8005 1.8004-.52509.0709-.92183.5954-1.23689 1.12-.15169.2693-.26838.5387-.4084.808-.12836.241-.24505.482-.35007.7372-.21003.5103-.38507 1.0349-.51342 1.5878-.08168.3686-.12836.6521-.14003 1.0348-.01167.3403-.02334.6805-.035 1.0207-.02334.6805-.03501 1.361-.04668 2.0415-.02334 1.3609-.03501 2.7218-.02334 4.0828.01167 1.3184-.24504 2.5943.21004 3.8843.45508 1.2901 1.23689 2.3959 2.21707 3.1189.79347.5954 1.69197.9073 2.62547.964 47.57359 2.5376 95.94039 2.5092 145.05439-.0142 1.295-.0709 2.544-.6947 3.501-1.7721.455-.5103.863-.964 1.202-1.6161.42-.7797.805-1.5878 1.166-2.41.887-1.9989 1.996-4.2246 1.856-6.5353z" fill="url(#b)"/><path d="m153.495 63.0065c-49.126 2.5092-97.4809 2.5517-145.05444.0141-2.11204 0-4.08407-1.8429-4.87754-4.1537-.35006-1.0349-.42008-2.1548-.3734-3.2606.01167-.1984.02334-.3827.07001-.5812.07001-.2977.1867-.5529.21004-.8648.01167-.1701.035-.3119.04667-.482.08168-.8789.10502-1.772.16337-2.651.035-.4961.08168-1.0065.19836-1.4885.12836-.5529.3384-1.0491.70013-1.3893 1.56362-1.4318 4.6325-1.4035 6.9079-1.4602.4434-.0142.8518-.0283 1.2252-.0567.9919-.0709 1.9837-.0992 2.9756-.0992-2.3571-.0142-4.7025-.2552-7.02463-.7514-1.09687-.2268-2.19373-.5103-3.27892-.8506-.25672-.0708-.53677-.1843-.78181-.326-.3384-.1843-.63012-.4537-.78181-.8506-.12836-.3402-.11669-.7372-.11669-1.0916.01167-.3544-.035-.723-.01167-1.0774.02334-.7655.10502-1.5027.16337-2.2541.05834-.6096.11668-1.2192.15169-1.8429.08168-1.6303.16336-3.2606.26838-4.8909.03501-.4962.08168-1.0349.36173-1.3751.17504-.2127.39674-.3119.61845-.4111.60677-.2694 1.22522-.4679 1.85533-.5955.32673-.0708.65345-.0708.9335-.1559.3384-.1276.59511-.2126.95684-.2552 3.46564-.4961 6.93124-.9781 10.40854-1.4743.4084-.0567.8285-.1134 1.2486-.1701-5.2276-.7656-10.4669-1.5595-15.69453-2.325-.23338-.0425-.45508-.0709-.68846-.0992-.21004-.0284-.43174-.0709-.57177-.2552-.01167-.0142-.02333-.0284-.035-.0425-.10502-.1701-.11669-.3686-.14003-.5813-.23337-3.4307.03501-6.9748-.12835-10.448-.01167-.1985-.05835-1.1625-.10502-2.2683-.05835-1.6019-.1517-3.43068-.1867-3.43068-.22171-3.81347 2.18205-7.10242 5.33262-7.23001 47.29354-1.998879 95.64844-1.927997 144.94944 0 3.162.12759 5.589 3.43071 5.344 7.27254-.081 1.30425.129 2.56595-.14 3.88435-.058.3119-.14.6238-.338.8364-.175.1843-.409.2552-.63.3119-.595.1701-1.19.3544-1.786.5245-.793.2269-1.575.4395-2.38.5529-4.761.6096-9.498 1.2334-14.248 1.8571-.128.0142-.256.0284-.385.0426-.151.0141-.303.0425-.455.0567.385-.0142.759-.0142 1.132-.0142 5.951-.1276 11.914-.241 17.877-.3686.163 0 .35 0 .478.1276.152.1418.187.3828.21.6096.035.3119.035.6096.035.8931-.012.9215-.14 1.8004-.14 2.7361 0 .8222.163 1.6303.163 2.4808-.011 1.2192-.046 2.4384-.081 3.6718-.094 2.7785-.257 5.5997-.502 8.3924-.035.4112-.082.8364-.303 1.1342-.175.2268-.432.3544-.677.4536-.152.0709-.304.1276-.467.1701-3.501 1.2192-7.328.2552-10.922 1.0065-.233.0426-.478.0993-.7.1702-.082.0141-.163.0425-.233.0708.291.0284.583.0426.875.0851 3.932.3402 7.853.8222 11.762 1.4318.455.0709.968.1701 1.237.6238.21.3402.21.8081.21 1.2334v1.4034c0 1.4177 0 2.8353.058 4.253.07 1.8713.164 3.7426.269 5.628.046.9215.093 1.843.151 2.7503.21 3.7993-2.182 7.074-5.309 7.2442z" fill="url(#c)"/><path d="m158.13 23.2968c-.012 1.2192-.047 2.4384-.082 3.6717-2.019.2268-3.991.4111-5.928.6805-.455.0567-.898.1134-1.353.1843-1.669.2126-3.338.4111-5.006.5812-.829.0851-1.669.1701-2.509.2552-.537.0567-1.015.3119-1.529.3828-.723.0992-1.517-.1276-2.252-.1843-.817-.0567-1.633-.0851-2.45-.0709-1.634.0283-3.279.1701-4.901.3969-3.267.4537-6.488 1.205-9.732 1.8571-5.192 1.0491-10.408 1.8572-15.659 2.3817 2.859.3402 5.694.9073 8.483 1.687-1.05.0992-2.1.1985-3.151.2694-3.337.2551-6.674.3827-10.011.4536-3.3377.0709-6.6867.0709-10.0239.0567-3.3373 0-6.6862-.0142-10.0235.0142-3.3373.0425-6.6745.1276-10.0118.3119-1.6686.0992-3.3373.2126-4.9942.3686-.4201.0425-.8285.085-1.2486.1275-.5018.0568-.9918.2269-1.5053.2978-3.979.567-7.9581 1.2758-11.8904 2.2115-6.1145 1.4602-12.2639 2.892-18.4834 3.4023-1.1202.0851-2.252.1702-3.3722.2552-5.356 1.3043-11.1437 1.5736-16.3946 2.3533-1.7854.2694-3.6057.4111-5.42602.4962-1.09687-.2268-2.19373-.5104-3.27893-.8506-.25671-.0709-.53676-.1843-.7818-.3261-.3384-.1843-.63012-.4536-.78181-.8505-.12836-.3403-.11669-.7372-.11669-1.0916.01167-.3545-.03501-.723-.01167-1.0774.02334-.7656.10502-1.5028.16336-2.2541 4.80754-.482 9.74346-2.169 14.36426-2.9912 5.9394-1.0349 11.9955-1.6445 17.9816-2.0556 6.7795-.4537 13.5474.5245 20.3036.5245 6.2661 0 12.5089-.6663 18.74-1.2759 12.1472-1.1908 24.2711-2.4242 36.395-3.7001-2.637-.0567-5.274-.1417-7.911-.2551-3.361-.1418-6.7217-.3261-10.0823-.5387-.7818-.0426-1.587-.1702-2.3571-.0709-.8051.1134-1.622.1417-2.4271.1276-1.5986-.0284-3.1972-.2694-4.7492-.7372-.9102-.2694-1.8203-.6238-2.7422-.8222-1.5636-.3261-3.1622-.2269-4.7608-.2552-5.9394-.0993-11.7855-1.9989-17.7249-1.928-1.5636.0142-3.1155.1701-4.6675.3402-1.6453.1843-3.3022.3686-4.9592.4253-.7351.0284-1.4936.0851-2.2054-.1134-.5484-.1559-1.1785-.0851-1.7386-.0992-1.0035-.0284-2.0071-.0567-3.0106-.0851-2.007-.0567-4.014-.0851-6.0327-.0992-7.6197-.0426-15.2161.4678-22.8358.3969-3.2439-.0283-6.55785-.1134-9.76676-.6805-.01166-.0141-.02333-.0283-.035-.0425-.10502-.1701-.11669-.3686-.14003-.5812-.23337-3.4307.03501-6.9749-.12835-10.4481-.01167-.1985-.05835-1.1625-.10502-2.2682 3.8857-.4112 7.79476-.5104 11.68046-.8506 7.608-.6805 15.216-.9782 22.8591-.9357 15.1344.0851 30.2337 1.2617 45.3215 2.651 15.0993 1.3893 30.1635 3.1047 45.2635 4.4089 7.631.6521 15.274 1.0633 22.917 1.0633 2.24 0 4.504-.1702 6.768-.3686-.012.9214-.14 1.8004-.14 2.736.035.8931.198 1.7012.187 2.5376zm.245 24.0859c-.059-1.4177-.059-2.8353-.059-4.253-4.819-.6379-9.65-1.29-14.492-1.7012-8.308-.6946-16.663-.5812-24.983-.1701-1.727.0851-3.431.1418-5.146.397-.829.1275-1.657.2551-2.485.3686-3.326.482-6.652.8647-9.989 1.1766-1.2952.1134-2.6021.2268-3.909.3261 3.372-.0284 6.745-.0567 10.117-.0851s6.744-.0567 10.117-.0851c1.68-.0141 3.372-.0283 5.052-.0425.84-.0142 1.681-.0142 2.532-.0283.35 0 .724.0283 1.074-.0709.21-.0567.42-.156.63-.1985.758-.1418 1.599.0425 2.357.0992.84.0567 1.669.1135 2.509.1702 1.668.1275 3.349.2693 5.017.4111 2.638.241 5.263.5103 7.889.7939 2.87.3118 5.717.723 8.576 1.1483-6.488.7513-12.964 1.531-19.463 1.9705-14.96 1.0065-29.919 2.2682-44.9018 1.8996-14.7727-.3402-29.5104-1.3751-44.2947-1.3042-7.7947.0283-15.5778.1843-23.3492.4678-5.741.1985-11.55205.1701-17.28142.879-.11669.4678-.16336.9923-.19837 1.4885-.05834.8789-.08168 1.7721-.16336 2.651 6.38281.3119 12.83565-.2127 19.20675-.2268 7.7831-.0142 15.5662.0709 23.3492.2977 14.7494.4253 29.487 1.4176 44.2247 1.7295 15.0062.3261 29.9772-.9782 44.9482-1.8996 7.725-.4679 15.496-.482 23.221-.5813h.163c-.105-1.8854-.198-3.7426-.268-5.628z" fill="url(#d)"/><g fill="#eb924d"><path d="m4.46051 42.5207c-.01166.7089-.01166 1.4319.17504 2.0982-.3384-.1843-.63012-.4537-.78181-.8506-.12836-.3403-.11669-.7372-.11669-1.0916.01167-.3544-.03501-.723-.01167-1.0774.04668-1.3752.25671-2.7219.31506-4.097.08168-1.6303.16336-3.2606.26838-4.8909.03501-.4962.08168-1.0349.36173-1.3751.17503-.2127.39674-.3119.61845-.4112.60677-.2693 1.22522-.4678 1.85533-.5954.29172-.085.61844-.085.89849-.1701.3384-.1276.59511-.2126.95684-.2552 3.46564-.4961 6.93124-.9781 10.40854-1.4743-3.7223.9214-7.4447 1.8146-11.17867 2.736-.72347.1702-1.69198.1702-2.29875.7514-.12836.1134-.23338.2552-.3384.3969-.09335.1276-.17503.2694-.28005.397-.19837.2126-.26838.5529-.36173.8506-.24504.8647-.38507 1.772-.42007 2.6793-.01167.3403-.01167.6947-.04668 1.0349-.01167.0851-.02334.1701-.035.2552-.01167.0992-.05835.1701-.08169.2693-.1867.6947-.16336 1.4602-.08168 2.169.03501.2552.10502.5104.1517.7656.11668.6096.035 1.2617.02333 1.8854z"/><path d="m138.841 16.7759c-.21-.0141-.42-.0283-.63-.0425h1.003c-.116 0-.245.0284-.373.0425z"/><path d="m142.27 37.7998c.968.1134 1.937.2268 2.905.3119-.233.0425-.478.0992-.7.1701-.747-.1701-1.494-.3402-2.205-.482z"/><path d="m156.529 36.0553c.151-.7371.116-1.5027.058-2.254-.082-1.3893-.175-2.7928-.257-4.1821-.011-.2693-.046-.5671-.221-.7372-.14-.1417-.339-.1417-.514-.1276-1.447.0567-2.882.1135-4.306.1702 1.552-.1702 3.093-.6663 4.493-1.4886.408-.241.828-.5387.98-1.0349.082-.2551.082-.5387.082-.8222-.024-2.1973-.339-4.6499-.56-6.8331-.677-.7797-1.692-.8789-2.626-.9498-3.757-.2835-7.526-.5529-11.272-.8364-.898-.0709-1.902-.1134-2.859-.1701 5.951-.1276 11.914-.241 17.877-.3686.163 0 .35 0 .478.1276.152.1418.187.3828.21.6096.129 1.2475-.116 2.3958-.116 3.6292 0 .8222.163 1.6303.163 2.4808-.058 3.9411-.233 8.0523-.595 12.0642-.035.4111-.082.8364-.303 1.1341-.176.2269-.432.3545-.677.4537-.152.0709-.304.1276-.467.1701.198-.2835.35-.6521.432-1.0349z"/><path d="m3.41132 14.3953c-.02333-.4678-.23337-5.68478-.30338-5.68478-.22171-3.81347 2.18205-7.10242 5.33262-7.23001 47.29354-1.998879 95.64844-1.927997 144.94944 0 3.162.12759 5.589 3.43071 5.344 7.27254-.081 1.30425.129 2.56595-.14 3.88435-.058.3119-.14.6238-.338.8364-.175.1843-.409.2552-.63.3119-.595.1701-1.179.3686-1.774.5245.513-.567 1.109-1.2333 1.342-2.0556.163-.5528.035-1.0348-.117-1.5594-.233-.82221-.28-1.60191-.303-2.46668-.035-1.06324.117-2.58012-.572-3.43071-.525-.63794-1.213-1.19082-1.867-1.58776-1.622-.96401-3.5-1.17665-5.286-1.26171-.093 0-.175-.01418-.268-.01418-3.291-.12759-6.593-.14176-9.884.26936-.396.04252-.746.18429-1.132.26935-.478.11341-1.05-.02835-1.54-.05671-1.12-.07088-2.229-.12759-3.349-.18429-2.228-.09924-4.469-.17012-6.709-.21265-1.681-.02835-3.349-.02835-5.03-.02835-.525 0-1.061 0-1.586 0-1.016 0-2.031 0-3.058 0-1.412 0-2.824 0-4.235-.01418-.07 0-.14 0-.199 0-2.24 0-4.469-.01418-6.709-.01418-1.121 0-2.241 0-3.349-.01417-.514 0-1.085.08506-1.587-.02835-.5137-.11342-.9221-.49618-1.4588-.55289-.4901-.0567-.9919.04253-1.4703.09924-1.2252.11341-2.4388.25517-3.6523.42529-.5485.07088-1.1552.1843-1.517.68047-.1283.17012-.2217.38277-.3734.52453-.3384.29771-.8168.09924-1.2135-.07088-.7818-.32606-1.6103-.51035-2.4504-.55288-.7585-.04253-1.5053.12759-2.2638.07088-.4784-.02835-.9335-.17012-1.4002-.28353-1.8437-.43947-3.7691-.46782-5.6244-.63794-1.3769-.12759-2.7655-.21265-4.1541-.26935-4.4691-.19847-8.9499-.08506-13.4074.14176-2.2404.11341-4.4691.25518-6.7095.4253-1.0269.07088-2.1587.34023-3.1739.17011-.2917-.04253-.5718-.18429-.8635-.25517-.3034-.07089-.6068-.05671-.9218-.05671-1.2369.01418-2.4855.02835-3.7224.02835-1.4469.01418-2.9055 0-4.3641 0-.4901 0-.9685.11342-1.4469.11342-.4434 0-.8752-.11342-1.3186-.11342-.9218.01418-1.832.22683-2.6838.65212-.3267.17012-.6651.35441-1.0269.34024-.6534-.04253-1.0968-.79389-1.6919-1.13412-1.4003-.808061-2.8472.73718-4.2825.11341-.7118-.31188-1.4352-.26935-2.1937-.26935-.9568-.01418-1.9137-.01418-2.8705-.01418-3.2439.01418-6.4878.15594-9.7084.55288-1.6103.19847-3.2089.46783-4.80756.80806-.77013.17012-1.55194.43947-2.33375.55289-.2217.02835-.39674.02835-.60677.21264-.95684.80806-3.58232 5.33036-1.70364 6.91814.11668.0992.24504.1843.38507.2552.19836.0992.4084.1417.61844.2268.21004.0992.47842.0283.70013.0283.53676 0 1.07352 0 1.59862-.0141.57177 0 1.14354-.0142 1.6803.1843-1.21355.3118-2.4271.6095-3.64066.9073-.39673.0992-.79347.1984-1.16687.3969-.05835.0425-.12836.0567-.19837.0851-.25671.1134-.44341.4961-.53676.7938-.24505.7797-.09335 1.6303-.19837 2.4384-.1867 1.446.04667 3.0054.16336 4.4372.15169 1.843.33839 3.7001.5601 5.543-.23338-.0425-.45508-.0708-.68846-.0992-.2217-.0284-.45508-.0709-.60677-.2835-.10502-.1701-.11669-.3686-.14003-.5813-.23337-3.459.03501-7.0031-.11669-10.4622z"/><path d="m158.796 55.7612c-.164-2.7928-.304-5.5856-.42-8.3783-.07-1.8855-.059-3.771-.059-5.6565 0-.4253-.011-.8789-.21-1.2333-.268-.4537-.782-.5529-1.237-.6238-3.909-.6096-7.829-1.0916-11.762-1.4318 3.501.8222 7.118 1.8713 10.444 2.9912.653.2269.7.8364.968 1.5878.257.7514.28 1.6019.304 2.41.011.3402.011.6805-.082 1.0065-.198.723-.829 1.12-1.389 1.4602.42.1418.84.2835 1.272.4395.105.0425.21.0709.28.1701.082.0992.117.2694.129.4253.163 1.3468.035 2.7644.046 4.1254.012.8789.012 1.7578.024 2.6368.011.241.081.4678.128.723.07.5103.023 1.0349-.105 1.531-.257 1.0207-.829 1.928-1.564 2.5093-1.272 1.0065-2.858 1.2192-4.375 1.3467-2.533.2269-5.076.1985-7.597.4962-.84.0851-1.668.1843-2.509.2694-1.668.1701-3.349.3119-5.017.4536-3.162.2552-6.336.4537-9.499.5813-7.491.3118-14.994.2835-22.497.2268-.898-.0284-1.809-.0284-2.707-.0284-.735 0-1.4353.1134-2.1588.0284-1.762-.2127-3.5123.1701-5.2626.4111-2.042.2694-4.2358.2977-5.9977-.9782-.5601-.4111-1.1086-.9498-1.762-.9782-.5368-.0141-1.0386.3545-1.5286.638-.9335.5387-1.9604.8364-2.9872.9923-.0234 0-.035 0-.0584.0142-2.182.3403-4.2824.156-6.4645-.0283-1.5986-.1276-3.2789.1984-4.8075-.4962-1.1786-.5245-2.4155-1.2759-3.629-.879-.4318.1418-.8168.4253-1.2252.6238-.7935.3828-1.6687.4537-2.5205.5104-.5367.0283-1.0735.0567-1.6103.085-2.2287.0851-4.4691.0709-6.6978-.0425-.9335-.0567-1.8904-.0425-2.8005-.3686-.6302-.2268-1.2486-.0851-1.9021-.0283-2.7071.2126-5.4259.2693-8.1448.1559-1.1085-.0425-2.217-.1134-3.3139-.2127-.5367-.0425-1.0968-.1701-1.6336-.1701-.3734 0-.7118.1418-1.0852.1418-2.2521-.0142-4.4925-.0567-6.7446-.0851-3.839-.0425-7.6897-.0992-11.5287-.1417-2.6255.4394-4.8309-.1134-7.433-.6947-2.13538-.482-4.45747-1.531-5.34429-3.941-.3734-1.0066-.43175-2.1265-.39674-3.2039.01167-.3261.03501-.638 0-.964-.03501-.2977-.11669-.5671-.15169-.8648-.11669-.9782.12835-2.1123.32672-3.0621.10502-.482.23338-.9924.5251-1.361.25671-.3402.61844-.5387.98017-.6804.95684-.3686 1.97202-.4537 2.97554-.5246 1.44689-.0992 2.89389-.2126 4.34079-.3118.2917-.0142.5834-.0426.8751-.0567-.035-.1702-.0583-.3403-.0583-.5246l.0117-.0709c-.8869-.0283-1.7737-.0283-2.6605-.0425-2.28709.0567-5.3443.0425-6.90792 1.4602-.70012.6379-.82848 1.8146-.89849 2.8636-.07002 1.0349-.09335 2.0982-.21004 3.133-.03501.3119-.14003.5671-.21004.8648-.04667.1985-.05834.3828-.07001.5812-.04668 1.12.02334 2.2399.3734 3.2606.78181 2.325 2.75383 4.1537 4.87754 4.1537 47.57356 2.5376 95.92846 2.5093 145.05446-.0141 3.127-.156 5.519-3.4307 5.298-7.23z"/><path d="m11.8828 35.1626c0 .7655.0234 1.5452.0584 2.3108.0116.3827.035.7655.0583 1.1483.0117.2835 0 .5954.0467.8647.0467.2268.0933.4253.0933.6663.0234.6521.0467 1.3184.0817 1.9705.0467 1.3185.105 2.6227.1517 3.9411.07 1.687.1284 3.3598.1984 5.0468.035.9357.1633 1.7437.5717 2.5376.0817.156.1517.3119.2451.4537.1517.241.3384.4111.5718.5387.8518.4536 1.8203.6946 2.7421.8648 1.4236.2693 2.8589.3402 4.2941.3969 18.9151.808 37.8535 1.6303 56.7802 1.0632 2.3105-.0709 4.7026-.1417 6.8496.9073-.9802-2.1265-3.3489-2.4383-5.356-2.495-21.0271-.5813-42.0659-1.2334-63.023-3.3599-.5717-.0567-1.2019-.1417-1.6103-.6521-.2917-.3544-.4084-.8647-.5017-1.3468-1.0735-5.2594-1.2836-10.7741-.6301-16.1328.035-.326.1167-.6805.105-1.0065-.0117-.3403-.0467-.6805-.0467-1.0349-.0117-.7088.0117-1.4318.07-2.1407-.0817-.1701-.28-.1701-.4317-.1417-.3968.0567-.7935.0992-1.2019.1559.0233.4678 0 .9073-.0467 1.3751-.0116.156.0117.2694.0234.4253.0233.3119-.0234.638-.035.9357-.0234.4536-.035.9215-.0467 1.3751 0 .4395-.0117.8931-.0117 1.3326z"/><path d="m85.455 58.1289c.2334-.723 1.0152-.8506 1.657-.8648 5.0992-.1276 10.1868-.241 15.286-.3686 4.808-.1134 9.627-.2268 14.434-.3544 1.552-.0425 3.209-.0425 4.493 1.0207-.024-.2268-.059-.4536-.082-.6805.549-.1134 1.074-.2551 1.634-.1984.303.0283.618-.0993.922-.1418.711-.1134 1.435-.1559 2.147-.1985 3.955-.2126 7.923-.2835 11.89-.5245 1.004-.0567 1.995-.1418 2.999-.2268.992-.0851 1.995-.156 2.976-.3261.14-.0283.268-.085.408-.0992.187-.0142.373-.0284.56-.0425 1.004-.0993 2.019-.3261 2.952-.8506 1.167-.6521 2.194-1.8146 2.567-3.3031.164-.6663.199-1.361.234-2.0556.116-3.1756.081-6.3653-.117-9.5266-.128-.156-.455.1276-.502.3544-.478 2.3107-.84 4.6499-1.073 7.0032-.14 1.4034-.257 2.892-.969 3.9977-.782 1.205-2.088 1.687-3.325 2.0273-6.57 1.8429-13.361 2.0272-20.094 2.1973-6.278.156-12.556.3261-18.822.482-5.227-.2126-10.5833.7939-15.7759.1134-1.4586-.1984-2.9288-.5103-4.3874-.2551-.1051.0141-.2217.0425-.3034.1417-.0584.0709-.07.1701-.0934.2694-.175.7372.1051 1.6728.3851 2.41z"/></g><path d="m150.32 44.6755c-.012-2.6936-.035-5.3871-.059-8.0948-.011-2.5943-.035-5.1744-.046-7.7687-.024-3.1189.081-6.266-.222-9.3565-.058-.6096-.187-1.2334-.175-1.8429.012-.9215-.14-1.6303-.478-2.5093-.432-1.1908-1.051-2.2824-1.751-3.2748-1.517-2.18313-3.699-2.28237-5.974-2.39578-2.392-.12759-4.773-.01417-7.153-.02835-2.661-.01418-5.333-.02835-7.993-.05671-3.244-.02835-6.476-.07088-9.72-.11341s-6.488-.08506-9.732-.12759c-1.622-.01417-3.244-.04253-4.866-.0567-.338 0-.688-.04253-1.015.0567-.21.05671-.397.15594-.607.1843-.7233.08506-1.5518-.14177-2.2636-.31189.0934-2.02723.3851-4.04029.8752-5.99665-.6651 2.01306-1.4236 3.98359-2.2871 5.88324-.0583.12759-.1167.25518-.2217.31189-.105.0567-.2333.04252-.3384.02835-.245-.04253-.5017-.07088-.7468-.14177-.5601-.17011-1.1552-.09923-1.7386-.09923-2.5088-.02835-5.0059-.04253-7.5147-.05671-4.9242-.02835-9.8484-.01417-14.761.02836-5.2743.04252-10.5486-.04253-15.8345-.07089-1.4353-.01417-2.8705-.02835-4.2941-.02835-.6185 0-1.2136-.02835-1.8087.12759-.6184.17012-1.3769.02835-2.007-.01418-.3501-.02835-.7235-.07088-1.0035-.34023-.2801-.25518-.4084-.6663-.5368-1.06324-.2567-.82224-.5134-1.64447-.7701-2.46671.035.964.1167 1.91383.245 2.86365.035.31188.0584.70883-.175.86477-.07.04253-.1634.0567-.2451.07088-.28.02835-.5717.11341-.8518.04253-.5367-.12759-1.0735-.08506-1.6219-.08506-5.9978 0-11.9722-.02835-17.9466-.05671-3.3489-.01417-11.4004-2.08394-12.4972 3.4449-.1517.7655-.1401 1.5594-.1867 2.3533-.1167 2.3816-.0467 4.7775-.0117 7.1733.0933 7.8963.28 15.7926.5367 23.6747.0351 1.205.0817 2.4242.2101 3.6292.105.9498.0467 2.1973.6651 2.9345.21.2552.3617.4962.5484.7939.3734.5813.8869 1.0207 1.447 1.3326 1.2018.6805 2.5904.8648 3.9207.9357 4.3408.2551 8.6699.4678 12.999.6237 4.3641.1701 8.7165.3261 13.0807.4253 4.3641.0992 8.7165.1701 13.0806.1985 3.9558.0283 7.9115.0425 11.8672.0567h6.0561c2.182 0 4.8192-.8222 6.8262.4395 1.0035.6237 1.8437 1.6303 2.3221 2.8778-.0817-1.0065-.0584-2.0273.07-3.0338 1.587-.2693 3.1739-.4395 4.7725-.4678.6885-.0142 1.3536.1134 2.0421.0992.8051 0 1.6219-.0141 2.4271-.0141 3.2439-.0284 6.4878-.0568 9.7318-.0993 2.007-.0283 4.014-.0567 6.033-.085 4.364-.0567 8.716-.1843 13.08-.3828.782-.0425 1.576-.0709 2.357-.1134 6.01-.2835 12.019-.7088 18.017-1.2901.513-.0567 1.004-.1134 1.482-.2268.77-.1843 1.494-.5104 2.124-1.1625.77-.7939 1.517-1.6444 2.03-2.6935.829-1.687.618-3.615.607-5.5288zm-3.256 3.6575c-.315.6379-.898 1.2759-1.377 1.7579-.116.1134-.291.2552-.746.3544-.339.0851-.736.1276-1.132.1701-5.753.5529-11.774.9782-17.889 1.2901-.781.0425-1.552.0709-2.333.0992-4.574.1985-8.822.3261-12.999.3828-12.4042.1843-24.6214.2835-36.3369.2835-5.2509 0-10.5019-.0142-15.7645-.0567-4.3174-.0425-8.7165-.0992-13.034-.1985-4.3174-.0992-8.7049-.241-13.034-.4111s-8.6932-.3828-12.964-.6379c-.9452-.0426-2.0187-.156-2.7772-.5813-.1867-.1134-.28-.1984-.3034-.2268-.14-.2268-.315-.4962-.5134-.7797-.0117-.1418-.0233-.2977-.035-.4253-.0233-.2552-.035-.4962-.0583-.7372-.1051-1.0207-.1401-2.0697-.1867-3.3314-.2684-7.7971-.4551-15.7359-.5368-23.5755l-.0117-1.3326c-.035-1.9422-.0583-3.771.035-5.5714.0117-.1985.0117-.4111.0234-.6379.0116-.4395.0233-.8364.07-1.0633.105-.482 1.2252-.9781 3.5473-.9781 1.1435 0 2.3688.1134 3.4423.2126.9218.0992 1.797.1701 2.5438.1701 5.3326.0284 10.6769.0425 16.0212.0425h2.9989c3.9907 0 7.9814.0142 11.9838.0426l3.8507.0283c2.8121.0284 5.636.0426 8.4482.0426 1.1785 0 2.3687 0 3.5706-.0142 2.9755-.0284 5.9394-.0425 8.9149-.0425 10.0702 0 20.3388.1417 30.2568.2693 7.783.0992 15.847.1985 23.735.241l.385.0142c.7 0 1.377-.0142 2.077-.0142.677-.0142 1.353-.0142 2.018-.0142.981 0 1.797.0142 2.533.0567h.081c2.136.1276 3.127.2552 3.711 1.0916.595.8506 1.003 1.6303 1.283 2.3817.211.5812.211.7372.211.964-.012.7372.081 1.3751.14 1.8854.011.1418.035.3119.058.4537.21 2.1548.198 4.3664.198 6.7196-.011.7372-.011 1.4744 0 2.2116l.105 15.8209c.012.3545.012.6805.024 1.0066.011 1.1199.035 2.1123-.234 2.6368z" fill="url(#e)"/><g fill="#eb924d"><path d="m11.9402 30.1587 3.5706-.8648-.1516-.4111-3.699.5387z"/><path d="m146.319 17.2157 4.142.4253v-1.1342l-4.481.241z"/><path d="m146.611 38.8915 4.586 1.0633-.093-.8932-4.924-.5245z"/><path d="m133.202 34.1279c-3.489-2.3674-9.289-1.6444-12.054 1.5453-1.739 2.013-1.832 5.7698 0 7.7687 4.026 4.4089 11.097 2.5234 13.652-2.9204.047-.0567.094-.1134.152-.1559 1.949-2.1407.56-5.699-1.75-6.2377z"/></g><path d="m134.03 32.044c-3.489-2.3675-9.289-1.6445-12.054 1.5452-1.739 2.0131-1.832 5.7698 0 7.7687 4.026 4.4089 11.097 2.5234 13.652-2.9204.047-.0567.094-.1134.152-.1559 1.949-2.1406.56-5.6989-1.75-6.2376z" fill="url(#f)"/><path d="m133.202 33.3906c-3.489-2.3674-9.289-1.6444-12.054 1.5453-1.739 2.013-1.832 5.7698 0 7.7687 4.026 4.4089 11.097 2.5234 13.652-2.9204.047-.0567.094-.1134.152-.1559 1.949-2.1407.56-5.699-1.75-6.2377z" fill="url(#g)"/><path d="m119.937 25.3954c-2.205-1.5027-5.858-1.0349-7.596.9781-1.097 1.2618-1.155 3.6434 0 4.9051 2.544 2.7786 7.001 1.5878 8.611-1.8429.035-.0284.059-.0709.094-.0993 1.225-1.3609.35-3.6008-1.109-3.941z" fill="#eb924d"/><path d="m120.461 24.0907c-2.206-1.5027-5.858-1.0349-7.597.9782-1.097 1.2617-1.155 3.6433 0 4.905 2.544 2.7786 7.001 1.5878 8.612-1.8429.035-.0284.058-.0709.093-.0993 1.225-1.3751.35-3.615-1.108-3.941z" fill="url(#h)"/><path d="m119.937 24.9266c-2.205-1.5027-5.858-1.0349-7.596.9782-1.097 1.2759-1.155 3.6434 0 4.9051 2.544 2.7785 7.001 1.5877 8.611-1.843.035-.0283.059-.0709.094-.0992 1.225-1.361.35-3.6008-1.109-3.9411z" fill="url(#i)"/><path d="m30.1324 39.7694c-2.2054-1.5027-5.8577-1.0349-7.5963.9782-1.0969 1.2617-1.1552 3.6433 0 4.905 2.5438 2.7786 7.0012 1.5878 8.6115-1.8429.035-.0284.0584-.0709.0934-.0992 1.2252-1.361.35-3.6009-1.1086-3.9411z" fill="#eb924d"/><path d="m30.6559 38.451c-2.2054-1.5027-5.8577-1.0349-7.5964.9782-1.0969 1.2759-1.1552 3.6434 0 4.9051 2.5438 2.7786 7.0013 1.5877 8.6116-1.843.035-.0283.0583-.0709.0933-.0992 1.2252-1.3609.3501-3.6008-1.1085-3.9411z" fill="url(#j)"/><path d="m30.1324 39.3016c-2.2054-1.5027-5.8577-1.0349-7.5963.9782-1.0969 1.2759-1.1552 3.6434 0 4.9051 2.5438 2.7786 7.0012 1.5877 8.6115-1.843.035-.0283.0584-.0709.0934-.0992 1.2252-1.361.35-3.6008-1.1086-3.9411z" fill="url(#k)"/><path d="m13.0117 17c0-3.3137 2.6863-6 6-6h118.7583c5.523 0 10 4.4772 10 10v23c0 5.5228-4.477 10-10 10h-116.7583c-4.4183 0-8-3.5817-8-8z" fill="#eb924d" opacity=".9"/><path d="m63.3711 30.5625c.0469.0156.0859 0 .1172-.0469.0312-.0468.0625-.0859.0937-.1172.0782-.0468.1328-.0781.1641-.0937.0312-.0313.0625-.0625.0937-.0938.1563-.1093.25-.1718.2813-.1875l.1875-.1875c.1562-.0625.25-.1171.2812-.164.0469-.0469.1016-.0938.1641-.1407.0469-.0468.0781-.0781.0938-.0937.0312-.0313.0625-.0625.0937-.0937.125-.0782.2031-.125.2344-.1407.0469-.0156.0859-.0312.1172-.0469.1562-.1406.2578-.2265.3047-.2578.0625-.0312.125-.0625.1875-.0937.0625-.0625.1328-.1094.2109-.1406.0781-.0469.1484-.1094.2109-.1875.0469-.0313.086-.0469.1172-.0469.0469-.0156.086-.0391.1172-.0703.0938-.0625.1484-.1016.1641-.1172.0156-.0313.039-.0469.0703-.0469.0312-.0312.0781-.0469.1406-.0469h.2109c.1407-.0156.2188-.0156.2344 0 .0313.0157.0625.0313.0938.0469.125.0938.1953.1406.2109.1406.0313 0 .0625.0157.0938.0469.1406.0938.2031.1406.1875.1406-.0157-.0156-.0079-.0078.0234.0235.1719.0937.2656.1484.2812.164l.211.1875c.0312.0313.0703.0625.1172.0938.0468.0312.0781.0703.0937.1172.1406.1094.2188.164.2344.164.0781.0469.1641.1328.2578.2578.1406.0782.2188.1172.2344.1172.1094.0625.1797.125.2109.1875.125.0313.2266.1094.3047.2344.0781.1094.1875.1953.3281.2578.0157.0625.0469.1094.0938.1407.0469.0156.0781.0624.0937.1406.0469 0 .086-.0235.1172-.0703.0469-.0469.086-.0782.1172-.0938.1094-.0156.1719-.0312.1875-.0469.0156-.0312.0391-.0625.0703-.0937.0625-.0313.1016-.0625.1172-.0938.0313-.0312.0625-.0625.0938-.0937.1562-.0625.2343-.0938.2343-.0938 0-.0156.0078-.0234.0235-.0234.125-.125.1953-.1875.2109-.1875.0156-.0156.0313-.0313.0469-.0469.1719-.0937.2734-.164.3047-.2109.0468-.0625.1015-.1172.164-.1641.1563-.1094.25-.164.2813-.164.125-.1094.2109-.1719.2578-.1875.1562-.1407.2656-.2266.3281-.2579.0625-.0312.1172-.0624.1641-.0937.0781-.0625.1562-.1094.2344-.1406.0781-.0469.1406-.1094.1875-.1875.0468-.0156.0859-.0313.1171-.0469.0469-.0156.0938-.0391.1407-.0703.125-.1094.1953-.1641.2109-.1641.0313-.0312.0859-.0469.1641-.0469h.2109c.125 0 .1953.0079.2109.0235.0313 0 .0625.0156.0938.0469.125.0781.1953.1172.2109.1172.0313 0 .0625.0156.0938.0468.1406.0938.2109.1328.2109.1172s.0078-.0078.0235.0234c.1406.125.2265.1876.2578.1876l.2109.164c.0469.0469.0859.086.1172.1172.0469.0312.0781.0703.0937.1172.1094.0469.2032.1094.2813.1875.0937.0781.1797.1562.2578.2344.1563.0937.2578.164.3047.2109.0469.0312.0859.0625.1172.0938.125.0468.2187.125.2812.2343.0782.1094.1797.1953.3047.2578.1406.1563.2266.2657.2578.3282.0313.0625.0625.1171.0938.164.1094.1094.1953.211.2578.3047.2031.2344.3359.4375.3984.6094s.1328.3437.211.5156l.0234.4219.0469.2812c0 .0938.0156.1875.0469.2813.0156.0625.0156.1172 0 .164-.0157.0469-.0313.1016-.0469.1641.0156.1719.0156.2891 0 .3516v.164.1172c.0156.0469.0156.1016 0 .1641-.0313.1875-.0547.3203-.0703.3984 0 .0782.0078.1719.0234.2813.0156.1562.0078.2656-.0234.3281-.0157.0625-.0235.1328-.0235.2109-.0156.0469-.0234.1016-.0234.1641.0156.0469.0234.0938.0234.1406.0313.2188.0313.4688 0 .75.0157.1563.0157.2344 0 .2344v.0234c.0157.1094.0157.1719 0 .1875v.0703c.0157.0626.0235.1563.0235.2813v.1875c.0156.0156.0234.0391.0234.0703l-.0469.2813c.0157.0781.0235.1484.0235.2109v.1641c0 .125-.0078.2578-.0235.3984 0 .125.0078.25.0235.375.0312.125.0468.2734.0468.4453 0 .1563.0079.3125.0235.4688.0312.2187.0469.3593.0469.4218.0156.1719.0156.336 0 .4922 0 .1563.0078.3203.0234.4922v.1172c.0156.0469.0156.1016 0 .1641-.1563.1718-.25.2734-.2813.3046-.1093.0469-.1796.0704-.2109.0704-.0156 0-.0391.0078-.0703.0234-.1563.0469-.2578.0625-.3047.0469-.0312 0-.0703 0-.1172 0-.0781 0-.1719-.0078-.2812-.0235-.0938 0-.1875 0-.2813 0-.2031 0-.3437 0-.4219 0-.0625.0157-.1328.0235-.2109.0235-.1719 0-.2734-.0078-.3047-.0235-.0312 0-.0625 0-.0937 0-.0625 0-.1172 0-.1641 0-.0469.0157-.1016.0157-.1641 0-.1562-.0312-.2421-.0468-.2578-.0468-.0312-.0157-.0703-.0157-.1172 0-.0468 0-.0937.0078-.1406.0234-.0469 0-.0937 0-.1406 0-.0469-.0156-.0859-.0234-.1172-.0234-.1562.0468-.3203.0703-.4922.0703-.1562 0-.2656-.0157-.3281-.0469-.2031-.1406-.3047-.3047-.3047-.4922s.0078-.3672.0234-.539c0-.0469-.0078-.0938-.0234-.1407 0-.0625.0078-.1172.0234-.164.0157-.1094.0313-.2032.0469-.2813.0313-.0781.0547-.1797.0703-.3047 0-.1719.0078-.2969.0235-.375.0312-.0937.0468-.1797.0468-.2578v-.2578c.0157-.125.0157-.1953 0-.2109 0-.0157 0-.0313 0-.0469.0157-.1563.0235-.2344.0235-.2344.0156-.0156.0234-.0391.0234-.0703.0156-.1562.0156-.2344 0-.2344 0-.0156.0078-.0234.0235-.0234l.0234-.3281c-.0156-.1875-.0234-.2813-.0234-.2813.0156-.0156.0234-.039.0234-.0703 0-.0469-.0078-.1094-.0234-.1875-.0157-.0781-.0235-.1484-.0235-.2109v-.4453c-.0156-.1563-.0234-.2422-.0234-.2579.0156-.0156.0234-.0312.0234-.0468-.0312-.1094-.0469-.1953-.0469-.2579.0157-.0781.0157-.1406 0-.1874.0157-.2188.0235-.3829.0235-.4922 0-.125-.0156-.2188-.0469-.2813.0313-.0469.0391-.0937.0234-.1406 0-.0625 0-.125 0-.1875 0-.1406-.0078-.2578-.0234-.3516-.0156-.0937-.0078-.164.0234-.2109-.0468-.1406-.0781-.2422-.0937-.3047 0-.0625-.0313-.1094-.0938-.1406-.1406-.125-.2109-.2032-.2109-.2344-.1562-.0469-.2812-.0312-.375.0469-.125.1093-.1953.164-.2109.164-.0157-.0156-.0235-.0156-.0235 0-.1562.1094-.2422.1719-.2578.1875 0 .0157-.0156.0313-.0469.0469-.1406.0938-.2187.1485-.2343.1641 0 .0156-.0157.0312-.0469.0468-.1406.125-.2266.1954-.2578.211-.0156.0156-.0391.039-.0703.0703-.1094.0781-.1953.1484-.2578.2109s-.125.1172-.1875.1641c-.0938.0625-.1641.1094-.211.1406-.0312.0313-.0625.0625-.0937.0938-.0313.0312-.0703.0703-.1172.1172-.0313.0468-.0547.1015-.0703.164 0 .0781.0078.1641.0234.2578.0156.0938.0234.1797.0234.2579-.0156.0624-.0234.1171-.0234.164.0156.0313.0234.0703.0234.1172v.4453c0 .1563-.0078.2422-.0234.2578v.0703.1407c.0156.0468.0234.0937.0234.1406.0157.1875.0157.2969 0 .3281-.0156.0313-.0312.0625-.0468.0938.0156.1562.0234.2578.0234.3046.0156.0469.0234.1016.0234.1641 0 .1406-.0078.2813-.0234.4219-.0156.125-.0078.2422.0234.3516.0313.1406.0469.289.0469.4453 0 .1562.0078.3203.0235.4921 0 .1876.0078.2969.0234.3282.0156.0156.0234.039.0234.0703v.9844c.0313.1406.0391.2421.0235.3047-.1094.1562-.1797.2343-.211.2343-.0156 0-.039.0157-.0703.0469-.125.0625-.2031.0938-.2344.0938-.0312 0-.0625.0078-.0937.0234-.1406.0469-.2344.0625-.2813.0469-.0312 0-.0625 0-.0937 0-.0781 0-.1719-.0079-.2813-.0235-.0937 0-.1953 0-.3046 0-.1875-.0156-.3594-.0078-.5157.0235-.0625 0-.125-.0079-.1875-.0235-.0625 0-.1328 0-.2109 0s-.1484 0-.2109 0c-.0625.0156-.1329.0156-.211 0-.1562-.0312-.2422-.0468-.2578-.0468-.0156-.0313-.0547-.0391-.1172-.0235s-.125.0235-.1875.0235c-.1719 0-.2656 0-.2812 0-.0157.0156-.0313.0234-.0469.0234-.125.0156-.2031.0234-.2344.0234-.0312.0156-.0703.0235-.1172.0235-.0625-.0157-.1172-.0469-.164-.0938-.0469-.0312-.1094-.0547-.1875-.0703-.0313-.1094-.0625-.2109-.0938-.3047-.0156-.1094-.0312-.2265-.0469-.3515-.0156-.0469-.0234-.0938-.0234-.1407.0156-.0625.0234-.1172.0234-.164-.0156-.0938-.039-.1797-.0703-.2579-.0156-.0937-.0156-.1953 0-.3046l.0469-.3282c0-.1093 0-.1796 0-.2109.0156-.0469.0313-.0937.0469-.1406 0-.0781-.0078-.1563-.0235-.2344 0-.0937.0079-.1797.0235-.2578.0156-.125.0156-.1953 0-.2109 0-.0157 0-.0313 0-.0469.0156-.1563.0234-.2344.0234-.2344.0156-.0156.0235-.0391.0235-.0703 0-.1719.0078-.2578.0234-.2578 0-.1719 0-.2656 0-.2813.0156-.0156.0234-.039.0234-.0703l-.0234-.3281c0-.0469-.0078-.1016-.0234-.1641 0-.0781 0-.1562 0-.2344v-.4453c-.0157-.1718-.0235-.2578-.0235-.2578.0156-.0156.0235-.0312.0235-.0469-.0469-.0937-.0704-.1796-.0704-.2578.0157-.0781.0235-.1406.0235-.1875.0156-.2187.0234-.3828.0234-.4921 0-.125-.0156-.2266-.0469-.3047.0313-.0313.0391-.0782.0235-.1407s-.0156-.1172 0-.164c0-.1406-.0078-.2578-.0235-.3516-.0156-.0937-.0078-.1562.0235-.1875-.0313-.1562-.0547-.2656-.0703-.3281 0-.0781-.0313-.1328-.0938-.1641-.1406-.0937-.2109-.164-.2109-.2109-.1563-.0313-.2656-.0313-.3281 0-.0625.0156-.1172.0469-.1641.0937-.1094.125-.1719.1875-.1875.1875 0 0-.0078.0078-.0234.0235-.1094.1406-.1954.2422-.2579.3047-.0468.0468-.0937.1015-.1406.164-.0937.1094-.1484.1719-.164.1875-.0157.0157-.0313.0391-.0469.0703-.1875.1094-.3203.1954-.3985.2578-.0625.0469-.1406.0704-.2343.0704-.0782-.0157-.1407-.0469-.1875-.0938-.0469-.0625-.1094-.1094-.1875-.1406-.0313-.0781-.0782-.1406-.1407-.1875-.0468-.0469-.0859-.1094-.1171-.1875-.0938-.1563-.1485-.2422-.1641-.2578-.0781-.1094-.1328-.1875-.1641-.2344-.0156-.0625-.039-.1094-.0703-.1406l-.0703.5625v1.1719c0 .0468-.0078.1015-.0234.164v.1406c.0156.125.0312.25.0468.375.0157.1094.0079.2188-.0234.3282.0469.0781.0625.164.0469.2578 0 .0937.0078.1875.0234.2812v.2813c.0156.1719.0235.2812.0235.3281.0156.0312.0234.0625.0234.0938-.0313.1874-.0391.3124-.0234.375.0156.0624.0234.1328.0234.2109-.0156.0625-.0156.1328 0 .2109.0156.0782.0234.1406.0234.1875s-.0078.0938-.0234.1407c0 .0468.0078.0937.0234.1406.0313.1718.0469.3125.0469.4218.0313.1563.0469.3438.0469.5626.0156.0624.0234.1718.0234.3281.0313.1406.0391.2187.0235.2343v.0704c.0156.0937.0312.1718.0468.2343.0157.0469.0235.0938.0235.1407-.0157.1406-.0235.2265-.0235.2578.0157.0156.0235.039.0235.0703-.0469.1562-.0703.2734-.0703.3515 0 .0782-.0157.1407-.0469.1876-.1719 0-.2969 0-.375 0-.0625.0156-.1328.0468-.211.0937-.1718 0-.3046 0-.3984 0-.0781.0156-.1562.0078-.2344-.0234-.1562-.0469-.25-.0703-.2812-.0703-.0156.0156-.0469.0234-.0938.0234l-.5156-.0234c-.1719-.0313-.2969-.0469-.375-.0469-.0625 0-.1328-.0078-.2109-.0235l-.2813-.0234h-.3515c-.0469.0312-.1407.0469-.2813.0469-.125.0156-.2031.0156-.2344 0-.0156 0-.039 0-.0703 0-.0469 0-.0937 0-.1406 0-.0313.0156-.0781.0234-.1406.0234-.0938-.0312-.1953-.0234-.3047.0235-.1563-.0626-.2422-.0938-.2578-.0938-.0157 0-.0235-.0078-.0235-.0234l-.1406-.2344c-.0156-.0781-.0234-.1328-.0234-.1641.0156-.0469.0234-.0937.0234-.1406 0-.0937-.0078-.1875-.0234-.2813 0-.0937 0-.1796 0-.2578l.0234-.2812c.0156-.0625.0234-.125.0234-.1875s.0079-.1172.0235-.1641c.0469-.1875.0625-.3047.0469-.3515 0-.0625.0156-.125.0468-.1875-.0312-.0782-.039-.1641-.0234-.2578.0156-.0938.0234-.1797.0234-.2579.0157-.1562.0157-.2421 0-.2578 0-.0156 0-.039 0-.0703l.0235-.4219c0-.0937-.0078-.1797-.0235-.2578-.0156-.1719-.0234-.2734-.0234-.3047.0156-.0468.0234-.0859.0234-.1172 0-.0468-.0078-.0937-.0234-.1406-.0156-.0468-.0078-.0859.0234-.1172 0-.1406 0-.2578 0-.3515 0-.2031-.0078-.3281-.0234-.375s-.0078-.086.0234-.1172v-.4688c0-.1718-.0078-.2812-.0234-.3281-.0156-.0625-.0234-.125-.0234-.1875 0-.0781.0078-.1484.0234-.2109.0156-.0782 0-.1485-.0469-.211.0313-.1562.0469-.2656.0469-.3281.0156-.1719.0156-.2578 0-.2578 0 0 0-.0078 0-.0234v-.4922c-.0156-.2188-.0234-.3672-.0234-.4453-.0157-.1563-.0235-.2813-.0235-.375 0-.1094-.0078-.2032-.0234-.2813.0156-.125.0156-.2031 0-.2344 0-.0468.0156-.0625.0469-.0468-.0157-.25-.0391-.4141-.0704-.4922-.0156-.0938-.0078-.1797.0235-.2578-.0156-.0469-.0313-.086-.0469-.1172 0-.0469-.0078-.1094-.0234-.1875.0156-.125.0156-.2032 0-.2344 0-.0469 0-.0859 0-.1172-.0157-.1875-.0235-.2969-.0235-.3281.0157-.0313.0235-.0781.0235-.1406-.0313-.1719-.0391-.2813-.0235-.3282.0157-.0468.0235-.1093.0235-.1875 0-.2031-.0078-.3281-.0235-.375 0-.0468 0-.1015 0-.164 0-.1406-.0156-.2422-.0468-.3047-.0157-.0625-.0235-.1563-.0235-.2813l-.0469-.3046c-.0156-.0782-.0312-.1329-.0468-.1641 0-.0469.0078-.1094.0234-.1875.0938-.1563.1328-.2344.1172-.2344.125-.1719.2187-.2578.2812-.2578.1407-.0156.2266-.0156.2579 0 .0468.0156.0859.0234.1171.0234.0469 0 .0938-.0078.1407-.0234.0625-.0312.1172-.0469.164-.0469.1407-.0156.2188-.0234.2344-.0234.0313-.0156.0625-.0313.0938-.0469.0468 0 .0937.0078.1406.0234.0625 0 .1094-.0078.1406-.0234h.4688c.0937 0 .1796-.0156.2578-.0469.0468-.0156.1093-.0156.1875 0 .0781.0157.1406.0469.1875.0938.0781-.0313.1484-.0391.2109-.0235h.1875c.1719.0313.3125.0469.4219.0469.125-.0156.2344-.0078.3281.0235.0781-.0313.1719-.0391.2813-.0235.1093.0157.2031 0 .2812-.0469.1406.0469.2266.0704.2578.0704.1719.1562.2813.2656.3281.3281.0469.0469.0625.1328.0469.2578-.0781.2031-.1172.3516-.1172.4453.0157.0938.0078.1875-.0234.2813 0 .0781-.0078.1406-.0234.1875-.0157.0468-.0235.0859-.0235.1172-.0156.0624-.0312.1171-.0469.164 0 .0469-.0078.1016-.0234.1641-.0312.1406-.0469.2422-.0469.3047.0157.0625.0078.1328-.0234.2109zm25.8984 7.5234c.0313.0469.0703.0625.1172.0469s.0938-.0312.1406-.0469c.2188-.0468.3594-.0703.4219-.0703.0625-.0156.1328-.0312.211-.0468.125-.0313.25-.0704.375-.1172.1406-.0625.2812-.1094.4218-.1407.0313-.0156.0703-.0234.1172-.0234.0625-.0156.1094-.0313.1406-.0469.0938-.0625.1641-.1015.211-.1172.0625-.0312.1094-.0625.1406-.0937.1563-.125.2578-.1953.3047-.2109.0469-.0157.0859-.0391.1172-.0704.2187-.0625.3437-.0859.375-.0703.125.0313.1875.1328.1875.3047-.0156.2188-.0235.3594-.0235.4219.0157.0469.0235.1094.0235.1875.0156.125.0234.2422.0234.3516v.3281.1406c.0156.0469.0235.0859.0235.1172 0 .0781-.0157.1641-.0469.2578-.0156.0937-.0235.1797-.0235.2578.0157.25.0157.4844 0 .7031-.0468.2032-.0625.336-.0468.3985.0156.0625.0234.1172.0234.164-.0156.1094-.0312.2032-.0469.2813-.1562.1562-.2734.2422-.3515.2578-.0782 0-.1328.0391-.1641.1172-.0937.0156-.1562.0312-.1875.0469-.0156.0156-.0391.0312-.0703.0468-.1094.0938-.1953.1407-.2578.1407-.0469 0-.0938.0078-.1406.0234l-.2813.1172c-.1719.0625-.2891.0937-.3516.0937s-.125.0313-.1875.0938c-.0625 0-.125.0156-.1875.0469-.0468.0156-.1093.0312-.1875.0468-.1562.0313-.2656.0547-.3281.0704-.1094.0468-.1875.0703-.2344.0703-.0468 0-.1015.0078-.164.0234-.0781.0156-.1641.0234-.2578.0234-.0782.0157-.1641.0313-.2578.0469-.2344.0469-.3985.0625-.4922.0469-.0938 0-.1875.0156-.2813.0469-.125 0-.2265.0078-.3047.0234-.0781.0156-.1562.0234-.2343.0234-.0938 0-.1875-.0078-.2813-.0234-.0781-.0156-.1641-.0312-.2578-.0469-.0625.0313-.1406.0391-.2344.0235-.0781-.0157-.1797-.0391-.3047-.0704-.125-.0156-.2109-.0312-.2578-.0468-.1875 0-.3125-.0078-.375-.0235-.0469-.0156-.1015-.0312-.164-.0468-.0625-.0157-.1172-.0235-.1641-.0235s-.1016-.0078-.1641-.0234c-.1093-.0156-.1875-.0313-.2343-.0469-.0469-.0156-.0938-.0312-.1407-.0469-.1875-.0468-.2968-.0781-.3281-.0937l-.2109-.1641c-.125-.0312-.25-.0781-.375-.1406-.0469-.0312-.0938-.0547-.1407-.0703-.0312-.0156-.0703-.0469-.1171-.0938-.0313-.0468-.0782-.0781-.1407-.0937-.0468-.0156-.0937-.0391-.1406-.0703-.1719-.1094-.2656-.1719-.2812-.1875 0-.0156-.0079-.0313-.0235-.0469-.1094-.0469-.1719-.0781-.1875-.0937 0-.0157-.0156-.0313-.0469-.0469l-.2343-.1407c-.0938-.0937-.1797-.1562-.2578-.1874-.0313-.0782-.0782-.1329-.1407-.1641-.0468-.0469-.0859-.1094-.1172-.1875-.1093-.0938-.1875-.1563-.2343-.1875-.0469-.0313-.086-.0781-.1172-.1406-.0469-.0313-.086-.0625-.1172-.0938-.0156-.0469-.0391-.0859-.0703-.1172-.0625-.0469-.1016-.1328-.1172-.2578-.0938-.0937-.1406-.1562-.1406-.1875 0-.0312-.0078-.0625-.0235-.0937-.0937-.125-.1562-.2032-.1875-.2344-.0937-.1094-.1406-.1719-.1406-.1875s-.0078-.0391-.0234-.0703c-.1094-.2188-.1875-.3516-.2344-.3985 0-.0781-.0078-.1328-.0234-.164-.0157-.0313-.0235-.0703-.0235-.1172-.0781-.1563-.1172-.25-.1172-.2813 0-.0468 0-.0859 0-.1171-.0468-.1563-.0781-.2344-.0937-.2344 0 0 0-.0078 0-.0235-.0781-.2343-.125-.3828-.1406-.4453-.0157-.0781-.0391-.1484-.0704-.2109-.0312-.1563-.0546-.2578-.0703-.3047 0-.0469-.0078-.1094-.0234-.1875 0-.0937-.0078-.1875-.0234-.2813-.0157-.1093-.0235-.1718-.0235-.1874 0-.0313 0-.0782 0-.1407.0156-.0781.0156-.1406 0-.1875-.0156-.0468-.039-.0859-.0703-.1172-.0312-.0468-.0469-.0937-.0469-.1406.0782-.2344.1172-.3828.1172-.4453 0-.0781 0-.1719 0-.2813.0313-.1406.0391-.25.0235-.3281-.0157-.0781-.0157-.1562 0-.2343 0-.0469 0-.0938 0-.1407 0-.0625.0156-.1093.0468-.1406-.0312-.0625-.039-.1094-.0234-.1406.0312-.0469.0547-.0938.0703-.1407 0-.1718 0-.2578 0-.2578.0156-.0156.0234-.039.0234-.0703.0313-.1406.0547-.2578.0704-.3515.0312-.1094.0625-.2032.0937-.2813.0469-.125.0703-.1953.0703-.2109 0-.0313.0078-.0625.0235-.0938.0625-.0937.1015-.1562.1171-.1875.0157-.0312.0313-.0625.0469-.0937.0625-.2344.1328-.4141.211-.5391.0781-.125.1328-.2187.164-.2812.0313-.0625.0625-.1094.0938-.1407 0-.0625.0156-.1093.0468-.1406.0469-.0312.086-.0625.1172-.0937.0782-.1407.1328-.2188.1641-.2344.0781-.1406.1172-.2188.1172-.2344.1406-.1562.2265-.2422.2578-.2578.0312-.0156.0625-.0391.0937-.0703.1094-.125.1563-.1953.1407-.211 0-.0312.0078-.0468.0234-.0468.0469-.0156.0781-.0391.0938-.0703.0312-.0469.0625-.086.0937-.1172.1406-.125.2188-.1953.2344-.211.0156-.0156.039-.0312.0703-.0468.0625-.1094.1016-.1641.1172-.1641.0312 0 .0469-.0156.0469-.0469.1562-.1093.2421-.1719.2578-.1875.0312-.0156.0625-.039.0937-.0703.125-.0937.1953-.1406.211-.1406.0312-.0156.0546-.0313.0703-.0469.1562-.0937.2422-.1562.2578-.1875.1406-.1094.2187-.1641.2344-.1641.0312-.0156.0468-.039.0468-.0703.1875-.0937.2969-.1406.3282-.1406.0312 0 .0625-.0078.0937-.0234.2344-.0938.3828-.1563.4453-.1875.0313-.0156.0625-.0235.0938-.0235.0468-.0156.1093-.0312.1875-.0468.0312-.0157.0625-.0313.0937-.0469.0469-.0156.1016-.0313.1641-.0469.1562-.0469.2344-.0703.2344-.0703 0-.0156.0156-.0234.0468-.0234.1094-.0313.1797-.0547.211-.0704.0312-.0156.0859-.0234.164-.0234.2032-.0156.3907-.0156.5625 0 .1563.0156.2657.0156.3282 0s.1328-.0234.2109-.0234c.0625 0 .1562.0156.2812.0468h.2579c.1562.0469.2343.0704.2343.0704 0-.0157.0157-.0235.0469-.0235.125.0313.1953.0469.2109.0469.0313-.0156.0625-.0156.0938 0 .0625 0 .1172.0156.1641.0469.0625.0312.1328.0312.2109 0 .1719.0781.2812.125.3281.1406.0625.0156.1328.0313.211.0469.1562.0625.2656.1094.3281.1406.0781.0156.1484.0469.2109.0938.0938-.0313.1797.0078.2578.1171.1563.0938.2422.1407.2578.1407.0157 0 .0313.0078.0469.0234.0781.0781.1406.1328.1875.1641.0469.0312.086.0703.1172.1171.0781.1094.125.1719.1406.1876.0157 0 .0313.0078.0469.0234.0469.0469.0938.0937.1406.1406.0625.0469.1094.1016.1407.1641.125.125.1875.1875.1875.1875.0625.0625.1093.1172.1406.164.0469.0313.0859.0704.1172.1172.125.125.1875.2032.1875.2344 0 .0156.0078.0391.0234.0703.125.2031.1953.3125.2109.3281.0625.1094.1172.1875.1641.2344.0313.0469.0547.0938.0703.1406.0156.0469.0391.0938.0703.1407-.0156.0468-.0156.0937 0 .1406.0313.0469.0625.0859.0938.1172.0312.0625.0547.1484.0703.2578.0156.0937.0391.1797.0703.2578.0313.0469.0547.0937.0703.1406.0156.0313.0391.0781.0703.1407.0313.1874.0469.2812.0469.2812 0 .0469.0078.0938.0234.1406.0157.0313.0313.0703.0469.1172.0156.1406.0156.211 0 .211 0 0 .0078.0156.0235.0468l.0703.2578c.0312.125.0468.2344.0468.3282 0 .0468.0079.0937.0235.1406.0156.0312.0234.0703.0234.1172-.0312.1875-.0469.3125-.0469.375.0157.0468.0157.0859 0 .1172-.1406.1406-.2265.2265-.2578.2578-.0156.0312-.039.0547-.0703.0703-.125.0625-.1953.1015-.2109.1172 0 .0156-.0078.0312-.0235.0469-.1718.0781-.2812.1171-.3281.1171-.0312 0-.0625.0157-.0937.0469-.125.0469-.211.086-.2578.1172-.0313.0312-.0625.0625-.0938.0938-.1562.0468-.2344.0859-.2344.1171-.0937.0469-.1718.086-.2343.1172-.0625.0157-.1172.0391-.1641.0703-.1719.0938-.3203.1719-.4453.2344-.1563.0938-.2656.1484-.3281.1641-.0625.0156-.1094.039-.1407.0703-.125.0625-.2031.1016-.2343.1172-.0313.0156-.0625.039-.0938.0703-.1562.1094-.2578.1719-.3047.1875-.0312.0156-.0625.0469-.0937.0937-.0313-.0156-.0782-.0078-.1407.0235-.0625.0312-.1171.0625-.164.0937-.1875.0781-.3125.125-.375.1407-.0469 0-.086.0234-.1172.0703-.0469 0-.0938.0156-.1406.0468-.0313.0157-.0703.0313-.1172.0469s-.1016.0234-.1641.0234c-.0469-.0156-.0937-.0078-.1406.0235-.1406.0937-.2266.1406-.2578.1406-.0313.0313-.0781.0547-.1406.0703-.0469.0156-.0938.0313-.1407.0469-.1406.0781-.2422.1172-.3047.1172-.0468 0-.0859.0156-.1171.0469-.1407.0625-.2188.1015-.2344.1172-.125.0781-.211.1171-.2578.1171-.0469 0-.0938.0157-.1407.0469-.25.0938-.3828.1641-.3984.211 0 .2031.0156.3124.0469.3281.1094.0937.1797.1484.2109.164.0469.0157.0938.0391.1406.0703.0313.0469.0625.0704.0938.0704.0469 0 .0937.0156.1406.0468.0313.0157.0625.0391.0938.0704.0468.0156.0937.0312.1406.0468.0625.0469.1484.0703.2578.0703.0781.0157.1406.0313.1875.0469.0469 0 .1016.0078.1641.0234.125.0313.2187.0469.2812.0469.1875-.0156.3125-.0156.375 0 .0781.0157.1406.0235.1875.0235.0781 0 .1563-.0078.2344-.0235.0781-.0312.1562-.0469.2344-.0469.1875.0157.3047.0157.3515 0 .0625-.0156.125-.0234.1875-.0234zm-.9375-5.9531c-.0312-.0625-.0547-.1172-.0703-.164 0-.0469-.0234-.0782-.0703-.0938-.0781-.1562-.125-.2422-.1406-.2578 0-.0156-.0156-.0313-.0469-.0469-.1406-.125-.2266-.2031-.2578-.2344-.1563-.125-.25-.1953-.2813-.2109-.2187-.1094-.3671-.1641-.4453-.1641-.0625 0-.1484 0-.2578 0-.1719.0782-.2656.1172-.2812.1172-.0157 0-.0313.0078-.0469.0235-.1719.0937-.2734.1484-.3047.164-.0312 0-.0469.0235-.0469.0703-.125.0625-.1953.1016-.2109.1172-.0156 0-.0313 0-.0469 0-.0937.125-.1562.211-.1875.2578-.0156.0313-.0312.0625-.0469.0938-.125.1562-.1953.25-.2109.2812-.0156.0313-.0312.0625-.0469.0938-.0468.2031-.1015.3203-.164.3515-.0469.0313-.0782.086-.0938.1641-.0937.125-.1406.2031-.1406.2344.0156.0156.0156.0312 0 .0469-.0469.1562-.0859.2343-.1172.2343-.0625.25-.0937.3907-.0937.4219.0312.125.0312.2031 0 .2344-.0157.0312-.0079.0547.0234.0703.2031-.0937.3437-.1328.4219-.1172.1562-.0781.2578-.125.3047-.1406.0468-.0156.0859-.0391.1171-.0703.1719-.0938.2657-.1485.2813-.1641.125-.0469.2109-.0781.2578-.0937.0469-.0157.0859-.0313.1172-.0469.1875-.0781.3047-.125.3516-.1406.0625-.0313.1093-.0625.1406-.0938.125-.0781.2109-.1172.2578-.1172.0469-.0156.0937-.039.1406-.0703.0938-.0469.1485-.0703.1641-.0703.0312-.0156.0625-.0313.0937-.0469.0625-.0312.1172-.0468.1641-.0468.0469-.0157.0859-.0391.1172-.0704.1719-.0781.2578-.125.2578-.1406.0156-.0312.0312-.0469.0469-.0469.0937-.1093.1797-.164.2578-.164.0781-.0157.1328-.0547.164-.1172zm13.477-.9844c-.141.0782-.219.125-.235.1407v.0234c-.25.0937-.429.1484-.539.1641-.109.0156-.211.0468-.305.0937-.203.1094-.335.1953-.398.2578-.141.125-.258.2188-.3515.2813-.1407.25-.2578.4218-.3516.5156-.0937.0938-.1406.2109-.1406.3516.0469.0781.0703.1406.0703.1875 0 .0312.0078.0625.0234.0937 0 .0313.0078.0703.0235.1172.0156.0469.0156.1094 0 .1875.0312.0313.0547.0703.0703.1172.0312.0312.0625.0625.0937.0937.0469.0625.086.1407.1172.2344.0313.0938.0625.1797.0938.2578.0785.0313.1405.086.1875.1641s.102.1406.164.1875c.078.1406.133.2266.164.2578.094.1406.149.2109.164.2109.141.1407.227.2657.258.375.031.0469.062.086.094.1172.047.0313.086.0625.117.0938l.187.2812.258.3281c.031.0782.055.1329.071.1641.015.0156.031.0391.046.0703.047.1406.079.2188.094.2344.031.0156.047.0391.047.0703l.07.3047c.078.1875.11.3125.094.375 0 .0469.008.0938.024.1406.046.125.078.211.093.2578l.047.2578c-.094.25-.172.5-.234.75-.094.1719-.164.2735-.211.3047-.031.0157-.047.0547-.047.1172-.125.0938-.195.1563-.211.1875 0 .0313-.016.0391-.047.0235-.094.1406-.14.2187-.14.2343 0 .0157-.016.0391-.047.0704-.032.0468-.078.0859-.141.1171-.047.0313-.086.0782-.117.1407-.156.0468-.274.1484-.352.3046-.109.0938-.187.1563-.234.1876-.047.0156-.086.0546-.117.1171-.141.0313-.25.1016-.3284.211-.0625.0937-.1563.164-.2813.2109-.0468.0469-.0937.0938-.1406.1406-.0469.0313-.0937.0704-.1406.1172-.0938.0469-.1484.086-.1641.1172 0 .0313-.0078.0547-.0234.0703-.0938.0313-.1563.0547-.1875.0703-.0156 0-.0391.0157-.0703.0469-.1719.0938-.2656.1719-.2813.2344-.1093.0156-.1953.0469-.2578.0937-.0625.0625-.1328.1094-.2109.1407-.125.1093-.2188.1797-.2813.2109-.0468.0312-.0859.0469-.1172.0469-.1718.0312-.2734.0625-.3046.0937-.0313.0313-.0625.0625-.0938.0938-.0937.0312-.1562.0547-.1875.0703-.0312.0156-.0625.0312-.0937.0469-.0938.0312-.1641.0546-.211.0703-.0312.0312-.0625.0469-.0937.0469-.1094 0-.1875-.0157-.2344-.0469-.0313-.0313-.0859-.0547-.1641-.0703-.0312-.0625-.0703-.125-.1172-.1875-.0312-.0625-.0781-.1094-.1406-.1407-.0469-.0781-.0859-.1562-.1172-.2343-.0625-.0782-.1093-.1329-.1406-.1641-.0156-.0312-.0391-.0469-.0703-.0469-.0781-.1562-.1328-.2656-.1641-.3281-.0937-.2031-.1797-.3438-.2578-.4219-.0781-.1406-.1172-.2187-.1172-.2343 0-.0157-.0078-.0313-.0234-.0469-.0313-.0469-.0625-.086-.0938-.1172-.0156-.0313-.0312-.0703-.0468-.1172-.0938-.0781-.1641-.1719-.211-.2813-.0468-.125-.1093-.2265-.1875-.3046l-.164-.2578c-.0938-.1407-.1485-.2188-.1641-.2344s-.0156-.0391 0-.0703c-.0781-.1407-.125-.2344-.1406-.2813-.0781-.1562-.1172-.2578-.1172-.3047-.0313-.125-.0391-.1953-.0234-.2109.0156-.0156.0312-.0391.0468-.0703.0313-.1094.0469-.1719.0469-.1875 0-.0313.0078-.0625.0234-.0938.0625-.0781.1329-.1328.211-.164.1875-.0782.3125-.125.375-.1407.0625-.0156.1172-.039.164-.0703.1719-.0468.2735-.0859.3047-.1172.0469-.0312.1094-.0546.1875-.0703.1719-.0937.2735-.1484.3047-.164.0313-.0313.0703-.0547.1172-.0703.0313-.0313.0625-.0469.0938-.0469.0468-.0157.0937-.0391.1406-.0703.0469-.0313.0859-.0625.1172-.0938.0312-.0469.0625-.0937.0937-.1406.0938-.0938.1406-.1563.1406-.1875.0157-.0313.0391-.0391.0704-.0235.0781-.2187.1328-.3593.164-.4218.0469-.0625.0625-.1485.0469-.2578 0-.0625-.0156-.1563-.0469-.2813-.0312-.0625-.0703-.1172-.1172-.1641-.0468-.0468-.0625-.1093-.0468-.1874-.125-.1719-.2032-.2735-.2344-.3047-.0313-.0469-.0781-.086-.1406-.1172-.125-.125-.2032-.2266-.2344-.3047-.0938-.1094-.1563-.1719-.1875-.1875-.0313-.0156-.0547-.0391-.0703-.0703-.0313-.0469-.0625-.086-.0938-.1172-.0312-.0313-.0625-.0625-.0937-.0938-.0782-.1562-.125-.2343-.1407-.2343 0 0 0-.0079 0-.0235-.1406-.1094-.2187-.1797-.2343-.2109 0-.0313-.0078-.0625-.0235-.0938-.1093-.1406-.1797-.2265-.2109-.2578-.0313-.0312-.0625-.0703-.0938-.1172-.0781-.0781-.1484-.164-.2109-.2578-.0469-.0937-.1094-.1797-.1875-.2578-.0156-.2187-.1016-.3906-.2578-.5156-.0938-.1563-.1406-.2422-.1406-.2578.0156-.0157.0156-.0391 0-.0703-.0469-.1563-.0703-.2735-.0703-.3516.0156-.0938.0234-.1953.0234-.3047-.0156-.1719-.0078-.2891.0234-.3515.0157-.0782.0313-.1641.0469-.2579.0156-.0937.0391-.1875.0703-.2812.0781-.2188.1485-.3594.211-.4219.0781-.125.125-.2031.1406-.2344.0312-.0312.0625-.0703.0937-.1172.0625-.0624.1016-.1015.1172-.1171.0313-.0313.0625-.0625.0938-.0938.125-.1562.2109-.2578.2578-.3047.0781-.0468.1328-.0937.164-.1406.0313-.0625.0782-.0938.1407-.0938l.2812-.3281c.0938-.0781.1485-.1172.1641-.1172.0156-.0156.0312-.039.0469-.0703.0781-.1094.164-.1953.2578-.2578.125-.0781.1953-.125.2109-.1406s.0391-.0313.0703-.0469c.1406-.0937.2188-.1406.2344-.1406.1094-.0938.1797-.1485.2109-.1641.0313-.0312.0625-.0547.0938-.0703.1719-.0625.2734-.0937.3047-.0937.1406-.0938.2734-.1641.3984-.211.0781-.0937.1328-.1406.1641-.1406.0468 0 .0859-.0156.1172-.0469.125-.0469.1953-.0703.2109-.0703.0312-.0156.0547-.0234.0703-.0234.1406-.0469.2422-.1016.3047-.1641.2031-.0625.3281-.1094.375-.1406.0625-.0313.125-.0547.1875-.0703.1875.0156.2891.0156.3047 0s.039-.0235.0703-.0235c.0937.0157.1797.0313.2578.0469s.1328.0391.1641.0703c.0468.0157.1093.0469.1875.0938.0625.0312.1095.0703.1405.1172.031.0312.07.0625.117.0937.063.1563.102.2656.117.3281.032.0625.063.1172.094.1641.078.125.117.2109.117.2578l.164.3516.235.3984c.062.1719.117.2891.164.3516s.086.1328.117.2109c.078.1875.117.2891.117.3047s.008.0391.024.0703c.047.0938.07.1563.07.1875 0 .0313.008.0625.023.0938.094.2031.149.3281.165.375.015.0468.039.1093.07.1875.031.1093.047.1718.047.1875 0 .0156.008.039.023.0703.016.0937.024.1719.024.2343.015.0469.015.086 0 .1172z" fill="#693821"/></svg>