<svg fill="none" height="52" viewBox="0 0 91 52" width="91" xmlns="http://www.w3.org/2000/svg" xmlns:xlink="http://www.w3.org/1999/xlink"><linearGradient id="a"><stop offset="0" stop-color="#cf5c2b"/><stop offset="1" stop-color="#59173e"/></linearGradient><linearGradient id="b" gradientUnits="userSpaceOnUse" x1="69.8488" x2="36.6921" xlink:href="#a" y1="-76.9095" y2="-20.2441"/><linearGradient id="c" gradientUnits="userSpaceOnUse" x1="51.9153" x2="17.9997" xlink:href="#a" y1="-22.9731" y2="90.6215"/><linearGradient id="d" gradientUnits="userSpaceOnUse" x1="51.6839" x2="8.32952" xlink:href="#a" y1="-19.2621" y2="121.341"/><linearGradient id="e" gradientUnits="userSpaceOnUse" x1="48.0039" x2="44.9861" xlink:href="#a" y1="65.4469" y2="32.9887"/><linearGradient id="f" gradientUnits="userSpaceOnUse" x1="77.1275" x2="66.5572" xlink:href="#a" y1="12.304" y2="30.2492"/><linearGradient id="g" gradientUnits="userSpaceOnUse" x1="94.0228" x2="6.51947" xlink:href="#a" y1="-48.2358" y2="80.7065"/><linearGradient id="h" gradientUnits="userSpaceOnUse" x1="69.189" x2="62.5218" xlink:href="#a" y1="10.6371" y2="21.9559"/><linearGradient id="i" gradientUnits="userSpaceOnUse" x1="79.8456" x2="24.6534" xlink:href="#a" y1="-27.5505" y2="53.7791"/><linearGradient id="j" gradientUnits="userSpaceOnUse" x1="17.7202" x2="11.0529" xlink:href="#a" y1="21.3099" y2="32.6287"/><linearGradient id="k" gradientUnits="userSpaceOnUse" x1="28.3769" x2="-26.8157" xlink:href="#a" y1="-16.8748" y2="64.4552"/><path d="m90.9346 41.4228c-.0468-1.0742-.0936-2.1483-.1337-3.2225-.0402-1.1268-.087-2.2642-.1271-3.391-.0267-.7688-.0669-1.5902-.0802-2.3906-.0134-.6635.1605-1.7587-.0669-2.359-.1338-.358-.428-.4633-.6889-.537-.341-.0948-.6821-.1896-1.0232-.2844.4615-.1685.9096-.3791 1.351-.6424.1003-.0632.2006-.1264.2675-.2527.0601-.1159.0802-.2738.0936-.4107.1538-1.4744.0535-3.033.0535-4.5284-.0067-1.5165-.0067-3.0435-.0134-4.56-.0067-1.4427-.0067-2.896-.0134-4.3388 0-.4739.1271-1.5165-.0267-1.9377-.1204-.3475-.408-.3265-.6287-.3686-.2273-.0421-.4547-.0421-.6821-.0211-.3411.0316-.6755.1159-1.0099.2001.4414-.1895.8962-.2843 1.3376-.4528.2876-.1053.5684-.2528.8359-.4739.1606-.1369.3344-.2528.4281-.516.0401-.1053.0535-.2423.0735-.3686.0402-.2633.0468-.5371.0602-.81092.0268-.74771.0468-1.49542.0535-2.25366.0067-.37912.0067-.75823 0-1.13735 0-.24222-.0602-.4739-.0735-.72665-.0602-1.02152-.321-2.00091-.7357-2.79074-.4146-.7793-.9831-1.34798-1.6117-1.61126-.2341-.09478-.4682-.14743-.7089-.1685-28.2757-1.400633-55.9895-1.453289-83.10148.02107-.107.01053-.22069-.01054-.3277.03159-.107.05265-.214.11584-.32769.17903-.2207.12637-.44139.25274-.6554.42124-.41464.31593-.80252.73718-1.07003 1.32692-.15382.34753-.26082.73718-.40126 1.0847-.07357.17903-.1672.31594-.22739.5055-.28757.90567-.57514 1.82188-.976402 2.62224-.387887.7793-.501578 2.02197-.461452 2.98029.060189 1.3059.080252 2.6223.153817 3.9281.120379 2.0746.006688 4.1493.153818 6.245.020063.2948.053501.6318.193943.8214.100316.1369.234066.1895.361136.2317.41464.1474.83596.2843 1.2506.4317-.51495.5266-1.28404.5687-1.558234 1.4323-.086941.2843-.100316.6002-.113691.9162-.046814 1.1163-.113691 2.222-.160505 3.3278-.020063.495-.040127 1.0005-.046814 1.4954-.013376.4739-.033439.9373-.066877 1.4112-.066877 1.1058-.247445 2.538-.033439 3.6227.207319 1.0426 1.03659 1.0847 1.60505 1.3374-.30095.0527-.52833.4423-.7089.832-.08694.2001-.15381.4002-.23407.6003-.07356.179-.140439.358-.200628.5476-.120379.3791-.220694.7688-.294259 1.1795-.046814.2738-.073565.4844-.080253.7687-.006687.2528-.013375.5055-.020063.7583-.013375.5055-.020063 1.011-.026751 1.5165-.013375 1.0109-.020063 2.0219-.013375 3.0329.006688.9794-.140442 1.9272.120379 2.8855.26082.9584.7089 1.7798 1.27066 2.3169.45477.4423.96972.674 1.50474.7161 27.26582 1.8851 54.98632 1.864 83.13492-.0105.7423-.0527 1.4579-.5161 2.0063-1.3164.2608-.3792.4949-.7161.6888-1.2006.2408-.5792.4615-1.1795.6688-1.7903.5083-1.4849 1.1436-3.1382 1.0633-4.8548z" fill="url(#b)"/><path d="m87.8438 46.8048c-28.1552 1.864-55.8691 1.8956-83.13486.0106-1.21047 0-2.34069-1.3691-2.79546-3.0856-.20063-.7688-.24076-1.6008-.214-2.4222.00668-.1474.01337-.2843.04012-.4318.04013-.2211.10701-.4107.12038-.6424.00669-.1263.02006-.2316.02675-.358.04682-.6529.06019-1.3164.09363-1.9693.02006-.3686.04681-.7477.11369-1.1058.07357-.4107.19394-.7793.40126-1.032.89616-1.0637 2.65502-1.0426 3.95913-1.0847.25413-.0106.4882-.0211.7022-.0422.56846-.0526 1.13691-.0737 1.70537-.0737-1.35092-.0105-2.69515-.1895-4.026-.5581-.62864-.1685-1.25729-.3792-1.87925-.6319-.14712-.0527-.30763-.1369-.44807-.2422-.19395-.1369-.36114-.337-.44808-.6319-.07356-.2527-.06688-.5476-.06688-.8109.00669-.2633-.02006-.5371-.00668-.8003.01337-.5687.06019-1.1163.09363-1.6745.03343-.4528.06687-.9057.08694-1.369.04681-1.2111.09362-2.4222.15381-3.6333.02007-.3686.04682-.7687.20732-1.0215.10032-.1579.22738-.2317.35445-.3054.34776-.2001.70221-.3475 1.06335-.4423.18725-.0526.37451-.0526.53501-.1158.19395-.0948.34107-.158.54839-.1896 1.98625-.3686 3.9725-.7266 5.96545-1.0952.2341-.0422.4748-.0843.7156-.1264-2.99612-.5687-5.9989-1.1584-8.99499-1.7271-.13376-.0316-.26082-.0527-.39458-.0737-.12038-.0211-.24744-.0527-.3277-.1896-.00668-.0105-.01337-.021-.02006-.0316-.06019-.1263-.06688-.2738-.08025-.4317-.13376-2.5486.02006-5.1813-.07357-7.7615-.00668-.1474-.03343-.86352-.06018-1.68494-.03344-1.19002-.08695-2.54853-.10701-2.54853-.12706-2.83287 1.2506-5.27608 3.05628-5.37086 27.10526-1.484889 54.81916-1.432233 83.07466 0 1.8124.09478 3.2035 2.54852 3.063 5.40245-.0468.96886.0736 1.90613-.0802 2.88552-.0335.23169-.0803.46337-.194.62136-.1003.1369-.2341.1895-.3611.2317-.3411.1263-.6822.2632-1.0232.3896-.4548.1685-.9029.3265-1.3643.4107-2.7286.4529-5.4438.9162-8.1657 1.3796-.0736.0105-.1472.0211-.2207.0316-.087.0105-.1739.0316-.2608.0421.2207-.0105.4347-.0105.6487-.0105 3.4107-.0948 6.8281-.179 10.2455-.2738.0937 0 .2007 0 .2742.0948.087.1053.107.2843.1204.4528.0201.2317.0201.4528.0201.6635-.0067.6845-.0803 1.3374-.0803 2.0325 0 .6108.0936 1.211.0936 1.8429-.0066.9057-.0267 1.8113-.0468 2.7276-.0535 2.0641-.1471 4.1597-.2875 6.2344-.0201.3054-.0468.6213-.1739.8425-.1003.1685-.2475.2632-.3879.337-.0869.0526-.1739.0947-.2675.1263-2.0063.9057-4.1999.1896-6.2597.7477-.1338.0316-.2742.0738-.4013.1264-.0468.0105-.0936.0316-.1337.0527.1672.021.3344.0316.5016.0631 2.2537.2528 4.5008.6109 6.7412 1.0637.2608.0526.555.1264.7089.4634.1203.2527.1203.6002.1203.9162v1.0425c0 1.0532 0 2.1063.0335 3.1594.0401 1.3901.0936 2.7802.1538 4.1808.0267.6845.0535 1.3691.0869 2.0431.1204 2.8223-1.2506 5.255-3.0429 5.3813z" fill="url(#c)"/><path d="m90.5006 17.306c-.0067.9057-.0267 1.8114-.0468 2.7276-1.157.1685-2.2872.3054-3.3974.5055-.2608.0421-.5149.0842-.7757.1369-.9564.158-1.9127.3054-2.869.4318-.4749.0632-.9564.1263-1.4379.1895-.3076.0421-.5818.2317-.8761.2844-.4146.0737-.8694-.0948-1.2907-.1369-.4682-.0422-.9363-.0632-1.4045-.0527-.9362.0211-1.8792.1264-2.8088.2949-1.8725.337-3.7183.8951-5.5775 1.3795-2.9761.7794-5.9655 1.3796-8.9749 1.7693 1.6385.2527 3.2636.674 4.8619 1.2532-.6019.0737-1.2038.1474-1.8057.2001-1.9126.1895-3.8253.2843-5.738.337-1.9127.0526-3.8321.0526-5.7448.0421-1.9126 0-3.832-.0105-5.7447.0105-1.9127.0316-3.8254.0948-5.738.2317-.9564.0737-1.9127.158-2.8624.2738-.2407.0316-.4748.0632-.7156.0948-.2875.0421-.5684.1685-.8627.2211-2.2805.4213-4.561.9478-6.8148 1.6429-3.5043 1.0847-7.0287 2.1483-10.5933 2.5275-.642.0631-1.2907.1263-1.9327.1895-3.0697.9689-6.3868 1.169-9.39626 1.7482-1.02322.2001-2.0665.3054-3.10978.3686-.62865-.1685-1.25729-.3791-1.87925-.6319-.14713-.0526-.30763-.1369-.44808-.2422-.19394-.1369-.36113-.337-.44807-.6319-.07357-.2527-.06688-.5476-.06688-.8109.00669-.2632-.02006-.5371-.00669-.8003.01338-.5687.06019-1.1163.09363-1.6745 2.75534-.358 5.58424-1.6112 8.23258-2.222 3.404-.7688 6.875-1.2216 10.3057-1.5271 3.8856-.3369 7.7645.3897 11.6367.3897 3.5913 0 7.1692-.495 10.7404-.9478 6.9619-.8846 13.9104-1.8008 20.859-2.7486-1.5114-.0421-3.0229-.1053-4.5343-.1896-1.926-.1053-3.8521-.2422-5.7782-.4002-.448-.0316-.9095-.1263-1.3509-.0526-.4614.0842-.9296.1053-1.391.0948-.9162-.0211-1.8325-.2001-2.7219-.5477-.5217-.2-1.0433-.4633-1.5716-.6108-.8962-.2422-1.8124-.1685-2.7286-.1895-3.4041-.0737-6.7546-1.4849-10.1587-1.4322-.8961.0105-1.7856.1263-2.675.2527-.943.1369-1.8927.2738-2.8423.3159-.4213.0211-.856.0632-1.264-.0842-.3143-.1159-.6754-.0632-.9965-.0737-.5751-.0211-1.1502-.0422-1.7254-.0632-1.1503-.0421-2.3006-.0632-3.4575-.0737-4.3671-.0316-8.7208.3475-13.08787.2948-1.85919-.021-3.75849-.0842-5.59761-.5055-.00669-.0105-.01338-.021-.02007-.0316-.06019-.1263-.06687-.2738-.08025-.4317-.13375-2.5486.02006-5.1813-.07356-7.7614-.00669-.1475-.03344-.8636-.06019-1.68503 2.227-.3054 4.46739-.37912 6.69439-.63186 4.36036-.5055 8.72076-.72665 13.10126-.69506 8.6739.06319 17.3278.93727 25.975 1.96932 8.6539 1.03203 17.2877 2.30633 25.9416 3.27513 4.3738.4845 8.7543.7899 13.1347.7899 1.284 0 2.5815-.1264 3.8789-.2738-.0067.6845-.0803 1.3374-.0803 2.0325.0201.6634.1137 1.2637.107 1.885zm.1405 17.8924c-.0335-1.0531-.0335-2.1062-.0335-3.1593-2.762-.4739-5.5307-.9584-8.3061-1.2638-4.7617-.516-9.5501-.4318-14.3184-.1264-.9898.0632-1.9662.1054-2.9493.2949-.4748.0948-.9496.1896-1.4245.2738-1.9059.3581-3.812.6424-5.7246.8741-.7424.0843-1.4914.1685-2.2404.2422 1.9327-.021 3.8655-.0421 5.7982-.0632 1.9328-.021 3.8655-.0421 5.7983-.0632.963-.0105 1.9327-.021 2.8958-.0315.4815-.0106.963-.0106 1.4512-.0211.2006 0 .4146.0211.6152-.0527.1204-.0421.2408-.1158.3612-.1474.4347-.1053.9162.0316 1.3509.0737.4815.0421.9563.0843 1.4379.1264.9563.0948 1.9193.2001 2.8757.3054 1.5114.179 3.0161.3791 4.5209.5897 1.6451.2317 3.2769.5371 4.9154.8531-3.7183.5581-7.43 1.1373-11.1551 1.4638-8.5736.7477-17.1473 1.685-25.7343 1.4111-8.4666-.2527-16.9132-1.0215-25.3865-.9688-4.4674.021-8.9281.1369-13.3821.3475-3.29036.1474-6.62084.1264-9.9045.6529-.06688.3476-.09363.7372-.1137 1.1058-.03343.6529-.04681 1.3164-.09362 1.9693 3.65817.2317 7.35648-.1579 11.00792-.1685 4.4607-.0105 8.9214.0527 13.3821.2212 8.4533.3159 16.8999 1.0531 25.3465 1.2848 8.6003.2422 17.1807-.7267 25.761-1.4112 4.4273-.3475 8.8813-.3581 13.3086-.4318h.0936c-.0602-1.4006-.1137-2.7802-.1538-4.1808z" fill="url(#d)"/><g fill="#eb924d"><path d="m2.42903 31.5875c-.00669.5266-.00669 1.0637.10032 1.5586-.19395-.1369-.36114-.337-.44808-.6318-.07356-.2528-.06688-.5476-.06688-.8109.00669-.2633-.02006-.5371-.00668-.8004.02675-1.0215.14713-2.022.18057-3.0435.04681-1.2111.09362-2.4221.15381-3.6332.02007-.3686.04682-.7688.20732-1.0215.10032-.158.22738-.2317.35445-.3054.34776-.2001.70221-.3476 1.06335-.4423.16719-.0632.35444-.0632.51495-.1264.19394-.0948.34107-.158.54839-.1896 1.98625-.3686 3.9725-.7266 5.96545-1.0952-2.13339.6845-4.26677 1.348-6.40684 2.0325-.41464.1264-.96972.1264-1.31748.5582-.07356.0842-.13375.1895-.19394.2948-.0535.0948-.10032.2001-.1605.2949-.1137.158-.15382.4107-.20732.6319-.14045.6424-.2207 1.3163-.24076 1.9903-.00669.2528-.00669.5161-.02675.7688-.00669.0632-.01338.1264-.02007.1896-.00668.0737-.03343.1263-.04681.2001-.107.516-.09363 1.0847-.04681 1.6112.02006.1896.06019.3791.08694.5687.06687.4528.02006.9373.01337 1.4006z"/><path d="m79.4451 12.4641c-.1204-.0108-.2407-.0217-.3611-.0325h.5751c-.0668 0-.1404.0217-.214.0325z"/><path d="m81.4102 28.0801c.555.0842 1.1101.1685 1.6652.2317-.1338.0316-.2742.0737-.4013.1263-.428-.1263-.856-.2527-1.2639-.358z"/><path d="m89.5838 26.7848c.087-.5476.0669-1.1163.0335-1.6745-.0469-1.032-.1003-2.0746-.1472-3.1066-.0066-.2001-.0267-.4213-.127-.5476-.0803-.1054-.194-.1054-.2943-.0948-.8293.0421-1.6519.0842-2.4678.1263.8895-.1263 1.7723-.4949 2.5748-1.1057.2341-.179.4748-.4002.5618-.7688.0468-.1895.0468-.4002.0468-.6108-.0134-1.6323-.1939-3.4542-.321-5.076-.3879-.5792-.9697-.6529-1.5047-.7056-2.1535-.2106-4.3136-.4107-6.4604-.6213-.5149-.0527-1.0901-.0842-1.6385-.1264 3.4108-.0948 6.8282-.179 10.2456-.2738.0936 0 .2006 0 .2742.0948.0869.1053.107.2843.1204.4528.0735.9268-.0669 1.7798-.0669 2.696 0 .6108.0936 1.2111.0936 1.8429-.0334 2.9277-.1337 5.9817-.341 8.962-.0201.3054-.0469.6213-.1739.8425-.1003.1685-.2475.2633-.3879.337-.0869.0526-.1739.0948-.2675.1264.1137-.2107.2006-.4845.2474-.7688z"/><path d="m1.82654 10.6937c-.01337-.3475-.13375-4.22297-.17388-4.22297-.12706-2.83287 1.2506-5.27608 3.05628-5.37086 27.10526-1.484889 54.81916-1.432233 83.07466 0 1.8124.09478 3.2034 2.54852 3.063 5.40245-.0468.96886.0736 1.90613-.0803 2.88552-.0334.23169-.0802.46337-.1939.62136-.1003.1369-.2341.1895-.3611.2317-.3411.1263-.6755.2738-1.0166.3896.2943-.4212.6354-.91619.7691-1.527.0936-.41071.0201-.76877-.0669-1.15842-.1337-.6108-.1605-1.19001-.1738-1.83241-.0201-.78983.0668-1.91666-.3277-2.54853-.301-.4739-.6955-.88461-1.0701-1.17948-.9296-.71611-2.0063-.87408-3.0295-.93727-.0535 0-.1003-.01053-.1538-.01053-1.8859-.09478-3.7786-.10531-5.6645.20009-.2274.0316-.428.13691-.6487.20009-.2742.08425-.6019-.02106-.8828-.04212-.642-.05266-1.2773-.09478-1.9194-.13691-1.2773-.07371-2.5613-.12637-3.8454-.15796-.963-.02106-1.9194-.02106-2.8824-.02106-.3009 0-.6086 0-.9095 0-.5818 0-1.1637 0-1.7522 0-.8092 0-1.6184 0-2.4276-.01054-.0402 0-.0803 0-.1137 0-1.2841 0-2.5614-.01053-3.8455-.01053-.642 0-1.284 0-1.9193-.01053-.2943 0-.622.06319-.9095-.02106-.2943-.08425-.5284-.36859-.836-.41071-.2809-.042127-.5685.03159-.8427.07372-.7022.08424-1.3977.18956-2.0932.31593-.3143.05265-.6621.1369-.8694.50549-.0736.12637-.1271.28434-.214.38965-.194.22115-.4682.07372-.6955-.05265-.4481-.24222-.9229-.37912-1.4045-.41072-.4347-.03159-.8627.09478-1.2974.05266-.2742-.02106-.535-.12637-.8025-.21062-1.0567-.32647-2.1601-.34753-3.2235-.4739-.7891-.09478-1.585-.15797-2.3808-.20009-2.5614-.147439-5.1295-.06319-7.6842.10531-1.284.08425-2.5614.18956-3.8454.31593-.5885.05266-1.2372.25275-1.8191.12637-.1672-.03159-.3277-.1369-.4949-.18956-.1738-.05265-.3477-.04212-.5283-.04212-.7089.01053-1.4245.02106-2.1334.02106-.8292.01053-1.6652 0-2.5012 0-.2808 0-.555.08425-.8292.08425-.2542 0-.5016-.08425-.7558-.08425-.5283.01053-1.0499.1685-1.5381.48443-.1873.12638-.3812.26328-.5885.25275-.3746-.03159-.6287-.58974-.9698-.84249-.8025-.600272-1.6318.54762-2.4544.08425-.4079-.23168-.8225-.20009-1.2572-.20009-.5484-.01053-1.0968-.01053-1.6452-.01053-1.8592.01053-3.71838.11584-5.56419.41071-.9229.14744-1.83912.34753-2.75533.60027-.44139.12638-.88947.32647-1.33754.41072-.12707.02106-.22739.02106-.34776.15796-.5484.60028-2.05313 3.9597-.97641 5.13918.06688.07372.14044.1369.22069.18956.1137.07372.23407.10531.35445.1685.12038.07371.2742.02106.40127.02106.30763 0 .61526 0 .91621-.01053.3277 0 .6554-.01053.96303.1369-.69552.23169-1.39104.45284-2.08656.67399-.22739.07372-.45477.14744-.66877.29487-.03344.0316-.07357.04213-.1137.06319-.14712.08425-.25413.36859-.30763.58974-.14044.57918-.0535 1.21108-.11369 1.81138-.107 1.0741.02675 2.2326.09363 3.2962.08694 1.369.19394 2.7486.32101 4.1177-.13376-.0316-.26082-.0527-.39458-.0738-.12706-.021-.26082-.0526-.34776-.2106-.06019-.1263-.06688-.2738-.08025-.4317-.13376-2.5696.02006-5.2024-.06688-7.772z"/><path d="m90.8833 41.4237c-.0936-2.0746-.1739-4.1493-.2407-6.2239-.0402-1.4006-.0335-2.8013-.0335-4.2019 0-.3159-.0067-.6529-.1204-.9162-.1538-.337-.448-.4107-.7089-.4634-2.2403-.4528-4.4874-.8109-6.7412-1.0636 2.0063.6108 4.0795 1.3901 5.9855 2.222.3745.1685.4013.6214.5551 1.1795.1471.5582.1605 1.19.1739 1.7903.0067.2528.0067.5055-.0468.7477-.1137.5371-.4749.832-.7959 1.0847.2408.1053.4816.2107.729.3265.0602.0316.1204.0526.1605.1264.0468.0737.0669.2001.0736.3159.0936 1.0005.02 2.0536.0267 3.0645.0067.653.0067 1.3059.0134 1.9588.0067.1791.0468.3476.0736.5371.0401.3791.0133.7688-.0602 1.1374-.1472.7582-.4749 1.4322-.8962 1.864-.7289.7477-1.6385.9057-2.5079 1.0004-1.4512.1685-2.9091.1475-4.3537.3686-.4815.0632-.9563.1369-1.4378.2001-.9564.1264-1.9194.2317-2.8757.337-1.8124.1896-3.6315.337-5.4438.4318-4.2935.2317-8.5937.2106-12.8939.1685-.515-.0211-1.0366-.0211-1.5516-.0211-.4213 0-.8226.0843-1.2372.0211-1.0099-.158-2.013.1264-3.0162.3054-1.1703.2001-2.4276.2211-3.4375-.7267-.321-.3054-.6353-.7055-1.0098-.7266-.3076-.0105-.5952.2633-.8761.4739-.535.4002-1.1235.6213-1.712.7372-.0134 0-.0201 0-.0335.0105-1.2506.2528-2.4544.1158-3.705-.0211-.9162-.0947-1.8792.1475-2.7553-.3685-.6755-.3897-1.3844-.9478-2.0799-.653-.2474.1053-.4681.316-.7022.4634-.4548.2843-.9563.337-1.4445.3791-.3077.0211-.6153.0421-.9229.0632-1.2774.0632-2.5614.0527-3.8388-.0316-.535-.0421-1.0834-.0316-1.605-.2738-.3612-.1685-.7156-.0632-1.0901-.0211-1.5516.158-3.1098.2001-4.6681.1159-.6353-.0316-1.2706-.0843-1.8993-.158-.3076-.0316-.6286-.1264-.9362-.1264-.2141 0-.408.1053-.622.1053-1.2907-.0105-2.5748-.0421-3.8655-.0631-2.2003-.0316-4.4072-.0738-6.60746-.1053-1.50473.3264-2.76871-.0843-4.26007-.5161-1.22385-.358-2.5547-1.1373-3.06297-2.9276-.214-.7477-.24744-1.5797-.22738-2.38.00669-.2423.02006-.4739 0-.7162-.02006-.2211-.06688-.4212-.08694-.6424-.06688-.7266.07357-1.5691.18726-2.2747.06019-.358.13375-.7372.30094-1.011.14713-.2527.35445-.4001.56177-.5055.54839-.2738 1.13022-.337 1.70537-.3896.82927-.0737 1.65855-.158 2.48782-.2317.1672-.0105.33439-.0316.50158-.0421-.02006-.1264-.03344-.2528-.03344-.3897l.00669-.0526c-.50826-.0211-1.01653-.0211-1.5248-.0316-1.31079.0421-3.06297.0316-3.95912 1.0847-.40126.4739-.47483 1.348-.51495 2.1273-.04013.7687-.05351 1.5586-.12038 2.3273-.02007.2317-.08025.4213-.12038.6424-.02675.1475-.03344.2844-.04013.4318-.02675.832.01338 1.6639.21401 2.4222.44808 1.7271 1.5783 3.0856 2.79546 3.0856 27.26582 1.885 54.97962 1.864 83.13492-.0105 1.7923-.1159 3.1633-2.5486 3.0362-5.3709z"/><path d="m6.68359 26.1204c0 .5687.01338 1.1479.03344 1.7166.00669.2843.02007.5687.03344.853.00669.2106 0 .4423.02675.6424.02675.1685.0535.3159.0535.495.01338.4844.02675.9794.04682 1.4638.02675.9794.06019 1.9482.08694 2.9276.04012 1.2532.07356 2.4959.11369 3.7491.02006.6951.09363 1.2953.3277 1.8851.04681.1158.08694.2317.14044.337.08694.179.19394.3054.3277.4002.4882.337 1.04328.516 1.57161.6424.81588.2 1.63848.2527 2.46108.2948 10.8408.6003 21.6949 1.2111 32.5424.7899 1.3241-.0527 2.6951-.1054 3.9257.6739-.5618-1.5796-1.9194-1.8113-3.0697-1.8534-12.0512-.4318-24.1092-.9162-36.1203-2.4959-.3277-.0421-.68884-.1053-.92291-.4844-.16719-.2633-.23407-.6424-.28757-1.0005-.61527-3.907-.73565-8.0036-.36113-11.9844.02006-.2422.06687-.5055.06018-.7477-.00668-.2527-.02675-.5055-.02675-.7688-.00668-.5265.00669-1.0636.04013-1.5902-.04681-.1263-.16051-.1263-.24745-.1053-.22738.0422-.45476.0738-.68883.1159.01338.3475 0 .674-.02675 1.0215-.00669.1158.00669.2001.01338.3159.01337.2317-.01338.4739-.02007.6951-.01337.337-.02006.6845-.02675 1.0215 0 .3265-.00669.6635-.00669.9899z"/><path d="m48.8495 43.181c.1337-.5371.5818-.6319.9496-.6424 2.9226-.0948 5.8384-.179 8.7609-.2738 2.7554-.0843 5.5174-.1685 8.2727-.2633.8895-.0316 1.8391-.0316 2.5748.7582-.0134-.1685-.0334-.337-.0468-.5055.3143-.0842.6153-.1895.9363-.1474.1738.0211.3544-.0737.5283-.1053.4079-.0843.8226-.1158 1.2305-.1474 2.2672-.158 4.541-.2107 6.8148-.3897.5751-.0421 1.1436-.1053 1.7187-.1685.5685-.0632 1.1436-.1158 1.7054-.2422.0803-.0211.1538-.0632.2341-.0737.107-.0106.214-.0211.321-.0316.5751-.0737 1.157-.2422 1.692-.6319.6687-.4844 1.2573-1.348 1.4713-2.4537.0936-.495.1137-1.011.1337-1.527.0669-2.359.0468-4.7285-.0668-7.0769-.0736-.1159-.2609.0947-.2876.2632-.2742 1.7166-.4815 3.4542-.6153 5.2024-.0802 1.0426-.1471 2.1484-.5551 2.9698-.448.8951-1.1971 1.2532-1.906 1.5059-3.7651 1.3691-7.6574 1.506-11.5162 1.6323-3.598.1159-7.196.2423-10.7873.3581-2.9961-.158-6.0657.5897-9.0418.0842-.8359-.1474-1.6786-.3791-2.5145-.1895-.0602.0105-.1271.0316-.1739.1053-.0335.0527-.0401.1264-.0535.2001-.1003.5476.0602 1.2427.2207 1.7903z"/></g><path d="m86.026 33.1878c-.0067-2.0009-.02-4.0018-.0334-6.0133-.0067-1.9272-.0201-3.8438-.0267-5.771-.0134-2.3169.0468-4.6548-.1271-6.9505-.0335-.4529-.107-.9162-.1003-1.3691.0067-.6845-.0803-1.2111-.2742-1.864-.2475-.8846-.6019-1.69549-1.0032-2.43267-.8694-1.62179-2.12-1.69551-3.4241-1.77976-1.371-.09478-2.7353-.01053-4.0996-.02106-1.5247-.01053-3.0562-.02106-4.581-.04213-1.8592-.02106-3.7117-.05265-5.5709-.08424-1.8592-.0316-3.7184-.06319-5.5775-.09478-.9296-.01054-1.8592-.0316-2.7888-.04213-.194 0-.3946-.03159-.5819.04213-.1203.04212-.2273.11584-.3477.1369-.4146.06319-.8895-.10531-1.2974-.23168.0535-1.50595.2207-3.00137.5016-4.45466-.3812 1.49542-.8159 2.95924-1.3108 4.37041-.0335.09478-.0669.18956-.1271.23168-.0602.04213-.1338.03159-.1939.02106-.1405-.03159-.2876-.05265-.4281-.10531-.321-.12637-.662-.07371-.9964-.07371-1.4379-.02107-2.8691-.0316-4.3069-.04213-2.8222-.02106-5.6444-.01053-8.46.02106-3.0228.0316-6.0457-.03159-9.0752-.05265-.8226-.01053-1.6452-.02106-2.4611-.02106-.3544 0-.6955-.02107-1.0366.09478-.3544.12637-.7891.02106-1.1502-.01054-.2007-.02106-.4147-.05265-.5752-.25274-.1605-.18956-.2341-.49496-.3076-.78983-.1471-.61081-.2943-1.22161-.4414-1.83242.0201.71612.0669 1.4217.1404 2.12729.0201.23168.0335.52655-.1003.64239-.0401.0316-.0936.04213-.1404.05266-.1605.02106-.3277.08425-.4882.03159-.3077-.09478-.6153-.06318-.9296-.06318-3.4375 0-6.8616-.02107-10.2857-.04213-1.9194-.01053-6.5339-1.54807-7.16255 2.55906-.08694.56868-.08025 1.1584-.107 1.7482-.06688 1.7692-.02675 3.5489-.00669 5.3287.0535 5.8658.16051 11.7316.30764 17.5869.02006.8952.04681 1.8009.12037 2.696.06019.7056.02675 1.6323.3812 2.1799.12038.1896.20732.3686.31433.5898.214.4318.50826.7582.82927.9899.68884.5055 1.48463.6424 2.24703.6951 2.4879.1895 4.969.3475 7.4501.4633 2.5013.1264 4.9958.2422 7.497.316 2.5012.0737 4.9957.1263 7.4969.1474 2.2671.0211 4.5343.0316 6.8014.0421h3.4709c1.2506 0 2.762-.6108 3.9123.3265.5752.4634 1.0567 1.2111 1.3309 2.1378-.0468-.7477-.0335-1.506.0401-2.2537.9095-.2001 1.8191-.3264 2.7353-.3475.3945-.0105.7757.0843 1.1703.0737.4615 0 .9296-.0105 1.3911-.0105 1.8591-.0211 3.7183-.0421 5.5775-.0737 1.1503-.0211 2.3006-.0421 3.4576-.0632 2.5012-.0421 4.9957-.1369 7.4969-.2843.4481-.0316.9028-.0527 1.3509-.0843 3.4442-.2106 6.8883-.5265 10.3258-.9583.2943-.0421.5752-.0843.8494-.1685.4413-.1369.856-.3791 1.2171-.8636.4414-.5897.8694-1.2216 1.1637-2.0009.4748-1.2532.3544-2.6854.3477-4.1071zm-1.8658 2.717c-.1806.4739-.515.9478-.7892 1.3059-.0669.0842-.1672.1895-.428.2632-.1939.0632-.4213.0948-.6487.1264-3.297.4107-6.7479.7267-10.2523.9584-.448.0315-.8894.0526-1.3375.0737-2.6216.1474-5.0559.2422-7.4501.2843-7.109.1369-14.1111.2106-20.8255.2106-3.0095 0-6.019-.0105-9.0351-.0421-2.4745-.0316-4.9957-.0737-7.4702-.1474-2.4744-.0737-4.989-.1791-7.4702-.3054-2.4811-.1264-4.9823-.2844-7.43-.4739-.5417-.0316-1.15698-.1159-1.59168-.4318-.107-.0843-.16051-.1474-.17388-.1685-.08025-.1685-.18057-.3686-.29426-.5792-.00669-.1053-.01338-.2212-.02006-.3159-.01338-.1896-.02007-.3686-.03344-.5477-.06019-.7582-.08025-1.5375-.10701-2.4748-.15381-5.7921-.26082-11.6895-.30763-17.5132l-.00669-.9899c-.02006-1.4428-.03344-2.8013.02007-4.1387.00668-.1475.00668-.3054.01337-.4739.00669-.3265.01338-.62138.04013-.78987.06019-.35806.70221-.72665 2.03308-.72665.6554 0 1.3576.08425 1.9729.15797.5283.07371 1.0299.12637 1.4579.12637 3.0563.02106 6.1192.03159 9.1822.03159h1.7187c2.2872 0 4.5744.01054 6.8683.0316l2.207.02106c1.6117.02106 3.2301.03159 4.8419.03159.6754 0 1.3576 0 2.0464-.01053 1.7054-.02106 3.404-.03159 5.1094-.03159 5.7715 0 11.6567.10531 17.3412.20009 4.4607.07372 9.0819.14743 13.6028.17903l.2207.01053c.4013 0 .7892-.01053 1.1904-.01053.3879-.01053.7758-.01053 1.157-.01053.5618 0 1.0299.01053 1.4512.04212h.0469c1.2238.09478 1.7923.18956 2.1266.81085.3411.6319.5752 1.2111.7357 1.7693.1204.4317.1204.5476.1204.7161-.0067.5476.0468 1.0215.0802 1.4006.0067.1053.0201.2317.0335.337.1204 1.6007.1137 3.2436.1137 4.9918-.0067.5476-.0067 1.0952 0 1.6428l.0601 11.7527c.0067.2633.0067.5055.0134.7477.0067.832.0201 1.5692-.1337 1.9588z" fill="url(#e)"/><g fill="#eb924d"><path d="m6.71519 22.4029 2.04644-.6424-.08694-.3054-2.12.4002z"/><path d="m83.733 12.7902 2.3741.316v-.8425l-2.568.179z"/><path d="m83.8998 28.8912 2.6282.7898-.0535-.6634-2.8222-.3897z"/><path d="m76.215 25.3526c-1.9996-1.7587-5.3234-1.2216-6.9084 1.1479-.9965 1.4954-1.05 4.2861 0 5.771 2.3073 3.2752 6.36 1.8745 7.8246-2.1694.0268-.0421.0535-.0843.087-.1158 1.1168-1.5902.321-4.2335-1.0032-4.6337z"/></g><path d="m76.6896 23.8037c-1.9996-1.7587-5.3234-1.2216-6.9084 1.1479-.9965 1.4955-1.05 4.2862 0 5.7711 2.3073 3.2752 6.36 1.8745 7.8246-2.1694.0268-.0422.0535-.0843.087-.1159 1.1168-1.5902.321-4.2335-1.0032-4.6337z" fill="url(#f)"/><path d="m76.215 24.8047c-1.9996-1.7587-5.3234-1.2216-6.9084 1.1479-.9965 1.4954-1.05 4.2862 0 5.7711 2.3073 3.2751 6.36 1.8745 7.8246-2.1695.0268-.0421.0535-.0842.087-.1158 1.1168-1.5902.321-4.2335-1.0032-4.6337z" fill="url(#g)"/><path d="m68.6112 18.8642c-1.2639-1.1163-3.3572-.7688-4.3537.7266-.6286.9373-.662 2.7065 0 3.6438 1.458 2.0641 4.0127 1.1795 4.9356-1.3691.02-.021.0334-.0526.0535-.0737.7022-1.011.2006-2.6749-.6354-2.9276z" fill="#eb924d"/><path d="m68.912 17.8974c-1.264-1.1163-3.3572-.7688-4.3537.7266-.6286.9373-.6621 2.7065 0 3.6438 1.4579 2.0641 4.0126 1.1795 4.9356-1.3691.02-.021.0334-.0526.0535-.0737.7022-1.0215.2006-2.6854-.6354-2.9276z" fill="url(#h)"/><path d="m68.6112 18.5165c-1.2639-1.1163-3.3572-.7687-4.3537.7267-.6286.9478-.662 2.7065 0 3.6437 1.458 2.0641 4.0127 1.1795 4.9356-1.369.02-.0211.0334-.0527.0535-.0737.7022-1.011.2006-2.6749-.6354-2.9277z" fill="url(#i)"/><path d="m17.1444 29.5448c-1.2639-1.1163-3.3572-.7687-4.3537.7267-.6286.9373-.662 2.7065 0 3.6438 1.458 2.0641 4.0127 1.1794 4.9356-1.3691.02-.0211.0334-.0526.0535-.0737.7022-1.011.2006-2.6749-.6354-2.9277z" fill="#eb924d"/><path d="m17.4452 28.5644c-1.264-1.1163-3.3572-.7688-4.3537.7266-.6286.9478-.6621 2.7065 0 3.6438 1.4579 2.0641 4.0126 1.1795 4.9356-1.3691.02-.021.0334-.0526.0535-.0737.7022-1.011.2006-2.6749-.6354-2.9276z" fill="url(#j)"/><path d="m17.1444 29.1972c-1.2639-1.1163-3.3572-.7688-4.3537.7266-.6286.9478-.662 2.7065 0 3.6438 1.458 2.0641 4.0127 1.1795 4.9356-1.369.02-.0211.0334-.0527.0535-.0738.7022-1.0109.2006-2.6749-.6354-2.9276z" fill="url(#k)"/><path d="m7.86523 14.3213c0-3.3137 2.68627-6.00001 5.99997-6.00001h61.3899c5.5228 0 10 4.47711 10 10.00001v11.9428c0 5.5229-4.4772 10-10 10h-59.3899c-4.4182 0-7.99997-3.5817-7.99997-8z" fill="#e58a4a" opacity=".9"/><path d="m27.3672 21.4688c.1406-.1094.2187-.1563.2344-.1407.0156 0 .0234-.0078.0234-.0234.125-.1094.2031-.1797.2344-.2109.0937-.0469.1484-.0782.164-.0938.0313-.0156.0625-.0312.0938-.0469l.3281-.2343c.0625-.0313.1094-.0704.1406-.1172.0469-.0625.0938-.125.1407-.1875.1718-.0938.2656-.1485.2812-.1641.0625-.0625.1172-.1016.1641-.1172s.0859-.039.1172-.0703c.2031-.1719.3671-.2813.4921-.3281.0626-.0782.1329-.1328.211-.1641.0781-.0469.1484-.1094.2109-.1875.1094-.0312.1875-.0703.2344-.1172.0781-.0625.1328-.1015.1641-.1172.0468-.0312.0937-.0546.1406-.0703.1875-.0156.289-.0234.3047-.0234.125.0156.2109.0234.2578.0234.1094.0938.1719.1407.1875.1407.0312 0 .0625.0156.0937.0468.0313.0313.0703.0625.1172.0938.0469.0156.086.039.1172.0703l.2109.1641c.1407.0781.211.125.211.1406 0 0 .0078.0078.0234.0234.0938.0781.1641.1328.211.1641.0468.0312.0781.0703.0937.1172.1094.0468.1953.1093.2578.1875.0781.0625.1563.1328.2344.2109.1719.1094.2813.1797.3281.2109.0469.0313.086.0625.1172.0938.125.0469.2188.125.2813.2344.0625.1093.1562.1953.2812.2578.125.125.1875.1875.1875.1875.0313.0469.0625.1015.0938.164.0468.0625.0859.1172.1172.1641.125.1406.1953.2266.2109.2578.0156.0156.0391.0391.0703.0703.0781.0938.1484.1875.2109.2813.0625.125.1172.2578.1641.3984.0625.1406.1328.2734.2109.3984-.0312.125-.0234.2579.0235.3985l.0234.2578c0 .1094.0078.1875.0234.2344.0157.0469.0235.0859.0235.1172.0312.0468.0312.0937 0 .1406-.0156.0469-.0235.1015-.0235.1641.0157.1874.0157.3124 0 .375v.1406.1172c.0157.0468.0157.1015 0 .164-.0312.2032-.0546.3438-.0703.4219 0 .0625.0079.1484.0235.2578 0 .1719-.0156.2969-.0469.375-.0156.0625-.0234.1328-.0234.2109.0156.1876.0234.3047.0234.3516.0156.0313.0234.0625.0234.0938l-.0234.5625c.0156.1562.0156.2343 0 .2343v.0235c.0156.125.0156.1953 0 .2109v.0469.1406c.0156.0469.0234.0938.0234.1406v.211c.0157.0156.0235.0312.0235.0469-.0469.1406-.0703.2187-.0703.2343.0156.0157.0234.0391.0234.0703v.1875c.0156.0469.0234.1016.0234.1641 0 .0781-.0078.1562-.0234.2344v.2344.2578c.0469.2343.0703.4296.0703.5859s.0078.3125.0234.4687v.2344c.0157.0156.0235.0391.0235.0703.0156.1719.0234.3438.0234.5157v.4922c0 .0468.0078.0937.0235.1406.0156.0468.0156.0937 0 .1406-.0157.0469-.0313.0859-.0469.1172-.0156.0156-.0391.0547-.0703.1172-.3125.125-.5078.1953-.586.2109-.0781.0313-.1718.0313-.2812 0-.0781 0-.1797-.0078-.3047-.0234-.1094 0-.2031.0078-.2813.0234-.1718-.0156-.289-.0234-.3515-.0234-.0469.0156-.1016.0234-.1641.0234h-.3984c-.0781 0-.1563 0-.2344 0-.0625.0156-.125.0156-.1875 0-.1562-.0469-.2422-.0703-.2578-.0703-.0313 0-.0703 0-.1172 0-.0469.0156-.1094.0234-.1875.0234-.1875-.0156-.2969-.0156-.3281 0-.0156.0157-.0391.0157-.0703 0-.0313.0313-.0782.0469-.1406.0469-.0626 0-.1329 0-.211 0-.1406.0313-.25.0235-.3281-.0234-.1406-.125-.2422-.211-.3047-.2578 0-.0782-.0078-.1563-.0234-.2344-.0157-.0781-.0235-.1641-.0235-.2578l.0469-.3047.0234-.2578c.0157-.0313.0235-.0703.0235-.1172.0156-.0469.039-.1094.0703-.1875.0156-.0469.0234-.0859.0234-.1172.0156-.0469.0313-.1094.0469-.1875 0-.1875.0078-.3203.0234-.3984.0157-.0938.0235-.1797.0235-.2578-.0156-.2032-.0078-.336.0234-.3985 0-.1719.0078-.2656.0234-.2812-.0156-.1563-.0156-.25 0-.2813.0157-.0312.0235-.0625.0235-.0937 0-.1875 0-.2891 0-.3047.0156-.0156.0234-.0313.0234-.0469-.0312-.1719-.0469-.2656-.0469-.2813.0157-.0156.0235-.0312.0235-.0468 0-.0469-.0078-.0938-.0235-.1406 0-.0626 0-.1329 0-.211v-.3047c-.0156-.1719-.0234-.3047-.0234-.3984-.0312-.1875-.0469-.3125-.0469-.375.0157-.0625.0235-.1172.0235-.1641 0-.2187 0-.3828 0-.4922 0-.125-.0156-.2265-.0469-.3046.0313-.0313.0391-.0782.0234-.1407 0-.0625 0-.1172 0-.164.0157-.1563.0079-.2735-.0234-.3516-.0156-.0937-.0078-.1719.0234-.2344-.0156-.1406-.0312-.2422-.0468-.3047 0-.0625-.0313-.1093-.0938-.1406-.1406-.125-.2109-.2031-.2109-.2344-.2032-.0156-.375.0157-.5156.0938-.1094.1406-.1719.2109-.1876.2109-.1093.1563-.1953.2578-.2578.3047-.0468.0469-.0937.1016-.1406.1641-.125.1562-.2031.25-.2344.2812-.1718.0938-.2968.1719-.375.2344-.0625.0625-.1406.0859-.2343.0703-.0782 0-.1485-.0234-.211-.0703-.0469-.0625-.1093-.1094-.1875-.1406-.0312-.0781-.0703-.1407-.1172-.1875-.0468-.0469-.0859-.1094-.1172-.1875-.1093-.1563-.164-.2344-.164-.2344.0156 0 .0156-.0078 0-.0234-.0781-.1407-.1641-.2735-.2578-.3985-.0313.0313-.0469.0703-.0469.1172v.1406.2813.5156c0 .0781-.0078.1641-.0234.2578v.2813.5859c.0156.1875.0234.3828.0234.5859.0313.0782.0469.1641.0469.2579v.2578l.0234.2578v.1641c.0156.0312.0234.0624.0234.0937.0157.1719.0157.2734 0 .3047-.0156.0312-.0234.0625-.0234.0937 0 .0938.0156.2188.0469.375-.0156.0625-.0235.1329-.0235.211.0157.0781.0235.1484.0235.2109.0156.0469.0156.0938 0 .1406v.1407c.0156.1562.0312.2656.0469.3281.0156.0469.0234.0859.0234.1172.0312.2812.0469.4609.0469.539.0156.0469.0156.1016 0 .1641 0 .0469.0078.0937.0234.1406.0313.1563.0391.2422.0235.2578v.0703l.0703.3516c-.0157.1563-.0235.2422-.0235.2578.0156.0156.0235.0391.0235.0703-.0469.1719-.0703.2969-.0703.375 0 .0782-.0235.1329-.0704.1641-.1562.0156-.2734.0234-.3515.0234-.0781.0157-.1485.0391-.211.0704-.2656.0312-.4765.0234-.6328-.0235-.1562-.0312-.2422-.0469-.2578-.0469-.0156.0157-.0391.0235-.0703.0235-.0625 0-.1094-.0078-.1406-.0235-.0313 0-.0782 0-.1406 0-.1876-.0156-.3047-.0234-.3516-.0234-.0313 0-.0703-.0078-.1172-.0234-.0781 0-.1641 0-.2578 0-.0781-.0157-.1563-.0313-.2344-.0469-.1875-.0469-.3594-.0547-.5156-.0235-.1406.0313-.25.0547-.3281.0704-.1094 0-.1797 0-.211 0-.0156-.0157-.039-.0157-.0703 0-.0469 0-.0937.0078-.1406.0234-.0313 0-.0781-.0078-.1406-.0234-.125 0-.2266.0156-.3047.0468-.1719-.0625-.2657-.0937-.2813-.0937 0 0-.0078-.0156-.0234-.0469-.0469-.0781-.086-.1328-.1172-.164-.0156-.0313-.0234-.0704-.0234-.1172.0156-.25.0156-.4297 0-.5391 0-.125.0078-.2422.0234-.3516 0-.1875 0-.3047 0-.3515.0156-.0625.0312-.1172.0469-.1641.0312-.2812.0625-.4609.0937-.5391.0156-.2031.0156-.3359 0-.3984s-.0156-.125 0-.1875c0-.1719.0078-.2656.0235-.2812.0156-.0313.0234-.0625.0234-.0938l-.0234-.3047c0-.0937 0-.1797 0-.2578s-.0157-.1484-.0469-.2109c.0156-.1719.0078-.2891-.0234-.3516-.0157-.0781-.0079-.125.0234-.1406.0156-.1406.0234-.2188.0234-.2344s-.0078-.0391-.0234-.0703c0-.0469 0-.0938 0-.1406.0156-.0469.0234-.086.0234-.1172 0-.0625-.0078-.1094-.0234-.1406-.0156-.0469-.0078-.0938.0234-.1407 0-.1562 0-.2734 0-.3515 0-.0938 0-.1797 0-.2578 0-.0782-.0078-.1485-.0234-.211s-.0234-.1172-.0234-.164c.0156-.2032.0078-.336-.0235-.3985.0156-.0625.0235-.1172.0235-.164 0-.0625.0078-.125.0234-.1875v-.2813-.4922c0-.125-.0078-.2109-.0234-.2578 0-.0625 0-.1172 0-.1641-.0313-.1562-.0469-.2812-.0469-.375 0-.1093 0-.2031 0-.2812.0156-.125.0156-.2031 0-.2344-.0157-.0468 0-.0625.0469-.0468-.0157-.25-.0391-.4219-.0704-.5157-.0156-.0937-.0078-.1797.0235-.2578-.0157-.0312-.0313-.0703-.0469-.1172s-.0234-.1015-.0234-.164c.0156-.1407.0156-.2266 0-.2579-.0157-.0312-.0235-.0624-.0235-.0937 0-.2031 0-.3594 0-.4687-.0156-.1719-.0234-.2813-.0234-.3282.0156-.0625.0234-.125.0234-.1875v-.3515c-.0156-.125-.0234-.2188-.0234-.2813-.0313-.1875-.0469-.3047-.0469-.3515 0-.0469-.0078-.0938-.0234-.1407l-.0235-.3281c-.0156-.1406-.0156-.2969 0-.4688.1407-.1718.2032-.2578.1875-.2578.1875-.0781.3047-.1172.3516-.1172.1875.0157.3047.0157.3516 0 .0468-.0156.1015-.0312.164-.0468.125 0 .2032-.0078.2344-.0235.0312-.0156.0625-.0234.0938-.0234.0468-.0156.0937-.0156.1406 0 .0625.0156.1094.0078.1406-.0234.2188.0156.375.0234.4688.0234.0937 0 .1796-.0156.2578-.0469.0468-.0156.1093-.0156.1875 0 .0781.0156.1406.0469.1875.0938.0781-.0313.1484-.0391.2109-.0235h.1875c.1719.0313.3125.0469.4219.0469.125-.0156.2343-.0078.3281.0234.0781-.0312.1719-.039.2812-.0234.1094.0156.2032 0 .2813-.0469l.2813.0703c.1562.1563.2656.2969.3281.4219.0625.1094.0469.2188-.0469.3281-.0312.1407-.0547.2813-.0703.4219-.0156.125-.0391.2657-.0703.4219-.0156.1875-.0313.2969-.0469.3281 0 .0313-.0078.0625-.0234.0938-.0157.0781-.0235.1484-.0235.2109.0156.0625.0078.1328-.0234.211zm20.9766-1.8516c.0624.0156.1718.0547.3281.1172.1406.0468.2422.125.3047.2344.0781.0312.1484.0703.2109.1171.0625.0313.125.0782.1875.1407.1562.1093.2266.1718.2109.1875v.0468c.1407.1094.211.1719.211.1875.0312.0313.0703.0704.1172.1172.0468.0469.0859.086.1171.1172.0782.1094.125.1797.1407.211.0312.0312.0625.0624.0937.0937.0782.1406.125.2266.1406.2578.0313.0156.0547.0391.0704.0703.1562.1875.25.3282.2812.4219.0469.0781.0938.1641.1406.2578.0625.1406.1016.2188.1172.2344.0156 0 .0313.0078.0469.0234.0469.1407.0859.2344.1172.2813.0469.0468.0859.1094.1172.1875.0781.125.1484.2656.2109.4219.0781.1562.1484.3281.211.5156.1093.2968.1953.5859.2578.8672 0 .1093.0078.1953.0234.2578.0781.2031.1172.3437.1172.4218 0 .0782.0078.1641.0234.2579.0313.0781.0469.1562.0469.2343 0 .0782.0078.1563.0234.2344.0313.1094.0625.2656.0938.4688 0 .125-.0078.25-.0235.375v.3515c-.0156.125-.0234.2344-.0234.3281.0156.0938.0078.1954-.0234.3047-.0313.1407-.0469.2422-.0469.3047s-.0078.1328-.0234.211c-.0313.125-.0469.2109-.0469.2578-.0313.0781-.0625.1484-.0938.2109-.0156.0469-.039.1094-.0703.1875-.0312.125-.0547.211-.0703.2578-.0312.125-.0781.2266-.1406.3047-.0469.0781-.1094.1641-.1875.2578-.0469.0938-.1016.1719-.1641.2344-.0468.0625-.0937.125-.1406.1875-.1094.1719-.1953.2891-.2578.3516-.0469.0625-.0938.1328-.1406.2109-.125.1563-.1954.2422-.211.2578-.0156 0-.0312.0156-.0468.0469-.0626.0781-.1329.164-.211.2578-.0781.0781-.164.1484-.2578.2109-.0781.1563-.1484.25-.2109.2813-.0469.0312-.1094.0703-.1875.1172-.0625.0468-.1172.1015-.1641.164-.25.0938-.3984.1563-.4453.1875l-.2344.1172c-.2344.0938-.3828.1641-.4453.211-.0625.0312-.1328.0703-.2109.1171-.0625.0313-.1719.0782-.3282.1407-.0937.0469-.164.0703-.2109.0703-.0313 0-.0625.0078-.0937.0234-.125.0469-.2032.0703-.2344.0703-.0156 0-.0391.0079-.0703.0235-.1719.0468-.2891.0703-.3516.0703s-.125.0078-.1875.0234c-.2031.0625-.3594.0938-.4688.0938-.1874-.0157-.3124-.0157-.375 0-.0468.0156-.1093.0312-.1874.0469-.2344.0468-.4688.0468-.7032 0-.1718.0312-.3125.0468-.4218.0468-.0469 0-.0938 0-.1407 0-.0469.0156-.0859.0235-.1172.0235-.0625 0-.1171-.0157-.164-.0469-.0313-.0156-.0781-.0234-.1407-.0234-.0624-.0157-.1796-.0235-.3515-.0235-.0938-.0156-.1875-.0312-.2813-.0469-.0937-.0156-.1875-.0312-.2812-.0468-.0469-.0157-.1016-.0235-.1641-.0235-.0469 0-.0937-.0078-.1406-.0234-.1094-.0313-.1953-.0469-.2578-.0469-.2031-.0781-.2969-.1172-.2813-.1172-.2187-.0625-.3359-.1015-.3515-.1172-.1875-.0156-.3125-.039-.375-.0703-.1719-.0625-.2735-.0937-.3047-.0937l-.2578-.1172c-.1875-.0938-.3125-.1406-.375-.1406-.1563-.0469-.2578-.0938-.3047-.1407-.1719-.0625-.2735-.1015-.3047-.1171-.0312-.0157-.0625-.0313-.0938-.0469-.1562-.1563-.2656-.2422-.3281-.2578-.0625-.0313-.1093-.0782-.1406-.1407-.1719-.0781-.2656-.125-.2813-.1406 0-.0156-.0078-.0312-.0234-.0469-.0937-.0625-.1719-.1484-.2344-.2578-.125-.0937-.2187-.1953-.2812-.3047-.0938-.0781-.1563-.1484-.1875-.2109-.1094-.1563-.1641-.2422-.1641-.2578s-.0078-.0313-.0234-.0469c-.1094-.1875-.1797-.289-.211-.3047-.0156-.0312-.0312-.0703-.0468-.1172-.0469-.0468-.1016-.0937-.1641-.1406-.0469-.0625-.0703-.1406-.0703-.2344-.125-.0937-.2031-.1797-.2344-.2578-.0468-.1093-.0703-.1797-.0703-.2109.0156-.0313.0235-.0625.0235-.0938-.1094-.1875-.1876-.3281-.2344-.4218-.0625-.2032-.1016-.3282-.1172-.375-.0938-.1875-.1563-.336-.1875-.4454-.0313-.1093-.0625-.2343-.0938-.375-.0156-.125-.0234-.1953-.0234-.2109.0156-.0156.0156-.0391 0-.0703 0-.0469-.0078-.0859-.0234-.1172 0-.0469-.0079-.0937-.0235-.1406.0156-.2344.0078-.3672-.0234-.3984-.0156-.1563-.0313-.2344-.0469-.2344-.0156-.0156-.0234-.0391-.0234-.0703 0-.125.0078-.2188.0234-.2813.0313-.0625.0469-.125.0469-.1875 0-.125 0-.2187 0-.2812.0469-.125.0703-.2032.0703-.2344.0156-.0469.0156-.1016 0-.1641.0625-.1406.0937-.2422.0937-.3047s.0079-.1171.0235-.164c.0312-.0938.0547-.1563.0703-.1875.0156-.0313.0234-.0625.0234-.0938.0157-.0781.0235-.1328.0235-.164 0-.0313.0078-.0782.0234-.1407.0469-.1093.0938-.2031.1406-.2812.0469-.125.0703-.2109.0703-.2578s.0079-.0938.0235-.1407c.0312-.1406.0625-.2265.0937-.2578.0625-.1718.1016-.2578.1172-.2578s.0235-.0078.0235-.0234c.0781-.125.1328-.211.164-.2578.0313-.0625.0625-.1172.0938-.1641.0312-.0781.0625-.1484.0937-.2109.0313-.0625.0625-.1328.0938-.211.0781-.0937.1172-.1484.1172-.164.0156-.0313.0312-.0625.0468-.0938.0782-.125.125-.1875.1407-.1875l.0703-.0703c.0625-.0937.0937-.1484.0937-.164.0157-.0157.0313-.0391.0469-.0704.2344-.2812.3828-.4922.4453-.6328.125-.0625.2031-.125.2344-.1875.0625-.0156.1015-.0469.1172-.0937.0312-.0625.0625-.1094.0937-.1406l.2813-.0938c.1562-.1094.2734-.1797.3515-.2109.1094-.0625.1797-.086.211-.0703.0468 0 .0859-.0079.1172-.0235.125-.1094.1875-.1562.1875-.1406s.0156.0078.0468-.0235c.1563-.0624.2422-.0937.2579-.0937.0312 0 .0624-.0078.0937-.0234.125-.0782.2031-.1172.2344-.1172.0312-.0157.0703-.0313.1172-.0469.0468-.0156.0859-.0391.1171-.0703.1563-.0781.2579-.1172.3047-.1172.0469 0 .0938-.0078.1407-.0234.1562-.0625.25-.0938.2812-.0938.0469-.0156.086-.0234.1172-.0234.3281-.0781.5547-.1407.6797-.1875.0937.0156.1797.0156.2578 0 .0937-.0313.1797-.0547.2578-.0703.1875 0 .3047.0078.3516.0234s.0937.0234.1406.0234.0937-.0078.1406-.0234c.0625-.0156.125-.0234.1875-.0234h.375c.0469-.0157.0938-.0235.1406-.0235.0626-.0156.1172-.0156.1641 0s.1016.0235.1641.0235c.0468-.0157.0937-.0313.1406-.0469.0625-.0156.1328-.0156.2109 0 .0938.0156.1797.0312.2579.0469.0781.0156.125.0234.1406.0234.1875.0156.2968.0313.3281.0469.0781.0156.1641.0312.2578.0468.1094.0157.2266.0313.3516.0469.1719.0157.2578.0235.2578.0235.0156-.0157.0391-.0157.0703 0 .1406.0625.2266.1015.2578.1172h.1172l.1875.0468c.0781 0 .1406.0235.1875.0703.2188.0938.3438.1563.375.1875zm-3.3282 3.5859c-.1562-.0312-.2344-.039-.2344-.0234s-.0078.0234-.0234.0234c-.1562.0157-.2422.0313-.2578.0469s-.0391.0234-.0703.0234c-.0625.0313-.1328.0547-.2109.0704-.0626 0-.1094.0156-.1407.0468-.1562.0938-.2422.1406-.2578.1406s-.0391.0079-.0703.0235c-.1406.0469-.2109.0781-.2109.0937 0 0-.0157.0078-.0469.0235-.0938.0625-.1797.1328-.2578.2109-.1094.0781-.1953.1484-.2578.211-.0469.0468-.086.0859-.1172.1171-.125.1407-.1875.2188-.1875.2344-.0938.125-.1719.2188-.2344.2813-.1094.1562-.1641.2578-.1641.3046 0 .0469-.0156.0938-.0468.1407-.125.1406-.1954.2578-.211.3515-.0468.0782-.0937.1485-.1406.211-.0312.0468-.0469.1015-.0469.164.0157.2032.0157.3282 0 .375v.1172c0 .2032.0235.3594.0703.4688.0313.125.0625.25.0938.375.0469.125.1016.25.164.375.0938.1718.1329.2656.1172.2812 0 .0156.0078.0313.0235.0469.0781.125.125.1875.1406.1875s.0313.0078.0469.0234c.125.125.1953.1875.2109.1875s.0391.0079.0703.0235c.0782.0781.1563.164.2344.2578.0938.0781.2031.125.3281.1406l.3047.1641c.0469.0312.0938.0469.1406.0469.0469 0 .0938.0078.1407.0234.0937.0469.1562.0703.1875.0703.0312-.0156.0625-.0156.0937 0 .1406.0469.2344.0703.2813.0703.0468-.0156.0859-.0234.1172-.0234.1562.0468.25.0703.2812.0703.0469-.0156.0938-.0235.1406-.0235h.2344c.1094-.0156.2031-.0234.2812-.0234l.4219-.0703c.1407-.0469.2031-.0781.1875-.0937 0-.0157.0156-.0235.0469-.0235.1094-.0156.1953-.0547.2578-.1172.1406-.1093.2578-.164.3516-.164.0781-.1563.1562-.2579.2343-.3047.0938-.1406.1329-.211.1172-.211 0-.0156.0078-.0312.0235-.0468.0469-.1094.0859-.1641.1172-.1641.0312-.0156.0547-.0391.0703-.0703.0468-.0938.0703-.1563.0703-.1875.0156-.0313.0312-.0547.0469-.0703l.164-.3282c.0938-.1406.1406-.2656.1406-.375.0626-.1874.086-.3203.0704-.3984 0-.0781 0-.1562 0-.2344-.0157-.0781-.0313-.1484-.0469-.2109s-.0313-.1328-.0469-.2109c-.0156-.0625-.0234-.1094-.0234-.1407.0156-.0468.0156-.0859 0-.1171-.0313-.0626-.0625-.1094-.0938-.1407-.0156-.0469-.0234-.0937-.0234-.1406-.0938-.125-.1406-.1953-.1406-.2109 0-.0157-.0078-.0313-.0235-.0469-.0781-.1094-.1172-.1641-.1172-.1641 0-.0156-.0078-.039-.0234-.0703-.0469-.0625-.0937-.1172-.1406-.1641-.0313-.0624-.0703-.125-.1172-.1874-.1094-.1094-.1719-.1719-.1875-.1876 0-.0156-.0156-.0312-.0469-.0468-.1562-.125-.2656-.2032-.3281-.2344-.0469-.0469-.086-.1016-.1172-.1641-.1719-.0781-.3125-.1406-.4219-.1875-.1562-.0781-.2343-.125-.2343-.1406.0156-.0312.0156-.0469 0-.0469l-.3047-.0937c-.125-.0625-.2032-.1094-.2344-.1406zm13.5469-1.7343c.1406-.1094.2187-.1563.2344-.1407.0156 0 .0234-.0078.0234-.0234.125-.1094.2031-.1797.2344-.2109.0937-.0469.1484-.0782.1641-.0938.0312-.0156.0624-.0312.0937-.0469l.3281-.2343c.0625-.0313.1094-.0704.1406-.1172.0469-.0625.0938-.125.1407-.1875.1719-.0938.2656-.1485.2812-.1641.0625-.0625.1172-.1016.1641-.1172s.0859-.039.1172-.0703c.2031-.1719.3672-.2813.4922-.3281.0625-.0782.1328-.1328.2109-.1641.0781-.0469.1484-.1094.2109-.1875.1094-.0312.1875-.0703.2344-.1172.0781-.0625.1328-.1015.1641-.1172.0469-.0312.0937-.0546.1406-.0703.1875-.0156.2891-.0234.3047-.0234.125.0156.2109.0234.2578.0234.1094.0938.1719.1407.1875.1407.0313 0 .0625.0156.0937.0468.0313.0313.0704.0625.1172.0938.0469.0156.086.039.1172.0703l.211.1641c.1406.0781.2109.125.2109.1406 0 0 .0078.0078.0234.0234.0938.0781.1641.1328.211.1641.0469.0312.0781.0703.0937.1172.1094.0468.1953.1093.2578.1875.0782.0625.1563.1328.2344.2109.1719.1094.2813.1797.3281.2109.0469.0313.086.0625.1172.0938.125.0469.2188.125.2813.2344.0625.1093.1562.1953.2812.2578.125.125.1875.1875.1875.1875.0313.0469.0625.1015.0938.164.0469.0625.0859.1172.1172.1641.125.1406.1953.2266.2109.2578.0156.0156.0391.0391.0703.0703.0781.0938.1485.1875.2109.2813.0626.125.1172.2578.1641.3984.0625.1406.1328.2734.2109.3984-.0312.125-.0234.2579.0235.3985l.0234.2578c0 .1094.0078.1875.0235.2344.0156.0469.0234.0859.0234.1172.0312.0468.0312.0937 0 .1406-.0156.0469-.0234.1015-.0234.1641.0156.1874.0156.3124 0 .375v.1406.1172c.0156.0468.0156.1015 0 .164-.0313.2032-.0547.3438-.0704.4219 0 .0625.0079.1484.0235.2578 0 .1719-.0156.2969-.0469.375-.0156.0625-.0234.1328-.0234.2109.0156.1876.0234.3047.0234.3516.0156.0313.0234.0625.0234.0938l-.0234.5625c.0156.1562.0156.2343 0 .2343v.0235c.0156.125.0156.1953 0 .2109v.0469.1406c.0156.0469.0234.0938.0234.1406v.211c.0157.0156.0235.0312.0235.0469-.0469.1406-.0703.2187-.0703.2343.0156.0157.0234.0391.0234.0703v.1875c.0156.0469.0234.1016.0234.1641 0 .0781-.0078.1562-.0234.2344v.2344.2578c.0469.2343.0703.4296.0703.5859s.0078.3125.0235.4687v.2344c.0156.0156.0234.0391.0234.0703.0156.1719.0234.3438.0234.5157v.4922c0 .0468.0078.0937.0235.1406.0156.0468.0156.0937 0 .1406-.0157.0469-.0313.0859-.0469.1172-.0156.0156-.0391.0547-.0703.1172-.3125.125-.5078.1953-.5859.2109-.0782.0313-.1719.0313-.2813 0-.0781 0-.1797-.0078-.3047-.0234-.1094 0-.2031.0078-.2812.0234-.1719-.0156-.2891-.0234-.3516-.0234-.0469.0156-.1016.0234-.1641.0234h-.3984c-.0781 0-.1563 0-.2344 0-.0625.0156-.125.0156-.1875 0-.1562-.0469-.2422-.0703-.2578-.0703-.0312 0-.0703 0-.1172 0-.0468.0156-.1094.0234-.1875.0234-.1875-.0156-.2969-.0156-.3281 0-.0156.0157-.0391.0157-.0703 0-.0313.0313-.0781.0469-.1406.0469s-.1329 0-.211 0c-.1406.0313-.25.0235-.3281-.0234-.1406-.125-.2422-.211-.3047-.2578 0-.0782-.0078-.1563-.0234-.2344-.0157-.0781-.0235-.1641-.0235-.2578l.0469-.3047.0235-.2578c.0156-.0313.0234-.0703.0234-.1172.0156-.0469.039-.1094.0703-.1875.0156-.0469.0234-.0859.0234-.1172.0157-.0469.0313-.1094.0469-.1875 0-.1875.0078-.3203.0234-.3984.0157-.0938.0235-.1797.0235-.2578-.0156-.2032-.0078-.336.0234-.3985 0-.1719.0078-.2656.0235-.2812-.0157-.1563-.0157-.25 0-.2813.0156-.0312.0234-.0625.0234-.0937 0-.1875 0-.2891 0-.3047.0156-.0156.0234-.0313.0234-.0469-.0312-.1719-.0468-.2656-.0468-.2813.0156-.0156.0234-.0312.0234-.0468 0-.0469-.0078-.0938-.0234-.1406 0-.0626 0-.1329 0-.211v-.3047c-.0157-.1719-.0235-.3047-.0235-.3984-.0312-.1875-.0469-.3125-.0469-.375.0157-.0625.0235-.1172.0235-.1641 0-.2187 0-.3828 0-.4922 0-.125-.0156-.2265-.0469-.3046.0313-.0313.0391-.0782.0234-.1407 0-.0625 0-.1172 0-.164.0157-.1563.0079-.2735-.0234-.3516-.0156-.0937-.0078-.1719.0234-.2344-.0156-.1406-.0312-.2422-.0468-.3047 0-.0625-.0313-.1093-.0938-.1406-.1406-.125-.2109-.2031-.2109-.2344-.2031-.0156-.375.0157-.5156.0938-.1094.1406-.1719.2109-.1875.2109-.1094.1563-.1954.2578-.2578.3047-.0469.0469-.0938.1016-.1407.1641-.125.1562-.2031.25-.2343.2812-.1719.0938-.2969.1719-.375.2344-.0626.0625-.1407.0859-.2344.0703-.0782 0-.1485-.0234-.211-.0703-.0468-.0625-.1093-.1094-.1875-.1406-.0312-.0781-.0703-.1407-.1171-.1875-.0469-.0469-.086-.1094-.1172-.1875-.1094-.1563-.1641-.2344-.1641-.2344.0156 0 .0156-.0078 0-.0234-.0781-.1407-.1641-.2735-.2578-.3985-.0313.0313-.0469.0703-.0469.1172v.1406.2813.5156c0 .0781-.0078.1641-.0234.2578v.2813.5859c.0156.1875.0234.3828.0234.5859.0313.0782.0469.1641.0469.2579v.2578l.0234.2578v.1641c.0157.0312.0235.0624.0235.0937.0156.1719.0156.2734 0 .3047-.0157.0312-.0235.0625-.0235.0937 0 .0938.0157.2188.0469.375-.0156.0625-.0234.1329-.0234.211.0156.0781.0234.1484.0234.2109.0156.0469.0156.0938 0 .1406v.1407c.0156.1562.0312.2656.0469.3281.0156.0469.0234.0859.0234.1172.0313.2812.0469.4609.0469.539.0156.0469.0156.1016 0 .1641 0 .0469.0078.0937.0234.1406.0313.1563.0391.2422.0235.2578v.0703l.0703.3516c-.0156.1563-.0235.2422-.0235.2578.0157.0156.0235.0391.0235.0703-.0469.1719-.0703.2969-.0703.375 0 .0782-.0235.1329-.0703.1641-.1563.0156-.2735.0234-.3516.0234-.0781.0157-.1484.0391-.211.0704-.2656.0312-.4765.0234-.6328-.0235-.1562-.0312-.2422-.0469-.2578-.0469-.0156.0157-.039.0235-.0703.0235-.0625 0-.1094-.0078-.1406-.0235-.0313 0-.0781 0-.1406 0-.1875-.0156-.3047-.0234-.3516-.0234-.0313 0-.0703-.0078-.1172-.0234-.0781 0-.1641 0-.2578 0-.0781-.0157-.1563-.0313-.2344-.0469-.1875-.0469-.3593-.0547-.5156-.0235-.1406.0313-.25.0547-.3281.0704-.1094 0-.1797 0-.211 0-.0156-.0157-.039-.0157-.0703 0-.0469 0-.0937.0078-.1406.0234-.0313 0-.0781-.0078-.1406-.0234-.125 0-.2266.0156-.3047.0468-.1719-.0625-.2656-.0937-.2813-.0937 0 0-.0078-.0156-.0234-.0469-.0469-.0781-.0859-.1328-.1172-.164-.0156-.0313-.0234-.0704-.0234-.1172.0156-.25.0156-.4297 0-.5391 0-.125.0078-.2422.0234-.3516 0-.1875 0-.3047 0-.3515.0156-.0625.0313-.1172.0469-.1641.0312-.2812.0625-.4609.0937-.5391.0157-.2031.0157-.3359 0-.3984-.0156-.0625-.0156-.125 0-.1875 0-.1719.0079-.2656.0235-.2812.0156-.0313.0234-.0625.0234-.0938l-.0234-.3047c0-.0937 0-.1797 0-.2578s-.0156-.1484-.0469-.2109c.0156-.1719.0078-.2891-.0234-.3516-.0157-.0781-.0079-.125.0234-.1406.0156-.1406.0234-.2188.0234-.2344s-.0078-.0391-.0234-.0703c0-.0469 0-.0938 0-.1406.0156-.0469.0234-.086.0234-.1172 0-.0625-.0078-.1094-.0234-.1406-.0156-.0469-.0078-.0938.0234-.1407 0-.1562 0-.2734 0-.3515 0-.0938 0-.1797 0-.2578 0-.0782-.0078-.1485-.0234-.211s-.0234-.1172-.0234-.164c.0156-.2032.0078-.336-.0235-.3985.0156-.0625.0235-.1172.0235-.164 0-.0625.0078-.125.0234-.1875v-.2813-.4922c0-.125-.0078-.2109-.0234-.2578 0-.0625 0-.1172 0-.1641-.0313-.1562-.0469-.2812-.0469-.375 0-.1093 0-.2031 0-.2812.0156-.125.0156-.2031 0-.2344-.0156-.0468 0-.0625.0469-.0468-.0157-.25-.0391-.4219-.0703-.5157-.0157-.0937-.0079-.1797.0234-.2578-.0156-.0312-.0313-.0703-.0469-.1172s-.0234-.1015-.0234-.164c.0156-.1407.0156-.2266 0-.2579-.0157-.0312-.0235-.0624-.0235-.0937 0-.2031 0-.3594 0-.4687-.0156-.1719-.0234-.2813-.0234-.3282.0156-.0625.0234-.125.0234-.1875v-.3515c-.0156-.125-.0234-.2188-.0234-.2813-.0312-.1875-.0469-.3047-.0469-.3515 0-.0469-.0078-.0938-.0234-.1407l-.0235-.3281c-.0156-.1406-.0156-.2969 0-.4688.1407-.1718.2032-.2578.1876-.2578.1874-.0781.3046-.1172.3515-.1172.1875.0157.3047.0157.3516 0 .0469-.0156.1015-.0312.164-.0468.125 0 .2032-.0078.2344-.0235.0313-.0156.0625-.0234.0938-.0234.0468-.0156.0937-.0156.1406 0 .0625.0156.1094.0078.1406-.0234.2188.0156.375.0234.4688.0234.0937 0 .1797-.0156.2578-.0469.0469-.0156.1093-.0156.1875 0 .0781.0156.1406.0469.1875.0938.0781-.0313.1484-.0391.2109-.0235h.1875c.1719.0313.3125.0469.4219.0469.125-.0156.2344-.0078.3281.0234.0781-.0312.1719-.039.2813-.0234.1093.0156.2031 0 .2812-.0469l.2813.0703c.1562.1563.2656.2969.3281.4219.0625.1094.0469.2188-.0469.3281-.0312.1407-.0547.2813-.0703.4219-.0156.125-.0391.2657-.0703.4219-.0156.1875-.0313.2969-.0469.3281 0 .0313-.0078.0625-.0234.0938-.0156.0781-.0235.1484-.0235.2109.0157.0625.0079.1328-.0234.211z" fill="#6a290b"/></svg>