<svg fill="none" height="70" viewBox="0 0 159 70" width="159" xmlns="http://www.w3.org/2000/svg" xmlns:xlink="http://www.w3.org/1999/xlink"><linearGradient id="a"><stop offset="0" stop-color="#cf5c2b"/><stop offset="1" stop-color="#59173e"/></linearGradient><linearGradient id="b" gradientUnits="userSpaceOnUse" x1="121.334" x2="82.934" xlink:href="#a" y1="-103.532" y2="-18.4703"/><linearGradient id="c" gradientUnits="userSpaceOnUse" x1="90.0448" x2="53.6138" xlink:href="#a" y1="-30.9254" y2="127.23"/><linearGradient id="d" gradientUnits="userSpaceOnUse" x1="89.6402" x2="42.973" xlink:href="#a" y1="-25.9295" y2="170.238"/><linearGradient id="e" gradientUnits="userSpaceOnUse" x1="83.2167" x2="80.0716" xlink:href="#a" y1="88.1012" y2="44.2553"/><linearGradient id="f" gradientUnits="userSpaceOnUse" x1="134.032" x2="121.776" xlink:href="#a" y1="16.5635" y2="43.5323"/><linearGradient id="g" gradientUnits="userSpaceOnUse" x1="163.511" x2="59.336" xlink:href="#a" y1="-64.9332" y2="134.037"/><linearGradient id="h" gradientUnits="userSpaceOnUse" x1="120.182" x2="112.452" xlink:href="#a" y1="14.3173" y2="31.3276"/><linearGradient id="i" gradientUnits="userSpaceOnUse" x1="138.777" x2="73.0694" xlink:href="#a" y1="-37.0867" y2="88.4125"/><linearGradient id="j" gradientUnits="userSpaceOnUse" x1="30.3739" x2="22.6434" xlink:href="#a" y1="28.6854" y2="45.6958"/><linearGradient id="k" gradientUnits="userSpaceOnUse" x1="48.9691" x2="-16.7391" xlink:href="#a" y1="-22.7184" y2="102.781"/><path d="m158.125 55.7615c-.082-1.446-.163-2.892-.233-4.338-.07-1.5169-.152-3.048-.222-4.5649-.047-1.0349-.117-2.1406-.14-3.218-.023-.8932.28-2.3675-.117-3.1756-.233-.482-.747-.6237-1.202-.723-.595-.1276-1.19-.2551-1.785-.3827.805-.2269 1.587-.5104 2.357-.8648.175-.0851.35-.1701.467-.3402.105-.156.14-.3686.163-.5529.269-1.9847.094-4.0828.094-6.0959-.012-2.0414-.012-4.097-.024-6.1384-.011-1.9422-.011-3.8985-.023-5.8407 0-.638.222-2.0414-.047-2.6085-.21-.4678-.712-.4395-1.097-.4962-.396-.0567-.793-.0567-1.19-.0283-.595.0425-1.178.1559-1.762.2693.77-.2552 1.564-.3827 2.334-.6096.502-.1417.992-.3402 1.459-.6379.28-.1843.583-.3402.746-.6947.07-.1417.094-.326.129-.4961.07-.3544.081-.723.105-1.0916.046-1.0065.081-2.0131.093-3.0338.012-.51034.012-1.02069 0-1.53105 0-.32605-.105-.63794-.128-.97817-.105-1.37512-.56-2.69353-1.284-3.75677-.723-1.04906-1.715-1.81459-2.812-2.169-.408-.12759-.817-.19847-1.237-.22683-49.335-1.885467-97.6908-1.95635-144.99601.02836-.1867.01417-.38507-.01418-.57177.04253-.1867.07088-.3734.15594-.57177.241-.38507.17011-.77013.34023-1.14354.56706-.72346.42529-1.40025.99235-1.867 1.78623-.26838.46783-.45508.99236-.70012 1.46018-.12836.241-.29172.42529-.39674.68047-.50176 1.21918-1.00351 2.45253-1.703641 3.52994-.676788 1.04905-.8751571 2.72185-.8051446 4.01195.1050186 1.7579.1400256 3.5299.2683816 5.2878.210038 2.7928.011669 5.5856.268382 8.4067.035006.3969.09335.8506.338394 1.1057.175028.1843.408408.2552.630108.3119.72347.1985 1.4586.3828 2.18206.5813-.89849.7088-2.2404.7655-2.718818 1.928-.151694.3827-.175032.808-.198369 1.2333-.081681 1.5027-.198369 2.9913-.28005 4.4798-.035007.6663-.070013 1.3468-.081682 2.013-.023337.638-.058344 1.2618-.116687 1.8997-.116688 1.4885-.431745 3.4165-.058344 4.8767.361731 1.4035 1.80866 1.4602 2.8005 1.8004-.52509.0709-.92183.5954-1.23689 1.12-.15169.2693-.26838.5387-.4084.808-.12836.241-.24505.482-.35007.7372-.210033.5103-.385065 1.0349-.513421 1.5878-.081682.3686-.128357.6521-.140025 1.0348-.011669.3403-.023338.6805-.035007 1.0207-.023337.6805-.035006 1.361-.046675 2.0415-.023337 1.3609-.035006 2.7218-.023337 4.0828.011669 1.3184-.2450442 2.5943.210038 3.8843.455081 1.2901 1.236887 2.3959 2.217067 3.1189.79347.5954 1.69197.9073 2.62547.964 47.57351 2.5376 95.94011 2.5092 145.05411-.0142 1.296-.0709 2.544-.6947 3.501-1.7721.455-.5103.863-.964 1.202-1.6161.42-.7797.805-1.5878 1.167-2.41.887-1.9989 1.995-4.2246 1.855-6.5353z" fill="url(#b)"/><path d="m152.733 63.0065c-49.125 2.5092-97.4806 2.5517-145.05416.0141-2.11204 0-4.08406-1.8429-4.87754-4.1537-.35006-1.0349-.42008-2.1548-.3734-3.2606.01167-.1984.02334-.3827.07001-.5812.07001-.2977.1867-.5529.21004-.8648.01167-.1701.03501-.3119.04667-.482.08169-.8789.10502-1.772.16337-2.651.035-.4961.08168-1.0065.19837-1.4885.12835-.5529.33839-1.0491.70012-1.3893 1.56362-1.4318 4.6325-1.4035 6.90792-1.4602.4434-.0142.8518-.0283 1.2252-.0567.9919-.0709 1.9837-.0992 2.9755-.0992-2.357-.0142-4.7025-.2552-7.02455-.7514-1.09686-.2268-2.19373-.5103-3.27892-.8506-.25672-.0708-.53677-.1843-.78181-.326-.33839-.1843-.63011-.4537-.78181-.8506-.12835-.3402-.11669-.7372-.11669-1.0916.01167-.3544-.035-.723-.01166-1.0774.02333-.7655.10501-1.5027.16336-2.2541.05834-.6096.11669-1.2192.15169-1.8429.08168-1.6303.16337-3.2606.26838-4.8909.03501-.4962.08169-1.0349.36174-1.3751.17503-.2127.39673-.3119.61844-.4111.60678-.2694 1.22522-.4679 1.85533-.5955.32673-.0708.65345-.0708.9335-.1559.3384-.1276.59511-.2126.95684-.2552 3.46566-.4961 6.93126-.9782 10.40856-1.4743.4084-.0567.8285-.1134 1.2485-.1701-5.2276-.7656-10.46684-1.5595-15.69445-2.325-.23337-.0425-.45508-.0709-.68846-.0992-.21003-.0284-.43174-.0709-.57177-.2552-.01166-.0142-.02333-.0284-.035-.0425-.10502-.1701-.11669-.3686-.14003-.5813-.23337-3.4307.03501-6.9748-.12835-10.448-.01167-.1985-.05835-1.1625-.10502-2.2683-.05835-1.6019-.1517-3.43068-.1867-3.43068-.22171-3.81347 2.18206-7.10242 5.33262-7.23001 47.29346-1.998879 95.64916-1.927997 144.94916 0 3.162.12759 5.59 3.43071 5.345 7.27254-.082 1.30425.128 2.56595-.14 3.88435-.059.3119-.141.6238-.339.8364-.175.1843-.408.2552-.63.3119-.595.1701-1.19.3544-1.785.5245-.794.2269-1.576.4395-2.381.5529-4.761.6096-9.498 1.2334-14.247 1.8571-.129.0142-.257.0284-.385.0426-.152.0141-.304.0425-.455.0567.385-.0142.758-.0142 1.131-.0142 5.951-.1276 11.914-.241 17.877-.3686.163 0 .35 0 .478.1276.152.1418.187.3828.21.6096.035.3119.035.6096.035.8931-.011.9215-.14 1.8004-.14 2.7361 0 .8222.164 1.6303.164 2.4808-.012 1.2192-.047 2.4384-.082 3.6718-.093 2.7785-.257 5.5997-.502 8.3924-.035.4112-.081.8364-.303 1.1342-.175.2268-.432.3544-.677.4536-.152.0709-.303.1276-.467.1701-3.5 1.2192-7.328.2552-10.922 1.0065-.233.0426-.478.0993-.7.1702-.081.0141-.163.0425-.233.0708.292.0284.583.0426.875.0851 3.932.3402 7.853.8222 11.762 1.4318.455.0709.969.1701 1.237.6238.21.3402.21.8081.21 1.2334v1.4034c0 1.4177 0 2.8353.058 4.253.07 1.8713.164 3.7426.269 5.628.047.9215.093 1.843.152 2.7503.21 3.7993-2.183 7.074-5.31 7.2442z" fill="url(#c)"/><path d="m157.368 23.2968c-.012 1.2192-.047 2.4384-.082 3.6717-2.018.2268-3.99.4111-5.928.6805-.455.0567-.898.1134-1.353.1843-1.669.2126-3.337.4111-5.006.5812-.828.0851-1.669.1701-2.509.2552-.537.0567-1.015.3119-1.528.3828-.724.0992-1.517-.1276-2.252-.1843-.817-.0567-1.634-.0851-2.451-.0709-1.634.0283-3.279.1701-4.901.3969-3.267.4537-6.488 1.205-9.732 1.8572-5.192 1.049-10.408 1.8571-15.659 2.3816 2.859.3402 5.694.9073 8.483 1.687-1.05.0992-2.1.1985-3.15.2694-3.338.2551-6.675.3827-10.012.4536-3.3374.0709-6.6864.0709-10.0237.0567-3.3372 0-6.6862-.0142-10.0234.0142-3.3373.0425-6.6746.1276-10.0118.3119-1.6687.0992-3.3373.2126-4.9943.3686-.42.0425-.8284.085-1.2485.1275-.5018.0568-.9919.2269-1.5053.2978-3.979.567-7.9581 1.2758-11.8905 2.2115-6.1144 1.4602-12.2638 2.892-18.4833 3.4023-1.1202.0851-2.252.1702-3.3723.2552-5.3559 1.3043-11.1436 1.5736-16.3946 2.3533-1.7853.2694-3.60562.4111-5.42594.4962-1.09687-.2268-2.19373-.5104-3.27893-.8506-.25671-.0709-.53676-.1843-.7818-.3261-.3384-.1843-.63012-.4536-.78181-.8505-.12836-.3403-.11669-.7372-.11669-1.0916.01167-.3544-.035-.723-.01167-1.0775.02334-.7655.10502-1.5027.16337-2.254 4.80753-.482 9.74337-2.169 14.36427-2.9912 5.9394-1.0349 11.9955-1.6445 17.9815-2.0556 6.7796-.4537 13.5475.5245 20.3037.5245 6.2661 0 12.5089-.6663 18.74-1.2759 12.1472-1.1908 24.2711-2.4242 36.3947-3.7001-2.637-.0567-5.274-.1417-7.911-.2551-3.3608-.1418-6.7214-.3261-10.082-.5387-.7818-.0426-1.587-.1702-2.3571-.0709-.8052.1134-1.622.1417-2.4271.1276-1.5986-.0284-3.1973-.2694-4.7492-.7372-.9102-.2694-1.8203-.6238-2.7422-.8222-1.5636-.3261-3.1622-.2269-4.7608-.2552-5.9394-.0993-11.7855-1.9989-17.7249-1.928-1.5636.0142-3.1155.1701-4.6675.3402-1.6453.1843-3.3022.3686-4.9592.4253-.7351.0284-1.4936.0851-2.2054-.1134-.5484-.1559-1.1786-.0851-1.7387-.0992-1.0035-.0284-2.007-.0567-3.0105-.0851-2.007-.0567-4.014-.0851-6.0327-.0992-7.6197-.0426-15.2161.4678-22.8358.3969-3.24394-.0283-6.55786-.1134-9.76677-.6805-.01167-.0141-.02334-.0283-.03501-.0425-.10502-.1701-.11669-.3686-.14003-.5812-.23337-3.4307.03501-6.9749-.12835-10.4481-.01167-.1985-.05835-1.1625-.10502-2.2682 3.8857-.4112 7.79478-.5104 11.68048-.8506 7.608-.6805 15.216-.9782 22.8591-.9357 15.1344.0851 30.2337 1.2617 45.3214 2.651 15.0994 1.3893 30.1643 3.1047 45.2633 4.4089 7.631.6521 15.274 1.0633 22.917 1.0633 2.241 0 4.505-.1702 6.768-.3686-.011.9214-.14 1.8004-.14 2.736.035.8931.199 1.7012.187 2.5376zm.245 24.0859c-.058-1.4177-.058-2.8353-.058-4.253-4.82-.6379-9.65-1.29-14.493-1.7012-8.308-.6946-16.663-.5812-24.983-.1701-1.727.0851-3.43.1418-5.146.397-.828.1275-1.657.2551-2.485.3686-3.326.482-6.651.8647-9.989 1.1766-1.2949.1134-2.6018.2268-3.9087.3261 3.3723-.0284 6.7447-.0567 10.1167-.0851s6.745-.0567 10.117-.0851c1.68-.0141 3.372-.0283 5.053-.0425.84-.0142 1.68-.0142 2.532-.0283.35 0 .723.0283 1.073-.0709.21-.0567.42-.156.63-.1985.759-.1418 1.599.0425 2.357.0992.841.0567 1.669.1135 2.509.1702 1.669.1275 3.349.2693 5.018.4111 2.637.241 5.262.5103 7.888.7939 2.87.3118 5.718.723 8.576 1.1483-6.487.7513-12.964 1.531-19.463 1.9705-14.96 1.0065-29.919 2.2682-44.9016 1.8996-14.7726-.3402-29.5103-1.3751-44.2946-1.3042-7.7947.0284-15.5778.1843-23.3492.4678-5.741.1985-11.55207.1701-17.28144.879-.11668.4678-.16336.9923-.19837 1.4885-.05834.8789-.08168 1.7721-.16336 2.651 6.38282.3119 12.83567-.2127 19.20677-.2268 7.7831-.0142 15.5662.0709 23.3492.2977 14.7493.4253 29.487 1.4176 44.2246 1.7295 15.006.3261 29.977-.9782 44.948-1.8996 7.725-.4679 15.496-.482 23.221-.5813h.163c-.105-1.8854-.198-3.7426-.268-5.628z" fill="url(#d)"/><g fill="#eb924d"><path d="m3.6988 42.5207c-.01167.7089-.01167 1.4319.17503 2.0982-.3384-.1843-.63012-.4537-.78181-.8506-.12836-.3403-.11669-.7372-.11669-1.0916.01167-.3544-.035-.723-.01167-1.0774.04668-1.3752.25672-2.7219.31506-4.097.08168-1.6303.16336-3.2606.26838-4.8909.03501-.4962.08168-1.0349.36173-1.3751.17503-.2127.39674-.3119.61845-.4112.60677-.2693 1.22522-.4678 1.85533-.5954.29172-.085.61845-.085.8985-.1701.33839-.1276.5951-.2126.95683-.2552 3.46566-.4961 6.93126-.9781 10.40856-1.4743-3.7224.9214-7.4447 1.8146-11.17869 2.736-.72347.1702-1.69197.1702-2.29875.7514-.12836.1134-.23338.2552-.33839.3969-.09335.1276-.17504.2694-.28005.397-.19837.2126-.26839.5529-.36174.8506-.24504.8647-.38507 1.772-.42007 2.6793-.01167.3403-.01167.6947-.04668 1.0349-.01167.0851-.02333.1701-.035.2552-.01167.0992-.05835.1701-.08169.2693-.1867.6947-.16336 1.4602-.08168 2.169.03501.2552.10502.5104.1517.7656.11669.6096.035 1.2617.02334 1.8854z"/><path d="m138.079 16.7759c-.21-.0141-.42-.0283-.63-.0425h1.004c-.117 0-.245.0284-.374.0425z"/><path d="m141.508 37.7998c.968.1134 1.937.2268 2.905.3119-.233.0425-.478.0992-.7.1701-.747-.1701-1.493-.3402-2.205-.482z"/><path d="m155.767 36.0553c.152-.7371.117-1.5027.058-2.254-.081-1.3893-.175-2.7928-.256-4.1821-.012-.2693-.047-.5671-.222-.7372-.14-.1417-.338-.1417-.513-.1276-1.447.0567-2.883.1135-4.306.1702 1.552-.1702 3.092-.6663 4.492-1.4886.409-.241.829-.5387.98-1.0349.082-.2551.082-.5387.082-.8222-.023-2.1973-.338-4.6499-.56-6.8331-.677-.7797-1.692-.8789-2.626-.9498-3.757-.2835-7.526-.5529-11.272-.8364-.898-.0709-1.902-.1134-2.858-.1701 5.951-.1276 11.913-.241 17.876-.3686.164 0 .35 0 .479.1276.151.1418.186.3828.21.6096.128 1.2475-.117 2.3958-.117 3.6292 0 .8222.163 1.6303.163 2.4808-.058 3.9411-.233 8.0523-.595 12.0642-.035.4111-.081.8364-.303 1.1341-.175.2269-.432.3545-.677.4537-.152.0709-.303.1276-.467.1701.199-.2835.35-.6521.432-1.0349z"/><path d="m2.64961 14.3953c-.02334-.4678-.23338-5.68478-.30339-5.68478-.22171-3.81347 2.18206-7.10242 5.33262-7.23001 47.29346-1.998879 95.64916-1.927997 144.94916 0 3.162.12759 5.59 3.43071 5.345 7.27254-.082 1.30425.128 2.56595-.141 3.88435-.058.3119-.14.6238-.338.8364-.175.1843-.408.2552-.63.3119-.595.1701-1.179.3686-1.774.5245.514-.567 1.109-1.2333 1.342-2.0556.164-.5528.035-1.0348-.116-1.5594-.234-.82221-.28-1.60191-.304-2.46668-.035-1.06324.117-2.58012-.572-3.43071-.525-.63794-1.213-1.19082-1.867-1.58776-1.622-.96401-3.5-1.17665-5.286-1.26171-.093 0-.175-.01418-.268-.01418-3.291-.12759-6.593-.14176-9.883.26936-.397.04252-.747.18429-1.132.26935-.479.11341-1.05-.02835-1.541-.05671-1.12-.07088-2.228-.12759-3.348-.18429-2.229-.09924-4.47-.17012-6.71-.21265-1.68-.02835-3.349-.02835-5.029-.02835-.525 0-1.062 0-1.587 0-1.015 0-2.031 0-3.057 0-1.412 0-2.824 0-4.236-.01418-.07 0-.14 0-.199 0-2.24 0-4.469-.01418-6.709-.01418-1.12 0-2.24 0-3.349-.01417-.513 0-1.085.08506-1.587-.02835-.5134-.11342-.9218-.49618-1.4585-.55289-.4901-.0567-.9919.04253-1.4703.09924-1.2252.11341-2.4388.25517-3.6523.42529-.5485.07088-1.1552.1843-1.517.68047-.1283.17012-.2217.38277-.3734.52453-.3384.29771-.8168.09924-1.2135-.07088-.7818-.32606-1.6103-.51035-2.4505-.55288-.7584-.04253-1.5052.12759-2.2637.07088-.4784-.02835-.9335-.17012-1.4003-.28353-1.8436-.43947-3.769-.46782-5.6243-.63794-1.3769-.12759-2.7655-.21265-4.1541-.26935-4.4691-.19847-8.9499-.08506-13.4074.14176-2.2404.11341-4.4691.25518-6.7095.4253-1.0269.07088-2.1588.34023-3.1739.17011-.2918-.04253-.5718-.18429-.8635-.25517-.3034-.07089-.6068-.05671-.9219-.05671-1.2368.01418-2.4854.02835-3.7223.02835-1.4469.01418-2.9055 0-4.3641 0-.4901 0-.9685.11342-1.4469.11342-.4435 0-.8752-.11342-1.3186-.11342-.9218.01418-1.832.22683-2.6838.65212-.3268.17012-.6651.35441-1.0269.34024-.6534-.04253-1.0968-.79389-1.692-1.13412-1.4002-.808061-2.8471.73718-4.2824.11341-.7118-.31188-1.4352-.26935-2.1937-.26935-.9569-.01418-1.9137-.01418-2.8705-.01418-3.2439.01418-6.4879.15594-9.7084.55288-1.6103.19847-3.209.46783-4.80757.80806-.77014.17012-1.55195.43947-2.33376.55289-.2217.02835-.39674.02835-.60677.21264-.95684.80806-3.58231 5.33036-1.70364 6.91814.11668.0992.24504.1843.38507.2552.19837.0992.4084.1417.61844.2268.21004.0992.47842.0283.70013.0283.53676 0 1.07352 0 1.59862-.0141.57177 0 1.14354-.0142 1.6803.1843-1.21355.3118-2.4271.6095-3.64065.9073-.39674.0992-.79348.1984-1.16688.3969-.05835.0425-.12836.0567-.19837.0851-.25671.1134-.44341.4961-.53676.7938-.24505.7797-.09335 1.6303-.19837 2.4384-.1867 1.446.04667 3.0054.16336 4.4372.15169 1.843.33839 3.7001.5601 5.543-.23337-.0425-.45508-.0708-.68846-.0992-.2217-.0284-.45508-.0709-.60677-.2835-.10502-.1701-.11669-.3686-.14003-.5813-.23337-3.459.03501-7.0031-.11668-10.4622z"/><path d="m158.034 55.7612c-.163-2.7928-.303-5.5856-.42-8.3783-.07-1.8855-.059-3.771-.059-5.6565 0-.4253-.011-.8789-.21-1.2333-.268-.4537-.781-.5529-1.236-.6238-3.91-.6096-7.83-1.0916-11.763-1.4318 3.501.8222 7.118 1.8713 10.444 2.9912.653.2269.7.8364.968 1.5878.257.7514.281 1.6019.304 2.41.012.3402.012.6805-.082 1.0065-.198.723-.828 1.12-1.388 1.4602.42.1418.84.2835 1.271.4395.106.0425.211.0709.281.1701.081.0992.116.2694.128.4253.163 1.3468.035 2.7644.047 4.1254.011.8789.011 1.7578.023 2.6368.012.241.082.4678.128.723.07.5103.024 1.0349-.105 1.531-.256 1.0207-.828 1.928-1.563 2.5093-1.272 1.0065-2.859 1.2192-4.376 1.3467-2.532.2269-5.076.1985-7.597.4962-.84.0851-1.668.1843-2.508.2694-1.669.1701-3.349.3119-5.018.4536-3.162.2552-6.336.4537-9.498.5813-7.492.3118-14.995.2835-22.498.2268-.898-.0284-1.808-.0284-2.707-.0284-.7349 0-1.435.1134-2.1585.0284-1.762-.2127-3.5123.1701-5.2626.4111-2.0421.2694-4.2358.2977-5.9978-.9782-.5601-.4111-1.1085-.9498-1.762-.9782-.5367-.0141-1.0385.3545-1.5286.638-.9335.5387-1.9603.8364-2.9872.9923-.0233 0-.035 0-.0583.0142-2.1821.3403-4.2824.156-6.4645-.0283-1.5986-.1276-3.2789.1984-4.8075-.4962-1.1786-.5245-2.4155-1.2759-3.629-.879-.4318.1418-.8168.4253-1.2252.6238-.7935.3828-1.6687.4537-2.5205.5104-.5368.0283-1.0735.0567-1.6103.085-2.2287.0851-4.4691.0709-6.6979-.0425-.9335-.0567-1.8903-.0425-2.8005-.3686-.6301-.2268-1.2485-.0851-1.902-.0283-2.7071.2126-5.426.2693-8.1448.1559-1.1085-.0425-2.217-.1134-3.3139-.2127-.5368-.0425-1.0969-.1701-1.6336-.1701-.3734 0-.7118.1418-1.0852.1418-2.2521-.0142-4.4925-.0567-6.7446-.0851-3.839-.0425-7.6897-.0992-11.5287-.1417-2.6255.4394-4.8309-.1134-7.43302-.6947-2.13538-.482-4.45746-1.531-5.34429-3.941-.3734-1.0066-.43175-2.1265-.39674-3.2039.01167-.3261.03501-.638 0-.964-.03501-.2977-.11669-.5671-.15169-.8648-.11669-.9782.12835-2.1123.32672-3.0621.10502-.482.23338-.9924.5251-1.361.25671-.3402.61844-.5387.98017-.6804.95684-.3686 1.97202-.4537 2.97554-.5246 1.44693-.0992 2.89381-.2126 4.34081-.3118.2917-.0142.5834-.0426.8751-.0567-.035-.1702-.0583-.3403-.0583-.5246l.0117-.0709c-.8869-.0283-1.7737-.0283-2.6605-.0425-2.28711.0567-5.34432.0425-6.90794 1.4602-.70012.6379-.82848 1.8146-.89849 2.8636-.07001 1.0349-.09335 2.0982-.21004 3.133-.03501.3119-.14002.5671-.21004.8648-.04667.1985-.05834.3828-.07001.5812-.04667 1.12.02334 2.2399.3734 3.2606.78181 2.325 2.75383 4.1537 4.87755 4.1537 47.57357 2.5376 95.92917 2.5093 145.05417-.0141 3.127-.156 5.52-3.4307 5.298-7.23z"/><path d="m11.1211 35.1626c0 .7655.0233 1.5452.0583 2.3108.0117.3827.035.7655.0584 1.1483.0117.2835 0 .5954.0467.8647.0466.2268.0933.4253.0933.6663.0233.6521.0467 1.3184.0817 1.9705.0467 1.3185.105 2.6227.1517 3.9411.07 1.687.1283 3.3598.1984 5.0468.035.9357.1633 1.7437.5717 2.5376.0817.156.1517.3119.2451.4537.1517.241.3384.4111.5717.5387.8519.4536 1.8204.6946 2.7422.8648 1.4236.2693 2.8588.3402 4.2941.3969 18.9151.8081 37.8535 1.6303 56.7802 1.0632 2.3104-.0709 4.7025-.1417 6.8496.9073-.9802-2.1265-3.349-2.4383-5.356-2.495-21.0271-.5813-42.0659-1.2334-63.023-3.3599-.5718-.0567-1.2019-.1417-1.6103-.6521-.2917-.3544-.4084-.8648-.5017-1.3468-1.0736-5.2594-1.2836-10.7741-.6301-16.1328.035-.326.1166-.6805.105-1.0065-.0117-.3403-.0467-.6805-.0467-1.0349-.0117-.7088.0117-1.4318.07-2.1407-.0817-.1701-.28-.1701-.4317-.1417-.3968.0567-.7935.0992-1.2019.1559.0233.4678 0 .9073-.0467 1.3751-.0117.156.0117.2694.0233.4253.0234.3119-.0233.638-.035.9357-.0233.4536-.035.9215-.0466 1.3751 0 .4395-.0117.8931-.0117 1.3326z"/><path d="m84.6933 58.1289c.2334-.723 1.0152-.8506 1.657-.8648 5.0992-.1276 10.1868-.241 15.2857-.3686 4.808-.1134 9.627-.2268 14.435-.3544 1.552-.0425 3.209-.0425 4.492 1.0207-.023-.2268-.058-.4536-.082-.6805.549-.1134 1.074-.2551 1.634-.1984.303.0283.618-.0993.922-.1418.712-.1134 1.435-.1559 2.147-.1985 3.956-.2126 7.923-.2835 11.89-.5245 1.004-.0567 1.996-.1418 2.999-.2268.992-.0851 1.996-.156 2.976-.3261.14-.0283.268-.085.408-.0992.187-.0142.374-.0284.56-.0425 1.004-.0993 2.019-.3261 2.952-.8506 1.167-.6521 2.194-1.8146 2.568-3.3031.163-.6663.198-1.361.233-2.0556.117-3.1756.082-6.3653-.117-9.5266-.128-.156-.455.1276-.501.3544-.479 2.3107-.841 4.6499-1.074 7.0032-.14 1.4034-.257 2.892-.968 3.9977-.782 1.205-2.089 1.687-3.326 2.0273-6.57 1.8429-13.361 2.0272-20.094 2.1973-6.277.156-12.555.3261-18.821.482-5.228-.2126-10.584.7939-15.7766.1134-1.4586-.1984-2.9289-.5103-4.3875-.2551-.105.0141-.2217.0425-.3033.1417-.0584.0709-.07.1701-.0934.2694-.175.7372.105 1.6728.3851 2.41z"/></g><path d="m149.558 44.6755c-.012-2.6936-.035-5.3871-.058-8.0948-.012-2.5943-.035-5.1744-.047-7.7687-.023-3.1189.082-6.266-.222-9.3565-.058-.6096-.186-1.2334-.175-1.8429.012-.9215-.14-1.6303-.478-2.5093-.432-1.1908-1.05-2.2824-1.75-3.2748-1.517-2.18313-3.699-2.28237-5.975-2.39578-2.392-.12759-4.772-.01417-7.153-.02835-2.66-.01418-5.332-.02835-7.993-.05671-3.244-.02835-6.476-.07088-9.72-.11341s-6.488-.08506-9.732-.12759c-1.622-.01417-3.244-.04253-4.866-.0567-.338 0-.688-.04253-1.015.0567-.21.05671-.3965.15594-.6065.1843-.7235.08506-1.552-.14177-2.2638-.31189.0934-2.02723.3851-4.04029.8752-5.99665-.6651 2.01306-1.4236 3.98359-2.2871 5.88324-.0583.12759-.1167.25518-.2217.31189-.105.0567-.2334.04252-.3384.02835-.245-.04253-.5017-.07088-.7468-.14177-.5601-.17011-1.1552-.09923-1.7386-.09923-2.5088-.02835-5.0059-.04253-7.5147-.05671-4.9242-.02835-9.8485-.01417-14.761.02836-5.2743.04253-10.5486-.04253-15.8345-.07089-1.4353-.01417-2.8706-.02835-4.2941-.02835-.6185 0-1.2136-.02835-1.8087.12759-.6184.17012-1.3769.02835-2.007-.01418-.3501-.02835-.7235-.07088-1.0035-.34023-.2801-.25518-.4084-.6663-.5368-1.06324-.2567-.82224-.5134-1.64447-.7701-2.46671.035.964.1166 1.91383.245 2.86365.035.31188.0583.70883-.175.86477-.07.04253-.1634.0567-.2451.07088-.28.02835-.5717.11341-.8518.04253-.5368-.12759-1.0735-.08506-1.622-.08506-5.9977 0-11.9721-.02835-17.9465-.05671-3.349-.01417-11.4004-2.08394-12.4973 3.4449-.1517.7655-.14 1.5594-.1867 2.3533-.1167 2.3816-.0466 4.7775-.0116 7.1733.0933 7.8963.28 15.7926.5367 23.6747.035 1.205.0817 2.4242.2101 3.6292.105.9498.0466 2.1974.6651 2.9345.21.2552.3617.4962.5484.7939.3734.5812.8868 1.0207 1.4469 1.3326 1.2019.6805 2.5905.8648 3.9208.9357 4.3407.2551 8.6698.4678 12.999.6237 4.3641.1701 8.7165.3261 13.0806.4253 4.3642.0992 8.7166.1701 13.0807.1985 3.9557.0283 7.9115.0425 11.8672.0567h6.0561c2.182 0 4.8192-.8222 6.8262.4395 1.0035.6237 1.8437 1.6303 2.3221 2.8778-.0817-1.0065-.0584-2.0273.07-3.0338 1.5869-.2693 3.1739-.4395 4.7725-.4678.6885-.0142 1.3536.1134 2.042.0992.8052 0 1.622-.0141 2.4271-.0141 3.244-.0284 6.4876-.0568 9.7316-.0993 2.007-.0283 4.014-.0567 6.033-.085 4.364-.0567 8.717-.1843 13.081-.3828.781-.0425 1.575-.0709 2.357-.1134 6.009-.2835 12.019-.7088 18.016-1.2901.514-.0567 1.004-.1134 1.482-.2268.77-.1843 1.494-.5104 2.124-1.1625.77-.7939 1.517-1.6444 2.03-2.6935.829-1.687.619-3.615.607-5.5288zm-3.255 3.6575c-.316.6379-.899 1.2759-1.377 1.7579-.117.1134-.292.2552-.747.3544-.339.0851-.735.1276-1.132.1701-5.753.5529-11.774.9782-17.888 1.2901-.782.0425-1.552.0709-2.334.0992-4.574.1985-8.822.3261-12.999.3828-12.4039.1843-24.6212.2835-36.3366.2835-5.2509 0-10.5019-.0142-15.7645-.0567-4.3174-.0425-8.7166-.0992-13.034-.1985-4.3175-.0992-8.7049-.241-13.034-.4111s-8.6933-.3828-12.964-.6379c-.9452-.0426-2.0187-.156-2.7772-.5813-.1867-.1134-.28-.1984-.3034-.2268-.14-.2268-.315-.4962-.5134-.7797-.0117-.1418-.0233-.2977-.035-.4253-.0233-.2552-.035-.4962-.0584-.7372-.105-1.0207-.14-2.0697-.1867-3.3314-.2683-7.7971-.455-15.7359-.5367-23.5755l-.0117-1.3326c-.035-1.9422-.0583-3.771.035-5.5714.0117-.1985.0117-.4111.0234-.6379.0116-.4395.0233-.8364.07-1.0633.105-.482 1.2252-.9781 3.5473-.9781 1.1435 0 2.3687.1134 3.4423.2126.9218.0992 1.797.1701 2.5438.1701 5.3326.0284 10.6769.0425 16.0212.0425h2.9988c3.9908 0 7.9815.0142 11.9839.0426l3.8507.0283c2.8121.0284 5.636.0426 8.4481.0426 1.1786 0 2.3688 0 3.5707-.0142 2.9755-.0284 5.9394-.0425 8.9149-.0425 10.0702 0 20.3385.1417 30.2575.2693 7.783.0992 15.846.1985 23.734.241l.385.0142c.7 0 1.377-.0142 2.077-.0142.677-.0142 1.354-.0142 2.019-.0142.98 0 1.797.0142 2.532.0567h.082c2.135.1276 3.127.2552 3.71 1.0916.595.8506 1.004 1.6303 1.284 2.3817.21.5812.21.7372.21.964-.012.7372.081 1.3751.14 1.8854.011.1418.035.3119.058.4537.21 2.1548.199 4.3664.199 6.7196-.012.7372-.012 1.4744 0 2.2116l.105 15.8209c.011.3545.011.6805.023 1.0066.012 1.1199.035 2.1123-.233 2.6368z" fill="url(#e)"/><g fill="#eb924d"><path d="m11.1785 30.1587 3.5706-.8648-.1517-.4111-3.699.5387z"/><path d="m145.557 17.2157 4.143.4253v-1.1342l-4.481.241z"/><path d="m145.85 38.8915 4.586 1.0633-.094-.8932-4.924-.5245z"/><path d="m132.44 34.1279c-3.489-2.3674-9.288-1.6444-12.054 1.5453-1.739 2.013-1.832 5.7698 0 7.7687 4.026 4.4089 11.097 2.5234 13.653-2.9204.046-.0567.093-.1134.151-.1559 1.949-2.1407.56-5.699-1.75-6.2377z"/></g><path d="m133.268 32.044c-3.489-2.3675-9.288-1.6445-12.054 1.5452-1.738 2.0131-1.832 5.7698 0 7.7687 4.026 4.4089 11.097 2.5234 13.653-2.9204.046-.0567.093-.1134.151-.1559 1.949-2.1406.56-5.6989-1.75-6.2376z" fill="url(#f)"/><path d="m132.44 33.3906c-3.489-2.3674-9.288-1.6444-12.054 1.5453-1.739 2.013-1.832 5.7698 0 7.7687 4.026 4.4089 11.097 2.5234 13.653-2.9204.046-.0567.093-.1134.151-.1559 1.949-2.1407.56-5.699-1.75-6.2377z" fill="url(#g)"/><path d="m119.175 25.3954c-2.205-1.5027-5.857-1.0349-7.596.9781-1.097 1.2618-1.155 3.6434 0 4.9051 2.544 2.7786 7.001 1.5878 8.612-1.8429.035-.0284.058-.0709.093-.0993 1.225-1.3609.35-3.6008-1.109-3.941z" fill="#eb924d"/><path d="m119.699 24.0907c-2.206-1.5027-5.858-1.0349-7.597.9782-1.096 1.2617-1.155 3.6433 0 4.905 2.544 2.7786 7.002 1.5878 8.612-1.8429.035-.0284.058-.0709.093-.0993 1.226-1.3751.35-3.615-1.108-3.941z" fill="url(#h)"/><path d="m119.175 24.9266c-2.205-1.5027-5.857-1.0349-7.596.9782-1.097 1.2759-1.155 3.6434 0 4.9051 2.544 2.7785 7.001 1.5877 8.612-1.843.035-.0283.058-.0709.093-.0992 1.225-1.361.35-3.6008-1.109-3.9411z" fill="url(#i)"/><path d="m29.3707 39.7694c-2.2054-1.5027-5.8577-1.0349-7.5963.9782-1.0969 1.2617-1.1553 3.6433 0 4.905 2.5437 2.7786 7.0012 1.5878 8.6115-1.8429.035-.0284.0584-.0709.0934-.0992 1.2252-1.361.35-3.6009-1.1086-3.9411z" fill="#eb924d"/><path d="m29.8942 38.451c-2.2054-1.5027-5.8578-1.0349-7.5964.9782-1.0969 1.2759-1.1552 3.6434 0 4.9051 2.5438 2.7786 7.0013 1.5877 8.6115-1.843.035-.0283.0584-.0709.0934-.0992 1.2252-1.3609.3501-3.6008-1.1085-3.9411z" fill="url(#j)"/><path d="m29.3707 39.3016c-2.2054-1.5027-5.8577-1.0349-7.5963.9782-1.0969 1.2759-1.1553 3.6434 0 4.9051 2.5437 2.7786 7.0012 1.5877 8.6115-1.843.035-.0283.0584-.0709.0934-.0992 1.2252-1.361.35-3.6008-1.1086-3.9411z" fill="url(#k)"/><path d="m12.25 17c0-3.3137 2.6863-6 6-6h118.758c5.523 0 10 4.4772 10 10v23c0 5.5228-4.477 10-10 10h-116.758c-4.4183 0-8-3.5817-8-8z" fill="#eb924d" opacity=".9"/><path d="m75.8311 27.7324c.0572.0143.1575.0502.3007.1074.1289.043.222.1146.2793.2149.0716.0286.1361.0644.1934.1074.0573.0287.1146.0716.1719.1289.1432.1003.2076.1576.1933.1719v.043c.1289.1002.1934.1575.1934.1718.0286.0287.0644.0645.1074.1075.043.0429.0788.0787.1074.1074.0716.1002.1146.1647.1289.1933.0287.0287.0573.0573.086.086.0716.1289.1146.2077.1289.2363.0286.0143.0501.0358.0644.0645.1433.1718.2292.3007.2578.3867.043.0716.086.1504.129.2363.0572.1289.0931.2005.1074.2148.0143 0 .0286.0072.0429.0215.043.1289.0788.2149.1075.2578.0429.043.0787.1003.1074.1719.0716.1146.1361.2435.1933.3867.0717.1433.1361.3008.1934.4727.1003.2721.179.5371.2363.7949 0 .1003.0072.1791.0215.2363.0716.1862.1074.3151.1074.3868 0 .0716.0072.1504.0215.2363.0287.0716.043.1432.043.2148s.0072.1433.0215.2149c.0286.1002.0573.2435.0859.4297 0 .1145-.0071.2291-.0215.3437v.3223c-.0143.1146-.0215.2148-.0215.3008.0144.0859.0072.179-.0214.2793-.0287.1289-.043.222-.043.2793 0 .0572-.0072.1217-.0215.1933-.0286.1146-.043.1934-.043.2363-.0286.0717-.0573.1361-.0859.1934-.0143.043-.0358.1003-.0645.1719-.0286.1146-.0501.1933-.0644.2363-.0287.1146-.0716.2077-.1289.2793-.043.0716-.1003.1504-.1719.2363-.043.086-.0931.1576-.1504.2149-.0429.0573-.0859.1146-.1289.1719-.1002.1575-.179.2649-.2363.3222-.043.0573-.0859.1218-.1289.1934-.1146.1432-.1791.222-.1934.2363-.0143 0-.0286.0143-.0429.043-.0573.0716-.1218.1504-.1934.2363-.0716.0716-.1504.1361-.2363.1934-.0716.1432-.1361.2291-.1934.2578-.043.0286-.1003.0644-.1719.1074-.0573.043-.1074.0931-.1504.1504-.2291.0859-.3652.1432-.4082.1719l-.2148.1074c-.2148.0859-.3509.1504-.4082.1933-.0573.0287-.1218.0645-.1934.1075-.0573.0286-.1575.0716-.3007.1289-.086.0429-.1504.0644-.1934.0644-.0287 0-.0573.0072-.0859.0215-.1146.043-.1862.0645-.2149.0645-.0143 0-.0358.0071-.0644.0214-.1576.043-.265.0645-.3223.0645s-.1146.0072-.1719.0215c-.1862.0573-.3294.0859-.4297.0859-.1718-.0143-.2864-.0143-.3437 0-.043.0143-.1003.0287-.1719.043-.2148.043-.4297.043-.6445 0-.1576.0286-.2865.043-.3867.043-.043 0-.086 0-.129 0-.0429.0143-.0787.0214-.1074.0214-.0573 0-.1074-.0143-.1504-.0429-.0286-.0144-.0716-.0215-.1289-.0215-.0573-.0143-.1647-.0215-.3222-.0215-.086-.0143-.1719-.0286-.2578-.043-.086-.0143-.1719-.0286-.2579-.0429-.0429-.0144-.0931-.0215-.1504-.0215-.0429 0-.0859-.0072-.1289-.0215-.1002-.0286-.179-.043-.2363-.043-.1862-.0716-.2721-.1074-.2578-.1074-.2005-.0573-.3079-.0931-.3223-.1074-.1718-.0143-.2864-.0358-.3437-.0645-.1576-.0573-.2507-.0859-.2793-.0859l-.2363-.1074c-.1719-.086-.2865-.1289-.3438-.1289-.1432-.043-.2363-.086-.2793-.1289-.1575-.0573-.2506-.0931-.2793-.1075-.0286-.0143-.0573-.0286-.0859-.0429-.1432-.1433-.2435-.222-.3008-.2364-.0573-.0286-.1003-.0716-.1289-.1289-.1576-.0716-.2435-.1145-.2578-.1289 0-.0143-.0072-.0286-.0215-.0429-.0859-.0573-.1576-.1361-.2148-.2364-.1146-.0859-.2006-.179-.2579-.2793-.0859-.0716-.1432-.136-.1718-.1933-.1003-.1433-.1504-.222-.1504-.2364 0-.0143-.0072-.0286-.0215-.0429-.1003-.1719-.1647-.265-.1934-.2793-.0143-.0287-.0286-.0645-.0429-.1074-.043-.043-.0931-.086-.1504-.1289-.043-.0573-.0645-.129-.0645-.2149-.1146-.0859-.1862-.1647-.2148-.2363-.043-.1003-.0645-.1647-.0645-.1934.0143-.0286.0215-.0573.0215-.0859-.1003-.1719-.1719-.3008-.2148-.3867-.0573-.1862-.0931-.3008-.1075-.3438-.0859-.1719-.1432-.3079-.1718-.4082-.0287-.1002-.0573-.2148-.086-.3437-.0143-.1146-.0215-.1791-.0215-.1934.0144-.0143.0144-.0358 0-.0644 0-.043-.0071-.0788-.0214-.1075 0-.0429-.0072-.0859-.0215-.1289.0143-.2148.0071-.3366-.0215-.3652-.0143-.1432-.0287-.2149-.043-.2149-.0143-.0143-.0215-.0358-.0215-.0644 0-.1146.0072-.2005.0215-.2578.0287-.0573.043-.1146.043-.1719 0-.1146 0-.2005 0-.2578.043-.1146.0644-.1862.0644-.2149.0144-.0429.0144-.0931 0-.1503.0573-.129.086-.222.086-.2793s.0071-.1075.0215-.1504c.0286-.086.0501-.1433.0644-.1719.0143-.0287.0215-.0573.0215-.0859.0143-.0717.0215-.1218.0215-.1504 0-.0287.0071-.0716.0215-.1289.0429-.1003.0859-.1862.1289-.2579.0429-.1145.0644-.1933.0644-.2363s.0072-.0859.0215-.1289c.0287-.1289.0573-.2077.086-.2363.0572-.1576.0931-.2363.1074-.2363s.0215-.0072.0215-.0215c.0716-.1146.1217-.1934.1503-.2364.0287-.0572.0573-.1074.086-.1503.0286-.0717.0573-.1361.0859-.1934.0287-.0573.0573-.1218.086-.1934.0716-.0859.1074-.136.1074-.1504.0143-.0286.0286-.0572.043-.0859.0716-.1146.1145-.1719.1289-.1719.0143-.0143.0358-.0358.0644-.0644.0573-.086.0859-.1361.0859-.1504.0144-.0143.0287-.0358.043-.0645.2149-.2578.3509-.4511.4082-.58.1146-.0573.1862-.1146.2149-.1719.0573-.0143.0931-.043.1074-.086.0286-.0572.0573-.1002.0859-.1289l.2578-.0859c.1433-.1003.2507-.1647.3223-.1934.1003-.0573.1647-.0787.1934-.0644.0429 0 .0787-.0072.1074-.0215.1146-.1003.1719-.1432.1719-.1289s.0143.0072.0429-.0215c.1433-.0573.222-.0859.2364-.0859.0286 0 .0572-.0072.0859-.0215.1146-.0716.1862-.1074.2148-.1074.0287-.0144.0645-.0287.1075-.043.0429-.0143.0787-.0358.1074-.0645.1432-.0716.2363-.1074.2793-.1074.0429 0 .0859-.0071.1289-.0215.1432-.0573.2291-.0859.2578-.0859.043-.0143.0788-.0215.1074-.0215.3008-.0716.5085-.1289.6231-.1719.0859.0144.1647.0144.2363 0 .0859-.0286.1647-.0501.2363-.0644.1719 0 .2793.0072.3223.0215s.0859.0215.1289.0215.0859-.0072.1289-.0215c.0573-.0143.1146-.0215.1719-.0215h.3437c.043-.0143.086-.0215.1289-.0215.0573-.0143.1075-.0143.1504 0 .043.0143.0931.0215.1504.0215.043-.0143.0859-.0287.1289-.043.0573-.0143.1218-.0143.1934 0 .0859.0143.1647.0287.2363.043s.1146.0215.1289.0215c.1719.0143.2721.0286.3008.0429.0716.0144.1504.0287.2363.043.1003.0143.2077.0287.3223.043.1575.0143.2363.0215.2363.0215.0143-.0144.0358-.0144.0645 0 .1289.0573.2076.0931.2363.1074h.1074c.0573.0143.1146.0286.1719.043.0716 0 .1289.0214.1719.0644.2005.0859.3151.1432.3437.1719zm-3.0508 3.2871c-.1433-.0286-.2149-.0358-.2149-.0215 0 .0144-.0071.0215-.0215.0215-.1432.0144-.222.0287-.2363.043s-.0358.0215-.0644.0215c-.0573.0286-.1218.0501-.1934.0644-.0573 0-.1003.0144-.1289.043-.1432.0859-.222.1289-.2363.1289-.0144 0-.0358.0072-.0645.0215-.1289.043-.1933.0716-.1933.0859 0 0-.0144.0072-.043.0215-.0859.0573-.1647.1218-.2363.1934-.1003.0716-.1791.136-.2364.1933-.0429.043-.0787.0788-.1074.1075-.1146.1289-.1719.2005-.1719.2148-.0859.1146-.1575.2005-.2148.2578-.1003.1432-.1504.2363-.1504.2793s-.0143.0859-.043.1289c-.1146.1289-.179.2363-.1933.3223-.043.0716-.086.1361-.1289.1933-.0287.043-.043.0931-.043.1504.0143.1862.0143.3008 0 .3438v.1074c0 .1862.0215.3294.0645.4297.0286.1146.0572.2292.0859.3437.043.1146.0931.2292.1504.3438.0859.1575.1217.2435.1074.2578 0 .0143.0072.0287.0215.043.0716.1146.1146.1718.1289.1718s.0286.0072.043.0215c.1145.1146.179.1719.1933.1719s.0358.0072.0645.0215c.0716.0716.1432.1504.2148.2363.086.0716.1862.1146.3008.1289l.2793.1504c.043.0287.0859.043.1289.043s.0859.0071.1289.0215c.0859.0429.1432.0644.1719.0644.0286-.0143.0573-.0143.0859 0 .1289.043.2149.0645.2578.0645.043-.0143.0788-.0215.1075-.0215.1432.043.2291.0644.2578.0644.0429-.0143.0859-.0214.1289-.0214h.2148c.1003-.0144.1862-.0215.2578-.0215l.3867-.0645c.129-.0429.1862-.0716.1719-.0859 0-.0143.0143-.0215.043-.0215.1003-.0143.179-.0501.2363-.1074.1289-.1003.2363-.1504.3223-.1504.0716-.1432.1432-.2363.2148-.2793.086-.1289.1218-.1934.1075-.1934 0-.0143.0071-.0286.0214-.0429.043-.1003.0788-.1504.1075-.1504.0286-.0143.0501-.0358.0644-.0645.043-.0859.0645-.1432.0645-.1719.0143-.0286.0286-.0501.0429-.0644l.1504-.3008c.086-.1289.1289-.2435.1289-.3437.0573-.1719.0788-.2937.0645-.3653 0-.0716 0-.1432 0-.2148-.0143-.0716-.0287-.1361-.043-.1934s-.0286-.1217-.043-.1933c-.0143-.0573-.0214-.1003-.0214-.1289.0143-.043.0143-.0788 0-.1075-.0287-.0573-.0573-.1002-.086-.1289-.0143-.0429-.0215-.0859-.0215-.1289-.0859-.1146-.1289-.179-.1289-.1933 0-.0144-.0071-.0287-.0215-.043-.0716-.1003-.1074-.1504-.1074-.1504 0-.0143-.0071-.0358-.0215-.0644-.0429-.0573-.0859-.1075-.1289-.1504-.0286-.0573-.0644-.1146-.1074-.1719-.1002-.1003-.1575-.1576-.1719-.1719 0-.0143-.0143-.0286-.0429-.043-.1433-.1145-.2435-.1862-.3008-.2148-.043-.043-.0788-.0931-.1074-.1504-.1576-.0716-.2865-.1289-.3868-.1719-.1432-.0716-.2148-.1145-.2148-.1289.0143-.0286.0143-.0429 0-.0429l-.2793-.086c-.1146-.0573-.1862-.1002-.2148-.1289zm12.4179-1.5898c.1289-.1003.2006-.1432.2149-.1289.0143 0 .0215-.0072.0215-.0215.1146-.1003.1862-.1647.2148-.1934.086-.0429.1361-.0716.1504-.0859.0287-.0143.0573-.0286.0859-.043l.3008-.2148c.0573-.0287.1003-.0645.1289-.1074.043-.0573.086-.1146.1289-.1719.1576-.0859.2435-.1361.2578-.1504.0573-.0573.1075-.0931.1504-.1074.043-.0143.0788-.0358.1075-.0645.1862-.1575.3365-.2578.4511-.3008.0573-.0716.1218-.1217.1934-.1503.0716-.043.1361-.1003.1934-.1719.1002-.0287.1718-.0645.2148-.1074.0716-.0573.1217-.0931.1504-.1075.043-.0286.0859-.0501.1289-.0644.1719-.0143.265-.0215.2793-.0215.1146.0143.1933.0215.2363.0215.1003.0859.1576.1289.1719.1289.0286 0 .0573.0143.0859.043.0287.0286.0645.0572.1075.0859.0429.0143.0787.0358.1074.0644l.1933.1504c.1289.0717.1934.1146.1934.1289 0 0 .0072.0072.0215.0215.0859.0716.1504.1218.1933.1504.043.0287.0717.0645.086.1074.1002.043.179.1003.2363.1719.0716.0573.1432.1218.2148.1934.1576.1002.2579.1647.3008.1933.043.0287.0788.0573.1074.086.1146.0429.2006.1146.2579.2148.0573.1003.1432.1791.2578.2363.1146.1146.1718.1719.1718.1719.0287.043.0573.0931.086.1504.043.0573.0788.1074.1074.1504.1146.1289.179.2077.1934.2363.0143.0144.0358.0358.0644.0645.0716.0859.1361.1719.1934.2578.0573.1146.1074.2363.1504.3652.0573.1289.1217.2507.1933.3653-.0286.1145-.0215.2363.0215.3652l.0215.2363c0 .1003.0072.1719.0215.2149.0143.0429.0215.0787.0215.1074.0286.043.0286.0859 0 .1289-.0144.043-.0215.0931-.0215.1504.0143.1719.0143.2864 0 .3437v.1289.1075c.0143.0429.0143.0931 0 .1504-.0287.1862-.0501.3151-.0645.3867 0 .0573.0072.136.0215.2363 0 .1576-.0143.2721-.043.3438-.0143.0572-.0214.1217-.0214.1933.0143.1719.0214.2793.0214.3223.0144.0286.0215.0573.0215.0859l-.0215.5156c.0144.1433.0144.2149 0 .2149v.0215c.0144.1146.0144.179 0 .1933v.043.1289c.0144.043.0215.0859.0215.1289v.1934c.0144.0143.0215.0286.0215.0429-.043.1289-.0644.2006-.0644.2149.0143.0143.0214.0358.0214.0644v.1719c.0144.043.0215.0931.0215.1504 0 .0716-.0071.1432-.0215.2148v.2149.2363c.043.2149.0645.3939.0645.5371 0 .1433.0072.2865.0215.4297v.2149c.0143.0143.0215.0358.0215.0644.0143.1576.0215.3151.0215.4727v.4511c0 .043.0071.086.0214.1289.0144.043.0144.086 0 .1289-.0143.043-.0286.0788-.0429.1075-.0144.0143-.0358.0501-.0645.1074-.2864.1146-.4655.179-.5371.1934-.0716.0286-.1575.0286-.2578 0-.0716 0-.1647-.0072-.2793-.0215-.1003 0-.1862.0071-.2578.0215-.1576-.0144-.265-.0215-.3223-.0215-.043.0143-.0931.0215-.1504.0215h-.3652c-.0716 0-.1432 0-.2149 0-.0572.0143-.1145.0143-.1718 0-.1433-.043-.222-.0645-.2364-.0645-.0286 0-.0644 0-.1074 0-.0429.0143-.1002.0215-.1719.0215-.1718-.0143-.2721-.0143-.3007 0-.0144.0143-.0358.0143-.0645 0-.0286.0286-.0716.043-.1289.043s-.1217 0-.1934 0c-.1289.0286-.2291.0214-.3007-.0215-.1289-.1146-.222-.1934-.2793-.2364 0-.0716-.0072-.1432-.0215-.2148s-.0215-.1504-.0215-.2363l.043-.2793.0215-.2364c.0143-.0286.0214-.0644.0214-.1074.0144-.0429.0358-.1002.0645-.1719.0143-.0429.0215-.0787.0215-.1074.0143-.0429.0286-.1002.0429-.1719 0-.1718.0072-.2936.0215-.3652.0144-.0859.0215-.1647.0215-.2363-.0143-.1862-.0071-.308.0215-.3652 0-.1576.0072-.2435.0215-.2579-.0143-.1432-.0143-.2291 0-.2578.0143-.0286.0215-.0573.0215-.0859 0-.1719 0-.265 0-.2793.0143-.0143.0215-.0287.0215-.043-.0287-.1575-.043-.2435-.043-.2578.0143-.0143.0215-.0286.0215-.043 0-.0429-.0072-.0859-.0215-.1289 0-.0573 0-.1217 0-.1933v-.2793c-.0143-.1576-.0215-.2793-.0215-.3653-.0286-.1718-.043-.2864-.043-.3437.0144-.0573.0215-.1074.0215-.1504 0-.2005 0-.3509 0-.4512 0-.1145-.0143-.2076-.043-.2793.0287-.0286.0359-.0716.0215-.1289 0-.0573 0-.1074 0-.1504.0144-.1432.0072-.2506-.0215-.3222-.0143-.086-.0071-.1576.0215-.2149-.0143-.1289-.0286-.222-.0429-.2793 0-.0573-.0287-.1002-.086-.1289-.1289-.1146-.1933-.1862-.1933-.2148-.1862-.0143-.3438.0143-.4727.0859-.1003.1289-.1575.1934-.1719.1934-.1002.1432-.179.2363-.2363.2793-.043.0429-.0859.0931-.1289.1504-.1146.1432-.1862.2291-.2148.2578-.1576.0859-.2722.1575-.3438.2148-.0573.0573-.1289.0788-.2148.0645-.0717 0-.1361-.0215-.1934-.0645-.043-.0573-.1003-.1002-.1719-.1289-.0286-.0716-.0644-.1289-.1074-.1719-.043-.0429-.0788-.1002-.1074-.1718-.1003-.1433-.1504-.2149-.1504-.2149.0143 0 .0143-.0071 0-.0215-.0716-.1289-.1504-.2506-.2363-.3652-.0287.0287-.043.0645-.043.1074v.1289.2578.4727c0 .0716-.0072.1504-.0215.2363v.2578.5372c.0143.1718.0215.3509.0215.5371.0286.0716.043.1504.043.2363v.2363l.0214.2363v.1504c.0144.0287.0215.0573.0215.086.0144.1575.0144.2506 0 .2793-.0143.0286-.0215.0573-.0215.0859 0 .0859.0144.2005.043.3438-.0143.0573-.0215.1217-.0215.1933.0144.0716.0215.1361.0215.1934.0143.0429.0143.0859 0 .1289v.1289c.0143.1432.0287.2435.043.3008.0143.0429.0215.0787.0215.1074.0286.2578.0429.4225.0429.4941.0144.043.0144.0931 0 .1504 0 .043.0072.086.0215.1289.0287.1433.0358.222.0215.2364v.0644l.0645.3223c-.0144.1432-.0215.222-.0215.2363.0143.0143.0215.0358.0215.0645-.043.1575-.0645.2721-.0645.3437s-.0215.1218-.0644.1504c-.1433.0143-.2507.0215-.3223.0215-.0716.0143-.1361.0358-.1934.0644-.2435.0287-.4368.0215-.58-.0214-.1433-.0287-.2221-.043-.2364-.043-.0143.0143-.0358.0215-.0644.0215-.0573 0-.1003-.0072-.1289-.0215-.0287 0-.0717 0-.1289 0-.1719-.0143-.2793-.0215-.3223-.0215-.0287 0-.0645-.0072-.1074-.0215-.0716 0-.1504 0-.2364 0-.0716-.0143-.1432-.0286-.2148-.043-.1719-.0429-.3294-.0501-.4727-.0214-.1289.0286-.2291.0501-.3007.0644-.1003 0-.1648 0-.1934 0-.0143-.0143-.0358-.0143-.0645 0-.0429 0-.0859.0072-.1289.0215-.0286 0-.0716-.0072-.1289-.0215-.1145 0-.2076.0143-.2793.043-.1575-.0573-.2435-.086-.2578-.086 0 0-.0071-.0143-.0215-.0429-.0429-.0716-.0787-.1218-.1074-.1504-.0143-.0287-.0215-.0645-.0215-.1074.0144-.2292.0144-.3939 0-.4942 0-.1146.0072-.222.0215-.3222 0-.1719 0-.2793 0-.3223.0143-.0573.0287-.1074.043-.1504.0286-.2578.0573-.4225.0859-.4941.0143-.1862.0143-.308 0-.3653s-.0143-.1146 0-.1718c0-.1576.0072-.2435.0215-.2579.0143-.0286.0215-.0573.0215-.0859l-.0215-.2793c0-.0859 0-.1647 0-.2363s-.0143-.1361-.043-.1934c.0144-.1575.0072-.265-.0214-.3222-.0144-.0717-.0072-.1146.0214-.129.0144-.1289.0215-.2005.0215-.2148s-.0071-.0358-.0215-.0645c0-.0429 0-.0859 0-.1289.0144-.0429.0215-.0787.0215-.1074 0-.0573-.0071-.1002-.0215-.1289-.0143-.043-.0071-.0859.0215-.1289 0-.1432 0-.2506 0-.3223 0-.0859 0-.1647 0-.2363s-.0071-.1361-.0215-.1933c-.0143-.0573-.0214-.1075-.0214-.1504.0143-.1862.0071-.308-.0215-.3653.0143-.0573.0215-.1074.0215-.1504 0-.0573.0071-.1145.0214-.1718v-.2578-.4512c0-.1146-.0071-.1934-.0214-.2363 0-.0573 0-.1075 0-.1504-.0287-.1433-.043-.2578-.043-.3438 0-.1002 0-.1862 0-.2578.0143-.1146.0143-.1862 0-.2148-.0143-.043 0-.0573.043-.043-.0144-.2292-.0358-.3867-.0645-.4727-.0143-.0859-.0072-.1647.0215-.2363-.0143-.0286-.0287-.0644-.043-.1074s-.0215-.0931-.0215-.1504c.0144-.1289.0144-.2077 0-.2363-.0143-.0287-.0214-.0573-.0214-.086 0-.1862 0-.3294 0-.4297-.0144-.1575-.0215-.2578-.0215-.3007.0143-.0573.0215-.1146.0215-.1719v-.3223c-.0144-.1146-.0215-.2005-.0215-.2578-.0287-.1719-.043-.2793-.043-.3223 0-.0429-.0072-.0859-.0215-.1289l-.0215-.3007c-.0143-.129-.0143-.2722 0-.4297.1289-.1576.1862-.2364.1719-.2364.1719-.0716.2793-.1074.3223-.1074.1718.0143.2793.0143.3222 0 .043-.0143.0931-.0286.1504-.043.1146 0 .1862-.0071.2149-.0214.0286-.0144.0573-.0215.0859-.0215.043-.0143.0859-.0143.1289 0 .0573.0143.1003.0071.1289-.0215.2005.0143.3438.0215.4297.0215s.1647-.0143.2363-.043c.043-.0143.1003-.0143.1719 0s.1289.043.1719.0859c.0716-.0286.1361-.0358.1933-.0214h.1719c.1576.0286.2865.0429.3867.0429.1146-.0143.2149-.0071.3008.0215.0716-.0286.1576-.0358.2578-.0215.1003.0144.1862 0 .2578-.0429l.2579.0644c.1432.1432.2434.2721.3007.3867.0573.1003.043.2006-.0429.3008-.0287.1289-.0502.2578-.0645.3867-.0143.1146-.0358.2435-.0644.3867-.0144.1719-.0287.2722-.043.3008 0 .0287-.0072.0573-.0215.086-.0143.0716-.0215.136-.0215.1933.0143.0573.0072.1218-.0215.1934z" fill="#693821"/></svg>