<svg fill="none" height="71" viewBox="0 0 159 71" width="159" xmlns="http://www.w3.org/2000/svg" xmlns:xlink="http://www.w3.org/1999/xlink"><linearGradient id="a"><stop offset="0" stop-color="#cf5c2b"/><stop offset="1" stop-color="#59173e"/></linearGradient><linearGradient id="b" gradientUnits="userSpaceOnUse" x1="120.97" x2="82.8685" xlink:href="#a" y1="-103.401" y2="-18.2052"/><linearGradient id="c" gradientUnits="userSpaceOnUse" x1="89.9355" x2="54.0608" xlink:href="#a" y1="-30.6848" y2="127.597"/><linearGradient id="d" gradientUnits="userSpaceOnUse" x1="89.5475" x2="43.5705" xlink:href="#a" y1="-25.6878" y2="170.642"/><linearGradient id="e" gradientUnits="userSpaceOnUse" x1="83.5273" x2="80.2281" xlink:href="#a" y1="88.3649" y2="44.5304"/><linearGradient id="f" gradientUnits="userSpaceOnUse" x1="134.092" x2="121.931" xlink:href="#a" y1="16.6486" y2="43.6603"/><linearGradient id="g" gradientUnits="userSpaceOnUse" x1="163.283" x2="59.8084" xlink:href="#a" y1="-64.9513" y2="134.384"/><linearGradient id="h" gradientUnits="userSpaceOnUse" x1="120.229" x2="112.558" xlink:href="#a" y1="14.451" y2="31.4884"/><linearGradient id="i" gradientUnits="userSpaceOnUse" x1="138.644" x2="73.378" xlink:href="#a" y1="-37.0179" y2="88.7116"/><linearGradient id="j" gradientUnits="userSpaceOnUse" x1="30.4754" x2="22.8048" xlink:href="#a" y1="29.1346" y2="46.172"/><linearGradient id="k" gradientUnits="userSpaceOnUse" x1="48.8907" x2="-16.3758" xlink:href="#a" y1="-22.3342" y2="103.396"/><path d="m158.32 55.7617c-.087-1.4457-.173-2.8914-.249-4.3371-.075-1.5167-.162-3.0474-.237-4.5641-.051-1.0347-.124-2.1402-.152-3.2175-.026-.893.272-2.3684-.127-3.1751-.236-.4812-.749-.6211-1.205-.7188-.595-.1255-1.191-.251-1.787-.3765.805-.2296 1.586-.5159 2.355-.873.174-.0857.349-.1714.465-.3419.105-.1563.139-.3691.161-.5534.262-1.9857.079-4.0832.072-6.0962-.018-2.0414-.026-4.097-.045-6.1383-.018-1.9421-.025-3.8985-.043-5.8406-.003-.6379.214-2.0422-.056-2.6083-.212-.4671-.714-.437-1.099-.4923-.397-.0553-.794-.0539-1.19-.0242-.595.0446-1.178.1601-1.761.2756.769-.2579 1.562-.3883 2.331-.6178.502-.1436.991-.3437 1.457-.6431.279-.1853.582-.3423.744-.6973.07-.142.092-.3263.127-.4966.068-.3546.079-.7233.101-1.0919.043-1.0067.075-2.0134.083-3.0341.009-.5104.008-1.02075-.006-1.53106-.001-.32606-.107-.63757-.132-.97772-.109-1.37474-.569-2.69155-1.296-3.75223-.728-1.04651-1.722-1.80855-2.82-2.1591-.409-.12615-.818-.1956-1.238-.22248-49.342-1.711971-97.697-1.612814-144.9949.53823-.18665.01483-.38512-.01283-.57162.04454-.18645.07153-.37285.15725-.57092.243-.38447.17148-.76893.34295-1.14153.57108-.72197.42784-1.39676.99727-1.86071 1.79279-.26674.46877-.45159.99395-.69499 1.46263-.12751.24145-.29022.42632-.39434.68186-.49747 1.22094-.99489 2.45605-1.69122 3.53596-.673095 1.0514-.8655806 2.7249-.791032 4.0147.1112 1.7575.152437 3.5294.286974 5.2869.219857 2.792.03131 5.5854.297941 8.4056.036402.3968.096341.8503.342281 1.1046.175676.1837.409306.2537.631206.3096.72416.196 1.45993.3777 2.18409.5736-.896.712-2.2377.7734-2.71203 1.9376-.150343.3833-.172185.8086-.194027 1.234-.076397 1.503-.187849 2.9919-.264296 4.4807-.032663.6664-.065276 1.347-.074602 2.0134-.021094.638-.053907 1.2619-.110007 1.9-.111452 1.4889-.4197275 3.418-.041195 4.8769.366665 1.4022 1.813787 1.4538 2.806817 1.7906-.52484.0727-.91973.5986-1.23294 1.1242-.15075.2699-.26649.5397-.40557.8095-.1275.2415-.24334.4829-.34746.7384-.20825.5111-.381432 1.0363-.507843 1.5896-.080385.3689-.126063.6526-.136385 1.0354-.010473.3402-.020945.6805-.031417 1.0208-.020945.6805-.030221 1.361-.039497 2.0415-.018551 1.3611-.025434 2.722-.00898 4.0829.016305 1.3184-.23592 2.5952.223696 3.8836.459616 1.2885 1.245306 2.3915 2.228016 3.111.79557.5926 1.69515.9014 2.62885.9548 47.58214 2.3703 95.94864 2.1718 145.05364-.5243 1.295-.0754 2.541-.7035 3.494-1.7843.453-.512.86-.9671 1.196-1.6204.418-.7811.8-1.5905 1.159-2.414.88-2.002 1.98-4.2316 1.832-6.5419z" fill="url(#b)"/><path d="m152.954 63.026c-49.117 2.682-97.4714 2.8946-145.05361.5243-2.11203.0074-4.09052-1.8286-4.89212-4.1366-.3537-1.0336-.42765-2.1533-.38486-3.2592.01097-.1985.02199-.3829.06796-.5815.06897-.298.18476-.5535.207-.8655.01107-.1702.03391-.312.04498-.4822.07859-.8792.09879-1.7724.15404-2.6515.03326-.4963.07814-1.0068.19313-1.4892.12641-.5534.33471-1.0503.69524-1.3918 1.55857-1.4373 4.62754-1.4197 6.90274-1.4844.4434-.0158.8517-.0314 1.225-.0611.9916-.0743 1.9833-.1062 2.9752-.1097-2.3572-.0059-4.7034-.2386-7.02722-.7266-1.09766-.223-2.19551-.5026-3.2819-.8391-.25696-.0699-.5374-.1824-.78295-.3233-.33904-.1831-.6317-.4514-.78479-.8478-.12955-.3398-.11928-.7368-.12052-1.0912.01042-.3544-.03755-.7229-.01546-1.0773.02064-.7657.09973-1.5031.15543-2.2547.0562-.6098.1124-1.2195.14522-1.8434.07594-1.6306.15189-3.2612.25118-4.8918.03326-.4963.07804-1.0352.35689-1.3764.17428-.2133.39564-.3133.617-.4133.60582-.2715 1.22356-.4721 1.85323-.6019.32647-.0721.65319-.0732.93294-.1593.33795-.1287.59436-.2147.95594-.2585 3.46381-.5084 6.92781-1.0025 10.40331-1.5109.4082-.0582.8281-.1164 1.2479-.1746-5.2302-.7471-10.47227-1.5226-15.70254-2.2697-.23352-.0417-.45533-.0693-.6888-.0968-.21014-.0276-.43199-.0694-.57266-.2532-.01172-.0141-.02344-.0282-.03516-.0424-.10562-.1697-.11798-.3682-.14207-.5807-.24544-3.4299.01048-6.9749-.16509-10.4476-.01237-.1984-.06243-1.1622-.113-2.2678-.06397-1.6018-.16375-3.43018-.19876-3.43005-.23512-3.81268 2.15707-7.11005 5.30717-7.24872 47.28621-2.165174 95.64101-2.26433 144.94801-.5097 3.163.11647 5.602 3.41103 5.37 7.2537-.077 1.30447.138 2.56547-.126 3.88477-.057.3121-.138.6243-.335.8376-.175.185-.408.2567-.63.3141-.594.1723-1.188.3586-1.783.5308-.793.2297-1.574.4451-2.378.5613-4.759.6263-9.494 1.2667-14.241 1.9072-.129.0146-.257.0293-.385.0439-.152.0147-.304.0436-.455.0583.385-.0155.758-.0168 1.132-.0182 5.95-.1485 11.913-.2829 17.875-.4314.163-.0006.35-.0012.479.1259.152.1412.188.3821.212.6088.036.3118.037.6095.038.893-.008.9215-.134 1.8009-.13 2.7366.002.8222.169 1.6297.172 2.4803-.008 1.2192-.038 2.4385-.069 3.6719-.084 2.7789-.237 5.6006-.472 8.3942-.034.4113-.079.8367-.3 1.1352-.174.2274-.43.3559-.675.456-.151.0714-.303.1287-.466.1718-3.496 1.2315-7.327.2809-10.918 1.0449-.234.0434-.479.1009-.7.1726-.082.0145-.163.0431-.233.0717.292.0273.583.0405.875.082 3.934.3264 7.856.7946 11.767 1.3904.456.0693.97.1667 1.24.6194.211.3395.212.8074.214 1.2327l.005 1.4034c.005 1.4177.01 2.8353.073 4.2527.077 1.8711.177 3.742.288 5.6271.05.9213.1 1.8426.162 2.7497.223 3.7985-2.158 7.0817-5.284 7.2628z" fill="url(#c)"/><path d="m157.448 23.3c-.007 1.2193-.038 2.4385-.069 3.672-2.018.2339-3.989.4252-5.925.7013-.455.0583-.898.1166-1.353.1891-1.668.2185-3.336.4228-5.004.5988-.828.088-1.668.176-2.508.264-.536.0586-1.014.3155-1.527.3882-.723.1017-1.517-.1223-2.253-.1764-.817-.0539-1.634-.0793-2.45-.0623-1.634.0341-3.279.1817-4.9.4142-3.265.4651-6.483 1.2278-9.725 1.8913-5.189 1.0673-10.402 1.8937-15.651 2.4367 2.86.3302 5.697.8873 8.489 1.6572-1.05.1029-2.1.2058-3.15.2804-3.336.2669-6.673.4062-10.01.4889-3.3367.0826-6.6856.0944-10.0229.0919-3.3373.0117-6.6862.0093-10.0234.0494-3.337.0543-6.674.1511-10.0106.3471-1.6683.1051-3.3365.2244-4.9929.3862-.4199.044-.8282.0879-1.2481.1319-.5016.0585-.991.2304-1.5042.303-3.9771.5811-7.9536 1.3039-11.8826 2.2534-6.1093 1.4816-12.2537 2.9351-18.4713 3.4673-1.1199.089-2.2514.178-3.3713.267-5.3514 1.3231-11.1381 1.6128-16.3863 2.411-1.7843.2756-3.60416.4238-5.42418.5152-1.09765-.2229-2.19551-.5026-3.28189-.839-.25696-.07-.53741-.1824-.78295-.3233-.33904-.1831-.63171-.4515-.7848-.8479-.12955-.3398-.11928-.7367-.12052-1.0911.01042-.3545-.03755-.7229-.01546-1.0774.02065-.7656.09974-1.5031.15544-2.2546 4.8058-.4989 9.73576-2.2033 14.35366-3.0418 5.9357-1.0557 11.9896-1.6866 17.9742-2.1188 6.7779-.4775 13.5492.4769 20.3054.4532 6.2661-.0221 12.5065-.7103 18.7354-1.3418 12.1429-1.2335 24.2624-2.5095 36.3813-3.828-2.637-.0475-5.274-.1233-7.912-.2274-3.361-.1299-6.7222-.3024-10.0836-.5032-.7819-.0398-1.5875-.1646-2.3573-.0626-.8047.1162-1.6214.1474-2.4266.1361-1.5987-.0227-3.1982-.2581-4.7518-.7205-.9111-.2661-1.8225-.6173-2.745-.8126-1.5648-.3205-3.163-.2157-4.7617-.2384-5.9397-.0784-11.7924-1.9574-17.7316-1.8657-1.5635.0197-3.1149.1811-4.6662.3567-1.6447.1901-3.301.3802-4.9577.4427-.7351.0309-1.4933.0903-2.2058-.1056-.549-.1541-1.1789-.081-1.739-.0932-1.0036-.0248-2.0072-.0496-3.0108-.0744-2.0072-.0497-4.0144-.071-6.0331-.0781-7.6198-.0157-15.2143.5214-22.8342.4773-3.24402-.017-6.55823-.0904-9.76912-.6461-.01171-.0142-.02343-.0283-.03515-.0425-.10562-.1697-.11799-.3681-.14207-.5807-.24544-3.4299.01048-6.9749-.1651-10.4475-.01236-.1985-.06243-1.1623-.11299-2.2679 3.88423-.4248 7.79293-.5378 11.67733-.8917 7.6056-.7072 15.2126-1.0316 22.8557-1.016 15.1346.0319 30.238 1.1554 45.3305 2.4916 15.1042 1.3362 30.1743 2.9986 45.2783 4.2497 7.634.6253 15.278 1.0096 22.921.9827 2.241-.0079 4.504-.186 6.767-.3924-.009.9215-.134 1.8009-.131 2.7365.038.893.205 1.7005.196 2.5369zm.33 24.0849c-.064-1.4175-.069-2.8351-.074-4.2527-4.821-.621-9.654-1.2562-14.498-1.6502-8.311-.6655-16.665-.5227-24.983-.0823-1.727.0911-3.431.1538-5.145.415-.828.1305-1.656.261-2.484.3774-3.324.4936-6.648.8881-9.984 1.2117-1.2951.118-2.6016.236-3.9082.3398 3.3722-.0402 6.7442-.0804 10.1162-.1206s6.745-.0804 10.117-.1206c1.68-.0201 3.372-.0403 5.052-.0603.84-.0172 1.68-.0201 2.532-.0373.35-.0012.724.0258 1.073-.0747.21-.0574.42-.1574.63-.2006.758-.1445 1.599.0369 2.357.0909.841.0538 1.669.1076 2.51.1613 1.669.1217 3.349.2576 5.019.3935 2.638.2317 5.264.4918 7.89.7661 2.872.3018 5.721.7029 8.581 1.1181-6.485.7742-12.959 1.5767-19.456 2.039-14.956 1.0591-29.911 2.3734-44.8949 2.0575-14.7738-.2883-29.515-1.2713-44.299-1.1484-7.7946.0557-15.577.239-23.3474.5499-5.7403.2187-11.5514.2107-17.27823.9397-.11505.4682-.15988.9929-.19314 1.4892-.05525.8792-.07545 1.7724-.15404 2.6516 6.38387.2894 12.83481-.2578 19.20591-.2944 7.7829-.0415 15.5662.0162 23.3501.2156 14.7507.3734 29.4917 1.314 44.2304 1.574 15.0073.2733 29.9733-1.0836 44.9413-2.0577 7.723-.495 15.494-.5365 23.218-.6629l.164-.0005c-.112-1.8851-.212-3.7419-.288-5.6271z" fill="url(#d)"/><g fill="#eb924d"><path d="m3.85025 43.0639c-.00917.7089-.00663 1.4319.18241 2.0975-.33904-.1831-.6317-.4514-.78479-.8478-.12955-.3398-.11928-.7368-.12053-1.0912.01043-.3544-.03755-.7229-.01545-1.0773.04183-1.3753.24714-2.7228.30064-4.0981.07595-1.6306.1519-3.2612.25118-4.8918.03327-.4963.07805-1.0352.3569-1.3764.17428-.2133.39564-.3133.61699-.4133.60583-.2715 1.22357-.4721 1.85323-.6019.29142-.0861.61814-.0873.89789-.1733.33795-.1288.59436-.2147.95594-.2585 3.46384-.5084 6.92774-1.0026 10.40324-1.511-3.719.9346-7.4382 1.8408-11.16894 2.7754-.72286.1726-1.69136.176-2.29609.7594-.12796.1139-.23248.256-.33699.3981-.09291.1279-.17409.27-.27866.3979-.19762.2134-.26643.5539-.35874.8519-.242.8656-.37883 1.7734-.41065 2.6808-.01047.3403-.00922.6947-.04303 1.0351-.01137.0851-.02274.1702-.03411.2553-.01132.0992-.05775.1703-.08074.2696-.18425.6953-.15822 1.4607-.07405 2.1693.0359.255.10681.5099.15439.765.11883.6091.03944 1.2615.02996 1.8853z"/><path d="m138.138 16.847c-.21-.0135-.42-.0269-.63-.0404l1.003-.0035c-.116.0004-.245.0292-.373.0439z"/><path d="m141.641 37.8584c.969.11 1.937.22 2.906.3017-.233.0433-.478.1009-.699.1725-.748-.1675-1.495-.3349-2.207-.4742z"/><path d="m155.895 36.0638c.149-.7377.111-1.5031.05-2.2543-.087-1.389-.185-2.7921-.271-4.1811-.013-.2693-.049-.5669-.225-.7364-.14-.1413-.339-.1406-.514-.1258-1.446.0618-2.881.1236-4.305.1853 1.552-.1756 3.09-.6772 4.487-1.5043.408-.2425.827-.5417.977-1.0384.081-.2554.08-.539.079-.8225-.031-2.1972-.355-4.6486-.584-6.831-.68-.7774-1.695-.873-2.629-.9406-3.758-.2703-7.528-.5264-11.275-.7968-.899-.0677-1.902-.1067-2.859-.1601 5.95-.1485 11.912-.2828 17.875-.4314.163-.0006.35-.0012.479.1259.152.1412.188.3821.212.6088.132 1.2471-.109 2.3963-.104 3.6296.003.8222.169 1.6297.172 2.4803-.045 3.9413-.205 8.053-.553 12.0662-.033.4113-.079.8367-.299 1.1352-.174.2274-.431.3559-.675.456-.152.0714-.303.1287-.467.1718.198-.2842.348-.6534.429-1.0364z"/><path d="m2.7002 14.9429c-.02499-.4677-.25337-5.6839-.32338-5.68366-.23512-3.81267 2.15707-7.11004 5.30717-7.24871 47.28621-2.165174 95.64101-2.26433 144.94801-.5097 3.163.11647 5.602 3.41103 5.37 7.25369-.077 1.30448.138 2.56548-.126 3.88478-.057.3121-.138.6243-.335.8376-.175.185-.408.2567-.63.3141-.594.1723-1.177.3728-1.771.5308.511-.5689 1.104-1.2372 1.334-2.0603.162-.5534.032-1.035-.122-1.559-.236-.82139-.285-1.60093-.312-2.46561-.039-1.0631.108-2.58051-.584-3.42867-.527-.6361-1.217-1.18655-1.872-1.5812-1.626-.95829-3.505-1.16433-5.291-1.24311-.093.00033-.175-.01356-.268-.01323-3.291-.11602-6.593-.11858-9.883.30411-.396.04392-.746.18691-1.13.27333-.478.11509-1.051-.02466-1.541-.05129-1.12-.06694-2.229-.11975-3.349-.17252-2.23-.0914-4.47-.1544-6.711-.18905-1.68-.02245-3.349-.01658-5.029-.01067-.525.00185-1.062.00374-1.587.00558-1.015.00357-2.03.00714-3.057.01075-1.412.00497-2.824.00993-4.236.00072-.07.00025-.14.00049-.198.0007-2.241.00788-4.469.00154-6.71.00942-1.12.00393-2.24.00787-3.349-.0024-.513.0018-1.085.08887-1.5868-.02278-.5139-.1116-.9236-.49293-1.4606-.54775-.4902-.05498-.9917.04602-1.4699.10441-1.2248.11772-2.4378.26375-3.6508.43813-.5482.07281-1.1545.18836-1.5145.6858-.1278.17057-.2204.38355-.3716.52584-.3373.2989-.8164.10211-1.2138-.06661-.7829-.32331-1.612-.50469-2.4523-.54426-.7586-.03987-1.5048.13288-2.2635.07884-.4785-.02667-.9341-.16684-1.4012-.27861-1.8452-.43298-3.7707-.45456-5.6266-.61816-1.3774-.12274-2.7662-.20292-4.155-.25474-4.4698-.18275-8.9502-.05359-13.4068.18891-2.24.12129-4.4682.27089-6.708.44889-1.0266.07449-2.1575.34782-3.1733.18127-.2919-.0415-.5724-.18228-.8644-.25214-.3036-.06981-.607-.05457-.922-.05346-1.2369.01853-2.4854.03709-3.7222.04144-1.4469.01927-2.9055.01022-4.3641.01535-.4901.00172-.9681.11682-1.4465.1185-.4435.00156-.8756-.11034-1.319-.10878-.9218.01742-1.8312.23327-2.6815.66155-.3261.17127-.6639.35675-1.0257.34385-.6536-.04023-1.0996-.79002-1.6959-1.12816-1.4031-.80313-2.8446.74718-4.282.12847-.7129-.30938-1.4362-.26431-2.1947-.26164-.9569-.01081-1.9137-.00745-2.8705-.00408-3.2439.02558-6.4873.17875-9.7064.58702-1.6096.20413-3.2073.4791-4.8047.82496-.76954.17282-1.55039.44492-2.3318.56108-.2216.02913-.39663.02975-.60602.21478-.95399.81142-3.56354 5.34292-1.6793 6.92412.11703.0988.24569.1834.38596.2538.19872.0985.40891.1403.61924.2246.21039.0985.47852.0267.70022.0259.53676-.0019 1.07352-.0038 1.59856-.0198.57177-.002 1.14349-.0182 1.68094.1784-1.21244.3161-2.42494.6181-3.63744.9201-.39638.1006-.79277.2012-1.16547.401-.0582.0428-.12816.0572-.19807.0858-.25631.1143-.44167.4977-.53397.7958-.2423.7805-.08762 1.6306-.18979 2.439-.18162 1.4466.05724 3.0052.17896 4.4366.15818 1.8424.35141 3.6989.57959 5.541-.23352-.0417-.45533-.0693-.6888-.0968-.22181-.0276-.45533-.0693-.60777-.2814-.10562-.1697-.11798-.3682-.14207-.5807-.24554-3.4582.01038-7.0033-.15347-10.4618z"/><path d="m158.227 55.7617c-.174-2.7922-.323-5.5844-.45-8.3768-.077-1.8852-.071-3.7707-.078-5.6562-.002-.4252-.015-.8789-.215-1.2326-.269-.4527-.783-.5501-1.239-.6194-3.911-.5958-7.833-1.064-11.767-1.3904 3.504.8099 7.125 1.8462 10.454 2.9545.655.2245.703.8339.974 1.5843.26.7505.286 1.601.312 2.4089.013.3402.014.6805-.078 1.0068-.196.7237-.824 1.1229-1.383 1.4651.42.1403.841.2806 1.273.435.105.0422.21.0701.281.1691.082.099.117.269.13.4249.168 1.3461.044 2.7642.061 4.1251.015.8789.018 1.7579.032 2.6368.013.2409.084.4675.131.7225.072.5101.027 1.0348-.099 1.5314-.253 1.0216-.822 1.9309-1.555 2.5147-1.268 1.011-2.855 1.2293-4.371 1.3622-2.531.2357-5.075.2163-7.595.5229-.84.088-1.668.1901-2.508.2782-1.668.1759-3.347.3236-5.015.4712-3.162.2663-6.335.476-9.497.6147-7.49.3382-14.993.3362-22.496.3059-.899-.0252-1.809-.022-2.707-.0188-.736.0026-1.4352.1184-2.159.0359-1.7627-.2064-3.5117.1825-5.2611.4296-2.0411.2766-4.2347.3126-6.0012-.957-.5615-.4092-1.1119-.946-1.7654-.972-.5368-.0123-1.0373.358-1.5264.6433-.9316.542-1.9574.8433-2.9836 1.0028-.0234.0001-.0351.0002-.0583.0144-2.1809.3479-4.2819.171-6.4646-.0056-1.5991-.122-3.2782.21-4.8093-.4793-1.1803-.5203-2.4199-1.2673-3.632-.8661-.4313.1432-.8153.4281-1.223.628-.7922.3856-1.6671.4595-2.5187.5192-.5366.0303-1.0733.0605-1.61.0908-2.2284.0929-4.4688.0866-6.6979-.019-.9337-.0534-1.8905-.0359-2.8018-.3588-.6309-.2246-1.2489-.0806-1.9021-.0216-2.7064.2222-5.425.2884-8.1442.1846-1.1087-.0387-2.2175-.1056-3.3147-.201-.5369-.0407-1.0974-.1663-1.6342-.1644-.3734.0013-.7113.1443-1.0847.1456-2.2521-.0063-4.4926-.0409-6.7448-.0614-3.8391-.029-7.69-.0722-11.5291-.1012-2.624.4487-4.8313-.0964-7.43545-.6685-2.13706-.4745-4.46282-1.5154-5.35812-3.9222-.37694-1.0052-.43922-2.125-.408-3.2025.01052-.3261.03276-.6381-.00339-.964-.03605-.2976-.11868-.5666-.15473-.8642-.12013-.9778.12092-2.1128.31595-3.0633.10333-.4823.22989-.9931.52031-1.3628.25551-.3411.61654-.5408.97778-.6839.95553-.3719 1.97041-.4606 2.97367-.535 1.44657-.1043 2.89308-.2228 4.33968-.3271.2916-.0152.5833-.0446.8749-.0598-.0356-.17-.0595-.34-.0602-.5243l.0115-.0709c-.887-.0253-1.7738-.0221-2.6607-.0332-2.28682.0647-5.34406.0613-6.90268 1.4845-.69788.6404-.8221 1.8174-.88842 2.8667-.06638 1.0352-.08598 2.0985-.19902 3.1338-.03391.312-.13803.5675-.207.8655-.04598.1986-.057.3829-.06797.5814-.04273 1.1201.03122 2.2398.38487 3.2593.78997 2.3222 2.76841 4.144 4.89212 4.1365 47.5822 2.3703 95.937 2.1719 145.053-.5242 3.127-.167 5.508-3.4501 5.273-7.2486z"/><path d="m11.2463 35.6801c.0027.7656.0288 1.5452.0665 2.3106.013.3827.0377.7654.0624 1.1481.0126.2835.002.5954.0497.8646.0474.2266.0948.4249.0957.6659.0256.6521.0513 1.3183.0886 1.9703.0513 1.3182.1142 2.6222.1655 3.9405.076 1.6867.1402 3.3593.2161 5.0461.0383.9355.1695 1.7431.5807 2.5355.0823.1557.1528.3114.2467.4528.1525.2405.3398.4099.5736.5367.8534.4507 1.8228.6882 2.7452.8551 1.4245.2644 2.86.3302 4.2955.3819 18.9178.7415 37.859 1.4971 56.7836.8635 2.3101-.079 4.702-.1583 6.8527.8832-.9876-2.123-3.3575-2.4265-5.3647-2.4762-21.029-.5073-42.07-1.0854-63.0344-3.1382-.572-.0547-1.2024-.1375-1.6126-.6464-.293-.3534-.4115-.8633-.5065-1.345-1.092-5.2557-1.3214-10.7696-.6868-16.1305.0338-.3262.1143-.6809.1014-1.0069-.0128-.3402-.049-.6803-.0503-1.0347-.0141-.7088.0067-1.4319.0625-2.1409-.0823-.1699-.2806-.1692-.4322-.1403-.3966.0581-.7931.102-1.2014.1602.025.4677.0032.9073-.0418 1.3753-.0111.1559.0126.2693.0248.4252.0245.3118-.0211.638-.0317.9357-.0217.4538-.0317.9216-.0418 1.3753.0015.4395-.0085.8932-.007 1.3326z"/><path d="m84.8961 58.387c.2308-.7238 1.0121-.8542 1.6539-.8706 5.0987-.1455 10.1859-.2768 15.285-.4223 4.807-.1304 9.626-.2607 14.433-.4052 1.551-.048 3.208-.0538 4.496 1.0049-.025-.2267-.06-.4534-.084-.6802.548-.1153 1.072-.2589 1.632-.2042.304.0273.619-.1014.922-.145.711-.1159 1.435-.161 2.146-.206 3.955-.2266 7.922-.3114 11.889-.5664 1.003-.0602 1.995-.1487 2.998-.2373.991-.0886 1.995-.163 2.974-.3366.14-.0288.268-.086.408-.1006.187-.0149.373-.0297.56-.0445 1.003-.1028 2.018-.3332 2.949-.861 1.165-.6562 2.188-1.8223 2.556-3.3121.161-.6669.193-1.3616.226-2.0564.105-3.1759.059-6.3655-.15-9.5261-.129-.1555-.455.1292-.501.3561-.47 2.3125-.824 4.6529-1.049 7.007-.135 1.4039-.246 2.8928-.954 4.0011-.778 1.2077-2.083 1.6943-3.319 2.0389-6.563 1.8661-13.353 2.0742-20.085 2.268-6.277.178-12.555.3702-18.82.5482-5.2285-.1943-10.5809.8311-15.7759.1689-1.4593-.1934-2.9306-.5001-4.3883-.2398-.105.0146-.2215.0434-.3029.1429-.0581.0711-.0694.1703-.0924.2697-.1724.7377.1109 1.6724.3936 2.4086z"/></g><path d="m149.716 44.7062c-.022-2.6935-.054-5.387-.087-8.0946-.021-2.5942-.053-5.1742-.074-7.7685-.035-3.1187.059-6.2662-.255-9.3556-.06-.6094-.191-1.2327-.181-1.8423.008-.9215-.146-1.6298-.488-2.5076-.436-1.1893-1.058-2.2787-1.761-3.2686-1.525-2.17778-3.707-2.26934-5.983-2.37475-2.393-.11918-4.773.0026-7.153-.0032-2.661-.00483-5.333-.00961-7.993-.0286-3.244-.01695-6.477-.04811-9.721-.07923-3.244-.03113-6.488-.06225-9.732-.09337-1.622-.00847-3.244-.03112-4.866-.0396-.338.00119-.689-.0401-1.015.06028-.21.05744-.396.15734-.6062.18643-.7231.0876-1.5524-.13631-2.2648-.30392.0862-2.02756.3709-4.04163.8541-5.9997-.6581 2.01539-1.4096 3.98858-2.2664 5.89125-.0579.12779-.1158.25559-.2206.31266s-.2332.04335-.3383.02954c-.2452-.04167-.502-.06912-.7473-.13914-.5607-.16814-1.1556-.09517-1.739-.09312-2.5089-.01953-5.006-.02492-7.5148-.03028-4.9243-.01103-9.8485.02046-14.7608.08026-5.2741.06108-10.5487-.00543-15.8347-.0152-1.4353-.00913-2.8706-.01826-4.2942-.01325-.6184.00217-1.2136-.02409-1.8082.13395-.6178.17229-1.3768.03319-2.007-.00712-.3502-.02712-.7238-.06834-1.0047-.33671-.281-.25419-.4108-.66485-.5405-1.06134-.2596-.82133-.5192-1.64266-.7789-2.46399.0384.96388.1235 1.91341.2552 2.86278.0361.31175.0608.70861-.172.86537-.0699.04278-.1632.05728-.2448.07175-.28.02933-.5714.11542-.8517.04552-.5372-.1257-1.0738-.08128-1.6222-.07936-5.9977.02109-11.9722.01375-17.9467.00641-3.349-.0024-11.4076-2.04385-12.485 3.48878-.149.7661-.1346 1.5599-.1785 2.354-.1083 2.382-.0298 4.7776.0136 7.1733.1211 7.8959.3356 15.7915.62 23.6727.0392 1.2048.0902 2.4238.2228 3.6284.1084.9494.0544 2.1972.6754 2.9322.211.2544.3635.4949.5512.7919.3755.5799.8905 1.0176 1.4517 1.3275 1.2042.6762 2.5934.8556 3.9239.9219 4.3417.2399 8.6715.4373 13.0011.578 4.3647.1548 8.7177.2954 13.0821.3793 4.3645.0839 8.7172.1395 13.0813.1525 3.9558.0144 7.9116.0147 11.8673.0149l6.0561-.0213c2.182-.0076 4.8162-.8391 6.8277.4155 1.0057.6202 1.8494 1.6238 2.3322 2.8697-.0852-1.0063-.0655-2.0271.0593-3.034 1.586-.275 3.1724-.4507 4.7709-.4846.6884-.0166 1.354.1086 2.0424.092.8051-.0028 1.6219-.0199 2.427-.0227 3.2438-.0398 6.488-.0795 9.731-.1335 2.007-.0354 4.014-.0708 6.033-.1062 4.364-.0721 8.716-.215 13.079-.4288.782-.0453 1.575-.0764 2.357-.1217 6.008-.3046 12.016-.7511 18.012-1.3534.513-.0585 1.003-.1169 1.481-.232.769-.187 1.492-.5156 2.119-1.17.768-.7965 1.512-1.6498 2.021-2.7006.823-1.6899.606-3.6172.588-5.5309zm-3.243 3.6689c-.313.6391-.894 1.2791-1.371 1.7627-.116.1139-.291.2562-.745.3571-.339.0862-.735.1301-1.132.1741-5.75.5731-11.77 1.0195-17.883 1.3529-.782.0453-1.552.0764-2.334.1075-4.573.2145-8.82.357-12.997.4284-12.4034.2279-24.6202.3701-36.3355.4113-5.251.0185-10.5019.0228-15.7646-.0012-4.3176-.0274-8.7169-.0686-13.0347-.1527-4.3177-.084-8.7057-.2104-13.0354-.3653-4.3296-.1548-8.6945-.3521-12.9661-.5923-.9453-.0392-2.0192-.1488-2.7792-.5715-.1871-.1127-.2808-.1975-.3042-.2257-.1408-.2264-.3168-.4951-.5162-.7779-.0121-.1417-.0243-.2976-.0365-.4252-.0242-.2551-.0367-.496-.0609-.737-.1086-1.0203-.1473-2.0692-.1984-3.3308-.2958-7.796-.5104-15.7342-.6197-23.5734l-.0163-1.3326c-.0419-1.942-.0716-3.7707.0154-5.5714.011-.1985.0102-.4112.0211-.638.0101-.4395.0204-.8365.0663-1.0635.1033-.4824 1.2217-.9825 3.5438-.9906 1.1435-.0041 2.3691.105 3.443.2005.9222.096 1.7976.1638 2.5444.1612 5.3327.0096 10.677.005 16.0213-.0138l2.9988-.0106c3.9907-.014 7.9814-.0139 11.9839.0004l3.8508.0148c2.8122.0185 5.6361.0227 8.4483.0128 1.1785-.0041 2.3687-.0083 3.5705-.0267 2.9755-.0388 5.9392-.0634 8.9148-.0739 10.0701-.0354 20.3393.0703 30.2583.163 7.783.0718 15.846.1427 23.735.1575l.385.0128c.7-.0024 1.376-.019 2.077-.0214.676-.0166 1.353-.019 2.018-.0213.98-.0035 1.797.0078 2.533.0478l.081-.0003c2.136.1201 3.128.2442 3.715 1.0785.598.8485 1.009 1.6268 1.292 2.3772.212.5804.212.7364.213.9632-.009.7372.087 1.3748.147 1.885.012.1417.036.3117.06.4534.217 2.1541.213 4.3657.222 6.7189-.009.7372-.007 1.4744.007 2.2116l.161 15.8204c.013.3544.014.6805.027 1.0065.016 1.1199.042 2.1121-.224 2.6376z" fill="url(#e)"/><g fill="#eb924d"><path d="m11.2884 30.6763 3.5676-.8774-.1531-.4105-3.6971.5517z"/><path d="m145.618 17.2604 4.144.4107-.004-1.1341-4.48.2567z"/><path d="m145.984 38.9349 4.589 1.0471-.096-.8928-4.926-.5072z"/><path d="m132.562 34.2185c-3.497-2.3552-9.294-1.6118-12.048 1.5876-1.732 2.0192-1.812 5.7763.027 7.7687 4.041 4.3947 11.106 2.4844 13.642-2.9683.047-.0569.093-.1138.151-.1565 1.941-2.1475.54-5.7009-1.772-6.2315z"/></g><path d="m133.382 32.1316c-3.497-2.3552-9.294-1.6118-12.048 1.5876-1.732 2.0192-1.812 5.7763.027 7.7687 4.041 4.3947 11.106 2.4844 13.642-2.9684.047-.0568.093-.1137.151-.1564 1.942-2.1475.541-5.7009-1.772-6.2315z" fill="url(#f)"/><path d="m132.558 33.4812c-3.497-2.3552-9.294-1.6118-12.048 1.5876-1.732 2.0192-1.812 5.7763.027 7.7687 4.041 4.3947 11.106 2.4844 13.642-2.9683.047-.0569.093-.1138.151-.1565 1.941-2.1475.54-5.7009-1.772-6.2315z" fill="url(#g)"/><path d="m119.26 25.5327c-2.21-1.495-5.861-1.0143-7.592 1.0049-1.093 1.2655-1.143 3.6474.017 4.905 2.553 2.7696 7.007 1.5631 8.605-1.8732.035-.0285.058-.0711.093-.0996 1.22-1.3652.337-3.602-1.123-3.9371z" fill="#eb924d"/><path d="m119.78 24.226c-2.211-1.4949-5.861-1.0142-7.593 1.0049-1.092 1.2656-1.142 3.6474.017 4.905 2.554 2.7697 7.007 1.5632 8.605-1.8732.035-.0284.059-.0711.093-.0995 1.221-1.3794.338-3.6162-1.122-3.9372z" fill="url(#h)"/><path d="m119.26 25.0639c-2.21-1.4949-5.861-1.0143-7.592 1.0049-1.093 1.2797-1.143 3.6474.017 4.905 2.553 2.7697 7.007 1.5632 8.605-1.8732.035-.0285.058-.0711.093-.0995 1.22-1.3653.337-3.6021-1.123-3.9372z" fill="url(#i)"/><path d="m29.5105 40.2221c-2.2107-1.4949-5.8613-1.0143-7.5929 1.0049-1.0924 1.2656-1.1424 3.6474.0173 4.905 2.5535 2.7697 7.0068 1.5632 8.605-1.8732.0349-.0284.0581-.0711.093-.0995 1.2204-1.3653.3374-3.6021-1.1224-3.9372z" fill="#eb924d"/><path d="m30.03 38.9018c-2.2106-1.4949-5.8613-1.0143-7.5928 1.0049-1.0924 1.2797-1.1424 3.6474.0172 4.905 2.5535 2.7697 7.0068 1.5632 8.605-1.8732.0349-.0285.0581-.0711.093-.0995 1.2204-1.3653.3374-3.6021-1.1224-3.9372z" fill="url(#j)"/><path d="m29.5105 39.7544c-2.2107-1.495-5.8613-1.0143-7.5929 1.0048-1.0924 1.2798-1.1424 3.6474.0173 4.9051 2.5535 2.7696 7.0068 1.5631 8.605-1.8732.0349-.0285.0581-.0711.093-.0996 1.2204-1.3652.3374-3.602-1.1224-3.9371z" fill="url(#k)"/><path d="m12.3102 17.5136c-.0117-3.3137 2.6651-6.0094 5.9788-6.021l118.757-.4176c5.523-.0195 10.016 4.4419 10.036 9.9647l.08 22.9999c.02 5.5228-4.441 10.0157-9.964 10.0351l-116.7578.4106c-4.4182.0155-8.0125-3.5536-8.0281-7.9718z" fill="#eb924d" opacity=".9"/><path d="m71.3436 28.9233c.0626.0154.1721.054.3286.116.1408.0464.2426.1241.3055.2333.0782.031.1487.0698.2113.1164.0626.0311.1253.0777.188.14.1566.1088.2272.1711.2116.1868 0 0 .0001.0156.0002.0468.141.1089.2115.1712.2116.1868.0313.0311.0705.0701.1176.1168.047.0467.0862.0856.1176.1167.0785.1091.1256.1793.1413.2105.0314.0311.0628.0623.0941.0934.0786.1404.1258.2261.1415.2573.0313.0155.0549.0389.0706.0701.1569.1869.2512.3272.2827.4209.0472.0779.0944.1637.1416.2573.063.1404.1023.2184.118.234.0156-.0001.0313.0077.0469.0232.0474.1405.0868.2341.1182.2809.047.0467.0863.109.1179.187.0785.1248.1493.2651.2124.4212.0786.156.1496.3276.2127.5149.1104.2964.1974.5852.2609.8662.0004.1094.0085.1953.0243.2578.0789.2028.1184.3433.1187.4214s.0084.1641.0243.2578c.0316.078.0475.156.0477.2342.0003.0781.0084.1562.0243.2342.0316.1093.0634.2655.0954.4685.0004.125-.0069.25-.0221.375.0004.1094.0008.2266.0012.3516-.0152.1251-.0226.2345-.0223.3282.016.0937.0085.1953-.0223.3048-.0308.1407-.0461.2423-.0458.3048.0002.0625-.0074.1329-.0227.2111-.0308.1251-.0462.2111-.046.2579-.031.0783-.062.1487-.093.2113-.0155.0469-.0387.1095-.0697.1877-.0308.1251-.0539.2112-.0694.2581-.0308.1251-.0773.2268-.1395.3052-.0466.0783-.1088.1644-.1866.2584-.0466.094-.101.1723-.1632.235-.0467.0627-.0934.1253-.14.188-.1088.1722-.1943.2897-.2566.3525-.0466.0626-.0933.1331-.1399.2114-.1244.1567-.1944.2429-.21.2585-.0156.0001-.0312.0158-.0467.0471-.0622.0783-.1322.1645-.21.2585-.0779.0784-.1636.149-.2571.2119-.0776.1565-.1476.2505-.21.282-.0467.0314-.1091.0707-.187.1178-.0624.0471-.1169.102-.1635.1646-.2497.0947-.3979.1577-.4447.1891l-.2339.118c-.2341.0946-.3823.1654-.4446.2125-.0624.0315-.1326.0708-.2105.118-.0624.0314-.1716.0787-.3277.1417-.0935.0472-.1638.0709-.2106.0711-.0313.0001-.0625.008-.0937.0238-.1248.0473-.2029.071-.2341.0711-.0157 0-.0391.0079-.0703.0237-.1717.0475-.2888.0713-.3513.0715s-.125.0083-.1874.0241c-.2029.0632-.359.095-.4684.0954-.1876-.0149-.3126-.0145-.375.0013-.0468.0158-.1093.0317-.1873.0476-.2343.0477-.4686.0485-.7032.0024-.1717.0319-.3123.048-.4217.0484-.0468.0002-.0937.0003-.1406.0005-.0468.0158-.0859.0237-.1171.0238-.0625.0003-.1172-.0152-.1642-.0463-.0313-.0155-.0782-.0231-.1407-.0229-.0626-.0154-.1798-.0228-.3517-.0222-.0938-.0153-.1876-.0306-.2814-.0459s-.1876-.0306-.2814-.0459c-.0469-.0154-.1016-.023-.1641-.0228-.0469.0001-.0938-.0075-.1408-.023-.1094-.0308-.1954-.0462-.2579-.0459-.2034-.0774-.2973-.1162-.2817-.1162-.219-.0618-.3363-.1004-.352-.116-.1875-.015-.3126-.038-.3752-.069-.1721-.0619-.2738-.0928-.305-.0927l-.2582-.1162c-.1879-.0931-.313-.1396-.3755-.1393-.1565-.0464-.2582-.0929-.3052-.1396-.1721-.0619-.2738-.1006-.3051-.1161s-.0626-.031-.0939-.0466c-.1568-.1557-.2665-.2412-.3291-.2566-.0626-.031-.1096-.0778-.1411-.1401-.1721-.0776-.266-.1241-.2817-.1397-.0001-.0156-.0079-.0312-.0236-.0468-.094-.0621-.1724-.1478-.2353-.257-.1253-.0933-.2194-.1945-.2823-.3037-.094-.0777-.1568-.1478-.1883-.2102-.1099-.1559-.1649-.2416-.1649-.2573-.0001-.0156-.008-.0312-.0236-.0468-.1101-.1871-.1807-.2884-.212-.3039-.0158-.0312-.0315-.0702-.0473-.117-.0471-.0467-.1019-.0934-.1646-.1401-.0471-.0623-.0708-.1403-.0711-.2341-.1254-.0933-.2038-.179-.2353-.257-.0473-.1092-.0709-.1794-.0711-.2107.0156-.0313.0233-.0626.0232-.0938-.1101-.1871-.1887-.3275-.2359-.4211-.0632-.2029-.1027-.3277-.1185-.3745-.0944-.1872-.1574-.3354-.1891-.4447-.0316-.1093-.0633-.2341-.095-.3747-.0161-.1249-.0242-.1952-.0242-.2108.0155-.0157.0155-.0391-.0003-.0703-.0001-.0469-.0081-.0859-.0238-.1171-.0002-.0469-.0082-.0937-.024-.1406.0148-.2344.0066-.3672-.0248-.3983-.0162-.1562-.0321-.2343-.0477-.2342-.0157-.0156-.0236-.039-.0237-.0703-.0004-.125.0071-.2187.0225-.2813.031-.0626.0464-.1252.0462-.1877-.0004-.125-.0008-.2187-.001-.2812.0464-.1252.0696-.2034.0695-.2346.0154-.047.0153-.1016-.0006-.1641.062-.1408.0929-.2425.0927-.305s.0074-.1172.0229-.1641c.0309-.0939.0541-.1565.0696-.1878s.0232-.0626.0231-.0938c.0154-.0782.023-.1329.0229-.1642-.0001-.0312.0075-.0781.0229-.1407.0465-.1095.093-.2034.1396-.2817.0465-.1252.0696-.2112.0695-.2581-.0002-.0468.0074-.0938.0229-.1407.0308-.1407.0617-.2268.0928-.2581.0619-.1721.1007-.2582.1163-.2582.0156-.0001.0234-.0079.0234-.0236.0777-.1252.132-.2114.1631-.2584.0311-.0626.0621-.1174.0932-.1643.031-.0783.062-.1487.093-.2113s.062-.133.093-.2113c.0778-.094.1167-.1488.1166-.1644.0155-.0314.0311-.0627.0466-.094.0777-.1252.1243-.1879.1399-.188.0156-.0156.039-.0392.0701-.0705.0622-.094.0932-.1488.0932-.1644.0155-.0157.0311-.0392.0466-.0705.2334-.2821.3811-.4935.4431-.6344.1248-.0629.2027-.1257.2337-.1883.0624-.0158.1014-.0472.1169-.0941.031-.0627.0621-.1096.0932-.141l.2809-.0947c.1559-.11.2728-.1807.3509-.2122.1091-.0629.1793-.0866.2106-.0711.0469-.0001.0859-.0081.1171-.0238.1247-.1098.187-.1569.187-.1413.0001.0156.0157.0078.0468-.0236.1561-.063.2419-.0946.2575-.0947.0313-.0001.0625-.008.0937-.0237.1247-.0786.2027-.1179.234-.118.0311-.0158.0702-.0315.117-.0473s.0858-.0394.1169-.0707c.156-.0787.2574-.1181.3043-.1183s.0937-.0081.1405-.0239c.1561-.0631.2497-.0947.2809-.0948.0469-.0158.0859-.0237.1172-.0238.3278-.0793.5541-.1426.679-.1899.0938.0153.1797.015.2578-.0009.0936-.0316.1795-.0553.2575-.0712.1875-.0007.3048.0067.3517.0222.0469.0154.0938.0231.1407.0229s.0937-.0081.1405-.0239c.0625-.0159.125-.0239.1875-.0241.2031-.0007.3281-.0012.375-.0013.0468-.0158.0936-.0238.1405-.024.0624-.0158.1171-.016.1641-.0005.0469.0154.1016.023.1641.0228.0468-.0158.0936-.0316.1405-.0474.0624-.0158.1327-.016.2109-.0007.0938.0153.1798.0306.258.046.0782.0153.1251.023.1407.0229.1875.015.297.0302.3283.0457.0781.0154.1641.0307.2579.046.1095.0152.2267.0305.3518.0456.1719.0151.2579.0226.2579.0226.0155-.0157.039-.0158.0703-.0003.1408.062.2269.1008.2582.1163.0469-.0002.0859-.0003.1172-.0004.0625.0154.1251.0308.1876.0462.0782-.0003.1408.023.1878.0697.2191.0929.3443.155.3756.1861zm-3.3155 3.5976c-.1563-.0307-.2345-.0383-.2344-.0226 0 .0156-.0078.0234-.0234.0235-.1562.0162-.2421.0321-.2576.0478-.0156.0157-.039.0235-.0703.0237-.0623.0314-.1326.0551-.2106.071-.0625.0002-.1094.016-.1405.0474-.1559.0943-.2417.1415-.2573.1415-.0156.0001-.0391.008-.0702.0237-.1405.0474-.2107.0789-.2107.0945 0 0-.0156.0079-.0467.0236-.0936.0628-.1793.1334-.2571.2118-.1091.0785-.1948.1492-.2571.2119-.0467.047-.0856.0862-.1168.1176-.1245.141-.1867.2194-.1866.235-.0933.1253-.1711.2194-.2334.2821-.1088.1566-.1632.2584-.163.3052.0002.0469-.0153.0938-.0464.1408-.1245.1411-.1944.2585-.2097.3523-.0466.0783-.0932.1488-.1399.2115-.0311.0469-.0465.1017-.0463.1642.0164.2031.0168.3281.0014.375.0001.0312.0002.0703.0004.1172.0007.2031.0247.3593.0719.4685.0317.1249.0634.2497.0951.3746.0473.1249.1024.2497.1654.3745.0943.1715.1337.2651.1181.2808.0001.0156.008.0312.0236.0468.0786.1247.1257.187.1413.187.0157-.0001.0313.0077.047.0233.1254.1245.196.1868.2116.1867.0156 0 .0391.0077.0704.0232.0784.0779.1568.1635.2353.257.094.0778.2035.1243.3286.1395l.3052.163c.047.031.094.0465.1408.0463.0469-.0001.0938.0075.1407.023.0939.0465.1565.0697.1878.0696.0312-.0157.0624-.0158.0937-.0003.1408.0464.2347.0695.2815.0693.0468-.0158.0859-.0237.1171-.0238.1564.0463.2503.0694.2815.0693.0468-.0158.0937-.0238.1406-.0239.0625-.0002.1406-.0005.2343-.0009.1094-.016.2031-.0241.2812-.0244l.4216-.0718c.1405-.0473.2029-.0788.1872-.0944-.0001-.0156.0155-.0235.0468-.0236.1093-.016.1951-.0554.2574-.1181.1402-.1098.2572-.1649.351-.1653.0776-.1565.1553-.2583.2333-.3055.0932-.1409.132-.2114.1164-.2113 0-.0157.0077-.0313.0233-.047.0465-.1095.0854-.1644.1166-.1645.0312-.0157.0546-.0392.0701-.0705.0465-.0939.0697-.1565.0696-.1878.0155-.0313.0311-.0548.0467-.0704l.1629-.3287c.0932-.141.1396-.2662.1393-.3755.0618-.1878.0848-.3207.0689-.3987-.0003-.0781-.0006-.1563-.0008-.2344-.0159-.0781-.0318-.1483-.0477-.2108-.0158-.0624-.0317-.1327-.0476-.2107-.0158-.0625-.0238-.1093-.0239-.1406.0154-.0469.0153-.086-.0004-.1172-.0315-.0624-.0629-.1091-.0943-.1403-.0158-.0468-.0237-.0936-.0239-.1405-.0942-.1247-.1413-.1948-.1414-.2104 0-.0157-.0079-.0313-.0236-.0468-.0785-.1091-.1177-.1637-.1177-.1637-.0001-.0156-.008-.039-.0237-.0702-.0471-.0624-.0942-.1169-.1412-.1636-.0315-.0624-.0708-.1247-.1179-.1871-.1097-.109-.1724-.1712-.1881-.1868-.0001-.0156-.0158-.0312-.0471-.0467-.1567-.1245-.2663-.2022-.3289-.2332-.047-.0467-.0863-.1013-.1178-.1637-.1721-.0775-.313-.1395-.4225-.186-.1565-.0776-.2348-.1242-.2349-.1398.0155-.0313.0155-.0469-.0001-.0469l-.3051-.0927c-.1252-.062-.2035-.1086-.2348-.1398zm13.5407-1.782c.1403-.1099.2182-.157.2339-.1415.0156 0 .0234-.0079.0234-.0235.1246-.1098.2025-.1804.2336-.2117.0936-.0473.1482-.0787.1637-.0944.0312-.0157.0624-.0314.0936-.0472l.3273-.2355c.0624-.0315.1091-.0707.1402-.1177.0467-.0627.0933-.1253.14-.188.1715-.0943.2651-.1494.2807-.165.0622-.0627.1168-.102.1636-.1178s.0858-.0394.1169-.0707c.2026-.1726.3662-.2826.4911-.3299.0622-.0783.1323-.1333.2103-.1648.078-.0471.1481-.1099.2103-.1882.1093-.0316.1873-.071.234-.118.0779-.0628.1324-.1021.1636-.1178.0468-.0314.0936-.055.1404-.0708.1874-.0163.289-.0245.3046-.0245.1251.0152.211.0227.2579.0225.1097.0934.1724.14.188.14.0312-.0001.0625.0154.0939.0465.0314.0312.0705.0623.1175.0934.0469.0154.0861.0387.1175.0699l.2115.1633c.1409.0776.2113.1242.2114.1399 0 0 .0078.0078.0235.0233.094.0778.1645.1323.2115.1633.047.0311.0784.0701.0942.1169.1095.0465.1957.1087.2585.1866.0783.0622.1567.1323.2351.2101.1722.1088.2819.1787.3288.2098.047.0311.0862.0622.1176.0933.1251.0465.2191.1243.282.2334.0629.1092.157.1948.2822.2568.1254.1246.1881.1869.1881.1869.0315.0467.0629.1013.0944.1637.0471.0623.0863.1169.1177.1637.1255.1401.1961.2258.2119.257.0157.0156.0392.039.0705.0701.0785.0935.1491.187.212.2805.0629.1248.1181.2574.1654.3979.063.1404.1338.2729.2124.3976-.0308.1252-.0226.2579.0248.3984l.0243.2577c.0004.1094.0085.1875.0243.2343s.0237.0859.0239.1171c.0314.0468.0315.0937.0004.1407-.0154.0469-.023.1016-.0228.1641.0163.1874.0167.3124.0013.375.0002.0469.0003.0937.0005.1406.0001.0313.0002.0703.0004.1172.0158.0468.016.1015.0006.1641-.0305.2032-.0535.3439-.0688.4221.0002.0625.0083.1484.0243.2577.0006.1719-.0146.2969-.0456.3752-.0154.0625-.0229.1329-.0226.211.0162.1874.0245.3046.0246.3515.0158.0312.0237.0624.0238.0936l-.0215.5626c.0162.1562.0165.2343.0009.2344v.0234c.0161.125.0164.1953.0008.211 0 0 0 .0156.0001.0468.0002.0469.0004.0938.0005.1407.0158.0468.0238.0936.024.1405.0004.1094.0006.1797.0007.2109.0157.0156.0236.0312.0236.0468-.0464.1408-.0695.219-.0695.2347.0157.0155.0236.0389.0237.0702.0002.0625.0005.125.0007.1875.0158.0468.0238.1015.024.164.0003.0781-.0073.1562-.0226.2344.0003.0781.0005.1563.0008.2344l.0009.2578c.0477.2342.0718.4294.0724.5857.0005.1562.0089.3125.0251.4687.0005.1406.0007.2187.0008.2343.0157.0156.0236.039.0237.0703.0162.1718.0246.3436.0252.5155s.0012.3359.0018.4922c.0001.0469.0081.0937.0239.1405s.0159.0937.0005.1406c-.0155.047-.031.0861-.0465.1174-.0156.0157-.0389.0548-.0699.1174-.312.1261-.5071.1971-.5852.213-.078.0316-.1717.0319-.2812.001-.0781.0003-.1797-.0072-.3048-.0223-.1094.0003-.2031.0085-.2812.0244-.1719-.015-.2891-.0224-.3516-.0222-.0468.0158-.1015.0238-.164.024l-.3984.0014c-.0781.0003-.1563.0005-.2344.0008-.0624.0159-.1249.0161-.1875.0007-.1564-.0463-.2424-.0695-.258-.0694-.0313.0001-.0704.0002-.1172.0004-.0468.0158-.1093.0238-.1874.0241-.1876-.015-.297-.0146-.3282.0011-.0155.0157-.039.0158-.0703.0003-.0311.0313-.0779.0471-.1404.0473-.0625.0003-.1329.0005-.211.0008-.1405.0317-.2499.0243-.3282-.0223-.141-.1245-.2429-.2101-.3056-.2567-.0002-.0782-.0083-.1563-.0242-.2343-.0159-.0781-.0241-.164-.0244-.2578l.0458-.3048.0226-.2579c.0155-.0313.0231-.0704.023-.1173.0154-.0469.0387-.1095.0696-.1877.0155-.0469.0232-.086.0231-.1173.0154-.0469.0308-.1095.0462-.1876-.0007-.1875.0067-.3204.022-.3986.0153-.0938.0228-.1797.0225-.2579-.0163-.203-.009-.3359.0221-.3985-.0006-.1718.0069-.2656.0224-.2813-.0161-.1562-.0165-.2499-.001-.2813.0156-.0313.0233-.0625.0231-.0938-.0006-.1875-.001-.289-.001-.3047.0155-.0156.0233-.0313.0232-.0469-.0318-.1718-.0478-.2655-.0478-.2811.0156-.0157.0233-.0313.0233-.047-.0002-.0468-.0082-.0937-.024-.1405-.0002-.0625-.0004-.1328-.0007-.2109l-.0011-.3047c-.0162-.1718-.0245-.3046-.0248-.3984-.0319-.1874-.048-.3123-.0482-.3748.0154-.0626.023-.1173.0228-.1642-.0007-.2187-.0013-.3828-.0017-.4921-.0004-.125-.0164-.2265-.0479-.3046.0311-.0313.0387-.0782.0229-.1407-.0002-.0625-.0004-.1172-.0006-.164.0151-.1563.0069-.2735-.0246-.3515-.016-.0937-.0085-.1719.0226-.2345-.0162-.1405-.0321-.242-.048-.3045-.0002-.0625-.0316-.1093-.0942-.1403-.1411-.1245-.2117-.2024-.2118-.2336-.2032-.0149-.3749.0169-.5153.0955-.1089.1411-.1711.2116-.1867.2116-.1089.1567-.1944.2585-.2568.3056-.0467.0471-.0934.1019-.14.1646-.1245.1567-.2023.2507-.2334.2821-.1715.0943-.2963.1729-.3742.2357-.0623.0627-.1403.0864-.2341.0711-.0781.0003-.1485-.0229-.2112-.0696-.0471-.0623-.1097-.109-.188-.1399-.0315-.0781-.0708-.1404-.1178-.1871-.0471-.0467-.0863-.1091-.1179-.1871-.1099-.1559-.1649-.2338-.1649-.2338.0157-.0001.0156-.0079 0-.0234-.0787-.1404-.1651-.2729-.2593-.3976-.0311.0314-.0466.0705-.0464.1174.0001.0468.0003.0937.0005.1406l.001.2812.0018.5157c.0003.0781-.0073.1641-.0226.2579.0004.0937.0007.1875.001.2812.0008.2031.0014.3984.0021.5859.0163.1875.0248.3828.0255.5859.0315.078.0474.1639.0478.2576.0003.0782.0006.1641.0009.2579l.0243.2577c.0002.0625.0004.1172.0006.164.0157.0312.0237.0625.0238.0937.0162.1718.0166.2734.001.3047-.0155.0313-.0232.0626-.0231.0938.0004.0938.0164.2187.0482.3749-.0154.0625-.0229.1329-.0227.211.0159.078.024.1483.0242.2108.0158.0469.016.0937.0005.1407.0002.0468.0003.0937.0005.1406.0162.1562.0322.2655.048.3279.0158.0469.0238.0859.0239.1171.0322.2812.0485.4608.0487.5389.0158.0469.016.1015.0006.1641.0002.0469.0082.0937.024.1405.0318.1562.0399.2421.0243.2578.0001.0156.0001.039.0002.0703l.0716.3513c-.0151.1563-.0226.2423-.0225.2579.0156.0156.0235.039.0237.0702-.0463.1721-.0693.2971-.069.3753.0002.0781-.023.1329-.0698.1643-.1562.0161-.2733.0244-.3515.0246-.078.0159-.1483.0396-.2106.0711-.2656.0322-.4765.0251-.6329-.0212-.1564-.0307-.2424-.046-.258-.046-.0156.0157-.039.0236-.0702.0237-.0625.0002-.1094-.0074-.1407-.0229-.0313.0001-.0782.0002-.1407.0005-.1875-.015-.3047-.0224-.3516-.0222-.0313.0001-.0704-.0076-.1173-.0231-.0781.0003-.164.0006-.2578.0009-.0782-.0153-.1564-.0307-.2345-.046-.1877-.0462-.3596-.0534-.5157-.0216-.1406.0317-.2498.0555-.3279.0714-.1094.0004-.1797.0007-.2109.0008-.0157-.0156-.0392-.0155-.0704.0002-.0468.0002-.0937.0082-.1405.0239-.0313.0002-.0782-.0075-.1407-.0229-.125.0004-.2265.0164-.3045.0479-.1721-.0618-.266-.0928-.2816-.0927 0 0-.0079-.0156-.0236-.0468-.0472-.078-.0864-.1325-.1178-.1637-.0157-.0311-.0237-.0702-.0238-.1171.0147-.25.0141-.4297-.0019-.539-.0005-.125.0069-.2422.0222-.3517-.0007-.1875-.0011-.3046-.0013-.3515.0155-.0626.0309-.1173.0463-.1642.0303-.2814.0609-.4612.0919-.5394.0149-.2032.0144-.336-.0014-.3985-.0158-.0624-.0161-.1249-.0007-.1875-.0006-.1718.0069-.2656.0225-.2813.0155-.0313.0232-.0626.0231-.0938l-.0245-.3046c-.0003-.0938-.0006-.1797-.0009-.2578-.0003-.0782-.0162-.1484-.0476-.2108.015-.1719.0068-.2891-.0247-.3515-.0159-.0781-.0083-.125.0229-.1407.0152-.1407.0227-.2188.0226-.2345 0-.0156-.0079-.039-.0236-.0702-.0002-.0469-.0004-.0937-.0005-.1406.0154-.0469.0231-.086.023-.1173-.0002-.0625-.0082-.1093-.0239-.1405-.0158-.0468-.0082-.0937.0229-.1407-.0005-.1563-.001-.2735-.0012-.3516-.0004-.0937-.0007-.1797-.0009-.2578-.0003-.0781-.0084-.1484-.0242-.2109-.0159-.0624-.0239-.1171-.024-.1639.0149-.2032.0066-.336-.0249-.3984.0154-.0625.0231-.1173.0229-.1641-.0002-.0625.0074-.1251.0228-.1876l-.001-.2813-.0018-.4921c-.0004-.125-.0085-.211-.0243-.2578-.0002-.0625-.0004-.1172-.0006-.164-.0318-.1562-.0478-.2811-.0482-.3749-.0004-.1093-.0007-.2031-.001-.2812.0152-.1251.015-.2032-.0008-.2344-.0158-.0468-.0002-.0625.0467-.047-.0165-.25-.0405-.4218-.0721-.5154-.016-.0937-.0084-.1797.0225-.2579-.0157-.0312-.0315-.0702-.0473-.117-.0157-.0468-.0237-.1015-.024-.164.0152-.1407.0149-.2266-.0009-.2578-.0157-.0312-.0236-.0624-.0237-.0937-.0008-.2031-.0013-.3593-.0017-.4687-.0162-.1718-.0244-.2812-.0246-.3281.0154-.0625.023-.125.0228-.1875l-.0012-.3516c-.0161-.1249-.0242-.2187-.0245-.2812-.0319-.1874-.0479-.3045-.0481-.3514-.0001-.0468-.0081-.0937-.0239-.1405l-.0246-.328c-.0161-.1406-.0167-.2969-.0016-.4688.14-.1724.2022-.2585.1865-.2585.1873-.0787.3043-.1182.3512-.1184.1875.015.3047.0146.3516-.0012.0468-.0158.1014-.0316.1639-.0475.125-.0004.203-.0085.2342-.0242.0312-.0158.0625-.0237.0937-.0238.0468-.0158.0937-.016.1406-.0005.0626.0154.1094.0074.1406-.0239.2188.0148.3751.0221.4688.0218.0938-.0004.1796-.0163.2577-.0478.0468-.0158.1093-.016.1874-.0007.0782.0154.1408.0464.1879.0931.078-.0315.1483-.0396.2108-.0242l.1875-.0006c.172.0306.3127.0457.4221.0454.1249-.0161.2343-.0087.3282.0222.078-.0315.1717-.0396.2811-.0244.1095.0153.2032-.0007.2811-.0478l.2815.0693c.1568.1557.2667.2959.3296.4207.0629.1092.0477.2186-.0457.3283-.0308.1407-.0537.2814-.0688.4221-.0152.1251-.0382.2658-.0689.4221-.0149.1876-.0302.297-.0457.3283.0001.0313-.0076.0625-.0231.0938-.0153.0782-.0229.1486-.0227.2111.0159.0624.0083.1327-.0227.211zm17.0882.6196c-.1403.0786-.2183.1258-.2338.1414 0 0 0 .0078.0001.0235-.2497.0946-.4292.1499-.5385.1659-.1094.016-.2108.0476-.3044.0948-.2027.1101-.3352.1965-.3975.2593-.1402.1255-.2571.2196-.3506.2824-.1397.2505-.2563.4228-.3497.5169-.0935.0941-.1399.2114-.1394.3521.0471.0779.0708.1403.0709.1872.0002.0313.0081.0625.0238.0937.0001.0312.0081.0703.0239.1171s.016.1093.0006.1875c.0314.0311.055.0701.0707.1169.0314.0312.0628.0623.0941.0934.0471.0624.0865.1404.118.234.0316.0936.0632.1795.0947.2575.0782.031.1409.0854.1881.1634.0471.0779.102.1402.1647.1869.0786.1404.1336.2261.165.2572.0942.1403.1491.2105.1648.2104.1411.1401.2275.2648.2591.3741.0314.0468.0628.0857.0942.1168.0469.0311.0861.0622.1175.0934l.1885.2806.2589.3272c.0315.078.0552.1326.0709.1638.0157.0156.0314.039.0471.0701.0474.1405.0789.2185.0946.2341.0313.0155.047.0389.0471.0701l.0714.3045c.0788.1872.1105.3121.0951.3746.0001.0469.0081.0938.0239.1406.0473.1248.0789.2107.0947.2575l.0478.2576c-.0929.2503-.1702.5006-.2318.7508-.0931.1722-.1631.274-.2099.3055-.0311.0157-.0466.0548-.0464.1173-.1247.0942-.1948.157-.2103.1883.0001.0312-.0155.0391-.0468.0236-.0932.1409-.1398.2192-.1398.2348.0001.0157-.0155.0391-.0466.0705-.0311.047-.0778.0862-.1402.1177-.0468.0314-.0857.0784-.1167.141-.1561.0474-.2729.1494-.3505.3059-.109.0942-.187.1569-.2337.1884-.0468.0158-.0858.055-.1168.1176-.1405.0317-.2496.1024-.3274.2121-.0621.0939-.1556.1646-.2805.2119-.0467.047-.0934.0941-.1401.1411-.0468.0314-.0935.0706-.1402.1177-.0936.0472-.1482.0864-.1637.1177.0001.0313-.0076.0548-.0232.0704-.0936.0316-.156.0553-.1872.071-.0156.0001-.039.0158-.0702.0471-.1715.0944-.265.1728-.2804.2354-.1093.016-.1951.0476-.2575.0946-.0622.0628-.1324.1099-.2104.1414-.1246.1098-.2181.1805-.2805.2119-.0468.0315-.0858.0472-.117.0473-.1718.0319-.2733.0635-.3044.0948-.0311.0314-.0623.0628-.0934.0941-.0936.0316-.1561.0553-.1873.071s-.0624.0315-.0935.0472c-.0937.0316-.1639.0553-.2107.0711-.0312.0313-.0624.0471-.0936.0472-.1094.0003-.1876-.015-.2346-.0461-.0313-.0311-.0861-.0544-.1643-.0697-.0314-.0624-.0707-.1248-.1178-.1871-.0315-.0624-.0785-.1091-.1411-.1401-.0472-.078-.0865-.156-.118-.234-.0628-.0779-.1099-.1324-.1412-.1636-.0158-.0312-.0393-.0467-.0705-.0466-.0787-.156-.1338-.2652-.1652-.3275-.0945-.2028-.1809-.3432-.2593-.421-.0786-.1404-.118-.2183-.118-.234-.0001-.0156-.008-.0312-.0236-.0468-.0315-.0467-.0628-.0857-.0942-.1168-.0157-.0312-.0315-.0702-.0473-.117-.094-.0778-.1647-.1713-.2119-.2805-.0473-.1249-.1102-.2262-.1886-.3041l-.165-.2572c-.0942-.1403-.1492-.2182-.1648-.2338-.0157-.0156-.0158-.039-.0003-.0703-.0786-.1404-.1258-.234-.1416-.2808-.0787-.1559-.1181-.2574-.1183-.3042-.0316-.1249-.0397-.1952-.0241-.2109.0155-.0157.0311-.0392.0466-.0705.0309-.1095.0463-.172.0462-.1876-.0001-.0313.0076-.0626.0231-.0939.0622-.0783.1324-.1332.2104-.1648.1872-.0788.312-.1261.3745-.1419.0624-.0159.117-.0395.1638-.0709.1717-.0475.2731-.0869.3043-.1183.0467-.0314.1091-.055.1872-.0709.1716-.0944.2729-.1494.3041-.1652.0312-.0313.0701-.0549.117-.0707.0311-.0314.0623-.0471.0935-.0472.0469-.0158.0937-.0394.1404-.0708.0468-.0314.0857-.0628.1169-.0942.0311-.0469.0622-.0939.0932-.1409.0935-.0941.1401-.1568.14-.188.0155-.0313.0389-.0392.0702-.0237.0774-.219.1316-.3598.1626-.4224.0467-.0627.062-.1487.046-.258-.0002-.0625-.0162-.1562-.0479-.2811-.0315-.0624-.0707-.1169-.1178-.1637-.047-.0467-.0628-.1091-.0475-.1873-.1256-.1714-.2041-.2727-.2354-.3039-.0314-.0467-.0785-.0856-.1411-.1166-.1254-.1246-.2039-.2259-.2354-.3039-.0941-.109-.1569-.1713-.1882-.1868-.0313-.0156-.0548-.0389-.0705-.0701-.0314-.0468-.0628-.0857-.0942-.1169-.0314-.0311-.0627-.0622-.0941-.0934-.0786-.156-.1258-.2339-.1414-.2339 0 0 0-.0078-.0001-.0234-.141-.1089-.2194-.1789-.2351-.2101-.0001-.0313-.008-.0625-.0238-.0937-.1099-.1402-.1805-.2259-.2118-.257-.0314-.0312-.0628-.0701-.0942-.1169-.0784-.0779-.149-.1635-.2118-.2571-.0472-.0936-.11-.1793-.1884-.2571-.0164-.2187-.103-.3903-.2597-.5147-.0943-.156-.1414-.2417-.1415-.2574.0156-.0156.0155-.0391-.0002-.0703-.0475-.1561-.0713-.2732-.0716-.3513.0153-.0938.0228-.1954.0224-.3048-.0162-.1718-.0088-.289.0222-.3516.0153-.0782.0307-.1642.0459-.258.0153-.0938.0385-.1876.0694-.2815.0773-.219.1471-.3599.2094-.4226.0777-.1253.1243-.2035.1398-.2348.0312-.0314.0623-.0706.0934-.1176.0622-.0627.1012-.1019.1167-.1176.0312-.0313.0623-.0627.0935-.094.1244-.1567.21-.2586.2567-.3056.078-.0472.1325-.0943.1636-.1412.031-.0626.0778-.0941.1403-.0943l.2801-.3291c.0934-.0784.148-.1177.1636-.1178.0156-.0156.0311-.0391.0466-.0704.0778-.1097.1634-.1959.2569-.2588.1248-.0785.1949-.1256.2105-.1413.0155-.0157.0389-.0314.0701-.0471.1403-.0943.2183-.1414.2339-.1415.109-.0941.1792-.1491.2104-.1648.0311-.0313.0623-.0549.0935-.0706.1716-.0631.2731-.0947.3043-.0949.1403-.0942.2729-.165.3977-.2123.0778-.094.1323-.1411.1636-.1412.0469-.0002.0859-.0159.117-.0473.1248-.0473.1951-.071.2107-.071.0312-.0158.0546-.0237.0702-.0237.1405-.0474.2418-.1024.3041-.1651.2029-.0633.3278-.1106.3745-.142.0624-.0315.1248-.0551.1873-.071.1875.015.2891.0146.3047-.001.0155-.0157.0389-.0236.0702-.0237.0938.0153.1798.0306.258.0459.0782.0154.1329.0386.1643.0698.0469.0154.1095.0465.1878.0931.0626.031.1096.0699.141.1167.0314.0311.0706.0622.1176.0933.063.156.1025.2653.1183.3277.0315.0624.0629.117.0943.1637.0786.1248.118.2106.1181.2574l.1653.351.2358.3976c.0631.1717.1182.2887.1653.351.0471.0624.0864.1325.1179.2105.0788.1873.1182.2887.1183.3043 0 .0156.0079.0391.0237.0703.0472.0935.0708.156.0709.1872.0001.0313.0081.0625.0238.0937.0945.2028.1496.3276.1654.3744s.0394.1092.071.1872c.0316.1093.0474.1718.0475.1874 0 .0156.0079.039.0237.0702.0159.0937.024.1718.0242.2343.0158.0468.016.0859.0004.1172z" fill="#693821"/></svg>