<svg fill="none" height="104" viewBox="0 0 120 104" width="120" xmlns="http://www.w3.org/2000/svg" xmlns:xlink="http://www.w3.org/1999/xlink"><clipPath id="a"><path d="m0 0h120v104h-120z"/></clipPath><g clip-path="url(#a)"><path d="m42.7551 96.4836s-13.4478 4.0334-1.5722 3.5504c0 0-.9769 6.148 2.3736.402 0 0 9.0059 8.425.6793-3.7035z" fill="#ff6400"/><path d="m43.8997 96.673c-1.763-.3001-1.389-.2781.3969-.0292.4197.5709.8471 1.1638 1.3738 1.9397.5189.7613 1.099 1.6245 1.6485 2.5985.2671.498.5571.988.7022 1.64.0381.175.0152.527-.2137.651-.2061.154-.5801.051-.7022 0-.3282-.124-.5953-.293-.8624-.461-.5343-.344-1.0227-.732-1.5112-1.127l-.7098-.6-.3511-.308c-.061-.058-.0229-.022-.0381-.029.0916-.147-.2366.402-.4427.71-.2289.344-.4655.681-.7556.995-.1221.132-.2595.271-.4426.388-.1298.117-.5724.278-.8472.059-.29-.242-.3053-.454-.3587-.637-.0382-.183-.0534-.359-.0611-.534-.0152-.344 0-.674.0306-.996l.0534-.476c.0153-.109.0153-.095.0153-.102l.0076-.015h-.0229-.0076-.0687-.1603l-.6182.008c-.4121 0-.809-.008-1.2059-.022-.7937-.052-1.5417-.059-2.2896-.3664-.1756-.0659-.4732-.3367-.3816-.6148.0916-.2855.2442-.3807.3816-.5051.2824-.2123.5724-.366.8548-.5051.5648-.2708 1.099-.4758 1.5875-.6588 1.9614-.6953 3.1749-.9881 3.2055-1.0101 1.4119-.4245.4121-.1025-1.7707.732-.5419.2123-1.1601.4611-1.8241.7613-.3282.1537-.6716.3147-1.0074.4977-.3282.183-.6945.3953-.9082.6441-.0993.1172-.0611.1391 0 .1904.1144.0732.3205.1244.5189.161.4045.0732.8472.0951 1.2975.1098.4503.0146.9082.0073 1.3662 0l1.7782-.0659-.0686.4689-.0458.358-.0382.469c-.0229.314-.0305.629-.0076.929.0076.147.0305.293.061.425.0153.058.0382.117.0611.161s.0152.022.0152.029c-.0915.059.2366-.117.4122-.337.2595-.285.4884-.614.7098-.936l.3205-.498.5114-.8566.7327.6806.4274.388c.29.256.5724.498.8548.732.5647.461 1.1371.922 1.7096 1.208.0686.029.145.066.1984.08.0305.008.0381.015.061.008.0458-.022.0535-.03.0458-.139-.0381-.271-.1526-.571-.2671-.842-.2366-.556-.5113-1.069-.7708-1.545-1.0609-1.8955-1.9157-3.2204-2.2439-3.762z" fill="#fe160b"/><path d="m76.4211 96.322s13.9363 1.9837 2.1294 3.272c0 0 1.9615 5.929-2.282.754 0 0-7.5405 9.662-1.2746-3.5575z" fill="#ff6400"/><path d="m75.3142 96.6877c1.7324-.5709 1.2669-.3733-.2443.183-.4426 1.0541-1.2745 2.8621-1.9538 4.9113-.1603.513-.3358 1.076-.3434 1.574.0076.103.0076.088.0381.11.0458 0 .0076.015.1527-.066.2213-.132.4426-.329.664-.527.4274-.403.8395-.856 1.2287-1.318l.5877-.695.8166-1.032c.6411.769.7633.915 1.0609 1.237.2671.293.5495.571.8319.798.1221.095.2519.183.3587.234.145.059.0916.029.0992.037-.0076.036.0458-.103.0458-.235.0077-.139 0-.285-.0152-.431-.0306-.301-.0916-.608-.1603-.901l-.1145-.446-.0992-.3516-.1374-.4319 1.5951-.1757c.3969-.0512.7938-.1024 1.1677-.161.7404-.1244 1.5112-.2562 2.0378-.5417.2137-.1244.1527-.1976-.1297-.3952-.2519-.1538-.5495-.2782-.8243-.3807-.5648-.2122-1.1143-.366-1.6104-.4977-2.0072-.5197-3.236-.7393-3.2742-.754-1.4653-.2122-.4121-.161 1.9233.2123.5801.0952 1.2441.2196 1.9691.388.3587.0878.7327.183 1.122.3001.3816.1317.7784.2489 1.1753.549.0916.0658.229.2196.2519.3952.0305.1684-.0611.3514-.1908.4685-.2137.1903-.4351.2782-.6488.366-.435.161-.8777.2708-1.3356.366-.4503.0951-.9158.1757-1.3738.2415l-.7021.1025-.3053.0366-.0229.0073.0076.0147.0076.0146.0306.1025.1297.4827c.0763.322.145.652.1832.996.0153.176.0305.344.0153.542-.0077.095-.0229.197-.0535.307-.0305.11-.1221.278-.2518.366-.1298.095-.2977.132-.4656.11-.1603-.022-.2595-.066-.3511-.11-.1908-.095-.3281-.198-.4732-.307-.351-.286-.6487-.586-.9234-.893l-.4122-.462-.0992-.117c-.0382-.044-.0153-.014-.0229-.029v-.007l-.0076.007c-.0077.007.0152-.015-.0229.022l-.0916.11-.374.446c-.2518.293-.5037.579-.7632.857-.519.549-1.0151 1.068-1.6562 1.493-.0839.051-.1602.095-.2747.146-.1298.052-.2901.095-.4274.059-.3053-.044-.4122-.417-.3969-.622.0076-.374.0992-.681.1908-.988.1832-.601.4045-1.142.6182-1.647.8701-2.0061 1.618-3.3676 1.9157-3.9531z" fill="#fe160b"/><path d="m60.9419 99.7986c-.8548 0-1.7325-.0219-2.6102-.0585-15.7527-.6881-27.5749-6.4781-35.1307-17.1943-18.41637-26.1537-3.4727-77.86093-3.3047-78.32939.6716-1.82996 2.2362-3.220725 4.19-3.711153.5114-.131757 1.0303-.190316 1.5493-.190316 1.473 0 2.9002.512388 4.0069 1.442009.229.19763.4427.40991.6182.65146l6.5865 11.17009c4.7625-1.6616 12.8525-3.82831 22.5988-3.82831 7.6474 0 14.9818 1.34681 21.8431 3.99661l6.9987-5.92904c1.1143-.94426 2.5415-1.46397 4.0298-1.46397.6105 0 1.2211.08784 1.8088.26352 2.0149.60022 3.5871 2.19594 4.0984 4.15769.3587 1.3761 3.5262 13.8783 4.3122 29.1402 1.068 20.6565-2.6255 36.3282-10.9826 46.5906-7.1743 8.8204-17.47 13.2855-30.6125 13.2928z" fill="#ff1800"/><path d="m72.6263 98.4369c-2.6788.6661-4.9151.9589-6.6705 1.1272-1.7553.1684-3.0299.1903-3.8542.2123-1.6485.0073-1.4959 0 .1985-.0366 1.679-.0732 4.9227-.1684 9.2883-1.1419 4.3197-.9809 9.853-2.9792 14.9437-7.21 2.5338-2.1008 4.9303-4.7213 6.9834-7.7956 2.0606-3.0744 3.7702-6.5952 5.1059-10.4088 2.6716-7.6492 3.8006-16.433 3.8546-25.5901.045-9.1717-.924-18.7534-2.7098-28.3497-.4503-2.4009-.9464-4.8018-1.5264-7.188-.1527-.5929-.2748-1.2078-.4809-1.7495-.206-.54896-.5113-1.06867-.8853-1.5225-.7479-.92229-1.8164-1.61036-2.9842-1.91779-1.1753-.32207-2.4499-.25619-3.5947.15372-.5724.21227-1.1067.50506-1.5798.87105l-1.4349 1.20778-5.9072 5.01404-1.1601-.4318-.9769-.3514c-.6564-.2269-1.3128-.4392-1.9691-.6441-1.3204-.4026-2.656-.7613-3.9993-1.0687-2.6865-.6149-5.4035-1.0468-8.1282-1.2883-5.4417-.48312-10.8605-.2416-16.058.5563-2.0836.3221-4.1366.7393-6.1591 1.237-1.0075.2489-2.0149.5197-3.0071.8125l-1.4806.4539-1.7325.5782-3.8924-6.60976-1.8546-3.15484-.9235-1.56645c-.2747-.41723-.7556-.8125-1.2364-1.11993-1.9691-1.273647-4.7243-1.171169-6.5789.17568-.9311.65146-1.6485 1.60304-2.0149 2.62049-.3205 1.09798-.6182 2.22523-.8929 3.33784-2.2133 8.93747-3.6635 17.69197-4.4419 26.05127-.7632 8.3592-.8167 16.3524.0229 23.7381.8319 7.3784 2.5949 14.1639 5.4111 19.8587 2.801 5.7022 6.7011 10.1672 10.7308 13.3148 4.045 3.1695 8.1664 5.058 11.6238 6.2584 3.4726 1.2005 6.3117 1.7494 8.2655 2.0788 1.9539.3221 3.0453.4246 3.1445.4392 4.1748.4319 6.3652.366 6.8078.3953.4427 0-.8548.0586-3.6176-.0805-2.7552-.161-7.0139-.4978-12.2496-1.9471-2.6101-.732-5.4569-1.7641-8.3495-3.2719-2.8926-1.5006-5.8309-3.4916-8.5327-6.0462-2.7018-2.5473-5.1822-5.6509-7.1895-9.2157-2.0072-3.572-3.5489-7.5833-4.6632-11.8434-2.2286-8.5496-2.801-18.0507-2.3507-27.8154.4732-9.7792 1.9538-19.8659 4.2663-29.88678.2901-1.25169.5954-2.50338.9235-3.75507.1679-.6295.3206-1.22973.5343-1.88851.2442-.63682.5877-1.23705 1.038-1.75676.8853-1.05405 2.1446-1.815312 3.5184-2.122745 1.3737-.314752 2.862-.1683554 4.1366.395271.6411.285473 1.2287.658784 1.7477 1.141894.1298.12443.2519.24887.3587.38795l.084.10248c.0458.05855.0687.10979.084.13175l.1221.21228.4961.84178 1.969 3.36711 3.8008 6.44875 1.2364-.4099 1.5112-.4685c1.0151-.3001 2.0302-.5709 3.0529-.8271 2.0377-.5051 4.0984-.915 6.1591-1.2371 5.5943-.86369 11.2345-1.05401 16.722-.51234 2.7399.27083 5.4417.72464 8.0748 1.34684 1.3127.3148 2.6102.6661 3.8924 1.0687.6411.1976 1.2745.4099 1.9004.6295l.9387.3367.748.2782 4.8769-4.12109 1.244-1.05405c.4198-.34403.809-.71735 1.2899-1.03942.9387-.63682 2.0606-1.01745 3.2055-1.09797 2.2896-.19032 4.5869.93694 5.8004 2.74493.3053.44651.5571.92962.7327 1.442.1755.5197.2747 1.0028.3968 1.5006.2366.9881.458 1.9763.6717 2.9645 1.6717 7.8761 2.7017 15.518 3.1897 22.7866.481 7.2686.397 14.1785-.328 20.5541-.725 6.3755-2.114 12.2167-4.1516 17.2674-2.0225 5.0507-4.709 9.2815-7.6321 12.5023-2.9155 3.2426-6.0141 5.4898-8.7159 6.9977-2.7094 1.5152-5.0067 2.357-6.6018 2.8621-1.5951.5123-2.4957.71-2.5873.7393z" fill="#8a0101"/><path d="m62.1559 95.9993c-.809 0-1.6486-.0219-2.4805-.0512-14.8597-.6368-25.9874-5.9144-33.0547-15.6937-17.71422-24.5141-3.1597-73.30067-3.0071-73.78377.4045-1.07602 1.4043-1.93976 2.6483-2.24719.3206-.08052.6564-.11712.9846-.11712.9387 0 1.847.32208 2.5491.90034.084.06588.1603.1464.229.22692l7.3268 12.12892 1.702-.5782c4.793-1.6324 12.4327-3.5721 21.6142-3.5721 7.2734 0 14.2797 1.2517 20.7975 3.7111l1.2288.4612 7.9145-6.5366c.7098-.5856 1.6257-.90768 2.5644-.90768.3893 0 .7785.05856 1.1525.16108 1.2822.3733 2.282 1.3614 2.6102 2.5839.3511 1.3102 3.4345 13.2049 4.1975 27.6982 1.03 19.4121-2.4727 34.0737-10.4024 43.5748-6.6629 7.986-16.2794 12.0411-28.5747 12.0411z" fill="#f60"/><path d="m109.933 90.8542c-.725.2269-1.519.0585-2.084-.4319l-4.587-3.9966-2.511 5.1019c-.252.5124-.717.893-1.2667 1.0687-.1221.0366-.2442.0659-.3664.0805-.7097.0952-1.4272-.161-1.8927-.688-.6564-.732-15.9512-18.0654-6.0676-37.8508.2595-.5124.7174-.8857 1.2593-1.0614.2748-.0878.5648-.1171.8625-.0878.8624.0805 21.2016 2.3203 26.5526 30.2747.145.7759-.184 1.5592-.848 2.0203-.183.1244-.381.2196-.587.2855-.55.1683-1.16.1244-1.679-.1537l-4.48-2.3643-.848 6.134c-.106.7539-.633 1.3834-1.381 1.6469-.031.0073-.053.0147-.076.022z" fill="#f6b702"/><path d="m111.65 87.26c-.145.9296-.199 1.7055-.359 2.2984-.214.5856-.61.9003-.878 1.0614-.282.161-.45.1976-.48.2049-.031 0 .076-.0219.29-.1317.206-.1098.526-.3075.786-.6954.129-.1903.236-.4319.29-.7174l.122-.9516.71-5.4825 4.709 2.4448c.763.3953 1.847.2123 2.411-.505.29-.3441.443-.7979.42-1.2444-.053-.4465-.183-.9662-.282-1.4567-.87-3.9746-2.236-8.3153-4.473-12.4803-2.221-4.1576-5.373-8.1176-9.372-11.0748-1.992-1.4786-4.167-2.7157-6.449-3.638-1.1372-.4611-2.2973-.8491-3.4727-1.1419-.5876-.1464-1.1753-.2708-1.763-.366-.6105-.1098-1.1066-.1464-1.5722.0806-.2824.1317-.5266.3293-.7022.5782-.1602.2269-.3129.5929-.4655.9004-.2977.6368-.5801 1.2809-.8395 1.9251-.5114 1.2956-.9312 2.6058-1.2593 3.9234-.6564 2.6351-.9312 5.2849-.8777 7.8468.1068 5.1459 1.4959 9.8891 3.3428 13.9223.9235 2.0203 1.9691 3.8795 3.0605 5.5631.5495.8418 1.1067 1.6396 1.6791 2.3936.2824.3733.5724.7393.87 1.0906.2901.366.5801.6442.9922.7979.7861.3221 1.7173.0732 2.2365-.4978.267-.2708.404-.6441.587-.9881l.512-1.0102 1.816-3.6013 4.351 3.8722c.457.4611.961.6807 1.358.7319.397.0586.679.0074.832-.0292.305-.0952.168.0146-.405.0805-.282.0146-.694-.0147-1.137-.2343-.442-.2269-.824-.6514-1.335-1.054l-3.603-3.0816-1.984 4.1137c-.206.3879-.336.7759-.611 1.1858-.282.3953-.7094.6954-1.1979.8491s-1.0456.1318-1.5417-.0586c-.5113-.1756-.9082-.5929-1.2059-.9662-2.5491-3.045-4.8845-6.8074-6.6247-11.0749-1.7325-4.2601-2.7781-9.0839-2.5872-13.9662.0915-2.4375.4808-4.875 1.16-7.2246.3359-1.1785.748-2.3277 1.2135-3.4477.2366-.5636.4809-1.1126.748-1.6616l.2061-.4099c.0839-.1537.1755-.3001.29-.4319.2289-.2635.5113-.4831.8319-.6295.4045-.1976.87-.2635 1.3203-.2269.4045.0439.7938.1098 1.183.183.7709.1464 1.5265.3367 2.2744.5563 1.4806.4392 2.9078 1.0028 4.2592 1.6616 2.701 1.3103 5.113 2.9938 7.174 4.8824 4.144 3.7916 6.853 8.3153 8.639 12.5608.901 2.13 1.58 4.2162 2.107 6.1852.267.9882.488 1.9471.687 2.8767l.274 1.3688c.107.4319.138.9516-.03 1.3761-.313.8857-1.214 1.4567-2.084 1.4494-.435.0073-.854-.1098-1.198-.3148l-.992-.5343-3.328-1.8007z" fill="#ff7d00"/><path d="m8.76857 85.4519c.6411.227 1.35853.1098 1.87753-.3074l4.2511-3.4037 2.0378 4.6408c.206.4684.6029.8271 1.0837.9955.1069.0366.2137.0658.3282.0878.6335.1098 1.2822-.0952 1.7172-.5417.6106-.6295 14.9514-15.5473 6.8995-33.554-.2061-.4685-.603-.8198-1.0838-.9882-.2442-.0878-.5037-.1244-.7632-.1098-.7708.0439-19.01164 1.3029-24.880749 26.0512-.1602746.6881.099218 1.3981.67926 1.8373.160279.1171.328179.2123.511349.2782.48083.1756 1.03034.1537 1.50353-.0732l4.09083-1.9471.51898 5.5045c.06106.6734.51135 1.259 1.16772 1.5152.01526 0 .03816.0073.06105.0146z" fill="#f6b702"/><path d="m7.37228 82.1871c.09159.8344.10685 1.5298.22897 2.0715.1679.5343.50372.8344.74031.9955.24423.161.39687.2049.41214.2196.0229.0146-.07632-.0073-.27476-.1025-.1908-.0952-.49609-.2855-.73268-.6588-.12212-.183-.22133-.4172-.26713-.6807l-.09921-.8564-.48083-4.5676-3.94581 1.9105c-.81664.3879-1.961458.1683-2.5415-.6076-.297653-.3806-.4502955-.8637-.4045027-1.3542.0686892-.4904.1984357-.8856.3052847-1.3468.892958-3.5501 2.259108-7.4223 4.411368-11.1261 2.137-3.6965 5.14406-7.2027 8.89147-9.772 1.8698-1.2883 3.9076-2.3423 6.0217-3.1036 1.0609-.3806 2.137-.6954 3.2284-.9223.5419-.1171 1.0914-.2049 1.6409-.2708.2824-.0293.5343-.0659.8701-.0513.3205.022.6258.1098.9006.2489.3434.1757.6411.4392.8395.7613.2061.344.29.6075.4274.915.2442.5929.4732 1.1858.6793 1.786.4121 1.2004.7403 2.4082.9845 3.6233.4885 2.4229.6106 4.853.4427 7.1881-.3358 4.6773-1.8394 8.9082-3.7092 12.4583-.9388 1.7787-1.9768 3.4037-3.0529 4.8604-.5419.7319-1.0838 1.42-1.6409 2.0715-.2748.322-.5572.6368-.8395.9369-.2595.3001-.6335.6149-1.0456.732-.8319.2855-1.7707-.0293-2.2515-.6368-.2595-.3075-.3587-.6588-.5037-.9662l-.3969-.9223-1.3433-3.1622-3.9839 3.1109c-.4274.3953-.88536.571-1.24407.6002-.35871.0366-.60294-.0292-.73269-.0658-.25949-.1025-.13738-.0147.35871.0366.24423.0146.59531-.0074.97695-.1904.3739-.183.7326-.5563 1.1906-.9076l3.5108-2.8694 1.7935 3.982c.1603.3367.3053.7393.4961 1.0321.2061.3074.519.5417.8853.6661.3664.1244.7785.1244 1.1525-.0073.3892-.1245.664-.3953.954-.732 2.3278-2.6205 4.5029-5.8925 6.1591-9.6036 1.6486-3.7038 2.7247-7.9054 2.7171-12.1802.0076-2.1374-.2519-4.2748-.7633-6.3536-.2518-1.0394-.5724-2.0569-.9387-3.0524-.1832-.4977-.3816-.9881-.5953-1.4786l-.1603-.3586c-.0458-.0952-.1068-.1904-.1755-.2782-.1374-.1757-.3129-.3221-.5114-.4245-.2518-.1391-.5419-.1904-.8319-.1757-.3282.0219-.6716.0585-.9998.1098-.6716.0951-1.3356.2342-1.9843.3952-1.3051.3294-2.5644.7613-3.7703 1.281-2.4118 1.0394-4.5793 2.4082-6.4721 3.9747-3.79313 3.1402-6.39569 6.9904-8.19687 10.6576-.90059 1.8373-1.61038 3.6453-2.19042 5.3655-.29002.8637-.541884 1.6982-.763216 2.5107l-.32055 1.2004c-.122114.3953-.160274.7466-.053424 1.1053.198435.71.88533 1.2078 1.57985 1.2444.70216.0659 1.29746-.3807 1.90803-.6222l3.19023-1.4786z" fill="#ff7d00"/><path d="m76.5044 21.6595c-7.6245 0-14.1882 4.3334-17.1723 10.5699-2.9842-6.2365-9.5478-10.5699-17.1723-10.5699-10.4332 0-18.8896 8.1104-18.8896 18.1166s8.4564 18.1165 18.8896 18.1165c7.6245 0 14.1881-4.3333 17.1723-10.5698 2.9841 6.2365 9.5478 10.5698 17.1723 10.5698 10.4331 0 18.8895-8.1103 18.8895-18.1165s-8.4564-18.1166-18.8895-18.1166z" fill="#fed692"/><path d="m76.6875 21.8351c-7.7008 0-14.3408 4.2894-17.3555 10.4673-3.0147-6.1706-9.647-10.4673-17.3554-10.4673-10.54 0-19.088 8.0298-19.088 17.9335 0 9.9038 8.548 17.9336 19.088 17.9336 7.7084 0 14.3407-4.2894 17.3554-10.4673 3.0147 6.1706 9.6471 10.4673 17.3555 10.4673 10.54 0 19.088-8.0298 19.088-17.9336 0-9.8964-8.548-17.9335-19.088-17.9335zm-1.0532 34.7838c-7.2353 0-13.4707-4.0333-16.3023-9.8305-2.8315 5.7972-9.0669 9.8305-16.3022 9.8305-9.9065 0-17.9355-7.5394-17.9355-16.8503 0-9.3034 8.029-16.8502 17.9355-16.8502 7.2353 0 13.4707 4.0332 16.3022 9.8305 2.8316-5.7973 9.067-9.8305 16.3023-9.8305 9.9065 0 17.9355 7.5394 17.9355 16.8502 0 9.3109-8.029 16.8503-17.9355 16.8503z" fill="#ffa100"/><path d="m51.9308 47.2491c4.3038-4.1278 4.3038-10.8201 0-14.9479-4.3039-4.1277-11.2818-4.1277-15.5856 0-4.3039 4.1278-4.3039 10.8201 0 14.9479 4.3038 4.1277 11.2817 4.1277 15.5856 0z" fill="#fff"/><path d="m86.5716 39.7762c0 6.7049-5.6631 12.1362-12.6541 12.1362s-12.6541-5.4313-12.6541-12.1362c0-6.705 5.6631-12.1363 12.6541-12.1363 6.991-.0073 12.6541 5.4313 12.6541 12.1363z" fill="#fff"/><path d="m43.1138 46.5469c3.7936 0 6.8689-2.9495 6.8689-6.5878 0-3.6384-3.0753-6.5879-6.8689-6.5879s-6.869 2.9495-6.869 6.5879c0 3.6383 3.0754 6.5878 6.869 6.5878z" fill="#26110b"/><path d="m47.388 41.5475c1.2646 0 2.2897-.9831 2.2897-2.1959s-1.0251-2.196-2.2897-2.196c-1.2645 0-2.2896.9832-2.2896 2.196s1.0251 2.1959 2.2896 2.1959z" fill="#fff"/><path d="m74.7871 46.5469c3.7936 0 6.869-2.9495 6.869-6.5878 0-3.6384-3.0754-6.5879-6.869-6.5879s-6.8689 2.9495-6.8689 6.5879c0 3.6383 3.0753 6.5878 6.8689 6.5878z" fill="#26110b"/><path d="m70.5362 42.0306c1.2646 0 2.2897-.9832 2.2897-2.196s-1.0251-2.1959-2.2897-2.1959c-1.2645 0-2.2896.9831-2.2896 2.1959s1.0251 2.196 2.2896 2.196z" fill="#fff"/><path d="m58.9882 54.8407c-.5953-.0146-1.1372-.3221-1.4272-.8198l-3.0758-6.9026c-.351-.6075-.2594-1.3615.229-1.8739.2137-.2196 2.1446-2.152 4.8082-2.152 1.1601 0 2.8697.3806 4.4801 2.2033.4656.527.5266 1.2809.1526 1.8738l-3.7092 6.9026c-.3052.4758-.8471.7686-1.4272.7686-.0152 0-.0229 0-.0305 0z" fill="#f6fb30"/><path d="m60.1024 54.4526c-.3587.2928-.7022.344-.8853.366-.1908.0073-.2519.0073-.1985-.0073.0535-.0147.2137-.022.458-.1025.2365-.0805.5571-.2489.8013-.5783l3.6329-7.0856.0077-.0073v-.0073c.2671-.4319.2518-1.0101-.0458-1.4201-.3435-.4245-.8243-.8637-1.2975-1.1931-.9769-.6954-2.1599-1.054-3.2895-.9882-1.0456.0513-2.0454.41-2.9002.915-.4274.2562-.8242.5417-1.1829.8564-.1832.1611-.3435.3075-.4427.4685-.1069.1684-.1755.3514-.1908.5417-.0229.1903 0 .3806.0611.5636.0381.1025.061.1391.1297.2928l.1297.3074.4961 1.1785.8777 2.1228 1.2517 3.0962c.2748.7467.8319.8931.8166.915.4122.1757.6488.1464.6717.1684.0305 0-.1374.0366-.4656-.0366-.3129-.0805-.8319-.2928-1.1219-.8784l-.9235-1.9251-1.1525-2.4375-.6411-1.3615-.3281-.71c-.0535-.1098-.1145-.2562-.168-.3441-.0763-.139-.1297-.2781-.1679-.4318-.1602-.6076.0458-1.2956.5114-1.7421.4121-.4173.8701-.7759 1.3661-1.0907.9846-.6295 2.1523-1.0687 3.3429-1.1199 1.4654-.0805 2.8621.4684 3.8771 1.2736.2595.1977.4961.4173.7175.6369.2137.2269.435.4318.6105.7466.3358.6002.2748 1.3322-.0763 1.8592l.0076-.0146c-1.2135 2.152-2.2514 3.9453-2.9918 5.2117l-.87 1.4786c-.2137.3513-.4198.4684-.4274.4831z" fill="#ff7d00"/><g fill="#f6fb30"><path d="m24.911 18.0654c-.435-.0293-.8548-.2123-1.1677-.5343-.4655-.4758-.6029-1.1639-.3587-1.7714l1.992-7.72977c.229-.57094.7708-.98085 1.4043-1.06137.1221-.01464.2366-.02196.3587-.01464.5114.0366.9846.27815 1.2975.67342l3.9611 5.92176c.3434.4392.4426 1.0101.2671 1.5298-.1756.5197-.603.9296-1.1448 1.098l-5.9531 1.808c-.2137.0659-.435.0878-.6564.0805z"/><path d="m94.104 21.5499c.374.0366.7556-.0658 1.0685-.2928.4656-.344.6793-.9076.5648-1.4566l-1.2288-5.6143c-.1145-.5197-.5113-.9369-1.038-1.0907-.0992-.0292-.1984-.0512-.3053-.0585-.435-.0366-.8776.1025-1.1982.4026l-3.5566 3.2866c-.3511.3294-.519.7978-.4503 1.2663s.374.8711.8167 1.0833l4.7853 2.3351c.1756.0732.3587.1244.5419.139z"/><path d="m59.4774 61.9185c-14.1194 0-25.5676 10.9797-25.5676 24.5213 0 .4319.0229.8638.0458 1.2883 6.6476 5.0068 15.249 7.7664 25.7203 8.2129.8395.0366 1.6714.0512 2.4804.0512 9.0517 0 16.6457-2.2032 22.6827-6.5512.1298-.9882.1984-1.991.1984-3.0158.0077-13.5343-11.4405-24.5067-25.56-24.5067z"/></g><g fill="#f60"><path d="m41.4121 73.7472s4.8312 4.3919 9.6699 0c0 0-5.0219 8.5422-9.6699 0z"/><path d="m54.7683 75.2112s4.8312 4.3919 9.67 0c0 0-5.022 8.5422-9.67 0z"/><path d="m68.5062 76.0676s4.8312 4.3919 9.6699 0c0 0-5.0219 8.5423-9.6699 0z"/><path d="m62.8431 83.0215s4.8311 4.3919 9.6699 0c0 0-5.022 8.5422-9.6699 0z"/><path d="m45.2282 82.1066s4.8311 4.3918 9.6699 0c0 0-5.022 8.5421-9.6699 0z"/><path d="m49.1053 66.3689s4.8311 4.3919 9.6699 0c0 0-5.022 8.5422-9.6699 0z"/><path d="m72.9557 87.5378s4.8311 4.3919 9.6699 0c0 0-5.0219 8.535-9.6699 0z"/><path d="m53.4937 89.0603s4.8312 4.3919 9.67 0c0 0-5.022 8.5423-9.67 0z"/><path d="m36.5122 87.4133s4.8312 4.3919 9.67 0c0 0-5.022 8.5422-9.67 0z"/><path d="m62.8431 66.9178s4.8311 4.3919 9.6699 0c0 0-5.022 8.5423-9.6699 0z"/></g><path d="m94.1196 54.0936c-.2747-.0293-.5495 0-.809.0805-.29.0879-.5418.2416-.7632.4465 11.9136 3.4623 18.9426 14.0761 20.7746 25.5316.16.9808.275 1.9763.359 2.9718l2.282 1.2078c.488.2562 1.053.3001 1.564.1464.191-.0586.374-.1464.542-.2635.626-.4319.931-1.1639.794-1.8885-4.968-26.0659-23.9344-28.1594-24.7434-28.2326z" fill="#f8d13e"/><path d="m25.3683 53.1347c-.1679-.0732-.3358-.1537-.5037-.2269-.0916-.0073-.1832-.0146-.2747-.0146-.7404.0439-18.16452 1.2517-23.774133 24.8947-.152643.6588.099217 1.3395.648733 1.7568.15264.1171.31292.1976.48845.2635.08396.0292.17554.0512.26713.0658.51898-1.076 1.03034-2.1593 1.55695-3.2353 4.22057-8.5203 12.14277-19.3683 21.59127-23.504z" fill="#f8d13e"/><path d="m25.6195 53.1421c-.0458-.022-.0915-.044-.1297-.0659-.0382.0146-.084.0366-.1221.0512.0458.022.0992.0439.145.0659z" fill="#fafd87"/></g></svg>