<svg fill="none" height="116" viewBox="0 0 136 116" width="136" xmlns="http://www.w3.org/2000/svg" xmlns:xlink="http://www.w3.org/1999/xlink"><clipPath id="a"><path d="m0 0h136v116h-136z"/></clipPath><g clip-path="url(#a)"><path d="m48.4553 107.616s-15.2408 4.499-1.7818 3.96c0 0-1.1072 6.858 2.69.449 0 0 10.2067 9.397.7699-4.131z" fill="#ff6400"/><path d="m49.7526 107.827c-1.9981-.335-1.5743-.31.4498-.033.4757.637.9601 1.298 1.5569 2.164.5882.849 1.2456 1.812 1.8684 2.898.3027.555.6314 1.102.7957 1.829.0433.196.0173.588-.2422.727-.2335.171-.6573.057-.7957 0-.372-.139-.6747-.327-.9775-.515-.6054-.383-1.159-.816-1.7126-1.257l-.8044-.669-.3979-.343c-.0692-.066-.026-.025-.0433-.033.1038-.163-.2681.449-.5017.792-.2594.384-.5276.759-.8563 1.11-.1384.147-.2941.302-.5017.433-.147.131-.6487.31-.9601.065-.3287-.269-.346-.506-.4065-.71-.0433-.204-.0606-.4-.0692-.596-.0173-.384 0-.751.0346-1.11l.0605-.531c.0173-.122.0173-.106.0173-.114l.0087-.017h-.026-.0086-.0779-.1816l-.7006.009c-.4671 0-.9169-.009-1.3667-.025-.8996-.057-1.7473-.065-2.5949-.408-.199-.074-.5363-.376-.4325-.686.1038-.318.2768-.425.4325-.563.32-.237.6487-.409.9687-.564.6401-.302 1.2456-.53 1.7992-.734 2.223-.776 3.5983-1.103 3.6329-1.127 1.6002-.474.4671-.114-2.0068.816-.6141.237-1.3147.515-2.0673.849-.3719.172-.7611.351-1.1417.556-.372.204-.7871.44-1.0293.718-.1125.131-.0692.155 0 .212.1297.082.3633.139.5881.18.4585.082.9602.106 1.4705.122.5103.017 1.0293.009 1.5483 0l2.0154-.073-.0778.522-.0519.4-.0433.523c-.0259.351-.0346.702-.0086 1.037.0086.163.0346.326.0692.473.0173.066.0432.131.0692.18.0259.049.0172.025.0172.033-.1037.065.2682-.131.4671-.376.2941-.318.5536-.686.8045-1.045l.3633-.555.5795-.955.8304.759.4843.433c.3287.285.6488.555.9688.816.6401.514 1.2888 1.029 1.9376 1.347.0778.033.1643.074.2249.09.0346.008.0432.016.0692.008.0519-.024.0605-.032.0519-.155-.0433-.302-.173-.637-.3028-.939-.2681-.62-.5795-1.192-.8736-1.722-1.2023-2.115-2.1711-3.593-2.543-4.197z" fill="#fe160b"/><path d="m86.6121 107.436s15.7949 2.212 2.4133 3.649c0 0 2.223 6.613-2.5863.841 0 0-8.5459 10.777-1.4445-3.968z" fill="#ff6400"/><path d="m85.358 107.844c1.9635-.637 1.4358-.417-.2768.204-.5017 1.176-1.4445 3.192-2.2143 5.478-.1817.572-.3806 1.2-.3893 1.756.0087.114.0087.098.0433.122.0519 0 .0086.016.173-.073.2508-.147.5016-.368.7525-.588.4844-.449.9515-.956 1.3926-1.47l.666-.776.9256-1.151c.7265.858.8649 1.021 1.2023 1.38.3027.327.6228.637.9428.89.1384.106.2854.204.4065.261.1644.066.1038.033.1125.041-.0087.041.0519-.114.0519-.261.0086-.155 0-.319-.0173-.482-.0346-.335-.1038-.678-.1817-1.004l-.1297-.498-.1125-.392-.1557-.482 1.8078-.196c.4498-.057.8996-.114 1.3235-.179.839-.139 1.7126-.286 2.3094-.604.2422-.139.173-.221-.147-.441-.2855-.172-.6228-.311-.9342-.425-.6401-.237-1.2628-.408-1.8251-.555-2.2749-.58-3.6675-.825-3.7107-.841-1.6608-.237-.4671-.18 2.1797.237.6574.106 1.4099.245 2.2317.432.4065.098.8303.205 1.2715.335.4325.147.8822.278 1.332.613.1038.073.2595.244.2855.44.0346.188-.0692.392-.2163.523-.2422.212-.493.31-.7352.408-.493.18-.9947.302-1.5137.408-.5103.107-1.038.196-1.557.27l-.7957.114-.346.041-.026.008.0087.016.0086.017.0346.114.1471.539c.0865.359.1643.727.2076 1.11.0173.196.0346.384.0173.604-.0087.107-.026.221-.0606.343-.0346.123-.1384.311-.2854.409-.1471.106-.3374.147-.5277.122-.1816-.024-.2941-.073-.3979-.122-.2162-.107-.3719-.221-.5362-.343-.3979-.319-.7353-.653-1.0467-.996l-.4671-.515-.1124-.13c-.0432-.049-.0173-.017-.0259-.033v-.008l-.0087.008c-.0086.008.0173-.016-.0259.024l-.1038.123-.4239.498c-.2854.327-.5709.645-.865.955-.5881.613-1.1504 1.192-1.8769 1.666-.0952.057-.1817.106-.3114.163-.1471.057-.3287.106-.4844.065-.346-.049-.4671-.465-.4498-.694.0086-.416.1124-.759.2162-1.102.2076-.669.4585-1.273.7007-1.837.986-2.237 1.8337-3.755 2.171-4.409z" fill="#fe160b"/><path d="m69.0687 111.313c-.9688 0-1.9635-.024-2.9582-.065-17.8531-.768-31.2516-7.226-39.8148-19.1784-20.87188-29.1714-3.9357-86.84486-3.7454-87.36738.7612-2.0411 2.5344-3.59234 4.7487-4.139359.5796-.14696 1.1678-.212275 1.7559-.212275 1.6694 0 3.2869.571509 4.5412 1.608394.2595.22043.5016.4572.7006.72663l7.4647 12.45889c5.3975-1.8533 14.5662-4.27 25.6119-4.27 8.6671 0 16.9795 1.5023 24.7556 4.4578l7.9321-6.61319c1.263-1.05321 2.88-1.63288 4.567-1.63288.692 0 1.384.09797 2.05.29392 2.283.66948 4.065 2.44932 4.645 4.63735.406 1.5349 3.996 15.4798 4.887 32.5026 1.211 23.0399-2.976 40.52-12.447 51.9665-8.1309 9.8384-19.7994 14.8184-34.6943 14.8264z" fill="#ff1800"/><path d="m82.3107 109.795c-3.0361.743-5.5705 1.069-7.5599 1.257-1.9895.188-3.434.212-4.3682.237-1.8683.008-1.6953 0 .2249-.041 1.903-.082 5.5791-.188 10.5268-1.274 4.8957-1.094 11.1668-3.323 16.9362-8.042 2.8715-2.343 5.5875-5.2658 7.9145-8.6949 2.335-3.429 4.273-7.3561 5.787-11.6098 3.027-8.5318 4.307-18.3291 4.368-28.5428.052-10.23-1.047-20.9172-3.071-31.6207-.51-2.678-1.072-5.3559-1.73-8.0175-.173-.6613-.311-1.3471-.545-1.9513-.233-.6123-.579-1.192-1.003-1.69819-.848-1.02871-2.059-1.79617-3.382-2.13907-1.332-.35924-2.777-.28576-4.074.17145-.649.23677-1.254.56334-1.791.97156l-1.6258 1.34715-6.6949 5.5926-1.3148-.4817-1.1072-.3919c-.7438-.2531-1.4877-.4899-2.2316-.7185-1.4964-.449-3.0101-.8491-4.5325-1.192-3.0447-.6858-6.124-1.1675-9.212-1.4369-6.1672-.5388-12.3085-.2694-18.199.6205-2.3614.3592-4.6882.8246-6.9804 1.3798-1.1417.2776-2.2835.5797-3.408.9062l-1.678.5062-1.9635.645-4.4114-7.37245-2.1019-3.51886-1.0466-1.74719c-.3114-.46537-.8563-.90625-1.4013-1.24915-2.2316-1.420609-5.3541-1.306307-7.456.19595-1.0553.72663-1.8684 1.788-2.2836 2.92286-.3633 1.22466-.7006 2.48198-1.012 3.72297-2.5084 9.96877-4.1519 19.73337-5.0341 29.05717-.865 9.3237-.9256 18.2393.0259 26.4772.9428 8.2297 2.9409 15.7981 6.1327 22.15 3.1744 6.3601 7.5945 11.3404 12.1615 14.8513 4.5844 3.535 9.2553 5.641 13.1736 6.98 3.9356 1.339 7.1533 1.952 9.3677 2.319 2.2143.359 3.4512.474 3.5637.49 4.7314.482 7.2139.408 7.7155.441.5017 0-.9687.065-4.0999-.09-3.1226-.18-7.9492-.555-13.8829-2.172-2.9582-.816-6.1846-1.967-9.4628-3.649-3.2783-1.674-6.6084-3.895-9.6704-6.744-3.062-2.8412-5.8732-6.303-8.1481-10.279-2.2749-3.9843-4.0221-8.4584-5.285-13.21-2.5257-9.5361-3.1744-20.1335-2.6641-31.0248.5363-10.9077 2.2143-22.1582 4.8352-33.3353.3287-1.39614.6747-2.79226 1.0466-4.18837.1903-.70214.3633-1.37163.6055-2.10642.2768-.71031.666-1.37979 1.1764-1.95946 1.0033-1.17568 2.4305-2.024776 3.9875-2.367682 1.557-.35107 3.2437-.1877813 4.6882.440879.7265.318412 1.3926.734793 1.9808 1.273653.147.13879.2854.27759.4065.43271l.0951.1143c.0519.06532.0779.12247.0952.14696l.1384.23677.5622.93891 2.2317 3.75563 4.3075 7.19282 1.4013-.4572 1.7126-.5225c1.1505-.3347 2.3009-.6368 3.4599-.9226 2.3095-.5633 4.6449-1.0205 6.9804-1.3798 6.3402-.9634 12.7324-1.1756 18.9516-.5715 3.1052.3021 6.1672.8083 9.1514 1.5023 1.4878.351 2.9582.7429 4.4114 1.192.7266.2204 1.4445.4572 2.1538.7021l1.0639.3756.8477.3102 5.5272-4.5965 1.4099-1.17571c.4757-.38373.9168-.80011 1.4613-1.15935 1.064-.7103 2.336-1.13485 3.633-1.22466 2.595-.21228 5.199 1.04504 6.574 3.06165.346.49807.632 1.03687.831 1.60837.198.5797.311 1.1185.449 1.6737.268 1.1022.519 2.2044.762 3.3066 1.894 8.7849 3.062 17.3086 3.615 25.4158.545 8.1073.45 15.8145-.372 22.9257s-2.396 13.6264-4.705 19.2599c-2.292 5.6334-5.337 10.3524-8.65 13.9448-3.3042 3.6165-6.816 6.1235-9.8781 7.8055-3.0706 1.69-5.6742 2.629-7.482 3.192-1.8078.571-2.8285.792-2.9322.825z" fill="#8a0101"/><path d="m70.4446 107.076c-.9169 0-1.8684-.024-2.8112-.057-16.841-.71-29.4524-6.597-37.462-17.5045-20.0761-27.3426-3.581-81.75846-3.408-82.29732.4584-1.20016 1.5915-2.16357 3.0014-2.50647.3633-.08981.7439-.13063 1.1158-.13063 1.064 0 2.0933.35923 2.8891 1.00422.0951.07348.1816.16329.2594.2531l8.3038 13.5284 1.9289-.645c5.432-1.8206 14.0904-3.9842 24.4961-3.9842 8.2432 0 16.1837 1.3961 23.5705 4.1394l1.3927.5143 8.9699-7.2908c.804-.6531 1.842-1.0124 2.906-1.0124.441 0 .882.0653 1.306.1796 1.453.4164 2.587 1.5186 2.958 2.8821.398 1.4614 3.893 14.7286 4.758 30.8941 1.168 21.652-2.803 38.0054-11.79 48.6028-7.551 8.9073-18.4497 13.4303-32.3844 13.4303z" fill="#f60"/><path d="m124.591 101.338c-.821.253-1.721.065-2.361-.482l-5.198-4.4579-2.846 5.6909c-.286.571-.813.996-1.436 1.192-.138.041-.277.073-.415.09-.805.106-1.618-.18-2.145-.768-.744-.816-18.0784-20.1497-6.877-42.2181.294-.5715.813-.9879 1.427-1.1839.312-.0979.64-.1306.978-.0979.977.0898 24.029 2.5881 30.092 33.768.165.8654-.207 1.739-.96 2.2534-.208.1388-.432.2449-.666.3184-.623.1878-1.315.1388-1.903-.1715l-5.077-2.6371-.96 6.8418c-.122.8409-.718 1.5429-1.566 1.8369-.035.008-.061.016-.087.025z" fill="#f6b702"/><path d="m126.537 97.3283c-.165 1.0369-.225 1.9023-.407 2.5636-.242.6531-.692 1.0041-.995 1.1841-.32.179-.51.22-.545.228-.034 0 .087-.024.329-.147.234-.122.597-.343.891-.775.147-.213.268-.4819.329-.8003l.138-1.0614.804-6.1152 5.337 2.7269c.865.4409 2.094.2368 2.734-.5633.328-.3837.501-.8899.475-1.3879-.06-.4981-.207-1.0777-.32-1.6248-.986-4.4332-2.534-9.2747-5.068-13.9203-2.517-4.6374-6.09-9.0543-10.622-12.3527-2.258-1.6493-4.723-3.029-7.309-4.0578-1.289-.5143-2.604-.947-3.936-1.2736-.666-.1633-1.332-.3021-1.998-.4082-.692-.1225-1.254-.1633-1.782.0898-.32.1469-.597.3674-.796.645-.181.2531-.354.6613-.527 1.0042-.338.7103-.658 1.4288-.952 2.1472-.579 1.4451-1.055 2.9066-1.427 4.3762-.744 2.9391-1.0552 5.8947-.9947 8.7522.1207 5.7396 1.6957 11.0301 3.7887 15.5287 1.047 2.2534 2.232 4.3272 3.468 6.205.623.9389 1.255 1.8293 1.903 2.6693.32.417.649.825.986 1.217.329.408.658.718 1.125.89.891.359 1.946.082 2.534-.555.303-.302.459-.719.666-1.103l.58-1.126 2.059-4.0171 4.93 4.3191c.519.514 1.09.759 1.54.816.449.066.769.008.942-.032.346-.106.191.016-.458.089-.32.017-.787-.016-1.289-.261-.502-.253-.934-.726-1.514-1.175l-4.082-3.4377-2.249 4.5887c-.234.432-.381.865-.692 1.322-.32.441-.805.776-1.358.947-.554.172-1.185.147-1.747-.065-.58-.196-1.03-.661-1.367-1.078-2.889-3.396-5.536-7.5925-7.508-12.3524-1.964-4.7516-3.1486-10.132-2.9324-15.5777.1038-2.7187.545-5.4375 1.3144-8.0582.381-1.3145.848-2.5963 1.376-3.8455.268-.6286.545-1.241.847-1.8533l.234-.4572c.095-.1715.199-.3347.329-.4817.259-.2939.579-.5388.942-.7021.459-.2205.987-.294 1.497-.2531.458.0489.899.1224 1.341.2041.873.1633 1.73.3755 2.577.6205 1.678.4898 3.296 1.1185 4.827 1.8533 3.062 1.4614 5.795 3.3392 8.131 5.4457 4.696 4.2291 7.767 9.2747 9.791 14.0101 1.021 2.3758 1.791 4.7027 2.387 6.8989.303 1.1022.554 2.1718.779 3.2086l.311 1.5268c.121.4817.156 1.0614-.034 1.5349-.355.9879-1.376 1.6247-2.362 1.6165-.493.0082-.969-.1224-1.358-.351l-1.124-.596-3.772-2.0085z" fill="#ff7d00"/><path d="m9.93809 95.3106c.72661.2531 1.53961.1225 2.12781-.3429l4.8179-3.7964 2.3095 5.1762c.2336.5226.6834.9226 1.2283 1.1104.1211.0408.2422.0735.3719.098.718.1224 1.4532-.1062 1.9462-.6042.692-.7021 16.9449-17.3412 7.8194-37.4257-.2336-.5225-.6833-.9144-1.2283-1.1022-.2768-.098-.5709-.1388-.8649-.1224-.8737.0489-21.54657 1.4532-28.19823 29.0571-.1816444.7675.112447 1.5594.76983 2.0493.18164.1306.37194.2367.57953.3102.54494.196 1.16772.1715 1.704-.0816l4.63627-2.1718.58818 6.1397c.0692.7511.57953 1.4043 1.32341 1.69.0173 0 .04325.0082.0692.0163z" fill="#f6b702"/><path d="m8.35609 91.6697c.10379.9307.12109 1.7063.25949 2.3105.19029.596.57088.9307.83902 1.1104.2768.1796.44979.2286.46709.2449.02595.0163-.0865-.0082-.31139-.1143-.21625-.1061-.56224-.3184-.83038-.7348-.13839-.2041-.25084-.4654-.30274-.7593l-.11244-.9552-.54494-5.0946-4.47192 2.1309c-.92552.4327-2.22298.1878-2.880366-.6777-.33734-.4245-.5103348-.9634-.45843632-1.5104.07784772-.547.22489332-.9879.34599032-1.5022 1.012022-3.9598 2.560322-8.2788 4.999552-12.4099 2.42193-4.1231 5.82998-8.0338 10.07698-10.8995 2.1192-1.437 4.4286-2.6127 6.8246-3.4617 1.2023-.4246 2.422-.7757 3.6589-1.0288.6141-.1306 1.2369-.2286 1.8597-.3021.32-.0326.6055-.0734.986-.0571.3633.0245.7093.1225 1.0207.2776.3893.1959.7266.4899.9515.8491.2335.3837.3287.6776.4844 1.0205.2768.6614.5363 1.3227.7698 1.9922.4671 1.3389.839 2.6861 1.1158 4.0413.5536 2.7025.692 5.4131.5017 8.0175-.3806 5.2171-2.0846 9.9361-4.2038 13.8958-1.0639 1.984-2.2403 3.7965-3.4599 5.4212-.6141.8164-1.2282 1.5839-1.8597 2.3105-.3114.3593-.6314.7103-.9514 1.0451-.2941.3347-.718.6858-1.1851.8164-.9428.3184-2.0067-.0326-2.5516-.7103-.2941-.3429-.4066-.7348-.5709-1.0777l-.4498-1.0287-1.5224-3.527-4.5151 3.4699c-.4844.4408-1.0034.6368-1.4099.6694-.4066.0409-.6834-.0326-.8304-.0734-.29411-.1144-.15571-.0164.4065.0408.2768.0163.6747-.0082 1.1072-.2123.4238-.2041.8304-.6205 1.3494-1.0124l3.9788-3.2004 2.0327 4.4414c.1817.3756.346.8246.5623 1.1512.2335.3429.5881.6042 1.0033.7429.4152.1388.8823.1388 1.3061-.0081.4412-.1388.7526-.4409 1.0813-.8165 2.6381-2.9228 5.1033-6.5723 6.9803-10.7117 1.8684-4.1312 3.088-8.8175 3.0793-13.5856.0087-2.384-.2854-4.768-.865-7.0867-.2854-1.1593-.6487-2.2942-1.0639-3.4045-.2076-.5552-.4325-1.1022-.6747-1.6492l-.1816-.4001c-.0519-.1061-.1211-.2123-.1989-.3102-.1557-.196-.3547-.3593-.5796-.4736-.2854-.1551-.6141-.2123-.9428-.1959-.3719.0245-.7612.0653-1.1331.1224-.7612.1062-1.5137.2613-2.249.4409-1.4791.3674-2.9063.8491-4.2729 1.4288-2.7333 1.1593-5.1899 2.6861-7.335 4.4333-4.29894 3.5025-7.2485 7.797-9.28984 11.8874-1.02067 2.0492-1.8251 4.0658-2.48248 5.9845-.32869.9634-.61413 1.8941-.864977 2.8004l-.363289 1.3389c-.138396.4409-.181645.8328-.060548 1.2329.224893.7919 1.003374 1.3471 1.790494 1.3879.79578.0735 1.47046-.4245 2.16244-.694l3.6156-1.6492z" fill="#ff7d00"/><path d="m86.707 24.1582c-8.6411 0-16.0799 4.8333-19.4619 11.7894-3.3821-6.9561-10.8209-11.7894-19.462-11.7894-11.8242 0-21.4081 9.0462-21.4081 20.2069 0 11.1608 9.5839 20.207 21.4081 20.207 8.6411 0 16.0799-4.8334 19.462-11.7895 3.382 6.9561 10.8208 11.7895 19.4619 11.7895 11.8242 0 21.408-9.0462 21.408-20.207 0-11.1607-9.5838-20.2069-21.408-20.2069z" fill="#fed692"/><path d="m86.9135 24.3545c-8.7276 0-16.2529 4.7843-19.6695 11.6751-3.4167-6.8826-10.9333-11.6751-19.6696-11.6751-11.9453 0-21.633 8.9564-21.633 20.0028 0 11.0465 9.6877 20.0028 21.633 20.0028 8.7363 0 16.2529-4.7843 19.6696-11.6751 3.4166 6.8826 10.9332 11.6751 19.6695 11.6751 11.9453 0 21.6325-8.9563 21.6325-20.0028 0-11.0383-9.6872-20.0028-21.6325-20.0028zm-1.1937 38.7973c-8.1999 0-15.2668-4.4986-18.4758-10.9648-3.2091 6.4662-10.2759 10.9648-18.4759 10.9648-11.2274 0-20.3269-8.4094-20.3269-18.7945 0-10.377 9.0995-18.7945 20.3269-18.7945 8.2 0 15.2668 4.4986 18.4759 10.9648 3.209-6.4662 10.2759-10.9648 18.4758-10.9648 11.2274 0 20.3272 8.4094 20.3272 18.7945s-9.0998 18.7945-20.3272 18.7945z" fill="#ffa100"/><path d="m58.8569 52.7005c4.8777-4.604 4.8777-12.0685 0-16.6725s-12.786-4.604-17.6637 0-4.8777 12.0685 0 16.6725c4.8777 4.6041 12.786 4.6041 17.6637 0z" fill="#fff"/><path d="m98.1162 44.3647c0 7.4786-6.4182 13.5366-14.3413 13.5366-7.9232 0-14.3413-6.058-14.3413-13.5366s6.4181-13.5366 14.3413-13.5366c7.9231-.0081 14.3413 6.058 14.3413 13.5366z" fill="#fff"/><path d="m48.8629 51.9176c4.2994 0 7.7848-3.2898 7.7848-7.3479 0-4.0582-3.4854-7.348-7.7848-7.348s-7.7848 3.2898-7.7848 7.348c0 4.0581 3.4854 7.3479 7.7848 7.3479z" fill="#26110b"/><path d="m53.7063 46.341c1.4331 0 2.5949-1.0966 2.5949-2.4493s-1.1618-2.4493-2.5949-2.4493c-1.4332 0-2.595 1.0966-2.595 2.4493s1.1618 2.4493 2.595 2.4493z" fill="#fff"/><path d="m84.7594 51.9176c4.2994 0 7.7848-3.2898 7.7848-7.3479 0-4.0582-3.4854-7.348-7.7848-7.348s-7.7848 3.2898-7.7848 7.348c0 4.0581 3.4854 7.3479 7.7848 7.3479z" fill="#26110b"/><path d="m79.9426 46.8801c1.4331 0 2.5949-1.0966 2.5949-2.4493 0-1.3528-1.1618-2.4494-2.5949-2.4494-1.4332 0-2.5949 1.0966-2.5949 2.4494 0 1.3527 1.1617 2.4493 2.5949 2.4493z" fill="#fff"/><path d="m66.8531 61.1683c-.6746-.0163-1.2888-.3592-1.6175-.9144l-3.4858-7.699c-.3979-.6777-.2941-1.5186.2595-2.0901.2422-.2449 2.4305-2.4003 5.4493-2.4003 1.3148 0 3.2523.4245 5.0774 2.4574.5277.5879.5968 1.4288.173 2.0901l-4.2038 7.6991c-.346.5307-.9601.8572-1.6175.8572-.0173 0-.0259 0-.0346 0z" fill="#f6fb30"/><path d="m68.1172 60.7351c-.4066.3265-.7958.3837-1.0034.4082-.2162.0082-.2854.0081-.2249-.0082.0606-.0163.2422-.0245.519-.1143.2681-.0898.6314-.2776.9082-.645l4.1173-7.9031.0086-.0082v-.0081c.3028-.4817.2855-1.1267-.0519-1.5839-.3892-.4736-.9341-.9634-1.4704-1.3308-1.1072-.7757-2.4479-1.1757-3.7281-1.1022-1.185.0571-2.3181.4572-3.2869 1.0205-.4843.2858-.9341.6042-1.3407.9553-.2076.1796-.3892.3429-.5017.5225-.1211.1878-.1989.3919-.2162.6041-.0259.2123 0 .4246.0692.6287.0433.1143.0692.1551.147.3266l.1471.3429.5622 1.3145.9947 2.3676 1.4186 3.4536c.3114.8327.9428.996.9255 1.0205.4671.196.7353.1633.7612.1878.0346 0-.1557.0408-.5276-.0408-.3547-.0898-.9428-.3266-1.2715-.9797l-1.0467-2.1473-1.3061-2.7187-.7266-1.5186-.3719-.792c-.0605-.1224-.1297-.2857-.1903-.3837-.0865-.1551-.147-.3102-.1903-.4817-.1816-.6776.0519-1.4451.5796-1.9431.467-.4654.986-.8654 1.5483-1.2165 1.1158-.7022 2.4392-1.192 3.7885-1.2492 1.6608-.0898 3.2437.5226 4.3941 1.4206.2941.2205.5623.4654.8131.7103.2422.2531.493.4817.692.8328.3806.6695.3114 1.4859-.0865 2.0738l.0086-.0164c-1.3753 2.4004-2.5516 4.4007-3.3907 5.8131l-.986 1.6492c-.2422.3919-.4758.5225-.4844.5389z" fill="#ff7d00"/><g fill="#f6fb30"><path d="m28.234 20.1497c-.493-.0326-.9688-.2368-1.3234-.596-.5276-.5307-.6833-1.2981-.4065-1.9758l2.2575-8.6216c.2595-.63682.8737-1.09403 1.5916-1.18384.1384-.01633.2681-.02449.4065-.01633.5796.04082 1.1158.31025 1.4705.75113l4.4892 6.60504c.3892.4898.5017 1.1267.3028 1.7063-.199.5797-.6834 1.0369-1.2975 1.2247l-6.7468 2.0166c-.2422.0735-.4931.098-.7439.0898z"/><path d="m106.652 24.0358c.424.0408.856-.0735 1.211-.3266.528-.3837.77-1.0124.64-1.6247l-1.392-6.2621c-.13-.5797-.58-1.0451-1.177-1.2165-.112-.0327-.225-.0572-.346-.0653-.493-.0408-.995.1143-1.358.449l-4.031 3.6658c-.3975.3674-.5878.89-.51 1.4125.0779.5225.424.9716.926 1.2083l5.423 2.6045c.199.0816.406.1388.614.1551z"/><path d="m67.4083 69.0625c-16.002 0-28.9767 12.2466-28.9767 27.3508 0 .4817.026.9634.0519 1.4369 7.534 5.5848 17.2822 8.6628 29.1497 9.1608.9515.041 1.8943.057 2.8112.057 10.2586 0 18.8651-2.458 25.707-7.3073.1471-1.1022.2249-2.2207.2249-3.3637.0087-15.096-12.966-27.3345-28.968-27.3345z"/></g><g fill="#f60"><path d="m46.9336 82.2559s5.4753 4.8986 10.9592 0c0 0-5.6915 9.5279-10.9592 0z"/><path d="m62.0703 83.8887s5.4753 4.8986 10.9593 0c0 0-5.6916 9.5279-10.9593 0z"/><path d="m77.6406 84.8447s5.4753 4.8987 10.9593 0c0 0-5.6916 9.5279-10.9593 0z"/><path d="m71.2227 92.6006s5.4752 4.8986 10.9592 0c0 0-5.6916 9.5274-10.9592 0z"/><path d="m51.2578 91.5801s5.4753 4.8986 10.9592 0c0 0-5.6915 9.5279-10.9592 0z"/><path d="m55.6523 74.0264s5.4753 4.8986 10.9593 0c0 0-5.6916 9.5278-10.9593 0z"/><path d="m82.6836 97.6377s5.4753 4.8983 10.9592 0c0 0-5.6915 9.5193-10.9592 0z"/><path d="m60.627 99.3359s5.4752 4.8991 10.9592 0c0 0-5.6916 9.5281-10.9592 0z"/><path d="m41.3809 97.499s5.4752 4.899 10.9592 0c0 0-5.6915 9.528-10.9592 0z"/><path d="m71.2227 74.6387s5.4752 4.8986 10.9592 0c0 0-5.6916 9.5278-10.9592 0z"/></g><path d="m106.671 60.3346c-.312-.0326-.623 0-.917.0899-.329.0979-.614.2694-.865.498 13.502 3.8618 21.468 15.7002 23.544 28.4775.182 1.094.312 2.2044.407 3.3147l2.586 1.3471c.554.2858 1.194.3348 1.773.1633.217-.0653.424-.1633.614-.2939.71-.4817 1.056-1.2981.9-2.1064-5.631-29.0735-27.126-31.4085-28.042-31.4902z" fill="#f8d13e"/><path d="m28.751 59.2655c-.1902-.0816-.3805-.1714-.5708-.2531-.1038-.0081-.2076-.0163-.3114-.0163-.839.049-20.58643 1.3961-26.943994 27.7672-.172995.7348.112444 1.494.735224 1.9594.173.1306.35464.2205.55359.2939.09515.0327.19894.0572.30274.0735.58818-1.2002 1.16772-2.4085 1.76455-3.6087 4.78331-9.5033 13.76179-21.603 24.47009-26.2159z" fill="#f8d13e"/><path d="m29.0354 59.2737c-.0519-.0245-.1038-.049-.147-.0735-.0433.0163-.0952.0408-.1384.0572.0519.0244.1124.0489.1643.0734z" fill="#fafd87"/></g></svg>