<svg fill="none" height="111" viewBox="0 0 96 111" width="96" xmlns="http://www.w3.org/2000/svg"><path d="m39.5172 40.1123s-1.0822-10.4714 18.8383-19.9814 19.9205-19.857951 19.9205-19.857951 12.3198 24.405051-38.7588 39.839351z" fill="#f85978"/><path d="m61.2555 22.3073c-13.0562 6.2361-17.0903 12.8814-18.3197 16.7204 30.8316-10.1206 36.4472-23.5995 36.6457-31.70641-2.113 3.89751-6.9923 9.57491-18.326 14.98601z" fill="#f71951"/><path d="m43.8644 38.7223c-2.3051.7665-3.6434 1.1628-4.1365 1.3057-.493.1429-.1408.026.9093-.3118 2.0811-.6886 6.9859-2.2216 13.0818-4.9369 3.0416-1.3641 6.3648-3.0336 9.6625-5.1058 3.2913-2.0722 6.5505-4.5666 9.2719-7.5287 2.7214-2.9492 4.8601-6.3985 5.8782-10.0557 1.0309-3.64416.9797-7.46375-.1921-10.84811-.1089-.298813-.2241-.60412-.3586-.876947l.6147-.103935c-.1345 1.844832-.8388 3.514282-1.6905 5.099282-.8708 1.5785-1.9657 3.03358-3.176 4.36524-2.4268 2.67627-5.3082 4.87837-8.2409 6.72977-1.4664.9289-2.9519 1.7669-4.4311 2.5399-1.4727.7795-2.9711 1.4421-4.3542 2.1436-2.779 1.4031-5.2314 2.8907-7.3061 4.3977-4.1813 3.0076-6.749 6.1257-8.0552 8.4577-1.3191 2.3385-1.5496 3.8131-1.5816 3.8715-.3138 1.3967-.2434 2.1177-.2498 2.2216.0064.104-.0832-.3962.0449-1.4031.1344-1.0003.4994-2.5074 1.4151-4.2873.9028-1.7798 2.3564-3.826 4.431-5.8593 2.0683-2.0397 4.7384-4.0599 7.8632-5.9242 3.0992-1.9163 6.8258-3.3974 10.2132-5.4631 3.4193-2.0332 6.7041-4.4367 9.3679-7.28186 1.3255-1.4226 2.4973-2.94914 3.4065-4.56662.8901-1.60448 1.588-3.34538 1.7097-5.034316v-.019487c.0128-.14291.1601-.25334039.333-.2468445.128.00649589.2305.0714548.2753.1623975.1537.318299.2689.61711.3778.92891 1.2038 3.49479 1.1846 7.11301.3586 10.43892-.8325 3.3324-2.5101 6.3595-4.5784 8.9578-2.0682 2.6049-4.5078 4.794-6.9795 6.6518-2.478 1.8514-4.9881 3.3844-7.3637 4.6641-4.7576 2.5659-8.9325 4.1963-11.8396 5.2876-2.9135 1.0783-4.6039 1.598-4.6808 1.6305z" fill="#740007"/><path d="m46.5273 42.3213s.8964-10.4844-19.1905-19.754c-20.087-9.2696-20.27269-19.61759-20.27269-19.61759s-11.87801 24.55449 39.46319 39.37159z" fill="#4fa0ca"/><path d="m46.5273 42.3213s.8964-10.4844-19.1905-19.754c-20.087-9.2696-20.27269-19.61759-20.27269-19.61759s-11.87801 24.55449 39.46319 39.37159z" fill="#f85978"/><path d="m5.98212 11.1926c.85163 8.1134 7.45338 20.6115 36.46008 29.8876-1.4344-3.8715-5.7245-10.244-18.4798-16.1293-10.4757-4.8394-15.53425-9.9582-17.98028-13.7583z" fill="#f71951"/><path d="m42.1606 40.9896c2.318.7405 3.6626 1.1303 4.1493 1.2797.4866.1494.1216.052-.9413-.2469-2.1195-.6236-7.082-2.0332-13.2803-4.625-3.0928-1.2992-6.4865-2.9102-9.861-4.9369-3.3681-2.0202-6.7362-4.4757-9.5728-7.4313-2.83666-2.9427-5.10341-6.418-6.22398-10.1336-1.13337-3.7027-1.16539-7.60021-.01921-11.10799.10886-.31181.21771-.61711.36499-.93541.06403-.13641.24332-.20137.40981-.14941.12166.03898.19209.12343.2049.22736v.01949c.14727 1.67594.85803 3.34538 1.71607 4.86542.87084 1.52654 1.95942 2.94264 3.16322 4.24834 2.4204 2.6048 5.2826 4.7615 8.1961 6.5868 1.46.9094 2.9391 1.7409 4.4119 2.4944 1.4663.7666 2.9582 1.4226 4.3606 2.1307 2.8046 1.4096 5.2762 2.8972 7.3701 4.4172 4.2133 3.0271 6.7938 6.1776 8.0937 8.5226 1.3126 2.3515 1.5239 3.8261 1.5624 3.8846.3393 1.3901.2689 2.1111.2625 2.2151-.0192.1039.0384-.3963-.1409-1.3902-.1793-.9938-.6019-2.4749-1.5752-4.2158-.9605-1.7409-2.4716-3.7351-4.5911-5.7034-2.1131-1.9747-4.8216-3.9235-7.9784-5.7099-3.1184-1.8318-6.8771-3.2414-10.3733-5.2682-3.5025-1.9877-6.8899-4.3652-9.6625-7.2169-1.3831-1.4226-2.61248-2.96862-3.57937-4.61208-.94767-1.64996-1.70326-3.37787-1.86974-5.2292l.61471.09095c-.12806.27932-.24332.58463-.33937.87694-1.10776 3.40385-1.04373 6.95059-.1921 10.19209.85804 3.2544 2.52928 6.2165 4.58467 8.7629 2.0619 2.5529 4.4823 4.7096 6.9412 6.5414 2.4652 1.8318 4.9625 3.3454 7.3253 4.6251 4.7384 2.5529 8.9005 4.1898 11.8011 5.2876 2.9007 1.0784 4.5912 1.6175 4.668 1.6435z" fill="#740007"/><path d="m33.4712 104.5s-11.4682 2.903-1.4984 3.066c0 0-1.1333 5.398 1.9722.474 0 0 7.114 7.912.762-3.248z" fill="#f71951"/><path d="m34.4194 104.727c-1.46-.351-1.1462-.318.3329-.007.3202.527.6468 1.072 1.0566 1.787.397.695.8324 1.494 1.2486 2.384.1985.454.4162.903.4995 1.487.0256.156-.0128.468-.2113.565-.1793.124-.4867.013-.5891-.039-.269-.129-.4867-.285-.698-.454-.429-.332-.8196-.695-1.2038-1.072l-.5635-.565-.2753-.286c-.0513-.052-.0192-.019-.032-.032.0832-.124-.2178.344-.4034.604-.2114.292-.4291.578-.6852.844-.1088.111-.2305.227-.3906.325-.1152.097-.4994.221-.7172.013-.2305-.227-.2305-.416-.2689-.578-.0256-.169-.0256-.325-.0256-.474.0064-.306.0384-.592.0768-.877l.0641-.423c.0192-.091.0128-.084.0192-.091l.0064-.013-.0192-.006h-.0064-.0577l-.128-.007-.5187-.026c-.3458-.019-.6787-.045-1.0117-.077-.6595-.085-1.287-.13-1.9018-.442-.1472-.065-.3777-.325-.2881-.559.0896-.253.2241-.325.3458-.429.2497-.175.4994-.292.7427-.402.4867-.215.9413-.371 1.3639-.5 1.6777-.52 2.7086-.715 2.7406-.735 1.2038-.305.3522-.071-1.5239.559-.4675.163-.999.351-1.5624.585-.2818.117-.5763.247-.8709.389-.2817.143-.6019.319-.794.527-.0896.104-.064.117-.0128.169.0961.071.2625.129.429.168.3394.085.7044.13 1.0822.163.3778.032.7556.052 1.1462.065l1.4919.026-.0832.416-.0513.318-.0576.416c-.032.279-.0576.552-.0576.818 0 .13.0064.266.0256.377.0128.058.0256.11.0384.143.0192.039.0128.019.0128.026-.0768.045.2049-.091.3586-.28.2305-.24.4418-.519.6467-.799l.2946-.428.4738-.734.5763.636.3394.364c.2241.24.4546.468.6787.695.4547.435.9093.87 1.3703 1.156.0576.033.1153.065.1601.078.0192.007.032.013.0512.013.0384-.019.0448-.019.0448-.117-.0192-.24-.1024-.513-.1792-.76-.1729-.5-.3714-.974-.5699-1.403-.7876-1.734-1.4408-2.949-1.6905-3.443z" fill="#740007"/><path d="m60.9794 101.61s11.5771-2.4427 2.6637 2.104c0 0 3.3361 4.359-1.5687 1.293 0 0-3.016 10.264-2.0747-2.585z" fill="#f71951"/><path d="m60.2239 102.239c1.191-.981.8901-.682-.1408.228-.0256 1.007-.1345 2.76-.0577 4.67.0321.468.0577.994.205 1.41.0384.084.032.065.064.084.032-.019.0128.007.1024-.097.1345-.176.2498-.403.3586-.637.2177-.461.397-.961.5699-1.461l.2497-.754.333-1.098c.7364.455.8772.533 1.2102.715.301.162.6019.318.8965.422.128.046.2497.078.3585.091.1281.007.0769 0 .0897 0 0 .033 0-.097-.0384-.208-.032-.117-.0833-.234-.1409-.357-.1153-.24-.2561-.474-.397-.702l-.2241-.337-.1793-.267-.2433-.318 1.2038-.617c.3009-.156.5891-.318.8708-.474.5443-.325 1.1142-.656 1.4407-1.053.1281-.169.0577-.208-.2241-.292-.2497-.058-.5122-.071-.7684-.078-.5122-.006-.9861.026-1.4215.059-1.7352.155-2.7726.331-2.8046.331-1.2166.253-.3714-.013 1.5752-.39.4867-.091 1.0437-.182 1.6648-.26.3074-.032.634-.065.9733-.078.3458 0 .6916-.026 1.095.111.0896.032.2497.117.3202.253.0768.13.0576.312-.0064.442-.1089.221-.2562.357-.4035.493-.2945.267-.6147.488-.9412.696-.3266.214-.666.415-1.0117.61l-.5187.286-.2305.123-.0128.013.0128.013.0064.007.0576.078.2497.364c.1601.246.3138.5.4483.773.064.136.128.279.1729.441.0256.085.0448.169.0512.273.0064.098-.0128.266-.0897.377-.0704.117-.1985.195-.3329.227-.1345.026-.2241.02-.3138.013-.1729-.019-.3202-.071-.461-.117-.365-.13-.6852-.298-.9989-.474l-.4611-.266-.1152-.072c-.0448-.026-.0128-.006-.0256-.013l-.0064-.006-.0064.006c-.0064.013.0064-.019-.0064.026l-.0385.124-.16.48c-.1089.319-.2242.631-.3458.936-.2433.61-.4803 1.195-.8516 1.728-.0513.065-.1025.13-.1729.201-.0897.085-.2049.163-.3202.176-.2497.051-.4482-.228-.4995-.403-.1024-.319-.128-.598-.1472-.877-.0384-.552-.0256-1.072-.0128-1.553.0832-1.929.2561-3.28.3201-3.852z" fill="#740007"/><path d="m40.7451 106.39c.7172 0 1.4536-.019 2.19-.052 13.2162-.61 23.1349-5.749 29.4677-15.2587 15.4574-23.2034 2.6573-64.5497 2.5164-64.9655-.5635-1.6239-1.8761-2.8582-3.5153-3.2999-.4291-.1169-.8645-.1689-1.2999-.1689-1.2358 0-2.4332.4547-3.3617 1.2797-.1921.1754-.3714.3638-.5187.5781l-5.2634 5.3722c-3.9956-1.4746-10.7831-3.3974-18.96-3.3974-6.4161 0-12.5696 1.1952-18.3261 3.5468l-5.8718-5.2617c-.9348-.838-2.1322-1.2992-3.3809-1.2992-.5122 0-1.0245.078-1.5175.2339-1.6905.5326-3.00956 1.9487-3.43857 3.6896-.30096 1.2213-2.9583 12.3162-3.61783 25.8602-.89646 18.3314 2.20271 32.2391 9.2143 41.3463 6.019 7.8275 14.6634 11.7905 25.6833 11.7965z" fill="#c2000b"/><path d="m40.803 103.46c-10.1492 0-18.0892-3.6243-23.5959-10.7828-6.5506-8.5096-9.43842-21.6443-8.58679-39.0338.63392-12.9918 3.18239-23.6386 3.47059-24.8143.2689-1.0913 1.0949-1.9813 2.1515-2.3126.3073-.0974.6275-.1429.954-.1429.7812 0 1.5304.2859 2.1195.812l5.7117 5.1188c.3266.2923.7492.4482 1.1718.4482.2241 0 .4482-.0455.6595-.1299 5.3851-2.2021 11.1609-3.3259 17.1671-3.3259 7.5814 0 13.8886 1.7409 17.8458 3.196.1985.0714.4034.1104.6019.1104.4611 0 .9157-.1819 1.2551-.5262l5.1226-5.2292c.064-.0649.1216-.1364.1792-.2143.0705-.0975.1473-.1884.237-.2664.5827-.5196 1.3318-.8055 2.1066-.8055.2754 0 .5507.039.8196.1105 1.0246.2728 1.8506 1.0458 2.2028 2.0657.1216.3702 12.3006 39.7678-2.2476 61.607-5.8333 8.763-15.0156 13.4922-27.2842 14.0572-.7043.039-1.3959.058-2.0618.058z" fill="#f71951"/><path d="m31.2238 105.253c4.4694 1.098 7.3445 1.072 8.6507 1.137 1.3191.02 1.1142.033-.3714.02-1.4791-.046-4.2709-.117-8.004-1.007-3.6947-.884-8.4075-2.735-12.704-6.5871-2.1387-1.9098-4.1493-4.2873-5.8718-7.0675-1.7225-2.7738-3.1504-5.9438-4.25816-9.3606-2.21552-6.8532-3.14399-14.6807-3.176-22.8071-.03202-8.1393.77479-16.6165 2.26034-25.0806.37779-2.1177.7876-4.2353 1.27424-6.34.12807-.5197.22412-1.0653.44823-1.598.21771-.5197.50586-1.0134.87725-1.4421.7236-.8639 1.7225-1.494 2.811-1.7604 1.0886-.2728 2.2604-.1819 3.2913.2469.5186.2143 1.0053.5131 1.4279.8769l1.2038 1.0718 4.6424 4.1574.5442-.2144.7044-.2663c.4674-.1754.9413-.3443 1.4151-.5067.9477-.3183 1.9082-.6106 2.8687-.8704 1.9273-.5197 3.8739-.9094 5.8205-1.1823 3.8996-.5456 7.8055-.6041 11.5963-.2663 2.4908.2144 4.9433.6041 7.3509 1.1433 1.2038.2663 2.3884.5781 3.5602.9224.5891.1689 1.1718.3508 1.7481.5457l.8644.2858.6916.2468 4.1172-4.2028 1.0246-1.0459c.3201-.4417.7363-.786 1.1717-1.0718.8773-.5716 1.9146-.8769 2.9455-.8639 2.0747 0 4.0533 1.3186 4.8601 3.2154.2113.4742.3266.9549.4674 1.4226l.3906 1.4031c.2498.9354.4867 1.8709.7108 2.7998 1.7929 7.4573 2.9263 14.7651 3.4129 21.7482.4867 6.9831.301 13.6479-.6915 19.767-.9797 6.1062-2.8111 11.6536-5.4108 16.1943-2.5869 4.5471-5.891 8.0419-9.2078 10.4649-3.3233 2.4359-6.6082 3.8719-9.3424 4.7809-2.7469.909-4.9753 1.325-6.4992 1.572-1.5304.24-2.382.318-2.4589.325-3.3297.357-5.1162.305-5.526.312-.4162-.013.5379.013 2.6382-.111 2.0938-.143 5.3659-.409 9.4319-1.494 4.0341-1.091 8.9389-3.098 13.434-6.9829 2.2412-1.9293 4.3414-4.3133 6.1407-7.1 1.8057-2.7803 3.2913-5.9633 4.4119-9.4061 2.2603-6.8986 3.0863-14.7652 2.9006-22.8915-.1857-8.1394-1.3383-16.5775-3.2336-24.9507-.4739-2.0917-.9989-4.1834-1.5944-6.2556-.1537-.5197-.2818-1.0393-.5059-1.494-.2177-.4613-.5122-.89-.858-1.2602-.7044-.7406-1.6328-1.2538-2.6381-1.4356-.999-.1819-2.0491-.039-2.9647.4092-.4547.2274-.8837.5262-1.2359.8769-.0896.091-.1665.1819-.2433.2794l-.0576.0714c-.0064.0065-.0256.0325-.0512.065l-.0385.0455-.1408.1429-.5635.5781-4.636 4.742-1.0373-.3703-.8708-.2923c-.5827-.1949-1.1718-.3767-1.7609-.5456-1.1782-.3443-2.3628-.6496-3.5538-.9095-2.382-.5261-4.7832-.9029-7.1845-1.1108-3.97-.3507-7.9336-.2533-11.7819.3054-1.921.2793-3.8163.6755-5.6669 1.1757-.922.2533-1.8377.5327-2.7406.838-.4482.1559-.8964.3118-1.3446.4807l-.666.2533-.8132.3248-4.3286-3.891-1.0373-.9354c-.3522-.3053-.6851-.6366-1.0309-.89-.7108-.5132-1.556-.825-2.4204-.8899-1.7353-.1624-3.477.734-4.4119 2.1826-.2369.3573-.42259.747-.56346 1.1563-.12807.3962-.22412.8509-.32657 1.2862-.2049.8704-.3906 1.7474-.56989 2.6178-1.42152 6.9636-2.31157 13.7323-2.74699 20.1763-.42901 6.4439-.39059 12.5695.1921 18.2274.5827 5.6514 1.72247 10.8417 3.41293 15.3238 1.67768 4.4887 3.91878 8.2433 6.37118 11.1145 2.4397 2.8842 5.0522 4.8782 7.3253 6.2292 2.2796 1.352 4.2262 2.092 5.5645 2.547 1.3254.448 2.0874.63 2.1643.649z" fill="#740007"/><path d="m14.2039 36.0853c-.3137.0325-.6339-.0584-.8964-.2598-.3906-.2988-.5699-.8055-.4739-1.2927l1.031-4.9823c.096-.4613.429-.8315.8708-.9679.0832-.026.1665-.0455.2561-.052.365-.0325.7364.0909 1.0053.3573l2.984 2.9166c.2945.2923.4354.7081.3777 1.1238-.0576.4158-.3137.773-.6851.9614l-4.0148 2.0722c-.1473.0585-.301.1039-.4547.1234z" fill="#fa94a9"/><path d="m70.2708 36.0853c.3137.0325.6339-.0584.8964-.2598.3906-.2988.5699-.8055.4738-1.2927l-1.0309-4.9823c-.096-.4613-.429-.8315-.8708-.9679-.0833-.026-.1665-.0455-.2561-.052-.365-.0325-.7364.0909-1.0054.3573l-2.9839 2.9166c-.2945.2923-.4354.7081-.3778 1.1238.0577.4158.3138.773.6852.9614l4.0148 2.0722c.1409.0585.2946.1039.4547.1234z" fill="#fa94a9"/><path d="m41.6868 72.5791c-11.8268.7081-20.8489 11.0106-20.151 23.0085.0321.5846.1025 1.1627.1793 1.7279 2.683 2.1696 5.7501 3.7615 9.1887 4.7805 2.6893.715 5.5644 1.163 8.6123 1.332.4226.013.8517.026 1.2871.026.6659 0 1.3575-.013 2.049-.052 8.7789-.409 15.9697-2.956 21.4893-7.5741.064-.9224.0768-1.8643.0192-2.8127-.698-11.9914-10.8471-21.1441-22.6739-20.4361z" fill="#ff0"/><g fill="#ff8200"><path d="m27.1705 83.9725s4.2774 3.6507 8.1001-.4871c-.0064 0-3.7715 7.821-8.1001.4871z"/><path d="m38.4274 84.5961s4.271 3.6507 8.0937-.4872c.0064.0065-3.7587 7.821-8.0937.4872z"/><path d="m49.9794 84.6674s4.2774 3.6507 8.0937-.4872c.0064 0-3.7587 7.8145-8.0937.4872z"/><path d="m45.5995 91.1112s4.2773 3.6507 8.1001-.4872c-.0064 0-3.7715 7.8211-8.1001.4872z"/><path d="m30.7947 91.1827s4.2773 3.6507 8.1001-.4871c-.0064 0-3.7651 7.821-8.1001.4871z"/><path d="m33.2351 77.0479s4.2774 3.6507 8.1001-.4872c-.0064 0-3.7715 7.821-8.1001.4872z"/><path d="m54.3016 94.5997s4.2709 3.6507 8.0937-.4872c0 .0065-3.7651 7.8215-8.0937.4872z"/><path d="m38.0757 96.9252s4.2709 3.6508 8.0937-.4872c.0064.0065-3.7587 7.821-8.0937.4872z"/><path d="m23.7708 96.3209s4.2773 3.6507 8.1-.4872c0 0-3.7651 7.8213-8.1.4872z"/><path d="m44.7675 76.8464s4.271 3.6507 8.0937-.4871c.0064 0-3.7587 7.8145-8.0937.4871z"/></g><path d="m87.0094 100.265c-.6211.143-1.2742-.059-1.7097-.5393l-3.5217-3.8781-2.4973 4.3194c-.2497.436-.6659.741-1.1398.851-.1024.026-.2049.039-.3137.046-.6019.026-1.1782-.253-1.5304-.747-.493-.6952-11.9228-17.1818-2.1195-33.9152.2562-.4353.6724-.7341 1.1334-.838.2369-.052.4802-.0585.73-.013.7171.1364 17.5384 3.6637 19.8244 28.7703.064.6951-.2754 1.3641-.8645 1.7214-.16.0975-.3329.1689-.5122.2079-.4739.1104-.9797.0195-1.3959-.2663l-3.5602-2.436-1.191 5.3591c-.1473.6561-.6403 1.1758-1.2807 1.3508-.0064-.006-.0256 0-.0512.007z" fill="#f7386c"/><path d="m88.7252 97.218c-.1921.812-.2945 1.494-.4802 2.0072-.2241.5002-.5827.7535-.8196.8708-.2434.117-.3907.136-.4163.143-.0256 0 .0641-.013.2498-.091.1793-.078.4674-.2342.7107-.559.1217-.1624.2305-.3638.301-.6106l.1793-.8315 1.0181-4.7875 3.7459 2.5204c.6083.4028 1.524.3248 2.0554-.2598.269-.2858.429-.6691.4482-1.0718-.0064-.3963-.0768-.8705-.1216-1.3057-.4162-3.5792-1.223-7.5222-2.7662-11.3743-1.5304-3.8456-3.8612-7.5807-6.9667-10.5039-1.5496-1.4615-3.2721-2.7153-5.1034-3.7026-.9157-.4937-1.857-.9224-2.811-1.2732-.4803-.1754-.9605-.3313-1.4408-.4547-.4994-.1429-.9092-.2144-1.319-.0455-.2434.0909-.4675.2533-.634.4612-.1536.1884-.3073.5002-.461.76-.3009.5392-.5827 1.0848-.8516 1.637-.5315 1.1043-.9861 2.2346-1.3639 3.3714-.7556 2.28-1.191 4.599-1.3447 6.8726-.3137 4.5536.4803 8.8539 1.7097 12.5566.6147 1.8578 1.3447 3.5792 2.1258 5.1512.3906.786.8005 1.5331 1.2167 2.2411.2113.3508.4226.6951.6403 1.0264.2113.3442.4354.6102.762.7792.6339.345 1.4279.195 1.9081-.266.2434-.221.3842-.5392.5699-.8315l.5059-.851 1.7993-3.0466 3.3361 3.7546c.3457.4418.7492.6755 1.0757.7535.3266.085.5635.052.698.039.2625-.058.1408.026-.3458.039-.2369-.006-.5827-.065-.9285-.292-.3522-.2341-.6403-.6369-1.0373-1.0331l-2.7726-2.9946-1.9786 3.4882c-.1985.3313-.3394.6565-.6083 1.0005-.2625.325-.6467.565-1.0693.656-.4227.097-.8837.039-1.2807-.169-.4098-.188-.7108-.591-.9349-.942-1.8953-2.884-3.5538-6.3853-4.6679-10.2893-1.1142-3.8975-1.6136-8.2368-1.0694-12.5436.2626-2.1501.7812-4.2743 1.5304-6.301.3714-1.0133.8068-2.0007 1.2871-2.9556.2433-.4807.493-.9484.7555-1.4096l.2049-.3508c.0833-.1299.1729-.2468.2818-.3573.2113-.2143.4674-.3897.7492-.4937.3521-.1429.7491-.1624 1.1205-.0974.3394.0715.6532.1559.9733.2468.6339.1884 1.2551.4158 1.857.6626 1.2038.5002 2.35 1.1108 3.4257 1.7864 2.1579 1.3641 4.034 3.0336 5.6092 4.8589 3.1632 3.6637 5.0778 7.8665 6.2432 11.7576.5827 1.9553.9861 3.8456 1.2742 5.6319.1473.89.2562 1.7604.3522 2.5919l.1217 1.2277c.0512.3898.0384.851-.1345 1.2147-.3266.7601-1.127 1.1953-1.8569 1.1238-.365-.0259-.7108-.1624-.9797-.3702l-.7876-.5522-2.6382-1.8448z" fill="#f8013a"/><path d="m76.6679 66.5704c-.2305-.0454-.461-.0389-.6787.013-.2433.0585-.4739.1754-.6724.3378 9.6881 3.9625 14.7275 13.8753 15.3678 24.1388.0576.8834.0704 1.7669.0704 2.6568l1.8122 1.2407c.3842.2663.858.3508 1.2998.2469.1665-.039.3266-.104.4803-.1949.5506-.3313.8708-.9614.8068-1.6045-2.1387-23.4177-17.8202-26.7046-18.4862-26.8346z" fill="#fa94a9"/><path d="m16.6315 99.199c.5891-.2468 1.0053-.799 1.0822-1.4421l.6467-5.2292 4.5015 2.0462c.4546.2079.9669.2079 1.4151.0195.096-.0389.1921-.0909.2817-.1494.5059-.3313.8133-.9029.8197-1.5135 0-.8575-.1153-21.0077-17.67299-28.8678-.45463-.2013-.96048-.2013-1.40871-.013-.22411.091-.42902.2339-.6019.4158-.50586.5326-12.19177 13.3036.31376 35.1038.34577.6037 1.0053.9487 1.69045.8897.18569-.013.36499-.058.53147-.13.44823-.188.80681-.5583.9861-1.0325l1.50472-4.073 4.0277 3.6637c.493.4482 1.191.5846 1.8185.3508.0192-.026.0448-.0325.064-.039z" fill="#f7386c"/><path d="m13.4935 97.7245c.6211.5456 1.095 1.0393 1.5432 1.3511.4738.2794.9028.2729 1.1654.2274.2689-.0455.397-.1169.4226-.1299.0192-.013-.064.026-.2561.0714-.1921.0455-.5123.0845-.8965-.0324-.1921-.0585-.397-.1624-.5955-.3183l-.6211-.5717-3.573-3.2999-1.60723 4.2548c-.26254.6886-1.05654 1.163-1.82493.994-.37779-.072-.72997-.2924-.97329-.6107-.21771-.3248-.43542-.7535-.64673-1.1368-1.71607-3.157-3.31687-6.8402-4.26455-10.8871-.954087-4.034-1.19741-8.4447-.32657-12.654.42902-2.0982 1.11416-4.1379 2.03623-6.0217.46103-.9419.9861-1.8448 1.56239-2.6893.28815-.4222.5891-.8315.91566-1.2212.32657-.4093.62112-.7081 1.04373-.812.25613-.0715.52507-.0715.77479 0 .23052.0649.53788.2273.80681.3508.55708.2598 1.09496.5391 1.63283.8379 1.06296.5847 2.08106 1.2407 3.03516 1.9423 1.9209 1.4096 3.5986 3.0466 5.0265 4.807 2.8623 3.5272 4.6744 7.4962 5.7885 11.2378.5635 1.8774.9541 3.7027 1.2103 5.4436.128.8705.2305 1.7214.2945 2.5399.032.4092.0576.8185.0704 1.2147.0257.4028-.0064.7536-.1793 1.0848-.3201.6496-1.0565 1.0004-1.7032.903-.3266-.039-.6211-.2079-.9349-.3443l-.8964-.3963-3.2017-1.4226-.5698 5.0149c-.0321.5651-.2242.9938-.4483 1.2472-.2177.2598-.429.3767-.5442.4417-.2434.1039-.1025.1039.3009-.1689.1921-.1494.4354-.3962.5891-.786.1537-.3962.1601-.8964.2497-1.4551l.5443-4.0729 3.605 1.6759c.3522.1495.6532.3378 1.0694.4612.4034.1105.8452.078 1.2486-.0909.397-.1689.7428-.4872.9477-.8899.2241-.3963.2369-.903.2177-1.3187-.1089-3.4623-.762-7.2949-2.0811-11.134-1.3254-3.826-3.3937-7.6586-6.3008-10.8481-1.4407-1.598-3.0799-3.0206-4.8536-4.2288-.8837-.6041-1.7993-1.1563-2.74059-1.65-.46744-.2468-.94128-.4807-1.42152-.7015l-.36499-.1624c-.14087-.0585-.28174-.104-.42901-.1299-.29455-.052-.60191-.039-.89005.0389-.37139.091-.70436.3053-.96689.5782-.23692.2533-.44183.5131-.65313.773-.40981.5261-.7812 1.0718-1.13338 1.6304-.69155 1.1173-1.28064 2.2866-1.76729 3.4753-.973291 2.3775-1.549583 4.846-1.792906 7.2625-.480243 4.8459.364985 9.3995 1.645636 13.2516.64032 1.9357 1.3959 3.7156 2.1771 5.3331.39059.812.794 1.585 1.1974 2.319l.61471 1.0848c.17929.3508.45463.7146.80681.9096.70436.429 1.60722.312 2.15789-.176.28175-.2334.48025-.5517.5891-.8765l.32657-.9159 1.09494-3.0531z" fill="#f8013a"/><path d="m5.78426 65.6671c.16008-.1689.35218-.3053.56348-.3898.23052-.0974.48665-.1364.73638-.1169-5.62205 8.9318-4.05966 19.9749 1.28705 28.7118.46103.7536.95408 1.4811 1.46634 2.2021l-.76839 2.0787c-.16648.4417-.49945.786-.91566.9679-.15368.065-.32657.1105-.49946.1234-.64032.052-1.25503-.2728-1.57519-.8314-11.6603-20.3387-.76199-32.2521-.29455-32.7458z" fill="#fa94a9"/><path d="m56.2491 40.6261c-5.8782 0-10.9432 3.5338-13.2483 8.6265-2.3052-5.0862-7.3637-8.6265-13.2483-8.6265-8.0489 0-14.5738 6.6193-14.5738 14.7847 0 8.1653 6.5249 14.7846 14.5738 14.7846 5.8782 0 10.9431-3.5338 13.2483-8.6265 2.3051 5.0862 7.3637 8.6265 13.2483 8.6265 8.0489 0 14.5737-6.6193 14.5737-14.7846 0-8.1654-6.5248-14.7847-14.5737-14.7847z" fill="#fff"/><path d="m56.5747 40.5739c-6.0255 0-11.2185 3.5532-13.5749 8.659-2.3564-5.1058-7.5494-8.659-13.5748-8.659-8.2474 0-14.9324 6.6453-14.9324 14.8366 0 8.1978 6.685 14.8366 14.9324 14.8366 6.0254 0 11.212-3.5533 13.5748-8.659 2.3564 5.1057 7.5494 8.659 13.5749 8.659 8.2474 0 14.9323-6.6453 14.9323-14.8366s-6.6849-14.8366-14.9323-14.8366zm-.8196 28.7768c-5.6605 0-10.5333-3.3324-12.7489-8.1329-2.2155 4.8005-7.0884 8.1329-12.7552 8.1329-7.7479 0-14.0295-6.2426-14.0295-13.9402 0-7.6977 6.2816-13.9402 14.0295-13.9402 5.6604 0 10.5333 3.3324 12.7552 8.1328 2.2156-4.8004 7.0884-8.1328 12.7489-8.1328 7.7479 0 14.0295 6.2425 14.0295 13.9402-.0064 7.6976-6.288 13.9402-14.0295 13.9402z" fill="#f76c9e"/><g fill="#000"><path d="m25.5259 37.1703h-4.2646c-9.528 0-17.25672 7.834-17.25672 17.5064 0 9.6659 7.72232 17.5065 17.25672 17.5065h4.2646c9.528 0 17.2567-7.8341 17.2567-17.5065s-7.7223-17.5064-17.2567-17.5064zm-.3394 31.8169h-3.5858c-8.0041 0-14.49055-6.4959-14.49055-14.5054 0-8.0094 6.48645-14.5053 14.49055-14.5053h3.5858c8.004 0 14.4905 6.4959 14.4905 14.5053 0 8.0095-6.4865 14.5054-14.4905 14.5054z"/><path d="m63.9138 37.1703h-4.2646c-9.528 0-17.2567 7.834-17.2567 17.5064 0 9.6659 7.7223 17.5065 17.2567 17.5065h4.2646c9.528 0 17.2567-7.8341 17.2567-17.5065s-7.7287-17.5064-17.2567-17.5064zm-.3394 31.8169h-3.5858c-8.004 0-14.4905-6.4959-14.4905-14.5054 0-8.0094 6.4865-14.5053 14.4905-14.5053h3.5858c8.0041 0 14.4906 6.4959 14.4906 14.5053 0 8.0095-6.4865 14.5054-14.4906 14.5054z"/><path d="m80.7798 36.9752c0 .8119-.6467 1.468-1.4471 1.468h-73.49c-.8004 0-1.44713-.6561-1.44713-1.468 0-.812.64673-1.4681 1.44713-1.4681h73.49c.8004 0 1.4471.6561 1.4471 1.4681z"/></g><path d="m42.0603 68.9478c-.5187-.013-.9989-.3508-1.2486-.8835l-2.6894-7.4118c-.3074-.6496-.2305-1.4616.2049-2.0072.1857-.2339 1.8762-2.3061 4.2069-2.3061 1.0117 0 2.5101.4093 3.9188 2.3645.4098.5652.461 1.3772.1345 2.0073l-3.2465 7.4118c-.2689.5132-.7363.825-1.2486.825-.0128 0-.0256 0-.032 0z" fill="#c2000b"/><path d="m42.0725 66.8303c-.4995-.013-.9541-.2858-1.1974-.7275l-2.5805-6.1256c-.2946-.5392-.2177-1.2083.1921-1.663.1792-.1949 1.7993-1.9098 4.034-1.9098.9733 0 2.4076.3378 3.7587 1.9553.3906.4677.4418 1.1368.1281 1.6629l-3.112 6.1257c-.2561.4222-.7108.682-1.1974.682-.0128 0-.0192 0-.0256 0z" fill="#f71951"/><path d="m43.0073 66.4858c-.3009.2598-.5891.3053-.7428.3248-.16.0065-.2113.0065-.1664-.0065.0448-.013.1793-.0195.3842-.0909.1985-.0715.4674-.2209.6723-.5132l3.0479-6.288.0064-.0065v-.0065c.2241-.3833.2113-.8965-.0384-1.2602-.2881-.3768-.6915-.7665-1.0885-1.0589-.8196-.6171-1.8121-.9354-2.7598-.8769-.8773.0455-1.7161.3638-2.4333.812-.3585.2273-.6915.4807-.9925.76-.1536.1429-.2881.2728-.3713.4157-.0897.1494-.1473.3118-.1601.4807-.0192.1689 0 .3378.0512.5002.032.091.0512.1234.1089.2599l.1088.2728.4162 1.0458.7364 1.8838 1.0501 2.7478c.2305.6626.698.7925.6852.812.3457.1559.5442.1299.5635.1494.0256 0-.1153.0325-.3906-.0325-.2626-.0714-.698-.2598-.9413-.7795l-.7748-1.7084-.9669-2.1632-.5379-1.2082-.2753-.6301c-.0448-.0974-.0961-.2273-.1409-.3053-.064-.1234-.1088-.2468-.1408-.3833-.1345-.5391.0384-1.1497.429-1.546.3457-.3702.7299-.6885 1.1461-.9679.8261-.5586 1.8058-.9484 2.8047-.9938 1.2294-.0715 2.4012.4157 3.2528 1.1302.2177.1754.4162.3703.6019.5652.1793.2014.365.3832.5123.6626.2817.5326.2305 1.1822-.0641 1.6499l.0064-.013c-1.0181 1.9098-1.8889 3.5013-2.51 4.6251l-.73 1.3122c-.1793.3118-.3586.4157-.3586.4287z" fill="#740007"/><g fill="#26120b"><path d="m30.5072 57.0213c-.3074 0-.602-.1948-.7044-.5066-1.6456-4.755-3.0159-5.1253-3.4001-5.1253-1.4536 0-3.1056 3.3649-3.6755 4.9953-.1088.3118-.397.5067-.7043.5067-.0833 0-.1665-.013-.2498-.0455l-.4994-.1818c-.1857-.065-.3394-.2079-.429-.3898-.0833-.1819-.0961-.3897-.032-.5781.2305-.6496 2.3179-6.366 5.59-6.366 2.0618 0 3.8035 2.1307 5.3147 6.5024.064.1884.0512.3962-.0321.5781-.0832.1819-.2433.3248-.429.3898l-.4994.1754c-.0833.0259-.1665.0454-.2497.0454z"/><path d="m61.5629 57.0213c-.3074 0-.6019-.1948-.7044-.5066-1.6456-4.755-3.0159-5.1253-3.4001-5.1253-1.4535 0-3.1056 3.3649-3.6755 4.9953-.1088.3118-.397.5067-.7043.5067-.0833 0-.1665-.013-.2497-.0455l-.4995-.1818c-.1857-.065-.3394-.2079-.429-.3898-.0832-.1819-.0961-.3897-.032-.5781.2305-.6496 2.318-6.366 5.59-6.366 2.0618 0 3.8035 2.1307 5.3147 6.5024.064.1884.0576.3962-.032.5781-.0833.1819-.2433.3248-.429.3898l-.4995.1754c-.0896.0259-.1729.0454-.2497.0454z"/></g></svg>