<svg fill="none" height="146" viewBox="0 0 126 146" width="126" xmlns="http://www.w3.org/2000/svg"><path d="m51.8672 52.7597s-1.4204-13.7731 24.7253-26.2818c26.1455-12.5087 26.1455-26.119502 26.1455-26.119502s16.17 32.100402-50.8708 52.401302z" fill="#f85978"/><path d="m80.3981 29.3413c-17.1363 8.2024-22.431 16.943-24.0446 21.9926 40.4665-13.3118 47.8375-31.0409 48.0975-41.70402-2.773 5.12652-9.1774 12.59412-24.0529 19.71142z" fill="#f71951"/><path d="m57.5733 50.9321c-3.0255 1.0082-4.782 1.5294-5.4291 1.7174-.6472.188-.1849.0342 1.1934-.4101 2.7314-.9057 9.169-2.9221 17.1699-6.4936 3.992-1.7943 8.3538-3.9901 12.682-6.7157 4.3198-2.7256 8.5975-6.0066 12.1694-9.9027 3.5718-3.879 6.3791-8.416 7.7151-13.2264 1.353-4.7932 1.286-9.8172-.252-14.26871-.143-.39303-.294-.794604-.471-1.153458l.807-.136707c-.176 2.426545-1.101 4.622395-2.219 6.707165-1.1427 2.07623-2.5798 3.99011-4.1682 5.74171-3.1852 3.5202-6.9672 6.4166-10.8163 8.8517-1.9246 1.2218-3.8744 2.324-5.8158 3.3408-1.9329 1.0253-3.8995 1.8968-5.7148 2.8196-3.6475 1.8455-6.8663 3.8021-9.5893 5.7844-5.488 3.9559-8.8581 8.0571-10.5726 11.1245-1.7312 3.0759-2.0338 5.0154-2.0758 5.0923-.4118 1.837-.3194 2.7854-.3278 2.9221.0084.1367-.1092-.5212.0589-1.8456.1764-1.3158.6555-3.298 1.8573-5.6391 1.185-2.3411 3.0928-5.0325 5.8157-7.7068 2.7146-2.6829 6.2192-5.3401 10.3205-7.7923 4.0676-2.5205 8.9589-4.4686 13.4048-7.1857 4.4878-2.6743 8.7992-5.8356 12.2954-9.578 1.7397-1.8711 3.2776-3.87901 4.471-6.0065 1.168-2.11041 2.084-4.40025 2.244-6.621731v-.025632c.017-.187972.21-.33322274.437-.32467858.168.00854417.303.09398578.361.21360358.202.418664.353.811698.496 1.221818 1.58 4.59676 1.555 9.35582.471 13.73042-1.093 4.3832-3.295 8.3648-6.0092 11.7824-2.7145 3.4263-5.9166 6.3056-9.1606 8.7493-3.2525 2.4351-6.5469 4.4515-9.6649 6.1347-6.2444 3.3749-11.7239 5.5195-15.5395 6.9549-3.8239 1.4184-6.0426 2.1019-6.1435 2.1446z" fill="#740007"/><path d="m61.0684 55.6651s1.1766-13.7903-25.1876-25.9828c-26.36412-12.1925-26.60784-25.80339-26.60784-25.80339s-15.5899 32.29689 51.79544 51.78619z" fill="#4fa0ca"/><path d="m61.0684 55.6651s1.1766-13.7903-25.1876-25.9828c-26.36412-12.1925-26.60784-25.80339-26.60784-25.80339s-15.5899 32.29689 51.79544 51.78619z" fill="#f85978"/><path d="m7.85156 14.7217c1.11777 10.6716 9.78254 27.1106 47.85384 39.3117-1.8826-5.0924-7.5134-13.4742-24.2547-21.2152-13.7493-6.3654-20.3887-13.0982-23.59914-18.0965z" fill="#f71951"/><path d="m55.3371 53.914c3.0423.9741 4.8072 1.4867 5.446 1.6832.6387.1965.1596.0684-1.2355-.3246-2.7818-.8203-9.2951-2.6744-17.4304-6.0835-4.0593-1.7088-8.5135-3.8278-12.9425-6.4936-4.4207-2.6572-8.8413-5.8869-12.5644-9.7745-3.7231-3.8705-6.6982-8.4416-8.16894-13.3289-1.48756-4.8701-1.52958-9.99664-.02522-14.61049.14288-.41012.28575-.81169.47905-1.23036.08404-.17942.31936-.26487.53787-.19651.15968.05126.25213.16234.26893.29904v.02564c.1933 2.20439 1.12621 4.40024 2.25231 6.39958 1.143 2.0079 2.5717 3.8705 4.1517 5.5879 3.1768 3.4262 6.9335 6.2628 10.7575 8.6638 1.9162 1.1961 3.8575 2.2898 5.7905 3.2809 1.9246 1.0082 3.8828 1.8712 5.7233 2.8025 3.6811 1.8541 6.9251 3.8107 9.6733 5.81 5.53 3.9816 8.9169 8.1255 10.623 11.21 1.7229 3.093 2.0002 5.0325 2.0506 5.1094.4454 1.8284.353 2.7768.3446 2.9135-.0252.1367.0504-.5212-.1849-1.8284-.2353-1.3073-.79-3.2553-2.0674-5.5452-1.2607-2.2898-3.2441-4.9129-6.0259-7.5017-2.7734-2.5975-6.3284-5.1607-10.4717-7.5104-4.0929-2.4094-9.0262-4.2635-13.6149-6.9293-4.5971-2.6145-9.043-5.7417-12.682-9.4925-1.8153-1.8712-3.4289-3.9047-4.698-6.0664-1.2438-2.17022-2.23552-4.44297-2.45403-6.87805l.80681.11962c-.16808.3674-.31936.76897-.44542 1.15346-1.45394 4.47714-1.3699 9.14227-.25213 13.40577 1.12617 4.2806 3.31967 8.1768 6.01747 11.5261 2.7061 3.3578 5.883 6.1945 9.1102 8.604 3.2356 2.4094 6.5133 4.4002 9.6145 6.0834 6.2191 3.3579 11.6819 5.511 15.489 6.955 3.8071 1.4183 6.0258 2.1275 6.1267 2.1616z" fill="#740007"/><path d="m43.9301 137.449s-15.052 3.819-1.9666 4.033c0 0-1.4876 7.1 2.5885.624 0 0 9.3371 10.407 1.0001-4.272z" fill="#f71951"/><path d="m45.1741 137.749c-1.9162-.461-1.5044-.418.437-.008.4202.692.8488 1.409 1.3867 2.349.5211.914 1.0926 1.965 1.6388 3.136.2606.598.5463 1.188.6556 1.957.0336.205-.0168.615-.2774.743-.2353.162-.6387.017-.7732-.051-.353-.171-.6387-.376-.916-.598-.5631-.436-1.0758-.915-1.58-1.41l-.7396-.744-.3614-.375c-.0672-.069-.0252-.026-.042-.043.1092-.163-.2858.453-.5295.794-.2773.385-.5631.761-.8992 1.111-.1429.145-.3026.299-.5127.427-.1513.129-.6555.291-.9413.017-.3025-.299-.3025-.546-.353-.76-.0336-.222-.0336-.427-.0336-.624.0084-.401.0505-.777.1009-1.153l.084-.556c.0252-.119.0168-.111.0252-.119l.0084-.017-.0252-.009h-.0084-.0756l-.1681-.008-.6807-.035c-.4539-.025-.8909-.059-1.3279-.102-.8657-.111-1.6893-.171-2.4961-.581-.1933-.086-.4958-.427-.3782-.735.1177-.333.2942-.427.4539-.564.3277-.23.6555-.384.9749-.53.6387-.281 1.2354-.487 1.7901-.657 2.2019-.684 3.555-.94 3.597-.966 1.58-.401.4622-.094-2.0002.735-.6135.214-1.3111.461-2.0507.769-.3698.154-.7564.325-1.1429.513-.3698.187-.79.418-1.0422.692-.1176.136-.084.153-.0168.222.1261.094.3446.171.5631.222.4454.111.9245.171 1.4203.214.4959.042.9917.068 1.5044.085l1.9582.034-.1093.547-.0672.419-.0757.546c-.042.368-.0756.727-.0756 1.077 0 .171.0084.35.0336.496.0168.076.0336.145.0504.188.0253.051.0169.025.0169.034-.1009.06.2689-.12.4706-.368.3025-.316.5799-.683.8488-1.051l.3866-.564.6219-.965.7564.837.4454.479c.2942.316.5967.615.8909.914.5967.572 1.1934 1.145 1.7985 1.521.0756.043.1513.085.2101.102.0252.009.042.017.0672.017.0505-.025.0589-.025.0589-.153-.0252-.316-.1345-.675-.2353-1-.227-.658-.4875-1.282-.748-1.846-1.0337-2.281-1.891-3.879-2.2187-4.528z" fill="#740007"/><path d="m80.0345 133.649s15.1949-3.213 3.4962 2.768c0 0 4.3786 5.733-2.0591 1.7 0 0-3.9584 13.5-2.7229-3.4z" fill="#f71951"/><path d="m79.0443 134.478c1.5632-1.291 1.1682-.898-.1849.299-.0336 1.324-.1765 3.631-.0757 6.143.0421.615.0757 1.307.269 1.854.0504.111.042.085.084.111.042-.026.0168.009.1345-.128.1765-.231.3277-.53.4706-.837.2858-.607.5211-1.265.748-1.923l.3278-.991.437-1.444c.9665.598 1.1514.701 1.5884.94.395.213.79.419 1.1766.555.1681.06.3277.103.4706.12.1681.008.1009 0 .1177 0 0 .043 0-.128-.0504-.274-.0421-.153-.1093-.307-.1849-.47-.1513-.316-.3362-.623-.5211-.922l-.2942-.445-.2353-.35-.3193-.419 1.58-.811c.395-.205.7732-.419 1.1429-.624.7144-.427 1.4624-.863 1.891-1.384.1681-.222.0756-.274-.2942-.385-.3277-.077-.6723-.094-1.0085-.102-.6723-.009-1.2942.034-1.8657.077-2.2776.205-3.639.436-3.6811.436-1.5968.333-.4874-.018 2.0675-.513.6387-.12 1.3699-.239 2.1851-.342.4034-.043.832-.085 1.2774-.102.4539 0 .9077-.035 1.4372.145.1176.043.3277.154.4202.333.1008.171.0756.41-.0084.581-.1429.291-.3362.47-.5295.649-.3866.351-.8068.641-1.2354.915-.4286.282-.8741.546-1.3279.803l-.6807.376-.3026.162-.0168.017.0168.017.0084.009.0756.102.3278.479c.2101.324.4118.658.5883 1.017.0841.179.1681.367.2269.581.0336.111.0589.222.0673.358.0084.129-.0169.351-.1177.496-.0924.154-.2605.256-.437.299-.1765.034-.2942.026-.4118.017-.2269-.026-.4202-.094-.6051-.154-.4791-.171-.8993-.393-1.3111-.623l-.6051-.351-.1513-.094c-.0588-.034-.0168-.008-.0336-.017l-.0084-.008-.0084.008c-.0084.017.0084-.025-.0084.034l-.0504.163-.2101.632c-.1429.419-.2942.829-.4539 1.23-.3193.803-.6303 1.572-1.1177 2.273-.0673.086-.1345.171-.227.265-.1176.111-.2689.214-.4202.231-.3277.068-.5883-.299-.6555-.53-.1345-.419-.1681-.786-.1933-1.154-.0504-.726-.0336-1.409-.0168-2.042.1093-2.537.3362-4.314.4202-5.066z" fill="#740007"/><path d="m53.4779 139.937c.9413 0 1.9078-.026 2.8743-.069 17.3463-.803 30.3645-7.561 38.6763-20.07 20.2875-30.5198 3.4878-84.9034 3.3029-85.4503-.7396-2.136-2.4624-3.7594-4.6139-4.3404-.5631-.1538-1.1346-.2221-1.7061-.2221-1.622 0-3.1936.598-4.4122 1.6832-.2522.2306-.4875.4784-.6808.7604l-6.9083 7.066c-5.2442-1.9395-14.1527-4.4686-24.885-4.4686-8.421 0-16.4975 1.5721-24.053 4.6651l-7.7067-6.9207c-1.227-1.1022-2.7986-1.7089-4.4374-1.7089-.6723 0-1.3447.1026-1.9918.3076-2.2187.7006-3.95 2.5633-4.5131 4.8531-.395 1.6063-3.88276 16.1997-4.7484 34.0143-1.17659 24.1116 2.8911 42.4043 12.0937 54.3833 7.9 10.296 19.2458 15.508 33.7095 15.517z" fill="#c2000b"/><path d="m53.5539 136.083c-13.3207 0-23.742-4.768-30.9697-14.184-8.5975-11.192-12.3879-28.4688-11.2701-51.3415.832-17.0883 4.1769-31.0922 4.5551-32.6387.353-1.4354 1.4371-2.606 2.8239-3.0417.4034-.1282.8236-.188 1.2522-.188 1.0253 0 2.0086.376 2.7818 1.068l7.4966 6.7328c.4286.3845.9833.5896 1.538.5896.2941 0 .5883-.0598.8656-.1709 7.068-2.8965 14.6486-4.3746 22.5318-4.3746 9.9506 0 18.2288 2.2898 23.4227 4.2037.2605.094.5294.1453.79.1453.6051 0 1.2018-.2393 1.6472-.6921l6.7234-6.8781c.084-.0854.1597-.1794.2353-.2819.0925-.1282.1933-.2478.311-.3503.7648-.6836 1.7481-1.0595 2.765-1.0595.3614 0 .7228.0513 1.0757.1452 1.3447.3589 2.4289 1.3757 2.8911 2.7171.1597.487 16.1445 52.3073-2.9499 81.0326-7.6563 11.526-19.708 17.746-35.8105 18.49-.9245.051-1.8322.077-2.7062.077z" fill="#f71951"/><path d="m40.9791 138.442c5.8661 1.444 9.6397 1.41 11.3541 1.495 1.7313.026 1.4624.043-.4874.026-1.9414-.06-5.6057-.154-10.5053-1.324-4.8493-1.162-11.0348-3.598-16.6741-8.664-2.807-2.512-5.4459-5.639-7.7067-9.296-2.2607-3.649-4.1349-7.818-5.5888-12.312-2.90789-9.0145-4.1265-19.3103-4.16852-29.999-.04203-10.7058 1.01691-21.856 2.96672-32.989.4958-2.7854 1.0337-5.5708 1.6724-8.3391.1681-.6835.2942-1.4013.5883-2.1019.2858-.6835.664-1.3329 1.1514-1.8968.9497-1.1364 2.2608-1.9651 3.6895-2.3154 1.4287-.3589 2.9667-.2393 4.3198.3246.6807.282 1.3194.675 1.8741 1.1535l1.58 1.4098 6.0931 5.4682.7144-.2819.9244-.3503c.6135-.2307 1.2354-.4529 1.8574-.6665 1.2438-.4186 2.5044-.8031 3.7651-1.1449 2.5297-.6835 5.0845-1.1962 7.6394-1.555 5.1182-.7177 10.2448-.7946 15.2201-.3503 3.2693.2819 6.4881.7946 9.6481 1.5037 1.58.3503 3.1348.7605 4.6728 1.2133.7732.2222 1.538.4614 2.2944.7177l1.1345.376.9077.3246 5.4039-5.528 1.3447-1.3756c.4202-.581.9665-1.0339 1.538-1.4098 1.1514-.7519 2.5129-1.1535 3.8659-1.1364 2.723 0 5.3199 1.7345 6.3789 4.2294.2773.6237.4286 1.2559.6135 1.8711l.5126 1.8456c.3278 1.2303.6385 2.4607.9325 3.6825 2.354 9.8087 3.841 19.4209 4.48 28.6059.639 9.1849.395 17.9512-.908 25.9998-1.286 8.0312-3.689 15.3282-7.1014 21.3002-3.3953 5.981-7.7319 10.578-12.0853 13.765-4.3618 3.204-8.6732 5.092-12.2618 6.289-3.6054 1.196-6.5301 1.743-8.5303 2.067-2.0086.316-3.1264.419-3.2273.427-4.3702.47-6.715.402-7.2528.411-.5463-.017.7059.017 3.4625-.146 2.7482-.188 7.0428-.538 12.3795-1.965 5.2947-1.435 11.7323-4.075 17.6321-9.185 2.9415-2.537 5.6981-5.673 8.0597-9.339 2.37-3.656 4.3198-7.843 5.7901-12.372 2.967-9.0734 4.051-19.4204 3.808-30.1091-.244-10.7059-1.757-21.8047-4.245-32.8182-.6215-2.7512-1.3107-5.5024-2.0923-8.228-.2017-.6835-.3697-1.367-.6639-1.9651-.2857-.6067-.6723-1.1706-1.1262-1.6576-.9244-.974-2.143-1.649-3.4625-1.8883-1.3111-.2392-2.6894-.0512-3.8912.5383-.5967.2991-1.1598.6921-1.622 1.1535-.1177.1196-.2185.2392-.3194.3674l-.0756.094c-.0084.0085-.0336.0427-.0672.0854l-.0505.0598-.1849.188-.7395.7604-6.0847 6.2373-1.3615-.4871-1.143-.3845c-.7648-.2563-1.538-.4955-2.3111-.7177-1.5464-.4528-3.1012-.8544-4.6644-1.1961-3.1264-.6921-6.278-1.1877-9.4296-1.4611-5.2106-.4614-10.4128-.3332-15.4638.4016-2.5213.3674-5.0089.8886-7.4378 1.5465-1.2102.3332-2.412.7006-3.597 1.1022-.5883.205-1.1766.4101-1.7649.6322l-.874.3333-1.0674.4272-5.6812-5.118-1.3615-1.2303c-.4623-.4016-.8993-.8374-1.3531-1.1706-.9329-.675-2.0423-1.0851-3.1768-1.1705-2.2776-.2136-4.5635.9654-5.7906 2.8708-.3109.4699-.5546.9826-.7395 1.5209-.1681.5211-.2942 1.1192-.4287 1.6917-.2689 1.1449-.5126 2.2984-.7479 3.4433-1.86578 9.1593-3.03397 18.0624-3.60546 26.5382-.56308 8.4758-.51266 16.5329.25213 23.9749.76479 7.4334 2.26073 14.2603 4.47943 20.1553 2.202 5.904 5.1434 10.843 8.3623 14.619 3.202 3.794 6.6309 6.417 9.6144 8.194 2.992 1.777 5.5468 2.751 7.3033 3.35 1.7397.589 2.7398.828 2.8407.854z" fill="#740007"/><path d="m18.6425 47.4631c-.4118.0427-.832-.0769-1.1766-.3418-.5127-.393-.748-1.0595-.6219-1.7003l1.3531-6.5533c.126-.6067.5631-1.0937 1.143-1.2731.1092-.0342.2185-.0598.3361-.0684.4791-.0427.9665.1196 1.3195.47l3.9164 3.8363c.3866.3845.5715.9313.4958 1.4781-.0756.5469-.4118 1.0168-.8992 1.2646l-5.2695 2.7255c-.1933.0769-.395.1368-.5967.1624z" fill="#fa94a9"/><path d="m92.2294 47.4631c.4118.0427.832-.0769 1.1765-.3418.5127-.393.748-1.0595.622-1.7003l-1.3531-6.5533c-.1261-.6067-.5631-1.0937-1.143-1.2731-.1093-.0342-.2185-.0598-.3362-.0684-.479-.0427-.9665.1196-1.3194.47l-3.9164 3.8363c-.3866.3845-.5715.9313-.4959 1.4781.0757.5469.4118 1.0168.8993 1.2646l5.2694 2.7255c.1849.0769.3866.1368.5968.1624z" fill="#fa94a9"/><path d="m54.7147 95.4647c-15.5226.9313-27.3642 14.4823-26.4481 30.2633.042.769.1344 1.529.2353 2.273 3.5214 2.854 7.547 4.947 12.0601 6.288 3.5298.94 7.3033 1.53 11.3037 1.752.5547.017 1.1178.034 1.6893.034.874 0 1.7817-.017 2.6893-.068 11.5223-.539 20.9602-3.888 28.2047-9.963.084-1.213.1009-2.452.0252-3.699-.916-15.773-14.2368-27.8117-29.7595-26.8803z" fill="#ff0"/><g fill="#ff8200"><path d="m35.6621 110.451s5.6141 4.802 10.6314-.64c-.0084 0-4.9501 10.287-10.6314.64z"/><path d="m50.4355 111.272s5.6057 4.801 10.623-.641c.0084.008-4.9333 10.287-10.623.641z"/><path d="m65.5996 111.365s5.6141 4.802 10.623-.64c.0084 0-4.9333 10.278-10.623.64z"/><path d="m59.8496 119.841s5.6141 4.802 10.6314-.641c-.0084 0-4.9501 10.287-10.6314.641z"/><path d="m40.416 119.936s5.6141 4.802 10.6314-.641c-.0084 0-4.9417 10.287-10.6314.641z"/><path d="m43.6211 101.344s5.614 4.802 10.6314-.641c-.0084 0-4.9501 10.287-10.6314.641z"/><path d="m71.2715 124.428s5.6056 4.802 10.623-.641c0 .009-4.9417 10.287-10.623.641z"/><path d="m49.9746 127.488s5.6056 4.802 10.623-.64c.0084.008-4.9333 10.287-10.623.64z"/><path d="m31.1992 126.693s5.6141 4.801 10.6314-.641c0 0-4.9417 10.287-10.6314.641z"/><path d="m58.7559 101.078s5.6056 4.802 10.6229-.64c.0084 0-4.9333 10.278-10.6229.64z"/></g><path d="m114.202 131.88c-.815.188-1.672-.077-2.244-.709l-4.622-5.101-3.278 5.682c-.328.572-.874.974-1.496 1.119-.134.034-.269.051-.412.06-.79.034-1.546-.334-2.008-.983-.6474-.914-15.649-22.599-2.7821-44.609.3362-.5725.8825-.9655 1.4876-1.1022.311-.0684.6303-.0769.9581-.0171.9414.1794 23.0194 4.8189 26.0194 37.8423.084.914-.361 1.794-1.134 2.264-.211.128-.437.222-.673.273-.622.146-1.286.026-1.832-.35l-4.673-3.204-1.563 7.049c-.193.863-.84 1.546-1.681 1.777-.008-.008-.033 0-.067.009z" fill="#f7386c"/><path d="m116.453 127.873c-.253 1.068-.387 1.965-.631 2.64-.294.658-.764.991-1.075 1.145-.32.154-.513.179-.547.188-.033 0 .084-.017.328-.12.235-.102.614-.307.933-.735.16-.213.302-.478.395-.803l.235-1.093 1.337-6.297 4.916 3.315c.798.529 2 .427 2.698-.342.353-.376.563-.88.588-1.41-.008-.521-.101-1.145-.16-1.717-.546-4.708-1.605-9.894-3.63-14.961-2.009-5.058-5.068-9.9711-9.144-13.816-2.034-1.9224-4.295-3.5714-6.698-4.8701-1.202-.6494-2.438-1.2133-3.69-1.6747-.63-.2307-1.26-.4357-1.891-.5981-.6552-.188-1.1931-.2819-1.731-.0598-.3193.1196-.6135.3332-.832.6066-.2017.2478-.4034.6579-.6051.9997-.395.7092-.7648 1.4269-1.1178 2.1531-.6975 1.4525-1.2942 2.9392-1.7901 4.4345-.9917 2.999-1.5632 6.0488-1.7649 9.0398-.4118 5.989.6304 11.646 2.244 16.516.8068 2.443 1.7649 4.708 2.7902 6.775.5126 1.034 1.0505 2.017 1.5968 2.948.2773.461.5547.914.8409 1.35.277.453.571.803 1 1.025.832.453 1.874.257 2.504-.35.319-.291.504-.709.748-1.094l.664-1.119 2.362-4.007 4.378 4.938c.454.581.984.889 1.412.991.429.112.74.069.916.052.345-.077.185.034-.454.051-.311-.009-.764-.085-1.218-.384-.462-.308-.841-.838-1.362-1.359l-3.639-3.939-2.597 4.588c-.26.436-.445.863-.798 1.316-.345.427-.849.743-1.404.863-.554.128-1.159.051-1.68-.222-.538-.248-.9333-.778-1.2275-1.239-2.4876-3.794-4.6643-8.399-6.1267-13.534-1.4623-5.126-2.1179-10.834-1.4035-16.499.3446-2.8278 1.0253-5.6217 2.0086-8.2875.4875-1.3329 1.059-2.6316 1.6893-3.8876.3193-.6323.6471-1.2474.9917-1.8541l.2689-.4614c.1093-.1709.2269-.3247.3698-.4699.2773-.282.6135-.5127.9833-.6494.4622-.1879.9833-.2136 1.4707-.1281.4454.094.8574.205 1.2774.3247.832.2477 1.647.5468 2.437.8715 1.58.6579 3.085 1.461 4.497 2.3496 2.832 1.7943 5.294 3.9901 7.362 6.391 4.151 4.8192 6.664 10.3472 8.194 15.4652.765 2.572 1.294 5.058 1.672 7.408.194 1.17.336 2.315.463 3.409l.159 1.615c.067.512.051 1.119-.176 1.597-.429 1-1.479 1.572-2.437 1.478-.48-.034-.933-.213-1.286-.487l-1.034-.726-3.463-2.426z" fill="#f8013a"/><path d="m100.627 87.5605c-.303-.0598-.605-.0513-.891.0171-.3194.0769-.622.2307-.8825.4443 12.7155 5.2119 19.3295 18.2501 20.1705 31.7501.075 1.162.092 2.324.092 3.495l2.379 1.631c.504.351 1.126.462 1.706.325.218-.051.428-.137.63-.256.723-.436 1.143-1.265 1.059-2.111-2.807-30.8013-23.389-35.1246-24.263-35.2955z" fill="#fa94a9"/><path d="m21.8276 130.478c.7732-.325 1.3195-1.051 1.4203-1.897l.8489-6.878 5.9082 2.691c.5967.274 1.269.274 1.8573.026.1261-.051.2521-.12.3698-.197.6639-.435 1.0673-1.187 1.0757-1.99 0-1.128-.1512-27.6322-23.1957-37.9706-.59672-.2649-1.26066-.2649-1.84896-.0171-.29415.1196-.56308.3076-.79.5468-.66393.7006-16.0017 17.4989.41181 46.1729.45383.794 1.31947 1.247 2.21875 1.17.2437-.017.479-.077.6975-.171.5883-.247 1.059-.734 1.2943-1.358l1.975-5.357 5.2863 4.819c.6471.589 1.5632.769 2.3868.461.0252-.034.0588-.043.084-.051z" fill="#f7386c"/><path d="m17.7102 128.538c.8152.718 1.4372 1.367 2.0255 1.777.6219.368 1.185.359 1.5295.299.353-.059.5211-.153.5547-.17.0252-.018-.084.034-.3362.094-.2521.059-.6723.111-1.1766-.043-.2521-.077-.521-.214-.7816-.419l-.8152-.752-4.6895-4.34-2.1095 5.596c-.3446.906-1.3867 1.53-2.39522 1.308-.49585-.094-.95809-.385-1.27745-.804-.28574-.427-.57149-.991-.84883-1.495-2.25234-4.152-4.3534-8.997-5.59723-14.32-1.252236-5.306-1.571597-11.107-.42862-16.6439.56309-2.7597 1.46234-5.4426 2.67255-7.9204.60511-1.2389 1.29426-2.4265 2.05064-3.5373.37819-.5554.77319-1.0936 1.20181-1.6063.42862-.5383.81521-.9313 1.36989-1.068.33618-.094.68915-.094 1.01692 0 .30255.0854.70594.299 1.05894.4614.7312.3417 1.4371.7091 2.1431 1.1022 1.3951.7689 2.7314 1.6319 3.9836 2.5547 2.5213 1.8541 4.7232 4.0072 6.5973 6.3227 3.7567 4.6394 6.1351 9.8599 7.5975 14.7809.7396 2.47 1.2522 4.871 1.5884 7.16.1681 1.145.3025 2.265.3866 3.341.042.538.0756 1.077.0924 1.598.0336.53-.0084.991-.2353 1.427-.4202.854-1.3867 1.316-2.2355 1.187-.4286-.051-.8152-.273-1.227-.452l-1.1766-.522-4.2022-1.871-.7479 6.596c-.0421.744-.2942 1.308-.5883 1.641-.2858.342-.5631.495-.7144.581-.3194.137-.1345.137.395-.222.2521-.197.5715-.521.7732-1.034.2017-.521.2101-1.179.3278-1.914l.7143-5.357 4.7316 2.204c.4622.197.8572.444 1.4035.607.5295.145 1.1094.102 1.6389-.12.521-.222.9748-.641 1.2438-1.17.2941-.522.3109-1.188.2857-1.735-.1428-4.554-1.0001-9.595-2.7314-14.645-1.7396-5.032-4.4542-10.0731-8.2697-14.2683-1.891-2.1018-4.0425-3.973-6.3705-5.5622-1.1598-.7946-2.3616-1.5209-3.597-2.1702-.6135-.3247-1.2354-.6323-1.8657-.9228l-.4791-.2136c-.1849-.0769-.36976-.1367-.56306-.1709-.3866-.0683-.79-.0512-1.16819.0513-.48745.1196-.92447.4016-1.26905.7604-.31095.3332-.57989.675-.85723 1.0168-.53787.6921-1.02532 1.4098-1.48755 2.1446-.90766 1.4696-1.68085 3.0075-2.31958 4.5711-1.27744 3.1271-2.033827 6.3739-2.353188 9.5528-.63032 6.373.479042 12.363 2.159898 17.43.84042 2.546 1.83212 4.887 2.85744 7.014.51266 1.068 1.04213 2.085 1.5716 3.051l.80681 1.427c.23532.461.5967.939 1.05893 1.196.92447.564 2.10947.41 2.83227-.231.3698-.308.6303-.726.7732-1.153l.4286-1.205 1.4371-4.016z" fill="#f8013a"/><path d="m7.59249 86.3721c.21011-.2222.46223-.4016.73958-.5127.30255-.1281.63872-.1794.96649-.1538-7.37894 11.7482-5.3283 26.2734 1.68924 37.7654.6051.991 1.2522 1.948 1.9246 2.896l-1.0085 2.734c-.2185.581-.6556 1.034-1.2018 1.274-.2017.085-.4287.145-.6556.162-.84039.068-1.6472-.359-2.06741-1.094-15.30415-26.752-1.00011-42.4216-.3866-43.0709z" fill="#fa94a9"/><path d="m73.8268 53.4365c-7.7151 0-14.3629 4.648-17.3884 11.3467-3.0256-6.6901-9.6649-11.3467-17.3884-11.3467-10.5642 0-19.1281 8.7065-19.1281 19.4465 0 10.7401 8.5639 19.4466 19.1281 19.4466 7.7151 0 14.3628-4.6481 17.3884-11.3467 3.0255 6.6901 9.6649 11.3467 17.3884 11.3467 10.5641 0 19.1281-8.7065 19.1281-19.4466 0-10.74-8.564-19.4465-19.1281-19.4465z" fill="#fff"/><path d="m74.2542 53.3672c-7.9084 0-14.7242 4.6736-17.817 11.3894-3.0927-6.7158-9.9086-11.3894-17.817-11.3894-10.8247 0-19.5987 8.7407-19.5987 19.5149 0 10.7827 8.774 19.5148 19.5987 19.5148 7.9084 0 14.7159-4.6736 17.817-11.3894 3.0928 6.7158 9.9086 11.3894 17.817 11.3894 10.8247 0 19.5988-8.7407 19.5988-19.5148 0-10.7742-8.7741-19.5149-19.5988-19.5149zm-1.0757 37.8506c-7.4294 0-13.825-4.3831-16.7329-10.6973-2.9078 6.3142-9.3035 10.6973-16.7412 10.6973-10.1692 0-18.4138-8.2109-18.4138-18.3357 0-10.1249 8.2446-18.3358 18.4138-18.3358 7.4293 0 13.825 4.3831 16.7412 10.6973 2.9079-6.3142 9.3035-10.6973 16.7329-10.6973 10.1691 0 18.4137 8.2109 18.4137 18.3358-.0084 10.1248-8.253 18.3357-18.4137 18.3357z" fill="#f76c9e"/><g fill="#000"><path d="m33.5026 48.8906h-5.5973c-12.5055 0-22.64944 10.3043-22.64944 23.0265 0 12.7138 10.13554 23.0266 22.64944 23.0266h5.5973c12.5055 0 22.6494-10.3043 22.6494-23.0266 0-12.7222-10.1355-23.0265-22.6494-23.0265zm-.4455 41.8493h-4.7063c-10.5054 0-19.01888-8.5441-19.01888-19.0791 0-10.5349 8.51348-19.0791 19.01888-19.0791h4.7063c10.5054 0 19.0189 8.5442 19.0189 19.0791 0 10.535-8.5135 19.0791-19.0189 19.0791z"/><path d="m83.8873 48.8906h-5.5972c-12.5055 0-22.6495 10.3043-22.6495 23.0265 0 12.7138 10.1356 23.0266 22.6495 23.0266h5.5972c12.5056 0 22.6497-10.3043 22.6497-23.0266 0-12.7222-10.1441-23.0265-22.6497-23.0265zm-.4454 41.8493h-4.7064c-10.5053 0-19.0188-8.5441-19.0188-19.0791 0-10.5349 8.5135-19.0791 19.0188-19.0791h4.7064c10.5053 0 19.0191 8.5442 19.0191 19.0791 0 10.535-8.5138 19.0791-19.0191 19.0791z"/><path d="m106.024 48.6341c0 1.068-.849 1.931-1.899 1.931h-96.45611c-1.05053 0-1.89936-.863-1.89936-1.931s.84883-1.931 1.89936-1.931h96.45611c1.05 0 1.899.863 1.899 1.931z"/></g><path d="m55.2039 90.6877c-.6808-.0171-1.3111-.4614-1.6389-1.162l-3.5297-9.7489c-.4035-.8544-.3026-1.9224.2689-2.6401.2437-.3076 2.4624-3.0332 5.5216-3.0332 1.3279 0 3.2944.5383 5.1434 3.1101.5379.7433.6051 1.8113.1765 2.6401l-4.261 9.7489c-.353.675-.9665 1.0851-1.6388 1.0851-.0168 0-.0336 0-.042 0z" fill="#c2000b"/><path d="m55.2191 87.9019c-.6556-.0171-1.2523-.376-1.5716-.957l-3.387-8.0571c-.3865-.7092-.2857-1.5892.2522-2.1873.2353-.2564 2.3616-2.512 5.2947-2.512 1.2774 0 3.16.4443 4.9332 2.5718.5127.6152.5799 1.4952.1681 2.1873l-4.0844 8.0571c-.3362.5554-.9329.8972-1.5716.8972-.0168 0-.0252 0-.0336 0z" fill="#f71951"/><path d="m56.4476 87.4496c-.395.3417-.7732.4015-.9749.4272-.2101.0085-.2773.0085-.2185-.0086s.2353-.0256.5043-.1196c.2605-.094.6135-.2905.8824-.675l4.0004-8.2707.0084-.0086v-.0085c.2942-.5041.2774-1.1791-.0504-1.6576-.3782-.4955-.9077-1.0082-1.4287-1.3927-1.0758-.8117-2.3784-1.2303-3.6222-1.1534-1.1514.0598-2.2524.4784-3.1937 1.068-.4706.299-.9076.6322-1.3026.9996-.2017.188-.3782.3589-.4875.5469-.1176.1965-.1933.4101-.2101.6322-.0252.2222 0 .4443.0673.6579.042.1197.0672.1624.1428.3418l.1429.3589.5463 1.3756.9665 2.4778 1.3783 3.6142c.3025.8715.916 1.0424.8992 1.068.4539.205.7144.1709.7396.1965.0336 0-.1513.0427-.5127-.0427-.3445-.094-.916-.3418-1.2354-1.0253l-1.0169-2.2471-1.269-2.8452-.706-1.5893-.3614-.8287c-.0588-.1282-.126-.2991-.1849-.4016-.084-.1624-.1428-.3247-.1849-.5041-.1765-.7092.0505-1.5123.5631-2.0335.4538-.487.9581-.9057 1.5044-1.2731 1.0841-.7348 2.37-1.2475 3.681-1.3073 1.6137-.094 3.1516.5469 4.2694 1.4867.2857.2307.5463.487.79.7434.2353.2648.479.5041.6723.8715.3698.7006.3026 1.555-.084 2.1702l.0084-.0171c-1.3363 2.512-2.4793 4.6053-3.2945 6.0834l-.9581 1.726c-.2353.4101-.4706.5468-.4706.5639z" fill="#740007"/><g fill="#26120b"><path d="m40.0428 75.001c-.4034 0-.79-.2563-.9245-.6664-2.1598-6.2543-3.9584-6.7413-4.4626-6.7413-1.9078 0-4.0761 4.4258-4.8241 6.5704-.1428.4101-.521.6665-.9244.6665-.1093 0-.2185-.0171-.3278-.0598l-.6555-.2393c-.2437-.0854-.4454-.2734-.5631-.5126-.1093-.2393-.1261-.5127-.042-.7605.3025-.8544 3.0423-8.3732 7.3369-8.3732 2.7062 0 4.9921 2.8025 6.9755 8.5527.0841.2478.0673.5212-.042.7604s-.3194.4272-.5631.5127l-.6555.2306c-.1093.0342-.2185.0598-.3278.0598z"/><path d="m80.8026 75.001c-.4034 0-.79-.2563-.9245-.6664-2.1599-6.2543-3.9584-6.7413-4.4626-6.7413-1.9078 0-4.0761 4.4258-4.8241 6.5704-.1429.4101-.5211.6665-.9245.6665-.1092 0-.2185-.0171-.3277-.0598l-.6556-.2393c-.2437-.0854-.4454-.2734-.563-.5126-.1093-.2393-.1261-.5127-.0421-.7605.3026-.8544 3.0424-8.3732 7.337-8.3732 2.7061 0 4.9921 2.8025 6.9755 8.5527.084.2478.0756.5212-.042.7604-.1093.2392-.3194.4272-.5631.5127l-.6556.2306c-.1176.0342-.2269.0598-.3277.0598z"/></g></svg>