<svg fill="none" height="100" viewBox="0 0 100 100" width="100" xmlns="http://www.w3.org/2000/svg" xmlns:xlink="http://www.w3.org/1999/xlink"><linearGradient id="a"><stop offset="0" stop-color="#cf5c2b"/><stop offset="1" stop-color="#59173e"/></linearGradient><linearGradient id="b" gradientUnits="userSpaceOnUse" x1="96.3902" x2="69.7743" xlink:href="#a" y1="-48.9015" y2="12.5452"/><linearGradient id="c" gradientUnits="userSpaceOnUse" x1="84.4327" x2="-9.68295" xlink:href="#a" y1="-27.3114" y2="198.336"/><linearGradient id="d" gradientUnits="userSpaceOnUse" x1="73.4082" x2="-20.707" xlink:href="#a" y1=".243549" y2="225.89"/><linearGradient id="e" gradientUnits="userSpaceOnUse" x1="54.3477" x2="51.5161" xlink:href="#a" y1="139.637" y2="46.3754"/><path d="m98.974 14.3277c-.5711-7.47023-6.9248-13.31352-14.6826-13.611409-21.8454-.870764-43.5957-.870764-65.2746-.04583-1.5706.068745-3.1174.366639-4.5928.870769-.7377.25206-1.4516.57287-2.1179.91659-3.37913 1.78736-5.66362 4.88086-7.42459 8.06598-1.87994 3.3456-3.78369 7.0807-4.021655 10.9075-.190374 3.1164-.356952 6.2558-.475936 9.3722-.023797.3437-.023797.6645.023797.9853.023797.1833.047594.3667.023797.55-.071391 1.0082-.023797 1.9019.523529 2.7956.333158.527.761498.9853 1.308828 1.2832-.0476-.0229-.49974.3896-.57113.4354-.19037.1604-.35695.3437-.49973.527-.309358.3896-.571123.8021-.7377 1.2604-.190375.4583-.309359.9395-.333156 1.4207-.1665772 1.9477-.11898356 3.8955-.0951868 5.8433.0237968 1.6957-.1427812 3.483.1427808 5.1558.07139.4125 0 .8479.095187 1.2603.190375.9395.642514 1.8103 1.094655 2.6581-.7615.7792-1.094655 1.8562-1.142248 2.9331-.047594 1.2375.190374 2.4519.095187 3.6893-.2379682 3.3456-.023797 6.7828.190374 10.1055.023797.3895.095187.7791.166578 1.1457.214171.9395.237968 1.9249.785289 2.7498.23797.3667.54733.6875.92808.9395-.35695-.0458-.64251.3208-.80909.6187-1.070857 1.9707-1.070857 3.506-.642515 5.6142.428345 2.1998.309355 4.285 1.142245 6.439.69011 1.7874 1.73717 3.4373 3.04599 4.8351 2.71284 2.9102 6.56792 4.6975 10.61342 4.9267 23.0115 1.2828 45.1663 1.3978 66.2978.1374.0952 0 .1904-.0229.2856-.0229 2.57-.2062 5.0687-1.0082 7.2342-2.3602 2.1179-1.3061 3.8789-3.1164 5.1163-5.2246 1.4278-2.429 2.1179-5.2933 2.8318-7.9743.4522-1.6499 1.1423-3.7581.9519-5.5225-.119-1.0083.1904-1.9936.1428-3.0019-.0476-1.1457-.357-2.2685-.9043-3.2768-.0714-.1146-.1428-.2521-.1428-.3895-.0238-.3209.3332-.55.595-.7562.6187-.4583 1.0232-1.1687 1.166-1.902.0238-.1833.0476-.3666.0238-.5499-.0714-.3208-.0476-.5729-.0238-.9166.119-2.3144.238-4.6288.3094-6.9432.0951-2.5436.1903-5.0871.2379-7.6078.0714-2.4977.0952-5.0183.119-7.516.0238-2.4748.0238-4.9496 0-7.4015 0-1.2145-.0238-2.4519-.0476-3.6664 0-.6187-.0238-1.2145-.0476-1.8332-.0238-.5728-.119-1.2145-.0238-1.7873.0238-.2063.0952-.3667.0476-.5729-.0238-.2521-.0952-.4812-.1666-.7333-.1427-.4812-.3569-.9395-.6187-1.3749-.2617-.4354-.5711-.8249-.9519-1.1915-.0951-.0917-1.0946-.9854-1.1898-.8937.3094-.275.5711-.5729.8091-.8937.6187-.8479.9995-1.8332 1.2374-2.8414.119-.5042.1904-1.0312.2618-1.5583.0238-.0916.0714-.1833.0714-.2978.0714-.3667-.0238-.8021-.0476-1.1687-.0952-1.5124-.2142-3.0706-.3332-4.6059z" fill="url(#b)"/><path d="m99.9973 31.4908c-.0238 2.6123-.0476 5.2246-.0476 7.8369-.0238 1.2374-.0238 2.4977-.0238 3.7581 0 .6874-.0238 1.3519-.0238 2.0165-.0476 3.5518-.0952 7.1036-.1904 10.6554-.0476 1.7644-.0952 3.5289-.1666 5.2933-.0476 1.0541-.0238 2.0394-.3807 3.0248-.4046 1.0999-.3808 2.4518-.5235 3.6205-.0476.3666-.119.7562-.4046 1.0312-.2618.252-.6425.2979-1.0233.3208-.5949.0687-1.2136.1146-1.8085.1833-3.4981.3437-7.0201.6645-10.5182.7562-2.5939.0458-5.2115-.0229-7.8053-.2979 1.9751.275 3.9502.5729 5.9254.8479.5711.0916 1.1184.1604 1.6895.252 4.0217.5729 8.0433 1.1458 12.065 1.7186.357.0688.7615.1146 1.0233.3667.4045.3437.4283.9395.4045 1.4665-.0476.7791-.119 1.5582-.2618 2.3373-.2141 1.5353-.5235 3.0706-.5949 4.6288-.0238.3208.0476.6416-.0238.9624-.1665.9854-.9281 1.9249-1.4992 2.704-2.689 3.6206-6.9724 5.912-11.5652 6.187-20.8222 1.2603-42.6201 1.1457-65.2746-.1146-3.2602-.1833-6.4252-1.3978-8.9238-3.4372-1.49922-1.2145-2.87943-2.7727-3.73612-4.4913-.38075-.7791-.47593-1.6728-.85668-2.4748-.07139-.1604-.14278-.3208-.21417-.5041-.11899-.5271-.07139-1.0999.40454-1.4666.49974-.3895 1.21364-.4125 1.85615-.4354 7.21048-.2291 14.39708-.6645 21.60748-.8707h.2142c2.1893-.0688 4.4024-.0917 6.5917-.0917-.8091-.1146-1.6182-.2291-2.4273-.2979-3.7123-.4354-7.4722-.5729-11.2083-.7103-.0476 0-.0952-.023-.1189-.023h-.0476c-4.5214-.1604-9.019-.3437-13.46903-1.0311-.85668-.1375-1.73717-.2979-2.49866-.6646-.57113-.252-1.07086-.5957-1.42781-1.0999-.0238-.0458-.0476-.0916-.07139-.1145-.52353-.7791-.71391-1.9478-.54733-2.8186.21417-1.0082.07139-1.9936.0238-3.0706-.09519-1.8331-.21417-3.6892-.28556-5.5224-.07139-1.0083-.11899-2.0165-.16658-3.0248-.0238-.55-.04759-1.1686.30936-1.604.28556-.3438.78529-.4583 1.23743-.5729 1.40401-.3437 2.80802-.6875 4.25963-.8937.64254-.1146 1.28504-.1833 1.92754-.2291-1.68957-.2979-3.30776-.6646-4.97353-1.0312-.49974-.1146-.99947-.2291-1.45161-.4583-.09518-.0458-.21417-.1146-.30936-.1833-.80909-.5729-1.02326-1.352-1.14224-2.1769-.0476-.275-.07139-.5729-.11899-.8479-.11898-.6645-.21417-1.3061-.26176-1.9707-.11898-1.0082-.16658-2.0165-.21417-3.0247-.09519-2.1998-.21417-5.0413 1.23743-6.8974.52353-.6645 1.45161-.8249 2.30829-.9166 3.35535-.3895 6.71074-.7333 10.06604-1.0082.6901-.0688 1.404-.1146 2.0941-.1833 3.403-.2521 6.7821-.4583 10.2089-.6188-4.0931.1834-8.2099.1146-12.303-.1374-2.57-.1604-5.1401-.4125-7.71016-.7333-1.07085-.1375-2.1893-.2979-3.14117-.7791-.0238-.0229-.0476-.0229-.07139-.0458-.26177-.1146-.49974-.2521-.7377-.4354-.52353-.3896-.90428-.9166-1.11845-1.5124-.23797-.6187-.11899-1.1458-.0238-1.7645.0238-.2291 0-.4583 0-.6874-.04759-1.3978.07139-2.8185.09519-4.2163.02379-.7104.04759-1.4208.09518-2.154.09519-3.1164.26177-6.2329.45214-9.3493.47594-7.56189 6.85346-13.542661 14.70646-13.840554 21.6551-.84785 43.4053-.824935 65.2746.022915 7.02.274978 13.1358 5.316249 14.4446 11.961539.4046 2.0394.5474 4.2622.1428 6.3245-.0952.5271-.238 1.0312-.4283 1.5124-.119.275-.3094.8478-.5712 1.077-.0238.0229-.0475.0458-.0475.0458-.1904.1146-.4522.1375-.6426.1833-1.285.2979-2.57.55-3.855.7791-2.5701.4354-5.1639.7562-7.7578.9854-.0238 0-.0238 0-.0238 0-5.2353.4354-10.5182.527-15.7535.5958h-.1428c1.4279.0916 2.8795.1604 4.3073.252 3.9026.2063 7.8053.4354 11.708.6646 2.5938.1374 5.2115.2749 7.8053.4353 1.5706.0917 3.2126.2063 4.569.9854.0238 0 .0238.0229.0238.0229 1.761 1.0999 1.8799 3.1164 1.8562 5.0183z" fill="url(#c)"/><path d="m99.9973 31.4907c-.0238 2.6123-.0476 5.2246-.0476 7.8369-.0238 1.2374-.0238 2.4977-.0238 3.758 0 .6875-.0238 1.352-.0238 2.0165-10.0184.6187-20.0607 1.4666-30.1029 2.0624-11.708.6874-23.4161 1.4436-35.1003 2.1539-6.3061.3896-12.5647.8479-18.8471 1.5353-4.212.4583-8.20985 1.1229-12.3029.8937-.04759-.275-.07139-.5728-.11898-.8478-.11899-.6646-.21417-1.3062-.26177-1.9707 4.14064-.8479 8.30505-.7104 12.70745-.8479 5.9016-.1833 11.7081-.5728 17.5859-1.0999 11.708-1.054 23.416-2.154 35.124-3.4372 6.9725-.7791 13.945-1.4665 20.9412-2.1998-.238-.0229-.4521-.0229-.6901-.0458-11.4462-.5958-22.7021-2.6353-34.1008-3.6206-11.3035-.9853-22.6545-1.8332-34.0056-2.4748-4.5928-.275-9.8519-.2062-15.03959-.55-.02379-.0229-.04759-.0229-.07139-.0458-.26176-.1146-.49973-.252-.7377-.4354-.52353-.3895-.90428-.9166-1.11845-1.5123-.23797-.6187-.11898-1.1458-.0238-1.7645.0238-.2291 0-.4583 0-.6874-.04759-1.3978.0714-2.8186.09519-4.2164.0238-.7103.0476-1.4207.09519-2.154 5.75882-.2979 11.70805.0688 16.82435.1146 11.3511.0917 22.6783.6187 34.0056 1.2603 11.3749.6416 22.7259.3896 34.1008.8937 3.0698.1375 6.1634.2521 9.2332.3208 1.8323 1.1458 1.9274 3.1623 1.9037 5.0642zm-37.5989 25.5959c-19.3468.8937-39.7169.0687-58.56394 4.8579.09519 1.8332.19038 3.6893.28556 5.5225.0476 1.0541.19038 2.0394-.02379 3.0706-.16658.8708.04759 2.0394.54732 2.8185 5.71125 1.4437 11.54145 2.3373 17.46685 2.9102.0476 0 .0952.0229.1666.0229 3.7123.3667 7.4484.5729 11.2083.7104 9.6853.3437 19.442.1375 28.9131.2291 11.8508.1146 23.7016-.1145 35.5286-.527.119-.7791.2142-1.5353.2618-2.3373.0237-.5271 0-1.0999-.4046-1.4666-.2618-.2291-.6663-.2979-1.0233-.3666-4.5927-.6645-9.1617-1.3062-13.7545-1.9707-1.9751-.275-3.9503-.5729-5.9254-.8478 6.092.6645 12.2315.1604 18.3473-.4354.5949-.0688 1.2137-.1146 1.8086-.1833.3569-.023.7615-.0688 1.0232-.3208.2856-.2521.357-.6646.4046-1.0312.1428-1.1687.0952-2.4977.5235-3.6206.357-1.0082.357-1.9706.3808-3.0247.0714-1.7645.119-3.5289.1665-5.2934-12.4457.3667-24.9152.7333-37.3371 1.2833z" fill="url(#d)"/><g fill="#eb924d"><path d="m4.71496 73.4709c-.57112-.7791-.80909-2.0165-.61871-2.9331.21417-1.0083.07139-1.9936.02379-3.0706-.16657-2.8414-.30935-5.7058-.45214-8.5472-.02379-.55-.04759-1.1687.30936-1.6041.28556-.3437.7853-.4583 1.23744-.5729 1.40401-.3437 2.80802-.6874 4.25962-.8936-.80909.5958-1.59438 1.077-2.54625 1.5353-.33316.1604-.69011.3208-.92808.5957-.26176.275-.35695.6875-.45214 1.0541-.80909 3.5747-.38075 7.3099.07139 10.9533.19038 1.5124.38075 3.0477.52353 4.583-.57112-.2521-1.07085-.5958-1.42781-1.0999z"/><path d="m3.40607 50.8997c-.28556-1.6499-.40454-3.3456-.47593-4.9954-.09519-2.1999-.21417-5.0413 1.23743-6.8974.52353-.6645 1.45161-.825 2.30829-.9166 4.04544-.4583 8.09094-.8708 12.16014-1.1687-3.8551 1.2374-8.2575 1.2374-11.99356 2.7727-.69011.275-1.38022.6187-1.76096 1.2374-.26177.4125-.35696.8937-.42835 1.352-.23796 1.4666-.40454 2.8644-.30936 4.3538.0714.9395.14279 1.902.23797 2.8415.14278 1.5582.38075 3.0935.64252 4.6288-.09519-.0459-.21417-.1146-.30936-.1834-1.11845-.7332-1.09465-1.879-1.30883-3.0247z"/><path d="m82.3401 70.2628c.1666.0688.3331.1375.4997.2063-.1903-.023-.3569-.0917-.4997-.2063z"/><path d="m98.1887 74.3414c-.0951 2.3602-.7615 4.6288-.8566 6.9661-.0238.3208.0475.6416-.0238.9624-.1666.9854-.9281 1.9249-1.4992 2.704-2.6891 3.6205-6.9725 5.912-11.5653 6.187-20.8222 1.2603-42.62 1.1457-65.2746-.1146-3.2601-.1833-6.4251-1.3978-8.9238-3.4372-1.49918-1.2145-2.8794-2.7727-3.73608-4.4913-.38075-.7791-.47594-1.6728-.85669-2.4748-.07139-.1604-.14278-.3208-.19037-.5041-.11899-.5271-.07139-1.0999.40454-1.4666.49974-.3895 1.21364-.4125 1.85615-.4354 7.21045-.2291 14.39705-.6645 21.60745-.8707-6.3299.3437-12.6361 1.1915-18.8708 2.2685-.8567.1375-1.78477.2063-2.61766.4354-.16658.0459-.28556.0688-.40455.1833-.14278.1604-.11898.3667-.09519.5958.09519.7104.49974 1.3062.95188 1.879 1.4516 1.8332 2.97462 3.7581 5.11632 4.8351 5.1401 2.6123 10.3754 2.2227 16.2056 2.1081 1.1898-.0229 2.3559 0 3.5457-.2062.5949-.1146 1.3088 0 1.9038.0229 1.3564.0459 2.7128.0688 4.093.1146 2.7129.0687 5.4495.1375 8.1623.2291 5.0925.1375 10.185.275 15.2776.4125 4.8545.1375 9.7091.2521 14.5636-.1375 4.7832-.3666 9.5663-1.2374 13.9925-3.0935.357-.1604.7853-.275 1.0947-.527.2379-.1604.4283-.3667.6663-.5271.7377-.4583 1.4516-.9166 2.0941-1.4894.4283-.3896 1.0471-.8937 1.2612-1.4437.119-.2979.1904-.6416.3094-.9395.3093-.8478.4759-1.7415.5473-2.6352.0714-.9853.0238-1.9936-.0952-2.9789-.0476-.4354.0238-1.2603-.2617-1.627-.1428-.2062-.5236-.3895-.7615-.5041-.6188-.2979-1.3327-.4354-2.0228-.5499-3.6885-.6646-7.3056-1.7416-10.7561-3.2081 4.5928.6645 9.1617 1.329 13.7545 1.9707.357.0687.7615.1145 1.0233.3666.3807.2979.3807.8937.3807 1.4207z"/><path d="m3.81072 32.6596c-.19038-.7333-.16658-1.4895-.16658-2.2456.09519-3.6435.19037-7.3099.40455-10.9533.19037-3.3456.11898-6.8745 1.54679-9.99092 2.33208-5.0871 7.63872-8.570153 13.44522-8.776387 21.6551-.847849 43.4053-.824934 65.2746.022915 7.02.274978 13.1358 5.316242 14.4446 11.961592.4046 2.0394.5474 4.2621.1428 6.3245-.0952.527-.238 1.0311-.4283 1.5123-.119.275-.3094.8479-.5712 1.077-.4759-3.3684.3808-7.0577-.8804-10.1971-.7377-1.9019-1.8086-3.78092-3.4982-5.04124-5.5684-4.14759-13.7783-3.87261-20.489-3.98718-18.4663-.32081-36.8374-.89368-55.2562.71036-.8566.06874-1.6895-.22915-2.4986-.09166-1.8324.29789-3.5933 1.48946-4.926 2.68104-1.83232 1.60404-3.23633 3.68929-4.11681 5.93498-.23797.6645-.45214 1.329-.64251 1.9936-1.78476 6.5994-1.02326 14.253-.16658 20.9441-.78529-.252-1.33262-.9624-1.59439-1.7415 0-.0458-.02379-.0917-.02379-.1375z"/><path d="m99.9973 31.4909c-.0238 2.6123-.0476 5.2246-.0476 7.8369-.0238 1.2374-.0238 2.4977-.0238 3.758-.0476 6.0037-.119 11.9845-.3808 17.9882-.0476 1.0541-.0238 2.0394-.3807 3.0247-.4046 1.0999-.3808 2.4519-.5236 3.6206-.0476.3666-.1189.7562-.4045 1.0311-.2618.2521-.6425.2979-1.0233.3209-.5949.0687-1.2136.1145-1.8085.1833.3569-.2292.6187-.55.8329-.9395.2855-.5729.3569-1.2374.4045-1.8791.8805-10.5637.9519-21.1733.6425-31.7599-.0476-1.3978-.0952-2.7956-.1428-4.1935-.0238-.3208.0476-.6187.0238-.9395-.0475-.4124-.2617-.802-.5473-1.1457-.6187-.7333-1.5706-1.1916-2.4749-1.4895-6.7106-2.1769-14.2304-.5958-21.0125-2.5435h.8091c6.5203.3666 13.0168.7333 19.5133 1.0999 1.5706.0917 3.2126.2062 4.569.9853 1.9038 1.0999 1.9989 3.1394 1.9752 5.0413z"/></g><path d="m83.0065 70.5607c.5711.0917 1.1184.1605 1.6895.2521-.3093 1.0541-.7615 2.0394-1.4278 2.8644-2.7128 3.3685-7.7815 3.9642-11.7794 4.1934-6.7821.3666-13.5642.7562-20.3463.7103-7.3056-.0458-14.4922-.7103-21.774-1.1915 2.1893-.0688 4.4024-.0917 6.5917-.0917-.8091-.1146-1.6182-.2291-2.4273-.2979-3.7123-.4354-7.4722-.5728-11.2083-.7103-.0476 0-.0952-.0229-.119-.0229h-.0951c-.2856-.0688-.595-.1605-.9043-.2521-.6187-.1833-1.2613-.3896-1.7848-.7333-1.2374-.8478-1.7371-2.429-2.1655-3.8726-.9519-3.2997-.5949-6.5766-.4045-9.9221.2141-3.5977.2141-7.1953.1427-10.7929-.1189-4.5143-.3331-9.0743-.4759-13.5885.6901-.0688 1.404-.1146 2.0941-.1834 1.7372-.1374 3.4506-.252 5.1877-.3437.0476 5.935.4046 11.8928.6425 17.8049.0238.6416-.0713 1.2832 0 1.9019.0476.3666 0 .5958.2618.8937.357.4354 1.404.8707 2.0227.9853.7377.1146 1.523.0458 2.2607.0458 1.6182 0 3.2602 0 4.8784.023-1.5944.252-3.1888.4124-4.807.4812-.6901.0229-1.523-.0917-2.1655.1145-.6425.2063-1.285.2979-1.9275.4583-.1904.0459-.3808.0917-.4998.2292-.1189.1146-.1427.275-.1903.4354-.119.6645-.0476 1.329.1427 1.9706.1428.5042.3332.9396.2856 1.4666-.119 1.2374.0714 2.4977.2618 3.7351.0714.4583.0952.8708.3807 1.2603.6187.825 1.7134 1.2833 2.6891 1.5353 7.5435 1.9936 15.4441 2.0853 23.2732 2.1769 4.6166.0459 9.2332.0917 13.8498-.0458 3.1411-.0916 8.8762.5271 11.589-1.352.3807-.252.7139-.5728.9757-.9395 1.7609.2979 3.5219.55 5.2829.802zm-59.1827-37.8095c.0238-1.2603.1428-2.5206.2618-3.7809.0238-.2062.0238-.4125 0-.6187-.0476-.4125-.0476-.7333.0476-1.1228.238-.8708.6663-1.7874 1.523-2.2457.5711-.2979 1.2612-.3208 1.9275-.3437 3.2364-.0917 6.4727-.0917 9.7091-.0229-2.57-.2521-5.1401-.5271-7.7101-.7791-1.4517-.1375-2.9271-.2979-4.3311.0458.0476-.0229.1904-.3666.238-.4125.0952-.1604.2142-.3208.3332-.4583.2141-.2749.4759-.5499.7615-.7791.4997-.4124.9518-.8707 1.4754-1.2603 1.1184-.8249 2.4034-1.3978 3.7123-1.8561 1.2374-.4354 2.5224-.7333 3.8074-1.0312.8805-.2062 1.7848-.2062 2.6891-.2291 10.1374-.1375 20.2749-.1833 30.4123-.2521 1.6896-.0229 3.4267.55 5.0687.9854 1.1661.3208 2.4035.8249 3.1888 1.7644.7377.8937 1.1422 2.1769 1.3564 3.5976 2.4035-.0687 4.8069-.2062 7.258-.4124-.2142-2.7727-.7139-5.4538-2.7366-7.5619-2.2131-2.2915-5.973-2.7727-9.019-2.9331-3.4267-.1833-6.8535-.2979-10.2802-.3896-2.6891-.0458-5.3543-.0916-8.0195-.0916-5.4733-.023-10.8514.1833-16.277.4583-5.8541.2979-13.2787-1.6041-18.276 2.2685-2.4749 1.9249-3.6647 4.3309-4.1644 7.4474-.3808 2.3602-.4046 4.7662-.4046 7.1494 0 2.0623.0476 4.1476.119 6.2787 2.4273.1604 4.8546.252 7.2818.252.0238-1.2374.0238-2.429.0476-3.6664zm62.6332 7.9973c-.119-4.5142-.357-9.0284-.6901-13.5426-.0476-.7104-.0952-1.4208-.1428-2.154-2.4035-.1375-4.8307-.275-7.258-.4125.2379 2.4748.0238 5.2246.1428 7.0578.1665 2.8414.4521 5.6828.6901 8.5014.119 1.3749.2379 2.7498.3093 4.1246.0238.4354.119.8021-.1428 1.1687-.4521.6416-1.4278.7562-2.1655.802-3.9502.2521-7.9481.3437-11.8032 1.2374 4.9022.1833 9.8043.0917 14.6827-.252-.0952.4124-.2142.8478-.3094 1.2603-.0952.3666-.238.7562-.238 1.1228 0 .2292.0952.4583.119.6874.0714.3896.0238.825.0476 1.2145.0238 1.7416 0 3.4831-.0238 5.2246-.0238 1.4666-.0714 2.9331-.119 4.3768-.0238.1604-.0238.3437-.0238.5041-.0952 2.3831-.119 5.912-1.7847 8.0431 2.3796.2292 4.7593.2979 7.1152.2521.4521-1.902.5949-3.9414.8091-5.7058.7853-6.1641.6901-12.4428.7615-18.6527.0238-1.627.0238-3.231.0238-4.8351.0238.023 0 0 0-.0229z" fill="url(#e)"/><g fill="#eb924d"><path d="m61.042 78.1225c3.1173-.0458 6.3061-.0917 9.3997-.5499.6425-.0917 1.3326-.0688 1.9989-.1146 1.404-.0917 2.7842-.2292 4.1644-.4125.9043-.1146 1.8086-.2521 2.6891-.5499 2.6414-.8708 4.7355-3.1623 5.3067-5.7975-1.4516-.0688-3.1174-.0688-4.569-.1375 1.2136-.2062 2.9984.3896 3.5457 1.4666-1.5706 1.329-3.3315 2.5206-5.3305 3.0476-1.0708.275-2.1893.3667-3.2839.4354-7.496.55-15.0158 1.1228-22.5118.9854-3.6171-.0459-7.2104-.275-10.8275-.1375-1.0471.0458-2.0942.1145-3.1174.1375-.5949.0229-1.1899.0687-1.7848-.023-.4045-.0458-.8329-.0229-1.2374-.0229-.9043 0-1.7848-.0229-2.689-.0687-1.7848-.0688-3.5696-.2063-5.3543-.3896-1.9276-.2062-3.8789-.4583-5.7826-.802-.9281-.1604-1.9038-.3666-2.5701-.9624-.4521-.4125-.7377-.9624-.9757-1.4895-.7853-1.7415-1.3088-3.5976-1.5468-5.4766-.6901 2.3144.0238 4.8579 1.6182 6.7369 1.4992 1.7645 3.8075 2.7727 6.1158 3.1852 1.7372.3208 3.6885.4812 5.4257.2979.3807-.0458.7615 0 1.166.0229.9043.0458 1.8086.0917 2.7128.1375 1.8086.0917 3.6172.1604 5.4257.2062 1.8086.0459 3.5933.0688 5.4019.0917.8329 0 1.7372.0916 2.57-.0229.8091-.1146 1.7134.0229 2.5463.0458 3.6171.1146 7.258.2062 10.8751.1833.1904-.0229.4046-.0229.6188-.0229z"/><path d="m88.2178 25.7623s-2.927-.0917-3.1887-.0917c-1.0947-.0458-2.1655-.1145-3.2602-.1833-.5473-.0458-1.0946-.0687-1.6182-.1146-.2617-.0229-.5473-.0458-.8091-.0687-.1665-.0229-.3093-.0458-.4759-.0458-.0714 0-.119.0229-.1666.0229-.0952-.0229-.2142-.0458-.3093-.0688-.4284-.1145-.8567-.2062-1.2851-.3208 0-.0687-.0238-.1145-.0238-.1833 0-.0229.595-.0229.6425-.0229.1666.0229.357.0687.5236.0458.1428-.0229.2617-.0458.4045-.0458h.6663c.9043 0 1.8086.0229 2.6891.0687.9042.0459 1.8085.0917 2.689.1604.9043.0688 1.8086.1605 2.689.275.3094.0459.6426.0688.9519.1146.0476.2062-.119.2521-.119.4583z"/><path d="m24.7994 36.4634c-2.8556.275-5.7112.6645-8.5431 1.1457-.1903-.1833-.2617-.3895-.2141-.6187 2.9746-.3437 5.7588-.3895 8.7572-.527z"/></g><path d="m82.1973 42.7879c.0952 6.3932-.0952 12.6948-.5235 18.9276-.0952 1.3978-.1904 2.8185-.3332 4.2163-.3569 4.2393-3.9264 7.5849-8.3288 7.8828-14.0639.9166-28.4372.8707-43.0722-.023-4.4738-.2749-8.0671-3.7351-8.3527-8.0431 0-.0687-.0238-.1145-.0238-.1833-.5711-10.8158-.6663-21.8149-.3094-32.9974.0238-.527.0238-1.0541.0476-1.5811.0952-2.1311.1666-4.2392.2856-6.3703.0238-.5042.0952-.9854.2142-1.4666 0-.0916.0238-.1833.0713-.275.9281-3.6205 4.2359-6.3015 8.2575-6.5078 14.0401-.6645 28.2468-.6645 42.6677.0229 4.4976.2063 8.1861 3.5977 8.543 7.9286.3332 4.0559.5712 8.066.7139 12.0532.0952 2.154.1428 4.2851.1428 6.4162z" fill="#e58a4a"/><path d="m56.0286 22.174c-.3258-.0225-.6372-.0915-.9621-.0834-.333.0009-.6724.0555-.987.1472-.11.0359-.2199.0718-.3213.1302-.397.2561-.4208.8-.3916 1.2571-.1875-.717-.9448-1.1236-1.6207-1.4578-.2334-.1186-.4827-.2365-.7528-.254-.2141.0028-.4272.036-.634.0155-.4534-.0469-.9363-.0159-1.3883-.0169-.5313.0028-1.0702.0136-1.6092.0244-1.3313.0339-2.4296.989-2.5035 2.2613-.2643 4.5375-.4159 9.1308-.5186 13.7675-1.7607-.0065-3.5133-.0057-5.2655.0104-.452-.0011-.896.0051-1.3557.0121-.3172.0001-.667-.0288-.982.0476-.2363.0573-.4463.1974-.6568.3222-.1638.092-.311.2138-.4337.3573-.0385.0401-.2816.4034-.2328.4469-.5138-.4872-1.1897-.8213-1.8996-.9627-.3511-.0748-.7245-.0949-1.0887-.0773-.1584.0077-.2779-.0094-.4213-.0331-.2389-.0343-.4838.0005-.7218-.0032-.4991.0165-.9983.033-1.4897.0415-1.339.0419-2.3799 1.063-2.4461 2.3273-.0133.3599-.0343.7278-.0394 1.0949-.0624 1.6692-.0696 3.3281-.0052 4.9912.0236.8091.111 1.6303.1187 2.4401.0018.8789.43 1.6912.6604 2.5208.2299.8144.2865 1.6677.9238 2.3094.4984.5032 1.2046.7901 1.926.7781 1.7919-.0104 3.592-.0135 5.3917-.0318.9277-.0067 1.8712-.0142 2.7988-.0209.4996-.0012.9911-.0098 1.4906-.011.1824-.0012.3725-.0104.5476.0117.2869.0472.6087-.0677.8752-.1723.3218-.115.6342-.283.9058-.4872.1942-.1393.3721-.2932.5093-.4832.2368-.3096.3605-.6901.6462-.9561.0188.3736.0376.7472.0565 1.1208.0188.3736.0697.7609.0487 1.1288-.0164.253-.1206.4874-.113.7469-.0001.2675-.0084.5277-.0085.7953-.0204 1.7512-.0488 3.4952-.0691 5.2465-.0111.4362-.0145.8644-.0256 1.3006-.0302 1.6829.1246 3.4563.5772 5.1082.1066.3923.2761.7663.5 1.0994.1994.3113.4797.6799.8186.8775.1289.0702.266.1476.4026.2098.2737.1396.5864.2544.9027.2238.3797-.0337.7223-.249.9682-.5208.2535-.2797.4265-.6015.5914-.9305.0786.2484.1572.4968.2277.738.0353.1206.0782.2332.1677.3129.0896.0797.2095.1122.329.1293.7502.1624 1.5289.2164 2.2964.1563.372-.0256.7422-.1124 1.1069-.1147.238.0037.4616.0541.7005.0884.6529.0906 1.3562.0031 2.0218-.0139 1.3553-.0274 2.4206-1.0267 2.4624-2.3128.1129-4.0181.2574-8.0377.3937-12.0646.0133-.3599.0583-.7213-.0076-1.0774-.0284-.1591.0074-.2908.0346-.4449.0831-.4168.1661-.8335.2491-1.2503.0939.4999.5562.852 1.038 1.058.7062.2868 1.4755.2878 2.2366.2815.896-.0052 1.7997-.0183 2.7038-.0163 1.7522-.016 3.4967-.024 5.257-.0328.9276-.0067 1.8553-.0134 2.7753-.0121 1.348-.0042 2.4372-.997 2.5112-2.2693l.4445-7.6036c.0177-.2072-.0356-.4033-.0178-.6106.0059-.069.0118-.1381.0096-.2144-.1102-1.3323-.5331-2.7793-1.1389-3.9728-.3029-.5968-.871-1.0432-1.5117-1.2567-.2723-.0939-.5511-.1339-.8443-.1273-1.3245-.0047-2.6413-.0173-3.9659-.022-1.8087-.0194-3.6251-.0308-5.4338-.0503-.2222-.0045-.452-.001-.6824-.0128-.1823.0012-.3724.0104-.5407-.0502-.2968-.1156-.6221-.1228-.9539-.0761-.3475.0474-.6775.1551-.9739.3223-.1562.084-.2961.1825-.4197.2955-.062.0488-.349.2691-.3386.3526-.0803-.5769-.0655-1.1585.0366-1.7367.0472-.2851.1582-.558.2135-.8358.0549-.2931.0212-.6354.0281-.9415.0111-.4362.0303-.8651.0414-1.3013.0316-.8194.0551-1.646.079-2.4573.0446-1.462.2241-2.9229-.1187-4.3432-.4159-1.7531-.4236-4.466-2.5588-5.0735-.1922-.0671-.3836-.1037-.5741-.1097z" fill="#a04623"/></svg>