<svg fill="none" height="45" viewBox="0 0 113 45" width="113" xmlns="http://www.w3.org/2000/svg"><path d="m0 6.00001c0-3.31371 2.68629-6.00001 6-6.00001h96.207c5.522 0 10 4.47715 10 10v24.6624c0 5.5228-4.478 10-10 10h-94.20699c-4.41828 0-8.00001-3.5817-8.00001-8z" fill="#eb924d" opacity=".9"/><path d="m40.0547 17.0547c.0156.1562.0312.25.0469.2812.0312.0313.0468.0782.0468.1407.0313.1406.0313.2734 0 .3984-.0312.1719-.0468.2891-.0468.3516 0 .0468-.0078.1015-.0235.164-.0312.1094-.0469.211-.0469.3047.0157.0781.0235.1563.0235.2344-.0156.0781-.0313.1484-.0469.2109s-.0078.125.0234.1875l.1876-.1875c.1562-.1718.2578-.25.3046-.2344.0313-.0781.0782-.1406.1407-.1874.0625-.0626.1328-.1172.2109-.1641.0938-.1406.1719-.2188.2344-.2344.1094-.1094.1875-.1797.2344-.2109.1562-.0782.2421-.1328.2578-.1641.0312-.0312.0625-.0703.0937-.1172.2344-.1562.3828-.25.4453-.2812.1406-.0938.2344-.1485.2813-.1641.0469-.0312.0937-.0625.1406-.0937.1563-.0625.2578-.1016.3047-.1172.2656-.0469.4375-.1016.5156-.1641l.3047.0469c.1094-.0156.1719-.0156.1875 0s.0391.0234.0703.0234c.1719-.0312.2735-.039.3047-.0234h.0938c.1562 0 .2421.0078.2578.0234.0781.0157.1406.0313.1875.0469.0625 0 .1328.0156.2109.0469.2188.0781.3516.1172.3984.1172.125.0156.2032.0312.2344.0468.0313.0157.0703.0313.1172.0469.0625.0313.1328.0625.2109.0938.0938.0312.1797.0859.2579.164.1562.125.2812.2344.375.3282.0937.1093.164.1874.2109.2343.0469.0313.0937.0781.1406.1407.1094.125.1719.2031.1875.2343.0156.0313.0313.0625.0469.0938.125.1406.1875.2187.1875.2343.0781.0938.1328.1641.164.211.0313.0469.0704.1094.1172.1875.0938.125.1485.2109.1641.2578.0313.0313.0703.0625.1172.0937l.2109.3516c.0938.1719.1485.2734.1641.3047.0312.0156.0547.0391.0703.0703.0781.1719.1172.2656.1172.2813.125.1875.1953.3125.2109.375.0157.0468.0391.1093.0703.1875.0782.2031.125.3359.1407.3984.0312.0625.0625.1172.0937.1641.0625.1875.0938.2968.0938.3281l.0703.0703c.0156.0313.0234.0703.0234.1172s.0078.0937.0235.1406l.0937.3516c.0625.1562.0937.25.0937.2812.0157.1875.0313.3047.0469.3516.0157.0469.0313.1094.0469.1875 0 .1094.0234.2109.0703.3047-.0781.2656-.1094.4531-.0937.5625.0156.1094.0234.2187.0234.3281-.0156.0781-.0312.1641-.0469.2578-.0156.0938-.0312.1797-.0469.2578l-.0703.4219c-.0312.0625-.0547.1484-.0703.2578 0 .0938-.0078.1797-.0234.2578-.0313.0782-.0547.1641-.0703.2578 0 .0782-.0078.1563-.0235.2344-.0625.1875-.0937.2891-.0937.3047s-.0078.0391-.0235.0703c-.1093.2656-.1874.461-.2343.586-.0313.1093-.086.2187-.1641.3281-.0781.1562-.125.2343-.1406.2343v.0235c-.0781.1719-.125.2656-.1406.2812-.1094.1563-.1719.25-.1875.2813-.0157.0312-.0391.0625-.0703.0937l-.1876.2813c-.125.1719-.2031.2734-.2343.3047-.0157.0312-.0391.0625-.0703.0937l-.3985.5391c-.0781.0312-.1406.0781-.1875.1406-.0468.0625-.1094.1094-.1875.1406-.1875.1407-.3203.2344-.3984.2813-.0781.0312-.1563.0625-.2344.0937-.1094.0782-.1875.1329-.2344.1641-.0468.0469-.1015.0859-.164.1172-.0625.0469-.125.0781-.1875.0937-.0625.0157-.125.0391-.1875.0703-.1094.0469-.1719.0782-.1875.0938s-.0313.0234-.0469.0234c-.0313.0157-.0781.0235-.1406.0235-.0469 0-.0938.0078-.1407.0234-.0781.0156-.1484.0313-.2109.0469s-.1094.0234-.1406.0234c-.0625 0-.1172-.0078-.1641-.0234-.0468-.0156-.0937 0-.1406.0469-.0469-.0469-.1094-.0625-.1875-.0469s-.1328.0078-.1641-.0234c-.0781-.0157-.1328-.0235-.164-.0235-.0156.0156-.0469.0235-.0938.0235-.2187-.0313-.375-.0469-.4687-.0469-.0781.0156-.1719.0156-.2813 0-.0781-.0157-.1562-.0235-.2344-.0235-.0781 0-.1562-.0156-.2343-.0468-.1407-.0313-.2188-.0547-.2344-.0704-.0156 0-.0313 0-.0469 0-.1875-.0937-.3047-.1406-.3515-.1406-.0469 0-.0938-.0156-.1407-.0468-.1093-.0313-.1796-.0547-.2109-.0704-.0156-.0156-.0391-.0234-.0703-.0234-.1094-.0469-.1797-.0703-.211-.0703-.0312-.0156-.0624-.0547-.0937-.1172-.1563-.0469-.2578-.0859-.3047-.1172-.0469-.0469-.0937-.0625-.1406-.0469-.125-.1093-.2031-.1796-.2344-.2109-.0312-.0469-.0625-.0859-.0937-.1172-.1407-.0781-.2188-.1172-.2344-.1172-.0313.2188-.0391.4375-.0235.6563.0157.2187.0235.4453.0235.6797 0 .0625-.0078.1171-.0235.164 0 .0469.0079.1016.0235.1641v.4219c.0156.1718.0156.2812 0 .3281v.2109c-.0156.0938-.0235.1875-.0235.2813.0157.1094.0235.2187.0235.3281-.0156.1406-.0235.2109-.0235.2109.0157.0157.0235.0313.0235.0469v.1875c.0156.0313.0156.086 0 .1641.0156.1719.0156.2812 0 .3281v.2109c-.0156.0782-.0156.1485 0 .211s.0234.1328.0234.2109c.0157.1719.0157.336 0 .4922 0 .1719.0078.3438.0235.5156 0 .0625.0078.1172.0234.1641s.0234.0937.0234.1406c-.0156.1406-.0156.2188 0 .2344.0157.0312.0235.0625.0235.0937l.0703.2813c.0312.2031.0547.3594.0703.4687.0156.1094.0313.211.0469.3047.0156.1094.0234.211.0234.3047.0156.0938.0234.1953.0234.3047 0 .0781-.0078.1641-.0234.2578 0 .1094.0078.2109.0234.3047-.0312.0312-.0703.0703-.1171.1172-.0313.0469-.0782.0859-.1407.1172-.0625.0468-.1484.0703-.2578.0703s-.2265 0-.3515 0c-.0782 0-.1641.0078-.2579.0234-.0781.0157-.1562.0235-.2343.0235-.1875-.0157-.3203-.0235-.3985-.0235-.0781.0157-.1562.0157-.2343 0-.1563 0-.2422-.0078-.2579-.0234-.0156 0-.039 0-.0703 0-.0312-.0156-.0703-.0235-.1171-.0235-.0469 0-.1016-.0078-.1641-.0234-.0938-.0156-.1563-.0234-.1875-.0234-.0313.0156-.0625.0234-.0938.0234-.0468 0-.1015 0-.164 0-.0469 0-.1094-.0078-.1875-.0234-.0313 0-.0781 0-.1407 0-.0468 0-.0937.0156-.1406.0468-.125-.0312-.2578-.0468-.3984-.0468-.2031.0312-.3828.0312-.5391 0-.0625-.0156-.125-.0313-.1875-.0469s-.1172-.0391-.164-.0703c-.1094-.1563-.1641-.25-.1641-.2813 0-.0156-.0156-.0312-.0469-.0468-.0156-.125-.0312-.2344-.0468-.3282-.0157-.0937-.0235-.2031-.0235-.3281.0156-.0625.0156-.125 0-.1875 0-.0625.0078-.1172.0235-.1641 0-.1562.0078-.2812.0234-.375.0156-.0937.0312-.1953.0469-.3046 0-.0782 0-.2422 0-.4922 0-.0938 0-.1563 0-.1875.0156-.0157.0234-.0391.0234-.0703 0-.1094-.0156-.2422-.0469-.3985.0625-.2343.1016-.4219.1172-.5625.0313-.1406.0313-.2968 0-.4687-.0625-.1719-.0937-.2735-.0937-.3047.0156-.0313.0234-.0625.0234-.0938 0-.125-.0078-.2343-.0234-.3281-.0157-.0781-.0235-.1562-.0235-.2344.0156-.125.0156-.1953 0-.2109 0-.0156 0-.0391 0-.0703 0-.0781 0-.1563 0-.2344.0156-.0781.0313-.1562.0469-.2344-.0156-.1406-.0156-.2265 0-.2578v-.3047c0-.1406.0078-.2812.0234-.4218.0157-.125.0079-.25-.0234-.375.0313-.0313.0391-.0704.0234-.1172-.0156-.0469-.0234-.0938-.0234-.1406v-.3047c-.0156-.0469-.0234-.125-.0234-.2344s.0078-.2109.0234-.3047.0156-.1484 0-.1641c0-.0312 0-.0703 0-.1171l.0469-.3516c0-.0625 0-.1172 0-.1641.0156-.0469.0234-.1093.0234-.1875.0313-.1562.0391-.2812.0234-.375 0-.1094-.0078-.1797-.0234-.2109-.0312-.1563-.039-.3594-.0234-.6094s.0234-.4531.0234-.6094c0-.0468-.0078-.0937-.0234-.1406 0-.0469.0078-.0937.0234-.1406 0-.1094-.0078-.2109-.0234-.3047 0-.0938 0-.1953 0-.3047-.0156-.1719-.0235-.2812-.0235-.3281.0157-.0469.0235-.0938.0235-.1406l-.0235-.3047c-.0156-.0625-.0234-.1094-.0234-.1407.0156-.0468.0156-.0859 0-.1171-.0156-.0313-.0234-.086-.0234-.1641.0156-.0938.0234-.1641.0234-.2109v-.375c0-.0625 0-.125 0-.1875.0156-.0625.0078-.1094-.0234-.1407-.0157-.1406-.0235-.2343-.0235-.2812-.0156-.2188-.0312-.3516-.0468-.3985v-.3515c-.0157-.2031-.0235-.3281-.0235-.375s-.0078-.1094-.0234-.1875c-.0313-.0938-.0469-.1484-.0469-.1641.0156-.0312.0234-.0625.0234-.0937-.0156-.125-.0234-.2032-.0234-.2344.0156-.0312.0234-.0781.0234-.1406-.0156-.0938-.0312-.1953-.0468-.3047-.0157-.125-.0313-.25-.0469-.375.0156-.125.0156-.1953 0-.2109 0-.0313 0-.0626 0-.0938-.0313-.1875-.0391-.2812-.0235-.2812.0157 0 .0235-.0157.0235-.0469.0156-.1407.0156-.2188 0-.2344 0-.0313 0-.0625 0-.0937v-.4454c-.0156-.0781-.0313-.1328-.0469-.164 0-.0469 0-.1094 0-.1875v-.2813c.0156-.0937.0156-.1562 0-.1875 0-.0312 0-.0625 0-.0937-.0156-.1719-.0312-.2656-.0469-.2813 0-.0156 0-.039 0-.0703-.0312-.1562-.0468-.2422-.0468-.2578.0156-.0312.0078-.0703-.0235-.1172-.0156-.0625-.0234-.1094-.0234-.1406 0-.1719-.0078-.2656-.0234-.2813-.0157-.0312-.0235-.0625-.0235-.0937-.0312-.1094-.0469-.1719-.0469-.1875.0157-.0156.0235-.0391.0235-.0703.0156-.2344.0156-.375 0-.4219 0-.0469.0078-.1016.0234-.1641.0313-.1093.0703-.1875.1172-.2343.1094-.1094.2344-.1641.375-.1641.1719-.0469.2813-.0703.3281-.0703.0469 0 .086.0156.1172.0469.1406-.0313.2422-.0469.3047-.0469.0469 0 .0937.0078.1406.0234h.1875c.1406-.0469.211-.0625.211-.0469 0 .0157.0156.0235.0468.0235.1875-.0156.3282-.0078.4219.0234.2188-.0156.3672-.0156.4453 0 .0782.0157.1563.0235.2344.0235.0469-.0157.0938-.0313.1406-.0469.0625-.0156.125-.0235.1875-.0235.2031.0157.336.0391.3985.0704l.3046-.0469c.0626-.0156.1329-.0156.211 0 .0937 0 .1797-.0078.2578-.0235.0625.0157.1328.0157.2109 0 .0782-.0156.1563-.0234.2344-.0234zm.2344 9.3047c.0468.0781.0937.1406.1406.1875.0625.0312.1328.0625.2109.0937.125.0938.2188.1406.2813.1406.1562.0626.2422.1016.2578.1172.0312 0 .0625.0157.0937.0469.0782.0313.1563.0625.2344.0938.0781.0312.1563.0468.2344.0468.2031-.0156.3281-.0156.375 0 .0469.0157.0859.0313.1172.0469.0625 0 .1172-.0078.164-.0234.0469-.0156.086-.0156.1172 0 .2344.0468.3828.0625.4453.0468.0782-.0312.1485-.0624.211-.0937.1719-.0469.2578-.0859.2578-.1172.1875-.0781.3047-.125.3515-.1406.0469-.0313.1094-.0469.1876-.0469.0312-.0469.0624-.0859.0937-.1172.0313-.0468.0625-.0859.0937-.1172.0938-.1093.1485-.1718.1641-.1875.0313-.0156.0547-.039.0703-.0703.0938-.1718.1406-.2656.1406-.2812.0157-.0156.0313-.0391.0469-.0703 0-.0313.0078-.0703.0235-.1172.0312-.0625.0625-.1094.0937-.1407.0313-.1718.0469-.3124.0469-.4218s.0078-.2188.0234-.3282c.0469-.2187.0625-.3828.0469-.4921 0-.1094.0156-.2032.0469-.2813-.0313-.0469-.0391-.0937-.0235-.1406.0157-.0469.0157-.0938 0-.1406 0-.0469-.0078-.0938-.0234-.1407-.0156-.0468-.0234-.0937-.0234-.1406.0156-.125.0156-.2109 0-.2578-.0157-.0469-.0313-.0937-.0469-.1406-.0156-.1563-.0469-.2578-.0938-.3047-.0156-.0469-.0312-.1016-.0468-.1641 0-.0625-.0157-.1093-.0469-.1406-.0781-.1563-.125-.25-.1406-.2813-.0157-.0468-.0391-.0859-.0703-.1171-.125-.1407-.2032-.2422-.2344-.3047-.1719-.125-.2735-.1953-.3047-.211-.0313-.0312-.0625-.0625-.0938-.0937-.1875-.0781-.2968-.1172-.3281-.1172l-.2812.0234c-.2032.0625-.3516.1172-.4454.1641-.0781.0469-.1562.0859-.2343.1172-.125.0469-.2266.1094-.3047.1875-.1406.0625-.2188.1015-.2344.1172l-.2109.164-.2344.1641c-.125.0938-.2109.1719-.2578.2344-.0469.0468-.0938.0859-.1406.1172-.1407.1093-.2188.1718-.2344.1875-.0156.0156-.0391.039-.0703.0703-.0938.0468-.1563.0937-.1875.1406-.0157.0312-.0391.0625-.0703.0938-.0625.0781-.125.1484-.1875.2109-.0625.0469-.1172.1172-.1641.2109-.0781.1563-.1172.2344-.1172.2344-.0625.1094-.0937.1875-.0937.2344.0156.0468.0078.0859-.0235.1172.0156.2031.0391.3359.0703.3984v.2578c.0157.0313.0235.0703.0235.1172.0156.0781.0156.1484 0 .2109v.1641c0 .0781-.0078.1484-.0235.2109v.1641c.0313.1875.0391.2969.0235.3281 0 .0313.0078.0625.0234.0938.0469.0469.086.0937.1172.1406.0312.0313.0859.0469.1641.0469zm21.7968-8.7422c.0625.0156.1719.0547.3282.1172.1406.0468.2421.125.3047.2344.0781.0312.1484.0703.2109.1171.0625.0313.125.0782.1875.1407.1562.1093.2266.1718.2109.1875v.0468c.1407.1094.211.1719.211.1875.0312.0313.0703.0704.1171.1172.0469.0469.086.086.1172.1172.0782.1094.125.1797.1407.211.0312.0312.0625.0624.0937.0937.0781.1406.125.2266.1406.2578.0313.0156.0547.0391.0704.0703.1562.1875.25.3282.2812.4219.0469.0781.0938.1641.1406.2578.0625.1406.1016.2188.1172.2344.0156 0 .0313.0078.0469.0234.0469.1407.0859.2344.1172.2813.0469.0468.0859.1094.1172.1875.0781.125.1484.2656.2109.4219.0781.1562.1484.3281.2109.5156.1094.2968.1953.5859.2579.8672 0 .1093.0078.1953.0234.2578.0781.2031.1172.3437.1172.4218 0 .0782.0078.1641.0234.2579.0313.0781.0469.1562.0469.2343 0 .0782.0078.1563.0234.2344.0313.1094.0625.2656.0938.4688 0 .125-.0078.25-.0235.375v.3515c-.0156.125-.0234.2344-.0234.3281.0156.0938.0078.1954-.0234.3047-.0313.1407-.0469.2422-.0469.3047s-.0078.1328-.0235.211c-.0312.125-.0468.2109-.0468.2578-.0313.0781-.0625.1484-.0938.2109-.0156.0469-.039.1094-.0703.1875-.0312.125-.0547.211-.0703.2578-.0312.125-.0781.2266-.1406.3047-.0469.0781-.1094.1641-.1875.2578-.0469.0938-.1016.1719-.1641.2344-.0469.0625-.0937.125-.1406.1875-.1094.1719-.1953.2891-.2578.3516-.0469.0625-.0938.1328-.1406.2109-.125.1563-.1954.2422-.211.2578-.0156 0-.0312.0156-.0469.0469-.0625.0781-.1328.164-.2109.2578-.0781.0781-.1641.1484-.2578.2109-.0781.1563-.1484.25-.211.2813-.0468.0312-.1093.0703-.1874.1172-.0626.0468-.1172.1015-.1641.164-.25.0938-.3985.1563-.4453.1875l-.2344.1172c-.2344.0938-.3828.1641-.4453.211-.0625.0312-.1328.0703-.2109.1171-.0626.0313-.1719.0782-.3282.1407-.0937.0469-.164.0703-.2109.0703-.0313 0-.0625.0078-.0938.0234-.125.0469-.2031.0703-.2343.0703-.0157 0-.0391.0079-.0704.0235-.1718.0468-.289.0703-.3515.0703s-.125.0078-.1875.0234c-.2031.0625-.3594.0938-.4688.0938-.1875-.0157-.3125-.0157-.375 0-.0468.0156-.1093.0312-.1875.0469-.2343.0468-.4687.0468-.7031 0-.1719.0312-.3125.0468-.4219.0468-.0468 0-.0937 0-.1406 0-.0469.0156-.0859.0235-.1172.0235-.0625 0-.1172-.0157-.164-.0469-.0313-.0156-.0782-.0234-.1407-.0234-.0625-.0157-.1796-.0235-.3515-.0235-.0938-.0156-.1875-.0312-.2813-.0469-.0937-.0156-.1875-.0312-.2812-.0468-.0469-.0157-.1016-.0235-.1641-.0235-.0469 0-.0937-.0078-.1406-.0234-.1094-.0313-.1953-.0469-.2578-.0469-.2031-.0781-.2969-.1172-.2813-.1172-.2187-.0625-.3359-.1015-.3515-.1172-.1875-.0156-.3125-.039-.375-.0703-.1719-.0625-.2735-.0937-.3047-.0937l-.2578-.1172c-.1875-.0938-.3125-.1406-.375-.1406-.1563-.0469-.2578-.0938-.3047-.1407-.1719-.0625-.2735-.1015-.3047-.1171-.0313-.0157-.0625-.0313-.0938-.0469-.1562-.1563-.2656-.2422-.3281-.2578-.0625-.0313-.1094-.0782-.1406-.1407-.1719-.0781-.2656-.125-.2813-.1406 0-.0156-.0078-.0312-.0234-.0469-.0938-.0625-.1719-.1484-.2344-.2578-.125-.0937-.2187-.1953-.2812-.3047-.0938-.0781-.1563-.1484-.1875-.2109-.1094-.1563-.1641-.2422-.1641-.2578s-.0078-.0313-.0234-.0469c-.1094-.1875-.1797-.289-.211-.3047-.0156-.0312-.0312-.0703-.0468-.1172-.0469-.0468-.1016-.0937-.1641-.1406-.0469-.0625-.0703-.1406-.0703-.2344-.125-.0937-.2031-.1797-.2344-.2578-.0469-.1093-.0703-.1797-.0703-.2109.0156-.0313.0234-.0625.0234-.0938-.1093-.1875-.1875-.3281-.2343-.4218-.0625-.2032-.1016-.3282-.1172-.375-.0938-.1875-.1563-.336-.1875-.4454-.0313-.1093-.0625-.2343-.0938-.375-.0156-.125-.0234-.1953-.0234-.2109.0156-.0156.0156-.0391 0-.0703 0-.0469-.0078-.0859-.0235-.1172 0-.0469-.0078-.0937-.0234-.1406.0156-.2344.0078-.3672-.0234-.3984-.0156-.1563-.0313-.2344-.0469-.2344-.0156-.0156-.0234-.0391-.0234-.0703 0-.125.0078-.2188.0234-.2813.0313-.0625.0469-.125.0469-.1875 0-.125 0-.2187 0-.2812.0468-.125.0703-.2032.0703-.2344.0156-.0469.0156-.1016 0-.1641.0625-.1406.0937-.2422.0937-.3047s.0078-.1171.0235-.164c.0312-.0938.0547-.1563.0703-.1875.0156-.0313.0234-.0625.0234-.0938.0156-.0781.0235-.1328.0235-.164 0-.0313.0078-.0782.0234-.1407.0469-.1093.0937-.2031.1406-.2812.0469-.125.0703-.2109.0703-.2578s.0078-.0938.0235-.1407c.0312-.1406.0625-.2265.0937-.2578.0625-.1718.1016-.2578.1172-.2578s.0234-.0078.0234-.0234c.0782-.125.1329-.211.1641-.2578.0313-.0625.0625-.1172.0938-.1641.0312-.0781.0625-.1484.0937-.2109.0313-.0625.0625-.1328.0938-.211.0781-.0937.1172-.1484.1172-.164.0156-.0313.0312-.0625.0468-.0938.0782-.125.125-.1875.1406-.1875.0157-.0156.0391-.039.0704-.0703.0625-.0937.0937-.1484.0937-.164.0156-.0157.0313-.0391.0469-.0704.2344-.2812.3828-.4922.4453-.6328.125-.0625.2031-.125.2344-.1875.0625-.0156.1015-.0469.1172-.0937.0312-.0625.0625-.1094.0937-.1406l.2813-.0938c.1562-.1094.2734-.1797.3515-.2109.1094-.0625.1797-.086.211-.0703.0468 0 .0859-.0079.1172-.0235.125-.1094.1874-.1562.1874-.1406s.0157.0078.0469-.0235c.1563-.0624.2422-.0937.2578-.0937.0313 0 .0625-.0078.0938-.0234.125-.0782.2031-.1172.2344-.1172.0312-.0157.0703-.0313.1171-.0469.0469-.0156.086-.0391.1172-.0703.1563-.0781.2578-.1172.3047-.1172s.0938-.0078.1407-.0234c.1562-.0625.25-.0938.2812-.0938.0469-.0156.0859-.0234.1172-.0234.3281-.0781.5547-.1407.6797-.1875.0937.0156.1797.0156.2578 0 .0937-.0313.1797-.0547.2578-.0703.1875 0 .3047.0078.3516.0234.0468.0156.0937.0234.1406.0234s.0937-.0078.1406-.0234c.0625-.0156.125-.0234.1875-.0234h.375c.0469-.0157.0938-.0235.1406-.0235.0625-.0156.1172-.0156.1641 0s.1016.0235.1641.0235c.0468-.0157.0937-.0313.1406-.0469.0625-.0156.1328-.0156.2109 0 .0938.0156.1797.0312.2578.0469.0782.0156.125.0234.1407.0234.1875.0156.2968.0313.3281.0469.0781.0156.1641.0312.2578.0468.1094.0157.2266.0313.3516.0469.1718.0157.2578.0235.2578.0235.0156-.0157.039-.0157.0703 0 .1406.0625.2266.1015.2578.1172h.1172l.1875.0468c.0781 0 .1406.0235.1875.0703.2187.0938.3437.1563.375.1875zm-3.3281 3.5859c-.1562-.0312-.2344-.039-.2344-.0234s-.0078.0234-.0234.0234c-.1562.0157-.2422.0313-.2578.0469s-.0391.0234-.0703.0234c-.0625.0313-.1328.0547-.211.0704-.0625 0-.1093.0156-.1406.0468-.1562.0938-.2422.1406-.2578.1406s-.0391.0079-.0703.0235c-.1406.0469-.211.0781-.211.0937 0 0-.0156.0078-.0468.0235-.0938.0625-.1797.1328-.2578.2109-.1094.0781-.1954.1484-.2578.211-.0469.0468-.086.0859-.1172.1171-.125.1407-.1875.2188-.1875.2344-.0938.125-.1719.2188-.2344.2813-.1094.1562-.1641.2578-.1641.3046 0 .0469-.0156.0938-.0468.1407-.125.1406-.1954.2578-.211.3515-.0469.0782-.0937.1485-.1406.211-.0313.0468-.0469.1015-.0469.164.0156.2032.0156.3282 0 .375v.1172c0 .2032.0235.3594.0703.4688.0313.125.0625.25.0938.375.0468.125.1015.25.164.375.0938.1718.1328.2656.1172.2812 0 .0156.0078.0313.0235.0469.0781.125.125.1875.1406.1875s.0312.0078.0469.0234c.125.125.1953.1875.2109.1875s.0391.0079.0703.0235c.0781.0781.1563.164.2344.2578.0937.0781.2031.125.3281.1406l.3047.1641c.0469.0312.0938.0469.1406.0469.0469 0 .0938.0078.1406.0234.0938.0469.1563.0703.1876.0703.0312-.0156.0624-.0156.0937 0 .1406.0469.2344.0703.2813.0703.0468-.0156.0859-.0234.1171-.0234.1563.0468.25.0703.2813.0703.0469-.0156.0937-.0235.1406-.0235h.2344c.1094-.0156.2031-.0234.2812-.0234l.4219-.0703c.1406-.0469.2031-.0781.1875-.0937 0-.0157.0156-.0235.0469-.0235.1094-.0156.1953-.0547.2578-.1172.1406-.1093.2578-.164.3516-.164.0781-.1563.1562-.2579.2343-.3047.0938-.1406.1328-.211.1172-.211 0-.0156.0078-.0312.0235-.0468.0468-.1094.0859-.1641.1171-.1641.0313-.0156.0547-.0391.0704-.0703.0468-.0938.0703-.1563.0703-.1875.0156-.0313.0312-.0547.0469-.0703l.164-.3282c.0938-.1406.1406-.2656.1406-.375.0625-.1874.086-.3203.0704-.3984 0-.0781 0-.1562 0-.2344-.0157-.0781-.0313-.1484-.0469-.2109-.0157-.0625-.0313-.1328-.0469-.2109-.0156-.0625-.0234-.1094-.0234-.1407.0156-.0468.0156-.0859 0-.1171-.0313-.0626-.0625-.1094-.0938-.1407-.0156-.0469-.0234-.0937-.0234-.1406-.0938-.125-.1406-.1953-.1406-.2109 0-.0157-.0079-.0313-.0235-.0469-.0781-.1094-.1172-.1641-.1172-.1641 0-.0156-.0078-.039-.0234-.0703-.0469-.0625-.0938-.1172-.1406-.1641-.0313-.0624-.0703-.125-.1172-.1874-.1094-.1094-.1719-.1719-.1875-.1876 0-.0156-.0156-.0312-.0469-.0468-.1563-.125-.2656-.2032-.3281-.2344-.0469-.0469-.086-.1016-.1172-.1641-.1719-.0781-.3125-.1406-.4219-.1875-.1562-.0781-.2344-.125-.2344-.1406.0157-.0312.0157-.0469 0-.0469l-.3047-.0937c-.125-.0625-.2031-.1094-.2343-.1406zm13.6406 9.9844c-.0937-.0156-.1953-.0313-.3046-.0469-.1094 0-.2032.0235-.2813.0703-.0937-.0312-.1875-.039-.2813-.0234-.0781.0313-.1562.0547-.2343.0703-.2188.0156-.3516.0156-.3985 0-.0468 0-.0937 0-.1406 0l-.375.0234c-.0625.0157-.1172.0235-.164.0235-.0313.0156-.086.0156-.1641 0l-.2578-.0235c-.125 0-.1953-.0078-.211-.0234-.0156 0-.039 0-.0703 0-.1094.0156-.2109.0156-.3047 0-.0781 0-.1562 0-.2343 0h-.3985c-.0781-.0156-.1328-.0234-.164-.0234-.0313.0156-.0703.0156-.1172 0-.1094-.0313-.1953-.0703-.2578-.1172-.0469-.0313-.0938-.0625-.1407-.0938-.0937-.0468-.1406-.0859-.1406-.1172.0156-.0468-.0078-.0624-.0703-.0468.0313-.0625.0469-.1406.0469-.2344s-.0078-.1875-.0235-.2812c.0313-.2969.0313-.586 0-.8672v-.6563c.0469-.25.0703-.4062.0703-.4687.0313-.1875.0469-.2969.0469-.3282 0-.1562 0-.2422 0-.2578.0157-.1875.0313-.3125.0469-.375v-.7031c.0312-.125.0469-.2344.0469-.3281-.0157-.0938-.0157-.1719 0-.2344.0156-.0625.0234-.1328.0234-.2109-.0312-.1094-.0469-.211-.0469-.3047.0157-.0938.0235-.1953.0235-.3047v-.2813c0-.1406.0078-.2734.0234-.3984s.0156-.2734 0-.4453c-.0312-.0938-.0391-.1797-.0234-.2578.0156-.0938.0234-.2031.0234-.3281 0-.0782-.0078-.1563-.0234-.2344 0-.0938 0-.1875 0-.2813 0-.1719-.0078-.2969-.0235-.375-.0312-.2656-.0468-.4687-.0468-.6093.0156-.1563.0234-.3047.0234-.4454l-.0234-.3984c-.0157-.0625-.0313-.1094-.0469-.1406-.0156-.0469-.0235-.1016-.0235-.1641.0626-.2031.086-.3437.0704-.4219 0-.0781 0-.1562 0-.2343v-.4688c0-.0937 0-.1875 0-.2812.0156-.1094.0234-.211.0234-.3047-.0156-.1875-.0312-.3828-.0469-.586 0-.2031.0078-.3906.0235-.5625-.0469-.0625-.0704-.125-.0704-.1875.0157-.0781.0235-.1562.0235-.2343 0-.1719-.0078-.2579-.0235-.2579 0-.0156 0-.0312 0-.0468-.0156-.1094-.0234-.211-.0234-.3047-.0156-.1719-.0156-.2735 0-.3047s.0234-.0625.0234-.0938c0-.0624-.0078-.125-.0234-.1874-.0156-.0626-.0234-.1329-.0234-.211.0156-.1094.0078-.2422-.0235-.3984 0-.0469 0-.0938 0-.1406.0157-.0469.0157-.1016 0-.1641 0-.1563-.0156-.2578-.0468-.3047-.0157-.0469-.0235-.0859-.0235-.1172 0-.1094-.0078-.2109-.0234-.3047 0-.0937 0-.1797 0-.2578l-.0234-.3047c-.0313-.1406-.0469-.2187-.0469-.2344.0156-.0156.0234-.039.0234-.0703-.0156-.0781-.0312-.1406-.0469-.1875-.0156-.0625-.0234-.1172-.0234-.164.0156-.1719.0156-.2656 0-.2813 0-.0156 0-.039 0-.0703l.0469-.3047c.0312-.0312.0625-.0625.0937-.0937.0313-.0313.0625-.0625.0938-.0938.0781-.0312.1562-.0468.2344-.0468.0937-.0157.1718-.0391.2343-.0704.1407-.0156.2578-.0234.3516-.0234.1094 0 .2031.0156.2812.0469.1563.0312.25.0469.2813.0469.0312-.0157.0625-.0235.0937-.0235.1407.0156.2422.0235.3047.0235s.1328.0078.211.0234c.1718.0156.289.0234.3515.0234.0781 0 .1563.0078.2344.0235l.2813.0468h.2343c.0625 0 .1172-.0078.1641-.0234l.375-.0469h.2812c.0469-.0156.1016-.0156.1641 0h.1406c.0469 0 .1094-.0156.1875-.0468.1406.0624.2188.0937.2344.0937s.0234.0156.0234.0469l.1641.2344c0 .0624-.0078.1171-.0234.164v.0938.3046c.0156.0938.0234.1797.0234.2579l-.0234.2812c-.0157.0625-.0235.125-.0235.1875 0 .0469-.0078.1016-.0234.1641-.0313.2812-.0625.4609-.0938.539.0313.0782.0391.1641.0235.2579-.0157.0937-.0235.1796-.0235.2578-.0156.1718-.0234.2656-.0234.2812.0156.0156.0234.0391.0234.0703l-.0234.375c-.0156.2031 0 .3672.0469.4922-.0157.1875-.0157.3125 0 .375.0156.0469.0078.0781-.0235.0938v.3515c0 .2188.0078.3516.0235.3985.0156.0312.0078.0703-.0235.1171v.7032c.0313.0937.0469.1875.0469.2812 0 .0625-.0078.125-.0234.1875-.0157.0625 0 .1328.0469.211-.0313.2656-.0547.5468-.0704.8437 0 .2813.0157.5469.0469.7969 0 .0469.0078.0937.0235.1406.0156.0469.0234.0859.0234.1172-.0156.0625-.0313.1172-.0469.1641 0 .0312-.0078.0703-.0234.1172v.3281c.0156.0312.0234.0625.0234.0937v.4453c.0156.1094.0156.2344 0 .375v.3985c0 .0625-.0078.125-.0234.1875v.1406c-.0157.0937-.0235.1719-.0235.2344.0157.0469.0235.0859.0235.1172.0156.1093.0156.2109 0 .3047-.0157.0937-.0235.1718-.0235.2343-.0156.0781-.0234.1641-.0234.2578.0156.0938.0156.1797 0 .2579 0 .0312-.0078.0781-.0234.1406v.1406.4219c.0156.1406.0156.2812 0 .4219.0156.2031.0234.3359.0234.3984-.0312.1719-.0391.2812-.0234.3281.0156.0469.0234.1016.0234.1641-.0156.1406-.0234.2265-.0234.2578.0156.0156.0078.039-.0235.0703.0313.1406.0469.2187.0469.2344.0156 0 .0234.0078.0234.0234.0157.1875.0235.3203.0235.3985v.2578c.0469.1093.0625.1796.0469.2109-.0157.0313-.0079.0547.0234.0703-.0156.0781-.0156.1563 0 .2344.0312.0781.0547.1562.0703.2344 0 .1875.0078.3125.0234.375.0157.0468.0313.1093.0469.1875.0156.0468.0234.1093.0234.1875v.2109l-.0234.3281c0 .0782.0078.1328.0234.1641.0157.0312.0157.0859 0 .1641-.0312.1406-.0546.2187-.0703.2343-.0156.0157-.0234.0313-.0234.0469zm6.8204-18.5625c.0781.0156.1328.0469.164.0938.0469.0468.0938.0937.1406.1406.0782.2812.1172.4531.1172.5156v.4219c.0156.0469.0235.1172.0235.2109 0 .0781-.0079.1328-.0235.1641v.1172c-.0156.0468-.0234.0937-.0234.1406.0156.0469.0234.1015.0234.1641.0156.1406.0156.2734 0 .3984-.0468.1562-.0781.2422-.0937.2578l-.1641.2344c-.0625.0625-.1016.1094-.1172.1406s-.039.0547-.0703.0703c-.2031.0781-.3515.1328-.4453.1641-.0781.0156-.1562.0312-.2344.0468-.0468 0-.1328.0157-.2578.0469-.0312 0-.0781.0078-.1406.0235-.0469 0-.086 0-.1172 0-.1875.0156-.2812.0234-.2812.0234-.125-.0156-.1954-.0234-.211-.0234-.0156-.0157-.0312-.0235-.0469-.0235-.1718.0313-.289.0469-.3515.0469-.0625-.0156-.1328-.0312-.211-.0469-.1875 0-.3046 0-.3515 0-.0313-.0156-.0781-.0156-.1407 0-.2187-.0156-.3515-.0156-.3984 0h-.4687c-.1407-.1406-.2188-.2109-.2344-.2109 0 0-.0078-.0156-.0235-.0469l-.2109-.2109c0-.1719-.0234-.3516-.0703-.5391l-.0469-.4687v-.3047c0-.2188.0157-.375.0469-.4688 0-.1875.0156-.2969.0469-.3281.0312-.0469.0469-.0938.0469-.1406.0937-.1406.1484-.2266.164-.2578.0156-.0313.0391-.0625.0703-.0938l.4219-.1875c.1875-.0625.3047-.1015.3516-.1172.0468-.0156.0859-.0312.1172-.0469h.3515l.3281-.0703c.0625-.0156.125-.0312.1875-.0468.0782-.0157.1485-.0235.211-.0235.0469 0 .0937.0078.1406.0235h.1406.1407c.0468-.0157.1015-.0235.164-.0235.125 0 .2344.0078.3281.0235.1094.0156.2188.0078.3282-.0235.0468-.0156.1328-.0078.2578.0235.125.0156.2265.039.3047.0703zm.3515 17.9062c.0156.0782 0 .1407-.0469.1876-.0468.0312-.0625.0703-.0468.1171-.2188.0469-.3282.0703-.3282.0703-.125.0626-.2656.1094-.4218.1407-.125.0312-.2578.039-.3985.0234-.125 0-.2734-.0078-.4453-.0234-.1719.0156-.2969.0234-.375.0234-.0625 0-.125 0-.1875 0h-.3515c-.1563.0156-.2422.0235-.2579.0235-.1406 0-.2578.0078-.3515.0234-.0782.0312-.1328.0469-.1641.0469h-.3281l-.3281-.0703c-.0625 0-.125 0-.1875 0-.0625.0156-.1328.0156-.211 0-.0781-.0313-.1406-.0626-.1875-.0938-.0469-.0156-.1015-.0234-.164-.0234-.0782-.1719-.1172-.2657-.1172-.2813 0-.0312-.0078-.0547-.0235-.0703-.0468-.0781-.0703-.1484-.0703-.2109.0157-.0782.0235-.1485.0235-.211 0-.0469-.0078-.0937-.0235-.1406 0-.0469 0-.0859 0-.1172 0-.0469.0078-.0937.0235-.1406.0156-.0469.0234-.1016.0234-.1641.0156-.0625.0234-.1328.0234-.2109.0157-.0781.0313-.1563.0469-.2344.0156-.125.0235-.2187.0235-.2812 0-.0782 0-.1329 0-.1641.0156-.0469.0234-.0938.0234-.1406 0-.0625.0078-.125.0234-.1875.0156-.0938.0156-.1641 0-.211-.0156-.0625-.0234-.1171-.0234-.164 0-.0313 0-.0781 0-.1407.0156-.0624.0234-.1328.0234-.2109 0-.1094-.0078-.2109-.0234-.3047 0-.0937 0-.1875 0-.2812 0-.0782.0156-.1953.0469-.3516v-.3047c.0156-.1406.0234-.3125.0234-.5156s-.0078-.3906-.0234-.5625v-.2578c.0156-.1875.0234-.3281.0234-.4219.0156-.1094.0156-.2187 0-.3281 0-.0469-.0078-.086-.0234-.1172 0-.0469 0-.0938 0-.1406-.0157-.0782-.0235-.1485-.0235-.211s0-.1328 0-.2109c0-.0937-.0078-.1484-.0234-.1641 0-.0312 0-.0625 0-.0937v-.4219c-.0156-.1719-.0156-.2656 0-.2812.0156-.0313.0234-.0625.0234-.0938 0-.1875 0-.3047 0-.3516.0156-.0624.0235-.125.0235-.1874 0-.1563 0-.2422 0-.2579 0-.2656-.0079-.4297-.0235-.4921-.0468-.1563-.0703-.25-.0703-.2813v-.3516c0-.1406-.0078-.2265-.0234-.2578 0-.0469.0078-.1015.0234-.164 0-.1094-.0078-.2188-.0234-.3282 0-.1093 0-.2265 0-.3515-.0157-.1094-.0157-.1875 0-.2344.0156-.0469.0234-.0938.0234-.1406v-.6563c-.0312-.1875-.0312-.3906 0-.6093.0313-.1563.0625-.25.0938-.2813.0468-.1563.0781-.2422.0937-.2578.1406-.1875.2813-.3125.4219-.375.0781-.0313.1406-.0625.1875-.0938.0625-.0468.1094-.0703.1406-.0703.1406-.0312.2344-.0468.2813-.0468.1718-.0157.3437-.0157.5156 0 .1719.0156.3437.0078.5156-.0235.1406-.0156.2344-.0078.2813.0235.0468.0156.1015.0078.164-.0235.2032-.0156.3282-.0156.375 0h.1406c.125-.0312.211-.0391.2579-.0234h.4218c.0469 0 .1016.0078.1641.0234.0625 0 .1094.0156.1406.0469.0313-.0313.1172-.0469.2578-.0469.0469.0313.0782.0625.0938.0938.0312.0312.0781.0468.1406.0468.0625.1407.1172.2344.1641.2813.0469.1406.1015.289.164.4453.0313.0781.0469.1719.0469.2813 0 .1093.0078.2265.0234.3515v.1875c.0157.0625.0235.1172.0235.1641 0 .0781-.0078.1562-.0235.2343 0 .0782-.0078.1563-.0234.2344-.0156.2344-.0234.4297-.0234.586 0 .1406-.0078.2812-.0235.4218-.0156.0782-.0312.1563-.0468.2344v.2344c0 .0625.0078.125.0234.1875.0156.0469.0234.1015.0234.1641 0 .125-.0078.2578-.0234.3984-.0156.125-.0313.2578-.0469.3984-.0156.125-.0312.25-.0468.375-.0157.1094-.0235.2344-.0235.375v.1172c.0156.0469.0235.0938.0235.1406 0 .0782-.0079.1485-.0235.211v.1875.2343c.0156.0782.0156.1563 0 .2344 0 .0782-.0078.1563-.0234.2344-.0157.0625-.0235.1328-.0235.2109-.0156.125-.0156.25 0 .375.0157.125.0235.25.0235.375 0 .0782-.0078.1563-.0235.2344-.0156.0781-.0156.1563 0 .2344.0469.2656.0625.4453.0469.5391-.0156.0937-.0156.1953 0 .3046.0156.1719.0156.2891 0 .3516v.1172.6094c0 .1093-.0078.1953-.0234.2578.0625.1094.0781.2422.0469.3984-.0313.1406-.0157.2578.0468.3516-.0312.1094-.0468.2265-.0468.3515.0156.125.039.2344.0703.3282l.0234.6328c.0156.0937.0234.1953.0234.3047.0157.0937.0235.1796.0235.2578l-.0235.2578z" fill="#693821"/></svg>