<svg fill="none" height="51" viewBox="0 0 66 51" width="66" xmlns="http://www.w3.org/2000/svg" xmlns:xlink="http://www.w3.org/1999/xlink"><radialGradient id="a" cx="0" cy="0" gradientTransform="matrix(23.2833 0 0 28.0988 31.7765 -13.4594)" gradientUnits="userSpaceOnUse" r="1"><stop offset=".0675" stop-color="#d0a778"/><stop offset="1" stop-color="#8b674e"/></radialGradient><linearGradient id="b"><stop offset=".0675" stop-color="#f4b176"/><stop offset="1" stop-color="#a76c4b"/></linearGradient><radialGradient id="c" cx="0" cy="0" gradientTransform="matrix(42.8238 0 0 51.6808 33.1324 -8.18254)" gradientUnits="userSpaceOnUse" r="1" xlink:href="#b"/><radialGradient id="d" cx="0" cy="0" gradientTransform="matrix(35.2782 0 0 13.2245 14.0166 1.98009)" gradientUnits="userSpaceOnUse" r="1" xlink:href="#b"/><radialGradient id="e" cx="0" cy="0" gradientTransform="matrix(322.165 0 0 123.948 -103.173 7.41416)" gradientUnits="userSpaceOnUse" r="1" xlink:href="#b"/><radialGradient id="f" cx="0" cy="0" gradientTransform="matrix(321.485 0 0 123.676 -102.954 7.28052)" gradientUnits="userSpaceOnUse" r="1" xlink:href="#b"/><radialGradient id="g" cx="0" cy="0" gradientTransform="matrix(322.088 0 0 117.561 -103.146 7.06125)" gradientUnits="userSpaceOnUse" r="1" xlink:href="#b"/><radialGradient id="h" cx="0" cy="0" gradientTransform="matrix(321.238 0 0 387.678 -103.148 7.05908)" gradientUnits="userSpaceOnUse" r="1" xlink:href="#b"/><radialGradient id="i" cx="0" cy="0" gradientTransform="matrix(26.0408 0 0 31.4267 -4.6939 2.37138)" gradientUnits="userSpaceOnUse" r="1" xlink:href="#b"/><radialGradient id="j" cx="0" cy="0" gradientTransform="matrix(156.652 0 0 57.1773 -49.5711 4.62505)" gradientUnits="userSpaceOnUse" r="1" xlink:href="#b"/><radialGradient id="k" cx="0" cy="0" gradientTransform="matrix(156.66 0 0 57.1806 -49.5706 4.62703)" gradientUnits="userSpaceOnUse" r="1" xlink:href="#b"/><radialGradient id="l" cx="0" cy="0" gradientTransform="matrix(13.8431 0 0 5.05267 -3.84965 2.77365)" gradientUnits="userSpaceOnUse" r="1" xlink:href="#b"/><radialGradient id="m" cx="0" cy="0" gradientTransform="matrix(13.8408 0 0 5.05185 -3.84578 2.77508)" gradientUnits="userSpaceOnUse" r="1" xlink:href="#b"/><radialGradient id="n" cx="0" cy="0" gradientTransform="matrix(48.9888 0 0 17.8807 2.4272 2.68589)" gradientUnits="userSpaceOnUse" r="1" xlink:href="#b"/><radialGradient id="o" cx="0" cy="0" gradientTransform="matrix(45.1202 0 0 16.4688 43.5899 3.77005)" gradientUnits="userSpaceOnUse" r="1" xlink:href="#b"/><radialGradient id="p" cx="0" cy="0" gradientTransform="matrix(45.122 0 0 16.4693 43.5894 3.76898)" gradientUnits="userSpaceOnUse" r="1" xlink:href="#b"/><radialGradient id="q" cx="0" cy="0" gradientTransform="matrix(28.2287 0 0 34.1276 32.9486 25.2373)" gradientUnits="userSpaceOnUse" r="1"><stop offset="0" stop-color="#efe8e1"/><stop offset=".9935" stop-color="#e9e5e1"/></radialGradient><radialGradient id="r" cx="0" cy="0" gradientTransform="matrix(41.7711 0 0 50.4104 65.1475 -3.57551)" gradientUnits="userSpaceOnUse" r="1" xlink:href="#b"/><radialGradient id="s" cx="0" cy="0" gradientTransform="matrix(40.285 0 0 48.6169 33.2232 34.7681)" gradientUnits="userSpaceOnUse" r="1"><stop offset="0" stop-color="#a76c4b"/><stop offset=".1976" stop-color="#ae724f"/><stop offset=".4771" stop-color="#c08359"/><stop offset=".804" stop-color="#de9e6a"/><stop offset="1" stop-color="#f4b176"/></radialGradient><radialGradient id="t" cx="0" cy="0" gradientTransform="matrix(38.2362 0 0 46.1444 -4.21247 6.06596)" gradientUnits="userSpaceOnUse" r="1" xlink:href="#b"/><radialGradient id="u" cx="0" cy="0" gradientTransform="matrix(.90357 0 0 1.03891 1.31322 32.1134)" gradientUnits="userSpaceOnUse" r="1" xlink:href="#b"/><radialGradient id="v" cx="0" cy="0" gradientTransform="matrix(.598533 0 0 .687849 1.30367 4.53252)" gradientUnits="userSpaceOnUse" r="1" xlink:href="#b"/><radialGradient id="w" cx="0" cy="0" gradientTransform="matrix(0 42.5736 -10.6705 0 -.0825 13.595)" gradientUnits="userSpaceOnUse" r="1" xlink:href="#b"/><radialGradient id="x" cx="0" cy="0" gradientTransform="matrix(0 42.5761 -10.6713 0 -.082378 13.5957)" gradientUnits="userSpaceOnUse" r="1" xlink:href="#b"/><radialGradient id="y" cx="0" cy="0" gradientTransform="matrix(0 388.693 -99.3571 0 -4.41818 -127.789)" gradientUnits="userSpaceOnUse" r="1" xlink:href="#b"/><radialGradient id="z" cx="0" cy="0" gradientTransform="matrix(0 388.685 -97.4206 0 -4.32186 -127.792)" gradientUnits="userSpaceOnUse" r="1" xlink:href="#b"/><radialGradient id="A" cx="0" cy="0" gradientTransform="matrix(0 388.69 -97.4207 0 -4.32029 -127.796)" gradientUnits="userSpaceOnUse" r="1" xlink:href="#b"/><radialGradient id="B" cx="0" cy="0" gradientTransform="matrix(0 388.621 -97.3931 0 -4.31122 -127.768)" gradientUnits="userSpaceOnUse" r="1" xlink:href="#b"/><radialGradient id="C" cx="0" cy="0" gradientTransform="matrix(0 32.2538 -8.0841 0 -.436115 -8.98358)" gradientUnits="userSpaceOnUse" r="1" xlink:href="#b"/><radialGradient id="D" cx="0" cy="0" gradientTransform="matrix(0 32.2526 -8.08401 0 -.435982 -8.98084)" gradientUnits="userSpaceOnUse" r="1" xlink:href="#b"/><radialGradient id="E" cx="0" cy="0" gradientTransform="matrix(0 189.052 -47.3855 0 -2.30729 -63.1445)" gradientUnits="userSpaceOnUse" r="1" xlink:href="#b"/><radialGradient id="F" cx="0" cy="0" gradientTransform="matrix(0 59.1188 -14.8172 0 -.697973 -.38989)" gradientUnits="userSpaceOnUse" r="1" xlink:href="#b"/><radialGradient id="G" cx="0" cy="0" gradientTransform="matrix(0 189.02 -49.7177 0 -2.65638 -59.329)" gradientUnits="userSpaceOnUse" r="1" xlink:href="#b"/><radialGradient id="H" cx="0" cy="0" gradientTransform="matrix(0 189.017 -49.7147 0 -2.65739 -59.3326)" gradientUnits="userSpaceOnUse" r="1" xlink:href="#b"/><radialGradient id="I" cx="0" cy="0" gradientTransform="matrix(34.6886 0 0 41.864 13.1001 50.5351)" gradientUnits="userSpaceOnUse" r="1" xlink:href="#b"/><radialGradient id="J" cx="0" cy="0" gradientTransform="matrix(321.77 0 0 123.773 -103.988 55.864)" gradientUnits="userSpaceOnUse" r="1" xlink:href="#b"/><radialGradient id="K" cx="0" cy="0" gradientTransform="matrix(322.09 0 0 127.13 -104.058 56.0996)" gradientUnits="userSpaceOnUse" r="1" xlink:href="#b"/><radialGradient id="L" cx="0" cy="0" gradientTransform="matrix(320.995 0 0 387.384 -104.065 55.6559)" gradientUnits="userSpaceOnUse" r="1" xlink:href="#b"/><radialGradient id="M" cx="0" cy="0" gradientTransform="matrix(322.101 0 0 117.558 -104.067 55.65)" gradientUnits="userSpaceOnUse" r="1" xlink:href="#b"/><radialGradient id="N" cx="0" cy="0" gradientTransform="matrix(26.0405 0 0 31.4261 -5.60946 50.9629)" gradientUnits="userSpaceOnUse" r="1" xlink:href="#b"/><radialGradient id="O" cx="0" cy="0" gradientTransform="matrix(156.648 0 0 58.7207 -50.4824 53.3522)" gradientUnits="userSpaceOnUse" r="1" xlink:href="#b"/><radialGradient id="P" cx="0" cy="0" gradientTransform="matrix(156.663 0 0 57.1815 -50.4889 53.2196)" gradientUnits="userSpaceOnUse" r="1" xlink:href="#b"/><radialGradient id="Q" cx="0" cy="0" gradientTransform="matrix(156.68 0 0 57.9483 -50.4913 53.2983)" gradientUnits="userSpaceOnUse" r="1" xlink:href="#b"/><radialGradient id="R" cx="0" cy="0" gradientTransform="matrix(13.8323 0 0 5.18483 -4.7619 51.3931)" gradientUnits="userSpaceOnUse" r="1" xlink:href="#b"/><radialGradient id="S" cx="0" cy="0" gradientTransform="matrix(48.9903 0 0 17.8811 1.51037 51.2817)" gradientUnits="userSpaceOnUse" r="1" xlink:href="#b"/><radialGradient id="T" cx="0" cy="0" gradientTransform="matrix(45.1268 0 0 16.4716 42.6733 52.3644)" gradientUnits="userSpaceOnUse" r="1" xlink:href="#b"/><radialGradient id="U" cx="0" cy="0" gradientTransform="matrix(45.1099 0 0 16.4646 42.6796 52.3638)" gradientUnits="userSpaceOnUse" r="1" xlink:href="#b"/><radialGradient id="V" cx="0" cy="0" gradientTransform="matrix(45.1285 0 0 16.4732 42.6717 52.3642)" gradientUnits="userSpaceOnUse" r="1" xlink:href="#b"/><radialGradient id="W" cx="0" cy="0" gradientTransform="matrix(143.558 0 0 53.812 -10.5632 49.8231)" gradientUnits="userSpaceOnUse" r="1" xlink:href="#b"/><radialGradient id="X" cx="0" cy="0" gradientTransform="matrix(156.684 0 0 57.1891 -47.3304 53.4523)" gradientUnits="userSpaceOnUse" r="1" xlink:href="#b"/><radialGradient id="Y" cx="0" cy="0" gradientTransform="matrix(73.9146 0 0 29.1669 -3.97328 50.4507)" gradientUnits="userSpaceOnUse" r="1" xlink:href="#b"/><radialGradient id="Z" cx="0" cy="0" gradientTransform="matrix(.0612947 42.41455571 -11.85978762 .01713898 64.0368 4.91432)" gradientUnits="userSpaceOnUse" r="1" xlink:href="#b"/><radialGradient id="aa" cx="0" cy="0" gradientTransform="matrix(29.1179 0 0 35.1403 64.4582 45.5929)" gradientUnits="userSpaceOnUse" r="1" xlink:href="#b"/><radialGradient id="ab" cx="0" cy="0" gradientTransform="matrix(.5479464 387.1146122 -106.08389373 .15015782 59.2634 -135.9)" gradientUnits="userSpaceOnUse" r="1" xlink:href="#b"/><radialGradient id="ac" cx="0" cy="0" gradientTransform="matrix(14.96627105 -.02943692 .03284808 16.7005677 64.9198 25.4161)" gradientUnits="userSpaceOnUse" r="1" xlink:href="#b"/><radialGradient id="ad" cx="0" cy="0" gradientTransform="matrix(.54845623 386.99761136 -106.06489349 .15031605 59.2703 -135.848)" gradientUnits="userSpaceOnUse" r="1" xlink:href="#b"/><radialGradient id="ae" cx="0" cy="0" gradientTransform="matrix(.54857386 387.08061128 -106.08989346 .15035148 59.2673 -135.886)" gradientUnits="userSpaceOnUse" r="1" xlink:href="#b"/><radialGradient id="af" cx="0" cy="0" gradientTransform="matrix(.0000493 .03589257 -.00954543 .00001311 64.4088 2.5177)" gradientUnits="userSpaceOnUse" r="1" xlink:href="#b"/><radialGradient id="ag" cx="0" cy="0" gradientTransform="matrix(.26680337 188.25981094 -51.59704818 .07312377 61.5585 -71.5054)" gradientUnits="userSpaceOnUse" r="1" xlink:href="#b"/><radialGradient id="ah" cx="0" cy="0" gradientTransform="matrix(.26683455 188.28181092 -51.60484818 .07313482 61.3531 -67.7025)" gradientUnits="userSpaceOnUse" r="1" xlink:href="#b"/><path d="m.452709 0-.452709.547839h65.8528l-.4527-.547839z" fill="url(#a)"/><path d="m1.32724 2.37197h.3839 62.43396.4093l1.3219-1.823142h-65.8528625l1.2784525 1.823142z" fill="url(#c)"/><g opacity=".46"><path d="m31.2158.546875h-5.1826c.8004.087626 1.7131.092238 2.4483.092238.8547 0 1.8434-.009224 2.7343-.092238z" fill="url(#d)" opacity=".46"/><path d="m18.2168.546481h.8656c-.2825-.004733-.5686-.009466-.8656 0z" fill="url(#e)" opacity=".46"/><path d="m2.89023 2.38612c.04709-.00473.09417-.0142.14488-.01893h-.17023c-.01086.0142-.00724.02366.02535.01893z" fill="url(#f)" opacity=".46"/><path d="m40.2447.695061c1.8108.049396 3.6325.004491 5.4469-.008981 1.4125-.008981 2.9227.013472 4.2881-.139205h-2.709c-.3767.00449-.7569.008981-1.1372.008981-1.5972.008981-3.1907.049395-4.7879.040414-.7098-.00449-1.4197-.022452-2.1295-.049395h-2.2708c.1449.008981.2861.013471.431.017962.9525.044905 1.9086.103281 2.8684.130224z" fill="url(#g)" opacity=".46"/><path d="m59.5411.626335c-.1919.085319-.6048.130224-.8837.166148-2.1911.291877-4.509.170638-6.787.175129 0-.004491 0-.004491 0-.004491.7533.008981 1.5175-.026943 2.2599-.071848.6121-.035923 1.2604-.076338 1.8326-.170638.0688-.008981.2173-.08981.1014-.112262-.1376-.026943-.2825-.049395-.4346-.067357h-3.0024c-.076.026943-.1412.071847-.0543.0943.4129.107771.9054.103281 1.3907.080829.1087-.004491.2246-.107772.0652-.103282-.3114.013472-.6229.013472-.909-.017962.7931-.049395 1.6768-.026942 2.4229.076339-.4672.053886-.9634.080828-1.4342.112262-.8294.049395-1.6841.085319-2.5279.058376-.2825-.008981-.5759-.026943-.8258-.080829-.2643-.058376-.2897-.139205-.0108-.1886.0615-.008981.1267-.017962.1919-.026943h-.5432c-.1485.049395-.221.116753-.1521.193091.1122.130224.507.18411.8981.206562-5.4687-.017962-10.9555-.049395-16.4242-.143695-2.8032-.044905-5.61.053886-8.4132-.022453-1.3943-.035924-2.7416-.143695-4.1432-.152676-.6591-.004491-1.3183-.004491-1.9738-.035924-.3766-.017962-.7352-.035924-1.101-.044905h-.8692c-.0217 0-.0434 0-.0652 0-1.5899.049395-3.1363.233505-4.7154.314334-1.6732.085319-3.3609.134715-5.02323.25596-.83298.05837-1.65872.13022-2.50257.17064-.80039.03592-1.6044.01796-2.40479-.00449-.64828-.02246-1.29293-.05389-1.94484-.04042-.34405.00898-.677248.03593-.999576.07185l.025351.03592c.764175-.07634 1.535585-.08083 2.372195-.0449 1.19877.0449 2.35409.06736 3.55286 0 1.37261-.08083 2.71987-.19309 4.0997-.25596 1.3038-.058376 2.6076-.103281 3.9042-.184109 1.3473-.080829 2.6583-.233506 4.0309-.251468.641-.008981 1.2495.044905 1.8833.071848.7062.031434 1.4269.031434 2.1368.035924 1.3871.013471 2.7452.134715 4.1323.170638.2933.008981.5867.013472.8801.013472-.7715.022452-1.5465.040414-2.3288.040414-1.3255 0-2.6438-.026943-3.9657.031434-.6193.026947-1.2241.080827-1.8434.107767-.1739.00899-.3441.01348-.5179.02246.3368-.03593.6338-.09879.8185-.215547.0217-.013471.0362-.040414-.0073-.053885-.6519-.18411-1.7855-.220034-2.5533-.125734-.0398.004491-.0833.022452-.1122.040414-.5686.004491-1.1119.076339-1.6443.170639-.0652.013471-.2209.094303-.0796.103283.7315.04939 1.4631.09879 2.2055.11226-1.206.01796-2.4156.01347-3.6216.02694-1.7457.02246-3.3899.22004-5.06674.3772-.80039.03593-1.58629.0943-2.36857.16615-.45271.01796-.90904.02245-1.36175.00898-.90542-.02694-1.68407-.19309-2.57138-.24697-.62293-.04042-1.25672-.03144-1.876029.02245l.039838.05837c.050703-.00898.097785-.01347.144867-.01347.532384-.04041 1.082874-.0449 1.622504-.01796.53963.02245 1.00683.10777 1.51024.17513s1.02493.0943 1.5537.10328c-.93077.08532-1.87241.15268-2.81766.20656-.54325.03144-1.09375.05389-1.64062.07634l.03984.05838c.15573-.01347.31146-.02245.45271-.03143 1.28207-.05389 2.5569-.13921 3.81362-.24698.26076-.02245.52152-.0494.78228-.07185.61568-.01347 1.23861-.05389 1.84705-.10328-1.74202.17513-3.41161.4266-5.10656.65112-.02535.00449-.0507.01796-.06156.03143h.17021c1.637-.19309 3.2414-.42659 4.8965-.59723.88007-.0943 1.771-.16615 2.67641-.20656.5759-.02695 1.1372-.02246 1.6986-.00898-.268.01347-.5324.02694-.7896.0449-.9054.05389-1.81441.11226-2.6981.20656-1.04666.11226-2.04624.27841-3.01323.45803-.02897.00449-.05432.03593-.00362.02695.86196-.14819 1.74565-.27841 2.65469-.3817.77503-.08532 1.56096-.13022 2.35406-.18411 1.159-.07633 2.7344-.22452 3.7593.05838.3079.08532.1739.11675-.1231.15268-.3875.04939-.8004.06735-1.2024.08083-.6592.02694-1.3437.04041-2.01.02694.4056-.08981.8836-.1437 1.3617-.16166-.0797.02694-.1304.07634-.0398.08532.4165.03592.775.02245 1.1082-.08083.0507-.01347.1412-.07634.0326-.08532-.9416-.0943-2.1223.01796-2.8466.25596-.0363.01347-.1304.08083-.0218.08083.5578.00898 4.5633.0449 4.1468-.35475-.1412-.13471-.7786-.20207-1.1118-.22901-.1557-.01348-.3151-.01797-.4745-.02246-.0036 0-.0108-.00449-.0181-.00449-.21-.02245-.4273-.04041-.6482-.05388.181-.00449.3657-.00449.5468-.00898 1.3364-.00899 2.6547.04939 3.9839.05837 1.3653.00898 2.7307-.04939 4.0888-.08981 1.4378-.0449 2.8901-.06736 4.3352-.08532 1.0575-.01347 2.1295 0 3.1617.08532.4962.04491.9778.09879 1.474.12574.4889.03143 1.0105.00898 1.503-.00449 1.1372-.02695 2.2237-.04042 3.3537.02245 1.0865.06286 2.1476.08981 3.2486.08532 1.0503-.00449 2.1006-.02246 3.1509-.02695 1.1661-.00449 2.3142.04491 3.4731.05838 2.202.02694 4.4004-.07185 6.5987-.01347.3513.03143.7316.0449 1.072.05388.5433.01797 1.0974.01797 1.6407.0045 1.1191-.03144 2.1947-.17064 3.2377-.31434 1.1771-.16166 2.3288-.35026 3.5348-.484971 1.206-.134715 2.3577-.157167 3.6035-.130224.0689 0 .1811-.062867.1014-.071848-.9995-.121243-2.1114-.058376-3.111.035924-1.1517.107772-2.249.287389-3.3428.453539-1.1118.17064-2.2418.32781-3.4369.40414-.9779.06287-1.9412.03593-2.901-.01347.0435-.02694.0507-.05837-.0253-.05837-1.3727-.04042-2.7453-.02246-4.1215-.00449-1.4595.01796-2.8973.01796-4.3532-.01797-2.6909-.06286-5.3855.0943-8.0655-.05837-1.3219-.07634-2.5786-.0494-3.9078-.02246-1.3038.03144-2.5062-.1392-3.7919-.19309-1.2603-.04939-2.5424-.00449-3.8064.02246-1.3689.02694-2.7271.06735-4.0924.11226-1.2966.04041-2.5714.04939-3.8716.01796-1.1372-.03143-2.2744-.03592-3.4152-.01796-.833.01347-1.6624.05388-2.4917.08532 1.0611-.10328 2.1331-.21106 3.2341-.23351 1.3871-.02694 2.7742-.01347 4.1613-.03143.67-.00898 1.3364-.02694 1.9992-.05389.7207-.03143 1.4269-.08981 2.1549-.11675 1.3182-.0449 2.6474-.00898 3.9693-.01347 1.1408-.00449 2.2636-.049396 3.3971-.089811 1.2676-.049395 2.4591-.035924 3.7195.022453 2.3649.103278 4.7733.134718 7.1528.166148 4.7371.05838 9.4743-.00449 14.2114.08083 0 .00449.0073.00898.0254.00898 1.0177.02694 2.0136.02694 3.0277-.01347.8909-.04042 1.742-.1437 2.5822-.25596.8801-.121243 1.7493-.251467 2.6511-.345767.2173-.022453.4382-.040414.6591-.058376h-1.1806c-.5252.067357-1.0431.139205-1.5537.215543-.8873.125734-1.7819.25596-2.7271.31433-.9091.05838-1.8435.06736-2.7706.08532.0072-.01796-.0073-.03143-.0652-.03143-1.0249-.03143-2.0571-.0494-3.0857-.06287.0326 0 .0688-.00898.1014-.01796 2.2274.04042 4.48.13921 6.6386-.121242.4346-.049396 1.1154-.121243 1.3436-.287391.0507-.035924.0616-.067357.0435-.0943h-.4527c.1557.022452.2716.049395.21.076338zm-46.3827 1.257335c-.0906.00449-.1847 0-.2789-.00449.0942 0 .1883 0 .2789.00449zm4.3387-.86217c-.5468-.01347-1.0865-.049398-1.6225-.085322.402-.058376.8294-.107771 1.2604-.121243.3875.107772.8873.0943 1.3545.112262.1123.004491.239-.089809.1195-.0943-.2861-.008981-.5722-.008981-.8439-.031433.0182-.008981.0218-.022453-.0072-.026943-.0507-.004491-.1014-.008981-.1521-.013472.641-.031433 1.3871.008981 1.876.143696-.4382.170635-1.4414.130225-1.9847.116755zm28.6837.03143c-2.8575.00449-5.7114-.00449-8.5689-.062866-1.2821-.026943-2.5678-.044905-3.8498-.08981 2.4953.013472 4.987.053886 7.4823.080829 2.6076.026947 5.2152.049397 7.8265.067357-.9634.00449-1.9268.00449-2.8901.00449z" fill="url(#h)" opacity=".46"/><path d="m4.15564.697799c-.33681.044904-.65552.130224-.72795.264938-.22455.413123 4.49087.017962 5.0812-.080829.07606-.013471.24627-.089809.12676-.116752-.53601-.121243-1.26396-.103281-1.86154-.076338-.58671.026943-1.27845.0943-1.66597.269429-.02897.013471-.08692.049393-.07605.076333-.15574.0045-.31147.00899-.4672.00899-.23541 0-.72433.00898-.86196-.080833-.24989-.161657 2.15852-.296372 2.3722-.305353.60482-.031433 1.21688-.049395 1.82532-.040414.34406.00449.8185.00449 1.10461.085319.04708.013472.09778-.026943.09416-.035924-.02173-.049395-.11227-.085319-.23178-.107771h-3.05669c-.56498.022452-1.12634.067357-1.65511.139205zm2.62571.112262c.40201-.017962.88731-.026943 1.30018.022452-.63017.076338-1.34001.112262-1.96294.148186 0 0-.00362 0-.00725 0 .04346-.035924.05433-.071848-.03983-.062867-.19557.022453-.38752.026943-.58309.022453.37303-.08532.89093-.112262 1.29293-.130224z" fill="url(#i)" opacity=".46"/><path d="m3.2292.546875c-.50703.0943-.98872.202072-1.47764.305353-.4346.0943-.883689.175132-1.347263.242482l.028973.04042c1.10823-.152678 2.10781-.413126 3.19793-.588255z" fill="url(#j)" opacity=".46"/><path d="m12.3073.752854c1.2458 0 2.4808-.112262 3.6941-.202073h.0181-1.3038c-1.264.089811-2.5062.134716-3.7883.062867-.2897-.017962-.5758-.035924-.8619-.062867h-.98152c1.06112.098792 2.12952.202073 3.22332.202073z" fill="url(#k)" opacity=".46"/><path d="m3.09305 1.82071c.05433 0 .17384-.05389.09778-.06287-.51427-.07185-1.1046-.13471-1.65872-.12124-.19557.00449-.47081.01796-.709844.05388l.068811.0943c.724333-.0943 1.463153.04042 2.201973.03593z" fill="url(#l)" opacity=".46"/><path d="m2.01711 1.85885c-.22092-.10778-.55773-.10329-.84384-.03144-.02897.00449-.13038.06287-.03984.05838.22092 0 .402-.03143.5686.00449-.21006.03143-.42735.0449-.65914.04041-.01449 0-.03259 0-.050702 0l.076052.10777c.29698-.00449.59395-.04041.85109-.0943.05795-.01347.15211-.06286.09778-.08531z" fill="url(#m)" opacity=".46"/><path d="m28.3238 1.53392c-.4672-.16615-1.3509-.17064-1.9593-.17064-.833 0-1.6624.04491-2.4809.09879-2.01.12125-4.0599.30086-6.1097.29637-.0688 0-.1558.05838-.0761.06287 1.9267.03592 3.8861-.13471 5.773-.26045.8112-.05388 1.6261-.10328 2.4482-.12124.4201-.00898.8439-.00449 1.2604.01796.3802.02245.7062.08083 1.0647.12574.0543.00449.1195-.03593.0797-.0494z" fill="url(#n)" opacity=".46"/><path d="m62.2868 1.6022c.4527-.10777 1.0793-.12124 1.5972-.12573h.2897c-.0942.02694-.1666.08981-.0326.08981.3296.00449.6591.00449.9887.00449l.1304-.17962c-1.0974-.08981-2.4989-.06736-3.2812.20207-.0543.01796-.1123.05838-.029.07634.8583.17513 1.8796.30535 2.8865.30086l.076-.10328c-.9054.00898-1.8796-.10777-2.6257-.26494z" fill="url(#o)" opacity=".46"/><path d="m62.2398 1.12398c-1.6334.11675-3.2958.17962-4.8205.44006-.0289.0045-.0615.03593-.0072.02695 1.2893-.17962 2.6764-.23351 4.0345-.30985 1.1445-.06286 2.278-.15716 3.4442-.13022.1775.00449.3549.01347.5288.02694l.105-.14369c-1.0684-.080831-2.2853.01796-3.2848.08981z" fill="url(#p)" opacity=".46"/></g><path d="m64.0952 2.3125v45.7356h-62.3398v-45.7356h-.47806v46.2834h63.31766v-46.2834z" fill="#a76c4b"/><path d="m64.0952 2.3125v45.7356h-62.3398v-45.7356h-.47806v46.2834h63.31766v-46.2834z" fill="#a76c4b" opacity=".54"/><path d="m64.1644 2.33008h-62.43393v45.81192h62.43393z" fill="url(#q)"/><path d="m64.5508 2.37197h.0217v46.17113l1.3002 1.8187v-49.812972z" fill="url(#r)"/><path d="m64.5544 48.543h-63.22716-.02535l-1.2784525 1.8186h65.8528625l-1.3002-1.8186z" fill="url(#s)"/><path d="m1.30189 2.37197-1.2784525-1.823142v49.812972l1.2784525-1.8187z" fill="url(#t)"/><g opacity=".42"><path d="m1.30078 30.6426v2.9368c.0076-.3009.01521-.5973.01901-.8936.0076-.6691.0076-1.3652-.01901-2.0432z" fill="url(#u)" opacity=".42"/><path d="m1.30078 3.55859v1.94438c.00761-.64663.00761-1.29775 0-1.94438z" fill="url(#v)" opacity=".42"/><path d="m1.25713 26.6842c-.24989 1.0867-.25713 2.9906-.25713 4.3647 0 1.4594.01449 3.2422.19194 4.5579.01087.0853.07244.2829.08692.1122.00725-.0943.01449-.1931.02173-.2874v-1.85c-.01448.5343-.03621 1.0687-.07967 1.5761-.11589-1.2169-.13038-2.6583-.13038-3.9157 0-1.2394.00362-2.9906.21005-4.0459v-.5254c-.01448-.0269-.03259-.0314-.04346.0135z" fill="url(#w)" opacity=".42"/><path d="m1.24947 29.6772c-.04708.8666-.0507 1.7423-.04346 2.6269 0 .0853.05795.2066.05795.1033.00362-.6466.00724-1.2933.03259-1.9309.00363.0539.00363.1122.00363.1661v-.9654c-.01811-.0584-.04709-.0943-.05071 0z" fill="url(#x)" opacity=".42"/><path d="m.0345182 13.2159c.044323-.6107.0369358-1.2978-.0110807-1.9444v1.9983c.0073872-.009.0110807-.0225.0110807-.0539z" fill="url(#y)" opacity=".42"/><path d="m.704311 42.0746c.02173-1.5492.039838-3.0985.072433-4.6432-.010865 3.0086-.047082 6.0173-.068812 9.0259-.007243.9834-.014486 1.9713-.018108 2.9547l.08692-.1212c.018108-3.5744.04346-7.1489.083298-10.7143.039839-3.3858-.04346-6.7717.02173-10.153.032595-1.6794.119518-3.3095.126758-5.0024.00362-.7993.00724-1.5896.0326-2.3844.02535-.8353.0507-1.6076.03259-2.4518-.03984-1.9175-.191948-3.7855-.260759-5.6895-.072434-2.0207-.112272-4.0549-.210057-6.06214-.050703-1.00587-.10865-2.00276-.141245-3.01761-.028973-.88014-.018108-1.76027 0-2.64041l-.032595-.0449c-.02173 1.14058-.025352 2.25871.02173 3.41277.06519 1.65699.159353 3.27805.213678 4.94851.047082 1.57168.08692 3.14788.15211 4.71048.068812 1.6256.191948 3.2062.210058 4.8632.00724.7769-.036218 1.5088-.061569 2.2722-.025352.8532-.025352 1.7199-.032595 2.5776-.014487 1.6749-.112272 3.3139-.141245 4.9889-.007244.3547-.010865.705-.014487 1.0597-.018108-.934-.032595-1.8635-.032595-2.811 0-1.5986.02173-3.1927-.025352-4.7824-.02173-.7454-.06519-1.4773-.090541-2.2272-.007244-.2066-.010865-.4177-.018109-.6242.028974.4041.083299.7678.177462.9879.010865.0269.032595.0404.04346-.009.15211-.7858.181081-2.1554.105028-3.0805-.003621-.0494-.018108-.1033-.032595-.1347-.003621-.6825-.061568-1.3426-.141245-1.9848-.010865-.0808-.079676-.2694-.08692-.0943-.039838.8802-.079676 1.7648-.094163 2.6584-.014487-1.4549-.010865-2.9143-.02173-4.3693-.02173-2.106-.181083-4.09079-.311463-6.116-.032595-.96545-.076055-1.91294-.137624-2.86043-.007243-.54335-.0108645-1.09119 0-1.63903.014487-.71399.076055-1.36062.13038-2.02072l-.047081-.067358c-.02173.237998-.04346.471498-.06519.718478-.0579468.60622-.0796768 1.23488-.0869202 1.87702-.0072433-.10328-.010865-.20656-.0181083-.30984v.73644c.0072433.10777.0144867.21554.02173.3278.010865.74093.04346 1.49085.0869195 2.23178-.0325945-.476-.0688112-.9475-.1086495-1.419v.79033c.0144867.17064.0253517.34127.0398383.51191.0760552 1.05976.1376232 2.13747.1702182 3.23315.02173.69607.02173 1.36957.007243 2.05217-.010865-.3233-.02173-.6422-.036216-.952-.047082-1.09119-.094164-2.19136-.1702185-3.2556-.0036217-.04041-.0072433-.07634-.010865-.11675v.943c.0289733.52539.0507033 1.05077.076055 1.58065.0651895 1.3965.1883265 3.296-.0470817 4.5354-.010865.0494-.0181083.0898-.0253516.1212v.3997c.0072433-.0045.0181083-.0135.0253516-.027.1122712-.1706.1702182-.9385.1883262-1.3381.010865-.1886.014487-.3817.018109-.5748 0-.0045.003621-.0135.003621-.0225.018109-.2559.032595-.5164.04346-.7813.003622.22.003622.4401.007244.6601.007243 1.6121-.039839 3.2017-.050704 4.8093-.007243 1.648.039839 3.296.076055 4.9306.036217 1.7378.054325 3.4891.068812 5.2314.010865 1.2753 0 2.5685-.072433 3.8169-.032595.5882-.076055 1.172-.101407 1.7692-.025352.5883-.007243 1.2215.003622 1.8142.025351 1.3696.036216 2.6853-.018109 4.0504-.050703 1.3112-.076055 2.591-.072433 3.9202.003622 1.2663.02173 2.5326.025352 3.8034.003621 1.1272-.02173 2.2408-.039839 3.3589l.10865-.1571c.003622-.274.007244-.5479.010865-.8218.054325-3.2511-.079676-6.5022.050704-9.7309.06519-1.5986.04346-3.1119.018108-4.715-.025352-1.5717.115893-3.0266.159353-4.5758.04346-1.5223.003622-3.067-.018108-4.5938-.025352-1.6525-.054325-3.2915-.094163-4.9395-.036217-1.5672-.04346-3.1029-.014487-4.6701.025352-1.3696.032595-2.7482.014487-4.1223-.014487-1.0058-.04346-2.0072-.072434-3.00858.08692 1.28428.17384 2.57308.19557 3.90668.025352 1.6705.010865 3.3499.025352 5.0249.007243.8083.02173 1.6121.047082 2.4159.025351.8711.076055 1.7243.094163 2.6.036217 1.5941.007243 3.1972.010865 4.7913.003622 1.3786.039838 2.7302.076055 4.0998.039838 1.5268.028973 2.9682-.018108 4.4905-.08692 2.856-.112272 5.7613-.137624 8.6307-.014486 1.5897-.018108 3.1748-.02173 4.7644l.08692-.1257c.003622-2.4788.018109-4.944.050704-7.4048zm-.02173-24.2801c.010865-.6601.039838-1.3112.068811-1.9578.050704.485.090542.9969.101407 1.5178-.08692.467-.079677 1.0687-.094163 1.6345-.003622.1347.076055.2874.079676.1437.007244-.3413.007244-.6915.025352-1.0149.007243.0225.018108.027.02173-.0089.003622-.0629.007243-.1213.010865-.1841.025352.7723-.007243 1.6704-.119515 2.2632-.137623-.5254-.10865-1.7379-.094163-2.3935z" fill="url(#z)" opacity=".42"/><path d="m1.05844 41.7818c-.03621 1.1541-.083294 2.3036-.105024 3.4622-.025351 1.2663-.02173 2.5371-.014487 3.8079l.101401-.1437c-.00724-.7768-.01086-1.5582-.00724-2.335.00724-1.9534.0833-3.8978.14124-5.8332.02536-.8352.05433-1.6794.10865-2.4922 0-.0269.00725-.1122.01811-.2335v-.8756c-.05794.5029-.09778 1.2124-.11227 1.41-.06157 1.0687-.09778 2.1554-.13038 3.2331z" fill="url(#A)" opacity=".42"/><path d="m1.2998 48.5422v-4.0774c-.04708 1.3876-.07605 2.7931-.08691 4.2031z" fill="url(#B)" opacity=".42"/><path d="m.800498 6.95003c.010865.08981.076054.30086.097784.15268.097784-.64663.083298-1.52677.061568-2.24525-.02173-.70949-.076055-1.54472-.22092-2.01173-.010865-.03593-.04346-.10778-.061568-.0943-.003622-.1886-.007244-.37721-.007244-.56581 0-.17512-.003621-.46701.010865-.70051l-.086919-.12573c-.076055 1.40552.141244 5.02934.206434 5.59065zm-.032595-2.94127c-.014487-.23799-.02173-.4715-.018108-.705.072432.44904.094162 1.07322.112271 1.56268.014486.48498.021729 1.06874-.018109 1.56718-.061568-.75889-.090541-1.61657-.123136-2.36648 0-.00449 0-.00449 0-.00898.025352.04939.057947.06286.047082-.0494z" fill="url(#C)" opacity=".42"/><path d="m.991995 4.01574c.025355.72746.039835 1.46839.036215 2.20034-.00362.41312-.00724.98791-.072432 1.33367-.010866.05389.02173.11676.032595.11227.119517-.08083.130387-.8038.137627-1.181.01449-.85768-.00724-1.73333-.03984-2.58203-.02897-.67357-.06157-1.35613-.119517-2.00276l-.101409-.14818c.068813.7993.119518 2.09705.126761 2.26769z" fill="url(#D)" opacity=".42"/><path d="m1.25925 19.0827c-.01086-1.5223-.10503-3.0176-.18109-4.504-.079675-1.5762-.123136-3.1254-.05794-4.7195.05794-1.43246.17022-2.82002.23179-4.25249.04708-1.12711.04346-2.24524-.02535-3.34092l-.05071-.07634c.01449.1886.02535.37271.0326.5658.13038 2.98618-.307853 5.80171-.304231 8.76995 0 1.5043.094166 2.9906.170221 4.459.07968 1.5717.12314 3.0985.07606 4.6971-.03622 1.3067-.10141 2.7706.01811 4.0369.03621.3952.0833.7769.13038 1.1496v-.7948c-.04708-.4446-.08692-.9071-.10141-1.41-.04346-1.5223.07244-3.0581.06157-4.5803z" fill="url(#E)" opacity=".42"/><path d="m.334892 27.9627c.007243.5074.003621 1.0193-.014487 1.5223-.018107.458-.065188.8532-.101403 1.2842-.003622.0629.028972.1437.039837.0943.137619-.5658.141241-1.63.141241-2.3664 0-1.0059-.039837-2.0073-.079675-2.9952-.105025-2.4294-.2535088-4.9036-.2498872-7.3734 0-.0673-.0325941-.1482-.0470803-.1212v1.6525c.0289725 1.7962.1303765 3.5969.2100505 5.3481.04708.9745.086917 1.9579.101404 2.9548z" fill="url(#F)" opacity=".42"/><path d="m1.2738 8.63065c-.00761 1.04629.0038 2.08355.0304 3.11645v-6.23733c-.0114 1.03281-.0266 2.0746-.0304 3.12088z" fill="url(#G)" opacity=".42"/><path d="m1.30221 2.36932-.01901-.03143c.0114.40414.01521.81278.01901 1.22141z" fill="url(#H)" opacity=".42"/></g><g opacity=".4"><path d="m23.9485 48.9162c.8982.3009 2.4773.3098 3.6181.3143 1.206 0 2.6873-.0179 3.7774-.2335.0688-.0135.2354-.0853.0905-.1033-.2607-.0314-.5287-.0583-.7967-.0763-1.2604-.2605-2.6475-.3188-4.078-.2784-.8403.0224-2.0427.0269-2.5859.3053-.0435.0135-.0869.0494-.0254.0719zm2.6692-.2739c1.0829-.036 2.1802-.0045 3.2016.1257-.297-.009-.594-.018-.891-.0225-.8076-.0089-1.6478.0045-2.4229.0943-.0652.009-.1992.0809-.0796.0899.7207.0583 1.445.0583 2.1766.0538.0724 0 .1738-.0718.0833-.0718-.536-.0045-1.072-.009-1.6008-.0359.6048-.036 1.2314-.036 1.8326-.027.6808.009 1.3907.0404 2.0462.1168-1.0104.1392-2.202.1572-3.245.1572-1.0648 0-2.5931-.0045-3.4551-.283.5396-.193 1.695-.1796 2.3541-.1975z" fill="url(#I)" opacity=".4"/><path d="m34.1409 48.4609c-.0036 0-.0072 0 0 0 .0471.0095.0978.0142.1485.0237h.0326c-.0616-.0095-.1195-.0189-.1811-.0237z" fill="url(#J)" opacity=".4"/><path d="m51.7989 50.328c.5433.0194 1.0974.0194 1.6406.0048.2101-.0048.4165-.0194.623-.034h-2.9336c.2282.0146.4563.0195.67.0292z" fill="url(#K)" opacity=".4"/><path d="m63.11 48.7409c-1.4015.0943-2.8176.2066-4.2518.1437-1.4088-.0629-2.7416-.247-4.1722-.2559-.6627-.0045-1.3255.0314-1.9774.0628-.6302.0315-1.2857.0539-1.9122.0988-.5541.0135-1.1119.0539-1.666.0674-.7279.0179-1.4595.0179-2.1911.0179-1.4197 0-2.8394-.0045-4.2591-.0089-2.7959-.0135-5.6824-.0629-8.3588-.3862h-.0326c2.6112.3457 5.3601.467 8.1307.4939 1.4088.0135 2.8212.018 4.2337.027.7279.0045 1.4595.0045 2.1875-.009.1992-.0045.4056-.0045.612-.009-1.3834.1437-2.7959.1572-4.2301.1662-1.5971.0089-3.1907.0493-4.7878.0404-1.6189-.009-3.2305-.0988-4.835-.1707-.6917-.0314-1.3907-.0673-2.0643-.1302-.1014-.009-1.3509-.1482-1.1662-.211.0652-.0225.058-.0854-.0471-.0539-.641.2065 1.1554.3502 1.4632.3727.8801.0763 1.7782.1212 2.6764.1616.9561.0449 1.9086.0988 2.872.1258 1.8108.0494 3.6325.0045 5.447-.009 1.6189-.009 3.3645.0224 4.882-.22.0579-.009.1231-.0584.1267-.0854.4093-.0134.8149-.0314 1.188-.0808.0326-.0045.0833-.0269.1158-.0494.4129 0 .8367-.0269 1.2314-.0449.7388-.0314 1.4777-.0584 2.2237-.0584.9634 0 1.8978.0898 2.8322.1707-.9851-.0629-2.0173-.0809-2.9988-.0943-1.1987-.0135-2.412.0134-3.5782.1257-.4346.0404-1.6804.1392-1.4595.3907.1123.1302.507.1841.8982.2065-5.4724-.0179-10.9592-.0494-16.4279-.1437-2.8032-.0449-5.6136.0539-8.4132-.0224-1.3943-.0359-2.7416-.1437-4.1432-.1527-.6591-.0045-1.3182-.0045-1.9738-.0359-.6917-.0314-1.3327-.0629-2.0317-.0404-1.5899.0494-3.1364.2335-4.7154.3143-1.6733.0853-3.36095.1347-5.0233.256-.83298.0583-1.65872.1302-2.50257.1706-.80039.0359-1.6044.018-2.40479-.0045-.64828-.0224-1.29656-.0494-1.948458-.0359-.097786.0045-.195571.0045-.293356.009l-.032595.0449c.554116-.027 1.122719-.0225 1.723919 0 1.19877.0449 2.35408.0673 3.55285 0 1.37262-.0809 2.71626-.1931 4.09973-.256 1.30377-.0584 2.60757-.1078 3.90417-.1841 1.3473-.0808 2.6583-.2335 4.0309-.2515.641-.0089 1.2495.0449 1.8833.0719.7062.0314 1.4269.0314 2.1368.0359 1.3871.0135 2.7452.1347 4.1323.1706.2933.009.5867.0135.8801.0135-.7715.0225-1.5465.0404-2.3288.0404-1.3255 0-2.6438-.0269-3.9657.0315-.6193.0269-1.2241.0808-1.8434.1077-.1739.009-.3441.0135-.5179.018.3368-.0359.6374-.0988.8185-.2155.0217-.0135.0362-.0405-.0073-.0539-.6519-.1841-1.7855-.2201-2.5533-.1258-.0398.0045-.0833.0225-.1086.0405-.5686.0044-1.1155.0763-1.6442.1706-.0652.0135-.2246.0943-.0797.1033.7316.0494 1.4631.0988 2.2056.1122-1.206.018-2.4157.009-3.6217.027-1.7456.0224-3.38988.22-5.06671.3772-.80039.0404-1.58629.0943-2.36857.1661-.04708 0-.09417.0045-.14125.0045h1.38348c.09778-.009.19195-.0135.28973-.0224-.07243.0089-.14124.0134-.21368.0224h.7352c.67726-.0628 1.36175-.1122 2.05711-.1437.57589-.0269 1.13719-.0224 1.69859-.009-.268.0135-.5324.027-.7895.0449-.5469.036-1.09379.0674-1.63704.1123h1.19154c.9959-.0718 2.2201-.1617 3.1472 0h.6121c-.2463-.0853-.699-.1347-.9634-.1527-.1557-.0089-.3151-.0179-.4744-.0224-.0036 0-.0109-.0045-.0181-.0045-.2101-.0225-.4274-.0404-.6483-.0539.1811-.0045.3658-.0045.5469-.0045 1.3364-.009 2.6546.0494 3.9838.0584 1.3654.009 2.7307-.0494 4.0889-.0898 1.4414-.0449 2.8901-.0674 4.3351-.0853 1.0575-.0135 2.1295 0 3.1617.0853.4889.0404.9706.0898 1.4668.1212.4889.0315 1.0104.009 1.503-.0045 1.1372-.0269 2.2237-.0404 3.3537.0225 1.0865.0629 2.1476.0898 3.2486.0853 1.0503-.0045 2.1006-.0224 3.1508-.0269 1.1662-.0045 2.3143.0449 3.4732.0583 2.202.027 4.4003-.0718 6.5987-.0134.1304.0134.2644.0224.402.0269h2.9336c.8945-.0539 1.7673-.1661 2.6148-.2829 1.1771-.1617 2.3287-.3503 3.5348-.485 1.206-.1347 2.3577-.1571 3.6071-.1302.0652 0 .1811-.0629.1014-.0718-.9995-.1213-2.1114-.0584-3.111.0359-1.1517.1078-2.249.2874-3.3428.4535-1.1118.1707-2.2418.3278-3.4369.4042-.9779.0628-1.9413.0359-2.901-.0135.0435-.0269.0507-.0584-.0253-.0584-1.3727-.0404-2.7453-.0224-4.1215-.0045-1.4595.018-2.8973.018-4.3532-.0179-2.6946-.0629-5.3891.0943-8.0655-.0584-1.3219-.0763-2.5786-.0494-3.9078-.018-1.3038.0315-2.5062-.1392-3.7919-.1931-1.2603-.0494-2.5424 0-3.8063.0225-1.369.0269-2.7272.0673-4.0925.1123-1.2966.0404-2.5714.0493-3.8716.0179-1.1372-.0314-2.2744-.0359-3.4152-.0179-.833.0134-1.6624.0493-2.49174.0853 1.06114-.1033 2.13314-.2111 3.23414-.2335 1.3871-.027 2.7742-.0135 4.1613-.0315.67-.0089 1.3364-.0269 1.9992-.0539.7207-.0314 1.4305-.0898 2.1549-.1167 1.3182-.0449 2.6474-.009 3.9693-.0135 1.1408-.0045 2.2636-.0494 3.3971-.0898 1.2676-.0449 2.4591-.0314 3.7195.0225 2.3649.1032 4.7734.1347 7.1528.1661 4.7371.0584 9.4743-.0045 14.2114.0808 0 .0045.0073.009.0254.009 1.0177.027 2.0136.0315 3.0277-.0134.8909-.0405 1.742-.1437 2.5822-.256.8801-.1212 1.7493-.2515 2.6511-.3458.4455-.0449.8982-.0808 1.3545-.0988.4998-.0224.9742.0135 1.4668.009.0941 0 .3187-.0898.1811-.1122-.7244-.1123-1.7493-.036-2.4809.0269-.8945.0763-1.7492.2066-2.6003.3278-.8873.1257-1.7819.256-2.7272.3143-.909.0584-1.8434.0674-2.7705.0854.0072-.018-.0073-.0315-.0652-.0315-1.025-.0314-2.0571-.0494-3.0857-.0628.0326 0 .0688-.009.1014-.018 2.2273.0404 4.48.1392 6.6385-.1212.4346-.0539 1.1155-.1213 1.3437-.2874.2064-.1527-.2608-.2201-.6157-.256.105.009.2137.0135.3187.0225 1.2712.0808 2.5714.0044 3.8281-.0764.67-.0449 1.3545-.0763 2.0209-.1257.1376-.009.2716-.0225.4056-.0314l-.1014-.1437c-.5324.0404-1.0575.0763-1.5827.1122zm-46.5312.8802c-.5468-.0135-1.0865-.0494-1.6225-.0854.402-.0628.8294-.1077 1.2604-.1212.3875.1078.8873.0943 1.3545.1123.1123.0044.239-.0899.1195-.0943-.2861-.009-.5722-.009-.8402-.0315.0181-.009.0217-.0224-.0073-.0269-.0507-.0045-.1014-.009-.1521-.0135.641-.0314 1.3871.009 1.876.1437-.4382.1661-1.445.1302-1.9883.1168zm28.6873.0314c-2.8575.0045-5.7114-.0045-8.5689-.0629-1.2821-.0269-2.5678-.0449-3.8498-.0898 2.4953.0135 4.987.0539 7.4824.0808 2.6076.027 5.2152.0494 7.8264.0674-.9634 0-1.9268.0045-2.8901.0045zm13.3567-.4266c-.1919.0853-.6048.1302-.8837.1661-2.1911.2919-4.509.1752-6.787.1752v-.0045c.7533.009 1.5175-.027 2.2599-.0719.6121-.0359 1.2604-.0763 1.8326-.1706.0688-.009.2173-.0898.1014-.1123-.9779-.1796-2.3215-.2065-3.3645-.0853-.087.009-.2391.0808-.1268.1123.4129.1077.9054.1033 1.3907.0808.1087-.0045.2246-.1078.0652-.1033-.3114.0135-.6229.0135-.909-.0179.7931-.0494 1.6768-.027 2.4229.0763-.4672.0539-.9634.0808-1.4342.1123-.8294.0494-1.6841.0853-2.5279.0583-.2825-.0089-.5759-.0269-.8258-.0808-.2643-.0584-.2897-.1437-.0108-.1886.2752-.0449.5831-.0808.8764-.1078 1.235-.1302 2.5497-.1437 3.8245-.1257 1.1444.018 2.3505.0494 3.4659.1482.058.0045.7642.0808.6302.1392z" fill="url(#L)" opacity=".4"/><path d="m1.57204 50.1112c.53963.0225 1.00682.1078 1.51023.1751.04708.0045.09416.009.14125.018h.91628c-.87282-.0314-1.63337-.1886-2.49533-.2425-.48168-.0269-.966985-.0269-1.448666-.0045l-.04346.0629c.470816-.0269.948876-.0314 1.419696-.009z" fill="url(#M)" opacity=".4"/><path d="m7.59507 49.4714c.07605-.0135.24627-.0898.12675-.1168-.536-.1212-1.26396-.1032-1.86153-.0763-.58671.0269-1.27845.0943-1.66597.2694-.02897.0135-.08692.0494-.07605.0764-.15573.0045-.31146.0089-.4672.0089-.2354 0-.72433.009-.86195-.0808-.2499-.1661 2.15851-.2964 2.37219-.3053.60119-.0315 1.21688-.0494 1.82532-.0404.34406.0044.81849.0044 1.1046.0853.04709.0134.09779-.027.09417-.036-.06519-.1436-.66639-.1571-.97785-.1661-.70985-.018-1.43418.009-2.13678.0449-.61931.0314-1.24223.0763-1.82894.1572-.33682.0449-.6519.1302-.72796.2649-.22816.4086 4.48724.018 5.0812-.0853zm-1.72754-.0719c.40201-.0179.88731-.0269 1.30018.0225-.63017.0763-1.34002.1123-1.96294.1482-.00362 0-.00362 0-.00724 0 .03983-.0315.0507-.0719-.04346-.0584-.1992.0225-.38752.0269-.58309.0225.37665-.0899.89093-.1168 1.29655-.1348z" fill="url(#N)" opacity=".4"/><path d="m31.5521 48.5358c.0507 0 .1195-.0369.105-.0553h-1.0575c.3079.0369.6229.0599.9525.0553z" fill="url(#O)" opacity=".4"/><path d="m11.3888 49.3446c1.2458 0 2.4808-.1123 3.6941-.2021 1.3038-.0988 2.5677-.1482 3.8933-.0943 1.0828.0449 2.2961.1213 3.3464-.0224 1.0467-.1482 1.9883-.3817 3.0168-.5434h-.7098c-1.0612.1796-1.9847.4581-3.1835.5074-1.2603.0539-2.5315-.0853-3.7955-.0763-1.2603.009-2.5025.1257-3.7303.2156-1.3038.0987-2.5895.1481-3.9114.0718-1.18789-.0718-2.33958-.2066-3.52387-.2784-1.17704-.0719-2.34684-.0449-3.46956.1078-.77142.1032-1.4704.2694-2.176624.4176-.079676.0179-.159353.0314-.242652.0494l-.04346.0628c1.155316-.22 2.256306-.4984 3.567346-.5837 2.47722-.1572 4.80958.3682 7.26872.3682z" fill="url(#P)" opacity=".4"/><path d="m20.6849 48.5806c.7895.0091 1.5718-.0364 2.3468-.1001h-1.2567c-.3549.0273-.7062.0546-1.0647.0728-.0218.0045-.058.0273-.0254.0273z" fill="url(#Q)" opacity=".4"/><path d="m1.8744 50.3029c-.40563-.0508-.84023-.0831-1.256723-.0692-.159354.0046-.365789.0138-.5649815.0323l-.0253517.0369z" fill="url(#R)" opacity=".4"/><path d="m25.005 50.0379c.4201-.009.8438-.0045 1.2603.0179.3803.018.7062.0808 1.0648.1213.0543.0045.1195-.036.0797-.0494-.4672-.1662-1.3509-.1707-1.9594-.1707-.833 0-1.6623.0494-2.4808.0988-1.3183.0809-2.6511.1886-3.9911.247h1.4414c.7171-.0449 1.4306-.0988 2.1368-.1482.8077-.0539 1.6225-.1033 2.4483-.1167z" fill="url(#S)" opacity=".4"/><path d="m61.3708 50.193c.4527-.1078 1.0793-.1212 1.5935-.1257h.2898c-.0942.0269-.1666.0898-.0326.0898.5179.0045 1.0358.009 1.5537.009.1159 0 .3295-.0988.1666-.1213-1.13-.1527-2.9444-.1841-3.8788.1392-.0544.018-.1123.0584-.029.0764.0579.0134.1195.0224.1811.0359h.7316c-.1992-.0269-.3948-.0629-.5759-.1033z" fill="url(#T)" opacity=".4"/><path d="m61.3257 49.7183c-1.6334.1167-3.2957.1796-4.8204.44-.029.0045-.0616.0359-.0073.027 1.2893-.1797 2.6764-.2335 4.0346-.3099 1.1444-.0628 2.278-.1571 3.4442-.1302.5505.0135 1.0937.0629 1.5319.1886.0616.018.1123.0359.1558.0539l-.1775-.247c-.0471-.009-.0942-.018-.1413-.0269-1.206-.2156-2.7814-.0809-4.02.0045z" fill="url(#U)" opacity=".4"/><path d="m65.4551 50.2998h.3803c.0108-.0045.0253-.009.0362-.018l-.0978-.1392c-.0435.0584-.163.1123-.3187.1572z" fill="url(#V)" opacity=".4"/><path d="m47.9276 48.4805h-2.7996c-.7315.0092-1.4631.0092-2.1983 0h-2.1875c.4708.0184.9416.0323 1.4161.0415 1.9303.0415 3.8462.0092 5.7693-.0415z" fill="url(#W)" opacity=".4"/><path d="m9.08202 48.8192c-1.30742-.009-2.61485-.0314-3.92227-.0135-1.37986.018-2.74523.0988-4.03454.2829-.01087 0-.02535.0135-.00724.0135 2.56052-.3413 5.20796-.2245 7.86627-.1976 2.69456.0225 5.35286-.1437 7.94596-.3996.0724-.009.1449-.0135.2137-.0225h-.891c-.9887.0898-1.9883.1707-2.9951.229-1.3798.0809-2.7742.1168-4.17578.1078z" fill="url(#X)" opacity=".4"/><path d="m18.9528 48.5242c.134-.0146.2643-.0292.3983-.0437h-.3259c-.0181 0-.0362.0048-.0507.0048-.0362.0049-.0724.0437-.0217.0389z" fill="url(#Y)" opacity=".4"/></g><g opacity=".43"><path d="m65.9111 21.0812c-.0111-.5029-.0185-1.1091-.0517-1.675l.0074 4.6252c.0554-.9474.0665-1.9398.0443-2.9502z" fill="url(#Z)" opacity=".43"/><path d="m65.5624 17.9439c-.268 1.0822-.2753 2.9772-.2753 4.3468 0 1.4505.0181 3.2287.2173 4.5399.0109.0808.0797.2829.0942.1123.0289-.3144.0507-.6332.0688-.9565.0978-.6287.1593-1.2798.1992-1.9489l-.0073-4.6252c-.0362-.5748-.0978-1.1046-.2281-1.4324-.0181-.0584-.0507-.1123-.0688-.036zm.2499 3.2062c.0325 1.3023.0072 2.618-.1087 3.8484.0109-.3548.0145-.714.0181-1.0687.0073-.97-.0072-1.9803-.0869-2.9099-.0073-.0763-.0724-.2425-.0797-.0988-.0507.8622-.0543 1.7378-.0434 2.618 0 .0853.0651.2065.0651.0988.0037-.6422.0073-1.2888.0326-1.922.0363.723.0363 1.4774.029 2.2049-.0072.8217-.0326 1.6704-.1014 2.4608-.1268-1.2125-.1449-2.6449-.1485-3.8978-.0036-1.2798 0-3.1164.2463-4.1537.1666.6422.1593 2.0297.1775 2.82z" fill="url(#aa)" opacity=".43"/><path d="m65.9948 30.1895s-.0036-.0045 0 0c-.0435.4086-.0833.8263-.1159 1.2439v.211c.0326-.4894.0688-.9744.1159-1.4549z" fill="url(#ab)" opacity=".43"/><path d="m65.0455 29.7816c.0362-3.3679-.0579-6.7447.0073-10.1126.0326-1.6749.1267-3.296.1303-4.9799.0037-.7949.0037-1.5852.029-2.3755.029-.8307.0543-1.5986.0326-2.44283-.0471-1.90846-.2137-3.76752-.2897-5.66699-.0326-.79931-.058-1.60311-.0869-2.4069l-.0471.05837c.0398 1.21692.0797 2.43384.1376 3.64179.0761 1.62106.2137 3.19273.2354 4.84526.0109.7723-.0362 1.5043-.0616 2.2632-.0289.8487-.0253 1.7108-.0289 2.5685-.0109 1.6705-.1159 3.3005-.1449 4.9665-.0072.3503-.0109.705-.0109 1.0553-.0217-.9296-.0398-1.8591-.0398-2.7976 0-1.5941.0217-3.1793-.0362-4.7644-.0254-.7409-.0724-1.4729-.1014-2.2138-.0073-.2066-.0145-.4131-.0181-.6242.0326.4042.0905.7634.1955.9834.0145.027.0363.0449.0471-.009.1666-.7858.1956-2.14641.1087-3.06696-.0037-.04939-.0181-.10328-.0362-.13471-.0037-.68256-.0725-1.33817-.1558-1.97582-.0108-.08083-.0869-.26943-.0941-.0943-.0435.87565-.087 1.75578-.0978 2.64939-.0181-1.45043-.0145-2.90085-.0326-4.35128-.0109-.8981-.0507-1.77823-.1014-2.6449l-.0544.06736c.0363.6152.0652 1.23488.0761 1.86355.029 1.66597.0181 3.33643.0362 5.0024.0073.8038.0254 1.60757.0543 2.40237.029.8667.0833 1.7154.1087 2.5866.0435 1.5851.0109 3.1837.0181 4.7733.0072 1.3696.0471 2.7213.0869 4.0819.0435 1.5223.0362 2.9547-.0145 4.468-.0905 2.8425-.1159 5.7389-.1376 8.5948-.0362 4.3154-.0036 8.4376-.0181 12.753l.2101.2649c.0036-6.4573.0217-12.7574.0941-19.2282zm-.2281-20.68769c.0108-.65561.0398-1.30673.0724-1.95336.0543.48497.0978.99689.1123 1.5133-.0942.46701-.087 1.06424-.1014 1.62555-.0037.1347.0833.2874.0869.1437.0072-.3413.0072-.68705.0253-1.01036.0109.02245.0218.02694.0218-.00898.0036-.06287.0072-.12125.0108-.18411.029.76787-.0072 1.66595-.1267 2.25425-.1449-.5209-.1123-1.72887-.1014-2.37999zm.0181 34.46899c-.0073-3.4352-.0073-6.866.0398-10.2967.0217-1.5447.0362-3.085.0724-4.6252-.0072 2.9952-.0398 5.9948-.0615 8.99-.0218 3.1343-.0362 6.2687-.0471 9.403.0036-1.154 0-2.3126-.0036-3.4711z" fill="url(#ac)" opacity=".079507"/><path d="m65.211 49.0635c.0507-.3188.1267-.3458.1702-.0135.029.2201.0507.4536.0688.6871l.1123.1437c-.0471-.6422-.1413-1.6615-.3332-1.437-.0942.1078-.1412.4311-.1666.7993l.1086.1392c.0109-.1077.0218-.22.0399-.3188z" fill="url(#ad)" opacity=".43"/><path d="m65.5247 45.225c-.0036.8756-.0036 1.7513.0109 2.6269.0036.238.0072.485.0109.7364-.1304-1.6614-.1485-3.3588-.1594-5.0832-.0109-1.9174-.0507-3.8304-.0434-5.7523.0072-1.9444.0833-3.8798.1484-5.8062.0254-.8307.058-1.675.1159-2.4832.0073-.1213.134-1.6256.1884-1.4011.0181.0764.076.0674.047-.0584-.1883-.7678-.3114 1.3876-.3368 1.7603-.0652 1.0553-.105 2.1375-.1412 3.2152-.0399 1.1496-.0869 2.2947-.1087 3.4487-.0398 2.1779.0037 4.3648.0145 6.5426.0109 1.9444-.0145 4.046.2065 5.8646.0072.0674.0507.1482.076.1527.0073.3143.0181.6287.0362.934l.1268.1617c-.0145-.6242-.0471-1.2529-.058-1.877-.0144-.8757-.0181-1.7558-.0181-2.6315 0-1.7064-.0036-3.4127 0-5.1146.0073-2.9323.0362-5.9544.2354-8.8104v-.211c-.2354 2.82-.315 5.7523-.3368 8.707-.0072 1.6885-.0072 3.3859-.0145 5.0788z" fill="url(#ae)" opacity=".43"/><path d="m64.4212 2.53398c0-.00971 0-.01942 0-.03398l-.0228.03398z" fill="url(#af)" opacity=".43"/><path d="m65.5573 10.372c-.0109-1.51779-.1195-3.00414-.2028-4.48151-.087-1.49533-.1304-2.96372-.0761-4.47252l-.0942.11675c-.0181.43558-.0289.87116-.0253 1.31571.0036 1.49983.105 2.98169.1883 4.4366.0906 1.56718.1376 3.08497.0906 4.67907-.0363 1.2978-.1087 2.7617.0253 4.019.1087.9969.2608 1.913.3948 2.8649v-.7993c-.1521-.9969-.326-1.9488-.3658-3.1209-.0471-1.5133.076-3.04.0652-4.5578z" fill="url(#ag)" opacity=".43"/><path d="m65.7361 5.09746c-.0616-1.3696-.0978-2.74369-.1051-4.126757l-.0724.089807c.0145 2.47426.1268 4.92157.2897 7.32398v-1.23039c-.0434-.68255-.0833-1.36511-.1122-2.05664z" fill="url(#ah)" opacity=".43"/></g><path d="m8.52879 48.3178c6.61891-5.4748 15.24461-8.9338 24.73821-9.3279v-36.94693h-31.68302v46.27483z" fill="#0a6135"/><path d="m35.0845 38.9493c10.2102 0 19.5176 3.5434 26.5572 9.3669h2.6386v-46.27323h-31.0147v36.94693c.6036-.026 1.2088-.0406 1.8189-.0406z" fill="#fff"/><path d="m33.2637 48.3187h22.8345c-3.5397-1.2682-7.387-1.9671-11.4139-1.9671-4.0286 0-7.8792.6973-11.4206 1.9671z" fill="#fff"/><g fill="#d01739"><path d="m33.2656 38.9902c-9.4936.3941-18.1193 3.8532-24.73826 9.328h24.73826z"/><path d="m44.6846 46.3509c4.0268 0 7.8742.699 11.4139 1.9671h5.5415c-7.0395-5.8234-16.3486-9.3668-26.5571-9.3668-.6102 0-1.2154.0146-1.8173.0405v9.328c3.5398-1.2714 7.3904-1.9688 11.419-1.9688z"/></g></svg>