<svg fill="none" height="51" viewBox="0 0 66 51" width="66" xmlns="http://www.w3.org/2000/svg" xmlns:xlink="http://www.w3.org/1999/xlink"><radialGradient id="a" cx="0" cy="0" gradientTransform="matrix(23.2833 0 0 28.0988 31.7765 -13.4595)" gradientUnits="userSpaceOnUse" r="1"><stop offset=".0675" stop-color="#d0a778"/><stop offset="1" stop-color="#8b674e"/></radialGradient><linearGradient id="b"><stop offset=".0675" stop-color="#f4b176"/><stop offset="1" stop-color="#a76c4b"/></linearGradient><radialGradient id="c" cx="0" cy="0" gradientTransform="matrix(42.8238 0 0 51.6807 33.1324 -8.18253)" gradientUnits="userSpaceOnUse" r="1" xlink:href="#b"/><radialGradient id="d" cx="0" cy="0" gradientTransform="matrix(35.2782 0 0 13.2244 14.0205 1.98008)" gradientUnits="userSpaceOnUse" r="1" xlink:href="#b"/><radialGradient id="e" cx="0" cy="0" gradientTransform="matrix(322.164 0 0 123.943 -103.17 7.41385)" gradientUnits="userSpaceOnUse" r="1" xlink:href="#b"/><radialGradient id="f" cx="0" cy="0" gradientTransform="matrix(321.474 0 0 123.679 -102.948 7.28062)" gradientUnits="userSpaceOnUse" r="1" xlink:href="#b"/><radialGradient id="g" cx="0" cy="0" gradientTransform="matrix(322.088 0 0 117.561 -103.142 7.06123)" gradientUnits="userSpaceOnUse" r="1" xlink:href="#b"/><radialGradient id="h" cx="0" cy="0" gradientTransform="matrix(321.238 0 0 387.678 -103.146 7.05908)" gradientUnits="userSpaceOnUse" r="1" xlink:href="#b"/><radialGradient id="i" cx="0" cy="0" gradientTransform="matrix(26.0408 0 0 31.4267 -4.69194 2.37138)" gradientUnits="userSpaceOnUse" r="1" xlink:href="#b"/><radialGradient id="j" cx="0" cy="0" gradientTransform="matrix(156.652 0 0 57.1773 -49.5692 4.62505)" gradientUnits="userSpaceOnUse" r="1" xlink:href="#b"/><radialGradient id="k" cx="0" cy="0" gradientTransform="matrix(156.66 0 0 57.1804 -49.5706 4.62701)" gradientUnits="userSpaceOnUse" r="1" xlink:href="#b"/><radialGradient id="l" cx="0" cy="0" gradientTransform="matrix(13.8432 0 0 5.05269 -3.8477 2.77366)" gradientUnits="userSpaceOnUse" r="1" xlink:href="#b"/><radialGradient id="m" cx="0" cy="0" gradientTransform="matrix(13.8409 0 0 5.05188 -3.84581 2.77509)" gradientUnits="userSpaceOnUse" r="1" xlink:href="#b"/><radialGradient id="n" cx="0" cy="0" gradientTransform="matrix(48.9888 0 0 17.8807 2.42915 2.68589)" gradientUnits="userSpaceOnUse" r="1" xlink:href="#b"/><radialGradient id="o" cx="0" cy="0" gradientTransform="matrix(45.1205 0 0 16.4688 43.5917 3.7681)" gradientUnits="userSpaceOnUse" r="1" xlink:href="#b"/><radialGradient id="p" cx="0" cy="0" gradientTransform="matrix(45.122 0 0 16.4693 43.5933 3.76898)" gradientUnits="userSpaceOnUse" r="1" xlink:href="#b"/><radialGradient id="q" cx="0" cy="0" gradientTransform="matrix(28.2288 0 0 34.1276 32.9486 25.2373)" gradientUnits="userSpaceOnUse" r="1"><stop offset="0" stop-color="#efe8e1"/><stop offset=".9935" stop-color="#e9e5e1"/></radialGradient><radialGradient id="r" cx="0" cy="0" gradientTransform="matrix(41.7713 0 0 50.4104 65.1495 -3.57551)" gradientUnits="userSpaceOnUse" r="1" xlink:href="#b"/><radialGradient id="s" cx="0" cy="0" gradientTransform="matrix(40.285 0 0 48.6168 33.2233 34.7681)" gradientUnits="userSpaceOnUse" r="1"><stop offset="0" stop-color="#a76c4b"/><stop offset=".1976" stop-color="#ae724f"/><stop offset=".4771" stop-color="#c08359"/><stop offset=".804" stop-color="#de9e6a"/><stop offset="1" stop-color="#f4b176"/></radialGradient><radialGradient id="t" cx="0" cy="0" gradientTransform="matrix(38.2363 0 0 46.1444 -4.21248 6.06596)" gradientUnits="userSpaceOnUse" r="1" xlink:href="#b"/><radialGradient id="u" cx="0" cy="0" gradientTransform="matrix(.90335 0 0 1.0389 1.31321 32.1153)" gradientUnits="userSpaceOnUse" r="1" xlink:href="#b"/><radialGradient id="v" cx="0" cy="0" gradientTransform="matrix(.598119 0 0 .68785 1.30367 4.53448)" gradientUnits="userSpaceOnUse" r="1" xlink:href="#b"/><radialGradient id="w" cx="0" cy="0" gradientTransform="matrix(0 42.5736 -10.6707 0 -.082523 13.599)" gradientUnits="userSpaceOnUse" r="1" xlink:href="#b"/><radialGradient id="x" cx="0" cy="0" gradientTransform="matrix(0 42.5761 -10.6714 0 -.08239 13.5977)" gradientUnits="userSpaceOnUse" r="1" xlink:href="#b"/><radialGradient id="y" cx="0" cy="0" gradientTransform="matrix(0 388.693 -99.3712 0 -4.41881 -127.789)" gradientUnits="userSpaceOnUse" r="1" xlink:href="#b"/><radialGradient id="z" cx="0" cy="0" gradientTransform="matrix(0 388.685 -97.4207 0 -4.32187 -127.79)" gradientUnits="userSpaceOnUse" r="1" xlink:href="#b"/><radialGradient id="A" cx="0" cy="0" gradientTransform="matrix(0 388.69 -97.4221 0 -4.32037 -127.794)" gradientUnits="userSpaceOnUse" r="1" xlink:href="#b"/><radialGradient id="B" cx="0" cy="0" gradientTransform="matrix(0 388.622 -97.4052 0 -4.31191 -127.766)" gradientUnits="userSpaceOnUse" r="1" xlink:href="#b"/><radialGradient id="C" cx="0" cy="0" gradientTransform="matrix(0 32.2538 -8.08416 0 -.436122 -8.98162)" gradientUnits="userSpaceOnUse" r="1" xlink:href="#b"/><radialGradient id="D" cx="0" cy="0" gradientTransform="matrix(0 32.2526 -8.08387 0 -.434007 -8.98084)" gradientUnits="userSpaceOnUse" r="1" xlink:href="#b"/><radialGradient id="E" cx="0" cy="0" gradientTransform="matrix(0 189.052 -47.3844 0 -2.30721 -63.1426)" gradientUnits="userSpaceOnUse" r="1" xlink:href="#b"/><radialGradient id="F" cx="0" cy="0" gradientTransform="matrix(0 59.1188 -14.8176 0 -.697995 -.389889)" gradientUnits="userSpaceOnUse" r="1" xlink:href="#b"/><radialGradient id="G" cx="0" cy="0" gradientTransform="matrix(0 189.02 -49.7137 0 -2.65607 -59.3271)" gradientUnits="userSpaceOnUse" r="1" xlink:href="#b"/><radialGradient id="H" cx="0" cy="0" gradientTransform="matrix(0 189.017 -49.7132 0 -2.65728 -59.3307)" gradientUnits="userSpaceOnUse" r="1" xlink:href="#b"/><radialGradient id="I" cx="0" cy="0" gradientTransform="matrix(34.6886 0 0 41.8631 13.1021 50.5351)" gradientUnits="userSpaceOnUse" r="1" xlink:href="#b"/><radialGradient id="J" cx="0" cy="0" gradientTransform="matrix(321.759 0 0 123.788 -103.983 55.8649)" gradientUnits="userSpaceOnUse" r="1" xlink:href="#b"/><radialGradient id="K" cx="0" cy="0" gradientTransform="matrix(322.09 0 0 127.109 -104.058 56.1006)" gradientUnits="userSpaceOnUse" r="1" xlink:href="#b"/><radialGradient id="L" cx="0" cy="0" gradientTransform="matrix(320.995 0 0 387.384 -104.063 55.6539)" gradientUnits="userSpaceOnUse" r="1" xlink:href="#b"/><radialGradient id="M" cx="0" cy="0" gradientTransform="matrix(322.101 0 0 117.561 -104.067 55.6521)" gradientUnits="userSpaceOnUse" r="1" xlink:href="#b"/><radialGradient id="N" cx="0" cy="0" gradientTransform="matrix(26.0405 0 0 31.4261 -5.60947 50.961)" gradientUnits="userSpaceOnUse" r="1" xlink:href="#b"/><radialGradient id="O" cx="0" cy="0" gradientTransform="matrix(156.649 0 0 58.7177 -50.4828 53.35)" gradientUnits="userSpaceOnUse" r="1" xlink:href="#b"/><radialGradient id="P" cx="0" cy="0" gradientTransform="matrix(156.663 0 0 57.1814 -50.4889 53.2196)" gradientUnits="userSpaceOnUse" r="1" xlink:href="#b"/><radialGradient id="Q" cx="0" cy="0" gradientTransform="matrix(156.68 0 0 57.9442 -50.4914 53.296)" gradientUnits="userSpaceOnUse" r="1" xlink:href="#b"/><radialGradient id="R" cx="0" cy="0" gradientTransform="matrix(13.8323 0 0 5.18493 -4.7619 51.3931)" gradientUnits="userSpaceOnUse" r="1" xlink:href="#b"/><radialGradient id="S" cx="0" cy="0" gradientTransform="matrix(48.9903 0 0 17.8819 1.51039 51.2817)" gradientUnits="userSpaceOnUse" r="1" xlink:href="#b"/><radialGradient id="T" cx="0" cy="0" gradientTransform="matrix(45.1268 0 0 16.4716 42.6733 52.3644)" gradientUnits="userSpaceOnUse" r="1" xlink:href="#b"/><radialGradient id="U" cx="0" cy="0" gradientTransform="matrix(45.1098 0 0 16.4647 42.6796 52.3619)" gradientUnits="userSpaceOnUse" r="1" xlink:href="#b"/><radialGradient id="V" cx="0" cy="0" gradientTransform="matrix(45.1289 0 0 16.472 42.6715 52.366)" gradientUnits="userSpaceOnUse" r="1" xlink:href="#b"/><radialGradient id="W" cx="0" cy="0" gradientTransform="matrix(143.558 0 0 53.8132 -10.5651 49.8212)" gradientUnits="userSpaceOnUse" r="1" xlink:href="#b"/><radialGradient id="X" cx="0" cy="0" gradientTransform="matrix(156.684 0 0 57.1892 -47.3284 53.4523)" gradientUnits="userSpaceOnUse" r="1" xlink:href="#b"/><radialGradient id="Y" cx="0" cy="0" gradientTransform="matrix(73.9141 0 0 29.1675 -3.9731 50.4488)" gradientUnits="userSpaceOnUse" r="1" xlink:href="#b"/><radialGradient id="Z" cx="0" cy="0" gradientTransform="matrix(.0612947 42.41455571 -11.85638762 .01713406 64.0374 4.91236)" gradientUnits="userSpaceOnUse" r="1" xlink:href="#b"/><radialGradient id="aa" cx="0" cy="0" gradientTransform="matrix(29.1173 0 0 35.1403 64.4583 45.5929)" gradientUnits="userSpaceOnUse" r="1" xlink:href="#b"/><radialGradient id="ab" cx="0" cy="0" gradientTransform="matrix(.54862346 387.11561124 -106.10789344 .15037699 59.2599 -135.901)" gradientUnits="userSpaceOnUse" r="1" xlink:href="#b"/><radialGradient id="ac" cx="0" cy="0" gradientTransform="matrix(14.96637105 -.02943685 .03284779 16.7005677 64.9178 25.4161)" gradientUnits="userSpaceOnUse" r="1" xlink:href="#b"/><radialGradient id="ad" cx="0" cy="0" gradientTransform="matrix(.54845764 386.99861136 -106.06689348 .15031888 59.2682 -135.848)" gradientUnits="userSpaceOnUse" r="1" xlink:href="#b"/><radialGradient id="ae" cx="0" cy="0" gradientTransform="matrix(.54857386 387.08061128 -106.08889346 .15035006 59.2654 -135.886)" gradientUnits="userSpaceOnUse" r="1" xlink:href="#b"/><radialGradient id="af" cx="0" cy="0" gradientTransform="matrix(.00004936 .03589117 -.00954892 .00001313 64.4069 2.51575)" gradientUnits="userSpaceOnUse" r="1" xlink:href="#b"/><radialGradient id="ag" cx="0" cy="0" gradientTransform="matrix(.26680337 188.25981094 -51.59754818 .07312447 61.5565 -71.5054)" gradientUnits="userSpaceOnUse" r="1" xlink:href="#b"/><radialGradient id="ah" cx="0" cy="0" gradientTransform="matrix(.26683455 188.28181092 -51.60294818 .07313213 61.3513 -67.7025)" gradientUnits="userSpaceOnUse" r="1" xlink:href="#b"/><clipPath id="ai"><path d="m0 0h65.9941v50.3608h-65.9941z"/></clipPath><g clip-path="url(#ai)"><path d="m.452709 0-.452709.547839h65.8528l-.4527-.547839z" fill="url(#a)"/><path d="m1.32724 2.37196h.3839 62.43396.4093l1.3219-1.823132h-65.8528625l1.2784525 1.823132z" fill="url(#c)"/><g opacity=".46"><path d="m31.2197.546875h-5.1826c.8004.087625 1.7131.092237 2.4483.092237.8547 0 1.8434-.009224 2.7343-.092237z" fill="url(#d)" opacity=".46"/><path d="m18.2188.546481h.8655c-.2825-.004733-.5686-.009466-.8655 0z" fill="url(#e)" opacity=".46"/><path d="m2.89219 2.38612c.04708-.00473.09416-.0142.14486-.01893h-.17022c-.01086.0142-.00724.02366.02536.01893z" fill="url(#f)" opacity=".46"/><path d="m40.2486.695061c1.8108.049395 3.6325.004491 5.4469-.008981 1.4125-.008981 2.9227.013472 4.2881-.139205h-2.709c-.3767.00449-.7569.008981-1.1372.008981-1.5972.008981-3.1907.049395-4.7879.040414-.7098-.00449-1.4196-.022452-2.1295-.049395h-2.2708c.1449.008981.2861.013471.431.017962.9525.044905 1.9086.103281 2.8684.130224z" fill="url(#g)" opacity=".46"/><path d="m59.5431.626335c-.192.085319-.6049.130224-.8837.166148-2.1911.291877-4.509.170638-6.787.175129 0-.004491 0-.004491 0-.004491.7533.008981 1.5174-.026943 2.2599-.071848.612-.035923 1.2603-.076338 1.8325-.170638.0689-.008981.2173-.08981.1015-.112262-.1377-.026943-.2825-.049395-.4346-.067357h-3.0024c-.0761.026943-.1413.071847-.0543.0943.4128.107771.9054.103281 1.3907.080829.1086-.004491.2245-.107772.0652-.103282-.3115.013472-.623.013472-.9091-.017962.7932-.049395 1.6769-.026942 2.4229.076339-.4672.053886-.9633.080828-1.4341.112262-.8294.049395-1.6841.085319-2.528.058376-.2825-.008981-.5758-.026943-.8257-.080829-.2644-.058376-.2897-.139205-.0109-.1886.0616-.008981.1268-.017962.192-.026943h-.5433c-.1485.049395-.2209.116753-.1521.193091.1123.130224.507.18411.8982.206562-5.4687-.017962-10.9556-.049395-16.4243-.143695-2.8032-.044905-5.61.053886-8.4131-.022453-1.3944-.035924-2.7416-.143695-4.1432-.152676-.6592-.004491-1.3183-.004491-1.9738-.035924-.3767-.017962-.7352-.035924-1.101-.044905h-.8692c-.0217 0-.0435 0-.0652 0-1.5899.049395-3.1364.233505-4.7154.314334-1.6732.085319-3.3609.134715-5.02327.25596-.83299.05837-1.65873.13022-2.50258.17064-.80039.03592-1.6044.01796-2.40479-.00449-.64827-.02246-1.29293-.05389-1.94483-.04042-.34406.00898-.677255.03593-.999583.07185l.025352.03592c.764171-.07634 1.535591-.08083 2.372191-.0449 1.19877.0449 2.35409.06736 3.55286 0 1.37261-.08083 2.71987-.19309 4.09975-.25596 1.3038-.058376 2.6076-.103281 3.9041-.184109 1.3473-.080829 2.6583-.233506 4.031-.251468.641-.008981 1.2494.044905 1.8832.071848.7063.031434 1.427.031434 2.1368.035924 1.3871.013471 2.7452.134715 4.1323.170638.2934.008981.5867.013472.8801.013472-.7714.022452-1.5465.040414-2.3287.040414-1.3256 0-2.6439-.026943-3.9658.031434-.6193.026947-1.2241.080827-1.8434.107767-.1738.00899-.344.01348-.5179.02246.3368-.03593.6338-.09879.8185-.215547.0217-.013471.0362-.040414-.0072-.053885-.6519-.18411-1.7855-.220034-2.5533-.125734-.0398.004491-.0833.022452-.1123.040414-.5686.004491-1.1118.076339-1.6442.170639-.0652.013471-.2209.094303-.0797.103283.7316.04939 1.4632.09879 2.2056.11226-1.206.01796-2.4157.01347-3.6217.02694-1.7456.02246-3.3899.22004-5.06669.3772-.80039.03593-1.58629.0943-2.36857.16615-.45271.01796-.90904.02245-1.36175.00898-.90541-.02694-1.68407-.19309-2.57138-.24697-.62293-.04042-1.25672-.03144-1.876026.02245l.039838.05837c.050703-.00898.097785-.01347.144867-.01347.532381-.04041 1.082881-.0449 1.622511-.01796.53963.02245 1.00682.10777 1.51023.17513.50342.06736 1.02494.0943 1.5537.10328-.93077.08532-1.8724.15268-2.81766.20656-.54325.03144-1.09374.05389-1.64062.07634l.03984.05838c.15573-.01347.31147-.02245.45271-.03144 1.28207-.05388 2.5569-.1392 3.81362-.24697.26076-.02245.52152-.0494.78228-.07185.61568-.01347 1.23861-.05389 1.84705-.10328-1.74202.17513-3.41161.4266-5.10655.65112-.02535.00449-.05071.01796-.06157.03143h.17022c1.63699-.19309 3.24139-.42659 4.89649-.59723.88007-.0943 1.771-.16615 2.67646-.20656.5758-.02695 1.1372-.02246 1.6985-.00898-.268.01347-.5324.02694-.7895.0449-.9054.05389-1.81446.11226-2.69815.20656-1.04666.11226-2.04624.27841-3.01323.45803-.02897.00449-.05432.03593-.00362.02694.86196-.14818 1.74565-.27841 2.65469-.38169.77503-.08532 1.56091-.13022 2.35411-.18411 1.1589-.07633 2.7343-.22452 3.7593.05838.3078.08532.1738.11675-.1232.15268-.3875.04939-.8004.06735-1.2024.08083-.6591.02694-1.3436.04041-2.01.02694.4056-.08981.8837-.1437 1.3618-.16166-.0797.02694-.1304.07634-.0399.08532.4165.03592.7751.02245 1.1082-.08083.0508-.01347.1413-.07634.0326-.08532-.9416-.0943-2.1223.01796-2.8466.25596-.0362.01347-.1304.08083-.0217.08083.5577.00898 4.5633.0449 4.1468-.35475-.1413-.13471-.7787-.20207-1.1119-.22901-.1557-.01348-.315-.01797-.4744-.02246-.0036 0-.0109-.00449-.0181-.00449-.2101-.02245-.4274-.04041-.6483-.05388.1811-.00449.3658-.00449.5469-.00898 1.3364-.00899 2.6547.04939 3.9838.05837 1.3654.00898 2.7308-.04939 4.0889-.08981 1.4378-.0449 2.8901-.06736 4.3351-.08532 1.0576-.01347 2.1296 0 3.1617.08532.4962.04491.9779.09879 1.4741.12574.4889.03143 1.0104.00898 1.503-.00449 1.1372-.02695 2.2237-.04042 3.3536.02245 1.0865.06286 2.1477.08981 3.2487.08532 1.0502-.00449 2.1005-.02246 3.1508-.02695 1.1662-.00449 2.3143.04491 3.4732.05838 2.202.02694 4.4003-.07185 6.5987-.01347.3513.03143.7316.0449 1.072.05388.5432.01797 1.0974.01797 1.6406.0045 1.1191-.03144 2.1947-.17064 3.2378-.31434 1.177-.16166 2.3287-.35026 3.5347-.484971 1.206-.134715 2.3577-.157167 3.6036-.130224.0688 0 .1811-.062867.1014-.071848-.9996-.121243-2.1114-.058376-3.111.035924-1.1517.107772-2.2491.287389-3.3428.453539-1.1119.17064-2.2418.32781-3.437.40414-.9778.06287-1.9412.03593-2.9009-.01347.0434-.02694.0507-.05837-.0254-.05837-1.3726-.04042-2.7452-.02246-4.1214-.00449-1.4596.01796-2.8974.01796-4.3533-.01797-2.6909-.06286-5.3854.0943-8.0655-.05837-1.3219-.07634-2.5786-.0494-3.9077-.02246-1.3038.03144-2.5062-.1392-3.7919-.19309-1.2604-.04939-2.5424-.00449-3.8064.02246-1.369.02694-2.7271.06735-4.0925.11226-1.2965.04041-2.5714.04939-3.8716.01796-1.1372-.03143-2.2744-.03592-3.4152-.01796-.833.01347-1.6623.05388-2.4917.08532 1.0612-.10328 2.1332-.21106 3.2342-.23351 1.3871-.02694 2.7742-.01347 4.1613-.03143.67-.00898 1.3363-.02694 1.9991-.05389.7207-.03143 1.427-.08981 2.1549-.11675 1.3183-.0449 2.6474-.00898 3.9694-.01347 1.1408-.00449 2.2635-.049396 3.3971-.089811 1.2676-.049395 2.4591-.035924 3.7194.022453 2.365.103278 4.7734.134718 7.1528.166148 4.7372.05838 9.4743-.00449 14.2115.08083 0 .00449.0072.00898.0253.00898 1.0177.02694 2.0137.02694 3.0277-.01347.891-.04042 1.7421-.1437 2.5823-.25596.8801-.121243 1.7493-.251467 2.651-.345767.2173-.022453.4383-.040414.6592-.058376h-1.1807c-.5251.067357-1.043.139205-1.5537.215543-.8873.125733-1.7818.25596-2.7271.31433-.909.05838-1.8434.06736-2.7706.08532.0073-.01796-.0072-.03143-.0652-.03143-1.0249-.03143-2.0571-.0494-3.0856-.06287.0326 0 .0688-.00898.1014-.01796 2.2273.04042 4.48.13921 6.6385-.121242.4346-.049396 1.1155-.121243 1.3437-.287391.0507-.035924.0615-.067357.0434-.0943h-.4527c.1557.022452.2716.049395.2101.076338zm-46.3828 1.257335c-.0905.00449-.1847 0-.2788-.00449.0941 0 .1883 0 .2788.00449zm4.3388-.86217c-.5469-.01347-1.0865-.049398-1.6225-.085322.402-.058376.8293-.107771 1.2603-.121243.3875.107772.8873.0943 1.3545.112262.1123.004491.2391-.089809.1195-.0943-.2861-.008981-.5722-.008981-.8438-.031433.0181-.008981.0217-.022453-.0072-.026943-.0507-.004491-.1015-.008981-.1522-.013472.6411-.031433 1.3871.008981 1.8761.143696-.4383.170635-1.4415.130225-1.9847.116755zm28.6836.03143c-2.8575.00449-5.7114-.00449-8.5689-.062866-1.282-.026943-2.5677-.044905-3.8498-.08981 2.4953.013472 4.9871.053886 7.4824.080829 2.6076.026947 5.2152.049397 7.8264.067357-.9634.00449-1.9267.00449-2.8901.00449z" fill="url(#h)" opacity=".46"/><path d="m4.1576.697799c-.33682.044905-.65553.130224-.72796.264939-.22454.413122 4.49087.017961 5.0812-.080829.07606-.013472.24628-.08981.12676-.116753-.53601-.121243-1.26396-.103281-1.86154-.076338-.58671.026943-1.27845.0943-1.66597.269429-.02897.013471-.08692.049393-.07605.076343-.15573.00449-.31146.00898-.4672.00898-.2354 0-.72433.00898-.86195-.080832-.2499-.161658 2.15851-.296373 2.37219-.305354.60482-.031433 1.21688-.049395 1.82532-.040414.34406.004491.8185.004491 1.10461.085319.04708.013472.09779-.026943.09416-.035924-.02173-.049395-.11227-.085319-.23178-.107771h-3.05669c-.56498.022452-1.12634.067357-1.6551.139205zm2.62571.112262c.402-.017962.8873-.026943 1.30018.022452-.63018.076339-1.34002.112263-1.96295.148186 0 0-.00362 0-.00724 0 .04346-.035923.05432-.071847-.03984-.062866-.19557.022452-.38752.026942-.58309.022452.37303-.085319.89093-.112262 1.29294-.130224z" fill="url(#i)" opacity=".46"/><path d="m3.23115.546875c-.50703.0943-.98871.202072-1.47764.305353-.4346.0943-.883686.175132-1.34726.242482l.028973.04042c1.108227-.152678 2.107817-.413126 3.197937-.588255z" fill="url(#j)" opacity=".46"/><path d="m12.3073.752853c1.2458 0 2.4808-.112262 3.6941-.202072h.0181-1.3038c-1.264.08981-2.5062.134715-3.7883.062867-.2897-.017962-.5758-.035924-.8619-.062867h-.98152c1.06112.098791 2.12952.202072 3.22332.202072z" fill="url(#k)" opacity=".46"/><path d="m3.09501 1.82071c.05432 0 .17384-.05389.09778-.06287-.51428-.07185-1.10461-.13471-1.65872-.12124-.19557.00449-.47082.01796-.709851.05388l.068812.0943c.724329-.0943 1.463159.04042 2.201979.03593z" fill="url(#l)" opacity=".46"/><path d="m2.01712 1.85885c-.22092-.10778-.55774-.10329-.84385-.03144-.02897.00449-.13038.06287-.03984.05838.22092 0 .40201-.03143.5686.00449-.21005.03143-.42735.0449-.65914.04041-.01449 0-.03259 0-.050702 0l.076052.10778c.29698-.00449.59396-.04042.85109-.0943.05795-.01348.15211-.06287.09779-.08532z" fill="url(#m)" opacity=".46"/><path d="m28.3258 1.53392c-.4672-.16615-1.3509-.17064-1.9594-.17064-.833 0-1.6623.04491-2.4808.09879-2.01.12125-4.0599.30086-6.1098.29637-.0688 0-.1557.05838-.076.06287 1.9267.03592 3.886-.13471 5.7729-.26045.8113-.05388 1.6261-.10328 2.4483-.12124.4201-.00898.8438-.00449 1.2603.01796.3803.02245.7062.08083 1.0648.12574.0543.00449.1195-.03593.0797-.0494z" fill="url(#n)" opacity=".46"/><path d="m62.2888 1.60025c.4527-.10777 1.0792-.12124 1.5971-.12573h.2898c-.0942.02694-.1666.08981-.0326.08981.3295.00449.6591.00449.9887.00449l.1304-.17962c-1.0974-.08981-2.499-.06736-3.2813.20207-.0543.01796-.1122.05837-.0289.07634.8583.17513 1.8796.30535 2.8864.30086l.0761-.10328c-.9054.00898-1.8797-.10777-2.6257-.26494z" fill="url(#o)" opacity=".46"/><path d="m62.2437 1.12398c-1.6334.11675-3.2957.17962-4.8205.44007-.0289.00449-.0615.03592-.0072.02694 1.2893-.17962 2.6764-.23351 4.0345-.30985 1.1445-.06286 2.2781-.15716 3.4442-.13022.1775.00449.355.01347.5288.02694l.105-.14369c-1.0684-.080831-2.2852.01796-3.2848.08981z" fill="url(#p)" opacity=".46"/></g><path d="m64.0952 2.3125v45.7356h-62.3398v-45.7356h-.47806v46.2834h63.31766v-46.2834z" fill="#a76c4b"/><path d="m64.0952 2.3125v45.7356h-62.3398v-45.7356h-.47806v46.2834h63.31766v-46.2834z" fill="#a76c4b" opacity=".54"/><path d="m64.1644 2.33008h-62.43393v45.81192h62.43393z" fill="url(#q)"/><path d="m64.5527 2.37197h.0218v46.17113l1.3001 1.8187v-49.812972z" fill="url(#r)"/><path d="m64.5544 48.543h-63.22716-.02535l-1.2784525 1.8186h65.8528625l-1.3002-1.8186z" fill="url(#s)"/><path d="m1.30189 2.37197-1.2784525-1.823142v49.812972l1.2784525-1.8187z" fill="url(#t)"/><g opacity=".42"><path d="m1.30078 30.6445v2.9368c.0076-.3009.0152-.5972.019-.8936.0076-.6691.0076-1.3651-.019-2.0432z" fill="url(#u)" opacity=".42"/><path d="m1.30078 3.56055v1.94438c.0076-.64663.0076-1.29775 0-1.94438z" fill="url(#v)" opacity=".42"/><path d="m1.25714 26.6881c-.2499 1.0867-.25714 2.9906-.25714 4.3647 0 1.4594.01449 3.2422.19195 4.5579.01086.0853.07243.2829.08692.1122.00724-.0943.01449-.193.02173-.2874v-1.85c-.01449.5343-.03622 1.0687-.07968 1.5761-.11589-1.2169-.13038-2.6583-.13038-3.9157 0-1.2393.00362-2.9906.21006-4.0459v-.5254c-.01449-.0269-.0326-.0314-.04346.0135z" fill="url(#w)" opacity=".42"/><path d="m1.24947 29.6791c-.04708.8667-.0507 1.7423-.04346 2.627 0 .0853.05795.2065.05795.1032.00362-.6466.00724-1.2932.03259-1.9309.00363.0539.00363.1123.00363.1662v-.9655c-.01811-.0584-.04709-.0943-.05071 0z" fill="url(#x)" opacity=".42"/><path d="m.0345198 13.2159c.0443292-.6107.036941-1.2978-.0110823-1.9444v1.9982c.0073882-.0089.0110823-.0224.0110823-.0538z" fill="url(#y)" opacity=".42"/><path d="m.704311 42.0765c.02173-1.5492.039839-3.0984.072434-4.6431-.010865 3.0086-.047082 6.0172-.068812 9.0258-.007243.9835-.014487 1.9714-.018108 2.9548l.08692-.1213c.018108-3.5744.04346-7.1488.083298-10.7143.039838-3.3858-.04346-6.7716.02173-10.1529.032595-1.6795.119517-3.3095.126757-5.0024.00362-.7993.00724-1.5897.0326-2.3845.02535-.8352.0507-1.6076.03259-2.4518-.03984-1.9174-.191947-3.7855-.260759-5.6894-.072433-2.0208-.112271-4.05494-.210056-6.06219-.050704-1.00587-.108651-2.00276-.141246-3.01761-.028973-.88013-.018108-1.76027 0-2.6404l-.032595-.04491c-.02173 1.14059-.025351 2.25872.02173 3.41277.065191 1.65699.159354 3.27805.213679 4.94852.047082 1.57162.08692 3.14782.15211 4.71052.068812 1.6255.191947 3.2062.210057 4.8632.00724.7768-.036217 1.5088-.061569 2.2722-.025351.8532-.025351 1.7198-.032595 2.5775-.014486 1.675-.112271 3.314-.141245 4.9889-.007243.3548-.010865.7051-.014486 1.0598-.018109-.934-.032595-1.8636-.032595-2.811 0-1.5987.02173-3.1928-.025352-4.7824-.02173-.7454-.06519-1.4774-.090542-2.2273-.007243-.2066-.010865-.4176-.018108-.6242.028973.4042.083298.7679.177462.9879.010865.027.032595.0405.04346-.0089.15211-.7859.18108-2.1555.105028-3.0805-.003622-.0494-.018108-.1033-.032595-.1347-.003622-.6826-.061568-1.3427-.141245-1.9848-.010865-.0809-.079677-.2695-.08692-.0943-.039838.8801-.079677 1.7647-.094163 2.6583-.014487-1.4549-.010865-2.9143-.02173-4.3692-.02173-2.106-.181084-4.09083-.311464-6.11604-.032595-.96546-.076055-1.91295-.137623-2.86044-.007244-.54335-.0108654-1.09119 0-1.63903.014486-.71399.076055-1.36062.13038-2.020717l-.047082-.067357c-.02173.237994-.04346.471504-.06519.718474-.0579468.60622-.0796768 1.23489-.0869202 1.87703-.0072433-.10329-.010865-.20657-.0181083-.30985v.73644c.0072433.10777.0144867.21555.02173.32781.010865.74093.04346 1.49084.0869205 2.23177-.0325954-.47599-.0688121-.94749-.1086505-1.41899v.79032c.0144867.17064.0253517.34128.0398384.51192.0760551 1.05975.1376231 2.13747.1702181 3.23315.02173.69601.02173 1.36961.007244 2.05211-.010865-.3233-.02173-.6421-.036217-.9519-.047082-1.09123-.094163-2.1914-.1702185-3.25565-.0036217-.04041-.0072433-.07634-.010865-.11675v.943c.0289734.52539.0507034 1.05078.0760551 1.58065.0651904 1.39655.1883264 3.29605-.0470817 4.53535-.0108651.0494-.0181084.0899-.0253517.1213v.3996c.0072433-.0045.0181083-.0134.0253517-.0269.1122721-.1706.1702181-.9385.1883271-1.3382.010865-.1886.014486-.3817.018108-.5748 0-.0044.003622-.0134.003622-.0224.018108-.256.032595-.5164.04346-.7813.003621.22.003621.44.007243.6601.007243 1.612-.039838 3.2017-.050703 4.8093-.007244 1.648.039838 3.296.076055 4.9305.036216 1.7378.054325 3.4891.068811 5.2314.010865 1.2753 0 2.5686-.072433 3.8169-.032595.5883-.076055 1.1721-.101407 1.7693-.025351.5882-.007243 1.2214.003622 1.8142.025352 1.3695.036217 2.6853-.018108 4.0504-.050704 1.3112-.076055 2.591-.072434 3.9202.003622 1.2663.02173 2.5326.025352 3.8034.003622 1.1271-.02173 2.2408-.039838 3.3589l.10865-.1572c.003621-.2739.007243-.5478.010865-.8217.054325-3.2512-.079677-6.5023.050703-9.7309.06519-1.5986.04346-3.1119.018108-4.715-.025351-1.5717.115894-3.0266.159354-4.5758.04346-1.5223.003621-3.067-.018109-4.5938-.025351-1.6525-.054325-3.2915-.094163-4.9395-.036217-1.5672-.04346-3.103-.014487-4.6701.025352-1.3696.032595-2.7482.014487-4.1223-.014487-1.0059-.04346-2.00725-.072433-3.00863.08692 1.28423.17384 2.57303.19557 3.90673.025352 1.6705.010865 3.3499.025352 5.0248.007243.8083.02173 1.6121.047081 2.4159.025352.8712.076055 1.7244.094164 2.6.036216 1.5941.007243 3.1972.010865 4.7914.003621 1.3785.039838 2.7302.076055 4.0998.039838 1.5267.028973 2.9682-.018109 4.4905-.08692 2.8559-.112271 5.7613-.137623 8.6307-.014487 1.5896-.018108 3.1747-.02173 4.7644l.08692-.1258c.003622-2.4787.018108-4.944.050703-7.4048zm-.02173-24.28c.010865-.6601.039839-1.3112.068812-1.9579.050703.485.090542.9969.101407 1.5178-.08692.467-.079677 1.0688-.094164 1.6346-.003621.1347.076055.2873.079677.1436.007243-.3412.007243-.6915.025352-1.0148.007243.0225.018108.0269.02173-.009.003621-.0628.007243-.1212.010865-.1841.025351.7724-.007244 1.6705-.119515 2.2632-.137624-.5254-.10865-1.7378-.094164-2.3934z" fill="url(#z)" opacity=".42"/><path d="m1.05844 41.7838c-.03621 1.154-.083294 2.3036-.105024 3.4621-.025352 1.2664-.02173 2.5372-.014487 3.808l.101411-.1437c-.00725-.7769-.01087-1.5582-.00725-2.3351.00725-1.9533.0833-3.8977.14125-5.8331.02535-.8352.05432-1.6794.10865-2.4922 0-.027.00724-.1123.01811-.2335v-.8757c-.05795.503-.09779 1.2125-.11228 1.41-.06156 1.0688-.09778 2.1555-.13038 3.2332z" fill="url(#A)" opacity=".42"/><path d="m1.29981 48.5442v-4.0774c-.04708 1.3876-.07605 2.7931-.08692 4.2031z" fill="url(#B)" opacity=".42"/><path d="m.800499 6.95198c.010865.08981.076055.30086.097785.15268.097785-.64663.083299-1.52677.061569-2.24524-.02173-.7095-.076056-1.54473-.220922-2.01174-.010865-.03593-.04346-.10777-.061569-.0943-.003621-.1886-.007243-.3772-.007243-.5658 0-.17513-.003622-.46701.010865-.70052l-.08692-.12573c-.076055 1.40552.141245 5.02934.206435 5.59065zm-.032595-2.94127c-.014487-.23799-.02173-.4715-.018108-.705.072433.44905.094163 1.07322.112272 1.56269.014486.48497.021729 1.06873-.018109 1.56718-.061568-.7589-.090542-1.61658-.123137-2.36649 0-.00449 0-.00449 0-.00898.025352.0494.057947.06287.047082-.0494z" fill="url(#C)" opacity=".42"/><path d="m.993946 4.01574c.025354.72746.039834 1.46839.036214 2.20034-.00362.41312-.00724.98791-.072431 1.33367-.010865.05389.02173.11676.032595.11226.119516-.08082.130376-.80379.137626-1.18099.01448-.85768-.00725-1.73333-.03984-2.58203-.02897-.67357-.06157-1.35613-.119516-2.00276l-.101406-.14818c.068811.7993.119515 2.09705.126758 2.26769z" fill="url(#D)" opacity=".42"/><path d="m1.25924 19.0846c-.01086-1.5223-.10503-3.0176-.18108-4.5039-.079677-1.5762-.123137-3.1254-.05795-4.71955.05795-1.43246.17022-2.82002.23179-4.25248.04708-1.12712.04346-2.24525-.02535-3.34093l-.05071-.07633c.01449.1886.02536.37271.0326.5658.13038 2.98617-.307842 5.80171-.304221 8.76989 0 1.5043.094164 2.9907.170221 4.4591.07967 1.5716.12313 3.0984.07605 4.697-.03621 1.3068-.1014 2.7707.01811 4.037.03622.3951.0833.7768.13038 1.1495v-.7948c-.04708-.4445-.08692-.9071-.10141-1.41-.04346-1.5223.07244-3.058.06157-4.5803z" fill="url(#E)" opacity=".42"/><path d="m.334901 27.9627c.007243.5074.003622 1.0193-.014487 1.5223-.018108.458-.06519.8531-.101406 1.2842-.003622.0629.028973.1437.039838.0943.137623-.5658.141245-1.63.141245-2.3664 0-1.0059-.039838-2.0073-.079677-2.9952-.105028-2.4294-.2535165-4.9036-.2498948-7.3734 0-.0673-.032595-.1482-.0470817-.1212v1.6525c.0289734 1.7962.1303805 3.5969.2100565 5.3481.047082.9745.08692 1.9579.101407 2.9548z" fill="url(#F)" opacity=".42"/><path d="m1.2738 8.63261c-.0076 1.04628.0038 2.08359.0304 3.11639v-6.23728c-.0114 1.03281-.0266 2.0746-.0304 3.12089z" fill="url(#G)" opacity=".42"/><path d="m1.3022 2.37128-.019-.03144c.0114.40415.0152.81278.019 1.22142z" fill="url(#H)" opacity=".42"/></g><g opacity=".4"><path d="m23.9505 48.9162c.8982.3008 2.4772.3098 3.618.3143 1.206 0 2.6873-.0179 3.7774-.2335.0688-.0135.2354-.0853.0906-.1033-.2608-.0314-.5288-.0583-.7968-.0763-1.2603-.2605-2.6474-.3188-4.078-.2784-.8402.0224-2.0426.0269-2.5859.3053-.0434.0135-.0869.0494-.0253.0719zm2.6692-.2739c1.0828-.036 2.1802-.0045 3.2015.1257-.297-.009-.5939-.018-.8909-.0225-.8077-.0089-1.6479.0045-2.4229.0943-.0652.009-.1992.0809-.0797.0899.7207.0583 1.4451.0583 2.1766.0538.0725 0 .1739-.0718.0833-.0718-.536-.0045-1.072-.009-1.6007-.0359.6048-.036 1.2313-.036 1.8325-.027.6809.009 1.3907.0404 2.0463.1168-1.0105.1392-2.202.1571-3.2451.1571-1.0647 0-2.5931-.0044-3.455-.2829.5396-.1931 1.6949-.1796 2.3541-.1975z" fill="url(#I)" opacity=".4"/><path d="m34.1409 48.4609c-.0036 0-.0072 0 0 0 .0471.0095.0978.0142.1485.0237h.0326c-.0616-.0095-.1195-.0189-.1811-.0237z" fill="url(#J)" opacity=".4"/><path d="m51.7989 50.3299c.5433.0194 1.0974.0194 1.6406.0049.2101-.0049.4165-.0195.623-.034h-2.9336c.2282.0145.4563.0194.67.0291z" fill="url(#K)" opacity=".4"/><path d="m63.112 48.739c-1.4016.0943-2.8177.2065-4.2518.1437-1.4089-.0629-2.7416-.247-4.1722-.256-.6628-.0045-1.3255.0314-1.9774.0629-.6302.0314-1.2857.0539-1.9123.0988-.5541.0134-1.1118.0538-1.6659.0673-.728.018-1.4596.018-2.1912.018-1.4196 0-2.8393-.0045-4.259-.009-2.796-.0135-5.6824-.0629-8.3588-.3862h-.0326c2.6112.3458 5.36.467 8.1306.494 1.4088.0134 2.8213.0179 4.2337.0269.728.0045 1.4596.0045 2.1875-.009.1992-.0045.4057-.0045.6121-.0089-1.3835.1436-2.7959.1571-4.2301.1661-1.5972.009-3.1907.0494-4.7879.0404-1.6189-.009-3.2305-.0988-4.8349-.1706-.6917-.0315-1.3907-.0674-2.0644-.1302-.1014-.009-1.3508-.1482-1.1661-.2111.0652-.0225.0579-.0853-.0471-.0539-.641.2066 1.1553.3503 1.4631.3727.8801.0764 1.7783.1213 2.6765.1617.9561.0449 1.9086.0988 2.8719.1257 1.8109.0494 3.6326.0045 5.447-.009 1.6189-.0089 3.3646.0225 4.882-.22.058-.009.1232-.0584.1268-.0853.4092-.0135.8149-.0315 1.1879-.0808.0326-.0045.0833-.027.1159-.0494.4129 0 .8366-.027 1.2314-.0449.7388-.0315 1.4776-.0584 2.2237-.0584.9633 0 1.8977.0898 2.8321.1706-.9851-.0629-2.0172-.0808-2.9987-.0943-1.1988-.0135-2.4121.0135-3.5782.1257-.4346.0405-1.6805.1393-1.4596.3907.1123.1302.5071.1841.8982.2066-5.4723-.018-10.9592-.0494-16.4279-.1437-2.8032-.0449-5.6136.0539-8.4131-.0225-1.3944-.0359-2.7416-.1437-4.1432-.1526-.6592-.0045-1.3183-.0045-1.9738-.036-.6918-.0314-1.3328-.0628-2.0318-.0404-1.5899.0494-3.1363.2335-4.7154.3144-1.6732.0853-3.3609.1347-5.02325.2559-.83298.0584-1.65872.1302-2.50257.1707-.80039.0359-1.6044.0179-2.40479-.0045-.64828-.0225-1.29655-.0494-1.948455-.036-.097785.0045-.195571.0045-.293356.009l-.032595.0449c.554116-.0269 1.122716-.0224 1.723916 0 1.19877.0449 2.35408.0674 3.55286 0 1.37261-.0808 2.71625-.1931 4.09973-.2559 1.30381-.0584 2.60761-.1078 3.90411-.1841 1.3473-.0809 2.6584-.2336 4.031-.2515.641-.009 1.2494.0449 1.8832.0718.7063.0315 1.427.0315 2.1368.036 1.3871.0134 2.7452.1347 4.1323.1706.2934.009.5868.0135.8801.0135-.7714.0224-1.5464.0404-2.3287.0404-1.3256 0-2.6438-.027-3.9658.0314-.6193.027-1.2241.0808-1.8434.1078-.1738.009-.344.0135-.5179.018.3368-.036.6374-.0988.8185-.2156.0217-.0135.0362-.0404-.0072-.0539-.6519-.1841-1.7855-.22-2.5533-.1257-.0398.0045-.0833.0224-.1087.0404-.5686.0045-1.1154.0763-1.6442.1706-.0652.0135-.2245.0943-.0797.1033.7316.0494 1.4632.0988 2.2056.1123-1.206.0179-2.4156.009-3.6216.0269-1.7457.0225-3.38993.2201-5.06676.3772-.80039.0404-1.58629.0943-2.36857.1662-.04708 0-.09416.0045-.14124.0045h1.38347c.09779-.009.19195-.0135.28974-.0225-.07244.009-.14125.0135-.21368.0225h.7352c.67725-.0629 1.36174-.1123 2.0571-.1437.57584-.027 1.13724-.0225 1.69854-.009-.268.0135-.5324.0269-.7895.0449-.5469.0359-1.09374.0673-1.63699.1123h1.19149c.996-.0719 2.2201-.1617 3.1473 0h.612c-.2462-.0854-.699-.1348-.9633-.1527-.1558-.009-.3151-.018-.4745-.0225-.0036 0-.0108-.0045-.0181-.0045-.21-.0224-.4273-.0404-.6483-.0538.1811-.0045.3658-.0045.5469-.0045 1.3364-.009 2.6547.0494 3.9839.0583 1.3653.009 2.7307-.0494 4.0888-.0898 1.4414-.0449 2.8901-.0673 4.3352-.0853 1.0575-.0135 2.1295 0 3.1617.0853.4889.0404.9706.0898 1.4667.1213.489.0314 1.0105.009 1.503-.0045 1.1372-.027 2.2237-.0404 3.3537.0224 1.0865.0629 2.1477.0898 3.2486.0854 1.0503-.0045 2.1006-.0225 3.1509-.027 1.1662-.0045 2.3142.0449 3.4732.0584 2.202.0269 4.4003-.0719 6.5987-.0135.1303.0135.2643.0225.402.027h2.9335c.8946-.0539 1.7674-.1662 2.6149-.2829 1.177-.1617 2.3287-.3503 3.5347-.485s2.3577-.1572 3.6072-.1302c.0652 0 .1811-.0629.1014-.0719-.9996-.1212-2.1114-.0584-3.111.0359-1.1517.1078-2.2491.2874-3.3428.4536-1.1119.1706-2.2418.3278-3.437.4041-.9778.0629-1.9412.0359-2.9009-.0135.0434-.0269.0507-.0583-.0254-.0583-1.3726-.0404-2.7452-.0225-4.1214-.0045-1.4596.0179-2.8974.0179-4.3533-.018-2.6945-.0628-5.389.0943-8.0655-.0584-1.3219-.0763-2.5786-.0494-3.9077-.0179-1.3038.0314-2.5062-.1392-3.7919-.1931-1.2604-.0494-2.5424 0-3.8064.0224-1.369.027-2.7271.0674-4.0925.1123-1.2965.0404-2.5714.0494-3.8715.018-1.1373-.0315-2.2745-.036-3.4153-.018-.833.0135-1.6623.0494-2.49169.0853 1.06119-.1033 2.13319-.211 3.23419-.2335 1.3871-.0269 2.7742-.0135 4.1613-.0314.67-.009 1.3364-.027 1.9991-.0539.7207-.0314 1.4306-.0898 2.1549-.1168 1.3183-.0449 2.6475-.0089 3.9694-.0134 1.1408-.0045 2.2635-.0494 3.3971-.0898 1.2676-.0449 2.4591-.0315 3.7194.0224 2.365.1033 4.7734.1347 7.1528.1662 4.7372.0583 9.4743-.0045 14.2115.0808 0 .0045.0072.009.0253.009 1.0177.0269 2.0137.0314 3.0277-.0135.891-.0404 1.7421-.1437 2.5823-.256.8801-.1212 1.7493-.2514 2.6511-.3457.4454-.0449.8981-.0809 1.3545-.0988.4997-.0225.9742.0135 1.4667.009.0942 0 .3187-.0898.1811-.1123-.7243-.1123-1.7493-.0359-2.4808.0269-.8946.0764-1.7493.2066-2.6004.3279-.8873.1257-1.7818.2559-2.7271.3143-.909.0584-1.8434.0673-2.7706.0853.0073-.018-.0072-.0314-.0652-.0314-1.0249-.0315-2.0571-.0494-3.0856-.0629.0326 0 .0688-.009.1014-.018 2.2273.0405 4.48.1392 6.6385-.1212.4346-.0539 1.1155-.1212 1.3436-.2874.2065-.1527-.2607-.22-.6157-.2559.1051.0089.2137.0134.3188.0224 1.2712.0808 2.5713.0045 3.8281-.0763.67-.0449 1.3545-.0764 2.0208-.1258.1377-.0089.2717-.0224.4057-.0314l-.1014-.1437c-.5324.0404-1.0576.0763-1.5827.1123zm-46.5312.8801c-.5469-.0135-1.0865-.0494-1.6225-.0853.402-.0629.8293-.1078 1.2603-.1213.3875.1078.8873.0943 1.3545.1123.1123.0045.2391-.0898.1195-.0943-.2861-.009-.5722-.009-.8402-.0314.0181-.009.0217-.0225-.0072-.027-.0507-.0045-.1014-.009-.1521-.0134.641-.0315 1.3871.0089 1.876.1436-.4382.1662-1.4451.1303-1.9883.1168zm28.6872.0314c-2.8575.0045-5.7113-.0045-8.5688-.0628-1.2821-.027-2.5678-.0449-3.8499-.0898 2.4954.0134 4.9871.0538 7.4824.0808 2.6076.0269 5.2152.0494 7.8264.0673-.9633 0-1.9267.0045-2.8901.0045zm13.3568-.4266c-.192.0854-.6049.1303-.8837.1662-2.1911.2919-4.509.1751-6.787.1751v-.0045c.7533.009 1.5174-.0269 2.2599-.0718.612-.0359 1.2603-.0764 1.8325-.1707.0689-.0089.2173-.0898.1015-.1122-.9779-.1796-2.3215-.2066-3.3646-.0853-.0869.0089-.239.0808-.1267.1122.4128.1078.9054.1033 1.3907.0808.1086-.0044.2245-.1077.0652-.1032-.3115.0134-.623.0134-.9091-.018.7932-.0494 1.6769-.0269 2.4229.0763-.4672.0539-.9633.0809-1.4342.1123-.8293.0494-1.684.0853-2.5279.0584-.2825-.009-.5758-.027-.8257-.0808-.2644-.0584-.2897-.1437-.0109-.1886.2753-.045.5831-.0809.8765-.1078 1.235-.1302 2.5496-.1437 3.8244-.1258 1.1445.018 2.3505.0494 3.466.1482.0579.0045.7642.0809.6302.1392z" fill="url(#L)" opacity=".4"/><path d="m1.57204 50.1132c.53963.0224 1.00682.1077 1.51024.1751.04708.0045.09416.009.14124.018h.91628c-.87282-.0315-1.63337-.1886-2.49533-.2425-.48168-.027-.966984-.027-1.448666-.0045l-.04346.0628c.470817-.0269.948876-.0314 1.419696-.0089z" fill="url(#M)" opacity=".4"/><path d="m7.59507 49.4694c.07606-.0134.24628-.0898.12676-.1167-.53601-.1213-1.26396-.1033-1.86154-.0764-.58671.027-1.27844.0943-1.66596.2695-.02898.0134-.08692.0494-.07606.0763-.15573.0045-.31146.009-.46719.009-.23541 0-.72434.009-.86196-.0808-.2499-.1662 2.15851-.2964 2.37219-.3054.6012-.0314 1.21688-.0494 1.82532-.0404.34406.0045.8185.0045 1.10461.0853.04708.0135.09779-.0269.09417-.0359-.06519-.1437-.66639-.1572-.97786-.1662-.70984-.0179-1.43418.009-2.13678.045-.6193.0314-1.24223.0763-1.82894.1571-.33682.0449-.6519.1302-.72796.265-.22816.4086 4.48725.0179 5.0812-.0854zm-1.72753-.0718c.402-.018.88731-.027 1.30018.0224-.63017.0764-1.34002.1123-1.96295.1482-.00362 0-.00362 0-.00724 0 .03984-.0314.0507-.0718-.04346-.0583-.19919.0224-.38752.0269-.58309.0224.37665-.0898.89093-.1167 1.29656-.1347z" fill="url(#N)" opacity=".4"/><path d="m31.5521 48.5339c.0507 0 .1195-.0369.105-.0554h-1.0575c.3079.0369.6229.06.9525.0554z" fill="url(#O)" opacity=".4"/><path d="m11.3888 49.3446c1.2458 0 2.4808-.1123 3.6941-.2021 1.3038-.0988 2.5677-.1482 3.8933-.0943 1.0828.0449 2.2961.1213 3.3464-.0224 1.0467-.1482 1.9883-.3817 3.0168-.5434h-.7098c-1.0612.1796-1.9847.4581-3.1835.5074-1.2603.0539-2.5315-.0853-3.7955-.0763-1.2603.009-2.5025.1257-3.7303.2156-1.3038.0987-2.5895.1481-3.9114.0718-1.1879-.0718-2.33959-.2066-3.52387-.2784-1.17704-.0719-2.34684-.0449-3.46956.1078-.77142.1032-1.4704.2694-2.176624.4176-.079676.0179-.159353.0314-.242652.0494l-.04346.0628c1.155316-.22 2.256296-.4984 3.567346-.5837 2.47722-.1572 4.80958.3682 7.26872.3682z" fill="url(#P)" opacity=".4"/><path d="m20.6849 48.5786c.7895.0091 1.5718-.0364 2.3468-.1001h-1.2567c-.3549.0273-.7062.0546-1.0647.0728-.0218.0046-.058.0273-.0254.0273z" fill="url(#Q)" opacity=".4"/><path d="m1.8744 50.3029c-.40563-.0508-.84023-.0831-1.256724-.0692-.159354.0046-.365789.0138-.5649806.0323l-.0253516.0369z" fill="url(#R)" opacity=".4"/><path d="m25.005 50.0379c.4201-.009.8438-.0045 1.2603.0179.3803.018.7062.0809 1.0648.1213.0543.0045.1195-.036.0797-.0494-.4672-.1662-1.3509-.1707-1.9594-.1707-.833 0-1.6623.0494-2.4808.0988-1.3183.0809-2.6511.1886-3.9911.247h1.4414c.7171-.0449 1.4306-.0988 2.1368-.1482.8077-.0539 1.6225-.1033 2.4483-.1167z" fill="url(#S)" opacity=".4"/><path d="m61.3708 50.193c.4527-.1078 1.0793-.1212 1.5935-.1257h.2898c-.0942.0269-.1666.0898-.0326.0898.5179.0045 1.0358.009 1.5537.009.1159 0 .3296-.0988.1666-.1213-1.13-.1527-2.9444-.1841-3.8788.1392-.0544.018-.1123.0584-.029.0764.0579.0134.1195.0224.1811.0359h.7316c-.1992-.0269-.3948-.0629-.5759-.1033z" fill="url(#T)" opacity=".4"/><path d="m61.3257 49.7163c-1.6334.1168-3.2957.1796-4.8204.4401-.029.0045-.0616.0359-.0073.0269 1.2893-.1796 2.6764-.2335 4.0346-.3098 1.1444-.0629 2.278-.1572 3.4442-.1303.5505.0135 1.0937.0629 1.5319.1886.0616.018.1123.036.1558.0539l-.1775-.2469c-.0471-.009-.0942-.018-.1413-.027-1.206-.2155-2.7814-.0808-4.02.0045z" fill="url(#U)" opacity=".4"/><path d="m65.4551 50.3017h.3803c.0108-.0045.0253-.009.0362-.018l-.0978-.1392c-.0435.0584-.163.1123-.3187.1572z" fill="url(#V)" opacity=".4"/><path d="m47.9256 48.4785h-2.7995c-.7316.0092-1.4632.0092-2.1984 0h-2.1875c.4709.0185.9417.0323 1.4161.0415 1.9304.0415 3.8462.0092 5.7693-.0415z" fill="url(#W)" opacity=".4"/><path d="m9.08397 48.8192c-1.30742-.009-2.61484-.0314-3.92227-.0135-1.37985.018-2.74522.0988-4.03454.2829-.01086 0-.02535.0135-.00724.0135 2.56052-.3413 5.20796-.2245 7.86627-.1976 2.69451.0225 5.35281-.1437 7.94591-.3996.0725-.009.1449-.0135.2137-.0225h-.8909c-.9887.0898-1.9883.1707-2.9951.229-1.3799.0809-2.7742.1168-4.17583.1078z" fill="url(#X)" opacity=".4"/><path d="m18.9528 48.5222c.134-.0146.2643-.0291.3983-.0437h-.3259c-.0181 0-.0362.0049-.0507.0049-.0362.0048-.0724.0437-.0217.0388z" fill="url(#Y)" opacity=".4"/></g><g opacity=".43"><path d="m65.9111 21.0792c-.0111-.5029-.0185-1.1091-.0517-1.6749l.0074 4.6252c.0554-.9475.0665-1.9399.0443-2.9503z" fill="url(#Z)" opacity=".43"/><path d="m65.5623 17.9439c-.2679 1.0822-.2752 2.9772-.2752 4.3468 0 1.4505.0181 3.2287.2173 4.5399.0109.0808.0797.2829.0942.1123.0289-.3144.0507-.6332.0688-.9565.0978-.6287.1593-1.2798.1992-1.9489l-.0073-4.6252c-.0362-.5748-.0978-1.1046-.2281-1.4324-.0181-.0584-.0507-.1123-.0689-.036zm.2499 3.2062c.0326 1.3023.0073 2.618-.1086 3.8484.0109-.3548.0145-.714.0181-1.0687.0072-.97-.0072-1.9803-.0869-2.9099-.0073-.0763-.0725-.2425-.0797-.0988-.0507.8622-.0543 1.7379-.0435 2.618 0 .0853.0652.2065.0652.0988.0037-.6422.0073-1.2888.0326-1.922.0362.723.0362 1.4774.029 2.2049-.0072.8217-.0326 1.6704-.1014 2.4608-.1268-1.2125-.1449-2.6449-.1485-3.8978-.0036-1.2798 0-3.1164.2463-4.1537.1666.6422.1593 2.0297.1774 2.82z" fill="url(#aa)" opacity=".43"/><path d="m65.9929 30.1895s-.0037-.0045 0 0c-.0435.4086-.0833.8263-.1159 1.2439v.211c.0326-.4894.0688-.9744.1159-1.4549z" fill="url(#ab)" opacity=".43"/><path d="m65.0436 29.7816c.0362-3.3679-.058-6.7447.0072-10.1126.0326-1.6749.1268-3.296.1304-4.9799.0036-.7949.0036-1.5852.029-2.3755.0289-.8307.0543-1.5986.0326-2.44283-.0471-1.90846-.2137-3.76752-.2898-5.66699-.0326-.79931-.0579-1.60311-.0869-2.4069l-.0471.05837c.0399 1.21692.0797 2.43384.1377 3.64179.076 1.62106.2136 3.19273.2354 4.84526.0108.7723-.0363 1.5043-.0616 2.2632-.029.8487-.0254 1.7108-.029 2.5685-.0108 1.6705-.1159 3.3005-.1448 4.9665-.0073.3503-.0109.705-.0109 1.0553-.0217-.9296-.0398-1.8591-.0398-2.7976 0-1.5941.0217-3.1793-.0363-4.7644-.0253-.7409-.0724-1.4729-.1014-2.2138-.0072-.2066-.0145-.4131-.0181-.6242.0326.4042.0906.7634.1956.9834.0145.027.0362.0449.0471-.009.1666-.7858.1955-2.14641.1086-3.06696-.0036-.04939-.0181-.10328-.0362-.13471-.0036-.68256-.0724-1.33817-.1557-1.97582-.0109-.08082-.0869-.26943-.0942-.0943-.0434.87565-.0869 1.75578-.0978 2.64939-.0181-1.45043-.0145-2.90085-.0326-4.35128-.0108-.8981-.0507-1.77823-.1014-2.6449l-.0543.06736c.0362.6152.0652 1.23488.0761 1.86355.0289 1.66597.0181 3.33643.0362 5.0024.0072.8038.0253 1.60757.0543 2.40237.029.8667.0833 1.7154.1086 2.5866.0435 1.5851.0109 3.1837.0182 4.7733.0072 1.3696.047 2.7213.0869 4.0819.0434 1.5223.0362 2.9547-.0145 4.468-.0906 2.8425-.1159 5.7389-.1376 8.5948-.0363 4.3154-.0037 8.4377-.0181 12.753l.21.2649c.0036-6.4573.0217-12.7574.0942-19.2282zm-.2282-20.68769c.0109-.65561.0398-1.30673.0724-1.95336.0544.48498.0978.99689.1123 1.5133-.0941.46701-.0869 1.06424-.1014 1.62555-.0036.1347.0833.2874.0869.1437.0073-.3413.0073-.68705.0254-1.01036.0108.02245.0217.02694.0217-.00898.0036-.06287.0073-.12124.0109-.18411.029.76787-.0073 1.66595-.1268 2.25425-.1448-.5209-.1123-1.72887-.1014-2.37999zm.0181 34.46899c-.0072-3.4352-.0072-6.866.0399-10.2967.0217-1.5447.0362-3.085.0724-4.6252-.0073 2.9952-.0398 5.9948-.0616 8.99-.0217 3.1343-.0362 6.2687-.0471 9.403.0037-1.154 0-2.3126-.0036-3.4711z" fill="url(#ac)" opacity=".079507"/><path d="m65.209 49.0635c.0507-.3188.1268-.3458.1703-.0135.0289.2201.0507.4536.0688.6871l.1122.1437c-.047-.6422-.1412-1.6615-.3332-1.437-.0941.1078-.1412.4311-.1666.7993l.1087.1392c.0109-.1077.0217-.22.0398-.3188z" fill="url(#ad)" opacity=".43"/><path d="m65.5228 45.225c-.0036.8756-.0036 1.7513.0108 2.6269.0037.238.0073.485.0109.7364-.1304-1.6614-.1485-3.3588-.1593-5.0832-.0109-1.9174-.0507-3.8304-.0435-5.7523.0072-1.9444.0833-3.8798.1485-5.8062.0253-.8307.0579-1.675.1159-2.4832.0072-.1213.134-1.6256.1883-1.4011.0181.0764.0761.0674.0471-.0584-.1883-.7678-.3115 1.3876-.3368 1.7603-.0652 1.0553-.1051 2.1375-.1413 3.2152-.0398 1.1496-.0869 2.2946-.1086 3.4487-.0399 2.1779.0036 4.3648.0145 6.5426.0108 1.9444-.0145 4.046.2064 5.8646.0072.0674.0507.1482.0761.1527.0072.3143.0181.6287.0362.934l.1267.1617c-.0145-.6242-.0471-1.2529-.0579-1.8771-.0145-.8756-.0181-1.7557-.0181-2.6314 0-1.7064-.0036-3.4127 0-5.1146.0072-2.9323.0362-5.9544.2354-8.8104v-.211c-.2354 2.82-.3151 5.7523-.3368 8.707-.0073 1.6885-.0073 3.3859-.0145 5.0788z" fill="url(#ae)" opacity=".43"/><path d="m64.4193 2.53203c0-.00971 0-.01942 0-.03398l-.0228.03398z" fill="url(#af)" opacity=".43"/><path d="m65.5553 10.372c-.0108-1.51779-.1195-3.00414-.2028-4.48151-.0869-1.49533-.1304-2.96372-.076-4.47252l-.0942.11675c-.0181.43558-.029.87116-.0254 1.31571.0037 1.49983.1051 2.98169.1884 4.4366.0905 1.56718.1376 3.08497.0905 4.67907-.0362 1.2978-.1086 2.7617.0254 4.019.1086.9969.2607 1.913.3947 2.8649v-.7993c-.1521-.9969-.3259-1.9488-.3658-3.1209-.047-1.5133.0761-3.04.0652-4.5578z" fill="url(#ag)" opacity=".43"/><path d="m65.7341 5.09746c-.0616-1.3696-.0978-2.74369-.105-4.126757l-.0725.089807c.0145 2.47426.1268 4.92157.2898 7.32398v-1.23039c-.0435-.68255-.0833-1.36511-.1123-2.05664z" fill="url(#ah)" opacity=".43"/></g><path d="m64.2783 2.04102h-62.69432v46.27748h62.69432z" fill="#fff"/></g></svg>