<svg fill="none" height="46" viewBox="0 0 50 46" width="50" xmlns="http://www.w3.org/2000/svg" xmlns:xlink="http://www.w3.org/1999/xlink"><clipPath id="a"><path d="m0 0h50v46h-50z"/></clipPath><g clip-path="url(#a)"><path d="m48.2596 3.11631c-.3866-.18921-.7732-.35616-1.1598-.52311-.2191-.08904-.3866-.23373-.6186-.32277-.4768-.17808-.9922-.2226-1.5077-.18921-.7861.05565-1.5335.31164-2.268.56763-.1031-.4452-.2449-.8904-.4124-1.32446-.0644-.15582-.1289-.30051-.2191-.445201-.2577-.345027-.6958-.534236-1.134-.645535-.4124-.1113-.8247-.2671188-1.2629-.1892093-.902.1446893-1.7268.5898863-2.268 1.2354253-.1289.14469-.232.31164-.3222.46745-4.4072 8.01355-9.201 17.29588-12.2036 25.43188-3.3505-4.4186-7.1521-9.9279-11.5335-13.9569-1.1856-1.0908-3.0799-1.3245-4.54897-.5343-.79897.4341-1.57217.9016-2.31959 1.3913-.30928.2003-.48969.3116-.68299.5787-.20618.2894-.39948.5899-.56701.9016-.15464.2893-.30928.5787-.41237.8904-.02577.089-.30928.7902-.27062.7902-.43814-.0334-.88917-.0779-1.32732-.1113-.14175-.0111-.2835-.0223-.41237.0111s-.24484.1002-.34794.167c-.83763.5676-1.17268 1.5136-1.46907 2.3929-.141752.4118-.270618.8125-.412371 1.2243-.154639.4786-.425257 1.0128-.438144 1.5137 0 .1669-.03866.3227-.064433.4897-.1675258.7902.03866 1.6249.554124 2.2927 5.335054 6.7893 10.786074 13.534 17.229374 19.5553.5284.5009 1.25.8348 2.0361.9572.7216.1113 1.4562.1224 2.1778.2115.1289.0222.232.0445.3609.0334.4381-.0223.8247-.1225 1.2757-.0668.1289.0222.2578.0445.3866.0222.1289-.0222.2449-.1113.348-.1892.7345-.5565 1.3531-1.2243 1.8556-1.9477-.1804.601-.2835 1.2243-.3092 1.8476 0 .1001 1.585.0667 1.7396.0556.3609-.0111.7088.0891 1.0696.0668.8892-.0668 1.7526-.7791 2.165-1.4246.1546-.2226.2964-.4564.451-.679.8763-1.3467 1.7397-2.6934 2.5773-4.0513.8377-1.3578 1.6753-2.7268 2.4743-4.1069.8118-1.3801 1.5979-2.7602 2.3711-4.1626.7732-1.3912 1.5206-2.7936 2.2551-4.2071.7346-1.4135 1.4433-2.827 2.1263-4.2516 2.049-4.2405 4.0078-8.6146 5.7217-12.9998.2835-.73457.5412-1.48028.7474-2.24824.1031-.37842.1804-.75684.2577-1.14639.116-.60101.1418-1.17977-.1031-1.76965-.3221-.65667-.8634-1.23543-1.585-1.60271z" fill="#9c3708"/><path d="m49.8187 6.72265c-.451 1.1909-.9149 2.3818-1.4046 3.56155-.2449.5899-.4897 1.1798-.7474 1.7697-.8634 2.0145-1.7655 4.0068-2.7062 5.9879-.2062.4341-.3866.9126-.6959 1.3022-.2835.345-.4253.7791-.683 1.1352-.1804.256-.4124.512-.6443.7457-.1031.0891-.1933.1893-.2964.2783-.0387.0334-.2191.1669-.4253.3116-.3093.2338-.6701.5009-.7216.5009.116.1558.1417.3339.1288.5231 0 .1781-.0644.3784-.1159.5565-.0129.0222-.0258.0556-.0258.089-.3222 1.0574-.6186 2.1147-.9665 3.1609-.1418.4118-.4381.8348-.6572 1.2243-.3222.5788-.6572 1.1575-.9794 1.7252-.4124.7234-.8376 1.4357-1.2629 2.1592-.2706.4785-.5541.9349-.8376 1.4023-1.3402 2.226-2.7191 4.4297-4.1495 6.6112-.0515.0779-.116.1781-.1675.256-.0129.0111-.0258.0223-.0258.0223-.2706.4118-.6314.7123-1.0567.9905-.2448.1781-.5026.3896-.7861.512-.0258.0111-.0515.0223-.0773.0334-.3093.1224-.6701.1224-1.018.1002h-.2191c-.4897-.0112-1.1727.0667-1.5722-.2226-.3995-.2894-.3608-.8014-.2964-1.2466.0129-.0334.0129-.0668.0258-.1113.0644-.4341.1418-.8681.2062-1.2911.0386-.2003.0644-.4006.1031-.5899-.0902.1002-.1804.2226-.2578.3339-.6185.7791-1.2371 1.5471-1.8427 2.3373-.1031.1225-.2062.2449-.3093.3673-.1933.2004-.3995.3896-.6443.512-.4511.2003-1.031.2337-1.5464.1336-.1676-.0334-.3093-.078-.4511-.1336-.1933-.0668-.3737-.1781-.567-.2449-.2448-.0667-.4897-.089-.7345-.1224-.348-.0556-.6701-.1558-.9794-.2894h-.0129c-.3866-.1669-.7474-.3895-1.0438-.6678-1.0696-1.0017-2.1263-2.0256-3.1443-3.0718-.5155-.5343-1.031-1.0685-1.5464-1.6139-.2577-.2782-.5284-.5565-.7861-.8347-.1804-.1892-.3866-.3896-.5283-.5899-.0903-.1558-.1418-.2782-.2836-.4007-.3866-.3561-.7989-.69-1.1211-1.1018-.3866-.4898-.6443-1.0796-.5928-1.6695.0258-.256.0902-.5454-.116-.7346-.2577-.256-.7989-.1002-1.1469-.2783-.09017-.0556-.16749-.1335-.23192-.2003-.27062-.2671-.55412-.5454-.82474-.8236-.18041-.167-.39949-.256-.59278-.4229-.43815-.3673-.76031-.8904-1.12114-1.3245-.5799-.7012-1.14691-1.4024-1.71392-2.1036-1.15979-1.458-2.31958-2.916-3.46649-4.3852-.65722-.8236-.83763-1.9922-.34794-2.9049.02577-.0445.05155-.089.09021-.1335.06443-.1002.15464-.1781.27062-.256.4768-.345.79897-.8793 1.1469-1.3133.09021-.0891.18042-.2004.30928-.2226.12887-.0223.25773.0333.37371.1001 2.10052 1.0908 3.19588 3.1721 4.84536 4.7525.33506.345.72165.6567 1.14691.9349.01289.0112.01289.0223.02578.0223-.02578-.0334-.03867-.0668-.06444-.1002-.01289 0-.01289 0-.01289-.0111-1.48195-1.7697-2.70618-3.6952-3.65979-5.7097-.03866-.0668-.07732-.1447-.11598-.2226-.1933-.4563-.3866-.9905-.10309-1.4246.05155-.0668.10309-.1224.16752-.1781.28351-.256.70877-.3784 1.05671-.5676.20618-.1224.36082-.2894.57989-.4118.32217-.1781.63145-.3673.95361-.5454.15464-.089.33505-.1558.50258-.2226 1.37884-.5008 2.98964-.2003 4.03354.768 1.933 1.7696 3.634 3.6951 5.2448 5.6763.8119 1.0128 1.6108 2.0367 2.3969 3.0718.2191.2894.4382.5788.6701.8681.5026.6456.9923 1.2911 1.4433 1.97.1547.2226.348.4452.5284.6567.1546.167.3092.3339.451.5009.3093.3784.6057.7679.9021 1.1575.0257.0334.0515.0667.0773.1001.2191.3117.4381.6122.6443.935.3351.4897.6572.9905.9407 1.5025-.3866-.8014-.7216-1.6361-.9665-2.482-.0257-.0668-.0515-.1224-.0644-.2003-.0902-.3117-.1675-.6344-.1804-.9572-.0129-.256.0258-.512.0902-.768.1675-.7011.5283-1.3801.799-2.0256.0644-.1558.1546-.2671.2577-.4118.1289-.1892.2062-.4118.2964-.6122.2062-.4785.4124-.946.6185-1.4246.683-1.5359 1.3918-3.0719 2.1134-4.5967.1805-.3784.3609-.7568.5413-1.1352.9407-1.9255 1.9072-3.8398 2.8866-5.74305.0773-.14469.1546-.30051.2319-.44519.9021-1.71401 1.8171-3.41689 2.732-5.11977.3608-.6678.7345-1.33559 1.0954-2.00339.8376-1.51367 2.9252-2.170336 4.6907-1.49141.5283.200339 1.0309.523107 1.4691.857.3866.31164.7087.69006.8118 1.14639.0902.36728.0129.75683-.0902 1.12412-.2448.857-.6572 1.68062-.8376 2.54875-.0516.20034-.0902.41181-.116.62328.5928-1.00169 1.1985-1.99226 1.8299-2.97169.0773-.12243.1417-.23373.2191-.3339.1804-.26712.3737-.5565.7087-.67892.0129 0 .0129-.01113.0258 0 .4253-.14469.8892.02226 1.2758.16694.219.08904.4381.17808.6701.23373.2062.04452.3866.04452.567.14469.7603.43407 1.3402 1.09073 1.5722 1.8587.1675.57876.1546 1.17977-.0645 1.73627z" fill="#e58a4a"/></g></svg>