<svg fill="none" height="18" viewBox="0 0 155 18" width="155" xmlns="http://www.w3.org/2000/svg"><path d="m1.25684 3.07812c.1289-.11458.20052-.17187.21484-.17187.02865 0 .05013-.00716.06445-.02148.08594-.11459.13607-.17904.15039-.19336.07162-.02865.12175-.06446.15039-.10743.04297-.04296.07878-.07877.10743-.10742.05729-.04297.10742-.08594.15039-.1289.05729-.04297.11458-.0931.17187-.15039.14323-.11459.22917-.17904.25781-.19336.02865-.01433.0573-.04297.08594-.08594.08594-.05729.15755-.11458.21485-.17188.05729-.07161.13606-.12174.23632-.15039.11459-.10026.17904-.15755.19336-.17187.07162-.02865.14323-.08594.21485-.17188.1289-.05729.20052-.0931.21484-.10742.10026-.10026.15755-.150389.17188-.150389.02864-.014323.04296-.050131.04296-.107422.15756-.100261.24349-.150391.25782-.150391.02864 0 .05729-.007161.08593-.021484.07162-.057292.12891-.093099.17188-.107422.05729-.028646.11458-.064453.17187-.107422.15756.028646.27214-.007161.34375-.107422.07162 0 .12175.007162.15039.021484.04297 0 .0931-.014322.1504-.042968.18619.042968.29362.093099.32226.15039.05729.057292.08594.107422.08594.150391.01432.028646.03581.057292.06445.085937.15755.200521.26498.315108.32227.343748 0 .04297.01432.08594.04297.12891.02864.02864.05729.05729.08593.08594.02865.07161.0573.13606.08594.19336.04297.04296.07878.10026.10742.17187.07162.12891.14323.25065.21485.36524.08593.11458.1289.19335.1289.23632l.15039.19336c.08594.12891.12891.19336.12891.19336.01432 0 .02865.00716.04297.02149.02864.02864.05013.07161.06445.1289.01432.04297.03581.07878.06445.10742.0573.08594.12891.15756.21485.21485l.19336.21484c.08594.11459.13607.19336.15039.23633.01432.02865.02864.05729.04297.08594.07161.11458.10742.21484.10742.30078 0 .07161.01432.14323.04297.21484-.07162.15755-.10742.23633-.10742.23633-.02865.05729-.0573.10026-.08594.12891-.01432.02864-.03581.06445-.06445.10742-.0573.08594-.12175.13607-.19336.15039-.11459.10026-.19336.15039-.23633.15039-.02865 0-.05729.00716-.08594.02148-.02865.01433-.07161.03581-.12891.06446-.04296.01432-.07877.0358-.10742.06445-.08594.07162-.14323.11458-.17187.12891-.02865.01432-.05729.0358-.08594.06445-.11458.10026-.1862.17188-.21484.21484-.01433.02865-.03581.05013-.06446.06446-.10026.05729-.15755.0931-.17187.10742 0 .01432-.00716.02864-.02149.04297-.08593.05729-.13606.10026-.15039.1289-.01432.01433-.0358.03581-.06445.06446-.12891.11458-.20052.19336-.21484.23633-.01433.04296-.04297.07161-.08594.08593-.08594.17188-.14323.2793-.17188.32227-.02864.02864-.05729.07877-.08593.15039-.01433.05729-.02865.14323-.04297.25781-.01433.10026-.00716.19336.02148.2793.04297.1289.06445.20052.06445.21484s.01433.03581.04297.06446c.04297.11458.06446.19335.06446.23632 0 .02865.01432.05729.04297.08594.08593.12891.1289.19336.1289.19336.01432 0 .02865.00716.04297.02148.07161.11459.10742.1862.10742.21485 0 .02864.00716.05729.02149.08594.08593.1289.13606.222.15039.27929.02864.05729.07161.0931.1289.10742.0573.15756.08594.23633.08594.23633.02865.02865.05729.05729.08594.08594.02864.02865.05729.05729.08594.08594.02864.04297.04296.08593.04296.1289.01433.02865.03581.0573.06446.08594.11458.15755.17903.25065.19336.2793.10026.1289.16471.21484.19336.25781.04297.04297.07877.09306.10742.15036l.1289.2364c.17188.2148.2793.3509.32227.4082.07161.1002.11458.1575.12891.1718.01432 0 .02864.0144.04297.043.04296.1003.06445.1862.06445.2578.02864.043.05013.0931.06445.1504.02865.0573.06445.1074.10742.1504.01433.1719.03581.265.06446.2793.04297 0 .07161.0215.08593.0645.01433.1289.02865.2578.04297.3867.01433.1289.00716.2649-.02148.4082-.02865.1432-.06445.2864-.10742.4297-.0573.1289-.08594.2148-.08594.2578-.07162.1289-.10742.2148-.10742.2578-.08594.1146-.13607.179-.15039.1933 0 0-.00716.0144-.02149.043-.07161.1003-.11458.1719-.1289.2149 0 .0286-.01433.0572-.04297.0859-.02865.0286-.05729.0644-.08594.1074-.01432.043-.04297.086-.08594.1289-.08594.1289-.13607.2005-.15039.2149v.0429c-.08594.1576-.13607.2435-.15039.2578-.08594.1146-.15039.1862-.19336.2149-.04297.0286-.06445.0716-.06445.1289-.04297.0143-.07878.043-.10742.0859-.02865.043-.0573.0788-.08594.1075-.10026.1145-.15039.1862-.15039.2148 0 .0143-.00716.0286-.02149.043-.11458.1146-.17187.1718-.17187.1718-.07162.0717-.11458.1146-.12891.129 0 .0143-.01432.0286-.04297.0429-.1289.1003-.20052.1576-.21484.1719-.07161.0859-.12891.1504-.17187.1934-.02865.0286-.0573.0644-.08594.1074-.02865.0286-.07878.0429-.15039.0429-.01433.0573-.03581.1003-.06446.1289-.02864.0287-.05729.0573-.08593.086-.11459.1432-.17904.2148-.19336.2148-.01433 0-.03581.0144-.06446.043-.10026.1146-.15755.1719-.17187.1719-.10026.1002-.15755.1575-.17188.1719-.01432.0286-.0358.0572-.06445.0859l-.25781.2363c-.10026.0716-.16472.1146-.19336.1289-.02865.0143-.05729.0358-.08594.0645-.05729 0-.11458.0071-.17187.0215-.04297.0286-.10026.0429-.17188.0429-.07161-.0143-.1289-.0286-.17187-.0429-.04297-.0144-.0931-.0215-.15039-.0215-.20052-.1719-.35092-.308-.45118-.4082-.08593-.086-.17187-.1791-.25781-.2793-.02864-.043-.05729-.086-.08594-.1289-.02864-.043-.06445-.0788-.10742-.1075-.08594-.1002-.15039-.1718-.19336-.2148s-.08593-.0931-.1289-.1504c-.07162-.1146-.17904-.2292-.32227-.3437-.02864-.0287-.05729-.0573-.08594-.086-.01432-.0429-.02864-.0859-.04297-.1289-.08593-.0859-.13606-.136-.15039-.1504-.01432-.0143-.0358-.0358-.06445-.0644-.10026-.086-.15755-.1361-.17187-.1504-.01433-.0287-.03581-.043-.06446-.043-.11458-.1575-.1862-.2506-.214841-.2793-.028646-.0286-.057292-.0644-.085937-.1074-.042969-.0573-.078776-.1003-.107422-.1289-.028646-.0287-.042969-.0645-.042969-.1074-.114583-.1576-.179037-.2435-.193359-.2578-.014323-.0144-.035808-.043-.064454-.086-.028645-.0429-.042968-.0931-.042968-.1504s-.014323-.1146-.042969-.1718c.028646-.043.028646-.0788 0-.1075-.014323-.0429-.007162-.0931.021484-.1504.042969-.1432.078776-.2363.107422-.2793.028646-.0572.057292-.1217.085938-.1933.071614-.0143.121744-.043.15039-.086.042969-.0429.100261-.0716.171875-.0859.12891-.1003.24349-.2005.34375-.3008.12891-.1146.19336-.1718.19336-.1718.07161-.1146.11458-.1719.12891-.1719.02864 0 .0358-.0143.02148-.043.05729-.0286.10742-.0644.15039-.1074.05729-.043.10742-.086.15039-.1289.02865-.0287.05729-.0573.08594-.086.02864-.0286.04297-.0716.04297-.1289.1289-.1289.20052-.2005.21484-.2148s.03581-.0358.06445-.0645c.07162-.1575.10743-.2363.10743-.2363.10026-.1575.17187-.3509.21484-.5801.01432-.0286.01432-.0716 0-.1289 0-.0573.00716-.1146.02148-.1718.02865-.1146.02149-.2292-.02148-.3438s-.08594-.2435-.12891-.3867c-.05729-.17189-.10026-.32944-.1289-.47267-.05729-.14323-.10742-.24349-.15039-.30078-.07162-.11459-.12175-.17904-.15039-.19336-.01433-.01433-.02865-.03581-.04297-.06446-.05729-.08593-.10742-.14322-.15039-.17187-.04297-.04297-.07162-.10026-.08594-.17188-.14323-.11458-.22201-.19336-.23633-.23632-.10026-.11459-.15755-.17188-.17187-.17188 0-.01432 0-.02864 0-.04297-.08594-.07161-.13607-.11458-.15039-.1289 0-.02865-.01433-.0573-.04297-.08594-.08594-.14323-.14323-.20768-.17188-.19336-.01432 0-.02148-.01432-.02148-.04297-.100263-.15755-.171877-.25781-.214846-.30078-.10026-.14323-.157552-.23633-.171875-.2793s-.035807-.0931-.064453-.15039c-.057292-.11458-.085938-.20052-.085938-.25781-.028645-.11458-.05013-.17188-.064453-.17188-.014323-.01432-.021484-.0358-.021484-.06445-.028646-.05729-.05013-.14323-.064453-.25781-.014323-.05729-.021485-.10026-.021485-.12891 0-.04297-.014322-.0931-.042968-.15039-.014323-.1289-.028646-.222-.042969-.2793 0-.05729-.007162-.13606-.021484-.23632-.028646-.11459-.042969-.17904-.042969-.19336.014323-.01433.021484-.03581.021484-.06446.014323-.02864.014323-.07161 0-.1289s-.014323-.10742 0-.15039l.107422-.40821c.042969-.1289.071615-.21484.085938-.25781.028645-.04297.035807-.07877.021484-.10742.085937-.14323.136068-.22917.150391-.25781.014322-.04297.035807-.08594.064453-.12891.042968-.05729.064453-.10026.064453-.12891.014323-.02864.028646-.06445.042969-.10742.128906-.15755.229166-.26497.300783-.32226.08594-.07162.16471-.14323.23633-.21485zm19.29296 2.29883c-.1719.08594-.2936.12175-.3652.10743-.0573-.02865-.1361-.03581-.2364-.02149-.0429-.01432-.0859-.01432-.1289 0-.0429.01432-.0787.02865-.1074.04297-.043 0-.0859-.00716-.1289-.02148-.043-.01433-.0931-.00717-.1504.02148-.0286 0-.0644.00716-.1074.02148-.043 0-.0859-.00716-.1289-.02148-.1862-.02865-.3223-.02865-.4082 0-.043 0-.086-.00716-.1289-.02148-.043-.01433-.0788-.02149-.1074-.02149-.1719.04297-.2937.07162-.3653.08594s-.1432.02864-.2148.04297c-.086.02864-.1791.05013-.2793.06445-.086 0-.1719.01432-.2578.04297-.0573.01432-.1433.05013-.2578.10742-.1433.07162-.2435.11458-.3008.12891-.0573.01432-.1146.0358-.1719.06445s-.1074.04297-.1504.04297c-.0286 0-.0644.01432-.1074.04297-.2005.14323-.3438.222-.4297.23633-.1289.07161-.2077.12174-.2363.15039-.0143.01432-.0287.02864-.043.04296-.1289.08594-.2148.1504-.2578.19336-.1432.07162-.2435.1504-.3008.23633-.1289.11459-.1933.17188-.1933.17188-.1003.1289-.1648.222-.1934.27929-.0287.04297-.0573.0931-.0859.1504-.086.08593-.1361.15039-.1504.19335-.0144.02865-.0358.05013-.0645.06446-.0286.05729-.0501.10026-.0644.1289-.0144.02865-.0287.07162-.043.12891-.043.12891-.0716.20768-.0859.23633v.04297c-.043.15755-.0645.26497-.0645.32226v.15039c0 .10026-.0072.17904-.0215.23633.0287.10026.043.19336.043.2793 0 .07161.0143.15755.043.25781.0286.10026.0716.19336.1289.2793.0716.1289.1074.20771.1074.23631.0143.0287.0286.0573.0429.086.086.1575.129.2363.129.2363.0143 0 .0286.0143.0429.043.0287.0286.0502.0644.0645.1074.0286.0429.0573.0787.0859.1074.1003.1146.1504.179.1504.1934.0143.0143.0358.0358.0645.0644.1002.1146.1575.1719.1718.1719.1003.0429.1719.0859.2149.1289.0859.0573.1504.1074.1933.1504.1862.0859.2937.1504.3223.1933.043.0287.0859.0573.1289.086.1289.0429.1934.0716.1934.0859.0143 0 .0358.0072.0644.0215.1576.0573.2578.0859.3008.0859.0286.0144.0645.0287.1074.043.043.0143.086.0358.1289.0645.0287.0143.0645.0214.1075.0214.0429 0 .0859.0144.1289.043l.2578.0645c.1862.0716.3437.1145.4726.1289.1719.0429.2793.0716.3223.0859.0573.0143.1074.0287.1504.043.1146.0286.2291.0501.3437.0644.1146 0 .2364.0072.3653.0215.0429 0 .0859.0072.1289.0215h.1504.2578c.0286-.0143.0573-.0215.0859-.0215.0287 0 .0645.0072.1074.0215.0573.0143.1218.0286.1934.043h.1504c.0573-.0144.1146-.0072.1719.0214.1575.0573.2506.1504.2793.2793.0286.129.0501.2722.0644.4297v.3438c.0143.0716.0215.1361.0215.1933v.1719c0 .0716-.0072.1432-.0215.2149v.1933c-.0143.1433-.0215.2865-.0215.4297v.2793c0 .1432-.0071.2435-.0215.3008v.1289.4297c.0287.0859.043.1432.043.1719.0143.0286.0143.0572 0 .0859-.0286.0716-.043.1289-.043.1719.0144.0429.0215.0787.0215.1074-.0143.0859-.0215.1432-.0215.1719.0144.0143.0072.0429-.0214.0859-.043.1862-.1146.3223-.2149.4082-.2005.0859-.3437.1361-.4297.1504-.0716.0143-.1647.0286-.2793.043-.0716 0-.1289 0-.1718 0-.043.0143-.1003.0215-.1719.0215-.1576.0429-.265.0644-.3223.0644s-.1074 0-.1504 0c-.1289.043-.2363.0573-.3222.043-.0717-.0144-.1289-.0215-.1719-.0215-.0287.0286-.0716.043-.1289.043s-.1003-.0144-.1289-.043c-.0144-.0143-.0788-.0072-.1934.0215-.1002.0286-.1719.0358-.2148.0215-.2578-.0573-.4369-.086-.5371-.086-.1003 0-.2006-.0143-.3008-.0429-.2005-.0573-.3438-.1003-.4297-.129-.0716-.0143-.1504-.0286-.2363-.0429-.043-.0143-.086-.0215-.1289-.0215-.043 0-.086-.0072-.129-.0215-.0716 0-.1217-.0143-.1503-.043-.0287-.0143-.0573-.0143-.086 0-.1719-.0573-.2578-.0859-.2578-.0859 0-.0143-.0072-.0215-.0215-.0215-.1575-.0286-.2435-.0501-.2578-.0644-.0143-.0144-.0286-.0215-.043-.0215-.1432-.0287-.2291-.0502-.2578-.0645l-.3437-.1074c-.0573-.0143-.1289-.0501-.2149-.1074-.1862-.1003-.2864-.1504-.3007-.1504-.1719-.0716-.2865-.1146-.3438-.1289-.043-.0143-.0931-.0287-.1504-.043-.1575-.0859-.2578-.1361-.3008-.1504-.0286-.0143-.0644-.0358-.1074-.0644-.1432-.0716-.222-.1146-.2363-.1289 0-.0144-.0072-.0215-.0215-.0215-.1146-.0573-.1934-.0931-.2363-.1074-.0287-.0144-.0573-.0215-.086-.0215-.0286-.043-.0716-.086-.1289-.1289-.0429-.043-.0787-.1003-.1074-.1719-.0286-.0287-.0716-.043-.1289-.043-.043 0-.0788-.0143-.1074-.0429-.1719-.1433-.2793-.2292-.3223-.2579-.1432-.1002-.2292-.1503-.2578-.1503-.0286-.0144-.0573-.0359-.0859-.0645-.0287-.0286-.0573-.0573-.086-.0859-.0286-.043-.0573-.0788-.0859-.1075-.043-.0573-.0931-.1002-.1504-.1289-.043-.0429-.0859-.0931-.1289-.1504-.1146-.1432-.1862-.2148-.2149-.2148-.0143-.0143-.0358-.0358-.0644-.0645-.0716-.1002-.1218-.179-.1504-.2363s-.0716-.1002-.1289-.1289c-.1432-.1719-.2148-.2793-.2148-.3223-.1003-.1002-.1576-.1647-.1719-.1933l-.15041-.2149c-.08594-.1718-.13607-.2578-.15039-.2578-.11459-.1862-.17904-.2793-.19336-.2793-.02865-.1432-.07162-.2649-.12891-.3652-.04297-.1146-.07161-.2005-.08594-.2578-.08594-.2149-.13607-.3509-.15039-.4082-.02864-.0716-.05729-.1576-.08594-.2578-.01432-.1003-.02864-.1934-.04296-.2793-.07162-.2005-.10743-.3223-.10743-.3653 0-.1862-.01432-.3079-.04297-.3652-.01432-.0716-.02148-.1432-.02148-.2148 0-.1003.00716-.17907.02148-.23637.01433-.05729.02149-.10742.02149-.15039 0-.14323-.00716-.222-.02149-.23632 0-.02865 0-.0573 0-.08594l.02149-.23633c.02864-.17187.05013-.2793.06445-.32227.04297-.11458.05729-.17903.04297-.19336 0-.01432.00716-.0358.02149-.06445.02864-.10026.04296-.17187.04296-.21484s.00717-.0931.02149-.15039c.02864-.14323.04297-.25782.04297-.34375.01432-.02865.02864-.06446.04297-.10742.01432-.04297.02864-.08594.04296-.12891.01433-.17188.02865-.26497.04297-.2793.01433-.01432.02149-.0358.02149-.06445.04297-.12891.05729-.20052.04297-.21484 0-.01433 0-.02865 0-.04297.04297-.12891.0931-.24349.15039-.34375.04297-.17188.07161-.27214.08593-.30078.11459-.15756.17188-.25066.17188-.2793.01432-.02865.03581-.05729.06445-.08594.08594-.14323.14323-.22917.17188-.25781.01432-.02865.02148-.07162.02148-.12891.01433-.05729.02861-.10026.04301-.1289.1145-.12891.1718-.20052.1718-.21485 0-.01432.0144-.02864.043-.04297.043-.11458.1074-.22916.1934-.34375.0573-.10026.0859-.15755.0859-.17187.0143-.01432.0215-.03581.0215-.06445.0716-.08594.1361-.14323.1933-.17188.086-.14323.1361-.222.1504-.23633.1003-.10026.1504-.15755.1504-.17187 0-.01433.0143-.02865.043-.04297.0286-.02865.0644-.05013.1074-.06445.043-.02865.086-.0573.1289-.08594.086-.08594.1504-.15039.1934-.19336.043-.05729.0859-.11458.1289-.17188.1432-.10026.2148-.15755.2148-.17187.0716-.07162.1289-.12891.1719-.17188.043-.07161.0788-.11458.1074-.1289.0287-.02865.0573-.05729.086-.08594.1432-.14323.2148-.20768.2148-.19336.1003-.08594.179-.14323.2363-.17187.0717-.04297.1433-.08594.2149-.12891.1146-.05729.179-.0931.1933-.10742.0287-.02865.0573-.05013.086-.06446.0573-.04296.1146-.07877.1719-.10742.0572-.02864.1145-.05729.1718-.08593.0716-.02865.1361-.05014.1934-.06446s.1217-.02864.1933-.04297l.1719-.17187c.1576-.05729.2507-.0931.2793-.10742.1576-.0573.2578-.08594.3008-.08594.0573 0 .1074-.00716.1504-.02149.1719-.07161.2721-.11458.3008-.1289.2005-.05729.3151-.0931.3437-.10742.043-.01433.086-.01433.1289 0 .1003-.04297.1791-.06446.2364-.06446l.2363-.08593.2363-.04297c.2005-.04297.3294-.06446.3867-.06446.0573-.01432.1218-.0358.1934-.064449.1432-.042969.2292-.057292.2578-.042969.0287.014323.0573.021484.0859.021484.1576 0 .2579-.007161.3008-.021484.0573-.028646.1146-.042969.1719-.042969.1003 0 .2005.014323.3008.042969.1002.014323.2005.007161.3008-.021484h.3652c.043-.014323.0859-.014323.1289 0 .0716.042968.1504.042968.2363 0 .1003-.028646.1576-.035808.1719-.021485.0287.014323.0573.021485.0859.021485.1719.057291.2722.085932.3008.085932.0287-.01432.0573-.01432.086 0 .1575.07162.2435.10743.2578.10743.0286-.01433.0573-.02149.0859-.02149.0859 0 .1432.00716.1719.02149.043.01432.0788.00716.1074-.02149l.2149.15039c.0572.10026.0931.15756.1074.17188s.0215.02864.0215.04297c.0143.04297.0143.10742 0 .19336 0 .07161.0071.15039.0214.23632.0144.14323.0215.21485.0215.21485.0143 0 .0215.00716.0215.02148v.19336c.0143.05729.0143.11459 0 .17188 0 .05729-.0072.11458-.0215.17187v.19336.25781c.0143.01433.0215.02865.0215.04297-.043.25782-.0644.42253-.0644.49414v.30078.12891c0-.01432 0-.02865 0-.04297s-.0072-.01432-.0215 0v.15039.17188c.0143.01432.0215.0358.0215.06445v.23633c.0143.04297.0214.07877.0214.10742 0 .05729-.0071.11458-.0214.17188-.0144.04296-.0215.10026-.0215.17187-.043.15755-.0573.24349-.043.25781zm9.9688-4.662106c.1002 0 .1862-.007162.2578-.021485.0859-.014323.1862-.014323.3007 0 .129-.071614.2149-.093099.2579-.064453.1002.014323.1647.021485.1933.021485.043-.014323.0788-.021485.1074-.021485.1576.057292.2579.085938.3008.085938.043-.014323.0788-.014323.1074 0 .1433.042968.2435.064453.3008.064453.0716 0 .1361.007161.1934.021484.2005.071615.3366.128907.4082.171875.1002.014323.1719.028644.2148.042964.043.01433.086.02865.1289.04297.1433.02865.2149.04297.2149.04297.0143 0 .0286.00716.043.02149.0572.02864.1289.05729.2148.08593.0859.01433.1575.04297.2148.08594.0717 0 .1361.00716.1934.02149.0573.01432.1217.0358.1934.06445.2005.08594.3294.13607.3867.15039s.1002.04297.1289.08594c.0716 0 .1432.0358.2148.10742.0716.05729.1576.08594.2578.08594.0717.08593.1648.14323.2793.17187.1289.08594.1934.13607.1934.15039.0286.02865.0644.05013.1074.06446.043.01432.0788.0358.1074.06445.1289.07161.222.13607.2793.19336.1576.10026.2578.17187.3008.21484.043.02865.086.05729.1289.08594.043.05729.086.10742.1289.15039.043.02865.086.05729.1289.08594.1433.10026.2077.15755.1934.17187 0 0 .0072.00716.0215.02149.1289.11458.2005.17187.2148.17187.1289.11459.2005.1862.2149.21485.1002.1289.1575.20052.1718.21484.0144 0 .0287.01432.043.04297.0573.08594.1074.15039.1504.19336.1146.14323.2005.22916.2578.25781.086.12891.1504.22917.1934.30078.0429.07162.1002.13607.1718.19336.0717.14323.1075.21484.1075.21484l.1718.19336c.0287.02865.0502.07162.0645.12891.0143.04297.0358.07878.0645.10742.0286.05729.0501.10026.0644.12891.0287.02864.0573.05729.0859.08594.0573.1289.086.19335.086.19335.0143 0 .0215.00717.0215.02149.0716.12891.1217.222.1504.2793.0143.07161.0358.1289.0644.17187.0287.04297.043.10026.043.17188.0429.07161.0716.14323.0859.21484s.0358.14323.0645.21484c.0716.14323.1074.22201.1074.23633.0143.01432.0215.02865.0215.04297.0573.12891.0787.22201.0644.2793v.17187c.0573.15755.0788.24349.0645.25781v.04297c.0429.1862.0573.31511.0429.38672 0 .05729.0072.12175.0215.19336.043.44401.0502.82357.0215 1.13867v.17188c0 .04297-.0071.10026-.0215.17187-.0286.17191-.0429.27211-.0429.30081.0143.0143.0143.0358 0 .0644-.0573.2865-.1003.5085-.1289.666-.0287.1433-.0573.2865-.086.4297-.0429.1433-.0859.2865-.1289.4297-.043.1289-.0788.2578-.1074.3867-.0859.2292-.1432.3796-.1719.4512-.0716.1719-.1146.2721-.1289.3008-.0143.0286-.0286.0573-.043.0859l-.1503.2149c-.0717.1432-.1075.222-.1075.2363.0144 0 .0144.0072 0 .0215-.1002.1432-.1647.2435-.1933.3008-.086.1432-.1289.2148-.1289.2148-.1862.2149-.3223.3652-.4082.4512-.0717.0859-.1504.179-.2364.2793-.1289.1432-.222.2363-.2793.2793-.0573.0429-.1074.0859-.1504.1289-.0572.0286-.1432.0859-.2578.1719-.0859.1002-.1933.1862-.3222.2578-.1433.1289-.2435.2005-.3008.2148-.043.0143-.086.0358-.1289.0645-.1289.1002-.2149.1647-.2578.1933-.0287.0143-.0573.043-.086.086-.0429-.0144-.0859-.0072-.1289.0214-.0429.0287-.0788.0502-.1074.0645-.1576.1003-.2506.1504-.2793.1504-.0143 0-.0358.0143-.0644.043-.086.0716-.1504.1074-.1934.1074-.0287 0-.0573.0143-.0859.0429-.0573.0287-.1146.0645-.1719.1075-.0573.0286-.1146.0573-.1719.0859-.0573.043-.1074.0716-.1504.0859-.043 0-.0931.0144-.1504.043-.1002.0573-.1575.0931-.1719.1074 0 .0144-.0143.0215-.0429.0215-.1432.0287-.222.043-.2363.043 0 .0143-.0072.0215-.0215.0215-.1576.0716-.2364.1074-.2364.1074-.1002.0286-.1862.0573-.2578.0859-.1575.0716-.2363.1075-.2363.1075-.0859.0429-.1576.0644-.2148.0644-.043 0-.0788.0072-.1075.0215-.1575.0286-.2649.043-.3222.043-.043.0143-.086.0214-.1289.0214-.1719.0144-.2865.0215-.3438.0215-.043.0144-.0859.0287-.1289.043-.1432.0143-.222.0358-.2363.0645-.0716-.0144-.1647-.0215-.2793-.0215-.1862-.0144-.3008-.0144-.3438 0-.0429.0143-.0859.0215-.1289.0215-.1146 0-.2435-.0144-.3867-.043-.1003.0143-.179.0143-.2363 0-.043-.0143-.1003-.0072-.1719.0215-.0573-.0287-.1146-.043-.1719-.043-.0429 0-.1002-.0072-.1718-.0215l-.2364-.0215c-.2148-.0143-.3724-.0429-.4726-.0859-.0287-.0143-.0645-.0215-.1075-.0215-.0429.0143-.1002.0143-.1718 0-.2149-.043-.3581-.0788-.4297-.1074-.0573-.0287-.1218-.0573-.1934-.0859-.1146-.043-.2363-.0717-.3652-.086-.1003-.043-.1576-.0644-.1719-.0644-.0143.0143-.0358.0143-.0644 0-.1289-.0717-.2006-.1075-.2149-.1075-.0143.0144-.0358.0144-.0644 0-.1289-.0429-.2006-.0716-.2149-.0859-.0143-.0286-.0358-.0501-.0644-.0645-.1289-.0286-.2149-.0501-.2578-.0644-.043-.0143-.0788-.0287-.1075-.043-.1289-.0573-.2076-.0931-.2363-.1074-.0143-.0143-.043-.0286-.0859-.043-.1289-.0573-.2077-.0931-.2364-.1074-.0286-.0286-.0501-.0501-.0644-.0644-.1576-.0573-.2507-.0931-.2793-.1075-.0287-.0143-.0573-.0214-.0859-.0214-.0287-.043-.0645-.0717-.1075-.086-.0429-.0286-.0787-.0573-.1074-.0859-.043-.0287-.0859-.0573-.1289-.086-.0286-.0286-.0573-.0573-.0859-.0859-.086-.043-.1361-.0644-.1504-.0644-.0143-.0144-.0358-.0359-.0645-.0645-.1432-.1003-.222-.1504-.2363-.1504-.0143-.0143-.0358-.0286-.0645-.043-.1289-.0859-.1933-.1575-.1933-.2148-.1432-.0859-.2292-.1289-.2578-.1289-.0287-.0143-.0502-.0287-.0645-.043-.1002-.1146-.1575-.1647-.1719-.1504-.0143 0-.0214-.0071-.0214-.0215-.1003-.0859-.1648-.136-.1934-.1503-.0287-.0144-.0573-.0359-.0859-.0645-.086-.1146-.1576-.1862-.2149-.2148-.0286-.0287-.0573-.0573-.0859-.086-.0143-.0429-.0358-.0788-.0645-.1074-.0859-.0716-.1504-.1289-.1933-.1719-.0287-.0573-.0573-.1217-.086-.1933-.1002-.086-.1504-.1361-.1504-.1504 0-.0287-.0143-.0573-.0429-.086-.0716-.1002-.1218-.1647-.1504-.1933-.0143-.043-.0287-.0788-.043-.1074-.0573-.1146-.0931-.1791-.1074-.1934s-.0358-.0358-.0645-.0645c-.0716-.1575-.1217-.2506-.1504-.2793-.0286-.0286-.0572-.0572-.0859-.0859-.0716-.1719-.1146-.2721-.1289-.3008-.0143-.0286-.0358-.0573-.0645-.0859-.0286-.0716-.0501-.1361-.0644-.1934-.0143-.0716-.043-.136-.0859-.1933-.0287-.1003-.043-.1647-.043-.1934 0-.043-.0072-.0788-.0215-.1074-.0286-.0716-.0573-.1504-.0859-.2363-.0287-.1003-.0502-.2006-.0645-.3008-.043-.2292-.0716-.3796-.0859-.4512-.0143-.0859-.0287-.1862-.043-.3008-.0286-.1432-.043-.2291-.043-.2578 0-.1432-.0071-.2363-.0214-.2793 0-.043 0-.0788 0-.10741-.0144-.21484-.0287-.35091-.043-.4082s-.0215-.12891-.0215-.21484c0-.14323.0072-.21485.0215-.21485.0286-.01432.0358-.02864.0215-.04297-.0287-.07161-.0358-.13606-.0215-.19335.0286-.07162.043-.14323.043-.21485-.0144-.11458-.0215-.19336-.0215-.23633.0143-.04297.0215-.08593.0215-.1289v-.2793c.0572-.21484.0859-.34375.0859-.38672.0143-.05729.0286-.12174.043-.19336l.0429-.23633c.043-.18619.0716-.29362.086-.32226.0716-.17188.1074-.26498.1074-.2793 0-.02864.0071-.05729.0215-.08594.0573-.11458.0931-.17903.1074-.19336.0143-.01432.0215-.0358.0215-.06445.0143-.04297.0143-.08594 0-.1289 0-.04297.0143-.08594.0429-.12891.086-.14323.1433-.22917.1719-.25781.0573-.11459.086-.1862.086-.21485 0-.02864.0071-.05729.0214-.08593.0287-.02865.0573-.06446.086-.10743.0286-.04297.0573-.07877.0859-.10742.0716-.14323.1218-.25781.1504-.34375.043-.08594.0859-.16471.1289-.23633.0716-.10026.1003-.15755.086-.17187 0-.01432.0071-.02865.0214-.04297.1003-.12891.1576-.20052.1719-.21484.0143-.02865.0287-.0573.043-.08594.1002-.11459.1933-.20052.2793-.25781.1002-.15756.1647-.25066.1933-.2793.0287-.02865.0573-.05729.086-.08594.0429-.04297.0716-.10026.0859-.17187.1289-.12891.2077-.22201.2363-.2793.043-.05729.086-.11458.1289-.17188.1003-.11458.1719-.17903.2149-.19335.043-.01433.0716-.05014.0859-.10743l.2149-.10742c.1002-.05729.179-.11458.2363-.17187.0573-.0573.1361-.10026.2363-.12891.1576-.10026.2364-.14323.2364-.12891.0716-.05729.1145-.08593.1289-.08593.0286-.01433.0573-.02865.0859-.04297.0859-.08594.1647-.14323.2363-.17188.1289-.08594.2005-.1289.2149-.1289.0143 0 .0358-.00717.0644-.02149.1003-.05729.1647-.08594.1934-.08594.0286-.01432.0573-.0358.0859-.06445.1576-.07161.265-.1289.3223-.17187s.1217-.07878.1933-.10743c.129-.02864.2006-.05013.2149-.06445.0143-.02864.0358-.02864.0644 0 .0287-.05729.0717-.08594.1289-.08594.0573-.01432.1218-.0358.1934-.064449.0716-.042969.1218-.064453.1504-.064453s.0573-.007162.0859-.021485c.1146-.042969.2077-.057292.2793-.042969.0716 0 .1433-.007161.2149-.021484.1289-.028646.2077-.05013.2363-.064453.0287-.014323.0573-.021485.0859-.021485.1433 0 .2364-.007161.2793-.021484.043-.014323.0788-.021484.1075-.021484.1575-.014323.2435-.021485.2578-.021485.0286-.014323.0573-.021484.0859-.021484.1862 0 .3151-.007161.3867-.021484.2149-.028646.3867-.007162.5157.064453zm.4082 3.544926c-.1433.02864-.2292.02864-.2579 0-.1289.01432-.2148.0358-.2578.06445-.0429.02864-.0787.05729-.1074.08594-.1146.05729-.2077.0931-.2793.10742-.043.02864-.0931.05013-.1504.06445-.0429.01432-.0716.05729-.0859.12891-.1432.05729-.2363.10742-.2793.15039-.1289.08594-.2005.1289-.2149.1289 0 0-.0071.00717-.0214.02149-.086.07161-.1433.12174-.1719.15039-.0287.02865-.0573.05013-.086.06445-.1002.05729-.1575.10026-.1718.12891 0 .01432-.0072.02864-.0215.04297-.0716.07161-.1146.12174-.1289.15039-.0143.01432-.0358.03581-.0645.06445l-.1718.21484c-.043.04297-.086.08594-.129.12891-.0429.04297-.0931.08594-.1503.12891l-.2364.25781c-.0716.12891-.1074.20052-.1074.21484-.1003.15756-.1575.23633-.1719.23633 0 0-.0071.00716-.0215.02149-.0859.14323-.1432.25781-.1718.34375-.0716.10026-.1289.17903-.1719.23632-.0286.0573-.0573.11459-.0859.17188-.043.12891-.0645.20052-.0645.21484 0 .01433-.0072.02865-.0215.04297-.0716.14323-.1074.22917-.1074.25781.0143.01433.0143.03581 0 .06446-.0716.14323-.1146.222-.1289.23633-.0287.18619-.0501.30078-.0645.34375v.10742c-.0572.21484-.0859.35807-.0859.42968-.0143.07162-.0072.17904.0215.32227 0 .05729-.0072.11458-.0215.17188 0 .04296.0072.09309.0215.15039 0 .05729.0072.10744.0215.15034.0143.043.0286.0931.0429.1504l.043.2364c.0573.1575.0931.2721.1074.3437.0287.0573.0573.1146.086.1719.0716.1719.1074.265.1074.2793s.0072.0358.0215.0644c.0286.0717.0788.1433.1504.2149.0286.0573.0501.1074.0644.1504.0287.0429.0573.0931.086.1504.1002.1432.1503.222.1503.2363.0144.0143.0287.0286.043.043.1146.1432.1791.222.1934.2363.0143 0 .0286.0143.0429.043.0287.0429.0645.0859.1075.1289.0429.0429.0716.0931.0859.1504l.2148.1718c.1003.1003.1504.1719.1504.2149.1289.1002.2006.1504.2149.1504.1289.0859.2077.1289.2363.1289.1146.0859.179.1432.1934.1718.0143.0144.0358.0287.0644.043.086.0573.1361.1003.1504.1289.0143.0287.0501.043.1074.043.0717.0716.1218.1217.1504.1504.0287.0143.0573.0286.086.0429.1718.1146.2864.1862.3437.2149.0716.0143.1218.043.1504.0859.0573.0144.1074.0287.1504.043s.0931.0358.1504.0645c.0859.0286.1504.0501.1933.0644.0573.0143.1003.0287.129.043h.2363l.2793-.086c.1289-.0716.2005-.1002.2148-.0859.0287 0 .0502-.0072.0645-.0215.0859-.0286.1432-.043.1718-.043.0287-.0143.0645-.0286.1075-.0429.1146-.0573.179-.0931.1933-.1074.0144-.0287.0358-.0502.0645-.0645.1146-.0859.1719-.1289.1719-.1289 0-.0143.0071-.0215.0214-.0215.043-.0573.0788-.1002.1075-.1289.0429-.043.0859-.0859.1289-.1289.1002-.0859.1504-.1289.1504-.1289.0143 0 .0286-.0072.0429-.0215.1289-.1003.2077-.1719.2364-.2148.0429-.043.0931-.086.1503-.1289.086-.086.1576-.1433.2149-.1719.1003-.1003.1575-.1576.1719-.1719.0286-.0286.0573-.0644.0859-.1074.043-.0573.0788-.1074.1074-.1504.0573-.043.1074-.0859.1504-.1289s.0788-.0788.1074-.1074c.0573-.1003.0931-.1719.1075-.2149.0286-.0429.0501-.0931.0644-.1504.043-.0143.0788-.0358.1074-.0644.0287-.0287.0573-.0573.086-.086.0143-.0429.0286-.0787.0429-.1074.0144-.0429.0287-.0859.043-.1289.0573-.1146.0931-.2005.1074-.2578.043-.1289.0645-.2363.0645-.3223l.043-.3007c.0286-.043.0501-.0788.0644-.1075.0287-.0429.043-.0859.043-.1289.0143-.0573.0143-.1146 0-.1718 0-.0717.0071-.1433.0215-.21489.0429-.1862.0644-.30078.0644-.34375 0-.05729 0-.10742 0-.15039-.0286-.21485-.043-.36524-.043-.45117.0144-.08594.0144-.16472 0-.23633-.0143-.15755-.0358-.25781-.0644-.30078-.0143-.05729-.0287-.10742-.043-.15039-.0429-.17188-.0644-.29362-.0644-.36524-.0573-.14323-.1003-.22916-.1289-.25781.0143-.07161 0-.13607-.043-.19336-.043-.07161-.0788-.14323-.1074-.21484-.0287-.10026-.0502-.15756-.0645-.17188 0-.02864 0-.05013 0-.06445-.0716-.08594-.1146-.13607-.1289-.15039 0-.02865-.0143-.06445-.043-.10742l-.1289-.25782c-.0859-.15755-.1289-.25065-.1289-.27929.0144-.02865.0072-.05729-.0215-.08594-.1002-.11458-.1647-.17188-.1933-.17188l-.2149-.25781c-.1002-.15755-.1718-.25065-.2148-.27929-.0286-.04297-.0573-.07878-.0859-.10743-.1289-.1289-.2077-.20768-.2364-.23633-.0429-.02864-.0859-.05729-.1289-.08593-.0286-.02865-.0573-.05729-.0859-.08594-.1432-.11458-.2363-.17904-.2793-.19336s-.0788-.03581-.1074-.06445c-.1003-.10026-.1576-.14323-.1719-.12891-.0143 0-.0358-.00716-.0645-.02148-.1002-.05729-.1933-.10026-.2793-.12891-.2291-.02865-.401-.06445-.5156-.10742-.1002-.04297-.2077-.06445-.3222-.06445zm20.6035 7.64843c.0143.0716.0358.1217.0644.1504.043.0286.0788.0644.1074.1074.0287.0287.043.0716.043.1289.0143.043.0287.0788.043.1074.0859.1146.1361.1862.1504.2149.0143.0143.0358.0358.0644.0644.1289.2292.2077.3653.2364.4082l.1289.2364c.0573.1575.1074.2649.1504.3222.0716.1719.1145.2578.1289.2578.1002.1003.1504.1648.1504.1934 0 .0143.0143.0287.0429.043.043.0286.0788.0716.1074.1289.0287.043.0573.0788.086.1074.0859.0859.136.1432.1504.1719.0143.0286.0286.0644.0429.1074.1146.1576.1862.265.2149.3223.043.0429.0788.0859.1074.1289.1003.1146.1504.179.1504.1933.1003.086.1647.1433.1934.1719.0429.0143.0787.0358.1074.0645.0429.1432.0788.2291.1074.2578.0716.0716.1217.136.1504.1933.043.0573.0859.1146.1289.1719s.0859.1074.1289.1504.0788.1003.1074.1719c.0143.0716.0143.1432 0 .2148 0 .0716-.0071.1432-.0215.2149-.1289.1002-.2005.1575-.2148.1718-.1719.0573-.2578.086-.2578.086-.2005.0429-.3294.0573-.3867.0429-.0573 0-.1146.0072-.1719.0215-.0716 0-.1432 0-.2149 0-.0572 0-.1074.0072-.1503.0215-.1433-.0143-.2364-.0215-.2793-.0215-.043.0144-.0931.0215-.1504.0215-.2578-.043-.4297-.0644-.5157-.0644-.0859.0143-.1933.0214-.3222.0214-.1576.0144-.2364.0215-.2364.0215 0 .0144-.0143.0215-.0429.0215-.0573-.0143-.1074-.0215-.1504-.0215-.043.0144-.0788.0215-.1074.0215-.2292-.0143-.4082-.0143-.5371 0h-.3223c-.1146-.0286-.2005-.043-.2578-.043-.0716-.0143-.1432-.0214-.2149-.0214-.0573.0143-.1217.0143-.1933 0-.1289-.0717-.222-.1075-.2793-.1075-.0716-.1145-.1504-.2148-.2363-.3007-.086-.1003-.1576-.222-.2149-.3653-.1003-.0573-.1647-.1647-.1934-.3222-.0286-.086-.0644-.1648-.1074-.2364-.0286-.0859-.0573-.179-.0859-.2793-.043-.1575-.0716-.2506-.0859-.2793-.043-.0716-.0645-.1217-.0645-.1504 0-.0286-.0072-.0572-.0215-.0859-.0286-.043-.0501-.0788-.0644-.1074 0-.043-.0144-.0931-.043-.1504-.0287-.0859-.0501-.1432-.0645-.1719-.0143-.0286-.0358-.0573-.0644-.0859-.0573-.1003-.0931-.1576-.1074-.1719-.0144-.0143-.0287-.0358-.043-.0644-.0573-.1146-.0931-.1934-.1074-.2364-.0716-.1432-.1146-.222-.1289-.2363-.0573-.1003-.0931-.179-.1075-.2363-.0143-.0716-.0501-.1218-.1074-.1504-.0143-.0716-.0644-.1647-.1504-.2793-.0573-.1289-.1002-.2077-.1289-.2363-.0286-.0287-.0716-.0359-.1289-.0215-.0286-.1146-.0859-.1504-.1719-.1075-.0859.043-.1074.1218-.0644.2364-.0287.0716-.0358.1575-.0215.2578.0143.0859.0215.1719.0215.2578-.0143.0859-.0287.179-.043.2793 0 .0859-.0071.1719-.0215.2578v.3008l-.0429.3867c0 .1289-.0072.2149-.0215.2578-.0143.043-.0143.1003 0 .1719.0143.1719.0215.2578.0215.2578l.0429.4082c.0144.043.0287.086.043.1289.0143.043.0215.0788.0215.1074.0143.0717.0286.1433.043.2149.0143.0573.0071.1217-.0215.1933-.0573.1003-.086.1576-.086.1719s-.0071.0287-.0214.043c-.1146.1432-.1719.2077-.1719.1933 0-.0143-.0072-.0214-.0215-.0214-.1289.0429-.2005.0716-.2148.0859-.0144.0286-.0359.0501-.0645.0645-.1146.0429-.2005.0572-.2578.0429-.043 0-.1003 0-.1719 0-.2005 0-.3366-.0071-.4082-.0215-.0573-.0143-.1217-.0071-.1934.0215-.1145-.0286-.2291-.0358-.3437-.0215-.1146.0144-.2363.0287-.3652.043-.1433.0143-.2865.0143-.4297 0-.1289 0-.2507.0143-.3653.043-.1575.0429-.2363.0573-.2363.0429 0 0-.0071 0-.0215 0-.1146.0287-.1862.0359-.2148.0215-.0143 0-.0358.0072-.0645.0215-.1146.0143-.1933.0215-.2363.0215s-.0788 0-.1074 0c-.1289.0143-.2435.0215-.3438.0215-.1002.0143-.1718.0215-.2148.0215-.1576-.0573-.2435-.086-.2578-.086-.0143.0144-.0287.0072-.043-.0215-.0716-.0143-.1289-.0358-.1719-.0644-.0286-.0287-.0787-.0573-.1504-.0859l-.1289-.2149c-.1002-.1003-.1504-.1647-.1504-.1934 0-.0286-.0143-.0572-.0429-.0859-.0143-.0573-.0287-.1002-.043-.1289 0-.043-.0072-.0859-.0215-.1289-.0143-.0859-.0215-.1432-.0215-.1719 0-.0429 0-.0788 0-.1074-.0143-.043-.0214-.1003-.0214-.1719 0-.0859 0-.1432 0-.1718 0-.0573 0-.1003 0-.129.0143-.0429.0214-.0859.0214-.1289 0-.0286 0-.0644 0-.1074 0-.0573.0072-.1002.0215-.1289.0573-.1719.086-.2721.086-.3008 0-.0286.0071-.0644.0214-.1074 0-.0286 0-.0788 0-.1504s.0072-.1289.0215-.1719c.0287-.1432.0358-.2363.0215-.2793 0-.0429.0072-.0787.0215-.1074.0143-.0859.0215-.1575.0215-.2148.0143-.0716.0358-.1218.0644-.1504-.0286-.0716-.0429-.1504-.0429-.2363.0143-.086.0215-.1648.0215-.2364 0-.1575 0-.3079 0-.4511.0143-.1433.0214-.2722.0214-.3868 0-.1002 0-.179 0-.2363s0-.1146 0-.1719c.0144-.0573.0215-.1145.0215-.1718.0143-.1003.0143-.1934 0-.2793 0-.086.0072-.1862.0215-.3008 0-.0716.0143-.1361.043-.1934.0286-.0716.0429-.1432.0429-.2148l-.0214-.6875v-.45119-.30078-.34375-.34375c-.0287-.08594-.043-.15755-.043-.21484.0143-.07162.0072-.12891-.0215-.17188.043-.07161.0501-.14323.0215-.21484-.0143-.07162-.0215-.14323-.0215-.21485v-.5371c-.0143-.11459-.0215-.19336-.0215-.23633-.0429-.11459-.0644-.17904-.0644-.19336.0143-.01432.0215-.02865.0215-.04297 0-.15755 0-.24349 0-.25781l-.0215-.25782c0-.07161 0-.13606 0-.19335.0143-.07162.0215-.1504.0215-.23633.0143-.11459.0143-.17904 0-.19336-.0144-.01433-.0215-.03581-.0215-.06446.0143-.18619.0143-.30078 0-.34375 0-.05729 0-.10742 0-.15039s0-.10026 0-.17187c.0143-.07162.0143-.14323 0-.21484.0143-.10027.0071-.19336-.0215-.2793-.0143-.08594-.0358-.17188-.0645-.25781 0-.10026-.0071-.15756-.0215-.17188-.0143-.02865-.0214-.05013-.0214-.06445-.0287-.08594-.043-.16472-.043-.23633 0-.08594 0-.19336 0-.32227 0-.05729 0-.12174 0-.19336 0-.07161-.0143-.1289-.043-.17187.0143-.04297.0143-.08594 0-.12891s-.0143-.07877 0-.10742c0-.04297 0-.08594 0-.1289.0143-.04297.0215-.08594.0215-.12891 0-.11458.0072-.20052.0215-.25781.043-.27214.0859-.4655.1289-.58008.043-.04297.0788-.08594.1074-.12891.0287-.04297.0573-.08594.086-.1289.1432-.11459.222-.17904.2363-.19336.0286-.01433.0573-.03581.0859-.06446.1146-.02864.1791-.05013.1934-.06445.0286-.02865.0644-.04297.1074-.04297.0287 0 .0645.00716.1074.02149h.1289c.0716-.01433.1361-.02149.1934-.02149.0573-.01432.1217-.02148.1934-.02148.0716 0 .136.00716.1933.02148s.1218.02149.1934.02149c.0716.01432.136.01432.1933 0 .0716-.01433.1433-.01433.2149 0 .1146.01432.1933.02148.2363.02148.0573-.01432.1074-.02148.1504-.02148.0573.01432.1074.02864.1504.04296.0573.01433.1217.02865.1933.04297h.1075c.0429-.01432.0859-.02148.1289-.02148.1002-.01432.1575-.01432.1718 0h.0645c.1719-.02865.2721-.03581.3008-.02149h.1289.1719c.0143-.01432.0358-.02148.0644-.02148.1289.02865.2077.05013.2363.06445h.086c.0573-.01432.1146-.02864.1719-.04297.0572-.01432.1289-.01432.2148 0 .0859.01433.1432.01433.1719 0 .0429-.01432.0787-.02864.1074-.04296.1003.01432.1862.02148.2578.02148.0859-.01432.1576-.02148.2149-.02148.2005.02864.3294.04296.3867.04296s.1575-.01432.3008-.04296h.2792l.4083-.06446h.2578c.0429-.01432.0931-.02148.1504-.02148.0286 0 .0644.00716.1074.02148h.1289c.2148-.02864.3509-.0358.4082-.02148.0716.01432.1504.01432.2363 0 .043 0 .086-.00716.1289-.02149.043-.01432.0931-.00716.1504.02149h.1074c.0287-.01432.0716-.02149.1289-.02149h.1934c.0573 0 .1217.00717.1934.02149.2291.01432.4225.05729.58.1289.0573.02865.1075.04297.1504.04297.0573 0 .1003.00716.1289.02149l.4942.23633c.0286.07161.0787.15039.1504.23632.0286.02865.0573.06446.0859.10743.0286.04296.0645.07877.1074.10742.086.14323.1433.222.1719.23633.0716.07161.1361.15755.1934.25781.0716.08594.1432.16471.2148.23633 0 .04297.0072.08593.0215.1289s.0286.07878.043.10742c.0286.0573.0572.10743.0859.15039.043.04297.0644.10027.0644.17188.0717.07161.129.15039.1719.23633.043.08594.1003.16471.1719.23633 0 .04296.0143.08593.043.1289.0286.02865.0501.06446.0644.10742.086.11459.1289.19336.1289.23633.0573.08594.0931.14323.1074.17188.0287.02864.0573.06445.086.10742.0716.11458.1074.17904.1074.19336s.0072.02864.0215.04297c.1002.17187.1647.27929.1933.32226.043.02865.0788.07162.1075.12891l.0859.23633c.0716.05729.1146.11458.1289.17187.0287.04297.0573.08594.086.12891.0286.05729.0501.11458.0644.17187.0287.04297.0573.10026.0859.17188.0717.15755.1003.25065.086.2793 0 .02864.0071.05729.0215.08593.0143.07162.0214.12891.0214.17188s.0072.10026.0215.17187l.0215.25782c.0143.08593.0287.14322.043.17187s.0215.05729.0215.08594l-.0215.23633c.0143.15755.0071.26497-.0215.32226-.0286.04297-.0501.07878-.0645.10742-.0429.17188-.0716.27214-.0859.30079-.0143.01432-.0286.04296-.043.08593l-.1074.21485c-.0573.14323-.0931.222-.1074.23632v.02149c-.0859.11458-.1504.19336-.1934.23633-.0286.04297-.0501.08593-.0644.1289 0 .02865-.0143.07162-.043.12891-.0573.04297-.0931.08594-.1074.12891-.0143.04296-.0358.07877-.0645.10742-.0429.10026-.1002.1862-.1718.25781s-.1289.16471-.1719.27925c-.1146.1003-.1934.1791-.2363.2364-.0287.0429-.0645.0931-.1075.1504-.0286.0286-.0572.0573-.0859.0859-.0286.0286-.0573.0573-.0859.0859-.1003.1433-.1576.2149-.1719.2149s-.0287.0071-.043.0215c-.0859.1002-.1289.1718-.1289.2148-.1432.0716-.222.1146-.2363.1289 0 0-.0072 0-.0215 0-.0286.0287-.0573.0573-.0859.086-.0287.0143-.0645.0358-.1075.0644-.1289.0859-.2076.1361-.2363.1504-.0286.0143-.0573.0358-.0859.0645-.1146 0-.2005.0286-.2578.0859-.043.0573-.1146.1074-.2149.1504-.0429.0286-.0931.0501-.1504.0644-.0573 0-.1217.0144-.1933.043zm-4.2969-2.32031c.1432.02865.2363.02865.2793 0 .043-.04297.0931-.07878.1504-.10742.043-.02865.0859-.05729.1289-.08594.043-.04297.0859-.07161.1289-.08594.1146-.04297.1719-.07877.1719-.10742.0143-.02864.0358-.05729.0644-.08594.1289-.07161.1862-.11458.1719-.1289s-.0072-.02865.0215-.04297c.0859-.04297.1361-.07878.1504-.10742.0143-.02865.0358-.04297.0644-.04297.0716-.12891.1576-.20768.2578-.23633.043-.07161.0931-.12891.1504-.17187.0573-.04297.1218-.08594.1934-.12891.1289-.07162.2077-.12175.2363-.15039.1432-.10026.2149-.14323.2149-.12891.0143 0 .0286-.00716.0429-.02148.0287-.08594.0716-.15755.1289-.21485.0573-.07161.1003-.15755.1289-.25781.043-.08594.0573-.17187.043-.25781 0-.08594-.0071-.15039-.0215-.19336-.0573-.07161-.0859-.11458-.0859-.12891 0-.02864-.0072-.05729-.0215-.08593-.0573-.15756-.0931-.24349-.1074-.25782 0-.01432 0-.02864 0-.04297-.1289-.22916-.2149-.37239-.2578-.42968-.1003-.15755-.1504-.25065-.1504-.2793 0-.04297-.0072-.07878-.0215-.10742-.0859-.11458-.1289-.19336-.1289-.23633-.0859-.08594-.1432-.17187-.1719-.25781-.0143-.08594-.0501-.16472-.1074-.23633-.043-.15755-.0645-.23633-.0645-.23633-.0286-.07161-.0572-.14323-.0859-.21484-.0286-.07162-.0501-.14323-.0644-.21485-.0573-.02864-.0931-.06445-.1075-.10742-.0143-.04297-.0358-.07877-.0644-.10742-.1003-.10026-.1791-.17187-.2364-.21484-.0429-.05729-.0931-.10743-.1503-.15039-.1003-.10026-.1504-.15039-.1504-.15039 0-.01433-.0072-.02865-.0215-.04297-.2292-.11459-.3939-.14323-.4942-.08594l-.2363.10742c-.0573.10026-.0931.1862-.1074.25781-.043.12891-.0645.22917-.0645.30079.0144.05729.0144.12174 0 .19335 0 .0573-.0071.12175-.0214.19336 0 .0573.0071.10743.0214.15039.0144.1862.0144.30795 0 .36524-.0143.04297-.0286.10026-.0429.17187 0 .11459-.0072.17904-.0215.19336v.06446.23632c0 .07162-.0072.14323-.0215.21485-.043.15755-.0645.27213-.0645.34375.0144.07161.0144.15039 0 .23633-.0429.24349-.0644.4082-.0644.49414v.23632c.0143.12891.0143.20769 0 .23633v.04297.25781c.0143 0 .0215.00717.0215.02149v.4082.15039c.0143.02865.0215.05729.0215.08594-.043.17187-.0645.30794-.0645.4082.0143.08594.0072.16472-.0215.23633.043.14323.0645.23633.0645.2793.0859.08594.136.15039.1504.19336.0286.02864.0573.05729.0859.08594zm21.2051-4.21094c-.1289.07162-.2364.11459-.3223.12891-.1002 0-.1719-.00716-.2148-.02148-.0287-.02865-.0645-.04297-.1075-.04297-.0572-.01433-.1217-.02865-.1933-.04297-.0573-.01433-.1003-.03581-.1289-.06446-.086 0-.1791-.02148-.2793-.06445-.1432-.01432-.2149-.02148-.2149-.02148 0-.01433-.0071-.02149-.0214-.02149-.0573-.01432-.129-.01432-.2149 0-.0859.01433-.1647.02149-.2363.02149-.0287 0-.0645-.00716-.1074-.02149-.043-.01432-.1003-.02148-.1719-.02148-.1146.01432-.2005.02148-.2578.02148-.0573-.01432-.1146-.02148-.1719-.02148-.1576.02864-.265.03581-.3223.02148-.0429-.02864-.0787-.04297-.1074-.04297-.1146.01433-.2148.02149-.3008.02149-.0859-.01432-.1647-.02149-.2363-.02149h-.4082c-.0716.01433-.1432.02865-.2148.04297-.0573 0-.1218-.00716-.1934-.02148-.1432-.01432-.2793-.02865-.4082-.04297s-.2578-.02149-.3867-.02149c-.086 0-.1719.00717-.2578.02149-.086 0-.1791.00716-.2793.02148-.043 0-.0931 0-.1504 0s-.1074.00717-.1504.02149c-.1576.07161-.265.11458-.3223.1289-.043 0-.0859.00717-.1289.02149-.0716.04297-.1146.14323-.1289.30078s-.0286.3151-.043.47266v.42968c.0144.15756.0358.31511.0645.47266.0573.12891.1002.19336.1289.19336.043-.01432.0788-.02149.1074-.02149.086 0 .1361.00717.1504.02149h.0859c.0287.01432.0645.02148.1075.02148.0429 0 .0859.00717.1289.02149h.3222c.0573-.01432.1146-.00716.1719.02148.0716.01433.1289.02149.1719.02149s.0788-.00716.1074-.02149c.0573 0 .1146-.00716.1719-.02148.0716-.01432.1361-.02149.1933-.02149.0717 0 .1361.00717.1934.02149.0573 0 .1289.00716.2148.02148.0717 0 .1218.00716.1504.02149.043 0 .0788-.00716.1075-.02149h.1289c.0429-.01432.0859-.02148.1289-.02148.2005-.01432.358-.03581.4726-.06446.1862.01433.2936.02149.3223.02149.043-.01432.1003-.02149.1719-.02149.1718-.02864.3079-.0358.4082-.02148.1002 0 .179-.01432.2363-.04297.043.01432.0859.02865.1289.04297s.0788.02148.1074.02148c.0287 0 .0645-.00716.1075-.02148.0429-.02865.0859-.04297.1289-.04297.0429 0 .0859.01432.1289.04297.0429.01432.0931.00716.1504-.02148.1289.02864.2076.05013.2363.06445.0286 0 .0573-.00716.0859-.02149.0143.04297.0358.07878.0645.10743.0286.01432.0573.04297.0859.08593.0573.22917.0859.39388.0859.49414 0 .08594-.0143.1862-.0429.30079-.0143.20052-.0287.32226-.043.36523s-.0358.0931-.0644.15039c-.043.11458-.0645.19336-.0645.23633.0143.02865.0143.05729 0 .08594-.0573.11458-.0859.19336-.0859.23632-.0144.17188-.043.28646-.086.34376 0 .04296-.0071.09309-.0215.15039-.0143.04296-.0143.09309 0 .15039-.0572.17184-.0859.28644-.0859.34374.0143.043.0143.0931 0 .1504-.0573.1146-.0931.1934-.1074.2363-.0143.0287-.0287.0573-.043.086-.043.1145-.1002.2291-.1719.3437-.1289.0716-.2076.1074-.2363.1074-.043 0-.0931 0-.1504 0-.0429-.0143-.1002-.0215-.1719-.0215-.2005-.0143-.3222-.0286-.3652-.0429-.043-.0287-.0931-.043-.1504-.043-.1719.0287-.2793.0358-.3222.0215-.043-.0143-.0788-.0215-.1075-.0215-.1289 0-.2148-.0071-.2578-.0215-.0286-.0143-.0573-.0286-.0859-.0429-.1576 0-.2721.0071-.3438.0214-.0716 0-.1432-.0143-.2148-.0429-.1719.0143-.3008-.0072-.3867-.0645-.0716.0287-.1433.0358-.2149.0215-.0573-.0286-.1074-.0573-.1504-.0859-.1145 0-.2291 0-.3437 0-.1003-.0144-.2005-.0215-.3008-.0215-.1719-.0287-.2865-.0358-.3437-.0215-.043.0143-.0788.0215-.1075.0215-.0429.0143-.0859.0215-.1289.0215-.0429-.0144-.0859-.0215-.1289-.0215-.0429.0143-.0859.0286-.1289.043-.0286 0-.0644-.0072-.1074-.0215 0 .0573-.0072.1146-.0215.1718 0 .0573.0072.1146.0215.1719.0716.1719.1003.2936.0859.3653-.0143.0572-.0215.1145-.0215.1718.0144.0573.0215.1433.0215.2578v.2364.1289c.0144.0286.0215.0644.0215.1074s-.0071.0859-.0215.1289v.1074c.0573.0287.1003.043.1289.043.043-.0143.1003-.0143.1719 0h.1289c.0573-.0143.1218-.0287.1934-.043h.1289c.043-.0143.0788-.0215.1074-.0215.0716 0 .1289.0072.1719.0215.0573.0143.1074.0215.1504.0215h.1074c.043-.0143.0859-.0286.1289-.043.1003-.0143.1647-.0143.1934 0 .0429 0 .0859.0072.1289.0215.1432-.0143.222-.0215.2363-.0215h.1719c.0859 0 .1647.0072.2363.0215.1432.0287.222.043.2363.043.1576-.0287.2435-.0358.2578-.0215h.0645c.1719-.0286.2793-.0358.3223-.0215h.1074.6015c.1146-.0143.222-.0215.3223-.0215.1146-.0143.2149-.0358.3008-.0644l.3437-.043c.043.0143.0931.0143.1504 0 .0716-.0143.1218-.0286.1504-.043.1719-.0143.2793-.0358.3223-.0644.0573-.0286.1074-.043.1504-.043.0429-.0143.0788-.0215.1074-.0215.043 0 .0931-.0071.1504-.0214.1289-.0287.2148-.0645.2578-.1075.0573-.0429.1217-.0286.1934.043.1145.0573.1647.1146.1504.1719-.0144.0429-.0144.0716 0 .0859l.1074.2363c.0286.1003.0429.1648.0429.1934.0144.0143.0287.0501.043.1074v.8379l-.043.3867c.0287.1289.0358.2579.0215.3868v.3437c.0143.2148.0358.3796.0645.4941-.0143.1576-.0215.2937-.0215.4083.0143.1002.0286.1861.043.2578.0143.0859.0214.1575.0214.2148.0144.043.0072.1218-.0214.2363-.043.1003-.0717.1719-.086.2149-.0143.0429-.0429.0788-.0859.1074-.0287.1146-.0859.1862-.1719.2148-.0859.0287-.2077.0502-.3652.0645-.086 0-.1719.0072-.2578.0215-.0716.0143-.1433.0143-.2149 0-.0573 0-.1146-.0072-.1719-.0215-.0572-.0143-.1217-.0215-.1933-.0215h-.3223c-.1002-.0286-.1719-.043-.2148-.043-.0287.0144-.0573.0144-.086 0-.1718-.0143-.2793-.0286-.3222-.0429-.043-.0143-.0788-.0287-.1074-.043-.1003-.0143-.1934-.0143-.2793 0-.086.0143-.1719.0215-.2579.0215-.1575 0-.2363 0-.2363 0 0 .0143-.0071.0215-.0215.0215-.1432.0143-.2363.0143-.2793 0-.0429-.0143-.0859-.0215-.1289-.0215-.0429 0-.0931 0-.1504 0-.0429.0143-.0859.0215-.1289.0215-.0429 0-.0859-.0072-.1289-.0215-.0429-.0143-.0859-.0215-.1289-.0215-.0429-.0143-.0931-.0215-.1504-.0215-.0429.0143-.0931.0215-.1504.0215-.1289-.0143-.2005-.0215-.2148-.0215-.0143.0143-.0358.0215-.0645.0215-.2148.0143-.3652.0215-.4511.0215-.0716.0143-.1504.0143-.2364 0-.1145 0-.1862 0-.2148 0-.0143.0143-.0358.0286-.0645.043-.1289.0143-.2148.0143-.2578 0-.0286-.0144-.0573-.0215-.0859-.0215-.1576-.0143-.2435-.0143-.2578 0 0 .0143-.0215.0215-.0645.0215-.1862 0-.3079-.0072-.3652-.0215-.043 0-.1003.0071-.1719.0215h-.623c-.086-.0144-.1719-.0287-.2578-.043-.086 0-.1791-.0072-.2793-.0215h-.8164c-.1719 0-.265 0-.2793 0-.0144.0143-.0358.0215-.0645.0215h-.4082c-.1575.0286-.2435.0358-.2578.0215-.0143 0-.0287 0-.043 0-.0716 0-.136 0-.1933 0-.043.0143-.1003.0215-.1719.0215-.1432 0-.2793 0-.4082 0-.1146 0-.2435-.0072-.3867-.0215-.0573 0-.1146-.0072-.1719-.0215-.043 0-.0931.0072-.1504.0215-.2578.0143-.4154-.0287-.4727-.1289-.0716-.1719-.1074-.2865-.1074-.3438-.0429-.2291-.0788-.3437-.1074-.3437l.0215-.3438.0215-.2793c0-.1289 0-.2005 0-.2148.0143-.0143.0215-.0358.0215-.0645 0-.1289.0071-.2148.0214-.2578.0144-.043.0215-.0859.0215-.1289 0-.1289.0072-.2148.0215-.2578.0143-.0573.0215-.1218.0215-.1934 0-.1718.0072-.2721.0215-.3007.0143-.043.0143-.1003 0-.1719.0286-.1289.0429-.2149.0429-.2578 0-.0573.0072-.1146.0215-.1719.043-.1576.0716-.2435.086-.2578.0143-.1146.0143-.2292 0-.3438 0-.1146 0-.2291 0-.3437 0-.043.0071-.086.0215-.1289.0143-.043.0214-.086.0214-.1289 0-.0573-.0071-.1075-.0214-.1504 0-.0573.0071-.1074.0214-.1504.0287-.1719.0358-.2722.0215-.3008 0-.0286 0-.0573 0-.0859.0143-.1003.0215-.1719.0215-.2149.0143-.0573.0215-.1002.0215-.1289.0143-.1575.0215-.2363.0215-.2363.0143 0 .0215-.0072.0215-.0215-.0144-.1719-.0215-.2936-.0215-.3652.0143-.0716.0215-.1433.0215-.2149 0-.0429 0-.0859 0-.1289 0-.0573-.0072-.1002-.0215-.1289 0-.0859-.0072-.1575-.0215-.2148 0-.0573 0-.1146 0-.17191-.0143-.14323-.0215-.24349-.0215-.30078s0-.10742 0-.15039c.0143-.05729.0072-.10742-.0215-.15039.0287-.07161.043-.14323.043-.21484 0-.08594 0-.16472 0-.23633 0-.07162-.0072-.13607-.0215-.19336-.0143-.07161-.0215-.15039-.0215-.23633 0-.10026-.0071-.16471-.0215-.19336 0-.02864 0-.05729 0-.08593-.0286-.21485-.0286-.43685 0-.66602 0-.07162-.0071-.13607-.0214-.19336 0-.07161 0-.14323 0-.21484 0-.11459-.0072-.22201-.0215-.32227 0-.11458 0-.222 0-.32227 0-.21484 0-.35091 0-.4082.0143-.05729.0071-.11458-.0215-.17187.0286-.08594.0358-.17188.0215-.25782-.0144-.08593-.0215-.16471-.0215-.23632-.0143-.1862-.0143-.32943 0-.42969-.0143-.04297-.0215-.08594-.0215-.12891.0143-.04297.0215-.07877.0215-.10742 0-.05729-.0072-.11458-.0215-.17187 0-.0573.0143-.10743.043-.1504-.0287-.18619-.0502-.3151-.0645-.38671 0-.08594-.0071-.16472-.0215-.23633-.0143-.14323-.0358-.25065-.0644-.32227-.0287-.07161-.0287-.15755 0-.25781l-.0645-.30078c.0143-.1862.0143-.29362 0-.32227-.0286-.20052-.0429-.32942-.0429-.38672.0286-.21484.0358-.35091.0214-.4082 0-.05729.0287-.10742.086-.15039.0286-.08594.0501-.13607.0644-.15039.0287-.02865.0573-.05729.086-.08594.0573-.07161.1074-.1289.1504-.17187.0572-.04297.1002-.07162.1289-.08594.1145-.04297.222-.06445.3222-.06445.1433-.02865.2507-.04297.3223-.04297h.3652c.1576-.01432.2578-.01432.3008 0s.0788.02864.1074.04297h.5157c.2434-.02865.4511-.03581.623-.02149.1719 0 .3438.00716.5156.02149.043 0 .086.00716.1289.02148h.1289.2149c.0143-.01432.0286-.02148.043-.02148.1718.04297.2936.06445.3652.06445.0859-.01432.1647-.01432.2363 0 .0716 0 .1432.00716.2149.02148h.2363c.0716.01433.1719.02149.3008.02149s.2291-.00716.3008-.02149c.1289 0 .2005.00717.2148.02149h.043.1504c.0429-.01432.0859-.02149.1289-.02149.1289-.01432.2721-.01432.4296 0h.5586l.4942-.02148c.0716-.02865.1289-.03581.1719-.02148h.1503.4942c.1289-.01433.2506-.02149.3652-.02149h.1934c.0143-.01432.0286-.02148.043-.02148l.2363.04297c.1575.01432.2578.01432.3008 0 .0573-.01433.1002 0 .1289.04296.0429-.02864.1074-.04296.1933-.04296.1003 0 .1647.01432.1934.04296l.3223-.02148c.1289-.01432.2148-.02865.2578-.04297l.2578-.02148c.1146-.01433.1933-.01433.2363 0 .043.01432.0931.02864.1504.04297.0573.01432.1074.01432.1504 0 .0573-.01433.1074-.01433.1504 0 .1862.08593.2936.13606.3222.15039.1289.11458.2149.20052.2579.25781.0429.05729.0572.14323.0429.25781-.0286.12891-.0358.22201-.0215.2793.0144.04297.0215.08594.0215.1289-.0573.20053-.0931.32227-.1074.36524-.0573.14323-.0931.23633-.1074.2793 0 .02864.0071.05729.0215.08593-.0573.15756-.086.25782-.086.30078.0143.04297.0143.08594 0 .12891 0 .04297-.0071.08594-.0215.12891 0 .02864-.0071.06445-.0214.10742l-.043.23633-.1289.90234c-.0143.07162-.0215.14323-.0215.21484 0 .0573-.0143.12175-.043.19336zm18.0898 1.61133c.0143.10026.0143.21484 0 .34375-.0286.11458-.0429.19336-.0429.23633.0143.02865.0214.05729.0214.08594v.27929c.0144.08594.0287.17188.043.25782 0 .11458-.0072.22916-.0215.34375-.0143.10026-.0286.20768-.0429.32226.0143.14323.0143.22917 0 .25781v.10743c.0286.18619.0358.33658.0214.45117v.34377c0 .1432.0072.2291.0215.2578.0143.0286.0215.0573.0215.0859v.4727.1719c.0143.0143.0215.0358.0215.0644 0 .1146-.0072.222-.0215.3223 0 .1002.0143.1719.043.2148.0286.0573.0358.1504.0215.2793-.0144.1289-.0287.2363-.043.3223-.0143.1575-.0143.3079 0 .4512.0143.1289.0358.2649.0644.4082.0287.2148.043.3437.043.3867-.0143.0573-.0215.1074-.0215.1504.0143.0429.0215.0859.0215.1289v.1718c.0143.043.0287.0931.043.1504.0286.1146.0501.2077.0644.2793 0 .0717-.0071.1361-.0215.1934v.1934c0 .0716.0072.136.0215.1933.0144.043.0287.0931.043.1504.0143.0859.0143.179 0 .2793 0 .0859.0072.1862.0215.3008.0143.043.0215.0931.0215.1504s.0143.1217.0429.1933c.0287.086.043.1504.043.1934s.0072.0859.0215.1289c.0573.2578.0716.4583.043.6016-.086.1575-.1289.2721-.1289.3437-.1146.0573-.2006.086-.2579.086-.0572 0-.1074 0-.1503 0-.0717.0143-.1361.0143-.1934 0-.0573-.0144-.1218-.0215-.1934-.0215-.1002-.0144-.2076-.0215-.3222-.0215-.1003 0-.2006 0-.3008 0-.0287-.0143-.0716-.0215-.1289-.0215s-.0931 0-.1074 0c-.1146.0143-.1791.0143-.1934 0-.0143 0-.0358 0-.0645 0-.0859 0-.179.0072-.2793.0215-.1002.0143-.1933.0286-.2792.043-.086 0-.1719-.0072-.2579-.0215-.0859 0-.1718.0071-.2578.0215-.0859 0-.1718.0071-.2578.0214-.0716.0144-.1361.0215-.1933.0215-.1003 0-.2006 0-.3008 0-.086 0-.1862.0143-.3008.043-.043 0-.0859.0071-.1289.0215-.043.0143-.086.0215-.1289.0215-.0573 0-.1146 0-.1719 0s-.1217.0143-.1934.0429l-.2363.0215c-.1719 0-.265-.0072-.2793-.0215s-.0358-.0215-.0644-.0215l-.2364-.0644c-.1432-.1003-.2148-.1647-.2148-.1934 0-.0143-.0072-.0286-.0215-.0429-.0286-.086-.0358-.1504-.0215-.1934.0143-.0286.0287-.0573.043-.0859 0-.1289 0-.1934 0-.1934.0143-.0143.0215-.0358.0215-.0645-.0143-.0716-.0215-.1217-.0215-.1503.0143-.0287.0215-.0573.0215-.086l.0215-.3437c.0143-.043.0214-.1003.0214-.1719s.0072-.1289.0215-.1719c.0287-.1432.0358-.222.0215-.2363 0-.0143 0-.0358 0-.0645.0143-.1432.0143-.2148 0-.2148 0-.0143 0-.0358 0-.0645.0287-.1002.0501-.1718.0645-.2148.0143-.0573.0215-.1074.0215-.1504 0-.1575.0143-.265.0429-.3223-.0143-.0429-.0143-.0931 0-.1503.0143-.0573.0215-.1003.0215-.129 0-.1718 0-.2864 0-.3437s0-.1003 0-.1289c.0143-.0716.0215-.1576.0215-.2578 0-.1003 0-.1862 0-.2578 0-.2722.0072-.4942.0215-.6661.0143-.1718.0215-.3365.0215-.4941 0-.0716 0-.1289 0-.1719 0-.0573-.0072-.1217-.0215-.1933v-.6016c.0143-.043.0143-.0859 0-.1289 0-.043.0143-.0788.0429-.1074l-.0214-.7735c.0143-.07157.0143-.13602 0-.19331 0-.07162.0071-.13607.0214-.19336 0-.14323.0072-.23633.0215-.2793.0144-.05729.0215-.11458.0215-.17187 0-.0573-.0071-.10743-.0215-.15039-.0143-.04297-.0215-.08594-.0215-.12891l.043-.47266c-.0286-.20052-.0358-.32226-.0215-.36523.0144-.05729.0215-.11458.0215-.17188-.0143-.25781-.0215-.45833-.0215-.60156.0144-.15755.0144-.30794 0-.45117-.0286-.22917-.0501-.36524-.0644-.4082-.0287-.21485-.043-.33659-.043-.36524.0143-.04297.0072-.10026-.0215-.17187-.0429-.08594-.0788-.14323-.1074-.17188-.0143-.02864-.0286-.05729-.043-.08594-.0716.02865-.1504.04297-.2363.04297-.0716-.01432-.1432-.01432-.2148 0-.086 0-.1791.00716-.2793.02149-.086 0-.1647 0-.2364 0-.1002 0-.1933 0-.2793 0-.0716-.01433-.1504-.00716-.2363.02148-.043 0-.1217.01432-.2363.04297-.1432.04297-.265.06445-.3653.06445-.0572 0-.1145.00717-.1718.02149-.043.01432-.0788.02864-.1074.04297-.1433.02864-.2292.04297-.2579.04297l-.3222.04296c-.2005.0573-.3295.0931-.3867.10743-.0573.01432-.1075.02864-.1504.04297-.0287.01432-.0717.02148-.1289.02148-.1289-.02865-.2149-.04297-.2579-.04297-.0429-.01432-.0787-.02865-.1074-.04297-.0286-.02864-.0644-.05013-.1074-.06445-.0286-.02865-.0573-.05729-.0859-.08594-.0717-.15755-.1146-.24349-.1289-.25781 0-.02865 0-.05013 0-.06445.0429-.15756.0644-.26498.0644-.32227.0143-.05729.0287-.12174.043-.19336 0-.12891.0215-.23633.0644-.32226.043-.14323.0645-.25782.0645-.34376.0286-.07161.0501-.14322.0644-.21484.0144-.08594.0287-.17187.043-.25781.0143-.07162.0215-.13607.0215-.19336s.0072-.12175.0215-.19336c.0716-.14323.1074-.25065.1074-.32227.0286-.08593.0358-.14322.0215-.17187 0-.02865.0071-.06445.0215-.10742.0143-.08594.0286-.15039.0429-.19336.0144-.05729.0215-.10026.0215-.12891l.0215-.38672.043-.34375c.0286-.04297.0358-.07877.0215-.10742 0-.02864 0-.07877 0-.15039.0859-.12891.1289-.19336.1289-.19336.0143-.01432.0214-.02864.0214-.04297.1146-.1289.2006-.19336.2579-.19336.0716-.01432.136-.0358.1933-.06445.0287-.01432.0716-.01432.1289 0 .0573 0 .1146-.00716.1719-.02148.1003-.02865.1719-.03581.2148-.02149.043.01432.1003.02149.1719.02149.0716.01432.1361.02864.1934.04296h.2148c.1719-.01432.2722-.01432.3008 0 .043.01433.0859.02149.1289.02149.2005 0 .3223.00716.3652.02148.0573.01433.1075.02865.1504.04297.0573 0 .1146.00716.1719.02149.0573 0 .1146-.00717.1719-.02149.0716-.02864.1361-.03581.1933-.02148.0717.01432.1361.02148.1934.02148h.1504c.043-.01432.0859-.02148.1289-.02148l.3223.04297c.1575-.01433.2506-.02149.2793-.02149.1145.01432.179.02149.1933.02149.0287-.01433.0573-.02149.086-.02149.1575.01432.2578.02865.3007.04297.0287-.01432.0717-.02148.1289-.02148.0717 0 .1361.00716.1934.02148h.5156c.1289.01432.2006.02149.2149.02149.0143-.01433.0358-.02149.0644-.02149h.3223.2363c.1289 0 .2077-.00716.2364-.02148.0286-.01433.0572-.02149.0859-.02149.0573-.01432.1074-.02148.1504-.02148.0429 0 .0931-.00716.1504-.02149.1289-.01432.2005-.02148.2148-.02148.0143-.01432.0287-.02149.043-.02149.1146-.01432.179-.01432.1933 0 .0287 0 .0573-.00716.086-.02148h.2363c0-.01432.0072-.02148.0215-.02148.1146-.01433.179-.01433.1934 0h.0644c.1576 0 .2435.00716.2578.02148h.0645c.0573 0 .1074-.00716.1504-.02148.0573-.01433.1145-.02149.1718-.02149.043-.01432.0931-.01432.1504 0 .0716.01432.1146.01432.1289 0 .1576-.01432.2435-.01432.2578 0h.043c.2149-.02864.3509-.02864.4082 0 .0716-.02864.1432-.04297.2149-.04297.0859 0 .1647-.00716.2363-.02148h.2578c.0286-.01432.0645-.02149.1074-.02149.2292-.04297.3939-.05729.4942-.04297.1002 0 .2005-.00716.3007-.021479.2149-.057292.351-.078776.4082-.064453h.1934c.1432-.028646.2292-.035808.2578-.021485.0287.014323.0573.021485.086.021485.1289-.014323.2148-.021485.2578-.021485.0429-.014323.0787-.021484.1074-.021484.043-.014323.0859-.021485.1289-.021485s.0859-.014323.1289-.042968c.0573.028645.1003.057291.1289.085937.043.014323.0788.057292.1074.128907.1003.14323.1576.25065.1719.32227.0143.07161.0143.17187 0 .30078-.0143.07161-.0286.15755-.043.25781 0 .10026-.0143.20052-.0429.30078-.0287.10026-.043.16471-.043.19336.0143.01432.0143.03581 0 .06445-.043.21485-.0716.3724-.0859.47266-.0144.08594-.0287.17904-.043.2793-.0573.17187-.0931.29362-.1074.36523 0 .07161-.0072.14323-.0215.21484-.0143.17188-.0358.28646-.0645.34375-.0143.07162-.0214.13607-.0214.19336.0143.05729.0143.12175 0 .19336-.0287.14323-.0502.23633-.0645.2793-.043.08594-.0645.15039-.0645.19336.0144.04297.0144.08594 0 .1289-.0429.12891-.0716.22201-.0859.2793s-.0358.12175-.0644.19336c.0143.08594 0 .15039-.043.19336s-.0788.10026-.1074.17188c-.043.01432-.086.0358-.1289.06445-.0287.01432-.0573.03581-.086.06445-.0859.04297-.1647.04297-.2363 0-.1289-.04297-.2149-.07161-.2578-.08594-.043-.02864-.0931-.05013-.1504-.06445-.1146 0-.179-.00716-.1934-.02148 0-.01433-.0143-.02149-.0429-.02149-.043-.01432-.1218-.02148-.2364-.02148-.1718-.02865-.2721-.03581-.3007-.02149-.0287 0-.0573 0-.086 0-.1575-.02864-.2506-.0358-.2793-.02148-.0143.01432-.0358.01432-.0644 0-.1146-.02865-.2077-.04297-.2793-.04297-.0716-.01432-.1433-.02865-.2149-.04297h-.3867c-.1146-.01432-.222-.01432-.3223 0-.1145.01432-.1862.05729-.2148.12891-.043.11458-.0645.22916-.0645.34375l-.0644.51562c0 .11459-.0143.19336-.043.23633zm13.7067-6.273436c.101 0 .187-.007162.258-.021485.086-.014323.186-.014323.301 0 .129-.071614.215-.093099.258-.064453.1.014323.164.021485.193.021485.043-.014323.079-.021485.108-.021485.157.057292.257.085938.3.085938.043-.014323.079-.014323.108 0 .143.042968.243.064453.301.064453.071 0 .136.007161.193.021484.2.071615.336.128907.408.171875.1.014323.172.028644.215.042964.043.01433.086.02865.129.04297.143.02865.215.04297.215.04297.014 0 .028.00716.043.02149.057.02864.129.05729.214.08593.086.01433.158.04297.215.08594.072 0 .136.00716.194.02149.057.01432.121.0358.193.06445.201.08594.329.13607.387.15039.057.01432.1.04297.129.08594.071 0 .143.0358.215.10742.071.05729.157.08594.257.08594.072.08593.165.14323.28.17187.129.08594.193.13607.193.15039.029.02865.064.05013.107.06446.043.01432.079.0358.108.06445.129.07161.222.13607.279.19336.158.10026.258.17187.301.21484.043.02865.086.05729.129.08594.043.05729.086.10742.129.15039.043.02865.086.05729.129.08594.143.10026.207.15755.193.17187 0 0 .007.00716.021.02149.129.11458.201.17187.215.17187.129.11459.201.1862.215.21485.1.1289.158.20052.172.21484.014 0 .029.01432.043.04297.057.08594.107.15039.15.19336.115.14323.201.22916.258.25781.086.12891.151.22917.194.30078.043.07162.1.13607.171.19336.072.14323.108.21484.108.21484l.172.19336c.028.02865.05.07162.064.12891.015.04297.036.07878.065.10742.028.05729.05.10026.064.12891.029.02864.057.05729.086.08594.057.1289.086.19335.086.19335.014 0 .021.00717.021.02149.072.12891.122.222.151.2793.014.07161.036.1289.064.17187.029.04297.043.10026.043.17188.043.07161.072.14323.086.21484.015.07161.036.14323.065.21484.071.14323.107.22201.107.23633.014.01432.022.02865.022.04297.057.12891.078.22201.064.2793v.17187c.057.15755.079.24349.064.25781v.04297c.043.1862.058.31511.043.38672 0 .05729.008.12175.022.19336.043.44401.05.82357.021 1.13867v.17188c0 .04297-.007.10026-.021.17187-.029.17191-.043.27211-.043.30081.014.0143.014.0358 0 .0644-.057.2865-.1.5085-.129.666-.029.1433-.057.2865-.086.4297-.043.1433-.086.2865-.129.4297-.043.1289-.079.2578-.107.3867-.086.2292-.143.3796-.172.4512-.072.1719-.115.2721-.129.3008-.014.0286-.029.0573-.043.0859l-.15.2149c-.072.1432-.108.222-.108.2363.015 0 .015.0072 0 .0215-.1.1432-.164.2435-.193.3008-.086.1432-.129.2148-.129.2148-.186.2149-.322.3652-.408.4512-.072.0859-.151.179-.237.2793-.128.1432-.222.2363-.279.2793-.057.0429-.107.0859-.15.1289-.058.0286-.143.0859-.258.1719-.086.1002-.193.1862-.322.2578-.144.1289-.244.2005-.301.2148-.043.0143-.086.0358-.129.0645-.129.1002-.215.1647-.258.1933-.028.0143-.057.043-.086.086-.043-.0144-.086-.0072-.129.0214-.043.0287-.078.0502-.107.0645-.158.1003-.251.1504-.279.1504-.015 0-.036.0143-.065.043-.086.0716-.15.1074-.193.1074-.029 0-.058.0143-.086.0429-.057.0287-.115.0645-.172.1075-.057.0286-.115.0573-.172.0859-.057.043-.107.0716-.15.0859-.043 0-.093.0144-.151.043-.1.0573-.157.0931-.172.1074 0 .0144-.014.0215-.043.0215-.143.0287-.222.043-.236.043 0 .0143-.007.0215-.021.0215-.158.0716-.237.1074-.237.1074-.1.0286-.186.0573-.257.0859-.158.0716-.237.1075-.237.1075-.086.0429-.157.0644-.215.0644-.043 0-.078.0072-.107.0215-.158.0286-.265.043-.322.043-.043.0143-.086.0214-.129.0214-.172.0144-.287.0215-.344.0215-.043.0144-.086.0287-.129.043-.143.0143-.222.0358-.236.0645-.072-.0144-.165-.0215-.28-.0215-.186-.0144-.3-.0144-.343 0-.043.0143-.086.0215-.129.0215-.115 0-.244-.0144-.387-.043-.1.0143-.179.0143-.236 0-.043-.0143-.1-.0072-.172.0215-.057-.0287-.115-.043-.172-.043-.0429 0-.1002-.0072-.1719-.0215l-.2363-.0215c-.2148-.0143-.3724-.0429-.4726-.0859-.0287-.0143-.0645-.0215-.1075-.0215-.0429.0143-.1002.0143-.1718 0-.2149-.043-.3581-.0788-.4297-.1074-.0573-.0287-.1218-.0573-.1934-.0859-.1146-.043-.2363-.0717-.3652-.086-.1003-.043-.1576-.0644-.1719-.0644-.0143.0143-.0358.0143-.0644 0-.1289-.0717-.2006-.1075-.2149-.1075-.0143.0144-.0358.0144-.0644 0-.1289-.0429-.2006-.0716-.2149-.0859-.0143-.0286-.0358-.0501-.0644-.0645-.1289-.0286-.2149-.0501-.2578-.0644-.043-.0143-.0788-.0287-.1075-.043-.1289-.0573-.2077-.0931-.2363-.1074-.0143-.0143-.043-.0286-.0859-.043-.1289-.0573-.2077-.0931-.2364-.1074-.0286-.0286-.0501-.0501-.0644-.0644-.1576-.0573-.2507-.0931-.2793-.1075-.0287-.0143-.0573-.0214-.086-.0214-.0286-.043-.0644-.0717-.1074-.086-.0429-.0286-.0787-.0573-.1074-.0859-.043-.0287-.0859-.0573-.1289-.086-.0286-.0286-.0573-.0573-.0859-.0859-.086-.043-.1361-.0644-.1504-.0644-.0144-.0144-.0358-.0359-.0645-.0645-.1432-.1003-.222-.1504-.2363-.1504-.0143-.0143-.0358-.0286-.0645-.043-.1289-.0859-.1933-.1575-.1933-.2148-.1433-.0859-.2292-.1289-.2578-.1289-.0287-.0143-.0502-.0287-.0645-.043-.1002-.1146-.1575-.1647-.1719-.1504-.0143 0-.0214-.0071-.0214-.0215-.1003-.0859-.1648-.136-.1934-.1503-.0287-.0144-.0573-.0359-.0859-.0645-.086-.1146-.1576-.1862-.2149-.2148-.0286-.0287-.0573-.0573-.0859-.086-.0143-.0429-.0358-.0788-.0645-.1074-.0859-.0716-.1504-.1289-.1933-.1719-.0287-.0573-.0573-.1217-.086-.1933-.1002-.086-.1504-.1361-.1504-.1504 0-.0287-.0143-.0573-.0429-.086-.0717-.1002-.1218-.1647-.1504-.1933-.0143-.043-.0287-.0788-.043-.1074-.0573-.1146-.0931-.1791-.1074-.1934s-.0358-.0358-.0645-.0645c-.0716-.1575-.1217-.2506-.1504-.2793-.0286-.0286-.0573-.0572-.0859-.0859-.0716-.1719-.1146-.2721-.1289-.3008-.0143-.0286-.0358-.0573-.0645-.0859-.0286-.0716-.0501-.1361-.0644-.1934-.0143-.0716-.043-.136-.0859-.1933-.0287-.1003-.043-.1647-.043-.1934 0-.043-.0072-.0788-.0215-.1074-.0286-.0716-.0573-.1504-.0859-.2363-.0287-.1003-.0502-.2006-.0645-.3008-.043-.2292-.0716-.3796-.0859-.4512-.0144-.0859-.0287-.1862-.043-.3008-.0286-.1432-.043-.2291-.043-.2578 0-.1432-.0071-.2363-.0215-.2793 0-.043 0-.0788 0-.10741-.0143-.21484-.0286-.35091-.0429-.4082s-.0215-.12891-.0215-.21484c0-.14323.0072-.21485.0215-.21485.0286-.01432.0358-.02864.0215-.04297-.0287-.07161-.0358-.13606-.0215-.19335.0286-.07162.0429-.14323.0429-.21485-.0143-.11458-.0214-.19336-.0214-.23633.0143-.04297.0214-.08593.0214-.1289v-.2793c.0573-.21484.086-.34375.086-.38672.0143-.05729.0286-.12174.043-.19336l.0429-.23633c.043-.18619.0716-.29362.086-.32226.0716-.17188.1074-.26498.1074-.2793 0-.02864.0071-.05729.0215-.08594.0573-.11458.0931-.17903.1074-.19336.0143-.01432.0215-.0358.0215-.06445.0143-.04297.0143-.08594 0-.1289 0-.04297.0143-.08594.0429-.12891.086-.14323.1433-.22917.1719-.25781.0573-.11459.086-.1862.086-.21485 0-.02864.0071-.05729.0214-.08593.0287-.02865.0573-.06446.086-.10743.0286-.04297.0573-.07877.0859-.10742.0716-.14323.1218-.25781.1504-.34375.043-.08594.0859-.16471.1289-.23633.0716-.10026.1003-.15755.0859-.17187 0-.01432.0072-.02865.0215-.04297.1003-.12891.1576-.20052.1719-.21484.0143-.02865.0287-.0573.043-.08594.1002-.11459.1933-.20052.2793-.25781.1002-.15756.1647-.25066.1933-.2793.0287-.02865.0573-.05729.086-.08594.0429-.04297.0716-.10026.0859-.17187.1289-.12891.2077-.22201.2363-.2793.043-.05729.086-.11458.1289-.17188.1003-.11458.1719-.17903.2149-.19335.043-.01433.0716-.05014.0859-.10743l.2149-.10742c.1002-.05729.179-.11458.2363-.17187.0573-.0573.1361-.10026.2363-.12891.1576-.10026.2364-.14323.2364-.12891.0716-.05729.1145-.08593.1289-.08593.0286-.01433.0572-.02865.0859-.04297.0859-.08594.1647-.14323.2363-.17188.1289-.08594.2005-.1289.2149-.1289.0143 0 .0358-.00717.0644-.02149.1003-.05729.1647-.08594.1934-.08594.0286-.01432.0573-.0358.0859-.06445.1576-.07161.265-.1289.3223-.17187s.1217-.07878.1933-.10743c.1289-.02864.2006-.05013.2149-.06445.0143-.02864.0358-.02864.0644 0 .0287-.05729.0717-.08594.1289-.08594.0573-.01432.1218-.0358.1934-.064449.0716-.042969.1217-.064453.1504-.064453.0286 0 .0573-.007162.0859-.021485.1146-.042969.2077-.057292.2793-.042969.0716 0 .1433-.007161.2149-.021484.1289-.028646.2077-.05013.2363-.064453s.0573-.021485.0859-.021485c.1433 0 .2364-.007161.2793-.021484.043-.014323.0788-.021484.1075-.021484.1575-.014323.2434-.021485.2578-.021485.0286-.014323.0573-.021484.0859-.021484.1862 0 .3151-.007161.3867-.021484.2149-.028646.3863-.007162.5153.064453zm.409 3.544926c-.144.02864-.23.02864-.258 0-.129.01432-.215.0358-.258.06445-.043.02864-.079.05729-.107.08594-.1151.05729-.2082.0931-.2798.10742-.043.02864-.0931.05013-.1504.06445-.0429.01432-.0716.05729-.0859.12891-.1432.05729-.2363.10742-.2793.15039-.1289.08594-.2005.1289-.2149.1289 0 0-.0071.00717-.0214.02149-.086.07161-.1433.12174-.1719.15039-.0287.02865-.0573.05013-.086.06445-.1002.05729-.1575.10026-.1718.12891 0 .01432-.0072.02864-.0215.04297-.0716.07161-.1146.12174-.1289.15039-.0143.01432-.0358.03581-.0645.06445l-.1718.21484c-.043.04297-.086.08594-.129.12891-.0429.04297-.0931.08594-.1503.12891l-.2364.25781c-.0716.12891-.1074.20052-.1074.21484-.1003.15756-.1575.23633-.1719.23633 0 0-.0071.00716-.0215.02149-.0859.14323-.1432.25781-.1718.34375-.0716.10026-.1289.17903-.1719.23632-.0287.0573-.0573.11459-.0859.17188-.043.12891-.0645.20052-.0645.21484 0 .01433-.0072.02865-.0215.04297-.0716.14323-.1074.22917-.1074.25781.0143.01433.0143.03581 0 .06446-.0716.14323-.1146.222-.1289.23633-.0287.18619-.0501.30078-.0645.34375v.10742c-.0573.21484-.0859.35807-.0859.42968-.0143.07162-.0072.17904.0215.32227 0 .05729-.0072.11458-.0215.17188 0 .04296.0072.09309.0215.15039 0 .05729.0071.10744.0215.15034.0143.043.0286.0931.0429.1504l.043.2364c.0573.1575.0931.2721.1074.3437.0287.0573.0573.1146.086.1719.0716.1719.1074.265.1074.2793s.0072.0358.0215.0644c.0286.0717.0787.1433.1504.2149.0286.0573.0501.1074.0644.1504.0287.0429.0573.0931.086.1504.1002.1432.1503.222.1503.2363.0144.0143.0287.0286.043.043.1146.1432.1791.222.1934.2363.0143 0 .0286.0143.0429.043.0287.0429.0645.0859.1075.1289.0429.0429.0716.0931.0859.1504l.2148.1718c.1003.1003.1504.1719.1504.2149.1289.1002.2006.1504.2149.1504.1289.0859.2077.1289.2363.1289.1146.0859.179.1432.1934.1718.0143.0144.0358.0287.0644.043.086.0573.1361.1003.1504.1289.0143.0287.0501.043.1074.043.0716.0716.1218.1217.1504.1504.0287.0143.0573.0286.086.0429.1718.1146.2864.1862.3437.2149.0716.0143.1218.043.1504.0859.0573.0144.1074.0287.1504.043s.093.0358.15.0645c.086.0286.151.0501.194.0644.057.0143.1.0287.129.043h.236l.279-.086c.129-.0716.201-.1002.215-.0859.029 0 .05-.0072.065-.0215.086-.0286.143-.043.171-.043.029-.0143.065-.0286.108-.0429.114-.0573.179-.0931.193-.1074.015-.0287.036-.0502.065-.0645.114-.0859.172-.1289.172-.1289 0-.0143.007-.0215.021-.0215.043-.0573.079-.1002.107-.1289.043-.043.086-.0859.129-.1289.101-.0859.151-.1289.151-.1289.014 0 .028-.0072.043-.0215.129-.1003.207-.1719.236-.2148.043-.043.093-.086.15-.1289.086-.086.158-.1433.215-.1719.101-.1003.158-.1576.172-.1719.029-.0286.057-.0644.086-.1074.043-.0573.079-.1074.108-.1504.057-.043.107-.0859.15-.1289s.079-.0788.107-.1074c.058-.1003.093-.1719.108-.2149.028-.0429.05-.0931.064-.1504.043-.0143.079-.0358.108-.0644.028-.0287.057-.0573.086-.086.014-.0429.028-.0787.043-.1074.014-.0429.028-.0859.043-.1289.057-.1146.093-.2005.107-.2578.043-.1289.064-.2363.064-.3223l.043-.3007c.029-.043.05-.0788.065-.1075.028-.0429.043-.0859.043-.1289.014-.0573.014-.1146 0-.1718 0-.0717.007-.1433.021-.21489.043-.1862.065-.30078.065-.34375 0-.05729 0-.10742 0-.15039-.029-.21485-.043-.36524-.043-.45117.014-.08594.014-.16472 0-.23633-.015-.15755-.036-.25781-.065-.30078-.014-.05729-.028-.10742-.043-.15039-.043-.17188-.064-.29362-.064-.36524-.057-.14323-.1-.22916-.129-.25781.014-.07161 0-.13607-.043-.19336-.043-.07161-.079-.14323-.107-.21484-.029-.10026-.051-.15756-.065-.17188 0-.02864 0-.05013 0-.06445-.071-.08594-.114-.13607-.129-.15039 0-.02865-.014-.06445-.043-.10742l-.129-.25782c-.086-.15755-.129-.25065-.129-.27929.015-.02865.008-.05729-.021-.08594-.1-.11458-.165-.17188-.193-.17188l-.215-.25781c-.101-.15755-.172-.25065-.215-.27929-.029-.04297-.057-.07878-.086-.10743-.129-.1289-.208-.20768-.236-.23633-.043-.02864-.086-.05729-.129-.08593-.029-.02865-.058-.05729-.086-.08594-.143-.11458-.237-.17904-.28-.19336-.042-.01432-.078-.03581-.107-.06445-.1-.10026-.157-.14323-.172-.12891-.014 0-.036-.00716-.064-.02148-.101-.05729-.194-.10026-.28-.12891-.229-.02865-.401-.06445-.515-.10742-.1-.04297-.208-.06445-.322-.06445zm19.142 2.72851c.014.10026.014.21484 0 .34375-.029.11458-.043.19336-.043.23633.014.02865.022.05729.022.08594v.27929c.014.08594.028.17188.043.25782 0 .11458-.008.22916-.022.34375-.014.10026-.029.20768-.043.32226.014.14323.014.22917 0 .25781v.10743c.029.18619.036.33658.022.45117v.34377c0 .1432.007.2291.021.2578.014.0286.022.0573.022.0859v.4727.1719c.014.0143.021.0358.021.0644 0 .1146-.007.222-.021.3223 0 .1002.014.1719.043.2148.028.0573.035.1504.021.2793s-.029.2363-.043.3223c-.014.1575-.014.3079 0 .4512.014.1289.036.2649.065.4082.028.2148.043.3437.043.3867-.015.0573-.022.1074-.022.1504.014.0429.022.0859.022.1289v.1718c.014.043.028.0931.042.1504.029.1146.051.2077.065.2793 0 .0717-.007.1361-.022.1934v.1934c0 .0716.008.136.022.1933.014.043.029.0931.043.1504.014.0859.014.179 0 .2793 0 .0859.007.1862.021.3008.015.043.022.0931.022.1504s.014.1217.043.1933c.028.086.043.1504.043.1934s.007.0859.021.1289c.058.2578.072.4583.043.6016-.086.1575-.129.2721-.129.3437-.114.0573-.2.086-.257.086-.058 0-.108 0-.151 0-.071.0143-.136.0143-.193 0-.057-.0144-.122-.0215-.194-.0215-.1-.0144-.207-.0215-.322-.0215-.1 0-.2 0-.301 0-.028-.0143-.071-.0215-.129-.0215-.057 0-.093 0-.107 0-.115.0143-.179.0143-.193 0-.015 0-.036 0-.065 0-.086 0-.179.0072-.279.0215s-.193.0286-.279.043c-.086 0-.172-.0072-.258-.0215-.086 0-.172.0071-.258.0215-.086 0-.172.0071-.258.0214-.071.0144-.136.0215-.193.0215-.1 0-.201 0-.301 0-.086 0-.186.0143-.301.043-.043 0-.086.0071-.129.0215-.043.0143-.086.0215-.129.0215-.057 0-.114 0-.171 0-.058 0-.122.0143-.194.0429l-.236.0215c-.172 0-.265-.0072-.279-.0215-.015-.0143-.036-.0215-.065-.0215l-.236-.0644c-.143-.1003-.215-.1647-.215-.1934 0-.0143-.007-.0286-.021-.0429-.029-.086-.036-.1504-.022-.1934.014-.0286.029-.0573.043-.0859 0-.1289 0-.1934 0-.1934.014-.0143.021-.0358.021-.0645-.014-.0716-.021-.1217-.021-.1503.014-.0287.021-.0573.021-.086l.022-.3437c.014-.043.021-.1003.021-.1719s.008-.1289.022-.1719c.029-.1432.036-.222.021-.2363 0-.0143 0-.0358 0-.0645.015-.1432.015-.2148 0-.2148 0-.0143 0-.0358 0-.0645.029-.1002.051-.1718.065-.2148.014-.0573.021-.1074.021-.1504 0-.1575.015-.265.043-.3223-.014-.0429-.014-.0931 0-.1503.015-.0573.022-.1003.022-.129 0-.1718 0-.2864 0-.3437s0-.1003 0-.1289c.014-.0716.021-.1576.021-.2578 0-.1003 0-.1862 0-.2578 0-.2722.007-.4942.022-.6661.014-.1718.021-.3365.021-.4941 0-.0716 0-.1289 0-.1719 0-.0573-.007-.1217-.021-.1933v-.6016c.014-.043.014-.0859 0-.1289 0-.043.014-.0788.043-.1074l-.022-.7735c.015-.07157.015-.13602 0-.19331 0-.07162.007-.13607.022-.19336 0-.14323.007-.23633.021-.2793.015-.05729.022-.11458.022-.17187 0-.0573-.007-.10743-.022-.15039-.014-.04297-.021-.08594-.021-.12891l.043-.47266c-.029-.20052-.036-.32226-.022-.36523.015-.05729.022-.11458.022-.17188-.015-.25781-.022-.45833-.022-.60156.015-.15755.015-.30794 0-.45117-.028-.22917-.05-.36524-.064-.4082-.029-.21485-.043-.33659-.043-.36524.014-.04297.007-.10026-.022-.17187-.043-.08594-.078-.14323-.107-.17188-.014-.02864-.029-.05729-.043-.08594-.072.02865-.15.04297-.236.04297-.072-.01432-.144-.01432-.215 0-.086 0-.179.00716-.28.02149-.085 0-.164 0-.236 0-.1 0-.193 0-.279 0-.072-.01433-.151-.00716-.236.02148-.043 0-.122.01432-.237.04297-.143.04297-.265.06445-.365.06445-.057 0-.115.00717-.172.02149-.043.01432-.079.02864-.107.04297-.144.02864-.23.04297-.258.04297l-.322.04296c-.201.0573-.33.0931-.387.10743-.057.01432-.108.02864-.151.04297-.028.01432-.071.02148-.128.02148-.129-.02865-.215-.04297-.258-.04297-.043-.01432-.079-.02865-.108-.04297-.028-.02864-.064-.05013-.107-.06445-.029-.02865-.057-.05729-.086-.08594-.072-.15755-.115-.24349-.129-.25781 0-.02865 0-.05013 0-.06445.043-.15756.065-.26498.065-.32227.014-.05729.028-.12174.042-.19336 0-.12891.022-.23633.065-.32226.043-.14323.064-.25782.064-.34376.029-.07161.051-.14322.065-.21484.014-.08594.028-.17187.043-.25781.014-.07162.021-.13607.021-.19336s.007-.12175.022-.19336c.071-.14323.107-.25065.107-.32227.029-.08593.036-.14322.022-.17187 0-.02865.007-.06445.021-.10742.015-.08594.029-.15039.043-.19336.014-.05729.022-.10026.022-.12891l.021-.38672.043-.34375c.029-.04297.036-.07877.022-.10742 0-.02864 0-.07877 0-.15039.086-.12891.128-.19336.128-.19336.015-.01432.022-.02864.022-.04297.115-.1289.2-.19336.258-.19336.071-.01432.136-.0358.193-.06445.029-.01432.072-.01432.129 0 .057 0 .115-.00716.172-.02148.1-.02865.172-.03581.215-.02149s.1.02149.172.02149c.071.01432.136.02864.193.04296h.215c.172-.01432.272-.01432.301 0 .043.01433.086.02149.129.02149.2 0 .322.00716.365.02148.057.01433.107.02865.15.04297.057 0 .115.00716.172.02149.057 0 .115-.00717.172-.02149.072-.02864.136-.03581.193-.02148.072.01432.136.02148.194.02148h.15c.043-.01432.086-.02148.129-.02148l.322.04297c.158-.01433.251-.02149.279-.02149.115.01432.18.02149.194.02149.028-.01433.057-.02149.086-.02149.157.01432.258.02865.301.04297.028-.01432.071-.02148.128-.02148.072 0 .137.00716.194.02148h.515c.129.01432.201.02149.215.02149.015-.01433.036-.02149.065-.02149h.322.236c.129 0 .208-.00716.237-.02148.028-.01433.057-.02149.086-.02149.057-.01432.107-.02148.15-.02148s.093-.00716.15-.02149c.129-.01432.201-.02148.215-.02148.015-.01432.029-.02149.043-.02149.115-.01432.179-.01432.194 0 .028 0 .057-.00716.085-.02148h.237c0-.01432.007-.02148.021-.02148.115-.01433.179-.01433.194 0h.064c.158 0 .244.00716.258.02148h.064c.058 0 .108-.00716.151-.02148.057-.01433.114-.02149.172-.02149.043-.01432.093-.01432.15 0 .072.01432.115.01432.129 0 .157-.01432.243-.01432.258 0h.043c.215-.02864.351-.02864.408 0 .072-.02864.143-.04297.215-.04297.086 0 .164-.00716.236-.02148h.258c.029-.01432.064-.02149.107-.02149.23-.04297.394-.05729.494-.04297.101 0 .201-.00716.301-.021479.215-.057292.351-.078776.408-.064453h.194c.143-.028646.229-.035808.258-.021485.028.014323.057.021485.086.021485.128-.014323.214-.021485.257-.021485.043-.014323.079-.021484.108-.021484.043-.014323.086-.021485.129-.021485s.086-.014323.129-.042968c.057.028645.1.057291.129.085937.042.014323.078.057292.107.128907.1.14323.157.25065.172.32227.014.07161.014.17187 0 .30078-.015.07161-.029.15755-.043.25781 0 .10026-.014.20052-.043.30078s-.043.16471-.043.19336c.014.01432.014.03581 0 .06445-.043.21485-.072.3724-.086.47266-.014.08594-.029.17904-.043.2793-.057.17187-.093.29362-.107.36523 0 .07161-.008.14323-.022.21484-.014.17188-.036.28646-.064.34375-.015.07162-.022.13607-.022.19336.014.05729.014.12175 0 .19336-.028.14323-.05.23633-.064.2793-.043.08594-.065.15039-.065.19336.015.04297.015.08594 0 .1289-.043.12891-.071.22201-.086.2793-.014.05729-.035.12175-.064.19336.014.08594 0 .15039-.043.19336s-.079.10026-.108.17188c-.042.01432-.085.0358-.128.06445-.029.01432-.058.03581-.086.06445-.086.04297-.165.04297-.237 0-.129-.04297-.215-.07161-.258-.08594-.042-.02864-.093-.05013-.15-.06445-.114 0-.179-.00716-.193-.02148 0-.01433-.015-.02149-.043-.02149-.043-.01432-.122-.02148-.237-.02148-.171-.02865-.272-.03581-.3-.02149-.029 0-.058 0-.086 0-.158-.02864-.251-.0358-.28-.02148-.014.01432-.035.01432-.064 0-.115-.02865-.208-.04297-.279-.04297-.072-.01432-.144-.02865-.215-.04297h-.387c-.114-.01432-.222-.01432-.322 0-.115.01432-.186.05729-.215.12891-.043.11458-.064.22916-.064.34375l-.065.51562c0 .11459-.014.19336-.043.23633zm21.549 9.83982c-.086.043-.172.0716-.258.086-.086.0143-.179.0286-.279.0429-.043-.0286-.086-.0358-.129-.0215-.029 0-.079-.0071-.15-.0214-.129 0-.201.0071-.215.0214 0 0-.007 0-.022 0-.057.0144-.157.0359-.301.0645-.071.0143-.136.0286-.193.043-.057.0143-.122.0286-.193.0429-.115.0144-.229.0144-.344 0-.115 0-.229 0-.344 0-.1.0144-.243.0144-.429 0-.187-.0143-.337-.0071-.452.0215-.114-.0286-.193-.0429-.236-.0429-.029.0143-.057.0214-.086.0214h-.322c-.143-.0143-.236-.0214-.279-.0214-.043.0143-.086.0214-.129.0214-.258.0287-.409.0502-.452.0645-.229 0-.379-.0072-.451-.0215-.129-.0286-.207-.0501-.236-.0644-.029-.0144-.057-.0359-.086-.0645-.115-.0573-.172-.1003-.172-.1289 0-.0287-.014-.043-.043-.043-.028-.0859-.05-.179-.064-.2793 0-.1146-.007-.2291-.022-.3437-.014-.0573-.036-.1576-.064-.3008 0-.0573 0-.1146 0-.1719.014-.0573.014-.1217 0-.1933-.043-.1289-.079-.265-.108-.4082-.043-.1433-.064-.222-.064-.2364 0-.0286-.007-.0501-.022-.0644-.157.0286-.236.0429-.236.0429-.1.0717-.172.1218-.215.1504-.028.0144-.036.0502-.021.1075-.1 0-.172.0501-.215.1503-.115.1433-.172.2221-.172.2364s-.014.0358-.043.0644c-.029.0573-.072.1146-.129.1719-.043.043-.079.0859-.107.1289-.072.0573-.143.1361-.215.2363-.029.043-.065.0931-.108.1504-.028.043-.064.0931-.107.1504-.086.1146-.136.1862-.15.2149 0 .0143-.007.0286-.022.0429-.1.1146-.157.1791-.172.1934-.014 0-.028.0072-.043.0215-.057.0573-.114.1002-.172.1289-.042.0286-.078.0501-.107.0644-.229 0-.394-.0286-.494-.0859-.043-.0286-.086-.0573-.129-.0859-.029-.0287-.072-.0573-.129-.086-.143-.1575-.222-.2435-.236-.2578-.072-.1002-.108-.1575-.108-.1719 0-.0143-.007-.0286-.021-.0429-.086-.1146-.129-.1791-.129-.1934s-.007-.0286-.022-.043c-.128-.2005-.264-.3724-.408-.5156l-.172-.1933c-.057-.1146-.093-.1791-.107-.1934 0-.0286-.007-.0501-.022-.0645-.128-.1289-.222-.2148-.279-.2578-.172-.0573-.272-.0859-.301-.0859-.028.0573-.057.1146-.086.1719-.028.0429-.057.0931-.085.1504l-.108.2793c-.071.1145-.107.1862-.107.2148s-.007.0573-.022.0859c-.071.1719-.107.308-.107.4082-.086.2149-.165.3868-.237.5157-.057.1289-.136.2435-.236.3437-.114.0716-.251.1218-.408.1504-.158.043-.301.0287-.43-.043h-.601c-.101 0-.165-.0071-.194-.0214-.014 0-.035 0-.064 0-.172.0286-.279.0358-.322.0214-.029 0-.065 0-.108 0-.028.0144-.071.0144-.129 0-.043 0-.079 0-.107 0h-.494c-.058 0-.115 0-.172 0-.043.0144-.093.0144-.151 0-.143 0-.222 0-.236 0-.014.0144-.036.0215-.064.0215-.158.0143-.251.0215-.28.0215-.086.0143-.15.0215-.193.0215-.029.0143-.079.0215-.15.0215-.072.0143-.158.0071-.258-.0215-.086-.0143-.151-.0072-.194.0215-.043-.0287-.085-.0502-.128-.0645-.029 0-.058-.0143-.086-.0429-.115-.1003-.179-.1504-.194-.1504-.157-.1719-.25-.2793-.279-.3223.014-.0573.014-.1074 0-.1504-.029-.043-.043-.0788-.043-.1074l.043-.2363c.014-.0573.036-.1003.064-.1289.015-.0287.015-.0717 0-.129.043-.0572.079-.1145.108-.1718.028-.0573.057-.1146.086-.1719.028-.0573.043-.1003.043-.1289.014-.043.036-.0931.064-.1504l.108-.2148c.071-.129.107-.2149.107-.2579.072-.1575.115-.2434.129-.2578.029-.0143.029-.0358 0-.0644.1-.1289.157-.222.172-.2793.014-.0716.028-.1289.043-.1719.043-.1575.071-.2506.086-.2793.071-.1575.107-.2363.107-.2363.029-.086.05-.1361.065-.1504.014-.0143.028-.0358.043-.0645.071-.1575.107-.2435.107-.2578.014-.1289.043-.2148.086-.2578.057-.0573.072-.1146.043-.1719.029-.0286.043-.0644.043-.1074.014-.043.036-.0859.064-.1289.029-.0573.05-.1146.065-.1719.014-.0573.036-.1146.064-.1718.058-.1146.086-.2077.086-.2793l.108-.2149c.028-.1146.043-.1719.043-.1719.014-.0143.028-.0358.043-.0644.014-.043.021-.0788.021-.1074.014-.043.029-.0931.043-.1504.072-.1576.107-.2507.107-.2793 0-.0287.015-.0502.043-.0645.072-.1862.108-.2936.108-.3222 0-.043.007-.0788.021-.1075.029-.0716.058-.1504.086-.23629.115-.21484.179-.36523.194-.45117.014-.08594.035-.17904.064-.2793.043-.15755.079-.25065.107-.2793.058-.17187.086-.27213.086-.30078 0-.02864.008-.05729.022-.08594.014-.05729.021-.10742.021-.15039.015-.05729.029-.12174.043-.19335.043-.12891.072-.20769.086-.23633l.086-.23633c.043-.04297.065-.07878.065-.10742.014-.04297.028-.07878.043-.10742.071-.21485.129-.35092.171-.40821.043-.07161.079-.15039.108-.23633.014-.04296.029-.08593.043-.1289.014-.05729.043-.10026.086-.12891.028-.1862.043-.2793.043-.2793.057-.11458.086-.17903.086-.19335 0-.01433.007-.02865.021-.04297.043-.08594.065-.13607.065-.15039 0-.02865.014-.0573.043-.08594.043-.11459.064-.17904.064-.19336.014-.01432.022-.03581.022-.06445.028-.0573.05-.10743.064-.15039.014-.04297.036-.07878.064-.10743.029-.14323.043-.21484.043-.21484.015 0 .022-.00716.022-.02149.043-.14322.079-.24348.107-.30078.072-.15755.115-.25065.129-.27929.101-.28646.158-.4655.172-.53711.029-.1862.05-.30795.065-.36524.057-.11458.086-.18619.086-.21484s.007-.05729.021-.08594c.057-.1289.093-.20052.107-.21484.015-.02865.029-.05729.043-.08594.086-.22917.129-.34375.129-.34375.086-.17187.136-.27213.151-.30078.014-.04297.035-.07878.064-.10742.086-.14323.143-.22917.172-.25781.086-.10027.143-.17904.172-.23633l.301-.30078.215-.12891c.114-.05729.193-.0931.236-.10742.043-.01433.086-.02149.129-.02149.172-.02864.279-.04297.322-.04297.043-.01432.086-.02148.129-.02148.143.04297.236.06445.279.06445h.108c.1.05729.193.08594.279.08594.157.07162.243.10742.258.10742.143.01433.229.02149.258.02149.028 0 .057.01432.085.04297.172.04296.287.05013.344.02148.158.07161.244.10742.258.10742s.036.00716.065.02149c.1.04296.164.06445.193.06445.043-.01432.086-.02149.129-.02149.071-.01432.136-.02148.193-.02148.057-.01432.122-.02865.193-.04297.158-.02864.251-.05013.28-.06445.043-.02865.086-.05013.129-.06445.143-.04297.215-.06446.215-.06446.014-.01432.028-.02148.043-.02148.042-.01432.085-.02149.128-.02149h.151c.143-.01432.229-.0358.258-.06445.171-.02865.351-.02865.537 0 .243.04297.429.06445.558.06445.129-.01432.222.02149.28.10743.1.08593.171.15039.214.19335.072.04297.122.12175.151.23633.028.10026.064.1862.107.25782.058.10026.086.17187.086.21484.015.04297.029.07878.043.10742.015.10026.029.15755.043.17188.014.01432.022.0358.022.06445.043.1862.071.30078.086.34375.014.04297.021.08594.021.12891.014.02864.029.06445.043.10742.043.20052.072.32942.086.38672.029.05729.05.12174.064.19336.015.07161.029.13606.043.19336.015.05729.015.11458 0 .17187.058.21484.093.35091.108.4082.014.05729.036.12175.064.19336.043.1862.065.30795.065.36524.014.05729.028.12174.043.19336.071.17187.107.27929.107.32226 0 .02865.007.06445.022.10742l.128.36524c.043.14323.058.25065.043.32226 0 .0573.015.10026.043.12891 0 .07161.029.17904.086.32227.086.18619.122.3151.108.38671 0 .07162.014.13607.043.19336.014.08594.043.16472.086.23633.057.11459.086.19336.086.23633s.007.08594.021.12891c.057.11458.086.19336.086.23632.043.10026.093.19336.15.2793.029.02865.043.07162.043.12891 0 .04297.008.08594.022.1289.057.1862.086.30795.086.36524.014.05729.036.11458.064.17187.015.05729.029.11459.043.17188.015.04297.036.10026.065.17187.043.11459.064.179.064.1934.014 0 .022.0143.022.0429.071.1576.121.265.15.3223.014.0286.022.0716.022.1289 0 .043.014.0788.042.1074.015.043.029.1003.043.1719.015.0573.022.1003.022.1289.057.1289.086.222.086.2793.014.043.036.0931.064.1504.029.043.043.0931.043.1504.015.0573.036.1146.065.1719.057.1002.086.1647.086.1933 0 .0287.007.0573.021.086.072.1145.108.1862.108.2148 0 .0143.014.0358.043.0645.057.1289.086.2076.086.2363 0 .0143.014.0358.042.0644.029.043.043.086.043.1289.015.043.036.086.065.1289.057.1576.093.2507.107.2793.086.1862.144.3223.172.4082.029.086.072.1719.129.2579.072.1432.1.2363.086.2793 0 .0429.007.0787.022.1074.057.1289.085.2077.085.2363.015.0287.029.0573.043.0859.015.0717.043.1576.086.2579.043.0572.072.1145.086.1718.015.043.029.0788.043.1075.072.1862.179.3437.323.4726 0 .0716.014.1361.043.1934.042.0429.078.1002.107.1718.072.1719.107.2793.107.3223 0 .0287.008.0716.022.1289 0 .086-.014.1504-.043.1934-.014.0286-.029.0644-.043.1074-.029.043-.043.0859-.043.1289 0 .0286-.014.0645-.043.1074zm-7.047-5.8008c-.029-.1289-.043-.222-.043-.2793-.029-.0716-.057-.136-.086-.1933-.014-.0573-.028-.1218-.043-.1934-.028-.0716-.057-.1575-.086-.2578-.014-.1002-.028-.18618-.043-.2578-.086-.18619-.129-.29362-.129-.32226 0-.04297-.014-.07878-.043-.10742-.043-.08594-.064-.14323-.064-.17188 0-.04297-.007-.07878-.022-.10742-.071-.15755-.114-.26498-.128-.32227-.015-.05729-.036-.10026-.065-.1289-.086-.17188-.129-.25782-.129-.25782-.043-.18619-.071-.29362-.086-.32226-.014-.04297-.028-.08594-.043-.12891 0-.10026-.007-.15755-.021-.17187-.014-.01433-.022-.03581-.022-.06446-.028-.05729-.05-.11458-.064-.17187 0-.05729-.014-.10742-.043-.15039 0-.12891-.007-.19336-.022-.19336-.014-.01432-.021-.02865-.021-.04297-.014-.07161-.029-.14323-.043-.21484 0-.07162-.014-.12175-.043-.15039-.115.04297-.179.07877-.193.10742 0 .01432-.007.03581-.022.06445-.086.15755-.129.25781-.129.30078.015.04297.007.08594-.021.12891-.015.05729-.036.10742-.065.15039-.028.02865-.057.07161-.086.12891-.1.20052-.157.33658-.171.4082l-.065.23633c-.014.11458-.057.22916-.129.34375-.014.04297-.028.0931-.043.15039 0 .04297-.007.07877-.021.10742-.029.04297-.058.08594-.086.12891-.015.04296-.036.09309-.065.15039-.014.05729-.021.11458-.021.17187s-.014.10026-.043.12891c-.043.10026-.065.15755-.065.17187 0 .01433-.007.03581-.021.06446-.086.17187-.136.27933-.15.32223-.015.0287-.022.0788-.022.1504-.086.1433-.143.2722-.172.3867-.057.1719-.071.2937-.043.3653.158.1862.28.2793.365.2793.101 0 .208-.0072.323-.0215.114-.0143.215-.0215.3-.0215.101-.0143.187-.0215.258-.0215.144 0 .251-.0071.323-.0215.086-.0143.164-.0215.236-.0215.157.0144.258.0215.301.0215.043-.0143.078-.0143.107 0l.451.086c.172-.086.258-.1647.258-.2364zm11.666 6.1875c-.029.0144-.072.0144-.129 0-.043 0-.093-.0071-.15-.0214-.172-.086-.272-.1361-.301-.1504-.029 0-.057-.0072-.086-.0215-.114-.0573-.222-.1432-.322-.2578-.086-.0716-.129-.1146-.129-.1289 0-.0144-.014-.0358-.043-.0645-.115-.1146-.172-.1719-.172-.1719-.115-.1432-.2-.2363-.258-.2793-.057-.0429-.1-.1002-.129-.1718-.071-.0287-.121-.0716-.15-.1289-.029-.0717-.064-.1433-.107-.2149-.115-.1146-.187-.1862-.215-.2148-.043-.0716-.079-.1218-.108-.1504-.028-.0287-.064-.0645-.107-.1074-.158-.2006-.258-.351-.301-.4512-.043-.1003-.107-.1719-.193-.2149-.015-.0716-.043-.1217-.086-.1503-.029-.0287-.058-.0573-.086-.086-.057-.1289-.093-.2005-.108-.2148-.014-.0287-.028-.0573-.043-.086l-.064-.2578.064-.4726c0-.0287 0-.0645 0-.1075.015-.0429.022-.0859.022-.1289-.029-.1718-.043-.2578-.043-.2578.014-.0143.021-.0286.021-.0429 0-.0573 0-.129 0-.2149.015-.1002.036-.1862.065-.2578-.029-.0573-.043-.1074-.043-.1504.014-.0573.021-.1217.021-.1933 0-.0573 0-.1075 0-.1504.015-.0573.022-.1218.022-.1934-.014-.0573-.022-.1504-.022-.2793v-.2578c.015-.0859.008-.1432-.021-.1719-.014-.043-.022-.0859-.022-.1289s0-.0859 0-.1289c.015-.043.022-.0931.022-.1504 0-.0716-.007-.1361-.022-.1933-.014-.0717-.035-.1433-.064-.21489v-.83789c-.014-.14323-.021-.2793-.021-.4082.014-.14323.014-.2793 0-.40821 0-.07161-.008-.13607-.022-.19336 0-.05729-.007-.11458-.021-.17187 0-.11459 0-.21485 0-.30078.014-.10026.007-.20769-.022-.32227-.014-.12891-.029-.19336-.043-.19336 0-.01432 0-.02864 0-.04297-.029-.1289-.043-.222-.043-.27929.014-.0573.022-.10026.022-.12891 0-.04297-.008-.08594-.022-.12891-.029-.15755-.043-.24349-.043-.25781l.022-.2793-.065-.25781c-.014-.11458-.021-.17903-.021-.19336.014-.02864.021-.05729.021-.08593v-.34376l-.043-.64453c-.014-.05729-.028-.10742-.043-.15039-.014-.05729-.021-.11458-.021-.17187.014-.12891.014-.20768 0-.23633 0-.02865 0-.05729 0-.08594 0-.05729 0-.11458 0-.17187s-.007-.11459-.022-.17188c-.028-.11458-.043-.19336-.043-.23633-.014-.05729-.021-.14322-.021-.25781-.029-.11458-.05-.1862-.065-.21484 0-.04297 0-.07878 0-.10742 0-.11459-.007-.1862-.021-.21485-.014-.04297-.022-.07877-.022-.10742.029-.08594.043-.16471.043-.23633l-.021-.30078c-.043-.11458-.05-.20768-.022-.2793.029-.07161.058-.13606.086-.19335.158-.08594.258-.14323.301-.17188.043-.04297.079-.06445.108-.06445.028-.01433.064-.00716.107.02148.057.01432.107.02149.15.02149.187-.02865.294-.03581.323-.02149.043.01432.086.02149.129.02149.042-.01433.1-.02149.171-.02149.058 0 .108.00716.151.02149h.172c.129.01432.229.02148.3.02148l.301-.02148h.408.237c.028-.01433.05-.01433.064 0h.301c.057-.01433.107-.02149.15-.02149h.258c.115-.01432.237-.01432.365 0h.237c.129-.02864.207-.04297.236-.04297.057 0 .115.00716.172.02149.057.01432.122.02148.193.02148.058 0 .115-.00716.172-.02148.072-.01433.136-.02149.194-.02149.1.02865.179.06446.236.10742.057.04297.1.07878.129.10743 0 .02864-.007.05729-.022.08593v.15039c0 .14323.007.2793.022.40821.014.1289.028.25781.043.38672 0 .17187-.015.32942-.043.47265v.15039c.014.04297.014.08594 0 .12891 0 .07161-.015.13607-.043.19336-.015.05729-.015.12174 0 .19336-.029.02864-.036.06445-.022.10742.015.02865.007.07161-.021.12891l-.043.25781c-.014.14323-.029.29362-.043.45117-.014.14323-.022.28646-.022.42969v.1289c.015.02865.022.06446.022.10743 0 .08593-.014.18619-.043.30078-.014.10026-.036.20768-.065.32226v.17188c0 .05729-.007.11458-.021.17187v.17188c.014.05729.021.11458.021.17187 0 .07162-.014.12891-.042.17188-.015.04297-.022.0931-.022.15039-.029.10026-.036.20768-.021.32226.014.10026.021.21485.021.34375 0 .0573-.007.11459-.021.17188-.015.05729-.022.11458-.022.17187-.014.11459-.021.22917-.021.34375.014.10026.014.20769 0 .32227 0 .10026-.008.20052-.022.30078 0 .08594-.007.1862-.021.30078v.60157c.014.18619.014.37955 0 .58012.014.1432.014.2291 0 .2578v.0859c-.015.1432-.022.2292-.022.2578.014.0143.022.0358.022.0645.014.1146.014.2291 0 .3437 0 .1146.007.2149.021.3008l.022.3867v.2363c0 .0717.014.129.043.1719.028.0573.064.1003.107.1289.057.0287.122.0573.193.086.072.0286.151.0501.237.0644s.186.0287.3.043h.194c.071-.0143.143-.0215.215-.0215.214.0143.415.0143.601 0s.337-.0072.451.0215c.172-.0143.287-.0287.344-.043s.115-.0143.172 0c.143 0 .272-.0143.387-.043.043-.0143.086-.0214.129-.0214s.086-.0072.129-.0215c.171.0143.272.0215.3.0215.043 0 .101-.0072.172-.0215.172-.0287.279-.043.322-.043.158-.0143.244-.0143.258 0h.043c.058 0 .108-.0071.151-.0215.043-.0143.1-.0215.172-.0215h.236c.014-.0143.028-.0214.043-.0214.043-.0144.079-.0287.107-.043.029-.0143.072-.0215.129-.0215.057-.0286.108-.0358.151-.0215.057 0 .121-.0071.193-.0215.143-.0286.222-.0501.236-.0644.029-.0143.058-.0215.086-.0215.129.0143.201.0143.215 0s.043-.0215.086-.0215c.1 0 .179.0143.236.043.115 0 .179.0071.194.0215h.086c.057.1146.093.2005.107.2578s.021.1146.021.1719c.015.0572.015.1217 0 .1933-.057.1576-.093.2507-.107.2793-.014.0287-.029.0573-.043.086-.029.1289-.05.2005-.064.2148v.0644c-.029.1146-.043.1862-.043.2149.014.0286.014.0644 0 .1074-.015.0573-.043.1146-.086.1719-.029.043-.029.1002 0 .1719-.058.1432-.101.2363-.129.2793-.043.1575-.072.2434-.086.2578v.0429c-.086.1862-.129.3151-.129.3868 0 .0573-.029.1074-.086.1503 0 .0573-.014.1146-.043.1719-.014.043-.036.086-.064.1289-.015.0573-.029.1075-.043.1504-.015.0287-.036.0645-.065.1074-.043.129-.079.222-.107.2793-.058.1289-.093.2006-.108.2149v.043c-.114.1575-.179.2506-.193.2792-.014.0287-.043.0573-.086.086-.1.1289-.193.2005-.279.2148-.072.0144-.143.0287-.215.043-.086 0-.172 0-.258 0-.072.0143-.143.0358-.215.0645-.129-.0287-.2-.0502-.215-.0645-.014 0-.035 0-.064 0-.115-.0286-.201-.043-.258-.043l-.709.0215c-.114 0-.222 0-.322 0-.086-.0143-.179-.0143-.279 0-.115 0-.179.0072-.194.0215-.014 0-.028 0-.043 0-.086.0143-.143.0286-.172.043-.028.0143-.057.0215-.086.0215-.157 0-.236-.0072-.236-.0215 0 0-.007 0-.021 0-.072.0143-.122.0143-.151 0-.014 0-.05.0071-.107.0215-.143.0143-.222.0143-.237 0 0 0-.007 0-.021 0-.186.0429-.279.0644-.279.0644-.086 0-.172 0-.258 0-.143 0-.236.0072-.279.0215s-.093.0215-.151.0215c-.143.0143-.229.0143-.258 0-.028 0-.057 0-.086 0-.057.0143-.114.0215-.171.0215-.058.0143-.122.0214-.194.0214-.043 0-.086-.0071-.129-.0214-.028 0-.064 0-.107 0-.158.0286-.236.0358-.236.0214 0 0-.008 0-.022 0-.157.0144-.258.0215-.301.0215-.043.0144-.078.0215-.107.0215z" fill="#462110"/></svg>