<svg fill="none" height="73" viewBox="0 0 74 73" width="74" xmlns="http://www.w3.org/2000/svg" xmlns:xlink="http://www.w3.org/1999/xlink"><linearGradient id="a"><stop offset="0" stop-color="#cf5c2b"/><stop offset="1" stop-color="#59173e"/></linearGradient><linearGradient id="b" gradientUnits="userSpaceOnUse" x1="70.962" x2="51.6647" xlink:href="#a" y1="-35.7254" y2="9.26565"/><linearGradient id="c" gradientUnits="userSpaceOnUse" x1="62.1621" x2="-6.06046" xlink:href="#a" y1="-19.9588" y2="145.23"/><linearGradient id="d" gradientUnits="userSpaceOnUse" x1="54.0508" x2="-14.1712" xlink:href="#a" y1=".161361" y2="165.349"/><linearGradient id="e" gradientUnits="userSpaceOnUse" x1="40.0553" x2="37.9799" xlink:href="#a" y1="101.934" y2="33.8455"/><path d="m72.895 10.4365c-.4206-5.45384-5.1002-9.719883-10.8138-9.937368-16.0894-.602266-32.1261-.618995-48.0752 0-1.1567.033459-2.3135.250944-3.4001.635728-.5434.18402-1.06915.40151-1.5599.66918-2.48876 1.30491-4.1713 3.54667-5.46826 5.88882-1.36707 2.44254-2.769186 5.15274-2.944451 7.96324-.140212 2.2753-.262898 4.5672-.35053 6.8424-.017527.251-.017527.4852.017526.7194.017527.1339.035053.2677.017527.4015-.05258.7361-.017527 1.3886.385583 2.041.245371.3848.560845.7194.963955.9369-.03505-.0167-.36805.2844-.42063.3179-.14022.1171-.262902.2509-.36806.3847-.227845.2844-.420636.5856-.543322.9202-.140212.3346-.227844.6859-.2453705 1.0372-.1226854 1.422-.08763245 2.844-.070106 4.2661.0175265 1.2379-.1051589 2.5428.1051585 3.7641.05258.3011 0 .619.070106.9201.140212.686.473216 1.3217.806224 1.9407-.560853.5688-.806224 1.3551-.841277 2.1414-.035053.9034.140212 1.79.087633 2.6934-.175265 2.4425-.017527 4.952.140212 7.3778.017526.2844.070106.5688.122685.8365.157739.6859.175265 1.4052.578377 2.0075.17526.2677.40311.5019.68353.6859-.2629-.0334-.47321.2342-.5959.4517-.788692 1.4388-.788692 2.5596-.473215 4.0988.315475 1.606.227844 3.1284.841275 4.701.50826 1.3049 1.27943 2.5094 2.24339 3.5299 1.99802 2.1247 4.83731 3.4296 7.81684 3.5969 16.9481.9201 33.2652 1.0038 48.8288.0669.0701 0 .1402-.0167.2103-.0167 1.8928-.1506 3.7331-.7361 5.328-1.7232 1.5599-.9536 2.8569-2.2752 3.7682-3.8143 1.0516-1.7733 1.5424-3.8646 2.0857-5.8219.333-1.2045.8413-2.7437.7011-4.0318-.0877-.7362.1402-1.4555.1051-2.1916-.035-.8365-.2629-1.6563-.666-2.3924-.0526-.0836-.1052-.184-.1052-.2844-.0175-.2342.2454-.4015.4382-.552.4557-.3346.7536-.8532.8413-1.3886.0175-.1338.035-.2677.0175-.4015-.0526-.2342-.0351-.4182-.0175-.6692.0876-1.6897.1577-3.3794.2278-5.0691.0701-1.8569.1402-3.7139.1753-5.5542.0526-1.8235.0701-3.6638.0876-5.4873.0175-1.8068.0175-3.6136 0-5.4036 0-.8867-.0175-1.7901-.035-2.6768 0-.4517-.0176-.8866-.0351-1.3383-.0175-.4183-.0876-.8867-.035-1.305.0175-.1505.0701-.2676.035-.4182-.0175-.184-.0701-.3513-.1227-.5353-.1051-.3514-.2629-.686-.4557-1.0038-.1928-.3179-.4206-.6023-.701-.87-.0701-.0669-.8062-.7193-.8763-.6524.2278-.2008.4206-.4182.5959-.6525.4556-.619.7185-1.3383.8938-2.0744.0876-.3681.1402-.7529.1928-1.1376.0175-.067.0526-.1339.0526-.2175.0526-.2677-.0176-.5856-.0351-.8532-.0526-1.1042-.1227-2.2418-.2103-3.3627z" fill="url(#b)"/><path d="m73.6312 22.9677c0 1.9071-.035 3.8143-.035 5.7215-.0175.9034 0 1.8235-.0175 2.7436 0 .5019-.0176.9871-.0176 1.4722-.035 2.5931-.0701 5.1862-.1402 7.7793-.035 1.2882-.0701 2.5764-.1227 3.8645-.035.7696-.0175 1.489-.2804 2.2083-.2979.8031-.2804 1.7901-.368 2.6433-.0351.2677-.0877.5521-.298.7529-.1928.184-.4732.2174-.7536.2342-.4382.0502-.8939.0836-1.332.1338-2.5764.251-5.1704.4852-7.7468.5521-1.9103.0334-3.8383-.0167-5.7486-.2175 1.4547.2008 2.9094.4182 4.3641.619.4206.0669.8237.1171 1.2443.184 2.962.4183 5.924.8365 8.886 1.2547.2629.0502.5608.0837.7536.2677.298.251.3155.6859.298 1.0707-.0351.5688-.0877 1.1376-.1928 1.7064-.1578 1.1209-.3856 2.2418-.4382 3.3794-.0175.2342.0351.4684-.0175.7026-.1227.7194-.6836 1.4053-1.1042 1.9741-1.963 2.6433-5.1353 4.333-8.5179 4.5338-15.3181.9201-31.3899.8364-48.0751-.067-2.4012-.1338-4.73219-1.0205-6.57248-2.5094-1.10416-.8867-2.1207-2.0243-2.75165-3.279-.28043-.5688-.35053-1.2213-.63096-1.8068-.05258-.1338-.10516-.2509-.15774-.3848-.08763-.3848-.05258-.803.29795-1.0707.36806-.2844.89386-.3011 1.36707-.3178 5.31051-.1673 10.60351-.4852 15.91401-.6358h.1578c1.6124-.0501 3.2424-.0669 4.8548-.0669-.5959-.0836-1.1918-.1673-1.7877-.2175-2.7341-.3178-5.5033-.4182-8.255-.5186-.035 0-.0701-.0167-.0876-.0167h-.035c-3.3301-.1171-6.64258-.2509-9.92004-.7361-.63095-.1004-1.27943-.2175-1.84028-.4684-.42064-.1841-.78869-.435-1.05159-.8031-.01753-.0334-.03505-.0669-.05258-.0836-.38558-.5688-.52579-1.422-.40311-2.0577.15774-.7361.05258-1.4555.01753-2.2418-.07011-1.3384-.15774-2.6935-.21032-4.0318-.05258-.7361-.08763-1.4722-.12269-2.2084-.01752-.4015-.03505-.8532.22785-1.171.21032-.251.57837-.3346.91138-.4183 1.03406-.2509 2.06812-.5019 3.13724-.6524.47321-.0837.94643-.1339 1.41965-.1673-1.22686-.251-2.43619-.5186-3.66304-.7696-.36806-.0836-.73611-.1673-1.06912-.3346-.0701-.0334-.15774-.0836-.22784-.1338-.5959-.4182-.75364-.9871-.84127-1.5893-.03506-.2008-.05258-.4183-.08764-.619-.08763-.4852-.15773-.9536-.19279-1.4388-.08763-.7361-.12268-1.4722-.15774-2.2083-.0701-1.606-.15773-3.6805.91138-5.0356.38558-.4851 1.06912-.6022 1.70007-.6692 2.47124-.2844 4.94247-.5353 7.41375-.7361.5082-.0501 1.034-.0836 1.5423-.1338 2.5063-.184 4.995-.3513 7.5189-.4517-3.0146.1338-6.0467.1004-9.0612-.1004-1.8929-.1171-3.78576-.3011-5.67863-.5353-.78869-.1004-1.61243-.2175-2.31349-.5688-.01753-.0168-.03506-.0168-.05258-.0335-.19279-.0836-.36806-.184-.54332-.3178-.38559-.2844-.66601-.6692-.82375-1.1042-.17526-.4517-.08763-.8365-.01753-1.2882.01753-.1673 0-.3346 0-.5019-.03505-1.0205.05258-2.0577.07011-3.0782.01753-.5186.03505-1.0372.07011-1.5726.0701-2.2752.19279-4.5504.333-6.8257.35053-5.52073 5.0301-9.887156 10.81388-10.104641 15.9491-.618995 31.9683-.618995 48.0751-.01673 5.1704.200755 9.6747 3.864541 10.6561 8.732851.298 1.48892.4032 3.11172.1052 4.61732-.0701.3848-.1753.7529-.3155 1.1042-.0876.2008-.2278.619-.4206.7863-.0175.0167-.0351.0334-.0351.0334-.1402.0837-.333.1004-.4732.1339-.9464.2175-1.8928.4015-2.8393.5688-1.8928.3179-3.8032.5521-5.7136.7194-.0175 0-.0175 0-.0175 0-3.8559.3178-7.7467.3847-11.6026.4517h-.1051c1.0516.0669 2.1207.1171 3.1723.184 2.8743.1506 5.7487.3178 8.623.4851 1.9104.1004 3.8383.2008 5.7487.3179 1.1567.0669 2.3661.1506 3.3651.7027.0175 0 .0175.0167.0175.0167 1.297.803 1.3671 2.2752 1.3495 3.6638z" fill="url(#c)"/><path d="m73.6312 22.9674c0 1.9072-.035 3.8144-.035 5.7215-.0176.9034 0 1.8236-.0176 2.7437 0 .5019-.0175.9871-.0175 1.4722-7.3786.4684-14.7748 1.0707-22.171 1.5057-8.623.5019-17.2461 1.0539-25.8516 1.5893-4.6445.2844-9.254.619-13.881 1.1209-3.10215.3346-6.0466.8197-9.06116.6524-.03505-.2007-.05258-.4182-.08763-.619-.08763-.4851-.15774-.9536-.19279-1.4387 3.04961-.619 6.11674-.5186 9.35918-.619 4.3465-.1339 8.623-.435 12.952-.803 8.6231-.7696 17.2461-1.5726 25.8692-2.5095 5.1352-.5688 10.2705-1.0707 15.4233-1.6227-.1928 0-.3506-.0168-.5258-.0168-8.4303-.4349-16.7203-1.9239-25.1155-2.6432-8.3426-.7027-16.6852-1.3217-25.0454-1.8068-3.3826-.2008-7.25592-.1339-11.0767-.4016-.01753-.0167-.03505-.0167-.05258-.0334-.19279-.0837-.36806-.184-.54332-.3179-.38558-.2844-.66601-.6692-.82375-1.1041-.17526-.4517-.08763-.8365-.01752-1.2882.01752-.1673 0-.3346 0-.5019-.03506-1.0205.05258-2.0577.0701-3.0782.01753-.5187.03506-1.0373.07011-1.5726 4.24141-.2342 8.62306.0334 12.39126.0836 8.3601.0669 16.7027.4517 25.0453.9202 8.3777.4684 16.7378.2676 25.1155.6524 2.2609.1004 4.5394.184 6.8003.2342 1.367.8198 1.4547 2.292 1.4196 3.6805zm-27.6743 18.7037c-14.2491.6525-29.2517.0502-43.13271 3.5634.0701 1.3384.14021 2.6935.21031 4.0318.03506.7696.14022 1.489-.01752 2.2418-.12269.6357.03505 1.4889.40311 2.0578 4.20636 1.0539 8.50031 1.7064 12.86441 2.1079.0351 0 .0701.0167.1227.0167 2.7342.2677 5.4858.4183 8.255.5186 7.1333.251 14.3191.1004 21.2947.1506 8.7282.0836 17.4564-.1004 26.167-.3848.0877-.5688.1578-1.1209.1928-1.7064.0176-.3848 0-.803-.2979-1.0707-.1928-.1673-.4908-.2175-.7537-.2677-3.3826-.4684-6.7477-.9536-10.1303-1.4387-1.4547-.2008-2.9094-.4183-4.3641-.619 4.4868.4851 9.0087.1171 13.513-.3346.4381-.0502.8938-.0836 1.332-.1338.2629-.0168.5608-.0502.7536-.2343.2103-.184.2629-.4851.298-.7528.1051-.8532.0701-1.8235.368-2.6433.2629-.7361.2629-1.4387.2805-2.2083.0525-1.2881.0876-2.5763.1226-3.8645-9.1488.2844-18.3327.5521-27.4815.9703z" fill="url(#d)"/><g fill="#eb924d"><path d="m3.49014 53.6494c-.42063-.5688-.5959-1.4722-.45569-2.1414.15774-.7361.05258-1.4555.01753-2.2418-.12268-2.0745-.22784-4.1657-.35053-6.2401-.01753-.4015-.03505-.8532.22785-1.1711.21031-.2509.57837-.3346.91137-.4182 1.03407-.251 2.06813-.5019 3.13725-.6525-.5959.435-1.17428.7863-1.87534 1.1209-.24537.1171-.50827.2342-.68353.435-.19279.2007-.2629.5018-.33301.7695-.5959 2.6098-.26289 5.3368.05258 7.9968.14022 1.1041.28043 2.225.38559 3.3459-.40311-.184-.77117-.4517-1.03407-.803z"/><path d="m2.50874 37.1708c-.21032-1.2046-.29795-2.4426-.36805-3.6471-.07011-1.606-.15774-3.6805.91137-5.0356.38559-.4852 1.06912-.6023 1.70007-.6692 2.97951-.3513 5.95897-.6357 8.95607-.8532-2.8393.9034-6.08172.9201-8.83338 2.0243-.50827.2007-1.01654.4517-1.29696.9034-.19279.3011-.2629.6524-.31548.987-.17526 1.0707-.29795 2.0912-.22784 3.1786.05258.686.10516 1.3886.17526 2.0745.10516 1.1376.28043 2.2585.47322 3.3794-.07011-.0335-.15774-.0837-.22785-.1338-.80622-.5521-.78869-1.3886-.94643-2.2083z"/><path d="m60.644 51.2738.3681.1506c-.1227-.0168-.2454-.0669-.3681-.1506z"/><path d="m72.3167 54.2517c-.0701 1.7232-.5609 3.3794-.6134 5.0858-.0176.2342.035.4684-.0176.7026-.1226.7194-.6835 1.4053-1.1041 1.9741-1.963 2.6433-5.1353 4.333-8.5179 4.5337-15.3182.9202-31.39.8365-48.0752-.0669-2.4011-.1338-4.73214-1.0205-6.57242-2.5094-1.10417-.9034-2.1207-2.041-2.75166-3.279-.28042-.5688-.35053-1.2213-.63095-1.8068-.05258-.1338-.10516-.2509-.15774-.3848-.08763-.3848-.05258-.803.29795-1.0707.36806-.2844.89385-.3011 1.36707-.3178 5.31055-.1673 10.60355-.4852 15.91405-.6358-4.662.251-9.3066.87-13.89851 1.6563-.63095.1003-1.31448.1505-1.92791.3178-.10516.0502-.21032.0502-.28043.1339-.12268.1171-.08763.2844-.0701.4349.0701.5187.36806.9536.70106 1.3719 1.06911 1.3383 2.20834 2.7436 3.7682 3.5299 3.78569 1.9072 7.64159 1.6228 11.93549 1.5224.8764-.0167 1.7352 0 2.6115-.1506.4382-.0836.964 0 1.4021.0168.999.0334 1.998.0502 3.0146.0836 1.998.0502 4.0135.1004 6.0116.1673 3.7506.1004 7.5013.2008 11.252.3011 3.5754.1004 7.1508.1673 10.7262-.1003 3.5228-.2677 7.0456-.9202 10.3056-2.2585.2629-.1171.5783-.2175.8062-.3848.1752-.1171.3155-.2677.4907-.3848.5434-.3346 1.0691-.6692 1.5424-1.0874.3154-.2844.7711-.6525.9289-1.054.0876-.2175.1402-.4684.2278-.6859.2278-.619.3505-1.2714.4031-1.9239.0526-.7194.0175-1.4555-.0701-2.1748-.035-.3179.0175-.9202-.1928-1.1878-.1051-.1506-.3856-.2844-.5608-.3681-.4557-.2175-.9815-.3179-1.4898-.4015-2.7166-.4852-5.3981-1.2714-7.922-2.3421 3.3827.4851 6.7477.9535 10.1304 1.4387.2629.0502.5608.0836.7536.2677.2629.2175.2804.6524.2629 1.0372z"/><path d="m2.78915 23.8376c-.14021-.5353-.14021-1.0874-.12268-1.6395.0701-2.66.14021-5.3367.29795-7.9967.14021-2.4426.08763-5.01892 1.13922-7.29415 1.7176-3.7307 5.62601-6.273595 9.88496-6.440891 15.9491-.618995 31.9683-.618995 48.0752-.01673 5.1703.200755 9.6746 3.864541 10.6561 8.732851.2979 1.48892.4031 3.11172.1051 4.61732-.0701.3848-.1752.7529-.3155 1.1042-.0876.2008-.2278.619-.4206.7863-.333-2.4425.298-5.1193-.6309-7.42795-.5434-1.38856-1.3321-2.76038-2.5764-3.68051-4.1188-2.9946-10.1654-2.79384-15.0904-2.87749-13.618-.23422-27.1485-.63573-40.714.53535-.6309.05018-1.2444-.1673-1.8403-.06692-1.33199.23421-2.64648 1.10415-3.62796 1.95736-1.34954 1.1878-2.3836 2.69347-3.01456 4.33297-.17526.48515-.333.97031-.47321 1.45547-1.31449 4.83482-.75364 10.40582-.12269 15.30762-.57837-.1841-.98148-.7027-1.17427-1.2715-.01753-.0335-.01753-.0669-.03506-.1171z"/><path d="m73.6313 22.9673c0 1.9072-.0351 3.8144-.0351 5.7215-.0175.9034 0 1.8236-.0175 2.7437-.035 4.3831-.0876 8.7496-.2629 13.1327-.035.7696-.0175 1.4889-.2804 2.2083-.298.803-.2804 1.7901-.3681 2.6433-.035.2677-.0876.5521-.2979.7528-.1928.184-.4732.2175-.7537.2342-.4381.0502-.8938.0837-1.332.1339.2629-.1673.4557-.4015.6135-.6859.2103-.4183.2628-.9034.2979-1.3719.6485-7.7123.6835-15.4581.4557-23.1872-.0351-1.0205-.0701-2.041-.1227-3.0615-.0175-.2342.0351-.4517.0175-.6859-.035-.3011-.1928-.5855-.4031-.8365-.4557-.5353-1.1567-.8699-1.8227-1.0874-4.9425-1.5893-10.4809-.435-15.4759-1.857h.5959c4.8022.2677 9.587.5354 14.3717.803 1.1567.0669 2.3661.1506 3.3651.7027 1.4021.8197 1.4897 2.3087 1.4547 3.6972z"/></g><path d="m61.1348 51.4913c.4207.0669.8238.1171 1.2444.184-.2278.7696-.5608 1.4889-1.0516 2.0912-1.998 2.4593-5.7311 2.911-8.6756 3.0615-4.995.2677-9.9901.5521-14.9851.5354-5.3807-.0168-10.6737-.5019-16.0368-.87 1.6125-.0502 3.2424-.0669 4.8549-.0669-.5959-.0836-1.1918-.1673-1.7877-.2175-2.7342-.3178-5.5033-.4182-8.255-.5186-.0351 0-.0701-.0167-.0876-.0167h-.0701c-.2104-.0502-.4382-.1171-.6661-.184-.4556-.1339-.9289-.2844-1.3144-.5354-.9114-.619-1.2795-1.7733-1.595-2.8273-.701-2.409-.4381-4.8014-.2979-7.2439.1577-2.6265.1577-5.2531.1052-7.8796-.0877-3.2958-.2454-6.625-.3506-9.9207.5083-.0502 1.0341-.0836 1.5424-.1338 1.2794-.1004 2.5413-.1841 3.8207-.251.0351 4.333.298 8.6827.4732 12.9989.0176.4685-.0525.9369 0 1.3886.0351.2677 0 .435.1928.6524.2629.3179 1.0341.6358 1.4898.7194.5433.0837 1.1217.0335 1.665.0335 1.1918 0 2.4011 0 3.5929.0167-1.1742.184-2.3485.3011-3.5403.3513-.5083.0167-1.1217-.0669-1.5949.0837-.4732.1505-.9465.2175-1.4197.3346-.1402.0334-.2804.0669-.368.1673-.0877.0836-.1052.2007-.1402.3178-.0877.4852-.0351.9703.1051 1.4388.1052.368.2454.6859.2103 1.0707-.0876.9034.0526 1.8235.1928 2.7269.0526.3346.0701.6357.2805.9201.4556.6023 1.2619.9369 1.9804 1.1209 5.5559 1.4555 11.3747 1.5224 17.141 1.5726 3.4001.0334 6.8002.0669 10.2004-.0335 2.3135-.0669 6.5374.3681 8.5354-.987.2804-.1841.5258-.4183.7186-.6859 1.3144.2174 2.5939.4015 3.8908.5855zm-43.5883-27.5871c.0175-.9201.1051-1.8403.1928-2.7604.0175-.1506.0175-.3011 0-.4517-.0351-.3011-.0351-.5353.035-.8197.1753-.6358.4907-1.305 1.1217-1.6395.4206-.2175.9289-.2343 1.4196-.251 2.3836-.0669 4.7673-.0669 7.1509-.0167-1.8929-.184-3.7858-.3848-5.6786-.5688-1.0691-.1004-2.1558-.2175-3.1899.0334.0351-.0167.1403-.2676.1753-.3011.0701-.1171.1578-.2342.2454-.3346.1577-.2007.3505-.4015.5608-.5688.3681-.3011.7011-.6357 1.0867-.9201.8237-.6023 1.7702-1.0205 2.7341-1.3551.9114-.3179 1.8578-.5354 2.8042-.7529.6485-.1505 1.3145-.1505 1.9805-.1672 7.4663-.1172 14.9326-.1339 22.3989-.2008 1.2444-.0167 2.5238.4015 3.7331.7026.8939.2343 1.8053.6023 2.3836 1.2882.5434.6525.8413 1.5893.999 2.6266 1.7702-.0502 3.5404-.1506 5.3456-.3012-.1577-2.0242-.5258-3.9816-2.0155-5.5207-1.63-1.67299-4.3992-2.02431-6.6426-2.14142-2.5238-.13384-5.0476-.21749-7.5714-.2844-1.9805-.03346-3.9435-.06692-5.9064-.06692-4.0311 0-7.9921.13383-11.9881.33459-4.3116.21748-9.7798-1.17107-13.4604 1.65625-1.8578 1.4555-2.7517 3.2121-3.1022 5.4706-.2804 1.7231-.2979 3.4797-.2979 5.2196 0 1.5057.035 3.028.0876 4.5839 1.7877.1171 3.5754.184 5.3631.184 0-.8866 0-1.7733.0351-2.6767zm46.1297 5.8219c-.0876-3.2957-.2629-6.5915-.5083-9.8872-.035-.5186-.0701-1.0372-.1051-1.5726-1.7702-.1004-3.5579-.2007-5.3456-.3011.1752 1.8068.0175 3.8143.1051 5.1527.1402 2.0745.333 4.1489.5083 6.2067.0876 1.0038.1753 2.0075.2278 3.0113.0176.3179.0877.5855-.1051.8532-.333.4684-1.0516.5521-1.5949.5856-2.9094.184-5.8539.2509-8.6932.9033 3.6105.1172 7.221.067 10.8139-.184-.0701.3012-.1578.619-.2279.9369-.0701.2677-.1752.5521-.1752.8197 0 .1673.0701.3346.0876.5019.0526.2844.0175.6023.0351.8867.0175 1.2714 0 2.5429-.0176 3.8143-.0175 1.0707-.0525 2.1414-.0876 3.1954-.0175.1171-.0175.2509-.0175.368-.0701 1.7399-.0877 4.3163-1.3145 5.8721 1.7526.1673 3.5053.2175 5.2404.1841.333-1.3886.4382-2.8775.5959-4.1657.5784-4.5003.5083-9.0842.5433-13.6179.0176-1.1878.0176-2.3589.0176-3.53.035 0 .0175-.0167.0175-.0334z" fill="url(#e)"/><g fill="#eb924d"><path d="m44.9753 57.012c2.296-.0335 4.6446-.0837 6.923-.4015.4732-.067.9815-.0502 1.4722-.0837 1.0341-.0669 2.0506-.1673 3.0672-.3011.666-.0837 1.332-.184 1.9805-.4015 1.9454-.6358 3.4877-2.3087 3.9084-4.2326-1.0691-.0502-2.2785-.0502-3.3651-.1004.8938-.1673 2.2083.2844 2.6114 1.0707-1.1567.9703-2.4537 1.8403-3.9259 2.225-.7887.2008-1.6124.2677-2.4187.3179-5.5208.4015-11.0592.8197-16.58.7361-2.6641-.0335-5.3106-.2008-7.9746-.1004-.7712.0335-1.5423.0837-2.296.1004-.4381.0167-.8763.0502-1.3144-.0167-.298-.0335-.6135-.0168-.9114-.0168-.666 0-1.3145-.0167-1.9805-.0501-1.3145-.0502-2.629-.1506-3.9435-.2845-1.4196-.1505-2.8568-.3345-4.2589-.5688-.6835-.1171-1.4021-.2509-1.8929-.7026-.333-.3011-.5433-.7026-.7186-1.0874-.5783-1.2715-.9639-2.6266-1.1567-3.9984-.5083 1.6897.0175 3.5467 1.1918 4.9185 1.1042 1.2882 2.8042 2.0243 4.5043 2.3254 1.2794.2342 2.7166.3513 3.996.2175.2805-.0335.5609 0 .8588.0167.666.0335 1.3321.0669 1.9981.1004 1.332.0669 2.664.1171 3.996.1506 1.332.0334 2.6465.0502 3.9785.0669.6134 0 1.2794.0669 1.8929-.0167.5959-.0837 1.2619.0167 1.8753.0334 2.664.0837 5.3456.1506 8.0096.1171.1578-.0167.3155-.0167.4732-.0334z"/><path d="m64.9732 18.7851s-2.1558-.067-2.3486-.067c-.8062-.0334-1.5949-.0669-2.4011-.1171-.4031-.0334-.8062-.0502-1.1918-.0836-.1928-.0167-.4031-.0335-.5959-.0502-.1227-.0167-.2454-.0335-.3506-.0335-.0525 0-.0876.0168-.1226.0168-.0702-.0168-.1578-.0335-.2279-.0502-.3155-.0837-.6309-.1506-.9464-.2342 0-.0502-.0175-.0837-.0175-.1339 0-.0167.4381-.0167.4732-.0167.1227.0167.2629.0502.3856.0335.1051-.0168.1927-.0335.2979-.0335h.4907c.6661 0 1.3321.0167 1.9805.0502.666.0335 1.3321.0669 1.9805.1171.666.0502 1.3321.1171 1.9805.184.2279.0335.4732.0502.7011.0837.0175.1505-.0876.184-.0876.3346z"/><path d="m18.265 26.6145c-2.1032.2008-4.2064.4852-6.2921.8365-.1402-.1339-.1927-.2844-.1577-.4517 2.1908-.251 4.2239-.2844 6.4498-.3848z"/></g><path d="m59.9825 30.7532c.0697 4.6861-.0698 9.3046-.401 13.8723-.0698 1.0319-.1395 2.0639-.2616 3.0958-.279 3.1128-3.0165 5.5659-6.3991 5.7858-10.8104.6767-21.8475.6429-33.0939-.0169-3.4349-.203-6.2073-2.7406-6.4165-5.9042 0-.0507-.0174-.0846-.0174-.1353-.4359-7.9343-.5057-16.0039-.2267-24.1919.0174-.3891.0174-.7782.0349-1.1673.0697-1.5564.122-3.1128.2266-4.6692.0175-.3722.0698-.7275.157-1.0827 0-.0677.0174-.1354.0523-.203.7148-2.6561 3.2605-4.6185 6.3467-4.7707 10.793-.4906 21.7081-.4906 32.7801.0169 3.4524.1522 6.2945 2.6391 6.556 5.8196.2615 2.9774.4359 5.9211.5405 8.8308.0872 1.5903.1221 3.1467.1221 4.72z" fill="#e58a4a"/><g fill="#ffdf80"><path d="m49.1972 38.4036v.0505c-.225.0169-.45.0673-.6749.1178-.18.0505-.345.1347-.525.1851-1.3949.3703-2.7899.5386-4.1998.6564-.06 0-.375-.0169-.4049.0336-1.665 2.4066-3.6598 4.2577-5.7447 5.5536-.12.0673-.255.1346-.36.0336s-.12-.3029-.15-.488c-.06-.3702-.105-.7573-.15-1.1444-.03-.3366 0-.7068-.075-1.0265-.075-.303-.09-.6059-.12-.9088-.045-.791-.09-1.5819-.12-2.3729-.06-1.5819-.09-3.1638-.09-4.7457s.045-3.1639.12-4.7458.195-3.1638.3-4.7289c.045-.7068.105-1.4136.165-2.1373.03-.3534.06-.7068.09-1.0602.015-.1009.12-.8751.075-.9087.9449.5721 1.8749 1.3463 2.7148 2.2382 1.11 1.1612 2.3999 2.9451 3.4648 4.1567 1.8449.3703 3.6148.6395 5.4147.7405.045 0 .09.0168.12 0 0 0 .105.4207.12.4544.09.4207.195.8414.225 1.279.24 2.9114-.015 5.9069-.195 8.7678z"/><path d="m29.1734 44.3273c-.105-.3197-.27-.6226-.375-.9424-.12-.3366-.225-.6731-.315-1.0265-.195-.69-.3299-1.4137-.4799-2.1205-.435-2.0363-.525-4.1567-.54-6.2603 0-.7742.03-1.5651.105-2.3392.18-1.9522.555-3.8539 1.0799-5.7219.255-.9255.54-1.8511.855-2.7599.105-.3029.5849-1.178.075-1.3463-.855-.2693-1.5899-.9761-2.3699-1.4473-.09-.0505-.165-.1178-.24-.2019-.195-.2188-.5099-.303-.7499-.4376-1.5599 2.1205-2.3099 4.9982-2.7299 7.8591-.7049 4.6953-.6449 9.5588.165 14.2204.18 1.0097.405 2.0531.885 2.9451.24.4375.5849.976 1.0199 1.1948.435.202.945-.1851 1.3199-.3534.195-.101 2.4299-.8583 2.2949-1.2622z"/><path d="m35.113 41.5168c-.075-.2525-.2099-.4881-.2849-.7237-.09-.2524-.165-.5217-.24-.7909-.135-.5217-.255-1.0603-.36-1.5988-.33-1.5482-.405-3.1638-.405-4.7794-.015-1.6829.225-3.3489.6-4.9645.225-.9424.48-1.868.7799-2.7936.075-.2356.15-.4544.225-.6732.075-.2019.195-.4039.06-.6058-.09-.1515-.21-.1515-.345-.1851-.4199-.1515-.8249-.3703-1.1999-.6395-.18-.1178-.42-.2524-.54-.4544-.1349-.2356-.3149-.7741-.6299-.4039-.285.3366-.51.791-.705 1.2117-.225.4544-.405.9424-.5699 1.4304-.345 1.0434-.57 2.1373-.72 3.2312-.54 3.5677-.495 7.2869.12 10.8378.21 1.1948.54 2.4738 1.3649 3.0965.045.0337.285-.0168.375-.0168.075.0168.135 0 .21-.0168.195-.0505.39-.1347.5699-.2188.315-.1515.6-.4039.93-.5217.27-.1178.54-.202.7649-.4207z"/></g><path d="m49.7072 37.6803v.0504c-.225.0169-.45.0674-.675.1178-.18.0505-.3449.1347-.5249.1852-1.395.3702-2.7899.5385-4.1998.6563-.06 0-.375-.0168-.405.0336-1.6649 2.4066-3.6598 4.2577-5.7446 5.5536-.12.0673-.255.1346-.36.0336-.09-.1009-.12-.3029-.15-.488-.06-.3702-.105-.7573-.15-1.1444-.03-.3365 0-.7068-.075-1.0265-.075-.303-.09-.6059-.12-.9088-.045-.7909-.09-1.5819-.12-2.3729-.06-1.5819-.09-3.1638-.09-4.7457s.045-3.1638.12-4.7458c.075-1.5819.195-3.1638.3-4.7289.045-.7068.105-1.4136.165-2.1372.03-.3534.06-.7069.09-1.0603.015-.1009.12-.8751.075-.9087.9449.5722 1.8749 1.3463 2.7148 2.2382 1.11 1.1612 2.3849 2.9451 3.4648 4.1568 1.8449.3702 3.6148.6395 5.4147.7404.045 0 .09.0169.12 0 0 0 .105.4207.12.4544.09.4207.195.8415.225 1.279.24 2.9114-.015 5.9069-.195 8.7679z" fill="#a04623"/><path d="m29.6834 43.6038c-.105-.3197-.27-.6226-.375-.9424-.12-.3366-.225-.6731-.315-1.0265-.195-.69-.33-1.4137-.48-2.1205-.4349-2.0363-.5249-4.1567-.5399-6.2603 0-.7742.03-1.5651.105-2.3392.18-1.9522.5549-3.8539 1.0799-5.7219.255-.9256.54-1.8511.855-2.7599.105-.3029.5849-1.178.075-1.3463-.855-.2693-1.59-.9761-2.3699-1.4473-.09-.0505-.165-.1178-.24-.2019-.195-.2188-.51-.303-.75-.4376-1.5599 2.1204-2.3098 4.9982-2.7298 7.8591-.705 4.6953-.645 9.5588.165 14.2204.18 1.0097.405 2.0531.8849 2.9451.24.4375.585.976 1.02 1.1948.435.202.9449-.1851 1.3199-.3534.195-.101 2.4299-.8414 2.2949-1.2622z" fill="#a04623"/><path d="m35.623 40.7934c-.075-.2525-.21-.4881-.285-.7237-.09-.2524-.165-.5217-.2399-.7909-.135-.5217-.255-1.0602-.36-1.5988-.33-1.5482-.405-3.1638-.405-4.7794-.015-1.6829.225-3.3489.6-4.9645.225-.9424.4799-1.868.7799-2.7936.075-.2356.15-.4544.225-.6731.075-.202.195-.4039.06-.6059-.09-.1514-.21-.1514-.345-.1851-.42-.1515-.8249-.3702-1.1999-.6395-.18-.1178-.42-.2524-.54-.4544-.135-.2356-.315-.7741-.6299-.4039-.285.3366-.51.791-.705 1.2117-.225.4544-.405.9424-.57 1.4305-.3449 1.0434-.5699 2.1372-.7199 3.2311-.54 3.5677-.495 7.2869.12 10.8378.21 1.1949.5399 2.4739 1.3649 3.0965.045.0337.285-.0168.375-.0168.075.0168.135 0 .21-.0168.1949-.0505.3899-.1347.5699-.2188.315-.1515.6-.4039.93-.5217.285-.1178.5399-.202.7649-.4207z" fill="#a04623"/></svg>