<svg fill="none" height="294" viewBox="0 0 297 294" width="297" xmlns="http://www.w3.org/2000/svg" xmlns:xlink="http://www.w3.org/1999/xlink"><linearGradient id="a"><stop offset="0" stop-color="#cf5c2b"/><stop offset="1" stop-color="#59173e"/></linearGradient><linearGradient id="b" gradientUnits="userSpaceOnUse" x1="222.268" x2="120.27" xlink:href="#a" y1="-145.523" y2="78.4603"/><linearGradient id="c" gradientUnits="userSpaceOnUse" x1="215.213" x2="-86.5179" xlink:href="#a" y1="-52.5354" y2="451.457"/><linearGradient id="d" gradientUnits="userSpaceOnUse" x1="202.197" x2="-99.5343" xlink:href="#a" y1="-18.2613" y2="485.732"/><linearGradient id="e" gradientUnits="userSpaceOnUse" x1="250.73" x2="-.961201" xlink:href="#a" y1="-191.9" y2="308.644"/><linearGradient id="f" gradientUnits="userSpaceOnUse" x1="219.212" x2="-32.4796" xlink:href="#a" y1="-79.9118" y2="420.632"/><linearGradient id="g" gradientUnits="userSpaceOnUse" x1="289.569" x2="38.2412" xlink:href="#a" y1="-325.99" y2="153.382"/><path d="m296.991 270.79c-.075-1.979-.138-3.941-.214-5.92-.113-3.281-.226-6.562-.339-9.826-.025-.795-.051-1.573-.076-2.368-.1-3.01.189-6.122-.969-8.862-.314-.727-.792-1.471-1.409-1.454.78-.356 1.208-1.489 1.409-2.554.277-1.505.416-3.45.428-5.006.013-1.404-.075-2.842-.113-4.245-.038-1.624-.088-3.231-.126-4.854-.088-3.248-.163-6.478-.239-9.725-.075-3.23-.151-6.461-.214-9.691-.012-.592-.025-1.184-.038-1.776-.037-1.657-.062-3.298-.062-4.955 0-1.269-.277-2.469-.894-3.45-.541-.863-1.396-1.455-2.227-1.269.667-.203 1.334-.575 1.825-1.217 1.296-1.742 1.069-4.381 1.044-6.613-.05-3.197-.088-6.41-.138-9.607-.038-3.196-.076-6.376-.101-9.572-.025-3.18-.05-6.359-.076-9.539-.025-3.162-.037-6.342-.05-9.505-.012-3.162-.025-6.325-.025-9.471 0-4.938.013-9.877.075-14.832.026-1.962.189-3.704-.817-5.26-.151-.237-.315-.44-.491-.626-.076-.084-.453-.524-.554-.473.705-.321 1.271-1.083 1.573-1.979.151-.44.252-.93.264-1.437.038-1.201.063-2.419.076-3.637.038-3.94.088-8.05.163-12.0583.038-2.131.088-4.262.139-6.3929.05-1.945-.579-3.6362-1.246-5.3444.604-.2706 1.019-1.0486 1.183-1.8604.163-.7949.075-1.539.1-2.3508.101-3.0443.139-6.1055.214-9.1666.038-1.5391.063-3.0781.101-4.6172.013-.372 0-.7441.038-1.1162.025-.2199.088-.4228.088-.6596-.025-.7272-.214-1.539-.428-2.1986-.264-.8118-.692-1.556-1.283-1.928.075-.2537.289-.3552.465-.4567.793-.4566 1.346-1.5729 1.397-2.7229.012-.2875-.025-.5581-.038-.8287-.025-.9133.05-1.8604.088-2.7737.025-.9809.05-1.9619.088-2.9428.126-4.0759.252-8.1518.39-12.2278.277-7.9996.592-16.0161.944-24.0158.226-5.0399-2.579-9.42028-6.329-9.82618-93.493-10.24901-187.199-9.97841-281.10754.05074-.45293.05073-.89328.15221-1.33364.32133-1.17007.43973-2.17659 1.38683-3.17053 2.30011-.52842.4905-.90586 1.4037-1.27073 2.0972-.44035.8287-.86812 1.6912-1.28331 2.5538-1.24556 2.6383-2.5162903 5.4796-2.41563851 8.7268.13839651 3.9914.26421051 7.9828.37744451 11.9741.062907 2.0464.125814 4.1098.17614 6.1562.025163 1.0824.062908 2.1648.088071 3.2472.025163.7949-.012582 1.6236.075488 2.4185.075489.6934-.037744 1.4545-.050325 2.1648 0 .8287.037744 1.6744.113233 2.5031.050326.4397.113233.8963.276797 1.3022.52842 1.2685 1.84947 1.4038 2.69243 2.3171-.8178.1522-1.62301.4566-2.3779.8963-.11323.0677-.22646.1353-.28937.2706-.100654.1692-.100654.4059-.100654.6258.012582 2.1817.012582 4.3634.025164 6.5451 0 .9133-.088071 1.9112.11323 2.7906.18872.8795.10065 1.9619.12582 2.8752.08807 4.2619.16356 8.5239.23905 12.7859.05032 2.6214.08807 5.2259.12581 7.8474.01258 1.2346.06291 2.4692.06291 3.7038 0 .203-.02517.3214-.06291.5243-.18872.8964.05033 1.8604.40261 2.6215.76747 1.6236 2.13885 2.706 3.57314 2.8079-.69198.338-1.38397.659-2.07595.997-.47809.237-.99393.491-1.25814 1.083-.15098.321-.20131.71-.23905 1.099-.54101 5.091-.31454 10.266-.16356 15.391.15098 5.107.15098 10.215.17614 15.322.01258 4.296.02516 8.609.02516 12.905 0 4.312 0 8.625-.01258 12.938-.01258 3.095-.06291 6.207-.03774 9.302 0 .473.07548.862 0 1.319-.21389 1.184-.25163 2.418.07548 3.568.37745 1.336 1.27073 2.453 2.32758 2.673-.66682.219-1.39655.49-1.79915 1.234-.2768.508-.35228 1.15-.40261 1.776-.08807 1.049-.12582 2.097-.1384 3.163 0 .896.1384 1.877-.01258 2.756-.31454 1.827-.21388 3.755-.22646 5.615-.02517 2.503-.06291 5.023-.08808 7.526-.05032 4.347-.11323 8.693-.18872 13.023-.0629 4.347-.15097 8.693-.22646 13.057 0 .964-.03775 1.945-.05033 2.925-.01258.761.07549 1.692-.05033 2.419-.05032.304-.13839.575-.17614.896-.088067.778-.125811 1.607.10066 2.351.26421.863.89328 1.522 1.58526 1.658-.62907-.186-1.18266.659-1.30847 1.505-.11324.744-.05033 1.522-.17614 2.266-.05033.304-.07549.626-.11324.947-.0629.626-.11323 1.235-.163555 1.861-.08807 1.251-.125815 2.503-.125815 3.737 0 .22 0 .44.075489.626.062907.186.176141.321.301951.44.8178.879 1.78657 1.505 2.80567 1.826-.80521.355-1.61043.711-2.41564 1.066-.18872.084-.39003.169-.52842.355-.264213.338-.289376.896-.289376 1.387-.012581 1.082-.012581 2.182-.025163 3.264 0 .389-.100651.744-.113233 1.133-.025163.541-.025163 1.099-.037744 1.641-.062908 2.181-.113234 4.363-.176141 6.545 0 .152-.012581.304-.012581.456-.125815 4.381-.25163 8.761-.3900261 13.141-.1509779 5.007 2.6672741 9.302 6.3788041 9.674 95.01484 9.455 188.73484 9.539 281.13284.034 1.51-.152 2.969-.998 4.089-2.368.239-.287.541-.558.755-.879 1.371-1.996 3.045-5.125 3.8-7.678.44-1.725.868-3.332.792-5.192z" fill="url(#b)"/><path d="m290.64 280.531c-92.399 9.522-186.118 9.438-281.13345-.016-3.72411-.373-6.54236-4.668-6.39138-9.674.03774-1.117.05032-2.233.0629-3.349.02517-.913-.05032-1.911.07549-2.808.05033-.321.16356-.592.20131-.913.03774-.304.0629-.626.07549-.947.0629-.778.10065-1.539.15097-2.317.15098-2.182.31454-4.363.46552-6.545.01258-.203.02516-.406.03774-.592.02516-.338.06291-.71.21389-.981.13839-.254.35228-.372.57874-.474 2.64211-1.403 5.57358-2.283 8.42958-2.249 3.1202.017 6.0643-.457 9.1467-1.049 1.2456-.236 2.4912-.456 3.7242-.693h-1.2582c-2.7805-.017-5.5862-.152-8.3541-.457-1.5978-.169-3.1957-.389-4.7935-.659-.8304-.119-4.76841-.305-6.64305-1.218-.60391-.287-1.00651-.643-1.0191-1.116-.05032-1.725-.05032-3.45.02517-5.192.02516-.643-.10065-2.03.12581-2.588.31454-.744.15098-.355.76747-.693.62908-.356 1.14492-.778 1.8369-.964.70456-.186 1.4217-.271 2.15143-.372 2.56657-.356 5.13327-.694 7.71247-1.032-.6543-.051-1.3085-.102-1.9627-.169-3.007-.237-6.02656-.491-9.02095-.744-.4781-.051-.9562-.085-1.43429-.119-.20131-.017-.42777-.067-.51584-.287-.03775-.102-.03775-.254-.03775-.372.08807-2.639.18873-5.294.2768-7.932.21388-6.495.42777-13.006.52842-19.517.03774-.897.05032-1.776.06291-2.656.07548-5.547-.18873-11.179.33969-16.675.05033-.508.3397-6.038.32712-6.038 9.33549-.914 18.70869-1.37 28.08189-1.353.7423 0 1.4972 0 2.2395.017-.2391-.034-.4907-.068-.7423-.085l-.0126-.017c-3.6864-.473-7.3854-.998-11.0466-1.539-1.9753-.287-3.9505-.592-5.9007-.981-1.5978-.304-3.1705-.812-4.7558-1.167-.5032-.118-.9813-.051-1.4846-.017-1.472.051-3.05728-.744-4.49157-1.15-.11323-.034-.21388-.067-.3397-.101-.27679-.085-.55358-.237-.78005-.457-.50326-.524-.66681-1.404-.71714-2.283-.02516-.288-.02516-.592-.02516-.88 0-2.317-.17614-4.549-.2768-6.849-.11323-2.672.02517-5.344.02517-8 .02516-6.46.02516-12.921.01258-19.382 0-1.505-.01258-3.01-.01258-4.498-.01258-4.956-.03775-9.894-.06291-14.833-.01258-1.708.11323-3.45-.25163-5.09-.37744-1.641-.11323-3.822.03774-5.514.03775-.423.08807-.845.28938-1.184.18872-.27.46551-.439.72972-.541 2.07595-.913 4.30285-.812 6.47945-.93 2.1263-.102 4.2651-.457 6.3537-1.015.2893-.067.5913-.135.8807-.237-3.3845-.422-6.7815-.828-10.06522-1.9952-1.03168-.3721-2.10111-.8287-2.96923-1.6405-.17614-.1353-.3397-.3045-.47809-.4736-.80522-.8964-1.39655-2.2155-1.40913-3.6193-.01258-.1691.01258-.3213.03775-.4735.01258-.1353.03774-.2876.0629-.4567.17614-.8964.05033-1.9111.03775-2.8413l-.07549-4.4142c-.03774-2.6891-.06291-5.3782-.11323-8.0842-.05033-2.6383-.06291-5.2429-.3397-7.8643-.15098-1.3023-.07549-2.6384-.12582-3.9406-.06291-1.6067-.03774-3.2134.11324-4.8201.0629-.8626.18872-1.7589.47809-2.5538 0 0 0-.0169.01258-.0169.31454-.8118.83038-1.5729 1.56011-1.5391 1.082.0846 2.17659-.2198 3.2586-.3551 2.40309-.3214 4.81869-.592 7.24689-.7949 4.9446-.4397 9.9142-.6596 14.8839-.778 2.4157-.0507 4.8439-.0677 7.2595-.0846h.3523c2.1766-.0169 4.3784-.1014 6.555.0339-4.6678-.3214-9.3355-.7442-14.0032-1.2854-2.4157-.2875-4.8439-.6088-7.2595-.9471-4.1268-.5919-8.417-.5243-12.4557-1.0486-2.25208-.3044-4.52932-.4735-6.78141-.5243-.12581-.0169-.25162-.0169-.37744-.0169-.15098-.0169-.31454-.0169-.41519-.1522-.10065-.1015-.12581-.2875-.15098-.4566-.36486-3.298-.64165-6.6974-.70456-9.9953-.06291-2.723-.11323-5.4628-.2013-8.1857-.11323-4.8032-.25163-9.5894-.41519-14.3926-.16356-5.0061 2.64211-9.30192 6.34106-9.69091 93.90761-10.02914 187.61461-10.28283 281.12061-.03382 3.737.4059 6.542 4.78623 6.316 9.82623-.302 6.6466-.566 13.2932-.806 19.9399-.1 2.892-.201 5.801-.301 8.7099-.063 1.742-.101 3.5179-.164 5.2768-.038.9132-.063 1.7081-.264 2.5707-.353 1.5221-.277 3.1795-.554 4.7355-.1.4904-.214 1.0147-.49 1.3699-.277.3383-.655.4736-1.02.5919-.037.0169-.063.0169-.1.0339-4.24 1.353-8.556 2.2155-12.909 2.6214-.805.0846-1.598.1184-2.403.1691 5.02.6596 10.053 1.3361 15.073 1.9957.465.0677.968.1522 1.296.592.251.3382.352.8287.44 1.2853.088.4736.151.9471.201 1.4207.202 1.6574.202 3.3148.202 5.023-.151 3.1796-.365 6.2915-.856 9.4203-.226 1.4883-.931 1.5898-1.699 1.4206-.478-.1183-1.006-.3551-1.421-.4397-1.183-.2199-2.378-.389-3.586-.5074-2.39-.2706-4.806-.3213-7.209-.3382-1.56 0-3.133.0338-4.693.0676-6.517.1184-13.034.2537-19.539.3552.075.0338.176.0507.252.0846 7.309 2.114 14.959.9809 22.395 2.2832 2.994.5243 5.988 1.4375 9.008 1.2008 1.12-.0846 2.277-.3552 3.372.0676.994.3552 1.572 1.3361 2.101 2.4354.566 1.1839.742 2.6891.818 4.1774.063.8456.063 1.7082.1 2.4862.202 4.7359-.063 9.4539-.276 14.1729-.051.828-.076 1.674-.114 2.503-.025.609-.063 1.251-.365 1.708-.213.304-.528.457-.843.575-.012 0-.037.017-.05.017-.654.237-1.396.423-2.076.355-.226-.017-.428-.084-.641-.084-.818.101-1.661.473-2.492.642-.805.152-1.61.254-2.428.271.327.101.642.203.969.304 2.24.694 4.479 1.404 6.718 2.097.29.085.604.203.818.457.881 1.099.667 4.837.755 6.275.164 2.739.239 5.496.264 8.253.026 1.319.026 2.621.026 3.924 0 2.283-.026 4.549-.051 6.832-.012 1.59-.025 3.18-.037 4.77-.038 6.646-.101 13.293-.139 19.94-.025 2.959-.038 5.919-.038 8.879 0 3.179.315 8.625-.906 11.466-.339.812-.943 1.286-1.635 1.556-.604.254-1.271.339-1.887.406-10.179.897-20.345 1.827-30.523 2.74-.05 0-.101.017-.151.017h-.05c-.038.017-.063.017-.088.017.214 0 .44.017.654.017 11.474.304 22.948 1.218 34.36 2.706.541.084.704 1.657.793 2.165.264 1.606.39 3.264.478 4.904.025.271.05.575.063.846.301 5.26.377 10.536.427 15.796v.271c.013.507.025.998.038 1.505.013.592.025 1.167.038 1.725.038 3.044.176 6.393-.063 9.387-.076.93-.214 1.86-.453 2.756-.101.406-.201.947-.403 1.269-.553.913-1.296 1.437-2.101 1.793-.277.135-.566.253-.843.338-1.887.676-3.799 1.217-5.737 1.64.201.051.378.085.579.153 2.025.49 4.064 1.014 6.102 1.555.73.186 1.497.474 2.101 1.117.315.338.566.778.742 1.251.227.609.353 1.235.453 1.894.025.237.051.457.063.677.201 2.215-.063 4.397.113 6.596.101 1.133.164 2.249.202 3.382.075 2.182.151 4.381.226 6.562.063 1.962.139 3.924.201 5.903.239 5.057-2.591 9.386-6.315 9.758z" fill="url(#c)"/><path d="m295.823 46.0895c-.063 1.7419-.101 3.5178-.164 5.2767-.038.9133-.063 1.7081-.264 2.5707-.352 1.5221-.277 3.1795-.554 4.7355-.1.4905-.214 1.0147-.49 1.3699-.277.3383-.655.4736-1.019.592-.038.0169-.063.0169-.101.0338-4.24 1.353-8.555 2.2155-12.909 2.6214-.805.0846-1.598.1184-2.403.1692 5.02.6595 10.053 1.336 15.073 1.9956.465.0677.969.1522 1.296.592.251.3382.352.8287.44 1.2853.088.4736.151.9471.201 1.4207-6.542-.575-13.097-.8287-19.79-.8964-47.873-.4735-95.682 3.1627-143.253 10.3843-23.779 3.6024-47.5201 7.3908-71.3746 9.9615-18.3438 1.9788-37.1908 4.8201-55.77365 4.6341.01258-.1353.03775-.2876.06291-.4567.17614-.8963.05033-1.9111.03775-2.8413l-.07549-4.4142c7.64958-.9132 15.29908-1.4544 22.99888-2.2155 13.5629-1.353 27.1005-2.9259 40.6382-4.7693 48.25-6.5621 96.185-15.678 144.674-18.8406 3.536-.2199 7.071-.4398 10.619-.6258-9.046-.6765-18.105-1.3361-27.151-1.8435-12.128-.6934-24.307-1.5898-36.448-1.4714-12.657.1522-25.276 1.3869-37.921 1.8435-25.125.9133-50.2124 2.8582-75.3628 3.298-12.4431.2198-25.3391 1.2346-37.64377-1.5729-1.45945-.3383-2.9189-.6934-4.37835-1.0824.31454-.8118.83038-1.5729 1.5601-1.5391 1.08201.0846 2.1766-.2198 3.2586-.3551 2.40302-.3214 4.81872-.592 7.24692-.7949 4.9445-.4397 9.9142-.6596 14.8839-.778 2.4156-.0507 4.8439-.0676 7.2595-.0846h.3523c2.1766-.0169 4.3783-.1014 6.5549.0339-4.6677-.3214-9.3354-.7442-14.0031-1.2854-2.4157-.2875-4.8439-.6088-7.2596-.9471-4.1267-.5919-8.417-.5243-12.4556-1.0486-2.2521-.3044-4.52935-.4735-6.78143-.5243-.12581-.0169-.25163-.0169-.37744-.0169-.15098-.0169-.31454-.0169-.41519-.1522-.10065-.1015-.12582-.2875-.15098-.4566-.36486-3.298-.64165-6.6974-.70456-9.9953-.06291-2.723-.11323-5.4628-.20131-8.1857 4.29029-.7442 8.60571-1.353 12.93371-1.6236 14.2045-.8964 28.4719-.6934 42.689-1.6236 24.6219-1.5898 49.5832-4.0929 74.2302-2.0972 24.459 1.9788 48.817 6.0209 73.199 9.0821 25.453 3.1964 50.93 6.1054 76.395 9.0989 4.265.4905 8.543 1.0148 12.821 1.5391zm-1.045 153.3795c-.088-.507-.251-2.097-.792-2.164-11.424-1.489-22.886-2.402-34.36-2.706-.214 0-.441-.017-.654-.017.037 0 .062 0 .088-.017h.05c.05 0 .101-.017.151-.017 10.178-.913 20.344-1.844 30.523-2.74.616-.068 1.283-.152 1.887-.406.692-.27 1.283-.744 1.635-1.556 1.221-2.841.906-8.287.906-11.467 0-2.959.013-5.919.038-8.879-46.879-1.911-93.732-4.701-140.485-9.132 1.988-.643 3.989-1.286 5.977-1.912 17.777-5.53 35.668-8.523 53.886-9.724 26.949-1.742 54.037-.136 80.798-3.958.025-2.283.051-4.549.051-6.832-27.68 1.183-55.409-.322-83.076.828-17.438.744-34.687 3.231-51.81 7.729-12.834 3.366-25.579 7.476-38.462 10.469-16.356-1.826-32.7119-3.873-49.0678-6.19-12.3676-1.742-24.7226-3.67-37.0524-5.801-.6543-.101-1.3085-.186-1.9627-.287 7.0833-2.436 14.2925-4.262 21.464-5.734 19.5893-4.093 39.5058-5.919 59.2459-8.27 42.337-5.006 84.762-8.997 127.186-12.515 17.816-1.489 35.593-2.757 52.993-7.543.202-4.719.479-9.437.277-14.1729-.037-.7949-.05-1.6406-.1-2.4862-15.312-2.6722-30.8-2.4354-46.351-1.556-21.602 1.2347-43.192 2.6722-64.769 4.7017-42.525 4.0084-85.3778 7.6784-127.6264 15.5594-17.4128 3.247-34.1964 8.609-50.17491 17.691 0 1.505.01258 3.01.01258 4.498.01258 6.461.01258 12.922-.01258 19.382 0 2.656-.1384 5.328-.02517 8 .10066 2.3.2768 4.532.2768 6.849 0 .288 0 .592.02516.88 3.95058 1.353 8.03952 2.232 11.92722 3.315 11.0717 3.112 22.2063 5.26 33.4164 7.306 22.8102 4.144 45.6582 7.78 68.5689 10.773 45.08 5.903 90.436 8.829 135.691 11.18 13.4.676 26.811 1.285 40.223 1.809-.126-1.623-.251-3.281-.516-4.888zm.944 46.324c-.176-.474-.428-.913-.742-1.252-.604-.642-1.372-.93-2.101-1.116-2.039-.524-4.077-1.048-6.102-1.556-.202-.067-.378-.101-.579-.152 1.937-.423 3.85-.964 5.737-1.641.277-.084.566-.202.843-.338.805-.355 1.56-.879 2.101-1.792.201-.322.302-.863.403-1.269.226-.896.365-1.826.453-2.757.239-3.01.1-6.342.063-9.386-.013-.575-.026-1.15-.038-1.725-37.342 1.843-74.621 2.875-111.988.389-41.015-2.723-82.031-7.949-122.9209-12.938-11.6882-1.421-23.3386-3.045-35.0268-4.161-6.7688-.643-14.0409-1.623-21.17462-1.573-.10065 6.495-.31453 13.023-.52842 19.517 5.00743 1.81 10.16584 3.078 14.92164 4.144 10.5181 2.351 21.0236 4.211 31.6298 5.598 20.7469 2.757 41.5189 5.006 62.3033 7.374 11.852 1.37 23.716 2.672 35.568 3.89-8.631.998-17.262 1.911-25.93 2.554-22.282 1.691-44.5388 4.38-66.8458 5.817-17.2492 1.134-34.4229.576-51.62178-.016-.01258.186-.02516.389-.03774.592-.15098 2.181-.31454 4.363-.46551 6.545-.05033.778-.08808 1.539-.15098 2.317 16.43141 3.856 33.44151 3.67 50.04911 2.689 22.3321-1.319 44.4629-4.397 66.5687-8.676 23.301-4.533 47.193-6.123 70.708-8.051.427-.034.868-.067 1.283-.084 15.362.981 30.737 1.556 46.149 1.539 19.325-.034 38.625-.643 57.875-2.588-.038-.659-.164-1.302-.403-1.894z" fill="url(#d)"/><path d="m66.5222 264.869c-1.6734 1.116-3.1957 1.607-4.7307 1.505.4278.406.8178.863 1.1072 1.556.5284 1.269.5788 2.791 0 4.042-1.1826 2.537-3.6612 2.368-5.561 1.607-1.8621-.744-3.4096-3.721-3.3593-6.308.0378-1.928 1.1324-3.264 2.5289-3.467-1.2204-1.049-2.3905-2.3-3.3844-3.62-2.7176-3.602-4.6426-9.91-3.3592-14.883.5913-2.3 2.6295-4.414 4.5922-3.416 2.3905 1.218 4.4916 3.027 6.6682 4.871.5787.49 1.1449.998 1.7614 1.42.3019.203 1.4343.829.5913.373 2.3653 1.302 3.9758 2.689 5.2465 5.682 1.5098 3.501.8178 8.71-2.1011 10.638zm-20.5078-29.986c-.1133-.237-.2139-.473-.302-.727-.3523-.795-.8429-1.421-1.4468-1.894-.6291-.474-1.3085-.711-2.0382-.728-.8178.119-1.2456.203-1.9124.609-.6165.305-.994.728-1.4092 1.455-.7045 1.251-.8932 3.179-.5661 4.617.2516 1.116.7423 2.029 1.4469 2.74.6668.676 1.5726 1.217 2.4408 1.133.541-.051 1.0945-.118 1.6355-.304 2.1515-.745 3.4222-4.381 2.1515-6.901zm199.8696-35.685c-.541-2.605-2.454-4.465-4.505-4.482-.717-.017-1.333-.271-2.138-.271-1.284 0-2.391.711-3.536 1.336-1.874 1.032-3.611 2.385-4.579 4.837-.919 2.334-.718 5.598.868 7.34-.239.322-.478.626-.755.947-1.158 1.303-.277 4.398 1.308 4.161.541-.085 1.082.118 1.623.135.768.017 1.472-.186 2.189-.507.579-.271 1.196-.491 1.749-.829.415-.254.73-.541 1.007-1.015.088-.152.73-1.42.327-.896.189-.254.314-.558.365-.862 1.333-.491 2.353-1.218 3.296-2.368.214-.203.415-.406.629-.609 1.699-1.658 2.743-4.11 2.152-6.917zm-5.977-12.11c-.402-.135-.88-.372-1.295-.304-.453.084-.931.49-1.347.761-.465.287-.629 1.133-.427 1.725.213.643.717.947 1.245.795.403-.118.919-.152 1.283-.44.34-.254.579-.795.818-1.184.277-.456.227-1.184-.277-1.353zm9.889-16.456c-.113-.372-.239-.744-.352-1.116-2.642-2.435-4.768-2.689-6.366-.761-.327.406-.629.863-.843 1.37-.931 2.148-.516 5.311 1.246 6.528.918.643 1.975.914 2.994.508.528-.203 1.044-.559 1.56-.846.264-.254.516-.524.78-.778.378-.457.642-.998.793-1.624.302-.947.503-2.283.188-3.281zm-10.518-101.9993c-.188-1.0824-.377-2.0971-.906-2.9935-.578-.9809-1.409-1.5729-2.201-2.2155-.654-.5243-1.284-1.0993-2.026-1.4038-.767-.3382-1.661-.3382-2.466-.389-1.396-.1014-2.302 1.0824-2.629 2.5707-2.013-2.4354-5.108-3.8391-7.537-4.5325-2.617-.7611-9.172-.4228-8.643 5.1245.428 4.3634 2.843 6.968 5.586 9.2004 2.655 2.1648 4.982 3.8223 7.738 3.3994 2.264.3552 5.032.7949 6.114-2.5876.302-.9302.353-1.8096.264-2.6552.554.5412 1.108 1.0993 1.8 1.336.956.3383 1.937.017 2.893-.1691 1.573-.3213 2.328-2.892 2.013-4.6848zm-31.541 2.8752c-.579-.7442-1.133-1.556-1.8-2.1648-.817-.7442-1.635-.8626-2.579-1.0824-.805-.1861-1.673-.5243-2.478-.4059-.806.1183-1.384.8287-1.963 1.5052-.302.3551-.403.9809-.302 1.4714.189.8456.378 1.7589.868 2.4016.617.8118 1.699 1.15 2.504 1.5728s1.522.8795 2.403.8626c.868-.0169 1.787-.389 2.642-.6258 1.183-.3383 1.535-2.4692.705-3.5347zm29.843 25.3519c-.113-1.1501-.629-1.9957-1.233-2.7906-.843-1.0993-1.887-1.3868-2.982-1.7927-.893-.3213-1.875.1353-2.428 1.0824-.591.9978-.604 2.2494-.176 3.3656.151.4059.314.8118.465 1.2346.34.9133.805 1.5729 1.447 2.1649.629.575 1.296.981 2.076 1.032.868.05 1.799-.508 2.328-1.4042.503-.8625.616-1.8265.503-2.892zm-57.523 97.3822c-3.749-2.824-9.989-1.945-12.959 1.844-1.874 2.401-1.962 6.866 0 9.251 4.328 5.243 11.94 3.01 14.696-3.484.05-.068.1-.135.163-.186 2.076-2.554.592-6.799-1.9-7.425zm-20.507-4.143c-1.057-.744-1.913-1.336-3.158-.998-.818.22-1.649.558-2.429.93-1.019.474-1.723 1.657-1.56 3.129.176 1.505 1.032 2.283 2.139 2.469.831.135 1.711.237 2.554.22 1.233-.051 1.963-.947 2.844-1.928.88-1.015.604-3.112-.39-3.822zm-115.209-142.7084c-1.6859-3.1965-5.2842-2.5877-7.4356-.6427-.8681.778-1.8872 1.7589-2.6421 2.7567-.6668.8626-.994 1.8942-1.1953 3.0612-.0503.4736-.1006.9471-.1384 1.4038.0881-.5413.0881-.4905-.0125.1522-.3901 2.5538.8429 4.8708 2.8937 4.9723h.2768c.0377.0169.0755.0338.1258.0507 1.1827.389 2.315.1522 3.397-.575.7172-.4905 1.4469-1.0824 2.1263-1.6575 2.3024-1.9618 4.4412-6.0377 2.6043-9.5217zm-14.1415 2.0464c-.9436.3721-1.8495.7949-2.4786 1.8435-.541.8794-1.0317 1.7927-1.4594 2.7736-.6669 1.5391-.3146 3.7715.931 4.6171 1.2833.8964 2.7428.3721 3.5354-1.2177.1636-.3213.3271-.6257.4907-.9471.0125-.0169.0251-.0338.0377-.0676.1132-.1691.2139-.3383.3271-.4905.4278-.6257.7298-1.2177.9311-2.0464.088-.3552.1761-.7272.2893-1.0824.5788-1.9788-1.17-3.9406-2.6043-3.3825zm27.9812-15.0522c-.6794-.1522-1.4972-.2875-2.1137.2368-.4278.3551-.7423.9133-1.082 1.4037-.4781.7104-.6794 1.8097-.2642 2.6553.4277.8625 1.1323 1.2008 1.8872 1.0148.4781-.1184 1.0694-.1692 1.4846-.5074.6291-.5243.9436-1.353 1.1952-2.2325.302-.9978-.3145-2.4016-1.1071-2.5707zm69.0093 75.9542c.076-.169.151-.338.201-.524.743-2.283.541-4.922-1.258-6.309-.251-.186-.503-.338-.755-.49-1.837-1.979-3.875-2.52-6.328-2.283-2.391.237-4.492 1.826-6.643 3.095-2.982 1.759-3.85 7.188-2.693 10.773.353 1.099.868 2.03 1.472 2.808-1.849 1.082-3.535 2.367-4.869 3.585-.729.66-1.27 1.404-1.673 2.199-1.585 1.843-2.239 4.329-.705 7.678 2.894 6.342 11.236 4.668 15.576 2.486 2.63-1.319 5.637-3.179 7.008-6.596 1.548-3.822.403-8.422-2.365-10.536 1.485-1.353 2.604-3.231 3.032-5.886zm-29.2771 14.799c-.7297-.22-1.1449.253-1.7488.625-.0126.017-.088.051-.1384.085-.0629.034-.1761.084-.1887.084-.2139.085-.4278.17-.6416.22-.9437.271-1.3966 1.742-1.0443 2.842.39 1.217 1.4217 1.573 2.2898 1.014.4907-.321.9436-.727 1.3714-1.183.5033-.525 1.082-1.201 1.0191-2.131-.0503-.694-.3523-1.387-.9185-1.556zm-9.3606-7.476c-.1258-.084-.2642-.135-.39-.22-2.0256-2.063-5.0829-.879-6.8317 1.252-1.3085 1.59-2.3779 3.552-2.6673 5.885-.2013 1.675-.0629 3.214.9059 4.465.8429 1.1 2.2521 1.709 3.4095 1.184 2.7302-1.234 6.4543-3.754 6.8066-7.813.0378-.153.0755-.288.1133-.44.4026-1.421-.2643-3.67-1.3463-4.313zm190.1687 146.615c-.239-1.42-1.069-2.706-2.013-3.433-1.736-1.336-3.862-.829-5.309.896-.742.88-1.472 1.759-2.214 2.656-1.485 1.775-1.498 4.955-.315 6.951 1.22 2.08 3.447 2.689 5.221 1.37.868-.66 1.749-1.303 2.617-1.962 1.749-1.319 2.428-4.009 2.013-6.478z" fill="#eb924d"/><path d="m67.4144 262.383c-1.6734 1.117-3.1957 1.607-4.7306 1.506.4277.405.8177.862 1.1071 1.556.5284 1.268.5788 2.79 0 4.042-1.1826 2.536-3.6612 2.367-5.561 1.606-1.862-.744-3.4096-3.72-3.3592-6.308.0377-1.928 1.1323-3.264 2.5288-3.467-1.2204-1.049-2.3904-2.3-3.3844-3.619-2.7176-3.603-4.6425-9.911-3.3592-14.883.5913-2.301 2.6295-4.415 4.5922-3.417 2.3905 1.218 4.4916 3.027 6.6682 4.871.5787.49 1.1449.998 1.7614 1.421.3019.203 1.4343.828.5913.372 2.3653 1.302 3.9758 2.689 5.2465 5.682 1.5098 3.501.8052 8.71-2.1011 10.638zm-20.5078-29.986c-.1132-.236-.2139-.473-.302-.727-.3523-.795-.8429-1.421-1.4468-1.894-.6291-.474-1.3085-.71-2.0382-.727-.8178.118-1.2456.203-1.9124.609-.6165.304-.994.727-1.4091 1.454-.7046 1.252-.8933 3.18-.5662 4.617.2516 1.116.7423 2.03 1.4469 2.74.6668.676 1.5726 1.218 2.4408 1.133.541-.051 1.0946-.118 1.6356-.304 2.1514-.728 3.4221-4.364 2.1514-6.901zm199.4544-34.535c-.541-2.605-2.454-4.465-4.504-4.482-.718-.017-1.334-.271-2.139-.271-1.284 0-2.391.711-3.536 1.337-1.874 1.031-3.611 2.384-4.579 4.837-.919 2.334-.718 5.598.868 7.34-.239.321-.478.625-.755.947-1.158 1.302-.277 4.397 1.308 4.16.541-.084 1.082.119 1.623.136.768.016 1.472-.187 2.189-.508.579-.27 1.196-.49 1.749-.829.416-.253.73-.541 1.007-1.014.088-.153.73-1.421.327-.897.189-.253.314-.558.365-.862 1.333-.491 2.353-1.218 3.296-2.368.214-.203.415-.406.629-.609 1.699-1.64 2.743-4.093 2.152-6.917zm-5.977-12.109c-.402-.136-.88-.373-1.295-.305-.453.085-.931.491-1.347.761-.465.288-.629 1.133-.427 1.725.213.643.717.947 1.245.795.403-.118.919-.152 1.283-.44.34-.253.579-.794.818-1.183.277-.44.214-1.184-.277-1.353zm9.89-16.439c-.114-.373-.24-.745-.353-1.117-2.642-2.435-4.768-2.689-6.366-.761-.327.406-.629.863-.843 1.37-.931 2.148-.516 5.311 1.246 6.528.918.643 1.975.914 2.994.508.528-.203 1.044-.558 1.56-.846.264-.254.516-.524.78-.778.378-.456.642-.998.793-1.623.302-.964.49-2.301.189-3.281zm-10.116-103.1502c-.189-1.0824-.377-2.0971-.906-2.9935-.579-.9809-1.409-1.5728-2.202-2.2155-.654-.5243-1.283-1.0993-2.025-1.4038-.768-.3382-1.661-.3382-2.466-.389-1.397-.1014-2.303 1.0824-2.63 2.5708-2.013-2.4355-5.108-3.8392-7.536-4.5326-2.617-.7611-9.172-.4228-8.644 5.1245.428 4.3634 2.844 6.968 5.587 9.2004 2.642 2.1648 4.982 3.8223 7.737 3.3994 2.265.3552 5.033.7949 6.115-2.5876.302-.9302.352-1.8096.264-2.6552.554.5412 1.107 1.0993 1.799 1.336.956.3383 1.938.017 2.894-.1691 1.585-.3382 2.34-2.9089 2.013-4.6848zm-31.542 2.8583c-.578-.7442-1.132-1.556-1.799-2.1648-.818-.7442-1.635-.8626-2.579-1.0824-.805-.1861-1.673-.5243-2.479-.4059-.805.1183-1.384.8287-1.962 1.5052-.302.3551-.403.9809-.302 1.4714.188.8456.377 1.7589.868 2.4016.616.8118 1.698 1.15 2.504 1.5728.805.4228 1.522.8795 2.403.8626.868-.017 1.786-.389 2.642-.6258 1.195-.3383 1.547-2.4692.704-3.5347zm29.856 25.3519c-.113-1.1501-.629-1.9957-1.233-2.7906-.843-1.0993-1.887-1.3868-2.982-1.7927-.893-.3214-1.874.1353-2.428 1.0824-.591.9978-.604 2.2494-.176 3.3656.151.4059.314.8118.465 1.2346.34.9133.806 1.5729 1.447 2.1648.629.575 1.296.9809 2.076 1.0317.881.0507 1.799-.5074 2.328-1.4038.503-.8625.616-1.8265.503-2.892zm-57.522 97.382c-3.75-2.824-9.99-1.944-12.959 1.844-1.875 2.402-1.963 6.866 0 9.251 4.328 5.243 11.939 3.011 14.695-3.484.05-.068.1-.135.163-.186 2.076-2.554.579-6.782-1.899-7.425zm-20.508-4.143c-1.057-.744-1.913-1.336-3.158-.998-.818.22-1.648.558-2.428.93-1.019.474-1.724 1.658-1.56 3.129.176 1.505 1.031 2.283 2.138 2.469.831.136 1.711.237 2.554.22 1.233-.051 1.963-.947 2.844-1.928.881-1.015.604-3.112-.39-3.822zm-115.5736-141.7273c-1.6859-3.1965-5.2842-2.5876-7.4357-.6427-.8681.778-1.8872 1.7589-2.6421 2.7568-.6668.8625-.9939 1.8942-1.1952 3.0611-.0503.4736-.1007.9471-.1384 1.4038.0881-.5412.0881-.4905-.0126.1522-.39 2.5538.843 4.8708 2.8937 4.9723h.2768c.0378.0169.0755.0338.1259.0507 1.1826.389 2.3149.1522 3.397-.575.7171-.4905 1.4468-1.0824 2.1262-1.6574 2.315-1.9619 4.4539-6.0209 2.6044-9.5218zm-14.1416 2.0464c-.9436.3721-1.8495.7949-2.4785 1.8435-.541.8794-1.0317 1.7927-1.4595 2.7736-.6668 1.5391-.3145 3.7715.931 4.6172 1.2833.8963 2.7428.372 3.5354-1.2177.1636-.3214.3272-.6258.4907-.9471.0126-.017.0252-.0339.0378-.0677.1132-.1691.2138-.3383.3271-.4905.4277-.6257.7297-1.2177.931-2.0464.0881-.3551.1761-.7272.2894-1.0824.5787-1.9788-1.1575-3.9406-2.6044-3.3825zm27.9938-15.0522c-.6794-.1522-1.4972-.2875-2.1137.2368-.4278.3552-.7423.9133-1.082 1.4037-.4781.7104-.6794 1.8097-.2642 2.6553.4278.8626 1.1323 1.2008 1.8872 1.0148.4781-.1184 1.0694-.1692 1.4846-.5074.6291-.5243.9436-1.353 1.1953-2.2325.2893-.9809-.3146-2.4015-1.1072-2.5707zm69.3614 74.9731c.076-.169.151-.338.202-.524.742-2.283.541-4.922-1.259-6.308-.251-.186-.503-.339-.754-.491-1.837-1.9786-3.876-2.5198-6.329-2.283-2.39.2367-4.492 1.827-6.643 3.095-2.982 1.759-3.85 7.188-2.692 10.773.352 1.1.868 2.03 1.472 2.808-1.85 1.082-3.536 2.368-4.869 3.585-.73.66-1.271 1.404-1.674 2.199-1.585 1.843-2.239 4.329-.704 7.678 2.893 6.342 11.235 4.668 15.576 2.486 2.629-1.319 5.636-3.179 7.007-6.596 1.548-3.822.403-8.422-2.365-10.536 1.472-1.353 2.604-3.23 3.032-5.886zm-29.6543 15.847c-.7297-.22-1.1449.254-1.7488.626-.0126 0-.0881.051-.1384.085-.0629.034-.1762.084-.1887.084-.2139.085-.4278.169-.6417.22-.9436.271-1.3965 1.742-1.0442 2.841.39 1.218 1.4217 1.573 2.2898 1.015.4907-.321.9436-.727 1.3714-1.184.5032-.524 1.082-1.2 1.0191-2.131-.0504-.693-.3523-1.387-.9185-1.556zm-9.3606-7.475c-.1258-.085-.2642-.135-.39-.22-2.0256-2.063-5.0829-.879-6.8318 1.252-1.3084 1.589-2.3779 3.551-2.6672 5.885-.2013 1.675-.0629 3.214.9058 4.465.843 1.099 2.2521 1.708 3.4096 1.184 2.7302-1.235 6.4543-3.755 6.8066-7.814.0377-.152.0755-.287.1132-.439.4026-1.421-.2642-3.67-1.3462-4.313zm190.5339 145.566c-.239-1.42-1.07-2.706-2.013-3.433-1.736-1.336-3.863-.829-5.31.897-.742.879-1.472 1.758-2.214 2.655-1.484 1.776-1.497 4.972-.314 6.951 1.22 2.08 3.447 2.689 5.221 1.37.868-.66 1.749-1.303 2.617-1.962 1.761-1.319 2.441-4.008 2.013-6.478z" fill="url(#e)"/><path d="m66.5222 263.991c-1.6734 1.116-3.1957 1.607-4.7307 1.505.4278.406.8178.863 1.1072 1.556.5284 1.268.5788 2.791 0 4.042-1.1826 2.537-3.6612 2.368-5.561 1.607-1.8621-.744-3.4096-3.721-3.3593-6.309.0378-1.928 1.1324-3.264 2.5289-3.467-1.2204-1.048-2.3905-2.3-3.3844-3.619-2.7176-3.602-4.6426-9.911-3.3592-14.883.5913-2.3 2.6295-4.414 4.5922-3.416 2.3905 1.217 4.4916 3.027 6.6682 4.871.5787.49 1.1449.997 1.7614 1.42.3019.203 1.4343.829.5913.372 2.3653 1.303 3.9758 2.689 5.2465 5.683 1.5098 3.484.8178 8.71-2.1011 10.638zm-20.5078-30.003c-.1133-.237-.2139-.474-.302-.727-.3523-.795-.8429-1.421-1.4468-1.894-.6291-.474-1.3085-.711-2.0382-.728-.8178.119-1.2456.203-1.9124.609-.6165.305-.994.727-1.4092 1.455-.7045 1.251-.8932 3.179-.5661 4.617.2516 1.116.7423 2.029 1.4469 2.74.6668.676 1.5726 1.217 2.4408 1.133.541-.051 1.0945-.119 1.6355-.305 2.1515-.727 3.4222-4.363 2.1515-6.9zm199.8696-35.263c-.541-2.604-2.454-4.465-4.505-4.482-.717-.016-1.333-.27-2.138-.27-1.284 0-2.391.71-3.536 1.336-1.874 1.032-3.611 2.385-4.579 4.837-.919 2.334-.718 5.598.868 7.34-.239.321-.478.626-.755.947-1.158 1.302-.277 4.397 1.308 4.161.541-.085 1.082.118 1.623.135.768.017 1.472-.186 2.189-.507.579-.271 1.196-.491 1.749-.829.415-.254.73-.541 1.007-1.015.088-.152.73-1.421.327-.896.189-.254.314-.558.365-.863 1.333-.49 2.353-1.218 3.296-2.368.214-.203.415-.406.629-.608 1.699-1.658 2.743-4.11 2.152-6.918zm-5.977-12.109c-.402-.135-.88-.372-1.295-.305-.453.085-.931.491-1.347.762-.465.287-.629 1.133-.427 1.725.213.642.717.947 1.245.795.403-.119.919-.153 1.283-.44.34-.254.579-.795.818-1.184.277-.457.227-1.184-.277-1.353zm9.889-16.456c-.113-.372-.239-.744-.352-1.116-2.642-2.436-4.768-2.689-6.366-.761-.327.406-.629.862-.843 1.37-.931 2.147-.516 5.31 1.246 6.528.918.643 1.975.913 2.994.507.528-.203 1.044-.558 1.56-.845.264-.254.516-.525.78-.795.378-.457.642-.998.793-1.624.302-.93.503-2.266.188-3.264zm-10.518-102.4055c-.188-1.0824-.377-2.0972-.906-2.9936-.578-.9809-1.409-1.5728-2.201-2.2155-.654-.5243-1.284-1.0993-2.026-1.4038-.767-.3382-1.661-.3382-2.466-.389-1.396-.1014-2.302 1.0825-2.629 2.5708-2.013-2.4354-5.108-3.8392-7.537-4.5326-2.617-.7611-9.172-.4228-8.643 5.1245.428 4.3634 2.843 6.968 5.586 9.2004 2.655 2.1648 4.982 3.8223 7.738 3.3995 2.264.3551 5.032.7948 6.114-2.5877.302-.9302.353-1.8096.264-2.6552.554.5412 1.108 1.0993 1.8 1.3361.956.3382 1.937.0169 2.893-.1692 1.573-.3382 2.328-2.892 2.013-4.6847zm-31.541 2.8582c-.579-.7442-1.133-1.556-1.8-2.1648-.817-.7442-1.635-.8626-2.579-1.0824-.805-.1861-1.673-.5243-2.478-.4059-.806.1183-1.384.8287-1.963 1.5052-.302.3551-.403.9809-.302 1.4714.189.8456.378 1.7589.868 2.4016.617.8118 1.699 1.15 2.504 1.5728s1.522.8795 2.403.8626c.868-.017 1.787-.389 2.642-.6258 1.183-.3383 1.535-2.4523.705-3.5347zm29.843 25.3688c-.113-1.15-.629-1.9957-1.233-2.7906-.843-1.0993-1.887-1.3868-2.982-1.7927-.893-.3213-1.875.1353-2.428 1.0824-.591.9979-.604 2.2494-.176 3.3656.151.4059.314.8118.465 1.2346.34.9133.805 1.5729 1.447 2.1648.629.5751 1.296.9814 2.076 1.0314.868.051 1.799-.5071 2.328-1.4034.503-.8626.616-1.8435.503-2.8921zm-57.523 97.3825c-3.749-2.824-9.989-1.945-12.959 1.843-1.874 2.402-1.962 6.867 0 9.252 4.328 5.243 11.94 3.01 14.696-3.484.05-.068.1-.136.163-.186 2.076-2.554.592-6.799-1.9-7.425zm-20.507-4.144c-1.057-.744-1.913-1.336-3.158-.997-.818.219-1.649.558-2.429.93-1.019.473-1.723 1.657-1.56 3.129.176 1.505 1.032 2.283 2.139 2.469.831.135 1.711.237 2.554.22 1.233-.051 1.963-.947 2.844-1.928.88-1.015.604-3.112-.39-3.823zm-115.209-142.3695c-1.6859-3.1964-5.2842-2.5876-7.4356-.6426-.8681.7779-1.8872 1.7589-2.6421 2.7567-.6668.8625-.994 1.8942-1.1953 3.0612-.0503.4735-.1006.9471-.1384 1.4037.0881-.5412.0881-.4905-.0125.1522-.3901 2.5538.8429 4.8708 2.8937 4.9723h.2768c.0377.0169.0755.0338.1258.0508 1.1827.3889 2.315.1522 3.397-.5751.7172-.4904 1.4469-1.0824 2.1263-1.6574 2.3024-1.9619 4.4412-6.0209 2.6043-9.5218zm-14.1415 2.0464c-.9436.3721-1.8495.7949-2.4786 1.8435-.541.8795-1.0317 1.7927-1.4594 2.7737-.6669 1.539-.3146 3.7715.931 4.6171 1.2833.8964 2.7428.3721 3.5354-1.2177.1636-.3213.3271-.6258.4907-.9471.0125-.0169.0251-.0338.0377-.0677.1132-.1691.2139-.3382.3271-.4904.4278-.6258.7298-1.2177.9311-2.0464.088-.3552.1761-.7273.2893-1.0824.5788-1.9788-1.17-3.9407-2.6043-3.3826zm27.9812-15.0521c-.6794-.1522-1.4972-.2875-2.1137.2367-.4278.3552-.7423.9133-1.082 1.4038-.4781.7103-.6794 1.8096-.2642 2.6553.4277.8625 1.1323 1.2008 1.8872 1.0147.4781-.1184 1.0694-.1691 1.4846-.5074.6291-.5243.9436-1.353 1.1952-2.2324.302-.9809-.3145-2.3847-1.1071-2.5707zm69.0093 75.6162c.076-.169.151-.338.201-.524.743-2.284.541-4.922-1.258-6.309-.251-.186-.503-.338-.755-.49-1.837-1.979-3.875-2.5203-6.328-2.2835-2.391.2365-4.492 1.8265-6.643 3.0945-2.982 1.759-3.85 7.188-2.693 10.774.353 1.099.868 2.029 1.472 2.807-1.849 1.083-3.535 2.368-4.869 3.586-.729.659-1.27 1.403-1.673 2.198-1.585 1.844-2.239 4.33-.705 7.679 2.894 6.342 11.236 4.668 15.576 2.486 2.63-1.319 5.637-3.18 7.008-6.596 1.548-3.822.403-8.423-2.365-10.537 1.485-1.353 2.604-3.23 3.032-5.885zm-29.2771 15.17c-.7297-.219-1.1449.254-1.7488.626-.0126 0-.088.051-.1384.085-.0629.034-.1761.084-.1887.084-.2139.085-.4278.169-.6416.22-.9437.271-1.3966 1.742-1.0443 2.841.39 1.218 1.4217 1.573 2.2898 1.015.4907-.321.9436-.727 1.3714-1.184.5033-.524 1.082-1.2 1.0191-2.131-.0503-.693-.3523-1.386-.9185-1.556zm-9.3606-7.475c-.1258-.085-.2642-.135-.39-.22-2.0256-2.063-5.0829-.879-6.8317 1.252-1.3085 1.589-2.3779 3.551-2.6673 5.885-.2013 1.675-.0629 3.214.9059 4.465.8429 1.1 2.2521 1.708 3.4095 1.184 2.7302-1.235 6.4543-3.755 6.8066-7.814.0378-.152.0755-.287.1133-.439.4026-1.421-.2643-3.67-1.3463-4.313zm190.1687 146.226c-.239-1.421-1.069-2.706-2.013-3.433-1.736-1.336-3.862-.829-5.309.896-.742.88-1.472 1.759-2.214 2.655-1.485 1.776-1.498 4.956-.315 6.951 1.22 2.081 3.447 2.69 5.221 1.37.868-.659 1.749-1.302 2.617-1.961 1.749-1.303 2.428-3.992 2.013-6.478z" fill="url(#f)"/><g fill="#eb924d"><path d="m5.23777 238.96c-.11324.829-.17614 1.674-.18872 2.503-.01259.423-.01259.829.01258 1.252.01258.152.03774.27.0629.439.08807.44.02517.93.05033 1.37.01258.355.03774.727.06291 1.083-.60391-.288-1.00652-.643-1.0191-1.117-.05033-1.725-.05033-3.45.02516-5.192.02516-.642-.10065-2.029.12582-2.587.31453-.745.15097-.356.76747-.694.62907-.355 1.14491-.778 1.83689-.964.70456-.186 1.42171-.27 2.15143-.372 2.56666-.355 5.13326-.693 7.71246-1.032-.6543-.05-1.3085-.101-1.9627-.169.5536-.017 1.0946-.05 1.6481-.084.5159-.034 1.0443-.068 1.5727-.085.4404-.017.8933.017 1.3337-.084-3.5732.811-7.1463 1.589-10.63138 2.858-.93102.338-1.86205.71-2.71759 1.319-.22647.169-.46552.355-.60392.643-.13839.27-.2013.608-.23904.913z"/><path d="m5.55542 110.932v.101c.02516.406.1384.795.17614 1.201.10065 1.184-.07549 2.452-.03774 3.653.07549 2.317.45293 4.736 1.67333 6.494 1.47204 2.114 3.73675 2.723 5.86295 3.231-1.6607.034-3.32149.067-4.98224.101-.3397 0-.69198.017-.99394.237-.51584.372-.70456 1.218-.83038 1.979-.76747 4.566-1.05684 9.268-.85554 13.953.78005.608 1.63559 1.014 2.5163 1.234-1.18266.068-1.91239 2.013-1.63559 3.552.27679 1.556 1.2204 2.706 2.16401 3.67-1.43429.051-2.3779 2.114-2.61695 4.008-.18872 1.522-.13839 3.078-.3397 4.6-.0629.525-.0629.964-.02516 1.489.03774.676-.02516 1.353-.03774 2.029-.02517 1.844.10065 3.704.35228 5.514.13839.998.32712 2.012.541 2.993.11323.491.22647.981.36486 1.472.03775.101.06291.203.07549.304-.27679-.085-.55358-.237-.78005-.457-.6794-.693-.74231-2.029-.74231-3.179 0-2.317-.17614-4.55-.27679-6.85-.11323-2.672.02516-5.344.02516-7.999.02517-6.461.02517-12.922.01259-19.382-.01259-6.461-.03775-12.888-.07549-19.331-.01258-1.708.11323-3.45-.25163-5.091-.37745-1.64-.11324-3.822.03774-5.513.03775-.423.08807-.846.28938-1.184.18872-.271.46551-.44.72972-.542 2.07594-.913 4.30288-.811 6.47948-.93 2.1262-.101 4.2651-.456 6.3536-1.014.541-.034 1.082-.102 1.6105-.22-3.4725.998-6.9702 1.86-10.493 2.638-.72972.152-1.45945.321-2.13885.693-.6794.373-1.30847.981-1.67333 1.861-.32712.812-.37745 1.725-.41519 2.638-.02516.694-.10065 1.387-.06291 2.047z"/><path d="m33.4588 177.77c-6.9198.474-13.7893 2.047-20.7217 2.385-1.7236.084-3.48504.101-5.09547.93-1.11975.575-2.25208 3.636-.91845 4.736.18872.169.42777.219.65424.287 1.25815.321 2.54146.457 3.81218.423-1.63559.338-3.13278 1.438-4.59223 2.503-.25163.186-.52842.389-.69198.71-.16356.305-.23905.694-.30196 1.066-.16356.964-.44035 1.979-.3397 2.976.06291.694.03775 1.32 0 2.03-.11323 2.689-.1384 5.378-.03774 8.067.01258.305.02516.626.12581.914.1384.372.40261.642.65424.879.56616.541 1.14491 1.082 1.6985 1.624.05032.033.08807.084.10065.135.05032.135-.03775.27-.10065.372-.88071 1.268-1.88722 2.469-2.32758 4.11-.21388.795-.56616 1.42-.61649 2.283-.11323 2.012.01258 4.042.37745 6.004.13839.761.3397 1.539.76747 2.08.35228.44.84295.66 1.30847.846 1.96271.795 3.95054 1.454 5.96364 1.928-2.617.101-5.22133.22-7.83828.321-.06291 0-.25163 4.025-.31454 4.397-.08807.558-.16356.846 0 1.421.17614.592.46552 1.116.83038 1.539-.4781-.051-.95619-.085-1.43429-.118-.2013-.017-.42777-.068-.51584-.288-.03774-.101-.03774-.254-.03774-.372.3397-9.995.71714-20.092.86812-30.121.07549-5.548-.18872-11.179.3397-16.676.05033-.507.3397-6.038.32712-6.038 9.32287-.913 18.68347-1.387 28.05667-1.353z"/><path d="m34.9688 177.702c.0503 0 .088-.016.1509-.016-.0503 0-.1006 0-.1509.016z"/><path d="m39.3458 54.3086c-4.1519.6934-8.4422-.0846-12.5689.8625-1.3714.3045-2.7176.8118-4.1015.9979-1.2834.1522-2.5541.0676-3.8248.1015-3.1957.0845-6.3662 1.0654-9.41095 2.3846-1.03169.4397-2.10111.9471-2.856 1.9957-.27679.4059-.50326.8456-.69198 1.353-.31454.8964-.62907 2.0633-.59133 3.0781.01258.3044.05033.5412.02516.8456-.07548.8795-.13839 1.742-.15097 2.6215-.02517 1.7589.12581 3.5178.42777 5.2259.08807.4905.2013.9979.47809 1.3192.27679.3383.6794.4228 1.04426.5074 1.56011.3213 3.12025.6427 4.66775.964-2.15145.2199-4.2903.4228-6.44173.6427.13839-.0169.10065 6.9341.12581 7.543.11324 2.3339.16356 4.7186.28938 7.0694.07548 1.5391.2013 3.0612.52842 4.5326.07549.3383.17614.6934.27679 1.0148-.17614-.1353-.3397-.3045-.4781-.4736-.79263-.8625-1.38396-2.1817-1.39654-3.5855-.01258-.3382.05033-.6088.10065-.9301.17614-.8964.05033-1.9112.03775-2.8414-.06291-4.1604-.11324-8.3209-.18873-12.4814-.05032-2.6384-.0629-5.2429-.33969-7.8644-.15098-1.3022-.07549-2.6383-.12582-3.9406-.06291-1.6067-.03774-3.2134.11323-4.8201.06291-.8625.18873-1.7589.4781-2.5538.31454-.8118.84296-1.5897 1.5601-1.5559 1.08201.0845 2.1766-.2199 3.2586-.3552 2.40308-.3213 4.81868-.5919 7.24698-.7949 4.9445-.4397 9.9142-.6596 14.8838-.7779 2.4157-.0508 4.8439-.0677 7.2595-.0846z"/><path d="m256.391 83.8213c7.31 2.1141 14.96.9809 22.395 2.2832 2.995.5243 5.989 1.4375 9.009 1.2008 1.119-.0846 2.277-.3552 3.371.0676.994.3552 1.573 1.3361 2.101 2.4354.881 1.8773.831 4.5326.919 6.6636.226 5.5641-.176 11.1281-.39 16.6761-.025.609-.063 1.251-.365 1.708-.214.304-.528.456-.843.575 0-.119-.013-.22-.013-.321-.037-.914-.012-1.827.076-2.723.113-1.235.352-2.453.34-3.687 0-.457 0-.863.025-1.336.012-.119.012-.271 0-.406-.05-.575-.101-1.066-.201-1.624-.126-.71-.063-1.505-.089-2.232-.05-1.59-.151-3.163-.301-4.7528-.026-.2706-.063-.5751-.24-.7442-.125-.1184-.301-.1353-.465-.1184-4.051.0677-8.103.4228-12.129 1.0486 3.473-.2368 6.933-.9471 10.305-2.131.654-.2367 1.371-.5581 1.673-1.353.252-.6596.151-1.4545.038-2.1648-.126-.8794-.302-1.8265-.831-2.3508-.314-.3214-.729-.4398-1.119-.5412-.239-.0677-.466-.1184-.705-.1861-2.353-.6088-4.731-1.0655-7.121-1.4037-1.195-.1691-2.391-.2875-3.586-.389-1.208-.1015-2.315-.4397-3.523-.5412-.717-.0676-1.434-.1184-2.151-.186-2.453-.203-4.894-.4059-7.335-.592-1.208-.1015-2.441-.1184-3.636-.3044-.352-.0677-.654-.2368-.981-.4397-.189-.1015-.378-.1861-.567-.2537-1.069-.3044-2.176-.4736-3.258-.7442-.768-.186-1.535-.372-2.303-.575l-1.069-.2706c-.252-.0677-.579-.2368-.856-.2368 1.296-.0169 2.554-.0507 3.825-.0507z"/><path d="m294.373 149.543c-.063 9.607-.163 19.213-.176 28.836 0 3.18.315 8.626-.906 11.467-.339.812-.943 1.285-1.635 1.556.075-.237.138-.474.201-.727.365-1.37.642-2.774.805-4.212.076-.642.063-1.353.227-1.945.188-.642.163-1.353.201-2.029.126-2.03.252-4.076.378-6.105.1-1.641.201-3.282.314-4.922.063-.829.101-1.641.164-2.452.025-.339.088-.744.05-1.083-.025-.101-.063-.22-.063-.321-.063-.406-.013-.863-.239-1.184-.138-.203-.34-.271-.541-.338-1.875-.643-3.8-.947-5.725-.964.806-.305 1.661-.237 2.492-.169.83.067 1.698.084 2.478-.305.529-.27 1.019-.795 1.283-1.454.126-.322.189-.677.252-1.032.101-.609.013-1.319.013-1.945-.013-1.184-.026-2.385-.026-3.585-.025-3.315-.05-6.63-.226-9.928-.126-2.52-.315-5.023-.415-7.543-.038-.829-.403-1.252-.554-1.996-.176-.896.189-1.945-.226-2.773-.34-.66-1.019-.728-1.611-.745-3.862-.067-7.725-.135-11.587-.186 3.598.356 7.196-.591 10.744-1.522.441-.118.894-.236 1.284-.524.667-.474 1.082-1.353 1.384-2.266.151-.457.251-.947.39-1.421.05-.169.1-.304.125-.49.063-.575-.05-1.286-.075-1.861-.025-.727-.063-1.454-.101-2.198-.025-.812-.063-1.692-.415-2.368-.478-.947-1.371-1.285-2.189-1.556-2.076-.677-4.139-1.37-6.215-2.046.528-.119 1.069-.203 1.635-.237 2.24.693 4.479 1.403 6.719 2.097.289.084.604.203.818.457.88 1.099.666 4.837.755 6.274.163 2.74.239 5.497.264 8.253.075 5.142-.025 10.334-.051 15.492z"/><path d="m280.308 63.2725c-.806.0845-1.598.1183-2.403.1691 5.02.6596 10.052 1.3361 15.072 1.9957.466.0676.969.1522 1.296.5919.252.3383.352.8287.44 1.2854.39 2.1479.416 4.2619.416 6.4606-.151 3.1795-.365 6.2914-.856 9.4203-.226 1.4883-.931 1.5897-1.698 1.4206.427-.4228.742-1.0317.767-1.7251.113-3.9406.227-7.8981.013-11.8218-.051-.7442-.101-1.5053-.315-2.1987-.151-.4566-.365-.8794-.667-1.1839-.138-.1522-.302-.2536-.453-.3551-.063-.0508-.113-.0846-.188-.1184-.101-.0507-.189-.1184-.29-.186-.163-.1015-.352-.1015-.528-.1523-.742-.1691-1.485-.3551-2.227-.5073-2.944-.6596-5.913-1.1839-8.883-1.556-1.937-.2368-3.875-.4228-5.749-1.0486 1.421-.1014 2.642-.3044 4.064-.389.729-.0169 1.472-.0676 2.189-.1014z"/><path d="m293.998 236.271c.151-.913.252-1.827.315-2.757.101-1.556.088-3.112.088-4.685 0-1.336.113-2.74-.189-4.042-.226-1.015-.402-1.843-.365-2.926.038-1.251.063-2.638-.603-3.636-.73-1.082-1.951-1.184-3.045-1.201-1.875-.033-3.749-.05-5.624-.084 2.478-.406 4.944-.947 7.398-1.624.365-.101.755-.237.981-.626.227-.389.214-.93.201-1.42-.1-3.332-.163-6.664-.301-9.979-.076-1.843-.328-3.45-1.762-4.076-1.573-.676-3.309-.811-4.932-1.15-2.931-.592-5.875-1.116-8.819-1.589-5.889-.931-11.802-1.59-17.728-1.912 11.475.305 22.949 1.218 34.36 2.706.541.085.705 1.658.793 2.165.314 1.894.428 3.839.541 5.751.302 5.259.377 10.536.428 15.796v.27c.025 1.083.063 2.148.063 3.231.037 3.044.176 6.393-.063 9.386-.076.93-.214 1.861-.453 2.757-.101.406-.202.947-.403 1.268-.553.914-1.296 1.438-2.101 1.793.377-.609.679-1.302.881-2.029.151-.423.251-.897.339-1.387z"/><path d="m3.75611 39.8995c-.15098-7.543-.35229-15.0521-.6165-22.5782-.16356-5.0061 2.64211-9.30192 6.34107-9.69091 93.90832-10.02914 187.61532-10.28283 281.12032-.03382 3.737.4059 6.542 4.78623 6.316 9.82623-.302 6.6466-.566 13.2932-.805 19.9399-.164 4.6509-.327 9.3188-.466 13.9866-.037.9133-.063 1.7082-.264 2.5708-.352 1.5221-.277 3.1795-.553 4.7355-.101.4904-.214 1.0147-.491 1.3699-.277.3382-.654.4735-1.019.5919-.038.0169-.063.0169-.101.0339.013-.0508.025-.1015.025-.1523.101-2.0464.365-4.1943.315-6.2407-.025-.7103-.139-1.3192-.076-2.0464.076-.9979.101-1.9957-.1-2.9766-.529-2.4693-2.617-4.1267-4.479-3.5347 1.371-1.6236 3.95-.7949 4.932-2.8752.528-1.1162.314-2.5707.075-3.856-5.787-.8118-11.6-1.1332-17.413-.9471 4.995.372 10.04-.389 14.859-2.2156.78-.2875 1.585-.6596 2.101-1.4883.478-.778.604-1.8435.705-2.8413.176-1.6574.289-3.3656.528-5.0061.076-.4905.264-.9133.34-1.4038.126-.761.063-1.6236.05-2.4015-.012-1.8773-.113-3.7546-.453-5.5812-.201-1.1162-.503-2.1817-.931-3.1795-.579-1.37-.918-2.2325-2.126-2.8244-.742-.3721-1.535-.4736-2.315-.5751-2.592-.3044-4.366-.3551-6.945-.76104-3.573-.55811-7.159-1.04858-10.745-1.50522-4.844-.60885-9.687-1.15005-14.544-1.60669-2.428-.23677-4.856-.43973-7.285-.64268-.515-.03382-1.069-.15221-1.585-.03382-.415.10147-.729.1353-1.157.03382-1.158-.2706-2.315-.65959-3.498-.59194-1.497.08457-3.133 1.23462-3.422 3.19648-.39-.76107-.579-1.72508-.516-2.63836-.667.82871-1.22 1.80964-1.623 2.90896-.83-1.16697-1.396-2.67219-1.598-4.27888-2.931.45664-5.9.43973-8.832-.08456-.415 1.43757-.83 2.85822-1.246 4.29579-1.484-3.21339-4.34-4.90464-7.146-5.34437-2.805-.43973-5.624.15221-8.442.47355-3.661.42282-7.348.38899-10.996-.10147-.441-.06765-.931-.10148-1.284.25368-.239.23678-.364.62577-.478.99785-.352 1.16696-.616 2.40158-.792 3.6362-.365-2.02951-1.585-3.65312-2.995-4.53257-1.409-.87945-2.994-1.09932-4.554-1.0824-2.856.01691-5.687.79489-8.543.82871-1.573.01691-3.133-.18604-4.693-.4059-2.277-.33825-4.567-.74415-6.869-.62576-.566.03382-1.133.08456-1.686.20295-.503.10147-1.007.30442-1.51.30442-.327 0-.642-.15221-.956-.20295-.642-.11839-1.309-.05074-1.95-.06765-1.435-.01691-2.869-.03382-4.303-.05074-4.894-.08456-9.801-.15221-14.695-.23677-4.907-.08456-9.801-.15221-14.695-.23678-2.441-.03382-4.895-.08456-7.348-.10147-.554-.01692-1.07-.16913-1.623-.1353-3.045.18603-6.115.37207-9.159.55811-2.529.15221-5.058.30443-7.574.45664-1.082.06765-1.938-.35516-2.995-.52429-1.1573-.16912-2.3526-.20295-3.4598.33825-1.5852.77798-2.8937 3.12882-2.3527 5.29363.1384-2.41849-1.4846-4.49874-3.246-5.09068s-3.5983-.11839-5.3723.2706c-4.5293.99784-9.1216 1.38683-13.7012 1.15006-.151 1.72508-.2894 3.45016-.4404 5.17524-.3397-1.86038-.8933-3.6362-1.623-5.27672-.8178 2.36776-1.0191 5.12451-.5284 7.66137-1.233-2.3508-1.0191-6.10541-2.8937-7.47533-1.9124-1.40374-4.2148.99784-6.3788.69341.0754 1.65744.1635 3.31486.239 4.95542-.1132-1.74203-.9059-3.29798-1.9627-4.24509-1.5098-1.353-2.8812-.87945-4.5671-.71033-1.8243.18604-3.636.37208-5.4603.57503-3.2461.32134-6.4921.65959-9.7507.99784-.7046.08456-1.4594.2706-2.164.1353-.5033-.10147-.931-.32134-1.4595-.28751-7.9389.25369-15.9407.8118-23.7789 2.57071-1.4343.32134-2.89378.71035-4.17709 1.64055-.8178.6088-1.5601 1.4544-2.06336 2.503-.39003.7949-.50326 1.6405-.65424 2.52-.10065.5919-.36486 1.15-.541 1.7082-.37745 1.2177-.6794 2.4861-.75489 3.7884-.10065 1.9957.49068 4.1943 1.79915 5.1583 1.54752 1.1501 3.58572.2875 5.15843 1.3699-1.83692-.3044-3.71156-.1015-5.47297.6258-.26421.1015-.541.2368-.71714.5412-.15098.2537-.17614.5919-.2013.9133-.11324 1.5052-.10065 3.0442.05032 4.5494.07549.7273.22647 1.4545.26421 2.1818.05033.8118.06291 1.6405.10066 2.4523.13839 3.2303.30195 6.4775.44035 9.7078.02516.5412.11323.8625.10065 1.2684-.12582-.0169-.25163-.0169-.37744-.0169-.15098-.0169-.31454-.0169-.41519-.1522-.10066-.1015-.12582-.2875-.15098-.4566-.36486-3.298-.64166-6.6974-.70456-9.9954z"/><path d="m290.64 280.531c-92.399 9.522-186.118 9.437-281.13345-.017-3.72411-.372-6.54236-4.668-6.39138-9.674.03774-1.116.05032-2.233.0629-3.349.02517-.913-.05032-1.911.07549-2.807.05033-.322.16356-.592.20131-.913.11323-1.083.16356-2.182.22646-3.265.15098-2.181.31454-4.363.46552-6.545.01258-.203.02516-.406.03774-.592.02516-.338.06291-.71.21389-.981.13839-.253.35228-.372.57874-.473 2.64211-1.404 5.57358-2.283 8.42958-2.25 3.1202.017 6.0643-.456 9.1467-1.048 1.2456-.237 2.4912-.457 3.7242-.694h.3271c.239 0 .4781.017.7297.017.1887 0 .4278.068.6039.017-6.2278 1.81-12.5437 2.926-18.84703 4.245-.83038.169-1.67334.339-2.40307.863-.0629.051-.11323.084-.17614.135-.83037.66-1.61042 1.844-1.59784 3.18.01258.625-.10065 1.251-.12582 1.877-.05032 1.201.08807 2.52.78005 3.366.41519.507.94361.761 1.47204.981 3.42211 1.471 7.00791 2.283 10.60621 2.401-2.9064-.034-5.8127-.068-8.70641-.101-.8807-.017-1.78657-.085-2.66727-.017-.59133.034-1.66076.034-2.08853.659-.17614.237-.23905.575-.28937.914-.21389 1.775.23905 3.602.2013 5.378-.02516 1.065-.05032 2.181.20131 3.196.49067 1.996 1.9627 3.298 3.48506 3.907.74231.271 1.50978.44 2.26471.575.39.068.7674.102 1.1575.169.1887.034.3774.068.5787.102.1761.033.3649.084.541.084.0881-.017.1887-.067.2894-.067.2894-.034.5913 0 .8807 0h1.2833c1.5601-.017 3.1328-.068 4.7055.033.78.068 1.5601.136 2.3401.271.1762.034.3397.085.5159.085.1006 0 .2013-.051.3145-.068.0881-.017.1761-.017.2516 0 .7927.085 1.3966.287 2.1389.473.4529.119.9184.17 1.3462-.067.7045-.389 1.1072-1.404 1.3085-2.402s.2642-2.046.6039-2.959c.1132 1.082-.0504 2.164-.0378 3.247.0126 1.082.2894 2.283.994 2.807.4152.305.9184.339 1.3965.355.7926.017 1.5853.051 2.3779.068.5536.017 1.0065-.186 1.5349-.254.7423-.101 1.5601.102 2.3025.169.8177.085 1.623.153 2.4408.22 3.2586.288 6.5046.575 9.7632.829.8681.068 1.7614.203 2.6421.203 8.115.609 16.2301 1.082 24.3577 1.421 2.4408.101 4.9068.034 7.335.27.3145.034.5788.152.8807.254.692.22 1.4595-.169 2.1011-.507 1.4972-.795 2.8308-2.199 3.7116-4.009.7926 3.535 3.6989 5.463 6.4291 5.835s5.4734-.406 8.2154-.254c.805.051 1.573-.05 2.353-.033.528.017 1.069.287 1.598.355.679.084 1.447.152 2.101-.152.214-.102.403-.254.616-.356.718-.321 1.586-.169 2.341-.186 1.774-.033 3.56-.033 5.334-.033 3.561.016 7.109.101 10.669.27 1.762.051 3.523.186 5.284.305.328.017.642.033.944-.085.227-.085.44-.237.679-.304.818-.22 1.724-.203 2.555-.22h.578c.629 0 1.158-.017 1.762-.186.717-.22 1.484-.034 2.201-.034h3.599c4.894.017 9.801.034 14.695.068 1.371.016 2.743.016 4.114.033.679 0 1.371 0 2.051.017 4.894.051 9.788.119 14.682.203 4.895.085 9.789.22 14.683.338 2.441.068 4.894.136 7.335.22 1.22.034 2.453.085 3.674.119.918.034 1.723.05 2.617-.339.377-.169.755-.27 1.157-.304.793-.085 1.598-.135 2.391-.186.251-.017.528.017.767-.101.403-.187.604-.373 1.007-.356.239.017.49-.05.729-.135.478-.169.931-.473 1.334-.846.868-.794 1.573-1.877 2.252-2.959.629 1.116 1.321 2.165 2.063 3.145.126.17.277.339.453.406.642.237 1.007-1.014 1.598-1.437.327.778 1.032 1.167 1.699 1.201.667.033 1.321-.22 1.975-.423 1.9-.592 3.888-.761 5.825-.508.239-.507.478-1.014.717-1.522.328 1.421 1.686 1.81 2.793 1.81.781 0 1.561-.068 2.341-.186.641-.102 1.321-.406 1.975-.288 1.371.237 2.755 0 4.139-.118 3.246-.271 6.492-.575 9.738-.879 3.246-.305 6.492-.626 9.738-.981 3.158-.339 6.329-.677 9.487-1.049.73-.085 1.472-.085 2.214-.118 2.416-.119 4.831-.271 7.247-.491 1.208-.118 2.416-.27 3.611-.44.604-.084 1.208-.152 1.812-.287.188-.034.339-.169.515-.237 1.095-.338 2.215-.406 3.096-1.454.603-.728.931-1.759 1.119-2.825.076-.541.139-1.099.176-1.657.063-1.049.177-2.08.164-3.163-.025-3.89-.063-7.763-.075-11.653 0-.389 0-.778-.013-1.15-.013-1.606-.05-3.213-.189-4.82-.063-.693-.239-1.471-.201-2.181.012-.203.05-.423.063-.626.012-.829-.315-1.759-.73-2.334-.289-.389-.604-.744-.918-1.116-.227-.271-.478-.491-.768-.66-.579-.355-1.195-.541-1.824-.727-1.46-.474-2.919-.947-4.391-1.404-.365-.118-.768-.271-1.057-.609.516-.084.654-.355 1.17-.372h.34c2.025.491 4.064 1.015 6.102 1.556.73.186 1.497.474 2.101 1.116.315.339.566.778.742 1.252.315.812.441 1.691.516 2.571.201 2.215-.063 4.397.113 6.595.101 1.134.164 2.25.202 3.383.075 2.182.151 4.38.226 6.562.063 1.962.139 3.924.201 5.903.239 5.107-2.591 9.437-6.315 9.809z"/><path d="m125.24 26.7578c14.658.9133 29.315 1.8266 43.897 4.0929 12.066 1.8772 24.094 4.6847 36.235 4.8031-27.428 2.3509-52.666-7.8643-80.132-8.896zm58.001 46.1037c-.893.0338-1.799-.0846-2.692-.1184-4.844-.1692-9.688-.1015-14.519.186-4.832.2875-9.663.7611-14.482 1.3868-2.415.3214-4.818.6596-7.234 1.0486-1.208.186-2.403.389-3.611.5919-.604.1015-1.208.203-1.812.3045-.44.0845-.88.0338-1.308.0845-.554.0846-1.145.4228-1.686.6427-.579.2199-1.158.4566-1.736.6765-1.158.4397-2.315.8795-3.485 1.3192-2.328.8625-4.668 1.6574-7.021 2.3677-1.95.592-3.913 1.1163-5.888 1.5729-4.693 1.0824-9.436 1.7758-14.192 2.0972-2.378.1522-4.7556.2198-7.1461.186-.541-.0169-1.1072-.0845-1.6356.0169-1.0568.203-2.1137.4059-3.1705.6089-1.2078.2368-2.4031.4735-3.6109.6934-.4529.0846-.8052.3552-1.233.4735-.5787.1523-1.1575.2537-1.7488.3214-2.3276.2875-4.6803.1015-7.0079.2029-6.4417.2875-12.7073 2.8075-19.0735 4.1267-4.7558.9809-9.5871 1.2854-14.3932 1.5729.541-.0339 1.0694-.0508 1.6104-.0846 4.8691-.2537 9.7255-.6258 14.582-1.0655 4.8564-.4566 9.7003-.9978 14.5441-1.6405 2.4157-.3213 4.8439-.6596 7.2595-1.0317 1.384-.2029 2.7805-.2875 4.1771-.4059 2.9315-.2367 5.8504-.5581 8.7693-.9471 5.8751-.778 11.7131-1.8096 17.5511-2.9597 23.326-4.634 46.539-11.4329 70.192-12.2277zm-90.5488 115.6485c5.2591 2.519 10.8198 3.619 16.3438 4.481 2.805.44 5.611.812 8.404 1.269.717.118 1.434.27 2.151.389.541.084 1.082.118 1.623.22.177.033.328.118.491.186.466.186 1.007.135 1.497.236 1.07.237 2.114.66 3.146 1.032 1.321.474 2.68.913 4.051.778.994-.101 1.963-.49 2.957-.727 1.157-.271 2.327-.321 3.497-.305 2.365.051 4.731.44 7.058 1.049 1.045.271 2.089.609 3.121.981 1.119.406 2.227.879 3.346 1.353.755.321 1.409.304 2.177.254 1.006-.068 2.013.236 2.994.439 1.145.237 2.29.457 3.435.643 4.63.812 9.273 1.387 13.928 1.759 4.68.372 9.36.541 14.053.524 4.643-.017 9.285-.22 13.915-.592 1.762-.135 3.511-.372 5.272-.49-5.989.423-11.99.084-17.954-.626-3.019-.355-6.039-.812-9.046-1.319-.516-.085-1.057-.254-1.573-.254-.088 0-.176.017-.264.051-.239.068-.465.084-.717.101-2.151.085-4.315.051-6.467-.084-11.613-.744-23.037-4.617-34.662-5.158-2.126-.102-4.265.033-6.391.118-1.46.068-2.856-.068-4.29-.423-1.435-.355-2.869-.778-4.303-1.116-2.189-.508-4.404-.643-6.606-.897-2.39-.27-4.781-.575-7.171-.93-2.378-.355-4.768-.778-7.1337-1.268-2.2773-.491-4.5923-1.049-6.8821-1.674zm62.6058-26.063c.981-.034 1.975-.067 2.956-.101.793-.034 1.586-.051 2.366.118.276.068.528.102.805.051.604-.085 1.195.084 1.786.237.29.067.504.017.78 0 .894-.051 1.837.135 2.731.22.956.084 1.925.186 2.881.287 2 .203 4.001.44 5.989.693 15.903 1.979 31.894 4.922 47.897 3.18-18.658-1.708-37.316-3.416-55.975-5.124.843.084 1.988-.525 2.818-.762.957-.27 1.925-.541 2.882-.845.906-.271 1.824-.558 2.73-.863.503-.169 1.057-.27 1.547-.49.327-.135.655-.44.957-.626.641-.406 1.295-.795 1.95-1.167 1.308-.727 2.654-1.37 4.001-1.945 2.717-1.133 5.51-1.945 8.316-2.571 2.843-.625 5.712-1.031 8.58-1.336 2.894-.304 5.788-.524 8.682-.744 1.472-.118 2.931-.22 4.403-.355.503-.051 1.007-.085 1.472-.338.353-.186.654-.474.994-.694.654-.406 1.372-.49 2.089-.558 1.799-.203 3.585-.406 5.385-.609 3.132-.355 6.278-.71 9.423-.439 2.969.253 5.901 1.082 8.87 1.268 3.473.22 6.958-.406 10.405-1.032-6.92-.93-13.89-1.319-20.848-1.133-3.535.085-7.07.339-10.606.575-3.095.203-6.19.423-9.285.694-3.108.287-6.203.626-9.298 1.116-3.082.49-6.152 1.116-9.184 1.962-1.522.423-3.032.896-4.529 1.421-.441.152-.869.338-1.296.524-.176.067-.353.152-.541.152-.189 0-.34.101-.516.169-1.485.677-3.007 1.235-4.542 1.708-1.522.491-3.057.897-4.592 1.319-.214.051-.428.119-.642.17-1.598.439-3.196.879-4.806 1.302-1.598.44-3.196.879-4.806 1.302-.805.22-1.598.44-2.403.66-.403.101-.805.22-1.196.321-.163.051-.339.118-.503.102-.402-.017-.767.236-1.17.169-.679-.102-1.359.135-2.038.27-.805.152-1.598.305-2.403.457-1.598.304-3.208.575-4.806.812-3.208.473-6.429.795-9.663.778 3.989-.051 7.977-.186 11.953-.305zm-46.376 79.117c-1.912.237-3.875.203-5.787.186-2.013-.017-4.0137-.118-6.0267-.287-4.0261-.339-8.027-.93-12.0153-1.641-2.0005-.355-4.0009-.744-6.0014-1.133-.9562-.186-1.8998-.355-2.856-.575-.1509-.034-.3019-.085-.4529-.152-.6039-.288-1.2959-.068-1.925-.017-2.4911.237-5.0325.321-7.4985-.372-1.3337-.372-2.6295-.981-3.9758-1.184-1.2455-.203-2.5037-.051-3.7492-.271-1.0317-.169-2.0382-.592-3.0448-.93-6.9701-2.401-14.3428-1.674-21.4136.085 10.6313-1.692 21.3256 1.268 31.9066 3.467 1.8621.389 3.7241.744 5.5988.947 1.5223.169 3.0447.22 4.5544.524 1.5224.305 3.0196.829 4.542 1.184.7548.169 1.5223.305 2.2898.338.39.017.7675 0 1.1449-.033.3271-.034.6291.05.9688.067 3.2208.271 6.4543.457 9.6877.508 3.1705.05 6.3282-.017 9.4862-.254 1.535-.119 3.058-.271 4.567-.457zm155.13 8.981c-14.293.964-28.61 1.319-42.916 1.099 13.349 4.55 29.353 2.063 42.916-1.099z"/></g><path d="m125.304 25.4219c14.658.9133 29.315 1.8265 43.897 4.0928 12.066 1.8773 24.093 4.6848 36.235 4.8032-27.415 2.3508-52.654-7.8644-80.132-8.896zm58.013 46.1036c-.239-.0169-.49-.0338-.729-.0338-4.857-.2537-9.726-.2368-14.582 0-4.857.2198-9.701.6596-14.544 1.2515-.479.0507-.906.1353-1.372.3214-.465.186-.943.1014-1.422.1014-1.182.0169-2.365.1522-3.522.3721-2.328.4228-4.63 1.0993-6.958 1.6067-5.901 1.2684-11.902 1.3023-17.866 1.2346 2.265.4059 4.517.7949 6.782 1.2008-2.831 1.8096-5.951 2.6553-9.034 3.3994-3.246.7949-6.517 1.4883-9.788 2.0972-4.781.8794-9.575 1.5729-14.3933 2.0633-2.403.2368-4.8187.4397-7.2218.575-.6039.0339-1.2078.0677-1.8117.1015-.4403.0169-.8178-.0845-1.2456-.1184-.8932-.0676-1.7614.389-2.6421.3383-.239-.0169-.4655-.1015-.7045-.0846-.8052.0338-1.623.2368-2.4157.3552-1.6104.2368-3.2334.4905-4.8438.7441-3.2335.5074-6.4669 1.0148-9.6878 1.5391-6.4543 1.0486-12.9086 2.131-19.3628 3.2641-6.4543 1.1331-12.8961 2.317-19.3378 3.5347-.2516.0508-.5158.1015-.7674.1522 14.8713-1.4883 29.7551-2.9597 44.488-6.1054 3.7745-.8118 7.5615-1.7251 11.3737-1.6912 1.5349.0169 3.0573.1691 4.5922 0 .6669-.0677 1.3337-.3383 2.0005-.2876.6668.0508 1.3085 0 1.9879-.0676 3.1327-.3214 6.2655-.7273 9.3983-1.2008 6.2907-.9471 12.5567-2.1648 18.8097-3.484 6.278-1.3192 12.543-2.7567 18.809-4.1436 6.253-1.3868 12.518-2.7229 18.809-3.856 6.241-1.1332 12.506-2.0634 18.784-2.6215 2.781-.2875 5.599-.4566 8.417-.5581zm22.936 129.1275c-4.63.49-9.31.084-13.927-.203-3.511-.22-6.958-1.218-10.468-1.37-3.485-.152-6.983.203-10.48 0-8.153-.457-16.08-3.67-24.207-4.668-2.189-.27-4.391-.372-6.593-.49-1.9-.085-3.799-.186-5.687-.271-.516-.017-1.031-.051-1.547-.084-1.17-.085-2.34-.203-3.498-.474-.629-.152-1.245-.44-1.875-.524-2.931-.44-5.875-.744-8.819-1.015-2.995-.271-5.976-.575-8.958-.964s-5.951-.863-8.92-1.438c-1.5354-.304-3.0829-.625-4.6178-.981-.7046-.169-1.4217-.338-2.1263-.524-.5661-.152-1.2204-.203-1.7614-.473 10.3545 4.955 21.5525 4.515 32.2585 7.238.931.237 1.913.372 2.756.947.327.22.629.389 1.006.44 1.196.169 2.428.118 3.624.085 2.428-.068 4.856-.305 7.284-.322 2.001 0 3.989.727 5.977 1.133 1.811.372 3.623.66 5.447.897 1.057.135 2.139.236 3.158.693.453.203.793.406 1.258.457.567.067 1.145.237 1.712.338 2.302.44 4.617.812 6.919 1.133 4.668.643 9.348 1.066 14.041 1.302 4.693.22 9.373.254 14.066.102 4.618-.152 9.235-.474 13.84-.964.038.017.088 0 .138 0zm-27.188-43.601c.453-.203.918-.406 1.371-.609 2.34-1.014 4.769-1.725 7.159-2.536 1.321-.44 2.579-1.049 3.9-1.387 2.227-.575 4.517-1.353 6.782-1.607.365-.051.704 0 1.069.068.969.169 1.925-.203 2.881-.423 2.353-.524 4.731-.88 7.121-1.049.516-.034 1.045-.067 1.561-.084.276-.017.566-.068.83.017.214.067.428.084.654.067.441-.034.868-.203 1.296-.355.768-.27 1.548-.473 2.328-.609.314-.05.591-.084.88-.253.315-.186.68-.186 1.019-.254 1.561-.288 3.121-.541 4.681-.66 2.29-.169 4.567-.287 6.857-.372 2.264-.084 4.529-.118 6.794.186.654.085 1.296.203 1.95.322 3.07.592 6.14 1.505 9.26 1.386.767-.033 1.509-.202 2.264-.287.491-.051.919.135 1.397.186 1.258.152 2.567-.068 3.825-.118 1.912-.085 3.837-.17 5.749-.254 3.989-.186 7.977-.372 11.978-.558-8.191-.389-16.394-.778-24.584-1.167-8.228-.389-16.457-.778-24.672-.338-1.661.084-3.322.203-4.97.355-6.366.592-12.72 1.64-19.011 3.027-3.158.694-6.291 1.471-9.423 2.317-.403.102-.793.237-1.183.372-.101.034-.176.051-.277.051-.176 0-.339.101-.503.152-.377.135-.755.288-1.145.423-.843.304-1.686.643-2.541.879-1.51.406-3.033.643-4.542 1.015-1.359.338-2.705.778-4.052 1.252-1.497.524-2.981 1.099-4.491 1.589-.755.254-1.51.474-2.265.677-.377.101-.755.186-1.145.271-.163.033-.327.084-.49.05-.428-.067-.894.119-1.321.186-1.561.271-3.121.491-4.693.66-1.573.169-3.146.271-4.718.321-.592.017-1.183.017-1.774.017-.139 0-.29-.017-.416 0-.088.017-.176.085-.264.102-.302.067-.616.101-.918.152-.805.135-1.611.254-2.428.389-.302.051-.579.118-.881.237-.591.236-1.258.253-1.875.372-1.384.27-2.78.541-4.164.812-2.24.422-4.467.845-6.706 1.234 4.278.288 8.58.575 12.833-.186 1.824-.321 3.623-.846 5.435-1.268 1.283-.305 2.579-.558 3.888-.66 2.856-.22 5.724.271 8.555.778 2.416.423 4.819.846 7.235 1.268.868.153 1.572.153 2.428-.067.981-.254 2.013.034 3.007.152 4.856.643 9.713 1.319 14.582 1.877 4.844.558 9.7.981 14.569 1.133 2.302.068 4.617.085 6.92 0 1.17-.033 2.327-.101 3.497-.169 1.133-.084 2.29-.304 3.423-.304-18.659-1.708-37.317-3.416-55.975-5.125.843.085 1.988-.524 2.818-.761.755-.219 1.522-.49 2.29-.659.126-.034.264-.034.402-.034.239.017.466.051.718-.017.754-.203 1.497-.541 2.226-.829.982-.456 1.988-.913 2.995-1.353zm-70.066 83.176c-2.454.186-4.907.22-7.348.152-1.623-.05-3.246-.152-4.8564-.287-.8052-.068-1.623-.152-2.4282-.237-.7549-.084-1.5601-.101-2.2899-.338-.7549-.254-1.5852-.271-2.3653-.389-.8052-.118-1.623-.254-2.4282-.372-1.623-.254-3.2335-.491-4.8565-.744 2.1641-1.844 4.8187-2.182 7.3476-2.622 4.1645-.727 8.2786-1.86 12.3169-3.399-6.9446.592-13.8644 1.657-20.7339 3.179-1.8746.423-3.7367.863-5.6365 1.1-.4152.05-.78.084-1.1701.27-.629.271-1.321.136-1.9753.102-1.5978-.051-3.1956-.119-4.7935-.22-3.1831-.186-6.3662-.507-9.5242-1.099-1.0065-.186-2.013-.406-3.0195-.66-1.9627-.507-3.9254-1.133-5.9133-1.421-3.9129-.575-7.8509.17-11.7259 1.083 1.8494-.017 3.6989-.017 5.5484-.034 2.403-.017 4.8187-.034 7.2092.237 1.5978.186 3.1831.49 4.7683.862 1.5476.355 3.0699.863 4.6174 1.184 3.0951.626 6.1901 1.201 9.2978 1.742 3.1202.524 6.2529.998 9.3731 1.387 3.1203.389 6.2405.71 9.3607.93 3.0824.22 6.1649.338 9.2599.322 3.0194 0 6.0394-.136 9.0584-.406.982-.102 1.938-.254 2.907-.322zm155.129 8.981c-14.292.964-28.61 1.319-42.915 1.099 13.349 4.55 29.352 2.064 42.915-1.099z" fill="url(#g)"/><g fill="#5f1b3d"><path d="m19 22.4404h262v245.206h-262z"/><ellipse cx="150" cy="22.0328" rx="131" ry="10.9976"/><ellipse cx="150" cy="267.239" rx="131" ry="10.9976"/></g><g fill="#e58a4a"><path d="m23 25.29h254v238.696h-254z"/><ellipse cx="150" cy="24.8931" rx="127" ry="10.7056"/><ellipse cx="150" cy="263.589" rx="127" ry="10.7056"/></g></svg>