<svg fill="none" height="128" viewBox="0 0 132 128" width="132" xmlns="http://www.w3.org/2000/svg" xmlns:xlink="http://www.w3.org/1999/xlink"><linearGradient id="a"><stop offset="0" stop-color="#cf5c2b"/><stop offset="1" stop-color="#59173e"/></linearGradient><linearGradient id="b" gradientUnits="userSpaceOnUse" x1="101.641" x2="85.5974" xlink:href="#a" y1="-15.0506" y2="19.0631"/><linearGradient id="c" gradientUnits="userSpaceOnUse" x1="85.7636" x2="26.9019" xlink:href="#a" y1="-2.84953" y2="177.222"/><linearGradient id="d" gradientUnits="userSpaceOnUse" x1="79.649" x2="32.4333" xlink:href="#a" y1="19.0322" y2="232.855"/><linearGradient id="e" gradientUnits="userSpaceOnUse" x1="70.9223" x2="68.5311" xlink:href="#a" y1="157.696" y2="82.3969"/><linearGradient id="f" gradientUnits="userSpaceOnUse" x1="67" x2="67" y1="23" y2="98"><stop offset="0" stop-color="#ffdf80"/><stop offset=".856897" stop-color="#e18127"/></linearGradient><path d="m131.002 50.4757c2.14-3.3413.696-7.7964-2.966-9.3505-1.135-.4662-2.27-.9325-3.404-1.3728-2.012-.7771-4.075-1.4764-6.138-2.1498-1.805-.5699-3.61-1.062-5.519-1.0879-1.624-.0259-3.249-.0518-4.899-.0518-.361 0-.748 0-1.058-.1554-.335-.1554-.593-.4663-.851-.7253-1.031-1.0878-2.424-1.7872-3.894-2.0462-.644-.1036-1.341-.0259-1.985-.259-.258-.1036-.5163-.1813-.7999-.259-1.9342-.4145-3.8941-.6476-5.854-.9325-.0774-.1554-.1547-.3108-.2321-.4662-.5158-.9843-1.0315-1.9685-1.5731-2.9269-1.2636-2.3052-2.9141-5.0249-4.6677-6.9934-1.0573-1.1915-2.4757-2.1758-4.0488-2.383.6189-1.3987.4642-3.0305-.1031-4.4551-.4127-1.0619-1.0574-2.0203-1.7279-2.9269-2.3467-3.21177-4.6677-6.42357-7.1434-9.53177-1.0573-1.32098-2.6046-2.175737-4.3066-2.3570489-.5416-.0777049-1.1347-.05180329-1.7279.0518033-.5415.1036066-1.212.2331146-1.6762.5439346-1.2894.880651-2.4757 1.916721-3.6104 3.004591-1.5215 1.47639-2.9141 3.1082-4.2293 4.7918-1.2378 1.57999-2.3983 3.18589-3.6104 4.76589-4.745 6.1128-8.9485 12.64-12.791 19.3744-10.5475 1.865-20.9402 4.74-31.1267 8.7289-.4641.1813-.9799.4403-1.34096.803-.33525.3367-.77365.5439-1.13469.8288-3.01724 2.4089-5.5703 5.7502-7.633371 8.9879-.9025955 1.5023-1.186268 3.3413-.747865 5.0508.386826 1.5023 1.418366 2.6161 2.398326 3.7557.97996 1.1138 1.70203 2.6938 2.86251 3.5745.56735.4144 1.21206.6475 1.88256.8806 1.46994.518 2.93989 1.0361 4.40979 1.5541-.722.259-1.4183.5957-2.06304.9843-.28368.1813-.59314.3885-.64471.7252-.02579.259.10315.518.23209.7253 1.90836 3.3154 4.35826 6.8639 6.91126 9.8167 2.2178 2.5902 4.513 5.1026 6.8855 7.5374.0516.0518-.1289.6993-.1289.8029-.0516.2849-.1031.5699-.1547.8548-.0774.5439-.1805 1.1137-.2579 1.6577-.6447 4.2219-.851 8.4439-1.2121 12.6918-.2063 2.487.129 4.61 3.0946 5.025-.9541-.13-1.8825.518-2.3725 1.373-2.0888 3.652-1.341 8.651-.851 12.614.49 4.015 3.6104 7.382 7.9686 6.216 12.4558-3.341 23.7512-7.382 33.1381-12.588 9.4644 4.921 20.7597 8.962 33.164 12.485 1.0057.284 2.0631.31 3.0946.077s2.4243-.725 3.1973-1.476c1.986-1.839 3.92-3.73 5.493-5.932 1.367-1.865 3.147-4.196 3.327-6.553.206-3.082.284-6.372.232-9.532-.051-3.134.103-6.449-1.16-9.3759-.103-.2072-1.316-2.4866-1.393-2.4089 1.47-1.1655 1.573-3.3413 1.47-5.0767-.129-1.9685-.309-3.937-.593-5.8797-.129-.8806-.284-1.7613-.413-2.616 1.29-1.4764 2.553-2.9528 3.791-4.481 6.757-7.2525 12.92-15.2302 18.491-23.9331z" fill="url(#b)"/><path d="m131 50.5889c-2.916 4.5374-5.986 8.9192-9.263 13.0677-4.077 5.2893-8.463 10.2416-13.108 14.8827.49 2.8261.413 5.8338.723 8.7118.025.363.051.726-.052 1.0631-.155.4148-.516.6741-.929.8815-.181.1037-.361.1556-.568.2334-3.148 1.0889-6.399 1.8927-9.7273 2.3335h4.8763c1.987 0 4 .0259 5.909.5704 2.787.8297 1.961 6.5339 1.961 8.764v.129c.104 4.253.052 8.479-.232 12.705-.284 4.045-4.154 6.845-8.025 5.73-12.4366-3.5-23.7124-7.571-33.1821-12.497-9.3922 5.211-20.6939 9.256-33.1566 12.627-3.8447 1.011-7.6893-1.763-7.9473-5.73-.0774-1.297-.3612-2.723-.0774-3.993.1032-.441.1548-.83.129-1.297-.0516-1.166-.0516-2.385.6967-3.344 1.1869-1.504 3.406-1.478 5.2896-1.297 4.2316.363 8.4633.752 12.6692 1.115 1.0063.104 2.0384.182 3.0447.259-3.9736-.881-7.9215-1.763-11.8693-2.644-.0258 0-.0258 0-.0516-.026-2.4513-.545-4.9026-1.089-7.3538-1.634-.6193-.129-1.2644-.259-1.8836-.414-.3097-.052-.6709-.156-.8515-.415-.1807-.26-.1549-.5707-.129-.8819.1032-1.0889.2064-2.1779.3096-3.2669.1032-.9593.0258-1.8409.0774-2.8002.1548-2.2039.3612-4.4596.6193-6.6635.2322-2.1261.5418-4.2522.8773-6.3524.0774-.6223.1806-1.2705.3096-1.8927-.129 0-.5161-.5705-.6193-.6482-.2064-.2075-.387-.389-.5934-.5964-.3871-.4408-.7999-.8556-1.2128-1.2705-1.7804-1.9186-3.4318-3.9151-5.1089-5.9115-1.6772-2.0224-3.3544-4.0189-5.1348-5.9376-.0258-.0259-.0258-.0259-.0258-.0259-.4129-.4408-.8515-.9334-.8257-1.5557 2.8899.1297 5.754.2593 8.644.389.2838.0259.5934.0259.8773.0259h.0258c.6192.0259 1.2127.0518 1.832.0778-.2323-.0519-.4387-.1556-.6709-.2075-3.0189-.9852-6.0895-1.9186-9.2116-2.5928-.1549-.0259-.3097-.0518-.4903-.1037-1.2643-.2593-2.5545-.5704-3.6898-1.2186-.5419-.3111-1.0579-.6741-1.2901-1.2964-.2065-.5445-.5161-.9593-.8773-1.426-1.2386-1.7631-2.47711-3.5781-3.66404-5.3931-2.21905-3.3706-.77409-7.9858 2.96734-9.4378 11.121-4.3559 22.5001-7.4154 34.0856-9.2563.0258-.0518.0516-.1296.1032-.1815 2.3222-4.5374 4.7735-8.8414 7.3022-12.964 3.6898-6.0412 7.586-11.61571 11.7403-16.64575 2.5803-3.137287 7.3538-3.111359 9.8825.05186 1.1611 1.4779 2.3222 2.95579 3.4317 4.48555.6709.88155 1.4708 1.7631 2.0127 2.74837.2322.41487.2838.88157.5676 1.29637.8515 1.3224 1.7546 2.6188 2.6061 3.9152-.5935.4926-1.1869.9852-1.8062 1.426-1.0063.7519-2.0384 1.4779-3.0963 2.1261-.3097.2074-.5935.3889-.9031.5963-.0774.0519-.1548.1038-.2323.1556 1.0064-.3111 2.0385-.5704 3.0964-.7778h.0258c1.4191-.2852 2.8125-.4667 4.2575-.5445.258-.026.516-.026.774.1037.1807.0778.3097.2333.4387.3889.0258.0519.0516.0778.1032.1297.6709.9074 1.3418 1.789 2.0126 2.6965.5935.8037 1.0321 1.6334 1.5482 2.515 1.1353 1.8927 2.2448 3.8373 3.277 5.756.2322.4667.4902.9334.7224 1.4001.0774.1556.5935 1.3223.6967 1.3223 2.2707.3112 4.6187.5705 6.8376 1.1409.439.1296.877.1815 1.187.5704-.49.2333-1.006.4408-1.496.6223-1.9357.7778-3.9483 1.426-5.9609 1.9186-.3871.1038-.7999.2075-1.2128.3112-.1806.0518-.3612.0778-.5676.1296.3612-.0259.7483-.0518 1.1095-.1037 2.4513-.2074 4.8767-.4148 7.3278-.5963 3.69-.2853 7.483-.4927 11.199-.026 1.341.1815 2.657.4408 3.973.8297 1.032.3112 2.065.6482 3.097.9853 2.038.6482 4.051 1.3742 6.063 2.152.955.363 1.91.7519 2.839 1.1408 3.638 1.5817 5.083 6.0413 2.941 9.386z" fill="url(#c)"/><path d="m112.351 35.8288c-14.64 3.3103-32.1363.5995-46.5707-1.199-6.664-.8341-13.4052-1.6943-20.0693-2.9715 2.3157-4.5614 4.76-8.8883 7.2816-13.0327 4.7857-.1043 9.5715-.1564 14.3058-.3128 3.6536-.1043 7.3072-.1825 10.9609-.2346.6432-.0261 1.2865-.0261 1.9554-.0261h.0258c1.8268-.026 3.6279-.0521 5.4547-.0521.0257.0521.0515.0782.1029.1303.669.9123 1.338 1.7985 2.0069 2.7108.5918.8081 1.0292 1.6422 1.5438 2.5284 1.1321 1.9028 2.2385 3.8577 3.2677 5.7865.2316.4692.4889.9384.7205 1.4076.0771.1564.5917 1.3293.6947 1.3293 2.2642.3128 4.6056.5734 6.8183 1.1469.437.1303.875.1824 1.184.5734-.489.2346-1.004.4431-1.493.6256-1.9294.782-3.9364 1.4336-5.9433 1.9288-.3859.1043-.7976.2086-1.2093.3128-.1801.0522-.3602.0782-.566.1304.3602-.0261.7461-.0522 1.1063-.1043 2.4444-.2085 4.863-.4171 7.3073-.5995 3.628-.3389 7.436-.5474 11.115-.0782zm-3.19 56.536c-1.904-.5734-3.911-.5734-5.892-.5734h-4.8633c3.3193-.4431 6.5613-1.2512 9.7003-2.3459.18-.0521.36-.1303.566-.2346.412-.1825.772-.4692.926-.8862.129-.3389.103-.7038.052-1.0687-.309-2.8933-.232-5.9169-.721-8.758 4.632-4.6918 9.006-9.6703 13.071-14.9616-3.113.0261-6.149.1043-8.98.0261-12.016-.365-23.9799-1.3294-35.9958-1.7464-16.1583-.5735-32.8827-.8081-49.1954.9383-.386.0261-.7719.0782-1.1578.1304-.0258 0-.0258 0-.0258 0-2.9074.3128-5.7635.7037-8.6452 1.199 1.8011 1.9288 3.4478 3.9359 5.1202 5.969 17.3162 1.8246 35.0183 1.7464 52.3345 2.1895 7.5389.1824 15.0262.1824 22.5394.3649-4.9144.7559-9.8546 1.4857-14.769 2.2156-12.6848 1.8506-25.4725 3.1017-38.2602 4.3529-4.9659.4692-9.8546.782-14.6403 1.2772-.3602 2.1113-.6433 4.2487-.8748 6.386-.2573 2.2156-.4632 4.4833-.6175 6.6989-.0515.9644.0257 1.8506-.0772 2.815-.1029 1.0948-.2059 2.1895-.3088 3.2843-.0257.3128-.0514.6259.1287.8859.1801.261.5146.365.849.417.6176.157 1.2608.287 1.8783.417 2.4444.574 4.8887 1.095 7.333 1.643.0258.026.0258.026.0515.026 3.3706.286 6.7927.365 10.1375.573 12.6077.834 25.4211.209 38.003-.443 8.1306-.417 16.2357-1.069 24.3147-1.929-.026-2.2937.798-8.0281-1.981-8.8622z" fill="url(#d)"/><g fill="#eb924d"><path d="m83 14.8215c-.5954.4913-1.1909.9827-1.8122 1.4223-.2071-.7758-.466-1.4999-.7766-2.2499-.7249-1.7326-1.6828-3.3619-2.8219-4.83591-.5954-.7241-1.2944-1.37062-1.8898-2.09471-.2071-.25861-.3107-.51722-.4401-.80168-.3625-.80168-1.0097-1.49992-1.6569-2.09472-2.4335-2.24987-6.1873-2.45676-8.6208-.10344-1.9417 1.88783-2.796 3.69807-4.5046 5.84451-5.2295 6.56855-10.6143 13.39585-12.7112 21.54195.8284.4396 1.6309.8792 2.4594 1.3447-1.0356-.0259-2.2264.2586-3.2361.3879-7.1711.75-14.2386 2.2499-21.0732 4.4739 2.7442 1.4223 5.7732 2.3792 8.828 2.7671-2.796-.2327-5.566-.4396-8.362-.4396-2.071.0258-4.1421.1551-6.1614.5172-1.0097.181-2.0193.4137-3.0031.7241-.4401.1551-.9061.362-1.372.4137-.932.1035-1.7605.388-2.6407.6983-1.2426.4396-2.4853.931-3.41724 1.8361-.93198.931-1.83807 1.5775-1.34619 2.7929 1.68273 4.3188 3.52083 8.8702 7.24873 11.5856.6472.4655 1.3462.9051 1.9158 1.4482-1.2686-.2586-2.563-.5689-3.7021-1.2155-.5436-.3103-1.0614-.6723-1.2944-1.293-.2071-.5431-.5178-.9568-.8802-1.4223-1.2426-1.7585-2.48529-3.5688-3.67616-5.379-2.2264-3.3619-.77665-7.9651 2.97716-9.4133 11.1579-4.3446 22.5747-7.3961 34.1986-9.2322 5.8249-11.1718 12.1676-21.2316 19.2092-29.71392 2.5888-3.129137 7.3782-3.103277 9.9153.05172 1.1649 1.47406 2.3299 2.94811 3.4431 4.47389.6731.87926 1.4757 1.75852 2.0193 2.74123.233.41378.2848.87928.5696 1.29308.8284 1.3447 1.7345 2.6119 2.6147 3.9308z"/><path d="m34 79.9154c-.6296-.3667-1.4103-.4453-2.0651-.1572-1.108 5.448-1.4606 11.0269-1.8384 16.5796-.1007 1.5977-.0755 3.4574.7807 4.6622-.6044-.131-1.234-.262-1.8384-.419-.3022-.052-.6547-.157-.831-.419-.1763-.2621-.1511-.5764-.1259-.8907.1007-1.1.2014-2.2001.3022-3.3002.1007-.9691.0251-1.8596.0755-2.8287.1511-2.2263.3526-4.5051.6044-6.7314.3022-2.7763.7052-5.5527 1.1585-8.3029-.126 0-.5037-.5762-.6045-.6548-.2014-.2095-.3777-.3929-.5792-.6024-.3777-.4453-.7807-.8643-1.1836-1.2834-3.4753-3.8764-6.5226-8.1457-10.0483-11.996-.4029-.4452-.831-.9429-.8058-1.5715 2.8205.131 5.6159.2619 8.4365.3929 1.0577.1833 2.1154.3929 3.1983.6024-1.7629.1833-3.9538.681-5.7419.8905-.2266.0262-.5036.0524-.6296.2619-.1762.262-.0251.6549.126.943 3.0724 5.5265 6.9758 10.6078 11.6096 14.8247z"/><path d="m110.901 100.719c.104 4.367.052 8.708-.232 13.048-.285 4.154-4.162 7.03-8.04 5.885-12.4609-3.595-23.7581-7.775-33.2457-12.835-9.4101 5.352-20.7332 9.506-33.2197 12.968-3.8519 1.039-7.7038-1.811-7.9624-5.885-.0775-1.331-.3619-2.796-.0775-4.1.1034-.453.1551-.853.1293-1.332-.0518-1.198-.0518-2.45.698-3.435 1.1891-1.544 3.4124-1.518 5.2996-1.331 4.2397.372 8.4794.772 12.6932 1.145.5171.106 1.0083.239 1.4995.372-3.852-.106-7.7039-.239-11.5558-.372-1.2926-.027-2.5852-.054-3.8261.319-.7756.24-1.4994.666-2.0682 1.305-1.1374 1.305-1.215 3.222-1.2408 4.873-.0259 1.012.1809 1.997.1809 3.009-.0258.399.1034.772.2327 1.145.2844.825.7238 1.651 1.4735 2.13 1.1117.719 2.5594.453 3.852.133 6.9283-1.677 13.7532-3.621 20.5263-5.858 1.06-.346 2.094-.772 3.1023-1.251 1.1375-.533 2.1715-1.199 3.2832-1.784.3877-.213.8789-.373 1.2925-.533.1035-.053.2327-.053.3361-.08.2844-.053.5171-.16.7497-.319.4654-.293.879-.693 1.2926-1.066.7756-.772 1.5511-1.677 2.6111-2.05.1809-.053.3619-.106.517-.08.2844.053.517.266.7238.479 1.3702 1.359 2.9472 2.504 4.6275 3.409.8531.453 1.758.905 2.6628 1.172.336.106.6463.106.9823.106.4654 0 .879.16 1.3185.293 4.3172 1.331 8.6345 2.636 12.9518 3.968 2.9988.905 5.9976 1.837 8.996 2.742.647.187 1.293.4 1.939.4 1.758.026 3.154-1.252 4.55-2.184.44-.293.827-.612 1.008-1.145.311-.852.259-1.89.311-2.769.258-4.607.413-9.214.465-13.8202 0-.4527 0-.9054-.155-1.3314-.233-.6125-.776-1.0119-1.267-1.3847-1.965-1.4113-4.033-2.6362-6.178-3.6747h.879c1.99 0 4.007.0266 5.92.5858 2.817.8787 1.913 6.9234 1.964 9.1332z"/><path d="m94 36c-.2885.3333-.5961.6667-.9038 1-.0385-.0833-.0577-.0833-.0962-.0833.3269-.3334.6731-.6667 1-.9167z"/><path d="m131.012 50.5855c-6.53 10.2611-13.902 19.5424-22.116 27.8183.485 2.8102.409 5.8008.715 8.6626.025.3609.051.7219-.051 1.057-.153.4125-.51.6703-.919.8766-.357-.3867-.561-.9281-.586-1.5211-.077-1.1344-.026-2.2946-.026-3.4289v-3.6095c0-.464-.025-.9539-.229-1.3664-.281-.5672-.868-.8508-1.403-1.1086-1.684-.825-3.393-1.6242-5.076-2.4492 2.372 1.2117 5.305.7734 7.652-.5157s4.183-3.3258 5.943-5.3368c3.622-4.1508 7.091-8.4305 10.382-12.8392 2.168-2.9133 4.362-6.0844 4.693-9.7454.051-.825.026-1.7016-.382-2.3977-.434-.7218-1.199-1.1601-1.964-1.4953-2.755-1.3148-5.74-2.0625-8.775-2.1914-1.199-1.9336-3.393-3.0165-5.637-3.429-2.219-.4125-4.515-.232-6.76-.1804-4.183.1289-8.3153-.1805-12.473-.4899 2.4232-.2062 4.8209-.4125 7.244-.593 4.974-.3867 10.152-.6445 14.999.7993 1.02.3093 2.04.6445 3.061.9797 2.015.6445 4.004 1.3664 5.994 2.1398.944.361 1.887.7477 2.806 1.1344 3.596 1.4696 5.025 5.904 2.908 9.2298z"/><path d="m102 33.4014c-.486.2245-.998.424-1.484.5986-2.6869-.424-5.3737-.848-8.0861-1.247-2.303-3.9905-4.6059-7.981-6.8833-11.9716-.2047-.3491-.4094-.6734-.7421-.8978-.4094-.2494-.9212-.2494-1.4074-.2494-2.175.0249-4.2221-.3741-6.3971-.2993.1791-.0499.3582-.1497.5118-.1995-.0768.0498-.1536.0997-.2303.1496 2.3797-.7233 4.8362-1.1473 7.3183-1.272.2559-.0249.5118-.0249.7677.0998.2302.0998.3838.2993.5117.4988.6653.8729 1.3306 1.7209 1.9959 2.5938.5886.7732 1.0236 1.5713 1.5353 2.4193 1.1259 1.8207 2.2262 3.6912 3.2498 5.5368.2303.4489.4862.8979.7165 1.3468.0767.1497.5885 1.272.6909 1.272 2.2517.2993 4.5803.5487 6.7814 1.0974.409.1247.844.1496 1.151.5237z"/></g><path d="m110.849 50.9142c-.182-.5385-.544-1.0257-.959-1.4359-.881-.9231-1.839-1.1539-3.083-1.2565-1.295-.1025-2.643-.3846-3.938-.5384-5.4411-.6923-11.7889-.6923-16.9189-2.7692-1.6581-.6667-2.5131-1.2821-3.2904-2.8718-1.0882-2.2821-2.28-4.4616-3.4718-6.6667-1.3732-2.8974-2.7723-5.7949-4.1714-8.6667-.6996-1.4359-1.3991-2.8974-2.0987-4.3333-.259-.5385-.5181-.9487-.9327-1.3846-.4404-.4616-.7254-1.0257-1.14-1.4872-.8809-.9487-2.2541-1.6923-3.6532-1.4615-1.5804.2307-2.6945 1.5641-3.6013 2.8205-.1037.1538-.2073.282-.3109.4359-4.0419 5.6923-6.7364 12.0513-10.1046 18.1282l-.4145.7692-2.565 4.7949c-7.6173 1.1282-15.5455 1.5897-22.7482 4.0513-1.0105.3589-1.9432.7948-2.6169 1.6153-.9586 1.1795-1.0622 1.8718-.4404 3.4359 3.0832 7.7949 10.0009 13.9488 15.5973 20.0257.6477.6923-.0259 2.4102-.2332 3.1538-.1814.6154-.5182 1.2821-.57 1.9487-.0259.4616.0259.8718-.0518 1.359-.8032 4.7949-2.0468 9.5128-2.9537 14.3077-.5181 2.7692-.0259 5.7945 3.2128 6.7945 3.8086 1.18 7.695-1.205 11.0113-2.7432 3.9382-1.8718 7.6691-4.0513 11.4-6.2821 1.0364-.6154 2.3578-1.4872 3.6532-1.4872.1814-.1025.3368-.1794.5182-.2564l6.0627 2.9231c6.1923 3 12.5919 5 19.0951 7.2048 2.1245.718 3.679 0 3.7568-2.2048.285-6.7179-3.9641-13.8205-2.9537-20.5384.1555-1.077.1037-1.9231-.0777-2.9744-.1295-.7692-.2332-1.3846.3109-1.9744.4923-.5384 1.0882-1.0256 1.6323-1.5128 4.6118-4.282 9.0164-8.6666 13.2394-13.3333.803-.8718 1.684-1.6923 2.228-2.7436.389-.7692 1.063-1.359 1.425-2.1538.285-.8718.441-1.8206.156-2.6923zm-13.6802 9.1282c-.1814.2051-.6478.6153-1.0623.9743-.57.5128-1.1659 1.0257-1.7359 1.5898-.4145.4102-.855.8461-1.2955 1.2564l-6.3995 6.1282-.6477 1.7692c-1.3732 3.5897-.3887 7.3077.3886 10.3077.1295.5128.2591.9487.3368 1.3333.2591 2.1282.4405 4.4616.6218 6.7436h.0519c.1036 1.5128.285 2.9744.4922 4.4103-4.1454-1.4616-8.1095-3-11.9441-4.8975l-10.26-5.1025-2.9795 1.5897c-2.3318.5385-4.1196 1.6667-5.3373 2.3846l-.2591.1795c-3.8605 2.359-7.6432 4.641-11.5296 6.5385-.4922.2307-1.0104.4872-1.5027.7436-.4404.2051-.9586.4871-1.4768.7179.2332-1.1538.4664-2.3077.7514-3.4872.1813-.8974.3886-1.7948.57-2.6923.2331-1.1282.4663-2.2307.6736-3.359.1814-.9743.5182-2.0256.4145-3.0256-.1036-1 .285-2.0513.4923-3 .2591-1.1538.4923-2.3077.7514-3.4615.1554-.6923.3109-1.3846.6218-2 .1036-.1795.2073-.3846.4145-.4872.1814-.1026.4146-.1026.6219-.0769 1.4768.0769 2.9536.1538 4.4304.2051-.8291-.3846-1.6322-.7949-2.4354-1.2308-.9587-.5128-1.8914-1.0769-2.7982-1.6666-.4405-.3077-.9068-.6154-1.3473-.9231-.3886-.2564-.855-.5128-1.1659-.8974-.2073-.2565-.3109-.5641-.4923-.7949-.5959-.7949-1.3213-1.5128-1.995-2.2308-1.5804-1.7692-3.1609-3.5384-4.7413-5.3077-2.5391-2.8205-4.6378-5.2307-6.2182-7.6666 3.9641-.9744 8.2391-1.5129 12.6954-2.1026 2.1246-.2821 4.2491-.5641 6.3478-.8718l4.1195-.6154 4.6896-9.0256.3886-.718c1.1141-2.0769 2.0727-4.1538 3.0055-6.1282.8809-1.8974 1.71-3.7179 2.6427-5.3846.7773-1.4359 1.6064-2.8718 2.4873-4.282l5.2077 11.0512.0777.1539c.5182 1.0256.9846 2.0513 1.4509 3.0769.2073.4615.4664.8974.5959 1.3846.0778.2821.1037.5641.2332.8205.4146.8718 1.0105 1.6667 1.4768 2.5129.9328 1.7435 1.71 3.5641 2.3319 5.4359-1.8137.2051-3.6014.3589-5.415.5128 1.0881-.1026 2.2541.0769 3.3422.1538 1.14.0769 2.28.1795 3.3941.3077 2.2541.2564 4.5082.641 6.7364 1.1026 2.0986.4615 4.1714.8974 6.3218 1.1795l8.9647 1.1794z" fill="url(#e)"/><path d="m104.746 57.1321c-.832 1.298-2.012 2.543-3.22 3.735l-.349.3444c-.027.0265-.054.0265-.054.053-2.2 2.0662-4.4809 3.8675-5.5543 4.9271-1.959 1.9337-5.4475 4.1059-6.7625 6.5164-1.6369 3.0463-.1073 8.2383.6172 11.4171.0537.2119.1074.4238.1342.6092 0 .0265 0 .0265.0269.0265.805 3.4437 2.0126 6.8609 1.8516 10.4105-.0805 1.9867-1.4491 2.6225-3.3276 1.9867-5.0181-1.6953-9.9826-3.2582-14.786-5.3509-.7783-.3444-1.5565-.6887-2.3078-1.0596l-5.367-2.5695-.0805-.053s-.0001 0-.0269 0c-.1342.0795-.2952.1325-.4293.2384-1.1539 0-2.3347.7947-3.3007 1.3245-3.3276 1.9867-6.682 3.9205-10.1973 5.5893-2.7372 1.298-5.9037 3.1788-9.0703 2.6225-.2683-.0265-.5098-.0795-.7782-.1589-2.925-.8742-3.3543-3.6026-2.8982-6.0662.4562-2.437.9661-4.8476 1.5028-7.2317.322-1.5099.644-3.0463.9661-4.5562.322-1.4569 2.0931-5.5098.966-6.7548-4.3472-4.6887-9.5532-9.4304-12.6392-15.1521-.0269-.0265-.0269-.0265-.0537-.0265-.483-.8742-.9124-1.8013-1.2613-2.7285-.483-1.2185-.483-1.8542.1342-2.7284.0805-.106.161-.2384.2684-.3444.6172-.7152 1.4491-1.139 2.3346-1.4304 3.8642-1.3245 7.97-1.9867 12.1294-2.543 2.764-.3709 5.528-.6888 8.2652-1.0596l1.7711-3.3112.5099-.9537.3756-.6887c.4026-.7152.8051-1.4569 1.1808-2.1721 2.4688-4.7417 4.6961-9.5893 7.8358-14.0131.1073-.1324.2147-.2384.2952-.3973.805-1.1126 1.7979-2.3311 3.2202-2.543 1.2612-.212 2.4688.4503 3.2739 1.2979 3.5153 3.7616 4.9913 9.7218 7.4601 14.172 1.0734 1.9868 2.1199 3.9205 3.1128 5.9602.6709 1.4305 1.4491 1.9867 2.925 2.5695 4.6157 1.8808 10.2778 1.8543 15.1618 2.4636 1.1539.1324 2.388.4238 3.515.5033 1.127.0794 1.986.2913 2.764 1.1125.403.3974.671.8477.859 1.2715.617 1.4835.081 3.1258-.993 4.7417z" fill="#e3894b"/><path d="m104.746 57.1321c-.832 1.298-2.012 2.543-3.22 3.735l-.349.3444c-.027.0265-.054.0265-.054.053-2.2 2.0662-4.4809 3.8675-5.5543 4.9271-1.959 1.9337-5.4475 4.1059-6.7625 6.5164-1.6369 3.0463-.1073 8.2383.6172 11.4171.0537.2119.1074.4238.1342.6092 0 .0265 0 .0265.0269.0265.805 3.4437 2.0126 6.8609 1.8516 10.4105-.0805 1.9867-1.4491 2.6225-3.3276 1.9867-5.0181-1.6953-9.9826-3.2582-14.786-5.3509-.7783-.3444-1.5565-.6887-2.3078-1.0596l-5.367-2.5695-.0805-.053s-.0001 0-.0269 0c-.1342.0795-.2952.1325-.4293.2384-1.1539 0-2.3347.7947-3.3007 1.3245-3.3276 1.9867-6.682 3.9205-10.1973 5.5893-2.7372 1.298-5.9037 3.1788-9.0703 2.6225-.2683-.0265-.5098-.0795-.7782-.1589-2.925-.8742-3.3543-3.6026-2.8982-6.0662.4562-2.437.9661-4.8476 1.5028-7.2317.322-1.5099.644-3.0463.9661-4.5562.322-1.4569 2.0931-5.5098.966-6.7548-4.3472-4.6887-9.5532-9.4304-12.6392-15.1521-.0269-.0265-.0269-.0265-.0537-.0265-.483-.8742-.9124-1.8013-1.2613-2.7285-.483-1.2185-.483-1.8542.1342-2.7284.0805-.106.161-.2384.2684-.3444.6172-.7152 1.4491-1.139 2.3346-1.4304 3.8642-1.3245 7.97-1.9867 12.1294-2.543 2.764-.3709 5.528-.6888 8.2652-1.0596l1.7711-3.3112.5099-.9537.3756-.6887c.4026-.7152.8051-1.4569 1.1808-2.1721 2.4688-4.7417 4.6961-9.5893 7.8358-14.0131.1073-.1324.2147-.2384.2952-.3973.805-1.1126 1.7979-2.3311 3.2202-2.543 1.2612-.212 2.4688.4503 3.2739 1.2979 3.5153 3.7616 4.9913 9.7218 7.4601 14.172 1.0734 1.9868 2.1199 3.9205 3.1128 5.9602.6709 1.4305 1.4491 1.9867 2.925 2.5695 4.6157 1.8808 10.2778 1.8543 15.1618 2.4636 1.1539.1324 2.388.4238 3.515.5033 1.127.0794 1.986.2913 2.764 1.1125.403.3974.671.8477.859 1.2715.617 1.4835.081 3.1258-.993 4.7417z" fill="url(#f)"/></svg>