<svg fill="none" height="49" viewBox="0 0 57 49" width="57" xmlns="http://www.w3.org/2000/svg" xmlns:xlink="http://www.w3.org/1999/xlink"><linearGradient id="a" gradientUnits="userSpaceOnUse" x1="28.3636" x2="28.3636" y1="0" y2="48.6328"><stop offset="0" stop-color="#ffdf80"/><stop offset=".856897" stop-color="#e18127"/></linearGradient><path d="m55.8154 22.1325c-.605.8417-1.4637 1.649-2.3419 2.422l-.2537.2233c-.0196.0171-.0391.0171-.0391.0343-1.6003 1.3398-3.2592 2.5078-4.0399 3.1949-1.4247 1.2539-3.9618 2.6624-4.9181 4.2255-1.1905 1.9754-.078 5.3421.4489 7.4033.039.1374.0781.2748.0976.3951 0 .0171 0 .0171.0195.0171.5855 2.233 1.4637 4.4489 1.3466 6.7506-.0585 1.2882-1.0539 1.7005-2.42 1.2882-3.6496-1.0993-7.2601-2.1127-10.7535-3.4697-.566-.2233-1.132-.4466-1.6784-.6871l-3.9033-1.6661-.0585-.0344s0 0-.0196 0c-.0975.0515-.2146.0859-.3122.1546-.8392 0-1.6979.5153-2.4005.8588-2.42 1.2883-4.8596 2.5422-7.4162 3.6244-1.9907.8416-4.2936 2.0612-6.5966 1.7005-.1951-.0172-.3708-.0515-.5659-.1031-2.12731-.5668-2.43958-2.336-2.1078-3.9335.33178-1.5803.70259-3.1434 1.09292-4.6893.23419-.9791.46839-1.9753.70258-2.9544.2342-.9447 1.5223-3.5728.7026-4.3801-3.16166-3.0403-6.94783-6.115-9.19221-9.8252-.01951-.0172-.01951-.0172-.03903-.0172-.351294-.5668-.663556-1.168-.917269-1.7692-.351294-.7902-.3512937-1.2024.097582-1.7692.058549-.0687.117097-.1546.195163-.2233.448876-.4638 1.053884-.7386 1.697924-.9276 2.81035-.8588 5.79635-1.2883 8.82134-1.649 2.0102-.2404 4.0204-.4466 6.0111-.687l1.2881-2.1472.3708-.6183.2732-.4466c.2927-.4638.5855-.9448.8587-1.4085 1.7955-3.0747 3.4154-6.21808 5.6988-9.08662.0781-.08589.1561-.15459.2147-.25765.5855-.721434 1.3076-1.511572 2.3419-1.6489869.9173-.1374151 1.7955.2920069 2.381.8416679 2.5567 2.439119 3.6301 6.303929 5.4256 9.189689.7806 1.2882 1.5418 2.5421 2.2639 3.8648.4879.9275 1.0539 1.2882 2.1273 1.6661 3.3568 1.2196 7.4747 1.2024 11.0267 1.5975.8392.0859 1.7369.2748 2.5566.3263.8197.0516 1.4442.189 2.0102.7215.2928.2576.4879.5496.6245.8245.4489.9619.0586 2.0268-.7221 3.0746z" fill="#e3894b"/><path d="m55.8154 22.1325c-.605.8417-1.4637 1.649-2.3419 2.422l-.2537.2233c-.0196.0171-.0391.0171-.0391.0343-1.6003 1.3398-3.2592 2.5078-4.0399 3.1949-1.4247 1.2539-3.9618 2.6624-4.9181 4.2255-1.1905 1.9754-.078 5.3421.4489 7.4033.039.1374.0781.2748.0976.3951 0 .0171 0 .0171.0195.0171.5855 2.233 1.4637 4.4489 1.3466 6.7506-.0585 1.2882-1.0539 1.7005-2.42 1.2882-3.6496-1.0993-7.2601-2.1127-10.7535-3.4697-.566-.2233-1.132-.4466-1.6784-.6871l-3.9033-1.6661-.0585-.0344s0 0-.0196 0c-.0975.0515-.2146.0859-.3122.1546-.8392 0-1.6979.5153-2.4005.8588-2.42 1.2883-4.8596 2.5422-7.4162 3.6244-1.9907.8416-4.2936 2.0612-6.5966 1.7005-.1951-.0172-.3708-.0515-.5659-.1031-2.12731-.5668-2.43958-2.336-2.1078-3.9335.33178-1.5803.70259-3.1434 1.09292-4.6893.23419-.9791.46839-1.9753.70258-2.9544.2342-.9447 1.5223-3.5728.7026-4.3801-3.16166-3.0403-6.94783-6.115-9.19221-9.8252-.01951-.0172-.01951-.0172-.03903-.0172-.351294-.5668-.663556-1.168-.917269-1.7692-.351294-.7902-.3512937-1.2024.097582-1.7692.058549-.0687.117097-.1546.195163-.2233.448876-.4638 1.053884-.7386 1.697924-.9276 2.81035-.8588 5.79635-1.2883 8.82134-1.649 2.0102-.2404 4.0204-.4466 6.0111-.687l1.2881-2.1472.3708-.6183.2732-.4466c.2927-.4638.5855-.9448.8587-1.4085 1.7955-3.0747 3.4154-6.21808 5.6988-9.08662.0781-.08589.1561-.15459.2147-.25765.5855-.721434 1.3076-1.511572 2.3419-1.6489869.9173-.1374151 1.7955.2920069 2.381.8416679 2.5567 2.439119 3.6301 6.303929 5.4256 9.189689.7806 1.2882 1.5418 2.5421 2.2639 3.8648.4879.9275 1.0539 1.2882 2.1273 1.6661 3.3568 1.2196 7.4747 1.2024 11.0267 1.5975.8392.0859 1.7369.2748 2.5566.3263.8197.0516 1.4442.189 2.0102.7215.2928.2576.4879.5496.6245.8245.4489.9619.0586 2.0268-.7221 3.0746z" fill="url(#a)"/></svg>