<svg fill="none" height="148" viewBox="0 0 72 148" width="72" xmlns="http://www.w3.org/2000/svg"><path d="m60.2792 148-60.2792-143.96838 11.1133-4.03158015 60.2793 143.96796015z" fill="#6a290b"/><g fill="#1d1d1b"><path d="m12.1261 7.61928 1.8904-.68576-.4789-1.14383-1.8904.68577c-.123.0446-.1159.33607.0164.6522.1324.31612.3396.53623.4625.49162z"/><path d="m15.4373 13.9505 1.3175-.478-.4789-1.1438-1.3175.4779c-.123.0446-.1159.3361.0164.6522.1324.3162.3396.5363.4625.4917z"/><path d="m18.1753 20.4899 1.3175-.478-.4789-1.1438-1.3175.478c-.1229.0446-.1159.336.0165.6522.1323.3161.3395.5362.4624.4916z"/><path d="m20.9134 27.0292 1.3175-.478-.4789-1.1438-1.3175.478c-.123.0446-.1155.3371.0164.6522.1324.3161.3395.5362.4625.4916z"/><path d="m23.6514 33.569 1.3175-.478-.4789-1.1438-1.3175.478c-.123.0446-.1155.3371.0164.6522.1324.3161.3396.5362.4625.4916z"/><path d="m25.8162 40.3161 1.8904-.6858-.4789-1.1438-1.8904.6857c-.123.0446-.1155.3372.0169.6533.1319.3151.3391.5352.462.4906z"/><path d="m29.1275 46.6474 1.3175-.478-.4789-1.1438-1.3175.4779c-.123.0446-.1155.3372.0164.6522.1324.3162.3395.5363.4625.4917z"/><path d="m31.8655 53.1866 1.3175-.4779-.4789-1.1438-1.3175.4779c-.1229.0446-.1159.3361.0164.6522.1324.3161.3396.5362.4625.4916z"/><path d="m34.6036 59.726 1.3175-.478-.479-1.1438-1.3175.4779c-.1229.0446-.1159.3361.0165.6523.1324.3161.3395.5362.4625.4916z"/><path d="m37.3416 66.2654 1.3175-.478-.4789-1.1438-1.3175.478c-.123.0446-.1159.336.0164.6522.1324.3161.3395.5362.4625.4916z"/><path d="m39.5061 73.0129 1.8904-.6857-.4789-1.1438-1.8904.6857c-.1229.0446-.1159.3361.0165.6522.1323.3161.3395.5362.4624.4916z"/><path d="m42.8177 79.3441 1.3175-.4779-.4789-1.1438-1.3176.4779c-.1229.0446-.1159.3361.0165.6522s.3395.5362.4625.4916z"/><path d="m45.5555 85.8834 1.3175-.4779-.479-1.1438-1.3175.4779c-.1229.0446-.1159.3361.0165.6522s.3395.5362.4625.4916z"/><path d="m48.2935 92.4229 1.3175-.478-.4789-1.1438-1.3175.4779c-.123.0446-.1159.3361.0164.6522.1324.3162.3395.5363.4625.4917z"/><path d="m51.0315 98.9622 1.3175-.4779-.4789-1.1439-1.3175.478c-.1229.0446-.1159.336.0165.6522.1328.3172.3395.5362.4624.4916z"/><path d="m53.1963 105.71 1.8904-.686-.4789-1.144-1.8904.686c-.1229.045-.1155.337.0165.652.1328.317.3395.536.4624.492z"/><path d="m56.5076 112.041 1.3175-.478-.4789-1.144-1.3175.478c-.123.045-.1155.337.0164.652.1329.317.3396.537.4625.492z"/><path d="m59.2456 118.58 1.3175-.478-.4789-1.144-1.3175.478c-.1229.045-.1154.338.0165.653.1328.317.3395.536.4624.491z"/><path d="m61.9834 125.12 1.3175-.478-.4789-1.144-1.3175.478c-.1229.044-.1154.337.0165.652.1328.317.3395.536.4624.492z"/><path d="m64.7217 131.659 1.3175-.478-.4789-1.144-1.3175.478c-.1229.045-.1155.337.0165.652.1323.316.3395.537.4624.492z"/><path d="m66.8868 138.407 1.8903-.685-.4789-1.144-1.8904.686c-.1229.044-.1159.336.0165.652.1319.315.3395.536.4625.491z"/></g></svg>