<svg fill="none" height="323" viewBox="0 0 240 323" width="240" xmlns="http://www.w3.org/2000/svg" xmlns:xlink="http://www.w3.org/1999/xlink"><linearGradient id="a"><stop offset="0" stop-color="#cf5c2b"/><stop offset="1" stop-color="#59173e"/></linearGradient><linearGradient id="b" gradientUnits="userSpaceOnUse" x1="179.61" x2="46.6364" xlink:href="#a" y1="-159.878" y2="54.9022"/><linearGradient id="c" gradientUnits="userSpaceOnUse" x1="173.909" x2="-194.343" xlink:href="#a" y1="-57.7193" y2="394.708"/><linearGradient id="d" gradientUnits="userSpaceOnUse" x1="163.39" x2="-204.862" xlink:href="#a" y1="-20.0624" y2="432.366"/><linearGradient id="e" gradientUnits="userSpaceOnUse" x1="202.609" x2="-118.374" xlink:href="#a" y1="-210.829" y2="258.695"/><linearGradient id="f" gradientUnits="userSpaceOnUse" x1="177.141" x2="-143.844" xlink:href="#a" y1="-87.793" y2="381.73"/><linearGradient id="g" gradientUnits="userSpaceOnUse" x1="233.995" x2="-83.3548" xlink:href="#a" y1="-358.145" y2="87.0707"/><path d="m239.993 297.5c-.061-2.174-.112-4.329-.173-6.503-.091-3.605-.183-7.21-.274-10.796-.021-.873-.041-1.728-.061-2.601-.082-3.307.152-6.726-.783-9.736-.254-.799-.641-1.617-1.139-1.598.63-.39.976-1.635 1.139-2.806.223-1.654.335-3.79.345-5.5.011-1.542-.061-3.121-.091-4.664-.031-1.783-.071-3.549-.102-5.332-.071-3.568-.132-7.117-.193-10.684-.061-3.549-.122-7.098-.173-10.647-.01-.65-.02-1.301-.03-1.951-.031-1.821-.051-3.623-.051-5.444 0-1.394-.224-2.713-.722-3.791-.437-.947-1.128-1.598-1.799-1.393.538-.223 1.077-.632 1.474-1.338 1.047-1.914.864-4.813.844-7.265-.041-3.512-.072-7.042-.112-10.554-.031-3.512-.061-7.005-.082-10.517-.02-3.493-.04-6.986-.061-10.479-.02-3.475-.03-6.968-.04-10.443-.01-3.474-.021-6.949-.021-10.405 0-5.426.011-10.851.061-16.295.021-2.156.153-4.07-.66-5.779-.122-.26-.255-.483-.397-.688-.061-.092-.366-.576-.447-.52.569-.353 1.027-1.189 1.271-2.174.122-.483.203-1.022.213-1.579.031-1.319.051-2.657.061-3.995.031-4.329.071-8.844.132-13.248.031-2.341.071-4.682.112-7.024.041-2.1365-.468-3.9946-1.006-5.8712.488-.2973.823-1.152.955-2.0439.132-.8733.061-1.6908.082-2.5827.081-3.3446.111-6.7077.172-10.0708.031-1.6909.051-3.3817.082-5.0726.01-.4088 0-.8175.03-1.2263.021-.2416.071-.4645.071-.7247-.02-.7989-.172-1.6908-.345-2.4155-.214-.8919-.559-1.7094-1.037-2.1182.061-.2787.234-.3902.376-.5017.64-.5016 1.088-1.728 1.128-2.9915.011-.3158-.02-.6131-.03-.9104-.02-1.0034.041-2.0439.071-3.0473.02-1.0777.041-2.1554.071-3.233.102-4.478.204-8.956.315-13.434.224-8.7887.478-17.596.763-26.3847.183-5.5371-2.084-10.34951-5.114-10.79545-75.55-11.25997-151.2725-10.96268-227.15783.05574-.36601.05574-.72185.16723-1.07769.35303-.94551.4831-1.75886 1.52358-2.56204 2.52698-.42701.5389-.73201 1.5422-1.02685 2.304-.35584.9105-.70151 1.8581-1.03702 2.8057-1.006519 2.8986-2.0333702 6.0202-1.95203546 9.5877.11183546 4.3851.21350346 8.7702.30500546 13.1552.050834 2.2483.101668 4.5152.142336 6.7634.020333 1.1892.050834 2.3784.071168 3.5676.020333.8733-.010167 1.7837.061001 2.657.061001.7618-.030501 1.598-.040668 2.3784 0 .9104.030501 1.8395.091502 2.7499.040667.4831.091502.9848.223671 1.4307.42701 1.3936 1.49453 1.5422 2.1757 2.5456-.66084.1672-1.31152.5017-1.92153.9848-.0915.0743-.183002.1486-.233837.2973-.081334.1858-.081334.4459-.081334.6875.010166 2.3969.010166 4.7938.020333 7.1907 0 1.0034-.071168 2.0997.091502 3.0659.152506.9662.081335 2.1554.101666 3.1587.07117 4.6824.13217 9.3647.19317 14.0471.04067 2.88.07117 5.7415.10167 8.6215.01017 1.3565.05084 2.7125.05084 4.0695 0 .223-.02034.353-.05084.576-.1525.984.04067 2.044.32534 2.88.62018 1.783 1.72836 2.973 2.88738 3.084-.55917.372-1.11835.725-1.67753 1.096-.38634.261-.80318.539-1.01668 1.19-.122.353-.16267.78-.19317 1.207-.43717 5.593-.25417 11.279-.13217 16.909.122 5.611.122 11.223.14234 16.834.01016 4.72.02033 9.458.02033 14.177 0 4.738 0 9.476-.01017 14.215-.01016 3.4-.05083 6.819-.0305 10.219 0 .52.061.948 0 1.449-.17283 1.301-.20333 2.657.061 3.921.30501 1.468 1.02686 2.694 1.88087 2.936-.53884.241-1.12852.538-1.45386 1.356-.22367.557-.28467 1.263-.32534 1.951-.07117 1.152-.10167 2.304-.11183 3.475 0 .984.11183 2.062-.01017 3.028-.25417 2.007-.17284 4.125-.183 6.169-.02034 2.75-.05084 5.519-.07117 8.269-.04067 4.775-.0915 9.55-.1525 14.307-.05084 4.775-.12201 9.55-.18301 14.344 0 1.059-.0305 2.137-.04066 3.215-.01017.836.061 1.858-.040671 2.657-.040668.334-.111836.631-.142336.984-.071168.855-.101669 1.766.081335 2.583.213502.948.721842 1.672 1.281022 1.821-.50834-.204-.95568.725-1.05735 1.654-.0915.817-.04067 1.672-.14234 2.49-.040665.334-.060999.687-.091499 1.04-.050835.688-.091502 1.357-.132169 2.044-.071168 1.375-.101669 2.75-.101669 4.106 0 .242 0 .483.061001.688.050835.204.142336.353.244005.483.660841.966 1.443691 1.654 2.267211 2.007-.65068.39-1.30136.78-1.95204 1.17-.1525.093-.315171.186-.427007.39-.213503.372-.233837.985-.233837 1.524-.010167 1.189-.010167 2.397-.020334 3.586 0 .428-.081335.818-.091501 1.245-.020334.595-.020334 1.208-.030501 1.802-.050834 2.397-.091502 4.794-.142336 7.191 0 .167-.010167.335-.010167.502-.101668 4.812-.203337 9.625-.3151719 14.437-.1220022 5.5 2.1553749 10.22 5.1545949 10.628 76.78007 10.387 152.51237 10.48 227.17837.038 1.22-.168 2.399-1.097 3.304-2.602.193-.316.437-.613.61-.966 1.108-2.192 2.46-5.63 3.07-8.436.356-1.895.702-3.66.641-5.704z" fill="url(#b)"/><path d="m234.859 308.201c-74.665 10.461-150.3978 10.368-227.17784-.019-3.00939-.408-5.28676-5.128-5.16476-10.628.0305-1.226.04067-2.452.05083-3.679.02034-1.003-.04066-2.099.061-3.084.04067-.353.13217-.65.16267-1.004.0305-.334.05084-.687.06101-1.04.05083-.855.08133-1.691.122-2.546.122-2.397.25417-4.793.37617-7.19.01017-.223.02033-.446.0305-.651.02033-.371.05084-.78.17284-1.077.11183-.279.28467-.409.46767-.521 2.13504-1.542 4.50392-2.508 6.81181-2.471 2.5214.019 4.9004-.502 7.3913-1.152 1.0065-.26 2.013-.502 3.0094-.762h-1.0167c-2.2469-.018-4.5141-.167-6.7508-.501-1.2912-.186-2.5824-.428-3.87357-.725-.67102-.13-3.85324-.335-5.3681-1.338-.48801-.316-.81335-.706-.82352-1.226-.04066-1.895-.04066-3.791.02034-5.705.02033-.706-.08134-2.229.10167-2.842.25417-.818.122-.391.62018-.762.50834-.39.92518-.855 1.48435-1.059.56935-.205 1.14886-.298 1.73854-.409 2.07403-.39 4.14811-.762 6.23231-1.134-.5287-.055-1.0574-.111-1.5861-.185-2.42984-.26-4.86989-.539-7.2896-.818-.38634-.056-.77268-.093-1.15902-.13-.16267-.019-.34567-.074-.41684-.316-.0305-.111-.0305-.279-.0305-.409.07117-2.898.15251-5.815.22367-8.714.17284-7.135.34568-14.289.42701-21.442.0305-.985.04067-1.951.05084-2.917.061-6.095-.15251-12.282.2745-18.321.04067-.558.27451-6.633.26434-6.633 7.5438-1.004 15.1181-1.505 22.6924-1.487.5998 0 1.2099 0 1.8097.019-.1932-.037-.3965-.075-.5998-.093l-.0102-.019c-2.9789-.52-5.9679-1.096-8.9265-1.691-1.5962-.316-3.1924-.65-4.7683-1.077-1.2911-.335-2.562-.892-3.843-1.282-.4067-.131-.79304-.056-1.19971-.019-1.18952.056-2.47054-.818-3.62956-1.264-.09151-.037-.17284-.074-.27451-.111-.22367-.093-.44734-.26-.63034-.502-.40668-.576-.53885-1.542-.57951-2.508-.02034-.316-.02034-.65-.02034-.966 0-2.546-.14233-4.999-.22367-7.526-.0915-2.935.02034-5.871.02034-8.788.02033-7.098.02033-14.196.01016-21.294 0-1.654-.01016-3.307-.01016-4.942-.01017-5.445-.0305-10.87-.05084-16.296-.01017-1.876.0915-3.79-.20334-5.593-.305-1.802-.0915-4.199.0305-6.057.03051-.464.07117-.929.23384-1.301.15251-.297.37618-.483.58968-.594 1.67753-1.003 3.47706-.892 5.23596-1.022 1.7182-.112 3.4465-.502 5.1342-1.115.2339-.074.4779-.149.7117-.26-2.7349-.465-5.4799-.91-8.13347-2.193-.83369-.408-1.69787-.91-2.39938-1.802-.14234-.149-.27451-.334-.38634-.52-.65068-.985-1.12852-2.434-1.13869-3.976-.01016-.186.01017-.353.0305-.521.01017-.148.0305-.316.05084-.501.14233-.985.04066-2.1.0305-3.122l-.061-4.8496c-.0305-2.9543-.05084-5.9087-.09151-8.8816-.04066-2.8986-.05083-5.76-.2745-8.6401-.122-1.4307-.061-2.8986-.10167-4.3293-.05083-1.7652-.0305-3.5303.0915-5.2955.05084-.9476.15251-1.9324.38634-2.8057 0 0 0-.0186.01017-.0186.25417-.8919.67101-1.728 1.26069-1.6908.87435.0929 1.75886-.2416 2.63321-.3902 1.94187-.3531 3.89391-.6504 5.85611-.8733 3.9956-.4831 8.0115-.7247 12.0274-.8548 1.952-.0557 3.9142-.0743 5.8662-.0929h.2847c1.7589-.0185 3.5381-.1114 5.2969.0372-3.7719-.353-7.5438-.8176-11.3157-1.4121-1.952-.3159-3.9142-.669-5.8662-1.0406-3.3348-.6503-6.8016-.576-10.0652-1.152-1.81987-.3344-3.66007-.5202-5.47993-.576-.10167-.0186-.20334-.0186-.30501-.0186-.122-.0185-.25417-.0185-.33551-.1672-.08133-.1115-.10166-.3159-.122-.5017-.29484-3.6232-.51851-7.358-.56934-10.9812-.05084-2.9915-.0915-6.0016-.16267-8.9931-.0915-5.277-.20334-10.5353-.33551-15.8123-.13217-5.4999 2.13504-10.21943 5.12409-10.64679 75.88538-11.01842 151.60818-11.29713 227.16818-.03717 3.019.44594 5.287 5.25836 5.104 10.79546-.244 7.3022-.458 14.6045-.651 21.9068-.081 3.1773-.163 6.3732-.244 9.5691-.051 1.9138-.081 3.8648-.132 5.7972-.031 1.0033-.051 1.8766-.214 2.8243-.284 1.6722-.223 3.4932-.447 5.2026-.081.5388-.173 1.1148-.397 1.505-.223.3717-.528.5203-.823.6504-.031.0185-.051.0185-.081.0371-3.427 1.4865-6.914 2.4341-10.432 2.88-.65.0929-1.291.1301-1.941.1859 4.056.7246 8.123 1.4678 12.179 2.1925.377.0743.783.1672 1.048.6503.203.3716.284.9105.355 1.4122.072.5202.122 1.0405.163 1.5607.163 1.821.163 3.6419.163 5.5185-.122 3.4932-.295 6.9121-.692 10.3496-.183 1.6351-.752 1.7466-1.372 1.5607-.386-.13-.813-.3902-1.149-.4831-.956-.2415-1.921-.4273-2.898-.5574-1.931-.2973-3.883-.353-5.825-.3716-1.261 0-2.532.0372-3.792.0743-5.267.1301-10.533.2787-15.789.3902.061.0372.142.0558.203.0929 5.907 2.3226 12.088 1.0777 18.097 2.5084 2.42.576 4.839 1.5794 7.279 1.3193.905-.0929 1.841-.3902 2.725.0743.803.3902 1.271 1.4679 1.698 2.6756.457 1.3007.6 2.9547.661 4.5897.051.929.051 1.876.081 2.731.163 5.203-.051 10.387-.224 15.571-.04.91-.061 1.839-.091 2.75-.02.669-.051 1.375-.295 1.877-.173.334-.427.501-.681.631-.01 0-.031.019-.041.019-.528.26-1.128.464-1.677.39-.183-.019-.346-.093-.519-.093-.661.112-1.342.52-2.013.706-.651.167-1.301.279-1.962.297.264.112.518.223.783.335 1.81.762 3.619 1.542 5.429 2.304.234.093.488.223.661.502.711 1.207.539 5.314.61 6.893.132 3.01.193 6.039.213 9.068.021 1.449.021 2.88.021 4.31 0 2.509-.021 4.999-.041 7.507-.01 1.747-.02 3.493-.031 5.24-.03 7.302-.081 14.604-.111 21.906-.021 3.252-.031 6.504-.031 9.755 0 3.494.254 9.477-.732 12.598-.274.892-.762 1.412-1.322 1.71-.488.278-1.026.371-1.525.446-8.225.984-16.439 2.006-24.664 3.01-.041 0-.082.018-.122.018h-.041c-.031.019-.051.019-.071.019.173 0 .356.018.528.018 9.273.335 18.545 1.338 27.766 2.973.437.093.569 1.821.641 2.379.213 1.765.315 3.586.386 5.388.02.297.041.632.051.929.244 5.779.305 11.576.345 17.355v.297c.011.557.021 1.096.031 1.654.01.65.02 1.282.03 1.895.031 3.344.143 7.023-.05 10.312-.061 1.022-.173 2.044-.366 3.029-.082.446-.163 1.04-.326 1.393-.447 1.004-1.047 1.58-1.698 1.97-.223.149-.457.279-.681.372-1.525.743-3.07 1.337-4.636 1.802.163.056.305.093.468.167 1.637.539 3.284 1.115 4.931 1.71.589.204 1.21.52 1.698 1.226.254.372.457.855.599 1.375.183.669.285 1.356.366 2.081.021.26.041.502.051.743.163 2.434-.051 4.831.092 7.247.081 1.245.132 2.471.162 3.716.061 2.397.122 4.812.183 7.209.051 2.156.112 4.311.163 6.485.193 5.556-2.094 10.312-5.104 10.721z" fill="url(#c)"/><path d="m239.047 50.6359c-.051 1.9138-.081 3.8648-.132 5.7972-.031 1.0034-.051 1.8767-.214 2.8243-.284 1.6723-.223 3.4932-.447 5.2026-.081.5388-.173 1.1149-.396 1.5051-.224.3716-.529.5202-.824.6503-.031.0186-.051.0186-.081.0371-3.427 1.4865-6.914 2.4341-10.432 2.8801-.65.0929-1.291.13-1.941.1858 4.056.7246 8.123 1.4679 12.179 2.1925.377.0743.783.1672 1.048.6503.203.3717.284.9105.356 1.4122.071.5202.122 1.0405.162 1.5608-5.287-.6318-10.584-.9105-15.992-.9848-38.685-.5203-77.319 3.4746-115.76 11.4086-19.2154 3.9577-38.4002 8.1198-57.6765 10.9441-14.8233 2.1739-30.0532 5.2959-45.06967 5.0909.01017-.148.0305-.316.05083-.501.14234-.985.04067-2.1001.03051-3.122l-.06101-4.8496c6.18144-1.0034 12.36294-1.598 18.58504-2.4341 10.9598-1.4865 21.8994-3.2145 32.8389-5.2398 38.9898-7.2093 77.7259-17.2244 116.9089-20.699 2.857-.2416 5.713-.4831 8.58-.6875-7.309-.7432-14.63-1.4679-21.94-2.0253-9.8-.7618-19.642-1.7466-29.453-1.6165-10.228.1672-20.425 1.5236-30.6428 2.0253-20.3032 1.0033-40.5759 3.1401-60.8994 3.6232-10.055.2416-20.4761 1.3564-30.41924-1.728-1.17935-.3716-2.35871-.7618-3.53806-1.1892.25417-.8918.67101-1.728 1.26069-1.6908.87435.0929 1.75886-.2416 2.63321-.3902 1.94187-.353 3.8939-.6503 5.8561-.8733 3.9956-.4831 8.0115-.7246 12.0274-.8547 1.952-.0558 3.9142-.0743 5.8663-.0929h.2846c1.7589-.0186 3.5381-.1115 5.297.0371-3.7719-.353-7.5438-.8175-11.3157-1.4121-1.9521-.3159-3.9143-.6689-5.8663-1.0405-3.3347-.6504-6.8016-.576-10.0652-1.152-1.81986-.3345-3.66006-.5203-5.47993-.576-.10167-.0186-.20333-.0186-.305-.0186-.122-.0186-.25417-.0186-.33551-.1672-.08133-.1115-.10167-.3159-.122-.5017-.29484-3.6233-.51851-7.358-.56934-10.9813-.05084-2.9915-.09151-6.0016-.16267-8.9931 3.46689-.8175 6.95412-1.4865 10.45155-1.7837 11.4783-.9848 23.0075-.7619 34.4961-1.7838 19.8965-1.7466 40.0675-4.4966 59.9842-2.304 19.765 2.1739 39.448 6.6147 59.151 9.9779 20.567 3.5117 41.155 6.7076 61.733 9.9964 3.447.5389 6.903 1.1149 10.36 1.6909zm-.844 168.5091c-.071-.557-.203-2.304-.64-2.378-9.232-1.635-18.494-2.639-27.766-2.973-.173 0-.356-.019-.529-.019.031 0 .051 0 .071-.018h.041c.041 0 .082-.019.122-.019 8.225-1.003 16.44-2.025 24.665-3.01.498-.074 1.037-.167 1.525-.446.559-.297 1.037-.817 1.322-1.709.986-3.122.732-9.105.732-12.598 0-3.252.01-6.503.03-9.755-37.881-2.1-75.743-5.165-113.523-10.034 1.607-.706 3.223-1.412 4.829-2.099 14.366-6.076 28.823-9.365 43.545-10.684 21.777-1.914 43.667-.149 65.292-4.348.02-2.509.04-4.998.04-7.507-22.367 1.301-44.775-.353-67.132.911-14.091.817-28.03 3.549-41.867 8.491-10.37 3.698-20.669 8.213-31.0797 11.502-13.2169-2.007-26.4338-4.255-39.6507-6.801-9.994-1.914-19.9778-4.032-29.9413-6.373-.5287-.112-1.0574-.205-1.5861-.316 5.724-2.676 11.5496-4.682 17.3447-6.299 15.8298-4.496 31.9239-6.503 47.8757-9.086 34.2114-5.5 68.4944-9.885 102.7764-13.75 14.396-1.635 28.762-3.028 42.823-8.287.163-5.184.386-10.368.224-15.57-.031-.874-.041-1.803-.082-2.732-12.373-2.936-24.888-2.675-37.454-1.709-17.457 1.356-34.903 2.935-52.339 5.165-34.364 4.404-68.9925 8.436-103.1328 17.095-14.0709 3.567-27.6335 9.457-40.54536 19.435 0 1.654.01016 3.307.01016 4.943.01017 7.097.01017 14.195-.01016 21.293 0 2.917-.11184 5.853-.02034 8.789.08134 2.527.22367 4.98.22367 7.525 0 .316 0 .65.02034.966 3.19239 1.487 6.49659 2.453 9.63819 3.642 8.9468 3.419 17.9445 5.779 27.0031 8.027 18.4325 4.552 36.8955 8.547 55.4093 11.836 36.4279 6.485 73.0789 9.699 109.6499 12.282 10.827.743 21.665 1.412 32.503 1.988-.102-1.784-.203-3.605-.417-5.37zm.763 50.893c-.143-.52-.346-1.003-.6-1.375-.488-.706-1.108-1.022-1.698-1.226-1.647-.576-3.294-1.152-4.931-1.71-.163-.074-.305-.111-.468-.167 1.566-.464 3.111-1.059 4.636-1.802.224-.093.458-.223.682-.372.65-.39 1.26-.966 1.698-1.969.162-.354.244-.948.325-1.394.183-.985.295-2.007.366-3.029.193-3.307.081-6.968.051-10.312-.01-.632-.021-1.264-.031-1.895-30.175 2.025-60.299 3.158-90.495.427-33.144-2.991-66.2878-8.733-99.33-14.214-9.445-1.561-18.8595-3.345-28.3045-4.571-5.4698-.706-11.34623-1.784-17.11084-1.728-.08133 7.135-.25417 14.307-.42701 21.442 4.04641 1.988 8.21485 3.382 12.05785 4.552 8.4995 2.583 16.9888 4.627 25.5595 6.151 16.7651 3.028 33.5506 5.5 50.3462 8.101 9.5768 1.505 19.1648 2.936 28.7418 4.273-6.975 1.097-13.949 2.1-20.954 2.806-18.0055 1.858-35.9906 4.813-54.0164 6.392-13.9388 1.245-27.8165.632-41.71461-.019-.01017.205-.02034.428-.0305.651-.122 2.397-.25417 4.794-.37618 7.19-.04066.855-.07116 1.691-.122 2.546 13.27789 4.236 27.02349 4.032 40.44369 2.954 18.0462-1.449 35.9297-4.831 53.7928-9.532 18.8292-4.979 38.1362-6.726 57.1382-8.844.345-.037.701-.074 1.037-.093 12.413 1.078 24.837 1.709 37.292 1.691 15.616-.037 31.212-.706 46.767-2.843-.03-.725-.132-1.431-.325-2.081z" fill="url(#d)"/><path d="m53.7551 290.998c-1.3522 1.227-2.5823 1.766-3.8227 1.654.3457.446.6608.948.8947 1.709.427 1.394.4677 3.066 0 4.441-.9557 2.787-2.9586 2.602-4.4938 1.765-1.5047-.817-2.7552-4.087-2.7145-6.93.0305-2.118.915-3.586 2.0435-3.809-.9862-1.152-1.9317-2.527-2.7349-3.977-2.196-3.957-3.7515-10.888-2.7145-16.351.4778-2.527 2.1249-4.849 3.7109-3.753 1.9317 1.338 3.6296 3.326 5.3884 5.351.4677.539.9252 1.097 1.4234 1.561.244.223 1.159.911.4778.409 1.9114 1.431 3.2128 2.954 4.2396 6.243 1.22 3.846.6608 9.569-1.6979 11.687zm-16.5719-32.943c-.0915-.261-.1729-.521-.244-.799-.2847-.874-.6812-1.561-1.1692-2.081-.5084-.521-1.0574-.781-1.647-.799-.6609.13-1.0066.223-1.5454.668-.4982.335-.8032.799-1.1387 1.598-.5693 1.375-.7218 3.494-.4575 5.073.2033 1.226.5998 2.23 1.1692 3.01.5388.743 1.2708 1.338 1.9724 1.245.4371-.056.8845-.13 1.3216-.334 1.7386-.818 2.7654-4.813 1.7386-7.581zm161.5108-39.206c-.437-2.861-1.983-4.905-3.64-4.924-.58-.018-1.078-.297-1.728-.297-1.037 0-1.932.78-2.857 1.468-1.515 1.133-2.918 2.62-3.701 5.314-.742 2.564-.58 6.15.702 8.064-.194.353-.387.687-.611 1.04-.935 1.431-.223 4.831 1.058 4.571.437-.093.874.13 1.311.149.621.019 1.19-.204 1.769-.557.468-.298.966-.539 1.414-.911.335-.279.589-.594.813-1.115.071-.167.59-1.561.264-.985.153-.278.254-.613.295-.947 1.078-.539 1.901-1.338 2.664-2.601.173-.223.335-.446.508-.669 1.373-1.821 2.217-4.515 1.739-7.6zm-4.83-13.304c-.325-.148-.711-.409-1.047-.334-.366.093-.752.539-1.088.836-.376.316-.508 1.245-.345 1.895.173.706.579 1.041 1.006.873.326-.13.742-.167 1.037-.483.275-.278.468-.873.661-1.3.224-.502.183-1.301-.224-1.487zm7.992-18.079c-.092-.409-.194-.817-.285-1.226-2.135-2.676-3.853-2.955-5.145-.836-.264.446-.508.947-.681 1.505-.752 2.359-.417 5.834 1.007 7.172.742.706 1.596 1.003 2.42.557.427-.223.843-.613 1.26-.929.214-.278.417-.576.631-.854.305-.502.518-1.097.64-1.784.244-1.041.407-2.509.153-3.605zm-8.5-112.0607c-.152-1.1892-.305-2.304-.732-3.2888-.468-1.0777-1.139-1.728-1.779-2.4341-.529-.576-1.037-1.2078-1.637-1.5422-.62-.3716-1.342-.3716-1.993-.4274-1.128-.1115-1.86 1.1892-2.125 2.8243-1.626-2.6756-4.127-4.2178-6.089-4.9796-2.115-.8362-7.412-.4646-6.985 5.63.346 4.7938 2.298 7.6552 4.514 10.1079 2.145 2.3783 4.026 4.1993 6.253 3.7347 1.83.3902 4.066.8733 4.941-2.8428.244-1.022.284-1.9882.213-2.9172.448.5946.895 1.2078 1.454 1.4679.773.3716 1.566.0186 2.338-.1858 1.271-.3531 1.881-3.1773 1.627-5.1469zm-25.488 3.1587c-.468-.8175-.915-1.7094-1.454-2.3783-.661-.8176-1.322-.9476-2.084-1.1892-.651-.2044-1.352-.576-2.003-.4459-.651.13-1.118.9104-1.586 1.6537-.244.3902-.325 1.0777-.244 1.6165.152.929.305 1.9324.701 2.6385.499.8918 1.373 1.2635 2.024 1.728.65.4645 1.23.9662 1.941.9476.702-.0186 1.444-.4274 2.135-.6875.956-.3716 1.241-2.7128.57-3.8834zm24.116 27.853c-.092-1.264-.509-2.193-.997-3.066-.681-1.208-1.525-1.524-2.409-1.97-.722-.353-1.515.149-1.963 1.189-.477 1.097-.488 2.472-.142 3.698.122.446.254.892.376 1.356.275 1.004.651 1.728 1.17 2.379.508.631 1.047 1.077 1.677 1.133.702.056 1.454-.557 1.881-1.542.407-.948.498-2.007.407-3.177zm-46.483 106.988c-3.03-3.103-8.073-2.137-10.472 2.025-1.515 2.639-1.586 7.544 0 10.164 3.497 5.76 9.648 3.307 11.875-3.828.04-.074.081-.148.132-.204 1.677-2.806.478-7.47-1.535-8.157zm-16.572-4.552c-.854-.818-1.546-1.468-2.552-1.097-.661.242-1.332.614-1.962 1.022-.824.521-1.393 1.821-1.261 3.438.142 1.653.834 2.508 1.728 2.713.671.148 1.383.26 2.064.241.997-.056 1.586-1.04 2.298-2.118.712-1.115.488-3.419-.315-4.199zm-93.098-156.7852c-1.3624-3.5118-4.2701-2.8429-6.0086-.7061-.7015.8547-1.525 1.9324-2.1351 3.0287-.5388.9476-.8031 2.081-.9658 3.3631-.0407.5203-.0813 1.0405-.1118 1.5422.0711-.5946.0711-.5388-.0102.1673-.3152 2.8057.6812 5.3512 2.3384 5.4627h.2236c.0305.0186.061.0372.1017.0558.9557.4273 1.8707.1672 2.7451-.6318.5795-.5388 1.1691-1.1892 1.7182-1.8209 1.8605-2.1554 3.5888-6.6334 2.1045-10.461zm-11.4275 2.2483c-.7626.4088-1.4946.8733-2.0029 2.0253-.4372.9662-.8337 1.9695-1.1794 3.0472-.5388 1.6909-.2541 4.1436.7524 5.0726 1.037.9848 2.2164.4088 2.8569-1.3378.1321-.3531.2643-.6875.3965-1.0405.0101-.0186.0203-.0372.0305-.0744.0915-.1858.1728-.3716.2643-.5388.3457-.6875.5897-1.3378.7524-2.2483.0711-.3902.1423-.799.2338-1.1892.4677-2.1739-.9455-4.3293-2.1045-3.7161zm22.611-16.5369c-.549-.1673-1.2098-.3159-1.708.2601-.3457.3902-.5999 1.0034-.8744 1.5422-.3863.7804-.549 1.9881-.2135 2.9172.3457.9476.9151 1.3192 1.5251 1.1148.3863-.13.8641-.1858 1.1996-.5574.5084-.576.7626-1.4865.9659-2.4527.244-1.0962-.2542-2.6384-.8947-2.8242zm55.7655 83.4468c.061-.186.122-.372.162-.576.6-2.509.438-5.407-1.016-6.931-.204-.204-.407-.372-.61-.539-1.4847-2.174-3.1317-2.768-5.1143-2.508-1.9317.26-3.6295 2.006-5.3681 3.4-2.4095 1.932-3.111 7.897-2.1757 11.836.2847 1.208.7015 2.23 1.1895 3.084-1.4945 1.189-2.8568 2.602-3.9345 3.939-.5897.725-1.0269 1.543-1.3522 2.416-1.281 2.025-1.8097 4.757-.5694 8.436 2.3384 6.967 9.079 5.128 12.5866 2.731 2.1249-1.449 4.5551-3.493 5.6631-7.246 1.25-4.2.325-9.254-1.912-11.576 1.2-1.487 2.105-3.549 2.451-6.466zm-23.6586 16.258c-.5897-.242-.9252.278-1.4132.687-.0101.019-.0711.056-.1118.093-.0508.037-.1423.093-.1525.093-.1728.093-.3457.186-.5185.242-.7625.297-1.1285 1.913-.8439 3.121.3152 1.338 1.1489 1.728 1.8504 1.115.3965-.353.7625-.799 1.1082-1.301.4067-.576.8743-1.319.8235-2.341-.0407-.762-.2847-1.523-.7422-1.709zm-7.5641-8.213c-.1017-.093-.2135-.149-.3152-.242-1.6368-2.266-4.1074-.966-5.5206 1.375-1.0573 1.747-1.9215 3.902-2.1554 6.467-.1626 1.839-.0508 3.53.7321 4.905.6811 1.208 1.8198 1.877 2.7552 1.301 2.2062-1.357 5.2156-4.125 5.5002-8.585.0305-.167.061-.316.0915-.483.3254-1.561-.2135-4.032-1.0878-4.738zm153.6717 161.077c-.193-1.561-.864-2.973-1.627-3.772-1.403-1.468-3.121-.91-4.29.985-.6.966-1.189 1.932-1.789 2.917-1.2 1.951-1.21 5.444-.254 7.637.986 2.285 2.785 2.954 4.219 1.505.701-.725 1.413-1.431 2.114-2.156 1.414-1.449 1.963-4.403 1.627-7.116z" fill="#eb924d"/><path d="m54.4758 288.265c-1.3522 1.227-2.5824 1.766-3.8228 1.654.3457.446.6609.948.8947 1.71.427 1.393.4677 3.065 0 4.44-.9557 2.787-2.9585 2.602-4.4937 1.766-1.5047-.818-2.7553-4.088-2.7146-6.931.0305-2.118.915-3.586 2.0436-3.809-.9862-1.152-1.9317-2.527-2.7349-3.976-2.1961-3.958-3.7516-10.889-2.7146-16.352.4779-2.527 2.1249-4.849 3.7109-3.753 1.9317 1.338 3.6296 3.326 5.3884 5.351.4677.539.9252 1.097 1.4234 1.561.244.223 1.159.911.4778.409 1.9114 1.431 3.2128 2.954 4.2396 6.243 1.22 3.846.6507 9.569-1.6978 11.687zm-16.572-32.943c-.0915-.26-.1728-.521-.244-.799-.2847-.874-.6812-1.561-1.1692-2.081-.5083-.521-1.0573-.781-1.647-.799-.6609.13-1.0065.223-1.5454.669-.4982.334-.8032.799-1.1387 1.597-.5693 1.375-.7218 3.494-.4575 5.073.2034 1.226.5999 2.23 1.1692 3.01.5389.743 1.2709 1.338 1.9724 1.245.4372-.056.8845-.13 1.3217-.334 1.7385-.799 2.7654-4.794 1.7385-7.581zm161.1752-37.942c-.437-2.862-1.983-4.906-3.64-4.924-.579-.019-1.078-.298-1.728-.298-1.037 0-1.932.781-2.857 1.468-1.515 1.134-2.918 2.62-3.701 5.314-.742 2.565-.579 6.151.702 8.064-.194.354-.387.688-.61 1.041-.936 1.431-.224 4.831 1.057 4.571.437-.093.874.13 1.312.149.62.018 1.189-.205 1.769-.558.467-.297.965-.539 1.413-.91.335-.279.589-.595.813-1.115.071-.167.59-1.561.264-.985.153-.279.255-.613.295-.948 1.078-.538 1.901-1.337 2.664-2.601.173-.223.335-.446.508-.669 1.373-1.802 2.217-4.496 1.739-7.599zm-4.829-13.304c-.326-.149-.712-.409-1.048-.335-.366.093-.752.539-1.087.836-.377.316-.509 1.245-.346 1.896.173.706.579 1.04 1.006.873.326-.13.743-.167 1.037-.483.275-.279.468-.873.661-1.301.224-.483.173-1.3-.223-1.486zm7.991-18.061c-.092-.409-.193-.817-.285-1.226-2.135-2.676-3.853-2.954-5.144-.836-.265.446-.509.947-.682 1.505-.752 2.36-.416 5.834 1.007 7.172.742.706 1.596 1.003 2.42.557.427-.223.844-.613 1.26-.929.214-.278.417-.576.631-.854.305-.502.518-1.097.64-1.784.244-1.059.397-2.527.153-3.605zm-8.174-113.3241c-.153-1.1892-.305-2.304-.732-3.2888-.468-1.0777-1.139-1.728-1.78-2.4341-.528-.576-1.037-1.2077-1.636-1.5422-.621-.3716-1.343-.3716-1.993-.4273-1.129-.1115-1.861 1.1891-2.125 2.8242-1.627-2.6756-4.128-4.2178-6.09-4.9796-2.115-.8362-7.412-.4645-6.985 5.63.346 4.7938 2.298 7.6553 4.514 10.1079 2.135 2.3784 4.027 4.1993 6.253 3.7348 1.83.3902 4.067.8733 4.941-2.8429.244-1.0219.285-1.9881.214-2.9172.447.5946.894 1.2078 1.454 1.4679.772.3716 1.565.0186 2.338-.1858 1.281-.3716 1.891-3.1959 1.627-5.1469zm-25.489 3.1402c-.467-.8176-.915-1.7095-1.454-2.3784-.66-.8175-1.321-.9476-2.084-1.1891-.65-.2044-1.352-.5761-2.003-.446-.65.1301-1.118.9105-1.586 1.6537-.244.3902-.325 1.0777-.244 1.6165.153.9291.305 1.9324.702 2.6385.498.8919 1.372 1.2635 2.023 1.728s1.23.9662 1.942.9476c.701-.0185 1.444-.4273 2.135-.6874.966-.3717 1.25-2.7128.569-3.8834zm24.126 27.8529c-.091-1.264-.508-2.193-.996-3.066-.681-1.2079-1.525-1.5238-2.41-1.9697-.722-.353-1.515.1486-1.962 1.1892-.478 1.0965-.488 2.4715-.142 3.6975.122.446.254.892.376 1.356.274 1.004.651 1.728 1.169 2.379.508.632 1.047 1.077 1.678 1.133.711.056 1.454-.557 1.881-1.542.406-.948.498-2.007.406-3.177zm-46.483 106.988c-3.029-3.103-8.072-2.137-10.471 2.025-1.515 2.639-1.586 7.544 0 10.164 3.497 5.76 9.648 3.307 11.874-3.828.041-.074.082-.148.133-.204 1.677-2.806.467-7.451-1.536-8.157zm-16.572-4.552c-.854-.818-1.545-1.468-2.551-1.097-.661.242-1.332.614-1.963 1.022-.823.521-1.393 1.821-1.26 3.438.142 1.653.833 2.508 1.728 2.713.671.148 1.383.26 2.064.241.996-.056 1.586-1.04 2.298-2.118.711-1.115.488-3.419-.316-4.199zm-93.3922-155.7075c-1.3624-3.5117-4.2701-2.8428-6.0086-.706-.7015.8547-1.5251 1.9324-2.1351 3.0286-.5388.9476-.8032 2.0811-.9658 3.3632-.0407.5202-.0814 1.0405-.1119 1.5422.0712-.5946.0712-.5389-.0101.1672-.3152 2.8057.6812 5.3513 2.3383 5.4627h.2237c.0305.0186.061.0372.1017.0558.9557.4273 1.8707.1672 2.745-.6318.5795-.5388 1.1692-1.1891 1.7182-1.8209 1.8707-2.1554 3.5991-6.6147 2.1046-10.461zm-11.4276 2.2483c-.7625.4088-1.4945.8733-2.0028 2.0253-.4372.9662-.8337 1.9696-1.1794 3.0473-.5388 1.6908-.2542 4.1435.7524 5.0725 1.037.9848 2.2163.4088 2.8568-1.3378.1322-.353.2644-.6875.3965-1.0405.0102-.0186.0204-.0372.0306-.0743.0915-.1859.1728-.3717.2643-.5389.3457-.6875.5897-1.3378.7523-2.2483.0712-.3902.1424-.7989.2339-1.1891.4676-2.174-.9354-4.3294-2.1046-3.7162zm22.6213-16.5369c-.549-.1672-1.2099-.3159-1.7081.2601-.3456.3902-.5998 1.0034-.8743 1.5422-.3863.7804-.549 1.9882-.2135 2.9172.3457.9476.915 1.3192 1.525 1.1149.3864-.1301.8642-.1858 1.1997-.5575.5083-.576.7625-1.4864.9659-2.4526.2338-1.0777-.2542-2.6385-.8947-2.8243zm56.0495 82.3691c.061-.186.122-.372.163-.576.6-2.509.437-5.407-1.017-6.931-.203-.204-.406-.372-.61-.539-1.484-2.174-3.1311-2.768-5.1137-2.508-1.9317.26-3.6295 2.006-5.368 3.4-2.4096 1.932-3.1111 7.897-2.1758 11.836.2847 1.208.7016 2.23 1.1896 3.084-1.4946 1.19-2.8569 2.602-3.9346 3.94-.5897.724-1.0268 1.542-1.3522 2.415-1.281 2.025-1.8097 4.757-.5693 8.436 2.3383 6.968 9.079 5.128 12.5865 2.731 2.1249-1.449 4.5545-3.493 5.6625-7.246 1.251-4.2.326-9.254-1.911-11.576 1.19-1.487 2.105-3.549 2.45-6.466zm-23.963 17.41c-.5896-.242-.9251.279-1.4131.687-.0102 0-.0712.056-.1119.093-.0508.037-.1423.093-.1525.093-.1728.093-.3457.186-.5185.242-.7625.297-1.1285 1.913-.8438 3.121.3151 1.338 1.1488 1.728 1.8503 1.115.3965-.353.7625-.799 1.1082-1.301.4067-.576.8744-1.319.8235-2.341-.0406-.762-.2847-1.523-.7422-1.709zm-7.5641-8.213c-.1017-.093-.2135-.149-.3152-.241-1.6368-2.267-4.1074-.967-5.5206 1.375-1.0573 1.746-1.9215 3.901-2.1553 6.466-.1627 1.839-.0509 3.53.732 4.905.6812 1.208 1.8198 1.877 2.7552 1.301 2.2062-1.357 5.2156-4.125 5.5003-8.585.0305-.167.061-.316.0915-.483.3253-1.561-.2135-4.032-1.0879-4.738zm153.9671 159.925c-.194-1.561-.865-2.973-1.627-3.772-1.403-1.468-3.121-.91-4.29.985-.6.966-1.19 1.932-1.79 2.917-1.2 1.951-1.21 5.463-.254 7.637.986 2.285 2.786 2.954 4.219 1.505.702-.725 1.413-1.431 2.115-2.155 1.423-1.45 1.972-4.404 1.627-7.117z" fill="url(#e)"/><path d="m53.7551 290.032c-1.3522 1.226-2.5823 1.765-3.8227 1.654.3457.446.6608.947.8947 1.709.427 1.394.4677 3.066 0 4.441-.9557 2.787-2.9586 2.601-4.4938 1.765-1.5047-.817-2.7552-4.088-2.7145-6.931.0305-2.118.915-3.586 2.0435-3.809-.9862-1.152-1.9317-2.527-2.7349-3.976-2.196-3.958-3.7515-10.888-2.7145-16.351.4778-2.527 2.1249-4.85 3.7109-3.753 1.9317 1.338 3.6296 3.326 5.3884 5.351.4677.539.9252 1.096 1.4234 1.561.244.223 1.159.91.4778.409 1.9114 1.43 3.2128 2.954 4.2396 6.243 1.22 3.827.6608 9.569-1.6979 11.687zm-16.5719-32.962c-.0915-.26-.1729-.521-.244-.799-.2847-.874-.6812-1.561-1.1692-2.081-.5084-.521-1.0574-.781-1.647-.799-.6609.13-1.0066.223-1.5454.669-.4982.334-.8032.799-1.1387 1.598-.5693 1.374-.7218 3.493-.4575 5.072.2033 1.226.5998 2.23 1.1692 3.01.5388.743 1.2708 1.338 1.9724 1.245.4371-.056.8845-.13 1.3216-.334 1.7386-.799 2.7654-4.794 1.7386-7.581zm161.5108-38.741c-.437-2.862-1.983-4.906-3.64-4.924-.58-.019-1.078-.298-1.728-.298-1.037 0-1.932.781-2.857 1.468-1.515 1.134-2.918 2.62-3.701 5.314-.742 2.565-.58 6.151.702 8.065-.194.353-.387.687-.611 1.04-.935 1.431-.223 4.831 1.058 4.571.437-.093.874.13 1.311.149.621.018 1.19-.205 1.769-.558.468-.297.966-.539 1.414-.91.335-.279.589-.595.813-1.115.071-.167.59-1.561.264-.985.153-.279.254-.613.295-.948 1.078-.538 1.901-1.337 2.664-2.601.173-.223.335-.446.508-.669 1.373-1.821 2.217-4.515 1.739-7.599zm-4.83-13.304c-.325-.149-.711-.409-1.047-.335-.366.093-.752.539-1.088.837-.376.315-.508 1.244-.345 1.895.173.706.579 1.04 1.006.873.326-.13.742-.167 1.037-.483.275-.279.468-.873.661-1.301.224-.501.183-1.3-.224-1.486zm7.992-18.079c-.092-.409-.194-.818-.285-1.227-2.135-2.675-3.853-2.954-5.145-.836-.264.446-.508.948-.681 1.505-.752 2.36-.417 5.835 1.007 7.172.742.707 1.596 1.004 2.42.558.427-.223.843-.613 1.26-.929.214-.279.417-.576.631-.873.305-.502.518-1.097.64-1.784.244-1.022.407-2.49.153-3.586zm-8.5-112.5071c-.152-1.1891-.305-2.304-.732-3.2888-.468-1.0776-1.139-1.728-1.779-2.434-.529-.576-1.037-1.2078-1.637-1.5422-.62-.3717-1.342-.3717-1.993-.4274-1.128-.1115-1.86 1.1892-2.125 2.8243-1.626-2.6757-4.127-4.2179-6.089-4.9797-2.115-.8361-7.412-.4645-6.985 5.63.346 4.7939 2.298 7.6553 4.514 10.108 2.145 2.3783 4.026 4.1992 6.253 3.7347 1.83.3902 4.066.8733 4.941-2.8429.244-1.0219.284-1.9881.213-2.9171.448.5945.895 1.2077 1.454 1.4678.773.3717 1.566.0186 2.338-.1858 1.271-.3716 1.881-3.1773 1.627-5.1469zm-25.488 3.1402c-.468-.8176-.915-1.7094-1.454-2.3783-.661-.8176-1.322-.9477-2.084-1.1892-.651-.2044-1.352-.576-2.003-.446-.651.1301-1.118.9105-1.586 1.6537-.244.3902-.325 1.0777-.244 1.6166.152.929.305 1.9324.701 2.6384.499.8919 1.373 1.2635 2.024 1.7281.65.4645 1.23.9662 1.941.9476.702-.0186 1.444-.4274 2.135-.6875.956-.3716 1.241-2.6942.57-3.8834zm24.116 27.8709c-.092-1.263-.509-2.192-.997-3.066-.681-1.207-1.525-1.523-2.409-1.969-.722-.353-1.515.149-1.963 1.189-.477 1.096-.488 2.471-.142 3.698.122.446.254.892.376 1.356.275 1.003.651 1.728 1.17 2.378.508.632 1.047 1.078 1.677 1.134.702.056 1.454-.558 1.881-1.542.407-.948.498-2.026.407-3.178zm-46.483 106.989c-3.03-3.103-8.073-2.137-10.472 2.025-1.515 2.638-1.586 7.544 0 10.164 3.497 5.76 9.648 3.307 11.875-3.828.04-.074.081-.149.132-.204 1.677-2.806.478-7.47-1.535-8.157zm-16.572-4.553c-.854-.817-1.546-1.468-2.552-1.096-.661.242-1.332.613-1.962 1.022-.824.52-1.393 1.821-1.261 3.437.142 1.654.834 2.509 1.728 2.713.671.149 1.383.26 2.064.242.997-.056 1.586-1.041 2.298-2.118.712-1.115.488-3.419-.315-4.2zm-93.098-156.4129c-1.3624-3.5118-4.2701-2.8429-6.0086-.7061-.7015.8547-1.525 1.9324-2.1351 3.0287-.5388.9476-.8031 2.081-.9658 3.3631-.0407.5203-.0813 1.0405-.1118 1.5422.0711-.5946.0711-.5388-.0102.1672-.3152 2.8057.6812 5.3513 2.3384 5.4628h.2236c.0305.0186.061.0372.1017.0557.9557.4274 1.8707.1673 2.7451-.6317.5795-.5389 1.1691-1.1892 1.7182-1.8209 1.8605-2.1554 3.5888-6.6148 2.1045-10.461zm-11.4275 2.2482c-.7626.4088-1.4946.8733-2.0029 2.0254-.4372.9662-.8337 1.9695-1.1794 3.0472-.5388 1.6909-.2541 4.1435.7524 5.0726 1.037.9847 2.2164.4087 2.8569-1.3378.1321-.3531.2643-.6875.3965-1.0406.0101-.0186.0203-.0371.0305-.0743.0915-.1858.1728-.3716.2643-.5388.3457-.6875.5897-1.3379.7524-2.2483.0711-.3902.1423-.799.2338-1.1892.4677-2.1739-.9455-4.3293-2.1045-3.7162zm22.611-16.5369c-.549-.1672-1.2098-.3158-1.708.2602-.3457.3902-.5999 1.0033-.8744 1.5422-.3863.7804-.549 1.9881-.2135 2.9172.3457.9476.9151 1.3192 1.5251 1.1148.3863-.1301.8641-.1858 1.1996-.5574.5084-.576.7626-1.4865.9659-2.4527.244-1.0777-.2542-2.6199-.8947-2.8243zm55.7655 83.0746c.061-.186.122-.371.162-.576.6-2.508.438-5.407-1.016-6.93-.204-.205-.407-.372-.61-.539-1.4847-2.174-3.1317-2.769-5.1143-2.509-1.9317.26-3.6295 2.007-5.3681 3.401-2.4095 1.932-3.111 7.896-2.1757 11.836.2847 1.207.7015 2.229 1.1895 3.084-1.4945 1.189-2.8568 2.601-3.9345 3.939-.5897.725-1.0269 1.542-1.3522 2.416-1.281 2.025-1.8097 4.756-.5694 8.435 2.3384 6.968 9.079 5.129 12.5866 2.732 2.1249-1.45 4.5551-3.494 5.6631-7.247 1.25-4.199.325-9.253-1.912-11.576 1.2-1.486 2.105-3.549 2.451-6.466zm-23.6586 16.667c-.5897-.241-.9252.279-1.4132.688-.0101 0-.0711.055-.1118.093-.0508.037-.1423.092-.1525.092-.1728.093-.3457.186-.5185.242-.7625.297-1.1285 1.914-.8439 3.122.3152 1.337 1.1489 1.728 1.8504 1.114.3965-.353.7625-.799 1.1082-1.3.4067-.576.8743-1.319.8235-2.341-.0407-.762-.2847-1.524-.7422-1.71zm-7.5641-8.213c-.1017-.092-.2135-.148-.3152-.241-1.6368-2.267-4.1074-.966-5.5206 1.375-1.0573 1.746-1.9215 3.902-2.1554 6.466-.1626 1.84-.0508 3.53.7321 4.905.6811 1.208 1.8198 1.877 2.7552 1.301 2.2062-1.356 5.2156-4.125 5.5002-8.584.0305-.168.061-.316.0915-.483.3254-1.561-.2135-4.032-1.0878-4.739zm153.6717 160.65c-.193-1.561-.864-2.973-1.627-3.772-1.403-1.468-3.121-.91-4.29.985-.6.966-1.189 1.932-1.789 2.917-1.2 1.951-1.21 5.444-.254 7.637.986 2.285 2.785 2.954 4.219 1.505.701-.725 1.413-1.431 2.114-2.155 1.414-1.431 1.963-4.386 1.627-7.117z" fill="url(#f)"/><g fill="#eb924d"><path d="m4.23467 262.531c-.0915.911-.14234 1.84-.1525 2.75-.01017.465-.01017.911.01016 1.375.01017.167.0305.298.05084.483.07117.483.02033 1.022.04067 1.505.01016.391.0305.799.05083 1.19-.48801-.316-.81335-.706-.82351-1.227-.04067-1.895-.04067-3.79.02033-5.704.02033-.706-.08134-2.23.10167-2.843.25417-.817.122-.39.62017-.762.50835-.39.92519-.854 1.48436-1.059.56935-.204 1.14886-.297 1.73854-.409 2.07403-.39 4.14807-.761 6.23227-1.133-.5287-.056-1.0573-.112-1.586-.186.4473-.018.8845-.056 1.3318-.093.4169-.037.8439-.074 1.2709-.093.3558-.018.7218.019 1.0777-.093-2.8874.892-5.7748 1.747-8.59101 3.141-.75235.371-1.5047.78-2.19604 1.449-.183.186-.37617.39-.48801.706-.11184.297-.16267.669-.19317 1.003z"/><path d="m4.48998 121.874v.111c.02033.446.11184.873.14234 1.319.08133 1.301-.06101 2.695-.03051 4.014.06101 2.545.36601 5.202 1.3522 7.135 1.18952 2.322 3.01955 2.991 4.73779 3.549-1.34207.037-2.68409.074-4.02611.111-.27451 0-.55918.019-.80319.26-.41684.409-.56934 1.338-.67101 2.174-.62018 5.017-.85401 10.183-.69134 15.33.63034.668 1.32169 1.114 2.03337 1.356-.95569.074-1.54536 2.211-1.32169 3.902.22367 1.709.98618 2.973 1.74869 4.032-1.15902.056-1.92153 2.323-2.1147 4.404-.1525 1.672-.11184 3.381-.27451 5.054-.05083.576-.05083 1.059-.02033 1.635.0305.743-.02033 1.486-.0305 2.229-.02033 2.026.08133 4.07.28467 6.058.11184 1.096.26434 2.211.43718 3.288.0915.539.183 1.078.29483 1.617.03051.112.05084.223.06101.334-.22367-.092-.44735-.26-.63035-.501-.54901-.762-.59984-2.23-.59984-3.493 0-2.546-.14234-4.999-.22367-7.526-.0915-2.935.02033-5.871.02033-8.788.02033-7.098.02033-14.196.01017-21.294-.01017-7.098-.0305-14.159-.061-21.238-.01017-1.876.0915-3.79-.20334-5.593-.30501-1.802-.0915-4.199.0305-6.057.0305-.464.07117-.929.23384-1.301.1525-.297.37617-.483.58967-.594 1.67753-1.004 3.47707-.892 5.23592-1.022 1.7182-.112 3.4466-.502 5.1343-1.115.4371-.037.8743-.111 1.3013-.242-2.806 1.097-5.6324 2.044-8.47913 2.899-.58967.167-1.17935.353-1.72836.762s-1.05735 1.078-1.35219 2.044c-.26434.892-.30501 1.895-.33551 2.898-.02033.762-.08133 1.524-.05083 2.249z"/><path d="m27.0374 195.305c-5.5917.52-11.1428 2.248-16.7448 2.619-1.39283.093-2.81619.112-4.11755 1.022-.90485.632-1.81986 3.995-.74218 5.203.15251.186.34568.242.52868.316 1.01669.353 2.0537.502 3.08055.464-1.32169.372-2.53154 1.58-3.71089 2.75-.20334.205-.42701.428-.55918.781-.13217.334-.19317.762-.24401 1.17-.13216 1.059-.35583 2.174-.2745 3.271.05083.761.0305 1.449 0 2.229-.0915 2.955-.11184 5.909-.0305 8.863.01017.335.02033.688.10167 1.004.11183.408.32534.706.52867.966.45751.595.92519 1.189 1.37253 1.784.04067.037.07117.093.08133.148.04067.149-.0305.298-.08133.409-.71168 1.394-1.52503 2.713-1.88087 4.515-.17283.874-.45751 1.561-.49817 2.509-.09151 2.211.01016 4.44.305 6.596.11184.836.27451 1.691.62018 2.285.28467.483.68118.725 1.05735.929 1.58603.874 3.19239 1.598 4.81912 2.119-2.11474.111-4.21927.241-6.33398.353-.05083 0-.20334 4.422-.25417 4.831-.07117.613-.13217.929 0 1.56.14234.651.37617 1.227.67101 1.691-.38634-.056-.77268-.093-1.15902-.13-.16267-.018-.34567-.074-.41684-.316-.0305-.111-.0305-.278-.0305-.409.2745-10.981.57951-22.074.70151-33.092.061-6.094-.1525-12.282.27451-18.321.04066-.557.2745-6.633.26434-6.633 7.53364-1.003 15.09774-1.524 22.67204-1.486z"/><path d="m28.2578 195.231c.041 0 .0717-.018.1229-.018-.041 0-.0819 0-.1229.018z"/><path d="m31.7978 59.665c-3.3551.7619-6.822-.0929-10.1567.9477-1.1082.3344-2.196.8918-3.3144 1.0962-1.037.1673-2.0639.0744-3.0907.1115-2.5824.0929-5.1444 1.1706-7.60481 2.6199-.83368.4831-1.69786 1.0405-2.30787 2.1925-.22367.446-.40668.9291-.55918 1.4865-.25417.9848-.50834 2.2669-.47784 3.3817.01017.3345.04067.5946.02033.929-.061.9663-.11183 1.9139-.122 2.8801-.02033 1.9324.10167 3.8648.34567 5.7414.07117.5389.16267 1.0963.38634 1.4493.22368.3717.54901.4646.84385.5575 1.26069.353 2.52138.706 3.7719 1.0591-1.73853.2415-3.46689.4645-5.20542.7061.11183-.0186.08133 7.6181.10167 8.287.0915 2.5641.13216 5.184.23383 7.7665.061 1.691.16267 3.363.42701 4.98.061.372.14234.762.22367 1.115-.14233-.149-.2745-.335-.38634-.52-.64051-.948-1.11835-2.397-1.12852-3.94-.01017-.371.04067-.669.08134-1.022.14233-.984.04066-2.0992.0305-3.1211-.05084-4.5709-.0915-9.1418-.15251-13.7127-.04066-2.8986-.05083-5.76-.2745-8.6401-.122-1.4307-.061-2.8986-.10167-4.3293-.05083-1.7652-.0305-3.5303.0915-5.2955.05084-.9476.15251-1.9324.38634-2.8057.25417-.8919.68118-1.7466 1.26069-1.7094.87435.0929 1.75887-.2416 2.63321-.3902 1.94187-.3531 3.89391-.6504 5.85611-.8733 3.9956-.4831 8.0115-.7247 12.0274-.8548 1.952-.0557 3.9142-.0743 5.8663-.0929z"/><path d="m207.184 92.0898c5.907 2.3226 12.089 1.0777 18.097 2.5084 2.42.5761 4.84 1.5794 7.28 1.3193.905-.0929 1.84-.3902 2.725.0743.803.3902 1.27 1.4679 1.698 2.6756.711 2.0626.671 4.9796.742 7.3206.183 6.113-.143 12.226-.315 18.321-.021.669-.051 1.375-.295 1.877-.173.334-.427.501-.681.631 0-.13-.011-.241-.011-.353-.03-1.003-.01-2.006.061-2.991.092-1.357.285-2.694.275-4.051 0-.501 0-.947.02-1.468.01-.13.01-.297 0-.446-.04-.631-.081-1.17-.163-1.783-.101-.781-.05-1.654-.071-2.453-.04-1.747-.122-3.475-.244-5.221-.02-.298-.051-.632-.193-.818-.102-.13-.244-.148-.376-.13-3.274.074-6.547.465-9.801 1.152 2.806-.26 5.602-1.04 8.327-2.341.528-.26 1.108-.613 1.352-1.487.203-.724.122-1.597.03-2.378-.101-.966-.244-2.007-.671-2.5826-.254-.353-.589-.4831-.904-.5946-.194-.0743-.377-.13-.57-.2044-1.901-.6689-3.822-1.1705-5.754-1.5422-.966-.1858-1.932-.3158-2.898-.4273-.976-.1115-1.87-.4831-2.846-.5946-.58-.0743-1.159-.1301-1.739-.2044-1.982-.223-3.955-.4459-5.927-.6503-.976-.1115-1.973-.1301-2.938-.3345-.285-.0743-.529-.2601-.793-.4831-.153-.1115-.305-.2044-.458-.2787-.864-.3344-1.759-.5203-2.633-.8175-.62-.2044-1.241-.4088-1.861-.6318l-.864-.2973c-.203-.0743-.468-.2601-.691-.2601 1.047-.0186 2.064-.0558 3.09-.0558z"/><path d="m237.879 164.294c-.051 10.554-.132 21.108-.142 31.681 0 3.493.254 9.476-.732 12.597-.275.892-.763 1.413-1.322 1.71.061-.26.112-.52.163-.799.295-1.505.518-3.047.65-4.627.061-.706.051-1.486.183-2.136.153-.707.133-1.487.163-2.23.102-2.23.203-4.478.305-6.708.081-1.802.163-3.605.254-5.407.051-.91.082-1.802.132-2.694.021-.372.072-.818.041-1.189-.02-.112-.051-.242-.051-.353-.051-.446-.01-.948-.193-1.301-.112-.223-.274-.297-.437-.372-1.515-.706-3.07-1.04-4.626-1.059.651-.334 1.342-.26 2.013-.185.671.074 1.373.092 2.003-.335.427-.297.823-.873 1.037-1.598.102-.353.152-.743.203-1.133.082-.669.01-1.45.01-2.137-.01-1.301-.02-2.62-.02-3.939-.02-3.642-.041-7.284-.183-10.907-.102-2.769-.254-5.519-.335-8.287-.031-.911-.326-1.375-.448-2.193-.142-.985.153-2.137-.183-3.047-.274-.725-.823-.799-1.301-.818-3.121-.074-6.243-.148-9.364-.204 2.908.39 5.816-.65 8.683-1.672.356-.13.722-.26 1.037-.576.539-.52.874-1.487 1.118-2.49.122-.502.203-1.041.315-1.561.041-.186.082-.334.102-.539.051-.631-.041-1.412-.061-2.044-.02-.799-.051-1.597-.081-2.415-.021-.892-.051-1.858-.336-2.601-.386-1.041-1.108-1.412-1.769-1.71-1.677-.743-3.345-1.505-5.022-2.248.427-.13.864-.223 1.321-.26 1.81.762 3.62 1.542 5.429 2.304.234.093.488.223.661.502.712 1.207.539 5.314.61 6.893.132 3.01.193 6.039.214 9.067.061 5.649-.021 11.353-.041 17.02z"/><path d="m226.51 69.5137c-.651.0929-1.291.13-1.942.1858 4.057.7246 8.123 1.4679 12.18 2.1925.376.0743.783.1672 1.047.6503.203.3717.285.9105.356 1.4122.315 2.3597.335 4.6823.335 7.0979-.122 3.4931-.294 6.912-.691 10.3495-.183 1.6351-.752 1.7466-1.372 1.5607.345-.4645.599-1.1334.62-1.8952.091-4.3293.183-8.6772.01-12.988-.041-.8175-.081-1.6537-.254-2.4155-.122-.5017-.295-.9662-.539-1.3006-.112-.1673-.244-.2787-.366-.3902-.051-.0558-.092-.0929-.153-.1301-.081-.0557-.152-.1301-.233-.2044-.133-.1115-.285-.1115-.427-.1672-.6-.1858-1.2-.3902-1.8-.5574-2.379-.7247-4.778-1.3007-7.178-1.7095-1.565-.2601-3.131-.4645-4.646-1.152 1.149-.1115 2.135-.3344 3.284-.4273.59-.0186 1.189-.0744 1.769-.1115z"/><path d="m237.575 259.576c.122-1.003.203-2.007.254-3.029.082-1.709.071-3.418.071-5.146 0-1.468.092-3.011-.152-4.441-.183-1.115-.325-2.026-.295-3.215.031-1.375.051-2.898-.488-3.995-.59-1.189-1.576-1.3-2.46-1.319-1.515-.037-3.03-.056-4.545-.093 2.003-.446 3.996-1.04 5.978-1.784.295-.111.61-.26.793-.687s.173-1.022.163-1.561c-.081-3.66-.132-7.321-.244-10.962-.061-2.026-.264-3.791-1.423-4.478-1.271-.744-2.674-.892-3.986-1.264-2.369-.65-4.748-1.226-7.127-1.747-4.758-1.021-9.536-1.746-14.325-2.099 9.272.334 18.544 1.338 27.766 2.973.437.093.569 1.821.64 2.378.254 2.081.346 4.218.437 6.318.244 5.778.305 11.575.346 17.354v.297c.02 1.19.051 2.36.051 3.549.03 3.345.142 7.024-.051 10.313-.061 1.022-.173 2.044-.366 3.028-.081.446-.163 1.041-.325 1.394-.448 1.003-1.047 1.579-1.698 1.969.305-.668.549-1.43.712-2.229.122-.465.203-.985.274-1.524z"/><path d="m3.03492 43.8334c-.122-8.2871-.28467-16.5369-.49817-24.8054-.13217-5.4999 2.13503-10.21944 5.12409-10.64679 75.88536-11.01842 151.60816-11.29713 227.16816-.03717 3.019.44594 5.287 5.25836 5.104 10.79546-.244 7.3022-.458 14.6045-.651 21.9068-.132 5.1097-.264 10.238-.376 15.3663-.031 1.0033-.051 1.8766-.214 2.8243-.284 1.6722-.223 3.4931-.447 5.2026-.081.5388-.173 1.1148-.397 1.505-.223.3716-.528.5203-.823.6504-.031.0185-.051.0185-.081.0371.01-.0557.02-.1115.02-.1672.081-2.2483.295-4.608.254-6.8563-.02-.7804-.112-1.4493-.061-2.2483.061-1.0963.081-2.1925-.081-3.2702-.427-2.7128-2.115-4.5337-3.62-3.8834 1.109-1.7838 3.193-.8733 3.986-3.1587.427-1.2264.254-2.8243.061-4.2365-4.677-.8918-9.374-1.2449-14.071-1.0405 4.036.4088 8.113-.4274 12.007-2.4341.63-.3159 1.281-.7246 1.698-1.6351.386-.8547.488-2.0253.569-3.1216.142-1.8209.234-3.6975.427-5.4999.061-.5388.214-1.0033.275-1.5422.101-.8361.05-1.7837.04-2.6385-.01-2.0624-.091-4.1249-.366-6.1316-.162-1.2264-.406-2.3969-.752-3.4932-.468-1.5051-.742-2.4527-1.718-3.103-.6-.4088-1.241-.5203-1.871-.6318-2.094-.3344-3.528-.3902-5.612-.8361-2.887-.6132-5.785-1.152-8.683-1.65369-3.914-.6689-7.828-1.26349-11.752-1.76517-1.963-.26013-3.925-.4831-5.887-.70607-.417-.03716-.864-.16723-1.281-.03716-.336.11148-.59.14864-.935.03716-.936-.29729-1.871-.72465-2.827-.65033-1.21.0929-2.531 1.3564-2.765 3.51177-.315-.83614-.468-1.89524-.417-2.8986-.539.91046-.986 1.98814-1.312 3.19589-.671-1.28207-1.128-2.93576-1.291-4.70094-2.369.50168-4.768.4831-7.137-.0929-.335 1.57937-.671 3.14015-1.006 4.71952-1.2-3.53035-3.508-5.38843-5.775-5.87153s-4.545.16723-6.822.52026c-2.959.46452-5.938.42736-8.886-.11148-.356-.07433-.752-.11149-1.037.27871-.193.26013-.295.68749-.386 1.09626-.285 1.28208-.498 2.63848-.641 3.99488-.295-2.2297-1.281-4.01346-2.42-4.97966-1.138-.9662-2.419-1.20775-3.68-1.18917-2.308.01858-4.595.8733-6.903.91046-1.271.01858-2.532-.20439-3.792-.44594-1.841-.37161-3.691-.81755-5.552-.68749-.457.03716-.915.09291-1.362.22297-.407.11149-.813.33446-1.22.33446-.264 0-.518-.16723-.773-.22297-.518-.13007-1.057-.05575-1.575-.07433-1.159-.01858-2.319-.03716-3.478-.05574-3.954-.0929-7.919-.16723-11.874-.26013-3.965-.09291-7.92-.16723-11.875-.26013-1.973-.03716-3.955-.09291-5.9377-.11149-.4474-.01858-.8642-.18581-1.3115-.14864-2.4604.20439-4.9411.40877-7.4015.61316-2.0435.16723-4.0871.33446-6.1204.50168-.8744.07433-1.5657-.39019-2.4198-.576-.9353-.18581-1.9012-.22297-2.7958.37162-1.2811.85471-2.3384 3.43744-1.9012 5.81579.1118-2.65706-1.1997-4.9425-2.6231-5.59282-1.4233-.65033-2.9077-.13007-4.3412.29729-3.6601 1.09627-7.371 1.52362-11.0717 1.26349-.122 1.89524-.2339 3.79049-.3559 5.68571-.2745-2.04387-.7218-3.99485-1.3115-5.79719-.6608 2.60131-.8235 5.62999-.427 8.41709-.9963-2.5827-.8235-6.70766-2.3384-8.2127-1.5453-1.54221-3.4059 1.09626-5.1546.76181.061 1.82092.1322 3.64184.1932 5.44419-.0915-1.91384-.732-3.62327-1.586-4.6638-1.22-1.48646-2.3282-.9662-3.6906-.78039-1.4742.20439-2.9382.40878-4.4124.63175-2.623.35303-5.2461.72465-7.8793 1.09626-.5693.09291-1.1794.2973-1.7487.14865-.4067-.11148-.7523-.35303-1.1794-.31587-6.4152.27871-12.8813.89188-19.21529 2.8243-1.15902.353-2.33838.7804-3.3754 1.8023-.66084.6689-1.26069 1.598-1.66736 2.75-.31517.8733-.40667 1.8023-.52867 2.7685-.08134.6503-.29484 1.2635-.43718 1.8767-.305 1.3378-.54901 2.7314-.61001 4.1621-.08134 2.1925.39651 4.608 1.45386 5.6671 1.25052 1.2635 2.89755.3159 4.16841 1.5051-1.48436-.3345-2.99922-.1115-4.42258.6875-.21351.1114-.43718.2601-.57951.5945-.122.2788-.14234.6504-.16267 1.0034-.0915 1.6537-.08134 3.3445.04067 4.9982.061.799.183 1.598.2135 2.397.04067.8918.05083 1.8023.08133 2.6942.11184 3.5489.24401 7.1164.35584 10.6654.02034.5945.09151.9476.08134 1.3935-.10167-.0186-.20334-.0186-.30501-.0186-.122-.0185-.25417-.0185-.3355-.1672-.08134-.1115-.10167-.3159-.12201-.5017-.29483-3.6232-.5185-7.358-.56934-10.9812z"/><path d="m234.859 308.203c-74.665 10.461-150.3978 10.368-227.17784-.018-3.00939-.409-5.28676-5.129-5.16476-10.628.0305-1.227.04067-2.453.05083-3.679.02034-1.004-.04066-2.1.061-3.085.04067-.353.13217-.65.16267-1.003.09151-1.189.13217-2.397.18301-3.586.122-2.397.25417-4.794.37617-7.191.01017-.223.02033-.446.0305-.65.02033-.372.05084-.781.17284-1.078.11183-.279.28467-.409.46767-.52 2.13504-1.543 4.50392-2.509 6.81181-2.472 2.5214.019 4.9004-.501 7.3913-1.152 1.0065-.26 2.013-.501 3.0094-.761h.2643c.1932 0 .3863.018.5897.018.1525 0 .3457.074.488.019-5.0326 1.988-10.1364 3.214-15.22995 4.664-.67101.185-1.35219.371-1.94187.947-.05083.056-.0915.093-.14233.149-.67101.724-1.30136 2.025-1.29119 3.493.01017.687-.08134 1.375-.10167 2.062-.04067 1.32.07117 2.769.63034 3.698.33551.557.76252.836 1.18953 1.078 2.76538 1.616 5.66294 2.508 8.57064 2.638-2.3485-.037-4.69708-.074-7.03545-.111-.71168-.019-1.44369-.093-2.15537-.019-.47784.037-1.34203.037-1.6877.725-.14233.26-.19317.632-.23384 1.003-.17283 1.951.19317 3.958.16267 5.909-.02033 1.17-.04066 2.397.16267 3.512.39651 2.192 1.58603 3.623 2.81622 4.292.59984.297 1.22002.483 1.83003.632.31517.074.62018.111.93535.185.1525.037.30501.075.46768.112.14233.037.29484.093.43717.093.07117-.019.15247-.075.23387-.075.2338-.037.4778 0 .7116 0h1.0371c1.2607-.018 2.5315-.074 3.8024.038.6303.074 1.2607.148 1.891.297.1423.037.2745.093.4168.093.0814 0 .1627-.056.2542-.075.0712-.018.1423-.018.2034 0 .6405.093 1.1285.316 1.7283.521.366.13.7422.185 1.0879-.075.5693-.427.8946-1.542 1.0573-2.638s.2135-2.248.488-3.252c.0915 1.189-.0406 2.379-.0305 3.568.0102 1.189.2339 2.508.8032 3.084.3355.335.7422.372 1.1285.39.6405.019 1.2811.056 1.9216.075.4473.018.8133-.205 1.2403-.279.5999-.111 1.2607.111 1.8606.186.6608.093 1.3115.167 1.9723.241 2.6332.316 5.2563.632 7.8895.911.7015.074 1.4234.223 2.135.223 6.5576.669 13.1153 1.189 19.683 1.561 1.9724.111 3.9651.037 5.9273.297.2542.037.4677.167.7117.279.5592.241 1.1794-.186 1.6979-.558 1.2098-.873 2.2875-2.415 2.9992-4.404.6405 3.884 2.989 6.002 5.1952 6.411s4.4226-.446 6.639-.279c.6507.056 1.2708-.056 1.9012-.037.427.019.8642.316 1.2912.39.549.093 1.1692.167 1.6978-.167.1729-.112.3254-.279.4982-.39.5795-.353 1.281-.186 1.8911-.205 1.4335-.037 2.8772-.037 4.3107-.037 2.8772.019 5.7446.112 8.6216.298 1.423.055 2.847.204 4.27.334.264.019.518.037.762-.093.183-.093.356-.26.549-.334.661-.242 1.393-.223 2.064-.242h.468c.508 0 .935-.019 1.423-.204.58-.242 1.2-.037 1.78-.037h2.907c3.955.018 7.92.037 11.875.074 1.108.018 2.217.018 3.325.037.549 0 1.108 0 1.657.019 3.955.055 7.91.13 11.865.223 3.955.092 7.909.241 11.864.371 1.973.074 3.955.149 5.928.242.986.037 1.982.093 2.968.13.743.037 1.393.056 2.115-.372.305-.186.61-.297.935-.334.641-.093 1.292-.149 1.932-.205.203-.018.427.019.62-.111.326-.205.488-.409.814-.39.193.018.396-.056.589-.149.387-.186.753-.52 1.078-.929.702-.873 1.271-2.063 1.82-3.252.508 1.227 1.067 2.379 1.667 3.456.102.186.224.372.366.446.519.26.814-1.115 1.291-1.579.265.855.834 1.282 1.373 1.319s1.067-.241 1.596-.464c1.535-.651 3.142-.836 4.707-.558.194-.557.387-1.115.58-1.672.264 1.561 1.362 1.988 2.257 1.988.63 0 1.261-.074 1.891-.204.518-.112 1.067-.446 1.596-.316 1.108.26 2.227 0 3.345-.13 2.623-.298 5.246-.632 7.869-.966 2.623-.335 5.246-.688 7.869-1.078 2.552-.372 5.114-.743 7.666-1.152.59-.093 1.19-.093 1.79-.13 1.952-.13 3.904-.298 5.856-.539.976-.13 1.952-.297 2.917-.483.489-.093.977-.167 1.465-.316.152-.037.274-.186.416-.26.885-.372 1.79-.446 2.501-1.598.488-.799.753-1.933.905-3.103.061-.595.112-1.208.143-1.821.05-1.152.142-2.285.132-3.475-.021-4.273-.051-8.528-.061-12.802 0-.427 0-.855-.01-1.263-.011-1.765-.041-3.531-.153-5.296-.051-.762-.193-1.616-.163-2.397.011-.223.041-.464.051-.687.01-.911-.254-1.933-.589-2.564-.234-.428-.488-.818-.743-1.227-.183-.297-.386-.539-.62-.724-.467-.391-.966-.595-1.474-.799-1.179-.521-2.359-1.041-3.548-1.543-.295-.13-.62-.297-.854-.668.417-.093.528-.391.945-.409h.275c1.637.539 3.284 1.115 4.931 1.709.589.205 1.21.52 1.698 1.227.254.371.457.854.599 1.374.255.892.356 1.859.417 2.825.163 2.434-.051 4.831.092 7.246.081 1.245.132 2.472.162 3.716.061 2.397.122 4.813.183 7.21.051 2.155.112 4.311.163 6.485.193 5.611-2.094 10.368-5.104 10.776z"/><path d="m101.205 29.3975c11.844 1.0033 23.689 2.0067 35.472 4.4965 9.75 2.0625 19.469 5.1469 29.28 5.277-22.163 2.5827-42.558-8.6401-64.752-9.7735zm46.869 50.6512c-.722.0372-1.454-.0929-2.176-.13-3.914-.1859-7.828-.1115-11.732.2043-3.904.3159-7.808.8362-11.702 1.5237-1.952.353-3.894.7246-5.846 1.152-.976.2044-1.942.4273-2.918.6503-.488.1115-.976.223-1.464.3345-.356.0929-.712.0371-1.057.0929-.448.0929-.926.4645-1.363.706-.468.2416-.935.5017-1.403.7433-.935.4831-1.871.9662-2.816 1.4493-1.881.9476-3.772 1.8209-5.6732 2.6013-1.5759.6503-3.1619 1.2263-4.7581 1.728-3.7922 1.1892-7.6251 1.951-11.4682 2.304-1.9215.1673-3.8431.2416-5.7748.2044-.4371-.0186-.8946-.0929-1.3216.0186-.8541.223-1.7081.4459-2.5621.6689-.976.2601-1.9419.5203-2.9179.7618-.366.0929-.6507.3902-.9963.5203-.4677.1672-.9354.2787-1.4132.353-1.8809.3159-3.7821.1115-5.663.223-5.2054.3159-10.2685 3.0844-15.4129 4.5337-3.8431 1.078-7.7471 1.412-11.6309 1.728.4372-.037.8642-.056 1.3014-.093 3.9346-.279 7.859-.687 11.7834-1.17 3.9244-.502 7.8386-1.097 11.7528-1.8028 1.9521-.3531 3.9143-.7247 5.8663-1.1335 1.1184-.2229 2.2469-.3158 3.3754-.4459 2.3689-.2601 4.7276-.6132 7.0863-1.0405 4.7479-.8547 9.4653-1.9882 14.1827-3.2516 18.8489-5.0912 37.6069-12.5607 56.7209-13.434zm-73.1708 127.0553c4.2497 2.769 8.7435 3.977 13.2067 4.924 2.2672.483 4.5344.892 6.7915 1.394.5795.13 1.159.297 1.7385.427.4372.093.8744.13 1.3115.242.1424.037.2644.13.3965.204.3762.204.8134.149 1.2099.26.8642.26 1.7082.725 2.5422 1.134 1.067.52 2.165 1.003 3.273.854.803-.111 1.586-.539 2.389-.799.936-.297 1.881-.353 2.827-.334 1.911.056 3.823.483 5.703 1.152.844.297 1.688.669 2.522 1.078.905.445 1.799.966 2.704 1.486.61.353 1.139.334 1.759.279.813-.075 1.627.26 2.42.483.925.26 1.85.502 2.775.706 3.742.892 7.493 1.524 11.255 1.932 3.782.409 7.564.595 11.356.576 3.752-.018 7.504-.241 11.245-.65 1.423-.149 2.836-.409 4.26-.539-4.84.465-9.689.093-14.508-.687-2.44-.391-4.88-.892-7.31-1.45-.417-.093-.854-.278-1.271-.278-.071 0-.142.018-.214.055-.193.075-.376.093-.579.112-1.739.093-3.487.056-5.226-.093-9.384-.818-18.615-5.073-28.01-5.667-1.718-.112-3.446.037-5.164.13-1.18.074-2.308-.074-3.467-.465-1.1592-.39-2.3182-.854-3.4772-1.226-1.7691-.557-3.5584-.706-5.3376-.985-1.9317-.297-3.8634-.632-5.7951-1.022-1.9216-.39-3.8533-.854-5.7646-1.393-1.8402-.539-3.7109-1.152-5.5613-1.84zm50.5898-28.633c.793-.037 1.597-.074 2.39-.111.64-.037 1.281-.056 1.911.13.224.074.427.111.651.056.488-.093.966.092 1.443.26.234.074.407.018.631 0 .722-.056 1.484.148 2.206.241.773.093 1.555.205 2.328.316 1.617.223 3.233.483 4.84.762 12.85 2.174 25.772 5.407 38.705 3.493-15.078-1.877-30.155-3.753-45.233-5.63.682.093 1.607-.576 2.278-.836.772-.297 1.555-.595 2.328-.929.732-.297 1.474-.613 2.206-.948.407-.185.854-.297 1.251-.539.264-.148.528-.483.772-.687.519-.446 1.048-.873 1.576-1.282 1.058-.799 2.145-1.505 3.233-2.137 2.196-1.245 4.453-2.137 6.721-2.824 2.297-.688 4.615-1.134 6.933-1.468 2.339-.334 4.677-.576 7.016-.818 1.189-.13 2.368-.241 3.558-.39.407-.056.813-.093 1.189-.371.285-.205.529-.521.804-.762.528-.446 1.108-.539 1.687-.613 1.454-.223 2.898-.446 4.352-.669 2.531-.39 5.073-.781 7.615-.483 2.399.278 4.768 1.189 7.167 1.393 2.806.242 5.623-.446 8.408-1.133-5.591-1.022-11.224-1.45-16.846-1.245-2.857.093-5.714.371-8.571.632-2.501.223-5.002.464-7.503.761-2.511.316-5.012.688-7.513 1.227-2.491.539-4.972 1.226-7.422 2.155-1.23.465-2.45.985-3.66 1.561-.356.167-.702.371-1.047.576-.143.074-.285.167-.437.167-.153 0-.275.112-.417.186-1.2.743-2.43 1.356-3.671 1.877-1.23.538-2.47.984-3.71 1.449-.173.056-.346.13-.519.186-1.291.483-2.582.966-3.884 1.43-1.291.484-2.582.967-3.883 1.431-.651.242-1.292.483-1.942.725-.326.111-.651.241-.966.353-.132.056-.275.13-.407.111-.325-.018-.62.26-.945.186-.549-.111-1.098.149-1.647.297-.651.168-1.292.335-1.942.502-1.291.335-2.593.632-3.884.892-2.592.52-5.195.873-7.808.855 3.223-.056 6.446-.205 9.658-.335zm-37.4746 86.921c-1.5453.26-3.1314.223-4.6767.205-1.6267-.019-3.2433-.13-4.8699-.316-3.2534-.372-6.4865-1.022-9.7094-1.803-1.6165-.39-3.233-.817-4.8496-1.245-.7727-.204-1.5352-.39-2.3078-.631-.122-.037-.244-.093-.3661-.167-.488-.316-1.0471-.075-1.5555-.019-2.013.26-4.0667.353-6.0594-.409-1.0777-.409-2.1249-1.078-3.2127-1.301-1.0066-.222-2.0232-.055-3.0298-.297-.8336-.186-1.647-.65-2.4603-1.022-5.6325-2.638-11.5902-1.839-17.304.093 8.591-1.858 17.2328 1.394 25.7831 3.809 1.5047.428 3.0094.818 4.5243 1.041 1.2301.186 2.4603.241 3.6804.576 1.2301.334 2.44.91 3.6702 1.3.61.186 1.2302.335 1.8504.372.3151.019.6201 0 .9251-.037.2644-.037.5084.056.7829.074 2.6027.297 5.2156.502 7.8285.558 2.562.055 5.1139-.019 7.6658-.279 1.2403-.13 2.4705-.297 3.6905-.502zm125.3576 9.867c-11.55 1.059-23.12 1.449-34.679 1.207 10.787 4.999 23.719 2.267 34.679-1.207z"/></g><path d="m101.256 27.9307c11.844 1.0033 23.688 2.0067 35.472 4.4965 9.75 2.0625 19.469 5.1469 29.28 5.277-22.153 2.5827-42.548-8.6401-64.752-9.7735zm46.879 50.6512c-.193-.0185-.397-.0371-.59-.0371-3.924-.2787-7.859-.2602-11.783 0-3.924.2415-7.839.7246-11.753 1.3749-.386.0558-.732.1487-1.108.3531s-.763.1115-1.149.1115c-.956.0185-1.911.1672-2.847.4087-1.881.4646-3.741 1.2078-5.622 1.7652-4.768 1.3936-9.618 1.4307-14.4369 1.3564 1.8299.446 3.6499.8733 5.4799 1.3193-2.288 1.9881-4.8089 2.9171-7.2998 3.7347-2.623.8733-5.2664 1.6351-7.9098 2.304-3.8634.9662-7.7369 1.728-11.6308 2.2669-1.9419.2601-3.8939.4831-5.8358.6317-.488.0372-.976.0744-1.464.1115-.3559.0186-.6609-.0929-1.0066-.1301-.7218-.0743-1.4233.4274-2.135.3717-.1932-.0186-.3762-.1115-.5693-.0929-.6507.0371-1.3116.2601-1.9521.3901-1.3013.2602-2.6128.5389-3.9142.8176-2.6129.5574-5.2258 1.1149-7.8285 1.6909-5.2156 1.152-10.4312 2.3411-15.6468 3.586-5.2156 1.245-10.421 2.546-15.6264 3.883-.2033.056-.4168.112-.6202.168 12.0172-1.635 24.0446-3.252 35.95-6.708 3.05-.8919 6.1103-1.8952 9.1908-1.8581 1.2404.0186 2.4706.1858 3.7109 0 .5389-.0743 1.0777-.3716 1.6165-.3159.5389.0558 1.0574 0 1.6064-.0743 2.5316-.353 5.0631-.799 7.5947-1.3192 5.0834-1.0405 10.1465-2.3784 15.1994-3.8277 5.0736-1.4493 10.1366-3.0286 15.1996-4.5523 5.053-1.5236 10.116-2.9915 15.199-4.2364 5.043-1.2449 10.106-2.2668 15.179-2.88 2.247-.3159 4.525-.5017 6.802-.6132zm18.534 141.8641c-3.741.539-7.523.093-11.255-.223-2.836-.241-5.622-1.337-8.458-1.505-2.817-.167-5.643.223-8.469 0-6.588-.501-12.994-4.032-19.561-5.128-1.769-.297-3.549-.409-5.328-.539-1.535-.093-3.07-.204-4.595-.297-.417-.019-.834-.056-1.251-.093-.945-.093-1.891-.223-2.826-.52-.508-.168-1.007-.483-1.515-.576-2.369-.483-4.7479-.818-7.1269-1.115-2.4197-.297-4.8293-.632-7.2388-1.059-2.4096-.428-4.8089-.948-7.2083-1.58-1.2404-.334-2.4909-.687-3.7313-1.077-.5693-.186-1.1488-.372-1.7182-.576-.4575-.168-.9861-.223-1.4233-.521 8.3673 5.445 17.4158 4.962 26.0678 7.953.752.26 1.545.409 2.227 1.041.264.241.508.427.813.483.966.185 1.962.13 2.928.093 1.962-.075 3.924-.335 5.887-.353 1.616 0 3.222.799 4.829 1.244 1.464.409 2.928.725 4.402.985.854.149 1.728.26 2.552.762.366.223.64.446 1.017.502.457.074.925.26 1.382.371 1.861.483 3.732.892 5.592 1.245 3.772.706 7.554 1.171 11.346 1.431 3.792.242 7.575.279 11.367.111 3.731-.167 7.462-.52 11.183-1.059.031.019.071 0 .112 0zm-21.97-47.901c.366-.223.742-.446 1.108-.669 1.891-1.115 3.853-1.895 5.785-2.787 1.067-.483 2.084-1.152 3.151-1.524 1.8-.631 3.65-1.486 5.48-1.765.295-.056.57 0 .865.075.782.185 1.555-.223 2.328-.465 1.901-.576 3.822-.966 5.754-1.152.417-.037.844-.074 1.261-.093.224-.018.457-.074.671.019.173.074.346.093.529.074.355-.037.701-.223 1.047-.39.62-.297 1.25-.52 1.881-.669.254-.056.477-.093.711-.279.254-.204.549-.204.824-.279 1.261-.315 2.521-.594 3.782-.724 1.85-.186 3.69-.316 5.541-.409 1.83-.093 3.66-.13 5.49.204.529.093 1.047.223 1.576.353 2.48.651 4.961 1.654 7.483 1.524.62-.037 1.22-.223 1.83-.316.396-.056.742.149 1.128.205 1.017.167 2.074-.075 3.091-.13 1.545-.093 3.101-.186 4.646-.279 3.223-.205 6.446-.409 9.679-.613-6.619-.428-13.247-.855-19.866-1.282-6.649-.428-13.298-.855-19.937-.372-1.342.093-2.684.223-4.016.39-5.145.65-10.279 1.803-15.362 3.326-2.552.762-5.084 1.617-7.615 2.546-.326.111-.641.26-.956.408-.081.038-.142.056-.224.056-.142 0-.274.112-.406.167-.305.149-.61.316-.925.465-.682.334-1.363.706-2.054.966-1.22.446-2.45.706-3.67 1.115-1.098.372-2.186.855-3.274 1.375-1.21.576-2.41 1.208-3.63 1.747-.61.278-1.22.52-1.83.743-.305.111-.61.204-.925.297-.132.037-.264.093-.396.056-.346-.074-.722.13-1.068.204-1.261.298-2.521.539-3.792.725s-2.542.297-3.813.353c-.478.019-.955.019-1.433.019-.112 0-.234-.019-.336 0-.071.018-.142.092-.213.111-.244.074-.498.111-.742.167-.651.149-1.302.279-1.963.428-.244.055-.467.13-.711.26-.478.26-1.017.278-1.515.409-1.119.297-2.247.594-3.365.891-1.81.465-3.61.929-5.419 1.357 3.456.316 6.933.632 10.37-.205 1.474-.353 2.928-.929 4.392-1.393 1.037-.335 2.084-.613 3.141-.725 2.308-.241 4.626.297 6.914.855 1.952.464 3.894.929 5.846 1.393.701.168 1.271.168 1.962-.074.793-.279 1.627.037 2.43.167 3.924.706 7.849 1.45 11.783 2.063 3.915.613 7.839 1.078 11.774 1.245 1.86.074 3.731.093 5.591 0 .946-.037 1.881-.112 2.827-.186.915-.093 1.85-.335 2.765-.335-15.077-1.876-30.155-3.753-45.232-5.63.681.093 1.606-.576 2.277-.836.61-.241 1.23-.538 1.851-.724.101-.037.213-.037.325-.037.193.018.376.055.579-.019.61-.223 1.21-.595 1.8-.91.793-.502 1.606-1.004 2.42-1.487zm-56.6196 91.38c-1.9825.205-3.9651.242-5.9374.168-1.3115-.056-2.6231-.168-3.9244-.316-.6507-.075-1.3116-.167-1.9622-.26-.61-.093-1.2607-.112-1.8504-.372-.61-.279-1.281-.297-1.9114-.427-.6506-.13-1.3115-.279-1.9622-.409-1.3115-.279-2.6128-.539-3.9244-.818 1.7487-2.025 3.8939-2.397 5.9375-2.88 3.3652-.799 6.6898-2.044 9.9533-3.734-5.6121.65-11.2038 1.82-16.7549 3.493-1.5149.464-3.0196.947-4.5548 1.208-.3355.055-.6303.092-.9455.297-.5084.297-1.0675.148-1.5962.111-1.2912-.055-2.5824-.13-3.8736-.241-2.5722-.205-5.1444-.558-7.6963-1.208-.8133-.204-1.6267-.446-2.44-.725-1.5861-.557-3.1721-1.245-4.7784-1.56-3.1619-.632-6.3442.185-9.4755 1.189 1.4945-.019 2.989-.019 4.4835-.037 1.9419-.019 3.8939-.038 5.8256.26 1.2912.204 2.5723.539 3.8533.947 1.2505.39 2.4807.948 3.7312 1.301 2.5011.687 5.0021 1.319 7.5133 1.914 2.5214.576 5.0529 1.096 7.5743 1.523 2.5214.428 5.0428.781 7.5641 1.022 2.4909.242 4.9818.372 7.4828.353 2.4401 0 4.8801-.148 7.3202-.446.793-.111 1.5657-.278 2.3485-.353zm125.3576 9.867c-11.55 1.059-23.12 1.449-34.679 1.208 10.787 4.998 23.719 2.266 34.679-1.208z" fill="url(#g)"/></svg>