<svg fill="none" height="77" viewBox="0 0 95 77" width="95" xmlns="http://www.w3.org/2000/svg"><path d="m33.7794 75.2959h-30.17815c-.26204 0-.48042-.1747-.56777-.4367-.08735-.2621-.00005-.5241.21831-.6988 1.70325-1.2229 3.75595-2.6204 5.93961-4.0616 7.3371-4.9351 16.5084-11.0493 16.9014-14.9799.0874-.8298.131-1.8343.2184-2.9698.4804-8.4289 1.4412-24.1512 18.8668-31.6629 6.6819-2.9261 7.2934-8.9093 7.7302-13.32026.3057-2.7514.5239-4.93509 2.3582-5.15346 1.4849-.13102 3.1446.7861 5.2846 1.96528 3.4065 1.87794 8.0357 4.54204 15.3291 4.28 1.6159-.04367 3.2755-.30572 4.9788-.69878.1747-.04367.3493.00002.4803.08736 3.0572 2.18366 5.8523 5.06606 5.9396 5.19706.1311.131.1746.3057.1746.4367l-.6986 13.6697 6.0268 5.3281c.131.1311.2184.3058.2184.4805 0 .1746-.0873.3493-.262.4803l-2.3147 1.6596v1.1355c0 .3057-.2621.6115-.5678.6115l-19.9586 1.0481v5.9832l3.3192 1.3102c.2621.0873.3931.3493.3931.6114l-.3495 4.804c0 .1747-.0873.3058-.2183.4368s-.2621.131-.4368.131l-4.8913-.3931-10.0885 9.7391c-.131.1311-.2621.1747-.4805.1747l-11.5733-.6988-11.2676 6.6383.131 8.1232c0 .1747-.0437.3058-.1747.4368-.131.2184-.3057.3057-.4803.3057zm-28.25652-1.2229h27.64502l-.1311-7.8174c0-.2184.1311-.4368.3058-.5241l11.7481-6.944c.0873-.0437.2183-.0874.3493-.0874l11.486.6988 10.0885-9.7391c.131-.131.3058-.1747.4805-.1747l4.5419.3494.262-3.7559-3.2755-1.3102c-.2184-.0873-.393-.3057-.393-.5677v-6.9877c0-.3058.262-.6115.5677-.6115l19.9587-1.0481v-.8735c0-.2184.0873-.393.262-.4804l1.9653-1.3538-5.6338-5.0224c-.1311-.131-.2185-.3057-.2185-.4804l.6988-13.7134c-.6551-.6551-2.926-2.9261-5.3717-4.67302-1.7033.39306-3.3628.61147-4.9351.65514-7.5991.30571-12.4468-2.44571-15.9843-4.45467-1.9216-1.09183-3.4066-1.96531-4.5421-1.79061-.8298.08734-1.048 1.57222-1.2664 4.01791-.4367 4.41095-1.1355 11.09295-8.4726 14.28115-16.7704 7.2497-17.6876 22.4479-18.168 30.6147-.0873 1.1355-.1311 2.1837-.2184 3.0135-.4368 4.4983-9.477 10.5252-17.42553 15.8533-1.52856 1.0482-2.96973 2.009-4.32359 2.9261z" stroke="#693821" stroke-miterlimit="10" stroke-width="3"/></svg>