<svg fill="none" height="26" viewBox="0 0 185 26" width="185" xmlns="http://www.w3.org/2000/svg" xmlns:xlink="http://www.w3.org/1999/xlink"><linearGradient id="a"><stop offset="0" stop-color="#cf5c2b"/><stop offset="1" stop-color="#59173e"/></linearGradient><linearGradient id="b" gradientUnits="userSpaceOnUse" x1="107.919" x2="101.845" xlink:href="#a" y1="-41.1844" y2="-23.0646"/><linearGradient id="c" gradientUnits="userSpaceOnUse" x1="92.6613" x2="93.4578" xlink:href="#a" y1="-11.0267" y2="47.7798"/><linearGradient id="d" gradientUnits="userSpaceOnUse" x1="90.9616" x2="90.9616" xlink:href="#a" y1="-9.092" y2="70.9926"/><linearGradient id="e" gradientUnits="userSpaceOnUse" x1="92.9684" x2="92.9684" xlink:href="#a" y1="68.3147" y2="5.35744"/><linearGradient id="f" gradientUnits="userSpaceOnUse" x1="92.8308" x2="93.0313" xlink:href="#a" y1="41.9635" y2="-12.8219"/><linearGradient id="g" gradientUnits="userSpaceOnUse" x1="91.6608" x2="91.6608" xlink:href="#a" y1="40.7899" y2="-20.6655"/><path d="m184.793 5.47974c-.26-2.98-2.359-5.239998-4.867-5.249998-58.799-.3000001-116.7992-.3100001-173.91704 0-.65012 0-1.30024.16-1.90393.47-.46437.24-.94732.559998-1.30953.979998-.34364.41-.65941.87-.93803 1.35-.32506.57-.61298 1.16-.85445 1.78-.362211.92-.687272 1.96-.780146 2.96-.334349 3.76996-.2786242 7.54996.074299 11.33996.269337 2.95 2.331157 5.2 4.810907 5.24 56.99712.92 114.97892.89 173.82392 0 1.226-.02 2.415-.6 3.307-1.61.148-.17.269-.35.436-.5.102-.09.149-.22.214-.35.158-.32.306-.64.455-.96.297-.65.576-1.31.826-1.98.065-.18.168-.37.205-.56.028-.16.055-.3.102-.45.111-.39.186-.8.223-1.21.353-3.82.408-7.57996.093-11.24996z" fill="url(#b)"/><path d="m184.896 11.89c.046 1.63-.056 3.23-.205 4.84-.056.63-.195 1.24-.408 1.79-.158.42-.363.82-.595 1.19-.891 1.38-2.285 2.26-3.826 2.28-.697.01-1.393.02-2.081.03-1.736.03-3.473.05-5.21.08-1.737.02-3.473.04-5.21.07h-.028c-1.718.02-3.446.04-5.164.07-1.458.02-2.916.04-4.374.06-.279 0-.548.01-.827.01-1.737.01-3.464.04-5.192.05-.52.01-1.049.04-1.56.01-.529-.02-1.068-.08-1.597-.08-.093 0-.195-.01-.279-.07-.158-.1-.195-.34-.223-.55-.046-.33-.074-.66-.093-.99-.046-.61-.065-1.23-.046-1.85-.028.91-.195 1.8-.474 2.64-.028.08-.046.15-.083.23-.093.25-.223.53-.446.56-.177.04-.344-.08-.52-.07-.13.01-.177.09-.279.15-.074.04-.13.04-.204.05-.483.07-1.022.01-1.505.01-1.021.01-2.043.02-3.065.03-1.718.01-3.455.03-5.173.04-1.467.01-2.925.02-4.393.03-.26.01-.529.01-.789.01-.873.01-1.746.01-2.619.02-.845 0-1.7.01-2.545.01-1.718.01-3.446.02-5.164.03s-3.436.01-5.154.02c-.771 0-1.533.01-2.294.01-.957.01-1.914.01-2.861.01-1.579.01-3.158.01-4.727.01h-1.542c-.724.01-1.44.01-2.164.01-.418 0-.836.01-1.263.01-.9102.01-1.8204.04-2.7305-.01-1.1981-.07-2.8606.59-3.8543-.48-.1022-.1-.1858-.22-.2601-.35-.2507-.41-.3993-.91-.5294-1.41-.0092.64-.0278 1.27-.0464 1.9-.0093.18-.0093.35-.0093.53-.7151-.12-1.4302-.21-2.1547-.29-.4458-.04-.8916-.09-1.3467-.12h-.0371c-.1672-.01-.3344-.02-.5108-.02-.0093.01-.0279.01-.0465 0-.4272.01-.8544.07-1.2166.32-.3994-.78-.7987-1.57-1.1888-2.35-.0093-.01-.0093-.01-.0186-.02-.26-.53-.5294-1.05-.7894-1.57.2415.96.4829 1.92.7244 2.87.0279.1.0464.19.0464.29.0093.13 0 .26-.065.35-.1857.25-.5108.07-.743.12-.1207.03-.1764.1-.2879.16-.2879.15-.6315.08-.9473.08-1.7089 0-3.4178-.01-5.1267-.01-1.7089-.01-3.4178-.01-5.1266-.01-1.0402-.01-2.0712-.01-3.1114-.01h-.1393c-.6222 0-1.2445-.01-1.8667-.01-1.6997 0-3.4085-.01-5.1081-.02-.483 0-.9752-.01-1.4582-.01-1.2166-.01-2.4333-.01-3.65-.01-1.2166-.01-2.4333-.01-3.6499-.03-.483 0-.9659 0-1.4489-.01-1.6996-.01-3.3992-.02-5.0895-.04-1.6996-.01-3.3992-.03-5.0895-.04-1.5046-.01-2.9906-.03-4.4952-.04-.195-.01-.3993-.01-.5944-.01-.6594 0-1.3188-.01-1.9782-.01-1.9411-.02-3.8821-.07-5.8325-.14-.1672-.01-2.1176.12-1.8854-.35.0093-.01.0093-.01.0093-.01.065-.12.2136-.23.2972-.34.2229-.3.418-.64.6037-.97.065-.13.1393-.26.2043-.4.2879-.56.5666-1.12.9288-1.61.1021-.15.2229-.29.3529-.42.0557-.06.1022-.12.1765-.13.0464-.01.1764.03.2043-.02.0836-.13-.4644-.39-.5294-.43-.3065.42-.548.93-.8173 1.38-.2786.46-.548.92-.8266 1.38-.2879.5-.5944 1-.9844 1.4-.0093.01-.0279.02-.0372.04-.195.19-.4272.33-.6594.42-1.1331.46-2.6655.01-3.78 0-1.6067-.03-3.2135-.01-4.8202-.02h-.4737c-4.2722-.06-8.5444-.12-12.82594-.19-2.47975-.04-4.53228-2.3-4.81091-5.25-.06501-.71-.12073-1.43-.16717-2.14-.04644-.81-.343638-1.96.10216-2.66.04644-.07.08359-.15.1486-.2.10216-.09.26005-.05.38079-.07.84515-.07 1.6996-.14 2.55405-.21.04643-.01.10216-.01.1486.01.11145.05.13931.22.15788.36.00929.17.02787.33.04644.49.01858-.49.02786-.96.02786-1.43-.00928-.36-.00928-.71-.02786-1.08-.04644.12-.05572.26-.08359.38-.06501.26-.2229.48-.42722.58-.10216.06-.20432.08-.31577.09-.18575 0-.36221.05-.54796.07-.40865.04-.8173.03-1.22595-.02-.13931-.01-.27862-.04-.40865-.08-.13931-.05-.27862-.12-.40864-.23-.08359-.07-.08359-.11-.10217-.23-.03715-.18-.08358-.34-.120734-.52-.167174-.66-.027862-1.46.009284-2.15.04644-.75.09288-1.55.1486-2.28.26934-2.94 2.37759-5.16 4.85734-5.18 1.10521-.01 2.21971-.01 3.32492-.01.83584-.01 1.68104-.01 2.52614-.01h.2972c2.0061-.01 4.0122-.02 6.009-.03.8916-.01 1.7739-.01 2.6655-.01.5294-.01 1.0774-.01 1.6161-.01 1.0123-.01 2.0246-.01 3.037-.01 1.3002 0 2.6004-.01 3.9007-.01 1.3002-.01 2.6005-.01 3.8914-.01 1.3096-.01 2.6098-.01 3.9008-.01 1.3002-.01 2.6004-.01 3.9007-.01 1.3095 0 2.6098-.01 3.91-.01h1.5789c.3993-.01.7987-.01 1.2074-.01h.5944c1.3652 0 2.7398 0 4.1143-.01 1.1238 0 2.2661-.01 3.3992-.01h1.4117c1.0216 0 2.0525-.01 3.0742-.01 1.3002 0 2.6004-.01 3.8914-.01 2.4055-.01 4.8016-.01 7.2071-.01h.8173c2.5262-.01 5.0616-.01 7.5878-.01h6.009c2.0711-.02 4.1422-.02 6.2133-.02 5.684 0 11.3678 0 17.0708.01 1.448-.01 2.907 0 4.355 0 1.728 0 3.455.01 5.183.01 1.737 0 3.473.01 5.219.01h1.338c.511.01 1.04.01 1.56.01h1.003c1.635.01 3.26.01 4.895.01 1.365 0 2.721.01 4.086.01 8.452.02 16.931.05 25.42.09 1.885.01 3.78.01 5.665.02.752.01 1.486.01 2.238.01.818 0 1.654.01 2.471.01 2.443.01 4.894.02 7.337.04 2.192.01 4.319 1.9 4.765 4.51.046.26.037.53.027.8-.009.44-.027.83-.204 1.22 0 .01-.009.02-.009.04-.27.53-.715.91-1.143 1.27-.362.31-.715.61-1.077.91-.371.31-.762.66-.938 1.16-.065.2-.093.41-.102.62-.009.31.028.61.065.91 0-.41.065-.84.278-1.16.103-.15.233-.28.372-.4.752-.7 1.495-1.41 2.248-2.11.139-.13.297-.26.464-.21.353.12.204 3.67.214 4.1z" fill="url(#c)"/><path d="m4.70984 9.53992v.12c0 .12 0 .24-.01857.35998-.00929.04-.00929.09-.02787.13-.00928.04-.04643.06-.06501.09-.10216.14-.15788.33-.2972.42-.05572.04-.12073.06-.18575.08-.21361.06-.42722.12-.64083.18.19504-.12.39007-.24.57582-.37.0743-.05.1486-.1.19504-.19.02786-.05.04644-.11.05572-.17.01858-.07.02787-.14.03715-.20998.03715-.25.04644-.5.03715-.75 0-.05-.00928-.1 0-.15.00929-.04.02787-.07.03715-.11.06502-.29.10216-.6.13003-.9.01857-.16.02786-.32.03715-.49.00928-.14.01857-.28.01857-.41.05573.79.08359 1.58.11145 2.37z" fill="#eb924d"/><path d="m184.895 11.89c.046 1.63-.056 3.23-.204 4.84-.056.63-.195 1.24-.409 1.79-.158.42-.362.82-.594 1.19.139-.67.26-1.34.352-2.02.26-1.94.335-3.91.335-5.87 0-.98.009-1.97998-.028-2.95998-.019-.36-.214-.22-.39-.07-.632.54-1.328 1-1.858 1.67998-.241.31-.445.67-.594 1.06-.242.61-.297 1.27-.242 1.94.028.29.01.58-.037.87-.028.21-.074.42-.12.62-.028.1-.056.2-.084.3-.019.07-.093.2-.093.26-.046-1.05-.093-2.09-.121-3.14-.009-.34-.009-.71.103-1.02.083-.22.213-.4.343-.59-.009.31.028.61.065.91 0-.41.065-.84.279-1.16.102-.15.232-.28.371-.4.753-.69998 1.496-1.40998 2.248-2.10998.139-.13.297-.26.464-.21.353.11.205 3.65998.214 4.08998z" fill="#eb924d"/><path d="m27.9465 22.2c-1.133.46-2.6655.01-3.78 0-1.6067-.03-3.2134-.01-4.8202-.02-.0278-.07-.065-.15-.0928-.23-.0093-.02-.0279-.04-.0372-.06-1.5696-2.29-2.9998-4.65-4.17-7.26-2.1269-4.73-3.2692-9.97-5.70255-14.43.83585-.01 1.68105-.01 2.52615-.01.1486.2.288.4.4273.6-.0465-.2-.0929-.4-.1393-.6 2.006-.01 4.0121-.02 6.0089-.03 1.3746 4.05 2.8977 8.03 4.5602 11.89 1.4488 3.36 3.5385 6.71 5.2195 10.15zm2.8791-11.37c-2.6376-3.82-5.4238-7.35-8.3772-10.68-.5387 0-1.0774 0-1.6161.01 3.3342 3.82 6.4641 7.86 9.3989 12.27 2.1176 3.18 4.2166 6.72 6.5198 9.98.6595 0 1.3189.01 1.9783.01.195 0 .3993 0 .5944.01-2.8791-3.8-5.7397-7.61-8.4981-11.6zm29.5899.79c-.8916-3.94-1.8668-7.81-3.1299-11.58h-1.4117c.9845 4.06 1.6439 8.2 2.2012 12.39-.0558-.12-.1208-.26-.1672-.39-1.5789-3.72-3.2042-8.3-5.4332-11.99-1.3745.01-2.7491.01-4.1143.01.4736 2.08 1.2166 4.1 1.8389 6.07.9473 3.04 1.9968 6.03 2.9813 9.04.7522 2.28 1.4209 4.88 2.2754 7.38 1.2167.01 2.4333.02 3.65.03 1.2166.01 2.424.01 3.6499.01-.455-3.72-1.5417-7.45-2.3404-10.97zm36.7133-1.6c-1.2352-3.18-2.5262-6.59-4.4672-9.23-.2044-.26-.3808-.52-.5666-.79-2.1361 0-4.2722 0-6.4083.01.2972 1.38.7337 2.74 1.0216 4.33.6223 3.49 1.7182 6.89 2.4983 10.36.4087 1.8.9752 4.97 1.9133 7.85.7244.08 1.4395.18 2.1546.29.0186-.8.0372-1.61.0558-2.42.1764.64.3715 1.31.7987 1.76 1.003 1.06 2.6562.41 3.8543.48.9102.05 1.8203.03 2.7307.01-.084-4.36-2.4892-9.83-3.5852-12.65zm16.1142 6.89c.092-5.33 1.003-11.41.278-16.9-1.449 0-2.907-.01-4.356 0-1.662 4.47-2.21 9.78-2.749 14.39-.213 1.84-.798 5.14-.826 8.25 1.597-.01 3.204-.01 4.811-.01.947-.01 1.904-.01 2.86-.01.093-2.29-.037-4.52-.018-5.72zm19.466-16.86c-.808 2.71-1.347 5.6-1.96 8.2-1.151 4.87-2.191 9.36-2.331 14.3.873-.01 1.746-.01 2.619-.02.26 0 .53 0 .79-.01 1.235-3.99 1.941-8 2.767-12.27.623-3.23 1.681-6.72 2.192-10.19-1.356 0-2.712-.01-4.077-.01zm37.41.14c-1.254 4.16-2.554 8.31-3.919 12.42.241-1.53.492-3.05.733-4.58.372-2.29.985-5.18.948-7.85-1.886-.01-3.78-.01-5.666-.02-1.058 3.12-1.56 6.85-2.099 9.26-.91 4.07-2.191 8.52-2.312 12.87 1.449-.02 2.916-.04 4.374-.06 1.718-.02 3.446-.04 5.164-.07.854-2.34 1.523-4.81 2.173-7.13 1.366-4.92 2.378-9.77 3.074-14.83-.826-.01-1.653-.01-2.47-.01z" fill="url(#d)"/><path d="m123.56 17.3101c.195.02.399.04.594.07.214.03.427.06.632.1.185.03.325.02.511.02 1.736-.05 3.473-.06 5.21-.09s3.473-.06 5.21-.09 3.474-.06 5.21-.09c1.737-.03 3.474-.06 5.211-.09 1.736-.03 3.473-.06 5.21-.09s3.473-.06 5.21-.09 3.474-.06 5.21-.09l5.211-.09c.761-.01 1.532-.03 2.294-.04 2.405-.04 4.811-.09 7.216-.26 1.022-.07 2.08-.18 2.981-.76s1.914-1.88 1.783-3.1c-.027 1.15-.046 2.3-.074 3.45-.009.65-.065 1.38-.483 1.79-.381.37-.928.32-1.421.27-4.458-.45-8.934.55-13.411.55-2.6 0-5.182-.34-7.783-.4-5.312-.12-10.43-.25-15.742.02-4.616.23-9.241.46-13.857.19-.65-.04-1.309-.08-1.941.09-.39.11-.771.3-1.17.36-.437.07-.882 0-1.319-.08-.724-.12-1.44-.25-2.155-.37-.334-.06-.724-.19-1.058-.17-.056 0-.093.03-.149.04-.232.05-.492.03-.724.04-.846.03-1.681.04-2.527.06-3.622.05-7.244.11-10.866.16-4.532.07-9.0552-.93-13.5411-.15-3.7707.66-7.625-.28-11.4143.15-.6129.07-1.2166.18-1.8389.18-.7244.01-1.4395-.12-2.1547-.21-2.7491-.34-5.526-.1-8.2844.14-.0371.28-.0186.57.065.84-.8916-1.1-2.3311-1.15-3.6128-1.12-1.1424.03-2.2847.04-3.4271.04-8.693 0-17.3768-.27-26.0699-.19-1.9132.02-3.8357.05-5.7303.39.6687-.83 1.7274-1.01 2.6933-1.13 4.2351-.55 8.5073.09 12.761.27 3.9843.17 7.9408-.55 11.9065-.92 1.969-.19 3.9472-.3 5.9254-.17.9102.06 1.7925.23 2.6934.34.13.02.2415-.01.3715-.03.3808-.07.808.03 1.1888.06.4272.03.8637.06 1.3002.08.8637.05 1.7275.08 2.5912.11 1.7275.05 3.4642.06 5.1917.05s3.4642-.03 5.1917-.04 3.4642-.02 5.1917.01c.4458.01.8823.02 1.3281.03 5.4146.15 10.857.69 16.216-.2.371-.06.761-.18 1.124-.07.167.05.343.03.52.02.436-.02.864-.03 1.3-.04.864-.02 1.737-.02 2.601-.02 1.235.01 2.461.03 3.696.05 1.978.04 3.956.07 5.925.11.845.02 1.691.03 2.536.09.288-.02.511 0 .743.02z" fill="#eb924d"/><path d="m28.6417 21.7396c-.0093.01-.0279.02-.0372.04-.195.19-.4272.33-.6594.42-1.133.46-2.6655.01-3.78 0-1.6067-.03-3.2134-.01-4.8202-.02h-.4736c-4.2722-.06-8.5445-.12-12.826-.19-2.12683-.04-3.87287-1.67-4.55085-4.05-.45509-1.58-.48295-3.28-.510813-4.95-.009288-.45.027863-.99.352923-1.21.13002-.09.2972-.11.4458-.12.63155-.06 1.27238-.12 1.90393-.18.23218-.02.48295-.04.69656.09.20432.13.34363.47.21361.71.01857-.46.03715-.91.05572-1.37.2229-.02.45509-.04.67799-.06-.10216 1.67-.11145 3.35-.04644 5.02.01858.47.0743 1 .38079 1.29.23218.21.54796.23.84516.24 8.22872.17 16.46662.32 24.69532.44-.2879.44-.5851.87-.873 1.31.2136-.23.1115-.69-.1207-.88s-.548-.2-.8266-.2c-7.5693-.01-15.1293-.07-22.69856-.19-.57583-.01-1.21666-.05-1.64388-.52-.41794-.47-.48295-1.23-.52939-1.92-.05572-.93-.11145-1.86-.16717-2.79-.00929-.21-.02786-.44-.15789-.58-.09287-.11-.23219-.16-.36221-.19-.72442-.17-1.49528-.01-2.13612.43-.10216.07-.20432.16-.26005.28-.03714.09-.04643.18-.05572.28-.1486 1.49-.390073 4.25.51081 5.44.62226.82 1.04948 1.86 1.81106 2.52.93803.81 2.24756.87 3.35277.94 1.04019.06 2.06182.11 3.10205.15.3157.01.6315.07.9473.05.13-.01.2507-.05.3808-.04.1021 0 .1671 0 .2693-.05.2136-.13.3715-.36.4922-.61.1579-.32.2694-.68.4737-.96-.1207.32-.1765.68-.1486 1.03 0 .06.0093.12.0279.17.0371.1.1021.14.1857.15.3158.05.6408.04.9659.05.6501.03 1.3003.06 1.9504.08 1.3002.05 2.6005.08 3.9007.09.6408.01 1.3003.06 1.9318 0 .0929-.01.1765-.06.2786-.07.1579-.01.3158.01.4737.02.325.01.6501.03.9752.04.873.04 1.746.14 2.619.14.5108.03 1.0217.05 1.5325.08.5015.03.8265-.12 1.2352-.35z" fill="#eb924d"/><path d="m91.2397 18.2798c-28.7539 0-57.4057-.23-85.13811-.68-.62226-.01-1.13307-.58-1.20737-1.33-.34363-3.71-.37149-7.11996-.0743-10.39996.06502-.7.5944-1.25 1.20737-1.25 8.49801-.04 16.98681-.08 25.48481-.12 8.5166 0 17.0239-.05 25.5405-.08 1.3653-.01 2.8234.26 4.1143-.3 1.1053-.6 2.0061-1.62 2.9813-2.48-.4644.59-.9194 1.19-1.3467 1.82-.0743.1-.1857.21-.2414.33-.1486.3.0836.44.3065.45.9194.06 1.8389.11 2.7676.17.418.03.8173.01 1.226-.02.1578-.01.325.03.4829.03h.6501c.8638 0 1.7275-.01 2.6005-.01h1.0124c1.7367 0 3.4735 0 5.2102-.01h5.2103 5.2195 4.3837c4.263 0 8.5162 0 12.7792.01 2.164 0 4.328 0 6.492.01h1.561c.222 0 .418-.04.631.04.139.05.269.06.418.06.399 0 .79-.04 1.18-.1.213-.04.418-.08.622-.16.343-.14.65-.38.919-.65.242-.24.437-.51.734-.66.316-.16.567-.39.836-.63.344-.31.696-.61 1.04-.92.307-.27.613-.539996.92-.809996-.901 1.369996-2.239 2.319996-2.889 3.879996.028-.07.52-.09.604-.1.213-.03.418-.04.631-.05.418-.02.846 0 1.263.05.836.1 1.681.06 2.517.06 1.719 0 3.437.01 5.155.01s3.446.01 5.164.01c1.727 0 3.445.01 5.173.01 1.727 0 3.455.01 5.182.01 1.728.01 3.464.01 5.192.02 1.737.01 3.464.01 5.201.02s3.473.01 5.201.02c1.737.01 3.473.01 5.21.02s3.474.01 5.21.02c1.737.01 3.474.02 5.211.02 1.736.01 3.473.02 5.219.03h.91c.632 0 1.161.57 1.226 1.32.279 3.23.251 6.60996-.093 10.31996-.065.76-.594 1.33-1.216 1.34-29.943.45-59.746.68-88.5933.68z" fill="url(#e)"/><path d="m179.126 11.6396c.205.59.316 1.25.298 1.9-.01.19-.149 1.87-.158 1.87-.92.01-1.839.03-2.759.04-2.823.04-5.637.08-8.451.11-.66.01-1.319.02-1.978.03-2.462.04-4.932.07-7.403.1-1.003.01-1.996.02-2.99.04-.139 0-.269 0-.409.01-.492 0-.994.01-1.486.01-2.823.03-5.656.06-8.479.08-3.39.03-6.808.2-10.198-.02-.26-.01-.576-.07-.696-.34-.103-.23-.028-.51.055-.75.298-.89.595-1.79.892-2.68-.632 1.04-1.328 2.03-2.062 2.96-.279.35-.585.7-.947.91-.075.04-.14.07-.214.1-.26.1-.511.09-.799.01-.418-.12-.873-.05-1.3-.05-.446 0-.891.01-1.346.01-.511.01-1.013.01-1.514.01-4.05.02-8.108.04-12.158.06-.966.01-1.922.01-2.879.01-1.737.01-3.483.01-5.219.01-3.037.01-6.074.02-9.1113.02-2.1919.01-4.3837.01-6.5755.01h-6.1483c-3.4735-.01-6.9378-.01-10.402-.02h-.7337c-3.2228-.01-6.4362-.02-9.6497-.04-.8637 0-1.7274-.01-2.5912-.01h-.0464c-.4087 0-.8359 0-1.2445-.01-.2601 0-.548-.03-.8266-.02-.1208.01-.2415.01-.3715.04-.7151.18-1.4117.17-2.1547.18-.1579 0-.3065.01-.4644.01-.2786.01-.5479.01-.8266.01-.1393.01-1.1888-.09-1.2352.02.3901-.83.8173-1.62 1.3003-2.37.2879-.47.6036-.91.9287-1.35-.4087.21-.7709.51-1.1052.85-.4272.42-.8266.91-1.2445 1.35-.6223.66-1.4582 1.4-2.3312 1.39-.26 0-.4922-.15-.7523-.19-.0185 0-.0371-.01-.0557-.01-.2508-.03-.5294.01-.7801.01-.5851.01-1.1703.02-1.7554.03-.1393.01-.3065-.01-.3993-.14-.1022-.15-.0372-.38.0371-.56.3715-.96.7987-1.88 1.2817-2.76-.8359.64-1.4117 1.65-2.1547 2.44-.3529.37-.7523.68-1.1981.86-.4736.2-.8451.14-1.3281.07-.2415-.04-.4922.01-.743.01-1.3652-.01-2.7398-.03-4.105-.04-1.9318-.01-3.8543-.04-5.7861-.06l-2.4055-.02c-.7894-.01-1.5789-.02-2.3683-.03-1.3095-.01-2.6283-.03-3.9379-.05-2.1732-.02-4.3372-.05-6.5105-.08-.9659-.01-1.9225-.03-2.8791-.04-1.1609-.02-2.3219-.04-3.4921-.05-.5108-.01-6.07398.03-6.08327-.1-.03715-.45-.02786-.92-.13002-1.35-.06502-.26-.18575-.48-.2229-.74-.09288-.63.06501-1.51.59439-1.81.17647-.1.39008-.12.58511-.15 1.5603-.16 3.12989-.33 4.69019-.49.1114-.01.2136-.03.325-.03-1.5788-.04-3.16698-.07-4.75514-.12-.33435-.01-.70584-.02-1.01233-.21-.18575-.11-.25076-.18-.27862-.4-.04644-.28002.06501-3.31002.12073-3.31002 1.99681-.01 4.00286-.02 6.00896-.03 2.7398-.01 5.4889-.03 8.238-.04 1.2538-.01 2.5169-.01 3.78-.01 1.1609-.01 2.3126-.01 3.4828-.01 6.9192-.03 13.8662-.05 20.8411-.07 1.3095-.01 2.6097-.01 3.9193-.01 1.3188-.01 2.6376-.01 3.9564-.01.6687-.01 1.3374-.01 2.0061-.01 4.1608-.01 8.3216-.02 12.4917-.02h.39c5.0896-.01 10.1977-.01 15.2965-.01h7.2349c2.229 0 4.458.01 6.678.01.511 0 1.04 0 1.56-.01.39 0 .78-.05 1.161.12.316.15.585.27.938.29.158.01 1.309-.01 1.347-.22-.205 1.21-.483 2.41-.818 3.59002.697-.46002 1.106-1.34002 1.542-2.14002.26-.48.567-.98.957-1.33.028-.03.065-.06.102-.09.186-.15.418-.33.65-.31.529.02 1.068.09 1.607.1.39.01.771.09 1.142.12.567.06 1.105.01 1.625.36.01 0 .01.01.01.01l-.019.02c-1.198 1.84-2.396 3.69002-3.594 5.53002-.167.26-.344.53-.455.83 1.384-1.43 2.693-2.98 3.91-4.62002.316-.42.622-.84.91-1.27.158-.23.325-.47.548-.59.186-.1.399-.12.604-.14 2.925-.27 5.99-.23 8.99-.23 2.498.01 4.987.01 7.476.01.938 0 1.876.01 2.814.01h.195c3.381.01 6.762.01 10.142.03 3.455.01 6.919.02 10.374.04.632 0 1.254 0 1.886.01h1.086c1.059.01 2.109.01 3.167.01 1.421 0 2.842.01 4.263.01.455 0 .911.01 1.366.01.334 0 .678 0 1.012.01 1.105 0 2.22.01 3.325.01 1.579 0 3.148.01 4.727.02 1.31 0 2.61.01 3.91.01.065 0 .074 1.9.112 2.08.027.11.083.19.102.31.046.3-.13.62-.325.78-.26.22002-.595.26002-.91.31002-2.926.39-5.879.77-8.814.61-.4-.01-.79-.04-1.18-.09.39.05.771.1 1.161.14 3.167.38 6.381.61 9.603.7z" fill="url(#f)"/><g fill="#eb924d"><path d="m184.717 5.54c-.009.44-.028.83-.204 1.22.418-2.14-.697-4.59-2.461-5.25-.613-.23-1.263-.28-1.904-.31-3.882-.23-7.764-.45-11.647-.6-.018 0-.037-.01-.055-.01-1.737-.07-3.474-.12-5.201-.15-1.737-.04-3.474-.07-5.211-.08-1.736-.01-3.473-.01-5.201-.01-1.736.01-3.473.02-5.21.04-1.737.03-3.473.06-5.21.1s-3.474.07-5.21.12c-1.737.04-3.474.1-5.211.15-.863.02-1.736.04-2.609.07-.548.01-1.05.01-1.561-.14-.083-.02-.158-.05-.241-.08-.232-.1-.474-.17-.725-.2-.362-.05-.724-.04-1.086-.04-1.087-.01-2.173-.02-3.251-.04-4.3-.04-8.591-.1-12.882-.15-.352 0-.724-.03-1.077.04-.074.01-.139.04-.204.07-.204.1-.4.2-.604.29-.492.23-.994.46-1.486.7 0-.18 0-.36.009-.53 0-.04 0-.08-.018-.1-.019-.02-.056-.03-.084-.03-.297-.03-.594-.06-.891-.1-.14-.01-.279-.02-.409-.05-.084-.02-.158-.07-.241-.09-.279-.06-.595-.01-.873-.01-.307 0-.604 0-.911 0-1.3.01-2.609.01-3.9004.01-1.3095.01-2.6097.01-3.91.01-1.3095.01-2.6098.01-3.91.01-1.3003.01-2.6098.01-3.9007.01-.3344 0-.6595 0-.9845.01h-.2786c-.2044.01-.4273.01-.6223-.02-.1765-.03-.3344-.12-.5108-.15-.2786-.05-.5758-.01-.8545-.01-.7708.01-1.5324.03-2.294.04-1.3095.03-2.6097.05-3.91.07-1.3095.02-2.6098.04-3.91.06-1.3095.02-2.6098.04-3.91.05-1.3188.04-2.6191.06-3.9286.07-1.3096.01-2.6098.02-3.91.03-1.3096.01-2.6098.01-3.9101.02-1.3095.01-2.6097.01-3.91.01h-5.8697c-.2507 0-.4922.01-.7337-.09-.0928-.03-.1764-.06-.2786-.07-.5944-.07-1.2166-.01-1.811-.02-1.3003-.01-2.6005-.02-3.9101-.03-1.3095-.01-2.6097-.01-3.91 0-1.3095 0-2.6098.01-3.91.03-1.291.02-2.5819.08-3.8729.13-.6501.02-1.3095.05-1.9596.07-.3251.01-.6502.02-.9752.04-.1672.01-.3251.01-.4923.01-.0464.01-.4643-.01-.4643.02-.0465.18-.065.36-.065.55-.3251-.61-1.0402-.67-1.6532-.67-.6501.01-1.3095.01-1.9597.02-1.3095.01-2.6097.02-3.91.03-1.3095.01-2.6098.03-3.91.04-.6594.01-1.3095.01-1.9597.02-.1393 0-.2786.02-.4179-.02-.3622-.12-.7523-.12-1.1238-.18-1.57884-.2-3.18557-.4-4.76444-.1-1.98752.38-3.98432 1.67-4.76447 3.88-.55724 1.56-.43651 3.33-.30648 5.02.02786.29.04643.57.10216.86.04644.23.11145.47.2229.7-.13931-.05-.27863-.12-.40865-.23-.08359-.07-.08359-.11-.10216-.23-.03715-.18-.08359-.34-.120739-.52-.139312-.68 0-1.48.037149-2.17.04644-.75.09288-1.55.1486-2.28.26934-2.94 2.37759-5.16 4.85734-5.18 1.10521-.01 2.21971-.01 3.32491-.01.83588-.01 1.68108-.01 2.52618-.01h.2972c2.0061-.01 4.0122-.02 6.009-.03.8916-.01 1.7739-.01 2.6655-.01.5294-.01 1.0773-.01 1.616-.01 1.0124-.01 2.0247-.01 3.037-.01 1.3003 0 2.6005-.01 3.9007-.01 1.3003-.01 2.6005-.01 3.8915-.01 1.3095-.01 2.6098-.01 3.9007-.01 1.3003-.01 2.6005-.01 3.9008-.01 1.3095 0 2.6097-.01 3.91-.01h.0836c.2507.01.5015.02.7523 0 .0371 0 .0743 0 .1114-.01.0929-.01.1765-.04.2693-.03.1022.01.2044.03.2972.04h.0651c.3993-.01.7987-.01 1.2073-.01h.5944c1.3653 0 2.7398 0 4.1144-.01 1.1237 0 2.2661-.01 3.3992-.01h1.4117c1.0216 0 2.0525-.01 3.0741-.01 1.3003 0 2.6005-.01 3.8915-.01 1.3095 0 2.6097 0 3.9007-.01h4.1236c1.2353 0 2.4519 0 3.6779-.01h5.8696c.3251 0 .6502-.01.9845 0 .1022.01.1858.05.2879.04.0743-.01.1579-.02.2229-.04h2.5634c2.0618-.02 4.1329-.02 6.204-.02 5.6839 0 11.3675 0 17.0705.01 1.449-.01 2.907 0 4.356 0 1.727 0 3.455.01 5.182.01 1.737 0 3.474.01 5.22.01h1.337c.353.01.669.15 1.022.12.185-.01.362-.06.529-.11h1.003c1.635.01 3.26.01 4.895.01 1.365 0 2.721.01 4.086.01 8.452.02 16.931.05 25.42.09 1.885.01 3.78.01 5.665.02.752.01 1.486.01 2.238.01.818 0 1.654.01 2.471.01 2.443.01 4.894.02 7.337.04 2.192.01 4.319 1.9 4.764 4.51.047.27.038.54.028.8z"/><path d="m62.476 3.69969c-.0743.09-.13.18-.1486.29-.0093.07-.0279.32.0093.37.0557.07.39.01.4736.01.3251-.01.6502-.01.9752-.03.5758-.02 1.161-.05 1.7368-.08-.3622-.1-.7337-.03-1.1052-.01-.5759.03-1.1703-.22-1.7275-.38.2693-.4.5387-.79.8173-1.19-.0929.13-.2415.24-.3529.35-.1208.12-.2415.24-.3622.37-.0929.09-.2137.19-.3158.3z"/><path d="m117.654 3.54008c-.084.12-.149.25-.13.39.018.13.12.22.223.26.102.04.213.03.325.02.548-.05 1.095-.09 1.643-.14.26-.02.511-.04.771-.02.409.03.808.17 1.208.25.752.14 1.532.04 2.284.16-.027 0-.065.02-.092.03-.038.01-.075.02-.103.02-.065.01-.139.02-.204.02-.139.01-.279-.01-.418-.02-.279-.04-.566-.1-.845-.12-.139-.01-.279-.01-.418.02-.056.01-.111.02-.167.01-.047-.01-.093-.02-.139-.03-.316-.03-.651 0-.966.01-.242.01-.483.02-.725.03-.464.03-.919.06-1.384.09-.325.02-.64.03-.966.04-.065 0-.12-.01-.176.02-.046.02-.102.03-.149.03-.102 0-.204-.05-.269-.14-.019-.02-.028-.05-.037-.07 0-.03.009-.06.019-.08.074-.19.157-.38.26-.55.046-.08.102-.17.167-.24.018-.02.046-.03.065-.05.055-.05.083-.14.12-.21.307-.54.697-1.02 1.152-1.38.056-.05.112-.07.167-.11.075-.05.13-.14.195-.21.13-.16.242-.33.363-.49-.363.51-.725 1.02-1.059 1.55-.056.09-.121.14-.186.21-.167.2-.325.44-.483.65-.019.02-.028.04-.046.05z"/><path d="m71.3362 22.6298c-.6687 0-1.3374-.01-2.0061-.01-1.6996 0-3.4085-.01-5.1081-.02-.4829 0-.9751-.01-1.4581-.01-1.2167-.01-2.4333-.01-3.65-.01-1.2166-.01-2.4333-.01-3.6499-.03-.483 0-.9659 0-1.4489-.01-1.6996-.01-3.3992-.02-5.0895-.04-1.6996-.01-3.3992-.03-5.0895-.04-1.5046-.01-2.9906-.03-4.4952-.04-.195-.01-.3993-.01-.5944-.01-.6594 0-1.3188-.01-1.9782-.01-1.9411-.02-3.8822-.07-5.8325-.14-.1672-.01-2.1176.12-1.8854-.35.0093-.01.0093-.01.0093-.01.4458-.77.9566-1.57 1.3653-2.31-.0836.2-.1765.4-.2601.61-.2229.5-.4365 1.01-.6501 1.51 1.0588.27 2.1361.34 3.2227.39 12.761.64 25.5406-.14 38.3015.35.0836 0 .1951.08.2972.18z"/><path d="m86.7347 21.9505c.0093.13 0 .26-.065.35-.1858.25-.5108.07-.743.12-.1207.03-.1765.1-.2879.16-.2879.15-.6316.08-.9473.08-1.7089 0-3.4178-.01-5.1267-.01-1.7089-.01-3.4178-.01-5.1267-.01-1.0402-.01-2.0711-.01-3.1113-.01h-.1393c.1207-.11.2693-.1.4272-.11.9938-.04 1.9875-.09 2.9813-.11.9845-.03 1.9782-.05 2.972-.06.9937-.01 1.9875 0 2.9813.01.9844.01 1.9782.04 2.9719.07.1208.01.2322.01.353.01.938.04 1.9596.05 2.7026-.63.0372.09.0929.14.1579.14z"/><path d="m87.8601 21.9306c.3808.33.8358.45 1.3188.49-.4272.01-.8545.07-1.2167.32-.3993-.78-.7987-1.57-1.1888-2.35.3622.51.6316 1.14 1.0867 1.54z"/><path d="m93.2826 22.3401c0-.01.0093-.01.0093-.01-.0093.18-.0093.35-.0093.53-.7151-.12-1.4302-.21-2.1547-.29-.4458-.04-.8916-.09-1.3467-.12.0836-.01.1672-.01.2508-.01 1.0774-.04 2.164-.08 3.2506-.1z"/><path d="m105.674 22.6501h-.428c-1.086 0-2.182.01-3.269.01-.418 0-.836.01-1.263.01-.9102.01-1.8203.04-2.7305-.01-1.1981-.07-2.8606.59-3.8543-.48-.1022-.1-.1858-.22-.2601-.35 1.5696 1.05 3.5571.78 5.3868.62 2.1361-.17 4.2911-.11 6.4181.2z"/><path d="m146.611 22.15c.334-.17.641-.4.901-.69-.028.08-.047.15-.084.23-.093.25-.223.53-.446.56-.176.04-.343-.08-.52-.07-.13.01-.176.09-.279.15-.074.04-.13.04-.204.05-.483.07-1.021.01-1.504.01-1.022.01-2.044.02-3.065.03-1.718.01-3.455.03-5.173.04-1.468.01-2.926.02-4.393.03-.26.01-.53.01-.79.01-.873.01-1.746.01-2.619.02-.845 0-1.699.01-2.545.01-1.718.01-3.445.02-5.163.03-1.719.01-3.437.01-5.155.02-.771 0-1.532.01-2.294.01-.957.01-1.913.01-2.861.01-1.578.01-3.157.01-4.727.01h-1.542c.13-.09.27-.14.428-.15 1.291-.07 2.582-.15 3.873-.21.575-.04 1.16-.09 1.736-.1.121 0 .232.01.353.03.167.02.335.08.492.13.502.15 1.022.03 1.524-.03.269-.03.548-.12.817-.04.13.04.26.04.399.06.27.03.539.04.808.04.548-.01 1.096-.07 1.635-.19.083-.01.167-.04.26-.01.093.02.167.09.26.15.511.35 1.161.18 1.755.07.428-.07.855-.12 1.282-.14.223 0 .436 0 .659.01.966.04 1.932.04 2.898.06 1.3.02 2.601.03 3.901.04 1.309 0 2.61-.01 3.91-.02 1.309-.01 2.61-.04 3.91-.08.696-.01 1.393-.04 2.09-.06.705-.02 1.411-.05 2.117-.01.641.04 1.272.12 1.923.12.278 0 .566.01.835-.1.168-.06.307-.18.465-.23.093-.04.186-.06.278-.07.548-.08 1.106-.01 1.654.01.77.02 1.523.07 2.294.13.037.05-.14.12-.093.13z"/><path d="m184.291 18.5195c-.761 2.03-2.461 3.44-4.42 3.47-.697.01-1.394.02-2.081.03-1.737.03-3.473.05-5.21.08-1.737.02-3.474.04-5.21.07h-.028c-1.718.02-3.446.04-5.164.07-1.458.02-2.916.04-4.374.06-.279 0-.548.01-.827.01-1.737.01-3.464.04-5.192.05-.52.01-1.049.04-1.56.01-.529-.02-1.068-.08-1.597-.08-.093 0-.195-.01-.279-.07-.158-.1-.195-.34-.223-.55-.046-.33-.074-.66-.093-.99.009-.01.009-.02.019-.04-.019.55.343 1.04.761 1.25.428.22.901.22 1.366.22 1.699 0 3.399 0 5.098-.01.799 0 1.607 0 2.406-.01.39 0 .771 0 1.152-.01.195 0 .39 0 .585-.01.195 0 .408.02.603-.01.121-.02.223-.05.353-.06.158-.01.325-.02.483-.03.65-.03 1.3-.06 1.951-.09 1.049-.04 2.099-.08 3.139-.11 1.021-.03 2.024-.05 3.037-.07 1.189-.02 2.377-.04 3.566-.07 1.17-.02 2.331-.04 3.511-.01 1.254.03 2.498.12 3.752.01.631-.05 1.263-.15 1.876-.34.121-.04.241-.1.371-.12.019-.01.047.01.075 0 .055-.01.111-.05.148-.1.372-.32.734-.66 1.068-1.02.149-.15.298-.3.39-.5.065-.13.103-.27.158-.41.093-.23.242-.43.39-.62z"/></g><path d="m25.6343 15.6804c-2.1733-.02-4.3372-.05-6.5105-.08-.9659-.01-1.9225-.03-2.8791-.04-.1765-.39-.3529-.76-.5108-1.12-1.1517-2.48-2.1826-5.04998-3.1206-7.65998 2.7398-.01 5.4889-.03 8.238-.04.4458.81.8823 1.62 1.3281 2.43 1.1516 2.14998 2.3404 4.29998 3.4549 6.50998zm6.3062-3.45c-1.226-1.9-2.4798-3.76998-3.8357-5.51998-1.161 0-2.3219.01-3.4828.01 1.3002 2.89 2.8605 5.59998 4.5044 8.26998.1486.24.2972.48.4458.73.7894.01 1.5789.02 2.3683.03l2.4054.02c-.8265-1.21-1.6624-2.39-2.4054-3.54zm20.9246-5.59998c-1.3095 0-2.6097 0-3.9193.01.4923 3.18 1.2817 6.28998 2.3219 9.26998.0186 0 .0371.01.0557.01.2601.04.4923.19.7523.19.873.01 1.7182-.73 2.3312-1.39.4179-.44.8172-.92 1.2445-1.35-.808-2.31-1.7461-4.55998-2.7863-6.73998zm2.972 7.23998c-.4829.75-.9101 1.54-1.3002 2.37.0464-.11 1.0959-.01 1.2352-.02.2786-.01.548-.01.8266-.01-.2322-.79-.4922-1.57-.7616-2.34zm2.9906-7.24998c-.6687 0-1.3374 0-2.0061.01.873 3.13 1.7832 6.25998 2.7677 9.33998.2786-.01.5665.02.8265.02.418.01.8359.01 1.2446.01-.8824-3.16-1.839-6.27998-2.8327-9.37998zm36.8898 3.87998c-.4644-1.32998-.9659-2.62998-1.4767-3.91998h-7.235c.3901 2.82.9474 5.56998 1.6718 8.34998.1021.38.195.76.2972 1.15h2.2847c2.1918 0 4.3837 0 6.5755-.01-.7244-1.87-1.4674-3.73-2.1175-5.57zm15.3805-3.77998c-.381-.04-.762-.11-1.143-.12-.539-.01-1.077-.08-1.607-.1-.232-.01-.464.16-.65.31-.028.03-.065.06-.102.09-.102 1.73-.158 3.38998-.278 4.78998-.121 1.41-.261 2.88-.381 4.36 1.736 0 3.483 0 5.219-.01.065-1.24.112-2.44.167-3.62.047-1.08.149-2.28.261-3.55998.046-.56.102-1.15.139-1.74.009-.01.009-.02.009-.03-.529-.35-1.068-.31-1.634-.37zm22.819-.08c-.938 0-1.876-.01-2.814-.01-.966 3.04-1.756 6.15998-2.396 9.31998.445 0 .891-.01 1.346-.01.427 0 .883-.07 1.3.05.279.08.539.09.799-.01.678-3.11 1.338-6.22998 1.969-9.34998h-.204zm33.472.12c-.78 2.03-1.56 4.04998-2.378 6.05998.01-.04.019-.09.028-.13.39-1.94.882-3.91998 1.337-5.92998-.455 0-.91-.01-1.365-.01-1.421-.01-2.842-.01-4.263-.01-.306 1.44-.603 2.87-.928 4.23998-.372 1.54-.771 3.12-1.152 4.72 2.47-.03 4.941-.06 7.402-.1.659-.01 1.319-.01 1.978-.03.047-.12.084-.24.121-.36.446-1.42.892-2.84 1.319-4.26.009-.01.009-.04.018-.05.409-1.36998.818-2.73998 1.198-4.11998-1.095-.02-2.201-.02-3.315-.02zm-10.876-.05c-.891 3.01-1.811 6.00998-2.712 9.02998.492-.01.994-.01 1.486-.01.845-2.98 1.598-5.98998 2.313-9.00998h-1.087zm-84.8129-.11h-.3901c.873 3.16 1.7275 6.31998 2.6377 9.45998h.5294c-.8916-3.16-1.8297-6.31998-2.777-9.45998z" fill="url(#g)"/><g fill="#e48a4a"><path d="m39.5363 10.7293v.02c.0186 1.39-.0371 2.78-.1579 4.16-.0743.85-.7894 1.5-1.6346 1.52-9.9468.26-19.9773.26-30.09134 0-.85445-.02-1.54172-.67-1.64388-1.52-.21362-1.71-.26005-3.43-.17647-5.13998.04644-.77.11145-1.53.19504-2.30001.10216-.85.78943-1.50999 1.64388-1.52999 9.94687-.25 19.96807-.26 30.07277 0 .8545.02 1.5696.67 1.6439 1.52.0836 1.09.1393 2.17999.1486 3.26998z"/><path d="m73.7433 10.9813v.02c.0186 1.39-.0371 2.78-.1578 4.16-.0743.85-.7895 1.5-1.6346 1.52-9.9469.26-19.9774.26-30.0914 0-.8545-.02-1.5417-.67-1.6439-1.52-.2136-1.71-.26-3.43-.1765-5.14.0465-.77003.1115-1.53003.1951-2.30003.1021-.85.7894-1.51 1.6439-1.53 9.9468-.25 19.968-.26 30.0728 0 .8544.02 1.5695.67 1.6438 1.52.0836 1.09.1394 2.18.1486 3.27003z"/></g></svg>