<svg fill="none" height="44" viewBox="0 0 43 44" width="43" xmlns="http://www.w3.org/2000/svg" xmlns:xlink="http://www.w3.org/1999/xlink"><linearGradient id="a"><stop offset="0" stop-color="#cf5c2b"/><stop offset="1" stop-color="#59173e"/></linearGradient><linearGradient id="b" gradientUnits="userSpaceOnUse" x1="40.5055" x2="28.591" xlink:href="#a" y1="-21.3326" y2="5.15434"/><linearGradient id="c" gradientUnits="userSpaceOnUse" x1="35.4796" x2="-6.68289" xlink:href="#a" y1="-11.911" y2="85.4294"/><linearGradient id="d" gradientUnits="userSpaceOnUse" x1="30.8487" x2="-11.3138" xlink:href="#a" y1=".114144" y2="97.4543"/><linearGradient id="e" gradientUnits="userSpaceOnUse" x1="22.8396" x2="21.5564" xlink:href="#a" y1="60.9449" y2="20.2488"/><path d="m41.5913 6.25294c-.24-3.26-2.91-5.809997-6.17-5.939997-9.18-.3700005-18.32-.3700005-27.42997-.01-.66.03-1.31.149999-1.93.38-.31.11-.61.25-.89.399997-1.42.78-2.38 2.13-3.12 3.52-.79 1.46-1.589998 3.08-1.689998 4.76-.08 1.35996-.15 2.72996-.2 4.08996-.01.15-.01.29.01.43.01.08.02.16.01.24-.03.44-.01.83.22 1.22.14.23.32.43.55.56-.02-.01-.21.17-.24.19-.08.07-.15.15-.21.23-.13.17-.24.35-.31.55-.08.2-.1299997.41-.1399997.62-.07.85-.05 1.7-.04 2.55.01.74-.06 1.52.06 2.25.0299997.18 0 .37.0399997.55.08.41.27.79.46 1.16-.32.34-.46.81-.4799997 1.28-.02.54.0799997 1.07.0399997 1.61-.0999997 1.46-.01 2.96.08 4.41.01.17.04.34.07.5.09.41.1.84.33 1.2.1.16.23.3.389998.41-.149998-.02-.269998.14-.339998.27-.45.86-.45 1.53-.27 2.45.18.96.13 1.87.48 2.81.289998.78.729998 1.5 1.279998 2.11 1.14 1.27 2.76 2.05 4.46 2.15 9.66997.56 18.97997.61 27.85997.06.04 0 .08-.01.12-.01 1.08-.09 2.13-.44 3.04-1.03.89-.57 1.63-1.36 2.15-2.28.6-1.06.89-2.31 1.19-3.48.19-.72.48-1.64.4-2.41-.05-.44.08-.87.06-1.31-.02-.5-.15-.99-.38-1.43-.03-.05-.06-.11-.06-.17-.01-.14.14-.24.25-.33.26-.2.43-.51.49-.83.01-.08.02-.16.01-.24-.03-.14-.02-.25-.01-.4.05-1.01.09-2.02.13-3.03.04-1.11.08-2.22.1-3.32.03-1.09.04-2.19.05-3.28.01-1.08.01-2.16 0-3.23 0-.53-.01-1.07-.02-1.6 0-.27-.01-.53-.02-.8-.01-.25-.05-.53-.01-.78.01-.09.04-.16.02-.25-.01-.11-.04-.21-.07-.32-.06-.21-.15-.41-.26-.6s-.24-.36-.4-.52c-.04-.04-.46-.43-.5-.39.13-.12.24-.25.34-.39.26-.37.41-.8.52-1.23996.05-.22.08-.45.11-.68.01-.04.03-.08.03-.13.03-.16-.01-.35-.02-.51-.04-.66-.09-1.34-.14-2.02z" fill="url(#b)"/><path d="m42.0202 13.7526c-.01 1.14-.02 2.28-.03 3.42-.01.54-.01 1.09-.01 1.64 0 .3-.01.5899-.01.88-.02 1.5499-.04 3.1-.08 4.65-.02.77-.04 1.54-.07 2.31-.02.46-.01.89-.16 1.32-.17.48-.16 1.07-.22 1.58-.02.16-.05.3299-.17.45-.11.11-.27.13-.43.14-.25.03-.51.05-.76.08-1.47.15-2.95.29-4.42.33-1.09.02-2.19-.01-3.28-.13.83.12 1.66.25 2.49.37.24.04.47.07.71.11l5.07.75c.15.03.32.05.43.16.17.15.18.4099.17.6399-.02.34-.05.68-.11 1.02-.09.67-.22 1.34-.25 2.02-.01.14.02.2801-.01.4201-.07.43-.39.84-.63 1.18-1.13 1.58-2.93 2.58-4.86 2.6999-8.75.55-17.91.5-27.43-.05-1.37-.08-2.7-.61-3.75-1.5-.62-.5299-1.2-1.2099-1.56-1.9599-.16-.34-.2-.7301-.36-1.0801-.03-.08-.06-.1499-.09-.23-.05-.23-.03-.48.17-.6399.21-.17.51-.1801.78-.19 3.03-.1 6.05-.29 9.08-.38h.09c.92-.03 1.85-.0401 2.77-.0401-.34-.0499-.68-.0999-1.02-.1299-1.56-.19-3.14-.25-4.71-.31-.02 0-.04-.01-.05-.01h-.02c-1.9-.07-3.79-.15-5.66-.45-.36-.06-.73-.13-1.05-.29-.24-.11-.45-.26-.6-.48-.01 0-.02-.0201-.03-.0301-.22-.34-.3-.8499-.23-1.2299.09-.44.03-.87.01-1.34-.04-.8-.09-1.61-.12-2.41-.03-.44-.05-.88-.07-1.32-.01-.24-.02-.51.13-.7.12-.15.33-.2001.52-.25.59-.15 1.18-.3 1.79-.39.27-.05.54-.08.81-.1-.69-.16-1.38-.31-2.08-.47-.21-.05-.42-.1-.61-.2-.04-.02-.09-.05-.13-.08-.34-.25-.43-.59-.48-.95-.02-.1201-.03-.25-.05-.37-.05-.29-.09-.57-.11-.86-.05-.4401-.07-.88-.09-1.32-.04-.96-.09-2.2.52-3.01.22-.2901.61-.36.97-.4 1.41-.17 2.82-.32 4.23-.44.29-.0301.59-.05.88-.08 1.43-.11 2.85-.2 4.29-.27-1.72.08-3.45.05-5.17-.06-1.08-.07-2.16-.18-3.24-.32-.45-.06-.92-.13-1.32-.34-.01-.01-.02-.01-.03-.02-.11-.05-.21-.11-.31-.19-.22-.17-.38-.4-.47-.66-.1-.27-.05-.5-.01-.77.01-.1 0-.2 0-.3-.02-.61.03-1.23.04-1.84.01-.31.02-.62.04-.94.04-1.36005.11-2.72005.19-4.08005.2-3.3 2.88-5.909999 6.18-6.039999 9.1-.3700003 18.24-.3600003 27.43.01 2.95.12 5.52 2.319999 6.07 5.219999.17.89.23 1.86.06 2.76-.04.23-.1.45-.18.66-.05.12-.13.37-.24.47-.01.01-.02.02-.02.02-.08.05-.19.06-.27.08-.54.13-1.08.24-1.62.34-1.08.19005-2.17.32995-3.26.43005-.01 0-.01 0-.01 0-2.2.1899-4.42.23-6.62.26h-.06c.6.04 1.21.07 1.81.11 1.64.09 3.28.19 4.92.29 1.09.06 2.19.12 3.28.19.66.04 1.35.09 1.92.43.01 0 .01.01.01.01.73.49.78 1.37.77 2.2z" fill="url(#c)"/><path d="m42.022 13.7527c-.01 1.14-.02 2.28-.02 3.42-.01.54-.01 1.09-.01 1.64 0 .3-.01.59-.01.88-4.21.27-8.43.64-12.65.9-4.92.3-9.84.63-14.75.94-2.65.17-5.27997.37-7.91997.67-1.77.2-3.45.49-5.17.39-.02-.12-.03-.25-.05-.37-.05-.29-.09-.57-.11-.86 1.74-.37 3.49-.31 5.34-.37 2.48-.08 4.91997-.25 7.38997-.48 4.92-.46 9.84-.94 14.76-1.5 2.93-.34 5.86-.64 8.8-.96-.1-.01-.19-.01-.29-.02-4.81-.26-9.54-1.15-14.33-1.58-4.75-.43-9.52-.8-14.28997-1.08-1.93-.12-4.14-.09-6.32-.24-.01-.01-.02-.01-.03-.02-.11-.05-.21-.11-.31-.19-.22-.17-.38-.4-.47-.66-.1-.27-.05-.5-.01-.77.01-.1 0-.2 0-.3-.02-.61.03-1.23.04-1.84.01-.31.02-.62.04-.94 2.42-.13 4.92.03 7.07.05 4.76997.04 9.52997.27 14.28997.55 4.78.28 9.55.17 14.33.39 1.29.06 2.59.11 3.88.14.77.5.81 1.38.8 2.21zm-15.8 11.17c-8.13.39-16.68997.03-24.60997 2.12.04.8.08 1.61.12 2.41.02.46.08.89-.01 1.34-.07.38.02.89.23 1.23 2.4.63 4.85 1.02 7.34 1.27.02 0 .04.01.07.01 1.55997.16 3.12997.25 4.70997.31 4.07.15 8.17.06 12.15.1 4.98.05 9.96-.05 14.93-.23.05-.34.09-.67.11-1.02.01-.23 0-.48-.17-.64-.11-.1-.28-.13-.43-.16-1.93-.29-3.85-.57-5.78-.86-.83-.12-1.66-.25-2.49-.37 2.56.29 5.14.07 7.71-.19.25-.03.51-.05.76-.08.15-.01.32-.03.43-.14.12-.11.15-.29.17-.45.06-.51.04-1.09.22-1.58.15-.44.15-.86.16-1.32.03-.77.05-1.54.07-2.31-5.23.15-10.47.31-15.69.56z" fill="url(#d)"/><g fill="#e68b4a"><path d="m1.98016 32.0728c-.24-.34-.34-.88-.26-1.28.09-.44.03-.87.01-1.34-.07-1.24-.13-2.49-.19-3.73-.01-.24-.02-.51.13-.7.12-.15.33-.2.52-.25.59-.15 1.18-.3 1.79-.39-.34.26-.67.47-1.07.67-.14.07-.29.14-.39.26-.11.12-.15.3-.19.46-.34 1.56-.16 3.19.03 4.78.08.66.16 1.33.22 2-.24-.11-.45-.27-.6-.48z"/><path d="m1.43239 22.2221c-.12-.72-.17-1.46-.2-2.18-.04-.96-.09-2.2.52-3.01.22-.29.61-.36.97-.4 1.7-.2 3.4-.38 5.11-.51-1.62.54-3.47.54-5.04 1.21-.29.12-.58.27-.74.54-.11.18-.15.39-.18.59-.1.64-.17 1.25-.13 1.9.03.41.06.83.1 1.24.06.68.16 1.35.27 2.02-.04-.02-.09-.05-.13-.08-.47-.32-.46-.83-.55-1.32z"/><path d="m34.6016 30.6729.21.09c-.08-.02-.15-.04-.21-.09z"/><path d="m41.2628 32.4427c-.04 1.03-.32 2.02-.36 3.04-.01.14.02.28-.01.42-.07.43-.39.84-.63 1.18-1.13 1.58-2.93 2.58-4.86 2.7-8.75.55-17.91.5-27.42996-.05-1.37-.08-2.7-.61-3.75-1.5-.63-.52-1.21-1.2-1.57-1.95-.16-.34-.2-.73-.36-1.08-.03-.08-.06-.15-.09-.23-.05-.23-.03-.48.17-.64.21-.17.51-.18.78-.19 3.03-.1 6.05-.29 9.07996-.38-2.65996.15-5.30996.52-7.92996.99-.36.06-.75.09-1.1.19-.05.02-.11.02-.16.07-.06.08-.05.18-.04.27.04.31.21.57.4.82.61.8 1.25 1.64 2.15 2.11 2.16 1.14 4.36.97 6.80996.92.5-.01.99 0 1.49-.09.25-.05.55 0 .8.01.57.02 1.14.03 1.72.05 1.14.03 2.29.06 3.43.1l6.42.18c2.04.06 4.08.11 6.12-.06 2.01-.16 4.02-.54 5.88-1.35.15-.07.33-.12.46-.23.1-.07.18-.16.28-.23.31-.2.61-.4.88-.65.18-.17.44-.39.53-.63.05-.13.08-.28.13-.41.13-.37.2-.76.23-1.15.03-.43.01-.87-.04-1.3-.02-.19.01-.55-.11-.71-.06-.09-.22-.17-.32-.22-.26-.13-.56-.19-.85-.24-1.55-.29-3.07-.76-4.52-1.4 1.93.29 3.85.58 5.78.86.15.03.32.05.43.16.16.14.16.4.16.62z"/><path d="m1.60165 14.2628c-.08-.32-.07-.65-.07-.98.04-1.59.08-3.19.17-4.77998.08-1.46.05-3 .65-4.36.98-2.22 3.21-3.739996 5.65-3.839996 9.10005-.3699999 18.24005-.3599999 27.43005.01 2.95.12 5.52 2.319996 6.07 5.219996.1699.89.23 1.86.06 2.76-.04.23-.1.45-.18.66-.05.12-.13.37-.24.47-.19-1.46.1699-3.06-.36-4.44-.3101-.83-.76-1.65-1.47-2.2-2.34-1.809996-5.79-1.69-8.61-1.74-7.77-.149996-15.4901-.389996-23.23005.31-.36.03-.71-.1-1.05-.04-.77.13-1.51.65-2.07 1.16-.77.71-1.36 1.61-1.73 2.59-.1.29-.19.58-.27.87-.75 2.88-.43 6.21998-.07 9.13998-.33-.11-.56-.42-.67-.76 0-.01-.01-.03-.01-.05z"/><path d="m42.0205 13.7526c-.01 1.14-.02 2.28-.02 3.42-.01.54-.01 1.09-.01 1.64-.02 2.62-.05 5.23-.16 7.85-.02.46-.01.89-.16 1.32-.17.48-.16 1.07-.22 1.58-.02.16-.05.33-.17.45-.11.11-.27.13-.43.14-.25.03-.51.05-.76.08.15-.1.26-.24.35-.41.12-.25.15-.54.17-.82.37-4.61.4-9.24.27-13.86-.02-.61-.04-1.22-.06-1.83-.01-.14.02-.27.01-.41-.02-.18-.11-.35-.23-.5-.26-.32-.66-.52-1.04-.65-2.82-.95-5.98-.26-8.83-1.11h.34c2.74.16 5.47.32 8.2.48.66.04 1.35.09 1.92.43.8.48.84 1.36.83 2.2z"/></g><path d="m34.8828 30.7927c.24.04.47.07.71.11-.13.46-.32.89-.6 1.25-1.14 1.47-3.27 1.73-4.95 1.83-2.85.16-5.7.33-8.55.31-3.07-.02-6.09-.31-9.15-.52.92-.03 1.85-.04 2.77-.04-.34-.05-.68-.1-1.02-.13-1.56-.19-3.14-.25-4.70999-.31-.02 0-.04-.01-.05-.01h-.04c-.12-.03-.25-.07-.38-.11-.26-.08-.53-.17-.75-.32-.52-.37-.73-1.06-.91-1.69-.4-1.44-.25-2.87-.17-4.33.09-1.57.09-3.14.06-4.71-.05-1.96-.14-3.95-.2-5.92.29-.03.59-.05.88-.08.73-.06 1.45-.11 2.17999-.15.02 2.59.17 5.19.27 7.77.01.28-.03.56 0 .83.02.16 0 .26.11.39.15.19.59.38.85.43.31.05.64.02.95.02.68 0 1.37 0 2.05.01-.67.11-1.34.18-2.02.21-.29.01-.64-.04-.91.05s-.54.13-.81.2c-.08.02-.16.04-.21.1-.05.05-.06.12-.08.19-.05.29-.02.58.06.86.06.22.14.41.12.64-.05.54.03 1.09.11 1.63.03.2.04.38.16.55.26.36.72.56 1.13.67 3.17.87 6.49.91 9.78.95 1.94.02 3.88.04 5.82-.02 1.32-.04 3.73.23 4.87-.59.16-.11.3-.25.41-.41.74.12 1.48.24 2.22.34zm-24.87-16.49c.01-.55.06-1.1.11-1.65.01-.09.01-.18 0-.27-.02-.18-.02-.32.02-.49.1-.38.28-.78.64-.98.24-.13.53-.14.81-.15 1.36-.04 2.72-.04 4.08-.01-1.08-.11-2.16-.23-3.24-.34-.61-.06-1.23-.13-1.82.02.02-.01.08-.16.1-.18.04-.07.09-.14.14-.2.09-.11999.2-.23999.32-.33999.21-.18.4-.38.62-.55.47-.36 1.01-.61 1.56-.81.52-.19 1.06-.32 1.6-.45.37-.09.75-.09 1.13-.1 4.26-.06 8.52-.08 12.78-.11.71-.01 1.44.24 2.13.43.51.14 1.03.36 1.36.78.31.39.48.95.57 1.56999 1.01-.03 2.02-.09 3.05-.18-.09-1.20999-.3-2.37999-1.15-3.29999-.93-1-2.51-1.21-3.79-1.28-1.44-.08-2.88-.13-4.32-.17-1.13-.02-2.25-.04-3.37-.04-2.3-.01-4.56.08-6.84.2-2.48.12-5.6-.72-7.69999.98-1.04.84-1.54 1.89-1.75 3.25-.16 1.02999-.17 2.07999-.17 3.11999 0 .9.02 1.81.05 2.74 1.02.07 2.04.11 3.06.11.00999-.54.00999-1.07.01999-1.6zm26.32 3.49c-.05-1.97-.15-3.94-.29-5.91-.02-.31-.04-.62-.06-.94-1.01-.06-2.03-.12-3.05-.18.1 1.08.01 2.28.06 3.08.07 1.24.19 2.48.29 3.71.05.6.1 1.2.13 1.8.01.19.05.35-.06.51-.19.28-.6.33-.91.35-1.66.11-3.34.15-4.96.54 2.06.08 4.12.04 6.17-.11-.04.18-.09.37-.13.55-.04.16-.1.33-.1.49 0 .1.04.2.05.3.03.17.01.36.02.53.01.76 0 1.52-.01 2.28-.01.64-.03 1.28-.05 1.91-.01.07-.01.15-.01.22-.04 1.04-.05 2.58-.75 3.51 1 .1 2 .13 2.99.11.19-.83.25-1.72.34-2.49.33-2.69.29-5.43.32-8.14.01-.71.01-1.41.01-2.11.01.01 0 0 0-.01z" fill="url(#e)"/><g fill="#e68b4a"><path d="m25.652 34.1023c1.31-.02 2.65-.04 3.95-.24.27-.04.56-.03.84-.05.59-.04 1.17-.1 1.75-.18.38-.05.76-.11 1.13-.24 1.11-.38 1.99-1.38 2.23-2.53-.61-.03-1.31-.03-1.92-.06.51-.09 1.26.17 1.49.64-.66.58-1.4 1.1-2.24 1.33-.45.12-.92.16-1.38.19-3.15.24-6.31.49-9.46.43-1.52-.02-3.03-.12-4.55-.06-.44.02-.88.05-1.31.06-.25.01-.5.03-.75-.01-.17-.02-.35-.01-.52-.01-.38 0-.75-.01-1.13-.03-.75-.03-1.5-.09-2.25-.17-.81-.09-1.63002-.2-2.43002-.35-.39-.07-.8-.16-1.08-.42-.19-.18-.31-.42-.41-.65-.33-.76-.55-1.57-.65-2.39-.29 1.01.01 2.12.68 2.94.63.77 1.6 1.21 2.57002 1.39.73.14 1.55.21 2.28.13.16-.02.32 0 .49.01.38.02.76.04 1.14.06.76.04 1.52.07 2.28.09s1.51.03 2.27.04c.35 0 .73.04 1.08-.01.34-.05.72.01 1.07.02 1.52.05 3.05.09 4.57.08.08-.01.17-.01.26-.01z"/><path d="m37.0706 11.2522s-1.23-.04-1.34-.04c-.46-.02-.91-.05-1.37-.08-.23-.02-.46-.03-.68-.05-.11-.01-.23-.02-.34-.03-.06-.01-.13-.02-.2-.02-.03 0-.05.01-.07.01-.04-.01-.09-.02-.13-.03-.18-.05-.36-.09-.54-.14 0-.03-.01-.05-.01-.08 0-.01.25-.01.27-.01.07.01.15.03.22.02.06-.01.11-.02.17-.02h.28c.38 0 .76.01 1.13.03.38.02.76.04 1.13.07.38.03.76.07 1.13.12.13.02.27.03.4.05.02.09-.05.1-.05.2z"/><path d="m10.4204 15.9229c-1.20002.12-2.40002.28-3.59002.5-.08-.08-.11001-.17-.09001-.27 1.25001-.15 2.42001-.18 3.68003-.23z"/></g><path d="m34.042 18.8322c.04 2.79-.04 5.54-.22 8.26-.04.61-.08 1.23-.14 1.84-.15 1.85-1.65 3.31-3.5 3.44-5.91.4-11.95.38-18.1-.01-1.88-.12-3.39004-1.63-3.51004-3.51 0-.03-.01-.05-.01-.08-.24-4.72-.28-9.52-.13-14.4.01-.23.01-.46.02-.69.04-.93.07-1.85.12-2.78.01-.22.04-.43.09-.64 0-.04.01-.08.03-.12.39-1.58 1.78004-2.75 3.47004-2.84 5.9-.29 11.87-.29 17.93.01 1.89.09 3.44 1.57 3.59 3.46.14 1.77.24 3.52.3 5.26.04.94.06 1.87.06 2.8z" fill="#e58b4a"/><path d="m21.7188 24.3047c.0312-.0313.0468-.0703.0468-.1172.0156-.0469.0391-.0937.0703-.1406.0625-.1563.0938-.2344.0938-.2344.0156 0 .0234-.0156.0234-.0469.0313-.0625.0547-.125.0703-.1875.0157-.0625.0391-.1328.0704-.2109.0624-.0781.0937-.1406.0937-.1875.0156-.0469.0391-.0859.0703-.1172.0625-.1719.1016-.2734.1172-.3047.0469-.1094.0703-.1875.0703-.2344 0-.0625.0078-.1172.0235-.164.0781-.1875.1171-.2891.1171-.3047s.0079-.0391.0235-.0703c.0468-.125.0859-.211.1172-.2578.0312-.0469.0546-.1016.0703-.1641l.1172-.3516c.0468-.1718.0781-.2578.0937-.2578.0313-.0156.0313-.039 0-.0703.0625-.1406.1016-.2187.1172-.2344.0156-.0156.0312-.039.0469-.0703.0312-.1093.0469-.1719.0469-.1875 0-.0312.0078-.0547.0234-.0703.0469-.125.0703-.1953.0703-.2109.0156-.0156.0234-.0313.0234-.0469.0782-.1719.1016-.2734.0703-.3047-.0156-.0469-.0156-.0937 0-.1406 0-.0469.0157-.0938.0469-.1406.0313-.0625.0547-.1172.0703-.1641.0469-.2187.0704-.3594.0704-.4219.0156-.0625.039-.1328.0703-.2109.0156-.0625.0234-.125.0234-.1875.0156-.0625.0391-.1172.0703-.1641.0625-.1719.1016-.2812.1172-.3281.0312-.0469.0547-.0938.0703-.1406.0156-.1563.0313-.25.0469-.2813.0156-.0469.0312-.1093.0469-.1875.0156-.125.0312-.1953.0468-.2109.0157-.0156.0235-.0313.0235-.0469.0312-.0625.0625-.1797.0937-.3516.0625-.1718.0938-.2968.0938-.375.0469-.2187.0781-.3437.0937-.375.0782-.1718.1172-.2734.1172-.3046 0-.0469.0078-.0938.0234-.1407.0626-.0937.0938-.1484.0938-.164 0-.0157.0078-.0391.0234-.0703.0157-.0313.0157-.0704 0-.1172 0-.0469.0078-.0938.0235-.1406.0469-.1094.0703-.1719.0703-.1876 0-.0156.0078-.039.0234-.0703.0782-.1406.1172-.2187.1172-.2343l.0938-.3047c.0156-.0469.0234-.086.0234-.1172.0156-.0469.0234-.1016.0234-.1641.0469-.1406.086-.2422.1172-.3047.0469-.0781.086-.1562.1172-.2343.0625-.1719.0938-.2578.0938-.2578.0312-.0626.0546-.1329.0703-.211.0156-.0781.039-.1484.0703-.2109.1719-.2657.4609-.3828.8672-.3516.1718 0 .3125.0235.4218.0703.125.0469.2657.086.4219.1172.0938.0313.1953.0469.3047.0469.125 0 .2344.0078.3281.0234.0625.0157.1172.0313.1641.0469.0625.0156.1172.0312.1641.0469.0781.0156.1562.0234.2343.0234h.2578.2344c.0782-.0156.1563-.0156.2344 0 .0625 0 .1172.0078.1641.0235.0625.0156.1171.0234.164.0234.0781.0156.1485.0234.211.0234h.1875c.125.0156.2343.0235.3281.0235.1094-.0157.2187-.0235.3281-.0235.1406.0625.2188.1094.2344.1406.0312.0157.0625.0391.0937.0704.1094.0312.1875.0937.2344.1875.0469.0937.1094.1797.1875.2578-.0156.0469-.0156.0937 0 .1406.0313.0313.0469.0703.0469.1172-.0313.1719-.0469.2578-.0469.2578-.0156.0625-.039.1094-.0703.1406-.0156.0313-.0234.0781-.0234.1407-.0313.0468-.0625.1093-.0938.1874-.0312.0626-.0625.1329-.0937.211-.0625.1094-.1094.2031-.1407.2812-.0312.0625-.0625.1328-.0937.211-.0938.2031-.1484.3281-.1641.375 0 .0312-.0156.0625-.0469.0937-.0624.1719-.1015.2657-.1171.2813-.0157.0156-.0313.039-.0469.0703-.0469.0625-.0703.1172-.0703.1641 0 .0312-.0078.0624-.0235.0937-.0781.1563-.1172.2578-.1172.3047 0 .0312-.0078.0625-.0234.0937-.0781.1563-.1172.2344-.1172.2344-.0781.1719-.125.2813-.1406.3281 0 .0469-.0156.0938-.0469.1407-.0469.1718-.0937.289-.1406.3515-.0469.0469-.0547.1016-.0234.1641-.0313.0312-.0547.0703-.0703.1172-.0157.0469-.0391.0859-.0704.1172-.0312.1406-.0781.2812-.1406.4218-.0469.1094-.0703.1953-.0703.2579-.0625.1406-.1016.2187-.1172.2343v.0235c-.0312.1093-.0625.1953-.0937.2578-.0313.125-.0625.2187-.0938.2812-.0625.1719-.1016.2735-.1172.3047 0 .0313-.0156.0469-.0468.0469.0156.0625.0078.1172-.0235.164-.0156.0313-.0312.0704-.0469.1172-.0625.1719-.0937.2813-.0937.3282-.0625.1875-.1172.289-.1641.3046-.0312.125-.0547.211-.0703.2579-.0156.0468-.0391.1171-.0703.2109-.0312.1562-.0703.3125-.1172.4688-.0312.0781-.0547.1328-.0703.164-.0156.0156-.0313.0391-.0469.0703-.0156.0313-.0234.0703-.0234.1172s-.0078.0938-.0234.1406c-.0157.0625-.0469.125-.0938.1875-.0312.0469-.0625.1016-.0938.1641l-.1406.3281c-.0312.0469-.0547.0938-.0703.1406 0 .0469-.0156.0938-.0469.1407-.0312.1093-.0781.2031-.1406.2812-.0625.1563-.0937.25-.0937.2813 0 .0312-.0079.0625-.0235.0937-.0625.1407-.0937.2344-.0937.2813 0 .0312-.0078.0625-.0235.0937-.0312.0469-.0546.1016-.0703.1641-.0156.0625-.039.125-.0703.1875-.0781.1406-.1172.2265-.1172.2578s-.0078.0625-.0234.0937c-.0625.0938-.1016.1641-.1172.211 0 .0312-.0156.0703-.0469.1172-.0781.1406-.1172.2344-.1172.2812 0 .0469-.0078.086-.0234.1172-.0469.0625-.0781.1094-.0937.1406-.0157.0313-.0235.0625-.0235.0938-.125.1875-.1953.3125-.2109.375s-.0391.1328-.0703.2109c-.0938.1719-.1563.3047-.1875.3985-.0313.0781-.0704.164-.1172.2578-.0782.125-.1172.2109-.1172.2578s-.0078.0937-.0234.1406c-.0782.1406-.1172.2344-.1172.2813 0 .0312-.0078.0625-.0235.0937-.0937.1406-.1406.2344-.1406.2813 0 .0312-.0156.0625-.0469.0937-.0625.0938-.0937.1563-.0937.1875 0 .0313-.0078.0703-.0235.1172-.0156.0313-.039.0703-.0703.1172-.0312.0312-.0547.0703-.0703.1172-.0469.1719-.0781.2656-.0937.2812-.0157.0157-.0313.0391-.0469.0703-.0156.0469-.0234.1016-.0234.1641 0 .0469-.0157.0937-.0469.1406-.0625.1094-.1016.1797-.1172.211 0 .0312-.0078.0625-.0235.0937-.0156.0313-.0312.0703-.0468.1172-.0156.0625-.0313.125-.0469.1875-.125.1563-.2344.2344-.3281.2344-.0313.0156-.0703.0156-.1172 0-.0469 0-.0938 0-.1406 0-.2344 0-.3985-.0078-.4922-.0235-.0938 0-.1953.0078-.3047.0235-.0781 0-.1563.0078-.2344.0234-.0625.0156-.1406.0156-.2344 0-.0625 0-.1171-.0078-.164-.0234-.0469 0-.0938 0-.1407 0-.0781-.0157-.1484-.0157-.2109 0-.0469.0156-.0937.0234-.1406.0234-.1719.0313-.3438.0313-.5156 0-.0469 0-.0938-.0078-.1407-.0234-.0468 0-.1015 0-.164 0-.0469-.0157-.0938-.0235-.1406-.0235-.0313.0157-.0704.0235-.1172.0235-.0625.0156-.1563.0234-.2813.0234-.0781.0156-.1641.0391-.2578.0703-.0781.0313-.1563.0469-.2344.0469-.0937.0156-.1875.0156-.2812 0-.0938-.0156-.1797-.0234-.2578-.0234-.0625.0156-.125.0312-.1875.0468-.0625.0313-.1328.0469-.211.0469-.0312 0-.0781-.0078-.1406-.0234-.0469-.0156-.0859-.0313-.1172-.0469-.2031-.125-.3047-.2422-.3047-.3516-.0781-.1093-.1328-.1797-.164-.2109-.0469-.0781-.0703-.1328-.0703-.1641 0-.0312-.0079-.0625-.0235-.0937-.0625-.2031-.1172-.3281-.1641-.375-.0312-.0781-.0624-.1406-.0937-.1875-.0156-.0469-.0391-.1016-.0703-.1641-.0781-.2031-.1328-.3281-.1641-.375-.0156-.0468-.039-.1094-.0703-.1875-.0781-.1719-.1328-.2812-.164-.3281-.0157-.0469-.0391-.0938-.0704-.1406-.0312-.0469-.0546-.086-.0703-.1172-.0156-.0469-.039-.0938-.0703-.1406-.0312-.0469-.0781-.1485-.1406-.3047-.0313-.1094-.0625-.1719-.0938-.1875-.0156-.0313-.0312-.0625-.0468-.0938-.0313-.1562-.0625-.25-.0938-.2812l-.0703-.2813c-.0625-.1562-.0937-.2422-.0937-.2578.0156-.0156.0156-.0312 0-.0469-.0626-.1562-.1016-.2578-.1172-.3046 0-.0469-.0157-.0938-.0469-.1407-.0156-.0469-.0391-.0859-.0703-.1172-.0156-.0468-.0391-.0937-.0703-.1406-.0157-.0625-.0235-.1172-.0235-.1641 0-.0468-.0156-.0937-.0468-.1406-.0157-.0468-.0391-.0859-.0704-.1172-.0156-.0468-.0312-.0937-.0468-.1406-.0313-.1094-.0547-.1719-.0704-.1875-.0156-.0312-.0312-.0625-.0468-.0937-.0625-.1875-.1016-.2969-.1172-.3282-.0156-.0312-.0391-.0625-.0703-.0937-.0781-.2188-.1328-.3594-.1641-.4219-.0156-.0625-.039-.1328-.0703-.2109-.0625-.0625-.1094-.125-.1406-.1875-.0157-.0782-.0391-.1485-.0703-.211-.0782-.1718-.125-.2656-.1407-.2812-.0156-.0313-.0312-.0625-.0468-.0938-.0313-.1406-.0547-.2343-.0703-.2812-.0157-.0625-.0313-.125-.0469-.1875-.0313-.0313-.0547-.0703-.0703-.1172-.0157-.0469-.0391-.0859-.0704-.1172-.0624-.125-.0937-.1953-.0937-.2109.0156-.0156.0156-.0391 0-.0703-.0313-.1407-.0625-.2579-.0937-.3516-.0313-.1563-.0626-.2734-.0938-.3516-.0156-.0781-.0391-.1562-.0703-.2343-.0469-.1094-.0781-.1797-.0938-.211-.0156-.0468-.0312-.0859-.0468-.1172-.0469-.1718-.0782-.2656-.0938-.2812 0-.0156-.0078-.0469-.0234-.0938-.0469-.1718-.0781-.2578-.0938-.2578 0 0 0-.0078 0-.0234-.0156-.0313-.0312-.0781-.0469-.1406-.0156-.0782-.0312-.1328-.0468-.1641-.0469-.1406-.0782-.2344-.0938-.2813 0-.0624-.0156-.125-.0468-.1874-.0157-.0469-.0391-.1016-.0704-.1641-.0156-.0781-.0312-.1406-.0468-.1875-.0625-.1094-.0938-.1719-.0938-.1875 0-.0313-.0078-.0625-.0234-.0938-.0782-.1406-.125-.2187-.1406-.2343 0-.0313-.0079-.0625-.0235-.0938-.0781-.1406-.1172-.2187-.1172-.2344 0-.0312-.0156-.0625-.0469-.0937-.0312-.125-.0624-.2188-.0937-.2813-.0781-.1562-.1172-.2343-.1172-.2343.0156-.0157.0156-.0391 0-.0703-.0937-.2032-.1562-.3516-.1875-.4454-.0312-.0937-.0781-.1875-.1406-.2812-.0781-.1719-.1172-.2734-.1172-.3047.0156-.0469.0156-.0859 0-.1172-.0938-.1719-.1406-.2891-.1406-.3515l-.1172-.2813c-.0938-.25-.1641-.4297-.211-.5391-.0624-.1093-.1484-.2031-.2578-.2812 0-.0781-.0234-.1406-.0703-.1875-.0469-.0625-.0859-.1328-.1172-.2109-.0468-.1563-.0703-.2422-.0703-.2579-.0312-.0781-.0547-.1562-.0703-.2343-.0156-.0782-.0156-.1641 0-.2578.0313-.2813.2109-.4688.5391-.5626.0468-.0156.1484-.0234.3047-.0234.0781-.0156.1406-.0234.1875-.0234.0625-.0156.1328-.0313.2109-.0469s.1406-.0234.1875-.0234c.0625-.0157.125-.0313.1875-.0469.0781-.0156.1406-.0234.1875-.0234.0625-.0157.1328-.0313.2109-.0469.0625-.0157.125-.0157.1875 0 .0782 0 .1563-.0078.2344-.0235h.211l.2343-.0468c.1875-.0313.3672-.0625.5391-.0938.1719-.0469.3437-.0781.5156-.0937.2031 0 .3438-.0235.4219-.0703.0625-.0157.125-.0235.1875-.0235.0781-.0156.1562-.0312.2344-.0469.1093-.0156.2265-.0312.3515-.0468.125-.0157.2422-.0235.3516-.0235s.2422.0157.3984.0469c.125.0469.2031.0938.2344.1406.0313.0469.0781.0938.1406.1406.1094.1094.1719.1876.1875.2344.0313.0469.0469.1016.0469.1641v.1172c.0625.1406.0937.25.0937.3281v.1875c.0313.0781.0469.1797.0469.3047.0157.1094.0313.2187.0469.3281.0156.0625.0156.125 0 .1875 0 .0625.0078.1172.0234.1641.0157.0625.0313.125.0469.1875.0313.0468.0547.1015.0703.164.0313.1407.0469.2344.0469.2813s.0078.0937.0234.1406c.0313.2344.0703.4531.1172.6563.0625.1875.086.3046.0703.3515v.0938c.0625.2031.0938.3359.0938.3984.0156.0469.039.1016.0703.1641.0625.1562.1016.2578.1172.3047.0156.0468.0312.1093.0469.1875.0156.0468.0156.1015 0 .164 0 .0469.0078.0938.0234.1406.0625.1876.0938.336.0938.4454.0781.2031.1171.3359.1171.3984s.0157.125.0469.1875c.0625.0625.1016.1172.1172.1641.0156.0312.0234.0625.0234.0937.0469.1406.0625.2344.0469.2813 0 .0468.0078.0937.0235.1406 0 .0937.0312.2187.0937.375.0156.0781.0313.1562.0469.2344.0312.0625.0625.1328.0937.2109.0313.125.0625.2734.0938.4453.0469.1719.1015.3281.164.4688.0469.0625.0703.125.0703.1875.0157.0468.0313.0859.0469.1171.0781.1719.1172.2735.1172.3047.0156.0313.0313.0625.0469.0938.0312.0625.0547.125.0703.1875.0313.0469.0625.1016.0937.164.0313.1094.0626.211.0938.3047.0312.1719.0547.2813.0703.3282.0469.1406.0781.2578.0938.3515.0312.0938.0468.1953.0468.3047.0625.0625.0938.1406.0938.2344 0 .0937.0234.1797.0703.2578z" fill="#693821"/></svg>