<svg fill="none" height="46" viewBox="0 0 47 46" width="47" xmlns="http://www.w3.org/2000/svg"><path d="m30.5269 27.1983c-.4082.4196-.8037.8269-1.1992 1.2588.5231-.3085 1.0461-.6047 1.5692-.9009.689-.3949 1.3779-.8022 2.0796-1.1972.4337-.2468.8675-.4936 1.3651-.5924.4848-.111 1.0334-.0493 1.4034.2715.5741.4937.5358 1.3576.3954 2.0735.1659-.2962.5742-.4073.9186-.3333.3445.0864.6379.2962.9186.5061.3827.2838.8165.5677 1.1865.9009.102.0864.1531.2098.2169.3209.1276.1975.3062.3579.4593.5307.5868.6294 1.1864 1.2959 1.7733 1.9376.0893.0988.1914.1975.2807.2962 1.0079 1.0861 2.003 2.1845 3.0236 3.2706 1.1482 1.2342 1.0334 3.1719-.2551 4.2209l-6.698 5.4674-.1658.1358c-1.161.938-2.8323.8269-3.8657-.2715-.6634-.7159-1.3396-1.4317-2.0157-2.1352-1.3396-1.4193-2.6792-2.8386-4.0316-4.2455-.6889-.7405-1.3778-1.4687-2.0795-2.1969-.2807-.2962-.5996-.5554-.8548-.8762-.2807-.3703-.5868-.7282-.8165-1.1355-.3062-.5307-.4976-1.1725-.3317-1.7525-.3189.3209-.6507.6294-.9824.938-.1531.1481-.3062.3208-.4848.4566-.051.0247-.1148.0617-.1658.0864-.1659.1111-.319.2715-.4593.3949-.0766.0617-.1531.1605-.2424.2222-.051.0617-.1148.1111-.1659.1357-.3955.3209-.7782.6542-1.1609.975-.319.2839-.7017.5554-.9696.901-.2297.3579-.7017.6171-1.0462.8886-.4083.3085-.8037.6418-1.1992.9503-.0638.0494-.1149.0864-.1914.0864-.0638 0-.1148-.0247-.1786-.0617-.1276-.0741-.2424-.1604-.3572-.2468-.4976-.3579-.9059-.8023-1.3014-1.2836-.5486-.6541-1.0589-1.3452-1.7095-1.9006.3189.5677.6379 1.1354.9058 1.7278.1021.2222.2169.4443.3062.6665.102.1975.1786.4073.2679.6171.1148.3209.2552.6664.2552 1.0243 0 .5307-.2807 1.0368-.6379 1.4564-.1404.1851-.319.3702-.4466.5677-.0638.0864-.1403.1358-.2169.2098-.3061.2592-.6123.5184-.9058.7775l-.1276.1111-1.5054 1.2959c-.3827.3209-.8165.5307-1.27579.6171-.90581.2098-1.88817-.0741-2.58986-.7899-.29343-.2962-.58687-.58-.86754-.8639-.31895-.3209-.61239-.6788-.96961-.9627-.22964-.1851-.51032-.2838-.7272-.4689-.34447-.2962-.61238-.6912-.8803-1.0368-.28068-.3826-.54859-.7528-.77824-1.1477-.05103-.0864-.11482-.1852-.11482-.2839 0-.1481.10206-.2962.20413-.4196.58686-.6665 1.17373-1.3206 1.79887-1.9624.29343-.3209.61238-.6541.93133-.9626-.29343.1728-.59962.3455-.91857.506 0 .0123-.01276.0123-.02552.0247-.44653.2591-.89305.506-1.3651.7405-.36998.1974-.75272.3826-1.13546.5554-.03827.0246-.06379.037-.10206.0493-.01276.0124-.02552.0124-.02552.0124-.15309.0864-.31895.1481-.49756.1357-.0893-.0123-.17861-.037-.25516-.0864-.20412-.0987-.38274-.2962-.535831-.4443-.140338-.1481-.306191-.2715-.472045-.4073-.153095-.1234-.242401-.2715-.306191-.4443-.408254-1.086-.0893055-2.3819.790994-3.1595.076543-.0493.140333-.1234.204123-.1727.77824-.6788 1.53096-1.3576 2.29644-2.0364.75272-.6418 1.50544-1.3083 2.2454-1.9747 1.46716-1.3082 2.93433-2.6165 4.38869-3.9247.0511-.037.1021-.0987.1531-.1358.3828-.3332.7655-.6788 1.1483-1.012.1531-.1604.3444-.2962.4975-.469.0383-.074.0893-.1357.1276-.1974h.0255c.0255-.0494.0638-.0864.1021-.1111.102-.0741.2169-.1481.3189-.2098.0128 0 .0128-.0124.0128-.0124h.0127c.319-.1851.6507-.3579.9696-.543.4083-.2222.8293-.469 1.2376-.7035.0382-.0247.0638-.037.102-.0617.9952-.5801 1.9775-1.1478 2.9726-1.7155.791-.469 1.5693-.9256 2.3603-1.3699-.1021.0123-.2169.037-.319.074-.8037.1728-1.582.432-2.3347.7158-1.4161.5184-2.8195 1.0984-4.2867 1.3329-.2806.0494-.5741.0864-.8675.0988-.5869.0493-1.212 0-1.7096-.2962-.2934-.1852-.5231-.4196-.76545-.6665-.22965-.1975-.48481-.2838-.68893-.506-2.50056-2.6165-4.97561-5.2329-7.45065-7.8494-1.058914-1.1231-1.058914-2.85092-.05103-3.97403.02551-.02468.05103-.0617.07654-.08639 2.21989-2.28323 4.56735-4.44304 7.01688-6.467092.29343-.259177.61238-.431962.95685-.543038.61239-.1974688 1.28859-.1727852 1.88819.061709.37.135759.7017.357911.9951.654114.3827.382597.7527.752847 1.1355 1.135447.7272.7405 1.9264 1.92532 1.684 3.04842-.1148.45664-.2424.92563-.4082 1.38228-.0893.22215-.1659.4443-.2552.66645-.2679.60475-.5613 1.16013-.8931 1.70317.3062-.30855.5997-.64177.8931-.98734.2041-.2345.4083-.48133.5869-.72817.0638-.08639.1275-.16044.1913-.24683.1786-.27152.37-.5307.6124-.74051.0766-.06171.1531-.09874.2169-.12342.3317-.17278.7017-.13576 1.0717.03703.9185.39493 1.8882 1.5674 2.5388 2.38196.2424.28386.4338.5307.5741.6788.5614.5924 1.1355 1.19714 1.6968 1.80194.1404.1604.2935.3085.4466.4689.0127.0124.0255.0247.0255.0371.3827.4073.7655.8269 1.1482 1.2341 1.5054-1.3205 3.0109-2.64109 4.5163-3.92464 2.5516-2.19683 5.1159-4.36899 7.6803-6.45475 1.1482-.93797 2.8068-.78987 3.8657.27152.5868.60475 3.0874 2.90032 2.6664 3.71488-.1021.22215-.2297.43196-.37.64177-.4593.76519-1.0717 1.45633-1.6585 2.14747-.4593.54304-.9441 1.11075-1.4289 1.67845.4975-.1851.9058-.4936 1.2885-.82687.2935-.27152.5614-.55538.8293-.81456.7399-.67879 1.5565-1.2712 2.4368-1.77721.0893-.03703.1913-.08639.2934-.07405.1021.02468.1786.07405.2551.1481.4976.45664 1.0717 1.02437 1.5565 1.66614.4848.62943.8931 1.32055 1.0844 2.02405.268.9627.1149 1.9377-.8547 2.7769-2.6409 2.2709-5.2691 4.5294-7.8972 6.788-.2424.2098-.4721.4073-.7145.6047-.4592.395-.9058.7776-1.3523 1.1725-.3189.2592-.6124.5801-.9568.8022-.0511.0494-.0894.0617-.1531.0864-.2935.0987-.4976.2592-.7272.469-.0383.0123-.0638.037-.0894.074-1.1992 1.0614-2.3602 2.1599-3.4956 3.2953-.0383.037-.0766.0741-.1149.1111z" fill="#e68b4a"/></svg>